<svg width="151" height="151" viewBox="0 0 151 151" fill="none" xmlns="http://www.w3.org/2000/svg">
<path d="M146.461 136.784C98.4703 135.852 51.5238 136.733 4.32953 136.784C4.19001 136.782 4.05534 136.835 3.95402 136.931C3.85271 137.027 3.79272 137.159 3.78675 137.298C3.78078 137.437 3.82929 137.574 3.92203 137.678C4.01477 137.782 4.14444 137.846 4.28359 137.857C51.4869 137.826 99.2642 137.811 146.434 137.646C146.491 137.65 146.548 137.642 146.602 137.622C146.656 137.603 146.706 137.573 146.749 137.535C146.791 137.496 146.825 137.449 146.85 137.397C146.874 137.345 146.887 137.289 146.889 137.231C146.891 137.174 146.882 137.117 146.862 137.063C146.842 137.009 146.811 136.96 146.771 136.919C146.732 136.877 146.684 136.844 146.632 136.821C146.579 136.797 146.523 136.785 146.465 136.784H146.461Z" fill="#2B2E3F"/>
<path d="M49.241 32.3622C49.079 31.9629 48.5051 32.9241 48.8425 33.0205C49.1799 33.1169 49.3027 32.5151 49.241 32.3622Z" fill="#2B2E3F"/>
<path d="M44.7264 32.9337C44.2164 32.7597 43.9732 34.6849 45.2679 35.2626C45.3352 35.2931 45.4115 35.2965 45.4812 35.2721C45.5509 35.2477 45.6085 35.1974 45.642 35.1317C45.6756 35.0659 45.6825 34.9898 45.6614 34.9191C45.6402 34.8483 45.5927 34.7885 45.5285 34.7519C44.4665 34.2766 45.0842 33.0557 44.7264 32.9337Z" fill="#2B2E3F"/>
<path d="M46.8257 33.5769C46.7277 33.9084 47.3363 34.0364 47.5096 34.0876C48.0203 34.2051 48.25 34.001 48.0865 33.5363C47.9879 33.127 47.9486 32.7056 47.9698 32.2852C47.8192 31.8408 47.3363 32.3718 47.6067 33.6229C47.3921 33.5822 46.9168 33.2704 46.8257 33.5769Z" fill="#2B2E3F"/>
<path d="M47.1274 29.0743C46.2989 28.5764 45.2632 29.35 45.5954 29.6663C45.7076 29.7687 45.7897 29.7326 45.9072 29.6663C46.0522 29.5838 46.2144 29.5363 46.381 29.5274C46.5475 29.5185 46.7139 29.5485 46.8668 29.6151C47.3722 29.7115 47.4762 29.2829 47.1274 29.0743Z" fill="#2B2E3F"/>
<path d="M49.9915 30.9271C50.072 31.193 50.4562 31.1771 50.4102 30.8043C50.3643 30.4315 50.1142 30.0383 49.7926 30.0029C49.471 29.9675 49.236 30.3298 49.6133 30.5136C49.7033 30.5497 49.784 30.6057 49.8495 30.6773C49.9149 30.7488 49.9635 30.8342 49.9915 30.9271Z" fill="#2B2E3F"/>
<path d="M46.0491 31.9363C46.315 32.1351 46.7134 31.3028 46.4423 31.1552C46.1711 31.0076 45.7486 31.7103 46.0491 31.9363Z" fill="#2B2E3F"/>
<path d="M21.406 70.593C21.0181 71.954 19.7309 75.3013 20.2107 75.5921C25.8282 78.9815 41.9485 80.2899 49.4144 78.9115C50.5118 78.7074 48.97 77.5685 48.6333 73.3964C47.9388 64.8896 51.1046 56.4438 49.6125 50.4987C49.5304 50.177 48.9737 50.3149 49.0347 50.6493C49.8008 54.8621 49.1018 57.9261 48.448 62.0417C47.7633 66.3614 47.0741 73.9425 48.9587 78.1161C42.136 79.1781 27.2156 78.0807 20.7711 75.0528C21.2155 73.6217 21.6855 72.1981 22.1043 70.7594C22.2022 70.3836 21.5152 70.2096 21.406 70.593Z" fill="#2B2E3F"/>
<path d="M16.672 69.5362C18.659 69.8164 29.9489 69.4541 32.8903 68.6836C33.7022 68.4689 33.6661 68.4576 33.5335 67.7586C32.8556 63.1678 33.5938 62.4462 32.6756 62.3822C29.4737 62.1728 26.5173 61.8715 23.4381 61.6162C25.2609 57.5307 25.9915 55.6823 28.4372 52.5113C28.6572 52.2258 28.386 51.9034 28.1006 52.1588C26.2311 53.849 23.3206 59.0989 22.764 61.5552C21.6873 61.4574 20.6061 61.4182 19.5252 61.4377C19.2141 61.4377 19.1064 61.9483 19.4438 62.0093C21.7826 62.4537 29.4473 62.8823 32.4903 63.1633C32.4698 64.7314 32.6188 66.2971 32.9347 67.8332C28.1779 68.6506 23.3543 69.0156 18.5287 68.9231C13.7797 68.8877 12.2175 66.784 13.4942 62.285C15.1995 56.2646 18.4112 49.6009 22.8793 45.2247C26.454 41.7064 30.7639 40.5367 35.5996 40.0825C36.462 44.9641 43.1317 45.9041 46.0467 42.4317C50.3008 45.2653 52.8256 48.3957 56.4027 52.1641C60.876 56.8822 62.1068 57.8222 68.3517 59.8235C71.012 60.6867 73.7078 61.4377 76.4111 62.1419C75.9627 63.6371 75.687 65.1786 75.5893 66.7365C70.8441 66.2258 65.0601 65.0667 60.2704 64.0551C55.5621 63.0661 54.5972 62.291 50.5735 59.8808C50.3031 59.7173 50.032 60.1617 50.282 60.3455C53.3461 62.572 55.3888 63.735 59.1059 64.6042C61.7565 65.2271 73.2047 67.4837 75.8093 67.5297C76.32 67.5297 76.1972 67.1531 76.32 65.9984C76.4164 65.2452 76.738 62.7196 77.1485 62.1886C77.1852 62.1313 77.209 62.0667 77.2182 61.9993C77.2274 61.9319 77.2219 61.8633 77.202 61.7982C77.1821 61.7332 77.1482 61.6732 77.1029 61.6225C77.0575 61.5718 77.0016 61.5316 76.9391 61.5047C72.9614 60.3967 66.0175 58.6605 62.6415 56.6276C58.3158 54.0441 51.6446 44.9595 46.7396 42.0032C46.403 41.7938 45.9488 41.3253 45.6573 41.6559C42.8538 44.8579 37.4871 44.2922 36.282 39.8844C36.1901 39.5469 36.0982 39.3737 35.7713 39.3481C31.1329 39.3574 26.6446 40.9926 23.0871 43.9691C18.5822 47.9001 14.4048 55.8887 12.8728 62.111C12.0051 65.5788 12.1791 68.902 16.672 69.5362Z" fill="#2B2E3F"/>
<path d="M34.0951 67.2434C33.7991 67.3187 33.186 68.5201 37.3731 67.1206C39.3036 66.4721 43.7611 64.7261 45.0838 62.6683C45.2676 62.3821 44.839 62.1268 44.6319 62.3972C43.4169 63.9789 41.854 64.5062 40.0372 65.2925C38.1477 66.1932 36.1508 66.8488 34.0951 67.2434Z" fill="#2B2E3F"/>
<path d="M39.3931 62.7143C38.476 62.5299 37.5415 62.4458 36.6062 62.4635C35.6979 62.6588 34.8138 62.9533 33.9699 63.3417C33.6581 63.4645 33.8727 63.9293 34.1838 63.8524C35.0523 63.6845 35.8484 63.2197 36.7372 63.1324C37.626 63.045 38.5246 63.283 39.4029 63.1783C39.442 63.1957 39.4848 63.2031 39.5275 63.1996C39.5702 63.1961 39.6113 63.182 39.6471 63.1585C39.6829 63.135 39.7122 63.1028 39.7323 63.0651C39.7524 63.0273 39.7627 62.985 39.7622 62.9422C39.7617 62.8994 39.7505 62.8574 39.7295 62.8201C39.7085 62.7827 39.6785 62.7513 39.6422 62.7286C39.6059 62.7059 39.5645 62.6927 39.5217 62.6902C39.479 62.6877 39.4363 62.696 39.3976 62.7143H39.3931Z" fill="#2B2E3F"/>
<path d="M43.2509 62.3767C41.1916 63.5306 40.4173 64.5211 37.6771 63.9088C37.3653 63.8372 37.2892 64.3019 37.5498 64.4194C39.6535 65.3986 41.859 63.96 43.5755 62.8008C43.8791 62.6012 43.5545 62.2065 43.2509 62.3767Z" fill="#2B2E3F"/>
<path d="M37.4251 38.75C37.2925 39.0611 37.1697 39.3729 37.0575 39.6945C37.0435 39.7562 37.0524 39.821 37.0826 39.8766C37.1128 39.9322 37.1622 39.975 37.2216 39.9968C37.281 40.0187 37.3464 40.0182 37.4054 39.9954C37.4645 39.9726 37.5132 39.9291 37.5426 39.873C38.6416 37.3657 39.9322 34.9467 41.4028 32.6376C41.9489 31.7436 41.6634 31.6976 41.2138 31.315C40.0192 30.2936 41.4232 27.5308 42.7458 28.2509C43.032 28.4015 43.0268 29.1397 43.5743 28.8437C44.4103 28.3982 45.0655 27.6761 45.428 26.801C47.2819 28.0096 49.2852 28.9717 51.3874 29.6632C50.5484 31.9123 47.888 38.3387 44.6657 37.5396C44.1523 37.3565 43.6891 37.0555 43.3131 36.6608C42.9371 36.2661 42.659 35.7888 42.501 35.2671C42.3782 34.9349 41.8984 35.1443 41.9594 35.4614C42.0888 36.0602 42.3592 36.6195 42.7482 37.0928C43.1371 37.5661 43.6334 37.9398 44.1957 38.1828C43.9509 38.576 42.9153 40.9697 43.4425 41.323C43.8048 41.5738 44.2289 41.5685 44.6582 41.808C45.0875 42.0476 45.3015 41.5535 44.903 41.3282C44.5847 41.1606 44.2579 41.0098 43.9238 40.8763C43.9568 40.6089 44.0166 40.3454 44.1023 40.09C45.8347 40.5698 51.1494 43.7664 53.4573 46.4878C50.5408 38.866 54.6692 40.2768 55.1648 36.3856C55.445 34.2104 54.3935 33.7916 54.4395 31.5598C54.4854 29.6504 55.6243 28.8075 55.0775 25.6847C54.4749 22.2199 48.1479 17.7089 41.8472 20.9613C39.5394 22.1107 38.9925 24.536 37.9358 25.2659C36.2199 26.3995 34.8717 25.3631 33.2176 27.3802C31.3278 29.6783 32.829 32.1955 31.2977 33.6763C29.7664 35.1571 27.0646 34.6977 24.8637 36.5611C24.0185 37.3949 23.3807 38.4153 23.0013 39.5403C22.622 40.6652 22.5117 41.8635 22.6794 43.0388C25.1236 40.6737 30.1588 38.3207 37.4251 38.75Z" fill="#2B2E3F"/>
<path d="M86.6244 67.1567C86.8646 67.4835 87.3964 67.1567 87.1351 66.8147C86.6466 66.1361 86.0237 65.5652 85.3052 65.1376C84.5867 64.71 83.7879 64.4348 82.9585 64.3291C82.6158 64.2929 82.4885 64.7938 82.841 64.8398C84.3568 65.0868 85.7153 65.9187 86.6244 67.1567Z" fill="#2B2E3F"/>
<path d="M82.192 65.1398C82.1265 65.1555 82.0696 65.1961 82.0333 65.2529C81.997 65.3097 81.9841 65.3783 81.9974 65.4444C82.0107 65.5105 82.049 65.5689 82.1044 65.6073C82.1598 65.6457 82.2279 65.6612 82.2945 65.6505C83.3038 65.9941 84.2197 66.5672 84.9699 67.3249C85.0156 67.3918 85.0859 67.4379 85.1654 67.4533C85.245 67.4686 85.3273 67.452 85.3947 67.4069C85.462 67.3618 85.5088 67.292 85.5249 67.2126C85.541 67.1332 85.525 67.0506 85.4806 66.9829C84.9134 66.2734 82.8963 64.9048 82.192 65.1398Z" fill="#2B2E3F"/>
<path d="M79.6845 66.4978C79.6296 66.5299 79.5884 66.5809 79.5685 66.6413C79.5486 66.7017 79.5515 66.7672 79.5766 66.8256C79.6017 66.8841 79.6472 66.9313 79.7047 66.9584C79.7621 66.9856 79.8276 66.9908 79.8886 66.9731C81.3551 66.6666 81.7528 66.5543 83.0348 67.4378C83.5455 67.7851 83.7699 67.3663 83.5455 67.1004C82.8706 66.2274 80.6094 65.8312 79.6845 66.4978Z" fill="#2B2E3F"/>
<path d="M77.5658 63.421C81.8395 63.5 83.0492 63.6469 87.0789 65.2641C87.3749 65.3816 87.5896 64.9018 87.2989 64.7534C84.2645 63.2479 80.8738 62.6084 77.4995 62.905C77.1975 62.9442 77.2796 63.4134 77.5658 63.421Z" fill="#2B2E3F"/>
<path d="M80.0425 69.5415C80.5226 69.6121 80.9934 69.7353 81.4465 69.9091C81.5088 69.9152 81.5716 69.9039 81.6279 69.8763C81.6842 69.8488 81.7316 69.8061 81.765 69.7531C81.7984 69.7001 81.8164 69.6388 81.8169 69.5762C81.8175 69.5135 81.8006 69.452 81.7681 69.3984C81.0382 68.5149 79.7005 69.424 78.1941 67.718C77.9131 67.3918 77.5252 66.8141 77.239 66.7478C76.3811 66.5234 77.7203 69.1868 80.0425 69.5415Z" fill="#2B2E3F"/>
<path d="M17.5101 134.101C17.2782 135.532 17.5101 135.843 18.5978 135.893C21.7387 136.044 25.4355 135.98 28.6065 135.893C30.8127 135.847 30.5212 134.939 28.9078 133.973C27.2207 133.08 25.456 132.342 23.6353 131.768C23.5607 131.727 23.473 131.717 23.3909 131.739C23.3089 131.762 23.239 131.816 23.196 131.889C23.153 131.963 23.1404 132.05 23.1608 132.133C23.1813 132.215 23.2331 132.287 23.3054 132.332C23.3928 132.382 28.3888 134.14 29.2558 135.148C25.5944 135.312 21.9232 135.352 18.2588 135.178C17.712 135.153 18.5496 132.293 18.6415 131.931C18.7334 131.569 18.063 130.701 17.5101 134.101Z" fill="#2B2E3F"/>
<path d="M42.2606 135.531C42.8631 135.864 52.5548 135.648 53.1573 135.633C55.4961 135.566 55.1157 134.612 53.1573 133.591C51.4453 132.734 49.6802 131.989 47.8728 131.359C47.3922 131.179 47.1324 131.735 47.6122 131.91C49.6628 132.671 51.6522 133.588 53.5626 134.653C54.0732 134.968 53.5626 134.928 53.0519 134.934C49.5796 134.934 46.0922 135.178 42.6296 134.934C42.1649 134.903 42.8556 132.16 42.9618 131.752C43.0371 131.445 42.5633 131.241 42.4511 131.537C42.1046 132.278 41.3092 135.008 42.2606 135.531Z" fill="#2B2E3F"/>
<path d="M41.7195 130.312C44.0072 130.432 46.2996 130.432 48.5873 130.312C48.6483 111.419 47.7806 88.3679 46.8609 79.9974C38.4889 80.9706 26.671 79.422 21.3035 76.9032C20.5789 91.2007 21.4979 104.912 21.3035 107.573C21.1092 110.233 19.0318 124.265 17.9186 130.04C20.0918 130.628 22.3434 130.873 24.5921 130.766C28.8357 116.835 32.0632 104.549 33.9576 95.0007C34.5752 91.8704 34.9277 89.1181 35.3563 85.9877C35.4022 85.636 35.7803 85.6661 35.7803 85.9877C35.7149 88.07 35.5136 90.1457 35.1778 92.2018C38.2055 104.745 40.391 117.477 41.7195 130.312Z" fill="#2B2E3F"/>
<path d="M109.833 120.937C109.388 120.937 102.01 120.907 100.217 121.111C100.156 121.123 100.102 121.157 100.064 121.206C100.026 121.256 100.007 121.317 100.011 121.379C100.015 121.442 100.041 121.5 100.084 121.545C100.128 121.589 100.186 121.616 100.248 121.621C101.918 121.772 109.67 121.575 110.001 121.575C111.558 121.575 111.906 120.845 111.931 119.951C111.962 118.644 110.507 118.596 109.572 118.578C106.901 118.511 101.852 118.419 100.075 118.685C99.7585 118.731 99.8489 119.196 100.136 119.196C103.073 119.472 106.534 119.124 109.593 119.231C110.103 119.231 111.201 119.2 111.201 119.909C111.201 120.861 110.742 120.929 109.833 120.937Z" fill="#2B2E3F"/>
<path d="M62.1502 96.3855C62.5742 107.001 63.28 119.057 64.3556 130.148C64.3917 130.506 64.9943 130.429 64.974 130.082C64.4068 119.783 63.4826 107.354 62.9312 96.3448C62.8085 93.8321 63.6973 91.5755 67.2359 91.5958C82.6467 91.6772 99.6995 91.8459 113.673 91.7743C118.096 91.7487 119.29 92.8416 119.576 98.2188C120.173 108.768 121.369 119.109 122.13 129.531C122.17 130.087 122.916 130.098 122.865 129.531C121.94 118.777 121.389 107.742 120.26 97.08C119.78 92.5712 118.841 90.881 113.622 90.9036C98.8137 90.9849 82.3356 90.6942 67.0928 90.6731C63.585 90.6663 62.0191 93.1022 62.1502 96.3855Z" fill="#2B2E3F"/>
<path d="M69.5969 125.599C68.7548 116.137 68.0649 105.639 67.2582 96.0479C67.25 95.9423 67.2002 95.8443 67.1197 95.7755C67.0393 95.7066 66.9348 95.6725 66.8292 95.6807C66.7236 95.6889 66.6256 95.7387 66.5568 95.8191C66.4879 95.8996 66.4538 96.0041 66.462 96.1097C66.508 97.6666 67.9579 117.903 68.797 125.485C68.9039 126.424 68.986 126.506 69.905 126.506C85.5357 126.699 101.605 126.326 117.138 126.326C117.854 126.326 118.068 126.164 118.038 125.464C117.803 120.592 115.668 96.1074 115.668 96.0886C115.694 95.843 115.593 95.5779 115.28 95.5779C99.4506 95.7361 83.9728 95.4754 68.1537 95.6344C67.7606 95.6344 67.7771 96.3281 68.1537 96.3334C83.3687 96.5593 99.8129 96.5074 114.897 96.4915C115.536 105.785 116.454 115.677 117.232 125.429C101.576 125.533 86.1496 125.636 69.5969 125.599Z" fill="#2B2E3F"/>
<path d="M64.6612 130.971C63.9517 130.977 64.1506 132.402 64.9218 133.651C65.9764 135.418 67.4195 135.342 69.2905 135.449C77.9721 135.934 134.305 135.321 134.606 135.321C139.973 135.275 139.988 130.623 138.839 130.628C138.836 130.628 69.646 130.923 64.6612 130.971ZM138.489 131.481C138.76 133.794 136.385 134.484 134.502 134.494C117.277 134.618 100.054 134.592 82.8311 134.663C81.9837 134.286 81.4271 133.428 81.3811 131.763C81.5498 131.762 138.489 131.653 138.489 131.481ZM67.2862 134.397C66.7357 134.171 66.2475 133.816 65.8626 133.362C65.4778 132.908 65.2076 132.368 65.0748 131.788C68.7105 131.869 76.8204 131.788 80.6904 131.788C80.5678 132.315 80.5961 132.867 80.7722 133.379C80.9483 133.891 81.2651 134.343 81.6862 134.683C81.6862 134.587 69.3613 134.972 67.2862 134.397Z" fill="#2B2E3F"/>
<path d="M30.3937 55.0751C33.3094 55.4254 43.8589 55.6468 46.8718 55.4683C47.3825 55.4683 47.2446 54.7023 46.8259 54.6865C41.8365 54.5027 35.316 54.4364 30.3523 54.4469C29.9779 54.4469 30.0532 55.0337 30.3937 55.0751Z" fill="#FF6B6B"/>
<path d="M47.3619 56.7291C45.1776 56.6832 32.5891 56.2184 30.7248 56.4587C30.4138 56.4941 30.3113 56.9694 30.6638 57.0455C32.5529 57.3573 45.1813 57.5561 47.392 57.5968C47.9486 57.6126 47.9185 56.7404 47.3619 56.7291Z" fill="#FF6B6B"/>
<path d="M46.7429 58.6756C44.6603 58.65 31.5415 58.3638 29.7594 58.5528C29.3768 58.5935 29.4988 59.1403 29.8257 59.181C31.4903 59.407 44.716 59.4823 46.7226 59.5132C46.7776 59.5145 46.8323 59.505 46.8836 59.4852C46.9349 59.4654 46.9818 59.4357 47.0217 59.3977C47.0615 59.3598 47.0935 59.3144 47.1158 59.2641C47.138 59.2138 47.1502 59.1596 47.1515 59.1046C47.1529 59.0496 47.1433 58.9949 47.1235 58.9435C47.1037 58.8922 47.074 58.8453 47.036 58.8055C46.9981 58.7656 46.9527 58.7337 46.9024 58.7114C46.8521 58.6891 46.7979 58.677 46.7429 58.6756Z" fill="#FF6B6B"/>
<path d="M46.8565 60.447C44.3807 60.8304 33.8959 60.5336 30.3829 60.7069C30.0462 60.7069 30.1072 61.2635 30.3829 61.335C31.4706 61.5904 43.2049 61.555 45.1663 61.5648C48.3471 61.5753 47.505 60.3461 46.8565 60.447Z" fill="#FF6B6B"/>
<path d="M30.9905 51.1631C32.2123 51.49 42.7806 51.6075 46.0082 51.5103C46.4066 51.5103 46.3659 50.7654 46.0082 50.7496C41.1469 50.5914 35.9437 50.5454 31.0719 50.5605C30.9974 50.5601 30.9253 50.5868 30.8691 50.6357C30.8129 50.6846 30.7764 50.7522 30.7664 50.826C30.7565 50.8999 30.7737 50.9748 30.815 51.0368C30.8562 51.0988 30.9186 51.1437 30.9905 51.1631Z" fill="#FF6B6B"/>
<path d="M31.8376 52.7365C31.4753 52.7825 31.5619 53.2879 31.879 53.3338C33.5361 53.5839 45.574 53.7624 47.4586 53.6193C47.8412 53.5892 47.9384 52.8329 47.5045 52.8284C43.8785 52.8005 33.4314 52.5332 31.8376 52.7365Z" fill="#FF6B6B"/>
<path d="M87.7682 72.0587C85.8127 71.9691 83.8534 72.0993 81.927 72.4466C81.6257 72.5129 81.6513 73.0183 81.9774 72.998C83.8928 72.8022 85.8173 72.7102 87.7426 72.7223C87.829 72.7232 87.9125 72.6904 87.9751 72.6308C88.0378 72.5711 88.0747 72.4894 88.078 72.403C88.0814 72.3166 88.0508 72.2322 87.993 72.1679C87.9351 72.1037 87.8545 72.0645 87.7682 72.0587Z" fill="#FF6B6B"/>
<path d="M87.7885 74.5299C86.0064 74.719 84.2145 74.8771 82.4407 75.1121C82.1801 75.143 82.226 75.6228 82.4859 75.6228C84.2785 75.5106 86.0606 75.3268 87.848 75.1709C87.9213 75.1498 87.9849 75.1037 88.0279 75.0407C88.0709 74.9777 88.0906 74.9017 88.0835 74.8258C88.0765 74.7498 88.0431 74.6787 87.9893 74.6247C87.9354 74.5707 87.8644 74.5372 87.7885 74.5299Z" fill="#FF6B6B"/>
<path d="M79.0417 70.547C79.0426 70.4812 79.0181 70.4175 78.9733 70.3693C78.9285 70.3211 78.8668 70.292 78.8011 70.288C78.7354 70.284 78.6707 70.3055 78.6204 70.348C78.5701 70.3905 78.5381 70.4507 78.5311 70.5161C77.9744 73.7949 79.1946 81.8226 80.1241 85.182C80.1415 85.2379 80.1734 85.2883 80.2165 85.3279C80.2596 85.3676 80.3125 85.3952 80.3697 85.4079C81.4927 85.5465 90.291 84.4943 92.1598 84.3866C92.3029 84.3866 92.5687 84.2894 92.5326 84.019C91.8027 78.4844 90.9139 74.0359 90.8936 68.2301C90.8936 68.0516 90.8936 67.8218 90.6383 67.8015C87.3404 67.6662 84.0375 67.7125 80.7448 67.9401C80.677 67.9401 80.6121 67.967 80.5642 68.0149C80.5163 68.0628 80.4894 68.1277 80.4894 68.1954C80.4894 68.2632 80.5163 68.3281 80.5642 68.376C80.6121 68.4239 80.677 68.4508 80.7448 68.4508C83.8081 68.4862 86.9211 68.3385 90.2933 68.3996C90.0071 71.1209 91.0134 80.5685 91.8253 83.7192C89.8594 83.9685 82.0516 84.5304 80.6988 84.8008C79.3483 79.2737 79.2157 75.0866 79.0417 70.547Z" fill="#FF6B6B"/>
<path d="M83.2177 80.6168C85.1012 80.575 86.9789 80.3924 88.8352 80.0707C89.2118 80.0044 89.1109 79.3559 88.7275 79.4019C86.8535 79.6158 84.9795 79.8304 83.1108 80.0707C82.7997 80.1167 82.9164 80.6198 83.2177 80.6168Z" fill="#FF6B6B"/>
<path d="M88.2271 77.1956C86.4299 77.3372 84.6275 77.4562 82.8348 77.6475C82.7699 77.6638 82.7127 77.7023 82.6732 77.7564C82.6337 77.8105 82.6145 77.8767 82.6188 77.9435C82.6231 78.0103 82.6506 78.0735 82.6967 78.1221C82.7428 78.1707 82.8045 78.2016 82.871 78.2094C84.6734 78.1341 86.4706 77.9834 88.2685 77.8524C88.6414 77.8238 88.6052 77.1655 88.2271 77.1956Z" fill="#FF6B6B"/>
<path d="M94.2739 100.951C93.156 100.771 92.0165 100.771 90.8987 100.951C90.8166 101.134 91.093 106.128 91.093 106.808C90.1734 106.808 88.4831 106.657 88.4477 106.904C88.4123 107.151 92.5784 111.061 92.8036 111.03C94.2657 109.759 95.6437 108.394 96.9289 106.945C96.0928 106.82 95.2458 106.783 94.4019 106.833C94.417 106.445 94.4192 101.127 94.2739 100.951Z" fill="#FF6B6B"/>
<path d="M99.4767 110.234C98.792 110.091 99.1347 112.128 99.2062 112.649C96.3666 112.711 89.2382 112.685 86.9514 112.95C86.8942 112.399 86.8332 110.872 86.5748 110.55C86.544 110.517 86.5069 110.49 86.4656 110.471C86.4243 110.452 86.3796 110.441 86.3341 110.439C86.2886 110.437 86.2432 110.444 86.2005 110.46C86.1578 110.476 86.1186 110.5 86.0852 110.531C85.7839 110.8 85.9203 112.245 85.9526 112.711C86.0031 113.415 85.9527 113.63 86.6057 113.696C88.9346 113.936 96.6039 113.645 99.5557 113.621C100.015 113.621 100.123 113.111 100.133 112.784C100.142 112.457 100.31 110.407 99.4767 110.234Z" fill="#FF6B6B"/>
<path d="M76.0899 118.578C72.7758 118.672 72.9807 121.605 76.0899 121.677C80.2522 121.774 97.7976 121.743 99.0691 121.708C99.0691 120.738 99.0382 119.803 99.0133 118.644C95.5146 118.632 77.9496 118.525 76.0899 118.578Z" fill="#FF6B6B"/>
<path d="M118.973 26.4381C118.186 26.4042 117.4 26.3462 116.614 26.3259C117.027 20.5352 113.58 14.3663 107.616 13.4218C105.533 13.0949 97.2808 12.7883 94.5338 12.7883C88.4772 12.8343 81.4866 16.8738 81.7163 23.6648C81.7163 24.0331 82.227 23.9969 82.2729 23.6648C82.871 15.75 91.2709 12.2776 98.2713 14.0598C104.164 15.5918 108.642 21.1581 107.249 27.3367C107.034 28.2865 109.996 26.5082 113.555 28.3581C119.386 31.3807 119.279 39.9696 113.336 43.1098C111.03 44.2894 108.457 44.849 105.87 44.7337C97.051 44.785 86.0722 44.6524 76.3195 44.6366C64.1927 44.6366 64.5091 28.5539 73.6433 25.0642C74.8971 24.5917 76.2374 24.3928 77.5743 24.4809C78.9112 24.569 80.2138 24.942 81.3947 25.5749C81.459 25.6137 81.5359 25.6257 81.6089 25.6084C81.682 25.5911 81.7453 25.5459 81.7854 25.4825C81.8255 25.419 81.8392 25.3424 81.8234 25.269C81.8077 25.1956 81.7638 25.1313 81.7013 25.0899C80.6497 24.3671 79.4524 23.884 78.1938 23.6744C76.9351 23.4649 75.6459 23.5341 74.4169 23.8772C69.0804 25.2458 65.9146 30.7043 66.1089 35.8669C66.3025 41.229 70.061 45.3039 75.4789 45.4259C87.3797 45.7016 99.9434 45.3649 111.944 45.3905C119.44 45.3905 127.446 45.7935 127.263 35.9791C127.179 31.218 124.048 26.6535 118.973 26.4381ZM108.193 26.8411C109.123 20.9893 105.226 15.6483 99.8327 13.708C102.996 13.83 106.471 13.9987 107.451 14.1599C113.176 15.0894 116.03 21.3961 115.759 26.3131C113.703 26.2875 110.185 26.2875 108.193 26.8418V26.8411ZM111.977 44.6268C120.964 41.6192 120.709 29.8442 112.697 27.0866C114.831 27.122 116.976 27.0407 119.105 27.183C123.7 27.5001 126.285 31.7777 126.387 36.007C126.601 45.1736 118.706 44.4897 111.977 44.6275V44.6268Z" fill="#FF6B6B"/>
</svg>
