<svg width="151" height="151" viewBox="0 0 151 151" fill="none" xmlns="http://www.w3.org/2000/svg">
<path d="M93.1893 75.3126C88.7265 75.3126 86.6461 78.7277 86.5196 82.5314C86.3931 86.3352 89.6078 88.5903 93.1893 88.7041C96.7709 88.8178 99.6888 85.1225 99.7325 82.3657C99.7762 79.609 98.4626 75.3126 93.1893 75.3126ZM93.2722 86.2177C93.2722 86.2177 89.6643 82.6889 89.6643 82.5405C89.6643 82.3921 91.5473 82.3439 91.6189 82.2618C91.6904 82.1797 91.6588 78.6147 91.7545 78.379C91.8501 78.1432 94.3719 78.153 94.5112 78.2283C94.6506 78.3036 94.7161 82.1541 94.8163 82.2362C94.9165 82.3183 96.8801 82.2362 96.9057 82.3582C96.9351 82.493 92.9114 86.5709 93.2722 86.2177Z" fill="#00C896"/>
<path d="M84.2382 76.2551C78.8422 76.1948 73.4461 76.1896 68.0546 76.1677C67.6532 76.1677 67.6396 76.8697 68.0546 76.8742C73.4499 76.9262 78.8422 76.9917 84.2382 77.0008C84.6743 77.0008 84.6743 76.2596 84.2382 76.2551ZM73.9824 78.5449C73.9006 78.5544 73.8252 78.5937 73.7704 78.6552C73.7156 78.7167 73.6854 78.7962 73.6854 78.8785C73.6854 78.9609 73.7156 79.0404 73.7704 79.1019C73.8252 79.1634 73.9006 79.2027 73.9824 79.2122C77.5768 79.3388 82.0418 79.7666 85.5548 79.622C85.9827 79.6137 86.0919 78.9441 85.6513 78.8816C85.6513 78.755 77.4118 78.5065 73.9824 78.5449Z" fill="#2B2E3F"/>
<path d="M107.258 58.0647C106.929 54.911 105.84 54.2783 103.279 54.2233C102.913 54.2233 99.2927 54.1842 94.1196 54.1405C94.1587 55.1046 94.1949 56.0815 94.2107 56.9937H104.17C104.392 60.7974 106.538 89.1673 106.538 90.2715C103.615 90.4372 51.4145 91.0564 50.4232 90.9999C50.6492 81.4687 51.0032 58.6816 51.1124 56.6396H63.0728V53.8859C59.5132 53.8585 55.9538 53.8237 52.3944 53.7812C49.9088 53.733 48.6999 56.0717 48.6344 57.9427C48.5214 61.0264 47.8495 84.9877 47.9015 93.5631C50.2176 93.6723 99.0908 93.5066 109.616 93.2889C109.643 92.0762 107.625 61.5943 107.258 58.0647Z" fill="#2B2E3F"/>
<path d="M127.806 103.827C123.247 100.975 115.714 95.9802 110.99 93.9864C110.532 93.7943 110.149 94.4225 110.602 94.6756C116.504 98.0651 121.976 100.866 127.614 104.91C132.325 108.29 126.367 110.877 122.837 110.935C93.407 111.429 62.7067 111.188 32.7957 110.425C29.4816 110.338 28.87 107.516 32.0109 105.112C34.916 102.874 38.1827 101.09 41.2754 99.1406C43.1118 97.9799 44.9617 96.8456 46.7852 95.6759C47.2469 95.3791 46.8605 94.6289 46.3747 94.9166C42.6408 97.1321 38.9317 99.3917 35.2474 101.696C33.5487 102.699 31.9298 103.833 30.405 105.085C25.3193 109.448 32.0674 115.991 38.8245 116.113C46.3446 116.239 121.542 116.374 123.863 115.934C128.499 115.055 134.531 108.034 127.806 103.827ZM115.529 101.433C115.769 101.72 115.755 102.248 115.289 102.239C92.4188 101.895 69.4871 102.331 46.63 101.9C46.1194 101.9 46.0584 101.101 46.5818 101.097C68.9637 100.853 91.4374 101.437 113.844 101.323C112.143 100.014 109.15 97.7412 107.706 96.4502C89.1544 96.817 67.2659 96.6008 50.3863 96.5805C50.0768 97.0173 44.6943 101.279 43.9659 101.763C43.9275 101.796 43.883 101.821 43.835 101.837C43.7869 101.853 43.7362 101.859 43.6858 101.855C43.6354 101.851 43.5862 101.838 43.5411 101.815C43.496 101.792 43.4558 101.76 43.4229 101.722C43.3899 101.684 43.3649 101.639 43.3491 101.591C43.3334 101.543 43.3272 101.492 43.3311 101.442C43.3349 101.391 43.3487 101.342 43.3715 101.297C43.3944 101.252 43.4259 101.212 43.4643 101.179C44.0269 100.615 49.6934 95.7482 50.0075 95.7482C71.4116 95.8235 88.6422 95.6126 107.534 95.5689C107.754 95.559 107.971 95.6203 108.153 95.7436C108.874 96.228 115.316 101.213 115.495 101.415L115.529 101.433ZM92.2049 108.478C92.2153 108.545 92.2113 108.615 92.1931 108.681C92.175 108.747 92.143 108.809 92.0994 108.862C92.0557 108.915 92.0014 108.959 91.9399 108.989C91.8784 109.02 91.8111 109.037 91.7424 109.04C83.3328 109.04 74.2942 109.341 65.932 109.014C65.5787 109.014 65.5877 108.577 65.6834 108.32C66.0321 107.299 67.2757 104.438 68.1216 103.91C68.3746 103.749 68.8371 103.91 68.7588 104.263C68.6804 104.617 67.0445 107.116 66.6867 108.072C74.7001 107.801 83.1362 108.163 91.1888 108.159C90.8356 106.853 90.3134 105.599 89.6357 104.429C83.3147 104.504 76.724 104.674 70.4422 104.486C69.9587 104.486 69.8758 103.74 70.3812 103.714C76.7542 103.369 83.4676 103.639 89.8797 103.564C89.9827 103.547 90.0883 103.562 90.1831 103.605C90.2779 103.649 90.3577 103.719 90.4122 103.808C91.0555 104.927 92.1243 107.291 92.2072 108.478H92.2049Z" fill="#2B2E3F"/>
<path d="M68.4555 40.8649C67.4214 41.1135 64.9004 41.524 64.8175 44.3546C64.4989 55.1768 64.63 68.6835 64.4899 79.4477C64.468 81.1273 65.9428 82.1043 67.456 82.5359C69.0965 83.0028 80.2155 82.8545 85.1054 82.972C85.7946 82.972 85.6326 81.9386 84.9442 81.9122C80.2155 81.7555 69.5033 81.7502 68.564 81.5763C65.5112 81.0136 65.4894 79.6089 65.5112 77.3582C65.5414 74.8237 66.3834 74.017 69.1139 73.9514C76.6731 73.7857 84.8169 74.2919 92.4251 74.4621C92.5005 74.4637 92.5753 74.4485 92.6441 74.4178C92.7129 74.387 92.7741 74.3415 92.8233 74.2843C92.8724 74.2272 92.9084 74.1599 92.9285 74.0872C92.9486 74.0146 92.9524 73.9384 92.9396 73.8641C92.5991 69.6242 93.4759 42.7449 92.1675 41.3839C92.328 40.4205 69.5281 40.6066 68.4555 40.8649ZM75.3851 57.5366C76.0133 57.502 83.1064 57.5765 83.8912 57.7204C83.9915 57.756 84.0777 57.8227 84.1373 57.9108C84.1968 57.9989 84.2266 58.1038 84.2222 58.2101C84.2178 58.3164 84.1795 58.4185 84.1129 58.5014C84.0463 58.5843 83.9549 58.6438 83.852 58.6709C83.0845 58.7711 75.9523 58.4751 75.346 58.4096C75.2302 58.4044 75.1212 58.3534 75.0431 58.2679C74.9649 58.1824 74.9239 58.0693 74.9291 57.9535C74.9343 57.8377 74.9852 57.7288 75.0708 57.6506C75.1563 57.5724 75.2694 57.5314 75.3851 57.5366ZM72.1847 53.8775C74.2832 53.7637 84.307 53.3623 86.0823 53.8074C86.1789 53.8391 86.2627 53.9012 86.3212 53.9844C86.3797 54.0677 86.4096 54.1676 86.4067 54.2692C86.4037 54.3709 86.368 54.4688 86.3047 54.5485C86.2415 54.6282 86.1543 54.6853 86.0559 54.7113C84.3507 55.1482 74.2048 54.8514 72.1584 54.7595C72.0985 54.7594 72.0393 54.7474 71.9842 54.724C71.9291 54.7007 71.8793 54.6666 71.8376 54.6236C71.796 54.5807 71.7634 54.5298 71.7417 54.474C71.72 54.4183 71.7098 54.3587 71.7116 54.2989C71.7133 54.2391 71.7271 54.1803 71.752 54.1259C71.7769 54.0715 71.8124 54.0226 71.8565 53.9822C71.9007 53.9418 71.9524 53.9106 72.0088 53.8906C72.0652 53.8705 72.125 53.862 72.1847 53.8654V53.8775Z" fill="#00C896"/>
<path d="M138.824 51.456C133.156 49.5828 124.061 48.5245 118.794 49.1617C116.578 41.3057 109.258 36.3571 104.57 34.5441C104.133 34.3746 104.05 34.2917 103.788 34.7971C101.507 39.2554 97.8343 44.4767 94.9759 48.5946C94.7009 48.987 95.3201 49.3975 95.5988 49.0307C98.2908 45.2646 102.479 39.4339 104.45 35.3342C113.898 39.5258 116.467 45.2443 118.083 49.4886C115.57 53.0611 113.032 56.66 110.641 60.3199C110.427 60.6468 110.977 61.0309 111.212 60.7123C113.787 57.1925 116.251 53.5808 118.724 49.9865C125.051 49.2928 134.676 50.8324 138.672 52.2198C137.398 54.3288 125.804 73.5674 125.773 73.938C121.913 72.2501 116.208 70.6186 111.994 70.5885C111.945 70.5864 111.895 70.5942 111.849 70.6112C111.802 70.6283 111.76 70.6543 111.723 70.6879C111.687 70.7214 111.657 70.7618 111.637 70.8067C111.616 70.8516 111.604 70.9002 111.602 70.9496C111.6 70.9991 111.608 71.0485 111.625 71.0949C111.642 71.1414 111.668 71.1841 111.701 71.2205C111.735 71.2569 111.775 71.2863 111.82 71.3071C111.865 71.3279 111.914 71.3397 111.963 71.3417C117.241 72.0949 120.103 72.4798 124.979 74.5737C125.795 74.927 125.852 75.0927 126.441 74.1813C130.953 66.9919 135.333 59.7206 139.58 52.3712C139.721 52.0887 139.68 51.7385 138.824 51.456Z" fill="#2B2E3F"/>
<path d="M138.99 57.8244C135.213 64.7638 128.36 75.8097 125.847 80.5075C123.723 78.9943 113.043 74.8365 110.144 74.069C110.038 74.0456 109.928 74.0623 109.834 74.1159C109.74 74.1695 109.669 74.2561 109.635 74.3589C109.602 74.4618 109.607 74.5735 109.651 74.6723C109.696 74.7712 109.775 74.8501 109.874 74.8938C114.638 76.4351 119.27 78.3606 123.723 80.6514C126.179 81.9032 125.948 82.2218 127.313 80.0013C130.092 75.482 136.574 63.9533 139.871 58.3223C140.16 57.8244 139.27 57.3137 138.99 57.8244Z" fill="#00C896"/>
<path d="M130.885 93.2363C130.502 92.4688 130.82 92.0628 130.493 91.7487C130.166 91.4346 129.446 92.0063 130.026 93.4058C130.241 93.921 131.121 95.151 131.54 94.5484C131.785 94.1876 131.104 93.6724 130.885 93.2363ZM145.211 77.9211C144.806 77.131 144.949 75.9929 144.775 75.7368C144.549 75.3602 143.74 75.5056 144.037 77.0979C144.417 79.1075 145.541 78.5674 145.211 77.9211Z" fill="#2B2E3F"/>
<path d="M40.377 92.8266C36.7895 95.4471 29.2754 100.439 25.0009 101.773C21.9474 102.737 20.8002 99.7103 23.1081 97.3113C27.1641 93.097 37.1013 89.2014 38.7456 87.1775C39.8099 85.8669 25.367 74.2177 22.0867 72.4333C21.686 72.2156 11.7616 77.8903 10.5489 78.5404C6.23526 80.8919 0.91379 85.0135 5.5777 90.1956C9.39952 94.4536 15.9201 99.7924 21.0186 102.349C21.7039 102.698 22.4546 102.899 23.2224 102.94C23.9903 102.981 24.7582 102.862 25.4769 102.588C30.9388 100.173 36.1161 97.1593 40.9141 93.6032C41.4022 93.2484 40.8659 92.4688 40.377 92.8266ZM19.3435 95.5081C14.8495 92.1417 10.5406 88.535 6.43562 84.7039C6.05223 84.3341 6.60584 83.7707 7.00731 84.1112C11.2908 87.7492 15.5571 91.391 20.0583 94.7586C20.5908 95.1556 19.8737 95.9095 19.3435 95.5081Z" fill="#00C896"/>
<path d="M39.3264 92.333C38.0783 91.7703 37.9872 90.8936 38.0738 89.7163C38.1175 89.1183 36.8483 88.765 37.0276 90.5885C37.2235 92.5424 39.178 93.5261 39.4786 92.8263C39.5161 92.7394 39.5213 92.642 39.4934 92.5516C39.4656 92.4612 39.4063 92.3837 39.3264 92.333Z" fill="#2B2E3F"/>
<path d="M14.0519 63.6392C13.8471 63.2031 13.1006 63.408 13.2407 63.8968C13.7552 65.685 16.0058 72.2937 17.0136 73.8468C17.3103 74.2829 17.9928 73.895 17.9174 73.4107C17.6425 71.6964 14.8292 65.1924 14.0527 63.6189L14.0519 63.6392ZM46.9509 79.7791C46.7536 79.3935 46.4139 79.5042 46.1224 79.6654C45.4062 79.9953 44.6009 80.0782 43.8326 79.9012C43.6669 79.8665 37.5598 82.1955 36.958 82.4621C36.5219 82.6534 36.7531 83.4518 37.2284 83.2861C39.5227 82.5013 41.8042 81.6682 44.094 80.8562C45.2057 81.1839 47.3946 80.6476 46.9509 79.7791Z" fill="#00C896"/>
<path d="M56.3334 51.792C56.0893 50.9483 52.1018 43.9886 51.3953 42.7624C50.9592 42.0039 51.0285 42.0167 50.3219 42.3745C46.8978 44.1189 34.9149 51.8213 33.7436 54.2956C28.6798 53.6675 19.9862 54.4222 14.7822 57.2181C14.4809 57.3846 14.4056 57.6286 14.5562 58.0911C16.153 62.8891 17.7062 68.0102 19.538 72.6688C19.5924 72.7529 19.6739 72.8158 19.7691 72.8469C19.8643 72.878 19.9672 72.8754 20.0608 72.8397C20.1543 72.804 20.2327 72.7372 20.2829 72.6506C20.333 72.5639 20.3519 72.4627 20.3364 72.3638C18.9317 67.5651 16.9951 62.5968 15.32 57.8599C21.0566 55.1932 27.4595 54.3029 33.706 55.3034C36.9124 62.3837 39.6511 69.1709 43.2854 76.5509C40.5241 77.5504 37.7493 78.5138 35 79.5743C34.5639 79.74 34.8343 80.3682 35.2621 80.2281C36.0206 79.9841 44.1825 77.2281 44.1953 77.2153C44.9218 76.4181 45.7982 75.7716 46.7743 75.3126C46.8391 75.2485 46.8823 75.1657 46.8977 75.0758C46.9131 74.9859 46.9 74.8935 46.8602 74.8114C46.8204 74.7294 46.7559 74.6618 46.6758 74.6183C46.5957 74.5747 46.504 74.5573 46.4135 74.5685C45.5576 74.9601 44.7802 75.5043 44.1192 76.1743C41.8467 71.057 37.1896 60.8456 34.4487 54.7694C38.4964 50.4595 44.3331 46.7341 50.7452 43.2226C51.8705 45.3211 54.366 49.4871 55.7052 52.204C55.8837 52.5685 56.4313 52.1317 56.3334 51.792Z" fill="#2B2E3F"/>
<path d="M146.254 78.5311C144.371 80.918 138.358 88.3026 131.291 96.3025L119.135 92.4505C117.093 91.8058 112.717 89.699 115.318 87.0161C120.299 88.3899 124.53 89.2494 129.464 91.1769C129.593 91.2124 129.729 91.2139 129.859 91.1812C129.989 91.1484 130.109 91.0826 130.206 90.9901C134.03 86.6282 142.293 78.336 145.036 73.9207C145.193 73.6683 145.25 73.3753 144.779 73.1057C143.574 72.4075 137.22 70.3617 135.095 69.912C132.879 73.9952 128.255 82.5661 126.746 82.8892C125.416 83.1769 121.511 81.2886 119.174 80.1151C117.451 82.2241 115.876 84.4295 114.284 86.6146C111.531 90.4056 116.351 92.6818 119.248 93.5939C123.104 94.8111 127.006 95.8754 130.812 97.2493C131.716 97.5717 131.61 97.3321 132.394 96.5164C135.883 92.8693 146.317 80.5911 146.855 79.0373C146.986 78.7149 146.492 78.2298 146.254 78.5311Z" fill="#00C896"/>
</svg>
