<svg width="151" height="151" viewBox="0 0 151 151" fill="none" xmlns="http://www.w3.org/2000/svg">
<path d="M40.8998 142.077H114.814C115.642 142.074 116.434 141.744 117.019 141.159C117.604 140.574 117.934 139.781 117.937 138.954V130.101C117.934 129.274 117.604 128.481 117.019 127.896C116.434 127.311 115.642 126.981 114.814 126.978H40.8998C40.0725 126.981 39.2799 127.311 38.6949 127.896C38.1099 128.481 37.78 129.274 37.777 130.101V138.954C37.7756 139.365 37.8554 139.771 38.0119 140.151C38.1683 140.53 38.3983 140.875 38.6885 141.165C38.9788 141.456 39.3236 141.686 39.7031 141.842C40.0826 141.999 40.4893 142.078 40.8998 142.077Z" fill="#00C896"/>
<path d="M79.2957 44.9671C78.9214 44.8919 78.5348 44.9037 78.1658 45.0017C78.0987 45.0217 78.0389 45.0611 77.9942 45.115C77.9494 45.169 77.9216 45.2349 77.9142 45.3046C77.9069 45.3743 77.9204 45.4446 77.953 45.5066C77.9855 45.5687 78.0358 45.6197 78.0973 45.6532C78.8301 45.8814 79.6073 45.9285 80.3622 45.7903C80.7049 45.7564 80.8767 45.2073 80.4647 45.1041C80.0771 45.0423 79.6871 44.9966 79.2957 44.9671Z" fill="#2B2E3F"/>
<path d="M77.1003 43.8373C77.4118 43.3259 77.8687 42.9189 78.4125 42.6683C78.9564 42.4177 79.5626 42.3348 80.1538 42.4303C80.4287 42.4657 80.5636 41.9904 80.2917 41.8812C79.9318 41.7381 79.5468 41.6691 79.1597 41.6784C78.7725 41.6877 78.3913 41.7751 78.0387 41.9353C77.6862 42.0955 77.3696 42.3253 77.1081 42.6109C76.8465 42.8964 76.6453 43.2318 76.5165 43.5971C76.4194 43.9375 76.9233 44.1047 77.1003 43.8373Z" fill="#2B2E3F"/>
<path d="M80.2572 51.3484C78.6393 51.3484 78.103 50.1854 77.3408 49.8043C77.2833 49.771 77.2166 49.7576 77.1508 49.7662C77.085 49.7748 77.0238 49.8048 76.9769 49.8517C76.9299 49.8986 76.8997 49.9597 76.891 50.0254C76.8823 50.0912 76.8956 50.158 76.9287 50.2155C77.3042 50.7548 77.809 51.1912 78.3968 51.4849C78.9846 51.7786 79.6367 51.9202 80.2934 51.8967C80.3619 51.8865 80.424 51.851 80.4675 51.7971C80.511 51.7432 80.5326 51.675 80.528 51.6059C80.5235 51.5368 80.4931 51.4719 80.4429 51.4242C80.3927 51.3765 80.3264 51.3494 80.2572 51.3484Z" fill="#2B2E3F"/>
<path d="M46.9367 84.325C47.1024 84.6368 47.5581 84.3574 47.4173 84.0501C46.3771 81.7746 43.4011 81.6127 41.5836 83.1236C38.6995 85.5234 38.915 89.9839 40.1427 93.1783C40.9159 95.0493 41.9437 96.8045 43.197 98.3943C44.1528 99.6673 45.1554 101.301 46.6964 101.963C47.2018 102.201 47.7698 102.273 48.3186 102.168C48.8674 102.063 49.3688 101.787 49.7507 101.379C50.9393 100.166 50.8806 98.4282 50.7457 96.8495C50.7416 96.7613 50.7036 96.678 50.6398 96.6171C50.5759 96.5561 50.4909 96.5221 50.4026 96.5221C50.3143 96.5221 50.2294 96.5561 50.1655 96.6171C50.1016 96.678 50.0637 96.7613 50.0596 96.8495C50.0596 98.0855 50.0889 99.8292 49.0646 100.691C47.4075 102.087 45.9764 100.347 45.0838 99.2492C43.4936 97.4046 42.1657 95.3493 41.1377 93.1414C40.1382 90.8102 39.7013 88.0851 40.6918 85.6951C41.6921 83.2833 45.2623 81.166 46.9367 84.325Z" fill="#2B2E3F"/>
<path d="M37.6043 86.4179C37.947 86.3787 37.9809 85.8342 37.6043 85.8342C32.2512 86.143 34.5229 94.4788 35.7514 97.3983C36.717 99.6956 38.2573 102.509 40.4522 103.884C41.9285 104.809 44.1919 104.897 45.0506 103.095C45.2155 102.748 44.7734 102.303 44.4668 102.649C41.3862 106.125 37.7082 99.6625 36.6085 97.2258C35.4772 94.7214 32.9645 86.9421 37.6043 86.4179Z" fill="#2B2E3F"/>
<path d="M24.9756 95.2367C24.1445 96.7815 23.7589 98.5268 23.862 100.278C23.9651 102.029 24.5527 103.717 25.5593 105.154C27.1953 107.427 30.6865 109.891 33.5886 108.688C33.6892 108.657 33.7739 108.589 33.8251 108.497C33.8764 108.405 33.8902 108.297 33.8637 108.195C33.8372 108.093 33.7724 108.006 33.6828 107.951C33.5933 107.895 33.4858 107.877 33.383 107.899C26.7841 109.071 23.1995 100.948 25.4908 95.5463C25.6347 95.2066 25.1481 94.894 24.9756 95.2367Z" fill="#2B2E3F"/>
<path d="M23.6026 93.6588C24.2388 93.8282 24.906 93.845 25.55 93.7078C26.1939 93.5706 26.7964 93.2834 27.3084 92.8694C27.0467 94.8105 27.3819 96.7853 28.2695 98.5313C29.6892 101.089 31.5883 103.349 33.8629 105.188C35.3776 106.452 37.4241 107.412 38.9757 105.703C39.053 105.625 39.0965 105.521 39.0965 105.411C39.0965 105.302 39.053 105.197 38.9757 105.12C38.8984 105.042 38.7936 104.999 38.6842 104.999C38.5749 104.999 38.47 105.042 38.3927 105.12C35.4552 107.538 30.5691 100.727 29.2991 98.5999C27.7181 95.9599 26.623 90.3695 31.1829 89.9183C31.5264 89.8844 31.5264 89.3617 31.1829 89.3692C30.5258 89.3482 29.8752 89.5062 29.301 89.8265C28.7267 90.1468 28.2504 90.6173 27.923 91.1875C27.6151 88.797 27.7195 86.3713 28.2318 84.0161C29.2802 83.2016 30.3807 82.4566 31.5264 81.7858C36.5323 78.7594 41.8553 78.4227 47.3801 80.2041H47.4524C47.5624 80.881 47.795 81.5321 48.1386 82.1255C48.1711 82.1782 48.2165 82.2216 48.2706 82.2517C48.3247 82.2818 48.3855 82.2975 48.4474 82.2973C51.5915 82.4501 54.6014 83.6179 57.0258 85.6257C57.0256 85.668 57.035 85.7098 57.0533 85.748C57.0715 85.7861 57.0982 85.8197 57.1312 85.8461C57.1642 85.8725 57.2028 85.8912 57.244 85.9006C57.2852 85.91 57.328 85.9101 57.3693 85.9007C59.8571 87.8686 61.7953 90.445 62.9965 93.3808C63.6717 94.9102 63.9095 96.597 63.6835 98.2534C63.3069 100.004 62.1062 99.143 61.1097 98.4937C59.363 97.3563 57.8076 95.9327 56.0308 94.8564C55.5826 94.5852 55.1676 95.2759 55.6195 95.5772C58.8908 97.757 61.0239 100.082 62.7909 100.278C65.672 100.597 64.5037 95.166 64.0262 93.7582C62.8247 90.3981 60.621 87.4878 57.7127 85.4201C57.6419 81.9056 56.9866 80.0926 57.9869 75.0912C60.3889 75.3654 62.8828 75.0792 64.4721 73.9931C68.0228 71.5639 70.6831 68.5699 71.5071 62.7378C72.4525 63.6545 73.6454 64.2747 74.9388 64.5221C74.7324 73.7867 74.6676 83.0565 74.0809 92.2827C74.05 92.7632 74.7701 92.7293 74.8009 92.2827C75.4464 83.0934 75.7967 73.7874 75.5218 64.5907C76.8426 64.827 78.204 64.6547 79.4243 64.0967C80.6445 63.5387 81.6653 62.6215 82.3504 61.4678C82.3976 61.5105 82.4586 61.5348 82.5222 61.5364C88.1708 61.5355 93.7526 62.7593 98.8827 65.1236C104.013 67.4879 108.569 70.9363 112.238 75.2313C114.41 77.981 116.051 81.1113 117.077 84.462C117.989 87.212 119.101 91.4624 116.939 93.7959C117.189 89.2977 114.315 86.211 110.591 83.7073C107.494 81.6254 104.62 80.3005 100.88 80.2425C98.2391 80.2111 95.6034 80.4759 93.022 81.0319C92.9911 79.7473 92.6242 78.4932 91.9577 77.3946C91.9193 77.3348 91.8594 77.2921 91.7904 77.2752C91.7214 77.2583 91.6485 77.2685 91.5868 77.3038C91.5252 77.3391 91.4794 77.3967 91.459 77.4648C91.4386 77.5328 91.4451 77.6061 91.4771 77.6695C92.1709 78.9349 92.9836 81.0628 92.198 82.4735C91.6097 83.5341 90.3104 83.1574 89.2815 83.4C88.5595 83.5777 87.858 83.8301 87.1883 84.1532C87.6562 81.0189 87.5864 77.8278 86.982 74.7169C86.9179 74.4066 86.3982 74.4766 86.4329 74.7854C86.8606 78.0452 86.8261 81.349 86.3304 84.5991C85.5839 85.0396 84.8622 85.5209 84.1687 86.0408C80.9751 88.4398 78.3109 91.1912 76.9627 95.0311C76.3835 96.6799 75.6182 99.5987 76.6878 101.174C78.4631 103.787 83.2807 99.1881 84.58 98.0161C84.9566 97.6749 85.3332 97.3322 85.7098 97.0211C86.1225 96.6799 85.5411 96.0992 85.126 96.4382C83.9352 97.4106 82.6909 98.4297 81.3856 99.3207C80.6323 99.8359 78.4435 101.68 77.5442 100.762C77.1762 100.204 77.0069 99.5394 77.0636 98.8741C76.8753 94.2101 80.371 90.1059 83.7891 87.3446C85.7994 85.7206 87.8941 84.3114 90.4468 83.9815C91.4478 83.8527 92.72 84.7814 92.8827 81.6826C100.822 80.2199 105.701 80.3397 111.722 85.5941C112.218 87.9168 112.322 90.306 112.031 92.663C111.678 92.1393 111.204 91.7094 110.647 91.4105C110.091 91.1117 109.471 90.9529 108.84 90.948C108.495 90.9193 108.497 91.4586 108.84 91.4963C116.708 92.3708 108.587 108.756 101.702 106.561C101.607 106.54 101.508 106.554 101.422 106.599C101.337 106.644 101.269 106.718 101.233 106.808C101.196 106.898 101.192 106.998 101.221 107.09C101.25 107.183 101.311 107.262 101.393 107.314C105.35 109.317 109.337 104.476 111.173 101.549C112.351 99.6657 113.266 96.2642 112.58 93.8275C112.614 93.7936 112.614 93.7251 112.649 93.6904C112.545 93.8968 114.297 95.0944 114.501 95.1969C115.988 95.9651 117.431 94.7924 118.173 93.5835C120.267 90.1752 118.146 84.4598 116.458 80.8541C119.751 77.5595 121.395 75.5929 127.781 68.8094C128.779 67.7489 130.041 66.784 130.629 65.4124C131.04 64.1861 131.134 62.8759 130.903 61.6034C130.701 59.6609 130.767 59.1743 129.119 21.3176C129.044 19.6018 129.46 17.2367 127.884 16.067C126.11 14.9261 124.21 13.9935 122.222 13.2876C119.717 12.2466 117.136 11.3978 114.501 10.7485C97.0547 6.39868 85.9787 8.77056 75.2792 15.0418C74.4567 15.5231 73.2779 15.9615 72.774 16.8262C72.3183 17.6096 72.539 19.3999 72.4652 20.3264C72.3048 22.3518 72.1489 24.3433 71.9508 26.3657C71.8905 26.9841 71.7813 31.8265 71.5049 31.9244C70.7886 32.1783 70.0602 32.4328 69.3085 32.7823C67.8684 33.3854 66.5953 34.3275 65.5976 35.5283C64.5999 36.7292 63.907 38.1533 63.578 39.6795C63.2338 41.4639 63.3046 43.1797 62.6855 44.9295C62.1003 46.5625 61.2028 48.066 60.0432 49.3561C56.1716 53.6856 45.6959 54.9337 44.5676 60.2024C44.4581 60.6514 44.4349 61.1171 44.4991 61.5748C33.1067 65.3838 23.2019 73.862 20.9588 86.0415C20.5269 87.9617 20.6702 89.9666 21.3708 91.8059C21.896 92.6475 22.6787 93.2973 23.6026 93.6588ZM79.2954 63.3584C77.0824 64.2773 73.3555 63.8231 71.6126 61.5394C72.0012 56.4928 71.6344 53.1229 72.2649 49.3237C72.8795 45.6171 74.1863 42.4265 73.946 38.5527C73.946 38.5527 77.8582 42.7391 84.241 40.2686C84.7308 41.7208 85.0194 43.2332 85.0989 44.7638C84.3348 44.0501 83.508 43.4067 82.6284 42.8415C82.5687 42.8095 82.4996 42.7996 82.4334 42.8138C82.3672 42.828 82.3082 42.8653 82.2669 42.919C82.2256 42.9726 82.2047 43.0392 82.208 43.1069C82.2113 43.1745 82.2386 43.2388 82.2849 43.2882C83.4569 44.2968 84.5683 45.3738 85.6134 46.5135C86.1188 47.7096 84.6538 47.5891 83.4855 48.1947C83.2136 48.3363 83.3145 48.8515 83.6573 48.8123C83.9322 48.7814 84.3095 48.7099 84.6869 48.6413C83.1481 53.6969 78.2198 55.6922 74.1863 53.4107C73.879 53.2367 73.5378 53.6811 73.8097 53.8912C74.5526 54.4735 75.4124 54.8884 76.3305 55.1076C77.2486 55.3268 78.2032 55.345 79.1289 55.1611C79.1289 55.8473 79.0438 56.5667 78.9911 57.2543C78.9414 57.9051 78.6145 58.9009 78.854 59.4846V59.5193C78.8876 59.5951 78.934 59.6647 78.9911 59.7249C79.8923 60.2839 80.8328 60.7771 81.8051 61.2004C81.1528 62.1098 80.2922 62.8497 79.2954 63.3584ZM98.0663 63.839C94.2992 62.4202 90.367 61.4862 86.3643 61.0596C85.6375 60.95 84.9037 60.8926 84.1687 60.8879C83.6647 60.9546 83.1525 60.9195 82.6623 60.7847C82.1984 60.5664 81.7511 60.3147 81.3238 60.0314C80.7543 59.7389 80.1703 59.4755 79.5741 59.2421C79.6883 58.6777 79.723 58.1002 79.6773 57.5262C79.6971 56.7021 79.674 55.8775 79.608 55.0557C82.8747 54.1646 84.9822 51.566 85.7166 48.2617C86.7876 47.6945 87.0723 46.6995 85.9222 45.5501C85.842 43.6788 85.4476 41.8343 84.7555 40.0938C85.7149 39.6755 86.6339 39.1699 87.5009 38.5836C87.5009 38.5836 84.1039 32.3387 77.5841 31.3776C77.618 30.2794 77.7551 25.7503 77.7551 24.5836C77.7551 23.8974 77.5216 22.7676 77.7897 22.1469C78.0707 21.4977 78.9195 21.1113 79.5394 20.706C85.1629 17.0424 91.7905 16.2078 98.3789 16.2447C107.553 16.2967 115.564 18.1692 120.546 20.2255C121.64 20.5816 122.68 21.0886 123.634 21.7319C124.592 22.525 124.296 24.6484 124.355 25.8497C124.518 29.1774 124.554 32.5413 124.595 35.8675C124.967 66.0715 124.994 55.9407 125.11 60.9496C125.156 62.9743 123.803 64.0009 122.502 65.4448C119.51 68.7672 116.326 71.9647 113.442 75.3617C109.501 70.1541 104.173 66.161 98.0685 63.839H98.0663ZM73.6681 19.6756C73.7796 18.1323 73.702 17.3407 75.0405 16.4496C86.0141 9.13436 97.8042 8.24783 110.866 10.7191C115.553 11.5863 120.109 13.051 124.424 15.0772C125.52 15.597 127.79 16.3457 128.233 17.5824C128.613 18.6452 128.399 20.1901 128.438 21.3229C128.53 23.9652 129.655 50.4566 130.154 61.0596C130.22 62.4666 130.571 64.2532 129.845 65.5201C129.204 66.4101 128.468 67.2271 127.649 67.9568C126.336 69.3548 118.761 77.4963 116.325 80.241C115.626 78.7251 114.788 77.2777 113.821 75.9175C116.772 72.7608 119.674 69.5559 122.605 66.378C123.662 65.4029 124.616 64.3222 125.453 63.1528C126.11 62.0229 125.791 60.5451 125.727 59.2752C125.248 49.7282 125.601 40.1247 125.076 26.0237C125.029 24.7892 125.336 22.5348 124.492 21.4939C123.824 20.8894 123.043 20.423 122.193 20.1215C118.1 18.1436 110.57 16.006 101.432 15.4892C94.0893 15.0742 86.5135 15.5713 79.9514 19.2636C79.0943 19.7457 77.0892 20.6284 76.6569 21.5632C76.4068 22.1078 76.6795 23.1073 76.6915 23.7249C76.7427 26.3838 76.6365 27.4112 76.5544 31.2736C75.2642 31.2079 73.9711 31.3235 72.713 31.6171C72.9819 27.6025 73.3819 23.6232 73.6681 19.6756ZM22.8817 82.8147C24.0039 79.2756 25.8241 75.9973 28.2349 73.1736C32.7601 68.1351 38.5197 64.3622 44.9465 62.2263C46.4529 65.0396 53.0428 64.6961 51.3631 71.045C50.8826 72.8632 53.8683 74.442 57.3 74.9572C56.5396 78.1963 56.4117 81.5518 56.9234 84.8394C55.2104 83.6046 53.3095 82.6544 51.2938 82.0254C50.5067 81.8122 49.0289 81.9229 48.4459 81.3392C47.1421 80.0354 48.2056 77.7019 49.2353 76.6692C49.4755 76.4297 49.0997 76.0539 48.8587 76.2926C48.3978 76.7076 48.0308 77.2161 47.7822 77.7843C47.5336 78.3524 47.4091 78.9671 47.417 79.5872C39.6755 76.7513 33.2806 78.6766 27.206 83.8052C24.7686 85.8638 22.7447 88.8841 23.0881 92.2473C20.7886 89.9183 21.9334 85.6212 22.8817 82.8147Z" fill="#2B2E3F"/>
<path d="M127.612 67.9221C128.424 67.1857 129.16 66.3696 129.808 65.4862C130.553 64.1763 130.18 62.4319 130.117 61.0249C129.635 50.4233 128.495 23.9666 128.401 21.2882C128.363 20.19 128.575 18.6105 128.195 17.5477C127.753 16.3117 125.483 15.5607 124.386 15.0433C120.07 13.0216 115.514 11.5571 110.828 10.6852C97.8494 8.21988 86.1979 8.95276 75.0036 16.4156C73.6651 17.3074 73.7404 18.1315 73.6305 19.6409C73.3405 23.6232 72.9443 27.5677 72.6701 31.5485C73.9228 31.2224 75.2209 31.1064 76.5115 31.205C76.6185 26.1886 76.6486 28.5514 76.6486 23.6563C76.6486 23.0387 76.3661 22.0745 76.6147 21.4938C77.0139 20.5621 79.0529 19.6786 79.9085 19.195C86.4404 15.5103 94.0456 15.029 101.39 15.4206C110.224 15.8914 117.792 17.9755 122.15 20.0529C123.003 20.3476 123.785 20.8147 124.449 21.4253C125.269 22.4579 124.976 24.7537 125.033 25.9551C125.206 29.6255 125.891 61.5069 125.891 61.5069L125.822 61.644C125.806 62.1574 125.677 62.661 125.446 63.1196C124.775 64.3292 123.494 65.3543 122.597 66.3456C119.696 69.5503 116.768 72.7301 113.813 75.8851C114.779 77.246 115.618 78.6933 116.317 80.2085C119.611 76.4515 123.198 72.7306 127.612 67.9221Z" fill="#00C896"/>
<path d="M146.759 121.831C143.312 117.79 139.954 113.638 136.567 109.546C135.122 107.8 133.716 105.535 132.004 104.056C130.972 103.166 128.503 103.713 127.199 103.713C124.215 103.713 121.263 103.764 118.278 103.781C118.187 103.788 118.102 103.829 118.041 103.896C117.979 103.963 117.945 104.051 117.945 104.142C117.945 104.232 117.979 104.32 118.041 104.387C118.102 104.454 118.187 104.495 118.278 104.502C132.212 104.698 130.421 104.489 131.317 104.57C132.793 106.077 134.072 107.891 135.435 109.512C137.647 112.141 144.323 120.252 145.489 121.659C99.3169 120.145 48.8703 123.247 5.07302 121.625C11.852 112.387 17.7775 104.639 17.7007 104.639C18.5081 104.529 19.325 104.506 20.1373 104.57C20.8906 104.532 21.6438 104.506 22.4023 104.467C23.0199 104.436 23.0199 103.511 22.4023 103.541C21.5444 103.582 20.6518 103.603 19.7939 103.644C19.0377 103.579 18.2761 103.613 17.529 103.747C16.3042 104.22 15.1601 106.422 14.4069 107.418C10.8306 112.149 7.23701 116.921 3.84151 121.795C3.80038 121.863 3.77782 121.94 3.77611 122.02C3.77439 122.099 3.79358 122.177 3.83175 122.247C3.86992 122.316 3.92571 122.375 3.99354 122.416C4.06136 122.457 4.13882 122.479 4.21812 122.481C51.5954 123.251 122.528 121.125 146.453 122.55C146.537 122.552 146.62 122.528 146.691 122.483C146.761 122.437 146.817 122.372 146.85 122.294C146.883 122.217 146.892 122.131 146.875 122.049C146.859 121.966 146.819 121.89 146.759 121.831Z" fill="#2B2E3F"/>
<path d="M48.5822 104.471C56.1332 104.557 63.715 104.574 71.2645 104.574C77.1667 104.574 83.1103 104.842 89.005 104.437C89.3816 104.411 89.3816 103.82 89.005 103.854C75.5224 104.197 62.0339 103.339 48.5483 103.82C48.1378 103.781 48.1378 104.463 48.5822 104.471Z" fill="#2B2E3F"/>
<path d="M116.803 107.316C116.559 107.045 116.156 107.448 116.391 107.727C117.44 108.972 118.551 110.163 119.72 111.296L104.415 111.502C103.143 110.119 101.885 108.724 100.64 107.316C100.398 107.043 100.02 107.455 100.229 107.727C101.242 109.044 102.356 110.267 103.42 111.536L94.3606 111.639C93.3317 110.198 92.2787 108.807 91.2724 107.346C91.0615 107.041 90.5862 107.312 90.7919 107.621C91.5451 108.993 92.4045 110.297 93.2971 111.636C90.0371 111.669 81.287 111.739 80.1911 111.739C79.7377 110.26 79.2098 108.806 78.6094 107.381C78.5726 107.316 78.5131 107.267 78.4424 107.243C78.3717 107.22 78.2948 107.223 78.2265 107.253C78.1582 107.283 78.1034 107.337 78.0727 107.405C78.042 107.473 78.0376 107.55 78.0603 107.621C78.5709 108.983 78.9528 110.366 79.3987 111.739C76.242 111.773 73.0506 111.773 69.8939 111.807C69.8592 110.469 69.808 109.131 69.7907 107.827C69.7851 107.744 69.7483 107.666 69.6877 107.61C69.6272 107.553 69.5474 107.522 69.4646 107.522C69.3817 107.522 69.3019 107.553 69.2414 107.61C69.1808 107.666 69.144 107.744 69.1384 107.827C69.1211 109.165 69.1384 110.503 69.1731 111.841L56.3051 111.944C56.9227 110.503 57.4884 109.054 58.0895 107.651C58.2228 107.341 57.682 107.104 57.5404 107.411C56.8399 108.931 56.1334 110.43 55.4811 111.941C51.9124 111.975 48.3436 111.975 44.7749 112.009C45.6541 110.546 46.5695 109.104 47.5204 107.686C47.7275 107.378 47.2522 107.106 47.0398 107.411C45.9725 108.943 44.912 110.43 43.9516 112.005C41.0691 112.005 38.1518 112.04 35.27 112.074C36.1505 110.78 36.9195 109.414 37.5689 107.991C37.7105 107.649 37.2578 107.337 37.0544 107.682C36.1819 109.158 35.2896 110.622 34.3775 112.074C34.275 112.074 24.5638 112.143 19.8284 112.109C20.7887 110.735 21.7973 109.407 22.7795 108.059C23.1267 107.582 22.3388 107.137 21.9901 107.613C19.7606 110.659 17.5966 113.727 15.6759 116.947C15.6379 117.013 15.6179 117.088 15.618 117.164C15.6181 117.24 15.6382 117.315 15.6763 117.381C15.7144 117.447 15.7693 117.502 15.8353 117.54C15.9013 117.578 15.9762 117.599 16.0525 117.599C34.9582 117.682 60.5239 117.42 134.473 117.564C134.547 117.561 134.619 117.538 134.68 117.495C134.741 117.453 134.789 117.394 134.818 117.326C134.847 117.258 134.856 117.182 134.843 117.109C134.831 117.036 134.798 116.968 134.748 116.913C131.923 113.594 128.64 110.702 125.586 107.648C125.311 107.374 124.934 107.785 125.174 108.06C126.135 109.158 127.165 110.187 128.194 111.217C125.723 111.251 123.218 111.32 120.747 111.354C119.376 109.992 118.053 108.706 116.803 107.316ZM120.338 111.88C122.019 113.527 123.802 115.071 125.519 116.684C120.063 116.649 114.572 116.649 109.116 116.615C109.116 116.349 109.276 116.69 104.998 112.085C106.151 112.201 119.16 111.905 120.338 111.88ZM104.003 112.154C105.342 113.66 106.749 115.173 108.156 116.649H97.7237C96.8312 115.173 95.8362 113.698 94.8412 112.257L104.003 112.154ZM79.6398 112.429C80.0857 113.836 80.5662 115.242 81.0807 116.615H70.1342C70.0317 115.242 69.9632 113.87 69.8946 112.497C73.1546 112.497 76.4145 112.463 79.6398 112.429ZM69.2077 112.531C69.2424 113.904 69.3455 115.277 69.448 116.649C64.3351 116.649 59.2223 116.649 54.1441 116.684C54.8001 115.358 55.4291 114.02 56.0309 112.669C60.3891 112.634 64.7811 112.6 69.2077 112.53V112.531ZM41.3786 116.684H32.389C33.2469 115.448 33.9707 114.11 34.7563 112.842C37.6736 112.808 40.59 112.808 43.4726 112.774C42.7063 114.039 42.0073 115.344 41.3786 116.684ZM16.8434 116.684C17.5966 115.38 18.4251 114.11 19.28 112.875C24.1526 112.909 28.9912 112.909 33.8638 112.875C32.9885 114.094 32.2079 115.378 31.5288 116.716C31.153 116.718 21.3732 116.718 16.8434 116.684ZM42.1333 116.684C42.8195 115.345 43.575 114.041 44.2951 112.771C47.4179 112.738 54.6586 112.703 55.1414 112.703C54.5579 114.042 53.9403 115.38 53.2885 116.718C49.5796 116.684 45.8399 116.684 42.1333 116.684ZM81.7676 116.512C81.287 115.173 80.8411 113.8 80.4291 112.463C84.8897 112.429 89.3171 112.36 93.7776 112.291C94.7726 113.766 95.8362 115.208 96.8312 116.649C80.1218 116.649 81.9672 116.712 81.7676 116.512ZM128.676 111.639C130.357 113.321 132.039 114.968 133.617 116.752C124.441 116.617 127.128 116.87 126.479 116.547C124.798 114.965 123.082 113.458 121.366 111.877C128.939 111.66 128.56 111.755 128.676 111.639Z" fill="#2B2E3F"/>
<path d="M108.224 134.218C108.111 133.786 107.858 133.403 107.504 133.129C107.15 132.856 106.715 132.707 106.268 132.707C105.821 132.707 105.386 132.856 105.032 133.129C104.678 133.403 104.425 133.786 104.312 134.218C104.314 134.237 104.312 134.256 104.306 134.274C104.3 134.292 104.29 134.308 104.277 134.322C104.194 134.628 104.182 134.949 104.243 135.26C104.304 135.572 104.435 135.865 104.628 136.117C104.821 136.369 105.069 136.573 105.353 136.714C105.637 136.854 105.95 136.928 106.268 136.928C106.585 136.928 106.898 136.854 107.182 136.714C107.466 136.573 107.714 136.369 107.907 136.117C108.1 135.865 108.231 135.572 108.292 135.26C108.353 134.949 108.341 134.628 108.258 134.322C108.245 134.308 108.235 134.292 108.229 134.274C108.224 134.256 108.222 134.237 108.224 134.218Z" fill="#2B2E3F"/>
<path d="M97.1055 134.218C96.9926 133.786 96.7393 133.403 96.3853 133.129C96.0314 132.856 95.5967 132.707 95.1494 132.707C94.7021 132.707 94.2675 132.856 93.9135 133.129C93.5596 133.403 93.3063 133.786 93.1933 134.218C93.1956 134.237 93.1937 134.256 93.1879 134.274C93.182 134.292 93.1723 134.308 93.1594 134.322C93.0757 134.628 93.0638 134.949 93.1245 135.261C93.1852 135.572 93.3169 135.865 93.5095 136.118C93.702 136.37 93.9501 136.574 94.2346 136.715C94.519 136.856 94.8321 136.929 95.1494 136.929C95.4668 136.929 95.7798 136.856 96.0643 136.715C96.3487 136.574 96.5968 136.37 96.7894 136.118C96.9819 135.865 97.1137 135.572 97.1744 135.261C97.2351 134.949 97.2231 134.628 97.1394 134.322C97.1418 134.303 97.14 134.284 97.1341 134.266C97.1282 134.248 97.1185 134.232 97.1055 134.218Z" fill="#2B2E3F"/>
<path d="M86.022 134.218C85.9091 133.786 85.6558 133.403 85.3018 133.129C84.9479 132.856 84.5132 132.707 84.0659 132.707C83.6187 132.707 83.184 132.856 82.83 133.129C82.4761 133.403 82.2228 133.786 82.1098 134.218C82.1121 134.237 82.1102 134.256 82.1044 134.274C82.0985 134.292 82.0888 134.308 82.0759 134.322C81.9922 134.628 81.9803 134.949 82.041 135.261C82.1017 135.572 82.2334 135.865 82.426 136.118C82.6185 136.37 82.8667 136.574 83.1511 136.715C83.4355 136.856 83.7486 136.929 84.0659 136.929C84.3833 136.929 84.6963 136.856 84.9808 136.715C85.2652 136.574 85.5133 136.37 85.7059 136.118C85.8984 135.865 86.0302 135.572 86.0909 135.261C86.1516 134.949 86.1396 134.628 86.0559 134.322C86.0431 134.308 86.0334 134.292 86.0275 134.274C86.0216 134.256 86.0198 134.237 86.022 134.218Z" fill="#2B2E3F"/>
<path d="M74.9035 134.218C74.7906 133.786 74.5373 133.403 74.1833 133.129C73.8294 132.856 73.3947 132.707 72.9474 132.707C72.5002 132.707 72.0655 132.856 71.7116 133.129C71.3576 133.403 71.1043 133.786 70.9913 134.218C70.9936 134.237 70.9917 134.256 70.9859 134.274C70.98 134.292 70.9703 134.308 70.9574 134.322C70.874 134.628 70.8622 134.949 70.9231 135.26C70.9839 135.572 71.1158 135.865 71.3083 136.117C71.5009 136.369 71.749 136.573 72.0333 136.714C72.3177 136.854 72.6306 136.928 72.9478 136.928C73.265 136.928 73.578 136.854 73.8623 136.714C74.1467 136.573 74.3948 136.369 74.5873 136.117C74.7799 135.865 74.9117 135.572 74.9726 135.26C75.0334 134.949 75.0217 134.628 74.9382 134.322C74.9251 134.308 74.9152 134.292 74.9092 134.274C74.9032 134.256 74.9013 134.237 74.9035 134.218Z" fill="#2B2E3F"/>
<path d="M63.7854 134.219C63.6722 133.786 63.4189 133.403 63.065 133.13C62.7112 132.857 62.2767 132.709 61.8297 132.709C61.3827 132.709 60.9483 132.857 60.5944 133.13C60.2406 133.403 59.9872 133.786 59.874 134.219C59.8763 134.237 59.8743 134.256 59.8683 134.274C59.8623 134.292 59.8524 134.308 59.8393 134.322C59.7559 134.628 59.7441 134.949 59.805 135.26C59.8658 135.572 59.9977 135.865 60.1902 136.117C60.3828 136.369 60.6308 136.573 60.9152 136.714C61.1995 136.854 61.5125 136.928 61.8297 136.928C62.1469 136.928 62.4599 136.854 62.7442 136.714C63.0286 136.573 63.2767 136.369 63.4692 136.117C63.6618 135.865 63.7936 135.572 63.8545 135.26C63.9153 134.949 63.9036 134.628 63.8201 134.322C63.8201 134.287 63.7854 134.252 63.7854 134.219Z" fill="#2B2E3F"/>
<path d="M52.702 134.219C52.5887 133.786 52.3354 133.403 51.9815 133.13C51.6277 132.857 51.1932 132.709 50.7462 132.709C50.2992 132.709 49.8648 132.857 49.5109 133.13C49.1571 133.403 48.9037 133.786 48.7905 134.219C48.7928 134.237 48.7908 134.256 48.7848 134.274C48.7788 134.292 48.7689 134.308 48.7559 134.322C48.6724 134.628 48.6606 134.949 48.7215 135.26C48.7823 135.572 48.9142 135.865 49.1067 136.117C49.2993 136.369 49.5474 136.573 49.8317 136.714C50.1161 136.854 50.429 136.928 50.7462 136.928C51.0634 136.928 51.3764 136.854 51.6607 136.714C51.9451 136.573 52.1932 136.369 52.3857 136.117C52.5783 135.865 52.7101 135.572 52.771 135.26C52.8318 134.949 52.8201 134.628 52.7366 134.322C52.7235 134.308 52.7136 134.292 52.7076 134.274C52.7016 134.256 52.6997 134.237 52.702 134.219Z" fill="#2B2E3F"/>
<path d="M120.816 35.7695C121.094 35.4275 120.606 34.9071 120.302 35.2543C115.383 40.8808 110.377 46.3266 104.997 51.5539C100.499 55.9226 100.252 56.1395 99.6443 56.3579C98.8587 56.6419 98.8565 56.4596 98.2034 55.9467C95.5837 53.8874 91.5593 48.9086 88.1857 45.4461C88.1349 45.4002 88.0685 45.3756 88.0001 45.3773C87.9317 45.379 87.8666 45.4069 87.8183 45.4553C87.7699 45.5037 87.742 45.5688 87.7403 45.6372C87.7385 45.7055 87.7632 45.772 87.809 45.8227C89.7561 48.0997 91.7506 50.3563 93.7451 52.6513C95.2891 54.6175 97.1299 56.331 99.2014 57.7303C99.2883 57.7792 99.3885 57.7989 99.4874 57.7865C99.5863 57.774 99.6786 57.73 99.7505 57.661C103.044 53.7834 107.163 50.5582 110.731 46.9209C114.23 43.3529 117.653 39.6689 120.816 35.7695Z" fill="#2B2E3F"/>
<path d="M120.886 32.9555C119.989 32.206 119.479 31.5831 118.622 30.9647C118.331 30.7488 117.971 30.6471 117.61 30.6787C117.249 30.7104 116.912 30.8732 116.663 31.1364C110.663 37.3881 105.195 42.3134 99.471 48.9123C99.4197 48.9768 99.3544 49.0289 99.2802 49.0647C99.2059 49.1005 99.1245 49.1191 99.0421 49.1191C98.9596 49.1191 98.8782 49.1005 98.804 49.0647C98.7297 49.0289 98.6645 48.9768 98.6131 48.9123L92.0247 41.6717C91.9385 41.5595 91.8306 41.4659 91.7074 41.3963C91.5842 41.3268 91.4483 41.2827 91.3078 41.2668C91.1672 41.2508 91.0249 41.2633 90.8893 41.3035C90.7536 41.3437 90.6275 41.4107 90.5183 41.5007C89.5247 42.2709 88.5845 43.1076 87.7043 44.0051C87.5091 44.2061 87.3972 44.4735 87.3909 44.7536C87.3846 45.0337 87.4845 45.3058 87.6704 45.5153L87.7728 45.6185C87.7823 45.5717 87.8042 45.5284 87.8363 45.493C87.8683 45.4576 87.9093 45.4314 87.9549 45.4173C88.0005 45.4032 88.0491 45.4017 88.0955 45.4128C88.1419 45.424 88.1845 45.4474 88.2187 45.4807C92.1965 49.5345 95.8307 54.1366 98.2365 55.9813C98.9144 56.5033 98.9144 56.6501 99.6782 56.3933C100.187 56.1708 100.643 55.8433 101.016 55.4322C107.829 49.0861 114.279 42.3612 120.336 35.2897C120.369 35.2496 120.412 35.2187 120.46 35.1997C120.508 35.1807 120.561 35.1743 120.612 35.1812C120.664 35.1881 120.712 35.2079 120.754 35.2389C120.796 35.2698 120.829 35.3109 120.85 35.3582C120.954 35.2211 121.094 35.0871 121.227 34.9123C121.429 34.6039 121.507 34.2299 121.443 33.8664C121.38 33.5029 121.181 33.1772 120.886 32.9555Z" fill="#00C896"/>
<path d="M93.6736 102.546C91.0095 103.741 90.5681 100.179 90.5508 98.4281C90.5508 97.9822 89.8985 98.0161 89.8646 98.4281C89.7245 100.144 89.6898 102.311 91.3401 103.369C92.47 104.094 93.7067 103.779 94.7718 103.06C97.2732 101.374 98.8851 98.0484 100.022 95.3399C101.218 92.4897 101.772 88.683 100.022 85.9375C98.5153 83.5694 94.5451 82.5653 93.1592 85.6287C93.0198 85.9367 93.4748 86.2154 93.6397 85.9036C95.1198 83.0964 99.563 84.0808 100.16 88.9918C100.36 91.1597 99.9694 93.3414 99.0297 95.3052C98.0272 97.5235 95.7276 101.625 93.6736 102.546Z" fill="#2B2E3F"/>
<path d="M96.0422 104.227C95.7371 103.881 95.2889 104.33 95.4584 104.674C96.2478 106.492 98.5097 106.385 99.9536 105.462C102.112 104.084 103.598 101.244 104.548 98.9771C105.759 96.0983 108.009 87.7903 102.729 87.3775C102.353 87.3482 102.386 87.8928 102.729 87.9613C107.224 88.5104 104.812 96.0893 103.759 98.599C102.757 100.997 99.1401 107.757 96.0422 104.227Z" fill="#2B2E3F"/>
<path d="M105.65 108.071C105.17 108.036 105.099 108.764 105.547 108.894C107.15 109.342 108.846 109.335 110.446 108.874C112.046 108.414 113.486 107.518 114.606 106.286C116.817 103.655 116.514 99.7221 115.086 96.8154C114.918 96.4712 114.428 96.7838 114.572 97.1242C115.754 99.9262 115.886 103.828 113.577 106.08C111.39 108.217 108.533 108.276 105.65 108.071Z" fill="#2B2E3F"/>
</svg>
