<svg width="151" height="151" viewBox="0 0 151 151" fill="none" xmlns="http://www.w3.org/2000/svg">
<path d="M30.2695 21.0056C30.1037 19.4759 28.9091 17.0965 26.5297 18.1163C26.5297 15.7361 23.2999 13.8667 20.4099 15.5667C20.2401 15.5793 20.0697 15.5793 19.8999 15.5667C17.5205 14.0369 12.9312 14.3766 12.9312 18.7965C10.0411 18.1186 4.43187 22.366 8.68152 25.5957C6.98151 27.1255 7.15174 31.3752 11.0609 31.5462C10.383 34.266 14.8006 36.8187 17.0113 33.7561C16.5014 36.8157 18.2014 45.1447 17.861 33.0782C18.0312 33.0782 19.7312 32.5683 19.7312 31.7224C19.9007 29.8529 18.3709 29.0025 19.0533 28.3224C19.393 27.9827 20.5831 27.3025 21.093 28.8323C21.7709 30.5323 22.793 27.1331 24.493 25.6033C25.1852 26.742 26.0438 27.7707 27.0404 28.6553C26.6073 29.0884 25.9031 29.63 26.0206 30.0111C27.0909 33.5166 27.1361 33.3388 27.0404 33.5806C26.4823 34.9951 22.5814 33.2319 22.1106 35.2806C21.9773 35.8606 21.261 39.7005 22.7885 39.36C23.1282 37.8302 22.7885 38.5104 22.9587 35.4508C25.3381 35.4508 30.0977 35.9608 27.0382 30.1783C27.2865 29.9118 27.5728 29.6833 27.8878 29.5004C28.7382 28.3103 26.532 27.4607 25.3381 25.7607C27.7183 25.9354 30.6182 24.2347 30.2695 21.0056ZM14.4617 17.098C15.4929 16.0668 16.399 15.9418 17.0113 16.2483C17.5213 16.4178 17.351 17.098 17.0113 17.2682C16.936 17.3058 15.047 17.7781 14.9716 17.7781C14.2907 17.7759 14.2907 17.4362 14.4617 17.098ZM23.6404 16.0781C23.7891 16.2055 23.9109 16.3613 23.9985 16.5365C24.0861 16.7116 24.1377 16.9025 24.1503 17.098C23.9808 17.9476 23.8106 17.098 23.3007 16.7583C22.7908 16.4186 22.4232 16.2461 22.4511 16.0804C22.5362 15.5456 23.2999 15.7361 23.6396 16.0766L23.6404 16.0781ZM10.3838 20.8377C10.7235 20.6675 11.9136 20.6675 11.9136 21.3476C11.9136 21.8575 10.8937 22.0255 10.5533 22.0255C10.2982 22.0683 10.062 22.1869 9.87537 22.366C9.36544 22.8759 10.0448 24.2354 9.36544 24.4057C9.02499 24.4057 8.85551 24.066 8.68755 23.7278C8.17159 22.366 9.18919 21.3461 10.3815 20.8362L10.3838 20.8377Z" fill="#2B2E3F"/>
<path d="M34.0085 36.3049C40.6527 32.3189 48.566 25.9964 52.8766 25.0865C53.7184 24.9406 54.5733 24.8836 55.427 24.9163C56.4212 24.9794 57.3978 25.2085 58.3163 25.5942C58.8263 25.7637 59.166 24.9163 58.656 24.7438C57.0794 23.9572 55.3032 23.6613 53.5568 23.8942C49.2032 24.3295 43.2377 29.532 33.6719 35.6233C33.1589 35.7942 33.4986 36.4744 34.0085 36.3049Z" fill="#2B2E3F"/>
<path d="M41.1476 42.9335C45.16 39.7233 45.7422 38.5114 49.9866 34.264C50.8246 33.4572 51.6189 32.6061 52.366 31.7143C52.8759 31.2044 52.0263 30.3586 51.5163 30.8647C45.6925 37.4177 42.6532 40.4072 40.4674 42.593C40.2964 42.9335 40.9743 43.274 41.1476 42.9335Z" fill="#2B2E3F"/>
<path d="M58.4861 28.3149C59.3553 29.1849 59.4728 28.1123 59.3357 27.9752C58.7708 26.8454 53.896 25.165 53.896 26.2752C54.5407 26.92 55.8679 26.352 58.4861 28.3149Z" fill="#2B2E3F"/>
<path d="M54.7462 28.6553C58.5537 30.5587 58.4792 31.8851 59.1654 31.8851C61.1297 31.8851 56.0998 27.8049 54.9165 27.8049C54.576 27.8049 54.2363 28.4851 54.7462 28.6553Z" fill="#2B2E3F"/>
<path d="M54.0664 31.0325C54.4455 31.252 54.7764 31.5458 55.0393 31.8963C55.3022 32.2468 55.4916 32.6467 55.5961 33.0722C55.9185 34.4378 56.8382 33.7501 56.274 32.3943C54.9582 29.212 52.743 30.0812 54.0664 31.0325Z" fill="#2B2E3F"/>
<path d="M4.94202 127.925L4.77179 128.095C4.77179 129.199 4.65128 128.994 5.28172 129.625C5.41244 129.637 5.53384 129.698 5.62217 129.795H5.96187C6.1321 129.795 6.30157 129.455 6.30157 129.117V128.778L6.1321 128.607V128.778L5.96187 128.607V128.778L5.79165 128.607V128.778C5.69943 128.686 5.6399 128.566 5.62217 128.437C5.6143 128.304 5.55804 128.179 5.46407 128.085C5.37009 127.991 5.24492 127.935 5.11225 127.927C5.13468 127.927 5.15696 127.931 5.17776 127.939C5.19856 127.948 5.21744 127.96 5.23327 127.976C5.2491 127.992 5.26155 128.011 5.26988 128.032C5.2782 128.053 5.28223 128.075 5.28172 128.097C5.1903 128.005 5.0709 127.945 4.94202 127.927V127.925Z" fill="#2B2E3F"/>
<path d="M43.8681 42.2556C43.6978 42.0854 43.6978 42.2556 43.8681 42.2556C41.6084 38.8616 41.5052 37.887 38.768 33.5861C38.2581 32.9082 37.9184 32.0563 37.0688 31.5464C36.3909 30.8685 32.9886 33.7563 32.3092 34.096C29.9221 35.6059 27.2679 36.6447 24.4901 37.1563C20.9454 37.8621 17.9921 36.2525 15.8205 37.496C14.6418 38.2756 13.6067 39.2531 12.761 40.3854C8.83447 45.1306 8.33207 51.6038 7.66171 57.5542C6.42493 68.527 6.85426 72.2072 5.622 75.9108C5.45177 76.4207 5.45177 77.2704 6.29989 77.1001C14.1507 75.0529 18.5773 73.9366 30.1015 73.7009C32.4809 73.6512 34.8611 73.7009 36.9008 74.7207C37.2405 74.891 37.9207 74.7207 37.9207 74.2108C37.5719 67.932 36.1054 64.132 35.2008 58.742C34.8867 56.868 34.0107 54.6626 34.3512 52.9626C34.6909 50.0732 37.9207 48.2038 40.1306 46.5037C41.1139 45.8025 42.025 45.0052 42.8505 44.1236C43.3581 43.7839 44.378 43.274 43.8681 42.2556Z" fill="#38A1FF"/>
<path d="M22.2801 39.1945C20.9198 41.064 20.9198 43.4441 21.4297 45.8228C22.616 49.973 25.8323 52.265 26.7022 53.129C27.1884 53.6734 27.7607 54.1342 28.3962 54.493C28.9061 54.6625 29.2466 54.1526 28.9061 53.8152C28.5377 53.3324 28.0768 52.9278 27.5504 52.6251C25.1401 51.02 22.1106 47.1168 22.1106 43.1059C22.0477 41.9133 22.3439 40.7292 22.961 39.7067C23.1297 39.1945 22.4503 38.854 22.2801 39.1945Z" fill="#2B2E3F"/>
<path d="M30.7793 25.5958C33.0036 24.0738 35.3323 22.7104 37.7481 21.5156C39.8217 20.6276 43.3889 19.1362 45.5672 19.1362C46.5623 19.1953 47.5398 19.4246 48.4573 19.8141C49.4862 19.8141 49.1661 17.9439 45.3978 17.9439C42.1205 17.9439 36.6951 20.4174 34.0084 22.0233C32.6575 22.8591 31.3525 23.7671 30.0992 24.7432C30.0992 25.2553 30.4389 25.7653 30.7793 25.5958Z" fill="#2B2E3F"/>
<path d="M45.2279 20.666C46.1318 20.666 48.3794 22.7058 48.4577 22.7058C48.7364 22.9844 49.3194 22.4436 48.6279 21.6859C45.9849 18.7928 43.9286 20.666 45.2279 20.666Z" fill="#2B2E3F"/>
<path d="M44.0372 22.0256C44.6845 22.2042 45.2346 22.6322 45.567 23.2156C45.9075 23.5561 46.2449 24.4057 46.9273 24.066C47.6097 23.7263 46.7571 22.8759 46.4174 22.5362C44.4605 20.5794 43.3179 21.728 44.0372 22.0256Z" fill="#2B2E3F"/>
<path d="M69.0248 29.8455C83.4365 37.2271 95.46 48.5433 103.701 62.4816C108.249 70.0612 108.935 73.2217 109.821 74.5504C110.16 75.0603 110.67 74.7206 110.67 74.2107C107.87 66.4828 103.853 59.2523 98.7693 52.793C96.3225 49.554 93.5923 46.539 90.6112 43.7838C84.7898 38.1118 78.1419 33.3554 70.8943 29.6768C70.3844 29.5066 70.0447 29.1669 69.5347 28.9989C69.0248 28.9951 68.5149 29.5051 69.0248 29.8455Z" fill="#2B2E3F"/>
<path d="M75.1441 43.6113C81.3131 48.7593 86.9507 54.5125 91.9724 60.7846C96.9634 67.1255 101.292 73.9606 104.891 81.1832C106.677 84.7186 108.266 88.3504 109.65 92.0619C109.821 92.5719 109.99 92.9116 110.16 93.4177C110.16 93.588 110.5 93.7582 110.67 93.7582C110.84 93.7582 111.01 93.4177 111.01 93.2475C110.5 91.378 109.65 89.3383 108.97 87.4688C105.568 79.9834 105.844 80.2545 100.641 71.1504C95.7415 62.5758 87.4968 52.5188 77.0135 43.783C76.6595 43.4448 76.259 43.1587 75.8242 42.9334C75.3143 42.9334 74.8044 43.2739 75.1441 43.6113Z" fill="#2B2E3F"/>
<path d="M138.377 115.856C138.208 115.856 120.036 107.323 112.031 103.277C111.843 103.193 111.641 103.15 111.435 103.15C111.23 103.15 111.028 103.193 110.84 103.277C110.67 103.277 95.8816 109.905 90.7823 111.776C90.4953 111.85 90.2334 111.999 90.024 112.208C89.8146 112.418 89.6654 112.68 89.5922 112.967C89.5922 113.137 89.5922 113.476 89.9327 113.476C118.37 126.503 116.685 125.885 117.809 125.885C118.289 125.936 118.77 125.815 119.17 125.545L138.548 117.05C138.718 117.05 138.887 116.71 139.057 116.372C138.887 116.196 138.718 115.856 138.377 115.856ZM125.121 117.556C125.194 117.836 125.25 118.119 125.29 118.406C125.29 118.746 125.46 119.083 125.29 119.256C124.895 120.046 124.1 119.379 124.1 118.578C124.027 118.298 123.97 118.015 123.931 117.728C123.76 117.218 123.76 116.709 123.59 116.199C122.106 116.341 120.63 116.568 119.171 116.877C118.661 116.877 118.319 116.188 119.001 116.027C120.455 115.652 121.931 115.368 123.421 115.177C123.25 114.327 123.08 113.477 122.911 112.797C122.911 112.628 122.911 112.287 123.25 112.287C123.421 112.287 123.76 112.287 123.76 112.628C123.907 113.497 124.133 114.35 124.438 115.177C124.948 115.177 125.458 115.007 125.968 115.007C126.308 115.007 126.818 114.837 127.158 114.837C127.499 114.837 128.008 114.667 128.347 114.837C128.518 114.837 128.688 115.007 128.857 115.177C128.857 115.347 128.857 115.687 128.688 115.687C127.914 115.938 127.116 116.109 126.308 116.197C125.798 116.197 125.288 116.367 124.778 116.367C124.991 116.727 125.109 117.137 125.119 117.556H125.121ZM113.05 109.397C112.54 109.397 112.031 109.567 111.35 109.567C111.562 110.05 111.677 110.569 111.69 111.096C111.69 111.606 112.031 112.457 111.52 112.796C111.426 112.878 111.306 112.923 111.181 112.923C111.056 112.923 110.936 112.878 110.842 112.796C110.502 112.457 110.502 111.776 110.332 111.096C110.3 110.627 110.184 110.166 109.992 109.737C108.802 109.907 107.612 110.247 106.422 110.415C105.744 110.584 105.575 109.576 106.253 109.395C107.425 109.041 108.617 108.757 109.822 108.544C109.625 107.708 109.511 106.854 109.482 105.995C109.482 105.317 110.332 105.317 110.332 105.995C110.402 106.751 110.573 107.494 110.842 108.205C111.52 108.034 112.198 108.034 112.711 107.865C113.562 107.865 114.241 107.695 115.092 107.695C115.261 107.695 115.431 107.865 115.431 108.205C115.431 108.375 115.261 108.544 115.092 108.715C114.58 109.227 113.9 109.227 113.05 109.397ZM113.728 119.256C112.975 119.001 112.281 118.596 111.689 118.066C110.87 117.657 106.757 115.094 105.569 114.326C105.054 113.994 105.569 113.476 106.079 113.648C107.439 114.326 108.815 115.143 110.329 115.857C111.017 116.182 111.689 116.708 112.369 117.047C113.088 117.44 113.772 117.894 114.413 118.406C114.58 118.916 114.24 119.426 113.73 119.256H113.728Z" fill="#38A1FF"/>
<path d="M34.8588 129.795C34.1952 129.599 33.5102 129.485 32.819 129.455C31.615 129.311 30.4224 129.085 29.2496 128.777C28.3992 128.606 27.5496 128.099 27.5496 127.247C27.5496 126.906 27.719 126.569 27.719 126.227C28.3097 124.47 28.6532 122.639 28.7396 120.787C30.2785 105.642 31.7992 90.3574 30.9488 75.0618C30.9488 74.2265 30.2649 74.4013 30.2709 75.2321C30.4276 91.8897 29.3478 108.536 27.0404 125.034C25.5106 124.694 23.9808 124.524 22.451 124.184C23.6404 110.927 24.6602 97.4964 23.4709 84.2383C23.8106 84.068 23.9808 83.8978 24.3205 83.7283C24.4907 83.3879 23.9808 83.0504 23.6426 83.0504C21.093 83.2207 18.5433 83.2207 15.9937 83.3901C15.654 83.3901 15.1433 83.5604 15.1433 83.9001C14.998 84.3384 15.5041 84.819 17.3277 84.4469C15.1177 96.5157 12.8407 108.347 10.4613 120.416C9.03871 120.268 7.64137 119.935 6.30433 119.427C7.66464 105.488 11.4044 91.8894 11.9143 77.9512C12.9341 77.9512 13.9435 77.8661 14.9739 77.7809C15.3949 77.7463 16.9066 76.4884 15.1433 76.4252C14.0045 76.3815 12.9341 76.5946 11.7441 76.5946C11.7441 76.5946 11.7441 75.9167 11.2341 76.0847C10.8944 76.2549 10.9005 76.7626 10.8944 77.1046C10.6391 91.2206 6.64479 104.982 5.11501 118.921C5.11501 119.431 5.28448 120.28 5.7929 120.11C6.04631 120.895 6.13186 121.724 6.04402 122.544C5.95617 123.364 5.69688 124.156 5.28297 124.87C4.76374 125.623 4.31014 126.419 3.92718 127.25C2.90733 130.309 7.15698 130.479 9.02646 129.969C10.3868 129.459 11.7463 128.78 13.2761 128.78C14.4644 128.864 15.6573 128.864 16.8456 128.78C18.0357 128.609 19.2258 127.76 19.2258 126.57C19.2258 125.214 17.5242 124.372 16.1662 124.19C14.9746 124.031 13.6158 124.19 12.4265 123.68C11.8315 123.519 11.2934 123.195 10.8729 122.744C10.4523 122.294 10.166 121.735 10.0463 121.13C10.5562 121.64 11.0662 120.79 11.2364 120.11L17.8647 83.9038C19.225 83.9038 20.5846 83.7344 22.1143 83.7344C23.3948 107.727 20.2411 121.797 20.7586 123.85C20.928 124.528 21.4364 125.21 22.1143 125.21C22.3395 125.951 22.3954 126.732 22.2781 127.497C22.1608 128.262 21.8731 128.991 21.4364 129.629C20.919 130.474 20.2471 131.159 20.0807 132.009C20.0598 132.627 20.2506 133.234 20.6216 133.728C20.9925 134.223 21.5214 134.576 22.1204 134.729C24.2859 135.348 27.1021 133.658 29.2601 133.369C30.6159 133.187 32.1494 133.539 33.509 133.369C34.8693 133.029 36.2289 131.5 35.5495 130.309C35.5389 130.135 35.1985 129.965 34.8588 129.795ZM6.81125 120.956C7.80177 121.137 8.77047 121.422 9.70134 121.806V123.506C8.81734 123.952 7.90934 124.349 6.98148 124.695C7.00598 123.446 6.94912 122.197 6.81125 120.956ZM23.6396 126.055C24.49 126.226 25.5098 126.395 26.3595 126.565V127.925C25.5919 128.584 24.6447 128.998 23.6396 129.115V126.055Z" fill="#2B2E3F"/>
<path d="M22.6196 77.2702C23.47 77.6099 25.8494 77.2702 26.3593 77.2702C27.5494 77.2702 27.3792 76.2504 26.1891 76.2504C24.9928 76.2795 23.8 76.393 22.6196 76.5901C22.2799 76.5901 22.1097 76.9305 22.2799 77.1C22.3715 77.1924 22.4908 77.2522 22.6196 77.2702Z" fill="#2B2E3F"/>
<path d="M146.877 119.426C146.909 118.29 146.614 117.169 146.027 116.196C134.804 110.757 122.059 103.277 110.5 99.8779C101.322 103.957 91.9713 108.037 82.4537 112.627L82.114 115.346C82.6239 115.856 91.9728 120.786 94.8622 122.486C91.8026 124.355 87.556 126.565 82.9614 126.395C81.7713 125.545 72.4224 117.386 73.4422 123.505C77.3999 127.064 81.5421 130.411 85.8515 133.535C92.8202 139.314 100.639 133.364 106.079 127.925C108.289 128.944 110.303 130.022 112.539 130.984C113.422 131.371 114.275 131.826 115.088 132.344C115.606 132.672 116.108 132.854 116.618 133.194C117.128 133.364 117.468 133.872 117.974 133.872C118.314 133.872 118.484 133.702 118.652 133.702C118.991 133.532 119.162 133.532 119.501 133.362C134.468 126.948 141.479 123.28 145.169 121.803C145.509 121.633 145.679 121.633 146.019 121.464C146.306 121.21 146.532 120.895 146.681 120.543C146.829 120.19 146.896 119.808 146.877 119.426ZM93.6729 108.547C99.154 106.088 105.742 103.618 111.351 100.558C122.23 105.997 133.788 110.927 145.008 116.706C135.998 120.615 126.819 124.695 117.3 129.285C107.101 122.996 95.7126 118.746 84.4934 113.476H84.1537C83.9835 113.306 83.9835 113.476 83.3033 113.137C86.1934 111.777 90.129 110.136 93.6729 108.547ZM100.301 131.325C89.5919 139.824 82.2827 129.115 73.9537 122.655C73.9537 122.655 73.7842 121.977 74.2941 121.977C78.0331 122.487 83.4555 129.32 87.3827 131.326C88.5691 131.972 89.823 132.485 91.1217 132.856C88.3913 131.085 86.8487 130.283 83.8155 127.247C87.2155 127.247 90.785 126.057 94.3545 123.847C97.0744 125.207 100.474 126.906 103.703 128.606C102.733 129.7 101.583 130.619 100.302 131.325H100.301ZM112.202 129.625C103.191 124.185 89.9339 119.936 82.6277 114.667C82.4575 114.496 82.6277 113.647 82.6277 113.476C93.5064 118.916 105.405 123.335 116.624 129.795H116.794C116.766 130.367 116.823 130.94 116.964 131.495C116.964 131.664 117.134 132.005 117.134 132.173C115.6 131.325 113.9 130.474 112.2 129.628L112.202 129.625Z" fill="#2B2E3F"/>
</svg>
