<svg width="151" height="151" viewBox="0 0 151 151" fill="none" xmlns="http://www.w3.org/2000/svg">
<path d="M35.1381 54.8463C35.299 54.5236 35.4151 54.1805 35.4831 53.8264C37.049 54.1593 38.2293 53.2427 39.1286 52.0518C40.5596 50.146 41.6465 48.0048 42.3403 45.7248C42.355 45.6599 42.3445 45.5918 42.3109 45.5343C42.2774 45.4768 42.2232 45.4342 42.1594 45.4151C42.0957 45.3959 42.027 45.4017 41.9673 45.4313C41.9077 45.4608 41.8614 45.5119 41.838 45.5742C40.4475 48.7897 38.3453 54.145 35.242 53.0499C34.0821 52.6401 33.4057 51.5909 32.6728 50.6396C32.4928 50.4061 32.1953 50.6915 32.2714 50.9205C32.7706 52.1209 33.7038 53.089 34.885 53.6321C34.7789 53.9783 34.7102 54.3348 34.6801 54.6956C34.673 54.7522 34.6857 54.8095 34.7162 54.8577C34.7466 54.9058 34.7929 54.9419 34.847 54.9598C34.9012 54.9776 34.9598 54.976 35.0129 54.9553C35.066 54.9346 35.1103 54.896 35.1381 54.8463Z" fill="#2B2E3F"/>
<path d="M29.9716 51.1366C30.5415 50.0833 31.2356 49.1022 32.0391 48.2142C32.4436 47.7065 31.7469 47.415 31.4366 47.2184C30.8167 46.8252 30.8799 46.1466 31.1714 45.5237C31.6038 44.6017 32.9392 44.3185 33.1788 45.2713C33.2435 45.5282 33.4356 45.5553 33.706 45.422C34.8267 44.8911 35.7025 43.9525 36.1547 42.7978C37.8773 44.0383 44.0251 45.605 47.3076 42.9221C50.0719 40.6624 46.1439 39.1966 43.0723 39.9092C45.4569 38.1828 41.3504 36.6967 38.2517 38.5075C37.9105 35.5526 32.0889 34.8303 32.2659 43.9479C30.1312 44.1543 29.4918 47.2523 31.4223 47.9904C30.6378 48.8554 30.0114 49.8515 29.5716 50.9333C29.4654 51.2022 29.8277 51.4168 29.9716 51.1366Z" fill="#2B2E3F"/>
<path d="M35.218 49.7236C35.2034 50.0452 35.2912 50.3632 35.4686 50.6318C35.646 50.9004 35.904 51.1059 36.2055 51.2188C36.5188 51.2866 36.6514 51.0259 36.4186 50.7932C36.0172 50.3917 35.7829 50.2471 35.8085 49.625C35.8266 49.1851 35.2865 49.1934 35.218 49.7236Z" fill="#2B2E3F"/>
<path d="M40.6784 46.5489C40.8147 46.7696 41.0188 46.5768 40.9834 46.3116C40.9656 46.1755 40.9152 46.0457 40.8365 45.9332C40.7579 45.8207 40.6532 45.7288 40.5315 45.6654C40.1022 45.4884 39.9101 45.9606 40.2061 46.1233C40.3946 46.2264 40.5563 46.3721 40.6784 46.5489Z" fill="#2B2E3F"/>
<path d="M39.8597 47.8843C39.5351 47.6583 38.9438 48.6872 39.3377 48.8635C39.7316 49.0397 40.097 48.0553 39.8597 47.8843Z" fill="#2B2E3F"/>
<path d="M37.9403 49.8925C38.4894 49.696 38.9482 47.8521 38.683 47.5433C38.5324 47.3708 38.4119 47.4506 38.3064 47.9447C38.0933 48.936 37.9298 49.3299 37.7566 49.3344C37.5833 49.3389 37.2188 49.0535 37.0696 49.3826C36.9205 49.7118 37.6745 49.9867 37.9403 49.8925Z" fill="#2B2E3F"/>
<path d="M37.2253 46.6725C36.8269 46.1565 36.1979 47.4754 36.5753 47.727C36.9526 47.9786 37.4347 46.9444 37.2253 46.6725Z" fill="#2B2E3F"/>
<path d="M37.6753 44.7089C37.1654 44.4573 35.8789 44.7322 36.1937 45.2715C36.3391 45.5193 36.6238 45.2655 37.5495 45.2994C37.832 45.3099 37.9201 44.8301 37.6753 44.7089Z" fill="#2B2E3F"/>
<path d="M36.2174 85.9421C35.8724 85.9421 35.8649 86.5386 36.1857 86.5845C37.2184 86.7314 39.1881 86.4008 40.6019 87.3596C41.1871 87.7558 41.3001 88.1128 41.5532 88.2303C41.8062 88.3478 42.4239 88.1219 41.0636 86.8745C40.0708 85.9722 38.3384 85.82 36.2174 85.9421Z" fill="#2B2E3F"/>
<path d="M38.5178 92.159C39.9489 92.4783 41.3935 91.7937 43.9138 92.2343C44.3959 92.3179 44.4682 91.6604 43.9778 91.5715C40.4046 90.9245 39.521 92.2253 37.0369 90.6526C36.405 90.2526 35.8853 89.7284 35.2865 89.2877C35.2298 89.2404 35.1581 89.2147 35.0842 89.2153C35.0104 89.2158 34.9391 89.2426 34.8831 89.2908C34.8272 89.339 34.7901 89.4055 34.7786 89.4785C34.7671 89.5514 34.7818 89.6261 34.8202 89.6892C35.7021 90.9442 37.0207 91.8249 38.5178 92.159Z" fill="#2B2E3F"/>
<path d="M65.6458 111.286C65.4779 111.411 65.4651 111.77 65.682 111.767C66.7152 111.737 67.7466 111.872 68.737 112.168C69.0278 112.26 69.1385 111.908 69.0383 111.767C68.7687 111.301 66.1452 110.914 65.6458 111.286Z" fill="#2B2E3F"/>
<path d="M67.7899 105.636C67.2197 105.597 66.297 105.352 66.2835 105.829C66.2654 106.545 69.8627 106.522 69.3543 105.593C69.114 105.149 68.7691 105.705 67.7899 105.636Z" fill="#2B2E3F"/>
<path d="M61.8389 100.856C61.509 100.053 63.496 99.5081 64.0669 102.494C64.1822 103.096 64.683 102.803 64.6695 102.494C64.6223 101.647 64.2881 100.841 63.7219 100.209C62.2155 98.5463 60.4831 100.209 61.4013 101.137C61.579 101.301 61.9436 101.112 61.8389 100.856Z" fill="#2B2E3F"/>
<path d="M56.0027 115.44C56.7328 116.168 57.6499 116.679 58.6525 116.918C59.1956 117.054 59.3146 116.734 59.2468 116.569C59.069 116.135 57.6778 116.249 56.3959 115.079C56.1511 114.855 55.7699 115.203 56.0027 115.44Z" fill="#2B2E3F"/>
<path d="M63.2812 119.484C58.6294 119.129 56.6974 118.55 53.8984 119.692C52.6308 120.209 52.1803 119.893 53.6092 118.998C56.3208 117.298 60.1057 118.4 62.6945 117.034C62.751 117.003 62.7942 116.953 62.8162 116.892C62.8381 116.831 62.8373 116.765 62.8137 116.705C62.7902 116.645 62.7456 116.595 62.6883 116.566C62.631 116.536 62.5649 116.529 62.5024 116.544C59.5069 117.633 55.5555 116.95 53.1919 118.479C51.3676 119.66 52.1163 120.917 53.5414 120.39C57.492 118.931 58.8222 120.108 63.2767 119.989C63.6707 119.978 63.6624 119.512 63.2812 119.484Z" fill="#2B2E3F"/>
<path d="M58.1821 113.2C57.1667 115.697 60.8492 115.525 62.4257 112.967C62.5695 112.734 62.2976 112.325 61.924 112.622C61.5504 112.92 60.9953 113.941 59.7201 114.228C58.112 114.59 58.8321 113.388 59.0656 112.903C59.2494 112.521 58.5677 112.253 58.1821 113.2Z" fill="#2B2E3F"/>
<path d="M78.2886 69.0226C78.3459 69.0521 78.4118 69.0604 78.4746 69.0461C78.5375 69.0317 78.5932 68.9957 78.632 68.9442C78.6709 68.8928 78.6903 68.8293 78.6868 68.7649C78.6834 68.7006 78.6573 68.6395 78.6133 68.5925C77.5407 67.4627 75.1854 69.4881 74.6626 70.5998C74.4028 71.1542 74.7327 71.4961 75.0882 71.0517C75.7043 70.2887 77.1483 68.4117 78.2886 69.0226Z" fill="#2B2E3F"/>
<path d="M79.6151 70.8686C79.2095 70.7746 78.7837 70.8293 78.4151 71.0229C78.0466 71.2164 77.7598 71.5359 77.607 71.9231C77.5953 71.9796 77.6026 72.0383 77.6277 72.0902C77.6529 72.1421 77.6944 72.1842 77.746 72.21C77.7976 72.2358 77.8562 72.2438 77.9128 72.2328C77.9694 72.2218 78.0208 72.1923 78.0589 72.1491C78.2529 71.9235 78.4899 71.7387 78.756 71.6056C79.0221 71.4726 79.3121 71.3938 79.609 71.374C79.8666 71.3582 79.8576 70.9869 79.6151 70.8686Z" fill="#2B2E3F"/>
<path d="M78.3342 73.1616C78.3203 73.2153 78.3238 73.2721 78.3443 73.3236C78.3648 73.3752 78.4012 73.4189 78.4481 73.4484C78.4951 73.478 78.5503 73.4918 78.6056 73.4879C78.661 73.484 78.7137 73.4626 78.756 73.4267C79.0129 73.1412 79.2614 72.6238 79.6516 72.6238C80.2451 72.6238 79.5356 73.7265 79.7036 73.8523C80.1073 74.1536 80.67 72.9898 80.2896 72.3669C79.8083 71.5806 78.6611 72.254 78.3342 73.1616Z" fill="#2B2E3F"/>
<path d="M78.983 70.215C79.4244 70.3317 79.4892 69.8685 79.099 69.6568C78.4964 69.3299 77.176 69.9174 76.9072 70.7867C76.8748 70.8906 76.932 71.4254 77.4977 70.871C77.9579 70.4198 78.3345 70.0425 78.983 70.215Z" fill="#2B2E3F"/>
<path d="M74.326 73.7919C73.74 72.0369 74.1414 70.6683 72.8806 69.1107C72.3971 68.5056 71.7917 68.009 71.1037 67.6532C71.0436 67.6271 70.9762 67.623 70.9132 67.6414C70.8503 67.6597 70.7958 67.6996 70.7591 67.7539C70.7225 67.8083 70.706 67.8738 70.7125 67.939C70.7191 68.0042 70.7482 68.0651 70.7949 68.1112C72.1605 69.4587 72.9212 69.5732 73.2052 72.0535C73.3641 73.4552 73.9878 75.5499 75.0039 76.566C75.2886 76.8507 75.6675 76.4425 75.5055 76.1284C75.0131 75.4038 74.6166 74.6184 74.326 73.7919Z" fill="#2B2E3F"/>
<path d="M125.411 108.768C124.556 107.281 123.857 105.838 122.159 106.158C119.348 106.689 120.456 107.364 120.709 107.299C123.731 106.556 122.814 105.725 127.334 113.852C128.281 115.554 129.281 116.9 129.534 118.87C129.586 119.28 124.536 116.075 121.488 112.803C121.122 112.41 120.64 112.993 120.999 113.382C122.573 115.087 124.332 116.612 126.242 117.93C127.045 118.487 129.279 120.233 130.112 119.512C131.037 118.712 128.974 115.181 128.534 114.386C127.497 112.504 126.478 110.621 125.411 108.768Z" fill="#2B2E3F"/>
<path d="M129.055 96.0939C126.297 94.9807 123.362 93.6512 120.571 92.6849C118.516 91.9738 116.809 93.3153 116.364 95.2345C116.339 95.315 116.347 95.4018 116.385 95.4768C116.423 95.5517 116.489 95.6089 116.569 95.6364C116.648 95.6638 116.735 95.6594 116.812 95.6241C116.888 95.5888 116.948 95.5253 116.978 95.4469C117.568 93.9902 118.583 92.8295 120.31 93.4396C123.087 94.4188 125.96 95.7181 128.717 96.8291C129.958 97.3277 130.374 97.571 128.035 97.8971C125.413 98.2617 122.732 98.1012 120.097 98.7919C120.012 98.826 119.942 98.89 119.901 98.972C119.859 99.0539 119.849 99.1481 119.873 99.2369C119.896 99.3257 119.951 99.403 120.027 99.4542C120.103 99.5054 120.195 99.527 120.286 99.515C123.121 98.7731 126.048 99.1166 128.873 98.5758C131.21 98.1276 131.371 97.0287 129.055 96.0939Z" fill="#2B2E3F"/>
<path d="M43.1593 119.001C41.8208 117.895 37.4552 116.429 35.7778 115.931C35.2762 115.78 35.0073 116.373 35.5134 116.529C37.9262 117.377 40.2823 118.378 42.5673 119.527C42.5673 119.684 33.9234 119.895 29.5833 119.636C28.7804 119.588 28.7164 119.576 28.9009 118.403C29.0266 117.692 29.2028 116.99 29.4282 116.303C29.5231 115.996 29.1646 115.669 28.9627 116.01C28.5234 116.768 28.2255 117.599 28.0837 118.464C27.8698 119.706 28.1522 120.271 29.0388 120.402C31.4001 120.758 40.2813 120.455 42.8136 120.323C43.9125 120.265 43.9125 119.625 43.1593 119.001Z" fill="#2B2E3F"/>
<path d="M16.8026 115.553C16.3507 115.338 16.0908 115.957 16.5495 116.176C17.0941 116.435 23.3729 119.346 23.2177 119.604C23.1364 119.74 12.9845 119.666 12.0852 119.644C10.6917 119.61 8.99701 119.941 9.56418 118.199C9.8976 117.355 10.2747 116.53 10.694 115.726C10.8296 115.408 10.2993 114.045 8.86746 117.922C7.92443 120.476 10.2925 120.338 12.0475 120.399C12.9627 120.43 17.8202 120.529 21.0861 120.491C23.3669 120.464 23.9694 120.335 24.1133 120.115C25.1166 118.606 17.845 116.049 16.8026 115.553Z" fill="#2B2E3F"/>
<path d="M53.618 107.861C56.9133 106.718 57.4459 102.837 55.3323 100.233C53.374 97.8225 47.6322 96.8607 44.4107 101.907C41.4882 106.488 43.2696 111.72 46.061 114.561C47.6864 116.218 47.8597 115.449 47.3776 114.28C46.2026 111.433 46.8436 107.226 48.646 106.572C50.4485 105.917 50.337 108.999 53.618 107.861Z" fill="#2B2E3F"/>
<path d="M65.4336 105.111C64.2352 102.794 59.4997 100.176 56.7015 101.586C58.0144 104.842 56.5886 108.009 52.9596 108.519C54.0231 113.541 61.483 112.511 63.7434 111.687C66.5257 110.672 66.6319 107.427 65.4336 105.111Z" fill="#2B2E3F"/>
<path d="M106.5 108.222C106.15 108.944 105.739 109.634 105.271 110.285C105.105 110.516 104.846 110.361 104.962 110.125C106.85 106.368 108.821 101.754 108.704 97.483C108.501 90.0879 101.323 83.9771 89.6104 89.0515C95.0983 95.3265 93.4329 104.137 91.0957 111.912C90.2182 114.831 91.348 120.342 95.9163 120.342C101.432 120.342 117.74 114.18 120.293 113.722C120.257 112.409 119.96 107.889 119.49 106.741C114.827 106.994 110.483 107.258 106.5 108.222Z" fill="#2B2E3F"/>
<path d="M115.983 106.315C117.256 104.785 119.841 100.955 120.302 100.433C119.315 99.4819 116.119 96.286 115.666 95.6759C113.555 97.4428 111.349 99.0928 109.058 100.619C108.612 103.042 107.853 105.397 106.798 107.623C109.823 106.962 112.893 106.525 115.983 106.315Z" fill="#2B2E3F"/>
<path d="M23.9893 84.575C25.672 87.4824 27.2771 92.8092 27.2281 95.126C27.1641 98.2331 25.791 101.714 24.5828 104.561C26.3371 108.507 28.324 113.223 28.7541 115.244C31.2945 115.376 33.8401 115.375 36.3804 115.242C36.3804 106.491 34.4289 95.5704 32.0118 90.1744C28.5636 87.5487 24.7455 84.4575 21.9752 79.4787C15.5518 78.8686 8.39319 74.2597 7.27315 72.2524C6.16894 87.4478 13.6205 94.4301 14.098 96.7424C14.5756 99.0548 11.1839 111.697 9.96741 114.548C12.5237 114.848 15.0981 114.969 17.6713 114.909C21.2114 110.248 26.7099 100.5 26.5035 94.534C26.392 91.2304 24.918 87.9178 23.6172 84.7219C23.6039 84.674 23.6087 84.6229 23.6309 84.5783C23.653 84.5338 23.6909 84.4991 23.7371 84.4809C23.7833 84.4626 23.8347 84.4621 23.8813 84.4795C23.9278 84.4969 23.9663 84.5309 23.9893 84.575Z" fill="#2B2E3F"/>
<path d="M146.334 121.093C97.9974 121.626 52.0362 121.244 4.18887 121.137C3.5539 121.137 3.67065 122.019 4.29733 122.028C51.7243 122.734 98.6437 122.572 146.447 122.004C147.093 121.997 146.977 121.086 146.334 121.093Z" fill="#38A1FF"/>
<path d="M69.7776 62.8477C70.4841 63.3968 70.7048 62.9117 70.2514 62.2654C69.5483 61.4526 68.7052 60.7725 67.762 60.2574C67.1413 59.9252 67.0163 60.4005 67.4532 60.8434C68.1825 61.5624 68.9591 62.232 69.7776 62.8477Z" fill="#38A1FF"/>
<path d="M75.3896 60.2498C75.3896 59.5432 75.1365 56.4084 74.7953 56.0107C74.7677 55.9815 74.7346 55.9582 74.6978 55.942C74.6611 55.9259 74.6215 55.9172 74.5813 55.9166C74.5412 55.916 74.5013 55.9234 74.4641 55.9384C74.4269 55.9533 74.393 55.9756 74.3645 56.0039C74.0526 56.3052 74.5656 59.8988 74.6552 60.3341C74.8367 61.2154 75.3881 61.0527 75.3896 60.2498Z" fill="#38A1FF"/>
<path d="M80.3083 61.4541C80.9519 60.7107 81.5553 59.9335 82.116 59.1259C82.5258 58.555 81.9473 58.0669 81.5097 58.6401C80.8981 59.4392 80.2925 60.2376 79.7668 61.073C79.3999 61.6612 79.9167 61.8925 80.3083 61.4541Z" fill="#38A1FF"/>
<path d="M126.54 86.0045C125.783 88.2735 125.158 90.5845 124.669 92.9258C124.594 93.3265 125.143 93.3995 125.26 93.0425C125.914 91.0352 126.621 88.0856 127.327 85.8636C128.136 83.3162 128.758 82.2309 131.788 82.9411C134.123 83.4872 140.309 85.5925 141.924 87.0439C143.32 88.298 142.904 90.2119 142.452 91.8057C139.815 101.167 137.184 110.526 134.374 119.68C133.35 119.415 132.341 119.123 131.311 118.877C130.509 118.686 130.206 119.205 131.09 119.532C131.881 119.803 132.685 120.032 133.5 120.218C134.574 120.49 134.879 120.62 135.182 119.624C137.65 111.533 140.011 103.194 142.333 94.9451C143.054 92.3804 144.565 88.9669 142.831 86.8955C141.249 85.008 134.946 82.9946 132.368 82.3069C128.385 81.2434 127.603 82.673 126.54 86.0045Z" fill="#38A1FF"/>
<path d="M118.279 114.754C118.206 114.737 118.129 114.748 118.063 114.785C117.997 114.822 117.947 114.881 117.923 114.953C117.898 115.024 117.901 115.102 117.931 115.171C117.96 115.24 118.014 115.296 118.082 115.328C118.809 115.597 122.065 116.746 122.831 116.878C123.233 116.947 123.349 116.326 122.968 116.195C121.418 115.662 119.845 115.224 118.279 114.754Z" fill="#38A1FF"/>
<path d="M61.8881 71.8328C65.2889 72.9966 69.223 74.0925 72.6719 75.1206C72.7197 75.1349 72.7697 75.1396 72.8193 75.1345C72.8688 75.1294 72.9169 75.1146 72.9607 75.0909C73.0045 75.0672 73.0432 75.0351 73.0747 74.9965C73.1061 74.9579 73.1296 74.9134 73.1438 74.8657C73.1581 74.818 73.1628 74.7679 73.1577 74.7183C73.1526 74.6688 73.1378 74.6207 73.1141 74.5769C73.0904 74.5331 73.0583 74.4944 73.0197 74.463C72.981 74.4315 72.9366 74.408 72.8889 74.3938C69.4414 73.3702 65.4094 72.1055 62.0486 71.2664C61.98 71.2622 61.912 71.2816 61.8559 71.3214C61.7998 71.3612 61.759 71.4189 61.7403 71.485C61.7216 71.5512 61.726 71.6217 61.7529 71.685C61.7798 71.7483 61.8275 71.8004 61.8881 71.8328Z" fill="#38A1FF"/>
<path d="M124.168 91.3479C114.649 87.6692 104.99 84.3595 95.2341 81.3113C97.7115 73.7957 100.138 65.9683 102.023 58.2425C102.131 57.8011 101.449 57.7085 101.328 58.1386C99.1829 65.8244 96.9399 73.4828 94.5999 81.1117C91.0184 80.0233 87.0474 78.5944 83.4184 77.8231C83.1096 77.7576 82.9371 78.2532 83.246 78.3654C86.7597 79.6459 90.7698 80.6861 94.3793 81.7941C94.0048 82.927 93.6532 84.0673 93.3247 85.2144C93.2494 85.4879 93.6938 85.6159 93.7985 85.3508C94.2322 84.2425 94.634 83.122 95.0037 81.9907C104.711 85.0555 114.361 88.2981 123.841 91.9994C124.295 92.1787 124.61 91.5159 124.168 91.3479Z" fill="#38A1FF"/>
<path d="M55.8504 58.821C58.7126 53.901 60.1219 51.5148 62.4787 48.065C66.5091 42.1802 70.7498 41.1046 77.2365 43.0908C93.9081 48.1969 110.669 54.1548 127.264 59.6397C132.483 61.3646 135.876 62.639 136.634 68.8056C137.066 72.3103 136.458 77.3569 135.831 81.6525C135.816 81.7013 135.812 81.7527 135.818 81.8033C135.825 81.8539 135.842 81.9027 135.868 81.9463C135.895 81.9899 135.93 82.0273 135.972 82.0563C136.014 82.0852 136.062 82.1048 136.112 82.114C136.162 82.1231 136.214 82.1216 136.264 82.1094C136.313 82.0971 136.36 82.0746 136.4 82.0432C136.44 82.0117 136.473 81.9721 136.497 81.927C136.521 81.8819 136.535 81.8322 136.538 81.7813C137.14 78.0821 137.467 74.3435 137.517 70.596C137.339 61.5913 132.459 60.5308 125.128 58.1099L79.5692 43.0629C71.7681 40.4854 66.9731 40.2512 61.9439 47.5672C59.5537 51.0456 57.3765 54.6657 55.4241 58.4075C55.2659 58.7035 55.6772 59.1177 55.8504 58.821Z" fill="#38A1FF"/>
<path d="M123.807 99.8915C123.764 99.6377 123.345 99.3809 122.979 100.343C122.323 101.886 121.866 103.506 121.618 105.164C121.587 105.477 122.02 105.477 122.127 105.228C122.29 104.757 123.853 100.16 123.807 99.8915Z" fill="#38A1FF"/>
<path d="M39.3179 89.3164C49.6152 93.1887 60.6535 96.8644 71.1037 100.502C71.533 100.652 71.6738 99.9556 71.2483 99.8072C60.8321 96.1662 49.1534 92.1779 39.5077 88.7583C39.1967 88.6476 39.0001 89.1974 39.3179 89.3164Z" fill="#38A1FF"/>
<path d="M40.2612 84.6953C42.6828 77.1232 44.8226 69.5738 47.5674 61.9881C48.484 59.4543 49.1732 59.2728 51.9835 59.7601C53.9908 60.1081 59.3823 61.3095 60.7276 62.8031C62.0728 64.2967 61.3143 66.4811 60.7878 68.1185C58.478 75.2992 56.1641 82.4748 53.8462 89.6455C53.6955 90.1192 54.4156 90.4085 54.5685 89.9309C56.8171 82.9185 59.0748 75.9088 61.3414 68.9019C61.9041 67.1552 62.6724 65.1072 61.9078 63.2806C60.7464 60.5096 53.1833 58.8947 50.4258 58.8088C47.7956 58.7259 47.3632 60.3627 46.6115 62.4619C44.205 69.1836 41.324 77.89 39.7106 84.5432C39.6315 84.8716 40.1632 85.0004 40.2612 84.6953Z" fill="#38A1FF"/>
<path d="M20.7654 39.4533C22.0248 39.4685 23.2821 39.346 24.5149 39.088C24.5551 39.0588 24.5871 39.0197 24.6078 38.9745C24.6285 38.9294 24.6373 38.8796 24.6333 38.8301C24.6293 38.7806 24.6126 38.7329 24.5849 38.6917C24.5572 38.6504 24.5193 38.617 24.475 38.5946C23.2159 38.4861 21.9487 38.5184 20.6968 38.691C20.0468 38.8108 20.095 39.4194 20.7654 39.4533Z" fill="#38A1FF"/>
<path d="M26.0125 34.0175C26.2016 34.0529 26.4584 33.9294 26.414 33.7004C26.3537 33.1264 23.9284 30.8849 23.4312 30.3682C23.1412 30.0669 22.7134 30.5188 22.9793 30.8201C23.3906 31.2795 25.547 33.9309 26.0125 34.0175Z" fill="#38A1FF"/>
<path d="M31.5445 32.0306C31.5807 32.061 31.6234 32.0826 31.6692 32.0938C31.7151 32.1051 31.7629 32.1057 31.809 32.0956C31.8551 32.0855 31.8983 32.0649 31.9353 32.0355C31.9722 32.0061 32.0019 31.9686 32.0221 31.9259C32.248 31.4529 31.6824 28.7843 31.4948 28.3105C31.4278 28.1455 30.7755 27.7765 30.8922 28.8483C30.957 29.4373 31.1875 31.6488 31.5445 32.0306Z" fill="#38A1FF"/>
<path d="M82.8013 91.3403C82.8413 89.3646 81.7732 78.6373 80.391 75.5981C78.5747 76.1539 76.8244 76.9063 75.1713 77.8419C76.2356 80.958 73.7989 96.31 72.0123 100.867C74.699 97.009 80.7496 92.5605 82.8013 91.3403Z" fill="#38A1FF"/>
<path d="M80.878 106.684C84.2419 107.351 88.0034 109.808 89.6658 112.861C89.9188 109.705 96.5871 98.9539 88.8628 89.2465C82.2827 91.7012 74.493 97.9936 71.3295 103.207C68.7151 107.515 68.9945 111.181 69.8479 112.911C72.6013 112.366 75.4122 112.169 78.2146 112.325C78.488 112.349 78.4798 112.697 78.2146 112.683C73.2193 112.568 68.2509 113.446 63.597 115.264C64.1518 116.851 64.5171 118.497 64.6854 120.17C67.1145 120.396 85.3694 120.857 87.5688 119.944C90.0748 118.904 90.4197 116.7 89.6025 114.423C88.133 110.32 83.817 107.928 80.7944 107.06C80.7654 107.059 80.737 107.052 80.7111 107.039C80.6852 107.026 80.6626 107.007 80.6448 106.984C80.627 106.961 80.6144 106.935 80.6081 106.906C80.6018 106.878 80.6018 106.849 80.6081 106.821C80.6144 106.792 80.627 106.766 80.6448 106.743C80.6626 106.72 80.6852 106.701 80.7111 106.688C80.7369 106.675 80.7654 106.668 80.7944 106.667C80.8234 106.666 80.8522 106.672 80.8787 106.683L80.878 106.684Z" fill="#38A1FF"/>
<path d="M21.6046 78.6494C19.3066 73.6784 18.2406 68.2269 18.4968 62.7565C18.5187 62.4635 18.8734 62.4628 18.8734 62.7565C18.7383 68.2588 19.925 73.7133 22.3337 78.6622C23.743 81.5771 31.1464 89.6591 34.0447 90.1811C34.5296 88.0161 35.2102 85.8996 36.0784 83.8579C33.4248 82.3959 30.47 76.2504 30.1807 73.0741C29.86 68.6403 30.1423 64.1836 31.0198 59.8257C31.0793 59.5727 31.4228 59.6051 31.3927 59.8694C30.8042 63.9782 30.5975 68.1326 30.775 72.2794C33.0347 69.1031 33.4806 67.7646 35.0586 64.5108C35.1753 64.2697 35.4947 64.3134 35.4352 64.5951C34.993 66.564 32.1911 71.9058 30.8405 73.0018C31.435 77.0156 33.4422 80.6856 36.501 83.3517C36.7149 83.5272 36.7435 83.653 36.6576 83.8496C36.4729 84.2872 36.3055 84.7319 36.156 85.1828C37.1352 85.1828 37.6971 85.2144 38.9662 85.2792C39.2954 83.7449 39.6005 82.3642 40.2866 79.9268C35.2243 75.1334 42.8205 59.123 36.0069 54.4455C34.7746 58.4602 28.7805 54.4455 29.066 50.2622C17.3083 47.4527 7.91415 60.1135 7.23099 70.9169C10.0503 75.8632 18.6211 78.1274 21.6046 78.6494Z" fill="#38A1FF"/>
</svg>
