<svg width="151" height="151" viewBox="0 0 151 151" fill="none" xmlns="http://www.w3.org/2000/svg">
<path d="M104.634 73.2976C102.525 74.6383 100.285 75.8269 97.7042 75.1889C96.6538 74.8618 95.7086 74.2628 94.9644 73.4526C94.2202 72.6424 93.7035 71.6498 93.4666 70.5755C92.4189 66.8297 93.56 58.8215 94.5731 55.0163C94.7132 54.5071 93.8297 54.2262 93.6692 54.7414C92.4706 59.2059 91.9574 63.8266 92.147 68.4454C92.4633 72.5014 94.7403 76.4415 99.2709 76.3707C98.9786 77.2377 98.4868 79.5553 98.7851 80.469C98.9026 80.8373 99.3236 80.8026 99.4697 80.469C99.6383 79.0514 99.9204 77.6497 100.313 76.2773C102.137 75.9927 103.836 75.1783 105.201 73.9356C105.564 73.6019 105.013 73.0754 104.616 73.3503L104.634 73.2976ZM117.219 51.605C116.593 50.2356 114.995 48.0927 113.122 47.3907C110.347 41.2558 117.331 32.0296 128.02 38.8146C137.333 44.7266 132.452 57.0085 130.361 60.6315C128.271 64.2545 128.957 67.4632 130.807 70.519C132.656 73.5748 129.05 71.8748 126.589 68.3294C121.186 60.6315 126.525 53.2967 124.516 51.0898C122.702 49.0938 121.115 51.7511 117.193 51.605H117.219ZM109.136 60.7844C110.499 59.0287 113.409 57.7813 112.549 61.9557C111.641 66.3868 110.406 64.8827 109.78 66.4042C109.393 67.3291 107.836 78.9369 108.14 80.9337C108.153 81.0421 108.205 81.142 108.286 81.2146C108.368 81.2871 108.473 81.3272 108.582 81.3272C108.691 81.3272 108.797 81.2871 108.878 81.2146C108.96 81.142 109.012 81.0421 109.024 80.9337C109.346 78.4865 109.206 75.4488 110.195 70.3382C114.363 70.1213 117.67 63.7852 117.7 58.3026C117.7 52.5955 113.151 48.3511 109.44 47.1806C110.611 49.5216 110.611 53.0338 110.072 54.1403C109.533 55.2468 108.685 55.0306 106.56 54.8897C106.606 57.9983 108.784 61.2168 109.112 60.7965L109.136 60.7844ZM91.5738 53.2131C93.4568 53.2131 106.882 53.3773 108.55 53.711C110.217 54.0446 110.494 43.7301 102.339 43.5606C94.1852 43.3912 90.105 53.2161 91.5738 53.2131Z" fill="#2B2E3F"/>
<path d="M95.8528 59.5411C95.1155 59.4176 94.7825 61.4437 95.3904 61.5612C95.9982 61.6787 96.5089 59.6548 95.8528 59.5411ZM97.2086 55.2681C96.7066 55.2642 96.2108 55.3795 95.7619 55.6044C95.3131 55.8294 94.924 56.1576 94.6266 56.5621C94.3803 56.9659 94.598 57.5805 95.0891 57.112C95.3471 56.8458 95.6596 56.6385 96.0051 56.5042C96.3506 56.3699 96.7211 56.3118 97.0911 56.3339C97.2251 56.3359 97.355 56.2879 97.4555 56.1992C97.556 56.1106 97.6198 55.9876 97.6345 55.8544C97.6492 55.7212 97.6137 55.5873 97.5349 55.4789C97.4562 55.3705 97.3398 55.2953 97.2086 55.2681ZM104.35 57.8494C104.177 56.6819 102.843 55.2387 101.423 55.3969C100.838 55.4617 100.539 56.5674 101.423 56.6435C102.805 56.7188 103.296 57.6445 103.765 58.2478C103.991 58.5167 104.405 58.1959 104.353 57.8471L104.35 57.8494ZM99.6671 67.901C100.698 68.539 100.399 69.0715 100.159 69.1416C99.3192 69.4926 99.3305 68.4569 99.6702 67.901H99.6671ZM101.189 68.6091C100.858 67.199 98.2149 66.1566 98.1336 67.0808C98.1042 67.4574 98.7188 67.5086 99.0231 67.5907C98.5373 68.3575 98.4786 70.3362 100.334 69.8383C100.473 69.8178 100.606 69.7691 100.725 69.6952C100.844 69.6213 100.947 69.5238 101.028 69.4087C101.108 69.2936 101.164 69.1633 101.192 69.0258C101.22 68.8883 101.22 68.7465 101.192 68.6091H101.189ZM97.8489 64.7014C97.2636 64.4754 97.1883 64.5959 96.6784 64.1515C96.9601 63.8879 98.3234 62.395 97.6975 62.0147C97.229 61.751 96.9126 62.8048 96.2106 63.5128C95.5086 64.2208 95.8122 64.6193 96.597 65.0946C97.7675 65.8109 98.3535 64.8972 97.8489 64.7014ZM100.835 59.4741C100.203 59.4741 99.8743 61.5522 100.63 61.6109C101.385 61.6697 101.534 59.4771 100.835 59.4771V59.4741Z" fill="#2B2E3F"/>
<path d="M107.537 130.196C106.619 129.3 105.36 129.125 104.089 128.973C100.712 128.581 101.163 128.253 98.7218 126.246C97.732 125.463 96.6873 124.753 95.5959 124.12C95.494 124.069 95.3765 124.058 95.2667 124.089C95.1569 124.12 95.0626 124.191 95.0024 124.287C94.9422 124.384 94.9204 124.5 94.9413 124.613C94.9622 124.725 95.0243 124.825 95.1154 124.894C96.2106 125.548 97.2469 126.296 98.2126 127.129C100.42 129.195 100.226 129.653 103.873 130.11C104.982 130.232 106.07 130.495 107.112 130.894C107.502 131.051 107.83 130.483 107.537 130.196ZM111.634 138.656C110.885 138.43 108.328 139.358 105.044 137.484C104.646 137.259 103.451 136.314 102.819 136.489C101.462 137.136 100.292 138.117 99.4185 139.34C98.7625 140.762 99.524 142.233 100.53 143.245C100.887 143.613 101.52 143.019 101.18 142.625C98.7858 139.902 101.262 138.82 103.176 137.491C104.2 138.349 105.387 138.993 106.665 139.383C107.944 139.773 109.287 139.902 110.617 139.761C112.549 139.499 111.916 138.75 111.634 138.667V138.656ZM99.5179 135.337C100.422 135.418 99.2249 136.508 99.0201 136.654C96.9593 138.251 96.4147 140.909 98.0311 142.853C98.37 143.263 97.6793 143.832 97.3223 143.438C94.091 139.99 97.6326 135.153 99.5179 135.325V135.337ZM97.2929 133.244C94.2846 134.168 91.7847 138.049 92.1884 141.235C92.2025 141.344 92.2558 141.444 92.3383 141.516C92.4208 141.588 92.5268 141.628 92.6365 141.628C92.7463 141.628 92.8523 141.588 92.9348 141.516C93.0173 141.444 93.0706 141.344 93.0847 141.235C93.2715 136.288 96.4915 135.381 97.7027 133.911C97.7564 133.846 97.7881 133.766 97.7932 133.681C97.7982 133.597 97.7764 133.513 97.7308 133.442C97.6852 133.371 97.6183 133.317 97.5396 133.286C97.4609 133.256 97.3745 133.251 97.2929 133.273V133.244ZM101.836 130.199C101.908 130.235 101.969 130.29 102.01 130.36C102.05 130.429 102.07 130.509 102.066 130.59C102.061 130.67 102.033 130.747 101.985 130.812C101.937 130.877 101.871 130.925 101.795 130.953C100.794 131.211 99.658 130.853 98.1539 131.316C96.3974 131.854 89.8534 135.609 88.167 136.584C88.07 136.645 87.9528 136.666 87.8406 136.642C87.7284 136.618 87.63 136.551 87.5665 136.455C87.503 136.36 87.4795 136.243 87.5009 136.13C87.5223 136.018 87.587 135.918 87.6811 135.852C89.4376 134.682 96.0931 130.655 98.1652 130.156C99.3674 129.819 100.641 129.835 101.835 130.202L101.836 130.199Z" fill="#2B2E3F"/>
<path d="M50.6557 59.2782C49.7804 55.3642 48.3825 51.5858 46.4994 48.0447C46.2418 47.5408 45.5278 48.0447 45.7621 48.5072C47.37 52.0866 48.6343 55.8107 49.5379 59.6292C49.6017 59.7508 49.7061 59.8462 49.833 59.8986C49.9599 59.9511 50.1012 59.9573 50.2322 59.9163C50.3632 59.8752 50.4757 59.7894 50.5499 59.6739C50.6241 59.5584 50.6554 59.4205 50.6384 59.2842L50.6557 59.2782ZM45.3869 72.0076C43.2561 69.3035 44.1698 67.1553 43.2448 67.1199C41.6932 67.0612 43.8301 73.1088 45.2032 73.1901C45.6551 73.1901 46.0114 72.8037 45.3847 72.0196L45.3869 72.0076ZM56.4103 57.0826C53.1436 61.0287 53.3605 61.6373 53.0148 66.32C52.8445 67.6123 52.8054 68.9185 52.898 70.2187C52.95 70.6231 53.5706 70.599 53.6761 70.2187C54.0798 68.7876 54.1913 64.9153 54.3495 63.1942C54.5423 61.046 55.7602 59.2895 57.061 57.6272C57.3623 57.2505 56.7161 56.7233 56.4118 57.0946L56.4103 57.0826ZM50.6858 63.2996C50.9871 63.8849 50.4395 63.6921 48.9293 64.9914C47.1736 66.5016 47.5652 67.544 46.8866 67.2156C45.5986 66.6303 49.9657 61.9476 50.6971 63.2989L50.6858 63.2996ZM43.1537 65.5766C43.1537 65.5299 43.1537 65.5066 43.119 65.4832C43.0249 65.2572 41.2104 63.7267 42.2347 61.7307C42.2735 61.6775 42.3007 61.6168 42.3146 61.5525C42.3284 61.4882 42.3287 61.4218 42.3153 61.3574C42.3018 61.293 42.2751 61.2321 42.2367 61.1787C42.1983 61.1252 42.1492 61.0804 42.0924 61.0472C42.0357 61.0139 41.9726 60.9929 41.9072 60.9855C41.8419 60.9781 41.7757 60.9845 41.713 61.0043C41.6502 61.024 41.5923 61.0567 41.543 61.1002C41.4936 61.1438 41.454 61.1971 41.4265 61.2569C40.256 63.1648 41.4265 66.0571 42.82 66.1618C42.8877 66.1599 42.9538 66.1406 43.012 66.1059C43.0702 66.0712 43.1185 66.0223 43.1525 65.9636C43.1864 65.905 43.2048 65.8387 43.206 65.771C43.2071 65.7032 43.1909 65.6363 43.1589 65.5766H43.1537ZM45.75 63.8502C45.7797 63.9117 45.7951 63.9791 45.795 64.0474C45.7949 64.1157 45.7793 64.183 45.7494 64.2444C45.7196 64.3058 45.6762 64.3596 45.6225 64.4019C45.5689 64.4441 45.5064 64.4736 45.4397 64.4882C44.1931 64.6343 41.9274 61.7488 43.5491 58.5054C43.5903 58.3855 43.6773 58.2869 43.7912 58.2313C43.905 58.1756 44.0363 58.1675 44.1562 58.2086C44.2761 58.2498 44.3747 58.3369 44.4303 58.4507C44.486 58.5646 44.4941 58.6959 44.453 58.8157C43.1454 62.5268 45.4525 63.2702 45.75 63.8502ZM48.0917 61.754C49.1282 61.8889 47.9863 63.61 46.5168 62.3393C45.161 61.1688 45.2702 58.0957 46.0016 56.3889C46.0526 56.2768 46.1438 56.1879 46.2573 56.1398C46.3707 56.0918 46.498 56.088 46.614 56.1293C46.7301 56.1705 46.8264 56.2538 46.884 56.3627C46.9416 56.4716 46.9562 56.5981 46.925 56.7173C46.5579 57.7552 46.4513 58.8674 46.6147 59.9561C46.8022 61.2501 47.0305 61.6245 48.0729 61.7638L48.0917 61.754Z" fill="#2B2E3F"/>
<path d="M42.513 92.5704C40.874 95.633 35.4245 95.6586 35.1842 90.6159C35.1842 90.6159 35.5352 87.771 34.3557 88.9475C31.0076 92.2903 21.7408 90.1187 20.0024 84.3114C18.9893 80.9107 19.0187 77.4858 21.0034 74.4714C21.6939 73.5809 22.4377 72.733 23.2307 71.9323C23.7398 71.3471 22.8541 69.9303 20.3037 73.4192C16.8502 78.1019 17.5522 86.4732 22.6454 89.5757C25.5724 91.3834 30.9519 92.7482 34.0423 90.5827C33.8201 95.9562 41.0262 97.7127 43.3559 93.0939C43.6255 92.5607 42.8527 92.0281 42.5597 92.572L42.513 92.5704ZM16.646 24.4481C13.2212 17.5117 4.5283 21.4623 3.84966 25.8039C2.93751 31.6541 9.77822 34.4877 14.7306 31.5193C17.5348 29.8336 18.0448 27.2869 16.6332 24.4247L16.646 24.4481ZM14.7547 30.0738C10.7875 33.0709 4.18333 30.8271 5.10225 25.9756C5.6875 23.0493 9.44003 21.1874 12.6246 22.1123C15.1991 22.8731 17.8128 27.763 14.754 30.0738H14.7547ZM116.868 19.5657C115.282 17.984 112.256 18.2137 111.301 20.3739C110.528 22.1297 111.635 24.2492 112.39 23.6813C113.146 23.1134 111.665 22.7443 112.128 21.1407C112.982 18.1278 117.717 20.2368 116.225 21.802C115.375 22.6863 114.064 21.9308 113.298 21.9602C112.532 21.9896 112.713 23.3597 115.055 23.3649C117.15 23.3649 118.567 21.2461 116.857 19.5657H116.868ZM41.3192 107.046C36.6492 101.026 24.0441 105.798 25.9995 112.232C26.169 112.782 27.0065 112.495 26.8484 111.939C25.4783 107.291 35.4004 102.755 39.9784 107.309C43.2798 110.599 40.6812 118.367 34.669 118.846C31.5959 119.093 29.4003 117.711 27.475 115.481C27.1353 115.089 26.3038 115.358 26.5614 115.937C28.7096 120.415 37.2797 122.377 41.2664 115.937C42.858 113.368 43.2662 109.554 41.3192 107.046ZM100.653 25.086C99.7707 24.8024 98.8372 24.7142 97.9174 24.8274C96.9976 24.9407 96.1134 25.2528 95.3263 25.7421C95.2729 25.7805 95.2275 25.8291 95.1929 25.885C95.1582 25.941 95.135 26.0032 95.1244 26.0681C95.1138 26.1331 95.1161 26.1995 95.1311 26.2635C95.1462 26.3276 95.1737 26.388 95.2122 26.4415C95.2506 26.4949 95.2991 26.5402 95.3551 26.5748C95.411 26.6095 95.4733 26.6328 95.5382 26.6433C95.6031 26.6539 95.6695 26.6516 95.7336 26.6366C95.7976 26.6215 95.8581 26.594 95.9115 26.5556C98.4054 24.8284 103.182 26.368 104.693 29.4826C105.981 32.1053 104.763 35.2017 102.55 36.8874C99.8222 38.9656 101.35 39.1531 102.819 38.1521C108.242 34.4756 107.356 26.9126 100.659 25.1094L100.653 25.086ZM88.6769 9.48015C93.5893 12.5759 97.0014 19.0859 93.7814 24.5829C93.401 25.2382 92.4256 24.5829 92.8022 23.9268C93.5281 22.5685 93.8877 21.0445 93.8457 19.505C93.8037 17.9654 93.3615 16.4634 92.5627 15.1466C87.4183 5.8971 72.842 5.61088 68.4673 16.534C68.3446 16.8496 67.3842 17.2541 67.1032 16.6093C60.6339 1.88773 30.6943 7.6536 28.6862 25.6246C28.2245 29.005 29.0337 32.4365 30.9572 35.2545C31.7706 36.6652 30.6001 37.0102 29.9674 36.9635C26.6886 36.7488 23.4106 37.3942 20.4579 38.8358C17.5052 40.2774 14.9803 42.4652 13.133 45.1826C6.29535 55.5875 11.9008 69.2471 20.9303 68.4984C21.5156 68.451 21.603 69.4173 21.0471 69.4874C10.2881 70.8778 3.99201 53.4476 13.7883 42.3897C17.6297 38.0579 24.1963 35.3012 29.8748 35.6989C27.533 32.4856 27.0065 28.0914 27.7033 24.2259C30.8818 6.77912 60.127 0.559055 67.8369 15.4449C70.8513 7.7357 80.8954 4.5737 88.6761 9.48015H88.6769Z" fill="#2B2E3F"/>
<path d="M72.133 68.5329C75.5225 66.1867 80.7852 71.7175 76.1432 74.6618C71.004 77.9225 68.3594 71.1436 72.133 68.5329ZM46.9621 37.4492C48.4135 38.3275 51.739 37.7829 50.7492 34.9553C49.7595 32.1277 50.9308 29.6873 55.5698 27.7433C58.4948 26.5135 61.7845 26.4753 64.7372 27.6367C67.6899 28.7982 70.072 31.0674 71.3753 33.9603C73.4241 38.8366 69.3793 45.2171 64.8833 48.2669C60.1479 51.4809 60.8913 56.8603 62.8873 59.9749C64.8833 63.0894 67.7079 66.2206 70.1521 64.8919C72.5963 63.5632 71.0416 61.7284 68.8234 59.126C66.6052 56.5237 65.797 53.0031 69.3205 51.0244C73.4828 48.6827 79.0265 41.7599 76.345 33.2696C73.415 24.1203 63.2827 20.251 53.4714 23.9621C44.5269 27.3629 43.2916 35.2423 46.95 37.4613L46.9621 37.4492Z" fill="#00C896"/>
<path d="M128.98 89.1499C124.824 85.5344 119.268 81.8851 112.443 81.4061C109.943 82.1427 103.516 89.5016 99.4477 95.3029C98.528 93.3069 96.257 86.2116 96.9417 80.7319C86.9556 82.5238 73.0761 89.7419 66.3732 95.269C67.0744 96.6967 67.8869 98.067 68.8031 99.3673C69.0607 99.725 68.4513 100.157 68.1824 99.8192C66.6048 97.809 65.3271 95.5807 64.3892 93.2037C61.8712 87.9824 57.4928 77.2822 55.7717 71.1171C52.7806 72.8736 47.9571 74.1202 45.0248 74.7326C46.9508 96.8598 54.2795 112.887 59.8812 115.493C65.1854 117.963 73.5739 113.544 79.7842 110.57C80.0599 104.247 81.7426 96.9012 85.0936 91.5391C85.3196 91.1881 85.9184 91.5391 85.7316 91.8908C82.6452 97.7303 80.9862 104.218 80.8907 110.822C80.7325 115.429 83.9879 132.165 84.8827 136.666C86.5089 134.957 95.5656 129.542 97.8011 128.763C96.9229 127.88 95.6063 127.066 94.2889 125.697C92.9715 124.327 94.0629 122.822 94.9916 122.851C96.8235 122.904 99.6744 125.193 102.18 127.069C102.923 127.626 107.32 128.017 109.433 129.137C114.42 128.35 119.356 127.264 124.213 125.887C125.183 123.339 125.987 120.73 126.62 118.078C124.993 114.927 123.054 111.949 120.831 109.186C120.538 108.829 121.088 108.419 121.416 108.753C125.23 113.148 128.215 118.197 130.229 123.656C131.399 123.118 132.517 122.522 133.688 122.023C133.764 121.993 133.849 121.991 133.927 122.017C134.004 122.043 134.07 122.096 134.112 122.167C134.155 122.237 134.17 122.32 134.157 122.401C134.144 122.482 134.102 122.556 134.039 122.608C128.554 126.707 117.648 128.568 110.7 129.915C114.446 132.754 114.721 137.688 114.797 140.668C120.447 141.306 140.765 138.772 145.755 132.116C150.744 125.459 137.961 96.969 128.98 89.1499Z" fill="#00C896"/>
</svg>
