<svg width="151" height="151" viewBox="0 0 151 151" fill="none" xmlns="http://www.w3.org/2000/svg">
<path d="M20.3484 80.1423C16.7443 87.972 15.2838 98.4454 14.6194 107.037C14.3498 110.531 14.1532 119.418 14.1532 119.493C14.1532 120.472 13.9468 122.094 14.3701 122.958C14.5012 123.225 14.8861 122.992 14.7693 122.725C14.8243 122.835 14.74 120.029 14.7362 119.811C14.5856 109.823 14.8168 113.688 15.2024 108.171C15.5845 102.812 16.3076 97.4837 17.3672 92.2171C18.2706 88.1844 19.3936 84.204 20.731 80.2937C20.8018 80.079 20.4478 79.9284 20.3484 80.1423Z" fill="#FF6B6B"/>
<path d="M141.148 57.7633C141.116 56.2479 141.352 54.4801 140.545 53.1168C140.232 52.5928 139.802 52.1486 139.288 51.8192C138.774 51.4898 138.191 51.2843 137.584 51.2186C135.185 50.9475 132.672 51.068 130.257 51.019C122.242 50.8533 113.083 50.8541 104.978 51.2518C103.579 51.3203 102.164 51.2857 101.015 52.1677C100.535 52.5399 100.148 53.0173 99.882 53.5631C99.6164 54.1089 99.4797 54.7084 99.4826 55.3154C99.4753 55.3957 99.494 55.4762 99.5359 55.5451C99.5778 55.6139 99.6407 55.6676 99.7153 55.698C99.6777 69.8924 100.469 88.6219 101.297 108.022C101.381 109.986 101.18 112.152 102.962 113.45C104.243 114.383 105.776 114.164 107.275 114.15C115.681 114.066 126.176 114.376 136.917 113.667C138.367 113.571 139.662 113.431 140.664 112.285C141.627 111.183 141.624 109.887 141.63 108.505C141.679 96.4244 141.303 65.2518 141.148 57.7633ZM140.882 109.137C140.882 111.02 140.049 112.65 138.001 112.903C132.524 113.573 117.04 113.52 110.257 113.553C108.508 113.561 106.677 113.75 104.945 113.602C104.129 113.525 103.371 113.146 102.82 112.539C102.268 111.932 101.963 111.142 101.964 110.322C101.807 107.918 100.164 56.7043 100.148 55.7003C100.214 55.6647 100.27 55.6119 100.308 55.5474C100.346 55.4829 100.366 55.4092 100.365 55.3342C100.432 51.4687 105.477 52.1022 108.175 52.0035C116.56 51.6977 127.118 51.7564 134.92 51.9704C135.986 51.9997 137.266 51.8566 138.284 52.2536C140.263 53.0256 140.262 54.9177 140.299 56.7329C140.376 60.6278 140.882 107.239 140.882 109.141V109.137Z" fill="#FF6B6B"/>
<path d="M121.698 68.9375C118.933 68.5119 116.89 70.7128 116.651 73.6165C116.607 74.1155 116.668 74.6184 116.832 75.0919C116.995 75.5655 117.257 75.9991 117.6 76.3642C118.212 76.8838 118.87 77.3466 119.565 77.7471C120.74 78.6977 119.822 79.3891 118.616 89.9033C118.488 91.0195 118.485 92.294 119.815 92.6841C120.547 92.806 121.292 92.8285 122.03 92.7512C123.795 92.7429 125.594 92.7843 127.378 92.7007C126.646 89.5372 125.606 84.8718 124.83 81.3769C124.759 81.0555 124.786 80.7202 124.908 80.4144C125.029 80.1085 125.24 79.8463 125.513 79.6618C126.161 79.2598 126.718 78.7284 127.151 78.1008C127.584 77.4732 127.882 76.763 128.028 76.0147C128.474 72.8979 125.294 69.4904 121.698 68.9375Z" fill="#FF6B6B"/>
<path d="M127.026 93.2836C126.293 93.316 127.121 93.2738 121.598 93.4169C120.736 93.5471 119.857 93.4958 119.017 93.2663C117.632 92.672 117.655 91.335 117.801 90.0523C118.464 84.2066 119.114 81.5311 119.266 79.5773C119.368 78.2788 117.765 77.8976 116.968 77.0796C116.435 76.5504 116.05 75.89 115.852 75.165C115.673 74.1846 115.74 73.175 116.048 72.2272C116.356 71.2794 116.896 70.4232 117.617 69.7358C113.081 71.7868 111.806 77.1745 116.186 80.0443C116.448 80.216 116.655 80.4597 116.782 80.7462C116.909 81.0326 116.951 81.3496 116.902 81.6592C116.237 85.8727 115.368 91.6672 114.921 94.6318C114.885 94.8675 114.901 95.1081 114.968 95.3369C115.035 95.5656 115.151 95.7771 115.308 95.9564C115.465 96.1357 115.659 96.2786 115.877 96.375C116.095 96.4715 116.331 96.5192 116.569 96.5149C119.001 96.4704 123.147 96.3906 125.678 96.3989C125.926 96.3998 126.17 96.3444 126.394 96.2371C126.617 96.1297 126.813 95.9732 126.967 95.7791C127.121 95.5851 127.229 95.3586 127.282 95.1169C127.336 94.8751 127.334 94.6243 127.277 94.3833C127.205 94.0677 127.127 93.6835 127.026 93.2836Z" fill="#FF6B6B"/>
<path d="M121.814 115.732C121.37 115.643 120.912 115.649 120.471 115.752C120.03 115.854 119.616 116.05 119.257 116.326C118.897 116.601 118.601 116.95 118.388 117.35C118.175 117.749 118.05 118.19 118.021 118.642C117.993 119.094 118.061 119.546 118.221 119.97C118.382 120.393 118.631 120.777 118.953 121.096C119.274 121.415 119.66 121.662 120.084 121.819C120.509 121.977 120.962 122.042 121.414 122.01C122.235 122.044 123.037 121.754 123.648 121.204C124.259 120.654 124.631 119.887 124.683 119.066C124.735 118.246 124.464 117.437 123.928 116.814C123.392 116.191 122.633 115.802 121.814 115.732Z" fill="#2B2E3F"/>
<path d="M146.811 50.6855C146.809 50.0434 146.681 49.4079 146.433 48.8157C146.185 48.2234 145.822 47.6862 145.365 47.2349C144.909 46.7837 144.367 46.4273 143.772 46.1865C143.176 45.9457 142.539 45.8251 141.897 45.8318H131.972C131.931 46.2199 131.83 46.5991 131.671 46.9556C131.639 47.005 131.592 47.0431 131.537 47.0645C131.482 47.0859 131.422 47.0894 131.365 47.0747C131.308 47.06 131.257 47.0276 131.219 46.9823C131.182 46.9371 131.159 46.8811 131.155 46.8223C131.11 45.7022 132.172 39.4468 130.223 34.9486C129.507 33.3738 128.347 32.0419 126.886 31.1161C125.425 30.1904 123.726 29.7108 121.996 29.7363C120.173 29.7737 118.395 30.3067 116.852 31.2782C115.309 32.2497 114.06 33.6229 113.238 35.2506C111.623 38.5316 112.139 42.4446 112.539 45.9583C112.539 46.0796 113.175 46.0209 107.341 46.0419C104.989 46.0735 102.648 46.3768 100.365 46.9458C99.0659 47.2796 97.9151 48.037 97.0945 49.0982C96.274 50.1593 95.8306 51.4637 95.8345 52.8051C95.6725 61.4671 97.5872 107.406 98.0188 117.118C98.0858 118.601 98.0022 120.149 98.6681 121.515C99.0739 122.336 99.6777 123.043 100.425 123.572C101.172 124.101 102.04 124.436 102.949 124.546C104.119 124.618 105.292 124.624 106.462 124.562C115.157 124.462 127.783 124.788 139.901 123.946C140.9 123.923 141.878 123.654 142.749 123.164C145.319 121.644 146.791 117.444 146.845 114.371C146.877 112.631 146.848 119.666 146.811 50.6855ZM126.992 45.6571C126.994 45.7271 126.97 45.7954 126.923 45.8479C126.877 45.9004 126.812 45.9332 126.742 45.9395H117.434C117.446 46.348 117.407 46.7563 117.318 47.1552H116.785C116.696 46.7229 116.668 46.2802 116.702 45.8401C116.469 43.5051 116.103 40.9442 116.835 38.6627C117.177 37.5231 117.87 36.5203 118.815 35.7968C119.759 35.0733 120.908 34.6658 122.098 34.6322C127.595 34.7324 126.91 41.8435 126.992 45.6571ZM116.385 33.2335C117.353 32.4083 118.483 31.7951 119.703 31.4337C120.922 31.0722 122.204 30.9705 123.465 31.135C123.715 31.1689 123.632 31.535 123.415 31.5516C120.967 31.7519 118.486 32.118 116.654 33.9498C114.62 35.9835 114.723 38.729 114.19 41.3434C114.14 41.5603 113.84 41.494 113.824 41.2937C113.604 38.4797 114.22 35.1821 116.385 33.2335ZM142.68 122.473C141.564 123.239 140.316 123.29 139.016 123.372C133.669 123.689 112.622 123.805 107.443 123.824C105.095 123.824 102.314 124.34 100.416 122.642C98.9166 121.31 98.8338 119.545 98.7502 117.68C98.0512 101.842 96.5184 52.2507 96.9018 51.1706C97.2036 50.3188 97.7409 49.57 98.4513 49.0114C99.1616 48.4527 100.016 48.1071 100.915 48.0146H139.583C142.047 48.0146 143.579 49.973 143.829 52.4857C144.932 122.946 144.919 118.571 144.662 119.613C144.377 120.778 143.671 121.797 142.68 122.473Z" fill="#2B2E3F"/>
<path d="M40.6982 49.5203C38.2932 50.0362 35.9891 50.1455 33.7543 48.9704C31.8088 47.9483 29.9559 45.9576 29.574 43.7416C29.2064 41.61 30.6737 38.9963 31.6077 37.1472C32.6214 35.1771 33.7967 33.2944 35.1214 31.5184C35.2547 31.3354 34.9527 31.1004 34.8051 31.2683C33.046 33.3008 31.5924 35.5785 30.4899 38.03C29.5032 40.1759 28.3056 42.593 29.2411 44.9596C30.9561 49.3064 36.5254 51.969 40.8813 49.9556C41.1321 49.8374 40.9475 49.4668 40.6982 49.5203Z" fill="#2B2E3F"/>
<path d="M36.9342 36.6817C37.066 36.5137 36.8882 36.1868 36.6683 36.3487C36.2254 36.6741 35.784 36.9965 35.369 37.3641C34.9533 37.6582 34.5833 38.012 34.2708 38.4141C33.9288 39.0513 34.8335 39.9017 35.2869 40.2127C35.485 40.3483 35.7524 40.1133 35.6861 39.8964C35.5747 39.5776 35.4116 39.2794 35.2033 39.0136C35.1365 38.9153 35.0644 38.8207 34.9871 38.7304C35.6962 38.1072 36.3479 37.4215 36.9342 36.6817Z" fill="#2B2E3F"/>
<path d="M34.2867 33.9166C34.6844 34.3143 35.6192 34.4069 35.2862 35.3816C35.2177 35.5812 35.4873 35.8162 35.6689 35.6829C36.6917 34.9259 35.4527 33.4518 34.4863 33.4518C34.4326 33.452 34.3801 33.4679 34.3352 33.4976C34.2904 33.5272 34.2553 33.5693 34.234 33.6187C34.2128 33.6681 34.2065 33.7226 34.2159 33.7755C34.2252 33.8284 34.2499 33.8775 34.2867 33.9166Z" fill="#2B2E3F"/>
<path d="M40.0652 36.6139C39.9461 36.5704 39.8195 36.5511 39.6929 36.5569C39.5662 36.5628 39.4419 36.5937 39.3273 36.6479C39.2127 36.7022 39.11 36.7786 39.0251 36.8728C38.9403 36.9671 38.8749 37.0772 38.833 37.1969C38.7795 37.4296 39.0996 37.6639 39.2849 37.4469C39.9018 36.7148 40.7868 37.9395 41.3186 38.2129C41.3698 38.2422 41.4292 38.2537 41.4876 38.2459C41.5461 38.2381 41.6003 38.2112 41.642 38.1695C41.6837 38.1278 41.7105 38.0736 41.7184 38.0152C41.7262 37.9567 41.7146 37.8973 41.6854 37.8461C41.5139 37.5409 41.2817 37.2741 41.003 37.0621C40.7243 36.8502 40.4052 36.6976 40.0652 36.6139Z" fill="#2B2E3F"/>
<path d="M37.084 45.773C38.2515 46.1677 40.3763 45.9598 40.8147 44.5739C40.827 44.526 40.8251 44.4756 40.8091 44.4288C40.7931 44.3819 40.7637 44.3409 40.7246 44.3106C40.6855 44.2803 40.6384 44.2621 40.5891 44.2583C40.5397 44.2545 40.4904 44.2653 40.4471 44.2892C40.0033 44.6193 39.5419 44.925 39.0649 45.2051C38.4692 45.4525 37.8118 45.5106 37.1819 45.3716C37.1287 45.3586 37.0725 45.3673 37.0256 45.3958C36.9788 45.4242 36.9452 45.4701 36.9322 45.5234C36.9192 45.5766 36.9279 45.6328 36.9564 45.6796C36.9849 45.7265 37.0308 45.7601 37.084 45.773Z" fill="#2B2E3F"/>
<path d="M36.4549 51.7016C35.5651 54.5022 34.8259 57.3484 34.2405 60.228C34.1531 60.68 34.8551 60.8773 34.9395 60.4276C35.4818 57.5451 36.174 54.6753 36.8549 51.8184C36.867 51.7664 36.8587 51.7118 36.8318 51.6657C36.8049 51.6197 36.7614 51.5857 36.7102 51.5707C36.659 51.5558 36.604 51.561 36.5565 51.5854C36.509 51.6097 36.4727 51.6513 36.4549 51.7016Z" fill="#2B2E3F"/>
<path d="M50.2905 31.8014C47.1895 29.7918 51.4565 26.6042 50.3734 20.3277C49.2903 14.0511 37.9009 13.5487 33.9706 22.1761C30.0403 30.8034 39.8818 31.0542 43.0966 32.0507C44.7115 32.5516 45.6771 33.2506 47.5262 34.3496C48.6749 35.032 48.6621 37.6969 48.6086 39.2455C48.6039 39.3462 48.6276 39.4463 48.6769 39.5343C48.7263 39.6223 48.7993 39.6946 48.8877 39.7432C48.9761 39.7918 49.0764 39.8146 49.1771 39.809C49.2778 39.8034 49.375 39.7697 49.4575 39.7117C49.6386 39.5818 49.8441 39.4897 50.0617 39.441C50.2793 39.3924 50.5044 39.3881 50.7236 39.4285C52.1194 39.6929 52.2301 42.6154 50.5572 44.0231C49.6443 44.7929 49.1404 44.6069 48.8587 44.2559C48.8273 44.2193 48.786 44.1927 48.7398 44.1793C48.6936 44.1659 48.6444 44.1664 48.5984 44.1805C48.5524 44.1947 48.5115 44.222 48.4808 44.259C48.4501 44.2961 48.4309 44.3413 48.4256 44.3892L48.1589 46.0545C47.58 48.1819 47.2283 50.3646 47.1097 52.5661C47.0872 54.8727 47.289 57.1761 47.7123 59.4437C47.765 59.7262 48.1989 59.6433 48.2117 59.3767C48.3224 57.163 47.881 54.9809 47.8622 52.7657C47.9026 50.9795 48.1078 49.2009 48.4753 47.4525C50.3403 46.4206 55.8952 42.9882 56.7351 38.3936C57.7429 32.8823 53.384 33.8057 50.2905 31.8014ZM46.7745 20.0279C45.0075 18.6985 42.8917 18.0695 40.7488 18.9116C38.6059 19.7537 37.339 21.7437 36.3191 23.7081C36.2987 23.7435 36.2659 23.77 36.227 23.7826C36.1882 23.7953 36.146 23.7931 36.1087 23.7766C36.0713 23.7601 36.0414 23.7303 36.0247 23.6931C36.0079 23.6558 36.0055 23.6137 36.0178 23.5748C36.8095 21.4236 38.4334 19.063 40.6644 18.227C42.7132 17.4617 45.6432 17.8104 47.0924 19.5925C47.2927 19.8095 47.0427 20.2283 46.7745 20.0279Z" fill="#2B2E3F"/>
<path d="M40.6154 34.05C40.4497 34.12 40.4979 34.3513 40.6154 34.4326C41.1133 34.7844 41.7339 34.8785 42.2137 35.2484C42.6137 35.6292 42.9116 36.1045 43.0799 36.6305C43.1058 36.6761 43.1433 36.714 43.1887 36.7403C43.234 36.7667 43.2855 36.7806 43.3379 36.7806C43.3903 36.7806 43.4418 36.7667 43.4871 36.7403C43.5324 36.714 43.5699 36.6761 43.5959 36.6305C44.572 35.1113 41.926 33.4934 40.6154 34.05Z" fill="#2B2E3F"/>
<path d="M35.5355 31.5845C35.501 31.6212 35.4766 31.6662 35.4645 31.7151C35.4524 31.764 35.4531 31.8152 35.4664 31.8637C35.4798 31.9123 35.5055 31.9566 35.5409 31.9924C35.5764 32.0282 35.6204 32.0542 35.6688 32.0681C36.6235 32.3288 37.4626 32.9035 38.0505 33.6995C38.1054 33.7505 38.1752 33.7827 38.2496 33.7912C38.324 33.7998 38.3993 33.7844 38.4643 33.7473C38.5294 33.7101 38.5809 33.6531 38.6113 33.5847C38.6417 33.5162 38.6495 33.4398 38.6335 33.3666C38.3247 32.4153 36.5652 30.6656 35.5355 31.5845Z" fill="#2B2E3F"/>
<path d="M36.5684 114.783C44.6851 124.9 64.8057 121.168 75.5692 111.335C82.37 105.123 81.381 99.4758 78.4834 90.9524C77.7719 88.5764 76.8236 86.2779 75.6528 84.0914C75.5549 83.9234 75.3229 84.0733 75.4027 84.242C77.257 88.1961 78.6593 92.3467 79.5831 96.6151C80.7995 102.134 80.0795 105.955 76.1025 110.037C69.5841 116.725 59.5498 120.478 50.2739 120.162C45.3615 119.995 40.1921 118.345 36.8351 114.533C36.6716 114.347 36.4351 114.616 36.5684 114.783Z" fill="#2B2E3F"/>
<path d="M6.89309 85.6897C4.70604 96.9667 5.58604 108.624 9.44122 119.445C9.52031 119.664 9.87357 119.578 9.79071 119.346C6.37107 108.506 5.49349 97.0247 7.22601 85.7914C7.27572 85.5571 6.93904 85.4562 6.89309 85.6897Z" fill="#2B2E3F"/>
<path d="M60.1656 92.934C60.9293 96.6293 61.4136 100.33 61.8641 104.075C61.8957 104.341 62.316 104.358 62.2964 104.075C62.1871 100.265 61.6052 96.4836 60.564 92.8172C60.4962 92.5513 60.1106 92.6681 60.1656 92.934Z" fill="#FF6B6B"/>
<path d="M62.8625 119.611C62.8794 120.908 62.9684 122.204 63.1291 123.492C63.1323 123.545 63.1557 123.594 63.1944 123.631C63.2331 123.667 63.2842 123.688 63.3374 123.688C63.3906 123.688 63.4417 123.667 63.4804 123.631C63.5191 123.594 63.5425 123.545 63.5457 123.492C63.7056 122.174 63.6032 120.839 63.2444 119.561C63.2303 119.518 63.2014 119.481 63.1628 119.456C63.1241 119.432 63.0781 119.421 63.0328 119.427C62.9874 119.433 62.9455 119.455 62.9144 119.488C62.8833 119.522 62.865 119.565 62.8625 119.611Z" fill="#FF6B6B"/>
<path d="M39.5492 104.658C41.2925 104.501 43.0481 104.757 44.674 105.405C46.2999 106.053 47.7503 107.075 48.9079 108.388C49.3599 108.903 49.5248 109.683 50.2404 109.77C51.0663 109.813 51.8944 109.751 52.7049 109.587C57.5812 108.883 64.843 106.122 64.9612 100.212C65.014 97.5504 63.4548 93.2066 62.4967 90.7361C62.3935 90.4702 61.983 90.5681 62.0636 90.8521C62.8168 93.5102 63.8773 96.0493 64.2479 98.8121C65.0343 104.726 58.3728 108.236 52.4413 109.037C51.9419 109.105 50.6094 109.454 50.1432 109.188C50.0762 109.155 49.7448 108.521 49.6438 108.388C49.2858 107.939 48.8841 107.526 48.4447 107.156C47.2481 106.078 45.8377 105.264 44.3055 104.768C42.7733 104.272 41.1537 104.104 39.5522 104.275C39.2991 104.308 39.2984 104.688 39.5492 104.658Z" fill="#2B2E3F"/>
<path d="M43.1127 108.255C44.8338 110.213 42.2458 110.207 40.8147 110.803C40.7547 110.818 40.7034 110.857 40.672 110.91C40.6405 110.963 40.6316 111.027 40.6471 111.087C40.6625 111.147 40.7012 111.198 40.7545 111.23C40.8079 111.261 40.8715 111.27 40.9314 111.255C41.5518 111.133 42.1637 110.972 42.7632 110.772C44.2877 110.306 44.6116 109.32 43.3658 107.99C43.1926 107.808 42.9493 108.068 43.1127 108.255Z" fill="#2B2E3F"/>
<path d="M91.8057 56.981C90.6153 54.0874 88.3283 51.7825 85.444 50.5696C82.9213 49.5385 80.0969 49.5264 77.5654 50.5358C75.034 51.5452 72.9929 53.4974 71.8718 55.9815C71.147 57.6267 70.8698 59.4342 71.0682 61.2211C71.2666 63.0079 71.9336 64.7106 73.0016 66.1567L69.9541 69.7036C69.7206 69.4204 69.4924 69.1334 69.2544 68.854C64.3329 63.0821 55.6859 59.8628 49.8734 60.1611C49.5721 60.1769 49.0576 60.1445 48.8242 60.378C48.6735 60.5445 48.7127 60.778 48.6908 60.9806C48.5705 62.553 48.0123 64.0603 47.0793 65.3317C46.1464 66.6032 44.8761 67.588 43.4123 68.1746C42.1104 68.6445 40.7029 68.7407 39.3491 68.4523C37.9954 68.1638 36.7493 67.5022 35.7521 66.5424C33.7704 64.5087 33.155 61.5711 32.804 58.8656C32.7852 58.7149 32.621 58.6321 32.4876 58.6155C23.3534 57.5007 11.5746 62.9909 6.52579 72.8008C5.50679 74.7944 4.74594 76.9096 4.26162 79.0955C4.11098 79.762 3.55887 81.2286 3.84509 81.8432C3.9769 82.1271 4.37912 82.2913 4.62768 82.4262C6.34752 83.3124 8.12837 84.0748 9.95669 84.7077C11.9255 85.5164 13.9822 86.092 16.0849 86.4227C16.5014 86.4725 16.5014 85.8059 16.0849 85.7569C12.6555 85.3509 9.09953 83.8249 5.99176 82.3599C5.47608 82.1921 4.99229 81.9387 4.56065 81.6104C4.27744 81.2775 4.76401 79.7959 4.89357 79.2453C5.37186 77.1201 6.11004 75.0619 7.09145 73.1172C12.1177 63.3728 23.6547 58.4046 32.1879 59.2286C32.804 63.3254 34.2351 67.7603 38.6828 68.9541C40.6548 69.4481 42.7386 69.2169 44.5543 68.3029C46.3701 67.3889 47.797 65.8528 48.5748 63.9746C48.975 63.1498 49.2177 62.2575 49.2904 61.3437C49.304 60.8443 49.1887 60.9234 49.5073 60.7946C49.8859 60.7217 50.2737 60.7103 50.656 60.7607C52.1731 60.7536 53.6847 60.944 55.1527 61.3271C66.8223 64.3919 71.633 71.1581 75.7019 82.1098C73.2954 85.6951 62.6366 89.3287 58.3335 90.1195C58.0307 89.7992 57.7626 89.4477 57.5336 89.071C56.6162 87.0743 56.7216 87.7763 55.9684 85.3735C55.4348 83.7569 55.0446 82.0964 54.8024 80.4113C54.7663 80.1289 54.2752 80.1944 54.303 80.4776C54.4484 81.9462 54.7157 83.4002 55.1022 84.8244C54.3912 84.8244 23.8678 115.462 19.2988 119.562C18.3686 120.397 17.8022 121.26 18.4997 122.476C19.4344 124.107 23.9906 130.323 25.1604 131.869C25.9573 132.923 26.7602 134.514 28.125 134.9C28.8046 135.04 29.5116 134.951 30.1352 134.647C30.7589 134.342 31.2641 133.84 31.5717 133.218C32.3581 131.737 30.4208 130.022 29.6073 128.988C28.5212 127.608 23.968 122.365 23.1786 120.911C23.1512 120.862 23.1423 120.805 23.1536 120.75C23.1648 120.695 23.1955 120.646 23.2399 120.611C23.2844 120.577 23.3397 120.56 23.3958 120.563C23.4519 120.566 23.505 120.589 23.5455 120.628C24.1823 121.19 24.7725 121.802 25.3102 122.46C27.1594 120.944 29.0078 119.512 30.7229 117.83C31.7887 119.079 32.8439 120.323 33.9368 121.544C34.2031 121.932 34.5753 122.236 35.0093 122.419C35.4433 122.602 35.9207 122.657 36.3848 122.576C36.7322 122.494 37.0558 122.333 37.3302 122.104C37.6047 121.876 37.8225 121.587 37.9665 121.261C38.4381 120.164 37.9025 119.31 37.251 118.446C36.8857 117.962 34.2283 114.86 33.4375 113.734C33.2725 113.499 33.6212 113.267 33.8201 113.432C34.2856 113.825 34.7304 114.242 35.1525 114.681C35.3521 114.482 40.7813 108.92 42.0633 107.554C40.0981 106.105 35.8048 106.726 38.0336 104.273C39.9844 102.127 43.8951 103.54 45.2773 104.156C47.8254 101.445 56.168 92.3167 58.0503 90.9511L58.0669 90.9345C58.1371 90.9011 58.1913 90.8413 58.2175 90.768C58.2952 90.7523 58.3654 90.7113 58.4171 90.6513C59.5942 90.6261 60.759 90.4067 61.8646 90.002C65.6442 88.9046 74.2467 85.775 76.1689 82.3418C76.2086 82.3326 76.2458 82.3145 76.2776 82.2889C76.3094 82.2634 76.335 82.231 76.3526 82.1941C76.3702 82.1573 76.3793 82.117 76.3792 82.0762C76.379 82.0354 76.3697 81.9951 76.3519 81.9584C75.613 80.0754 74.8869 78.1449 74.0207 76.3093C75.6859 74.5779 77.3846 72.8849 79.117 71.2304C78.0598 70.787 77.1026 70.1356 76.3022 69.3149C76.1659 69.1688 76.3535 68.93 76.5192 69.0325C78.717 70.3883 81.3134 71.5377 83.9624 71.2168C90.4039 70.4312 93.9749 62.7574 91.8057 56.981ZM86.3268 63.8586C85.8336 64.4404 85.2307 64.9192 84.5524 65.2679C83.8742 65.6166 83.1339 65.8283 82.3738 65.8909C81.6137 65.9535 80.8488 65.8658 80.1226 65.6328C79.3965 65.3997 78.7233 65.026 78.1416 64.5328C77.5599 64.0396 77.081 63.4367 76.7323 62.7584C76.3836 62.0801 76.1719 61.3399 76.1093 60.5798C75.9829 59.0448 76.4714 57.5224 77.4675 56.3476C79.7602 53.7294 84.1636 54.0314 86.2936 56.6142C87.1206 57.6387 87.5744 58.914 87.5805 60.2306C87.5865 61.5472 87.1444 62.8266 86.3268 63.8586Z" fill="#FF6B6B"/>
</svg>
