<svg width="151" height="151" viewBox="0 0 151 151" fill="none" xmlns="http://www.w3.org/2000/svg">
<path d="M77.5881 5.79144L77.9806 47.8608C79.1563 48.3828 80.4812 47.6582 81.2465 42.3729C81.3693 41.5225 83.2049 22.4488 94.5076 20.8814C105.81 19.3139 110.577 47.076 111.099 65.825C112.536 117.367 120.506 137.225 120.506 137.225C120.506 137.225 123.086 138.336 123.543 138.597V11.2131L77.5881 5.79144Z" fill="#FF6B6B"/>
<path d="M55.4427 37.9969C55.4427 37.9969 52.5051 41.1326 53.7442 47.6645L48.6494 47.73C48.4528 47.9914 47.6702 49.1016 47.6039 49.1671L49.4983 61.2525L72.1008 60.8608L71.3822 56.81C67.5618 56.1463 63.8626 54.9134 60.4079 53.1524C60.3651 53.1257 60.3288 53.0897 60.3016 53.0472C60.2745 53.0047 60.2571 52.9567 60.2509 52.9066C60.2446 52.8566 60.2495 52.8057 60.2654 52.7578C60.2812 52.7099 60.3075 52.6662 60.3423 52.6297C58.6855 51.415 57.5067 49.6582 57.0109 47.6645C55.8095 42.8861 57.2722 39.4341 57.99 38.2583C57.7294 38.2583 55.4427 37.9969 55.4427 37.9969Z" fill="#FF6B6B"/>
<path d="M54.7896 30.6802C54.3324 30.4843 54.3287 29.7665 54.2669 29.3086C54.1969 28.7866 53.418 28.9817 53.418 29.4389C53.418 30.2885 53.7457 31.3264 54.6593 31.5298C55.5097 31.7189 56.0196 30.8722 56.2923 30.1574C56.4173 29.829 55.8999 29.6347 55.704 29.8961C55.5737 30.2885 55.2468 30.9415 54.7896 30.6802Z" fill="#2B2E3F"/>
<path d="M91.7637 53.1524C91.8076 53.1272 91.846 53.0934 91.8767 53.0532C91.9074 53.0129 91.9297 52.967 91.9425 52.918C91.9552 52.869 91.9581 52.818 91.9509 52.7679C91.9437 52.7178 91.9266 52.6696 91.9006 52.6262C91.8746 52.5828 91.8402 52.545 91.7994 52.515C91.7586 52.485 91.7122 52.4634 91.663 52.4516C91.6138 52.4397 91.5628 52.4377 91.5128 52.4458C91.4628 52.4539 91.415 52.4718 91.372 52.4986C86.6034 54.8509 81.6382 56.4153 76.3469 56.4153C70.899 56.316 65.5423 54.9991 60.6694 52.5611C60.589 52.5316 60.5014 52.5284 60.419 52.5519C60.3367 52.5755 60.264 52.6246 60.2115 52.6922C60.1705 52.7707 60.1612 52.8619 60.1856 52.947C60.21 53.0321 60.2662 53.1046 60.3425 53.1494C70.5011 58.3255 82.0916 58.8859 91.7637 53.1524Z" fill="#2B2E3F"/>
<path d="M54.9977 26.1276C55.0349 26.2968 55.111 26.4502 55.2091 26.554C55.3072 26.6578 55.4194 26.7036 55.5209 26.6812C55.6223 26.6588 55.7049 26.5701 55.7503 26.4347C55.7957 26.2992 55.8002 26.128 55.7629 25.9588C55.7256 25.7896 55.6496 25.6363 55.5515 25.5324C55.4533 25.4286 55.3412 25.3828 55.2397 25.4052C55.1382 25.4276 55.0557 25.5163 55.0103 25.6517C54.9649 25.7872 54.9604 25.9584 54.9977 26.1276Z" fill="#2B2E3F"/>
<path d="M56.6843 16.1129C54.5286 16.5701 52.4384 18.53 51.1971 20.2932C49.9261 19.9933 48.591 20.1315 47.4084 20.6857C43.3584 23.6902 41.1371 31.8559 40.7447 35.6445C36.4988 35.3839 31.9916 36.8858 29.2476 40.2173C26.3733 43.6821 24.5445 49.4939 28.0718 52.3682C38.9814 61.2561 56.554 49.1015 51.0668 29.9615C47.8656 27.4759 51.3274 26.3032 51.9157 28.3286C52.5039 28.5899 54.4013 28.8513 53.4839 24.6046C54.3424 24.7885 55.2188 24.8762 56.0968 24.866C57.0112 26.1073 58.1214 27.2831 59.1013 28.4589C58.5786 28.5244 58.1222 28.5244 57.5949 28.5899C57.5242 28.593 57.455 28.6115 57.3921 28.6439C57.3292 28.6764 57.2741 28.7222 57.2306 28.7781C57.1871 28.8339 57.1563 28.8986 57.1403 28.9675C57.1242 29.0365 57.1233 29.1081 57.1377 29.1774C58.2487 32.3786 60.012 34.2074 52.7608 33.6854C52.3036 33.6199 52.1733 34.404 52.6305 34.4688C53.259 34.5473 53.8914 34.5911 54.5248 34.5998C54.5329 35.4589 54.6427 36.3139 54.8517 37.1472C54.8821 37.247 54.9474 37.3325 55.0357 37.3881C55.1241 37.4436 55.2294 37.4655 55.3326 37.4497C55.4357 37.4338 55.5297 37.3814 55.5972 37.3019C55.6648 37.2224 55.7015 37.1212 55.7006 37.0169C55.6845 36.1788 55.5751 35.3451 55.3744 34.5313C60.4044 34.5968 59.2279 32.0457 58.1832 29.371C58.7707 29.3055 61.0386 29.3861 60.2733 28.4558C59.2686 27.2349 58.315 25.9085 57.2688 24.6672C63.5438 24.0827 64.5885 14.4792 56.6843 16.1129ZM31.273 51.8455C30.3586 51.911 28.8944 49.7734 29.7048 47.9913C29.9112 47.5393 30.4234 47.7954 30.3586 48.3182C30.2275 49.6898 31.5992 50.6697 31.8605 51.0614C32.0571 51.4538 31.7302 51.7799 31.273 51.8455ZM41.8557 37.9968C39.2428 38.1271 36.5644 38.5843 34.3431 40.087C33.3767 40.7635 32.5553 41.6263 31.927 42.6247C31.2988 43.6232 30.8764 44.7371 30.6848 45.9011C30.5544 46.6196 29.3131 46.4238 29.3787 45.7052C29.7703 39.6298 36.6299 36.6245 41.9205 37.2127C42.4432 37.2783 42.4432 37.9313 41.8557 37.9968ZM59.6896 19.183C58.8611 18.1865 56.1615 18.7906 54.5286 20.0974C54.0714 20.4243 53.5494 19.6402 53.9403 19.3133C55.574 17.9417 58.9055 16.0474 60.2116 18.7258C60.4082 19.0519 59.9562 19.5084 59.6896 19.183Z" fill="#2B2E3F"/>
<path d="M47.5386 56.0266C44.6835 59.4543 42.73 63.5409 41.8556 67.9154C41.8299 68.0252 41.8468 68.1406 41.903 68.2385C41.9591 68.3363 42.0503 68.4091 42.158 68.4423C42.2658 68.4755 42.3822 68.4665 42.4836 68.4172C42.585 68.3679 42.664 68.282 42.7045 68.1767C43.4524 66.0964 45.056 60.6642 48.1916 56.4838C48.3882 56.1569 47.8045 55.7027 47.5386 56.0266Z" fill="#2B2E3F"/>
<path d="M40.3528 57.0713C39.7645 61.2524 39.2041 65.7333 40.2225 69.876C40.3663 70.4612 41.2574 70.2044 41.1369 69.6146C40.2835 65.4478 40.5486 61.3187 40.9411 57.1376C41.0058 56.8099 40.3528 56.7451 40.3528 57.0713Z" fill="#2B2E3F"/>
<path d="M44.7955 76.15C45.5081 73.8151 45.3831 70.7269 43.1618 69.1602C42.8357 68.8988 42.4432 69.4216 42.7046 69.7485C44.4031 71.5117 44.2728 73.6652 43.8804 75.8887C43.8156 76.4732 44.614 76.7391 44.7955 76.15Z" fill="#2B2E3F"/>
<path d="M41.0715 79.0207C41.4715 77.2148 42.1312 75.4764 43.0298 73.8597C43.0905 73.7557 43.1073 73.6319 43.0766 73.5155C43.046 73.3991 42.9704 73.2997 42.8664 73.239C42.7624 73.1784 42.6386 73.1616 42.5222 73.1922C42.4058 73.2229 42.3064 73.2985 42.2457 73.4025C41.183 75.0721 40.5544 76.9808 40.4169 78.9552C40.3529 79.2821 41.0105 79.3484 41.0715 79.0207Z" fill="#2B2E3F"/>
<path d="M38.981 78.3676C38.981 76.4093 39.6996 75.0361 40.614 73.4024C40.659 73.3072 40.6693 73.1993 40.6432 73.0973C40.6171 72.9953 40.5562 72.9056 40.471 72.8437C40.3858 72.7818 40.2817 72.7516 40.1766 72.7583C40.0715 72.765 39.972 72.8082 39.8954 72.8804C38.5396 74.2031 38.0666 76.4733 38.1969 78.3676C38.1969 78.4716 38.2382 78.5713 38.3117 78.6448C38.3853 78.7184 38.485 78.7597 38.589 78.7597C38.6929 78.7597 38.7927 78.7184 38.8662 78.6448C38.9397 78.5713 38.981 78.4716 38.981 78.3676Z" fill="#2B2E3F"/>
<path d="M38.916 71.4435C37.0872 72.4882 35.9114 74.9083 35.7803 76.9955C35.784 77.0887 35.8197 77.1779 35.8814 77.2479C35.9431 77.3179 36.027 77.3646 36.1191 77.38C36.2111 77.3953 36.3057 77.3785 36.3868 77.3324C36.4679 77.2862 36.5306 77.2136 36.5644 77.1266C37.0298 75.2316 38.027 73.5091 39.4387 72.1621C39.7001 71.7064 39.3076 71.1792 38.916 71.4435Z" fill="#2B2E3F"/>
<path d="M96.4671 44.0716C94.7031 44.3984 90.7186 46.4238 90.1958 50.3428C87.2583 51.0614 84.1852 51.783 81.1806 51.322C76.2847 50.5733 72.2926 46.75 65.6334 41.7848C63.3919 40.1134 60.2766 37.3408 57.2065 38.1264C57.0754 38.1919 56.9451 38.1919 56.8148 38.2575C56.7317 38.2864 56.6631 38.3462 56.6231 38.4245C56.583 38.5028 56.5748 38.5935 56.6001 38.6777C56.6253 38.762 56.6821 38.8332 56.7586 38.8766C56.8351 38.9199 56.9254 38.9321 57.0106 38.9105C61.2173 37.8018 67.8765 45.5637 75.3017 50.2773C77.2519 51.54 79.4631 52.344 81.7688 52.6288C84.7727 52.9633 87.9091 52.1061 90.7833 51.1224C92.8087 46.158 95.0352 45.8416 96.7933 44.8511C96.8799 44.7976 96.9445 44.7149 96.9756 44.6179C97.0067 44.521 97.0022 44.4161 96.9629 44.3221C96.9236 44.2282 96.8521 44.1514 96.7612 44.1054C96.6703 44.0595 96.5661 44.0475 96.4671 44.0716Z" fill="#2B2E3F"/>
<path d="M97.9044 42.6999C97.6605 44.897 96.6414 46.9352 95.0301 48.4485C94.9866 48.5268 94.9674 48.6163 94.9749 48.7056C94.9824 48.7949 95.0163 48.8799 95.0722 48.9499C95.1282 49.0199 95.2037 49.0717 95.2891 49.0987C95.3745 49.1257 95.4661 49.1267 95.5521 49.1015C98.2305 47.7954 98.6553 44.0075 98.6229 42.6992C98.6169 42.6079 98.5764 42.5224 98.5096 42.4599C98.4428 42.3974 98.3547 42.3627 98.2633 42.3628C98.1718 42.3629 98.0838 42.3978 98.0172 42.4604C97.9505 42.523 97.9102 42.6087 97.9044 42.6999Z" fill="#2B2E3F"/>
<path d="M99.0806 49.0342C99.5665 48.2608 99.8561 47.3804 99.9244 46.4695C99.9927 45.5587 99.8375 44.6449 99.4723 43.8077C99.4359 43.7251 99.371 43.6583 99.2895 43.6195C99.208 43.5807 99.1153 43.5725 99.0282 43.5963C98.9412 43.6201 98.8656 43.6744 98.8152 43.7493C98.7648 43.8242 98.743 43.9146 98.7537 44.0043C99.171 45.5346 99.0076 47.1652 98.295 48.5823C98.2653 48.6339 98.2461 48.6908 98.2384 48.7498C98.2307 48.8088 98.2348 48.8688 98.2502 48.9262C98.2657 48.9837 98.2924 49.0375 98.3287 49.0847C98.365 49.1319 98.4102 49.1714 98.4618 49.2011C98.5134 49.2308 98.5703 49.25 98.6293 49.2576C98.6883 49.2653 98.7483 49.2613 98.8058 49.2458C98.8632 49.2303 98.9171 49.2037 98.9642 49.1674C99.0114 49.1311 99.0509 49.0858 99.0806 49.0342Z" fill="#2B2E3F"/>
<path d="M101.366 47.403C101.366 47.3078 101.329 47.2164 101.261 47.149C101.194 47.0816 101.102 47.0438 101.007 47.0438C100.912 47.0438 100.82 47.0816 100.753 47.149C100.686 47.2164 100.648 47.3078 100.648 47.403C100.322 50.5387 97.9046 52.2372 94.8993 52.4986C94.5076 52.4986 94.3118 53.1501 94.769 53.2171C98.233 53.7263 101.171 50.7353 101.366 47.403Z" fill="#2B2E3F"/>
<path d="M124.361 9.38453C124.332 9.2924 124.271 9.21389 124.188 9.1634C124.106 9.11291 124.008 9.09384 123.913 9.10968C123.817 9.12552 123.731 9.17522 123.669 9.24964C123.608 9.32407 123.575 9.41823 123.577 9.51484C123.414 26.8283 123.185 130.105 123.054 137.879C122.206 137.553 100.996 131.466 96.1405 130.17C96.0928 130.151 96.0417 130.141 95.9901 130.142C95.9385 130.142 95.8876 130.153 95.8405 130.174C95.7933 130.195 95.7508 130.225 95.7156 130.263C95.6804 130.301 95.6532 130.345 95.6355 130.393C95.6179 130.442 95.6103 130.493 95.613 130.545C95.6158 130.596 95.629 130.647 95.6518 130.693C95.6745 130.739 95.7064 130.781 95.7455 130.814C95.7846 130.848 95.83 130.873 95.8792 130.889C100.648 132.395 122.075 138.859 122.989 139.054C122.924 141.472 122.891 143.888 122.859 146.24C122.859 146.413 122.927 146.579 123.05 146.702C123.172 146.824 123.338 146.893 123.512 146.893C123.685 146.893 123.851 146.824 123.973 146.702C124.096 146.579 124.165 146.413 124.165 146.24C125.169 127.771 124.426 19.1176 124.361 9.38453Z" fill="#2B2E3F"/>
<path d="M77.3922 42.2428C77.3922 42.39 77.4507 42.5312 77.5548 42.6353C77.6589 42.7394 77.8001 42.7979 77.9473 42.7979C78.0945 42.7979 78.2357 42.7394 78.3398 42.6353C78.444 42.5312 78.5024 42.39 78.5024 42.2428C78.6004 29.6995 78.5024 17.0929 77.5233 4.55033C84.7745 5.52951 114.166 9.23684 121.684 10.0375C122.336 10.1068 122.466 9.00561 121.814 8.92727C114.414 8.03321 84.6434 4.61511 77.1293 3.76624C77.0392 3.78628 76.9583 3.83557 76.8992 3.90642C76.8401 3.97727 76.806 4.0657 76.8024 4.15791C77.0329 16.8375 77.4901 29.5029 77.3922 42.2428Z" fill="#2B2E3F"/>
<path d="M120.768 145.914C119.141 145.117 104.047 141.602 100.844 140.688C100.452 140.491 100.258 141.202 100.713 141.341C103.933 142.326 119.592 146.698 120.507 146.764C120.608 146.766 120.706 146.736 120.788 146.677C120.869 146.618 120.929 146.534 120.959 146.438C120.988 146.342 120.986 146.238 120.951 146.144C120.917 146.049 120.853 145.969 120.768 145.914Z" fill="#2B2E3F"/>
<path d="M69.5538 64.2569C69.1019 63.4683 68.247 63.7349 67.3981 63.7349C67.5284 63.408 67.9201 61.1212 67.9201 61.1212C67.9168 61.0315 67.8862 60.9449 67.8324 60.873C67.7785 60.8012 67.704 60.7475 67.6188 60.7191C67.5336 60.6908 67.4418 60.6891 67.3556 60.7144C67.2695 60.7397 67.1931 60.7907 67.1367 60.8606C66.7965 61.7835 66.5981 62.7526 66.5485 63.7349C55.1312 63.3538 62.6656 63.5948 53.6798 63.0811C53.6035 62.5179 53.5597 61.9508 53.5487 61.3826C53.551 61.3297 53.5426 61.2768 53.5239 61.2272C53.5053 61.1777 53.4768 61.1324 53.4401 61.0941C53.4035 61.0558 53.3595 61.0253 53.3108 61.0045C53.2621 60.9837 53.2096 60.973 53.1567 60.973C53.1037 60.973 53.0512 60.9837 53.0025 61.0045C52.9538 61.0253 52.9098 61.0558 52.8731 61.0941C52.8365 61.1324 52.808 61.1777 52.7894 61.2272C52.7707 61.2768 52.7623 61.3297 52.7646 61.3826C52.6998 61.9469 52.6998 62.5168 52.7646 63.0811C52.7646 63.0163 50.74 62.6239 51.4585 66.0864C48.6498 70.202 49.3668 75.4339 49.629 75.4934C49.9543 75.5687 50.9358 70.202 53.026 67.8497C53.3529 67.5236 53.6142 67.9153 53.4832 68.1111C52.3729 70.3323 51.2122 72.491 50.74 75.0362C49.8534 79.81 52.3684 84.6412 54.3983 88.82C55.6366 91.3697 57.4684 99.3379 56.554 100.514C55.6396 101.689 33.4303 127.362 31.9239 129.387C31.0386 129.875 30.3297 130.629 29.8985 131.543C29.4827 132.579 29.8442 133.825 30.2254 134.809C31.1152 136.802 32.6282 138.453 34.5368 139.512C35.125 139.709 35.5717 139.389 35.2553 138.925C34.5757 137.777 34.1109 136.515 33.8837 135.201C33.5595 134.009 33.4056 132.778 33.4265 131.543C42.3762 124.488 64.459 106.654 66.4174 104.694C67.1886 103.973 67.8062 103.104 68.2333 102.139C68.6604 101.174 68.8882 100.132 68.903 99.0766C69.0988 91.4209 70.1029 65.2218 69.5538 64.2569Z" fill="#2B2E3F"/>
<path d="M91.9597 139.381C91.3337 139.828 90.6164 140.129 89.8597 140.265C89.103 140.401 88.3256 140.367 87.5835 140.165C86.6043 126.316 72.706 78.4175 72.0356 77.714C71.9724 77.6477 71.7095 77.5837 71.7743 77.714C71.9053 79.5436 69.8845 103.58 70.2068 104.04C77.2931 114.164 83.7941 140.165 85.1665 143.301C85.2312 143.497 85.4926 143.627 85.6237 143.693C89.282 145.13 91.2411 142.06 92.6783 139.839C93.0052 139.512 92.3521 139.119 91.9597 139.381Z" fill="#2B2E3F"/>
</svg>
