<svg width="151" height="151" viewBox="0 0 151 151" fill="none" xmlns="http://www.w3.org/2000/svg">
<path d="M85.6278 41.2973C85.6278 42.2396 85.7032 47.2613 86.6334 47.1265C87.1923 47.0399 86.9113 45.3602 86.7795 43.6451C86.6846 42.4083 86.7388 39.9822 86.1099 39.9898C85.7612 39.9958 85.7295 40.4914 85.6278 41.2973Z" fill="#2B2E3F"/>
<path d="M82.5033 42.4596C83.1729 41.9323 84.3517 39.6418 83.5924 39.3639C83.087 39.1613 82.6208 40.4297 82.2939 40.9848C81.9308 41.5783 81.2431 42.3526 81.4766 42.6652C81.7245 42.9386 82.1892 42.6554 82.5033 42.4596Z" fill="#2B2E3F"/>
<path d="M87.7192 38.4041C88.9425 39.3216 92.295 39.4127 92.2016 38.5548C92.1602 38.1827 91.5636 38.1368 90.9867 38.1029C90.0324 38.1288 89.0854 37.9307 88.2216 37.5244C87.3712 37.1478 87.2711 37.1335 87.1114 37.2984C86.8591 37.617 87.4812 38.246 87.7192 38.4041Z" fill="#2B2E3F"/>
<path d="M86.4619 49.4057C87.4243 48.6614 88.5659 48.1839 89.7716 48.0213C94.8934 47.2455 97.4152 52.6912 94.0649 55.1934C92.6752 56.2321 91.2622 55.6905 89.8341 55.796C88.815 55.8713 87.9104 56.4114 86.7549 56.4415C86.3339 56.4812 85.9094 56.4209 85.5162 56.2653C85.1229 56.1097 84.772 55.8633 84.4921 55.5463C84.2122 55.2292 84.0113 54.8505 83.9057 54.4409C83.8 54.0314 83.7928 53.6027 83.8844 53.1899C84.2166 51.2338 86.0484 49.3748 86.4619 49.4057ZM86.6713 49.9525C86.651 49.9586 86.651 49.9736 86.651 49.9736C86.1642 50.4151 85.7659 50.9453 85.4775 51.5358C84.8049 52.8343 84.3989 54.4779 85.708 55.1512C86.9945 55.8111 88.2365 54.8447 89.7505 54.7302C91.0935 54.6293 92.4078 55.0932 93.4375 54.3302C95.2527 52.9835 94.6238 50.5272 92.7671 49.4765C91.1304 48.5493 88.4519 48.9131 86.944 49.9013C86.9043 49.9277 86.8597 49.9459 86.8129 49.9547C86.766 49.9635 86.7179 49.9628 86.6713 49.9525Z" fill="#2B2E3F"/>
<path d="M86.5448 51.2617C86.5448 51.8854 86.6442 55.1363 87.4449 55.0029C87.8569 54.9344 87.8011 54.3055 87.8011 53.7225C87.7562 52.8198 87.6652 51.9201 87.5285 51.0267C87.4825 50.7804 87.2596 50.0852 86.9214 50.1364C86.5832 50.1876 86.5448 50.9175 86.5448 51.2617Z" fill="#2B2E3F"/>
<path d="M90.6313 50.2726C90.6042 50.7509 90.7473 52.6784 90.8407 53.4067C90.9687 53.934 91.0892 54.59 91.4689 54.5569C91.9035 54.5177 91.8726 53.644 91.8666 53.174C91.8583 52.5511 91.6594 50.3042 91.6361 50.1747C91.5653 49.7702 91.4252 49.1609 91.0915 49.1729C90.7104 49.185 90.6313 50.1461 90.6313 50.2726Z" fill="#2B2E3F"/>
<path d="M108.457 43.9125C111.204 42.1289 110.641 37.312 107.368 36.476C108.981 32.8432 106.17 27.994 102.131 29.328C102.131 24.542 96.3386 22.0828 93.0817 25.7185C90.5208 20.431 82.8161 22.8955 82.0426 28.5619C77.3621 27.3937 74.9134 31.9514 75.7796 36.5242C71.2648 37.2367 69.6416 43.5833 73.4544 46.1458C70.4355 48.4242 72.8948 53.4045 76.5968 53.7533C76.5968 56.0701 79.6308 57.4621 81.8965 57.3958H81.9296C82.4832 58.7965 83.469 59.9841 84.7438 60.7861C86.0186 61.5882 87.5159 61.9628 89.0181 61.8556L89.3111 64.8301C89.3195 64.9213 89.3626 65.0058 89.4315 65.0661C89.5004 65.1264 89.5899 65.1579 89.6814 65.1542C89.7729 65.1504 89.8594 65.1116 89.9231 65.0458C89.9869 64.98 90.0228 64.8923 90.0237 64.8007C89.9672 61.0301 89.9762 61.1257 89.751 60.951C89.4497 60.71 89.1853 61.0097 87.9079 60.8372C86.9209 60.7112 85.9782 60.3511 85.1585 59.7871C84.3387 59.2231 83.6656 58.4714 83.195 57.5947C82.2414 55.6544 82.1307 53.7224 81.9801 51.5433C81.9724 51.4266 81.9276 51.3154 81.852 51.226C81.7765 51.1367 81.6744 51.0739 81.5605 51.047C80.8945 50.9386 80.2912 50.5903 79.8643 50.0678C79.7377 49.5032 79.8005 48.9126 80.0427 48.3872C80.285 47.8618 80.6935 47.4307 81.205 47.1604C81.2928 47.1084 81.3635 47.0318 81.4082 46.9401C81.4529 46.8484 81.4698 46.7456 81.4566 46.6444L80.8487 40.5388C82.7845 39.9905 84.2638 38.0532 84.7866 36.1619C85.7239 36.4051 86.7046 36.4293 87.6527 36.2326C88.6008 36.0359 89.491 35.6235 90.2542 35.0275C90.654 35.4639 91.1497 35.8015 91.7022 36.0136C92.2547 36.2258 92.8489 36.3067 93.438 36.25C93.4335 36.7662 93.5464 37.2767 93.7683 37.7428C93.9901 38.2089 94.315 38.6185 94.7185 38.9405C94.4187 39.8549 94.3897 40.8365 94.6349 41.767C94.8802 42.6975 95.3891 43.5372 96.1006 44.1851C96.1712 44.2533 96.2595 44.3001 96.3555 44.3202C96.4514 44.3402 96.5511 44.3328 96.6431 44.2987C96.735 44.2647 96.8154 44.2053 96.8751 44.1275C96.9348 44.0497 96.9713 43.9566 96.9804 43.859C97.0054 43.1777 97.1921 42.5122 97.525 41.9172C98.0191 41.2582 99.2129 41.4276 99.7454 42.0528C100.123 42.4889 100.371 43.0221 100.462 43.5921C100.552 44.162 100.481 44.7458 100.256 45.2773C100.031 45.8088 99.6622 46.2667 99.1905 46.5991C98.7189 46.9315 98.1635 47.1252 97.5875 47.1581C97.5178 47.1626 97.4497 47.1811 97.3873 47.2126C97.325 47.244 97.2696 47.2878 97.2246 47.3412C97.1795 47.3946 97.1458 47.4565 97.1253 47.5233C97.1048 47.5901 97.0981 47.6603 97.1054 47.7298C97.2868 49.3274 97.2447 50.9425 96.9804 52.5285C96.4245 55.8261 95.8641 55.912 93.8169 58.1407C93.7664 58.1965 93.729 58.2629 93.7074 58.3349C93.6858 58.407 93.6805 58.4829 93.6918 58.5573C93.8169 59.7263 93.9223 60.9035 94.1317 62.0658C94.2153 62.5715 94.3558 63.0663 94.5505 63.5405C94.5638 63.6216 94.6087 63.6942 94.6753 63.7423C94.7419 63.7904 94.8249 63.8102 94.906 63.7974C94.989 63.7816 95.063 63.7352 95.1134 63.6674C95.1637 63.5996 95.1868 63.5153 95.1779 63.4313C95.1779 61.7743 95.3444 63.5413 94.7802 58.6567C95.6924 57.5811 95.361 57.6067 95.6178 57.6624C98.2111 58.1362 101.584 57.4199 102.425 54.8951C103.014 55.0083 103.621 54.9822 104.197 54.8189C104.774 54.6557 105.304 54.3598 105.746 53.955C106.188 53.5502 106.529 53.0476 106.741 52.4875C106.954 51.9273 107.033 51.3252 106.972 50.7291C109.882 49.9314 110.235 46.0373 108.354 43.9584C108.392 43.9543 108.428 43.9382 108.457 43.9125Z" fill="#2B2E3F"/>
<path d="M37.6445 71.71C29.2447 73.8257 17.4463 73.1968 10.9656 67.3925C-1.65226 56.0943 3.28281 37.0228 18.3592 30.4578C42.3996 19.9881 66.1455 38.9556 55.3165 57.603C53.1893 61.1419 50.2119 64.0934 46.6545 66.1896C46.8451 70.483 46.5039 75.2463 47.0191 79.5155C47.0944 79.5728 47.175 79.6481 47.2503 79.7046C47.319 79.7635 47.3622 79.8467 47.3708 79.9367C47.3794 80.0267 47.3528 80.1166 47.2965 80.1874C47.2402 80.2582 47.1587 80.3045 47.069 80.3164C46.9793 80.3283 46.8885 80.305 46.8157 80.2514L46.8021 80.2349L46.7908 80.2401C46.75 80.2462 46.7083 80.2441 46.6682 80.234C46.6282 80.2239 46.5905 80.206 46.5574 80.1813C46.5243 80.1566 46.4964 80.1256 46.4753 80.09C46.4542 80.0545 46.4404 80.0152 46.4346 79.9743L46.4248 79.9321C43.1679 77.2679 40.7222 74.4035 37.6445 71.71ZM46.29 78.8949C45.7913 74.6098 46.0534 70.2465 45.7748 65.9735L45.9849 65.5863C58.9131 57.6128 61.474 41.8148 47.7173 32.8854C39.2655 27.3975 27.9552 27.4457 18.7938 31.4543C4.46009 37.7361 -0.38686 55.7907 11.6699 66.616C17.8591 72.1732 29.5798 72.8202 37.6558 70.8144C37.7229 70.7942 37.794 70.7913 37.8625 70.8061C37.931 70.8208 37.9947 70.8527 38.0475 70.8987C40.8871 73.3527 43.0933 76.0703 46.29 78.8949Z" fill="#2B2E3F"/>
<path d="M137.092 88.6535C130.355 79.0176 123.242 68.8726 112.437 64.1145C108.294 62.297 103.292 61.0105 98.842 61.9964C98.7388 62.0183 98.6442 62.0698 98.5698 62.1446C98.4954 62.2193 98.4445 62.3142 98.4232 62.4175C97.0877 69.2138 91.6502 71.8146 88.2216 69.1731C87.5001 68.6223 86.931 67.8965 86.5681 67.0645C86.2053 66.2324 86.0607 65.3216 86.148 64.418C86.1539 64.3329 86.1397 64.2475 86.1063 64.1689C86.073 64.0903 86.0216 64.0207 85.9562 63.9657C85.8908 63.9108 85.8134 63.8721 85.7302 63.8528C85.6471 63.8335 85.5605 63.8341 85.4776 63.8546C76.0752 66.1158 68.5868 72.384 65.955 77.9714C65.8292 78.2313 65.7245 78.4949 65.5988 78.757C65.5685 78.8347 65.5562 78.9182 65.5629 79.0013C65.5697 79.0844 65.5952 79.1649 65.6375 79.2367C65.6799 79.3085 65.738 79.3698 65.8075 79.4159C65.877 79.4619 65.956 79.4916 66.0386 79.5027C74.4581 80.3184 83.2052 80.1806 91.5523 81.2961C93.1861 81.5138 95.4276 81.568 97.4387 81.983C100.348 82.5856 101.821 83.668 102.906 86.6161C103.974 89.5589 103.637 90.8017 106.194 97.8164C107.661 101.815 109.337 105.739 110.698 109.775C110.728 109.861 110.786 109.934 110.861 109.983C110.937 110.033 111.027 110.057 111.117 110.05C114.808 109.759 118.707 109.384 122.449 109.327C122.534 109.327 122.615 109.293 122.675 109.234C122.735 109.174 122.769 109.092 122.769 109.008C122.769 108.923 122.735 108.842 122.675 108.782C122.615 108.722 122.534 108.688 122.449 108.688H122.041L121.298 108.112C121.34 108.058 121.367 107.994 121.374 107.925C121.381 107.857 121.369 107.788 121.339 107.726C120.736 106.692 120.117 105.402 118.929 103.102C123.258 96.5661 129.026 92.1387 136.839 89.4082C136.911 89.3828 136.977 89.3411 137.031 89.2864C137.084 89.2317 137.125 89.1655 137.15 89.0927C137.174 89.0199 137.181 88.9425 137.171 88.8664C137.161 88.7903 137.134 88.7175 137.092 88.6535ZM117.841 101.045C117.802 101.069 117.758 101.086 117.712 101.093C117.667 101.101 117.62 101.099 117.575 101.088C117.53 101.076 117.488 101.056 117.451 101.029C117.414 101.001 117.383 100.966 117.36 100.926C116.983 100.398 116.584 99.8862 116.249 99.3439C115.385 98.0085 112.08 92.0814 111.242 89.6538C111.204 89.5798 111.195 89.4937 111.219 89.4136C111.242 89.3335 111.296 89.2657 111.369 89.2245C111.446 89.1871 111.534 89.1803 111.616 89.2057C111.697 89.231 111.766 89.2864 111.809 89.3608C113.194 91.5692 111.827 89.1085 115.097 95.144C116.754 98.2058 116.281 97.0692 117.946 100.567C117.994 100.645 118.009 100.738 117.99 100.827C117.97 100.916 117.917 100.994 117.841 101.045Z" fill="#FF6B6B"/>
<path d="M102.801 94.0384C100.375 86.9318 101.01 86.1696 99.4701 84.6451C97.6345 82.7763 93.5197 82.9601 91.2601 82.7304C83.5773 82.0058 76.772 81.712 69.1396 81.361C65.8948 81.2104 59.4939 79.1119 58.1216 83.9973C57.9295 84.9027 57.8878 85.8336 57.9981 86.7526C58.2694 87.9919 58.6191 89.2128 59.045 90.4079C59.1113 90.6474 59.497 91.4722 59.8834 91.357C60.3466 91.2003 59.9587 89.8987 59.8623 89.5786C59.6468 88.7855 59.4427 87.9524 59.1964 87.273C63.1749 87.4448 98.0548 89.1726 100.487 89.2909C102.869 99.6808 107.671 110.075 106.91 113.347C106.583 114.713 105.539 115.291 104.166 115.568C103.882 115.626 103.596 115.665 103.307 115.687C103.217 115.695 103.133 115.737 103.073 115.806C103.014 115.875 102.984 115.964 102.989 116.055C102.995 116.145 103.035 116.23 103.102 116.292C103.169 116.353 103.258 116.385 103.348 116.383C105.495 116.321 107.361 115.695 107.894 113.596C108.451 111.573 107.777 109.319 102.801 94.0384Z" fill="#2B2E3F"/>
<path d="M69.7668 91.2252C69.9875 90.7408 70.2308 90.1948 70.8966 89.0024C70.9319 88.9328 70.9821 88.8719 71.0437 88.8241C71.1054 88.7763 71.1768 88.7428 71.253 88.7259C71.3291 88.709 71.4081 88.7093 71.4841 88.7266C71.5602 88.744 71.6314 88.778 71.6928 88.8262C72.855 89.7247 74.1942 90.4591 75.1696 91.0783C75.7368 91.4376 76.2588 91.8315 76.8041 92.2179C77.189 92.4439 76.8192 93.0615 76.4478 92.8129C74.7351 92.054 73.1004 91.13 71.567 90.0539C71.1584 90.7636 70.7947 91.4982 70.4778 92.2533C70.4476 92.3298 70.3999 92.3981 70.3386 92.4529C70.2772 92.5077 70.2039 92.5473 70.1245 92.5687C70.0451 92.59 69.9618 92.5925 69.8812 92.576C69.8007 92.5594 69.7251 92.5242 69.6606 92.4732C69.235 92.1396 67.0296 90.4569 66.6025 90.1691C66.5635 90.1511 66.5286 90.1253 66.4998 90.0934C66.4711 90.0614 66.4491 90.024 66.4352 89.9833C66.4213 89.9427 66.4158 89.8996 66.4191 89.8568C66.4223 89.8139 66.4342 89.7722 66.454 89.734C66.4739 89.6959 66.5012 89.6622 66.5344 89.6349C66.5677 89.6077 66.6061 89.5874 66.6473 89.5755C66.6886 89.5635 66.7319 89.56 66.7745 89.5652C66.8172 89.5704 66.8584 89.5842 66.8955 89.6057C67.928 89.9993 68.8958 90.5452 69.7668 91.2252Z" fill="#FF6B6B"/>
<path d="M88.7659 92.4544C89.7925 92.5855 89.7579 92.6586 93.1021 92.5697C94.5568 92.6299 96.0134 92.5095 97.4384 92.2111C97.5307 92.203 97.6165 92.1603 97.6786 92.0916C97.7408 92.0228 97.7747 91.9332 97.7736 91.8406C97.7639 91.7487 97.7195 91.664 97.6496 91.6036C97.5796 91.5433 97.4893 91.512 97.397 91.5159C96.7919 91.4515 96.1834 91.4249 95.5749 91.4361C89.489 91.5272 89.7805 91.6199 88.7463 91.818C88.6641 91.8236 88.5872 91.8609 88.5319 91.922C88.4766 91.9831 88.4471 92.0632 88.4496 92.1456C88.4521 92.228 88.4865 92.3062 88.5455 92.3638C88.6045 92.4214 88.6834 92.4539 88.7659 92.4544Z" fill="#FF6B6B"/>
<path d="M102.319 105.081C102.01 104.981 102.121 104.885 101.062 105.014C100.253 105.101 100.302 105.037 99.782 105.355C99.7357 105.361 99.6911 105.376 99.6508 105.399C99.6104 105.423 99.5751 105.454 99.547 105.491C99.5189 105.528 99.4986 105.571 99.4871 105.616C99.4757 105.661 99.4734 105.708 99.4805 105.754C99.4875 105.8 99.5037 105.844 99.5282 105.884C99.5526 105.924 99.5847 105.958 99.6226 105.985C99.6606 106.012 99.7035 106.032 99.749 106.042C99.7945 106.052 99.8416 106.053 99.8874 106.045C100.06 106.114 100.245 106.148 100.431 106.145C100.981 106.124 101.527 106.058 102.066 105.948C102.192 105.882 102.312 105.803 102.421 105.712C102.505 105.697 102.579 105.65 102.63 105.582C102.68 105.514 102.703 105.43 102.694 105.346C102.675 105.263 102.626 105.191 102.557 105.142C102.488 105.093 102.403 105.071 102.319 105.081Z" fill="#FF6B6B"/>
<path d="M103.45 108.831C103.17 108.664 103.149 108.63 102.298 108.686C102.031 108.683 101.764 108.711 101.502 108.768C101.377 108.812 101.257 108.871 101.146 108.944C101.055 108.952 100.971 108.994 100.912 109.063C100.852 109.132 100.822 109.221 100.828 109.312C100.833 109.403 100.874 109.488 100.941 109.549C101.009 109.61 101.097 109.643 101.188 109.64C101.327 109.707 101.475 109.755 101.628 109.782C102.14 109.792 102.651 109.759 103.157 109.681C103.285 109.625 103.404 109.553 103.513 109.466C103.596 109.455 103.672 109.414 103.726 109.351C103.78 109.287 103.809 109.206 103.806 109.122C103.797 109.037 103.755 108.958 103.688 108.903C103.621 108.849 103.536 108.823 103.45 108.831Z" fill="#FF6B6B"/>
<path d="M72.0829 106.178C68.963 106.286 66.7546 109.428 67.3579 111.966C68.2241 115.188 73.4371 116.932 75.8384 113.15C76.3141 112.478 76.5928 111.687 76.6431 110.865C76.6933 110.043 76.513 109.224 76.1226 108.499C75.7322 107.774 75.1472 107.173 74.4334 106.763C73.7197 106.353 72.9056 106.15 72.0829 106.178Z" fill="#2B2E3F"/>
<path d="M76.9124 100.15C75.9269 100.089 74.9464 100.332 74.1036 100.847C73.6786 101.108 73.3204 101.466 73.0573 101.89C72.7943 102.314 72.6337 102.794 72.5882 103.291C72.5675 103.373 72.5796 103.459 72.6218 103.532C72.664 103.605 72.733 103.659 72.8141 103.682C72.8314 103.682 72.8314 103.687 72.8314 103.687C72.8406 103.77 72.8782 103.847 72.9378 103.905C72.9974 103.963 73.0754 103.999 73.1583 104.006C75.241 104.368 76.8242 102.813 77.414 100.832C77.4365 100.753 77.4406 100.67 77.4262 100.59C77.4117 100.51 77.379 100.433 77.3306 100.368C77.2821 100.302 77.2192 100.248 77.1467 100.21C77.0742 100.173 76.9941 100.152 76.9124 100.15Z" fill="#2B2E3F"/>
<path d="M31.365 58.2236C31.293 59.5369 31.3351 60.8539 31.4908 62.1599C31.5436 62.9606 31.5436 63.765 31.6166 64.5642C31.6995 65.4756 31.7296 65.4387 31.7627 65.7693C31.7654 65.8629 31.804 65.9518 31.8705 66.0177C31.9369 66.0836 32.0262 66.1215 32.1198 66.1233C32.2125 66.1246 32.3019 66.089 32.3685 66.0245C32.4351 65.9601 32.4735 65.8718 32.4753 65.7791C32.6932 64.5119 32.7214 63.2193 32.5589 61.9437C32.3329 58.5949 32.1567 58.7991 32.0151 58.1588C32.0031 58.0748 31.9594 57.9985 31.8931 57.9456C31.8267 57.8927 31.7426 57.8671 31.658 57.8741C31.5755 57.8876 31.5005 57.9304 31.4467 57.9945C31.3929 58.0586 31.3639 58.1399 31.365 58.2236Z" fill="#FF6B6B"/>
<path d="M19.8101 61.0716C20.2608 60.8297 20.6893 60.5484 21.0905 60.231C21.3511 60.0314 24.7813 57.2362 24.8566 57.1692C25.0027 57.0464 25.6618 56.3775 25.7364 56.3022C25.81 56.2439 25.8574 56.1587 25.8682 56.0654C25.879 55.9721 25.8523 55.8783 25.794 55.8047C25.7357 55.7311 25.6505 55.6837 25.5572 55.6729C25.4639 55.6621 25.3701 55.6888 25.2965 55.7471C24.1714 56.3562 23.1234 57.0981 22.1752 57.957C21.1211 58.6933 20.1819 59.5817 19.3883 60.5933C19.0772 60.8803 19.5088 61.3488 19.8101 61.0716Z" fill="#FF6B6B"/>
<path d="M42.5054 60.2251C41.7136 59.2118 40.7742 58.3232 39.7185 57.5888C38.7698 56.7305 37.7219 55.9886 36.5972 55.3789C36.5233 55.3234 36.4307 55.2989 36.3391 55.3108C36.2475 55.3226 36.1642 55.3698 36.1069 55.4422C36.0495 55.5147 36.0228 55.6067 36.0324 55.6985C36.042 55.7904 36.0871 55.8749 36.1581 55.934C36.2334 56.0093 36.8917 56.6782 37.0371 56.8009C37.1124 56.8665 40.547 59.6632 40.8077 59.8613C41.2088 60.1787 41.6373 60.46 42.0881 60.7018C42.3834 60.979 42.8188 60.512 42.5054 60.2251Z" fill="#FF6B6B"/>
<path d="M15.9262 51.9229C16.3104 52.0815 16.7107 52.1979 17.1201 52.2701C18.7534 52.3594 20.3909 52.3377 22.0212 52.2053C22.471 52.1386 22.9132 52.0283 23.3416 51.8762C23.4196 51.8761 23.4968 51.8604 23.5686 51.8298C23.6404 51.7993 23.7053 51.7546 23.7594 51.6984C23.8135 51.6423 23.8558 51.5758 23.8837 51.5029C23.9115 51.43 23.9244 51.3523 23.9216 51.2744C23.9188 51.1964 23.9002 51.1198 23.8672 51.0492C23.8341 50.9785 23.7871 50.9153 23.729 50.8632C23.671 50.8111 23.603 50.7712 23.5292 50.746C23.4554 50.7207 23.3773 50.7106 23.2994 50.7162C22.7965 50.5659 22.2743 50.4898 21.7493 50.4903C21.0202 50.4797 17.4229 50.5498 17.0794 50.5904C16.7038 50.6561 16.3329 50.7464 15.9691 50.8609C15.8338 50.864 15.7047 50.9185 15.6082 51.0134C15.5116 51.1083 15.4548 51.2364 15.4493 51.3717C15.4439 51.507 15.4901 51.6393 15.5787 51.7417C15.6673 51.844 15.7916 51.9088 15.9262 51.9229Z" fill="#FF6B6B"/>
<path d="M45.9407 50.7027C45.5525 50.6329 45.1611 50.5826 44.7679 50.5521L40.0754 50.4662C39.5776 50.4678 39.0806 50.5063 38.5885 50.5814C38.543 50.5795 38.4976 50.5867 38.4549 50.6026C38.4121 50.6185 38.373 50.6428 38.3399 50.674C38.3067 50.7052 38.28 50.7428 38.2616 50.7845C38.2431 50.8261 38.2331 50.871 38.2323 50.9166C38.231 51.0083 38.2651 51.097 38.3275 51.1642C38.3899 51.2314 38.4759 51.272 38.5675 51.2774C39.0024 51.3774 39.4431 51.4501 39.8871 51.4951C41.5187 51.6036 43.1549 51.6272 44.789 51.5659C45.1915 51.5167 45.5903 51.4413 45.9829 51.3399C46.0662 51.3328 46.1435 51.2933 46.198 51.2299C46.2526 51.1664 46.28 51.0841 46.2745 51.0006C46.269 50.9171 46.2309 50.8391 46.1685 50.7834C46.1061 50.7277 46.0243 50.6987 45.9407 50.7027Z" fill="#FF6B6B"/>
<path d="M20.0597 41.7877C20.6291 42.9175 20.0838 42.6607 24.1647 45.8407C24.573 46.1503 25.0346 46.3826 25.5265 46.5262C25.6038 46.5991 25.6947 46.656 25.794 46.6938C25.8933 46.7316 25.9991 46.7494 26.1053 46.7463C26.2115 46.7432 26.3161 46.7192 26.413 46.6757C26.51 46.6321 26.5974 46.5699 26.6703 46.4926C26.7432 46.4153 26.8001 46.3244 26.8379 46.2251C26.8757 46.1258 26.8935 46.02 26.8904 45.9138C26.8873 45.8076 26.8633 45.7031 26.8198 45.6061C26.7762 45.5092 26.714 45.4218 26.6367 45.3489C26.0003 44.1769 26.2029 44.3253 24.6889 43.0719C23.8292 42.2613 22.8804 41.5507 21.8606 40.9539C21.5879 40.8371 21.3582 40.7972 21.0855 40.6963C20.9408 40.5602 20.748 40.4873 20.5494 40.4934C20.3509 40.4995 20.1629 40.5843 20.0269 40.729C19.8909 40.8738 19.8179 41.0666 19.824 41.2651C19.8302 41.4637 19.9149 41.6516 20.0597 41.7877Z" fill="#FF6B6B"/>
<path d="M41.1018 40.6377C40.6625 40.8874 40.2423 41.1694 39.8447 41.4813C36.5155 44.2245 36.6255 43.9669 35.5717 45.3174C35.2456 45.6104 35.7043 46.1361 36.0538 45.822C37.2898 44.9558 36.0696 45.9636 40.0127 42.7052C40.6056 42.2589 41.122 41.7191 41.5417 41.1069C41.6006 41.0476 41.6353 40.9685 41.6392 40.885C41.6431 40.8015 41.6159 40.7195 41.5628 40.655C41.5034 40.5926 41.4219 40.5559 41.3358 40.5527C41.2497 40.5494 41.1658 40.5799 41.1018 40.6377Z" fill="#FF6B6B"/>
<path d="M33.792 39.687C33.749 39.2215 33.6797 38.7832 33.6345 38.3734C33.5125 37.6548 33.4839 36.2026 32.6659 35.7311C32.6083 35.6857 32.5355 35.6642 32.4625 35.6709C32.4823 35.6067 32.4811 35.5379 32.4591 35.4744C32.4371 35.411 32.3955 35.3562 32.3402 35.318C32.2849 35.2799 32.2189 35.2604 32.1518 35.2623C32.0846 35.2643 32.0199 35.2876 31.9669 35.3289C30.1065 36.5341 29.6854 40.0087 29.6003 42.2254C29.4561 43.4223 29.6432 44.6359 30.1411 45.7338C30.2606 46.0048 30.4537 46.2367 30.6986 46.4033C30.9434 46.5699 31.23 46.6644 31.5259 46.6761C31.8218 46.6878 32.115 46.6162 32.3722 46.4695C32.6294 46.3227 32.8402 46.1067 32.9807 45.8461C33.9938 44.2139 33.9705 41.6009 33.792 39.687Z" fill="#FF6B6B"/>
<path d="M127.267 108.506C126.112 108.493 125.145 108.431 122.206 108.571C122.15 108.396 122.086 108.223 122.015 108.053C122.006 108.033 120.403 104.549 120.297 104.344C119.608 102.648 117.954 101.885 120.13 106.541C120.436 107.257 120.788 107.953 121.184 108.624C120.059 108.687 118.692 108.774 117.003 108.898C114.715 108.995 112.439 109.272 110.195 109.726C110.152 109.73 110.11 109.742 110.072 109.761C110.034 109.781 110.001 109.808 109.973 109.842C109.946 109.875 109.926 109.913 109.913 109.954C109.901 109.995 109.897 110.038 109.902 110.081C109.914 110.165 109.957 110.24 110.024 110.293C110.09 110.345 110.174 110.369 110.258 110.361C113.256 110.266 123.162 109.683 127.309 109.204C127.401 109.197 127.486 109.156 127.549 109.088C127.611 109.02 127.645 108.931 127.644 108.839C127.635 108.746 127.591 108.66 127.521 108.598C127.451 108.537 127.36 108.504 127.267 108.506Z" fill="#2B2E3F"/>
<path d="M137.764 90.7761C141.216 97.1875 144.855 104.091 145.681 110.748C146.411 116.627 144.018 121.492 138.287 123.416C133.039 125.178 128.947 124.026 122.997 124.009C122.904 124.008 122.815 124.044 122.748 124.108C122.682 124.173 122.643 124.26 122.641 124.353C122.639 124.444 122.673 124.532 122.736 124.598C122.799 124.664 122.885 124.703 122.976 124.707C125.302 124.773 127.42 125.097 129.491 125.281C141.775 126.366 147.906 119.903 146.751 110.616C146.138 106.6 144.909 102.702 143.106 99.0608C141.308 95.2691 140.054 93.4983 138.31 90.4605C138.289 90.4247 138.261 90.3933 138.229 90.3681C138.196 90.3429 138.158 90.3244 138.118 90.3137C138.078 90.303 138.036 90.3003 137.995 90.3057C137.954 90.3111 137.915 90.3246 137.879 90.3453C137.843 90.366 137.812 90.3936 137.786 90.4265C137.761 90.4593 137.743 90.4968 137.732 90.5368C137.721 90.5769 137.719 90.6186 137.724 90.6596C137.729 90.7007 137.743 90.7403 137.764 90.7761Z" fill="#2B2E3F"/>
<path d="M88.8445 43.1262C88.8445 43.6262 88.9596 44.1058 89.1644 44.4593C89.3692 44.8129 89.647 45.0115 89.9367 45.0115C90.2264 45.0115 90.5042 44.8129 90.709 44.4593C90.9138 44.1058 91.0289 43.6262 91.0289 43.1262C91.0289 42.6262 90.9138 42.1467 90.709 41.7931C90.5042 41.4395 90.2264 41.2409 89.9367 41.2409C89.647 41.2409 89.3692 41.4395 89.1644 41.7931C88.9596 42.1467 88.8445 42.6262 88.8445 43.1262Z" fill="#2B2E3F"/>
<path d="M82.3953 45.6398C82.3953 46.1398 82.5103 46.6194 82.7152 46.9729C82.92 47.3265 83.1978 47.5251 83.4874 47.5251C83.7771 47.5251 84.0549 47.3265 84.2597 46.9729C84.4645 46.6194 84.5796 46.1398 84.5796 45.6398C84.5796 45.1398 84.4645 44.6603 84.2597 44.3067C84.0549 43.9531 83.7771 43.7545 83.4874 43.7545C83.1978 43.7545 82.92 43.9531 82.7152 44.3067C82.5103 44.6603 82.3953 45.1398 82.3953 45.6398Z" fill="#2B2E3F"/>
<path d="M58.5182 126.594C57.2732 126.573 56.0627 126.182 55.0414 125.469C54.0365 124.723 53.3185 123.654 53.0077 122.442C44.7795 93.3589 45.6344 96.2912 45.6344 95.9816C45.5172 95.4083 45.5357 94.8156 45.6884 94.2507C45.8412 93.6858 46.124 93.1645 46.5142 92.7285C46.9593 92.3593 47.4748 92.0845 48.0293 91.9207C48.5839 91.7569 49.166 91.7076 49.7402 91.7757C51.5833 91.8344 89.5605 94.1054 89.962 94.1302C91.2226 94.1131 92.463 94.4475 93.5443 95.0958C94.0972 95.4563 94.5603 95.9386 94.8979 96.5057C95.2356 97.0729 95.4388 97.7099 95.4921 98.3678C95.9101 101.94 102.798 119.634 104.144 123.045L118.241 123.787C120.363 123.897 121.043 126.876 118.974 127.704C118.406 127.932 122.364 126.906 58.5182 126.594ZM46.2641 95.846C46.1669 95.3846 46.1808 94.9067 46.3047 94.4517C46.4286 93.9967 46.6589 93.5778 46.9767 93.2294C47.3601 92.9348 47.7983 92.7194 48.2658 92.5957C48.7332 92.4719 49.2206 92.4423 49.6996 92.5085C50.7337 92.5575 89.8844 95.1892 89.9597 95.1817C91.0127 95.1641 92.0499 95.4398 92.9553 95.9779C93.3789 96.2541 93.7334 96.624 93.9914 97.059C94.2493 97.494 94.4038 97.9826 94.4429 98.4868C94.8805 102.26 101.824 120.243 103.262 123.76C103.302 123.856 103.368 123.939 103.454 123.999C103.539 124.059 103.639 124.094 103.744 124.099L118.176 124.861C118.364 124.869 118.546 124.929 118.701 125.036C118.856 125.142 118.978 125.29 119.052 125.463C119.127 125.635 119.151 125.826 119.122 126.011C119.092 126.197 119.011 126.371 118.888 126.512C118.71 126.675 118.479 126.765 118.238 126.766L58.4971 125.56C57.4774 125.545 56.4856 125.225 55.6485 124.643C54.8237 124.035 54.2324 123.163 53.9733 122.172C53.9515 122.096 46.3395 95.846 46.2641 95.846Z" fill="#2B2E3F"/>
<path d="M45.1751 105.383C44.6139 106.363 44.1374 107.389 43.7507 108.45C42.5674 111.915 42.1999 116.337 44.8188 118.944C46.726 120.842 48.9434 121.26 51.1029 121.886C51.1893 121.915 51.2839 121.909 51.3662 121.87C51.4485 121.83 51.5119 121.76 51.5428 121.674C51.5708 121.587 51.5648 121.493 51.5259 121.41C51.487 121.328 51.4182 121.263 51.3334 121.23C50.5545 120.928 49.8074 120.613 49.0737 120.31C44.7051 118.513 42.6654 116.114 44.7375 108.756C45.013 107.703 45.3559 106.669 45.7641 105.66C45.7822 105.621 45.7926 105.579 45.7946 105.537C45.7965 105.494 45.7901 105.451 45.7756 105.411C45.7611 105.371 45.7388 105.334 45.71 105.302C45.6812 105.271 45.6465 105.245 45.6078 105.227C45.5691 105.209 45.5273 105.199 45.4846 105.197C45.4419 105.195 45.3993 105.201 45.3591 105.216C45.3189 105.23 45.282 105.252 45.2504 105.281C45.2188 105.31 45.1932 105.345 45.1751 105.383Z" fill="#2B2E3F"/>
</svg>
