<svg width="151" height="151" viewBox="0 0 151 151" fill="none" xmlns="http://www.w3.org/2000/svg">
<path d="M136.471 128.169C100.032 128.401 62.629 128.109 25.8337 128.107C25.2582 128.107 25.1791 128.985 25.7584 128.985C62.5582 128.985 99.6346 128.858 136.395 128.897C136.883 128.898 136.958 128.166 136.471 128.169Z" fill="#2B2E3F"/>
<path d="M115.577 31.3473C116.733 34.5981 117.704 44.0088 117.597 47.2974C117.561 48.6987 117.221 50.0755 116.6 51.3323C116.564 51.4014 116.555 51.4817 116.575 51.557C116.596 51.6324 116.644 51.697 116.711 51.7379C116.778 51.7787 116.857 51.7927 116.934 51.777C117.01 51.7613 117.078 51.717 117.123 51.6532C118.506 49.725 118.328 46.4854 118.203 44.216C118.026 41.0238 117.351 35.1246 116.297 31.65C115.984 30.6189 115.859 30.5074 114.769 30.1534C113.483 29.7346 110.528 29.9907 110.626 31.0317C111.014 35.2331 110.581 38.4953 110.306 42.6041C110.284 42.9295 110.798 42.9423 110.868 42.644C111.509 38.802 111.666 34.8946 111.334 31.0136C112.649 30.2792 115.372 30.7718 115.577 31.3473Z" fill="#2B2E3F"/>
<path d="M79.0011 43.6187C78.7785 43.4835 78.5285 43.3998 78.2695 43.3738C78.0104 43.3477 77.7487 43.3799 77.5037 43.4681C76.2513 43.75 75.1103 44.3959 74.2242 45.3247C73.7851 45.8429 73.9229 45.9431 74.1715 46.5193C76.2075 50.9617 78.9078 55.0683 82.1797 58.6981C83.3946 60.0735 84.7406 61.4714 86.7502 61.1837C88.6551 60.9148 92.4867 58.6085 96.2068 57.8116C96.4968 57.7498 96.4328 57.2677 96.1368 57.2979C92.3918 57.6843 89.1431 60.0946 86.702 60.4237C84.8799 60.67 83.8187 59.4219 82.6933 58.1641C79.3159 54.398 76.9599 50.3186 74.5933 45.9062C75.639 44.8885 76.9872 44.2385 78.4347 44.0541C82.1096 46.0998 84.767 50.0331 86.9957 52.466C87.1998 52.6919 87.6397 52.466 87.4702 52.1541C87.3702 51.9689 87.2588 51.79 87.1366 51.6186C92.5478 47.1732 99.2302 44.5599 106.222 44.155C108.202 44.0744 110.187 44.1212 112.161 44.2951C112.23 44.3057 112.3 44.2891 112.356 44.2488C112.413 44.2084 112.451 44.1477 112.463 44.0794C112.475 44.0112 112.46 43.9409 112.421 43.8836C112.382 43.8264 112.322 43.7867 112.254 43.7731C109.23 43.1977 104.544 43.4794 101.51 44.0744C96.734 45.0061 90.3197 47.6484 86.6839 51.0416C85.0682 49.0758 81.2532 44.9504 79.0011 43.6187Z" fill="#2B2E3F"/>
<path d="M111.568 48.2594C109.893 46.9427 107.954 46.0035 105.883 45.5064C105.606 45.4582 105.443 45.883 105.72 45.9937C107.489 46.5914 109.168 47.4306 110.708 48.4876C116.608 52.5768 120.621 58.9716 123.659 65.3551C120.586 64.9167 109.273 66.5979 106.045 68.8237C103.973 65.9878 97.3262 59.7052 93.8531 59.3332C93.78 59.3191 93.7043 59.334 93.6422 59.3749C93.58 59.4158 93.5362 59.4794 93.5202 59.552C93.5042 59.6247 93.5172 59.7008 93.5565 59.764C93.5957 59.8272 93.6581 59.8726 93.7303 59.8905C97.4753 61.0369 103.002 66.1776 105.426 69.2643C105.86 69.8172 106.142 69.4044 108.157 68.5864C111.09 67.3926 120.891 65.4048 124.208 66.216C124.955 66.3983 124.369 65.1081 124.208 64.7849C121.104 58.5558 117.329 52.3486 111.568 48.2594Z" fill="#2B2E3F"/>
<path d="M74.3468 44.6107C74.4227 44.57 74.4804 44.5021 74.5083 44.4207C74.5363 44.3393 74.5324 44.2503 74.4975 44.1716C73.7284 42.934 72.6144 41.3967 71.0071 41.3749C70.7344 41.3749 70.6305 41.8155 70.9235 41.8712C73.3571 42.3367 73.6313 44.9918 74.3468 44.6107Z" fill="#2B2E3F"/>
<path d="M70.0621 40.8658C71.2447 40.3079 72.5868 40.1875 73.8498 40.526C75.1129 40.8644 76.2149 41.6398 76.9601 42.7142C77.0035 42.7771 77.0675 42.8229 77.141 42.8438C77.2145 42.8647 77.2929 42.8594 77.3629 42.8287C77.4329 42.7981 77.4901 42.7441 77.5246 42.6759C77.5591 42.6077 77.5689 42.5297 77.5521 42.4551C76.9059 39.8429 72.2532 39.0762 69.9047 40.4666C69.6976 40.5886 69.8023 40.975 70.0621 40.8658Z" fill="#2B2E3F"/>
<path d="M111.292 29.4161C111.355 29.437 111.423 29.4356 111.485 29.4119C111.546 29.3882 111.598 29.3437 111.631 29.2862C111.663 29.2286 111.675 29.1615 111.664 29.0963C111.652 29.0311 111.619 28.9719 111.568 28.9287C110.454 27.8132 111.332 26.1885 110.891 25.3886C110.863 25.33 110.818 25.2817 110.761 25.251C110.704 25.2202 110.638 25.2087 110.574 25.218C110.51 25.2273 110.451 25.2569 110.405 25.3026C110.359 25.3483 110.329 25.4075 110.32 25.4715C110.261 26.259 110.25 27.0492 110.284 27.8381C110.289 28.1689 110.385 28.4918 110.563 28.7706C110.741 29.0494 110.994 29.2729 111.292 29.4161Z" fill="#2B2E3F"/>
<path d="M113.395 26.9484C113.676 26.6475 113.925 26.3178 114.137 25.9647C115.062 25.9832 115.98 26.131 116.864 26.4039C117.582 26.623 117.711 26.1274 117.263 25.8992C117.553 25.3328 118.384 23.1161 118.119 22.4615C118.102 22.4201 118.074 22.3841 118.038 22.3571C118.002 22.33 117.96 22.313 117.915 22.3076C117.87 22.3023 117.825 22.3088 117.784 22.3266C117.743 22.3443 117.707 22.3727 117.68 22.4088C117.428 23.5237 117.107 24.622 116.719 25.6973C116.43 25.6121 116.137 25.5417 115.841 25.4864C116.419 24.3694 117.298 21.0846 116.362 21.4831C115.914 21.6737 116.517 22.6679 115.239 25.3938C114.989 25.3588 114.738 25.3412 114.486 25.3411C114.982 24.3401 115.233 23.2358 115.219 22.1188C115.204 22.0587 115.17 22.0051 115.122 21.966C115.074 21.9269 115.015 21.9045 114.953 21.902C114.891 21.8995 114.83 21.9172 114.779 21.9524C114.728 21.9875 114.69 22.0383 114.67 22.097C114.269 23.3669 114.218 25.4292 112.66 26.8912C112.205 27.3205 112.865 27.5066 113.395 26.9484Z" fill="#2B2E3F"/>
<path d="M115.467 29.6833C115.341 29.9643 115.783 30.2271 115.946 29.9515C116.685 28.6981 118.518 28.0413 119.226 24.099C119.228 24.0418 119.211 23.9855 119.176 23.9396C119.142 23.8936 119.093 23.8608 119.038 23.8464C118.982 23.8321 118.924 23.8371 118.872 23.8608C118.819 23.8844 118.777 23.9251 118.751 23.9762C118.404 25.0686 117.964 26.1291 117.435 27.1457C116.858 28.0986 115.867 28.7968 115.467 29.6833Z" fill="#2B2E3F"/>
<path d="M78.3023 42.7277C79.3568 42.5959 83.132 45.8754 83.9575 47.2365C84.673 47.3238 87.2242 47.72 89.3091 46.2C91.0309 44.9452 87.8117 39.0716 82.4601 38.7364C80.0189 38.5858 77.995 40.1502 77.574 41.4804C77.9378 41.8125 78.1919 42.2476 78.3023 42.7277Z" fill="#2B2E3F"/>
<path d="M93.502 46.0599C93.6821 45.9846 93.8576 45.6298 93.502 45.6208C92.5765 45.5861 91.6555 45.473 90.749 45.2826C90.6775 45.2793 90.6072 45.3022 90.5513 45.347C90.4954 45.3917 90.4577 45.4554 90.4453 45.5259C90.433 45.5965 90.4467 45.6691 90.4841 45.7302C90.5214 45.7914 90.5797 45.8368 90.6481 45.8581C91.5753 46.1215 92.547 46.1902 93.502 46.0599Z" fill="#2B2E3F"/>
<path d="M82.7319 38.0999C82.5885 37.6339 82.5605 37.1401 82.6503 36.6609C82.7402 36.1817 82.9451 35.7315 83.2476 35.3491C83.5501 34.9668 83.941 34.6636 84.3867 34.4659C84.8323 34.2682 85.3193 34.1818 85.8058 34.2141C89.0785 34.3933 90.8795 38.2061 96.6521 36.256C97.8106 35.8644 96.3576 35.8832 95.1811 35.4923C93.0164 34.7722 90.4569 26.0078 83.6742 27.1986C78.4017 28.1236 77.1212 33.8849 80.2365 38.3462C81.0336 38.0519 81.8928 37.9671 82.7319 38.0999Z" fill="#2B2E3F"/>
<path d="M143.768 103.147C142.328 102.319 129.24 92.6777 128.959 92.4615C128.678 92.2454 128.88 72.1473 124.625 66.9968C117.127 66.163 108.745 68.7533 106.291 70.2808C102.05 81.7297 100.123 96.3866 99.8334 99.8822C99.5441 103.378 99.9034 119.293 100.273 122.678C101.66 123.117 105.765 123.117 106.928 122.527C107.095 121.306 109.325 101.06 109.813 100.11C113.562 92.5174 116.891 84.7244 119.783 76.766C119.805 76.7139 119.846 76.6721 119.898 76.6495C119.95 76.6269 120.008 76.625 120.061 76.6444C120.114 76.6638 120.158 76.7029 120.183 76.7536C120.208 76.8043 120.213 76.8627 120.196 76.9167C118.916 80.3739 117.632 83.8307 116.345 87.2869C117.329 90.0264 120.331 96.4574 122.053 98.8292C123.988 101.493 136.666 106.995 140.774 108.549C140.69 106.932 142.218 103.758 143.768 103.147Z" fill="#2B2E3F"/>
<path d="M100.268 123.786C100.317 123.754 100.355 123.707 100.374 123.651C100.394 123.595 100.394 123.534 100.376 123.478C100.357 123.422 100.321 123.374 100.272 123.341C100.223 123.307 100.164 123.292 100.105 123.295C98.9421 123.357 95.3597 124.916 94.2706 125.856C93.2568 126.735 94.2924 127.369 95.1481 127.401C98.161 127.515 101.734 127.491 104.767 127.401C107.051 127.334 107.647 127.144 107.587 125.549C107.565 124.812 107.342 124.095 106.941 123.476C106.704 123.161 106.247 123.476 106.366 123.819C106.678 124.511 106.854 125.256 106.884 126.014C106.849 126.414 106.445 126.637 105.738 126.668C104.921 126.704 95.4027 126.954 94.6389 126.668C94.898 125.701 99.6945 124.155 100.268 123.786Z" fill="#2B2E3F"/>
<path d="M146.015 104.706C145.744 104.408 145.387 104.202 144.994 104.116C144.601 104.03 144.19 104.069 143.82 104.228C143.561 104.355 143.687 104.814 143.983 104.728C144.298 104.642 144.632 104.655 144.94 104.765C145.248 104.875 145.514 105.077 145.704 105.343C147.023 107.124 145.168 114.519 144.685 116.608C144.335 118.123 143.514 118.726 143.047 116.745C142.481 113.963 142.12 111.143 141.967 108.309C141.933 107.953 141.37 107.992 141.348 108.34C141.229 110.232 141.875 115.93 142.534 117.585C143.374 119.701 144.887 118.701 145.37 116.598C145.928 114.159 148.043 106.66 146.015 104.706Z" fill="#2B2E3F"/>
<path d="M47.614 100.241C48.237 100.241 48.1579 99.2988 47.6404 99.3282C43.6326 99.584 39.6085 99.3309 35.6643 98.575C28.5351 97.1544 22.651 92.3444 21.0142 84.9628C19.9718 79.6717 20.5439 74.1894 22.6562 69.2274C27.1695 59.0786 36.4318 56.3406 47.495 56.7172C48.6542 56.7564 48.7401 56.9432 49.0233 55.6288C50.6051 48.2722 56.096 44.1212 63.4188 43.1947C65.6392 42.9317 67.8746 42.8159 70.1104 42.8483C70.5487 42.8483 70.8786 42.0461 70.0486 42.0197C67.7212 41.9534 53.993 42.0197 51.6701 42.0197C47.3451 42.0197 43.0255 41.5392 39.3106 43.9382C36.1139 46.0035 33.324 50.4987 32.7689 54.313C32.7177 54.6685 33.3368 54.9321 33.4016 54.5322C34.1036 50.1966 37.6113 43.6693 44.7157 42.9725C46.5385 42.7933 46.2025 42.8581 60.6349 42.8581C54.7078 44.3246 49.659 48.3377 48.1534 55.8759C40.8253 55.5377 26.829 55.0263 22.2502 55.6296C10.0798 57.24 1.41779 72.2568 4.33349 85.4502C6.65566 95.9598 14.9132 99.8012 25.1177 100.178C27.8745 100.276 44.8565 100.241 47.614 100.241ZM25.9779 99.3854C15.6483 99.1007 7.23714 95.9425 5.14998 85.0284C2.91292 73.3324 9.16387 59.178 21.14 56.6931C24.7313 55.9482 32.3705 56.2759 38.3412 56.4257C31.4869 57.6414 26.0111 61.0693 22.6193 67.3617C20.0832 72.2737 19.1177 77.8464 19.8535 83.3253C20.9683 92.08 27.229 97.6425 35.659 99.4382C31.2858 99.4336 27.1499 99.4178 25.9779 99.3854Z" fill="#FF6B6B"/>
<path d="M104.592 71.9894C102.233 66.6882 95.4556 64.2358 89.2265 64.6967C89.2265 63.8893 89.3357 61.6387 88.5486 61.7818C87.946 61.891 88.4732 62.6593 88.4868 64.3194C88.4943 65.2503 88.4514 65.5396 89.4178 65.4492C93.3247 65.0779 101.142 66.6182 103.796 72.3464C103.843 72.452 103.931 72.5344 104.039 72.5756C104.147 72.6168 104.267 72.6133 104.373 72.566C104.478 72.5186 104.561 72.4313 104.602 72.3231C104.643 72.215 104.639 72.0949 104.592 71.9894Z" fill="#FF6B6B"/>
<path d="M98.4805 97.8924C95.4323 99.2805 89.8524 98.4829 86.7891 98.8716C86.3854 98.9228 86.4818 99.5585 86.8554 99.5607C90.1613 99.5803 95.9693 99.9373 98.8586 98.6124C99.3332 98.394 98.955 97.6769 98.4805 97.8924Z" fill="#FF6B6B"/>
<path d="M66.6998 69.4299C66.0889 69.4202 64.6578 66.2069 63.8677 65.645C63.0775 65.0831 53.77 64.4595 52.9754 65.5577C52.1808 66.6559 52.7992 94.0029 52.4308 97.2297C52.0791 100.303 49.7946 101.618 47.1621 101.726C42.4816 101.915 37.8327 101.824 33.0122 101.791C32.3712 101.787 32.3493 102.62 33.0122 102.669C37.3755 102.977 47.7594 102.995 51.7944 102.928C59.7536 102.797 73.5623 103.019 80.7179 102.529C82.0504 102.448 83.3118 101.901 84.2804 100.982C85.2489 100.063 85.8624 98.8325 86.013 97.5061C86.4792 93.0968 86.5274 72.3735 85.192 70.6374C84.4267 69.6431 82.6732 69.6868 66.6998 69.4299ZM77.1175 79.4477C75.3617 81.2554 73.6052 83.0782 71.8495 84.9003C73.6406 86.7268 75.2066 88.4321 76.6 90.1035C77.3299 90.9795 76.0442 91.9933 75.2826 91.2273C73.6758 89.6109 72.0659 88.001 70.453 86.3977C68.5436 88.417 66.6621 90.465 64.7196 92.452C64.007 93.1804 62.7175 92.1665 63.3585 91.3146C64.4296 89.8926 67.7882 86.253 69.0076 84.9492C67.4665 83.4691 65.9782 81.9363 64.3844 80.5105C62.6286 78.9385 64.5199 77.93 65.2973 78.5612C66.3322 79.401 69.3646 82.4199 70.4124 83.4571C72.1681 81.6305 73.8659 79.7279 75.7029 77.9737C75.9017 77.8048 76.1574 77.7182 76.4179 77.7315C76.6783 77.7448 76.9239 77.857 77.1044 78.0453C77.2849 78.2335 77.3868 78.4835 77.3892 78.7443C77.3917 79.0051 77.2945 79.2569 77.1175 79.4485V79.4477Z" fill="#FF6B6B"/>
</svg>
