<svg width="151" height="151" viewBox="0 0 151 151" fill="none" xmlns="http://www.w3.org/2000/svg">
<path d="M136.582 48.068C134.981 47.7991 132.907 49.3861 133.07 52.7929C133.154 54.7249 133.894 57.6805 136.272 57.8801C138.372 58.0579 138.671 54.2835 138.697 52.8712C138.734 51.3174 138.577 48.4032 136.582 48.068Z" fill="#00C896"/>
<path d="M136.391 42.4812C129.179 42.4812 124.842 47.2581 124.842 53.8201C124.88 56.6154 126.006 59.2858 127.982 61.264C129.957 63.2421 132.626 64.3722 135.421 64.4141C142.466 64.4141 146.97 60.6345 146.875 53.3479C146.78 46.0612 142.461 42.4812 136.391 42.4812ZM136.287 59.1175C133.384 58.8411 132.129 55.4373 132.008 52.9539C131.866 50.0917 133.347 46.4341 136.78 46.9802C139.153 47.3568 139.815 50.0683 139.804 52.6338C139.797 54.8031 139.29 59.3992 136.287 59.1137V59.1175Z" fill="#00C896"/>
<path d="M65.1856 107.5C64.7103 107.777 65.4379 108.859 65.7128 109.542C65.9072 110.069 66.7628 109.663 66.5007 109.138C66.3147 108.843 65.7452 107.173 65.1856 107.5Z" fill="#00C896"/>
<path d="M104.647 120.404C104.594 120.425 104.549 120.461 104.517 120.508C104.486 120.555 104.469 120.611 104.469 120.667C104.469 120.724 104.486 120.78 104.517 120.827C104.549 120.874 104.594 120.91 104.647 120.931C105.219 121.151 112.033 121.534 112.563 121.056C112.606 121.022 112.642 120.979 112.669 120.931C112.696 120.883 112.712 120.83 112.719 120.775C112.725 120.72 112.72 120.665 112.705 120.612C112.69 120.559 112.664 120.509 112.63 120.466C112.221 119.945 105.265 120.2 104.647 120.404Z" fill="#00C896"/>
<path d="M69.8319 68.2005C70.2575 65.5755 69.4176 54.4257 69.8319 49.2646C70.0051 47.231 70.0684 46.2254 72.3574 46.1154C76.11 45.9317 88.1848 45.7004 91.0718 45.9648C95.0308 46.3324 94.0282 51.3044 97.7868 52.984C99.645 53.8186 119.032 53.5926 122.329 53.6401C122.401 53.6487 122.475 53.6421 122.545 53.6207C122.615 53.5993 122.68 53.5636 122.735 53.5158C122.79 53.4681 122.835 53.4093 122.867 53.3433C122.898 53.2773 122.916 53.2054 122.918 53.1323C122.92 53.0593 122.907 52.9865 122.879 52.9187C122.852 52.8509 122.811 52.7896 122.758 52.7386C122.706 52.6876 122.644 52.6481 122.575 52.6225C122.507 52.5969 122.433 52.5859 122.36 52.5901C120.108 52.5901 99.3979 52.5532 98.0647 51.8708C95.4397 50.527 95.5874 46.6216 92.9361 45.3035C91.3611 44.5216 75.4547 44.8312 72.084 45.0677C69.3175 45.2568 69.0237 46.6427 68.7563 49.0831C68.4889 51.5235 68.8874 67.079 69.1231 68.2502C69.1331 68.3416 69.178 68.4256 69.2485 68.4846C69.3191 68.5435 69.4097 68.5729 69.5014 68.5665C69.5932 68.56 69.6788 68.5183 69.7404 68.4501C69.802 68.3818 69.8348 68.2924 69.8319 68.2005Z" fill="#00C896"/>
<path d="M142.358 64.9272C142.354 64.6538 141.587 64.6433 141.592 64.9272C141.844 81.4581 142.797 98.0785 142.915 114.301C142.915 115.744 142.694 119.303 140.71 119.403C139.104 119.487 137.129 117.156 136.594 115.863C131.035 102.407 126.363 88.5014 120.656 75.1461C118.383 69.8382 115.039 69.8962 110.062 69.8962C92.2715 69.8593 73.9917 69.8488 56.2166 70.1064C50.7987 70.1817 49.4286 72.5001 51.0458 77.3561C52.3315 81.2359 57.1408 94.2914 59.4449 97.305C59.6339 97.5408 60.0173 97.3366 59.9073 97.0685C57.671 91.6664 53.7016 82.6376 51.5466 75.8074C50.4492 72.3268 52.864 71.2927 56.3604 71.2399C74.0309 70.9989 92.3258 71.1827 109.949 70.9778C115.141 70.9198 117.514 71.1352 119.756 75.9385C125.168 87.4876 129.693 101.316 134.455 113.4C135.41 115.842 136.067 117.82 138.381 119.537C136.764 119.537 125.063 119.505 123.981 119.914C123.917 119.934 123.861 119.974 123.821 120.028C123.781 120.082 123.76 120.148 123.76 120.215C123.76 120.282 123.781 120.348 123.821 120.402C123.861 120.456 123.917 120.496 123.981 120.516C125.337 120.999 139.463 120.479 140.778 120.469C144.143 120.437 143.791 114.518 143.791 114.347C143.747 105.474 142.476 74.0879 142.358 64.9272Z" fill="#00C896"/>
<path d="M89.9224 118.225C89.3952 118.429 83.0508 127.517 82.3632 127.517C81.6755 127.517 76.0361 121.895 75.6068 121.946C75.1775 121.998 69.8824 129.512 70.1528 129.926C70.4232 130.34 97.325 130.251 97.9758 129.706C98.6266 129.161 90.4617 118.015 89.9224 118.225Z" fill="#00C896"/>
<path d="M77.3336 114.67C76.4613 111.757 71.3222 111.846 72.0053 116.245C72.5717 119.952 78.5086 118.598 77.3336 114.67ZM76.2836 114.67C77.5332 117.217 73.1336 118.933 72.9242 115.574C72.803 113.153 75.5695 113.216 76.2994 114.697L76.2836 114.67Z" fill="#00C896"/>
<path d="M93.6864 102.98C93.7004 104.331 94.249 105.621 95.2124 106.569C96.1757 107.516 97.4752 108.044 98.8264 108.035C101.146 108.035 103.966 106.46 103.934 102.528C103.88 95.8151 93.6171 95.6012 93.6864 102.98ZM97.503 105.232C97.32 105.021 97.3192 100.696 97.5512 100.46C97.7832 100.224 100.969 102.644 100.969 103.038C100.969 103.431 97.6348 105.383 97.503 105.232Z" fill="#00C896"/>
<path d="M136.66 139.549C92.7042 139.532 48.922 139.601 4.1734 139.549C3.60171 139.549 3.64615 140.41 4.20503 140.42C48.4023 140.948 92.7411 140.599 136.702 140.63C137.426 140.645 137.379 139.549 136.66 139.549Z" fill="#2B2E3F"/>
<path d="M59.2335 33.0962C59.6606 33.3177 59.9212 32.697 59.6689 32.4763C59.3862 32.2605 59.0404 32.1436 58.6848 32.1436C58.3292 32.1436 57.9834 32.2605 57.7007 32.4763C57.5011 32.6865 57.6111 33.0036 57.9101 32.9493C58.3539 32.8281 58.8271 32.8807 59.2335 33.0962Z" fill="#2B2E3F"/>
<path d="M57.0592 36.8548C57.0878 37.7948 58.5657 38.5819 59.1592 37.4272C59.3219 37.1176 59.0281 36.802 58.8391 37.1907C58.65 37.5794 57.7891 37.8309 57.4373 36.7712C57.3477 36.4819 57.0517 36.6062 57.0592 36.8548Z" fill="#2B2E3F"/>
<path d="M57.546 34.9702C57.8232 35.3859 58.843 34.3676 58.2917 34.0565C57.8367 33.8102 57.363 34.693 57.546 34.9702Z" fill="#2B2E3F"/>
<path d="M55.7376 37.9731C55.8008 38.0079 55.8743 38.0189 55.9449 38.0041C56.0155 37.9893 56.0784 37.9497 56.1223 37.8925C56.1661 37.8352 56.188 37.7641 56.1839 37.6921C56.1798 37.6201 56.15 37.552 56.0999 37.5001C54.8029 36.4087 54 37.595 54.7193 37.595C55.2104 37.595 55.2857 37.7012 55.7376 37.9731Z" fill="#2B2E3F"/>
<path d="M61.8941 35.212C62.2376 35.212 62.148 34.5002 61.8678 34.162C61.6056 33.8728 61.1387 34.162 61.3405 34.3978C61.7262 34.8603 61.5107 35.212 61.8941 35.212Z" fill="#2B2E3F"/>
<path d="M60.7134 35.9102C60.4121 35.5614 59.7478 36.2981 59.9993 36.5768C60.2509 36.8555 60.9409 36.1761 60.7134 35.9102Z" fill="#2B2E3F"/>
<path d="M22.8522 68.2849C22.3665 69.8076 22.0408 71.3767 21.8805 72.9669C21.7547 74.2007 21.8444 74.343 22.9305 75.0669C28.5322 78.784 40.6168 79.7918 46.9114 78.4217C47.0636 78.4028 47.2028 78.3266 47.3008 78.2087C47.3988 78.0907 47.4481 77.9398 47.4386 77.7868C47.4386 73.5394 47.5539 68.8619 50.1788 65.2924C50.6442 66.8354 51.5142 68.2258 52.6983 69.3191C54.1581 70.5837 54.5987 69.6708 53.6903 69.051C51.8005 67.7652 51.4751 65.901 50.6089 64.7305C54.4624 59.8851 55.6065 56.4203 54.2839 50.1889C54.2311 49.9471 53.8794 50.0383 53.8847 50.2522C54.0632 56.0949 54.7509 58.1263 49.8926 64.3102C46.827 68.2006 46.7118 72.7937 46.6854 77.5495C40.6642 78.6733 27.7187 77.8071 22.5825 73.8753C22.7676 72.1374 23.0836 70.4159 23.5278 68.7256C24.1081 69.1286 24.7977 69.3446 25.5042 69.3446C26.2108 69.3446 26.9004 69.1286 27.4807 68.7256C30.7353 66.3318 27.9213 63.2135 26.683 60.578C27.5351 58.3026 28.5327 56.0843 29.6695 53.9369C30.0055 53.244 29.491 53.1837 29.1084 53.6063C28.4101 54.3836 26.5828 58.7357 26.3102 59.7382C25.6102 58.0846 25.0927 56.3596 24.7668 54.5937C27.6928 53.201 30.7471 52.0959 33.8868 51.2939C34.1233 51.2412 34.0284 50.8058 33.7866 50.7666C32.296 50.5407 25.5555 53.0813 24.6576 53.9475C24.4738 52.6512 23.991 52.5164 23.8441 52.9291C23.2664 54.5357 25.7129 60.6571 26.7892 62.5206C27.7918 64.2635 29.5505 66.5676 26.9045 68.1795C25.2986 69.1587 23.6076 68.1426 22.3166 66.8357C18.5106 62.9876 13.2502 55.176 16.2849 49.5118C20.0351 42.5347 39.9871 34.6478 45.8704 39.3275C47.865 40.9025 48.5948 43.9154 49.687 46.4831C50.0177 47.2551 50.1389 47.2077 50.9306 46.7196C51.8832 45.993 52.7006 45.1045 53.3454 44.0946C56.3484 47.1399 57.2305 54.1794 58.0025 58.4057C58.7896 62.7209 60.296 64.2432 64.4485 68.1275C65.1837 68.8152 65.4985 68.254 64.9268 67.6003C61.2255 63.4011 59.3199 62.5921 58.7949 58.3139C58.3799 54.9748 56.7612 46.1118 53.7024 43.358C53.4403 43.1215 53.1202 42.9008 52.9492 43.2827C52.3237 44.4832 51.4419 45.5315 50.3664 46.3535C49.7201 43.7286 48.0563 40.1538 46.6915 38.8726C40.5437 33.1481 19.3038 41.6135 15.4141 49.1517C12.2634 55.2761 18.1747 64.9512 22.8522 68.2849Z" fill="#2B2E3F"/>
<path d="M31.026 72.5475C31.383 72.7991 31.8606 71.8018 31.6135 71.3424C31.5679 71.2779 31.5009 71.2316 31.4245 71.2116C31.3481 71.1916 31.267 71.1991 31.1956 71.2329C31.1242 71.2668 31.067 71.3247 31.0341 71.3965C31.0011 71.4683 30.9945 71.5494 31.0155 71.6256C31.1074 72.18 30.7842 72.4007 31.026 72.5475Z" fill="#2B2E3F"/>
<path d="M27.1253 72.7785C26.8616 72.3959 26.3796 72.7785 26.598 73.1928C27.2593 74.3271 29.1077 74.3791 28.9759 72.9465C28.7349 70.3743 27.0176 72.0697 25.2648 70.0089C24.8551 69.5254 24.3564 70.5362 25.9578 71.5154C27.3753 72.3816 28.1993 71.4574 28.2415 73.1476C28.0406 73.2152 27.8231 73.2158 27.6218 73.1492C27.4205 73.0827 27.2463 72.9526 27.1253 72.7785Z" fill="#2B2E3F"/>
<path d="M29.8191 72.5687C29.7392 72.8264 29.641 73.0782 29.5253 73.3219C29.2421 73.7942 30.0134 74.0043 30.2868 73.3799C30.3776 73.1979 30.4464 73.0058 30.4917 72.8075C30.5647 72.4007 30.0134 72.1168 29.8191 72.5687Z" fill="#2B2E3F"/>
<path d="M32.1133 71.0516C32.8891 70.5145 31.9868 67.049 29.5938 66.3161C29.352 66.2408 29.2579 66.5684 29.3995 66.7153C30.1293 67.4444 31.394 67.928 31.6041 69.7967C31.6885 70.5996 31.5913 71.4123 32.1133 71.0516Z" fill="#2B2E3F"/>
<path d="M67.0442 110.749C66.9568 117.048 66.8401 124.141 67.2024 130.456C67.286 131.887 66.9606 132.556 68.5197 132.716C73.7327 133.243 94.6315 133.009 98.4902 132.909C101.115 132.841 100.91 133.393 100.968 128.835C101.02 125.208 101.004 121.585 101.01 117.963C101.006 117.847 100.96 117.737 100.881 117.652C100.802 117.567 100.695 117.513 100.58 117.5C100.465 117.487 100.349 117.517 100.253 117.582C100.158 117.648 100.089 117.746 100.06 117.858C99.8972 118.504 99.9545 130.83 100.101 131.849C90.6861 132.011 77.3708 131.849 68 131.801C68.357 130.836 68.1047 112.278 68.0889 109.753H75.6384C75.7802 109.742 75.9122 109.677 76.0066 109.57C76.101 109.464 76.1504 109.325 76.1445 109.183C76.1389 109.044 76.0786 108.913 75.9769 108.819C75.8752 108.724 75.7403 108.673 75.6015 108.677C73.3335 108.708 71.0603 108.735 68.7766 108.771C66.9711 108.801 67.0645 109.291 67.0442 110.749Z" fill="#2B2E3F"/>
<path d="M102.804 118.623C102.762 123.643 102.547 129.915 102.668 134.897C94.174 134.872 80.1778 134.897 71.7365 134.897C69.3638 134.897 69.3797 135.921 71.4744 135.947C82.0473 136.01 92.242 135.98 102.93 135.947C104.095 135.947 103.707 134.968 103.718 133.884C103.76 128.838 103.794 123.791 103.822 118.744C103.833 117.301 102.813 117.222 102.804 118.623Z" fill="#2B2E3F"/>
<path d="M81.916 116.266C90.352 117.145 106.32 116.949 115.886 116.718C116.495 116.718 116.495 116.157 116.479 115.669C116.263 107.082 116.861 98.2184 116.442 89.7198C116.442 89.289 116.095 89.0871 115.392 89.0841C83.0345 88.9636 84.1915 89.1466 81.4219 88.9064C79.8469 88.7693 78.5823 88.2601 78.8768 86.4697C79.2119 84.4488 83.2386 84.848 84.6509 84.8586C92.409 84.9 100.531 85.2254 108.248 85.0476C108.296 86.0969 108.054 88.05 108.926 88.1027C110.122 88.178 109.535 84.8789 109.603 84.3908C109.672 83.9027 109.504 83.4252 108.979 83.4199C100.774 83.3446 92.4324 83.1992 84.7677 83.2151C80.2054 83.2151 76.9342 83.4358 76.8461 87.8714C76.7301 94.1713 76.4363 101.846 76.7994 107.82C77.0442 111.857 77.3123 115.787 81.916 116.266ZM80.152 114.007C79.5951 113.544 79.1403 112.972 78.8161 112.325C78.492 111.678 78.3057 110.971 78.2689 110.248C78.8314 110.67 79.4747 110.972 80.1587 111.135C80.1572 112.093 80.152 113.048 80.152 114.009V114.007ZM81.5537 111.35L85.0554 111.655C85.0554 112.757 85.0923 113.865 85.1134 114.969C83.8409 114.96 82.5726 114.821 81.3285 114.554C81.3285 114.275 81.3307 114.78 81.5537 111.352V111.35ZM86.552 115.203L86.6778 111.608L90.4522 111.712L90.6096 115.267L86.552 115.203ZM91.9586 115.279C92.0008 114.099 92.0395 112.919 92.0746 111.739C93.0877 111.739 94.0962 111.769 95.1033 111.78C95.1508 112.956 95.1982 114.137 95.2396 115.313L91.9586 115.279ZM96.563 115.323L96.7205 111.793H100.007L100.212 115.323H96.563ZM101.665 111.788C103.014 111.788 104.359 111.788 105.709 111.751L105.819 115.3C104.4 115.341 102.983 115.352 101.561 115.352C101.561 114.755 101.662 111.896 101.665 111.794V111.788ZM107.335 111.73L111.471 111.641C111.529 112.838 111.593 114.029 111.65 115.226C110.202 115.284 108.758 115.301 107.324 115.316C107.35 115.246 107.333 115.503 107.333 111.736L107.335 111.73ZM113.016 115.205C113.016 114.008 113.062 112.816 113.083 111.626C113.876 111.641 114.668 111.604 115.456 111.515C115.456 112.732 115.456 113.95 115.498 115.157L113.016 115.205ZM115.404 95.4925C115.404 100.305 115.423 105.123 115.461 109.945C114.075 109.84 111.682 110.045 110.086 110.082C110.296 108.748 109.876 100.937 109.86 95.5927C111.708 95.6763 113.56 95.6449 115.404 95.4985V95.4925ZM112.112 90.6026H115.383C115.357 91.7256 115.383 92.8412 115.383 93.9702C114.258 93.8753 113.127 93.8753 112.002 93.9702L112.112 90.6026ZM107.173 90.6154H110.487V93.986H107.059C107.177 89.8637 107.217 90.7126 107.173 90.6214V90.6154ZM102.4 90.6154H105.489C105.489 91.7498 105.506 92.8796 105.541 94.0049H102.339L102.4 90.6154ZM97.6439 90.6154H100.757C100.804 91.7452 100.853 92.8675 100.908 93.9966L97.5791 93.965C97.5761 92.8999 97.6755 91.6503 97.6439 90.6214V90.6154ZM92.1371 90.6154H96.0486V93.9514C94.7252 93.9514 93.3973 93.91 92.0746 93.8829C92.1608 92.7972 92.1817 91.7073 92.1371 90.6192V90.6154ZM108.411 95.6205C108.306 96.1478 108.486 108.451 108.821 110.131H89.8692C90.0583 108.672 89.4075 101.526 89.6334 95.4315L108.411 95.6205ZM86.7095 90.6116H90.5207C90.5207 91.6887 90.5328 92.7683 90.5569 93.8505C89.1973 93.8083 87.8325 93.7397 86.4677 93.7292C86.5618 92.695 86.6409 91.6503 86.7095 90.6116ZM85.0923 90.6116V93.7134L81.8904 93.5251C82.1484 92.5576 82.2771 91.5602 82.273 90.5589C82.1239 90.5589 83.4827 90.6357 85.0923 90.6116ZM78.5039 89.6136C79.1616 90.0716 79.9265 90.3518 80.7244 90.4271C80.641 91.4358 80.7085 92.4512 80.9248 93.44C78.4994 93.1093 78.4828 91.7392 78.5145 89.6129L78.5039 89.6136ZM78.2026 93.8814C79.6149 95.2055 82.1608 95.0948 84.019 95.21C84.6833 95.3042 87.8039 95.4006 88.1662 95.4096C87.8784 96.1862 88.3078 109.316 88.4238 110.082C85.7514 110.04 78.7593 110.723 78.1243 107.426C78.0588 95.8329 78.2817 93.8814 78.2049 93.8814H78.2026Z" fill="#2B2E3F"/>
<path d="M116.36 118.335C116.8 118.782 117.252 119.211 117.704 119.653C114.774 120.304 113.121 117.951 111.877 117.248C111.51 117.038 111.124 117.615 112.706 119.096C113.387 119.765 114.221 120.258 115.136 120.533C116.051 120.807 117.018 120.855 117.956 120.671C118.57 120.514 119.311 120.078 118.585 119.364C117.854 118.66 117.067 118.016 116.234 117.437C116.108 117.38 115.493 117.454 116.36 118.335Z" fill="#2B2E3F"/>
<path d="M118.543 126.76C119.152 126.614 118.964 125.71 118.375 125.71C113.267 125.6 113.907 132.95 117.777 133.167C120.354 133.318 120.312 131.109 120.317 129.414C120.381 108.805 120.543 106.449 120.317 100.005C124.706 106.73 123.933 111.948 121.026 118.447C120.961 118.544 120.936 118.663 120.959 118.778C120.981 118.893 121.048 118.994 121.145 119.06C121.242 119.125 121.361 119.149 121.476 119.127C121.591 119.105 121.693 119.037 121.758 118.94C126.371 111.927 125.306 103.116 120.097 98.504C119.787 98.2306 119.262 98.7398 119.262 98.9869C119.187 106.053 119.383 126.63 119.337 129.886C119.337 130.747 119.436 131.694 118.239 131.986C116.596 132.38 115.311 129.97 116.139 128.033C116.538 127.055 117.682 126.967 118.543 126.76Z" fill="#2B2E3F"/>
<path d="M125.908 123.469C127.856 121.189 131.61 124.75 129.216 127.201C128.859 127.569 128.689 127.728 128.344 127.511C126.36 126.345 123.573 123.312 121.791 121.595C121.445 121.265 120.846 121.883 121.167 122.282C122.859 124.251 124.737 126.053 126.773 127.663C128.002 128.651 128.957 129.328 130.222 127.868C132.916 124.755 128.842 119.583 125.739 122.047C124.229 123.243 125.406 124.058 125.908 123.469Z" fill="#2B2E3F"/>
<path d="M52.734 42.6553C53.0033 41.9097 53.3555 41.1967 53.784 40.5297C57.2014 43.3483 62.3933 37.1907 63.6798 34.272C63.8266 33.9308 63.4327 33.6371 63.2595 33.9625C61.9526 36.4134 56.9182 42.519 53.9467 39.7366C53.4899 39.2255 53.1488 38.6218 52.9468 37.9668C52.7448 37.3117 52.6866 36.6208 52.7762 35.9412C52.7686 35.8914 52.7447 35.8457 52.7082 35.8111C52.6717 35.7765 52.6246 35.7551 52.5746 35.7503C52.5245 35.7454 52.4743 35.7574 52.4318 35.7844C52.3893 35.8113 52.3571 35.8516 52.3401 35.899C52.1859 36.6184 52.192 37.363 52.3581 38.0798C52.5243 38.7965 52.8462 39.4679 53.3012 40.0462C51.8046 42.1672 52.4599 43.1118 52.734 42.6553Z" fill="#2B2E3F"/>
<path d="M45.379 26.602C44.6861 29.3211 47.421 32.1404 50.1032 29.6518C50.009 27.5992 53.0325 20.5333 61.7366 22.7591C63.1436 22.2921 64.4196 18.2496 61.36 17.8195C64.0716 16.1918 62.0168 12.4807 59.4597 13.7717C60.0622 9.62901 53.6855 8.46454 53.0287 12.2811C52.0631 8.73193 44.3878 8.93153 46.609 14.7328C42.7978 12.8114 39.2591 17.5513 43.328 20.4708C38.9797 20.7013 40.0395 28.891 45.379 26.602Z" fill="#2B2E3F"/>
<path d="M51.2535 33.2115C49.7357 34.4919 48.0402 36.4141 47.4316 38.3461C47.3563 38.5872 47.7149 38.661 47.8083 38.4772C48.8944 36.3403 49.9075 35.154 52.6635 33.0013C52.9264 32.7972 52.9685 32.6496 52.8315 32.4741C52.0029 31.5137 53.9613 29.6503 54.6851 30.3749C55.1257 30.8208 54.6851 31.5454 55.2124 31.5295C56.4315 31.3915 57.565 30.8349 58.4196 29.9546C59.9945 31.3194 63.491 33.5188 64.3888 33.2092C65.2866 32.8996 68.063 26.9101 62.609 23.8543C57.1549 20.7985 48.5072 25.2793 51.2535 33.2115Z" fill="#2B2E3F"/>
<path d="M64.8708 93.2991C63.3983 95.6725 54.6128 109.719 54.4011 110.675C53.9297 113.049 53.6215 115.452 53.4785 117.868C53.4785 118.781 55.0851 117.521 55.4782 117.238C56.9921 116.202 58.4517 115.09 59.8514 113.904C63.4209 108.192 67.4002 102.444 70.4665 96.4649C70.6556 96.0973 70.9229 95.546 70.4665 95.2258C69.8308 94.7845 66.6966 93.2253 66.0459 92.8156C65.3951 92.4058 65.078 92.9624 64.8708 93.2991ZM54.3718 117.025C54.6023 115.224 54.7702 113.393 55.0067 111.602L58.76 113.734L54.3718 117.025ZM69.7005 95.8955C66.0888 102.323 62.743 107.389 59.5042 113.057L55.2109 110.759C58.702 104.938 62.4816 99.0846 65.7416 93.614L69.7005 95.8955Z" fill="#2B2E3F"/>
<path d="M40.4809 133.239C40.4784 133.165 40.4504 133.094 40.4017 133.038C40.353 132.983 40.2866 132.946 40.2137 132.933C40.1408 132.921 40.0659 132.934 40.0016 132.971C39.9374 133.007 39.8877 133.065 39.861 133.134C39.5582 134.169 39.3148 135.221 39.1319 136.284C38.6047 138.909 39.7458 138.661 41.9663 138.646C45.2895 138.614 48.6179 138.53 51.9411 138.446C52.5339 138.446 53.3948 138.32 53.5161 137.601C53.6841 136.751 52.6552 136.352 52.0722 136.026C50.0128 135.004 47.8712 134.158 45.6698 133.495C45.1426 133.317 44.8767 133.963 45.4122 134.142C47.8041 134.946 50.1283 135.94 52.3629 137.112C53.4129 137.722 51.5758 137.674 51.2662 137.686C47.7223 137.836 44.1581 137.906 40.609 137.832C39.0235 137.832 39.9913 137.139 40.4809 133.239Z" fill="#2B2E3F"/>
<path d="M10.8154 133.496C13.5832 136.434 17.332 138.255 21.3522 138.614C21.9871 138.667 23.4514 138.961 23.7873 138.21C24.1233 137.459 23.1945 136.488 22.6906 136.053C20.953 134.541 19.1942 134.316 17.6192 131.301C17.3677 130.819 16.7907 131.17 17.0415 131.653C18.7897 135.003 21.0162 135.495 22.4489 136.903C23.7828 138.226 22.885 137.953 21.8817 137.882C17.9214 137.654 14.197 135.925 11.467 133.047C11.0625 132.622 10.6686 132.218 10.8787 131.598C11.323 130.546 11.9443 129.578 12.7158 128.736C12.9892 128.4 12.5373 127.938 12.233 128.259C11.5137 129.012 9.84981 131.098 10.06 132.251C10.1879 132.73 10.45 133.162 10.8154 133.496Z" fill="#2B2E3F"/>
<path d="M19.021 130.215C21.7137 127.942 32.0772 113.174 35.295 105.904C37.825 100.155 38.7703 92.6469 39.7728 86.1806C39.7844 86.1276 39.8154 86.081 39.8598 86.0499C39.9042 86.0188 39.9587 86.0056 40.0124 86.013C40.0661 86.0203 40.1151 86.0476 40.1495 86.0894C40.184 86.1312 40.2015 86.1845 40.1984 86.2386C39.5224 92.971 38.1807 99.6197 36.1928 106.087C37.4733 113.899 38.9044 128.258 39.232 132.036C41.6158 132.21 44.0091 132.21 46.3928 132.036C47.1378 127.092 48.2827 103.941 46.9645 79.3112C36.4655 81.1747 25.9242 78.3396 22.4172 75.7041C21.6723 92.5664 23.9606 100.772 23.6141 102.662C23.2676 104.552 16.0021 120.117 12.5222 126.133C14.3962 128.423 16.2386 129.369 19.021 130.215Z" fill="#2B2E3F"/>
</svg>
