<svg width="151" height="151" viewBox="0 0 151 151" fill="none" xmlns="http://www.w3.org/2000/svg">
<path d="M101.224 56.3459C100.668 51.575 99.1772 46.7492 96.0468 43.1089C92.9165 39.4686 87.8142 37.2579 83.1668 38.5233C81.2906 39.034 80.8529 39.8859 80.7128 41.2816C80.4824 43.5909 80.9833 45.9395 80.5517 48.2315C80.1238 50.507 78.3131 52.8495 76.0022 52.6559C73.8179 52.4736 72.4154 50.1854 71.9718 48.0349C71.9155 47.2272 71.6088 46.457 71.0943 45.8318C70.3976 45.2021 69.3385 45.294 68.4076 45.1539C67.5861 45.0195 66.8126 44.6775 66.1605 44.1602C65.5083 43.6429 64.9992 42.9676 64.6814 42.1982C64.2099 41.0067 64.112 40.685 62.7645 40.5683C60.7769 40.2834 58.7536 40.3746 56.7997 40.8372C54.4112 41.6442 52.37 43.2429 51.0143 45.3685C48.6627 48.8333 47.081 55.1536 46.269 59.2691C46.0129 60.5617 46.1334 61.1047 47.0388 61.9559C49.5244 64.2908 52.8996 65.0779 56.3034 65.6993C57.8031 65.9773 59.3323 66.0616 60.8536 65.9502C61.1224 65.6813 61.0042 64.3021 61.0328 63.8366C61.0892 62.5234 61.2872 61.2201 61.6233 59.9493C61.6987 59.6812 62.0542 59.7881 62.0353 60.057C61.993 62.1657 61.8242 64.2699 61.5299 66.3584C61.5175 66.4471 61.4831 66.5313 61.4298 66.6032C61.3765 66.6752 61.3061 66.7327 61.2249 66.7704C60.5391 67.0115 59.82 67.1444 59.0933 67.1644C59.8804 74.4178 59.5038 76.3385 62.3894 83.0181C63.6058 85.8313 69.3039 85.7921 72.0441 85.8306C75.6481 85.8839 79.231 85.2711 82.6125 84.0228C83.9682 83.5189 84.369 83.1574 84.8721 81.5508C87.5837 72.8451 87.8307 65.8952 88.0959 64.5695C87.2545 64.91 86.3898 65.1834 85.678 65.4651C85.5668 65.4962 85.4477 65.4819 85.3469 65.4255C85.2462 65.369 85.1718 65.2749 85.1403 65.1638C84.5707 63.2487 84.2517 61.2678 84.1912 59.2706C84.1912 59.0018 84.6258 58.9294 84.6748 59.1991C84.9941 60.9669 85.3737 62.7279 85.8573 64.4475C88.9643 63.1791 89.4607 62.7324 90.3171 62.4229C101.12 57.5706 100.879 57.7604 101.118 57.3718C101.267 57.0512 101.304 56.69 101.224 56.3459Z" fill="#00C896"/>
<path d="M71.5254 40.5471C71.5145 40.2784 71.5635 40.0106 71.6687 39.7631C71.774 39.5156 71.9329 39.2946 72.134 39.116C72.2388 39.0266 72.3605 38.9593 72.4919 38.9179C72.6233 38.8766 72.7617 38.8622 72.8988 38.8756C73.0359 38.8889 73.1689 38.9298 73.2898 38.9957C73.4108 39.0616 73.5172 39.1512 73.6028 39.2591C73.7632 39.4038 74.0818 39.2591 73.9967 39.0264C73.916 38.8651 73.8032 38.722 73.6652 38.6058C73.5272 38.4897 73.3669 38.403 73.1941 38.351C73.0214 38.299 72.8399 38.2829 72.6607 38.3035C72.4815 38.3242 72.3084 38.3813 72.1521 38.4713C71.7804 38.6655 71.4768 38.9683 71.2815 39.3394C71.0863 39.7106 71.0087 40.1323 71.0592 40.5486C71.0628 40.6082 71.089 40.6641 71.1324 40.7049C71.1759 40.7457 71.2334 40.7683 71.293 40.7681C71.3526 40.768 71.4099 40.745 71.4532 40.7039C71.4964 40.6628 71.5222 40.6067 71.5254 40.5471Z" fill="#2B2E3F"/>
<path d="M76.326 42.2312C75.4723 42.9245 74.4833 43.432 73.4223 43.7215C72.3612 44.011 71.2515 44.076 70.164 43.9124C67.5157 43.6548 66.437 43.1667 65.5068 40.5982C63.9688 36.3546 63.6795 31.5905 63.6795 27.1156C63.6728 27.0662 63.6484 27.0208 63.6108 26.988C63.5732 26.9552 63.5249 26.9371 63.475 26.9371C63.4251 26.9371 63.3769 26.9552 63.3393 26.988C63.3017 27.0208 63.2773 27.0662 63.2705 27.1156C63.1025 29.9211 63.2337 32.7364 63.6622 35.514C64.0155 37.861 64.3913 40.6939 65.8111 42.6786C66.9538 44.2754 68.9468 44.5526 70.7914 44.649C71.869 44.7619 72.9582 44.634 73.9803 44.2746C75.0025 43.9153 75.9321 43.3333 76.7019 42.5709C76.9354 42.3562 76.5731 42.012 76.326 42.2312Z" fill="#2B2E3F"/>
<path d="M68.2652 31.376C68.2652 31.3478 68.2596 31.3199 68.2489 31.2938C68.2381 31.2678 68.2222 31.2441 68.2023 31.2242C68.1824 31.2043 68.1587 31.1884 68.1327 31.1777C68.1066 31.1669 68.0787 31.1613 68.0505 31.1613C68.0223 31.1613 67.9944 31.1669 67.9684 31.1777C67.9423 31.1884 67.9187 31.2043 67.8987 31.2242C67.8788 31.2441 67.863 31.2678 67.8522 31.2938C67.8414 31.3199 67.8359 31.3478 67.8359 31.376C67.7905 32.0414 67.7186 32.7048 67.6204 33.3645C67.5632 33.7411 67.3131 34.3324 67.4412 34.7255C67.6521 35.3718 69.0365 35.1225 69.5012 35.0479C69.5482 35.0323 69.5891 35.0023 69.618 34.9621C69.647 34.922 69.6626 34.8737 69.6626 34.8242C69.6626 34.7747 69.647 34.7265 69.618 34.6863C69.5891 34.6461 69.5482 34.6161 69.5012 34.6005C69.1635 34.5489 68.8222 34.525 68.4806 34.5289C68.4445 34.5289 68.0144 34.5824 67.9609 34.5289C67.9871 34.317 68.0292 34.1072 68.0867 33.9015C68.2483 33.07 68.3082 32.222 68.2652 31.376Z" fill="#2B2E3F"/>
<path d="M65.9552 28.6358C65.4174 28.6358 65.272 29.1909 65.6539 29.5487C66.0004 29.8763 66.5239 30.3471 66.8899 30.033C66.9729 29.9569 67.0257 29.8535 67.0389 29.7416C67.052 29.6298 67.0245 29.517 66.9615 29.4237C66.78 29.1005 66.3845 28.6358 65.9552 28.6358Z" fill="#2B2E3F"/>
<path d="M71.7229 29.9072C71.9127 29.8214 72.0881 29.7065 72.2426 29.5667C72.3201 29.4987 72.3789 29.412 72.4133 29.3148C72.4477 29.2176 72.4566 29.1132 72.4392 29.0116C72.278 28.4331 71.1271 28.821 70.8273 29.2624C70.5772 29.6368 70.871 30.3327 71.7229 29.9072Z" fill="#2B2E3F"/>
<path d="M73.872 25.0346C72.9779 25.3231 72.5388 26.5817 71.6327 26.3602C71.281 26.2235 70.9763 25.9881 70.7552 25.6823C70.7148 25.6432 70.6615 25.62 70.6053 25.6173C70.5491 25.6146 70.4939 25.6325 70.4499 25.6676C70.4059 25.7027 70.3762 25.7526 70.3664 25.808C70.3567 25.8634 70.3674 25.9205 70.3967 25.9686C70.8004 26.6465 71.4346 27.3085 72.2955 27.0796C72.7115 26.9355 73.0941 26.7087 73.42 26.4127C73.746 26.1168 74.0086 25.7579 74.1921 25.3577C74.203 25.3134 74.2023 25.267 74.1902 25.223C74.178 25.179 74.1547 25.1389 74.1226 25.1064C74.0905 25.074 74.0506 25.0504 74.0067 25.0378C73.9628 25.0252 73.9164 25.0241 73.872 25.0346Z" fill="#2B2E3F"/>
<path d="M66.5457 25.8766C66.1914 25.9302 65.8582 26.0782 65.5809 26.3051C65.3036 26.5321 65.0926 26.8295 64.97 27.1661C64.8946 27.3989 65.2012 27.6663 65.4174 27.5066C65.7375 27.2708 66.029 26.8347 66.4207 26.7187C66.8726 26.5854 67.1362 27.1495 67.3878 27.4531C67.5663 27.6685 67.906 27.4358 67.8397 27.1842C67.671 26.5944 67.2447 25.8585 66.5457 25.8766Z" fill="#2B2E3F"/>
<path d="M88.1842 15.8997C87.9575 15.9651 87.7496 16.0836 87.5778 16.2454C87.4061 16.4071 87.2754 16.6075 87.1966 16.8299C87.1178 17.0524 87.0932 17.2903 87.1248 17.5242C87.1563 17.758 87.2432 17.9809 87.3782 18.1744C87.4128 18.2251 87.4631 18.2629 87.5214 18.2821C87.5907 18.5399 87.7497 18.7645 87.9697 18.9155C88.1898 19.0666 88.4565 19.1342 88.722 19.1062C89.1348 19.0027 89.4962 18.7535 89.7398 18.4046C89.9834 18.0557 90.0927 17.6305 90.0476 17.2073C90.0256 16.9926 89.9576 16.7851 89.8483 16.5989C89.7391 16.4127 89.5911 16.2522 89.4144 16.1282C89.2377 16.0042 89.0364 15.9196 88.8241 15.8802C88.6119 15.8408 88.3936 15.8474 88.1842 15.8997ZM89.0798 18.3002C88.2648 19.1152 87.6298 17.4717 88.0772 16.8488C88.169 16.7579 88.2805 16.6893 88.403 16.6483C88.5255 16.6073 88.6558 16.595 88.7838 16.6124C88.9118 16.6297 89.0341 16.6762 89.1413 16.7482C89.2485 16.8203 89.3378 16.916 89.4021 17.028C89.4623 17.2504 89.4643 17.4845 89.4079 17.7078C89.3514 17.9312 89.2384 18.1362 89.0798 18.3032V18.3002Z" fill="#2B2E3F"/>
<path d="M93.4859 18.8907C93.4953 18.8451 93.491 18.7978 93.4738 18.7547C93.4566 18.7115 93.4271 18.6743 93.3889 18.6477C93.3508 18.6211 93.3057 18.6063 93.2592 18.605C93.2128 18.6037 93.1669 18.6161 93.1274 18.6406C91.1691 19.8827 92.0624 23.0364 93.7722 22.5634C95.653 22.0421 94.9005 18.7656 93.4859 18.8907ZM92.9128 21.6497C92.7225 21.3335 92.628 20.9689 92.6407 20.6C92.6534 20.2312 92.7727 19.874 92.9843 19.5716C93.0785 19.619 94.3627 19.4503 94.3454 20.7722C94.3363 21.4704 93.6697 22.7208 92.9128 21.6497Z" fill="#2B2E3F"/>
<path d="M98.2686 16.8311C97.867 17.3392 97.5911 17.9351 97.4635 18.57C97.3358 19.205 97.3601 19.8612 97.5342 20.485C97.7602 21.3135 98.1255 22.0426 99.003 22.2227C99.3343 22.3177 99.6854 22.3195 100.018 22.2278C100.35 22.1361 100.65 21.9545 100.886 21.7029C101.927 20.5046 102.529 17.5331 101.564 16.1291C100.718 14.8991 98.6271 15.5235 98.2686 16.8311ZM101.189 18.3376C101.159 19.3921 100.83 21.3926 99.4331 21.4905C98.2505 21.5734 97.9665 19.7709 98.0539 18.8927C98.1045 18.3515 98.2824 17.8299 98.5729 17.3704C98.9141 17.3704 98.7845 16.8688 99.4692 16.5464C100.032 16.1419 101.236 16.621 101.189 18.3353V18.3376Z" fill="#2B2E3F"/>
<path d="M135.168 13.0517C135.132 13.0336 135.097 13.0517 135.06 13.0517C135.057 11.6141 134.731 10.1956 134.108 8.90007C133.485 7.6045 132.58 6.46464 131.46 5.56393C128.293 3.21314 123.292 3.0384 120.319 5.79668C118.169 4.57873 115.608 3.93548 113.314 4.81147C110.591 5.85241 108.8 8.03599 108.996 10.9555C102.43 15.2917 100.861 25.7072 106.846 31.217C106.447 32.5089 106.361 33.8774 106.596 35.209C107.036 37.4376 108.141 39.4803 109.767 41.0668C112.639 43.8537 117.63 44.3809 120.387 41.2634C124.77 43.5908 131.328 41.4893 133.213 35.6572C133.228 35.6226 133.234 35.5848 133.231 35.5472C133.228 35.5095 133.216 35.4733 133.195 35.4418C137.136 34.278 140.576 29.9614 141.166 26.2352C141.943 21.328 140.829 14.4662 135.168 13.0517ZM140.417 26.2706C139.993 28.6365 138.412 30.7334 136.708 32.3792C135.783 33.299 134.671 34.0087 133.447 34.46C132.223 34.9113 130.916 35.0935 129.615 34.9944C129.293 34.974 129.239 35.4651 129.54 35.5495C130.56 35.8207 131.631 35.8331 132.657 35.5856C132.215 36.7024 131.553 37.7192 130.712 38.5762C129.87 39.4332 128.865 40.113 127.757 40.5754C126.648 41.0378 125.459 41.2736 124.257 41.2687C123.056 41.2638 121.868 41.0185 120.764 40.5471C120.729 40.4953 120.68 40.4544 120.623 40.4291C120.566 40.4037 120.503 40.395 120.441 40.4039C119.967 40.1706 119.512 39.9011 119.079 39.598C118.808 39.4059 118.561 39.8119 118.757 40.0281C119.064 40.3633 119.406 40.6636 119.778 40.9237C115.008 44.7387 108.664 41.3003 107.293 35.2806C106.751 32.8997 107.501 30.7191 108.529 28.5995C108.558 28.5496 108.565 28.4904 108.55 28.435C108.535 28.3795 108.498 28.3324 108.448 28.3039C108.398 28.2754 108.339 28.268 108.284 28.2832C108.228 28.2984 108.181 28.3349 108.153 28.3849C107.724 29.092 107.359 29.8353 107.06 30.6061C105.746 29.137 104.8 27.3773 104.299 25.4715C103.797 23.5658 103.755 21.5683 104.176 19.6431C104.553 17.6216 105.448 15.7325 106.772 14.1598C108.097 12.5871 109.807 11.3845 111.735 10.6692C111.968 10.5819 112.036 10.1721 111.735 10.1314C110.952 10.0671 110.17 10.2488 109.496 10.6512C109.573 9.42442 110.033 8.25288 110.812 7.3015C111.59 6.35011 112.647 5.66679 113.834 5.34776C116.721 4.4439 119.877 6.11077 121.969 7.99833C122.364 8.35535 122.972 7.76558 122.56 7.40781C122 6.91755 121.401 6.47416 120.769 6.08215C122.324 4.99299 124.187 4.42982 126.085 4.47495C127.983 4.52007 129.817 5.17113 131.319 6.33297C134.273 8.73497 134.5 12.6012 134.257 16.1308C134.258 16.1879 134.28 16.2426 134.319 16.2848C134.357 16.3269 134.409 16.3538 134.466 16.3603C134.523 16.3668 134.58 16.3526 134.627 16.3202C134.674 16.2879 134.708 16.2396 134.722 16.1843C134.952 15.3074 135.067 14.4041 135.063 13.4976C140.201 15.5591 141.308 21.2933 140.417 26.2706Z" fill="#2B2E3F"/>
<path d="M125.282 14.592C113.418 15.114 115.791 14.7502 110.575 14.8067C110.536 14.8079 110.498 14.8183 110.463 14.837C110.429 14.8557 110.4 14.8822 110.378 14.9144C110.348 14.9012 110.315 14.8964 110.282 14.9005C110.25 14.9046 110.219 14.9175 110.193 14.9378C110.167 14.958 110.147 14.985 110.136 15.0156C110.124 15.0462 110.121 15.0795 110.127 15.1118C110.67 22.0338 111.014 28.9747 111.077 35.9261C111.078 36.0397 111.124 36.1482 111.204 36.2285C111.285 36.3087 111.393 36.3543 111.507 36.3555C114.304 36.1047 117.131 35.9736 119.943 35.8719C122.038 35.7966 124.349 35.5141 126.444 35.8004C126.528 35.8131 126.614 35.8069 126.695 35.7823C126.928 35.8365 127.201 35.7288 127.179 35.4245C126.694 28.6644 126.35 21.8787 125.782 15.1118C125.784 15.0445 125.773 14.9773 125.749 14.9143C125.725 14.8514 125.689 14.7939 125.642 14.7454C125.596 14.6968 125.54 14.6582 125.478 14.6319C125.416 14.6055 125.349 14.592 125.282 14.592ZM120.105 34.9229C117.382 35.0253 114.641 35.1375 111.919 35.4418C111.685 28.7246 111.363 22.0075 110.593 15.3264C113.748 15.9621 117.899 15.703 124.851 15.5953C125.46 21.9901 125.819 28.4 126.358 34.8151C124.274 34.6966 122.184 34.7326 120.105 34.9229Z" fill="#2B2E3F"/>
<path d="M129.779 20.2162C129.763 20.2927 129.777 20.3726 129.818 20.4395C129.858 20.5063 129.923 20.555 129.999 20.5757C130.074 20.5963 130.155 20.5872 130.224 20.5503C130.293 20.5135 130.345 20.4516 130.37 20.3773C130.747 19.3816 131.767 19.0848 132.699 18.9982C133.701 18.9056 134.356 19.0313 134.812 20.1092C135.575 21.8958 134.58 23.1221 133.021 23.8C132.323 24.1012 131.499 24.2654 131.104 24.9637C130.64 25.7884 130.97 26.8264 131.015 27.6865C131.018 27.7779 131.052 27.8655 131.113 27.9338C131.173 28.0021 131.256 28.0467 131.346 28.0596C131.437 28.0726 131.529 28.053 131.606 28.0044C131.684 27.9558 131.741 27.8813 131.769 27.7943C131.878 27.2945 131.921 26.7823 131.895 26.2713C131.917 25.4299 132.218 25.2356 132.969 24.9283C133.722 24.6613 134.42 24.2607 135.029 23.7457C136.225 22.6317 136.238 21.1629 135.656 19.6979C134.682 17.2545 130.35 17.7305 129.779 20.2162Z" fill="#2B2E3F"/>
<path d="M131.532 29.978C131.401 29.934 131.261 29.927 131.127 29.9578C130.993 29.9886 130.87 30.056 130.771 30.1525C130.673 30.249 130.603 30.3708 130.57 30.5045C130.537 30.6381 130.541 30.7784 130.583 30.9097C130.607 30.9878 130.647 31.0598 130.702 31.1207C130.756 31.1816 130.823 31.23 130.898 31.2624C130.973 31.2948 131.054 31.3104 131.136 31.3083C131.217 31.3062 131.298 31.2864 131.371 31.2501C131.522 31.2403 131.665 31.1781 131.776 31.0741C131.886 30.9702 131.957 30.8311 131.976 30.6806C131.995 30.5301 131.961 30.3776 131.88 30.2494C131.799 30.1212 131.676 30.0252 131.532 29.978Z" fill="#2B2E3F"/>
<path d="M114.049 19.5359C115.368 19.7093 116.704 19.7212 118.026 19.5713C119.226 19.5284 120.913 19.8296 122.038 19.3747C122.343 19.2512 122.524 18.7435 122.146 18.568C121.04 18.0558 119.423 18.3925 118.24 18.443C116.83 18.392 115.42 18.5368 114.049 18.8731C113.979 18.8955 113.918 18.9398 113.874 18.9993C113.831 19.0589 113.808 19.1307 113.808 19.2045C113.808 19.2782 113.831 19.3501 113.874 19.4096C113.918 19.4692 113.979 19.5134 114.049 19.5359Z" fill="#2B2E3F"/>
<path d="M117.524 24.2467C119.241 24.3573 120.965 24.2793 122.665 24.014C123.13 23.9032 123.166 23.1026 122.665 23.0288C120.951 22.9125 119.23 22.9543 117.524 23.1538C116.33 23.1533 115.14 23.2916 113.977 23.5658C113.726 23.6366 113.71 24.0433 113.977 24.0855C115.153 24.2356 116.339 24.2895 117.524 24.2467Z" fill="#2B2E3F"/>
<path d="M123.132 28.0948C121.88 27.7672 120.284 28.1144 119.012 28.1664C117.646 28.1855 116.282 28.2874 114.928 28.4714C114.858 28.4937 114.797 28.5378 114.753 28.5973C114.709 28.6568 114.686 28.7287 114.686 28.8025C114.686 28.8762 114.709 28.9481 114.753 29.0076C114.797 29.0671 114.858 29.1112 114.928 29.1335C116.282 29.3112 117.647 29.3833 119.012 29.3489C120.248 29.3489 121.971 29.5892 123.132 29.1335C123.241 29.0963 123.334 29.0263 123.401 28.9332C123.467 28.8401 123.503 28.7286 123.503 28.6141C123.503 28.4997 123.467 28.3882 123.401 28.2951C123.334 28.202 123.241 28.132 123.132 28.0948Z" fill="#2B2E3F"/>
<path d="M80.8205 21.9937C79.7398 18.2134 77.418 14.907 74.2291 12.6071C68.7653 8.52317 66.3474 14.8818 66.3474 14.8818C62.1023 12.9114 56.5044 14.1286 56.9609 22.011C57.4173 29.8934 70.1248 22.5857 70.2883 22.8531C71.2629 24.4537 74.6049 23.305 74.6049 23.305C74.5334 26.3322 78.0976 26.7977 78.0976 26.7977C78.0366 29.8106 80.4409 31.1874 81.6807 29.861C81.9142 29.611 82.1793 29.339 82.415 29.0724C83.0877 28.3132 85.0679 29.3782 84.0088 32.4762C83.3475 34.4112 82.3073 34.6447 81.6264 34.5536C81.5311 34.5402 81.434 34.5459 81.3408 34.5703C81.2477 34.5946 81.1603 34.6372 81.0836 34.6955C81.007 34.7539 80.9427 34.8268 80.8945 34.9101C80.8462 34.9935 80.8149 35.0855 80.8024 35.181L80.5343 37.1868C80.5389 37.1868 80.5433 37.185 80.5465 37.1817C80.5498 37.1785 80.5516 37.1741 80.5516 37.1695C80.48 37.6885 80.4318 38.2089 80.3731 38.6917C80.133 40.1606 80.0847 41.6544 80.2292 43.1357C80.2616 43.3692 80.6246 43.4762 80.6774 43.1892C80.9161 41.8824 80.996 40.5529 81.1609 39.2303C81.2656 38.3882 81.5014 37.4753 81.6445 36.5797C84.3312 35.1283 89.6196 31.9098 88.8452 26.7992C87.9346 20.7742 80.8205 21.9937 80.8205 21.9937ZM63.9665 17.4217C62.6755 17.4488 61.5306 17.4578 60.5454 18.443C60.0936 18.9304 59.7767 19.5271 59.6259 20.1743C59.475 20.8215 59.4955 21.4969 59.6852 22.1338C59.7545 22.3854 59.393 22.4765 59.2913 22.2415C58.9831 21.5327 58.8901 20.7488 59.0241 19.9876C59.158 19.2263 59.5129 18.5213 60.0445 17.9602C60.9921 16.9373 62.7968 16.2707 64.0923 16.9389C64.1386 16.9689 64.1743 17.0128 64.1943 17.0643C64.2142 17.1157 64.2175 17.1722 64.2036 17.2256C64.1897 17.2791 64.1593 17.3268 64.1167 17.3619C64.0742 17.3971 64.0216 17.418 63.9665 17.4217Z" fill="#2B2E3F"/>
<path d="M101.332 107.056C101.284 107.078 101.246 107.116 101.224 107.163C101.202 107.211 101.196 107.264 101.209 107.315C101.221 107.366 101.251 107.41 101.293 107.441C101.335 107.473 101.386 107.488 101.439 107.486C105.275 106.709 110.327 107.987 112.276 111.642C112.31 111.696 112.36 111.738 112.42 111.761C112.479 111.784 112.544 111.788 112.606 111.772C112.668 111.756 112.723 111.721 112.763 111.672C112.804 111.623 112.827 111.562 112.831 111.498C112.732 109.458 110.157 108.109 108.514 107.431C106.227 106.517 103.702 106.385 101.332 107.056Z" fill="#2B2E3F"/>
<path d="M115.572 111.965C115.603 112.014 115.648 112.051 115.701 112.073C115.754 112.094 115.813 112.098 115.869 112.084C115.924 112.07 115.974 112.039 116.011 111.995C116.048 111.951 116.07 111.896 116.074 111.839C116.038 108.543 112.522 106.025 109.571 105.499C109.284 105.447 109.161 105.852 109.446 105.928C110.913 106.309 112.253 107.068 113.333 108.131C114.389 109.243 114.871 110.614 115.572 111.965Z" fill="#2B2E3F"/>
<path d="M118.385 110.406C118.547 110.708 118.979 110.495 118.922 110.191C118.291 106.801 114.41 104.591 111.256 104.208C110.955 104.171 110.879 104.691 111.184 104.746C114.5 105.343 116.824 107.484 118.385 110.406Z" fill="#2B2E3F"/>
<path d="M103.342 103.438C101.604 103.362 99.8809 103.787 98.3785 104.664C96.8761 105.541 95.6579 106.831 94.8695 108.382C94.7272 108.652 95.1068 109.012 95.335 108.74C97.6354 106 100.231 103.844 104.005 104.352C104.07 104.351 104.133 104.335 104.192 104.305C104.25 104.276 104.3 104.234 104.34 104.182C104.379 104.131 104.407 104.071 104.42 104.007C104.433 103.943 104.432 103.878 104.417 103.814C96.5688 84.0492 97.9871 88.4314 90.7675 64.5718C90.7483 64.5129 90.7072 64.4636 90.6527 64.4342C90.5982 64.4047 90.5345 64.3972 90.4747 64.4134C90.4149 64.4295 90.3636 64.468 90.3313 64.5209C90.299 64.5738 90.2883 64.637 90.3013 64.6976C95.0925 81.7361 95.625 84.5403 103.342 103.438Z" fill="#2B2E3F"/>
<path d="M109.859 102.865C109.902 102.936 109.969 102.988 110.049 103.011C110.128 103.034 110.214 103.027 110.288 102.99C112.502 102.843 114.719 103.204 116.772 104.045C118.334 104.763 119.735 105.787 120.892 107.057C121.143 107.308 121.495 106.987 121.358 106.699C120.57 105.077 118.744 103.993 117.131 103.309C114.98 102.441 112.644 102.133 110.342 102.414C107.099 95.8044 105.931 75.1618 100.616 59.3699C100.507 59.0482 100.001 59.1928 100.096 59.5137C106.091 79.6427 106.215 96.9606 109.859 102.865Z" fill="#2B2E3F"/>
<path d="M34.7515 115.457C36.7219 111.766 41.8965 110.524 45.7319 111.302C45.7842 111.304 45.8357 111.289 45.8778 111.258C45.9198 111.226 45.9498 111.182 45.9625 111.131C45.9752 111.08 45.9699 111.027 45.9475 110.979C45.9251 110.932 45.8869 110.894 45.8396 110.872C43.4332 110.212 40.8793 110.338 38.5492 111.23C36.8831 111.892 34.2145 113.235 34.1806 115.298C34.173 115.6 34.6265 115.726 34.7515 115.457Z" fill="#2B2E3F"/>
<path d="M31.2045 115.977C31.9058 114.626 32.4052 113.273 33.4792 112.143C34.5773 111.077 35.9362 110.317 37.4201 109.94C37.7055 109.865 37.582 109.46 37.2943 109.511C34.3274 110.03 30.7473 112.519 30.7029 115.851C30.7068 115.909 30.7288 115.963 30.7656 116.007C30.8025 116.051 30.8523 116.083 30.908 116.097C30.9637 116.11 31.0224 116.106 31.0756 116.085C31.1289 116.064 31.174 116.026 31.2045 115.977Z" fill="#2B2E3F"/>
<path d="M35.449 108.221C32.278 108.597 28.3183 110.775 27.6751 114.203C27.6597 114.271 27.669 114.342 27.7014 114.404C27.7338 114.466 27.7871 114.514 27.8518 114.54C27.9164 114.566 27.9882 114.568 28.0543 114.546C28.1203 114.524 28.1763 114.478 28.2121 114.419C29.8572 111.509 32.1876 109.453 35.5183 108.758C35.8271 108.694 35.7533 108.185 35.449 108.221Z" fill="#2B2E3F"/>
<path d="M26.1179 110.925C27.3266 109.622 28.7895 108.579 30.4165 107.863C32.4719 107.057 34.6798 106.714 36.8828 106.86C36.9192 106.88 36.9593 106.893 37.0008 106.897C37.0422 106.902 37.0842 106.899 37.1242 106.887C37.1643 106.875 37.2016 106.856 37.234 106.829C37.2664 106.803 37.2932 106.771 37.3129 106.734C38.9903 104.24 39.44 100.966 39.9996 98.0642C42.1621 86.8556 43.4125 74.8591 47.165 63.3681C47.2704 63.0449 46.7643 62.8996 46.6453 63.2242C43.9811 70.4837 42.715 78.1115 41.3614 85.7228C38.9142 99.4788 38.5482 102.76 36.7932 106.268C34.417 105.975 32.0053 106.296 29.7883 107.2C28.2126 107.865 26.4026 108.92 25.6328 110.531C25.5085 110.854 25.8648 111.175 26.1179 110.925Z" fill="#2B2E3F"/>
<path d="M43.2593 108.22C47.0705 107.707 49.7784 109.802 52.0538 112.609C52.2708 112.877 52.6669 112.534 52.5201 112.251C51.7173 110.684 50.4781 109.384 48.9522 108.507C47.4263 107.629 45.679 107.213 43.9214 107.307C51.4678 89.0789 51.9808 86.6807 57.178 68.544C57.1945 68.4822 57.1859 68.4163 57.1539 68.3608C57.1219 68.3054 57.0692 68.2649 57.0074 68.2483C56.9455 68.2318 56.8796 68.2404 56.8242 68.2724C56.7688 68.3044 56.7283 68.3571 56.7117 68.419C50.097 90.1869 50.3847 89.2145 42.8653 107.665C42.8433 107.728 42.8367 107.795 42.846 107.861C42.8553 107.927 42.8803 107.99 42.9189 108.045C42.9575 108.099 43.0085 108.143 43.0677 108.174C43.1269 108.204 43.1926 108.22 43.2593 108.22Z" fill="#2B2E3F"/>
<path d="M47.4335 133.012C45.4269 127.89 43.2795 122.675 40.2147 118.073C40.1295 117.907 39.9923 117.773 39.8241 117.692C39.6559 117.611 39.4658 117.588 39.283 117.625C36.4072 118.28 33.5762 119.118 30.807 120.133C28.158 120.981 25.4592 121.901 22.8546 122.927C22.7948 122.941 22.7387 122.968 22.69 123.006C22.6414 123.043 22.6013 123.091 22.5724 123.145C22.5435 123.199 22.5266 123.259 22.5226 123.32C22.5187 123.381 22.5278 123.443 22.5495 123.5C25.3492 128.593 27.871 133.851 30.27 139.138C30.2865 139.184 30.3126 139.227 30.3467 139.262C30.3808 139.298 30.422 139.326 30.4676 139.345C30.5132 139.363 30.5623 139.372 30.6116 139.37C30.6609 139.369 30.7092 139.357 30.7535 139.335C31.9474 139.335 38.3972 136.873 39.2438 136.576C41.8047 135.68 44.4568 134.893 46.9643 133.836C47.5051 133.657 47.5224 133.334 47.4335 133.012ZM38.5847 135.896C36.0758 136.788 33.4259 137.508 30.9893 138.601C28.6069 133.441 26.0098 128.426 23.1438 123.536C25.9021 122.859 28.5669 121.797 31.2785 120.939C33.9999 120.077 36.8486 119.508 39.4999 118.467C39.9119 118.306 44.731 127.925 46.3067 133.066C43.7073 133.889 41.1622 134.976 38.5847 135.896Z" fill="#2B2E3F"/>
<path d="M23.0353 132.867C20.4465 132.094 17.805 131.436 15.2079 130.754C12.7539 130.11 10.2638 129.323 7.7563 128.909C9.97829 125.691 11.4516 122.632 16.3543 116.55C16.7085 115.976 17.1163 115.437 17.5722 114.941C17.7809 114.804 17.7929 114.865 19.1841 115.21C20.1874 115.46 21.1907 115.658 22.197 115.872C25.0449 116.482 27.9628 117.417 30.8665 117.664C31.0992 117.683 31.1 117.358 30.92 117.287C27.7105 116.03 24.8859 115.893 18.5604 114.331C18.2908 114.264 17.6099 113.936 17.3779 114.206C13.8732 118.339 10.665 122.714 7.77739 127.3C7.53197 127.655 7.31053 128.026 7.11456 128.411C6.87127 128.997 7.09875 129.246 7.66968 129.449C9.14523 129.976 22.7649 133.585 22.8417 133.605C22.8902 133.618 22.9407 133.621 22.9903 133.614C23.04 133.608 23.0878 133.591 23.131 133.566C23.1743 133.541 23.2122 133.507 23.2424 133.467C23.2727 133.427 23.2949 133.382 23.3076 133.333C23.3203 133.285 23.3233 133.234 23.3165 133.185C23.3097 133.135 23.2932 133.087 23.2679 133.044C23.2426 133.001 23.2091 132.963 23.1692 132.932C23.1292 132.902 23.0838 132.88 23.0353 132.867Z" fill="#2B2E3F"/>
<path d="M68.5163 129.017C69.4075 128.092 70.1678 127.049 70.776 125.918C71.5194 124.731 72.3382 123.61 73.0869 122.443C73.135 122.357 73.1506 122.256 73.1309 122.16C73.1112 122.063 73.0575 121.976 72.9795 121.915C72.9014 121.855 72.8043 121.824 72.7055 121.829C72.6068 121.834 72.5131 121.874 72.4414 121.942C71.6159 122.931 70.8901 123.999 70.2744 125.13C69.6349 126.155 68.9306 127.154 68.322 128.211C68.2457 128.166 68.1595 128.142 68.0712 128.139C62.1208 128.13 56.2457 126.42 50.3021 126.527C58.9573 117.263 63.5941 113.143 63.7184 112.894C65.7046 113.419 67.7202 113.826 69.7546 114.112C70.8641 114.332 71.9766 114.556 73.0869 114.775C73.8928 114.934 74.9134 115.348 75.7374 115.152C75.8144 115.129 75.8833 115.085 75.9358 115.024C75.9883 114.963 76.0222 114.889 76.0336 114.81C76.045 114.73 76.0332 114.649 75.9998 114.576C75.9664 114.503 75.9127 114.442 75.8451 114.398C75.1612 113.937 73.999 113.92 73.2089 113.771C65.8176 112.371 63.814 111.696 62.981 112.32C58.198 116.692 53.7435 121.41 49.6536 126.435C49.625 126.47 49.6053 126.511 49.596 126.554C49.5867 126.598 49.5881 126.643 49.6001 126.686C49.585 126.725 49.5794 126.767 49.5837 126.809C49.588 126.85 49.6021 126.89 49.6248 126.925C49.6475 126.96 49.6782 126.989 49.7144 127.01C49.7505 127.031 49.7911 127.043 49.8328 127.045C57.4049 127.821 67.9356 129.453 68.5163 129.017Z" fill="#2B2E3F"/>
<path d="M100.902 125.972C92.9177 115.782 91.4022 114.404 89.4529 111.285C89.3331 111.093 89.1689 111.088 88.9513 111.159C82.8577 113.14 76.8862 115.595 70.9132 117.966C70.6812 118.058 70.4854 118.411 70.734 118.61C74.4714 121.615 80.3171 128.499 83.8994 132.762C84.3318 133.276 84.6406 131.918 100.505 127.065C101.202 126.852 101.209 126.364 100.902 125.972ZM71.7583 118.448C77.4903 116.12 83.2577 113.791 89.1689 111.965C90.4584 114.49 92.4078 116.677 94.1665 118.894C96.0104 121.224 97.8385 123.584 99.7019 125.899C99.7392 125.944 99.7646 125.997 99.7757 126.055C99.7867 126.112 99.7832 126.171 99.7653 126.226C99.7474 126.282 99.7157 126.332 99.6733 126.372C99.6309 126.411 99.5791 126.44 99.5227 126.454C94.3354 128.021 89.2453 129.893 84.2791 132.061C80.3917 127.351 76.4155 122.407 71.7583 118.448Z" fill="#2B2E3F"/>
<path d="M87.414 117.714C87.8419 117.478 87.6829 116.66 87.1451 116.729C85.7386 117.018 84.377 117.494 83.0966 118.144C81.7559 118.723 80.1726 119.286 79.1204 120.329C79.0787 120.372 79.0523 120.428 79.0451 120.489C79.038 120.549 79.0505 120.609 79.0807 120.662C79.111 120.714 79.1574 120.755 79.213 120.779C79.2686 120.803 79.3305 120.808 79.3893 120.794C80.8137 120.388 82.1985 119.855 83.5267 119.199C84.8523 118.786 86.1507 118.29 87.414 117.714Z" fill="#2B2E3F"/>
<path d="M88.4889 119.201C85.8722 120.399 83.3324 121.802 80.8219 123.178C80.428 123.393 80.7699 123.931 81.1624 123.769C83.825 122.648 86.4959 121.501 89.044 120.154C89.6745 119.816 89.1156 118.914 88.4889 119.201Z" fill="#2B2E3F"/>
<path d="M91.372 123.608C91.4511 123.583 91.524 123.541 91.5861 123.486C91.6482 123.431 91.6982 123.364 91.7327 123.288C91.7673 123.213 91.7857 123.131 91.7868 123.048C91.7879 122.965 91.7717 122.882 91.7392 122.806C91.7066 122.73 91.6585 122.661 91.5979 122.604C91.5373 122.547 91.4655 122.504 91.3871 122.477C91.3087 122.449 91.2255 122.438 91.1428 122.445C91.06 122.452 90.9795 122.476 90.9065 122.515C88.2552 123.841 85.5978 125.151 82.8998 126.42C82.4712 126.621 82.8456 127.225 83.2576 127.047C85.9609 125.877 88.6627 124.706 91.372 123.608Z" fill="#2B2E3F"/>
<path d="M37.3844 124.216C37.4431 124.155 37.4828 124.077 37.4988 123.993C37.5148 123.909 37.5065 123.823 37.4748 123.743C37.4431 123.664 37.3894 123.596 37.3199 123.546C37.2505 123.496 37.1683 123.468 37.0831 123.463C35.8651 123.405 34.5771 124.184 33.5008 124.699C32.0918 125.301 30.7271 126.001 29.4168 126.796C29.338 126.845 29.2795 126.921 29.2515 127.01C29.2236 127.099 29.2281 127.195 29.2642 127.281C29.3004 127.367 29.3658 127.437 29.4489 127.48C29.532 127.522 29.6274 127.533 29.7181 127.512C31.0948 127.134 32.4276 126.612 33.6944 125.953C34.8747 125.432 36.3811 125.096 37.3844 124.216Z" fill="#2B2E3F"/>
<path d="M40.1959 127.62C40.2853 127.565 40.3543 127.482 40.3925 127.384C40.4307 127.286 40.4361 127.179 40.4078 127.078C40.3795 126.976 40.319 126.887 40.2356 126.823C40.1521 126.76 40.0502 126.725 39.9451 126.724C38.584 126.765 37.1333 127.567 35.8966 128.121C34.3773 128.766 32.9403 129.59 31.616 130.575C31.5452 130.623 31.4953 130.695 31.4765 130.779C31.4577 130.862 31.4715 130.949 31.5149 131.022C31.5584 131.096 31.6283 131.15 31.7103 131.173C31.7922 131.196 31.8801 131.188 31.9557 131.148C33.3319 130.532 34.662 129.879 36.0404 129.286C37.3668 128.715 39.0284 128.404 40.1959 127.62Z" fill="#2B2E3F"/>
<path d="M41.5574 130.809C38.7479 131.517 36.1478 133.068 33.443 134.104C32.9775 134.283 33.1575 135.02 33.6584 134.857C36.4204 133.953 39.1569 132.899 41.8444 131.844C41.9733 131.799 42.0802 131.707 42.1435 131.586C42.2068 131.465 42.2217 131.324 42.1852 131.192C42.1487 131.061 42.0636 130.948 41.947 130.877C41.8305 130.805 41.6912 130.781 41.5574 130.809Z" fill="#2B2E3F"/>
<path d="M77.9743 141.52C75.6635 136.576 73.681 131.366 71.0244 126.599C70.8956 126.368 70.4858 126.527 70.5762 126.778C72.3689 131.746 74.6602 136.576 76.7744 141.43C71.9591 142.163 68.3339 143.69 63.7159 145.318C63.3205 145.457 62.1741 146.037 61.8171 145.873C61.4751 145.715 61.1731 144.619 61.0111 144.26C59.0867 140.005 57.047 134.282 55.6015 129.859C55.5783 129.782 55.5263 129.718 55.4565 129.68C55.3867 129.641 55.3046 129.631 55.2276 129.652C55.1507 129.673 55.085 129.723 55.0444 129.792C55.0038 129.861 54.9916 129.942 55.0103 130.02C56.4276 135.285 58.2728 140.425 60.5276 145.389C60.7234 145.819 60.8507 146.427 61.262 146.714C61.9255 147.179 63.1073 146.518 63.7513 146.303C68.3324 144.766 72.921 142.779 77.5262 142.379C77.6019 142.379 77.6766 142.361 77.7453 142.329C77.8139 142.297 77.8749 142.251 77.9241 142.193C77.9733 142.135 78.0096 142.068 78.0306 141.995C78.0516 141.922 78.0568 141.846 78.0459 141.771C78.045 141.682 78.0203 141.596 77.9743 141.52Z" fill="#2B2E3F"/>
<path d="M63.3568 139.693C65.9562 139.31 68.4087 138.206 70.8626 137.329C71.597 137.221 71.2392 135.934 70.4326 136.307C65.7129 138.495 64.5213 138.052 63.0887 139.227C62.8183 139.424 63.1068 139.73 63.3568 139.693Z" fill="#2B2E3F"/>
<path d="M62.3539 135.34C64.5516 135.154 66.7113 134.653 68.7668 133.853C69.4485 133.623 69.1434 132.525 68.4655 132.761C66.4205 133.469 64.292 133.925 62.2681 134.713C61.96 134.856 61.9781 135.353 62.3539 135.34Z" fill="#2B2E3F"/>
<path d="M66.5636 130.289C64.5744 130.374 62.5347 131.314 60.6885 131.99C60.6053 132.014 60.535 132.07 60.493 132.146C60.4509 132.221 60.4407 132.311 60.4645 132.394C60.4882 132.477 60.5441 132.547 60.6197 132.589C60.6954 132.631 60.7846 132.642 60.8678 132.618C62.7667 132.119 64.8809 131.94 66.6894 131.221C67.1376 131.042 67.1368 130.265 66.5636 130.289Z" fill="#2B2E3F"/>
<path d="M114.338 118.126C114.412 118 114.432 117.85 114.395 117.709C114.358 117.568 114.267 117.447 114.141 117.373C110.41 115.415 99.4853 110.669 98.3231 111.479C96.8679 112.495 95.7539 114.567 95.027 116.119C94.9843 116.192 94.9725 116.28 94.9944 116.362C95.0162 116.445 95.0698 116.515 95.1434 116.558C95.217 116.6 95.3046 116.612 95.3869 116.59C95.4692 116.568 95.5394 116.515 95.5822 116.441C95.9898 115.745 96.4323 115.069 96.9078 114.417C97.3837 113.623 97.9891 112.915 98.699 112.321C99.4861 111.854 100.65 112.54 101.404 112.823C102.226 113.132 110.073 116.495 113.079 118.053C108.923 124.95 103.675 131.04 98.3728 137.094C96.9575 136.199 90.8151 133.484 89.1301 133.297C88.7897 133.259 88.7354 133.782 89.0586 133.87C90.8474 134.36 97.0087 137.747 98.534 138.294C98.5941 138.318 98.6588 138.326 98.7229 138.32C98.7869 138.313 98.8486 138.292 98.9027 138.257C98.9568 138.222 99.0019 138.175 99.0344 138.119C99.0668 138.063 99.0855 138.001 99.0891 137.936C104.609 131.686 110.165 125.375 114.338 118.126Z" fill="#2B2E3F"/>
<path d="M138.267 118.61C133.162 116.228 127.455 115.093 122.809 111.749C122.721 111.7 122.617 111.687 122.519 111.714C122.422 111.74 122.339 111.805 122.289 111.892C120.498 114.275 118.777 116.713 116.987 119.111C114.514 122.215 112.229 125.463 110.144 128.838C110.083 128.946 110.066 129.073 110.096 129.193C110.126 129.313 110.201 129.417 110.305 129.483C115.133 131.919 120.479 134.201 125.871 134.928C125.986 134.953 126.106 134.942 126.215 134.898C126.324 134.853 126.416 134.776 126.481 134.677C130.412 129.418 134.745 124.443 139.019 119.452C139.482 118.912 138.732 118.126 138.267 118.61ZM125.782 133.818C120.767 133.065 115.769 131.06 111.219 128.856C113.763 124.336 120.785 115.158 122.701 112.591C127.268 115.816 132.839 116.837 137.926 119.004C133.789 123.858 129.597 128.713 125.782 133.818Z" fill="#2B2E3F"/>
<path d="M119.818 127.674C118.876 127.381 117.919 127.136 116.952 126.939C116.63 126.883 116.365 126.747 116.093 127.029C116.016 127.11 115.962 127.209 115.935 127.317C115.907 127.425 115.908 127.538 115.937 127.646C115.965 127.754 116.021 127.852 116.098 127.932C116.176 128.012 116.272 128.072 116.379 128.104C117.83 128.624 119.424 128.839 120.911 129.268C122.333 129.791 123.794 130.204 125.28 130.504C125.692 130.556 125.749 129.976 125.476 129.787C123.887 128.665 121.663 128.197 119.818 127.674Z" fill="#2B2E3F"/>
<path d="M128.057 125.399C126.735 124.641 125.343 124.011 123.901 123.516C122.375 122.899 120.836 122.267 119.316 121.671C118.544 121.37 118.223 122.603 118.975 122.907C121.786 124.037 124.792 125.549 127.77 126.095C127.858 126.114 127.949 126.101 128.029 126.06C128.108 126.018 128.17 125.95 128.204 125.867C128.238 125.784 128.242 125.692 128.215 125.606C128.189 125.521 128.133 125.448 128.057 125.399Z" fill="#2B2E3F"/>
<path d="M130.91 121.369C128.449 120.1 125.919 118.97 123.332 117.983C123.195 117.948 123.051 117.964 122.924 118.027C122.798 118.09 122.698 118.196 122.644 118.327C122.59 118.457 122.584 118.603 122.628 118.737C122.673 118.871 122.764 118.985 122.885 119.058C125.336 120.359 127.918 121.398 130.587 122.157C131.014 122.3 131.335 121.569 130.91 121.369Z" fill="#2B2E3F"/>
<path d="M143.463 102.543C141.666 102.439 141.612 102.543 132.428 102.865C129.455 102.969 126.478 103.041 123.526 103.313C123.455 103.313 123.386 103.341 123.336 103.391C123.286 103.442 123.257 103.51 123.257 103.582C123.257 103.653 123.286 103.721 123.336 103.772C123.386 103.822 123.455 103.85 123.526 103.85C126.553 103.841 129.562 103.753 132.59 103.671C136.205 103.572 139.984 103.752 143.57 103.277C144 103.22 143.856 102.565 143.463 102.543Z" fill="#2B2E3F"/>
<path d="M7.363 108.689C11.2195 107.836 14.2692 108.319 24.4512 107.721C24.505 107.717 24.5552 107.692 24.5918 107.652C24.6283 107.613 24.6486 107.561 24.6486 107.507C24.6486 107.453 24.6283 107.4 24.5918 107.361C24.5552 107.321 24.505 107.296 24.4512 107.292C12.5564 107.22 9.79815 107.269 7.12724 107.847C6.57363 107.965 6.80713 108.81 7.363 108.689Z" fill="#2B2E3F"/>
<path d="M59.9728 106.555C57.9843 106.555 55.9958 106.5 54.0223 106.429C53.5207 106.411 53.5207 107.198 54.0223 107.218C67.0116 107.736 79.9955 106.402 92.9636 106.394C93.0652 106.39 93.1612 106.346 93.2315 106.273C93.3018 106.199 93.3411 106.101 93.3411 106C93.3411 105.898 93.3018 105.8 93.2315 105.727C93.1612 105.653 93.0652 105.61 92.9636 105.605C89.0153 105.605 89.8544 105.756 89.7572 105.462C89.6927 103.496 89.4405 101.541 89.004 99.6227C88.3261 96.5413 86.8083 89.9649 84.795 86.009C84.7319 85.8909 84.6301 85.798 84.5067 85.7459C84.3833 85.6938 84.2458 85.6856 84.1171 85.7228C81.9328 86.4391 72.0302 89.229 62.5864 85.9556C62.5112 85.9299 62.4315 85.9205 62.3524 85.9277C62.2733 85.935 62.1966 85.9588 62.1273 85.9977C62.058 86.0366 61.9977 86.0896 61.9503 86.1533C61.9028 86.217 61.8694 86.29 61.852 86.3676C61.6027 87.4786 61.1357 89.8964 60.8126 91.8849C60.0594 96.5066 59.3619 101.719 59.9532 106.466C59.9366 106.466 59.9569 106.519 59.9728 106.555ZM71.6318 95.6103C73.1856 95.1382 74.8213 94.9979 76.4328 95.1983C76.503 95.2208 76.5643 95.265 76.6078 95.3245C76.6512 95.3841 76.6747 95.4559 76.6747 95.5297C76.6747 95.6034 76.6512 95.6753 76.6078 95.7348C76.5643 95.7944 76.503 95.8386 76.4328 95.8611C76.2516 95.9157 76.0654 95.9518 75.8769 95.9688C76.3432 98.6736 77.5076 102.847 78.1697 105.928C78.1697 106.088 78.9124 105.963 72.51 106.268C72.5242 106.234 72.5302 106.197 72.5274 106.161C72.7035 102.82 72.7095 99.4717 72.5454 96.13C72.2592 96.13 71.9903 96.1119 71.7033 96.0938C71.4367 96.0584 71.3478 95.6856 71.6318 95.6103Z" fill="#2B2E3F"/>
</svg>
