<svg width="151" height="151" viewBox="0 0 151 151" fill="none" xmlns="http://www.w3.org/2000/svg">
<path d="M98.0991 50.6695C100.66 52.1948 112.911 52.4772 117.32 49.4305C117.373 49.3948 117.411 49.3402 117.425 49.2778C117.439 49.2154 117.428 49.1501 117.395 49.0953C117.362 49.0405 117.31 49.0004 117.248 48.9833C117.187 48.9662 117.121 48.9734 117.064 49.0034C111.13 51.6592 105.339 51.1267 102.499 49.4305C93.6416 44.1414 90.8178 29.1072 99.3351 23.1184C105.813 18.5629 115.914 18.7113 120.393 28.415C120.436 28.543 120.694 28.4579 120.607 28.3299C115.151 14.4436 97.608 21.1148 96.3019 22.0511C86.9726 28.7374 88.482 44.9473 98.0991 50.6695Z" fill="#2B2E3F"/>
<path d="M102.243 30.0381C102.967 28.7672 104.04 27.7302 105.334 27.0495C106.629 26.3688 108.091 26.0728 109.549 26.1967C110.062 26.2381 111.733 25.9707 110.788 25.1294C109.493 23.9747 102.932 24.9576 101.775 29.657C101.676 30.0479 101.929 30.5051 102.243 30.0381Z" fill="#00C896"/>
<path d="M100.79 29.1411C100.71 28.83 100.279 28.8398 100.149 29.227C100.041 30.5831 100.2 31.9473 100.619 33.2416C100.645 33.3314 100.691 33.414 100.754 33.4829C100.816 33.5517 100.895 33.6049 100.982 33.6381C101.069 33.6713 101.163 33.6837 101.256 33.6742C101.348 33.6648 101.438 33.6337 101.516 33.5836C102.621 32.7648 103.681 31.9009 104.763 31.0633C105.701 30.3357 104.8 29.4612 104.165 29.825C103.863 29.9952 101.388 31.7472 101.473 32.0462C101.217 31.1077 101.041 30.1248 100.79 29.1411Z" fill="#00C896"/>
<path d="M105.917 44.7319C106.396 44.8209 106.885 44.8354 107.369 44.7748C107.404 44.7767 107.439 44.7715 107.471 44.7594C107.504 44.7474 107.534 44.7288 107.559 44.7048C107.585 44.6808 107.605 44.6519 107.619 44.6198C107.633 44.5878 107.64 44.5532 107.64 44.5183C107.64 44.4834 107.633 44.4489 107.619 44.4168C107.605 44.3848 107.585 44.3559 107.559 44.3319C107.534 44.3079 107.504 44.2893 107.471 44.2772C107.439 44.2652 107.404 44.26 107.369 44.2619C104.835 44.0721 103.087 41.8802 102.285 39.4782C102.072 38.8372 102.067 37.6878 101.688 37.1289C101.631 37.0322 101.55 36.9521 101.453 36.8964C101.355 36.8407 101.245 36.8115 101.133 36.8115C101.02 36.8115 100.91 36.8407 100.813 36.8964C100.715 36.9521 100.634 37.0322 100.577 37.1289C99.735 38.615 102.167 43.9749 105.917 44.7319Z" fill="#00C896"/>
<path d="M106.984 46.5259C108.279 46.3636 109.528 45.9422 110.657 45.2869C111.636 44.7272 110.999 44.1766 110.316 43.6637C109.473 42.8381 108.542 42.1077 107.54 41.4854C107.402 41.4118 107.244 41.3888 107.091 41.4204C106.938 41.452 106.802 41.5363 106.705 41.6584C106.608 41.7806 106.558 41.9328 106.562 42.0886C106.566 42.2444 106.625 42.3937 106.728 42.5105C107.142 42.9296 107.6 43.3021 108.095 43.6215C109.526 44.6188 110.409 44.3687 106.771 45.9279C106.714 45.9706 106.673 46.0302 106.653 46.098C106.633 46.1658 106.634 46.2383 106.658 46.305C106.682 46.3717 106.726 46.429 106.785 46.4687C106.843 46.5085 106.913 46.5285 106.984 46.5259Z" fill="#00C896"/>
<path d="M89.086 72.7522C89.1666 72.7122 89.8762 65.4053 89.599 65.4053C89.9395 65.441 90.2818 65.4554 90.6241 65.4482C90.2279 67.5948 90.4197 69.8086 91.1792 71.8551C91.3931 71.77 91.5634 71.727 91.7773 71.6419C91.1785 69.6197 90.9187 67.5124 91.0082 65.4053C96.1233 64.9963 94.9875 58.4757 91.2651 58.3574C91.4353 58.3574 91.7697 55.0689 91.7773 54.7269C91.8413 51.6922 90.4968 48.6184 87.3333 47.8071C84.801 47.1571 80.3194 47.4885 77.9362 47.8501C76.5683 48.0572 74.7403 48.5754 74.9037 50.3274C75.3911 55.5449 83.9491 50.4027 85.6679 53.8728C86.8731 56.3034 86.7978 59.2959 86.5221 61.9028C86.2042 64.8841 85.2522 67.5648 82.8916 69.3356C83.1048 69.1646 82.5903 67.97 82.5067 67.7975C82.0028 66.743 80.7464 65.6749 78.6653 65.3202C75.0197 64.6995 74.7787 67.1 76.487 68.0536C77.7215 68.7435 80.479 68.965 80.0324 70.7448C79.7906 71.6999 78.3655 72.3929 77.085 71.1719C76.954 71.0469 76.1059 70.0187 76.0599 70.83C76.0554 70.9053 75.8452 74.6819 75.9748 75.4434C76.3514 77.6744 78.9161 78.4992 81.1856 78.3478C82.0382 76.1266 87.1217 73.6071 89.086 72.7522ZM92.1614 64.637C91.3344 64.8983 90.4593 64.9711 89.6005 64.8502V59.2975C93.4735 57.3594 95.6112 63.3784 92.1614 64.637Z" fill="#2B2E3F"/>
<path d="M73.709 64.5503C74.437 64.859 75.243 64.9337 76.0153 64.7642C76.0802 64.744 76.1358 64.7012 76.1718 64.6435C76.2079 64.5859 76.222 64.5172 76.2117 64.45C76.2014 64.3828 76.1673 64.3215 76.1157 64.2773C76.064 64.2331 75.9982 64.2089 75.9302 64.2091C75.4032 64.2592 74.872 64.2447 74.3485 64.1661C77.3086 61.5472 77.6129 57.1093 76.6081 53.2739C76.5659 53.1888 76.4371 53.1888 76.4371 53.3168C76.651 55.4522 76.9184 57.5906 76.3949 59.6807C76.0226 61.4194 75.0371 62.966 73.6186 64.0381C73.5741 64.0696 73.5396 64.1131 73.5189 64.1635C73.4982 64.2139 73.4922 64.2691 73.5017 64.3228C73.5112 64.3765 73.5357 64.4263 73.5724 64.4666C73.6091 64.5069 73.6564 64.5359 73.709 64.5503Z" fill="#2B2E3F"/>
<path d="M77.5971 70.2328C77.4303 70.1752 77.2824 70.0731 77.1694 69.9376C77.0564 69.802 76.9827 69.6382 76.9561 69.4638C76.9561 69.2672 76.6729 69.3169 76.6548 69.4638C76.6185 69.7061 76.6555 69.9538 76.7612 70.1749C76.8668 70.396 77.0362 70.5805 77.2476 70.7045C77.459 70.8285 77.7026 70.8865 77.9472 70.8709C78.1917 70.8553 78.426 70.7668 78.6199 70.6169C79.1637 70.2049 79.0515 69.8321 78.8331 69.805C78.3081 69.7402 78.2486 70.4633 77.5971 70.2328Z" fill="#2B2E3F"/>
<path d="M80.8853 56.5664C80.9282 56.5664 80.9282 56.6086 80.8853 56.5664C80.9405 56.599 81.0047 56.6131 81.0686 56.6067C81.1324 56.6003 81.1925 56.5737 81.2401 56.5307C81.2878 56.4878 81.3205 56.4308 81.3335 56.3679C81.3465 56.3051 81.3391 56.2398 81.3124 56.1815C81.1554 55.8148 80.9015 55.4979 80.5779 55.2646C80.2544 55.0313 79.8735 54.8905 79.476 54.8573C79.1056 54.8141 78.7321 54.9073 78.4254 55.1196C78.1187 55.3318 77.8999 55.6486 77.8099 56.0105C77.767 56.2244 78.066 56.3118 78.1948 56.1815C79.6847 54.6886 80.7083 56.4911 80.8853 56.5664Z" fill="#2B2E3F"/>
<path d="M30.397 66.6874C30.6584 66.9819 31.1661 66.6016 30.9522 66.2604C29.3749 64.0354 8.05138 38.3838 4.76811 34.2246C4.6363 34.0566 4.4269 34.3097 4.55495 34.4377C7.41416 38.1127 28.6759 64.7487 30.397 66.6874Z" fill="#2B2E3F"/>
<path d="M44.023 60.0236C44.0844 60.0813 44.1643 60.1153 44.2485 60.1194C44.3326 60.1236 44.4155 60.0976 44.4823 60.0463C44.5491 59.9949 44.5954 59.9214 44.6129 59.839C44.6305 59.7566 44.6182 59.6707 44.5781 59.5965C44.5149 59.5114 17.9512 25.7259 17.8819 25.6385C17.7493 25.4713 17.5399 25.7244 17.6687 25.8524C19.5638 28.2929 41.9645 57.7059 44.023 60.0236Z" fill="#2B2E3F"/>
<path d="M15.4901 25.4678C15.5694 25.4225 15.6274 25.3476 15.6515 25.2595C15.6756 25.1715 15.6637 25.0774 15.6185 24.9981C15.5732 24.9188 15.4983 24.8607 15.4103 24.8367C15.3222 24.8126 15.2282 24.8245 15.1488 24.8697C13.5106 25.7344 5.1499 30.9391 3.82951 32.2595C3.79433 32.2895 3.77164 32.3316 3.7659 32.3775C3.76016 32.4234 3.77179 32.4698 3.7985 32.5075C3.8252 32.5453 3.86507 32.5717 3.91025 32.5815C3.95543 32.5914 4.00266 32.584 4.04267 32.5608C4.11875 32.5269 15.4147 25.519 15.4901 25.4678Z" fill="#2B2E3F"/>
<path d="M28.3898 125.504C28.2009 125.295 28.0013 125.095 27.7917 124.906C28.0719 124.766 29.0217 124.361 29.5 124.095C29.372 123.924 29.2439 123.794 29.1159 123.625C28.8033 123.821 28.4759 123.992 28.1367 124.137C27.8806 124.266 27.6245 124.394 27.4106 124.479C26.1122 123.13 24.9132 121.688 23.823 120.166C24.4722 119.881 25.1013 119.553 25.7061 119.183L25.45 118.671C24.809 119.055 24.1695 119.397 23.4848 119.738C23.3651 119.498 22.5192 118.356 21.7336 117.047C21.7109 117.007 21.6733 116.978 21.629 116.966C21.5847 116.954 21.5374 116.96 21.4975 116.982C21.4575 117.005 21.4282 117.043 21.416 117.087C21.4038 117.131 21.4096 117.178 21.4323 117.218C21.9482 118.13 22.4895 119.027 23.0555 119.909C22.4066 120.251 21.7361 120.551 21.0482 120.806C20.8772 120.892 20.9201 121.148 21.1333 121.107C21.8847 120.888 22.6244 120.631 23.3492 120.336C24.3904 121.887 25.5468 123.358 26.8088 124.735C25.5663 125.299 24.2618 125.715 22.9222 125.974C22.7504 126.014 22.8363 126.231 23.0073 126.231C24.2412 126.057 25.4566 125.771 26.6385 125.376C27.4754 125.167 26.9248 124.937 27.6637 125.678C28.3486 126.393 29.0913 127.05 29.8841 127.643C29.9263 127.663 29.9737 127.67 30.0197 127.662C30.0658 127.654 30.1083 127.632 30.1413 127.599C30.1743 127.566 30.1963 127.523 30.2042 127.477C30.2121 127.431 30.2056 127.384 30.1854 127.342C29.6503 126.67 29.0487 126.055 28.3898 125.504Z" fill="#2B2E3F"/>
<path d="M58.4177 127.299C55.334 129.845 52.1931 132.619 48.0384 133.193C37.3555 134.668 27.447 119.973 22.4953 110.341C20.3462 106.144 18.449 101.822 16.8138 97.3991C16.8657 97.3399 16.8942 97.2638 16.8942 97.1851C16.8942 97.1064 16.8657 97.0304 16.8138 96.9712C14.0088 93.6465 10.065 87.4927 10.065 84.8444C10.065 84.6313 9.7637 84.6313 9.72378 84.8444C9.65342 85.7985 9.8298 86.7546 10.236 87.6208C11.6838 91.2267 13.7511 94.5515 16.3445 97.445C16.3913 97.4902 16.4507 97.5201 16.5148 97.5309C18.5887 104.165 21.4422 110.53 25.0156 116.492C29.0641 123.227 34.0858 128.398 35.9929 129.733C44.325 136.446 51.4392 135.131 58.8448 127.726C58.9014 127.669 58.9332 127.592 58.9332 127.512C58.9332 127.432 58.9014 127.355 58.8448 127.299C58.7881 127.242 58.7113 127.21 58.6312 127.21C58.5511 127.21 58.4743 127.242 58.4177 127.299Z" fill="#2B2E3F"/>
<path d="M17.4122 78.69C17.4106 78.6554 17.4002 78.6218 17.3821 78.5924C17.364 78.5629 17.3387 78.5385 17.3087 78.5214C17.2786 78.5044 17.2447 78.4952 17.2101 78.4948C17.1755 78.4943 17.1414 78.5027 17.1109 78.519C15.9916 79.2873 15.7973 83.1934 16.7697 85.5668C17.2058 86.6311 17.8799 87.831 19.0293 88.2151C20.3098 88.6422 21.2378 87.5659 21.8916 86.5919C22.6988 85.3429 23.2102 83.926 23.3867 82.4493C23.3868 82.4179 23.3758 82.3876 23.3555 82.3637C23.3353 82.3397 23.3072 82.3238 23.2763 82.3187C23.2453 82.3137 23.2136 82.3198 23.1868 82.3359C23.16 82.3521 23.1398 82.3774 23.1299 82.4071C22.7721 84.0197 20.9922 88.0125 19.4142 87.6178C18.2181 87.4047 17.5658 85.9133 17.193 84.8844C16.0873 81.8166 17.4679 79.0801 17.4122 78.69Z" fill="#2B2E3F"/>
<path d="M15.8313 87.019C15.0209 85.0011 13.9016 82.5487 14.7211 79.1599C14.7625 78.9882 14.5064 78.946 14.4643 79.0741C13.802 81.1002 13.802 83.2846 14.4643 85.3107C14.6419 86.0206 14.9304 86.698 15.3192 87.318C15.4472 87.5319 15.9677 87.3579 15.8313 87.019Z" fill="#2B2E3F"/>
<path d="M13.7382 87.318C12.816 85.4188 12.1414 83.4091 11.7309 81.3382C11.688 81.2523 11.517 81.2101 11.4748 81.3382C11.1284 83.3289 13.5017 88.7845 14.3792 89.4112C14.5931 89.5821 14.9344 89.4541 14.8492 89.1551C14.731 88.7408 14.4523 88.618 13.7382 87.318Z" fill="#2B2E3F"/>
<path d="M47.0989 72.9662C51.0088 74.3114 54.2544 75.4751 58.0341 78.1769C61.6909 80.7928 59.5548 83.6332 55.9409 85.5667C53.6542 86.6678 51.1291 87.1816 48.594 87.0619C40.4471 86.9281 32.4952 84.5485 25.6141 80.185C19.797 76.5997 18.2605 72.64 25.1441 71.642C27.3273 71.392 29.5272 71.3205 31.722 71.4281C31.8929 71.4281 31.8929 71.2149 31.722 71.172C28.9821 70.7943 26.1998 70.852 23.478 71.343C21.4315 71.7369 19.8407 72.6694 20.0607 74.7603C19.4069 79.9929 18.9723 82.538 19.3775 86.5918C19.3775 86.7628 19.6788 86.7628 19.6336 86.5918C19.5724 85.0389 19.6151 83.4835 19.7616 81.9362C19.9921 79.0627 20.3898 76.2449 20.4026 76.1696C22.8204 81.409 36.773 87.0837 46.7577 87.6185C51.8223 87.8889 56.5111 87.2961 59.6143 83.2619C57.7192 90.8422 57.8977 89.842 57.8631 90.2239C57.8201 90.4807 58.205 90.5658 58.3331 90.3527C59.1435 88.7302 60.0022 83.9767 60.2975 82.1938C62.1865 77.6564 50.4808 73.2562 47.1418 72.6671C46.9708 72.5391 46.8435 72.878 47.0989 72.9662Z" fill="#2B2E3F"/>
<path d="M54.6591 90.3933C54.9197 90.1854 54.705 89.7154 54.3578 89.9233C51.8722 91.4245 51.7539 91.6376 48.8902 93.2126C47.3575 92.1846 45.9271 91.0117 44.6187 89.7101C44.4907 89.5821 44.2805 89.7922 44.4055 89.9233C45.6348 91.2173 47.0539 92.2726 48.3351 93.5116C48.1844 93.6103 44.7483 95.5205 44.5758 95.3909C43.0333 94.2407 41.5373 93.0296 40.0911 91.7604C41.0497 91.3425 41.9775 90.8572 42.8675 90.3082C43.0407 90.1832 42.9526 89.9233 42.7394 90.0069C41.6858 90.4117 40.6586 90.8824 39.6641 91.4162C37.9049 89.8463 36.2363 88.1778 34.6665 86.4186C34.5384 86.2476 34.2786 86.5067 34.4104 86.6754C35.8333 88.47 37.3896 90.1547 39.066 91.7152C37.7056 92.3992 36.324 93.0402 34.9233 93.6374C33.597 92.4459 32.3011 91.221 31.0367 89.964C31.5293 89.7666 34.5859 88.3988 34.8781 87.9567C34.964 87.8286 34.8359 87.6147 34.7079 87.6554C34.314 87.6554 33.1344 88.5653 30.6496 89.5776C29.2303 88.2004 28.0086 86.6334 27.0191 84.9212C26.9339 84.751 26.6794 84.9212 26.763 85.0922C27.6605 86.7634 28.7659 88.3143 30.053 89.7079C29.3792 90.1114 28.6631 90.4398 27.9176 90.6871C27.7444 90.7684 27.8747 90.9432 28.0028 90.9432C28.8511 90.7863 29.6812 90.543 30.4801 90.2171C31.6723 91.5303 32.9417 92.7713 34.2816 93.9334C33.5133 94.2347 32.736 94.5142 31.9752 94.8734C31.8027 94.9548 31.9323 95.1695 32.1033 95.1295C35.9507 94.237 32.986 93.1184 38.8069 97.7778C37.6111 98.207 36.3999 98.5916 35.1756 98.931C34.9625 99.0169 35.0476 99.3581 35.2615 99.273C36.6278 98.9717 37.952 98.5891 39.2761 98.162C40.7238 99.346 43.6832 101.613 44.1886 102.003C43.2043 102.419 42.1907 102.761 41.1562 103.029C40.8993 103.071 41.0281 103.457 41.2413 103.413C42.4206 103.166 43.5778 102.823 44.7016 102.388C45.0322 102.664 47.1638 104.276 48.1611 104.866C48.5121 105.217 48.8104 104.852 48.6311 104.481C48.3351 103.868 47.3966 103.526 45.3847 102.089C46.9619 101.45 48.5019 100.722 49.9974 99.9102C50.4674 100.211 50.9329 100.474 51.4074 100.722C51.4811 100.762 51.5675 100.771 51.6478 100.747C51.7281 100.724 51.7957 100.669 51.8356 100.595C51.8756 100.522 51.8847 100.435 51.8609 100.355C51.8371 100.275 51.7823 100.207 51.7087 100.167C51.3615 99.9622 51.0248 99.74 50.6836 99.5261C51.4757 99.1358 52.2329 98.6784 52.947 98.159C53.1602 97.9872 53.0351 97.5662 52.7339 97.6897C51.83 98.0573 50.8508 98.696 50.0426 99.099C48.3607 98.0897 46.5665 96.8627 44.9599 95.7246C46.2404 95.1265 47.4666 94.4607 48.7185 93.8024C49.1704 93.5636 51.7788 96.1193 52.5599 95.9377C52.6112 95.9217 52.6572 95.8917 52.6925 95.8511C52.7279 95.8106 52.7513 95.7609 52.7601 95.7078C52.7689 95.6547 52.7628 95.6002 52.7425 95.5504C52.7222 95.5006 52.6884 95.4573 52.645 95.4256C52.2397 95.1047 52.3437 95.3962 49.3135 93.5425C52.4778 91.7499 53.2686 91.4998 54.6591 90.3933ZM35.3948 93.8958C37.5272 93.0077 37.2206 93.0597 39.5375 92.0165C40.9468 93.297 42.3997 94.5368 43.937 95.6899C42.0774 96.5576 39.6799 97.4592 39.5797 97.4841C38.17 96.3053 36.7749 95.1091 35.3948 93.8958ZM49.5334 99.4914C49.2487 99.6338 47.1661 100.762 45.048 101.67C43.8753 100.825 43.0573 100.163 40.1363 97.8682C41.6216 97.3542 43.0762 96.7554 44.4929 96.0748C46.1316 97.2738 47.8128 98.4134 49.5334 99.4914Z" fill="#2B2E3F"/>
<path d="M146.751 91.7176C145.81 84.562 134.926 54.6646 129.665 43.7498C128.377 41.0766 127.826 32.8387 123.814 31.1914C123.6 31.104 123.429 31.4053 123.643 31.4927C125.916 32.74 126.621 36.2025 127.914 40.4627C129.075 44.2921 130.114 45.7398 133.94 55.2845C137.398 63.9194 143.48 80.7959 145.601 88.9435C147.791 97.3607 145.307 101.485 133.129 101.372C132.616 101.366 132.103 101.329 131.59 101.329C131.54 101.329 131.491 101.349 131.455 101.385C131.419 101.421 131.398 101.47 131.398 101.521C131.398 101.572 131.419 101.62 131.455 101.657C131.491 101.693 131.54 101.713 131.59 101.713C135.634 102.014 141.788 101.915 144.789 99.1925C146.846 97.3245 147.088 94.2815 146.751 91.7176Z" fill="#2B2E3F"/>
<path d="M121.08 45.3731C117.228 45.5335 112.299 39.5582 111.725 38.9655C111.081 38.2465 110.254 37.7153 109.333 37.4282C109.288 37.4182 109.241 37.4261 109.202 37.4503C109.163 37.4745 109.135 37.513 109.123 37.5576C109.112 37.6022 109.119 37.6494 109.142 37.6891C109.166 37.7288 109.203 37.7579 109.248 37.7701C111.959 38.7854 112.336 42.2774 117.748 45.0763C123.532 48.0666 118.556 38.8246 120.866 75.0189C120.866 75.0589 120.882 75.0972 120.91 75.1254C120.938 75.1537 120.977 75.1696 121.017 75.1696C121.057 75.1696 121.095 75.1537 121.123 75.1254C121.151 75.0972 121.167 75.0589 121.167 75.0189C120.628 43.5089 121.609 45.3068 121.08 45.3731Z" fill="#2B2E3F"/>
<path d="M112.75 25.6845C112.152 29.0589 113.402 32.3648 114.971 35.2948C115.432 36.1542 115.913 37.0452 116.424 37.8557C116.47 37.9266 116.543 37.9765 116.625 37.9948C116.708 38.0132 116.795 37.9986 116.867 37.9541C116.939 37.9096 116.991 37.8388 117.012 37.7566C117.033 37.6743 117.021 37.5873 116.979 37.5138C115.683 35.1584 112.693 30.8523 113.006 25.7252C113.092 25.5534 112.793 25.5105 112.75 25.6845Z" fill="#2B2E3F"/>
<path d="M117.577 31.5763C118.214 31.7241 118.806 32.0222 119.304 32.4457C119.802 32.8692 120.191 33.4059 120.439 34.0107C120.567 34.312 121.029 34.0981 120.951 33.7975C120.717 33.0937 120.287 32.471 119.712 32.0021C119.138 31.5332 118.441 31.2374 117.705 31.1492C117.643 31.1406 117.58 31.1525 117.525 31.1833C117.471 31.2141 117.428 31.2619 117.403 31.3195C117.402 31.375 117.418 31.4296 117.449 31.4757C117.48 31.5218 117.525 31.557 117.577 31.5763Z" fill="#2B2E3F"/>
<path d="M121.677 32.2163C122.181 32.8656 121.979 33.4637 122.318 33.4124C123.304 33.2618 122.147 31.4902 120.994 31.1912C120.909 31.149 120.823 31.1912 120.781 31.3193C120.654 31.4466 121.318 31.7524 121.677 32.2163Z" fill="#2B2E3F"/>
<path d="M52.0106 34.2246C55.4638 34.727 58.9684 34.7701 62.4329 34.3527C63.5548 34.2915 64.6693 34.1342 65.7644 33.8827C66.7074 33.5949 66.2163 32.5208 66.0204 31.8753C65.6039 30.5195 64.5261 25.1265 63.8851 23.4604C63.928 23.5033 64.6933 22.1799 64.7822 19.787C64.9848 14.3231 56.2663 13.1933 53.2489 17.9506C52.6586 18.8172 52.3182 19.8296 52.2651 20.8768C52.2119 21.924 52.4481 22.9656 52.9476 23.8875C53.0335 24.0585 51.6235 32.3024 51.6235 33.7975C51.7116 33.97 51.8396 34.1817 52.0106 34.2246ZM61.1087 32.4734C60.8142 32.9035 56.8372 33.0285 56.5811 32.6865C56.4102 32.4305 57.2214 30.0812 57.5204 29.1841C55.4822 28.1416 56.7265 24.3115 59.5707 25.2967C61.5659 25.9882 61.5915 28.5295 59.9555 29.1841C60.3826 30.0382 61.2827 32.2188 61.1087 32.4734ZM62.347 20.7692C62.2642 21.2399 61.9199 23.1132 61.3219 23.1614C58.9711 23.3519 56.6241 23.5244 54.274 23.5455C54.0179 23.5455 54.4028 20.8121 54.445 20.6411C55.6411 15.8589 63.168 16.1188 62.347 20.7692Z" fill="#00C896"/>
<path d="M32.4909 130.075C27.8888 129.957 25.3888 129.832 20.4025 127.47C20.508 126.837 19.6915 123.787 18.7364 108.037C18.7364 108.003 18.7229 107.97 18.6989 107.946C18.6749 107.922 18.6423 107.909 18.6084 107.909C18.5744 107.909 18.5418 107.922 18.5178 107.946C18.4938 107.97 18.4803 108.003 18.4803 108.037C18.4803 111.666 18.4193 111.642 18.6513 115.726C18.9526 121.036 19.2539 123.258 19.6764 126.618C19.6816 126.97 19.754 127.318 19.8896 127.643C19.9191 127.693 19.967 127.73 20.0231 127.746C20.0793 127.762 20.1394 127.756 20.1909 127.728C23.0585 129.47 26.3215 130.455 29.6739 130.59C30.6313 130.653 31.5929 130.596 32.5361 130.419C32.5817 130.413 32.6231 130.39 32.6512 130.353C32.6792 130.317 32.6916 130.27 32.6856 130.225C32.6796 130.179 32.6557 130.138 32.6192 130.11C32.5827 130.082 32.5366 130.069 32.4909 130.075Z" fill="#2B2E3F"/>
<path d="M113.69 25.6845C113.678 25.6634 113.658 25.6476 113.635 25.6405C113.611 25.6334 113.586 25.6356 113.564 25.6464C113.543 25.6573 113.526 25.6761 113.517 25.699C113.509 25.7219 113.509 25.7472 113.519 25.7697C114.522 29.5967 117.867 34.7819 118.56 34.9958C118.741 35.0493 113.729 25.7478 113.69 25.6845Z" fill="#2B2E3F"/>
<path d="M47.4832 115.21C47.4403 115.338 47.6113 115.467 47.6964 115.338C48.7695 113.506 49.9685 111.751 51.2847 110.085C51.5348 109.783 51.1137 109.316 50.8147 109.615C50.308 110.198 49.8373 110.811 49.4054 111.452C47.2264 109.743 25.4426 92.7425 22.9675 90.7382C22.3725 90.342 25.3025 82.3496 25.2272 81.7252C25.2261 81.6704 25.2073 81.6174 25.1736 81.5741C25.1399 81.5308 25.093 81.4997 25.0401 81.4852C24.9872 81.4708 24.931 81.4739 24.88 81.4941C24.829 81.5143 24.7859 81.5505 24.7572 81.5972C24.7142 81.6725 22.1774 88.3814 22.6218 90.8233C22.6218 91.8379 48.9339 112.01 48.9339 112.01C49.0635 112.05 47.9103 114.187 47.4832 115.21Z" fill="#2B2E3F"/>
<path d="M130.306 80.3983C130.336 80.3996 130.366 80.3922 130.392 80.3769C130.419 80.3615 130.44 80.3389 130.453 80.3118C130.467 80.2847 130.472 80.2543 130.469 80.2242C130.465 80.194 130.453 80.1656 130.434 80.1422C129.907 79.3536 126.784 78.522 124.967 78.5604C124.796 78.5604 124.753 78.8165 124.924 78.8165C130.08 80.0458 129.433 80.3983 130.306 80.3983Z" fill="#2B2E3F"/>
<path d="M15.4044 32.4304C15.1905 32.7724 15.4474 35.2068 15.4895 35.4629C14.2571 35.143 12.9997 34.9289 11.731 34.8226C11.6598 34.8388 11.5946 34.8744 11.5424 34.9254C11.4903 34.9764 11.4533 35.0409 11.4356 35.1117C11.4179 35.1825 11.4201 35.2568 11.4421 35.3263C11.464 35.3959 11.5049 35.458 11.56 35.5058C11.9057 35.8003 15.6605 37.3 15.6605 37.3C15.3592 37.727 13.6961 40.4183 13.4822 40.8024C13.2261 41.1866 13.7835 41.5714 14.0803 41.2724C14.4222 40.9711 16.8996 38.3251 16.8996 38.3251C17.2415 38.6663 20.2325 40.7572 20.4449 40.8453C20.7462 40.9696 21.0415 40.5441 20.872 40.3324C20.5707 39.9498 17.8817 37.0009 17.7966 36.9151C18.3164 36.3961 21.443 34.2035 21.5981 33.5836C21.6331 33.4593 21.6343 33.328 21.6015 33.2032C21.5688 33.0783 21.5034 32.9644 21.4119 32.8733C21.3205 32.7822 21.2064 32.7171 21.0815 32.6848C20.9565 32.6525 20.8252 32.6541 20.701 32.6895C19.4657 33.5753 18.2819 34.5309 17.1556 35.5517C17.1127 35.4659 16.5576 31.7503 15.6605 32.0915C15.4895 32.1314 15.4474 32.2594 15.4044 32.4304Z" fill="#00C896"/>
<path d="M27.7933 46.0132C27.1438 46.7931 26.5981 47.6539 26.1701 48.5742C25.3335 47.6173 24.419 46.7315 23.4359 45.9259C23.3686 45.9032 23.2965 45.8991 23.2271 45.9138C23.1576 45.9285 23.0934 45.9616 23.0411 46.0096C22.9888 46.0576 22.9503 46.1188 22.9297 46.1867C22.909 46.2547 22.907 46.3269 22.9238 46.3959C23.0488 46.8237 25.273 50.1544 25.316 50.1973C24.846 50.4105 21.937 51.6834 21.5567 51.8635C21.472 51.9057 21.4056 51.9774 21.3701 52.0651C21.3346 52.1528 21.3323 52.2504 21.3638 52.3397C21.3953 52.4289 21.4583 52.5036 21.541 52.5496C21.6237 52.5956 21.7203 52.6098 21.8128 52.5896C22.2398 52.5466 25.7852 51.6925 25.7852 51.7347C25.8711 52.2047 27.19 55.5821 27.3233 55.793C27.4882 56.0528 27.9643 55.8781 27.9643 55.5791C27.9213 55.1091 27.3662 51.1795 27.3233 51.0515C27.6841 51.0515 31.9413 50.7208 32.3209 50.4105C32.4205 50.3232 32.4953 50.2113 32.5379 50.0859C32.5804 49.9605 32.5891 49.8261 32.5632 49.6962C32.5372 49.5664 32.4774 49.4456 32.3899 49.3462C32.3024 49.2468 32.1903 49.1723 32.0648 49.13C30.5353 49.1738 29.0095 49.3023 27.4943 49.5149C27.5364 49.4291 29.1174 46.0547 28.1774 45.8415C28.0359 45.8619 27.9029 45.9213 27.7933 46.0132Z" fill="#00C896"/>
<path d="M40.5226 61.2199C39.5205 61.4162 38.5455 61.7315 37.6182 62.1591C37.6002 60.8952 37.4572 59.6363 37.1911 58.4006C37.0631 58.1445 36.5931 58.1445 36.5072 58.4006C36.337 58.8276 35.9091 62.8001 35.9091 62.8445C35.3969 62.6736 32.3645 61.8194 31.9367 61.6914C31.5088 61.5633 31.2964 62.1606 31.6354 62.4175C31.9766 62.6306 35.2659 64.3005 35.2659 64.3397C35.052 64.7667 33.8529 68.1811 33.8137 68.4402C33.767 68.7415 34.2408 68.9102 34.4539 68.6963C34.7552 68.3121 36.8032 64.9377 36.8891 64.8089C36.9742 64.8948 39.2323 66.4841 39.6225 66.7311C40.0748 67.0791 40.5795 67.3531 41.1176 67.5431C41.2453 67.5374 41.3695 67.4996 41.4788 67.4332C41.588 67.3668 41.6787 67.274 41.7426 67.1633C41.8065 67.0526 41.8415 66.9275 41.8442 66.7997C41.847 66.6719 41.8176 66.5455 41.7586 66.4321C40.5606 65.4868 39.305 64.6167 37.9993 63.8267C38.0852 63.7838 41.4596 62.2036 40.9037 61.4345C40.867 61.3663 40.8117 61.31 40.7443 61.272C40.6768 61.2339 40.5999 61.2159 40.5226 61.2199Z" fill="#00C896"/>
<path d="M40.2219 72.582C39.7559 71.4078 39.1841 70.2783 38.5136 69.2076C38.4595 69.1616 38.3939 69.1312 38.3238 69.1197C38.2537 69.1082 38.1818 69.116 38.1159 69.1423C38.0499 69.1687 37.9924 69.2126 37.9495 69.2692C37.9067 69.3258 37.8801 69.3931 37.8726 69.4637C37.8726 69.9337 38.8518 73.8203 38.8518 73.8203C38.3396 73.8203 35.1791 74.0787 34.7513 74.1216C34.6581 74.134 34.5726 74.1798 34.5106 74.2506C34.4487 74.3213 34.4146 74.4121 34.4146 74.5061C34.4146 74.6001 34.4487 74.691 34.5106 74.7617C34.5726 74.8324 34.6581 74.8782 34.7513 74.8906C35.1784 74.9758 38.8096 75.4028 38.8096 75.4028C38.7667 75.8728 38.8518 79.5033 38.8947 79.7602C38.9235 79.8269 38.9712 79.8837 39.0319 79.9236C39.0926 79.9635 39.1637 79.9847 39.2363 79.9847C39.309 79.9847 39.38 79.9635 39.4407 79.9236C39.5014 79.8837 39.5491 79.8269 39.5779 79.7602C39.709 79.2909 40.475 75.4028 40.5179 75.2748C40.646 75.3177 43.2943 76.0009 43.7643 76.1289C44.3213 76.2832 44.8949 76.3694 45.4726 76.3858C45.593 76.3352 45.6981 76.2541 45.7774 76.1504C45.8568 76.0466 45.9076 75.924 45.9249 75.7945C45.9422 75.6651 45.9253 75.5334 45.876 75.4125C45.8266 75.2916 45.7465 75.1857 45.6435 75.1053C44.1841 74.641 42.7006 74.2561 41.1996 73.9521C41.2854 73.867 43.8908 71.2187 43.0826 70.7058C42.4386 70.3796 40.2972 72.4916 40.2219 72.582Z" fill="#00C896"/>
<path d="M48.2946 86.5918C48.792 86.6348 49.2923 86.6348 49.7897 86.5918C49.8196 86.4083 49.834 86.2226 49.8327 86.0367C50.0562 86.1792 50.27 86.3362 50.4729 86.5067C50.6167 86.4585 51.1975 86.3945 52.3522 86.0797C51.84 85.5667 51.199 85.0116 51.1139 84.9257C52.2399 84.3378 53.3118 83.6517 54.3173 82.8755C54.3528 82.8153 54.3717 82.7467 54.3721 82.6768C54.3726 82.6069 54.3545 82.5382 54.3198 82.4775C54.285 82.4169 54.2349 82.3665 54.1744 82.3315C54.1139 82.2965 54.0452 82.2781 53.9753 82.2782C53.5068 82.3324 49.7468 83.6874 49.7468 83.7304C49.6617 83.2174 49.1065 80.0991 48.9777 79.672C48.9589 79.5767 48.9048 79.4919 48.8264 79.4344C48.7479 79.377 48.6508 79.3511 48.5541 79.3619C48.4575 79.3727 48.3685 79.4194 48.3046 79.4927C48.2408 79.5661 48.2068 79.6607 48.2095 79.7579C48.1688 80.185 48.1236 83.8584 48.1236 83.8584C47.6536 83.8584 44.0675 84.3337 43.8099 84.4135C43.5086 84.5054 43.5531 85.0116 43.8521 85.0967C44.3221 85.1826 48.2961 85.5238 48.4226 85.5238C48.4164 85.8832 48.3735 86.2411 48.2946 86.5918Z" fill="#00C896"/>
<path d="M28.0482 78.8617C27.7921 78.9468 26.8521 79.3739 25.9551 79.7588C26.3943 80.0822 26.8506 80.3817 27.3221 80.6559C27.9631 80.5271 28.4753 80.399 28.4753 80.399C28.5182 80.5271 28.6463 80.9971 28.8173 81.51C29.3119 81.8004 29.8255 82.0574 30.3546 82.2791C30.2314 81.4267 30.1177 80.573 30.0134 79.7181C30.1414 79.7181 32.8756 79.5042 33.3449 79.462C33.9275 79.4615 34.5055 79.3595 35.0532 79.1607C35.1488 79.0739 35.2211 78.9645 35.2635 78.8425C35.3058 78.7205 35.3169 78.5898 35.2957 78.4624C35.2745 78.335 35.2217 78.2149 35.1421 78.1132C35.0624 78.0115 34.9586 77.9314 34.84 77.8803C33.3112 77.9076 31.7853 78.0217 30.2695 78.2222C30.3124 78.1371 31.9326 74.7725 30.9956 74.5488C30.9194 74.5373 30.8415 74.5429 30.7677 74.565C30.6939 74.5871 30.6258 74.6253 30.5685 74.6768C30.2265 74.8478 29.0304 76.9839 28.9024 77.1971C28.1038 76.2191 27.2018 75.3304 26.2119 74.5465C26.1446 74.5242 26.0726 74.5202 26.0033 74.5351C25.9339 74.5499 25.8698 74.583 25.8176 74.6309C25.7654 74.6789 25.7269 74.7399 25.7062 74.8077C25.6854 74.8755 25.6832 74.9476 25.6997 75.0165C25.8699 75.4866 28.0482 78.8617 28.0482 78.8617Z" fill="#00C896"/>
<path d="M78.6652 58.9134C78.6652 59.1399 78.7372 59.3572 78.8653 59.5174C78.9934 59.6776 79.1672 59.7676 79.3484 59.7676C79.5296 59.7676 79.7033 59.6776 79.8315 59.5174C79.9596 59.3572 80.0316 59.1399 80.0316 58.9134C80.0316 58.6869 79.9596 58.4696 79.8315 58.3094C79.7033 58.1493 79.5296 58.0593 79.3484 58.0593C79.1672 58.0593 78.9934 58.1493 78.8653 58.3094C78.7372 58.4696 78.6652 58.6869 78.6652 58.9134Z" fill="#2B2E3F"/>
<path d="M123.13 77.0666C122.972 76.8595 111.704 74.1946 102.285 75.2303C97.2997 75.7779 94.6597 77.8048 91.2227 78.0066C89.4293 78.1113 87.4634 78.0488 85.7551 78.6047C85.5412 78.6898 85.4154 78.3524 85.6271 78.2627C89.3284 76.6908 91.5278 77.3634 94.5971 76.2125C95.6223 75.8276 96.6045 75.4005 97.6296 75.0164C97.5458 73.9786 97.3745 72.9498 97.1174 71.941C97.0059 71.6073 96.496 71.8325 95.0242 72.1541C86.3878 74.0417 82.1246 78.6469 81.6117 79.0739C78.0008 79.0739 67.0912 82.9153 63.0313 86.9767C56.2396 93.7677 49.4057 105.728 49.7039 106.326C49.7491 106.416 59.6185 120.196 60.084 127.642C71.8643 120.312 84.1018 101.841 80.1595 87.8323C80.1166 87.6184 80.3734 87.5755 80.4608 87.7465C83.7749 96.8069 79.398 107.284 73.9259 115.298C74.0012 115.298 77.6995 113.702 79.6917 111.325C79.868 111.115 80.2047 111.41 80.0766 111.626C78.284 114.059 74.7514 116.191 72.8149 116.965C66.457 125.862 62.5169 126.494 62.5169 127.342V135.286C62.516 135.326 62.5231 135.366 62.5379 135.403C62.5528 135.44 62.5749 135.473 62.6031 135.502C62.6312 135.53 62.6648 135.552 62.7018 135.567C62.7388 135.582 62.7784 135.589 62.8182 135.588C105.705 136.434 119.82 131.746 123.857 131.746C123.919 131.724 123.973 131.683 124.011 131.629C124.05 131.575 124.07 131.511 124.07 131.445C122.338 113.08 118.647 92.3087 106.557 78.3509C106.501 78.2942 106.469 78.2174 106.469 78.1373C106.469 78.0572 106.501 77.9804 106.557 77.9238C106.614 77.8671 106.691 77.8353 106.771 77.8353C106.851 77.8353 106.928 77.8671 106.985 77.9238C116.587 87.5265 120.383 102.896 121.038 102.912C123.732 102.976 130.05 103.382 130.52 103.425C130.599 103.42 130.672 103.387 130.728 103.331C130.783 103.276 130.817 103.202 130.822 103.123C130.174 94.8011 127.48 82.7617 123.13 77.0666Z" fill="#00C896"/>
</svg>
