<svg width="151" height="151" viewBox="0 0 151 151" fill="none" xmlns="http://www.w3.org/2000/svg">
<path d="M117.321 52.8417C114.722 52.2876 112.069 52.0277 109.412 52.0667C109.268 52.1931 109.145 52.3422 109.048 52.508C109.214 52.6346 109.381 52.8688 109.557 52.8779C111.2 52.8498 112.841 53.0097 114.448 53.3547C116.874 54.0416 117.16 53.7313 116.921 54.2427C115.777 56.7336 113.08 58.2438 110.565 59.3646C109.019 60.0027 107.391 60.4196 105.728 60.6029C105.381 60.6526 105.224 60.5712 105.331 60.1705C106.823 54.6261 106.732 52.7641 106.732 47.7349C106.823 47.8652 107.881 49.6353 108.381 50.442C108.475 50.5926 108.678 50.8186 108.804 50.7975C113.074 50.2612 113.062 49.969 116.614 49.1532C117.249 49.0026 117.344 48.9732 117.101 48.3473C116.486 47.1679 115.725 46.0706 114.835 45.0813C114.011 44.3748 112.948 43.9063 112.394 42.9422C111.716 41.7619 110.683 40.6991 111.746 39.0549C112.123 38.4496 112.32 37.7494 112.313 37.0362C112.307 36.3231 112.098 35.6266 111.71 35.0282C111.628 34.8843 111.944 31.8797 111.809 30.5465C111.696 28.9975 111.232 27.4944 110.453 26.1508C108.965 23.653 106.559 21.8365 103.75 21.0899C102.346 20.6721 100.847 20.7098 99.4668 21.1976C99.1231 21.2603 98.7715 21.2664 98.4258 21.2157C97.3347 21.1986 96.2537 21.4264 95.2623 21.8823C94.9429 22.0442 94.5686 21.4303 94.299 21.184C90.8847 17.929 86.7411 15.5383 82.2143 14.2115C64.4859 9.22599 50.5484 24.2067 51.3475 43.48C51.401 44.7861 51.4055 44.768 52.6709 44.7047C53.0001 44.6867 53.0317 44.5789 53.0272 44.2905C52.9865 42.0248 52.9519 39.7546 52.9519 37.4889C52.9501 37.0378 53.0266 36.5898 53.1779 36.1648C53.2728 35.9124 53.8761 35.7821 53.8942 36.2642C53.9484 36.4487 53.98 41.4305 54.0697 43.7143C54.1103 44.7092 54.1691 44.6821 55.1912 44.6934C55.6281 44.7025 55.6778 44.5586 55.6507 44.1662C55.1852 37.742 56.5884 30.5089 60.5873 25.2981C64.8527 19.7447 70.4468 17.2176 77.4555 18.3391C82.1006 19.0871 85.942 21.4665 89.3315 24.6549C89.6283 24.9336 89.3948 25.0149 89.223 25.1723C87.8132 26.3881 86.7264 27.934 86.0595 29.672C85.0017 32.6789 84.3576 35.8157 84.1448 38.9961C83.9693 41.4554 83.3916 43.8061 81.5771 45.653C83.1988 45.6576 84.816 45.653 86.4354 45.6643C88.8743 45.6794 88.1678 47.0081 88.2838 50.8932C88.2898 51.0875 88.3109 51.2811 88.3154 51.4792C88.3335 52.5377 88.35 53.5954 88.3651 54.6525C91.6793 54.2977 90.0975 54.6359 98.8958 53.0353C99.6829 52.8937 99.3086 53.5347 99.2837 54.382C99.2694 54.7587 99.1391 54.8686 98.7384 54.8912C97.6711 54.9447 96.603 55.0848 95.5357 55.1925C95.4352 55.5182 95.4001 55.8607 95.4325 56.2C95.465 56.5394 95.5643 56.8689 95.7248 57.1697C96.0616 58.1836 96.6803 59.0805 97.5084 59.7555C97.7155 59.931 97.8556 60.0794 97.7344 60.3859C96.2723 64.4797 93.5725 68.0169 90.0094 70.5069C89.9054 70.5747 89.7887 70.6237 89.6802 70.6824C89.6486 71.0296 89.6132 71.3761 89.5861 71.7271C89.559 72.0781 89.6087 72.2092 90.0094 71.9885C91.8817 70.9026 93.5482 69.4955 94.9324 67.8315C97.4608 64.9321 99.2625 61.4723 100.188 57.7384C100.589 56.2249 100.89 54.6872 101.092 53.1347C101.626 48.597 101.229 43.998 99.9255 39.619C97.7999 32.3128 93.9487 26.1289 87.8416 21.4808C84.3889 18.753 80.248 17.0349 75.8783 16.5171C71.0449 15.9899 62.2398 20.012 62.0733 20.0889C63.4794 18.2312 65.4479 16.8773 67.6856 16.2286C80.836 11.8396 98.4311 23.1409 101.872 43.3979C103.029 49.5823 102.354 55.9701 99.9307 61.7764C98.0905 66.4182 94.7726 70.3248 90.4899 72.8923C90.2007 73.0094 89.959 73.2202 89.8036 73.4908C89.6482 73.7614 89.5881 74.0764 89.6328 74.3852C89.7224 75.4751 89.6689 76.5741 89.6772 77.6685C90.4749 77.3438 91.2853 77.0471 92.0649 76.6893C92.4159 76.5274 92.5733 76.614 92.7428 76.91C93.6791 78.5226 94.6341 80.1262 95.5756 81.7343C95.7873 82.0989 95.9944 82.4507 96.4795 82.0808C96.4251 81.8238 96.3436 81.5734 96.2362 81.3336C95.446 79.9226 94.6383 78.5215 93.8131 77.1307C93.5834 76.7435 93.6956 76.6223 94.0609 76.4415C95.5216 75.7087 96.972 74.9554 98.4115 74.1818C98.7045 74.0312 98.8574 74.0372 99.0691 74.3122C99.921 75.4292 100.808 76.5146 101.664 77.6263C101.925 77.9645 102.187 78.1536 102.596 77.9012C102.934 77.5676 102.727 77.2934 102.497 77.0185C101.245 75.512 100.002 73.9913 98.7407 72.4916C98.5426 72.2529 98.5064 72.115 98.7452 71.8747C101.394 69.0916 103.426 65.7806 104.708 62.1583C104.737 62.032 104.813 61.9213 104.92 61.8486C105.027 61.7759 105.157 61.7466 105.285 61.7666C108.834 61.6456 112.256 60.4225 115.077 58.2671C116.419 57.4056 117.46 56.1478 118.055 54.6683C118.165 54.2412 118.239 53.8055 118.275 53.366C117.977 53.1576 117.657 52.9819 117.321 52.8417ZM53.7044 34.8158C53.5418 34.7365 53.4124 34.6023 53.3391 34.4369C53.2658 34.2716 53.2532 34.0856 53.3036 33.9119C53.3888 33.518 53.7797 33.1414 54.0154 33.1414C54.4787 33.2491 54.4606 33.6814 54.4787 34.0603C54.479 34.1612 54.4591 34.2611 54.42 34.3542C54.381 34.4472 54.3237 34.5315 54.2515 34.602C54.1792 34.6724 54.0936 34.7277 53.9996 34.7644C53.9056 34.8011 53.8052 34.8186 53.7044 34.8158ZM98.2774 58.7552L98.0974 58.823C97.7412 58.2152 97.354 57.6292 97.0384 57.0078C96.6068 56.134 96.6287 56.1205 97.6154 56.0173C99.2664 55.8395 99.0962 55.7552 98.2774 58.7552ZM90.6873 33.2393C91.8388 32.7062 92.9228 32.0379 93.9163 31.2485C94.25 31.0278 94.3984 31.0007 94.6191 31.3841C98.0996 37.3 99.8214 44.0855 99.5828 50.9451C99.5783 51.1342 99.5602 51.3217 99.5466 51.5085C99.5067 51.5176 99.4615 51.5221 99.4208 51.5311C99.0871 50.7967 98.7429 50.0714 98.416 49.3235C98.3889 49.2564 98.5109 49.0583 98.6058 49.0222C98.8619 48.9227 99.0698 48.8557 98.9659 48.4949C98.8574 48.1183 98.6322 48.0897 98.3083 48.171C97.4849 48.4406 96.6083 48.5055 95.7542 48.3601C94.005 47.8735 92.4854 46.7818 91.4661 45.2794C89.3631 42.5407 88.8449 39.3878 89.0611 36.0458C89.1582 34.629 89.3601 33.7228 90.6873 33.2393ZM105.902 24.0463C107.255 24.8216 108.395 25.9209 109.218 27.2455C110.041 28.57 110.523 30.0783 110.619 31.6349C110.629 31.797 110.627 31.9596 110.614 32.1215C110.596 32.4507 110.501 32.77 110.11 32.7519C109.569 32.7278 109.684 32.1953 109.709 31.653C109.535 29.5493 108.6 27.5812 107.079 26.1176C106.583 25.5949 105.979 25.1814 105.48 24.6677C105.204 24.3807 105.45 23.7676 105.902 24.0463ZM104.263 22.9428C104.4 22.9469 104.532 22.9993 104.635 23.0907C104.738 23.1821 104.805 23.3068 104.826 23.4429C104.767 24.0101 104.551 24.1141 104.177 24.1005C104.105 24.1038 104.032 24.0909 103.965 24.0627C103.897 24.0345 103.837 23.9917 103.788 23.9375C103.74 23.8832 103.704 23.8188 103.683 23.7489C103.662 23.679 103.657 23.6054 103.668 23.5333C103.662 23.4538 103.673 23.3739 103.701 23.2991C103.729 23.2244 103.772 23.1566 103.829 23.1004C103.886 23.0442 103.954 23.001 104.029 22.9738C104.104 22.9466 104.184 22.936 104.263 22.9428H104.263ZM103.66 34.5235C104.408 34.879 105.218 35.2767 106.033 35.636C106.259 35.7384 107.238 35.1208 108.331 34.7216C108.626 34.6151 108.942 34.575 109.255 34.6039C109.568 34.6329 109.871 34.7303 110.143 34.8892C110.414 35.0482 110.647 35.2648 110.825 35.5237C111.004 35.7826 111.123 36.0776 111.175 36.3877C111.806 38.8108 109.342 40.73 107.238 40.4958C106.527 40.4204 106.513 40.3451 106.297 40.9643C106.163 41.1141 106.017 41.2527 105.86 41.3785C105.123 39.0767 104.385 36.7711 103.664 34.5235H103.66Z" fill="#2B2E3F"/>
<path d="M102.593 77.8823C102.935 77.5448 102.722 77.2744 102.493 76.9995C101.238 75.4931 100 73.9708 98.737 72.4727C98.5389 72.2384 98.5028 72.1029 98.7416 71.8558C101.395 69.0756 103.427 65.7637 104.705 62.1393C104.733 62.0131 104.809 61.9024 104.916 61.8297C105.023 61.757 105.154 61.7276 105.282 61.7476C108.829 61.6222 112.25 60.3995 115.074 58.2482C116.416 57.3871 117.457 56.1292 118.051 54.6493C118.163 54.2229 118.237 53.7873 118.272 53.3478C128.905 57.0325 134.931 62.2847 140.712 69.4862C140.913 69.7385 141.022 69.972 140.522 69.9901C138.987 70.1357 137.484 70.5186 136.067 71.1252C134.203 71.8769 132.562 73.0942 131.302 74.6608C129.848 76.3013 128.507 78.0503 127.208 79.8135C126.715 80.584 126.302 81.4021 125.973 82.2555C125.808 82.6163 125.658 82.6321 125.352 82.4219C122.915 80.7716 122.644 80.6293 121.749 80.2685C121.636 80.2233 121.478 80.2911 121.343 80.3046C121.403 80.6993 121.218 80.6473 121.946 81.1964C123 81.9971 124.085 82.7601 125.109 83.6067C125.497 83.9268 125.765 83.6821 126.089 83.6316C125.981 83.8404 125.95 84.0802 126 84.3096C126.05 84.539 126.179 84.7438 126.363 84.8887C128.397 86.9977 129.294 89.1662 128.687 93.3202C128.311 95.9143 127.08 98.2206 125.805 100.486C124.958 102.173 123.525 103.491 121.773 104.194C121.68 104.21 121.583 104.203 121.493 104.173C121.402 104.143 121.321 104.091 121.255 104.022C118.578 100.101 107.19 83.4365 104.178 79.0196C103.858 78.5511 103.5 78.2227 102.89 78.4254C102.785 78.2477 102.686 78.0665 102.593 77.8823ZM117.632 89.1248C118.09 89.1657 118.55 89.1566 119.005 89.0977C119.341 89.0382 119.416 88.7776 119.01 88.7211C118.749 88.6623 118.479 88.6457 118.213 88.59C117.21 88.5059 116.219 88.3204 115.254 88.0364C114.357 87.7494 112.843 86.9194 111.979 86.53C111.614 86.3409 111.479 86.8094 111.65 87.1566C112.078 87.4542 112.526 87.7206 112.992 87.9535C114.427 88.7001 116.015 89.1019 117.632 89.1271V89.1248Z" fill="#FF6B6B"/>
<path d="M48.3354 104.009C48.8355 104.009 48.9576 104.149 48.9568 104.64C48.9478 109.54 48.9274 114.436 48.9568 119.337C48.9568 119.873 48.7949 119.981 48.2902 119.981C40.4623 119.974 32.6326 119.977 24.8012 119.99C24.5501 119.972 24.3023 120.055 24.112 120.219C23.7911 120.664 24.0939 121.119 24.6791 121.123C27.2152 121.128 42.9823 121.132 48.3301 121.123C48.8393 121.123 48.9794 121.267 48.9425 121.754C48.8981 122.344 48.9222 122.943 48.9109 123.537C48.9005 123.676 48.9199 123.815 48.9676 123.945C49.0154 124.075 49.0904 124.194 49.1877 124.292C49.285 124.391 49.4022 124.468 49.5317 124.518C49.6611 124.568 49.7997 124.59 49.9383 124.582C53.8791 124.632 57.8209 124.674 61.7637 124.708C62.2684 124.708 62.4575 124.824 62.4416 125.365C62.3113 129.196 62.9064 130.099 61.1936 130.099C46.542 130.099 25.0106 130.089 11.0941 130.081C10.6745 130.066 10.2591 129.992 9.86037 129.86C9.56933 129.759 9.32303 129.559 9.16424 129.295C9.00546 129.03 8.94422 128.719 8.99115 128.414C8.98212 123.518 9.00697 107.632 8.98212 104.592C8.9776 104.088 9.08531 103.927 9.62612 103.93C16.0857 103.962 41.8946 104.019 48.3354 104.009ZM47.2591 109.832C47.5965 109.873 47.7494 109.117 46.9389 109.013C38.9669 109.013 30.9896 109.035 23.0175 109.017C22.0851 109.017 21.4908 109.839 23.4996 109.85C23.5757 109.851 46.6911 109.911 47.2591 109.832ZM29.1344 117.003V117.021H37.1788C37.5885 116.904 37.6962 116.819 37.6781 116.364C37.6493 116.203 37.5597 116.061 37.428 115.965C37.2964 115.869 37.1328 115.828 36.9716 115.851C35.4757 115.868 24.8599 115.918 21.0449 115.926C20.6434 115.926 20.2789 116.016 20.2879 116.485C20.2984 116.995 20.7978 117.008 21.3062 117.007L29.1344 117.003ZM40.2067 113.531C40.3174 113.505 40.4197 113.451 40.504 113.374C40.5883 113.298 40.6518 113.201 40.6888 113.094C40.7015 113.033 40.7021 112.969 40.6905 112.908C40.6789 112.847 40.6553 112.788 40.621 112.736C40.5867 112.683 40.5424 112.638 40.4907 112.603C40.4391 112.568 40.3809 112.543 40.3197 112.53C40.0131 112.442 40.4424 112.483 28.9107 112.491C28.7516 112.492 28.5931 112.51 28.4377 112.544C28.3212 112.565 28.216 112.627 28.1415 112.718C28.067 112.81 28.0281 112.926 28.0319 113.044C28.0358 113.163 28.0821 113.275 28.1625 113.362C28.2428 113.449 28.3517 113.504 28.4693 113.517C28.8113 113.57 39.748 113.577 40.2097 113.531H40.2067ZM45.3007 117.012C45.7157 117.012 46.0984 116.937 46.1074 116.436C46.1164 115.935 45.6931 115.877 45.3369 115.872C43.3958 115.851 41.4503 115.857 39.5085 115.859C39.1439 115.859 38.8637 116.01 38.9006 116.431C38.8989 116.517 38.916 116.602 38.9507 116.68C38.9854 116.759 39.0369 116.829 39.1016 116.885C39.1663 116.941 39.2425 116.982 39.3249 117.006C39.4073 117.03 39.4939 117.035 39.5785 117.021C39.8082 117.017 45.2284 117.012 45.3037 117.012H45.3007ZM16.6785 120.165C15.9486 120.192 16.3019 121.034 16.6694 120.981C17.1063 121.056 21.1737 121.085 22.7547 121.107C23.0929 121.111 23.3452 120.949 23.2684 120.67C23.1561 120.264 22.9799 120.112 22.5023 120.133C21.7875 120.107 17.8106 120.017 16.68 120.165H16.6785Z" fill="#FF6B6B"/>
<path d="M146.877 85.884C146.827 89.8933 145.929 93.8466 144.241 97.4835C143.316 99.6143 142.139 101.627 140.736 103.478C139.603 105.015 138.301 106.42 136.854 107.667C136.579 107.893 136.502 108.072 136.728 108.415C137.925 110.289 138.684 112.409 138.948 114.617C139.236 116.651 138.234 123.827 137.931 125.414C137.892 125.594 137.786 125.752 137.633 125.855C137.558 125.896 137.319 125.737 137.228 125.612C134.763 122.196 132.307 118.774 129.859 115.347C129.657 115.062 129.424 115.079 129.238 115.271C129.192 115.348 129.167 115.435 129.164 115.524C129.161 115.613 129.18 115.701 129.22 115.781C130.053 116.993 137.909 128.594 139.489 130.928C139.912 131.554 139.895 131.767 139.345 132.311C137.726 133.912 132.508 136.996 131.818 137.342C131.404 137.549 131.164 137.289 130.958 136.981C130.054 135.626 122.277 124.003 119.396 119.483C119.175 119.037 118.847 118.652 118.441 118.363C118.036 118.074 117.565 117.89 117.072 117.826C116.402 117.639 115.769 117.342 115.198 116.947C115.081 116.884 115.036 116.691 114.954 116.555C115.124 116.478 115.305 116.431 115.491 116.416C116.107 116.477 116.719 116.574 117.324 116.704C118.998 117.043 120.724 117.026 122.391 116.654C123.444 116.478 124.486 116.235 125.508 115.925C127.239 115.425 128.757 114.37 129.827 112.921C130.618 111.775 131.507 110.7 132.485 109.709C134.69 108.166 136.691 106.35 138.44 104.304C140.971 101.192 142.055 99.9571 143.772 95.3994C145.597 90.5547 145.797 87.2955 145.466 84.6028C144.92 80.155 144.795 79.6421 142.331 74.2521C141.954 73.4326 141.427 72.6846 141.111 71.8418C140.971 71.4719 141.381 71.0396 141.827 71.1255C142.061 71.1707 142.488 71.8034 142.542 71.905C144.275 75.0595 145.921 78.2584 146.529 81.8543C146.75 83.1814 146.765 84.5418 146.877 85.884Z" fill="#2B2E3F"/>
<path d="M102.88 78.4233C103.493 78.2244 103.849 78.5528 104.169 79.0176C107.191 83.4246 118.535 100.121 121.246 104.02C121.311 104.089 121.393 104.14 121.483 104.17C121.574 104.2 121.67 104.207 121.764 104.192C123.517 103.493 124.952 102.173 125.795 100.484C127.076 98.2185 128.299 95.9122 128.678 93.3181C129.295 89.0881 128.357 86.9911 126.354 84.8866C126.17 84.7409 126.042 84.5362 125.992 84.3071C125.942 84.078 125.973 83.8386 126.079 83.6295C126.406 83.5763 126.741 83.6139 127.048 83.7382C127.355 83.8625 127.622 84.0688 127.82 84.3345C129.067 85.7863 129.814 87.6008 129.951 89.5099C130.278 92.459 129.727 95.439 128.369 98.0769C127.421 100.067 126.517 102.076 124.81 103.572C123.93 104.412 122.861 105.029 121.693 105.369C121.446 105.46 121.233 105.623 121.081 105.837C120.288 106.86 119.166 107.576 117.905 107.864C116.849 108.171 115.758 108.341 114.658 108.369C113.732 108.361 111.922 108.865 111.366 107.465C111.283 107.313 111.182 107.173 111.064 107.046C110.975 106.836 110.872 106.632 110.758 106.434C108.097 102.432 98.5362 88.1676 96.4618 85.0071C95.7018 83.8494 95.7651 83.6122 96.6192 82.7595C97.1111 82.2662 95.5233 83.4404 102.88 78.4233Z" fill="#2B2E3F"/>
<path d="M103.643 105.351C103.803 105.58 103.989 105.79 104.197 105.978C105.992 107.397 108.193 108.208 110.48 108.292C110.672 108.275 110.864 108.333 111.015 108.452C111.167 108.572 111.267 108.745 111.296 108.936C111.424 109.375 111.688 109.763 112.049 110.044C112.273 110.159 112.449 110.35 112.546 110.583C112.642 110.815 112.653 111.075 112.576 111.315C112.317 112.423 112.964 113.282 113.599 114.121C113.749 114.32 113.827 114.565 113.82 114.814C113.428 118.649 117.441 118 118.139 119.17C119.396 121.279 120.619 123.402 121.855 125.52C121.999 125.768 121.994 125.854 121.679 125.854C111.252 125.847 111.897 125.893 111.68 125.728C109.861 124.345 108.813 123.405 108.072 122.931C108.074 123.061 108.096 123.19 108.135 123.314C108.648 124.344 109.435 125.214 110.41 125.827C109.713 125.868 111.11 125.836 99.6449 125.859C99.2577 125.859 99.0867 125.813 99.1854 125.368C100.208 120.731 102.349 109.747 103.496 105.332C103.543 105.348 103.593 105.355 103.643 105.351Z" fill="#2B2E3F"/>
<path d="M93.9806 89.0866C95.5751 89.1001 96.5784 89.5325 96.5754 91.7168C96.5603 101.424 96.5618 111.132 96.5799 120.841C96.633 121.358 96.5358 121.879 96.3 122.343C96.0642 122.806 95.6998 123.192 95.2505 123.454C95.0308 123.567 94.7868 123.626 94.5394 123.625C81.4003 123.625 52.8263 123.597 51.6814 123.611C50.2895 123.628 49.4662 122.792 49.4519 121.259C49.4263 118.49 49.4768 98.7933 49.4926 91.7168C49.466 91.3407 49.4839 90.9627 49.5461 90.5908C49.6425 90.1732 49.8776 89.8008 50.2131 89.5341C50.5485 89.2675 50.9645 89.1225 51.393 89.1227C52.1688 89.0798 93.9263 89.0858 93.9806 89.0866ZM50.8627 94.1941C50.4612 94.1941 50.3445 94.2845 50.3535 94.6943C50.3852 96.1359 50.3663 97.5768 50.3716 99.0185C50.3965 106.563 50.4469 114.111 50.4748 121.656C50.493 121.81 50.5454 121.957 50.6281 122.087C50.7107 122.218 50.8215 122.328 50.9523 122.41C51.8035 122.862 52.8662 122.631 55.0513 122.63C68.1071 122.63 81.1586 122.632 94.2058 122.635C94.4666 122.662 94.7285 122.595 94.9447 122.446C95.1608 122.298 95.3173 122.077 95.3861 121.824C95.6919 120.898 95.5796 123.097 95.6022 94.8894C95.6022 94.3892 95.4712 94.274 94.9853 94.277C87.6566 94.3162 58.2404 94.2009 50.8627 94.1941ZM95.0012 93.0997C95.1089 93.0997 95.8026 92.9717 95.5284 91.1858C95.3936 90.2902 94.9884 90.2533 94.083 90.172C93.8668 90.1946 65.5715 90.1403 51.6355 90.1313C51.4912 90.1122 51.3445 90.124 51.2051 90.1657C51.0656 90.2074 50.9366 90.2783 50.8265 90.3735C50.7164 90.4687 50.6278 90.5862 50.5664 90.7181C50.505 90.8501 50.4722 90.9936 50.4703 91.1391C50.3987 91.6528 50.4431 93.166 50.8265 93.166C58.2088 93.1562 87.6565 93.0975 95.0034 93.0975L95.0012 93.0997Z" fill="#2B2E3F"/>
<path d="M103.492 105.342C103.04 104.631 99.2679 98.7654 97.8428 96.5502C97.2614 95.6463 97.5476 95.4904 97.113 89.3796C97.0459 88.438 96.6897 88.1676 95.7617 88.145C93.893 88.0998 92.028 88.0268 90.1585 87.9831C89.7669 87.9741 89.6576 87.8212 89.6584 87.4287C89.6674 84.1728 89.6735 80.9149 89.6765 77.655C90.4741 77.3304 91.2846 77.0328 92.0642 76.6758C92.4152 76.5139 92.5718 76.6005 92.7421 76.8965C93.6783 78.5122 94.6364 80.1112 95.5749 81.7209C95.7873 82.0854 95.9937 82.4326 96.4788 82.0673C96.5955 82.218 96.7047 82.3686 96.823 82.5193C96.7587 82.6043 96.6895 82.6855 96.6158 82.7626C95.7489 83.6024 95.7007 83.8532 96.4584 85.0102C98.5275 88.1737 108.092 102.431 110.754 106.437C110.87 106.634 110.972 106.839 111.061 107.049C108.581 107.197 106.111 106.63 103.944 105.414C103.797 105.369 103.645 105.344 103.492 105.342Z" fill="#FF6B6B"/>
<path d="M5.74382 98.0543C5.23959 98.0306 4.76162 97.8226 4.40061 97.4698C4.03961 97.117 3.8207 96.6439 3.78545 96.1404C3.75533 95.5498 3.7719 94.951 3.7719 94.3605C3.7719 60.993 3.72444 62.6501 3.89316 62.0302C4.02868 61.5224 4.34019 61.0792 4.77213 60.7797C5.20407 60.4802 5.72836 60.3438 6.25148 60.395C6.69061 60.3837 33.9021 60.3257 34.2176 60.4266C34.4436 60.4982 34.4511 61.3305 34.2402 61.4058C34.003 61.4924 35.8823 61.4487 6.22437 61.4412C5.87836 61.4467 5.5455 61.5747 5.28488 61.8023C5.02427 62.03 4.85275 62.3426 4.80079 62.6848C4.65617 64.5316 5.59393 64.2522 6.00594 64.2522C35.0537 64.2658 34.4896 64.2175 34.5129 64.3599C34.5516 64.6601 34.5501 64.964 34.5084 65.2638C34.4963 65.3662 35.4461 65.3685 5.33934 65.3391C4.85276 65.3391 4.7556 65.4649 4.75786 65.9289C4.80983 75.2574 4.76464 84.5898 4.76238 93.9176C4.76238 94.5262 4.68705 95.1386 4.69082 95.7464C4.69126 95.9307 4.72854 96.113 4.80048 96.2827C4.87241 96.4523 4.97754 96.6059 5.10969 96.7343C5.24184 96.8627 5.39833 96.9634 5.56997 97.0305C5.7416 97.0976 5.92492 97.1296 6.10913 97.1248C14.9105 97.0977 42.3049 97.1203 47.2008 97.1203C47.6919 97.1203 47.9744 96.8137 47.9797 96.2285C48.0407 90.0732 47.9111 89.7312 48.061 89.4857C48.1514 89.3351 48.8316 89.2424 48.9167 89.5083C48.9651 89.6249 48.9808 89.7525 48.9619 89.8774C48.9619 92.0398 48.9807 94.2016 48.9709 96.3595C48.9657 96.82 48.7795 97.2599 48.4525 97.5842C48.1255 97.9084 47.6839 98.0908 47.2234 98.0919C40.4031 98.1017 6.89247 98.1085 5.74382 98.0543Z" fill="#2B2E3F"/>
<path d="M11.6 102.873C10.8746 102.873 9.10458 103.072 9.10458 102.421C9.05116 101.7 9.04512 100.977 9.0865 100.255C9.13546 99.8996 9.4021 99.05 11.3462 99.0575C21.9447 99.0801 46.312 99.0485 47.893 99.0575C49.0883 99.0643 48.7968 99.1803 48.9422 102.409C48.9572 102.728 48.8669 102.871 48.5234 102.845C48.3366 102.827 24.9409 102.864 11.6 102.873ZM13.8159 101.405C14.2679 101.374 14.2227 101.072 14.2076 100.923C14.2041 100.823 14.1619 100.727 14.0897 100.657C14.0176 100.587 13.9211 100.547 13.8205 100.547C13.6698 100.583 13.4582 100.622 13.4288 100.938C13.4077 101.198 13.4958 101.351 13.8159 101.405ZM12.3253 100.973C12.3197 100.876 12.2795 100.784 12.2118 100.713C12.1442 100.643 12.0536 100.6 11.9566 100.591C11.8596 100.582 11.7625 100.607 11.683 100.664C11.6035 100.72 11.5468 100.803 11.5232 100.898C11.5232 101.281 11.7348 101.298 11.8523 101.307C11.9962 101.323 12.2259 101.342 12.3253 100.973ZM16.3023 100.928C16.1464 100.344 15.5273 100.453 15.5318 100.991C15.5474 101.078 15.5903 101.159 15.6543 101.22C15.7183 101.281 15.8001 101.321 15.888 101.333C16.0907 101.333 16.2752 101.275 16.3023 100.931V100.928Z" fill="#FF6B6B"/>
<path d="M95.5249 55.1834C95.4246 55.5093 95.3897 55.8518 95.4221 56.1912C95.4546 56.5307 95.5538 56.8604 95.714 57.1614C96.0539 58.1735 96.672 59.0694 97.4976 59.7464C97.7055 59.9219 97.8411 60.071 97.7236 60.3768C96.1313 64.4954 93.7315 68.0205 90.0038 70.4978C89.9006 70.5663 89.7831 70.6146 89.6747 70.6733C89.6461 58.9804 89.68 59.5641 89.5489 57.9583C89.5157 57.7897 89.5428 57.6149 89.6254 57.4643C89.708 57.3137 89.8409 57.1969 90.0008 57.1342C91.1141 56.6446 92.2123 56.1166 93.3519 55.6926C94.0646 55.4765 94.7904 55.3064 95.5249 55.1834Z" fill="#FF6B6B"/>
<path d="M9.40601 74.4034C9.40601 73.3941 9.77056 73.0227 10.7573 73.0205C12.9145 73.0152 15.0762 73.0205 17.2349 73.0205C18.2073 73.0205 18.5862 73.3971 18.5862 74.3491V85.5329C18.5862 86.4654 18.1983 86.8571 17.2884 86.8571H10.703C9.79316 86.8571 9.40601 86.4654 9.40601 85.5329V74.4034ZM17.842 74.4162C17.8465 73.9703 17.7336 73.7677 17.2395 73.7722C15.0802 73.7933 12.921 73.7933 10.7618 73.7722C10.3204 73.7722 10.1592 73.9078 10.1592 74.3627C10.1657 78.0735 10.1657 81.7834 10.1592 85.4922C10.1592 85.9698 10.3264 86.1136 10.7897 86.1091C12.9298 86.09 15.0709 86.09 17.2131 86.1091C17.6771 86.1136 17.8488 85.9698 17.8435 85.4922C17.8272 81.8007 17.8267 78.1092 17.842 74.4177V74.4162Z" fill="#2B2E3F"/>
<path d="M24.0714 75.2499C24.005 75.2635 23.9364 75.2627 23.8703 75.2477C23.8042 75.2327 23.742 75.2038 23.6879 75.1629C23.6338 75.122 23.5891 75.07 23.5566 75.0105C23.5242 74.951 23.5048 74.8852 23.4997 74.8176C23.5092 74.7077 23.5609 74.6057 23.6442 74.5333C23.7274 74.461 23.8355 74.4238 23.9456 74.4297C27.2696 74.4718 30.5935 74.3875 33.9175 74.3807C34.2014 74.3807 34.5569 74.3717 34.5569 74.7904C34.5569 75.2424 34.3408 75.2823 33.9898 75.2815C32.3003 75.277 25.6848 75.2544 24.0714 75.2499Z" fill="#2B2E3F"/>
<path d="M21.2338 82.6006C20.9137 82.578 20.7902 81.882 21.2429 81.7811C21.5509 81.7118 28.3366 81.7322 28.4587 81.763C28.5551 81.7855 28.6409 81.8402 28.7019 81.9183C28.7628 81.9963 28.7952 82.0928 28.7936 82.1918C28.792 82.2908 28.7566 82.3863 28.6932 82.4623C28.6298 82.5383 28.5422 82.5903 28.4451 82.6096C28.3698 82.6134 21.328 82.6496 21.2338 82.6006Z" fill="#2B2E3F"/>
<path d="M121.464 109.873C121.356 110.032 121.237 110.183 121.109 110.325C120.037 111.32 118.617 111.856 117.154 111.816C114.438 111.906 114.465 111.85 113.276 111.214C113.164 111.154 113.121 110.844 113.15 110.665C113.214 110.268 113.519 110.493 113.678 110.552C115.26 111.086 116.965 111.149 118.582 110.732C119.345 110.506 120.09 110.226 120.812 109.894C120.997 109.834 121.185 109.784 121.375 109.743C121.402 109.788 121.432 109.832 121.464 109.873Z" fill="#2B2E3F"/>
<path d="M117.125 115.317C116.556 115.159 115.945 114.991 115.341 114.805C115.002 114.702 114.592 114.539 114.782 114.098C114.84 113.963 115.341 113.908 115.593 113.981C116.52 114.32 117.515 114.429 118.494 114.301C119.372 114.126 120.209 113.743 121.07 113.486C121.356 113.427 121.647 113.394 121.939 113.387C121.8 113.634 121.64 113.869 121.461 114.089C120.77 114.669 119.928 115.041 119.034 115.162C118.426 115.398 117.763 115.452 117.125 115.317Z" fill="#2B2E3F"/>
<path d="M30.3051 82.5417C29.9947 82.5417 29.6972 82.4701 29.7025 82.0897C29.7078 81.7093 30.0091 81.6453 30.3149 81.6438C31.6081 81.6393 32.9006 81.6438 34.1932 81.6122C34.6074 81.6031 34.5487 81.8464 34.5487 82.0988C34.5487 82.3511 34.5939 82.5951 34.1841 82.5763C33.5394 82.5432 30.9491 82.5522 30.3051 82.5417Z" fill="#2B2E3F"/>
<path d="M21.2025 75.2048C21.0361 75.1942 20.8064 75.2801 20.7702 74.8281C20.8154 74.4945 20.8915 74.4628 21.1468 74.4515C21.4961 74.4097 21.8496 74.4173 22.1968 74.4741C22.5433 74.4922 22.5975 75.1799 22.1742 75.204C21.8504 75.2122 21.5264 75.2124 21.2025 75.2048Z" fill="#2B2E3F"/>
<path d="M88.2822 50.8933C88.0487 50.8933 39.7231 50.8692 35.8003 50.833C35.2866 50.824 35.1744 50.9836 35.1789 51.4634C35.1963 52.5985 35.1609 85.7626 35.2324 87.596C35.264 88.3838 35.539 88.5752 36.3449 88.5752C40.9712 88.5887 87.364 88.6113 87.5802 88.5978C87.6753 88.6052 87.7709 88.5913 87.8601 88.5573C87.9493 88.5232 88.0297 88.4697 88.0957 88.4007C88.1616 88.3318 88.2114 88.249 88.2415 88.1584C88.2715 88.0678 88.281 87.9717 88.2694 87.8769C88.2769 87.4122 88.362 52.0238 88.2822 50.8933ZM65.2616 56.8437C67.0226 56.8166 68.7844 56.8256 70.5454 56.8301C70.8603 56.8301 71.1849 56.9295 71.1307 57.282C71.1081 57.4395 70.7541 57.6421 70.5409 57.6511C69.799 57.6858 66.3982 57.6639 65.3068 57.6692C64.9603 57.6737 64.6448 57.5841 64.6673 57.2173C64.6764 57.0802 65.05 56.8504 65.2616 56.8459V56.8437ZM59.4423 56.9115C60.6587 56.8708 61.9738 56.9604 63.1903 56.9695C64.1356 57.1721 63.6761 57.6632 63.0276 57.6474C62.4559 57.6338 59.483 57.6029 59.3436 57.5848C58.9873 57.5396 58.6183 57.0033 59.4423 56.9137V56.9115ZM56.1183 56.8361C56.5062 56.8271 57.56 56.8994 57.8342 56.8361C58.3298 56.8452 58.2537 57.6782 57.92 57.6511C57.2958 57.6857 56.6701 57.6842 56.046 57.6466C55.7041 57.6428 55.5331 56.855 56.1183 56.8414V56.8361ZM39.7095 56.8369C40.7685 56.7962 41.8939 56.8233 42.8896 56.8233C42.9499 56.8135 43.0116 56.8168 43.0705 56.833C43.1294 56.8492 43.1841 56.8778 43.231 56.917C43.2778 56.9562 43.3157 57.0051 43.342 57.0602C43.3683 57.1153 43.3824 57.1755 43.3834 57.2365C43.3844 57.2976 43.3722 57.3582 43.3477 57.4141C43.3232 57.4701 43.2869 57.5201 43.2413 57.5608C43.1958 57.6015 43.142 57.6319 43.0836 57.6499C43.0253 57.668 42.9637 57.6733 42.9032 57.6654C42.3676 57.6383 40.2368 57.7061 39.7276 57.6428C39.6713 57.6499 39.6142 57.6452 39.5598 57.6288C39.5055 57.6124 39.4552 57.5848 39.4123 57.5478C39.3693 57.5107 39.3346 57.4651 39.3103 57.4137C39.2861 57.3624 39.2729 57.3066 39.2717 57.2499C39.2704 57.1932 39.2811 57.1368 39.303 57.0845C39.3248 57.0321 39.3575 56.9849 39.3988 56.946C39.44 56.9071 39.489 56.8772 39.5426 56.8585C39.5961 56.8397 39.653 56.8323 39.7095 56.8369ZM42.8489 60.2874C42.4723 60.3047 40.5433 60.2964 39.8986 60.2512C39.4308 60.3047 39.3856 59.5168 39.8361 59.498C40.8776 59.4589 41.9202 59.4559 42.9619 59.489C43.4711 59.6117 43.2542 60.3002 42.8489 60.2874ZM39.2101 71.0207C39.1604 70.6238 39.5431 70.5748 39.8541 70.5688C40.2933 70.559 43.4357 70.5635 43.511 70.5643C43.8221 70.5688 44.1241 70.6448 44.1332 71.0102C44.1422 71.3755 43.8492 71.4741 43.5306 71.4741C42.2923 71.4741 41.054 71.4922 39.8195 71.447C39.6018 71.4395 39.2327 71.1917 39.2101 71.0207ZM40.169 73.1598C41.228 73.1237 42.2865 73.1207 43.3445 73.1508C43.4356 73.1544 43.5217 73.1929 43.585 73.2584C43.6484 73.3238 43.6841 73.4112 43.6846 73.5023C43.6852 73.5934 43.6507 73.6812 43.5882 73.7474C43.5257 73.8137 43.44 73.8533 43.3491 73.8581C42.8173 73.9033 42.2772 73.8761 41.7364 73.8761V73.8626C41.2145 73.8626 40.6917 73.8942 40.178 73.849C39.7954 73.8852 39.6832 73.1779 40.169 73.1598ZM43.8944 80.2627C43.4711 80.2627 40.9757 80.3214 40.3716 80.2536C39.7547 80.3289 39.8767 79.569 40.3633 79.5825C41.4722 79.5372 42.5822 79.5254 43.6918 79.5471C44.277 79.5916 44.2183 80.2627 43.8944 80.2627ZM45.3715 57.2602C45.3489 56.8007 45.9213 56.8324 46.2452 56.8233C47.6914 56.8143 52.8215 56.8007 54.0598 56.8233C54.4296 56.8301 54.6097 56.9318 54.7091 57.1389C54.7091 57.4221 54.6051 57.7061 54.3844 57.6662C52.5293 57.7091 47.7561 57.6722 46.3536 57.6526C45.9846 57.6473 45.3986 57.7468 45.3715 57.2602ZM45.7955 73.5606C45.8058 73.4847 45.8352 73.4127 45.8809 73.3513C45.9266 73.2899 45.9872 73.2411 46.0569 73.2095C46.753 73.154 47.4529 73.1646 48.1471 73.2412C48.2276 73.2593 48.4574 73.3625 48.4619 73.5696C48.4664 73.7496 48.3316 73.9658 48.138 73.953C47.4426 73.9797 46.7462 73.9661 46.0524 73.9123C45.9817 73.8824 45.9205 73.8339 45.8752 73.772C45.83 73.71 45.8024 73.637 45.7955 73.5606ZM62.3565 71.4576C60.1239 71.5133 66.2574 71.511 54.1095 71.511V71.4982H46.5472C46.0019 71.6489 45.2185 70.611 46.9073 70.6245C50.1642 70.6516 53.3608 70.5319 56.5145 70.5756C60.8719 70.6351 61.9377 70.5756 62.3346 70.6607C62.834 70.7684 62.7753 71.4395 62.3565 71.4576ZM68.7927 73.1372C69.1354 73.1372 69.631 73.025 69.6446 73.538C69.6627 74.1059 69.1445 73.9899 68.7889 73.9899C67.0023 73.9899 49.6392 73.9967 49.5247 73.959C49.2317 73.8596 49.1639 73.1749 49.5292 73.1613C50.0888 73.1372 45.7089 73.1372 68.7927 73.1372ZM55.1098 80.2627C53.7849 80.2627 47.97 80.2581 46.4116 80.2318C45.9846 80.173 45.7948 79.6066 46.4162 79.6096C49.3085 79.6247 52.2363 79.6684 55.1279 79.6322C55.4789 79.6277 55.857 79.578 55.8525 79.9297C55.8525 80.3169 55.3614 80.2581 55.1098 80.2627ZM65.6586 80.2581C64.2531 80.2536 58.7124 80.2672 57.3393 80.2627C57.0599 80.2627 56.7126 80.3214 56.7262 79.871C56.7397 79.4703 57.0192 79.398 57.3664 79.398C60.1403 79.407 62.9116 79.4085 65.6804 79.4025C66.0457 79.4025 66.2303 79.5245 66.2303 79.8846C66.2303 80.2928 65.9327 80.2581 65.6586 80.2581ZM75.7208 80.2318C75.6455 80.2747 76.1464 80.2536 67.7887 80.2536C67.6818 80.2564 67.5748 80.2518 67.4686 80.2401C66.8381 80.1369 67.1447 79.3972 67.3179 79.398C68.4304 79.404 74.0607 79.4115 75.3216 79.4115C76.2473 79.398 75.8873 80.1324 75.7208 80.2318ZM80.2476 60.2572C80.097 60.3243 46.2904 60.3062 45.8671 60.2527C45.7006 60.2301 45.6411 60.1352 45.5831 59.8919C45.5865 59.8058 45.6185 59.7232 45.674 59.6572C45.7295 59.5912 45.8054 59.5455 45.8897 59.5274C46.0832 59.4596 80.1798 59.5003 80.2695 59.5229C80.9813 59.7059 80.6167 60.3002 80.2476 60.2572Z" fill="#FF6B6B"/>
<path d="M93.0225 38.5809C93.3441 37.4828 94.1267 35.1583 94.1756 35.1161C94.3263 34.9904 94.8754 35.1613 94.8422 35.3233C94.5643 36.6896 93.7584 39.4712 93.5723 41.0342C93.4586 41.9892 94.898 42.332 94.8965 42.39C94.8671 43.5808 93.3983 43.1665 92.9057 42.4035C92.2421 41.7279 92.7747 39.4238 93.0225 38.5809Z" fill="#2B2E3F"/>
<path d="M93.926 45.0807C93.7912 45.0053 93.6496 44.3455 94.1467 44.4028C94.56 44.5025 94.9803 44.5705 95.4039 44.6061C96.3137 44.57 96.9796 42.9611 97.0383 42.8986C97.2176 42.7088 97.4149 42.4406 97.6334 42.412C98.0032 42.3646 98.1365 42.6915 98.1516 43.0251C98.1983 44.115 97.485 44.8185 96.6602 45.4121C95.9424 45.931 94.4096 45.3579 93.926 45.0807Z" fill="#2B2E3F"/>
<path d="M92.6745 33.1987C92.8038 33.202 92.9284 33.2482 93.0286 33.33C93.1288 33.4118 93.199 33.5246 93.2281 33.6506C93.3374 33.9798 93.0775 34.2095 92.7649 34.2321C92.3489 34.2955 91.9504 34.4443 91.5946 34.669C91.2388 34.8938 90.9333 35.1897 90.6973 35.5382C90.4315 35.8809 90.1565 35.3988 90.1882 35.218C90.3302 34.6588 90.6489 34.1602 91.0968 33.7965C91.5447 33.4327 92.098 33.223 92.6745 33.1987Z" fill="#2B2E3F"/>
<path d="M92.6832 37.8248C92.6938 39.3704 90.9215 39.2205 90.9087 37.8926C90.9011 37.113 91.2325 36.5925 91.7417 36.5858C92.2509 36.579 92.6787 37.1492 92.6832 37.8248Z" fill="#2B2E3F"/>
<path d="M74.4323 108.112C74.3854 110.186 73.7272 112.2 72.5402 113.901C71.3532 115.602 69.6903 116.915 67.76 117.675C65.8297 118.435 63.7181 118.608 61.6899 118.172C59.6618 117.736 57.8074 116.712 56.3595 115.226C54.9115 113.741 53.9344 111.861 53.5507 109.822C53.1671 107.783 53.3939 105.677 54.2028 103.767C55.0117 101.857 56.3667 100.228 58.0977 99.0846C59.8288 97.9414 61.8588 97.3349 63.9332 97.341C66.7528 97.3802 69.4418 98.5362 71.4101 100.555C73.3784 102.575 74.4653 105.292 74.4323 108.112ZM73.6791 107.66C73.6084 105.481 72.8133 103.387 71.4194 101.71C71.1987 101.434 71.0805 101.408 70.8244 101.683C66.5441 106.302 62.2744 110.933 58.0152 115.573C57.8163 115.789 57.7749 115.903 58.0423 116.101C64.5102 120.983 73.7499 116.412 73.6761 107.657L73.6791 107.66ZM54.1308 108.564C54.2185 111.03 55.2277 113.373 56.9592 115.131C57.1949 115.382 57.3358 115.465 57.6122 115.149C59.4116 113.116 61.2367 111.102 63.0309 109.064C63.1198 108.961 63.1875 108.842 63.2301 108.712C63.2726 108.583 63.2891 108.447 63.2787 108.311C62.6761 105.192 62.068 102.074 61.4544 98.956C61.3745 98.5462 61.2518 98.4603 60.8239 98.605C56.8469 99.9464 54.0811 103.802 54.1278 108.562L54.1308 108.564ZM63.9407 107.87C64.0673 107.848 64.0914 107.848 64.0989 107.839C66.1431 105.504 68.1942 103.164 70.2241 100.808C70.2465 100.747 70.2529 100.682 70.2426 100.618C70.2324 100.554 70.2057 100.493 70.1653 100.443C69.0973 99.5164 67.8371 98.8382 66.4756 98.4571C65.1141 98.076 63.685 98.0015 62.2912 98.2389C62.2276 98.2711 62.1734 98.3191 62.1339 98.3783C62.0943 98.4376 62.0706 98.506 62.0652 98.5771C62.7198 101.658 63.3073 104.756 63.9377 107.869L63.9407 107.87Z" fill="#2B2E3F"/>
<path d="M90.4179 100.847C90.7425 100.864 91.0762 100.91 91.0574 101.329C91.04 101.705 90.7154 101.747 90.4134 101.747C90.1113 101.747 78.2015 101.773 77.8919 101.726C77.5499 101.673 77.5507 100.954 77.8919 100.874C78.2218 100.796 90.3275 100.842 90.4179 100.847Z" fill="#2B2E3F"/>
<path d="M81.4094 114.134C81.324 114.106 81.2494 114.052 81.1958 113.98C81.1423 113.908 81.1124 113.821 81.1105 113.731C81.1085 113.641 81.1344 113.553 81.1847 113.478C81.2351 113.403 81.3072 113.346 81.3914 113.315C81.7009 113.192 91.7421 113.239 91.846 113.31C91.9265 113.342 91.9958 113.397 92.0452 113.468C92.0946 113.539 92.1221 113.623 92.124 113.709C92.1259 113.796 92.1023 113.881 92.0561 113.954C92.0098 114.027 91.943 114.085 91.8641 114.121C91.6795 114.154 81.5224 114.175 81.4094 114.134Z" fill="#2B2E3F"/>
<path d="M84.1203 103.712C84.4585 103.712 84.817 103.743 84.805 104.194C84.7944 104.608 84.4449 104.639 84.1339 104.64H78.2113C77.8957 104.64 77.5508 104.599 77.553 104.18C77.553 103.728 77.9183 103.712 78.2558 103.712H84.1203Z" fill="#2B2E3F"/>
<path d="M78.033 114.089C77.569 114.053 77.4387 113.486 77.853 113.346C78.2808 113.319 79.3594 113.26 80.0373 113.292C80.4478 113.387 80.438 114.053 80.258 114.093C79.5182 114.168 78.7725 114.167 78.033 114.089Z" fill="#2B2E3F"/>
<path d="M86.4338 45.6644C84.8167 45.6509 50.9023 45.6757 36.8315 45.6644C36.6295 45.65 36.4267 45.6768 36.2355 45.7432C36.0442 45.8096 35.8684 45.9142 35.7188 46.0507C35.5692 46.1872 35.449 46.3526 35.3653 46.5371C35.2817 46.7215 35.2365 46.921 35.2324 47.1234C35.1835 47.912 35.1925 48.7052 35.2106 49.4976C35.2323 49.5753 35.2734 49.6462 35.33 49.7037C35.3867 49.7611 35.457 49.8032 35.5345 49.826C37.8408 49.826 72.9979 49.7695 88.2762 49.765C88.2935 46.7137 88.5888 45.678 86.4338 45.6644ZM38.0299 48.126C37.947 48.126 37.8661 48.1014 37.7972 48.0554C37.7283 48.0094 37.6747 47.944 37.643 47.8674C37.6113 47.7909 37.603 47.7067 37.6191 47.6255C37.6353 47.5442 37.6752 47.4696 37.7337 47.411C37.7923 47.3525 37.8669 47.3126 37.9482 47.2964C38.0294 47.2803 38.1136 47.2886 38.1901 47.3203C38.2667 47.352 38.3321 47.4056 38.3781 47.4745C38.4241 47.5434 38.4487 47.6243 38.4487 47.7072C38.4487 47.8182 38.4045 47.9248 38.326 48.0033C38.2475 48.0818 38.1409 48.126 38.0299 48.126ZM40.0975 48.2201C40.0146 48.2201 39.9337 48.1955 39.8648 48.1495C39.7959 48.1035 39.7422 48.0381 39.7105 47.9616C39.6788 47.8851 39.6706 47.8009 39.6867 47.7196C39.7029 47.6384 39.7428 47.5638 39.8013 47.5052C39.8599 47.4466 39.9345 47.4067 40.0158 47.3906C40.097 47.3744 40.1812 47.3827 40.2577 47.4144C40.3342 47.4461 40.3996 47.4998 40.4457 47.5687C40.4917 47.6375 40.5162 47.7185 40.5162 47.8013C40.5162 47.9124 40.4721 48.0189 40.3936 48.0974C40.315 48.176 40.2085 48.2201 40.0975 48.2201ZM41.8404 48.2201C41.7576 48.2201 41.6766 48.1955 41.6077 48.1495C41.5389 48.1035 41.4852 48.0381 41.4535 47.9616C41.4218 47.8851 41.4135 47.8009 41.4297 47.7196C41.4458 47.6384 41.4857 47.5638 41.5443 47.5052C41.6028 47.4466 41.6775 47.4067 41.7587 47.3906C41.8399 47.3744 41.9241 47.3827 42.0007 47.4144C42.0772 47.4461 42.1426 47.4998 42.1886 47.5687C42.2346 47.6375 42.2592 47.7185 42.2592 47.8013C42.2592 47.9124 42.2151 48.0189 42.1365 48.0974C42.058 48.176 41.9515 48.2201 41.8404 48.2201Z" fill="#FF6B6B"/>
<path d="M52.5605 91.6542C52.5605 91.8322 52.6312 92.0029 52.7571 92.1288C52.8829 92.2546 53.0536 92.3253 53.2316 92.3253C53.4096 92.3253 53.5803 92.2546 53.7062 92.1288C53.832 92.0029 53.9028 91.8322 53.9028 91.6542C53.9028 91.4762 53.832 91.3055 53.7062 91.1797C53.5803 91.0538 53.4096 90.9831 53.2316 90.9831C53.0536 90.9831 52.8829 91.0538 52.7571 91.1797C52.6312 91.3055 52.5605 91.4762 52.5605 91.6542Z" fill="#2B2E3F"/>
<path d="M55.0826 91.6498C55.0826 91.8277 55.1533 91.9984 55.2791 92.1243C55.405 92.2502 55.5757 92.3209 55.7537 92.3209C55.9317 92.3209 56.1024 92.2502 56.2282 92.1243C56.3541 91.9984 56.4248 91.8277 56.4248 91.6498C56.4248 91.4718 56.3541 91.3011 56.2282 91.1752C56.1024 91.0493 55.9317 90.9786 55.7537 90.9786C55.5757 90.9786 55.405 91.0493 55.2791 91.1752C55.1533 91.3011 55.0826 91.4718 55.0826 91.6498Z" fill="#2B2E3F"/>
<path d="M57.5824 91.6542C57.5824 91.8322 57.6531 92.0029 57.779 92.1288C57.9048 92.2546 58.0755 92.3253 58.2535 92.3253C58.4315 92.3253 58.6022 92.2546 58.7281 92.1288C58.8539 92.0029 58.9246 91.8322 58.9246 91.6542C58.9246 91.4762 58.8539 91.3055 58.7281 91.1797C58.6022 91.0538 58.4315 90.9831 58.2535 90.9831C58.0755 90.9831 57.9048 91.0538 57.779 91.1797C57.6531 91.3055 57.5824 91.4762 57.5824 91.6542Z" fill="#2B2E3F"/>
<path d="M6.8656 62.8858C6.8656 63.0638 6.93631 63.2345 7.06217 63.3603C7.18802 63.4862 7.35873 63.5569 7.53672 63.5569C7.71471 63.5569 7.88541 63.4862 8.01127 63.3603C8.13713 63.2345 8.20783 63.0638 8.20783 62.8858C8.20783 62.7078 8.13713 62.5371 8.01127 62.4112C7.88541 62.2854 7.71471 62.2147 7.53672 62.2147C7.35873 62.2147 7.18802 62.2854 7.06217 62.4112C6.93631 62.5371 6.8656 62.7078 6.8656 62.8858Z" fill="#2B2E3F"/>
<path d="M9.41541 62.8858C9.41541 63.0638 9.48611 63.2345 9.61197 63.3603C9.73783 63.4862 9.90853 63.5569 10.0865 63.5569C10.2645 63.5569 10.4352 63.4862 10.5611 63.3603C10.6869 63.2345 10.7576 63.0638 10.7576 62.8858C10.7576 62.7078 10.6869 62.5371 10.5611 62.4112C10.4352 62.2854 10.2645 62.2147 10.0865 62.2147C9.90853 62.2147 9.73783 62.2854 9.61197 62.4112C9.48611 62.5371 9.41541 62.7078 9.41541 62.8858Z" fill="#2B2E3F"/>
<path d="M11.9642 62.8858C11.9642 63.0638 12.0349 63.2345 12.1608 63.3603C12.2867 63.4862 12.4574 63.5569 12.6353 63.5569C12.8133 63.5569 12.984 63.4862 13.1099 63.3603C13.2358 63.2345 13.3065 63.0638 13.3065 62.8858C13.3065 62.7078 13.2358 62.5371 13.1099 62.4112C12.984 62.2854 12.8133 62.2147 12.6353 62.2147C12.4574 62.2147 12.2867 62.2854 12.1608 62.4112C12.0349 62.5371 11.9642 62.7078 11.9642 62.8858Z" fill="#2B2E3F"/>
</svg>
