<svg width="151" height="151" viewBox="0 0 151 151" fill="none" xmlns="http://www.w3.org/2000/svg">
<path d="M50.5597 70.9798C50.5951 70.9303 50.6139 70.8708 50.6133 70.81C50.6127 70.7491 50.5928 70.69 50.5564 70.6412C50.52 70.5924 50.469 70.5564 50.4109 70.5385C50.3527 70.5206 50.2903 70.5216 50.2328 70.5414C49.225 70.8427 46.8358 73.2824 46.3017 74.6984C45.7677 76.1145 47.0881 79.2336 47.8586 80.5088C48.0206 80.7761 48.4032 80.5087 48.3106 80.2519C47.9023 79.0377 46.7981 76.1845 47.0858 75.0547C47.5566 73.3178 49.7123 72.127 50.5597 70.9798Z" fill="#2B2E3F"/>
<path d="M55.6195 73.2125C55.4102 74.7641 55.3424 78.6191 56.1784 79.7655C56.1997 79.7926 56.2261 79.8153 56.2561 79.8322C56.2861 79.8491 56.3192 79.8599 56.3534 79.864C56.3876 79.8682 56.4223 79.8655 56.4555 79.8562C56.4886 79.8469 56.5197 79.8312 56.5468 79.8099C57.01 79.4506 55.9442 77.1337 56.476 73.2644C56.6725 71.9975 55.7837 71.9923 55.6195 73.2125Z" fill="#2B2E3F"/>
<path d="M68.2633 76.6139C70.7848 75.4866 73.4594 74.7394 76.1999 74.3964C76.6029 74.3309 76.447 73.7667 76.0839 73.7313C74.9622 73.7871 73.8504 73.9698 72.7698 74.2759C72.0038 73.4322 71.3064 72.5287 70.6841 71.5741C70.361 71.0702 69.8925 71.3978 70.2759 72.1639C70.7682 73.0202 71.398 73.7897 72.1401 74.4416C71.0615 74.7429 68.8749 75.4494 68.0486 76.1499C67.8144 76.3307 67.9763 76.7412 68.2633 76.6139Z" fill="#2B2E3F"/>
<path d="M69.3459 64.2575C73.9466 65.4468 77.2374 68.8228 79.7772 72.6325C81.1172 74.6481 82.1258 77.3025 79.5754 78.9467C77.2321 80.4585 72.6518 81.6026 69.7587 81.8594C69.4973 81.8594 69.3663 82.2835 69.6736 82.3633C71.7901 82.8672 78.603 80.7763 80.4875 79.2187C82.5589 77.5104 82.0346 74.6835 80.7647 72.6657C78.2452 68.6345 74.287 64.7486 69.4514 63.8169C69.393 63.8029 69.3314 63.8127 69.2802 63.8441C69.2289 63.8756 69.1923 63.9261 69.1783 63.9845C69.1644 64.0429 69.1742 64.1045 69.2056 64.1557C69.237 64.2069 69.2875 64.2435 69.3459 64.2575Z" fill="#2B2E3F"/>
<path d="M66.1262 65.4168C65.3059 67.3571 61.4442 68.0169 60.5321 66.3794C60.3454 66.0147 60.2301 65.6177 60.1924 65.2097C60.1366 64.9039 60.0583 64.7216 59.7163 64.7819C59.0309 64.9024 56.3751 66.3892 55.826 67.2208C55.7145 67.382 55.8915 67.6539 56.0873 67.5838C56.4805 67.4422 58.2717 66.228 59.7208 65.6255C59.7539 66.0595 59.8776 66.4819 60.0839 66.8652C60.9606 68.2158 63.7423 68.4575 65.4958 67.2328C67.4918 65.8401 66.3981 64.7721 66.1262 65.4168Z" fill="#2B2E3F"/>
<path d="M61.8729 79.9448C63.7627 79.81 64.1506 78.65 63.5254 78.6192C62.6441 78.5792 62.437 79.627 60.099 78.8911C59.3985 78.6644 59.5145 80.1128 61.8729 79.9448Z" fill="#2B2E3F"/>
<path d="M62.7195 77.9487C62.5734 77.3899 62.2676 75.137 61.0015 75.2583C59.7353 75.3795 60.2302 77.2437 60.4268 78.3171C61.2078 78.4783 62.3972 78.5332 62.7195 77.9487Z" fill="#2B2E3F"/>
<path d="M63.788 81.0784C64.1111 80.9436 64.0192 80.3877 63.6419 80.4487C61.8424 80.7259 62.0089 81.0437 60.1545 80.4141C59.9285 80.3387 59.6506 80.5948 59.8216 80.8215C60.6682 81.7887 62.7215 81.522 63.788 81.0784Z" fill="#2B2E3F"/>
<path d="M61.5098 84.1522C62.849 84.595 66.3078 84.1522 66.5948 82.5651C66.7816 81.5573 66.8516 78.8209 64.9422 77.38C63.0328 75.9391 62.8558 76.8347 63.1029 77.0523C63.5631 77.3995 64.0424 77.7206 64.5385 78.0142C65.9297 79.022 66.1813 81.4715 65.8438 82.5493C65.2185 83.0268 64.4956 83.3606 63.7266 83.527C62.9576 83.6933 62.1614 83.6882 61.3946 83.5119C61.1069 83.4215 61.2078 84.0527 61.5098 84.1522Z" fill="#2B2E3F"/>
<path d="M63.9139 82.1269C63.4944 81.6275 62.3111 83.0308 60.3866 82.0207C60.3267 81.9858 60.2558 81.975 60.1882 81.9903C60.1206 82.0056 60.0613 82.046 60.0222 82.1033C59.9832 82.1605 59.9673 82.2305 59.9777 82.299C59.9882 82.3676 60.0242 82.4296 60.0786 82.4726C61.8577 83.7998 64.4999 82.8244 63.9139 82.1269Z" fill="#2B2E3F"/>
<path d="M50.2019 80.64C51.0131 80.8577 52.6815 80.9021 53.1304 80.2822C53.1753 80.2048 53.1877 80.1127 53.1648 80.0262C53.142 79.9396 53.0857 79.8657 53.0084 79.8205C52.5851 79.5712 51.6925 80.5112 49.5873 79.7783C49.225 79.6149 48.816 80.2679 50.2019 80.64Z" fill="#2B2E3F"/>
<path d="M49.7535 77.8823C50.103 78.0327 50.4817 78.103 50.8618 78.0882C51.242 78.0733 51.614 77.9736 51.9507 77.7964C51.7789 77.1411 51.6584 75.1406 50.439 75.176C49.2195 75.2114 49.6172 77.0267 49.7535 77.8823Z" fill="#2B2E3F"/>
<path d="M49.2192 78.9166C50.7377 79.8679 53.3514 79.1832 52.7819 78.5136C52.434 78.1001 51.9203 78.9475 49.4761 78.3419C49.4025 78.3207 49.3237 78.3268 49.2542 78.3591C49.1847 78.3914 49.1292 78.4477 49.098 78.5176C49.0667 78.5876 49.0618 78.6665 49.084 78.7398C49.1063 78.8131 49.1543 78.8759 49.2192 78.9166Z" fill="#2B2E3F"/>
<path d="M63.8532 57.7714C64.1545 57.553 63.6574 56.4457 63.2838 56.7079C62.7904 57.031 63.4209 58.0825 63.8532 57.7714Z" fill="#2B2E3F"/>
<path d="M68.1417 62.6952C68.1172 61.8247 67.9678 60.9623 67.6981 60.1343C67.6175 59.9279 67.2341 59.9279 67.2462 60.175C67.2462 61.2536 68.7579 64.3275 64.5602 64.5941C63.7807 64.5714 63.003 64.5065 62.2305 64.3998C61.9029 64.4299 61.402 65.1206 63.4048 65.3036C65.2795 65.4769 68.1832 65.0935 68.1417 62.6952Z" fill="#2B2E3F"/>
<path d="M65.0777 62.6191C65.2749 62.3015 65.5679 62.0546 65.9145 61.9141C65.9708 61.8906 66.0171 61.8481 66.0454 61.7941C66.0738 61.7401 66.0824 61.6779 66.0698 61.6182C66.0573 61.5585 66.0243 61.5051 65.9765 61.4671C65.9288 61.4291 65.8693 61.409 65.8083 61.4102C65.5423 61.4451 65.2932 61.5603 65.0943 61.7403C64.8954 61.9204 64.7561 62.1568 64.695 62.418C64.6747 62.6673 64.9556 62.8134 65.0777 62.6191Z" fill="#2B2E3F"/>
<path d="M66.5443 56.5665C66.936 56.3978 66.4939 55.3674 66.106 55.5587C65.7181 55.7501 66.2461 56.6968 66.5443 56.5665Z" fill="#2B2E3F"/>
<path d="M53.7951 59.1121C54.6423 59.5656 55.5814 59.8208 56.5416 59.8584C57.5018 59.896 58.458 59.715 59.3381 59.329C60.0913 60.8407 60.5929 61.3951 62.241 61.7228C64.6994 62.2267 64.7047 59.1618 65.7683 58.4975C66.1818 58.6717 66.5331 58.9668 66.7761 59.3441C66.5075 59.5948 66.2028 59.8037 65.8722 59.964C65.3984 60.2058 66.184 60.7925 67.1218 59.8028C67.2478 59.6982 67.3305 59.5504 67.3537 59.3883C67.377 59.2261 67.3391 59.0611 67.2476 58.9253C69.1623 59.2025 68.5627 55.4786 68.2554 54.5115C67.7515 52.9297 66.9252 53.0299 65.6191 53.3621C63.9307 53.7887 62.3264 54.4974 60.8739 55.4583C59.8661 56.109 58.4756 56.8743 58.8583 58.2203C57.1801 58.8756 55.8348 58.6534 54.113 58.2806C54.0138 58.2743 53.9152 58.2999 53.8315 58.3537C53.7479 58.4075 53.6837 58.4865 53.6482 58.5794C53.6127 58.6723 53.6078 58.774 53.6342 58.8699C53.6607 58.9657 53.717 59.0506 53.7951 59.1121ZM67.0231 54.0731C67.701 54.763 68.3277 58.6534 67.295 58.0591C66.413 57.5552 65.4504 57.3383 64.8094 58.2C63.9575 59.3441 64.1993 61.1782 62.1483 60.6539C60.6366 60.2608 60.0626 58.9908 59.7501 57.5552C61.8428 55.8022 64.3468 54.61 67.0269 54.0904L67.0231 54.0731Z" fill="#2B2E3F"/>
<path d="M72.3397 62.4182C75.6426 60.6429 79.9841 58.21 83.0482 56.7088C83.4368 56.5175 83.0482 55.988 82.6851 56.1063C80.2967 56.8926 74.295 60.4907 72.1024 62.0273C71.8863 62.1764 72.1032 62.5448 72.3397 62.4182Z" fill="#2B2E3F"/>
<path d="M73.5236 59.8053C73.5866 59.808 73.6483 59.7875 73.6972 59.7477C73.746 59.7079 73.7785 59.6515 73.7885 59.5892C73.7984 59.527 73.7851 59.4633 73.7512 59.4102C73.7172 59.3571 73.6649 59.3184 73.6042 59.3014C72.9949 59.1304 71.0847 58.2936 71.926 57.4936C73.7405 55.7454 79.4296 55.6799 81.7329 55.6196C81.8279 55.6177 81.9185 55.5794 81.9861 55.5126C82.0537 55.4459 82.0932 55.3558 82.0964 55.2608C82.0996 55.1659 82.0662 55.0733 82.0032 55.0022C81.9403 54.9311 81.8524 54.8868 81.7578 54.8785C68.9629 54.8084 69.1399 59.3948 73.5236 59.8053Z" fill="#2B2E3F"/>
<path d="M71.0393 63.7739C77.7964 63.1487 82.3631 64.3584 81.7425 72.5165C81.6927 73.1514 82.2215 73.162 82.2916 72.7786C83.5163 66.0915 80.2255 61.3651 70.9632 63.2881C70.8984 63.298 70.8402 63.3334 70.8014 63.3863C70.7626 63.4392 70.7464 63.5053 70.7564 63.5701C70.7664 63.635 70.8017 63.6932 70.8546 63.7319C70.9075 63.7707 70.9737 63.7869 71.0385 63.7769L71.0393 63.7739Z" fill="#2B2E3F"/>
<path d="M92.8592 53.6598C92.8963 53.6149 92.9168 53.5586 92.917 53.5003C92.9173 53.4421 92.8973 53.3855 92.8605 53.3404C92.8237 53.2952 92.7723 53.2642 92.7152 53.2527C92.6581 53.2412 92.5988 53.2498 92.5474 53.2772C91.9169 53.6538 84.7365 59.4754 84.4284 57.8628C83.8741 54.99 84.9323 46.1209 86.6128 40.8197C87.2522 38.8041 88.9861 34.2939 90.6447 38.6429C91.3603 40.5328 91.9252 46.7408 92.2061 48.9334C92.2566 49.3311 92.8765 49.3461 92.8358 48.9334C92.5586 45.9702 92.5436 39.308 90.6944 36.9399C88.2149 33.7696 86.2444 39.0158 85.7918 40.7994C84.8789 44.3975 82.8286 54.6021 83.7761 58.1987C84.4352 60.7302 91.4492 55.4156 92.8592 53.6598Z" fill="#2B2E3F"/>
<path d="M96.7248 63.9751C96.2209 64.5242 94.9171 68.0824 91.2263 74.6331C91.0546 74.9405 91.5638 75.2131 91.7649 74.9307C92.6687 73.6457 97.1617 65.749 97.2634 64.1868C97.2693 64.1218 97.2541 64.0567 97.2198 64.0011C97.1856 63.9456 97.1343 63.9027 97.0736 63.8788C97.0128 63.8549 96.946 63.8514 96.8831 63.8688C96.8202 63.8862 96.7647 63.9235 96.7248 63.9751Z" fill="#2B2E3F"/>
<path d="M97.4147 53.0805C97.6075 53.2914 98.0594 52.9894 97.9495 52.6722C97.6813 51.9062 95.6898 51.1048 95.3644 51.7352C95.198 52.0576 96.4114 51.9868 97.4147 53.0805Z" fill="#2B2E3F"/>
<path d="M93.1873 61.9143C101.205 61.0519 109.107 59.6162 112.336 55.9225C115.395 52.3952 111.329 51.6593 109.036 52.4577C108.967 52.4891 108.912 52.5436 108.879 52.6116C108.847 52.6796 108.839 52.7568 108.858 52.8299C108.876 52.903 108.92 52.9672 108.981 53.0115C109.042 53.0558 109.116 53.0773 109.192 53.0723C110.553 52.9013 113.636 52.4125 112.215 54.7859C109.293 59.7292 98.5389 60.203 93.4442 61.1302C94.6864 59.0053 96.0776 56.9711 97.6072 55.0427C99.5113 54.6849 101.422 54.337 103.321 53.9641C103.714 53.8835 104.581 52.9058 100.298 53.7525C98.8666 54.0349 97.5665 53.9641 96.5934 55.0728C95.1578 56.6938 91.4406 62.1019 93.1873 61.9143Z" fill="#2B2E3F"/>
<path d="M134.736 70.6726C123.649 69.4855 101.023 73.6553 89.5287 76.2155C86.4867 76.7297 83.6864 78.196 81.531 80.4034C77.4237 84.1973 72.7937 90.3202 70.8353 94.4072C68.4559 99.3709 72.2664 99.5117 75.7433 99.114C92.3728 97.2242 114.374 92.7644 129.824 86.6859C134.424 84.8782 140.911 81.7072 141.415 76.0129C141.766 71.8867 138.052 71.0281 134.736 70.6726ZM140.732 76.0136C139.937 81.5068 132.564 84.7321 128.93 86.1376C113.148 92.2387 92.3608 96.5139 75.7862 98.232C72.2589 98.5996 69.6099 98.7916 71.9569 94.3868C74.726 89.2281 78.3501 84.5765 82.6751 80.6301C85.3664 78.1753 85.6986 78.1106 89.4933 77.1653C100.579 74.4191 123.499 70.5438 134.261 71.541C137.381 71.8363 141.267 72.3198 140.732 76.0136Z" fill="#2B2E3F"/>
<path d="M28.9566 81.3255C26.3663 81.205 20.6968 81.4965 17.9657 81.7285C1.14485 83.1551 0.232711 94.3215 10.1752 97.2598C14.266 98.3447 18.4339 99.1144 22.6424 99.5624C23.2216 99.6279 23.3482 98.6201 22.7637 98.5546C19.2356 98.0808 15.7083 97.4963 12.2111 96.6956C2.49462 94.4676 3.21093 88.234 9.34361 84.9334C14.8112 81.9906 22.9497 82.8824 29.0575 81.91C29.41 81.8648 29.3001 81.3413 28.9566 81.3255Z" fill="#2B2E3F"/>
<path d="M43.7164 81.1288C44.5683 78.2311 44.0644 76.6238 46.4574 71.3626C47.06 70.0527 49.4816 69.8915 50.8215 69.8207C56.0323 69.5435 61.228 69.231 63.45 70.2591C65.2087 71.0703 67.0985 80.7763 68.1719 83.457C68.3225 83.8403 68.9251 83.8336 68.9251 83.3613C68.9251 80.8162 66.5148 74.1291 65.397 71.6397C64.5609 69.7755 63.9915 69.0095 62.1416 68.7225C59.189 68.2706 54.8 68.4212 50.9797 68.7519C46.9485 69.0954 45.9407 69.942 45.3765 71.2714C44.1872 74.0237 42.857 79.3308 42.9926 81.058C43.0105 81.1364 43.0527 81.2071 43.113 81.2603C43.1734 81.3134 43.249 81.3462 43.329 81.3541C43.4091 81.3619 43.4896 81.3444 43.5591 81.3039C43.6286 81.2635 43.6837 81.2022 43.7164 81.1288Z" fill="#2B2E3F"/>
<path d="M65.864 86.6318C67.6325 86.4811 70.1678 85.624 71.0996 83.9812C71.2713 83.689 70.9534 83.24 70.6213 83.4773C68.8625 84.6214 68.2321 85.4673 65.8338 85.6744C61.8026 86.0269 59.9881 82.8777 55.5434 81.6432C52.2074 80.7055 46.3775 81.2546 43.3134 82.7211C40.1687 84.2328 34.7983 91.7363 34.4089 95.2064C34.3735 95.5235 34.9128 95.6696 34.9731 95.3879C35.6434 92.601 41.5697 84.5077 43.8023 83.4193C45.1272 82.7745 51.2855 81.4489 55.2511 82.538C59.1016 83.5526 61.5051 87.0069 65.864 86.6318Z" fill="#2B2E3F"/>
<path d="M74.3606 100.369C72.7867 101.638 71.4079 103.132 70.2684 104.803C70.1328 105.05 70.4853 105.353 70.6917 105.161C72.1281 103.79 73.5539 102.415 74.9549 101.014C75.3217 100.671 74.7689 100.107 74.3606 100.369Z" fill="#2B2E3F"/>
<path d="M66.1214 108.568C59.6498 114.12 55.3353 113.629 52.9183 114.111C52.4754 114.206 51.9105 115.491 56.728 114.474C60.5056 113.741 63.9803 111.903 66.7112 109.192C66.7869 109.112 66.8293 109.007 66.8294 108.897C66.8296 108.786 66.7875 108.681 66.712 108.601C66.6364 108.521 66.5331 108.473 66.4232 108.466C66.3134 108.46 66.2054 108.497 66.1214 108.568Z" fill="#2B2E3F"/>
<path d="M146.371 35.6797C145.797 36.6875 144.773 40.3496 144.355 41.676C136.494 66.6828 137.199 64.9218 136.731 66.893C136.66 67.1852 137.124 67.3969 137.235 67.079C137.758 65.7232 137.152 67.7215 145.972 39.2522C146.4 38.1341 146.703 36.9721 146.876 35.7874C146.905 35.5079 146.512 35.4763 146.371 35.6797Z" fill="#FF6B6B"/>
<path d="M16.4643 77.6564C19.9585 73.5084 20.5754 71.4153 34.2402 56.421C35.6111 54.9093 37.7675 52.4651 38.5335 50.6159C38.6646 50.2883 38.1908 50.112 37.9995 50.3689C35.0921 54.1485 32.5824 56.9354 29.3775 60.5079C25.988 64.2823 18.6486 72.9902 15.9529 77.334C15.742 77.6918 16.2218 77.9441 16.4643 77.6564Z" fill="#FF6B6B"/>
<path d="M133.294 53.7157C132.781 54.6067 131.476 58.931 131.035 60.2687C130.289 62.4861 129.418 64.6833 128.802 66.9407C128.778 67.0142 128.783 67.0945 128.817 67.164C128.852 67.2335 128.913 67.2865 128.986 67.3112C129.06 67.336 129.14 67.3306 129.209 67.2961C129.279 67.2616 129.332 67.201 129.357 67.1275C130.455 64.7639 131.972 60.0721 132.884 57.2852C133.318 56.1999 133.636 55.0715 133.832 53.9191C133.843 53.852 133.831 53.783 133.798 53.7238C133.764 53.6647 133.711 53.6191 133.647 53.595C133.584 53.5709 133.514 53.5698 133.449 53.5918C133.385 53.6138 133.33 53.6576 133.294 53.7157Z" fill="#FF6B6B"/>
<path d="M27.359 74.5879C27.1579 74.8658 27.5406 75.2078 27.7673 74.9359C30.5241 71.6699 33.2597 68.3829 36.0263 65.1245C36.949 64.0406 37.9621 63.023 38.7831 61.8586C38.9443 61.6371 38.6776 61.2643 38.4351 61.4759C36.0112 63.5819 29.1193 72.1535 27.359 74.5879Z" fill="#FF6B6B"/>
<path d="M107.065 23.611C108.207 22.893 109.399 22.2581 110.633 21.7114C111.634 23.7174 112.091 25.9511 111.958 28.1891C111.958 29.4846 112.291 29.6661 112.608 28.4361C113.616 24.4908 113.147 19.9301 111.998 15.9644C111.534 14.3668 111.343 14.5129 111.308 15.1426C111.092 19.0232 107.609 20.6155 106.606 23.4627C106.516 23.6864 106.73 23.8295 107.065 23.611Z" fill="#FF6B6B"/>
<path d="M93.6151 43.138C96.0751 43.1433 97.0227 40.452 98.3227 38.7694C97.8188 40.2509 98.8718 42.6447 98.0802 44.484C97.632 45.5272 98.856 45.7185 99.723 40.4528C100.313 36.8374 106.37 35.4138 108.673 31.5181C110.215 28.8924 109.918 25.0525 109.544 26.4136C107.463 33.9699 98.5208 32.999 95.868 38.4063C95.0613 40.0491 95.8228 41.6715 93.4291 42.6085C93.3033 42.6439 92.4514 43.135 93.6151 43.138Z" fill="#FF6B6B"/>
<path d="M128.669 30.6912C128.537 30.2573 128.25 29.4665 127.948 30.9277C127.096 35.0049 122.062 36.4706 120.893 38.1134C120.278 38.9705 120.435 39.2522 121.316 38.6173C122.908 37.5138 124.672 37.5696 126.023 36.6423C126.531 38.5321 126.575 40.517 126.149 42.427C125.927 43.4349 126.189 43.7075 126.819 42.8963C129.176 39.8623 129.779 34.3556 128.669 30.6912Z" fill="#FF6B6B"/>
<path d="M122.617 40.7994C118.945 46.7927 105.357 46.9931 103.799 56.0234C103.759 56.2403 103.92 56.5778 104.233 56.1695C104.685 55.585 107.256 49.9563 116.327 48.6811C114.595 51.5229 114.674 53.7201 113.566 56.4919C109.866 65.7037 103.991 67.1251 97.576 67.8105C97.3139 67.8105 97.3342 68.5712 97.7522 68.6164C112.231 70.1733 116.211 60.557 117.909 52.8486C118.958 48.1116 123.991 47.0737 123.267 40.7542C123.221 40.297 123.095 40.0191 122.617 40.7994Z" fill="#FF6B6B"/>
<path d="M112.437 37.3481C110.925 40.0386 110.925 43.3143 111.524 46.3325C111.63 46.8364 112.084 46.5193 112.064 45.5115C111.968 40.1094 115.591 38.0283 119.063 35.0546C123.452 31.2802 127.928 22.4917 123.644 17.354C123.337 17.0467 123.07 17.0972 123.14 17.4346C124.652 25.8247 118.484 29.3527 112.444 33.152C101.899 39.8036 108.166 43.3618 98.4911 47.106C95.2816 48.3564 91.1766 49.6286 90.2351 53.418C90.213 53.4902 90.2205 53.5682 90.256 53.6349C90.2914 53.7016 90.3519 53.7514 90.4242 53.7735C90.4964 53.7956 90.5744 53.7881 90.6411 53.7526C90.7077 53.7172 90.7576 53.6567 90.7797 53.5844C91.7016 50.9587 98.9731 49.3009 101.307 48.394C108.879 45.4407 107.498 41.2761 112.437 37.3481Z" fill="#FF6B6B"/>
<path d="M58.1436 57.7564C57.7505 56.3005 60.0636 54.733 62.3217 53.6597C64.5799 52.5864 65.2239 52.6165 65.9063 52.6496C64.8578 50.3267 62.9537 47.9277 57.6774 49.9735C52.4011 52.0192 53.671 56.2251 53.9987 57.6563C55.3529 58.0177 56.7736 58.052 58.1436 57.7564Z" fill="#FF6B6B"/>
<path d="M54.3647 60.2662C53.7998 62.9672 54.9033 64.5595 57.3173 64.7508C57.7186 64.7925 58.1242 64.7534 58.5101 64.6358C58.8961 64.5183 59.2546 64.3247 59.5646 64.0665C59.8746 63.8082 60.1297 63.4905 60.315 63.1322C60.5003 62.7738 60.612 62.3819 60.6435 61.9797C59.9075 61.6112 59.3345 60.9826 59.0354 60.2157C57.5114 60.6527 55.8978 60.6701 54.3647 60.2662Z" fill="#FF6B6B"/>
<path d="M52.8002 131.698C48.5972 135.127 40.8022 135.896 35.7473 133.84C35.4506 133.718 35.0823 134.117 35.3896 134.344C39.5827 137.418 49.4747 135.649 53.3199 132.504C53.7899 132.114 53.2792 131.308 52.8002 131.698Z" fill="#FF6B6B"/>
<path d="M61.4744 97.4661C63.5623 101.372 63.4907 102.596 64.5287 106.655C64.5467 106.768 64.6085 106.868 64.7006 106.935C64.7927 107.002 64.9075 107.029 65.0198 107.011C65.132 106.993 65.2326 106.931 65.2992 106.839C65.3659 106.747 65.3933 106.632 65.3753 106.52C65.2593 103.743 63.9487 99.1925 62.1244 97.076C61.8525 96.7558 61.262 97.0684 61.4744 97.4661Z" fill="#FF6B6B"/>
<path d="M64.2312 94.3675C69.588 102.835 68.767 109.439 68.0726 113.481C68.0123 113.834 68.7633 113.985 68.8491 113.627C70.6177 106.139 69.1263 99.0691 64.7516 94.0044C64.5287 93.7325 64.0451 94.0768 64.2312 94.3675Z" fill="#FF6B6B"/>
<path d="M23.2063 117.094C23.4993 117.31 23.7863 116.917 23.6048 116.651C22.1586 114.564 21.135 112.715 21.2464 110.098C21.2464 109.503 20.3494 109.42 20.3238 110.018C20.2032 112.524 21.0898 115.539 23.2063 117.094Z" fill="#FF6B6B"/>
<path d="M50.9228 129.168C51.2716 128.847 50.736 128.221 50.3632 128.528C47.1334 131.194 45.1931 130.816 41.5551 130.605C41.4965 130.608 41.4406 130.63 41.3961 130.668C41.3516 130.707 41.3209 130.758 41.3088 130.816C41.2967 130.873 41.3039 130.933 41.3292 130.986C41.3545 131.039 41.3966 131.082 41.4489 131.108C44.0038 132.566 48.618 131.293 50.9228 129.168Z" fill="#FF6B6B"/>
<path d="M59.2676 121.443C58.3464 120.732 57.3981 120.098 56.6073 119.508C53.2178 116.989 49.8283 114.469 46.4389 111.976C47.0463 111.559 47.625 111.101 48.1712 110.606C49.0231 109.129 48.3528 106.68 47.418 105.189C51.5457 102.513 59.5727 96.9035 62.1125 92.5906C64.6524 88.2777 60.2634 84.9959 56.3677 87.828C52.8404 90.3731 47.418 98.663 45.1448 102.44C43.6685 101.503 40.685 101.125 39.4053 101.937C39.0743 102.212 38.7939 102.544 38.5768 102.916C35.0487 99.0103 31.4657 94.7019 27.7824 90.9983C22.6071 85.8011 15.5216 90.0553 23.2872 97.4278C25.1703 99.2174 31.9093 104.483 36.7269 106.6C36.0436 108.191 35.62 109.882 35.472 111.608C32.0253 113.927 26.9358 118.406 23.6352 121.375C17.6585 126.751 24.8946 132.501 30.1558 126.298C32.8975 123.063 35.7447 118.442 38.1836 114.889C39.8913 114.926 41.5836 114.558 43.1217 113.815C46.0189 118.551 49.2171 123.096 52.6966 127.422C60.0088 136.496 67.2623 127.624 59.2676 121.443ZM29.2437 125.701C24.8637 130.619 19.4172 126.454 24.3561 122.01C27.8834 118.811 32.0961 115.903 35.5232 112.648C35.5602 113.106 35.7329 113.542 36.0192 113.901C36.3056 114.26 36.6925 114.526 37.1306 114.664C34.7572 118.006 31.8784 122.743 29.2437 125.701ZM36.9265 106.134C36.6139 105.781 29.545 102.016 23.9659 96.6806C17.0469 90.0741 22.9325 86.9445 27.3719 91.6913C31.0055 95.5816 34.5433 99.7507 38.091 103.743C37.6608 104.518 37.2728 105.317 36.9287 106.134H36.9265ZM44.601 104.481C47.4331 100.536 53.1681 91.0058 56.9123 88.4811C59.9915 86.3946 63.2665 88.597 61.226 92.0091C58.7366 96.1767 49.8569 102.506 45.3173 105.7C44.7193 105.7 44.5076 105.202 44.6033 104.481H44.601ZM44.0368 113.369C44.6173 113.077 45.1841 112.759 45.7353 112.416C47.1409 113.57 55.1076 119.459 58.6056 122.243C65.1261 127.449 59.8958 134.488 53.6117 126.672C53.614 126.488 49.5496 121.946 44.0391 113.37L44.0368 113.369Z" fill="#FF6B6B"/>
<path d="M17.9507 103.216C17.9677 103.121 17.9509 103.023 17.9032 102.939C17.8555 102.855 17.7799 102.791 17.6896 102.757C17.5992 102.723 17.4998 102.721 17.4086 102.753C17.3173 102.784 17.24 102.847 17.19 102.929C14.4083 108.376 16.1821 116.616 20.2691 121.1C20.5109 121.363 20.9749 120.985 20.773 120.692C16.5098 115.091 16.2123 109.686 17.9507 103.216Z" fill="#FF6B6B"/>
<path d="M34.3985 85.3672C32.4868 85.8726 29.7474 86.9941 28.8556 88.8945C28.6997 89.2214 29.2081 89.5445 29.4499 89.2869C31.345 87.2713 32.0959 87.2261 34.7013 86.1988C35.1547 86.0225 34.8798 85.2399 34.3985 85.3672Z" fill="#FF6B6B"/>
<path d="M36.9737 80.988C33.5571 81.1801 28.3719 83.2958 25.8261 86.445C25.6144 86.7072 25.9873 87.0476 26.2027 86.8435C28.793 84.4701 31.8119 82.1623 37.0678 81.8595C37.6237 81.8241 37.5235 80.9571 36.9737 80.988Z" fill="#FF6B6B"/>
</svg>
