<svg width="151" height="151" viewBox="0 0 151 151" fill="none" xmlns="http://www.w3.org/2000/svg">
<path d="M75.5169 36.2883C75.9603 35.3868 76.333 34.4522 76.6316 33.4931C76.6136 33.4177 72.6306 28.2868 63.2244 24.45C62.7432 24.935 62.2905 25.4476 61.8686 25.985C59.9856 24.2858 56.8085 25.3455 55.7306 27.6104C55.2911 28.6834 55.2101 29.8696 55.4998 30.9923C55.7895 32.115 56.4343 33.114 57.338 33.8403C56.3513 36.9827 56.4974 40.2344 59.673 42.4819C59.673 42.4819 58.1379 45.1672 58.0468 45.4044C57.7176 46.3362 59.6361 47.4328 59.746 47.414C60.6907 46.2863 61.5749 45.1094 62.3951 43.8882C65.3703 45.4346 68.2092 45.3796 71.036 42.9565C72.0649 43.3524 73.2073 43.3337 74.2227 42.9044C75.2382 42.4751 76.0474 41.6686 76.4803 40.6546C76.7581 39.9115 76.8149 39.1038 76.644 38.3291C76.473 37.5543 76.0816 36.8455 75.5169 36.2883ZM57.6498 32.9266C57.0188 32.3813 56.5577 31.6662 56.3213 30.8664C56.085 30.0665 56.0834 29.2156 56.3167 28.4149C56.4612 27.9143 56.7228 27.4553 57.0798 27.0757C57.4368 26.6962 57.879 26.407 58.3698 26.2321C58.8606 26.0572 59.386 26.0016 59.9025 26.0698C60.4191 26.138 60.912 26.3282 61.3406 26.6245C59.8311 28.5487 58.5895 30.6687 57.6498 32.9266ZM71.6438 42.372C73.0159 40.8386 74.1605 39.116 75.0424 37.2569C77.0647 39.1889 75.2156 42.9181 71.6438 42.372Z" fill="#FF6B6B"/>
<path d="M56.0062 53.3517C56.2639 52.8484 56.4903 52.3297 56.6841 51.7985C56.1907 51.5063 54.9306 50.5745 54.9306 50.5745C54.526 51.0553 54.171 51.5757 53.8708 52.1277C52.7845 51.4688 51.6622 50.8711 50.5092 50.3373C50.3631 50.4472 47.5498 54.4476 47.641 54.7059C47.7163 54.962 56.2457 59.5265 56.8852 59.8029C57.3785 59.1635 59.6254 55.4735 59.6073 55.4343C59.6231 55.4366 57.9427 54.4476 56.0062 53.3517Z" fill="#FF6B6B"/>
<path d="M146.785 129.863C142.416 126.462 131.15 118.373 131.073 118.317C131.034 118.29 130.99 118.272 130.943 118.264C130.897 118.255 130.849 118.256 130.803 118.266C130.757 118.276 130.714 118.296 130.675 118.323C130.637 118.351 130.604 118.386 130.58 118.426C127.9 121.728 124.888 124.746 121.592 127.433C118.297 129.924 114.73 132.033 110.959 133.717C105.332 130.762 96.1685 125.744 88.2868 121.13C88.3621 121.075 88.0495 108.725 87.3008 102.77C86.9355 99.9375 84.761 89.7804 84.4688 89.2321C85.5466 89.9446 87.6842 91.607 87.7211 91.662C87.7799 91.75 87.8702 91.8123 87.9734 91.8359C88.0767 91.8595 88.185 91.8427 88.2762 91.7889C88.3674 91.7351 88.4346 91.6484 88.4639 91.5466C88.4931 91.4448 88.4823 91.3357 88.4337 91.2417C86.0474 86.7802 84.6808 81.8447 84.4326 76.7912C84.3407 75.4211 84.4688 74.0322 84.4326 72.6621C86.0127 73.5611 87.4428 74.7014 88.671 76.0418C91.5949 79.3597 91.738 82.1684 92.3979 84.4273C92.421 84.504 92.4707 84.57 92.5382 84.6132C92.6056 84.6565 92.6863 84.6742 92.7657 84.6632C92.845 84.6522 92.9178 84.6132 92.971 84.5533C93.0241 84.4933 93.0541 84.4163 93.0554 84.3362C93.0554 82.252 91.7802 78.5048 89.3647 75.6953C87.8429 74.0585 86.0583 72.6876 84.0846 71.6392C83.5394 71.3678 82.9783 71.1299 82.4042 70.9267C82.3441 70.9127 82.2811 70.9204 82.2261 70.9484C82.1711 70.9763 82.1277 71.0228 82.1036 71.0795C82.0795 71.1363 82.0762 71.1997 82.0943 71.2587C82.1123 71.3177 82.1506 71.3684 82.2023 71.402C82.7296 71.6942 83.244 71.9864 83.7555 72.2787C83.5824 73.7342 83.5642 75.2039 83.7012 76.6632C83.9144 80.8413 84.871 86.3548 86.7141 89.9627C84.3047 88.4054 81.8099 86.9843 79.2414 85.7063C77.042 84.7678 73.3852 82.9194 71.7334 84.4823C71.4592 83.0022 71.112 81.5591 70.9659 80.0609C70.5574 75.524 71.2727 70.9563 73.0485 66.7614C73.1585 66.4691 72.6832 66.268 72.5371 66.5422C69.6266 72.5589 69.3615 80.3261 70.9478 84.8295C68.3937 85.5382 66.0287 86.805 64.0235 88.5384C63.2908 89.21 62.7001 90.0216 62.2861 90.9252C61.8722 91.8288 61.6433 92.8061 61.6132 93.7996C61.1198 96.7959 63.2025 103.099 64.4626 106.167C56.5952 100.725 56.4853 99.6378 56.0266 100.285C49.2286 110.179 41.4823 119.386 32.8976 127.777C31.4732 126.973 24.64 124.543 22.8866 123.758C19.5619 122.26 16.323 120.616 13.1701 118.825C13.0806 118.776 12.9752 118.763 12.8765 118.79C12.7779 118.818 12.694 118.883 12.6428 118.971C10.2632 122.215 7.29902 124.987 3.90249 127.143C3.84212 127.181 3.79873 127.24 3.78149 127.309C3.76425 127.378 3.77451 127.451 3.81009 127.513C3.84568 127.574 3.90381 127.62 3.97221 127.639C4.04061 127.659 4.11392 127.651 4.17666 127.617C4.78215 127.3 5.36796 126.946 5.93091 126.558C7.95486 128.578 10.2115 130.35 12.6534 131.838C12.7109 131.871 12.7763 131.889 12.8428 131.889C12.9094 131.889 12.9748 131.872 13.0324 131.838C13.09 131.805 13.1377 131.757 13.1706 131.699C13.2035 131.641 13.2205 131.575 13.2198 131.509C13.2017 130.63 13.0415 129.761 12.7453 128.933C15.3426 129.893 17.8401 131.104 20.2021 132.549C20.2876 132.597 20.3882 132.61 20.4832 132.586C20.5783 132.563 20.6607 132.503 20.7135 132.421C21.0788 131.8 21.4622 131.197 21.8095 130.575C22.8142 131.088 23.819 131.672 24.86 132.092C25.2072 132.238 25.3872 131.69 25.098 131.526C24.0563 130.886 22.9235 130.396 21.8456 129.827C21.7651 129.783 21.6711 129.773 21.5829 129.796C21.4946 129.82 21.4189 129.877 21.3711 129.955C20.9869 130.539 20.6179 131.142 20.2563 131.745C17.6923 130.229 14.9884 128.962 12.1818 127.963C11.8527 127.835 11.6335 128.237 11.7616 128.512C12.0968 129.233 12.3128 130.004 12.401 130.795C10.2871 129.412 8.26132 127.899 6.33538 126.264C8.80593 124.319 11.0541 122.107 13.039 119.669C16.1952 121.477 19.4449 123.117 22.7743 124.582C24.4005 125.295 31.1418 127.999 32.3658 128.309C32.0005 128.674 26.1548 134.265 23.4688 136.676C23.2496 136.877 23.6518 137.242 23.871 137.042C30.224 131.47 36.2611 125.547 41.9542 119.303C44.213 120.871 46.4906 122.412 48.7866 123.925C48.8324 123.952 48.8835 123.967 48.9362 123.971C48.9888 123.975 49.0417 123.967 49.0909 123.948C49.1401 123.929 49.1842 123.899 49.2201 123.86C49.256 123.821 49.2826 123.775 49.2981 123.724C49.4811 122.865 49.9925 121.44 50.8331 121.002C51.2896 120.765 51.984 121.404 52.4036 121.66C52.9158 121.971 68.2611 131.287 72.3721 133.772C72.4271 133.804 72.4896 133.821 72.5534 133.822C72.6171 133.822 72.6798 133.806 72.7353 133.775C72.7907 133.743 72.837 133.698 72.8693 133.643C72.9017 133.588 72.9191 133.525 72.9197 133.462C72.9197 131.781 72.9385 130.082 72.9385 128.401C73.5411 128.602 74.1437 128.803 74.7462 128.985C74.7971 128.997 74.8498 128.998 74.9008 128.987C74.9519 128.976 74.9999 128.954 75.0417 128.923C75.0834 128.892 75.1178 128.852 75.1425 128.806C75.1672 128.76 75.1816 128.709 75.1846 128.657C75.2599 127.725 75.3127 126.793 75.3857 125.862L79.9344 125.423C80.0013 125.422 80.0663 125.4 80.1213 125.362C80.1763 125.324 80.2191 125.271 80.2442 125.209C80.2694 125.147 80.276 125.079 80.2631 125.013C80.2502 124.947 80.2184 124.887 80.1717 124.839C78.8565 123.249 77.5595 121.641 76.2444 120.052C82.2541 122.117 88.2645 124.169 94.2756 126.209C95.3738 126.596 127.211 143.458 134.157 145.775C134.449 145.866 134.668 145.391 134.376 145.263C129.33 142.899 123.164 140.283 111.722 134.228C117.706 132.052 126.015 126.162 130.96 119.194C132.933 121.039 135.344 122.357 137.519 123.998L140.971 126.574C140.483 126.536 139.992 126.598 139.528 126.757C139.466 126.776 139.411 126.815 139.371 126.867C139.332 126.92 139.31 126.983 139.309 127.049C139.327 127.287 139.363 127.524 139.384 127.743C137.741 127.232 136.096 126.757 134.452 126.227C134.41 126.217 134.365 126.216 134.323 126.224C134.28 126.233 134.239 126.251 134.204 126.277C134.169 126.304 134.141 126.337 134.12 126.376C134.1 126.415 134.089 126.458 134.087 126.501C134.032 127.141 134.012 127.782 133.995 128.401C130.914 127.434 130.129 126.648 128.515 125.825C128.313 125.716 128.076 125.99 128.259 126.154C130.001 127.601 132.051 128.632 134.251 129.167C134.301 129.18 134.353 129.181 134.404 129.17C134.454 129.16 134.502 129.138 134.542 129.106C134.583 129.074 134.616 129.033 134.638 128.987C134.66 128.94 134.672 128.889 134.671 128.838C134.689 128.18 134.689 127.523 134.689 126.865C136.352 127.376 138.014 127.906 139.677 128.417C139.722 128.43 139.77 128.432 139.816 128.424C139.862 128.415 139.905 128.395 139.942 128.367C139.979 128.339 140.009 128.302 140.03 128.26C140.05 128.218 140.061 128.172 140.061 128.125C140.024 127.833 139.969 127.431 139.933 127.139C141.23 126.81 142.673 127.817 142.747 127.797C143.968 128.671 145.205 129.525 146.455 130.358C146.712 130.465 147.041 130.062 146.785 129.863ZM67.8257 96.4117C70.2759 94.4587 75.1364 92.0823 75.6268 92.0823C76.102 92.0823 78.7323 99.7553 79.4629 102.552C80.7434 107.466 82.4049 117.587 82.4411 117.767C78.2231 115.228 70.1637 109.985 69.8903 109.82C69.9739 109.564 66.8465 101.198 67.8257 96.4117ZM75.2825 118.883C74.9165 118.757 74.7161 119.23 74.9353 119.486C76.3785 121.239 77.8405 122.993 79.2836 124.747C77.8954 124.893 76.4884 125.021 75.1003 125.167C75.0148 125.173 74.9343 125.209 74.8738 125.27C74.8132 125.331 74.7768 125.411 74.7711 125.496L74.5519 128.127C73.9331 127.931 73.3178 127.724 72.7065 127.506C72.6541 127.493 72.5994 127.492 72.5466 127.504C72.4938 127.515 72.4444 127.538 72.4021 127.572C72.3597 127.605 72.3256 127.648 72.3024 127.697C72.2792 127.746 72.2675 127.799 72.2682 127.853C72.2501 129.479 72.2501 131.123 72.232 132.749L51.2376 120.034C51.1819 120.003 51.119 119.986 51.055 119.986C50.991 119.986 50.928 120.003 50.8723 120.034C49.8677 120.772 49.1304 121.818 48.7716 123.012C46.6159 121.586 44.5332 120.198 42.3406 118.81C47.395 113.121 52.0988 107.13 56.4258 100.869C59.3859 103.355 77.8736 116.069 82.713 118.992C82.713 118.992 91.3358 123.761 93.8606 125.185C87.6481 123.085 81.4627 121.013 75.2795 118.883H75.2825Z" fill="#2B2E3F"/>
<path d="M97.6773 50.7026C95.3913 46.9915 99.485 40.6275 107.469 44.1074C107.761 44.2354 108.182 44.0162 108.054 43.6509C106.976 40.3805 109.807 37.3992 113.06 37.5311C116.475 37.6584 118.796 40.5635 119.399 43.7421C119.429 43.8478 119.499 43.9374 119.595 43.992C119.69 44.0466 119.804 44.0618 119.91 44.0343C122.196 43.32 124.601 43.0636 126.987 43.28C129.373 43.4963 131.692 44.1811 133.813 45.2952C134.909 45.8797 137.229 47.6302 135.22 48.693C133.755 49.4673 115.956 49.4763 102.134 50.0269C102.044 50.0269 101.958 50.0626 101.894 50.1262C101.831 50.1898 101.795 50.276 101.795 50.3659C101.795 50.4558 101.831 50.542 101.894 50.6055C101.958 50.6691 102.044 50.7048 102.134 50.7048C110.63 50.5956 131.602 50.0842 133.557 49.9192C134.653 49.8281 136.005 49.5539 136.59 48.4941C138.087 45.6989 132.99 43.8905 131.182 43.306C127.589 42.159 123.738 42.0956 120.11 43.1237C119.269 39.5791 116.365 36.5466 112.51 36.7289C109.221 36.8938 106.518 39.8713 107.102 43.1237C104.343 42.1189 101.001 41.9185 98.6068 43.8724C96.5791 45.5347 95.5744 48.7321 97.1817 51.0159C97.2233 51.0816 97.2892 51.1281 97.3651 51.1452C97.4409 51.1623 97.5205 51.1486 97.5862 51.107C97.6519 51.0655 97.6984 50.9995 97.7155 50.9237C97.7326 50.8478 97.7189 50.7683 97.6773 50.7026Z" fill="#2B2E3F"/>
<path d="M127.309 107.3C127.072 106.057 126.413 104.934 125.444 104.121C124.475 103.308 123.254 102.854 121.989 102.837C120.724 102.82 119.491 103.24 118.5 104.027C117.509 104.813 116.82 105.918 116.549 107.154C115.086 106.656 113.534 106.472 111.995 106.613C110.456 106.755 108.964 107.219 107.616 107.976C107.012 108.257 106.473 108.661 106.032 109.161C105.591 109.661 105.259 110.246 105.055 110.881C104.917 111.408 104.957 111.966 105.168 112.468C105.379 112.97 105.751 113.388 106.224 113.658C106.277 113.685 106.338 113.69 106.395 113.673C106.452 113.657 106.5 113.619 106.531 113.568C106.561 113.517 106.57 113.456 106.558 113.398C106.545 113.34 106.511 113.289 106.462 113.256C105.219 112.397 105.512 110.717 106.407 109.73C108.087 107.859 112.464 106.396 116.747 108.05C116.849 108.078 116.958 108.065 117.05 108.014C117.143 107.963 117.211 107.877 117.24 107.775C117.379 106.619 117.94 105.554 118.815 104.786C119.691 104.017 120.82 103.6 121.985 103.613C123.15 103.627 124.268 104.071 125.126 104.859C125.984 105.647 126.52 106.725 126.631 107.885C126.632 107.955 126.652 108.023 126.687 108.083C126.723 108.143 126.773 108.193 126.834 108.228C126.895 108.263 126.963 108.282 127.033 108.283C127.103 108.283 127.172 108.266 127.233 108.232C129.681 106.771 133.39 106.876 135.382 109.127C136.737 110.662 135.765 112.05 134.085 112.452C131.947 112.954 118.382 113.117 108.215 113.932C108.126 113.936 108.042 113.975 107.98 114.039C107.919 114.104 107.884 114.19 107.884 114.279C107.884 114.368 107.919 114.454 107.98 114.519C108.042 114.583 108.126 114.622 108.215 114.626C115.07 114.517 121.917 113.986 128.768 113.639C131.946 113.488 134.582 113.588 135.966 112.452C137.921 110.844 136.24 108.451 134.559 107.481C133.458 106.86 132.221 106.518 130.957 106.487C129.693 106.455 128.44 106.735 127.309 107.3Z" fill="#2B2E3F"/>
<path d="M11.9596 94.6792C11.9317 92.3224 13.7131 90.4409 15.8507 89.6922C18.4116 88.8147 21.258 89.473 23.816 90.0387C23.9152 90.0634 24.0201 90.0487 24.1087 89.9977C24.1973 89.9467 24.2627 89.8634 24.2912 89.7652C24.5843 88.6065 25.28 87.5897 26.254 86.8968C27.2279 86.204 28.4166 85.8802 29.6074 85.9833C30.7842 86.1693 31.8565 86.7675 32.6328 87.6711C33.4092 88.5747 33.8391 89.7249 33.8458 90.9162C33.8463 90.9786 33.8608 91.0402 33.8883 91.0963C33.9159 91.1523 33.9557 91.2015 34.0048 91.2401C34.054 91.2786 34.1112 91.3056 34.1722 91.3191C34.2332 91.3325 34.2964 91.332 34.3572 91.3176C35.7658 90.7577 37.2977 90.5812 38.7967 90.8062C39.5454 90.9162 43.8018 92.1221 42.3225 93.3822C41.8472 93.7844 23.6698 94.46 15.4327 94.5331C15.0673 94.5331 15.1766 95.1545 15.5238 95.1545C18.5201 95.1176 38.689 94.8254 41.5391 94.442C42.3067 94.332 43.2196 94.0578 43.4387 93.1999C43.6768 92.2863 42.8912 91.5556 42.1786 91.1353C41.0449 90.4925 39.7894 90.0937 38.4925 89.9646C37.1956 89.8356 35.8861 89.9791 34.648 90.3859C34.5109 89.1028 33.9524 87.9012 33.0599 86.9692C32.1674 86.0372 30.9911 85.4272 29.7151 85.2347C28.4005 85.1157 27.0845 85.4467 25.9827 86.1735C24.8808 86.9003 24.0584 87.9797 23.6502 89.235C20.8731 88.6505 17.7857 88.066 15.0997 89.2719C12.9809 90.2217 11.2086 92.2494 11.409 94.6792C11.409 94.7522 11.438 94.8223 11.4896 94.8739C11.5412 94.9255 11.6113 94.9545 11.6843 94.9545C11.7573 94.9545 11.8273 94.9255 11.8789 94.8739C11.9306 94.8223 11.9596 94.7522 11.9596 94.6792Z" fill="#2B2E3F"/>
<path d="M58.8738 51.5252C58.9484 51.5226 59.0197 51.4939 59.0754 51.4441C59.131 51.3943 59.1675 51.3266 59.1784 51.2528C59.1893 51.1789 59.174 51.1035 59.1352 51.0398C59.0963 50.976 59.0363 50.9279 58.9657 50.9038C57.7778 50.4654 56.6088 50.4474 55.8963 49.2415C55.857 49.1764 55.7958 49.1275 55.7237 49.1035C55.6515 49.0795 55.5732 49.082 55.5028 49.1106C55.4323 49.1392 55.3744 49.192 55.3394 49.2595C55.3044 49.3269 55.2946 49.4047 55.3118 49.4787C55.7863 50.8857 57.466 51.6148 58.8738 51.5252Z" fill="#2B2E3F"/>
<path d="M59.9706 50.3014C60.0255 50.2826 60.0732 50.247 60.107 50.1998C60.1407 50.1525 60.1589 50.0959 60.1589 50.0378C60.1589 49.9797 60.1407 49.923 60.107 49.8758C60.0732 49.8285 60.0255 49.793 59.9706 49.7741C58.6005 49.4239 57.3953 49.1851 56.4809 47.98C56.2617 47.6877 55.7503 47.9619 55.9695 48.2911C56.7927 49.5158 58.425 50.7126 59.9706 50.3014Z" fill="#2B2E3F"/>
<path d="M59.7696 48.9853C59.84 48.984 59.908 48.9599 59.9635 48.9166C60.0189 48.8734 60.0589 48.8134 60.0774 48.7455C60.0959 48.6776 60.0919 48.6056 60.066 48.5402C60.0401 48.4748 59.9938 48.4195 59.9338 48.3827C59.0107 48.0008 58.1953 47.3985 57.5589 46.6285C57.3217 46.282 56.7733 46.5923 56.9925 46.9576C57.2541 47.4971 57.6441 47.9641 58.1284 48.3176C58.6126 48.6711 59.1761 48.9004 59.7696 48.9853Z" fill="#2B2E3F"/>
<path d="M58.1251 52.2731C58.076 52.2742 58.0287 52.2913 57.9902 52.3217C57.9517 52.3521 57.9241 52.3943 57.9117 52.4418C57.8993 52.4892 57.9027 52.5395 57.9213 52.5849C57.94 52.6302 57.9729 52.6683 58.0151 52.6934C58.2246 52.8221 58.4641 52.8938 58.7099 52.9013C58.9557 52.9089 59.1991 52.852 59.4161 52.7363C60.1481 52.3468 60.7099 51.7002 60.9933 50.921C61.0125 50.8468 61.0071 50.7684 60.9779 50.6975C60.9487 50.6267 60.8973 50.5672 60.8314 50.528C60.7655 50.4889 60.6887 50.4722 60.6125 50.4805C60.5363 50.4887 60.4648 50.5215 60.4088 50.5738C59.7445 51.3135 59.6052 52.1428 58.1251 52.2731Z" fill="#2B2E3F"/>
<path d="M60.0989 53.2786C60.0415 53.3423 60.0053 53.4223 59.9955 53.5075C59.9856 53.5926 60.0025 53.6788 60.0439 53.7539C61.5601 57.2443 63.5516 60.935 66.6021 63.3265C66.8582 63.5276 67.2235 63.1985 66.9863 62.9431C64.3642 60.2576 62.2804 57.0949 60.8475 53.6258C61.3732 53.0541 61.9412 52.5228 62.5468 52.0365C65.2584 55.4501 69.49 59.638 73.4165 61.3538C73.4986 61.3972 73.5942 61.4072 73.6835 61.3818C73.7728 61.3565 73.8489 61.2977 73.8959 61.2176C73.943 61.1376 73.9574 61.0425 73.9361 60.9521C73.9149 60.8618 73.8596 60.7831 73.7818 60.7324C70.9083 58.7552 66.7076 56.5054 62.9302 51.324C62.8787 51.24 62.7962 51.1795 62.7006 51.1556C62.605 51.1316 62.5038 51.1461 62.4188 51.196C61.5678 51.7984 60.7893 52.4973 60.0989 53.2786Z" fill="#2B2E3F"/>
<path d="M75.6269 54.028C75.3411 54.9166 75.3981 55.8801 75.7869 56.7287C76.1757 57.5774 76.868 58.2498 77.7277 58.6136C77.6024 59.2461 77.4315 59.8686 77.2162 60.4763C77.2007 60.5411 77.2085 60.6092 77.2383 60.6688C77.2682 60.7283 77.3181 60.7754 77.3793 60.8017C77.4405 60.828 77.509 60.8319 77.5727 60.8126C77.6365 60.7933 77.6913 60.7521 77.7277 60.6962C78.0768 60.1221 78.2719 59.4675 78.2941 58.7959C78.742 58.9073 79.2124 58.8882 79.6499 58.7409C79.7135 58.719 79.7675 58.6757 79.8029 58.6185C79.8382 58.5613 79.8527 58.4936 79.8438 58.4269C79.835 58.3602 79.8033 58.2986 79.7542 58.2526C79.7051 58.2066 79.6417 58.179 79.5745 58.1745C78.553 58.1959 77.561 57.8306 76.7974 57.1516C76.4121 56.7098 76.1637 56.1653 76.0827 55.5847C76.0016 55.004 76.0914 54.4124 76.341 53.8819C76.3613 53.802 76.3498 53.7172 76.3089 53.6456C76.268 53.574 76.2009 53.521 76.1218 53.4978C75.0439 53.3155 77.1266 50.4096 77.583 49.7897C78.5479 50.4969 81.4764 50.9519 80.9446 52.2376C80.7458 52.2376 80.678 52.6609 80.9627 52.6391C83.2932 52.4937 83.2638 55.5857 80.9815 55.3431C80.7804 55.3251 80.6885 55.7454 80.6885 55.7815C80.6701 55.8886 80.6736 55.9984 80.699 56.1041C80.7243 56.2098 80.7708 56.3093 80.8358 56.3964C80.9007 56.4836 80.9828 56.5566 81.0768 56.6111C81.1709 56.6656 81.2751 56.7003 81.383 56.7132C80.8166 57.9184 81.1819 61.0247 81.2738 61.0616C80.288 61.6615 79.2065 62.0878 78.0764 62.3217C77.9922 62.3445 77.9203 62.3994 77.8759 62.4745C77.8316 62.5497 77.8184 62.6392 77.8391 62.7239C78.1314 63.6376 78.3137 64.5874 78.517 65.5191C78.572 65.7744 78.9554 65.7014 78.9554 65.4641C78.9562 64.5912 78.827 63.723 78.572 62.8881C79.5626 62.6655 80.5162 62.3026 81.4041 61.8103C81.5864 62.3039 81.7872 62.7972 82.0067 63.2903C81.1111 63.911 80.2344 64.6054 79.3207 65.208C79.0654 65.391 79.2115 65.8663 79.5399 65.7353C80.6697 65.1701 81.7312 64.4774 82.7034 63.6707C88.7909 66.2241 92.4011 70.9249 93.7757 77.4636C94.1523 79.7403 94.3478 82.0434 94.3602 84.351C94.3421 84.3698 93.9949 84.406 93.8668 84.4429C93.8172 84.4568 93.7721 84.4834 93.7361 84.5202C93.7 84.557 93.6742 84.6025 93.6612 84.6524C93.6483 84.7022 93.6486 84.7546 93.6622 84.8043C93.6758 84.854 93.7022 84.8992 93.7388 84.9355C93.8554 85.0077 93.9879 85.0505 94.1248 85.0601C94.2617 85.0697 94.3988 85.0458 94.5244 84.9905C95.7664 84.6802 94.9635 79.4732 94.4882 77.2444C92.8522 69.5511 87.5782 64.4397 82.738 63.1043C81.9036 61.7082 81.5326 60.0837 81.6783 58.4637C81.7124 57.8031 81.8418 57.1508 82.0624 56.5272C82.498 56.273 82.8814 55.9385 83.1922 55.5412C85.6266 52.9005 85.4105 49.1607 82.0963 47.8682C81.0578 47.6052 80.1455 46.9839 79.5203 46.114C78.9539 45.2192 79.393 43.3738 78.6436 42.9173C78.2217 42.8592 77.792 42.927 77.4085 43.1122C77.025 43.2974 76.7047 43.5917 76.4879 43.9583C75.9886 44.8069 75.7825 45.7962 75.9013 46.7736C76.0202 47.751 76.4573 48.6621 77.1454 49.3664C76.4675 50.1911 74.0557 53.4616 75.6269 54.028Z" fill="#2B2E3F"/>
<path d="M77.3803 56.8044C77.6027 56.8657 77.8366 56.8728 78.0624 56.8253C78.2881 56.7777 78.4993 56.6768 78.6781 56.531C78.8691 56.3885 79.0142 56.1931 79.0953 55.969C79.1764 55.7449 79.1901 55.5019 79.1345 55.2701C79.1145 55.2084 79.0754 55.1547 79.0229 55.1165C78.9704 55.0784 78.9072 55.0579 78.8423 55.0579C78.7774 55.0579 78.7142 55.0784 78.6617 55.1165C78.6092 55.1547 78.5701 55.2084 78.55 55.2701C78.4831 55.5285 78.365 55.7708 78.2028 55.9827C78.1043 56.0798 77.9861 56.1546 77.8561 56.2019C77.7261 56.2492 77.5875 56.268 77.4496 56.2569C77.3837 56.26 77.3211 56.2863 77.2727 56.331C77.2244 56.3758 77.1933 56.4362 77.185 56.5015C77.1767 56.5669 77.1918 56.6332 77.2275 56.6886C77.2632 56.7439 77.3173 56.785 77.3803 56.8044Z" fill="#2B2E3F"/>
<path d="M78.568 52.438C78.6629 52.6564 79.0063 52.5841 79.0613 52.3838C79.1093 51.9788 79.0128 51.5698 78.7889 51.229C78.565 50.8881 78.2281 50.6372 77.8373 50.5203C77.527 50.4103 77.4171 50.8306 77.6362 50.9948C78.0801 51.3754 78.4038 51.8768 78.568 52.438Z" fill="#2B2E3F"/>
<path d="M77.1072 51.8357C76.986 52.1626 76.8436 52.6898 77.1826 52.7855C77.2412 52.8008 77.3032 52.7966 77.3593 52.7737C77.4154 52.7507 77.4625 52.7102 77.4936 52.6582C77.5992 52.4151 77.6612 52.1553 77.6767 51.8907C77.7098 51.5992 77.2353 51.4877 77.1072 51.8357Z" fill="#2B2E3F"/>
<path d="M75.4628 63.1073C75.227 62.354 75.4582 62.3269 76.3576 61.4268C76.3026 61.9014 76.3214 62.925 76.3214 62.9611C75.8894 63.0325 75.4984 63.2597 75.2223 63.5997C74.9463 63.9397 74.8044 64.369 74.8233 64.8065C74.8783 65.0988 75.8281 64.9157 75.9923 64.8615C77.8595 64.2386 77.8535 62.8745 76.7455 62.925C76.7478 62.2129 76.8212 61.5029 76.9647 60.8054C76.9792 60.7476 76.9743 60.6866 76.9507 60.6318C76.927 60.5771 76.886 60.5316 76.8339 60.5026C76.7819 60.4735 76.7217 60.4624 76.6626 60.471C76.6036 60.4796 76.5491 60.5074 76.5075 60.5501C75.2398 61.6867 74.162 62.2825 75.0462 63.3634C75.2067 63.5276 75.5178 63.3264 75.4628 63.1073Z" fill="#2B2E3F"/>
<path d="M94.6999 86.8391C94.7479 87.6516 94.8951 88.4553 95.1383 89.2321C95.2475 89.5432 95.7778 89.5243 95.7597 89.1409C95.6827 88.332 95.5108 87.5349 95.2475 86.766C95.1564 86.4738 94.666 86.5099 94.6999 86.8391Z" fill="#2B2E3F"/>
<path d="M93.7132 90.1455C93.7682 90.4558 94.2065 90.4197 94.2977 90.1455C94.4732 89.5934 94.4912 89.0277 94.4039 87.0777C94.4011 87.0108 94.3731 86.9475 94.3255 86.9005C94.2778 86.8534 94.2142 86.8262 94.1473 86.8243C94.0804 86.8224 94.0152 86.8459 93.965 86.8902C93.9148 86.9344 93.8832 86.996 93.8766 87.0626C93.6183 89.5738 93.6137 89.6469 93.7132 90.1455Z" fill="#2B2E3F"/>
<path d="M92.5992 90.5659C92.9734 89.4716 93.2186 88.3374 93.3299 87.1862C93.4052 86.784 92.8184 86.6198 92.7273 87.0212C92.3599 88.122 92.127 89.2631 92.0336 90.4198C92.0328 90.6939 92.4719 90.8589 92.5992 90.5659Z" fill="#2B2E3F"/>
<path d="M92.2694 84.7012C91.883 84.8398 91.6119 85.2496 91.3196 85.5418C90.9905 85.8521 90.6071 86.1082 90.2968 86.4366C90.0957 86.6558 90.2968 87.0761 90.6071 86.9639C91.066 86.7743 91.4822 86.4946 91.8311 86.1414C92.1595 85.831 92.5986 85.4635 92.6528 84.9905C92.6527 84.9439 92.6419 84.8981 92.6211 84.8565C92.6003 84.8148 92.5701 84.7786 92.533 84.7506C92.4959 84.7226 92.4527 84.7035 92.407 84.695C92.3613 84.6864 92.3142 84.6885 92.2694 84.7012Z" fill="#2B2E3F"/>
<path d="M58.6759 76.5537C59.7553 75.0382 60.6124 73.3563 62.567 72.8268C64.3936 72.3334 66.3489 72.7718 68.1408 72.0593C68.757 71.8486 69.2989 71.4639 69.7009 70.9516C70.1028 70.4393 70.3477 69.8215 70.4057 69.1729C70.4057 68.2043 69.7843 67.3456 70.2777 66.4139C70.805 65.391 72.05 65.263 72.9817 64.8065C73.2378 64.6785 73.1279 64.204 72.8356 64.2401C72.6345 64.2582 70.1135 64.7154 69.0906 65.0076C68.4127 65.1899 67.4095 65.3541 66.9899 66.0124C66.5877 66.615 66.9899 67.0534 67.3002 67.5648C68.122 68.9349 66.5696 70.1408 65.3268 70.2508C63.135 70.47 61.1434 69.081 58.9147 69.3371C57.2047 69.6164 55.6191 70.4062 54.366 71.6028C53.9819 72.5338 52.6668 75.6031 53.0682 76.0415C53.4486 76.4987 58.4906 76.809 58.6759 76.5537Z" fill="#2B2E3F"/>
<path d="M65.9625 19.96C66.0378 15.0076 66.3278 10.0582 66.2736 5.10734C66.2736 4.77818 65.7252 4.77818 65.7071 5.10734C65.433 10.0213 65.4149 14.9541 65.323 19.8704C65.323 20.2846 65.9565 20.3765 65.9625 19.96Z" fill="#FF6B6B"/>
<path d="M72.7038 23.0989C74.785 20.4627 76.9218 17.8558 78.8802 15.1337C79.0632 14.8776 78.661 14.5673 78.4599 14.8045C76.2861 17.3255 74.2766 19.9927 72.2308 22.6056C71.9551 22.9732 72.4297 23.4454 72.7038 23.0989Z" fill="#FF6B6B"/>
<path d="M79.9564 31.2462C81.5387 30.6045 83.1044 29.9224 84.6519 29.2005C84.9622 29.0499 84.743 28.506 84.4139 28.6341C82.8065 29.2736 81.2353 30.0223 79.6641 30.7348C79.2807 30.8817 79.5926 31.3954 79.9564 31.2462Z" fill="#FF6B6B"/>
<path d="M53.0832 19.9745C52.0076 18.6571 47.4928 13.2882 46.36 12.0092C46.1227 11.7532 45.6655 12.1192 45.8854 12.3926C46.9445 13.7627 51.5481 19.0797 52.6809 20.3948C52.919 20.7051 53.3212 20.266 53.0832 19.9745Z" fill="#FF6B6B"/>
<path d="M50.4157 33.1828C46.0546 30.6286 41.7537 27.9397 37.3534 25.4548C37.3222 25.4368 37.2878 25.4251 37.2521 25.4204C37.2163 25.4157 37.1801 25.4181 37.1453 25.4275C37.1105 25.4368 37.0778 25.4529 37.0493 25.4748C37.0207 25.4968 36.9967 25.5241 36.9787 25.5554C36.9607 25.5866 36.949 25.621 36.9443 25.6567C36.9397 25.6924 36.9421 25.7287 36.9514 25.7635C36.9607 25.7983 36.9768 25.831 36.9988 25.8595C37.0207 25.8881 37.0481 25.9121 37.0793 25.9301C41.3538 28.6153 45.7571 31.1371 50.1046 33.7123C50.1746 33.7497 50.2564 33.7586 50.3328 33.7371C50.4092 33.7156 50.4743 33.6654 50.5145 33.597C50.5547 33.5285 50.5669 33.4472 50.5485 33.37C50.53 33.2928 50.4825 33.2257 50.4157 33.1828Z" fill="#FF6B6B"/>
<path d="M48.022 41.13C46.0494 41.6234 44.0579 42.0618 42.1033 42.6643C42.0397 42.689 41.9875 42.7364 41.957 42.7973C41.9264 42.8582 41.9195 42.9284 41.9377 42.9941C41.9559 43.0598 41.9979 43.1164 42.0555 43.1529C42.1131 43.1894 42.1822 43.2032 42.2494 43.1916C44.2409 42.7894 46.1955 42.1868 48.1682 41.6746C48.2341 41.6499 48.2886 41.6016 48.3208 41.539C48.3531 41.4763 48.3608 41.4039 48.3426 41.3359C48.3243 41.2679 48.2813 41.2091 48.2221 41.171C48.1628 41.133 48.0915 41.1183 48.022 41.13Z" fill="#FF6B6B"/>
</svg>
