<svg width="151" height="151" viewBox="0 0 151 151" fill="none" xmlns="http://www.w3.org/2000/svg">
<path d="M84.9673 56.1725C84.7105 56.1725 84.1327 56.2787 84.0634 56.5589C83.9211 57.1615 85.1247 56.5589 85.7371 56.5589H86.2515C85.4654 57.4399 84.435 58.067 83.2914 58.3606C83.2577 58.413 83.2364 58.4723 83.229 58.5342C83.2216 58.596 83.2283 58.6587 83.2486 58.7175C83.2689 58.7764 83.3022 58.8299 83.3462 58.874C83.3901 58.9181 83.4435 58.9517 83.5023 58.9722C83.8074 58.9955 84.1134 58.9422 84.3926 58.8171C84.0167 60.0244 83.6469 61.2335 83.2831 62.4445C83.2078 62.3243 83.1237 62.2097 83.0315 62.1018V62.0935H83.0217C82.7528 61.7817 82.5517 61.854 82.5171 61.9647C82.1925 62.9914 81.8904 64.5859 82.4131 65.529C81.1738 67.6692 80.0484 69.8734 79.0417 72.1324C79.1705 72.39 79.4281 72.39 79.4281 72.2612C79.5035 72.1053 82.6881 65.9952 82.728 65.9176L82.7747 65.9545C82.8414 65.9499 82.9042 65.9213 82.9515 65.8739C82.9987 65.8266 83.0271 65.7637 83.0315 65.6969C82.8553 65.3452 82.6459 65.2073 82.6459 64.784C82.6035 64.0058 82.6934 63.2259 82.9118 62.4777C83.1547 63.0109 83.325 63.5743 83.4179 64.1528C83.5467 64.4104 83.9324 64.4104 83.9324 64.1528C83.9286 63.8297 83.8445 63.5126 83.6876 63.2301C83.9504 62.6936 84.1645 62.1345 84.3271 61.5595C85.5111 63.7905 84.318 66.3447 83.5467 68.9147C82.725 71.6541 82.3378 76.4566 80.7146 77.539C80.2202 77.9116 79.7046 78.2554 79.1705 78.5686C79.0417 78.6974 79.0417 78.8255 79.2993 78.8255C79.8094 78.7575 80.2964 78.5707 80.721 78.2802C81.1457 77.9896 81.4962 77.6034 81.7443 77.1526C83.2161 74.8734 83.0933 72.5075 83.9286 69.4299C84.7481 66.4268 86.0821 63.2573 84.4348 61.2055C84.7359 60.3247 84.9626 59.4202 85.1127 58.5015C85.4766 58.3298 85.8154 58.1094 86.1197 57.8462C86.4601 57.5393 86.7634 57.1937 87.0236 56.8165C87.1855 56.1454 85.6505 56.1725 84.9673 56.1725Z" fill="#2B2E3F"/>
<path d="M73.7705 61.1928C80.0471 57.8447 78.7229 58.2658 84.711 55.2717C85.4024 54.926 85.364 54.6285 85.0966 54.6285C84.8963 54.6285 85.2473 54.4869 82.1365 56.0445C79.2177 57.5656 76.3821 59.2411 73.6417 61.064C73.6413 61.081 73.6443 61.0979 73.6507 61.1137C73.657 61.1295 73.6665 61.1439 73.6785 61.1559C73.6905 61.168 73.7049 61.1775 73.7207 61.1838C73.7365 61.1901 73.7535 61.1932 73.7705 61.1928Z" fill="#2B2E3F"/>
<path d="M72.8692 66.4697C74.5707 66.8952 74.0111 66.9841 74.4133 66.9841C75.0565 66.5705 75.6229 66.048 76.0869 65.44C76.3502 64.6945 76.3536 63.8817 76.0965 63.134C75.8394 62.3863 75.337 61.7475 74.6709 61.3214C73.2661 60.5283 72.0964 61.5783 71.7107 61.8359H71.4531V62.0935C71.7311 63.4847 71.5367 63.4259 71.0667 63.8952C70.9387 64.024 70.6811 64.1528 71.1955 66.4697C71.7366 66.2762 72.3281 66.2762 72.8692 66.4697ZM73.6412 62.4776C74.1238 62.7735 74.4879 63.2285 74.6709 63.7641C74.7862 64.0506 74.8304 64.3607 74.7997 64.668C74.7997 65.1048 74.8381 65.2706 74.6709 65.44V65.5688C74.6709 65.6976 74.4133 65.5688 74.4133 65.44V64.668C74.4133 64.4104 74.2845 64.1528 74.2845 63.8952C74.1561 63.4012 73.8887 62.9544 73.5139 62.6079C73.3836 62.6079 73.5139 62.3511 73.6412 62.4799V62.4776Z" fill="#00C896"/>
<path d="M80.5943 75.6078V75.351C80.4655 74.4471 80.3367 73.1629 79.6905 72.7765C79.4508 72.6605 79.1828 72.6158 78.9184 72.6477C78.9097 72.7176 78.9168 72.7886 78.9391 72.8555C78.9614 72.9223 78.9983 72.9833 79.0472 73.0341C79.1916 73.9673 79.0099 74.9217 78.5328 75.7366C78.5328 75.8654 78.404 75.7366 78.404 75.7366C78.5748 74.8899 78.6182 74.0224 78.5328 73.1629C78.5328 72.5603 76.5563 68.3114 73.899 67.3707C72.33 67.0573 70.7361 66.8849 69.1364 66.8555C68.612 66.5902 68.0463 66.4163 67.4635 66.341L66.9483 64.4105H66.6915C66.5627 64.4105 62.3153 65.569 60.8992 68.6579C59.4832 71.7468 60.1272 73.6773 60.2575 73.8061V73.9349C60.729 73.9349 65.5051 74.9646 67.5946 74.9646C67.7234 75.6078 67.9802 77.7959 68.8811 78.4399C69.9115 79.3438 72.0988 79.0832 74.1588 77.0239C74.8021 77.6671 76.6038 79.4696 78.1509 79.4696C78.2207 79.4783 78.2916 79.4712 78.3583 79.449C78.4251 79.4267 78.486 79.3897 78.5365 79.3408C80.2057 78.8256 80.7201 77.0239 80.5943 75.6078ZM72.0212 73.8709C71.3986 72.6557 71.0716 71.3106 71.0669 69.9452C71.0172 69.5543 71.0614 69.1571 71.1957 68.7867C71.3027 68.6361 71.4533 68.6579 71.4533 68.9155C71.3492 69.336 71.3058 69.7692 71.3245 70.202C71.42 71.4445 71.6992 72.6659 72.153 73.8265C72.1771 73.9063 72.0589 73.9477 72.0212 73.8709Z" fill="#00C896"/>
<path d="M104.355 75.1106C102.952 75.5934 101.427 74.9599 100.027 74.7069C98.5084 74.343 96.9304 74.2992 95.3936 74.5781C95.2648 74.5781 95.136 74.4493 95.3936 74.3205C98.9148 73.04 102.337 75.1385 104.404 74.4493C104.479 74.3739 104.388 74.8018 104.822 70.8489C102.522 70.835 100.229 70.6185 97.9673 70.2019C95.9811 69.7084 93.9044 69.7084 91.9182 70.2019C91.0507 70.4311 90.2542 70.8736 89.6013 71.4891C89.6586 70.9152 91.3247 59.6019 90.8886 54.3708C90.8886 54.242 90.7628 54.242 90.7598 54.3708C90.5468 61.5423 89.7722 68.6861 88.4429 75.7365C88.4429 75.8653 88.4429 75.9941 88.7005 76.1229C90.1165 76.3805 91.5326 76.5086 92.9479 76.6374C95.5489 77.0169 98.1713 77.232 100.799 77.2813C101.025 77.2866 103.776 77.4192 104.093 77.4892L104.355 75.1106ZM90.5022 72.0073C91.3225 71.3934 92.2584 70.9515 93.2538 70.7082C94.2491 70.4648 95.2833 70.4251 96.2944 70.5913C97.324 70.7201 98.3537 71.1057 99.3826 71.2345C99.8978 71.3633 100.412 71.3633 101.056 71.4921H102.6C102.729 71.4921 102.729 71.6209 102.6 71.7497C101.136 72.7289 97.6291 71.4989 96.68 71.3633C95.6162 71.17 94.5262 71.17 93.4623 71.3633C92.48 71.5279 91.5263 71.8323 90.6302 72.2672C90.5022 72.39 90.3741 72.1324 90.5022 72.0073ZM94.2351 72.9112C92.9152 73.049 91.618 73.3527 90.3741 73.8151C90.1165 73.9438 89.9877 73.6863 90.2453 73.6863C90.9406 73.3082 91.674 73.0052 92.4334 72.7824C93.1824 72.5517 93.9682 72.4643 94.7496 72.5248C94.9333 72.576 94.9431 72.9052 94.2351 72.9052V72.9112Z" fill="#00C896"/>
<path d="M112.512 97.7463C110.928 96.9147 109.561 95.7246 108.52 94.271C108.391 94.1422 108.262 94.271 108.262 94.3998C109.142 96.2221 110.586 97.7117 112.381 98.6472C112.573 98.764 112.801 98.8096 113.024 98.776C113.284 98.776 113.541 98.3896 112.512 97.7463Z" fill="#00C896"/>
<path d="M109.552 90.281C109.937 90.1522 103.889 89.515 102.987 89.637C99.0007 90.1793 99.3833 94.3996 99.5121 94.9141C99.6409 96.8453 105.433 98.0022 106.592 98.1318C106.85 98.1318 107.236 97.875 106.979 97.6174C106.62 96.9739 106.411 96.2582 106.366 95.523C106.322 94.7878 106.443 94.052 106.721 93.37C107.235 91.9539 108.136 90.6667 109.552 90.281Z" fill="#00C896"/>
<path d="M77.2455 101.093C77.0525 100.976 76.8246 100.93 76.6015 100.964C76.1622 100.988 75.7287 101.074 75.3142 101.222C75.443 101.222 75.443 100.063 75.443 99.9345C75.443 99.4193 75.5718 99.0307 75.5718 98.5185C75.5718 98.1321 75.7006 97.6146 75.5718 97.36C75.443 96.7168 74.5422 96.4562 74.5422 96.9744C74.4134 98.3897 71.7108 97.8782 71.3244 97.7464C71.0668 97.6176 70.6812 96.588 70.5524 96.588C69.0075 96.3304 69.2651 98.6473 69.2651 99.5481C69.2869 100.753 69.3729 101.956 69.5227 103.152C69.5028 103.375 69.5475 103.598 69.6515 103.796C70.0372 104.699 71.451 104.172 72.0965 104.053C73.6348 103.8 75.1164 103.277 76.4727 102.508C77.1167 102.379 78.0175 101.479 77.2455 101.093Z" fill="#00C896"/>
<path d="M65.0181 107.914C64.6317 107.4 63.7309 107.657 63.2164 107.785C63.3452 107.785 63.3452 106.628 63.3452 106.499C63.3452 105.896 63.8205 104.226 62.9588 103.795C62.83 103.667 62.4436 103.924 62.7012 104.053C62.83 104.182 62.4436 105.212 62.3156 105.34C62.1868 105.597 58.4538 105.083 58.3235 104.954C58.1932 104.825 58.3235 104.311 58.1947 104.05C57.9379 103.535 57.5515 104.308 57.4227 104.565C56.7597 106.464 56.4969 108.48 56.6506 110.486C56.7538 111.646 57.6803 111.644 58.7099 111.515L60.6404 111.129C61.9659 110.748 63.196 110.091 64.2498 109.201C64.6317 109.201 65.5303 108.429 65.0181 107.914Z" fill="#00C896"/>
<path d="M77.7602 79.984C77.3302 80.3373 76.8006 81.962 76.6018 82.5585C76.3525 83.308 76.128 84.2773 76.8594 83.9745C76.9767 83.9129 77.0747 83.8203 77.1429 83.7067C77.211 83.5931 77.2466 83.463 77.2458 83.3306C77.2646 83.137 77.9659 80.86 78.0178 80.7568C78.0813 80.6379 78.1145 80.5052 78.1145 80.3704C78.1145 80.2356 78.0813 80.1029 78.0178 79.984C77.9829 79.9515 77.9368 79.9333 77.889 79.9333C77.8412 79.9333 77.7952 79.9515 77.7602 79.984Z" fill="#2B2E3F"/>
<path d="M98.096 30.6883C97.8121 29.1359 95.8228 29.3325 95.2647 30.1738C95.094 30.4262 95.0138 30.729 95.0372 31.0328C95.0606 31.3366 95.1862 31.6235 95.3935 31.8467C95.6452 32.0892 95.9545 32.2637 96.2922 32.3538C96.6299 32.444 96.9849 32.4467 97.324 32.3619C97.9672 32.3619 98.2376 31.4581 98.096 30.6883ZM97.5816 31.3323C97.5492 31.5257 97.4594 31.7049 97.324 31.8467C96.9338 32.2369 95.1728 32.0855 95.5223 30.6883C95.5836 30.4868 95.7012 30.307 95.8614 30.1702C96.0216 30.0333 96.2175 29.9452 96.4262 29.9162C96.7567 29.9748 97.0552 30.1501 97.2673 30.4103C97.4794 30.6705 97.5909 30.9982 97.5816 31.3338V31.3323Z" fill="#2B2E3F"/>
<path d="M76.0868 95.3006C81.22 95.7676 87.9553 96.2135 93.3355 96.3302C95.0051 96.4632 96.6807 96.5062 98.3549 96.459C98.6125 96.459 98.7413 95.9438 98.4837 95.9438C97.0353 95.7304 95.571 95.6444 94.1075 95.687C90.0017 95.687 86.772 95.1718 80.979 95.1718C79.3061 95.1718 77.7612 95.043 76.0883 95.043C75.958 95.043 75.958 95.3006 76.0868 95.3006Z" fill="#2B2E3F"/>
<path d="M84.8396 99.9346C83.4137 100.133 81.8787 100.32 80.3346 100.449C80.2058 100.449 80.2058 100.578 80.3346 100.578H82.6515C83.2947 100.578 83.938 100.449 84.582 100.449C84.3078 101.272 81.6874 105.278 82.0075 105.597C82.4775 105.911 84.9111 100.884 85.1476 100.198C85.2071 100.027 85.0994 99.8984 84.8396 99.9346Z" fill="#2B2E3F"/>
<path d="M80.3341 102.895C81.286 102.527 82.1928 102.052 83.0367 101.479C83.0844 101.443 83.1166 101.391 83.1268 101.332C83.1369 101.274 83.1242 101.213 83.0913 101.164C83.0583 101.114 83.0077 101.08 82.9497 101.066C82.8918 101.053 82.8309 101.063 82.7798 101.093C81.9513 101.507 81.1597 102.238 80.0765 102.508L80.3341 102.895Z" fill="#2B2E3F"/>
<path d="M76.2181 109.619C75.1131 109.358 71.3222 109.687 68.1918 109.224C67.9161 109.183 67.7828 108.331 67.7211 108.043C67.4334 106.682 67.2185 105.308 67.0771 103.924C67.8315 104.199 68.6061 104.414 69.394 104.568C69.5228 104.568 69.6516 104.44 69.5228 104.311C68.7735 103.954 67.9991 103.651 67.2059 103.407C67.3799 103.407 68.6219 103.082 68.6219 102.763C68.6219 102.634 68.6219 102.505 68.4931 102.505C67.8846 102.618 67.2977 102.826 66.7539 103.121C66.595 103.21 66.5626 103.278 66.5626 103.407C66.5894 104.879 66.7617 106.344 67.0771 107.782L67.4635 109.327C67.7407 109.882 75.7722 109.949 76.2279 109.799C76.3364 109.765 76.3431 109.649 76.2181 109.619Z" fill="#2B2E3F"/>
<path d="M81.7502 106.37C81.6505 106.371 81.5526 106.396 81.4634 106.44C81.3743 106.485 81.2962 106.549 81.235 106.627C80.8486 106.884 80.4629 107.27 80.0765 107.531C79.4198 108.006 78.7319 108.436 78.0173 108.818C79.6058 104.425 80.1157 103.956 79.9477 103.284C79.9477 103.155 79.8189 103.026 79.5621 103.155C78.6582 103.413 77.6309 103.669 76.73 103.927C75.8012 104.203 74.8554 104.418 73.8987 104.57C73.7699 104.57 73.7699 104.828 73.8987 104.828C77.1209 104.425 77.6226 104.401 79.4333 103.798C79.4333 104.52 78.0873 107.519 77.502 108.69C77.3839 108.75 77.2851 108.842 77.2169 108.956C77.1488 109.07 77.1139 109.2 77.1164 109.333C77.1164 109.462 77.2452 109.59 77.502 109.59C78.9594 108.825 80.339 107.919 81.6214 106.887C81.8782 106.627 81.8782 106.37 81.7502 106.37Z" fill="#2B2E3F"/>
<path d="M62.9585 80.1129C63.1835 80.8303 63.4866 81.5209 63.8623 82.1722C64.2555 82.8501 64.5018 82.3432 64.3775 82.0434C64.1148 81.2551 63.7234 80.5157 63.2191 79.8553C63.0858 79.7431 62.8997 79.9329 62.9585 80.1129Z" fill="#2B2E3F"/>
<path d="M63.2162 81.7865C63.2162 81.4724 62.8155 81.4573 62.5729 82.0433C62.475 82.2791 62.6874 82.3506 62.7921 82.2655C63.0595 82.0501 63.2162 81.904 63.2162 81.7865Z" fill="#2B2E3F"/>
<path d="M64.2494 80.7567C64.3782 80.7567 64.507 80.6279 64.635 80.4991C64.7631 80.3703 65.0613 80.2174 64.8926 79.9839C64.7864 79.8332 64.635 79.8551 64.507 79.9839C64.3642 80.0979 64.2346 80.2275 64.1206 80.3703C64.0814 80.4365 63.9737 80.7567 64.2494 80.7567Z" fill="#2B2E3F"/>
<path d="M64.8157 81.4226C65.5207 81.533 66.2355 81.5686 66.948 81.5288C67.2056 81.5288 67.4632 81.6576 67.7208 81.6576C67.7673 81.6608 67.8136 81.6485 67.8523 81.6225C67.891 81.5965 67.92 81.5583 67.9347 81.5141C67.9493 81.4698 67.9489 81.4219 67.9333 81.378C67.9178 81.334 67.8881 81.2965 67.8489 81.2712C67.3773 81.0155 66.8338 80.9248 66.3048 81.0136H64.8887C64.6311 81.0136 64.5611 81.3835 64.8157 81.4226Z" fill="#2B2E3F"/>
<path d="M60.3838 80.8848C60.4833 80.9262 62.4296 81.4715 62.8295 81.2712C62.8595 81.2486 62.8838 81.2195 62.9005 81.1859C62.9172 81.1524 62.9259 81.1154 62.9259 81.078C62.9259 81.0405 62.9172 81.0035 62.9005 80.97C62.8838 80.9365 62.8595 80.9073 62.8295 80.8848C62.0546 80.6317 61.2367 80.5371 60.4245 80.6068C60.4245 80.6068 60.2656 80.8358 60.3838 80.8848Z" fill="#2B2E3F"/>
<path d="M82.7784 59.1334C81.5814 59.7996 80.4213 60.53 79.3031 61.3215C78.2587 62.1108 77.2697 62.9707 76.343 63.8953C76.3474 63.962 76.3758 64.0249 76.423 64.0723C76.4703 64.1196 76.5331 64.1483 76.5998 64.1529C76.694 64.1529 79.2745 61.9218 79.5607 61.7072C80.5903 60.9351 81.7488 60.1631 82.7784 59.3903C83.0368 59.2622 82.908 59.1334 82.7784 59.1334Z" fill="#2B2E3F"/>
<path d="M118.947 90.7955C118.681 90.7428 114.273 90.193 113.928 90.1523C111.868 89.8947 109.806 89.784 107.751 89.5083C106.9 89.3631 106.04 89.2773 105.178 89.2514C104.232 89.2247 103.285 89.2678 102.346 89.3802C99.3259 89.8472 98.1969 94.4983 99.7718 96.0726C100.125 96.4137 100.513 96.7166 100.93 96.9764C98.9619 97.3455 97.1854 98.3933 95.9101 99.9373C94.7373 101.284 93.6248 103.262 91.0195 104.442C89.3865 105.202 87.6526 105.722 85.8712 105.986C85.6136 105.986 85.4848 105.858 85.2272 105.858C85.0984 105.858 84.9704 106.115 85.0984 106.115C86.7721 106.758 88.5738 107.145 90.3755 107.66C92.1772 108.175 93.9796 108.69 95.9101 109.075C96.8748 109.338 97.871 109.468 98.871 109.462C108.935 109.462 108.502 104.06 112.514 101.142C114.444 99.984 116.612 100.492 118.68 100.013C119.596 99.7458 120.449 99.2974 121.189 98.694C121.928 98.0906 122.539 97.3446 122.984 96.5004C124.107 94.3778 122.038 90.7955 118.947 90.7955ZM100.027 95.3005C99.4766 93.7662 100.129 90.9831 102.086 90.2811C103.683 89.8691 105.346 89.7815 106.977 90.0235C111.67 90.7195 117.989 91.1819 116.888 91.1819C113.736 92.6364 113.013 96.871 115.086 98.6471C112.495 98.4475 104.984 97.9036 102.215 96.7166C102.136 96.6781 100.27 95.9784 100.027 95.3005ZM121.907 97.1022C121.419 97.8049 120.789 98.3972 120.057 98.8407C119.325 99.2842 118.509 99.5691 117.66 99.6767C115.732 99.9531 113.676 99.6857 111.997 100.706C109.526 102.208 108.127 106.129 105.69 107.657C104.073 108.583 102.249 109.089 100.386 109.129C99.0145 109.205 97.6384 109.1 96.2942 108.815C94.5385 108.56 92.7074 107.805 88.1859 106.755C87.6684 106.636 87.0274 106.499 86.5122 106.37C89.3696 106.173 92.0832 105.042 94.2349 103.152C95.0416 102.371 96.5548 100.146 98.3535 98.9047C99.468 98.1648 100.753 97.7217 102.086 97.6174C105.03 98.7947 112.308 99.4191 115.729 99.4191C115.964 99.5619 116.228 99.65 116.502 99.6767C118.144 99.911 120.106 98.4362 120.106 95.9438C120.083 95.4205 119.996 94.902 119.848 94.3997C119.831 94.3501 119.801 94.3057 119.762 94.2703C119.723 94.2349 119.676 94.2097 119.625 94.197C119.574 94.1842 119.521 94.1843 119.47 94.1972C119.419 94.2101 119.372 94.2354 119.334 94.2709C119.187 94.2709 116.434 94.3605 115.97 93.9236C115.861 93.8212 115.705 94.0607 115.842 94.1812C116.082 94.3936 116.73 94.8034 119.205 94.7838C119.841 97.0088 118.58 98.7005 117.146 98.9024C115.472 99.288 114.571 97.4863 114.571 95.9415C114.627 95.1127 114.909 94.315 115.385 93.6345C115.861 92.954 116.515 92.4167 117.274 92.0805C118.009 91.7661 118.822 91.6842 119.604 91.8458C120.386 92.0074 121.1 92.4047 121.65 92.9844C122.679 93.8845 122.808 95.6869 121.907 97.1022Z" fill="#2B2E3F"/>
<path d="M72.0973 61.4505C72.2081 61.2775 72.2669 61.0763 72.2669 60.8709C72.2669 60.6654 72.2081 60.4643 72.0973 60.2913C71.7337 59.7736 71.2936 59.3141 70.7919 58.9287C71.1738 57.7537 71.1113 55.8714 70.81 56.1727C70.5524 56.3015 70.5524 56.6879 70.166 56.9455C69.394 57.4599 68.3643 57.3311 67.5923 57.8494C67.3347 57.9782 67.2059 58.3638 66.9483 59.0078C66.8195 59.5223 66.6914 58.3638 66.6914 58.3638C66.1536 58.3859 65.6455 58.6169 65.2754 59.0078C65.0487 59.368 64.8975 59.7706 64.8311 60.191C64.7647 60.6114 64.7844 61.0409 64.889 61.4535C65.1795 62.2065 65.5236 62.9378 65.9186 63.6416C66.3398 64.5052 66.6656 65.4122 66.8903 66.3464C67.1015 66.3473 67.3105 66.3904 67.5049 66.4729C67.4643 66.1168 67.3784 65.7672 67.2496 65.4327C68.408 65.1759 69.7804 64.0272 69.7804 62.74C69.7804 62.6112 69.7804 62.4831 69.5228 62.4831C69.2652 62.4831 69.0076 62.6112 68.7507 62.3543C68.4931 61.8391 69.0987 61.4083 69.394 61.1959C69.8956 60.6762 70.3033 60.0735 70.5991 59.4145C70.835 59.8272 71.1209 60.2092 71.4503 60.5519C71.5791 60.6807 71.7079 60.8095 71.5791 60.9383C71.4118 61.1055 71.0217 61.2946 71.3215 61.7103C71.4857 61.9363 71.4503 61.925 71.4503 63.1264C71.4503 63.2921 70.9983 63.7071 70.9983 63.7071C70.9087 63.8043 70.9343 63.8435 70.9343 64.5424C70.9979 65.2395 71.1273 65.929 71.3207 66.6017H71.8359C71.7508 66.3479 71.4412 64.2668 71.3207 64.0272C71.7259 63.8246 72.2246 63.689 72.2246 62.8688C72.2643 62.424 72.1751 61.9771 71.9677 61.5815L72.0973 61.4505ZM66.8195 63.1234C66.3318 62.7755 65.9704 62.2785 65.7898 61.7073C65.6354 61.4322 65.5542 61.122 65.5542 60.8065C65.5542 60.491 65.6354 60.1808 65.7898 59.9056C65.9186 59.7768 66.0474 59.7768 66.0474 60.0344C65.7996 61.0272 66.9513 62.0237 66.9513 62.9946C66.9517 63.0119 66.9486 63.0291 66.9421 63.0451C66.9356 63.0611 66.9258 63.0756 66.9135 63.0877C66.9011 63.0998 66.8864 63.1092 66.8702 63.1153C66.854 63.1215 66.8368 63.1242 66.8195 63.1234Z" fill="#2B2E3F"/>
<path d="M90.7628 53.7275C97.4401 54.4303 102.917 54.6314 105.951 54.6314C106 54.6283 106.046 54.6066 106.08 54.5707C106.113 54.5348 106.132 54.4874 106.132 54.4382C106.132 54.3889 106.113 54.3416 106.08 54.3057C106.046 54.2698 106 54.2481 105.951 54.245C102.57 54.245 99.6161 54.0446 90.7628 53.6018C90.631 53.4699 90.631 53.7275 90.7628 53.7275Z" fill="#00C896"/>
<path d="M128.601 43.0448C128.596 42.9779 128.567 42.915 128.52 42.8677C128.473 42.8203 128.41 42.7917 128.343 42.7872C123.452 42.7872 118.563 42.7224 113.799 42.6584C112.512 42.641 111.225 42.5296 109.807 42.4008C109.74 42.4055 109.678 42.4342 109.631 42.4815C109.583 42.5289 109.555 42.5917 109.55 42.6584V45.7465C109.555 45.8132 109.583 45.876 109.631 45.9234C109.678 45.9707 109.74 45.9994 109.807 46.0041C114.57 46.3905 119.46 46.5834 124.352 46.5186C125.639 46.502 126.926 46.3905 128.344 46.2617C128.987 46.3913 128.601 43.5592 128.601 43.0448ZM113.799 45.8761C112.509 45.7767 111.225 45.7473 110.066 45.6185V42.916C115.683 43.3679 121.534 43.3016 128.085 43.3016C128.055 44.2475 128.098 45.1945 128.214 46.1337C123.408 46.2953 118.597 46.2093 113.799 45.8761Z" fill="#2B2E3F"/>
<path d="M99.3832 59.0047C98.9217 58.4823 98.2762 58.1584 97.5815 58.1009C95.7791 57.9721 93.8682 60.0246 94.4933 61.833C94.7155 62.3413 95.1044 62.7586 95.5957 63.016C96.0871 63.2735 96.6515 63.3557 97.1959 63.2491C99.2544 62.9945 100.931 60.8064 99.3832 59.0047Z" fill="#00C896"/>
<path d="M61.2858 49.2227C61.7935 49.3921 62.0805 49.3515 66.9485 49.3515C67.2061 49.3515 67.3349 48.9651 66.9485 48.8363C65.0652 48.6793 63.1742 48.6363 61.2858 48.7075C61.157 48.9651 61.157 49.2227 61.2858 49.2227Z" fill="#00C896"/>
<path d="M61.1565 51.5396C61.5625 51.7092 62.0096 51.7548 62.4415 51.6707H66.6897C66.8177 51.6707 66.8177 51.4131 66.6897 51.2843C66.057 51.1261 65.9244 51.1555 62.4415 51.1555C62.0094 51.0699 61.5616 51.1147 61.155 51.2843L61.1565 51.5396Z" fill="#00C896"/>
<path d="M61.0278 53.3411C61.9316 53.4699 62.9583 53.3411 63.9879 53.4699H65.5297C65.9993 53.5346 66.4755 53.5346 66.945 53.4699C67.0738 53.4699 67.0738 53.2123 66.945 53.0835C66.4984 52.9328 66.0555 52.9547 63.9849 52.9547C62.9965 52.936 62.0078 52.979 61.0248 53.0835C60.899 53.2123 60.899 53.3411 61.0278 53.3411Z" fill="#00C896"/>
<path d="M124.996 54.3707C124.534 56.2214 123.132 68.9749 122.937 69.5586C122.937 69.8162 122.808 70.2018 122.937 70.4625C122.937 70.5913 123.194 70.7201 123.323 70.4625C123.427 70.2649 123.472 70.0416 123.452 69.8192C123.452 69.5616 123.581 69.1752 123.581 68.9153C123.687 68.4077 123.731 67.8888 123.71 67.3705C123.948 65.4649 125.125 56.1792 125.125 54.2419C125.125 54.3707 124.996 54.2419 124.996 54.3707Z" fill="#2B2E3F"/>
<path d="M119.59 83.2017C120.531 83.3021 121.477 83.3451 122.423 83.3305C122.551 83.2017 122.542 82.9938 122.423 82.9448C121.487 82.8588 120.545 82.879 119.615 83.0051C119.437 83.0563 119.489 83.1685 119.59 83.2017Z" fill="#2B2E3F"/>
<path d="M100.413 59.1333C101.015 59.0128 104.046 58.3327 104.405 57.9749V57.8468C104.081 57.6841 100.823 58.7138 100.413 58.8765C100.155 59.0045 100.284 59.1333 100.413 59.1333Z" fill="#00C896"/>
<path d="M107.108 57.4597C108.296 57.168 109.458 56.7805 110.583 56.3013C110.712 56.1725 110.583 56.0444 110.454 56.0444C109.319 56.3694 108.201 56.7559 107.108 57.2021C106.849 57.3309 106.977 57.4597 107.108 57.4597Z" fill="#2B2E3F"/>
<path d="M100.799 61.9647C101.64 62.1744 102.507 62.2611 103.373 62.2224C103.502 62.2224 103.502 61.9648 103.373 61.836C103.298 61.7983 100.875 61.7072 100.799 61.7072V61.9647Z" fill="#00C896"/>
<path d="M106.591 62.6082C106.712 62.6308 114.073 63.8954 114.575 63.8954C114.704 63.8954 114.704 63.6378 114.575 63.5098C113.903 63.1738 107.233 62.4146 106.595 62.3513C106.463 62.3513 106.463 62.4801 106.591 62.6082Z" fill="#2B2E3F"/>
<path d="M98.5322 64.3832C99.0911 65.0212 103.142 68.6577 103.631 68.6577C103.666 68.6596 103.7 68.6518 103.731 68.635C103.761 68.6183 103.786 68.5933 103.803 68.5629C103.82 68.5326 103.829 68.498 103.827 68.4632C103.825 68.4285 103.814 68.3948 103.794 68.3662C103.486 67.9391 102.899 67.8676 98.655 64.2491C98.6369 64.2348 98.6141 64.2279 98.5912 64.2298C98.5682 64.2316 98.5469 64.2421 98.5313 64.2591C98.5158 64.2761 98.5072 64.2983 98.5074 64.3213C98.5076 64.3443 98.5164 64.3664 98.5322 64.3832Z" fill="#00C896"/>
<path d="M95.3136 64.8375C95.2428 65.5071 94.9769 67.8248 95.2647 68.4002C95.2647 68.529 95.5223 68.529 95.5223 68.4002C95.7392 67.9664 95.6104 67.647 95.6511 64.9249C95.6533 64.7298 95.3324 64.6568 95.3136 64.8375Z" fill="#00C896"/>
<path d="M134.6 34.7186C129.838 34.5898 70.5013 33.9465 67.7995 33.9465C64.9682 33.9465 62.1368 33.9465 59.4335 34.2041C59.2829 34.2207 59.1767 34.238 59.1767 34.3329C58.6993 36.9304 58.3561 39.5508 58.1485 42.1837C54.1136 79.8445 52.7502 85.0078 53.5599 85.2255C54.3998 85.4515 57.8427 85.8755 58.4061 85.688C58.7571 85.337 58.2555 85.1728 57.7629 85.1728C56.5578 85.1728 55.7646 85.0447 53.8688 85.0447C53.8393 85.0447 53.8103 85.0385 53.7834 85.0264C53.7566 85.0144 53.7326 84.9968 53.713 84.9748C53.6935 84.9528 53.6788 84.9269 53.6699 84.8989C53.6611 84.8708 53.6582 84.8412 53.6616 84.812C53.7701 83.8584 54.3501 80.8199 54.674 76.9356C55.0596 73.3315 58.0205 46.9463 58.4061 43.3422C58.4144 43.254 59.1594 35.685 59.5073 34.4708C62.5051 34.6109 62.5029 34.3819 80.6592 34.4708C80.2645 39.9647 79.9722 39.5776 79.1753 47.5474C79.0465 48.3202 79.0465 49.221 78.9177 49.9931C78.9177 50.1219 79.0465 50.1219 79.1753 49.9931C79.6401 47.8245 80.6546 38.163 81.099 34.4768C81.8372 34.4813 82.5748 34.4871 83.312 34.4941C83.34 34.527 83.3797 34.5475 83.4227 34.5514C84.7617 34.6513 86.0943 34.8233 87.4148 35.0666C88.7842 35.4111 90.0885 35.9761 91.2765 36.7395C92.9984 37.7184 94.4684 39.0853 95.5698 40.7315H83.9379C83.8099 40.8603 83.8099 41.1172 83.9379 41.1172C85.8692 41.246 87.93 41.3748 89.8589 41.3748C90.8886 41.3748 95.3017 41.4245 95.893 41.2286C96.2537 41.8071 96.8397 42.9264 96.8804 43.0077C95.8259 43.022 97.3655 43.0484 90.6287 43.0484C90.8863 42.662 91.1439 42.4044 91.4015 42.0188C91.4249 41.9965 91.4404 41.9674 91.446 41.9356C91.4515 41.9039 91.4467 41.8712 91.4323 41.8424C91.4179 41.8135 91.3946 41.7901 91.3659 41.7755C91.3372 41.7609 91.3045 41.7558 91.2727 41.7612C90.6879 42.0469 90.1967 42.4934 89.8567 43.0484H85.3517C85.0941 43.0484 83.8076 43.1764 83.9356 42.7908C83.9146 42.3577 83.958 41.9239 84.0645 41.5036C84.0535 41.465 84.0333 41.4298 84.0056 41.4008C83.9779 41.3719 83.9436 41.3501 83.9056 41.3374C83.8676 41.3247 83.8271 41.3215 83.7876 41.328C83.7481 41.3345 83.7107 41.3506 83.6788 41.3748C83.4682 41.9062 83.3801 42.4782 83.4212 43.0484C83.4212 43.6916 85.8774 43.5892 86.3919 43.5892C86.6404 43.5892 89.2699 43.6841 89.459 43.4604C88.3073 46.1562 87.5368 49.1095 86.5101 51.9288C86.071 53.6868 85.6063 54.4589 85.6063 55.4042C85.6063 55.6618 85.9128 55.7808 86.0416 55.5269C86.7022 54.2065 87.5782 51.2178 88.1808 49.6127C88.7167 47.4993 89.3903 45.4233 90.1971 43.3979C91.6893 43.3979 96.6078 43.4988 97.0514 43.3776C97.1953 43.6962 97.3226 44.0155 97.4506 44.3349C97.7082 44.9789 97.837 45.7509 98.0939 46.3942C98.0939 46.523 98.2227 46.523 98.3515 46.3942C99.9415 46.3942 101.685 46.3 103.371 47.4246C104.483 48.1233 105.34 49.1611 105.817 50.3847C105.904 52.4018 105.861 54.4223 105.688 56.4338C104.784 71.8167 104.778 71.5893 102.707 86.7342C96.7328 86.625 85.1175 86.1655 77.2433 86.1655C77.1145 86.1655 77.1145 86.4231 77.2433 86.4231C89.1389 87.0844 129.941 87.7104 127.955 87.7104C128.022 87.7058 128.085 87.6771 128.132 87.6298C128.179 87.5824 128.208 87.5195 128.212 87.4528C128.727 85.0078 129.116 82.4333 129.499 79.9876C129.748 78.1257 134.776 35.5072 134.776 35.1908C134.827 35.1597 134.865 35.1119 134.885 35.0556C134.904 34.9993 134.903 34.938 134.882 34.8822C134.862 34.8264 134.822 34.7796 134.771 34.7498C134.719 34.7199 134.659 34.7089 134.6 34.7186ZM103.76 47.0344C102.986 46.5356 102.12 46.1984 101.213 46.0431C100.307 45.8878 99.3776 45.9175 98.4825 46.1306C98.4825 44.994 97.202 41.4094 95.136 39.0503C93.2409 36.9291 90.7692 35.4056 88.0226 34.6659C94.4567 35.8907 100.153 39.591 103.888 44.9714C104.446 45.8632 105.561 47.9692 105.561 48.8323C105.089 48.1165 104.476 47.5047 103.76 47.0344ZM105.174 71.3528C106.87 71.1975 108.55 70.8987 110.195 70.4594C111.892 69.8802 113.681 69.6185 115.472 69.6874C115.343 70.5913 115.086 71.3603 114.958 72.2611C114.829 73.0339 114.571 73.806 114.442 74.7068C114.314 75.4796 114.057 76.1229 113.928 76.8949C111.839 76.8949 113.269 77.0237 104.517 77.0237C104.672 75.7591 105.018 72.9059 105.174 71.3528ZM133.495 42.4006C133.294 44.4049 129 83.008 127.854 87.1921C120.82 87.1921 120.415 87.0633 117.278 87.0633C111.911 87.0633 107.578 86.8246 103.107 86.7379C103.638 83.7831 104.07 80.6429 104.456 77.5389C114.413 77.5389 114.317 77.4598 114.317 77.2813C114.549 76.6114 114.721 75.9223 114.832 75.222C116.15 70.0736 117.011 64.8188 117.406 59.519C117.534 57.8461 117.534 56.3012 117.534 54.6283C117.534 54.2419 117.278 54.2419 117.278 54.3707C116.974 59.2873 116.415 64.1848 115.604 69.0434C112.089 68.7926 109.841 70.4082 105.231 70.8112C105.465 68.3685 106.232 54.7052 106.236 54.6283C107.814 54.6283 109.392 54.6351 110.97 54.7571C112.645 54.8214 114.321 54.7784 115.99 54.6283C116.039 54.6253 116.086 54.6036 116.119 54.5677C116.153 54.5318 116.172 54.4844 116.172 54.4351C116.172 54.3859 116.153 54.3385 116.119 54.3026C116.086 54.2667 116.039 54.245 115.99 54.2419C115.868 54.2216 113.279 54.2419 106.254 54.2419C106.303 53.1475 106.337 52.0697 106.337 51.0242C106.365 49.9938 106.412 48.8595 104.921 45.876C102.666 41.3657 96.3584 36.1248 89.2413 34.5928C99.0836 34.7208 129.173 35.23 134.378 35.233C134.123 37.623 133.869 40.0114 133.492 42.4006H133.495Z" fill="#2B2E3F"/>
<path d="M92.4335 105.601C93.7507 106.322 95.1289 106.925 96.5521 107.403C97.1991 107.651 97.9674 107.789 98.6114 108.047C99.2819 108.249 99.9724 108.379 100.671 108.433C100.697 108.435 100.724 108.431 100.748 108.422C100.773 108.413 100.796 108.399 100.815 108.381C100.835 108.363 100.85 108.341 100.86 108.317C100.871 108.292 100.876 108.266 100.876 108.24C100.876 108.213 100.871 108.187 100.86 108.163C100.85 108.139 100.835 108.117 100.815 108.099C100.796 108.081 100.773 108.067 100.748 108.058C100.724 108.049 100.697 108.045 100.671 108.047C100.336 107.897 99.992 107.768 99.641 107.661C97.1953 107.146 94.8785 106.245 92.4335 105.473C92.3047 105.34 92.3047 105.469 92.4335 105.601Z" fill="#00C896"/>
<path d="M94.8782 103.666C97.0528 104.736 99.3412 105.556 101.7 106.112C102.43 106.427 103.225 106.56 104.017 106.499C104.531 106.37 103.888 105.983 103.631 105.983C102.215 105.597 100.67 105.211 99.2544 104.696C97.8391 104.31 96.423 103.792 95.007 103.41C94.7494 103.281 94.7494 103.538 94.8782 103.666Z" fill="#00C896"/>
<path d="M103.115 100.705C104.414 101.262 105.178 101.383 108.392 102.378C108.781 102.498 108.907 101.863 108.521 101.735C106.774 101.125 104.958 100.736 103.115 100.576C102.987 100.449 102.987 100.705 103.115 100.705Z" fill="#00C896"/>
<path d="M112.125 44.46C117.361 44.7507 118.162 45.104 124.739 45.104C124.996 45.104 126.026 45.104 126.284 44.8464C126.67 44.3312 124.482 44.4562 124.224 44.46C120.232 44.5248 116.117 44.1384 112.125 44.2032C111.997 44.2047 111.997 44.46 112.125 44.46Z" fill="#2B2E3F"/>
<path d="M76.9878 41.8861H61.2855C61.2188 41.8907 61.156 41.9192 61.1087 41.9664C61.0614 42.0136 61.0327 42.0763 61.0279 42.143C60.8991 43.0468 60.8991 43.9454 60.7703 44.8462C60.7703 45.1038 61.0279 45.1038 61.1567 44.975C66.305 45.1038 71.4532 45.1038 76.7302 45.1038C76.797 45.0993 76.8599 45.0707 76.9073 45.0233C76.9546 44.976 76.9832 44.9131 76.9878 44.8462L77.3742 42.143C77.2454 42.0149 77.1166 41.8861 76.9878 41.8861ZM62.0576 43.8166C62.4315 43.4436 62.867 43.1378 63.3448 42.9127C63.8593 42.7839 64.3745 42.6551 64.6313 43.1696C64.732 43.3853 64.8982 43.5637 65.1062 43.6793C65.3142 43.7949 65.5534 43.8419 65.7898 43.8136C66.2595 43.5035 66.7837 43.285 67.3346 43.1696C68.8945 42.7802 68.7092 43.0852 69.3939 43.4272C69.5227 43.556 69.6515 43.8136 69.9091 43.8136C70.4235 43.9424 70.9387 43.556 71.3244 43.2984C71.8366 42.9572 72.7924 42.7079 73.2549 43.1696C73.5125 43.2984 73.6413 43.556 73.7701 43.556C73.9649 43.645 74.1834 43.668 74.3925 43.6216C74.6016 43.5751 74.7898 43.4616 74.9285 43.2984C75.1861 43.0415 75.7006 43.4272 75.443 43.8136C75.2115 44.0898 74.885 44.2695 74.5277 44.3171C74.1705 44.3648 73.8083 44.2771 73.5125 44.0712C73.2549 43.9424 73.1268 43.6848 72.8692 43.556C71.8863 43.3104 71.4148 44.328 70.1659 44.328C69.6515 44.328 69.3939 44.0712 69.0075 43.6848C68.6211 43.2984 67.9779 43.4272 67.4634 43.556C66.949 43.6848 66.4338 44.0712 65.9186 44.2C64.5929 44.5314 64.2991 43.0415 63.9881 43.0415C63.9182 43.0329 63.8473 43.04 63.7805 43.0621C63.7136 43.0842 63.6526 43.121 63.6017 43.1696C63.1071 43.3302 62.6323 43.5462 62.1864 43.8136C62.0576 44.0742 61.9288 43.8166 62.0576 43.8166Z" fill="#00C896"/>
<path d="M145.719 30.4299C144.826 29.5844 143.688 29.044 142.469 28.8865C141.439 28.3691 140.127 28.3706 138.511 28.3706C137.353 28.3706 136.194 28.2418 135.165 28.2418C128.063 27.8245 66.6394 26.6977 63.7305 26.6977C60.3689 26.6977 55.0632 26.5282 53.562 29.529C53.2134 30.2121 52.995 30.9541 52.918 31.7171C48.8831 60.0132 47.9363 61.5874 46.4826 93.0764C46.4826 93.0764 46.4826 93.3694 46.6114 93.3694C47.7683 93.6172 57.2837 94.5564 58.8888 94.4336C58.6741 99.6564 58.7103 100.182 58.7103 103.924C58.4527 103.924 58.1951 104.182 58.067 104.567C58.0085 104.726 58.0019 104.899 58.0481 105.061C58.0942 105.224 58.1908 105.367 58.3239 105.471C59.0213 106.167 61.5409 106.141 62.572 105.728C62.846 105.583 63.0701 105.359 63.2153 105.085C63.3441 104.698 63.4729 104.313 63.0865 104.055C63.6455 102.462 64.076 100.826 64.3737 99.1639C65.1461 95.4834 65.4916 91.7261 65.4033 87.9665C65.4169 87.3029 65.3897 86.6391 65.322 85.9788C66.7453 86.3494 68.1474 86.7972 69.5219 87.3203C71.0464 88.0833 71.8049 87.8076 71.1948 89.6372C70.8952 91.3185 70.6806 93.0139 70.5516 94.7169C69.9965 94.6227 65.8349 94.6476 65.7581 94.6483C65.487 94.6483 65.5977 94.8743 65.7423 94.8803C65.8319 94.8803 70.1825 95.2569 70.5516 95.2253V96.8455C70.4228 96.8455 70.294 96.9735 70.1652 96.9735C70.0485 97.1155 69.9745 97.2877 69.9517 97.4701C69.9289 97.6524 69.9583 97.8375 70.0364 98.0039C70.4228 98.6471 71.3236 98.6471 71.8388 98.7759C72.6206 98.8822 73.4164 98.7937 74.1557 98.5183C74.5639 98.4318 74.9285 98.204 75.1854 97.8751C75.4422 97.6175 75.571 96.9712 75.1854 96.8455C75.1854 96.5879 75.3134 96.459 75.3134 96.3302C75.4422 95.9438 75.4422 95.4264 75.571 95.043C76.1472 92.1635 77.7591 86.2899 75.6998 84.2313C75.191 83.8145 74.6283 83.4681 74.0269 83.2017C73.492 82.9317 72.9313 82.7162 72.3533 82.5584C72.8988 81.0776 73.5001 79.6178 74.1557 78.1823C74.2845 78.0535 74.0269 77.9247 73.8981 78.0535C72.9643 79.493 72.2284 81.0515 71.71 82.6872C71.71 82.816 71.8388 83.0729 71.9676 83.0729C72.4821 83.3305 73.1253 83.4593 73.6405 83.7169C74.1511 83.8961 74.6293 84.1568 75.0566 84.4889C76.0862 85.1322 76.0862 86.4194 75.9604 87.4491C75.8495 89.8881 75.4608 92.3064 74.802 94.6574C74.683 95.1741 74.6732 95.5612 74.5444 96.0727C74.3973 96.4871 74.3108 96.9207 74.2875 97.3599C74.2875 97.6077 71.9383 98.1003 71.1993 97.3599C71.0971 97.2089 71.0515 97.0268 71.0705 96.8455C71.0705 93.2519 70.9606 93.4319 71.8433 89.5084C71.9875 88.9949 71.9418 88.4467 71.7145 87.9643C71.3762 87.4922 70.8691 87.1685 70.2985 87.0604C67.6253 86.1957 63.6499 84.9077 62.9802 84.6961C62.9486 84.686 62.915 84.6836 62.8822 84.6889C62.8494 84.6943 62.8183 84.7072 62.7915 84.7268C62.7646 84.7464 62.7428 84.772 62.7277 84.8016C62.7126 84.8312 62.7047 84.864 62.7046 84.8972C62.7046 85.1186 62.9848 85.1412 63.4774 85.3868C63.6024 85.45 64.8038 85.8138 64.9838 85.8839C64.7488 87.4702 64.9251 97.2213 62.1969 104.05C62.0601 104.436 61.8403 104.788 61.5529 105.08C60.8298 105.562 59.1125 105.17 59.1125 104.641C59.1125 91.9699 60.5737 74.3785 60.5737 74.3514C61.0889 74.4802 67.4739 75.2191 67.4739 75.2191C67.7797 79.2014 69.7155 79.9538 71.7213 78.9513C72.1077 78.8225 72.3646 78.5656 72.751 78.4368C73.1894 78.2093 73.5821 77.9029 73.9094 77.533C74.167 76.889 73.7806 76.5026 73.523 76.6291C73.1366 76.7579 72.8798 77.1443 72.6192 77.2731C72.0146 77.7602 71.3123 78.1114 70.5599 78.3028C70.2548 78.3424 69.9448 78.29 69.6696 78.1525C69.3944 78.015 69.1665 77.7985 69.015 77.5307C68.5471 76.7094 68.3239 75.7714 68.3718 74.8274C68.2723 73.5396 68.3155 72.2448 68.5006 70.9664C68.6422 69.7975 68.7326 68.0658 69.7878 67.3623C70.1561 67.0827 70.6129 66.9455 71.0743 66.9759C71.2031 66.9759 71.3319 66.8479 71.2031 66.7191C70.8175 66.5903 70.5599 66.4615 70.2993 66.5903C69.9711 66.6085 69.6509 66.6989 69.3618 66.8552C69.0726 67.0114 68.8215 67.2296 68.6264 67.4941C68.1138 68.1492 67.7216 68.8901 67.4679 69.6822C67.1827 70.5648 66.9674 71.4684 66.8239 72.3848C66.8239 72.7712 66.6959 74.0584 66.6959 74.3152C66.4383 74.3152 61.8045 73.672 61.6757 73.672C61.6757 73.672 61.9333 72.1272 61.9333 71.9991C62.4033 70.1161 62.8424 68.7994 64.6358 67.3653C65.2798 66.9789 65.9231 66.7221 66.6959 66.3357C66.8239 66.3357 66.8239 66.0781 66.6959 66.0781C65.6896 65.877 63.8577 66.6565 63.0917 67.2365C62.1279 67.9981 61.4113 69.0282 61.0324 70.1967C60.3154 71.9886 60.295 73.7985 59.874 78.4346C59.4431 83.1746 59.1125 89.2651 58.9174 93.88C57.6369 93.7746 48.0116 93.0153 47.2004 92.9973C48.7068 64.1333 48.6232 74.728 53.3097 32.099C53.3444 31.4063 53.5225 30.7283 53.8326 30.108C54.1427 29.4876 54.5782 28.9383 55.1114 28.4948C57.2204 27.1541 60.2175 27.4652 69.3984 27.4652C81.48 27.4652 137.795 29.01 137.872 29.01C139.548 29.01 141.754 28.9069 142.763 30.1685C143.171 31.0092 143.262 31.9685 143.021 32.871C142.274 38.9721 135.146 91.9051 134.562 96.6549C134.292 96.6489 134.023 96.7114 133.753 96.7114C126.748 96.7114 126.042 96.5984 124.229 96.8402C124.1 96.7114 124.1 96.9682 124.229 97.097C126.627 97.4171 128.994 97.3546 133.753 97.3546C134.059 97.3651 134.365 97.3438 134.667 97.2914C134.728 97.3259 134.797 97.3448 134.867 97.3462C134.937 97.3477 135.007 97.3316 135.069 97.2996C135.132 97.2676 135.186 97.2206 135.225 97.1627C135.265 97.1049 135.29 97.0381 135.298 96.9682C136.187 89.5581 144.05 32.6142 144.05 31.455C144.063 31.0545 143.987 30.6561 143.829 30.2879C143.671 29.9198 143.433 29.591 143.134 29.3249C143.878 29.4541 144.568 29.7976 145.119 30.3132C145.671 30.8289 146.06 31.4943 146.239 32.2278C146.332 32.8732 146.288 33.5309 146.11 34.1583C145.945 34.8919 137.366 97.6785 137.492 98.3202C136.664 98.4837 135.824 98.4777 135.226 98.5605C135.212 98.3727 135.193 98.1854 135.169 97.9986C135.114 97.8201 134.843 97.9037 134.654 97.9986C126.717 101.645 119.228 106.69 109.17 111.384C105.694 113.058 102.219 114.859 98.4869 116.018C94.1935 117.449 91.1626 116.79 89.0912 116.79C83.6854 116.403 22.2908 111.899 16.4985 111.255C12.8951 110.869 9.29099 110.612 5.81565 109.711C5.42925 109.582 5.13324 109.617 4.7491 109.485C4.67378 109.459 4.74157 109.372 4.78601 109.328C4.98288 109.173 5.19909 109.043 5.42925 108.942C9.59454 105.968 33.7148 99.1149 43.3989 95.6855C44.5573 95.2991 45.587 94.9135 46.7454 94.527C47.1318 94.3982 47.003 93.883 46.6166 94.0118C37.2474 97.3433 23.0485 101.107 10.3191 105.983C8.48357 106.568 6.71477 107.345 5.0421 108.3C4.5269 108.687 3.36921 109.459 4.3981 109.973C5.20114 110.367 6.07857 110.587 6.97259 110.617C8.18753 110.804 9.46725 111.006 10.7198 111.19C10.9824 113.126 11.3548 115.045 11.8354 116.939C10.2144 116.723 8.59351 116.461 6.97259 116.152C6.20055 116.023 4.6557 116.023 4.5269 114.993C4.54822 114.347 4.50507 113.701 4.3981 113.063C4.33408 112.378 4.33408 111.688 4.3981 111.003C4.3981 110.617 3.88365 110.488 3.88365 110.874C3.62605 112.161 3.88365 113.577 3.88365 114.993C3.84241 115.331 3.92358 115.673 4.11247 115.956C4.30135 116.239 4.58546 116.446 4.9133 116.538C10.8298 118.632 61.0422 121.632 89.2185 123.746C97.5258 124.438 99.7899 123.247 108.139 119.241C116.247 115.379 124.211 111.07 131.95 106.499C132.995 105.881 134.138 105.34 135.168 104.696C135.226 104.65 135.274 104.592 135.308 104.526C135.341 104.459 135.36 104.386 135.363 104.312C135.405 104.294 135.44 104.263 135.465 104.224C135.734 103.738 135.314 99.56 135.265 99.0079C136.136 99.0094 137.007 98.9518 137.87 98.8354C137.897 98.8318 137.924 98.8229 137.947 98.8091C137.971 98.7953 137.992 98.7769 138.008 98.755C138.024 98.7331 138.036 98.7082 138.043 98.6817C138.05 98.6551 138.051 98.6275 138.047 98.6004C138.096 98.5845 138.141 98.557 138.178 98.5204C138.214 98.4837 138.241 98.4388 138.257 98.3895C138.901 93.8846 146.365 37.5101 146.494 36.4804C146.791 33.7869 147.484 32.1969 145.719 30.4299ZM113.413 115.379C113.413 115.153 112.903 112.065 112.7 110.664C113.604 110.203 114.504 109.736 115.399 109.264C115.554 110.641 115.851 113.898 115.975 114.316C115.156 114.75 114.33 115.178 113.498 115.603C113.479 115.525 113.45 115.45 113.413 115.379ZM115.672 109.119C116.827 108.509 117.98 107.892 119.13 107.267C119.261 108.643 119.468 111.7 119.679 112.331C118.58 112.924 117.486 113.513 116.386 114.098C116.239 112.427 116.002 110.764 115.675 109.119H115.672ZM103.671 120.311C103.342 120.454 103.012 120.596 102.681 120.737C102.544 119.46 102.288 116.657 102.145 115.607C102.562 115.439 102.974 115.266 103.388 115.094C103.399 115.401 103.624 120.151 103.671 120.311ZM103.689 114.968C104.737 114.506 105.778 114.034 106.812 113.55C106.963 115.062 107.208 117.737 107.408 118.601C106.338 119.112 105.257 119.61 104.162 120.096C104.125 119.019 103.837 116.258 103.689 114.968ZM65.0968 115.781C68.0765 115.99 71.0095 116.194 73.7972 116.384C73.8612 116.981 74.1045 120.875 74.3531 122.06C71.478 121.884 68.5917 121.684 65.673 121.473C65.5796 120.966 65.3371 117.261 65.0968 115.781ZM74.0601 116.405L76.2143 116.556C76.1777 118.437 76.2577 120.318 76.4538 122.189C75.9431 122.16 75.4327 122.131 74.9225 122.1C74.8811 120.903 74.1482 117.008 74.0616 116.405H74.0601ZM36.119 119.171C35.9014 117.788 35.3221 114.714 35.0645 113.615C36.9476 113.757 39.1086 113.916 41.4714 114.093C41.561 115.298 42.1418 118.616 42.3918 119.681C40.3024 119.513 38.1927 119.341 36.1206 119.171H36.119ZM42.7474 119.37C42.4792 117.599 42.1225 115.843 41.6785 114.108C43.1518 114.216 44.7012 114.328 46.3063 114.445C46.1539 116.3 46.2118 118.167 46.4788 120.009L42.843 119.718C42.8443 119.595 42.8125 119.475 42.7511 119.37H42.7474ZM46.7394 117.053C46.7538 116.191 46.7244 115.329 46.6513 114.47C48.9825 114.639 51.4282 114.814 53.9281 114.993C54.0245 116.892 54.2528 118.782 54.6113 120.649C52.0599 120.451 49.5088 120.25 46.9578 120.047C46.9799 119.043 46.9073 118.04 46.7409 117.05L46.7394 117.053ZM34.6586 113.588C34.8092 114.648 35.3749 117.715 35.5978 119.132C32.359 118.865 29.2256 118.604 26.4026 118.362C26.4146 117.972 26.1472 114.23 26.0169 113.71C26.0169 113.418 26.0169 113.128 25.9936 112.86C26.731 112.924 31.5402 113.346 34.6601 113.585L34.6586 113.588ZM21.6844 112.458C21.884 113.68 22.5461 116.727 22.9287 118.059C20.6518 117.864 18.3763 117.652 16.1023 117.425C14.8791 112.529 15.0523 112.359 14.8535 111.741C17.1388 112.011 19.4097 112.24 21.6859 112.455L21.6844 112.458ZM12.3272 117.005C12.3565 116.94 12.3724 116.869 12.3739 116.797C12.3739 116.552 11.5559 112.917 11.0332 111.239C11.3977 111.292 13.5941 111.587 14.3323 111.678C14.4746 112.756 15.136 116.155 15.4109 117.35C15.2904 117.335 13.2454 117.121 12.3287 117.003L12.3272 117.005ZM23.5125 118.11C23.2014 116.92 22.3194 113.77 21.9819 112.486C23.1806 112.599 24.3817 112.71 25.5853 112.82C25.5546 114.191 25.6127 115.563 25.7593 116.926C25.7441 117.39 25.7757 117.855 25.8535 118.313C25.0453 118.241 24.2634 118.174 23.514 118.108L23.5125 118.11ZM55.186 120.696C54.9555 119.533 54.5834 116.252 54.4049 115.029C57.8057 115.271 61.2991 115.518 64.7352 115.759C64.6938 117.524 65.1405 121.357 65.1457 121.44C64.5048 121.392 58.4112 120.944 55.1875 120.694L55.186 120.696ZM76.9855 122.218C76.9991 121.867 76.5984 117.96 76.4997 116.574C79.8764 116.806 82.9721 117.015 85.5903 117.188C85.57 118.412 85.9014 121.325 86.0648 122.677C83.7698 122.56 77.7169 122.256 76.9871 122.216L76.9855 122.218ZM86.5876 122.703C86.4475 121.397 86.1793 118.54 85.9616 117.213C90.5638 117.514 93.609 117.705 93.9759 117.698C96.5979 117.538 99.17 116.909 101.57 115.841C101.588 117.574 101.739 119.304 102.022 121.014C94.6907 124.045 92.2593 122.983 86.5891 122.699L86.5876 122.703ZM107.76 118.434C107.718 117.38 107.37 114.799 107.122 113.406C108.92 112.561 110.701 111.688 112.464 110.787C113.15 116.264 113.025 115.744 113.062 115.825C112.414 116.15 108.887 117.893 107.762 118.432L107.76 118.434ZM120.113 112.099C120.057 111.135 119.598 108.42 119.402 107.122C121.444 106.012 123.483 104.888 125.52 103.751C125.531 105.503 125.636 107.252 125.835 108.993C124.531 109.713 120.71 111.777 120.115 112.097L120.113 112.099ZM126.299 108.735C126.263 107.605 125.965 104.835 125.819 103.584C126.616 103.141 129.687 101.44 130.413 101.04C130.463 102.553 130.648 105.775 130.763 106.301C129.267 107.096 127.779 107.906 126.301 108.733L126.299 108.735ZM131.415 105.959C131.455 105.584 131.46 105.206 131.43 104.83C131.322 103.479 131.121 102.137 130.828 100.814C131.289 100.56 131.749 100.303 132.209 100.045C132.244 101.347 132.423 104.508 132.544 105.384C132.168 105.571 131.792 105.762 131.417 105.957L131.415 105.959ZM132.992 105.159C132.952 103.987 132.624 100.874 132.592 99.8267C133.262 99.4501 133.936 99.0546 134.62 98.6434C134.62 98.9032 134.912 103.941 135.004 104.198C134.329 104.506 133.659 104.826 132.993 105.156L132.992 105.159Z" fill="#2B2E3F"/>
</svg>
