<svg width="151" height="151" viewBox="0 0 151 151" fill="none" xmlns="http://www.w3.org/2000/svg">
<path d="M93.7621 35.538C93.4774 35.3874 93.1874 35.6811 93.1151 36.0404C93.0996 36.7621 93.1477 37.4837 93.2589 38.1969C92.5404 39.0593 91.5265 40.1357 91.3187 41.1435C91.0927 42.2198 92.2526 43.1561 93.1151 43.6592C92.8997 44.0185 91.7495 45.3118 91.5333 45.6711C91.3895 46.0311 91.6772 46.4619 92.108 46.2465C92.8256 45.5352 93.4532 44.7387 93.9768 43.8746C94.1206 43.5869 93.9768 43.0122 92.6835 42.0059C91.8211 41.2158 93.8329 39.1309 94.1206 38.3408C94.1959 38.053 94.0491 37.406 94.1206 36.6159C96.2771 37.2629 97.8581 35.0341 98.7906 34.6756C99.2293 35.6116 99.7592 36.5022 100.372 37.3345C99.9415 38.2684 99.2229 41.1435 99.5822 41.0719C100.948 40.928 100.804 42.7968 99.9415 42.7968C99.5701 42.7864 99.2005 42.851 98.8547 42.9867C98.5088 43.1225 98.194 43.3266 97.9289 43.5869C96.9829 44.5154 96.1832 45.5821 95.557 46.7504C95.4064 47.1074 95.9811 47.4645 96.204 47.1097C96.9085 45.9353 97.78 44.8696 98.7913 43.9462C98.961 44.9553 99.4774 45.8736 100.251 46.5428C101.026 47.212 102.009 47.5901 103.032 47.6121C107.201 47.6475 109.51 51.2027 109.931 52.3574C112.417 59.0986 115.894 58.1014 116.975 57.6043C121.563 55.4952 123.151 54.2344 120.784 52.7889C119.847 52.2173 116.543 50.9202 116.184 50.2732C114.962 47.7582 116.177 42.9625 111.514 41.2896C109.932 40.7217 108.03 40.5108 107.417 38.7023C106.885 37.1311 107.293 35.3881 106.627 33.8154C106.412 33.2168 106.008 32.7041 105.477 32.3542C104.946 32.0042 104.315 31.8359 103.68 31.8744H103.605C102.887 29.3594 101.358 26.0294 99.293 27.7776C98.2046 28.7003 97.7112 31.1558 98.5021 33.8154C97.8588 34.1725 95.7257 36.5737 93.7621 35.538ZM105.836 36.7598C105.827 36.8771 105.773 36.9866 105.687 37.0665C105.6 37.1464 105.487 37.1907 105.369 37.1907C105.251 37.1907 105.138 37.1464 105.051 37.0665C104.965 36.9866 104.912 36.8771 104.902 36.7598C104.827 35.6811 104.984 34.5189 104.04 33.7409C103.684 33.4486 104.115 32.8784 104.543 33.0938C105.083 33.5194 105.491 34.0895 105.72 34.7379C105.949 35.3863 105.989 36.0864 105.836 36.7567V36.7598ZM113.167 46.6058C113.236 47.1089 112.384 47.2513 112.305 46.7497C111.778 43.4355 109.501 43.0838 108.639 42.7245C108.553 42.6803 108.486 42.6056 108.452 42.5148C108.418 42.4241 108.419 42.3239 108.455 42.234C108.491 42.144 108.559 42.0708 108.647 42.0286C108.734 41.9864 108.834 41.9783 108.927 42.0059C110.004 42.2936 112.644 42.799 113.167 46.6058ZM114.892 50.8464C114.819 50.9218 114.727 50.9751 114.625 51.0004C114.523 51.0257 114.416 51.022 114.317 50.9895C113.91 50.6943 113.589 50.298 113.383 49.8401C113.331 49.7451 113.319 49.634 113.347 49.5298C113.376 49.4257 113.443 49.3366 113.536 49.281C113.628 49.2254 113.739 49.2076 113.844 49.2314C113.949 49.2551 114.041 49.3186 114.101 49.4085C114.327 49.7625 114.604 49.984 114.82 50.2709C114.866 50.3007 114.906 50.3404 114.936 50.3872C114.965 50.434 114.984 50.4867 114.991 50.5417C114.998 50.5966 114.993 50.6524 114.976 50.7051C114.959 50.7578 114.93 50.806 114.892 50.8464Z" fill="#2B2E3F"/>
<path d="M117.479 78.7321C112.163 68.1005 112.52 67.1047 109.501 60.6203C107.425 56.1612 103.897 48.9778 98.0025 49.0494C97.5709 49.0546 97.4263 49.7755 97.8586 49.8402C103.884 50.7358 106.831 57.4635 109.07 62.3436C111.374 67.3653 113.839 74.7717 116.688 79.2337C117.049 79.6661 117.766 79.2383 117.479 78.7321Z" fill="#2B2E3F"/>
<path d="M98.0745 63.7829C97.7891 63.3498 97.1496 63.7076 97.4275 64.1422C101.893 71.1621 107.313 78.0571 114.101 82.9726C114.602 83.3356 115.176 82.5455 114.748 82.1825C108.329 76.7352 103.341 71.7685 98.0745 63.7829Z" fill="#2B2E3F"/>
<path d="M127.11 79.0914C124.406 80.1677 120.354 79.9538 119.06 79.6661C118.557 79.5908 118.342 80.3131 118.845 80.457C121.504 81.1755 125.062 81.5228 127.541 79.9538C127.979 79.6766 127.618 78.8888 127.11 79.0914Z" fill="#2B2E3F"/>
<path d="M125.888 83.1159C123.737 83.254 121.581 82.9357 119.561 82.1819C119.469 82.1543 119.369 82.1624 119.282 82.2045C119.194 82.2467 119.126 82.32 119.09 82.41C119.054 82.4999 119.053 82.6001 119.087 82.6908C119.121 82.7816 119.187 82.8563 119.274 82.9004C121.348 83.9872 123.706 84.4136 126.029 84.1222C126.606 84.0416 126.465 83.1159 125.888 83.1159Z" fill="#2B2E3F"/>
<path d="M123.014 88.1465C122.003 87.9194 121.053 87.482 120.223 86.8628C119.393 86.2436 118.703 85.4566 118.198 84.5529C117.984 84.1937 117.263 84.4098 117.48 84.8407C117.925 85.9595 118.658 86.9409 119.605 87.6855C120.551 88.4301 121.677 88.9116 122.87 89.0813C123.444 89.2251 123.587 88.2949 123.014 88.1465Z" fill="#2B2E3F"/>
<path d="M81.8316 19.0796C81.5002 25.9166 84.1417 36.3727 89.3773 44.3063C89.6862 44.255 89.9989 44.2298 90.3121 44.231C88.0398 40.5022 86.2068 36.5228 84.8497 32.3724C83.0353 26.6276 83.042 22.1286 82.7656 19.1482C82.776 19.0839 82.7728 19.0181 82.7564 18.955C82.74 18.892 82.7107 18.833 82.6703 18.7819C82.6299 18.7308 82.5793 18.6887 82.5218 18.6582C82.4642 18.6276 82.4009 18.6094 82.336 18.6047C82.271 18.5999 82.2058 18.6087 82.1444 18.6305C82.083 18.6523 82.0268 18.6866 81.9794 18.7312C81.9319 18.7759 81.8943 18.8299 81.8689 18.8899C81.8434 18.9499 81.8307 19.0145 81.8316 19.0796Z" fill="#2B2E3F"/>
<path d="M77.2322 15.8453C76.1596 23.3548 75.8304 30.1767 77.0883 38.1969C77.428 40.8922 78.0545 43.5435 78.957 46.1057C78.9712 46.1623 78.9963 46.2156 79.0311 46.2625C79.0658 46.3094 79.1094 46.349 79.1595 46.3791C79.2095 46.4091 79.265 46.429 79.3227 46.4376C79.3805 46.4462 79.4393 46.4434 79.4959 46.4292C79.5526 46.4151 79.6059 46.3899 79.6528 46.3552C79.6997 46.3204 79.7393 46.2768 79.7693 46.2268C79.7993 46.1767 79.8192 46.1212 79.8278 46.0635C79.8364 46.0058 79.8336 45.9469 79.8194 45.8903C79.1137 41.1247 75.8703 33.9368 77.9507 15.9921C77.9507 15.5575 77.2322 15.4144 77.2322 15.8453Z" fill="#2B2E3F"/>
<path d="M82.2627 15.8451C81.4583 10.422 82.5143 7.46637 82.9097 4.4181C82.9297 4.29097 82.9025 4.16091 82.8333 4.05243C82.7641 3.94395 82.6575 3.86453 82.5338 3.82915C82.4101 3.79377 82.2777 3.80487 82.1616 3.86036C82.0454 3.91584 81.9536 4.01188 81.9034 4.13037C81.2478 6.04949 80.9318 8.06819 80.9694 10.0958C80.8946 12.0939 81.0391 14.094 81.4003 16.0606C81.5441 16.636 82.3373 16.3483 82.2627 15.8451Z" fill="#2B2E3F"/>
<path d="M74.4294 12.7547C75.6512 11.0298 77.724 10.9748 79.3879 12.1076C79.4928 12.1625 79.614 12.1779 79.7294 12.1509C79.8447 12.1239 79.9465 12.0564 80.0162 11.9607C80.086 11.8649 80.119 11.7473 80.1093 11.6293C80.0996 11.5112 80.0478 11.4006 79.9633 11.3175C79.516 10.9021 78.9799 10.594 78.3957 10.4169C77.8115 10.2397 77.1946 10.198 76.5919 10.2951C75.9892 10.3921 75.4165 10.6252 74.9174 10.9768C74.4183 11.3283 74.006 11.789 73.7116 12.3238C73.4149 12.8224 74.0694 13.1862 74.4294 12.7547Z" fill="#2B2E3F"/>
<path d="M75.4348 8.80186C76.1229 8.55926 76.8727 8.55496 77.5636 8.78963C78.2545 9.02431 78.8465 9.48434 79.2445 10.0959C79.5292 10.4567 80.1785 10.0959 79.9631 9.66429C79.7541 9.23182 79.461 8.84534 79.1009 8.52742C78.7408 8.2095 78.321 7.96652 77.866 7.81266C77.4109 7.65881 76.9298 7.59718 76.4507 7.63136C75.9716 7.66554 75.5041 7.79485 75.0755 8.01173C74.7185 8.29871 74.9339 8.95325 75.4348 8.80186Z" fill="#2B2E3F"/>
<path d="M76.5138 52.7867C74.6436 59.4707 74.6436 63.1359 74.6436 63.1359C81.9823 64.5974 89.2107 66.5665 96.2767 69.029L95.989 65.1485C95.989 65.1485 90.2389 55.2301 97.7854 48.6184L96.5637 47.8991C96.5637 47.8991 93.1862 50.0555 92.4669 53.6491L84.8489 53.4337L82.7662 47.7537C85.5391 46.466 88.46 45.5244 91.4629 44.9502L90.5997 44.0162C90.4566 44.1624 78.7426 44.8094 76.5138 52.7867ZM83.988 58.1051C84.3472 58.3921 83.8501 58.96 83.4848 58.6798C82.4311 57.8573 81.201 57.2901 79.8912 57.0228C79.5327 56.9475 79.6042 56.3042 79.9665 56.3765C81.4605 56.4952 82.8738 57.1027 83.988 58.1051Z" fill="#00C896"/>
<path d="M109.718 117.111C109.626 117.111 109.97 117.207 108.424 116.176C108.064 115.888 107.633 116.464 107.92 116.751L108.711 117.542C108.366 117.922 108.053 118.33 107.777 118.763C107.561 118.548 105.836 117.181 105.765 117.181C108.496 115.457 108.496 114.594 108.352 114.379C103.238 109.495 99.3691 103.457 97.068 96.7701C95.8417 93.3993 95.1388 89.8606 94.9839 86.277C94.9086 82.6119 95.3869 78.9256 93.6906 75.4247C93.4797 74.9908 92.7559 75.2816 92.8997 75.7124C94.5523 79.5937 93.6266 83.7613 93.9776 87.7865C94.7564 96.7174 99.1921 106.918 107.13 114.738C106.374 115.458 105.498 116.041 104.543 116.463C99.6101 111.177 95.0473 105.558 90.8872 99.6451C86.8379 93.6947 84.582 87.1161 82.6944 80.1684C82.5566 79.6638 81.8207 79.8822 81.9035 80.3839C82.1292 81.4951 82.2258 82.6286 82.1913 83.762C80.2502 86.0616 78.3747 88.4274 76.4412 90.8054C74.9265 92.6696 72.9862 94.6867 73.0615 97.2024C73.1971 101.658 78.0923 108.989 79.0263 111.504C78.38 111.792 77.6607 112.079 77.0144 112.438C75.508 109.78 68.5219 99.6504 67.4554 96.8469C66.147 93.4024 67.0983 90.4521 69.0371 87.507C70.5481 85.2082 76.2958 74.9283 78.0207 72.2702C80.3926 72.7018 90.958 74.7859 92.1812 74.7859C93.1152 74.7859 92.612 73.6358 92.1059 73.6358V70.4723C92.1059 70.0407 91.3903 69.8976 91.3157 70.397C91.104 71.3639 91.0312 72.3561 91.0996 73.3435C90.2371 73.1281 81.4697 71.7618 79.7448 71.5471C79.4027 69.1915 78.8994 66.8621 78.2384 64.5754C78.2054 64.4755 78.1354 64.3921 78.0427 64.3424C77.95 64.2926 77.8418 64.2804 77.7404 64.3081C77.6389 64.3358 77.552 64.4014 77.4975 64.4914C77.443 64.5813 77.4251 64.6888 77.4475 64.7915C77.7541 65.9364 78.3823 70.4693 78.7415 71.4748C78.3823 71.4748 78.0945 71.4033 77.7352 71.4033C77.0167 71.3294 69.7022 84.4203 68.0323 86.9963C66.3956 89.5219 65.1648 92.3125 65.8043 95.3329C66.9281 100.639 72.1984 106.456 75.9381 113.229C76.2183 113.736 76.9444 113.444 77.0167 113.372C77.25 113.983 77.5137 114.582 77.8068 115.167C77.8489 115.246 77.9194 115.306 78.0043 115.336C78.0892 115.365 78.182 115.361 78.2641 115.325C78.3462 115.288 78.4114 115.222 78.4466 115.14C78.4818 115.057 78.4844 114.964 78.4538 114.88C78.2255 114.289 77.9614 113.713 77.6629 113.155C78.1072 112.993 78.5396 112.801 78.957 112.579C79.0501 113.183 79.2444 113.766 79.5317 114.304C79.5317 114.304 78.5254 115.239 78.0252 115.67C77.9834 115.705 77.9497 115.749 77.9267 115.799C77.9036 115.849 77.8916 115.903 77.8916 115.958C77.8916 116.012 77.9036 116.066 77.9267 116.116C77.9497 116.166 77.9834 116.21 78.0252 116.245V116.317C78.6722 118.833 77.4694 122.79 77.2351 123.719C77.0348 124.514 76.7244 125.593 77.1598 126.378C77.7247 127.391 78.9675 126.742 79.3162 126.019C80.3039 123.877 81.4075 121.79 82.6221 119.767C83.2526 118.893 84.1285 117.899 84.1285 116.821C84.1285 116.174 82.9 115.182 82.2598 114.88C81.3876 114.468 80.9665 113.227 80.1757 113.73C79.96 113.31 79.7682 112.878 79.601 112.436C79.682 112.428 79.7601 112.402 79.829 112.358C79.8978 112.314 79.9555 112.255 79.9974 112.185C80.0393 112.116 80.0642 112.037 80.0702 111.956C80.0762 111.874 80.063 111.793 80.0318 111.718C78.27 106.791 74.9152 103.096 74.0663 98.2065C73.5556 95.2614 76.0247 93.0454 77.6599 90.9477C79.3306 88.8048 80.9665 86.7071 82.5475 84.4791C83.9756 90.1006 86.3316 95.4445 89.5186 100.291C93.6763 106.419 98.3402 112.189 103.461 117.539C103.742 117.834 104.755 117.395 104.899 117.324C105.513 118.138 106.212 118.885 106.983 119.552C106.942 119.62 106.927 119.701 106.94 119.78C106.953 119.859 106.994 119.931 107.055 119.983C108.244 121.293 109.041 122.911 109.355 124.653C109.506 126.017 108.903 127.462 109.28 128.822C109.483 129.544 110.145 130.403 110.937 129.756C111.369 129.399 112.308 126.235 112.443 125.444C112.719 123.869 113.078 122.31 113.521 120.774C113.756 120.315 113.872 119.805 113.859 119.291C113.845 118.776 113.704 118.273 113.446 117.827C113.023 116.535 111.083 117.326 109.718 117.111Z" fill="#2B2E3F"/>
<path d="M95.4145 33.8848C95.9221 34.3112 96.7085 33.5971 96.2053 33.094C92.5402 30.0758 88.8449 27.0931 85.2084 24.0388C84.7015 23.6125 83.9151 24.3258 84.4182 24.8289C88.0118 27.8478 91.7794 30.8306 95.4145 33.8848Z" fill="#2B2E3F"/>
<path d="M105.189 121.207C105.749 125.89 98.1682 126.644 93.4742 127.028C83.6349 127.835 73.7105 128.286 63.7922 128.106C58.61 128.013 45.9824 127.389 42.0152 126.31C41.0059 126.036 39.9815 125.597 39.6433 124.514C39.2622 123.298 39.7939 121.783 40.0033 120.632C41.8434 110.578 49.2739 68.1669 51.0003 56.8837C51.0819 56.8175 51.1419 56.7284 51.1725 56.6279C51.2031 56.5274 51.203 56.42 51.1721 56.3195C51.1413 56.2191 51.0811 56.1301 50.9994 56.0641C50.9176 55.9981 50.818 55.958 50.7133 55.949C48.7723 55.8051 28.7194 57.5307 24.6242 57.8177C27.4864 54.4222 63.7161 14.0559 63.7914 13.9805C64.7977 12.9742 65.8017 11.9212 67.3127 12.0402C70.5274 12.2941 72.711 15.8922 75.2908 17.5741C75.8587 17.9447 76.3686 17.071 75.8655 16.6401C73.0612 14.6953 70.132 10.0103 66.1633 11.0302C64.0874 11.5642 62.5479 13.7418 61.2049 15.2708C59.5229 17.1862 26.7829 53.5824 23.0417 57.9616C22.6108 58.4655 23.3294 59.2548 23.7602 58.7517C28.2163 58.4647 48.4838 57.3869 50.2087 57.0991C49.5617 60.2627 48.987 63.4262 48.4115 66.5897C43.8124 66.5897 32.0155 67.8988 28.4317 65.5834C26.7746 64.5123 25.9167 62.6368 25.0543 60.9134C25.0266 60.8649 24.9895 60.8223 24.9452 60.7883C24.9008 60.7542 24.8501 60.7294 24.7961 60.7152C24.742 60.701 24.6856 60.6978 24.6303 60.7057C24.575 60.7136 24.5218 60.7325 24.4738 60.7613C24.4259 60.79 24.3842 60.8281 24.3512 60.8732C24.3182 60.9183 24.2945 60.9695 24.2815 61.0239C24.2686 61.0783 24.2667 61.1347 24.2758 61.1899C24.285 61.245 24.3051 61.2978 24.3349 61.345C25.0743 63.0934 26.149 64.6799 27.4984 66.015C29.063 67.2912 31.0134 68.0003 33.0323 68.0268C35.5466 68.1887 45.6811 67.8114 48.2691 67.596C44.9625 85.4193 41.7741 103.286 38.8539 121.139C38.5489 123.005 38.0525 125.033 39.7164 126.385C41.1475 127.547 43.2339 127.633 44.9625 127.892C50.2284 128.623 55.5315 129.055 60.8463 129.186C71.5533 129.582 82.1917 128.902 92.9002 128.179C97.1408 127.893 107.131 127.532 106.196 121.136C106.195 120.417 105.112 120.561 105.189 121.207Z" fill="#2B2E3F"/>
<path d="M103.249 128.322C101.012 133.34 100.791 140.63 97.6426 143.914C96.0247 145.604 93.6189 145.734 91.3909 145.782C84.9953 145.922 78.5983 145.636 72.2735 145.495C68.9676 145.42 65.7333 145.427 62.4275 145.352C59.4086 145.282 56.3181 145.423 53.3 145.208C51.2874 145.064 50.0612 144.131 48.9155 142.548C47.3722 140.419 42.7776 132.562 41.0068 129.468C40.7913 129.037 40.1488 129.392 40.3605 129.828C42.5536 134.193 44.9766 138.439 47.6192 142.548C49.3313 145.117 50.5357 146.204 53.6563 146.358C53.7316 146.358 85.561 146.838 89.8784 146.861C92.3219 146.874 95.2052 147.087 97.3533 145.711C101.736 142.898 101.917 134.193 104.324 128.822C104.47 128.25 103.537 127.675 103.249 128.322Z" fill="#2B2E3F"/>
<path d="M102.964 104.102C103.044 104.604 103.756 104.389 103.683 103.886C102.902 98.4942 99.9526 74.5035 99.5143 71.9041C99.4299 71.4032 98.6451 71.5449 98.6518 72.048C98.685 74.6361 102.112 98.7691 102.964 104.102Z" fill="#2B2E3F"/>
<path d="M118.269 59.7578C118.048 61.1227 117.855 62.4928 117.551 63.783C117.143 65.5154 115.179 65.4356 113.742 65.4356C113.599 65.4356 113.462 65.4924 113.36 65.5935C113.259 65.6947 113.203 65.8319 113.203 65.9749C113.203 66.1179 113.259 66.2551 113.36 66.3562C113.462 66.4574 113.599 66.5142 113.742 66.5142C115.107 66.5142 117.255 66.4389 118.054 65.2202C118.481 64.5701 118.899 60.9057 119.06 59.8301C119.125 59.3978 118.339 59.3262 118.269 59.7578Z" fill="#2B2E3F"/>
<path d="M97.1039 38.8886C97.2295 38.9751 97.4015 38.9831 97.5821 38.9109C97.7626 38.8388 97.937 38.6924 98.0667 38.5039C98.1965 38.3154 98.271 38.1003 98.2739 37.9059C98.2769 37.7115 98.2079 37.5537 98.0823 37.4673C98.0202 37.4245 97.946 37.4004 97.864 37.3966C97.782 37.3927 97.6938 37.4091 97.6044 37.4447C97.4239 37.5168 97.2496 37.6631 97.1199 37.8515C97.0556 37.9447 97.0043 38.0455 96.9687 38.1481C96.9331 38.2507 96.9141 38.353 96.9126 38.4492C96.9096 38.6436 96.9784 38.8014 97.1039 38.8878V38.8886Z" fill="#2B2E3F"/>
</svg>
