<svg width="151" height="151" viewBox="0 0 151 151" fill="none" xmlns="http://www.w3.org/2000/svg">
<path d="M47.1892 125.981C47.3459 126.085 47.5018 125.825 47.3459 125.721C43.2111 122.775 39.5404 119.227 36.4559 115.195C36.2379 115.288 36.0107 115.358 35.778 115.403C38.9502 119.555 42.8097 123.132 47.1892 125.981Z" fill="#00C896"/>
<path d="M114.932 122.699C114.619 122.907 114.932 123.428 115.245 123.22C119.041 120.689 121.484 118.716 125.406 113.162C125.162 113.055 124.934 112.914 124.728 112.745C122.128 116.658 118.803 120.037 114.932 122.699Z" fill="#00C896"/>
<path d="M22.1764 67.7224C21.2961 72.3939 21.103 77.169 21.6032 81.8964C21.9014 81.9493 22.1751 82.0954 22.385 82.3137C21.8103 77.2558 21.8171 71.9193 23.0102 67.1492C22.7473 67.2539 22.2344 67.4128 22.1764 67.7224Z" fill="#00C896"/>
<path d="M55.5796 32.4439C75.5014 24.1246 98.1604 24.816 113.891 38.5404C114.307 38.9057 114.724 38.9577 114.985 38.4364C113.317 37.1341 112.066 36.1437 110.451 34.8963C111.441 32.8626 112.432 30.7792 113.421 28.7471C114.359 29.3203 115.819 29.6848 116.183 28.6951C116.444 28.0172 115.871 27.392 115.35 26.9235C114.166 25.9779 112.77 25.334 111.282 25.0473C110.973 24.9449 110.642 24.9246 110.322 24.9885C110.002 25.0524 109.704 25.1983 109.458 25.4118C108.572 26.4023 109.979 27.7573 111.177 28.2778C110.448 30.1541 109.718 32.0823 108.989 33.9578C103.859 30.711 98.169 28.4491 92.21 27.2881C91.871 23.4467 93.394 21.8182 93.5123 20.5137C93.4902 19.9613 93.2941 19.4301 92.9519 18.9959C92.6097 18.5618 92.1389 18.247 91.607 18.0966C91.0751 17.9461 90.5092 17.9678 89.9903 18.1584C89.4714 18.349 89.0261 18.6989 88.7181 19.1579C88.1968 20.2523 89.1873 21.9199 90.3857 21.6593C90.3337 23.4309 90.2817 25.1994 90.2817 27.0267C82.1648 25.8764 73.9023 26.301 65.9461 28.2771C65.217 24.8379 65.0083 23.8482 65.0083 23.8482C65.3938 23.6216 65.7302 23.3204 65.998 22.9624C66.8846 21.7633 65.3729 20.0437 63.9139 19.8877C62.4549 19.7318 60.8393 20.6169 60.5787 22.0239C60.318 23.4836 62.0904 24.9426 63.2902 24.1088C63.7068 25.6197 64.0329 27.1691 64.4494 28.68C56.7647 30.7246 49.483 34.0596 42.915 38.5427C42.1859 37.2923 41.508 36.042 40.7789 34.7909C41.7686 34.4263 42.0292 32.9673 41.404 32.0793C41.0661 31.6675 40.6148 31.3641 40.1059 31.2066C39.5971 31.0492 39.0532 31.0446 38.5418 31.1935C37.186 31.5061 35.9884 32.8604 36.197 34.2154C36.4049 35.6224 38.4371 36.4562 39.3756 35.4138C40.1575 36.7169 40.9905 38.0719 41.7723 39.3742C36.2827 43.3516 31.5827 48.3175 27.9132 54.0175C26.4022 53.3396 24.8913 52.6105 23.3803 51.9333C24.2134 50.7342 22.6504 49.0666 21.2434 49.3272C19.8364 49.5878 19.2632 50.8389 18.794 52.0388C18.6449 52.2801 18.5617 52.5562 18.5526 52.8397C18.5434 53.1231 18.6088 53.4041 18.742 53.6544C18.937 54.0231 19.2358 54.3266 19.6014 54.5273C19.9669 54.7281 20.3833 54.8174 20.7991 54.7841C21.2148 54.7509 21.6117 54.5966 21.9408 54.3402C22.2698 54.0839 22.5165 53.7368 22.6504 53.3418C24.1614 53.967 25.6731 54.5922 27.236 55.2173C25.3207 58.3514 23.8981 61.761 23.018 65.327C23.3848 65.0967 23.6995 64.7922 23.9418 64.4332C24.184 64.0742 24.3487 63.6685 24.425 63.2421C24.9801 57.8958 33.78 41.563 55.5796 32.4439ZM111.389 29.1606C111.598 28.6921 111.91 28.1709 111.389 27.8048C110.868 27.4387 110.139 27.2836 109.825 26.7104C109.409 25.9805 110.034 25.512 110.712 25.564C112.179 25.6687 114.814 27.0862 115.246 27.8048C115.401 28.0127 115.61 28.378 115.505 28.6386C115.401 28.8465 114.724 28.5859 114.516 28.5339C114.097 28.4324 113.694 28.2748 113.317 28.0654C113.109 27.9607 112.952 28.0654 112.848 28.2733C111.966 30.433 110.956 32.5387 109.825 34.5792C109.618 34.4226 109.357 34.2659 109.148 34.11C109.479 33.417 110.942 30.3906 111.389 29.1606ZM90.806 21.4484C90.6493 20.9799 89.9202 20.8752 89.5549 20.6673C89.0337 20.4067 88.6171 19.8855 89.0337 19.3115C90.0234 18.0748 92.3478 18.7654 92.8381 19.9894C93.046 20.4587 92.9421 21.2405 92.2649 21.2925C92.1838 21.2978 92.1073 21.3324 92.0498 21.3899C91.9923 21.4475 91.9577 21.5239 91.9524 21.6051C91.7096 23.472 91.5703 25.3508 91.5351 27.2331C91.1705 27.1811 90.8572 27.1284 90.4934 27.0764C90.8165 21.5765 90.8384 21.6111 90.806 21.4484ZM63.6043 23.6892C63.6043 23.5333 63.3957 23.4813 63.2917 23.4813C62.3013 23.6892 60.9989 23.3247 60.8942 22.1783C60.7903 20.9799 62.25 20.7193 63.1351 20.6673C63.7214 20.5692 64.3237 20.6605 64.8547 20.9279C65.0799 21.0445 65.2649 21.226 65.3858 21.4489C65.5066 21.6719 65.5578 21.9259 65.5326 22.1783C65.4279 22.7515 64.8547 22.9081 64.4381 23.168C63.9169 23.4813 64.0208 23.8979 64.1255 24.4191C64.4901 25.7749 64.8034 27.1307 65.1672 28.4865C65.0113 28.5384 64.8547 28.5384 64.6987 28.5904C64.2815 26.9205 63.8649 25.3079 63.6043 23.6892ZM39.5812 34.8933C39.5293 34.7366 39.3214 34.7366 39.2167 34.7886C38.3309 35.2579 36.9239 35.2579 36.5593 34.0595C36.1948 32.9131 37.5491 32.3399 38.3829 32.0258C38.9387 31.7776 39.5569 31.7049 40.1552 31.8172C40.3838 31.8869 40.5903 32.0148 40.7547 32.1883C40.919 32.3618 41.0356 32.5749 41.0929 32.8069C41.1449 33.4328 40.5717 33.6927 40.2072 34.11C39.6558 34.7397 40.3473 35.3837 42.2408 38.8552C42.1321 38.9585 42.0094 39.046 41.8763 39.1151C40.9901 37.7772 40.2221 36.3646 39.5812 34.8933ZM22.4373 52.6624C22.3341 52.609 22.1247 52.6105 22.0727 52.7671C21.6554 53.6529 20.6657 54.434 19.676 53.9135C18.4769 53.2876 19.3107 51.8798 19.8319 51.0468C20.3012 50.3177 21.3429 49.3799 22.2814 50.0571C22.7499 50.4216 22.6459 51.0468 22.542 51.568C22.3853 52.1932 22.7499 52.4538 23.2711 52.6624C24.6781 53.2876 26.0851 53.9135 27.4401 54.5387C27.3499 54.6662 27.2795 54.8066 27.2315 54.9552C25.6083 54.2446 24.0094 53.4799 22.4373 52.6624Z" fill="#00C896"/>
<path d="M127.595 55.32C133.273 65.6888 134.873 74.2167 134.004 85.2844C134.231 85.2514 134.463 85.2688 134.682 85.3356C134.722 85.3411 134.758 85.3594 134.786 85.3876C134.838 84.5026 134.943 83.6161 134.943 82.7822C135.31 74.0736 134.064 67.739 131.034 60.6377C129.885 57.923 128.545 55.2937 127.022 52.7696C128.781 51.911 130.471 50.9178 132.077 49.7989C132.4 50.3745 132.803 50.9011 133.275 51.3626C133.796 51.8311 134.37 51.6224 134.682 50.9973C135.255 49.7469 134.318 48.1833 133.64 47.1416C132.837 45.9364 131.811 44.3298 130.461 44.8488C129.825 45.1034 129.438 46.0343 129.992 47.1416C130.076 47.3909 130.58 48.0499 130.513 48.1833C130.358 48.3293 130.182 48.4523 129.992 48.5486C129.096 49.2204 129.265 48.9033 126.136 51.3099C123.401 46.9268 120.049 42.9605 116.183 39.5333C115.975 39.69 115.819 39.8979 115.61 40.0546C120.478 44.3924 124.537 49.5613 127.595 55.32ZM130.357 48.9628C130.565 48.8069 130.878 48.7022 131.035 48.4416C131.296 48.0251 130.775 47.3472 130.619 46.9826C130.41 46.5661 130.201 45.8882 130.619 45.4717C131.139 44.9505 131.869 45.6803 132.233 46.0969C133.063 47.0505 133.716 48.1445 134.162 49.3274C134.463 50.238 134.268 51.1261 133.901 50.943C133.375 50.4258 132.936 49.8277 132.599 49.1715C132.581 49.1348 132.555 49.1025 132.523 49.0768C132.491 49.0511 132.454 49.0327 132.414 49.0227C132.375 49.0128 132.333 49.0115 132.293 49.0192C132.253 49.0268 132.215 49.043 132.182 49.0668C130.486 50.2487 128.71 51.3111 126.866 52.2461C126.71 52.0375 126.605 51.7769 126.45 51.5682C127.258 50.9491 130.204 49.0653 130.357 48.9628Z" fill="#00C896"/>
<path d="M133.379 90.2352C132.354 96.7436 130.241 103.033 127.128 108.84C127.394 108.898 127.633 109.045 127.806 109.257C130.982 103.376 133.132 96.997 134.163 90.3934C133.894 90.3911 133.628 90.3374 133.379 90.2352Z" fill="#00C896"/>
<path d="M33.3807 112.172C33.3728 112.099 33.3912 112.025 33.4326 111.964C33.5309 111.803 33.6763 111.675 33.8491 111.599C29.2395 104.53 25.386 96.3361 23.4796 88.2533C23.2755 88.3996 23.0455 88.506 22.8017 88.5666C24.568 96.3361 29.0527 105.798 33.3807 112.172Z" fill="#00C896"/>
<path d="M56.7776 40.6254C56.9825 40.3781 57.1408 40.0955 57.2446 39.7916C57.3036 39.5083 57.2864 39.2144 57.1949 38.9398C57.1033 38.6653 56.9406 38.4199 56.7234 38.2287C55.629 37.2382 54.118 37.7075 52.9716 38.2807C49.7531 39.8127 52.0738 43.3069 54.8471 41.9804C55.8896 43.804 56.984 45.6283 58.1824 47.3479C58.2863 47.4518 58.495 47.3479 58.391 47.2432C57.2966 45.3157 56.1502 43.3875 55.2644 41.4073C55.2415 41.3684 55.2109 41.3347 55.1745 41.3082C55.138 41.2817 55.0965 41.2629 55.0525 41.2531C55.0085 41.2433 54.963 41.2426 54.9187 41.2511C54.8744 41.2596 54.8324 41.2771 54.7952 41.3026C53.9094 41.7718 52.5024 41.8238 52.1378 40.6247C51.7725 39.4783 53.1275 38.9051 53.9614 38.591C54.5188 38.3429 55.1387 38.2709 55.7382 38.3846C55.9669 38.4545 56.1736 38.5825 56.338 38.7561C56.5025 38.9297 56.6192 39.143 56.6767 39.3751C56.7287 40.0002 56.1555 40.2609 55.7902 40.6774C55.4249 41.0939 55.6862 41.5632 55.8949 41.9804C56.6767 43.3362 57.4058 44.692 58.1877 45.9928C58.3963 46.3574 58.9168 46.0448 58.7609 45.6802C58.3436 44.9504 56.3634 41.4622 56.3114 41.3026C56.2044 41.0427 56.621 40.7821 56.7776 40.6254Z" fill="#00C896"/>
<path d="M20.457 83.3553C20.2903 83.0794 20.0791 82.833 19.8318 82.6262C19.5807 82.4729 19.2922 82.3917 18.998 82.3917C18.7038 82.3917 18.4153 82.4729 18.1642 82.6262C16.8611 83.3041 16.8084 84.8663 16.9138 86.1663C17.2272 89.7742 21.3902 88.6459 21.0301 85.6451C23.1188 85.2981 25.1885 84.8456 27.2314 84.2893C27.2621 84.2788 27.2879 84.2574 27.3041 84.2293C27.3203 84.2011 27.3257 84.1681 27.3193 84.1363C27.313 84.1044 27.2953 84.076 27.2696 84.0562C27.2438 84.0364 27.2118 84.0266 27.1794 84.0287C24.9906 84.4452 22.8017 84.8098 20.6136 85.0184C20.457 85.0184 20.353 85.227 20.353 85.383C20.5089 86.4247 20.0924 87.7277 18.8413 87.6765C17.6429 87.6238 17.591 86.2168 17.539 85.279C17.4902 84.6758 17.6362 84.0728 17.9555 83.5587C18.0871 83.3557 18.2771 83.1974 18.5004 83.1045C18.7237 83.0116 18.9699 82.9885 19.2066 83.0382C19.7798 83.1949 19.8845 83.8193 20.0924 84.2893C20.353 84.8098 20.8742 84.7058 21.3427 84.6011L25.8763 83.8193C26.2936 83.7681 26.1889 83.1414 25.7724 83.1949C24.9386 83.3508 20.9782 84.0287 20.8215 84.0287C20.6648 84.0287 20.5571 83.5142 20.457 83.3553Z" fill="#00C896"/>
<path d="M61.6759 110.504C61.7776 111.443 61.8845 112.328 62.0405 112.328C73.2694 114.602 87.0849 113.345 97.9967 111.13C98.8306 110.974 98.4652 107.013 98.4652 106.284C98.4652 101.281 98.3613 96.1222 96.8504 91.276C96.6417 90.6509 94.8167 90.7548 94.297 90.7028C83.9372 89.8389 74.9182 90.6591 64.386 92.1098C63.1349 92.2657 61.9365 92.5264 60.6862 92.7877C60.6194 92.8059 60.5615 92.8477 60.5231 92.9053C60.4847 92.9629 60.4686 93.0324 60.4775 93.1011C60.302 98.7163 61.0184 104.424 61.6759 110.504ZM65.5843 108.368C84.3681 109.666 85.4444 108.067 85.9596 108.576C86.0635 108.681 85.9596 108.733 85.8549 108.785C79.5279 110.051 70.1127 109.261 63.6561 108.681C63.0829 108.629 63.2396 108.159 63.6041 107.951C64.0194 107.721 64.485 107.596 64.9599 107.587C69.3369 107.117 73.7138 106.648 78.1412 107.066C78.1783 107.066 78.2148 107.075 78.2475 107.092C78.2801 107.11 78.308 107.135 78.3286 107.166C78.3493 107.197 78.362 107.232 78.3657 107.269C78.3694 107.306 78.3639 107.343 78.3499 107.378C78.3011 107.439 78.2365 107.486 78.163 107.514C78.0894 107.541 78.0098 107.548 77.9326 107.534C73.2431 107.638 68.6047 107.848 63.9152 108.315C64.438 108.312 65.0096 108.329 65.5843 108.368ZM94.1923 107.482C93.0451 107.948 91.5349 108.368 90.3365 108.003C90.3014 107.988 90.2715 107.962 90.2506 107.93C90.2297 107.897 90.2185 107.859 90.2185 107.821C90.2185 107.782 90.2297 107.744 90.2506 107.712C90.2715 107.68 90.3014 107.654 90.3365 107.638C91.0657 107.43 91.7955 107.43 92.5254 107.274C90.762 107.056 88.9866 106.952 87.2099 106.961C87.1655 106.96 87.1227 106.944 87.0894 106.914C87.056 106.885 87.0342 106.845 87.028 106.801C87.0217 106.757 87.0314 106.712 87.0552 106.674C87.079 106.637 87.1155 106.609 87.158 106.596C89.5009 106.291 91.8782 106.379 94.1923 106.856C94.5576 106.909 94.4536 107.377 94.1923 107.484V107.482ZM92.8365 96.8513C93.0443 96.9041 94.7639 97.2686 94.2435 97.6332C93.7646 97.9148 93.2318 98.0924 92.6798 98.1544C91.0273 98.5718 89.3293 98.7818 87.625 98.7796C87.5996 98.7819 87.5741 98.7789 87.55 98.7708C87.5259 98.7626 87.5037 98.7496 87.485 98.7324C87.4662 98.7153 87.4512 98.6944 87.4409 98.6711C87.4306 98.6479 87.4253 98.6227 87.4253 98.5973C87.4253 98.5718 87.4306 98.5467 87.4409 98.5234C87.4512 98.5002 87.4662 98.4793 87.485 98.4621C87.5037 98.445 87.5259 98.4319 87.55 98.4238C87.5741 98.4157 87.5996 98.4127 87.625 98.415C89.3728 98.3531 91.1061 98.073 92.7845 97.5812C89.8844 97.1767 86.9488 97.0896 84.0299 97.3213C83.9854 97.3206 83.9426 97.3041 83.9093 97.2747C83.8759 97.2453 83.8542 97.2049 83.8479 97.1609C83.8416 97.1168 83.8513 97.072 83.8751 97.0345C83.8989 96.9969 83.9354 96.9691 83.9779 96.956C86.9109 96.4961 89.8949 96.4608 92.838 96.8513H92.8365ZM75.2767 98.0504C74.0784 98.2583 72.7753 98.1544 71.525 98.2583C70.2219 98.3111 68.9196 98.4677 67.6685 98.6236C66.1334 98.7615 64.6022 99.0989 64.279 99.1449C66.8949 99.5765 72.8145 99.5215 73.6069 99.7173C73.8155 99.77 73.8155 100.031 73.6069 100.135C73.1455 100.241 72.6733 100.293 72.1998 100.291C69.8156 100.405 67.426 100.3 65.0609 99.9779C64.1548 99.9753 63.2559 99.8168 62.4035 99.5094C62.2988 99.4567 61.7776 99.2488 62.0909 99.0929C63.1208 98.657 64.2094 98.3758 65.3215 98.2583C67.606 97.8817 73.1158 97.1895 75.1705 97.5804C75.4854 97.6332 75.4854 97.9977 75.2767 98.0504Z" fill="#00C896"/>
<path d="M47.6582 108.056C47.9188 108.263 48.1794 108.473 48.492 108.681C48.544 109.097 48.6479 109.463 48.6999 109.879C49.1473 113.158 49.5623 116.687 52.3997 118.634C55.6092 120.84 60.5435 120.668 64.4376 120.668C67.043 120.668 75.9535 120.772 77.7778 120.721C77.8654 121.632 78.0045 122.537 78.1943 123.432C78.3165 124.332 78.5081 125.221 78.7675 126.091C78.9242 126.194 79.1848 126.246 79.2368 126.038C79.2912 125.425 79.2382 124.808 79.0801 124.214C79.0282 123.954 78.5589 120.774 78.351 120.774C79.6541 120.723 80.9044 120.67 82.2067 120.619C82.1548 120.984 81.9988 122.653 81.9988 123.12C81.9626 124.063 82.0323 125.007 82.2067 125.934C82.3114 126.142 82.5713 126.038 82.624 125.881C82.7365 125.439 82.7716 124.98 82.728 124.525C82.728 121.302 82.8545 121.085 82.7807 120.565C85.3333 120.408 96.4847 119.315 99.5074 118.949C104.873 118.293 110.199 117.924 112.17 112.748C112.605 111.403 112.936 110.027 113.16 108.632C113.265 108.632 114.047 108.423 114.203 108.111C114.228 108.067 114.245 108.018 114.251 107.968C114.257 107.917 114.253 107.866 114.238 107.817C114.223 107.768 114.199 107.723 114.166 107.684C114.133 107.645 114.092 107.613 114.047 107.59C113.936 107.526 113.81 107.492 113.682 107.492C113.554 107.492 113.428 107.526 113.317 107.59C113.421 106.755 113.577 105.974 113.681 105.141C114.498 98.437 114.249 92.0165 114.829 85.1299C115.762 84.4045 116.649 83.6214 117.485 82.7851C117.85 82.4206 117.277 81.8474 116.913 82.2119C116.291 82.8441 115.629 83.4361 114.932 83.9842C115.114 82.4279 115.166 80.859 115.088 79.294C114.763 72.1572 110.515 68.9749 103.676 68.9749C102.217 68.9229 88.1473 69.1835 82.624 69.7048C81.165 69.8607 79.7618 70.0173 78.2983 70.174C78.2655 70.1765 78.2349 70.1913 78.2126 70.2154C78.1903 70.2395 78.1779 70.2711 78.1779 70.3039C78.1779 70.3368 78.1903 70.3684 78.2126 70.3925C78.2349 70.4166 78.2655 70.4314 78.2983 70.4339C86.5437 69.6803 94.8278 69.4368 103.103 69.7048C105.449 69.7567 107.848 69.9654 109.93 71.1125C114.148 73.4573 114.515 78.772 114.098 83.045C114.047 83.5662 113.994 84.1394 113.942 84.6606C112.909 85.4218 111.83 86.1181 110.711 86.7455C110.659 85.1291 110.555 83.5662 110.45 81.9506C109.933 74.1924 106.899 73.092 99.8199 73.092C85.1465 73.092 82.2323 73.7917 58.445 75.6454C54.764 75.8917 50.8127 76.6735 49.5857 80.179C49.0652 81.6387 49.2731 83.2536 49.4298 84.7653C49.5854 86.8497 49.846 88.9336 50.2116 91.017C48.5988 90.2036 47.1078 89.1684 45.7819 87.9416C45.4694 85.8575 45.2087 83.7236 44.9481 81.6372C44.3953 76.9334 45.5808 75.1558 50.003 73.8723C56.8265 72.046 63.8383 71.0143 70.8987 70.7977C71.264 70.7977 71.316 70.1725 70.8987 70.1725C64.1792 70.234 57.4931 71.1263 50.9927 72.8291C49.2731 73.2984 47.4526 73.7669 46.0426 74.9133C45.3708 75.5213 44.8442 76.2725 44.5015 77.1112C44.1588 77.95 44.0087 78.855 44.0623 79.7594C44.0623 80.7499 44.8442 86.7433 44.8962 87.1078C44.7672 86.9908 44.6278 86.8859 44.4796 86.7945C44.3749 86.7433 44.219 86.8472 44.219 87.0031C44.3773 87.4756 44.6449 87.904 45.0001 88.2535C46.3446 97.3674 47.9648 106.667 48.1794 107.952C48.0228 107.899 47.8141 107.795 47.6582 107.743C47.6582 107.691 47.5015 107.952 47.6582 108.056ZM49.1172 91.3801C49.5834 91.6452 50.003 91.8493 50.473 92.1099C50.8074 93.9854 51.5222 97.5022 52.0359 99.3536C52.0879 99.5095 52.2965 99.4576 52.2445 99.3009C51.88 97.0089 51.4627 94.7673 51.0981 92.4752C52.5026 93.0994 53.97 93.5711 55.4751 93.8822C56.2923 94.0329 58.0774 94.3568 58.9662 94.0901C59.2796 93.9854 59.3316 93.4642 58.9662 93.4122C58.0699 93.2134 55.5866 93.5968 50.8895 91.4328C50.3774 88.4328 50.0469 85.4046 49.8998 82.3648C49.8686 81.2007 50.2361 80.0609 50.9415 79.1343C52.4005 77.3635 54.9019 76.8935 57.0388 76.6328C57.2451 76.6072 67.7073 75.7697 67.9815 75.7471C80.0427 74.7016 90.4093 73.8015 101.28 73.9763C103.572 74.0275 106.438 74.1841 107.95 76.1643C108.754 77.3597 109.238 78.7411 109.357 80.1767C109.575 81.7547 109.826 86.1452 109.826 87.3157C105.231 89.7177 101.807 90.6299 98.3617 92.1099C98.1538 92.2146 98.205 92.5265 98.4657 92.4752C102.386 91.4588 106.193 90.0442 109.826 88.2535C109.935 90.9476 109.865 93.646 109.618 96.331C109.565 97.2695 109.565 98.2584 109.513 99.1969C109.511 99.25 109.528 99.3019 109.563 99.3425C109.597 99.3831 109.645 99.4093 109.698 99.4158C109.75 99.4224 109.804 99.4088 109.847 99.3779C109.89 99.347 109.92 99.3009 109.93 99.2489C110.286 97.2706 110.478 95.2663 110.504 93.2563C110.556 91.4328 110.607 89.6093 110.556 87.8332C111.633 87.2694 112.677 86.6432 113.682 85.9577C113.107 93.767 113.456 100.624 112.171 108C111.841 108 111.609 108.202 109.357 108.52C109.909 106.662 110.138 104.724 110.035 102.788C110.039 102.735 110.022 102.682 109.987 102.64C109.953 102.599 109.904 102.572 109.851 102.565C109.798 102.559 109.744 102.573 109.701 102.605C109.657 102.637 109.628 102.684 109.619 102.737C109.253 104.717 109.149 106.804 108.419 108.73C106.605 108.973 104.778 109.112 102.948 109.146C101.698 109.198 100.447 109.093 99.197 109.146C98.9876 109.146 98.9364 109.511 99.1443 109.511C101.878 110.106 105.231 109.871 108.003 109.563C107.756 110.033 107.477 110.486 107.169 110.918C105.422 113.212 102.48 113.523 99.5616 113.941C97.738 114.254 95.8618 114.566 94.0382 114.879C94.001 114.89 93.969 114.914 93.9484 114.947C93.9278 114.98 93.92 115.02 93.9263 115.058C93.9327 115.097 93.9529 115.131 93.9831 115.156C94.0132 115.18 94.0513 115.193 94.0902 115.191C95.8106 114.984 97.5294 114.827 99.249 114.619C103.707 114.173 107.14 113.91 108.993 109.408C110.123 109.281 111.47 108.996 112.016 108.886C112.016 108.991 111.964 109.147 111.964 109.252C110.964 114.373 109.596 116.637 102.48 117.746C90.825 119.511 79.0373 120.243 67.2539 119.934C61.0022 119.772 53.2132 120.808 50.6304 115.716C49.6173 113.69 49.124 108.848 49.1714 109.254C50.545 109.972 51.996 110.532 53.4964 110.922C54.1743 115.004 55.9684 115.356 59.9582 115.667C62.2021 115.877 68.27 116.33 70.4844 116.083C70.5295 116.07 70.5691 116.043 70.5973 116.005C70.6254 115.968 70.6407 115.922 70.6407 115.875C70.6407 115.828 70.6254 115.782 70.5973 115.745C70.5691 115.707 70.5295 115.68 70.4844 115.667C69.1663 115.384 59.3481 115.064 56.9875 114.52C55.5218 114.121 54.9862 113.52 54.3822 112.071C54.2782 111.758 54.1743 111.393 54.0696 111.081C55.9339 111.598 57.8697 111.809 59.8016 111.706C59.9052 111.706 60.0047 111.665 60.078 111.592C60.1513 111.519 60.1925 111.419 60.1925 111.315C60.1925 111.212 60.1513 111.112 60.078 111.039C60.0047 110.966 59.9052 110.925 59.8016 110.925C57.799 110.928 55.8038 110.683 53.8617 110.195C53.6156 109.234 53.424 108.26 53.2877 107.277C53.2877 107.173 53.0799 107.173 53.0799 107.329C53.0974 108.253 53.1669 109.175 53.2877 110.091C51.7943 109.697 50.3442 109.155 48.959 108.472C48.3188 104.265 48.0054 104.357 45.7285 89.2439C46.0154 89.5309 48.84 91.2234 49.1172 91.3801Z" fill="#2B2E3F"/>
<path d="M70.2755 86.378C70.9052 86.0003 71.4401 85.4834 71.8392 84.8671C72.1518 84.4498 72.8809 83.564 72.621 82.9908C72.5786 82.9357 72.5227 82.8923 72.4587 82.8649C72.3948 82.8375 72.3249 82.8269 72.2557 82.8341C71.7872 82.9908 71.5266 83.8246 71.3179 84.2411C70.9136 84.8534 70.4787 85.4449 70.0149 86.0135C69.8575 86.2733 70.1181 86.482 70.2755 86.378Z" fill="#2B2E3F"/>
<path d="M89.4509 84.2929C89.4845 84.2617 89.5103 84.2231 89.5263 84.1801C89.5423 84.1371 89.5479 84.0909 89.5428 84.0454C89.5376 83.9998 89.5219 83.956 89.4968 83.9177C89.4717 83.8793 89.4379 83.8474 89.3982 83.8244C88.8235 83.441 87.6741 84.0263 86.2196 81.8442C86.1848 81.7871 86.1323 81.7428 86.0701 81.718C86.0079 81.6933 85.9394 81.6894 85.8748 81.707C85.8102 81.7246 85.7531 81.7627 85.712 81.8156C85.671 81.8684 85.6482 81.9332 85.6472 82.0001C85.8716 83.9155 88.703 85.1885 89.4509 84.2929Z" fill="#2B2E3F"/>
<path d="M79.3939 73.0378C79.523 72.9869 79.6392 72.9082 79.7343 72.8071C79.8294 72.7061 79.901 72.5853 79.944 72.4534C79.9871 72.3215 80.0004 72.1818 79.9832 72.0441C79.9659 71.9064 79.9185 71.7743 79.8442 71.657C79.77 71.5398 79.6708 71.4405 79.5537 71.366C79.4366 71.2916 79.3045 71.244 79.1669 71.2265C79.0292 71.209 78.8894 71.2222 78.7574 71.265C78.6255 71.3078 78.5046 71.3792 78.4034 71.4742C77.5252 72.3615 78.0253 73.492 79.3939 73.0378Z" fill="#2B2E3F"/>
<path d="M69.9614 126.19C72.3313 125.468 74.7529 124.928 77.2051 124.574C77.361 124.574 77.309 124.262 77.1524 124.262C74.5449 124.319 71.9616 124.776 69.4929 125.618C68.0859 126.088 65.7411 127.495 67.1481 129.214C67.5441 129.663 68.0737 129.974 68.6591 130.1C73.8706 131.589 85.376 129.622 90.9618 128.224C92.1122 127.995 93.1976 127.514 94.1404 126.817C94.4124 126.608 94.6168 126.323 94.7281 125.999C94.8394 125.674 94.8527 125.324 94.7663 124.992C94.0365 122.23 89.2422 122.752 87.2101 123.012C86.8455 123.065 86.8455 123.586 87.2101 123.586C88.3559 123.465 89.5128 123.5 90.6492 123.69C91.6397 123.847 93.046 124.107 93.7239 124.889C94.8695 126.245 91.7429 127.077 90.9618 127.286C83.9343 129.256 75.3092 130.062 72.1503 129.891C71.0558 129.839 68.0339 129.891 67.5127 128.536C67.124 127.293 68.7028 126.548 69.9614 126.19Z" fill="#2B2E3F"/>
<path d="M69.9612 132.287C73.6196 133.067 82.8194 132.67 89.816 130.671C91.3262 130.255 93.619 129.734 94.6095 128.483C94.7661 128.275 94.5575 127.962 94.3489 128.118C92.108 129.629 88.9295 130.046 86.3241 130.567C82.3923 131.359 78.4 131.812 74.3909 131.923C71.9323 132.104 69.4661 131.693 67.1992 130.724C67.0433 130.621 66.8866 130.828 66.9913 130.984C67.8373 131.692 68.8676 132.144 69.9612 132.287Z" fill="#2B2E3F"/>
<path d="M59.9563 87.8898C59.9498 87.5054 59.9151 87.122 59.8523 86.7427C59.8003 86.6907 59.6956 86.6388 59.6437 86.6907C59.3507 87.0568 59.5397 88.0736 59.5397 88.7749C59.5397 88.9315 59.2791 89.8693 58.9665 89.7134C58.6539 89.5575 59.1224 88.4111 59.1744 88.1505C59.3831 87.1009 59.3831 86.0206 59.1744 84.9711C59.1744 84.8664 58.9665 84.8664 58.9665 85.0239C59.0187 85.9307 58.9661 86.8406 58.8099 87.7354C58.7059 88.3614 58.08 89.5078 58.6012 90.0809C59.1646 90.5366 60.1822 89.6802 59.9563 87.8898Z" fill="#2B2E3F"/>
<path d="M93.9316 80.0727V81.2718C93.9316 81.7403 94.0882 82.5222 94.7134 82.4702C95.7905 82.3806 95.1894 80.4825 95.078 78.9301C95.078 78.7734 94.974 78.5128 94.8181 78.5128C94.7605 78.5226 94.7064 78.5469 94.6608 78.5834C94.6152 78.6199 94.5797 78.6674 94.5575 78.7215C94.4912 78.854 94.7292 80.0644 94.8181 81.5837C94.8181 81.7923 94.6614 82.1569 94.5055 81.8963C94.2449 81.5837 94.4008 80.6979 94.4528 80.3326C94.5277 79.4603 94.3845 78.5831 94.0363 77.7799C94.0345 77.7528 94.0229 77.7271 94.0036 77.7079C93.9844 77.6886 93.9588 77.677 93.9316 77.6752C93.7237 77.5713 93.9316 78.2484 93.9316 78.3531C93.9754 78.6811 93.993 79.0121 93.9843 79.3429C93.9386 79.5833 93.9209 79.8282 93.9316 80.0727Z" fill="#2B2E3F"/>
<path d="M96.2253 85.8047C96.2803 86.2724 96.6418 87.4715 97.3197 86.8991C97.7882 86.5338 97.6323 85.7007 97.5803 85.1795C97.5379 84.0853 97.3629 83.0002 97.0591 81.9482C97.046 81.9057 97.0182 81.8692 96.9806 81.8454C96.9431 81.8216 96.8983 81.8119 96.8542 81.8182C96.8102 81.8245 96.7699 81.8462 96.7404 81.8796C96.711 81.9129 96.6945 81.9557 96.6938 82.0002C96.6938 83.0712 97.1111 83.9382 97.1111 85.9086C97.1111 86.0653 97.163 86.3259 97.0591 86.4818C96.4565 87.0844 96.5755 84.2455 96.5379 83.5631C96.4859 82.782 96.3292 82.0002 96.2772 81.2183C96.2745 81.1787 96.2568 81.1417 96.2278 81.1146C96.1988 81.0876 96.1606 81.0725 96.121 81.0725C96.0813 81.0725 96.0431 81.0876 96.0141 81.1146C95.9851 81.1417 95.9674 81.1787 95.9647 81.2183C95.947 81.9495 95.9818 82.681 96.0686 83.4072C96.1726 84.134 96.1266 84.9693 96.2253 85.8047Z" fill="#2B2E3F"/>
<path d="M73.036 56.8317C72.5675 55.268 71.1605 55.4759 71.3164 56.9876C71.3684 57.6655 71.7856 58.6552 72.4628 58.5512C73.3486 58.4496 73.1926 57.3529 73.036 56.8317Z" fill="#2B2E3F"/>
<path d="M82.155 54.3822C81.6865 52.8193 80.2787 53.0264 80.4354 54.5388C80.4874 55.2167 80.9046 56.2065 81.5818 56.1018C82.4676 55.9978 82.3116 54.9034 82.155 54.3822Z" fill="#2B2E3F"/>
<path d="M77.9341 61.2606C79.3085 60.9935 80.6292 60.5005 81.8425 59.8016C82.8965 59.2028 83.8909 58.505 84.8125 57.7175C86.0929 60.6385 84.3477 63.2228 81.0087 61.9355C80.7481 61.8308 80.5922 62.1961 80.7481 62.352C82.2636 64.0046 85.87 62.923 86.0636 59.7986C86.0358 58.8237 85.8049 57.8652 85.3857 56.9846C85.2817 56.672 85.0211 56.4641 84.7605 56.724C83.7454 57.6265 82.6459 58.4293 81.4772 59.1215C80.4355 59.7994 78.3506 60.4238 77.8294 60.7371C77.6215 60.948 77.6735 61.2606 77.9341 61.2606Z" fill="#2B2E3F"/>
<path d="M74.7035 54.4868C74.8896 54.1101 74.5529 54.1214 74.0783 54.1214C72.3053 54.1214 71.958 54.2359 70.1699 53.5483C69.9093 53.4443 69.7526 53.8608 69.9613 53.9655C71.7524 55.2053 74.1974 54.9929 74.7035 54.4868Z" fill="#2B2E3F"/>
<path d="M81.6858 51.6208C81.8033 51.4581 81.9352 50.9896 81.7386 50.891C81.1111 50.5784 80.5153 52.3808 78.9765 53.2357C78.6639 53.4444 78.9246 53.9136 79.2371 53.705C80.1517 53.1348 80.9768 52.4325 81.6858 51.6208Z" fill="#2B2E3F"/>
<path d="M14.2559 98.8843C14.5195 99.0349 14.7251 98.6237 14.5165 98.467C11.7552 96.6435 8.9427 94.6113 7.01296 91.9012C2.74449 85.9727 4.56652 80.0697 9.67031 74.9659C13.2244 71.4123 17.4837 68.6429 22.1737 66.8364C22.8915 66.4779 26.8821 65.2547 27.3325 65.1168C27.3803 65.1021 27.4214 65.0709 27.4486 65.0288C27.4758 64.9868 27.4872 64.9365 27.481 64.8868C27.4748 64.8371 27.4513 64.7912 27.4147 64.7571C27.378 64.723 27.3305 64.7029 27.2805 64.7003C22.3274 65.2946 15.1997 68.4182 9.6673 73.7148C2.88308 80.1977 2.56899 86.3583 5.55097 91.328C7.58616 94.7152 10.9018 96.95 14.2559 98.8843Z" fill="#2B2E3F"/>
<path d="M112.952 41.0419C112.796 41.1986 113.056 41.4592 113.212 41.3025C130.009 25.9052 151.284 38.2994 144.739 56.1017C144.727 56.1418 144.729 56.1849 144.746 56.2234C144.763 56.2618 144.792 56.2932 144.83 56.3119C144.867 56.3307 144.91 56.3356 144.951 56.3258C144.992 56.316 145.027 56.2921 145.052 56.2584C146.793 53.1919 147.314 49.582 146.511 46.1487C143.752 34.3232 129.669 29.9327 118.004 37.0393C116.157 38.1536 114.459 39.4986 112.952 41.0419Z" fill="#2B2E3F"/>
<path d="M134.161 54.3303C134.117 54.36 134.085 54.4054 134.073 54.4572C134.061 54.5091 134.069 54.5637 134.095 54.61C134.122 54.6562 134.165 54.6908 134.216 54.7067C134.267 54.7226 134.322 54.7186 134.37 54.6956C134.787 54.4713 135.251 54.3463 135.725 54.3303C136.554 54.3303 136.772 55.2982 137.392 56.4152C137.534 56.794 137.709 57.1599 137.913 57.5089C138.018 57.6655 138.487 58.0821 138.539 57.6136C138.643 56.4672 137.81 55.2161 137.132 54.3823C136.273 53.2788 135.33 53.5537 134.161 54.3303Z" fill="#2B2E3F"/>
<path d="M138.643 53.0263C137.704 52.7747 137.041 53.3004 137.34 53.5995C137.401 53.6168 137.465 53.621 137.528 53.6119C137.59 53.6028 137.651 53.5806 137.704 53.5467C139.272 52.8869 139.663 56.4481 139.893 57.1426C139.945 57.2992 139.998 57.4552 140.154 57.4032C140.206 57.4032 140.258 57.3512 140.31 57.2992C140.971 56.6417 139.932 53.3735 138.643 53.0263Z" fill="#2B2E3F"/>
<path d="M141.509 56.8315C141.52 56.9068 141.473 58.0652 141.926 57.6133C142.242 57.1956 142.39 56.675 142.342 56.1536C142.342 55.2678 142.134 53.9135 141.352 53.3403C141.177 53.2088 140.962 53.1422 140.743 53.1516C140.525 53.1611 140.316 53.2462 140.154 53.3923C139.945 53.5482 140.206 53.9135 140.466 53.7568C141.454 53.0262 141.509 55.789 141.509 56.8315Z" fill="#2B2E3F"/>
<path d="M133.536 56.9883C133.077 59.6487 136.12 62.9297 139.997 62.4597C140.692 62.4254 141.366 62.2164 141.959 61.8519C142.551 61.4875 143.042 60.9794 143.386 60.3748C143.883 59.2266 144.098 57.9759 144.012 56.7277C143.959 55.4246 144.064 53.4444 142.552 52.9232C142.345 52.8193 142.189 53.2358 142.396 53.2885C143.543 53.809 143.334 55.4246 143.334 56.4671C143.379 57.5256 143.238 58.5838 142.918 59.5937C141.928 62.251 138.172 62.1471 136.196 60.7401C135.589 60.3077 135.075 59.7584 134.684 59.1244C134.303 58.4812 134.038 57.7756 133.902 57.0403C133.909 56.9916 133.897 56.9423 133.867 56.903C133.838 56.8637 133.794 56.8378 133.745 56.8309C133.696 56.824 133.647 56.8367 133.608 56.8662C133.568 56.8958 133.543 56.9397 133.536 56.9883Z" fill="#2B2E3F"/>
<path d="M18.7891 96.4349C16.7163 95.7442 15.8019 98.6946 15.5066 100.865C15.3499 101.802 15.194 103.001 15.7672 103.835C16.6063 104.979 18.2159 104.588 19.6229 104.304C20.3495 104.162 21.0518 103.917 21.7078 103.574C21.8637 103.523 21.7598 103.262 21.6031 103.313C20.4666 103.652 19.2955 103.862 18.112 103.938C16.8511 104.079 16.1498 103.699 16.0278 102.48C15.9758 101.2 16.1886 99.9222 16.653 98.7277C17.0175 97.8419 17.5907 96.694 18.7371 96.7995C18.9977 96.9042 18.9977 96.5389 18.7891 96.4349Z" fill="#2B2E3F"/>
<path d="M20.2481 96.2269C19.6378 96.6009 19.1491 97.1438 18.841 97.7899C18.5812 98.3111 18.06 99.1961 18.2678 99.7701C18.3206 99.9267 18.4765 99.9779 18.5812 99.874C18.7597 99.544 18.8994 99.1944 18.9977 98.8323C19.1897 98.2748 19.4908 97.7612 19.8835 97.3213C20.0923 97.0898 20.3391 96.8957 20.6134 96.7474C20.874 96.6435 21.4472 96.7474 21.6031 96.4348C21.7078 96.2269 21.4472 96.0183 21.2905 95.9663C21.1088 95.9186 20.9181 95.9175 20.7359 95.963C20.5537 96.0086 20.3859 96.0994 20.2481 96.2269Z" fill="#2B2E3F"/>
<path d="M23.7921 95.8617C22.7511 96.1169 21.8306 96.7245 21.1867 97.5813C21.0828 97.79 20.3529 99.4056 20.9781 99.3009C21.1348 99.3009 21.1867 99.093 21.1867 98.9356C21.2911 98.4212 21.529 97.9434 21.8766 97.5502C22.2242 97.157 22.6692 96.8622 23.1669 96.6956C23.4275 96.5909 24.5739 96.4877 24.5227 96.1743C24.5739 95.809 24.2094 95.7578 23.7921 95.8617Z" fill="#2B2E3F"/>
<path d="M24.6781 97.7901C24.8347 97.7381 24.73 97.4775 24.5741 97.5302C24.0839 97.6271 23.6318 97.8623 23.2711 98.2081C22.7836 98.696 22.441 99.3095 22.2813 99.9804C22.2151 100.205 22.1947 100.441 22.2215 100.674C22.2483 100.907 22.3217 101.132 22.4372 101.336C22.5863 101.51 22.7698 101.65 22.9761 101.749C23.1824 101.848 23.407 101.902 23.6356 101.909C24.1568 101.962 25.1473 101.962 25.4599 101.441C25.6685 101.128 25.1473 101.128 24.9907 101.18C24.4694 101.284 23.2711 101.649 22.957 100.972C22.3582 99.9179 23.6567 98.2435 24.6781 97.7901Z" fill="#2B2E3F"/>
<path d="M83.4053 35.2579C83.9438 33.9112 82.1497 32.1554 80.1228 32.34C79.0803 32.4439 77.726 33.3817 78.2473 34.5808C78.6668 35.5886 80.0128 35.7212 80.2267 35.9366C80.0224 38.3983 80.0053 40.8719 80.1755 43.3362C80.1755 43.3775 80.1919 43.4172 80.2212 43.4464C80.2504 43.4757 80.2901 43.4921 80.3314 43.4921C80.3728 43.4921 80.4124 43.4757 80.4417 43.4464C80.4709 43.4172 80.4873 43.3775 80.4873 43.3362C80.592 42.0339 80.9039 35.9893 80.7999 35.7287C80.644 35.2594 79.9149 35.1555 79.5496 34.9468C77.8383 34.0912 79.6121 32.291 81.6345 33.1753C83.3202 33.9285 83.1763 35.5012 82.2596 35.572C82.103 35.572 81.999 35.7287 81.9463 35.8846C81.7041 37.8214 81.5651 39.7697 81.5298 41.7213C81.5335 41.7947 81.5654 41.864 81.6187 41.9146C81.6721 41.9653 81.7428 41.9936 81.8164 41.9936C81.8899 41.9936 81.9607 41.9653 82.014 41.9146C82.0674 41.864 82.0992 41.7947 82.103 41.7213C82.2069 39.845 82.3109 38.0215 82.5715 36.1475C82.9477 35.9614 83.2439 35.6454 83.4053 35.2579Z" fill="#00C896"/>
<path d="M42.7603 55.6331C41.9958 54.4491 39.5049 54.6713 38.4346 56.5189C37.9141 57.4047 37.8094 59.0723 39.1125 59.3329C40.2227 59.589 41.1665 58.5097 41.3533 58.6031C41.826 58.9599 42.2787 59.3426 42.7091 59.7494C43.5943 60.516 44.5754 61.1642 45.6278 61.6777C45.7837 61.7816 45.9404 61.5737 45.7837 61.4171C44.794 60.5313 41.7164 58.0818 41.5107 58.0276C41.0422 57.8717 40.521 58.3922 40.155 58.5488C38.3954 59.4286 38.0927 56.9513 39.9463 55.8373C41.5778 54.9334 42.7912 56.0082 42.2911 56.7238C42.2472 56.7875 42.2282 56.8651 42.2378 56.9419C42.2474 57.0187 42.2848 57.0893 42.3431 57.1403C43.5191 58.3029 44.7733 59.3835 46.0971 60.3746C46.1597 60.4084 46.2323 60.4189 46.302 60.4042C46.3716 60.3896 46.4338 60.3508 46.4776 60.2947C46.5214 60.2385 46.5438 60.1687 46.5411 60.0976C46.5383 60.0265 46.5104 59.9587 46.4624 59.9061C45.0034 58.7078 44.2735 58.0818 42.9185 56.8315C42.9944 56.6344 43.0197 56.4215 42.9921 56.2122C42.9644 56.0028 42.8848 55.8037 42.7603 55.6331Z" fill="#00C896"/>
<path d="M100.55 50.5785C100.4 50.7374 100.706 50.995 100.863 50.8911C101.905 49.9533 105.136 46.9307 105.24 46.6731C105.448 46.2038 104.875 45.6833 104.615 45.3173C104.354 44.9007 103.989 44.2228 104.354 43.7543C105.328 42.7804 107.762 45.788 108.421 46.9849C108.572 47.2801 108.678 47.5962 108.735 47.9226C108.735 48.1833 108.682 48.7565 108.317 48.5486C107.715 48.1544 107.2 47.6397 106.806 47.0369C106.781 47.0063 106.749 46.9818 106.713 46.9649C106.677 46.9481 106.638 46.9393 106.598 46.9393C106.558 46.9393 106.519 46.9481 106.483 46.9649C106.447 46.9818 106.415 47.0063 106.389 47.0369C105.66 47.7667 102.377 50.3721 101.595 51.0492C101.335 51.2579 101.648 51.6224 101.908 51.4665C103.54 50.2849 105.105 49.0151 106.598 47.6628C107.006 48.1924 107.499 48.6505 108.057 49.0186C108.682 49.4359 109.203 49.0186 109.36 48.3934C109.724 47.0376 108.526 45.6818 107.744 44.7456C106.799 43.7061 105.532 42.3044 104.305 42.974C104.073 43.1412 103.898 43.3762 103.805 43.6468C103.711 43.9173 103.704 44.2101 103.784 44.485C103.836 44.7975 104.826 46.1006 104.826 46.2573C104.719 46.4614 101.241 49.8629 100.55 50.5785Z" fill="#00C896"/>
<path d="M115.871 63.5014C115.958 63.4891 116.045 63.4718 116.131 63.4494C119.732 61.6485 119.967 61.6523 120.039 61.3653C120.24 60.7627 119.431 59.8551 119.57 59.0205C119.573 58.9009 119.609 58.7844 119.673 58.6834C119.737 58.5824 119.828 58.5007 119.935 58.4472C120.042 58.3936 120.161 58.3702 120.281 58.3794C120.4 58.3885 120.515 58.43 120.612 58.4993C121.256 59.0489 121.757 59.7468 122.072 60.533C122.454 61.2316 122.718 61.9888 122.853 62.7738C122.915 63.2694 122.986 64.1145 122.54 64.3367C122.384 64.3895 122.227 64.2848 122.072 64.1288C120.956 63.1376 120.878 62.3565 120.612 62.3565C120.499 62.3565 117.349 63.6716 116.545 64.0241C116.078 64.1801 116.195 64.5973 116.492 64.5973C116.616 64.6097 116.742 64.5918 116.857 64.5454C118.05 64.1708 119.216 63.7179 120.349 63.1896H120.4C120.407 63.1895 120.414 63.1908 120.421 63.1934C120.427 63.196 120.433 63.1999 120.438 63.2048C120.443 63.2097 120.447 63.2156 120.449 63.222C120.452 63.2285 120.453 63.2354 120.453 63.2423C120.849 63.7937 121.304 64.3003 121.809 64.7533C122.821 65.6097 123.997 64.5077 123.424 62.4085C123.116 61.0642 122.491 59.8133 121.6 58.7607C121.342 58.3867 120.98 58.0967 120.558 57.9269C120.3 57.8565 120.027 57.8747 119.781 57.9787C119.535 58.0827 119.331 58.2663 119.202 58.5001C118.774 59.2533 119.234 60.0916 119.462 61.0015C119.462 61.0535 119.515 61.1574 119.462 61.2094L119.306 61.366C118.264 61.8873 117.222 62.4605 116.179 62.9817C116.183 62.88 115.296 63.5014 115.871 63.5014Z" fill="#00C896"/>
<path d="M132.233 86.7947C131.864 86.9189 132.141 87.212 132.389 87.212C136.678 87.8981 136.628 87.8597 136.818 87.7324C137.298 87.4153 137.229 86.1371 137.757 85.5443C137.833 85.4552 137.93 85.3853 138.038 85.3402C138.147 85.2951 138.265 85.276 138.382 85.2845C138.493 85.3139 138.596 85.366 138.686 85.4376C138.776 85.5092 138.85 85.5986 138.903 85.7002C139.124 86.5173 139.142 87.3761 138.955 88.2017C138.804 89.3187 138.471 90.7581 137.599 91.4849C137.543 91.5448 137.469 91.5854 137.388 91.6011C137.307 91.6167 137.223 91.6065 137.148 91.572C137.073 91.5375 137.011 91.4803 136.97 91.4087C136.93 91.337 136.913 91.2543 136.921 91.1724C136.766 90.5421 136.713 89.8911 136.765 89.2441C136.78 89.1134 136.742 88.9821 136.661 88.8788C136.577 88.7952 132.865 88.033 132.388 87.9411C131.983 87.8077 131.772 88.1075 132.023 88.3583C132.069 88.4092 132.125 88.4495 132.188 88.4764C132.251 88.5033 132.319 88.5162 132.388 88.5143C133.584 88.8715 134.802 89.1501 136.035 89.3481C136.157 89.3481 135.976 89.8678 136.348 91.4849C136.556 92.3188 137.338 92.4747 138.016 91.9534C138.463 91.547 138.788 91.0237 138.954 90.4425C139.427 89.1607 139.622 87.7931 139.527 86.4301C139.524 85.9633 139.379 85.5085 139.109 85.127C138.929 84.9302 138.691 84.7945 138.43 84.7385C138.168 84.6825 137.896 84.709 137.65 84.8145C136.816 85.2332 136.771 86.0995 136.4 87.0553C136.345 87.1961 136.237 87.2285 136.088 87.212C132.062 86.7615 132.466 86.7367 132.233 86.7947Z" fill="#00C896"/>
<path d="M38.122 111.912C38.0254 111.914 37.9329 111.951 37.8614 112.016C36.7726 112.746 35.6956 113.493 34.6308 114.257C34.5456 114.299 34.4696 114.357 34.407 114.429C34.3444 114.5 34.2966 114.583 34.2663 114.673C34.0878 115.209 35.0474 116.054 35.0474 116.966C35.0474 117.509 34.6015 117.89 34.1096 117.644C33.1101 117.394 30.1816 113.287 31.2474 112.225C31.3283 112.204 31.4129 112.203 31.4944 112.221C31.5759 112.239 31.652 112.276 31.7167 112.329C32.268 112.665 32.7464 113.108 33.1237 113.632C33.1507 113.692 33.1945 113.744 33.2498 113.781C33.3052 113.818 33.3698 113.838 33.4362 113.84C33.5763 113.84 34.6414 113.115 37.24 111.6C37.7047 111.367 37.5149 110.863 36.8754 111.182C34.0132 112.68 33.5402 113.248 33.5402 113.006C33.0678 112.517 32.5437 112.08 31.9773 111.703C31.2474 111.234 30.5703 111.652 30.4136 112.485C30.3648 113.093 30.4724 113.703 30.7262 114.257C31.2676 115.518 32.0645 116.654 33.0664 117.592C33.37 117.948 33.7995 118.172 34.2648 118.217C34.5069 118.229 34.7477 118.174 34.96 118.057C35.1723 117.94 35.3479 117.766 35.4669 117.555C35.586 117.344 35.6438 117.104 35.634 116.861C35.6241 116.619 35.547 116.384 35.4112 116.184C35.1888 115.8 34.9972 115.399 34.838 114.984C34.786 114.933 34.786 114.881 34.786 114.777C34.786 114.724 34.838 114.672 34.9419 114.62C35.8797 113.942 36.8182 113.213 37.8079 112.536C37.9849 112.537 38.6854 111.912 38.122 111.912Z" fill="#00C896"/>
<path d="M124.104 108.473C123.947 108.368 123.791 108.629 123.947 108.733C124.625 109.202 128.843 112.274 129.106 112.381C129.575 112.641 129.992 112.173 130.357 111.912C130.774 111.651 131.504 111.234 131.92 111.807C132.716 112.868 131.318 115.034 129.471 114.882C128.95 114.829 128.325 114.309 128.638 113.684C128.667 113.625 128.678 113.558 128.669 113.493C128.66 113.428 128.631 113.367 128.586 113.319C128.22 113.006 123.999 109.93 123.84 109.775C123.527 109.567 123.266 110.088 123.527 110.296C123.736 110.453 127.696 113.37 128.009 113.631C127.939 113.841 127.922 114.064 127.958 114.282C127.994 114.5 128.083 114.706 128.217 114.882C129.277 116.241 131.87 115.238 132.542 113.475C132.96 112.433 132.646 110.818 131.24 110.87C130.617 110.986 130.039 111.274 129.572 111.703C129.364 111.807 129.364 111.755 129.208 111.651C129.054 111.599 124.938 108.84 124.104 108.473Z" fill="#00C896"/>
<path d="M72.359 86.8993C72.359 87.0362 72.3805 87.1717 72.4224 87.2982C72.4644 87.4247 72.5258 87.5396 72.6032 87.6364C72.6806 87.7332 72.7725 87.81 72.8737 87.8624C72.9749 87.9148 73.0833 87.9417 73.1928 87.9417C73.3023 87.9417 73.4107 87.9148 73.5119 87.8624C73.613 87.81 73.705 87.7332 73.7824 87.6364C73.8598 87.5396 73.9212 87.4247 73.9631 87.2982C74.005 87.1717 74.0266 87.0362 74.0266 86.8993C74.0266 86.7624 74.005 86.6268 73.9631 86.5003C73.9212 86.3739 73.8598 86.2589 73.7824 86.1621C73.705 86.0653 73.613 85.9886 73.5119 85.9362C73.4107 85.8838 73.3023 85.8568 73.1928 85.8568C73.0833 85.8568 72.9749 85.8838 72.8737 85.9362C72.7725 85.9886 72.6806 86.0653 72.6032 86.1621C72.5258 86.2589 72.4644 86.3739 72.4224 86.5003C72.3805 86.6268 72.359 86.7624 72.359 86.8993Z" fill="#2B2E3F"/>
<path d="M86.168 85.0748C86.3839 85.0264 86.6095 85.0463 86.8136 85.1317C87.0178 85.2171 87.1903 85.3637 87.3075 85.5514C87.4247 85.7391 87.4806 85.9586 87.4677 86.1795C87.4548 86.4004 87.3735 86.6118 87.2353 86.7845C87.097 86.9573 86.9084 87.0828 86.6957 87.1437C86.483 87.2047 86.2567 87.1981 86.0479 87.1248C85.8391 87.0516 85.6582 86.9153 85.5302 86.7348C85.4022 86.5543 85.3335 86.3385 85.3334 86.1172C85.3089 85.8689 85.3825 85.6209 85.5385 85.4261C85.6944 85.2313 85.9203 85.1052 86.168 85.0748Z" fill="#2B2E3F"/>
</svg>
