<svg width="151" height="151" viewBox="0 0 151 151" fill="none" xmlns="http://www.w3.org/2000/svg">
<g id="Asking-A-Question--Streamline-London">
<g id="Asking-A-Question--Streamline-London.svg">
<path id="Vector" d="M38.3636 146.388C60.474 147.247 82.6139 146.979 104.697 145.585C104.749 143.69 104.461 141.801 103.849 140.007C105.887 139.537 107.418 139.22 108.523 139.082C109.227 139.003 109.888 138.703 110.412 138.227C110.538 138.067 110.623 137.879 110.66 137.68C110.697 137.48 110.685 137.274 110.626 137.08C110.567 136.779 110.493 136.364 110.418 135.794C111.689 133.609 112.764 131.315 113.629 128.939C114.292 127.117 113.938 127.691 115.128 124.014C116.022 121.253 116.635 119.67 116.652 117.687C116.666 116.144 116.514 114.603 116.2 113.092C116.081 112.517 115.955 111.721 115.511 105.538C115.184 100.99 115.099 99.1881 115.134 97.8941C115.153 97.18 115.113 96.4629 115.174 95.7527C115.268 94.6447 115.497 94.0014 114.632 92.617C113.935 91.5015 113.542 91.4254 113.121 90.5984C112.867 89.9987 112.717 89.3597 112.679 88.7093C112.554 87.8149 112.501 86.912 112.518 86.0091C112.566 83.6405 112.469 81.2713 112.229 78.9145C112.164 78.263 112.011 77.2876 111.819 76.0817C111.707 75.3055 111.504 74.545 111.217 73.8152C110.96 73.0191 110.525 72.2918 109.946 71.6882C109.478 71.3052 108.938 71.0189 108.358 70.8457C107.778 70.6726 107.169 70.6162 106.567 70.6796C99.714 68.9562 92.8814 67.0388 86.0693 64.9273C83.3946 63.1841 81.2881 60.6968 80.0089 57.7717L57.7205 59.2518C55.604 61.3865 53.6093 63.6387 51.746 65.9976C49.2578 67.0916 46.7149 68.0562 44.1272 68.8877C38.6008 70.7948 39.51 70.7881 38.0608 71.0652C36.2876 71.3958 34.5481 71.8863 32.8636 72.531C30.7282 73.3595 30.0262 74.4735 28.8557 76.2398C27.6159 78.1116 26.9945 79.0749 27.1858 80.1287C27.2616 80.5415 27.3652 80.9487 27.4962 81.3474C27.8853 82.2179 28.1457 83.1405 28.269 84.0861C28.3739 85.7704 28.3739 87.4596 28.269 89.1439C28.1989 91.1663 28.4595 90.7302 28.5333 94.6326C28.5793 96.6153 28.5258 98.599 28.3729 100.576C28.1146 103.438 27.921 102.642 28.3051 105.598C28.3801 106.702 28.6499 107.784 29.102 108.794C29.8504 110.72 30.3885 112.722 30.7071 114.764C31.0461 116.716 30.8457 116.698 31.1756 117.909C31.5057 119.326 32.1825 120.64 33.1453 121.732C34.1081 122.823 35.3269 123.659 36.6922 124.164L37.4703 126.005C38.237 133.964 38.3892 137.728 38.3636 139.572C38.3493 140.631 38.2724 142.829 38.3636 146.388Z" fill="white"/>
<path id="Vector_2" d="M93.672 20.175C94.4885 20.4825 95.3935 20.4542 96.1892 20.0964C96.985 19.7386 97.6067 19.0804 97.9186 18.2656C98.7266 15.9374 100.424 14.0241 102.64 12.9449C104.832 11.9356 108.727 11.2629 111.256 13.6228C112.284 14.6597 112.977 15.9824 113.242 17.4185C113.508 18.8546 113.336 20.3375 112.746 21.6739C110.61 26.0998 104.225 24.4111 99.8807 29.023C97.5458 31.4996 96.7526 34.7874 96.5794 37.7844C96.546 38.352 96.7312 38.9108 97.0969 39.3462C97.4626 39.7815 97.9811 40.0603 98.546 40.1254C99.1108 40.1904 99.6791 40.0368 100.134 39.696C100.589 39.3552 100.897 38.8532 100.993 38.2929C101.455 35.6566 102.488 33.0475 104.652 31.3196C107.862 28.7549 110.897 30.256 114.368 27.4872C118.594 24.1196 118.661 18.2573 118.661 17.9575C118.592 15.1434 117.641 12.4221 115.944 10.1766C114.246 7.93103 111.887 6.27439 109.199 5.43983C102.883 3.53118 97.664 7.40497 96.8829 8.00829C94.2143 10.1001 92.3501 13.0496 91.6059 16.3577C91.4265 17.1364 91.5373 17.9539 91.9177 18.6567C92.2981 19.3595 92.9219 19.8994 93.672 20.175Z" fill="white"/>
<path id="Vector_3" d="M94.2991 48.4809C94.2991 49.1976 94.5838 49.885 95.0906 50.3918C95.5975 50.8987 96.2849 51.1834 97.0016 51.1834C97.7184 51.1834 98.4058 50.8987 98.9126 50.3918C99.4194 49.885 99.7042 49.1976 99.7042 48.4809C99.7042 47.7641 99.4194 47.0767 98.9126 46.5699C98.4058 46.0631 97.7184 45.7783 97.0016 45.7783C96.2849 45.7783 95.5975 46.0631 95.0906 46.5699C94.5838 47.0767 94.2991 47.7641 94.2991 48.4809Z" fill="white"/>
<path id="Vector_4" d="M74.4701 16.0933C73.6657 14.5507 71.9243 14.0784 69.0816 13.3064C66.7631 12.5787 64.3296 12.2881 61.905 12.4492C55.2586 13.0186 50.9314 17.324 49.4114 18.8417C47.1232 21.1331 45.3241 23.8652 44.123 26.8725C50.3731 24.2451 56.9793 22.5626 63.7247 21.8802C63.7134 22.0919 63.7142 22.3035 63.7247 22.5167C64.6205 22.5307 65.5144 22.6026 66.4009 22.7321C66.8725 21.5933 67.5376 20.5446 68.3668 19.6326C70.2239 20.0466 71.8995 21.045 73.1475 22.4813C73.3878 22.1506 75.8244 18.6926 74.4701 16.0933Z" fill="#81F8F8"/>
<path id="Vector_5" d="M48.1208 103.301C47.6978 103.711 47.2956 104.142 46.9157 104.593C46.4266 105.122 45.9972 105.703 45.6352 106.325C45.0273 107.448 45.3234 107.748 44.5641 109.644L44.0467 110.93C43.8059 111.348 43.6326 111.801 43.533 112.273C43.4833 112.775 43.5572 113.281 43.7484 113.748C44.2074 114.685 44.5949 115.656 44.9076 116.653C45.4228 118.472 46.0615 119.289 47.3721 122.821C47.8244 124.052 48.4024 125.234 49.097 126.347C50.562 129.173 50.3157 129.856 51.0079 130.327C51.2712 130.503 51.5805 130.598 51.8974 130.601C53.0785 130.033 54.1126 129.2 54.9193 128.168C55.6472 127.319 56.3042 126.412 56.8837 125.456C59.8684 123.011 62.0859 119.759 63.271 116.087C63.808 114.475 63.5278 114.907 65.2294 107.529C66.7237 101.051 68.0562 93.5259 68.4622 91.1842C69.2078 86.8908 69.0143 87.6486 69.3201 86.1225C70.1111 82.1694 71.1998 78.2818 72.577 74.4929C73.6603 74.2077 74.6352 73.6088 75.3792 72.7714C76.1232 71.934 76.6032 70.8954 76.7588 69.786C77.1048 69.994 77.4924 70.1229 77.8941 70.1634C78.2957 70.2039 78.7013 70.155 79.0818 70.0203C79.6843 69.7529 79.6467 69.3695 80.6341 68.3075C81.6638 67.201 82.1406 67.1603 82.347 66.4342C82.4403 65.8981 82.4036 65.3474 82.24 64.8284C82.0699 63.972 81.8088 63.1362 81.4612 62.3352C81.5958 62.2361 81.6942 62.0956 81.7414 61.9353C81.9093 61.344 81.2141 60.4996 80.009 59.8767C80.0084 59.5054 79.9119 59.1406 79.7288 58.8175C79.5458 58.4945 79.2824 58.2242 78.9643 58.0328C81.3474 57.2081 83.2576 56.5061 84.5644 56.0293C84.8492 55.9553 85.1157 55.8234 85.3474 55.642C85.5791 55.4606 85.771 55.2335 85.9112 54.9748C85.9925 54.8121 86.0325 54.6318 86.0275 54.45C86.0225 54.2681 85.9727 54.0903 85.8826 53.9323C85.2521 53.2251 83.2546 54.7089 78.4491 55.6052C79.5281 54.2184 80.2288 52.5753 80.4827 50.8366C80.8084 48.3696 80.7489 45.867 80.3065 43.4182C79.8817 39.8408 78.6504 36.4064 76.7054 33.3741C76.3216 30.8013 75.7489 28.2604 74.9918 25.7718C74.5684 24.5817 73.9474 23.4714 73.1547 22.4878C71.8939 21.067 70.2237 20.0718 68.374 19.6392C67.542 20.5519 66.8743 21.6018 66.4006 22.7424L63.7259 22.521V21.877C56.9821 22.5687 50.3776 24.2535 44.1265 26.8768C44.0512 27.2655 44.0082 28.7478 43.9344 29.1365C46.8105 27.8164 49.7845 26.7215 52.8299 25.8615C50.0264 28.4412 50.0799 31.5302 52.4857 33.896C51.6044 38.0734 52.8209 42.4074 56.5531 44.6828C56.1981 45.4043 55.6074 45.9828 54.8787 46.3226C54.2253 45.106 53.3375 44.0308 52.2665 43.1591C51.3623 42.3366 50.263 41.7587 49.0729 41.4802C48.3769 41.3365 47.6618 41.3098 46.9571 41.4011C46.3773 41.8409 45.9761 42.4754 45.8273 43.1877C45.7242 43.8539 45.8394 44.5357 46.1557 45.131C46.6135 45.9777 47.2716 46.6994 48.0726 47.2332C48.8168 47.8358 48.7716 47.6611 49.5723 48.3073C50.1922 48.8082 50.5642 49.1908 51.5803 50.0473C52.4285 50.7621 52.6077 50.8645 52.8382 50.8494C53.6366 50.799 54.1187 49.4236 54.2166 49.1329C56.1161 52.2067 57.3193 55.6592 57.7416 59.2478C58.1326 61.0472 58.5084 62.5529 58.8029 63.6729C59.9591 68.0657 60.5745 69.2347 61.3435 70.2018C61.9804 71.0014 62.7395 71.6956 63.5926 72.2588C62.8311 76.1695 62.1095 76.7894 58.2448 84.9129C55.8435 89.9542 55.5995 89.5527 53.6984 93.6871C52.4435 96.4115 52.2153 97.3153 50.9928 99.3287C50.1439 100.728 49.1834 102.056 48.1208 103.301Z" fill="#FFD997"/>
<path id="Vector_6" d="M116.566 46.4314C116.71 46.6154 116.889 46.7686 117.093 46.8816C117.297 46.9947 117.522 47.0653 117.755 47.0893C117.987 47.1133 118.221 47.0902 118.444 47.0212C118.667 46.9523 118.874 46.839 119.052 46.6882C120.289 45.5844 121.842 44.8972 123.491 44.7238C126.934 44.4602 128.512 47.1168 131.989 46.7131C135.228 46.3365 137.279 43.6332 137.705 43.0773C140.388 39.5673 140.743 33.9212 137.652 30.3585C136.752 29.3963 135.67 28.6232 134.468 28.0843C133.266 27.5453 131.969 27.2515 130.652 27.2199C129.104 27.1941 127.566 27.4819 126.131 28.0661C124.696 28.6503 123.395 29.5187 122.304 30.6191C121.893 31.0136 121.639 31.545 121.591 32.1133C121.544 32.6816 121.705 33.2478 122.045 33.7054C122.386 34.1631 122.881 34.4808 123.439 34.5987C123.997 34.7167 124.579 34.6268 125.076 34.346C125.965 33.7728 126.961 33.3855 128.005 33.2072C129.048 33.029 130.116 33.0636 131.146 33.3089C131.712 33.4708 133.942 34.1035 134.704 36.0325C135.599 38.2982 134.119 41.3931 132.02 42.3256C129.291 43.5375 127.132 40.3672 123.164 40.6256C120.495 40.7988 118.315 42.4393 116.682 44.1823C116.398 44.4823 116.231 44.8735 116.21 45.2856C116.189 45.6978 116.315 46.104 116.566 46.4314Z" fill="black"/>
<path id="Vector_7" d="M109.667 50.2423C109.667 50.7923 109.886 51.3197 110.275 51.7086C110.663 52.0974 111.191 52.3159 111.741 52.3159C112.291 52.3159 112.818 52.0974 113.207 51.7086C113.596 51.3197 113.814 50.7923 113.814 50.2423C113.814 49.6924 113.596 49.1649 113.207 48.776C112.818 48.3872 112.291 48.1687 111.741 48.1687C111.191 48.1687 110.663 48.3872 110.275 48.776C109.886 49.1649 109.667 49.6924 109.667 50.2423Z" fill="black"/>
<path id="Vector_8" d="M77.7903 45.9823C76.4044 45.5604 74.9981 45.2085 73.5768 44.9278C73.5379 44.9208 73.4977 44.9261 73.4619 44.9428C73.426 44.9595 73.3962 44.9869 73.3765 45.0212C73.1462 45.4432 72.7667 45.7642 72.3124 45.9213C71.858 46.0785 71.3613 46.0605 70.9195 45.8708C70.8826 45.8557 70.842 45.8525 70.8032 45.8617C70.7644 45.8709 70.7295 45.892 70.7033 45.922C70.3192 46.3687 67.8825 49.2249 67.8825 49.2249C67.8592 49.2523 67.8443 49.2857 67.8394 49.3213C67.8345 49.3569 67.8399 49.3932 67.855 49.4258C67.87 49.4584 67.8941 49.4861 67.9243 49.5054C67.9546 49.5248 67.9897 49.5352 68.0256 49.5352C68.6063 49.3246 69.1729 49.0771 69.7219 48.7941C71.1033 48.1825 71.739 47.8428 73.262 47.8902C73.2904 47.8912 73.3187 47.8858 73.3447 47.8744C73.3708 47.8631 73.394 47.8461 73.4126 47.8247C73.7186 47.4715 74.0987 47.1901 74.5259 47.0007C75.1932 46.7114 75.9743 46.8101 77.7836 46.3491C77.8252 46.3403 77.8626 46.3176 77.8897 46.2848C77.9167 46.252 77.9319 46.2109 77.9327 46.1684C77.9335 46.1259 77.9198 46.0843 77.894 46.0505C77.8681 46.0167 77.8316 45.9927 77.7903 45.9823Z" fill="black"/>
<path id="Vector_9" d="M62.3898 28.5361C62.3507 28.507 62.3019 28.4941 62.2535 28.4999C60.8159 28.6874 59.4736 29.3224 58.4169 30.3151C57.3602 31.3077 56.6426 32.6076 56.3656 34.0308C56.3569 34.0724 56.3624 34.1158 56.3814 34.1539C56.4003 34.192 56.4316 34.2226 56.4701 34.2408C56.5086 34.2589 56.5522 34.2635 56.5936 34.2538C56.6351 34.2441 56.672 34.2207 56.6985 34.1874C58.1942 32.2454 60.2778 30.8392 62.6384 30.1788C62.6639 30.1719 62.6876 30.1597 62.708 30.143C62.7284 30.1262 62.745 30.1053 62.7567 30.0817C62.8858 29.8218 62.9199 29.5249 62.8529 29.2425C62.7859 28.9601 62.622 28.7102 62.3898 28.5361Z" fill="black"/>
<path id="Vector_10" d="M74.0453 28.1023C72.3302 27.8948 70.5905 28.0663 68.949 28.6046C68.9022 28.6197 68.8633 28.6526 68.8406 28.6961C68.8179 28.7397 68.8133 28.7904 68.8277 28.8374C68.9913 29.376 69.3004 29.859 69.721 30.2331C69.7554 30.2638 69.8 30.2807 69.8461 30.2806C69.9214 30.2806 69.6954 30.3687 74.0972 28.4615C74.135 28.445 74.1662 28.4165 74.1862 28.3805C74.2063 28.3445 74.2139 28.3029 74.208 28.2621C74.2021 28.2213 74.183 28.1836 74.1536 28.1547C74.1242 28.1259 74.0861 28.1074 74.0453 28.1023Z" fill="black"/>
<path id="Vector_11" d="M100.337 139.412C100.397 138.888 100.346 138.358 100.186 137.856C100.026 137.353 99.7617 136.891 99.4099 136.498C98.4925 135.339 98.6431 135.324 97.8876 134.314C94.652 130.114 91.0705 126.193 87.1807 122.591C77.2749 125.501 67.093 127.373 56.7997 128.175C56.0431 129.211 55.2057 130.186 54.2952 131.09C52.6608 132.789 52.904 133.383 52.0687 134.023C50.3695 135.324 47.4417 133.96 41.4145 131.622C40.714 131.363 40.0798 130.952 39.5578 130.417C38.9364 129.643 38.4621 128.761 38.1583 127.815C37.8412 127.062 37.6123 126.423 37.4669 125.996C36.6609 126.393 35.9552 126.766 35.3458 127.097C35.0247 127.231 34.7557 127.466 34.5791 127.766C34.3531 128.218 34.5233 128.437 34.7056 130.655C34.3145 131.154 34.1314 131.785 34.1944 132.416C34.2575 133.046 34.5618 133.629 35.0438 134.04C34.9016 134.132 34.7802 134.253 34.6876 134.395C34.5949 134.537 34.5331 134.696 34.506 134.863C34.4864 135.102 34.5723 135.315 34.8826 135.753C35.2261 136.236 35.6219 136.679 36.0629 137.075C35.5356 137.677 35.4987 138.035 35.5778 138.254C35.8038 138.871 36.9449 138.527 38.4333 139.36C39.4456 139.927 39.7326 140.545 40.2877 140.405C40.4526 140.363 40.5972 140.266 41.306 139.36C41.6826 138.878 41.9839 138.471 42.1858 138.186C46.1492 140.081 50.7318 139.611 53.9299 136.454C69.3125 138.506 84.8184 139.494 100.337 139.412Z" fill="#FFD997"/>
<path id="Vector_12" d="M54.8725 46.3276C55.592 46.0067 56.1827 45.4533 56.5499 44.7563C55.7447 44.282 55.0219 43.6799 54.41 42.9735C51.4604 39.5629 52.2664 34.899 52.4554 33.9778C49.9276 31.3544 49.9879 28.3287 52.832 25.8672C49.8037 26.7788 46.8331 27.8725 43.9366 29.1422C42.7623 32.9663 44.1927 36.1983 46.3604 40.295C46.6105 40.7673 46.8251 41.1507 46.963 41.4023C50.3502 40.9353 53.1921 43.3923 54.8725 46.3276Z" fill="#81F8F8"/>
<path id="Vector_13" d="M98.808 40.5145C98.4532 40.5161 98.1018 40.445 97.7755 40.3055C97.4493 40.166 97.1551 39.9612 96.9111 39.7035C96.6672 39.4459 96.4787 39.1409 96.3572 38.8076C96.2357 38.4742 96.1839 38.1194 96.2049 37.7652C96.4256 33.957 97.5705 30.929 99.6079 28.7666C104.026 24.0755 110.379 25.7213 112.413 21.5123C112.972 20.2493 113.137 18.8465 112.886 17.4881C112.635 16.1296 111.979 14.8787 111.004 13.8996C108.518 11.5759 104.677 12.4218 102.802 13.2872C100.682 14.333 99.0559 16.1691 98.2747 18.4008C97.9413 19.2697 97.2913 19.9802 96.4554 20.3894C95.6195 20.7986 94.6596 20.8762 93.7689 20.6066C92.8781 20.3369 92.1224 19.7401 91.6537 18.936C91.1851 18.1319 91.0382 17.1802 91.2427 16.2722C92.0076 12.8795 93.92 9.85482 96.6568 7.7089C97.6563 6.93459 102.972 3.16173 109.311 5.07867C112.074 5.94132 114.498 7.64711 116.244 9.95689C117.989 12.2667 118.967 15.0647 119.042 17.9587C119.042 18.2178 118.992 24.294 114.61 27.7851C113.093 28.9417 111.29 29.6628 109.394 29.8708C107.762 30.0352 106.206 30.6389 104.891 31.6175C103.089 33.0576 101.904 35.3263 101.368 38.3618C101.262 38.9642 100.948 39.5101 100.48 39.9038C100.011 40.2974 99.4196 40.5136 98.808 40.5145ZM106.835 11.6482C108.556 11.5907 110.233 12.2003 111.515 13.3497C112.603 14.4417 113.335 15.8372 113.616 17.353C113.896 18.8688 113.712 20.434 113.087 21.843C110.854 26.467 104.41 24.7692 100.156 29.2863C98.2438 31.32 97.1667 34.1822 96.9566 37.8112C96.9298 38.2819 97.084 38.745 97.3875 39.1059C97.691 39.4667 98.1209 39.6979 98.5892 39.7521C99.0576 39.8064 99.529 39.6797 99.9069 39.3978C100.285 39.116 100.541 38.7004 100.622 38.236C101.225 35.0175 102.469 32.5869 104.418 31.03C107.713 28.3975 110.771 29.8813 114.134 27.1976C118.236 23.9302 118.283 18.2042 118.283 17.9624C118.212 15.2292 117.287 12.5869 115.638 10.4057C113.99 8.22453 111.7 6.61388 109.09 5.79949C103.103 3.98726 98.0631 7.56955 97.114 8.30544C94.5142 10.346 92.6982 13.2211 91.9726 16.4455C91.8143 17.1667 91.9342 17.921 92.3081 18.5577C92.6821 19.1944 93.2826 19.6664 93.9895 19.8795C94.6965 20.0926 95.4578 20.0309 96.1213 19.7069C96.7848 19.3829 97.3015 18.8204 97.5682 18.1319C98.4181 15.7152 100.184 13.7294 102.484 12.6025C103.853 11.9877 105.335 11.6627 106.835 11.6482Z" fill="black"/>
<path id="Vector_14" d="M97.002 51.56C96.3929 51.5601 95.7973 51.3796 95.2907 51.0413C94.7841 50.7029 94.3893 50.222 94.1561 49.6592C93.9228 49.0964 93.8617 48.4771 93.9805 47.8797C94.0992 47.2822 94.3925 46.7333 94.8232 46.3025C95.2539 45.8717 95.8027 45.5783 96.4002 45.4594C96.9976 45.3405 97.6169 45.4014 98.1797 45.6345C98.7426 45.8676 99.2236 46.2624 99.5621 46.7689C99.9005 47.2754 100.081 47.8709 100.081 48.48C100.08 49.2965 99.7558 50.0793 99.1785 50.6567C98.6012 51.2341 97.8185 51.559 97.002 51.56ZM97.002 46.1541C96.5418 46.154 96.0919 46.2903 95.7091 46.5459C95.3264 46.8015 95.0281 47.1649 94.8519 47.5901C94.6757 48.0152 94.6295 48.4831 94.7193 48.9345C94.809 49.3859 95.0306 49.8006 95.3561 50.126C95.6815 50.4515 96.0962 50.6731 96.5476 50.7628C96.999 50.8526 97.4668 50.8064 97.892 50.6302C98.3172 50.454 98.6806 50.1557 98.9362 49.773C99.1918 49.3902 99.3281 48.9403 99.328 48.48C99.3274 47.8634 99.0821 47.2721 98.6461 46.836C98.21 46.4 97.6187 46.1547 97.002 46.1541Z" fill="black"/>
<path id="Vector_15" d="M52.1077 45.0701C51.8147 45.0701 51.7861 44.7801 50.7775 44.1587C49.9415 43.6367 49.2809 43.224 48.6377 43.3814C48.3748 43.4741 48.1342 43.6204 47.9309 43.811C47.7275 44.0016 47.5661 44.2323 47.4566 44.4886C47.4118 44.5779 47.3333 44.6457 47.2384 44.6772C47.1436 44.7086 47.0401 44.7011 46.9508 44.6562C46.8615 44.6114 46.7937 44.5329 46.7623 44.438C46.7309 44.3432 46.7384 44.2397 46.7832 44.1504C46.9406 43.7953 47.1717 43.4778 47.4611 43.2189C47.7506 42.9599 48.0918 42.7655 48.4622 42.6485C49.4172 42.4225 50.2699 42.9536 51.1737 43.5185C51.5978 43.779 51.9958 44.0796 52.3623 44.4163C52.4181 44.4676 52.4571 44.5346 52.4742 44.6084C52.4914 44.6822 52.4858 44.7595 52.4583 44.8301C52.4308 44.9008 52.3826 44.9615 52.3201 45.0043C52.2575 45.0471 52.1835 45.07 52.1077 45.0701Z" fill="black"/>
<path id="Vector_16" d="M116.737 114.061C116.205 110.242 115.155 99.4903 115.569 95.7453C115.693 94.7189 115.532 93.6783 115.104 92.737C114.822 92.1748 114.439 91.6693 113.974 91.2456C112.104 89.5132 113.541 83.2088 112.215 76.1308C111.832 74.1062 111.244 72.0861 109.545 71.0271C108.684 70.5309 107.7 70.2885 106.708 70.3281C105.197 70.301 88.6563 65.3177 86.2618 64.5614C83.7594 62.9729 81.7687 60.6956 80.5291 58.0032C80.7574 57.924 80.9803 57.8302 81.1965 57.7222C83.6821 56.5329 85.7007 56.6082 86.3357 54.9353C86.4183 54.7695 86.4634 54.5875 86.4677 54.4022C86.472 54.2169 86.4354 54.033 86.3605 53.8635C85.7579 52.8527 83.7197 53.8982 79.2848 55.098C80.5267 53.1203 81.1596 50.821 81.1046 48.4863C81.2791 43.1512 79.8961 37.8808 77.1246 33.3188C76.7678 30.7382 76.1406 28.2022 75.2536 25.7527C74.8916 24.5783 74.3422 23.4701 73.6266 22.471C74.2465 21.5445 76.1122 18.4081 74.8167 15.918C73.9347 14.2278 72.0479 13.7178 69.1902 12.9443C66.8293 12.2063 64.3521 11.9118 61.884 12.0758C55.093 12.655 50.6257 17.1096 49.1546 18.5738C46.8272 20.9016 44.9997 23.6803 43.7842 26.7394C43.7565 26.8085 43.7499 26.8843 43.7653 26.9571C43.7806 27.0299 43.8172 27.0966 43.8704 27.1487C43.9236 27.2007 43.991 27.2358 44.0641 27.2496C44.1373 27.2634 44.2129 27.2552 44.2813 27.226C50.3562 24.6453 56.7816 22.9835 63.346 22.2955C63.346 22.3708 63.346 22.4536 63.352 22.532C63.3561 22.6291 63.3976 22.7209 63.4678 22.7881C63.5379 22.8554 63.6314 22.8929 63.7286 22.8928C64.6057 22.9062 65.481 22.9764 66.3491 23.1029C66.432 23.1166 66.5172 23.1017 66.5905 23.0607C66.6639 23.0196 66.7211 22.9548 66.7528 22.8769C67.1775 21.8493 67.7679 20.8982 68.5002 20.0614C70.1905 20.4892 71.7116 21.4191 72.8629 22.7286C73.625 23.7081 74.1959 24.8225 74.5456 26.0133C75.4234 28.4374 76.0412 30.9479 76.3887 33.5026C76.3958 33.5537 76.4132 33.6029 76.4399 33.6472C79.1629 38.0986 80.5229 43.2498 80.3521 48.4652C80.264 51.1082 79.8249 53.2391 78.1527 55.3948C74.782 56.1727 71.3675 56.747 67.9278 57.1144C67.6935 55.8829 67.2077 54.4322 66.2007 53.8266C66.0191 53.7106 65.5288 53.4628 65.2599 53.325C64.7481 53.0035 64.1889 52.7646 63.6028 52.6169C62.754 52.5281 61.5134 53.0448 61.4501 53.8454C61.4185 54.2492 61.6972 54.4759 61.9676 54.6958C62.7086 55.2922 63.2463 56.1038 63.5064 57.0187C63.5848 57.207 63.6601 57.3969 63.7324 57.5882C62.9854 57.4745 62.2605 57.2458 61.5835 56.9103C60.6321 56.4327 59.7268 55.672 57.9191 53.1962C56.8 51.6636 55.7673 50.0698 54.8256 48.4223C54.8444 48.3522 54.8633 48.2822 54.8821 48.2099C54.8956 48.1615 54.8992 48.111 54.8929 48.0612C54.8865 48.0114 54.8703 47.9634 54.8451 47.92C54.8199 47.8766 54.7863 47.8386 54.7463 47.8084C54.7063 47.7781 54.6606 47.7562 54.612 47.7439C54.5633 47.7315 54.5127 47.729 54.4631 47.7365C54.4135 47.744 54.3658 47.7613 54.323 47.7875C54.2802 47.8136 54.243 47.8481 54.2137 47.8888C54.1844 47.9295 54.1635 47.9757 54.1522 48.0246C53.9692 48.7431 53.4743 50.3422 52.7445 50.4567C52.3099 50.5253 51.8549 49.7088 50.2242 48.3613C48.3592 46.8217 47.5684 46.7306 46.7338 45.4162C46.3683 44.9094 46.1572 44.3078 46.126 43.6838C46.0941 43.4011 46.1303 43.1149 46.2315 42.849C46.3327 42.5832 46.4959 42.3453 46.7076 42.1553C46.9194 41.9654 47.1734 41.8287 47.4487 41.7568C47.7239 41.6849 48.0123 41.6798 48.2899 41.742C51.7284 42.0388 53.9489 45.4704 54.5469 46.5159C54.5933 46.5969 54.6682 46.6579 54.757 46.6868C54.8458 46.7158 54.9422 46.7107 55.0275 46.6726C55.8236 46.3163 56.4773 45.7034 56.8841 44.9319C56.9291 44.8464 56.9395 44.7468 56.9131 44.6539C56.8868 44.5609 56.8257 44.4817 56.7425 44.4325C55.973 43.9785 55.282 43.4032 54.696 42.7287C51.9619 39.5569 52.5727 35.2869 52.8251 34.0539C52.8377 33.9941 52.8353 33.932 52.8182 33.8733C52.8012 33.8146 52.7699 33.761 52.7271 33.7172C50.3169 31.2105 50.4426 28.4342 53.0774 26.1527C53.1423 26.0964 53.186 26.0197 53.2013 25.9352C53.2166 25.8507 53.2026 25.7635 53.1615 25.688C53.1205 25.6126 53.0549 25.5534 52.9756 25.5204C52.8963 25.4874 52.8081 25.4824 52.7256 25.5064C49.6827 26.4222 46.6978 27.5209 43.7872 28.7965C43.7376 28.8183 43.6932 28.8506 43.6572 28.8912C43.6212 28.9317 43.5944 28.9796 43.5786 29.0315C42.3493 33.0333 43.8897 36.4379 46.0295 40.4706C46.2043 40.8012 46.3625 41.0882 46.4905 41.3179C45.8277 41.931 45.4283 42.7771 45.3765 43.6785C45.403 44.449 45.6552 45.1946 46.1019 45.8229C46.6064 46.6003 47.2861 47.2486 48.0866 47.7158C51.4218 49.9965 51.647 51.219 52.6654 51.219C53.018 51.1748 53.3517 51.0351 53.6306 50.8148C53.9094 50.5945 54.1226 50.3022 54.2471 49.9694C55.8055 52.7765 56.8496 55.8395 57.33 59.014C55.3311 61.1194 53.4393 63.3241 51.6621 65.6197C47.3552 67.3378 38.1524 70.7416 36.9322 71.0519C34.308 71.717 32.7729 71.8051 31.0097 73.1993C29.9976 74.0435 29.1276 75.0447 28.4329 76.1647C27.5524 77.4723 26.8572 78.505 26.8572 79.9007C26.8572 80.9831 27.2398 81.3943 27.6044 82.598C27.9829 84.0485 28.0984 85.5551 27.9456 87.0465C27.8092 91.617 28.3312 92.2233 28.161 97.6819C28.0006 102.761 27.5283 103.406 27.9501 106.034C28.3636 108.595 28.854 108.558 29.8113 112.419C30.9728 117.088 30.4764 118.257 31.7395 120.412C32.8887 122.272 34.5571 123.756 36.539 124.68C36.716 125.087 36.8734 125.462 37.0151 125.81C36.429 126.133 35.8928 126.436 35.413 126.714C34.7637 127.09 34.4955 127.249 34.2937 127.607C33.9397 128.225 34.1596 129.926 34.2673 130.62C34.0251 130.906 33.8545 131.245 33.7694 131.61C33.7163 132.042 33.7576 132.481 33.8905 132.896C34.0234 133.311 34.2448 133.692 34.5392 134.013C34.2811 134.279 34.1331 134.633 34.125 135.004C34.1332 135.388 34.3344 135.668 34.8872 136.315C35.0808 136.541 35.315 136.809 35.5839 137.101C35.2827 137.545 35.1087 137.88 35.2457 138.289C35.5162 139.11 36.4057 138.76 37.989 139.625V146.388C37.9889 146.485 38.0266 146.579 38.0942 146.649C38.1617 146.719 38.2539 146.761 38.3513 146.764C60.4746 147.618 82.627 147.349 104.723 145.959C104.817 145.953 104.905 145.912 104.971 145.844C105.036 145.777 105.074 145.687 105.076 145.593C105.127 143.801 104.879 142.012 104.343 140.301C105.315 140.126 106.536 139.883 108.086 139.576C109.169 139.361 110.516 139.094 110.933 138.063C111.159 137.501 110.972 137.056 110.822 136.039C113.271 131.66 114.178 128.531 115.429 124.378C116.033 122.593 116.524 120.771 116.898 118.923C117.1 117.304 117.046 115.663 116.737 114.061ZM66.169 22.3196C65.449 22.2254 64.6566 22.1644 64.0962 22.1463C64.1077 21.313 64.2836 20.4902 64.614 19.7251C64.9444 18.96 65.4227 18.2678 66.0214 17.688C66.0569 17.6534 66.0853 17.6121 66.1048 17.5666C66.1244 17.521 66.1348 17.472 66.1354 17.4224C66.136 17.3728 66.1269 17.3236 66.1085 17.2776C66.0901 17.2315 66.0628 17.1895 66.0282 17.154C65.9936 17.1185 65.9523 17.0902 65.9067 17.0706C65.8611 17.051 65.8122 17.0406 65.7626 17.04C65.713 17.0394 65.6638 17.0485 65.6177 17.0669C65.5717 17.0853 65.5297 17.1126 65.4942 17.1472C64.2893 18.3126 63.5376 19.8681 63.3731 21.5362C62.6671 21.6085 61.9641 21.6926 61.2641 21.7886C61.5258 21.2585 61.9335 20.8143 62.4391 20.5081C62.4813 20.4823 62.5181 20.4485 62.5473 20.4085C62.5764 20.3685 62.5974 20.3232 62.6091 20.2751C62.6207 20.2271 62.6228 20.1771 62.6151 20.1283C62.6075 20.0794 62.5903 20.0325 62.5645 19.9902C62.5388 19.948 62.5049 19.9113 62.465 19.8821C62.425 19.8529 62.3797 19.8319 62.3316 19.8203C62.2345 19.7968 62.132 19.8128 62.0467 19.8648C61.2749 20.3341 60.6921 21.0591 60.3994 21.9136C59.5985 22.0326 58.8011 22.1657 58.0072 22.3128C58.2901 21.8726 58.6565 21.492 59.0858 21.1928C59.1275 21.1649 59.1632 21.1291 59.1908 21.0873C59.2184 21.0455 59.2375 20.9986 59.2467 20.9494C59.256 20.9001 59.2554 20.8495 59.2449 20.8006C59.2344 20.7516 59.2142 20.7052 59.1856 20.6641C59.1569 20.623 59.1203 20.588 59.078 20.5612C59.0356 20.5345 58.9884 20.5164 58.9389 20.5081C58.8895 20.4998 58.839 20.5015 58.7902 20.513C58.7414 20.5245 58.6955 20.5456 58.655 20.5751C57.9571 21.0605 57.4027 21.7247 57.0498 22.4981C52.8715 23.3354 48.7823 24.5679 44.8372 26.179C46.0051 23.5461 47.6493 21.1517 49.6872 19.1161C51.107 17.6993 55.4274 13.3917 61.9442 12.8351C64.3265 12.6736 66.7179 12.9592 68.9951 13.6772C71.7534 14.4228 73.4187 14.874 74.1479 16.272C74.529 17.0716 74.6237 17.9779 74.416 18.839C73.9965 16.9763 72.2317 16.9243 70.4548 17.6007C68.6479 18.2891 66.9531 20.5585 66.169 22.3196ZM71.7097 20.7002C72.0669 20.3459 72.2701 19.8652 72.2753 19.3621C72.2805 18.8591 72.0873 18.3743 71.7376 18.0127C71.9854 17.941 72.2453 17.9209 72.5012 17.9538C72.7571 17.9867 73.0035 18.0719 73.2252 18.204C73.894 18.7312 73.9633 20.2776 73.0926 21.8624C72.6725 21.4277 72.2079 21.0381 71.7067 20.7002H71.7097ZM44.2459 29.4171C46.6216 28.3815 49.0665 27.4588 51.5318 26.6649C49.587 29.0902 49.932 31.8033 52.0492 34.0954C51.2855 38.2207 52.4093 42.5314 56.0368 44.8814C55.7719 45.2703 55.4235 45.5951 55.0169 45.832C53.274 42.9969 50.4976 40.6747 47.1707 40.9993C47.0404 40.7658 46.8754 40.4668 46.6916 40.1188C44.5969 36.1705 43.1899 33.0778 44.2459 29.4171ZM82.1229 61.9244C83.1659 63.1705 84.3905 64.2525 85.7557 65.1339C86.5142 69.3188 87.1679 71.134 87.3578 72.1975C87.6092 74.2815 87.1546 76.3897 86.0667 78.1849C83.7899 74.9105 80.4258 72.5494 76.5725 71.5212C76.7424 71.1223 76.8873 70.7133 77.0063 70.2964C77.7093 70.5963 78.4991 70.6218 79.22 70.368C79.8746 70.1104 79.9431 69.7775 81.1339 68.3885C82.3029 67.0245 82.7616 66.7473 82.8347 65.9609C82.8889 65.3501 82.6306 65.1392 81.8962 62.4924C82.0376 62.3365 82.1181 62.1348 82.1229 61.9244ZM62.4369 54.1121C62.3526 54.0477 62.2719 53.9788 62.1951 53.9057C62.3504 53.7084 62.5545 53.555 62.7873 53.4607C63.02 53.3664 63.2734 53.3344 63.5222 53.3679C64.0663 53.546 64.5883 53.7853 65.0784 54.0812C65.3563 54.2236 65.6621 54.3825 65.8045 54.4699C66.4236 54.8465 66.9057 55.8061 67.1776 57.2048C66.8587 57.2399 66.5409 57.2743 66.224 57.308C66.128 57.3219 66.0412 57.3724 65.9815 57.4489C65.9218 57.5253 65.8939 57.6218 65.9036 57.7183C65.9133 57.8149 65.9599 57.9039 66.0336 57.9669C66.1073 58.0299 66.2025 58.0621 66.2993 58.0567C82.1124 56.4109 84.9234 53.4703 85.7105 54.2544C85.7383 54.3004 85.7105 54.4473 85.6088 54.7297C85.1667 55.8874 83.4034 55.971 80.9705 57.131C79.3533 57.903 75.3071 58.3595 73.302 58.4868C73.2525 58.4898 73.2042 58.5026 73.1597 58.5244C73.1151 58.5461 73.0753 58.5764 73.0425 58.6136C73.0097 58.6507 72.9846 58.6939 72.9685 58.7408C72.9524 58.7877 72.9457 58.8373 72.9487 58.8867C72.9518 58.9362 72.9646 58.9845 72.9863 59.0291C73.0081 59.0736 73.0384 59.1134 73.0756 59.1462C73.1127 59.179 73.1559 59.2041 73.2028 59.2202C73.2497 59.2363 73.2992 59.243 73.3487 59.24C75.2129 59.1212 77.0646 58.854 78.8863 58.4408C79.2619 58.73 79.5276 59.1387 79.6396 59.5993C79.4377 59.5993 79.2426 59.5623 78.8999 59.5812C78.3991 59.6445 77.9158 59.8063 77.4778 60.0572C76.8533 60.2913 76.1809 60.3689 75.5195 60.2832C75.4703 60.276 75.4202 60.2788 75.3721 60.2914C75.324 60.304 75.2789 60.3261 75.2396 60.3565C75.2002 60.3868 75.1674 60.4248 75.143 60.4681C75.1186 60.5114 75.1032 60.5592 75.0977 60.6086C75.0912 60.6576 75.0945 60.7075 75.1073 60.7553C75.1201 60.8031 75.1423 60.8479 75.1724 60.8871C75.2026 60.9264 75.2401 60.9593 75.283 60.984C75.3259 61.0087 75.3732 61.0247 75.4223 61.0311C76.2091 61.133 77.0089 61.0409 77.752 60.763C78.4487 60.4873 78.4841 60.2869 79.397 60.3442C79.9175 60.3811 80.0885 60.1182 80.8063 60.9114C81.094 61.2405 81.5595 61.7708 81.2251 62.0502C79.7042 62.3416 78.1601 62.4951 76.6116 62.5089C76.5117 62.5104 76.4165 62.5515 76.347 62.6232C76.2774 62.6949 76.2392 62.7913 76.2407 62.8912C76.2422 62.9911 76.2833 63.0863 76.355 63.1558C76.4267 63.2254 76.523 63.2636 76.6229 63.2621C78.1614 63.2406 79.6959 63.0988 81.2123 62.8381C81.8676 65.1776 82.1161 65.5384 82.0883 65.9007C82.0574 66.2283 81.9376 66.3752 81.3554 67.0147C79.3729 69.199 79.4558 69.4747 78.9451 69.6743C78.3729 69.8573 77.7531 69.8214 77.2059 69.5733C77.4741 68.6091 77.6568 67.6231 77.752 66.6268C78.53 66.4219 79.2552 66.0531 79.8791 65.5451C79.9568 65.4822 80.0063 65.391 80.0168 65.2916C80.0272 65.1921 79.9977 65.0926 79.9348 65.0149C79.8719 64.9372 79.7807 64.8876 79.6812 64.8772C79.5818 64.8667 79.4823 64.8962 79.4046 64.9591C78.6043 65.605 77.6236 65.9871 76.5973 66.0528C76.4974 66.0558 76.4028 66.0984 76.3343 66.1711C76.2658 66.2439 76.229 66.3408 76.232 66.4407C76.235 66.5406 76.2776 66.6352 76.3503 66.7037C76.423 66.7722 76.52 66.809 76.6199 66.806C76.6651 66.806 76.9212 66.7819 76.9807 66.7744C76.9043 67.4878 76.7785 68.195 76.6041 68.8909C76.2072 70.4674 75.8644 71.8285 74.7572 72.883C74.1156 73.4817 73.3348 73.9109 72.4855 74.1318C72.4243 74.1477 72.3681 74.1787 72.322 74.222C72.2759 74.2653 72.2415 74.3195 72.2219 74.3796C67.7531 88.0279 68.1191 94.6667 63.7 112.846C63.1539 115.588 62.123 118.211 60.6555 120.59C59.546 122.307 58.1897 123.851 56.6303 125.172C56.5797 125.215 56.5412 125.27 56.5188 125.332C55.8847 126.297 55.1747 127.209 54.3955 128.061C53.2152 129.347 52.2745 130.35 51.6086 130.229C51.0814 130.126 50.7612 129.325 50.3184 128.217C48.6266 123.983 49.9418 128.217 46.6555 120.055C45.9626 118.497 45.361 116.9 44.8538 115.272C44.8372 115.135 44.8191 115.105 44.566 114.604C44.132 113.934 43.9049 113.151 43.913 112.352C43.9384 111.984 44.0631 111.629 44.2738 111.326C44.8405 110.337 45.2341 109.258 45.4375 108.137C45.5302 107.602 45.6947 107.083 45.9264 106.592C46.1848 106.055 46.5053 105.549 46.8814 105.086C48.0752 103.993 49.16 102.786 50.1203 101.483C51.5524 99.4878 52.7056 97.3062 53.5482 94.9989C55.4184 90.39 54.8964 92.5208 59.1543 83.8671C61.8968 78.2866 63.4077 75.2127 63.9071 72.7128C64.6229 68.2248 64.9836 63.6874 64.9857 59.1428C64.9861 59.1111 64.9823 59.0794 64.9744 59.0487C64.7743 58.2548 64.5149 57.4771 64.1986 56.722C63.8909 55.6929 63.2762 54.7823 62.4369 54.1121ZM55.9441 51.6777C56.3855 52.345 56.8407 53.0003 57.3097 53.6436C59.2176 56.2565 60.1644 57.0443 61.2468 57.5874C62.1112 58.0147 63.0451 58.2841 64.0043 58.3828C64.0872 58.6495 64.164 58.9168 64.2303 59.1857C64.2112 63.3657 63.9092 67.5395 63.3264 71.6786C62.3034 70.8776 61.4411 69.8904 60.785 68.7689C60.3836 68.0654 60.0808 67.2512 59.25 64.0236C58.8365 62.4419 58.4493 60.7713 58.0998 59.069C57.7285 56.517 57.003 54.0292 55.9441 51.6777ZM51.2456 67.4131C53.1892 64.7992 55.28 62.298 57.5078 59.9216C57.8204 61.3912 58.1593 62.8298 58.5179 64.2067C59.3592 67.4726 59.671 68.3381 60.1305 69.1402C60.8521 70.3775 61.8076 71.4625 62.9438 72.3346C58.7927 75.3827 55.2715 79.2062 52.575 83.5937C51.6437 81.476 51.0942 79.2104 50.9518 76.9014C50.8501 75.2872 51.0897 69.8596 51.2456 67.4131ZM32.3888 120.033C31.2183 118.038 31.7154 116.96 30.5404 112.238C29.5612 108.317 29.0912 108.385 28.692 105.916C28.283 103.361 28.744 103.064 28.912 97.706C29.0859 92.1427 28.5594 91.7292 28.6973 87.0683C28.8564 85.4955 28.7288 83.9068 28.3207 82.3795C27.9508 81.1578 27.6059 80.8046 27.6059 79.9007C27.6059 78.7889 28.1286 77.9582 29.0618 76.5722C29.7124 75.5227 30.526 74.5834 31.4721 73.7899C33.0757 72.5192 34.4443 72.4567 37.1115 71.7818C38.2699 71.4888 46.4581 68.4804 50.7725 66.7812L50.5707 67.0523C50.5269 67.1105 50.5008 67.1801 50.4954 67.2527C50.3327 69.7895 50.0886 75.2752 50.1941 76.9421C50.3617 79.5859 51.0352 82.1731 52.1781 84.5631C52.207 84.6253 52.2524 84.6784 52.3094 84.7167C52.3663 84.755 52.4326 84.777 52.5012 84.7804C52.5697 84.7837 52.6379 84.7682 52.6983 84.7356C52.7587 84.7031 52.809 84.6546 52.8439 84.5955C55.4534 80.1746 58.9069 76.31 63.0078 73.2219C62.4399 75.4062 61.1157 78.1465 58.4704 83.5274C54.6539 91.2856 54.5537 90.5323 53.1723 93.9007C51.8594 97.1011 50.9624 99.4572 48.3299 102.502C48.2078 96.0444 48.2041 92.3416 48.3193 91.4965C48.3682 91.1739 48.3539 90.8449 48.2771 90.5278C48.0566 89.8107 47.5918 89.1934 46.9635 88.7834C46.135 88.1454 45.195 87.3598 44.1201 86.4627C44.0432 86.4021 43.9456 86.3738 43.8481 86.3839C43.7506 86.3941 43.6609 86.4418 43.5981 86.517C43.5352 86.5922 43.5042 86.689 43.5115 86.7867C43.5188 86.8844 43.564 86.9754 43.6373 87.0404C44.6579 87.8923 45.665 88.7359 46.5191 89.392C47.0013 89.6999 47.3634 90.1638 47.545 90.7063C47.5994 90.9297 47.6091 91.1616 47.5736 91.3887C47.4463 92.325 47.4524 96.2282 47.5925 103.319C47.2329 103.698 46.8616 104.064 46.4785 104.419C45.0391 104.146 43.5502 104.339 42.2277 104.969C40.9052 105.6 39.8179 106.635 39.1233 107.925C37.9716 110.039 38.9885 111.299 36.06 118.169C35.4574 119.594 35.0868 120.456 35.3226 121.74C35.4769 122.371 35.7147 122.979 36.0298 123.547C34.5343 122.708 33.2803 121.498 32.3888 120.033ZM36.6821 123.158C36.4101 122.669 36.2028 122.146 36.0652 121.604C35.7813 120.059 36.5556 119.243 37.647 116.241C38.3574 114.391 38.8609 112.468 39.1482 110.508C39.2132 109.732 39.431 108.978 39.7891 108.287C40.3697 107.2 41.2659 106.315 42.3598 105.748C43.4537 105.181 44.6938 104.958 45.9166 105.11C45.6621 105.477 45.4369 105.863 45.2432 106.265C44.9869 106.809 44.8035 107.385 44.6979 107.978C44.0757 110.942 43.2585 110.935 43.1598 112.293C43.0717 113.462 43.5643 114.297 44.1043 115.359C44.1247 115.524 44.1714 115.91 45.9542 120.33C47.9126 125.186 48.244 125.692 48.5378 126.138C48.9631 126.89 49.3239 127.677 49.6164 128.49C50.1285 129.77 50.533 130.78 51.4602 130.961C52.5547 131.176 53.5602 130.081 54.9521 128.563C55.5517 127.909 56.1116 127.219 56.6288 126.498C56.6561 127.086 56.5445 127.672 56.303 128.209C56.0616 128.745 55.6971 129.217 55.2391 129.587C54.6535 130.139 54.1069 130.731 53.6031 131.359C52.3091 132.964 52.3227 133.481 51.5943 133.824C50.8411 134.179 50.0803 134.05 48.4308 133.716C46.8745 133.384 45.3571 132.891 43.9032 132.244C42.5881 131.77 41.3126 131.193 40.0889 130.517C38.7587 129.346 39.1113 128.459 36.6821 123.158ZM36.4788 138.258C36.127 138.169 35.9816 138.125 35.9575 138.052C35.8536 137.743 37.0053 136.79 38.0432 134.357C38.0824 134.266 38.0836 134.162 38.0464 134.069C38.0091 133.976 37.9366 133.902 37.8447 133.863C37.7528 133.824 37.6491 133.823 37.5564 133.86C37.4636 133.897 37.3895 133.97 37.3502 134.061C36.9906 134.907 36.5465 135.715 36.0246 136.472C35.8092 136.235 35.6193 136.02 35.4582 135.828C35.0123 135.307 34.8782 135.115 34.8759 134.991C34.8699 134.717 35.1569 134.45 35.3037 134.313C36.3224 133.197 37.0953 131.88 37.5724 130.446C37.5937 130.4 37.6054 130.349 37.6066 130.298C37.6079 130.247 37.5987 130.196 37.5797 130.149C37.5607 130.102 37.5322 130.058 37.4961 130.022C37.4599 129.986 37.4167 129.958 37.3693 129.939C37.3218 129.92 37.271 129.911 37.2199 129.913C37.1688 129.914 37.1186 129.926 37.0722 129.947C37.0258 129.969 36.9843 129.999 36.9501 130.037C36.9159 130.075 36.8899 130.12 36.8734 130.168C36.4503 131.358 35.84 132.472 35.0657 133.469C34.8602 133.237 34.7043 132.966 34.6076 132.671C34.5108 132.377 34.4753 132.065 34.5031 131.757C34.5942 131.305 34.8593 131.142 36.8463 128.406C36.9051 128.325 36.9293 128.224 36.9137 128.125C36.8981 128.027 36.8439 127.938 36.7631 127.879C36.6823 127.821 36.5815 127.796 36.4828 127.812C36.3841 127.828 36.2957 127.882 36.237 127.963C35.7052 128.695 35.2578 129.301 34.9098 129.759C34.8172 129.167 34.8284 128.564 34.943 127.975C35.0379 127.808 35.1689 127.722 35.7851 127.362C36.237 127.103 36.7416 126.818 37.2915 126.513C38.3528 129.225 38.4077 130.042 39.582 131.079C39.9812 131.431 41.1171 131.903 43.6132 132.94C45.1111 133.603 46.6732 134.109 48.2749 134.452C49.0347 134.634 49.8099 134.744 50.5903 134.782C51.0456 134.791 51.4968 134.695 51.9092 134.502C52.8959 134.038 52.8514 133.482 54.1839 131.827C55.6752 129.97 56.4563 129.751 56.9866 128.534C67.1858 127.702 77.28 125.88 87.1265 123.094C87.5724 123.559 88.2059 124.041 89.0721 124.819C89.5466 125.239 91.9042 127.907 93.7511 129.981C99.1983 136.1 99.7519 137.69 99.8371 138.702C99.8491 138.849 99.8544 138.932 99.8657 139.031C84.501 139.087 69.1502 138.099 53.9195 136.073C53.8607 136.066 53.8009 136.072 53.7451 136.092C53.6892 136.111 53.6387 136.144 53.5979 136.187C52.8914 136.924 52.0614 137.531 51.1454 137.982C46.3128 140.331 40.8098 137.204 39.7553 136.551C39.6703 136.498 39.5679 136.482 39.4706 136.505C39.3734 136.528 39.2892 136.588 39.2367 136.673C39.1841 136.758 39.1675 136.861 39.1905 136.958C39.2134 137.055 39.2741 137.139 39.3591 137.192C40.0865 137.634 40.8458 138.021 41.6308 138.35C41.4334 138.646 41.218 138.936 40.98 139.226C40.6139 139.667 40.3495 139.986 40.2012 140.025C40.0053 140.08 39.8426 139.981 39.396 139.649C38.5379 138.976 37.5421 138.501 36.4795 138.258H36.4788ZM104.327 145.231C82.4917 146.594 60.6018 146.86 38.7399 146.027V140.108C39.3056 140.513 39.7658 140.944 40.4068 140.755C40.7796 140.657 41.041 140.34 41.5833 139.686C41.8585 139.352 42.1143 139.002 42.3493 138.639C46.5139 140.193 50.8381 140.026 54.0106 136.848C69.2827 138.872 84.6749 139.853 100.08 139.785C100.135 139.892 100.2 139.993 100.276 140.086C100.445 140.29 100.662 140.447 100.908 140.543C101.154 140.64 101.42 140.673 101.682 140.639C102.323 140.618 102.961 140.549 103.591 140.432C104.089 141.983 104.337 143.602 104.328 145.231H104.327ZM110.231 137.785C109.969 138.437 108.842 138.66 107.937 138.84C104.157 139.593 102.473 139.904 101.651 139.894C101.008 139.885 100.677 139.676 100.591 138.644C100.488 137.41 99.9267 135.782 94.3175 129.486C89.6475 124.25 90.0377 124.642 88.6262 123.437C87.6259 122.584 87.2214 122.219 87.247 121.73C87.2689 121.282 87.705 121.01 89.3689 120.041C96.8212 115.701 94.7009 115.73 98.8059 118.642C101.112 120.276 101.597 120.183 102.488 121.203C103.114 121.916 103.058 122.163 104.093 124.225C105.014 126.112 106.069 127.93 107.251 129.666C109.309 132.633 109.818 132.314 109.922 134.524C109.953 135.313 110.044 136.098 110.195 136.872C110.288 137.387 110.316 137.574 110.232 137.785H110.231ZM116.149 118.825C115.775 120.646 115.289 122.442 114.693 124.203C113.488 128.212 112.722 130.847 110.686 134.71C110.535 131.891 110.029 132.347 107.872 129.238C106.711 127.532 105.673 125.745 104.768 123.89C103.726 121.815 103.77 121.522 103.055 120.707C102.063 119.569 101.51 119.632 99.2413 118.023C97.5962 116.856 97.1323 116.298 96.5048 116.029C98.2101 114.044 98.5182 113.197 98.9588 112.764C98.9794 112.747 98.9984 112.729 99.0153 112.709C99.2638 112.474 99.9643 111.886 102.06 111.764C103.823 111.673 105.587 111.935 107.248 112.534C107.294 112.551 107.344 112.558 107.393 112.556C107.443 112.553 107.491 112.541 107.536 112.52C107.581 112.499 107.621 112.47 107.654 112.433C107.687 112.396 107.713 112.354 107.73 112.307C107.747 112.261 107.754 112.211 107.752 112.162C107.75 112.112 107.738 112.064 107.716 112.019C107.695 111.974 107.666 111.934 107.629 111.901C107.593 111.868 107.55 111.842 107.503 111.825C105.747 111.192 103.883 110.915 102.018 111.012C100.896 111.01 99.7949 111.315 98.833 111.893C98.7225 111.664 98.6826 111.408 98.7185 111.157C98.7938 110.803 99.117 110.523 99.7896 109.857C99.814 109.838 99.836 109.816 99.8551 109.792C100.27 109.382 101.05 108.62 101.05 108.62C101.085 108.585 101.113 108.544 101.133 108.499C101.152 108.453 101.162 108.404 101.163 108.355C101.163 108.305 101.154 108.256 101.136 108.21C101.117 108.164 101.09 108.123 101.055 108.087C101.021 108.052 100.98 108.024 100.934 108.004C100.888 107.985 100.84 107.975 100.79 107.974C100.741 107.973 100.692 107.983 100.646 108.001C100.6 108.02 100.558 108.047 100.522 108.082L99.8401 108.75C97.8003 91.9537 96.7391 83.5854 96.4995 82.436C96.4212 82.0945 96.4054 81.7415 96.4529 81.3943C96.6025 80.7045 96.9121 80.0595 97.3567 79.5113C97.7465 78.9116 98.1681 78.3333 98.6199 77.7789C98.6813 77.7014 98.7097 77.6028 98.6991 77.5045C98.6885 77.4062 98.6397 77.316 98.5631 77.2534C98.4866 77.1908 98.3885 77.1609 98.29 77.17C98.1916 77.1791 98.1006 77.2265 98.0369 77.3021C97.5685 77.878 97.131 78.4784 96.7263 79.1008C96.2192 79.7413 95.8694 80.4917 95.7049 81.2919C95.6456 81.7264 95.6652 82.1681 95.7629 82.5957C95.9957 83.715 97.1074 92.4892 99.1607 109.418C98.5807 109.993 98.1016 110.404 97.9789 111.013C97.9032 111.499 98 111.995 98.2523 112.417C97.4618 113.616 96.5956 114.764 95.659 115.852C94.7092 115.816 94.1141 116.25 92.0797 117.528C87.7057 120.275 86.5563 120.466 86.4938 121.688C86.4784 121.951 86.5327 122.214 86.6512 122.449C77.0381 125.15 67.1895 126.928 57.2389 127.76C57.4048 127.048 57.4241 126.309 57.2954 125.589C58.8366 124.253 60.1807 122.707 61.2874 120.994C62.8023 118.543 63.8663 115.841 64.4291 113.016C68.913 94.5681 68.4144 88.5024 72.8727 74.7977C74.2795 74.3935 75.4787 73.4671 76.2252 72.2081C80.1666 73.2198 83.5796 75.6848 85.779 79.1083C85.8139 79.1626 85.8622 79.2069 85.9192 79.2371C85.9762 79.2674 86.04 79.2824 86.1045 79.2809C86.169 79.2794 86.232 79.2614 86.2875 79.2285C86.343 79.1956 86.3892 79.1491 86.4215 79.0932C87.9031 76.5323 88.4673 74.1702 88.0982 72.0657C87.9016 70.9555 87.3209 69.3896 86.5797 65.451C88.2872 65.988 105.029 71.0519 106.76 71.0813C107.593 71.0476 108.419 71.2502 109.142 71.6658C110.595 72.5696 111.119 74.4135 111.47 76.2694C112.832 83.5372 111.22 89.7256 113.46 91.7977C113.856 92.1567 114.182 92.585 114.424 93.0616C114.798 93.8737 114.936 94.775 114.82 95.6617C114.459 99.4798 115.435 110.178 115.991 114.164C116.287 115.7 116.341 117.273 116.15 118.825H116.149Z" fill="black"/>
<path id="Vector_17" d="M70.4379 49.7671C70.3891 49.7546 70.3433 49.7325 70.3031 49.7021C70.263 49.6716 70.2294 49.6334 70.2043 49.5897C70.1792 49.546 70.1632 49.4977 70.1571 49.4477C70.151 49.3977 70.155 49.347 70.1688 49.2985C70.1827 49.2501 70.2061 49.2049 70.2378 49.1657C70.2694 49.1265 70.3086 49.094 70.353 49.0702C70.3974 49.0464 70.4461 49.0318 70.4963 49.0271C70.5464 49.0225 70.597 49.028 70.6451 49.0433C71.3817 49.2587 72.1635 49.2672 72.9047 49.068C73.6459 48.8687 74.3179 48.4692 74.8472 47.9134C74.8809 47.8757 74.9217 47.8451 74.9674 47.8235C75.0131 47.8019 75.0627 47.7897 75.1132 47.7877C75.1637 47.7856 75.2141 47.7938 75.2614 47.8116C75.3087 47.8294 75.3519 47.8566 75.3884 47.8915C75.425 47.9264 75.4542 47.9683 75.4742 48.0147C75.4942 48.0611 75.5047 48.1111 75.505 48.1616C75.5053 48.2122 75.4955 48.2622 75.476 48.3089C75.4566 48.3555 75.4279 48.3978 75.3918 48.4331C74.7679 49.0885 73.9757 49.5597 73.102 49.7949C72.2282 50.0302 71.3066 50.0206 70.4379 49.7671Z" fill="black"/>
<path id="Vector_18" d="M68.9951 43.6708C68.9185 43.6707 68.8438 43.6473 68.7809 43.6037C68.718 43.56 68.6699 43.4983 68.6429 43.4266C68.616 43.3549 68.6116 43.2768 68.6302 43.2025C68.6489 43.1282 68.6897 43.0614 68.7473 43.011C69.1781 42.6343 69.6853 42.3552 70.2341 42.193C70.4838 42.1218 70.7403 42.0771 70.9994 42.0597C71.6585 42.0196 72.2849 41.7582 72.777 41.3177C73.0463 41.0696 73.245 40.7544 73.3528 40.4045C73.4606 40.0545 73.4738 39.6822 73.3908 39.3255C73.3276 39.1553 73.265 39.1048 72.9781 38.8916C72.44 38.5176 71.9605 38.0658 71.5552 37.5509C69.2256 34.871 68.9785 34.7376 68.8135 34.056C68.6683 33.379 68.7422 32.6734 69.0244 32.0411C69.065 31.9498 69.1402 31.8784 69.2334 31.8425C69.3266 31.8066 69.4303 31.8093 69.5216 31.8498C69.6129 31.8904 69.6843 31.9655 69.7202 32.0588C69.7561 32.152 69.7534 32.2556 69.7129 32.3469C69.4966 32.8311 69.4391 33.3714 69.5487 33.8903C69.6579 34.3422 69.8952 34.4981 72.1232 37.0538C72.4931 37.5278 72.933 37.9428 73.4277 38.2845C73.7291 38.4605 73.9636 38.7315 74.0943 39.0551C74.2331 39.551 74.2319 40.0756 74.091 40.5709C73.9501 41.0663 73.6749 41.5129 73.2959 41.8616C72.6818 42.4201 71.8963 42.7534 71.0679 42.8069C70.8573 42.8203 70.6488 42.8561 70.4458 42.9138C70.0009 43.0448 69.5897 43.2706 69.2406 43.5759C69.1728 43.636 69.0857 43.6697 68.9951 43.6708Z" fill="black"/>
<path id="Vector_19" d="M65.1696 33.4957C64.7592 33.3032 64.3186 33.1835 63.8673 33.1417C60.8868 32.8833 58.7175 36.2186 58.4803 36.6012C58.4519 36.6432 58.4323 36.6905 58.4227 36.7402C58.413 36.79 58.4135 36.8412 58.4241 36.8907C58.4347 36.9403 58.4552 36.9872 58.4843 37.0286C58.5135 37.0701 58.5507 37.1052 58.5938 37.1319C58.6368 37.1587 58.6848 37.1764 58.7349 37.1841C58.785 37.1919 58.8361 37.1894 58.8852 37.1769C58.9343 37.1645 58.9804 37.1422 59.0207 37.1115C59.061 37.0807 59.0947 37.0422 59.1197 36.9982C59.7014 36.0878 60.4445 35.2914 61.3123 34.6481C61.1527 35.4322 61.5451 36.2931 62.2162 36.2931C63.1509 36.2931 63.4778 34.6662 62.7691 33.9642C63.4674 33.7953 64.2026 33.8702 64.8525 34.1766C64.8976 34.2035 64.9478 34.2207 65 34.2271C65.0521 34.2334 65.105 34.2288 65.1553 34.2135C65.2055 34.1982 65.252 34.1725 65.2917 34.1382C65.3315 34.1038 65.3636 34.0616 65.386 34.014C65.4085 33.9665 65.4207 33.9149 65.422 33.8624C65.4233 33.8098 65.4135 33.7576 65.3934 33.7091C65.3733 33.6606 65.3433 33.6168 65.3053 33.5806C65.2672 33.5443 65.222 33.5164 65.1726 33.4987L65.1696 33.4957Z" fill="black"/>
<path id="Vector_20" d="M75.7896 32.4114C75.4143 31.8547 74.8653 31.4378 74.2282 31.2258C72.8604 30.8153 71.2319 31.5685 70.2701 33.0591C70.2432 33.1007 70.2248 33.1471 70.2159 33.1958C70.207 33.2444 70.2077 33.2944 70.2181 33.3427C70.2285 33.3911 70.2483 33.4369 70.2764 33.4776C70.3045 33.5184 70.3404 33.5531 70.3819 33.58C70.4235 33.6068 70.4699 33.6253 70.5185 33.6342C70.5672 33.6431 70.6171 33.6423 70.6655 33.6319C70.7139 33.6215 70.7597 33.6017 70.8004 33.5736C70.8411 33.5455 70.8759 33.5097 70.9028 33.4681C71.2498 32.9177 71.7345 32.4675 72.309 32.1621C72.126 32.8475 72.535 33.5555 73.0954 33.5555C73.7672 33.5555 74.1597 32.5891 73.7733 31.8984C74.3424 32.0152 74.8419 32.353 75.1622 32.8377C75.2178 32.9207 75.3042 32.9782 75.4022 32.9975C75.5002 33.0169 75.6019 32.9965 75.6849 32.9409C75.7679 32.8852 75.8254 32.7989 75.8448 32.7009C75.8641 32.6029 75.8438 32.5012 75.7881 32.4182L75.7896 32.4114Z" fill="black"/>
<path id="Vector_21" d="M116.836 85.8784C116.771 85.8785 116.708 85.8619 116.652 85.8303C116.595 85.7987 116.548 85.7532 116.514 85.698C116.481 85.6428 116.462 85.58 116.459 85.5154C116.457 85.4508 116.471 85.3867 116.501 85.3293C122.303 73.9973 124.065 61.0246 121.494 48.5558C121.484 48.5073 121.484 48.4574 121.493 48.4088C121.503 48.3602 121.522 48.314 121.549 48.2727C121.576 48.2315 121.611 48.196 121.652 48.1683C121.693 48.1406 121.739 48.1213 121.788 48.1114C121.836 48.1015 121.886 48.1012 121.935 48.1106C121.983 48.12 122.03 48.1389 122.071 48.1662C122.112 48.1935 122.148 48.2286 122.175 48.2696C122.203 48.3106 122.222 48.3567 122.232 48.4051C124.837 61.042 123.052 74.1894 117.172 85.6743C117.14 85.7359 117.092 85.7876 117.033 85.8236C116.974 85.8596 116.905 85.8786 116.836 85.8784Z" fill="black"/>
<path id="Vector_22" d="M118.926 39.1675C118.851 39.1676 118.777 39.1453 118.715 39.1034C118.653 39.0615 118.604 39.002 118.576 38.9325C117.544 36.3903 116.326 33.9279 114.931 31.5653C114.883 31.4794 114.871 31.3783 114.897 31.2834C114.923 31.1886 114.984 31.1076 115.069 31.0576C115.154 31.0077 115.254 30.9928 115.35 31.0162C115.445 31.0395 115.528 31.0992 115.58 31.1826C116.993 33.5771 118.228 36.0728 119.274 38.6493C119.298 38.7064 119.306 38.7684 119.3 38.8297C119.294 38.8911 119.272 38.9499 119.238 39.0011C119.203 39.0523 119.157 39.0942 119.102 39.1232C119.048 39.1522 118.987 39.1674 118.926 39.1675Z" fill="black"/>
<path id="Vector_23" d="M107.112 21.2564C107.061 21.2565 107.01 21.2459 106.963 21.2254C106.915 21.205 106.873 21.175 106.838 21.1374C105.572 19.7907 104.222 18.4906 102.824 17.2727C102.749 17.207 102.703 17.1142 102.696 17.0145C102.689 16.9149 102.722 16.8166 102.788 16.7413C102.853 16.666 102.946 16.6198 103.046 16.6129C103.146 16.6061 103.244 16.6391 103.319 16.7047C104.736 17.9393 106.106 19.2566 107.387 20.6215C107.437 20.675 107.471 20.7421 107.484 20.8145C107.496 20.887 107.488 20.9616 107.458 21.0291C107.429 21.0966 107.381 21.1542 107.319 21.1945C107.258 21.2349 107.186 21.2565 107.112 21.2564Z" fill="black"/>
<path id="Vector_24" d="M25.1073 97.6716C25.0545 97.6716 25.0022 97.6605 24.9539 97.639C24.9057 97.6174 24.8625 97.586 24.8271 97.5466C16.1411 87.833 11.0798 75.4156 10.5007 62.3977C9.92154 49.3798 13.8601 36.5619 21.6493 26.1154C29.4384 15.6689 40.5992 8.23602 53.241 5.07594C65.8828 1.91587 79.2283 3.22288 91.0168 8.77556C91.0657 8.79373 91.1104 8.82189 91.1479 8.85825C91.1854 8.89461 91.2149 8.93838 91.2346 8.98677C91.2543 9.03516 91.2637 9.08711 91.2622 9.13933C91.2607 9.19154 91.2484 9.24288 91.226 9.29008C91.2036 9.33727 91.1717 9.37929 91.1322 9.41347C91.0927 9.44764 91.0465 9.47323 90.9965 9.48859C90.9466 9.50396 90.894 9.50877 90.8421 9.50272C90.7903 9.49667 90.7402 9.47989 90.6952 9.45345C79.0637 3.96939 65.8939 2.67588 53.4178 5.79216C40.9416 8.90844 29.9268 16.2428 22.2403 26.5521C14.5537 36.8614 10.6683 49.5114 11.2426 62.358C11.8169 75.2045 16.8155 87.4574 25.3913 97.0397C25.4414 97.0939 25.4744 97.1617 25.4862 97.2346C25.4981 97.3074 25.4883 97.3821 25.4581 97.4495C25.4278 97.5168 25.3784 97.5738 25.3161 97.6133C25.2537 97.6528 25.1811 97.6731 25.1073 97.6716Z" fill="black"/>
</g>
</g>
</svg>
