<svg width="151" height="151" viewBox="0 0 151 151" fill="none" xmlns="http://www.w3.org/2000/svg">
<g id="Bugs--Streamline-London">
<g id="Bugs--Streamline-London.svg">
<g id="monitor">
<path id="vector" fill-rule="evenodd" clip-rule="evenodd" d="M108.438 74.5104L108.803 10.4358L7.16785 9.82568V78.4655L55.4249 76.5825C55.443 78.4331 55.3782 82.5916 54.4457 83.3509C51.2159 83.6928 29.6649 86.5076 25.6156 90.41L29.9557 93.9682L93.9549 89.4956C93.9549 89.4956 93.8532 86.1114 88.0934 85.0735C82.8781 83.4465 71.146 83.9904 64.3475 83.1332C64.1735 80.689 64.1773 78.2237 64.2119 76.239L108.438 74.5104Z" fill="#81F8F8"/>
<path id="vector_2" fill-rule="evenodd" clip-rule="evenodd" d="M7.16788 78.4649L3.99232 76.3122L3.76636 8.24333L104.344 8.00757L108.803 10.4352L7.16788 9.82508V78.4649Z" fill="white"/>
<path id="vector_3" fill-rule="evenodd" clip-rule="evenodd" d="M29.9594 93.9662L25.6194 90.4081V92.3551C25.6194 92.3551 29.2446 95.4433 30.1635 95.6768C31.0825 95.9103 93.961 91.3142 93.961 91.3142V89.4937L29.9594 93.9662Z" fill="white"/>
<path id="vector_4" fill-rule="evenodd" clip-rule="evenodd" d="M106.279 13.3113L10.2499 13.544V74.7466L105.7 71.2547L106.279 13.3113Z" fill="white"/>
<path id="vector_5" d="M108.916 10.225L104.457 7.79818C104.423 7.77874 104.383 7.76858 104.343 7.7688L3.76658 8.00456C3.70472 8.00915 3.64658 8.03589 3.60285 8.07988C3.55913 8.12387 3.53275 8.18217 3.52856 8.24408L3.75453 76.313C3.7547 76.3521 3.76431 76.3898 3.78255 76.4245C3.80078 76.4591 3.8271 76.4885 3.85923 76.5103L7.03328 78.663C7.07328 78.6894 7.12016 78.7037 7.16811 78.7037L55.2211 76.8282C55.2602 78.5229 55.1698 82.3078 54.3466 83.1213C52.8228 83.2976 29.6953 85.9835 25.4532 90.2377C25.427 90.2573 25.4062 90.2836 25.393 90.313C25.3798 90.3431 25.3746 90.3763 25.3779 90.4087V92.355C25.3779 92.3896 25.3854 92.4243 25.3999 92.4552C25.4145 92.4868 25.4358 92.5147 25.4622 92.5373C25.8388 92.8566 29.1575 95.6684 30.1028 95.9087C30.1701 95.9177 30.2382 95.9215 30.3062 95.9184C34.137 95.9184 87.7133 92.0108 93.9748 91.5536C94.035 91.549 94.0915 91.5219 94.1322 91.4782C94.1736 91.4338 94.1962 91.3758 94.1962 91.3155V89.4897C94.1917 89.3436 94.0215 85.8962 88.1705 84.8432C84.9889 83.8504 79.4279 83.6591 74.0499 83.4731C70.5437 83.3518 67.2288 83.2373 64.5783 82.9179C64.3997 80.2628 64.4336 77.2861 64.4479 76.4666L108.449 74.7478C108.51 74.7447 108.568 74.7183 108.61 74.6742C108.652 74.6301 108.675 74.5715 108.675 74.5105L109.041 10.4367C109.038 10.3941 109.025 10.3529 109.003 10.3162C108.981 10.2795 108.951 10.2483 108.916 10.225ZM107.854 10.1904L7.22384 9.58782L4.84142 8.47909L104.284 8.24634L107.854 10.1904ZM4.00686 8.61843L6.92934 9.97422V78.0115L4.23207 76.1827L4.00686 8.61843ZM25.8584 90.9133L29.7164 94.0768L29.6704 95.166C28.3421 94.2704 27.0691 93.295 25.8584 92.2458V90.9133ZM30.2226 95.4462C30.2015 95.4402 30.1631 95.4183 30.1374 95.4093L30.1887 94.1906L93.7202 89.7504V91.0933C72.0991 92.6721 31.3019 95.5833 30.2226 95.4454V95.4462ZM64.1173 83.1484C64.1212 83.2034 64.1442 83.2554 64.1822 83.2961C64.2202 83.336 64.2711 83.3616 64.3259 83.3684C67.03 83.7096 70.4323 83.8271 74.0349 83.9513C79.3827 84.1359 84.9106 84.328 88.0583 85.3071C92.7395 86.1507 93.5567 88.5196 93.6953 89.2736L30.041 93.7221L25.9902 90.4004C30.2421 86.8324 49.7798 84.0847 54.4784 83.5875C54.5246 83.583 54.5684 83.5642 54.6042 83.5348C55.7619 82.5888 55.734 78.004 55.7031 76.8093L63.9719 76.4862C63.9538 77.3675 63.9214 80.4542 64.1135 83.1477L64.1173 83.1484ZM108.205 74.2801L7.40687 78.2164V10.0654L108.564 10.6725L108.205 74.2801Z" fill="black"/>
<path id="vector_6" d="M10.2527 74.9846L105.71 71.4927C105.771 71.4902 105.83 71.4643 105.872 71.4203C105.915 71.3763 105.94 71.3176 105.941 71.2562L106.521 13.3135C106.521 13.2821 106.514 13.2508 106.502 13.2216C106.491 13.1924 106.473 13.1658 106.451 13.1435C106.429 13.1211 106.402 13.1033 106.374 13.0911C106.344 13.0789 106.313 13.0726 106.282 13.0725L10.252 13.3053C10.1886 13.3053 10.1279 13.3304 10.0831 13.3752C10.0383 13.42 10.0132 13.4807 10.0132 13.544V74.7459C10.0133 74.7782 10.0201 74.8102 10.0331 74.8399C10.046 74.8695 10.0649 74.8962 10.0885 74.9183C10.1325 74.961 10.1914 74.9848 10.2527 74.9846ZM10.4915 13.7843L106.04 13.5531L105.465 71.0235L10.4915 74.498V13.7843Z" fill="black"/>
</g>
<g id="spray">
<path id="vector_7" d="M123.017 80.3135L122.975 80.0989C122.975 80.0989 113.041 72.9704 102.327 80.419L102.34 80.4099C102.34 80.4099 99.854 79.7102 99.558 81.6618C99.262 83.6134 103.608 92.8779 120.115 94.6924C120.937 92.6527 120.705 92.5955 121.715 90.7004C122.911 88.4505 122.756 83.7354 123.017 80.3135Z" fill="white"/>
<path id="vector_8" d="M123.114 79.9049C123.01 79.8296 112.986 72.8194 102.293 80.1527C101.552 79.9546 100.764 80.0352 100.079 80.3787C98.9271 81.1213 99.2683 82.5562 99.8317 83.805L84.8879 122.961C84.9075 123.091 86.896 134.561 103.934 134.561C106.011 134.551 108.085 134.4 110.142 134.109C110.337 134.083 110.199 134.3 112.035 129.764C112.056 129.711 112.058 129.653 112.039 129.598C112.021 129.545 111.984 129.499 111.935 129.47C111.886 129.442 111.828 129.431 111.772 129.441C111.716 129.451 111.666 129.48 111.629 129.524C108.784 127.256 106.288 124.583 104.219 121.59C101.508 117.342 102.102 117.372 101.117 114.67C100.132 111.969 95.1053 106.662 93.6599 105.546C93.2178 105.218 92.8148 104.841 92.4585 104.422L97.0652 92.3797C98.2575 93.3528 99.123 94.6664 99.547 96.1457C100.82 100.429 99.5282 99.7318 101.95 101.906C104.371 104.079 108.17 106.914 111.324 105.688C114.477 104.462 116.059 102.223 117.745 100.242C118.745 99.0675 119.363 97.0421 120.053 94.927C120.085 94.9346 120.118 94.9361 120.15 94.93C120.182 94.9248 120.213 94.9127 120.24 94.8954C120.267 94.8781 120.291 94.8547 120.309 94.8276C120.328 94.8005 120.34 94.7704 120.346 94.7387C120.352 94.7063 120.352 94.6732 120.345 94.6416C120.337 94.6099 120.324 94.5798 120.305 94.5534C120.286 94.5271 120.262 94.5045 120.234 94.4879C120.206 94.4713 120.175 94.46 120.143 94.4555C108.845 93.2142 103.7 88.533 101.642 85.853C100.93 84.9266 99.6216 82.8454 99.7963 81.699C99.947 80.7138 100.75 80.4434 101.741 80.5474C100.959 81.1191 100.921 81.1454 100.935 81.3187C100.952 81.4173 102.743 91.2076 120.644 93.5471C120.705 93.5524 120.766 93.5336 120.814 93.4952C120.862 93.4567 120.892 93.401 120.901 93.34C120.908 93.279 120.892 93.2172 120.856 93.1683C120.82 93.1186 120.766 93.0847 120.706 93.0741C104.351 90.9365 101.725 82.5637 101.438 81.3804L102.445 80.6272C112.905 73.3534 122.738 80.2175 122.839 80.2898C122.89 80.3169 122.949 80.3252 123.005 80.3116C123.062 80.2988 123.111 80.2649 123.145 80.2182C123.179 80.1708 123.194 80.1135 123.189 80.0555C123.183 79.9983 123.157 79.9448 123.114 79.9049Z" fill="black"/>
<path id="vector_9" fill-rule="evenodd" clip-rule="evenodd" d="M116.933 74.4702C117.837 75.4306 119.293 75.7981 121.364 75.4908L123.667 77.0229L121.367 82.0054C118.572 81.8374 116.282 81.0609 114.932 79.1515L116.933 74.4702Z" fill="white"/>
<path id="vector_10" d="M121.352 82.2441C118.168 82.1085 116.005 81.0857 114.738 79.2893C114.627 79.1326 114.524 79.4617 116.713 74.376C116.737 74.3177 116.784 74.2716 116.844 74.248C116.902 74.2243 116.968 74.225 117.027 74.2499C117.085 74.2747 117.131 74.3218 117.155 74.3806C117.178 74.4394 117.177 74.5053 117.152 74.5636L115.205 79.1213C116.375 80.6932 118.345 81.5564 121.22 81.7575L123.451 76.9242C123.477 76.8669 123.525 76.8217 123.585 76.7999C123.644 76.778 123.71 76.7803 123.768 76.8074C123.825 76.8338 123.87 76.882 123.891 76.9415C123.914 77.0002 123.911 77.0665 123.885 77.1238L121.584 82.1063C121.564 82.15 121.532 82.1869 121.49 82.2117C121.449 82.2358 121.401 82.2479 121.352 82.2441Z" fill="black"/>
</g>
<g id="hand">
<path id="vector_11" fill-rule="evenodd" clip-rule="evenodd" d="M146.61 141.366C137.429 142.94 128.703 143.174 120.673 141.366C120.673 141.366 117.648 133.571 114.933 131.927C112.218 130.282 106.929 125.838 104.219 121.59C101.509 117.343 102.101 117.372 101.116 114.671C100.131 111.969 95.1047 106.662 93.6593 105.546C92.2139 104.43 91.0569 103.112 91.5578 99.9203C92.0587 96.7289 89.9527 93.5692 91.9683 91.8052C93.9839 90.0411 98.2735 91.8624 99.5464 96.1444C100.819 100.426 99.5276 99.7305 101.949 101.904C104.371 104.078 108.169 106.913 111.323 105.687C114.477 104.461 116.058 102.222 117.744 100.24C119.43 98.2587 120.032 93.8645 121.717 90.6979C123.402 87.5314 122.405 79.4697 123.669 77.0225C123.669 77.0225 121.801 75.8859 121.366 75.4905C121.366 75.4905 117.033 76.362 115.355 72.9642C113.246 68.6875 114.935 67.3151 114.935 67.3151C116.182 66.3645 118.289 67.1238 120.674 67.4657C123.06 67.8077 125.413 68.3161 126.522 69.217C127.683 70.0848 129.011 70.7031 130.422 71.033C131.305 71.1783 135.109 72.2027 134.705 76.075C134.388 79.1112 134.045 79.3726 133.989 83.0694C133.989 83.0694 137.874 82.4615 139.704 85.8329C141.534 89.2043 141.141 93.6317 142.976 95.7467C144.812 97.8618 147.352 100.003 146.803 104.478C146.254 108.953 145.679 110.42 145.297 113.267C144.914 116.113 142.811 119.582 141.757 123.442C140.702 127.302 140.814 129.489 142.653 132.698C144.138 135.508 145.459 138.403 146.61 141.366Z" fill="#FFD997"/>
<path id="vector_12" d="M143.789 118.565C145.8 113.724 145.175 114.624 146.1 110.11C146.39 108.699 146.719 107.097 147.036 104.514C147.535 100.446 145.556 98.2621 143.811 96.3347C142.558 94.9525 142.25 94.6309 141.514 90.9507C141.245 89.1384 140.704 87.3774 139.91 85.7264C138.312 82.7828 135.179 82.7519 134.228 82.8129C134.297 79.3526 134.622 79.135 134.938 76.1093C135.401 71.6721 130.659 70.8368 130.457 70.8067C129.087 70.4815 127.799 69.8805 126.669 69.0404C125.708 68.2608 123.812 67.6846 120.704 67.2387C118.332 66.896 116.109 66.0885 114.781 67.1355C114.705 67.1957 112.966 68.6751 115.137 73.0723C116.719 76.2735 120.571 75.8592 121.292 75.747C121.749 76.1161 122.906 76.8384 123.358 77.1179C122.197 79.843 123.112 87.5604 121.502 90.5891C120.767 92.0843 120.163 93.6389 119.694 95.2372C118.533 98.8075 118.284 99.2074 116.961 100.798C115.483 102.573 113.955 104.408 111.229 105.468C108.932 106.361 105.86 105.104 102.102 101.73C99.7518 99.6209 101.055 100.41 99.7669 96.0808C99.4566 94.9322 98.8698 93.8769 98.0578 93.0062C97.2466 92.1355 96.2351 91.4764 95.1105 91.0863C94.5584 90.8897 93.9649 90.8362 93.3864 90.9318C92.8079 91.0267 92.2634 91.267 91.8031 91.6301C89.667 93.4988 91.8031 96.7519 91.3135 99.8876C90.7773 103.312 92.1022 104.656 93.5069 105.739C94.8823 106.801 99.8995 112.052 100.888 114.757C101.868 117.444 101.274 117.43 104.013 121.723C106.764 126.033 112.079 130.484 114.806 132.135C117.42 133.717 120.416 141.379 120.446 141.457C120.468 141.516 120.514 141.564 120.572 141.589C120.63 141.615 120.696 141.617 120.755 141.594C120.814 141.571 120.861 141.525 120.887 141.467C120.913 141.409 120.914 141.344 120.892 141.284C120.767 140.963 117.803 133.394 115.053 131.726C112.365 130.098 107.126 125.712 104.416 121.466C101.727 117.248 102.327 117.309 101.337 114.593C100.323 111.812 95.2032 106.444 93.7999 105.361C92.5097 104.365 91.2917 103.128 91.7881 99.9614C92.292 96.7482 90.244 93.6344 92.1202 91.9894C93.9121 90.4189 98.0488 91.9653 99.312 96.2172C100.571 100.456 99.2954 99.8522 101.784 102.086C105.687 105.591 108.925 106.877 111.404 105.914C114.244 104.81 115.813 102.927 117.33 101.105C118.541 99.6473 118.836 99.4356 120.15 95.3864C120.61 93.8152 121.203 92.2854 121.922 90.8151C123.63 87.6034 122.653 79.504 123.876 77.1367C123.904 77.0832 123.91 77.0207 123.894 76.9627C123.878 76.9047 123.84 76.855 123.788 76.8233C121.29 75.3041 121.548 75.2175 121.314 75.2604C121.272 75.2695 117.14 76.0536 115.564 72.8622C113.58 68.8445 115.066 67.5196 115.074 67.5143C115.133 67.4682 115.197 67.4267 115.263 67.3901C115.909 68.0854 116.778 68.5324 117.72 68.6532C118.19 68.6642 118.657 68.5819 119.094 68.4111C119.532 68.2403 119.931 67.9844 120.269 67.6582C121.869 67.9166 125.015 68.3173 126.366 69.4147C127.56 70.3077 128.926 70.9433 130.378 71.2812C130.562 71.3113 134.878 72.0683 134.462 76.0626C134.453 76.1507 133.558 82.4777 133.337 88.6903C133.338 90.8708 133.952 93.0062 135.107 94.8553C135.124 94.8825 135.145 94.9051 135.17 94.9239C135.196 94.942 135.225 94.9555 135.255 94.9631C135.286 94.9698 135.317 94.9713 135.348 94.9661C135.38 94.9615 135.409 94.9502 135.436 94.9344C135.463 94.9179 135.486 94.896 135.504 94.8704C135.523 94.8456 135.536 94.8162 135.543 94.786C135.551 94.7552 135.551 94.7235 135.547 94.6926C135.542 94.6618 135.531 94.6324 135.515 94.6053C134.404 92.8382 133.815 90.794 133.815 88.7068C133.884 86.7718 134.134 84.0369 134.203 83.2965C135.248 83.173 136.306 83.3598 137.246 83.8335C138.185 84.3066 138.966 85.0462 139.489 85.9591C141.306 89.3072 140.892 93.7278 142.791 95.9159C144.773 98.1981 147.084 100.201 146.557 104.461C146.094 108.236 145.352 110.992 145.05 113.247C144.674 116.015 142.561 119.574 141.51 123.391C140.395 127.449 140.611 129.655 142.43 132.829C143.911 135.628 145.229 138.509 146.377 141.458C146.402 141.514 146.448 141.559 146.505 141.582C146.562 141.604 146.625 141.605 146.682 141.583C146.74 141.561 146.786 141.518 146.812 141.462C146.838 141.407 146.842 141.343 146.823 141.285C145.665 138.314 144.336 135.411 142.844 132.591C141.101 129.548 140.897 127.429 141.97 123.517C142.471 121.83 143.078 120.175 143.789 118.565ZM115.813 67.1762C116.827 66.9404 118.282 67.2959 119.644 67.5437C119.369 67.7735 119.052 67.9462 118.71 68.0522C118.368 68.1581 118.008 68.1951 117.651 68.1609C117.295 68.1267 116.949 68.0221 116.634 67.853C116.317 67.684 116.039 67.4539 115.813 67.1762Z" fill="black"/>
<path id="vector_13" d="M92.1357 97.4536C92.0739 97.4536 92.0144 97.4295 91.97 97.3866C91.9255 97.3444 91.8999 97.2856 91.8969 97.2239C91.8946 97.1628 91.9165 97.1026 91.9571 97.0566C91.9978 97.0099 92.0551 96.9813 92.1168 96.9768C92.6817 96.8939 93.1917 96.5927 93.5374 96.1385C94.1626 95.3438 94.3494 94.1101 94.0925 92.4726C94.0827 92.41 94.0978 92.346 94.1347 92.2948C94.1724 92.2428 94.2281 92.2089 94.2914 92.1984C94.3539 92.1886 94.4179 92.2044 94.4691 92.2413C94.5203 92.2782 94.555 92.3347 94.5648 92.3972C94.8435 94.1778 94.622 95.5389 93.905 96.4428C93.691 96.7192 93.4252 96.9512 93.1209 97.1244C92.8173 97.2984 92.4829 97.4099 92.1357 97.4536Z" fill="black"/>
</g>
<g id="elements">
<path id="vector_14" d="M114.161 74.7772C113.966 74.5716 94.6915 54.0578 89.5304 40.5157C87.3145 34.6994 87.7619 29.2634 90.67 26.6686C92.5245 25.0115 95.0485 24.8194 97.5921 26.1368C99.8382 27.2998 100.894 29.1022 100.419 30.9574C100.146 31.8836 99.5708 32.6914 98.7844 33.2514C97.9981 33.8114 97.046 34.0911 96.0819 34.0456C95.2579 34.0471 94.4452 33.8528 93.7108 33.4788C92.9771 33.1049 92.3422 32.5618 91.8586 31.8944C91.8247 31.8408 91.8134 31.776 91.8277 31.7143C91.8413 31.6524 91.8789 31.5987 91.9324 31.5648C91.9867 31.531 92.0514 31.5198 92.1132 31.5337C92.175 31.5476 92.2284 31.5855 92.2623 31.639C92.709 32.2345 93.2867 32.7184 93.951 33.053C94.6161 33.3877 95.349 33.564 96.0932 33.568C99.8118 33.6546 102.126 29.0216 97.3737 26.5631C95.0138 25.3421 92.6879 25.5086 90.9886 27.0271C88.2296 29.4894 87.8327 34.7182 89.9771 40.3485C95.1035 53.8009 114.313 74.247 114.507 74.4518C114.543 74.4988 114.561 74.5576 114.556 74.6168C114.552 74.6759 114.525 74.7312 114.481 74.7718C114.439 74.8124 114.381 74.8355 114.322 74.8365C114.263 74.8375 114.205 74.8164 114.161 74.7772Z" fill="black"/>
<path id="vector_15" d="M46.6627 80.9647C46.1962 80.3734 45.7805 79.743 45.4199 79.0816C45.3889 79.0259 45.3814 78.9596 45.3991 78.8986C45.4167 78.8368 45.458 78.7849 45.514 78.754C45.5699 78.7231 45.6359 78.7156 45.6973 78.7329C45.7588 78.751 45.8107 78.7924 45.8417 78.8481C46.1813 79.4846 46.5773 80.0902 47.025 80.6559C47.0452 80.68 47.0606 80.7071 47.0702 80.7372C47.0799 80.7666 47.0836 80.7982 47.0811 80.8291C47.0786 80.86 47.07 80.8909 47.0558 80.9187C47.0415 80.9466 47.022 80.9715 46.9982 80.9918C46.9744 81.0114 46.9468 81.0272 46.9171 81.037C46.8874 81.046 46.8561 81.0498 46.8249 81.0475C46.7937 81.0453 46.7634 81.0362 46.7355 81.0219C46.7077 81.0084 46.6829 80.9888 46.6627 80.9647ZM44.2079 75.1423C44.1523 75.1417 44.0986 75.1219 44.0559 75.0862C44.0131 75.0505 43.9841 75.0012 43.9737 74.9465C43.8634 74.1918 43.8688 73.4248 43.9895 72.6718C43.9939 72.6411 44.0044 72.6117 44.0202 72.585C44.036 72.5584 44.057 72.5351 44.0818 72.5166C44.1067 72.4981 44.1349 72.4846 44.1649 72.477C44.195 72.4694 44.2262 72.4677 44.2569 72.4722C44.2875 72.4766 44.317 72.4871 44.3437 72.5029C44.3702 72.5188 44.3935 72.5397 44.4121 72.5645C44.4306 72.5894 44.4441 72.6176 44.4517 72.6477C44.4593 72.6776 44.4609 72.7089 44.4565 72.7396C44.1876 74.4938 44.7073 75.1423 44.2079 75.1423ZM46.2032 69.1844C46.1559 69.1847 46.1096 69.1708 46.0703 69.1446C46.031 69.1183 46.0005 69.0809 45.9827 69.0371C45.9648 68.9934 45.9605 68.9452 45.9703 68.899C45.98 68.8527 46.0034 68.8105 46.0375 68.7776C46.5726 68.245 47.1668 67.775 47.8083 67.3767C47.835 67.3599 47.8648 67.3485 47.8959 67.3431C47.927 67.3379 47.9588 67.3387 47.9896 67.3457C48.0204 67.3527 48.0495 67.3657 48.0752 67.3839C48.101 67.4021 48.1229 67.4253 48.1397 67.452C48.1565 67.4787 48.1679 67.5085 48.1732 67.5396C48.1785 67.5707 48.1777 67.6025 48.1707 67.6333C48.1637 67.6641 48.1507 67.6932 48.1325 67.7189C48.1143 67.7447 48.0911 67.7666 48.0644 67.7834C46.561 68.7377 46.4668 69.1844 46.2032 69.1844ZM105.776 68.273C105.664 68.273 105.776 68.2617 103.584 67.6779C103.554 67.67 103.525 67.6563 103.5 67.6374C103.476 67.6185 103.455 67.595 103.439 67.5681C103.424 67.5412 103.413 67.5113 103.409 67.4804C103.405 67.4496 103.406 67.4182 103.414 67.388C103.422 67.3578 103.436 67.3295 103.455 67.3047C103.474 67.2798 103.497 67.2589 103.524 67.2432C103.552 67.2274 103.581 67.2171 103.612 67.2129C103.643 67.2087 103.674 67.2106 103.704 67.2185C104.412 67.4068 105.128 67.6026 105.836 67.806C105.892 67.8205 105.941 67.8549 105.973 67.9028C106.006 67.9507 106.019 68.0088 106.012 68.0661C106.005 68.1235 105.977 68.1761 105.933 68.2142C105.89 68.2523 105.834 68.2732 105.776 68.273ZM99.4413 66.6611C99.366 66.6611 99.8932 66.747 97.2336 66.1941C97.1733 66.1794 97.1214 66.1418 97.0882 66.0893C97.0551 66.0368 97.0438 65.9735 97.0566 65.9128C97.0694 65.8521 97.1056 65.7988 97.1568 65.7642C97.208 65.7295 97.2713 65.7162 97.3323 65.7271C98.0328 65.8702 98.7634 66.0209 99.4933 66.1866C99.5497 66.2004 99.6002 66.2343 99.6333 66.2821C99.6672 66.3298 99.6823 66.3883 99.6755 66.4464C99.6695 66.5044 99.6416 66.5581 99.5987 66.5975C99.5558 66.6369 99.5 66.6593 99.4413 66.6603V66.6611ZM51.8983 66.1414C51.8415 66.1387 51.7876 66.1163 51.7457 66.0781C51.7036 66.0399 51.6763 65.9883 51.6683 65.9321C51.6603 65.876 51.6721 65.8188 51.7017 65.7703C51.7313 65.7219 51.7768 65.6853 51.8305 65.6669C52.5084 65.471 53.239 65.2827 53.9839 65.1095C54.0458 65.0965 54.1102 65.1082 54.1636 65.1419C54.217 65.1757 54.2552 65.2289 54.2701 65.2902C54.2777 65.3204 54.2792 65.3517 54.2746 65.3824C54.27 65.4131 54.2594 65.4426 54.2433 65.4692C54.2274 65.4958 54.2062 65.519 54.1812 65.5374C54.1562 65.5558 54.1278 65.5691 54.0977 65.5765C52.9852 65.8318 51.9096 66.1414 51.8968 66.1414H51.8983ZM93.0314 65.4183C92.9561 65.4183 92.7648 65.358 90.817 65.0793C90.759 65.0705 90.7062 65.0415 90.6671 64.9974C90.6286 64.9533 90.6068 64.897 90.6053 64.8383C90.6091 64.8285 90.6113 64.8184 90.6128 64.8082C90.6174 64.777 90.6279 64.747 90.6437 64.7198C90.6595 64.6926 90.6806 64.669 90.7062 64.6501C90.7311 64.6312 90.7597 64.6174 90.7906 64.6096C90.8207 64.6019 90.8531 64.6002 90.884 64.6048C91.6606 64.7178 92.3678 64.8308 93.0683 64.9438C93.1278 64.9533 93.1813 64.9847 93.2182 65.0318C93.2551 65.0789 93.2732 65.1383 93.2687 65.1981C93.2642 65.2579 93.237 65.3137 93.1933 65.3545C93.1489 65.3953 93.0917 65.4181 93.0314 65.4183ZM58.2931 64.7856C58.233 64.7857 58.175 64.7632 58.1308 64.7225C58.0865 64.6819 58.0594 64.626 58.0545 64.5661C58.0496 64.5062 58.0676 64.4466 58.1046 64.3994C58.1418 64.3521 58.1953 64.3206 58.2547 64.3111C58.9702 64.2056 59.7091 64.1002 60.4465 64.0098C60.5096 64.0062 60.5718 64.0257 60.6216 64.0645C60.6714 64.1032 60.7055 64.1587 60.7177 64.2207C60.7239 64.2834 60.7052 64.346 60.6658 64.3951C60.6264 64.4442 60.5693 64.476 60.5068 64.4836C58.5168 64.7306 58.4196 64.7856 58.2931 64.7856ZM86.5605 64.5295C86.4852 64.5295 86.5605 64.5227 84.3393 64.3035C84.276 64.2977 84.218 64.267 84.1781 64.2183C84.1374 64.1697 84.1186 64.107 84.1239 64.044C84.1299 63.9812 84.1608 63.9232 84.2097 63.8828C84.2579 63.8425 84.3205 63.8231 84.3837 63.829C85.1068 63.8968 85.8457 63.9721 86.5831 64.055C86.6434 64.0617 86.6984 64.0911 86.7375 64.1372C86.7767 64.1832 86.797 64.2425 86.7948 64.3029C86.7918 64.3633 86.7654 64.4204 86.7225 64.4625C86.6788 64.5046 86.6208 64.5285 86.5605 64.5295ZM64.7858 64.07C64.7253 64.0691 64.6675 64.0451 64.624 64.003C64.5805 63.9609 64.5548 63.9038 64.5519 63.8434C64.5491 63.783 64.5692 63.7237 64.6085 63.6777C64.6477 63.6316 64.7031 63.6022 64.7632 63.5955C65.4562 63.542 66.9852 63.4524 66.9852 63.4524C67.0481 63.4505 67.1092 63.4737 67.155 63.5169C67.2009 63.56 67.2277 63.6196 67.2296 63.6825C67.2315 63.7455 67.2083 63.8066 67.1651 63.8524C67.122 63.8982 67.0624 63.925 66.9995 63.9269C66.2018 63.9721 64.7858 64.07 64.7858 64.07ZM80.0527 63.9872C80.0527 63.9872 78.5237 63.9043 77.8307 63.8742C77.7675 63.8721 77.708 63.8451 77.665 63.7991C77.6221 63.7532 77.5995 63.692 77.601 63.629C77.6033 63.5661 77.6304 63.5066 77.6763 63.4636C77.7223 63.4205 77.7833 63.3976 77.8466 63.3997C77.8466 63.3997 79.2694 63.4599 80.0603 63.5051C80.1205 63.5108 80.177 63.5391 80.2177 63.5844C80.2584 63.6298 80.2802 63.6888 80.2795 63.7496C80.2787 63.8106 80.2546 63.8688 80.2124 63.9128C80.171 63.9569 80.1137 63.9834 80.0527 63.9872ZM71.3154 63.7913C71.2506 63.792 71.1881 63.767 71.1417 63.7219C71.0951 63.6768 71.0682 63.6151 71.0669 63.5503C71.0701 63.4876 71.0965 63.4283 71.1408 63.3838C71.1852 63.3393 71.2444 63.3128 71.3071 63.3093C71.8645 63.3018 73.5216 63.3018 73.5216 63.3018C73.5845 63.3018 73.6449 63.3268 73.6893 63.3713C73.7339 63.4158 73.7589 63.4761 73.7589 63.539C73.7589 63.602 73.7339 63.6623 73.6893 63.7068C73.6449 63.7513 73.5845 63.7763 73.5216 63.7763C73.3273 63.7763 71.8427 63.7876 71.3162 63.7913H71.3154Z" fill="black"/>
<path id="vector_16" d="M32.6301 71.7385C23.0943 71.7385 24.9653 52.7575 53.4286 50.9693C76.596 49.5156 101.218 63.417 101.463 63.5578C101.515 63.5907 101.552 63.6423 101.567 63.7019C101.582 63.7616 101.573 63.8245 101.543 63.8779C101.512 63.9312 101.463 63.9707 101.404 63.9883C101.345 64.0058 101.282 64 101.227 63.9721C100.983 63.832 76.4906 50.0014 53.458 51.4461C34.6012 52.6287 29.7091 60.8447 28.6583 63.3356C26.5991 68.2195 29.1803 72.4586 34.7534 70.9657C37.48 70.2359 39.7065 68.3965 40.047 66.5925C40.2729 65.4198 39.7223 64.3389 38.423 63.3816C38.3759 63.3426 38.3455 63.287 38.338 63.2262C38.3305 63.1654 38.3467 63.1041 38.383 63.0548C38.4194 63.0056 38.4731 62.9721 38.5334 62.9613C38.5936 62.9504 38.6558 62.9632 38.707 62.9967C40.5253 64.3374 40.6947 65.7407 40.5147 66.6814C39.9852 69.4917 35.8418 71.7385 32.6301 71.7385Z" fill="black"/>
<path id="vector_17" d="M108.584 61.4035C108.261 60.8084 107.945 60.1983 107.636 59.5875C107.622 59.56 107.614 59.5298 107.611 59.499C107.608 59.4681 107.612 59.437 107.622 59.4076C107.632 59.3781 107.647 59.351 107.668 59.3277C107.688 59.3044 107.713 59.2854 107.741 59.2719C107.769 59.258 107.799 59.2497 107.83 59.2475C107.861 59.2454 107.892 59.2493 107.921 59.2591C107.95 59.2689 107.977 59.2844 108.001 59.3046C108.024 59.3249 108.044 59.3496 108.057 59.3773C108.366 59.9799 108.682 60.5825 108.999 61.1775C109.029 61.2324 109.036 61.297 109.018 61.3571C109 61.4171 108.96 61.4676 108.905 61.4976C108.85 61.5276 108.785 61.5345 108.725 61.5168C108.665 61.4992 108.615 61.4584 108.584 61.4035ZM106.4 56.9972C106.106 56.3494 105.835 55.7092 105.594 55.1141C105.572 55.0566 105.574 54.9929 105.599 54.9366C105.623 54.8802 105.668 54.8355 105.725 54.812C105.782 54.7885 105.846 54.7881 105.902 54.8107C105.96 54.8333 106.005 54.8773 106.031 54.9333C106.301 55.6037 106.566 56.2138 106.829 56.8013C106.844 56.8297 106.854 56.861 106.856 56.8931C106.859 56.9252 106.855 56.9575 106.845 56.9881C106.835 57.0187 106.818 57.0469 106.796 57.0708C106.775 57.0948 106.749 57.1141 106.72 57.1275C106.69 57.1409 106.659 57.1482 106.626 57.1489C106.594 57.1495 106.561 57.1436 106.532 57.1313C106.502 57.1191 106.475 57.1009 106.452 57.0778C106.43 57.0548 106.412 57.0273 106.401 56.9972H106.4ZM104.818 52.5758C104.77 52.5764 104.722 52.5613 104.683 52.5328C104.644 52.5044 104.614 52.4639 104.6 52.4176C104.494 52.1058 103.982 50.5346 103.982 50.399C103.982 50.3413 104.002 50.2853 104.04 50.2415C104.077 50.1976 104.129 50.1689 104.186 50.1606C104.243 50.1523 104.302 50.165 104.35 50.1964C104.398 50.2278 104.434 50.2757 104.449 50.3312C104.623 50.9564 104.826 51.6117 105.044 52.267C105.056 52.3024 105.059 52.3403 105.054 52.3774C105.048 52.4144 105.034 52.4495 105.011 52.4797C104.989 52.5099 104.96 52.5343 104.927 52.5509C104.893 52.5675 104.856 52.5758 104.818 52.575V52.5758ZM103.561 47.8456C103.506 47.848 103.451 47.8302 103.408 47.7955C103.365 47.7608 103.337 47.7117 103.328 47.6573C103.191 46.9794 103.086 46.294 103.003 45.6236C102.997 45.5621 103.015 45.5007 103.054 45.4528C103.093 45.4047 103.149 45.3739 103.21 45.367C103.272 45.36 103.334 45.3775 103.382 45.4157C103.431 45.4539 103.463 45.5096 103.47 45.5709C103.554 46.2036 103.658 46.8739 103.786 47.5669C103.794 47.6006 103.793 47.6354 103.785 47.6688C103.777 47.7023 103.762 47.7335 103.74 47.7602C103.719 47.787 103.691 47.8085 103.66 47.8233C103.629 47.838 103.595 47.8457 103.561 47.8456ZM102.815 42.7463C102.813 42.057 102.848 41.368 102.921 40.6825C102.924 40.6515 102.933 40.6214 102.948 40.5941C102.963 40.5667 102.983 40.5425 103.007 40.5229C103.031 40.5033 103.059 40.4887 103.089 40.48C103.119 40.4713 103.15 40.4686 103.181 40.472C103.213 40.4756 103.242 40.4852 103.269 40.5004C103.297 40.5155 103.32 40.5359 103.34 40.5604C103.359 40.5849 103.373 40.613 103.381 40.643C103.39 40.673 103.392 40.7043 103.388 40.7352C103.318 41.4007 103.285 42.0696 103.289 42.7388C103.29 42.8018 103.266 42.8627 103.222 42.9079C103.179 42.9532 103.118 42.9792 103.055 42.9802C102.993 42.9812 102.932 42.9571 102.886 42.9132C102.841 42.8694 102.815 42.8094 102.814 42.7463H102.815ZM103.478 37.8353C103.667 37.1552 103.948 36.504 104.314 35.8996C104.519 35.6329 104.907 35.9659 104.69 36.1933C104.367 36.7564 104.113 37.3555 103.93 37.9784C103.912 38.0385 103.869 38.0885 103.814 38.1176C103.758 38.1466 103.692 38.1522 103.633 38.1332C103.573 38.1143 103.522 38.0722 103.493 38.0163C103.464 37.9604 103.459 37.8954 103.478 37.8353Z" fill="black"/>
<path id="vector_18" d="M96.6915 58.2993C96.565 58.2993 96.5672 58.2654 95.878 57.5687C95.8359 57.5222 95.8133 57.4612 95.8155 57.3986C95.8178 57.336 95.8434 57.2765 95.8886 57.2326C95.933 57.1888 95.9933 57.164 96.0558 57.1635C96.1183 57.1629 96.1793 57.1867 96.2245 57.2298C96.2245 57.2298 96.7292 57.7495 96.8655 57.8918C96.8979 57.9261 96.919 57.969 96.9273 58.0153C96.9356 58.0615 96.9303 58.1092 96.9115 58.1525C96.8934 58.1958 96.8625 58.2327 96.8233 58.2587C96.7842 58.2848 96.7382 58.2989 96.6915 58.2993ZM93.7163 55.2488C93.5657 55.2488 93.6583 55.288 92.1044 53.7122C92.0826 53.6899 92.0653 53.6636 92.054 53.6347C92.0427 53.6057 92.0366 53.5748 92.0374 53.5436C92.0374 53.5124 92.0442 53.4817 92.0562 53.453C92.0683 53.4243 92.0864 53.3984 92.109 53.3767C92.1308 53.3549 92.1572 53.3377 92.1865 53.3262C92.2152 53.3146 92.246 53.3089 92.2769 53.3093C92.3086 53.3096 92.3394 53.3161 92.3681 53.3284C92.3967 53.3407 92.4223 53.3585 92.4441 53.3808L93.8828 54.8421C93.9167 54.8752 93.9393 54.9175 93.9491 54.9637C93.9581 55.0099 93.9536 55.0579 93.9363 55.1015C93.9182 55.1452 93.888 55.1826 93.8489 55.2089C93.8097 55.2353 93.7638 55.2494 93.7163 55.2495V55.2488ZM89.9284 51.3999C89.7973 51.3999 89.8629 51.4563 88.3158 49.8633C88.3135 49.8633 88.312 49.8625 88.3105 49.8611C88.309 49.8597 88.3082 49.8578 88.3082 49.8558C88.2683 49.8094 88.2465 49.7499 88.248 49.6886C88.2495 49.6274 88.2736 49.5688 88.3158 49.5243C88.3617 49.4843 88.4205 49.4622 88.4822 49.4622C88.5432 49.4622 88.602 49.4843 88.6479 49.5243C88.6487 49.5243 88.6502 49.5246 88.6509 49.525C88.6517 49.5253 88.6524 49.5259 88.6532 49.5266C88.6539 49.5273 88.6539 49.5281 88.6547 49.529V49.5319C88.73 49.6072 89.2407 50.1345 90.1009 50.9931C90.1333 51.0272 90.1551 51.07 90.1634 51.1162C90.1724 51.1624 90.1672 51.2102 90.1483 51.2535C90.1302 51.2969 90.0994 51.3339 90.0602 51.36C90.021 51.3862 89.9751 51.4002 89.9284 51.4006V51.3999ZM86.1322 47.5585C86.0697 47.5582 86.0102 47.534 85.9657 47.4907C85.7254 47.2496 84.7681 46.278 84.5278 46.0287H84.5195C84.4774 45.9833 84.454 45.9231 84.4548 45.8609C84.4555 45.7986 84.4811 45.7393 84.5248 45.6953C84.5693 45.6514 84.6288 45.6263 84.6905 45.6254C84.753 45.6245 84.8133 45.6478 84.8585 45.6905C85.211 46.0422 85.9582 46.7947 86.3047 47.1517C86.3386 47.1853 86.3612 47.2282 86.3702 47.2749C86.3792 47.3215 86.374 47.3698 86.3559 47.4135C86.3371 47.4573 86.3062 47.4945 86.2663 47.5205C86.2263 47.5464 86.1796 47.5599 86.1322 47.5592V47.5585ZM82.162 43.6493C81.8991 43.3856 80.9342 42.414 80.7158 42.188C80.6729 42.1437 80.648 42.0842 80.648 42.0223C80.648 41.9604 80.6729 41.9009 80.7158 41.8566C80.7617 41.8131 80.822 41.7887 80.8853 41.7887C80.9485 41.7887 81.0088 41.8131 81.0547 41.8566C81.515 42.3085 81.9963 42.7981 82.5085 43.3178C82.5529 43.3638 82.5762 43.4253 82.5755 43.489C82.574 43.5526 82.5476 43.6131 82.5017 43.6572C82.4557 43.7012 82.394 43.7252 82.3299 43.7238C82.2667 43.7226 82.2064 43.696 82.162 43.65V43.6493ZM78.5322 39.8907C78.3929 39.8907 78.4659 39.9224 77.2661 38.7232C77.01 38.4596 76.9354 38.3843 76.9121 38.3542C76.8676 38.3108 76.842 38.2518 76.8413 38.1898C76.8397 38.1278 76.8631 38.0679 76.9053 38.0227C76.9505 37.9789 77.0115 37.9543 77.0748 37.9543C77.1373 37.9543 77.1983 37.9789 77.2435 38.0227C77.2849 38.0431 78.6648 39.4538 78.6979 39.484C78.7311 39.5173 78.7529 39.5595 78.762 39.6055C78.771 39.6513 78.7665 39.6989 78.7492 39.7423C78.7318 39.7856 78.7017 39.8228 78.6633 39.8493C78.6241 39.8758 78.5789 39.8905 78.5322 39.8915V39.8907Z" fill="black"/>
</g>
<g id="bugs">
<g id="group">
<path id="vector_19" fill-rule="evenodd" clip-rule="evenodd" d="M61.6888 20.9897L52.6826 30.3296C52.6826 30.3296 61.966 37.6004 65.5506 34.0791C69.1351 30.5578 61.6888 20.9897 61.6888 20.9897Z" fill="#FFD997"/>
<path id="vector_20" d="M69.6025 30.2684C69.0226 29.6553 67.66 28.7672 66.5294 29.6327C66.2224 28.4402 65.7847 27.2853 65.2241 26.189C65.9133 24.272 68.072 24.2366 68.2219 24.2366C68.2532 24.2372 68.2844 24.2315 68.3136 24.2201C68.3428 24.2085 68.3694 24.1915 68.392 24.1696C68.4145 24.1478 68.4326 24.1219 68.4451 24.0931C68.4576 24.0643 68.4643 24.0334 68.4648 24.002C68.4653 23.9707 68.4597 23.9395 68.4482 23.9104C68.4367 23.8811 68.4196 23.8545 68.3979 23.8319C68.376 23.8094 68.35 23.7913 68.3212 23.7788C68.2925 23.7663 68.2615 23.7596 68.2302 23.7591C68.1549 23.7591 65.8884 23.7802 64.9431 25.6369C64.449 24.6938 63.9203 23.8163 63.4367 23.0759C63.5864 22.3946 63.9305 21.7713 64.4273 21.2816C64.924 20.7918 65.5523 20.4568 66.2357 20.3169C66.2983 20.3074 66.3546 20.2734 66.3922 20.2225C66.4298 20.1715 66.4455 20.1076 66.436 20.045C66.4265 19.9824 66.3926 19.9261 66.3416 19.8885C66.2906 19.851 66.2268 19.8352 66.1641 19.8446C65.4617 19.9914 64.8093 20.3179 64.2707 20.792C63.7321 21.2663 63.3256 21.872 63.091 22.5502C62.4425 21.5838 61.9469 20.9406 61.8708 20.8427C61.8496 20.8158 61.823 20.7938 61.7926 20.778C61.7622 20.7624 61.7288 20.7533 61.6947 20.7515C61.6605 20.7497 61.6264 20.7553 61.5945 20.7677C61.5626 20.7802 61.5339 20.7993 61.51 20.8238L59.941 22.45C59.2308 22.0199 56.3836 20.4811 54.1925 21.7917C53.0114 20.4103 51.9389 18.7404 52.2025 18.3367C52.2437 18.2608 52.3007 18.1945 52.3697 18.1425C52.4387 18.0906 52.5181 18.054 52.6025 18.0354C52.827 18.0222 53.0484 18.0922 53.2246 18.232C53.2741 18.2719 53.3374 18.2906 53.4006 18.2839C53.4638 18.2772 53.5218 18.2456 53.5617 18.1962C53.6017 18.1468 53.6203 18.0835 53.6136 18.0203C53.6069 17.9571 53.5753 17.8991 53.5259 17.8592C53.243 17.6395 52.8879 17.5338 52.5309 17.5631C52.3799 17.5907 52.2366 17.6507 52.111 17.739C51.9853 17.8273 51.8804 17.9418 51.8033 18.0746C51.2527 18.9189 53.0152 21.1477 53.7948 22.0666C53.4647 22.3219 53.1818 22.6329 52.9587 22.9856C52.4917 22.4892 50.2208 20.1828 49.0902 20.8615C48.2579 21.3571 48.4259 22.2489 49.109 22.914C49.1553 22.9542 49.2152 22.9752 49.2764 22.9725C49.3376 22.9699 49.3955 22.9439 49.4381 22.8999C49.4808 22.8559 49.5049 22.7972 49.5057 22.736C49.5064 22.6747 49.4836 22.6155 49.442 22.5705C49.0269 22.1661 48.7746 21.6057 49.3343 21.2712C49.9368 20.9135 51.6165 22.2564 52.6213 23.3237C52.6567 23.3537 52.7002 23.3723 52.7463 23.3772C51.6715 25.6067 53.2932 28.1835 53.7669 28.8554C52.3908 30.282 52.43 30.1991 52.439 30.3452C52.4413 30.3785 52.4505 30.4111 52.4662 30.4405C52.4819 30.47 52.5037 30.4958 52.5301 30.5162C52.6431 30.6051 53.5018 31.2694 54.7484 32.0746C53.7029 32.3058 51.5434 33.0463 51.1804 35.2615C51.1742 35.3221 51.1915 35.3828 51.2287 35.4311C51.2658 35.4795 51.32 35.5117 51.3802 35.5213C51.4404 35.531 51.502 35.5172 51.5524 35.4829C51.6027 35.4486 51.638 35.3963 51.6511 35.3368C52.0669 32.8075 55.244 32.4625 55.3502 32.452C56.2122 32.9875 57.1025 33.476 58.0173 33.9155C56.9817 34.3328 55.0112 35.4829 55.4993 38.08C55.5121 38.1412 55.5482 38.1951 55.6002 38.2299C55.6522 38.2648 55.7157 38.2778 55.7772 38.2663C55.8387 38.2547 55.8932 38.2195 55.929 38.1682C55.9647 38.1168 55.979 38.0536 55.9686 37.9919C55.4413 35.205 58.1333 34.3395 58.6402 34.2024C59.5101 34.5918 60.4171 34.8923 61.3473 35.0995C60.9241 35.5374 60.6489 36.097 60.5604 36.6994C60.4719 37.3019 60.5746 37.917 60.8539 38.4581C60.8801 38.5136 60.9265 38.5569 60.9837 38.5791C61.0408 38.6014 61.1043 38.6009 61.1611 38.5777C61.2178 38.5545 61.2635 38.5105 61.2888 38.4546C61.3141 38.3987 61.3169 38.3353 61.2968 38.2773C61.0261 37.7704 60.9427 37.1843 61.0613 36.6219C61.1799 36.0597 61.493 35.5571 61.9453 35.2027C65.1729 35.6546 67.3211 33.8078 66.6296 30.1072C66.67 30.1047 66.7091 30.0915 66.7426 30.0688C67.8302 29.1182 69.1981 30.5358 69.2553 30.596C69.2991 30.6404 69.3587 30.6659 69.421 30.667C69.4834 30.6681 69.5437 30.6447 69.5891 30.6019C69.6344 30.5591 69.6612 30.5002 69.6638 30.4379C69.6663 30.3756 69.6443 30.3147 69.6025 30.2684ZM61.6636 21.3563C62.3348 22.2602 64.8513 25.7762 65.8636 29.0218C63.9254 29.5989 61.8461 29.477 59.9885 28.6776L57.2453 25.9389L61.6636 21.3563ZM56.9124 26.2869L59.6473 29.0188C60.257 30.6515 60.2398 32.4522 59.5991 34.0729C57.2658 33.0901 55.0623 31.8237 53.0386 30.3023L56.9124 26.2869ZM60.0435 34.2363C60.6081 32.8094 60.7252 31.2445 60.3794 29.7494L64.9108 34.2763C63.6544 35.0799 61.8648 34.8736 60.0435 34.2326V34.2363ZM65.2941 33.984L60.8283 29.5235C62.5222 29.9842 64.3102 29.9707 65.9969 29.4843C66.4247 31.0766 66.5264 32.867 65.2941 33.9802V33.984Z" fill="black"/>
</g>
<g id="group_2">
<path id="vector_21" fill-rule="evenodd" clip-rule="evenodd" d="M29.1356 51.2882L19.8574 42.2209C19.8574 42.2209 12.5256 51.4561 16.0236 55.0648C19.5215 58.6735 29.1356 51.2882 29.1356 51.2882Z" fill="#FFD997"/>
<path id="vector_22" d="M32.114 41.427C31.2765 40.8764 29.0349 42.6186 28.1137 43.3922C27.8598 43.0608 27.5505 42.7759 27.1993 42.5501C27.6979 42.0853 30.0171 39.8325 29.349 38.6959C28.8602 37.8628 27.9601 38.018 27.2957 38.7019C27.2554 38.748 27.2343 38.8077 27.2367 38.869C27.239 38.9301 27.2648 38.988 27.3085 39.0308C27.3523 39.0737 27.4108 39.0981 27.472 39.0991C27.5332 39.1001 27.5925 39.0777 27.6377 39.0363C27.8682 38.7885 28.1837 38.6368 28.5212 38.6115C28.6116 38.6286 28.6965 38.6671 28.7689 38.7239C28.8412 38.7807 28.8989 38.854 28.937 38.9377C29.2902 39.5402 27.9367 41.2131 26.8626 42.2104C26.8318 42.2449 26.8122 42.288 26.8061 42.3339C24.5841 41.247 21.9991 42.8514 21.3242 43.3199L20.0249 42.0499C20.001 42.0267 19.9723 42.0087 19.941 41.9971C19.9097 41.9856 19.8762 41.9807 19.8429 41.9828C19.8096 41.985 19.777 41.9941 19.7474 42.0095C19.7178 42.0249 19.6917 42.0464 19.6709 42.0725C19.582 42.184 18.9124 43.0382 18.0989 44.2787C17.873 43.2317 17.1476 41.0693 14.9354 40.6919C14.873 40.6812 14.8089 40.6957 14.7572 40.7323C14.7055 40.7689 14.6705 40.8245 14.6598 40.887C14.6491 40.9494 14.6636 41.0135 14.7002 41.0652C14.7368 41.1169 14.7924 41.152 14.8548 41.1627C17.3751 41.592 17.7043 44.7555 17.7171 44.8775C17.176 45.7362 16.6815 46.6232 16.2355 47.5349C15.825 46.4962 14.6876 44.522 12.0928 44.9912C12.0304 45.0025 11.9752 45.0381 11.9391 45.0901C11.903 45.1422 11.8891 45.2065 11.9004 45.2688C11.9117 45.3312 11.9472 45.3865 11.9993 45.4225C12.0513 45.4586 12.1156 45.4726 12.1779 45.4613C14.9723 44.9574 15.8167 47.6584 15.9493 48.1608C15.554 49.0262 15.2471 49.9294 15.0334 50.8565C14.5983 50.4303 14.0404 50.1514 13.4384 50.059C12.8364 49.9668 12.2205 50.0657 11.6778 50.3421C11.619 50.3657 11.572 50.4118 11.5471 50.4702C11.5222 50.5285 11.5216 50.5943 11.5452 50.6532C11.5689 50.712 11.615 50.759 11.6733 50.7839C11.7316 50.8088 11.7975 50.8094 11.8563 50.7857C12.3644 50.5169 12.9513 50.4368 13.5129 50.5595C14.0745 50.6822 14.5745 50.9999 14.9241 51.4561C14.5716 53.8611 15.5832 54.8524 15.6292 54.9668C15.819 55.0459 16.6083 56.7685 19.988 56.163C19.9894 56.2064 20.0032 56.2484 20.0279 56.2842C20.9702 57.3779 19.5459 58.7374 19.4849 58.7947C19.4385 58.8379 19.4113 58.8978 19.4091 58.9611C19.4068 59.0246 19.43 59.0862 19.4732 59.1325C19.5164 59.1788 19.5763 59.2061 19.6397 59.2083C19.703 59.2105 19.7647 59.1874 19.811 59.1442C20.4279 58.568 21.3257 57.2062 20.464 56.0711C21.6595 55.7731 22.8182 55.3437 23.9191 54.7906C25.8578 55.5016 25.8526 57.7123 25.8511 57.8035C25.8534 57.8647 25.8791 57.9228 25.9229 57.9656C25.9667 58.0085 26.0253 58.0329 26.0867 58.0339C26.1479 58.0348 26.2072 58.0123 26.2524 57.9707C26.2976 57.9293 26.3251 57.8722 26.3293 57.811C26.3293 57.7861 26.3437 55.476 24.4719 54.5089C25.4187 54.0208 26.2985 53.4996 27.0426 53.0251C27.7231 53.1788 28.3443 53.5267 28.8309 54.0267C29.3174 54.5266 29.6484 55.157 29.7836 55.8413C29.7947 55.9021 29.829 55.9563 29.8792 55.9923C29.9293 56.0284 29.9916 56.0435 30.0527 56.0347C30.1139 56.0258 30.1692 55.9936 30.2071 55.9447C30.245 55.8959 30.2625 55.8342 30.2559 55.7728C30.114 55.0697 29.7921 54.4155 29.3215 53.8742C28.851 53.3328 28.2479 52.9229 27.5714 52.6846C28.5423 52.0429 29.1893 51.5548 29.2872 51.4757C29.3143 51.4549 29.3367 51.4285 29.3528 51.3983C29.3688 51.3681 29.3782 51.3348 29.3802 51.3006C29.3824 51.2665 29.3771 51.2323 29.3648 51.2004C29.3525 51.1685 29.3335 51.1396 29.3091 51.1156L27.6927 49.5339C28.128 48.8259 29.6864 45.9878 28.3886 43.7884C29.7768 42.6171 31.4482 41.5566 31.8534 41.821C31.9297 41.8625 31.9962 41.9199 32.0481 41.9895C32.1001 42.0591 32.1365 42.139 32.1547 42.2239C32.1635 42.4482 32.0922 42.6681 31.9536 42.8446C31.9338 42.8689 31.919 42.8969 31.9101 42.927C31.9011 42.957 31.8982 42.9885 31.9013 43.0197C31.9046 43.0509 31.9139 43.0812 31.9288 43.1087C31.9437 43.1364 31.9639 43.1607 31.9883 43.1805C32.0126 43.2003 32.0406 43.2151 32.0707 43.2241C32.1007 43.233 32.1322 43.236 32.1634 43.2328C32.1946 43.2296 32.2248 43.2202 32.2524 43.2053C32.2801 43.1904 32.3044 43.1702 32.3242 43.1459C32.44 43.0268 32.5276 42.8832 32.5805 42.7258C32.6335 42.5684 32.6506 42.401 32.6304 42.2361C32.6103 42.0713 32.5534 41.913 32.4641 41.773C32.3747 41.633 32.2551 41.5148 32.114 41.427ZM19.8856 42.5795L23.8776 46.4796L21.1276 49.1965C19.4913 49.7978 17.6897 49.7688 16.0736 49.1151C17.071 46.7883 18.3514 44.5932 19.8856 42.5795ZM15.9026 49.5618C17.3257 50.136 18.8898 50.2637 20.3872 49.9278L15.831 54.4298C15.0319 53.1636 15.2541 51.3755 15.9026 49.5618ZM16.1218 54.8139L20.6109 50.3775C20.1526 52.0454 20.1472 53.8053 20.5951 55.476C20.6063 55.4998 20.6216 55.5215 20.6403 55.54C19.0337 55.9596 17.235 56.0552 16.1195 54.8102L16.1218 54.8139ZM21.044 55.4248C21.0598 55.2335 20.1296 52.186 21.459 49.5399L24.2151 46.817L28.769 51.2678C27.8584 51.9314 24.3047 54.4373 21.044 55.421V55.4248Z" fill="black"/>
</g>
<path id="vector_23" fill-rule="evenodd" clip-rule="evenodd" d="M54.4401 124.959L47.6235 135.996C47.6235 135.996 38.2836 128.801 40.8046 124.457C43.3257 120.112 54.4401 124.959 54.4401 124.959Z" fill="#FFD997"/>
<path id="vector_24" d="M59.4916 132.086C59.441 132.047 59.3773 132.031 59.3145 132.04C59.2517 132.049 59.1949 132.082 59.1568 132.132C59.1186 132.184 59.1022 132.247 59.111 132.31C59.1199 132.373 59.1533 132.429 59.2039 132.467C59.8675 132.977 60.101 134.665 55.5169 132.412C56.2438 129.971 54.0527 127.591 53.4554 127.004L54.6432 125.081C54.6613 125.052 54.6729 125.02 54.6772 124.986C54.6815 124.952 54.6784 124.917 54.6683 124.885C54.658 124.852 54.6409 124.822 54.618 124.797C54.5951 124.771 54.5669 124.751 54.5355 124.737C54.4225 124.688 53.6753 124.366 52.5771 123.977C53.1761 123.583 53.6623 123.039 53.9886 122.399C54.3148 121.761 54.4697 121.048 54.4383 120.331C54.4352 120.3 54.4259 120.269 54.411 120.242C54.3961 120.214 54.3759 120.19 54.3517 120.17C54.3274 120.15 54.2994 120.135 54.2694 120.126C54.2393 120.117 54.2078 120.114 54.1766 120.117C54.1454 120.121 54.1151 120.13 54.0875 120.145C54.0598 120.159 54.0354 120.18 54.0156 120.204C53.9958 120.228 53.9809 120.256 53.9719 120.286C53.9629 120.317 53.9599 120.348 53.963 120.379C53.9895 121.074 53.8173 121.762 53.4665 122.362C53.1157 122.963 52.6011 123.451 51.9828 123.769C51.1468 123.488 50.1653 123.192 49.1304 122.947C50.7121 121.556 50.1405 119.321 50.1344 119.297C50.1182 119.236 50.0782 119.183 50.0234 119.151C49.9686 119.12 49.9034 119.111 49.8422 119.127C49.7809 119.144 49.7287 119.184 49.6969 119.238C49.6651 119.293 49.6564 119.359 49.6727 119.42C49.678 119.442 50.2414 121.65 48.5256 122.809C47.3244 122.538 46.097 122.4 44.8657 122.398C45.4231 121.09 44.2255 119.987 43.4881 119.577C43.4326 119.546 43.3672 119.539 43.3063 119.556C43.2453 119.574 43.1938 119.615 43.163 119.67C43.1322 119.725 43.1248 119.791 43.1423 119.852C43.1597 119.913 43.2006 119.964 43.2561 119.995C43.3314 120.036 45.0397 121.011 44.3859 122.301C44.3726 122.338 44.3694 122.379 44.3768 122.418C41.0371 122.637 40.5264 124.571 40.4353 124.639V124.654C39.6512 126.409 40.6349 128.091 40.5859 128.237C40.5799 128.255 40.012 129.959 37.7832 129.608C37.7211 129.601 37.6588 129.619 37.6094 129.656C37.56 129.695 37.5276 129.751 37.5192 129.813C37.5107 129.875 37.5268 129.937 37.5641 129.988C37.6013 130.038 37.6567 130.072 37.7184 130.081C38.312 130.212 38.9317 130.157 39.4922 129.922C40.0528 129.687 40.5267 129.284 40.8488 128.768C41.2801 129.617 41.7961 130.42 42.3891 131.166C42.3838 131.681 42.2204 134.513 39.3762 134.697C39.3449 134.699 39.3143 134.708 39.2862 134.721C39.2581 134.735 39.2329 134.754 39.2122 134.778C39.1915 134.801 39.1757 134.829 39.1655 134.858C39.1554 134.888 39.1513 134.919 39.1533 134.951C39.1553 134.982 39.1635 135.013 39.1773 135.041C39.1912 135.069 39.2105 135.094 39.234 135.115C39.2576 135.135 39.285 135.151 39.3147 135.162C39.3444 135.172 39.3758 135.176 39.4071 135.174C42.0434 135.023 42.6708 132.808 42.8184 131.702C43.4709 132.48 44.1646 133.221 44.8966 133.925C44.9131 134.03 45.3651 137.194 43.0173 138.218C42.9592 138.244 42.9137 138.291 42.8906 138.35C42.8675 138.409 42.8688 138.474 42.8941 138.532C42.9195 138.591 42.9669 138.636 43.0259 138.66C43.0849 138.682 43.1505 138.682 43.2086 138.656C45.2656 137.752 45.4487 135.479 45.4133 134.41C46.5024 135.419 47.3588 136.086 47.4718 136.173C47.4983 136.194 47.5288 136.208 47.5611 136.216C47.5935 136.224 47.6273 136.225 47.6601 136.219C47.8108 136.191 47.7595 136.209 48.7749 134.562C50.563 135.245 52.8618 135.446 54.3389 134.204C54.3543 134.243 54.3804 134.277 54.4142 134.302C55.6947 135.012 57.4135 136.311 57.2169 136.979C57.0331 137.592 56.4434 137.507 55.9312 137.196C55.8771 137.163 55.8122 137.152 55.7505 137.168C55.6888 137.182 55.6356 137.221 55.6024 137.275C55.5693 137.329 55.5589 137.394 55.5736 137.455C55.5884 137.517 55.6271 137.571 55.6811 137.604C56.4705 138.093 57.3969 138.052 57.6741 137.114C58.0507 135.848 55.2443 134.216 54.6545 133.89C54.9436 133.589 55.1765 133.238 55.3422 132.855C56.4674 133.465 57.6939 133.865 58.9621 134.038C60.0927 134.049 60.4083 132.764 59.4916 132.086ZM45.1753 122.886C45.0941 124.639 45.5146 126.378 46.3872 127.899L40.964 124.677C41.7429 123.201 43.4948 122.862 45.1753 122.886ZM40.772 125.121L46.2802 128.391C44.7458 128.426 43.2582 128.927 42.0155 129.827C40.9467 128.22 40.2974 126.54 40.772 125.121ZM47.5622 135.639C45.5867 134.055 43.814 132.234 42.2844 130.216C43.6963 129.194 45.4369 128.732 47.1698 128.918L50.4937 130.892L47.5622 135.639ZM50.7445 130.486L47.4116 128.507C45.4991 126.28 45.6445 123.058 45.591 122.898C48.9926 123.066 53.0479 124.641 54.0903 125.069L50.7445 130.486Z" fill="black"/>
<path id="vector_25" d="M31.589 128.556C31.421 128.575 14.9648 130.33 13.0305 118.268C12.1078 112.515 13.7837 107.953 16.2098 104.903C21.2051 107.756 26.1997 105.009 26.2472 102.377C26.2811 100.455 23.1341 98.6598 18.6397 101.907C17.7001 102.592 16.8482 103.389 16.1029 104.282C14.317 103.168 13.2218 101.908 13.0749 99.7851C12.6584 93.7812 20.6824 85.3512 20.763 85.2669C20.8069 85.2209 20.831 85.1599 20.8297 85.0966C20.8285 85.0333 20.8023 84.9731 20.7566 84.9294C20.711 84.885 20.6497 84.8609 20.5864 84.8624C20.523 84.8631 20.4627 84.8895 20.4188 84.9354C20.0813 85.2864 12.1681 93.6027 12.5981 99.8175C12.7541 102.077 13.905 103.462 15.7993 104.655C13.3235 107.796 11.6182 112.468 12.5605 118.344C14.1121 128.014 24.56 129.133 29.3067 129.132C30.7032 129.132 31.6071 129.035 31.6417 129.031C31.7037 129.023 31.76 128.991 31.7986 128.941C31.8372 128.892 31.8549 128.83 31.8479 128.768C31.8411 128.706 31.8101 128.649 31.7616 128.609C31.7133 128.57 31.6512 128.55 31.589 128.556ZM18.9176 102.294C21.0726 100.737 23.3616 100.195 24.752 100.916C28.1415 102.671 22.5361 107.898 16.5179 104.531C17.2254 103.692 18.031 102.941 18.9176 102.294Z" fill="black"/>
</g>
</g>
</g>
</svg>
