<svg width="151" height="151" viewBox="0 0 151 151" fill="none" xmlns="http://www.w3.org/2000/svg">
<g id="Coming-Soon--Streamline-London">
<g id="Coming-Soon--Streamline-London.svg">
<path id="Vector" d="M63.2699 58.7507C58.9917 52.9811 52.1525 48.4467 44.2362 47.9044C41.7751 47.6881 39.2959 47.8148 36.8697 48.281C24.5772 50.6537 16.5329 61.3644 15.7797 70.4783C17.6778 72.4442 17.9791 75.7508 16.9622 78.4775C16.7745 79.0234 16.4942 79.533 16.1337 79.9839C16.1414 80.1052 16.1565 80.226 16.1789 80.3455C16.5781 82.8461 18.8528 87.1244 18.9206 87.2976C20.5412 88.394 22.0431 89.6562 23.4022 91.0637C25.5941 93.3234 26.1289 94.9428 26.2418 95.3345C26.2383 95.3493 26.2383 95.3648 26.2418 95.3796C26.4979 95.5755 26.7616 95.7789 27.0478 95.9747C29.4486 97.4432 32.1439 98.3639 34.9415 98.6712C37.2765 98.513 41.9012 98.2494 44.2362 98.3699C45.9074 98.4132 47.5556 98.7709 49.0944 99.4244C50.0466 99.1953 50.9827 98.9034 51.8964 98.5507C68.0679 92.2764 72.8735 71.7061 63.2699 58.7507ZM41.8786 96.4643C37.4604 96.4628 33.1419 95.1513 29.469 92.6956C25.7961 90.2399 22.9339 86.7503 21.2441 82.668C19.5544 78.5857 19.1131 74.094 19.9759 69.7609C20.8388 65.4278 22.9671 61.4478 26.0918 58.3242C29.2164 55.2006 33.1971 53.0736 37.5305 52.2122C41.8639 51.3508 46.3554 51.7937 50.4372 53.4848C54.5189 55.1759 58.0076 58.0393 60.462 61.713C62.9165 65.3867 64.2265 69.7057 64.2265 74.1239C64.2265 80.0476 61.8739 85.7288 57.6858 89.9183C53.4978 94.1077 47.8174 96.4623 41.8937 96.4643H41.8786Z" fill="#81F8F8"/>
<path id="Vector_2" d="M103.944 108.614C103.944 108.614 102.686 104.095 103.778 87.6822C104.802 72.0831 106.203 63.8655 106.203 63.8655C106.203 63.8655 102.317 63.4437 97.6166 57.9452C92.9165 52.4468 89.5572 48.1534 83.7348 45.0878C77.9125 42.0223 73.5061 39.3559 70.1769 36.2376C66.5088 32.833 61.3417 28.2836 56.6718 28.0576C52.0018 27.8317 51.9717 29.4887 46.9628 31.1533C41.9539 32.818 30.957 33.7745 30.4448 35.2282C29.9326 36.682 28.8931 39.3785 34.3841 42.2558C36.1466 43.1747 38.5268 43.4609 40.8768 43.7095C45.8631 44.2292 51.0151 44.2066 52.1223 42.0976C53.0103 45.7458 54.5406 49.2069 56.6416 52.3187C56.6416 52.3187 63.526 57.1393 65.9589 63.2705C68.3918 69.4017 70.1242 78.38 64.2265 88.0513C62.5761 90.849 60.39 93.2937 57.7934 95.2454C55.1968 97.197 52.2407 98.6173 49.0944 99.4249C49.0944 99.4249 48.6425 98.3176 41.2082 98.3854C33.774 98.4532 32.3052 99.4927 26.3096 95.3274C26.3096 95.3274 25.9631 93.4443 23.229 90.7478C21.9666 89.3966 20.5305 88.2188 18.9582 87.2454C18.9582 87.2454 16.1638 81.0087 16.1638 79.9241C17.117 78.6141 17.6072 77.0241 17.5572 75.4048C17.5011 73.5203 16.9079 71.6911 15.8474 70.1323C15.8474 70.1323 17.271 64.1066 18.3557 62.1482C19.4403 60.1898 22.3929 56.2354 22.3929 56.2354C22.3929 56.2354 16.6835 56.6874 15.0942 57.7419C13.5049 58.7964 5.30241 64.5208 4.5492 67.5337C4.25798 68.2729 4.00654 69.0272 3.79598 69.7933C3.60106 70.919 3.66164 72.074 3.97324 73.1731C4.28483 74.2721 4.83948 75.2871 5.59617 76.1429C7.89348 78.621 9.30199 79.2613 9.30199 79.2613C8.46934 82.5038 7.92242 85.813 7.66751 89.151C7.5244 93.241 9.08356 96.638 11.5993 98.1218C13.8022 99.3073 16.082 100.344 18.4234 101.225C18.4234 101.225 18.7549 105.112 20.2387 106.226C21.7225 107.341 28.8404 111.476 28.8404 111.476C28.349 112.051 28.02 112.746 27.8876 113.49C27.7551 114.235 27.8241 115.001 28.0872 115.709C28.9986 118.24 31.0097 119.543 33.5857 120.613C36.1617 121.682 37.751 122.119 39.4834 121.81C42.5849 120.956 45.5296 119.611 48.2056 117.826C51.0377 115.89 51.0904 113.804 51.0904 113.804C51.0904 113.804 66.3431 112.922 74.1991 112.508C82.0551 112.094 88.6684 111.205 89.512 110.625C90.3556 110.045 101.119 107.59 103.944 108.614Z" fill="#FFD997"/>
<path id="Vector_3" d="M108.825 106.52C108.341 106.52 107.867 106.663 107.465 106.932C107.062 107.201 106.748 107.584 106.563 108.031C106.378 108.478 106.329 108.97 106.424 109.445C106.518 109.92 106.751 110.356 107.094 110.699C107.436 111.041 107.872 111.274 108.347 111.369C108.822 111.463 109.314 111.415 109.762 111.229C110.209 111.044 110.591 110.73 110.86 110.328C111.129 109.925 111.273 109.452 111.273 108.968C111.273 108.318 111.015 107.696 110.556 107.237C110.097 106.778 109.474 106.52 108.825 106.52Z" fill="black"/>
<path id="Vector_4" d="M146.162 66.9914C146.049 62.0201 143.442 61.7716 143.314 61.764C143.186 61.7565 136.633 61.5456 130.095 61.395C116.643 61.0786 116.605 61.2895 116.538 61.6134C116.538 61.6661 116.538 61.9448 116.485 62.4344H107.71C106.994 62.4344 106.542 62.5248 106.203 63.5944C96.0952 60.3254 95.5378 50.157 81.7088 43.7697C67.8798 37.3824 62.3361 23.2521 50.8269 29.2477C45.7578 31.8614 40.8167 32.5543 36.8472 33.1418C32.6217 33.7369 28.6673 34.0758 29.9101 38.0679C31.0249 41.6456 34.8813 43.1295 38.7755 43.7622C38.7388 44.2636 38.7388 44.7671 38.7755 45.2686C38.7758 45.312 38.7879 45.3546 38.8105 45.3917C38.833 45.4288 38.8652 45.4591 38.9035 45.4795L39.4835 45.8185V47.6563C32.7497 48.2664 27.5977 51.091 22.9127 55.678C22.747 55.8438 22.5738 56.0471 22.4834 56.0471C22.393 56.0471 18.5818 56.4991 16.4577 56.9359C14.198 57.3954 7.41909 63.278 5.82227 65.0556C4.22874 66.9576 3.43733 69.4048 3.61535 71.8797C3.9317 75.3445 6.22147 77.6268 9.15148 79.4797C9.0385 79.8036 6.5077 87.5466 7.85595 93.2937C8.89539 97.7753 13.9269 100.148 18.3558 101.474C18.3558 102.227 18.6269 105.586 20.8941 107.07C23.3767 108.749 25.9572 110.278 28.6221 111.65C28.1401 112.079 27.1985 113.307 27.8689 115.958C28.7878 119.483 34.8512 121.697 37.7436 122.051C40.9749 122.443 50.9324 118.15 51.3015 114.082C65.9515 113.02 82.9365 112.794 90.1975 110.685C97.7749 108.486 102.776 108.765 103.755 108.848C104.185 112.207 104.802 112.9 105.36 112.983C106.422 113.148 114.27 113.073 115.355 113.066C115.453 120.281 115.747 122.308 116.161 122.601C116.394 122.775 117.743 122.85 120.273 122.85C123.881 122.85 142.313 122.323 143.924 122.277C144.881 122.277 146.734 121.524 146.937 118.843C147.63 106.113 146.252 70.9457 146.162 66.9914ZM39.2575 45.1481V43.8074C40.8859 44.0275 42.5256 44.1532 44.1685 44.184V45.1029L43.468 45.5096H39.9204L39.2575 45.1481ZM44.53 45.5021C44.5671 45.479 44.5976 45.4468 44.6187 45.4086C44.6398 45.3703 44.6508 45.3273 44.6506 45.2837V44.199C45.0724 44.199 46.624 44.199 46.9554 44.2442C48.778 44.3262 50.5661 43.7275 51.9718 42.5646C52.7541 45.8195 54.0864 48.9171 55.9111 51.7237C52.2576 49.5325 48.1809 48.1411 43.9501 47.6412V45.8109L44.53 45.5021ZM43.4379 46.0444V47.6337C42.2769 47.5508 41.1115 47.5508 39.9505 47.6337V46.0068L43.4379 46.0444ZM23.2517 56.0622C25.7593 53.5358 28.711 51.4932 31.9589 50.0365C35.1029 48.7279 38.4733 48.0497 41.8787 48.0404C46.018 48.1479 50.078 49.199 53.7494 51.1136C58.4787 53.4159 62.3441 57.1756 64.7765 61.8394C66.8027 65.6233 67.9047 69.833 67.9927 74.1243C67.9742 79.7958 66.1162 85.3082 62.6977 89.8336C59.2791 94.3591 54.4846 97.6532 49.0343 99.2215L48.959 99.2591C46.1269 97.8431 42.9332 98.0389 40.0861 98.2348C37.0732 98.4457 33.9775 98.6641 30.008 97.3535C28.7472 96.8206 27.576 96.0965 26.5357 95.2068C25.2402 91.4408 19.9375 87.637 19.335 87.2152C18.0557 85.0212 17.1065 82.6508 16.5179 80.1802C16.5066 80.1321 16.4812 80.0886 16.4449 80.055C16.4087 80.0215 16.3633 79.9995 16.3146 79.9919C17.2129 78.7798 17.7011 77.3127 17.708 75.804C17.7848 73.8737 17.209 71.9738 16.0735 70.411C16.7113 64.9207 19.2572 59.8289 23.2668 56.0245L23.2517 56.0622ZM4.07481 71.8797C3.89588 69.5225 4.64757 67.189 6.16875 65.3795C7.99153 63.4061 14.4993 57.8473 16.533 57.418C18.1825 57.079 20.8715 56.7401 22.0014 56.6045C18.5494 60.2319 16.3278 64.8544 15.6517 69.8159C14.6319 68.4677 13.4187 67.2773 12.0514 66.2833C11.9974 66.2454 11.9306 66.2304 11.8656 66.2417C11.8007 66.253 11.7428 66.2897 11.7049 66.3436C11.6669 66.3975 11.652 66.4643 11.6633 66.5293C11.6746 66.5943 11.7112 66.6521 11.7651 66.6901C11.8254 66.7353 17.6026 70.765 17.241 75.7739C16.9548 79.8262 15.0793 81.6941 11.2906 80.0521C10.6382 78.6194 10.3807 77.0383 10.5449 75.4726C10.6938 74.3372 10.9459 73.2178 11.2982 72.1283C11.3217 72.0701 11.3224 72.0051 11.3001 71.9464C11.2777 71.8877 11.234 71.8397 11.1776 71.8119C10.9215 71.6839 8.60917 70.539 7.5622 71.1491C6.51523 71.7592 5.71682 74.5687 6.71106 77.0016C5.22886 75.6592 4.29528 73.8162 4.08987 71.827L4.07481 71.8797ZM7.84089 78.041C7.37744 77.4208 7.05002 76.7098 6.88 75.9544C6.70998 75.1991 6.70118 74.4163 6.85418 73.6573C6.90606 72.8621 7.24932 72.1139 7.81829 71.5558C8.44346 71.1943 10.0026 71.7893 10.7558 72.1434C10.4464 73.2026 10.2123 74.2824 10.0553 75.3747C9.87138 76.8397 10.0525 78.3275 10.5826 79.7057C9.6319 79.2066 8.72263 78.6323 7.86348 77.9883L7.84089 78.041ZM8.28529 93.1882C7.05754 87.9157 9.25694 80.6472 9.54316 79.7358C11.607 80.956 14.2282 81.905 15.9982 80.2781C16.5981 82.8115 17.5729 85.241 18.8906 87.4864C18.9074 87.5205 18.9335 87.5492 18.9659 87.5692C19.0412 87.622 26.3851 92.7288 26.2721 96.8413C26.1817 100.479 23.7337 102.167 20.8414 101.624C18.514 99.2742 20.9243 93.6326 20.9468 93.5799C20.9623 93.5461 20.97 93.5093 20.9694 93.4721C20.9688 93.435 20.9598 93.3984 20.9432 93.3652C20.9266 93.3319 20.9027 93.3028 20.8734 93.28C20.844 93.2572 20.8099 93.2413 20.7736 93.2334C20.5025 93.1732 14.0474 91.727 13.1059 95.2746C12.9074 95.9772 12.8946 96.7193 13.0689 97.4283C13.2432 98.1373 13.5985 98.7889 14.1001 99.3194C11.494 98.0465 8.98578 96.0956 8.28529 93.1882ZM15.8174 100.103C15.3354 99.8391 12.8046 98.3026 13.5578 95.4253C14.311 92.7288 19.1015 93.4518 20.3367 93.6853C19.8848 94.8227 18.416 99.0181 20.0129 101.459C18.5894 101.088 17.1886 100.635 15.8174 100.103ZM21.09 106.626C19.2295 105.405 18.8906 102.566 18.8303 101.632L20.2765 102.031C23.6358 102.935 26.6864 101.052 26.7993 96.879C26.8041 96.5784 26.7789 96.2782 26.724 95.9827C27.6559 96.7637 28.7092 97.3871 29.8423 97.828C37.0657 100.216 41.6528 97.6397 46.9027 99.0332C49.5013 99.7261 51.1132 101.105 51.5802 103.025C51.7858 104.092 51.7227 105.193 51.3965 106.229C51.0704 107.265 50.4916 108.204 49.7122 108.961C47.4525 111.032 39.1671 113.066 34.693 113.066C30.8818 113.058 23.5454 108.245 21.09 106.626ZM48.959 115.318C47.219 116.071 42.9332 117.577 41.8486 116.199C41.4472 115.73 41.1931 115.154 41.1181 114.542C41.043 113.929 41.1504 113.308 41.4268 112.757V112.681C43.3853 112.266 45.3053 111.687 47.1663 110.949C47.2943 111.062 48.7556 111.303 48.959 115.318ZM50.6838 114.564C50.1264 117.668 40.7715 121.946 37.7812 121.584C34.791 121.223 29.1494 119.008 28.3359 115.86C27.5827 112.847 29.0289 111.958 29.0891 111.921C31.1303 112.885 33.1339 113.593 34.6253 113.593C36.713 113.536 38.7909 113.284 40.8318 112.84C40.5875 113.457 40.5173 114.13 40.6288 114.785C40.7404 115.44 41.0294 116.051 41.4645 116.553C42.8353 118.225 47.3772 116.628 49.3205 115.732C49.3654 115.712 49.4035 115.679 49.4302 115.637C49.457 115.596 49.4712 115.548 49.4711 115.498C49.4711 115.333 49.313 111.687 47.7463 110.723C48.9062 110.196 48.7255 110.173 48.8083 110.218C49.545 110.64 50.1274 111.287 50.4702 112.063C50.8131 112.84 50.8985 113.706 50.714 114.534L50.6838 114.564ZM90.0092 110.234C82.8688 112.312 66.2754 112.546 51.2638 113.57C51.2486 112.844 51.0586 112.132 50.7098 111.495C50.3611 110.858 49.8638 110.314 49.2602 109.91C50.3453 109.137 51.1851 108.069 51.6793 106.832C52.1735 105.595 52.3012 104.242 52.0471 102.935C51.87 102.242 51.5554 101.591 51.122 101.022C50.6885 100.452 50.145 99.9759 49.5239 99.6207C55.1713 97.9086 60.0925 94.3739 63.5184 89.5689C66.9443 84.7639 68.6819 78.9593 68.4597 73.0623C70.2223 77.5816 75.7132 89.4523 85.2866 89.5125C85.3525 89.5125 85.4157 89.4863 85.4623 89.4397C85.5089 89.3931 85.5351 89.3299 85.5351 89.264C85.5351 89.198 85.5089 89.1348 85.4623 89.0882C85.4157 89.0416 85.3525 89.0154 85.2866 89.0154C73.8151 88.8798 68.3618 71.3299 68.3091 71.1491C67.8228 67.8176 66.7734 64.593 65.2058 61.6134C63.2711 57.8789 60.4203 54.6964 56.9205 52.3639C56.9264 52.3294 56.9248 52.294 56.9157 52.2602C56.9066 52.2263 56.8902 52.1949 56.8677 52.1681C53.9151 48.402 52.597 43.0843 52.3936 42.1804C52.6131 41.9684 52.8123 41.7365 52.9887 41.4875C53.0256 41.4325 53.0392 41.3652 53.0265 41.3002C53.0138 41.2352 52.9758 41.1779 52.9209 41.141C52.8937 41.1227 52.8631 41.1099 52.831 41.1034C52.7989 41.0969 52.7658 41.0968 52.7336 41.1031C52.6686 41.1158 52.6114 41.1538 52.5744 41.2088C51.9144 42.0483 51.062 42.7166 50.0892 43.1571C49.1164 43.5976 48.0519 43.7974 46.9855 43.7396C41.4193 43.5814 32.1924 43.6643 30.4148 37.8871C30.2556 37.5298 30.1784 37.1414 30.1888 36.7504C30.1992 36.3594 30.297 35.9757 30.475 35.6274C32.1773 32.9385 41.7733 34.5202 51.0228 29.6846C62.1402 23.8999 67.5935 37.8042 81.4828 44.2141C95.1612 50.5336 95.7487 60.7472 106.053 64.0689C105.736 65.3569 105.646 66.7353 105.156 71.0361C104.403 77.8151 103.085 89.2263 103.183 97.8808C103.236 102.762 103.424 106.083 103.68 108.335C102.437 108.245 97.436 108.057 90.0394 110.203L90.0092 110.234ZM115.287 112.591C114.579 112.591 106.414 112.681 105.375 112.523C104.78 112.433 103.771 110.414 103.627 97.9109C103.507 87.3659 105.473 72.7384 105.992 67.6165C106.467 62.9541 106.836 62.9541 107.657 62.9616H116.44C115.717 76.8284 115.129 96.412 115.317 112.561L115.287 112.591Z" fill="black"/>
<path id="Vector_5" d="M28.9237 92.4948C38.0753 98.4452 49.3208 97.7673 56.9283 90.9883C63.9634 84.7291 65.6958 76.0897 63.3608 67.3449C61.0108 58.3665 51.2189 51.098 40.1843 51.58C39.109 51.6159 38.0396 51.7546 36.9907 51.9943C24.8564 54.9846 16.4656 67.6085 20.2166 80.5111C21.5301 85.4483 24.6339 89.7201 28.9237 92.4948ZM37.1112 52.4764C38.4712 52.1771 39.8616 52.0381 41.2539 52.0621C51.7613 52.0621 60.717 59.1725 62.8787 67.4503C65.1836 76.0822 63.4587 84.4805 56.5894 90.5891C49.1024 97.2626 38.0979 97.8576 29.1949 92.0955C25.0059 89.3879 21.9745 85.2181 20.6911 80.3981C17.0832 67.9474 24.992 55.4742 37.1112 52.4764Z" fill="black"/>
<path id="Vector_6" d="M59.3158 83.3735C61.0783 80.6769 61.3269 77.3477 61.3193 74.124C61.2965 68.9446 59.2313 63.9833 55.5723 60.3175C55.5587 60.2814 55.5376 60.2486 55.5103 60.2213C55.483 60.1941 55.4502 60.1729 55.4141 60.1593C54.0992 58.8731 52.5986 57.7915 50.9626 56.9506C48.1393 55.4454 45.015 54.5909 41.8186 54.45C38.6563 54.5621 35.549 55.3101 32.6821 56.6493C28.916 58.2311 26.6563 61.1686 24.8561 63.8501C22.2952 67.7141 21.4064 73.0695 22.476 78.1612C25.8353 94.2122 47.8895 100.931 59.3158 83.3735ZM25.2779 64.1288C26.0704 62.8961 26.9648 61.732 27.9519 60.6489L29.6918 62.3889C29.7387 62.4358 29.8024 62.4622 29.8688 62.4622C29.9352 62.4622 29.9989 62.4358 30.0458 62.3889C30.0927 62.3419 30.1191 62.2782 30.1191 62.2118C30.1191 62.1455 30.0927 62.0818 30.0458 62.0348L28.2983 60.2572C29.5986 58.9041 31.1555 57.8236 32.8779 57.0787C35.5707 55.8499 38.471 55.1395 41.4269 54.9847V57.3423C41.4269 57.4082 41.4531 57.4714 41.4997 57.5181C41.5463 57.5647 41.6095 57.5909 41.6755 57.5909C41.7414 57.5909 41.8046 57.5647 41.8512 57.5181C41.8978 57.4714 41.924 57.4082 41.924 57.3423V54.9847C46.7757 55.2252 51.3929 57.145 54.9848 60.4154L53.3578 62.0348C53.3246 62.071 53.3025 62.1159 53.2941 62.1642C53.2856 62.2126 53.2913 62.2623 53.3103 62.3076C53.3294 62.3528 53.361 62.3916 53.4015 62.4194C53.442 62.4471 53.4896 62.4627 53.5386 62.4642C53.6817 62.4642 53.5386 62.532 55.3388 60.7694C58.7608 64.2607 60.7197 68.9274 60.8147 73.8151H58.4119C58.3525 73.8254 58.2986 73.8564 58.2597 73.9026C58.2209 73.9487 58.1996 74.0071 58.1996 74.0675C58.1996 74.1278 58.2209 74.1862 58.2597 74.2324C58.2986 74.2785 58.3525 74.3095 58.4119 74.3198H60.8222C60.8222 77.4004 60.5586 80.5866 58.9015 83.1324C57.8971 84.6898 56.7307 86.1365 55.4217 87.4483L53.6893 85.716C53.6423 85.669 53.5786 85.6426 53.5123 85.6426C53.4459 85.6426 53.3822 85.669 53.3353 85.716C53.2883 85.7629 53.2619 85.8266 53.2619 85.893C53.2619 85.9594 53.2883 86.023 53.3353 86.07L55.0676 87.7948C51.5617 91.2464 46.8584 93.2108 41.9391 93.2782V90.7926C41.9391 90.7267 41.9129 90.6635 41.8663 90.6169C41.8197 90.5703 41.7565 90.5441 41.6905 90.5441C41.6246 90.5441 41.5614 90.5703 41.5148 90.6169C41.4682 90.6635 41.442 90.7267 41.442 90.7926V93.2782C36.527 93.1828 31.8306 91.2289 28.2983 87.8099L30.0458 86.07C30.0927 86.023 30.1191 85.9594 30.1191 85.893C30.1191 85.8266 30.0927 85.7629 30.0458 85.716C29.9989 85.669 29.9352 85.6426 29.8688 85.6426C29.8024 85.6426 29.7387 85.669 29.6918 85.716L27.9443 87.4559C24.5252 83.9318 22.5893 79.2297 22.5362 74.3198H24.9691C25.0286 74.3095 25.0825 74.2785 25.1213 74.2324C25.1602 74.1862 25.1815 74.1278 25.1815 74.0675C25.1815 74.0071 25.1602 73.9487 25.1213 73.9026C25.0825 73.8564 25.0286 73.8254 24.9691 73.8151H22.5362C22.4934 70.389 23.4458 67.0241 25.2779 64.1288Z" fill="black"/>
<path id="Vector_7" d="M58.788 67.4732C58.7642 67.4108 58.7171 67.3602 58.6566 67.3321C58.5961 67.3039 58.5271 67.3005 58.4641 67.3225L53.6058 69.1528C51.414 63.9481 45.8778 60.3628 40.1082 61.3571C37.7759 61.6947 35.5761 62.649 33.736 64.1214C32.2693 65.3344 31.0836 66.8515 30.2608 68.5678C29.438 70.2841 28.9978 72.1586 28.9706 74.0617C28.9434 75.9649 29.3298 77.8512 30.1032 79.5903C30.8765 81.3294 32.0184 82.8798 33.4498 84.1343C35.1671 85.6407 37.8938 86.394 38.9935 86.6199C43.1889 87.4485 47.2788 86.4392 49.9 84.2473C51.9644 82.498 53.444 80.1588 54.1401 77.544C54.8362 74.9292 54.7155 72.164 53.7942 69.6198L58.6449 67.7895C58.6754 67.7787 58.7034 67.7617 58.7273 67.7398C58.7511 67.7178 58.7703 67.6913 58.7837 67.6618C58.797 67.6322 58.8043 67.6003 58.8051 67.5679C58.8058 67.5355 58.8 67.5033 58.788 67.4732ZM54.0954 73.8153H52.4233C52.3639 73.8256 52.31 73.8565 52.2711 73.9027C52.2323 73.9488 52.211 74.0072 52.211 74.0676C52.211 74.1279 52.2323 74.1863 52.2711 74.2325C52.31 74.2786 52.3639 74.3096 52.4233 74.3199H54.103C54.042 77.4768 52.8315 80.5031 50.6984 82.8313C50.6984 82.6806 50.6984 82.7258 49.4556 81.483C49.4332 81.4598 49.4062 81.4413 49.3765 81.4287C49.3467 81.416 49.3147 81.4095 49.2824 81.4095C49.2501 81.4095 49.2181 81.416 49.1883 81.4287C49.1585 81.4413 49.1316 81.4598 49.1091 81.483C49.0857 81.5061 49.0671 81.5337 49.0544 81.5641C49.0416 81.5944 49.0351 81.6271 49.0351 81.66C49.0351 81.6929 49.0416 81.7255 49.0544 81.7559C49.0671 81.7863 49.0857 81.8139 49.1091 81.837C50.3821 83.1099 50.3068 83.0873 50.4649 83.0798C49.3382 84.1782 48.0039 85.041 46.5399 85.6178C45.0759 86.1946 43.5117 86.4738 41.9385 86.4392V84.8047C41.9385 84.772 41.9321 84.7397 41.9196 84.7096C41.9071 84.6794 41.8888 84.652 41.8657 84.6289C41.8426 84.6058 41.8152 84.5875 41.7851 84.575C41.7549 84.5625 41.7226 84.5561 41.69 84.5561C41.6573 84.5561 41.625 84.5625 41.5948 84.575C41.5647 84.5875 41.5373 84.6058 41.5142 84.6289C41.4911 84.652 41.4728 84.6794 41.4603 84.7096C41.4478 84.7397 41.4414 84.772 41.4414 84.8047V86.4316C38.675 86.3695 35.997 85.4453 33.7812 83.7878C33.5251 83.5543 33.269 83.3058 33.028 83.0346C33.4658 82.6526 33.8808 82.2451 34.2708 81.8144C34.3164 81.7668 34.3418 81.7034 34.3418 81.6374C34.3418 81.5715 34.3164 81.5081 34.2708 81.4604C34.2477 81.4369 34.2201 81.4183 34.1897 81.4056C34.1593 81.3929 34.1267 81.3863 34.0938 81.3863C34.0608 81.3863 34.0282 81.3929 33.9978 81.4056C33.9675 81.4183 33.9399 81.4369 33.9168 81.4604C32.8321 82.545 32.7493 82.6128 32.7041 82.6881C30.6618 80.3643 29.5113 77.3906 29.4577 74.2973H30.9642C31.0236 74.287 31.0775 74.256 31.1164 74.2099C31.1552 74.1637 31.1765 74.1053 31.1765 74.045C31.1765 73.9847 31.1552 73.9263 31.1164 73.8801C31.0775 73.8339 31.0236 73.803 30.9642 73.7927H29.4577C29.6174 70.7536 30.8382 67.8669 32.9075 65.6353L33.8942 66.622C33.9167 66.6453 33.9436 66.6637 33.9733 66.6764C34.0031 66.689 34.0351 66.6955 34.0674 66.6955C34.0997 66.6955 34.1317 66.689 34.1615 66.6764C34.1913 66.6637 34.2182 66.6453 34.2407 66.622C34.2641 66.5989 34.2827 66.5714 34.2955 66.541C34.3082 66.5106 34.3147 66.478 34.3147 66.445C34.3147 66.4121 34.3082 66.3795 34.2955 66.3491C34.2827 66.3187 34.2641 66.2912 34.2407 66.268L33.2313 65.2587C35.0877 63.373 37.5272 62.1705 40.1534 61.8466C40.5749 61.7779 40.9998 61.7327 41.4263 61.7111V63.2702C41.4263 63.3029 41.4328 63.3352 41.4453 63.3653C41.4578 63.3955 41.4761 63.4229 41.4991 63.446C41.5222 63.4691 41.5496 63.4874 41.5798 63.4999C41.6099 63.5124 41.6423 63.5188 41.6749 63.5188C41.7075 63.5188 41.7399 63.5124 41.77 63.4999C41.8002 63.4874 41.8276 63.4691 41.8507 63.446C41.8737 63.4229 41.8921 63.3955 41.9045 63.3653C41.917 63.3352 41.9235 63.3029 41.9235 63.2702V61.6885C45.0292 61.7078 48.0037 62.9436 50.2088 65.1307L49.1091 66.2831C49.0857 66.3062 49.0671 66.3338 49.0544 66.3642C49.0416 66.3945 49.0351 66.4272 49.0351 66.4601C49.0351 66.493 49.0416 66.5256 49.0544 66.556C49.0671 66.5864 49.0857 66.614 49.1091 66.6371C49.1316 66.6603 49.1585 66.6788 49.1883 66.6914C49.2181 66.704 49.2501 66.7105 49.2824 66.7105C49.3147 66.7105 49.3467 66.704 49.3765 66.6914C49.4062 66.6788 49.4332 66.6603 49.4556 66.6371L50.6005 65.4997C51.6749 66.6167 52.5353 67.9212 53.1389 69.3487L43.2265 73.062C43.0203 72.6945 42.6893 72.4129 42.2933 72.2685C41.8974 72.1241 41.4628 72.1263 41.0684 72.2748C40.6739 72.4233 40.3458 72.7082 40.1433 73.0778C39.9409 73.4475 39.8777 73.8775 39.9651 74.2898L33.0656 76.8884C32.9075 76.6104 32.6516 76.4011 32.3477 76.3014C32.0438 76.2017 31.7136 76.2186 31.4215 76.3488C31.1294 76.4791 30.8962 76.7134 30.7673 77.0061C30.6384 77.2988 30.623 77.6291 30.7242 77.9325C30.8253 78.2359 31.0357 78.4909 31.3145 78.6477C31.5933 78.8045 31.9204 78.8521 32.2322 78.781C32.5441 78.7099 32.8183 78.5254 33.0016 78.2633C33.1849 78.0011 33.2641 77.6802 33.2238 77.3629L40.1383 74.7568C40.3411 75.1311 40.6725 75.4193 41.0713 75.5683C41.47 75.7172 41.9092 75.7168 42.3077 75.5672C42.7062 75.4175 43.0371 75.1287 43.2392 74.754C43.4413 74.3794 43.501 73.9443 43.4073 73.529L53.3272 69.763C53.8142 71.0595 54.0741 72.4304 54.0954 73.8153Z" fill="black"/>
<path id="Vector_8" d="M39.7621 108.742C42.308 109.955 46.7218 108.991 49.3355 107.989C49.3743 107.973 49.4087 107.949 49.4358 107.917C49.4628 107.885 49.4816 107.847 49.4905 107.806C49.4994 107.765 49.4982 107.723 49.4869 107.682C49.4757 107.642 49.4547 107.605 49.4259 107.575C48.7622 106.723 48.2826 105.744 48.0173 104.697C47.5558 103.131 47.2604 101.52 47.1361 99.8919C47.1334 99.8568 47.1234 99.8226 47.1069 99.7915C47.0904 99.7604 47.0677 99.733 47.0401 99.7111C47.0125 99.6892 46.9807 99.6732 46.9467 99.6642C46.9127 99.6551 46.8771 99.6531 46.8423 99.6584C46.5636 99.7036 39.9655 100.796 38.1201 103.831C37.8653 104.236 37.7063 104.693 37.6554 105.168C37.6045 105.643 37.663 106.124 37.8263 106.573C37.9783 107.05 38.2293 107.49 38.5629 107.864C38.8964 108.238 39.3051 108.537 39.7621 108.742ZM46.654 100.178C46.8574 102.438 47.5278 105.82 48.8308 107.643C45.2982 108.848 39.4683 109.947 38.2858 106.4C37.1032 102.852 42.9708 100.886 46.654 100.178Z" fill="black"/>
</g>
</g>
</svg>
