<svg width="151" height="151" viewBox="0 0 151 151" fill="none" xmlns="http://www.w3.org/2000/svg">
<g id="Create-New-Post--Streamline-London">
<g id="Create-New-Post--Streamline-London.svg">
<g id="phone">
<path id="vector" d="M119.742 138.277L138.277 22.1768C138.998 17.6582 135.92 13.4102 131.401 12.6889L77.2368 4.04232C72.7182 3.32097 68.4703 6.39931 67.7489 10.918L49.2149 127.019C48.4936 131.538 51.572 135.786 56.0907 136.507L110.255 145.154C114.773 145.875 119.022 142.797 119.742 138.277Z" fill="#81F8F8"/>
<path id="vector_2" d="M138.512 16.9411C136.703 14.3146 133.704 12.7894 131.441 12.4278L77.2777 3.78087C72.6258 3.03443 68.23 6.21903 67.4873 10.8754L48.953 126.976C48.0544 132.602 53.11 137.417 58.1294 138.217L111.679 146.766C116.477 147.531 121.003 144.252 121.769 139.455L140.206 23.9671C140.582 21.611 139.965 19.0501 138.513 16.9411H138.512ZM49.4734 127.06L68.0078 10.9583C68.7068 6.57907 72.8148 3.60311 77.194 4.30134L131.357 12.9475C135.726 13.645 138.711 17.7659 138.014 22.133L119.48 138.235C118.781 142.614 114.672 145.59 110.293 144.891L56.1304 136.245C51.7617 135.548 48.7759 131.427 49.4734 127.06Z" fill="black"/>
<path id="vector_3" d="M113.403 18.8873C114.196 18.8873 114.838 18.2449 114.838 17.4525C114.838 16.66 114.196 16.0176 113.403 16.0176C112.611 16.0176 111.968 16.66 111.968 17.4525C111.968 18.2449 112.611 18.8873 113.403 18.8873Z" fill="black"/>
<path id="vector_4" d="M95.9268 10.7601C95.8861 11.0162 96.0601 11.2572 96.317 11.2979L111.008 13.6434C111.264 13.6841 111.505 13.5101 111.545 13.2532C111.586 12.9964 111.412 12.7561 111.155 12.7154L96.4646 10.3699C96.2085 10.3292 95.9675 10.5032 95.9268 10.7601Z" fill="black"/>
<path id="vector_5" d="M87.8267 11.328C88.4195 11.4229 88.8232 11.9795 88.7283 12.5723L88.5943 13.4121C88.2824 15.3637 89.6126 17.1993 91.5642 17.5104L113.59 21.0264C115.541 21.3382 117.377 20.0081 117.688 18.0565L117.822 17.2166C117.917 16.6239 118.474 16.2201 119.066 16.315L128.729 17.8576C131.227 18.2568 132.929 20.6054 132.531 23.1038L114.399 136.677C114.095 138.585 112.303 139.883 110.397 139.579L58.7594 131.336C56.261 130.936 54.5587 128.588 54.9571 126.09L72.9183 13.5869C73.3175 11.0885 75.6661 9.3862 78.1645 9.78465L87.8267 11.3272V11.328Z" fill="white"/>
<path id="vector_6" d="M65.1479 123.552L63.4132 121.318C63.1767 121.011 62.7361 120.939 62.4137 121.154L60.0591 122.72C59.7782 122.907 59.5861 123.205 59.5326 123.536L59.1259 126.024C59.0604 126.427 59.3338 126.812 59.7405 126.879L64.128 127.595C64.5649 127.658 64.9181 127.365 64.9814 126.98L65.3874 124.493C65.4409 124.161 65.3542 123.818 65.1479 123.552ZM64.4496 126.894C64.4301 127.011 64.3156 127.082 64.2139 127.063L63.185 126.895L63.5495 124.66C63.5729 124.514 63.4772 124.376 63.3273 124.35C61.4654 124.028 61.4624 124.012 61.3306 124.105C61.2055 124.195 61.25 124.111 60.8568 126.516C59.7443 126.334 59.7616 126.358 59.6938 126.266C59.623 126.165 59.626 126.314 60.0644 123.625C60.0945 123.439 60.2015 123.273 60.3574 123.17L62.7112 121.604C62.8016 121.546 62.9221 121.564 62.9884 121.649L64.7231 123.883C64.8375 124.031 64.8873 124.222 64.8564 124.407L64.4504 126.895L64.4496 126.894ZM61.3886 126.601L61.7102 124.632L62.9756 124.838L62.6532 126.808L61.3886 126.601Z" fill="black"/>
<path id="vector_7" d="M72.4764 126.772C73.9422 125.931 73.833 123.734 72.2422 123.072C71.1975 122.636 69.9818 123.122 69.5381 124.186C68.8866 125.745 70.3026 127.423 71.9778 126.978L72.7401 128.829C72.8771 129.159 73.375 128.95 73.2372 128.624L72.4757 126.773L72.4764 126.772ZM70.0368 124.392C70.5595 123.136 72.3408 123.141 72.8613 124.398C73.3758 125.65 72.1194 126.912 70.8593 126.391C70.0797 126.066 69.7114 125.171 70.0368 124.393V124.392Z" fill="black"/>
<path id="vector_8" d="M86.6947 124.021L81.0192 123.094C80.2555 122.969 79.5346 123.488 79.4096 124.252L78.4831 129.927C78.3596 130.69 78.8786 131.411 79.6408 131.537C85.5333 132.501 85.3645 132.482 85.543 132.482C86.2322 132.482 86.8137 131.988 86.926 131.306L87.8517 125.631C87.9759 124.87 87.4615 124.148 86.6947 124.021ZM87.3199 125.543L86.3934 131.218C86.3174 131.687 85.8737 132.009 85.4037 131.93L79.7282 131.004C79.2582 130.927 78.9381 130.484 79.0157 130.014L79.9421 124.339C80.0122 123.906 80.388 123.614 80.794 123.614C80.898 123.614 81.4177 123.707 86.6081 124.553C87.0781 124.63 87.3975 125.073 87.3199 125.543Z" fill="black"/>
<path id="vector_9" d="M85.7126 128.002C85.6207 127.873 85.6719 127.915 83.4763 127.556C83.8431 125.315 83.8559 125.419 83.7655 125.295C83.6827 125.181 83.5207 125.143 83.3927 125.231C83.2601 125.324 83.303 125.277 82.9445 127.47C80.7263 127.108 80.8114 127.091 80.6856 127.178C80.5628 127.265 80.5342 127.436 80.6223 127.557C80.7225 127.696 80.6864 127.647 82.8586 128.001C82.4926 130.243 82.479 130.138 82.5687 130.263C82.7088 130.457 83.0146 130.386 83.0537 130.15L83.3897 128.088C84.3176 128.239 85.4166 128.428 85.4941 128.428C85.7194 128.428 85.8369 128.175 85.7126 128.003V128.002Z" fill="black"/>
<path id="vector_10" d="M94.8733 132.757C94.7656 132.676 92.24 130.752 92.5948 128.578C92.8554 126.991 94.9509 126.593 95.7824 127.947C97.0056 126.923 98.8608 127.979 98.604 129.56C98.2477 131.734 95.2416 132.754 95.1143 132.796C95.033 132.822 94.9433 132.809 94.8733 132.757ZM93.1153 128.664C92.8486 130.291 94.6157 131.865 95.0797 132.247C95.6416 132.032 97.8176 131.1 98.0827 129.474C98.2838 128.252 96.678 127.53 95.9187 128.566C95.7914 128.74 95.5203 128.696 95.4555 128.49C95.0669 127.28 93.3171 127.421 93.1153 128.663V128.664Z" fill="black"/>
<path id="vector_11" d="M110.461 129.878C109.44 128.461 107.443 128.09 105.974 129.146C103.656 130.815 104.513 134.468 107.332 134.929C110.169 135.394 112.117 132.186 110.461 129.878ZM105.864 133.549C106.166 132.952 106.634 132.538 107.143 132.398C107.485 132.626 107.913 132.698 108.315 132.591C108.753 132.885 109.065 133.423 109.162 134.083C108.063 134.706 106.697 134.474 105.865 133.549L105.864 133.549ZM107.052 131.056C107.179 130.264 108.206 130.026 108.671 130.674C109.135 131.318 108.588 132.221 107.795 132.089C107.302 132.008 106.971 131.544 107.052 131.056ZM109.643 133.738C109.508 133.156 109.226 132.664 108.844 132.322C109.421 131.857 109.567 130.998 109.11 130.36C108.634 129.704 107.733 129.577 107.101 130.032C106.48 130.48 106.317 131.329 106.728 131.974C106.255 132.176 105.83 132.554 105.517 133.067C104.444 131.169 106.006 128.747 108.281 129.115C110.505 129.476 111.293 132.251 109.643 133.738Z" fill="black"/>
<path id="vector_12" d="M83.1043 18.5137C80.8959 15.6537 76.2832 16.8732 75.8162 20.4894C75.5292 22.7227 77.1064 24.7759 79.348 25.0644C82.9393 25.5299 85.3248 21.3917 83.1043 18.5137ZM79 21.791C79.4301 22.0666 79.9897 22.1585 80.5193 21.9845C81.1474 22.3611 81.6092 23.0963 81.7613 24.0152C80.3551 24.904 78.4622 24.7029 77.2827 23.4382C77.6616 22.5879 78.2965 21.9966 79 21.791ZM78.7274 20.1286C78.8705 19.0206 80.2812 18.6538 80.9508 19.5253C81.3666 20.0638 81.2792 20.8479 80.7234 21.2758C79.8481 21.9506 78.588 21.2245 78.7274 20.1286ZM81.0548 21.6991C81.8276 21.1003 81.9865 19.9847 81.3779 19.1961C80.7746 18.415 79.6561 18.2712 78.8735 18.873C78.1014 19.4688 77.9433 20.5851 78.5488 21.3737C77.8898 21.6546 77.3083 22.2128 76.9129 22.9675C75.2565 20.4728 77.2812 17.112 80.3242 17.4901C83.3521 17.8787 84.4797 21.6546 82.2396 23.6544C82.0468 22.8236 81.6227 22.1382 81.0548 21.6991Z" fill="black"/>
<path id="vector_13" d="M103.736 24.7977C103.635 24.6569 103.745 24.6516 92.1827 22.8733C91.8295 22.819 91.7489 23.3501 92.0984 23.405L103.518 25.2248C103.736 25.2248 103.864 24.9762 103.736 24.7977Z" fill="black"/>
<path id="vector_14" d="M100.656 26.229C91.6359 24.8031 91.7632 24.7647 91.6261 24.8671C91.5019 24.9568 91.4808 25.1255 91.5659 25.243C91.6683 25.3838 91.5651 25.3228 100.579 26.7622C100.952 26.7863 100.983 26.2809 100.656 26.229Z" fill="black"/>
<path id="vector_15" d="M120.281 27.6719L108.905 25.8558C108.761 25.8348 108.621 25.9342 108.596 26.0803C108.574 26.2257 108.674 26.3643 108.82 26.3884L120.204 28.2051C120.572 28.2277 120.616 27.7268 120.282 27.6719H120.281Z" fill="black"/>
<path id="vector_16" d="M117.376 29.2106C108.367 27.7448 108.485 27.7471 108.346 27.8488C108.221 27.9414 108.202 28.1101 108.286 28.2246C108.389 28.367 108.274 28.3037 117.334 29.7461C117.664 29.7461 117.702 29.2633 117.377 29.2106H117.376Z" fill="black"/>
<path id="vector_17" d="M127.046 37.8269L121.158 36.8387C120.993 36.8131 120.831 36.8523 120.697 36.9494C120.419 37.1505 120.517 36.9035 119.821 41.367C119.769 41.7037 119.999 42.0201 120.334 42.0728L126.222 43.0618C126.392 43.0874 126.551 43.0475 126.685 42.951C126.967 42.7432 126.877 42.9104 127.559 38.5334C127.612 38.1975 127.381 37.8812 127.046 37.8269ZM127.027 38.4491L126.399 42.463C126.38 42.6091 126.465 42.5104 120.42 41.5418C120.299 41.5222 120.372 41.645 120.981 37.4368C120.987 37.3953 121.023 37.369 121.06 37.369C127.404 38.4318 127.044 38.3346 127.027 38.4491Z" fill="black"/>
<path id="vector_18" d="M125.376 39.3097L123.587 40.5149L122.308 38.799C122.098 38.5143 121.664 38.8352 121.877 39.1214C123.403 41.1672 123.335 41.1506 123.525 41.1506C123.641 41.1506 123.509 41.2139 125.678 39.7564C125.973 39.5583 125.672 39.1124 125.377 39.3097H125.376Z" fill="black"/>
<path id="vector_19" d="M118.944 21.662C118.661 21.6175 118.469 21.3524 118.514 21.07L118.628 20.3536C118.672 20.0712 118.938 19.8791 119.22 19.9243C119.503 19.9695 119.695 20.2339 119.649 20.5163L119.536 21.2326C119.491 21.5151 119.226 21.7072 118.944 21.662Z" fill="black"/>
<path id="vector_20" d="M120.703 21.9257C120.42 21.8813 120.228 21.6161 120.273 21.3337L120.497 19.9252C120.542 19.6427 120.807 19.4507 121.089 19.4958C121.372 19.541 121.564 19.8054 121.519 20.0879L121.295 21.4964C121.25 21.7788 120.985 21.9709 120.703 21.9257Z" fill="black"/>
<path id="vector_21" d="M123.07 21.9122C123.025 22.1947 122.76 22.3868 122.478 22.3416C122.195 22.2964 122.003 22.032 122.048 21.7495L122.353 19.8341C122.397 19.5517 122.662 19.3596 122.945 19.4048C123.227 19.45 123.419 19.7144 123.374 19.9968L123.07 21.9122Z" fill="black"/>
<path id="vector_22" d="M129.839 20.8999C129.731 20.7501 129.57 20.6521 129.388 20.6235L125.914 20.0714C125.538 20.0134 125.183 20.2703 125.123 20.6461L124.922 21.9115C124.862 22.2896 125.12 22.6436 125.496 22.7031C127.878 23.0805 128.995 23.2635 129.079 23.2635C129.413 23.2635 129.707 23.0202 129.762 22.6805C129.988 21.254 130.046 21.1839 129.839 20.8999ZM125.392 22.1744C125.307 22.0569 125.326 22.1051 125.547 20.7139C125.569 20.5708 125.704 20.4736 125.846 20.4955L127.379 20.7388L127.096 22.5224C125.388 22.2512 125.477 22.2904 125.392 22.1744Z" fill="black"/>
<path id="vector_23" d="M51.8802 110.811L57.2928 111.66L57.0797 112.829L51.6866 112.005L51.8802 110.811Z" fill="black"/>
<path id="vector_24" d="M128.77 17.598L119.109 16.0555C118.368 15.9365 117.681 16.4404 117.562 17.1755L117.428 18.0146C117.138 19.8193 115.433 21.0553 113.631 20.7661L91.605 17.2493C89.8048 16.9631 88.5643 15.2699 88.855 13.4531L88.9891 12.6133C89.1058 11.8781 88.6027 11.1852 87.869 11.0669L78.206 9.52432C75.5675 9.10478 73.0811 10.8952 72.6586 13.5457L54.6982 126.047C54.2764 128.685 56.0803 131.175 58.7188 131.596L110.356 139.839C112.385 140.166 114.331 138.788 114.661 136.718L132.792 23.1447C133.215 20.5002 131.415 18.0176 128.771 17.5965L128.77 17.598ZM114.139 136.636C113.857 138.406 112.193 139.605 110.438 139.319L58.8009 131.076C56.4494 130.7 54.842 128.482 55.2179 126.131L56.7047 116.817L115.793 126.271L114.138 136.636L114.139 136.636ZM56.7883 116.296L69.6578 35.6835L128.742 45.1635L115.877 125.751L56.7883 116.296ZM132.27 23.0619L128.825 44.6423L69.7414 35.1623L73.1791 13.6286C73.5173 11.5075 75.3566 9.99132 77.44 9.99132C77.9725 9.99132 77.4935 9.94688 87.7847 11.5881C88.2328 11.6597 88.5394 12.0822 88.4678 12.5312L88.3338 13.3702C87.9986 15.4672 89.4244 17.4354 91.5214 17.7705L113.548 21.2873C115.642 21.6172 117.614 20.1899 117.948 18.0982L118.082 17.2591C118.154 16.8102 118.585 16.5014 119.024 16.5767L128.687 18.1193C131.043 18.4951 132.647 20.7073 132.27 23.0626L132.27 23.0619Z" fill="black"/>
</g>
<path id="elements" d="M50.0946 30.8766L40.4693 18.8666C40.3074 18.6685 39.9895 18.7596 39.9556 19.0082L37.815 34.2488L21.6622 28.5718C21.4016 28.4791 21.1674 28.7781 21.3271 29.0094L31.6499 44.1189L10.4807 48.9237C10.2141 48.9839 10.1719 49.3455 10.4167 49.4675L30.5683 59.3648L15.6079 67.7842C15.3571 67.9235 15.4444 68.3062 15.7276 68.3265L32.2208 69.549L27.9275 82.3717C27.8529 82.5939 28.0601 82.8056 28.2785 82.7438L42.2793 78.9823C42.6483 78.8821 42.5007 78.3225 42.1279 78.4211L28.6498 82.0441L32.8897 69.381C32.9514 69.1965 32.8211 69.012 32.6366 68.9991L16.7294 67.8196L31.3335 59.6013C31.5354 59.4875 31.5301 59.1923 31.3185 59.0876L11.4087 49.3101L32.1945 44.5927C32.3941 44.5452 32.4844 44.3155 32.3692 44.1453L22.3055 29.4139C38.1652 34.9877 38.0221 35.0012 38.2051 34.889C38.3859 34.776 38.3098 34.8973 40.4369 19.7554C49.77 31.4008 49.6472 31.324 49.8363 31.3474C50.0946 31.379 50.2543 31.074 50.0946 30.8781V30.8766Z" fill="black"/>
<g id="post">
<path id="vector_25" d="M118.723 32.3264L57.1572 22.5383C56.7467 22.4728 56.3603 22.753 56.2948 23.1642L42.7286 108.498C42.6631 108.909 42.9433 109.295 43.3545 109.361L104.92 119.149C105.331 119.214 105.717 118.934 105.783 118.523L119.349 33.1888C119.414 32.7783 119.134 32.3919 118.723 32.3264Z" fill="white"/>
<path id="vector_26" d="M118.803 32.0458L57.1684 22.2472C56.6223 22.1575 56.1026 22.5311 56.0145 23.084L42.437 108.487C42.3504 109.037 42.7262 109.554 43.2746 109.641L104.908 119.44C105.443 119.53 105.976 119.153 106.063 118.602L119.64 33.1997C119.727 32.6506 119.351 32.1331 118.803 32.0458ZM119.068 33.1085C105.498 118.795 105.549 118.623 105.318 118.791C105.089 118.958 105.303 118.85 43.3657 109.069C43.1322 109.032 42.9725 108.812 43.0094 108.579C56.5425 22.8859 56.5282 23.0644 56.7586 22.8964C56.9884 22.73 56.794 22.7157 118.711 32.6182C118.945 32.6559 119.105 32.8758 119.068 33.1085Z" fill="black"/>
<path id="vector_27" d="M105.832 89.7245L114.247 36.7833C114.313 36.3725 114.033 35.9865 113.622 35.9212L61.0813 27.5685C60.6705 27.5032 60.2844 27.7833 60.2191 28.1942L51.8029 81.1349C51.7375 81.5461 52.0177 81.9318 52.4286 81.9973L104.969 90.3497C105.38 90.4152 105.766 90.135 105.832 89.7245Z" fill="black"/>
<path id="vector_28" d="M108.163 58.5526C107.971 58.0163 107.698 57.4408 107.886 56.903C107.96 56.6921 108.101 56.5068 108.15 56.2892C108.276 55.7265 107.806 55.2234 107.436 54.7812C106.814 54.0393 107.611 53.8299 107.565 53.3237C107.519 52.8176 106.591 52.7302 106.324 52.2436C106.057 51.7571 106.128 51.0377 106.619 50.7764C106.756 50.7026 106.939 50.6438 106.966 50.4894C107.013 50.2145 106.634 50.1166 104.949 49.3001C105.584 49.0169 105.443 48.0324 104.981 47.5119C104.519 46.9915 103.845 46.6359 103.567 45.998C103.423 45.6643 103.406 45.2899 103.307 44.9397C103.005 43.8694 101.641 45.4338 100.705 44.8312C101.103 44.3251 101.095 43.5425 100.687 43.0446C100.147 42.3855 97.6696 41.4734 97.3322 41.0478C97.0083 40.6396 97.754 39.9466 97.531 39.5964C97.3081 39.2454 96.698 39.4186 96.2815 39.329C97.1168 38.1961 95.526 38.401 95.5034 37.9197C95.48 37.4384 96.5617 36.8856 96.3154 36.5376C96.0683 36.1888 94.1273 36.4133 93.0539 36.6167C93.2927 35.9998 94.119 35.1539 93.771 34.7668C93.423 34.3796 91.2914 34.6869 90.1081 35.0372C90.1081 34.7396 90.5314 34.2787 90.1081 34.1454C89.6856 34.012 87.9532 34.2508 86.8791 34.1212C82.6324 33.6083 82.3229 33.5285 81.6909 33.6475C81.2525 33.7303 80.8413 33.9329 80.3984 33.9879C79.9555 34.0437 79.6783 33.3522 79.2558 33.4885C78.8325 33.6249 78.7489 34.3193 78.495 34.7351C77.9226 34.5995 77.2266 33.8132 76.917 33.9744C76.6075 34.1356 76.7852 34.4896 76.7189 34.7472C76.1826 34.5574 75.0837 34.1145 74.5625 34.4286C74.0413 34.7427 74.7041 35.7768 74.3553 36.5225C74.3553 36.5225 72.9574 35.7843 72.3812 35.8838C71.805 35.9832 71.3598 36.7545 71.7688 37.1718C71.1263 37.0249 70.4055 37.4211 70.1855 38.0417C69.1642 38.1397 68.0795 37.9325 67.5161 39.2537C66.9527 40.5748 65.8809 40.6772 65.1066 41.5909C64.3323 42.5045 64.4867 44.4757 63.9512 45.5475C63.0872 47.2777 62.1163 47.3688 61.2516 49.0997C60.0013 51.6041 60.5715 51.5898 60.2212 52.5268C60.0729 52.923 59.7693 53.2454 59.6232 53.6424C59.3121 54.489 59.7753 55.502 59.3701 56.3072C59.2089 56.6281 58.9212 56.8834 58.8135 57.2262C58.705 57.5689 58.9332 58.0539 59.2865 57.9846C58.7269 59.833 58.6576 59.9483 58.7404 60.2112C58.8029 60.4108 59.0462 60.5652 59.2262 60.4597C58.9845 61.2581 58.8398 62.0859 58.7977 62.919C58.7811 63.2406 59.0108 63.7038 59.2767 63.523C59.0304 63.9765 58.7766 64.4585 58.7969 64.9745C58.8172 65.4904 59.2285 66.0282 59.743 65.9861C60.0653 66.5261 60.701 66.609 60.8795 67.2123C61.0257 67.7057 62.1487 67.7659 62.6925 67.378L62.7407 67.4059C62.6564 67.6763 62.6805 67.9098 62.5547 68.1124C62.4071 68.3497 62.1096 68.434 61.8723 68.5816C61.5522 68.7812 61.327 69.1262 61.2712 69.4991C61.1929 70.0241 61.0129 69.8531 60.7997 69.8855C60.5029 69.9307 60.4894 70.357 60.3011 70.5905C60.0781 70.8661 59.6578 70.8225 59.3083 70.8835C58.3977 71.0424 57.588 73.7894 57.1956 74.6262C56.8732 74.5117 56.5041 74.6774 56.2812 74.9373C56.0582 75.1971 55.949 75.5331 55.8451 75.8592C55.7449 75.5549 55.238 75.7056 55.0406 76.0166C54.2784 77.2203 54.3266 77.9871 53.6517 77.6383C53.0664 77.3355 52.3441 78.4149 52.0865 79.3579C51.9479 80.0094 51.8078 80.7355 51.7024 81.3155C51.554 82.1335 52.6868 82.0597 52.6868 82.0597L101.891 89.6197C102.337 88.7513 101.066 87.8369 101.214 86.8727C101.241 86.7033 101.31 86.5315 101.272 86.3658C101.227 86.1783 101.061 86.0502 100.962 85.8838C100.715 85.4605 100.982 84.8993 100.82 84.4361C100.631 83.9021 99.918 83.6151 99.8969 83.0494C99.8781 82.5696 100.392 82.1056 100.173 81.6801C100.088 81.5114 99.9097 81.4142 99.753 81.308C98.8605 80.6836 99.4939 79.9838 99.8638 80.1895C99.9218 79.6502 99.3817 79.2615 98.9245 78.967C98.4696 78.6702 97.9762 78.1776 98.166 77.6692C98.2255 77.514 98.346 77.3807 98.3724 77.2165C98.4259 76.8783 98.0696 76.62 97.7389 76.5303C97.4105 76.4415 97.1484 76.0023 97.1763 75.6611C97.1846 75.5602 98.114 73.998 97.2034 73.2312C96.9541 73.0211 97.5069 71.5471 97.5069 71.5471C102.978 71.4725 101.501 70.3773 103.948 69.0855C104.29 68.9048 105.593 67.2778 105.904 67.25C106.141 67.2289 106.35 67.0797 106.445 66.8613C106.859 65.9213 107.451 64.6928 108.367 64.042C108.555 63.9079 108.686 63.7091 108.734 63.4831C108.971 62.3804 108.543 59.6161 108.161 58.5548L108.163 58.5526Z" fill="#FFD997"/>
<path id="vector_29" d="M71.2588 60.52C69.0127 62.6366 64.2561 70.9107 69.3832 72.8765C71.3883 73.6456 73.2367 73.339 74.5473 72.5195C77.2529 70.8278 78.449 66.7378 79.578 64.0104C75.4542 64.5535 73.2224 61.0654 71.2595 60.5193L71.2588 60.52Z" fill="white"/>
<path id="vector_30" d="M70.1314 82.2285C70.035 82.212 69.9348 82.2481 69.8775 82.3272C69.2207 83.2476 68.2792 82.9991 67.7904 82.5471C67.2925 82.0862 67.1328 81.0528 68.3372 80.5745C68.5022 80.5089 68.5549 80.3026 68.4427 80.1655C67.0093 78.4127 69.7043 76.9327 70.4003 78.9204C70.4688 79.1155 70.4447 79.062 73.2301 79.4951C73.3273 79.5102 73.4222 79.468 73.4817 79.3904C75.0943 77.2987 77.3773 80.1707 75.0732 81.3879C74.9324 81.4625 74.8917 81.638 74.9806 81.7706C76.0358 83.3388 73.8703 85.1623 72.5296 82.752C72.4445 82.5984 72.5417 82.6526 70.1314 82.2285Z" fill="white"/>
<path id="vector_31" d="M114.018 35.6907L60.7757 27.2268C60.3825 27.1673 60.045 27.4347 59.9878 27.797L51.4599 81.4411C51.4004 81.8154 51.6565 82.1687 52.0308 82.2282L105.383 90.7011C105.716 90.7011 106.008 90.4593 106.061 90.1219L114.588 36.4771C114.648 36.1027 114.393 35.7502 114.017 35.6907H114.018ZM114.016 36.3867L105.446 90.1L52.122 81.655C52.0084 81.6369 54.8358 63.6913 60.6039 27.8181C96.2175 33.4587 114.021 36.3149 114.016 36.3867Z" fill="black"/>
<path id="vector_32" d="M61.3984 84.605C60.0788 84.3964 58.8307 85.2528 58.6288 86.519C58.3803 88.0781 59.8091 89.4437 61.4368 89.2004C62.8032 90.0802 62.7301 90.0523 62.8371 90.0523C63.0141 90.0523 63.1414 89.8821 63.0894 89.7126L62.7444 88.5767C64.1522 87.2616 63.3786 84.9199 61.3984 84.605ZM62.2782 88.283C62.1946 88.3508 62.1592 88.4623 62.1908 88.5654L62.3769 89.1778C61.5807 88.6656 61.598 88.6596 61.4933 88.6596C61.3977 88.6596 61.174 88.744 60.7514 88.6762C59.7127 88.5112 58.9942 87.5802 59.1501 86.6011C59.306 85.6226 60.2739 84.9621 61.3163 85.1255C62.935 85.3839 63.4961 87.3121 62.2782 88.283Z" fill="black"/>
<path id="vector_33" d="M53.4554 88.2308C53.5978 88.3182 53.771 88.3461 53.9375 88.3069C55.8145 87.8542 57.7774 86.0307 56.7048 84.5544C56.1309 83.7635 54.9777 83.6927 54.3096 84.4105C53.8983 83.5217 52.7798 83.2302 51.9867 83.8049C50.5141 84.8775 51.7984 87.211 53.4554 88.2308ZM51.8857 84.9001C51.9663 84.3887 52.4107 84.0347 52.8973 84.0347C53.4539 84.0347 53.9104 84.4776 53.9254 85.0334C53.9292 85.1607 54.0354 85.3287 54.1604 85.3475C54.2832 85.3694 54.4369 85.2413 54.4798 85.1223C54.7555 84.3412 55.7957 84.1996 56.2777 84.864C56.4389 85.0854 56.5045 85.3566 56.4608 85.6277C56.3388 86.3922 55.2873 87.4226 53.811 87.7947C53.7831 87.8015 53.756 87.797 53.7319 87.7819C52.4356 86.9835 51.7645 85.6639 51.8857 84.9001Z" fill="black"/>
<path id="vector_34" d="M67.8859 90.9999C68.1428 91.0881 68.2505 90.8418 70.4491 86.7586C70.5485 86.574 70.4009 86.3443 70.1802 86.3722C69.726 86.4362 65.746 86.9966 65.6828 87.0071C65.4372 87.0478 65.38 87.3755 65.5969 87.4975L67.4935 88.5603C67.5809 89.3903 67.7059 90.6128 67.7097 90.7077C67.6901 90.835 67.7639 90.9593 67.8859 90.9999ZM66.5346 87.4192L69.7373 86.9672C69.2018 87.96 68.5646 89.1372 68.1586 89.8769C68.0012 88.259 68.0192 88.2507 67.8693 88.1663L66.5346 87.4192Z" fill="black"/>
<path id="vector_35" d="M98.6053 95.496L100.395 94.3631L101.745 95.9946C101.887 96.1678 102.172 96.0933 102.208 95.868L102.908 91.47C102.931 91.3231 102.829 91.1906 102.688 91.1687C98.9171 90.5684 99.134 90.5707 99.0075 90.6618C98.8817 90.7545 98.963 90.4434 98.2038 95.2316C98.1684 95.453 98.4109 95.6172 98.6053 95.496ZM99.3818 91.177L102.346 91.6485L101.779 95.2097C100.588 93.7703 100.622 93.753 100.45 93.753C100.341 93.753 100.424 93.7199 98.8154 94.739L99.3818 91.177Z" fill="black"/>
<path id="vector_36" d="M104.061 98.458L50.7769 89.9873C50.4267 89.9338 50.099 90.1696 50.0441 90.5191L47.6006 105.889C47.5464 106.238 47.7836 106.566 48.1324 106.623L101.416 115.093C101.779 115.148 102.096 114.899 102.149 114.562L104.593 99.1916C104.648 98.8436 104.41 98.5152 104.061 98.458ZM104.072 99.108L101.629 114.479C101.621 114.531 101.499 114.572 101.499 114.572L48.1218 105.971C48.1218 105.971 50.5351 90.5831 50.6105 90.5274C107.78 99.5803 104.102 98.934 104.073 99.108H104.072Z" fill="black"/>
<path id="vector_37" d="M53.5313 93.6874C53.4514 93.6746 53.3761 93.7281 53.3618 93.8072L53.2473 94.4354C53.2051 94.6689 50.3195 94.1145 96.5685 101.476C96.6484 101.489 96.7237 101.436 96.738 101.357L96.8525 100.728C96.8947 100.495 99.784 101.028 53.5313 93.6874Z" fill="black"/>
<path id="vector_38" d="M88.8858 103.483C88.9657 103.496 89.041 103.443 89.0553 103.364L89.1698 102.735C89.212 102.503 91.5281 102.928 53.0516 96.7631C52.9717 96.7503 52.8964 96.8038 52.8821 96.8829L52.7676 97.5111C52.7254 97.7431 50.404 97.3356 88.8858 103.483Z" fill="black"/>
<path id="vector_39" d="M52.5709 99.8373C52.491 99.8245 52.4157 99.878 52.4014 99.9571L52.2877 100.585C52.2462 100.811 49.6055 100.277 92.468 107.067C92.5478 107.08 92.6232 107.027 92.6375 106.948L92.7512 106.32C92.7926 106.094 95.4334 106.628 52.5709 99.8373Z" fill="black"/>
<path id="vector_40" d="M52.0903 102.912C52.0104 102.899 51.9351 102.952 51.9208 103.032L51.8063 103.66C51.7641 103.891 49.5301 103.485 87.1344 109.517C87.2142 109.53 87.2896 109.476 87.3039 109.397L87.4176 108.769C87.4605 108.538 89.6946 108.944 52.0903 102.912Z" fill="black"/>
<path id="vector_41" d="M83.293 42.416C83.6387 42.2518 83.3924 41.7276 83.0459 41.8903C82.7424 42.0334 81.2141 42.7934 81.0356 43.7018C80.9188 44.2938 81.3218 45.4636 82.3831 46.1211C82.5119 46.2025 82.6934 46.1693 82.7823 46.0277C82.8674 45.8906 82.823 45.7114 82.6881 45.6285C81.8325 45.0975 81.532 44.1793 81.6043 43.8148C81.6901 43.3802 82.5383 42.7693 83.293 42.416Z" fill="black"/>
<path id="vector_42" d="M84.7262 43.4816C84.1975 43.7821 83.7779 44.2725 84.2833 44.7425C84.8249 45.2464 87.547 45.6795 87.3143 44.8472C87.068 43.9629 86.1234 42.6885 84.7262 43.4816Z" fill="black"/>
<path id="vector_43" d="M108.436 58.4553C108.272 57.9898 108.006 57.4377 108.16 56.9985C108.22 56.8238 108.372 56.6204 108.433 56.353C108.583 55.6879 108.112 55.1336 107.735 54.6862C107.463 54.3638 107.404 54.2983 107.627 53.9646C108.455 52.7248 106.819 52.544 106.578 52.1034C106.39 51.7622 106.415 51.2123 106.753 51.0323C106.959 50.9216 107.201 50.8289 107.251 50.5382C107.283 50.3506 107.229 50.0833 106.794 49.8724L105.47 49.2306C105.848 48.6838 105.635 47.8138 105.197 47.319C104.75 46.8166 104.069 46.4294 103.832 45.8818C103.606 45.3644 103.718 44.6021 103.199 44.34C102.596 44.0304 101.79 44.7505 101.131 44.6789C101.398 44.0854 101.312 43.3518 100.91 42.8599C100.573 42.4494 99.6916 42.0118 98.8397 41.5885C98.7976 41.6751 98.8013 41.6841 98.8217 41.5794C98.3072 41.3234 97.6685 41.0055 97.5578 40.8661C97.4116 40.6824 98.0828 39.9209 97.7732 39.4388C97.5412 39.0758 97.1073 39.0697 96.7556 39.069C97.0765 38.1885 95.9707 37.9949 95.793 37.8812C95.8758 37.5128 96.9657 36.9585 96.5492 36.3679C96.2351 35.9251 94.8002 36.0403 93.5861 36.2286C93.9152 35.6983 94.3965 35.0295 93.983 34.5708C93.4655 33.9961 91.1743 34.4766 90.5378 34.6227C90.6666 34.2235 90.5016 33.9622 90.1928 33.865C89.6851 33.7046 87.9964 33.9607 86.9118 33.8296C82.327 33.2767 82.1093 33.1653 81.0201 33.5283C80.2843 33.7731 80.3053 33.737 80.0229 33.4989C79.818 33.3257 79.5325 33.0884 79.1642 33.2097C78.6731 33.3679 78.5345 33.9366 78.3507 34.3689C77.7866 34.088 77.251 33.4703 76.781 33.7136C76.4775 33.8725 76.4346 34.1452 76.4338 34.335C75.6708 34.0676 74.9078 33.8778 74.4107 34.1761C73.7622 34.5685 74.2254 35.4309 74.1651 36.1013C73.6492 35.8573 72.8003 35.5168 72.3303 35.5944C71.7518 35.6946 71.269 36.2949 71.3225 36.856C70.7523 36.9148 70.2303 37.2763 69.9818 37.7742C68.4166 37.9851 67.8682 37.6793 67.2468 39.1368C66.9388 39.8599 66.4567 40.1815 65.9445 40.5227C64.6912 41.3595 64.4306 41.7323 64.1007 43.766C63.8769 45.1346 63.7745 45.7477 62.3954 47.1148C61.9276 47.5788 61.4433 48.0594 60.9906 48.967C59.735 51.479 60.2608 51.5867 59.9482 52.422C59.8186 52.77 59.503 53.1232 59.3494 53.539C59.0164 54.4451 59.4631 55.468 59.1106 56.1738C58.9517 56.4863 58.6639 56.7296 58.5351 57.1349C58.4176 57.5055 58.563 58.0018 58.9163 58.1992C58.4643 59.6898 58.3468 59.9308 58.4613 60.2946C58.5201 60.4822 58.6654 60.6441 58.8462 60.7247C58.6579 61.4342 58.5442 62.1656 58.5065 62.9007C58.4915 63.1742 58.6029 63.544 58.8357 63.7323C58.6654 64.0712 58.4869 64.5096 58.5058 64.9826C58.5291 65.5882 58.9743 66.2058 59.5859 66.2699C59.9414 66.7331 60.4717 66.8581 60.6012 67.2912C60.7827 67.9059 61.716 68.0173 62.3539 67.8418C62.3426 67.8848 62.3283 67.9239 62.308 67.9556C62.1513 68.2071 61.1563 68.3736 60.9838 69.4522C60.9469 69.6834 61.0155 69.5546 60.7556 69.5946C60.2683 69.6691 60.2201 70.2273 60.0747 70.4043C59.9474 70.5625 59.5874 70.5368 59.2582 70.5933C58.2278 70.7726 57.5153 73.0933 57.0212 74.2954C56.5308 74.2788 56.0021 74.5741 55.6887 75.4094C55.3362 75.3439 54.9551 75.6052 54.7939 75.8583C54.5386 76.2628 54.3729 76.6138 54.235 76.9083C54.1484 77.0943 54.0015 77.4062 53.9383 77.4288C53.8863 77.4649 53.5797 77.1561 53.0999 77.3678C52.523 77.6208 52.013 78.5202 51.8052 79.2779C51.7065 79.6485 52.2616 79.8006 52.3655 79.4308C52.5546 78.7371 52.9885 78.0502 53.3327 77.8995C53.4291 77.8573 53.4788 77.8724 53.5172 77.8928C54.4987 78.3959 54.5958 77.2518 55.285 76.1686C55.346 76.0722 55.5004 75.9758 55.5818 75.9803C55.6285 76.0805 55.7302 76.146 55.8462 76.146C56.2401 76.1438 56.0985 75.5902 56.5007 75.1239C56.64 74.9612 56.8833 74.8204 57.0972 74.8972C57.2404 74.9454 57.394 74.8814 57.458 74.7466C57.7887 74.0355 58.667 71.2863 59.3569 71.1658C59.436 71.1515 59.5196 71.1447 59.6032 71.1364C60.3459 71.0656 60.5274 70.8803 60.7278 70.3915C60.7549 70.3237 60.8129 70.1836 60.8422 70.1693C60.8543 70.1693 60.8679 70.17 60.8844 70.1708C61.8583 70.2122 61.2294 69.3219 62.0248 68.8248C62.2455 68.6877 62.6055 68.5747 62.7991 68.2629C62.9437 68.0316 62.9482 67.7703 62.9904 67.5842C63.1486 66.8551 64.0268 66.3105 64.0939 65.3668C64.1127 65.0888 64.0615 64.8049 64.1594 64.6889C64.1903 64.652 64.2483 64.6173 64.3161 64.5774C64.8591 64.2595 64.8162 64.0562 65.2335 62.2786C65.7268 62.4488 66.6887 62.7072 67.3312 62.7072C67.9699 62.7072 68.3895 62.5279 68.7036 62.2078C68.6749 62.5633 68.5966 63.2065 68.3917 63.5417C68.2102 63.8392 67.8645 64.7182 67.6882 65.528C66.1117 68.8933 65.9385 71.986 69.4153 73.3004C70.7591 73.8066 72.6655 73.7968 73.961 73.2688C74.788 72.9328 76.0075 72.0689 76.5061 71.3202C76.9678 70.6265 76.4105 71.1771 78.2084 70.0729C79.2493 69.4334 79.3917 69.0982 79.6613 68.2471C79.931 67.3952 81.1068 67.3138 82.4761 66.0115C83.0523 65.4632 82.9875 64.7484 83.2241 64.1179C83.4342 63.559 83.7197 63.0582 83.9012 62.7448C87.2289 61.0953 87.723 61.7702 88.0153 61.4493C88.2119 61.2331 87.9957 60.9281 87.7901 60.9635C84.9685 61.0787 83.2497 62.7162 80.9283 63.3964C75.0072 65.128 72.859 59.262 68.1499 59.2378C66.8296 59.1023 65.2983 61.038 66.0748 61.2535C66.2338 61.2949 66.3897 61.2015 66.4319 61.0501C66.5848 60.4904 67.3719 59.8141 68.1289 59.8141C68.5416 59.8171 68.9348 59.8698 69.3137 59.9617C68.4091 61.0094 68.9717 62.6567 66.1848 61.9487C64.5277 61.5276 64.0434 61.1457 63.5553 59.503C62.9452 57.4475 62.4918 54.5355 63.6653 52.0793C64.1451 53.53 63.8054 55.068 64.9473 55.7098C65.3284 55.9237 65.7442 55.9282 66.1027 56.0615C66.8943 56.353 67.7123 57.5755 70.1181 55.9034C70.7146 55.4883 72.7114 53.9465 73.2296 53.2935C74.2841 51.9625 74.1192 49.7631 72.8628 48.39C71.3586 46.7465 69.0425 46.5386 67.2009 46.916C69.0267 45.9368 70.8879 44.9139 71.4769 43.2697C71.8761 42.1534 71.4008 41.1501 71.1003 41.0914C70.9429 41.0612 70.7915 41.1629 70.7606 41.3226C70.7244 41.5086 70.8374 41.5207 70.9504 41.8257C70.4028 41.7369 69.4123 42.0231 69.2127 42.8577C68.9627 43.9046 69.9509 44.0184 70.6054 43.711C69.9449 44.6985 68.6832 45.4532 67.3749 46.1635C67.3673 45.7816 67.5225 45.4043 67.6845 45.0081C67.8464 44.6126 67.9586 44.3234 68.0317 43.9212C68.1756 43.1258 67.5782 43.1748 67.6588 42.7718C67.7033 42.5488 67.9232 42.2799 68.1944 42.1165C68.6651 41.8348 68.6832 41.5523 68.4979 41.0688C68.339 40.6545 68.5213 40.424 68.9318 40.0286C69.1826 39.7868 69.0869 39.8448 69.5449 39.5405C70.0752 39.1872 70.2198 39.1179 70.3802 38.4205C70.4043 38.315 70.4277 38.2201 70.4578 38.1357C70.631 37.6499 71.1997 37.3351 71.7036 37.4518C71.9921 37.5106 72.1736 37.1679 71.974 36.9652C71.7443 36.731 72.0689 36.2293 72.429 36.1661C72.7596 36.1149 73.6755 36.4892 74.2178 36.7754C74.3625 36.853 74.544 36.795 74.6163 36.6421C74.8182 36.2128 74.7496 35.7473 74.6886 35.3308C74.6381 34.9843 74.6095 34.7342 74.7105 34.674C75.0697 34.4585 76.0165 34.8005 76.4715 34.9647C76.6078 35.0137 76.7133 35.0732 76.8534 35.0009C77.1358 34.851 76.9656 34.3109 77.0289 34.2401C77.1132 34.2552 77.3738 34.4337 77.4883 34.5128C78.6889 35.3436 78.7183 35.0408 78.9782 34.3599C79.2832 33.575 79.3721 33.7098 79.6485 33.9426C80.1946 34.4005 80.4131 34.3305 81.2039 34.0789C81.7975 33.8891 82.0325 33.8251 83.1465 33.9599C87.5053 34.4872 87.0655 34.4939 88.8159 34.4156C89.2611 34.3968 89.8102 34.3727 89.994 34.4126C89.9269 34.6529 89.6648 35.0656 89.9299 35.2667C90.003 35.3202 90.0994 35.339 90.186 35.3127C91.7467 34.8502 93.3993 34.7907 93.5514 34.9579C93.681 35.1025 92.9579 36.0501 92.7801 36.5095C92.7018 36.7076 92.8607 36.9374 93.104 36.9005C94.6149 36.615 95.7772 36.5999 96.0385 36.6843C95.982 36.7702 95.8246 36.9313 95.7515 37.0059C94.3257 38.4619 96.147 38.4762 96.2283 38.7556C96.2396 38.7963 96.214 38.9266 96.0453 39.1556C95.921 39.3228 96.0091 39.5676 96.2178 39.6113C96.6034 39.6934 97.1804 39.5879 97.2813 39.7461C97.3303 39.9389 96.6795 40.6929 97.1028 41.2269C97.4885 41.7135 99.9831 42.6452 100.461 43.2275C100.785 43.6229 100.791 44.2488 100.476 44.6511C100.368 44.7866 100.405 44.9847 100.547 45.0744C101.565 45.7327 102.856 44.4198 103.027 45.0186C103.126 45.3651 103.132 45.7251 103.3 46.1138C103.614 46.8346 104.312 47.1969 104.762 47.7046C105.088 48.0722 105.262 48.8412 104.829 49.0355C104.606 49.135 104.597 49.4528 104.82 49.5613C106.43 50.3476 106.559 50.3996 106.63 50.4448C106.57 50.4764 106.547 50.484 106.481 50.5209C105.846 50.8561 105.72 51.7494 106.068 52.3828C106.364 52.9229 107.252 53.0908 107.275 53.35C107.301 53.6475 106.469 54.0828 107.212 54.9671C108.238 56.1866 107.838 56.164 107.61 56.8065C107.386 57.4512 107.695 58.1193 107.889 58.6503C108.267 59.6868 108.673 62.384 108.451 63.4197C108.306 64.0991 107.564 63.5869 106.18 66.7414C106.126 66.8634 106.01 66.9463 105.879 66.9583C105.377 67.002 104.154 68.6794 103.822 68.8542C102.274 69.6721 102.007 70.445 100.979 70.8931C100.469 71.1161 98.8006 71.11 97.3905 71.3089C94.337 71.7345 92.9767 73.7779 92.6784 73.7034C92.6355 73.6936 92.5368 73.6047 92.4261 73.3245C92.0796 72.4395 92.0397 72.3378 91.8454 72.3137C91.4816 71.7292 91.3528 69.81 91.5034 69.1148C91.5584 68.8617 91.2759 68.6681 91.0605 68.8112L90.7705 69.0018C90.5581 67.9187 90.714 66.7451 91.221 65.7743C91.7685 64.7258 91.6879 64.6987 91.5268 63.7135C91.34 62.497 92.1805 60.2509 92.6061 59.0744C93.5085 56.5843 93.7435 55.8672 94.0689 52.3949C94.1532 51.491 94.2805 50.322 94.4364 49.4287C94.502 49.0498 93.9325 48.9504 93.8647 49.3285C93.684 50.3672 93.5868 51.3562 93.4927 52.3128C93.1597 55.7203 92.9466 56.4223 92.06 58.8786C91.7761 59.6657 91.4612 60.5273 91.2466 61.3476C90.9709 62.3991 90.8089 63.0747 91.004 64.0735C91.1163 64.6392 91.1035 64.7559 90.7909 65.3457C90.0776 66.6909 89.9412 68.0701 90.2546 69.3535C90.3209 69.6224 90.6206 69.7565 90.8669 69.63C90.8383 70.3576 90.937 72.5622 91.6066 72.8477C91.8612 73.4051 91.9998 74.1387 92.5443 74.2683C92.9624 74.3617 93.2524 74.0498 93.5356 73.8148C94.8032 72.7664 95.8856 72.1713 97.1525 71.9356C96.9725 72.5088 96.6983 73.1844 97.0169 73.451C97.74 74.0596 96.9062 75.4343 96.8882 75.6354C96.8467 76.1272 97.2173 76.6869 97.6632 76.8081C97.856 76.8601 98.1106 77.0145 98.0865 77.1689C98.0571 77.358 97.2399 78.2136 98.7682 79.2094C99.0921 79.4173 99.4039 79.644 99.5252 79.8933C98.9218 80.0974 98.7192 80.9508 99.5914 81.5466C99.6984 81.6197 99.8686 81.7176 99.9153 81.8117C100.036 82.0437 99.5877 82.5446 99.6088 83.0591C99.6344 83.7611 100.392 84.0902 100.547 84.5308C100.717 85.0137 100.312 85.5545 100.864 86.2384C101.065 86.4824 100.99 86.4365 100.928 86.8267C100.764 87.8909 101.977 88.8151 101.633 89.4848C101.459 89.8267 101.974 90.0911 102.15 89.7506C102.72 88.6374 101.296 87.79 101.528 86.792C101.627 86.3679 101.572 86.1879 101.316 85.8708C101.13 85.6441 101.127 85.5545 101.154 85.1236C101.204 84.381 101.099 84.1527 100.573 83.6187C100.11 83.1502 100.112 83.0606 100.336 82.5567C100.623 81.9119 100.622 81.5308 99.9839 81.1097C99.7165 80.9327 99.5892 80.7678 99.5862 80.6104C99.5862 80.5584 99.6299 80.4891 99.6833 80.4567C99.712 80.4401 99.7263 80.4416 99.7263 80.4416C99.9025 80.5396 100.132 80.4296 100.155 80.2187C100.235 79.464 99.4883 78.9811 99.086 78.722C98.9512 78.6347 98.2884 78.1767 98.4398 77.7707C98.4895 77.6434 98.6266 77.4868 98.662 77.2593C98.7441 76.7433 98.2824 76.3735 97.8184 76.2477C97.6481 76.201 97.4689 75.9254 97.4674 75.7137C97.8892 74.7993 98.1852 73.738 97.447 73.0541C97.4553 72.8424 97.6911 72.1879 97.7905 71.8422C98.3795 71.7706 98.903 71.736 99.3738 71.7051C99.367 71.6094 99.3572 71.6019 99.3979 71.7028C100.17 71.6531 100.781 71.6132 101.213 71.4249C102.383 70.9142 102.601 70.1572 104.096 69.3679C104.439 69.1856 105.7 67.6641 105.946 67.5345C106.284 67.5006 106.578 67.2875 106.715 66.9749C107.158 65.9656 107.722 64.8568 108.538 64.2754C108.787 64.0991 108.958 63.8385 109.022 63.541C109.27 62.384 108.833 59.5519 108.439 58.4545L108.436 58.4553ZM71.3481 60.8377C72.1631 61.3212 72.9494 61.9103 73.79 62.4759C72.4237 64.2791 71.4814 66.3972 71.0604 68.6161C70.9911 68.9958 71.5582 69.0997 71.6313 68.7246C72.0388 66.5787 72.9517 64.533 74.2774 62.7953C75.8591 63.8008 77.3919 64.42 79.2945 64.2859C78.0969 66.0108 77.3738 68.9732 76.0256 70.9993C75.5932 71.6486 74.4755 72.4334 73.7441 72.7317C72.5962 73.2002 70.8231 73.213 69.6217 72.7573C67.2619 71.8655 66.6857 70.1565 67.6927 67.0404C68.1221 65.7147 69.9305 62.2613 71.3481 60.8377ZM69.6217 38.7805C69.505 38.895 68.8738 39.2648 68.7088 39.4365C68.6275 39.5209 68.6056 39.539 68.5311 39.612C68.1838 39.9517 67.6506 40.4556 67.9556 41.2729L67.9729 41.3196C67.9948 41.3753 68.04 41.4921 68.0302 41.5237C68.0174 41.5471 67.9315 41.5983 67.8795 41.6292C67.2612 42.0005 66.8107 42.7861 67.2423 43.3683C67.4412 43.641 67.515 43.5303 67.4615 43.8188C67.2853 44.7716 66.6488 45.4909 66.8213 46.4633C65.0286 47.4229 62.7313 48.6017 63.1335 50.6926C63.2028 51.0526 63.2789 51.2605 63.3565 51.4202C61.841 54.1273 62.3261 57.3992 63.0002 59.6687C63.3203 60.7488 63.6894 61.5487 64.6912 62.0526C64.3824 63.37 64.2987 63.8558 64.1647 63.9808C64.0645 64.0742 63.8762 64.1255 63.718 64.313C63.4461 64.6324 63.5372 65.0497 63.5162 65.3253C63.4717 65.9362 62.8119 66.4574 62.5249 67.1376C62.0715 67.4607 61.2219 67.3417 61.1571 67.1278C60.9402 66.3934 60.2773 66.3136 59.9911 65.8353C59.8488 65.5912 59.6341 65.8014 59.3674 65.5611C58.8101 65.0692 59.1927 64.2829 59.5309 63.66C59.662 63.4212 59.4285 63.1546 59.1769 63.2563C59.1385 63.199 59.0797 63.0612 59.0865 62.9316C59.1279 62.1219 59.268 61.3167 59.5038 60.5417C59.5776 60.2991 59.3207 60.0799 59.0918 60.1997C58.9336 60.1432 59.0277 59.8389 59.0759 59.6792C59.5979 57.9468 59.6484 57.9521 59.5015 57.7879C59.433 57.7126 59.3313 57.6779 59.2304 57.6983C59.2176 57.6983 59.198 57.7028 59.1633 57.6644C58.9441 57.4166 59.1678 57.1168 59.3629 56.8494C59.8442 56.1903 59.8713 55.813 59.8179 54.8925C59.7606 53.9141 59.845 53.7499 60.1704 53.2325C61.1096 51.7351 60.0747 52.0996 61.5119 49.2276C62.3374 47.572 63.3241 47.4508 64.2114 45.6754C64.7439 44.6044 64.646 42.5827 65.3276 41.776C66.0643 40.9068 67.1783 40.7833 67.7824 39.365C68.2238 38.3316 68.4045 38.5387 69.7957 38.3828C69.7566 38.544 69.7114 38.6909 69.6217 38.7805Z" fill="black"/>
<path id="vector_44" d="M65.3924 64.4275C65.2358 64.5359 65.2666 64.6489 65.1928 65.4165C64.9081 65.4707 64.7816 65.7562 64.6859 68.6523C64.4675 68.7449 64.3086 68.9859 64.2656 69.1825C64.0909 69.9794 64.054 70.7937 64.1564 71.6026C64.1835 71.8135 64.3093 72.032 64.469 72.151C64.4396 72.6812 65.0196 73.1889 66.2541 74.2675C66.4153 74.4083 66.639 74.4784 66.8461 74.4596C67.1602 75.2256 67.8607 75.4681 69.0229 76.1739C70.4239 77.0213 72.1661 77.0657 73.8021 77.0604C74.5026 77.0582 74.7097 76.6778 74.834 76.4488C74.9206 76.2869 74.9199 76.2861 75.1406 76.3705C76.1627 76.7539 77.3339 76.442 78.6972 76.2063C80.2127 75.9442 81.5436 75.6481 82.4987 74.675C83.8929 73.2537 84.2914 73.1377 84.4827 73.0819C84.8631 72.972 84.9286 72.8628 85.6728 71.455C86.2671 70.3297 87.7562 69.5772 87.7675 68.1386C87.7712 67.759 87.1898 67.7507 87.1875 68.1341C87.1777 69.2684 85.7782 70.0164 85.1591 71.1838C84.4744 72.4816 84.445 72.4892 84.3223 72.5253C84.0473 72.6036 83.5871 72.737 82.0845 74.2683C81.0895 75.2828 79.5092 75.4644 78.0397 75.734C76.885 75.9419 76.0504 76.0918 75.3447 75.8267C74.7338 75.5969 74.4935 75.8575 74.3233 76.1739C74.2231 76.3592 74.1569 76.482 73.8028 76.482C70.4842 76.4857 70.0172 76.0699 68.6109 75.2602C67.7432 74.7624 67.4502 74.5944 67.3049 73.9888C67.2469 73.7455 66.9305 73.6913 66.7874 73.8826C66.7399 73.8901 66.6759 73.8645 66.636 73.8306C65.3653 72.7196 64.9345 72.3227 65.0987 72.0613C65.2418 71.8331 65.0188 71.5529 64.771 71.6297C64.7537 71.5989 64.7371 71.562 64.7334 71.5296C64.6377 70.7869 64.6709 70.0389 64.832 69.3083C64.8366 69.288 64.8479 69.2646 64.8622 69.2443C65.0452 69.3128 65.2471 69.1818 65.2546 68.9844C65.2787 68.3118 65.3194 66.9877 65.406 66.2774C65.5468 66.297 65.7013 66.1847 65.7178 66.016L65.8188 64.9653C66.0507 64.9299 66.2782 64.8071 66.2488 64.5736L66.0989 63.3873C66.0794 63.2291 65.934 63.1229 65.7743 63.135C65.6146 63.1561 65.5024 63.3022 65.5227 63.4604L65.6372 64.3891C65.5551 64.3635 65.4632 64.3778 65.3917 64.4267L65.3924 64.4275Z" fill="black"/>
<path id="vector_45" d="M73.2586 79.2052L70.6668 78.803C70.4243 78.1281 70.0025 77.8607 69.6899 77.7545C68.3605 77.3093 67.019 78.8451 68.1955 80.3192C67.6133 80.5602 67.2419 80.9639 67.1493 81.458C66.8811 82.8959 68.9804 84.0446 70.0989 82.5171L72.2802 82.9004C73.8047 85.6286 76.4854 83.5354 75.2358 81.629C77.8992 80.1896 75.1643 76.7527 73.2586 79.2052ZM74.9375 81.1319C74.6513 81.2825 74.5511 81.6531 74.7394 81.9318C75.5793 83.1806 73.9214 84.6637 72.7833 82.6105C72.7005 82.4621 72.5589 82.3604 72.3947 82.3318C70.2563 81.9619 70.1629 81.9348 70.0846 81.9348C69.5422 81.9348 69.5927 82.5833 68.8764 82.6572C68.2904 82.7212 67.5982 82.2067 67.7187 81.565C67.7752 81.2592 68.026 81.0106 68.4441 80.8442C68.7988 80.7033 68.8975 80.2619 68.6663 79.9817C67.5251 78.5853 69.5754 77.4434 70.126 79.0161C70.1923 79.2044 70.3595 79.3415 70.5621 79.3739L73.1848 79.7814C73.3889 79.8153 73.5855 79.7309 73.7105 79.5682C75.0422 77.8441 76.8243 80.1354 74.9375 81.1319Z" fill="black"/>
<path id="vector_46" d="M89.33 38.1306C89.3255 38.2209 89.1854 38.4107 89.0039 38.5305C88.7824 38.6759 88.8555 39.0239 89.1251 39.0615C89.9665 39.1723 91.0473 39.4502 91.1505 39.579C91.1709 39.6076 91.1746 39.6385 91.1611 39.6716C91.1114 39.7944 90.8726 39.9119 90.5532 39.9699C90.3069 40.0136 90.2316 40.3299 90.4244 40.4828C90.8425 40.8158 91.3675 40.8595 91.8834 40.9242C93.4192 41.1163 92.9228 41.9674 92.7255 41.9328C92.608 41.9215 92.4882 41.9885 92.4363 42.0993C92.2547 42.4887 93.0366 42.8065 93.4335 42.9692C94.3359 43.3368 94.3555 43.5243 94.1649 44.1857C94.0368 44.6195 93.9736 45.0616 94.2432 45.4398C93.8787 45.6921 93.4591 45.8616 93.0253 45.9301C92.6811 45.9828 92.7112 46.5063 93.0712 46.5063C93.423 46.5063 94.2899 46.2043 94.9061 45.6559C95.077 45.5023 95.0123 45.2243 94.7953 45.1618C94.6485 45.1174 94.6033 44.8297 94.6552 44.5977C94.7283 44.2693 94.9211 43.8452 94.8059 43.4159C94.6138 42.692 93.826 42.5384 93.2791 42.2687C93.5834 41.932 93.615 41.3905 93.38 41.0402C92.9251 40.3638 91.97 40.3819 91.3833 40.2689C91.7847 39.988 91.845 39.5511 91.6235 39.2431C91.4074 38.9388 90.5163 38.7158 89.7616 38.578C90.0019 38.2014 89.9288 37.8699 89.69 37.6801C89.4309 37.473 89.3262 37.5174 87.8808 37.6583C88.2891 37.0761 88.094 36.7356 87.7535 36.6761C87.288 36.5978 86.2079 37.0738 85.7613 37.2877C85.8758 36.9066 85.9624 36.5782 85.7989 36.3364C85.7432 36.255 85.6355 36.1534 85.4411 36.136C84.9101 36.0893 83.6907 36.6445 83.1747 37.4707C82.9729 37.7954 83.467 38.1027 83.6673 37.7773C84.0379 37.183 84.9071 36.7589 85.3056 36.7175C85.2656 37.0188 85.06 37.476 85.0397 37.8187C85.0239 38.0439 85.2694 38.2066 85.4728 38.0884C86.0874 37.7359 86.9822 37.3683 87.4372 37.2704C87.0899 37.7924 86.7781 37.8421 86.9077 38.1343C86.9589 38.2496 87.0696 38.3249 87.2014 38.3053C88.732 38.1622 89.2728 38.0906 89.3285 38.1313L89.33 38.1306Z" fill="black"/>
<path id="vector_47" d="M82.0309 40.985C82.3374 40.7546 81.9894 40.2898 81.6829 40.5211C80.7933 41.1877 80.254 42.1382 80.1938 42.2474C80.0122 42.5856 80.5282 42.8568 80.7045 42.5231C80.7097 42.5133 81.2091 41.6012 82.0309 40.985Z" fill="black"/>
<path id="vector_48" d="M97.0348 57.3882C97.0822 57.0056 96.506 56.9341 96.4586 57.3137C96.311 58.5143 95.6971 61.7516 96.7252 62.1697C97.0197 62.2887 97.3459 62.184 97.7443 61.8345C97.3549 63.3198 97.3414 64.2041 97.7029 64.4647C98.1066 64.7539 98.5864 64.2764 98.9623 63.939C99.0165 64.1529 99.1355 64.305 99.3065 64.3751C99.7923 64.5702 100.394 64.061 101.162 62.8174C101.248 62.9997 101.482 63.0464 101.625 62.9108C101.994 62.5636 102.299 62.1388 102.508 61.6786C103.222 61.8729 104.364 60.5834 103.973 59.1229C103.876 58.7523 103.315 58.9015 103.413 59.272C103.677 60.2587 103.029 61.0172 102.707 61.1099C102.689 61.1152 102.673 61.1197 102.673 61.1197C102.621 60.957 102.502 60.8975 102.393 60.8967C102.008 60.896 102.189 61.3697 101.507 62.1907L101.452 62.074C101.348 61.8541 101.046 61.8586 100.937 62.0559C100.06 63.6038 99.6108 63.8071 99.5362 63.8335C99.5136 63.777 99.482 63.606 99.5626 63.298C99.5965 63.1692 99.5392 63.0343 99.4232 62.9711C99.1152 62.7993 99.0971 63.1187 98.1383 63.8742C98.0916 63.9118 98.0554 63.9344 98.0283 63.9495C97.9296 63.5962 98.2098 62.0469 98.6843 60.7197C98.7966 60.4086 98.3755 60.1804 98.1774 60.4501C97.2592 61.6996 96.9437 61.6319 96.9437 61.6319C96.4382 61.427 96.9632 57.9027 97.034 57.3875L97.0348 57.3882Z" fill="black"/>
<path id="vector_49" d="M87.8126 77.8457C87.726 77.9918 87.4616 78.0325 87.2447 77.9323C86.8289 77.7395 86.737 77.1783 86.9991 76.4319C87.1581 75.9694 87.4398 75.4354 87.4842 74.8449C87.5106 74.4615 86.9336 74.4253 86.905 74.8034C86.8696 75.2832 86.624 75.745 86.45 76.2398C85.8866 77.8555 86.8086 78.6878 87.6544 78.5575C87.4239 79.853 87.2997 81.4106 87.9489 81.7315C88.1523 81.8332 88.379 81.8023 88.6231 81.6396C88.657 82.2716 88.718 83.1046 89.316 83.4134C89.652 83.5867 90.0753 83.5513 90.6063 83.299C90.601 83.9437 90.7313 84.5184 90.9844 84.9673C91.172 85.2972 91.6796 85.0163 91.4891 84.6819C91.2284 84.2209 91.132 83.5596 91.2179 82.8199C91.245 82.5819 90.9852 82.4109 90.7743 82.5412C90.2289 82.8877 89.8071 83.0157 89.5827 82.8982C89.2641 82.734 89.2234 81.9982 89.1993 81.5538C89.1805 81.193 89.1925 80.7938 88.8972 80.744C88.7971 80.726 88.6924 80.7636 88.6261 80.8427C88.3338 81.19 88.2058 81.2118 88.2058 81.2118C88.0619 81.1365 87.8932 80.094 88.3474 78.0566C88.4182 77.7342 87.9806 77.5617 87.8141 77.8464L87.8126 77.8457Z" fill="black"/>
<path id="vector_50" d="M86.0451 43.861C85.7626 43.4716 85.1472 43.62 85.0719 44.0938C85.0199 44.4191 85.27 44.7204 85.6074 44.7204C86.0481 44.7204 86.3034 44.2188 86.0451 43.861Z" fill="white"/>
<path id="vector_51" d="M70.2556 42.3147C69.8714 42.2507 69.6266 42.6868 69.8436 42.9858C69.9257 43.098 70.0537 43.1613 70.1878 43.1613C70.7098 43.1613 70.7708 42.3968 70.2556 42.3147Z" fill="white"/>
<path id="vector_52" d="M70.1477 51.629C70.0882 51.5454 70.0287 51.3353 69.7884 51.3353C69.7124 51.3413 69.625 51.3586 69.5602 51.4558C69.4533 51.617 69.5602 51.806 69.6732 51.9635C69.9368 52.3355 69.5542 53.4752 68.7151 53.0014C68.1992 52.7091 67.977 51.3842 68.1344 50.7508C68.3958 49.7023 69.7463 49.6119 69.7515 50.1218C69.7515 50.283 69.8871 50.4103 70.0408 50.4103C70.4249 50.4096 70.4535 49.804 69.9715 49.4281C69.3892 48.9702 67.8941 49.3114 67.571 50.6092C67.3638 51.4407 67.6395 53.0586 68.4296 53.506C68.6571 53.6341 68.8853 53.6989 69.1083 53.6989C70.1274 53.6989 70.6403 52.3242 70.1477 51.629Z" fill="white"/>
<path id="vector_53" d="M63.9353 49.499C63.5534 49.554 63.6422 50.1317 64.0173 50.0729C64.3849 50.0262 64.983 50.1837 65.1773 50.8352C65.343 51.3941 65.1999 52.5827 64.7547 52.8606C64.51 53.0173 64.6192 53.3969 64.9099 53.3969C65.407 53.3969 66.1038 51.9243 65.7332 50.6702C65.468 49.7799 64.6094 49.4048 63.9353 49.499Z" fill="white"/>
</g>
</g>
</g>
</svg>
