<svg width="151" height="151" viewBox="0 0 151 151" fill="none" xmlns="http://www.w3.org/2000/svg">
<g id="Downloading--Streamline-London">
<path id="Vector" d="M71.811 146.747H9.33996L9.24731 146.728C10.538 140.324 12.5569 134.088 15.2648 128.143L15.2881 128.016C20.0507 128.88 28.5884 125.237 38.6996 121.66C49.7071 117.77 51.8334 116.79 51.8334 116.79C52.2486 116.376 52.5389 115.854 52.671 115.283L52.8969 115.313H59.1969C59.1969 115.313 60.6626 117.539 62.6383 121.243C65.737 127.052 70.0951 136.5 72.0264 146.702L71.811 146.747Z" fill="black"/>
<path id="Vector_2" d="M141.148 72.4077V75.7573H118.919V72.4077H125.642H141.148Z" fill="black"/>
<path id="Vector_3" d="M98.4526 31.4504L105.299 39.7479H98.4526V31.4504Z" fill="black"/>
<path id="Vector_4" d="M135.744 31.7915V34.1528H132.728V31.7915H135.567H135.744Z" fill="#81F8F8"/>
<path id="Vector_5" d="M135.744 29.2107V31.792H135.567H132.728V29.2107H135.567H135.744Z" fill="#81F8F8"/>
<path id="Vector_6" d="M135.744 26.6326V29.2101H135.567H132.728V26.6326H135.567H135.744Z" fill="#81F8F8"/>
<path id="Vector_7" d="M135.744 24.0515V26.6328H135.567H132.728V24.0515H135.567H135.744Z" fill="#81F8F8"/>
<path id="Vector_8" d="M135.744 21.4741V24.0516H135.567H132.728V21.4741H135.567H135.744Z" fill="#81F8F8"/>
<path id="Vector_9" d="M135.744 18.8931V21.4743H135.567H132.728V18.8931H134.023H135.567H135.744Z" fill="#81F8F8"/>
<path id="Vector_10" d="M135.744 16.312V18.8925H135.567H134.023H132.728V16.312H135.567H135.744Z" fill="#81F8F8"/>
<path id="Vector_11" d="M135.744 13.7341V16.3124H135.567H132.728V13.7341H135.567H135.744Z" fill="#81F8F8"/>
<path id="Vector_12" d="M135.744 11.1536V13.7341H135.567H132.728V11.1536H135.567H135.744Z" fill="#81F8F8"/>
<path id="Vector_13" d="M135.744 8.57861V11.1539H135.567H132.728V8.57861H135.567H135.744Z" fill="#81F8F8"/>
<path id="Vector_14" d="M135.744 5.99707V8.57834H135.567H132.728V5.99707H135.567H135.744Z" fill="#81F8F8"/>
<path id="Vector_15" d="M135.744 3.63892V5.99724H135.567H132.728V3.63892H135.744Z" fill="#81F8F8"/>
<path id="Vector_16" d="M110.543 16.312H113.388V18.8925H110.543V16.312Z" fill="#81F8F8"/>
<path id="Vector_17" d="M110.543 13.7341H113.388V16.3124H110.543V13.7341Z" fill="#81F8F8"/>
<path id="Vector_18" d="M110.543 11.1536H113.388V13.7341H110.543V11.1536Z" fill="#81F8F8"/>
<path id="Vector_19" d="M110.543 8.57861H113.388V11.1569H110.543V8.57861Z" fill="#81F8F8"/>
<path id="Vector_20" d="M110.543 5.99707H113.388V8.57759H110.543V5.99707Z" fill="#81F8F8"/>
<path id="Vector_21" d="M110.543 3.63892H113.388V5.99799H110.543V3.63892Z" fill="#81F8F8"/>
<path id="Vector_22" d="M110.543 31.7915H113.388V34.1528H110.543V31.7915Z" fill="#81F8F8"/>
<path id="Vector_23" d="M110.543 29.2107H113.388V31.7912H110.543V29.2107Z" fill="#81F8F8"/>
<path id="Vector_24" d="M110.543 26.6326H113.388V29.2108H110.543V26.6326Z" fill="#81F8F8"/>
<path id="Vector_25" d="M110.543 24.0515H113.388V26.632H110.543V24.0515Z" fill="#81F8F8"/>
<path id="Vector_26" d="M110.543 21.4741H113.388V24.0524H110.543V21.4741Z" fill="#81F8F8"/>
<path id="Vector_27" d="M110.543 18.8931H113.388V21.4736H110.543V18.8931Z" fill="#81F8F8"/>
<path id="Vector_28" d="M127.385 58.6637C127.385 58.9374 127.439 59.2085 127.543 59.4613C127.648 59.7142 127.802 59.9439 127.995 60.1375C128.189 60.331 128.418 60.4845 128.671 60.5892C128.924 60.694 129.195 60.7479 129.469 60.7479C129.743 60.7479 130.014 60.694 130.266 60.5892C130.519 60.4845 130.749 60.331 130.943 60.1375C131.136 59.9439 131.29 59.7142 131.394 59.4613C131.499 59.2085 131.553 58.9374 131.553 58.6637C131.553 58.39 131.499 58.119 131.394 57.8662C131.29 57.6133 131.136 57.3836 130.943 57.19C130.749 56.9965 130.519 56.843 130.266 56.7382C130.014 56.6335 129.743 56.5796 129.469 56.5796C129.195 56.5796 128.924 56.6335 128.671 56.7382C128.418 56.843 128.189 56.9965 127.995 57.19C127.802 57.3836 127.648 57.6133 127.543 57.8662C127.439 58.119 127.385 58.39 127.385 58.6637Z" fill="#FFD997"/>
<path id="Vector_29" d="M141.148 67.1867V72.4065H125.642C126.327 70.7807 127.107 69.1962 127.977 67.6613C129.353 65.2442 131.21 62.5763 133.191 61.4533C137.222 59.1627 141.148 67.1867 141.148 67.1867Z" fill="#81F8F8"/>
<path id="Vector_30" d="M127.977 67.6628C127.107 69.1979 126.327 70.7823 125.642 72.4081H118.919V66.7251C118.919 66.7251 120.779 63.2332 123.389 63.1541C125.999 63.075 127.977 67.6628 127.977 67.6628Z" fill="#81F8F8"/>
<path id="Vector_31" d="M98.4528 31.4276V31.451H80.6461V54.8918H73.7993V24.6042H98.4528V31.4276Z" fill="#81F8F8"/>
<path id="Vector_32" d="M132.728 16.3125V18.8931H113.387V16.3125V13.7343V11.1538V8.57851V5.99724V3.63892H132.728V5.99724V8.57851V11.1538V13.7343V16.3125Z" fill="white"/>
<path id="Vector_33" d="M132.728 31.7919V34.1532H113.387V31.7919V29.2106V26.6331V24.0518V21.4743V18.8931H132.728V21.4743V24.0518V26.6331V29.2106V31.7919Z" fill="white"/>
<path id="Vector_34" d="M104.686 88.1395C104.962 88.1397 105.233 88.2171 105.467 88.3629C105.702 88.5087 105.892 88.7171 106.014 88.9647C106.137 89.2123 106.188 89.4892 106.162 89.7643C106.136 90.0394 106.034 90.3018 105.867 90.5219L93.2216 107.079C91.505 107.435 88.853 108.276 88.0493 108.881C87.9083 108.983 87.7963 109.12 87.7244 109.279C87.6525 109.438 87.6231 109.612 87.6392 109.786C87.6552 109.959 87.7161 110.126 87.8159 110.268C87.9156 110.411 88.0508 110.526 88.2082 110.6L88.1999 110.618C87.1841 110.815 86.193 111.122 85.2443 111.535C85.0285 111.661 84.8638 111.858 84.7789 112.093C84.6941 112.328 84.6945 112.585 84.7802 112.82C84.8658 113.054 85.0312 113.251 85.2474 113.376C85.4636 113.501 85.7169 113.546 85.9629 113.503C85.9862 113.503 86.0103 113.503 86.0382 113.498C85.8216 113.543 85.6107 113.613 85.4093 113.704C85.1923 113.786 85.0127 113.944 84.9041 114.149C84.7956 114.354 84.7656 114.592 84.8198 114.817C84.874 115.042 85.0087 115.24 85.1985 115.373C85.3883 115.507 85.6202 115.566 85.8506 115.54C86.1813 115.558 86.7304 115.556 87.388 115.54C87.183 115.563 86.9811 115.608 86.7854 115.673C86.6048 115.726 86.4474 115.839 86.3382 115.992C86.229 116.146 86.1743 116.332 86.1828 116.52L86.0081 116.525L85.6541 116.993C85.5486 117.13 85.4129 117.241 85.2577 117.318C85.1024 117.394 84.9316 117.434 84.7585 117.434H67.3298C67.0532 117.435 66.7821 117.358 66.5469 117.212C66.3118 117.066 66.1221 116.858 65.9993 116.61C65.8764 116.362 65.8253 116.085 65.8518 115.81C65.8782 115.534 65.981 115.272 66.1488 115.052L72.6076 106.593L76.7232 101.208L78.1678 99.3134L85.7331 89.4109C86.035 89.0148 86.4242 88.6938 86.8705 88.4728C87.3168 88.2519 87.8081 88.137 88.3061 88.1372L104.686 88.1395ZM89.6423 104.16C91.0734 102.446 91.4621 100.415 90.5138 99.6245C89.5655 98.8344 87.6373 99.5823 86.2114 101.297C84.7856 103.011 84.3909 105.045 85.3369 105.835C86.283 106.624 88.2105 105.877 89.6423 104.16Z" fill="#81F8F8"/>
<path id="Vector_35" d="M103.841 70.2306L92.6887 84.0905L81.5388 70.2306H87.9261V61.7381V52.353H97.4535V53.6132V56.5688V61.7381V70.2306H103.841Z" fill="#FFD997"/>
<path id="Vector_36" d="M94.7355 109.277C96.7029 109.594 96.016 112.093 94.9231 112.259C94.6971 112.291 93.8686 112.415 92.796 112.574C90.519 112.906 87.1356 113.395 86.0396 113.495H86.0344C86.008 113.495 85.9839 113.495 85.959 113.501C85.713 113.544 85.4596 113.499 85.2433 113.374C85.0269 113.249 84.8615 113.052 84.7758 112.818C84.6902 112.583 84.6899 112.326 84.775 112.091C84.8601 111.856 85.0252 111.659 85.2412 111.533C86.1902 111.121 87.1812 110.814 88.1968 110.617L88.2044 110.598C88.4642 110.724 88.7603 110.753 89.0397 110.68C90.4663 110.35 94.0508 109.531 94.7355 109.277Z" fill="#FFD997"/>
<path id="Vector_37" d="M93.7751 106.974C95.4096 106.71 95.4201 109.023 94.7362 109.277C94.0523 109.531 90.4677 110.35 89.0411 110.683C88.7619 110.754 88.4666 110.725 88.2066 110.601C88.0491 110.526 87.9137 110.412 87.8138 110.269C87.7138 110.126 87.6529 109.96 87.6368 109.786C87.6208 109.613 87.6502 109.438 87.7223 109.279C87.7943 109.12 87.9065 108.983 88.0477 108.881C88.8513 108.278 91.5034 107.439 93.22 107.079C93.4181 107.037 93.6079 107 93.7751 106.974Z" fill="#FFD997"/>
<path id="Vector_38" d="M92.2133 115.358C92.0257 115.363 91.8224 115.376 91.6009 115.384C90.4123 115.437 88.7982 115.509 87.5335 115.535C87.5273 115.534 87.5209 115.534 87.5147 115.535C87.4866 115.533 87.4584 115.533 87.4303 115.535C87.4154 115.532 87.4001 115.532 87.3852 115.535C86.7299 115.546 86.18 115.551 85.8478 115.535C85.6181 115.559 85.3874 115.499 85.1986 115.366C85.0099 115.233 84.8761 115.035 84.822 114.811C84.768 114.586 84.7975 114.35 84.9051 114.145C85.0126 113.941 85.1908 113.782 85.4065 113.699C85.6081 113.608 85.819 113.539 86.0354 113.493H86.0407C87.1366 113.393 90.5231 112.904 92.7978 112.572C93.0972 112.558 93.3935 112.639 93.6445 112.802C93.8955 112.966 94.0884 113.205 94.196 113.485C94.3035 113.765 94.3202 114.071 94.2437 114.361C94.1671 114.651 94.0011 114.909 93.7694 115.1C93.5877 115.229 93.3717 115.302 93.1488 115.308C93.0087 115.317 92.6705 115.334 92.2133 115.358Z" fill="#FFD997"/>
<path id="Vector_39" d="M92.2133 115.358C93.7348 115.572 93.7537 116.765 92.9425 117.275C92.7721 117.386 92.572 117.441 92.3693 117.434C92.187 117.434 91.656 117.434 90.9645 117.426C89.2788 117.41 87.9795 117.452 87.0862 117.354C86.8592 117.35 86.6417 117.262 86.4745 117.109C86.3072 116.955 86.2018 116.746 86.1778 116.52C86.1695 116.332 86.2243 116.146 86.3335 115.992C86.4426 115.839 86.5999 115.726 86.7804 115.672C86.9757 115.605 87.1778 115.561 87.383 115.54C87.3977 115.537 87.4127 115.537 87.4274 115.54H87.5118H87.5306C88.7983 115.511 90.4124 115.44 91.598 115.389C91.8224 115.376 92.0258 115.363 92.2133 115.358Z" fill="#FFD997"/>
<path id="Vector_40" d="M70.0299 100.5C71.0467 101.791 72.6104 103.894 72.8823 104.887C72.9355 105.167 72.9233 105.455 72.8469 105.73C72.7705 106.004 72.6318 106.257 72.4417 106.469C71.702 107.316 70.8104 108.018 69.8129 108.537L69.8054 108.543C68.8372 109.28 67.6402 109.654 66.4242 109.597C65.6987 110.018 64.9241 110.348 64.1179 110.58C63.1696 110.881 61.6639 111.441 61.5374 110.408C61.4108 109.376 63.4686 109 63.4686 109L63.5974 108.831L61.2813 107.032C61.2813 107.032 60.5973 107.861 59.646 108.811C58.5471 109.901 57.0851 111.146 55.895 111.423C55.0027 111.634 54.0694 111.593 53.1985 111.307C52.9551 111.231 52.7204 111.13 52.498 111.006L50.5396 111.494C50.5133 111.225 50.4922 110.945 50.4711 110.649C50.3506 108.371 50.6834 106.093 51.4503 103.945C51.4503 103.945 55.8882 102.307 59.6603 100.567C63.4324 98.8261 64.3755 97.2307 66.84 96.94C68.0059 96.7724 69.1827 96.692 70.3605 96.6997C71.1187 96.7229 71.8741 96.8033 72.6202 96.94C74.7292 97.3015 77.8641 99.0927 77.8641 99.0927L78.1571 99.3186L76.7124 101.213L76.5301 101.073C75.4417 100.661 73.216 99.7548 73.216 99.7548C72.1321 99.9822 70.0299 100.5 70.0299 100.5Z" fill="#FFD997"/>
<path id="Vector_41" d="M63.1305 21.3913V23.0213C62.8616 23.169 62.5599 23.2467 62.253 23.2473C61.7684 23.2375 61.3069 23.0381 60.9676 22.6919C60.6283 22.3457 60.4382 21.8802 60.4382 21.3955C60.4382 20.9107 60.6283 20.4453 60.9676 20.0991C61.3069 19.7529 61.7684 19.5535 62.253 19.5437C62.5599 19.544 62.8617 19.6217 63.1305 19.7697V21.3913Z" fill="black"/>
<path id="Vector_42" d="M41.8138 56.2727C42.4571 56.9804 43.1462 57.6449 43.8768 58.2619C44.7694 58.9511 45.8548 59.4483 46.8144 59.1598C47.774 58.8713 49.6367 57.1924 49.6367 57.1924C49.4621 57.2906 49.2782 57.3711 49.0876 57.4327C49.0876 57.4327 47.3966 56.8414 46.7737 56.7088C46.2713 56.6011 43.3737 56.3842 42.2544 56.3073C41.9795 56.2863 41.813 56.2757 41.813 56.2757L41.8138 56.2727ZM41.2865 63.6166C41.7121 63.838 44.8922 65.4755 46.3482 66.1285H46.3745L46.3557 66.4087L54.8987 69.3357C54.8987 69.3357 51.351 75.1543 40.4603 75.247C34.0986 75.3685 27.8926 73.2751 22.9043 69.3252L32.9002 65.3098L33.0185 61.5271C33.0479 61.5271 33.9879 53.0535 31.674 53.7479C31.1186 53.9207 30.6281 54.2567 30.2662 54.712L30.1156 54.6299C28.7447 53.592 26.4098 50.7885 28.1979 47.9421C28.3274 47.7271 28.4887 47.5328 28.6762 47.3659C30.1209 46.1269 31.8984 48.4573 31.8984 48.4573C38.0063 50.8187 40.2833 42.4715 40.9589 39.7004C40.9589 39.7004 47.3703 41.2219 49.3429 42.5212C49.5335 42.6455 49.7195 42.7803 49.9033 42.9204C51.813 44.388 53.0914 46.5283 53.4781 48.9055L53.4095 49.0456C53.3126 49.2502 53.205 49.4495 53.0872 49.6429C53.5413 51.0505 53.5863 52.5583 53.2167 53.9905C52.8929 55.0429 52.4253 56.0457 51.827 56.9702C51.2569 57.8627 50.6912 58.5519 50.3274 59.202C49.532 60.6255 48.7893 62.4566 47.5721 63.5601C47.2472 63.8614 46.8716 64.1029 46.4626 64.2734C46.0762 64.4338 45.663 64.5199 45.2447 64.5272C44.102 64.5154 42.9712 64.2935 41.9087 63.8727C41.7001 63.7906 41.4914 63.7062 41.285 63.6166H41.2865Z" fill="#FFD997"/>
<path id="Vector_43" d="M54.4818 21.3913V23.1139C54.2669 23.1965 54.0387 23.2394 53.8084 23.2404C53.5354 23.2418 53.2654 23.1827 53.0179 23.0675C52.7703 22.9523 52.5513 22.7837 52.3765 22.574C52.2017 22.3642 52.0755 22.1184 52.0068 21.8541C51.9381 21.5899 51.9287 21.3137 51.9793 21.0454C52.0298 20.777 52.1391 20.5232 52.2992 20.3021C52.4594 20.0809 52.6664 19.8979 52.9056 19.7661C53.1447 19.6343 53.41 19.5571 53.6825 19.5398C53.955 19.5226 54.228 19.5658 54.4818 19.6664V21.3913Z" fill="black"/>
<path id="Vector_44" d="M40.9577 39.6789V39.7008C40.2798 42.4711 38.0051 50.8182 31.8972 48.4569C31.8972 48.4569 30.1196 46.1272 28.675 47.3663C28.6087 47.1968 27.6815 44.6547 29.3483 38.9476C29.9639 36.7958 31.3424 34.942 33.2259 33.733C35.4259 32.3723 37.9081 31.5329 40.4824 31.2791C40.7784 31.2399 41.0609 31.2105 41.3358 31.1842C45.3165 30.8143 51.7618 33.1418 53.8746 39.2805C56.3873 46.5761 53.4784 48.9036 53.4784 48.9036C53.0905 46.5269 51.8113 44.3874 49.9014 42.9208C48.2981 41.2184 46.3089 39.9267 44.1016 39.1547C41.0639 38.2584 40.9577 39.4997 40.9577 39.6789Z" fill="#81F8F8"/>
<path id="Vector_45" d="M53.1987 111.311L53.1588 111.428C53.1509 112.728 52.986 114.023 52.6677 115.284C52.5351 115.855 52.2448 116.377 51.8302 116.791C51.8302 116.791 50.9399 116.049 50.5361 111.497L52.4945 111.008C52.7185 111.133 52.9544 111.234 53.1987 111.311Z" fill="#81F8F8"/>
<path id="Vector_46" d="M53.2323 57.2372C53.7076 58.587 52.7751 60.3382 51.4095 60.3382C50.9243 60.348 50.4478 60.2089 50.0439 59.9398C50.5239 59.073 51.054 58.235 51.6317 57.43C51.8434 57.0534 52.168 56.6588 52.4957 56.1436C52.839 56.4317 53.0943 56.8107 53.2323 57.2372Z" fill="black"/>
<path id="Vector_47" d="M49.8985 42.9204C49.7162 42.7803 49.5287 42.6455 49.3389 42.5212C47.3685 41.2241 40.9548 39.7004 40.9548 39.7004V39.6793C40.9548 39.4993 41.0603 38.258 44.098 39.152C46.3058 39.9246 48.2953 41.2171 49.8985 42.9204Z" fill="black"/>
<path id="Vector_48" d="M49.0883 57.4271C48.3539 57.6332 47.5866 57.6951 46.8287 57.6094C45.2601 57.3441 43.7261 56.9045 42.2551 56.2988C43.3721 56.3741 46.2698 56.5926 46.7744 56.7003C47.3973 56.8381 49.0883 57.4271 49.0883 57.4271Z" fill="black"/>
<path id="Vector_49" d="M46.4622 64.2714L46.5014 64.3565L46.3748 66.1326H46.3485C44.8932 65.4803 41.7124 63.8428 41.2876 63.6206C41.4932 63.7133 41.7019 63.7954 41.9082 63.8714C42.9704 64.2941 44.1012 64.518 45.2442 64.532C45.663 64.5225 46.0762 64.4341 46.4622 64.2714Z" fill="black"/>
<path id="Vector_50" d="M40.4792 26.9421C42.1137 29.4804 40.648 31.1074 40.4792 31.2791C37.9049 31.533 35.4228 32.3724 33.2228 33.7331L33.2122 33.715C28.6402 36.0794 25.732 33.4589 25.732 33.4589C25.2048 29.1053 28.6161 26.8306 31.7254 25.584C34.8346 24.3375 38.4531 23.8019 40.4792 26.9421Z" fill="#81F8F8"/>
<path id="Vector_51" d="M32.0866 58.2432C31.5242 58.24 30.9811 58.0377 30.5536 57.6722C30.1262 57.3067 29.842 56.8015 29.7516 56.2464C29.6784 55.9125 29.6805 55.5665 29.7578 55.2334C29.8351 54.9004 29.9855 54.5888 30.1983 54.3212C30.4066 54.0587 30.6893 53.8652 31.0095 53.7661C31.2925 53.645 31.5978 53.5849 31.9056 53.5899C32.2134 53.5948 32.5167 53.6647 32.7956 53.7948C33.0746 53.925 33.3229 54.1126 33.5245 54.3453C33.726 54.5779 33.8761 54.8505 33.9651 55.1452C34.4404 56.495 33.5079 58.2462 32.1423 58.2462C32.1237 58.2468 32.105 58.2458 32.0866 58.2432Z" fill="black"/>
<path id="Vector_52" d="M33.2172 33.7148L33.2277 33.7329C31.985 34.5396 30.9494 35.6271 30.2043 36.9077L30.1539 36.8791C30.1539 36.8791 26.2612 37.8116 25.7302 33.4587C25.7325 33.4587 28.6407 36.0792 33.2172 33.7148Z" fill="black"/>
<path id="Vector_53" d="M51.4841 50.686C51.0543 50.4308 50.5857 50.2479 50.0967 50.1444C49.6416 49.9881 49.153 49.9561 48.6814 50.0518" stroke="black" stroke-width="0.376608" stroke-linecap="round" stroke-linejoin="round"/>
<path id="Vector_54" d="M40.9568 48.8475C41.5375 48.7801 42.122 48.7519 42.7065 48.7631C43.1871 48.7325 43.6672 48.8291 44.0985 49.0433" stroke="black" stroke-width="0.376608" stroke-linecap="round" stroke-linejoin="round"/>
<path id="Vector_55" d="M48.219 48.3247C47.6164 49.0508 47.746 49.9065 47.9177 50.9399C48.0894 51.9733 48.9112 53.1588 48.6235 54.0778C48.3357 54.9967 46.5551 55.1556 45.5752 54.7512" stroke="black" stroke-width="0.376608" stroke-linecap="round" stroke-linejoin="round"/>
<path id="Vector_56" d="M41.2374 63.5927C39.7714 62.9085 38.4119 62.0163 37.2009 60.9436" stroke="black" stroke-width="0.376608" stroke-linecap="round" stroke-linejoin="round"/>
<path id="Vector_57" d="M51.8266 56.9702C51.2564 57.8628 50.6915 58.552 50.3269 59.202C49.5315 60.6263 48.7889 62.4566 47.5717 63.5609C47.2466 63.8619 46.871 64.1034 46.4622 64.2742C46.0756 64.4339 45.6625 64.5198 45.2442 64.5272C44.1012 64.5141 42.9703 64.2904 41.9082 63.8674C41.7019 63.7921 41.4932 63.7085 41.2876 63.6166" stroke="black" stroke-width="0.376608" stroke-linecap="round" stroke-linejoin="round"/>
<path id="Vector_58" d="M53.407 49.0437C53.2322 49.4052 53.0846 49.6402 53.0846 49.6402C53.5384 51.0482 53.5833 52.5561 53.2141 53.9886C52.8895 55.0407 52.4219 56.0434 51.8245 56.9683" stroke="black" stroke-width="0.376608" stroke-linecap="round" stroke-linejoin="round"/>
<path id="Vector_59" d="M39.9141 46.8822C39.9141 46.8822 42.2543 45.7621 44.294 46.3805C45.8916 46.8664 45.9127 47.4418 45.9127 47.4712" stroke="black" stroke-width="0.376608" stroke-linecap="round" stroke-linejoin="round"/>
<path id="Vector_60" d="M53.0433 47.6379C52.571 47.5328 52.0852 47.5015 51.6032 47.5453C50.8868 47.5889 50.175 47.6897 49.4746 47.8466" stroke="black" stroke-width="0.376608" stroke-linecap="round" stroke-linejoin="round"/>
<path id="Vector_61" d="M41.6213 56.0569C41.6213 56.0569 41.6967 56.136 41.8164 56.2731C42.4599 56.9805 43.149 57.645 43.8795 58.2623C44.772 58.9515 45.8582 59.4486 46.817 59.1601C47.7759 58.8717 49.6438 57.1927 49.6438 57.1927C49.469 57.2909 49.2848 57.3714 49.094 57.433C48.3595 57.6387 47.5923 57.7006 46.8343 57.6153C45.2671 57.3486 43.7344 56.9082 42.2646 56.3024C41.9475 56.1804 41.726 56.0938 41.6522 56.0644" stroke="black" stroke-width="0.376608" stroke-linecap="round" stroke-linejoin="round"/>
<path id="Vector_62" d="M46.4994 64.3586L46.3728 66.131L46.354 66.4112L46.2297 68.1466" stroke="black" stroke-width="0.376608" stroke-linecap="round" stroke-linejoin="round"/>
<path id="Vector_63" d="M33.4694 57.3857L32.8993 65.3156L22.9033 69.3302C27.8925 73.2786 34.0979 75.372 40.4593 75.2528C51.35 75.1601 54.8977 69.3408 54.8977 69.3408L46.3547 66.4138L46.3148 66.4032" stroke="black" stroke-width="0.376608" stroke-linecap="round" stroke-linejoin="round"/>
<path id="Vector_64" d="M31.8969 48.4564C31.8969 48.4564 30.1193 46.1267 28.6747 47.3658C28.4869 47.5321 28.3256 47.7262 28.1964 47.9412C26.4082 50.7891 28.7432 53.5903 30.1141 54.6298" stroke="black" stroke-width="0.376608" stroke-linecap="round" stroke-linejoin="round"/>
<path id="Vector_65" d="M31.8971 48.4566C38.005 50.8179 40.282 42.4707 40.9576 39.7004C40.9576 39.7004 47.369 41.2219 49.3416 42.5212C49.5322 42.6455 49.7182 42.7803 49.902 42.9204C51.8121 44.3869 53.091 46.5265 53.4783 48.9032C53.4783 48.9032 56.3895 46.5758 53.8775 39.2801C51.764 33.1414 45.3187 30.814 41.338 31.183C41.0638 31.2094 40.7783 31.2388 40.4853 31.2779C37.911 31.5317 35.4288 32.3711 33.2288 33.7319C31.3453 34.9409 29.9668 36.7947 29.3513 38.9464C27.6844 44.6551 28.6116 47.1957 28.6779 47.3651V47.3727" stroke="black" stroke-width="0.376608" stroke-linecap="round" stroke-linejoin="round"/>
<path id="Vector_66" d="M40.4665 31.2946L40.4823 31.2788C40.6488 31.1071 42.1145 29.4832 40.4823 26.9418C38.4562 23.7956 34.84 24.3372 31.7284 25.5815C28.6169 26.8258 25.2011 29.1028 25.7344 33.4556C26.2676 37.8085 30.1587 36.879 30.1587 36.879" stroke="black" stroke-width="0.376608" stroke-linecap="round" stroke-linejoin="round"/>
<path id="Vector_67" d="M31.0038 53.7634C30.6845 53.8633 30.4023 54.0563 30.1934 54.3178C29.9804 54.5854 29.8299 54.8971 29.7526 55.2303C29.6753 55.5635 29.6733 55.9097 29.7467 56.2437C29.837 56.7989 30.1211 57.3041 30.5486 57.6697C30.9761 58.0352 31.5192 58.2375 32.0817 58.2405C32.1003 58.2417 32.1189 58.2417 32.1374 58.2405C33.503 58.2405 34.4355 56.4893 33.9595 55.1395C33.8707 54.8448 33.7206 54.5721 33.519 54.3394C33.3175 54.1067 33.069 53.9193 32.7899 53.7893C32.5109 53.6594 32.2075 53.5899 31.8997 53.5854C31.5919 53.581 31.2866 53.6416 31.0038 53.7634Z" stroke="black" stroke-width="0.376608" stroke-linecap="round" stroke-linejoin="round"/>
<path id="Vector_68" d="M50.0439 59.9392C50.4478 60.2083 50.9243 60.3474 51.4095 60.3376C52.7759 60.3376 53.7106 58.5864 53.2323 57.2367C53.0951 56.8106 52.8396 56.4324 52.4957 56.146" stroke="black" stroke-width="0.376608" stroke-linecap="round" stroke-linejoin="round"/>
<path id="Vector_69" d="M41.8184 56.2708C41.8184 56.2708 41.9848 56.2813 42.259 56.3024C43.3768 56.3777 46.2744 56.5954 46.7783 56.7038C47.402 56.8357 49.0922 57.4277 49.0922 57.4277" stroke="black" stroke-width="0.376608" stroke-linecap="round" stroke-linejoin="round"/>
<path id="Vector_70" d="M31.1228 49.3943C30.3967 48.9906 29.4002 48.7443 29.1472 50.3456C28.9385 51.6848 30.3644 53.3035 31.6719 53.7501" stroke="black" stroke-width="0.376608" stroke-linecap="round" stroke-linejoin="round"/>
<path id="Vector_71" d="M41.2371 63.5923C41.2371 63.5923 41.2559 63.6006 41.2845 63.6164C41.7101 63.8378 44.8902 65.4753 46.3461 66.1284" stroke="black" stroke-width="0.376608" stroke-linecap="round" stroke-linejoin="round"/>
<path id="Vector_72" d="M25.7314 33.4587C25.7314 33.4587 28.6396 36.0814 33.2124 33.7148" stroke="black" stroke-width="0.376608" stroke-linecap="round" stroke-linejoin="round"/>
<path id="Vector_73" d="M22.9051 69.3296C22.9051 69.3296 13.0297 73.9656 11.2536 78.3162C8.46672 85.1366 9.03691 106.575 8.82073 111.985C8.60456 117.395 9.67865 125.844 14.1143 127.684C14.4918 127.837 14.8851 127.949 15.2871 128.016C20.0497 128.88 28.5866 125.238 38.6986 121.661C49.7053 117.77 51.8324 116.79 51.8324 116.79C51.8324 116.79 50.9421 116.048 50.5376 111.497C50.5112 111.227 50.4902 110.947 50.4691 110.651C50.3495 108.373 50.6836 106.095 51.452 103.947C51.452 103.947 31.0881 109.551 26.4686 110.908C21.8491 112.265 21.1117 112.45 21.1117 112.45" stroke="black" stroke-width="0.376608" stroke-linecap="round" stroke-linejoin="round"/>
<path id="Vector_74" d="M54.897 69.3381C54.897 69.3381 64.5351 70.9756 67.0358 76.7129C69.5365 82.4501 70.3823 96.2332 70.3823 96.2332" stroke="black" stroke-width="0.376608" stroke-linecap="round" stroke-linejoin="round"/>
<path id="Vector_75" d="M53.158 111.428C53.1501 112.729 52.9852 114.023 52.6669 115.284C52.5342 115.855 52.244 116.377 51.8293 116.791" stroke="black" stroke-width="0.376608" stroke-linecap="round" stroke-linejoin="round"/>
<path id="Vector_76" d="M51.4531 103.944C51.4531 103.944 55.8903 102.306 59.6632 100.566C63.436 98.8251 64.3783 97.2298 66.8428 96.939C68.0087 96.7714 69.1855 96.6911 70.3634 96.6987C71.1216 96.722 71.8769 96.8023 72.623 96.939C74.732 97.3006 77.8669 99.0917 77.8669 99.0917" stroke="black" stroke-width="0.376608" stroke-linecap="round" stroke-linejoin="round"/>
<path id="Vector_77" d="M50.5361 111.496L52.4945 111.008C52.7168 111.132 52.9516 111.233 53.195 111.309C54.0661 111.595 54.9991 111.635 55.8915 111.425C57.0778 111.148 58.5436 109.903 59.6425 108.813C60.5938 107.867 61.2778 107.034 61.2778 107.034L63.5946 108.831L64.3177 109.393" stroke="black" stroke-width="0.376608" stroke-linecap="round" stroke-linejoin="round"/>
<path id="Vector_78" d="M64.9738 105.207C65.7935 106.216 66.5007 107.312 67.0828 108.474C67.2259 108.897 66.9111 109.277 66.4222 109.6C65.6969 110.02 64.9225 110.349 64.1166 110.579C63.1683 110.88 61.6627 111.441 61.5361 110.407C61.4096 109.374 63.4666 108.999 63.4666 108.999" stroke="black" stroke-width="0.376608" stroke-linecap="round" stroke-linejoin="round"/>
<path id="Vector_79" d="M69.8053 108.549C68.8369 109.286 67.64 109.659 66.4241 109.603" stroke="black" stroke-width="0.376608" stroke-linecap="round" stroke-linejoin="round"/>
<path id="Vector_80" d="M68.0154 103.218C68.0154 103.218 69.9911 105.785 70.3503 107.037C70.4171 107.313 70.4029 107.601 70.3093 107.868C70.2158 108.136 70.0469 108.37 69.8231 108.544" stroke="black" stroke-width="0.376608" stroke-linecap="round" stroke-linejoin="round"/>
<path id="Vector_81" d="M69.1531 99.406C69.1531 99.406 69.5229 99.8527 70.0298 100.5C71.0467 101.791 72.6103 103.894 72.8823 104.887C72.9354 105.167 72.9233 105.455 72.8469 105.73C72.7705 106.004 72.6318 106.257 72.4416 106.469C71.7019 107.316 70.8104 108.018 69.8129 108.537L69.8054 108.543" stroke="black" stroke-width="0.376608" stroke-linecap="round" stroke-linejoin="round"/>
<path id="Vector_82" d="M40.9568 39.6784C40.9568 39.4991 41.063 38.2578 44.1007 39.1511C46.308 39.9231 48.2973 41.2148 49.9005 42.9172C49.9052 42.9237 49.9105 42.9298 49.9163 42.9353" stroke="black" stroke-width="0.376608" stroke-linecap="round" stroke-linejoin="round"/>
<path id="Vector_83" d="M35.4106 34.5547C35.4106 34.5547 40.8255 34.9215 40.9551 39.6766V39.6984" stroke="black" stroke-width="0.376608" stroke-linecap="round" stroke-linejoin="round"/>
<path id="Vector_84" d="M70.0305 100.5C70.0305 100.5 72.1327 99.9792 73.2189 99.7524C73.2189 99.7524 75.4454 100.661 76.533 101.071" stroke="black" stroke-width="0.376608" stroke-linecap="round" stroke-linejoin="round"/>
<path id="Vector_85" d="M59.6462 86.2959C59.6462 86.2959 63.1253 89.894 63.1675 93.3279C63.261 95.5345 62.6914 97.7185 61.5323 99.5985" stroke="black" stroke-width="0.376608" stroke-linecap="round" stroke-linejoin="round"/>
<path id="Vector_86" d="M46.549 91.7769C47.1607 93.2748 47.4146 94.8948 47.2904 96.5081C47.1661 98.1213 46.6673 99.6834 45.8334 101.07C45.0024 102.621 43.6947 103.864 42.1035 104.615" stroke="black" stroke-width="0.376608" stroke-linecap="round" stroke-linejoin="round"/>
<path id="Vector_87" d="M21.9497 110.019C21.9497 110.019 24.8797 109.246 26.469 110.907L26.8019 97.8157L30.5582 95.7451" stroke="black" stroke-width="0.376608" stroke-linecap="round" stroke-linejoin="round"/>
<path id="Vector_88" d="M27.3373 93.1953L26.8018 97.8133" stroke="black" stroke-width="0.376608" stroke-linecap="round" stroke-linejoin="round"/>
<path id="Vector_89" d="M59.6455 108.813C59.6455 108.813 60.7602 113.257 59.1988 115.313H52.8989" stroke="black" stroke-width="0.376608" stroke-linecap="round" stroke-linejoin="round"/>
<path id="Vector_90" d="M59.2026 115.313C59.2026 115.313 60.6691 117.54 62.6448 121.243C65.7436 127.052 70.1017 136.501 72.0329 146.702L72.0405 146.747" stroke="black" stroke-width="0.376608" stroke-linecap="round" stroke-linejoin="round"/>
<path id="Vector_91" d="M15.2638 128.146C12.5539 134.09 10.5349 140.326 9.24634 146.731V146.75" stroke="black" stroke-width="0.376608" stroke-linecap="round" stroke-linejoin="round"/>
<path id="Vector_92" d="M9.33643 146.747H71.8104" stroke="black" stroke-width="0.376608" stroke-linecap="round" stroke-linejoin="round"/>
<path id="Vector_93" d="M88.2059 110.598C88.4657 110.724 88.7618 110.753 89.0412 110.68C90.4723 110.35 94.0516 109.531 94.7363 109.274C95.4209 109.018 95.4096 106.71 93.7744 106.971C93.6057 106.997 93.4181 107.034 93.22 107.074C91.5027 107.431 88.8514 108.271 88.0477 108.876C87.9065 108.978 87.7944 109.116 87.7224 109.275C87.6503 109.433 87.6208 109.608 87.6368 109.782C87.6527 109.956 87.7136 110.122 87.8134 110.265C87.9131 110.408 88.0484 110.523 88.2059 110.598Z" stroke="black" stroke-width="0.376608" stroke-linecap="round" stroke-linejoin="round"/>
<path id="Vector_94" d="M86.0403 113.495C87.1362 113.395 90.5227 112.906 92.7966 112.574C93.8692 112.418 94.6932 112.294 94.9237 112.259C96.0166 112.093 96.7066 109.594 94.7362 109.277" stroke="black" stroke-width="0.376608" stroke-linecap="round" stroke-linejoin="round"/>
<path id="Vector_95" d="M88.2017 110.617C87.1858 110.812 86.1945 111.12 85.2461 111.533C85.03 111.659 84.865 111.856 84.7799 112.091C84.6948 112.326 84.6951 112.583 84.7807 112.818C84.8663 113.052 85.0318 113.25 85.2482 113.374C85.4645 113.499 85.7179 113.544 85.9639 113.501C85.988 113.501 86.0121 113.501 86.0392 113.495" stroke="black" stroke-width="0.376608" stroke-linecap="round" stroke-linejoin="round"/>
<path id="Vector_96" d="M87.5295 115.537C88.7972 115.509 90.4113 115.437 91.5969 115.387C91.8184 115.378 92.0217 115.365 92.2093 115.36C92.6665 115.336 93.0047 115.318 93.147 115.313C93.3697 115.305 93.5854 115.232 93.7677 115.104C93.9994 114.914 94.1653 114.656 94.2419 114.366C94.3185 114.076 94.3018 113.769 94.1943 113.489C94.0867 113.21 93.8937 112.971 93.6427 112.807C93.3917 112.643 93.0955 112.562 92.796 112.576" stroke="black" stroke-width="0.376608" stroke-linecap="round" stroke-linejoin="round"/>
<path id="Vector_97" d="M87.4265 115.537H87.5109" stroke="black" stroke-width="0.376608" stroke-linecap="round" stroke-linejoin="round"/>
<path id="Vector_98" d="M86.0405 113.495H86.0353C85.8187 113.541 85.6078 113.61 85.4063 113.701C85.1894 113.783 85.0098 113.941 84.9012 114.146C84.7927 114.351 84.7627 114.589 84.8169 114.814C84.8711 115.04 85.0058 115.237 85.1956 115.371C85.3854 115.504 85.6173 115.563 85.8477 115.537C86.1776 115.556 86.7267 115.553 87.385 115.537" stroke="black" stroke-width="0.376608" stroke-linecap="round" stroke-linejoin="round"/>
<path id="Vector_99" d="M87.5304 115.537C87.5241 115.536 87.5178 115.536 87.5115 115.537C87.4835 115.535 87.4553 115.535 87.4272 115.537C87.4122 115.535 87.3969 115.535 87.382 115.537C87.177 115.56 86.9751 115.604 86.7794 115.669C86.5989 115.723 86.4416 115.836 86.3325 115.99C86.2233 116.143 86.1686 116.329 86.1768 116.517C86.2005 116.743 86.306 116.953 86.4734 117.107C86.6409 117.26 86.8587 117.347 87.086 117.352C87.9785 117.45 89.2786 117.407 90.9635 117.423C91.6557 117.429 92.1837 117.431 92.369 117.431C92.5716 117.437 92.7713 117.382 92.9422 117.273C93.7527 116.76 93.7346 115.566 92.2131 115.355C92.208 115.353 92.2024 115.353 92.1973 115.355" stroke="black" stroke-width="0.376608" stroke-linecap="round" stroke-linejoin="round"/>
<path id="Vector_100" d="M86.0052 116.528L85.6512 116.995C85.5457 117.133 85.4101 117.244 85.2548 117.32C85.0995 117.397 84.9287 117.437 84.7556 117.437H67.3247C67.0481 117.437 66.7769 117.36 66.5418 117.214C66.3067 117.069 66.117 116.86 65.9942 116.612C65.8713 116.365 65.8202 116.087 65.8466 115.812C65.873 115.537 65.9759 115.274 66.1436 115.054L72.6025 106.596L76.718 101.21L78.1627 99.3159L85.728 89.4133C86.0299 89.0172 86.4191 88.6962 86.8654 88.4753C87.3117 88.2543 87.803 88.1395 88.301 88.1396H104.689C104.965 88.1397 105.236 88.217 105.471 88.3628C105.706 88.5086 105.895 88.7171 106.018 88.9648C106.141 89.2125 106.192 89.4895 106.165 89.7646C106.139 90.0398 106.036 90.3021 105.869 90.5221L93.2248 107.079" stroke="black" stroke-width="0.376608" stroke-linecap="round" stroke-linejoin="round"/>
<path id="Vector_101" d="M87.6304 90.0132L67.8035 115.974" stroke="black" stroke-width="0.376608" stroke-linecap="round" stroke-linejoin="round"/>
<path id="Vector_102" d="M89.6428 104.161C88.2117 105.877 86.2857 106.625 85.3374 105.838C84.3891 105.051 84.7823 103.017 86.2119 101.3C87.6415 99.5835 89.569 98.8379 90.5143 99.628C91.4596 100.418 91.0717 102.447 89.6428 104.161Z" stroke="black" stroke-width="0.376608" stroke-linecap="round" stroke-linejoin="round"/>
<path id="Vector_103" d="M87.9261 61.7381V70.2306H81.5388L92.6887 84.0905L103.841 70.2306H97.4535V61.7381V56.5688V53.6132V52.353H87.9261V61.7381Z" stroke="black" stroke-width="0.376608" stroke-linecap="round" stroke-linejoin="round"/>
<path id="Vector_104" d="M141.148 72.4072V75.7567H118.919V72.4072V66.7249V53.5278H141.148V67.1844V72.4072Z" stroke="black" stroke-width="0.376608" stroke-linecap="round" stroke-linejoin="round"/>
<path id="Vector_105" d="M49.0112 9.31274H67.5411V27.8426H49.0112V9.31274Z" stroke="black" stroke-width="0.376608" stroke-linecap="round" stroke-linejoin="round"/>
<path id="Vector_106" d="M118.919 72.4077H125.642H141.148" stroke="black" stroke-width="0.376608" stroke-linecap="round" stroke-linejoin="round"/>
<path id="Vector_107" d="M125.642 72.4073C126.327 70.7815 127.107 69.1971 127.977 67.6621C129.353 65.245 131.21 62.5771 133.191 61.4548C137.22 59.1643 141.145 67.1868 141.145 67.1868" stroke="black" stroke-width="0.376608" stroke-linecap="round" stroke-linejoin="round"/>
<path id="Vector_108" d="M118.919 66.7251C118.919 66.7251 120.779 63.2332 123.389 63.1541C125.999 63.075 127.977 67.6628 127.977 67.6628" stroke="black" stroke-width="0.376608" stroke-linecap="round" stroke-linejoin="round"/>
<path id="Vector_109" d="M127.385 58.6637C127.385 58.9374 127.439 59.2085 127.543 59.4613C127.648 59.7142 127.802 59.9439 127.995 60.1375C128.189 60.331 128.418 60.4845 128.671 60.5892C128.924 60.694 129.195 60.7479 129.469 60.7479C129.743 60.7479 130.014 60.694 130.266 60.5892C130.519 60.4845 130.749 60.331 130.943 60.1375C131.136 59.9439 131.29 59.7142 131.394 59.4613C131.499 59.2085 131.553 58.9374 131.553 58.6637C131.553 58.39 131.499 58.119 131.394 57.8662C131.29 57.6133 131.136 57.3836 130.943 57.19C130.749 56.9965 130.519 56.843 130.266 56.7382C130.014 56.6335 129.743 56.5796 129.469 56.5796C129.195 56.5796 128.924 56.6335 128.671 56.7382C128.418 56.843 128.189 56.9965 127.995 57.19C127.802 57.3836 127.648 57.6133 127.543 57.8662C127.439 58.119 127.385 58.39 127.385 58.6637Z" stroke="black" stroke-width="0.376608" stroke-linecap="round" stroke-linejoin="round"/>
<path id="Vector_110" d="M135.746 31.7919V34.1532H132.729H113.388H110.543V31.7919V29.2106V26.6331V24.0518V21.4743V18.8931V16.3125V13.7343V11.1538V8.57851V5.99724V3.63892H113.388H132.729H135.746V5.99724V8.57851V11.1538V13.7343V16.3125V18.8931V21.4743V24.0518V26.6331V29.2106V31.7919Z" stroke="black" stroke-width="0.376608" stroke-linecap="round" stroke-linejoin="round"/>
<path id="Vector_111" d="M113.387 3.63892V5.99724V8.57851V11.1538V13.7343V16.3125V18.8931V21.4743V24.0518V26.6331V29.2106V31.7919V34.1532" stroke="black" stroke-width="0.376608" stroke-linecap="round" stroke-linejoin="round"/>
<path id="Vector_112" d="M110.543 18.8931H113.388H132.729" stroke="black" stroke-width="0.376608" stroke-linecap="round" stroke-linejoin="round"/>
<path id="Vector_113" d="M110.543 21.4741H113.388" stroke="black" stroke-width="0.376608" stroke-linecap="round" stroke-linejoin="round"/>
<path id="Vector_114" d="M110.543 16.312H113.388" stroke="black" stroke-width="0.376608" stroke-linecap="round" stroke-linejoin="round"/>
<path id="Vector_115" d="M110.543 13.7341H113.388" stroke="black" stroke-width="0.376608" stroke-linecap="round" stroke-linejoin="round"/>
<path id="Vector_116" d="M110.543 11.1536H113.388" stroke="black" stroke-width="0.376608" stroke-linecap="round" stroke-linejoin="round"/>
<path id="Vector_117" d="M110.543 8.57861H113.388" stroke="black" stroke-width="0.376608" stroke-linecap="round" stroke-linejoin="round"/>
<path id="Vector_118" d="M110.543 31.7915H113.388" stroke="black" stroke-width="0.376608" stroke-linecap="round" stroke-linejoin="round"/>
<path id="Vector_119" d="M110.543 29.2107H113.388" stroke="black" stroke-width="0.376608" stroke-linecap="round" stroke-linejoin="round"/>
<path id="Vector_120" d="M110.543 26.6326H113.388" stroke="black" stroke-width="0.376608" stroke-linecap="round" stroke-linejoin="round"/>
<path id="Vector_121" d="M110.543 24.0515H113.388" stroke="black" stroke-width="0.376608" stroke-linecap="round" stroke-linejoin="round"/>
<path id="Vector_122" d="M110.543 5.99707H113.388" stroke="black" stroke-width="0.376608" stroke-linecap="round" stroke-linejoin="round"/>
<path id="Vector_123" d="M132.728 34.1532V31.7919V29.2106V26.6331V24.0518V21.4743V18.8931V16.3125V13.7343V11.1538V8.57851V5.99724V3.63892" stroke="black" stroke-width="0.376608" stroke-linecap="round" stroke-linejoin="round"/>
<path id="Vector_124" d="M135.567 18.8931H134.023H132.728" stroke="black" stroke-width="0.376608" stroke-linecap="round" stroke-linejoin="round"/>
<path id="Vector_125" d="M135.567 16.312H132.728" stroke="black" stroke-width="0.376608" stroke-linecap="round" stroke-linejoin="round"/>
<path id="Vector_126" d="M135.567 21.4741H132.728" stroke="black" stroke-width="0.376608" stroke-linecap="round" stroke-linejoin="round"/>
<path id="Vector_127" d="M135.567 24.0515H132.728" stroke="black" stroke-width="0.376608" stroke-linecap="round" stroke-linejoin="round"/>
<path id="Vector_128" d="M135.567 26.6326H132.728" stroke="black" stroke-width="0.376608" stroke-linecap="round" stroke-linejoin="round"/>
<path id="Vector_129" d="M135.567 29.2107H132.728" stroke="black" stroke-width="0.376608" stroke-linecap="round" stroke-linejoin="round"/>
<path id="Vector_130" d="M135.567 5.99707H132.728" stroke="black" stroke-width="0.376608" stroke-linecap="round" stroke-linejoin="round"/>
<path id="Vector_131" d="M135.567 8.57861H132.728" stroke="black" stroke-width="0.376608" stroke-linecap="round" stroke-linejoin="round"/>
<path id="Vector_132" d="M135.567 11.1536H132.728" stroke="black" stroke-width="0.376608" stroke-linecap="round" stroke-linejoin="round"/>
<path id="Vector_133" d="M135.567 13.7341H132.728" stroke="black" stroke-width="0.376608" stroke-linecap="round" stroke-linejoin="round"/>
<path id="Vector_134" d="M135.567 31.7915H132.728" stroke="black" stroke-width="0.376608" stroke-linecap="round" stroke-linejoin="round"/>
<path id="Vector_135" d="M87.9261 61.738H80.6455V54.8913V31.4504H98.4523L105.299 39.7479V61.738H97.6938" stroke="black" stroke-width="0.376608" stroke-linecap="round" stroke-linejoin="round"/>
<path id="Vector_136" d="M98.4528 31.4276V24.6042H73.7993V54.8918H80.6461" stroke="black" stroke-width="0.376608" stroke-linecap="round" stroke-linejoin="round"/>
<path id="Vector_137" d="M98.4526 31.4277V31.4511V39.7485H105.299" stroke="black" stroke-width="0.376608" stroke-linecap="round" stroke-linejoin="round"/>
<path id="Vector_138" d="M54.4822 19.6674V13.8955H63.1306V19.7623" stroke="black" stroke-width="0.376608" stroke-linecap="round" stroke-linejoin="round"/>
<path id="Vector_139" d="M63.1305 19.7621C62.8616 19.6144 62.5599 19.5367 62.253 19.5361C61.7684 19.5459 61.3069 19.7453 60.9676 20.0915C60.6283 20.4377 60.4382 20.9032 60.4382 21.3879C60.4382 21.8727 60.6283 22.3381 60.9676 22.6843C61.3069 23.0305 61.7684 23.2299 62.253 23.2397C62.5599 23.2395 62.8617 23.1617 63.1305 23.0137V19.7621Z" stroke="black" stroke-width="0.376608" stroke-linecap="round" stroke-linejoin="round"/>
<path id="Vector_140" d="M54.4822 19.6676C54.2287 19.5684 53.9565 19.5263 53.685 19.5444C53.4134 19.5624 53.1492 19.6401 52.9111 19.772C52.673 19.9038 52.4669 20.0866 52.3076 20.3072C52.1482 20.5278 52.0394 20.7808 51.989 21.0483C51.9386 21.3157 51.9479 21.591 52.016 21.8545C52.0842 22.118 52.2097 22.3632 52.3834 22.5726C52.5572 22.7821 52.7751 22.9506 53.0214 23.0663C53.2678 23.1819 53.5367 23.2418 53.8088 23.2416C54.0392 23.241 54.2675 23.1978 54.4822 23.1143V19.6676Z" stroke="black" stroke-width="0.376608" stroke-linecap="round" stroke-linejoin="round"/>
<path id="Vector_141" d="M84.4739 44.7427H101.466" stroke="black" stroke-width="0.376608" stroke-linecap="round" stroke-linejoin="round"/>
<path id="Vector_142" d="M84.4739 47.7014H101.466" stroke="black" stroke-width="0.376608" stroke-linecap="round" stroke-linejoin="round"/>
<path id="Vector_143" d="M84.4739 50.6567H101.466" stroke="black" stroke-width="0.376608" stroke-linecap="round" stroke-linejoin="round"/>
<path id="Vector_144" d="M97.4536 53.613H101.466" stroke="black" stroke-width="0.376608" stroke-linecap="round" stroke-linejoin="round"/>
<path id="Vector_145" d="M84.4739 53.613H87.7232" stroke="black" stroke-width="0.376608" stroke-linecap="round" stroke-linejoin="round"/>
<path id="Vector_146" d="M97.4536 56.5688H101.466" stroke="black" stroke-width="0.376608" stroke-linecap="round" stroke-linejoin="round"/>
<path id="Vector_147" d="M84.4739 56.5688H87.7232" stroke="black" stroke-width="0.376608" stroke-linecap="round" stroke-linejoin="round"/>
<path id="Vector_148" d="M84.4739 41.7869H101.466" stroke="black" stroke-width="0.376608" stroke-linecap="round" stroke-linejoin="round"/>
<path id="Vector_149" d="M84.4739 38.8311H98.2148" stroke="black" stroke-width="0.376608" stroke-linecap="round" stroke-linejoin="round"/>
<path id="Vector_150" d="M62.6387 121.243C62.6387 121.243 72.0373 120.176 84.7539 117.437" stroke="black" stroke-width="0.376608" stroke-linecap="round" stroke-linejoin="round"/>
<path id="Vector_151" d="M120.087 44.0984L117.754 47.2016" stroke="black" stroke-width="0.376608" stroke-linecap="round" stroke-linejoin="round"/>
<path id="Vector_152" d="M120.472 46.8166L117.368 44.4846" stroke="black" stroke-width="0.376608" stroke-linecap="round" stroke-linejoin="round"/>
<path id="Vector_153" d="M87.6166 12.1843L85.2847 15.2876" stroke="black" stroke-width="0.376608" stroke-linecap="round" stroke-linejoin="round"/>
<path id="Vector_154" d="M88.0019 14.9015L84.8987 12.5696" stroke="black" stroke-width="0.376608" stroke-linecap="round" stroke-linejoin="round"/>
<path id="Vector_155" d="M65.8272 60.7158L63.4922 63.8221" stroke="black" stroke-width="0.376608" stroke-linecap="round" stroke-linejoin="round"/>
<path id="Vector_156" d="M66.2132 63.4365L63.1069 61.1016" stroke="black" stroke-width="0.376608" stroke-linecap="round" stroke-linejoin="round"/>
</g>
</svg>
