<svg width="151" height="151" viewBox="0 0 151 151" fill="none" xmlns="http://www.w3.org/2000/svg">
<g id="E-Book-Download--Streamline-London">
<g id="E-Book-Download--Streamline-London.svg">
<path id="Vector" fill-rule="evenodd" clip-rule="evenodd" d="M110.985 109.08C110.985 109.08 115.56 125.332 115.58 136.082L88.9483 132.321C88.9483 132.321 88.2968 117.332 89.7377 112.454C91.1786 107.575 91.7202 108.229 91.7202 108.229L110.985 109.08Z" fill="#FFD997"/>
<path id="Vector_2" fill-rule="evenodd" clip-rule="evenodd" d="M55.0239 89.0809L56.8489 106.179C100.861 108.769 82.8138 107.911 136.828 109.85C136.828 109.85 144.802 110.793 145.808 104.13C146.815 97.4672 146.738 19.0167 146.738 19.0167C146.738 19.0167 148.041 10.6793 142.695 9.54725C137.35 8.41517 68.8966 25.5682 61.5385 27.7751C54.1803 29.982 53.1702 35.0301 53.1431 38.9355C53.116 42.8409 55.0239 89.0809 55.0239 89.0809Z" fill="#FFD997"/>
<path id="Vector_3" d="M142.772 9.18051C137.245 8.00926 67.2748 25.6609 61.4299 27.4174C53.7207 29.7298 52.7935 35.1002 52.7679 38.9363C52.74 42.8063 54.6291 88.6373 54.6509 89.1005C54.653 89.15 54.6647 89.1985 54.6855 89.2435C54.7063 89.2884 54.7357 89.3288 54.7721 89.3623C54.8086 89.3958 54.8512 89.4219 54.8977 89.4389C54.9441 89.456 54.9935 89.4637 55.043 89.4617C55.0924 89.4596 55.141 89.4479 55.1859 89.4271C55.2308 89.4063 55.2712 89.3769 55.3048 89.3405C55.3383 89.304 55.3643 89.2614 55.3814 89.2149C55.3984 89.1685 55.4062 89.1191 55.4041 89.0696C55.3853 88.6072 53.497 42.7943 53.5249 38.9423C53.5497 35.3435 54.4204 30.3082 61.6513 28.1397C69.8019 25.6948 137.4 8.81219 142.622 9.92167C147.555 10.9656 146.384 18.8849 146.366 19.022C146.366 19.8061 146.43 97.5177 145.441 104.076C144.501 110.296 137.186 109.513 136.847 109.477C89.0932 107.765 91.9464 107.842 91.667 107.902C91.4734 107.997 90.3112 108.707 89.4435 112.238C89.4169 112.272 89.3968 112.31 89.384 112.352C88.1615 116.494 88.3958 127.702 88.566 132.031L84.241 131.435C84.1439 131.425 84.0466 131.453 83.9697 131.513C83.8928 131.573 83.8423 131.661 83.8289 131.758C83.8155 131.855 83.8403 131.953 83.8979 132.032C83.9555 132.111 84.0416 132.164 84.1378 132.181C125.926 137.932 125.559 137.892 125.636 137.892C125.735 137.899 125.834 137.866 125.909 137.8C125.985 137.734 126.031 137.641 126.037 137.541C126.044 137.441 126.011 137.343 125.945 137.267C125.879 137.192 125.786 137.146 125.686 137.139L115.96 135.8C115.89 128.037 113.432 116.612 111.447 109.315L136.79 110.223C137.115 110.254 137.442 110.268 137.769 110.266C140.005 110.266 145.357 109.681 146.187 104.185C147.185 97.5704 147.124 22.2217 147.117 19.0763C147.165 18.7207 148.401 10.3729 142.772 9.18051ZM115.199 135.696L89.3185 132.132C89.2815 131.198 89.1076 126.376 89.2168 121.575C91.2241 120.7 105.452 114.445 111.022 110.667C112.115 114.849 115.097 127.019 115.199 135.696Z" fill="black"/>
<path id="Vector_4" fill-rule="evenodd" clip-rule="evenodd" d="M58.4404 92.8236L57.4612 35.2319L140.951 16.592V102.182L68.5877 101.323L58.4404 92.8236Z" fill="white"/>
<path id="Vector_5" d="M95.8735 105.21C95.8735 105.778 96.05 106.323 96.3642 106.725C96.6783 107.127 97.1044 107.353 97.5487 107.353C97.993 107.353 98.419 107.127 98.7332 106.725C99.0473 106.323 99.2238 105.778 99.2238 105.21C99.2238 104.641 99.0473 104.096 98.7332 103.695C98.419 103.293 97.993 103.067 97.5487 103.067C97.1044 103.067 96.6783 103.293 96.3642 103.695C96.05 104.096 95.8735 104.641 95.8735 105.21Z" fill="white"/>
<path id="Vector_6" d="M97.548 107.729C96.4182 107.729 95.4962 106.599 95.4962 105.209C95.4962 103.82 96.4166 102.689 97.548 102.689C98.6793 102.689 99.5997 103.819 99.5997 105.209C99.5997 106.6 98.6793 107.729 97.548 107.729ZM97.548 103.442C96.8324 103.442 96.2494 104.235 96.2494 105.209C96.2494 106.183 96.8324 106.976 97.548 106.976C98.2635 106.976 98.8465 106.183 98.8465 105.209C98.8465 104.235 98.2643 103.442 97.548 103.442Z" fill="black"/>
<path id="Vector_7" d="M119.125 38.6964C100.684 39.3042 101.847 39.2379 101.716 39.3193L96.8633 42.3141C96.7891 42.3598 96.7332 42.4299 96.7049 42.5123C96.6766 42.5947 96.6777 42.6843 96.7081 42.766L109.999 78.0361C110.026 78.1077 110.074 78.1694 110.136 78.213C110.199 78.2565 110.274 78.28 110.35 78.2801C110.426 78.2801 110.208 78.3065 115.182 77.3537C115.387 77.3145 115.25 77.4328 117.461 74.3408C117.515 74.2595 117.535 74.1605 117.517 74.0648C117.499 73.9691 117.445 73.884 117.366 73.8273C117.287 73.7707 117.189 73.747 117.092 73.7611C116.996 73.7753 116.909 73.8262 116.849 73.9032L115.224 76.1794L102.437 39.9994L119.148 39.4496C119.197 39.4479 119.246 39.4365 119.291 39.4161C119.336 39.3956 119.377 39.3664 119.411 39.3303C119.444 39.2941 119.471 39.2516 119.488 39.2053C119.505 39.1589 119.513 39.1096 119.512 39.0602C119.512 39.0104 119.502 38.961 119.483 38.9152C119.463 38.8695 119.434 38.8282 119.398 38.7941C119.362 38.7599 119.319 38.7336 119.272 38.7168C119.225 38.7 119.175 38.693 119.125 38.6964ZM97.5186 42.7923L101.713 40.2058L114.605 76.6991L110.588 77.4749L97.5186 42.7923Z" fill="black"/>
<path id="Vector_8" d="M140.746 16.3022C138.419 16.7676 125.587 19.715 57.3804 34.8652C57.2953 34.8842 57.2195 34.9321 57.1658 35.0008C57.112 35.0694 57.0838 35.1546 57.0859 35.2418L58.0651 92.8335C58.0668 92.9333 58.1081 93.0285 58.1799 93.0979C58.2518 93.1673 58.3482 93.2054 58.4481 93.2037C58.548 93.202 58.6431 93.1606 58.7125 93.0888C58.782 93.017 58.82 92.9205 58.8183 92.8206L58.7053 86.1517L140.55 80.6193V101.801L68.5913 100.946C68.4914 100.945 68.3952 100.984 68.3238 101.054C68.2524 101.124 68.2117 101.219 68.2106 101.319C68.2095 101.419 68.2481 101.515 68.3179 101.586C68.3878 101.658 68.4831 101.698 68.583 101.7C127.768 102.417 138.812 102.576 140.791 102.536C141.25 102.527 141.274 102.569 141.293 102.096C141.376 100.075 141.328 87.7846 141.328 16.5922C141.328 16.1191 140.96 16.2592 140.746 16.3022ZM58.6338 82.0052L58.1321 52.4995L63.0514 51.3659L63.8453 81.5924L58.6338 82.0052ZM89.6603 45.2302L90.4798 79.4706L85.2283 79.8887L84.4043 46.4414L89.6603 45.2302ZM83.6549 46.6146L84.4766 79.9482L79.2245 80.3662L78.4065 47.8273L83.6549 46.6146ZM77.6563 47.9967L78.4712 80.4265L71.4919 80.9816L70.6747 49.6064L77.6563 47.9967ZM69.9252 49.7789L70.741 81.0418L64.597 81.5307L63.7971 51.1911L69.9252 49.7789ZM117.652 77.3082L116.838 39.8906L122.246 38.5891L123.161 76.8698L117.652 77.3082ZM123.913 76.8095L122.995 38.4083L128.343 37.1203L129.283 76.3825L123.913 76.8095ZM130.036 76.3222L129.094 36.9395L134.47 35.6455L135.408 75.8951L130.036 76.3222ZM140.581 75.4846L136.162 75.8349L135.222 35.4625L140.581 34.1677V75.4846ZM140.604 33.3957L116.369 39.2301C116.285 39.2502 116.211 39.2987 116.158 39.3672C116.106 39.4358 116.078 39.5203 116.081 39.6067L116.903 77.3699L91.2345 79.4126L90.4097 45.0577L95.4826 43.8887L96.1304 70.9977C96.1327 71.0976 96.1746 71.1925 96.2468 71.2615C96.3191 71.3305 96.4158 71.368 96.5157 71.3657C96.6156 71.3634 96.7104 71.3215 96.7794 71.2492C96.8484 71.177 96.8859 71.0803 96.8836 70.9804L96.2366 43.8962L97.453 44.2141C97.5497 44.2394 97.6525 44.2252 97.7387 44.1747C97.825 44.1242 97.8876 44.0415 97.9129 43.9448C97.9382 43.8481 97.924 43.7454 97.8735 43.6591C97.823 43.5729 97.7403 43.5103 97.6436 43.485C95.8291 43.0112 95.9112 43.0165 95.7877 43.0451L58.1193 51.7274L57.8444 35.5333L140.601 17.0622L140.604 33.3957Z" fill="black"/>
<path id="Vector_9" fill-rule="evenodd" clip-rule="evenodd" d="M40.4724 82.3064L42.8624 84.4862C42.8624 84.4862 46.2518 91.4008 38.2459 94.8392C31.3819 97.7873 27.4749 95.093 27.4749 95.093C27.4749 95.093 23.8776 84.252 23.2049 64.2217C22.5323 44.1914 39.9211 46.1039 39.9211 46.1039C39.9211 46.1039 45.0542 52.7645 45.3171 54.2077C45.4654 55.2939 45.4684 56.395 45.3261 57.4819C46.5011 57.8289 47.6063 58.3784 48.5921 59.1059C50.4442 60.4014 52.2075 61.6058 51.8166 62.6136C51.4257 63.6214 48.9785 63.9091 49.0372 65.0442C49.096 66.1793 49.8198 66.3571 49.926 66.9762C50.0322 67.5954 49.0975 68.0352 49.0975 68.0352C49.6679 68.4333 50.0721 69.027 50.2333 69.7036C50.3539 70.6723 49.2157 71.9121 49.2157 71.9121C49.77 72.7242 50.0779 73.6791 50.1023 74.662C50.0563 76.1097 48.33 78.27 40.8905 77.4248L40.4724 82.3064Z" fill="#FFD997"/>
<path id="Vector_10" d="M41.319 57.5809C41.2599 57.5809 41.2016 57.567 41.1488 57.5403C41.0961 57.5136 41.0504 57.4748 41.0154 57.4271C40.9804 57.3795 40.9571 57.3242 40.9474 57.2659C40.9378 57.2076 40.942 57.1478 40.9597 57.0914C40.9906 56.9942 41.7258 54.7014 43.2457 54.0032C43.5366 53.8682 43.8534 53.7983 44.1741 53.7983C44.4947 53.7983 44.8115 53.8682 45.1024 54.0032C45.1943 54.0423 45.2669 54.1164 45.3042 54.209C45.3415 54.3017 45.3404 54.4054 45.3013 54.4973C45.2621 54.5892 45.1881 54.6617 45.0954 54.699C45.0027 54.7363 44.899 54.7353 44.8072 54.6961C44.6131 54.6028 44.4008 54.5535 44.1854 54.5517C43.9701 54.5498 43.757 54.5956 43.5613 54.6856C42.3456 55.2437 41.6851 57.297 41.6783 57.3181C41.6541 57.3944 41.6063 57.461 41.5417 57.5083C41.4771 57.5555 41.3991 57.581 41.319 57.5809Z" fill="black"/>
<path id="Vector_11" fill-rule="evenodd" clip-rule="evenodd" d="M42.2653 59.4778C42.2653 59.4778 42.9989 57.5895 44.3306 56.9922L44.2553 59.0741C43.9178 59.2933 43.6301 59.4153 42.2653 59.4778Z" fill="white"/>
<path id="Vector_12" d="M44.6574 57.1692C44.7213 57.1095 44.7624 57.0295 44.7738 56.9428C44.7851 56.8561 44.7659 56.7682 44.7195 56.6941C44.6731 56.62 44.6024 56.5643 44.5195 56.5367C44.4365 56.509 44.3466 56.5111 44.265 56.5425C42.8128 57.1925 41.9526 59.2458 41.9165 59.3294C41.8784 59.4218 41.8786 59.5255 41.917 59.6178C41.9554 59.71 42.0289 59.7832 42.1213 59.8213C42.2137 59.8593 42.3174 59.8591 42.4097 59.8207C42.5019 59.7823 42.5751 59.7088 42.6132 59.6164C42.8081 59.1759 43.0466 58.7561 43.325 58.363C43.3815 58.9656 43.6458 59.3618 44.0307 59.3671C44.8314 59.3829 44.9964 57.8614 44.6574 57.1692Z" fill="black"/>
<path id="Vector_13" fill-rule="evenodd" clip-rule="evenodd" d="M27.7568 95.2411C29.4159 95.9212 31.2107 96.2052 32.9987 96.0704C34.7867 95.9356 36.5187 95.3857 38.057 94.4646C43.2098 91.286 43.2625 88.1376 42.8618 84.3489L50.528 90.3859L63.5112 118.921C63.5112 118.921 66.2484 133.563 66.0918 140.935H49.176L30.7576 104.288C30.7576 104.288 26.9335 100.956 25.6486 96.4711L27.7568 95.2411Z" fill="white"/>
<path id="Vector_14" fill-rule="evenodd" clip-rule="evenodd" d="M52.1145 100.153C49.0316 97.0862 49.244 93.3691 47.9636 90.3427C46.9332 87.9075 42.5502 83.9283 40.5067 82.2592C40.7666 79.6982 40.7116 79.9453 40.7869 79.9686C44.7187 81.1587 48.3417 85.144 48.3417 85.144C53.1201 86.3491 53.9855 88.0763 57.8134 92.2559C61.6412 96.4355 70.905 103.123 70.905 103.123C69.8829 110.769 63.4429 119.102 63.4429 119.102C61.4092 112.633 55.7518 103.772 52.1145 100.153Z" fill="#81F8F8"/>
<path id="Vector_15" fill-rule="evenodd" clip-rule="evenodd" d="M26.1561 96.1625C27.6882 100.056 30.7824 101.468 36.6529 108.2C42.5235 114.933 49.1239 141.072 49.1239 141.072H6.62824C6.62824 141.072 3.25383 126.409 6.95363 114.823C9.06066 108.079 11.9768 101.615 15.6382 95.572L26.1561 96.1625Z" fill="#81F8F8"/>
<path id="Vector_16" fill-rule="evenodd" clip-rule="evenodd" d="M63.443 119.101C63.443 119.101 75.9464 127.479 79.7486 126.892C83.5508 126.304 94.184 104.977 95.4818 97.6002C96.7796 90.2232 98.9745 81.6998 100.696 79.1019C102.417 76.5041 107.225 75.7125 108.744 73.0664C110.262 70.4204 109.827 68.7505 111.023 66.2701C112.219 63.7898 112.803 62.3474 111.732 61.8698C110.662 61.3923 108.457 66.3387 106.563 67.2011L103.359 68.6616L104.628 62.907L103.052 58.634C103.052 58.634 99.8135 61.7358 98.8675 63.7213C97.9215 65.7067 96.3992 72.1927 95.1233 74.6617C93.8473 77.1308 89.3099 87.2163 86.2278 91.8697L76.7583 106.167L70.9639 103.176C69.5922 109.204 67.5631 113.125 63.443 119.101Z" fill="#FFD997"/>
<path id="Vector_17" d="M32.2218 96.4982C30.6343 96.5075 29.0612 96.1959 27.597 95.5823C27.5515 95.5619 27.5104 95.5326 27.4763 95.4961C27.4421 95.4597 27.4156 95.4168 27.3982 95.37C27.3807 95.3232 27.3728 95.2734 27.3748 95.2235C27.3768 95.1736 27.3887 95.1246 27.4099 95.0793C27.431 95.0341 27.4609 94.9935 27.4979 94.9599C27.5349 94.9263 27.5781 94.9004 27.6252 94.8837C27.6723 94.867 27.7222 94.8599 27.7721 94.8626C27.8219 94.8654 27.8707 94.8781 27.9157 94.8999C29.5193 95.547 31.2505 95.8157 32.9749 95.6851C34.6993 95.5545 36.3703 95.028 37.8581 94.1467C42.7909 91.1044 42.8873 88.1842 42.4866 84.3918C42.4789 84.294 42.5096 84.197 42.5722 84.1215C42.6349 84.046 42.7245 83.9979 42.8221 83.9875C42.9197 83.9771 43.0175 84.0052 43.0946 84.0658C43.1718 84.1264 43.2223 84.2147 43.2353 84.3119C43.6526 88.2497 43.5494 91.521 38.2543 94.7877C36.444 95.913 34.3534 96.5058 32.2218 96.4982Z" fill="black"/>
<path id="Vector_18" d="M26.7 97.8838C26.6001 97.8763 26.5073 97.8295 26.442 97.7535C26.3766 97.6776 26.3442 97.5788 26.3516 97.479C26.3591 97.3791 26.406 97.2863 26.4819 97.2209C26.5578 97.1556 26.6566 97.1231 26.7565 97.1306C26.8386 97.1366 35.0419 97.7271 39.4166 95.7658C43.5592 93.9083 45.55 90.0835 44.372 86.2489C44.3426 86.1534 44.3524 86.0501 44.3991 85.9619C44.4459 85.8736 44.5258 85.8075 44.6213 85.7781C44.7168 85.7488 44.82 85.7585 44.9083 85.8053C44.9966 85.852 45.0627 85.9319 45.092 86.0274C46.3868 90.2454 44.2296 94.4326 39.7246 96.4527C36.3231 97.9802 30.3606 98.1565 26.7 97.8838Z" fill="black"/>
<path id="Vector_19" d="M111.886 61.5265C110.366 60.8448 108.307 65.9938 106.407 66.8585L103.889 68.0064C105.094 62.5381 105.035 62.9245 104.981 62.7768L103.406 58.5038C103.385 58.4452 103.349 58.3929 103.302 58.3515C103.255 58.3102 103.198 58.2813 103.138 58.2672C103.077 58.2532 103.013 58.2545 102.953 58.2711C102.893 58.2877 102.837 58.319 102.792 58.3622C102.658 58.491 99.4925 61.5348 98.5276 63.5594C97.556 65.5984 96.0488 72.0504 94.7879 74.4886C93.4321 77.1098 88.9723 87.0447 85.9128 91.6619L76.6301 105.676L71.1512 102.848C70.7663 102.496 62.0629 96.3379 58.0905 92.0016C54.3349 87.8988 53.3573 86.0437 48.5419 84.8061C47.9755 84.2036 44.58 80.7034 40.8478 79.5931C40.7521 79.5647 40.6489 79.5754 40.561 79.623C40.4732 79.6706 40.4078 79.7512 40.3793 79.847C40.3509 79.9428 40.3616 80.0459 40.4092 80.1338C40.4568 80.2217 40.5374 80.287 40.6332 80.3155C44.4038 81.4363 47.9672 85.2905 48.0569 85.3906C48.6858 86.0941 50.9801 89.0957 52.1152 90.5758C50.9294 90.4431 49.7339 90.7186 48.7257 91.3569C48.603 90.9637 48.4711 90.5758 48.3107 90.1962C47.0084 87.1185 41.0045 82.1767 40.7462 81.9673C40.6688 81.9039 40.5696 81.8739 40.4701 81.8838C40.3707 81.8937 40.2792 81.9427 40.2159 82.02C40.1526 82.0973 40.1225 82.1966 40.1324 82.2961C40.1423 82.3955 40.1913 82.4869 40.2686 82.5503C40.3296 82.6 46.387 87.5825 47.617 90.4892C48.8914 93.502 48.6662 97.2538 51.8493 100.42C55.0881 103.641 61.0709 112.302 63.082 119.209C64.8694 125.35 65.5081 138.173 65.643 140.575H49.4104C48.6414 137.587 42.5358 114.375 36.9341 107.952C31.0666 101.224 27.9942 99.811 26.5036 96.0245C26.4862 95.9776 26.4595 95.9346 26.4252 95.898C26.391 95.8615 26.3498 95.8321 26.304 95.8117C26.2582 95.7913 26.2089 95.7802 26.1588 95.7791C26.1087 95.778 26.0589 95.787 26.0123 95.8053C25.9657 95.8237 25.9232 95.8512 25.8874 95.8862C25.8516 95.9212 25.8231 95.9631 25.8036 96.0092C25.7841 96.0554 25.774 96.1049 25.7739 96.155C25.7739 96.2051 25.7838 96.2548 25.8031 96.301C27.2342 99.9465 29.9127 101.397 34.8809 106.792C32.7508 107.126 32.0111 109.899 31.7972 112.035C26.6286 106.386 22.1417 97.6651 22.095 97.5732C22.0734 97.5276 22.0429 97.4869 22.0053 97.4534C21.9676 97.4199 21.9237 97.3942 21.8759 97.378C21.8282 97.3618 21.7778 97.3553 21.7275 97.359C21.6772 97.3626 21.6282 97.3763 21.5833 97.3993C21.5385 97.4222 21.4987 97.4539 21.4663 97.4925C21.4339 97.5311 21.4096 97.5758 21.3948 97.624C21.38 97.6722 21.375 97.7228 21.3801 97.773C21.3853 97.8231 21.4004 97.8717 21.4247 97.9159C21.4736 98.0115 26.3545 107.5 31.8447 113.185C31.8964 113.239 31.9629 113.276 32.0358 113.292C32.1087 113.308 32.1846 113.301 32.254 113.274C32.3233 113.247 32.383 113.199 32.4255 113.138C32.4679 113.077 32.4912 113.004 32.4924 112.93C32.4924 112.893 32.5738 109.219 34.1201 107.926C34.3156 107.762 34.5438 107.64 34.7896 107.571C35.0354 107.501 35.2932 107.484 35.546 107.521C35.8141 107.822 36.0868 108.123 36.3662 108.447C41.6817 114.542 47.7119 137.108 48.6353 140.647H33.6034C31.6654 122.824 26.1074 111.426 18.7123 110.098C13.1732 109.103 9.26775 112.513 7.39073 114.701C9.4882 108.076 12.3632 101.724 15.9556 95.7767C15.9841 95.7353 16.0041 95.6886 16.0143 95.6393C16.0245 95.5901 16.0247 95.5392 16.015 95.4899C16.0052 95.4405 15.9856 95.3936 15.9575 95.3519C15.9293 95.3103 15.893 95.2747 15.8508 95.2472C15.8087 95.2198 15.7614 95.2011 15.7119 95.1922C15.6624 95.1834 15.6116 95.1845 15.5625 95.1956C15.5134 95.2067 15.467 95.2275 15.4262 95.2568C15.3853 95.2861 15.3506 95.3233 15.3244 95.3662C11.6518 101.441 8.72164 107.935 6.59684 114.709C4.08487 122.575 4.60082 134.006 6.26317 141.232C6.30234 141.403 6.45449 141.388 6.62999 141.388H66.0392C66.147 141.359 66.2424 141.296 66.3105 141.208C66.3786 141.119 66.4156 141.011 66.4158 140.9C66.409 140.757 65.7198 127.147 64.0424 119.946C66.9257 121.818 76.4448 127.786 79.8087 127.264C83.9167 126.628 94.5717 104.98 95.8522 97.6628C97.1116 90.5072 99.2869 81.907 101.009 79.3077C101.798 78.1176 103.358 77.2898 104.866 76.4891C108.377 74.6249 109.493 73.7828 110.434 69.3984C110.615 68.3744 110.927 67.378 111.362 66.4337C112.183 64.7314 113.535 62.2624 111.886 61.5265ZM6.93429 140.724C6.517 138.715 4.25359 126.854 6.80699 116.727C7.19716 116.102 11.4709 109.563 18.579 110.84C25.5086 112.085 30.9641 123.554 32.8457 140.724H6.93429ZM52.3796 99.8863C50.0175 97.5363 49.6816 94.8352 48.9442 92.1078C49.5165 91.7053 50.1759 91.444 50.8685 91.3452C51.5612 91.2463 52.2674 91.3128 52.9294 91.5391C53.0059 91.5659 53.0889 91.5674 53.1663 91.5432C53.2436 91.5191 53.3111 91.4706 53.3587 91.4051C53.4063 91.3395 53.4315 91.2604 53.4306 91.1794C53.4296 91.0984 53.4026 91.0198 53.3535 90.9554C53.2262 90.7882 50.7737 87.5757 49.3893 85.8335C53.1396 87.0191 54.1858 88.8547 57.5354 92.5108C61.0453 96.3439 69.1733 102.327 70.5005 103.295C69.6139 109.309 65.3477 115.787 63.7501 118.043C62.8764 110.402 57.4073 101.024 57.1678 100.617C57.1427 100.574 57.1095 100.537 57.07 100.507C57.0305 100.477 56.9856 100.456 56.9377 100.443C56.8898 100.431 56.84 100.428 56.791 100.435C56.742 100.442 56.6948 100.458 56.6522 100.483C56.6096 100.508 56.5723 100.542 56.5425 100.581C56.5127 100.62 56.491 100.665 56.4786 100.713C56.4662 100.761 56.4633 100.811 56.4702 100.86C56.477 100.909 56.4934 100.956 56.5185 100.999C56.5705 101.087 61.0785 108.817 62.6105 115.824C59.9215 109.538 55.1913 102.683 52.3796 99.8863ZM110.684 66.1068C109.416 68.7355 109.938 70.2292 108.417 72.8782C106.974 75.3924 102.17 76.1961 100.381 78.8941C98.6022 81.5794 96.3832 90.3039 95.1088 97.5347C93.8035 104.958 83.1424 125.986 79.6889 126.52C76.4162 127.034 65.9804 120.317 63.9821 119.008C65.1353 117.455 70.0704 110.477 71.1836 103.714L76.0795 106.241C75.0876 107.191 73.0388 109.997 74.7441 116.021C74.7718 116.117 74.8362 116.197 74.9232 116.246C75.0103 116.294 75.1129 116.306 75.2087 116.279C75.3044 116.251 75.3855 116.187 75.4343 116.101C75.483 116.014 75.4954 115.911 75.4687 115.815C73.49 108.825 76.8154 106.579 76.9593 106.484C76.999 106.452 77.0358 106.415 77.0693 106.376C88.4428 89.394 87.7047 90.9938 93.9647 77.9044C96.039 73.5674 95.9162 74.3071 97.6848 68.4342C98.1058 66.8904 98.6135 65.3715 99.2055 63.8848C99.9143 62.3995 102.007 60.2121 102.9 59.3143L104.235 62.9358L102.989 68.5849C102.973 68.6536 102.977 68.7254 103.001 68.792C103.024 68.8585 103.065 68.9173 103.12 68.9614C103.175 69.0056 103.241 69.0335 103.311 69.0419C103.381 69.0503 103.452 69.0389 103.516 69.0089L106.721 67.5485C107.735 67.0867 108.731 65.6986 109.693 64.3571C110.279 63.5406 111.275 62.1818 111.581 62.2187C111.648 62.2425 111.71 62.2808 111.761 62.3307C111.812 62.3807 111.851 62.4411 111.877 62.5079C112.094 63.1 111.465 64.4881 110.684 66.1068Z" fill="black"/>
<path id="Vector_20" d="M40.5935 119.716C40.4089 118.51 39.545 117.87 38.8114 117.983C37.9828 118.111 37.4608 119.071 37.6288 120.168C37.6488 120.6 37.82 121.012 38.1125 121.331C38.4051 121.65 38.8003 121.856 39.2294 121.914C40.0775 121.916 40.7901 120.998 40.5935 119.716Z" fill="black"/>
<path id="Vector_21" d="M44.6502 134.542C43.8217 134.67 43.2997 135.63 43.4684 136.726C43.7479 138.559 45.5511 139.071 46.2448 137.668C46.9038 136.332 45.9955 134.334 44.6502 134.542Z" fill="black"/>
<path id="Vector_22" d="M48.9288 58.881C47.9529 58.1699 46.8776 57.6065 45.7375 57.2088C45.8526 56.1878 45.8359 55.1562 45.6878 54.1395C45.4151 52.6406 40.2849 45.8865 40.114 45.7833C40.1179 45.4899 40.0547 45.1995 39.9292 44.9342C39.8038 44.669 39.6194 44.4359 39.3901 44.2528C31.7924 38.5863 27.4569 40.6253 18.8198 44.6859C11.4993 48.1303 11.4488 54.2419 11.4089 58.7047C11.3569 64.8706 10.3838 65.8475 6.59283 69.8109C4.26464 72.2453 4.0575 74.6315 4.95006 76.3639C4.42644 76.9174 4.01909 77.5702 3.75207 78.2838C3.48504 78.9975 3.36377 79.7573 3.39542 80.5186C3.54607 83.7816 6.36159 86.5722 7.04476 87.2034C6.751 91.9487 12.907 94.0132 14.0587 94.359C14.36 94.945 15.5651 96.6857 19.7252 97.8916C23.2653 98.9174 27.1187 96.4604 29.5923 93.776C33.326 94.8998 37.0657 90.8565 37.9929 87.1417C38.9389 83.356 35.8628 81.2191 32.8499 78.0903C31.3648 76.4487 30.3754 74.4196 29.9968 72.2385C30.9034 72.0157 31.6971 71.4686 32.2278 70.7004C32.2685 70.6417 32.2917 70.5725 32.2946 70.5011C32.2975 70.4296 32.2799 70.3588 32.2441 70.297C32.2082 70.2351 32.1555 70.1847 32.092 70.1518C32.0286 70.1188 31.9571 70.1045 31.8858 70.1107C31.0789 70.1927 30.2653 70.1834 29.4605 70.0828C26.9749 69.6565 23.1432 65.8595 25.0052 63.6345C25.5505 62.9752 26.2968 62.5125 27.1299 62.3173C27.9631 62.1221 28.8372 62.2052 29.6186 62.5537C30.5978 63.0176 30.8577 63.7219 31.3744 64.7621C31.4006 64.8147 31.4388 64.8604 31.4859 64.8956C31.533 64.9308 31.5877 64.9544 31.6455 64.9647C34.3112 65.437 35.3032 61.4675 35.4598 60.7467C38.2467 57.6367 38.255 55.7838 37.9394 53.0127C37.6125 50.1505 39.4037 49.4726 40.0115 46.8468C42.0347 49.5049 44.7741 53.3456 44.9436 54.2766C45.0839 55.3237 45.0862 56.3848 44.9504 57.4325C44.9376 57.5254 44.9599 57.6198 45.013 57.6971C45.066 57.7744 45.146 57.8291 45.2373 57.8506C46.4051 58.2209 47.505 58.7782 48.4942 59.5009C52.9985 62.6493 51.5824 62.5612 49.6994 63.6594C49.3228 63.0711 48.324 63.9396 47.8163 64.4081C47.0353 65.1319 46.5201 64.3117 47.0872 63.5042C47.1446 63.4224 47.1671 63.3212 47.1497 63.2228C47.1324 63.1244 47.0768 63.0369 46.995 62.9796C46.9132 62.9223 46.8119 62.8998 46.7135 62.9171C46.6152 62.9344 46.5277 62.9901 46.4703 63.0719C45.6456 64.2469 46.2813 65.4445 47.2575 65.4445C47.9203 65.4445 48.3029 64.9572 48.7428 64.6001C48.6816 64.7477 48.6533 64.9068 48.6599 65.0664C48.724 66.2934 49.4787 66.6105 49.554 67.0421C49.7114 67.958 46.9456 68.1199 46.0448 67.7283C45.9532 67.6883 45.8495 67.6864 45.7565 67.7229C45.6634 67.7594 45.5887 67.8314 45.5488 67.923C45.5088 68.0146 45.5069 68.1183 45.5434 68.2113C45.5799 68.3043 45.6519 68.379 45.7435 68.419C46.2596 68.6606 46.8206 68.7915 47.3904 68.8032C47.9601 68.8148 48.526 68.7071 49.0516 68.4867C49.4582 68.801 49.7431 69.2467 49.8576 69.7476C49.9382 70.3969 49.2196 71.3445 48.9356 71.6548C48.8774 71.7184 48.8428 71.8001 48.8376 71.8862C48.8324 71.9723 48.8569 72.0576 48.907 72.1278C49.4123 72.8734 49.6957 73.7471 49.7242 74.6473C49.7087 74.9112 49.6369 75.1687 49.5136 75.4026C49.3903 75.6364 49.2184 75.8412 49.0094 76.0031C48.095 76.7955 45.9491 77.6187 40.9312 77.0493C39.7966 76.7989 38.676 76.4886 37.5741 76.1198C37.5026 76.0998 37.4267 76.1014 37.3561 76.1244C37.2854 76.1474 37.2232 76.1908 37.1771 76.249C37.1311 76.3073 37.1033 76.3779 37.0973 76.452C37.0912 76.526 37.1072 76.6002 37.1433 76.6652C37.8859 77.9695 38.9855 79.0346 40.3128 79.7353L39.6944 87.0189C39.6859 87.1188 39.7175 87.2179 39.7821 87.2946C39.8467 87.3712 39.9391 87.419 40.039 87.4275C40.1389 87.436 40.2381 87.4045 40.3147 87.3398C40.3913 87.2752 40.4391 87.1828 40.4476 87.0829C40.5456 85.9327 41.1481 78.9934 41.2453 77.8409C46.2602 78.3509 48.5048 77.441 49.5081 76.574C49.7939 76.3425 50.0283 76.0537 50.1961 75.7264C50.3639 75.399 50.4616 75.0402 50.4827 74.6729C50.4723 73.7074 50.1972 72.7633 49.6873 71.9433C50.8172 70.5408 51.0107 69.3243 49.7348 68.0793C49.9276 67.9554 50.0826 67.7809 50.1829 67.5749C50.2832 67.3688 50.3249 67.1392 50.3035 66.911C50.1656 66.1096 49.4749 66.0516 49.4199 65.0242C49.3793 64.2544 51.7301 63.8944 52.1745 62.7487C52.6573 61.4879 50.9294 60.2789 48.9288 58.881Z" fill="black"/>
</g>
</g>
</svg>
