<svg width="151" height="151" viewBox="0 0 151 151" fill="none" xmlns="http://www.w3.org/2000/svg">
<g id="Empty-Inbox--Streamline-London">
<g id="Empty-Inbox--Streamline-London.svg">
<g id="spider">
<path id="vector" d="M108.941 89.2966V106.197C108.941 106.545 109.467 106.545 109.467 106.197V89.2966H108.941Z" fill="black"/>
<path id="vector_2" d="M114.558 106.693C114.034 105.36 112.649 105.343 111.367 105.946C110.325 104.743 108.083 104.743 107.041 105.946C105.75 105.338 104.374 105.365 103.85 106.693C103.78 106.871 103.919 107.056 104.095 107.053C104.472 107.053 104.297 106.435 105.019 106.173C105.624 105.953 106.4 106.237 106.749 106.392C106.653 106.598 106.595 106.818 106.586 107.049C105.466 106.897 104.569 107.268 104.285 108.349C104.242 108.512 104.362 108.679 104.54 108.679C104.943 108.679 104.694 108.041 105.383 107.694C105.771 107.499 106.264 107.522 106.656 107.592C106.708 107.768 106.79 107.936 106.896 108.092C105.854 108.482 105.255 109.223 105.501 110.295C105.579 110.636 106.093 110.514 106.015 110.177C105.812 109.287 106.404 108.785 107.281 108.518C107.523 108.726 107.817 108.894 108.148 109.009C107.414 109.891 108.029 111.261 109.205 111.261C110.381 111.261 110.996 109.892 110.263 109.009C110.593 108.894 110.887 108.726 111.129 108.518C112.003 108.79 112.599 109.284 112.396 110.176C112.317 110.514 112.831 110.636 112.91 110.294C113.155 109.222 112.556 108.482 111.514 108.091C111.62 107.935 111.701 107.767 111.754 107.591C112.146 107.521 112.638 107.498 113.026 107.693C113.709 108.037 113.469 108.678 113.869 108.678C114.047 108.678 114.167 108.511 114.125 108.348C113.841 107.267 112.944 106.896 111.823 107.048C111.814 106.818 111.758 106.597 111.662 106.392C112.012 106.238 112.789 105.954 113.391 106.171C114.115 106.436 113.94 107.054 114.315 107.052C114.5 107.052 114.629 106.866 114.56 106.692L114.558 106.693Z" fill="black"/>
</g>
<g id="mail box">
<path id="vector_3" d="M97.7585 89.2581H86.5875V146.878H97.7585V89.2581Z" fill="#FFD997"/>
<path id="vector_4" d="M108.836 40.3044H64.7024C73.0819 40.3044 79.8752 45.1145 79.8752 58.4336V89.2582H118.041C121.337 89.2582 124.008 86.5873 124.008 83.292V58.4336C124.008 45.1145 117.215 40.3044 108.836 40.3044Z" fill="#81F8F8"/>
<path id="vector_5" d="M49.5298 89.2582V58.4336C49.5298 45.1145 56.323 40.3044 64.7026 40.3044C73.0821 40.3044 79.8754 45.1145 79.8754 58.4336V89.2582H49.5298Z" fill="white"/>
<path id="vector_6" d="M108.836 40.0415H64.7025C58.9381 40.0415 49.2668 42.4307 49.2668 58.4335V89.2589C49.2668 89.4043 49.3844 89.5225 49.5305 89.5225H86.3243V146.878C86.3243 147.226 86.8508 147.226 86.8508 146.878V89.5225H97.4953V146.878C97.4953 147.226 98.0218 147.226 98.0218 146.878V89.5225H118.042C121.478 89.5225 124.272 86.7281 124.272 83.2927V58.4335C124.272 42.4307 114.601 40.0415 108.836 40.0415ZM79.6124 88.9953H49.7933V58.4335C49.7933 46.9131 55.0885 40.568 64.7025 40.568C74.3166 40.568 79.6124 46.9131 79.6124 58.4335V88.9953ZM123.746 83.2927C123.746 86.4374 121.187 88.9953 118.042 88.9953H80.1397V58.4335C80.1397 46.1448 74.4371 41.8839 69.1789 40.568H108.836C118.451 40.568 123.746 46.9131 123.746 58.4335V83.2927Z" fill="black"/>
<path id="vector_7" d="M51.2795 87.5088V58.4339C51.2795 48.8123 55.0019 42.0552 64.7026 42.0552C74.4033 42.0552 78.1257 48.81 78.1257 58.4339V87.5088H51.2795Z" fill="black"/>
<path id="vector_8" d="M89.1394 61.7009C91.2077 61.7009 92.8844 60.0242 92.8844 57.9559C92.8844 55.8876 91.2077 54.2109 89.1394 54.2109C87.0711 54.2109 85.3944 55.8876 85.3944 57.9559C85.3944 60.0242 87.0711 61.7009 89.1394 61.7009Z" fill="white"/>
<path id="vector_9" d="M89.1391 61.9637C86.9284 61.9637 85.1305 60.1658 85.1305 57.9559C85.1305 55.7459 86.9292 53.9473 89.1391 53.9473C91.349 53.9473 93.147 55.7459 93.147 57.9559C93.147 60.1658 91.349 61.9637 89.1391 61.9637ZM89.1391 54.4738C87.2192 54.4738 85.657 56.0359 85.657 57.9559C85.657 59.8758 87.2192 61.4372 89.1391 61.4372C91.0591 61.4372 92.6205 59.8758 92.6205 57.9559C92.6205 56.0359 91.0591 54.4738 89.1391 54.4738Z" fill="black"/>
<path id="vector_10" d="M99.2266 19.875H86.4791V55.4276L88.4563 55.7612L90.6293 55.4276V30.7258C90.6293 30.1127 91.0376 29.5749 91.6274 29.4092L98.2579 27.5488C99.207 27.2829 99.8623 26.4174 99.8623 25.4322V20.51C99.8623 20.159 99.5783 19.875 99.2273 19.875H99.2266Z" fill="white"/>
<path id="vector_11" d="M99.226 19.6121H86.4779C86.3325 19.6121 86.2142 19.7296 86.2142 19.8757V55.4275C86.2142 55.5563 86.3069 55.6655 86.4334 55.6873C86.4681 55.6934 88.4204 56.0248 88.4558 56.0248L90.6688 55.6881C90.7976 55.6685 90.8925 55.5578 90.8925 55.4275V30.7258C90.8925 30.2332 91.2231 29.7963 91.6976 29.663L98.3282 27.8025C99.3857 27.505 100.125 26.5311 100.125 25.4322V20.5106C100.125 20.0158 99.7217 19.6128 99.2268 19.6128L99.226 19.6121ZM86.7415 20.1386H88.1929V55.4493L86.7415 55.2045V20.1386ZM99.5974 25.4314C99.5974 26.2946 99.0166 27.0614 98.1851 27.2949L91.5545 29.1553C90.854 29.3519 90.3652 29.9974 90.3652 30.7258V55.2008L88.7187 55.4539V20.1386H99.2253C99.4294 20.1386 99.5966 20.3058 99.5966 20.5099L99.5974 25.4314Z" fill="black"/>
<path id="vector_12" d="M90.2487 60.9456C91.7664 60.9456 92.9964 59.6071 92.9964 57.9561C92.9964 56.305 91.7664 54.9666 90.2487 54.9666C88.731 54.9666 87.501 56.305 87.501 57.9561C87.501 59.6071 88.731 60.9456 90.2487 60.9456Z" fill="white"/>
<path id="vector_13" d="M90.2485 61.2082C88.5877 61.2082 87.2372 59.7492 87.2372 57.9558C87.2372 56.1624 88.5877 54.7026 90.2485 54.7026C91.9094 54.7026 93.2599 56.1624 93.2599 57.9558C93.2599 59.7492 91.9094 61.2082 90.2485 61.2082ZM90.2485 55.2291C88.8792 55.2291 87.7637 56.4524 87.7637 57.9558C87.7637 59.4592 88.8784 60.6817 90.2485 60.6817C91.6186 60.6817 92.7334 59.4584 92.7334 57.9558C92.7334 56.4531 91.6186 55.2291 90.2485 55.2291Z" fill="black"/>
<path id="vector_14" d="M49.5205 89.2581C49.5205 89.2581 45.5661 106.517 44.3609 114.806C43.0714 123.68 49.1499 126.846 57.5294 126.846C65.9089 126.846 72.657 123.536 74.7065 114.806C76.0653 109.018 79.866 89.2581 79.866 89.2581H49.5205Z" fill="#FFD997"/>
<path id="vector_15" d="M57.5291 127.11C48.5613 127.11 42.8316 123.502 44.1 114.769C45.2924 106.563 49.2241 89.3727 49.2633 89.2002C49.2904 89.0805 49.3974 88.9961 49.5202 88.9961C81.614 88.9961 80.2115 88.853 80.1248 89.3094C80.0864 89.5068 76.3083 109.14 74.963 114.868C73.0823 122.877 67.0535 127.11 57.5291 127.11ZM49.7303 89.5226C49.2806 91.496 45.7398 107.146 44.622 114.846C43.398 123.27 48.9153 126.583 57.5291 126.583C63.9797 126.583 72.1528 124.529 74.4501 114.747C75.6989 109.428 79.0538 92.0768 79.5471 89.5226H49.7303Z" fill="black"/>
<path id="vector_16" d="M76.4739 67.9036C75.5444 66.495 74.4696 65.0752 73.464 63.8264C75.0119 62.1392 75.6295 60.6094 75.973 58.9079C76.7789 59.9458 77.5623 61.0433 78.1249 62.0277V61.0094C77.5547 60.1153 76.8633 59.1775 76.1703 58.2978C76.9379 57.3668 77.5193 55.8898 77.8899 54.4858C77.8086 53.8433 77.7054 53.2241 77.5811 52.6298C76.5454 51.0654 75.6318 49.8437 75.3516 49.4746C75.5806 49.1153 75.8299 48.6506 75.9767 48.0887C75.8457 47.8477 75.7086 47.6142 75.5662 47.3875C75.4887 48.2521 75.0917 48.927 74.7882 49.3722C74.6051 49.6396 75.1655 51.4819 72.3342 54.2839C72.0276 54.5905 72.5097 57.1145 69.4757 59.6491C69.2279 59.8562 69.2407 62.1505 66.3943 64.4229C66.3537 64.4553 66.3235 64.4998 66.3077 64.5495C65.7029 66.4634 64.268 68.9272 62.0535 70.1014C61.692 70.2943 61.5361 72.288 58.0743 74.5416C57.8175 74.7081 57.1064 77.2336 53.7508 78.8983C53.3825 78.89 53.506 79.5129 51.2795 81.5255V81.9932C51.376 82.0475 51.4995 82.0369 51.5861 81.9601C52.2158 81.3944 53.0805 80.5433 53.7584 79.6018C54.2502 80.2149 55.5134 81.771 57.0718 83.5486C53.9557 87.329 52.5766 87.0368 52.4485 87.5083H53.4119C55.1782 86.5336 56.244 85.3842 57.4243 83.9493C58.472 85.1319 59.6297 86.386 60.7655 87.5083H61.5203C60.2609 86.2918 58.9518 84.8795 57.7836 83.5592C59.5009 82.7615 60.7121 81.5895 61.7568 79.6997C62.8979 81.0826 64.219 82.6169 65.5989 84.0887C64.8344 85.3315 63.0779 86.795 62.2132 87.3237C62.1439 87.3659 62.1018 87.4352 62.0905 87.509H62.8866C63.7965 86.8658 65.2186 85.6373 65.9725 84.4841C67.0044 85.5672 68.0642 86.6044 69.1014 87.509H69.9126C68.712 86.5042 67.4692 85.2961 66.264 84.0261C67.1867 83.3174 69.1466 81.6174 70.0278 79.3818C71.1622 80.6178 72.3191 81.8614 73.4218 83.0251C73.2976 83.1502 72.8569 85.7382 70.6334 87.509H71.4341C72.2483 86.7362 73.2501 85.4422 73.818 83.4424C75.3666 85.0671 76.7932 86.5088 77.8786 87.5075L78.1257 87.5098V87.0179C77.0516 86.0214 75.6627 84.6144 74.1555 83.0327C75.0292 82.1122 76.0475 80.7911 76.8633 79.5076C78.0534 81.4886 77.9592 81.6234 78.1257 81.7251V80.6548C77.8507 80.1433 77.5299 79.589 77.1736 79.0037C77.5819 78.3198 77.9178 77.6645 78.1257 77.1064V76.5535C77.9795 76.4413 77.7679 76.5098 77.7137 76.683C77.5608 77.1704 77.255 77.8023 76.8573 78.4915C75.9534 77.0438 74.8635 75.4402 73.7389 73.8509C73.7472 73.8155 73.7548 73.7809 73.7623 73.7455C74.8665 72.8492 76.0882 71.1183 76.5816 69.0605C77.9042 71.2034 77.6911 71.4339 78.0217 71.4339C78.0564 71.4339 78.091 71.4271 78.1242 71.4128V70.765C77.7604 70.0005 77.2964 69.19 76.7729 68.3683C77.2986 67.7499 77.7476 67.0487 78.1242 66.2593C78.1242 63.3632 78.4149 65.5294 76.4731 67.9051L76.4739 67.9036ZM75.2303 50.1902C75.7222 50.8538 76.6253 52.1048 77.569 53.5736C77.2527 55.0763 76.6614 56.8222 75.8344 57.8745C74.4937 56.2076 73.2207 54.8225 72.8931 54.4699C74.2843 53.0411 75.0541 51.6326 75.2303 50.1902ZM72.7153 55.0559C73.2283 55.6178 74.3701 56.893 75.5391 58.3573C75.167 60.5002 74.5012 61.9027 73.1273 63.4114C71.6345 61.5826 70.3578 60.1884 70.0474 59.8532C71.5689 58.5072 72.4268 56.9661 72.7153 55.0559ZM69.7928 60.3541C70.2516 60.8572 71.4657 62.2085 72.8426 63.9062C72.2265 66.019 71.3136 67.4863 69.9096 68.6274C68.4265 66.6653 67.2545 65.1716 66.8847 64.7031C68.3354 63.4972 69.3326 62.0059 69.7928 60.3541ZM66.6301 65.2327C67.1332 65.8729 68.2646 67.3221 69.643 69.1486C69.1699 70.7974 67.7079 72.746 65.9394 74.0837C64.3109 72.2647 63.0757 70.8645 62.6418 70.3718C64.61 69.1803 65.9492 67.0494 66.6301 65.2319V65.2327ZM57.4258 83.1517C55.8968 81.4057 54.6577 79.8789 54.1719 79.2741C55.9623 78.3431 57.3361 76.9926 58.2641 75.2527C58.7409 75.8937 59.8881 77.4122 61.3952 79.2583C59.6975 82.4384 57.657 82.9573 57.4258 83.1517ZM61.7372 78.844C60.1697 76.9211 59.0045 75.3672 58.6016 74.8226C60.355 73.637 61.5331 72.3325 62.2765 70.7545C62.7352 71.2757 63.9471 72.6496 65.5364 74.4241C64.5663 76.5083 63.3566 77.9161 61.7372 78.844ZM65.8995 83.6382C64.5233 82.1665 63.2082 80.6337 62.0761 79.2575C63.7023 78.3047 64.9308 76.8939 65.9183 74.8497C67.0346 76.094 68.3098 77.5056 69.6264 78.9434C68.8363 81.2114 66.7973 82.9543 65.8995 83.6382ZM69.9706 78.539C68.6638 77.1116 67.3991 75.7114 66.2919 74.4769C67.7938 73.3282 69.3771 71.5265 70.0316 69.6661C71.0183 70.9812 72.1067 72.4583 73.1688 73.9541C72.6423 75.8786 71.236 77.3933 69.9714 78.5397L69.9706 78.539ZM76.553 78.9969C75.7681 80.2699 74.7332 81.655 73.7909 82.6478C72.6649 81.4607 71.4838 80.1885 70.3261 78.9276C71.5576 77.8114 72.9202 76.3539 73.5514 74.4972C74.6443 76.0511 75.6928 77.6042 76.553 78.9969ZM73.3932 73.3621C72.3108 71.8444 71.2111 70.3568 70.2259 69.0477C71.648 67.899 72.5933 66.4461 73.2411 64.4019C74.2361 65.6499 75.2845 67.0471 76.1748 68.4157C75.8043 70.5918 74.4899 72.4884 73.3925 73.3614L73.3932 73.3621Z" fill="white"/>
<path id="vector_17" d="M97.7585 89.2581H86.5875V90.7027H97.7585V89.2581Z" fill="black"/>
<path id="vector_18" d="M64.7025 41.7913C54.9032 41.7913 51.0166 48.5943 51.0166 58.4336V87.5092C51.0166 87.6546 51.1341 87.7728 51.2802 87.7728H78.1264C78.2717 87.7728 78.39 87.6553 78.39 87.5092V58.4336C78.39 48.6169 74.5192 41.7913 64.7025 41.7913ZM77.8627 87.2456H51.5439V58.4336C51.5439 48.8519 55.2346 42.3178 64.7033 42.3178C74.172 42.3178 77.8635 48.8722 77.8635 58.4336L77.8627 87.2456Z" fill="black"/>
</g>
<g id="fly">
<path id="vector_19" d="M46.8545 40.8809C46.1804 40.8809 45.5093 40.7785 44.8163 40.5442C44.4842 40.432 44.6536 39.9296 44.9858 40.0418C45.6193 40.2557 46.2331 40.3506 46.8545 40.3506C47.2055 40.3506 47.2055 40.8809 46.8545 40.8809ZM48.7059 40.0087C49.2859 39.788 49.8313 39.4619 50.3269 39.0393C50.5935 38.8111 50.9385 39.2148 50.6711 39.443C50.1295 39.9055 49.5315 40.2625 48.8943 40.5043C48.5606 40.6308 48.3821 40.1315 48.7059 40.0087ZM63.4946 39.7383C63.4471 39.0664 63.3839 38.4051 63.3055 37.7739C63.2618 37.4244 63.7891 37.3626 63.832 37.7084C63.9119 38.3494 63.9759 39.0197 64.0241 39.7014C64.049 40.0516 63.5194 40.0885 63.4946 39.7383ZM42.9845 39.6004C42.4264 39.2005 41.9262 38.7214 41.4984 38.1776C41.2815 37.9019 41.698 37.5743 41.9149 37.8492C42.3119 38.3539 42.7759 38.7975 43.2933 39.1688C43.5811 39.3752 43.2655 39.8023 42.9838 39.5997L42.9845 39.6004ZM51.584 37.6029C51.9199 37.0983 52.2385 36.4912 52.4652 35.8916C52.5895 35.5632 53.0859 35.7508 52.9616 36.0792C52.7206 36.7179 52.3816 37.3619 52.0254 37.8967C51.8348 38.1836 51.3874 37.8967 51.584 37.6029ZM40.4635 36.4008C40.2051 35.7688 40.0334 35.0992 39.9536 34.4108C39.9129 34.0605 40.4402 34.0033 40.4808 34.3498C40.5546 34.99 40.7143 35.6129 40.9546 36.2004C41.0879 36.5251 40.5961 36.7254 40.4635 36.4008ZM63.2626 36.0423C62.9131 36.0423 63.0788 35.814 62.5659 33.9076C62.4747 33.5694 62.9869 33.4293 63.0781 33.7698C63.246 34.3935 63.3952 35.0518 63.5232 35.7274C63.5541 35.8909 63.4298 36.0423 63.2626 36.0423ZM52.9383 34.0236C53.0241 33.4218 53.058 32.7748 53.0287 32.0879C53.0136 31.7376 53.5439 31.715 53.5589 32.0653C53.589 32.7658 53.5567 33.4459 53.4633 34.099C53.4135 34.4462 52.8886 34.3709 52.9383 34.0236ZM40.2428 32.6618C40.0816 32.6618 39.9581 32.5195 39.9799 32.3605C40.0696 31.706 40.2375 31.0394 40.4793 30.3803C40.5998 30.0504 41.0985 30.2327 40.9772 30.5626C40.3716 32.2159 40.6578 32.6618 40.2428 32.6618ZM62.2209 32.2099C61.8887 32.2099 62.0371 31.9124 61.1928 30.2417C61.0346 29.9284 61.5076 29.6889 61.6665 30.0022C61.9588 30.5807 62.2292 31.2028 62.4702 31.8521C62.535 32.0269 62.4039 32.2099 62.2209 32.2099ZM53.0475 30.3698C52.6739 30.3698 52.8803 30.0173 52.2626 28.2788C52.1451 27.9482 52.6453 27.7704 52.7628 28.1011C52.9925 28.7466 53.1755 29.4026 53.3081 30.0512C53.3412 30.2161 53.2147 30.3698 53.0475 30.3698ZM41.6325 28.9726C41.4208 28.9726 41.2913 28.7315 41.4156 28.5545C41.7869 28.0265 42.2426 27.5121 42.7706 27.0263C43.029 26.7882 43.3882 27.1784 43.1299 27.4164C41.8185 28.6246 41.9443 28.9726 41.6325 28.9726ZM60.417 28.6803C60.1149 28.6803 60.194 28.3248 58.9678 27.0654C58.723 26.8138 59.1033 26.444 59.3481 26.6956C59.8068 27.1671 60.2399 27.6944 60.6354 28.2638C60.7589 28.4415 60.6271 28.6803 60.417 28.6803ZM51.7294 26.6293C51.4213 26.6293 51.5531 26.3717 50.5076 24.7922C50.3141 24.5 50.757 24.2062 50.9498 24.4992C51.3249 25.0656 51.6668 25.6531 51.9651 26.2444C52.0547 26.4222 51.9244 26.6293 51.7294 26.6293ZM44.5226 26.27C44.2597 26.27 44.1573 25.9266 44.3772 25.7827C44.9361 25.4181 45.5326 25.0882 46.151 24.802C46.4696 24.6544 46.6918 25.1364 46.3732 25.2833C44.9143 25.9574 44.7365 26.2693 44.5218 26.2693L44.5226 26.27ZM57.6466 25.8595C57.4169 25.8595 57.1713 25.4596 55.8088 24.8713C55.4864 24.7327 55.6973 24.2446 56.0189 24.384C56.6411 24.6521 57.2399 24.9858 57.7988 25.376C58.0112 25.5243 57.9057 25.8595 57.6466 25.8595ZM48.1222 24.6054C47.8179 24.6054 47.7546 24.1723 48.0469 24.0857C48.7014 23.8906 49.368 23.7445 50.0278 23.6518C50.3736 23.6014 50.4511 24.1286 50.1017 24.1768C48.8475 24.3531 48.2548 24.6054 48.1222 24.6054ZM54.0221 24.2928C53.9114 24.2928 53.2448 24.094 52.0419 24.0631C51.7007 24.0541 51.694 23.5366 52.0555 23.5328C52.7447 23.5502 53.4248 23.6292 54.0771 23.7678C54.3867 23.8334 54.3393 24.2928 54.0221 24.2928ZM49.542 23.3159C49.2829 23.3159 49.3575 23.0997 48.007 21.7801C47.7561 21.5346 48.1267 21.1557 48.3775 21.4012C48.8611 21.8735 49.3213 22.3721 49.7454 22.8813C49.8908 23.056 49.7635 23.3159 49.542 23.3159ZM46.7046 20.5365C46.4885 20.5365 46.4953 20.343 44.9534 19.3186C44.6612 19.1243 44.9549 18.6829 45.2472 18.8765C45.8098 19.25 46.3559 19.65 46.8719 20.0643C47.0662 20.2209 46.954 20.5365 46.7046 20.5365ZM43.2707 18.3025C42.7036 17.9922 42.1108 17.6984 41.5082 17.4288C41.1881 17.2849 41.4043 16.8013 41.7251 16.9445C42.3405 17.2201 42.9461 17.5199 43.5253 17.837C43.8326 18.005 43.5781 18.4705 43.2707 18.3025ZM39.7728 16.7094C39.6267 16.7094 39.3352 16.5249 37.8077 16.0918C37.4702 15.9962 37.6148 15.4847 37.9523 15.5811C38.6 15.7649 39.2425 15.9705 39.8632 16.1942C40.1419 16.2944 40.0688 16.7094 39.7728 16.7094Z" fill="black"/>
<path id="vector_20" d="M32.4657 4.08741C36.0887 5.30687 32.8303 11.8922 29.6683 12.769C29.5764 12.7946 29.4785 12.7584 29.4242 12.6801C26.0672 7.79097 30.1759 3.31687 32.4657 4.08741Z" fill="white"/>
<path id="vector_21" d="M29.2337 12.8116C27.9178 10.8955 27.1827 7.95942 29.065 5.46702C31.2486 2.57617 34.3676 3.71128 34.2893 6.58404C34.22 9.15177 31.9189 12.3868 29.7301 12.9932C29.541 13.0459 29.3422 12.9713 29.2329 12.8124L29.2337 12.8116ZM29.6163 12.5488C32.6187 11.7074 35.7159 5.42634 32.3919 4.30782C30.2295 3.58096 26.4408 7.92478 29.6163 12.5488Z" fill="black"/>
<path id="vector_22" d="M30.3565 11.9698C28.6445 10.9943 26.4413 12.32 26.6469 14.2791C26.7878 15.6251 28.063 16.5779 29.4504 16.3738C32.0234 17.9397 36.0719 16.7474 36.1134 14.4704C36.1488 12.5038 33.0674 11.1066 30.3565 11.9698Z" fill="black"/>
<path id="vector_23" d="M39.0754 7.08102C42.0785 10.4705 34.9214 15.3054 31.1064 14.4256C30.946 14.3887 30.8292 14.2517 30.8172 14.0882C30.3057 7.09684 37.1705 4.93134 39.0754 7.08177V7.08102Z" fill="white"/>
<path id="vector_24" d="M31.0534 14.6521C30.7928 14.5919 30.6045 14.372 30.5849 14.1053C30.3107 10.3573 32.1433 7.63067 34.7765 6.52041C38.6925 4.86936 41.1683 7.82048 39.4736 10.6729C37.9543 13.2293 33.7137 15.2645 31.0534 14.6521ZM34.9565 6.94824C31.7878 8.28446 30.8598 11.5037 31.0481 14.0714C31.0526 14.1339 31.0971 14.1859 31.1581 14.1995C34.8036 15.0393 41.7046 10.3995 38.9019 7.23521C38.0199 6.24021 36.2212 6.41496 34.9573 6.94748L34.9565 6.94824Z" fill="black"/>
<path id="vector_25" d="M31.5377 12.9058C32.1079 11.553 32.959 10.3765 34.0677 9.40861C34.25 9.25043 34.4895 9.5246 34.3073 9.68353C33.2407 10.6145 32.4212 11.7466 31.8736 13.0474C31.7802 13.2696 31.4435 13.128 31.5377 12.9058Z" fill="black"/>
<path id="vector_26" d="M29.7325 11.1556C29.5977 9.98209 29.6813 8.80406 29.9804 7.65315C30.0406 7.41962 30.3939 7.51151 30.3336 7.74504C30.0459 8.85227 29.966 9.98586 30.0956 11.1142C30.1227 11.3484 29.7604 11.3996 29.7325 11.1556Z" fill="black"/>
<path id="vector_27" d="M32.2859 13.4619C33.5008 11.8832 34.956 11.0132 35.9631 10.562C36.183 10.4633 36.3322 10.7963 36.1122 10.8949C35.1436 11.3288 33.7441 12.1656 32.5751 13.6841C32.4313 13.8717 32.1375 13.6547 32.2859 13.4619Z" fill="black"/>
<path id="vector_28" d="M60.7789 63.286C60.9333 62.6398 61.084 61.989 61.2271 61.3518C61.3039 61.0091 61.8214 61.1258 61.7446 61.4678C61.6014 62.1073 61.45 62.7603 61.2949 63.4096C61.2135 63.7508 60.6976 63.6273 60.7789 63.286Z" fill="white"/>
<path id="vector_29" d="M61.6469 59.4116C61.7832 58.7586 61.9135 58.104 62.0363 57.4653C62.1018 57.1203 62.6231 57.2205 62.5575 57.5647C62.4347 58.2065 62.3037 58.864 62.1666 59.5201C62.095 59.8635 61.5753 59.7558 61.6469 59.4116Z" fill="white"/>
<path id="vector_30" d="M62.3914 55.5128C62.5052 54.8552 62.6121 54.1961 62.71 53.5544C62.762 53.2109 63.2878 53.2855 63.2343 53.6342C63.1356 54.2798 63.0279 54.9418 62.9142 55.6032C62.8539 55.9489 62.3319 55.8592 62.3914 55.5128Z" fill="white"/>
<path id="vector_31" d="M62.9892 51.5903C63.0758 50.9252 63.1541 50.2632 63.2227 49.6214C63.2596 49.275 63.7876 49.3269 63.7499 49.6772C63.6814 50.3234 63.6023 50.99 63.5149 51.6589C63.4697 52.0069 62.9432 51.9383 62.9892 51.5903Z" fill="white"/>
<path id="vector_32" d="M63.4057 47.6474C63.4584 46.9786 63.5013 46.3135 63.533 45.6702C63.5503 45.3132 64.0798 45.3493 64.0632 45.6958C64.0316 46.3451 63.9887 47.0155 63.9352 47.6888C63.9073 48.0436 63.3786 47.9879 63.4057 47.6474Z" fill="white"/>
<path id="vector_33" d="M63.5961 43.691C63.6051 43.0342 63.6036 42.3766 63.587 41.713C63.578 41.359 64.109 41.3545 64.1173 41.6995C64.1331 42.3246 64.1369 42.995 64.1263 43.6985C64.1218 44.0488 63.5908 44.0412 63.5961 43.691Z" fill="white"/>
</g>
</g>
</g>
</svg>
