<svg width="151" height="151" viewBox="0 0 151 151" fill="none" xmlns="http://www.w3.org/2000/svg">
<g id="Faq--Streamline-London">
<path id="Vector" d="M138.279 102.839L146.48 115.67L133.157 108.087C128.846 111.596 123.698 113.927 118.217 114.851C112.735 115.774 107.108 115.259 101.885 113.356C96.6623 111.453 92.023 108.227 88.4209 103.993C84.8189 99.7588 82.3776 94.6624 81.3357 89.2021C83.3182 85.6415 84.4931 81.6883 84.7771 77.6229L84.8472 77.629C89.0655 74.9336 92.6739 71.3862 95.4407 67.2144C98.2076 63.0427 100.072 58.3386 100.914 53.404C107.455 50.7808 114.678 50.3821 121.468 52.2695C128.258 54.1568 134.239 58.2255 138.488 63.848C142.737 69.4705 145.019 76.3347 144.981 83.3822C144.944 90.4297 142.589 97.2691 138.28 102.846L138.279 102.839ZM121.418 65.695C121.566 65.0621 121.584 64.4059 121.472 63.7657C121.36 63.1256 121.119 62.5148 120.765 61.97C120.41 61.4252 119.949 60.9577 119.41 60.5956C118.87 60.2335 118.263 59.9842 117.624 59.8628L115.911 59.539C115.273 59.417 114.617 59.4255 113.982 59.5639C113.347 59.7023 112.746 59.9678 112.217 60.3444C111.687 60.7209 111.239 61.2008 110.9 61.755C110.561 62.3093 110.337 62.9265 110.243 63.5694L106.819 86.2412C106.784 86.475 106.766 86.7113 106.767 86.9477C106.769 88.1299 107.204 89.2703 107.991 90.1523C108.778 91.0342 109.862 91.5962 111.037 91.7314C112.211 91.8666 113.394 91.5656 114.361 90.8855C115.328 90.2055 116.011 89.1938 116.281 88.0429L121.418 65.695ZM115.593 101.205C116.223 97.8837 114.146 94.8302 110.386 94.1138C106.567 93.3892 103.51 95.4696 102.879 98.7838C102.273 101.977 104.353 105.035 108.171 105.759C111.928 106.479 114.988 104.396 115.595 101.205H115.593Z" fill="#FFD997"/>
<path id="Vector_2" d="M72.0632 56.7929C75.9338 59.9087 78.7511 64.1409 80.132 68.9141C81.5129 73.6873 81.3905 78.7699 79.7814 83.4711L79.5629 83.3958C74.5514 85.8946 69.0433 87.2376 63.4441 87.3261C50.665 87.3261 38.8893 81.0329 33.3155 71.565L33.0579 71.5198C33.848 66.9357 35.9438 62.6769 39.0938 59.2541C42.2438 55.8312 46.3144 53.3898 50.8172 52.2224L51.245 53.469C51.5358 54.3239 53.9076 61.2143 54.4718 61.8515C55.3498 62.8454 56.5043 63.5547 57.7876 63.8887C59.071 64.2228 60.4248 64.1664 61.6759 63.7267C62.9271 63.2871 64.0186 62.4842 64.8108 61.4207C65.6031 60.3573 66.0601 59.0817 66.1233 57.757C65.8096 56.077 65.3923 54.418 64.8737 52.7896C67.4814 53.7033 69.9131 55.0574 72.0632 56.7929ZM66.9744 81.2484C71.8267 79.7291 74.1074 75.3733 72.8126 71.2434C71.4689 66.9553 67.1108 64.6776 62.2585 66.1968C57.3212 67.7439 55.0442 72.099 56.3835 76.3871C57.679 80.5192 62.0371 82.7932 66.9744 81.2468V81.2484Z" fill="#FFD997"/>
<path id="Vector_3" d="M100.913 53.3971C100.071 58.3317 98.2067 63.0357 95.4399 67.2075C92.673 71.3793 89.0646 74.9266 84.8463 77.622L84.7763 77.616C85.1895 71.7839 83.7647 65.9689 80.7021 60.9885C77.6396 56.008 73.0933 52.1125 67.7024 49.8494C74.2079 46.6226 77.4557 40.7754 75.2571 33.4512C74.124 29.8411 71.6709 26.7913 68.3876 24.9108C65.1042 23.0303 61.2324 22.4575 57.5452 23.3068C49.6244 25.0573 45.0027 29.2753 43.4676 34.3098C43.2236 35.133 43.175 36.0016 43.3255 36.8469C43.4761 37.6921 43.8216 38.4906 44.3348 39.1788C44.848 39.8671 45.5146 40.4263 46.2817 40.8118C47.0487 41.1973 47.8952 41.3987 48.7537 41.3998C49.3218 41.3979 49.8863 41.3101 50.4281 41.1392C51.37 40.8567 52.2172 40.3229 52.8786 39.5951C53.54 38.8674 53.9907 37.9732 54.1821 37.0086C54.4947 35.292 55.7353 33.946 57.8849 33.2726C60.7999 32.3597 63.238 33.6334 64.172 36.6147C64.3942 37.262 64.5119 37.9406 64.5208 38.625C64.5208 42.1651 60.8692 44.1988 55.568 45.8611C55.0451 46.0246 54.5607 46.2925 54.1442 46.6485C53.7277 47.0045 53.3878 47.4413 53.1449 47.9325C48.5762 48.5531 44.2317 50.2934 40.4981 52.9986C36.7644 55.7039 33.7574 59.2901 31.7446 63.4382L31.5683 63.3538C28.5797 58.3531 27.0716 52.6069 27.2192 46.7831C27.2158 42.2029 28.1488 37.6704 29.9609 33.464L17.3235 20.7414L34.5194 25.794C38.0842 21.3086 42.6231 17.6934 47.7922 15.2222C52.9613 12.7511 58.625 11.4888 64.3543 11.5311C84.8614 11.5311 101.488 27.3162 101.488 46.7861C101.49 49.0023 101.298 51.2145 100.913 53.3971Z" fill="#FFD997"/>
<path id="Vector_4" d="M25.9165 107.694L27.3667 105.895L33.6403 110.951L32.1901 112.751L25.9165 107.694Z" fill="#81F8F8"/>
<path id="Vector_5" d="M117.626 59.8623C118.265 59.9837 118.872 60.2329 119.412 60.5951C119.952 60.9572 120.413 61.4247 120.767 61.9694C121.121 62.5142 121.362 63.1251 121.474 63.7652C121.587 64.4054 121.568 65.0616 121.42 65.6945L116.283 88.0424C116.014 89.1933 115.33 90.205 114.363 90.885C113.396 91.565 112.213 91.8661 111.039 91.7309C109.865 91.5957 108.781 91.0337 107.994 90.1518C107.206 89.2698 106.771 88.1294 106.77 86.9472C106.769 86.7107 106.786 86.4745 106.822 86.2407L110.245 63.5689C110.339 62.926 110.563 62.3088 110.902 61.7545C111.242 61.2003 111.689 60.7204 112.219 60.3439C112.749 59.9673 113.349 59.7018 113.984 59.5634C114.619 59.425 115.275 59.4165 115.914 59.5384L117.626 59.8623Z" fill="white"/>
<path id="Vector_6" d="M110.388 94.1138C114.148 94.8301 116.225 97.8837 115.595 101.205C114.988 104.398 111.931 106.477 108.173 105.762C104.355 105.038 102.275 101.981 102.882 98.7875C103.513 95.4666 106.569 93.3892 110.388 94.1138Z" fill="white"/>
<path id="Vector_7" d="M50.82 52.2234C45.2316 53.685 40.354 57.1049 37.0752 61.8605C33.7964 66.6161 32.3345 72.391 32.9556 78.1339C33.5768 83.8767 36.2397 89.2055 40.4595 93.15C44.6793 97.0945 50.1754 99.3924 55.9471 99.6253C61.7187 99.8582 67.382 98.0106 71.9059 94.4189C76.4298 90.8272 79.5134 85.7302 80.5952 80.0561C81.6771 74.382 80.6852 68.508 77.8002 63.5037C74.9152 58.4995 70.3289 54.6977 64.8765 52.7906C60.3525 51.2034 55.4571 51.0059 50.82 52.2234ZM74.4235 53.8549C79.5552 57.986 83.0627 63.7969 84.3273 70.2623C85.5918 76.7277 84.5321 83.4319 81.335 89.192C79.4381 92.5992 76.8498 95.5722 73.7362 97.9202C70.6227 100.268 67.0526 101.939 63.2552 102.826C59.4577 103.713 55.5168 103.796 51.6853 103.071C47.8538 102.345 44.2163 100.826 41.0063 98.6118C40.4515 98.2291 39.9066 97.8226 39.3719 97.3923C38.8371 96.962 38.3224 96.515 37.8278 96.0516C32.5224 91.119 29.3399 84.319 28.9512 77.0854C28.5625 69.8517 30.9981 62.7498 35.7443 57.2772C40.4905 51.8045 47.1765 48.3889 54.3924 47.7504C61.6083 47.112 68.7901 49.3006 74.4235 53.8549Z" fill="#81F8F8"/>
<path id="Vector_8" d="M75.2577 33.4516C77.4563 40.7758 74.2084 46.623 67.7029 49.8498C63.1077 47.9229 58.0803 47.262 53.1432 47.9359C53.3861 47.4447 53.726 47.0079 54.1425 46.6519C54.559 46.2959 55.0434 46.028 55.5663 45.8646C60.8675 44.203 64.519 42.1648 64.519 38.6284C64.5102 37.944 64.3925 37.2654 64.1703 36.6181C63.2363 33.6368 60.7982 32.3632 57.8832 33.2761C55.7335 33.9494 54.4937 35.2954 54.1804 37.012C53.9889 37.9766 53.5383 38.8708 52.8769 39.5986C52.2155 40.3263 51.3683 40.8601 50.4264 41.1426C49.8846 41.3135 49.3201 41.4014 48.752 41.4033C47.8934 41.4021 47.047 41.2008 46.2799 40.8152C45.5129 40.4297 44.8463 39.8705 44.3331 39.1823C43.8199 38.494 43.4744 37.6955 43.3238 36.8503C43.1733 36.0051 43.2219 35.1364 43.4659 34.3132C45.001 29.2787 49.6227 25.0607 57.5435 23.3103C61.2306 22.4601 65.1027 23.0322 68.3864 24.9121C71.6702 26.7921 74.124 29.8416 75.2577 33.4516Z" fill="white"/>
<path id="Vector_9" d="M72.8125 71.2417C74.1073 75.3694 71.8265 79.7275 66.9743 81.2467C62.037 82.7931 57.6789 80.5161 56.3871 76.3885C55.0441 72.1004 57.3211 67.7453 62.2622 66.1982C67.1106 64.676 71.4687 66.9537 72.8125 71.2417Z" fill="white"/>
<path id="Vector_10" d="M64.8761 52.7904C65.3947 54.4189 65.812 56.0779 66.1257 57.7579C66.0604 59.121 65.5781 60.4313 64.744 61.5114C63.9098 62.5915 62.7641 63.3894 61.4618 63.7972C60.2336 64.1828 58.92 64.2042 57.6799 63.8586C56.4399 63.513 55.3266 62.8154 54.4749 61.8501C53.9108 61.2129 51.5374 54.3225 51.2481 53.4676L50.8203 52.221C55.4586 51.015 60.3505 51.2132 64.8761 52.7904Z" fill="white"/>
<path id="Vector_11" d="M41.0063 98.6181L40.9641 98.6814L32.0995 109.693L28.9119 107.124L37.7765 96.1106L37.8277 96.0557C38.3223 96.5196 38.837 96.9666 39.3718 97.3964C39.9066 97.8262 40.4514 98.2335 41.0063 98.6181Z" fill="#81F8F8"/>
<path id="Vector_12" d="M4.25464 134.581L25.9028 107.693L32.1793 112.746L10.5311 139.635L4.25464 134.581Z" fill="black"/>
<path id="Vector_13" d="M4.25847 134.585L10.5335 139.638C9.86203 140.465 8.88996 140.993 7.83015 141.105C6.77035 141.218 5.70921 140.905 4.87911 140.237C4.049 139.569 3.5176 138.599 3.40128 137.539C3.28495 136.48 3.59318 135.418 4.25847 134.585Z" fill="#81F8F8"/>
<path id="Vector_14" d="M81.3346 89.1981C79.4377 92.6053 76.8494 95.5783 73.7358 97.9263C70.6222 100.274 67.0522 101.945 63.2547 102.832C59.4573 103.719 55.5164 103.803 51.6849 103.077C47.8533 102.351 44.2159 100.832 41.0059 98.6179C40.451 98.2352 39.9062 97.8287 39.3714 97.3984C38.8366 96.9681 38.322 96.5212 37.8273 96.0577C34.0006 92.4837 31.255 87.9065 29.9035 82.8478C28.5519 77.7891 28.6489 72.4525 30.1833 67.4462C31.7177 62.44 34.6278 57.9655 38.5818 54.5329C42.5358 51.1004 47.3748 48.8478 52.5469 48.032C57.7191 47.2161 63.0165 47.8699 67.8351 49.9187C72.6538 51.9675 76.7998 55.329 79.8007 59.6199C82.8015 63.9108 84.5365 68.9585 84.8077 74.1876C85.0789 79.4167 83.8755 84.6168 81.3346 89.1951" stroke="black" stroke-width="0.376608" stroke-linecap="round" stroke-linejoin="round"/>
<path id="Vector_15" d="M79.7812 83.4691C78.1171 88.3437 74.9421 92.5608 70.7175 95.5077C66.4929 98.4546 61.4387 99.9777 56.2893 99.8558C51.1399 99.7339 46.1634 97.9733 42.083 94.8298C38.0026 91.6863 35.0307 87.3237 33.5991 82.3758C32.1676 77.4279 32.3509 72.1524 34.1225 67.3158C35.8941 62.4791 39.1617 58.3334 43.4505 55.4807C47.7393 52.6281 52.826 51.2173 57.9714 51.4532C63.1169 51.689 68.0531 53.5594 72.063 56.7924C75.9368 59.9054 78.7564 64.1373 80.1376 68.9111C81.5188 73.6849 81.3943 78.7685 79.7812 83.4691Z" stroke="black" stroke-width="0.376608" stroke-linecap="round" stroke-linejoin="round"/>
<path id="Vector_16" d="M40.9641 98.6815L32.0995 109.694L28.9119 107.124L37.7765 96.113" stroke="black" stroke-width="0.376608" stroke-linecap="round" stroke-linejoin="round"/>
<path id="Vector_17" d="M10.5335 139.637C9.86204 140.465 8.88996 140.993 7.83015 141.105C6.77035 141.217 5.70921 140.905 4.87911 140.237C4.049 139.568 3.5176 138.598 3.40128 137.539C3.28495 136.48 3.59318 135.417 4.25847 134.585L25.9059 107.695L27.3558 105.897L33.6331 110.949L32.1832 112.747L10.5335 139.637Z" stroke="black" stroke-width="0.376608" stroke-linecap="round" stroke-linejoin="round"/>
<path id="Vector_18" d="M4.25854 134.585L10.5336 139.638" stroke="black" stroke-width="0.376608" stroke-linecap="round" stroke-linejoin="round"/>
<path id="Vector_19" d="M25.9065 107.694L32.1838 112.747" stroke="black" stroke-width="0.376608" stroke-linecap="round" stroke-linejoin="round"/>
<path id="Vector_20" d="M34.5195 25.791C38.0846 21.3061 42.6236 17.6915 47.7927 15.2209C52.9618 12.7503 58.6254 11.4885 64.3544 11.5311C84.8615 11.5311 101.488 27.3162 101.488 46.7861C101.49 49.0024 101.297 51.2146 100.912 53.3971C100.07 58.3317 98.2053 63.0357 95.4385 67.2075C92.6716 71.3793 89.0632 74.9267 84.8449 77.622" stroke="black" stroke-width="0.376608" stroke-linecap="round" stroke-linejoin="round"/>
<path id="Vector_21" d="M31.5687 63.3542C28.5801 58.3535 27.072 52.6073 27.2196 46.7835C27.2162 42.2033 28.1492 37.6708 29.9613 33.4644" stroke="black" stroke-width="0.376608" stroke-linecap="round" stroke-linejoin="round"/>
<path id="Vector_22" d="M79.5639 83.3969C74.5524 85.8958 69.0443 87.2388 63.4451 87.3272C50.666 87.3272 38.8902 81.0341 33.3164 71.5662" stroke="black" stroke-width="0.376608" stroke-linecap="round" stroke-linejoin="round"/>
<path id="Vector_23" d="M34.5196 25.794L17.3245 20.7415L29.9642 33.467" stroke="black" stroke-width="0.376608" stroke-linecap="round" stroke-linejoin="round"/>
<path id="Vector_24" d="M133.158 108.083L146.481 115.67L138.28 102.839" stroke="black" stroke-width="0.376608" stroke-linecap="round" stroke-linejoin="round"/>
<path id="Vector_25" d="M133.157 108.087C128.846 111.597 123.698 113.927 118.217 114.851C112.735 115.775 107.108 115.26 101.885 113.356C96.6623 111.453 92.023 108.227 88.4209 103.993C84.8189 99.759 82.3776 94.6627 81.3357 89.2024" stroke="black" stroke-width="0.376608" stroke-linecap="round" stroke-linejoin="round"/>
<path id="Vector_26" d="M100.91 53.397C107.452 50.7732 114.674 50.3741 121.465 52.2613C128.255 54.1484 134.237 58.2169 138.486 63.8395C142.736 69.4621 145.018 76.3265 144.98 83.3742C144.943 90.422 142.588 97.2618 138.279 102.839" stroke="black" stroke-width="0.376608" stroke-linecap="round" stroke-linejoin="round"/>
<path id="Vector_27" d="M64.8761 52.7908C65.3947 54.4193 65.812 56.0782 66.1257 57.7583C66.0604 59.1214 65.5781 60.4316 64.744 61.5117C63.9098 62.5919 62.7641 63.3898 61.4617 63.7975C60.2336 64.1832 58.92 64.2045 57.6799 63.859C56.4399 63.5134 55.3266 62.8157 54.4749 61.8505C53.9108 61.2133 51.5374 54.3228 51.2481 53.4679L50.8203 52.2214V52.2153" stroke="black" stroke-width="0.376608" stroke-linecap="round" stroke-linejoin="round"/>
<path id="Vector_28" d="M66.9743 81.2464C62.037 82.7928 57.6789 80.5158 56.3871 76.3882C55.0441 72.1001 57.3211 67.745 62.2622 66.1979C67.1144 64.6757 71.4725 66.9511 72.8163 71.2445C74.1073 75.3691 71.8265 79.7272 66.9743 81.2464Z" stroke="black" stroke-width="0.376608" stroke-linecap="round" stroke-linejoin="round"/>
<path id="Vector_29" d="M53.1432 47.9325C53.3861 47.4414 53.726 47.0046 54.1425 46.6485C54.559 46.2925 55.0434 46.0247 55.5663 45.8612C60.8675 44.1996 64.519 42.1614 64.519 38.625C64.5102 37.9407 64.3925 37.2621 64.1703 36.6147C63.2363 33.6335 60.7982 32.3598 57.8832 33.2727C55.7335 33.9461 54.4937 35.2921 54.1804 37.0086C53.9889 37.9732 53.5383 38.8674 52.8769 39.5952C52.2155 40.3229 51.3683 40.8567 50.4264 41.1393C49.8846 41.3101 49.3201 41.398 48.752 41.3999C47.8934 41.3987 47.047 41.1974 46.2799 40.8118C45.5129 40.4263 44.8463 39.8672 44.3331 39.1789C43.8199 38.4906 43.4744 37.6921 43.3238 36.8469C43.1733 36.0017 43.2219 35.133 43.4659 34.3099C45.001 29.2754 49.6227 25.0574 57.5435 23.3069C61.231 22.4569 65.1034 23.0294 68.3872 24.9099C71.6711 26.7905 74.1246 29.8406 75.2577 33.4512C77.4563 40.7755 74.2084 46.6227 67.7029 49.8495" stroke="black" stroke-width="0.376608" stroke-linecap="round" stroke-linejoin="round"/>
<path id="Vector_30" d="M108.173 105.762C104.355 105.038 102.275 101.981 102.881 98.7875C103.512 95.4666 106.572 93.3892 110.387 94.1176C114.148 94.8339 116.225 97.8874 115.594 101.208C114.987 104.396 111.927 106.479 108.173 105.762Z" stroke="black" stroke-width="0.376608" stroke-linecap="round" stroke-linejoin="round"/>
<path id="Vector_31" d="M115.914 59.5384L117.626 59.8623C118.265 59.9837 118.872 60.2329 119.412 60.5951C119.952 60.9572 120.413 61.4247 120.767 61.9694C121.121 62.5142 121.362 63.1251 121.474 63.7652C121.587 64.4054 121.568 65.0616 121.42 65.6945L116.283 88.0424C116.014 89.1933 115.33 90.205 114.363 90.885C113.396 91.565 112.213 91.8661 111.039 91.7309C109.865 91.5957 108.781 91.0337 107.994 90.1518C107.206 89.2698 106.771 88.1294 106.77 86.9472C106.769 86.7107 106.786 86.4745 106.822 86.2407L110.245 63.5689C110.339 62.926 110.563 62.3088 110.902 61.7545C111.242 61.2003 111.689 60.7204 112.219 60.3439C112.749 59.9673 113.349 59.7018 113.984 59.5634C114.619 59.425 115.275 59.4165 115.914 59.5384Z" stroke="black" stroke-width="0.376608" stroke-linecap="round" stroke-linejoin="round"/>
<path id="Vector_32" d="M83.7578 10.7522C96.6948 10.7538 109.261 15.0748 119.463 23.0298C129.665 30.9848 136.919 42.1184 140.074 54.6647" stroke="black" stroke-width="0.376608" stroke-linecap="round" stroke-linejoin="round"/>
<path id="Vector_33" d="M106.772 122.118C96.2054 126.671 84.5247 127.984 73.2107 125.892C61.8967 123.799 51.4586 118.395 43.2195 110.363" stroke="black" stroke-width="0.376608" stroke-linecap="round" stroke-linejoin="round"/>
<path id="Vector_34" d="M134.413 49.9978L140.318 55.3231L141.977 47.5476" stroke="black" stroke-width="0.376608" stroke-linecap="round" stroke-linejoin="round"/>
<path id="Vector_35" d="M50.5163 111.47L42.7017 110.002L45.3364 117.502" stroke="black" stroke-width="0.376608" stroke-linecap="round" stroke-linejoin="round"/>
</g>
</svg>
