<svg width="151" height="151" viewBox="0 0 151 151" fill="none" xmlns="http://www.w3.org/2000/svg">
<g id="Interface-Change-Setting--Streamline-London">
<g id="Interface-Change-Setting--Streamline-London.svg">
<path id="Vector" d="M54.7369 31.9362L51.8799 30.3191C52.0358 28.9915 52.0358 27.6501 51.8799 26.3225L54.7369 24.7054C54.806 24.6663 54.861 24.6063 54.894 24.5341C54.927 24.4618 54.9364 24.381 54.9207 24.3031C54.6084 22.7486 54.1168 21.2356 53.4557 19.7944C53.4225 19.7223 53.3675 19.6625 53.2984 19.6236C53.2292 19.5846 53.1496 19.5685 53.0708 19.5775L49.8086 19.9481C49.1545 18.7821 48.3661 17.6968 47.4593 16.7145L48.8151 13.7265C48.8478 13.6544 48.857 13.5738 48.8413 13.4962C48.8256 13.4186 48.7859 13.3479 48.7277 13.2941C47.5622 12.2192 46.2753 11.2839 44.8931 10.5072C44.8239 10.4683 44.7442 10.4522 44.6654 10.4613C44.5865 10.4703 44.5125 10.5041 44.454 10.5577L42.0331 12.7744C40.8186 12.2156 39.5427 11.801 38.2317 11.5391L37.5756 8.32291C37.5602 8.24473 37.5204 8.17344 37.462 8.1193C37.4035 8.06516 37.3293 8.03096 37.2502 8.02163C35.6753 7.83784 34.0844 7.83784 32.5095 8.02163C32.4303 8.03096 32.3562 8.06516 32.2977 8.1193C32.2393 8.17344 32.1995 8.24473 32.1841 8.32291L31.528 11.5391C30.217 11.801 28.9411 12.2156 27.7265 12.7744L25.3087 10.5539C25.2502 10.5003 25.1762 10.4666 25.0973 10.4575C25.0185 10.4484 24.9388 10.4645 24.8696 10.5035C23.4875 11.2804 22.2006 12.2156 21.035 13.2904C20.9768 13.3441 20.9371 13.4148 20.9214 13.4924C20.9057 13.57 20.9149 13.6506 20.9476 13.7227L22.3034 16.7107C21.3988 17.6933 20.6126 18.7785 19.9609 19.9443L16.6987 19.5737C16.6199 19.5647 16.5402 19.5808 16.4711 19.6198C16.402 19.6588 16.3469 19.7185 16.3138 19.7906C15.6522 21.2316 15.1606 22.7447 14.8488 24.2994C14.8333 24.3771 14.8427 24.4578 14.8757 24.5299C14.9087 24.602 14.9636 24.6618 15.0326 24.7008L17.8895 26.3195C17.7336 27.6471 17.7336 28.9884 17.8895 30.3161L15.0303 31.9362C14.9611 31.9754 14.906 32.0355 14.8729 32.1079C14.8399 32.1803 14.8307 32.2612 14.8465 32.3392C15.158 33.8937 15.6497 35.4066 16.3116 36.8472C16.3441 36.9197 16.3991 36.9799 16.4683 37.019C16.5376 37.058 16.6175 37.0738 16.6964 37.0641L19.9586 36.6936C20.6124 37.8599 21.4009 38.9454 22.3079 39.9279L20.9521 42.9159C20.9194 42.988 20.9102 43.0686 20.9259 43.1462C20.9416 43.2238 20.9813 43.2945 21.0395 43.3482C22.2052 44.4228 23.4921 45.3581 24.8741 46.1351C24.9432 46.1742 25.0229 46.1904 25.1017 46.1814C25.1806 46.1725 25.2546 46.1389 25.3132 46.0854L27.7341 43.8672C28.9486 44.4262 30.2244 44.8408 31.5356 45.1025L32.1916 48.3195C32.207 48.3977 32.2469 48.4691 32.3056 48.5233C32.3642 48.5774 32.4385 48.6115 32.5178 48.6207C34.0922 48.8042 35.6826 48.8042 37.257 48.6207C37.3363 48.6115 37.4106 48.5774 37.4692 48.5233C37.5278 48.4691 37.5677 48.3977 37.5831 48.3195L38.2392 45.1025C39.5503 44.841 40.8262 44.4264 42.0407 43.8672L44.4615 46.0854C44.5201 46.1389 44.5941 46.1725 44.673 46.1814C44.7519 46.1904 44.8315 46.1742 44.9006 46.1351C46.2827 45.3581 47.5695 44.4229 48.7353 43.3482C48.7934 43.2945 48.8332 43.2238 48.8489 43.1462C48.8645 43.0686 48.8554 42.988 48.8226 42.9159L47.4668 39.9279C48.3736 38.9453 49.1621 37.8597 49.8161 36.6936L53.0783 37.0641C53.1571 37.0731 53.2368 37.057 53.3059 37.018C53.375 36.9791 53.4301 36.9193 53.4632 36.8472C54.1245 35.4064 54.6161 33.8936 54.9282 32.3392C54.9434 32.2604 54.933 32.1788 54.8986 32.1064C54.8642 32.0339 54.8075 31.9743 54.7369 31.9362ZM39.9859 28.3208C39.9859 29.3299 39.6866 30.3164 39.126 31.1555C38.5654 31.9946 37.7685 32.6485 36.8362 33.0347C35.9038 33.4209 34.8779 33.5219 33.8882 33.3251C32.8985 33.1282 31.9893 32.6422 31.2757 31.9287C30.5622 31.2151 30.0762 30.306 29.8794 29.3162C29.6825 28.3265 29.7835 27.3006 30.1697 26.3682C30.5559 25.4359 31.2099 24.6391 32.0489 24.0784C32.888 23.5178 33.8745 23.2185 34.8836 23.2185C36.2364 23.2199 37.5334 23.7579 38.4899 24.7145C39.4465 25.671 39.9845 26.968 39.9859 28.3208Z" fill="black"/>
<path id="Vector_2" fill-rule="evenodd" clip-rule="evenodd" d="M86.2378 8.34102C85.2988 8.23105 84.3501 8.23105 83.411 8.34102L82.9817 10.4455C82.1006 10.6086 81.2448 10.8871 80.4366 11.274L78.8548 9.82335C78.0307 10.287 77.2631 10.8446 76.5673 11.4849L77.4576 13.4433C76.8401 14.0926 76.3113 14.8207 75.8849 15.6088L73.7473 15.3655C73.3527 16.2249 73.0595 17.1273 72.8735 18.0545L74.7423 19.109C74.6248 19.9972 74.6248 20.897 74.7423 21.7852L72.8735 22.8442C73.0595 23.7714 73.3527 24.6738 73.7473 25.5332L75.8819 25.2906C76.3081 26.0786 76.8369 26.8065 77.4546 27.4554L76.5643 29.4137C77.26 30.0544 78.0276 30.6122 78.8518 31.0761L80.4336 29.6254C81.2418 30.0123 82.0976 30.2909 82.9787 30.4539L83.408 32.5584C84.3471 32.6684 85.2958 32.6684 86.2348 32.5584L86.6642 30.4539C87.5453 30.2909 88.401 30.0123 89.2093 29.6254L90.791 31.0761C91.6151 30.6124 92.3825 30.0545 93.0778 29.4137L92.1883 27.4554C92.8059 26.8065 93.3348 26.0786 93.761 25.2906L95.8956 25.5332C96.2902 24.6738 96.5834 23.7714 96.7693 22.8442L94.9059 21.7852C95.0241 20.897 95.0241 19.9971 94.9059 19.109L96.7753 18.0507C96.5894 17.1235 96.2962 16.2211 95.9016 15.3617L93.767 15.6043C93.3406 14.8162 92.8118 14.088 92.1943 13.4388L93.0838 11.4804C92.3885 10.8399 91.6211 10.2823 90.7971 9.81883L89.2153 11.2695C88.4071 10.8826 87.5513 10.604 86.6702 10.441L86.2378 8.34102ZM84.8241 17.1182C85.4826 17.1181 86.1263 17.3132 86.6739 17.679C87.2215 18.0447 87.6483 18.5646 87.9004 19.1729C88.1525 19.7812 88.2185 20.4506 88.0902 21.0965C87.9618 21.7424 87.6448 22.3356 87.1792 22.8013C86.7136 23.267 86.1204 23.5841 85.4746 23.7127C84.8288 23.8412 84.1593 23.7753 83.551 23.5233C82.9426 23.2714 82.4226 22.8447 82.0567 22.2972C81.6909 21.7497 81.4956 21.106 81.4956 20.4475C81.4958 19.5647 81.8465 18.7181 82.4707 18.0938C83.0948 17.4696 83.9413 17.1186 84.8241 17.1182Z" fill="#FFD997"/>
<path id="Vector_3" d="M96.961 22.521L95.3099 21.5848C95.3928 20.8311 95.3928 20.0706 95.3099 19.3169L96.961 18.3821C97.03 18.3431 97.0849 18.2832 97.1179 18.2111C97.1509 18.1391 97.1603 18.0584 97.1448 17.9807C96.9521 17.0247 96.6488 16.0945 96.2409 15.2088C96.2089 15.136 96.1542 15.0754 96.085 15.0362C96.0157 14.997 95.9357 14.9812 95.8568 14.9911L93.9737 15.2058C93.5966 14.5476 93.1493 13.9322 92.6398 13.3702L93.4261 11.6431C93.4589 11.571 93.468 11.4904 93.4524 11.4128C93.4367 11.3352 93.3969 11.2645 93.3387 11.2107C92.622 10.55 91.8308 9.97498 90.9812 9.49718C90.912 9.45824 90.8323 9.44215 90.7534 9.45121C90.6746 9.46027 90.6006 9.49402 90.5421 9.54764L89.1433 10.8281C88.4514 10.518 87.7282 10.2832 86.9861 10.1276L86.6095 8.26868C86.5941 8.1905 86.5543 8.11921 86.4959 8.06507C86.4374 8.01093 86.3633 7.97673 86.2841 7.96739C85.3159 7.85592 84.3381 7.85592 83.3699 7.96739C83.2907 7.97658 83.2164 8.01071 83.1577 8.06486C83.0991 8.11901 83.0592 8.19038 83.0438 8.26868L82.6672 10.1276C81.9253 10.2831 81.2023 10.5179 80.5107 10.8281L79.1112 9.54764C79.0527 9.49402 78.9787 9.46027 78.8999 9.45121C78.821 9.44215 78.7413 9.45824 78.6721 9.49718C77.8223 9.97473 77.0311 10.5498 76.3146 11.2107C76.2563 11.2644 76.2164 11.335 76.2005 11.4127C76.1847 11.4903 76.1938 11.5709 76.2264 11.6431L77.0128 13.371C76.5038 13.9329 76.0568 14.5481 75.6796 15.2058L73.7966 14.9911C73.7175 14.9814 73.6375 14.9972 73.5682 15.0364C73.4989 15.0756 73.444 15.1361 73.4117 15.2088C73.0038 16.0943 72.7004 17.0242 72.5078 17.9799C72.4921 18.0578 72.5014 18.1386 72.5344 18.2108C72.5675 18.2831 72.6225 18.343 72.6916 18.3821L74.3419 19.3176C74.2605 20.0711 74.2605 20.8313 74.3419 21.5848L72.6863 22.521C72.6173 22.5601 72.5624 22.6199 72.5294 22.692C72.4964 22.7641 72.487 22.8448 72.5025 22.9225C72.6952 23.8782 72.9985 24.8081 73.4064 25.6936C73.4394 25.7658 73.4944 25.8258 73.5635 25.8649C73.6327 25.904 73.7124 25.9202 73.7913 25.9113L75.6743 25.6966C76.0515 26.3543 76.4985 26.9695 77.0075 27.5314L76.2212 29.2586C76.1885 29.3307 76.1795 29.4114 76.1953 29.489C76.2111 29.5666 76.251 29.6373 76.3093 29.6909C77.0253 30.3524 77.8166 30.9276 78.6669 31.4045C78.736 31.4435 78.8156 31.4597 78.8945 31.4508C78.9733 31.4419 79.0474 31.4083 79.106 31.3548L80.5054 30.0743C81.1971 30.3845 81.92 30.6193 82.6619 30.7748L83.0385 32.633C83.0539 32.7112 83.0937 32.7824 83.1522 32.8366C83.2106 32.8907 83.2848 32.9249 83.3639 32.9342C84.3325 33.0472 85.311 33.0472 86.2796 32.9342C86.3586 32.9248 86.4326 32.8905 86.4909 32.8364C86.5492 32.7822 86.5889 32.711 86.6042 32.633L86.9808 30.7748C87.7232 30.6193 88.4467 30.3845 89.1388 30.0743L90.5375 31.3548C90.5962 31.4083 90.6702 31.4419 90.749 31.4508C90.8279 31.4597 90.9076 31.4435 90.9767 31.4045C91.8266 30.927 92.6178 30.352 93.3342 29.6909C93.3924 29.6372 93.4321 29.5665 93.4478 29.4889C93.4635 29.4112 93.4543 29.3307 93.4216 29.2586L92.6352 27.5314C93.145 26.9699 93.5923 26.3547 93.9692 25.6966L95.8522 25.9113C95.931 25.92 96.0106 25.9037 96.0795 25.8646C96.1485 25.8255 96.2034 25.7657 96.2364 25.6936C96.6443 24.8079 96.9476 23.8777 97.1402 22.9217C97.156 22.8446 97.1472 22.7645 97.115 22.6926C97.0829 22.6207 97.029 22.5607 96.961 22.521ZM95.6707 25.1309L93.8103 24.92C93.7352 24.911 93.6591 24.9247 93.5919 24.9595C93.5247 24.9943 93.4696 25.0485 93.4337 25.1151C93.023 25.8739 92.5134 26.5747 91.9182 27.1993C91.8664 27.2537 91.832 27.3223 91.8195 27.3964C91.807 27.4705 91.817 27.5467 91.8481 27.615L92.6247 29.3196C92.0727 29.8047 91.4768 30.2377 90.8449 30.6128L89.4642 29.3482C89.4088 29.2976 89.3396 29.2647 89.2654 29.2537C89.1912 29.2427 89.1154 29.2541 89.0477 29.2864C88.2691 29.6582 87.4451 29.9261 86.5967 30.0833C86.5229 30.0968 86.4547 30.132 86.401 30.1845C86.3473 30.237 86.3106 30.3043 86.2954 30.3778L85.9188 32.2119C85.1873 32.2812 84.4509 32.2812 83.7194 32.2119L83.3428 30.3778C83.3278 30.3042 83.2911 30.2367 83.2374 30.1841C83.1837 30.1314 83.1155 30.0961 83.0415 30.0826C82.193 29.9264 81.3689 29.6587 80.5906 29.2864C80.5228 29.2539 80.4468 29.2424 80.3725 29.2534C80.2981 29.2644 80.2287 29.2974 80.1733 29.3482L78.7926 30.6128C78.1605 30.2379 77.5646 29.805 77.0128 29.3196L77.7886 27.615C77.8197 27.5467 77.8297 27.4705 77.8172 27.3964C77.8047 27.3223 77.7704 27.2537 77.7186 27.1993C77.1241 26.5743 76.6147 25.8735 76.2038 25.1151C76.1687 25.0478 76.1137 24.993 76.0464 24.9581C75.979 24.9232 75.9024 24.9099 75.8272 24.92L73.9675 25.1309C73.6767 24.4564 73.4498 23.7561 73.2896 23.0392L74.9188 22.1158C74.9842 22.0789 75.037 22.0234 75.0705 21.9563C75.1041 21.8892 75.1168 21.8136 75.1071 21.7392C74.9934 20.884 74.9934 20.0176 75.1071 19.1624C75.1168 19.0881 75.1041 19.0125 75.0705 18.9454C75.037 18.8783 74.9842 18.8227 74.9188 18.7858L73.2994 17.8586C73.4597 17.142 73.6867 16.442 73.9773 15.7677L75.837 15.9786C75.9122 15.9884 75.9886 15.975 76.0559 15.9401C76.1232 15.9052 76.1783 15.8506 76.2136 15.7835C76.6245 15.0251 77.1338 14.3243 77.7283 13.6994C77.7802 13.645 77.8145 13.5763 77.827 13.5022C77.8395 13.4281 77.8295 13.352 77.7984 13.2836L77.0226 11.5783C77.5743 11.0929 78.1701 10.6602 78.8024 10.2858L80.1831 11.5504C80.2385 11.6012 80.3079 11.6342 80.3823 11.6452C80.4566 11.6562 80.5326 11.6447 80.6004 11.6122C81.3787 11.2399 82.2028 10.9722 83.0513 10.8161C83.1253 10.8025 83.1935 10.7672 83.2472 10.7146C83.3009 10.6619 83.3376 10.5945 83.3526 10.5208L83.7292 8.68596C84.4608 8.61817 85.197 8.61817 85.9286 8.68596L86.3052 10.5208C86.3204 10.5943 86.3571 10.6616 86.4108 10.7141C86.4645 10.7666 86.5327 10.8018 86.6065 10.8153C87.4548 10.9725 88.2789 11.2405 89.0575 11.6122C89.1252 11.6446 89.201 11.656 89.2752 11.645C89.3494 11.634 89.4186 11.6011 89.474 11.5504L90.8546 10.2858C91.4865 10.6608 92.0824 11.0935 92.6345 11.5783L91.8579 13.2836C91.8268 13.352 91.8168 13.4281 91.8293 13.5022C91.8418 13.5763 91.8762 13.645 91.928 13.6994C92.5232 14.3239 93.0328 15.0248 93.4434 15.7835C93.4794 15.8501 93.5345 15.9043 93.6017 15.9391C93.6689 15.9739 93.7449 15.9877 93.8201 15.9786L95.6805 15.7677C95.9708 16.4422 96.1977 17.1422 96.3584 17.8586L94.7299 18.7813C94.6646 18.8182 94.6118 18.8738 94.5782 18.9409C94.5447 19.0079 94.5319 19.0835 94.5416 19.1579C94.6554 20.0126 94.6554 20.8785 94.5416 21.7332C94.5319 21.8076 94.5447 21.8832 94.5782 21.9503C94.6118 22.0174 94.6646 22.0729 94.7299 22.1098L96.3584 23.034C96.1947 23.7516 95.9645 24.4523 95.6707 25.1272V25.1309Z" fill="black"/>
<path id="Vector_4" d="M84.8239 16.7417C84.0909 16.7417 83.3744 16.9591 82.7649 17.3663C82.1555 17.7735 81.6805 18.3523 81.4001 19.0295C81.1196 19.7067 81.0463 20.4519 81.1893 21.1708C81.3324 21.8897 81.6854 22.55 82.2037 23.0682C82.7221 23.5864 83.3824 23.9393 84.1014 24.0822C84.8203 24.2251 85.5654 24.1516 86.2425 23.871C86.9197 23.5904 87.4984 23.1153 87.9055 22.5058C88.3126 21.8963 88.5298 21.1797 88.5297 20.4468C88.5285 19.4644 88.1377 18.5225 87.4429 17.8279C86.7482 17.1333 85.8063 16.7427 84.8239 16.7417ZM84.8239 23.3994C84.2399 23.3994 83.669 23.2262 83.1835 22.9018C82.6979 22.5773 82.3195 22.1162 82.096 21.5767C81.8725 21.0372 81.8141 20.4435 81.928 19.8707C82.0419 19.298 82.3231 18.7719 82.7361 18.359C83.149 17.946 83.6751 17.6648 84.2478 17.5509C84.8206 17.437 85.4143 17.4954 85.9538 17.7189C86.4933 17.9424 86.9544 18.3208 87.2789 18.8064C87.6033 19.2919 87.7765 19.8628 87.7765 20.4468C87.7757 21.2296 87.4643 21.9801 86.9108 22.5337C86.3572 23.0872 85.6067 23.3986 84.8239 23.3994Z" fill="black"/>
<path id="Vector_5" fill-rule="evenodd" clip-rule="evenodd" d="M25.7604 54.6653C24.2147 54.4853 22.6534 54.4853 21.1078 54.6653L20.4013 58.1301C18.9512 58.3973 17.5428 58.8549 16.2126 59.4911L13.605 57.1042C12.2477 57.8662 10.9838 58.7838 9.83891 59.8384L11.3032 63.0561C10.2872 64.1248 9.41672 65.323 8.71436 66.6196L5.20211 66.2204C4.55366 67.6345 4.07188 69.1193 3.76648 70.6448L6.84261 72.3839C6.64829 73.8455 6.64829 75.3264 6.84261 76.788L3.76648 78.5332C4.07232 80.0591 4.55487 81.5441 5.20437 82.9583L8.71662 82.5599C9.41899 83.8562 10.2894 85.0541 11.3054 86.1226L9.84117 89.3403C10.986 90.3952 12.2499 91.313 13.6072 92.0753L16.2149 89.6883C17.5451 90.3243 18.9535 90.7817 20.4035 91.0486L21.11 94.5134C22.6557 94.6934 24.217 94.6934 25.7627 94.5134L26.4692 91.0486C27.9192 90.7817 29.3276 90.3243 30.6578 89.6883L33.2654 92.0753C34.6228 91.313 35.8867 90.3952 37.0315 89.3403L35.5673 86.1226C36.5832 85.0543 37.4535 83.8564 38.1553 82.5599L41.6683 82.9583C42.3178 81.5441 42.8004 80.0591 43.1062 78.5332L40.0301 76.791C40.2237 75.3294 40.2237 73.8486 40.0301 72.3869L43.1062 70.6448C42.8001 69.1189 42.3176 67.6339 41.6683 66.2196L38.1553 66.6188C37.4535 65.3221 36.5833 64.1239 35.5673 63.0553L37.0315 59.8376C35.8866 58.783 34.6227 57.8654 33.2654 57.1034L30.6563 59.4904C29.3261 58.8542 27.9177 58.3965 26.4677 58.1293L25.7604 54.6653ZM23.4337 69.1105C24.5174 69.1103 25.5767 69.4315 26.4778 70.0334C27.3789 70.6354 28.0813 71.491 28.4961 72.4921C28.9109 73.4933 29.0195 74.5949 28.8082 75.6578C28.5969 76.7206 28.0751 77.6969 27.3089 78.4632C26.5427 79.2296 25.5664 79.7514 24.5036 79.9629C23.4408 80.1744 22.3391 80.0659 21.338 79.6513C20.3368 79.2366 19.481 78.5344 18.879 77.6333C18.2769 76.7323 17.9556 75.673 17.9556 74.5894C17.9562 73.1366 18.5335 71.7435 19.5607 70.7161C20.5879 69.6888 21.9809 69.1113 23.4337 69.1105Z" fill="#FFD997"/>
<path id="Vector_6" d="M21.0642 94.8879C20.985 94.8787 20.9107 94.8446 20.8521 94.7904C20.7934 94.7363 20.7535 94.6649 20.7381 94.5866L20.0828 91.3704C18.7718 91.1078 17.496 90.693 16.2813 90.1344L13.8597 92.3533C13.8012 92.407 13.7272 92.4407 13.6484 92.4498C13.5695 92.4588 13.4898 92.4428 13.4206 92.4038C12.0387 91.6266 10.7519 90.6913 9.58598 89.6169C9.52769 89.5633 9.4878 89.4926 9.47197 89.415C9.45615 89.3374 9.46521 89.2567 9.49786 89.1846L10.8582 86.1966C9.95178 85.2139 9.16334 84.1287 8.50888 82.963L5.24746 83.3336C5.16855 83.3433 5.0886 83.3275 5.01933 83.2884C4.95007 83.2494 4.89513 83.1892 4.86257 83.1167C4.20088 81.6757 3.70924 80.1626 3.39756 78.6079C3.38204 78.5302 3.39145 78.4495 3.42445 78.3774C3.45745 78.3053 3.51235 78.2455 3.58135 78.2064L6.43754 76.5878C6.28163 75.2601 6.28163 73.9188 6.43754 72.5912L3.58135 70.9725C3.51221 70.9334 3.45721 70.8735 3.4242 70.8013C3.39119 70.729 3.38187 70.6482 3.39756 70.5703C3.70935 69.0159 4.20099 67.5031 4.86257 66.0623C4.89569 65.9902 4.95074 65.9305 5.01986 65.8915C5.08898 65.8525 5.16863 65.8364 5.24746 65.8454L8.50888 66.216C9.16316 65.0502 9.95161 63.9649 10.8582 62.9824L9.49786 59.9937C9.46521 59.9215 9.45615 59.8409 9.47197 59.7632C9.4878 59.6856 9.52769 59.615 9.58598 59.5613C10.7517 58.4866 12.0385 57.5514 13.4206 56.7744C13.4897 56.7354 13.5694 56.7192 13.6482 56.7281C13.7271 56.737 13.8011 56.7706 13.8597 56.8241L16.2813 59.0424C17.4959 58.4834 18.7717 58.0686 20.0828 57.8063L20.7381 54.5901C20.7535 54.5118 20.7934 54.4404 20.8521 54.3863C20.9107 54.3321 20.985 54.298 21.0642 54.2888C22.639 54.1065 24.2295 54.1065 25.8042 54.2888C25.8834 54.2981 25.9575 54.3323 26.016 54.3865C26.0744 54.4406 26.1142 54.5119 26.1296 54.5901L26.7857 57.8063C28.0965 58.0685 29.3721 58.4833 30.5864 59.0424L33.008 56.8241C33.0666 56.7706 33.1406 56.737 33.2195 56.7281C33.2984 56.7192 33.378 56.7354 33.4471 56.7744C34.8294 57.5513 36.1166 58.4866 37.2825 59.5613C37.3407 59.6151 37.3804 59.6857 37.3961 59.7634C37.4118 59.841 37.4026 59.9216 37.3699 59.9937L36.0141 62.9824C36.9206 63.9649 37.7091 65.0502 38.3634 66.216L41.6255 65.8454C41.7045 65.8365 41.7842 65.8527 41.8533 65.8918C41.9224 65.9309 41.9774 65.9909 42.0104 66.0631C42.6713 67.5038 43.1627 69.0163 43.4747 70.5703C43.4904 70.6482 43.4811 70.729 43.448 70.8013C43.415 70.8735 43.36 70.9334 43.2909 70.9725L40.4347 72.5912C40.5906 73.9188 40.5906 75.2601 40.4347 76.5878L43.2909 78.2064C43.3599 78.2455 43.4148 78.3053 43.4478 78.3774C43.4808 78.4495 43.4902 78.5302 43.4747 78.6079C43.1628 80.1622 42.6714 81.675 42.0104 83.1159C41.9781 83.1887 41.9232 83.2491 41.8539 83.2883C41.7846 83.3275 41.7046 83.3434 41.6255 83.3336L38.3634 82.963C37.7089 84.1287 36.9205 85.2139 36.0141 86.1966L37.3699 89.1846C37.4026 89.2567 37.4118 89.3373 37.3961 89.4149C37.3804 89.4925 37.3407 89.5632 37.2825 89.6169C36.1163 90.6914 34.8292 91.6266 33.4471 92.4038C33.3779 92.4428 33.2982 92.4588 33.2194 92.4498C33.1405 92.4407 33.0665 92.407 33.008 92.3533L30.5864 90.1359C29.372 90.6946 28.0964 91.1094 26.7857 91.3719L26.1296 94.5881C26.1142 94.6663 26.0744 94.7376 26.016 94.7918C25.9575 94.8459 25.8834 94.8801 25.8042 94.8894C24.2295 95.072 22.6389 95.0715 21.0642 94.8879ZM21.4213 94.1686C22.7595 94.3049 24.1082 94.3049 25.4465 94.1686L26.0972 90.9742C26.1124 90.9007 26.1492 90.8334 26.2028 90.7809C26.2565 90.7284 26.3247 90.6932 26.3985 90.6797C27.8157 90.4176 29.1921 89.9698 30.4923 89.348C30.56 89.3155 30.636 89.304 30.7104 89.315C30.7847 89.326 30.8541 89.359 30.9095 89.4098L33.3146 91.6122C34.478 90.937 35.5691 90.1443 36.5707 89.2463L35.2202 86.2787C35.1891 86.2103 35.1791 86.1341 35.1916 86.06C35.2041 85.986 35.2384 85.9173 35.2902 85.8629C36.2832 84.8186 37.1339 83.6478 37.8203 82.3808C37.8562 82.3142 37.9113 82.26 37.9785 82.2252C38.0457 82.1904 38.1218 82.1766 38.1969 82.1857L41.4357 82.554C41.9787 81.3235 42.3952 80.041 42.6785 78.7262L39.8419 77.1188C39.7766 77.0819 39.7238 77.0264 39.6902 76.9593C39.6567 76.8922 39.6439 76.8166 39.6536 76.7422C39.8435 75.3133 39.8435 73.8656 39.6536 72.4368C39.6439 72.3624 39.6567 72.2868 39.6902 72.2197C39.7238 72.1526 39.7766 72.0971 39.8419 72.0602L42.6785 70.4528C42.3952 69.138 41.9787 67.8555 41.4357 66.625L38.1969 66.9926C38.1219 67.0017 38.0458 66.988 37.9787 66.9534C37.9115 66.9187 37.8563 66.8647 37.8203 66.7982C37.1341 65.5311 36.2834 64.3602 35.2902 63.3161C35.2384 63.2617 35.2041 63.193 35.1916 63.1189C35.1791 63.0448 35.1891 62.9687 35.2202 62.9003L36.5707 59.9319C35.5691 59.0342 34.478 58.2417 33.3146 57.5668L30.9095 59.7692C30.8541 59.82 30.7847 59.853 30.7104 59.864C30.636 59.875 30.56 59.8635 30.4923 59.831C29.1922 59.2088 27.8158 58.7611 26.3985 58.4993C26.3246 58.4858 26.2564 58.4504 26.2027 58.3978C26.149 58.3452 26.1122 58.2777 26.0972 58.204L25.4465 55.0096C24.1082 54.8733 22.7595 54.8733 21.4213 55.0096L20.7705 58.204C20.7555 58.2777 20.7188 58.3452 20.6651 58.3978C20.6114 58.4504 20.5432 58.4858 20.4692 58.4993C19.0517 58.7612 17.675 59.2089 16.3747 59.831C16.307 59.8633 16.2312 59.8748 16.157 59.8637C16.0828 59.8527 16.0136 59.8198 15.9582 59.7692L13.5532 57.5668C12.3896 58.2415 11.2985 59.034 10.297 59.9319L11.6475 62.9003C11.6787 62.9687 11.6886 63.0448 11.6762 63.1189C11.6637 63.193 11.6293 63.2617 11.5775 63.3161C10.5843 64.3602 9.7336 65.5311 9.04743 66.7982C9.01214 66.8653 8.95709 66.9199 8.88973 66.9547C8.82236 66.9894 8.74595 67.0027 8.67083 66.9926L5.432 66.625C4.8875 67.8551 4.47055 69.1377 4.18768 70.4528L7.02806 72.0602C7.09339 72.0971 7.14621 72.1526 7.17976 72.2197C7.21331 72.2868 7.22606 72.3624 7.21637 72.4368C7.02653 73.8656 7.02653 75.3133 7.21637 76.7422C7.22606 76.8166 7.21331 76.8922 7.17976 76.9593C7.14621 77.0264 7.09339 77.0819 7.02806 77.1188L4.1907 78.7262C4.47366 80.0408 4.89061 81.3229 5.43501 82.5525L8.67384 82.1842C8.74908 82.1738 8.82568 82.187 8.89312 82.2219C8.96056 82.2568 9.01552 82.3118 9.05045 82.3793C9.73572 83.648 10.5857 84.8206 11.5782 85.8666C11.6301 85.9211 11.6644 85.9897 11.6769 86.0638C11.6894 86.1379 11.6794 86.214 11.6483 86.2824L10.2978 89.2501C11.2992 90.1482 12.3903 90.941 13.5539 91.6159L15.9589 89.4135C16.0143 89.3629 16.0836 89.33 16.1578 89.319C16.232 89.308 16.3078 89.3194 16.3755 89.3518C17.6759 89.9735 19.0526 90.4212 20.47 90.6835C20.5438 90.6969 20.612 90.7322 20.6656 90.7846C20.7193 90.8371 20.7561 90.9044 20.7712 90.978L21.4213 94.1686ZM23.4339 80.445C22.2758 80.445 21.1437 80.1016 20.1807 79.4582C19.2178 78.8148 18.4673 77.9003 18.0241 76.8303C17.5809 75.7603 17.4649 74.583 17.6909 73.4471C17.9168 72.3113 18.4745 71.2679 19.2934 70.449C20.1123 69.6301 21.1557 69.0724 22.2915 68.8465C23.4274 68.6206 24.6047 68.7365 25.6747 69.1797C26.7446 69.6229 27.6591 70.3734 28.3025 71.3364C28.9459 72.2993 29.2894 73.4314 29.2894 74.5895C29.2872 76.1417 28.6695 77.6296 27.5718 78.727C26.4741 79.8244 24.986 80.4417 23.4339 80.4435V80.445ZM23.4339 69.4872C22.4247 69.4872 21.4382 69.7864 20.5992 70.3471C19.7601 70.9077 19.1061 71.7046 18.72 72.6369C18.3338 73.5693 18.2327 74.5952 18.4296 75.5849C18.6265 76.5746 19.1124 77.4838 19.826 78.1974C20.5396 78.9109 21.4487 79.3969 22.4385 79.5937C23.4282 79.7906 24.4541 79.6896 25.3864 79.3034C26.3187 78.9172 27.1156 78.2632 27.6763 77.4242C28.2369 76.5851 28.5361 75.5986 28.5361 74.5895C28.5348 73.2367 27.9967 71.9397 27.0402 70.9832C26.0836 70.0266 24.7866 69.4886 23.4339 69.4872Z" fill="black"/>
<path id="Vector_7" fill-rule="evenodd" clip-rule="evenodd" d="M85.8801 105.106C85.8799 104.279 85.5513 103.486 84.9665 102.901C84.3817 102.317 83.5887 101.988 82.7618 101.988H41.1134C40.6999 101.982 40.2892 102.058 39.9053 102.211C39.5214 102.365 39.1719 102.594 38.8772 102.884C38.5825 103.174 38.3484 103.52 38.1887 103.902C38.0289 104.283 37.9467 104.693 37.9467 105.106C37.9467 105.52 38.0289 105.929 38.1887 106.311C38.3484 106.692 38.5825 107.038 38.8772 107.328C39.1719 107.618 39.5214 107.847 39.9053 108.001C40.2892 108.155 40.6999 108.23 41.1134 108.224H82.7618C83.5887 108.224 84.3818 107.895 84.9665 107.31C85.5513 106.726 85.8799 105.933 85.8801 105.106Z" fill="white"/>
<path id="Vector_8" fill-rule="evenodd" clip-rule="evenodd" d="M85.8801 114.613C85.8801 113.786 85.5515 112.993 84.9668 112.408C84.382 111.823 83.5888 111.495 82.7618 111.495H41.1134C40.6999 111.488 40.2892 111.564 39.9053 111.718C39.5214 111.872 39.1719 112.1 38.8772 112.391C38.5825 112.681 38.3484 113.027 38.1887 113.408C38.0289 113.79 37.9467 114.199 37.9467 114.613C37.9467 115.026 38.0289 115.436 38.1887 115.817C38.3484 116.199 38.5825 116.545 38.8772 116.835C39.1719 117.125 39.5214 117.354 39.9053 117.507C40.2892 117.661 40.6999 117.737 41.1134 117.731H82.7618C83.5887 117.731 84.3817 117.402 84.9665 116.818C85.5513 116.233 85.8799 115.44 85.8801 114.613Z" fill="white"/>
<path id="Vector_9" fill-rule="evenodd" clip-rule="evenodd" d="M85.8801 124.12C85.8799 123.293 85.5513 122.5 84.9665 121.915C84.3818 121.33 83.5887 121.002 82.7618 121.001H41.1134C40.6999 120.995 40.2892 121.071 39.9053 121.225C39.5214 121.378 39.1719 121.607 38.8772 121.897C38.5825 122.187 38.3484 122.533 38.1887 122.915C38.0289 123.296 37.9467 123.706 37.9467 124.119C37.9467 124.533 38.0289 124.942 38.1887 125.324C38.3484 125.705 38.5825 126.051 38.8772 126.341C39.1719 126.632 39.5214 126.86 39.9053 127.014C40.2892 127.168 40.6999 127.244 41.1134 127.237H82.7618C83.5887 127.237 84.3817 126.909 84.9665 126.324C85.5513 125.74 85.8799 124.947 85.8801 124.12Z" fill="white"/>
<path id="Vector_10" d="M82.7617 108.602H41.1134C40.6501 108.609 40.19 108.523 39.76 108.351C39.33 108.178 38.9385 107.922 38.6085 107.597C38.2784 107.271 38.0163 106.884 37.8374 106.456C37.6585 106.029 37.5664 105.57 37.5664 105.107C37.5664 104.643 37.6585 104.185 37.8374 103.757C38.0163 103.33 38.2784 102.942 38.6085 102.617C38.9385 102.292 39.33 102.035 39.76 101.863C40.19 101.69 40.6501 101.605 41.1134 101.611H82.7617C83.6799 101.625 84.5558 101.999 85.2003 102.653C85.8448 103.307 86.2061 104.189 86.2061 105.107C86.2061 106.025 85.8448 106.906 85.2003 107.56C84.5558 108.214 83.6799 108.589 82.7617 108.602ZM41.1134 102.362C40.7495 102.356 40.388 102.423 40.05 102.558C39.7121 102.693 39.4044 102.894 39.1449 103.149C38.8854 103.405 38.6793 103.709 38.5386 104.045C38.3979 104.38 38.3255 104.741 38.3255 105.104C38.3255 105.468 38.3979 105.829 38.5386 106.164C38.6793 106.5 38.8854 106.804 39.1449 107.06C39.4044 107.315 39.7121 107.516 40.05 107.651C40.388 107.786 40.7495 107.853 41.1134 107.847H82.7617C83.4811 107.835 84.167 107.541 84.6715 107.028C85.176 106.515 85.4587 105.824 85.4587 105.104C85.4587 104.385 85.176 103.694 84.6715 103.181C84.167 102.668 83.4811 102.374 82.7617 102.362H41.1134Z" fill="black"/>
<path id="Vector_11" d="M82.7617 118.108H41.1134C40.6501 118.115 40.19 118.03 39.76 117.857C39.33 117.684 38.9385 117.428 38.6085 117.103C38.2784 116.778 38.0163 116.39 37.8374 115.962C37.6585 115.535 37.5664 115.076 37.5664 114.613C37.5664 114.149 37.6585 113.691 37.8374 113.263C38.0163 112.836 38.2784 112.448 38.6085 112.123C38.9385 111.798 39.33 111.541 39.76 111.369C40.19 111.196 40.6501 111.111 41.1134 111.118H82.7617C83.6799 111.131 84.5558 111.505 85.2003 112.159C85.8448 112.813 86.2061 113.695 86.2061 114.613C86.2061 115.531 85.8448 116.412 85.2003 117.066C84.5558 117.721 83.6799 118.095 82.7617 118.108ZM41.1134 111.871C40.7495 111.865 40.388 111.931 40.05 112.066C39.7121 112.201 39.4044 112.402 39.1449 112.658C38.8854 112.913 38.6793 113.217 38.5386 113.553C38.3979 113.889 38.3255 114.249 38.3255 114.613C38.3255 114.977 38.3979 115.337 38.5386 115.673C38.6793 116.009 38.8854 116.313 39.1449 116.568C39.4044 116.823 39.7121 117.024 40.05 117.159C40.388 117.295 40.7495 117.361 41.1134 117.355H82.7617C83.4811 117.343 84.167 117.049 84.6715 116.536C85.176 116.023 85.4587 115.332 85.4587 114.613C85.4587 113.893 85.176 113.203 84.6715 112.69C84.167 112.177 83.4811 111.883 82.7617 111.871H41.1134Z" fill="black"/>
<path id="Vector_12" d="M82.7622 127.614H41.1138C40.1869 127.614 39.298 127.246 38.6425 126.591C37.9871 125.935 37.6189 125.046 37.6189 124.119C37.6189 123.193 37.9871 122.304 38.6425 121.648C39.298 120.993 40.1869 120.625 41.1138 120.625H82.7622C83.6891 120.625 84.578 120.993 85.2334 121.648C85.8889 122.304 86.2571 123.193 86.2571 124.119C86.2571 125.046 85.8889 125.935 85.2334 126.591C84.578 127.246 83.6891 127.614 82.7622 127.614ZM41.1138 121.378C40.3867 121.378 39.6893 121.667 39.1751 122.181C38.661 122.695 38.3721 123.392 38.3721 124.119C38.3721 124.847 38.661 125.544 39.1751 126.058C39.6893 126.572 40.3867 126.861 41.1138 126.861H82.7622C83.4893 126.861 84.1867 126.572 84.7008 126.058C85.215 125.544 85.5039 124.847 85.5039 124.119C85.5039 123.392 85.215 122.695 84.7008 122.181C84.1867 121.667 83.4893 121.378 82.7622 121.378H41.1138Z" fill="black"/>
<path id="Vector_13" fill-rule="evenodd" clip-rule="evenodd" d="M49.8014 105.206C49.8012 104.706 49.6022 104.225 49.2481 103.871C48.8941 103.517 48.4139 103.318 47.9131 103.318H42.6323C42.1315 103.318 41.6512 103.517 41.2971 103.871C40.943 104.225 40.744 104.706 40.744 105.206C40.744 105.707 40.943 106.188 41.2971 106.542C41.6512 106.896 42.1315 107.095 42.6323 107.095H47.9131C48.4139 107.095 48.8942 106.896 49.2484 106.542C49.6025 106.188 49.8014 105.707 49.8014 105.206Z" fill="black"/>
<path id="Vector_14" fill-rule="evenodd" clip-rule="evenodd" d="M59.6126 114.715C59.6124 114.214 59.4134 113.734 59.0593 113.38C58.7051 113.026 58.225 112.827 57.7243 112.827H52.4435C52.1924 112.822 51.9428 112.867 51.7094 112.96C51.4759 113.052 51.2633 113.191 51.0839 113.366C50.9046 113.542 50.7621 113.752 50.6648 113.984C50.5676 114.215 50.5175 114.464 50.5175 114.715C50.5175 114.966 50.5676 115.215 50.6648 115.446C50.7621 115.678 50.9046 115.888 51.0839 116.063C51.2633 116.239 51.4759 116.378 51.7094 116.47C51.9428 116.563 52.1924 116.608 52.4435 116.603H57.7243C58.2251 116.603 58.7054 116.404 59.0595 116.05C59.4136 115.696 59.6126 115.215 59.6126 114.715Z" fill="black"/>
<path id="Vector_15" fill-rule="evenodd" clip-rule="evenodd" d="M59.6126 124.22C59.6126 123.72 59.4136 123.239 59.0595 122.885C58.7054 122.531 58.2251 122.332 57.7243 122.332H52.4435C52.1924 122.327 51.9428 122.372 51.7094 122.465C51.4759 122.558 51.2633 122.696 51.0839 122.872C50.9046 123.047 50.7621 123.257 50.6648 123.489C50.5676 123.72 50.5175 123.969 50.5175 124.22C50.5175 124.471 50.5676 124.72 50.6648 124.951C50.7621 125.183 50.9046 125.393 51.0839 125.569C51.2633 125.744 51.4759 125.883 51.7094 125.975C51.9428 126.068 52.1924 126.113 52.4435 126.108H57.7243C58.225 126.108 58.7051 125.909 59.0593 125.555C59.4134 125.201 59.6124 124.721 59.6126 124.22Z" fill="black"/>
<path id="Vector_16" fill-rule="evenodd" clip-rule="evenodd" d="M63.8142 58.4034L137.114 90.5898C137.114 90.5898 143.858 93.9853 146.365 88.5019C148.873 83.0185 141.365 79.9228 141.365 79.9228L70.0863 46.8566C70.0863 46.8566 71.9866 37.8873 64.5125 32.2442C57.0383 26.6011 45.7966 27.92 45.7212 30.731C45.6866 32.0943 48.2716 33.4147 48.2716 33.4147L59.6038 40.5032L53.7573 51.3917L40.7425 43.6961C40.7425 43.6961 37.8735 41.7596 37.9993 44.3296C38.125 46.8995 40.2589 56.3193 49.2764 59.5528C58.2939 62.7864 63.8142 58.4034 63.8142 58.4034ZM140.468 84.4255C140.843 84.4257 141.21 84.5371 141.521 84.7457C141.833 84.9542 142.076 85.2506 142.22 85.5973C142.363 85.944 142.401 86.3255 142.328 86.6935C142.254 87.0615 142.074 87.3995 141.808 87.6648C141.543 87.93 141.205 88.1107 140.837 88.1838C140.469 88.257 140.087 88.2194 139.741 88.0757C139.394 87.9321 139.098 87.6889 138.889 87.3769C138.681 87.0649 138.569 86.6981 138.569 86.3229C138.569 86.0736 138.619 85.8269 138.714 85.5966C138.809 85.3664 138.949 85.1572 139.125 84.981C139.302 84.8048 139.511 84.665 139.741 84.5697C139.972 84.4744 140.218 84.4254 140.468 84.4255Z" fill="white"/>
<path id="Vector_17" d="M141.438 92.0077C139.881 91.965 138.35 91.5966 136.944 90.926L63.8624 58.839C62.8034 59.587 57.4495 62.8868 49.1483 59.9109C40.2016 56.7022 37.7695 47.3683 37.6241 44.3509C37.5663 44.0561 37.5953 43.7508 37.7074 43.4721C37.8196 43.1933 38.0101 42.9531 38.256 42.7805C39.2104 42.2434 40.7786 43.2685 40.9533 43.3883L53.6119 50.8708L59.1103 40.6413L48.0727 33.7366C47.8151 33.6063 45.3061 32.2791 45.3453 30.7237C45.4304 27.323 57.2619 26.3031 64.7361 31.9424C71.5429 37.0794 70.7513 45.0032 70.5042 46.6339L141.522 79.5803C141.676 79.6429 145.665 81.318 146.897 84.4499C147.16 85.1258 147.28 85.8493 147.247 86.5741C147.214 87.2988 147.03 88.0087 146.707 88.6581C146.281 89.6914 145.546 90.5678 144.603 91.1673C143.66 91.7669 142.554 92.0604 141.438 92.0077ZM64.2156 58.0075C65.9322 58.8315 87.1578 68.374 137.264 90.2451C137.315 90.2677 140.625 91.9022 143.317 90.9569C143.924 90.7334 144.478 90.3858 144.944 89.9363C145.41 89.4869 145.777 88.9453 146.022 88.3463C146.301 87.789 146.461 87.1796 146.491 86.5571C146.521 85.9345 146.421 85.3125 146.197 84.7308C145.079 81.8942 141.258 80.2914 141.22 80.2748L69.9273 47.1966C69.8501 47.1608 69.7873 47.0999 69.7491 47.0238C69.711 46.9478 69.6997 46.8611 69.7171 46.7778C69.7352 46.6896 71.4736 37.9704 64.2834 32.542C56.8213 26.9124 46.1543 28.5198 46.0985 30.7403C46.0752 31.657 47.8309 32.7634 48.444 33.0753L59.8055 40.1871C59.8864 40.2378 59.9451 40.3174 59.9695 40.4097C59.994 40.502 59.9825 40.6001 59.9374 40.6843L54.0886 51.5697C54.0647 51.615 54.0317 51.6549 53.9918 51.6869C53.9519 51.719 53.9058 51.7426 53.8565 51.7563C53.8071 51.77 53.7555 51.7734 53.7048 51.7665C53.654 51.7595 53.6052 51.7423 53.5614 51.7159L40.5496 44.021C39.9756 43.6361 39.0145 43.212 38.6236 43.4335C38.3894 43.5661 38.3592 43.9841 38.3743 44.311C38.5151 47.1981 40.8433 56.1297 49.4029 59.1991C58.0988 62.3189 63.5272 58.1513 63.5799 58.1084C63.9211 57.838 64.0703 57.9382 64.2156 58.0075Z" fill="black"/>
<path id="Vector_18" fill-rule="evenodd" clip-rule="evenodd" d="M119.664 131.707C118.722 131.696 117.783 131.815 116.873 132.061C116.719 132.27 116.612 132.51 116.558 132.764C116.504 133.019 116.505 133.281 116.561 133.535C116.711 134.499 117.938 134.869 118.992 135.147C119.812 135.414 120.514 135.958 120.977 136.686C121.402 137.209 121.957 139.566 123.847 139.831C125.738 140.097 126.408 139.146 126.408 139.146L126.774 137.06C126.925 136.615 127.006 136.15 127.013 135.681L126.946 135.644C126.229 136.036 125.405 136.184 124.597 136.068C123.788 135.952 123.039 135.578 122.461 135C121.415 134.076 120.434 133.08 119.524 132.021C119.583 131.923 119.63 131.817 119.664 131.707Z" fill="white"/>
<path id="Vector_19" fill-rule="evenodd" clip-rule="evenodd" d="M97.8251 131.566C97.5991 133.543 97.3807 135.021 97.3807 135.021C97.3807 135.021 102.006 141.521 104.789 140.029C105.325 139.807 105.802 139.465 106.185 139.03C106.567 138.594 106.845 138.076 106.996 137.517L107.062 137.56C107.065 138.491 106.889 139.414 106.543 140.278C106.543 140.278 106.519 142.324 104.083 142.383C101.646 142.442 99.4611 140.618 98.7274 139.71C97.9938 138.802 95.4246 135.647 95.1557 134.551C94.1434 131.21 96.5687 131.596 97.8251 131.566Z" fill="white"/>
<path id="Vector_20" fill-rule="evenodd" clip-rule="evenodd" d="M88.0569 69.0643L96.157 56.7484C97.4962 54.7148 100.175 53.5849 101.439 52.5899C102.703 51.5949 104.774 49.1319 107.144 49.04C108.913 48.9715 109.312 49.083 111.864 50.8477C115.537 53.3891 117.976 53.081 119.697 54.8044C121.418 56.5277 122.422 60.9152 124.302 64.0576C126.182 67.2001 129.179 71.2554 129.575 74.3443L119.286 69.7301L117.42 65.4255C115.057 68.9099 115.961 73.5143 115.536 76.9753C115.112 80.4363 119.129 85.0159 120.012 88.2171C120.895 91.4182 120.129 94.9553 120.218 100.118C120.308 105.28 122.004 106.209 123.121 110.018C124.134 113.361 124.67 116.83 124.711 120.323C124.79 123.567 125.514 126.764 126.842 129.725C127.597 131.212 128.031 132.842 128.115 134.507C126.658 136.622 124.18 136.519 122.456 134.999C121.409 134.074 120.428 133.079 119.518 132.02C120.478 130.484 118.969 124.289 117.585 121.243C116.202 118.196 114.955 112.848 114.39 109.61C113.825 106.372 108.582 95.5564 108.582 95.5564C108.35 99.1809 106.686 106.086 107.076 109.854C107.5 112.974 107.591 116.13 107.348 119.269C107.046 121.884 106.431 129.533 107.154 131.835C107.877 134.137 108.58 134.668 107.633 135.847C106.686 137.025 107.567 138.54 104.784 140.032C102.001 141.523 97.3757 135.023 97.3757 135.023C97.8895 131.554 98.2086 128.059 98.3315 124.554V110.475C98.3315 108.268 99.6557 106.408 98.3315 101.181C97.0074 95.9548 98.3315 81.118 98.3315 79.7411C98.3315 78.3642 100.258 72.801 99.6557 70.808C99.2707 69.3854 99.0583 67.9217 99.023 66.4484C99.023 66.4484 93.175 75.3597 90.7135 76.1648C88.252 76.97 85.7234 74.7639 83.7229 73.6077C81.9766 72.4987 80.5782 70.9202 79.6879 69.053C79.5412 68.7061 79.3162 68.3978 79.0306 68.1523C78.745 67.9067 78.4064 67.7306 78.0414 67.6377C78.1263 66.7132 78.471 65.8317 79.0356 65.0948L88.0569 69.0643Z" fill="#81F8F8"/>
<path id="Vector_21" d="M140.467 88.597C140.017 88.5968 139.578 88.4634 139.204 88.2134C138.83 87.9635 138.539 87.6084 138.367 87.1929C138.195 86.7774 138.15 86.3203 138.238 85.8792C138.325 85.4382 138.542 85.0331 138.86 84.7151C139.178 84.3971 139.583 84.1806 140.024 84.0928C140.465 84.005 140.922 84.05 141.338 84.222C141.753 84.394 142.108 84.6854 142.358 85.0592C142.608 85.4331 142.742 85.8726 142.742 86.3223C142.741 86.9255 142.502 87.5038 142.075 87.9303C141.649 88.3568 141.07 88.5966 140.467 88.597ZM140.467 84.8023C140.166 84.8024 139.872 84.8918 139.622 85.059C139.372 85.2262 139.178 85.4638 139.063 85.7418C138.948 86.0197 138.918 86.3255 138.977 86.6205C139.035 86.9154 139.18 87.1863 139.393 87.3989C139.606 87.6115 139.877 87.7562 140.172 87.8147C140.467 87.8732 140.773 87.843 141.051 87.7277C141.328 87.6125 141.566 87.4175 141.733 87.1673C141.9 86.9171 141.989 86.6231 141.989 86.3223C141.988 85.9191 141.828 85.5326 141.542 85.2476C141.257 84.9626 140.87 84.8025 140.467 84.8023Z" fill="black"/>
<path id="Vector_22" fill-rule="evenodd" clip-rule="evenodd" d="M101.148 39.657C101.248 40.1558 101.18 40.6737 100.956 41.1303C100.579 41.6929 99.5449 42.3181 99.6714 42.6909C99.798 43.0638 100.565 43.4539 100.565 43.4539C100.565 43.4539 99.99 44.2825 100.296 44.5491C100.567 44.7418 100.874 44.8769 101.2 44.946C101.2 44.946 100.539 44.9845 100.522 45.346C100.504 45.7075 101.066 45.9757 101.073 46.2551C101.08 46.5346 100.515 48.7227 103.223 48.4462L103.805 50.5289C103.805 50.5289 105.814 48.92 107.496 49.0669C108.505 49.1547 109.49 49.419 110.408 49.848C110.408 49.848 109.45 47.739 109.871 46.5918C109.871 46.5918 108.214 46.7929 107.803 45.6051C107.803 45.6051 109.241 44.8029 108.953 44.0354C108.664 43.2679 108.049 42.6043 107.145 43.2212C106.241 43.8381 105.656 44.9204 104.729 43.771C103.802 42.6216 103.524 39.4543 103.524 39.4543L101.148 39.657Z" fill="#FFD997"/>
<path id="Vector_23" fill-rule="evenodd" clip-rule="evenodd" d="M114.321 42.4951L103.512 39.5296L100.844 38.3185C100.844 38.3185 101.65 33.6259 106.238 33.2719C110.826 32.9179 114.617 35.5948 114.779 38.0398C114.873 39.54 114.718 41.0453 114.321 42.4951Z" fill="white"/>
<path id="Vector_24" fill-rule="evenodd" clip-rule="evenodd" d="M74.8005 61.7493C74.2582 61.506 74.5911 62.4068 75.0265 63.3054L73.4884 62.7111C73.4884 62.7111 73.624 64.848 75.0574 65.892C75.983 66.5529 76.9766 67.1129 78.0213 67.5626C78.1357 66.7248 78.4241 65.9202 78.8679 65.2005C78.8679 65.2005 75.8211 62.208 74.8005 61.7493Z" fill="#FFD997"/>
<path id="Vector_25" d="M129.95 74.2979C129.543 71.1065 126.492 66.9781 124.629 63.8658C122.765 60.7536 121.767 56.3389 119.966 54.5395C118.507 53.0805 116.827 53.1287 113.832 51.602C112.75 50.9996 111.704 50.3368 110.697 49.6165C110.38 48.7718 110.231 47.8731 110.26 46.9712C110.606 46.9494 110.948 46.8844 111.278 46.7776C111.213 47.1807 111.269 47.5941 111.441 47.9647C111.612 48.3353 111.89 48.6461 112.24 48.8573C114.029 49.7732 115.831 48.2471 116.202 46.6488C116.543 45.1785 115.762 43.7053 113.726 43.7919C113.837 43.4664 113.924 43.1334 113.987 42.7954C114.095 42.8342 114.206 42.8595 114.32 42.8707C114.4 42.8707 114.479 42.8449 114.543 42.797C114.608 42.7492 114.656 42.6818 114.68 42.6048C115.092 41.1124 115.253 39.5615 115.155 38.0162C114.998 36.8501 114.387 35.793 113.455 35.0749C111.417 33.4301 108.816 32.6487 106.209 32.8981C102.025 33.2182 100.79 36.9738 100.531 37.9974C97.8799 38.5615 97.9409 39.2078 97.962 39.424C97.9861 39.6823 98.023 40.0687 100.272 40.0687C100.45 40.0687 100.641 40.0687 100.848 40.0612C100.868 40.3622 100.796 40.6623 100.641 40.9214C100.091 41.7499 98.2836 42.4278 100.024 43.5727C99.9186 43.7224 99.8618 43.9012 99.8618 44.0845C99.8618 44.2678 99.9186 44.4466 100.024 44.5963C100.118 44.7065 100.225 44.8037 100.344 44.8855C100.228 45.0045 100.159 45.1621 100.152 45.3284C100.161 45.482 100.202 45.6319 100.271 45.769C100.341 45.9061 100.438 46.0274 100.557 46.1253C100.612 46.1833 100.693 46.2632 100.703 46.2564C100.703 46.2797 100.698 46.3151 100.693 46.3603C100.623 46.6966 100.628 47.0444 100.71 47.3782C100.791 47.712 100.946 48.0233 101.164 48.2893C101.401 48.4943 101.678 48.6491 101.976 48.7445C102.275 48.8399 102.59 48.8739 102.902 48.8444C102.986 49.3857 103.134 49.915 103.344 50.4209C102.9 50.7832 102.49 51.1576 102.12 51.495C101.432 52.1708 100.654 52.7491 99.8089 53.2139C98.4817 54.0281 96.8299 55.0412 95.8432 56.5408L87.9194 68.5923L79.0578 64.6868C78.9922 64.6584 78.9198 64.6493 78.8492 64.6605C78.0387 63.8771 75.8559 61.8118 74.9565 61.4073C74.8505 61.3426 74.7255 61.316 74.6022 61.3319C74.479 61.3477 74.3648 61.4052 74.2786 61.4947C74.1852 61.5972 74.015 61.787 74.3254 62.6524L73.6279 62.3662C73.5688 62.3419 73.5046 62.3331 73.4411 62.3405C73.3777 62.3479 73.3172 62.3713 73.2653 62.4085C73.2134 62.4457 73.1718 62.4955 73.1445 62.5532C73.1171 62.6109 73.1049 62.6746 73.1089 62.7383C73.1142 62.8324 73.2739 65.0642 74.8315 66.1993C75.7419 66.8498 76.7166 67.405 77.7404 67.8564C77.7968 67.935 77.8812 67.9889 77.9762 68.007C78.2818 68.088 78.5646 68.2383 78.8027 68.4463C79.0408 68.6543 79.2279 68.9142 79.3493 69.2061C80.2724 71.1452 81.725 72.7837 83.5394 73.9326C85.6846 75.1731 88.177 77.3891 90.8351 76.5229C92.9441 75.8329 97.0823 69.9978 98.713 67.5965C98.7964 68.7204 98.9929 69.833 99.2997 70.9175C99.8624 72.7786 97.9598 78.299 97.9598 79.7414C97.9598 81.1273 96.6228 95.9574 97.9711 101.275C99.2711 106.409 97.9598 108.211 97.9598 110.476V124.555C97.9147 126.774 97.7574 128.989 97.4882 131.192C96.2921 131.181 95.4252 131.264 94.9047 131.955C94.5246 132.425 94.2791 132.989 94.1945 133.588C94.1098 134.186 94.1892 134.797 94.4242 135.354C94.7563 136.469 97.08 139.421 98.0637 140.642C99.8323 142.831 103.638 144.322 105.545 142.902C106.729 142.02 107.448 139.079 107.439 137.559C107.438 137.512 107.429 137.465 107.411 137.421C107.484 136.942 107.662 136.485 107.932 136.082C109.032 134.712 108.225 133.973 107.517 131.722C106.846 129.582 107.38 122.306 107.727 119.312C107.975 116.148 107.884 112.967 107.455 109.822C107.116 106.562 108.384 100.695 108.83 96.9516C110.209 99.8696 113.584 107.171 114.022 109.681C114.653 113.296 115.931 118.512 117.244 121.406C118.594 124.376 119.756 129.465 119.374 131.348C118.697 131.365 118.023 131.431 117.356 131.546C117.088 131.589 116.83 131.68 116.594 131.814C116.403 132.066 116.267 132.355 116.197 132.663C116.127 132.972 116.124 133.291 116.188 133.601C116.386 134.855 117.957 135.27 118.895 135.519C119.582 135.735 120.172 136.182 120.567 136.785C120.748 136.994 120.889 137.235 120.983 137.496C121.793 139.207 122.585 140.262 124.485 140.262C124.9 140.296 125.318 140.234 125.705 140.079C126.093 139.925 126.438 139.682 126.715 139.37C126.748 139.325 126.77 139.272 126.779 139.216C127.212 136.571 127.312 137.317 127.382 135.814C127.791 135.516 128.145 135.149 128.429 134.729C128.473 134.665 128.496 134.588 128.495 134.51C128.414 132.783 127.966 131.093 127.182 129.553C125.885 126.651 125.175 123.521 125.092 120.343C125.056 116.809 124.516 113.297 123.488 109.914C122.333 105.975 120.688 105.208 120.6 100.114C120.51 94.9119 121.286 91.4019 120.381 88.1187C119.485 84.873 115.516 80.3191 115.916 77.023C116.316 73.727 115.545 69.5443 117.357 66.252L118.671 69.4155C118.643 69.5032 118.648 69.5982 118.685 69.6824C118.722 69.7667 118.789 69.8344 118.873 69.8727C130.164 75.033 129.45 74.7189 129.577 74.7189C129.63 74.7189 129.683 74.7076 129.731 74.6857C129.779 74.6639 129.823 74.6321 129.858 74.5923C129.893 74.5525 129.92 74.5057 129.936 74.455C129.952 74.4042 129.957 74.3507 129.95 74.2979ZM106.266 33.6498C108.673 33.4161 111.075 34.1321 112.962 35.6451C113.74 36.2328 114.258 37.1021 114.403 38.0667C114.48 39.3983 114.362 40.734 114.054 42.0316C102.454 38.9992 103.655 39.1694 101.278 38.1013C101.527 37.1176 102.613 33.9293 106.266 33.6498ZM103.603 48.4129C103.598 48.3633 103.584 48.3152 103.561 48.2712C103.537 48.2273 103.505 48.1884 103.467 48.1568C103.428 48.1252 103.384 48.1015 103.337 48.0872C103.289 48.0728 103.239 48.0681 103.189 48.0732C102.933 48.1352 102.667 48.1395 102.409 48.0857C102.151 48.0319 101.908 47.9214 101.698 47.7621C101.565 47.5733 101.473 47.3584 101.429 47.1317C101.384 46.9049 101.388 46.6713 101.44 46.4462C101.471 46.1502 101.48 46.0071 101.101 45.6094C101.037 45.5357 100.966 45.4669 100.891 45.4038C101.021 45.3025 101.175 45.235 101.337 45.2072C101.522 45.1679 101.703 45.1135 101.878 45.0445C101.956 45.0123 102.022 44.9545 102.063 44.8806C102.105 44.8068 102.12 44.721 102.107 44.6373C102.094 44.5536 102.052 44.4768 101.99 44.4193C101.928 44.3619 101.848 44.3271 101.764 44.3206C101.374 44.3004 100.999 44.1698 100.681 43.944C100.728 43.857 100.785 43.7753 100.849 43.7C100.887 43.6568 100.915 43.6055 100.93 43.5501C100.945 43.4946 100.947 43.4365 100.936 43.38C100.925 43.3236 100.901 43.2705 100.867 43.2246C100.832 43.1788 100.787 43.1414 100.736 43.1155C100.479 42.9925 100.247 42.8221 100.053 42.6131C100.209 42.3555 100.957 41.8019 101.269 41.3371C101.511 40.9466 101.627 40.4911 101.601 40.0326C102.062 40.0107 102.58 39.9783 103.166 39.9331C103.26 40.9432 103.609 43.4876 104.773 44.295C106.129 45.2313 106.748 44.0352 107.309 43.5418C107.385 43.4748 107.465 43.4055 107.547 43.3384C107.941 43.0176 108.497 43.4318 108.574 44.0322C108.642 44.5391 107.526 45.6455 106.365 45.2252C106.286 45.1974 106.201 45.1963 106.122 45.2222C106.043 45.2481 105.974 45.2995 105.927 45.3684C105.881 45.4372 105.858 45.5197 105.863 45.6028C105.868 45.686 105.9 45.7651 105.955 45.8278C106.135 46.1016 106.416 46.293 106.737 46.3599C107.058 46.4268 107.392 46.3639 107.666 46.1848C108.167 46.6565 108.82 46.9324 109.507 46.9622C109.499 47.6716 109.575 48.3794 109.733 49.0712C108.919 48.6969 108.017 48.5548 107.127 48.6607C105.968 48.7679 104.866 49.2131 103.958 49.9411C103.779 49.4471 103.66 48.9336 103.603 48.4114V48.4129ZM107.16 49.4184C108.584 49.3581 109.003 49.3777 110.875 50.6311C108.3 50.2684 105.675 50.5654 103.247 51.4943C104.352 50.5181 105.724 49.4726 107.16 49.4169V49.4184ZM77.7088 67.0143C76.8554 66.6136 76.0401 66.1364 75.2729 65.5884C74.5824 65.0085 74.1175 64.2045 73.9593 63.3167L74.6982 63.6218L75.532 65.077C75.5823 65.1628 75.6645 65.2252 75.7606 65.2506C75.8568 65.2761 75.9591 65.2624 76.0452 65.2127C76.1313 65.163 76.1943 65.0812 76.2203 64.9852C76.2464 64.8892 76.2334 64.7869 76.1843 64.7004C75.7307 63.9291 75.3327 63.1264 74.9935 62.2984C76.1859 63.2113 77.3181 64.2003 78.3829 65.2593C78.0617 65.8017 77.8345 66.3946 77.7111 67.0128L77.7088 67.0143ZM79.3056 67.8933C79.0464 67.663 78.7472 67.482 78.4228 67.3593C78.5164 66.7085 78.7475 66.085 79.1007 65.5304L80.2132 66.0208C79.7503 66.5528 79.4378 67.1987 79.3079 67.8918L79.3056 67.8933ZM100.019 70.7005C99.653 69.35 99.4472 67.961 99.4059 66.5624C99.7464 66.0652 100.1 65.5282 100.45 64.9844C100.844 67.2579 101.12 69.5502 101.278 71.8522C101.243 73.7595 101.008 75.6579 100.577 77.5164C99.946 77.3996 99.4715 77.2972 99.2071 77.2377C99.6003 75.5859 100.476 72.2017 100.021 70.699L100.019 70.7005ZM115.134 77.4795C115.135 77.9357 115.187 78.3905 115.289 78.8353C111.332 81.406 104.576 80.5089 100.978 79.7685C101.035 79.3166 101.107 78.8533 101.185 78.3939C105.451 79.1177 111.265 79.4521 115.135 77.4802L115.134 77.4795ZM99.0301 77.9698C99.308 78.0338 99.7961 78.1415 100.442 78.2628C100.366 78.7147 100.295 79.1622 100.237 79.6111C99.5453 79.4552 99.0323 79.3203 98.7634 79.2473C98.823 78.9038 98.9179 78.4594 99.0316 77.9706L99.0301 77.9698ZM98.7032 80.0133C99.018 80.0992 99.5167 80.2287 100.153 80.3733C99.9144 82.9576 99.8518 97.0111 100.356 100.546C100.86 104.099 101.574 106.091 100.595 108.123C99.9919 109.379 99.2448 113.359 98.7115 116.592V110.475C98.7115 108.332 100.045 106.402 98.6994 101.088C97.4747 96.2511 98.5706 83.0939 98.7047 80.014L98.7032 80.0133ZM104.071 142.003C101.934 142.055 99.8323 140.478 99.0188 139.469C97.553 137.655 95.7559 135.251 95.5156 134.44C95.2256 133.465 95.2218 132.783 95.505 132.406C95.8606 131.934 96.7102 131.936 97.3994 131.943C97.1945 133.675 97.0107 134.938 97.0062 134.966C96.9923 135.062 97.0161 135.16 97.0725 135.239C98.7235 137.56 102.426 141.724 104.965 140.361C105.538 140.07 106.057 139.684 106.5 139.219C106.182 140.635 105.422 141.974 104.073 142.007L104.071 142.003ZM124.761 139.004C123.405 139.145 122.646 137.498 121.886 136.497C121.075 135.399 119.934 134.588 118.63 134.183C117.691 133.895 116.554 133.071 117.216 132.338C117.853 132.201 118.501 132.122 119.152 132.103C119.165 132.161 119.191 132.214 119.228 132.259C120.15 133.334 121.146 134.343 122.208 135.279C122.778 135.83 123.489 136.211 124.264 136.38C125.038 136.549 125.844 136.499 126.591 136.236C126.479 137.307 126.082 138.867 124.762 139.008L124.761 139.004ZM117.723 84.2562C119.941 88.2316 120.265 88.9125 119.967 95.0445C119.896 96.5381 119.813 98.2313 119.845 100.123C119.937 105.395 121.653 106.332 122.764 110.122C123.77 113.423 124.3 116.852 124.339 120.303C124.411 123.615 125.15 126.879 126.513 129.899C127.219 131.299 127.636 132.827 127.737 134.392C126.439 136.165 124.29 136.108 122.709 134.714C121.739 133.854 120.823 132.935 119.966 131.961C120.908 129.631 118.837 123.088 117.928 121.085C116.642 118.252 115.385 113.116 114.765 109.542C114.238 106.523 109.839 97.2906 109.04 95.6327C109.454 94.3504 109.962 93.1003 110.559 91.8923L110.729 91.6038C111.61 90.123 113.671 86.6567 112.59 82.4417C112.58 82.3921 112.559 82.3453 112.53 82.3039C112.501 82.2625 112.463 82.2274 112.42 82.2007C112.377 82.1741 112.329 82.1564 112.279 82.1488C112.229 82.1411 112.178 82.1437 112.129 82.1562C112.08 82.1688 112.033 82.1912 111.993 82.222C111.953 82.2528 111.919 82.2913 111.894 82.3354C111.869 82.3795 111.854 82.4282 111.848 82.4786C111.842 82.5289 111.847 82.5799 111.861 82.6285C112.864 86.5407 110.914 89.8187 110.081 91.2189L109.906 91.5157C109.14 92.9798 108.554 94.5311 108.161 96.1359C107.807 99.8598 106.329 106.271 106.706 109.896C107.119 112.988 107.21 116.115 106.978 119.226C106.741 121.277 106.014 129.447 106.8 131.947C107.553 134.344 108.136 134.624 107.345 135.61C106.281 136.935 107.261 138.278 104.611 139.7C102.616 140.765 99.0858 136.727 97.7752 134.926C98.291 131.491 98.6041 128.028 98.713 124.556C98.713 120.338 98.7002 121.665 98.7612 121.236C98.7762 121.129 100.274 110.527 101.274 108.452C102.374 106.175 101.611 104.008 101.104 100.443C100.599 96.8906 100.685 82.9538 100.896 80.536C105.367 81.464 111.576 81.992 115.495 79.6005C116.084 81.2228 116.831 82.7833 117.724 84.2599L117.723 84.2562ZM119.438 69.3041L117.829 65.4265C118.69 63.4416 119.277 61.3492 119.576 59.2064C119.582 59.1096 119.55 59.0144 119.487 58.9407C119.424 58.867 119.335 58.8204 119.238 58.8107C119.141 58.801 119.045 58.8289 118.969 58.8886C118.892 58.9483 118.842 59.0351 118.828 59.1311C118.523 61.2369 117.938 63.2926 117.088 65.2435C114.762 68.7083 115.523 73.2276 115.205 76.5847C113.939 77.2758 112.558 77.7309 111.129 77.9276C111.148 76.4897 111.298 70.278 112.467 65.7338C113.839 60.4011 111.198 55.3093 111.085 55.0946C111.062 55.0498 111.031 55.0099 110.993 54.9773C110.955 54.9447 110.911 54.9201 110.863 54.9048C110.815 54.8895 110.765 54.8839 110.715 54.8883C110.665 54.8927 110.616 54.907 110.572 54.9304C110.528 54.9538 110.488 54.9859 110.457 55.0246C110.425 55.0634 110.401 55.1081 110.387 55.1562C110.373 55.2042 110.368 55.2547 110.374 55.3045C110.379 55.3543 110.394 55.4026 110.419 55.4464C110.445 55.4969 113.035 60.5012 111.738 65.5455C110.515 70.2998 110.388 76.8136 110.374 78.0316C107.351 78.3076 104.305 78.1769 101.317 77.6429C101.757 75.7322 101.995 73.7809 102.029 71.8206C101.842 69.2079 101.516 66.607 101.055 64.0285C102.32 62.0069 103.39 60.1457 103.408 60.1186C103.458 60.032 103.471 59.9291 103.445 59.8326C103.419 59.736 103.356 59.6537 103.27 59.6038C103.183 59.5538 103.08 59.5403 102.984 59.5663C102.887 59.5922 102.805 59.6554 102.755 59.742C102.733 59.7804 100.495 63.5887 98.7168 66.2317C97.0823 68.6616 92.5163 75.1769 90.6001 75.8028C88.3404 76.544 85.9015 74.4259 83.9153 73.2773C82.2401 72.2053 80.8966 70.6878 80.0355 68.8951C79.979 68.7684 79.914 68.6456 79.8412 68.5275C79.8896 68.496 79.9303 68.454 79.9601 68.4045C79.99 68.3551 80.0083 68.2995 80.0136 68.242C80.1025 67.5206 80.4333 66.8507 80.9521 66.3417L87.9051 69.4058C87.9866 69.4416 88.0781 69.4474 88.1634 69.4221C88.2488 69.3969 88.3224 69.3423 88.3713 69.2679L96.4707 56.9521C97.6238 55.1993 99.894 54.1109 101.251 53.186C101.58 53.0052 108.091 49.5186 113.508 52.2753H113.517C116.188 53.662 118.103 53.7321 119.433 55.0622C121.071 56.6997 122.107 61.1113 123.983 64.2432C125.715 67.1378 128.379 70.7962 129.074 73.6931L119.438 69.3041Z" fill="black"/>
<path id="Vector_26" fill-rule="evenodd" clip-rule="evenodd" d="M119.599 82.9539C119.599 82.9539 118.7 84.2773 119.308 84.7751C119.482 84.9196 119.689 85.0187 119.911 85.0636C120.133 85.1086 120.363 85.098 120.58 85.0327C120.58 85.0327 121.2 86.668 122.016 85.7679C121.954 86.6808 122.805 86.8894 123.146 86.2748C123.146 86.2748 124.024 87.3873 124.478 86.802C124.478 86.802 125.4 87.8287 125.752 86.6092C126.148 84.8618 125.043 84.7684 124.698 85.319C124.698 85.319 124.246 84.2087 123.516 84.9054C123.516 84.9054 122.97 83.7907 122.254 84.5198C122.254 84.5198 122.487 82.99 121.688 83.0247C120.889 83.0593 120.767 83.4276 120.767 83.4276L119.599 82.9539Z" fill="#FFD997"/>
<path id="Vector_27" d="M125.567 84.7127C125.443 84.6633 125.311 84.641 125.178 84.6471C125.045 84.6532 124.914 84.6876 124.796 84.7481C124.675 84.5582 124.492 84.4172 124.277 84.3502C124.062 84.2832 123.831 84.2944 123.624 84.382C123.517 84.2278 123.373 84.103 123.206 84.019C123.038 83.935 122.852 83.8946 122.665 83.9015C122.632 83.2145 122.357 82.6345 121.675 82.6496C121.308 82.637 120.948 82.7526 120.657 82.9765L119.741 82.6059C119.661 82.5738 119.573 82.5699 119.491 82.5948C119.409 82.6198 119.337 82.672 119.289 82.743C119.178 82.9072 118.22 84.3707 119.07 85.0667C119.248 85.2139 119.454 85.3243 119.675 85.3914C119.897 85.4585 120.129 85.481 120.359 85.4576C120.645 86.018 121.127 86.549 121.735 86.3871C121.784 86.5219 121.863 86.6436 121.967 86.7426C122.07 86.8417 122.195 86.9156 122.332 86.9583C122.469 87.0011 122.614 87.0117 122.755 86.9893C122.897 86.967 123.032 86.9121 123.149 86.8292C123.299 87.0235 123.503 87.1702 123.735 87.252C123.966 87.3337 124.217 87.347 124.456 87.2902C125.128 87.8076 125.844 87.6668 126.123 86.6944C126.451 85.2475 125.844 84.8264 125.567 84.7127ZM119.547 84.4867C119.374 84.3459 119.532 83.8435 119.755 83.4277L120.461 83.7132C120.463 84.0539 120.405 84.3923 120.289 84.7127C120.156 84.726 120.022 84.7126 119.894 84.6733C119.767 84.634 119.649 84.5695 119.547 84.4837V84.4867ZM121.505 85.6632C121.348 85.6339 121.123 85.3213 120.984 85.0192C121.171 84.543 121.244 84.0299 121.198 83.5203C121.358 83.4425 121.533 83.4033 121.711 83.4058C121.724 83.4016 121.739 83.4016 121.752 83.4061C121.766 83.4106 121.778 83.4192 121.786 83.4307C121.923 83.7528 121.959 84.1089 121.89 84.4521L121.669 85.5902C121.616 85.6354 121.554 85.6775 121.503 85.6602L121.505 85.6632ZM122.394 85.8139L122.608 84.7127C122.629 84.6914 122.655 84.675 122.684 84.6644C122.712 84.6539 122.742 84.6496 122.773 84.6517C122.887 84.669 123.031 84.8264 123.125 84.971C123.052 85.3551 122.949 85.7329 122.817 86.1008C122.656 86.3705 122.369 86.2688 122.392 85.8146L122.394 85.8139ZM123.585 86.1995C123.697 85.8418 123.79 85.4785 123.865 85.1111C123.906 85.0743 123.96 85.0544 124.015 85.0554C124.124 85.078 124.263 85.2663 124.336 85.4124C124.322 85.8126 124.262 86.2098 124.158 86.5965C124.05 86.6085 123.805 86.4368 123.582 86.2003L123.585 86.1995ZM125.396 86.5061C125.325 86.7539 125.245 86.8232 125.218 86.8285C125.103 86.8156 124.995 86.7653 124.912 86.6853C125.011 86.281 125.069 85.8677 125.085 85.4516C125.112 85.4282 125.144 85.412 125.178 85.4045C125.213 85.397 125.249 85.3984 125.282 85.4086C125.395 85.4561 125.562 85.7506 125.394 86.5068L125.396 86.5061Z" fill="black"/>
</g>
</g>
</svg>
