<svg width="151" height="151" viewBox="0 0 151 151" fill="none" xmlns="http://www.w3.org/2000/svg">
<g id="Interface-Delete--Streamline-London">
<g id="Interface-Delete--Streamline-London.svg">
<path id="Vector" d="M7.71997 27.4364C7.71997 33.714 10.2137 39.7346 14.6527 44.1735C19.0917 48.6125 25.1122 51.1062 31.3898 51.1062C37.6674 51.1062 43.6879 48.6125 48.1269 44.1735C52.5658 39.7346 55.0596 33.714 55.0596 27.4364C55.0596 21.1588 52.5658 15.1383 48.1269 10.6993C43.6879 6.26038 37.6674 3.7666 31.3898 3.7666C25.1122 3.7666 19.0917 6.26038 14.6527 10.6993C10.2137 15.1383 7.71997 21.1588 7.71997 27.4364Z" fill="white"/>
<path id="Vector_2" d="M31.3904 51.4828C26.6345 51.4826 21.9855 50.0722 18.0311 47.4298C14.0768 44.7875 10.9948 41.0319 9.17495 36.638C7.35504 32.2441 6.87895 27.4091 7.80687 22.7446C8.7348 18.0801 11.0251 13.7956 14.388 10.4327C17.751 7.06979 22.0357 4.77967 26.7002 3.85189C31.3647 2.92412 36.1996 3.40036 40.5935 5.2204C44.9874 7.04044 48.7429 10.1225 51.3851 14.0769C54.0273 18.0313 55.4376 22.6804 55.4376 27.4363C55.4302 33.8117 52.8943 39.9238 48.3861 44.4318C43.878 48.9398 37.7658 51.4756 31.3904 51.4828ZM31.3904 4.14312C26.7835 4.14327 22.2801 5.50952 18.4496 8.0691C14.6192 10.6287 11.6337 14.2666 9.87083 18.5229C8.10794 22.7792 7.64676 27.4627 8.54562 31.9811C9.44448 36.4995 11.663 40.6498 14.9206 43.9074C18.1783 47.1649 22.3287 49.3833 26.8472 50.282C31.3656 51.1807 36.049 50.7194 40.3053 48.9564C44.5615 47.1934 48.1994 44.2078 50.7588 40.3773C53.3183 36.5467 54.6844 32.0433 54.6844 27.4363C54.6774 21.2606 52.221 15.3398 47.854 10.973C43.487 6.60615 37.5661 4.1499 31.3904 4.14312Z" fill="black"/>
<path id="Vector_3" fill-rule="evenodd" clip-rule="evenodd" d="M31.3905 23.9851L39.5614 13.9929L42.9441 16.7587L34.2128 27.4363L42.9441 38.1132L39.5614 40.8797L31.3905 30.8876L23.2189 40.8805L19.8362 38.1132L28.5682 27.4363L19.8362 16.7587L23.2189 13.9929L31.3905 23.9851Z" fill="#81F8F8"/>
<path id="Vector_4" d="M22.9807 41.1711L19.598 38.4053C19.5215 38.3422 19.4729 38.2514 19.4629 38.1527C19.4528 38.0539 19.4822 37.9552 19.5446 37.878L28.0815 27.4369L19.5446 16.9966C19.4822 16.9194 19.4528 16.8207 19.4629 16.722C19.4729 16.6233 19.5215 16.5325 19.598 16.4694L22.9807 13.7036C23.0579 13.6412 23.1566 13.6118 23.2554 13.6219C23.3541 13.6319 23.4449 13.6804 23.508 13.757L31.3904 23.3907L39.2705 13.7548C39.3336 13.6782 39.4244 13.6296 39.5232 13.6196C39.6219 13.6096 39.7206 13.6389 39.7978 13.7013L43.1797 16.4671C43.2562 16.5303 43.3046 16.6212 43.3145 16.7199C43.3244 16.8186 43.2949 16.9172 43.2325 16.9944L34.6985 27.4369L43.2355 37.8758C43.2979 37.9529 43.3274 38.0515 43.3175 38.1502C43.3076 38.249 43.2592 38.3398 43.1827 38.403L39.8008 41.1688C39.7237 41.2313 39.6251 41.2607 39.5263 41.2509C39.4276 41.241 39.3368 41.1926 39.2735 41.1161L31.3904 31.4847L23.5102 41.1184C23.447 41.1955 23.3557 41.2444 23.2564 41.2543C23.1571 41.2641 23.058 41.2342 22.9807 41.1711ZM20.3663 38.0611L23.166 40.3501L31.0989 30.6487C31.1354 30.6074 31.1803 30.5744 31.2306 30.5518C31.2808 30.5292 31.3353 30.5175 31.3904 30.5175C31.4455 30.5175 31.5 30.5292 31.5502 30.5518C31.6005 30.5744 31.6453 30.6074 31.6819 30.6487L39.6148 40.3501L42.4145 38.0611L33.9212 27.675C33.8662 27.6077 33.8361 27.5235 33.8361 27.4366C33.8361 27.3497 33.8662 27.2654 33.9212 27.1982L42.4145 16.8113L39.6148 14.5223L31.6819 24.2237C31.6454 24.2651 31.6006 24.2982 31.5503 24.3209C31.5 24.3436 31.4455 24.3553 31.3904 24.3553C31.3352 24.3553 31.2807 24.3436 31.2305 24.3209C31.1802 24.2982 31.1354 24.2651 31.0989 24.2237L23.166 14.5223L20.3656 16.8113L28.8588 27.1982C28.9138 27.2654 28.9439 27.3497 28.9439 27.4366C28.9439 27.5235 28.9138 27.6077 28.8588 27.675L20.3663 38.0611Z" fill="black"/>
<path id="Vector_5" fill-rule="evenodd" clip-rule="evenodd" d="M30.2047 115.092C30.2047 105.434 51.0688 97.5942 76.7618 97.5942C102.455 97.5942 123.32 105.434 123.32 115.092C123.32 115.157 123.597 146.878 123.597 146.878H30.2047V115.092Z" fill="white"/>
<path id="Vector_6" d="M76.7612 97.2195C50.8822 97.2195 29.8275 105.238 29.8275 115.094V146.627C29.8275 146.727 29.8672 146.822 29.9378 146.893C30.0084 146.964 30.1042 147.003 30.2041 147.003C30.304 147.003 30.3998 146.964 30.4704 146.893C30.5411 146.822 30.5807 146.727 30.5807 146.627V118.293C34.5509 126.628 53.7489 132.969 76.7612 132.969C99.7734 132.969 118.971 126.628 122.942 118.293V146.627C122.942 146.727 122.982 146.822 123.053 146.893C123.123 146.964 123.219 147.003 123.319 147.003C123.419 147.003 123.515 146.964 123.585 146.893C123.656 146.822 123.696 146.727 123.696 146.627V115.092C123.696 105.238 102.641 97.2195 76.7612 97.2195ZM76.7612 132.215C51.2972 132.215 30.5807 124.533 30.5807 115.094C30.5807 105.655 51.2942 97.9727 76.7612 97.9727C102.228 97.9727 122.942 105.655 122.942 115.094C122.942 124.533 102.226 132.215 76.7612 132.215Z" fill="black"/>
<path id="Vector_7" d="M99.6845 55.9306L68.3876 57.5545C68.2972 57.5592 68.2116 57.5963 68.1463 57.6589C68.081 57.7216 68.0405 57.8056 68.0321 57.8957L62.7498 115.06C62.7449 115.112 62.7511 115.165 62.7678 115.214C62.7846 115.264 62.8116 115.31 62.847 115.349C62.8825 115.387 62.9257 115.418 62.9738 115.439C63.0219 115.46 63.0739 115.471 63.1264 115.471H85.1369C85.2314 115.471 85.3226 115.436 85.3923 115.372C85.4621 115.308 85.5053 115.221 85.5135 115.127L87.2233 95.1513L97.8474 93.6863C97.9342 93.6743 98.0142 93.6324 98.0735 93.5678C98.1327 93.5031 98.1676 93.4199 98.172 93.3323L100.083 56.3253C100.086 56.2724 100.077 56.2196 100.058 56.1703C100.039 56.121 100.009 56.0762 99.9718 56.039C99.9342 56.0017 99.8892 55.9728 99.8397 55.9542C99.7902 55.9355 99.7373 55.9275 99.6845 55.9306Z" fill="black"/>
<path id="Vector_8" d="M100.088 96.5168C100.049 96.4799 100.003 96.4521 99.9525 96.4355C99.9019 96.419 99.8483 96.414 99.7955 96.4211L90.9708 97.334C90.8817 97.3434 90.7988 97.3843 90.737 97.4493C90.6753 97.5143 90.6388 97.5992 90.6341 97.6888L90.2379 105.442C90.2353 105.493 90.243 105.545 90.2608 105.593C90.2785 105.64 90.3058 105.684 90.3411 105.721C90.3763 105.758 90.4187 105.788 90.4657 105.808C90.5128 105.828 90.5634 105.839 90.6145 105.839C90.6899 105.839 90.4172 105.87 99.858 104.427C99.9486 104.414 100.032 104.37 100.093 104.302C100.155 104.234 100.191 104.147 100.195 104.056V96.797C100.198 96.7453 100.19 96.6935 100.172 96.6451C100.153 96.5968 100.125 96.553 100.088 96.5168Z" fill="black"/>
<path id="Vector_9" d="M111.984 105.886C111.982 105.83 111.967 105.776 111.941 105.726C111.915 105.677 111.878 105.634 111.833 105.6C111.789 105.567 111.737 105.544 111.682 105.533C111.628 105.522 111.571 105.523 111.517 105.536L108.001 106.408C107.915 106.429 107.839 106.48 107.787 106.551C107.735 106.623 107.71 106.711 107.716 106.799L107.898 109.455C107.901 109.506 107.915 109.556 107.938 109.601C107.961 109.647 107.994 109.687 108.033 109.72C108.072 109.752 108.118 109.777 108.166 109.791C108.215 109.806 108.267 109.81 108.317 109.804L111.782 109.399C111.877 109.388 111.964 109.342 112.026 109.27C112.088 109.197 112.12 109.104 112.116 109.009L111.984 105.886Z" fill="black"/>
<path id="Vector_10" d="M47.172 63.3182L43.7261 63.6895C43.6296 63.6998 43.5409 63.7469 43.4783 63.821C43.4157 63.8951 43.3841 63.9905 43.3901 64.0872L43.604 67.4662C43.61 67.562 43.6523 67.6519 43.7223 67.7175C43.7923 67.7832 43.8847 67.8196 43.9806 67.8194H47.1268C47.2252 67.8195 47.3196 67.781 47.39 67.7123C47.4604 67.6437 47.5011 67.5502 47.5034 67.4519L47.5901 63.7016C47.5913 63.6479 47.5811 63.5945 47.5601 63.5451C47.5391 63.4956 47.5077 63.4513 47.4681 63.415C47.4285 63.3787 47.3816 63.3512 47.3305 63.3345C47.2795 63.3179 47.2254 63.3123 47.172 63.3182Z" fill="black"/>
<path id="Vector_11" d="M43.7633 85.8799L40.2186 85.9266C40.166 85.9272 40.1141 85.9389 40.0662 85.9608C40.0183 85.9827 39.9756 86.0144 39.9408 86.0539C39.9059 86.0934 39.8797 86.1397 39.8639 86.1899C39.848 86.2401 39.8429 86.2931 39.8488 86.3454L40.2925 90.3329C40.3022 90.4191 40.3414 90.4994 40.4034 90.56C40.4654 90.6207 40.5465 90.6581 40.6329 90.6658C44.173 90.986 43.6895 90.946 43.7678 90.946C43.8677 90.946 43.9635 90.9064 44.0341 90.8357C44.1047 90.7651 44.1444 90.6693 44.1444 90.5694V86.2565C44.1444 86.2067 44.1345 86.1573 44.1153 86.1113C44.0961 86.0654 44.068 86.0236 44.0325 85.9886C43.9971 85.9536 43.955 85.9259 43.9088 85.9073C43.8626 85.8886 43.8131 85.8793 43.7633 85.8799Z" fill="black"/>
<path id="Vector_12" d="M103.446 117.087C103.367 117.016 103.267 116.976 103.162 116.972L100.262 117.072C100.174 117.076 100.09 117.109 100.025 117.168C99.9594 117.226 99.9164 117.306 99.9033 117.392L99.4626 120.342C99.4546 120.395 99.458 120.449 99.4726 120.501C99.4873 120.553 99.5128 120.601 99.5476 120.642C99.5824 120.683 99.6255 120.716 99.6741 120.739C99.7227 120.762 99.7757 120.774 99.8295 120.775L102.967 120.817C103.063 120.818 103.155 120.781 103.225 120.716C103.295 120.651 103.337 120.562 103.344 120.466L103.552 117.374C103.555 117.321 103.548 117.268 103.529 117.219C103.511 117.169 103.482 117.124 103.446 117.087Z" fill="black"/>
<path id="Vector_13" d="M48.7067 117.315L46.2459 117.866C46.1624 117.885 46.0877 117.932 46.0343 117.999C45.9809 118.066 45.9519 118.149 45.9521 118.234V121.31C45.9521 121.41 45.9918 121.505 46.0625 121.576C46.1331 121.647 46.2289 121.686 46.3288 121.686C46.4267 121.686 46.2376 121.746 48.9213 120.74C48.993 120.713 49.0548 120.664 49.0984 120.601C49.142 120.538 49.1654 120.464 49.1654 120.387V117.683C49.1654 117.627 49.1527 117.571 49.1283 117.52C49.1038 117.469 49.0683 117.424 49.0243 117.389C48.9802 117.354 48.9288 117.329 48.8738 117.316C48.8189 117.303 48.7617 117.303 48.7067 117.315Z" fill="black"/>
<path id="Vector_14" fill-rule="evenodd" clip-rule="evenodd" d="M115.236 44.5306C115.236 44.5306 132.793 41.6073 142.925 39.484L141.8 13.3301C141.8 13.3301 114.028 21.8648 102.503 28.6136C113.775 27.199 116.128 32.0716 118.02 38.9959C118.075 40.0805 117.848 41.161 117.36 42.1312C116.872 43.1015 116.14 43.9283 115.236 44.5306Z" fill="white"/>
<path id="Vector_15" fill-rule="evenodd" clip-rule="evenodd" d="M82.9971 67.0768C83.8137 67.4753 84.7331 67.613 85.6307 67.4711C86.5282 67.3292 87.3604 66.9146 88.0142 66.2836C90.1232 63.9773 92.4439 59.7947 94.9438 57.0605C97.7413 54.6148 105.543 50.0925 110.497 47.5911C115.451 45.0896 119.741 41.6279 117.329 36.1806C114.916 30.7333 112.626 26.2683 98.6331 29.303C84.6406 32.3377 81.7136 36.4721 77.0685 41.1157C72.4234 45.7593 71.3245 49.3626 72.0973 52.4215L73.4079 57.6217L81.0907 57.2714C80.8109 55.5421 80.3758 53.8414 79.7906 52.1902C79.7906 52.1902 84.4289 47.6302 85.912 47.0277C85.912 47.0277 88.192 49.2768 88.4677 50.3268C88.7433 51.3767 85.845 55.4381 84.2436 57.3317C82.6423 59.2253 79.9081 65.187 82.9971 67.0768Z" fill="#FFD997"/>
<path id="Vector_16" d="M142.177 13.3104C142.175 13.2525 142.159 13.1959 142.131 13.1451C142.103 13.0943 142.064 13.0506 142.017 13.0175C141.969 12.9843 141.915 12.9626 141.857 12.9539C141.8 12.9453 141.741 12.95 141.686 12.9676C141.411 13.055 113.968 21.7901 102.376 28.2489C101.205 28.4093 99.9324 28.636 98.5495 28.9358C85.726 31.7167 82.1618 35.3668 78.0357 39.5923C77.6304 40.0073 77.2214 40.4261 76.7981 40.8494C72.4912 45.1556 70.8327 48.9714 71.729 52.5137L73.0426 57.7162C73.0614 57.8015 73.1102 57.8771 73.1802 57.9292C73.2502 57.9814 73.3367 58.0066 73.4237 58.0002L81.1065 57.6499C81.1596 57.6475 81.2115 57.6339 81.2589 57.6101C81.3063 57.5862 81.3481 57.5525 81.3816 57.5114C81.4151 57.4702 81.4396 57.4224 81.4533 57.3711C81.467 57.3198 81.4697 57.2662 81.4613 57.2138C81.1889 55.5401 80.778 53.8919 80.2328 52.2863C81.5517 51.0058 84.5593 48.1895 85.8345 47.486C86.4051 48.0639 86.9416 48.6745 87.4411 49.3148C87.726 49.7716 87.9381 50.2699 88.07 50.7919C87.7529 51.9692 85.7433 54.9775 83.9552 57.0888C82.8352 58.4129 80.8324 62.2152 81.2813 65.0073C81.3859 65.8553 81.8136 66.6303 82.4753 67.1709C83.1369 67.7115 83.9816 67.976 84.8334 67.9095C86.1211 67.911 87.3606 67.4204 88.2982 66.5379C90.4125 64.2217 92.7588 60.0188 95.1939 57.3441C98.0283 54.8668 106.003 50.2842 110.67 47.9289C112.374 47.1114 113.972 46.0882 115.428 44.8822C117.014 44.6163 133.429 41.861 143.008 39.8492C143.096 39.8314 143.174 39.7829 143.229 39.7125C143.285 39.6421 143.313 39.5544 143.309 39.465L142.177 13.3104ZM110.324 47.2555C105.8 49.5393 97.7037 54.1445 94.6622 56.8071C93.1102 58.6315 91.6761 60.5531 90.3688 62.5601C89.5832 61.3844 88.0015 59.9502 86.0943 60.7938C83.4332 61.9674 83.8151 65.3132 83.8347 65.454C83.8392 65.5043 83.8538 65.5531 83.8776 65.5977C83.9014 65.6422 83.9339 65.6815 83.9732 65.7132C84.0125 65.7449 84.0577 65.7684 84.1063 65.7823C84.1548 65.7962 84.2056 65.8001 84.2557 65.794C84.3058 65.7878 84.3542 65.7716 84.3979 65.7464C84.4417 65.7212 84.4799 65.6874 84.5103 65.6471C84.5407 65.6068 84.5627 65.5609 84.575 65.5119C84.5873 65.4629 84.5897 65.412 84.5819 65.3621C84.5676 65.2431 84.2535 62.4291 86.4001 61.4823C88.2124 60.6831 89.5478 62.6392 89.9003 63.2328C89.2412 64.2012 88.5244 65.1291 87.7537 66.0114C87.1586 66.5836 86.4035 66.9611 85.5888 67.0939C84.774 67.2267 83.9381 67.1084 83.1922 66.7548C82.8692 66.5514 82.5962 66.2778 82.3934 65.9544C82.1907 65.6311 82.0634 65.2662 82.0209 64.8868C81.6285 62.4517 83.4151 58.8875 84.5261 57.5754C84.5676 57.5264 88.2659 53.0561 88.7916 50.9162C88.9422 50.593 91.2855 45.5367 91.2215 41.7269C91.2174 41.6279 91.1754 41.5343 91.1042 41.4655C91.0329 41.3966 90.9379 41.3578 90.8388 41.3571C90.7893 41.3579 90.7404 41.3684 90.695 41.3881C90.6496 41.4078 90.6084 41.4363 90.574 41.4719C90.5396 41.5075 90.5125 41.5496 90.4944 41.5957C90.4762 41.6418 90.4674 41.691 90.4683 41.7405C90.4448 43.1577 90.2261 44.5649 89.8182 45.9224C85.8337 46.711 86.0469 46.5099 85.4985 46.8104C83.7661 47.7594 79.7033 51.7455 79.521 51.924C79.4675 51.9766 79.431 52.044 79.4161 52.1176C79.4012 52.1911 79.4086 52.2674 79.4374 52.3367C79.9754 53.8241 80.3787 55.3568 80.6426 56.9163L73.6987 57.2326L72.4604 52.33C71.6363 49.0663 73.2302 45.4855 77.3329 41.382C77.7585 40.9572 78.1697 40.5354 78.5765 40.1196C82.6182 35.9769 86.1086 32.4051 98.7122 29.6717C112.104 26.7696 114.441 30.5959 116.983 36.3332C118.848 40.5497 116.733 44.0197 110.324 47.2555ZM116.373 43.958C117.404 42.946 118.086 41.6316 118.319 40.2058C118.553 38.7799 118.325 37.3168 117.671 36.0289C115.69 31.5555 113.804 27.2916 104.385 28.0312C115.736 22.1991 137.941 14.9637 141.447 13.8353L142.537 39.1773C134.026 40.9504 120.452 43.2695 116.373 43.958Z" fill="black"/>
<path id="Vector_17" d="M117.058 64.8522C117.057 64.7966 117.044 64.7418 117.02 64.6917C116.996 64.6416 116.961 64.5975 116.918 64.5625C116.875 64.5275 116.824 64.5025 116.77 64.4893C116.716 64.4761 116.66 64.475 116.606 64.4861L111.252 65.5301C111.17 65.5467 111.095 65.5903 111.041 65.6539C110.986 65.7174 110.954 65.7974 110.95 65.8811L110.724 70.4237C110.722 70.4747 110.73 70.5258 110.748 70.5736C110.765 70.6215 110.793 70.6653 110.828 70.7023C110.863 70.7393 110.906 70.7687 110.952 70.7888C110.999 70.8089 111.05 70.8192 111.101 70.8192L116.77 70.6105C116.868 70.6068 116.961 70.5649 117.028 70.4937C117.096 70.4225 117.133 70.3276 117.132 70.2294L117.058 64.8522Z" fill="black"/>
<path id="Vector_18" d="M122.684 87.8167L118.685 88.1436C118.586 88.1517 118.494 88.1984 118.43 88.2735C118.365 88.3486 118.333 88.4462 118.34 88.5451L118.521 91.1896C118.528 91.2816 118.567 91.368 118.633 91.4325C118.699 91.4971 118.786 91.5353 118.878 91.5398L122.715 91.7274C122.815 91.7274 122.911 91.6877 122.981 91.6171C123.052 91.5465 123.092 91.4507 123.092 91.3508V88.1918C123.092 88.1398 123.081 88.0883 123.06 88.0406C123.039 87.993 123.008 87.9502 122.97 87.915C122.932 87.8797 122.887 87.8528 122.837 87.8359C122.788 87.819 122.736 87.8124 122.684 87.8167Z" fill="black"/>
<path id="Vector_19" d="M136.003 77.1388L135.791 74.5689C135.783 74.4744 135.74 74.3864 135.671 74.3223C135.601 74.2582 135.509 74.2228 135.415 74.2231H132.598C132.501 74.2231 132.408 74.2606 132.337 74.3278C132.267 74.395 132.226 74.4868 132.222 74.5839L132.114 77.0884C132.112 77.1385 132.12 77.1886 132.137 77.2356C132.155 77.2827 132.182 77.3257 132.216 77.3623C132.25 77.3988 132.292 77.4282 132.338 77.4485C132.383 77.4689 132.433 77.4798 132.483 77.4808L135.625 77.5493C135.678 77.5497 135.73 77.539 135.778 77.518C135.826 77.4971 135.869 77.4663 135.905 77.4276C135.941 77.389 135.968 77.3433 135.984 77.2936C136.001 77.2438 136.008 77.1911 136.003 77.1388Z" fill="black"/>
<path id="Vector_20" d="M24.0468 100.362L23.8849 97.794C23.8818 97.7445 23.869 97.6961 23.8472 97.6516C23.8254 97.607 23.795 97.5673 23.7577 97.5345C23.7205 97.5018 23.6772 97.4767 23.6302 97.4607C23.5833 97.4448 23.5336 97.4382 23.4842 97.4415L21.9943 97.5417C21.8967 97.5481 21.8054 97.5922 21.7397 97.6648C21.6741 97.7373 21.6392 97.8325 21.6426 97.9303L21.7292 100.503C21.7325 100.601 21.7736 100.693 21.8439 100.761C21.9142 100.829 22.0081 100.867 22.1058 100.867C22.1276 100.867 23.6747 100.763 23.6966 100.762C23.796 100.755 23.8887 100.709 23.9543 100.634C24.02 100.559 24.0532 100.461 24.0468 100.362Z" fill="black"/>
<path id="Vector_21" d="M24.0194 71.9954C24.0188 71.9457 24.0084 71.8966 23.9887 71.851C23.9691 71.8054 23.9406 71.7641 23.9049 71.7295C23.8312 71.663 23.736 71.6253 23.6368 71.6233L22.1432 71.6451C22.0455 71.6467 21.9522 71.6861 21.8831 71.7551C21.8139 71.8241 21.7743 71.9173 21.7726 72.015L21.7266 74.5895C21.7257 74.6395 21.7348 74.6892 21.7533 74.7357C21.7718 74.7821 21.7994 74.8245 21.8345 74.8602C21.8696 74.8958 21.9114 74.9242 21.9575 74.9435C22.0037 74.9629 22.0532 74.9729 22.1032 74.9728L23.6782 74.9495C23.7778 74.9479 23.8728 74.9069 23.9422 74.8355C24.0117 74.764 24.05 74.668 24.0488 74.5684L24.0194 71.9954Z" fill="black"/>
<path id="Vector_22" d="M55.4369 78.8395L55.3156 77.9281C55.3025 77.8296 55.2509 77.7403 55.1722 77.6796C55.0934 77.6189 54.9939 77.5919 54.8953 77.6043L53.8302 77.7368C53.7377 77.7482 53.6527 77.7934 53.5916 77.8638C53.5306 77.9342 53.4978 78.0248 53.4996 78.118L53.5207 79.131C53.5218 79.1862 53.535 79.2405 53.5594 79.2901C53.5838 79.3396 53.6188 79.3832 53.6619 79.4177C53.7051 79.4522 53.7552 79.4768 53.8089 79.4897C53.8626 79.5027 53.9185 79.5036 53.9726 79.4926L55.1386 79.2591C55.2323 79.2401 55.3152 79.1861 55.3706 79.1082C55.426 79.0303 55.4497 78.9343 55.4369 78.8395Z" fill="black"/>
<path id="Vector_23" d="M88.498 124.567L88.2171 122.458C88.2039 122.36 88.1525 122.27 88.0739 122.21C87.9954 122.149 87.896 122.122 87.7975 122.134L85.3293 122.442C85.2369 122.453 85.1521 122.498 85.0911 122.569C85.0302 122.639 84.9975 122.73 84.9993 122.823L85.046 125.17C85.0471 125.225 85.0604 125.279 85.0848 125.329C85.1092 125.378 85.1442 125.422 85.1873 125.456C85.2304 125.491 85.2806 125.515 85.3343 125.528C85.388 125.541 85.4439 125.542 85.498 125.531L88.1998 124.99C88.294 124.971 88.3774 124.916 88.4329 124.838C88.4884 124.759 88.5117 124.662 88.498 124.567Z" fill="black"/>
<path id="Vector_24" d="M109.869 86.3799L108.39 86.468C108.298 86.4739 108.211 86.5137 108.146 86.5798C108.081 86.646 108.042 86.7339 108.038 86.8266L107.963 88.5251C107.958 88.6227 107.992 88.7183 108.057 88.7916C108.122 88.8648 108.212 88.91 108.31 88.9175L109.81 89.032C109.907 89.0321 110 88.9947 110.07 88.9276C110.14 88.8605 110.182 88.7689 110.186 88.6719L110.269 86.7716C110.271 86.7188 110.262 86.6662 110.243 86.6171C110.223 86.5681 110.194 86.5236 110.156 86.4867C110.119 86.4498 110.073 86.4212 110.024 86.4028C109.975 86.3844 109.922 86.3766 109.869 86.3799Z" fill="black"/>
<path id="Vector_25" d="M128.28 105.086C128.278 105.034 128.266 104.982 128.243 104.934C128.221 104.886 128.188 104.844 128.148 104.81C128.108 104.775 128.061 104.75 128.011 104.735C127.96 104.719 127.907 104.715 127.855 104.722L126.387 104.911C126.294 104.923 126.209 104.968 126.149 105.039C126.088 105.11 126.055 105.2 126.058 105.294L126.099 106.993C126.1 107.092 126.141 107.187 126.211 107.258C126.281 107.328 126.376 107.368 126.476 107.369H127.953C128.003 107.371 128.053 107.362 128.099 107.343C128.145 107.325 128.188 107.297 128.223 107.262C128.258 107.227 128.286 107.185 128.304 107.139C128.323 107.092 128.331 107.043 128.33 106.993L128.28 105.086Z" fill="black"/>
<path id="Vector_26" d="M135.359 120.309L132.397 120.455C132.304 120.459 132.216 120.498 132.15 120.564C132.084 120.63 132.045 120.717 132.04 120.81L131.889 123.623C131.884 123.722 131.918 123.819 131.984 123.894C132.049 123.968 132.141 124.013 132.24 124.02L135.213 124.208C135.309 124.208 135.402 124.171 135.472 124.105C135.542 124.039 135.584 123.948 135.589 123.852L135.755 120.705C135.758 120.652 135.749 120.6 135.73 120.55C135.711 120.501 135.682 120.456 135.645 120.419C135.608 120.382 135.563 120.353 135.514 120.334C135.465 120.315 135.412 120.307 135.359 120.309Z" fill="black"/>
<path id="Vector_27" d="M98.7526 57.4653C98.6756 57.4028 98.577 57.3732 98.4783 57.3829C98.3796 57.3927 98.2887 57.4409 98.2254 57.5173L81.458 77.9385L69.5896 59.0998C69.5357 59.0168 69.4512 58.9584 69.3546 58.9371C69.2579 58.9159 69.1568 58.9336 69.073 58.9863C68.9893 59.0391 68.9297 59.1227 68.9071 59.2191C68.8845 59.3154 68.9008 59.4168 68.9524 59.5013L85.4403 85.6778L64.0007 113.348C63.9704 113.387 63.948 113.432 63.9349 113.48C63.9218 113.527 63.9183 113.577 63.9245 113.626C63.9307 113.675 63.9465 113.723 63.971 113.766C63.9955 113.809 64.0283 113.847 64.0674 113.877C64.1065 113.907 64.1512 113.93 64.199 113.943C64.2467 113.956 64.2966 113.96 64.3458 113.953C64.3949 113.947 64.4423 113.931 64.4854 113.907C64.5284 113.882 64.5662 113.85 64.5965 113.81L78.0158 96.4872L84.4649 104.923C84.5256 105.003 84.6156 105.056 84.715 105.069C84.8145 105.083 84.9152 105.056 84.9951 104.996C85.075 104.935 85.1275 104.845 85.1411 104.745C85.1547 104.646 85.1282 104.545 85.0674 104.465L78.4971 95.8696L86.201 85.9271C86.2483 85.8659 86.2756 85.7917 86.2792 85.7145C86.2829 85.6373 86.2627 85.5608 86.2214 85.4955L81.8821 78.6066L98.8053 57.9978C98.8371 57.9595 98.8609 57.9153 98.8754 57.8677C98.8899 57.8201 98.8949 57.7701 98.89 57.7206C98.8851 57.6711 98.8704 57.623 98.8469 57.5792C98.8233 57.5354 98.7912 57.4967 98.7526 57.4653Z" fill="white"/>
</g>
</g>
</svg>
