<svg width="151" height="151" viewBox="0 0 151 151" fill="none" xmlns="http://www.w3.org/2000/svg">
<g id="Looking-Trough-Telescope--Streamline-London">
<g id="Looking-Trough-Telescope--Streamline-London.svg">
<path id="line" d="M146.699 122.457H3.94313C3.60945 122.457 3.60945 122.961 3.94313 122.961H146.699C147.033 122.961 147.033 122.457 146.699 122.457Z" fill="black"/>
<g id="person">
<path id="vector" d="M32.7754 126.273L33.0202 124.682L38.0697 124.499L37.825 126.395C37.825 126.395 35.8056 126.794 36.2033 128.201C36.2033 128.201 33.3569 129.485 32.7754 126.273Z" fill="#FFD997"/>
<path id="vector_2" d="M50.6614 133.03C50.6403 132.719 50.4731 132.455 50.2471 132.303C49.3689 131.713 45.7941 130.932 44.9385 130.547C44.0828 130.161 41.8541 128.234 41.8541 128.234C41.4692 127.805 41.0835 127.034 40.7401 126.348C40.3966 125.662 38.4269 126.134 36.8429 126.863C36.1951 127.161 36.0837 127.66 36.1786 128.145C35.5948 128.318 34.9282 128.464 34.4861 128.403C32.8042 128.172 32.8147 126.219 32.8147 126.219C32.8147 126.219 32.3311 126.297 31.9154 126.861C31.1885 127.846 31.1162 129.86 30.8887 132.171C30.8277 132.795 30.7705 133.488 30.824 133.758C30.8496 133.885 30.943 133.987 31.0688 134.023C33.3676 134.68 34.8672 134.502 35.9406 134.741C38.158 135.234 38.6544 135.696 41.2093 136.239C47.0015 137.472 50.2464 136.325 50.5454 135.469C50.7149 134.985 50.7872 133.849 50.6599 133.031L50.6614 133.03Z" fill="white"/>
<path id="vector_3" d="M50.9761 133.652C50.9083 132.001 50.6514 131.947 46.9411 130.904C46.1284 130.675 45.3593 130.459 45.0422 130.317C44.2318 129.953 42.049 128.07 42.0339 128.058C41.6693 127.648 41.2792 126.866 40.9658 126.237C40.6013 125.512 39.2756 125.744 38.2038 126.077C38.319 124.413 38.3386 124.496 38.246 124.389C38.1654 124.297 38.0102 124.263 37.8919 124.364C37.7827 124.456 37.8159 124.378 37.6863 126.251C36.6928 126.61 35.8274 126.91 35.9012 127.964C35.2926 128.129 34.8136 128.192 34.5221 128.155C33.1505 127.968 33.0729 126.44 33.0691 126.244L33.1956 124.95C33.2273 124.617 32.7256 124.574 32.6925 124.902L32.5818 126.03C30.9593 126.641 30.8757 129.422 30.7115 131.313C30.6739 131.765 30.5037 133.424 30.5805 133.811C30.6249 134.032 30.7861 134.207 31.0023 134.269C32.4899 134.7 33.6431 134.78 34.5703 134.843C37.2254 135.028 38.0629 135.831 41.1602 136.491C42.8496 136.851 44.451 137.032 45.9197 137.032C48.9236 137.032 50.5309 136.291 50.7893 135.556C50.9256 135.168 51.0062 134.388 50.9761 133.653V133.652ZM32.5931 126.58C32.7482 127.663 33.3516 128.504 34.4543 128.655C34.8226 128.707 35.3408 128.639 36.0021 128.46C36.2175 129.12 36.6943 129.681 36.6943 129.681C36.912 129.936 37.2977 129.611 37.077 129.352C36.9888 129.242 36.5429 128.666 36.4292 128.094C36.3358 127.618 36.5023 127.299 36.9512 127.092C38.7559 126.261 40.3218 126.072 40.5169 126.461C40.8031 127.035 41.121 127.672 41.4517 128.13C39.7253 128.944 39.7117 130.403 39.7215 130.581C39.7381 130.899 40.2488 130.893 40.2262 130.548C40.2262 130.534 40.1652 129.22 41.8094 128.525C41.9902 128.679 42.2975 128.939 42.6568 129.23C41.2151 130.099 41.2746 131.432 41.2777 131.492C41.298 131.832 41.7981 131.79 41.7801 131.461C41.7763 131.336 41.7823 130.254 43.0809 129.57C43.3904 129.814 43.7143 130.06 44.0133 130.27C42.8059 131.113 42.8255 132.265 42.833 132.405C42.8572 132.743 43.3528 132.697 43.3362 132.372C43.3302 132.257 43.3362 131.262 44.4713 130.575C45.4814 131.197 49.1495 131.866 50.1106 132.51C50.6273 132.86 50.6206 133.774 49.1058 134.319C48.2909 134.61 45.8986 135.18 41.2671 134.195C38.1774 133.537 37.3459 132.724 34.5974 132.538C33.6995 132.477 32.584 132.4 31.162 131.989C31.3111 130.347 31.3691 127.293 32.5946 126.578L32.5931 126.58ZM50.311 135.389C50.0767 136.06 47.042 137.225 41.2649 135.996C39.9482 135.717 39.1815 135.458 38.4403 135.204C34.0596 133.706 34.69 134.81 31.1424 133.785C30.9458 133.725 31.1085 132.711 31.1341 132.508C32.5577 132.906 33.6664 132.983 34.5763 133.045C37.269 133.229 37.9876 134.016 41.1602 134.692C43.6104 135.212 48.7277 135.878 50.4774 134.085C50.4699 134.616 50.4059 135.121 50.311 135.389V135.389Z" fill="black"/>
<path id="vector_4" d="M22.0657 132.516L22.309 130.742C24.3555 131.32 26.3153 131.621 28.0628 131.231V132.546C27.7434 132.793 25.5327 133.056 26.1044 134.719C26.1044 134.719 22.5538 136.157 22.0657 132.516V132.516Z" fill="#FFD997"/>
<path id="vector_5" d="M38.5401 75.4227C38.5401 75.5771 40.9361 84.6835 41.4415 87.7551C42.548 94.4904 43.1513 98.8967 43.1001 100.349C43.0112 102.837 41.7526 110.922 41.3903 113.927C41.028 116.932 40.665 124.189 40.665 124.189C40.665 124.189 33.5139 125.329 31.0773 124.397L30.1132 131.04C26.6966 131.83 22.8205 131.746 17.6791 129.256C20.2099 111.242 15.9617 116.952 21.3954 101.76C21.3179 101.499 20.1255 101.29 20.2061 99.5316C20.2995 97.5025 20.3545 97.4008 19.9576 95.3701C19.9576 95.3701 16.8822 82.5684 16.7263 76.0976C16.5696 69.6267 16.2043 66.9912 21.3179 60.7561C28.893 60.5271 34.4615 65.896 38.5401 75.4227Z" fill="#81F8F8"/>
<path id="vector_6" d="M78.0507 58.9333C74.9656 56.1562 71.7652 48.2557 71.4413 48.7633C71.2063 49.1324 70.6142 50.4829 70.3084 51.194C69.4633 51.4101 67.9825 51.8425 67.6247 52.2982C67.6247 52.2982 65.222 49.7568 62.3093 45.7806C59.9397 42.5478 55.7676 37.969 52.1785 36.8437C52.5167 32.9902 49.9377 30.0956 44.5936 31.3753C38.5046 32.8336 34.3785 38.9022 31.6225 40.3138C28.8665 41.7253 24.0286 44.4135 23.5578 47.5055C23.2128 49.7711 23.5563 51.2075 24.3186 52.6063C23.4403 53.544 22.2698 54.6497 21.2356 55.1514C19.2645 56.1057 16.1492 59.1562 19.3277 63.2906C19.3277 63.2906 21.0797 60.9248 21.4857 60.8088C21.4857 60.8088 23.5277 61.2652 26.1632 65.6083C28.7979 69.9536 33.9281 77.0722 38.9212 75.3157C38.9212 75.3157 40.0766 73.1434 38.8745 69.7683C38.8745 69.7683 41.6478 66.2545 43.7267 62.8349C45.8078 59.4146 50.6608 53.7285 52.6478 52.6198C52.6478 52.6198 56.5298 55.3465 57.5941 56.5026C58.6577 57.6581 61.6148 61.6795 64.4808 62.7897C64.4808 62.7897 67.6699 63.8985 69.9348 63.2974C69.9348 63.2974 70.5359 64.7767 73.1707 63.6213C73.8749 63.3125 74.3607 62.9178 74.6952 62.5058C75.4815 62.1021 79.2958 60.0556 78.0507 58.9348V58.9333Z" fill="white"/>
<path id="vector_7" d="M92.0042 35.7745C91.4664 35.4596 87.4156 36.0923 87.4156 36.0923C87.4156 36.0923 89.7672 34.9497 91.2465 34.4338C92.7258 33.9178 92.5684 33.56 92.5684 33.56C92.53 32.8573 91.2081 33.0087 90.1054 33.2587C90.8013 32.9318 91.2819 32.6321 91.2126 32.3579C91.01 31.5565 90.0835 31.9278 88.5568 32.4114L85.8602 33.261C86.0312 32.9077 86.0794 32.5387 86.0907 32.2826C86.0967 32.138 85.9356 32.0528 85.8203 32.1259C85.0046 32.6464 83.3558 33.5555 83.3558 33.5555C78.6128 35.2239 77.9244 38.4936 77.9244 38.4936C77.0039 40.5017 72.2368 49.7466 72.2368 49.7466C76.3012 58.0004 77.3316 57.8648 77.3316 57.8648C79.3494 52.1517 80.9802 46.3993 82.3277 40.6146C84.8148 41.1532 88.7338 39.1587 89.8545 39.0013C90.9753 38.8438 91.669 38.3746 91.6013 37.836C91.5335 37.2975 89.0689 37.6349 89.0689 37.6349C89.0689 37.6349 92.2505 36.6708 92.4064 36.4471C92.5624 36.2234 92.5405 36.0893 92.0035 35.7752L92.0042 35.7745Z" fill="#FFD997"/>
<path id="vector_8" d="M66.4848 52.8522C66.3884 52.9682 64.1144 55.7378 64.1619 57.9658C64.1656 58.3063 64.6733 58.2844 64.6665 57.9545C64.6243 55.9193 66.8508 53.2017 66.8742 53.1746C67.0851 52.9163 66.6972 52.5961 66.4848 52.8515V52.8522Z" fill="black"/>
<path id="vector_9" d="M66.7316 54.4279C66.6134 54.6675 66.2435 57.5206 66.4296 59.3728C66.4605 59.7147 66.9636 59.6477 66.9327 59.3238C66.7565 57.553 67.1007 54.8806 67.1866 54.6494C67.3297 54.3519 66.8808 54.1334 66.7316 54.4279Z" fill="black"/>
<path id="vector_10" d="M92.4867 35.6956C92.0122 35.2738 91.1874 35.3665 88.6498 35.8139C90.1352 35.2354 89.8565 35.3047 91.198 34.7827C92.254 34.37 92.8927 34.1214 92.8558 33.6266C92.7948 32.7536 92.0137 32.7363 91.1686 32.9328C91.4059 32.7332 91.5173 32.5284 91.4593 32.2979C91.1867 31.22 89.8972 31.7194 88.8374 32.0591L86.2674 32.8733C86.3111 32.6911 86.3382 32.4975 86.3465 32.2941C86.3593 31.9469 85.9767 31.7307 85.6875 31.913C84.9305 32.3928 83.3419 33.2778 83.2613 33.3245C78.6035 34.9673 77.7644 38.0735 77.6898 38.4072C76.7784 40.3897 72.1732 49.3243 72.0151 49.6324C71.8629 49.9277 72.3088 50.1612 72.464 49.8629C72.6952 49.4177 77.2379 40.6036 78.153 38.6046C78.2035 38.5142 78.3067 37.8144 79.0795 36.7833C80.7998 34.4912 83.2802 33.8849 83.482 33.7757C84.1569 33.4096 85.176 32.8221 85.8298 32.4161C85.7952 32.7762 85.6671 33.3087 85.2378 33.6627C82.957 35.5435 82.3861 35.4719 82.4848 35.8538C82.5872 36.2274 82.6151 36.9972 82.4885 37.5689C82.371 38.0999 82.1293 38.6761 81.6367 39.171C81.4001 39.4075 81.7594 39.766 81.9944 39.528C82.5375 38.9849 82.823 38.3665 82.9638 37.7881C83.2937 37.6548 84.1283 37.4318 84.8325 38.1745C85.063 38.405 85.4261 38.0615 85.1964 37.825C84.4439 37.0288 83.583 37.0816 83.061 37.2224C83.1212 36.6485 83.0595 36.1634 83.012 35.9065C83.3397 35.6934 84.5524 34.8867 85.5617 34.0551C85.753 33.8947 85.9134 33.6989 86.0377 33.4737C89.5605 32.3566 90.4794 31.9981 90.8244 32.1909C90.8681 32.2143 90.9298 32.2632 90.969 32.4184C90.9765 32.56 90.2813 32.9215 88.8615 33.5324C87.8138 33.9828 87.5863 34.0333 86.3646 34.4189C86.333 34.2126 86.3096 34.083 86.3021 34.0612C86.1778 33.7395 85.7116 33.9301 85.8215 34.2193C85.8953 34.5078 86.3699 38.1677 85.9029 39.2207C85.8275 39.3849 85.9473 39.5762 86.1311 39.5755C86.2313 39.5755 86.3254 39.516 86.3646 39.4271C86.4746 39.1793 86.5431 38.8403 86.5808 38.4517C89.965 37.8039 91.4194 37.4077 91.378 38.1202C91.329 38.3304 89.736 38.7175 88.7877 39.0768C86.9114 39.7864 84.4906 40.633 82.3989 40.4334C81.7527 40.3769 82.6693 41.2378 77.0699 58.0255C77.033 58.137 77.0262 58.1897 77.0654 58.2695C77.1565 58.4533 77.4495 58.4774 77.5369 58.2153C77.9203 57.0681 81.309 46.8786 82.5729 40.9516C85.3899 41.1203 88.7726 39.5732 89.4942 39.357C91.1468 38.8614 91.851 38.6656 91.8804 38.1526C91.9128 37.5689 91.5204 37.3 90.9411 37.2578L91.1136 37.2156C92.1109 36.9754 92.7135 36.83 92.7383 36.3668C92.7541 36.0858 92.6698 35.8606 92.4867 35.6964V35.6956ZM87.8921 34.4664C91.2808 33.3946 92.2962 32.9667 92.3512 33.6635C92.3286 33.7998 91.4827 34.1305 91.0134 34.3135C89.5243 34.8897 89.8158 34.8566 86.5544 36.0715C86.522 35.6738 86.4821 35.301 86.4429 34.9869C86.7329 34.8882 87.2835 34.6969 87.8929 34.4664H87.8921ZM92.2359 36.3268C92.1463 36.4835 90.8146 36.7449 89.8972 37.004C88.5941 37.3708 86.693 37.7836 86.6177 37.8114C86.626 37.4446 86.6162 37.0582 86.5958 36.6786C86.6734 36.6846 86.5476 36.6989 89.6396 36.1521C90.6881 35.9668 91.8337 35.789 92.1523 36.073C92.196 36.1114 92.2442 36.1762 92.2367 36.3268H92.2359Z" fill="black"/>
<path id="vector_11" d="M64.3541 22.9991C57.1978 24.1229 55.3065 31.0269 55.3065 31.0269L50.7585 32.4067C52.4495 34.2212 52.4638 36.5653 51.3724 39.2565C51.3724 39.2565 51.5253 40.8925 51.6285 42.1707C51.7317 43.4489 51.9562 46.0641 52.4457 46.2079C53.315 46.4633 54.6444 40.4835 54.6444 40.4835L60.063 39.0004L62.9961 41.9643C62.9961 41.9643 65.2067 40.4601 65.6647 40.1543C66.1799 39.8101 66.6958 40.085 66.1076 38.8437C66.7945 39.1322 67.0905 38.9273 67.144 38.5522C67.2035 38.1365 67.7436 37.8224 67.7436 37.8224C68.5299 38.1478 69.647 38.3398 69.6695 37.4149C69.6967 36.3031 69.8322 34.918 70.1576 33.9139C70.4423 33.0357 72.0836 32.3412 72.0836 32.3412C72.3367 32.0723 72.7856 31.582 73.0055 30.8212C73.4123 29.4104 73.5215 27.538 73.5215 27.538C73.5215 27.538 71.5097 21.8753 64.3541 22.9998V22.9991Z" fill="#FFD997"/>
<path id="vector_12" d="M78.2219 58.7467C76.2726 56.9932 74.2991 53.1865 73.0985 50.9329C72.157 49.1651 71.8376 48.4954 71.4761 48.4879C71.3774 48.4857 71.284 48.5399 71.2298 48.628C70.9406 49.0792 70.3674 50.5412 70.1941 50.9916C69.4861 51.1204 67.9925 51.4782 67.5383 52.0371C66.4265 50.8651 61.1623 43.9212 60.3044 42.8139C58.9961 41.1177 57.4023 39.8357 57.2215 39.6919C56.9601 39.4877 56.6423 39.8832 56.9142 40.0918C57.0867 40.2281 58.636 41.471 59.9044 43.1205C60.9062 44.4243 66.4529 51.7245 67.2973 52.5078C67.115 53.142 67.35 53.8425 67.365 53.8855C67.4765 54.2003 67.9533 54.0338 67.8426 53.7183C67.8388 53.707 67.463 52.5681 68.1461 52.1719C68.754 51.8186 69.688 51.6025 70.1384 51.5136C70.3402 53.9495 72.6918 60.5537 74.4807 62.4676C73.8902 63.0762 71.7427 64.1714 70.7146 63.6954C69.8055 63.272 69.1456 61.2338 69.1389 61.2127C69.0372 60.8964 68.5566 61.0448 68.6576 61.3657C68.6771 61.4267 68.9905 62.3998 69.5223 63.2012C66.5245 63.4332 63.5417 62.4104 62.3328 61.2527C57.4987 56.6287 58.9177 56.8403 52.9711 52.4867C56.7424 48.4043 57.2863 44.5177 57.2915 44.4725C57.3314 44.1441 56.8373 44.0673 56.7899 44.4047C56.7839 44.4537 56.0691 49.4114 50.7325 53.9276C47.6067 56.5722 44.6157 61.1322 42.2099 64.8003C40.5618 67.3146 39.0042 69.6894 38.2623 69.9636C37.0918 70.399 35.8671 69.2707 34.808 68.5393C34.5339 68.348 34.2431 68.7622 34.518 68.9528C35.6878 69.7738 37.4194 71.3081 38.84 70.2001C39.2573 71.7352 39.2174 73.5647 38.9462 74.6509C38.8144 75.1751 37.9979 75.3235 37.4578 75.2602C31.7507 74.5831 28.7785 69.117 25.8335 64.5533C22.6556 59.6235 19.9523 60.223 19.8394 60.2471C19.517 60.3262 19.6322 60.8135 19.9591 60.7382C19.984 60.733 22.4372 60.217 25.4086 64.8252C28.5021 69.6412 31.5007 75.0636 37.3976 75.7626C38.2118 75.856 39.2369 75.566 39.4343 74.7744C39.728 73.6039 39.7921 71.565 39.252 69.819C40.1031 68.9325 41.2254 67.2219 42.6385 65.0662C49.3165 54.888 50.1156 55.4363 52.6193 52.8558C58.5517 57.1883 57.2087 57.0482 61.9826 61.6157C63.6743 63.2351 67.2875 63.9364 69.8507 63.6765C69.862 63.675 69.8725 63.6728 69.8838 63.6697C70.0721 63.8761 70.2777 64.0464 70.5007 64.1503C71.8045 64.7589 74.4317 63.4423 74.9883 62.6416C76.6379 61.8093 79.5837 59.973 78.2211 58.7437L78.2219 58.7467ZM74.8618 62.1385C73.1158 60.3044 70.6784 53.3748 70.6302 51.2643C70.7184 51.0323 71.2087 49.7639 71.5243 49.1364C72.441 50.4983 75.1895 56.695 77.8822 59.1181C78.7612 59.9142 75.9193 61.6014 74.8618 62.1385Z" fill="black"/>
<path id="vector_13" d="M38.0904 58.3333C38.0904 58.3333 42.856 64.6738 43.4782 65.4052C43.4782 65.4052 44.1373 66.5418 44.3934 67.8245C44.6495 69.1073 45.3462 71.5251 46.0052 72.6609C46.6643 73.7968 46.3329 74.4159 46.2598 75.4057C45.9879 79.0731 46.0663 78.6475 45.0863 80.1163C44.7933 80.5561 44.3323 80.5501 44.1388 80.2616C43.9452 79.9732 44.3971 79.3789 44.5884 78.9774C44.9251 78.2716 44.9477 77.4642 44.8671 76.6567C44.8671 76.6567 44.6028 78.2114 44.3519 78.8335C44.0522 79.574 43.8601 80.6857 42.6097 80.117C42.6097 80.117 41.1304 80.4025 41.8987 78.1248C41.8987 78.1248 40.5452 80.1893 40.1068 79.2629C39.8507 78.7228 40.3064 78.1248 40.8465 77.2435C41.2412 76.5987 41.1591 74.0845 41.1591 74.0845C41.1591 74.0845 39.8507 71.2961 39.8213 68.394C39.8213 68.394 33.9598 63.7557 32.3381 61.7069C32.3381 61.7069 36.4432 61.2188 38.0904 58.334V58.3333Z" fill="#FFD997"/>
<path id="vector_14" d="M60.1816 15.1107C59.9707 14.8765 59.7892 14.6746 59.6777 14.4908C58.9396 13.2721 59.3546 11.6851 59.3689 10.2465C59.3945 7.73977 58.0033 6.88185 57.4038 6.62953C56.475 6.23861 55.5991 6.40206 55.2473 6.75456C54.9822 7.01969 54.7118 7.35186 54.7155 7.80982C54.7193 8.31824 55.0552 8.89143 55.7444 9.56029C56.118 9.92334 56.1956 10.5011 55.9591 11.1194C53.0012 8.3333 49.3022 7.7699 47.7144 8.27078C46.8987 8.52989 46.1341 9.35843 46.3224 10.2457C46.7103 12.0806 49.3669 10.8649 51.439 12.3992C50.6346 12.4353 49.5251 13.1147 48.9459 13.6329C45.5165 12.9339 41.19 14.0698 43.5581 16.5419C44.6473 17.6815 47.7777 16.1404 49.8663 17.3794C49.6615 17.6212 49.5455 17.9361 49.5462 18.2524C47.6662 17.4713 45.4969 17.109 45.9812 19.0794C46.2381 20.1309 47.4078 21.495 51.4737 22.0998C47.4673 23.2259 46.0181 19.966 44.355 21.8437C43.8534 22.4109 43.7766 23.0587 44.1396 23.668C44.8868 24.9244 47.7136 26.0859 50.7566 25.3854C52.4069 25.005 54.5596 25.2257 56.1444 24.5809C56.2385 24.5425 63.5176 18.8166 60.1816 15.11V15.1107Z" fill="black"/>
<path id="vector_15" d="M56.5428 26.4487C56.5428 26.4487 54.7848 25.6156 55.0484 23.6392C55.3121 21.6627 57.2433 19.1606 58.5622 18.8525C59.8811 18.5444 62.8209 16.3496 64.5337 19.5552C66.2465 22.7609 56.5428 26.4487 56.5428 26.4487Z" fill="#81F8F8"/>
<path id="vector_16" d="M64.7559 19.436C62.9225 16.0051 59.7786 18.3107 58.5042 18.6059C57.0384 18.9486 55.0642 21.6113 54.7983 23.6043C54.5151 25.7276 56.4132 26.6676 56.4336 26.6774C56.4931 26.7053 56.5586 26.7105 56.6317 26.6849C59.6784 25.5385 66.3082 22.3464 64.7559 19.436ZM56.5578 26.1697C56.2483 25.992 55.0928 25.2169 55.2977 23.6713C55.5583 21.725 57.4481 19.3704 58.6171 19.0985C58.9011 19.033 59.2303 18.8952 59.6189 18.7332C61.276 18.047 61.3656 18.1698 62.0081 18.0862C62.9896 18.093 63.7413 18.612 64.3084 19.6725C65.6077 22.1152 59.1391 25.1476 56.5578 26.1705V26.1697Z" fill="black"/>
<path id="vector_17" d="M69.8236 32.9302C69.4327 31.9202 67.8818 31.9857 67.869 31.9827C67.5489 31.9895 67.5414 32.4873 67.8796 32.4873C68.3006 32.4873 68.574 32.5619 68.6569 32.586C67.4043 32.4911 67.8118 33.2805 68.1733 33.1155C68.4701 32.9724 69.5103 33.2737 69.5856 33.2737C69.7641 33.2737 69.8884 33.0952 69.8229 32.9302H69.8236Z" fill="black"/>
<path id="vector_18" d="M55.6773 30.7046L50.9614 32.1983C50.6533 32.2962 50.7806 32.7783 51.1128 32.6811C56.2655 31.1694 55.907 31.195 55.9763 31.0647C56.0757 30.8741 55.9077 30.6406 55.6773 30.7046Z" fill="black"/>
<path id="vector_19" d="M71.6963 21.6324C66.0411 17.2961 56.9573 18.6014 55.9563 25.8346C55.7266 27.4841 54.9478 28.7171 54.6314 29.6669C53.9671 31.6577 57.0771 33.0173 58.7673 31.1304C59.1499 31.6193 59.7495 31.7963 60.2323 31.7308C60.5615 31.6795 60.4741 31.1756 60.1502 31.2329C60.1126 31.2397 59.2456 31.3722 58.9112 30.3192C58.701 29.6594 58.6445 28.3473 59.1756 27.4947C59.7171 26.627 60.8055 26.5712 61.3569 26.9991C62.3564 27.7741 62.3029 30.1068 61.5346 31.0732C60.9411 31.8204 58.1052 35.4991 57.8288 36.4271C57.5976 37.2044 57.3957 37.8732 59.1944 39.7894C61.5678 42.3172 62.1108 42.9273 63.4794 42.9251C64.0082 42.9251 64.5957 42.7752 64.7863 42.1598C64.8887 41.8306 65.2081 41.4932 65.5809 41.3207C66.0012 41.1271 65.2555 40.1314 64.6929 39.8158C64.14 39.5017 64.0835 40.5886 63.2633 39.7977C62.4053 38.9692 62.1176 38.4449 62.8038 37.7053C63.5201 36.9347 63.9351 36.2855 64.6349 36.9295C65.2841 37.5313 66.6136 38.6521 66.6949 38.9752C66.8071 39.4211 67.2079 39.0784 67.5528 38.7876L67.6259 38.7259C68.1305 38.3018 68.364 38.0427 67.7253 37.2511C66.8305 36.1439 64.9444 34.9786 63.9585 33.2673C63.3717 32.246 63.6926 31.852 64.0549 31.0943C64.5882 29.9788 65.251 28.5891 65.251 27.9112C65.251 27.2333 66.3793 27.753 66.6286 26.1532C66.6399 26.0794 66.7363 26.0523 66.7845 26.1118C67.2252 26.6526 67.4903 27.1 67.5302 27.3742C67.6168 27.9624 68.6887 27.7455 68.7602 26.3498C69.0035 27.3018 68.8973 27.5158 69.127 27.5158C69.4329 27.4999 69.9255 26.4198 69.9255 25.7653V25.7246C70.2749 26.697 69.9134 27.5406 70.3601 27.5753C70.5921 27.5753 70.9528 27.2755 71.1404 26.9252C71.3084 26.6127 71.3279 26.2782 71.3731 26.1125C71.459 26.3302 71.2119 27.3711 71.3392 27.7719C71.4997 28.2705 72.4005 28.3202 72.695 27.1813C72.735 27.4751 72.7967 27.8991 72.8359 28.0445C72.8705 28.165 73.0242 28.2366 73.2087 28.2215C74.5344 28.0897 74.8131 24.0201 71.6955 21.6331L71.6963 21.6324Z" fill="black"/>
<path id="vector_20" d="M70.8195 29.3925C70.3427 29.3623 70.6748 30.0086 70.5664 30.0206C70.5506 30.0229 68.611 28.1542 68.9824 29.8338C67.2033 29.1507 66.4681 30.691 67.3381 30.9252C68.1825 31.152 68.9771 31.1994 69.7943 31.5067C73.4286 32.8761 71.6683 29.4459 70.8195 29.3925Z" fill="black"/>
<path id="vector_21" d="M52.4398 35.9997C52.1227 31.5572 48.8665 30.1005 44.534 31.1331C38.3817 32.6079 34.2021 38.709 31.5056 40.0934C28.2111 41.7791 23.7754 44.3785 23.3061 47.4712C22.8105 50.7318 23.7354 52.361 25.0965 54.3073C25.5755 54.9913 25.8384 55.8258 26.0938 56.6325C26.1857 56.6032 26.1894 56.5941 26.0998 56.6506C26.5336 58.0305 26.9449 59.3358 28.3474 59.6544C28.1011 60.0175 27.915 60.5899 28.2382 61.38C28.4973 62.0127 29.3529 63.4205 29.3612 63.4333C29.4606 63.593 29.6979 63.5975 29.7951 63.4265C29.8018 63.4152 30.491 62.2967 33.5295 61.71C36.3029 61.1737 38.6634 58.2602 39.2088 57.26C39.2517 57.1831 39.2517 57.0882 39.2073 57.0114C38.7207 56.164 38.1023 55.2797 36.8881 54.5386C36.925 54.1627 36.7985 53.8931 36.6591 53.7161C36.1823 53.109 35.8057 52.7723 35.4803 52.5456C36.0972 51.3329 40.0765 48.8887 46.1813 43.6923C46.4374 43.4693 46.0992 43.0905 45.8453 43.3149C39.7631 48.4948 35.8569 50.8629 35.0503 52.2812C33.5611 51.4609 34.8401 51.5611 29.5435 48.7147C29.206 48.5332 28.9982 48.9972 29.2829 49.1493C29.3198 49.1689 33.0926 51.2026 33.7743 51.9754C34.5245 52.8213 35.0608 52.5042 36.2614 54.0279C36.4324 54.2448 36.4317 54.5424 36.2614 54.9122C35.3546 56.8788 31.1463 59.1151 28.8694 59.2063C26.6647 59.2545 26.8756 55.9652 25.513 54.0189C24.1783 52.1132 23.3385 50.6332 23.8077 47.5472C24.2928 44.3543 29.896 41.4853 31.7376 40.5423C34.5712 39.0894 38.6205 33.0682 44.6515 31.625C48.7008 30.6541 51.6421 31.93 51.9351 36.0343C52.1987 39.7198 48.1878 42.7018 48.1494 42.7297C47.8707 42.918 48.1562 43.3345 48.4304 43.15C48.5961 43.0407 49.6416 42.2273 50.614 40.9965C51.9246 39.3387 52.5558 37.6116 52.4398 36.0004V35.9997ZM28.9756 59.7064C31.9425 59.5392 36.0023 56.8314 36.754 55.05C37.746 55.6895 38.2793 56.4277 38.6996 57.1379C38.027 58.2519 35.8253 60.7534 33.4384 61.2136C31.1049 61.6663 30.0542 62.4135 29.6113 62.8646C29.3635 62.4451 28.8792 61.6105 28.7082 61.191C28.3391 60.2879 28.8347 59.8171 28.9756 59.7056V59.7064Z" fill="black"/>
<path id="vector_22" d="M34.7816 50.769C34.2378 49.0886 31.8938 46.6444 31.7936 46.5412C31.5593 46.304 31.1978 46.6497 31.4305 46.8945C31.4539 46.9178 33.7941 49.359 34.301 50.9265C34.4027 51.2421 34.887 51.0846 34.7824 50.7698L34.7816 50.769Z" fill="black"/>
<path id="vector_23" d="M31.0166 60.2324C30.768 60.2324 30.5662 60.435 30.5662 60.6836C30.5662 60.9322 30.768 61.134 31.0166 61.134C31.2651 61.134 31.4678 60.9322 31.4678 60.6836C31.4678 60.435 31.2651 60.2324 31.0166 60.2324Z" fill="black"/>
<path id="vector_24" d="M46.2241 72.5394C45.5975 71.4608 44.9015 69.0821 44.6401 67.7791C44.3735 66.4496 43.7016 65.295 43.6963 65.2852C43.6534 65.2098 43.6037 65.3364 38.2928 58.1861C38.2528 58.1319 38.1941 58.0972 38.1278 58.0867C38.06 58.0769 38.1112 58.2147 38.0563 58.2569C37.9463 58.3383 37.8047 58.3752 37.8875 58.4896C37.8875 58.4896 42.7126 64.8942 43.2655 65.548C43.331 65.6648 43.9133 66.7231 44.146 67.8777C44.4029 69.1642 45.1026 71.6152 45.7873 72.7917C46.3936 73.8394 46.0833 74.3855 46.0095 75.3926C45.7519 78.9003 45.8287 78.5719 44.8796 79.9812C44.72 80.2184 44.4676 80.302 44.3516 80.1258C44.2891 80.0316 44.311 79.6106 44.442 79.3808C44.8488 78.663 45.0318 78.2977 45.0378 77.3155C45.2088 76.6444 45.3474 75.8897 45.6389 74.3893C45.666 74.1671 45.4046 74.0157 45.2306 74.1558C44.9376 74.3848 45.1937 75.7722 43.8282 79.3342C43.6941 79.6821 43.5028 80.2591 43.1269 80.0941C43.0554 80.0625 42.9996 80.0105 42.9635 79.9571C42.9891 79.9051 43.0117 79.8456 43.0312 79.7778C43.4131 78.4401 43.8507 77.4865 43.9547 77.0609C44.6529 74.1957 44.6492 74.3433 44.5693 74.2153C44.4496 74.021 44.1596 74.0805 44.1099 74.2891C43.4041 77.2477 43.4372 77.0835 43.3521 77.2967C42.3985 79.7206 42.6298 79.8049 42.3549 79.8441C42.2788 79.8539 42.2411 79.8802 42.1583 79.8042C42.0152 79.6693 41.9632 79.3944 42.0197 79.0675C42.3127 77.3976 42.7352 76.3815 42.9861 75.5583C43.084 75.2382 42.5989 75.0951 42.5032 75.4122C42.2991 76.075 41.8532 77.3916 41.5316 78.0062C41.1331 78.7715 40.7 79.188 40.4801 79.2136C40.453 79.2166 40.4048 79.2204 40.3408 79.1383C40.1698 78.9259 40.2971 78.6517 40.6066 78.1207C40.7513 77.8722 40.9019 77.6146 41.0036 77.3298C41.2401 76.6813 41.3606 75.1621 41.4111 74.3132C41.4201 74.1392 41.393 73.9697 41.3305 73.8116C40.2722 71.0879 40.0975 70.6902 40.0688 68.4803C40.0598 67.8137 39.8775 68.6581 32.4433 61.5967C32.203 61.3669 31.8498 61.7292 32.0938 61.9627C39.0716 68.5903 39.5642 68.3138 39.5642 68.4863C39.5891 70.804 39.8241 71.3425 40.8597 73.9938C40.8966 74.0888 40.9124 74.1867 40.9064 74.2831C40.7528 76.835 40.5901 77.1385 40.1683 77.8661C39.8745 78.3723 39.5424 78.947 39.9461 79.4517C40.093 79.6354 40.2858 79.7318 40.5268 79.7153C41.1234 79.6565 41.5421 78.8777 41.5233 78.9786C41.3666 79.8411 41.8351 80.5687 42.5914 80.3043C42.9085 80.6899 43.4922 80.7645 43.8877 80.3246C43.9976 80.5596 44.256 80.7223 44.5256 80.7223C45.0356 80.7223 45.2819 80.2832 45.4498 80.0392C46.2678 78.8461 46.2656 78.837 46.4832 75.8242C46.5917 74.3245 46.9261 73.7468 46.2241 72.5379V72.5394Z" fill="black"/>
<path id="vector_25" d="M38.0909 58.4117C37.0718 59.7479 35.2295 60.7911 34.6819 60.9915C34.0966 61.2046 32.2957 61.6355 32.2776 61.6392C32.2513 61.6453 32.2309 61.6656 32.2234 61.6912C32.2 61.768 32.2467 61.7605 33.1363 62.6862C33.1506 62.7005 33.1702 62.7088 33.1898 62.7088L33.2078 62.7065C36.348 61.9217 38.1979 58.5292 38.216 58.4946C38.2597 58.4132 38.1467 58.3379 38.0909 58.411V58.4117Z" fill="black"/>
<path id="vector_26" d="M24.0096 52.4761C23.9042 52.635 22.9265 54.0564 21.1248 54.9263C19.8842 55.5289 18.2769 56.8975 17.8325 58.7715C17.4724 60.29 17.9085 61.8627 19.1273 63.4452C19.3231 63.7096 19.7336 63.4068 19.5272 63.1394C18.4064 61.6827 18.0012 60.2531 18.3221 58.889C18.7258 57.1837 20.2021 55.9341 21.3447 55.382C23.3716 54.4006 24.393 52.8143 24.4352 52.748C24.6152 52.4693 24.1896 52.1921 24.0104 52.4761H24.0096Z" fill="black"/>
<path id="vector_27" d="M73.2671 27.5368C73.2543 27.7303 73.1315 29.4703 72.7609 30.7575C72.5568 31.4625 72.1275 31.9288 71.9331 32.1359C71.6145 32.2775 70.2037 32.9501 69.9153 33.8412C69.5123 35.084 69.4309 36.7531 69.4151 37.4129C69.4106 37.5839 69.3624 37.6931 69.2622 37.7579C69.0242 37.9153 68.451 37.8483 67.8386 37.5952C67.7701 37.5643 67.6857 37.5689 67.6142 37.608C67.5878 37.6231 66.9672 37.9786 66.8903 38.5202C66.8708 38.6618 66.812 38.6934 66.7894 38.7055C66.3774 38.9292 64.8695 37.8415 64.5109 37.5312C64.2571 37.312 63.9302 37.6984 64.1803 37.9116C65.0088 38.6497 66.156 39.0263 66.119 39.6244C66.1123 39.7389 65.1052 40.1207 64.7987 40.7693C64.4198 41.6302 63.9671 42.4617 63.0459 42.2064C62.0509 41.93 59.9615 39.7841 59.2407 38.9811C59.1759 38.9096 59.0757 38.8794 58.9786 38.9081C52.589 40.8197 53.0636 40.6668 52.9943 40.7979C52.9287 40.9192 52.9732 41.0743 53.0974 41.1399C53.2262 41.2069 53.2293 41.1775 54.2423 40.871C54.0744 41.5202 52.989 45.7269 52.4745 46.1457C52.3661 46.032 52.1024 45.275 52.0693 43.5449C52.0324 41.5918 51.7612 39.5747 51.7063 39.1822C51.6543 38.8463 51.1564 38.9284 51.2061 39.2591C51.2393 39.4896 51.5262 41.5647 51.5647 43.5547C51.5888 44.9052 51.7537 46.5397 52.3954 46.6541C52.87 46.7393 53.1705 46.0606 53.3483 45.6072C53.9275 44.1339 54.6528 41.3169 54.8095 40.6992L58.9763 39.4368C59.6452 40.1637 61.7451 42.3661 62.9119 42.6907C64.0756 43.0282 64.7339 42.1386 65.2069 41.0999C65.6204 40.1351 67.0229 40.2925 66.5235 39.2252C66.5604 39.2297 66.5958 39.2327 66.6305 39.2335C66.6395 39.2372 66.6486 39.2387 66.6591 39.2387C67.0749 39.2387 67.334 38.9819 67.3897 38.5947C67.4153 38.4222 67.6029 38.2332 67.7686 38.1119C68.7975 38.5051 69.8942 38.472 69.919 37.4288C69.9348 36.7885 70.0139 35.1744 70.3958 33.9986C70.5999 33.3727 71.7832 32.749 72.1809 32.5796C72.3286 32.5193 72.9952 31.7698 73.2475 30.8969C73.6286 29.5765 73.7514 27.8923 73.7725 27.5586C73.7936 27.2355 73.2897 27.1805 73.2686 27.536L73.2671 27.5368Z" fill="black"/>
<path id="vector_28" d="M35.3976 97.6834C34.9848 94.8513 34.2391 89.9802 34.0154 87.1843C33.8091 84.591 32.9007 79.7967 32.7937 79.2409C32.7312 78.9215 32.2318 78.9946 32.3019 79.3546C33.7616 86.9998 33.0009 84.8004 34.899 97.7587C35.2424 100.105 34.1879 105.374 33.1658 110.481C32.3403 114.603 31.447 119.072 29.8283 130.844C24.8646 132.132 18.863 129.503 17.9734 129.093C18.1203 127.811 18.7673 122.029 18.7673 119.86C18.7673 116.06 18.3229 111.676 19.8369 107.403C20.7905 104.706 21.6619 101.768 22.2186 99.8971C22.3135 99.5785 21.8246 99.4323 21.7335 99.7562C21.729 99.772 21.5482 100.392 21.2657 101.326C19.9619 100.332 20.511 99.0987 20.5668 98.008C20.6255 96.8963 20.0606 94.7616 18.5692 87.9209C17.062 81.0042 16.6433 76.5172 16.9686 70.7755C17.2925 65.0556 21.5512 61.0221 21.5949 60.9822C21.8397 60.7524 21.4894 60.3849 21.2499 60.6138C21.2055 60.656 16.7999 64.8371 16.4655 70.7476C16.1363 76.5368 16.5574 81.0591 18.0759 88.0302C19.5175 94.6494 20.1171 96.952 20.0629 97.9832C20.0011 99.0602 19.443 100.686 21.1076 101.849C20.6398 103.381 19.9777 105.487 19.3601 107.234C17.8213 111.581 18.2634 115.998 18.2634 119.86C18.2634 122.226 17.4612 129.145 17.453 129.214C17.4394 129.319 17.4951 129.422 17.5946 129.472C21.097 131.155 26.2204 132.365 30.1243 131.284C30.2222 131.256 30.2938 131.174 30.3074 131.076C31.4138 122.976 32.2024 117.868 33.6674 110.548C34.6941 105.418 35.7531 100.114 35.3991 97.6834H35.3976Z" fill="black"/>
<path id="vector_29" d="M41.6907 87.715C41.165 84.5229 38.8616 75.8285 38.7901 75.4014C38.7614 75.0783 38.2854 75.1039 38.2854 75.4217C38.2854 75.6703 40.6656 84.6004 41.1898 87.7963C42.3528 94.8735 42.8943 98.9763 42.8461 100.339C42.7866 102.011 42.1841 106.303 41.6997 109.755C41.1273 113.836 40.8765 115.149 40.4208 123.97C39.4582 124.112 33.3082 124.982 31.166 124.159C30.8527 124.043 30.6734 124.509 30.9845 124.632C33.089 125.434 38.4812 124.786 40.7002 124.437C40.8185 124.419 40.9074 124.322 40.9141 124.202C41.4444 114.98 41.5762 114.258 42.1991 109.824C42.6586 106.558 43.289 102.086 43.3508 100.358C43.4005 98.9628 42.8582 94.8276 41.6899 87.715H41.6907Z" fill="black"/>
<path id="vector_30" d="M43.0223 140.363C42.9982 139.999 42.7986 139.683 42.5357 139.506C41.5061 138.812 37.3122 137.898 36.3082 137.446C35.3041 136.994 32.6897 134.734 32.6897 134.734C32.2385 134.23 31.7858 133.327 31.3844 132.522C30.9829 131.718 28.672 132.271 26.8139 133.125C26.0531 133.474 25.9243 134.061 26.0358 134.63C25.3511 134.834 24.5693 135.004 24.0518 134.933C22.0791 134.664 22.092 132.372 22.092 132.372C22.092 132.372 21.5255 132.462 21.0359 133.125C20.4055 133.979 20.1863 135.489 20.0123 137.315C19.9506 137.961 19.6365 140.737 19.7562 141.215C19.7931 141.363 19.8963 141.485 20.0432 141.528C22.7337 142.315 24.4992 142.089 25.7586 142.369C28.3595 142.948 28.9417 143.49 31.938 144.127C38.7313 145.573 42.5373 144.227 42.8898 143.223C43.0886 142.656 43.1737 141.323 43.0238 140.362L43.0223 140.363Z" fill="white"/>
<path id="vector_31" d="M42.6763 139.298C41.5404 138.537 37.4746 137.698 36.4118 137.218C35.5877 136.847 32.9989 134.726 32.7745 134.444C32.373 133.942 31.97 133.132 31.6108 132.411C31.207 131.603 29.6735 131.833 28.2635 132.29C28.2898 131.334 28.3109 131.358 28.2175 131.262C28.0639 131.099 27.7882 131.209 27.7822 131.429L27.7528 132.466C26.6071 132.888 25.6513 133.241 25.7538 134.449C25.0194 134.653 24.4386 134.728 24.0854 134.684C23.3676 134.586 22.8584 134.177 22.5707 133.468C22.3545 132.941 22.3439 132.437 22.3432 132.381L22.4916 130.876C22.524 130.54 22.0201 130.502 21.9884 130.827L21.8551 132.18C21.6163 132.266 21.2013 132.479 20.833 132.976C19.8644 134.287 19.5412 138.951 19.4651 140.632C19.441 141.167 19.5254 141.64 19.9721 141.769C21.4792 142.206 22.6972 142.343 24.1712 142.443C25.5248 142.534 26.0468 142.588 28.4811 143.417C31.7494 144.533 34.9181 145.015 37.4429 145.015C40.7797 145.015 42.8277 144.156 43.1267 143.306C43.3594 142.639 43.6713 139.969 42.6748 139.297L42.6763 139.298ZM21.8604 132.727C22.0201 133.999 22.716 135.01 24.0131 135.187C24.4341 135.245 25.0555 135.166 25.8509 134.949C26.0919 135.729 26.6606 136.401 26.6666 136.407C26.8851 136.663 27.267 136.334 27.0531 136.081C27.0274 136.05 26.4249 135.317 26.2802 134.585C26.1665 133.999 26.3684 133.61 26.916 133.359C29.1184 132.344 30.9118 132.167 31.1558 132.639C31.2846 132.888 31.7885 133.966 32.2796 134.632C30.8048 135.311 30.1827 136.557 30.2309 137.484C30.2482 137.817 30.7559 137.786 30.734 137.452C30.734 137.435 30.6617 135.852 32.6381 135.027C32.8257 135.188 33.2249 135.526 33.7017 135.912C31.9648 136.926 32.0529 138.485 32.0574 138.554C32.0778 138.894 32.5809 138.852 32.5621 138.519C32.5621 138.504 32.483 137.11 34.128 136.252C34.5144 136.556 34.9219 136.868 35.294 137.127C33.7898 138.15 33.881 139.608 33.8817 139.623C33.9058 139.961 34.4007 139.92 34.3849 139.589C34.3781 139.451 34.3826 138.25 35.7535 137.432C35.9222 137.536 36.0743 137.621 36.2031 137.679C37.2478 138.153 41.4094 139.056 42.3938 139.718C43.022 140.142 43.0363 141.261 41.2045 141.918C40.2471 142.26 37.4331 142.933 31.9889 141.773C28.8615 141.108 28.5625 140.625 25.8118 140.015C24.52 139.726 22.7816 139.951 20.0986 139.173C20.299 136.898 20.3637 133.505 21.8611 132.728L21.8604 132.727ZM42.6499 143.139C42.3712 143.937 38.7904 145.329 31.9904 143.88C28.4759 143.131 27.328 142.15 24.1833 141.937C23.1228 141.864 21.8031 141.773 20.1144 141.285C19.8365 141.202 20.0406 140.004 20.079 139.691C21.5395 140.103 22.7296 140.237 24.1735 140.334C25.5323 140.425 26.049 140.479 28.4834 141.308C33.5601 143.042 37.4429 142.91 37.5695 142.928C39.1956 142.928 41.8409 142.691 42.8849 141.443C42.8698 142.126 42.7719 142.797 42.6507 143.139H42.6499Z" fill="black"/>
<path id="vector_32" d="M38.024 124.356C36.2148 124.68 33.7721 124.774 33.0972 124.717C32.9956 124.726 33.0234 124.746 32.9549 125.452C32.9511 125.492 32.9835 125.533 33.0302 125.533C34.6685 125.429 37.0629 125.078 37.9969 124.909C38.0933 124.909 38.076 124.82 38.1129 124.437C38.1174 124.388 38.0745 124.346 38.0248 124.356H38.024Z" fill="black"/>
<path id="vector_33" d="M22.3056 130.726C22.2536 130.708 22.2054 130.747 22.2047 130.795C22.1934 131.765 22.158 131.759 22.2499 131.771C23.7729 131.969 26.5138 132.168 28.0029 131.793C28.0338 131.792 28.0609 131.771 28.0707 131.741L28.1777 131.398C28.3035 130.996 25.8871 132.009 22.3064 130.726H22.3056Z" fill="black"/>
<path id="vector_34" d="M60.8123 28.0266C60.6496 27.7268 60.1864 27.9708 60.3498 28.2789C60.3498 28.2789 60.4365 28.4499 60.4809 28.7745C60.38 28.7248 60.2723 28.6894 60.1578 28.6706C60.0199 28.645 59.8783 28.7429 59.8542 28.886C59.8294 29.0291 59.9265 29.1654 60.0696 29.1896C60.2391 29.2182 60.3822 29.3078 60.4952 29.4547C60.4794 29.652 60.447 29.8742 60.3883 30.1198C60.3084 30.461 60.8206 30.5823 60.902 30.2418C61.0556 29.5903 61.1377 28.6111 60.8123 28.0266Z" fill="black"/>
</g>
<g id="telescope">
<path id="vector_35" d="M88.8245 39.8486L83.1919 41.7843C81.9167 42.2664 78.9475 34.4081 80.2235 33.926L85.7287 31.6536L88.8245 39.8493V39.8486Z" fill="#81F8F8"/>
<path id="vector_36" d="M88.8933 39.8232C85.65 31.3156 85.8247 31.528 85.6974 31.5845C85.1084 31.8459 85.0399 31.8406 85.0474 31.9175C85.3155 35.2858 87.9164 40.2488 88.2229 40.126C88.8451 39.9204 88.9317 39.9226 88.8941 39.8225L88.8933 39.8232Z" fill="black"/>
<path id="vector_37" d="M103.247 36.2168L90.1134 40.7293C88.3961 41.3786 84.3973 30.7914 86.1146 30.1421L98.9502 24.8447L103.247 36.2168Z" fill="#81F8F8"/>
<path id="vector_38" d="M103.318 36.1882C98.8884 24.2399 99.0489 24.7174 98.9216 24.7739C98.3424 25.0308 98.2625 25.0248 98.2587 25.1008C98.0727 27.8425 100.594 34.5349 102.558 36.4812C102.58 36.503 102.614 36.5068 102.635 36.4985C103.285 36.2831 103.356 36.2884 103.318 36.1882Z" fill="black"/>
<path id="vector_39" d="M121.924 30.6143L104.286 36.6739C102.201 37.4633 97.3417 24.6021 99.4281 23.8158L116.668 16.7017L121.924 30.6136L121.924 30.6143Z" fill="#81F8F8"/>
<path id="vector_40" d="M121.949 30.6182C116.344 15.7784 116.7 16.6001 116.589 16.6491C116.071 16.8781 115.98 16.8766 115.976 16.9519C115.751 20.2946 118.858 28.5235 121.239 30.8803C121.26 30.9014 121.294 30.906 121.317 30.8977L121.9 30.7011C121.935 30.689 121.955 30.6544 121.949 30.6175V30.6182Z" fill="black"/>
<path id="vector_41" d="M79.4427 33.1641L71.5874 36.8066C69.9816 37.5787 73.9134 46.3762 76.1353 45.6388L83.1109 42.8745L79.4427 33.1641Z" fill="#81F8F8"/>
<path id="vector_42" d="M132.705 27.4185L123.077 31.0543C122.117 31.4166 120.033 28.2516 118.421 23.9854C116.809 19.7191 116.28 15.9659 117.241 15.6028L126.868 11.967L132.705 27.4185Z" fill="#81F8F8"/>
<path id="vector_43" d="M132.703 27.4095C133.662 27.0468 133.134 23.294 131.522 19.0276C129.909 14.761 127.824 11.5965 126.865 11.9592C125.904 12.322 126.433 16.0747 128.045 20.3412C129.658 24.6077 131.742 27.7722 132.703 27.4095Z" fill="#FFD997"/>
<path id="vector_44" d="M126.741 11.7449L117.152 15.3664C116.786 15.505 116.608 15.9321 116.543 16.4781L99.3387 23.5787C98.9983 23.7068 98.7896 24.0773 98.7166 24.6679L86.0264 29.9057C85.4856 30.1098 85.4351 30.9158 85.4615 31.492L80.5754 33.5091C80.2341 33.125 79.7423 32.7167 79.2866 32.957L71.6505 36.4986C69.3886 37.526 73.5735 45.8905 75.8708 45.9342C76.1065 45.9613 75.8911 45.9485 83.2003 43.1126C83.5498 42.977 83.7291 42.562 83.7328 41.8706L88.7365 40.151C89.1605 40.679 89.5831 41.0089 89.968 41.0089C90.145 41.0089 89.98 41.0435 103.186 36.5062C103.59 36.8662 103.842 36.9332 104.113 36.9588C104.302 36.9588 104.128 36.995 121.976 30.8608C122.304 31.1553 122.755 31.4506 123.167 31.2924L132.844 27.631C135.348 26.4643 129.308 10.5744 126.741 11.7449ZM76.0448 45.4039C74.637 45.9432 70.7353 39.2215 71.591 37.2345C71.7205 36.9377 71.5353 37.1087 78.8535 33.714C78.5243 35.7642 80.7388 41.6469 82.3688 42.8964L76.0448 45.4031V45.4039ZM83.1009 41.552C82.9653 41.5851 82.6173 41.2522 82.3138 40.8153C81.4069 39.5055 80.3901 36.8376 80.2078 35.2392C80.1129 34.431 80.259 34.1855 80.3193 34.1621L85.5067 32.0208C85.7816 34.245 87.1442 37.8589 88.4209 39.7239L83.1009 41.5512V41.552ZM90.026 40.4929C89.7194 40.6097 89.0882 39.7947 88.9097 39.5439C87.6541 37.7911 86.2147 34.0025 85.9955 31.8294C85.9586 31.4777 85.9029 30.4925 86.2117 30.3765L98.6864 25.2275C98.7075 28.0091 100.911 33.9287 102.795 36.1054L90.026 40.4929ZM104.195 36.4384C103.769 36.6033 102.977 35.5518 102.715 35.1752C101.207 33.0052 99.5436 28.6042 99.2423 25.9785C99.1888 25.5152 99.0879 24.2129 99.5248 24.0487L116.513 17.0385C116.508 20.3542 119.215 27.7817 121.583 30.4616L104.195 36.4376V36.4384ZM122.921 30.8307C122.673 30.8307 122.099 30.4767 121.205 29.1186C118.202 24.5534 116.147 16.2876 117.331 15.8409L126.235 12.4771C125.47 15.4741 129.337 25.7156 131.894 27.4555C122.927 30.8427 122.996 30.8307 122.921 30.8307ZM132.612 27.1806C132.419 27.2514 131.819 26.9825 130.83 25.4806C127.936 21.0833 125.766 12.8589 126.923 12.2172C126.94 12.2112 126.954 12.2059 126.967 12.1999C126.994 12.1938 127.02 12.1931 127.039 12.1901C128.524 12.2662 132.135 19.7961 132.827 24.7251C133.077 26.5042 132.811 27.106 132.613 27.1813L132.612 27.1806Z" fill="black"/>
<path id="vector_45" d="M134.083 23.1284C133.832 18.2762 130.138 11.8249 128.292 12.5163C126.614 13.1513 128.611 18.695 129.028 19.7999C129.635 21.4088 131.703 26.3627 133.292 25.7503C133.88 25.5281 134.161 24.5972 134.083 23.1284Z" fill="black"/>
<path id="vector_46" d="M131.18 16.3183C130.257 14.6243 129.356 13.6986 128.884 13.3928C128.723 13.2896 128.508 13.3815 128.478 13.572C128.398 14.0699 128.493 14.9798 128.579 15.2065C128.784 15.7421 129.671 16.3476 130.309 17.0602C130.697 17.4948 131.463 16.8365 131.181 16.319L131.18 16.3183Z" fill="white"/>
<path id="vector_47" d="M132.251 18.244C132.163 18.0391 131.983 17.7137 131.714 17.9653C131.358 18.2989 131.406 18.5354 132.103 20.0539C132.555 21.0384 132.968 22.0424 133.243 22.0281C133.517 22.0138 132.527 18.8819 132.251 18.244Z" fill="white"/>
<path id="vector_48" d="M82.0956 140.315C81.6813 140.334 81.6505 140.392 81.3251 141.796C81.1262 142.653 81.3627 142.677 82.0662 142.987C84.2491 143.949 88.452 143.643 88.8678 142.742C89.0049 142.445 89.2768 141.117 89.2851 140.897C89.2964 140.592 89.0779 140.432 88.7736 140.493L82.0956 140.315Z" fill="#FFD997"/>
<path id="vector_49" d="M103.296 54.5863C103.296 54.2481 102.554 53.9724 101.645 53.9724C100.736 53.9724 99.998 54.2466 99.998 54.5848C99.998 54.5848 83.7986 139.682 83.6811 140.091C83.5636 140.501 84.5044 140.775 85.5197 140.775C86.535 140.775 87.3583 140.468 87.3583 140.091L103.295 54.587L103.296 54.5863Z" fill="#FFD997"/>
<path id="vector_50" d="M99.7462 54.5519C99.5858 55.3978 83.6191 139.341 83.4384 140.021C83.0964 141.305 87.5637 141.383 87.6089 140.123L103.513 54.7643C103.997 53.4748 99.799 53.3581 99.7462 54.5527V54.5519ZM87.105 140.091C87.105 140.201 86.5597 140.522 85.5202 140.522C84.6201 140.522 84.0394 140.309 83.9242 140.16L100.25 54.5866C100.266 54.503 100.725 54.2273 101.632 54.225L101.647 54.2265C102.563 54.2265 103.026 54.5037 103.045 54.5775L87.105 140.092V140.091Z" fill="black"/>
<path id="vector_51" d="M93.7036 113.455C93.7036 112.842 92.3674 112.349 90.7201 112.349C89.0728 112.349 87.7366 112.845 87.7366 113.456C87.7366 113.456 82.3293 139.754 82.1184 140.492C81.9075 141.23 83.6075 141.728 85.4468 141.728C87.2862 141.728 88.7738 141.176 88.7738 140.493L93.7028 113.455H93.7036Z" fill="#81F8F8"/>
<path id="vector_52" d="M93.9571 113.456C93.9571 111.667 87.5412 111.648 87.487 113.422C87.2294 114.68 82.6528 136.923 81.9591 140.069C81.4228 140.116 81.3355 140.632 81.0801 141.74C80.8594 142.695 81.1637 142.872 81.8153 143.154C84.3604 144.254 88.6025 143.913 89.0951 142.847C89.254 142.504 89.5274 141.153 89.5357 140.903C89.5463 140.56 89.3534 140.32 89.077 140.248L93.9579 113.456H93.9571ZM88.6371 142.637C88.5965 142.725 88.3494 142.921 87.6783 143.096C86.2449 143.473 83.6877 143.425 82.167 142.756C81.4341 142.434 81.4258 142.478 81.5705 141.853C81.639 141.558 81.7603 141.034 81.8642 140.753C82.1964 142.347 88.3999 142.429 88.9851 140.753L88.9942 140.759C89.0281 140.787 89.0341 140.845 89.0333 140.888C89.0258 141.07 88.7607 142.371 88.6386 142.637H88.6371ZM88.5211 140.488C88.5211 140.9 87.3506 141.473 85.4458 141.473C84.0244 141.473 82.7184 141.16 82.4065 140.747C82.3568 140.68 82.3433 140.624 82.3613 140.559C82.524 139.991 87.9894 113.491 87.9894 113.455C87.9894 113.115 89.0785 112.6 90.7205 112.6L90.7424 112.596C92.3964 112.601 93.4517 113.104 93.4517 113.451L88.5211 140.488Z" fill="black"/>
<path id="vector_53" d="M99.7795 55.3687C99.7795 55.7318 99.7509 55.8485 99.8548 55.8485C103.425 55.8485 103.274 55.8824 103.274 55.7732V55.3664C103.466 53.9436 99.9685 53.9331 99.7795 55.3687Z" fill="black"/>
<path id="vector_54" d="M113.825 134.803C113.951 134.81 114.097 134.793 114.194 135.008C114.302 135.248 114.405 135.957 114.494 136.344C114.669 137.111 114.648 137.343 114.028 137.621C112.001 138.529 109.688 138.248 107.983 137.794C107.457 137.653 106.913 137.252 106.818 137.044C106.696 136.778 106.7 135.422 106.693 135.226C106.684 134.953 106.937 134.646 107.204 134.702L113.825 134.804V134.803Z" fill="#FFD997"/>
<path id="vector_55" d="M104.418 55.1308C104.402 54.7798 105.159 54.4032 106.115 54.2894C107.075 54.1757 107.868 54.3715 107.881 54.7263C107.881 54.7263 112.177 134.093 112.29 134.492C112.403 134.89 111.491 135.156 110.504 135.156C109.518 135.156 108.719 134.859 108.719 134.492L104.417 55.1308H104.418Z" fill="#FFD997"/>
<path id="vector_56" d="M112.54 134.446C112.402 133.531 108.177 55.4978 108.135 54.7167C108.1 53.5063 104.114 53.9657 104.165 55.14L108.466 134.491C108.466 135.121 109.522 135.408 110.504 135.408L110.522 135.406C111.259 135.403 112.146 135.26 112.447 134.863C112.547 134.73 112.579 134.579 112.54 134.446H112.54ZM112.043 134.558C111.938 134.697 111.377 134.903 110.505 134.903C109.446 134.903 108.97 134.567 108.97 134.477L104.67 55.1196C104.673 55.0247 105.138 54.6587 106.146 54.5397C106.958 54.4402 107.464 54.5864 107.604 54.7084L112.044 134.558L112.043 134.558Z" fill="black"/>
<path id="vector_57" d="M106.205 107.653C106.191 107.094 107.633 106.4 109.145 106.328C110.671 106.255 111.924 106.657 111.93 107.225C111.93 107.225 113.497 134.256 113.683 134.974C113.869 135.692 112.371 136.175 110.755 136.175C109.138 136.175 107.375 135.806 107.375 135.143C107.375 135.143 106.131 109.605 106.205 107.653V107.653Z" fill="#81F8F8"/>
<path id="vector_58" d="M114.737 136.502C114.66 135.82 114.424 135.004 114.371 134.887C114.243 134.601 114.03 134.549 113.885 134.537C113.65 131.971 112.551 117.259 112.185 107.222C112.148 106.222 110.174 106.021 109.134 106.076C107.622 106.15 105.962 106.84 105.953 107.649C105.934 109.41 106.822 128.915 107.086 134.369C106.621 134.402 106.374 134.745 106.392 135.219C106.396 135.354 106.451 136.633 106.502 136.949C106.75 138.519 111.516 138.461 112.958 138.201C114.24 137.968 114.838 137.397 114.736 136.5L114.737 136.502ZM106.458 107.648C106.45 107.336 107.613 106.656 109.159 106.582C109.847 106.55 111.12 106.631 111.58 107.062C111.647 107.126 111.678 107.182 111.678 107.243C113.301 135.247 113.492 135.114 113.384 135.252C113.088 135.636 111.958 135.926 110.756 135.926C108.847 135.926 107.629 135.459 107.629 135.134C107.629 135.134 106.395 109.342 106.459 107.648L106.458 107.648ZM112.873 137.704C111.528 137.948 109.16 137.831 108.164 137.565C107.692 137.439 107.057 137.23 107 136.868C106.956 136.602 106.903 135.441 106.895 135.199C106.887 134.946 106.979 134.886 107.11 134.873C107.112 134.932 107.124 135.145 107.124 135.145C107.124 136.748 113.692 136.945 113.946 135.195C114.02 135.435 114.181 136.045 114.238 136.558C114.266 136.799 114.343 137.438 112.873 137.704Z" fill="black"/>
<path id="vector_59" d="M108.123 55.2771C108.353 54.267 104.708 54.3047 104.458 55.25C104.455 55.2575 104.455 55.265 104.455 55.2726L104.475 55.6868C104.479 55.7855 104.244 55.7584 108.062 55.7584C108.166 55.7584 108.136 55.6642 108.123 55.2771Z" fill="black"/>
<path id="vector_60" d="M71.2861 133.175C70.9366 133.193 70.9034 133.189 70.6029 134.483C70.4266 135.241 70.6353 135.262 71.259 135.537C73.197 136.392 76.9081 136.116 77.2719 135.321C77.3924 135.058 77.6342 133.883 77.641 133.688C77.65 133.419 77.4564 133.275 77.1875 133.33L71.2861 133.174V133.175Z" fill="#FFD997"/>
<path id="vector_61" d="M98.6235 54.5142L75.8598 132.652C75.8598 132.986 75.1329 133.256 74.2351 133.256C73.3372 133.256 72.5064 133.013 72.6104 132.652C72.706 132.318 95.4705 54.1452 95.4705 54.1452C95.4818 53.8228 96.2041 53.6435 97.0771 53.7467C97.9456 53.8499 98.6302 54.1926 98.6227 54.5142H98.6235Z" fill="#FFD997"/>
<path id="vector_62" d="M95.2209 54.083C95.2209 54.083 72.5717 131.859 72.3638 132.581C72.1612 133.301 73.4507 133.508 74.2318 133.508L74.2491 133.506C75.1229 133.503 76.0719 133.245 76.1058 132.7L98.8725 54.5229C98.9185 53.4338 95.3279 53.021 95.2202 54.083H95.2209ZM95.7181 54.1659C95.8687 53.9542 96.6649 53.9527 97.0422 53.9964C97.9182 54.1004 98.3528 54.419 98.3656 54.4935L75.6034 132.649C75.5869 132.732 75.1266 133.004 74.2311 133.004C73.4967 133.004 72.9702 132.834 72.8549 132.704L95.7181 54.1659Z" fill="black"/>
<path id="vector_63" d="M84.3179 105.513C83.8585 105.21 82.9704 104.981 81.9355 104.936C80.4027 104.869 79.4507 104.981 79.1373 105.751C78.4481 107.447 71.4899 132.678 71.3031 133.33C71.1163 133.983 72.6197 134.423 74.2444 134.423C75.8691 134.423 77.1865 133.935 77.1865 133.332L84.4851 106.609C84.6222 106.204 84.8007 105.83 84.3172 105.513H84.3179Z" fill="#81F8F8"/>
<path id="vector_64" d="M84.459 105.303C83.9408 104.96 83.0015 104.728 81.947 104.683C80.3005 104.609 79.2731 104.748 78.9033 105.656C78.2284 107.319 71.5135 131.621 71.1534 132.93C70.6669 132.977 70.5863 133.437 70.3618 134.404L70.3558 134.429C70.1547 135.293 70.4454 135.465 71.0224 135.712C71.8811 136.08 72.8761 136.321 74.2966 136.321C75.1206 136.321 77.1528 136.17 77.4978 135.427C77.6379 135.125 77.8819 133.922 77.8902 133.699C77.9023 133.404 77.7448 133.188 77.5128 133.105L84.7588 106.6C84.8899 106.223 85.0699 105.705 84.4598 105.302L84.459 105.303ZM77.0398 135.216C76.8447 135.637 73.6805 136.315 71.219 135.247C70.8941 135.106 70.7701 134.87 70.8469 134.539C70.9117 134.262 70.9945 133.907 71.0744 133.662C71.5677 134.99 76.7596 135.049 77.3803 133.623C77.4172 133.751 77.1302 135.02 77.0391 135.216H77.0398ZM84.2782 106.435L76.9329 133.332C76.9329 133.666 75.8603 134.172 74.2446 134.172C73.5193 134.172 71.402 133.921 71.5459 133.4C71.7319 132.751 78.6984 107.502 79.3718 105.847C79.5661 105.369 80.1084 105.174 81.242 105.172C81.3369 105.182 83.2719 105.128 84.1788 105.725C84.4455 105.902 84.4131 106.046 84.2782 106.435Z" fill="black"/>
<path id="vector_65" d="M95.3931 54.5086C95.1611 55.1827 95.1717 55.1526 95.1679 55.3544C95.1619 55.7295 95.1287 55.8086 95.2304 55.8086H98.4248C98.522 55.8086 98.5009 55.7205 98.5167 55.38C98.5905 55.2535 98.5717 55.2911 98.6621 55.0177C98.6824 54.9771 98.6937 54.9371 98.6945 54.8965C98.7321 54.025 95.4519 53.6604 95.3924 54.5093L95.3931 54.5086Z" fill="black"/>
<path id="vector_66" d="M108.612 50.5092H106.566V48.7037C106.566 47.6575 105.716 46.8101 104.672 46.8101H103.861V35.9841H99.4195V46.8101H98.612C97.5658 46.8101 96.7177 47.6597 96.7177 48.7037V50.5092H94.6697C93.6235 50.5092 92.7761 51.3588 92.7761 52.4027V54.9908H110.506V52.4027C110.506 51.3565 109.657 50.5092 108.612 50.5092Z" fill="#81F8F8"/>
<path id="vector_67" d="M108.615 50.2567H106.819V48.7021C106.819 47.5188 105.856 46.5562 104.672 46.5562H104.114V35.9848C104.114 35.8447 104.001 35.7317 103.862 35.7317H99.4206C99.2813 35.7317 99.1683 35.8447 99.1683 35.9848V46.5562H98.6117C97.4284 46.5562 96.465 47.518 96.465 48.7021V50.2567H94.6701C93.4868 50.2567 92.5242 51.2186 92.5242 52.4026V54.9914C92.5242 55.1308 92.6372 55.2438 92.7765 55.2438H110.508C110.647 55.2438 110.76 55.1308 110.76 54.9914V52.4026C110.76 51.2193 109.798 50.2567 108.614 50.2567H108.615ZM99.6729 36.2371H103.61V46.5562H99.6729V36.2371ZM96.9682 48.7021C96.9682 47.7975 97.7048 47.0608 98.6094 47.0608H104.671C105.577 47.0608 106.313 47.7975 106.313 48.7021V50.2567H96.9689V48.7021H96.9682ZM110.255 54.7391H93.0281V52.4026C93.0281 51.498 93.7647 50.7614 94.6693 50.7614H108.614C109.519 50.7614 110.256 51.498 110.256 52.4026V54.7391H110.255Z" fill="black"/>
<path id="vector_68" d="M88.3446 51.4325C87.6321 52.1865 86.4216 52.2015 85.6421 51.4649C84.8625 50.7282 84.8052 49.5193 85.5178 48.7654L92.7313 42.125L94.5571 43.8476L88.3439 51.4325H88.3446Z" fill="#FFD997"/>
<path id="vector_69" d="M94.0883 42.5177C93.3803 41.845 92.9698 41.7584 92.7958 41.7644C92.5706 41.7727 92.4162 41.9264 92.3823 42.1056L85.3359 48.5938C84.945 49.0074 84.7439 49.5534 84.7695 50.1319C84.8554 52.0617 87.2325 52.9828 88.5416 51.5932L94.6012 44.1951C94.6781 44.1755 94.7451 44.1363 94.8001 44.0768C95.185 43.6701 94.5191 42.9251 94.0883 42.5177ZM88.1582 51.264C87.1489 52.326 85.3141 51.56 85.2712 50.0822C85.2583 49.6544 85.409 49.2514 85.6899 48.9531L92.5284 42.6562C92.8124 43.1451 93.5415 43.832 94.0393 44.0843L88.1582 51.2648V51.264Z" fill="black"/>
<path id="vector_70" d="M94.2366 43.5041C94.1025 43.6457 92.9584 42.5663 93.0924 42.424L95.3423 40.04L96.4864 41.1201L94.2366 43.5041Z" fill="#81F8F8"/>
<path id="vector_71" d="M96.6591 40.9371L95.5149 39.857C95.4147 39.7614 95.2558 39.7659 95.1587 39.8668L92.908 42.2507C92.7137 42.4571 92.9186 42.7245 92.9947 42.8239C93.2003 43.0996 93.8322 43.7391 94.2028 43.7715C94.3859 43.7715 94.2495 43.8867 96.6689 41.2941C96.7592 41.1977 96.7653 41.0373 96.6583 40.9371H96.6591ZM96.1303 41.1299L94.1524 43.2254C93.9407 43.0913 93.5227 42.6981 93.375 42.4918L95.3537 40.3971L96.1303 41.1299Z" fill="black"/>
<path id="vector_72" d="M98.7861 41.9782C101.321 41.9782 103.375 39.9238 103.375 37.3896C103.375 34.8554 101.321 32.801 98.7861 32.801C96.2515 32.801 94.1975 34.8554 94.1975 37.3896C94.1975 39.9238 96.2515 41.9782 98.7861 41.9782Z" fill="#FFD997"/>
<path id="vector_73" d="M105.308 37.1937C105.265 35.8914 104.597 34.69 103.424 33.8125C101.973 32.7271 100.48 32.5486 98.786 32.5486C96.1166 32.5486 93.9451 34.7201 93.9451 37.3895C93.9451 40.0589 96.1166 42.2304 98.786 42.2304C98.8078 42.2304 99.2545 42.2365 99.2748 42.2304C102.399 42.2304 105.404 40.135 105.308 37.1937ZM94.4497 37.391C94.4497 35.0003 96.3953 33.0547 98.786 33.0547C101.177 33.0547 103.122 35.0003 103.122 37.391C103.122 39.7817 101.177 41.7273 98.786 41.7273C96.3953 41.7273 94.4497 39.7817 94.4497 37.391Z" fill="black"/>
<path id="vector_74" d="M98.7861 39.8745C100.158 39.8745 101.271 38.762 101.271 37.3896C101.271 36.0173 100.158 34.9048 98.7861 34.9048C97.4138 34.9048 96.3013 36.0173 96.3013 37.3896C96.3013 38.762 97.4138 39.8745 98.7861 39.8745Z" fill="white"/>
<path id="vector_75" d="M98.786 34.6538C97.2766 34.6538 96.0488 35.8816 96.0488 37.391C96.0488 38.9004 97.2766 40.1289 98.786 40.1289C100.295 40.1289 101.524 38.9012 101.524 37.391C101.524 35.8808 100.296 34.6538 98.786 34.6538ZM101.019 37.391C101.019 38.6225 100.018 39.6243 98.786 39.6243C97.5545 39.6243 96.5535 38.6225 96.5535 37.391C96.5535 36.1595 97.5553 35.1585 98.786 35.1585C100.017 35.1585 101.019 36.1602 101.019 37.391Z" fill="black"/>
<path id="vector_76" d="M74.9556 35.93C75.0106 35.6671 74.9346 35.393 74.7493 35.1964L72.3495 32.6467C71.0841 33.3239 69.9837 34.3761 69.3728 35.6234L71.3862 37.7219C72.5808 38.9677 74.5873 37.6812 74.9564 35.93H74.9556Z" fill="#81F8F8"/>
<path id="vector_77" d="M74.9354 35.0232C72.8332 32.7884 73.0403 33.0378 73.0508 32.9624C73.0749 32.7975 73.0486 32.7982 72.2667 32.0337C72.1854 31.9539 72.0656 31.9396 71.9692 31.9915C70.505 32.7741 69.3367 33.9439 68.6799 35.2839C68.6325 35.3803 68.6513 35.497 68.7281 35.5738C69.4866 36.3293 69.4731 36.3504 69.6011 36.3602C69.7969 36.3753 69.4482 36.068 71.204 37.896C72.5515 39.2985 74.7908 37.9412 75.2035 35.9813C75.2766 35.6379 75.1757 35.2793 74.9354 35.024V35.0232ZM74.7117 35.8781C74.5136 36.8129 73.9231 37.5194 73.0501 37.8674C72.5349 38.0738 71.9542 37.9472 71.5708 37.5465L70.0071 35.9166C70.5856 34.8975 71.5173 33.9718 72.6298 33.3127L74.5686 35.372C74.6959 35.5083 74.7493 35.6974 74.7109 35.8789L74.7117 35.8781Z" fill="black"/>
</g>
<g id="stars">
<path id="vector_78" d="M93.0306 5.88062C93.0306 8.43025 92.8498 10.3321 90.4824 10.3321C92.8498 10.3321 93.0306 12.234 93.0306 14.7836C93.0306 12.234 93.2113 10.3321 95.5787 10.3321C93.2113 10.3321 93.0306 8.43025 93.0306 5.88062Z" fill="white"/>
<path id="vector_79" d="M95.5784 10.0781C93.4476 10.0781 93.2826 8.33742 93.2826 5.87892C93.2826 5.54524 92.778 5.54524 92.778 5.87892C92.778 8.33817 92.613 10.0781 90.4822 10.0781C90.1485 10.0781 90.1485 10.5828 90.4822 10.5828C92.613 10.5828 92.778 12.3234 92.778 14.7819C92.778 15.1156 93.2826 15.1156 93.2826 14.7819C93.2826 12.3227 93.4476 10.5828 95.5784 10.5828C95.9121 10.5828 95.9121 10.0781 95.5784 10.0781ZM94.2581 10.3304C93.651 10.6129 93.2548 11.1303 93.0303 11.934C92.8059 11.1296 92.4097 10.6114 91.8026 10.3304C92.4097 10.0472 92.8059 9.53051 93.0303 8.72608C93.2548 9.53126 93.651 10.0495 94.2581 10.3304Z" fill="black"/>
<path id="vector_80" d="M134.481 57.4576C132.452 57.4576 132.298 55.8284 132.298 53.6426C132.298 55.8277 132.143 57.4576 130.114 57.4576C132.143 57.4576 132.298 59.0868 132.298 61.2727C132.298 59.0876 132.452 57.4576 134.481 57.4576Z" fill="white"/>
<path id="vector_81" d="M134.482 57.2065C132.68 57.2065 132.551 55.8605 132.551 53.6438C132.551 53.3101 132.046 53.3101 132.046 53.6438C132.046 55.7957 131.911 57.2065 130.115 57.2065C129.781 57.2065 129.781 57.7112 130.115 57.7112C131.912 57.7112 132.046 59.1219 132.046 61.2731C132.046 61.6068 132.551 61.6068 132.551 61.2731C132.551 59.1219 132.686 57.7112 134.482 57.7112C134.816 57.7112 134.816 57.2065 134.482 57.2065ZM133.285 57.4589C132.818 57.7006 132.492 58.1232 132.298 58.7401C132.103 58.1239 131.778 57.7014 131.31 57.4589C131.777 57.2171 132.103 56.7945 132.298 56.1769C132.492 56.7938 132.817 57.2156 133.285 57.4589Z" fill="black"/>
<path id="vector_82" d="M20.0572 13.6252C20.0572 17.2753 19.7996 19.9982 16.4102 19.9982C19.7996 19.9982 20.0572 22.7203 20.0572 26.3712C20.0572 22.7203 20.3148 19.9982 23.7043 19.9982C20.3148 19.9982 20.0572 17.2761 20.0572 13.6252Z" fill="white"/>
<path id="vector_83" d="M23.7036 19.7449C20.5521 19.7449 20.3089 17.2081 20.3089 13.625C20.3089 13.2913 19.8042 13.2913 19.8042 13.625C19.8042 17.2081 19.5609 19.7449 16.4087 19.7449C16.075 19.7449 16.075 20.2495 16.4087 20.2495C19.5609 20.2495 19.8042 22.7864 19.8042 26.3702C19.8042 26.7039 20.3089 26.7039 20.3089 26.3702C20.3089 22.7864 20.5521 20.2495 23.7036 20.2495C24.0373 20.2495 24.0373 19.7449 23.7036 19.7449ZM22.1075 19.9972C21.0289 20.3987 20.3691 21.289 20.0565 22.7676C19.7439 21.2897 19.0841 20.3994 18.0055 19.9972C19.0841 19.5965 19.7439 18.7062 20.0565 17.2276C20.3691 18.7055 21.0289 19.5958 22.1075 19.9972Z" fill="black"/>
<path id="vector_84" d="M126.205 101.353C126.951 101.353 127.556 100.748 127.556 100.002C127.556 99.2552 126.951 98.6504 126.205 98.6504C125.458 98.6504 124.853 99.2552 124.853 100.002C124.853 100.748 125.458 101.353 126.205 101.353Z" fill="white"/>
<path id="vector_85" d="M126.203 101.616C125.312 101.616 124.588 100.892 124.588 100.001C124.588 99.1103 125.312 98.3865 126.203 98.3865C127.094 98.3865 127.818 99.1103 127.818 100.001C127.818 100.892 127.094 101.616 126.203 101.616ZM126.203 98.9137C125.604 98.9137 125.116 99.4018 125.116 100.001C125.116 100.601 125.604 101.089 126.203 101.089C126.803 101.089 127.291 100.601 127.291 100.001C127.291 99.4018 126.803 98.9137 126.203 98.9137Z" fill="black"/>
</g>
</g>
</g>
</svg>
