<svg width="151" height="151" viewBox="0 0 151 151" fill="none" xmlns="http://www.w3.org/2000/svg">
<g id="No-Connection--Streamline-London">
<g id="No-Connection--Streamline-London.svg">
<g id="phone">
<path id="vector" d="M125.573 138.014L145.183 21.4894C145.874 17.3871 143.108 13.502 139.006 12.8117L83.9106 3.53948C79.8085 2.8491 75.9234 5.61494 75.233 9.71714L55.6226 126.242C54.9322 130.344 57.6981 134.229 61.8003 134.92L116.895 144.192C120.997 144.882 124.882 142.116 125.573 138.014Z" fill="#81F8F8"/>
<path id="vector_2" d="M139.05 12.5515L83.9548 3.28015C79.7233 2.56911 75.6868 5.4351 74.9735 9.67418L55.3642 126.199C54.4303 131.747 59.6854 135.994 64.4917 136.802C119.042 145.976 117.926 145.863 119.068 145.863C123.286 145.863 127.021 142.815 127.743 138.522L147.019 23.98C147.901 18.7422 143.68 13.3318 139.05 12.5515ZM55.884 126.286L75.4932 9.76155C76.0905 6.21543 79.1757 3.69818 82.6585 3.69818C83.6031 3.69818 82.6819 3.59876 138.962 13.0712C142.914 13.7363 145.589 17.4933 144.925 21.4454L125.315 137.97C124.648 141.932 120.903 144.596 116.941 143.932L61.8464 134.66C57.8838 133.992 55.2181 130.248 55.8847 126.286L55.884 126.286Z" fill="black"/>
<path id="vector_3" d="M120.406 18.7022C121.193 18.7022 121.831 18.0642 121.831 17.2771C121.831 16.4901 121.193 15.8521 120.406 15.8521C119.619 15.8521 118.981 16.4901 118.981 17.2771C118.981 18.0642 119.619 18.7022 120.406 18.7022Z" fill="black"/>
<path id="vector_4" d="M103.488 11.023L118.059 13.4747C118.313 13.5176 118.554 13.3459 118.597 13.092C118.64 12.8382 118.468 12.5972 118.215 12.5542L103.644 10.1025C103.39 10.0596 103.149 10.2313 103.106 10.4852C103.063 10.739 103.235 10.98 103.488 11.023Z" fill="black"/>
<path id="vector_5" d="M95.0564 10.9814C95.6439 11.0801 96.0401 11.6367 95.9414 12.2242L95.8013 13.0573C95.4752 14.9931 96.7805 16.8264 98.717 17.1525L120.563 20.829C122.498 21.1551 124.332 19.8498 124.658 17.9133L124.798 17.0802C124.897 16.4927 125.453 16.0965 126.041 16.1952L135.624 17.8078C138.102 18.2251 139.773 20.5721 139.356 23.0502L120.399 135.694C120.081 137.586 118.29 138.861 116.4 138.542L65.1846 129.923C62.7065 129.506 61.0351 127.159 61.4524 124.681L80.2308 13.101C80.6481 10.6229 82.9952 8.95151 85.4732 9.3688L95.0564 10.9814Z" fill="white"/>
<path id="vector_6" d="M135.667 17.5485L126.083 15.9358C125.35 15.813 124.66 16.3072 124.537 17.037L124.397 17.8701C124.096 19.6597 122.398 20.8701 120.605 20.5688L98.7598 16.8924C96.9701 16.5911 95.7597 14.8904 96.0602 13.1007L96.2011 12.2677C96.3239 11.5378 95.829 10.8433 95.0999 10.7205L85.5167 9.10791C82.8918 8.66954 80.4129 10.4313 79.9716 13.0563L61.1931 124.638C60.7502 127.26 62.5173 129.742 65.1415 130.184L116.985 138.855C118.73 138.855 120.345 137.604 120.659 135.737L139.616 23.0944C140.056 20.477 138.285 17.9891 135.667 17.5485ZM120.14 135.651C119.845 137.396 118.199 138.576 116.444 138.283L65.2289 129.665C62.8976 129.272 61.3212 127.056 61.7128 124.725L63.2599 115.532L121.866 125.395L120.14 135.651ZM139.097 23.007L121.954 124.876L63.3473 115.013L80.4905 13.1444C80.8845 10.8079 83.0929 9.23596 85.4301 9.62914L95.0133 11.2418C95.4562 11.3163 95.7567 11.7381 95.6829 12.181L95.542 13.0141C95.1925 15.09 96.5965 17.0634 98.6732 17.4129L120.519 21.0893C121.526 21.2595 122.537 21.026 123.367 20.4348C124.739 19.4571 124.869 18.2399 125.057 17.1244C125.131 16.6815 125.552 16.381 125.997 16.4555L135.581 18.0682C137.911 18.4606 139.488 20.6758 139.097 23.007Z" fill="black"/>
<path id="vector_7" d="M71.5905 122.25L69.886 120.017C69.6548 119.713 69.2209 119.638 68.8993 119.846L66.5477 121.382C66.2698 121.564 66.077 121.857 66.0197 122.186L65.5964 124.653C65.5271 125.056 65.7968 125.433 66.196 125.502L70.5458 126.249C70.9465 126.319 71.3269 126.05 71.3954 125.65L71.8188 123.183C71.8752 122.855 71.7916 122.514 71.5898 122.249L71.5905 122.25ZM69.0921 125.466L67.8297 125.249L68.1664 123.289L69.4288 123.506L69.0921 125.466ZM71.3005 123.095C70.8426 125.766 70.8931 125.625 70.7914 125.697C70.6957 125.764 70.7281 125.748 69.6111 125.556C70.0216 123.17 70.0366 123.262 69.9485 123.138C69.8574 123.01 69.9357 123.082 67.9962 122.724C67.8501 122.697 67.7167 122.797 67.6919 122.939L67.31 125.16L66.2856 124.984C66.1726 124.965 66.0966 124.857 66.1154 124.745L66.5387 122.279C66.5711 122.092 66.6796 121.928 66.8362 121.825L69.187 120.29C69.2797 120.23 69.4009 120.252 69.4665 120.337L71.171 122.57C71.284 122.719 71.3322 122.91 71.3005 123.095Z" fill="black"/>
<path id="vector_8" d="M78.8413 125.506C79.7255 125.01 80.1277 123.92 79.7398 122.954C79.3173 121.905 78.1227 121.397 77.0735 121.816C76.025 122.238 75.5158 123.433 75.9361 124.482C76.3202 125.436 77.3552 125.96 78.3509 125.702L79.0936 127.55C79.2254 127.872 79.7127 127.678 79.5832 127.353L78.8413 125.506ZM76.4264 124.286C76.0235 123.284 76.7684 122.196 77.8357 122.196C78.4398 122.196 79.0122 122.558 79.2502 123.152C79.5636 123.93 79.1847 124.819 78.4059 125.131C77.6256 125.446 76.739 125.065 76.4264 124.286V124.286Z" fill="black"/>
<path id="vector_9" d="M85.9892 129.045C83.8207 125.974 86.457 121.772 90.1756 122.413C93.9123 123.055 94.9653 127.898 91.905 130.062C89.9888 131.415 87.3443 130.96 85.9892 129.045ZM89.4548 122.878C86.4494 122.878 84.6862 126.286 86.4208 128.74C87.5973 130.404 89.9097 130.825 91.6007 129.631C94.5299 127.562 93.0875 122.878 89.4548 122.878Z" fill="black"/>
<path id="vector_10" d="M91.8073 126.733L89.7593 126.38L90.1118 124.332C90.1713 123.991 89.6516 123.896 89.5929 124.243L89.2404 126.291L87.1931 125.939C86.8519 125.875 86.7585 126.4 87.1035 126.458L89.1515 126.811L88.799 128.858C88.7387 129.201 89.2592 129.291 89.318 128.947L89.6705 126.899C89.7066 126.905 91.7267 127.255 91.7636 127.255C92.0845 127.255 92.1244 126.786 91.8088 126.732L91.8073 126.733Z" fill="black"/>
<path id="vector_11" d="M101.038 131.638C100.931 131.557 98.4389 129.625 98.8095 127.468C99.0799 125.895 101.164 125.512 101.983 126.865C103.208 125.862 105.042 126.921 104.772 128.493C104.401 130.65 101.406 131.638 101.279 131.679C101.204 131.703 101.111 131.693 101.038 131.637V131.638ZM99.3285 127.558C99.0513 129.171 100.79 130.746 101.248 131.13C101.81 130.921 103.976 130.014 104.252 128.404C104.465 127.174 102.871 126.475 102.114 127.485C101.983 127.659 101.715 127.608 101.651 127.406C101.279 126.207 99.5416 126.321 99.3285 127.558Z" fill="black"/>
<path id="vector_12" d="M114.476 127.608C112.738 127.305 111.09 128.478 110.792 130.212C110.494 131.945 111.661 133.597 113.394 133.895C115.124 134.195 116.781 133.024 117.079 131.293C117.377 129.56 116.209 127.907 114.476 127.608ZM111.942 132.518C112.248 131.923 112.721 131.515 113.23 131.381C113.562 131.606 113.987 131.686 114.39 131.58C114.824 131.877 115.132 132.415 115.223 133.075C114.123 133.685 112.765 133.449 111.942 132.518ZM113.145 130.049C113.227 129.565 113.69 129.231 114.183 129.315C114.668 129.398 114.999 129.861 114.915 130.352C114.83 130.841 114.367 131.171 113.878 131.086C113.387 131.001 113.061 130.537 113.145 130.049ZM115.697 132.741C115.568 132.158 115.291 131.664 114.911 131.321C115.498 130.859 115.639 130.007 115.193 129.378C114.738 128.735 113.85 128.582 113.206 129.037C112.586 129.476 112.419 130.324 112.824 130.962C112.348 131.158 111.921 131.533 111.605 132.043C110.629 130.288 111.895 128.089 113.928 128.089C116.387 128.089 117.519 131.136 115.696 132.741H115.697Z" fill="black"/>
<path id="vector_13" d="M126.465 21.179C126.418 21.4584 126.153 21.6475 125.873 21.6008C125.594 21.5541 125.405 21.289 125.452 21.0095L125.571 20.2992C125.617 20.0198 125.882 19.8307 126.162 19.8774C126.441 19.9241 126.63 20.1893 126.584 20.4687L126.465 21.179Z" fill="black"/>
<path id="vector_14" d="M128.287 21.4577C128.24 21.7372 127.975 21.9262 127.696 21.8795C127.416 21.8328 127.227 21.5677 127.274 21.2882L127.508 19.8918C127.554 19.6123 127.819 19.4233 128.099 19.47C128.378 19.5167 128.567 19.7818 128.521 20.0613L128.287 21.4577Z" fill="black"/>
<path id="vector_15" d="M130.126 21.8376C130.079 22.117 129.814 22.3061 129.535 22.2594C129.255 22.2127 129.066 21.9475 129.113 21.6681L129.431 19.7685C129.477 19.489 129.742 19.3 130.022 19.3467C130.301 19.3934 130.49 19.6585 130.444 19.938L130.126 21.8376Z" fill="black"/>
<path id="vector_16" d="M135.986 20.4644L133.093 19.9801C132.826 19.9334 132.555 19.9967 132.334 20.1549C131.924 20.4471 131.93 20.7778 131.805 21.5189C131.712 22.068 132.08 22.596 132.638 22.6902C135.679 23.1994 135.572 23.1888 135.7 23.1888C136.187 23.1888 136.62 22.8356 136.703 22.3399L136.821 21.6357C136.913 21.0828 136.538 20.5571 135.986 20.4644H135.986ZM132.409 21.9709C132.332 21.8647 132.302 21.7351 132.324 21.6055L132.443 20.9013C132.482 20.661 132.69 20.4923 132.924 20.4923C132.994 20.4923 133.042 20.5051 134.416 20.7356L134.136 22.4055C132.635 22.1539 132.565 22.1908 132.409 21.9709H132.409Z" fill="black"/>
</g>
<path id="elements" d="M15.8055 77.5419C15.6037 77.5419 15.4779 77.3258 15.5751 77.1495L22.6734 64.4217L5.45933 59.8496C5.20776 59.7841 5.19571 59.4278 5.44276 59.3457L22.9769 53.3983L3.60793 38.914C3.40983 38.7649 3.5085 38.4485 3.75631 38.4395L27.1068 37.5612L19.1822 19.5157C19.0805 19.2829 19.3336 19.0539 19.5551 19.1812L35.5195 28.3968L40.8131 12.6893C40.8861 12.4731 41.1859 12.443 41.2959 12.6493L49.0706 27.2226C49.2348 27.5306 48.7677 27.7792 48.6058 27.4704L41.1189 13.4357C35.8531 29.0597 35.9428 28.9625 35.7605 29.0326C35.5737 29.0996 35.6927 29.1049 19.9889 20.0399L27.7455 37.7043C27.82 37.8731 27.7026 38.0666 27.5135 38.0734L4.52083 38.9381L23.694 53.2763C23.8642 53.4051 23.8198 53.6703 23.6202 53.7365L6.43776 59.5642C23.337 64.0533 23.233 63.966 23.3106 64.1513C23.3882 64.3365 23.3957 64.2077 16.2733 76.9778L31.2961 75.8201C31.6479 75.7839 31.684 76.3187 31.3375 76.3451L15.804 77.5419H15.8055Z" fill="black"/>
<g id="no signal">
<path id="vector_17" d="M79.3258 109.116C103.321 109.116 122.773 89.6641 122.773 65.6689C122.773 41.6738 103.321 22.2219 79.3258 22.2219C55.3307 22.2219 35.8788 41.6738 35.8788 65.6689C35.8788 89.6641 55.3307 109.116 79.3258 109.116Z" fill="#FFD997"/>
<path id="vector_18" d="M108.697 60.9733C92.3593 48.2312 69.9685 46.1026 51.526 55.5441L47.3667 48.6545C68.7159 37.4873 95.2004 40.006 114.069 54.9883L108.697 60.9733H108.697Z" fill="white"/>
<path id="vector_19" d="M108.489 61.2404C92.2432 48.569 70.0195 46.4562 51.6802 55.8458C51.522 55.9272 51.3277 55.8722 51.2358 55.7193C46.9704 48.6097 46.9786 48.7829 47.0404 48.563C47.066 48.4726 47.127 48.3973 47.2099 48.3544C68.6856 37.1209 95.2998 39.6524 114.281 54.7228C114.354 54.7808 114.4 54.8667 114.407 54.9593C114.427 55.189 114.491 55.0376 108.95 61.1997C108.831 61.3315 108.63 61.3511 108.489 61.2404H108.489ZM108.655 60.512L113.576 55.0309C94.9224 40.3989 68.9161 37.9261 47.8433 48.789L51.6531 55.0994C70.3773 45.6556 92.5649 48.1133 108.655 60.512Z" fill="black"/>
<path id="vector_20" d="M103.325 66.9572C89.5771 56.4574 71.1609 54.7062 55.6815 62.4289L59.8332 69.305C72.2839 63.2997 86.873 64.6826 97.9626 72.9348L103.325 66.958V66.9572Z" fill="white"/>
<path id="vector_21" d="M97.9616 73.2729C97.4562 73.2729 91.0591 67.2856 79.5688 66.1309C71.1034 65.2813 64.2423 67.553 59.9791 69.61C59.8225 69.6854 59.6327 69.6304 59.5423 69.4797C55.2715 62.3837 55.2919 62.5562 55.3544 62.3347C55.3808 62.2436 55.444 62.1675 55.5284 62.1261C71.5064 54.1548 90.0016 56.3572 103.53 66.6891C103.605 66.7463 103.653 66.8322 103.662 66.9263C103.684 67.1561 103.749 67.0039 98.2139 73.1607C98.1469 73.2353 98.055 73.2729 97.9616 73.2729ZM97.9149 72.4783L102.827 67.0047C89.2913 56.8453 71.3678 55.1392 56.1618 62.5682L59.9641 68.8651C72.3763 63.0043 86.8343 64.3774 97.9156 72.4775L97.9149 72.4783Z" fill="black"/>
<path id="vector_22" d="M92.5953 78.9108L87.2384 84.8793C80.7148 80.8805 73.8598 80.6176 68.2528 83.2501L63.9889 76.1857C73.215 71.9639 84.0711 72.8301 92.5953 78.9108Z" fill="white"/>
<path id="vector_23" d="M87.2383 85.2185C86.8443 85.2185 78.3126 78.9013 68.3965 83.5569C68.2398 83.6322 68.0515 83.5735 67.9619 83.4251L63.6979 76.3607C63.5955 76.1889 63.6618 75.963 63.8471 75.8771C73.3459 71.5303 84.3158 72.5878 92.7925 78.6346C92.8708 78.6904 92.922 78.777 92.9326 78.8726C92.9574 79.1084 93.0215 78.9517 87.4906 85.1048C87.4243 85.1786 87.3317 85.217 87.2383 85.217V85.2185ZM87.1735 84.4442L92.0875 78.9683C83.9354 73.3192 73.5583 72.3317 64.476 76.3381L68.3859 82.8165C74.0351 80.2925 80.7395 80.6103 87.1735 84.4442Z" fill="black"/>
<path id="vector_24" d="M81.2852 91.9243C81.5247 89.5464 79.7509 87.4208 77.3233 87.1768C74.8954 86.9327 72.7337 88.6629 72.4946 91.0408C72.2555 93.4187 74.0296 95.5442 76.4571 95.7883C78.8847 96.0323 81.0464 94.3022 81.2852 91.9243Z" fill="white"/>
<path id="vector_25" d="M72.1581 91.0059C72.418 88.4193 74.771 86.5717 77.3568 86.8398C81.553 87.2609 83.1716 92.4904 79.9042 95.1041C76.6571 97.7019 71.7431 95.1433 72.1581 91.0059ZM72.8322 91.0736C72.4744 94.6273 76.7007 96.7988 79.4809 94.5746C82.2647 92.3458 80.909 87.877 77.2898 87.5132C75.0241 87.2917 73.0514 88.8976 72.8322 91.0736Z" fill="black"/>
<path id="vector_26" d="M119.648 46.6002C109.134 24.3668 82.4923 14.831 60.2574 25.3459C38.0239 35.8601 28.489 62.5028 39.0024 84.7364C49.518 106.973 76.157 116.505 98.3942 105.991C120.628 95.4765 130.162 68.8344 119.648 46.6002ZM95.0432 102.67C75.0927 111.167 52.2793 102.511 42.9839 82.8541C33.6877 63.1966 41.4707 40.0721 60.6995 30.0422L95.0432 102.67ZM99.2273 100.595L64.8708 28.1577C84.4236 20.5992 106.681 29.4758 115.668 48.4817C124.636 67.4447 117.411 90.2604 99.2273 100.595Z" fill="black"/>
</g>
</g>
</g>
</svg>
