<svg width="151" height="151" viewBox="0 0 151 151" fill="none" xmlns="http://www.w3.org/2000/svg">
<g id="No-Mail-E-Mail--Streamline-London">
<g id="No-Mail-E-Mail--Streamline-London.svg">
<path id="Vector" d="M72.2283 101.086C71.6007 98.8283 70.5947 96.6937 69.2531 94.7729L70.5026 93.8691L70.4153 93.6273L90.2911 80.5605C91.1777 72.7752 92.4604 65.0051 93.7733 58.7112C94.0828 57.0342 94.8586 55.4783 96.0118 54.222C97.4438 52.8728 99.0709 51.7472 100.838 50.883L110.313 45.4086L110.408 45.7174L114.948 45.9193L118.214 27.2026C130.115 31.1638 128.095 30.4415 129.843 31.1947L129.323 32.8337L129.906 32.9143L130.491 45.5028C133.141 46.5669 135.615 48.0266 137.827 49.8323C139.644 51.2115 141.187 52.9176 142.377 54.863C143.758 56.9877 144.484 59.4711 144.467 62.005C144.406 63.8571 143.934 65.6725 143.085 67.3197C142.286 68.7589 141.288 70.0775 140.119 71.2364C139.161 72.2931 138.135 73.2869 137.049 74.2116C137.687 82.8616 137.992 89.2865 138.024 91.4527C138.019 93.9202 137.746 96.3798 137.21 98.7883C137.031 100.456 138.48 103.595 139.283 105.068C139.76 105.831 140.197 106.619 140.592 107.428C141.019 108.19 141.263 109.041 141.306 109.913C141.292 110.279 141.194 111.142 139.287 113.27C138.31 114.362 137.238 115.364 136.084 116.266V122.598L111.313 127.3L93.0976 116.523C93.1255 115.236 93.5008 113.98 94.1838 112.889C91.6078 109.123 91.833 109.306 91.0202 108.045C90.3092 106.947 90.0622 106.621 89.9657 106.039C89.8713 105.387 89.9586 104.722 90.2181 104.117C90.8297 102.618 91.7998 98.6181 93.1752 92.6775C90.1021 93.8412 76.0327 99.4707 72.2283 101.086Z" fill="white"/>
<path id="Vector_2" d="M38.5762 83.6404L59.7875 92.4952C60.9633 93.1534 62.0428 93.9706 62.9955 94.9236C63.9386 95.6951 64.9524 96.376 66.0234 96.9572C68.4337 98.4554 70.2226 99.4978 72.4709 102.288C74.0111 104.046 75.1845 106.095 75.9222 108.313C76.3357 109.447 76.4924 110.659 76.3809 111.86C76.3809 114.008 74.8165 115.562 74.2636 116.154C72.6931 117.826 69.5763 119.123 66.0535 119.307C61.358 119.552 57.7983 117.725 54.7289 116.136C53.563 115.533 52.3631 114.827 46.6906 110.685C43.3998 108.282 40.6815 106.241 38.7412 104.769C38.4896 96.8638 38.4723 90.3658 38.5762 83.6404Z" fill="white"/>
<path id="Vector_3" d="M22.7587 58.4077L17.4862 59.1248C13.1575 61.522 9.84892 65.4123 8.17793 70.0698C5.99812 75.8989 5.99963 82.0113 6.36117 86.1758L38.754 104.773C38.5469 98.2672 38.4881 88.5386 38.5175 85.8444C38.5928 77.4588 40.9082 68.6997 48.8629 66.0393C49.809 65.7358 50.7963 65.5798 51.7899 65.5768L22.7587 58.4077Z" fill="#81F8F8"/>
<path id="Vector_4" d="M21.7437 82.313C21.3001 82.4985 20.9239 82.8153 20.6655 83.2208C20.4072 83.6264 20.279 84.1012 20.2983 84.5817C20.3123 84.8792 20.3849 85.171 20.5121 85.4403C20.6393 85.7097 20.8184 85.9512 21.0393 86.1511C21.2601 86.3509 21.5183 86.5051 21.799 86.6049C22.0796 86.7046 22.3772 86.7478 22.6747 86.7321C23.3007 86.7127 23.8958 86.4554 24.3389 86.0126C24.7819 85.5699 25.0395 84.975 25.0594 84.3489C25.0676 83.8956 24.9321 83.4513 24.6723 83.0798C24.4125 82.7082 24.0418 82.4285 23.6132 82.2806L23.0407 52.6265L21.2202 53.2983L21.7437 82.313Z" fill="white"/>
<path id="Vector_5" d="M119.18 51.4277C117.272 51.7087 115.327 51.2821 113.712 50.2283C112.098 49.1745 110.924 47.5664 110.413 45.7071L112.863 44.5644L112.994 43.0301C112.411 43.132 111.813 43.1218 111.234 43C110.487 42.8241 109.788 42.4834 109.19 42.0028C107.1 40.3368 105.381 38.2529 104.143 35.8844C102.437 32.7548 103.611 32.229 103.077 30.636C102.576 29.1378 101.54 29.3141 100.946 27.7173C100.612 26.8209 100.762 26.2861 100.795 24.7662C100.825 23.2032 100.719 21.6407 100.478 20.0962C102.93 16.0532 106.432 12.7502 110.611 10.5382C114.79 8.3263 119.491 7.28812 124.213 7.53407C124.544 7.31201 124.951 7.23074 125.342 7.3081C125.789 7.4354 125.777 7.76606 126.481 8.42663C127.088 8.99531 127.408 9.03372 127.778 9.61144C127.907 9.81452 128.012 10.0328 128.088 10.2615C128.654 10.4295 129.15 10.7779 129.501 11.2538C129.851 11.7297 130.036 12.3069 130.028 12.8977C130.277 12.8601 130.53 12.9227 130.732 13.0717C130.977 13.2736 131.009 13.5824 131.044 14.0057C131.08 14.4486 131.045 14.8946 130.938 15.3261C131.118 15.4248 131.275 15.5589 131.402 15.7202C131.528 15.8815 131.62 16.0667 131.673 16.2646C131.74 16.6683 131.523 16.9576 131.231 17.6535C131.074 18.0301 131.126 17.9782 130.775 19.0786C130.543 19.8077 130.068 21.2486 129.031 24.3052C128.992 26.5234 128.835 28.7492 128.611 30.645C123.722 29.1695 121.867 29.8918 121.792 29.8865V31.7635L121.126 31.6686C120.637 38.2111 120.004 44.685 119.18 51.4277Z" fill="#FFD997"/>
<path id="Vector_6" d="M25.2435 97.1123L32.5121 101.208V145.64L25.2435 145.293V97.1123Z" fill="#FFD997"/>
<path id="Vector_7" d="M59.7876 92.4955C59.9194 89.4826 60.0482 87.0957 60.1311 85.6201C60.3518 81.6921 60.9596 76.1296 58.8815 71.6774C58.1976 70.2101 56.6083 66.8349 53.2324 65.8904C45.2619 63.6616 39.0335 73.9589 38.5891 83.6437L59.7876 92.4955Z" fill="#FFD997"/>
<path id="Vector_8" d="M122.706 25.9713C121.812 26.1979 120.881 26.2405 119.969 26.0964C118.707 21.2758 120.968 18.8361 119.626 16.9034C119.263 16.3989 118.759 16.0137 118.176 15.7969C115.501 14.7492 113.055 17.6679 108.526 19.267C107.923 19.4809 101.625 21.7066 99.7882 19.5743C97.8592 17.3342 100.812 10.2201 105.889 6.6408C106.249 6.38772 112.637 1.95805 119.583 4.59582C121.31 5.2536 122.883 6.25793 124.206 7.54692C123.054 8.2838 121.839 8.91745 120.575 9.4405C119.165 9.99562 118.665 9.93311 118.616 10.2238C118.533 10.6984 119.767 11.4441 120.933 11.6369C121.883 11.7895 122.857 11.6368 123.715 11.2008C122.825 12.7073 122.216 14.3632 121.918 16.0876C121.692 17.2016 121.768 17.0969 121.268 21.7887C121.143 22.474 121.167 23.1782 121.339 23.8533C121.586 24.6741 122.06 25.4084 122.706 25.9713Z" fill="#81F8F8"/>
<path id="Vector_9" d="M115.422 34.9042C114.443 34.8422 113.461 34.9286 112.508 35.1603C112.477 35.1679 112.448 35.1834 112.424 35.2052C112.401 35.2271 112.383 35.2547 112.373 35.2853C112.328 35.4177 112.256 35.5396 112.162 35.6435C112.068 35.7474 111.954 35.8313 111.827 35.89C111.7 35.9488 111.563 35.9812 111.423 35.9854C111.283 35.9896 111.143 35.9654 111.013 35.9143C110.979 35.9031 110.942 35.9017 110.907 35.9102C110.872 35.9187 110.84 35.9368 110.815 35.9625C110.346 36.4559 109.931 36.9983 109.578 37.5804C109.548 37.6309 109.533 37.6894 109.536 37.7484C109.539 37.8074 109.56 37.8641 109.595 37.9112C109.631 37.9584 109.68 37.9937 109.736 38.0128C109.792 38.0318 109.852 38.0336 109.909 38.018C111.92 37.4663 113.828 36.5906 115.558 35.4254C115.607 35.3926 115.645 35.3452 115.667 35.2897C115.688 35.2342 115.691 35.1735 115.676 35.1161C115.661 35.0587 115.628 35.0074 115.583 34.9694C115.537 34.9314 115.481 34.9086 115.422 34.9042Z" fill="black"/>
<path id="Vector_10" d="M71.8271 101.489C71.9248 101.466 72.014 101.416 72.0849 101.344C72.1557 101.273 72.2055 101.184 72.2285 101.086C71.5054 98.9946 70.5769 96.9802 69.4567 95.0721L68.8052 95.4336C68.2691 94.7975 67.6854 94.203 67.0592 93.6553C65.9844 92.7145 65.6462 92.6761 65.4564 92.6821C65.0285 92.6994 64.8711 92.9585 63.7406 93.998C63.3022 94.4009 60.861 96.51 60.2758 96.9898C60.5524 97.2881 60.9112 97.4977 61.3069 97.5923C62.3087 97.8258 62.9474 96.983 65.4858 96.6418C67.9211 97.7868 70.0833 99.4397 71.8271 101.489Z" fill="#FFD997"/>
<path id="Vector_11" d="M23.9865 82.12L23.4171 52.6188C23.4159 52.5587 23.4003 52.4999 23.3717 52.4471C23.3432 52.3943 23.3024 52.3491 23.2528 52.3152C23.2032 52.2814 23.1462 52.2599 23.0866 52.2526C23.027 52.2452 22.9665 52.2523 22.9102 52.273L12.4879 55.9435C12.4199 55.9673 12.3601 56.0101 12.3156 56.0669C12.2712 56.1236 12.244 56.192 12.2372 56.2638C12.2305 56.3355 12.2445 56.4077 12.2776 56.4718C12.3107 56.5359 12.3615 56.5891 12.4239 56.6251L21.0151 61.6046L21.4406 82.1012C20.9244 82.3802 20.5157 82.823 20.2789 83.3599C20.0421 83.8968 19.9906 84.4972 20.1326 85.0666C20.2746 85.6359 20.6019 86.1419 21.0631 86.5047C21.5243 86.8676 22.093 87.0667 22.6798 87.0706C23.2666 87.0746 23.838 86.8833 24.3041 86.5268C24.7702 86.1703 25.1044 85.6688 25.2541 85.1014C25.4038 84.534 25.3605 83.933 25.131 83.3929C24.9015 82.8529 24.4989 82.4045 23.9865 82.1185V82.12ZM21.6018 53.558L22.6722 53.1626L23.225 81.824C22.8821 81.7539 22.5285 81.7539 22.1856 81.824L21.6018 53.558ZM22.6978 86.3041C22.3238 86.3041 21.9583 86.1932 21.6474 85.9855C21.3365 85.7777 21.0942 85.4825 20.9511 85.137C20.808 84.7916 20.7706 84.4114 20.8435 84.0447C20.9165 83.678 21.0965 83.3411 21.3609 83.0767C21.6253 82.8123 21.9622 82.6322 22.3289 82.5593C22.6957 82.4863 23.0758 82.5238 23.4213 82.6669C23.7667 82.81 24.062 83.0523 24.2697 83.3632C24.4775 83.6741 24.5883 84.0396 24.5883 84.4135C24.5877 84.9148 24.3884 85.3953 24.0339 85.7497C23.6795 86.1041 23.199 86.3035 22.6978 86.3041Z" fill="black"/>
<path id="Vector_12" d="M17.5402 56.807C17.5402 57.2652 17.6508 57.7047 17.8477 58.0288C18.0446 58.3528 18.3117 58.5349 18.5901 58.5349C18.8686 58.5349 19.1357 58.3528 19.3326 58.0288C19.5295 57.7047 19.6401 57.2652 19.6401 56.807C19.6401 56.3487 19.5295 55.9092 19.3326 55.5852C19.1357 55.2611 18.8686 55.0791 18.5901 55.0791C18.3117 55.0791 18.0446 55.2611 17.8477 55.5852C17.6508 55.9092 17.5402 56.3487 17.5402 56.807Z" fill="white"/>
<path id="Vector_13" d="M41.1933 79.1635C41.0935 79.1674 40.9961 79.1315 40.9227 79.0636C40.8494 78.9957 40.8059 78.9015 40.802 78.8016C40.7981 78.7017 40.8341 78.6044 40.902 78.531C40.9698 78.4576 41.0641 78.4142 41.164 78.4103C41.5124 78.381 41.8621 78.3705 42.2117 78.3787C42.3114 78.3808 42.4063 78.4225 42.4753 78.4945C42.5444 78.5666 42.582 78.6631 42.58 78.7628C42.5804 78.8127 42.5706 78.8621 42.5512 78.908C42.5318 78.9539 42.5033 78.9955 42.4673 79.03C42.4314 79.0645 42.3888 79.0914 42.3421 79.1089C42.2954 79.1264 42.2457 79.1342 42.1959 79.1319C41.8614 79.1238 41.5267 79.1343 41.1933 79.1635Z" fill="black"/>
<path id="Vector_14" d="M57.3202 109.071C56.619 109.057 55.9218 108.961 55.2428 108.786C55.1941 108.774 55.1483 108.753 55.1079 108.723C55.0676 108.693 55.0336 108.656 55.0079 108.613C54.9822 108.57 54.9654 108.522 54.9584 108.473C54.9513 108.423 54.9543 108.372 54.967 108.324C54.9797 108.276 55.002 108.23 55.0325 108.19C55.0629 108.151 55.1011 108.117 55.1446 108.093C55.1881 108.068 55.2361 108.052 55.2858 108.046C55.3355 108.04 55.386 108.044 55.4341 108.057C56.0533 108.217 56.6891 108.305 57.3285 108.317C57.4284 108.318 57.5237 108.359 57.5936 108.431C57.6634 108.502 57.702 108.598 57.7009 108.698C57.6998 108.798 57.6591 108.893 57.5877 108.963C57.5163 109.033 57.4201 109.072 57.3202 109.071ZM58.9441 108.611C58.9364 108.562 58.9384 108.512 58.9499 108.464C58.9615 108.416 58.9824 108.371 59.0115 108.331C59.0406 108.291 59.0773 108.257 59.1195 108.231C59.1617 108.205 59.2086 108.188 59.2575 108.18C59.9 108.075 60.5344 107.926 61.1563 107.734C61.2043 107.716 61.2552 107.709 61.306 107.712C61.3568 107.715 61.4065 107.729 61.452 107.751C61.4975 107.774 61.538 107.806 61.5708 107.845C61.6037 107.884 61.6284 107.929 61.6433 107.978C61.6582 108.026 61.6631 108.078 61.6577 108.128C61.6523 108.179 61.6367 108.228 61.6118 108.272C61.5869 108.317 61.5533 108.356 61.5129 108.387C61.4726 108.418 61.4263 108.44 61.377 108.453C60.7216 108.657 60.0526 108.814 59.375 108.924C59.2767 108.94 59.1763 108.916 59.0955 108.858C59.0148 108.8 58.9604 108.712 58.9441 108.614V108.611ZM53.4893 108.04C53.4235 108.04 53.3588 108.023 53.3018 107.99C52.6973 107.636 52.1382 107.21 51.6372 106.721C51.6014 106.687 51.5728 106.646 51.5529 106.6C51.533 106.555 51.5223 106.506 51.5214 106.457C51.5204 106.407 51.5293 106.358 51.5474 106.312C51.5656 106.265 51.5927 106.223 51.6271 106.188C51.6616 106.152 51.7027 106.124 51.7482 106.104C51.7937 106.084 51.8426 106.074 51.8922 106.073C51.9418 106.072 51.991 106.081 52.0371 106.1C52.0831 106.118 52.1251 106.145 52.1607 106.18C52.6174 106.625 53.1265 107.014 53.6769 107.337C53.749 107.378 53.8054 107.442 53.8374 107.518C53.8694 107.595 53.8752 107.68 53.8538 107.761C53.8324 107.841 53.785 107.912 53.7191 107.962C53.6532 108.013 53.5724 108.04 53.4893 108.04ZM62.8028 107.554C62.7643 107.462 62.7638 107.358 62.8015 107.266C62.8392 107.173 62.912 107.1 63.004 107.061C63.6028 106.81 64.1819 106.514 64.7364 106.176C64.8216 106.124 64.924 106.108 65.0211 106.131C65.1182 106.154 65.202 106.215 65.2542 106.301C65.3063 106.386 65.3225 106.488 65.2991 106.585C65.2757 106.682 65.2147 106.766 65.1295 106.818C64.5423 107.176 63.9293 107.489 63.2954 107.755C63.2034 107.794 63.0997 107.794 63.0074 107.756C62.915 107.719 62.8414 107.646 62.8028 107.554ZM66.5599 105.706C66.4825 105.706 66.407 105.682 66.3437 105.638C66.2804 105.593 66.2323 105.53 66.2059 105.457C66.1796 105.385 66.1763 105.306 66.1965 105.231C66.2167 105.156 66.2594 105.09 66.3189 105.04C66.8182 104.622 67.2894 104.171 67.7296 103.69C67.7982 103.621 67.8909 103.581 67.9884 103.579C68.0859 103.576 68.1805 103.612 68.2523 103.678C68.3241 103.744 68.3675 103.835 68.3735 103.932C68.3794 104.029 68.3473 104.125 68.284 104.199C67.8214 104.704 67.3263 105.178 66.8017 105.619C66.7338 105.675 66.6482 105.706 66.5599 105.706ZM50.6166 105.289C50.5543 105.289 50.4931 105.273 50.4383 105.244C50.3835 105.214 50.3368 105.172 50.3025 105.12C49.912 104.535 49.5993 103.902 49.3722 103.237C49.3456 103.144 49.3559 103.044 49.401 102.958C49.4461 102.872 49.5226 102.807 49.6145 102.776C49.7063 102.745 49.8066 102.751 49.8943 102.792C49.9821 102.834 50.0505 102.907 50.0855 102.997C50.2927 103.599 50.5768 104.172 50.9306 104.701C50.969 104.758 50.9912 104.824 50.9947 104.893C50.9983 104.961 50.9831 105.029 50.9508 105.09C50.9184 105.15 50.8702 105.201 50.8114 105.236C50.7525 105.271 50.6851 105.289 50.6166 105.289ZM69.2782 102.774C69.2083 102.774 69.1397 102.755 69.0803 102.718C69.0208 102.681 68.9727 102.629 68.9414 102.566C68.9101 102.504 68.8969 102.434 68.9032 102.364C68.9094 102.294 68.935 102.228 68.977 102.172C69.4289 101.56 69.8145 100.978 70.0985 100.54C70.1527 100.456 70.2381 100.398 70.3358 100.377C70.4334 100.356 70.5354 100.374 70.6193 100.429C70.7032 100.483 70.7622 100.568 70.7831 100.666C70.8041 100.763 70.7854 100.865 70.7312 100.949C70.4412 101.398 70.0488 101.992 69.5818 102.621C69.547 102.668 69.5015 102.707 69.449 102.733C69.3966 102.76 69.3386 102.774 69.2798 102.774H69.2782ZM49.4189 101.526C49.3194 101.519 49.2265 101.474 49.1605 101.399C49.0946 101.324 49.061 101.226 49.0672 101.126C49.0884 100.377 49.3475 99.6545 49.8069 99.0625C49.8362 99.0206 49.8738 98.985 49.9174 98.9581C49.961 98.9312 50.0096 98.9134 50.0602 98.9059C50.1109 98.8984 50.1626 98.9013 50.2121 98.9145C50.2616 98.9276 50.3079 98.9507 50.3481 98.9824C50.3884 99.014 50.4218 99.0536 50.4463 99.0985C50.4707 99.1435 50.4858 99.1931 50.4905 99.2441C50.4951 99.2951 50.4894 99.3465 50.4735 99.3952C50.4576 99.4439 50.432 99.4888 50.3981 99.5273C50.0339 99.9997 49.8309 100.577 49.8189 101.173C49.8158 101.222 49.8031 101.271 49.7813 101.315C49.7595 101.36 49.7292 101.4 49.692 101.432C49.6549 101.465 49.6116 101.49 49.5648 101.506C49.5179 101.522 49.4684 101.529 49.4189 101.526ZM71.4919 99.4301C71.4249 99.4301 71.3591 99.4123 71.3013 99.3784C71.2435 99.3445 71.1958 99.2958 71.1631 99.2373C71.1304 99.1788 71.1139 99.1126 71.1153 99.0456C71.1167 98.9786 71.136 98.9132 71.1711 98.8562C71.5703 98.2084 71.8799 97.6623 72.1503 97.1396C72.1717 97.094 72.2022 97.0531 72.2397 97.0195C72.2773 96.9859 72.3212 96.9601 72.3689 96.9438C72.4166 96.9274 72.4671 96.9208 72.5174 96.9244C72.5676 96.9279 72.6167 96.9415 72.6616 96.9643C72.7066 96.9872 72.7465 97.0188 72.779 97.0574C72.8115 97.0959 72.8359 97.1406 72.8508 97.1888C72.8657 97.2369 72.8707 97.2876 72.8657 97.3378C72.8606 97.3879 72.8456 97.4366 72.8214 97.4808C72.5457 98.0231 72.2263 98.5858 71.8166 99.2508C71.7825 99.3062 71.7347 99.3518 71.6779 99.3832C71.621 99.4146 71.5569 99.4308 71.4919 99.4301ZM51.479 98.2197C51.406 98.2196 51.3346 98.1984 51.2735 98.1585C51.2123 98.1186 51.1641 98.0618 51.1347 97.995C51.1052 97.9282 51.0958 97.8543 51.1076 97.7823C51.1194 97.7102 51.1519 97.6432 51.2011 97.5893C51.6384 97.1087 52.0412 96.5978 52.4062 96.0602C52.4331 96.0171 52.4685 95.98 52.5102 95.9509C52.5518 95.9218 52.599 95.9015 52.6487 95.8911C52.6984 95.8808 52.7497 95.8806 52.7995 95.8906C52.8494 95.9005 52.8966 95.9205 52.9385 95.9492C52.9804 95.978 53.0161 96.0149 53.0433 96.0577C53.0706 96.1006 53.0889 96.1485 53.0972 96.1987C53.1054 96.2488 53.1034 96.3001 53.0914 96.3494C53.0793 96.3988 53.0573 96.4452 53.0269 96.4858C52.6415 97.0523 52.2163 97.5907 51.7547 98.0969C51.7197 98.1353 51.6771 98.166 51.6297 98.1871C51.5822 98.2083 51.5309 98.2193 51.479 98.2197ZM73.2801 95.8523C73.2199 95.8524 73.1605 95.838 73.107 95.8103C73.0535 95.7827 73.0074 95.7426 72.9725 95.6935C72.9377 95.6444 72.9152 95.5876 72.9068 95.5279C72.8985 95.4683 72.9046 95.4075 72.9246 95.3507C73.1413 94.7429 73.3015 94.1163 73.4029 93.479C73.4183 93.3804 73.4721 93.292 73.5526 93.2331C73.6331 93.1743 73.7336 93.1497 73.8322 93.1649C73.9309 93.1801 74.0194 93.2338 74.0785 93.3144C74.1375 93.3949 74.1622 93.4955 74.147 93.5942C74.0389 94.2774 73.8677 94.9491 73.6356 95.6008C73.6096 95.6742 73.5614 95.7378 73.4977 95.7827C73.434 95.8276 73.358 95.8517 73.2801 95.8516V95.8523ZM53.7944 94.9583C53.7277 94.9582 53.6622 94.9405 53.6046 94.9069C53.5471 94.8732 53.4994 94.8249 53.4667 94.7668C53.4339 94.7088 53.4171 94.643 53.418 94.5764C53.419 94.5097 53.4376 94.4444 53.472 94.3873C53.8178 93.8403 54.1157 93.2645 54.3623 92.6662C54.3804 92.6202 54.4074 92.5782 54.4417 92.5425C54.4761 92.5069 54.5171 92.4784 54.5625 92.4587C54.6078 92.4389 54.6566 92.4283 54.7061 92.4274C54.7556 92.4265 54.8047 92.4353 54.8508 92.4534C54.8968 92.4715 54.9388 92.4985 54.9745 92.5329C55.0101 92.5672 55.0386 92.6082 55.0583 92.6536C55.0781 92.699 55.0887 92.7478 55.0896 92.7972C55.0905 92.8467 55.0816 92.8959 55.0635 92.9419C54.8014 93.5796 54.4846 94.1935 54.1168 94.7767C54.0831 94.832 54.0357 94.8777 53.9793 94.9094C53.9228 94.9411 53.8591 94.9576 53.7944 94.9575V94.9583ZM45.796 92.67C45.6963 92.6644 45.603 92.6194 45.5364 92.545C45.4699 92.4705 45.4357 92.3727 45.4412 92.273C45.4423 92.2231 45.4537 92.1739 45.4747 92.1285C45.4956 92.0831 45.5257 92.0425 45.563 92.0093C45.6003 91.976 45.644 91.9508 45.6915 91.9351C45.739 91.9195 45.7891 91.9137 45.8389 91.9183C46.4306 91.9681 47.0226 91.8271 47.5284 91.5161C47.612 91.4648 47.7124 91.4482 47.8081 91.4699C47.9038 91.4915 47.9873 91.5496 48.0408 91.6319C48.0943 91.7141 48.1136 91.814 48.0945 91.9103C48.0755 92.0065 48.0197 92.0916 47.9389 92.1473L47.7995 92.2331C47.1858 92.5637 46.4916 92.715 45.796 92.67ZM43.9807 91.968C43.8836 91.968 43.7902 91.9305 43.7201 91.8633C43.4459 91.5822 43.2408 91.2412 43.1212 90.8672C43.0016 90.4931 42.9707 90.0964 43.0309 89.7083C43.0444 89.6104 43.0943 89.5211 43.1706 89.4583C43.247 89.3955 43.3442 89.3637 43.4429 89.3694C43.4922 89.3742 43.54 89.3887 43.5837 89.412C43.6274 89.4353 43.666 89.467 43.6975 89.5053C43.7289 89.5436 43.7524 89.5876 43.7668 89.635C43.7811 89.6824 43.786 89.7321 43.7811 89.7814C43.7337 90.0557 43.7506 90.3373 43.8303 90.604C43.91 90.8708 44.0504 91.1154 44.2406 91.3187C44.2951 91.3706 44.3328 91.4377 44.3488 91.5112C44.3648 91.5848 44.3584 91.6614 44.3304 91.7313C44.3025 91.8012 44.2542 91.8611 44.1919 91.9033C44.1295 91.9455 44.056 91.968 43.9807 91.968ZM73.4925 91.5628C73.4504 90.9205 73.3373 90.285 73.1551 89.6677C73.1281 89.5715 73.1404 89.4685 73.1894 89.3814C73.2383 89.2944 73.3199 89.2303 73.416 89.2033C73.5122 89.1763 73.6152 89.1887 73.7023 89.2376C73.7894 89.2866 73.8534 89.3681 73.8804 89.4643C74.0763 90.1326 74.1983 90.8204 74.2442 91.5153C74.2505 91.6152 74.2168 91.7135 74.1507 91.7886C74.0845 91.8636 73.9912 91.9094 73.8913 91.9157C73.7914 91.9219 73.6931 91.8883 73.6181 91.8221C73.543 91.7559 73.4973 91.6626 73.491 91.5628H73.4925ZM55.0605 91.2223C54.9651 91.2225 54.8731 91.1865 54.8031 91.1215C54.7332 91.0565 54.6906 90.9673 54.6839 90.8721C54.6406 90.2612 54.4518 89.6695 54.1333 89.1464C54.1081 89.1039 54.0915 89.0567 54.0845 89.0077C54.0775 88.9587 54.0802 88.9088 54.0925 88.8609C54.1048 88.813 54.1264 88.7679 54.156 88.7283C54.1857 88.6887 54.2229 88.6553 54.2655 88.6301C54.3081 88.6049 54.3552 88.5883 54.4042 88.5813C54.4532 88.5743 54.5031 88.577 54.5511 88.5893C54.599 88.6016 54.6441 88.6231 54.6837 88.6528C54.7233 88.6825 54.7566 88.7197 54.7818 88.7623C55.1588 89.3872 55.3828 90.0922 55.4356 90.8201C55.4391 90.8715 55.4321 90.9232 55.4148 90.9717C55.3975 91.0203 55.3705 91.0649 55.3353 91.1026C55.3002 91.1403 55.2576 91.1704 55.2104 91.191C55.1631 91.2116 55.1121 91.2222 55.0605 91.2223ZM48.9896 90.6777C48.9255 90.6777 48.8625 90.6614 48.8065 90.6302C48.7505 90.5991 48.7034 90.5541 48.6696 90.4997C48.6358 90.4452 48.6165 90.3831 48.6134 90.3191C48.6104 90.2551 48.6237 90.1913 48.6522 90.1339C48.9268 89.5608 49.1207 88.9525 49.2284 88.3262C49.2465 88.2278 49.3029 88.1406 49.3852 88.0839C49.4676 88.0271 49.5691 88.0053 49.6675 88.0234C49.7659 88.0415 49.8531 88.0979 49.9098 88.1803C49.9666 88.2626 49.9884 88.3641 49.9703 88.4625C49.8488 89.156 49.6324 89.8294 49.3271 90.4638C49.2965 90.5277 49.2485 90.5816 49.1887 90.6194C49.1289 90.6573 49.0596 90.6775 48.9889 90.6777H48.9896ZM69.3099 89.0003C69.2079 88.9886 69.1144 88.9381 69.0487 88.8593C68.9829 88.7805 68.95 88.6794 68.9566 88.577C68.9595 88.5289 68.9721 88.4819 68.9938 88.4388C69.0155 88.3957 69.0457 88.3575 69.0827 88.3266C69.1196 88.2956 69.1625 88.2725 69.2087 88.2587C69.2549 88.2449 69.3034 88.2407 69.3513 88.2464C69.952 88.3253 70.5627 88.2302 71.1108 87.9722C71.2018 87.9368 71.3029 87.9381 71.3929 87.9758C71.4829 88.0135 71.5547 88.0847 71.5933 88.1743C71.6319 88.264 71.6341 88.3651 71.5996 88.4563C71.5651 88.5476 71.4966 88.6219 71.4083 88.6636C70.7513 88.9616 70.0264 89.0779 69.3091 89.0003H69.3099ZM44.0914 88.2584C44.0225 88.2583 43.9549 88.2393 43.896 88.2034C43.8372 88.1675 43.7893 88.1162 43.7576 88.055C43.7259 87.9937 43.7116 87.925 43.7163 87.8562C43.7209 87.7874 43.7444 87.7212 43.7841 87.6649C44.2134 87.0734 44.7773 86.5927 45.4292 86.2624C45.5173 86.2187 45.619 86.2112 45.7126 86.2415C45.8061 86.2718 45.8841 86.3376 45.9299 86.4246C45.9756 86.5117 45.9855 86.6132 45.9574 86.7074C45.9292 86.8017 45.8654 86.8812 45.7794 86.929C45.2333 87.2044 44.7601 87.6052 44.3988 88.0987C44.364 88.1481 44.3178 88.1884 44.2642 88.2162C44.2106 88.244 44.1511 88.2584 44.0907 88.2584H44.0914ZM67.4705 88.2336C67.3906 88.2326 67.313 88.2062 67.2491 88.1582C66.6201 87.7003 65.9385 86.9343 66.0628 86.178C66.069 86.1277 66.0853 86.0792 66.1108 86.0353C66.1363 85.9914 66.1703 85.9532 66.2109 85.9228C66.2515 85.8924 66.2978 85.8706 66.3471 85.8585C66.3963 85.8465 66.4475 85.8445 66.4976 85.8527C66.5476 85.861 66.5955 85.8792 66.6383 85.9064C66.6811 85.9335 66.718 85.9691 66.7467 86.0108C66.7755 86.0526 66.7955 86.0998 66.8056 86.1495C66.8157 86.1992 66.8156 86.2504 66.8054 86.3C66.8036 86.3186 66.8036 86.3373 66.8054 86.3558C66.8632 86.6053 66.9721 86.8402 67.1252 87.0456C67.2783 87.2509 67.4723 87.4223 67.695 87.5489C67.7611 87.5953 67.8105 87.6618 67.8359 87.7385C67.8614 87.8151 67.8615 87.898 67.8362 87.9747C67.811 88.0515 67.7618 88.1181 67.6958 88.1647C67.6298 88.2113 67.5505 88.2354 67.4698 88.2336H67.4705ZM72.8033 88.0678C72.7334 88.0678 72.6649 88.0484 72.6055 88.0117C72.546 87.975 72.4979 87.9224 72.4666 87.86C72.1943 87.2919 71.8336 86.7707 71.3978 86.3159C71.3581 86.282 71.3259 86.2403 71.3032 86.1933C71.2804 86.1463 71.2677 86.0952 71.2658 86.043C71.2639 85.9909 71.2729 85.9389 71.2921 85.8904C71.3113 85.8419 71.3405 85.798 71.3776 85.7613C71.4147 85.7247 71.459 85.6961 71.5078 85.6775C71.5565 85.6589 71.6086 85.6506 71.6607 85.6532C71.7128 85.6557 71.7638 85.6691 71.8105 85.6924C71.8572 85.7157 71.8985 85.7485 71.9318 85.7886C72.2532 86.1169 72.5365 86.4805 72.7762 86.8725C73.2244 86.4663 73.6356 86.0208 74.0047 85.5416C74.0668 85.4652 74.1564 85.4162 74.2542 85.4051C74.3521 85.394 74.4503 85.4216 74.528 85.4821C74.6057 85.5426 74.6567 85.6311 74.6699 85.7286C74.6832 85.8262 74.6577 85.925 74.599 86.004C74.1691 86.5655 73.6833 87.0819 73.149 87.5451C73.1731 87.6023 73.1827 87.6646 73.1769 87.7264C73.1711 87.7882 73.1501 87.8476 73.1158 87.8993C73.0815 87.951 73.035 87.9935 72.9803 88.0229C72.9257 88.0523 72.8646 88.0677 72.8025 88.0678H72.8033ZM53.1444 87.8313C53.0577 87.8314 52.9736 87.8016 52.9063 87.747C52.4128 87.3488 51.8666 87.0208 51.2832 86.7723C51.2377 86.7529 51.1964 86.7247 51.1618 86.6893C51.1272 86.6539 51.0999 86.6121 51.0815 86.5662C51.0631 86.5203 51.0539 86.4712 51.0544 86.4217C51.055 86.3722 51.0652 86.3233 51.0847 86.2778C51.1041 86.2323 51.1323 86.1911 51.1677 86.1565C51.2031 86.1219 51.2449 86.0946 51.2908 86.0762C51.3367 86.0577 51.3858 86.0485 51.4353 86.0491C51.4848 86.0496 51.5337 86.0599 51.5792 86.0794C52.2277 86.3546 52.8345 86.7194 53.3816 87.1632C53.4418 87.2125 53.4853 87.2792 53.5061 87.3541C53.5269 87.4291 53.5239 87.5086 53.4977 87.5818C53.4714 87.655 53.4231 87.7183 53.3595 87.763C53.2958 87.8077 53.2199 87.8316 53.1421 87.8313H53.1444ZM49.3738 86.4123C49.3738 86.3681 49.3722 86.3244 49.3692 86.2812C48.7664 86.2251 48.1589 86.2466 47.5615 86.3452C47.5127 86.3534 47.4628 86.3519 47.4145 86.3407C47.3663 86.3296 47.3208 86.309 47.2805 86.2803C47.2402 86.2516 47.206 86.2152 47.1797 86.1732C47.1535 86.1312 47.1358 86.0845 47.1277 86.0357C47.1195 85.9869 47.121 85.9369 47.1322 85.8887C47.1433 85.8405 47.1638 85.7949 47.1926 85.7546C47.2213 85.7143 47.2577 85.6801 47.2997 85.6539C47.3417 85.6277 47.3884 85.61 47.4372 85.6018C48.0542 85.5005 48.681 85.473 49.3045 85.5197C49.2629 85.1782 49.2023 84.8392 49.1229 84.5044C49.1093 84.4556 49.1057 84.4046 49.1123 84.3544C49.1189 84.3042 49.1356 84.2558 49.1613 84.2122C49.187 84.1685 49.2212 84.1305 49.2619 84.1004C49.3027 84.0703 49.349 84.0488 49.3983 84.037C49.4476 84.0253 49.4987 84.0236 49.5486 84.032C49.5985 84.0405 49.6462 84.0589 49.6889 84.0862C49.7315 84.1135 49.7682 84.1492 49.7968 84.191C49.8253 84.2328 49.8452 84.28 49.8551 84.3296C50.0152 85.0058 50.1053 85.6966 50.124 86.3912C50.1253 86.4406 50.117 86.4899 50.0993 86.5361C50.0817 86.5823 50.0551 86.6246 50.0211 86.6606C49.9871 86.6965 49.9464 86.7254 49.9012 86.7456C49.856 86.7658 49.8073 86.777 49.7579 86.7783C49.7084 86.7797 49.6592 86.7714 49.613 86.7537C49.5667 86.7361 49.5245 86.7095 49.4885 86.6755C49.4159 86.6068 49.3735 86.5122 49.3707 86.4123H49.3738ZM67.6076 85.1988C67.5826 85.1024 67.5969 84.9999 67.6473 84.9139C67.6977 84.828 67.7801 84.7655 67.8765 84.7401C68.5849 84.555 69.3268 84.5384 70.0428 84.6919C70.1369 84.7176 70.2174 84.7787 70.2673 84.8625C70.3172 84.9463 70.3327 85.0462 70.3104 85.1412C70.2882 85.2362 70.2299 85.3188 70.148 85.3717C70.066 85.4246 69.9667 85.4436 69.871 85.4248C69.2732 85.2995 68.6544 85.3145 68.0633 85.4685C67.9668 85.4932 67.8645 85.4788 67.7787 85.4282C67.6928 85.3777 67.6305 85.2952 67.6054 85.1988H67.6076ZM75.4004 84.4697C75.3349 84.4699 75.2705 84.453 75.2136 84.4207C75.1567 84.3884 75.1091 84.3419 75.0756 84.2856C75.0422 84.2293 75.024 84.1653 75.0228 84.0999C75.0216 84.0344 75.0376 83.9698 75.069 83.9123C75.3811 83.3473 75.6389 82.7539 75.8388 82.14C75.8522 82.091 75.8754 82.0451 75.907 82.0053C75.9386 81.9655 75.978 81.9324 76.0227 81.9082C76.0674 81.884 76.1166 81.8691 76.1672 81.8644C76.2179 81.8597 76.269 81.8653 76.3174 81.8809C76.3658 81.8965 76.4106 81.9217 76.449 81.955C76.4874 81.9884 76.5186 82.0292 76.5408 82.0749C76.563 82.1207 76.5757 82.1705 76.5782 82.2213C76.5806 82.2721 76.5728 82.3228 76.5551 82.3705C76.3411 83.0293 76.0652 83.6664 75.731 84.2731C75.6984 84.3331 75.6502 84.383 75.5914 84.4176C75.5326 84.4522 75.4656 84.4702 75.3974 84.4697H75.4004ZM48.8066 82.9158C48.7373 82.9158 48.6693 82.8967 48.6102 82.8606C48.551 82.8244 48.503 82.7727 48.4714 82.711C48.1855 82.1464 47.8186 81.6267 47.3822 81.1684C47.3131 81.0962 47.2755 80.9995 47.2777 80.8995C47.2799 80.7996 47.3217 80.7046 47.3939 80.6355C47.4661 80.5664 47.5629 80.5288 47.6628 80.531C47.7627 80.5331 47.8577 80.5749 47.9268 80.6472C48.4134 81.1584 48.8227 81.738 49.1418 82.3675C49.1713 82.4251 49.1854 82.4893 49.1829 82.554C49.1804 82.6186 49.1612 82.6815 49.1273 82.7366C49.0934 82.7917 49.0459 82.8372 48.9893 82.8686C48.9327 82.8999 48.869 82.9162 48.8043 82.9158H48.8066ZM76.6477 80.6818C76.5935 80.6823 76.5398 80.6712 76.4903 80.649C76.4408 80.6269 76.3966 80.5943 76.3609 80.5536C76.3251 80.5128 76.2986 80.4648 76.2831 80.4128C76.2676 80.3609 76.2635 80.3062 76.2711 80.2525C76.3632 79.6108 76.401 78.9625 76.3841 78.3144C76.3819 78.2146 76.4195 78.1179 76.4885 78.0457C76.5576 77.9735 76.6525 77.9317 76.7524 77.9296C76.8523 77.9274 76.949 77.9649 77.0211 78.034C77.0933 78.1031 77.1351 78.198 77.1373 78.2979C77.1549 78.987 77.1146 79.6763 77.0168 80.3587C77.004 80.4481 76.9594 80.53 76.8912 80.5893C76.8231 80.6486 76.7358 80.6815 76.6455 80.6818H76.6477ZM46.0619 80.0792C45.9985 80.0794 45.936 80.0636 45.8803 80.0333C45.3256 79.7283 44.73 79.5043 44.1118 79.3682C44.0618 79.3593 44.0142 79.3405 43.9717 79.3127C43.9292 79.285 43.8928 79.249 43.8645 79.2068C43.8363 79.1646 43.8169 79.1172 43.8075 79.0674C43.7981 79.0175 43.7988 78.9663 43.8097 78.9167C43.8205 78.8672 43.8413 78.8203 43.8707 78.779C43.9001 78.7376 43.9376 78.7027 43.9809 78.6762C44.0242 78.6497 44.0723 78.6322 44.1225 78.6248C44.1727 78.6174 44.2239 78.6202 44.273 78.6331C44.962 78.7843 45.6257 79.0334 46.2441 79.3727C46.3172 79.4133 46.3746 79.4771 46.4075 79.5539C46.4403 79.6307 46.4466 79.7163 46.4255 79.7971C46.4044 79.878 46.3569 79.9495 46.2907 80.0004C46.2245 80.0514 46.1432 80.0788 46.0596 80.0785L46.0619 80.0792ZM76.5423 76.6898C76.4556 76.6896 76.3716 76.6595 76.3045 76.6047C76.2374 76.5498 76.1913 76.4734 76.1739 76.3885C76.0474 75.7564 75.8605 75.1379 75.6158 74.5416C75.595 74.4956 75.5838 74.4458 75.5826 74.3954C75.5814 74.3449 75.5905 74.2947 75.6091 74.2478C75.6277 74.2008 75.6556 74.1581 75.6911 74.1222C75.7265 74.0863 75.7689 74.0578 75.8155 74.0386C75.8622 74.0193 75.9123 74.0097 75.9628 74.0102C76.0133 74.0107 76.0631 74.0213 76.1094 74.0414C76.1557 74.0616 76.1975 74.0909 76.2323 74.1275C76.267 74.1641 76.2941 74.2073 76.3118 74.2546C76.5756 74.8951 76.7774 75.5595 76.9144 76.2386C76.926 76.2939 76.9251 76.3511 76.9116 76.406C76.8981 76.461 76.8724 76.5121 76.8364 76.5557C76.8005 76.5994 76.7552 76.6343 76.7039 76.6581C76.6525 76.6818 76.5965 76.6936 76.54 76.6928L76.5423 76.6898ZM75.0087 73.0171C74.6321 73.0171 74.7828 72.7263 73.4481 71.3803C73.4084 71.3465 73.3761 71.3048 73.3534 71.2578C73.3307 71.2108 73.318 71.1596 73.3161 71.1075C73.3142 71.0554 73.3231 71.0034 73.3424 70.9549C73.3616 70.9064 73.3907 70.8624 73.4278 70.8258C73.465 70.7891 73.5093 70.7606 73.558 70.742C73.6068 70.7234 73.6588 70.7151 73.711 70.7176C73.7631 70.7202 73.8141 70.7336 73.8607 70.7569C73.9074 70.7802 73.9487 70.813 73.9821 70.8531C74.4735 71.3378 74.9207 71.8654 75.3183 72.4296C75.3574 72.4862 75.3802 72.5525 75.3843 72.6212C75.3884 72.69 75.3735 72.7585 75.3414 72.8193C75.3092 72.8802 75.261 72.9311 75.202 72.9665C75.1429 73.0019 75.0753 73.0204 75.0065 73.0201L75.0087 73.0171ZM72.2911 70.0833C72.2396 70.0833 72.1886 70.0728 72.1413 70.0523C72.094 70.0318 72.0514 70.0019 72.0162 69.9643C71.5231 69.4593 71.1103 68.8816 70.7922 68.2515C70.7704 68.207 70.7576 68.1586 70.7545 68.1091C70.7513 68.0597 70.758 68.0101 70.774 67.9632C70.7901 67.9163 70.8152 67.873 70.848 67.8358C70.8808 67.7986 70.9206 67.7683 70.9651 67.7464C71.0096 67.7246 71.058 67.7118 71.1074 67.7087C71.1569 67.7056 71.2065 67.7122 71.2534 67.7283C71.3003 67.7443 71.3436 67.7695 71.3807 67.8022C71.4179 67.835 71.4483 67.8748 71.4701 67.9193C71.7559 68.4821 72.126 68.998 72.5675 69.4491C72.619 69.5028 72.6535 69.5705 72.6665 69.6438C72.6795 69.717 72.6706 69.7925 72.6408 69.8607C72.611 69.9288 72.5616 69.9867 72.499 70.0268C72.4364 70.067 72.3632 70.0877 72.2889 70.0863L72.2911 70.0833ZM70.5482 66.553C70.4592 66.5528 70.3731 66.521 70.3053 66.4634C70.2374 66.4057 70.1922 66.3259 70.1776 66.2381C70.0531 65.536 70.0513 64.8176 70.1723 64.1148C70.1922 64.0176 70.249 63.932 70.3307 63.8758C70.4125 63.8196 70.5128 63.7973 70.6107 63.8135C70.7087 63.8318 70.7955 63.8883 70.852 63.9704C70.9084 64.0526 70.93 64.1538 70.912 64.2519C70.8059 64.869 70.8079 65.4998 70.918 66.1161C70.9272 66.1702 70.9245 66.2257 70.91 66.2786C70.8956 66.3316 70.8697 66.3807 70.8343 66.4226C70.7988 66.4645 70.7547 66.4982 70.7048 66.5212C70.655 66.5442 70.6008 66.5561 70.5459 66.556L70.5482 66.553ZM71.2916 62.7116C71.2232 62.7117 71.1561 62.6933 71.0975 62.6582C71.0388 62.6231 70.9908 62.5727 70.9586 62.5124C70.9264 62.4521 70.9112 62.3841 70.9147 62.3159C70.9181 62.2476 70.9401 62.1815 70.9783 62.1248C71.383 61.5327 71.8938 61.0204 72.4847 60.6139C72.5665 60.5565 72.6677 60.534 72.7661 60.5513C72.8645 60.5687 72.952 60.6243 73.0093 60.7061C73.0666 60.7879 73.0891 60.8892 73.0718 60.9876C73.0545 61.0859 72.9988 61.1734 72.917 61.2308C72.4035 61.5845 71.9595 62.0298 71.6072 62.5444C71.573 62.5976 71.526 62.6414 71.4704 62.6717C71.4149 62.702 71.3526 62.7177 71.2893 62.7176L71.2916 62.7116Z" fill="black"/>
<path id="Vector_15" d="M107.338 36.1381C106.542 36.0146 105.455 35.8481 105.098 35.0354C105.011 34.7602 104.988 34.4691 105.029 34.1836C105.07 33.8981 105.175 33.6255 105.335 33.3859C105.99 32.1566 106.009 29.9738 105.403 26.8728C105.391 26.8232 105.388 26.7716 105.396 26.7212C105.405 26.6707 105.423 26.6224 105.45 26.5793C105.478 26.5361 105.514 26.499 105.556 26.4702C105.598 26.4413 105.646 26.4214 105.696 26.4116C105.746 26.4017 105.798 26.4022 105.848 26.413C105.898 26.4238 105.945 26.4446 105.986 26.4742C106.028 26.5038 106.063 26.5416 106.09 26.5853C106.117 26.629 106.134 26.6776 106.141 26.7282C106.791 30.0499 106.749 32.3351 106.013 33.7165C105.899 33.9252 105.641 34.3989 105.787 34.7311C105.978 35.1665 106.864 35.302 107.449 35.3924C108.045 35.5823 108.691 35.54 109.257 35.2742C109.64 35.0128 109.916 34.6217 110.034 34.173C110.059 34.0764 110.122 33.9939 110.209 33.9437C110.295 33.8935 110.398 33.8796 110.494 33.9052C110.591 33.9308 110.673 33.9937 110.724 34.08C110.774 34.1664 110.788 34.2692 110.762 34.3658C110.596 34.9951 110.207 35.5426 109.668 35.9061C108.95 36.2809 108.115 36.3641 107.338 36.1381Z" fill="black"/>
<path id="Vector_16" d="M104.519 27.855C104.604 27.8222 104.69 27.7945 104.778 27.7721C104.829 27.7651 104.877 27.748 104.921 27.7217C104.965 27.6955 105.002 27.6606 105.032 27.6193C105.062 27.578 105.083 27.531 105.094 27.4813C105.105 27.4316 105.106 27.3802 105.097 27.3301C105.088 27.28 105.068 27.2323 105.04 27.19C105.012 27.1476 104.975 27.1114 104.932 27.0836C104.89 27.0558 104.842 27.0369 104.792 27.0281C104.742 27.0193 104.69 27.0208 104.64 27.0325C104.186 27.1166 103.757 27.3052 103.388 27.5834C103.019 27.8615 102.72 28.2216 102.513 28.6353C102.469 28.7252 102.462 28.8291 102.494 28.9241C102.526 29.0191 102.595 29.0974 102.685 29.1418C102.775 29.1863 102.879 29.1932 102.974 29.1611C103.069 29.1289 103.147 29.0604 103.191 28.9705C103.285 28.7882 103.404 28.6201 103.545 28.4711C103.609 28.6342 103.692 28.789 103.793 28.9321C103.896 29.1055 104.035 29.2551 104.2 29.3709C104.365 29.4868 104.552 29.5662 104.75 29.6039C104.855 29.6054 104.956 29.5674 105.034 29.4977C105.112 29.4279 105.161 29.3314 105.171 29.2273C105.165 28.9655 105.105 28.7078 104.992 28.4712C104.88 28.2346 104.719 28.0246 104.519 27.855Z" fill="black"/>
<path id="Vector_17" d="M114.435 26.1868C113.819 25.991 113.164 25.9554 112.53 26.0833C111.897 26.2113 111.307 26.4986 110.815 26.9182C110.757 26.9682 110.715 27.035 110.696 27.1095C110.676 27.184 110.68 27.2626 110.707 27.3349C110.734 27.4071 110.782 27.4694 110.845 27.5134C110.908 27.5574 110.983 27.581 111.06 27.581C111.296 27.581 111.286 27.4424 111.78 27.1592C111.756 27.2833 111.743 27.4094 111.743 27.5358C111.743 28.2506 112.07 28.7899 112.503 28.7899C112.936 28.7899 113.263 28.2506 113.263 27.5358C113.267 27.2742 113.216 27.0146 113.112 26.7743C113.483 26.7512 113.856 26.7951 114.212 26.9039C114.259 26.9187 114.309 26.9241 114.358 26.9197C114.407 26.9153 114.455 26.9013 114.499 26.8784C114.543 26.8555 114.582 26.8242 114.614 26.7862C114.646 26.7483 114.67 26.7044 114.684 26.6572C114.699 26.6099 114.705 26.5603 114.7 26.5109C114.696 26.4616 114.682 26.4137 114.659 26.3698C114.636 26.3259 114.605 26.2869 114.567 26.2551C114.529 26.2234 114.485 26.1994 114.438 26.1845L114.435 26.1868Z" fill="black"/>
<path id="Vector_18" d="M109.145 23.8976C109.05 23.8672 108.971 23.8001 108.925 23.7112C108.879 23.6222 108.87 23.5188 108.901 23.4235C108.931 23.3282 108.998 23.2489 109.087 23.2031C109.176 23.1572 109.28 23.1486 109.375 23.179C111.421 23.8311 113.602 23.9368 115.702 23.4856C115.799 23.4646 115.901 23.483 115.985 23.537C116.069 23.5909 116.128 23.6759 116.149 23.7733C116.17 23.8709 116.152 23.9729 116.098 24.0567C116.044 24.1406 115.959 24.1996 115.861 24.2207C113.633 24.7015 111.317 24.5901 109.145 23.8976Z" fill="black"/>
<path id="Vector_19" d="M101.936 26.3191C101.87 26.3192 101.806 26.3021 101.749 26.2695C101.692 26.2369 101.644 26.1899 101.611 26.1333C101.577 26.0766 101.56 26.0122 101.559 25.9465C101.558 25.8808 101.575 25.8161 101.607 25.7587C102.283 24.5507 103.269 23.5442 104.462 22.8423C104.548 22.7916 104.651 22.7773 104.748 22.8023C104.844 22.8274 104.927 22.8899 104.978 22.976C105.028 23.0621 105.043 23.1648 105.018 23.2614C104.993 23.3581 104.93 23.4409 104.844 23.4915C103.766 24.126 102.876 25.0358 102.265 26.1278C102.232 26.1861 102.184 26.2345 102.126 26.2681C102.069 26.3017 102.003 26.3193 101.936 26.3191Z" fill="black"/>
<path id="Vector_20" d="M111.487 38.3619C111.479 38.2624 111.511 38.1638 111.575 38.0877C111.64 38.0116 111.732 37.9642 111.831 37.9559C112.492 37.8989 113.118 37.6309 113.615 37.1914C113.69 37.1251 113.788 37.0912 113.887 37.0971C113.987 37.103 114.08 37.1483 114.147 37.2231C114.213 37.2978 114.247 37.3958 114.241 37.4955C114.235 37.5952 114.19 37.6885 114.115 37.7548C113.496 38.3028 112.717 38.6364 111.893 38.7061C111.793 38.7143 111.695 38.6826 111.619 38.618C111.543 38.5535 111.495 38.4614 111.487 38.3619Z" fill="black"/>
<path id="Vector_21" d="M142.283 53.9802C140.876 51.9541 139.097 50.2131 137.042 48.8493C135.126 47.4167 133.052 46.2099 130.86 45.2527C130.853 44.9943 130.517 36.666 130.283 32.8894C130.278 32.8027 130.243 32.7206 130.184 32.6569C130.125 32.5932 130.045 32.5519 129.959 32.5399L129.828 32.5218L130.213 31.3069C130.241 31.2186 130.236 31.1231 130.198 31.0387C130.16 30.9542 130.092 30.8866 130.008 30.8489C129.675 30.6983 129.338 30.5657 128.998 30.4407C129.21 28.4823 129.349 26.5195 129.388 24.3848C129.993 22.9307 130.506 21.4396 130.923 19.9205C131.112 19.0859 131.385 18.2727 131.739 17.4937C131.933 17.1262 132.009 16.7083 131.958 16.2961C131.868 15.8681 131.645 15.4793 131.322 15.1843C131.343 15.0495 131.371 14.9154 131.387 14.7806C131.522 13.6086 131.383 13.1943 131.107 12.9081C130.893 12.7232 130.633 12.6005 130.354 12.5533C130.36 12.1646 130.269 11.7805 130.088 11.4363C129.91 11.1508 129.682 10.9 129.414 10.6959C129.094 10.417 128.75 10.1677 128.385 9.95096C128.111 9.15783 127.714 9.17364 126.779 8.33155C125.843 7.48945 125.95 7.25445 125.456 7.05108C125.267 6.97813 125.065 6.94483 124.863 6.95325C124.66 6.96167 124.462 7.01164 124.279 7.10004C122.962 5.85991 121.414 4.88984 119.723 4.2446C112.531 1.52699 105.95 6.14496 105.676 6.34306C101.733 9.17138 99.2266 13.8684 98.8726 16.8519C98.7676 17.3647 98.7697 17.8937 98.8787 18.4057C98.9877 18.9176 99.2013 19.4016 99.5061 19.8271C99.6925 20.0343 99.9128 20.2083 100.158 20.3416C100.357 22.1673 100.441 24.0038 100.408 25.8401C100.337 26.6299 100.453 27.4253 100.748 28.1615C101.318 29.4796 102.043 29.4495 102.589 30.4445C103.185 31.5351 102.639 32.1663 103.009 33.9627C103.291 35.1556 103.815 36.2776 104.55 37.2588C106.433 40.1866 109.103 43.6431 112.583 43.4563L112.508 44.3255L110.657 45.2459C110.636 45.1981 110.604 45.1553 110.565 45.1206C110.526 45.0859 110.48 45.0601 110.43 45.045C110.38 45.0298 110.327 45.0256 110.275 45.0328C110.223 45.0399 110.174 45.0581 110.129 45.0862C100.026 51.4261 96.8826 51.7093 94.6674 55.4204C94.0171 56.5345 93.5647 57.7529 93.3304 59.0215C91.8895 65.6611 90.6031 75.1539 89.9508 80.3375C86.9379 82.3117 73.7438 91.0558 70.2165 93.4262C70.1753 93.4538 70.14 93.4894 70.1126 93.5307C70.0852 93.5721 70.0662 93.6185 70.0568 93.6672C70.0553 93.687 70.0553 93.7069 70.0568 93.7267L69.037 94.4633C68.9653 94.516 68.9149 94.5926 68.8949 94.6792C68.8749 94.7659 68.8865 94.8568 68.9277 94.9356L68.9089 94.9461C68.2904 94.1745 67.5715 93.489 66.7713 92.9079C66.4627 92.6253 66.0883 92.4243 65.6821 92.3234C64.6194 92.1781 64.1147 93.1369 62.951 94.2773L60.1776 92.3031C60.5821 82.5542 60.9105 81.2519 60.6748 78.2933C60.642 76.3859 60.3075 74.4958 59.6835 72.6931C58.0807 68.5504 55.7668 66.1077 52.8097 65.4381L23.2444 58.1402C23.1474 58.1163 23.0449 58.1318 22.9594 58.1834C22.8738 58.2351 22.8123 58.3185 22.7884 58.4155C22.7644 58.5125 22.7799 58.6151 22.8315 58.7006C22.8832 58.7861 22.9667 58.8476 23.0637 58.8716L49.6371 65.4329C47.3067 66.0439 45.1945 67.2965 43.5406 69.0483C41.7922 70.9014 40.4886 73.1282 39.7286 75.5599C38.7682 78.312 38.2477 81.1984 38.186 84.1126C38.0112 88.2064 38.2613 100.103 38.3683 104.21L6.71886 85.9467C5.79994 75.4913 8.42113 64.3369 17.7324 59.4945C17.7788 59.4732 17.8204 59.4428 17.8546 59.4049C17.8889 59.3671 17.9151 59.3227 17.9316 59.2744C17.9482 59.2261 17.9548 59.175 17.951 59.1241C17.9472 59.0732 17.9331 59.0236 17.9095 58.9783C17.886 58.9331 17.8534 58.8931 17.8139 58.8607C17.7744 58.8284 17.7288 58.8044 17.6798 58.7903C17.6307 58.7762 17.5793 58.7721 17.5287 58.7785C17.478 58.7848 17.4292 58.8014 17.3852 58.8272C7.70934 63.8504 4.98721 75.4401 5.98598 86.2103C5.99153 86.2703 6.01139 86.3281 6.0439 86.3788C6.0764 86.4295 6.1206 86.4717 6.17278 86.5018L24.8661 97.3481V145.29C24.8661 145.488 24.9497 145.654 25.1486 145.666C31.0696 146.043 32.4548 146.257 35.2838 145.666C35.4586 145.63 35.5203 145.476 35.5196 145.296V103.431C37.5164 104.587 38.7004 105.314 38.7132 105.319V106.569C38.7133 106.661 38.7358 106.751 38.7789 106.832C38.822 106.913 38.8843 106.982 38.9603 107.033C54.4765 117.509 54.4622 117.755 56.7776 118.678C58.9499 119.543 65.5466 122.173 71.2552 119C72.5484 118.266 73.702 117.31 74.6627 116.175C75.2854 115.576 75.7907 114.866 76.1526 114.082C77.6387 110.808 76.4313 106.673 72.556 101.78C72.4656 101.668 72.3684 101.561 72.2758 101.451C72.3925 101.436 70.908 102.033 92.688 93.1068C91.9295 96.7605 90.9885 100.374 89.8687 103.934C89.58 104.578 89.4775 105.29 89.5727 105.989C89.6679 106.689 89.9569 107.347 90.4072 107.891C91.714 109.593 92.7121 111.682 93.6671 112.917C93.2147 113.664 92.9386 114.504 92.8597 115.374C91.9393 115.889 91.1439 117.784 91 119.032C89.7248 133.322 89.7564 136.235 89.7564 136.235C89.779 138.147 89.8054 141.314 89.8054 145.333C99.1739 146.06 103.721 146.131 112.951 146.282C119.353 146.387 122.612 146.439 125.189 146.332C129.87 146.141 133.694 145.699 136.239 145.348C137.073 135.065 137.711 127.549 137.975 124.919C138.085 123.697 137.969 122.465 137.632 121.285C137.464 120.661 137.119 119.446 136.469 118.974V116.441C137.737 115.516 138.873 114.422 139.845 113.19C141.333 111.433 141.653 110.521 141.67 109.693C141.65 108.803 141.367 107.938 140.857 107.208C140.187 106.051 138.145 102.53 137.693 99.7848C137.441 98.2897 137.877 98.1661 138.236 94.9273C138.387 93.5715 138.493 91.9996 138.252 86.5433C138.076 82.5761 137.8 78.4838 137.434 74.3728C142.188 69.9431 143.145 68.2265 143.714 66.8467C144.321 65.2527 144.689 63.5773 144.804 61.8754C144.981 58.367 142.735 54.6837 142.283 53.9802ZM25.6193 144.938V97.7828L32.1354 101.453V145.276C31.0402 145.304 30.049 145.22 25.6193 144.938ZM129.391 31.4033L129.07 32.4149L128.473 32.3305L128.742 31.1532C128.96 31.2331 129.177 31.3137 129.391 31.4033ZM125.173 7.75233C125.403 7.84723 125.33 8.04005 126.275 8.8942C127.683 10.1634 127.726 9.44631 127.856 11.8114C127.888 12.3778 127.89 12.8441 127.886 13.1574C127.885 13.2069 127.894 13.256 127.912 13.3019C127.931 13.3479 127.958 13.3898 127.992 13.4253C128.027 13.4607 128.068 13.489 128.113 13.5086C128.159 13.5282 128.208 13.5386 128.257 13.5393C128.307 13.5425 128.357 13.5351 128.404 13.5177C128.451 13.5004 128.494 13.4733 128.53 13.4383C128.566 13.4033 128.595 13.3612 128.613 13.3146C128.632 13.2681 128.641 13.2181 128.639 13.1679C128.649 12.4381 128.609 11.6254 128.559 10.9836C129.404 11.6246 129.596 11.8626 129.602 12.6008C129.585 13.4266 129.496 14.2494 129.336 15.06C129.327 15.1086 129.327 15.1586 129.336 15.2071C129.346 15.2557 129.365 15.3019 129.393 15.343C129.42 15.3842 129.456 15.4195 129.497 15.447C129.538 15.4745 129.584 15.4936 129.633 15.5032C129.681 15.5128 129.731 15.5127 129.78 15.503C129.828 15.4933 129.875 15.474 129.916 15.4465C129.957 15.4189 129.992 15.3834 130.019 15.3422C130.047 15.301 130.066 15.2547 130.075 15.2062C130.195 14.582 130.275 13.9511 130.317 13.3171C130.417 13.3436 130.51 13.3911 130.59 13.4564C130.643 13.5122 130.752 13.7427 130.642 14.6992C130.574 15.278 130.456 15.85 130.292 16.409C130.263 16.5048 130.274 16.608 130.322 16.6958C130.369 16.7835 130.45 16.8488 130.546 16.8772C130.642 16.9055 130.745 16.8947 130.832 16.847C130.92 16.7993 130.985 16.7187 131.014 16.623C131.058 16.4723 131.089 16.3164 131.128 16.1635C131.168 16.2462 131.199 16.3331 131.219 16.4226C131.244 16.6767 131.192 16.9324 131.069 17.1562C130.69 17.9815 130.398 18.8441 130.197 19.73C129.78 21.2471 129.267 22.736 128.659 24.1875C128.584 24.3939 128.704 26.054 128.265 30.2027C126.594 29.6859 124.853 29.4318 123.104 29.4495C123.104 28.29 123.1 27.1316 123.092 25.9741C123.091 25.8781 123.053 25.7859 122.987 25.7165C122.551 25.2628 122.198 24.7371 121.942 24.1626C121.578 23.3529 121.462 22.5244 121.972 18.4382C122.069 17.0488 122.313 15.6735 122.7 14.3354C123.056 13.2867 123.542 12.2865 124.146 11.358C124.191 11.2883 124.212 11.2057 124.206 11.1229C124.199 11.0402 124.165 10.9619 124.11 10.9003C124.054 10.8387 123.979 10.7972 123.898 10.7823C123.816 10.7674 123.732 10.7799 123.658 10.8179C122.893 11.2149 122.029 11.3781 121.172 11.2872C120.357 11.225 119.578 10.9208 118.936 10.4134C119.093 10.2477 120.141 10.0783 121.631 9.40187C123.737 8.44528 124.52 7.49247 125.17 7.74856L125.173 7.75233ZM128.026 30.925L127.725 32.2288L126.234 32.0187L126.429 30.5168C126.967 30.6234 127.499 30.7584 128.022 30.9213L128.026 30.925ZM125.691 30.3827L125.492 31.914L124.254 31.7392L124.203 30.2328C124.697 30.2547 125.193 30.3036 125.686 30.3789L125.691 30.3827ZM123.496 31.6323L122.161 31.444V30.2388C122.589 30.2042 123.018 30.2012 123.448 30.2034L123.496 31.6323ZM100.079 19.3398C99.8445 18.9921 99.6834 18.6006 99.605 18.1889C99.5265 17.7773 99.5323 17.3539 99.6221 16.9446C99.9572 14.1208 102.348 9.66173 106.116 6.95844C106.38 6.77088 112.638 2.37963 119.458 4.95111C120.972 5.53174 122.365 6.38835 123.566 7.4774C122.848 7.94116 122.099 8.35611 121.324 8.71946C119.331 9.62708 118.268 9.50657 118.211 10.3133C118.143 11.297 120.055 11.9229 121.097 12.0396C121.72 12.1055 122.349 12.0567 122.954 11.8958C122.571 12.6003 122.249 13.3363 121.991 14.0959C121.592 15.4834 121.336 16.9082 121.228 18.3478C120.726 22.3715 120.799 23.4509 121.258 24.4707C121.466 24.9208 121.728 25.3444 122.037 25.7323C121.455 25.8264 120.862 25.8385 120.277 25.7685C119.176 21.1882 121.358 18.802 119.936 16.6938C119.53 16.1353 118.97 15.7069 118.324 15.4607C115.395 14.3159 112.891 17.34 108.403 18.9255C105.334 20.0102 101.312 20.7724 100.074 19.336L100.079 19.3398ZM112.518 42.7076C109.053 42.8778 106.336 38.6493 105.18 36.8513C104.501 35.9464 104.012 34.913 103.744 33.8136C103.405 32.1565 103.963 31.3973 103.247 30.0837C103.005 29.655 102.683 29.2768 102.298 28.9697C101.923 28.6823 101.628 28.3034 101.441 27.8692C101.191 27.2371 101.093 26.5547 101.156 25.8777C101.188 24.1401 101.117 22.4022 100.943 20.673C103.386 21.3547 107.3 20.1073 108.65 19.6275C113.125 18.0458 115.546 15.1783 118.046 16.1552C118.552 16.3463 118.992 16.6805 119.313 17.1171C120.476 18.8419 118.35 21.4172 119.604 26.1941C119.623 26.2641 119.661 26.3274 119.714 26.3763C119.768 26.4252 119.834 26.4576 119.905 26.4697C120.712 26.6023 121.536 26.5893 122.338 26.4313C122.345 27.4442 122.348 28.4582 122.349 29.4736C122.145 29.4856 121.943 29.4939 121.74 29.5142C121.647 29.5236 121.561 29.5674 121.498 29.637C121.435 29.7067 121.401 29.7972 121.401 29.8909V31.334L121.163 31.3009C121.112 31.2937 121.06 31.2972 121.01 31.311C120.961 31.3248 120.914 31.3487 120.874 31.3812C120.834 31.4137 120.801 31.4541 120.777 31.4999C120.753 31.5457 120.739 31.5959 120.735 31.6474C120.624 33.2133 120.493 34.8048 120.359 36.4009C119.356 38.1583 117.99 39.6818 116.352 40.8697C114.924 41.9016 113.892 42.6466 112.518 42.7076ZM113.03 44.9062C113.087 44.8778 113.137 44.8353 113.173 44.7825C113.209 44.7298 113.232 44.6687 113.238 44.6049L113.345 43.3531C114.611 42.9745 115.785 42.338 116.793 41.4836C118.114 40.5264 119.269 39.3599 120.213 38.0301C120.07 39.6028 119.131 48.7258 118.84 51.1022C115.191 51.6016 112.248 49.4602 110.907 45.9645L113.03 44.9062ZM118.744 51.8659C118.662 52.5137 118.577 53.1539 118.486 53.7987C118.071 53.8214 117.655 53.8144 117.241 53.7776L117.403 51.9074C117.851 51.9288 118.299 51.9145 118.744 51.8644V51.8659ZM116.655 51.8223L116.495 53.6706C115.91 53.5781 115.341 53.4074 114.802 53.163L115.274 51.4961C115.724 51.6457 116.186 51.7546 116.655 51.8215V51.8223ZM113.543 50.6231C113.87 50.8456 114.214 51.0415 114.572 51.2091L114.113 52.8293C113.646 52.5739 113.205 52.2743 112.795 51.9345L113.543 50.6231ZM112.223 51.4178C111.876 51.0754 111.554 50.7087 111.26 50.3203L112.119 49.3743C112.373 49.6555 112.647 49.9187 112.938 50.1622L112.223 51.4178ZM110.956 47.785C111.16 48.1345 111.384 48.4711 111.629 48.7928L110.815 49.6907C110.561 49.3041 110.328 48.9038 110.119 48.4915L110.956 47.785ZM110.113 45.9826C110.251 46.3666 110.411 46.7425 110.591 47.1086L109.789 47.7865C109.602 47.3593 109.438 46.9223 109.298 46.4774C109.569 46.308 109.843 46.149 110.113 45.9811V45.9826ZM70.4041 94.4023C70.5949 94.691 70.7817 94.9823 70.9644 95.276L70.2504 95.6406C70.0915 95.38 69.9393 95.1134 69.7698 94.8603L70.4041 94.4023ZM71.2936 97.5455C71.0927 97.1192 70.8751 96.6996 70.6406 96.2869L71.3554 95.9223C71.5843 96.3095 71.8063 96.7001 72.0212 97.0943L71.2936 97.5455ZM72.3737 97.7617C72.8452 98.6716 72.7247 98.4486 72.8836 98.7785L72.022 99.2696C71.8917 98.9224 71.7463 98.5819 71.5986 98.2422L72.3737 97.7617ZM65.5789 93.0714C65.8542 93.1691 66.1071 93.3207 66.3231 93.5173C67.1519 94.1193 67.8868 94.841 68.5037 95.6587C68.5585 95.7315 68.6379 95.7819 68.7271 95.8006C68.8163 95.8193 68.9093 95.805 68.9888 95.7604L69.3187 95.5758C70.3739 97.2106 71.1944 98.9854 71.7561 100.848C70.0233 98.9513 67.9381 97.4095 65.6166 96.3087C65.5497 96.2782 65.4756 96.2669 65.4027 96.2763C63.2319 96.5829 62.6045 97.2276 61.7481 97.2171C61.3719 97.2216 61.0013 97.1254 60.6748 96.9384C60.8548 96.7539 61.5146 96.3961 62.1691 95.9208C64.2797 94.391 64.7715 92.9561 65.5789 93.0714ZM40.4373 75.8107C41.159 73.488 42.3989 71.3596 44.0633 69.5861C46.5278 67.2105 48.9246 66.0151 51.2083 66.0151C55.1477 66.0151 57.5602 69.3119 58.9747 72.968C59.5691 74.7061 59.8873 76.5267 59.9178 78.3633C60.0357 80.2865 60.0052 82.216 59.8266 84.1345C59.8266 84.1345 59.5359 89.4883 59.4327 91.9363L38.9761 83.3993C39.0859 80.8115 39.5783 78.2542 40.4373 75.8107ZM38.9354 84.1985L58.9476 92.5494L39.1192 104.216C39.0107 100.127 38.7637 88.2952 38.9354 84.1985ZM75.4664 113.77C73.96 117.089 69.7954 118.059 68.2288 118.424C63.0082 119.64 58.4821 117.513 55.4851 116.105C52.7735 114.824 41.8391 106.705 39.4265 104.909L59.7679 92.9403L62.3785 94.7985C60.8826 96.079 59.7649 96.2628 59.905 97.0582C60.0277 97.7466 61.15 97.968 61.7315 97.9741C62.3915 97.9289 63.0366 97.7573 63.6319 97.4687C64.207 97.2759 64.7977 97.1332 65.3974 97.0423C67.9496 98.2705 70.1959 100.052 71.973 102.258C76.5548 108.042 76.4019 111.711 75.4664 113.77ZM72.4664 100.555C72.4084 100.365 72.3353 100.178 72.272 99.9927L73.2068 99.4602C73.2979 99.659 73.3883 99.8684 73.4787 100.076L72.4664 100.555ZM93.625 115.264C93.7078 114.652 93.9029 114.061 94.2004 113.52C94.5194 113.827 94.8622 114.107 95.2255 114.359L94.7864 116.085C94.4339 115.834 94.1944 115.407 93.625 115.264ZM97.6855 117.659C96.7139 117.174 95.9772 116.794 95.4583 116.499L95.8914 114.796C96.5777 115.21 97.2903 115.579 98.0245 115.901L97.6855 117.659ZM98.3853 118.006L98.734 116.203C99.8958 116.672 101.081 117.081 102.285 117.427L101.886 119.713C100.52 119.052 99.3522 118.483 98.3815 118.006H98.3853ZM109.623 122.054C108.65 121.899 107.589 121.692 106.503 121.41V118.473C107.55 118.691 108.633 118.886 109.742 119.06L109.623 122.054ZM105.749 121.206C104.67 120.897 103.614 120.509 102.592 120.044L103.013 117.634C103.889 117.875 104.803 118.1 105.749 118.312V121.206ZM110.372 122.165L110.489 119.173C111.538 119.324 112.606 119.46 113.685 119.572L113.566 122.479C112.873 122.438 111.736 122.354 110.368 122.165H110.372ZM114.32 122.518L114.437 119.644C115.576 119.75 116.725 119.832 117.875 119.887L118.122 122.512C116.847 122.57 115.571 122.576 114.316 122.518H114.32ZM118.875 122.472L118.635 119.917C121.024 120.006 121.976 119.954 122.798 119.935L123.43 122.005C121.953 122.215 120.42 122.378 118.871 122.473L118.875 122.472ZM124.184 121.892L123.581 119.918C125.091 119.879 126.598 119.761 128.095 119.564L128.472 121.08C127.147 121.376 125.702 121.657 124.18 121.892H124.184ZM128.84 119.441C130.028 119.231 131.197 118.926 132.337 118.531L132.595 119.996C131.647 120.289 130.496 120.604 129.205 120.911L128.84 119.441ZM133.318 119.763L133.054 118.262C133.979 117.899 134.87 117.457 135.718 116.939V118.807C134.962 119.229 134.154 119.55 133.314 119.762L133.318 119.763ZM137.488 94.8422C137.133 98.0441 136.669 98.2392 136.951 99.9076C137.43 102.787 139.521 106.397 140.226 107.616C140.653 108.22 140.895 108.936 140.92 109.675C140.907 110.254 140.694 111.021 139.274 112.703C138.3 113.947 137.149 115.042 135.859 115.953C133.081 117.694 129.921 118.732 126.652 118.978C114.078 120.131 98.1051 116.996 94.4143 112.651C93.5572 111.64 92.3596 109.196 91.0075 107.433C90.638 106.994 90.4003 106.46 90.3222 105.892C90.2441 105.324 90.3287 104.745 90.5661 104.224C91.6613 101.495 94.6674 88.1453 95.6609 82.5188C96.1881 79.5489 96.0375 79.0186 96.9602 72.9741C97.4874 69.5183 98.0855 66.0505 98.7325 62.6693C98.7432 62.6202 98.744 62.5694 98.7348 62.5199C98.7255 62.4705 98.7065 62.4234 98.6788 62.3814C98.651 62.3395 98.6152 62.3035 98.5733 62.2756C98.5314 62.2477 98.4844 62.2285 98.435 62.2191C98.3856 62.2097 98.3348 62.2103 98.2856 62.2208C98.2364 62.2314 98.1899 62.2516 98.1487 62.2805C98.1074 62.3093 98.0724 62.3461 98.0457 62.3887C98.0189 62.4313 98.0009 62.4788 97.9929 62.5285C97.3436 65.9179 96.7455 69.3948 96.2153 72.8603C94.9227 81.3084 95.7965 79.2627 92.8928 92.2112C88.8187 93.8818 76.313 98.9246 74.1754 99.7765C73.256 97.717 72.1766 95.7328 70.9471 93.8419C74.3697 91.5424 87.4426 82.8781 90.5066 80.873C90.5522 80.8432 90.5907 80.8039 90.6196 80.7577C90.6485 80.7115 90.667 80.6597 90.6739 80.6057C91.1913 76.4735 92.5569 66.116 94.0633 59.1706C94.2806 57.9844 94.7024 56.8449 95.3099 55.803C97.2299 52.5883 99.9603 52.1356 108.636 46.8751C110.102 51.3598 113.563 54.741 118.379 54.5579C118.272 55.2953 118.157 56.0455 118.031 56.8311C117.136 62.42 116.977 68.1098 116.12 73.7228C115.817 75.2504 115.99 76.8341 116.614 78.2609C117.607 80.14 119.288 81.5633 121.305 82.2341C124.213 83.1523 126.985 81.9419 129.66 80.6109C131.781 79.5564 133.524 77.992 136.731 75.0228C137.097 79.2461 137.955 90.6219 137.485 94.8422H137.488ZM144.054 61.8302C143.943 63.451 143.593 65.0466 143.016 66.565C141.919 69.2291 138.651 72.2209 136.284 74.4135C133.081 77.3796 131.373 78.9192 129.315 79.9436C127.108 81.0403 124.365 82.4066 121.556 81.5253C119.729 80.9209 118.204 79.6373 117.296 77.94C116.731 76.6397 116.582 75.1962 116.87 73.8079C117.721 68.2499 117.891 62.4682 118.777 56.9517C119.505 52.3977 119.861 49.0015 120.506 42.8349C120.726 40.7424 121.355 33.5703 121.461 32.1046L129.553 33.2434C130.211 44.0084 130.44 54.6604 130.201 65.5775C130.199 65.6774 130.237 65.774 130.306 65.8462C130.375 65.9184 130.47 65.9602 130.569 65.9624C130.669 65.9646 130.766 65.927 130.838 65.8579C130.91 65.7889 130.952 65.6939 130.954 65.5941C130.964 65.1534 130.967 64.709 130.975 64.2669C131.802 64.926 132.46 65.7713 132.898 66.7337C132.918 66.7794 132.946 66.8207 132.982 66.8552C133.018 66.8898 133.061 66.9168 133.107 66.9348C133.154 66.9528 133.203 66.9614 133.253 66.96C133.303 66.9587 133.352 66.9475 133.397 66.927C133.443 66.9066 133.484 66.8773 133.518 66.841C133.552 66.8046 133.579 66.7618 133.596 66.715C133.613 66.6683 133.621 66.6186 133.619 66.5688C133.617 66.519 133.606 66.4701 133.585 66.4249C133.02 65.1766 132.122 64.1081 130.99 63.3367C131.08 57.6122 131.052 51.8275 130.889 46.088C132.908 46.9982 134.821 48.1261 136.594 49.4519C138.58 50.7611 140.298 52.4374 141.655 54.3907C141.914 54.8005 144.221 58.4897 144.05 61.8302H144.054Z" fill="black"/>
<path id="Vector_22" d="M78.309 60.7919C78.1921 60.3641 77.9868 59.9656 77.7064 59.6221C77.7961 59.5556 77.8644 59.4643 77.9028 59.3595C77.9412 59.2546 77.948 59.1408 77.9224 59.0321C77.8969 58.9233 77.8401 58.8245 77.759 58.7477C77.6779 58.6709 77.5761 58.6196 77.4661 58.6C77.726 57.8286 77.7563 56.9984 77.5535 56.2101C77.4684 55.8644 77.2597 55.2738 76.8003 55.264C76.3408 55.2542 76.093 55.8222 75.9913 56.0722C75.7841 56.6607 75.7376 57.2938 75.8565 57.9063C75.6711 57.6536 75.4484 57.4306 75.1959 57.245C74.7764 56.9512 73.7136 56.4714 73.2873 56.9437C72.8828 57.3919 73.3822 58.1873 73.5441 58.4193C73.915 58.9246 74.4459 59.2896 75.0505 59.4549C74.8434 59.5099 74.6333 59.5566 74.4321 59.6282C74.338 59.6615 74.2609 59.7309 74.2179 59.8211C74.1749 59.9113 74.1694 60.0149 74.2028 60.1091C74.2362 60.2033 74.3056 60.2804 74.3958 60.3234C74.4859 60.3664 74.5895 60.3718 74.6837 60.3385C74.8434 60.2827 75.0084 60.2466 75.1718 60.2014C74.8885 60.8126 74.784 61.4916 74.8705 62.1597C74.9925 62.974 75.2426 63.3958 75.6358 63.4477C76.2308 63.5178 76.6315 62.6448 76.8289 62.0784C76.8567 61.9948 76.8733 61.9082 76.8959 61.823C76.9132 61.8396 76.9253 61.8584 76.9434 61.8735C77.2688 62.1469 77.7531 62.3744 78.1124 62.1402C78.5779 61.8396 78.3828 61.0819 78.309 60.7919ZM76.7618 56.1905C77.0049 56.9253 76.9975 57.72 76.7408 58.4501C76.4642 57.7209 76.4717 56.9144 76.7618 56.1905ZM74.1625 57.9907C74.0578 57.8417 73.9737 57.6793 73.9124 57.5079C74.2671 57.5749 74.5996 57.7289 74.8802 57.9559C75.1608 58.1829 75.3808 58.4759 75.5205 58.8087C74.98 58.7196 74.494 58.4269 74.1625 57.9907ZM76.1163 61.8396C76.0251 62.1072 75.9006 62.3623 75.7458 62.5989C75.6824 62.4197 75.6382 62.2344 75.6139 62.046C75.5394 61.4032 75.6775 60.7537 76.0071 60.1969C76.0871 60.2062 76.1676 60.2105 76.2482 60.2097C76.3345 60.7557 76.2893 61.3145 76.1163 61.8396ZM77.43 61.3041C77.2862 61.1342 77.1821 60.9345 77.125 60.7194C77.068 60.5044 77.0594 60.2793 77.1 60.0605C77.3258 60.329 77.4901 60.6437 77.5813 60.9825C77.6256 61.1361 77.6524 61.2943 77.6612 61.454C77.5784 61.4138 77.501 61.3634 77.4307 61.3041H77.43Z" fill="black"/>
<path id="Vector_23" d="M144.43 145.613H138.622C138.522 145.613 138.427 145.573 138.356 145.502C138.285 145.432 138.246 145.336 138.246 145.236C138.246 145.136 138.285 145.04 138.356 144.97C138.427 144.899 138.522 144.859 138.622 144.859H144.43C144.53 144.859 144.626 144.899 144.697 144.97C144.767 145.04 144.807 145.136 144.807 145.236C144.807 145.336 144.767 145.432 144.697 145.502C144.626 145.573 144.53 145.613 144.43 145.613Z" fill="black"/>
<path id="Vector_24" d="M87.2385 145.613H38.7494C38.6495 145.613 38.5537 145.573 38.4831 145.502C38.4125 145.432 38.3728 145.336 38.3728 145.236C38.3728 145.136 38.4125 145.04 38.4831 144.97C38.5537 144.899 38.6495 144.859 38.7494 144.859H87.2385C87.3383 144.859 87.4341 144.899 87.5048 144.97C87.5754 145.04 87.6151 145.136 87.6151 145.236C87.6151 145.336 87.5754 145.432 87.5048 145.502C87.4341 145.573 87.3383 145.613 87.2385 145.613Z" fill="black"/>
<path id="Vector_25" d="M22.5423 145.613H12.6127C12.5128 145.613 12.417 145.573 12.3464 145.502C12.2758 145.432 12.2361 145.336 12.2361 145.236C12.2361 145.136 12.2758 145.04 12.3464 144.97C12.417 144.899 12.5128 144.859 12.6127 144.859H22.5423C22.6422 144.859 22.738 144.899 22.8086 144.97C22.8793 145.04 22.9189 145.136 22.9189 145.236C22.9189 145.336 22.8793 145.432 22.8086 145.502C22.738 145.573 22.6422 145.613 22.5423 145.613Z" fill="black"/>
<path id="Vector_26" d="M109.208 146.927C108.581 142.786 108.267 138.602 108.27 134.413C104.797 132.07 101.626 129.306 98.8297 126.186C98.7648 126.112 98.7318 126.014 98.7379 125.916C98.744 125.817 98.7886 125.725 98.8622 125.659C98.9358 125.593 99.0324 125.558 99.1311 125.563C99.2299 125.567 99.3229 125.61 99.3901 125.683C102.189 128.807 105.369 131.567 108.856 133.9C108.907 133.934 108.949 133.981 108.979 134.035C109.008 134.09 109.023 134.151 109.023 134.213C109.008 138.429 109.319 142.641 109.952 146.809L109.208 146.927Z" fill="white"/>
<path id="Vector_27" d="M125.251 142.504C125.154 142.504 125.061 142.467 124.991 142.4C124.921 142.334 124.879 142.242 124.874 142.146C124.598 136.319 124.046 130.343 123.162 124.214C123.148 124.115 123.174 124.015 123.233 123.935C123.293 123.855 123.382 123.802 123.481 123.788C123.579 123.775 123.679 123.802 123.758 123.861C123.838 123.921 123.892 124.009 123.908 124.107C124.769 130.1 125.344 136.143 125.626 142.109C125.63 142.208 125.595 142.306 125.528 142.379C125.461 142.453 125.368 142.497 125.268 142.502L125.251 142.504Z" fill="white"/>
<path id="Vector_28" d="M128.392 147.255C128.292 147.255 128.196 147.215 128.126 147.144C128.055 147.074 128.015 146.978 128.015 146.878C128.08 138.97 127.528 131.07 126.365 123.248C126.351 123.15 126.376 123.049 126.435 122.969C126.494 122.889 126.583 122.836 126.682 122.821C126.78 122.806 126.881 122.831 126.961 122.891C127.041 122.95 127.095 123.039 127.109 123.138C128.278 130.998 128.832 138.938 128.766 146.884C128.765 146.982 128.725 147.076 128.655 147.146C128.585 147.215 128.491 147.254 128.392 147.255Z" fill="white"/>
</g>
</g>
</svg>
