<svg width="151" height="151" viewBox="0 0 151 151" fill="none" xmlns="http://www.w3.org/2000/svg">
<g id="Ok-Sign--Streamline-London">
<g id="Ok-Sign--Streamline-London.svg">
<path id="Vector" fill-rule="evenodd" clip-rule="evenodd" d="M47.0537 70.7076C45.4524 69.2961 60.7841 91.4648 62.0947 91.3729C65.3811 84.9448 69.0861 78.7395 73.1858 72.7971C75.7083 69.2841 79.8759 66.3759 83.5169 64.3565C86.6157 70.2489 83.3542 95.6903 81.8598 98.4365C81.3944 99.2892 71.641 119.125 63.8301 117.601C53.7604 115.635 38.8354 76.4381 37.9617 73.7536C37.0879 71.0692 36.6239 70.0569 33.8107 67.0545C30.9974 64.0522 29.4948 55.8414 29.3991 52.6847C29.3034 49.5279 29.7516 47.8294 30.5688 48.0554C30.8635 46.6562 31.268 45.2823 31.7785 43.9466C32.1965 43.0812 32.6929 42.8966 33.1268 43.4864C33.66 42.5072 34.1059 41.6727 34.6784 41.693C36.1344 41.745 35.47 43.7206 35.4926 45.905C35.5166 47.3205 35.6855 48.7298 35.9965 50.1109C36.1757 49.6874 36.444 49.3075 36.783 48.9968C37.1221 48.6862 37.5241 48.4522 37.9617 48.3107C39.447 48.3062 41.0129 48.1661 41.8633 48.2354C42.1033 48.2306 42.3403 48.2895 42.55 48.4062C42.7598 48.5229 42.9348 48.6933 43.0572 48.8998C43.0572 48.8998 45.6023 49.5551 45.9947 50.5983C46.2621 51.3146 46.192 52.6372 46.3834 53.9877C46.7549 55.9015 47.002 57.8373 47.123 59.783C47.0748 61.5335 46.0369 63.0753 45.5661 64.7994C45.3618 66.8817 45.8877 68.9704 47.0537 70.7076ZM42.9329 51.6498C42.5028 51.7846 41.4423 50.9786 41.2155 50.2563C40.4084 50.6335 39.5038 50.7499 38.6275 50.5892C38.326 51.6398 38.1047 52.7116 37.9654 53.7957C38.409 54.2391 38.786 54.7445 39.0847 55.2961C39.4515 56.0553 40.6943 56.8485 41.3677 56.3656C43.314 54.9692 42.9329 51.6498 42.9329 51.6498Z" fill="#FFD997"/>
<path id="Vector_2" fill-rule="evenodd" clip-rule="evenodd" d="M83.7011 113.517L119.123 112.863C119.123 112.863 119.469 91.5883 119.14 78.4996C118.839 66.6651 122.922 62.7777 122.922 62.7777C120.579 61.511 118.103 60.5067 115.54 59.783C115.202 62.6346 109.334 67.3558 99.3529 67.6164C89.372 67.877 87.4898 62.4245 87.4898 62.4245L83.2868 64.4755C83.2868 64.4755 84.5108 72.3217 83.5128 75.5192C82.5148 78.7166 81.1966 81.8401 80.2129 84.1653C79.2292 86.4905 77.2001 91.7314 79.1584 95.3687C81.3044 99.3517 84.3782 99.146 84.3782 99.146C82.4693 103.707 82.2295 108.796 83.7011 113.517Z" fill="white"/>
<path id="Vector_3" fill-rule="evenodd" clip-rule="evenodd" d="M102.216 108.828L87.4891 82.1592L114.175 70.1921L132.84 102.09L129.278 104.547L102.216 108.828Z" fill="white"/>
<path id="Vector_4" fill-rule="evenodd" clip-rule="evenodd" d="M100.712 109.557L102.218 108.827L87.4911 82.1587L86.7657 83.7615L100.712 109.557Z" fill="#81F8F8"/>
<path id="Vector_5" fill-rule="evenodd" clip-rule="evenodd" d="M143.471 100.645C142.812 94.0453 138.048 76.9104 130.201 68.2612C128.106 66.0297 125.644 64.1748 122.921 62.7778C122.792 62.9044 118.847 66.8595 119.14 78.4997C119.146 78.7784 118.117 76.9293 132.84 102.09L129.277 104.547C126.28 104.433 123.587 104.388 122.589 104.125C120.202 103.497 118.151 103.23 115.556 101.112C112.962 98.994 111.015 97.8513 107.312 98.2603C103.608 98.6693 101.568 101.03 100.161 101.794C98.753 102.557 97.7429 103.352 98.9676 103.881C100.192 104.41 101.729 103.602 104.001 102.444C106.272 101.285 107.551 101.615 108.121 102.018C108.692 102.421 107.176 104.301 105.549 106.358C103.922 108.415 102.652 108.708 100.976 109.238C99.3006 109.769 98.176 111.464 101.946 112.493L101.967 112.499C101.967 112.499 102.31 113.734 104.428 114.368C105.286 116.345 105.728 116.176 105.801 116.35C106.51 117.079 107.398 117.609 108.376 117.887C109.354 118.165 110.388 118.18 111.375 117.932C114.846 117.096 115.052 115.98 117.525 114.221C119.999 112.461 123.226 115.813 128.205 117.978C132.935 120.034 136.451 120.927 139.255 120.62C144.957 120.002 144.046 106.4 143.471 100.645Z" fill="#FFD997"/>
<path id="Vector_6" fill-rule="evenodd" clip-rule="evenodd" d="M92.0177 56.7384C91.7458 56.7595 91.4905 56.7678 91.2427 56.7633C88.3805 56.706 87.683 53.2277 85.3827 50.2818C83.0823 47.336 81.9096 46.5632 81.3718 43.6023C80.834 40.6414 82.9083 38.0594 82.9083 38.0594C82.9083 38.0594 81.3575 36.4249 81.2468 32.9933C81.136 29.5616 82.0519 23.2722 88.5191 20.3031C93.8556 17.8529 103.866 16.8774 109.888 25.0393C113.626 30.1062 110.77 38.4767 110.77 38.4767C111.132 38.3748 111.512 38.3469 111.885 38.3946C112.258 38.4424 112.618 38.5648 112.944 38.7545C113.269 38.9443 113.552 39.1975 113.778 39.4991C114.003 39.8008 114.165 40.1447 114.255 40.5104C115.19 43.3093 112.291 48.7008 107.341 49.323V57.9014C110.149 58.2859 112.918 58.9116 115.618 59.7716C115.618 59.7716 114.013 66.8963 99.8625 67.4762C89.1668 67.9139 87.5851 62.3544 87.5851 62.3544L92.2121 60.5323C91.9552 55.5958 92.008 56.9907 92.0177 56.7384Z" fill="#FFD997"/>
<path id="Vector_7" fill-rule="evenodd" clip-rule="evenodd" d="M85.0988 18.6958C85.0484 17.1231 84.0767 18.4811 83.4568 17.4108C82.8369 16.3405 85.2517 15.9797 85.9741 14.9659C86.6964 13.9521 84.3577 14.5727 83.9125 13.4775C83.4674 12.3823 84.4857 11.9169 85.541 11.2352C86.5962 10.5535 85.4558 10.3313 85.9741 8.8588C86.4923 7.38626 87.7818 8.25623 89.1067 7.70412C90.4316 7.15201 88.3693 6.88312 90.0814 5.65462C91.7934 4.42612 93.1876 6.97049 94.8183 6.55848C96.449 6.14647 94.0372 5.53411 95.8306 4.16476C97.6241 2.79541 99.4657 5.4038 100.848 5.60039C102.23 5.79698 101.014 4.92249 102.635 4.56095C104.257 4.19941 105.178 5.22905 105.265 6.80102C105.353 8.37298 106.551 7.64914 107.699 8.93638C108.847 10.2236 107.344 11.5064 107.344 11.5064C107.987 11.657 108.125 12.0555 108.603 11.7805C109.269 11.3971 108.845 9.52992 110.231 9.23164C111.616 8.93337 111.101 10.3615 112.179 9.83422C113.034 9.31724 114.034 9.09153 115.029 9.19097C116.774 9.1518 115.453 11.0876 116.692 10.8978C117.932 10.7079 118.096 9.87866 119.172 10.3562C120.248 10.8337 118.952 12.1865 119.866 12.3665C120.779 12.5465 121.222 11.5749 122.303 12.6972C123.385 13.8195 121.066 15.4773 122.199 15.8276C123.332 16.1778 123.654 15.7379 124.423 16.5454C125.193 17.3528 123.725 18.6898 124.445 19.3797C125.165 20.0697 125.379 19.3797 125.545 20.9042C125.711 22.4287 124.658 22.3813 125.205 23.2874C125.753 24.1935 126.236 23.8358 126.096 24.8692C125.955 25.9026 124.79 25.9116 125.183 27.2041C125.575 28.4967 125.452 29.2288 124.311 30.1522C123.171 31.0757 123.153 30.2275 122.318 31.0041C121.484 31.7807 120.269 30.3262 119.246 32.0933C118.223 33.8603 118.31 33.1327 117.388 33.0416C116.466 32.9504 116.952 32.8472 115.599 34.0961C114.246 35.3449 114.498 34.4727 113.455 33.8445C113.185 33.6627 112.857 33.5854 112.534 33.627C112.21 33.6686 111.913 33.8262 111.697 34.0705L111.658 34.0222C111.456 35.524 111.159 37.0115 110.77 38.476C109.982 38.5664 108.529 42.0568 105.462 41.6968C102.395 41.3367 103.745 31.6873 101.74 26.1903C99.7346 20.6933 92.0902 22.1312 92.0902 22.1312C92.5565 21.2336 93.1068 20.3822 93.7337 19.5884C92.5277 20.1851 91.4979 21.0856 90.7457 22.2013C84.268 23.0675 82.8678 25.5365 82.8678 25.5365C83.839 23.8392 85.1653 22.3717 86.7559 21.2341C84.6612 21.0473 85.1493 20.2617 85.0988 18.6958Z" fill="#81F8F8"/>
<path id="Vector_8" fill-rule="evenodd" clip-rule="evenodd" d="M86.4511 38.3782C85.4953 37.2258 84.7654 36.7475 84.2156 36.8379C83.6258 36.935 83.2153 37.8841 83.2153 37.8841C83.2153 37.8841 83.2907 38.8068 85.0713 38.8942C85.5684 38.8455 86.0441 38.6676 86.4511 38.3782Z" fill="white"/>
<path id="Vector_9" fill-rule="evenodd" clip-rule="evenodd" d="M97.549 37.4773C97.7327 37.5692 97.805 38.0889 97.0051 38.5642C95.461 39.4808 92.4105 38.5642 92.4105 38.5642C92.4105 38.5642 93.3792 35.3909 97.549 37.4773Z" fill="white"/>
<path id="Vector_10" d="M117.05 52.3735C117 52.3681 116.95 52.3728 116.903 52.3873C116.855 52.4018 116.811 52.4257 116.773 52.4578C116.735 52.4898 116.704 52.5292 116.681 52.5736C116.659 52.618 116.645 52.6665 116.642 52.7162C116.465 54.7838 111.461 55.7788 110.484 53.4144C112.878 52.6303 114.188 49.7395 112.427 49.0654C111.072 48.5472 109.391 50.7978 109.584 52.848C109.222 52.9283 108.845 52.8928 108.504 52.7465C108.164 52.6002 107.879 52.3506 107.688 52.033C107.644 51.9445 107.568 51.8767 107.475 51.8441C107.382 51.8114 107.279 51.8166 107.19 51.8586C107.101 51.9005 107.032 51.9758 106.997 52.0683C106.963 52.1608 106.966 52.2631 107.006 52.3532C107.271 52.8243 107.68 53.1981 108.173 53.42C108.666 53.6419 109.217 53.7001 109.745 53.5862C110.9 56.8137 117.145 55.6831 117.393 52.7802C117.401 52.6809 117.369 52.5823 117.305 52.506C117.241 52.4298 117.149 52.3821 117.05 52.3735ZM110.321 52.6748C110.3 51.9212 110.519 51.1805 110.946 50.559C111.205 50.1756 111.734 49.6092 112.158 49.7696C113.019 50.0995 112.049 52.0647 110.318 52.674L110.321 52.6748Z" fill="black"/>
<path id="Vector_11" d="M95.1559 80.7751C95.1559 80.7751 91.7664 82.1716 91.7543 82.1761C91.5906 82.247 91.4431 82.3508 91.3212 82.481C91.1992 82.6113 91.1054 82.7652 91.0454 82.9333C90.9854 83.1013 90.9607 83.2799 90.9727 83.458C90.9846 83.636 91.0331 83.8097 91.115 83.9682C91.1969 84.1267 91.3106 84.2667 91.4489 84.3794C91.5872 84.4922 91.7472 84.5753 91.919 84.6236C92.0907 84.6719 92.2706 84.6843 92.4474 84.6602C92.6242 84.6361 92.7942 84.5758 92.9467 84.4832C93.068 84.4388 95.9121 83.385 96.3497 83.1907C98.0542 82.4352 96.9847 80.1033 95.1559 80.7751ZM92.6529 83.788C92.5437 83.8392 91.9886 84.072 91.7671 83.6057C91.7366 83.5359 91.7205 83.4605 91.7199 83.3843C91.7192 83.308 91.734 83.2324 91.7634 83.1621C91.7927 83.0917 91.836 83.028 91.8906 82.9748C91.9453 82.9216 92.0101 82.88 92.0812 82.8525L92.8096 82.5512C92.8421 82.9338 93.0216 83.2888 93.3105 83.5417L92.6529 83.788ZM96.0424 82.4993C95.8451 82.5874 95.0557 82.8879 94.2271 83.199C94.0125 83.1592 93.8223 83.0363 93.6978 82.8571C93.5732 82.6778 93.5245 82.4567 93.5621 82.2416L95.4263 81.4749C96.2864 81.16 96.9139 82.1181 96.0439 82.5023L96.0424 82.4993Z" fill="black"/>
<path id="Vector_12" d="M139.297 121C144.682 120.41 144.743 109.585 143.846 100.608C143.168 93.8242 138.41 76.7458 130.479 68.0093C127.864 65.2522 124.719 63.0513 121.233 61.5384C116.93 59.6061 112.382 58.2711 107.718 57.5704V49.6504C112.66 48.8113 115.612 43.3844 114.612 40.3918C114.437 39.6654 114.007 39.0259 113.4 38.5901C112.794 38.1542 112.05 37.9511 111.306 38.0177C111.658 36.7806 111.91 35.5171 112.059 34.2396C112.221 34.0918 112.428 34.0038 112.646 33.9901C112.864 33.9764 113.081 34.0378 113.259 34.1642C114.167 34.7141 114.238 35.8612 115.853 34.3706C117.08 33.2363 116.719 33.3432 117.099 33.3862C117.341 33.392 117.58 33.4431 117.803 33.5368C118.541 33.8245 118.857 33.5104 119.571 32.2804C119.689 31.9898 119.913 31.7554 120.199 31.6256C120.484 31.4958 120.808 31.4806 121.105 31.583C122.703 31.7924 122.432 31.0098 123.153 31.0098C123.412 31.0164 123.67 30.9696 123.909 30.8722C124.149 30.7749 124.367 30.6292 124.548 30.4441C125.088 30.0983 125.486 29.5694 125.669 28.9542C125.852 28.339 125.807 27.6786 125.543 27.0938C125.466 26.9122 125.454 26.7099 125.509 26.5208C125.564 26.3316 125.682 26.1669 125.844 26.0544C126.174 25.7565 126.393 25.356 126.468 24.9178C126.638 23.6659 125.997 23.8632 125.527 23.0882C125.369 22.8276 125.394 22.7869 125.555 22.515C125.877 22.0263 126.006 21.4361 125.918 20.8579C125.731 19.1255 125.31 19.6821 124.704 19.1014C124.27 18.6864 125.624 17.253 124.694 16.2799C123.809 15.3504 123.367 15.7895 122.309 15.4626C122.281 15.4536 122.262 15.4453 122.254 15.4438C122.266 14.9745 123.632 13.5261 122.573 12.4309C121.338 11.1505 120.696 12.1206 119.898 11.9971C119.806 11.7463 120.45 10.5065 119.324 10.0071C118.057 9.44518 117.748 10.349 116.634 10.5208C116.587 10.5291 116.539 10.5327 116.49 10.5313C116.35 10.288 116.671 8.78235 115.019 8.80947C113.368 8.83659 113.17 8.92321 112.242 9.37965C111.737 9.58302 111.821 9.67416 111.639 9.4143C111.494 9.16281 111.267 8.9697 110.995 8.86834C110.723 8.76698 110.425 8.76374 110.151 8.85918C108.551 9.2019 108.814 11.2198 108.414 11.4487C108.277 11.5286 108.293 11.5082 107.989 11.3493C109.148 9.81652 108.26 8.36131 106.412 7.69019C105.877 7.49661 105.677 7.42355 105.64 6.77503C105.538 4.93342 104.372 3.78025 102.552 4.18849C101.596 4.4024 101.399 4.81592 101.288 5.1865C101.28 5.21362 101.275 5.23922 101.288 5.23922C99.98 5.54804 97.8175 2.16686 95.6 3.86084C94.3949 4.78202 94.7624 5.54729 94.9598 5.95855C94.9794 5.99847 95.0027 6.04818 95.02 6.08735C93.4428 6.86467 91.9213 3.86687 89.859 5.34694C88.8083 6.10015 88.8964 6.6726 89.148 7.17725C89.1585 7.19759 89.1698 7.22094 89.1804 7.24278C88.055 7.98545 86.279 6.84584 85.6161 8.73189C85.4129 9.25715 85.398 9.83663 85.5739 10.3716C85.6786 10.7482 85.6892 10.6955 84.9917 11.1339C84.0811 11.7056 83.0462 12.3503 83.5606 13.6195C83.9372 14.5422 85.1589 14.5414 85.6877 14.7132C85.1642 15.5274 83.2894 15.849 83.01 16.8335C82.9755 16.9625 82.9681 17.0972 82.9884 17.2292C83.0086 17.3612 83.056 17.4875 83.1275 17.6003C83.2833 17.8482 83.5109 18.0427 83.78 18.158C84.0491 18.2734 84.347 18.304 84.6339 18.2458C84.6339 18.2458 84.7055 18.3256 84.7175 18.7082C84.7597 20.009 84.4223 21.0575 85.8398 21.4612C81.1842 25.0051 80.7865 30.5458 80.8686 33.0058C80.8595 34.814 81.4041 36.5816 82.4293 38.0712C81.2566 39.6873 80.7448 41.69 80.9982 43.6706C81.4373 46.0884 82.308 47.1354 83.7504 48.873C84.9595 50.2213 86.0072 51.7058 86.8725 53.2967C88.1936 55.5872 89.1547 57.224 91.6554 57.1381L91.8196 60.2647C89.8296 60.9328 78.2753 65.0604 72.877 72.579C68.8706 78.3791 65.2424 84.4314 62.0149 90.6984C57.8466 85.7317 46.9716 72.7613 46.0211 66.716C45.3432 62.4226 48.1218 62.4716 47.407 57.6774C46.7562 53.32 46.5709 53.8149 46.595 52.2467C46.6357 49.6353 46.1039 50.3102 43.1603 48.5243C42.731 47.6656 41.6419 47.8524 40.3576 47.9368C38.6079 48.052 37.4269 47.396 36.0485 49.1306C35.898 47.8401 35.8587 46.539 35.931 45.2418C35.9965 44.173 36.2323 42.1664 35.4632 41.5284C35.3356 41.4258 35.1846 41.3562 35.0237 41.3258C34.8627 41.2955 34.6968 41.3053 34.5405 41.3544C34.1701 41.4704 33.8326 41.673 33.556 41.9455C33.2795 42.2179 33.0719 42.5524 32.9505 42.9211C32.8268 42.8547 32.6879 42.8215 32.5475 42.8247C31.9645 42.8496 31.4546 43.5026 30.9884 44.8275C30.6488 45.736 30.4583 46.6934 30.4242 47.6626C27.4445 47.6626 29.5143 63.023 33.535 67.3148C36.3656 70.3352 36.7655 71.2948 37.6024 73.8723C37.7372 74.2888 53.0599 115.886 63.751 117.973C64.0595 118.033 64.3731 118.063 64.6873 118.062C72.108 118.062 80.7662 101.868 82.0594 98.9356C82.6087 99.2215 83.2032 99.4103 83.8167 99.4937C82.0697 103.96 81.8839 108.885 83.2894 113.47C77.1884 123.362 75.0041 145.628 74.9137 146.576C74.9073 146.652 74.9244 146.729 74.9627 146.795C75.001 146.862 75.0588 146.915 75.1282 146.948C75.1975 146.98 75.2753 146.991 75.351 146.979C75.4266 146.966 75.4967 146.931 75.5517 146.877H140.705C140.919 146.82 141.246 146.542 141.232 146.31C141.22 146.145 140.001 130.028 136.137 120.908C137.182 121.072 138.244 121.103 139.297 121ZM108.792 12.104C109.696 11.5843 109.179 9.84439 110.311 9.59733C110.776 9.49716 110.865 9.62294 111.026 9.85117C111.085 9.96546 111.168 10.0657 111.269 10.1451C111.371 10.2246 111.488 10.2814 111.613 10.3116C111.738 10.3419 111.868 10.345 111.995 10.3206C112.121 10.2963 112.241 10.2451 112.346 10.1705C113.153 9.68058 114.099 9.46891 115.038 9.56796C115.616 9.54913 115.645 9.75626 115.686 10.2459C115.677 10.4081 115.701 10.5705 115.759 10.7224C115.817 10.8743 115.906 11.0122 116.021 11.1271C116.516 11.5165 117.44 11.1181 117.988 10.8115C118.129 10.6911 118.303 10.6162 118.487 10.5967C118.672 10.5772 118.858 10.6141 119.021 10.7023C119.268 10.8123 119.297 10.9343 119.199 11.4721C119.133 11.8314 118.996 12.5808 119.794 12.7382C120.146 12.795 120.507 12.7557 120.839 12.6245C121.267 12.4882 121.504 12.4129 122.034 12.9612C122.766 13.7189 121.196 14.8887 121.56 15.7526C121.609 15.8606 121.682 15.956 121.774 16.0316C121.865 16.1073 121.972 16.1613 122.088 16.1895C123.293 16.5616 123.501 16.1247 124.151 16.8071C124.678 17.3622 123.264 18.7738 124.185 19.6528C124.996 20.4316 125.033 19.6776 125.171 20.9468C125.24 21.3615 125.147 21.7872 124.91 22.1346C124.759 22.326 124.675 22.5613 124.671 22.8047C124.666 23.0481 124.741 23.2865 124.884 23.4836C125.054 23.7739 125.282 24.0267 125.552 24.2271C125.748 24.3777 125.778 24.4056 125.722 24.8221C125.611 25.6386 124.366 25.8171 124.823 27.319C125.194 28.5407 125.033 29.0876 124.075 29.8649C123.593 30.255 123.389 30.2626 123.18 30.2626C122.97 30.2519 122.761 30.2887 122.567 30.3702C122.374 30.4517 122.201 30.5758 122.062 30.7333C121.48 31.2741 120.042 29.9666 118.92 31.9099C118.456 32.7113 118.285 32.8732 118.242 32.8958C118.186 32.8826 118.132 32.8644 118.08 32.8416C117.798 32.7259 117.497 32.6597 117.192 32.6458C116.386 32.5531 116.524 32.7354 115.346 33.8253C114.793 34.3367 114.636 34.3616 114.616 34.3623C114.448 34.3043 113.508 32.8559 112.15 33.3357C112.351 30.6151 112.058 27.3469 110.191 24.8244C108.968 23.1142 107.413 21.6672 105.619 20.5692C103.826 19.4713 101.83 18.7447 99.7502 18.4326C99.6297 18.0951 99.5137 17.5408 99.7404 17.3524C99.8632 17.2508 99.9159 17.2643 100.117 17.3396C100.279 17.4296 100.47 17.4544 100.65 17.409C100.83 17.3635 100.986 17.2512 101.086 17.0948C101.485 16.4923 101.086 14.7102 101.807 14.494C101.957 14.4496 102.115 14.4384 102.269 14.461C102.424 14.4836 102.572 14.5396 102.704 14.6251C102.897 14.7511 103.122 14.8212 103.353 14.8277C103.583 14.8342 103.812 14.7769 104.012 14.662C104.952 14.1136 104.958 12.0867 106.363 11.8751C106.824 11.7667 107.309 11.8378 107.719 12.0739C107.875 12.1848 108.059 12.2469 108.25 12.2522C108.441 12.2576 108.629 12.206 108.79 12.104H108.792ZM85.4708 19.4795C85.4888 18.8852 85.5461 18.059 85.1521 17.6929C85.0455 17.608 84.9222 17.5463 84.7903 17.5118C84.6584 17.4773 84.5207 17.4708 84.3861 17.4925C83.712 17.5182 83.291 17.0866 84.777 16.2874C85.3541 16.035 85.8685 15.6585 86.2835 15.1847C86.3722 15.0812 86.4338 14.9573 86.4627 14.8241C86.4917 14.6909 86.487 14.5526 86.4492 14.4217C86.1532 13.6798 84.5451 14.0262 84.2649 13.3363C83.9681 12.6064 84.5601 12.3104 85.7472 11.5519C85.8751 11.4986 85.9911 11.4204 86.0885 11.3218C86.1859 11.2232 86.2628 11.1063 86.3146 10.9777C86.3664 10.8492 86.3921 10.7116 86.3902 10.573C86.3884 10.4345 86.359 10.2976 86.3038 10.1705C86.1711 9.7842 86.181 9.36314 86.3317 8.98346C86.5576 8.33946 86.8861 8.31009 87.6701 8.3003C88.2087 8.32431 88.7466 8.23978 89.2519 8.05173C89.8793 7.79037 90.1241 7.44916 89.8251 6.84659C89.7144 6.62062 89.6263 6.44814 90.3011 5.96382C91.7413 4.92513 93.0971 7.38213 94.9108 6.9204C95.0781 6.9001 95.239 6.84347 95.3821 6.75448C95.5252 6.66548 95.6471 6.54628 95.7394 6.4052C95.7847 6.2781 95.7997 6.14214 95.7831 6.0082C95.7665 5.87427 95.7187 5.74609 95.6437 5.63391C95.4757 5.28592 95.3424 5.01025 96.0617 4.46191C97.6043 3.28538 99.2734 5.75367 100.797 5.96834C101.531 6.07228 101.858 5.91863 102.013 5.40117C102.065 5.22491 102.115 5.05845 102.719 4.92363C104.082 4.61632 104.815 5.44335 104.892 6.81646C104.879 7.1879 105 7.55147 105.233 7.84154C105.465 8.13161 105.793 8.32905 106.159 8.39821C106.643 8.53737 107.08 8.80859 107.419 9.18156C107.539 9.31689 107.629 9.47554 107.685 9.6475C107.74 9.81945 107.759 10.001 107.74 10.1807C107.722 10.3603 107.667 10.5343 107.578 10.6914C107.489 10.8486 107.368 10.9857 107.224 11.094C106.9 11.0536 106.572 11.0613 106.251 11.1166C104.428 11.396 104.209 13.6655 103.634 14.0014C103.433 14.1181 103.329 14.0767 103.031 13.9351C102.816 13.8092 102.577 13.7289 102.329 13.6991C102.081 13.6693 101.83 13.6906 101.591 13.7619C100.295 14.152 100.674 16.1142 100.461 16.652C100.435 16.6437 100.406 16.6324 100.381 16.6233C100.202 16.5335 99.9995 16.4987 99.8001 16.5233C99.6007 16.548 99.413 16.631 99.2606 16.7619C99.0677 16.9642 98.9349 17.2162 98.877 17.4897C98.8192 17.7632 98.8385 18.0474 98.933 18.3105C94.6952 17.8381 90.417 18.7277 86.7188 20.8504C85.4293 20.7321 85.4369 20.5047 85.4693 19.4795H85.4708ZM88.6772 20.6463C93.1965 18.5696 103.389 16.8629 109.586 25.2642C112.873 29.718 110.842 36.9737 110.47 38.1826C109.507 38.6655 108.21 41.6369 105.507 41.3243C102.922 41.023 104.035 31.3819 102.095 26.0619C100.385 21.3754 94.7888 21.4673 92.7634 21.6661C93.1488 21.027 93.5719 20.4113 94.0303 19.8222C94.0813 19.7576 94.1096 19.678 94.1111 19.5956C94.1125 19.5133 94.0869 19.4328 94.0382 19.3664C93.9895 19.3 93.9203 19.2514 93.8414 19.228C93.7624 19.2046 93.678 19.2078 93.601 19.237C92.3667 19.8246 91.3087 20.7265 90.5331 21.8522C88.4896 22.0769 86.5029 22.666 84.6671 23.5913C85.7782 22.3353 87.1449 21.3312 88.6757 20.6463H88.6772ZM92.3295 60.8899C92.4086 60.8647 92.4772 60.8142 92.5246 60.7461C92.572 60.678 92.5956 60.5961 92.5917 60.5132L92.4116 57.0816C95.4554 56.7359 99.571 54.9839 101.273 52.7318C101.333 52.6519 101.359 52.5514 101.345 52.4525C101.331 52.3537 101.278 52.2644 101.198 52.2045C101.158 52.1748 101.113 52.1533 101.065 52.141C101.018 52.1287 100.968 52.126 100.919 52.133C100.82 52.1471 100.731 52.1999 100.671 52.2798C98.9059 54.6148 94.0808 56.4737 91.2502 56.3909C88.6584 56.3389 87.9722 52.9894 85.6764 50.0548C83.3964 47.1346 82.2575 46.3919 81.7393 43.5395C81.2987 41.1119 82.7569 38.9072 83.1192 38.4056C83.2011 38.4049 83.2806 38.3776 83.3456 38.3277C83.4105 38.2778 83.4575 38.2081 83.4793 38.1292C83.5094 38.0267 83.7331 37.3948 84.1926 37.3119C84.0604 37.5591 84.0262 37.847 84.0967 38.1183C84.1673 38.3895 84.3375 38.6243 84.5734 38.7757C84.8092 38.9271 85.0935 38.9841 85.3695 38.9354C85.6455 38.8866 85.8931 38.7356 86.0628 38.5126C86.169 38.6338 86.2473 38.7589 86.4477 38.7589C86.5196 38.7589 86.59 38.7383 86.6506 38.6996C86.7112 38.6609 86.7595 38.6056 86.7896 38.5403C86.8198 38.475 86.8307 38.4025 86.821 38.3312C86.8112 38.26 86.7813 38.193 86.7347 38.1382C85.6937 36.9127 84.7996 36.4058 84.005 36.5813C83.7718 36.6453 83.5553 36.7593 83.3706 36.9154C83.1859 37.0714 83.0374 37.2659 82.9354 37.4852C82.5655 36.9323 82.2766 36.3294 82.0775 35.6948C82.5086 35.2437 83.0999 34.9802 83.7236 34.9611C84.3473 34.9421 84.9534 35.1691 85.4113 35.5931C85.4482 35.6269 85.4915 35.653 85.5387 35.6699C85.5859 35.6867 85.6359 35.694 85.686 35.6913C85.736 35.6885 85.7849 35.6759 85.83 35.654C85.875 35.6321 85.9153 35.6015 85.9484 35.5638C85.9814 35.5262 86.0066 35.4824 86.0226 35.4349C86.0385 35.3874 86.0448 35.3372 86.041 35.2872C86.0373 35.2373 86.0237 35.1886 86.0009 35.144C85.9781 35.0993 85.9467 35.0597 85.9084 35.0274C85.3658 34.5146 84.6543 34.2182 83.9082 34.194C83.1621 34.1699 82.4329 34.4197 81.8583 34.8964C81.2881 31.7682 81.7621 28.5394 83.2073 25.7071C83.3828 25.4518 84.9857 23.3578 90.793 22.582C91.1462 22.5353 91.1033 22.1007 92.2866 20.9965C92.0862 21.3133 91.9053 21.6421 91.745 21.981C91.7163 22.0437 91.7053 22.1131 91.7133 22.1816C91.7213 22.2502 91.748 22.3152 91.7904 22.3696C91.8329 22.424 91.8894 22.4657 91.9539 22.4901C92.0185 22.5146 92.0885 22.5208 92.1563 22.5082C92.2316 22.4954 99.5115 21.1969 101.382 26.3263C103.424 31.9219 101.894 41.6655 105.415 42.0783C107.433 42.314 108.797 41.0916 110.085 39.5927C110.736 38.8394 110.838 38.6135 111.94 38.789C112.411 38.8697 112.848 39.0877 113.197 39.4157C113.545 39.7436 113.789 40.167 113.898 40.6329C114.766 43.2269 111.983 48.3624 107.288 48.9544C107.197 48.9661 107.114 49.0111 107.054 49.0807C106.994 49.1502 106.963 49.2394 106.965 49.331V57.9026C106.967 57.9955 107.002 58.0847 107.065 58.1533C107.128 58.222 107.213 58.2654 107.306 58.2754C109.951 58.6453 112.562 59.229 115.113 60.0206C114.461 62.6207 108.961 66.9894 99.3427 67.2402C91.1259 67.4579 88.5514 63.685 87.9805 62.5921C90.497 61.4811 92.2798 60.9057 92.328 60.8899H92.3295ZM63.8994 117.23C54.3607 115.368 39.6873 77.8372 38.3232 73.6365C37.4028 70.8029 36.8665 69.7612 34.0886 66.7966C31.4524 63.9848 29.8819 56.1069 29.7787 52.673C29.6959 49.9501 30.0408 48.6915 30.3609 48.4407C30.3748 48.4272 30.3923 48.4181 30.4113 48.4143C30.4303 48.4106 30.4499 48.4124 30.4679 48.4196C30.9884 48.5657 31.1948 51.5989 31.2701 52.2083C31.4728 53.3154 31.8126 54.3931 32.2816 55.4162C32.3233 55.507 32.3993 55.5776 32.493 55.6123C32.5866 55.6471 32.6902 55.6432 32.781 55.6015C32.8718 55.5599 32.9423 55.4839 32.9771 55.3902C33.0118 55.2966 33.008 55.1929 32.9663 55.1021C32.5308 54.1485 32.2121 53.1457 32.0173 52.1156C31.8666 50.9105 31.7868 48.8874 31.1985 48.0799C31.1447 47.0533 31.3167 46.0274 31.7024 45.0746C32.2063 43.6435 32.5844 43.5742 32.5844 43.5742C32.6003 43.5742 32.6854 43.6344 32.7765 43.837C33.0823 44.5149 32.7162 47.9142 32.7426 49.4206C32.772 51.0777 34.0449 54.3211 34.0984 54.4581C34.1364 54.5491 34.2086 54.6215 34.2994 54.6598C34.3902 54.6981 34.4924 54.6993 34.5841 54.6631C34.6758 54.627 34.7496 54.5563 34.7898 54.4663C34.8299 54.3763 34.8332 54.2741 34.7989 54.1817C34.7861 54.1493 33.5184 50.9316 33.4951 49.4078C33.4665 47.8404 33.8476 44.6882 33.5094 43.651C33.8272 42.2779 34.7763 41.9329 34.9849 42.1046C35.3578 42.415 35.2599 43.9576 35.2019 44.8795C35.0324 47.576 35.3058 51.8226 36.4605 54.1712C36.4823 54.2157 36.5127 54.2555 36.5498 54.2882C36.587 54.321 36.6303 54.3461 36.6772 54.3622C36.7241 54.3782 36.7737 54.3849 36.8232 54.3818C36.8726 54.3787 36.921 54.3658 36.9655 54.344C37.01 54.3222 37.0498 54.2919 37.0826 54.2547C37.1154 54.2175 37.1405 54.1742 37.1565 54.1273C37.1726 54.0804 37.1793 54.0308 37.1761 53.9813C37.173 53.9319 37.1602 53.8835 37.1384 53.839C36.6409 52.7143 36.3166 51.5207 36.1765 50.2989C36.4794 49.7003 36.9405 49.1963 37.5097 48.8414C37.9949 48.6506 38.5222 48.5926 39.0372 48.6734C41.0581 48.7887 42.3589 48.3428 42.502 48.8821C42.3878 49.1033 42.2144 49.2884 42.0011 49.4169C41.473 49.7688 40.8805 50.013 40.2578 50.1354C39.635 50.2578 38.9942 50.256 38.3721 50.1302C38.2794 50.1131 38.1836 50.1315 38.1038 50.1817C38.0239 50.2319 37.9658 50.3102 37.9409 50.4012C37.916 50.4921 37.9262 50.5891 37.9693 50.673C38.0125 50.7568 38.0855 50.8214 38.1741 50.854C37.8976 51.8116 37.7006 52.7903 37.585 53.7802C37.5823 53.8334 37.591 53.8866 37.6103 53.9361C37.6296 53.9857 37.6593 54.0307 37.6973 54.068C38.1097 54.481 38.4613 54.9507 38.7412 55.4629C39.2014 56.4173 40.6996 57.3354 41.5884 56.6681C42.757 55.447 43.4111 53.8231 43.4149 52.133C43.8388 52.1764 44.2669 52.151 44.6826 52.0576C44.7804 52.0369 44.8659 51.9781 44.9204 51.8943C44.9748 51.8104 44.9937 51.7084 44.973 51.6106C44.9522 51.5128 44.8934 51.4273 44.8096 51.3728C44.7257 51.3184 44.6237 51.2995 44.5259 51.3202C44.033 51.4596 43.5095 51.4471 43.0237 51.2844C42.538 51.1217 42.1126 50.8163 41.803 50.4081C42.3194 50.1762 42.7675 49.8158 43.1046 49.3611C45.8689 50.9429 45.8749 50.2951 45.8448 52.2324C45.8177 54.0017 45.9631 53.0835 46.6651 57.7866C47.343 62.3255 44.5561 62.2065 45.2799 66.8327C46.2651 73.1145 56.9389 85.8213 61.4974 91.2475C61.5441 91.3228 65.677 96.0168 67.1179 100.3C67.15 100.395 67.2183 100.473 67.3079 100.517C67.3976 100.562 67.5011 100.569 67.5958 100.537C67.6905 100.504 67.7686 100.436 67.8129 100.346C67.8571 100.257 67.864 100.153 67.8319 100.059C66.5735 96.8693 64.7856 93.9153 62.5436 91.3213C65.7925 84.989 69.4495 78.8745 73.4916 73.0166C75.8575 69.7228 79.5234 67.0662 82.9949 65.0913C83.2473 66.9291 83.9621 72.814 83.1508 75.4058C82.134 78.6537 80.7677 81.8835 79.8631 84.0181C77.7172 89.0873 77.3774 92.8586 78.8259 95.5476C79.4312 96.7435 80.3194 97.7736 81.4132 98.5484C80.434 100.837 70.9337 118.608 63.8979 117.231L63.8994 117.23ZM42.6263 51.9401C42.9728 53.3291 41.681 55.6625 41.141 56.0648C40.7275 56.3706 39.7151 55.7401 39.4221 55.1323C39.1362 54.5923 38.7759 54.0951 38.3518 53.6552C38.4832 52.745 38.6757 51.8446 38.928 50.9602C39.6593 51.013 40.3939 50.9237 41.0913 50.6973C41.4663 51.2565 42.0013 51.6897 42.6263 51.9401ZM83.9719 113.134C82.6383 108.574 82.9016 103.695 84.7183 99.3046C84.7462 99.2454 84.7582 99.1799 84.753 99.1147C84.7479 99.0494 84.7258 98.9866 84.689 98.9325C84.6522 98.8783 84.6019 98.8347 84.5431 98.8059C84.4844 98.7772 84.4191 98.7642 84.3537 98.7683C84.2377 98.7683 81.4825 98.8889 79.4887 95.1883C78.1751 92.7486 78.5344 89.0873 80.5568 84.3104C81.4667 82.1607 82.842 78.9121 83.8709 75.6295C84.7898 72.692 83.9139 66.1511 83.7022 64.6959C84.9616 64.0052 86.1818 63.4064 87.2883 62.9009C87.8908 64.1219 90.4518 68.001 98.6618 68.001C98.8878 68.001 99.1266 68.001 99.3646 67.9919C108.996 67.7404 115.005 63.3973 115.835 60.2451C118.063 60.953 120.231 61.8397 122.317 62.8964C121.352 64.1016 118.752 68.1848 118.75 77.2595L114.503 70.0008C114.455 69.9209 114.38 69.8614 114.292 69.8336C114.203 69.8058 114.107 69.8117 114.023 69.8501C85.476 82.5591 87.2423 81.8037 87.1504 82.0025L86.4206 83.6076C86.3967 83.6604 86.3853 83.7179 86.3872 83.7758C86.3892 83.8336 86.4045 83.8903 86.4319 83.9413L100.102 109.217C99.8027 109.347 99.5454 109.557 99.3592 109.825C99.1729 110.093 99.065 110.407 99.0475 110.733C99.0595 111.331 99.516 112.158 101.562 112.777L83.9719 113.134ZM121.7 103.511C119.535 103.129 117.503 102.203 115.794 100.822C112.959 98.5107 110.96 97.4811 107.27 97.8848C103.433 98.3096 101.364 100.711 99.9815 101.461C99.6197 101.653 99.2696 101.866 98.933 102.099L88.0159 82.3302L114.02 70.6689L132.34 101.979L129.167 104.167C123.171 103.944 123.671 103.999 121.7 103.513V103.511ZM102.393 108.367L100.201 104.398C101.598 104.06 102.936 103.515 104.172 102.781C106.462 101.612 107.546 102.076 107.866 102.276C107.952 102.718 106.476 104.582 105.4 105.943C104.664 107.036 103.616 107.88 102.393 108.368V108.367ZM99.3329 104.384L101.674 108.624C101.307 108.745 100.98 108.842 100.79 108.909L87.1836 83.7454L87.5225 82.9975L98.3515 102.607C97.6239 103.436 98.2649 104.193 99.3329 104.386V104.384ZM128.357 117.636C123.328 115.452 120.028 111.981 117.308 113.919C114.816 115.69 114.653 116.76 111.287 117.57C109.932 117.921 108.494 117.728 107.279 117.032C107.688 117.043 108.151 117.023 108.559 116.999C109.728 116.87 110.873 116.576 111.959 116.126C112.051 116.088 112.124 116.014 112.162 115.922C112.2 115.829 112.2 115.726 112.162 115.634C112.123 115.541 112.05 115.468 111.957 115.43C111.865 115.392 111.761 115.393 111.669 115.431C110.661 115.846 109.6 116.12 108.518 116.247C106.376 116.368 105.795 116.294 105.084 114.892C106.523 115.009 107.969 114.763 109.288 114.175C109.379 114.133 109.45 114.057 109.485 113.964C109.52 113.87 109.517 113.767 109.475 113.676C109.434 113.585 109.358 113.514 109.265 113.479C109.171 113.444 109.067 113.447 108.976 113.488C108.952 113.5 106.498 114.598 104.536 114.01C103.89 113.842 103.294 113.519 102.798 113.07C103.23 113.143 103.666 113.181 104.104 113.182C105.486 113.249 106.84 112.769 107.87 111.845C107.935 111.772 107.969 111.676 107.965 111.578C107.961 111.481 107.918 111.388 107.847 111.321C107.776 111.254 107.682 111.217 107.584 111.218C107.486 111.219 107.393 111.258 107.323 111.327C107.253 111.399 105.577 113.09 102.068 112.139C99.9777 111.573 99.8022 110.908 99.7984 110.718C99.7841 110.033 101.327 109.542 101.403 109.503C103.265 109.084 104.903 107.982 105.993 106.415C107.74 104.208 108.722 102.922 108.614 102.174C108.603 102.083 108.573 101.995 108.525 101.917C108.478 101.838 108.415 101.77 108.341 101.717C107.035 100.796 105.114 101.462 103.699 102.183C101.565 103.271 100.158 103.991 99.119 103.539C98.8577 103.426 98.7974 103.334 98.7967 103.317C98.7967 103.282 98.8253 102.952 100.342 102.128C101.773 101.354 103.775 99.035 107.355 98.6388C110.798 98.2622 112.595 99.1856 115.321 101.408C117.117 102.858 119.249 103.833 121.521 104.244C123.05 104.621 122.796 104.696 127.748 104.87C132.033 105.021 137.902 105.223 139.649 106.496C139.689 106.526 139.734 106.547 139.783 106.56C139.831 106.572 139.881 106.574 139.931 106.567C139.98 106.56 140.028 106.543 140.07 106.517C140.113 106.491 140.15 106.457 140.179 106.416C140.209 106.376 140.23 106.33 140.242 106.282C140.253 106.233 140.255 106.183 140.247 106.133C140.239 106.084 140.221 106.037 140.194 105.995C140.168 105.952 140.133 105.916 140.092 105.887C138.511 104.738 134.394 104.393 130.418 104.218L133.054 102.4C133.133 102.346 133.188 102.265 133.208 102.172C133.229 102.079 133.214 101.982 133.166 101.9L119.511 78.5656C119.524 78.4903 119.021 68.0763 122.998 63.258C125.585 64.6094 127.926 66.3864 129.923 68.5147C137.376 76.7247 142.386 93.5644 143.097 100.683C143.804 107.755 144.24 119.701 139.216 120.251C136.575 120.541 133.123 119.71 128.357 117.638V117.636Z" fill="black"/>
<path id="Vector_13" d="M35.59 57.9226C35.5527 57.8877 35.5086 57.8606 35.4605 57.8432C35.4124 57.8259 35.3613 57.8184 35.3102 57.8215C35.2591 57.8245 35.2092 57.8379 35.1635 57.8608C35.1178 57.8838 35.0772 57.9158 35.0443 57.9549C35.0113 57.994 34.9867 58.0395 34.9719 58.0884C34.9571 58.1374 34.9524 58.1889 34.9582 58.2397C34.9639 58.2905 34.98 58.3396 35.0053 58.3841C35.0307 58.4285 35.0648 58.4673 35.1057 58.4981C36.2694 59.4773 39.3771 62.3312 39.7756 63.7518C40.0592 64.8086 40.0678 65.9205 39.8005 66.9816C39.7729 67.0766 39.7837 67.1786 39.8308 67.2656C39.8778 67.3527 39.9572 67.4177 40.0518 67.4467C40.1463 67.4757 40.2485 67.4663 40.3362 67.4206C40.424 67.3748 40.4902 67.2964 40.5205 67.2023C40.8337 66.0038 40.8269 64.7442 40.5009 63.5492C39.9601 61.6134 35.7685 58.068 35.59 57.9226Z" fill="black"/>
<path id="Vector_14" d="M97.8568 37.3171C96.3918 36.4132 95.0865 36.1361 93.977 36.4953C93.5566 36.6408 93.1701 36.8698 92.8405 37.1686C92.5109 37.4673 92.2452 37.8297 92.0593 38.2338C92.0208 38.326 92.0206 38.4297 92.0586 38.522C92.0966 38.6144 92.1697 38.6879 92.2619 38.7264C92.3541 38.7648 92.4578 38.7651 92.5502 38.7271C92.6426 38.6891 92.7161 38.616 92.7545 38.5238C92.9225 38.1569 93.1784 37.8371 93.4995 37.5927C93.8206 37.3484 94.197 37.187 94.5954 37.1228C94.526 37.3 94.495 37.4899 94.5044 37.68C94.5138 37.8701 94.5634 38.0561 94.6499 38.2256C94.7364 38.3951 94.8579 38.5443 95.0064 38.6634C95.1549 38.7825 95.3269 38.8688 95.5111 38.9165C95.6954 38.9643 95.8876 38.9724 96.0752 38.9404C96.2629 38.9083 96.4415 38.8369 96.5995 38.7307C96.7575 38.6245 96.8911 38.4861 96.9917 38.3245C97.0922 38.1629 97.1573 37.9818 97.1827 37.7931C97.2746 37.8451 97.3672 37.9001 97.4614 37.9581C97.5463 38.009 97.6479 38.0243 97.7441 38.0009C97.8403 37.9774 97.9234 37.917 97.9754 37.8327C98.0274 37.7485 98.0441 37.6471 98.0219 37.5506C97.9997 37.4541 97.9404 37.3702 97.8568 37.3171Z" fill="black"/>
<path id="Vector_15" d="M99.8883 35.2723C98.6753 34.2589 97.2708 33.4999 95.7585 33.0405C95.0238 32.8446 94.2485 32.8615 93.5231 33.0892C92.7976 33.317 92.1518 33.7463 91.661 34.327C91.6004 34.4049 91.5728 34.5035 91.5842 34.6015C91.5955 34.6996 91.6449 34.7892 91.7217 34.8512C91.7985 34.9132 91.8966 34.9426 91.9948 34.933C92.093 34.9234 92.1836 34.8757 92.247 34.8C92.6481 34.3376 93.17 33.996 93.7542 33.8134C94.3385 33.6307 94.962 33.6143 95.5551 33.7658C96.9571 34.1989 98.2604 34.9029 99.3912 35.8379C99.4665 35.9015 99.5638 35.933 99.6621 35.9257C99.7604 35.9184 99.8519 35.8728 99.917 35.7988C99.9821 35.7247 100.016 35.6281 100.01 35.5297C100.005 35.4312 99.9611 35.3388 99.8883 35.2723Z" fill="black"/>
<path id="Vector_16" d="M86.9157 45.6959C87.258 45.8756 87.6393 45.9685 88.0259 45.9663C89.7779 45.9663 91.4252 44.1895 91.5088 44.0983C91.5723 44.024 91.6044 43.9279 91.5984 43.8304C91.5924 43.7328 91.5486 43.6414 91.4765 43.5755C91.4043 43.5096 91.3093 43.4743 91.2116 43.4772C91.1139 43.48 91.0212 43.5207 90.9529 43.5906C90.9326 43.6132 88.8499 45.8571 87.2621 45.0285C87.111 44.9637 86.9745 44.8689 86.8611 44.7498C86.7477 44.6307 86.6596 44.4897 86.6023 44.3356C86.5127 43.7681 86.6417 43.1878 86.9631 42.7116C87.4362 41.6884 87.7606 40.6029 87.9265 39.4879C87.9355 39.4381 87.9343 39.3871 87.9232 39.3378C87.912 39.2886 87.891 39.242 87.8615 39.201C87.832 39.16 87.7945 39.1254 87.7513 39.0991C87.7081 39.0729 87.6601 39.0556 87.6101 39.0484C87.5601 39.0411 87.5092 39.0439 87.4603 39.0568C87.4114 39.0696 87.3656 39.0921 87.3256 39.123C87.2856 39.1539 87.2523 39.1925 87.2275 39.2366C87.2028 39.2806 87.1871 39.3292 87.1816 39.3794C87.0256 40.4089 86.728 41.4119 86.2973 42.3599C85.3889 44.0848 85.8273 45.1272 86.9157 45.6959Z" fill="black"/>
<path id="Vector_17" d="M94.8403 46.7655C94.7928 46.8002 94.7371 46.8409 94.673 46.8845C93.278 46.9085 91.8828 46.8449 90.4957 46.694C89.2589 46.5705 89.1331 47.4713 88.8597 47.5511C88.5479 47.634 87.7555 47.045 87.1605 46.9117C86.9428 46.8719 86.719 46.8827 86.5062 46.9433C86.2934 47.0039 86.0975 47.1127 85.9335 47.2612C85.5975 47.0352 85.3309 46.8559 85.3038 46.8409C85.2201 46.7896 85.1198 46.773 85.024 46.7947C84.9283 46.8163 84.8449 46.8744 84.7914 46.9567C84.7379 47.0389 84.7186 47.1388 84.7376 47.2351C84.7567 47.3313 84.8125 47.4164 84.8933 47.4721C84.9001 47.4766 85.2699 47.7191 85.6879 48.0061C86.4411 49.4666 86.5165 51.8754 89.3636 52.1254C92.616 52.4094 93.599 50.387 95.1099 47.4954C95.1852 47.4419 95.2485 47.3997 95.2869 47.3719C95.357 47.3093 95.4011 47.2228 95.4106 47.1293C95.4201 47.0359 95.3944 46.9423 95.3385 46.8668C95.2826 46.7914 95.2005 46.7395 95.1083 46.7215C95.0161 46.7035 94.9205 46.7205 94.8403 46.7693V46.7655ZM86.9963 47.6461C87.5853 47.7794 88.3618 48.4829 89.0699 48.2742C89.3273 48.1858 89.5459 48.0106 89.6883 47.7786C90.1522 47.1587 90.0747 47.5527 93.4589 47.6536C92.3256 48.4002 91.0753 48.9519 89.7598 49.2858C88.2986 49.4221 87.5823 48.4475 86.5895 47.7221C86.7113 47.648 86.8559 47.621 86.9963 47.6461ZM89.4299 51.3752C87.8007 51.2321 87.3397 50.2627 86.8735 48.9212C87.5791 49.6098 88.5148 50.0124 89.5 50.0511C90.7872 50.0511 92.7041 48.9792 93.8091 48.3187C92.6499 50.3976 91.8711 51.5876 89.4292 51.3752H89.4299Z" fill="black"/>
<path id="Vector_18" d="M108.067 46.5003C108.076 46.4558 109.107 42.0005 112.853 41.0771C112.95 41.0531 113.033 40.9916 113.085 40.9061C113.136 40.8205 113.152 40.718 113.128 40.621C113.104 40.524 113.042 40.4405 112.957 40.3889C112.871 40.3373 112.769 40.3218 112.672 40.3457C108.478 41.3776 107.376 46.1334 107.331 46.3361C107.309 46.4336 107.327 46.5359 107.38 46.6203C107.434 46.7047 107.519 46.7643 107.617 46.7861C107.714 46.8079 107.816 46.79 107.901 46.7364C107.985 46.6828 108.045 46.5978 108.067 46.5003Z" fill="black"/>
<path id="Vector_19" fill-rule="evenodd" clip-rule="evenodd" d="M18.2129 146.087C18.2129 146.087 13.9052 135.542 9.41154 128.054C4.91785 120.566 1.49825 109.228 5.64922 107.222C9.8002 105.216 14.0325 109.06 16.9128 117.692C18.6341 123.522 19.7314 129.518 20.1863 135.579C19.4135 115.222 25.1191 105.827 26.9246 102.464C28.7835 98.9993 35.3546 92.5548 37.8929 97.5155C40.4312 102.476 32.6204 117.754 30.2576 122.803C27.8947 127.852 22.0693 142.496 22.0693 142.496C25.4475 135.561 33.9129 126.478 41.5023 123.658C50.5017 120.313 56.4039 122.65 57.0615 126.785C57.7191 130.919 40.4282 138.61 32.3786 140.696C24.329 142.782 21.5978 145.996 21.5978 145.996L20.9154 146.072L20.9094 146.089L18.2129 146.087Z" fill="white"/>
<path id="Vector_20" d="M57.4321 126.726C57.2958 125.926 56.9785 125.168 56.5043 124.51C56.0301 123.852 55.4117 123.311 54.6964 122.929C51.6526 121.151 46.7951 121.288 41.3697 123.306C35.2461 125.582 28.4355 132.017 24.231 138.127C26.1472 133.387 29.0976 126.181 30.6017 122.964C33.0309 117.763 40.8598 102.484 38.2311 97.3452C37.9831 96.7563 37.5691 96.2523 37.0396 95.8947C36.5101 95.537 35.888 95.3412 35.2491 95.3311C31.9726 95.3311 27.9429 99.7826 26.5954 102.288L26.3167 102.801C24.5512 106.04 20.2955 113.85 19.7916 128.938C19.2282 125.093 18.3856 121.294 17.2706 117.571C15.316 111.714 12.7513 107.971 9.84763 106.747C9.15617 106.445 8.40616 106.3 7.65189 106.323C6.89762 106.346 6.15797 106.537 5.48651 106.882C5.0419 107.113 4.65223 107.437 4.34396 107.832C4.03568 108.227 3.81602 108.684 3.69988 109.171C2.39229 113.551 5.50082 122.268 9.08839 128.247C12.9644 134.708 16.7478 143.593 17.6585 145.766H8.68542C8.29826 145.766 8.08284 146.462 8.68542 146.462H32.8147C33.0226 146.462 33.1913 146.201 33.1913 145.993C33.1901 145.946 33.1791 145.899 33.1592 145.857C33.1393 145.814 33.1108 145.775 33.0755 145.744C33.0403 145.713 32.9989 145.689 32.954 145.674C32.9092 145.659 32.8618 145.654 32.8147 145.658H22.4565C23.6119 144.667 26.6233 142.57 32.4742 141.059C40.2376 139.05 58.168 131.354 57.4321 126.726ZM26.978 103.161L27.259 102.643C28.6652 100.023 32.5609 96.0835 35.2498 96.0835C35.7505 96.0915 36.2375 96.2482 36.6489 96.5338C37.0603 96.8193 37.3774 97.2208 37.56 97.6871C39.9883 102.432 32.1617 117.851 29.9193 122.644C27.7463 127.294 21.768 142.184 21.7093 142.387C21.1766 143.449 20.7551 144.563 20.4514 145.712H20.3264C20.7547 142.377 20.836 139.006 20.5689 135.654C19.4911 116.31 24.9941 106.802 26.978 103.161ZM9.73389 127.86C6.18022 121.938 3.22083 113.408 4.42146 109.388C4.50959 109.002 4.67948 108.639 4.9197 108.323C5.15993 108.008 5.46492 107.747 5.81416 107.56C6.38993 107.264 7.02426 107.099 7.67129 107.079C8.31832 107.058 8.96186 107.181 9.55538 107.44C12.212 108.561 14.6991 112.243 16.5603 117.808C18.3259 123.579 19.4163 129.535 19.8097 135.557C19.8601 136.449 19.8752 137.492 19.9317 137.619C20.0825 140.326 19.9581 143.041 19.5604 145.723H18.472C17.8287 144.175 13.8367 134.698 9.73389 127.86ZM21.3515 145.706H21.2295C22.8112 139.741 31.9749 127.6 41.6318 124.014C46.8441 122.076 51.4673 121.919 54.3168 123.582C54.9347 123.909 55.4695 124.374 55.8805 124.939C56.2915 125.505 56.5676 126.158 56.6879 126.846C57.2761 130.545 40.6798 138.16 32.2837 140.333C24.6446 142.307 21.7387 145.278 21.3515 145.706Z" fill="black"/>
<path id="Vector_21" d="M42.3808 129.431C33.1833 132.131 22.8401 142.126 22.7369 142.226C22.6653 142.296 22.6244 142.391 22.6232 142.491C22.622 142.591 22.6606 142.688 22.7305 142.759C22.8004 142.831 22.8959 142.872 22.996 142.873C23.0961 142.874 23.1926 142.836 23.2642 142.766C23.3666 142.666 33.5749 132.802 42.5947 130.154C42.6906 130.126 42.7714 130.061 42.8194 129.973C42.8673 129.886 42.8785 129.783 42.8504 129.687C42.8224 129.591 42.7574 129.51 42.6697 129.462C42.5821 129.414 42.4789 129.403 42.3831 129.431H42.3808Z" fill="black"/>
<path id="Vector_22" d="M21.657 140.443C21.7557 140.459 21.8563 140.434 21.9368 140.375C22.0173 140.316 22.0711 140.227 22.0863 140.129C22.1202 139.909 25.5104 118.135 29.5657 112.298C29.6228 112.216 29.6449 112.115 29.6272 112.016C29.6096 111.918 29.5536 111.831 29.4716 111.774C29.3896 111.717 29.2883 111.695 29.19 111.712C29.0917 111.73 29.0044 111.786 28.9474 111.868C24.7934 117.844 21.4815 139.111 21.3399 140.013C21.3323 140.062 21.3345 140.112 21.3463 140.161C21.3582 140.209 21.3795 140.254 21.4089 140.294C21.4384 140.334 21.4755 140.368 21.5181 140.394C21.5606 140.419 21.6078 140.436 21.657 140.443Z" fill="black"/>
<path id="Vector_23" d="M19.4653 143.597C19.4261 143.405 15.4627 124.334 10.4538 115.772C10.4312 115.725 10.3992 115.684 10.3598 115.65C10.3205 115.617 10.2747 115.592 10.2252 115.576C10.1757 115.561 10.1236 115.557 10.0722 115.563C10.0208 115.568 9.97111 115.585 9.92634 115.611C9.88156 115.637 9.8426 115.672 9.81191 115.713C9.78122 115.755 9.75944 115.803 9.74794 115.853C9.73644 115.903 9.73546 115.956 9.74507 116.007C9.75468 116.057 9.77466 116.106 9.80378 116.149C14.7501 124.604 18.6917 143.555 18.7279 143.745C18.7511 143.839 18.81 143.921 18.8922 143.973C18.9745 144.025 19.0736 144.043 19.169 144.024C19.2643 144.004 19.3484 143.949 19.4037 143.869C19.4589 143.789 19.481 143.69 19.4653 143.594V143.597Z" fill="black"/>
<path id="Vector_24" fill-rule="evenodd" clip-rule="evenodd" d="M63.2 52.2632L64.3367 55.4018L67.6659 55.9683L64.879 58.4742L64.9114 61.9631L62.0491 60.3738L58.7395 61.9631L59.7601 58.4742L57.6827 55.9683L61.1724 55.4018L63.2 52.2632Z" fill="white"/>
<path id="Vector_25" fill-rule="evenodd" clip-rule="evenodd" d="M15.1065 52.6248L14.928 55.8997L12.5132 57.8513L15.1886 58.8584L15.929 61.9631L17.7608 59.3103L20.6336 59.2779L19.0903 56.6311L20.1252 53.5068L17.3383 54.5236L15.1065 52.6248Z" fill="white"/>
<path id="Vector_26" fill-rule="evenodd" clip-rule="evenodd" d="M31.4294 22.1851L29.2729 24.0771L26.5757 23.7615L27.5827 26.0498L26.0944 28.4119L28.8737 27.9344L30.6513 29.7097L31.3616 27.1262L33.9481 25.8615L31.6079 24.7422L31.4294 22.1851Z" fill="white"/>
<path id="Vector_27" d="M63.0659 30.3016L63.9796 29.461C64.0532 29.3935 64.0969 29.2995 64.1012 29.1997C64.1056 29.0999 64.07 29.0025 64.0025 28.9288C63.935 28.8552 63.841 28.8115 63.7412 28.8071C63.6414 28.8028 63.544 28.8383 63.4704 28.9059L62.51 29.7901L61.5504 28.9066C61.5145 28.8709 61.4717 28.8428 61.4247 28.824C61.3776 28.8052 61.3273 28.7961 61.2766 28.7972C61.226 28.7983 61.1761 28.8097 61.1299 28.8305C61.0837 28.8514 61.0422 28.8813 61.0079 28.9186C60.9736 28.9558 60.9471 28.9997 60.9302 29.0474C60.9132 29.0951 60.906 29.1458 60.909 29.1963C60.912 29.2469 60.9253 29.2963 60.9479 29.3417C60.9705 29.387 61.002 29.4274 61.0405 29.4602L61.9542 30.3016L61.0413 31.1414C60.9676 31.2089 60.9239 31.3029 60.9196 31.4027C60.9153 31.5025 60.9508 31.5999 61.0183 31.6736C61.0858 31.7472 61.1798 31.791 61.2796 31.7953C61.3794 31.7996 61.4768 31.7641 61.5504 31.6965L62.51 30.813L63.4696 31.6958C63.5054 31.7323 63.5482 31.7612 63.5955 31.7807C63.6428 31.8002 63.6935 31.8098 63.7447 31.809C63.7958 31.8082 63.8462 31.7971 63.8929 31.7761C63.9395 31.7552 63.9815 31.725 64.0161 31.6874C64.0507 31.6498 64.0773 31.6055 64.0942 31.5572C64.1112 31.509 64.1181 31.4578 64.1146 31.4068C64.1111 31.3558 64.0973 31.306 64.0739 31.2605C64.0506 31.215 64.0182 31.1747 63.9788 31.1422L63.0659 30.3016Z" fill="black"/>
<path id="Vector_28" d="M13.9417 15.1226L13.0303 14.282L13.9432 13.4414C13.9818 13.4086 14.0133 13.3682 14.0359 13.3229C14.0585 13.2775 14.0717 13.2281 14.0747 13.1775C14.0778 13.127 14.0706 13.0763 14.0536 13.0286C14.0366 12.9809 14.0101 12.937 13.9758 12.8998C13.9415 12.8625 13.9 12.8326 13.8538 12.8117C13.8076 12.7909 13.7577 12.7795 13.7071 12.7784C13.6564 12.7773 13.6061 12.7864 13.559 12.8052C13.512 12.824 13.4692 12.8521 13.4333 12.8878L12.4729 13.7706L11.5126 12.8871C11.439 12.8194 11.3415 12.7838 11.2417 12.7881C11.1418 12.7923 11.0477 12.8361 10.9801 12.9097C10.9124 12.9833 10.8768 13.0807 10.8811 13.1806C10.8853 13.2805 10.9291 13.3746 11.0027 13.4422L11.9163 14.2828L11.0034 15.1234C10.9479 15.1747 10.9091 15.2416 10.8922 15.3153C10.8752 15.389 10.8808 15.4661 10.9083 15.5366C10.9358 15.6071 10.9838 15.6676 11.0462 15.7104C11.1086 15.7532 11.1824 15.7762 11.258 15.7764C11.4538 15.7764 11.4305 15.7531 12.4722 14.7972C13.4717 15.7169 13.4853 15.7764 13.6871 15.7764C13.7629 15.7763 13.8369 15.7534 13.8995 15.7106C13.962 15.6678 14.0102 15.6071 14.0377 15.5365C14.0652 15.4658 14.0708 15.3885 14.0536 15.3147C14.0365 15.2409 13.9975 15.1739 13.9417 15.1226Z" fill="black"/>
<path id="Vector_29" d="M67.729 55.597L64.616 55.0697L63.5539 52.1367C63.53 52.0708 63.4881 52.0129 63.433 51.9696C63.3779 51.9262 63.3118 51.8991 63.2421 51.8913C63.1724 51.8834 63.102 51.8952 63.0386 51.9253C62.9753 51.9553 62.9216 52.0025 62.8836 52.0614L60.9486 55.0607L57.6246 55.6007C57.5595 55.6119 57.4985 55.6401 57.4477 55.6823C57.3969 55.7245 57.3581 55.7794 57.3352 55.8414C57.3123 55.9033 57.3061 55.9702 57.3173 56.0353C57.3284 56.1005 57.3565 56.1615 57.3987 56.2123L59.348 58.5646L58.3839 61.8615C58.363 61.9317 58.3631 62.0064 58.3841 62.0765C58.405 62.1467 58.446 62.2092 58.5019 62.2564C58.5579 62.3037 58.6264 62.3336 58.699 62.3425C58.7717 62.3514 58.8454 62.3389 58.9111 62.3066L62.0445 60.8002L64.7335 62.2946C64.791 62.3266 64.856 62.3429 64.9218 62.342C64.9877 62.3411 65.0521 62.3229 65.1087 62.2893C65.1654 62.2557 65.2122 62.2078 65.2445 62.1505C65.2769 62.0931 65.2936 62.0283 65.2931 61.9624L65.2622 58.6437L67.9233 56.2508C67.9768 56.2032 68.0156 56.1414 68.0352 56.0725C68.0548 56.0037 68.0544 55.9307 68.034 55.8621C68.0136 55.7935 67.9741 55.7321 67.9201 55.6852C67.8661 55.6382 67.7998 55.6076 67.729 55.597ZM64.6258 58.1948C64.586 58.2305 64.5544 58.2741 64.5328 58.323C64.5112 58.3718 64.5003 58.4247 64.5007 58.478L64.5271 61.3199C62.0362 59.9347 62.1876 59.9973 62.0505 59.9973C61.9134 59.9973 62.098 59.9332 59.3389 61.2581L60.1223 58.5797C60.1395 58.5206 60.142 58.4582 60.1295 58.3979C60.1171 58.3377 60.09 58.2814 60.0507 58.234L58.3936 56.2349L61.234 55.7732C61.286 55.7648 61.3357 55.7456 61.3798 55.7168C61.4239 55.688 61.4615 55.6502 61.4901 55.606L63.1043 53.1023L63.9825 55.5269C64.0052 55.5894 64.0441 55.6448 64.0952 55.6874C64.1463 55.73 64.2077 55.7583 64.2733 55.7695L66.8342 56.2063L64.6258 58.1948Z" fill="black"/>
<path id="Vector_30" d="M19.5008 56.5883L20.48 53.6252C20.5023 53.558 20.5051 53.4859 20.4883 53.4171C20.4715 53.3484 20.4356 53.2857 20.3848 53.2364C20.334 53.1871 20.2703 53.1532 20.2011 53.1384C20.1319 53.1236 20.0599 53.1286 19.9934 53.1529L17.4136 54.0944L15.3506 52.3379C15.2972 52.2925 15.2321 52.2629 15.1628 52.2525C15.0935 52.2421 15.0227 52.2512 14.9583 52.2788C14.8938 52.3064 14.8384 52.3515 14.7982 52.4089C14.758 52.4663 14.7346 52.5338 14.7307 52.6038L14.5612 55.7123L12.2775 57.5585C12.226 57.6002 12.1865 57.6548 12.163 57.7168C12.1394 57.7787 12.1326 57.8457 12.1432 57.9111C12.1538 57.9766 12.1815 58.038 12.2234 58.0893C12.2654 58.1406 12.3202 58.1799 12.3822 58.2032L14.8678 59.141L15.5615 62.0506C15.5781 62.1219 15.6151 62.1867 15.668 62.2372C15.7208 62.2878 15.7872 62.3218 15.8591 62.3352C15.931 62.3486 16.0052 62.3408 16.0728 62.3128C16.1403 62.2847 16.1982 62.2376 16.2394 62.1772L17.9605 59.6848L20.6382 59.6554C20.7041 59.6548 20.7687 59.6368 20.8256 59.6034C20.8824 59.5699 20.9295 59.5221 20.962 59.4648C20.9946 59.4074 21.0115 59.3425 21.0111 59.2766C21.0107 59.2106 20.993 59.146 20.9598 59.089L19.5008 56.5883ZM17.7564 58.9338C17.6961 58.9345 17.6369 58.9496 17.5836 58.9779C17.5304 59.0062 17.4848 59.0469 17.4506 59.0965L16.0993 61.0549L15.5547 58.7719C15.5404 58.712 15.5117 58.6565 15.471 58.6102C15.4303 58.564 15.3788 58.5285 15.3212 58.5068L13.2612 57.7317L15.1645 56.1906C15.2056 56.1575 15.2392 56.1161 15.2632 56.0691C15.2872 56.0221 15.301 55.9706 15.3039 55.918L15.441 53.4037L17.098 54.8107C17.1492 54.8544 17.2111 54.8836 17.2773 54.8952C17.3435 54.9069 17.4117 54.9006 17.4747 54.877L19.5287 54.1276L18.7325 56.513C18.7158 56.5637 18.71 56.6174 18.7156 56.6705C18.7212 56.7236 18.738 56.7749 18.7649 56.8211L19.9821 58.909L17.7564 58.9338Z" fill="black"/>
<path id="Vector_31" d="M34.1108 25.5214L31.9686 24.497L31.8052 22.1583C31.8004 22.0882 31.776 22.0209 31.7349 21.9639C31.6939 21.907 31.6377 21.8626 31.5727 21.8359C31.5078 21.8092 31.4367 21.8012 31.3674 21.8128C31.2982 21.8243 31.2335 21.855 31.1808 21.9014L29.1471 23.6828L26.6163 23.3868C26.5502 23.3789 26.4832 23.3886 26.4221 23.4151C26.361 23.4415 26.308 23.4837 26.2685 23.5372C26.229 23.5908 26.2044 23.6539 26.1972 23.7201C26.19 23.7863 26.2005 23.8532 26.2276 23.914L27.1548 26.023L25.7734 28.2156C25.7348 28.2772 25.7147 28.3486 25.7157 28.4213C25.7167 28.4939 25.7388 28.5648 25.7791 28.6252C25.8195 28.6857 25.8765 28.7331 25.9433 28.7619C26.01 28.7906 26.0837 28.7995 26.1553 28.7873L28.7426 28.3437L30.3846 29.9782C30.4312 30.0248 30.4892 30.0584 30.5529 30.0756C30.6166 30.0928 30.6836 30.093 30.7474 30.0762C30.8111 30.0593 30.8693 30.026 30.9162 29.9796C30.963 29.9332 30.9969 29.8753 31.0143 29.8117L31.6802 27.3916L34.1138 26.2015C34.178 26.1707 34.232 26.1222 34.2698 26.0619C34.3075 26.0015 34.3274 25.9317 34.3271 25.8605C34.3268 25.7893 34.3063 25.7197 34.268 25.6596C34.2297 25.5996 34.1752 25.5517 34.1108 25.5214ZM31.1958 26.7875C31.148 26.811 31.1056 26.8443 31.0716 26.8854C31.0376 26.9264 31.0127 26.9742 30.9985 27.0255L30.4592 28.9839L29.1403 27.6658C29.1053 27.6308 29.0637 27.6031 29.0179 27.5843C28.9722 27.5654 28.9232 27.5557 28.8737 27.5558C28.8247 27.5558 28.2538 27.6567 26.8641 27.8955L27.9013 26.249C27.9343 26.1968 27.954 26.1373 27.9586 26.0756C27.9632 26.014 27.9526 25.9523 27.9276 25.8957L27.185 24.21L29.2292 24.4488C29.2814 24.4552 29.3344 24.4504 29.3846 24.4349C29.4349 24.4193 29.4813 24.3932 29.5207 24.3584L31.1077 22.9687L31.2327 24.7682C31.2375 24.8346 31.2598 24.8987 31.2974 24.9537C31.3349 25.0088 31.3865 25.0529 31.4467 25.0815L33.0834 25.8648L31.1958 26.7875Z" fill="black"/>
<path id="Vector_32" d="M11.8141 83.4718L12.7292 82.6281C12.7656 82.5947 12.7951 82.5543 12.8159 82.5095C12.8367 82.4646 12.8485 82.4161 12.8505 82.3667C12.8526 82.3173 12.8449 82.2679 12.8279 82.2215C12.8109 82.175 12.7849 82.1324 12.7514 82.096C12.718 82.0596 12.6776 82.0302 12.6328 82.0093C12.5879 81.9885 12.5394 81.9767 12.49 81.9747C12.4405 81.9726 12.3912 81.9803 12.3448 81.9973C12.2983 82.0143 12.2557 82.0403 12.2193 82.0738L11.2597 82.9573L10.3001 82.0738C10.2643 82.0373 10.2214 82.0086 10.1741 81.9892C10.1268 81.9699 10.0761 81.9604 10.025 81.9612C9.9739 81.9621 9.92353 81.9734 9.87693 81.9944C9.83034 82.0153 9.7885 82.0456 9.75396 82.0832C9.71942 82.1209 9.69291 82.1652 9.67604 82.2134C9.65916 82.2617 9.65228 82.3128 9.65581 82.3638C9.65933 82.4148 9.6732 82.4645 9.69656 82.5099C9.71991 82.5554 9.75227 82.5956 9.79167 82.6281L10.7053 83.4687L9.79167 84.3123C9.75226 84.3449 9.71989 84.3852 9.69654 84.4307C9.67319 84.4762 9.65935 84.5259 9.65586 84.577C9.65237 84.628 9.65931 84.6792 9.67625 84.7274C9.69319 84.7756 9.71978 84.8199 9.7544 84.8576C9.78901 84.8952 9.83093 84.9254 9.8776 84.9463C9.92426 84.9672 9.97469 84.9784 10.0258 84.9792C10.077 84.98 10.1277 84.9703 10.175 84.9509C10.2223 84.9314 10.2651 84.9025 10.3008 84.866L11.2604 83.9832L12.22 84.8667C12.2936 84.9343 12.3909 84.97 12.4907 84.9658C12.5905 84.9616 12.6846 84.918 12.7522 84.8445C12.8198 84.771 12.8555 84.6736 12.8513 84.5738C12.8471 84.474 12.8035 84.38 12.73 84.3123L11.8141 83.4718Z" fill="black"/>
<path id="Vector_33" d="M140.275 57.6338L141.189 56.7932C141.225 56.7597 141.254 56.7194 141.275 56.6745C141.296 56.6297 141.308 56.5811 141.31 56.5317C141.312 56.4823 141.304 56.433 141.287 56.3865C141.27 56.3401 141.244 56.2974 141.211 56.261C141.177 56.2246 141.137 56.1952 141.092 56.1744C141.047 56.1536 140.999 56.1418 140.949 56.1397C140.9 56.1377 140.851 56.1454 140.804 56.1624C140.758 56.1794 140.715 56.2053 140.679 56.2388L139.721 57.1224L138.762 56.2396C138.688 56.1764 138.592 56.1443 138.495 56.1502C138.397 56.156 138.306 56.1993 138.24 56.2709C138.174 56.3426 138.139 56.437 138.141 56.5344C138.143 56.6318 138.183 56.7245 138.252 56.7932L139.165 57.6338L138.252 58.4744C138.178 58.542 138.135 58.6361 138.13 58.7358C138.126 58.8356 138.162 58.933 138.23 59.0065C138.297 59.08 138.391 59.1237 138.491 59.1278C138.591 59.132 138.688 59.0964 138.762 59.0287L139.721 58.149L140.681 59.0318C140.754 59.0994 140.852 59.135 140.952 59.1309C141.051 59.1267 141.145 59.083 141.213 59.0095C141.281 58.936 141.316 58.8387 141.312 58.7389C141.308 58.6391 141.264 58.545 141.191 58.4774L140.275 57.6338Z" fill="black"/>
<path id="Vector_34" d="M147.121 18.2842L146.207 17.4429L147.12 16.603C147.157 16.5695 147.186 16.5292 147.207 16.4843C147.228 16.4395 147.239 16.391 147.242 16.3415C147.244 16.2921 147.236 16.2428 147.219 16.1963C147.202 16.1499 147.176 16.1073 147.142 16.0709C147.109 16.0345 147.069 16.005 147.024 15.9842C146.979 15.9634 146.93 15.9516 146.881 15.9495C146.832 15.9475 146.782 15.9552 146.736 15.9722C146.689 15.9892 146.647 16.0152 146.61 16.0486L145.651 16.9322L144.693 16.0486C144.619 15.981 144.522 15.9454 144.422 15.9495C144.322 15.9537 144.228 15.9974 144.16 16.0709C144.093 16.1444 144.057 16.2417 144.061 16.3415C144.066 16.4413 144.109 16.5354 144.183 16.603L145.096 17.4429L144.183 18.2842C144.127 18.3355 144.088 18.4025 144.071 18.4763C144.054 18.5501 144.059 18.6274 144.087 18.698C144.114 18.7687 144.162 18.8293 144.225 18.8722C144.287 18.915 144.361 18.9379 144.437 18.938C144.633 18.938 144.611 18.9131 145.652 17.9588C146.652 18.8785 146.665 18.938 146.866 18.938C146.942 18.9379 147.016 18.915 147.079 18.8722C147.141 18.8293 147.189 18.7687 147.217 18.698C147.244 18.6274 147.25 18.5501 147.233 18.4763C147.216 18.4025 147.177 18.3355 147.121 18.2842Z" fill="black"/>
</g>
</g>
</svg>
