<svg width="151" height="151" viewBox="0 0 151 151" fill="none" xmlns="http://www.w3.org/2000/svg">
<g id="Page-Under-Construction--Streamline-London">
<g id="Page-Under-Construction--Streamline-London.svg">
<path id="Vector" d="M145.822 33.1412L127.218 14.5367C126.539 13.8601 125.619 13.4802 124.661 13.4802C123.702 13.4802 122.783 13.8601 122.104 14.5367L103.499 33.1412C103.162 33.4764 102.895 33.8749 102.713 34.3137C102.53 34.7526 102.436 35.2231 102.436 35.6983C102.436 36.1736 102.53 36.6441 102.713 37.0829C102.895 37.5218 103.162 37.9203 103.499 38.2555L122.104 56.8599C122.439 57.1956 122.837 57.462 123.275 57.6437C123.713 57.8254 124.183 57.9189 124.657 57.9189C125.131 57.9189 125.601 57.8254 126.039 57.6437C126.477 57.462 126.875 57.1956 127.21 56.8599L145.822 38.2404C146.494 37.562 146.871 36.6457 146.871 35.6908C146.871 34.7359 146.494 33.8196 145.822 33.1412ZM141.446 38.2555L127.21 52.4988C126.531 53.1754 125.612 53.5553 124.653 53.5553C123.695 53.5553 122.775 53.1754 122.096 52.4988L107.868 38.2555C107.532 37.9198 107.265 37.5211 107.084 37.0823C106.902 36.6436 106.808 36.1733 106.808 35.6983C106.808 35.2234 106.902 34.7531 107.084 34.3143C107.265 33.8756 107.532 33.4769 107.868 33.1412L122.096 18.8978C122.776 18.2208 123.697 17.8407 124.657 17.8407C125.617 17.8407 126.538 18.2208 127.218 18.8978L141.431 33.1412C141.767 33.4769 142.034 33.8756 142.215 34.3143C142.397 34.7531 142.491 35.2234 142.491 35.6983C142.491 36.1733 142.397 36.6436 142.215 37.0823C142.034 37.5211 141.767 37.9198 141.431 38.2555H141.446Z" fill="#81F8F8"/>
<path id="Vector_2" d="M45.7957 93.9481H52.4692L59.1878 77.302H52.326L45.7957 93.9481Z" fill="#FFD997"/>
<path id="Vector_3" d="M64.272 71.7664H70.953L77.6642 55.1204H70.8024L64.272 71.7664Z" fill="#FFD997"/>
<path id="Vector_4" d="M80.5868 71.7664H87.2678L93.979 55.1204H87.1172L80.5868 71.7664Z" fill="#FFD997"/>
<path id="Vector_5" d="M96.6753 71.9019H103.356L110.067 55.2559H103.206L96.6753 71.9019Z" fill="#FFD997"/>
<path id="Vector_6" d="M110.956 71.7665H117.637L119.294 67.6615L117.366 55.4368L110.956 71.7665Z" fill="#FFD997"/>
<path id="Vector_7" d="M49.1698 71.5555H55.8508L62.562 54.9094H61.2514C58.6546 57.2295 55.9421 59.4166 53.1242 61.4624L49.1698 71.5555Z" fill="#FFD997"/>
<path id="Vector_8" d="M60.9424 93.9481H67.6234L74.3346 77.302H67.4728L60.9424 93.9481Z" fill="#FFD997"/>
<path id="Vector_9" d="M77.3176 93.9481H83.9987L90.7098 77.302H83.848L77.3176 93.9481Z" fill="#FFD997"/>
<path id="Vector_10" d="M93.3007 93.9481H99.9817L106.693 77.302H99.831L93.3007 93.9481Z" fill="#FFD997"/>
<path id="Vector_11" d="M107.514 93.9481H114.195L117.826 84.9547L116.922 81.3016L117.765 80.7819L119.174 81.5953L120.906 77.302H114.045L107.514 93.9481Z" fill="#FFD997"/>
<path id="Vector_12" d="M25.9181 73.8149L23.6584 81.9195C23.6584 81.9195 24.6075 83.6294 30.9571 83.426C37.3067 83.2226 39.7095 82.5071 39.8225 82.1154C39.9354 81.7237 37.4875 73.9656 37.4875 73.9656C37.4875 73.9656 36.6665 74.5832 32.215 74.6661C27.7635 74.7489 25.9181 73.8149 25.9181 73.8149Z" fill="#81F8F8"/>
<path id="Vector_13" d="M21.2632 90.5518L18.7173 99.5904C18.7173 99.5904 22.2951 101.729 32.2149 101.556C42.1348 101.383 44.3869 99.7787 44.5752 99.402C44.7635 99.0254 42.18 90.5593 42.18 90.5593C42.18 90.5593 39.2123 92.2465 32.2902 92.3293C25.3682 92.4122 21.2632 90.5518 21.2632 90.5518Z" fill="#81F8F8"/>
<path id="Vector_14" d="M16.4052 107.808L14.7708 113.6C14.7708 113.6 18.3711 119.272 32.4563 119.098C46.5414 118.925 48.319 114.398 48.5826 114.014C48.8463 113.63 46.7523 107.815 46.7523 107.815C46.7523 107.815 44.8768 110.557 32.155 110.602C17.746 110.647 16.4052 107.808 16.4052 107.808Z" fill="#81F8F8"/>
<path id="Vector_15" d="M104.26 126.134L111.454 123.595C111.454 123.595 112.244 122.006 108.81 117.374C105.375 112.741 103.59 111.348 103.251 111.446C102.912 111.544 98.3928 117.411 98.3928 117.411C98.3928 117.411 99.2741 117.698 101.632 120.959C103.989 124.22 104.26 126.134 104.26 126.134Z" fill="#81F8F8"/>
<path id="Vector_16" d="M119.136 120.929L127.173 118.142C127.173 118.142 126.902 114.376 121.63 107.077C116.357 99.7784 114 98.9348 113.623 98.995C113.246 99.0553 108.283 105.352 108.283 105.352C108.283 105.352 111.077 106.693 114.723 111.792C118.368 116.891 119.136 120.929 119.136 120.929Z" fill="#81F8F8"/>
<path id="Vector_17" d="M134.314 115.362L139.639 113.532C139.639 113.532 142.004 108.184 134.562 97.7899C127.12 87.3956 122.616 88.209 122.194 88.2166C121.772 88.2241 118.504 92.9468 118.504 92.9468C118.504 92.9468 121.765 92.9468 128.393 102.43C135.91 113.125 134.314 115.362 134.314 115.362Z" fill="#81F8F8"/>
<path id="Vector_18" d="M142.742 35.6872C142.743 35.1788 142.643 34.6752 142.448 34.2058C142.253 33.7364 141.966 33.3106 141.605 32.953L127.369 18.7172C126.643 17.9932 125.66 17.5867 124.635 17.5867C123.609 17.5867 122.626 17.9932 121.9 18.7172L107.71 32.9681C106.989 33.691 106.584 34.6701 106.584 35.6909C106.584 36.7117 106.989 37.6909 107.71 38.4138L121.946 52.6496C122.304 53.0087 122.729 53.2937 123.198 53.4881C123.666 53.6825 124.169 53.7826 124.676 53.7826C125.183 53.7826 125.686 53.6825 126.154 53.4881C126.623 53.2937 127.048 53.0087 127.406 52.6496L141.605 38.4515C141.969 38.0898 142.257 37.659 142.453 37.1842C142.648 36.7095 142.746 36.2005 142.742 35.6872ZM141.235 38.0749L127.007 52.3106C126.694 52.6245 126.322 52.8735 125.912 53.0433C125.502 53.2132 125.063 53.3006 124.62 53.3006C124.176 53.3006 123.737 53.2132 123.327 53.0433C122.917 52.8735 122.545 52.6245 122.232 52.3106L108.034 38.0824C107.719 37.7695 107.469 37.3975 107.299 36.9877C107.128 36.5779 107.041 36.1385 107.041 35.6947C107.041 35.2509 107.128 34.8115 107.299 34.4017C107.469 33.9919 107.719 33.6199 108.034 33.307L122.27 19.0788C122.583 18.7649 122.955 18.516 123.365 18.3461C123.775 18.1762 124.214 18.0888 124.657 18.0888C125.101 18.0888 125.54 18.1762 125.95 18.3461C126.359 18.516 126.731 18.7649 127.045 19.0788L141.266 33.2995C141.579 33.6129 141.828 33.9851 141.998 34.3948C142.168 34.8045 142.256 35.2436 142.256 35.6872C142.256 36.1307 142.168 36.5699 141.998 36.9796C141.828 37.3893 141.579 37.7615 141.266 38.0749H141.235Z" fill="black"/>
<path id="Vector_19" d="M146.274 105.337C145.22 104.78 142.267 103.552 141.665 103.304L139.541 96.8485C139.379 95.8712 138.861 94.9884 138.087 94.3705C137.439 93.911 131.142 89.5574 125.9 85.9344C125.96 85.844 125.945 87.8702 125.945 57.9299C126.487 57.7421 126.979 57.4329 127.384 57.026L145.988 38.414C146.712 37.6882 147.119 36.705 147.119 35.6798C147.119 34.6547 146.712 33.6714 145.988 32.9457L127.384 14.3412C126.658 13.6173 125.675 13.2107 124.649 13.2107C123.624 13.2107 122.641 13.6173 121.915 14.3412L103.311 32.9457C102.587 33.6714 102.18 34.6547 102.18 35.6798C102.18 36.705 102.587 37.6882 103.311 38.414L121.915 57.0185C122.322 57.4264 122.817 57.7356 123.361 57.9223V84.1719L122.608 83.6296L121.606 77.2574C121.598 77.1995 121.569 77.1465 121.524 77.1079C121.48 77.0693 121.424 77.0476 121.365 77.0465H115.174L113.991 72.0225H119.761C119.797 72.0237 119.834 72.0161 119.866 72.0004C119.899 71.9847 119.928 71.9612 119.949 71.9321C120.062 71.8041 120.56 72.8285 117.69 55.4744C117.688 55.4447 117.68 55.4156 117.667 55.389C117.654 55.3623 117.635 55.3384 117.613 55.3188C117.591 55.2992 117.565 55.2843 117.536 55.2748C117.508 55.2653 117.478 55.2614 117.449 55.2635L111.189 55.2032C111.009 54.1939 109.999 48.3791 109.826 47.9422C109.758 47.7614 109.563 47.6409 108.719 47.5581C107.597 47.4375 103.085 47.3321 102.693 47.897C102.407 48.3414 101.94 53.403 101.759 55.1053L61.9743 54.6835C63.4821 53.2241 64.8747 51.6502 66.1396 49.9759C66.1614 49.9367 66.1728 49.8927 66.1728 49.8478C66.1728 49.803 66.1614 49.759 66.1396 49.7198C66.0944 49.6294 63.0364 43.2873 57.5002 39.4761C54.5291 37.3022 50.8442 36.3359 47.1887 36.772C36.2369 38.1881 30.6179 49.5315 31.2883 60.3552C30.987 60.7092 27.1682 65.3415 28.4713 68.264C29.2998 70.1169 31.8532 70.5236 33.8794 70.5236C36.085 70.4827 38.2678 70.0676 40.3344 69.2959L38.4137 75.6229C37.9618 73.9583 37.9844 73.9432 37.8714 73.8679C38.0145 72.6854 32.968 72.5799 31.7779 72.5799C30.5878 72.5799 25.4659 72.6929 25.6919 73.8905L23.4925 81.7014C23.4621 81.7428 23.4462 81.7931 23.4473 81.8445C23.4473 81.9198 23.711 80.9406 15.516 110.075C14.3786 110.414 6.77865 112.711 4.7751 113.675C3.08789 114.481 3.31386 115.558 4.2855 116.033C4.49641 116.116 25.9028 123.844 29.4429 125.072C30.41 125.419 31.4283 125.602 32.4558 125.614C33.2584 125.643 34.057 125.488 34.7908 125.162L58.1405 116.048C58.5285 115.867 58.8768 115.611 59.1648 115.295C59.662 115.295 61.4245 115.378 61.7936 115.061C61.9367 114.941 62.2304 114.685 58.3363 94.1822H94.905C91.5908 109.51 91.8394 109.751 91.9599 109.864C92.3741 110.263 98.0911 110.09 98.3923 109.864C98.5053 109.789 98.7614 109.616 101.405 94.152H111.114L112.425 99.6882L110.489 102.061C101.789 105.706 102.286 105.428 101.857 105.865C101.799 105.936 101.759 106.021 101.741 106.111C101.722 106.202 101.726 106.296 101.752 106.384C101.827 106.663 102.091 106.904 102.55 107.1C103.582 107.454 104.647 107.707 105.729 107.853C97.4809 117.931 97.9931 117.253 97.9931 117.396C97.0516 117.976 99.6126 121.705 100.253 122.616C100.893 123.527 103.71 127.278 104.493 126.382L111.408 123.881C111.459 123.881 111.509 123.865 111.551 123.836C111.626 123.784 110.625 124.168 136.889 114.677C137.846 115.34 144.421 119.874 145.348 120.191C146.591 120.613 146.967 119.603 146.606 118.353L143.292 108.282L145.928 107.122C147.141 106.753 147.208 105.819 146.274 105.337ZM127.037 56.6795C126.404 57.3092 125.547 57.6626 124.653 57.6626C123.76 57.6626 122.903 57.3092 122.269 56.6795L103.665 38.0675C103.351 37.7554 103.103 37.3845 102.933 36.976C102.764 36.5676 102.676 36.1297 102.676 35.6874C102.676 35.2451 102.764 34.8072 102.933 34.3987C103.103 33.9903 103.351 33.6193 103.665 33.3072L122.269 14.6952C122.903 14.0656 123.76 13.7121 124.653 13.7121C125.547 13.7121 126.404 14.0656 127.037 14.6952L145.642 33.3072C145.955 33.6193 146.204 33.9903 146.373 34.3987C146.543 34.8072 146.63 35.2451 146.63 35.6874C146.63 36.1297 146.543 36.5676 146.373 36.976C146.204 37.3845 145.955 37.7554 145.642 38.0675L127.037 56.6795ZM125.448 58.073V85.6256L123.761 84.4581C123.904 84.3451 123.851 86.1303 123.851 58.0956C124.379 58.1973 124.923 58.1896 125.448 58.073ZM121.124 77.5813L122.013 83.2831L119.392 81.4679C119.445 81.3473 121.124 77.5813 121.124 77.5813ZM114.639 77.0841H109.073L108.162 72.0602H113.434L114.639 77.0841ZM49.7346 77.0841L48.8759 72.0677H53.6664L54.7435 77.0841H49.7346ZM52.1072 77.5813L45.7651 93.3988L44.1608 77.5813H52.1072ZM43.0084 71.5555L42.6694 68.3544C46.2062 66.7074 49.5569 64.6874 52.6646 62.3286L48.9588 71.5555H43.0084ZM48.3788 72.0527L49.2375 77.0691H43.8896C43.855 77.0689 43.8207 77.076 43.789 77.0899C43.7572 77.1038 43.7288 77.1241 43.7054 77.1497C43.682 77.1752 43.6641 77.2053 43.6531 77.2382C43.642 77.271 43.6379 77.3057 43.6411 77.3402L45.3283 93.9938C45.3339 94.0558 45.3626 94.1133 45.4086 94.1552C45.4546 94.197 45.5146 94.2201 45.5768 94.2198H52.77L55.9109 112.606C52.6119 111.333 47.7536 109.518 47.6934 109.495C47.6494 109.48 47.6017 109.48 47.5578 109.495L40.9671 85.1134L45.3132 72.0376L48.3788 72.0527ZM52.3332 93.7227H46.1568L52.642 77.5813H58.8184L52.3332 93.7227ZM55.2406 77.0766L54.171 72.0527H99.1079L98.1287 77.0766H55.2406ZM97.0667 71.5555L103.454 55.6401L109.397 55.7079L103.04 71.5555H97.0667ZM99.605 72.0527H104.93L103.898 77.0766H98.6258L99.605 72.0527ZM105.435 72.0527H107.695L108.606 77.0766H104.395L105.435 72.0527ZM119.505 71.5555H117.999L119.098 68.7988L119.505 71.5555ZM119.008 67.7895L117.501 71.5555H111.363L117.388 56.4912L119.008 67.7895ZM117.117 55.738L110.805 71.5555H103.567L109.932 55.738H117.117ZM103.1 48.2058C103.59 47.8895 108.719 47.8669 109.382 48.2058C109.54 48.7557 110.225 52.5896 110.685 55.2258L105.57 55.1731C105.57 55.0978 105.646 55.4066 104.335 49.765C104.32 49.7021 104.281 49.6477 104.226 49.6138C104.171 49.5799 104.104 49.5692 104.041 49.5842C103.979 49.5992 103.924 49.6386 103.89 49.6937C103.856 49.7487 103.846 49.815 103.861 49.878L105.081 55.1505H102.271C102.565 51.9719 102.964 48.5071 103.1 48.2058ZM102.927 55.6175L96.5394 71.5555H87.644L94.0689 55.5422L102.927 55.6175ZM93.5416 55.512L87.1092 71.5555H81.0834L87.5385 55.4744L93.5416 55.512ZM86.9736 55.4442L80.5185 71.5555H71.3444L77.8371 55.3764L86.9736 55.4442ZM77.3098 55.3463L70.802 71.5555H64.6558L71.1786 55.2785L77.3098 55.3463ZM62.7803 55.1881L70.6514 55.271L64.1285 71.5555H56.2198C62.705 55.384 62.7577 55.271 62.7803 55.1881ZM62.253 55.1881L55.6925 71.5555H49.4935L53.4329 61.7637C53.5157 61.7035 60.596 56.0317 61.4772 55.2258L62.253 55.1881ZM65.6726 49.8177C56.7546 61.5227 45.7802 63.1873 43.98 63.3756C42.5062 57.9341 42.6186 52.1846 44.3039 46.8048C47.151 37.7888 55.0673 38.9488 56.0842 39.1672C61.8011 42.4362 65.168 48.8084 65.6726 49.8102V49.8177ZM39.5812 40.4854C41.813 38.7338 44.4791 37.622 47.2942 37.2691C49.9082 36.9329 52.5636 37.3702 54.9318 38.527C52.2353 38.414 46.2246 39.0844 43.8369 46.6994C41.8936 52.8682 42.2024 59.7376 43.754 64.3171C41.9408 64.8077 40.0793 65.0982 38.2028 65.1833C37.6455 63.24 32.9981 45.9085 43.852 40.2217C43.8857 40.2101 43.9166 40.1914 43.9424 40.1668C43.9683 40.1422 43.9885 40.1123 44.0018 40.0791C44.0151 40.046 44.021 40.0104 44.0193 39.9747C44.0176 39.9391 44.0082 39.9042 43.9918 39.8725C43.9754 39.8408 43.9524 39.813 43.9243 39.791C43.8962 39.769 43.8637 39.7533 43.829 39.745C43.7943 39.7367 43.7582 39.7359 43.7231 39.7428C43.6881 39.7497 43.655 39.764 43.626 39.7849C32.6441 45.5168 36.9751 62.6299 37.6605 65.1758C35.0017 65.1758 34.2334 64.6636 34.1053 64.5582C33.8266 63.5187 29.6915 48.5297 39.5812 40.4854ZM33.2768 49.7575C32.3321 53.9692 32.291 58.3334 33.1563 62.5621L31.9963 62.1479C31.4685 57.9742 31.9066 53.735 33.2768 49.7575ZM33.5555 70.0491C31.0548 69.9813 29.5107 69.2959 28.9684 68.1058C27.9817 65.8913 30.4748 62.3437 31.3862 61.131C31.3862 61.5528 31.4691 61.9746 31.5293 62.3964C31.5333 62.4411 31.5505 62.4835 31.5786 62.5184C31.6068 62.5533 31.6447 62.579 31.6875 62.5923L33.2768 63.1647C33.3894 63.7433 33.5378 64.3143 33.7212 64.8745C33.7815 64.9574 34.4368 65.703 37.6906 65.703C39.8744 65.6549 42.0432 65.3309 44.1457 64.7389C44.1777 64.7299 44.2073 64.7137 44.2321 64.6915C44.2569 64.6693 44.2763 64.6417 44.2888 64.6109C44.3566 64.4753 44.2888 64.4452 44.1231 63.8577C47.7552 63.3253 51.2553 62.1169 54.4422 60.295C50.7213 63.3078 41.3061 70.2223 33.5555 70.0491ZM40.9144 69.0925C41.3437 68.9268 41.7731 68.7536 42.1949 68.5728L42.5414 71.8493C42.5488 71.9099 42.5782 71.9656 42.624 72.0059C42.6698 72.0462 42.7289 72.0682 42.7899 72.0677H44.7935L40.7336 84.2849C36.8772 70.0265 39.9804 81.3398 38.6472 76.5569L40.9144 69.0925ZM26.4301 73.6721C28.1665 73.1865 29.9692 72.9806 31.7704 73.062C35.3933 73.062 37.2312 73.5666 37.3743 73.8152C37.2312 74.0713 35.3933 74.5684 31.7704 74.5684C29.9717 74.6446 28.1717 74.4516 26.4301 73.996C26.174 73.8905 26.0761 73.8152 26.4301 73.6721ZM26.076 74.3198C27.8235 75.299 35.8679 75.299 37.5325 74.3198L39.5888 81.9349C39.4155 82.4169 36.7341 83.2379 31.7628 83.2379C26.7916 83.2379 24.1026 82.3868 23.9445 81.9047L26.076 74.3198ZM23.8164 82.432C26.0007 84.0966 37.5701 84.1041 39.7545 82.432L41.8785 90.273C41.8785 91.0262 38.0447 92.0656 31.8005 92.0656C25.5563 92.0656 21.7225 91.0262 21.7225 90.273C21.6999 89.6327 21.0898 92.0656 23.7938 82.432H23.8164ZM21.4664 90.8002C23.598 93.1126 39.5436 93.1578 42.0442 90.8906C44.6805 100.615 44.1834 98.6638 44.1834 99.176C44.1834 100.125 39.423 101.436 31.6724 101.436C23.9219 101.436 19.1615 100.11 19.1615 99.176C19.1389 98.8897 18.8301 100.065 21.4438 90.8002H21.4664ZM18.9431 99.756C21.6622 102.648 41.9087 102.596 44.4319 99.7183C46.9025 108.855 46.5259 107.333 46.5259 107.665C46.5259 108.96 40.4248 110.406 31.6649 110.406C22.905 110.406 16.8115 108.96 16.8115 107.665C16.7889 107.25 16.337 108.945 18.9205 99.756H18.9431ZM16.5479 108.275C19.3122 111.732 43.8444 111.77 46.7594 108.275L48.3411 114.12C44.0403 120.319 19.2519 120.665 15.0565 113.54C16.5705 108.162 14.4916 115.513 16.5253 108.275H16.5479ZM57.9748 115.573L34.6251 124.695C34.6251 124.695 32.7646 125.674 29.6162 124.589C26.061 123.377 4.65458 115.649 4.47381 115.589C3.60008 115.107 4.0746 114.549 4.97846 114.082C6.77865 113.239 13.5576 111.175 15.3503 110.632C14.4916 113.683 14.4916 113.585 14.5518 113.706C18.0995 121.321 45.1852 120.944 48.8006 114.308C48.8684 114.18 48.9211 114.496 47.7009 110L57.9522 113.901C58.5773 114.157 58.9313 114.436 58.9313 114.655C58.9389 115.031 58.2685 115.438 57.9522 115.573H57.9748ZM61.432 114.73C60.7723 114.836 60.1029 114.868 59.436 114.828C59.564 114.135 58.8033 113.706 58.1555 113.449L56.4683 112.787L53.2973 94.1972H57.8618C59.308 101.948 61.4019 113.449 61.4094 114.73H61.432ZM60.7918 93.7001H52.868L59.3531 77.5813H67.2544L60.7918 93.7001ZM67.4803 93.7001H61.304L67.7892 77.5813H73.9429L67.4803 93.7001ZM77.1893 93.7001H67.9925L74.4702 77.5813H83.6519L77.1893 93.7001ZM83.8026 93.7001H77.7166L84.1792 77.5813H90.2576L83.8026 93.7001ZM93.2027 93.7001H84.3072L90.7924 77.5813H99.6653L93.2027 93.7001ZM93.7375 93.7001L100.177 77.5813H106.331L99.8461 93.7377L93.7375 93.7001ZM98.1136 109.518C96.2118 109.676 94.3008 109.691 92.3967 109.563C92.4419 108.433 94.2045 99.9518 95.4096 94.2198H100.931C99.9364 100.02 98.4149 108.523 98.0911 109.495L98.1136 109.518ZM107.476 93.7001H100.419L106.896 77.5436H113.954L107.476 93.7001ZM108.003 93.7001L114.489 77.5813H120.514L119.008 81.1967L118.729 81.0084C118.24 80.564 117.328 80.3682 116.914 80.8427C116.724 81.1122 116.639 81.4413 116.673 81.7691L117.494 84.654L113.999 93.7377L108.003 93.7001ZM117.712 85.4147L119.384 91.3049L117.411 93.7076H114.489L117.712 85.4147ZM111.687 94.2047H117.027L112.884 99.2588L111.687 94.2047ZM102.294 106.309C102.219 106.06 102.738 105.925 109.886 102.927C106.821 106.693 106.346 107.205 106.12 107.446C105.45 107.386 102.437 106.874 102.256 106.301L102.294 106.309ZM104.072 126.066C103.582 125.795 102.354 124.657 100.735 122.398C98.9347 119.882 98.2944 118.278 98.3321 117.878C98.6861 117.961 99.9967 119.091 101.797 121.607C103.424 123.866 104.102 125.41 104.192 125.953C104.185 126.141 104.094 126.088 104.034 126.058L104.072 126.066ZM111.4 123.414C111.406 123.442 111.406 123.47 111.4 123.497L104.704 125.915C104.418 124.025 100.26 118.232 98.6334 117.487L103.153 111.958C103.318 111.958 103.831 112.124 104.878 113.11C106.112 114.317 107.231 115.636 108.222 117.05C110.406 120.183 111.476 122.669 111.363 123.407L111.4 123.414ZM118.85 120.537C118.805 120.801 118.722 120.688 118.669 120.861L111.89 123.309C111.89 120.741 105.864 112.327 103.477 111.529C108.501 105.39 108.056 105.917 108.131 105.865C108.207 105.812 108.99 105.91 110.489 107.318C112.067 108.861 113.495 110.551 114.752 112.365C117.599 116.387 119.008 119.573 118.812 120.515L118.85 120.537ZM126.668 117.939C126.525 118.044 127.421 117.713 119.339 120.62C119.814 117.773 111.536 106.083 108.516 105.375C114.376 98.2194 113.035 99.7559 113.464 99.4697C113.894 99.1835 114.692 99.6204 116.477 101.27C118.425 103.183 120.19 105.274 121.75 107.514C125.787 113.231 127.331 117.434 126.63 117.931L126.668 117.939ZM134.2 115.174C133.906 115.385 135.27 114.865 127.278 117.75C127.579 115.988 125.109 111.393 122.126 107.205C120.532 104.952 118.731 102.851 116.748 100.931C115.438 99.7032 114.436 99.0404 113.735 98.9575C119.068 92.4422 118.255 93.4063 118.466 93.2557C119.422 92.5703 123.7 96.3213 128.318 102.791C130.228 105.394 131.895 108.168 133.296 111.077C134.502 113.736 134.532 114.903 134.17 115.167L134.2 115.174ZM134.84 115.024C135.82 111.16 123.128 93.1804 118.895 92.6908L122.352 88.4652C123.105 88.4652 127.881 88.8795 134.697 98.4152C141.514 107.951 139.767 112.681 139.48 113.336C136.867 114.263 135.993 114.587 134.825 115.016L134.84 115.024ZM146.207 118.594C146.297 118.895 146.402 119.603 146.207 119.822C146.011 120.04 145.815 119.889 145.619 119.822C144.866 119.581 139.895 116.176 137.575 114.549C139.977 113.683 139.834 113.743 139.925 113.63C140.015 113.517 142.621 108.576 135.149 98.1064C127.527 87.4409 122.45 87.9229 122.239 87.953C122.028 87.9832 122.277 87.8024 119.806 90.8153C119.678 90.3483 117.351 82.1006 117.208 81.6336C117.208 81.3624 117.26 81.031 117.562 81.0159C117.896 80.9998 118.224 81.1161 118.473 81.3398C118.654 81.4679 136.746 93.9637 137.868 94.7546C138.538 95.3111 138.987 96.0884 139.134 96.9465L146.207 118.594ZM146.417 106.324C146.261 106.525 146.053 106.678 145.815 106.768L143.209 107.913L141.868 103.944C142.885 104.366 145.167 105.337 146.041 105.797C146.267 105.887 146.515 106.098 146.387 106.316L146.417 106.324Z" fill="black"/>
<path id="Vector_20" d="M28.3433 131.489C28.2774 131.489 28.2142 131.515 28.1676 131.562C28.121 131.608 28.0948 131.672 28.0948 131.738C28.0948 132.37 26.5055 133.086 24.2157 133.086C21.9259 133.086 20.3366 132.37 20.3366 131.738C20.3366 131.361 20.9241 130.947 21.8431 130.683C21.8739 130.674 21.9027 130.66 21.9277 130.64C21.9528 130.62 21.9737 130.595 21.9891 130.567C22.0045 130.539 22.0142 130.508 22.0176 130.476C22.021 130.445 22.018 130.412 22.0088 130.382C22.0011 130.35 21.987 130.321 21.9673 130.295C21.9476 130.27 21.9228 130.248 21.8945 130.233C21.8662 130.217 21.835 130.208 21.8028 130.205C21.7706 130.202 21.7381 130.206 21.7075 130.216C20.5249 130.547 19.847 131.105 19.847 131.723C19.847 132.92 22.1067 133.56 24.2157 133.56C26.3247 133.56 28.5844 132.92 28.5844 131.723C28.5824 131.66 28.5561 131.6 28.5111 131.557C28.4662 131.513 28.406 131.489 28.3433 131.489Z" fill="black"/>
<path id="Vector_21" d="M77.4457 116.244C77.3798 116.244 77.3165 116.27 77.2699 116.316C77.2233 116.363 77.1971 116.426 77.1971 116.492C77.1971 117.132 75.6003 117.84 73.318 117.84C71.0358 117.84 69.439 117.132 69.439 116.492C69.439 116.116 70.0265 115.739 70.9454 115.445C71.0082 115.426 71.0609 115.383 71.092 115.325C71.123 115.267 71.1299 115.199 71.1111 115.136C71.1025 115.106 71.0878 115.077 71.0679 115.052C71.048 115.027 71.0233 115.006 70.9952 114.99C70.9672 114.975 70.9363 114.965 70.9045 114.962C70.8727 114.958 70.8405 114.961 70.8098 114.971C67.4957 115.912 68.7611 118.33 73.318 118.33C75.8112 118.33 77.6867 117.577 77.6867 116.492C77.6877 116.46 77.6822 116.428 77.6706 116.398C77.6589 116.367 77.6413 116.34 77.6188 116.317C77.5963 116.294 77.5694 116.275 77.5397 116.263C77.5099 116.25 77.478 116.244 77.4457 116.244Z" fill="black"/>
<path id="Vector_22" d="M98.8823 135.338C98.8183 135.338 98.757 135.363 98.7118 135.408C98.6666 135.454 98.6412 135.515 98.6412 135.579C98.6412 136.219 97.0444 136.927 94.7622 136.927C91.4781 136.927 89.2637 135.421 92.382 134.532C92.4167 134.526 92.4499 134.514 92.4793 134.494C92.5087 134.475 92.5337 134.45 92.5526 134.42C92.5715 134.39 92.5839 134.357 92.5889 134.322C92.594 134.287 92.5916 134.252 92.582 134.218C92.5723 134.184 92.5556 134.153 92.5329 134.126C92.5102 134.099 92.4821 134.077 92.4504 134.062C92.4187 134.047 92.3841 134.039 92.3489 134.038C92.3138 134.037 92.2788 134.044 92.2464 134.057C91.0639 134.396 90.386 134.954 90.386 135.564C90.386 136.761 92.6456 137.409 94.7622 137.409C96.8787 137.409 99.1308 136.761 99.1308 135.564C99.1269 135.501 99.0988 135.443 99.0524 135.4C99.006 135.358 98.945 135.336 98.8823 135.338Z" fill="black"/>
<path id="Vector_23" d="M68.9342 119.671C68.8683 119.671 68.805 119.697 68.7584 119.744C68.7118 119.79 68.6856 119.854 68.6856 119.92C68.6856 120.228 67.7592 120.673 66.313 120.673C64.8668 120.673 63.9328 120.213 63.9328 119.92C63.9328 119.761 64.2115 119.513 64.8292 119.332C64.86 119.323 64.8888 119.309 64.9138 119.289C64.9389 119.269 64.9598 119.244 64.9752 119.216C64.9906 119.188 65.0003 119.157 65.0037 119.125C65.007 119.094 65.0041 119.061 64.9949 119.031C64.9772 118.968 64.9358 118.915 64.8795 118.883C64.8232 118.85 64.7565 118.841 64.6936 118.857C63.8876 119.091 63.4432 119.468 63.4432 119.92C63.4432 120.733 64.9497 121.177 66.313 121.177C67.6763 121.177 69.1752 120.733 69.1752 119.92C69.1762 119.887 69.1707 119.855 69.1591 119.825C69.1474 119.795 69.1298 119.767 69.1073 119.744C69.0849 119.721 69.0579 119.703 69.0282 119.69C68.9984 119.677 68.9665 119.671 68.9342 119.671Z" fill="black"/>
<path id="Vector_24" d="M81.4381 120.319C81.4058 120.318 81.3737 120.323 81.3436 120.335C81.3134 120.346 81.286 120.364 81.2628 120.386C81.2396 120.409 81.2212 120.436 81.2086 120.466C81.196 120.495 81.1895 120.527 81.1896 120.56C81.1896 120.688 80.6548 120.996 79.6831 120.996C78.7115 120.996 78.1767 120.688 78.1767 120.56C78.1767 120.432 78.3047 120.364 78.719 120.251C78.7821 120.232 78.8353 120.189 78.8676 120.131C78.8999 120.074 78.9087 120.006 78.8922 119.942C78.8731 119.879 78.8299 119.826 78.772 119.795C78.7141 119.764 78.6464 119.757 78.5834 119.776C78.0035 119.942 77.6796 120.221 77.6796 120.529C77.6796 121.17 78.7265 121.463 79.7057 121.463C81.8599 121.494 81.9277 120.319 81.4381 120.319Z" fill="black"/>
<path id="Vector_25" d="M124.65 41.1177C124.155 41.1177 123.672 41.2643 123.26 41.5391C122.849 41.8139 122.529 42.2044 122.339 42.6614C122.15 43.1183 122.101 43.6211 122.197 44.1062C122.294 44.5913 122.532 45.0369 122.881 45.3866C123.231 45.7363 123.677 45.9745 124.162 46.071C124.647 46.1675 125.15 46.1179 125.607 45.9287C126.064 45.7394 126.454 45.4189 126.729 45.0077C127.004 44.5964 127.15 44.1129 127.15 43.6184C127.15 42.9551 126.887 42.3191 126.418 41.8501C125.949 41.3811 125.313 41.1177 124.65 41.1177Z" fill="black"/>
<path id="Vector_26" d="M124.649 40.2368C126.502 40.2368 127.821 30.0458 127.753 28.4942C127.602 24.4419 121.471 24.6076 121.546 28.7126C121.561 29.7671 122.691 40.2368 124.649 40.2368Z" fill="black"/>
</g>
</g>
</svg>
