<svg width="151" height="151" viewBox="0 0 151 151" fill="none" xmlns="http://www.w3.org/2000/svg">
<g id="Reset-Password--Streamline-London">
<g id="Reset-Password--Streamline-London.svg">
<g id="tablet">
<path id="vector" d="M47.4594 36.4812H99.2166C100.507 36.4812 101.744 36.9938 102.657 37.9064C103.569 38.8189 104.082 40.0565 104.082 41.347V113.899C104.082 114.538 103.957 115.17 103.712 115.761C103.468 116.351 103.109 116.887 102.657 117.339C102.205 117.791 101.669 118.149 101.079 118.393C100.489 118.638 99.8561 118.764 99.2174 118.764H47.4601C46.8212 118.764 46.1884 118.638 45.5981 118.393C45.0077 118.149 44.4714 117.791 44.0195 117.339C43.5677 116.887 43.2093 116.351 42.9647 115.76C42.7202 115.17 42.5944 114.537 42.5944 113.898V41.347C42.5943 40.708 42.72 40.0753 42.9645 39.485C43.2089 38.8947 43.5673 38.3582 44.019 37.9064C44.4708 37.4546 45.0071 37.0961 45.5974 36.8516C46.1877 36.6071 46.8204 36.4812 47.4594 36.4812Z" fill="black"/>
<path id="vector_2" fill-rule="evenodd" clip-rule="evenodd" d="M101.882 42.0603C101.877 41.2052 101.533 40.3871 100.924 39.7859C100.317 39.1848 99.494 38.8498 98.6391 38.8546L80.458 38.8764C79.7259 40.2887 79.7597 40.3211 79.5617 40.3219L68.6016 40.3723C68.4382 40.4168 68.4434 40.3362 67.5004 38.8742L48.0365 38.8531C47.6131 38.8505 47.1933 38.9314 46.8011 39.0911C46.409 39.2509 46.0521 39.4863 45.751 39.784C45.4498 40.0817 45.2103 40.4358 45.0461 40.8261C44.8819 41.2165 44.7962 41.6353 44.7939 42.0588V112.854C44.7962 113.278 44.8819 113.696 45.0461 114.087C45.2103 114.478 45.4498 114.832 45.751 115.129C46.0521 115.427 46.409 115.662 46.8011 115.822C47.1933 115.982 47.6131 116.062 48.0365 116.06H98.6391C99.0624 116.062 99.4827 115.982 99.8744 115.822C100.267 115.662 100.624 115.427 100.924 115.129C101.226 114.832 101.465 114.478 101.63 114.087C101.794 113.696 101.88 113.278 101.882 112.854V42.0603Z" fill="white"/>
<path id="vector_3" d="M87.8622 64.108H58.8144C57.9039 64.1175 57.0004 63.9463 56.1564 63.6045C55.3123 63.2627 54.5445 62.7568 53.8973 62.1163C53.25 61.4757 52.7362 60.7132 52.3855 59.8728C52.0348 59.0324 51.8542 58.1308 51.8542 57.2202C51.8542 56.3096 52.0348 55.408 52.3855 54.5676C52.7362 53.7272 53.25 52.9647 53.8973 52.3241C54.5445 51.6836 55.3123 51.1777 56.1564 50.8359C57.0004 50.494 57.9039 50.3228 58.8144 50.3324H87.8622C88.7728 50.3228 89.6759 50.494 90.5203 50.8359C91.3639 51.1777 92.1322 51.6836 92.7792 52.3241C93.427 52.9647 93.9407 53.7272 94.2909 54.5676C94.6419 55.408 94.8227 56.3096 94.8227 57.2202C94.8227 58.1308 94.6419 59.0324 94.2909 59.8728C93.9407 60.7132 93.427 61.4757 92.7792 62.1163C92.1322 62.7568 91.3639 63.2627 90.5203 63.6045C89.6759 63.9463 88.7728 64.1175 87.8622 64.108ZM58.8144 50.8228C57.1297 50.8411 55.5202 51.5231 54.3354 52.7209C53.1506 53.9186 52.486 55.5354 52.486 57.2202C52.486 58.905 53.1506 60.5218 54.3354 61.7195C55.5202 62.9173 57.1297 63.5993 58.8144 63.6176H87.8622C89.5471 63.5993 91.156 62.9173 92.3408 61.7195C93.5264 60.5218 94.1907 58.905 94.1907 57.2202C94.1907 55.5354 93.5264 53.9186 92.3408 52.7209C91.156 51.5231 89.5471 50.8411 87.8622 50.8228H58.8144Z" fill="black"/>
<path id="vector_4" d="M87.8622 82.4088H58.8144C57.9039 82.4185 57.0004 82.2468 56.1564 81.9056C55.3123 81.5636 54.5445 81.0575 53.8973 80.4173C53.25 79.7763 52.7362 79.014 52.3855 78.1734C52.0348 77.3328 51.8542 76.4312 51.8542 75.5213C51.8542 74.6103 52.0348 73.7087 52.3855 72.8684C52.7362 72.0279 53.25 71.2654 53.8973 70.6249C54.5445 69.9844 55.3123 69.4785 56.1564 69.1366C57.0004 68.7948 57.9039 68.6237 58.8144 68.6332H87.8622C88.7728 68.6237 89.6759 68.7948 90.5203 69.1366C91.3639 69.4785 92.1322 69.9844 92.7792 70.6249C93.427 71.2654 93.9407 72.0279 94.2909 72.8684C94.6419 73.7087 94.8227 74.6103 94.8227 75.5213C94.8227 76.4312 94.6419 77.3328 94.2909 78.1734C93.9407 79.014 93.427 79.7763 92.7792 80.4173C92.1322 81.0575 91.3639 81.5636 90.5203 81.9056C89.6759 82.2468 88.7728 82.4185 87.8622 82.4088ZM58.8144 69.1235C57.1297 69.1418 55.5202 69.8239 54.3354 71.0216C53.1506 72.2194 52.486 73.8362 52.486 75.5213C52.486 77.2055 53.1506 78.8227 54.3354 80.0203C55.5202 81.2179 57.1297 81.9003 58.8144 81.9184H87.8622C89.5471 81.9003 91.156 81.2179 92.3408 80.0203C93.5264 78.8227 94.1907 77.2055 94.1907 75.5213C94.1907 73.8362 93.5264 72.2194 92.3408 71.0216C91.156 69.8239 89.5471 69.1418 87.8622 69.1235H58.8144Z" fill="black"/>
<path id="vector_5" fill-rule="evenodd" clip-rule="evenodd" d="M72.9472 90.9556C79 90.9556 83.9132 92.6081 83.9132 94.6463C83.9132 96.6845 79 98.3371 72.9472 98.3371C66.8943 98.3371 61.9811 96.6845 61.9811 94.6463C61.9811 92.6081 66.8951 90.9556 72.9472 90.9556Z" fill="#81F8F8"/>
<path id="vector_6" d="M72.948 98.577C66.6609 98.577 61.7356 96.8499 61.7356 94.6437C61.7356 92.4376 66.6609 90.7112 72.948 90.7112C79.2351 90.7112 84.1588 92.4383 84.1588 94.6437C84.1588 96.8491 79.2381 98.577 72.948 98.577ZM72.948 91.2015C66.5343 91.2015 62.2267 92.9814 62.2267 94.6437C62.2267 96.3061 66.5343 98.0867 72.948 98.0867C79.3616 98.0867 83.6677 96.3061 83.6677 94.6437C83.6677 92.9814 79.3601 91.2015 72.948 91.2015Z" fill="black"/>
<path id="vector_7" d="M62.9739 58.9146L60.5515 57.2575L62.9739 55.6004C63.0277 55.5636 63.0645 55.5069 63.0765 55.4428C63.0884 55.3788 63.0744 55.3126 63.0375 55.2589C63.0007 55.2051 62.944 55.1683 62.88 55.1563C62.8159 55.1444 62.7497 55.1584 62.6959 55.1952L60.361 56.7935V53.9607C60.3575 53.8978 60.3301 53.8387 60.2844 53.7954C60.2386 53.7521 60.178 53.728 60.115 53.728C60.0521 53.728 59.9915 53.7521 59.9458 53.7954C59.9 53.8387 59.8726 53.8978 59.8691 53.9607V56.792L57.5342 55.1937C57.5076 55.1754 57.4776 55.1625 57.446 55.1558C57.4145 55.149 57.3819 55.1487 57.3501 55.1545C57.3184 55.1604 57.288 55.1725 57.261 55.19C57.2338 55.2076 57.2105 55.2304 57.1922 55.257C57.1739 55.2836 57.161 55.3135 57.1543 55.3451C57.1476 55.3767 57.1471 55.4093 57.153 55.4411C57.1589 55.4728 57.171 55.5031 57.1886 55.5302C57.2061 55.5573 57.2289 55.5806 57.2555 55.5989L59.6778 57.256L57.2555 58.9131C57.2127 58.943 57.1804 58.9858 57.1636 59.0352C57.1466 59.0847 57.1459 59.1382 57.1614 59.1881C57.1769 59.238 57.2079 59.2816 57.2498 59.3127C57.2918 59.3439 57.3425 59.3609 57.3948 59.3613C57.504 59.3613 57.3315 59.4569 59.8669 57.72V60.5483C59.8703 60.6112 59.8977 60.6703 59.9435 60.7136C59.9893 60.7569 60.0498 60.781 60.1128 60.781C60.1758 60.781 60.2363 60.7569 60.2821 60.7136C60.3278 60.6703 60.3553 60.6112 60.3587 60.5483V57.7215C62.8993 59.4622 62.7208 59.3628 62.8308 59.3628C62.8836 59.3637 62.9353 59.3476 62.9783 59.3168C63.0212 59.2861 63.053 59.2422 63.0692 59.1919C63.0852 59.1416 63.0846 59.0875 63.0675 59.0375C63.0503 58.9875 63.0175 58.9444 62.9739 58.9146Z" fill="black"/>
<path id="vector_8" d="M62.9739 76.8816L60.5516 75.2246L62.9739 73.5675C63.0277 73.5306 63.0645 73.4739 63.0765 73.4098C63.0884 73.3458 63.0744 73.2796 63.0376 73.2259C63.0007 73.1721 62.944 73.1353 62.88 73.1233C62.8159 73.1114 62.7498 73.1254 62.696 73.1623L60.361 74.7606V71.9277C60.3575 71.8648 60.3301 71.8057 60.2844 71.7624C60.2386 71.7192 60.178 71.6951 60.1151 71.6951C60.0521 71.6951 59.9915 71.7192 59.9458 71.7624C59.9 71.8057 59.8726 71.8648 59.8692 71.9277V74.7561L57.5342 73.1577C57.4805 73.1208 57.4143 73.1067 57.3501 73.1186C57.286 73.1304 57.2292 73.1672 57.1922 73.221C57.1552 73.2747 57.1412 73.3409 57.1531 73.4051C57.1649 73.4692 57.2018 73.526 57.2555 73.563L59.6778 75.22L57.2555 76.8771C57.2127 76.9073 57.1805 76.9502 57.1636 76.9991C57.1466 77.0489 57.1459 77.1023 57.1614 77.152C57.1769 77.2018 57.2079 77.2454 57.2498 77.2771C57.2918 77.308 57.3426 77.3245 57.3948 77.3253C57.504 77.3253 57.3316 77.4209 59.8669 75.684V78.5124C59.8704 78.5749 59.8978 78.6344 59.9436 78.6773C59.9893 78.721 60.0498 78.7451 60.1128 78.7451C60.1758 78.7451 60.2363 78.721 60.2821 78.6773C60.3279 78.6344 60.3553 78.5749 60.3587 78.5124V75.684C62.8993 77.4247 62.7208 77.3253 62.8308 77.3253C62.8824 77.3245 62.9326 77.308 62.9741 77.2778C63.0158 77.247 63.0467 77.204 63.0626 77.1551C63.0784 77.1061 63.0783 77.0534 63.0624 77.0044C63.0465 76.9547 63.0156 76.9118 62.9739 76.8816Z" fill="black"/>
<path id="vector_9" d="M71.5274 58.9145L69.105 57.2575L71.5274 55.6004C71.5811 55.5636 71.618 55.5068 71.63 55.4427C71.6419 55.3787 71.6279 55.3125 71.591 55.2588C71.5542 55.2051 71.4975 55.1682 71.4334 55.1562C71.3693 55.1443 71.3031 55.1583 71.2494 55.1952L68.919 56.792V53.9606C68.919 53.8955 68.8931 53.833 68.8471 53.787C68.801 53.7409 68.7386 53.7151 68.6734 53.7151C68.6083 53.7151 68.5458 53.7409 68.4998 53.787C68.4537 53.833 68.4279 53.8955 68.4279 53.9606V56.792L66.0929 55.1936C66.0392 55.1568 65.973 55.1428 65.9089 55.1547C65.8449 55.1667 65.7882 55.2036 65.7513 55.2573C65.7145 55.311 65.7005 55.3772 65.7124 55.4413C65.7244 55.5053 65.7613 55.562 65.815 55.5989L68.2373 57.256L65.815 58.913C65.7721 58.9429 65.74 58.9857 65.7231 59.0352C65.7061 59.0846 65.7054 59.1382 65.7209 59.188C65.7364 59.2379 65.7674 59.2816 65.8093 59.3127C65.8513 59.3439 65.9021 59.3608 65.9543 59.3612C66.0628 59.3612 65.8911 59.4569 68.4264 57.7199V60.5483C68.4264 60.6134 68.4522 60.6759 68.4983 60.7219C68.5443 60.768 68.6068 60.7938 68.6719 60.7938C68.7371 60.7938 68.7995 60.768 68.8455 60.7219C68.8916 60.6759 68.9175 60.6134 68.9175 60.5483V57.7214C71.4581 59.4621 71.2803 59.3627 71.3895 59.3627C71.4417 59.362 71.4922 59.3448 71.5339 59.3136C71.5757 59.2823 71.6064 59.2386 71.6217 59.1889C71.637 59.139 71.6361 59.0856 71.6192 59.0363C71.6022 58.9871 71.5701 58.9444 71.5274 58.9145Z" fill="black"/>
<path id="vector_10" d="M71.5275 76.8811L69.1051 75.224L71.5275 73.5669C71.5812 73.5301 71.6181 73.4734 71.6301 73.4094C71.642 73.3453 71.628 73.2791 71.5911 73.2254C71.5543 73.1717 71.4976 73.1347 71.4336 73.1228C71.3695 73.1109 71.3033 73.1249 71.2496 73.1617L68.9146 74.76V71.9272C68.9146 71.862 68.8887 71.7996 68.8426 71.7536C68.7966 71.7075 68.7342 71.6816 68.669 71.6816C68.6039 71.6816 68.5414 71.7075 68.4954 71.7536C68.4493 71.7996 68.4235 71.862 68.4235 71.9272V74.7555L66.0885 73.1572C66.0619 73.139 66.0319 73.1261 66.0004 73.1195C65.9688 73.1127 65.9363 73.1124 65.9046 73.1183C65.8728 73.1242 65.8426 73.1362 65.8155 73.1539C65.7885 73.1715 65.7652 73.1943 65.7469 73.2208C65.7287 73.2474 65.7158 73.2774 65.7092 73.309C65.7025 73.3405 65.7021 73.3731 65.708 73.4048C65.7139 73.4366 65.726 73.4668 65.7436 73.4938C65.7612 73.5208 65.784 73.5442 65.8106 73.5624L68.2329 75.2195L65.8106 76.8766C65.7678 76.9067 65.7356 76.9496 65.7187 76.9986C65.7017 77.0483 65.701 77.1018 65.7165 77.1515C65.732 77.2012 65.763 77.2449 65.8049 77.2765C65.8469 77.3074 65.8976 77.3247 65.9499 77.3247C66.0584 77.3247 65.8866 77.4204 68.422 75.6835V78.5118C68.422 78.5766 68.4478 78.6391 68.4939 78.6858C68.5399 78.7317 68.6024 78.7574 68.6675 78.7574C68.7327 78.7574 68.7951 78.7317 68.8411 78.6858C68.8872 78.6391 68.9131 78.5766 68.9131 78.5118V75.6835C71.4537 77.4242 71.2759 77.3247 71.3851 77.3247C71.4364 77.324 71.4861 77.3067 71.5273 77.2758C71.5685 77.2457 71.599 77.2027 71.6147 77.1538C71.6304 77.1048 71.6304 77.0521 71.6148 77.0031C71.5991 76.9549 71.5686 76.912 71.5275 76.8811Z" fill="black"/>
<path id="vector_11" d="M80.0813 58.9146L77.659 57.2575L80.0813 55.6004C80.1077 55.5822 80.131 55.5589 80.1483 55.5318C80.1657 55.5048 80.1777 55.4745 80.1837 55.4428C80.1898 55.4111 80.189 55.3785 80.183 55.347C80.1762 55.3154 80.1634 55.2855 80.1453 55.2589C80.1265 55.2323 80.1031 55.2095 80.076 55.1919C80.0497 55.1743 80.0188 55.1622 79.9871 55.1563C79.9555 55.1504 79.9231 55.1508 79.8915 55.1575C79.8599 55.1641 79.8297 55.177 79.8034 55.1952L77.4684 56.7935V53.9607C77.4646 53.8978 77.4375 53.8387 77.3916 53.7954C77.3464 53.7521 77.2854 53.728 77.2221 53.728C77.1596 53.728 77.0986 53.7521 77.0534 53.7954C77.0074 53.8387 76.9803 53.8978 76.9765 53.9607V56.792L74.6416 55.1937C74.615 55.1754 74.585 55.1625 74.5534 55.1558C74.5218 55.149 74.4893 55.1487 74.4575 55.1545C74.4257 55.1604 74.3954 55.1725 74.3684 55.19C74.3413 55.2076 74.3179 55.2304 74.2996 55.257C74.2813 55.2836 74.2684 55.3135 74.2617 55.3451C74.255 55.3767 74.2546 55.4093 74.2604 55.4411C74.2663 55.4728 74.2784 55.5031 74.2959 55.5302C74.3135 55.5573 74.3363 55.5806 74.3629 55.5989L76.7852 57.256L74.3629 58.9131C74.32 58.943 74.2879 58.9858 74.271 59.0352C74.254 59.0847 74.2533 59.1382 74.2688 59.1881C74.2843 59.238 74.3153 59.2816 74.3572 59.3127C74.3992 59.3439 74.45 59.3609 74.5022 59.3613C74.6107 59.3613 74.439 59.4569 76.9743 57.72V60.5483C76.9781 60.6112 77.0052 60.6703 77.0511 60.7136C77.0963 60.7569 77.1573 60.781 77.2206 60.781C77.2831 60.781 77.3441 60.7569 77.3893 60.7136C77.4353 60.6703 77.4624 60.6112 77.4661 60.5483V57.7215C80.0067 59.4622 79.8282 59.3628 79.9382 59.3628C79.9909 59.3637 80.0429 59.3476 80.0858 59.3168C80.1288 59.2861 80.1604 59.2422 80.1762 59.1919C80.1928 59.1416 80.192 59.0875 80.1747 59.0375C80.1574 58.9875 80.125 58.9444 80.0813 58.9146Z" fill="black"/>
<path id="vector_12" d="M80.0813 76.8816L77.659 75.2246L80.0813 73.5675C80.1077 73.5493 80.131 73.5259 80.1484 73.4989C80.1657 73.4718 80.1777 73.4416 80.1838 73.4098C80.1898 73.3781 80.189 73.3456 80.183 73.314C80.1762 73.2825 80.1634 73.2525 80.1453 73.2259C80.1265 73.1993 80.1032 73.1766 80.0761 73.1589C80.0497 73.1413 80.0188 73.1293 79.9872 73.1233C79.9555 73.1174 79.9232 73.1178 79.8915 73.1245C79.8599 73.1312 79.8297 73.144 79.8034 73.1623L77.4684 74.7606V71.9277C77.4647 71.8648 77.4375 71.8057 77.3916 71.7624C77.3464 71.7192 77.2854 71.6951 77.2229 71.6951C77.1596 71.6951 77.0986 71.7192 77.0534 71.7624C77.0075 71.8057 76.9803 71.8648 76.9766 71.9277V74.7561L74.6416 73.1577C74.5879 73.1208 74.5216 73.1067 74.4575 73.1186C74.3934 73.1304 74.3366 73.1672 74.2996 73.221C74.2627 73.2747 74.2486 73.3409 74.2605 73.4051C74.2723 73.4692 74.3092 73.526 74.3629 73.563L76.7853 75.22L74.3629 76.8771C74.32 76.9073 74.2879 76.9502 74.271 76.9991C74.2541 77.0489 74.2533 77.1023 74.2688 77.152C74.2843 77.2018 74.3153 77.2454 74.3573 77.2771C74.3992 77.308 74.45 77.3245 74.5023 77.3253C74.6107 77.3253 74.439 77.4209 76.9743 75.684V78.5124C76.9781 78.5749 77.0052 78.6344 77.0511 78.6773C77.0963 78.721 77.1573 78.7451 77.2206 78.7451C77.2831 78.7451 77.3441 78.721 77.3893 78.6773C77.4353 78.6344 77.4624 78.5749 77.4662 78.5124V75.684C80.0068 77.4247 79.8282 77.3253 79.9382 77.3253C79.9902 77.3245 80.0399 77.308 80.0813 77.2778C80.1235 77.247 80.1544 77.204 80.1702 77.1551C80.186 77.1061 80.186 77.0534 80.1702 77.0044C80.1536 76.9547 80.1228 76.9118 80.0813 76.8816Z" fill="black"/>
<path id="vector_13" d="M88.6352 58.9145L86.2128 57.2575L88.6352 55.6004C88.6887 55.5636 88.7256 55.5068 88.7376 55.4427C88.7497 55.3787 88.7354 55.3125 88.6992 55.2588C88.6623 55.2051 88.605 55.1682 88.541 55.1562C88.477 55.1443 88.4107 55.1583 88.3572 55.1952L86.0223 56.7935V53.9606C86.0223 53.8955 85.9967 53.833 85.9507 53.787C85.904 53.7409 85.8415 53.7151 85.7767 53.7151C85.7119 53.7151 85.6494 53.7409 85.6027 53.787C85.5568 53.833 85.5312 53.8955 85.5312 53.9606V56.792L83.1962 55.1936C83.1427 55.1568 83.0764 55.1428 83.0124 55.1547C82.9484 55.1667 82.8911 55.2036 82.855 55.2573C82.8181 55.311 82.8038 55.3772 82.8158 55.4413C82.8279 55.5053 82.8648 55.562 82.9183 55.5989L85.3406 57.256L82.9183 58.913C82.8753 58.9426 82.8422 58.9853 82.8249 59.0348C82.8075 59.0844 82.8068 59.1381 82.8226 59.1882C82.8377 59.2383 82.8693 59.2821 82.9115 59.3132C82.9537 59.3444 83.0041 59.3612 83.0569 59.3612C83.1661 59.3612 82.9943 59.4569 85.5297 57.7199V60.5483C85.5297 60.6134 85.5553 60.6759 85.6012 60.7219C85.6479 60.768 85.7104 60.7938 85.7752 60.7938C85.84 60.7938 85.9025 60.768 85.9492 60.7219C85.9952 60.6759 86.0208 60.6134 86.0208 60.5483V57.7214C88.5614 59.4621 88.3836 59.3627 88.4928 59.3627C88.5455 59.363 88.5968 59.3464 88.6389 59.3155C88.6811 59.2847 88.7128 59.241 88.7286 59.191C88.7444 59.141 88.7444 59.0871 88.7271 59.0374C88.7105 58.9877 88.6781 58.9446 88.6352 58.9145Z" fill="black"/>
<path id="vector_14" d="M88.7001 78.7772H83.2641C83.2016 78.7734 83.1428 78.7463 83.0991 78.7011C83.0562 78.6552 83.0321 78.5949 83.0321 78.5317C83.0321 78.4691 83.0562 78.4089 83.0991 78.3629C83.1428 78.3178 83.2016 78.2906 83.2641 78.2869H88.7001C88.7626 78.2906 88.8213 78.3178 88.865 78.3629C88.9079 78.4089 88.932 78.4691 88.932 78.5317C88.932 78.5949 88.9079 78.6552 88.865 78.7011C88.8213 78.7463 88.7626 78.7734 88.7001 78.7772Z" fill="black"/>
</g>
<g id="hand 2">
<path id="vector_15" fill-rule="evenodd" clip-rule="evenodd" d="M42.8392 94.673C44.3833 92.6718 45.0122 90.9341 46.6663 91.1992C48.3422 91.4689 50.1062 94.3175 48.6706 97.82C47.2349 101.322 46.9299 101.134 46.0599 104.141C45.458 106.407 45.0072 108.711 44.7109 111.037C46.7783 113.352 48.6225 115.858 50.2192 118.52L59.5749 118.595C62.7813 125.69 59.1327 135.666 59.1327 135.666C59.9914 144.22 59.9658 144.08 60.0133 144.223C53.4079 146.971 46.1124 147.6 39.1341 146.024C39.1341 146.024 40.0801 140.432 40.1427 137.769C40.2052 135.106 36.1822 124.002 34.8385 121.02C33.4948 118.038 30.8525 113.596 31.5131 109.82C32.1736 106.044 35.7183 101.115 35.7183 101.115C35.7183 101.115 37.947 97.5707 39.4007 95.4511C40.3088 94.1488 41.4544 93.0288 42.7774 92.1505L42.8392 94.673Z" fill="#FFD997"/>
<path id="vector_16" d="M59.3825 135.694C59.6657 134.887 62.8865 125.325 59.7983 118.492C59.7792 118.449 59.7483 118.413 59.7092 118.387C59.67 118.362 59.6244 118.348 59.5776 118.348L50.3454 118.272C48.775 115.677 46.9757 113.226 44.9689 110.951C45.2625 108.675 45.706 106.423 46.2969 104.206C47.1585 101.225 47.4553 101.429 48.8985 97.9098C50.3868 94.277 48.5595 91.2513 46.7059 90.9538C45.0488 90.6872 44.3114 92.2109 43.0678 93.9494L43.0241 92.1416C43.0232 92.0979 43.0107 92.0558 42.988 92.0189C42.9653 91.9819 42.9332 91.9511 42.895 91.9307C42.8567 91.9096 42.8136 91.8998 42.7702 91.9014C42.7268 91.9021 42.6844 91.9149 42.6475 91.9383C41.2932 92.8323 40.122 93.9765 39.1971 95.3097C37.7569 97.4089 35.5311 100.946 35.5168 100.969C35.3715 101.172 31.9323 105.987 31.2702 109.775C30.7053 113.003 32.455 116.622 33.8613 119.529C36.0132 123.982 39.9563 135.192 39.896 137.757C39.8343 140.372 38.8995 145.921 38.8905 145.978C38.8835 146.04 38.9007 146.103 38.9385 146.153C38.9763 146.203 39.0319 146.237 39.0938 146.247C39.1557 146.258 39.2193 146.244 39.2714 146.209C39.3235 146.174 39.3603 146.12 39.3741 146.059C39.3839 146.003 40.3239 140.42 40.3871 137.769C40.4512 135.021 36.3348 123.741 35.0604 120.914C33.6609 117.806 31.1113 113.523 31.7538 109.857C32.3963 106.19 35.8814 101.301 35.9236 101.24C35.9469 101.204 38.1674 97.6755 39.6015 95.5838C40.4086 94.4337 41.4013 93.4259 42.5391 92.6011L42.5873 94.5888C41.7153 95.7051 40.9537 96.9035 40.3133 98.1666C39.3854 99.8937 39.6753 99.197 38.8122 100.917C37.714 103.101 37.2726 103.999 33.4839 107.381C33.4381 107.425 33.411 107.485 33.4081 107.548C33.4051 107.611 33.4267 107.673 33.4682 107.72C33.5097 107.768 33.5681 107.798 33.6311 107.804C33.6941 107.809 33.7568 107.79 33.8063 107.751C35.0272 106.681 36.1856 105.541 37.2756 104.338C38.0644 103.357 38.7278 102.281 39.2505 101.137C40.1047 99.4365 39.8124 100.134 40.7464 98.3994C41.3984 97.1121 42.1779 95.8942 43.0731 94.7628C43.1681 95.2758 43.4221 95.7465 43.7994 96.1073C44.1766 96.4674 44.6576 96.7001 45.1746 96.7724C46.617 96.923 48.0187 95.278 48.8171 94.0608C49.5658 97.2718 47.1457 99.493 45.8201 104.067C45.2159 106.347 44.763 108.663 44.4643 111.001C44.4601 111.037 44.4636 111.073 44.4747 111.107C44.4857 111.142 44.504 111.172 44.5283 111.199C44.6119 111.289 52.9643 120.332 54.3201 129.744C54.3247 129.775 54.3356 129.806 54.352 129.834C54.3684 129.861 54.3902 129.885 54.4159 129.905C54.4417 129.924 54.471 129.938 54.5022 129.946C54.5334 129.954 54.5658 129.956 54.5977 129.952C54.6296 129.946 54.6602 129.936 54.6879 129.919C54.7155 129.903 54.7397 129.882 54.759 129.855C54.7782 129.83 54.7922 129.8 54.8002 129.769C54.8081 129.738 54.8098 129.705 54.8052 129.674C54.1173 125.806 52.7015 122.103 50.6331 118.763L59.4089 118.832C62.4217 125.744 58.9321 135.478 58.8967 135.575C58.8658 135.656 58.8786 135.575 59.7418 144.237C59.7484 144.302 59.7804 144.361 59.831 144.403C59.8814 144.443 59.9462 144.463 60.0111 144.457C60.0759 144.45 60.1354 144.418 60.1766 144.367C60.2178 144.317 60.2372 144.252 60.2306 144.187L59.3825 135.694ZM45.2326 96.2881C43.7819 96.1322 43.5213 94.6054 43.4783 94.2235C44.6609 92.5664 45.2989 91.2287 46.6275 91.4419C47.1001 91.5858 47.53 91.8441 47.8794 92.1929C48.2288 92.5423 48.4869 92.9724 48.6311 93.4447C48.317 93.9644 46.7345 96.444 45.2326 96.2881Z" fill="black"/>
</g>
<g id="hand 1">
<path id="vector_17" fill-rule="evenodd" clip-rule="evenodd" d="M133.039 139.076C130.427 146.567 115.327 146.877 115.327 146.877C113.763 145.456 111.977 144.301 110.04 143.458C107.102 142.267 98.9782 137.162 95.6023 133.547C90.8932 128.506 92.8222 126.832 88.6569 118.082C87.8419 116.371 85.2674 110.904 87.1166 109.375C88.9657 107.846 92.2995 107.65 96.464 117.327C96.464 117.327 95.811 113.02 95.2799 110.574C94.7489 108.129 91.9952 103.319 91.0461 100.017C90.0971 96.7145 89.322 96.0207 88.6027 93.6014C87.8834 91.1821 86.8778 86.2131 88.5936 84.1154C90.3095 82.0177 92.591 83.2033 93.5528 86.0828C94.5147 88.9624 95.5865 93.3754 97.001 95.1365C99.5093 98.254 100.583 102.902 102.13 104.702C102.13 104.702 104.999 104.422 106.31 104.25C107.621 104.079 110.686 103.298 112.822 105.526C112.822 105.526 116.315 106.571 117.384 108.178C117.384 108.178 118.734 108.439 120.199 111.248C121.663 114.057 130.163 136.063 133.039 139.076Z" fill="#FFD997"/>
<path id="vector_18" d="M133.217 138.906C130.38 135.935 121.888 113.963 120.416 111.137C119.129 108.669 117.899 108.091 117.536 107.969C116.45 106.451 113.441 105.464 112.955 105.312C110.959 103.278 108.221 103.71 106.742 103.94C105.781 104.091 103.392 104.332 102.24 104.446C101.597 103.536 101.068 102.551 100.663 101.513C96.7081 91.9942 97.4998 98.1382 94.4922 88.2613C94.2489 87.4606 94.0139 86.6893 93.7857 86.0016C92.7944 83.0332 90.2945 81.6443 88.4039 83.9559C86.3635 86.4505 88.0153 92.4838 88.367 93.6679C89.0517 95.9704 89.9051 96.93 90.8097 100.081C91.7693 103.418 94.5163 108.205 95.0413 110.626C95.3478 112.04 95.6988 114.099 95.9376 115.568C93.9077 111.315 91.8702 108.917 89.8704 108.434C89.3605 108.316 88.8303 108.323 88.3233 108.454C87.8172 108.585 87.3494 108.837 86.9608 109.187C85.605 110.308 86.084 113.254 88.4356 118.19C92.5549 126.852 90.6673 128.627 95.4224 133.716C98.9045 137.444 107.148 142.552 109.948 143.687C111.856 144.521 113.616 145.659 115.159 147.057C115.206 147.099 115.269 147.121 115.332 147.118C115.395 147.115 115.455 147.087 115.499 147.042C115.542 146.996 115.566 146.934 115.566 146.871C115.566 146.807 115.541 146.746 115.496 146.701C113.912 145.256 112.1 144.084 110.132 143.232C107.367 142.11 99.2209 137.064 95.7817 133.381C91.169 128.444 93.0294 126.698 88.8785 117.978C87.4029 114.881 86.8229 112.873 86.722 111.576C87.3841 112.788 88.5636 114.433 89.8855 114.043C91.8808 113.45 91.703 111.332 90.8911 109.422C92.2581 110.31 94.0598 112.429 96.1304 117.169C96.965 118.871 97.554 120.683 97.8801 122.551C98.0978 124.598 97.7431 125.368 97.7333 125.387C97.7182 125.416 97.7092 125.448 97.7069 125.479C97.7039 125.512 97.7077 125.544 97.7174 125.575C97.7272 125.606 97.7431 125.634 97.7634 125.659C97.7845 125.683 97.8101 125.704 97.8387 125.719C97.8673 125.734 97.899 125.743 97.9306 125.745C97.963 125.748 97.9954 125.744 98.0263 125.735C98.0572 125.725 98.0858 125.709 98.1106 125.689C98.1347 125.667 98.1551 125.642 98.1701 125.613C98.1882 125.579 98.607 124.741 98.369 122.5C98.0564 120.684 97.496 118.919 96.7044 117.256C96.6396 116.832 96.0265 112.83 95.5233 110.524C95.0051 108.774 94.3325 107.074 93.513 105.443C90.5054 98.8259 91.694 100.178 89.8531 96.1324C89.4502 95.2925 89.112 94.4241 88.8408 93.533C87.9211 90.4366 87.3487 86.2201 88.7067 84.3754C88.9327 85.5768 89.6543 88.4006 91.4266 88.4006C92.28 88.4006 93.0995 87.8432 93.4324 86.4965C94.3596 89.3587 95.4119 93.5526 96.8128 95.2918C99.4423 98.5608 100.373 103.343 102.196 105.105C107.557 110.284 106.93 111.023 107.401 111.023C107.443 111.023 107.484 111.012 107.521 110.992C107.557 110.971 107.588 110.942 107.609 110.906C107.631 110.871 107.644 110.83 107.646 110.788C107.648 110.746 107.639 110.705 107.62 110.667C106.731 108.905 103.761 105.938 102.687 104.896C103.955 104.77 105.881 104.574 106.822 104.427C108.32 104.192 110.827 103.8 112.648 105.7C112.678 105.73 112.714 105.752 112.755 105.765C112.789 105.775 116.175 106.803 117.182 108.318C117.217 108.37 117.271 108.407 117.333 108.422C117.346 108.422 118.606 108.728 119.98 111.365C121.437 114.161 129.945 136.193 132.86 139.247C132.905 139.295 132.968 139.322 133.033 139.323C133.098 139.325 133.162 139.3 133.209 139.255C133.256 139.21 133.284 139.147 133.285 139.082C133.287 139.017 133.262 138.953 133.217 138.906ZM89.7424 113.572C88.5207 113.937 87.201 111.569 86.7589 110.544C86.8071 110.166 86.9894 109.818 87.2726 109.564C87.6552 109.21 88.1313 108.973 88.6442 108.881C89.1564 108.789 89.6852 108.845 90.1672 109.044C91.0364 110.729 91.5998 113.022 89.7424 113.572ZM91.4326 87.9073C90.0053 87.9073 89.301 85.1437 89.1218 83.9084C90.5981 82.5398 92.2152 83.632 93.0633 85.506C92.9036 86.6818 92.6626 87.9073 91.4326 87.9073Z" fill="black"/>
</g>
<g id="arrows">
<path id="vector_19" d="M23.4891 133.581C19.6657 129.948 1.51849 110.038 12.6352 80.6257L15.8108 81.6802C15.8432 81.6907 15.8775 81.6945 15.9115 81.6915C15.9454 81.6885 15.9784 81.6779 16.0082 81.6614C16.0379 81.644 16.0639 81.6214 16.0844 81.5943C16.1049 81.5672 16.1194 81.5356 16.1271 81.5024L18.5781 70.8655C18.5887 70.8192 18.5857 70.7709 18.5694 70.7263C18.5532 70.6817 18.5243 70.6428 18.4864 70.6142C18.4485 70.5857 18.403 70.5688 18.3557 70.5655C18.3084 70.5623 18.2611 70.5728 18.2196 70.5959C14.302 72.8213 10.5605 75.3434 7.02752 78.1393C6.99426 78.1664 6.96881 78.2026 6.95375 78.2433C6.93868 78.2832 6.93453 78.3269 6.94171 78.3698C6.94889 78.412 6.96714 78.4519 6.99464 78.4851C7.02213 78.5182 7.05789 78.5438 7.09832 78.5589L9.51389 79.4552C2.38921 102.202 6.0491 120.17 21.0803 135.933C22.6658 137.596 25.1303 135.142 23.4891 133.581Z" fill="black"/>
<path id="vector_20" d="M142.946 63.911C142.843 63.7385 142.849 63.7897 140.155 63.8236C138.612 40.0356 128.73 24.5894 109.032 15.2969C108.787 15.1818 108.518 15.1266 108.248 15.1357C107.977 15.1449 107.712 15.2182 107.476 15.3496C107.199 15.4997 106.97 15.7252 106.815 16.0001C106.661 16.275 106.588 16.5879 106.604 16.9028C106.62 17.2176 106.725 17.5214 106.907 17.7789C107.089 18.0364 107.34 18.2373 107.631 18.358C112.477 20.4421 136.604 32.413 136.821 63.8568L133.48 64.0165C133.446 64.0182 133.412 64.0271 133.382 64.0424C133.351 64.0577 133.324 64.0793 133.303 64.1056C133.281 64.132 133.265 64.1626 133.255 64.1955C133.246 64.2283 133.244 64.2628 133.249 64.2966L134.791 75.1023C134.798 75.1493 134.818 75.1934 134.849 75.2293C134.88 75.2651 134.921 75.2911 134.967 75.3041C135.012 75.3171 135.061 75.3166 135.106 75.3026C135.151 75.2885 135.192 75.2616 135.222 75.2251C138.076 71.7385 140.659 68.0385 142.948 64.1573C142.97 64.1197 142.98 64.0771 142.98 64.0339C142.98 63.9905 142.967 63.9481 142.946 63.911Z" fill="black"/>
</g>
<g id="broken key">
<path id="vector_21" fill-rule="evenodd" clip-rule="evenodd" d="M59.8103 23.0618L58.1359 24.6737C57.6724 24.6197 57.2368 24.4245 56.8879 24.1146C56.5391 23.8048 56.294 23.3952 56.1858 22.9413L66.1621 12.7058C66.6434 12.7787 67.098 12.974 67.4823 13.2728C67.8666 13.5716 68.1677 13.9641 68.357 14.4126L64.3092 18.5621L65.5196 19.9435L64.4651 20.9731L63.138 19.8041L62.4149 20.601L64.4531 22.936L62.0835 25.2619L59.8103 23.0618Z" fill="white"/>
<path id="vector_22" d="M68.5801 14.3114C68.3744 13.827 68.0486 13.4031 67.6334 13.0798C67.2182 12.7564 66.7274 12.5444 66.2074 12.4637C66.1678 12.4559 66.1268 12.4583 66.0883 12.4707C66.0498 12.4831 66.0151 12.5051 65.9875 12.5345L56.0096 22.7685C55.9794 22.7997 55.9578 22.8384 55.9474 22.8806C55.9369 22.9228 55.9378 22.967 55.9501 23.0088C56.071 23.5075 56.3414 23.9574 56.725 24.2982C57.1087 24.639 57.5873 24.8546 58.0968 24.9159C58.2655 24.943 58.2113 24.9415 59.8096 23.4027L61.9148 25.4364C61.9608 25.4809 62.0223 25.5058 62.0862 25.5058C62.1501 25.5058 62.2116 25.4809 62.2576 25.4364L64.6257 23.112C64.6704 23.068 64.6966 23.0087 64.6988 22.946C64.7011 22.8834 64.6792 22.8223 64.6377 22.7753L62.7441 20.6037L63.1569 20.148L64.3025 21.1574C64.3489 21.1986 64.4092 21.2205 64.4712 21.2188C64.5331 21.2172 64.5922 21.1919 64.6362 21.1483L65.6907 20.1187C65.7358 20.0748 65.7622 20.0153 65.7646 19.9525C65.767 19.8897 65.7451 19.8284 65.7035 19.7812L64.643 18.5708L68.5318 14.5833C68.5663 14.5481 68.5893 14.5033 68.598 14.4548C68.6066 14.4063 68.6003 14.3563 68.5801 14.3114ZM64.1361 18.3923C64.0929 18.4365 64.0681 18.4954 64.0666 18.5572C64.0651 18.6189 64.0869 18.679 64.1278 18.7252L65.1823 19.9304L64.4585 20.6384L63.303 19.62C63.2545 19.5777 63.1914 19.556 63.1271 19.5595C63.0628 19.563 63.0024 19.5915 62.9588 19.6389L62.2357 20.4358C62.1956 20.4807 62.1735 20.5387 62.1735 20.5988C62.1735 20.659 62.1956 20.7171 62.2357 20.7619L64.1188 22.9237L62.0851 24.9189L60.1659 23.063L61.6128 21.6929C61.6602 21.6482 61.6878 21.5865 61.6896 21.5213C61.6914 21.4562 61.6673 21.393 61.6226 21.3457C61.5779 21.2984 61.5161 21.2707 61.451 21.2689C61.3859 21.267 61.3227 21.2911 61.2754 21.3359L58.5246 23.9616C58.4879 23.5689 58.3087 23.2031 58.0209 22.9333C57.7332 22.6634 57.3568 22.5081 56.9624 22.4966L66.2443 12.9729C66.6344 13.0475 67.0018 13.2121 67.317 13.4535C67.6323 13.6951 67.8868 14.0069 68.0603 14.3641L64.1361 18.3923Z" fill="black"/>
<path id="vector_23" d="M71.8207 11.0769C71.64 11.0769 71.942 11.4046 68.1571 6.12907C68.122 6.07604 68.1089 6.01147 68.1204 5.94896C68.132 5.88644 68.1673 5.83085 68.2191 5.79386C68.2708 5.75688 68.3349 5.7414 68.3977 5.75067C68.4606 5.75995 68.5174 5.79326 68.5563 5.8436L72.0211 10.689C72.0472 10.7258 72.0627 10.769 72.066 10.814C72.0691 10.859 72.0599 10.904 72.0392 10.9441C72.0185 10.9841 71.9872 11.0177 71.9486 11.0412C71.9101 11.0647 71.8659 11.077 71.8207 11.0769Z" fill="black"/>
<path id="vector_24" d="M76.2016 11.0773C76.1542 11.0772 76.1075 11.0634 76.0683 11.0376C76.0284 11.0117 75.9968 10.9748 75.9779 10.9315C75.9583 10.8882 75.9523 10.8402 75.9591 10.7933C75.9666 10.7465 75.9877 10.7028 76.0194 10.6675L81.1103 5.01312C81.1548 4.96789 81.215 4.94154 81.2783 4.93957C81.3416 4.9376 81.4033 4.96017 81.45 5.00256C81.4967 5.04495 81.5261 5.10389 81.5306 5.16705C81.5352 5.23022 81.5156 5.29273 81.4749 5.34153C76.2657 11.136 76.3756 11.0773 76.2016 11.0773Z" fill="black"/>
<path id="vector_25" d="M73.7658 9.01645L73.7289 3.76654C73.7289 3.70142 73.7547 3.63896 73.8008 3.59291C73.8468 3.54687 73.9093 3.521 73.9744 3.521C74.0396 3.521 74.102 3.54687 74.148 3.59291C74.1941 3.63896 74.22 3.70142 74.22 3.76654L74.2569 9.01419C74.2572 9.07935 74.2316 9.14186 74.1858 9.18819C74.1399 9.23443 74.0776 9.26057 74.0125 9.26087C73.9473 9.26117 73.8848 9.23556 73.8385 9.18977C73.7922 9.1439 73.7661 9.08161 73.7658 9.01645Z" fill="black"/>
<path id="vector_26" fill-rule="evenodd" clip-rule="evenodd" d="M80.0287 14.7856L85.4609 19.2914L83.5779 21.551L78.4131 17.2999L80.0287 14.7856Z" fill="white"/>
<path id="vector_27" d="M85.5006 19.0048L80.3456 14.7295C79.6248 13.7609 77.1731 16.706 78.1244 17.4901L83.1935 21.6945C81.7165 24.0664 81.4611 26.4435 82.6798 27.3805C84.9395 29.1129 89.8565 24.7345 90.6406 20.701C91.2891 17.35 88.567 16.4258 85.5006 19.0048ZM88.3711 21.3902C87.5072 24.2991 83.3999 27.2653 84.2744 24.3278C85.127 21.4362 89.2434 18.4391 88.3711 21.3917V21.3902ZM78.8256 17.4336C79.5796 16.9769 80.1438 16.2633 80.4134 15.424L85.1286 19.3347C84.5034 19.92 83.9453 20.5728 83.4639 21.281L78.8256 17.4336Z" fill="black"/>
</g>
<g id="key">
<path id="vector_28" fill-rule="evenodd" clip-rule="evenodd" d="M135.491 103.411L126.202 93.6723L120.453 94.7969L115.621 89.3737L125.224 80.7358L130.219 86.2885L128.42 91.662L144.352 108.301C144.263 109.845 143.49 110.486 142.215 110.465L141.395 109.605L139.488 111.428L137.842 109.705L139.751 107.882L138.424 106.49L135.308 109.466L132.371 106.393L135.491 103.411Z" fill="#81F8F8"/>
<path id="vector_29" d="M120.501 93.3181C120.334 93.3181 120.576 93.5531 117.289 89.5332C117.249 89.4842 117.229 89.421 117.234 89.3577C117.24 89.2944 117.269 89.2357 117.317 89.1935L122.428 84.7058C122.477 84.6644 122.541 84.6433 122.605 84.6478C122.669 84.6523 122.73 84.6825 122.772 84.7307C122.815 84.7796 122.837 84.8429 122.833 84.9069C122.829 84.9709 122.8 85.032 122.752 85.0749L117.819 89.4059L120.691 92.9166C120.72 92.9528 120.739 92.9965 120.745 93.0424C120.75 93.0884 120.743 93.1351 120.723 93.1772C120.703 93.2194 120.672 93.2548 120.633 93.2797C120.593 93.3053 120.548 93.3181 120.501 93.3181Z" fill="black"/>
<path id="vector_30" d="M144.53 108.129L128.7 91.5973C130.601 85.9165 130.536 86.2735 130.401 86.1221L125.407 80.5694C125.386 80.5453 125.36 80.5257 125.331 80.5122C125.302 80.4979 125.27 80.4896 125.238 80.4881C125.206 80.4866 125.174 80.4911 125.143 80.5016C125.113 80.5122 125.085 80.5287 125.061 80.5506L115.457 89.1885C115.433 89.2096 115.413 89.2359 115.399 89.2646C115.385 89.2939 115.378 89.3256 115.375 89.3572C115.374 89.3896 115.378 89.422 115.389 89.4521C115.4 89.4822 115.417 89.5101 115.438 89.5342C120.646 95.3822 120.295 95.0749 120.5 95.038L126.117 93.939L135.143 103.404L132.206 106.213C132.183 106.235 132.164 106.262 132.151 106.291C132.137 106.32 132.131 106.352 132.13 106.384C132.129 106.417 132.134 106.449 132.146 106.479C132.158 106.509 132.175 106.537 132.198 106.56C135.399 109.905 135.162 109.708 135.305 109.709C135.448 109.711 135.229 109.882 138.418 106.834L139.407 107.871L137.674 109.528C137.651 109.55 137.632 109.577 137.619 109.607C137.606 109.636 137.599 109.668 137.598 109.7C137.597 109.732 137.603 109.765 137.615 109.795C137.627 109.825 137.644 109.852 137.667 109.876C139.434 111.727 139.34 111.673 139.49 111.673C139.626 111.673 139.513 111.749 141.389 109.954C142.129 110.729 142.059 110.712 142.273 110.712C143.704 110.712 144.508 109.884 144.599 108.316C144.602 108.282 144.596 108.247 144.584 108.215C144.572 108.183 144.554 108.154 144.53 108.129ZM139.496 111.078L138.189 109.711L139.686 108.279L140.992 109.647L139.496 111.078ZM126.089 93.4449L120.545 94.5295L115.968 89.3903L125.208 81.0801L129.942 86.3443L128.21 91.5204L126.089 93.4449ZM126.554 93.6852L128.41 92.0017L129.139 92.7632L127.247 94.4128L126.554 93.6852ZM135.317 109.116L132.721 106.398L135.484 103.762L138.078 106.482L135.317 109.116ZM142.322 110.218L127.587 94.7683L129.479 93.118L144.1 108.388C144.001 109.618 143.433 110.202 142.321 110.218H142.322Z" fill="black"/>
</g>
<g id="lock">
<path id="vector_31" fill-rule="evenodd" clip-rule="evenodd" d="M28.3091 41.8193L25.1524 39.9815C25.1524 39.9815 27.8557 34.5937 28.2534 32.2535C28.6511 29.9132 26.9021 28.8512 24.5212 28.1567C23.9085 27.9351 23.2343 27.9568 22.637 28.217C22.0398 28.4773 21.565 28.9566 21.3102 29.5562L18.8246 34.7918L14.587 33.0233C14.587 33.0233 17.7016 27.2408 19.2133 25.6674C23.3484 21.362 32.3788 26.2451 32.0353 32.1729C31.8236 35.7883 28.3091 41.8193 28.3091 41.8193Z" fill="white"/>
<path id="vector_32" fill-rule="evenodd" clip-rule="evenodd" d="M12.1524 35.6682C12.1524 35.6682 20.0702 35.6554 29.4342 42.878L23.7098 55.294C23.7098 55.294 22.5679 56.8682 19.6108 56.5594C16.6536 56.2506 10.1263 53.7273 7.14653 51.0557C4.1668 48.384 12.1524 35.6682 12.1524 35.6682Z" fill="#81F8F8"/>
<path id="vector_33" d="M21.6708 55.8425C17.1551 53.1749 12.3274 51.0751 7.29713 49.5908C7.23627 49.5718 7.18519 49.5299 7.15469 49.4739C7.12419 49.4179 7.11665 49.3522 7.13367 49.2909C7.15069 49.2294 7.19094 49.177 7.2459 49.1447C7.30086 49.1124 7.36623 49.1027 7.42819 49.1178C12.4988 50.614 17.3654 52.7303 21.9178 55.4184C21.9682 55.4539 22.0034 55.5071 22.0166 55.5673C22.0297 55.6275 22.0199 55.6905 21.9888 55.7438C21.9577 55.7971 21.9079 55.8368 21.849 55.855C21.7901 55.8733 21.7265 55.8689 21.6708 55.8425Z" fill="black"/>
<path id="vector_34" d="M19.4243 41.8382C19.0733 41.6233 18.6591 41.5355 18.251 41.5895C17.843 41.6433 17.4659 41.8358 17.1828 42.1344C16.8996 42.4331 16.7276 42.82 16.6955 43.2303C16.6634 43.6406 16.7732 44.0495 17.0064 44.3886L15.5685 47.778C15.5559 47.8077 15.5493 47.8396 15.549 47.8718C15.5487 47.9041 15.5548 47.9361 15.5669 47.9659C15.5789 47.9958 15.5969 48.023 15.6195 48.046C15.6421 48.0689 15.6691 48.0872 15.6989 48.0997C16.1387 48.333 16.6007 48.522 17.078 48.6638C17.1263 48.6638 17.1735 48.6494 17.2137 48.6226C17.2539 48.5958 17.2853 48.5577 17.304 48.5132L18.7351 45.1471C19.1008 45.0949 19.4414 44.9312 19.7109 44.6784C19.9802 44.4256 20.1651 44.096 20.2404 43.7344C20.3158 43.3728 20.2778 42.9967 20.1318 42.6574C19.9857 42.3181 19.7387 42.0321 19.4243 41.8382Z" fill="black"/>
<path id="vector_35" d="M19.0335 25.4964C17.5172 27.0781 14.4968 32.6685 14.3688 32.9065C13.7572 34.0431 18.4949 36.1883 19.0387 34.901L21.5417 29.6458C21.7695 29.0993 22.201 28.6628 22.7449 28.4288C23.2888 28.1948 23.9023 28.1814 24.4559 28.3917C27.2654 29.2112 28.3297 30.3501 28.0141 32.2113C27.6744 34.2171 25.5661 38.5903 25.0502 39.641C17.8095 35.4757 12.2342 35.423 12.1558 35.423C12.1143 35.423 12.0735 35.4336 12.0372 35.4536C12.0008 35.4735 11.9702 35.5025 11.948 35.5375C11.6181 36.0647 3.88855 48.4612 6.98577 51.2383C10.0928 54.0282 16.6699 56.4988 19.5833 56.8031C21.8324 57.0373 23.4014 56.1794 23.9309 55.396L29.6553 42.9808C29.6791 42.9295 29.6846 42.8716 29.6709 42.8168C29.6572 42.762 29.6251 42.7135 29.58 42.6795C29.2285 42.4108 28.8812 42.1515 28.5383 41.9014C28.8599 41.344 32.0694 35.7077 32.2735 32.1849C32.6366 26.0131 23.3185 21.0373 19.0335 25.4964ZM29.1266 42.9529L23.5076 55.1482C23.4624 55.2077 22.3928 56.6027 19.6315 56.315C16.8446 56.0242 10.3022 53.5567 7.30815 50.873C5.01611 48.819 10.0536 39.4994 12.2839 35.9171C13.355 35.9601 20.6687 36.4896 29.1296 42.9529H29.1266ZM31.7854 32.1578C31.5941 35.4569 28.5413 40.9102 28.1383 41.6182C27.2307 40.978 26.3389 40.404 25.4697 39.8858C25.9706 38.8697 28.1323 34.4099 28.4924 32.2911C28.9556 29.5592 26.6485 28.519 24.5862 27.9172C23.9173 27.6857 23.1858 27.715 22.5377 27.9993C21.8895 28.2836 21.3724 28.8019 21.0897 29.4508L18.8602 34.1448C17.8707 33.1562 16.5492 32.5705 15.1521 32.5013C16.0055 30.9572 18.2125 27.0616 19.389 25.8368C23.3268 21.7348 32.1221 26.3927 31.7854 32.1578Z" fill="black"/>
</g>
</g>
</g>
</svg>
