<svg width="151" height="151" viewBox="0 0 151 151" fill="none" xmlns="http://www.w3.org/2000/svg">
<g id="Spam-2--Streamline-London">
<path id="Vector" d="M110.528 90.2599C110.367 93.7318 110.455 97.2108 110.792 100.67C110.97 102.518 111.319 104.346 111.832 106.13C112.253 107.845 113.136 109.412 114.384 110.662C115.229 111.394 116.171 112.005 117.183 112.479C123.263 115.337 131.034 113.152 133.658 111.761C133.658 111.761 141.283 116.386 143.078 120.649C144.873 124.912 143.078 126.549 143.078 126.549C143.935 126.474 144.794 126.678 145.525 127.132C146.256 127.585 146.82 128.264 147.133 129.065C148.263 131.92 110.402 134.741 98.9346 131.715L101.958 88.584H101.98C101.98 88.584 108.543 78.4156 110.486 77.6699C112.297 77.0307 114.218 76.7598 116.135 76.873C115.499 76.8564 112.111 76.8647 111.609 78.9767C111.267 80.902 111.021 82.8432 110.874 84.793C110.818 85.4295 110.765 86.0999 110.714 86.8004C110.64 87.9001 110.573 89.06 110.528 90.2599Z" fill="white"/>
<path id="Vector_2" d="M141.679 94.916L140.195 99.5799L136.824 110.157L136.816 110.155L130.487 99.7479L141.679 94.916Z" fill="white"/>
<path id="Vector_3" d="M128.181 98.8535L128.184 98.8512L124.047 95.6907L131.221 91.585L135.441 92.931L141.679 94.9164L130.487 99.7483L126.028 101.672L128.181 98.8535Z" fill="white"/>
<path id="Vector_4" d="M140.195 99.5798C141.14 101.232 141.796 102.754 141.796 103.792C141.796 106.654 140.144 108.607 136.9 110.315L136.819 110.164L136.814 110.156H136.822L140.195 99.5798Z" fill="black"/>
<path id="Vector_5" d="M130.61 73.5015L138.558 87.3855L138.552 87.3885L126.603 85.0159L130.61 73.5015Z" fill="#81F8F8"/>
<path id="Vector_6" d="M133.482 90.2916L131.221 91.5849L124.048 95.6907L119.092 91.9073L120.217 88.6707L124.998 89.619L126.603 85.0168L138.552 87.3895L133.482 90.2916Z" fill="#81F8F8"/>
<path id="Vector_7" d="M136.821 110.163L136.903 110.314C135.849 110.856 134.765 111.339 133.658 111.76C131.034 113.152 123.263 115.336 117.183 112.478L117.816 112.423L122.929 105.731L136.816 110.154L136.821 110.163Z" fill="black"/>
<path id="Vector_8" d="M130.487 99.7478L136.816 110.155L122.929 105.732L126.028 101.672L130.487 99.7478Z" fill="white"/>
<path id="Vector_9" d="M135.49 92.7823L135.441 92.933L131.223 91.587L133.483 90.2937C133.532 90.3532 134.367 91.3407 135.49 92.7823Z" fill="black"/>
<path id="Vector_10" d="M130.608 73.5015L126.601 85.0159L124.997 89.618L120.215 88.6697L110.875 86.8161L110.716 86.8048C110.766 86.1043 110.82 85.4339 110.875 84.7974L121.745 78.5744L130.608 73.5015Z" fill="#81F8F8"/>
<path id="Vector_11" d="M128.184 98.8508L128.181 98.8531L118.695 100.805H118.692L118.077 91.1304L119.092 91.9069L124.048 95.6903L128.184 98.8508Z" fill="#81F8F8"/>
<path id="Vector_12" d="M126.028 101.672L122.929 105.732L117.816 112.424L117.183 112.48C116.579 112.196 116 111.864 115.45 111.487L115.144 105.45L118.938 104.671L118.691 100.804L128.182 98.8516L126.028 101.672Z" fill="#81F8F8"/>
<path id="Vector_13" d="M121.562 78.2595L121.745 78.5789L110.874 84.7982C111.14 81.8139 111.46 79.613 111.609 78.9819C112.11 76.8728 115.498 76.8615 116.135 76.8781C118.018 76.9728 119.863 77.4425 121.562 78.2595Z" fill="black"/>
<path id="Vector_14" d="M120.214 88.6701L119.089 91.909L118.074 91.1324L114.044 96.4049L110.525 90.2602C110.572 89.0603 110.637 87.8996 110.712 86.8052L110.872 86.8165L120.214 88.6701Z" fill="#81F8F8"/>
<path id="Vector_15" d="M118.691 100.805L118.938 104.672L115.144 105.451L111.829 106.128C111.316 104.344 110.968 102.516 110.789 100.668L114.045 96.4029L118.074 91.1304L118.691 100.805Z" fill="#81F8F8"/>
<path id="Vector_16" d="M115.144 105.45L115.45 111.485C115.08 111.23 114.724 110.955 114.384 110.661C113.136 109.411 112.254 107.844 111.832 106.129L115.144 105.45Z" fill="#81F8F8"/>
<path id="Vector_17" d="M114.047 96.4052L110.792 100.671C110.455 97.2114 110.367 93.7324 110.528 90.2605L114.047 96.4052Z" fill="black"/>
<path id="Vector_18" d="M86.2223 23.9825C99.6694 31.9297 109.417 38.8314 108.73 40.0343C108.307 40.7778 103.979 39.1847 97.507 36.0747C94.1175 34.288 82.3944 28.1945 78.5914 26.0215C62.7129 16.9407 50.4656 8.49114 51.2324 7.14816C51.9163 5.95054 62.7189 10.8073 76.3062 18.3116C77.9577 19.2235 79.6467 20.1733 81.3731 21.161C83.0339 22.1116 84.6548 23.0538 86.2223 23.9825Z" fill="#81F8F8"/>
<path id="Vector_19" d="M108.73 40.0346L107.14 42.814C106.809 43.3947 98.8365 40.0067 94.571 38.1222C93.4517 37.5415 91.9069 36.7453 90.1624 35.8392C88.2613 34.8495 86.1267 33.7362 84.0546 32.6395C81.9064 31.5014 79.8253 30.3799 78.1426 29.4429C77.7359 29.2169 77.3547 29.0023 77.0015 28.8004C75.4536 27.9146 73.9366 27.0341 72.4641 26.1641C72.0521 25.9065 71.628 25.6369 71.1995 25.365C69.5703 24.3331 67.8281 23.2115 66.067 22.0614C61.6133 19.1532 57.0397 16.0575 53.8552 13.709C51.1579 11.7235 49.4526 10.2735 49.6514 9.92856L51.2324 7.14844C50.4664 8.49142 62.713 16.9402 78.5915 26.0218C82.3945 28.1948 94.1191 34.2883 97.507 36.075C103.979 39.185 108.307 40.778 108.73 40.0346Z" fill="#81F8F8"/>
<path id="Vector_20" d="M66.5726 48.5457H66.5749H76.326H86.3122H94.5712H104.765L104.608 50.7752L104.442 50.7639H38.6803L38.5259 48.5457H44.7602H53.5345H64.6007H66.3565H66.5696H66.5726Z" fill="#81F8F8"/>
<path id="Vector_21" d="M40.2391 73.1765L38.6799 50.7668H104.442L104.607 50.7781L103.04 73.1795L102.814 76.3762C101.866 76.4041 79.4033 77.0187 71.6994 77.0187C63.8336 77.0187 40.5577 76.3762 40.5577 76.3762L40.462 76.3815L40.2391 73.1765Z" fill="#81F8F8"/>
<path id="Vector_22" d="M44.6842 137.13L40.6658 79.3092L40.4609 76.3815L40.5566 76.3762C40.5566 76.3762 63.831 77.0187 71.6983 77.0187C79.4022 77.0187 101.865 76.4041 102.813 76.3762L101.958 88.5866L98.9346 131.717L98.3599 140.63L93.2975 141.844C79.064 145.254 64.2264 145.254 49.9929 141.844L44.9283 140.63L44.6842 137.13ZM93.2486 101.868C93.2471 98.3511 92.3953 94.8866 90.7659 91.7698C89.1365 88.653 86.7777 85.9763 83.8906 83.9679C83.8597 83.9453 83.8372 83.9174 83.8063 83.8978C83.7754 83.8783 83.7558 83.8722 83.7309 83.8579C78.9685 80.5718 73.0958 79.3121 67.4046 80.356C61.7134 81.3998 56.67 84.6618 53.3839 89.4242C50.0977 94.1866 48.838 100.059 49.8819 105.751C50.9258 111.442 54.1877 116.485 58.9501 119.771C58.981 119.793 59.0059 119.822 59.0368 119.847C59.0676 119.871 59.0955 119.877 59.1234 119.897C62.4022 122.136 66.2297 123.438 70.1936 123.662C74.1575 123.886 78.1074 123.025 81.6179 121.17C85.1283 119.316 88.0662 116.538 90.1149 113.137C92.1636 109.737 93.2455 105.841 93.2441 101.871L93.2486 101.868Z" fill="#81F8F8"/>
<path id="Vector_23" d="M97.5009 43.2028L97.4987 43.2089L86.0679 47.4239L83.4768 35.511L90.7905 39.5211L97.5009 43.2028Z" fill="white"/>
<path id="Vector_24" d="M97.4989 43.209L94.5712 48.5455H86.3122L86.0681 47.424L97.4989 43.209Z" fill="white"/>
<path id="Vector_25" d="M83.8891 83.9681C88.6535 87.2518 91.9183 92.2937 92.9653 97.9846C94.0123 103.675 92.7557 109.549 89.472 114.314C86.1882 119.078 81.1463 122.343 75.4554 123.39C69.7645 124.437 63.8908 123.18 59.1264 119.896C59.0985 119.877 59.0676 119.866 59.0398 119.846C59.0119 119.826 58.984 119.796 58.9531 119.771C54.1907 116.485 50.9288 111.441 49.8849 105.75C48.841 100.059 50.1007 94.186 53.3869 89.4236C56.673 84.6612 61.7164 81.3993 67.4076 80.3554C73.0988 79.3115 78.9716 80.5712 83.734 83.8573C83.7558 83.8716 83.7814 83.8799 83.8093 83.8973C83.8372 83.9146 83.8582 83.9455 83.8891 83.9681ZM87.9889 101.868C87.9896 99.5722 87.5116 97.3013 86.5855 95.2003C85.6594 93.0994 84.3055 91.2145 82.6102 89.6661L63.9982 116.673C66.5235 117.942 69.3313 118.542 72.1544 118.419C74.9774 118.295 77.7219 117.451 80.1266 115.967C82.5313 114.483 84.5162 112.408 85.8924 109.94C87.2686 107.472 87.9903 104.693 87.9889 101.867V101.868ZM60.2314 114.078L78.8441 87.0638C75.2716 85.2688 71.1703 84.8269 67.2975 85.8197C63.4247 86.8125 60.0418 89.1729 57.7734 92.4652C55.505 95.7575 54.5043 99.7593 54.9561 103.732C55.4079 107.704 57.2816 111.379 60.2314 114.078Z" fill="#FFD997"/>
<path id="Vector_26" d="M90.137 35.8838L90.8774 39.3636L90.7908 39.5211L83.477 35.5109L82.2515 37.7457L80.8958 37.0249L83.9998 32.7459L84.0562 32.6389C86.1283 33.7356 88.263 34.8489 90.1641 35.8386L90.137 35.8838Z" fill="#81F8F8"/>
<path id="Vector_27" d="M82.6103 89.6628C85.5576 92.3621 87.4292 96.0363 87.8797 100.007C88.3303 103.979 87.3294 107.979 85.0617 111.27C82.794 114.561 79.4125 116.92 75.5413 117.913C71.67 118.907 67.5702 118.466 63.9983 116.673L82.6103 89.6628Z" fill="#81F8F8"/>
<path id="Vector_28" d="M86.068 47.4239L86.3121 48.5454H76.3259L77.7164 46.0101L82.2515 37.7458L83.477 35.511L86.068 47.4239Z" fill="white"/>
<path id="Vector_29" d="M84.0548 32.6392L83.9983 32.7462L80.8958 37.0252L78.0336 40.975L73.5896 38.6883L63.0303 33.2561L66.66 32.3424L69.2149 31.6969L78.1405 29.4508V29.4456C79.8255 30.3818 81.9066 31.5011 84.0548 32.6392Z" fill="#81F8F8"/>
<path id="Vector_30" d="M82.2514 37.746L77.7163 46.0103L77.6575 45.9794L66.5747 48.5456L73.4486 38.9632L73.5917 38.6882L78.0304 40.9712L80.8941 37.0251L82.2514 37.746Z" fill="#81F8F8"/>
<path id="Vector_31" d="M78.844 87.0637L60.2313 114.078C57.2801 111.379 55.4051 107.704 54.9526 103.731C54.5001 99.758 55.5006 95.7553 57.7694 92.4624C60.0382 89.1695 63.422 86.8089 67.2957 85.8166C71.1695 84.8242 75.2715 85.2672 78.844 87.0637Z" fill="#81F8F8"/>
<path id="Vector_32" d="M77.7163 46.0104L76.3258 48.5457H66.5747L77.6575 45.9795L77.7163 46.0104Z" fill="black"/>
<path id="Vector_33" d="M73.5919 38.6885L73.4488 38.9635L66.5749 48.5459H66.5727H66.5696L63.0303 33.2563L73.5919 38.6885Z" fill="#81F8F8"/>
<path id="Vector_34" d="M71.1993 25.3648L69.1747 31.5487L69.2108 31.6994L66.6559 32.3449L66.6055 32.1453L60.753 24.6576L60.6716 24.473L66.0195 22.1335L66.0669 22.0635C67.8287 23.2114 69.5701 24.3329 71.1993 25.3648Z" fill="white"/>
<path id="Vector_35" d="M50.4051 26.1362L50.3999 26.1309L47.1467 28.4471L47.0767 28.3491L42.8142 27.0144L53.9754 22.1313L56.5303 26.2846L60.6722 24.4708L60.7536 24.6554L66.6061 32.1431L66.6565 32.3427L63.0305 33.2564L53.6251 30.4017L53.5016 30.489L50.4051 26.1362Z" fill="white"/>
<path id="Vector_36" d="M63.0304 33.2563L66.5698 48.5458H66.3566L62.8429 43.6078L53.5015 30.489L53.625 30.4016L63.0304 33.2563Z" fill="black"/>
<path id="Vector_37" d="M62.8426 43.6078L66.3564 48.5459H64.6006V48.5098L53.7671 45.9014L54.2838 40.61L49.1152 39.3642L50.4047 26.1362L53.5012 30.4891L62.8426 43.6078Z" fill="white"/>
<path id="Vector_38" d="M66.0673 22.061L66.0198 22.1311L60.672 24.4706L56.5293 26.2843L53.9744 22.1311L47.5894 11.7502L53.8486 13.7086C57.04 16.0571 61.6135 19.1529 66.0673 22.061Z" fill="white"/>
<path id="Vector_39" d="M64.6009 48.5098V48.5459H53.5347V48.2966L53.7674 45.9014L64.6009 48.5098Z" fill="white"/>
<path id="Vector_40" d="M54.2839 40.6093L53.7672 45.9007L53.5344 48.2959V48.5452H44.7602V48.2959L36.1841 36.2512L49.1153 39.3635L54.2839 40.6093Z" fill="white"/>
<path id="Vector_41" d="M47.589 11.7473L53.9748 22.1312L42.8136 27.0143L42.8076 27.0112L47.589 11.7473Z" fill="white"/>
<path id="Vector_42" d="M50.4048 26.1359L49.1153 39.3639L36.1841 36.2516L47.1464 28.4468L50.3995 26.1306L50.4048 26.1359Z" fill="white"/>
<path id="Vector_43" d="M35.8896 81.0927C35.9586 80.6801 35.9624 80.2592 35.9009 79.8454C37.4662 79.5011 39.0631 79.3214 40.6658 79.3091L44.6842 137.13C44.4319 137.13 32.5107 136.962 28.197 135.447C23.8419 133.916 12.7395 135.629 8.50269 136.125C4.26584 136.621 2.96655 135.447 4.9686 133.915C6.42707 132.904 8.06692 132.184 9.79822 131.795C9.79822 131.795 9.23707 123.903 15.1265 119.546C21.0159 115.189 13.0062 105.687 16.0687 95.7902C19.1313 85.8937 30.6811 81.4964 30.6811 81.4964C31.4531 81.9161 32.1422 82.4728 32.7148 83.1392C35.04 83.3704 35.7186 82.1193 35.8896 81.0927Z" fill="white"/>
<path id="Vector_44" d="M28.5679 74.6575C28.1672 73.6339 27.185 70.5322 29.8484 69.974C33.0458 69.3037 38.8229 72.6577 37.028 75.8574C35.2331 79.0571 35.8982 79.8494 35.8982 79.8494C35.9597 80.2633 35.9559 80.6841 35.8869 81.0968C35.7159 82.1234 35.0373 83.3745 32.7128 83.144C32.1402 82.4776 31.4511 81.9209 30.6792 81.5013C29.3549 80.7488 27.8015 80.5053 26.3105 80.8166C23.8317 81.3295 23.1357 84.835 21.9667 84.9141C20.7977 84.9932 20.2501 77.5777 23.9183 74.5348C26.8686 72.083 28.171 73.8666 28.5679 74.6575ZM28.5679 74.6658C28.6379 74.8421 28.6907 74.9543 28.702 74.9799C28.6653 74.8724 28.6216 74.7675 28.5709 74.6658H28.5679Z" fill="white"/>
<path id="Vector_45" d="M66.5747 48.5457H76.3258H86.312H94.571H104.765L104.608 50.7752L103.037 73.1796L102.813 76.3762L101.958 88.5866L98.9344 131.717" stroke="black" stroke-width="0.376608" stroke-linecap="round" stroke-linejoin="round"/>
<path id="Vector_46" d="M98.9345 131.717L98.3598 140.63L93.2974 141.844C79.0639 145.254 64.2263 145.254 49.9927 141.844L44.9281 140.63L44.6841 137.13L40.6657 79.3092L40.4608 76.3814L40.2393 73.1765L38.6802 50.7668L38.5295 48.5486H66.5695" stroke="black" stroke-width="0.376608" stroke-linecap="round" stroke-linejoin="round"/>
<path id="Vector_47" d="M96.1944 128.423L93.2976 129.04C79.064 132.45 64.2264 132.45 49.9929 129.04L44.2896 127.821" stroke="black" stroke-width="0.376608" stroke-linecap="round" stroke-linejoin="round"/>
<path id="Vector_48" d="M38.635 50.7644H38.6802H104.442" stroke="black" stroke-width="0.376608" stroke-linecap="round" stroke-linejoin="round"/>
<path id="Vector_49" d="M57.0266 70.3835C62.7556 70.5093 68.5162 70.6095 71.6985 70.6095C79.5681 70.6095 103.164 69.97 103.164 69.97" stroke="black" stroke-width="0.376608" stroke-linecap="round" stroke-linejoin="round"/>
<path id="Vector_50" d="M40.2366 69.9739C40.2366 69.9739 45.259 70.111 51.4399 70.2571" stroke="black" stroke-width="0.376608" stroke-linecap="round" stroke-linejoin="round"/>
<path id="Vector_51" d="M86.1379 73.5897C94.0377 73.4188 101.949 73.2086 103.037 73.1777H103.164" stroke="black" stroke-width="0.376608" stroke-linecap="round" stroke-linejoin="round"/>
<path id="Vector_52" d="M40.2366 73.1768C40.5379 73.185 63.883 73.8162 71.6984 73.8162C73.3871 73.8162 75.7989 73.7854 78.5474 73.7409" stroke="black" stroke-width="0.376608" stroke-linecap="round" stroke-linejoin="round"/>
<path id="Vector_53" d="M40.5564 76.3762C40.5564 76.3762 63.8308 77.0187 71.6981 77.0187C79.402 77.0187 101.865 76.4041 102.813 76.3762H102.844" stroke="black" stroke-width="0.376608" stroke-linecap="round" stroke-linejoin="round"/>
<path id="Vector_54" d="M68.6187 127.116C69.6671 127.167 70.6825 127.192 71.6473 127.192C79.6088 127.192 88.9246 125.716 94.5029 124.673" stroke="black" stroke-width="0.376608" stroke-linecap="round" stroke-linejoin="round"/>
<path id="Vector_55" d="M43.8181 123.671C43.8181 123.671 53.3975 125.651 62.7419 126.644" stroke="black" stroke-width="0.376608" stroke-linecap="round" stroke-linejoin="round"/>
<path id="Vector_56" d="M83.889 83.9678C83.8581 83.9452 83.8355 83.9173 83.8046 83.8977C83.7738 83.8782 83.7542 83.8721 83.7293 83.8578C78.9669 80.5717 73.0941 79.312 67.403 80.3559C61.7118 81.3998 56.6684 84.6617 53.3822 89.4241C50.0961 94.1865 48.8364 100.059 49.8803 105.75C50.9242 111.442 54.1861 116.485 58.9485 119.771C58.9794 119.793 59.0042 119.822 59.0351 119.847C59.066 119.871 59.0939 119.877 59.1217 119.897C61.4808 121.523 64.1371 122.668 66.9388 123.268C69.7406 123.867 72.6329 123.909 75.4508 123.39C78.2686 122.872 80.9568 121.804 83.3617 120.246C85.7667 118.689 87.8414 116.673 89.4673 114.314C91.0933 111.955 92.2386 109.299 92.838 106.497C93.4374 103.695 93.4791 100.803 92.9607 97.9851C92.4423 95.1672 91.3739 92.4791 89.8166 90.0741C88.2593 87.6692 86.2436 85.5945 83.8845 83.9686L83.889 83.9678Z" stroke="black" stroke-width="0.376608" stroke-linecap="round" stroke-linejoin="round"/>
<path id="Vector_57" d="M54.8501 101.868C54.8482 99.0418 55.5698 96.262 56.9461 93.7936C58.3225 91.3251 60.3078 89.25 62.7131 87.7659C65.1183 86.2819 67.8634 85.4382 70.687 85.3152C73.5106 85.1923 76.3187 85.7942 78.8438 87.0635L60.2311 114.078C58.535 112.528 57.1805 110.642 56.254 108.54C55.3275 106.438 54.8494 104.165 54.8501 101.868Z" stroke="black" stroke-width="0.376608" stroke-linecap="round" stroke-linejoin="round"/>
<path id="Vector_58" d="M71.4182 118.436C68.8411 118.438 66.2996 117.835 63.9983 116.675L82.6103 89.6628C85.0727 91.9169 86.7963 94.8625 87.555 98.1134C88.3138 101.364 88.0722 104.769 86.862 107.88C85.6518 110.991 83.5295 113.664 80.7735 115.548C78.0175 117.431 74.7565 118.438 71.4182 118.436Z" stroke="black" stroke-width="0.376608" stroke-linecap="round" stroke-linejoin="round"/>
<path id="Vector_59" d="M44.6872 137.13C44.4318 137.13 32.5107 136.962 28.197 135.447C23.8419 133.916 12.7395 135.629 8.50269 136.125C4.26584 136.621 2.96655 135.447 4.9686 133.915C6.42707 132.904 8.06692 132.184 9.79822 131.795C9.79822 131.795 9.23707 123.903 15.1265 119.546C21.0159 115.189 13.0062 105.687 16.0687 95.7904C19.1313 85.8939 30.6811 81.4966 30.6811 81.4966" stroke="black" stroke-width="0.376608" stroke-linecap="round" stroke-linejoin="round"/>
<path id="Vector_60" d="M26.3101 113.832C26.3101 113.832 19.3496 120.338 19.3496 124.962" stroke="black" stroke-width="0.376608" stroke-linecap="round" stroke-linejoin="round"/>
<path id="Vector_61" d="M26.3103 92.3076C26.3103 92.3076 32.3729 93.5421 32.7126 97.5379" stroke="black" stroke-width="0.376608" stroke-linecap="round" stroke-linejoin="round"/>
<path id="Vector_62" d="M22.6895 80.8129C22.6895 79.7358 25.1464 76.396 28.5005 77.0189C31.8546 77.6418 31.9156 79.854 31.9156 79.854" stroke="black" stroke-width="0.376608" stroke-linecap="round" stroke-linejoin="round"/>
<path id="Vector_63" d="M33.352 72.845C31.4365 72.845 28.859 75.1393 28.5005 77.0185" stroke="black" stroke-width="0.376608" stroke-linecap="round" stroke-linejoin="round"/>
<path id="Vector_64" d="M28.5675 74.6575C28.1668 73.6339 27.1846 70.5322 29.848 69.974C33.0454 69.3037 38.8225 72.6577 37.0276 75.8574C35.2327 79.0571 35.8978 79.8494 35.8978 79.8494C37.4631 79.5052 39.06 79.3255 40.6626 79.3132" stroke="black" stroke-width="0.376608" stroke-linecap="round" stroke-linejoin="round"/>
<path id="Vector_65" d="M28.7073 74.9849V74.9796C28.696 74.954 28.6433 74.8418 28.5732 74.6655" stroke="black" stroke-width="0.376608" stroke-linecap="round" stroke-linejoin="round"/>
<path id="Vector_66" d="M28.5703 74.6655C28.622 74.7671 28.6668 74.872 28.7044 74.9796" stroke="black" stroke-width="0.376608" stroke-linecap="round" stroke-linejoin="round"/>
<path id="Vector_67" d="M28.5703 74.6658V74.6572" stroke="black" stroke-width="0.376608" stroke-linecap="round" stroke-linejoin="round"/>
<path id="Vector_68" d="M35.9011 79.8456C35.9626 80.2594 35.9588 80.6803 35.8898 81.0929C35.7188 82.1195 35.0402 83.3706 32.7158 83.1401C32.1432 82.4737 31.454 81.9171 30.6821 81.4974C29.3578 80.7449 27.8044 80.5015 26.3134 80.8127C23.8346 81.3257 23.1386 84.8311 21.9696 84.9102C20.8006 84.9893 20.2531 77.5739 23.9212 74.5309C26.8716 72.0852 28.1724 73.8665 28.5708 74.6574" stroke="black" stroke-width="0.376608" stroke-linecap="round" stroke-linejoin="round"/>
<path id="Vector_69" d="M101.98 88.5891C101.98 88.5891 108.543 78.4207 110.486 77.675C112.297 77.0358 114.218 76.7649 116.135 76.8781C118.016 76.9722 119.86 77.4406 121.558 78.2557" stroke="black" stroke-width="0.376608" stroke-linecap="round" stroke-linejoin="round"/>
<path id="Vector_70" d="M140.195 99.5798C141.14 101.232 141.797 102.754 141.797 103.792C141.797 106.654 140.145 108.607 136.901 110.315C135.847 110.857 134.763 111.34 133.656 111.762C133.656 111.762 141.281 116.386 143.076 120.65C144.871 124.913 143.076 126.549 143.076 126.549" stroke="black" stroke-width="0.376608" stroke-linecap="round" stroke-linejoin="round"/>
<path id="Vector_71" d="M133.479 90.2891C133.529 90.3508 134.364 91.3383 135.487 92.7799" stroke="black" stroke-width="0.376608" stroke-linecap="round" stroke-linejoin="round"/>
<path id="Vector_72" d="M98.9346 131.717C110.402 134.744 148.27 131.922 147.133 129.067C146.82 128.266 146.256 127.588 145.525 127.134C144.794 126.681 143.935 126.476 143.078 126.552" stroke="black" stroke-width="0.376608" stroke-linecap="round" stroke-linejoin="round"/>
<path id="Vector_73" d="M35.8896 81.093C35.8896 81.093 40.1973 83.2555 40.2365 86.2081" stroke="black" stroke-width="0.376608" stroke-linecap="round" stroke-linejoin="round"/>
<path id="Vector_74" d="M29.6107 82.0833C28.9098 82.8595 28.5152 83.8643 28.5005 84.9101" stroke="black" stroke-width="0.376608" stroke-linecap="round" stroke-linejoin="round"/>
<path id="Vector_75" d="M116.238 76.8806H116.137C115.5 76.864 112.112 76.8723 111.611 78.9843C111.46 79.6155 111.142 81.8164 110.875 84.8007C110.82 85.4371 110.766 86.1075 110.716 86.808C110.64 87.9024 110.576 89.0631 110.528 90.263C110.367 93.7349 110.455 97.2139 110.792 100.673C110.971 102.521 111.319 104.349 111.832 106.133C112.254 107.848 113.136 109.416 114.384 110.665C115.229 111.397 116.171 112.008 117.183 112.482C123.263 115.34 131.034 113.155 133.658 111.764" stroke="black" stroke-width="0.376608" stroke-linecap="round" stroke-linejoin="round"/>
<path id="Vector_76" d="M66.5727 48.5459H66.5696L63.0303 33.2563" stroke="black" stroke-width="0.376608" stroke-linecap="round" stroke-linejoin="round"/>
<path id="Vector_77" d="M77.6575 45.9795L66.5747 48.5457" stroke="black" stroke-width="0.376608" stroke-linecap="round" stroke-linejoin="round"/>
<path id="Vector_78" d="M90.137 35.8843L90.8774 39.3641" stroke="black" stroke-width="0.376608" stroke-linecap="round" stroke-linejoin="round"/>
<path id="Vector_79" d="M63.0303 33.2563L66.6563 32.3426L69.2112 31.6971L78.1405 29.448" stroke="black" stroke-width="0.376608" stroke-linecap="round" stroke-linejoin="round"/>
<path id="Vector_80" d="M63.0303 33.2563L73.5919 38.6885L78.0306 40.9715L80.8943 37.0254L83.9983 32.7463" stroke="black" stroke-width="0.376608" stroke-linecap="round" stroke-linejoin="round"/>
<path id="Vector_81" d="M73.4485 38.9634L66.5746 48.5458H66.5724L66.5693 48.5518" stroke="black" stroke-width="0.376608" stroke-linecap="round" stroke-linejoin="round"/>
<path id="Vector_82" d="M82.2516 37.746L80.8943 37.0251" stroke="black" stroke-width="0.376608" stroke-linecap="round" stroke-linejoin="round"/>
<path id="Vector_83" d="M63.0302 33.2563L53.6248 30.4016" stroke="black" stroke-width="0.376608" stroke-linecap="round" stroke-linejoin="round"/>
<path id="Vector_84" d="M47.0761 28.349L42.8136 27.0143L42.8076 27.0112L47.589 11.7473L53.8483 13.7072" stroke="black" stroke-width="0.376608" stroke-linecap="round" stroke-linejoin="round"/>
<path id="Vector_85" d="M69.175 31.5487L71.1997 25.3647" stroke="black" stroke-width="0.376608" stroke-linecap="round" stroke-linejoin="round"/>
<path id="Vector_86" d="M47.5894 11.7473L53.9751 22.1312L56.53 26.2844L60.672 24.4706L66.0198 22.1312" stroke="black" stroke-width="0.376608" stroke-linecap="round" stroke-linejoin="round"/>
<path id="Vector_87" d="M53.9751 22.1313L42.8139 27.0145L42.8057 27.0167" stroke="black" stroke-width="0.376608" stroke-linecap="round" stroke-linejoin="round"/>
<path id="Vector_88" d="M60.7534 24.6553L66.6059 32.143" stroke="black" stroke-width="0.376608" stroke-linecap="round" stroke-linejoin="round"/>
<path id="Vector_89" d="M97.5011 43.2031L97.4988 43.2092L94.571 48.5457" stroke="black" stroke-width="0.376608" stroke-linecap="round" stroke-linejoin="round"/>
<path id="Vector_90" d="M76.3259 48.5454L77.7164 46.0101L82.2515 37.7458L83.477 35.511L90.7907 39.5211L97.5011 43.2028" stroke="black" stroke-width="0.376608" stroke-linecap="round" stroke-linejoin="round"/>
<path id="Vector_91" d="M86.3119 48.5454L86.0679 47.4239L83.4768 35.511" stroke="black" stroke-width="0.376608" stroke-linecap="round" stroke-linejoin="round"/>
<path id="Vector_92" d="M97.5072 43.2061L97.4989 43.2091L86.0681 47.4241" stroke="black" stroke-width="0.376608" stroke-linecap="round" stroke-linejoin="round"/>
<path id="Vector_93" d="M62.8428 43.6074L66.3565 48.5455" stroke="black" stroke-width="0.376608" stroke-linecap="round" stroke-linejoin="round"/>
<path id="Vector_94" d="M44.7602 48.2963L36.1841 36.2516L47.1464 28.4468L50.3995 26.1306L50.4048 26.1359L53.5013 30.4887L62.8427 43.6075" stroke="black" stroke-width="0.376608" stroke-linecap="round" stroke-linejoin="round"/>
<path id="Vector_95" d="M53.5344 48.2959L53.7672 45.9007L54.2839 40.6093L49.1153 39.3635L36.1841 36.2512" stroke="black" stroke-width="0.376608" stroke-linecap="round" stroke-linejoin="round"/>
<path id="Vector_96" d="M53.7673 45.9014L64.6008 48.5098" stroke="black" stroke-width="0.376608" stroke-linecap="round" stroke-linejoin="round"/>
<path id="Vector_97" d="M50.4047 26.1277V26.136L49.1152 39.364" stroke="black" stroke-width="0.376608" stroke-linecap="round" stroke-linejoin="round"/>
<path id="Vector_98" d="M131.221 91.585L135.441 92.931L141.679 94.9164L140.195 99.5803L136.824 110.158L136.816 110.156L122.929 105.733" stroke="black" stroke-width="0.376608" stroke-linecap="round" stroke-linejoin="round"/>
<path id="Vector_99" d="M126.01 101.68L126.028 101.672L130.487 99.7479L141.679 94.916" stroke="black" stroke-width="0.376608" stroke-linecap="round" stroke-linejoin="round"/>
<path id="Vector_100" d="M136.821 110.163L136.816 110.155L130.487 99.7478" stroke="black" stroke-width="0.376608" stroke-linecap="round" stroke-linejoin="round"/>
<path id="Vector_101" d="M110.875 84.7974L121.745 78.5744L130.61 73.5015L138.558 87.3855L138.552 87.3885L133.482 90.2907L131.221 91.5839L124.048 95.6897" stroke="black" stroke-width="0.376608" stroke-linecap="round" stroke-linejoin="round"/>
<path id="Vector_102" d="M114.047 96.4048L110.528 90.2601L110.522 90.2495" stroke="black" stroke-width="0.376608" stroke-linecap="round" stroke-linejoin="round"/>
<path id="Vector_103" d="M110.875 86.8161L120.217 88.6697L124.998 89.618L126.603 85.0159L130.61 73.5015" stroke="black" stroke-width="0.376608" stroke-linecap="round" stroke-linejoin="round"/>
<path id="Vector_104" d="M120.217 88.6702L119.092 91.9067" stroke="black" stroke-width="0.376608" stroke-linecap="round" stroke-linejoin="round"/>
<path id="Vector_105" d="M138.561 87.3925L138.552 87.3895L126.603 85.0168" stroke="black" stroke-width="0.376608" stroke-linecap="round" stroke-linejoin="round"/>
<path id="Vector_106" d="M110.792 100.671L114.047 96.4051L118.077 91.1304L119.092 91.9069L124.048 95.6903L128.184 98.8508L128.181 98.8531L126.028 101.672L122.929 105.732L117.816 112.424" stroke="black" stroke-width="0.376608" stroke-linecap="round" stroke-linejoin="round"/>
<path id="Vector_107" d="M111.832 106.131L115.144 105.452L118.938 104.672L118.692 100.805L118.077 91.1304" stroke="black" stroke-width="0.376608" stroke-linecap="round" stroke-linejoin="round"/>
<path id="Vector_108" d="M115.144 105.452L115.45 111.487" stroke="black" stroke-width="0.376608" stroke-linecap="round" stroke-linejoin="round"/>
<path id="Vector_109" d="M128.187 98.853H128.181L118.694 100.805" stroke="black" stroke-width="0.376608" stroke-linecap="round" stroke-linejoin="round"/>
<path id="Vector_110" d="M97.507 36.0747C94.1175 34.288 82.3944 28.1945 78.5914 26.0215C62.7129 16.9407 50.4656 8.49114 51.2324 7.14816C51.9163 5.95054 62.7189 10.8073 76.3062 18.3116C77.9577 19.2235 79.6467 20.1733 81.3731 21.161C83.0301 22.1116 84.6548 23.0538 86.2223 23.9825C99.6694 31.9297 109.417 38.8314 108.73 40.0343C108.307 40.7778 103.979 39.1847 97.507 36.0747Z" stroke="black" stroke-width="0.376608" stroke-linecap="round" stroke-linejoin="round"/>
<path id="Vector_111" d="M72.4641 26.164C72.0521 25.9064 71.628 25.6368 71.1995 25.3649C69.5703 24.333 67.8288 23.2114 66.067 22.0613C61.6133 19.1531 57.0397 16.0574 53.8551 13.7089C51.1579 11.7234 49.4526 10.2734 49.6514 9.92847" stroke="black" stroke-width="0.376608" stroke-linecap="round" stroke-linejoin="round"/>
<path id="Vector_112" d="M94.571 38.1219C93.4517 37.5411 91.9069 36.745 90.1624 35.8389C88.2613 34.8492 86.1267 33.7359 84.0546 32.6392C81.9064 31.5011 79.8253 30.3796 78.1426 29.4426C77.7359 29.2166 77.3547 29.0019 77.0015 28.8001C75.4536 27.9143 73.9366 27.0338 72.4641 26.1638" stroke="black" stroke-width="0.376608" stroke-linecap="round" stroke-linejoin="round"/>
<path id="Vector_113" d="M107.14 42.8136C106.809 43.3943 98.8365 40.0064 94.571 38.1218" stroke="black" stroke-width="0.376608" stroke-linecap="round" stroke-linejoin="round"/>
<path id="Vector_114" d="M49.6445 9.92705L51.2323 7.14844" stroke="black" stroke-width="0.376608" stroke-linecap="round" stroke-linejoin="round"/>
<path id="Vector_115" d="M107.14 42.8138L108.73 40.0344" stroke="black" stroke-width="0.376608" stroke-linecap="round" stroke-linejoin="round"/>
<path id="Vector_116" d="M75.3467 19.5682C75.6103 19.1093 75.9329 18.6869 76.3063 18.3118C77.1365 17.4863 78.1926 16.9253 79.3414 16.6994C80.4901 16.4736 81.68 16.5931 82.7609 17.0429C83.8418 17.4927 84.7653 18.2526 85.4147 19.2267C86.0641 20.2009 86.4104 21.3455 86.4099 22.5163C86.4073 23.5451 86.1379 24.5556 85.6281 25.4493" stroke="black" stroke-width="0.376608" stroke-linecap="round" stroke-linejoin="round"/>
<path id="Vector_117" d="M133.658 112.323C133.658 112.323 133.389 115.991 130.609 117.632" stroke="black" stroke-width="0.376608" stroke-linecap="round" stroke-linejoin="round"/>
<path id="Vector_118" d="M9.79811 131.796C9.79811 131.796 9.53675 135.605 25.4801 131.594" stroke="black" stroke-width="0.376608" stroke-linecap="round" stroke-linejoin="round"/>
<path id="Vector_119" d="M133.403 112.143C131.332 114.344 128.811 116.074 126.01 117.213" stroke="black" stroke-width="0.376608" stroke-linecap="round" stroke-linejoin="round"/>
<path id="Vector_120" d="M122.056 129.188C122.056 129.188 137.744 129.037 140.941 127.822" stroke="black" stroke-width="0.376608" stroke-linecap="round" stroke-linejoin="round"/>
<path id="Vector_121" d="M32.7153 83.1399C32.7153 83.1399 33.2787 88.328 34.8997 89.8955" stroke="black" stroke-width="0.376608" stroke-linecap="round" stroke-linejoin="round"/>
</g>
</svg>
