<svg width="151" height="151" viewBox="0 0 151 151" fill="none" xmlns="http://www.w3.org/2000/svg">
<g id="Time-In-For-Work--Streamline-London">
<g id="Time-In-For-Work--Streamline-London.svg">
<g id="arrows">
<path id="vector" d="M107.437 58.1886L123.813 36.1186L114.052 32.2832L107.437 58.1886Z" fill="white"/>
<path id="vector_2" d="M107.154 58.1168L113.769 32.2092C113.79 32.1279 113.844 32.0593 113.918 32.0209C114.101 31.9283 113.939 31.9659 123.92 35.845C124.101 35.9158 124.16 36.141 124.046 36.2909L107.67 58.3609C107.481 58.6147 107.075 58.4272 107.154 58.1161V58.1168ZM114.253 32.6754L108.087 56.8221L123.35 36.251L114.253 32.6747V32.6754Z" fill="black"/>
<path id="vector_3" d="M110.761 82.0396L134.581 91.3403L135.637 81.6389L110.761 82.0396Z" fill="white"/>
<path id="vector_4" d="M134.581 91.633L110.655 82.3127C110.359 82.1982 110.436 81.7516 110.756 81.7478L135.633 81.3471C135.71 81.3441 135.797 81.381 135.854 81.4428C135.993 81.5934 135.941 81.4653 134.872 91.3732C134.856 91.5215 134.729 91.633 134.581 91.633ZM112.25 82.3082L134.333 90.9303L135.311 81.9361L112.25 82.3074V82.3082Z" fill="black"/>
<path id="vector_5" d="M141.703 54.1156L136.599 47.9452C136.496 47.8202 136.313 47.8044 136.188 47.906L119.19 61.9656L115.261 57.2128C115.105 57.0267 114.807 57.0975 114.751 57.328L110.54 74.3891C110.494 74.5722 110.635 74.7507 110.824 74.7507L128.387 73.8174C128.626 73.8031 128.748 73.5229 128.596 73.3391L124.667 68.5863L141.665 54.5268C141.788 54.4206 141.805 54.2406 141.704 54.1148L141.703 54.1156Z" fill="black"/>
</g>
<g id="screen">
<path id="vector_6" d="M96.9447 10.9709H9.0023C7.31834 10.9709 5.95325 12.3361 5.95325 14.02V134.187C5.95325 135.871 7.31834 137.236 9.0023 137.236H96.9447C98.6289 137.236 99.9938 135.871 99.9938 134.187V14.02C99.9938 12.3361 98.6289 10.9709 96.9447 10.9709Z" fill="#81F8F8"/>
<path id="vector_7" d="M92.335 17.4612H13.6148C12.9688 17.4612 12.4451 17.9849 12.4451 18.6309V71.3094C12.4451 71.9554 12.9688 72.4791 13.6148 72.4791H92.335C92.9812 72.4791 93.5047 71.9554 93.5047 71.3094V18.6309C93.5047 17.9849 92.9812 17.4612 92.335 17.4612Z" fill="white"/>
<path id="vector_8" d="M100.286 14.0197C100.286 12.1781 98.7872 10.6792 96.9448 10.6792H9.00308C6.97768 10.6792 5.69194 12.5299 4.5915 14.2638C4.22468 14.843 3.76672 15.5638 3.76672 16.4556V136.624C3.76672 138.465 5.26562 139.964 7.10724 139.964H95.0505C97.75 139.964 100.287 135.782 100.287 134.188V14.0197H100.286ZM99.7016 14.0197V134.188C99.7016 135.708 98.4656 136.945 96.9448 136.945H9.00308C7.48234 136.945 6.24631 135.708 6.24631 134.188V14.0197C6.24631 12.4997 7.48309 11.2629 9.00308 11.2629H96.9456C98.4663 11.2629 99.7024 12.499 99.7024 14.0197H99.7016Z" fill="black"/>
<path id="vector_9" d="M15.459 79.6982H48.4589C49.371 79.6982 50.1122 80.4394 50.1122 81.3516V127.588H13.8057V81.3516C13.8057 80.4394 14.5476 79.6982 15.459 79.6982Z" fill="#FFD997"/>
<path id="vector_10" d="M92.3336 17.1692H13.612C12.8053 17.1692 12.15 17.8245 12.15 18.6312V71.3111C12.15 72.1178 12.8053 72.7731 13.612 72.7731H92.3336C93.1395 72.7731 93.7956 72.1178 93.7956 71.3111V18.6312C93.7956 17.8245 93.1403 17.1692 92.3336 17.1692ZM13.612 17.7529H92.3336C92.8171 17.7529 93.2111 18.1469 93.2111 18.6304V47.5163H12.7338V18.6312C12.7338 18.1476 13.1285 17.7537 13.612 17.7537V17.7529ZM92.3336 72.1886H13.612C13.1285 72.1886 12.7338 71.7947 12.7338 71.3111V48.1H93.2111V71.3111C93.2111 71.7947 92.8171 72.1886 92.3336 72.1886Z" fill="black"/>
<path id="vector_11" d="M74.8712 47.8085H31.074C33.3374 37.8005 42.2826 30.3286 52.9737 30.3286C63.6649 30.3286 72.6086 37.8005 74.872 47.8085H74.8712Z" fill="#FFD997"/>
<path id="vector_12" d="M74.8703 48.1002C41.6543 48.1002 33.3388 48.0904 31.2983 48.1047C30.5006 48.1107 30.7545 47.8931 30.7884 47.7432C34.4558 31.5189 54.0725 24.4123 67.2666 35.0869C71.2353 38.2978 74.0373 42.7923 75.1558 47.7432C75.1972 47.9277 75.0556 48.1002 74.8703 48.1002ZM31.4407 47.5164H74.502C73.3594 42.8337 70.6697 38.5923 66.8991 35.5418C54.2789 25.3327 35.2715 31.8134 31.4414 47.5164H31.4407Z" fill="black"/>
<path id="vector_13" d="M52.6804 28.1652V21.6604C52.6804 21.274 53.2642 21.274 53.2642 21.6604V28.1652C53.2642 28.5516 52.6804 28.5516 52.6804 28.1652Z" fill="black"/>
<path id="vector_14" d="M38.8401 32.7525L35.6027 27.1109C35.4099 26.7787 35.9161 26.4827 36.1104 26.8201L39.3477 32.4617C39.5413 32.7947 39.0299 33.0869 38.8401 32.7525Z" fill="black"/>
<path id="vector_15" d="M31.6051 41.287C31.5297 41.287 31.9372 41.4158 25.3323 39.2443C24.9655 39.1237 25.147 38.5686 25.5138 38.6891L31.6954 40.7175C32.0095 40.8215 31.935 41.287 31.6043 41.287H31.6051Z" fill="black"/>
<path id="vector_16" d="M66.8546 32.9004C66.6339 32.9004 66.4878 32.6609 66.6 32.462L69.8373 26.8205C70.0271 26.4883 70.5386 26.7707 70.345 27.1112C66.8583 33.2461 67.0956 32.9004 66.8546 32.9004Z" fill="black"/>
<path id="vector_17" d="M74.3392 41.2868C74.0086 41.2868 73.9347 40.8206 74.2481 40.7174L80.4298 38.689C80.7974 38.5692 80.9789 39.1228 80.6113 39.2441C74.0244 41.4096 74.4138 41.2868 74.3385 41.2868H74.3392Z" fill="black"/>
<path id="vector_18" d="M48.4583 79.4045H15.4584C14.3858 79.4045 13.5129 80.2775 13.5129 81.3501C13.5129 127.792 13.4511 127.668 13.6168 127.811L15.8885 129.731C16.3593 130.131 16.9596 130.35 17.5772 130.35H46.3388C46.9557 130.35 47.556 130.131 48.0282 129.731C50.4747 127.662 50.4039 127.777 50.4039 127.586V81.3501C50.4039 80.2775 49.5309 79.4045 48.4583 79.4045ZM14.0973 81.3501C14.0973 80.5991 14.7075 79.989 15.4584 79.989H48.4583C49.2093 79.989 49.8194 80.5991 49.8194 81.3501V127.295H14.0973V81.3501Z" fill="black"/>
<path id="vector_19" d="M46.8666 82.9431H17.0505V91.5087H46.8666V82.9431Z" fill="white"/>
<path id="vector_20" d="M46.8667 91.799H17.0507C16.8902 91.799 16.7584 91.6679 16.7584 91.5068V82.9412C16.7584 82.7807 16.8902 82.6489 17.0507 82.6489H46.8667C47.0272 82.6489 47.159 82.78 47.159 82.9412V91.5068C47.159 91.6672 47.0279 91.799 46.8667 91.799ZM17.3429 91.2153H46.5752V83.2342H17.3429V91.2153Z" fill="black"/>
<path id="vector_21" d="M22.3155 95.5881H18.4154C17.6615 95.5881 17.0505 96.199 17.0505 96.953V99.0861C17.0505 99.84 17.6615 100.451 18.4154 100.451H22.3155C23.0693 100.451 23.6803 99.84 23.6803 99.0861V96.953C23.6803 96.199 23.0693 95.5881 22.3155 95.5881Z" fill="black"/>
<path id="vector_22" d="M29.7986 95.5881H26.6351C25.8813 95.5881 25.2703 96.199 25.2703 96.953V99.0861C25.2703 99.84 25.8813 100.451 26.6351 100.451H29.7986C30.5523 100.451 31.1634 99.84 31.1634 99.0861V96.953C31.1634 96.199 30.5523 95.5881 29.7986 95.5881Z" fill="black"/>
<path id="vector_23" d="M37.2822 95.5881H34.1202C33.3664 95.5881 32.7554 96.199 32.7554 96.953V99.0861C32.7554 99.84 33.3664 100.451 34.1202 100.451H37.2822C38.0359 100.451 38.647 99.84 38.647 99.0861V96.953C38.647 96.199 38.0359 95.5881 37.2822 95.5881Z" fill="black"/>
<path id="vector_24" d="M45.5029 95.5881H41.6042C40.8505 95.5881 40.2394 96.199 40.2394 96.953V99.0861C40.2394 99.84 40.8505 100.451 41.6042 100.451H45.5029C46.2567 100.451 46.8677 99.84 46.8677 99.0861V96.953C46.8677 96.199 46.2567 95.5881 45.5029 95.5881Z" fill="black"/>
<path id="vector_25" d="M22.3155 103.551H18.4154C17.6615 103.551 17.0505 104.162 17.0505 104.916V107.049C17.0505 107.803 17.6615 108.414 18.4154 108.414H22.3155C23.0693 108.414 23.6803 107.803 23.6803 107.049V104.916C23.6803 104.162 23.0693 103.551 22.3155 103.551Z" fill="black"/>
<path id="vector_26" d="M29.7986 103.551H26.6351C25.8813 103.551 25.2703 104.162 25.2703 104.916V107.049C25.2703 107.803 25.8813 108.414 26.6351 108.414H29.7986C30.5523 108.414 31.1634 107.803 31.1634 107.049V104.916C31.1634 104.162 30.5523 103.551 29.7986 103.551Z" fill="black"/>
<path id="vector_27" d="M37.2822 103.551H34.1202C33.3664 103.551 32.7554 104.162 32.7554 104.916V107.049C32.7554 107.803 33.3664 108.414 34.1202 108.414H37.2822C38.0359 108.414 38.647 107.803 38.647 107.049V104.916C38.647 104.162 38.0359 103.551 37.2822 103.551Z" fill="black"/>
<path id="vector_28" d="M45.5029 103.551H41.6042C40.8505 103.551 40.2394 104.162 40.2394 104.916V107.049C40.2394 107.803 40.8505 108.414 41.6042 108.414H45.5029C46.2567 108.414 46.8677 107.803 46.8677 107.049V104.916C46.8677 104.162 46.2567 103.551 45.5029 103.551Z" fill="black"/>
<path id="vector_29" d="M22.3155 111.515H18.4154C17.6615 111.515 17.0505 112.126 17.0505 112.879V115.013C17.0505 115.767 17.6615 116.377 18.4154 116.377H22.3155C23.0693 116.377 23.6803 115.767 23.6803 115.013V112.879C23.6803 112.126 23.0693 111.515 22.3155 111.515Z" fill="black"/>
<path id="vector_30" d="M29.7986 111.515H26.6351C25.8813 111.515 25.2703 112.126 25.2703 112.879V115.013C25.2703 115.767 25.8813 116.377 26.6351 116.377H29.7986C30.5523 116.377 31.1634 115.767 31.1634 115.013V112.879C31.1634 112.126 30.5523 111.515 29.7986 111.515Z" fill="black"/>
<path id="vector_31" d="M37.2822 111.515H34.1202C33.3664 111.515 32.7554 112.126 32.7554 112.879V115.013C32.7554 115.767 33.3664 116.377 34.1202 116.377H37.2822C38.0359 116.377 38.647 115.767 38.647 115.013V112.879C38.647 112.126 38.0359 111.515 37.2822 111.515Z" fill="black"/>
<path id="vector_32" d="M45.5029 111.515H41.6042C40.8505 111.515 40.2394 112.126 40.2394 112.879V115.013C40.2394 115.767 40.8505 116.377 41.6042 116.377H45.5029C46.2567 116.377 46.8677 115.767 46.8677 115.013V112.879C46.8677 112.126 46.2567 111.515 45.5029 111.515Z" fill="black"/>
<path id="vector_33" d="M22.3155 119.479H18.4154C17.6615 119.479 17.0505 120.089 17.0505 120.843V122.976C17.0505 123.73 17.6615 124.341 18.4154 124.341H22.3155C23.0693 124.341 23.6803 123.73 23.6803 122.976V120.843C23.6803 120.089 23.0693 119.479 22.3155 119.479Z" fill="black"/>
<path id="vector_34" d="M29.7986 119.479H26.6351C25.8813 119.479 25.2703 120.089 25.2703 120.843V122.976C25.2703 123.73 25.8813 124.341 26.6351 124.341H29.7986C30.5523 124.341 31.1634 123.73 31.1634 122.976V120.843C31.1634 120.089 30.5523 119.479 29.7986 119.479Z" fill="black"/>
<path id="vector_35" d="M37.2822 119.479H34.1202C33.3664 119.479 32.7554 120.089 32.7554 120.843V122.976C32.7554 123.73 33.3664 124.341 34.1202 124.341H37.2822C38.0359 124.341 38.647 123.73 38.647 122.976V120.843C38.647 120.089 38.0359 119.479 37.2822 119.479Z" fill="black"/>
<path id="vector_36" d="M45.5029 119.479H41.6042C40.8505 119.479 40.2394 120.089 40.2394 120.843V122.976C40.2394 123.73 40.8505 124.341 41.6042 124.341H45.5029C46.2567 124.341 46.8677 123.73 46.8677 122.976V120.843C46.8677 120.089 46.2567 119.479 45.5029 119.479Z" fill="black"/>
<path id="vector_37" d="M29.2057 54.4834V58.5169L27.932 59.7906L27.5072 59.3658V53.8462L29.2057 54.4842V54.4834ZM27.5072 66.1613V60.6417L27.932 60.2169L29.2057 61.4906V65.524L27.5072 66.162V66.1613ZM34.9399 67.6489H28.5685C28.0021 67.508 27.6488 67.154 27.5072 66.5876L29.2057 65.9496H34.302L34.9399 67.6481V67.6489ZM34.299 54.0601H29.2253L27.5268 53.4221C27.6676 52.8557 28.0216 52.5024 28.5881 52.3608H34.9369L34.299 54.0593V54.0601ZM34.726 58.5191V54.0601L35.364 52.3616C35.9304 52.5024 36.2837 52.8565 36.4253 53.4229V59.368L36.0005 59.7928L34.7268 58.5191H34.726ZM35.9997 60.2176L36.4245 60.6425V66.5876C36.2837 67.154 35.9297 67.5073 35.3632 67.6489L34.7253 65.9504V61.4913L35.999 60.2176H35.9997Z" fill="black"/>
<path id="vector_38" d="M39.8208 54.4834V58.5169L38.5471 59.7906L38.1223 59.3658V53.8462L39.8208 54.4842V54.4834ZM45.5551 67.6489H39.1836C38.6172 67.508 38.2639 67.154 38.1223 66.5876L39.8208 65.9496H44.9171L45.5551 67.6481V67.6489ZM44.9141 54.0601H39.8404L38.1419 53.4221C38.2828 52.8557 38.6368 52.5024 39.2032 52.3608H45.552L44.9141 54.0593V54.0601ZM45.3411 59.1564L46.19 60.0052L45.3411 60.8556H39.8216L38.9727 60.0052L39.8216 59.1564H45.3411ZM45.3411 58.5184V54.0593L45.9791 52.3608C46.5455 52.5017 46.8988 52.8557 47.0404 53.4221V59.3673L46.6156 59.7921L45.3419 58.5184H45.3411ZM46.6148 60.2169L47.0396 60.6417V66.5868C46.8988 67.1533 46.5448 67.5065 45.9784 67.6481L45.3404 65.9496V61.4906L46.6141 60.2169H46.6148Z" fill="black"/>
<path id="vector_39" d="M54.0482 57.4558H52.3497V55.7573H54.0482V57.4558ZM54.0482 64.2513H52.3497V62.5521H54.0482V64.2513Z" fill="black"/>
<path id="vector_40" d="M61.0555 54.4834V58.5169L59.7818 59.7906L59.357 59.3658V53.8462L61.0562 54.4842L61.0555 54.4834ZM59.3562 66.1613V60.6417L59.781 60.2169L61.0547 61.4906V65.524L59.3555 66.162L59.3562 66.1613ZM66.789 67.6489H60.4175C59.8511 67.508 59.4978 67.154 59.3562 66.5876L61.0555 65.9496H66.1517L66.7897 67.6481L66.789 67.6489ZM66.148 54.0601H61.0743L59.3758 53.4221C59.5167 52.8557 59.8707 52.5024 60.4371 52.3608H66.7859L66.148 54.0593V54.0601ZM66.575 58.5191V54.0601L67.213 52.3616C67.7794 52.5024 68.1327 52.8565 68.2743 53.4229V59.368L67.8495 59.7928L66.5758 58.5191H66.575ZM67.8487 60.2176L68.2735 60.6425V66.5876C68.1327 67.154 67.7787 67.5073 67.2123 67.6489L66.5743 65.9504V61.4913L67.848 60.2176H67.8487Z" fill="black"/>
<path id="vector_41" d="M71.6698 54.4834V58.5169L70.3961 59.7906L69.9713 59.3658V53.8462L71.6698 54.4842V54.4834ZM69.9713 66.1613V60.6417L70.3961 60.2169L71.6698 61.4906V65.524L69.9713 66.162V66.1613ZM77.4041 67.6489H71.0319C70.4654 67.508 70.1122 67.154 69.9706 66.5876L71.6691 65.9496H76.7653L77.4033 67.6481L77.4041 67.6489ZM76.7631 54.0601H71.6894L69.9909 53.4221C70.1318 52.8557 70.4858 52.5024 71.0522 52.3608H77.4011L76.7631 54.0593V54.0601ZM77.1894 58.5191V54.0601L77.8274 52.3616C78.3938 52.5024 78.7471 52.8565 78.8887 53.4229V59.368L78.4638 59.7928L77.1902 58.5191H77.1894ZM78.4631 60.2176L78.8879 60.6425V66.5876C78.7471 67.154 78.393 67.5073 77.8266 67.6489L77.1886 65.9504V61.4913L78.4623 60.2176H78.4631Z" fill="black"/>
</g>
<g id="hand with card">
<g id="group">
<path id="vector_42" d="M136.128 111.599C132.639 109.523 125.331 103.624 123.753 101.63C122.174 99.6367 115.796 92.0194 111.126 91.9456C107.918 91.8951 104.811 92.9647 100.839 93.5243C98.0515 93.9167 94.6078 94.148 92.3594 96.3413C91.0488 97.6203 89.867 99.1486 88.3855 100.891C86.6764 102.901 83.8308 105.375 82.1805 107.292C80.5287 109.209 78.3978 112.368 77.3418 113.777C76.2866 115.185 77.5994 116.821 80.0632 116.467C81.5124 116.259 83.7434 114.801 84.3422 114.266C83.7012 116.653 82.8855 119.492 82.4064 120.426C81.5289 122.14 82.072 122.307 83.7434 123.017C85.4148 123.728 89.0106 119.59 89.0106 119.59L88.2582 122.6C88.2582 122.6 87.9652 123.603 88.3832 124.439C88.8012 125.274 90.4312 125.275 91.2258 125.107C92.019 124.939 92.9394 123.309 92.9394 123.309L93.1066 124.897C94.778 126.903 96.2837 125.65 98.2067 124.228C100.13 122.806 100.339 121.889 100.339 121.889C103.545 121.691 104.873 120.447 105.424 119.46C107.219 122.663 109.779 122.8 110.769 123.908C111.52 124.748 115.675 129.389 118.903 131.245C122.13 133.101 123.412 134.383 131.192 134.869C138.972 135.356 145.814 138.066 145.814 138.066C146.696 131.822 147.066 125.318 146.589 115.267C146.589 115.267 139.618 113.674 136.13 111.598L136.128 111.599Z" fill="#FFD997"/>
<path id="vector_43" d="M146.65 114.986C146.58 114.969 139.685 113.378 136.276 111.35C132.885 109.331 125.529 103.412 123.979 101.452C122.695 99.8298 116.041 91.735 111.128 91.6567C107.767 91.6032 104.977 92.6826 99.8998 93.3567C93.6684 94.1792 92.9069 95.0055 89.2885 99.3583C87.7572 101.192 87.602 101.423 84.959 104.013C82.1043 106.811 81.6057 107.31 78.29 111.966C77.8223 112.619 77.4201 113.186 77.109 113.601C75.9679 115.125 77.2363 117.161 80.0993 116.757C81.2539 116.591 82.8764 115.678 83.8586 114.998C83.0903 117.127 82.3913 119.451 81.9469 120.721C81.3112 122.539 83.1694 124.07 85.7536 122.826C86.7984 122.322 87.7534 121.497 88.5481 120.457L87.758 123.174C87.4431 124.255 88.6302 125.605 90.1366 125.605C91.3907 125.605 92.0784 124.755 92.6712 124.116C92.6471 125.102 93.0591 125.294 93.383 125.605C93.7076 125.913 94.1339 126.32 94.8532 126.32C95.275 126.32 95.7993 126.18 96.4614 125.795C97.4315 125.23 100.302 123.291 100.513 122.188C101.117 122.063 104.076 121.421 104.787 120.709C105.077 120.42 105.26 120.167 105.377 119.959C107.151 122.835 109.701 123.15 110.55 124.101C112.392 126.161 115.909 129.86 118.756 131.497C122.371 133.575 123.601 134.688 131.173 135.161C138.814 135.638 145.638 138.309 145.707 138.337C146.064 138.481 146.276 137.937 145.919 137.793C145.851 137.765 138.944 135.06 131.207 134.576C123.509 134.094 122.303 132.867 119.046 130.989C116.167 129.333 112.45 125.347 110.985 123.71C109.698 122.269 106.045 122.394 104.509 116.367C104.414 115.99 103.855 116.128 103.942 116.501C103.96 116.58 104.277 117.912 105.016 119.322C104.966 119.487 104.812 119.859 104.375 120.296C103.927 120.744 101.857 121.306 100.523 121.59C100.457 121.062 100.245 120.506 100.185 119.941C100.145 119.558 99.5631 119.617 99.6045 120.002C99.6927 120.832 100.071 121.634 99.9239 122.146C99.7913 122.609 98.1553 124.134 96.1676 125.289C94.7591 126.107 94.2642 125.637 93.7874 125.181C93.685 125.085 93.5893 124.993 93.4854 124.913C93.1434 124.651 93.3061 123.619 93.4093 123.306C94.4744 122.105 95.2638 120.979 95.556 119.25C95.8392 119.078 98.5274 117.402 99.4742 115.168C100.206 114.878 102.599 113.806 101.989 113.278C101.867 113.172 101.682 113.187 101.577 113.309C101.236 113.704 100.338 114.158 99.713 114.435C99.7296 114.362 99.7446 114.289 99.7567 114.214C99.8184 113.831 99.2415 113.737 99.179 114.12C98.8566 116.101 96.5924 117.842 95.6486 118.491C95.6637 118.292 95.6735 118.086 95.678 117.871C95.681 117.71 95.5515 117.574 95.391 117.574C95.2321 117.574 95.0973 117.702 95.0943 117.861C95.0431 120.841 93.7987 122.033 91.7967 124.199C90.6443 125.446 89.4896 124.944 89.1635 124.758C88.5466 124.411 88.185 123.799 88.3199 123.335L89.7163 118.529C89.9656 118.003 90.1788 117.449 90.3505 116.875C90.7369 116.629 93.749 114.616 94.5956 111.406C94.6936 111.034 94.1294 110.882 94.0307 111.257C93.4221 113.57 91.5346 115.263 90.5765 115.997C90.6021 115.877 90.627 115.757 90.6488 115.636C90.7188 115.254 90.1441 115.15 90.0741 115.529C89.5227 118.526 87.6841 121.245 85.4998 122.297C84.4242 122.814 83.3547 122.814 82.7754 122.297C82.4003 121.961 82.3017 121.469 82.496 120.912C83.1264 119.104 83.8488 116.608 84.7549 114.258C85.087 113.889 85.3921 113.389 85.6181 112.849C85.6911 112.825 87.4062 112.241 88.5744 110.766C88.8147 110.463 88.3575 110.099 88.1165 110.402C87.3964 111.312 86.421 111.857 85.8674 112.115C85.89 112.03 85.9096 111.946 85.9276 111.862C86.0082 111.49 85.4395 111.361 85.3567 111.743C85.1722 112.622 84.675 113.566 84.1493 114.042C83.5588 114.574 81.3797 115.982 80.0149 116.178C78.8354 116.35 77.8147 116.026 77.4185 115.357C77.1625 114.924 77.2159 114.426 77.5692 113.954C77.8855 113.532 78.2893 112.964 78.7585 112.308C82.0184 107.733 82.4862 107.249 85.3605 104.434C93.4726 96.4803 91.3689 95.0703 99.9698 93.9389C104.943 93.2806 107.843 92.196 111.114 92.2419C115.764 92.315 122.261 100.23 123.517 101.815C125.133 103.855 132.465 109.764 135.974 111.853C139.462 113.928 146.229 115.491 146.517 115.555C146.894 115.641 147.026 115.072 146.648 114.986H146.65Z" fill="black"/>
<path id="vector_44" d="M106.71 101.41C107.624 99.8684 107.339 96.3381 107.336 96.3027C107.303 95.9178 107.885 95.8673 107.917 96.2522C107.93 96.4044 108.223 100.007 107.211 101.707C107.018 102.032 106.51 101.747 106.71 101.41Z" fill="black"/>
<path id="vector_45" d="M108.815 100.994C109.661 99.6465 110.507 99.0454 110.827 97.5006C110.905 97.121 111.474 97.2415 111.399 97.6173C111.069 99.2887 110.113 100.011 109.31 101.304C109.108 101.628 108.609 101.322 108.815 100.993V100.994Z" fill="black"/>
<path id="vector_46" d="M96.3544 102.437C96.0674 102.437 95.9507 102.063 96.1924 101.901C96.2504 101.862 97.6288 100.944 99.2912 100.272C99.6505 100.126 99.8666 100.668 99.5104 100.813C97.4292 101.665 96.6022 102.436 96.3544 102.436V102.437Z" fill="black"/>
</g>
<g id="group_2">
<path id="vector_47" d="M84.8892 118.453C84.5194 119.178 83.6299 119.465 82.9045 119.095L53.1278 103.916C52.4024 103.547 52.1155 102.657 52.4853 101.932L62.7727 81.7922C63.1425 81.0669 64.0321 80.7799 64.7574 81.1497L94.5342 96.3285C95.2595 96.6984 95.5465 97.5879 95.1767 98.3133L84.8892 118.453Z" fill="white"/>
<path id="vector_48" d="M83.5748 119.546C82.9112 119.546 83.4558 119.703 52.9965 104.175C52.1432 103.741 51.7741 102.685 52.226 101.798L62.5127 81.6587C62.9556 80.7902 64.0214 80.4468 64.8898 80.8897L94.6666 96.0685C95.5298 96.5084 95.8846 97.5696 95.4372 98.4441L85.1505 118.584C84.8387 119.195 84.2173 119.546 83.5748 119.546ZM64.0877 81.2798C63.6576 81.2798 63.2425 81.5148 63.0332 81.9238L52.7465 102.063C52.4497 102.64 52.6787 103.358 53.2624 103.653L83.0393 118.832C83.62 119.129 84.334 118.897 84.6293 118.318L94.916 98.1782C95.212 97.6028 94.9845 96.885 94.4 96.5882C64.1539 81.2294 64.5245 81.2791 64.0877 81.2791V81.2798Z" fill="black"/>
<path id="vector_49" d="M62.1875 104.428C61.9653 104.428 61.7529 104.297 61.6618 104.079C58.5766 96.6568 61.7514 90.2183 69.5178 88.1469C69.8214 88.0656 70.1324 88.2464 70.2123 88.5491C70.2929 88.8527 70.1129 89.1638 69.8101 89.2436C62.882 91.0739 59.8269 96.7057 62.7118 103.641C62.8677 104.015 62.5912 104.428 62.1875 104.428Z" fill="black"/>
<path id="vector_50" d="M65.6566 103.327C65.4345 103.327 65.2236 103.196 65.1324 102.977C62.8826 97.5623 64.9087 93.1334 70.7544 91.572C71.058 91.4906 71.3683 91.6714 71.4489 91.9742C71.5295 92.2778 71.3495 92.5888 71.0467 92.6687C66.0845 93.98 64.1118 97.5706 66.1809 102.54C66.3368 102.915 66.0596 103.327 65.6566 103.327Z" fill="black"/>
<path id="vector_51" d="M68.9993 102.265C68.7703 102.265 68.5549 102.125 68.469 101.899C67.117 98.3583 68.3575 95.9383 71.9331 94.8732C72.2336 94.7836 72.5499 94.9545 72.6388 95.2543C72.7277 95.5541 72.5575 95.8705 72.2577 95.9601C69.2915 96.8436 68.4268 98.6016 69.5303 101.493C69.6727 101.866 69.3962 102.264 69 102.264L68.9993 102.265Z" fill="black"/>
<path id="vector_52" d="M71.6069 98.1528C72.1183 98.1528 72.5333 98.5679 72.5333 99.0793C72.5333 99.5907 72.1183 100.006 71.6069 100.006C71.0954 100.006 70.6804 99.5907 70.6804 99.0793C70.6804 98.5679 71.0954 98.1528 71.6069 98.1528Z" fill="black"/>
</g>
<g id="group_3">
<path id="vector_53" d="M114.407 102.529C114.407 102.529 109.924 102.949 108.024 103.319C106.126 103.689 100.221 102.906 99.0042 102.527C96.6308 101.789 93.624 102.369 92.0935 102C90.5629 101.631 85.1827 101.631 83.442 101.157C78.9423 99.9296 78.861 107.128 83.3366 109.175C85.1827 110.02 90.4582 111.128 92.4618 111.128C94.4653 111.128 99.1609 112.183 101.798 113.501C104.436 114.821 108.338 117.194 111.293 120.201C114.248 123.208 119.206 128.166 130.654 130.223L114.407 102.53V102.529Z" fill="#FFD997"/>
<path id="vector_54" d="M130.602 130.51C118.959 128.417 114.03 123.402 111.086 120.405C107.714 116.974 103.377 114.617 101.669 113.763C99.1452 112.501 94.4964 111.419 92.4619 111.419C90.4275 111.419 85.0744 110.292 83.2147 109.441C78.3715 107.226 78.6766 99.5555 83.5183 100.876C85.2326 101.344 90.5804 101.335 92.1614 101.718C93.64 102.075 96.6596 101.494 99.0895 102.25C100.298 102.626 106.134 103.391 107.968 103.034C109.86 102.665 114.196 102.256 114.379 102.238C114.763 102.202 114.818 102.781 114.434 102.819C114.389 102.824 109.943 103.244 108.08 103.606C106.131 103.985 100.194 103.206 98.917 102.808C96.5459 102.069 93.6565 102.68 92.0243 102.285C90.5232 101.922 85.1542 101.927 83.3646 101.44C81.6518 100.974 80.3322 101.818 80.3322 103.948C80.3322 106.127 81.5298 108.028 83.4588 108.91C85.2303 109.719 90.4471 110.836 92.4642 110.836C94.4813 110.836 99.268 111.907 101.932 113.24C103.667 114.108 108.072 116.502 111.506 119.996C114.402 122.944 119.251 127.854 130.709 129.936C131.107 130.008 130.96 130.607 130.602 130.508V130.51Z" fill="black"/>
<path id="vector_55" d="M85.5669 106.461C84.1976 106.461 81.7775 105.771 82.2618 104.541C82.4396 104.09 82.5345 103.32 82.533 102.368C82.533 101.981 83.1152 101.983 83.1152 102.367C83.116 103.091 83.0625 104.09 82.8034 104.755C82.5608 105.379 85.0269 106.124 86.3194 105.794C87.4944 105.494 87.4274 103.1 87.3219 102.61C87.2413 102.233 87.8138 102.112 87.8929 102.49C87.9614 102.818 88.0164 103.639 87.8688 104.447C87.5788 106.03 86.806 106.461 85.5662 106.461H85.5669Z" fill="black"/>
<path id="vector_56" d="M93.4214 106.519C93.2625 106.52 93.1269 106.391 93.1246 106.232C93.099 104.744 93.6624 103.65 94.1942 103.125C94.4691 102.853 94.8804 103.267 94.6062 103.54C94.4525 103.693 93.688 104.538 93.7091 106.222C93.7114 106.382 93.5826 106.517 93.4221 106.519H93.4214Z" fill="black"/>
<path id="vector_57" d="M95.6932 108.325C96.2197 106.818 96.1851 104.857 96.1738 103.647C96.17 103.261 96.7545 103.254 96.7575 103.641C96.7726 105.215 96.7884 106.867 96.2483 108.51C96.1278 108.878 95.5659 108.69 95.6932 108.325Z" fill="black"/>
</g>
</g>
</g>
</g>
</svg>
