<svg width="151" height="151" viewBox="0 0 151 151" fill="none" xmlns="http://www.w3.org/2000/svg">
<g id="Time-Out-For-Work--Streamline-London">
<g id="Time-Out-For-Work--Streamline-London.svg">
<g id="arrows">
<path id="vector" d="M108.429 58.0253L124.963 35.7436L115.108 31.8713L108.429 58.0253Z" fill="white"/>
<path id="vector_2" d="M108.144 57.9535L114.823 31.7981C114.844 31.716 114.898 31.6467 114.974 31.6082C115.158 31.5141 114.995 31.5518 125.071 35.4692C125.254 35.5408 125.314 35.7683 125.199 35.9197L108.666 58.2013C108.476 58.4574 108.066 58.2683 108.145 57.9542L108.144 57.9535ZM115.311 32.2681L109.087 56.6467L124.497 35.879L115.312 32.2688L115.311 32.2681Z" fill="black"/>
<path id="vector_3" d="M111.786 82.1054L135.835 91.495L136.901 81.7009L111.786 82.1054Z" fill="white"/>
<path id="vector_4" d="M135.835 91.7898L111.679 82.3806C111.38 82.2646 111.458 81.8142 111.781 81.8104L136.896 81.4059C136.977 81.4029 137.062 81.4406 137.119 81.5023C137.259 81.6537 137.208 81.5129 136.128 91.5276C136.112 91.6775 135.983 91.7898 135.835 91.7898ZM113.29 82.3753L135.584 91.0802L136.572 82.0002L113.289 82.3753H113.29Z" fill="black"/>
<path id="vector_5" d="M142.078 53.3303L124.465 51.1897C124.219 51.161 124.053 51.4239 124.172 51.6288L127.248 57.0414L107.886 68.0444C107.743 68.1265 107.694 68.3065 107.774 68.4473L111.77 75.4764C111.82 75.563 111.912 75.6255 112.027 75.6255C112.151 75.6255 112.048 75.6579 131.534 64.5849L134.61 69.9975C134.729 70.2038 135.035 70.1963 135.137 69.9711L142.312 53.7438C142.391 53.5676 142.281 53.3559 142.078 53.331V53.3303Z" fill="black"/>
</g>
<g id="screen">
<path id="vector_6" d="M9.05261 10.3547H97.838C99.5365 10.3547 100.916 11.7339 100.916 13.4324V134.751C100.916 136.449 99.5365 137.829 97.8372 137.829H9.05261C7.35411 137.829 5.97498 136.45 5.97498 134.751V13.4324C5.97498 11.7339 7.35411 10.3547 9.05261 10.3547Z" fill="#81F8F8"/>
<path id="vector_7" d="M14.1963 79.739H47.5119C48.4323 79.739 49.181 80.4877 49.181 81.4081V128.088H12.5272V81.4081C12.5272 80.4877 13.2759 79.739 14.1963 79.739Z" fill="#FFD997"/>
<path id="vector_8" d="M93.1824 16.907H13.7083C13.056 16.907 12.5272 17.4357 12.5272 18.088V71.2711C12.5272 71.9234 13.056 72.4522 13.7083 72.4522H93.1824C93.8346 72.4522 94.3634 71.9234 94.3634 71.2711V18.088C94.3634 17.4357 93.8346 16.907 93.1824 16.907Z" fill="white"/>
<path id="vector_9" d="M101.211 13.432C101.211 11.573 99.6972 10.0591 97.8383 10.0591H9.05292C7.00794 10.0591 5.70864 11.9293 4.59915 13.6775C4.22857 14.262 3.76685 14.9896 3.76685 15.8905V137.211C3.76685 139.07 5.28081 140.584 7.13975 140.584H95.9251C98.6563 140.584 101.211 136.348 101.211 134.753V13.432ZM100.621 13.432V134.752C100.621 136.287 99.3733 137.535 97.8383 137.535H9.05292C7.51786 137.535 6.26978 136.287 6.26978 134.752V13.432C6.26978 11.8969 7.51786 10.6489 9.05292 10.6489H97.8383C99.3733 10.6489 100.621 11.8969 100.621 13.432Z" fill="black"/>
<path id="vector_10" d="M47.5117 79.4429H14.1962C13.113 79.4429 12.2318 80.3241 12.2318 81.4073C12.2318 128.31 12.1693 128.174 12.3365 128.313L14.6315 130.253C15.1068 130.656 15.7124 130.877 16.3368 130.877H45.371C45.9932 130.877 46.5995 130.656 47.0763 130.253C49.5258 128.182 49.4761 128.284 49.4761 128.087V81.4073C49.4761 80.3241 48.5948 79.4429 47.5124 79.4429H47.5117ZM12.8215 81.4073C12.8215 80.6488 13.4377 80.0326 14.1962 80.0326H47.5117C48.2702 80.0326 48.8863 80.6488 48.8863 81.4073V127.792H12.8215V81.4073Z" fill="black"/>
<path id="vector_11" d="M45.9054 83.0156H15.8038V91.6633H45.9054V83.0156Z" fill="white"/>
<path id="vector_12" d="M45.9058 91.9562H15.8043C15.6423 91.9562 15.5098 91.8236 15.5098 91.6617V83.014C15.5098 82.852 15.6423 82.7195 15.8043 82.7195H45.9058C46.0677 82.7195 46.2003 82.852 46.2003 83.014V91.6617C46.2003 91.8236 46.0677 91.9562 45.9058 91.9562ZM16.0988 91.3664H45.6105V83.3085H16.0988V91.3664Z" fill="black"/>
<path id="vector_13" d="M21.1193 95.781H17.1815C16.4206 95.781 15.8038 96.3979 15.8038 97.1586V99.3128C15.8038 100.074 16.4206 100.69 17.1815 100.69H21.1193C21.8801 100.69 22.4969 100.074 22.4969 99.3128V97.1586C22.4969 96.3979 21.8801 95.781 21.1193 95.781Z" fill="black"/>
<path id="vector_14" d="M28.674 95.781H25.4796C24.7187 95.781 24.1019 96.3979 24.1019 97.1586V99.3128C24.1019 100.074 24.7187 100.69 25.4796 100.69H28.674C29.4349 100.69 30.0516 100.074 30.0516 99.3128V97.1586C30.0516 96.3979 29.4349 95.781 28.674 95.781Z" fill="black"/>
<path id="vector_15" d="M36.2297 95.781H33.0368C32.276 95.781 31.6592 96.3979 31.6592 97.1586V99.3128C31.6592 100.074 32.276 100.69 33.0368 100.69H36.2297C36.9905 100.69 37.6073 100.074 37.6073 99.3128V97.1586C37.6073 96.3979 36.9905 95.781 36.2297 95.781Z" fill="black"/>
<path id="vector_16" d="M44.5274 95.781H40.5911C39.8303 95.781 39.2135 96.3979 39.2135 97.1586V99.3128C39.2135 100.074 39.8303 100.69 40.5911 100.69H44.5274C45.2883 100.69 45.9051 100.074 45.9051 99.3128V97.1586C45.9051 96.3979 45.2883 95.781 44.5274 95.781Z" fill="black"/>
<path id="vector_17" d="M21.1193 103.821H17.1815C16.4206 103.821 15.8038 104.438 15.8038 105.199V107.353C15.8038 108.114 16.4206 108.731 17.1815 108.731H21.1193C21.8801 108.731 22.4969 108.114 22.4969 107.353V105.199C22.4969 104.438 21.8801 103.821 21.1193 103.821Z" fill="black"/>
<path id="vector_18" d="M28.674 103.821H25.4796C24.7187 103.821 24.1019 104.438 24.1019 105.199V107.353C24.1019 108.114 24.7187 108.731 25.4796 108.731H28.674C29.4349 108.731 30.0516 108.114 30.0516 107.353V105.199C30.0516 104.438 29.4349 103.821 28.674 103.821Z" fill="black"/>
<path id="vector_19" d="M36.2297 103.821H33.0368C32.276 103.821 31.6592 104.438 31.6592 105.199V107.353C31.6592 108.114 32.276 108.731 33.0368 108.731H36.2297C36.9905 108.731 37.6073 108.114 37.6073 107.353V105.199C37.6073 104.438 36.9905 103.821 36.2297 103.821Z" fill="black"/>
<path id="vector_20" d="M44.5274 103.821H40.5911C39.8303 103.821 39.2135 104.438 39.2135 105.199V107.353C39.2135 108.114 39.8303 108.731 40.5911 108.731H44.5274C45.2883 108.731 45.9051 108.114 45.9051 107.353V105.199C45.9051 104.438 45.2883 103.821 44.5274 103.821Z" fill="black"/>
<path id="vector_21" d="M21.1193 111.861H17.1815C16.4206 111.861 15.8038 112.477 15.8038 113.238V115.392C15.8038 116.153 16.4206 116.77 17.1815 116.77H21.1193C21.8801 116.77 22.4969 116.153 22.4969 115.392V113.238C22.4969 112.477 21.8801 111.861 21.1193 111.861Z" fill="black"/>
<path id="vector_22" d="M28.674 111.861H25.4796C24.7187 111.861 24.1019 112.477 24.1019 113.238V115.392C24.1019 116.153 24.7187 116.77 25.4796 116.77H28.674C29.4349 116.77 30.0516 116.153 30.0516 115.392V113.238C30.0516 112.477 29.4349 111.861 28.674 111.861Z" fill="black"/>
<path id="vector_23" d="M36.2297 111.861H33.0368C32.276 111.861 31.6592 112.477 31.6592 113.238V115.392C31.6592 116.153 32.276 116.77 33.0368 116.77H36.2297C36.9905 116.77 37.6073 116.153 37.6073 115.392V113.238C37.6073 112.477 36.9905 111.861 36.2297 111.861Z" fill="black"/>
<path id="vector_24" d="M44.5274 111.861H40.5911C39.8303 111.861 39.2135 112.477 39.2135 113.238V115.392C39.2135 116.153 39.8303 116.77 40.5911 116.77H44.5274C45.2883 116.77 45.9051 116.153 45.9051 115.392V113.238C45.9051 112.477 45.2883 111.861 44.5274 111.861Z" fill="black"/>
<path id="vector_25" d="M21.1193 119.901H17.1815C16.4206 119.901 15.8038 120.518 15.8038 121.279V123.433C15.8038 124.194 16.4206 124.811 17.1815 124.811H21.1193C21.8801 124.811 22.4969 124.194 22.4969 123.433V121.279C22.4969 120.518 21.8801 119.901 21.1193 119.901Z" fill="black"/>
<path id="vector_26" d="M28.674 119.901H25.4796C24.7187 119.901 24.1019 120.518 24.1019 121.279V123.433C24.1019 124.194 24.7187 124.811 25.4796 124.811H28.674C29.4349 124.811 30.0516 124.194 30.0516 123.433V121.279C30.0516 120.518 29.4349 119.901 28.674 119.901Z" fill="black"/>
<path id="vector_27" d="M36.2297 119.901H33.0368C32.276 119.901 31.6592 120.518 31.6592 121.279V123.433C31.6592 124.194 32.276 124.811 33.0368 124.811H36.2297C36.9905 124.811 37.6073 124.194 37.6073 123.433V121.279C37.6073 120.518 36.9905 119.901 36.2297 119.901Z" fill="black"/>
<path id="vector_28" d="M44.5274 119.901H40.5911C39.8303 119.901 39.2135 120.518 39.2135 121.279V123.433C39.2135 124.194 39.8303 124.811 40.5911 124.811H44.5274C45.2883 124.811 45.9051 124.194 45.9051 123.433V121.279C45.9051 120.518 45.2883 119.901 44.5274 119.901Z" fill="black"/>
<path id="vector_29" d="M31.8463 58.3574V53.8562L32.4903 52.1411C33.062 52.2835 33.419 52.6405 33.5614 53.2122V59.2146L33.1321 59.6439L31.8463 58.3582V58.3574ZM33.1321 60.0725L33.5614 60.5018V66.5034C33.419 67.0751 33.062 67.4322 32.4903 67.5745L31.8463 65.8594V61.3582L33.1321 60.0725Z" fill="black"/>
<path id="vector_30" d="M37.9332 54.2835V58.3562L36.6475 59.6419L36.2181 59.2126V53.6395L37.9332 54.2835ZM43.7224 67.5748H37.2892C36.7175 67.4324 36.3605 67.0754 36.2181 66.5037L37.9332 65.8597H43.0784L43.7224 67.5748ZM43.0754 53.8557H37.9528L36.2377 53.2117C36.3801 52.64 36.7371 52.283 37.3088 52.1406H43.7187L43.0747 53.8557H43.0754ZM43.5063 59.0009L44.3627 59.8581L43.5063 60.7167H37.9332L37.0768 59.8581L37.9332 59.0009H43.5063ZM43.5063 58.3569V53.8557L44.1503 52.1406C44.7219 52.283 45.079 52.64 45.2213 53.2117V59.2141L44.792 59.6434L43.5063 58.3577V58.3569ZM44.792 60.072L45.2213 60.5013V66.503C45.079 67.0746 44.7219 67.4317 44.1503 67.574L43.5063 65.8589V61.3577L44.792 60.072Z" fill="black"/>
<path id="vector_31" d="M51.823 57.2844H50.1079V55.5693H51.823V57.2844ZM51.823 64.1447H50.1079V62.4296H51.823V64.1447Z" fill="black"/>
<path id="vector_32" d="M58.8981 54.2835V58.3562L57.6123 59.6419L57.183 59.2126V53.6395L58.8981 54.2835ZM57.183 66.0729V60.4998L57.6123 60.0705L58.8981 61.3562V65.4289L57.183 66.0729ZM64.6873 67.5748H58.2541C57.6824 67.4324 57.3253 67.0754 57.183 66.5037L58.8981 65.8597H64.0433L64.6873 67.5748ZM64.0403 53.8557H58.9176L57.2026 53.2117C57.3449 52.64 57.7019 52.283 58.2736 52.1406H64.6835L64.0395 53.8557H64.0403ZM64.4711 58.3569V53.8557L65.1151 52.1406C65.6868 52.283 66.0438 52.64 66.1862 53.2117V59.2141L65.7568 59.6434L64.4711 58.3577V58.3569ZM65.7568 60.072L66.1862 60.5013V66.503C66.0438 67.0746 65.6868 67.4317 65.1151 67.574L64.4711 65.8589V61.3577L65.7568 60.072Z" fill="black"/>
<path id="vector_33" d="M69.6161 54.2835V58.3562L68.3303 59.6419L67.901 59.2126V53.6395L69.6161 54.2835ZM67.901 66.0729V60.4998L68.3303 60.0705L69.6161 61.3562V65.4289L67.901 66.0729ZM75.4054 67.5748H68.9728C68.4011 67.4324 68.0441 67.0754 67.9018 66.5037L69.6168 65.8597H74.7621L75.4061 67.5748H75.4054ZM74.7583 53.8557H69.6357L67.9207 53.2117C68.063 52.64 68.42 52.283 68.9917 52.1406H75.4016L74.7575 53.8557H74.7583ZM75.1891 58.3569V53.8557L75.8332 52.1406C76.4049 52.283 76.7619 52.64 76.9043 53.2117V59.2141L76.4749 59.6434L75.1891 58.3577V58.3569ZM76.4749 60.072L76.9043 60.5013V66.503C76.7619 67.0746 76.4049 67.4317 75.8332 67.574L75.1891 65.8589V61.3577L76.4749 60.072Z" fill="black"/>
<path id="vector_34" d="M93.1821 16.6123H13.7065C12.8923 16.6123 12.2302 17.2744 12.2302 18.0879V71.2725C12.2302 72.0867 12.8923 72.748 13.7065 72.748H93.1821C93.9963 72.748 94.6576 72.0859 94.6576 71.2725V18.0879C94.6576 17.2736 93.9955 16.6123 93.1821 16.6123ZM93.1821 72.159H13.7065C13.2184 72.159 12.8207 71.7613 12.8207 71.2732V47.5454H94.0686V71.2732C94.0686 71.7613 93.6701 72.159 93.1828 72.159H93.1821Z" fill="black"/>
<path id="vector_35" d="M60.5009 32.6947C60.2027 39.6649 53.2716 44.5624 46.6395 42.4744C46.5371 42.4421 46.5303 42.2989 46.6327 42.2598C50.6775 40.7014 53.5751 36.8163 53.5751 32.2247C53.5751 27.6331 50.7023 23.6817 46.6327 22.1911C46.5325 22.1542 46.534 22.0088 46.6395 21.9764C53.6527 19.8072 60.8203 25.2416 60.5009 32.6947Z" fill="white"/>
<path id="vector_36" d="M26.657 24.9737H25.3238V22.6674C25.3238 22.2772 24.7341 22.2772 24.7341 22.6674V24.9737H23.4024C23.0122 24.9737 23.0122 25.5635 23.4024 25.5635H24.7341V27.8698C24.7341 28.26 25.3238 28.26 25.3238 27.8698V25.5635H26.657C27.0472 25.5635 27.0472 24.9737 26.657 24.9737Z" fill="white"/>
<path id="vector_37" d="M87.4074 31.8693H85.953V29.3678C85.953 28.9777 85.3632 28.9777 85.3632 29.3678V31.8693H83.9088C83.5193 31.8693 83.5193 32.459 83.9088 32.459H85.3632V34.962C85.3632 35.3514 85.953 35.3514 85.953 34.962V32.459H87.4074C87.7976 32.459 87.7976 31.8693 87.4074 31.8693Z" fill="white"/>
<path id="vector_38" d="M77.2804 23.4986H76.2734V21.7135C76.2734 21.3234 75.6836 21.3234 75.6836 21.7135V23.4986H74.678C74.2886 23.4986 74.2886 24.0884 74.678 24.0884H75.6836V25.8735C75.6836 26.2637 76.2734 26.2637 76.2734 25.8735V24.0884H77.2804C77.6706 24.0884 77.6706 23.4986 77.2804 23.4986Z" fill="white"/>
<path id="vector_39" d="M22.0941 37.3474H21.2866V35.8809C21.2866 35.4915 20.6968 35.4915 20.6968 35.8809V37.3474H19.8924C19.503 37.3474 19.503 37.9372 19.8924 37.9372H20.6968V39.4015C20.6968 39.7909 21.2866 39.7909 21.2866 39.4015V37.9372H22.0941C22.4835 37.9372 22.4835 37.3474 22.0941 37.3474Z" fill="white"/>
<path id="vector_40" d="M39.6842 31.7331H38.5099V29.6791C38.5099 29.2889 37.9202 29.2889 37.9202 29.6791V31.7331H36.7459C36.3565 31.7331 36.3565 32.3229 36.7459 32.3229H37.9202V34.3754C37.9202 34.7648 38.5099 34.7648 38.5099 34.3754V32.3229H39.6842C40.0736 32.3229 40.0736 31.7331 39.6842 31.7331Z" fill="white"/>
<path id="vector_41" d="M71.265 35.6915H70.0908V33.6375C70.0908 33.2481 69.501 33.2481 69.501 33.6375V35.6915H68.3267C67.9373 35.6915 67.9373 36.2813 68.3267 36.2813H69.501V38.3353C69.501 38.7255 70.0908 38.7255 70.0908 38.3353V36.2813H71.265C71.6552 36.2813 71.6552 35.6915 71.265 35.6915Z" fill="white"/>
</g>
<g id="hand with card">
<g id="group">
<path id="vector_42" d="M136.099 112.067C132.61 109.99 125.302 104.092 123.723 102.098C122.144 100.104 115.766 92.4872 111.096 92.4134C107.888 92.3622 104.781 93.4325 100.809 93.9921C98.0212 94.3846 94.5775 94.6158 92.3292 96.8092C91.0186 98.0881 89.8368 99.6156 88.3552 101.359C86.6461 103.369 83.8005 105.843 82.1502 107.759C80.4984 109.677 78.3675 112.836 77.3115 114.245C76.2563 115.652 77.5691 117.288 80.0329 116.935C81.4821 116.727 83.7131 115.269 84.3119 114.733C83.6709 117.12 82.8552 119.96 82.3762 120.894C81.4987 122.608 82.0417 122.775 83.7131 123.485C85.3845 124.195 88.9804 120.058 88.9804 120.058L88.2271 123.068C88.2271 123.068 87.9341 124.071 88.3522 124.906C88.7702 125.742 90.4002 125.742 91.1948 125.574C91.988 125.407 92.9084 123.777 92.9084 123.777L93.0756 125.365C94.747 127.371 96.2527 126.118 98.1756 124.696C100.099 123.274 100.308 122.357 100.308 122.357C103.514 122.159 104.842 120.914 105.393 119.928C107.188 123.131 109.748 123.267 110.738 124.375C111.489 125.216 115.644 129.857 118.872 131.712C122.099 133.568 123.381 134.85 131.161 135.337C138.941 135.824 145.783 138.534 145.783 138.534C146.665 132.289 147.035 125.786 146.558 115.735C146.558 115.735 139.587 114.142 136.099 112.066V112.067Z" fill="#FFD997"/>
<path id="vector_43" d="M146.62 115.453C146.55 115.436 139.655 113.844 136.246 111.817C132.855 109.798 125.5 103.879 123.949 101.92C122.665 100.297 116.011 92.2023 111.098 92.124C107.737 92.0705 104.947 93.1499 99.8698 93.824C93.6385 94.6465 92.877 95.4728 89.2585 99.8256C87.7272 101.659 87.5721 101.89 84.929 104.48C82.0744 107.278 81.5765 107.777 78.2601 112.433C77.7923 113.087 77.3901 113.653 77.079 114.069C75.9371 115.593 77.2063 117.629 80.0693 117.225C81.224 117.059 82.8456 116.146 83.8286 115.466C83.0603 117.596 82.3613 119.919 81.9169 121.189C81.2812 123.007 83.1394 124.538 85.7237 123.294C86.7684 122.79 87.7235 121.965 88.5181 120.925L87.728 123.642C87.4132 124.723 88.6002 126.073 90.1067 126.073C91.3608 126.073 92.0484 125.223 92.6412 124.584C92.6171 125.57 93.0291 125.762 93.353 126.073C93.6776 126.381 94.104 126.789 94.8233 126.789C95.2451 126.789 95.7693 126.648 96.4314 126.263C97.4016 125.698 100.272 123.759 100.483 122.656C101.087 122.531 104.046 121.889 104.757 121.177C105.047 120.888 105.23 120.635 105.347 120.427C107.121 123.303 109.671 123.618 110.52 124.57C112.362 126.629 115.879 130.328 118.726 131.965C122.341 134.043 123.571 135.156 131.143 135.629C138.784 136.106 145.608 138.777 145.677 138.805C146.034 138.949 146.246 138.405 145.889 138.261C145.821 138.233 138.914 135.528 131.177 135.045C123.479 134.562 122.274 133.335 119.016 131.457C116.137 129.801 112.42 125.815 110.955 124.178C109.668 122.737 106.015 122.861 104.48 116.836C104.384 116.458 103.825 116.596 103.912 116.968C103.93 117.047 104.248 118.379 104.986 119.79C104.936 119.954 104.782 120.327 104.345 120.764C103.897 121.211 101.827 121.773 100.493 122.058C100.427 121.53 100.215 120.973 100.155 120.408C100.115 120.025 99.5332 120.084 99.5746 120.47C99.6627 121.299 100.041 122.101 99.8939 122.613C99.7606 123.076 98.1254 124.601 96.1377 125.757C94.7291 126.575 94.2343 126.104 93.7575 125.648C93.6551 125.552 93.5594 125.46 93.4555 125.381C93.1135 125.118 93.2762 124.086 93.3794 123.773C94.4444 122.572 95.2338 121.446 95.526 119.717C95.8093 119.545 98.4975 117.87 99.4443 115.636C100.176 115.346 102.569 114.273 101.959 113.745C101.837 113.64 101.652 113.654 101.547 113.776C101.206 114.171 100.308 114.626 99.683 114.903C99.6996 114.83 99.7147 114.756 99.7267 114.681C99.7885 114.299 99.2115 114.205 99.149 114.587C98.8266 116.568 96.5625 118.31 95.6187 118.958C95.6338 118.759 95.6435 118.553 95.6481 118.338C95.6511 118.178 95.5215 118.041 95.3611 118.041C95.2022 118.041 95.0673 118.169 95.0643 118.328C95.0131 121.308 93.7688 122.5 91.7675 124.666C90.6151 125.913 89.4604 125.411 89.1342 125.226C88.5174 124.878 88.1558 124.267 88.2906 123.803L89.6871 118.996C89.9364 118.47 90.1496 117.916 90.3213 117.343C90.7077 117.097 93.7198 115.084 94.5664 111.874C94.6644 111.502 94.1002 111.35 94.0015 111.725C93.3929 114.038 91.5054 115.731 90.5473 116.465C90.5729 116.345 90.5977 116.225 90.6196 116.104C90.6896 115.722 90.1149 115.618 90.0449 115.997C89.4935 118.994 87.6549 121.713 85.4706 122.765C84.395 123.282 83.3254 123.282 82.7462 122.765C82.3711 122.429 82.2725 121.937 82.4668 121.38C83.0972 119.572 83.8196 117.077 84.7257 114.726C85.0578 114.357 85.3629 113.857 85.5889 113.317C85.6619 113.293 87.377 112.709 88.5452 111.234C88.7855 110.931 88.3283 110.567 88.088 110.871C87.368 111.781 86.3933 112.326 85.8389 112.584C85.8615 112.499 85.8811 112.415 85.8992 112.331C85.9798 111.959 85.4111 111.83 85.3282 112.212C85.1437 113.091 84.6473 114.035 84.1216 114.51C83.5311 115.043 81.352 116.451 79.9872 116.647C78.8077 116.82 77.787 116.495 77.3909 115.826C77.1348 115.393 77.1882 114.894 77.5415 114.423C77.8578 114.001 78.2616 113.433 78.7308 112.776C81.9907 108.201 82.4585 107.717 85.3328 104.902C93.4449 96.9483 91.3412 95.5383 99.9421 94.407C104.916 93.7487 107.816 92.664 111.086 92.71C115.736 92.783 122.233 100.698 123.488 102.283C125.104 104.323 132.437 110.232 135.945 112.321C139.433 114.396 146.202 115.959 146.489 116.024C146.866 116.109 146.997 115.54 146.62 115.454L146.62 115.453Z" fill="black"/>
<path id="vector_44" d="M106.679 101.877C107.594 100.335 107.308 96.8044 107.306 96.769C107.273 96.3841 107.855 96.3336 107.887 96.7185C107.9 96.8707 108.193 100.473 107.181 102.173C106.987 102.499 106.48 102.213 106.679 101.877Z" fill="black"/>
<path id="vector_45" d="M108.786 101.462C109.632 100.114 110.478 99.5132 110.798 97.9684C110.876 97.5888 111.445 97.7093 111.37 98.0851C111.039 99.7565 110.084 100.479 109.281 101.771C109.079 102.096 108.579 101.789 108.786 101.461V101.462Z" fill="black"/>
<path id="vector_46" d="M96.3243 102.904C96.0366 102.904 95.9206 102.53 96.1624 102.368C96.2204 102.329 97.5988 101.411 99.2611 100.739C99.6204 100.594 99.8366 101.135 99.4803 101.281C97.3992 102.133 96.5721 102.904 96.3243 102.904Z" fill="black"/>
</g>
<g id="group_2">
<path id="vector_47" d="M84.857 118.921C84.4872 119.647 83.5977 119.934 82.8723 119.564L53.0954 104.385C52.3701 104.015 52.0831 103.126 52.4529 102.4L62.7396 82.2607C63.1094 81.5354 63.999 81.2484 64.7243 81.6182L94.5012 96.797C95.2266 97.1669 95.5136 98.0564 95.1437 98.7818L84.857 118.921Z" fill="white"/>
<path id="vector_48" d="M83.5429 120.015C82.8793 120.015 83.4238 120.172 52.9645 104.645C52.1111 104.21 51.7413 103.155 52.194 102.268L62.4807 82.1282C62.9236 81.2597 63.9894 80.9163 64.8578 81.3591L94.6347 96.538C95.4979 96.9778 95.8527 98.0391 95.4053 98.9136L85.1186 119.053C84.8067 119.665 84.1853 120.016 83.5429 120.016V120.015ZM64.0556 81.7486C63.6256 81.7486 63.2105 81.9836 63.0011 82.3926L52.7137 102.532C52.4169 103.108 52.6459 103.827 53.2297 104.122L83.0066 119.301C83.5873 119.598 84.3013 119.366 84.5966 118.786L94.8833 98.647C95.1793 98.0715 94.9518 97.3537 94.3673 97.0569C64.1219 81.6981 64.4917 81.7478 64.0549 81.7478L64.0556 81.7486Z" fill="black"/>
<path id="vector_49" d="M62.1561 104.896C61.9339 104.896 61.7215 104.765 61.6304 104.547C58.5452 97.1248 61.72 90.6863 69.4872 88.615C69.7907 88.5336 70.1011 88.7144 70.1817 89.0172C70.2622 89.3207 70.0822 89.6318 69.7794 89.7116C62.8506 91.5412 59.7963 97.1737 62.6804 104.109C62.8363 104.483 62.5599 104.896 62.1561 104.896Z" fill="black"/>
<path id="vector_50" d="M65.6243 103.796C65.4021 103.796 65.1912 103.664 65.1001 103.446C62.8502 98.0308 64.8764 93.6019 70.7221 92.0405C71.0256 91.9591 71.3359 92.1399 71.4165 92.4427C71.4971 92.7463 71.3171 93.0573 71.0143 93.1372C66.0521 94.4485 64.0795 98.0391 66.1485 103.009C66.3045 103.384 66.0273 103.796 65.6243 103.796Z" fill="black"/>
<path id="vector_51" d="M68.9669 102.733C68.738 102.733 68.5225 102.594 68.4367 102.368C67.0846 98.8268 68.3252 96.4068 71.9007 95.3417C72.2012 95.2521 72.5176 95.4231 72.6065 95.7228C72.6953 96.0226 72.5251 96.339 72.2253 96.4286C69.2592 97.3121 68.3945 99.0701 69.4979 101.962C69.6403 102.335 69.3639 102.732 68.9677 102.732L68.9669 102.733Z" fill="black"/>
<path id="vector_52" d="M71.5745 98.6213C72.086 98.6213 72.501 99.0364 72.501 99.5478C72.501 100.059 72.086 100.474 71.5745 100.474C71.0631 100.474 70.6481 100.059 70.6481 99.5478C70.6481 99.0364 71.0631 98.6213 71.5745 98.6213Z" fill="black"/>
</g>
<g id="group_3">
<path id="vector_53" d="M114.377 102.997C114.377 102.997 109.894 103.417 107.994 103.787C106.095 104.157 100.191 103.374 98.9738 102.995C96.6005 102.256 93.5929 102.837 92.0631 102.468C90.5325 102.099 85.1523 102.099 83.4116 101.625C78.9119 100.398 78.8306 107.596 83.3062 109.643C85.1523 110.488 90.4278 111.596 92.4314 111.596C94.435 111.596 99.1305 112.651 101.768 113.969C104.406 115.289 108.308 117.662 111.263 120.669C114.217 123.676 119.176 128.634 130.623 130.691L114.376 102.998L114.377 102.997Z" fill="#FFD997"/>
<path id="vector_54" d="M130.572 130.978C118.929 128.885 114.001 123.87 111.057 120.873C107.684 117.442 103.347 115.085 101.639 114.231C99.1158 112.969 94.4677 111.887 92.4325 111.887C90.3973 111.887 85.045 110.76 83.1853 109.909C78.3421 107.694 78.6472 100.023 83.4888 101.344C85.2032 101.812 90.551 101.804 92.132 102.186C93.6106 102.543 96.6302 101.962 99.0601 102.718C100.269 103.094 106.105 103.859 107.939 103.502C109.831 103.133 114.167 102.724 114.35 102.706C114.734 102.67 114.789 103.25 114.405 103.287C114.359 103.292 109.913 103.712 108.05 104.074C106.102 104.453 100.165 103.674 98.8876 103.276C96.5165 102.537 93.6271 103.148 91.9949 102.753C90.4938 102.39 85.1248 102.395 83.3352 101.908C81.6224 101.442 80.3027 102.286 80.3027 104.416C80.3027 106.595 81.5003 108.496 83.4293 109.378C85.2009 110.187 90.4177 111.304 92.4348 111.304C94.4519 111.304 99.2386 112.375 101.903 113.708C103.637 114.576 108.042 116.97 111.476 120.464C114.372 123.411 119.221 128.322 130.679 130.404C131.077 130.476 130.931 131.075 130.572 130.976V130.978Z" fill="black"/>
<path id="vector_55" d="M85.5375 106.929C84.1682 106.929 81.7481 106.239 82.2324 105.009C82.4102 104.558 82.5051 103.788 82.5036 102.836C82.5036 102.449 83.0858 102.451 83.0858 102.835C83.0865 103.559 83.0323 104.558 82.774 105.223C82.5314 105.847 84.9975 106.592 86.29 106.262C87.465 105.962 87.398 103.568 87.2925 103.078C87.2112 102.701 87.7844 102.58 87.8634 102.958C87.932 103.286 87.987 104.107 87.8393 104.915C87.5493 106.498 86.7766 106.929 85.5368 106.929H85.5375Z" fill="black"/>
<path id="vector_56" d="M93.392 106.987C93.233 106.989 93.0975 106.859 93.0952 106.7C93.0696 105.213 93.633 104.118 94.1648 103.593C94.4397 103.321 94.8509 103.736 94.5768 104.008C94.4231 104.161 93.6586 105.006 93.6797 106.69C93.682 106.851 93.5532 106.986 93.3927 106.987H93.392Z" fill="black"/>
<path id="vector_57" d="M95.6638 108.793C96.1903 107.286 96.1556 105.325 96.1443 104.115C96.1406 103.728 96.7251 103.722 96.7281 104.108C96.7431 105.682 96.7582 107.333 96.2189 108.978C96.0984 109.345 95.5365 109.158 95.6638 108.792V108.793Z" fill="black"/>
</g>
</g>
</g>
</g>
</svg>
