<svg xmlns="http://www.w3.org/2000/svg" xmlns:xlink="http://www.w3.org/1999/xlink" width="500" zoomAndPan="magnify" viewBox="0 0 375 374.999991" height="500" preserveAspectRatio="xMidYMid meet" version="1.0"><defs><g/><clipPath id="2a482066e3"><path d="M 0.359375 1 L 101.820312 1 L 101.820312 149.933594 L 0.359375 149.933594 Z M 0.359375 1 " clip-rule="nonzero"/></clipPath><clipPath id="73b2ae3c5a"><rect x="0" width="356" y="0" height="165"/></clipPath></defs><g transform="matrix(1, 0, 0, 1, 9, 106)"><g clip-path="url(#73b2ae3c5a)"><g fill="#000000" fill-opacity="0.4"><g transform="translate(101.756863, 128.079977)"><g><path d="M 82.84375 0 L 56.390625 0 L 25.328125 -35.75 L 25.328125 0 L 6.125 0 L 6.125 -84.28125 L 25.328125 -84.28125 L 25.328125 -49.859375 L 54.25 -84.28125 L 77.53125 -84.28125 L 43.625 -44.328125 Z M 82.84375 0 "/></g></g></g><g fill="#000000" fill-opacity="0.4"><g transform="translate(177.651272, 128.079977)"><g><path d="M 6.125 0 L 6.125 -87.859375 L 24.21875 -87.859375 L 24.21875 0 Z M 6.125 0 "/></g></g></g><g fill="#000000" fill-opacity="0.4"><g transform="translate(203.494001, 128.079977)"><g><path d="M 23.1875 -52.40625 L 23.1875 -27.484375 C 23.1875 -22.304688 23.96875 -18.625 25.53125 -16.4375 C 27.101562 -14.257812 29.757812 -13.171875 33.5 -13.171875 C 37.25 -13.171875 39.90625 -14.257812 41.46875 -16.4375 C 43.039062 -18.625 43.828125 -22.304688 43.828125 -27.484375 L 43.828125 -52.40625 L 61.90625 -52.40625 L 61.90625 -23.09375 C 61.90625 -14.375 59.640625 -8.085938 55.109375 -4.234375 C 50.578125 -0.390625 43.375 1.53125 33.5 1.53125 C 23.625 1.53125 16.421875 -0.390625 11.890625 -4.234375 C 7.367188 -8.085938 5.109375 -14.375 5.109375 -23.09375 L 5.109375 -52.40625 Z M 23.1875 -52.40625 "/></g></g></g><g fill="#000000" fill-opacity="0.4"><g transform="translate(266.007257, 128.079977)"><g><path d="M 9.1875 -52.40625 L 9.1875 -71.921875 L 27.28125 -71.921875 L 27.28125 -52.40625 L 38.3125 -52.40625 L 38.3125 -38.609375 L 27.28125 -38.609375 L 27.28125 -21.96875 C 27.28125 -17.125 28.640625 -14.703125 31.359375 -14.703125 C 32.046875 -14.703125 32.757812 -14.835938 33.5 -15.109375 C 34.25 -15.390625 34.832031 -15.664062 35.25 -15.9375 L 35.859375 -16.34375 L 40.359375 -1.734375 C 36.472656 0.441406 32.046875 1.53125 27.078125 1.53125 C 23.671875 1.53125 20.738281 0.9375 18.28125 -0.25 C 15.832031 -1.445312 13.976562 -3.050781 12.71875 -5.0625 C 11.457031 -7.070312 10.550781 -9.179688 10 -11.390625 C 9.457031 -13.597656 9.1875 -15.960938 9.1875 -18.484375 L 9.1875 -38.609375 L 1.640625 -38.609375 L 1.640625 -52.40625 Z M 9.1875 -52.40625 "/></g></g></g><g fill="#000000" fill-opacity="0.4"><g transform="translate(301.860319, 128.079977)"><g><path d="M 6.125 0 L 6.125 -52.40625 L 24.21875 -52.40625 L 24.21875 -44.84375 L 24.421875 -44.84375 C 24.554688 -45.113281 24.773438 -45.453125 25.078125 -45.859375 C 25.378906 -46.273438 26.039062 -46.992188 27.0625 -48.015625 C 28.09375 -49.035156 29.1875 -49.953125 30.34375 -50.765625 C 31.5 -51.585938 32.992188 -52.320312 34.828125 -52.96875 C 36.671875 -53.613281 38.546875 -53.9375 40.453125 -53.9375 C 42.429688 -53.9375 44.375 -53.660156 46.28125 -53.109375 C 48.1875 -52.566406 49.582031 -52.023438 50.46875 -51.484375 L 51.890625 -50.671875 L 44.328125 -35.34375 C 42.085938 -37.25 38.957031 -38.203125 34.9375 -38.203125 C 32.757812 -38.203125 30.882812 -37.722656 29.3125 -36.765625 C 27.75 -35.816406 26.644531 -34.660156 26 -33.296875 C 25.351562 -31.941406 24.894531 -30.785156 24.625 -29.828125 C 24.351562 -28.878906 24.21875 -28.128906 24.21875 -27.578125 L 24.21875 0 Z M 6.125 0 "/></g></g></g><g fill="#ffffff" fill-opacity="1"><g transform="translate(101.756863, 128.079977)"><g><path d="M 82.84375 0 L 56.390625 0 L 25.328125 -35.75 L 25.328125 0 L 6.125 0 L 6.125 -84.28125 L 25.328125 -84.28125 L 25.328125 -49.859375 L 54.25 -84.28125 L 77.53125 -84.28125 L 43.625 -44.328125 Z M 82.84375 0 "/></g></g></g><g fill="#ffffff" fill-opacity="1"><g transform="translate(177.651272, 128.079977)"><g><path d="M 6.125 0 L 6.125 -87.859375 L 24.21875 -87.859375 L 24.21875 0 Z M 6.125 0 "/></g></g></g><g fill="#ffffff" fill-opacity="1"><g transform="translate(203.494001, 128.079977)"><g><path d="M 23.1875 -52.40625 L 23.1875 -27.484375 C 23.1875 -22.304688 23.96875 -18.625 25.53125 -16.4375 C 27.101562 -14.257812 29.757812 -13.171875 33.5 -13.171875 C 37.25 -13.171875 39.90625 -14.257812 41.46875 -16.4375 C 43.039062 -18.625 43.828125 -22.304688 43.828125 -27.484375 L 43.828125 -52.40625 L 61.90625 -52.40625 L 61.90625 -23.09375 C 61.90625 -14.375 59.640625 -8.085938 55.109375 -4.234375 C 50.578125 -0.390625 43.375 1.53125 33.5 1.53125 C 23.625 1.53125 16.421875 -0.390625 11.890625 -4.234375 C 7.367188 -8.085938 5.109375 -14.375 5.109375 -23.09375 L 5.109375 -52.40625 Z M 23.1875 -52.40625 "/></g></g></g><g fill="#ffffff" fill-opacity="1"><g transform="translate(266.007257, 128.079977)"><g><path d="M 9.1875 -52.40625 L 9.1875 -71.921875 L 27.28125 -71.921875 L 27.28125 -52.40625 L 38.3125 -52.40625 L 38.3125 -38.609375 L 27.28125 -38.609375 L 27.28125 -21.96875 C 27.28125 -17.125 28.640625 -14.703125 31.359375 -14.703125 C 32.046875 -14.703125 32.757812 -14.835938 33.5 -15.109375 C 34.25 -15.390625 34.832031 -15.664062 35.25 -15.9375 L 35.859375 -16.34375 L 40.359375 -1.734375 C 36.472656 0.441406 32.046875 1.53125 27.078125 1.53125 C 23.671875 1.53125 20.738281 0.9375 18.28125 -0.25 C 15.832031 -1.445312 13.976562 -3.050781 12.71875 -5.0625 C 11.457031 -7.070312 10.550781 -9.179688 10 -11.390625 C 9.457031 -13.597656 9.1875 -15.960938 9.1875 -18.484375 L 9.1875 -38.609375 L 1.640625 -38.609375 L 1.640625 -52.40625 Z M 9.1875 -52.40625 "/></g></g></g><g fill="#ffffff" fill-opacity="1"><g transform="translate(301.860319, 128.079977)"><g><path d="M 6.125 0 L 6.125 -52.40625 L 24.21875 -52.40625 L 24.21875 -44.84375 L 24.421875 -44.84375 C 24.554688 -45.113281 24.773438 -45.453125 25.078125 -45.859375 C 25.378906 -46.273438 26.039062 -46.992188 27.0625 -48.015625 C 28.09375 -49.035156 29.1875 -49.953125 30.34375 -50.765625 C 31.5 -51.585938 32.992188 -52.320312 34.828125 -52.96875 C 36.671875 -53.613281 38.546875 -53.9375 40.453125 -53.9375 C 42.429688 -53.9375 44.375 -53.660156 46.28125 -53.109375 C 48.1875 -52.566406 49.582031 -52.023438 50.46875 -51.484375 L 51.890625 -50.671875 L 44.328125 -35.34375 C 42.085938 -37.25 38.957031 -38.203125 34.9375 -38.203125 C 32.757812 -38.203125 30.882812 -37.722656 29.3125 -36.765625 C 27.75 -35.816406 26.644531 -34.660156 26 -33.296875 C 25.351562 -31.941406 24.894531 -30.785156 24.625 -29.828125 C 24.351562 -28.878906 24.21875 -28.128906 24.21875 -27.578125 L 24.21875 0 Z M 6.125 0 "/></g></g></g><g clip-path="url(#2a482066e3)"><path fill="#2b2e3f" d="M 62.242188 136.46875 L 62.242188 140.515625 C 62.242188 145.679688 58.03125 149.890625 52.867188 149.890625 L 48.472656 149.890625 C 43.3125 149.890625 39.097656 145.679688 39.097656 140.515625 L 39.097656 136.46875 C 34.96875 135.496094 31.875 131.769531 31.875 127.339844 L 31.875 122.054688 C 29.28125 120.375 27.582031 117.480469 27.582031 114.179688 L 27.582031 109.160156 C 21.082031 101.890625 24.644531 96.324219 24.644531 96.324219 C 16.929688 94.785156 10.859375 87.78125 13.472656 79.726562 C 3.226562 76.910156 -1.125 65.574219 4.644531 56.929688 C -2.886719 46.96875 0.859375 29.519531 12.644531 25.851562 C 12.585938 14.960938 22.667969 6.335938 33.535156 8.15625 C 38.679688 1.355469 47.058594 0.730469 54.609375 1.316406 C 80.945312 3.320312 101.699219 25.324219 101.699219 52.1875 C 101.699219 63.851562 97.753906 75.046875 90.441406 84.132812 L 73.78125 108.910156 L 73.78125 114.175781 C 73.78125 117.472656 72.0625 120.367188 69.46875 122.046875 L 69.46875 127.332031 C 69.46875 131.769531 66.390625 135.496094 62.242188 136.46875 Z M 62.242188 136.46875 " fill-opacity="1" fill-rule="evenodd"/></g><path fill="#00c896" d="M 32.605469 109.828125 L 68.761719 109.828125 L 68.761719 114.179688 C 68.761719 116.570312 66.796875 118.53125 64.410156 118.53125 L 36.957031 118.53125 C 34.546875 118.53125 32.605469 116.570312 32.605469 114.179688 Z M 32.605469 109.828125 " fill-opacity="1" fill-rule="evenodd"/><path fill="#ff7d7d" d="M 36.894531 123.007812 L 64.449219 123.007812 L 64.449219 127.339844 C 64.449219 129.746094 62.503906 131.691406 60.117188 131.691406 L 41.25 131.691406 C 38.863281 131.691406 36.898438 129.746094 36.898438 127.339844 L 36.898438 123.007812 Z M 36.894531 123.007812 " fill-opacity="1" fill-rule="evenodd"/><path fill="#00c896" d="M 44.125 136.164062 L 57.222656 136.164062 L 57.222656 140.515625 C 57.222656 142.90625 55.28125 144.867188 52.871094 144.867188 L 48.476562 144.867188 C 46.085938 144.867188 44.125 142.90625 44.125 140.515625 Z M 44.125 136.164062 " fill-opacity="1" fill-rule="evenodd"/><path fill="#00c896" d="M 53.699219 104.746094 L 60.382812 104.746094 L 60.382812 52.757812 L 53.699219 52.757812 Z M 65.320312 104.746094 L 71.027344 104.746094 L 88.21875 79.21875 C 93.90625 71.34375 96.941406 62.132812 96.941406 52.191406 C 96.941406 27.65625 77.832031 7.570312 53.699219 6.015625 L 53.699219 47.820312 L 60.238281 47.820312 C 60.421875 39.925781 62.484375 37.011719 67.382812 36.910156 C 72.527344 36.808594 76.578125 41.566406 75.078125 47.074219 C 75.035156 47.195312 75.019531 47.316406 74.976562 47.433594 C 73.519531 51.542969 70.140625 52.679688 65.320312 52.761719 Z M 67.527344 47.777344 C 65.949219 47.777344 64.671875 46.5 64.671875 44.921875 C 64.671875 43.320312 65.949219 42.046875 67.527344 42.046875 C 69.128906 42.046875 70.402344 43.324219 70.402344 44.921875 C 70.402344 46.5 69.125 47.777344 67.527344 47.777344 Z M 67.527344 47.777344 " fill-opacity="1" fill-rule="evenodd"/><path fill="#ff7d7d" d="M 28.960938 98.933594 C 28.109375 100.59375 29.140625 102.820312 30.296875 104.5 L 48.738281 104.703125 L 48.738281 69.21875 C 46.816406 66.605469 43.273438 63.730469 37.320312 64.621094 C 35.964844 64.824219 34.6875 63.871094 34.484375 62.515625 C 34.28125 61.136719 35.234375 59.882812 36.589844 59.679688 C 41.917969 58.890625 45.863281 60.226562 48.738281 62.269531 L 48.738281 49.554688 C 46.632812 46.90625 43.191406 44.128906 37.988281 44.027344 C 36.609375 43.988281 35.519531 42.855469 35.539062 41.480469 C 35.582031 40.101562 36.714844 39.011719 38.089844 39.050781 C 42.5625 39.128906 46.0625 40.667969 48.734375 42.671875 L 48.734375 5.992188 C 43.371094 6.316406 40.496094 7.429688 37.800781 11.136719 C 37.355469 12.613281 37.175781 15.164062 38.773438 18.949219 C 40.496094 18.300781 42.519531 17.941406 44.988281 18.039062 C 46.367188 18.082031 47.4375 19.238281 47.398438 20.609375 C 47.359375 21.96875 46.203125 23.058594 44.828125 23.019531 C 35.921875 22.71875 35.375 31.339844 35.375 31.363281 C 35.273438 32.738281 34.078125 33.773438 32.703125 33.671875 C 31.328125 33.570312 30.292969 32.375 30.394531 31 C 30.394531 30.957031 30.738281 25.511719 34.542969 21.6875 C 32.984375 18.265625 32.519531 15.410156 32.582031 13.105469 C 24.910156 11.890625 17.621094 18.027344 17.664062 25.820312 L 17.664062 26.246094 C 19.261719 27.21875 21.8125 29.523438 23.289062 34.769531 C 23.652344 36.105469 22.867188 37.480469 21.550781 37.84375 C 20.214844 38.207031 18.835938 37.417969 18.472656 36.105469 C 17.015625 30.878906 15.03125 30.4375 15.011719 30.4375 L 14.929688 30.394531 L 14.144531 30.65625 C 5.359375 33.390625 3.496094 47.074219 8.65625 53.898438 L 9.242188 54.667969 C 15.378906 54.183594 20.90625 50.539062 23.433594 48.632812 C 22.035156 44.261719 24 40.253906 24 40.234375 C 24.589844 38.976562 26.066406 38.453125 27.320312 39.039062 C 28.578125 39.625 29.105469 41.121094 28.519531 42.355469 C 28.519531 42.378906 25.847656 47.84375 32.121094 51.203125 C 33.335938 51.851562 33.800781 53.371094 33.152344 54.585938 C 32.503906 55.796875 30.988281 56.265625 29.773438 55.617188 C 28.214844 54.765625 27 53.855469 26.046875 52.882812 C 22.808594 55.25 16.230469 59.320312 8.859375 59.6875 L 8.816406 59.726562 C 4.847656 65.679688 8.046875 73.027344 14.808594 74.890625 L 15.480469 75.070312 C 17.320312 73.917969 19.75 72.683594 22.542969 72.015625 C 22.644531 68.550781 24.40625 65.636719 24.425781 65.617188 C 25.113281 64.421875 26.65625 64.039062 27.828125 64.746094 C 29.023438 65.453125 29.40625 66.992188 28.699219 68.167969 C 28.679688 68.1875 25.320312 73.796875 30.539062 76.386719 C 31.773438 76.992188 32.28125 78.492188 31.675781 79.726562 C 31.066406 80.960938 29.566406 81.46875 28.332031 80.859375 C 26.066406 79.726562 24.609375 78.328125 23.738281 76.855469 C 21.976562 77.257812 20.394531 77.964844 19.101562 78.695312 L 18.25 81.285156 C 16.589844 86.410156 20.921875 90.457031 25.640625 91.390625 L 29.285156 92.117188 C 32.402344 90.398438 37.222656 86.894531 38.738281 81.164062 C 39.101562 79.828125 40.457031 79.039062 41.796875 79.382812 C 43.136719 79.726562 43.925781 81.101562 43.578125 82.441406 C 41.292969 91.085938 33.4375 95.699219 29.953125 97.378906 Z M 28.960938 98.933594 " fill-opacity="1" fill-rule="evenodd"/></g></g></svg>