<svg xmlns="http://www.w3.org/2000/svg" xmlns:xlink="http://www.w3.org/1999/xlink" width="40" zoomAndPan="magnify" viewBox="0 0 30 30.000001" height="40" preserveAspectRatio="xMidYMid meet" version="1.0"><defs><clipPath id="48a266d2e4"><path d="M 0.21875 0.15625 L 15.601562 0.15625 L 15.601562 22.511719 L 0.21875 22.511719 Z M 0.21875 0.15625 " clip-rule="nonzero"/></clipPath><clipPath id="dc1c100c8f"><path d="M 8 0.15625 L 15 0.15625 L 15 16 L 8 16 Z M 8 0.15625 " clip-rule="nonzero"/></clipPath><clipPath id="eb78bbef3f"><path d="M 1 0.15625 L 8 0.15625 L 8 16 L 1 16 Z M 1 0.15625 " clip-rule="nonzero"/></clipPath><clipPath id="ad4a6235f3"><path d="M 1.519531 5.722656 L 5.828125 5.722656 L 5.828125 9.375 L 1.519531 9.375 Z M 1.519531 5.722656 " clip-rule="nonzero"/></clipPath><clipPath id="a9fcca5c08"><path d="M 3.667969 5.722656 C 2.484375 5.722656 1.519531 6.542969 1.519531 7.550781 C 1.519531 8.558594 2.484375 9.375 3.667969 9.375 C 4.855469 9.375 5.820312 8.558594 5.820312 7.550781 C 5.820312 6.542969 4.855469 5.722656 3.667969 5.722656 Z M 3.667969 5.722656 " clip-rule="nonzero"/></clipPath><clipPath id="1a56b81140"><path d="M 0.519531 0.722656 L 4.828125 0.722656 L 4.828125 4.375 L 0.519531 4.375 Z M 0.519531 0.722656 " clip-rule="nonzero"/></clipPath><clipPath id="449c2075e0"><path d="M 2.667969 0.722656 C 1.484375 0.722656 0.519531 1.542969 0.519531 2.550781 C 0.519531 3.558594 1.484375 4.375 2.667969 4.375 C 3.855469 4.375 4.820312 3.558594 4.820312 2.550781 C 4.820312 1.542969 3.855469 0.722656 2.667969 0.722656 Z M 2.667969 0.722656 " clip-rule="nonzero"/></clipPath><clipPath id="aa2e3a03eb"><rect x="0" width="5" y="0" height="5"/></clipPath><clipPath id="416ba05942"><path d="M 4.046875 1.8125 L 7.664062 1.8125 L 7.664062 5.324219 L 4.046875 5.324219 Z M 4.046875 1.8125 " clip-rule="nonzero"/></clipPath><clipPath id="a2040149cd"><path d="M 5.847656 1.8125 C 4.851562 1.8125 4.046875 2.597656 4.046875 3.566406 C 4.046875 4.539062 4.851562 5.324219 5.847656 5.324219 C 6.84375 5.324219 7.652344 4.539062 7.652344 3.566406 C 7.652344 2.597656 6.84375 1.8125 5.847656 1.8125 Z M 5.847656 1.8125 " clip-rule="nonzero"/></clipPath><clipPath id="f52cf219da"><path d="M 0.046875 0.8125 L 3.652344 0.8125 L 3.652344 4.324219 L 0.046875 4.324219 Z M 0.046875 0.8125 " clip-rule="nonzero"/></clipPath><clipPath id="11413122df"><path d="M 1.847656 0.8125 C 0.851562 0.8125 0.046875 1.597656 0.046875 2.566406 C 0.046875 3.539062 0.851562 4.324219 1.847656 4.324219 C 2.84375 4.324219 3.652344 3.539062 3.652344 2.566406 C 3.652344 1.597656 2.84375 0.8125 1.847656 0.8125 Z M 1.847656 0.8125 " clip-rule="nonzero"/></clipPath><clipPath id="4d63445e9b"><rect x="0" width="4" y="0" height="5"/></clipPath><clipPath id="2f5c1a0508"><path d="M 4.34375 11.832031 L 7.660156 11.832031 L 7.660156 14.875 L 4.34375 14.875 Z M 4.34375 11.832031 " clip-rule="nonzero"/></clipPath><clipPath id="7880da8c4b"><path d="M 6 11.832031 C 5.085938 11.832031 4.34375 12.515625 4.34375 13.355469 C 4.34375 14.195312 5.085938 14.875 6 14.875 C 6.910156 14.875 7.652344 14.195312 7.652344 13.355469 C 7.652344 12.515625 6.910156 11.832031 6 11.832031 Z M 6 11.832031 " clip-rule="nonzero"/></clipPath><clipPath id="a0122ec0fa"><path d="M 0.34375 0.832031 L 3.652344 0.832031 L 3.652344 3.875 L 0.34375 3.875 Z M 0.34375 0.832031 " clip-rule="nonzero"/></clipPath><clipPath id="3355455158"><path d="M 2 0.832031 C 1.085938 0.832031 0.34375 1.515625 0.34375 2.355469 C 0.34375 3.195312 1.085938 3.875 2 3.875 C 2.910156 3.875 3.652344 3.195312 3.652344 2.355469 C 3.652344 1.515625 2.910156 0.832031 2 0.832031 Z M 2 0.832031 " clip-rule="nonzero"/></clipPath><clipPath id="eba0cb2617"><rect x="0" width="4" y="0" height="4"/></clipPath><clipPath id="3ec3a22f57"><rect x="0" width="16" y="0" height="23"/></clipPath></defs><g transform="matrix(1, 0, 0, 1, 7, 3)"><g clip-path="url(#3ec3a22f57)"><g clip-path="url(#48a266d2e4)"><path fill="#2b2e3f" d="M 9.6875 20.476562 L 9.6875 21.082031 C 9.6875 21.855469 9.058594 22.488281 8.285156 22.488281 L 7.625 22.488281 C 6.855469 22.488281 6.222656 21.855469 6.222656 21.082031 L 6.222656 20.476562 C 5.605469 20.332031 5.140625 19.773438 5.140625 19.109375 L 5.140625 18.320312 C 4.753906 18.066406 4.5 17.632812 4.5 17.140625 L 4.5 16.386719 C 3.527344 15.300781 4.058594 14.46875 4.058594 14.46875 C 2.90625 14.238281 1.996094 13.1875 2.386719 11.980469 C 0.851562 11.5625 0.203125 9.863281 1.066406 8.570312 C -0.0625 7.078125 0.5 4.464844 2.261719 3.917969 C 2.253906 2.285156 3.761719 0.996094 5.390625 1.269531 C 6.160156 0.25 7.414062 0.15625 8.546875 0.242188 C 12.488281 0.542969 15.59375 3.839844 15.59375 7.859375 C 15.59375 9.605469 15.003906 11.28125 13.910156 12.640625 L 11.414062 16.351562 L 11.414062 17.140625 C 11.414062 17.632812 11.15625 18.066406 10.769531 18.316406 L 10.769531 19.109375 C 10.769531 19.773438 10.308594 20.332031 9.6875 20.476562 Z M 9.6875 20.476562 " fill-opacity="1" fill-rule="evenodd"/></g><path fill="#00c896" d="M 5.25 16.488281 L 10.664062 16.488281 L 10.664062 17.140625 C 10.664062 17.496094 10.371094 17.792969 10.011719 17.792969 L 5.902344 17.792969 C 5.542969 17.792969 5.25 17.496094 5.25 17.140625 Z M 5.25 16.488281 " fill-opacity="1" fill-rule="evenodd"/><path fill="#ff7d7d" d="M 5.894531 18.460938 L 10.019531 18.460938 L 10.019531 19.109375 C 10.019531 19.472656 9.726562 19.761719 9.371094 19.761719 L 6.546875 19.761719 C 6.1875 19.761719 5.894531 19.472656 5.894531 19.109375 Z M 5.894531 18.460938 " fill-opacity="1" fill-rule="evenodd"/><path fill="#00c896" d="M 6.976562 20.429688 L 8.9375 20.429688 L 8.9375 21.082031 C 8.9375 21.441406 8.644531 21.734375 8.285156 21.734375 L 7.628906 21.734375 C 7.269531 21.734375 6.976562 21.441406 6.976562 21.082031 Z M 6.976562 20.429688 " fill-opacity="1" fill-rule="evenodd"/><g clip-path="url(#dc1c100c8f)"><path fill="#00c896" d="M 8.410156 15.726562 L 9.410156 15.726562 L 9.410156 7.945312 L 8.410156 7.945312 Z M 10.148438 15.726562 L 11.003906 15.726562 L 13.578125 11.90625 C 14.429688 10.726562 14.882812 9.347656 14.882812 7.859375 C 14.882812 4.1875 12.023438 1.179688 8.410156 0.949219 L 8.410156 7.207031 L 9.386719 7.207031 C 9.414062 6.023438 9.722656 5.585938 10.457031 5.574219 C 11.226562 5.558594 11.832031 6.269531 11.609375 7.09375 C 11.601562 7.113281 11.601562 7.128906 11.59375 7.148438 C 11.375 7.761719 10.871094 7.933594 10.148438 7.945312 Z M 10.480469 7.199219 C 10.242188 7.199219 10.050781 7.007812 10.050781 6.773438 C 10.050781 6.53125 10.242188 6.339844 10.480469 6.339844 C 10.71875 6.339844 10.910156 6.53125 10.910156 6.773438 C 10.910156 7.007812 10.71875 7.199219 10.480469 7.199219 Z M 10.480469 7.199219 " fill-opacity="1" fill-rule="evenodd"/></g><g clip-path="url(#eb78bbef3f)"><path fill="#ff7d7d" d="M 4.707031 14.859375 C 4.578125 15.105469 4.734375 15.441406 4.90625 15.691406 L 7.667969 15.722656 L 7.667969 10.410156 C 7.378906 10.019531 6.847656 9.589844 5.957031 9.722656 C 5.753906 9.75 5.5625 9.609375 5.53125 9.40625 C 5.503906 9.199219 5.644531 9.011719 5.847656 8.980469 C 6.644531 8.863281 7.234375 9.0625 7.667969 9.371094 L 7.667969 7.464844 C 7.351562 7.070312 6.835938 6.652344 6.058594 6.636719 C 5.851562 6.632812 5.6875 6.460938 5.691406 6.257812 C 5.695312 6.050781 5.867188 5.886719 6.070312 5.894531 C 6.742188 5.90625 7.265625 6.136719 7.664062 6.433594 L 7.664062 0.945312 C 6.863281 0.992188 6.433594 1.160156 6.027344 1.714844 C 5.960938 1.933594 5.933594 2.316406 6.175781 2.882812 C 6.433594 2.785156 6.734375 2.734375 7.105469 2.746094 C 7.3125 2.753906 7.472656 2.925781 7.464844 3.132812 C 7.460938 3.335938 7.285156 3.5 7.082031 3.492188 C 5.746094 3.449219 5.664062 4.738281 5.664062 4.742188 C 5.652344 4.949219 5.472656 5.101562 5.265625 5.085938 C 5.058594 5.074219 4.90625 4.894531 4.921875 4.6875 C 4.921875 4.679688 4.972656 3.867188 5.542969 3.292969 C 5.308594 2.78125 5.238281 2.355469 5.246094 2.007812 C 4.097656 1.828125 3.007812 2.746094 3.015625 3.914062 L 3.015625 3.976562 C 3.253906 4.121094 3.636719 4.464844 3.855469 5.25 C 3.910156 5.453125 3.792969 5.65625 3.597656 5.710938 C 3.394531 5.765625 3.191406 5.648438 3.136719 5.453125 C 2.917969 4.667969 2.621094 4.601562 2.617188 4.601562 L 2.605469 4.597656 L 2.488281 4.636719 C 1.171875 5.046875 0.894531 7.09375 1.664062 8.117188 L 1.753906 8.230469 C 2.671875 8.160156 3.5 7.613281 3.878906 7.328125 C 3.667969 6.671875 3.964844 6.074219 3.964844 6.070312 C 4.050781 5.882812 4.273438 5.804688 4.460938 5.890625 C 4.648438 5.980469 4.726562 6.203125 4.640625 6.386719 C 4.640625 6.390625 4.238281 7.210938 5.179688 7.710938 C 5.359375 7.808594 5.429688 8.035156 5.332031 8.21875 C 5.234375 8.398438 5.007812 8.46875 4.828125 8.371094 C 4.59375 8.246094 4.410156 8.109375 4.269531 7.964844 C 3.785156 8.316406 2.800781 8.925781 1.695312 8.980469 L 1.691406 8.988281 C 1.097656 9.878906 1.574219 10.980469 2.585938 11.257812 L 2.6875 11.285156 C 2.960938 11.113281 3.328125 10.929688 3.746094 10.828125 C 3.761719 10.308594 4.023438 9.871094 4.027344 9.871094 C 4.128906 9.691406 4.359375 9.632812 4.535156 9.738281 C 4.714844 9.847656 4.773438 10.074219 4.667969 10.253906 C 4.664062 10.253906 4.160156 11.09375 4.941406 11.484375 C 5.125 11.574219 5.203125 11.796875 5.113281 11.984375 C 5.019531 12.167969 4.796875 12.242188 4.613281 12.152344 C 4.273438 11.984375 4.054688 11.773438 3.921875 11.550781 C 3.660156 11.613281 3.421875 11.71875 3.230469 11.828125 L 3.101562 12.214844 C 2.855469 12.984375 3.503906 13.589844 4.207031 13.726562 L 4.753906 13.835938 C 5.222656 13.582031 5.941406 13.054688 6.167969 12.199219 C 6.222656 11.996094 6.425781 11.878906 6.628906 11.929688 C 6.828125 11.984375 6.945312 12.1875 6.894531 12.390625 C 6.550781 13.683594 5.375 14.375 4.855469 14.625 Z M 4.707031 14.859375 " fill-opacity="1" fill-rule="evenodd"/></g><g clip-path="url(#ad4a6235f3)"><g clip-path="url(#a9fcca5c08)"><g transform="matrix(1, 0, 0, 1, 1, 5)"><g clip-path="url(#aa2e3a03eb)"><g clip-path="url(#1a56b81140)"><g clip-path="url(#449c2075e0)"><path fill="#ff7d7d" d="M 0.519531 0.722656 L 4.816406 0.722656 L 4.816406 4.375 L 0.519531 4.375 Z M 0.519531 0.722656 " fill-opacity="1" fill-rule="nonzero"/></g></g></g></g></g></g><g clip-path="url(#416ba05942)"><g clip-path="url(#a2040149cd)"><g transform="matrix(1, 0, 0, 1, 4, 1)"><g clip-path="url(#4d63445e9b)"><g clip-path="url(#f52cf219da)"><g clip-path="url(#11413122df)"><path fill="#ff7d7d" d="M 0.046875 0.8125 L 3.652344 0.8125 L 3.652344 4.324219 L 0.046875 4.324219 Z M 0.046875 0.8125 " fill-opacity="1" fill-rule="nonzero"/></g></g></g></g></g></g><g clip-path="url(#2f5c1a0508)"><g clip-path="url(#7880da8c4b)"><g transform="matrix(1, 0, 0, 1, 4, 11)"><g clip-path="url(#eba0cb2617)"><g clip-path="url(#a0122ec0fa)"><g clip-path="url(#3355455158)"><path fill="#ff7d7d" d="M 0.34375 0.832031 L 3.648438 0.832031 L 3.648438 3.875 L 0.34375 3.875 Z M 0.34375 0.832031 " fill-opacity="1" fill-rule="nonzero"/></g></g></g></g></g></g></g></g></svg>