<svg width="151" height="151" viewBox="0 0 151 151" fill="none" xmlns="http://www.w3.org/2000/svg">
<g id="All-Good-2--Streamline-Barcelona">
<path id="Vector" d="M43.6004 98.043L32.5424 99.7128C32.5424 99.7128 30.8771 113.572 26.2704 122.217C26.2704 122.217 26.2086 122.301 26.1198 122.443C27.1779 122.649 28.1404 123.194 28.8622 123.994C29.5032 124.823 29.6064 126.801 29.4166 129.135C35.4355 130.525 44.1834 107.845 43.6004 98.043Z" fill="#ACEAC7"/>
<path id="Vector_2" d="M100.736 12.1875C100.643 12.3964 100.488 12.5714 100.291 12.6886C100.095 12.8058 99.8672 12.8594 99.6392 12.8421C97.5039 12.7668 97.07 9.62961 96.9819 8.34086L96.9367 8.30621C96.6716 8.87976 96.2866 9.38981 95.8077 9.80195C95.3287 10.2141 94.767 10.5188 94.1603 10.6954C92.7232 10.9771 92.6976 9.45487 93.0606 8.0343C91.3478 9.76067 88.1384 12.6349 87.5787 10.2518C85.5601 13.6126 86.2892 18.333 89.3428 20.6725C93.4222 23.7893 98.6585 21.1312 99.6325 15.9853C99.655 15.9057 99.7079 15.8383 99.7798 15.7975C99.8517 15.7568 99.9368 15.746 100.017 15.7676C101.828 16.3453 103.528 13.7881 102.019 12.4835C101.836 12.3492 101.629 12.2536 101.408 12.2027C101.187 12.1518 100.959 12.1466 100.736 12.1875ZM134.871 26.2825C134.648 26.1091 134.497 25.8586 134.448 25.58C134.4 25.3014 134.457 25.0147 134.609 24.776C134.7 24.6113 134.809 24.4574 134.934 24.3173C134.744 24.3693 134.544 24.3718 134.353 24.3247C134.162 24.2777 133.986 24.1826 133.842 24.0484C133.343 23.4918 133.379 22.2241 134.746 21.2352C134.445 20.4383 133.917 19.1194 133.169 18.7081C132.751 18.4769 132.375 18.7255 132.272 19.194C132.187 19.8321 132.252 20.481 132.461 21.0898C132.559 21.4603 132.678 21.8248 132.818 22.1812C132.836 22.2476 132.831 22.318 132.806 22.3817C132.78 22.4454 132.734 22.499 132.675 22.5345C131.934 23.0055 131.194 23.4767 130.455 23.9483C130.538 24.1177 132.424 27.935 133.282 29.6727L136.145 28.2755C135.483 27.8371 135.76 27.0078 136.177 26.4919C135.731 26.5965 135.262 26.5213 134.871 26.2825Z" fill="#FFCEB6"/>
<path id="Vector_3" d="M139.137 24.0348C138.808 23.1365 138.367 22.2835 137.824 21.4964C137.692 21.3107 137.512 21.1652 137.302 21.0761C137.093 20.987 136.863 20.9578 136.637 20.9918C136.032 21.1572 135.467 21.4476 134.98 21.8444C134.709 22.0077 134.493 22.2476 134.358 22.5338C134.223 22.8199 134.176 23.1396 134.223 23.4525C134.271 23.6167 134.309 23.6785 134.471 23.7101C134.983 23.7183 135.489 23.5915 135.936 23.3426C136.157 23.2447 136.506 23.0759 136.765 22.9238C136.836 22.882 136.921 22.8704 137.001 22.8913C137.081 22.9123 137.15 22.9642 137.191 23.0356C137.233 23.1071 137.245 23.1921 137.224 23.2722C137.203 23.3522 137.151 23.4206 137.08 23.4623C135.999 24.0476 134.302 25.4599 135.377 25.8508C135.845 25.9477 136.332 25.895 136.768 25.7001C137.035 25.6162 137.295 25.5119 137.547 25.3883C137.904 25.2098 138.214 25.728 137.861 25.9284C137.44 26.166 137.055 26.4631 136.719 26.8104C136.481 27.0665 136.069 27.7963 136.725 27.8152C137.54 27.6585 138.308 27.3173 138.97 26.8179C139.897 26.1973 139.436 24.8889 139.137 24.0348ZM89.6541 21.6373C89.6541 24.3722 89.5697 25.2701 89.9124 26.0896C90.2093 26.7886 90.7306 27.3687 91.394 27.7383C91.9921 28.0457 92.6604 28.1906 93.332 28.1586C93.7762 28.1581 94.2159 28.0699 94.6259 27.8991C95.036 27.7284 95.4083 27.4784 95.7216 27.1636C96.0349 26.8487 96.283 26.4752 96.4517 26.0643C96.6205 25.6534 96.7065 25.2133 96.7049 24.7692V21.5507C95.6616 22.2394 94.4423 22.6138 93.1922 22.6291C91.9422 22.6445 90.714 22.3002 89.6541 21.6373Z" fill="#FFCEB6"/>
<path id="Vector_4" d="M113.373 97.5067C112.163 92.6003 111.961 89.14 109.245 75.5505C107.292 65.782 106.609 63.432 105.548 59.2057C105.247 57.7706 104.752 56.3831 104.078 55.0811C96.9035 57.1253 85.6994 56.6944 81.913 56.4738C81.4264 62.0091 81.1078 67.4308 80.9798 72.8999C80.7538 82.4454 81.1756 87.9258 81.4001 93.4002C81.6373 99.206 82.3792 111.529 88.2265 111.15C88.9874 111.125 89.7227 110.869 90.3355 110.418C90.5211 110.171 90.6677 109.897 90.7701 109.606C91.4811 107.692 91.9345 105.693 92.1183 103.66C92.8941 98.1033 93.3385 94.6001 94.0466 83.1971C94.3328 78.604 94.5623 74.0079 94.735 69.4087C94.7471 69.0675 95.2728 68.9711 95.3481 69.3259C98.2103 82.7512 100.38 91.7363 104.635 103.406C105.367 105.412 106.17 107.789 108.037 109.032C109.038 109.658 110.209 109.959 111.389 109.893C113.239 109.85 114.118 109.488 114.511 107.313C115.102 104.035 114.151 100.666 113.373 97.5067ZM94.1392 67.4587C92.8648 64.6273 92.0784 60.4485 91.7575 57.34C91.7161 56.94 92.3413 56.9445 92.382 57.34C92.6599 60.0681 93.4884 64.5023 94.6778 67.1438C94.842 67.5076 94.3019 67.8247 94.1392 67.4587Z" fill="#A76C6C"/>
<path id="Vector_5" d="M56.7216 92.3351C55.6174 102.428 49.957 118.902 43.416 128.652C43.3778 128.709 43.3215 128.751 43.2563 128.771C43.494 129.4 43.688 130.045 43.8371 130.7C44.5967 130.701 45.3418 130.493 45.9905 130.098C48.6983 127.076 57.1381 104.639 59.2931 95.0625C58.1908 94.4204 57.2977 93.4732 56.7216 92.3351Z" fill="#ACEAC7"/>
<path id="Vector_6" d="M56.2136 91.1766C55.4642 89.0902 55.3851 86.8132 55.1915 84.8993C54.9909 84.7354 54.777 84.5886 54.552 84.4602C49.8068 81.665 40.9941 84.998 38.7014 84.9159C36.6089 84.8405 35.6207 82.9146 35.452 80.8447C29.72 82.2924 23.7365 82.1945 20.0638 80.8824C19.6156 83.8094 19.9666 87.1055 21.8715 89.387C24.0558 91.9953 27.4958 92.5505 30.7029 92.8178C34.8268 93.1461 38.9763 92.8903 43.0286 92.0579C44.7401 91.7411 46.4229 91.2849 48.0601 90.6938C48.286 90.6072 48.5067 90.8648 48.4442 91.0779C48.399 91.2346 40.2703 120.254 39.7348 122.424C39.4139 123.728 39.087 125.037 38.8505 126.361C40.0263 126.214 41.2164 126.483 42.2151 127.121C42.5458 127.407 42.809 127.763 42.9856 128.163C49.7149 118.055 55.48 100.747 56.2136 91.1766Z" fill="#ACEAC7"/>
<path id="Vector_7" d="M37.8737 84.1213C39.1421 84.6418 40.3593 83.9338 44.9969 83.1572C47.7785 82.691 50.8539 82.346 53.5685 83.3199C54.1021 83.5021 54.6139 83.7429 55.0945 84.0377C54.8173 81.9091 54.1748 80.1451 52.0304 80.2656C50.6994 80.4403 49.3535 80.4716 48.0158 80.359C45.7756 80.1797 43.6354 79.3548 41.8545 77.9841L42.1633 78.2809C40.2338 79.3096 38.1928 80.1139 36.0803 80.6784C36.1737 81.9739 36.5759 83.5888 37.8737 84.1213Z" fill="#ACEAC7"/>
<path id="Vector_8" d="M97.0961 30.551C97.3661 30.6838 97.6674 30.74 97.9672 30.7134C98.2669 30.6868 98.5536 30.5786 98.7961 30.4004C99.739 29.7144 100.429 28.7363 100.759 27.618C101.177 26.2486 101.159 25.6024 99.9064 24.0236C99.0567 23.839 98.1967 23.7052 97.3311 23.6229C97.3976 24.4318 97.3307 25.2461 97.133 26.0332C96.8837 26.7743 96.425 27.4272 95.8124 27.913C95.1997 28.3988 94.4594 28.6966 93.681 28.7704C94.708 29.5567 95.8634 30.1592 97.0961 30.551ZM86.3477 29.3978C87.4323 30.6542 89.6408 30.3868 91.0636 29.5199C91.4472 29.2916 91.7934 29.0058 92.0902 28.6725C91.33 28.4848 90.641 28.0796 90.1074 27.5066C89.5738 26.9335 89.2187 26.2174 89.0857 25.4457C89.0382 25.1192 89.0151 24.7897 89.0164 24.4597C87.5495 24.8272 86.1871 25.5277 85.0349 26.507C85.2097 27.5696 85.6626 28.567 86.3477 29.3978ZM82.5297 38.9004C82.4158 34.4358 81.8426 29.9948 80.8191 25.6476C79.9748 25.6054 80.3009 25.6084 80.1126 25.6641C78.4905 25.9902 76.8299 26.0807 75.182 25.933C74.3317 29.2103 70.2997 45.9204 75.2784 50.3244C75.8018 50.7332 76.4293 50.9871 77.0896 51.0572C77.75 51.1274 78.4168 51.0111 79.0144 50.7214C78.9919 50.6693 78.9877 50.6111 79.0026 50.5564C79.0176 50.5016 79.0507 50.4536 79.0965 50.4201C82.0792 47.9496 82.5628 42.7652 82.5297 38.9004Z" fill="#FFD35C"/>
<path id="Vector_9" d="M132.871 30.2457C132.871 30.2457 130.683 25.8161 129.783 23.9895C129.75 23.9112 129.743 23.8241 129.764 23.7417L121.623 29.268C120.79 29.8318 119.83 30.182 118.83 30.2879L120.195 31.661C120.254 31.7195 120.287 31.7989 120.287 31.8817C120.287 31.9645 120.254 32.0439 120.195 32.1024C120.137 32.1609 120.057 32.1938 119.974 32.1938C119.892 32.1938 119.812 32.1609 119.754 32.1024L118.57 30.9116L118.149 32.2832C118.138 32.3227 118.12 32.3598 118.095 32.3922C118.07 32.4246 118.038 32.4517 118.003 32.4719C117.967 32.4922 117.928 32.5053 117.887 32.5104C117.846 32.5155 117.805 32.5125 117.765 32.5016C117.726 32.4907 117.689 32.4722 117.656 32.447C117.624 32.4218 117.597 32.3904 117.576 32.3548C117.556 32.3191 117.543 32.2798 117.538 32.2391C117.533 32.1984 117.536 32.157 117.547 32.1175L118.095 30.3278C117.296 30.3188 118.062 30.4303 110.426 27.8241C107.2 26.7049 104.169 25.1186 100.854 24.2448C101.385 24.9237 101.653 25.7718 101.607 26.6325C101.467 27.869 100.963 29.0358 100.157 29.9844C98.8512 31.5239 97.8976 31.4908 96.6714 31.0682C95.3917 30.6039 94.192 29.9432 93.1155 29.1099C92.9867 29.0142 92.8368 28.8839 92.6771 28.9766C92.3802 29.2868 92.0588 29.5727 91.716 29.8315C89.9444 31.1119 87.5447 31.1767 86.3471 30.257C85.422 29.4034 84.7814 28.2862 84.5122 27.0566C83.7365 28.1519 83.0253 29.2914 82.3821 30.4694C83.2815 36.1012 84.0806 45.2219 80.6023 49.7352V55.8701C80.602 56.0093 80.6547 56.1434 80.7497 56.2451C80.8447 56.3468 80.9749 56.4085 81.1137 56.4177C87.7654 56.8847 98.9913 56.9051 105.284 54.6959C105.397 54.6558 105.493 54.5799 105.558 54.4797C105.623 54.3795 105.654 54.2606 105.644 54.1415C105.559 52.9529 105.282 49.3209 104.802 44.9681C104.659 45.1745 104.298 45.2031 104.256 44.9003L103.023 36.0779C102.96 35.6312 102.991 35.7269 103.658 34.6731C103.874 34.3342 104.411 34.6483 104.198 34.9887L103.623 35.8971L103.682 36.3212L117.912 39.099C118.565 39.253 119.244 39.2647 119.902 39.1335C120.56 39.0022 121.182 38.731 121.726 38.3383C133.552 29.787 132.906 30.321 132.871 30.2457ZM102.794 35.531C102.643 35.4896 102.679 35.4874 101.793 34.2506C101.762 34.1968 101.749 34.1355 101.753 34.0741C101.758 34.0127 101.78 33.9539 101.818 33.9051C101.855 33.8563 101.906 33.8196 101.964 33.7994C102.023 33.7793 102.085 33.7767 102.145 33.7919C102.296 33.8325 102.26 33.8348 103.146 35.0723C103.176 35.126 103.19 35.1875 103.186 35.2491C103.182 35.3106 103.159 35.3695 103.122 35.4185C103.084 35.4674 103.033 35.5042 102.975 35.5242C102.916 35.5442 102.853 35.5466 102.794 35.531Z" fill="#FFD35C"/>
<path id="Vector_10" d="M68.3426 86.7317C67.3883 85.7759 66.2215 86.3386 65.735 87.546C65.283 88.6615 65.7063 89.4953 65.3636 90.4632C65.2633 90.7756 65.048 91.0384 64.7614 91.1982C64.4747 91.358 64.1381 91.403 63.8195 91.3241C61.6736 90.7486 60.5807 84.0518 60.2222 81.8562C60.0897 80.8774 59.6998 79.9513 59.0923 79.1725C57.8978 77.8644 56.2833 77.0155 54.5286 76.7727C53.7114 76.6183 52.6945 76.7094 52.275 75.8267C52.1111 75.1786 52.1111 74.4999 52.275 73.8517C52.339 73.1392 52.3834 72.4206 52.4188 71.7073C51.8399 71.8507 51.2493 71.942 50.6541 71.98C50.6312 72.0622 50.5772 72.1322 50.5034 72.1751C47.2081 73.9965 43.5468 75.0573 39.7882 75.2798C42.7897 78.4961 45.1661 79.4933 48.2445 79.7554C49.5558 79.8329 50.8715 79.7925 52.1756 79.6349C52.6537 79.6127 53.1301 79.707 53.5638 79.9097C53.9974 80.1124 54.3753 80.4175 54.6649 80.7987C56.7521 83.5705 54.9301 90.0542 58.3504 93.5476C60.8978 96.15 67.1518 96.8745 69.1463 93.5476C69.7076 92.461 69.931 91.2313 69.7878 90.0166C69.6445 88.802 69.1412 87.658 68.3426 86.7317ZM46.4828 78.1903C45.4415 77.9359 44.4812 77.4233 43.6906 76.6996L43.6785 76.6831C43.6444 76.6443 43.6207 76.5974 43.6099 76.5469C43.5991 76.4964 43.6015 76.4439 43.6168 76.3946C43.6308 76.3424 43.6584 76.2948 43.6967 76.2567C43.735 76.2185 43.7827 76.1912 43.8349 76.1773C43.8872 76.1635 43.9421 76.1637 43.9943 76.1779C44.0465 76.1921 44.0939 76.2198 44.132 76.2583C44.2299 76.3479 44.3519 76.436 44.4476 76.5113C45.094 77.0264 45.8451 77.394 46.6485 77.5884C47.0394 77.6826 46.8729 78.2844 46.4828 78.1903ZM48.3658 77.492C48.3423 77.5709 48.2892 77.6377 48.2176 77.6784C48.146 77.7191 48.0615 77.7306 47.9817 77.7105C47.0805 77.4952 46.2558 77.0363 45.5977 76.3841C45.5872 76.3708 45.5779 76.3567 45.5699 76.3419C45.5274 76.2786 45.5097 76.2018 45.5202 76.1264C45.5307 76.0509 45.5686 75.9819 45.6267 75.9325C45.6848 75.8832 45.759 75.8569 45.8352 75.8588C45.9114 75.8607 45.9843 75.8905 46.0399 75.9427C46.6273 76.5112 47.355 76.9135 48.1489 77.1086C48.2283 77.1312 48.2957 77.1839 48.3367 77.2556C48.3777 77.3273 48.3889 77.4122 48.3681 77.492H48.3658ZM49.827 76.7817C49.8086 76.8438 49.7706 76.8983 49.7188 76.9371C49.667 76.9759 49.604 76.9969 49.5393 76.9972C49.4587 76.9968 49.3813 76.9652 49.3234 76.9091C49.2656 76.8529 49.2317 76.7765 49.229 76.6959C49.2802 76.1867 49.2583 75.6729 49.1642 75.1699C49.1445 75.09 49.1561 75.0057 49.1968 74.9342C49.2374 74.8627 49.3039 74.8096 49.3826 74.7857C49.4624 74.7644 49.5474 74.7752 49.6193 74.8159C49.6911 74.8567 49.7441 74.924 49.7668 75.0034C49.891 75.588 49.9121 76.1898 49.8293 76.7817H49.827ZM48.4765 65.1717C49.6653 64.3127 50.9253 63.5568 52.2426 62.912C51.9621 59.4583 51.4508 56.0273 50.7121 52.6419C50.6955 52.4981 50.5968 53.3906 51.9006 43.0957C49.4734 44.6986 47.3854 46.7638 45.7559 49.1734C45.7277 49.2196 45.6881 49.2577 45.6409 49.2841C45.5936 49.3105 45.5404 49.3242 45.4862 49.324L43.4187 49.0709C43.3367 49.0681 43.2588 49.0343 43.2008 48.9762C43.1427 48.9182 43.1089 48.8403 43.1061 48.7583L42.4011 40.2056C40.7231 42.1099 39.4209 44.3147 38.5634 46.7036C38.1872 47.9005 37.8933 49.1218 37.6837 50.3589C37.2107 52.6818 36.8084 54.702 36.4823 57.1861C37.4175 60.4429 38.1485 63.755 38.6711 67.1029C41.8797 66.1856 45.1597 65.5396 48.4765 65.1717ZM48.7492 59.3719C48.8291 59.351 48.9139 59.3621 48.9857 59.4029C49.0575 59.4437 49.1105 59.511 49.1333 59.5903C49.3034 60.2435 49.3692 60.9194 49.3284 61.5931C49.3267 61.6753 49.2933 61.7536 49.2352 61.8117C49.177 61.8698 49.0987 61.9032 49.0166 61.905C48.9339 61.9048 48.8546 61.8719 48.796 61.8135C48.7375 61.7551 48.7044 61.6759 48.704 61.5931C48.7463 60.9754 48.6878 60.355 48.5307 59.756C48.51 59.676 48.5212 59.591 48.5619 59.519C48.6027 59.447 48.6698 59.3938 48.7492 59.3704V59.3719ZM38.4128 57.2584L39.166 54.3901C39.1887 54.3109 39.2417 54.2439 39.3136 54.2035C39.3855 54.1632 39.4703 54.1529 39.5498 54.1749C39.6292 54.1968 39.6967 54.2492 39.7377 54.3207C39.7787 54.3922 39.7898 54.477 39.7686 54.5566C39.5175 55.5107 39.2664 56.4667 39.0154 57.4248C38.9927 57.5041 38.9396 57.5711 38.8678 57.6114C38.7959 57.6518 38.711 57.6621 38.6316 57.6401C38.5522 57.6182 38.4846 57.5658 38.4437 57.4943C38.4027 57.4228 38.3916 57.338 38.4128 57.2584ZM40.384 56.7823C40.0421 57.639 39.8025 58.533 39.6699 59.4457C39.6472 59.5252 39.5943 59.5926 39.5224 59.6334C39.4506 59.6742 39.3656 59.6853 39.2858 59.6642C39.2074 59.6398 39.1412 59.5866 39.1006 59.5153C39.0601 59.4439 39.0482 59.3598 39.0673 59.28C39.1998 58.3672 39.4397 57.4732 39.7821 56.6166C39.8057 56.5378 39.8588 56.4711 39.9304 56.4305C40.002 56.3899 40.0865 56.3786 40.1663 56.399C40.2458 56.4213 40.3132 56.4741 40.354 56.5459C40.3947 56.6177 40.4055 56.7027 40.384 56.7823ZM47.7964 62.7621C47.7135 62.7621 47.634 62.7292 47.5753 62.6706C47.5167 62.612 47.4838 62.5325 47.4838 62.4496C47.5751 61.7978 47.5312 61.1343 47.355 60.5002C47.3338 60.4206 47.3449 60.3358 47.3858 60.2643C47.4268 60.1928 47.4944 60.1404 47.5738 60.1185C47.6532 60.0965 47.7381 60.1068 47.81 60.1472C47.8818 60.1875 47.9349 60.2545 47.9575 60.3338C48.1496 61.0217 48.2008 61.7413 48.1082 62.4496C48.1057 62.5315 48.0721 62.6095 48.0142 62.6676C47.9563 62.7257 47.8784 62.7595 47.7964 62.7621Z" fill="#FFD35C"/>
<path id="Vector_11" d="M130.917 118.006C128.693 118.246 126.451 118.281 124.22 118.112C123.819 118.081 123.821 118.705 124.22 118.736C126.451 118.906 128.693 118.87 130.917 118.63C131.313 118.588 131.317 117.962 130.917 118.006ZM134.268 121.589C132.506 121.628 130.743 121.532 128.995 121.302C128.827 121.28 128.685 121.462 128.683 121.615C128.685 121.697 128.719 121.775 128.777 121.833C128.835 121.891 128.913 121.925 128.995 121.927C130.743 122.156 132.506 122.252 134.268 122.214C134.348 122.21 134.423 122.175 134.479 122.117C134.534 122.059 134.565 121.982 134.565 121.901C134.565 121.821 134.534 121.744 134.479 121.686C134.423 121.628 134.348 121.593 134.268 121.589ZM68.7364 120.579C67.3 120.664 65.8589 120.627 64.4288 120.467C64.3462 120.467 64.2672 120.5 64.2087 120.559C64.1502 120.617 64.117 120.696 64.1162 120.779C64.1181 120.861 64.1517 120.939 64.2099 120.997C64.2682 121.055 64.3466 121.089 64.4288 121.091C65.8589 121.251 67.3 121.288 68.7364 121.203C69.1364 121.179 69.1387 120.555 68.7364 120.579Z" fill="#7D4AB4"/>
<path id="Vector_12" d="M100.883 13.0584L99.7204 13.7227C99.6495 13.7649 99.5979 13.8334 99.5769 13.9133C99.5559 13.9932 99.5672 14.0781 99.6082 14.1498C99.6511 14.22 99.7196 14.271 99.7992 14.2919C99.8788 14.3128 99.9634 14.3021 100.035 14.262L101.198 13.5977C101.269 13.5552 101.32 13.4867 101.341 13.4069C101.362 13.327 101.351 13.2422 101.31 13.1706C101.267 13.1004 101.198 13.0494 101.119 13.0285C101.039 13.0076 100.955 13.0183 100.883 13.0584ZM97.3222 14.4488C97.3622 14.461 97.4041 14.465 97.4457 14.4607C97.4872 14.4563 97.5274 14.4437 97.564 14.4235C97.6006 14.4034 97.6328 14.3761 97.6586 14.3433C97.6845 14.3105 97.7035 14.2729 97.7146 14.2326C97.7257 14.1924 97.7285 14.1503 97.7231 14.1089C97.7176 14.0675 97.7039 14.0276 97.6828 13.9916C97.6617 13.9556 97.6335 13.9242 97.6001 13.8992C97.5666 13.8742 97.5285 13.8562 97.4879 13.8462C97.2353 13.7633 96.9685 13.7327 96.7037 13.7563C96.4388 13.7799 96.1816 13.8571 95.9476 13.9833C95.4874 14.2432 94.7357 15.0597 95.1996 15.3308C95.2714 15.3719 95.3565 15.3832 95.4365 15.3622C95.5165 15.3412 95.5851 15.2896 95.6275 15.2186C95.7847 14.8886 96.0507 14.6226 96.3807 14.4654C96.682 14.3453 97.0168 14.3394 97.3222 14.4488ZM95.1959 11.2492C95.56 11.2027 95.9299 11.2429 96.2755 11.3666C96.6211 11.4903 96.9325 11.694 97.1844 11.9609C97.213 11.9917 97.2475 12.0164 97.2859 12.0335C97.3243 12.0506 97.3657 12.0598 97.4077 12.0605C97.4497 12.0613 97.4915 12.0535 97.5304 12.0378C97.5694 12.022 97.6048 11.9986 97.6344 11.9689C97.6641 11.9391 97.6875 11.9037 97.7032 11.8647C97.7189 11.8257 97.7266 11.784 97.7257 11.742C97.7249 11.7 97.7157 11.6586 97.6985 11.6202C97.6813 11.5819 97.6566 11.5474 97.6258 11.5188C97.2999 11.1754 96.8954 10.9165 96.4471 10.7643C95.9989 10.612 95.5203 10.5711 95.0528 10.6451C94.9733 10.6678 94.9059 10.7207 94.8651 10.7925C94.8243 10.8644 94.8132 10.9493 94.8343 11.0292C94.8596 11.1022 94.9096 11.1641 94.9756 11.2042C95.0415 11.2444 95.1194 11.2602 95.1959 11.2492ZM95.2328 11.2446C95.2554 11.2446 95.2697 11.2386 95.2328 11.2446V11.2446ZM97.616 16.3755C97.5361 16.3554 97.4516 16.3669 97.38 16.4076C97.3084 16.4483 97.2553 16.5151 97.2318 16.594C96.7098 18.0002 95.7058 19.115 94.1986 19.0043C94.1199 18.9858 94.037 18.9986 93.9675 19.04C93.8979 19.0813 93.8471 19.148 93.8258 19.2261C93.8044 19.3041 93.8141 19.3874 93.8529 19.4584C93.8917 19.5294 93.9565 19.5826 94.0337 19.6068C94.571 19.6714 95.1159 19.5976 95.6168 19.3927C96.1177 19.1877 96.5579 18.8583 96.8959 18.4356C97.3031 17.9371 97.62 17.3712 97.8321 16.7635C97.8547 16.6833 97.8446 16.5976 97.8041 16.5249C97.7636 16.4522 97.6959 16.3985 97.616 16.3755ZM111.596 110.507C112.405 110.539 113.204 110.322 113.885 109.886C114.457 109.409 114.85 108.752 114.999 108.022C115.955 104.03 114.462 99.5939 113.549 95.5619C112.894 92.6756 111.322 81.5521 108.104 67.0655C107.661 65.074 106.104 58.4208 105.407 56.4971C105.211 55.9451 104.973 55.4088 104.696 54.8928C104.593 54.9251 104.18 55.0479 104.078 55.0773C104.752 56.3796 105.246 57.7671 105.548 59.2019C106.401 62.6027 108.298 69.4908 111.384 86.9203C112.011 90.4604 112.514 94.0193 113.372 97.5105C114.151 100.67 115.105 104.039 114.511 107.313C114.123 109.464 113.269 109.85 111.388 109.893C110.208 109.959 109.038 109.658 108.036 109.032C106.169 107.789 105.367 105.412 104.634 103.406C100.4 91.7906 98.2457 82.9184 95.3473 69.3259C95.272 68.9704 94.7447 69.0675 94.7342 69.4087C94.5674 74.0079 94.338 78.604 94.0457 83.1971C93.3377 94.6046 92.8925 98.1108 92.1175 103.66C91.934 105.693 91.4806 107.693 90.7692 109.606C90.667 109.897 90.5204 110.171 90.3346 110.418C89.722 110.87 88.9866 111.125 88.2256 111.15C82.3859 111.531 81.638 99.2429 81.3992 93.4002C81.1861 88.1864 80.753 82.5072 80.9789 72.8999C81.1092 67.3532 81.4271 62.0182 81.9122 56.4738C81.8014 56.4677 81.3849 56.4414 81.2908 56.4353C80.9013 60.8921 80.6129 65.3579 80.4464 69.8283C80.0246 81.3691 80.5609 87.6215 80.7371 92.4248C80.9202 97.396 81.3397 107.306 85.0252 110.629C85.6818 111.227 86.5001 111.618 87.3777 111.752C88.2552 111.887 89.1531 111.76 89.9588 111.387C90.2549 111.269 90.5229 111.09 90.7452 110.861C90.9675 110.633 91.1392 110.36 91.249 110.061C92.013 108.162 92.4951 106.161 92.6801 104.123C93.23 100.164 93.7866 96.5321 94.4351 86.8743C94.7492 82.1968 95.2479 72.2062 95.2637 71.8921C97.5429 82.4371 99.9336 92.3909 103.593 102.359C104.398 104.55 105.091 107.016 106.74 108.748C107.367 109.385 108.129 109.873 108.969 110.178C109.809 110.482 110.707 110.595 111.596 110.507Z" fill="black"/>
<path id="Vector_13" d="M92.3825 57.34C92.3418 56.9445 91.7167 56.94 91.7581 57.34C92.0775 60.4327 92.8653 64.6296 94.1398 67.4587C94.304 67.8247 94.8425 67.5076 94.6783 67.1438C93.4882 64.5008 92.6582 60.0387 92.3825 57.34ZM120.062 119.707C119.87 119.043 119.629 118.393 119.342 117.764C118.835 116.528 118.097 115.399 117.166 114.441C116.677 113.911 116.059 113.517 115.372 113.298C114.686 113.078 113.954 113.04 113.249 113.186C110.797 113.62 108.602 115.85 107.489 117.955C107.161 118.52 106.945 119.143 106.853 119.79C106.842 119.85 106.854 119.912 106.886 119.964C106.918 120.016 106.968 120.054 107.027 120.072C107.07 120.092 107.117 120.103 107.164 120.102H119.761C119.809 120.102 119.856 120.091 119.899 120.069C119.942 120.048 119.979 120.017 120.009 119.978C120.038 119.94 120.058 119.896 120.067 119.849C120.076 119.802 120.075 119.753 120.062 119.707ZM89.6657 117.728C88.5938 115.769 86.9752 113.881 84.833 113.293C82.8468 112.746 79.7963 113.309 77.0274 115.875C76.0347 116.796 74.648 118.444 74.4846 119.792C74.4723 119.852 74.4835 119.915 74.5158 119.967C74.5482 120.019 74.5992 120.057 74.6586 120.073C74.7016 120.095 74.7491 120.106 74.7972 120.105H90.263C90.3109 120.105 90.358 120.093 90.4008 120.072C90.4436 120.05 90.4809 120.019 90.51 119.981C90.539 119.943 90.559 119.899 90.5684 119.852C90.5778 119.805 90.5764 119.756 90.5642 119.71C90.3228 119.024 90.0221 118.361 89.6657 117.728ZM140.002 24.7754C139.682 23.4868 139.127 22.2683 138.364 21.1818C138.225 20.975 138.046 20.7978 137.837 20.6608C137.629 20.5237 137.395 20.4294 137.15 20.3834C136.485 20.3385 135.825 20.5207 135.278 20.9001C134.919 19.9691 134.355 18.6593 133.482 18.172C133.211 18.0088 132.886 17.9594 132.579 18.0346C132.271 18.1098 132.006 18.3035 131.841 18.5734C131.539 19.3125 131.514 20.1357 131.77 20.8918C131.866 21.313 131.99 21.7272 132.142 22.1316L129.893 23.5627C129.828 23.6098 129.781 23.6782 129.761 23.7562C129.74 23.8342 129.748 23.9168 129.782 23.9898C133.211 30.9345 132.839 30.1926 132.891 30.2694C132.938 30.3302 133.004 30.3725 133.079 30.3888C133.153 30.4051 133.231 30.3943 133.299 30.3583L137.606 28.2545C138.04 28.0886 138.457 27.8818 138.851 27.6369C140.009 26.9402 140.361 26.3813 140.002 24.7754ZM136.144 28.2756L133.282 29.6728C132.423 27.9322 130.537 24.1149 130.455 23.9484L132.675 22.5346C132.734 22.4991 132.78 22.4455 132.805 22.3818C132.831 22.3181 132.836 22.2478 132.818 22.1813C132.678 21.825 132.559 21.4606 132.462 21.0899C132.253 20.4832 132.187 19.8365 132.269 19.2001C132.372 18.7316 132.748 18.4831 133.166 18.7143C133.911 19.1248 134.44 20.4467 134.743 21.2413C133.376 22.2326 133.351 23.5063 133.84 24.0546C133.984 24.1888 134.16 24.284 134.351 24.331C134.542 24.3781 134.742 24.3755 134.932 24.3235C134.806 24.4636 134.697 24.6175 134.606 24.7822C134.455 25.0209 134.398 25.3075 134.446 25.5861C134.495 25.8646 134.645 26.1151 134.868 26.2886C135.259 26.5275 135.728 26.6028 136.174 26.498C135.76 27.0087 135.483 27.8372 136.144 28.2756ZM138.973 26.8219C138.31 27.3205 137.542 27.6615 136.727 27.8192C136.071 27.8003 136.483 27.0712 136.721 26.8144C137.058 26.467 137.443 26.1699 137.864 25.9324C138.216 25.732 137.906 25.2138 137.549 25.3923C137.244 25.5389 136.928 25.661 136.603 25.7576C136.215 25.9139 135.787 25.9465 135.38 25.851C134.291 25.4556 136.037 24.0275 137.082 23.4626C137.154 23.4208 137.205 23.3524 137.226 23.2724C137.247 23.1924 137.236 23.1073 137.194 23.0359C137.152 22.9645 137.084 22.9125 137.004 22.8916C136.924 22.8706 136.839 22.8823 136.767 22.924C136.269 23.2125 135.068 23.8234 134.471 23.7104C134.308 23.6795 134.27 23.6162 134.222 23.4528C133.975 22.6295 134.775 21.9463 135.503 21.4854C135.845 21.2511 136.228 21.0837 136.632 20.992C136.858 20.958 137.088 20.9872 137.297 21.0763C137.507 21.1655 137.687 21.311 137.819 21.4967C138.362 22.2837 138.803 23.1367 139.132 24.035C139.437 24.8892 139.899 26.1975 138.973 26.8219ZM104.258 44.9029C104.301 45.2042 104.661 45.177 104.805 44.9707C104.917 44.8087 104.955 45.4467 103.626 35.8997L104.2 34.9913C104.417 34.6508 103.876 34.3375 103.661 34.6757C103.001 35.7189 102.964 35.6413 103.025 36.0804L104.258 44.9029Z" fill="black"/>
<path id="Vector_14" d="M103.147 35.0726C102.295 33.887 102.295 33.8373 102.146 33.7921C102.086 33.7769 102.023 33.7795 101.965 33.7997C101.907 33.8198 101.856 33.8565 101.818 33.9054C101.781 33.9542 101.758 34.0129 101.754 34.0743C101.75 34.1357 101.763 34.1971 101.793 34.2508C102.642 35.4333 102.645 35.4868 102.794 35.5313C102.854 35.5468 102.917 35.5444 102.975 35.5244C103.034 35.5044 103.085 35.4676 103.122 35.4187C103.16 35.3698 103.182 35.3108 103.187 35.2493C103.191 35.1877 103.177 35.1263 103.147 35.0726ZM118.643 30.1013C118.604 30.0636 118.556 30.0366 118.504 30.0229C118.451 30.0093 118.396 30.0094 118.344 30.0234C118.291 30.0373 118.243 30.0646 118.204 30.1025C118.166 30.1405 118.137 30.1878 118.122 30.2399C118.098 30.3152 117.52 32.1938 117.547 32.1177C117.536 32.1572 117.533 32.1986 117.538 32.2393C117.543 32.28 117.556 32.3193 117.576 32.355C117.597 32.3907 117.624 32.422 117.656 32.4472C117.689 32.4724 117.726 32.4909 117.765 32.5018C117.805 32.5127 117.846 32.5157 117.887 32.5106C117.927 32.5055 117.967 32.4925 118.002 32.4722C118.038 32.4519 118.069 32.4248 118.095 32.3924C118.12 32.36 118.138 32.323 118.149 32.2834L118.57 30.9118C118.899 31.244 119.689 32.0371 119.754 32.1026C119.812 32.1611 119.892 32.194 119.974 32.194C120.057 32.194 120.136 32.1611 120.195 32.1026C120.254 32.0441 120.286 31.9647 120.286 31.8819C120.286 31.7992 120.254 31.7198 120.195 31.6612L118.643 30.1013Z" fill="black"/>
<path id="Vector_15" d="M26.9381 57.2006C26.9818 57.9252 27.164 59.6456 27.3825 60.9712C28.0174 64.888 29.4779 70.8075 32.7687 73.0272C37.3362 76.1079 45.0951 74.4064 50.0083 71.7317C49.6948 69.7013 49.1523 67.7129 48.3912 65.8046C44.9377 66.2129 39.8467 67.1604 36.5416 68.4981C36.4931 68.5302 36.4354 68.5455 36.3774 68.5419C36.3193 68.5382 36.2641 68.5157 36.22 68.4778C36.1795 68.4386 36.1494 68.39 36.1322 68.3363C36.1151 68.2827 36.1114 68.2256 36.1215 68.1702C36.1317 68.1148 36.1553 68.0628 36.1903 68.0187C36.2254 67.9746 36.2707 67.9398 36.3224 67.9174C36.8188 67.7148 37.468 67.4805 38.0721 67.287C36.7811 59.0829 34.3814 51.9613 32.3966 47.9715C32.1805 47.6876 31.9457 47.4183 31.6939 47.1655C31.503 47.4883 31.2493 47.7695 30.9479 47.9925C30.6464 48.2155 30.3034 48.3759 29.9389 48.4641C29.9389 48.4641 29.6195 54.7911 23.7731 52.7695C23.7731 52.7695 20.7888 55.7499 17.4024 54.0062C18.3537 57.2556 19.479 62.7533 18.1925 67.7735C16.2499 75.3562 14.748 78.6583 19.4632 80.6483C24.4464 82.7731 34.7798 82.2948 42.2171 78.2621L39.0536 75.2959C37.971 75.3024 36.8911 75.1872 35.8343 74.9524C32.4546 74.1827 30.1279 72.5082 28.2668 67.2086C27.2066 63.9656 26.5506 60.6043 26.3137 57.2006C26.2903 56.7984 26.914 56.8014 26.9381 57.2006ZM73.6059 12.7759C72.8981 12.3466 72.1319 12.0221 71.3311 11.8126C71.2521 11.7931 71.1685 11.8053 71.0982 11.8465C71.028 11.8877 70.9766 11.9547 70.955 12.0332C70.9334 12.1117 70.9433 12.1956 70.9826 12.2669C71.0219 12.3383 71.0875 12.3914 71.1654 12.4152C71.9145 12.6105 72.6307 12.915 73.291 13.319C73.3622 13.3562 73.4451 13.3646 73.5223 13.3423C73.5995 13.3201 73.6652 13.269 73.7057 13.1996C73.7462 13.1302 73.7584 13.0478 73.7398 12.9696C73.7213 12.8915 73.6733 12.8234 73.6059 12.7797V12.7759ZM70.4589 7.70077C70.387 7.66087 70.3024 7.65028 70.2229 7.67118C70.1433 7.69209 70.0749 7.74289 70.0318 7.813C69.9907 7.88459 69.9794 7.96946 70.0002 8.04934C70.0211 8.12922 70.0725 8.19772 70.1433 8.24007C71.2858 8.77752 72.3397 9.48617 73.2684 10.3415C73.5629 10.6142 74.0058 10.1736 73.7098 9.90016C72.744 9.00638 71.6478 8.26476 70.4589 7.70077ZM74.7033 6.04596C74.6597 5.97642 74.5913 5.92609 74.512 5.90524C74.4326 5.88439 74.3483 5.89457 74.2762 5.93373C74.2052 5.97594 74.1537 6.04444 74.1328 6.12438C74.1119 6.20432 74.1234 6.28926 74.1647 6.3608C74.7055 7.0638 75.2469 7.76479 75.7887 8.46378C75.8323 8.53318 75.9007 8.58338 75.98 8.60422C76.0593 8.62506 76.1436 8.61498 76.2157 8.57601C76.287 8.53405 76.3388 8.46561 76.3599 8.3856C76.3809 8.30559 76.3694 8.22052 76.328 8.14893C75.7872 7.44794 75.2456 6.74695 74.7033 6.04596Z" fill="#B26EE6"/>
<path id="Vector_16" d="M86.7479 15.1319C86.2277 15.0307 85.6889 15.0927 85.2053 15.3093C84.7216 15.5259 84.3166 15.8865 84.0456 16.342C83.7746 16.7974 83.6509 17.3254 83.6913 17.8538C83.7318 18.3822 83.9344 18.8853 84.2714 19.2942C84.6085 19.7031 85.0637 19.998 85.5747 20.1385C86.0857 20.279 86.6276 20.2583 87.1263 20.0792C87.6251 19.9001 88.0564 19.5714 88.3613 19.1379C88.6662 18.7044 88.8298 18.1874 88.8298 17.6574C88.8264 17.0612 88.6174 16.4844 88.2381 16.0243C87.8589 15.5643 87.3325 15.2491 86.7479 15.1319ZM86.6297 19.5473C86.3381 19.6046 86.0372 19.5937 85.7505 19.5153C85.4638 19.437 85.1992 19.2934 84.9772 19.0958C84.7553 18.8982 84.5821 18.6518 84.4712 18.3761C84.3603 18.1004 84.3147 17.8028 84.338 17.5065C84.3613 17.2103 84.4528 16.9234 84.6055 16.6684C84.7581 16.4134 84.9676 16.1972 85.2177 16.0367C85.4678 15.8761 85.7517 15.7756 86.047 15.7431C86.3424 15.7105 86.6414 15.7468 86.9204 15.849C87.3157 15.9931 87.6528 16.2627 87.8803 16.6166C88.1078 16.9705 88.2131 17.3892 88.1802 17.8086C88.1472 18.228 87.9777 18.6251 87.6977 18.939C87.4177 19.253 87.0426 19.4667 86.6297 19.5473Z" fill="#DCBEFF"/>
<path id="Vector_17" d="M86.4848 16.3738C86.2213 16.3271 85.9498 16.3626 85.7073 16.4755C85.4647 16.5885 85.2628 16.7734 85.1289 17.0051C84.9951 17.2368 84.9358 17.5041 84.9592 17.7706C84.9826 18.0372 85.0874 18.2901 85.2595 18.4949C85.4316 18.6998 85.6626 18.8468 85.9212 18.9158C86.1797 18.9848 86.4532 18.9726 86.7045 18.8807C86.9558 18.7889 87.1728 18.6219 87.3259 18.4025C87.479 18.1831 87.5609 17.9218 87.5604 17.6542C87.5583 17.3489 87.4497 17.0539 87.2533 16.8202C87.0569 16.5864 86.7851 16.4285 86.4848 16.3738Z" fill="#DCBEFF"/>
<path id="Vector_18" d="M87.3507 14.6552C86.7123 14.4232 86.0165 14.4006 85.3645 14.5909C84.7124 14.7812 84.1379 15.1744 83.7245 15.7135C83.3111 16.2525 83.0804 16.9093 83.0657 17.5884C83.051 18.2675 83.2532 18.9337 83.6429 19.4901C84.0327 20.0464 84.5896 20.4641 85.2329 20.6824C85.8761 20.9007 86.5722 20.9082 87.2201 20.7039C87.8679 20.4996 88.4338 20.0941 88.8354 19.5463C89.2371 18.9985 89.4537 18.3369 89.4537 17.6576C89.4513 17.0024 89.2485 16.3636 88.8726 15.8269C88.4967 15.2903 87.9657 14.8814 87.3507 14.6552ZM87.1519 20.0701C86.6382 20.2609 86.077 20.2826 85.55 20.1322C85.0231 19.9818 84.558 19.667 84.2223 19.2338C83.8867 18.8007 83.6982 18.2716 83.6842 17.7238C83.6702 17.176 83.8314 16.6381 84.1444 16.1883C84.4574 15.7385 84.9059 15.4004 85.4244 15.2232C85.943 15.0461 86.5046 15.0391 87.0274 15.2033C87.5502 15.3675 88.0069 15.6943 88.331 16.1362C88.6551 16.578 88.8297 17.1118 88.8293 17.6598C88.8245 18.1837 88.6619 18.6939 88.3627 19.1239C88.0634 19.5539 87.6415 19.8836 87.1519 20.0701Z" fill="black"/>
<path id="Vector_19" d="M86.9204 15.849C86.5357 15.7087 86.1162 15.6946 85.7229 15.809C85.3297 15.9234 84.9832 16.1602 84.7337 16.485C84.4843 16.8098 84.3449 17.2056 84.3358 17.6151C84.3268 18.0245 84.4485 18.4262 84.6834 18.7617C84.9182 19.0972 85.2539 19.3491 85.6418 19.4807C86.0296 19.6123 86.4492 19.6169 86.8398 19.4937C87.2304 19.3704 87.5715 19.1259 87.8135 18.7955C88.0556 18.4652 88.186 18.0663 88.1858 17.6567C88.181 17.2631 88.0577 16.8801 87.8319 16.5577C87.6062 16.2352 87.2886 15.9883 86.9204 15.849ZM86.714 18.8792C86.5263 18.9487 86.325 18.974 86.1259 18.9532C85.9268 18.9324 85.7352 18.866 85.5659 18.7591C85.3966 18.6522 85.2543 18.5078 85.1498 18.337C85.0454 18.1662 84.9817 17.9737 84.9637 17.7743C84.9457 17.5749 84.9739 17.3741 85.0461 17.1873C85.1183 17.0006 85.2326 16.833 85.38 16.6976C85.5274 16.5622 85.7041 16.4625 85.8962 16.4064C86.0884 16.3503 86.2909 16.3392 86.488 16.374C86.7695 16.4243 87.0266 16.5657 87.2198 16.7765C87.413 16.9872 87.5315 17.2556 87.5572 17.5404C87.5829 17.8251 87.5143 18.1104 87.3619 18.3523C87.2096 18.5942 86.9819 18.7794 86.714 18.8792ZM83.3743 14.3245C83.4165 14.3266 83.4588 14.32 83.4985 14.3053C83.5382 14.2905 83.5745 14.2679 83.6051 14.2387C83.6358 14.2095 83.6602 14.1744 83.6769 14.1354C83.6936 14.0965 83.7022 14.0546 83.7022 14.0123C83.7022 13.97 83.6936 13.9281 83.6769 13.8891C83.6602 13.8502 83.6358 13.8151 83.6051 13.7859C83.5745 13.7567 83.5382 13.734 83.4985 13.7193C83.4588 13.7045 83.4165 13.698 83.3743 13.7001H81.7006C81.6583 13.698 81.616 13.7045 81.5764 13.7193C81.5367 13.734 81.5004 13.7567 81.4697 13.7859C81.4391 13.8151 81.4146 13.8502 81.398 13.8891C81.3813 13.9281 81.3727 13.97 81.3727 14.0123C81.3727 14.0546 81.3813 14.0965 81.398 14.1354C81.4146 14.1744 81.4391 14.2095 81.4697 14.2387C81.5004 14.2679 81.5367 14.2905 81.5764 14.3053C81.616 14.32 81.6583 14.3266 81.7006 14.3245H83.3743Z" fill="black"/>
<path id="Vector_20" d="M89.3531 15.2455C89.2707 15.2444 89.1921 15.2111 89.1339 15.1529C89.0757 15.0947 89.0424 15.016 89.0413 14.9337V13.1968L79.5259 13.431V21.0521H91.859V15.2455H89.3531ZM81.3886 14.0095C81.3896 13.927 81.4228 13.8481 81.4813 13.7898C81.5397 13.7315 81.6186 13.6984 81.7012 13.6977H83.3748C83.4171 13.6956 83.4594 13.7021 83.4991 13.7169C83.5387 13.7316 83.575 13.7543 83.6057 13.7835C83.6364 13.8127 83.6608 13.8478 83.6775 13.8867C83.6941 13.9256 83.7027 13.9675 83.7027 14.0099C83.7027 14.0522 83.6941 14.0941 83.6775 14.133C83.6608 14.1719 83.6364 14.2071 83.6057 14.2363C83.575 14.2655 83.5387 14.2881 83.4991 14.3029C83.4594 14.3176 83.4171 14.3242 83.3748 14.3221H81.7012C81.6187 14.3207 81.54 14.2874 81.4816 14.229C81.4233 14.1707 81.3899 14.092 81.3886 14.0095ZM86.8788 20.7884C86.2329 20.916 85.5634 20.841 84.9619 20.5735C84.3603 20.3061 83.8561 19.8593 83.5182 19.2943C83.1802 18.7293 83.0251 18.0737 83.0741 17.4172C83.123 16.7607 83.3736 16.1353 83.7915 15.6267C84.2095 15.118 84.7744 14.7509 85.4089 14.5756C86.0435 14.4003 86.7167 14.4253 87.3365 14.6472C87.9563 14.8692 88.4924 15.2772 88.8715 15.8155C89.2505 16.3537 89.454 16.996 89.454 17.6543C89.4468 18.3921 89.1874 19.1053 88.719 19.6754C88.2505 20.2455 87.6012 20.6383 86.8788 20.7884Z" fill="#B26EE6"/>
<path id="Vector_21" d="M89.6647 13.1809V14.6203H91.858V13.1274L89.6647 13.1809Z" fill="#DFE4ED"/>
<path id="Vector_22" d="M80.782 17.4305C80.0805 17.2484 79.3415 17.2703 78.6519 17.4938C77.9454 17.6903 78.1013 17.9246 77.7767 17.853C77.7342 17.8489 77.6933 17.8348 77.6572 17.812C77.6211 17.7892 77.5909 17.7582 77.569 17.7216C77.547 17.685 77.5339 17.6437 77.5307 17.6012C77.5276 17.5586 77.5344 17.5159 77.5507 17.4764C77.6695 17.1572 77.8815 16.8811 78.1593 16.684C78.8571 16.1828 79.6706 15.8666 80.5237 15.7651C80.8472 15.7482 81.164 15.6657 81.4547 15.5226C81.5262 15.4661 81.4705 15.4977 81.5104 15.4473L81.5066 15.4345C81.4938 15.3887 81.4729 15.3456 81.4449 15.3072C81.0555 14.7325 79.4865 14.2617 78.264 14.8711C78.0705 14.9949 77.8794 15.1224 77.6908 15.2537C77.4001 15.4586 77.0446 14.9901 77.3142 14.7633C77.5605 14.5517 78.664 13.8843 78.9457 13.7247C79.4918 13.4182 80.0586 13.1502 80.6419 12.9225C80.7323 12.8554 80.7414 12.814 80.7436 12.7545C80.7288 12.6633 80.6959 12.5759 80.6467 12.4976C80.5976 12.4194 80.5332 12.3518 80.4574 12.2988C80.0875 12.0685 79.6528 11.9647 79.2188 12.0028C78.7848 12.041 78.3749 12.2192 78.0509 12.5105C75.6685 14.5886 75.731 22.1193 75.8447 25.2722C77.5499 25.4309 79.2682 25.3762 80.9598 25.1095L81.2144 21.2636C78.5872 21.2636 79.3464 21.2779 79.2154 21.2636C78.9653 21.2365 78.899 21.061 78.8922 20.8395C78.849 20.4227 78.9099 20.0016 79.0692 19.6141C79.1935 19.4038 79.3639 19.2245 79.5676 19.0897C79.7713 18.9549 80.0029 18.8682 80.245 18.836C80.7338 18.7494 81.2038 18.8857 81.6882 18.8315C82.1401 18.781 82.2493 18.6499 81.9405 18.1732C81.6576 17.7929 81.2457 17.5289 80.782 17.4305Z" fill="#FFCEB6"/>
<path id="Vector_23" d="M103.545 8.97889C102.021 6.92425 99.9735 5.31602 97.6161 4.32176C94.9424 3.4761 92.0538 3.61938 89.4769 4.72548C85.994 6.1709 83.47 9.34044 82.1285 12.7427L81.3663 12.7615C81.3783 11.878 79.9826 10.8853 78.2939 11.6317C74.9835 13.0937 75.0799 21.9568 75.2253 25.5715C75.2276 25.6535 75.2611 25.7315 75.3191 25.7895C75.3771 25.8475 75.4551 25.881 75.5371 25.8833C77.2988 26.0398 79.0721 26.0075 80.827 25.7869C81.8549 30.0861 82.4247 34.482 82.527 38.9012C82.5601 42.7825 82.075 47.9465 79.09 50.4254C78.7887 50.6777 79.2234 51.1236 79.5322 50.8675C84.2443 46.9508 83.3472 36.5285 82.3816 30.4749C82.1677 29.1357 81.84 27.273 81.428 25.6197C81.468 25.59 81.5009 25.5517 81.5242 25.5076C81.5475 25.4636 81.5607 25.4149 81.5628 25.3651C81.6452 24.1374 81.7268 22.9091 81.8076 21.6804H84.1426C84.896 22.1045 85.742 22.3373 86.6064 22.3583C87.209 22.3718 87.8658 22.3809 88.5504 22.3861C87.4813 22.6423 86.4591 23.0647 85.521 23.638C85.2376 23.7479 84.985 23.9248 84.7849 24.1536C84.5847 24.3823 84.4429 24.6561 84.3716 24.9516C84.2766 25.9284 84.4048 26.9141 84.7465 27.8342C85.0882 28.7542 85.6346 29.5846 86.3443 30.2625C87.7046 31.3065 90.5683 31.0828 92.3979 29.2615C92.6991 28.9602 92.6991 28.8096 93.1127 29.1154C94.1893 29.9486 95.3889 30.6092 96.6686 31.0737C97.2984 31.3624 98.0147 31.399 98.6706 31.1762C99.4877 30.7104 100.181 30.055 100.691 29.2652C101.202 28.4753 101.515 27.5743 101.604 26.6381C101.734 25.3877 100.96 24.3106 100.153 23.3412C99.7868 22.8708 99.3308 22.4778 98.8115 22.185C100.215 21.9975 101.555 21.4827 102.723 20.6823C103.892 19.8819 104.855 18.8181 105.537 17.5769C107.038 14.6966 105.357 11.2754 103.545 8.97889ZM75.8437 25.2762C75.7292 22.1278 75.6674 14.5911 78.0498 12.5145C78.3739 12.2233 78.7838 12.0452 79.2178 12.0071C79.6518 11.9689 80.0864 12.0727 80.4564 12.3028C80.5321 12.3558 80.5964 12.4235 80.6456 12.5017C80.6947 12.58 80.7277 12.6673 80.7426 12.7585C80.7426 12.818 80.7313 12.8595 80.6409 12.9265C80.058 13.1553 79.4913 13.4233 78.9447 13.7287C78.6615 13.8899 77.5572 14.5572 77.3132 14.7674C77.0443 14.9933 77.4006 15.4626 77.6898 15.2577C77.8773 15.1259 78.0664 15.0001 78.263 14.8751C79.6037 14.2062 81.3331 14.8434 81.5094 15.4513C81.4694 15.5002 81.5244 15.4679 81.4536 15.5266C81.1631 15.67 80.8463 15.7525 80.5227 15.7691C79.6696 15.8711 78.8563 16.1872 78.1583 16.6881C77.8805 16.8851 77.6684 17.1612 77.5497 17.4804C77.5344 17.5167 77.5273 17.5558 77.5289 17.5951C77.5304 17.6344 77.5407 17.6728 77.5588 17.7077C77.5769 17.7426 77.6025 17.773 77.6337 17.7969C77.665 17.8208 77.7011 17.8374 77.7395 17.8458C78.0905 17.958 77.9045 17.7019 78.6494 17.4955C79.3389 17.2719 80.0779 17.2499 80.7795 17.4322C81.2439 17.5311 81.656 17.7966 81.938 18.1787C82.246 18.6532 82.1368 18.7865 81.6856 18.837C81.2013 18.8905 80.7313 18.7549 80.2425 18.8415C80.0004 18.8738 79.7688 18.9606 79.5651 19.0954C79.3615 19.2302 79.191 19.4094 79.0667 19.6196C78.9069 20.0071 78.8461 20.4282 78.8897 20.8451C78.8965 21.0665 78.965 21.242 79.2128 21.2691C79.2881 21.2767 81.1463 21.2691 81.2118 21.2691L80.9573 25.115C79.266 25.3807 77.5483 25.4348 75.8437 25.2762ZM81.8521 21.0522L81.8589 20.955C81.8577 20.8726 81.8244 20.7938 81.766 20.7356C81.7076 20.6773 81.6287 20.6442 81.5463 20.6432H79.5179C79.5152 20.4779 79.5227 20.3127 79.5405 20.1483C79.5765 19.9811 79.6616 19.8285 79.7847 19.7098C79.9078 19.5911 80.0635 19.5117 80.2319 19.4817C80.9173 19.2964 81.6758 19.664 82.3243 19.2867C83.1024 18.8347 82.5947 17.8375 82.0743 17.3983C81.6914 17.1128 81.2559 16.9054 80.7929 16.7882C80.3298 16.671 79.8482 16.6462 79.3755 16.7152C80.0347 16.5175 80.7049 16.3591 81.3828 16.2407C81.9575 16.0591 82.362 15.5394 81.9673 14.9715C81.694 14.6647 81.3601 14.418 80.9866 14.2468C80.613 14.0757 80.2081 13.9839 79.7973 13.9772C80.4549 13.6413 80.8119 13.5713 81.0491 13.3935L89.0408 13.1969V14.9338C89.0419 15.0162 89.0752 15.0948 89.1334 15.153C89.1916 15.2113 89.2703 15.2445 89.3526 15.2457H91.8586V21.0522H81.8521ZM89.6652 14.6212V13.1811L91.8586 13.1269V14.6205L89.6652 14.6212ZM91.784 28.9851C91.2626 29.4546 90.6464 29.8067 89.9772 30.0176C89.308 30.2285 88.6013 30.2933 87.9049 30.2075C87.3022 30.1444 86.7458 29.855 86.348 29.3978C85.5401 28.411 85.0564 27.1989 84.9629 25.927C84.9101 25.1843 84.9448 24.6759 85.5556 24.3264C86.1305 23.9948 86.722 23.6932 87.328 23.4226C87.8631 23.1672 88.4396 23.0098 89.0302 22.9578C88.9895 23.7866 89.0081 24.6173 89.086 25.4434C89.2188 26.2152 89.5737 26.9315 90.1074 27.5046C90.641 28.0777 91.3302 28.4828 92.0905 28.6702C91.9874 28.7772 91.8917 28.8894 91.784 28.9851ZM91.3946 27.7385C90.731 27.3691 90.2096 26.7888 89.913 26.0897C89.5658 25.2612 89.6516 24.4974 89.6546 21.6374C90.7156 22.298 91.9436 22.6406 93.1932 22.6247C94.4428 22.6088 95.6617 22.2351 96.7055 21.5478V24.7663C96.7073 25.2105 96.6214 25.6507 96.4527 26.0617C96.284 26.4726 96.0359 26.8463 95.7226 27.1611C95.4092 27.476 95.0368 27.726 94.6267 27.8966C94.2166 28.0673 93.7768 28.1554 93.3326 28.1558C92.6612 28.1891 91.9928 28.0452 91.3946 27.7385ZM99.5692 23.6056C99.9281 24.0239 100.257 24.4668 100.554 24.9313C100.813 25.3244 100.967 25.7768 101.003 26.2462C101.039 26.7155 100.955 27.1863 100.759 27.6142C100.429 28.7325 99.7393 29.7106 98.7964 30.3966C98.5541 30.5751 98.2673 30.6836 97.9675 30.7101C97.6677 30.7367 97.3664 30.6804 97.0964 30.5472C95.8631 30.1541 94.7075 29.5496 93.6813 28.7606C94.4598 28.6869 95.2001 28.3891 95.8128 27.9033C96.4254 27.4175 96.8841 26.7645 97.1333 26.0234C97.4052 25.2009 97.3307 24.4718 97.3307 22.4886C97.7654 22.4856 98.1946 22.5852 98.5836 22.7793C98.9726 22.9734 99.3102 23.2565 99.5692 23.6056ZM100.017 15.7676C99.9369 15.7461 99.8518 15.7568 99.7799 15.7976C99.708 15.8383 99.655 15.9058 99.6325 15.9853C98.804 20.36 94.891 22.9556 91.2025 21.6826C92.5297 21.6744 92.3323 21.6435 92.4076 21.5644C92.5289 21.4296 92.483 21.9794 92.483 12.8075C92.482 12.7251 92.4488 12.6463 92.3906 12.5881C92.3323 12.5298 92.2535 12.4966 92.1711 12.4957L86.6395 12.632C86.8209 11.7928 87.1382 10.9888 87.5788 10.2518C87.6918 10.7324 87.9328 11.0932 88.4261 11.1512C88.2684 11.2594 88.1213 11.3825 87.987 11.5187C87.9319 11.578 87.9019 11.6563 87.9033 11.7372C87.9048 11.8181 87.9375 11.8953 87.9946 11.9525C88.0518 12.0098 88.129 12.0426 88.2098 12.0442C88.2907 12.0458 88.3691 12.0159 88.4284 11.9609C88.6716 11.7021 88.971 11.5028 89.3035 11.3783C89.6361 11.2538 89.9928 11.2075 90.3461 11.2431C90.3348 11.2468 90.6963 11.3229 90.7784 11.0291C90.7996 10.9493 90.7885 10.8643 90.7477 10.7925C90.7068 10.7206 90.6395 10.6677 90.56 10.645C90.3765 10.6113 90.1897 10.5989 90.0034 10.6081C91.1073 9.85635 92.1317 8.99398 93.0607 8.03436C92.6969 9.45568 92.7255 10.9787 94.1604 10.6955C94.7671 10.519 95.3289 10.2143 95.8078 9.80218C96.2868 9.39002 96.6718 8.8799 96.9367 8.30627L96.9819 8.34092C97.1145 10.2789 97.7608 12.8429 99.6935 12.8429C99.9128 12.8498 100.129 12.7911 100.315 12.6744C100.501 12.5577 100.648 12.3882 100.737 12.1876C100.959 12.147 101.187 12.1523 101.408 12.2032C101.628 12.2541 101.835 12.3496 102.017 12.4836C103.528 13.7882 101.828 16.3446 100.017 15.7676ZM23.1283 122.983C22.4331 123.723 22.455 125.177 22.4391 126.075C22.4226 128.828 22.7647 131.572 23.4567 134.236C23.6767 135.103 25.1078 141.382 26.4636 141.325C27.4156 141.284 30.9256 126.665 28.8618 124.001C27.6755 122.462 24.3425 121.683 23.1283 122.983ZM23.7731 52.7694C29.6195 54.7888 29.9389 48.464 29.9389 48.464C32.1737 47.9239 32.7951 44.9435 31.9221 43.0408C35.4502 40.7706 35.3116 34.3962 34.5998 30.2618C37.3362 30.1518 38.3486 27.8146 37.4861 26.4588C37.1727 25.9635 36.7117 25.5792 36.1682 25.36C35.6246 25.1408 35.026 25.0978 34.4567 25.2371C34.4567 25.2371 35.4133 23.748 33.5001 21.8883C31.5869 20.0286 28.1312 21.1968 28.1312 21.1968C26.1653 20.3472 21.3816 19.9216 17.6615 24.3332C13.9413 28.7448 16.4948 32.3075 15.5909 35.868C14.687 39.4284 13.5708 37.8873 11.339 40.7044C9.10721 43.5214 12.0832 45.6477 12.0832 45.6477C11.5088 46.1508 11.0963 46.8128 10.8977 47.55C10.699 48.2873 10.7231 49.0668 10.9669 49.7904C11.7638 52.4478 15.8033 52.8198 15.8033 52.8198C16.2729 53.2941 16.8122 53.6938 17.4024 54.0054C20.7881 55.7499 23.7731 52.7694 23.7731 52.7694ZM32.8064 41.3514C32.358 40.9329 32.0195 40.4105 31.8206 39.8303C31.6218 39.2502 31.5687 38.63 31.666 38.0244C32.2504 38.6331 32.9978 39.0604 33.8187 39.2552C33.6023 40.0061 33.26 40.7149 32.8064 41.3514ZM28.5568 33.0509C29.832 32.6788 29.9389 34.3796 29.9389 34.3796C32.4366 32.8385 31.7466 29.7029 31.7466 29.7029C32.4555 29.9944 33.2039 30.1784 33.9671 30.249C34.5027 33.0247 34.5126 35.8762 33.9965 38.6556C33.54 38.5755 33.1071 38.3947 32.7292 38.1263C32.3514 37.8579 32.0381 37.5087 31.8122 37.104C31.7925 37.0394 31.7527 36.9827 31.6984 36.9425C31.6442 36.9023 31.5784 36.8805 31.5109 36.8805C31.4433 36.8805 31.3776 36.9023 31.3233 36.9425C31.2691 36.9827 31.2292 37.0394 31.2096 37.104C31.0472 37.7086 30.9886 38.3364 31.0363 38.9607C31.0572 39.5062 31.1898 40.0417 31.4258 40.534C31.6619 41.0263 31.9964 41.465 32.4087 41.8229C32.1674 42.0808 31.897 42.3099 31.6028 42.5053C31.4571 42.2931 31.2651 42.1169 31.0413 41.9898C30.8176 41.8627 30.5678 41.7881 30.311 41.7717C27.8126 41.6647 28.5568 37.9446 28.5568 37.9446C26.2715 37.0377 27.2808 33.423 28.5568 33.0509Z" fill="black"/>
<path id="Vector_24" d="M33.3268 35.2035C33.4827 35.2338 33.6442 35.2151 33.7891 35.1502C33.934 35.0852 34.0554 34.9771 34.1366 34.8406C34.2178 34.7041 34.2548 34.5459 34.2427 34.3875C34.2306 34.2292 34.1699 34.0784 34.0689 33.9558C33.9679 33.8333 33.8315 33.7449 33.6784 33.7027C33.5253 33.6606 33.3629 33.6667 33.2134 33.7203C33.0639 33.7739 32.9345 33.8724 32.8431 34.0022C32.7516 34.132 32.7025 34.287 32.7024 34.4458C32.6864 34.6287 32.7428 34.8106 32.8596 34.9524C32.9764 35.0941 33.1442 35.1843 33.3268 35.2035ZM39.1665 54.3902L38.4133 57.2584C38.3921 57.3381 38.4032 57.4229 38.4441 57.4943C38.4851 57.5658 38.5527 57.6182 38.6321 57.6402C38.7115 57.6621 38.7964 57.6518 38.8683 57.6115C38.9401 57.5712 38.9932 57.5041 39.0158 57.4249C39.2669 56.4708 39.518 55.5147 39.7691 54.5567C39.7903 54.477 39.7792 54.3923 39.7382 54.3208C39.6972 54.2493 39.6297 54.1969 39.5502 54.1749C39.4708 54.153 39.3859 54.1633 39.3141 54.2036C39.2422 54.2439 39.1892 54.311 39.1665 54.3902ZM40.1668 56.399C40.087 56.3787 40.0025 56.39 39.9309 56.4305C39.8593 56.4711 39.8061 56.5378 39.7826 56.6167C39.44 57.4732 39.2001 58.3672 39.0678 59.2801C39.0486 59.3599 39.0605 59.444 39.1011 59.5153C39.1417 59.5867 39.2079 59.6399 39.2862 59.6642C39.3661 59.6855 39.4512 59.6746 39.5231 59.6337C39.5949 59.5928 39.6479 59.5253 39.6704 59.4458C39.8026 58.5329 40.0422 57.639 40.3844 56.7824C40.406 56.7027 40.3952 56.6177 40.3544 56.546C40.3137 56.4742 40.2462 56.4214 40.1668 56.399ZM47.5739 60.1162C47.4945 60.139 47.4273 60.192 47.3865 60.2638C47.3457 60.3355 47.3345 60.4204 47.3555 60.5003C47.5317 61.1343 47.5756 61.7979 47.4842 62.4496C47.4842 62.4907 47.4923 62.5313 47.508 62.5692C47.5238 62.6072 47.5468 62.6416 47.5758 62.6706C47.6048 62.6997 47.6393 62.7227 47.6772 62.7384C47.7151 62.7541 47.7558 62.7622 47.7968 62.7622C47.8788 62.7595 47.9567 62.7257 48.0147 62.6677C48.0726 62.6096 48.1062 62.5316 48.1087 62.4496C48.2017 61.7414 48.1504 61.0217 47.958 60.3338C47.9347 60.2548 47.8816 60.188 47.8099 60.1474C47.7383 60.1068 47.6536 60.0956 47.5739 60.1162ZM48.7497 59.3705C48.6706 59.3938 48.6037 59.4469 48.563 59.5185C48.5223 59.5901 48.5109 59.6748 48.5312 59.7546C48.6882 60.3535 48.7467 60.974 48.7045 61.5917C48.7049 61.6744 48.7379 61.7536 48.7965 61.812C48.8551 61.8704 48.9343 61.9033 49.017 61.9035C49.0992 61.9018 49.1775 61.8684 49.2356 61.8103C49.2937 61.7522 49.3271 61.6739 49.3289 61.5917C49.3697 60.918 49.3039 60.2421 49.1338 59.5889C49.1109 59.5096 49.058 59.4423 48.9862 59.4015C48.9144 59.3607 48.8295 59.3495 48.7497 59.3705ZM46.6489 77.5885C45.8458 77.3937 45.0947 77.0261 44.448 76.5114C44.3463 76.4316 44.2417 76.3562 44.1467 76.2696L44.1332 76.2583C44.0952 76.2199 44.0477 76.1922 43.9955 76.178C43.9434 76.1638 43.8884 76.1636 43.8361 76.1774C43.7839 76.1912 43.7362 76.2186 43.6979 76.2567C43.6596 76.2949 43.632 76.3425 43.618 76.3947C43.6027 76.444 43.6003 76.4965 43.6111 76.547C43.622 76.5975 43.6456 76.6444 43.6798 76.6831L43.6918 76.6997C44.4826 77.4232 45.4428 77.9358 46.484 78.1903C46.8734 78.2845 47.0399 77.6827 46.6489 77.5885ZM48.1501 77.1087C47.3561 76.914 46.6282 76.5115 46.0411 75.9427C45.9819 75.8876 45.9036 75.8576 45.8227 75.859C45.7418 75.8605 45.6646 75.8932 45.6073 75.9504C45.5501 76.0075 45.5172 76.0847 45.5156 76.1655C45.5141 76.2464 45.5439 76.3248 45.5989 76.3841C46.2571 77.0362 47.0818 77.495 47.9829 77.7105C48.0224 77.7214 48.0638 77.7244 48.1045 77.7193C48.1452 77.7142 48.1845 77.7011 48.2202 77.6809C48.2559 77.6606 48.2872 77.6335 48.3124 77.6011C48.3376 77.5687 48.3561 77.5317 48.367 77.4921C48.3779 77.4525 48.3809 77.4112 48.3758 77.3705C48.3707 77.3298 48.3576 77.2905 48.3374 77.2548C48.3171 77.2191 48.29 77.1878 48.2576 77.1626C48.2252 77.1374 48.1882 77.1188 48.1486 77.108L48.1501 77.1087ZM49.3854 74.7858C49.3068 74.8098 49.2404 74.863 49.1997 74.9344C49.1591 75.0058 49.1474 75.0901 49.1669 75.1699C49.2609 75.6694 49.2822 76.1798 49.2302 76.6854V76.6959C49.2329 76.7765 49.2668 76.853 49.3246 76.9091C49.3825 76.9653 49.4599 76.9969 49.5405 76.9972C49.6222 76.9937 49.6996 76.9598 49.7574 76.9021C49.8153 76.8443 49.8494 76.767 49.8531 76.6854C49.9053 76.1236 49.8767 75.5572 49.768 75.0035C49.7451 74.9245 49.6924 74.8576 49.6209 74.8169C49.5494 74.7762 49.4649 74.7651 49.3854 74.7858Z" fill="black"/>
<path id="Vector_25" d="M69.5205 87.2756C68.8178 86.0704 67.8574 85.2517 66.5724 85.7789C66.0843 86.0215 65.6707 86.3911 65.3749 86.8489C65.0792 87.3068 64.9124 87.8359 64.892 88.3805C64.8408 89.1676 65.0524 90.479 64.358 90.7034C62.4907 91.306 61.1651 83.813 60.8502 81.869C60.7485 80.9378 60.4292 80.0435 59.9182 79.2585C59.4071 78.4734 58.7186 77.8195 57.9082 77.3497C56.7878 76.6998 55.5516 76.2744 54.2686 76.0971C53.8952 76.0897 53.525 76.0262 53.1705 75.9088C52.5197 75.5728 52.8255 74.5937 52.8805 74.0069C52.9829 72.9042 53.0145 72.2029 53.0454 71.5258C54.1295 71.1931 55.1326 70.6388 55.9912 69.8981C56.4681 69.5551 56.7996 69.0463 56.9207 68.4715C56.9621 67.7371 56.1298 67.6708 55.5935 67.7349C55.4346 67.7545 55.2764 67.7808 55.119 67.8102C55.559 67.349 55.9065 66.8077 56.1426 66.2156C56.2691 65.9574 56.2961 65.6616 56.2184 65.3848C56.1408 65.1079 55.9639 64.8693 55.7216 64.7145C55.3836 64.6168 55.029 64.5902 54.6802 64.6362C54.3314 64.6822 53.9958 64.7999 53.6947 64.9819C53.8164 64.7296 53.9152 64.467 53.99 64.197C54.1474 63.6057 54.0954 62.6846 53.3068 62.6514C53.151 62.6468 52.9952 62.6627 52.8436 62.6989C52.6646 60.5181 52.3881 58.3464 52.015 56.1903C53.07 56.4837 54.0491 57.0019 54.8848 57.7096C54.9444 57.766 55.0234 57.7975 55.1055 57.7975C55.1876 57.7975 55.2666 57.766 55.3262 57.7096C55.3841 57.6506 55.4165 57.5712 55.4165 57.4885C55.4165 57.4058 55.3841 57.3264 55.3262 57.2674C54.3405 56.4263 53.1685 55.8324 51.9073 55.535C51.8712 55.3309 51.832 55.1268 51.7981 54.9227C53.8163 54.7312 55.8501 55.0547 57.7093 55.8627C58.0859 56.0065 58.2479 55.4032 57.8758 55.2601C56.4694 54.7038 54.9858 54.3672 53.477 54.2621C52.9044 54.2142 52.328 54.2354 51.7604 54.3254C51.736 54.3319 51.7124 54.3415 51.6904 54.354C51.6429 54.1077 51.5955 53.8614 51.5458 53.6151C53.3562 52.9981 55.2814 52.7922 57.1813 53.0125C57.5813 53.0479 57.5783 52.4227 57.1813 52.3873C55.2411 52.1707 53.277 52.3763 51.4237 52.9899C51.2965 52.3926 51.2249 53.2852 52.6033 42.4946C52.6349 42.2438 52.3193 42.1255 52.1333 42.2249C50.3581 43.2947 48.7514 44.6218 47.3654 46.1628C46.639 46.96 45.9633 47.802 45.3423 48.6838L43.7063 48.4834L42.9621 39.4591C42.9603 39.3982 42.9409 39.3391 42.9063 39.2889C42.8716 39.2387 42.8232 39.1996 42.7669 39.1763C42.7105 39.1529 42.6486 39.1464 42.5887 39.1574C42.5287 39.1685 42.4732 39.1966 42.4288 39.2384C40.8246 40.9888 39.5048 42.9799 38.5174 45.1391C37.8875 46.5434 37.448 48.0256 37.2106 49.5462C36.7752 51.7177 36.4573 53.1616 36.0589 55.7761C35.1487 52.7368 33.9792 49.7814 32.5632 46.9423C32.3689 46.5906 31.8296 46.9047 32.0239 47.2572C33.858 50.5939 36.6472 58.2391 38.0707 67.2867C37.5141 67.4645 36.9627 67.6633 36.4204 67.878C36.3255 67.9179 36.2088 67.9412 36.1455 68.0866C36.0393 68.3239 36.2208 68.6259 36.4867 68.519C39.6457 67.1963 45.0636 66.1976 48.3875 65.8074C49.1489 67.7156 49.6914 69.704 50.0047 71.7344C46.3087 73.7463 41.2485 75.1089 37.0915 74.5507C32.6521 73.9527 30.6719 71.7977 29.0901 67.6596C27.8948 64.2897 27.1694 60.7712 26.9344 57.2034C26.9111 56.8042 26.2867 56.8012 26.31 57.2034C26.5434 60.6075 27.1995 63.9693 28.2631 67.2114C30.1273 72.5073 32.4532 74.1824 35.8352 74.9522C36.892 75.1869 37.9719 75.3021 39.0544 75.2957C42.0236 78.1481 41.8361 78.0359 42.7625 78.6279C44.9354 79.9277 47.4449 80.5542 49.9738 80.4281C52.2169 80.3678 54.4652 79.232 55.0957 84.0375C51.2889 81.6023 45.2285 83.0749 41.0007 83.9426C40.0148 84.1452 38.8548 84.5233 37.8749 84.1211C36.5771 83.5886 36.1749 81.9737 36.0815 80.6781C35.8728 80.7354 35.6634 80.7919 35.4541 80.8446C35.6243 82.9295 36.6208 84.8419 38.7034 84.9157C40.9239 84.9948 49.8179 81.6694 54.5541 84.46C54.779 84.5886 54.9929 84.7355 55.1936 84.8992C55.3909 86.8658 55.4678 89.0961 56.2157 91.1765C55.7638 97.0659 53.3354 106.241 49.8284 114.827C48.3785 108.405 47.0122 102.373 46.2469 98.9429C47.4995 94.4627 48.4312 91.1283 48.4493 91.0755C48.5118 90.8624 48.2911 90.6048 48.0652 90.6914C46.4282 91.2832 44.7454 91.7395 43.0337 92.0555C38.9814 92.8879 34.8319 93.1437 30.708 92.8155C27.5008 92.5488 24.0579 91.993 21.8766 89.3846C19.974 87.1091 19.6019 83.7415 20.0689 80.88C19.8015 80.7843 19.7887 80.7828 19.4663 80.6458C19.3396 81.4134 19.2738 82.1899 19.2697 82.9679C19.1724 85.1756 19.7661 87.3586 20.9682 89.2128C18.9196 89.2106 16.9416 89.9611 15.4102 91.3218C14.4798 92.2516 13.7273 93.3436 13.1897 94.5441C12.9291 95.0849 12.3424 96.3646 12.4629 96.9672C12.8169 98.7448 17.8574 99.3775 19.6779 99.5899C19.3397 102.579 15.0404 141.193 15.014 141.473C14.9749 141.873 15.5993 141.87 15.6377 141.473C15.9021 138.755 19.9822 102.554 20.3076 99.6599C23.8656 99.9988 27.442 100.104 31.0138 99.9755C30.9619 101.084 30.2606 120.153 30.174 124.095C30.0422 129.895 29.8509 140.808 30.3194 146.576C30.351 146.973 30.9754 146.977 30.943 146.576C30.6975 143.532 30.6659 140.468 30.6508 137.416C30.6305 133.475 30.9641 117.6 31.0982 113.604C31.2052 110.454 31.6315 100.356 31.6413 99.9537C35.5181 99.7978 40.31 99.4151 44.0016 98.2454C44.3834 98.1249 44.22 97.5216 43.8358 97.6428C36.4393 99.9838 16.9754 100.087 13.3841 97.2579C12.9803 96.9401 13.0549 96.7156 13.1107 96.4964C13.4462 95.3235 13.971 94.2131 14.6645 93.2094C17.3113 94.5486 21.4028 95.2355 24.3584 95.4879C31.0033 96.0543 38.0361 95.1904 44.5333 93.7811C44.9257 93.696 44.7593 93.0934 44.3669 93.1785C38.1007 94.6405 31.6626 95.2296 25.2352 94.929C22.0752 94.7712 18.9547 94.157 15.9706 93.1055C15.6859 92.9947 15.298 92.8343 15.0261 92.6942C15.6695 91.84 16.4972 91.1417 17.4475 90.6513C18.3979 90.1609 19.4465 89.8909 20.5155 89.8614C20.7181 89.8568 21.0601 89.8546 21.4585 89.8531C23.2595 91.9741 25.7647 92.8177 28.5064 93.1966C32.9085 93.7803 37.3738 93.6899 41.7487 92.9284C43.7526 92.5869 45.7317 92.1125 47.6727 91.5086C46.9278 94.0515 40.1805 118.172 39.7798 119.72C39.425 121.092 38.418 125.077 38.1837 126.474C37.5701 126.603 37.0127 126.922 36.5899 127.385C35.8781 128.229 36.2984 129.749 36.562 130.8C37.2649 133.462 38.3113 136.022 39.6751 138.414C40.1134 139.192 43.1338 144.881 44.4271 144.471C45.0779 144.265 45.044 136.458 43.9752 131.318C44.4943 131.298 45.0076 131.202 45.4989 131.033C46.0595 130.859 46.5431 130.497 46.869 130.009C48.3695 127.44 49.6639 124.755 50.7398 121.981C52.8579 131.5 54.7929 140.198 54.8072 140.284C54.8765 140.679 55.4776 140.51 55.4098 140.117C55.0896 138.286 53.2179 129.881 51.1918 120.892C54.4306 113.037 58.2999 102.191 59.8643 95.3787C62.8342 96.8535 67.3964 96.9393 69.4143 94.2662C70.8966 92.301 70.7211 89.3311 69.5205 87.2756ZM38.6703 67.1029C38.1475 63.755 37.4165 60.443 36.4814 57.1861C36.8008 54.7502 37.2015 52.7203 37.6828 50.3589C37.8926 49.1218 38.1868 47.9005 38.5633 46.7036C39.4204 44.3149 40.7226 42.1105 42.401 40.2071C42.6043 42.6776 43.0789 48.3802 43.106 48.7598C43.109 48.8418 43.1429 48.9196 43.2008 48.9776C43.2588 49.0355 43.3366 49.0694 43.4186 49.0724L45.4861 49.3255C45.5403 49.3261 45.5937 49.3124 45.641 49.286C45.6883 49.2596 45.7279 49.2213 45.7558 49.1749C47.3853 46.7653 49.4732 44.7001 51.9005 43.0972C50.5892 53.4381 50.6954 52.5018 50.712 52.6434C51.4522 56.0272 51.9633 59.4571 52.2417 62.9098C50.9252 63.556 49.6654 64.3119 48.4757 65.1694C45.1587 65.5376 41.8787 66.1843 38.6703 67.1029ZM48.9743 65.5852C50.1975 64.6822 51.5243 63.9287 52.9264 63.3406C53.3173 63.2329 53.5425 63.2171 53.4303 63.8679C53.2692 64.4834 52.9977 65.0645 52.6289 65.5829C52.4474 65.8451 52.8051 66.1637 53.0552 66.01C53.7107 65.5644 54.4695 65.2942 55.2591 65.2252C56.3136 65.3585 54.8825 67.121 54.5865 67.4479C54.3374 67.7235 54.0728 67.9848 53.7941 68.2305C53.7473 68.2796 53.7176 68.3425 53.7096 68.4099C53.7015 68.4773 53.7155 68.5455 53.7494 68.6042C53.7834 68.663 53.8354 68.7092 53.8978 68.7359C53.9601 68.7626 54.0295 68.7684 54.0954 68.7525C54.7582 68.4853 55.4672 68.3511 56.1818 68.3578C56.395 68.406 56.2654 68.6237 56.1065 68.8526C55.4007 69.8996 53.1765 71.2072 50.5741 71.3616C50.2718 69.3795 49.7347 67.4404 48.9743 65.5852ZM42.2179 127.123C41.219 126.486 40.0291 126.217 38.8533 126.363C39.3851 123.394 40.3379 120.085 45.8906 100.216C46.6212 103.497 47.9612 109.51 49.3833 115.9C47.6303 120.175 45.4898 124.281 42.9885 128.165C42.8121 127.764 42.5489 127.408 42.2179 127.121V127.123ZM46.0044 130.086C45.7841 130.243 45.542 130.366 45.2858 130.451C44.8175 130.605 44.3293 130.689 43.8366 130.702C43.6878 130.047 43.4937 129.402 43.2559 128.773C43.321 128.753 43.3773 128.711 43.4155 128.654C45.8258 124.943 47.9008 121.024 49.616 116.944L50.5093 120.957C48.6045 125.582 46.924 129.168 46.0044 130.084V130.086ZM50.959 119.854L50.0649 115.889C53.4642 107.774 56.0108 98.8442 56.7211 92.3372C57.2968 93.476 58.1899 94.4238 59.2926 95.0661C57.9895 100.892 54.2438 111.725 50.959 119.852V119.854ZM69.1439 93.5491C67.419 96.4271 62.5849 96.2313 59.7159 94.5848C54.4577 91.596 56.993 83.8959 54.6626 80.8009C54.3731 80.4197 53.9952 80.1145 53.5615 79.9118C53.1278 79.7091 52.6514 79.6148 52.1732 79.6372C50.8691 79.7955 49.5535 79.8359 48.2422 79.7577C46.0489 79.6179 43.9488 78.8196 42.2164 77.4672C42.172 77.4303 40.0449 75.5623 39.7835 75.2828C43.5422 75.0605 47.2035 73.9996 50.4988 72.1781C50.5726 72.1353 50.6267 72.0653 50.6494 71.983C51.2447 71.9454 51.8354 71.8542 52.4142 71.7103C52.3781 72.4267 52.3344 73.1415 52.2704 73.8548C52.1061 74.5028 52.1061 75.1816 52.2704 75.8297C52.6899 76.7117 53.7067 76.6213 54.524 76.7757C56.2788 77.0182 57.8934 77.8672 59.0877 79.1755C59.6952 79.9543 60.085 80.8804 60.2175 81.8592C60.5798 84.0842 61.675 90.7532 63.8149 91.3271C64.1335 91.4062 64.4702 91.3613 64.7569 91.2014C65.0436 91.0416 65.2588 90.7788 65.359 90.4662C65.701 89.5013 65.2882 88.6457 65.7303 87.549C66.2214 86.3318 67.3874 85.7849 68.338 86.7347C69.1368 87.6606 69.6403 88.8042 69.784 90.0186C69.9276 91.2329 69.7047 92.4625 69.1439 93.5491Z" fill="black"/>
<path id="Vector_26" d="M26.9299 24.1266C26.8126 24.0801 26.6841 24.0696 26.5608 24.0964C26.4375 24.1233 26.325 24.1862 26.2377 24.2773C25.6163 24.7458 25.7504 25.4658 26.0554 26.1204C26.5689 27.1453 27.2522 28.0758 28.0763 28.8726C28.1323 27.5399 27.9397 26.2084 27.5084 24.9461C27.4066 24.6189 27.2042 24.3321 26.9299 24.1266ZM26.5224 28.2836C26.1255 27.9454 25.1877 27.2103 24.7034 27.4008C24.6858 27.4103 24.6687 27.4206 24.6522 27.4317C24.5762 27.4968 24.5247 27.5858 24.5061 27.6841C24.4356 27.862 24.4385 28.0606 24.5141 28.2364C24.5898 28.4121 24.7321 28.5507 24.9098 28.6218C25.7307 29.0176 26.6247 29.239 27.5355 29.2718C27.2169 28.9234 26.8787 28.5934 26.5224 28.2836ZM29.713 27.8626C30.0452 27.4732 30.7954 26.5151 30.595 26.0443C30.5651 25.9926 30.5243 25.9482 30.4754 25.9139C30.4264 25.8797 30.3706 25.8566 30.3118 25.8462C30.1619 25.7834 29.9945 25.776 29.8396 25.8254C29.6848 25.8748 29.5526 25.9778 29.4667 26.1159C29.3143 26.3309 29.1959 26.5682 29.1157 26.8194C28.896 27.4849 28.7653 28.1766 28.7271 28.8764C29.0747 28.5575 29.4039 28.219 29.713 27.8626Z" fill="#F55555"/>
<path id="Vector_27" d="M28.5034 29.4506C28.3638 29.4523 28.2303 29.5083 28.1312 29.6067C28.0321 29.7051 27.9751 29.8382 27.9724 29.9778C27.9724 30.1187 28.0283 30.2539 28.1279 30.3536C28.2275 30.4533 28.3625 30.5094 28.5034 30.5096C28.6439 30.5096 28.7785 30.4538 28.8778 30.3545C28.9772 30.2552 29.0329 30.1205 29.0329 29.9801C29.0329 29.8396 28.9772 29.705 28.8778 29.6057C28.7785 29.5064 28.6439 29.4506 28.5034 29.4506Z" fill="#FFD35C"/>
<path id="Vector_28" d="M24.4992 28.2032C24.4563 28.0725 24.4477 27.9329 24.474 27.7979C24.5004 27.6629 24.5609 27.5369 24.6498 27.4319C24.9835 27.2059 25.7096 27.5938 26.5201 28.2838C26.8759 28.5933 27.2141 28.9224 27.5332 29.2697C26.7099 29.2148 24.8555 28.9511 24.4992 28.2032ZM26.0553 26.1205C25.4799 24.8853 26.0493 24.1705 26.6624 24.0748C27.0594 24.013 27.3584 24.5689 27.5083 24.9463C27.94 26.2085 28.1326 27.54 28.0762 28.8728C27.2526 28.0756 26.5694 27.1451 26.0553 26.1205ZM30.6244 26.2049C30.6244 27.0191 29.3205 28.3214 28.727 28.8766C28.7585 27.9659 28.9791 27.0717 29.3748 26.2508C29.4454 26.0733 29.5835 25.931 29.7589 25.8552C29.9343 25.7794 30.1326 25.7762 30.3103 25.8464C30.5174 25.9104 30.6244 25.9932 30.6244 26.2049Z" fill="#F55555"/>
</g>
</svg>
