<svg width="151" height="151" viewBox="0 0 151 151" fill="none" xmlns="http://www.w3.org/2000/svg">
<g id="Be-Patient-1--Streamline-Barcelona">
<path id="Vector" d="M128.578 115.914C126.362 114.57 123.878 113.729 121.301 113.451C118.463 113.03 115.595 112.852 112.728 112.918C112.01 112.978 111.298 113.097 110.599 113.274C110.526 113.302 110.466 113.356 110.431 113.426C110.396 113.496 110.388 113.576 110.409 113.652C110.43 113.727 110.478 113.792 110.544 113.833C110.61 113.875 110.69 113.891 110.766 113.877C113.504 113.169 116.407 113.546 119.181 113.824C130.974 115.013 134.042 121.253 131.84 126.614C129.896 131.359 124.931 133.563 120.402 135.151C115.355 136.916 109.19 138.745 103.846 139.379C104.055 139.55 104.252 139.731 104.439 139.919C109.533 139.133 114.542 137.874 119.402 136.158C124.125 134.545 129.319 132.605 131.873 127.981C134.308 123.609 133.221 118.941 128.578 115.914Z" fill="#E59E70"/>
<path id="Vector_2" d="M113.444 120.213C111.204 120.437 108.984 120.827 106.801 121.38L109.368 119.317C109.426 119.257 109.458 119.177 109.458 119.094C109.458 119.01 109.426 118.93 109.368 118.871C109.307 118.814 109.227 118.782 109.144 118.782C109.061 118.782 108.981 118.814 108.921 118.871C107.895 119.693 106.869 120.517 105.844 121.343C105.804 121.38 105.775 121.429 105.761 121.482C105.748 121.536 105.751 121.592 105.769 121.644C102.535 122.58 99.3571 123.696 96.2488 124.988C90.0973 127.417 82.3776 131.381 80.8892 132.445C80.2867 132.87 83.0449 132.951 70.0889 127.967C66.1581 126.464 62.185 125.073 58.1745 123.797C57.306 122.772 56.3229 121.851 55.2445 121.051C55.1722 121.009 55.0864 120.998 55.0059 121.019C54.9254 121.041 54.8566 121.093 54.8144 121.165C54.5613 121.596 55.185 121.547 56.9919 123.425C56.3894 123.234 55.2354 122.856 51.8475 121.857C51.7704 121.843 51.6909 121.859 51.6245 121.9C51.5581 121.942 51.5097 122.007 51.4886 122.082C51.4676 122.157 51.4755 122.238 51.5108 122.308C51.5461 122.378 51.6063 122.432 51.6795 122.46C58.7687 124.486 65.7505 126.871 72.5978 129.606C76.4325 131.112 81.1092 133.11 84.5069 135.647C86.5082 137.145 86.698 138.886 85.4485 140.673C83.1722 143.947 77.5962 143.931 73.6041 143.8C69.0357 143.699 64.4757 143.359 59.943 142.78C52.3446 141.71 42.7885 139.179 37.519 133.552C35.1163 130.986 33.2664 127.225 34.5559 123.704C35.8861 120.074 39.6514 118.249 43.1056 117.181C48.4905 115.563 54.1945 115.32 59.6975 116.473C60.0937 116.555 60.2624 115.949 59.8647 115.87C55.3039 114.918 50.5983 114.893 46.0274 115.795C33.6641 118.258 31.3683 125.292 35.2104 131.572C40.443 140.098 54.4257 143.011 64.3998 143.921C68.7673 144.313 73.1519 144.484 77.5367 144.433C79.5538 144.323 82.1855 143.949 83.9051 142.938C86.8653 141.19 88.0478 137.833 85.3626 135.53C84.1075 134.54 82.7665 133.663 81.3555 132.911C83.1007 131.721 90.4084 128.028 95.3442 126.035C101.295 123.648 106.861 121.48 113.458 120.85C113.841 120.801 113.845 120.172 113.444 120.213Z" fill="#E59E70"/>
<path id="Vector_3" d="M98.6532 73.6328C98.2022 75.833 98.3837 78.116 99.1767 80.2174C99.316 80.5985 98.7059 80.762 98.5741 80.3854C97.6946 78.0537 97.549 75.5088 98.1568 73.092C98.1664 73.0668 98.1801 73.0433 98.1975 73.0227C97.4812 72.6092 95.4234 71.4304 93.9614 70.6448C93.9738 71.0154 93.9097 71.3847 93.7731 71.7294C93.508 72.6738 93.0847 73.5665 92.5212 74.3694C92.2357 74.7688 91.8628 75.0976 91.4308 75.3309C90.9989 75.5642 90.5194 75.6957 90.0288 75.7154C89.0899 75.6257 88.219 75.1861 87.5892 74.4839C88.6053 76.4634 85.6828 79.3753 85.1171 74.5901C84.5575 79.361 81.6305 76.483 82.6451 74.4839C82.0156 75.1862 81.1449 75.6258 80.2061 75.7154C79.7154 75.6967 79.2356 75.5655 78.8035 75.3322C78.3714 75.0988 77.9986 74.7695 77.7138 74.3694C77.0415 73.3706 76.5587 72.2567 76.2894 71.0831C75.2965 71.5814 74.292 72.0561 73.2766 72.5067C73.4008 72.6039 73.4355 72.7206 73.5462 73.2313C74.1116 75.6732 73.7051 78.2393 72.4126 80.3869C72.1995 80.7303 71.6594 80.4155 71.868 80.0675C72.488 79.0374 72.8964 77.8939 73.0693 76.7041C73.2422 75.5143 73.1762 74.3019 72.8751 73.1379C61.9361 76.0913 50.3758 92.6123 53.0052 100.878C54.0228 104.072 56.8964 105.221 60.1962 105.794C61.9451 106.145 63.7488 106.118 65.4865 105.715C67.2242 105.313 68.8558 104.543 70.272 103.459C72.046 102.076 73.4994 100.325 74.5322 98.3262C73.0206 97.4416 71.6991 96.2663 70.6441 94.8682C69.431 93.2614 68.7015 91.342 68.5411 89.3351C68.5317 89.3405 68.5233 89.3473 68.5162 89.3554C67.5235 90.1067 66.3803 90.6348 65.1648 90.9039C63.9492 91.173 62.69 91.1766 61.4729 90.9146C61.3999 90.8866 61.34 90.8325 61.3048 90.7627C61.2696 90.6929 61.2617 90.6126 61.2826 90.5373C61.3035 90.462 61.3517 90.3972 61.4178 90.3555C61.4839 90.3139 61.5632 90.2984 61.6401 90.312C63.5814 90.7557 65.6194 90.4175 67.3133 89.3705C67.7634 89.122 68.1918 88.836 68.5938 88.5156C68.6383 88.4734 68.694 88.4451 68.7543 88.4338C68.8145 88.4226 68.8767 88.4291 68.9334 88.4524C68.99 88.4757 69.0387 88.5149 69.0737 88.5653C69.1086 88.6156 69.1282 88.675 69.1301 88.7363C69.1301 88.9246 69.1467 89.1084 69.1587 89.2974C69.1504 89.0142 69.1587 88.7265 69.1753 88.4312C69.1836 88.313 69.564 88.0305 69.6415 87.9529C70.9314 86.6437 72.3806 85.5017 73.9552 84.5537C73.9592 83.1481 74.3122 81.7654 74.9826 80.53C75.079 80.2091 75.3321 80.0879 75.6665 79.9613C78.1913 79.0349 86.5836 79.0906 89.7984 79.7353C90.2277 79.8212 91.1368 79.9568 91.3048 80.472C91.3266 80.5149 91.2754 80.3967 91.4035 80.7951C94.8788 78.4903 96.7295 81.7336 95.6644 83.869C97.3163 85.224 98.7404 86.8349 99.8824 88.6406C99.9231 88.7069 100.087 88.8907 100.177 89.0421C100.251 89.0071 100.335 88.9987 100.415 89.0182C100.495 89.0376 100.565 89.0838 100.615 89.149C100.514 89.0142 100.603 89.149 100.955 89.5332C101.709 90.4145 102.644 91.1225 103.697 91.6085C104.751 92.0944 105.896 92.347 107.056 92.3487C107.461 92.3284 107.458 92.9588 107.056 92.9791C105.809 92.9802 104.576 92.7115 103.442 92.1914C102.308 91.6714 101.3 90.9123 100.487 89.9663C100.047 91.3992 99.3194 92.7272 98.348 93.8688C97.3766 95.0104 96.1822 95.9416 94.8381 96.6051C94.1745 96.9666 93.4785 97.2651 92.7592 97.4969C92.9928 98.3862 93.3108 99.251 93.7091 100.08C94.5177 101.945 95.7585 103.591 97.3291 104.882C98.8998 106.173 100.755 107.072 102.742 107.504C104.943 107.97 108.397 107.972 110.354 107.123C119.879 102.988 110.134 79.5531 98.6532 73.6328Z" fill="#FFCEB6"/>
<path id="Vector_4" d="M95.1307 83.4946C95.2537 83.2454 95.3253 82.9739 95.3413 82.6965C95.3572 82.419 95.3171 82.1412 95.2234 81.8795C95.1297 81.6179 94.9844 81.3777 94.7959 81.1734C94.6075 80.9691 94.3799 80.8048 94.1267 80.6903C93.6917 80.6293 93.2488 80.6585 92.8256 80.776C92.4024 80.8935 92.0079 81.0969 91.6667 81.3735C91.4806 81.5068 91.6441 81.25 91.8474 82.8589C92.7498 82.1426 94.1832 82.8641 95.1307 83.4946ZM92.1367 86.2913L92.1246 86.2958C92.3438 86.57 92.2956 86.5353 92.1367 86.2913ZM110.861 111.297C110.968 110.459 111.106 109.108 111.189 107.393C108.487 108.9 103.72 108.667 100.814 107.61C98.9634 106.903 97.2859 105.809 95.8938 104.399C94.5017 102.99 93.4274 101.3 92.743 99.4409C92.4573 98.7727 92.2339 98.0796 92.0757 97.3703C92.0614 97.2957 92.0701 97.2185 92.1005 97.1489C90.0192 95.6172 88.3212 93.624 87.1398 91.3258C85.6224 91.8138 84.0298 92.0258 82.4375 91.9517C81.2015 94.0102 78.0455 96.9877 75.1727 97.9902C75.219 98.0679 75.2407 98.1577 75.2349 98.2479C75.2292 98.3382 75.1962 98.4245 75.1403 98.4956C73.815 101.139 71.7745 103.357 69.2509 104.898C65.7862 106.922 61.9026 107.105 57.8849 105.896C57.6659 108.39 57.5307 110.891 57.4797 113.394C57.2789 113.522 57.1195 113.706 57.021 113.923C56.9225 114.14 56.8889 114.381 56.9245 114.617C56.96 114.852 57.0631 115.072 57.2213 115.251C57.3795 115.429 57.5859 115.557 57.8156 115.621C58.6607 115.847 59.432 115.329 60.2342 115.121C60.6311 115.277 61.0627 115.444 61.5358 115.616C61.584 116.128 61.1283 116.882 61.593 117.56C61.8009 117.822 62.0774 118.021 62.3918 118.136C62.7061 118.25 63.046 118.275 63.3736 118.207C64.4786 118.032 65.6943 116.852 66.7088 117.379C67.5291 117.816 67.0259 119.325 67.9291 120.072C68.212 120.269 68.5417 120.388 68.8853 120.418C69.2289 120.449 69.5744 120.388 69.8874 120.243C70.8809 119.876 71.6047 119.052 72.5884 118.816L73.6731 119.037C74.1604 119.489 74.2689 120.486 74.766 121.087C74.9947 121.345 75.2847 121.542 75.6094 121.66C75.9341 121.777 76.283 121.811 76.6242 121.758C77.8444 121.586 78.2752 120.35 78.8085 119.851C79.2303 119.9 79.6559 119.949 80.0852 119.99C80.4254 120.614 80.8198 121.207 81.264 121.762C81.4952 121.986 81.7901 122.133 82.1082 122.183C82.4263 122.233 82.7521 122.183 83.0408 122.04C83.8423 121.668 84.2113 120.924 84.9683 120.268C85.5084 120.276 86.0484 120.281 86.593 120.268C86.9508 120.746 87.1647 121.457 87.8087 121.836C88.3275 122.122 88.9323 122.213 89.5123 122.091C90.0924 121.968 90.609 121.641 90.9677 121.169C91.2298 120.801 91.2584 120.219 91.5778 119.945C91.8482 119.913 92.1178 119.884 92.392 119.847C93.0933 120.03 93.265 120.459 93.6243 120.813C93.8964 121.062 94.2483 121.207 94.6171 121.22C94.9859 121.234 95.3477 121.116 95.6376 120.888C95.9128 120.663 96.1401 120.385 96.306 120.071C96.472 119.756 96.5733 119.412 96.604 119.058C96.9723 118.968 97.3406 118.878 97.709 118.776C97.9748 119.089 98.3078 119.339 98.6832 119.506C99.0585 119.673 99.4667 119.754 99.8775 119.742C100.206 119.724 100.52 119.595 100.766 119.376C101.012 119.157 101.177 118.861 101.233 118.536C101.233 118.231 101.251 117.926 101.287 117.623C101.541 117.525 101.798 117.422 102.052 117.322C102.829 117.604 103.271 118.451 104.184 118.394C104.672 118.311 105.111 118.049 105.415 117.659C105.719 117.268 105.865 116.778 105.826 116.285C105.763 116.061 105.723 115.831 105.707 115.598L106.112 115.372C106.647 115.433 106.995 116.114 107.63 116.375C107.862 116.448 108.106 116.469 108.346 116.434C108.586 116.4 108.816 116.312 109.017 116.178C109.219 116.043 109.388 115.864 109.511 115.656C109.634 115.447 109.709 115.213 109.73 114.971C109.729 114.626 109.632 114.287 109.452 113.992C109.394 113.874 109.276 113.686 109.325 113.55C109.378 113.4 109.611 113.329 109.751 113.305C110.103 113.285 110.457 113.304 110.805 113.362C112.391 113.412 112.181 111.538 110.861 111.297ZM57.5866 114.727C57.5386 114.617 57.5231 114.495 57.5419 114.376C57.5607 114.258 57.6131 114.146 57.6928 114.056C57.9836 114.187 58.544 114.437 59.3462 114.764C58.8716 114.956 57.8894 115.333 57.5866 114.727ZM62.6204 117.551C62.4855 117.522 62.3605 117.458 62.2573 117.367C62.1542 117.275 62.0763 117.158 62.0314 117.028C62.0045 116.628 62.0445 116.227 62.1496 115.841C63.0339 116.16 64.0281 116.5 65.1128 116.843C64.2835 117.145 63.4956 117.816 62.6204 117.551ZM68.7516 119.782C67.81 119.616 68.0345 118.442 67.6752 117.608C68.8804 117.944 70.1608 118.276 71.5098 118.582C70.6753 119.055 69.7405 119.951 68.7516 119.782ZM76.9902 120.987C76.715 121.132 76.4003 121.184 76.0928 121.137C75.7853 121.089 75.5015 120.943 75.2835 120.721C74.9651 120.253 74.7169 119.742 74.5468 119.202C75.6887 119.412 76.863 119.6 78.0704 119.759C77.7979 120.238 77.4304 120.657 76.9902 120.989V120.987ZM83.0024 121.343C82.895 121.429 82.7711 121.492 82.6384 121.529C82.5057 121.565 82.367 121.575 82.2306 121.556C82.0943 121.537 81.9631 121.491 81.8452 121.42C81.7274 121.349 81.6252 121.254 81.5449 121.143C81.2941 120.801 81.0712 120.439 80.8783 120.062C81.9379 120.152 83.0127 120.216 84.1029 120.255C83.7855 120.664 83.416 121.029 83.0039 121.343H83.0024ZM90.5082 120.74C90.3628 120.956 90.1722 121.136 89.9497 121.27C89.7272 121.404 89.4782 121.488 89.22 121.516C88.9618 121.543 88.7006 121.514 88.4548 121.431C88.2089 121.347 87.9843 121.211 87.7966 121.031C87.6086 120.791 87.4441 120.533 87.3055 120.261C88.4576 120.229 89.6082 120.157 90.7553 120.045C90.6965 120.285 90.6138 120.518 90.5082 120.74ZM94.9575 120.557C94.1681 120.819 93.9534 120.145 93.4345 119.705C94.274 119.573 95.1092 119.414 95.9389 119.23C95.907 119.518 95.7994 119.793 95.627 120.025C95.4546 120.258 95.2236 120.441 94.9575 120.556V120.557ZM100.555 118.698C100.294 119.259 99.467 119.218 99.0045 118.989C98.7962 118.881 98.6013 118.749 98.4238 118.596C99.1687 118.379 99.9129 118.144 100.65 117.875C100.673 118.153 100.64 118.433 100.554 118.698L100.555 118.698ZM105.168 116.74C105.102 117.04 104.947 117.313 104.722 117.522C104.018 118.168 103.332 117.393 102.795 117.035C103.576 116.699 104.35 116.33 105.115 115.93C105.188 116.192 105.206 116.467 105.168 116.737V116.74ZM108.07 115.86C107.607 115.817 107.332 115.328 106.806 114.988C108.997 113.676 108.679 113.684 108.725 113.846C108.8 114.178 109.056 114.46 109.11 114.796C109.114 114.935 109.09 115.073 109.04 115.202C108.989 115.331 108.913 115.449 108.816 115.548C108.719 115.647 108.603 115.726 108.475 115.779C108.347 115.832 108.209 115.859 108.07 115.857V115.86ZM111.012 112.741C110.737 112.755 110.461 112.735 110.19 112.684C110.826 112.196 110.709 112.367 110.78 111.919C111.277 112.035 111.536 112.668 111.012 112.738V112.741Z" fill="#FFCEB6"/>
<path id="Vector_5" d="M91.845 82.8588C91.6552 81.2477 91.4616 81.5203 91.6643 81.3735C92.0055 81.097 92.4 80.8936 92.8232 80.7761C93.2464 80.6586 93.6893 80.6294 94.1243 80.6903C94.3774 80.805 94.6048 80.9693 94.7931 81.1737C94.9814 81.378 95.1267 81.6181 95.2204 81.8797C95.3141 82.1413 95.3542 82.419 95.3384 82.6965C95.3225 82.9739 95.2511 83.2453 95.1283 83.4945C95.3111 83.6098 95.4872 83.7356 95.6555 83.8711C96.71 81.7501 94.885 78.4849 91.3946 80.7973C91.3592 80.6903 91.3263 80.5826 91.2959 80.4741C91.1287 79.9544 90.2196 79.8233 89.7895 79.7375C86.2629 79.0204 77.915 79.1259 75.6577 79.9634C75.3699 80.0697 75.0363 80.2248 74.9737 80.5321C74.3035 81.7676 73.9505 83.1502 73.9464 84.5558C74.271 84.3683 74.4442 84.2907 74.5851 84.2199C74.6612 83.1575 74.9243 82.1169 75.3624 81.146C77.4307 82.2577 88.5633 82.2397 90.8538 81.1874C91.1046 82.0409 91.2488 82.922 91.2831 83.8109C91.346 83.4349 91.5462 83.0956 91.845 82.8588ZM77.2846 80.9991C76.7506 80.9343 76.2259 80.8079 75.7209 80.6225C79.1315 79.4867 88.9429 79.8015 90.5856 80.6225C90.7152 80.6225 89.5673 81.1272 85.7161 81.3004C82.9022 81.441 80.0813 81.3402 77.2846 80.9991ZM86.8572 90.7563C85.5345 91.1812 84.1492 91.3778 82.7605 91.3378C82.6655 91.5488 82.5576 91.7539 82.4374 91.9516C84.0296 92.0264 85.6224 91.8143 87.1397 91.3257C87.0426 91.1374 86.9484 90.9475 86.8572 90.7563ZM92.1365 86.2912C90.9073 84.4956 91.4699 83.545 91.2199 85.3874C91.5404 85.6731 91.8463 85.9748 92.1365 86.2912Z" fill="black"/>
<path id="Vector_6" d="M113.585 92.5977C112.023 87.7654 109.559 83.2728 106.324 79.3577C106.556 78.374 106.539 77.3482 106.277 76.3724C106.014 75.3967 105.512 74.5015 104.818 73.7673C104.474 73.4774 104.218 73.0977 104.077 72.6707C104.057 72.1866 104.175 71.7067 104.417 71.287C104.743 70.4268 104.826 69.4937 104.658 68.5894C104.49 67.6852 104.076 66.8445 103.463 66.1591C102.333 64.9351 100.328 63.904 100.79 61.923C100.983 61.2806 101.256 60.6647 101.601 60.0897C104.738 54.0406 103.471 46.7321 100.607 43.5302C98.7854 41.492 96.0799 40.7719 93.4029 40.9279C92.9142 40.9495 92.4275 41.0041 91.9462 41.0913C90.4322 39.0817 88.8769 37.0239 86.7611 35.6606C85.1026 34.6422 83.2181 34.0494 81.2752 33.9351C79.3323 33.8207 77.3913 34.1884 75.6248 35.0053C68.7072 38.1756 65.833 47.1366 69.0718 52.1824C69.7798 53.2836 70.8042 54.3185 70.8192 55.6284C70.8358 57.6139 68.6417 58.7346 66.9108 59.701C65.2074 60.5395 63.8164 61.9001 62.9406 63.5846C62.1671 65.3034 62.3757 67.5586 63.8083 68.7818C64.8929 69.7067 66.5952 70.0464 67.1277 71.3683C67.4712 72.2157 67.1933 73.1693 67.0524 74.0739C66.8317 75.505 67.197 75.0177 66.5817 75.4485C56.1873 82.4715 47.294 98.7508 54.7659 104.429C55.6554 105.067 56.6496 105.543 57.7035 105.838C64.2949 107.856 69.7549 105.939 73.4525 101.175C74.1513 100.307 74.7459 99.3588 75.2241 98.3516C75.2621 98.2779 75.2715 98.1927 75.2504 98.1126C75.2292 98.0324 75.179 97.963 75.1096 97.9177C72.8447 96.6826 71.0338 94.7561 69.941 92.4192C69.4367 91.2528 69.1655 89.999 69.1426 88.7285C69.1406 88.6672 69.121 88.6078 69.0861 88.5575C69.0512 88.5071 69.0025 88.4679 68.9458 88.4446C68.8892 88.4213 68.827 88.4148 68.7667 88.426C68.7065 88.4373 68.6508 88.4656 68.6063 88.5078C67.2917 89.5621 65.7163 90.2412 64.0471 90.4729C63.2455 90.5627 62.4344 90.5055 61.6534 90.3042C61.577 90.2921 61.499 90.3085 61.434 90.3503C61.369 90.392 61.3216 90.4562 61.3008 90.5306C61.2801 90.605 61.2874 90.6845 61.3215 90.7539C61.3555 90.8232 61.4138 90.8776 61.4854 90.9068C62.7025 91.1687 63.9618 91.165 65.1773 90.8957C66.3929 90.6265 67.536 90.0982 68.5287 89.3469C68.5379 89.3415 68.5462 89.3349 68.5536 89.3273C68.7505 91.1988 69.3984 92.9946 70.4419 94.5606C71.4854 96.1266 72.8933 97.4161 74.5447 98.3184C74.2735 98.8593 73.9644 99.3804 73.6197 99.8776C72.596 101.502 71.2309 102.885 69.6193 103.929C68.0076 104.973 66.1879 105.654 64.2866 105.924C61.5341 106.195 58.759 105.736 56.24 104.594C45.7078 99.2833 60.2968 76.3772 72.8861 73.1369C73.1897 74.3006 73.257 75.5134 73.084 76.7036C72.9111 77.8938 72.5013 79.0373 71.879 80.0665C71.6621 80.4107 72.2067 80.7255 72.4236 80.3858C73.7153 78.2379 74.1205 75.6717 73.5534 73.2303C73.4615 72.807 73.4148 72.5968 73.283 72.5057C74.3021 72.0538 75.3009 71.5725 76.2959 71.0814C76.2294 70.8007 76.2624 70.5057 76.3893 70.2467C76.5163 69.9877 76.7293 69.7809 76.9919 69.6616C78.1069 68.8683 79.3947 68.3519 80.7489 68.1551V62.2424C75.1291 60.1673 71.7691 54.491 73.1241 48.933C74.5891 42.9126 81.0231 39.3152 87.4932 40.891C93.2847 42.3025 97.1344 47.3814 96.8286 52.7473C97.2972 52.7406 97.7615 52.8385 98.1876 53.0339C98.6137 53.2293 98.9908 53.5172 99.2915 53.8768C99.5923 54.2363 99.809 54.6584 99.9261 55.1123C100.043 55.5662 100.057 56.0405 99.968 56.5006C99.4693 58.5516 96.873 59.4291 94.9915 58.1208C94.0722 59.4461 92.8752 60.5552 91.4837 61.3709L90.5957 68.3758C91.5048 68.644 93.4941 69.581 93.8451 70.2378C94.2752 71.0211 92.8041 69.9063 98.2002 73.0209C97.9614 73.7384 97.8289 74.487 97.807 75.2429C97.7105 76.991 97.9725 78.7404 98.5768 80.3836C98.7154 80.7602 99.3217 80.596 99.1793 80.2156C98.3871 78.1139 98.2043 75.8312 98.6521 73.6302C110.045 79.5174 119.919 102.98 110.35 107.121C109.315 107.522 108.22 107.744 107.111 107.776C102.689 108.073 99.2614 106.759 96.7645 104.379C94.8377 102.484 93.4541 100.107 92.7574 97.4951C95.2692 96.6807 97.4651 95.1043 99.04 92.9849C99.6841 92.0645 100.172 91.0443 100.485 89.9653C101.297 90.9117 102.305 91.671 103.439 92.191C104.573 92.7111 105.806 92.9796 107.053 92.9781C107.455 92.957 107.459 92.3319 107.053 92.3477C102.986 92.5375 100.275 88.7142 100.616 89.1473C100.583 89.0962 100.536 89.0555 100.481 89.0299C100.426 89.0044 100.365 88.995 100.305 89.0029C100.245 89.0108 100.188 89.0357 100.142 89.0746C100.095 89.1135 100.061 89.1648 100.043 89.2226C99.5433 91.3039 98.3899 93.1703 96.7517 94.5478C95.4456 95.6489 93.9293 96.473 92.2949 96.9702C92.2165 96.996 92.1507 97.0504 92.1105 97.1226C92.0704 97.1947 92.0587 97.2793 92.078 97.3596C92.6757 99.7336 93.8037 101.941 95.3771 103.817C96.5525 105.196 98.0016 106.316 99.6324 107.106C101.263 107.895 103.04 108.338 104.851 108.405C106.934 108.535 109.381 108.391 111.191 107.382C115.976 104.723 115.232 97.8062 113.585 92.5977ZM58.8311 146.761C60.4068 147.46 63.431 144.808 64.3845 143.917C62.4538 143.745 60.5293 143.51 58.6141 143.212C58.2172 143.981 57.3005 146.081 58.8311 146.761ZM86.2602 136.324C86.4045 136.592 86.5143 136.876 86.5871 137.172C87.4156 139.161 86.23 141.248 84.4916 142.533C84.4427 142.582 84.4058 142.615 84.3937 142.627C84.3184 142.702 94.5757 143.798 97.0071 143.798C100.044 143.798 109.625 149.638 105.884 141.927C101.931 133.804 84.57 136.548 86.2602 136.324ZM35.4045 141.396C32.9325 141.324 30.4672 141.14 28.0087 140.843C27.6072 140.793 27.6118 141.423 28.0087 141.472C30.4642 141.774 32.9295 141.958 35.4045 142.025C35.809 142.037 35.8052 141.407 35.4045 141.396ZM36.8492 139.664H34.2785C34.1975 139.668 34.1212 139.703 34.0653 139.762C34.0095 139.82 33.9783 139.898 33.9783 139.979C33.9783 140.06 34.0095 140.138 34.0653 140.197C34.1212 140.256 34.1975 140.29 34.2785 140.294H36.8492C36.9301 140.29 37.0064 140.256 37.0623 140.197C37.1182 140.138 37.1494 140.06 37.1494 139.979C37.1494 139.898 37.1182 139.82 37.0623 139.762C37.0064 139.703 36.9301 139.668 36.8492 139.664ZM125.427 142.795C122.53 142.312 119.591 142.128 116.656 142.247C116.251 142.263 116.251 142.893 116.656 142.877C119.535 142.751 122.418 142.927 125.259 143.404C125.656 143.466 125.828 142.861 125.427 142.795ZM127.58 141.152C126.242 141.128 124.903 141.106 123.565 141.087C123.484 141.091 123.407 141.126 123.352 141.184C123.296 141.243 123.265 141.321 123.265 141.402C123.265 141.483 123.296 141.561 123.352 141.62C123.407 141.678 123.484 141.713 123.565 141.717C124.903 141.738 126.241 141.76 127.58 141.783C127.661 141.779 127.737 141.744 127.793 141.685C127.849 141.627 127.88 141.549 127.88 141.468C127.88 141.387 127.849 141.309 127.793 141.25C127.737 141.191 127.661 141.156 127.58 141.152ZM45.2754 143.224C43.7317 142.818 42.1355 142.647 40.5407 142.718C40.1392 142.733 40.1355 143.364 40.5407 143.347C42.0791 143.277 43.6192 143.442 45.1082 143.835C45.1886 143.855 45.2738 143.843 45.3455 143.801C45.4172 143.76 45.4697 143.692 45.4916 143.612C45.5135 143.532 45.5031 143.446 45.4627 143.374C45.4223 143.301 45.355 143.248 45.2754 143.224Z" fill="black"/>
<path id="Vector_7" d="M90.5856 80.6187C88.5376 79.5951 77.0073 79.7149 75.7208 80.6187C77.0322 81.4932 88.4811 81.6559 90.5856 80.6187ZM39.1484 9.1272C31.4137 7.58913 23.5915 10.7474 19.7079 17.7832C12.6797 30.5193 23.4243 47.2136 38.6393 44.7875C46.417 43.5462 52.2725 37.0595 53.5612 29.4068C55.2477 19.3461 48.6932 11.0253 39.1484 9.1272ZM53.2027 26.6688C53.034 34.0285 48.3362 41.1035 41.2198 43.5062C37.9462 44.6064 34.4169 44.6934 31.0931 43.7558C27.7694 42.8183 24.8058 40.8998 22.5897 38.2511C20.4966 35.8359 19.0808 32.9093 18.4864 29.7691C17.8921 26.6289 18.1405 23.3872 19.2063 20.3742C21.8214 13.3316 28.5462 9.00744 36.2968 9.40589C45.486 9.8774 53.4279 16.862 53.2027 26.6688Z" fill="#6DD3A8"/>
<path id="Vector_8" d="M29.1702 3.81078C28.6569 3.71904 28.1277 3.79686 27.6626 4.03249C27.1975 4.26812 26.8217 4.64875 26.592 5.11686C26.4172 5.50142 26.3421 5.9238 26.3736 6.34504C26.405 6.76628 26.542 7.17281 26.772 7.52715C26.9835 7.841 27.2654 8.10108 27.5953 8.28666C27.9251 8.47224 28.2937 8.57818 28.6718 8.59603C29.0498 8.61388 29.4268 8.54315 29.7727 8.38948C30.1185 8.23581 30.4237 8.00345 30.6639 7.71093C31.5474 6.44628 30.7414 4.15048 29.1702 3.81078ZM27.0499 5.6893C27.1522 5.33511 27.3611 5.021 27.6481 4.78962C27.9352 4.55825 28.2864 4.42083 28.6543 4.39603C28.9952 4.3992 29.3268 4.50744 29.604 4.70599C29.8811 4.90454 30.0902 5.18374 30.2029 5.50552C29.3683 5.53414 28.3748 7.30872 28.8366 7.97305C28.5542 7.98215 28.2737 7.92453 28.0178 7.80489C27.762 7.68525 27.5379 7.50694 27.3638 7.28446C27.1898 7.06198 27.0706 6.80159 27.0161 6.52442C26.9616 6.24726 26.9732 5.96115 27.0499 5.6893ZM42.1685 3.81078C41.6552 3.71929 41.1261 3.79722 40.661 4.03283C40.1959 4.26843 39.8201 4.64891 39.5902 5.11686C39.3983 5.51954 39.3205 5.96721 39.3656 6.41103C39.4106 6.85486 39.5767 7.27779 39.8456 7.6337C40.1146 7.98961 40.4761 8.26483 40.8908 8.42934C41.3054 8.59384 41.7573 8.64132 42.1971 8.56659C44.9576 8.1832 44.2948 4.27326 42.1685 3.81078ZM40.0489 5.6893C40.151 5.33523 40.3595 5.02116 40.6463 4.78978C40.9331 4.55839 41.2841 4.42091 41.6518 4.39603C42.0299 4.40623 42.3941 4.54095 42.6879 4.77928C42.9817 5.01762 43.1885 5.34624 43.2765 5.71416C42.5715 5.61699 41.5441 7.09556 41.7459 7.97381C41.4711 7.96895 41.201 7.90106 40.9565 7.77538C40.712 7.6497 40.4996 7.46958 40.3356 7.24889C40.1717 7.0282 40.0606 6.77283 40.0109 6.50244C39.9612 6.23205 39.9742 5.95387 40.0489 5.6893ZM35.62 5.27202C35.5408 5.29668 35.474 5.3506 35.4331 5.4228C35.3922 5.49501 35.3804 5.58007 35.4001 5.66068C35.4192 5.77722 35.4013 5.89682 35.3489 6.00264C34.8849 6.93136 33.8808 6.31146 34.0744 5.53791C34.0956 5.45704 34.0842 5.37111 34.0429 5.29848C34.0015 5.22585 33.9333 5.17229 33.853 5.14925C33.2504 5.00463 33.1901 6.38377 34.0985 6.91704C34.3196 7.02961 34.5679 7.07787 34.815 7.05634C35.0622 7.03481 35.2984 6.94435 35.4967 6.79525C35.695 6.64615 35.8474 6.4444 35.9368 6.21294C36.0261 5.98147 36.0486 5.72959 36.0019 5.48593C35.991 5.44671 35.9725 5.41003 35.9474 5.378C35.9223 5.34598 35.8911 5.31925 35.8556 5.29936C35.8201 5.27947 35.781 5.26681 35.7405 5.26212C35.7001 5.25743 35.6591 5.26079 35.62 5.27202ZM35.019 19.9319C35.015 19.8509 34.9801 19.7746 34.9214 19.7187C34.8627 19.6629 34.7848 19.6317 34.7037 19.6317C34.6227 19.6317 34.5448 19.6629 34.4861 19.7187C34.4274 19.7746 34.3925 19.8509 34.3885 19.9319C34.3518 21.2528 34.4742 22.5734 34.7531 23.8652C34.8389 24.2621 35.4445 24.0911 35.3556 23.6972C35.0948 22.4598 34.9818 21.1959 35.019 19.9319Z" fill="black"/>
<path id="Vector_9" d="M36.784 19.6129C36.4074 18.935 35.2648 18.5546 34.3489 18.1818C34.282 18.1635 34.211 18.1676 34.1467 18.1934C34.0824 18.2193 34.0283 18.2654 33.9926 18.3249C33.6494 18.9965 33.1795 19.5955 32.609 20.0889C32.3024 20.3548 32.7483 20.7969 33.0549 20.5348C33.5947 20.063 34.0501 19.5026 34.4016 18.8777C34.9108 19.0811 35.9924 19.4803 36.2395 19.9322C36.2818 20.0044 36.3511 20.0569 36.4321 20.078C36.5131 20.0991 36.5992 20.0872 36.6714 20.0448C36.7436 20.0025 36.7961 19.9332 36.8172 19.8522C36.8383 19.7712 36.8264 19.6851 36.784 19.6129ZM43.868 26.8083C41.5687 26.6261 39.2659 26.5467 36.9595 26.5703C36.8786 26.5743 36.8023 26.6092 36.7464 26.6679C36.6905 26.7266 36.6594 26.8045 36.6594 26.8855C36.6594 26.9666 36.6905 27.0445 36.7464 27.1032C36.8023 27.1619 36.8786 27.1968 36.9595 27.2008C39.2636 27.1804 41.5722 27.258 43.868 27.438C44.2695 27.4712 44.2695 26.84 43.868 26.8083Z" fill="black"/>
<path id="Vector_10" d="M46.4502 27.0822C46.3478 26.6559 46.0902 26.5723 44.3872 25.1954C44.006 24.8858 43.6746 25.4319 43.9413 25.6413C45.9508 27.2396 45.8062 27.1161 45.8364 27.2231C45.9652 27.6607 44.9325 27.8196 44.5182 28.4282C44.2923 28.7642 44.8376 29.079 45.0628 28.7476C45.2594 28.4568 45.6601 28.3672 45.9343 28.1623C46.1175 28.0535 46.2643 27.8928 46.3561 27.7006C46.448 27.5083 46.4807 27.2931 46.4502 27.0822Z" fill="black"/>
<path id="Vector_11" d="M47.3217 16.9237C45.0775 14.4893 42.1396 12.803 38.9056 12.0932C35.6715 11.3834 32.2975 11.6842 29.24 12.955C26.4671 14.1725 24.1394 16.219 22.577 18.8132C21.0146 21.4075 20.2942 24.422 20.5148 27.4424C20.7049 30.2008 21.6093 32.8624 23.139 35.1657C24.6687 37.469 26.7712 39.3349 29.24 40.58C32.0898 41.9729 35.3126 42.41 38.4304 41.8266C41.5483 41.2432 44.3949 39.6702 46.5482 37.3411C51.7906 31.6898 52.5242 22.7468 47.3217 16.9237ZM47.4724 35.1772C46.2987 36.9286 44.7478 38.395 42.9333 39.4688C41.1189 40.5425 39.087 41.1963 36.9869 41.3822C36.9869 41.3468 36.4596 39.0396 36.4551 39.0163C36.4273 38.9431 36.3731 38.8829 36.3031 38.8476C36.2332 38.8123 36.1526 38.8044 36.0772 38.8254C36.0017 38.8465 35.9369 38.8949 35.8953 38.9613C35.8537 39.0277 35.8385 39.1072 35.8525 39.1843C36.0408 39.9209 36.1839 40.6621 36.2984 41.4145C27.8956 41.7422 21.5354 34.8616 21.1392 27.2541C22.0431 27.2041 22.9495 27.222 23.8508 27.3076C23.9317 27.3036 24.008 27.2687 24.0639 27.21C24.1198 27.1513 24.151 27.0734 24.151 26.9923C24.151 26.9113 24.1198 26.8334 24.0639 26.7747C24.008 26.716 23.9317 26.6811 23.8508 26.6771C22.9422 26.5919 22.0286 26.574 21.1174 26.6236C21.0314 22.9686 22.3855 19.4261 24.8875 16.7602C27.3895 14.0944 30.839 12.5186 34.4922 12.3728C34.6534 12.817 34.7283 13.2879 34.7129 13.7602C34.7137 13.8437 34.7472 13.9235 34.8062 13.9825C34.8652 14.0415 34.945 14.075 35.0285 14.0758C35.1115 14.0737 35.1905 14.0397 35.2491 13.981C35.3077 13.9222 35.3414 13.8432 35.3434 13.7602C35.3539 13.2795 35.2875 12.8002 35.1468 12.3404C43.0503 12.244 50.0702 17.9511 50.245 25.9736H47.9326C47.8517 25.9776 47.7754 26.0125 47.7195 26.0712C47.6636 26.1299 47.6324 26.2078 47.6324 26.2888C47.6324 26.3699 47.6636 26.4478 47.7195 26.5065C47.7754 26.5652 47.8517 26.6001 47.9326 26.604H50.2487C50.1765 29.6701 49.2119 32.6485 47.4731 35.1749L47.4724 35.1772Z" fill="#ACEAC7"/>
<path id="Vector_12" d="M33.6982 26.1695C33.6636 26.4731 33.7111 26.7803 33.8356 27.0593C33.9601 27.3383 34.1572 27.5788 34.4063 27.7557C34.6554 27.9326 34.9473 28.0395 35.2518 28.0652C35.5562 28.0909 35.8619 28.0346 36.1372 27.9019C36.4072 27.7631 36.6324 27.5506 36.7867 27.2891C36.9409 27.0275 37.0179 26.7276 37.0086 26.4241C36.9717 24.4424 33.9958 24.1848 33.6982 26.1695Z" fill="#ACEAC7"/>
<path id="Vector_13" d="M90.4668 69.2957C90.4863 69.13 91.4791 61.3011 91.47 61.3764C92.8615 60.5596 94.0591 59.4504 94.98 58.1255C96.7877 59.406 99.4451 58.6076 99.9565 56.5046C100.045 56.0446 100.03 55.5707 99.9129 55.1173C99.7955 54.6638 99.5788 54.2421 99.2783 53.8828C98.9778 53.5234 98.6012 53.2355 98.1756 53.0398C97.75 52.8441 97.2862 52.7456 96.8179 52.7513C97.1244 47.3862 93.2687 42.3027 87.478 40.8949C81.0116 39.3192 74.5777 42.9211 73.1081 48.937C71.7523 54.4995 75.1139 60.172 80.7337 62.2464C80.7337 69.1127 80.7247 68.8325 80.7578 69.139C80.8705 70.3364 81.4209 71.4502 82.3037 72.2669C83.1865 73.0837 84.3396 73.546 85.5421 73.5654C86.7446 73.5848 87.912 73.1599 88.8207 72.3721C89.7294 71.5842 90.3155 70.4888 90.4668 69.2957ZM95.1307 83.4946C94.1816 82.8642 92.7558 82.1463 91.8474 82.8589C89.9297 84.3653 93.4985 87.7179 91.7721 85.8981C90.7251 84.8617 89.5395 84.1973 88.5016 85.2353C88.5016 85.2353 87.4546 86.4916 89.3407 88.8003C89.3407 88.8003 87.2452 86.9172 86.4032 88.1698C85.5919 89.3991 88.7065 94.9005 92.105 97.1579C92.2022 96.9531 92.2511 97.0442 93.091 96.7233C94.777 96.1461 96.2941 95.161 97.5073 93.8557C98.7205 92.5504 99.5922 90.9653 100.045 89.2416C100.053 89.2033 100.069 89.167 100.092 89.1354C100.116 89.1037 100.145 89.0773 100.179 89.0579C98.8817 87.0716 97.1011 84.7954 95.1307 83.4946ZM79.9285 90.2449C82.2446 88.3702 81.4756 86.9263 81.4756 86.9263C80.1741 84.9408 77.5257 87.3887 77.5257 87.3887C78.3362 86.643 79.5316 85.276 78.8153 84.0979C78.0078 82.7542 75.6329 83.637 74.2681 84.3721C72.5659 85.3455 71.0067 86.5501 69.6351 87.9514C69.5597 88.0267 69.1771 88.3114 69.1688 88.4297C69.1027 89.801 69.3608 91.1687 69.922 92.4217C71.0183 94.7562 72.8283 96.6818 75.0906 97.9202C75.1223 97.9386 75.1502 97.9629 75.1727 97.9918C78.9064 96.6834 83.5334 91.6949 82.9308 90.2299C82.3674 88.8289 79.9285 90.2449 79.9285 90.2449Z" fill="#FF8684"/>
<path id="Vector_14" d="M78.7497 44.3454C78.9367 44.3449 79.1197 44.4 79.2755 44.5036C79.4312 44.6072 79.5527 44.7546 79.6246 44.9273C79.6965 45.1 79.7156 45.2902 79.6793 45.4737C79.6431 45.6572 79.5533 45.8258 79.4212 45.9583C79.289 46.0907 79.1206 46.1809 78.9372 46.2176C78.7538 46.2543 78.5636 46.2357 78.3907 46.1642C78.2179 46.0927 78.0701 45.9716 77.9661 45.8161C77.8622 45.6606 77.8067 45.4777 77.8067 45.2906C77.8069 45.0404 77.9062 44.8004 78.0829 44.6232C78.2597 44.4461 78.4994 44.3462 78.7497 44.3454ZM88.8096 47.4923C88.6225 47.4923 88.4396 47.5478 88.284 47.6518C88.1284 47.7558 88.0071 47.9036 87.9355 48.0765C87.864 48.2494 87.8453 48.4396 87.8818 48.6232C87.9184 48.8067 88.0086 48.9753 88.1409 49.1076C88.2733 49.2398 88.442 49.3299 88.6255 49.3663C88.8091 49.4027 88.9993 49.3839 89.1722 49.3121C89.345 49.2404 89.4927 49.1191 89.5966 48.9634C89.7005 48.8077 89.7558 48.6247 89.7557 48.4376C89.7555 48.1868 89.6557 47.9464 89.4783 47.7691C89.3009 47.5919 89.0604 47.4923 88.8096 47.4923ZM84.3114 51.9988C83.8606 52.6464 83.2059 53.1243 82.4518 53.3564C81.6976 53.5884 80.8874 53.5612 80.1506 53.279C79.4137 52.9968 78.7926 52.476 78.3863 51.7996C77.98 51.1231 77.812 50.3301 77.9091 49.5471C77.9498 49.1464 77.3238 49.1501 77.2786 49.5471C77.1835 50.4686 77.3987 51.3954 77.8899 52.1808C78.3812 52.9662 79.1206 53.5652 79.9908 53.8828C80.861 54.2004 81.8124 54.2186 82.6941 53.9343C83.5758 53.6501 84.3374 53.0797 84.8583 52.3136C85.0895 51.986 84.5434 51.6704 84.3114 51.9988ZM93.0969 47.5126C92.9731 46.7317 92.6222 46.0044 92.0879 45.4215C91.5537 44.8386 90.8596 44.4258 90.0924 44.2346C89.782 44.1495 89.4325 44.0418 89.3437 44.3695C89.3221 44.4503 89.3331 44.5365 89.3744 44.6093C89.4157 44.6821 89.4839 44.7358 89.5644 44.7589C90.3009 44.8677 90.9831 45.2101 91.5106 45.7357C92.038 46.2612 92.3829 46.9422 92.4944 47.6783C92.5008 47.7225 92.5166 47.7647 92.5406 47.8023C92.5647 47.8399 92.5964 47.8719 92.6337 47.8963C92.6711 47.9207 92.7132 47.9369 92.7573 47.9438C92.8013 47.9506 92.8464 47.9481 92.8894 47.9363C92.9324 47.9244 92.9724 47.9036 93.0067 47.8752C93.0411 47.8467 93.069 47.8113 93.0886 47.7712C93.1082 47.7312 93.1191 47.6874 93.1206 47.6428C93.122 47.5982 93.1139 47.5539 93.0969 47.5126Z" fill="black"/>
<path id="Vector_15" d="M80.0263 48.348C79.9668 48.5469 79.9872 48.6493 80.2064 48.7201C81.0883 49.0531 82.0038 49.2892 82.9368 49.4244C83.0418 49.4594 83.1559 49.4558 83.2585 49.4144C83.3612 49.373 83.4458 49.2965 83.4972 49.1984C84.0036 48.3106 84.2077 47.2823 84.0786 46.2684C84.0372 44.8561 80.7675 46.0688 80.0263 48.348Z" fill="#FFCEB6"/>
</g>
</svg>
