<svg width="151" height="151" viewBox="0 0 151 151" fill="none" xmlns="http://www.w3.org/2000/svg">
<g id="Change-Setting-1--Streamline-Barcelona">
<path id="Vector" d="M55.481 55.2857V47.377H50.0142V55.2857H55.481Z" fill="#B26EE6"/>
<path id="Vector_2" d="M55.6828 38.7067H49.8152C49.7623 38.7074 49.7117 38.7288 49.6742 38.7662C49.6366 38.8035 49.6151 38.8541 49.6141 38.907V55.4861C49.6149 55.5392 49.6364 55.5899 49.6739 55.6274C49.7114 55.665 49.7622 55.6864 49.8152 55.6872C56.2801 55.6872 55.7016 55.7173 55.8244 55.6269L55.8342 55.6149C55.8666 55.5799 55.8844 55.5338 55.8839 55.4861V38.907C55.8831 38.854 55.8617 38.8034 55.8241 38.7659C55.7865 38.7285 55.7358 38.7072 55.6828 38.7067ZM55.4817 55.2857H50.0149V47.4169H55.4802L55.4817 55.2857ZM55.4817 46.977H50.0149V39.1081H55.4802L55.4817 46.977Z" fill="black"/>
<path id="Vector_3" d="M137.779 58.3221C135.94 59.0369 134.81 59.9641 134.748 59.8632C133.408 57.6108 131.796 55.5319 129.949 53.6733C130.489 52.8319 131.048 52.0041 131.596 51.1696C128.23 48.5425 124.207 46.8903 119.966 46.3934V46.5908C119.966 47.6219 120.131 49.0176 120.054 49.038C117.766 49.6267 115.448 50.0888 113.109 50.4224C112.934 50.4605 112.756 50.478 112.577 50.4744C112.308 50.4337 111.447 48.9431 111.039 48.3714C108.439 49.7597 106.236 51.7867 104.636 54.2615C105.945 54.9394 107.002 55.7913 108.35 56.4187C108.433 56.4556 108.204 56.476 107.153 59.7201C106.863 60.9024 106.678 62.1079 106.601 63.3227C105.223 63.6519 103.808 63.7972 102.393 63.7551C102.475 66.8446 103.305 69.8682 104.81 72.5677C105.809 72.1107 106.764 71.5623 107.663 70.9295C109.702 75.4382 112.221 76.1455 111.944 76.3835C111.244 77.1202 110.584 77.8936 109.966 78.7004C112.099 80.4619 114.496 81.8759 117.069 82.8905C117.719 81.9431 118.166 80.8722 118.385 79.7443C118.4 79.5719 120.042 80.4222 126.531 80.8885C126.581 82.0525 126.732 83.21 126.983 84.348C130.512 83.7213 133.29 81.4858 135.386 78.6349C134.538 78.1392 133.726 77.5826 132.958 76.9695C132.792 76.8264 135.36 72.9021 136.131 69.1443C136.131 69.1414 136.132 69.1385 136.133 69.1358C136.134 69.1331 136.136 69.1307 136.138 69.1288C136.14 69.1268 136.143 69.1253 136.146 69.1244C136.149 69.1234 136.152 69.123 136.155 69.1232C137.209 69.2084 138.238 69.6836 139.286 69.8765C140.157 65.9676 139.623 61.8768 137.779 58.3221Z" fill="#FFD35C"/>
<path id="Vector_4" d="M123.025 79.7655C121.82 73.5484 121.863 73.9552 121.909 73.8798C122.224 73.2632 122.358 72.5702 122.296 71.8808C122.388 69.9087 122.067 67.9392 121.353 66.0984C119.269 61.4601 112.574 60.4605 111.07 67.8586C110.511 70.6116 111.436 72.9127 114.165 74.0282C114.169 74.1035 114.993 79.9101 115.051 80.2287C122.671 80.5006 122.746 80.5985 122.966 80.3349C123.016 80.2499 123.048 80.155 123.058 80.0567C123.068 79.9583 123.057 79.859 123.025 79.7655Z" fill="#A76C6C"/>
<path id="Vector_5" d="M112.871 66.0034C109.887 64.7056 113.452 62.2373 115.173 61.7929C122.273 59.9543 123.262 69.9095 124.678 72.1338C125.066 72.7424 124.782 73.8888 124.084 73.9272C123.708 73.9762 123.327 73.9014 122.997 73.7141C122.668 73.5268 122.409 73.2372 122.258 72.8893C122.466 73.3254 122.684 73.696 122.869 74.0628C122.944 74.1966 122.974 74.3512 122.955 74.5035C122.935 74.6559 122.867 74.7979 122.761 74.9085C122.654 75.0191 122.515 75.0924 122.363 75.1176C122.212 75.1427 122.056 75.1183 121.919 75.048C120.94 74.5155 120.546 73.4218 120.077 72.4253C118.658 69.4056 115.846 67.2959 112.871 66.0034Z" fill="#7D4AB4"/>
<path id="Vector_6" d="M117.829 69.3612C117.61 69.1832 117.353 69.0576 117.078 68.9939C116.803 68.9302 116.517 68.9301 116.242 68.9937C115.991 69.0517 116.097 69.4396 116.349 69.3808C117.329 69.1549 118.199 70.0188 117.887 70.6455C117.628 71.1675 116.698 71.7836 116.193 71.5765C115.955 71.4778 115.851 71.8664 116.086 71.9636C117.045 72.3568 119.406 70.6515 117.829 69.3612Z" fill="black"/>
<path id="Vector_7" d="M109.009 67.6388C113.008 67.333 119.377 66.8976 123.376 66.5918C123.465 67.2305 123.471 67.5552 123.56 68.1946C121.024 68.1771 118.49 68.3255 115.973 68.639C115.323 68.7776 113.886 69.9783 114.063 71.3762C112.035 71.3175 109.18 71.7634 108.904 71.2775C108.628 70.7917 108.457 67.7239 109.009 67.6388Z" fill="#6DD3A8"/>
<path id="Vector_8" d="M111.834 69.19C111.751 69.1899 111.67 69.2143 111.601 69.2602C111.532 69.3062 111.478 69.3715 111.447 69.448C111.415 69.5245 111.406 69.6088 111.422 69.6901C111.438 69.7713 111.478 69.846 111.537 69.9047C111.595 69.9633 111.67 70.0033 111.751 70.0195C111.832 70.0357 111.917 70.0275 111.993 69.9958C112.07 69.9641 112.135 69.9104 112.181 69.8416C112.227 69.7727 112.252 69.6917 112.252 69.6088C112.252 69.4979 112.208 69.3915 112.13 69.3129C112.051 69.2344 111.945 69.1902 111.834 69.19ZM113.2 68.7027C113.035 68.4274 112.795 68.2046 112.508 68.0603C112.221 67.9161 111.9 67.8562 111.58 67.8877C111.326 67.9163 111.323 68.3178 111.58 68.2899C111.829 68.259 112.082 68.3007 112.307 68.4098C112.533 68.519 112.723 68.691 112.853 68.9053C112.882 68.9476 112.925 68.9775 112.975 68.9889C113.025 69.0002 113.077 68.9922 113.121 68.9664C113.165 68.9406 113.198 68.899 113.213 68.85C113.227 68.801 113.222 68.7484 113.2 68.7027Z" fill="black"/>
<path id="Vector_9" d="M62.2607 99.2608C62.2449 99.2608 61.5181 95.1708 61.5316 95.161C62.066 94.7266 62.5499 94.2334 62.974 93.6907C61.8917 92.0525 59.5687 90.8104 57.7354 90.1642C57.5136 90.5968 57.3505 91.0571 57.2503 91.5328C57.2458 91.5546 51.9078 90.9972 51.9025 90.9807C51.7364 90.4423 51.6001 89.8951 51.4943 89.3417C49.7474 89.5013 48.0643 90.077 46.5856 91.0206C46.7093 91.7777 47.0476 92.4835 47.5602 93.0543C47.5708 93.0648 44.3289 97.6594 44.3101 97.6542C43.6871 97.4707 43.0331 97.4174 42.3886 97.4975C42.2042 99.3693 42.516 101.257 43.2925 102.97C44.0056 102.668 44.6745 102.271 45.281 101.79C45.2976 101.778 48.3082 105.899 48.2984 105.914C47.8915 106.54 47.5266 107.193 47.2062 107.867C48.2469 108.681 49.4495 109.264 50.7336 109.576C52.0177 109.887 53.3536 109.921 54.6518 109.675C54.6646 108.951 54.5659 108.43 54.5568 107.716C54.5568 107.705 58.9677 105.351 58.9805 105.359C59.4952 105.7 59.9746 106.093 60.4116 106.529C62.3951 104.654 63.7012 102.175 64.1257 99.4785C63.5187 99.3119 62.8898 99.2385 62.2607 99.2608ZM54.3595 100.843C54.1879 101.007 53.9816 101.131 53.7557 101.205C53.5299 101.28 53.2902 101.303 53.0544 101.272C52.8186 101.242 52.5925 101.159 52.3929 101.03C52.1934 100.9 52.0253 100.728 51.901 100.525C51.2676 99.4709 52.127 97.9863 53.2606 98.1189C53.5753 98.121 53.8823 98.2165 54.1426 98.3935C54.4029 98.5704 54.6048 98.8207 54.7225 99.1125C54.8403 99.4044 54.8687 99.7247 54.804 100.033C54.7394 100.341 54.5847 100.623 54.3595 100.843Z" fill="#6DD3A8"/>
<path id="Vector_10" d="M35.6877 65.9512C33.6291 63.6592 29.3313 62.8306 27.0294 64.8779C24.9084 66.7654 24.1311 70.4517 24.8052 73.3252C23.6957 77.5153 23.4991 79.4805 23.3319 84.5481L33.6095 85.403C33.6773 82.7901 33.3083 81.124 34.1617 77.248C34.7434 76.8897 35.2566 76.4306 35.6771 75.8922C37.6664 73.3026 38.0151 68.241 35.6877 65.9512Z" fill="#A76C6C"/>
<path id="Vector_11" d="M91.7581 22.4719C91.7581 22.4719 93.7918 55.7429 93.9492 58.3822C93.965 58.6391 94.3672 58.6406 94.3507 58.3822C94.3507 58.3822 92.317 25.1111 92.1603 22.4719C92.1437 22.215 91.7423 22.2135 91.7581 22.4719ZM97.603 10.8904C97.8079 15.3834 99.0545 42.8614 99.169 45.3915C99.181 45.6491 99.5825 45.6498 99.5712 45.3915L98.0045 10.8904C97.994 10.6328 97.591 10.6313 97.603 10.8904Z" fill="black"/>
<path id="Vector_12" d="M18.0869 109.819C17.9755 117.546 18.7921 125.259 20.519 132.792C23.6388 132.731 26.7549 132.574 29.8672 132.321C28.196 127.382 28.1564 122.038 29.7542 117.075C29.4583 122.274 30.2691 127.477 32.1328 132.34C32.1328 132.34 38.5849 132.621 40.7572 132.174C39.8277 123.337 39.4014 115.835 39.1204 107.133C29.828 108.876 26.8799 108.906 18.0869 109.819Z" fill="#FF8684"/>
<path id="Vector_13" d="M45.5148 59.0941C38.5039 65.9047 34.7024 71.8988 33.437 81.4767C33.4364 81.5074 33.4288 81.5376 33.4149 81.5651C33.4009 81.5925 33.381 81.6164 33.3565 81.635C33.332 81.6536 33.3036 81.6664 33.2735 81.6725C33.2433 81.6787 33.2122 81.6779 33.1824 81.6703L23.9608 79.2502C23.0225 80.4803 22.1479 81.7577 21.3403 83.0773C16.2848 86.4532 8.87086 91.3935 7.38099 97.1104C6.59614 100.123 6.94488 103.293 7.29889 106.382C7.50753 108.203 7.9105 110.316 9.54875 111.138C11.3459 112.041 13.595 110.686 14.4605 108.87C14.7128 108.343 14.5531 108.086 14.7023 110.188C28.0251 108.629 26.9405 109.484 43.0563 106.383C43.0495 106.236 43.1316 96.645 43.2175 93.9296C43.4382 87.0949 43.7086 83.1631 46.6394 73.9483C47.8995 69.9856 49.3306 66.0802 50.6073 62.1228C48.7972 61.3158 47.0881 60.2993 45.5148 59.0941Z" fill="#FCAFB7"/>
<path id="Vector_14" d="M33.8266 64.2092C33.2241 61.573 30.0809 60.5825 27.8054 60.0439C26.7976 59.8052 23.4134 58.0102 23.668 60.1607C23.7599 60.9365 24.843 61.6588 23.6025 62.1748C22.5035 62.6312 21.4551 61.0337 20.396 62.3254C19.8055 63.0462 20.6792 64.2634 20.0345 64.7214C19.3491 65.2087 18.2554 63.8416 17.3982 63.987C16.1411 64.2002 16.4017 65.5341 17.0216 66.3544C17.7334 67.2966 19.0756 67.8849 20.0593 68.4875C21.1536 69.069 22.1305 69.8484 22.9404 70.7863C23.503 71.5252 23.7162 72.4969 24.718 72.7793C26.5257 73.29 29.5386 70.7592 30.8597 69.7047C32.4739 68.4137 34.3426 66.4817 33.8266 64.2092ZM95.1693 60.0861L95.9978 73.7525C96.0097 73.9492 95.9813 74.1463 95.9144 74.3317C95.8474 74.5171 95.7432 74.6869 95.6083 74.8306C95.4734 74.9743 95.3106 75.089 95.1298 75.1676C94.949 75.2461 94.7541 75.287 94.5569 75.2875H94.5178C94.3385 75.2886 94.1608 75.2528 93.9959 75.1823C93.8311 75.1117 93.6824 75.008 93.5594 74.8776C93.4363 74.7472 93.3414 74.5928 93.2805 74.4241C93.2197 74.2554 93.1942 74.076 93.2057 73.8971C93.467 70.0594 93.0852 63.0078 92.9225 60.3588C92.9038 60.0478 93.0086 59.7419 93.2141 59.5077C93.4195 59.2735 93.7091 59.1297 94.0199 59.1077C94.1601 59.0937 94.3017 59.1082 94.4362 59.1503C94.5707 59.1923 94.6954 59.2611 94.8027 59.3525C94.91 59.4438 94.9978 59.5559 95.0608 59.6819C95.1238 59.808 95.1607 59.9454 95.1693 60.0861Z" fill="#FFD35C"/>
<path id="Vector_15" d="M95.8 70.8833C95.8347 70.234 94.6197 69.9576 93.9983 69.9041C93.9939 69.904 93.9896 69.9027 93.9859 69.9003C93.9822 69.8979 93.9792 69.8946 93.9772 69.8906C93.9753 69.8866 93.9745 69.8822 93.9749 69.8778C93.9753 69.8734 93.9769 69.8692 93.9795 69.8657C94.2529 69.5523 95.5846 68.9904 95.2396 68.4624C94.8946 67.9344 93.7934 68.3607 93.2888 68.3382C93.1186 68.3314 93.862 67.6301 93.9667 67.5171C94.0352 67.445 94.0848 67.3569 94.1109 67.2609C94.1371 67.1649 94.1391 67.0638 94.1167 66.9669C94.0944 66.8699 94.0483 66.7799 93.9827 66.7051C93.9171 66.6303 93.8339 66.5728 93.7407 66.538C93.407 66.4077 91.399 66.3617 91.222 67.484C91.0352 68.6711 90.825 70.3319 91.7831 71.119C92.9137 72.0515 95.7706 71.4444 95.8 70.8833ZM96.1028 63.4588C96.1531 63.3352 96.242 63.2312 96.3563 63.1623C96.4706 63.0934 96.6041 63.0633 96.7369 63.0765C96.8696 63.0897 96.9946 63.1456 97.093 63.2356C97.1915 63.3257 97.2582 63.4452 97.2831 63.5763C97.2982 63.6554 98.9492 72.4115 98.5801 73.1655C98.1817 73.979 96.8432 74.3104 96.3958 73.5218C96.395 73.5218 95.8 64.2489 96.1028 63.4588Z" fill="#A76C6C"/>
<path id="Vector_16" d="M135.856 130.364C132.735 120.697 129.46 110.723 126.847 103.844C126.702 103.844 126.558 103.838 126.415 103.834C129.713 112.503 131.996 119.745 135.407 130.282C133.488 130.874 128.366 131.764 126.391 132.09C120.3 114.132 119.055 113.065 118.143 103.977C118.219 103.977 117.818 103.999 117.742 104.005C118.701 113.509 119.977 114.375 126.063 132.369C126.079 132.42 126.113 132.462 126.159 132.488C126.205 132.514 126.259 132.522 126.31 132.509C128.378 132.172 133.712 131.258 135.716 130.611C135.767 130.596 135.809 130.562 135.836 130.516C135.862 130.47 135.869 130.415 135.856 130.364Z" fill="black"/>
<path id="Vector_17" d="M117.742 104.005C115.81 104.136 113.886 104.327 111.971 104.58C111.807 113.953 112.403 123.323 113.753 132.6C113.979 132.281 121.802 131.446 122.977 131.284C122.874 128.56 122.789 125.702 122.711 122.79C119.573 113.951 118.511 111.595 117.742 104.005Z" fill="#FF8684"/>
<path id="Vector_18" d="M126.416 103.834C121.4 103.699 118.381 103.977 118.144 103.977C119.065 113.157 120.279 114.063 126.392 132.09C128.359 131.766 133.481 130.875 135.408 130.283C131.88 119.384 129.63 112.279 126.416 103.834Z" fill="#FF8684"/>
<path id="Vector_19" d="M122.838 135.034C122.838 135.012 122.834 134.99 122.826 134.969C122.818 134.948 122.806 134.93 122.79 134.914C122.774 134.898 122.755 134.886 122.735 134.878C122.714 134.869 122.692 134.865 122.67 134.866C119.738 134.466 111.2 134.279 109.493 136.648C109.351 136.802 109.26 136.996 109.232 137.204C109.205 137.411 109.241 137.622 109.338 137.808C109.698 138.325 109.226 138.137 122.794 138.063C122.847 138.062 122.898 138.041 122.935 138.003C122.973 137.966 122.994 137.915 122.995 137.862C123.018 136.917 122.965 135.971 122.838 135.034ZM137.021 134.872C137.02 134.833 137.005 134.795 136.978 134.766C136.952 134.736 136.916 134.717 136.877 134.712C134.338 134.251 129.675 134.37 127.098 135.591C124.589 136.776 125.332 138.137 126.839 138.113L137.131 137.963C137.184 137.962 137.235 137.941 137.272 137.903C137.31 137.865 137.331 137.815 137.332 137.761C137.318 136.791 137.214 135.823 137.021 134.872ZM30.8074 139.581C29.5574 138.081 27.9051 136.97 26.0448 136.377C23.4839 135.722 20.5358 137.115 20.2097 139.669C20.2006 139.707 20.2074 139.748 20.2284 139.782C20.2494 139.816 20.2831 139.84 20.3219 139.849C20.3972 139.886 19.7291 139.865 30.6651 139.925C30.7046 139.924 30.743 139.912 30.7757 139.89C30.8084 139.867 30.8338 139.836 30.849 139.8C30.8641 139.763 30.8682 139.723 30.8608 139.684C30.8535 139.645 30.8349 139.61 30.8074 139.581ZM44.937 139.571C43.4833 137.923 42.7429 137.203 40.719 136.708C39.7528 136.44 38.748 136.338 37.7476 136.407C35.6649 136.611 33.7028 137.676 32.945 139.651C32.9351 139.681 32.9325 139.713 32.9377 139.744C32.9428 139.775 32.9555 139.805 32.9746 139.83C32.9937 139.855 33.0186 139.875 33.0472 139.888C33.0757 139.901 33.1071 139.907 33.1386 139.906C35.1633 139.789 42.7723 140.029 44.7946 139.913C44.8336 139.911 44.8712 139.898 44.9032 139.876C44.9351 139.854 44.9601 139.823 44.975 139.787C44.99 139.751 44.9944 139.712 44.9876 139.673C44.9809 139.635 44.9633 139.599 44.937 139.571Z" fill="black"/>
<path id="Vector_20" d="M85.177 59.5791C84.62 59.5537 84.0806 59.3766 83.6171 59.0669C83.1527 58.7151 82.7637 58.2738 82.4729 57.7691C80.8505 55.2081 81.7272 54.7788 81.087 56.3696C79.9964 59.094 77.8339 59.8246 75.5177 59.0639C77.4761 61.0975 77.0385 63.0258 74.7517 64.7988C78.044 64.3876 79.973 65.2756 79.8789 68.6312C81.6376 65.4361 83.2352 65.0331 86.2021 65.8285C85.5714 65.2733 85.1266 64.5376 84.9282 63.7211C84.7297 62.9046 84.7871 62.0468 85.0926 61.264C85.2919 60.5746 85.6509 59.9419 86.1403 59.4171C85.8304 59.5241 85.5049 59.5789 85.177 59.5791Z" fill="#FFD35C"/>
<path id="Vector_21" d="M7.65832 108.275C6.49611 109.114 4.07226 113.411 3.81692 114.635C3.68511 115.272 3.7416 116.21 4.76221 115.539C5.57055 114.766 6.24889 113.869 6.77104 112.88C6.59328 113.353 5.85738 115.735 5.98468 116.148C6.16018 116.72 6.7507 116.937 7.26515 116.286C7.53254 115.948 8.90791 113.884 9.12935 113.513C9.04048 114.088 7.99351 116.799 8.88757 117.129C10.15 117.591 12.1076 112.905 12.271 111.733C12.4269 110.616 12.4292 109.338 11.4696 108.748C10.51 108.159 8.57198 107.615 7.65832 108.275ZM45.8908 58.1239C47.3665 55.5198 49.3183 53.2162 51.6446 51.3329C51.9746 51.0813 52.3933 51.4692 52.2103 51.8601C51.8036 52.7256 51.3629 53.6754 51.0526 54.3066C51.8691 53.8125 52.5658 54.6079 52.1463 55.2421C52.8279 54.5823 53.1857 55.1246 53.3831 55.3521C53.8124 55.8477 52.7127 60.0069 51.0933 61.0592L45.8908 58.1239Z" fill="#A76C6C"/>
<path id="Vector_22" d="M100.564 47.1701C100.556 47.0296 100.519 46.8922 100.456 46.7662C100.393 46.6402 100.306 46.5282 100.198 46.4368C100.091 46.3454 99.9668 46.2766 99.8325 46.2343C99.6981 46.1921 99.5567 46.1773 99.4165 46.1909C99.1057 46.213 98.8162 46.3567 98.6107 46.591C98.4053 46.8252 98.3005 47.131 98.3191 47.442C98.481 50.0918 98.8637 57.1427 98.6023 60.9803C98.5908 61.1593 98.6163 61.3388 98.6772 61.5075C98.738 61.6762 98.8329 61.8306 98.956 61.9611C99.079 62.0916 99.2276 62.1954 99.3925 62.266C99.5574 62.3366 99.735 62.3725 99.9144 62.3715H99.9536C100.151 62.371 100.346 62.3301 100.526 62.2516C100.707 62.173 100.87 62.0583 101.005 61.9146C101.14 61.7709 101.244 61.6011 101.311 61.4157C101.377 61.2303 101.406 61.0332 101.394 60.8365L100.564 47.1701ZM64.1449 47.0157V39.1069H58.6766V47.0157H64.1449Z" fill="#FF8684"/>
<path id="Vector_23" d="M64.3462 38.7067H58.4786C58.4256 38.7073 58.3749 38.7285 58.3373 38.766C58.2998 38.8034 58.2783 38.854 58.2775 38.907V55.4861C58.2783 55.5392 58.2997 55.5899 58.3373 55.6274C58.3748 55.665 58.4255 55.6864 58.4786 55.6872C64.9435 55.6872 64.365 55.7173 64.4878 55.6269L64.4968 55.6149C64.5299 55.5802 64.548 55.534 64.5473 55.4861V38.907C64.5463 38.8541 64.5248 38.8035 64.4873 38.7662C64.4497 38.7288 64.3991 38.7074 64.3462 38.7067ZM58.6797 39.1081H64.1451V46.9762H58.6767L58.6797 39.1081ZM64.1451 55.2857H58.6767V47.4176H64.1451V55.2857ZM33.0937 73.2326C32.8409 73.2474 32.5896 73.1844 32.3738 73.052C32.1579 72.9196 31.9878 72.7242 31.8864 72.4921C31.7851 72.2601 31.7573 72.0025 31.8068 71.7542C31.8563 71.5058 31.9808 71.2786 32.1635 71.1032C32.3482 70.9302 32.5781 70.8131 32.8267 70.7652C33.0752 70.7174 33.3322 70.7409 33.5679 70.833C33.8036 70.9251 34.0085 71.0821 34.1588 71.2857C34.309 71.4893 34.3986 71.7314 34.4171 71.9838C34.4171 72.0371 34.4383 72.0882 34.476 72.126C34.5137 72.1637 34.5649 72.1849 34.6182 72.1849C34.6716 72.1849 34.7227 72.1637 34.7604 72.126C34.7982 72.0882 34.8193 72.0371 34.8193 71.9838C34.8079 71.7259 34.7388 71.4738 34.617 71.2462C34.4953 71.0186 34.324 70.8211 34.1159 70.6684C33.9078 70.5157 33.668 70.4116 33.4144 70.3638C33.1607 70.316 32.8995 70.3257 32.6501 70.3922C32.4006 70.4528 32.1688 70.5709 31.9731 70.7369C31.7773 70.903 31.6231 71.1125 31.5226 71.3488C31.4222 71.585 31.3783 71.8414 31.3945 72.0976C31.4107 72.3538 31.4865 72.6026 31.6159 72.8243C31.776 73.0718 31.9954 73.2753 32.2541 73.4165C32.5129 73.5576 32.8028 73.6319 33.0975 73.6326C33.1468 73.6269 33.1923 73.6031 33.2252 73.5659C33.258 73.5286 33.276 73.4805 33.2755 73.4309C33.275 73.3812 33.2562 73.3335 33.2226 73.2969C33.1891 73.2603 33.1432 73.2374 33.0937 73.2326ZM112.306 48.6484C116.546 37.6175 116.687 38.6494 122.656 28.0472C122.681 28.0012 122.687 27.9474 122.673 27.8971C122.659 27.8467 122.625 27.8039 122.58 27.7775C122.535 27.7512 122.482 27.7435 122.431 27.756C122.38 27.7685 122.336 27.8002 122.308 27.8445C116.643 37.9128 116.218 37.3524 111.914 48.5414C111.827 48.7824 112.215 48.8879 112.306 48.6484ZM140.325 62.085C141.278 60.0995 146.185 49.8957 146.856 48.4977C146.967 48.2657 146.621 48.0616 146.509 48.2951C145.555 50.2806 140.649 60.4844 139.978 61.8824C139.867 62.1144 140.214 62.3185 140.325 62.085ZM47.2369 49.7496C45.4364 47.181 43.8053 44.4979 42.3538 41.7173C42.234 41.4913 41.8868 41.6909 42.0065 41.9206C43.4578 44.7014 45.0892 47.3843 46.8904 49.9522C47.0373 50.1638 47.386 49.9627 47.2369 49.7496ZM45.4954 50.9012C43.176 50.1345 40.887 49.2861 38.6284 48.3561C38.3896 48.2567 38.2856 48.6461 38.5214 48.7433C40.7811 49.6727 43.0701 50.5211 45.3885 51.2884C45.631 51.369 45.7365 50.9818 45.4954 50.9012ZM43.5446 53.7845C41.8137 54.1099 40.0828 54.4341 38.3519 54.757C38.0981 54.8044 38.2013 55.1923 38.4589 55.1441L43.6516 54.1725C43.9061 54.1242 43.7984 53.7371 43.5446 53.7845Z" fill="black"/>
<path id="Vector_24" d="M128.136 82.6977C127.105 80.7665 125.003 79.602 122.896 79.0069C122.073 78.7992 121.238 78.6433 120.396 78.54C118.944 78.3375 117.464 78.4974 116.089 79.0054C112.54 75.8111 105.478 75.0134 100.782 70.3231L98.0703 76.3978C101.281 80.597 105.477 83.9408 110.287 86.1339C109.759 88.1051 109.266 90.138 108.841 92.1732C106.439 91.7581 104.616 90.6532 101.622 90.8422L102.101 96.4469C104.064 96.6514 106.001 97.0586 107.881 97.6619C107.509 100.188 107.343 102.741 107.385 105.294C114.942 103.918 122.641 103.488 130.305 104.014C129.643 96.8348 129.44 85.1389 128.136 82.6977Z" fill="#FCAFB7"/>
<path id="Vector_25" d="M92.7623 88.4273C92.9784 88.2887 92.7781 87.94 92.5589 88.0809C90.5561 89.3613 88.2241 93.04 86.8555 95.0436C86.7094 95.2583 87.0574 95.4594 87.2028 95.247C88.4667 93.391 90.7979 89.6822 92.7623 88.4273ZM88.3537 96.5756C89.479 95.7825 93.0327 90.5288 94.0638 89.802C94.2732 89.6513 94.0729 89.3056 93.8612 89.4555C92.6998 90.2735 89.2206 95.4744 88.1511 96.2284C87.9387 96.376 88.139 96.7248 88.3537 96.5756ZM89.7705 97.8825C91.3334 95.9768 93.8153 92.2883 95.7962 91.2195C96.0222 91.0967 95.8218 90.7495 95.5936 90.873C93.5396 91.9833 90.999 95.7554 89.4888 97.5985C89.3231 97.7973 89.6063 98.0828 89.7705 97.8825Z" fill="black"/>
<path id="Vector_26" d="M125.047 85.409C123.735 78.6783 117.325 79.1822 116.837 82.3457C116.704 83.1968 117.177 84.9722 116.525 87.2846C116.193 88.6295 115.413 89.8214 114.314 90.6644C113.215 91.5074 111.861 91.9512 110.476 91.9229C107.208 91.8995 105.273 90.1438 101.406 90.4511C101.353 90.4517 101.302 90.473 101.264 90.5106C101.227 90.5481 101.205 90.599 101.204 90.6522C101.355 92.4004 101.695 96.3909 101.717 96.638C101.749 97.0236 101.972 96.6305 104.44 97.1758C104.938 97.7864 105.415 98.3993 105.871 99.0144C98.6403 105.321 97.6777 106.17 97.4118 106.376C96.5961 106.995 95.9807 107.106 95.2426 106.441C95.0106 106.232 84.9635 95.8207 84.8904 95.7454C86.3373 91.7775 88.9314 88.7548 92.3141 86.0598C94.6762 87.7532 96.9395 89.5802 99.093 91.5319C99.2512 91.495 99.4109 91.4634 99.5706 91.4348C98.0498 90.0306 96.4665 88.6958 94.8253 87.4344C93.0854 78.2768 88.3559 61.4861 88.3235 61.4108C88.1594 60.0763 87.692 58.7971 86.9572 57.6711C86.2225 56.545 85.2398 55.6021 84.0844 54.9143C81.7193 53.4975 80.1986 53.5698 78.5182 54.1739C71.5374 56.6851 62.8385 66.3504 58.3433 73.0857C54.5546 72.1976 50.9105 73.8283 50.2507 77.8987C49.8847 80.3632 51.6065 82.9242 53.6914 84.1015C55.9691 85.3819 58.8735 84.7259 60.792 83.0884C61.6569 82.3678 62.3117 81.4275 62.6876 80.3664C63.0635 79.3053 63.1466 78.1625 62.9281 77.0581C65.3579 76.023 67.8134 75.0493 70.2923 74.1379C66.2114 91.4619 65.9154 94.944 69.5579 100.129C74.1759 106.703 84.5658 108.053 90.703 102.358C92.7509 104.481 94.5127 106.303 94.8456 106.622C95.09 106.911 95.4181 107.117 95.7846 107.211C96.151 107.306 96.5378 107.284 96.8914 107.149C97.555 106.876 96.7844 107.469 106.284 99.1839C106.315 99.1525 106.336 99.1117 106.341 99.0676C106.347 99.0236 106.338 98.9789 106.316 98.9406C105.904 98.3882 105.487 97.8489 105.065 97.3227C107.58 97.9403 110.363 98.9368 113.239 98.991C116.587 99.0543 119.254 97.9162 122.099 94.2458C124.082 91.6916 125.667 88.5854 125.047 85.409ZM84.4603 95.7409C84.4113 95.8787 84.5168 95.942 84.9582 96.3985C84.481 96.9046 83.9022 97.304 83.2597 97.5705C79.4454 99.1808 75.9377 96.2094 75.9075 92.5307C75.8754 91.7069 76.0227 90.8859 76.3392 90.1246C76.6558 89.3633 77.134 88.6799 77.7408 88.1217C78.3476 87.5636 79.0685 87.144 79.8535 86.892C80.6386 86.64 81.469 86.5617 82.2873 86.6624C84.5673 86.874 86.1339 89.2889 86.3599 91.8438C85.5815 93.0669 84.9443 94.3743 84.4603 95.7409ZM87.028 66.0085C86.5715 65.7026 86.18 65.3096 85.8757 64.852C85.5714 64.3944 85.3605 63.8813 85.2549 63.3421C85.1674 62.2153 85.4467 61.0905 86.0511 60.1356C86.3684 59.6878 86.7717 59.3076 87.2374 59.0171C87.759 60.1157 88.012 61.3225 87.9756 62.538C87.9392 63.7536 87.6144 64.9431 87.028 66.0085ZM80.5948 70.1376C75.9866 71.6568 73.3022 72.6074 70.8444 73.509C71.2527 71.6779 72.8992 64.6353 73.3014 62.9436C73.5439 67.3432 76.6208 70.0916 80.5948 70.1376ZM74.4056 58.5825L74.4124 58.5908C77.2513 60.9258 76.8732 62.8148 74.0132 64.8425C73.4631 62.7683 73.6008 60.5717 74.4056 58.5825ZM74.1601 65.2921C75.6062 65.0225 77.9646 64.8771 78.8481 66.0657C79.526 66.9756 79.5606 68.4971 79.3889 69.6262C78.2051 69.4488 77.0923 68.9514 76.1708 68.1875C75.2492 67.4237 74.5539 66.4225 74.1601 65.2921ZM79.8092 69.6909C80.3299 68.3978 81.1663 67.2558 82.2421 66.3692C83.5497 65.4586 85.3679 65.9926 86.7885 66.4099C86.065 67.5709 85.0214 68.4982 83.7834 69.0803C82.5454 69.6624 81.1656 69.8744 79.8099 69.6909H79.8092ZM87.0446 58.6307C85.8281 59.1519 85.1329 59.4547 83.9669 58.8122C82.8371 58.1863 81.7073 55.6148 81.5107 54.2681C82.6877 54.5663 83.7887 55.1088 84.7422 55.8605C85.6958 56.6121 86.4805 57.5559 87.0453 58.6307H87.0446ZM83.6152 59.0661C84.0789 59.3755 84.6182 59.5526 85.1751 59.5782C85.503 59.5781 85.8285 59.5233 86.1385 59.4163C84.8738 60.7721 84.3586 63.22 85.4033 64.8786C85.6279 65.2273 85.8956 65.5462 86.2002 65.8277C85.1092 65.4535 83.9356 65.3903 82.8108 65.6454C81.5514 66.0303 80.5097 67.4802 79.877 68.6304C79.9704 65.3042 78.0775 64.383 74.7498 64.798C77.255 62.8562 77.2934 60.9092 75.5159 59.063C78.1815 59.9398 80.6068 58.7527 81.3744 55.4393C81.745 56.6166 82.6458 58.3972 83.6159 59.0661H83.6152ZM81.0882 54.1927C81.1145 55.4307 80.7092 56.6391 79.9418 57.6108C79.6003 58.0431 79.1627 58.3898 78.6637 58.6232C78.1647 58.8566 77.6182 58.9703 77.0675 58.9553C76.1873 58.8651 75.3282 58.6291 74.5254 58.2571C75.0811 56.9962 76.0056 55.933 77.1772 55.2076C78.3487 54.4821 79.7124 54.1283 81.0889 54.1927H81.0882ZM58.5128 73.5504C59.3829 73.7392 60.1935 74.1382 60.8739 74.7125C61.5543 75.2868 62.0837 76.0189 62.4159 76.845C60.8869 77.4978 59.3699 78.1797 57.865 78.8907C57.968 78.7009 58.023 78.4887 58.0253 78.2728C58.0275 78.0568 57.9769 77.8436 57.8778 77.6517C57.7141 77.3961 57.4786 77.1945 57.2009 77.0723C56.9231 76.9501 56.6154 76.9127 56.3164 76.9647C57.0372 75.8161 57.7648 74.675 58.5135 73.5466L58.5128 73.5504ZM57.6247 78.2497C57.6254 78.3905 57.5974 78.5299 57.5422 78.6594C57.487 78.7889 57.4059 78.9057 57.3039 79.0026C57.2018 79.0996 57.081 79.1746 56.9489 79.2231C56.8168 79.2716 56.6761 79.2926 56.5356 79.2846C56.3913 79.2558 56.2546 79.1971 56.1343 79.1122C56.0141 79.0274 55.913 78.9183 55.8374 78.792C55.7618 78.6657 55.7136 78.525 55.6956 78.379C55.6777 78.2329 55.6906 78.0847 55.7334 77.9439C55.8203 77.7419 55.972 77.5746 56.1647 77.4686C56.3573 77.3626 56.5798 77.3238 56.797 77.3585C57.0141 77.3932 57.2135 77.4993 57.3636 77.66C57.5136 77.8207 57.6058 78.0269 57.6255 78.246L57.6247 78.2497ZM54.6729 84.1158C52.371 83.3091 50.2771 80.419 50.6379 78.0094C50.7461 76.9393 51.185 75.9295 51.8935 75.1203C52.6021 74.311 53.5451 73.7426 54.5915 73.4939C55.7447 73.202 56.9501 73.1826 58.112 73.4374C57.2785 74.6928 56.463 75.9617 55.6656 77.2442C54.6563 78.8463 55.9458 80.0311 57.1833 79.5679C57.4093 79.4835 57.276 79.4797 62.5312 77.2284C63.6015 81.5533 58.6272 85.4972 54.6736 84.112L54.6729 84.1158ZM62.8076 76.6732C62.4516 75.8156 61.8991 75.0537 61.1945 74.4488C60.49 73.8439 59.6532 73.4131 58.7515 73.1911C63.4215 66.1983 67.8067 61.3046 75.033 56.53C74.4507 57.318 74.0313 58.2142 73.7993 59.1662C73.4739 60.3397 70.4972 73.21 70.394 73.6709C63.9389 76.0579 62.9695 76.6695 62.8091 76.6695L62.8076 76.6732ZM70.7352 73.9782C75.0067 72.4063 78.543 71.2328 82.5758 69.9161C84.1432 69.5265 85.5462 68.6485 86.5819 67.4091C87.6175 66.1696 88.2322 64.633 88.3371 63.0212C90.8318 72.4417 92.5114 77.9808 94.1 85.8806C93.6897 84.9495 93.1559 84.078 92.5129 83.2895C89.3103 79.4082 83.0345 77.4626 78.6733 78.0403C76.4378 78.4561 74.3341 79.4005 72.5377 80.7946C70.7414 82.1887 69.3044 83.9922 68.3467 86.0545C69.0706 81.8162 69.8095 78.1639 70.7367 73.9745L70.7352 73.9782ZM69.9488 84.161C72.1738 81.4494 74.4305 79.6959 77.5021 78.7024C81.4068 77.4573 90.1561 79.3886 93.3113 85.1801C93.6064 85.7237 93.8602 86.2887 94.0706 86.8703C93.5227 86.4565 92.9676 86.0468 92.4052 85.641C92.3721 85.6143 92.3298 85.6018 92.2874 85.6061C92.2451 85.6105 92.2062 85.6315 92.1793 85.6644C90.2389 87.1658 88.5056 88.9171 87.0243 90.8729C86.849 89.9774 86.5176 89.1197 86.0451 88.3391L87.4596 87.5979C87.9944 87.3177 87.5206 86.508 86.9866 86.7882C86.487 87.0488 85.9881 87.3099 85.4899 87.5715C85.116 87.1277 84.6683 86.7516 84.1665 86.4598C84.8464 84.7259 85.6491 83.0427 86.5686 81.423C86.629 81.3157 86.6449 81.1888 86.6127 81.0699C86.5804 80.951 86.5027 80.8495 86.3963 80.7874C86.2899 80.7253 86.1633 80.7075 86.0439 80.7379C85.9245 80.7684 85.8218 80.8445 85.7581 80.95C84.8259 82.601 84.0099 84.3149 83.3162 86.0794C82.9153 85.9391 82.4949 85.8629 82.0703 85.8534C82.0167 85.0522 82.048 84.2476 82.1637 83.4529C82.2074 83.1999 81.8203 83.0914 81.7773 83.3467C81.6244 84.1728 81.599 85.0174 81.702 85.8512C81.0768 85.8771 80.4569 85.9783 79.8559 86.1525C79.1403 84.2478 78.4853 82.3221 77.8908 80.3753C77.716 79.7998 76.8106 80.0454 76.9869 80.6246C77.5839 82.583 78.2438 84.5218 78.9663 86.4409C78.4523 86.6299 77.9641 86.883 77.5134 87.1942C76.8322 86.6737 76.2328 86.0542 75.735 85.3563C75.6699 85.2515 75.567 85.1756 75.4477 85.1444C75.3283 85.1131 75.2014 85.1289 75.0933 85.1883C74.9867 85.2519 74.9094 85.3548 74.8778 85.4748C74.8463 85.5947 74.8631 85.7223 74.9246 85.8301C75.4575 86.5727 76.0893 87.2392 76.8023 87.8111C76.4587 88.1791 76.1732 88.5974 75.9557 89.0516C74.2877 88.1474 72.7519 87.0183 71.3912 85.696C70.9589 85.275 70.2953 85.937 70.7284 86.3588C72.168 87.7715 73.8059 88.9666 75.5904 89.9065C75.4293 90.3639 75.3059 90.8337 75.2213 91.3112C74.1822 91.1628 73.1229 91.2571 72.1264 91.5869C72.032 91.6466 71.9618 91.7378 71.9284 91.8444C71.895 91.9509 71.9005 92.0658 71.9439 92.1687C71.9873 92.2716 72.0658 92.3558 72.1654 92.4062C72.265 92.4566 72.3793 92.47 72.4879 92.4441C73.3426 92.2037 74.2327 92.1145 75.1182 92.1805C75.0738 93.158 75.2496 94.1331 75.6326 95.0336L70.2351 97.2692C70.1174 97.3057 70.018 97.3857 69.9572 97.4929C69.8963 97.6 69.8785 97.7263 69.9074 97.8461C69.9412 97.9656 70.0207 98.067 70.1287 98.1282C70.2367 98.1894 70.3645 98.2055 70.4844 98.173C72.3423 97.4048 74.1987 96.6357 76.0537 95.8659C76.3136 96.3022 76.6235 96.7066 76.9771 97.0711C76.1741 97.7069 75.5604 98.5503 75.2025 99.51C75.1705 99.6299 75.1869 99.7576 75.2482 99.8656C75.3095 99.9735 75.4108 100.053 75.5302 100.087C75.65 100.117 75.7769 100.1 75.8844 100.039C75.9919 99.9779 76.0717 99.8777 76.1071 99.7593C76.4234 98.9327 76.9758 98.2173 77.6957 97.7023C78.2573 98.1266 78.8973 98.4358 79.5787 98.6122L79.013 104.048C78.9377 104.187 78.9528 104.261 78.9603 104.554C78.9652 104.675 79.0167 104.79 79.1041 104.874C79.1915 104.958 79.308 105.005 79.4292 105.005C79.5504 105.005 79.6669 104.958 79.7543 104.874C79.8417 104.79 79.8932 104.675 79.8981 104.554L80.5006 98.7771C81.3425 98.8616 82.1927 98.7718 82.9983 98.5135L83.7131 100.334C83.749 100.452 83.8288 100.552 83.936 100.612C84.0432 100.673 84.1697 100.691 84.2893 100.661C84.4087 100.627 84.5099 100.548 84.5712 100.44C84.6325 100.332 84.649 100.205 84.617 100.085L83.8638 98.1685C84.2187 97.9967 84.556 97.7906 84.8708 97.5532C85.3815 97.8755 85.5894 98.231 88.6896 102.094C88.7781 102.181 88.8973 102.229 89.0214 102.229C89.1455 102.229 89.2647 102.181 89.3532 102.094C89.4385 102.004 89.486 101.886 89.486 101.762C89.486 101.639 89.4385 101.52 89.3532 101.431C88.3213 100.146 87.6118 99.2584 87.1101 98.6333C88.1699 99.733 89.3329 100.94 90.4303 102.078C83.4013 108.576 70.6395 105.622 67.931 95.8584C67.9023 95.7477 65.9545 89.0298 69.9503 84.1572L69.9488 84.161ZM122.215 93.4255C118.327 98.86 114.547 99.4068 108.316 97.7791C106.282 97.2519 104.109 96.5167 102.097 96.4474L101.618 90.8427C105.211 90.6168 107.116 92.2294 110.293 92.3236C111.697 92.3935 113.086 92.003 114.248 91.2115C115.41 90.42 116.282 89.2707 116.731 87.9383C117.247 86.3351 117.41 84.6393 117.209 82.9671C116.959 79.8518 122.914 78.908 124.498 84.8208C125.355 88.0212 124.151 90.7162 122.217 93.424L122.215 93.4255Z" fill="black"/>
<path id="Vector_27" d="M101.248 91.1946C100.259 91.2804 99.2819 91.4682 98.3317 91.755C96.798 92.5001 95.4108 93.515 94.2364 94.7513C94.1801 94.8173 94.1471 94.9001 94.1426 94.9868C94.1382 95.0735 94.1625 95.1593 94.2118 95.2308C94.2611 95.3022 94.3326 95.3554 94.4153 95.382C94.4979 95.4086 94.587 95.4072 94.6688 95.3779C95.5606 95.0706 97.2485 94.1449 97.9076 94.0673C97.1622 94.7899 96.5197 95.6116 95.9982 96.5093C95.9301 96.6308 95.9047 96.7716 95.9259 96.9093C95.9472 97.047 96.0139 97.1735 96.1155 97.2689C96.217 97.3642 96.3476 97.4228 96.4863 97.4353C96.6251 97.4478 96.764 97.4135 96.881 97.3378C97.5423 96.9062 98.7083 96.101 99.0397 95.8487C98.5581 96.6025 98.1392 97.3945 97.7871 98.2168C97.7182 98.3549 97.6953 98.5113 97.7216 98.6633C97.7479 98.8153 97.8221 98.955 97.9334 99.0619C98.0446 99.1687 98.1871 99.2373 98.3401 99.2575C98.493 99.2777 98.6484 99.2485 98.7836 99.1742C99.8503 98.2706 100.818 97.2567 101.671 96.1492L101.248 91.1946Z" fill="#A76C6C"/>
<path id="Vector_28" d="M51.0553 61.9969C51.056 61.9646 51.0468 61.9328 51.0289 61.9059C51.0109 61.879 50.9852 61.8582 50.9551 61.8463C46.014 59.5821 45.7142 58.3431 45.3557 58.6881C38.3395 65.4768 34.4122 71.4875 33.0715 81.2266L23.9342 78.8276C23.8917 78.8175 23.847 78.8209 23.8065 78.8374C23.766 78.8538 23.7317 78.8825 23.7083 78.9195C16.8381 87.9175 13.496 99.1176 14.3119 110.409C14.3194 110.507 14.3985 110.624 14.5122 110.61C26.7505 109.169 27.0427 109.872 43.313 106.741C43.3558 106.73 43.3937 106.705 43.4209 106.67C43.4481 106.635 43.4631 106.592 43.4636 106.547C43.4568 105.342 43.5156 97.6685 43.5886 95.0405C43.8018 87.2824 44.0835 83.676 46.5767 75.5044C47.778 71.559 51.0553 62.2847 51.0553 61.9969ZM43.2173 93.9333C43.1299 96.6449 43.0501 106.248 43.0561 106.386C26.996 109.474 28.2999 108.603 14.7021 110.191C13.941 99.097 17.2307 88.1031 23.9606 79.2501L33.1822 81.6702C33.212 81.6777 33.2431 81.6783 33.2732 81.6722C33.3032 81.666 33.3315 81.6531 33.356 81.6346C33.3804 81.616 33.4004 81.5921 33.4144 81.5648C33.4284 81.5375 33.436 81.5073 33.4368 81.4766C34.7075 71.8648 38.5361 65.8738 45.5146 59.0941C47.0879 60.2993 48.7971 61.3161 50.6071 62.1235C49.3304 66.0801 47.8993 69.9856 46.6392 73.949C43.847 82.7285 43.4531 86.6384 43.2173 93.9296V93.9333Z" fill="black"/>
</g>
</svg>
