<svg width="151" height="151" viewBox="0 0 151 151" fill="none" xmlns="http://www.w3.org/2000/svg">
<g id="Delete-3--Streamline-Barcelona">
<path id="Vector" d="M122.268 57.1486C121.835 57.2083 121.432 57.4042 121.117 57.7079C120.803 58.0116 120.593 58.4073 120.518 58.838C120.479 59.1107 120.593 59.7419 120.196 59.8443C119.796 59.9694 119.628 59.5845 119.447 59.2124C118.34 56.9309 118.582 54.4957 118.547 53.0247C118.495 50.5594 117.286 49.3437 114.564 49.5448C113.86 49.6443 113.167 49.8059 112.492 50.0276C111.963 50.1854 111.408 50.2311 110.861 50.1618C110.313 50.0925 109.787 49.9099 109.314 49.6254C108.467 50.5889 107.757 51.6652 107.205 52.8236C105.556 58.1541 108.03 61.6543 110.162 62.9822C111.085 63.4123 112.032 63.7895 112.998 64.112C113.682 64.4133 113.702 64.9571 113.622 65.7412C113.582 66.0832 113.601 67.1724 113.622 67.6522C116.691 68.7067 119.968 69.1089 122.774 67.3908C122.814 67.0285 122.573 66.2843 122.247 64.2732C122.059 62.5725 121.772 62.4105 123.075 61.7786C123.497 61.6057 123.862 61.3181 124.128 60.9483C124.394 60.5786 124.551 60.1415 124.582 59.6869C124.622 59.6869 124.622 59.6666 124.622 59.6666C124.664 59.34 124.633 59.0083 124.532 58.6951C124.431 58.3819 124.262 58.0949 124.037 57.8544C123.812 57.614 123.537 57.4261 123.231 57.3041C122.925 57.1821 122.596 57.129 122.268 57.1486ZM91.7137 51.6373C87.1145 45.3524 90.614 46.019 90.9492 44.1744C91.0298 43.1892 90.8083 42.7064 90.2856 42.4247C88.6436 41.5773 88.1826 43.5545 87.4897 43.2088C87.0671 42.9881 87.449 42.4443 87.4693 42.0827C87.4693 41.8214 88.0719 40.2524 87.107 39.6287C86.8214 39.4952 86.4989 39.4623 86.1922 39.5353C85.8854 39.6083 85.6124 39.783 85.4176 40.031C84.8346 41.0568 84.5928 40.574 83.9292 40.4731C82.3806 40.2117 82.9033 41.7204 81.0127 41.9419C80.8393 42.0054 80.6824 42.1071 80.5536 42.2394C80.4248 42.3717 80.3274 42.5313 80.2686 42.7064C80.144 43.2137 80.1301 43.7419 80.2279 44.255C80.9058 47.0133 81.0979 48.7268 84.7743 55.7792C87.867 61.6874 92.6078 66.9675 93.5041 67.506C93.7858 64.6498 96.4002 59.5408 97.7078 58.7966L97.7884 58.7559C95.5546 56.5696 93.5215 54.1871 91.7137 51.6373ZM108.952 49.3437C108.402 48.8815 107.993 48.2753 107.769 47.5931C107.545 46.9109 107.516 46.1798 107.685 45.482C107.911 44.3883 108.899 43.1402 110.02 43.1892C110 43.0761 109.986 42.9619 109.979 42.8472C109.899 41.5999 107.686 39.4472 106.58 39.7493C105.755 39.9707 106.078 40.7955 105.375 40.5537C104.791 40.3526 104.369 39.2868 102.82 39.7892C101.653 40.5334 102.78 41.5592 102.478 41.6805C101.047 41.6602 100.708 42.2432 100.688 42.2831C100.52 42.4473 100.402 42.6542 100.344 42.8812C100.286 43.1083 100.292 43.3468 100.361 43.5708C100.429 43.7948 100.558 43.9957 100.733 44.1517C100.907 44.3077 101.122 44.4127 101.352 44.4554C101.814 44.6165 102.557 44.4154 102.981 44.7973C103.46 45.2236 103.047 45.8096 102.72 45.6221C102.234 45.3297 101.714 45.0999 101.17 44.9382C99.8228 44.7167 99.099 45.5407 99.099 46.2857C99.0583 47.7544 100.326 48.3947 102.317 48.8406C104.199 49.2299 105.938 50.1273 107.346 51.4354C107.845 50.7109 108.381 50.0128 108.952 49.3437Z" fill="#FFCEB6"/>
<path id="Vector_2" d="M87.71 29.2698C89.5177 27.5999 89.541 27.5796 91.1296 29.1688C92.5466 30.45 93.7487 31.9505 94.69 33.6128C91.9747 32.8295 89.8423 31.1197 87.71 29.2698Z" fill="#DFE4ED"/>
<path id="Vector_3" d="M115.693 60.327C115.723 60.1404 115.704 59.9492 115.637 59.7725C115.57 59.5959 115.457 59.4401 115.311 59.3207C115.007 59.6779 114.647 59.9832 114.245 60.2245C114.929 60.7412 115.693 60.4987 115.693 60.327Z" fill="#F55555"/>
<path id="Vector_4" d="M123.678 45.4821C123.349 44.9063 122.84 44.4545 122.23 44.1959C121.619 43.9374 120.941 43.8865 120.298 44.051C119.655 44.2122 119.272 44.1511 119.071 43.4876C118.953 43.1816 118.798 42.8912 118.609 42.6229C118.471 42.3533 118.276 42.1171 118.037 41.9306C117.799 41.744 117.523 41.6117 117.228 41.5427C116.933 41.4737 116.627 41.4698 116.33 41.5312C116.034 41.5926 115.754 41.7179 115.511 41.8983C114.706 42.4636 114.05 43.216 113.6 44.0909C112.715 45.4188 112.433 45.4188 111.548 44.1316C111.413 43.8791 111.218 43.6633 110.98 43.5028C110.743 43.3423 110.47 43.2418 110.185 43.2101C109.9 43.1784 109.612 43.2164 109.345 43.3207C109.078 43.4251 108.84 43.5927 108.652 43.8092C108.168 44.2595 107.837 44.8508 107.707 45.4994C107.535 46.151 107.543 46.8368 107.728 47.4847C107.913 48.1325 108.269 48.7187 108.758 49.1816C109.248 49.6445 109.853 49.967 110.51 50.1154C111.167 50.2637 111.853 50.2324 112.493 50.0247C113.169 49.803 113.862 49.6414 114.566 49.5419C117.181 49.3212 118.509 50.4676 118.568 53.0624C118.607 54.6675 118.336 57.0605 119.574 59.4588C119.695 59.7005 119.876 59.9416 120.197 59.8414C120.594 59.742 120.481 59.1047 120.52 58.8351C120.594 58.4043 120.804 58.0084 121.119 57.7047C121.433 57.401 121.836 57.2052 122.269 57.1456C122.601 57.1262 122.933 57.1807 123.242 57.3052C123.55 57.4297 123.826 57.6211 124.052 57.8655C124.277 58.11 124.445 58.4014 124.544 58.7187C124.643 59.0361 124.67 59.3714 124.623 59.7005C125.092 59.3716 125.47 58.9301 125.723 58.4168C125.976 57.9035 126.095 57.3348 126.071 56.763C126.39 52.4056 126.231 49.038 123.678 45.4821ZM93.7655 63.1631C93.4727 63.2249 93.1697 63.2186 92.8797 63.1446C92.5898 63.0707 92.3207 62.9312 92.0932 62.7368C91.8658 62.5423 91.686 62.2983 91.5679 62.0234C91.4497 61.7484 91.3963 61.4501 91.4117 61.1512C91.4143 61.0685 91.384 60.9882 91.3273 60.9279C91.2707 60.8676 91.1924 60.8322 91.1097 60.8296C91.027 60.827 90.9466 60.8574 90.8863 60.914C90.826 60.9707 90.7907 61.049 90.7881 61.1317C90.7709 61.5217 90.8428 61.9106 90.9982 62.2688C91.1536 62.627 91.3885 62.9451 91.685 63.1991C91.9815 63.4532 92.332 63.6364 92.7098 63.7349C93.0876 63.8334 93.4829 63.8447 93.8657 63.7679C93.9054 63.7613 93.9434 63.747 93.9776 63.7257C94.0118 63.7044 94.0414 63.6767 94.0649 63.6439C94.0883 63.6112 94.1051 63.5742 94.1142 63.5349C94.1233 63.4957 94.1246 63.4551 94.118 63.4154C94.1115 63.3757 94.0971 63.3377 94.0758 63.3035C94.0546 63.2693 94.0268 63.2397 93.994 63.2162C93.9613 63.1928 93.9243 63.176 93.8851 63.1669C93.8459 63.1578 93.8052 63.1565 93.7655 63.1631ZM118.405 62.8181C117.18 63.6686 115.675 64.0144 114.201 63.7837C114.161 63.7785 114.121 63.7811 114.083 63.7914C114.044 63.8017 114.008 63.8195 113.976 63.8437C113.945 63.868 113.918 63.8983 113.898 63.9328C113.878 63.9674 113.865 64.0055 113.86 64.0451C113.855 64.0847 113.857 64.1249 113.867 64.1634C113.878 64.202 113.896 64.2381 113.92 64.2698C113.944 64.3015 113.974 64.3281 114.009 64.3481C114.043 64.3681 114.082 64.3811 114.121 64.3863C115.749 64.6286 117.408 64.248 118.768 63.3205C118.804 63.2979 118.835 63.2682 118.859 63.2332C118.883 63.1983 118.899 63.1587 118.907 63.1171C118.915 63.0755 118.915 63.0326 118.906 62.9912C118.897 62.9498 118.879 62.9107 118.854 62.8763C118.829 62.8419 118.798 62.8129 118.761 62.7912C118.725 62.7695 118.685 62.7555 118.642 62.75C118.6 62.7446 118.558 62.7478 118.517 62.7595C118.476 62.7712 118.438 62.7912 118.405 62.8181Z" fill="black"/>
<path id="Vector_5" d="M123.737 59.2205C123.623 59.0247 123.466 58.8575 123.278 58.7319C123.09 58.6062 122.875 58.5255 122.65 58.496C122.34 58.4939 122.039 58.5989 121.797 58.7932C121.555 58.9874 121.388 59.2591 121.323 59.5625C121.307 59.6032 121.301 59.6468 121.304 59.6902C121.307 59.7336 121.32 59.7758 121.341 59.8139C121.362 59.852 121.391 59.8851 121.426 59.9109C121.461 59.9367 121.501 59.9547 121.544 59.9635C121.586 59.9723 121.63 59.9717 121.673 59.9619C121.715 59.9521 121.755 59.9332 121.789 59.9066C121.824 59.8799 121.852 59.8461 121.872 59.8076C121.892 59.769 121.903 59.7265 121.906 59.683C121.935 59.513 122.025 59.3591 122.157 59.2488C122.29 59.1384 122.458 59.0787 122.63 59.0804C122.751 59.1005 122.866 59.147 122.967 59.2165C123.067 59.286 123.151 59.3769 123.213 59.4827C123.41 59.8261 123.92 59.5437 123.737 59.2205ZM112.653 54.6342C113.105 54.6342 114.597 53.2189 114.988 52.4619C115.005 52.4263 115.015 52.3876 115.017 52.3481C115.02 52.3086 115.014 52.269 115.001 52.2317C114.988 52.1943 114.967 52.1599 114.941 52.1304C114.915 52.1009 114.883 52.0769 114.847 52.0597C114.811 52.0426 114.773 52.0326 114.733 52.0304C114.694 52.0282 114.654 52.0338 114.617 52.0468C114.58 52.0599 114.545 52.0802 114.516 52.1066C114.486 52.133 114.462 52.1649 114.445 52.2006C113.964 52.9587 113.317 53.5981 112.554 54.0708C112.487 54.0918 112.43 54.1364 112.394 54.1963C112.357 54.2561 112.344 54.3272 112.356 54.3962C112.368 54.4651 112.405 54.5273 112.46 54.5711C112.514 54.6149 112.583 54.6374 112.653 54.6342ZM108.711 53.2867C108.828 53.1857 108.967 53.1131 109.117 53.0747C109.267 53.0363 109.424 53.0331 109.575 53.0653C109.805 53.1396 109.999 53.2974 110.118 53.5074C110.162 53.5744 110.23 53.6217 110.309 53.6393C110.387 53.6568 110.468 53.6431 110.537 53.6012C110.605 53.5593 110.654 53.4925 110.674 53.4149C110.693 53.3373 110.682 53.2551 110.642 53.1858C110.532 52.9884 110.379 52.8187 110.194 52.6894C110.009 52.5602 109.797 52.4748 109.573 52.4399C109.35 52.405 109.122 52.4214 108.906 52.4878C108.691 52.5543 108.493 52.6691 108.328 52.8235C108.034 53.0698 108.438 53.5586 108.711 53.2867ZM112.572 58.0726C112.616 58.0146 112.638 57.9426 112.633 57.8699C112.628 57.7972 112.597 57.7288 112.545 57.6773C112.494 57.6258 112.425 57.5948 112.353 57.5899C112.28 57.5851 112.208 57.6067 112.15 57.6508C112.038 57.7649 111.902 57.8521 111.751 57.9059C111.601 57.9596 111.44 57.9784 111.281 57.9609C111.123 57.9434 110.97 57.8901 110.835 57.8049C110.699 57.7198 110.585 57.605 110.501 57.4693C110.239 56.9488 110.603 55.453 110.802 54.8549C110.819 54.7831 110.808 54.7078 110.773 54.6432C110.737 54.5787 110.679 54.5294 110.61 54.5046C110.54 54.4799 110.464 54.4814 110.396 54.5089C110.328 54.5363 110.272 54.5879 110.239 54.6538C109.972 55.4304 109.583 57.0272 109.978 57.751C110.108 57.966 110.286 58.1486 110.497 58.2852C110.708 58.4218 110.948 58.5089 111.197 58.5398C111.447 58.5708 111.7 58.5448 111.938 58.4639C112.177 58.383 112.393 58.2492 112.572 58.0726ZM114.886 54.8338C114.907 54.9199 114.91 55.0095 114.895 55.097C114.88 55.1844 114.847 55.2677 114.798 55.3416C114.749 55.4154 114.684 55.4781 114.61 55.5257C114.535 55.5733 114.451 55.6047 114.363 55.6179C114.273 55.6515 114.177 55.6647 114.082 55.6567C113.987 55.6487 113.894 55.6196 113.812 55.5715C113.729 55.5234 113.658 55.4576 113.604 55.3787C113.549 55.2999 113.513 55.21 113.498 55.1155C113.472 55.0412 113.418 54.9799 113.347 54.9445C113.276 54.9092 113.195 54.9025 113.12 54.9258C113.044 54.9492 112.981 55.0008 112.942 55.0698C112.904 55.1388 112.894 55.22 112.914 55.2963C112.999 55.6169 113.202 55.8935 113.483 56.0707C113.763 56.2478 114.1 56.3122 114.426 56.2511C114.752 56.19 115.043 56.0078 115.24 55.7412C115.438 55.4745 115.527 55.1431 115.49 54.8135C115.442 54.4421 114.849 54.4271 114.886 54.8338Z" fill="black"/>
<path id="Vector_6" d="M108.106 55.5997C108.106 55.8025 108.187 55.9969 108.33 56.1403C108.474 56.2837 108.668 56.3642 108.871 56.3642C109.074 56.3642 109.268 56.2837 109.412 56.1403C109.555 55.9969 109.635 55.8025 109.635 55.5997C109.635 55.397 109.555 55.2025 109.412 55.0591C109.268 54.9158 109.074 54.8352 108.871 54.8352C108.668 54.8352 108.474 54.9158 108.33 55.0591C108.187 55.2025 108.106 55.397 108.106 55.5997Z" fill="black"/>
<path id="Vector_7" d="M115.65 61.0712C116.691 60.7021 116.386 59.3388 115.67 58.8379C115.725 58.7551 115.772 58.6676 115.811 58.5765C115.828 58.5409 115.838 58.5022 115.84 58.4627C115.843 58.4231 115.837 58.3836 115.824 58.3462C115.811 58.3089 115.791 58.2745 115.764 58.245C115.738 58.2155 115.706 58.1915 115.67 58.1743C115.635 58.1571 115.596 58.1472 115.556 58.145C115.517 58.1427 115.477 58.1483 115.44 58.1614C115.403 58.1745 115.368 58.1948 115.339 58.2212C115.309 58.2476 115.285 58.2795 115.268 58.3152C114.901 58.9967 114.334 59.5493 113.644 59.8982C112.953 60.247 112.172 60.3754 111.405 60.266C111.326 60.2554 111.245 60.277 111.181 60.326C111.117 60.375 111.075 60.4474 111.064 60.5273C111.054 60.6073 111.075 60.6881 111.124 60.7521C111.173 60.8161 111.246 60.858 111.326 60.8686C112.111 60.9463 112.904 60.8358 113.639 60.5462C113.829 60.7447 114.057 60.9038 114.309 61.0143C114.561 61.1248 114.832 61.1846 115.107 61.1902C115.29 61.1626 115.472 61.1229 115.65 61.0712ZM114.242 60.2261C114.644 59.9842 115.004 59.679 115.308 59.3222C115.454 59.4416 115.567 59.5974 115.634 59.7741C115.701 59.9507 115.721 60.1419 115.691 60.3285C115.564 60.5793 114.881 60.7089 114.242 60.2261ZM51.1218 110.594C51.154 110.566 51.1799 110.531 51.1979 110.493C51.2158 110.454 51.2253 110.412 51.2258 110.369C51.2263 110.327 51.2178 110.285 51.2007 110.246C51.1837 110.207 51.1586 110.172 51.1271 110.143C51.0956 110.114 51.0583 110.093 51.0178 110.079C50.9773 110.066 50.9345 110.062 50.8921 110.066C50.8498 110.071 50.8089 110.084 50.7721 110.106C50.7354 110.128 50.7036 110.157 50.6789 110.191C46.8044 114.711 36.6021 115.645 33.7421 114.56C33.6931 114.54 33.6397 114.532 33.5869 114.537C33.534 114.543 33.4833 114.561 33.4394 114.591C33.3955 114.621 33.3598 114.661 33.3354 114.708C33.3111 114.756 33.2989 114.808 33.3 114.861C33.3196 115.163 33.3399 116.35 33.3399 116.651C33.3399 117.034 33.9899 117.032 33.9425 116.611C33.9101 116.124 33.9425 115.533 33.9026 115.243C36.34 115.902 40.4442 115.368 42.9743 114.821C47.9839 113.772 50.4891 111.325 51.1218 110.594ZM118.405 145.513C117.902 146.258 118.043 146.579 118.908 146.679C120.552 146.905 126.834 146.878 128.04 146.861C128.824 146.841 129.025 146.519 128.704 145.835C127.35 142.634 120.871 141.763 118.405 145.513ZM88.7563 142.294C88.0927 142.897 88.1326 143.22 88.9574 143.562C90.4691 144.187 96.5882 145.746 97.7474 146.036C98.5119 146.217 98.7936 145.956 98.6513 145.211C98.0223 141.809 92.0938 139.317 88.7563 142.294ZM35.9347 110.332C35.9737 110.263 35.9844 110.182 35.9646 110.105C35.9447 110.028 35.8959 109.962 35.8283 109.92C35.7607 109.878 35.6796 109.864 35.602 109.881C35.5244 109.898 35.4563 109.944 35.412 110.01C34.527 111.559 32.1129 112.685 31.6504 112.766C31.2565 112.816 31.3288 113.469 31.8764 113.328C32.5859 113.143 34.9729 111.995 35.9347 110.332ZM54.2394 111.217C54.2501 111.137 54.2286 111.057 54.1796 110.992C54.1307 110.928 54.0583 110.886 53.9784 110.876C53.8985 110.865 53.8176 110.887 53.7536 110.935C53.6895 110.984 53.6475 111.057 53.6368 111.137C53.5386 112.069 53.207 112.961 52.6726 113.731C52.1382 114.501 51.4183 115.124 50.5795 115.542C50.5101 115.579 50.4583 115.642 50.4356 115.717C50.4128 115.793 50.421 115.874 50.4582 115.944C50.4955 116.013 50.5588 116.065 50.6342 116.088C50.7097 116.11 50.791 116.102 50.8605 116.065C51.7832 115.603 52.5758 114.917 53.1659 114.07C53.7561 113.224 54.1251 112.243 54.2394 111.217ZM55.2653 113.108C55.1866 113.108 55.1106 113.136 55.0514 113.188C54.9922 113.24 54.9539 113.312 54.9437 113.39C54.8878 113.931 54.6862 114.447 54.3603 114.882C54.0344 115.318 53.5964 115.657 53.093 115.864C53.0254 115.903 52.9741 115.965 52.9482 116.039C52.9224 116.113 52.9238 116.193 52.9521 116.266C52.9696 116.301 52.9941 116.333 53.0242 116.358C53.0543 116.384 53.0893 116.403 53.127 116.414C53.1648 116.425 53.2044 116.429 53.2435 116.424C53.2826 116.419 53.3204 116.407 53.3544 116.387C53.955 116.13 54.4754 115.716 54.8612 115.188C55.2469 114.661 55.4838 114.04 55.547 113.39C55.5388 113.318 55.5064 113.251 55.4553 113.2C55.4041 113.148 55.3372 113.116 55.2653 113.108ZM85.4579 139.076H76.4864C76.4065 139.076 76.3298 139.108 76.2733 139.165C76.2168 139.221 76.1851 139.298 76.1851 139.378C76.1851 139.458 76.2168 139.534 76.2733 139.591C76.3298 139.647 76.4065 139.679 76.4864 139.679H85.4579C85.5379 139.679 85.6145 139.647 85.671 139.591C85.7275 139.534 85.7592 139.458 85.7592 139.378C85.7592 139.298 85.7275 139.221 85.671 139.165C85.6145 139.108 85.5379 139.076 85.4579 139.076ZM87.3726 135.556H82.0421C81.9622 135.556 81.8856 135.588 81.8291 135.644C81.7726 135.701 81.7408 135.777 81.7408 135.857C81.7408 135.937 81.7726 136.014 81.8291 136.07C81.8856 136.127 81.9622 136.159 82.0421 136.159H87.3726C87.4525 136.159 87.5292 136.127 87.5857 136.07C87.6422 136.014 87.6739 135.937 87.6739 135.857C87.6739 135.777 87.6422 135.701 87.5857 135.644C87.5292 135.588 87.4525 135.556 87.3726 135.556ZM140.935 143.924H134.298C134.218 143.924 134.141 143.956 134.085 144.012C134.028 144.069 133.997 144.146 133.997 144.225C133.997 144.305 134.028 144.382 134.085 144.439C134.141 144.495 134.218 144.527 134.298 144.527H140.936C140.976 144.527 141.015 144.519 141.051 144.504C141.088 144.488 141.121 144.466 141.149 144.438C141.177 144.41 141.199 144.377 141.214 144.34C141.229 144.303 141.237 144.264 141.237 144.225C141.237 144.185 141.229 144.146 141.213 144.109C141.198 144.073 141.176 144.04 141.148 144.012C141.12 143.984 141.087 143.962 141.05 143.947C141.013 143.932 140.974 143.924 140.935 143.924ZM144.153 141.792H137.612C137.532 141.792 137.456 141.824 137.399 141.88C137.343 141.937 137.311 142.013 137.311 142.093C137.311 142.173 137.343 142.25 137.399 142.306C137.456 142.363 137.532 142.394 137.612 142.394H144.15C144.23 142.395 144.307 142.363 144.364 142.307C144.42 142.251 144.452 142.175 144.453 142.095C144.453 142.015 144.422 141.938 144.366 141.881C144.309 141.824 144.233 141.792 144.153 141.792ZM117.038 108.241C110.614 113.623 106.845 120.132 105.613 124.855C104.853 127.737 104.682 131.425 104.526 134.53C104.466 136.281 104.426 136.984 103.823 138.07C102.857 139.78 101.63 140.766 100.262 140.947C98.939 141.106 98.5383 140.508 98.3515 141.007C98.3308 141.084 98.34 141.167 98.3772 141.238C98.4145 141.309 98.4771 141.363 98.5526 141.39C101.094 142.116 103.033 140.663 104.325 138.372C105.323 136.588 104.917 135.337 105.271 131.452C105.694 126.093 106.116 123.755 108.71 119.042C110.968 115.105 113.911 111.604 117.4 108.703C117.459 108.651 117.496 108.578 117.503 108.5C117.511 108.421 117.488 108.343 117.44 108.281C117.417 108.251 117.387 108.227 117.354 108.209C117.321 108.192 117.285 108.18 117.247 108.177C117.21 108.173 117.172 108.177 117.136 108.188C117.1 108.199 117.067 108.217 117.038 108.241ZM77.7134 28.0193C77.745 28.0434 77.7811 28.0609 77.8197 28.0708C77.8582 28.0807 77.8983 28.0827 77.9376 28.0767C77.9769 28.0707 78.0146 28.0568 78.0485 28.036C78.0823 28.0151 78.1116 27.9876 78.1346 27.9551C78.1576 27.9227 78.1738 27.8859 78.1823 27.8471C78.1907 27.8082 78.1913 27.768 78.1839 27.729C78.1765 27.6899 78.1613 27.6527 78.1392 27.6196C78.1171 27.5866 78.0886 27.5583 78.0553 27.5365L78.035 27.5161C76.7134 26.5919 75.1895 25.9979 73.591 25.7837C73.5111 25.7731 73.4302 25.7946 73.3662 25.8435C73.3021 25.8924 73.2601 25.9648 73.2494 26.0447C73.2388 26.1246 73.2602 26.2055 73.3092 26.2696C73.3581 26.3336 73.4305 26.3756 73.5104 26.3863C75.0257 26.5714 76.4706 27.1328 77.7134 28.0193ZM81.0524 33.7754C79.8164 31.6844 75.682 28.7461 74.0121 28.2016C73.9358 28.1813 73.8546 28.1914 73.7856 28.2296C73.7165 28.2679 73.665 28.3313 73.6416 28.4067C73.6183 28.4821 73.625 28.5636 73.6603 28.6342C73.6957 28.7047 73.7569 28.7589 73.8313 28.7853C75.3799 29.2877 79.3629 32.1642 80.5297 34.0955C80.5749 34.1585 80.6424 34.2021 80.7184 34.2174C80.7945 34.2328 80.8735 34.2188 80.9397 34.1782C81.0059 34.1377 81.0543 34.0737 81.0752 33.9989C81.0961 33.9242 81.0879 33.8443 81.0524 33.7754ZM74.6154 31.5421C74.5487 31.4967 74.4667 31.4797 74.3874 31.4949C74.3082 31.51 74.2382 31.556 74.1928 31.6227C74.1475 31.6894 74.1305 31.7714 74.1456 31.8506C74.1607 31.9299 74.2067 31.9999 74.2734 32.0452C75.1855 32.7074 75.9755 33.5229 76.6084 34.4555C76.6413 34.5214 76.6972 34.573 76.7655 34.6005C76.8339 34.6279 76.9099 34.6294 76.9792 34.6047C77.0486 34.5799 77.1065 34.5306 77.142 34.4661C77.1775 34.4015 77.1881 34.3262 77.1718 34.2544C76.8886 33.453 75.1148 31.8901 74.6154 31.5421ZM70.8945 28.9277C71.1514 28.7348 71.6786 28.6128 71.6786 28.2837C71.6786 27.7737 70.2814 27.3105 69.828 27.1975C70.7778 26.5332 71.7615 26.1347 70.9126 25.8033C69.9229 25.4177 65.2032 25.2505 63.8324 26.9332C62.2581 28.8682 66.852 31.4253 69.1621 32.1853C69.5206 32.2976 69.9748 32.4715 70.188 32.2057C70.3796 31.9222 70.4652 31.5803 70.4298 31.24C71.6349 31.24 72.1818 31.3252 72.3 30.8981C72.413 30.4567 71.3894 29.5875 70.8945 28.9277ZM69.8084 31.2807C69.8079 31.4304 69.7877 31.5793 69.7481 31.7236C68.8224 31.5828 64.2564 29.4707 64.0553 27.7805C64.4786 26.0888 68.375 26.0707 70.13 26.2522C68.9633 26.9964 68.9429 27.1561 69.0235 27.3783C69.0838 27.5794 69.245 27.6201 69.8686 27.8408C70.13 27.9417 70.6128 28.1029 70.8945 28.2437C70.5119 28.4449 70.2708 28.5857 70.2309 28.8267C70.1729 29.1137 70.5571 29.406 71.5581 30.6571C70.1895 30.755 69.8762 30.3241 69.8084 31.2807Z" fill="black"/>
<path id="Vector_8" d="M23.2422 113.35C22.525 112.917 21.9243 112.316 21.4925 111.599C21.4498 111.529 21.3811 111.479 21.3015 111.46C21.222 111.44 21.138 111.454 21.068 111.496C20.9981 111.539 20.948 111.608 20.9287 111.687C20.9094 111.767 20.9226 111.851 20.9652 111.921C21.444 112.723 22.1146 113.393 22.9168 113.872C23.2972 114.061 23.5932 113.533 23.2422 113.35ZM23.4636 110.071C23.461 110.031 23.4506 109.993 23.4331 109.957C23.4155 109.921 23.3911 109.89 23.3613 109.864C23.3315 109.837 23.2968 109.817 23.2592 109.805C23.2217 109.792 23.182 109.787 23.1424 109.789C23.1028 109.792 23.0642 109.802 23.0286 109.82C22.9931 109.838 22.9613 109.862 22.9352 109.892C22.9091 109.922 22.8891 109.956 22.8764 109.994C22.8636 110.031 22.8584 110.071 22.8611 110.111C22.9245 111.491 23.4257 112.816 24.2922 113.893C24.3194 113.931 24.3556 113.962 24.3976 113.983C24.4397 114.004 24.4862 114.014 24.5332 114.013C24.5891 114.013 24.6439 113.997 24.6909 113.967C24.738 113.937 24.7754 113.894 24.7987 113.843C24.822 113.792 24.8303 113.735 24.8225 113.68C24.8147 113.625 24.7911 113.573 24.7547 113.53C23.9729 112.541 23.5213 111.331 23.4636 110.071ZM25.4348 108.24C25.3551 108.232 25.2752 108.254 25.2115 108.303C25.1478 108.351 25.1053 108.423 25.0928 108.502C24.9275 109.803 24.9138 111.119 25.0522 112.424C25.0629 112.504 25.1049 112.576 25.1689 112.625C25.233 112.674 25.3139 112.696 25.3938 112.685C25.4737 112.674 25.5461 112.632 25.595 112.568C25.6439 112.504 25.6654 112.423 25.6547 112.343C25.5098 111.086 25.5232 109.816 25.6947 108.562C25.7006 108.485 25.6769 108.409 25.6286 108.35C25.5803 108.29 25.511 108.251 25.4348 108.24ZM27.5468 107.677C27.4676 107.679 27.3922 107.712 27.3361 107.768C27.28 107.824 27.2476 107.899 27.2455 107.978C27.2734 109.839 27.1175 112.116 27.0648 112.484C27.0595 112.524 27.0629 112.565 27.0746 112.604C27.0864 112.643 27.1062 112.678 27.1329 112.709C27.1595 112.739 27.1923 112.764 27.2292 112.781C27.266 112.797 27.306 112.806 27.3465 112.806C27.7344 112.806 27.6643 112.411 27.7088 112.102C27.8293 110.734 27.8692 109.327 27.8692 107.96C27.8556 107.883 27.8162 107.813 27.7576 107.762C27.699 107.71 27.6247 107.68 27.5468 107.677ZM29.9202 108.944C28.997 110.157 28.4389 111.609 28.3113 113.128C28.3077 113.208 28.335 113.286 28.3875 113.346C28.44 113.405 28.5137 113.443 28.593 113.45C29.3078 113.45 28.4657 111.904 30.4008 109.286C30.4274 109.255 30.4472 109.218 30.4589 109.179C30.4707 109.14 30.4742 109.098 30.4691 109.058C30.4641 109.017 30.4506 108.978 30.4296 108.942C30.4085 108.907 30.3804 108.877 30.347 108.853C30.3135 108.829 30.2755 108.813 30.2353 108.804C30.1952 108.796 30.1537 108.796 30.1136 108.805C30.0734 108.813 30.0355 108.83 30.0022 108.854C29.9689 108.878 29.941 108.909 29.9202 108.944ZM47.541 103.654C47.5132 103.622 47.4788 103.595 47.4401 103.577C47.4014 103.559 47.3593 103.549 47.3165 103.548C47.2737 103.548 47.2313 103.556 47.192 103.573C47.1527 103.59 47.1175 103.615 47.0887 103.647C47.0599 103.678 47.0382 103.716 47.025 103.757C47.0118 103.797 47.0074 103.84 47.0122 103.883C47.0169 103.925 47.0306 103.966 47.0525 104.003C47.0743 104.04 47.1037 104.072 47.1387 104.096C50.3399 106.894 50.0552 106.808 50.2164 106.808C50.2767 106.807 50.3355 106.788 50.3851 106.754C50.4346 106.72 50.4727 106.671 50.4944 106.615C50.5161 106.558 50.5203 106.497 50.5066 106.438C50.4929 106.379 50.4618 106.326 50.4175 106.285L47.541 103.654ZM50.3369 102.769C50.3124 102.698 50.2624 102.639 50.1967 102.603C50.131 102.567 50.0542 102.557 49.9815 102.575C49.9087 102.593 49.8451 102.637 49.803 102.699C49.7609 102.76 49.7434 102.836 49.7539 102.91C50.0763 104.183 50.6958 105.362 51.5616 106.349C51.6173 106.397 51.6887 106.424 51.7624 106.423C51.8361 106.422 51.9069 106.394 51.9615 106.344C52.016 106.295 52.0505 106.227 52.0584 106.154C52.0664 106.081 52.0472 106.007 52.0045 105.947C51.1887 105.046 50.6149 103.952 50.3369 102.769ZM52.2275 102.145C52.1941 102.08 52.1383 102.03 52.0702 102.003C52.0022 101.976 51.9267 101.974 51.8578 101.999C51.789 102.024 51.7314 102.072 51.6959 102.136C51.6603 102.2 51.6493 102.275 51.6648 102.347L52.7909 105.746C52.8238 105.812 52.8797 105.863 52.948 105.891C53.0163 105.918 53.0924 105.92 53.1617 105.895C53.2311 105.87 53.289 105.821 53.3244 105.756C53.3599 105.692 53.3705 105.617 53.3543 105.545L52.2275 102.145ZM54.7824 102.347C54.3059 103.426 53.9681 104.561 53.7768 105.725C53.7768 105.805 53.8086 105.882 53.8651 105.939C53.9216 105.995 53.9982 106.027 54.0781 106.027C54.158 106.027 54.2347 105.995 54.2912 105.939C54.3477 105.882 54.3794 105.805 54.3794 105.725C54.5645 104.669 54.8677 103.637 55.2833 102.648C55.516 102.325 55.0211 102.011 54.7824 102.347ZM56.3106 110.453C56.2439 110.407 56.1619 110.39 56.0827 110.405C56.0034 110.421 55.9334 110.467 55.8881 110.533C55.8427 110.6 55.8258 110.682 55.8409 110.761C55.856 110.84 55.902 110.91 55.9687 110.956C58.379 112.58 58.7925 113.51 59.1269 113.51C59.1852 113.51 59.242 113.492 59.2902 113.46C59.3385 113.427 59.3758 113.381 59.3974 113.327C59.4191 113.273 59.424 113.213 59.4117 113.157C59.3993 113.1 59.3702 113.048 59.328 113.008C58.4128 112.054 57.4017 111.198 56.3106 110.453ZM59.087 107.878C59.0757 107.804 59.0361 107.736 58.9764 107.69C58.9167 107.644 58.8415 107.622 58.7664 107.63C58.6913 107.638 58.6221 107.674 58.5731 107.732C58.5241 107.789 58.4991 107.863 58.5033 107.938C58.6058 109.004 58.9572 110.031 59.5291 110.935C59.9954 111.601 60.0112 111.64 60.2131 111.64C60.2701 111.642 60.3265 111.628 60.3757 111.599C60.4248 111.57 60.4646 111.528 60.4901 111.477C60.5156 111.426 60.5259 111.368 60.5196 111.312C60.5134 111.255 60.4909 111.201 60.4548 111.157C59.6447 110.248 59.163 109.093 59.087 107.878ZM61.9229 107.617C61.8224 108.75 61.6 109.87 61.2593 110.956C61.1305 111.299 61.7112 111.558 61.8423 111.157C62.2201 110.031 62.4567 108.862 62.5465 107.677C62.4961 107.221 61.9229 107.24 61.9229 107.617ZM63.4316 109.246C62.8614 110.23 62.4667 111.305 62.2648 112.424C62.2529 112.501 62.2715 112.58 62.3166 112.644C62.3617 112.707 62.4298 112.751 62.5066 112.766C63.1785 112.766 62.6128 111.911 63.9746 109.527C64.1238 109.179 63.6093 108.891 63.4316 109.246ZM65.2822 109.568C64.5482 110.449 63.9577 111.44 63.5325 112.505C63.5164 112.55 63.5113 112.599 63.5178 112.647C63.5243 112.694 63.542 112.74 63.5696 112.779C63.5971 112.818 63.6337 112.851 63.6763 112.873C63.7188 112.895 63.7661 112.907 63.8142 112.907C64.0823 112.907 64.1155 112.645 64.2767 112.263C65.1941 110.175 66.1552 109.883 65.7078 109.508C65.6425 109.462 65.5623 109.443 65.4833 109.454C65.4043 109.465 65.3324 109.506 65.2822 109.568ZM65.0608 102.85C65.0608 102.77 65.029 102.693 64.9725 102.637C64.916 102.58 64.8394 102.548 64.7595 102.548C64.6796 102.548 64.6029 102.58 64.5464 102.637C64.4899 102.693 64.4582 102.77 64.4582 102.85C64.4499 103.877 64.7747 104.879 65.3839 105.706C65.4319 105.77 65.5034 105.812 65.5827 105.824C65.6619 105.835 65.7424 105.814 65.8064 105.766C65.8705 105.718 65.9128 105.647 65.9241 105.567C65.9354 105.488 65.9147 105.408 65.8667 105.344C65.3292 104.625 65.0457 103.747 65.0608 102.85ZM66.992 101.985C66.3814 103.318 66.1382 104.791 66.2878 106.25C66.2984 106.33 66.3404 106.402 66.4045 106.451C66.4685 106.5 66.5494 106.521 66.6293 106.511C66.7092 106.5 66.7816 106.458 66.8306 106.394C66.8795 106.33 66.901 106.249 66.8903 106.169C66.7439 104.821 66.9663 103.458 67.5336 102.227C67.5584 102.19 67.5749 102.149 67.5819 102.105C67.589 102.062 67.5864 102.017 67.5743 101.975C67.5623 101.933 67.5411 101.893 67.5122 101.86C67.4834 101.827 67.4476 101.8 67.4073 101.782C67.3671 101.764 67.3234 101.755 67.2793 101.756C67.2352 101.757 67.1919 101.767 67.1523 101.787C67.1127 101.806 67.0778 101.834 67.0501 101.868C67.0224 101.902 67.0026 101.942 66.992 101.985ZM70.3107 102.286C70.2836 102.258 70.2509 102.235 70.2146 102.219C70.1784 102.203 70.1393 102.195 70.0998 102.195C70.0603 102.195 70.0212 102.203 69.9849 102.219C69.9487 102.235 69.916 102.258 69.8889 102.286C68.8824 103.306 68.1011 104.526 67.5953 105.866C67.5791 105.938 67.5897 106.013 67.6252 106.078C67.6606 106.143 67.7185 106.192 67.7879 106.217C67.8573 106.241 67.9333 106.24 68.0016 106.212C68.07 106.185 68.1258 106.133 68.1587 106.067C68.6424 104.804 69.3819 103.653 70.331 102.689C70.3815 102.632 70.4077 102.559 70.4039 102.483C70.4001 102.408 70.3666 102.337 70.3107 102.286ZM72.4235 102.97C72.4437 102.894 72.4336 102.813 72.3954 102.744C72.3572 102.675 72.2937 102.623 72.2183 102.6C72.1429 102.576 72.0614 102.583 71.9909 102.618C71.9203 102.654 71.8661 102.715 71.8397 102.789C71.3569 104.288 70.4984 105.639 69.3458 106.711C69.3014 106.752 69.2704 106.806 69.2567 106.864C69.243 106.923 69.2472 106.985 69.2689 107.041C69.2906 107.097 69.3287 107.146 69.3782 107.18C69.4278 107.215 69.4866 107.234 69.5469 107.234C69.6976 107.234 69.6976 107.206 70.1706 106.732C71.1919 105.661 71.9615 104.376 72.4235 102.97ZM73.89 105.182C72.571 105.836 71.3574 106.683 70.2896 107.697C70.245 107.738 70.2137 107.791 70.1998 107.85C70.1859 107.909 70.1901 107.97 70.2118 108.027C70.2335 108.083 70.2717 108.132 70.3215 108.167C70.3712 108.201 70.4302 108.22 70.4907 108.22C70.8191 108.22 71.4269 107.09 74.1513 105.725C74.4925 105.534 74.2666 104.998 73.89 105.182ZM75.1991 115.361C75.1272 115.344 75.0519 115.355 74.9874 115.39C74.9229 115.426 74.8735 115.484 74.8488 115.553C74.824 115.623 74.8255 115.699 74.853 115.767C74.8805 115.835 74.9321 115.891 74.9979 115.924C77.8127 116.894 78.6179 118.136 78.9403 118.136C79.0009 118.136 79.0598 118.116 79.1091 118.081C79.1583 118.046 79.1954 117.996 79.2153 117.939C79.2352 117.882 79.2369 117.82 79.2201 117.761C79.2034 117.703 79.169 117.651 79.1218 117.613C77.9607 116.632 76.6317 115.869 75.1991 115.361ZM76.9691 113.068C76.9134 113.02 76.842 112.993 76.7683 112.994C76.6946 112.995 76.6238 113.023 76.5693 113.072C76.5147 113.122 76.4802 113.19 76.4723 113.263C76.4644 113.336 76.4835 113.41 76.5262 113.47C77.551 114.609 78.4669 115.841 79.2619 117.151C79.283 117.186 79.3108 117.216 79.3435 117.24C79.3763 117.264 79.4134 117.281 79.4528 117.29C79.4922 117.3 79.5331 117.302 79.5732 117.295C79.6133 117.289 79.6517 117.275 79.6863 117.254C79.721 117.233 79.7511 117.205 79.775 117.172C79.7989 117.139 79.8161 117.102 79.8256 117.063C79.8352 117.023 79.8369 116.983 79.8306 116.943C79.8244 116.902 79.8103 116.864 79.7892 116.829C78.9561 115.499 78.0128 114.241 76.9691 113.068ZM79.1211 112.223C79.0631 112.178 78.9908 112.156 78.9177 112.161C78.8447 112.165 78.7759 112.197 78.7241 112.248C78.6723 112.3 78.6412 112.369 78.6365 112.442C78.6318 112.515 78.6538 112.587 78.6985 112.645C79.5469 113.492 80.2534 114.47 80.7909 115.542C81.0839 116.069 81.0395 116.266 81.334 116.266C81.3846 116.267 81.4346 116.255 81.4795 116.232C81.5243 116.208 81.5625 116.174 81.5906 116.132C81.6187 116.09 81.6357 116.041 81.6401 115.991C81.6445 115.94 81.6361 115.89 81.6157 115.843C80.9999 114.501 80.1558 113.276 79.1211 112.223ZM82.0179 112.706C82.6043 113.953 82.7802 115.354 82.5203 116.708C82.506 116.788 82.5231 116.87 82.5682 116.938C82.6133 117.006 82.6828 117.053 82.7621 117.07C83.156 117.07 83.153 116.769 83.205 116.306C83.3408 114.986 83.1257 113.654 82.5813 112.444C82.5438 112.374 82.4809 112.321 82.4057 112.296C82.3304 112.271 82.2484 112.276 82.1764 112.309C82.1045 112.343 82.048 112.402 82.0185 112.476C81.989 112.55 81.9888 112.632 82.0179 112.706ZM84.8945 111.982C84.2505 111.982 84.8688 112.956 83.9085 115.18C83.8279 115.381 83.7277 115.582 83.6471 115.763C83.4475 116.112 84.0516 116.392 84.1902 116.045C84.768 114.877 85.1033 113.604 85.1762 112.303C85.1761 112.225 85.1475 112.149 85.0957 112.09C85.0439 112.03 84.9724 111.992 84.8945 111.982Z" fill="#6DD3A8"/>
<path id="Vector_9" d="M133.451 63.4446C131.398 60.9329 128.86 58.8601 125.989 57.3496C125.965 57.5621 125.918 57.7713 125.848 57.9733C129.167 59.723 132.224 62.6801 132.928 63.7866C134.095 65.6372 134.859 67.7892 132.566 71.1282C129.436 74.6126 127.496 74.6013 126.917 75.3123C126.314 76.0166 126.475 80.8643 127.42 89.7349C128.184 97.0162 128.345 100.958 127.058 102.246C125.069 104.235 105.482 99.9289 104.67 98.1227C103.128 94.7227 102.705 82.0114 105.374 72.9788C105.394 72.9026 105.384 72.8214 105.346 72.7524C105.308 72.6833 105.244 72.6317 105.169 72.6084C105.093 72.585 105.012 72.5917 104.941 72.6271C104.871 72.6624 104.817 72.7237 104.79 72.7981C104.541 73.6418 104.319 74.4937 104.127 75.3522C98.2328 72.6165 94.1903 68.272 94.1089 67.6084C94.3304 64.9533 96.764 60.2661 97.8901 59.3984C100.453 60.7843 110.722 69.2203 118.426 69.2203C121.036 69.2203 125.023 67.811 124.677 65.4188C124.436 63.8702 123.672 63.468 122.103 62.7637C122.093 62.9925 122.106 63.2217 122.143 63.4476C123.37 64.0111 123.913 64.3929 124.074 65.4994C124.344 67.2077 121.166 68.3835 119.329 68.577C111.559 69.3589 100.177 59.723 97.8275 58.7175C96.0469 59.735 93.6849 65.1778 93.483 67.5677C93.4024 68.5537 97.9488 73.2003 103.983 75.9563C102.273 84.1626 102.476 94.7867 104.084 98.3637C105.063 100.562 125.137 104.992 127.457 102.668C128.926 101.2 128.804 97.2979 128 89.6746C126.652 76.9822 127.276 75.7951 127.357 75.7145C127.793 75.2046 129.906 74.999 133.028 71.5108L133.049 71.4905C135.583 67.8095 134.674 65.3586 133.451 63.4446Z" fill="#FFD35C"/>
<path id="Vector_10" d="M99.8071 64.7862C99.9052 64.6881 100.038 64.633 100.177 64.633C100.316 64.633 100.449 64.6881 100.547 64.7862C100.645 64.8843 100.7 65.0173 100.7 65.156C100.7 65.2947 100.645 65.4278 100.547 65.5259C100.498 65.5744 100.441 65.613 100.377 65.6392C100.314 65.6655 100.246 65.6791 100.177 65.6791C100.108 65.6791 100.04 65.6655 99.9768 65.6392C99.9133 65.613 99.8557 65.5744 99.8071 65.5259C99.7586 65.4773 99.72 65.4196 99.6937 65.3562C99.6675 65.2927 99.6539 65.2247 99.6539 65.156C99.6539 65.0873 99.6675 65.0193 99.6937 64.9559C99.72 64.8924 99.7586 64.8348 99.8071 64.7862ZM102.865 71.6028C102.963 71.5047 103.096 71.4496 103.235 71.4496C103.374 71.4496 103.507 71.5047 103.605 71.6028C103.703 71.7009 103.758 71.8339 103.758 71.9726C103.758 72.1114 103.703 72.2444 103.605 72.3425C103.507 72.4406 103.374 72.4957 103.235 72.4957C103.096 72.4957 102.963 72.4406 102.865 72.3425C102.767 72.2444 102.712 72.1114 102.712 71.9726C102.712 71.8339 102.767 71.7009 102.865 71.6028ZM109.886 72.0645C109.984 71.9664 110.117 71.9113 110.256 71.9113C110.394 71.9113 110.527 71.9664 110.626 72.0645C110.724 72.1626 110.779 72.2956 110.779 72.4344C110.779 72.5731 110.724 72.7061 110.626 72.8042C110.527 72.9023 110.394 72.9574 110.256 72.9574C110.117 72.9574 109.984 72.9023 109.886 72.8042C109.788 72.7061 109.733 72.5731 109.733 72.4344C109.733 72.2956 109.788 72.1626 109.886 72.0645ZM117.21 74.3829C117.308 74.2848 117.441 74.2297 117.58 74.2297C117.719 74.2297 117.852 74.2848 117.95 74.3829C118.048 74.481 118.103 74.614 118.103 74.7528C118.103 74.8915 118.048 75.0245 117.95 75.1226C117.852 75.2207 117.719 75.2758 117.58 75.2758C117.441 75.2758 117.308 75.2207 117.21 75.1226C117.112 75.0245 117.057 74.8915 117.057 74.7528C117.057 74.614 117.112 74.481 117.21 74.3829ZM122.804 70.3781C122.902 70.28 123.035 70.2249 123.173 70.2249C123.312 70.2249 123.445 70.28 123.543 70.3781C123.641 70.4762 123.696 70.6092 123.696 70.7479C123.696 70.8866 123.641 71.0197 123.543 71.1177C123.445 71.2158 123.312 71.2709 123.173 71.2709C123.035 71.2709 122.902 71.2158 122.804 71.1177C122.705 71.0197 122.65 70.8866 122.65 70.7479C122.65 70.6092 122.705 70.4762 122.804 70.3781ZM128.596 69.8779C128.694 69.7799 128.827 69.7248 128.966 69.7248C129.104 69.7248 129.237 69.7799 129.335 69.8779C129.434 69.976 129.489 70.1091 129.489 70.2478C129.489 70.3865 129.434 70.5195 129.335 70.6176C129.237 70.7157 129.104 70.7708 128.966 70.7708C128.827 70.7708 128.694 70.7157 128.596 70.6176C128.498 70.5195 128.443 70.3865 128.443 70.2478C128.443 70.1091 128.498 69.976 128.596 69.8779ZM128.848 62.873C128.946 62.775 129.079 62.7198 129.218 62.7198C129.357 62.7198 129.49 62.775 129.588 62.873C129.686 62.9711 129.741 63.1041 129.741 63.2429C129.741 63.3816 129.686 63.5146 129.588 63.6127C129.49 63.7108 129.357 63.7659 129.218 63.7659C129.079 63.7659 128.946 63.7108 128.848 63.6127C128.75 63.5146 128.695 63.3816 128.695 63.2429C128.695 63.1041 128.75 62.9711 128.848 62.873ZM122.666 77.9208C122.764 77.8227 122.897 77.7676 123.036 77.7676C123.174 77.7676 123.307 77.8227 123.405 77.9208C123.503 78.0189 123.559 78.1519 123.559 78.2906C123.559 78.4293 123.503 78.5624 123.405 78.6604C123.307 78.7585 123.174 78.8136 123.036 78.8136C122.897 78.8136 122.764 78.7585 122.666 78.6604C122.568 78.5624 122.513 78.4293 122.513 78.2906C122.513 78.1519 122.568 78.0189 122.666 77.9208ZM116.302 81.2018C116.4 81.1037 116.533 81.0486 116.672 81.0486C116.81 81.0486 116.943 81.1037 117.041 81.2018C117.14 81.2999 117.195 81.4329 117.195 81.5716C117.195 81.7103 117.14 81.8434 117.041 81.9415C116.943 82.0395 116.81 82.0946 116.672 82.0946C116.533 82.0946 116.4 82.0395 116.302 81.9415C116.204 81.8434 116.149 81.7103 116.149 81.5716C116.149 81.4329 116.204 81.2999 116.302 81.2018ZM108.375 79.8287C108.473 79.7306 108.606 79.6755 108.745 79.6755C108.883 79.6755 109.017 79.7306 109.115 79.8287C109.213 79.9268 109.268 80.0598 109.268 80.1985C109.268 80.3372 109.213 80.4703 109.115 80.5683C109.017 80.6664 108.883 80.7215 108.745 80.7215C108.606 80.7215 108.473 80.6664 108.375 80.5683C108.277 80.4703 108.222 80.3372 108.222 80.1985C108.222 80.0598 108.277 79.9268 108.375 79.8287ZM113.203 86.7131C113.301 86.615 113.434 86.5599 113.573 86.5599C113.712 86.5599 113.845 86.615 113.943 86.7131C114.041 86.8112 114.096 86.9442 114.096 87.0829C114.096 87.2216 114.041 87.3547 113.943 87.4527C113.845 87.5508 113.712 87.6059 113.573 87.6059C113.434 87.6059 113.301 87.5508 113.203 87.4527C113.105 87.3547 113.05 87.2216 113.05 87.0829C113.05 86.9442 113.105 86.8112 113.203 86.7131ZM106.789 88.0922C106.888 87.9941 107.021 87.939 107.159 87.939C107.298 87.939 107.431 87.9941 107.529 88.0922C107.627 88.1903 107.682 88.3233 107.682 88.462C107.682 88.6008 107.627 88.7338 107.529 88.8319C107.431 88.93 107.298 88.9851 107.159 88.9851C107.021 88.9851 106.888 88.93 106.789 88.8319C106.691 88.7338 106.636 88.6008 106.636 88.462C106.636 88.3233 106.691 88.1903 106.789 88.0922ZM107.172 95.9234C107.27 95.8253 107.403 95.7702 107.542 95.7702C107.681 95.7702 107.814 95.8253 107.912 95.9234C108.01 96.0215 108.065 96.1545 108.065 96.2932C108.065 96.4319 108.01 96.565 107.912 96.6631C107.814 96.7612 107.681 96.8163 107.542 96.8163C107.403 96.8163 107.27 96.7612 107.172 96.6631C107.074 96.565 107.019 96.4319 107.019 96.2932C107.019 96.1545 107.074 96.0215 107.172 95.9234ZM115.176 93.9899C115.274 93.8918 115.407 93.8367 115.546 93.8367C115.684 93.8367 115.817 93.8918 115.915 93.9899C116.013 94.088 116.069 94.221 116.069 94.3597C116.069 94.4984 116.013 94.6315 115.915 94.7296C115.817 94.8276 115.684 94.8827 115.546 94.8827C115.407 94.8827 115.274 94.8276 115.176 94.7296C115.078 94.6315 115.023 94.4984 115.023 94.3597C115.023 94.221 115.078 94.088 115.176 93.9899ZM121.211 90.1545C121.313 90.0754 121.44 90.0362 121.568 90.0441C121.696 90.0521 121.818 90.1067 121.908 90.1977C121.999 90.2887 122.054 90.4099 122.062 90.5383C122.07 90.6667 122.03 90.7936 121.951 90.8949C121.852 90.9886 121.72 91.0399 121.584 91.0379C121.448 91.0359 121.317 90.9809 121.221 90.8844C121.125 90.788 121.07 90.6578 121.068 90.5215C121.066 90.3852 121.118 90.2535 121.211 90.1545ZM123.7 84.0527C123.798 83.9546 123.931 83.8995 124.07 83.8995C124.208 83.8995 124.341 83.9546 124.44 84.0527C124.538 84.1508 124.593 84.2838 124.593 84.4226C124.593 84.5613 124.538 84.6943 124.44 84.7924C124.341 84.8905 124.208 84.9456 124.07 84.9456C123.931 84.9456 123.798 84.8905 123.7 84.7924C123.602 84.6943 123.547 84.5613 123.547 84.4226C123.547 84.2838 123.602 84.1508 123.7 84.0527ZM124.125 95.1129C124.223 95.0149 124.356 94.9598 124.495 94.9598C124.633 94.9598 124.766 95.0149 124.864 95.1129C124.962 95.211 125.018 95.3441 125.018 95.4828C125.018 95.6215 124.962 95.7545 124.864 95.8526C124.766 95.9507 124.633 96.0058 124.495 96.0058C124.356 96.0058 124.223 95.9507 124.125 95.8526C124.027 95.7545 123.972 95.6215 123.972 95.4828C123.972 95.3441 124.027 95.211 124.125 95.1129ZM119.26 98.5529C119.358 98.4548 119.491 98.3997 119.63 98.3997C119.768 98.3997 119.901 98.4548 119.999 98.5529C120.097 98.651 120.153 98.784 120.153 98.9227C120.153 99.0614 120.097 99.1945 119.999 99.2925C119.901 99.3906 119.768 99.4457 119.63 99.4457C119.491 99.4457 119.358 99.3906 119.26 99.2925C119.162 99.1945 119.106 99.0614 119.106 98.9227C119.106 98.784 119.162 98.651 119.26 98.5529Z" fill="#FFD35C"/>
<path id="Vector_11" d="M101.649 44.5367C101.547 44.5261 101.446 44.5059 101.348 44.4764C101.094 44.4091 100.862 44.2746 100.678 44.0869C100.494 43.8992 100.364 43.6653 100.302 43.4099C100.023 43.4412 99.7405 43.3845 99.4953 43.2475C99.25 43.1105 99.0537 42.9002 98.9339 42.6461C97.7128 40.8947 96.2956 39.2884 94.7099 37.8587C94.1269 37.2953 93.6636 36.4501 92.8592 36.3296C91.5162 36.0886 91.0711 38.5501 89.701 37.3759C88.0311 35.9515 88.3731 34.1965 87.3479 34.1574C86.8252 34.137 86.6843 34.5392 86.7845 34.9415C86.994 35.8477 87.256 36.7411 87.5694 37.6169C87.9779 38.6949 88.006 39.88 87.6492 40.9762C87.6492 41.2173 87.4684 42.0014 87.4684 42.042C87.4481 42.4043 87.0662 42.9459 87.4888 43.1718C87.9874 43.4212 88.3497 42.5098 89.0171 42.2868C89.2326 41.4976 89.5649 40.7452 90.003 40.0543C90.2245 39.753 90.7073 39.3704 90.8278 39.4306C91.0189 39.5165 91.1953 39.6319 91.3505 39.7726C92.7184 40.8587 94.1465 41.8643 95.5949 42.8502C96.9627 43.7752 98.793 43.8158 99.9801 45.0624C100.361 44.905 100.78 44.8631 101.185 44.9419C101.342 44.9788 101.497 45.0259 101.648 45.0828C101.71 44.9061 101.71 44.7136 101.649 44.5367ZM89.0577 37.8986C89.0577 37.8986 89.4803 38.1803 89.5805 38.2609C90.2629 38.8582 88.9214 39.6837 89.0577 37.8986ZM91.4914 38.9245C92.3161 38.1599 93.2411 37.5167 93.3819 37.3962C93.9458 37.8473 94.4707 38.3452 94.9509 38.8845C96.3679 40.1657 97.5701 41.6662 98.5113 43.3285C95.7757 42.5452 93.6237 40.7955 91.4914 38.9245Z" fill="black"/>
<path id="Vector_12" d="M126.615 103.071C122.684 104.156 108.476 101.054 105.012 99.0884C104.569 99.532 101.722 104.307 101.532 104.62C99.0014 108.717 97.2235 113.233 96.2818 117.956C95.6394 121.674 95.4371 125.455 95.6792 129.22C95.6792 131.951 95.616 135.766 96.162 138.453C96.2782 139.066 96.5449 139.641 96.9382 140.125C97.3314 140.61 97.8389 140.989 98.4149 141.229C98.3859 141.175 98.3735 141.113 98.3793 141.053C98.3851 140.992 98.4089 140.934 98.4476 140.886C98.4864 140.839 98.5383 140.804 98.5968 140.786C98.6554 140.769 98.7179 140.769 98.7765 140.786C100.961 141.459 102.729 140.063 103.866 138.051C104.787 136.423 104.405 135.177 104.751 131.373C105.19 125.96 105.563 123.545 108.251 118.719C110.538 114.716 113.529 111.158 117.081 108.219C117.41 107.945 117.765 108.466 117.464 108.681C115.913 109.988 114.461 111.406 113.118 112.926C113.622 113.852 114.059 114.814 114.426 115.802C117.791 123.249 124.021 139.687 124.082 139.84C124.745 141.529 125.889 142.837 128.185 142.656C128.507 142.636 128.849 142.656 129.17 142.636C131.505 142.495 132.59 141.129 132.188 138.794C125.314 99.8152 127.005 104.011 126.615 103.071Z" fill="#B26EE6"/>
<path id="Vector_13" d="M58.3629 14.6459C58.0935 12.6214 57.0567 10.7779 55.4668 9.49612C52.4278 6.96245 48.7813 5.26394 44.8863 4.56783C33.1927 2.35262 18.8755 4.68458 10.0471 12.4533C6.96943 15.1686 5.40048 18.4074 6.58755 22.651C8.56474 29.9 7.99833 33.8318 9.68553 38.3812C10.1111 39.7537 10.9989 40.9365 12.1979 41.7285C13.3969 42.5205 14.8332 42.8729 16.2626 42.7258C18.9944 42.8238 21.7257 42.5193 24.3687 41.8219C24.7747 41.7406 24.5894 41.9236 24.7107 39.911C24.7386 39.7438 18.9365 40.607 16.1022 40.5746C15.1642 40.5846 14.2469 40.2984 13.4812 39.7566C12.7154 39.2148 12.1402 38.4451 11.8375 37.5572C10.4945 34.3839 11.1023 32.5588 8.96094 22.2669C8.58366 20.7405 8.64399 19.1386 9.13501 17.6449C9.62604 16.1512 10.5279 14.826 11.7373 13.8211C24.3168 2.61324 55.2815 3.06592 56.4158 16.721C57.2067 26.2657 58.7184 28.1699 57.2406 32.1092C56.9972 32.7794 56.6095 33.3879 56.1049 33.8916C55.6002 34.3954 54.991 34.782 54.3204 35.0241C52.8038 35.5175 51.2499 35.8875 49.6738 36.1306C49.4319 36.8483 49.2103 37.5727 49.0094 38.3029C49.1569 38.3598 49.3175 38.3739 49.4727 38.3436C54.9395 37.7463 59.6027 36.4899 60.1736 31.0419C60.3084 28.1141 60.1179 27.9657 58.3629 14.6459Z" fill="#F55555"/>
<path id="Vector_14" d="M39.7565 30.0334C39.9135 29.4635 39.941 28.8657 39.8371 28.2837C39.4719 25.5019 38.7136 22.7861 37.585 20.2175C37.4841 19.9765 37.3432 19.7144 37.0623 19.7144C36.761 19.7144 36.6796 19.9961 36.5795 20.2416C36.3979 20.7847 36.1765 21.3277 36.0161 21.8911C35.8345 22.4538 35.5935 22.6549 34.9902 22.374C33.3994 21.6004 33.5222 21.7382 32.8179 23.5038C32.6168 24.1274 32.3351 24.5093 31.5909 24.2276C29.863 23.5994 31.56 26.9234 29.2559 26.9234C28.4515 26.9437 27.7872 26.6221 27.7872 27.0439C27.7872 27.4461 30.2216 30.7452 31.3883 32.4949C31.8089 33.1051 32.4069 33.5714 33.1013 33.8304C33.7956 34.0895 34.5529 34.1289 35.2704 33.9434C35.8541 33.5314 35.5528 32.1432 36.5975 30.7655C37.3417 30.1419 35.8534 29.5604 35.4511 29.0151C35.2297 28.7138 35.3306 28.4923 35.5317 28.231C35.9942 27.7082 36.7791 27.1644 37.0608 27.4461C37.1469 27.5367 37.221 27.638 37.2815 27.7474C37.4403 27.7092 37.6016 27.6823 37.7643 27.6668C37.8278 27.6664 37.8898 27.6861 37.9414 27.7231C37.993 27.76 38.0317 27.8124 38.0518 27.8726C38.0719 27.9328 38.0725 27.9978 38.0535 28.0584C38.0344 28.119 37.9968 28.172 37.9458 28.2099C38.4271 28.9631 38.6764 29.5875 38.9717 29.9799C39.1449 29.9159 39.215 29.9129 39.7565 30.0334Z" fill="#6DD3A8"/>
<path id="Vector_15" d="M39.1128 30.5367C39.7986 30.6095 40.4554 30.8515 41.0245 31.241C43.4303 33.1662 45.0919 34.7442 47.5413 32.8898C47.573 32.866 47.5996 32.8362 47.6198 32.8021C47.6399 32.768 47.6531 32.7303 47.6587 32.6911C47.6643 32.6519 47.6621 32.612 47.6522 32.5736C47.6423 32.5353 47.625 32.4992 47.6012 32.4676C47.5774 32.4359 47.5476 32.4093 47.5135 32.3891C47.4794 32.369 47.4417 32.3558 47.4025 32.3502C47.3633 32.3446 47.3234 32.3469 47.2851 32.3567C47.2467 32.3666 47.2107 32.3839 47.179 32.4077C46.6642 32.8123 46.0419 33.0569 45.3894 33.1112C44.3228 33.1715 42.7531 31.8646 41.9095 31.1604C41.1662 30.4722 40.2209 30.0419 39.2138 29.9334C38.8447 29.8867 38.6993 30.4847 39.1128 30.5367ZM33.823 35.465C33.7457 35.441 33.662 35.4488 33.5904 35.4865C33.5188 35.5242 33.4651 35.5888 33.4411 35.6661C33.4171 35.7434 33.4249 35.8271 33.4626 35.8987C33.5003 35.9703 33.5649 36.024 33.6422 36.048C34.1226 36.1701 34.6224 36.1956 35.1127 36.123C35.603 36.0505 36.074 35.8814 36.4984 35.6254C37.8068 35.8348 38.1028 35.8514 38.1276 35.8672C38.0267 35.6254 37.9265 35.4243 37.8459 35.2232C37.6364 35.2014 37.4281 35.1679 37.2223 35.123C37.7384 34.7062 38.0941 34.1232 38.2286 33.4735C38.2401 33.3988 38.2232 33.3225 38.1812 33.2597C38.1391 33.1969 38.075 33.1522 38.0015 33.1345C37.928 33.1168 37.8506 33.1273 37.7845 33.164C37.7184 33.2007 37.6686 33.2609 37.6448 33.3326C37.5393 33.7144 37.3539 34.0694 37.1008 34.374C36.8477 34.6786 36.5327 34.926 36.1768 35.0997C36.1015 35.0997 36.1309 35.1517 35.935 35.2006C35.2832 35.5316 34.5363 35.6251 33.823 35.465Z" fill="black"/>
<path id="Vector_16" d="M45.5904 26.1312C44.926 22.2092 44.5441 18.2262 43.7397 14.3057C43.6662 13.7657 43.4451 13.2566 43.1007 12.8342C42.7564 12.4119 42.3022 12.0927 41.7881 11.912C39.9977 11.2077 38.1478 11.2883 36.7416 11.1874C31.1756 11.2071 25.6607 12.2504 20.4721 14.265C18.4203 15.0499 17.9978 15.8746 18.3194 18.0469C21.1251 36.4382 20.7071 36.3214 21.8399 36.854C22.6853 37.2382 23.5897 37.4763 24.5146 37.5582C25.0765 37.6283 24.8709 37.7352 25.2189 36.1701C25.2791 35.7678 24.7963 35.7678 24.4348 35.6872C22.9863 35.386 22.4229 34.4407 22.2422 33.0322C21.5582 28.1046 20.7734 23.1959 20.0292 18.2879C19.7279 16.3575 20.0292 15.8543 21.9401 15.3504C29.2614 13.3883 32.7036 12.9348 39.762 13.2188C41.4514 13.2986 41.6932 13.621 42.2559 15.2706C42.6904 16.7975 42.9869 18.3605 43.1417 19.9405C44.6202 29.7813 44.5133 29.6931 44.6903 30.2596C45.2477 30.4166 45.7981 30.5978 46.3398 30.8026C46.1643 29.8927 46.3112 30.3296 45.5904 26.1312Z" fill="#F55555"/>
<path id="Vector_17" d="M49.7743 32.7352C48.2634 31.1308 44.2442 30.0725 42.0915 29.6116C42.0123 29.5973 41.9307 29.6147 41.8642 29.66C41.7977 29.7053 41.7516 29.7749 41.7358 29.8538C41.7201 29.9327 41.7358 30.0146 41.7798 30.082C41.8238 30.1494 41.8924 30.1968 41.971 30.2141C48.6746 31.6166 53.0832 34.5384 46.2952 35.4038C44.5127 35.6131 42.7139 35.6466 40.9248 35.504C40.9048 34.7789 40.9318 34.0533 41.0054 33.3317C41.008 33.2921 41.0028 33.2524 40.9901 33.2149C40.9774 33.1773 40.9574 33.1427 40.9313 33.1128C40.9051 33.083 40.8734 33.0586 40.8378 33.041C40.8023 33.0235 40.7636 33.0131 40.7241 33.0105C40.6845 33.0078 40.6448 33.013 40.6072 33.0258C40.5697 33.0385 40.535 33.0585 40.5052 33.0846C40.4753 33.1107 40.451 33.1425 40.4334 33.178C40.4158 33.2136 40.4054 33.2522 40.4028 33.2918C40.149 36.4651 40.3275 39.2851 42.2731 41.8031C42.3114 41.8474 42.3596 41.882 42.4139 41.9041C42.374 42.5676 42.3333 43.2712 42.2934 43.9754C40.453 44.1244 38.6041 44.138 36.7618 44.0161C36.923 42.3063 37.1241 40.5965 37.3643 38.9063C37.3696 38.8667 37.367 38.8265 37.3567 38.7879C37.3464 38.7494 37.3286 38.7132 37.3043 38.6815C37.2801 38.6498 37.2498 38.6233 37.2152 38.6033C37.1807 38.5833 37.1425 38.5703 37.103 38.5651C37.0634 38.5598 37.0232 38.5624 36.9846 38.5727C36.9461 38.583 36.9099 38.6008 36.8782 38.6251C36.8466 38.6493 36.82 38.6796 36.8 38.7142C36.78 38.7487 36.767 38.7869 36.7618 38.8264C36.5 40.5351 36.299 42.2525 36.1592 43.9754C34.3195 43.7866 32.5245 43.2903 30.849 42.5074C31.0501 40.8782 31.3115 39.2286 31.6535 37.4179C31.6677 37.3387 31.6503 37.2571 31.605 37.1906C31.5597 37.1241 31.4902 37.078 31.4113 37.0622C31.3324 37.0464 31.2504 37.0622 31.183 37.1062C31.1157 37.1502 31.0682 37.2188 31.0509 37.2974C30.7285 39.0471 30.4671 40.6567 30.266 42.2257C29.4002 41.7857 28.5725 41.2743 27.7917 40.6967C27.7277 40.6487 27.6472 40.6282 27.5681 40.6395C27.4889 40.6509 27.4175 40.6933 27.3695 40.7573C27.3216 40.8213 27.301 40.9018 27.3124 40.9809C27.3238 41.0601 27.3661 41.1315 27.4302 41.1795C28.2972 41.8224 29.2192 42.3878 30.1854 42.8689C29.7712 46.3337 29.7335 48.9813 29.7026 49.4671C28.7965 49.0811 27.9159 48.6375 27.0664 48.1392C26.997 48.0965 26.9136 48.0832 26.8345 48.102C26.7553 48.1209 26.6868 48.1704 26.6442 48.2397C26.6015 48.3091 26.5882 48.3925 26.607 48.4717C26.6259 48.5508 26.6754 48.6193 26.7447 48.6619C27.6813 49.2192 28.6559 49.71 29.6612 50.1307C29.6213 51.8804 29.6409 53.6708 29.6815 55.1019C29.6815 55.4838 30.3316 55.483 30.2841 55.062C30.2239 53.7145 30.2238 52.0047 30.2434 50.3551C32.0094 51.0277 33.8555 51.4672 35.7351 51.6627C35.7351 52.9997 35.7653 55.5041 35.876 56.8321C35.8789 56.9092 35.9122 56.9821 35.9687 57.0349C36.0251 57.0877 36.1001 57.116 36.1773 57.1138C36.2187 57.1139 36.2597 57.1054 36.2977 57.089C36.3357 57.0725 36.3699 57.0484 36.3981 57.0182C36.4264 56.9879 36.4481 56.9522 36.462 56.9132C36.4758 56.8741 36.4815 56.8327 36.4786 56.7914C36.3686 55.471 36.3377 53.0351 36.3377 51.7027C38.2002 51.8376 40.0721 51.743 41.9115 51.4209C41.8708 52.6886 41.8106 55.5847 41.8106 55.5847C41.8052 55.6646 41.8318 55.7434 41.8844 55.8037C41.9371 55.864 42.0116 55.901 42.0915 55.9064C42.1714 55.9117 42.2502 55.8852 42.3105 55.8325C42.3708 55.7798 42.4078 55.7053 42.4131 55.6254C42.4131 55.6254 42.4937 52.6276 42.5337 51.3208C43.5216 51.1206 44.4959 50.8585 45.4509 50.5359C45.5168 50.503 45.5683 50.4471 45.5958 50.3788C45.6233 50.3105 45.6248 50.2344 45.6 50.1651C45.5753 50.0957 45.526 50.0378 45.4614 50.0023C45.3969 49.9669 45.3216 49.9563 45.2498 49.9725C44.3588 50.2705 43.4521 50.519 42.5337 50.7167C42.6143 48.5648 42.6949 46.4927 42.7958 44.5622C43.8484 44.4568 44.8955 44.3022 45.9337 44.0989C46.0089 44.0783 46.0735 44.0299 46.1144 43.9634C46.1554 43.897 46.1696 43.8176 46.1542 43.7411C46.1388 43.6646 46.0949 43.5968 46.0315 43.5514C45.9681 43.506 45.8898 43.4863 45.8124 43.4964C44.8215 43.6944 43.8212 43.8423 42.8154 43.9393C42.896 42.2295 42.9969 40.6402 43.0971 39.2121C43.1009 39.1324 43.0736 39.0544 43.0211 38.9944C42.9686 38.9345 42.8948 38.8972 42.8154 38.8904C42.7368 38.8906 42.6609 38.9193 42.6018 38.9711C42.5427 39.0228 42.5043 39.0943 42.4937 39.1721C42.4538 39.7747 42.4131 40.3991 42.3732 41.0627C41.6921 40.0802 41.2324 38.9615 41.0257 37.784C43.1626 37.8631 46.8149 37.8668 48.6889 36.8183C47.0422 42.6381 46.1832 48.6524 46.1348 54.7005C41.965 59.338 29.4887 58.2812 25.7377 52.9304C25.8477 51.1174 25.6375 39.8817 26.5429 33.761C28.6564 36.0561 35.7156 37.3599 38.873 37.6228C38.7729 37.4021 38.6719 37.2002 38.5717 36.9795C38.2298 36.9389 37.8682 36.8989 37.5059 36.8583C31.4313 36.0538 27.2471 34.2439 26.7041 32.9363L26.6845 32.9159C26.7447 32.5943 26.8253 32.2727 26.8856 31.9706C27.8105 33.2383 30.6268 34.3644 33.9056 35.1289C34.2679 35.0483 34.7906 35.1085 35.0723 34.9074C35.1157 34.8693 35.1629 34.8357 35.2132 34.8073C30.373 33.8349 24.1409 31.2852 28.8568 29.8986C28.9341 29.8745 28.9987 29.8207 29.0363 29.749C29.0739 29.6773 29.0816 29.5936 29.0575 29.5163C29.0334 29.439 28.9796 29.3744 28.9079 29.3368C28.8363 29.2991 28.7525 29.2915 28.6752 29.3156C27.4083 29.6779 26.7244 30.2194 26.6039 30.8845C25.1652 34.912 25.2353 45.5722 25.1728 50.4162C25.1728 52.7187 25.0771 53.1164 25.1524 53.1918C29.1151 59.0224 42.3898 60.0844 46.6756 54.9618C46.8488 54.7456 46.4783 49.5093 48.063 41.5855C49.7871 33.4771 51.051 34.0902 49.7743 32.7352ZM35.7939 51.0534C33.9174 50.8547 32.0767 50.4014 30.3225 49.7059C30.3383 49.3714 30.385 46.4738 30.7654 43.1288C32.4519 43.8944 34.2527 44.3779 36.0959 44.5599C35.9157 46.72 35.815 48.8859 35.7939 51.0534ZM41.9891 50.8124C40.1451 51.1473 38.2655 51.2419 36.3972 51.0941C36.4178 48.9414 36.5182 46.7889 36.6985 44.6367C38.5477 44.7583 40.4032 44.745 42.2505 44.5968C42.1503 46.5484 42.0697 48.6401 41.9891 50.8124ZM49.0897 35.8068C49.0483 35.822 49.0132 35.8503 48.9895 35.8874C48.2453 36.7317 45.3281 37.3554 41.0054 37.1543C40.9647 36.8123 40.9451 36.4704 40.9248 36.1284C41.6893 36.1691 42.4538 36.209 43.1573 36.209C49.7269 36.209 49.5823 34.3305 49.0897 35.8068Z" fill="black"/>
<path id="Vector_18" d="M47.6419 32.6893C47.6422 32.7308 47.6311 32.7716 47.6097 32.8072C47.5883 32.8428 47.5575 32.8719 47.5207 32.8911C46.9095 33.3744 46.1664 33.6617 45.3891 33.7151C43.5685 33.7151 41.51 31.5451 41.0038 31.2416C40.4343 30.8536 39.778 30.6117 39.0929 30.5373C39.0309 30.5283 38.9731 30.5004 38.9273 30.4576C38.8815 30.4147 38.8499 30.3588 38.8368 30.2975C38.8237 30.2362 38.8296 30.1723 38.8539 30.1145C38.8781 30.0566 38.9195 30.0076 38.9724 29.9739C38.7329 29.6726 38.3472 28.8335 37.9465 28.2039C37.9218 28.2255 37.893 28.242 37.8619 28.2524C37.8307 28.2627 37.7977 28.2667 37.765 28.2641C37.5842 28.2655 37.4067 28.3122 37.2488 28.4002C37.0908 28.4881 36.9575 28.6143 36.8611 28.7673C37.4843 29.0778 38.0124 29.5503 38.3902 30.1351C38.4191 30.1989 38.4249 30.2707 38.4066 30.3382C38.3883 30.4058 38.347 30.4649 38.2899 30.5053C38.2328 30.5458 38.1633 30.5651 38.0935 30.5599C38.0237 30.5548 37.9579 30.5255 37.9074 30.4771C37.8268 30.5373 37.7062 30.6179 37.5857 30.7181C37.1391 31.1569 36.8014 31.6942 36.5998 32.287C36.4644 33.3102 35.9473 34.2444 35.1521 34.9022C34.6889 35.2238 33.6027 34.9022 33.6027 35.486C33.6362 35.4673 33.6732 35.4558 33.7113 35.4523C33.7494 35.4488 33.7879 35.4533 33.8242 35.4656C34.6097 35.6601 35.4397 35.5509 36.1483 35.1599C36.8569 34.7689 37.3917 34.1249 37.646 33.3566C37.7695 32.8625 38.8978 33.0892 37.6256 34.7245C38.4301 36.4742 40.643 41.8853 42.3709 41.9252C42.3291 41.9105 42.2935 41.8821 42.27 41.8446C40.5014 39.5609 40.3192 37.2929 40.3192 34.8653C40.315 34.3545 40.3419 33.8438 40.3997 33.3363C40.405 33.2564 40.4419 33.1818 40.5021 33.1291C40.5624 33.0763 40.6411 33.0497 40.721 33.0549C40.8009 33.0602 40.8754 33.0971 40.9282 33.1573C40.9809 33.2176 41.0076 33.2963 41.0023 33.3762C40.962 33.8043 40.9418 34.2341 40.9421 34.6642C41.1823 34.6642 42.2722 34.9534 43.2145 35.0062C44.321 35.086 47.5832 34.2816 47.6404 32.9544L47.6419 32.6893Z" fill="#FFD35C"/>
<path id="Vector_19" d="M37.2019 112.283C36.3695 112.993 35.4506 113.595 34.467 114.074C34.2109 114.18 33.9834 114.346 33.8027 114.556C36.6287 115.554 46.5584 114.801 50.6589 110.171C50.6589 110.151 50.6792 110.151 50.6995 110.151C50.3761 110.012 50.025 109.951 49.6737 109.97C49.0184 109.946 48.366 109.872 47.7221 109.749C44.9066 109.306 43.0755 107.838 42.3916 104.962C41.2339 100.123 35.8273 65.7947 35.5328 59.1603C35.5548 58.8041 35.4998 58.4472 35.3716 58.1141C34.313 57.9953 33.2643 57.8005 32.2337 57.5311C32.0733 57.7925 32.2141 58.3356 32.3746 59.2809C33.4532 65.9092 33.4599 70.3479 36.0962 88.8694C36.9609 94.8236 38.2481 100.695 39.3749 106.591C39.6514 107.648 39.5905 108.765 39.2009 109.785C38.8112 110.806 38.1123 111.679 37.2019 112.283Z" fill="#F55555"/>
<path id="Vector_20" d="M51.3422 111.116C51.2909 110.927 51.2168 110.745 51.1215 110.574C51.1215 110.577 51.121 110.579 51.1199 110.582C51.1189 110.584 51.1174 110.586 51.1155 110.588C51.1136 110.59 51.1113 110.591 51.1089 110.592C51.1064 110.593 51.1038 110.594 51.1012 110.594C50.4572 111.318 47.9633 113.792 42.995 114.838C40.4477 115.389 36.4067 115.914 33.9225 115.261C33.9666 115.769 33.9666 116.28 33.9225 116.789C34.2017 116.983 34.5162 117.119 34.8482 117.191C35.9825 117.599 37.1834 117.791 38.3884 117.755C44.1128 117.559 47.4669 116.055 50.7411 113.612C51.6841 112.887 51.6179 112.104 51.3422 111.116Z" fill="#F55555"/>
<path id="Vector_21" d="M37.8452 30.4355C37.8832 30.5035 37.9463 30.5537 38.0211 30.5755C38.0958 30.5973 38.1761 30.5889 38.2446 30.552C38.3132 30.5152 38.3645 30.4529 38.3876 30.3785C38.4107 30.3042 38.4036 30.2238 38.3679 30.1546C37.9755 29.5827 37.4514 29.1135 36.8396 28.7868C36.9344 28.6323 37.0673 28.5049 37.2256 28.4167C37.3839 28.3286 37.5623 28.2827 37.7435 28.2836C37.783 28.2836 37.8222 28.2758 37.8588 28.2607C37.8953 28.2455 37.9285 28.2233 37.9565 28.1954C37.9845 28.1674 38.0067 28.1342 38.0218 28.0976C38.037 28.0611 38.0448 28.0219 38.0448 27.9823C38.0448 27.9428 38.037 27.9036 38.0218 27.867C38.0067 27.8305 37.9845 27.7973 37.9565 27.7693C37.9285 27.7413 37.8953 27.7191 37.8588 27.704C37.8222 27.6888 37.783 27.681 37.7435 27.681C37.465 27.6831 37.1913 27.7535 36.9463 27.8858C36.7013 28.0182 36.4924 28.2085 36.338 28.4403C35.8303 29.375 37.2765 29.3863 37.8452 30.4355Z" fill="black"/>
</g>
</svg>
