<svg width="151" height="151" viewBox="0 0 151 151" fill="none" xmlns="http://www.w3.org/2000/svg">
<g id="Downloading-2--Streamline-Barcelona">
<path id="Vector" d="M20.0757 70.6102C18.6604 73.5041 17.2459 76.5907 17.6956 79.8062C18.2748 83.6009 21.4262 86.4345 24.7057 88.5526C27.342 90.2247 30.1718 91.6408 32.4232 93.6978C32.8957 94.0976 33.2217 94.6432 33.3498 95.2488C33.4778 95.8543 33.4007 96.4852 33.1305 97.0421C30.0385 103.468 27.7488 110.25 26.3131 117.235C26.2584 117.489 26.2627 117.753 26.3257 118.005C26.3886 118.257 26.5086 118.492 26.6763 118.69C26.844 118.889 27.0551 119.047 27.2932 119.151C27.5313 119.256 27.7902 119.304 28.05 119.293C40.3169 118.862 40.2521 119.27 40.8479 118.841C41.3751 118.409 41.7567 117.825 41.9408 117.169C44.449 110.095 46.9572 103.084 49.4655 96.0102C50.4348 93.1012 50.6156 91.9518 47.9214 89.2576C43.1979 84.5342 40.2981 83.4299 39.1087 81.4121C37.887 79.2895 38.6568 76.6533 39.4304 74.3379C34.9314 70.0317 26.0563 69.0699 20.0757 70.6102Z" fill="#6DD3A8"/>
<path id="Vector_2" d="M70.6232 91.2535C70.0003 89.8299 68.3726 89.1957 66.9573 88.6812C62.0057 86.8803 59.0486 85.0801 54.0954 83.2792C52.6499 82.8777 51.3249 82.1277 50.2367 81.0949C49.2726 80.0019 49.015 78.0722 50.1087 77.0433V76.9785C46.8548 73.1093 41.6357 71.6503 38.4684 72.2837C38.9667 72.612 39.4396 72.9773 39.883 73.3766C39.947 73.4414 40.0118 73.5702 39.947 73.6343C39.2729 75.793 38.5159 78.0345 39.4326 80.1292C40.3696 82.2714 42.6021 82.9847 47.214 87.2682C48.7581 88.7475 50.8159 90.4189 50.8159 92.7343C50.7627 93.6865 50.5451 94.6222 50.1727 95.5001C51.3944 95.821 52.6809 96.0786 53.9026 96.3354C54.186 96.3944 54.4543 96.5109 54.6908 96.6776C54.9274 96.8444 55.1272 97.058 55.278 97.3051C55.4287 97.5522 55.5271 97.8276 55.5672 98.1142C55.6072 98.4009 55.588 98.6927 55.5107 98.9717C54.0954 103.792 51.3944 109.069 51.0087 113.956C50.8799 115.435 50.3015 117.3 51.9088 117.943C52.4075 118.192 58.9763 118.036 58.5326 118.072C62.826 117.729 63.4684 116.805 64.7708 113.827C66.9774 107.691 68.8665 101.444 70.4304 95.113C70.8161 93.8265 71.155 92.4684 70.6232 91.2535Z" fill="#6DD3A8"/>
<path id="Vector_3" d="M84.0645 48.4231C83.5244 44.8687 83.2051 44.0349 77.4407 40.5144C72.7555 37.6886 67.9006 35.1542 62.9036 32.9257C52.3428 28.7326 32.5754 19.7783 25.6096 28.8252C21.3256 31.7288 17.7612 35.5722 15.1881 40.0624C12.6852 44.6812 10.7422 49.5822 9.40042 54.6613C8.43555 58.4552 7.85633 62.9572 9.78607 66.5621C10.6612 68.1848 12.0062 69.5051 13.6448 70.35C14.7949 70.9437 16.0025 71.4187 17.2489 71.7676C36.1547 78.0697 43.8586 78.6723 61.6382 84.8562C71.2169 89.9645 78.3973 75.6014 81.5985 65.2116C81.4186 65.2371 81.238 65.2569 81.0569 65.2711C80.2863 67.7708 79.3598 70.2198 78.2828 72.6036C73.1873 83.7874 67.0923 86.8161 62.4653 84.4367C53.3973 79.8067 55.327 70.2883 60.4715 59.0337C66.4219 46.0174 87.8931 31.1368 82.8164 58.2421C82.9907 58.1819 83.1706 58.1392 83.3535 58.1148C83.6126 56.6565 83.8099 55.1772 83.9447 53.6964C84.2705 51.9568 84.3109 50.1758 84.0645 48.4231ZM27.9213 55.175C26.8555 55.5749 25.9064 54.2259 25.413 53.182C25.1682 52.6622 24.3977 53.1112 24.6418 53.6339C26.8509 58.349 26.7123 58.691 27.4068 60.0001C27.8744 60.7996 28.1187 61.7101 28.1141 62.6363C28.1141 64.2181 25.9147 63.8468 25.0259 62.2507C24.769 61.8643 23.997 62.1219 24.1898 62.5716C24.943 64.4546 24.049 65.5302 22.8393 65.5302C21.296 65.5302 20.3959 64.0509 19.6886 62.8939C19.6362 62.8084 19.5569 62.7428 19.4631 62.7073C19.3694 62.6718 19.2665 62.6686 19.1706 62.698C19.0748 62.7274 18.9914 62.7878 18.9337 62.8698C18.876 62.9518 18.8472 63.0506 18.8518 63.1508C19.0024 64.5179 19.8618 65.3419 19.6238 66.1734C19.6209 66.281 19.5931 66.3863 19.5425 66.4813C19.4919 66.5762 19.4199 66.6581 19.3323 66.7204C19.2446 66.7828 19.1437 66.824 19.0375 66.8407C18.9312 66.8574 18.8225 66.8492 18.72 66.8167C17.3559 66.4755 15.2838 62.674 11.581 56.0126C15.175 50.7525 19.8736 46.3401 25.349 43.0836C26.7447 47.0387 28.151 49.8625 28.6933 53.1157C28.6933 53.7604 28.7573 54.9181 27.9213 55.175ZM32.4873 48.8728C30.8731 49.0235 30.5078 46.2155 32.4873 46.043C34.0976 45.9029 34.4712 48.7079 32.4873 48.8728ZM32.4232 28.0366C32.3359 27.687 32.3876 27.3171 32.5675 27.0049C32.7473 26.6926 33.0412 26.4622 33.3873 26.3622C36.3098 25.8204 39.3227 26.0419 42.1344 27.0054C42.4686 27.1227 42.7497 27.3559 42.9266 27.6627C43.1035 27.9695 43.1645 28.3296 43.0986 28.6776C43.0587 28.8545 42.9826 29.0212 42.8752 29.1673C42.7678 29.3134 42.6313 29.4356 42.4743 29.5264C42.3173 29.6172 42.1432 29.6745 41.963 29.6947C41.7828 29.7149 41.6004 29.6976 41.4272 29.644C37.0065 28.3183 35.9611 28.9367 34.5458 28.9367C34.3168 28.9367 32.8902 29.4376 32.4232 28.0366ZM36.7964 50.4824C36.4309 50.4678 36.0853 50.3124 35.8319 50.0486C35.5784 49.7849 35.4369 49.4333 35.4369 49.0675C35.4369 48.7018 35.5784 48.3502 35.8319 48.0864C36.0853 47.8227 36.4309 47.6672 36.7964 47.6526C37.1565 47.6746 37.4947 47.8332 37.7419 48.096C37.9892 48.3588 38.1268 48.706 38.1268 49.0668C38.1268 49.4276 37.9892 49.7748 37.7419 50.0376C37.4947 50.3004 37.1565 50.4589 36.7964 50.4809V50.4824ZM54.5459 57.3631C54.3946 57.6245 54.1617 57.829 53.8829 57.9452C53.604 58.0614 53.2948 58.0829 53.0026 58.0063C48.8268 56.9631 43.6785 58.6435 40.5904 59.4856C40.2414 59.5639 39.8758 59.5082 39.566 59.3295C39.2563 59.1507 39.025 58.8621 38.9182 58.5208C38.8316 58.1715 38.8838 57.8022 39.0637 57.4906C39.2436 57.1789 39.5373 56.9491 39.8831 56.8494C42.6892 55.9666 45.5758 55.3634 48.5006 55.0484C45.9305 54.0774 43.3119 53.2402 40.6551 52.5402C40.4803 52.4966 40.316 52.4183 40.1721 52.3099C40.0283 52.2014 39.9077 52.0651 39.8176 51.909C39.7276 51.753 39.6699 51.5804 39.648 51.4015C39.6261 51.2227 39.6405 51.0413 39.6903 50.8681C39.7363 50.6947 39.8162 50.5321 39.9252 50.3897C40.0343 50.2473 40.1704 50.1278 40.3258 50.0382C40.4812 49.9485 40.6528 49.8904 40.8306 49.8673C41.0085 49.8441 41.1892 49.8563 41.3624 49.9032C43.7418 50.5465 46.0572 51.2537 48.3078 52.0875C47.2968 50.4092 46.4361 48.6448 45.7356 46.815C45.6868 46.6412 45.6731 46.4594 45.6951 46.2803C45.7171 46.1011 45.7744 45.9281 45.8637 45.7712C45.9531 45.6143 46.0726 45.4767 46.2155 45.3664C46.3584 45.2561 46.5217 45.1752 46.6961 45.1284C46.8704 45.0816 47.0523 45.0699 47.2312 45.0939C47.4102 45.1179 47.5825 45.1772 47.7384 45.2682C47.8943 45.3593 48.0305 45.4804 48.1392 45.6245C48.2479 45.7686 48.327 45.9329 48.3718 46.1078C48.4223 46.1831 53.2218 54.5852 53.2594 54.6605C53.9426 55.48 54.9708 56.2287 54.5459 57.3616V57.3631ZM145.545 127.396C143.303 125.014 137.244 124.18 134.034 123.855C121.447 122.479 88.9913 123.286 76.4758 126.3C73.5383 127.034 68.9678 128.208 67.7295 130.994C67.4475 131.796 67.3474 132.651 67.4364 133.496C67.5254 134.342 67.8012 135.157 68.2439 135.882C69.9688 138.077 73.8343 138.587 76.6046 138.97C87.9029 140.521 121.095 139.327 133.39 137.491C136.877 136.981 142.552 136.04 145.291 133.761C147.441 131.805 147.286 128.992 145.545 127.396ZM111.268 138.139C105.457 138.39 73.5074 139.866 69.3376 135.696C68.5625 134.921 68.5015 133.808 68.5015 132.545C68.5525 132.028 68.7174 131.53 68.9843 131.085C69.2512 130.64 69.6134 130.26 70.0449 129.972C75.7196 126.567 88.0543 125.604 94.675 125.213C102.613 124.712 136.512 122.857 143.229 127.335C145.247 128.345 146.428 131.409 145.193 132.691C143.312 134.639 136.101 137.227 111.268 138.139Z" fill="#FCAFB7"/>
<path id="Vector_4" d="M93.6471 86.6235C93.6471 87.6298 94.0468 88.5948 94.7583 89.3063C95.4699 90.0178 96.4349 90.4175 97.4411 90.4175C98.4473 90.4175 99.4123 90.0178 100.124 89.3063C100.835 88.5948 101.235 87.6298 101.235 86.6235C101.235 85.6173 100.835 84.6523 100.124 83.9408C99.4123 83.2293 98.4473 82.8296 97.4411 82.8296C96.4349 82.8296 95.4699 83.2293 94.7583 83.9408C94.0468 84.6523 93.6471 85.6173 93.6471 86.6235Z" fill="#6DD3A8"/>
<path id="Vector_5" d="M104.387 72.4748C104.387 73.1912 104.671 73.8782 105.178 74.3848C105.684 74.8913 106.371 75.1759 107.088 75.1759C107.804 75.1759 108.491 74.8913 108.997 74.3848C109.504 73.8782 109.789 73.1912 109.789 72.4748C109.789 71.7585 109.504 71.0715 108.997 70.5649C108.491 70.0584 107.804 69.7738 107.088 69.7738C106.371 69.7738 105.684 70.0584 105.178 70.5649C104.671 71.0715 104.387 71.7585 104.387 72.4748Z" fill="#6DD3A8"/>
<path id="Vector_6" d="M108.116 121.158C108.116 122.369 108.597 123.53 109.453 124.386C110.31 125.243 111.471 125.724 112.682 125.724C113.893 125.724 115.055 125.243 115.911 124.386C116.767 123.53 117.248 122.369 117.248 121.158C117.248 119.947 116.767 118.785 115.911 117.929C115.055 117.073 113.893 116.592 112.682 116.592C111.471 116.592 110.31 117.073 109.453 117.929C108.597 118.785 108.116 119.947 108.116 121.158Z" fill="#6DD3A8"/>
<path id="Vector_7" d="M74.9966 62.7637L63.4852 67.0728L65.6718 54.5966L74.9966 62.7637ZM117.313 90.8677L109.981 84.6936L119.242 81.4141L117.313 90.8677ZM98.0842 130.869L86.2512 120.901L101.236 115.627L98.0842 130.869Z" fill="#F55555"/>
<path id="Vector_8" d="M103.321 111.839L105.916 104.231L113.524 106.826L110.928 114.434L103.321 111.839ZM82.9528 95.0436L89.6881 93.098L91.6329 99.8318L84.8984 101.777L82.9528 95.0436Z" fill="#FFD35C"/>
<path id="Vector_9" d="M93.1963 73.0533C93.1921 72.9624 93.153 72.8765 93.0871 72.8136C93.0213 72.7507 92.9337 72.7157 92.8427 72.7157C92.7516 72.7157 92.664 72.7507 92.5982 72.8136C92.5323 72.8765 92.4932 72.9624 92.489 73.0533V74.2758C91.4658 72.5374 89.8042 71.2671 87.8582 70.7357C87.7659 70.7143 87.6688 70.7295 87.5874 70.7782C87.506 70.8268 87.4466 70.9051 87.4216 70.9966C87.3967 71.0881 87.4081 71.1857 87.4536 71.2689C87.499 71.3521 87.575 71.4145 87.6654 71.443C89.4189 71.9027 90.9208 73.0346 91.8458 74.5937C91.6656 74.4816 91.4706 74.3951 91.2665 74.3368C91.1742 74.3154 91.0771 74.3307 90.9957 74.3793C90.9143 74.4279 90.8549 74.5062 90.8299 74.5977C90.805 74.6892 90.8164 74.7868 90.8619 74.87C90.9074 74.9532 90.9833 75.0156 91.0737 75.0441C91.7009 75.2888 92.2237 75.7435 92.553 76.3306C92.5962 76.401 92.6611 76.4555 92.7379 76.4859C92.8147 76.5163 92.8993 76.521 92.9789 76.4992C93.0586 76.4775 93.1291 76.4305 93.1798 76.3654C93.2306 76.3002 93.2588 76.2203 93.2603 76.1378C93.1963 75.1119 93.1963 74.0822 93.1963 73.0533ZM111.589 95.8841C111.521 96.1402 111.46 96.4625 111.396 96.7201C110.952 94.9384 110.259 93.228 109.338 91.639C109.283 91.5627 109.201 91.5099 109.109 91.4911C109.017 91.4723 108.921 91.4888 108.84 91.5373C108.759 91.5858 108.699 91.6629 108.673 91.7532C108.646 91.8436 108.654 91.9407 108.695 92.0253C109.576 93.4583 110.227 95.0207 110.624 96.6554C110.2 96.3905 109.747 96.1746 109.274 96.0121C109.182 95.993 109.086 96.0096 109.007 96.0585C108.927 96.1074 108.869 96.185 108.844 96.2753C108.819 96.3657 108.83 96.4621 108.874 96.5447C108.918 96.6274 108.992 96.6902 109.081 96.7201C109.84 96.9046 110.504 97.3624 110.946 98.0059C111.064 98.3607 111.721 98.4473 111.85 98.0707C111.978 97.4274 112.107 96.7842 112.302 96.1409C112.425 95.6265 111.71 95.4321 111.589 95.8841ZM104.064 62.9572C104.129 62.5053 103.421 62.314 103.357 62.7644C103.293 63.086 103.293 63.3429 103.228 63.6683C102.509 62.0535 101.378 60.6563 99.9489 59.6167C99.5632 59.3591 99.2416 59.9383 99.5632 60.26C100.883 61.2677 101.923 62.596 102.585 64.1187C102.236 63.9867 101.865 63.921 101.492 63.9251C101.04 63.9251 101.04 64.6972 101.492 64.6331C101.853 64.6093 102.212 64.687 102.531 64.8575C102.849 65.0279 103.113 65.2842 103.293 65.5972C103.333 65.673 103.4 65.7313 103.481 65.7608C103.561 65.7903 103.65 65.789 103.73 65.7572C103.809 65.7253 103.874 65.6652 103.912 65.5882C103.95 65.5113 103.959 65.423 103.936 65.3404C103.85 64.5443 103.893 63.7395 104.064 62.9572ZM78.4046 60.5771C78.2758 59.9346 78.2118 59.2913 78.083 58.7121C78.019 58.2602 77.3757 58.4553 77.3757 58.8409C76.6716 57.8462 75.8749 56.9204 74.9963 56.0758C74.6747 55.7542 74.1603 56.2687 74.4819 56.5903C75.4817 57.5568 76.3664 58.6358 77.1181 59.8058C76.678 59.6266 76.2269 59.4756 75.7676 59.3538C75.6749 59.3315 75.5772 59.3462 75.4952 59.3947C75.4131 59.4432 75.3531 59.5217 75.328 59.6136C75.3028 59.7056 75.3144 59.8037 75.3603 59.8872C75.4063 59.9708 75.4829 60.0331 75.574 60.0611C76.3685 60.2385 77.1289 60.5437 77.8254 60.965C78.1478 61.2203 78.4694 60.8987 78.4046 60.5771ZM79.5623 88.2954C79.5623 88.8099 79.4983 89.2595 79.4983 89.7747C78.7933 88.4042 77.8069 87.1978 76.6037 86.2346C76.218 85.913 75.7036 86.4274 76.0892 86.7491C77.2107 87.6652 78.1303 88.8036 78.7903 90.0926C78.5097 89.9037 78.2059 89.7518 77.8864 89.6407C77.4345 89.4478 77.2432 90.1551 77.6936 90.3479C78.3538 90.5948 78.948 90.9911 79.4298 91.5056C79.6874 91.7625 80.009 91.5696 80.073 91.248C80.137 90.2839 80.137 89.2543 80.2018 88.2901C80.2696 87.781 79.5623 87.781 79.5623 88.2954ZM96.283 111.125C96.2189 111.383 96.0901 111.577 96.0254 111.833C95.9004 110.09 95.5102 108.377 94.8684 106.752C94.6749 106.3 93.9646 106.495 94.1604 106.945C94.8026 108.548 95.1931 110.24 95.3181 111.961C95.1253 111.704 94.9325 111.383 94.7396 111.125C94.482 110.74 93.8358 111.125 94.0964 111.511C94.6108 112.218 95.0613 112.862 95.5757 113.57C95.612 113.626 95.663 113.671 95.7233 113.7C95.7835 113.729 95.8506 113.741 95.9171 113.734C95.9837 113.727 96.0471 113.702 96.1003 113.662C96.1536 113.621 96.1946 113.567 96.2189 113.505C96.4758 112.798 96.7334 112.09 97.055 111.383C97.0829 111.282 97.0711 111.175 97.022 111.083C96.9729 110.991 96.8904 110.921 96.7913 110.888C96.6922 110.855 96.5843 110.861 96.4897 110.905C96.3951 110.949 96.3211 111.028 96.283 111.125ZM121.75 116.849C121.686 116.913 121.686 117.042 121.621 117.106C121.581 115.572 121.409 114.044 121.107 112.54C121.043 112.088 120.335 112.283 120.399 112.733C120.698 114.26 120.87 115.808 120.914 117.364C120.721 117.042 120.528 116.656 120.335 116.335C120.28 116.259 120.198 116.207 120.106 116.188C120.014 116.17 119.919 116.186 119.838 116.234C119.758 116.283 119.698 116.359 119.671 116.449C119.644 116.539 119.652 116.636 119.692 116.72C120.144 117.492 120.528 118.264 120.978 119.036C121.014 119.088 121.062 119.13 121.118 119.16C121.174 119.189 121.236 119.204 121.3 119.204C121.363 119.204 121.425 119.189 121.481 119.16C121.537 119.13 121.585 119.088 121.621 119.036L122.393 117.3C122.522 116.784 121.946 116.399 121.75 116.849ZM114.612 101.286C114.752 101.286 114.888 101.328 115.004 101.406C115.121 101.484 115.211 101.594 115.265 101.723C115.318 101.853 115.332 101.995 115.305 102.132C115.277 102.269 115.21 102.395 115.111 102.494C115.012 102.593 114.886 102.66 114.749 102.687C114.612 102.714 114.469 102.7 114.34 102.647C114.211 102.593 114.101 102.503 114.023 102.386C113.945 102.27 113.904 102.133 113.904 101.993C113.904 101.9 113.922 101.808 113.958 101.723C113.993 101.637 114.045 101.559 114.111 101.493C114.177 101.427 114.255 101.375 114.341 101.34C114.427 101.304 114.519 101.286 114.612 101.286ZM93.1315 93.5047C93.2714 93.5047 93.4081 93.5461 93.5245 93.6239C93.6408 93.7016 93.7314 93.812 93.7849 93.9413C93.8385 94.0705 93.8525 94.2127 93.8252 94.3499C93.7979 94.4871 93.7305 94.6131 93.6316 94.7121C93.5327 94.811 93.4067 94.8783 93.2695 94.9056C93.1323 94.9329 92.9901 94.9189 92.8609 94.8654C92.7316 94.8118 92.6212 94.7212 92.5434 94.6049C92.4657 94.4886 92.4242 94.3518 92.4242 94.2119C92.4242 94.0244 92.4988 93.8445 92.6314 93.7118C92.764 93.5792 92.9439 93.5047 93.1315 93.5047ZM89.0807 82.1213C89.2206 82.1215 89.3572 82.1631 89.4734 82.2409C89.5897 82.3187 89.6802 82.4292 89.7336 82.5584C89.787 82.6877 89.8009 82.8299 89.7736 82.967C89.7462 83.1042 89.6788 83.2301 89.5798 83.329C89.4809 83.4278 89.3548 83.4951 89.2177 83.5223C89.0805 83.5495 88.9383 83.5355 88.8091 83.4819C88.6799 83.4284 88.5695 83.3377 88.4918 83.2214C88.4142 83.1051 88.3727 82.9684 88.3727 82.8286C88.3729 82.6409 88.4476 82.461 88.5803 82.3284C88.7131 82.1958 88.8931 82.1213 89.0807 82.1213ZM92.489 114.79C92.6289 114.79 92.7655 114.832 92.8818 114.909C92.998 114.987 93.0885 115.098 93.1419 115.227C93.1953 115.356 93.2092 115.498 93.1819 115.636C93.1545 115.773 93.0871 115.899 92.9881 115.997C92.8892 116.096 92.7631 116.164 92.626 116.191C92.4888 116.218 92.3466 116.204 92.2174 116.15C92.0882 116.097 91.9778 116.006 91.9001 115.89C91.8225 115.774 91.781 115.637 91.781 115.497C91.781 115.404 91.7993 115.312 91.8349 115.226C91.8705 115.14 91.9227 115.062 91.9884 114.997C92.0542 114.931 92.1322 114.879 92.2181 114.843C92.304 114.808 92.3961 114.79 92.489 114.79ZM99.8201 100.579C99.96 100.579 100.097 100.62 100.213 100.698C100.329 100.776 100.42 100.886 100.474 101.015C100.527 101.145 100.541 101.287 100.514 101.424C100.486 101.561 100.419 101.687 100.32 101.786C100.221 101.885 100.095 101.953 99.9581 101.98C99.8209 102.007 99.6787 101.993 99.5494 101.94C99.4202 101.886 99.3097 101.795 99.232 101.679C99.1543 101.563 99.1128 101.426 99.1128 101.286C99.1128 101.099 99.1873 100.919 99.32 100.786C99.4526 100.653 99.6325 100.579 99.8201 100.579ZM115.641 112.347C115.781 112.347 115.918 112.388 116.034 112.466C116.151 112.544 116.242 112.654 116.295 112.784C116.349 112.913 116.363 113.056 116.336 113.193C116.309 113.331 116.241 113.457 116.142 113.556C116.043 113.655 115.917 113.722 115.779 113.75C115.642 113.777 115.499 113.763 115.37 113.709C115.241 113.655 115.13 113.565 115.052 113.448C114.975 113.331 114.933 113.194 114.933 113.054C114.934 112.867 115.008 112.687 115.141 112.554C115.273 112.422 115.453 112.347 115.641 112.347ZM105.608 80.7068C105.748 80.7068 105.884 80.7482 106.001 80.826C106.117 80.9037 106.208 81.0141 106.261 81.1434C106.315 81.2726 106.329 81.4148 106.301 81.552C106.274 81.6892 106.207 81.8152 106.108 81.9142C106.009 82.0131 105.883 82.0804 105.746 82.1077C105.609 82.135 105.466 82.121 105.337 82.0675C105.208 82.0139 105.097 81.9233 105.02 81.807C104.942 81.6907 104.901 81.5539 104.901 81.414C104.901 81.2265 104.975 81.0466 105.108 80.9139C105.24 80.7813 105.42 80.7068 105.608 80.7068Z" fill="black"/>
<path id="Vector_10" d="M65.0923 74.5974C65.0923 74.785 65.1669 74.9649 65.2995 75.0975C65.4321 75.2302 65.612 75.3047 65.7996 75.3047C65.9872 75.3047 66.1671 75.2302 66.2997 75.0975C66.4324 74.9649 66.5069 74.785 66.5069 74.5974C66.5069 74.4098 66.4324 74.2299 66.2997 74.0973C66.1671 73.9647 65.9872 73.8901 65.7996 73.8901C65.612 73.8901 65.4321 73.9647 65.2995 74.0973C65.1669 74.2299 65.0923 74.4098 65.0923 74.5974Z" fill="black"/>
<path id="Vector_11" d="M95.1253 58.3264C95.2654 58.3263 95.4024 58.3677 95.5189 58.4454C95.6355 58.5232 95.7263 58.6337 95.78 58.7631C95.8337 58.8926 95.8478 59.035 95.8205 59.1724C95.7932 59.3098 95.7257 59.436 95.6267 59.5351C95.5276 59.6342 95.4014 59.7016 95.264 59.7289C95.1266 59.7562 94.9841 59.7421 94.8547 59.6884C94.7253 59.6347 94.6148 59.5439 94.537 59.4273C94.4593 59.3108 94.4179 59.1738 94.418 59.0337C94.418 58.8461 94.4925 58.6662 94.6252 58.5336C94.7578 58.4009 94.9377 58.3264 95.1253 58.3264Z" fill="black"/>
<path id="Vector_12" d="M72.8101 50.4161C72.8101 50.6037 72.8846 50.7836 73.0172 50.9162C73.1499 51.0489 73.3297 51.1234 73.5173 51.1234C73.7049 51.1234 73.8848 51.0489 74.0174 50.9162C74.1501 50.7836 74.2246 50.6037 74.2246 50.4161C74.2246 50.2285 74.1501 50.0487 74.0174 49.916C73.8848 49.7834 73.7049 49.7089 73.5173 49.7089C73.3297 49.7089 73.1499 49.7834 73.0172 49.916C72.8846 50.0487 72.8101 50.2285 72.8101 50.4161Z" fill="black"/>
<path id="Vector_13" d="M67.2792 26.6216C67.2792 26.8092 67.3537 26.9891 67.4864 27.1217C67.619 27.2543 67.7989 27.3288 67.9865 27.3288C68.1741 27.3288 68.354 27.2543 68.4866 27.1217C68.6193 26.9891 68.6938 26.8092 68.6938 26.6216C68.6938 26.434 68.6193 26.2541 68.4866 26.1215C68.354 25.9888 68.1741 25.9143 67.9865 25.9143C67.7989 25.9143 67.619 25.9888 67.4864 26.1215C67.3537 26.2541 67.2792 26.434 67.2792 26.6216Z" fill="black"/>
<path id="Vector_14" d="M73.2601 27.715C73.2601 27.9025 73.3346 28.0824 73.4673 28.2151C73.5999 28.3477 73.7798 28.4222 73.9674 28.4222C74.155 28.4222 74.3348 28.3477 74.4675 28.2151C74.6001 28.0824 74.6746 27.9025 74.6746 27.715C74.6746 27.5274 74.6001 27.3475 74.4675 27.2148C74.3348 27.0822 74.155 27.0077 73.9674 27.0077C73.7798 27.0077 73.5999 27.0822 73.4673 27.2148C73.3346 27.3475 73.2601 27.5274 73.2601 27.715Z" fill="black"/>
<path id="Vector_15" d="M71.7167 29.5799C71.5564 29.7821 71.3502 29.9432 71.1153 30.0498C70.8803 30.1564 70.6232 30.2054 70.3655 30.1928C70.1078 30.1802 69.8568 30.1064 69.6333 29.9774C69.4098 29.8484 69.2203 29.668 69.0805 29.4511C68.8229 29.0655 68.1804 29.4511 68.4372 29.8375C68.6425 30.157 68.9222 30.422 69.2524 30.6095C69.5826 30.7971 69.9534 30.9016 70.333 30.9142C70.7125 30.9268 71.0895 30.8471 71.4314 30.6818C71.7733 30.5166 72.07 30.2708 72.296 29.9655C72.6168 29.5799 71.9796 29.198 71.7167 29.5799ZM70.2374 120.45C68.9969 120.037 67.9476 120.04 63.9993 119.807C61.7479 119.679 59.4973 119.55 57.2467 119.486C55.2529 119.357 53.0664 119.1 51.3302 120.193C50.5283 120.638 49.9292 121.375 49.658 122.251C49.5375 122.684 49.5273 123.141 49.6284 123.579C49.7294 124.017 49.9385 124.423 50.2365 124.759C50.2619 124.784 50.2924 124.802 50.3257 124.813C50.3591 124.824 50.3945 124.828 50.4293 124.823C50.8203 124.823 65.2428 124.979 72.8097 124.371C72.8764 124.367 72.9392 124.338 72.9864 124.291C73.0336 124.243 73.0621 124.181 73.0665 124.114C73.2601 122.38 71.7815 120.966 70.2374 120.45ZM35.7025 120.321C31.1975 119.746 27.4412 119.685 25.0911 123.602C24.973 123.837 24.9157 124.099 24.9247 124.362C24.9337 124.626 25.0086 124.883 25.1426 125.11C25.2765 125.337 25.4653 125.527 25.6916 125.662C25.9178 125.798 26.1744 125.874 26.4379 125.885H35.8313C37.3377 125.885 39.1236 125.917 39.69 124.502C39.839 124.166 39.9106 123.801 39.8995 123.434C39.8884 123.066 39.7949 122.706 39.626 122.38C38.9179 120.966 37.1825 120.514 35.7025 120.321Z" fill="black"/>
<path id="Vector_16" d="M69.8488 76.269L78.8407 68.1885L86.922 77.1804L77.9293 85.2616L69.8488 76.269Z" fill="#FFD35C"/>
<path id="Vector_17" d="M87.5371 62.5069C87.4009 60.8051 86.6993 59.1978 85.5441 57.9409C83.8719 56.3327 81.3637 57.8121 80.142 59.2914C79.7402 59.6683 79.4697 60.1641 79.37 60.7059C79.3647 60.956 79.4446 61.2004 79.5965 61.3991C79.7484 61.5978 79.9634 61.739 80.206 61.7996C80.5823 61.9053 80.9734 61.9485 81.3637 61.9276C80.7194 62.567 80.2156 63.3338 79.8844 64.179C79.5628 65.0151 79.6916 66.108 80.7205 66.2368H81.3637C80.8293 66.6625 80.4459 67.2487 80.2701 67.9089C80.2203 68.3078 80.3263 68.7104 80.5659 69.0331C80.8055 69.3558 81.1604 69.5736 81.5565 69.6413C84.1506 70.164 87.9077 66.9192 87.5371 62.5069ZM86.1866 65.3367C85.9079 66.1081 85.4557 66.8051 84.8649 67.374C84.274 67.9429 83.5604 68.3684 82.779 68.6177C82.3271 68.7465 81.4933 68.9393 81.1717 68.4889C80.7197 67.9104 81.5573 67.2032 81.9429 66.8168C82.4491 66.301 83.0645 65.9054 83.7439 65.6591C84.2583 65.4662 84.0655 64.5661 83.4863 64.7552C82.6957 65.0253 81.8752 65.198 81.0429 65.2696C80.7212 65.2696 80.4636 65.3344 80.4636 64.948C80.4636 64.0268 81.7441 61.9909 83.5518 61.5397C83.6717 61.5056 83.7731 61.4252 83.8337 61.3163C83.8943 61.2074 83.9091 61.0789 83.8749 60.959C83.8408 60.8391 83.7604 60.7378 83.6515 60.6772C83.5426 60.6166 83.4141 60.6017 83.2942 60.6359C82.4161 60.8802 81.5016 60.9672 80.5932 60.8927C80.2716 60.8287 79.9499 60.8287 80.1413 60.4408C81.0165 58.9818 83.4057 57.2825 84.7073 58.511C85.5792 59.3891 86.1818 60.4984 86.4439 61.7078C86.7061 62.9172 86.6168 64.1764 86.1866 65.3367Z" fill="black"/>
<path id="Vector_18" d="M78.5984 50.4163C78.5984 51.2349 78.9236 52.02 79.5024 52.5989C80.0813 53.1777 80.8664 53.5029 81.685 53.5029C82.5037 53.5029 83.2888 53.1777 83.8677 52.5989C84.4465 52.02 84.7717 51.2349 84.7717 50.4163C84.7717 49.5976 84.4465 48.8125 83.8677 48.2337C83.2888 47.6548 82.5037 47.3296 81.685 47.3296C80.8664 47.3296 80.0813 47.6548 79.5024 48.2337C78.9236 48.8125 78.5984 49.5976 78.5984 50.4163Z" fill="#6DD3A8"/>
<path id="Vector_19" d="M77.8263 19.3574C76.0864 15.1025 72.9304 12.2087 68.4367 11.2543C61.6646 9.77276 58.9349 14.045 57.5686 20.1935C57.1686 22.9879 58.4054 22.3522 58.4687 22.4441C58.4566 22.4765 58.6276 22.017 56.9253 26.4957C56.902 26.571 49.3472 20.2779 41.748 16.0779C31.0396 10.4055 19.843 12.1145 12.6799 18.0016C8.39434 21.6658 5.4338 26.6385 4.2552 32.1523C2.34429 40.4912 6.38077 48.891 10.4933 56.14C10.5263 56.2003 10.573 56.2519 10.6297 56.2906C10.8797 56.793 11.5267 57.7217 12.7439 59.937C15.1211 64.042 16.6983 67.503 18.8533 67.7184C19.1335 67.7112 19.408 67.6375 19.6541 67.5032C19.9002 67.369 20.1108 67.1781 20.2686 66.9464C20.489 66.4868 20.5566 65.9686 20.4614 65.4678C22.3113 67.149 24.534 66.6368 25.0914 65.0814C25.2427 64.7131 25.3299 64.3215 25.349 63.9237C26.5165 64.8321 28.322 64.7794 28.7573 63.4718C29.6853 61.4615 27.7555 58.9774 26.573 55.8184C26.774 55.9211 26.9919 55.9867 27.2162 56.0119C27.4829 56.0566 27.7558 56.0466 28.0184 55.9826C28.2811 55.9185 28.5279 55.8017 28.744 55.6392C28.9601 55.4767 29.1409 55.272 29.2754 55.0375C29.4098 54.803 29.4952 54.5436 29.5264 54.275C29.9421 51.9182 27.0129 45.3118 25.9862 42.2492C25.2509 40.3631 24.6776 38.4178 24.2727 36.4344C23.8673 35.1168 23.7887 33.7205 24.0437 32.3658C24.2987 31.0111 24.8796 29.7389 25.7362 28.6589C25.1972 29.0437 24.7181 29.5058 24.3141 30.0305C21.8789 33.142 23.6211 38.1773 24.9408 42.1324C19.3816 45.4303 14.5708 49.8505 10.815 55.1111C8.82284 51.6401 7.18537 47.9773 5.92734 44.1782C3.84168 37.4083 4.26725 32.7782 6.69863 27.3935C11.6247 16.7641 21.4052 12.3909 31.9728 13.8243C42.8944 15.0844 54.3185 26.5235 56.151 27.1359C55.8967 28.1518 55.9003 29.2152 56.1616 30.2294C56.1721 30.2331 57.1671 30.6256 57.3705 30.7069C57.0124 29.3218 57.0356 27.8657 57.4375 26.4927C58.0139 24.9014 58.6575 23.3353 59.3665 21.7986C60.586 20.3351 61.056 19.6143 62.0683 19.6143C61.7664 19.701 61.4911 19.8622 61.2678 20.0832C61.0444 20.3041 60.8802 20.5776 60.7902 20.8786C60.7002 21.1795 60.6873 21.4983 60.7527 21.8056C60.8181 22.1128 60.9597 22.3987 61.1644 22.6369C61.3878 22.9192 61.7001 23.1175 62.0505 23.1995C62.4009 23.2816 62.7688 23.2426 63.0942 23.0889C63.4128 22.9533 63.1582 22.4456 62.8366 22.6369C61.9485 23.0173 60.9822 21.9477 61.4861 20.772C61.9433 19.7062 63.2599 19.9593 63.5439 21.2239C63.6192 21.544 64.0583 21.4167 64.0583 21.1599C64.7046 22.4547 67.3258 24.1404 69.8468 23.6681C70.5695 23.4602 71.2327 23.0838 71.7818 22.5699C72.1034 22.4411 72.2337 22.6987 72.361 22.9563C72.6179 23.342 72.9395 23.8564 73.4539 23.9204C73.6638 23.9392 73.8744 23.894 74.0581 23.7907C74.2417 23.6874 74.3898 23.531 74.4828 23.342C74.5051 23.2596 74.5564 23.1882 74.6273 23.1408C74.6982 23.0934 74.7839 23.0734 74.8685 23.0844C75.1261 23.0844 75.1901 23.342 75.3204 23.5363C75.4548 23.7214 75.6061 23.8936 75.7723 24.0507C75.7723 28.0902 73.2167 32.5026 69.144 32.7331C65.2273 32.8777 62.8087 29.0295 63.4196 25.7229C63.4836 25.4012 62.9676 25.2084 62.9044 25.5941C62.7461 26.6722 62.8377 27.7722 63.1724 28.8092C63.507 29.8462 64.0755 30.7924 64.8341 31.5746C64.2625 31.9868 63.8077 32.5404 63.5145 33.1812L63.98 33.3823C64.249 32.7826 64.6779 32.2684 65.2198 31.8962C65.8988 32.4824 66.7189 32.8814 67.5992 33.0539C71.7027 34.0015 76.0254 30.3966 76.3455 24.3083C77.4083 24.3083 78.3423 24.4228 78.6609 22.829C78.6273 21.6264 78.343 20.444 77.8263 19.3574ZM25.349 43.0837C26.7447 47.0389 28.151 49.8627 28.6933 53.1158C28.6933 53.7591 28.7573 54.9168 27.9212 55.1736C26.8554 55.5736 25.9064 54.2246 25.413 53.1806C25.1682 52.6601 24.3977 53.1098 24.6417 53.6325C26.8509 58.3484 26.7123 58.6904 27.4068 59.9995C27.8744 60.799 28.1186 61.7095 28.1141 62.6357C28.1141 64.2175 25.9147 63.8462 25.0259 62.2501C24.769 61.8637 23.997 62.1213 24.1898 62.571C24.943 64.454 24.049 65.5296 22.8393 65.5296C21.296 65.5296 20.3951 64.0503 19.6886 62.8933C19.6362 62.8078 19.5568 62.7421 19.463 62.7066C19.3691 62.6711 19.2661 62.6679 19.1702 62.6974C19.0743 62.7269 18.991 62.7875 18.9333 62.8696C18.8757 62.9517 18.847 63.0507 18.8518 63.1509C19.0024 64.518 19.8611 65.342 19.6238 66.1736C19.6209 66.2811 19.5931 66.3865 19.5425 66.4814C19.4919 66.5763 19.4199 66.6582 19.3323 66.7206C19.2446 66.7829 19.1437 66.8241 19.0375 66.8408C18.9312 66.8575 18.8225 66.8493 18.72 66.8168C17.3566 66.4756 15.283 62.6741 11.581 56.0127C15.1748 50.7525 19.8735 46.3401 25.349 43.0837Z" fill="black"/>
<path id="Vector_20" d="M25.7415 28.659C31.826 21.1653 47.2398 26.7293 56.1639 30.2295C55.9026 29.2153 55.899 28.1519 56.1533 27.136C54.3185 26.5236 42.8967 15.0845 31.9751 13.8244C21.4075 12.3933 11.627 16.762 6.70092 27.3936C4.26954 32.7783 3.84623 37.4114 5.92963 44.1783C7.18767 47.9774 8.82514 51.6402 10.8172 55.1112C14.5739 49.8503 19.3858 45.4301 24.9461 42.1325C23.6264 38.1774 21.8843 33.1414 24.3194 30.0306C24.7234 29.5059 25.2026 29.0438 25.7415 28.659Z" fill="#FEE992"/>
</g>
</svg>
