<svg width="151" height="151" viewBox="0 0 151 151" fill="none" xmlns="http://www.w3.org/2000/svg">
<g id="Enter-Password-1--Streamline-Barcelona">
<path id="Vector" d="M90.8591 63.1283C91.0097 62.4097 91.2602 61.7158 91.6033 61.0667C91.7381 60.8666 91.9033 60.6888 92.0928 60.5394C92.1737 61.3473 92.1122 62.1631 91.9113 62.9497V62.9573C91.9015 63.0146 91.9074 63.0735 91.9284 63.1278C91.9495 63.182 91.9849 63.2295 92.0308 63.2652C92.0768 63.3008 92.1316 63.3233 92.1893 63.3303C92.2471 63.3372 92.3056 63.3283 92.3587 63.3045C92.5335 63.2058 92.4582 63.0785 92.8363 61.9939C93.0386 61.3324 93.36 60.7135 93.7846 60.1674C93.8998 60.0363 94.1966 59.7049 94.4015 59.7666C94.4813 59.7892 94.4263 59.6341 94.8481 63.2925C94.8494 63.3639 94.8765 63.4325 94.9244 63.4856C94.9723 63.5386 95.0378 63.5725 95.1087 63.5811C95.1797 63.5896 95.2513 63.5722 95.3105 63.532C95.3696 63.4918 95.4122 63.4316 95.4303 63.3625C95.459 63.2721 95.8612 60.3496 96.9368 59.8126C97.2727 59.6439 97.5642 59.7162 97.6388 60.086C97.8949 61.2475 96.5798 64.1647 97.5228 65.6786C97.5689 65.7786 97.6386 65.8658 97.726 65.9328C97.8133 65.9997 97.9157 66.0444 98.0242 66.063C98.1327 66.0815 98.244 66.0733 98.3487 66.0392C98.4533 66.005 98.5481 65.9459 98.6247 65.8669C99.152 65.3856 99.7975 63.782 100.329 63.6073C100.581 64.6174 99.2574 70.271 98.9215 70.4827C97.2155 71.5266 94.3917 71.7744 92.3813 71.7579C92.3813 71.684 89.9484 67.4879 90.8591 63.1283ZM114.168 24.8784C113.573 23.1739 111.381 22.676 109.915 23.439C109.888 23.5272 109.869 23.616 109.839 23.7011C109.848 24.0341 109.241 24.0559 109.219 23.72C108.74 22.557 107.909 20.7749 106.698 20.4058C105.144 19.9388 103.107 21.8369 101.037 22.0441C99.7877 22.1661 98.6692 21.4415 98.2971 19.8198C96.2169 21.9166 93.9832 23.8552 91.6146 25.6196C91.548 27.3971 92.0262 29.1525 92.9853 30.6506C93.9443 32.1486 95.3383 33.3178 96.9805 34.0014V40.1333C97.1816 40.0678 97.3812 40.006 97.583 39.9518V34.2514C99.632 35.01 101.887 34.996 103.927 34.2123V39.7816C104.127 39.8237 104.331 39.8704 104.529 39.9202V33.9622C105.789 33.395 106.907 32.5541 107.802 31.5007C108.697 30.4473 109.345 29.2079 109.701 27.8725C112.003 29.4941 114.986 27.2239 114.168 24.8784ZM80.0723 60.5425C79.4592 60.6125 78.4114 62.6228 78.1531 63.1787C78.12 63.2364 78.0688 63.2815 78.0074 63.307C77.9461 63.3326 77.878 63.3371 77.8138 63.3199C77.7496 63.3027 77.6929 63.2648 77.6525 63.212C77.6121 63.1592 77.5903 63.0945 77.5904 63.0281C77.6463 62.2919 77.6501 61.5526 77.6017 60.8159C77.5445 60.1026 77.5091 59.3765 77.0082 59.8992C76.1577 60.8279 75.6013 61.9877 75.4091 63.2322C75.3511 63.5681 74.7847 63.4868 74.8156 63.1516C74.883 62.5111 74.883 61.8654 74.8156 61.2249C74.7726 60.8362 74.6273 59.7463 74.2379 59.8066C74.0691 59.8344 73.8515 60.3617 73.798 60.5003C73.285 61.8365 73.6601 63.5937 73.3551 65.0475C73.3182 65.2192 73.3393 65.235 73.2587 65.3405C73.2253 65.3743 73.1845 65.3999 73.1395 65.4153C73.0945 65.4307 73.0465 65.4354 72.9994 65.429C72.9523 65.4227 72.9073 65.4054 72.8679 65.3787C72.8286 65.3519 72.7961 65.3164 72.7728 65.2749C72.7329 65.2079 72.0995 63.2299 72.0754 63.1554C71.8697 62.5332 71.7402 61.8342 71.2928 61.7137C71.0005 61.6384 70.9162 61.8448 70.8808 62.0994C70.5629 64.4095 71.1745 67.0133 72.9303 68.5891C74.6768 68.6885 76.4138 68.9151 78.1275 69.267C79.6279 68.1447 79.7092 65.6237 80.1084 63.4318C80.366 62.0323 80.6455 61.7371 80.6131 61.0968C80.5619 60.8279 80.3675 60.5086 80.0723 60.5425Z" fill="#FF8684"/>
<path id="Vector_2" d="M102.595 27.0561C102.708 27.0773 102.823 27.0759 102.935 27.0518C103.046 27.0277 103.152 26.9815 103.246 26.9159C103.339 26.8503 103.419 26.7666 103.479 26.6698C103.54 26.5729 103.581 26.4649 103.599 26.3521C103.617 26.2393 103.613 26.124 103.586 26.0129C103.559 25.9019 103.51 25.7974 103.442 25.7056C103.374 25.6138 103.288 25.5366 103.189 25.4785C103.091 25.4204 102.982 25.3826 102.869 25.3673C102.757 25.3464 102.641 25.3481 102.53 25.3723C102.418 25.3965 102.313 25.4428 102.22 25.5084C102.126 25.5739 102.047 25.6575 101.986 25.7542C101.926 25.8509 101.885 25.9587 101.867 26.0713C101.849 26.1839 101.853 26.299 101.88 26.4099C101.907 26.5208 101.956 26.6252 102.023 26.7169C102.091 26.8087 102.177 26.8859 102.275 26.9442C102.373 27.0024 102.481 27.0405 102.595 27.0561" fill="black"/>
<path id="Vector_3" d="M93.1107 24.7325C92.9419 24.7481 92.7815 24.8134 92.6498 24.9202C92.5181 25.027 92.4211 25.1704 92.3709 25.3324C92.3207 25.4943 92.3197 25.6675 92.368 25.83C92.4163 25.9926 92.5117 26.1371 92.6421 26.2454C92.7725 26.3537 92.9321 26.4209 93.1008 26.4385C93.2694 26.4561 93.4394 26.4233 93.5894 26.3442C93.7394 26.2651 93.8626 26.1434 93.9433 25.9943C94.0241 25.8453 94.0588 25.6756 94.0432 25.5068C94.0214 25.2808 93.9112 25.0725 93.7365 24.9275C93.5618 24.7824 93.3368 24.7123 93.1107 24.7325ZM101.684 28.6326C99.0423 30.823 96.177 30.4765 94.639 28.9753C94.3573 28.7057 93.9294 29.1335 94.2111 29.4032C94.9102 30.0231 95.7553 30.4552 96.6672 30.6587C97.5791 30.8623 98.5278 30.8307 99.4241 30.5669C100.41 30.2508 101.321 29.7384 102.103 29.0604C102.41 28.8096 101.978 28.3856 101.684 28.6326ZM105.859 23.757C105.592 23.16 105.135 22.668 104.559 22.3577C103.983 22.0475 103.321 21.9365 102.676 22.042C102.602 22.0639 102.54 22.1129 102.502 22.1791C102.463 22.2453 102.451 22.3236 102.469 22.3982C102.486 22.4727 102.531 22.538 102.594 22.5807C102.658 22.6234 102.735 22.6403 102.811 22.628C103.331 22.553 103.861 22.6528 104.319 22.9118C104.776 23.1708 105.135 23.5743 105.338 24.0591C105.379 24.1275 105.446 24.1772 105.523 24.1975C105.6 24.2178 105.682 24.207 105.751 24.1675C105.82 24.1272 105.869 24.0614 105.89 23.9845C105.91 23.9076 105.899 23.8258 105.859 23.757Z" fill="black"/>
<path id="Vector_4" d="M52.5463 81.6815C52.5236 81.7577 52.4725 81.8222 52.4034 81.8616C52.3344 81.901 52.2529 81.9123 52.1757 81.8931L46.6238 81.0375C46.5472 81.0156 46.4822 80.9647 46.4426 80.8956C46.4031 80.8265 46.3921 80.7447 46.4121 80.6677C47.0508 77.636 51.1747 58.1533 51.1913 58.0757C51.208 58.0109 51.2458 57.9536 51.2987 57.9127C51.3516 57.8717 51.4166 57.8496 51.4835 57.8497L51.5664 57.861C52.3196 57.9024 51.9731 57.916 55.1622 58.2851C52.2081 52.0187 46.9591 47.127 40.5003 44.6213C34.0415 42.1156 26.8668 42.1875 20.4596 44.8221C14.0523 47.4568 8.90234 52.4527 6.07442 58.777C3.24649 65.1014 2.95682 72.2705 5.2653 78.8024C7.57377 85.3343 12.3039 90.7294 18.4777 93.8724C24.6515 97.0153 31.797 97.6658 38.4369 95.6894C45.0768 93.7129 50.7034 89.2607 54.1534 83.253C57.6034 77.2454 58.6131 70.1417 56.9737 63.4107L56.7922 63.3904C56.5745 64.4065 54.7675 72.1081 52.5463 81.6815ZM38.3037 64.7123C37.5407 66.2299 36.2776 67.438 34.7275 68.1326C35.0536 73.5626 37.0172 84.2394 38.0574 89.3176C38.0687 89.3625 38.0696 89.4093 38.0602 89.4546C38.0508 89.5 38.0313 89.5426 38.0031 89.5793C37.975 89.616 37.9389 89.6459 37.8975 89.6667C37.8562 89.6875 37.8107 89.6987 37.7644 89.6995H24.9808C24.9345 89.6988 24.8889 89.6877 24.8475 89.667C24.8061 89.6462 24.77 89.6163 24.7418 89.5795C24.7136 89.5428 24.6941 89.5001 24.6847 89.4548C24.6754 89.4094 24.6765 89.3625 24.6878 89.3176C27.123 82.9311 28.7303 75.2121 29.6824 68.4874C25.9389 67.3576 23.1181 63.4182 23.8518 59.5994C24.1507 58.2261 24.851 56.9726 25.8638 55.9982C26.8767 55.0237 28.1562 54.3723 29.5401 54.1266C35.9793 53.0397 40.9362 59.2914 38.3037 64.7123Z" fill="#FCAFB7"/>
<path id="Vector_5" d="M133.052 91.844C128.638 86.9587 124.119 94.9812 117.124 93.9214C111.752 93.1079 112.576 87.7089 112.379 83.6777C109.766 83.4012 107.29 82.3701 105.253 80.71C102.076 81.6628 98.4949 81.4632 95.9182 79.9568C94.4213 79.0388 93.1783 77.7603 92.3027 76.2382C91.7363 76.257 91.1812 76.2766 90.6336 76.2841C90.6332 76.3634 90.6042 76.4398 90.5519 76.4993C90.4995 76.5588 90.4275 76.5974 90.3489 76.608C87.9106 76.8303 85.4573 76.8323 83.0186 76.614C79.3632 92.9234 76.858 111.773 76.8219 127.78C76.8129 129.156 77.3201 130.485 78.2433 131.505C79.1664 132.525 80.4385 133.162 81.8084 133.29C83.1783 133.419 84.5464 133.028 85.6427 132.197C86.739 131.366 87.4838 130.153 87.73 128.8L95.583 86.9383C99.8997 99.4417 109.384 104.508 109.384 104.508C121.396 109.726 129.463 102.685 133.178 98.0762C133.904 97.1936 134.291 96.08 134.268 94.937C134.245 93.7939 133.814 92.6968 133.052 91.844ZM111.706 76.4363C111.293 76.9551 110.838 77.4388 110.346 77.8824C110.884 78.1734 111.448 78.414 112.03 78.601C111.951 77.8754 111.843 77.1532 111.706 76.4363Z" fill="#6DD3A8"/>
<path id="Vector_6" d="M103.932 34.3086C103.932 34.158 103.976 34.2062 103.713 34.2898C103.785 34.2973 103.859 34.3048 103.932 34.3086ZM91.613 25.6225C89.3127 27.2751 85.631 29.5295 84.508 26.8924C84.1395 25.9124 84.0049 24.8598 84.1148 23.8186C83.0399 25.0862 79.4637 30.532 94.6598 33.1102C94.992 33.1682 95.3113 33.218 95.639 33.2684C94.3499 32.4658 93.2976 31.3346 92.59 29.991C91.8825 28.6473 91.5453 27.1396 91.613 25.6225ZM108.839 15.1551C110.673 17.5134 110.736 20.9014 109.916 23.4405C111.75 22.4876 114.304 23.5414 114.304 25.7046C114.268 26.2207 114.095 26.7178 113.803 27.1448C113.511 27.5718 113.11 27.9132 112.642 28.1341C112.174 28.355 111.656 28.4473 111.141 28.4016C110.625 28.3559 110.131 28.1737 109.71 27.8739C109.354 29.2091 108.705 30.4483 107.81 31.5016C106.916 32.5549 105.798 33.3959 104.538 33.9636V34.3606C114.192 35.0309 117.692 33.1698 118.077 30.6495C118.561 27.4453 117.185 13.1319 108.839 15.1551Z" fill="#7D4AB4"/>
<path id="Vector_7" d="M109.472 22.7996C110.135 20.2386 109.933 17.396 108.2 15.3307C106.84 13.7015 104.742 12.9204 102.654 12.5362C98.2391 11.7303 94.4595 13.3881 91.6281 16.941C90.1164 18.8354 89.5319 20.4812 88.9919 21.1726C87.5608 22.9803 85.4743 22.3928 84.8318 23.5377C84.465 24.2284 84.7693 25.9909 85.0518 26.6553C86.4927 30.1487 95.6111 21.7089 98.2738 18.9664C98.3167 18.9261 98.3703 18.899 98.4282 18.8882C98.4862 18.8775 98.546 18.8837 98.6005 18.906C98.655 18.9283 98.702 18.9658 98.7358 19.014C98.7696 19.0623 98.7888 19.1192 98.7912 19.1781C98.7951 19.2752 98.8064 19.3719 98.8251 19.4673C99.436 23.198 102.962 20.6017 104.961 19.9373C107.248 19.2067 108.484 20.5821 109.472 22.7996ZM53.4883 26.4662C39.8716 25.2731 21.7123 25.8636 8.13109 26.6169C7.53851 26.6535 6.97073 26.8679 6.50191 27.2322C6.03308 27.5965 5.685 28.0936 5.50312 28.6588C5.3862 29.1207 5.34198 29.5979 5.37206 30.0734C5.37206 37.6756 5.36152 36.8606 5.37206 37.8624C5.37399 38.4103 5.52913 38.9468 5.81996 39.4112C6.11079 39.8756 6.52571 40.2494 7.01784 40.4903C8.04673 40.9799 9.20217 40.6952 10.2898 40.5905C24.4744 39.2649 44.0241 39.6234 53.7308 39.7356C54.3058 39.7456 54.8711 39.5868 55.3567 39.2789C55.8424 38.971 56.2272 38.5275 56.4635 38.0032C56.773 37.3042 56.7135 36.7228 56.7135 34.3464C56.7135 29.3586 56.8099 28.9232 56.3897 28.0947C55.7969 26.879 54.826 26.5882 53.4883 26.4662ZM56.0492 37.3878C55.9113 37.9058 55.6001 38.3609 55.1674 38.6772C54.7347 38.9936 54.2067 39.1521 53.6713 39.1263C19.4324 38.489 8.71107 40.2629 7.96539 40.1514C7.41795 40.0663 6.91858 39.7894 6.55652 39.3701C6.19445 38.9508 5.99328 38.4164 5.98895 37.8624C5.98895 37.7871 5.97916 29.4798 6.00025 29.2757C6.06318 28.7367 6.3119 28.2364 6.70365 27.8609C7.0954 27.4854 7.60572 27.258 8.14691 27.2179C20.9614 26.4519 39.6487 25.9465 52.494 26.992C53.6193 27.0801 54.8795 27.0228 55.6425 28.0095C56.3723 28.9443 56.1366 37.0338 56.0469 37.3841L56.0492 37.3878Z" fill="#7D4AB4"/>
<path id="Vector_8" d="M15.1338 33.4425C14.4634 33.4109 13.7931 33.3499 13.1257 33.2731C13.5076 32.849 13.8736 32.4137 14.2201 31.9587C14.2529 31.8903 14.2587 31.8121 14.2364 31.7396C14.214 31.6672 14.1652 31.6058 14.0996 31.5678C14.034 31.5297 13.9564 31.5178 13.8824 31.5344C13.8084 31.5511 13.7434 31.595 13.7004 31.6574C13.4149 32.034 13.1144 32.3895 12.8026 32.7405L12.6519 30.9562C12.621 30.5705 12.0162 30.5668 12.0494 30.9562C12.0953 31.4955 12.1375 32.0393 12.1842 32.5786C11.9025 32.2773 11.6178 31.976 11.3361 31.6687C11.0702 31.384 10.6423 31.8118 10.9082 32.0965C11.2208 32.4317 11.5327 32.7631 11.8407 33.0991C11.3669 33.0238 10.8969 32.9371 10.4269 32.837C10.0503 32.7556 9.88687 33.3378 10.265 33.4184C10.8005 33.5344 11.3398 33.6271 11.8799 33.7114C11.4914 34.1024 11.0876 34.4778 10.6695 34.8367C10.6414 34.8648 10.6191 34.8982 10.6039 34.9349C10.5887 34.9716 10.5809 35.0109 10.5809 35.0507C10.5809 35.0904 10.5887 35.1297 10.6039 35.1664C10.6191 35.2031 10.6414 35.2365 10.6695 35.2646C10.6976 35.2927 10.7309 35.3149 10.7676 35.3302C10.8043 35.3454 10.8437 35.3532 10.8834 35.3532C10.9231 35.3532 10.9624 35.3454 10.9991 35.3302C11.0359 35.3149 11.0692 35.2927 11.0973 35.2646C11.5176 34.906 11.9258 34.5249 12.3115 34.1347L12.3921 35.1215C12.423 35.5064 13.0278 35.5109 12.9946 35.1215C12.972 34.836 12.9487 34.5505 12.9193 34.2658L13.729 35.1328C13.9949 35.4182 14.4227 34.9904 14.1569 34.7049C13.9098 34.4428 13.6673 34.1777 13.4202 33.9148C13.9866 33.9728 14.55 34.0233 15.124 34.0496C15.5232 34.0662 15.5232 33.4606 15.1338 33.4425ZM23.551 33.4425C22.8799 33.4087 22.2102 33.3521 21.5429 33.2731C21.9248 32.849 22.2908 32.4137 22.6373 31.9587C22.6701 31.8903 22.6759 31.8121 22.6536 31.7396C22.6312 31.6672 22.5824 31.6058 22.5168 31.5678C22.4512 31.5297 22.3736 31.5178 22.2996 31.5344C22.2256 31.5511 22.1606 31.595 22.1176 31.6574C21.8321 32.034 21.5316 32.3895 21.219 32.7405L21.0684 30.9562C21.0375 30.5705 20.4327 30.5668 20.4658 30.9562C20.5117 31.4955 20.5539 32.0393 20.6006 32.5786C20.3189 32.2773 20.0335 31.976 19.7525 31.6687C19.4866 31.384 19.0588 31.8118 19.3247 32.0965C19.6365 32.4317 19.9491 32.7631 20.2572 33.0991C19.7834 33.0238 19.3134 32.9371 18.8426 32.837C18.466 32.7556 18.3033 33.3378 18.6814 33.4184C19.217 33.5344 19.7563 33.6271 20.2956 33.7114C19.9075 34.1026 19.504 34.478 19.0859 34.8367C19.0292 34.8935 18.9973 34.9704 18.9973 35.0507C18.9973 35.1309 19.0292 35.2078 19.0859 35.2646C19.1426 35.3213 19.2196 35.3532 19.2998 35.3532C19.3801 35.3532 19.457 35.3213 19.5137 35.2646C19.9333 34.906 20.3347 34.5249 20.7272 34.1347L20.8085 35.1215C20.8394 35.5064 21.4442 35.5109 21.4111 35.1215C21.3885 34.836 21.3651 34.5505 21.3358 34.2658L22.1447 35.1328C22.4114 35.4182 22.8384 34.9904 22.5725 34.7049C22.3262 34.4428 22.0837 34.1777 21.8367 33.9148C22.4031 33.9728 22.9665 34.0233 23.5404 34.0496C23.9404 34.0662 23.9404 33.4606 23.551 33.4425ZM32.6574 33.4425C31.987 33.4109 31.3166 33.3499 30.65 33.2731C31.0312 32.849 31.3972 32.4137 31.7445 31.9587C31.7786 31.8901 31.7853 31.8111 31.7633 31.7377C31.7412 31.6643 31.692 31.6021 31.6257 31.5637C31.5594 31.5253 31.4809 31.5136 31.4063 31.531C31.3316 31.5484 31.2665 31.5936 31.224 31.6574C30.9385 32.034 30.638 32.3895 30.3262 32.7405L30.1755 30.9562C30.1446 30.5705 29.5398 30.5668 29.5729 30.9562C29.6189 31.4955 29.6618 32.0393 29.7078 32.5786C29.4268 32.2773 29.1413 31.976 28.8596 31.6687C28.5938 31.384 28.1659 31.8118 28.4326 32.0965C28.7444 32.4317 29.0562 32.7631 29.365 33.0991C28.8913 33.0241 28.4196 32.9367 27.9505 32.837C27.5739 32.7556 27.4112 33.3378 27.7886 33.4184C28.3241 33.5344 28.8642 33.6271 29.4035 33.7114C29.015 34.1024 28.6112 34.4778 28.193 34.8367C28.1363 34.8935 28.1044 34.9704 28.1044 35.0507C28.1044 35.1309 28.1363 35.2078 28.193 35.2646C28.2498 35.3213 28.3267 35.3532 28.407 35.3532C28.4872 35.3532 28.5641 35.3213 28.6209 35.2646C29.0412 34.906 29.4419 34.5249 29.8351 34.1347L29.9156 35.1215C29.9465 35.5064 30.5521 35.5109 30.5182 35.1215C30.4949 34.836 30.4715 34.5505 30.4429 34.2658L31.2579 35.126C31.5238 35.4114 31.9516 34.9836 31.6857 34.6982C31.4387 34.436 31.1961 34.1709 30.9498 33.908C31.5162 33.966 32.0796 34.0165 32.6528 34.0429C33.0468 34.0662 33.0468 33.4606 32.6574 33.4425ZM41.351 33.4425C40.6806 33.4102 40.0103 33.3499 39.3437 33.2731C39.7248 32.849 40.0908 32.4137 40.4381 31.9587C40.4722 31.8901 40.479 31.8111 40.4569 31.7377C40.4348 31.6643 40.3856 31.6021 40.3193 31.5637C40.253 31.5253 40.1745 31.5136 40.0999 31.531C40.0253 31.5484 39.9601 31.5936 39.9176 31.6574C39.6321 32.034 39.3316 32.3895 39.0198 32.7405L38.8691 30.9562C38.8382 30.5705 38.2334 30.5668 38.2666 30.9562C38.3125 31.4955 38.3554 32.0393 38.4014 32.5786C38.1197 32.2773 37.835 31.976 37.5533 31.6687C37.2874 31.384 36.8595 31.8118 37.1254 32.0965C37.438 32.4317 37.7498 32.7631 38.0587 33.0991C37.5849 33.0241 37.1133 32.9367 36.6441 32.837C36.2675 32.7556 36.1041 33.3378 36.4822 33.4184C37.0177 33.5344 37.557 33.6271 38.0971 33.7114C37.7086 34.1024 37.3048 34.4778 36.8867 34.8367C36.8299 34.8935 36.7981 34.9704 36.7981 35.0507C36.7981 35.1309 36.8299 35.2078 36.8867 35.2646C36.9434 35.3213 37.0203 35.3532 37.1006 35.3532C37.1808 35.3532 37.2578 35.3213 37.3145 35.2646C37.7341 34.9043 38.1392 34.5274 38.5287 34.1347L38.6093 35.1215C38.6402 35.5064 39.245 35.5109 39.2118 35.1215C39.1885 34.836 39.1651 34.5505 39.1365 34.2658L39.9462 35.1328C40.2121 35.4182 40.6399 34.9904 40.3741 34.7049C40.127 34.4428 39.8845 34.1777 39.6374 33.9148C40.2046 33.9728 40.7672 34.0233 41.3412 34.0496C41.7374 34.0662 41.7336 33.4606 41.351 33.4425ZM50.0348 33.4425C49.3644 33.4109 48.6941 33.3499 48.0267 33.2731C48.4086 32.849 48.7747 32.4137 49.1219 31.9587C49.1561 31.8901 49.1628 31.8111 49.1407 31.7377C49.1187 31.6643 49.0695 31.6021 49.0031 31.5637C48.9368 31.5253 48.8584 31.5136 48.7837 31.531C48.7091 31.5484 48.6439 31.5936 48.6014 31.6574C48.316 32.034 48.0154 32.3895 47.7036 32.7405L47.553 30.9562C47.5221 30.5705 46.9172 30.5668 46.9504 30.9562C46.9963 31.4955 47.0385 32.0393 47.0852 32.5786C46.8035 32.2773 46.5188 31.976 46.2371 31.6687C45.9712 31.384 45.5434 31.8118 45.8093 32.0965C46.1218 32.4317 46.4337 32.7631 46.7417 33.0991C46.268 33.0238 45.798 32.9371 45.328 32.837C44.9514 32.7556 44.7879 33.3378 45.166 33.4184C45.7016 33.5344 46.2409 33.6271 46.7809 33.7114C46.3925 34.1024 45.9887 34.4778 45.5705 34.8367C45.5138 34.8935 45.4819 34.9704 45.4819 35.0507C45.4819 35.1309 45.5138 35.2078 45.5705 35.2646C45.6272 35.3213 45.7042 35.3532 45.7844 35.3532C45.8646 35.3532 45.9416 35.3213 45.9983 35.2646C46.4186 34.906 46.8193 34.5249 47.2125 34.1347L47.2931 35.1215C47.324 35.5064 47.9288 35.5109 47.8957 35.1215C47.8731 34.836 47.8497 34.5505 47.8204 34.2658L48.6301 35.1328C48.8959 35.4182 49.3238 34.9904 49.0579 34.7049C48.8108 34.4428 48.5683 34.1777 48.3212 33.9148C48.8884 33.9728 49.4548 34.0233 50.025 34.0496C50.4242 34.0662 50.4242 33.4606 50.0348 33.4425Z" fill="#7D4AB4"/>
<path id="Vector_9" d="M90.3975 62.4735C90.5329 61.8646 90.7657 61.2814 91.0866 60.7464C91.3254 60.4037 91.7645 59.8064 92.2511 59.9254C92.5976 60.0105 92.6895 60.3924 92.7204 60.708C92.9414 60.209 93.2784 59.77 93.7033 59.4275C93.8484 59.2894 94.0359 59.2044 94.2354 59.1862C94.4348 59.1681 94.6346 59.2178 94.8023 59.3273C95.0636 59.5473 95.044 59.71 95.2376 61.4552C96.1588 58.4491 98.0622 58.8084 98.2505 60.0828C98.3778 60.9867 98.0298 61.9109 97.849 63.3548L99.4918 63.5514C99.7471 63.2501 100.165 62.9172 100.546 63.0309C101.402 60.6763 102.919 58.6185 104.915 57.1039C104.254 54.8037 103.723 52.4683 103.323 50.1087C103.268 49.7088 103.867 49.5898 103.905 49.9468C104.287 52.2359 104.796 54.5019 105.431 56.734C107.865 55.1182 110.718 54.2483 113.64 54.2311C111.922 46.7125 109.149 43.9422 108.953 43.552C108.719 43.2507 109.143 42.8199 109.382 43.1242C111.814 46.4181 113.483 50.2121 114.268 54.2311C115.122 54.249 115.973 54.3288 116.816 54.4699C115.212 47.4137 111.619 41.6509 104.538 39.9064C102.373 39.3271 100.095 39.3093 97.9203 39.8548C95.7458 40.4002 93.7462 41.491 92.1103 43.024C86.9394 47.9455 84.0968 54.7094 81.9509 61.4612C84.7431 61.7956 83.2517 61.6216 90.3975 62.4735ZM90.5699 72.0499C90.5576 72.0049 90.5558 71.9577 90.5648 71.9119C90.5738 71.8661 90.5933 71.8231 90.6218 71.7861C90.6503 71.7492 90.687 71.7194 90.7289 71.699C90.7709 71.6786 90.817 71.6683 90.8637 71.6688C91.1371 71.6952 91.4105 71.7147 91.6847 71.7298C91.113 70.5337 90.6772 69.2773 90.3854 67.9841C89.6435 67.8824 84.1073 67.1292 80.4497 66.6283C80.3076 67.1636 80.169 67.6993 80.034 68.2356C80.0731 68.2433 80.1101 68.2591 80.1428 68.2819C80.1755 68.3048 80.203 68.3342 80.2236 68.3683C80.2443 68.4024 80.2576 68.4405 80.2626 68.48C80.2677 68.5196 80.2645 68.5597 80.2531 68.5979C79.6063 70.8803 79.1031 73.201 78.7467 75.5464C79.0231 75.5464 85.7049 76.6257 90.3462 76.0088C90.3848 76.0017 90.4246 76.0041 90.4621 76.0156C90.4996 76.0271 90.5338 76.0476 90.5618 76.0751C90.5897 76.1027 90.6106 76.1366 90.6226 76.174C90.6347 76.2114 90.6375 76.2511 90.6309 76.2898C91.1748 76.2792 91.7337 76.2634 92.3001 76.2438C91.5255 74.9359 90.9428 73.5235 90.5699 72.0499ZM106.152 66.9363C106.254 65.75 106.25 64.557 106.14 63.3714C105.367 64.4904 104.854 65.7692 104.641 67.113C104.428 68.4568 104.52 69.8313 104.91 71.1348C105.911 70.1601 106.047 68.32 106.152 66.9363ZM117.586 59.2663C116.763 59.0459 115.916 58.9327 115.064 58.9297C115.604 63.3405 115.534 68.2017 113.972 72.3625C115.221 71.8906 116.446 71.3541 117.64 70.7551C118.556 70.3002 117.693 60.302 117.586 59.2663Z" fill="#FFD35C"/>
<path id="Vector_10" d="M99.8244 71.187C98.9047 70.6462 100.05 70.949 97.5542 71.7188C95.5122 72.295 93.382 72.4936 91.2686 72.3048C92.751 77.4944 96.1434 80.8733 101.744 80.6828C102.743 80.6461 103.735 80.4945 104.699 80.2309C102.094 77.8578 100.374 74.668 99.8244 71.187ZM114.465 58.9397C112.976 58.9737 111.511 59.3235 110.167 59.9658C108.823 60.6082 107.631 61.5284 106.669 62.6659C106.892 64.4213 106.892 66.198 106.669 67.9534C106.523 69.3582 106.217 70.8759 105.116 71.7617C105.982 74.1622 107.628 76.2031 109.79 77.5577C114.737 73.2448 115.281 65.4836 114.465 58.9397ZM78.3389 76.0934C78.274 76.0767 78.2166 76.0388 78.1757 75.9857C78.1347 75.9327 78.1127 75.8675 78.113 75.8004C78.3751 73.884 78.7496 71.9847 79.2345 70.1122C77.2626 69.664 72.8322 68.9258 70.8022 69.2444C70.8151 69.374 70.8776 69.7438 70.8633 69.6685C71.6112 73.9671 74.0268 77.4379 78.3058 78.1934C79.4105 78.3375 80.5259 78.3839 81.6388 78.332C82.0133 78.2492 82.3768 78.1228 82.7219 77.9554C82.8183 77.5117 82.9192 77.0591 83.0187 76.6124C81.5416 76.5039 79.7972 76.293 78.3389 76.0934Z" fill="#FFD35C"/>
<path id="Vector_11" d="M84.2091 135.293C79.2429 134.461 74.1553 134.712 69.2954 136.031C68.1844 136.332 66.7714 136.777 67.3371 137.865C67.789 138.736 69.2337 138.495 73.1368 138.593L82.9791 138.84C83.7741 138.94 84.5795 138.922 85.3691 138.786C86.0748 138.582 86.2978 138.046 86.41 137.368C86.6541 135.986 85.6033 135.527 84.2091 135.293ZM146.395 97.9058C145.415 96.7556 144.298 95.6981 143.254 94.6037C134.763 85.6796 135.295 86.1247 134.742 85.8166C133.732 85.26 132.311 86.243 132.303 87.4391C132.378 88.0669 132.654 88.6537 133.089 89.112C136.014 93.2125 139.791 96.6319 144.161 99.1358C144.671 99.5141 145.266 99.7617 145.894 99.8566C146.711 99.8634 147.352 99.0295 146.395 97.9058ZM84.5104 26.8895C86.3129 31.1075 95.0517 23.0481 98.298 19.8168C98.6679 21.4332 99.7804 22.1638 101.038 22.0411C103.147 21.8369 105.106 19.926 106.699 20.4028C107.911 20.7719 108.739 22.5518 109.22 23.717C109.234 24.0514 109.85 24.0311 109.84 23.6981C110.171 22.7153 110.362 21.691 110.409 20.6552C110.582 18.5834 109.954 16.5241 108.655 14.9013C106.743 12.6658 103.099 11.6625 100.189 11.7378C96.5491 11.8342 92.9088 13.7203 90.1708 17.9428C89.1623 19.5035 88.9966 20.2266 88.4949 20.8412C86.8378 22.8365 83.7067 21.4204 84.0976 25.011C84.1422 25.6541 84.2813 26.287 84.5104 26.8895ZM88.9981 21.1696C89.5841 20.4247 90.0789 18.8723 91.6343 16.938C94.4747 13.3881 98.2167 11.7333 102.661 12.5332C104.757 12.9143 106.845 13.6984 108.206 15.3277C109.945 17.3998 110.139 20.2484 109.478 22.7965C108.912 21.5266 108.064 20.0812 106.703 19.7942C105.221 19.4794 103.821 20.5264 102.15 21.141C100.479 21.7556 99.3126 21.4423 98.8968 19.7099C98.8516 19.5373 98.823 19.3607 98.8117 19.1826C98.8119 19.1227 98.7943 19.0642 98.761 19.0144C98.7278 18.9646 98.6805 18.9258 98.6251 18.903C98.5698 18.8802 98.5089 18.8744 98.4502 18.8864C98.3915 18.8984 98.3378 18.9275 98.2958 18.9702C96.0866 21.2442 87.3839 29.4346 85.3231 27.071C84.9345 26.4197 84.7209 25.6789 84.7032 24.9206C84.4042 21.8076 87.1271 23.5347 88.9958 21.1726L88.9981 21.1696ZM114.262 54.2411C113.478 50.2221 111.808 46.4281 109.376 43.1341C109.136 42.8328 108.713 43.2577 108.948 43.562C108.954 43.5691 108.959 43.577 108.963 43.5853C111.278 46.7542 112.872 50.3911 113.633 54.2411C110.711 54.2577 107.858 55.1257 105.423 56.7387C103.607 49.7722 104.031 49.9726 103.808 49.7903C103.755 49.7583 103.694 49.7419 103.632 49.743C103.571 49.7441 103.511 49.7627 103.459 49.7966C103.407 49.8305 103.366 49.8783 103.341 49.9345C103.315 49.9907 103.306 50.053 103.314 50.1142C103.714 52.4735 104.246 54.8086 104.906 57.1086C102.91 58.6232 101.393 60.681 100.537 63.0356C100.395 63.0138 100.25 63.0251 100.113 63.0686C99.9759 63.1121 99.8508 63.1867 99.7472 63.2864C99.6523 63.3699 99.5634 63.46 99.4813 63.5561L97.8401 63.3595C98.0216 61.9209 98.3613 60.9816 98.2408 60.0875C98.0653 58.8131 96.1762 58.4515 95.2279 61.4599C95.0404 59.7847 95.0607 59.5573 94.7926 59.3321C94.6249 59.2225 94.4251 59.1728 94.2257 59.1909C94.0262 59.2091 93.8387 59.2941 93.6936 59.4322C93.2698 59.7749 92.9341 60.2139 92.7144 60.7127C92.6836 60.3971 92.5902 60.019 92.2437 59.9309C91.7548 59.8073 91.3187 60.4046 91.08 60.7511C90.7593 61.2863 90.5264 61.8694 90.39 62.4782L81.1865 61.3868C81.2245 61.1254 81.1844 60.8585 81.0712 60.6198C80.9579 60.3811 80.7766 60.1812 80.55 60.0453C79.7802 59.6567 79.1242 60.37 78.6466 61.0818C78.496 61.0629 78.3536 61.0471 78.2075 61.0283C78.2333 60.4704 78.1221 59.9146 77.8836 59.4096C77.7887 59.276 77.6515 59.1782 77.4943 59.1321C77.337 59.0859 77.1688 59.094 77.0167 59.155C76.5256 59.3441 75.92 60.2675 75.6609 60.7195C75.5486 60.7082 75.4349 60.6931 75.3249 60.6811C75.3216 60.6685 75.3203 60.6556 75.3212 60.6426C75.233 60.0913 74.9973 59.2869 74.3345 59.2055C73.695 59.1242 73.3402 59.8796 73.1632 60.4227C73.0126 60.4054 51.2356 57.8219 51.4826 57.8527C51.4157 57.8526 51.3507 57.8748 51.2978 57.9157C51.2449 57.9566 51.2071 58.0139 51.1904 58.0787C49.4361 66.3671 47.1727 77.0537 46.4105 80.6692C46.4001 80.7073 46.3973 80.7472 46.4023 80.7864C46.4073 80.8257 46.42 80.8636 46.4397 80.8979C46.4594 80.9323 46.4856 80.9624 46.5169 80.9866C46.5482 81.0108 46.5839 81.0286 46.6221 81.039L52.1756 81.8946C52.2527 81.9142 52.3345 81.9031 52.4036 81.8636C52.4727 81.8242 52.5238 81.7594 52.5462 81.683C53.0267 79.6101 56.7069 63.8318 56.8064 63.3919C57.3427 63.4634 63.9687 64.3711 64.044 64.3824L62.1324 78.6573C62.1098 78.8306 62.2905 78.9466 62.4336 78.9586L67.444 79.4557C67.511 79.456 67.5762 79.4339 67.6293 79.393C67.6824 79.3521 67.7203 79.2946 67.737 79.2298C69.0529 70.7659 69.8973 65.3435 69.9214 65.1823C70.0795 65.2056 70.237 65.2252 70.3951 65.2478C70.6415 66.474 71.205 67.6141 72.0296 68.5544C71.4851 68.545 70.9412 68.5942 70.4072 68.7013C70.3431 68.7194 70.2865 68.7577 70.2458 68.8104C70.2051 68.8632 70.1824 68.9277 70.1812 68.9943C70.2925 70.2466 70.594 71.4747 71.0753 72.6361C72.819 77.0048 76.3478 79.3638 81.5036 78.9066C81.5689 78.901 81.6308 78.8753 81.6809 78.833C81.731 78.7908 81.7667 78.734 81.7832 78.6706C81.7997 78.6072 81.7962 78.5402 81.7731 78.4789C81.75 78.4176 81.7085 78.3649 81.6542 78.3282C81.38 78.2046 79.1294 78.7108 76.5783 77.7038C74.0814 76.7118 71.833 74.3007 70.9789 70.1927C70.8975 69.8161 70.838 69.4289 70.8169 69.2406C72.9259 68.9099 77.1439 69.6617 79.2492 70.1076C78.7639 71.9802 78.3894 73.8799 78.1276 75.7966C78.1287 75.8632 78.1512 75.9277 78.192 75.9804C78.2327 76.033 78.2894 76.0711 78.3536 76.0888C81.8184 76.595 86.996 77.0326 90.3742 76.6056C90.7448 76.5604 90.7651 75.9555 90.3742 76.003C85.9069 76.598 78.8605 75.5405 78.7814 75.5405C79.0039 73.7698 79.3563 72.0178 79.8359 70.2989C79.9354 69.9012 80.2615 68.6501 80.2788 68.5921C80.2895 68.5539 80.2925 68.514 80.2877 68.4747C80.2829 68.4353 80.2704 68.3973 80.2509 68.3628C80.2315 68.3283 80.2054 68.2979 80.1742 68.2735C80.143 68.2491 80.1072 68.231 80.0691 68.2204C80.0309 68.2097 79.991 68.2067 79.9516 68.2115C79.9123 68.2163 79.8743 68.2288 79.8398 68.2483C79.8052 68.2678 79.7749 68.2938 79.7505 68.325C79.726 68.3563 79.708 68.392 79.6974 68.4301C79.5964 68.7924 79.5045 69.1585 79.4081 69.5246C79.2266 69.4862 79.0421 69.4492 78.8605 69.4048C79.5435 68.5979 79.9974 67.6224 80.1749 66.5802C80.2977 66.5991 89.7927 67.8976 90.4186 67.979C90.7096 69.2723 91.1452 70.5288 91.7172 71.7247C91.4438 71.7096 91.1703 71.6901 90.8962 71.6629C90.8499 71.6637 90.8044 71.6749 90.7631 71.6957C90.7217 71.7166 90.6856 71.7464 90.6575 71.7831C90.6293 71.8199 90.6098 71.8625 90.6004 71.9078C90.591 71.9531 90.5919 71.9999 90.6032 72.0448C90.9464 73.3974 91.4674 74.6985 92.1525 75.9141C94.0017 79.162 96.4459 80.6767 99.4791 81.1437C101.426 81.4296 103.413 81.2796 105.295 80.7046C112.473 86.4757 122.543 83.4787 127.197 76.0565C133.38 66.1645 126.143 54.4572 114.262 54.2411ZM121.11 81.0879C111.368 86.7905 100.613 79.9913 100.195 68.9905C100.188 68.9104 100.156 68.8347 100.103 68.7744C100.385 67.6724 101.089 64.8079 100.951 63.6871C104.046 54.0143 116.871 52.2729 124.139 58.4425C131.511 64.6867 129.785 76.0105 121.112 81.0879H121.11ZM92.9924 76.2086C92.2327 74.9994 91.6543 73.6854 91.2758 72.3085C93.3892 72.498 95.5194 72.2994 97.5614 71.7225C100.047 70.9414 98.9255 70.6484 99.8316 71.1907C100.383 74.6738 102.102 77.8661 104.706 80.2436C103.742 80.5075 102.75 80.6591 101.751 80.6955C97.7286 80.8311 94.8867 79.1974 92.9946 76.2086H92.9924ZM90.857 63.1283C91.0076 62.4097 91.2581 61.7158 91.6012 61.0667C91.7361 60.8666 91.9012 60.6888 92.0908 60.5395C92.1716 61.3473 92.1102 62.1631 91.9092 62.9497V62.9573C91.8994 63.0146 91.9053 63.0735 91.9263 63.1278C91.9474 63.182 91.9828 63.2295 92.0287 63.2652C92.0747 63.3008 92.1295 63.3233 92.1873 63.3303C92.245 63.3372 92.3036 63.3283 92.3567 63.3045C92.5314 63.2058 92.4561 63.0785 92.8342 61.9939C93.0366 61.3325 93.3579 60.7135 93.7825 60.1674C93.8977 60.0363 94.1945 59.7049 94.3994 59.7667C94.4792 59.7893 94.4242 59.6341 94.846 63.2925C94.8473 63.3639 94.8744 63.4325 94.9223 63.4856C94.9702 63.5386 95.0357 63.5725 95.1067 63.5811C95.1776 63.5896 95.2493 63.5722 95.3084 63.532C95.3675 63.4918 95.4101 63.4316 95.4283 63.3625C95.4569 63.2721 95.8591 60.3497 96.9347 59.8126C97.2706 59.6439 97.5621 59.7162 97.6367 60.086C97.8928 61.2475 96.5777 64.1647 97.5207 65.6786C97.5668 65.7786 97.6365 65.8658 97.7239 65.9328C97.8113 65.9997 97.9136 66.0444 98.0221 66.063C98.1306 66.0815 98.242 66.0733 98.3466 66.0392C98.4513 66.005 98.546 65.9459 98.6227 65.867C99.1499 65.3856 99.7954 63.782 100.326 63.6073C100.579 64.6174 99.2554 70.271 98.9194 70.4827C97.2134 71.5266 94.3896 71.7744 92.3793 71.7579C92.3815 71.684 89.9486 67.4879 90.8593 63.1283H90.857ZM80.2668 65.9995C80.4383 64.6395 80.7074 63.2935 81.072 61.9721C81.1541 61.9819 86.7256 62.6409 90.2522 63.0627C89.9831 64.4855 89.9857 65.9463 90.2597 67.3681C90.2544 67.3666 88.3865 67.1188 80.269 65.9995H80.2668ZM78.1005 69.2602C76.3869 68.9083 74.6499 68.6817 72.9033 68.5823C71.8556 67.5947 71.1599 66.2913 70.9224 64.8712C70.768 63.9529 70.7447 63.0174 70.8531 62.0926C70.8877 61.838 70.9728 61.6301 71.2659 61.7069C71.8127 61.8576 71.8308 62.6613 72.7188 65.2139C72.7357 65.2638 72.765 65.3086 72.804 65.344C72.8429 65.3794 72.8903 65.4042 72.9416 65.4162C72.9929 65.4282 73.0464 65.4269 73.097 65.4125C73.1476 65.398 73.1938 65.3709 73.231 65.3337C73.3063 65.2584 73.3063 65.1514 73.3274 65.0407C73.6362 63.5922 73.2619 61.8018 73.7703 60.4935C73.8268 60.3474 74.0437 59.8269 74.2102 59.7998C74.4602 59.7606 74.6222 60.2698 74.6621 60.4393C74.8477 61.3286 74.8919 62.2417 74.7932 63.1448C74.7623 63.48 75.3295 63.5606 75.3867 63.2254C75.5788 61.9807 76.1352 60.8207 76.9858 59.8917C77.4897 59.3787 77.5236 60.0913 77.5801 60.8091C77.6297 61.5458 77.6257 62.2852 77.568 63.0213C77.5678 63.0878 77.5897 63.1524 77.6301 63.2052C77.6705 63.258 77.7272 63.2959 77.7914 63.3131C77.8556 63.3303 77.9237 63.3258 77.985 63.3002C78.0464 63.2747 78.0976 63.2296 78.1307 63.1719C78.4558 62.4681 78.8497 61.798 79.3064 61.1714C79.3818 61.0961 79.6665 60.5794 80.0499 60.5319C80.3511 60.4973 80.5432 60.8166 80.5771 61.075C80.608 61.6858 80.3331 62.009 80.0717 63.41C79.6996 65.4406 79.6341 68.1432 78.1028 69.2602H78.1005ZM69.7474 64.5586C69.6005 64.539 69.4039 64.5933 69.3768 64.7703C67.7867 74.9989 67.2678 78.3455 67.1925 78.829L62.7726 78.3899L64.6835 64.1263C64.6836 64.0594 64.6615 63.9944 64.6206 63.9414C64.5796 63.8885 64.5223 63.8507 64.4575 63.834L56.6519 62.766C56.6137 62.7556 56.5738 62.7529 56.5345 62.7579C56.4952 62.763 56.4573 62.7757 56.423 62.7955C56.3886 62.8152 56.3585 62.8415 56.3343 62.8729C56.3102 62.9043 56.2924 62.9401 56.2821 62.9784C54.8642 69.073 53.4446 75.1673 52.0234 81.2612C50.3699 81.0066 48.7166 80.751 47.0635 80.4944C47.4702 78.573 51.5015 59.5181 51.7229 58.4809C52.156 58.5314 70.951 60.7601 73.0163 61.0087C72.9028 61.92 72.859 62.8385 72.8853 63.7564C72.4416 62.4052 72.3527 61.8448 71.937 61.4215C71.7646 61.231 71.5265 61.1128 71.2705 61.0906C71.0146 61.0684 70.7597 61.1438 70.5571 61.3017C70.1564 61.6783 70.2068 62.4383 70.1872 62.9437C70.1676 63.504 70.1986 64.0649 70.2799 64.6196C70.1023 64.6004 69.9247 64.5801 69.7474 64.5586ZM99.0829 64.115C98.8326 64.6178 98.5121 65.0824 98.1308 65.4949C97.8283 65.0417 97.706 64.4917 97.7881 63.953C98.0434 63.9839 98.9059 64.0916 99.0836 64.115H99.0829Z" fill="black"/>
<path id="Vector_12" d="M106.294 62.161C105.216 63.4167 104.474 64.9248 104.137 66.5448C103.799 68.1648 103.877 69.8439 104.364 71.4255C104.368 71.4436 104.334 71.3389 104.59 72.0884C106.238 76.6032 110.54 79.6205 114.765 79.6733C121.711 79.7704 126.161 72.935 124.847 66.3037C123.068 57.2131 111.551 55.9492 106.294 62.161ZM124.331 70.3816C123.183 77.6238 116.253 81.0464 110.345 77.8791C115.292 73.4698 115.867 65.4872 115.064 58.9297C121.562 59.0344 125.287 64.3506 124.331 70.3816ZM105.112 71.757C106.214 70.8689 106.518 69.3587 106.665 67.9494C106.889 66.1939 106.887 64.417 106.66 62.6619C107.622 61.5245 108.815 60.6042 110.159 59.9618C111.503 59.3193 112.968 58.9694 114.457 58.935C115.266 65.4337 114.709 73.2739 109.775 77.5499C107.613 76.1983 105.97 74.1574 105.112 71.757ZM106.141 63.3714C106.317 65.3852 106.208 67.4139 105.817 69.3971C105.675 70.047 105.363 70.6475 104.913 71.1371C104.522 69.8335 104.429 68.4586 104.642 67.1143C104.854 65.77 105.366 64.4907 106.141 63.3714ZM33.9644 54.5769C27.4973 52.1854 22.267 57.7547 24.1327 63.1515C24.5831 64.4089 25.3185 65.5449 26.2814 66.4706C27.2442 67.3963 28.4082 68.0866 29.6824 68.4872C28.7258 75.2459 27.1154 82.9445 24.6878 89.3174C24.6753 89.3624 24.6734 89.4097 24.6823 89.4555C24.6912 89.5013 24.7107 89.5444 24.7391 89.5815C24.7675 89.6185 24.8041 89.6484 24.8461 89.6689C24.888 89.6893 24.9341 89.6997 24.9808 89.6993H37.7644C37.8107 89.6986 37.8562 89.6873 37.8975 89.6665C37.9388 89.6457 37.9749 89.6158 38.0031 89.5791C38.0313 89.5424 38.0508 89.4998 38.0602 89.4545C38.0696 89.4092 38.0686 89.3623 38.0574 89.3174C37.0541 84.4215 35.0551 73.579 34.7274 68.1325C40.9271 65.2718 40.1626 56.8674 33.9644 54.5769ZM34.2612 67.6873C34.2152 67.7139 34.1771 67.7521 34.1506 67.7981C34.1241 67.8442 34.1103 67.8964 34.1105 67.9494C34.4118 73.3372 36.3898 84.188 37.4021 89.0998H25.4199C27.7647 82.8481 29.4067 74.9935 30.3158 68.3584C30.3358 68.2813 30.3249 68.1994 30.2853 68.1301C30.2458 68.0609 30.1808 68.0099 30.1042 67.9879C25.5653 66.7827 22.6662 61.3724 25.4448 57.4248C28.8508 52.5853 36.7498 54.4119 38.19 59.9104C38.6 61.4629 38.4266 63.1118 37.7026 64.545C36.9785 65.9782 35.7541 67.0962 34.2612 67.6873Z" fill="black"/>
</g>
</svg>
