<svg width="151" height="151" viewBox="0 0 151 151" fill="none" xmlns="http://www.w3.org/2000/svg">
<g id="Finding-1--Streamline-Barcelona">
<path id="Vector" d="M128.971 109.566C128.293 107.608 126.355 106.309 124.341 105.828C122.3 105.463 120.213 105.442 118.165 105.765L21.4671 115.573C19.1321 115.81 16.2337 116.546 15.8345 118.855C15.464 121.002 17.6264 122.672 19.569 123.659C29.9566 128.932 41.8484 130.473 53.4961 130.705C79.1981 131.217 102.455 123.388 126.593 114.534C127.552 114.171 128.335 113.452 128.778 112.527C129.221 111.602 129.29 110.541 128.971 109.566ZM89.7085 112.563C89.7169 112.187 89.6359 111.814 89.4719 111.474C89.308 111.135 89.0658 110.84 88.7654 110.613C88.665 110.551 88.5923 110.453 88.5624 110.339C88.5325 110.225 88.5478 110.103 88.605 110C88.6657 109.899 88.7639 109.825 88.8784 109.795C88.9929 109.765 89.1146 109.781 89.2174 109.84C89.6501 110.149 90.0021 110.558 90.2434 111.032C90.4848 111.506 90.6085 112.031 90.6041 112.563C90.5893 112.672 90.5358 112.771 90.4535 112.843C90.3711 112.915 90.2656 112.954 90.1563 112.954C90.047 112.954 89.9414 112.915 89.8591 112.843C89.7767 112.771 89.7232 112.672 89.7085 112.563Z" fill="#DFE4ED"/>
<path id="Vector_2" d="M32.1132 56.5709C30.9631 56.3328 29.8656 56.0526 29.3376 54.9771C27.7592 57.4049 27.0965 60.3153 27.4681 63.1871C27.9638 66.0297 30.069 68.6856 32.8913 69.2693C34.4987 69.5009 36.1373 69.3757 37.6908 68.9025C44.517 67.2511 51.003 64.4218 56.8571 60.5418C58.1192 59.7254 59.2692 58.7477 60.2782 57.6336C50.9858 60.3324 42.3306 58.6889 32.1132 56.5709Z" fill="#7D4AB4"/>
<path id="Vector_3" d="M104.268 39.31C103.364 37.9196 101.267 37.8722 99.7791 38.602C98.2908 39.3319 97.1557 40.6169 95.7871 41.5524C93.8145 42.8183 91.4627 43.3578 89.1356 43.0784C86.8084 42.799 84.6512 41.718 83.0344 40.0211C81.2696 38.0627 80.3778 35.4822 78.9813 33.2421C78.2348 32.0199 77.314 30.913 76.2479 29.9566C75.5694 28.0693 74.472 26.3603 73.0381 24.958C71.6042 23.5557 69.8712 22.4966 67.9693 21.8603C64.1399 20.7131 52.2527 19.6895 43.1004 31.6581C38.5118 37.6605 33.9608 43.6651 30.2392 50.2392C29.4197 51.6892 28.6574 53.6038 29.3353 54.9769C29.8626 56.051 30.9608 56.3327 32.1109 56.5708C40.7059 58.3521 48.7005 59.9693 57.0062 58.4139C62.0038 61.9879 68.9071 64.8697 74.0334 61.5247C76.3586 59.9331 77.1774 57.0151 76.4241 55.2263C76.1736 54.7889 75.8456 54.4007 75.4563 54.0806C74.0454 52.9577 72.5164 51.9919 70.8963 51.2003C71.3201 50.7539 71.7271 50.2892 72.1173 49.8061C73.5455 51.4086 75.138 52.8567 76.8685 54.1266C87.7751 62.2123 103.12 55.2699 104.662 42.1082C104.856 41.1579 104.717 40.1696 104.268 39.31Z" fill="#FF9F48"/>
<path id="Vector_4" d="M108.956 34.5338C106.116 34.1677 103.771 34.9918 102.415 37.5271C102.191 38.0165 102.11 38.5588 102.179 39.0923C102.397 41.7112 104.696 40.0248 107.091 40.4247C109.511 40.8766 108.446 43.9445 110.618 44.0213C110.884 44.0383 111.15 43.9979 111.399 43.9031C111.648 43.8082 111.874 43.661 112.061 43.4715C112.236 43.2445 112.36 42.9829 112.426 42.7042C112.492 42.4254 112.498 42.1358 112.443 41.8546C112.389 41.5735 112.275 41.3071 112.109 41.0733C111.944 40.8395 111.73 40.6436 111.483 40.4985C111.455 40.4813 111.432 40.457 111.415 40.428C111.399 40.3991 111.391 40.3664 111.391 40.3332C111.391 40.3 111.399 40.2673 111.415 40.2384C111.432 40.2094 111.455 40.1851 111.483 40.1679C112.45 39.6195 113.468 40.5859 113.592 41.6645C113.633 42.2698 113.758 42.8664 113.962 43.4376C114.044 43.6722 114.205 43.8708 114.419 43.9984C114.632 44.126 114.883 44.1747 115.128 44.1358C117.519 43.4895 116.198 35.0995 108.956 34.5338ZM74.3868 28.4094C74.5396 27.8444 74.9096 27.3627 75.4162 27.0694C75.9228 26.7762 76.5248 26.6953 77.0909 26.8442C77.1165 26.2477 77.1662 25.6519 77.2505 25.0606C75.6807 24.6229 74.0547 24.4198 72.4254 24.458C71.4357 24.4693 70.2042 24.4618 69.3885 25.1118C68.1208 26.1249 67.9905 28.4064 68.7686 29.7818C69.899 31.4947 71.5618 32.788 73.5003 33.462C74.0358 33.6563 76.5485 34.3832 77.5383 34.5918C78.1634 34.7256 78.799 34.8045 79.4379 34.8276C78.4788 33.6714 77.7947 32.3126 77.4373 30.8536C77.0696 31.0409 76.6557 31.1182 76.2452 31.0761C75.8346 31.0341 75.445 30.8744 75.1229 30.6164C74.8009 30.3584 74.5601 30.0129 74.4296 29.6214C74.299 29.2299 74.2841 28.8091 74.3868 28.4094Z" fill="#A76C6C"/>
<path id="Vector_5" d="M92.815 25.7975C92.6885 25.8457 92.583 25.7221 92.5725 25.6122C92.4089 23.6418 91.6128 21.7771 90.303 20.296C86.7546 16.255 80.6882 17.3306 78.6402 21.3173C78.2556 22.1728 77.981 23.0735 77.823 23.998C77.2618 26.7051 77.6724 27.2858 77.2656 27.2828C76.9141 27.1614 76.5363 27.1368 76.172 27.2117C75.8076 27.2866 75.4702 27.4581 75.195 27.7084C75.0045 27.9158 74.8621 28.1626 74.7777 28.4313C74.6934 28.7 74.6692 28.9839 74.7069 29.263C74.7736 29.5477 74.9068 29.8125 75.0957 30.0357C75.2845 30.259 75.5236 30.4342 75.7933 30.5471C76.063 30.66 76.3556 30.7074 76.6472 30.6853C76.9387 30.6632 77.2209 30.5722 77.4705 30.42C77.4959 30.4055 77.5243 30.397 77.5535 30.395C77.5827 30.3931 77.612 30.3978 77.6391 30.4089C77.6662 30.4199 77.6905 30.4369 77.7101 30.4587C77.7297 30.4804 77.7441 30.5063 77.7522 30.5344C79.3106 37.7653 87.5613 39.4601 90.6216 33.7733C91.4388 32.3705 92.0224 30.8441 92.3495 29.254C92.3578 29.2259 92.3722 29.2001 92.3919 29.1785C92.4115 29.1568 92.4357 29.1398 92.4628 29.1288C92.4899 29.1178 92.5191 29.1131 92.5482 29.1149C92.5774 29.1168 92.6058 29.1252 92.6312 29.1395C92.9424 29.2827 93.2865 29.3392 93.6271 29.3029C93.9677 29.2666 94.2921 29.1388 94.5661 28.9332C94.84 28.7276 95.0533 28.4517 95.1832 28.1348C95.3132 27.8179 95.3551 27.4717 95.3044 27.1329C95.2449 26.8719 95.1301 26.6267 94.9678 26.4138C94.8055 26.2009 94.5995 26.0253 94.3636 25.8987C94.1277 25.7722 93.8674 25.6977 93.6003 25.6802C93.3331 25.6627 93.0654 25.7027 92.815 25.7975Z" fill="#A76C6C"/>
<path id="Vector_6" d="M83.5812 29.2012C83.5956 29.4515 83.6754 29.6937 83.8128 29.9034C83.9501 30.1132 84.1402 30.2832 84.3639 30.3964C84.5876 30.5096 84.8371 30.562 85.0875 30.5484C85.3379 30.5348 85.5803 30.4557 85.7904 30.319C86.9956 29.5891 86.9285 28.0164 86.634 26.8263C86.3329 25.9661 86.1835 25.06 86.1926 24.1486C86.2175 23.9031 85.8334 23.9054 85.8093 24.1486C85.7339 26.4701 86.7598 26.9838 86.3448 28.9572C86.2763 29.2623 86.1183 29.54 85.891 29.7547C85.6637 29.9695 85.3774 30.1114 85.0688 30.1623C84.933 30.174 84.7962 30.1583 84.6665 30.1162C84.5369 30.074 84.417 30.0063 84.314 29.9169C84.211 29.8276 84.127 29.7184 84.067 29.596C84.007 29.4736 83.9722 29.3404 83.9646 29.2042C83.9759 28.9549 83.588 28.9549 83.5812 29.2012Z" fill="black"/>
<path id="Vector_7" d="M95.6731 27.0261C95.6026 26.7357 95.4755 26.4621 95.2989 26.2211C95.1224 25.98 94.9 25.7761 94.6445 25.6213C94.3889 25.4664 94.1053 25.3635 93.8099 25.3185C93.5145 25.2736 93.2132 25.2874 92.9231 25.3592C92.8375 24.5524 92.6508 23.7596 92.3673 22.9994C93.5882 23.037 94.5516 22.9602 95.3131 21.9968C96.0881 21.0177 95.4788 19.5911 93.9935 19.3365C96.4037 17.5981 94.7949 13.3966 89.9396 13.6957C90.123 13.3653 90.1852 12.9813 90.1154 12.6099C90.0457 12.2386 89.8485 11.9033 89.5578 11.662C89.2072 11.3743 88.797 11.1682 88.3569 11.0588C87.9168 10.9494 87.4579 10.9393 87.0134 11.0293C79.7501 12.3911 75.786 18.5976 77.1877 24.6414C75.8851 24.2915 74.5443 24.1036 73.1956 24.0817C72.0329 23.9892 70.8632 24.1149 69.7467 24.4523C68.0459 25.1506 67.5187 27.5074 68.131 29.2835C68.6379 30.7515 70.405 32.5697 72.7256 33.564C74.0066 34.0437 75.3144 34.4483 76.6424 34.7759C77.6589 35.056 78.7078 35.2016 79.7622 35.209C82.9347 38.49 88.095 38.3785 90.5588 34.5831C91.575 33.0573 92.2908 31.3517 92.6678 29.5576C93.0422 29.6914 93.4452 29.7247 93.8365 29.6541C94.2278 29.5835 94.5938 29.4116 94.8979 29.1554C95.202 28.8992 95.4336 28.5678 95.5696 28.1942C95.7057 27.8206 95.7413 27.4178 95.6731 27.0261ZM75.1533 33.9609C73.3643 33.5887 71.6983 32.7705 70.3101 31.5823C69.7026 31.0691 69.182 30.4612 68.7682 29.7821C67.9646 28.4263 68.1137 26.126 69.3881 25.1122C70.2031 24.4621 71.4354 24.4697 72.4251 24.4584C74.0543 24.4212 75.6802 24.6242 77.2502 25.0609C77.1709 25.6528 77.1176 26.248 77.0905 26.8445C76.4791 26.7017 75.8361 26.8042 75.2994 27.13C74.9544 27.3458 74.6788 27.6561 74.5051 28.0241C74.3315 28.392 74.2673 28.8021 74.32 29.2056C74.3728 29.609 74.5404 29.9888 74.8028 30.2997C75.0652 30.6106 75.4114 30.8396 75.8003 30.9594C76.3414 31.1182 76.9213 31.08 77.437 30.8517C77.7749 32.3093 78.4501 33.6673 79.4082 34.8166C79.2515 34.7533 78.9751 35.0584 75.1533 33.9609ZM92.6279 29.1351C92.6055 29.1225 92.5809 29.1145 92.5555 29.1115C92.5301 29.1085 92.5043 29.1106 92.4796 29.1176C92.455 29.1246 92.432 29.1364 92.4119 29.1523C92.3919 29.1683 92.3751 29.188 92.3627 29.2104C92.0005 30.8057 91.4132 32.3413 90.6183 33.7711C87.4827 39.3713 79.314 37.8129 77.7488 30.5323C77.7407 30.5042 77.7263 30.4783 77.7067 30.4565C77.6871 30.4348 77.6629 30.4177 77.6358 30.4067C77.6086 30.3957 77.5794 30.391 77.5502 30.3929C77.521 30.3948 77.4926 30.4033 77.4671 30.4178C77.2058 30.5909 76.9039 30.6929 76.5911 30.7136C76.2783 30.7342 75.9656 30.673 75.6837 30.5358C75.4019 30.3987 75.1607 30.1903 74.984 29.9314C74.8073 29.6725 74.7012 29.372 74.6762 29.0595C74.6512 28.7471 74.7081 28.4335 74.8414 28.1498C74.9746 27.8661 75.1796 27.622 75.4361 27.4418C75.6925 27.2615 75.9915 27.1513 76.3036 27.122C76.6157 27.0927 76.93 27.1453 77.2156 27.2746C77.2401 27.2811 77.2658 27.2826 77.2909 27.2791C77.3161 27.2757 77.3404 27.2672 77.3623 27.2544C77.3842 27.2415 77.4033 27.2244 77.4186 27.2041C77.4339 27.1838 77.445 27.1607 77.4513 27.136C77.4885 26.2205 77.582 25.3081 77.7315 24.4041C79.1363 22.1505 82.3261 21.5216 84.7944 21.7633C87.2243 22.0014 89.5397 22.8224 91.95 22.9768C92.2856 23.8188 92.4945 24.706 92.5699 25.6093C92.5804 25.72 92.6866 25.8443 92.8124 25.7946C93.0626 25.7014 93.3297 25.6625 93.596 25.6805C93.8623 25.6984 94.1218 25.7728 94.3572 25.8987C94.5926 26.0245 94.7986 26.199 94.9614 26.4105C95.1243 26.622 95.2403 26.8657 95.3018 27.1255C95.3523 27.4641 95.3105 27.81 95.1807 28.1268C95.051 28.4436 94.8381 28.7195 94.5645 28.9253C94.2909 29.1311 93.9669 29.2593 93.6266 29.2962C93.2862 29.3331 92.9422 29.2774 92.6309 29.1351H92.6279ZM109.719 34.2517C106.419 33.674 103.644 34.4279 102.083 37.3338C101.857 37.8168 101.75 38.347 101.771 38.8799C101.792 39.4128 101.941 39.9328 102.204 40.3964C102.443 40.6272 102.734 40.7978 103.052 40.8939C103.37 40.9901 103.706 41.0091 104.033 40.9493C104.857 40.8334 105.687 40.7615 106.519 40.7339C106.878 40.7277 107.233 40.8185 107.545 40.9966C107.857 41.1747 108.116 41.4337 108.293 41.7462C108.523 42.4149 108.812 43.062 109.156 43.6797C109.351 43.8995 109.589 44.0773 109.855 44.2021C110.121 44.327 110.41 44.3963 110.704 44.4059C110.998 44.4155 111.29 44.3651 111.564 44.2579C111.838 44.1506 112.087 43.9887 112.296 43.7821C112.502 43.5419 112.658 43.2628 112.755 42.9613C112.852 42.6598 112.887 42.3419 112.859 42.0264C112.831 41.711 112.74 41.4044 112.592 41.1247C112.443 40.845 112.24 40.5979 111.995 40.3979C112.181 40.4005 112.364 40.4496 112.527 40.5406C112.69 40.6316 112.828 40.7617 112.928 40.9191C113.198 41.4618 113.344 42.0576 113.355 42.6636C113.741 45.2532 116.161 45.1206 116.558 42.6109C116.964 39.1672 114.22 34.8738 109.719 34.2517ZM115.131 44.1384C114.886 44.1773 114.634 44.1286 114.421 44.001C114.208 43.8733 114.047 43.6748 113.965 43.4402C113.761 42.869 113.636 42.2723 113.595 41.6671C113.468 40.5915 112.453 39.6191 111.486 40.1704C111.458 40.1877 111.434 40.212 111.418 40.241C111.402 40.2699 111.393 40.3026 111.393 40.3358C111.393 40.369 111.402 40.4016 111.418 40.4306C111.434 40.4596 111.458 40.4838 111.486 40.5011C111.733 40.6462 111.946 40.8421 112.112 41.0759C112.277 41.3097 112.391 41.576 112.446 41.8572C112.5 42.1384 112.495 42.428 112.429 42.7067C112.363 42.9855 112.239 43.2471 112.064 43.4741C111.881 43.6727 111.654 43.826 111.401 43.9218C111.148 44.0176 110.877 44.0532 110.608 44.0257C110.339 43.9983 110.08 43.9087 109.852 43.7639C109.624 43.6191 109.432 43.4232 109.293 43.1916C108.979 42.6274 108.885 41.9676 108.546 41.414C108.385 41.1583 108.173 40.9386 107.923 40.7688C107.673 40.599 107.391 40.4827 107.093 40.4273C104.683 40.0243 102.399 41.7145 102.182 39.0949C102.112 38.5613 102.194 38.0191 102.417 37.5297C103.773 34.9943 106.118 34.1703 108.959 34.5364C116.257 35.1058 117.483 43.4989 115.131 44.1384Z" fill="black"/>
<path id="Vector_8" d="M108.639 38.7452C108.396 38.7678 108.394 39.1512 108.639 39.1294C108.952 39.0971 109.267 39.1285 109.567 39.2219C109.866 39.3152 110.144 39.4685 110.382 39.6724C110.568 39.8321 110.842 39.5625 110.654 39.4013C110.38 39.1609 110.06 38.9788 109.714 38.866C109.368 38.7532 109.002 38.7121 108.639 38.7452ZM74.7463 42.4812C73.9373 45.2069 72.7953 47.8224 71.3462 50.2687C71.3231 50.3125 71.3177 50.3635 71.3313 50.4112C71.3448 50.4589 71.3763 50.4994 71.4191 50.5244C71.4619 50.5494 71.5127 50.5569 71.5609 50.5453C71.6091 50.5337 71.6509 50.504 71.6777 50.4623C73.1564 47.9941 74.312 45.3462 75.1161 42.5836C75.1271 42.5354 75.1192 42.4848 75.0939 42.4424C75.0685 42.3999 75.0278 42.3688 74.9801 42.3556C74.9325 42.3424 74.8816 42.3481 74.838 42.3715C74.7945 42.3949 74.7616 42.4342 74.7463 42.4812ZM75.9996 42.1468L74.5 45.4564C74.399 45.6824 74.7259 45.8744 74.8306 45.6492L76.3318 42.3403C76.4335 42.1174 76.1028 41.9223 75.9996 42.1468ZM89.7202 45.8036C89.32 44.8105 89.0796 43.7604 89.0077 42.6921C88.9903 42.4473 88.6069 42.445 88.6235 42.6921C88.6273 42.7584 88.6386 42.8231 88.6439 42.8894C88.6314 42.8692 88.615 42.8516 88.5957 42.8376C88.5764 42.8237 88.5546 42.8137 88.5314 42.8083C88.5082 42.8028 88.4842 42.802 88.4607 42.8058C88.4373 42.8097 88.4148 42.8181 88.3945 42.8307C88.2966 42.8909 88.3486 42.741 87.8605 45.5001C87.8176 45.7411 88.1874 45.8451 88.2303 45.6018L88.6687 43.1252C88.7676 44.0787 88.9969 45.0142 89.3504 45.9053C89.4415 46.132 89.8128 46.0326 89.7202 45.8036ZM79.188 27.0169C79.2021 26.7459 79.2856 26.483 79.4304 26.2534C79.5752 26.0238 79.7765 25.8353 80.015 25.7057C80.2536 25.5762 80.5213 25.51 80.7927 25.5136C81.0641 25.5171 81.3301 25.5902 81.5651 25.7259C81.9161 25.9413 82.2378 25.3885 81.8868 25.1738C81.5551 24.9783 81.1783 24.8726 80.7933 24.8671C80.4084 24.8617 80.0287 24.9567 79.6917 25.1427C79.3547 25.3288 79.072 25.5995 78.8715 25.9282C78.671 26.2569 78.5597 26.6321 78.5485 27.0169C78.5319 27.4282 79.1684 27.4274 79.188 27.0169ZM87.9652 25.7523C88.1041 25.5582 88.2855 25.3984 88.4956 25.2853C88.7057 25.1722 88.9389 25.1086 89.1774 25.0995C89.4159 25.0904 89.6532 25.1361 89.8714 25.2329C90.0895 25.3297 90.2825 25.4751 90.4358 25.6581C90.7062 25.9684 91.1566 25.515 90.8877 25.2062C90.6642 24.9559 90.3866 24.7598 90.0761 24.6327C89.7656 24.5056 89.4302 24.4509 89.0953 24.4727C88.7605 24.4945 88.435 24.5922 88.1436 24.7584C87.8521 24.9246 87.6023 25.155 87.4131 25.4321C87.1773 25.7681 87.7295 26.0859 87.9652 25.7523ZM80.4549 27.5848C79.9555 27.3476 79.4154 28.2507 80.0738 28.6567C80.1462 28.702 80.2277 28.731 80.3125 28.7418C80.3973 28.7525 80.4834 28.7448 80.5649 28.719C80.6465 28.6932 80.7214 28.65 80.7846 28.5924C80.8478 28.5349 80.8977 28.4643 80.9309 28.3855C80.9571 28.3016 80.9654 28.2132 80.9551 28.1259C80.9449 28.0387 80.9164 27.9545 80.8715 27.879C80.8266 27.8035 80.7663 27.7382 80.6945 27.6876C80.6227 27.6369 80.5411 27.6019 80.4549 27.5848ZM89.1847 28.3659C89.0623 28.299 88.9213 28.2742 88.7834 28.2954C88.6455 28.3166 88.5185 28.3826 88.4219 28.4833C88.3253 28.5839 88.2645 28.7135 88.249 28.8521C88.2334 28.9908 88.2639 29.1307 88.3358 29.2502C88.3847 29.314 88.4457 29.3675 88.5153 29.4077C88.5849 29.4479 88.6618 29.474 88.7415 29.4844C88.8211 29.4948 88.9021 29.4894 88.9797 29.4685C89.0573 29.4475 89.13 29.4115 89.1937 29.3624C89.269 29.3027 89.3298 29.2266 89.3712 29.1399C89.4127 29.0531 89.4338 28.9581 89.4329 28.862C89.432 28.7658 89.4092 28.6712 89.3662 28.5852C89.3232 28.4992 89.2611 28.4242 89.1847 28.3659ZM87.7249 31.3795C87.7157 31.3475 87.6983 31.3184 87.6744 31.2951C87.6506 31.2718 87.6211 31.255 87.5888 31.2465C87.5565 31.238 87.5226 31.2381 87.4904 31.2466C87.4581 31.2551 87.4287 31.2718 87.4048 31.2952C86.8311 31.9042 86.0539 32.2816 85.2205 32.3557C84.3753 32.2585 83.6005 31.8383 83.058 31.1829C83.0342 31.1594 83.0046 31.1425 82.9723 31.1339C82.9399 31.1253 82.9059 31.1252 82.8735 31.1337C82.8412 31.1422 82.8115 31.159 82.7876 31.1824C82.7637 31.2059 82.7463 31.2351 82.7371 31.2673C82.6109 31.8736 82.6927 32.5047 82.9693 33.0587C83.2459 33.6128 83.7012 34.0574 84.2616 34.3208C84.6955 34.509 85.1734 34.5719 85.6412 34.5024C86.109 34.433 86.548 34.2339 86.9084 33.9278C87.2689 33.6216 87.5364 33.2207 87.6808 32.7703C87.8251 32.3199 87.8404 31.8382 87.7249 31.3795ZM92.4129 51.3014L98.1374 47.5353C98.3438 47.4004 98.1517 47.0683 97.9446 47.2039L92.2201 50.9699C92.0137 51.1055 92.2058 51.4377 92.4129 51.3014ZM93.1134 53.6213L101.903 54.4618C102.149 54.4859 102.148 54.1018 101.903 54.0785L93.1134 53.2371C92.8671 53.2138 92.8717 53.5972 93.1134 53.6213ZM92.7896 56.6251L99.7945 59.6432C100.02 59.7396 100.214 59.409 99.988 59.3118L92.9831 56.2937C92.7587 56.1965 92.5628 56.5272 92.7896 56.6251ZM120.7 50.6799C121.155 51.408 121.414 52.2409 121.454 53.0983C121.493 53.9558 121.312 54.809 120.926 55.5759C120.814 55.795 121.144 55.9894 121.257 55.7694C121.675 54.9438 121.874 54.0247 121.834 53.1003C121.795 52.1758 121.518 51.277 121.031 50.4901C120.9 50.2777 120.568 50.4698 120.7 50.6799Z" fill="black"/>
<path id="Vector_9" d="M121.946 48.0808C123.011 49.5573 123.615 51.3166 123.681 53.1363C123.747 54.956 123.272 56.7544 122.316 58.3042C122.185 58.5143 122.517 58.7064 122.648 58.4978C123.634 56.8877 124.124 55.0232 124.058 53.1365C123.992 51.2498 123.372 49.4243 122.276 47.8872C122.133 47.6899 121.801 47.8804 121.946 48.0808ZM124.558 46.5186C125.836 48.2748 126.686 50.3062 127.037 52.4499C127.388 54.5937 127.232 56.7899 126.581 58.8623C126.506 59.0973 126.877 59.1982 126.951 58.964C127.612 56.8418 127.77 54.5948 127.412 52.401C127.054 50.2071 126.19 48.1269 124.888 46.325C124.745 46.1277 124.412 46.3183 124.558 46.5186Z" fill="black"/>
<path id="Vector_10" d="M112.111 44.6586C110.809 45.7568 112.261 47.0998 113.384 46.5371C114.959 45.7093 113.111 43.8158 112.111 44.6586ZM112.772 47.4101C112.419 47.3566 112.225 47.9087 112.437 48.143C112.495 48.2262 112.58 48.2874 112.677 48.3168C112.774 48.3461 112.878 48.3419 112.973 48.3047C113.067 48.2675 113.146 48.1997 113.198 48.112C113.249 48.0243 113.269 47.9219 113.255 47.8214C113.231 47.569 112.99 47.4636 112.772 47.4101Z" fill="#FFD35C"/>
<path id="Vector_11" d="M117.195 54.222C116.602 51.9051 114.81 50.2232 113.097 48.6761C113.271 48.6067 113.417 48.4818 113.513 48.3208C113.608 48.1598 113.648 47.9717 113.626 47.7858C113.604 47.5998 113.521 47.4264 113.39 47.2924C113.259 47.1584 113.088 47.0713 112.903 47.0446C113.818 47.0017 114.646 46.2643 114.343 45.4041C114.258 45.0812 114.086 44.7877 113.846 44.5553C113.607 44.3228 113.308 44.1603 112.983 44.0853C112.664 44.0401 112.34 44.0978 112.057 44.2498C111.773 44.4018 111.546 44.6402 111.408 44.9304C110.805 45.8425 111.63 46.9806 112.72 47.0439C112.508 47.066 112.311 47.1674 112.17 47.3279C112.029 47.4885 111.953 47.6963 111.958 47.9101C111.975 48.0976 112.051 48.2748 112.177 48.4153C112.302 48.5557 112.47 48.652 112.654 48.6897C111.06 49.8195 109.391 51.1828 108.62 53.0259C108.223 53.8742 108.118 54.8303 108.322 55.7444C108.527 56.6585 109.029 57.4789 109.75 58.077C110.518 58.7034 111.434 59.1204 112.411 59.2875C113.388 59.4546 114.391 59.3661 115.324 59.0306C117.231 58.2984 117.658 56.0388 117.195 54.222ZM112.111 44.6562C113.113 43.8171 114.961 45.7062 113.385 46.5347C112.266 47.0959 110.798 45.7702 112.111 44.6585V44.6562ZM112.437 48.1406C112.232 47.9018 112.419 47.3542 112.772 47.4077C112.99 47.4612 113.232 47.5666 113.255 47.8189C113.27 47.9197 113.25 48.0225 113.199 48.1107C113.148 48.1989 113.069 48.2672 112.974 48.3047C112.88 48.3422 112.775 48.3466 112.678 48.3173C112.58 48.2879 112.495 48.2264 112.437 48.1428V48.1406ZM115.762 58.3587C114.948 58.7926 114.034 59.0037 113.113 58.9706C112.191 58.9375 111.295 58.6615 110.514 58.1704C109.75 57.7228 109.163 57.0255 108.852 56.1958C108.541 55.3662 108.525 54.4548 108.807 53.6149C109.147 52.6389 109.71 51.7558 110.452 51.0359C111.197 50.2828 112.01 49.6005 112.881 48.9977C114.363 50.1677 115.585 51.6337 116.468 53.3024C117.17 54.8713 117.357 57.2387 115.762 58.3587Z" fill="black"/>
<path id="Vector_12" d="M116.468 53.3026C115.584 51.634 114.363 50.1679 112.88 48.998C112.009 49.6008 111.196 50.2831 110.451 51.0362C109.048 52.3988 108.158 54.3586 108.85 56.2131C109.96 58.902 113.647 59.6696 115.762 58.359C117.357 57.2389 117.169 54.8716 116.468 53.3026ZM114.522 54.6147C114.533 54.099 114.421 53.588 114.195 53.1243C113.969 52.6606 113.635 52.2575 113.222 51.9483C113.122 51.8866 113.049 51.7884 113.019 51.6743C112.989 51.5603 113.005 51.4391 113.062 51.336C113.123 51.2344 113.221 51.1606 113.335 51.1306C113.45 51.1006 113.572 51.1168 113.674 51.1755C114.22 51.5664 114.663 52.0831 114.967 52.6818C115.27 53.2805 115.425 53.9436 115.417 54.6147C115.402 54.7225 115.348 54.821 115.266 54.8923C115.184 54.9637 115.079 55.0029 114.97 55.0029C114.861 55.0029 114.756 54.9637 114.674 54.8923C114.592 54.821 114.538 54.7225 114.522 54.6147ZM71.2299 51.3729C70.491 50.1414 69.7159 48.8873 68.8949 47.6113C67.9436 47.8802 66.8055 48.1838 65.5499 48.5092C67.3207 49.4861 69.319 50.3704 71.2299 51.3729ZM75.8245 59.6349C75.3687 60.3844 74.7589 61.0285 74.0356 61.5247C69.804 64.2875 64.6377 62.818 60.1983 60.4077C55.7641 58.0163 52.3648 54.675 50.762 52.1736C47.9653 52.8658 45.8239 53.4156 45.152 53.6612C43.7593 54.3134 27.3708 64.6137 8.12842 79.5989C11.1978 88.5223 14.8366 96.0612 20.7124 103.687C30.0094 100.257 36.6233 98.931 46.4875 96.6329C47.0657 96.5581 47.622 96.3639 48.1212 96.0627C59.9145 89.0559 71.1868 81.2071 81.8502 72.5774C79.8339 67.9067 77.932 63.7377 75.8245 59.6349Z" fill="#FFD35C"/>
<path id="Vector_13" d="M47.6277 96.7562C47.5057 96.7977 46.3036 97.0651 46.3789 97.0477C46.5612 99.577 46.7555 102.094 47.111 104.499C47.133 104.976 47.3075 105.434 47.6089 105.805C48.2868 106.495 49.5145 106.174 50.5464 106.115C53.7348 105.932 55.8943 105.746 58.1479 106.025C58.3937 106.057 58.6435 106.033 58.8786 105.954C59.1136 105.876 59.3278 105.745 59.5051 105.571C59.6824 105.398 59.8181 105.187 59.9021 104.954C59.9862 104.721 60.0163 104.472 59.9902 104.225L59.8818 103.214C55.663 101.529 51.6901 99.2833 48.0699 96.5386C47.932 96.6291 47.7835 96.7022 47.6277 96.7562Z" fill="#7D4AB4"/>
<path id="Vector_14" d="M82.7029 73.1439C82.039 73.5403 81.3289 73.8537 80.5886 74.0771C70.4123 82.2516 59.6641 89.6875 48.4263 96.3279C53.0746 99.8779 58.3388 102.539 63.9539 104.176C75.0149 96.2814 85.501 87.6112 95.3329 78.2303C91.0304 76.7742 86.8137 75.076 82.7029 73.1439ZM20.9972 103.987C18.004 108.478 15.247 113.121 12.7374 117.898C22.3906 116.652 31.0489 115.3 40.6674 114.061C42.5505 108.632 43.4928 103.048 45.2425 97.3108C36.1866 99.4002 29.5259 100.84 20.9972 103.987ZM82.251 72.5345C82.2717 72.5712 82.28 72.6136 82.2747 72.6554C82.2694 72.6972 82.2508 72.7361 82.2216 72.7665C81.9972 72.9478 81.7727 73.1283 81.5482 73.3081C84.2003 72.0645 91.0553 66.9652 93.6419 65.0453C89.319 66.3946 84.9547 67.6076 80.5555 68.6826C81.1269 69.9635 81.6921 71.2475 82.251 72.5345Z" fill="#FFD35C"/>
<path id="Vector_15" d="M30.1101 71.9393C22.6716 73.3339 15.5099 75.9309 8.90632 79.6281C8.68939 79.7471 8.88221 80.08 9.09914 79.9603C15.6698 76.2698 22.8025 73.6847 30.2118 72.3083C30.4536 72.2616 30.3549 71.8926 30.1101 71.9393ZM31.6595 72.4447C31.4975 72.2579 31.2271 72.5298 31.3876 72.7158C37.2845 79.5505 41.9951 86.7354 46.8323 94.5742C46.9626 94.7835 47.294 94.5907 47.1637 94.3806C42.2919 86.5223 37.7153 79.4737 31.6595 72.4447Z" fill="black"/>
<path id="Vector_16" d="M134.234 102.609C133.813 100.083 131.283 98.7153 128.109 100.162C125.413 101.391 123.798 104.1 121.315 105.647C121.116 105.771 120.954 105.504 121.083 105.346C122.732 103.413 124.101 101.258 125.15 98.9436C126.098 96.8153 126.52 94.4903 126.381 92.1646C125.938 85.9401 119.608 81.5096 115.13 82.9197C112.223 83.868 110.681 86.7611 109.602 89.6037C108.872 91.5212 108.297 93.4945 107.884 95.5044C106.342 96.8099 104.91 98.2412 103.605 99.7834C100.452 102.24 98.2462 105.712 97.3608 109.61C96.9088 111.644 97.0376 114.186 98.8205 115.259C101.781 116.802 104.342 114.124 106.816 111.966C106.803 114.766 106.713 116.881 107.337 118.45C108.491 121.244 111.888 121.811 114.639 120.746C119.703 118.801 126.464 113.548 130.582 109.779C132.596 107.951 134.73 105.576 134.234 102.609Z" fill="#B26EE6"/>
<path id="Vector_17" d="M87.9048 123.439C87.452 121.236 86.1947 119.281 84.3782 117.956C81.3518 119.495 77.9941 120.268 74.5992 120.209C70.1824 120.116 67.3563 118.281 64.7509 117.752C63.5639 117.556 63.5819 118.656 64.1484 119.066C64.6549 119.542 65.2787 119.875 65.9561 120.032C66.1572 120.071 66.118 120.344 65.9561 120.402C63.0306 121.314 59.1914 121.005 57.9509 122.107C57.8839 122.203 57.8401 122.314 57.8228 122.431C57.8054 122.547 57.8151 122.666 57.851 122.778C57.8869 122.89 57.948 122.992 58.0297 123.077C58.1114 123.162 58.2115 123.227 58.3222 123.267C59.4161 123.586 60.5777 123.592 61.6748 123.284C61.7152 123.274 61.7577 123.278 61.7959 123.294C61.8342 123.31 61.8661 123.339 61.8871 123.375C61.908 123.41 61.9169 123.452 61.9123 123.494C61.9077 123.535 61.8899 123.574 61.8616 123.604C61.2131 124.126 59.4897 124.213 59.031 124.856C58.7026 125.499 59.5357 125.787 60.0102 125.828C61.2025 125.835 62.388 125.647 63.5202 125.273C63.7228 125.194 63.8606 125.531 63.6708 125.624C61.253 126.786 60.6339 127.059 60.847 127.616C61.0203 128.068 61.5475 127.926 61.9158 127.867C66.9933 126.91 68.4794 125.866 72.9459 125.366C77.9322 124.753 83.0503 124.903 87.9048 123.439Z" fill="#FCAFB7"/>
<path id="Vector_18" d="M146.486 100.95C146.067 100.637 145.584 100.418 145.072 100.308C142.561 99.5095 140.274 98.1272 138.399 96.2744C137.443 95.3284 136.556 94.2226 135.235 93.7888C134.698 93.5979 134.115 93.5753 133.564 93.7242C133.014 93.873 132.521 94.1861 132.153 94.6218C131.995 94.8388 131.893 95.0921 131.858 95.3585C131.563 98.0497 133.406 100.156 135.775 101.227C139.627 103.08 143.923 103.352 145.729 102.94C145.951 102.895 146.161 102.803 146.345 102.671C146.528 102.538 146.682 102.368 146.795 102.172C146.885 101.963 146.904 101.73 146.848 101.509C146.792 101.288 146.665 101.092 146.486 100.95ZM119.846 106.899L117.812 108.138C117.601 108.266 117.794 108.598 118.006 108.469C118.683 108.056 119.361 107.643 120.039 107.231C120.081 107.204 120.111 107.162 120.122 107.114C120.134 107.066 120.126 107.015 120.101 106.972C120.076 106.929 120.036 106.898 119.988 106.884C119.941 106.871 119.89 106.876 119.846 106.899ZM120.408 106.795L119.648 109.398C119.635 109.447 119.641 109.499 119.667 109.544C119.692 109.588 119.734 109.62 119.783 109.634C119.832 109.647 119.884 109.641 119.929 109.615C119.973 109.59 120.005 109.549 120.019 109.499L120.777 106.897C120.788 106.849 120.779 106.799 120.754 106.757C120.729 106.715 120.688 106.684 120.641 106.671C120.593 106.658 120.543 106.664 120.499 106.687C120.456 106.71 120.423 106.749 120.408 106.795ZM64.8579 109.894C59.4191 108.794 53.901 108.131 48.3565 107.911C48.0201 107.851 47.674 107.876 47.3498 107.983C47.0255 108.091 46.7335 108.279 46.5003 108.529C46.2672 108.778 46.1003 109.083 46.0149 109.414C45.9296 109.744 45.9285 110.091 46.0117 110.423C46.4154 111.658 48.0672 111.81 49.1632 111.902C54.453 112.349 58.3524 112.639 63.4321 112.124C64.0928 112.095 64.7461 111.972 65.3724 111.76C66.396 111.32 66.4472 110.234 64.8579 109.894ZM5.27248 82.4468C6.73466 88.3929 9.46405 93.9529 13.2739 98.7465C13.4245 98.94 13.6965 98.6674 13.5443 98.476C10.6229 94.7736 8.33668 90.6117 6.77892 86.1602C5.55042 82.6404 5.78467 82.1004 5.4043 82.2186C5.35736 82.2327 5.31757 82.2641 5.29307 82.3066C5.26857 82.349 5.2612 82.3992 5.27248 82.4468ZM3.76605 85.9952C3.76972 88.8419 4.51842 91.638 5.93774 94.1056C7.35706 96.5732 9.39755 98.6263 11.8563 100.061C11.8999 100.082 11.95 100.086 11.9965 100.072C12.043 100.059 12.0825 100.027 12.107 99.9856C12.1316 99.9437 12.1393 99.894 12.1287 99.8466C12.1181 99.7992 12.09 99.7576 12.0499 99.7302C9.66997 98.3057 7.69439 96.2956 6.31142 93.8913C4.92844 91.487 4.18415 88.7687 4.14944 85.9952C4.14638 85.9465 4.12485 85.9007 4.08924 85.8673C4.05363 85.8338 4.0066 85.8152 3.95775 85.8152C3.90889 85.8152 3.86186 85.8338 3.82625 85.8673C3.79064 85.9007 3.76911 85.9465 3.76605 85.9952ZM49.121 77.0342C47.6469 76.0186 46.3706 74.7423 45.3549 73.2682C45.2155 73.067 44.8826 73.2584 45.0235 73.4625C46.0758 74.9901 47.3983 76.3126 48.9259 77.3649C49.1308 77.5057 49.3228 77.1736 49.121 77.0342ZM47.2168 77.7212C45.6614 77.6132 44.153 77.1418 42.8128 76.345C42.769 76.3219 42.7179 76.3165 42.6703 76.3301C42.6226 76.3436 42.582 76.3751 42.557 76.4179C42.5321 76.4607 42.5246 76.5115 42.5362 76.5597C42.5477 76.6079 42.5775 76.6497 42.6192 76.6765C44.018 77.5057 45.5916 77.9958 47.2138 78.1076C47.4631 78.1219 47.4624 77.7385 47.2168 77.7212ZM47.8955 80.5683C45.7879 80.6053 43.7583 81.3722 42.153 82.7383C41.9647 82.898 42.2373 83.1684 42.4241 83.0087C43.956 81.7124 45.889 80.9857 47.8955 80.9517C47.9443 80.9487 47.99 80.9271 48.0235 80.8915C48.0569 80.8559 48.0755 80.8089 48.0755 80.76C48.0755 80.7112 48.0569 80.6641 48.0235 80.6285C47.99 80.5929 47.9443 80.5714 47.8955 80.5683ZM81.6795 128.776C84.3668 129.131 87.099 128.908 89.6932 128.122C92.2875 127.336 94.6841 126.005 96.7227 124.219C96.908 124.055 96.6354 123.784 96.4508 123.947C94.4612 125.687 92.1245 126.985 89.5954 127.753C87.0663 128.522 84.4027 128.745 81.7812 128.406C81.5108 128.37 81.4588 128.776 81.6795 128.776ZM88.0397 131.756C89.7233 131.9 91.4187 131.707 93.0274 131.19C94.636 130.673 96.1259 129.841 97.4104 128.743C97.5987 128.583 97.3261 128.312 97.1393 128.472C95.8906 129.535 94.4431 130.339 92.8809 130.837C91.3187 131.335 89.6731 131.518 88.0397 131.374C87.7934 131.352 87.7956 131.737 88.0397 131.756Z" fill="black"/>
<path id="Vector_19" d="M18.806 131.172C33.3295 125.118 47.1684 118.805 60.0107 112.454C60.2322 112.345 60.0378 112.014 59.8171 112.123C45.6198 119.133 32.4754 125.055 18.7043 130.803C18.4791 130.896 18.5778 131.267 18.806 131.172ZM16.8025 121.756L27.8521 117.694C28.0781 117.609 27.9825 117.242 27.7497 117.324L16.7 121.386C16.4703 121.47 16.5705 121.841 16.8025 121.756ZM43.0257 135.091L58.6323 127.287C58.853 127.176 58.6587 126.845 58.4387 126.955L42.8321 134.76C42.6114 134.87 42.805 135.202 43.0257 135.091ZM65.3729 138.278C69.9424 135.035 74.7632 132.16 79.7894 129.683C80.0154 129.573 79.8173 129.243 79.5966 129.351C74.5697 131.828 69.7486 134.703 65.1793 137.948C64.9789 138.089 65.171 138.421 65.3729 138.278ZM93.794 139.636L120.13 119.947C120.325 119.8 120.13 119.467 119.936 119.615L93.5996 139.305C93.4046 139.451 93.5959 139.784 93.794 139.636ZM125.177 131.253L141.87 116.824C142.057 116.662 141.784 116.392 141.598 116.553L124.906 130.981C124.719 131.143 124.991 131.413 125.177 131.253ZM64.231 122.699C64.6665 122.388 65.1789 122.202 65.7126 122.161C65.9581 122.143 65.9596 121.76 65.7126 121.778C65.1107 121.817 64.5312 122.021 64.0374 122.367C63.837 122.507 64.0291 122.84 64.231 122.699ZM65.4256 125.084L67.0073 124.521C67.2378 124.438 67.1391 124.069 66.9049 124.151L65.3269 124.714C65.0927 124.796 65.1921 125.168 65.4256 125.084Z" fill="black"/>
<path id="Vector_20" d="M87.9801 104.512C87.5086 104.924 87.5417 105.389 87.8295 105.653C87.9361 105.761 88.066 105.842 88.2091 105.891C88.3522 105.94 88.5047 105.955 88.6547 105.936C88.8047 105.916 88.9482 105.863 89.0742 105.779C89.2001 105.695 89.3051 105.584 89.3811 105.453C89.4091 105.278 89.3864 105.098 89.3155 104.935C89.2447 104.773 89.1288 104.634 88.9814 104.535C88.8341 104.436 88.6615 104.381 88.484 104.377C88.3066 104.373 88.1317 104.42 87.9801 104.512Z" fill="#FFD35C"/>
<path id="Vector_21" d="M117.936 82.3466C115.686 80.7852 113.58 80.5276 110.846 80.4327C103.591 80.2848 96.4726 82.4238 90.5004 86.5466C88.3535 87.9428 86.3866 89.598 84.6441 91.4749C83.3682 90.513 81.7375 89.6212 80.6212 88.9139C78.165 87.3646 73.4031 83.9088 72.4865 83.142C70.9436 83.9659 69.5556 85.0516 68.3845 86.3507C69.1626 87.5908 70.0227 88.7775 70.959 89.9029C73.2111 92.506 77.9827 95.7592 81.8316 96.3181C81.4482 97.7089 81.4005 99.1709 81.6923 100.584C81.9841 101.997 82.6072 103.32 83.5103 104.445C84.4134 105.57 85.5707 106.465 86.887 107.056C88.2033 107.646 89.641 107.916 91.0819 107.842C91.5534 107.847 92.0113 107.829 92.4588 107.792C92.1959 109.257 91.6729 110.664 90.9147 111.946C90.7783 112.167 90.7339 112.597 90.5848 112.811C89.0324 114.856 87.0507 116.536 84.779 117.733C86.5936 119.102 87.8512 121.082 88.3191 123.307C96.8357 120.615 101.067 113.317 101.247 105.29C108.096 102.848 108.642 103.536 114.253 101.718C124.766 98.2598 124.812 87.0716 117.936 82.3466Z" fill="#ACEAC7"/>
<path id="Vector_22" d="M59.9028 47.0652L60.2139 46.1063C60.2892 45.8706 59.9201 45.7696 59.844 46.0039L59.5329 46.9635C59.4561 47.1985 59.8267 47.3017 59.9028 47.0652Z" fill="black"/>
<path id="Vector_23" d="M133.712 100.548C133.276 100.054 132.725 99.6733 132.108 99.4398C131.491 99.2063 130.827 99.1267 130.172 99.208C126.434 99.6253 124.795 102.447 122.204 104.536C124.781 101.158 126.866 97.2436 126.793 92.8938C126.745 90.5431 125.946 88.2695 124.513 86.4056C123.08 84.5416 121.088 83.1852 118.829 82.5348C117.299 81.2911 115.452 80.4998 113.497 80.2503C106.052 79.4552 98.5533 81.1399 92.1643 85.043C89.016 86.8475 86.1889 89.162 83.7983 91.892C80.1942 90.7735 75.778 91.2714 73.2216 94.1328C71.7243 95.8623 70.5249 97.8286 69.6725 99.9514C67.7804 101.377 65.874 102.783 63.9533 104.169C58.3386 102.533 53.0741 99.8748 48.4242 96.3277C59.6631 89.689 70.4114 82.253 80.5866 74.0769C81.327 73.854 82.0371 73.5405 82.7009 73.1437C86.813 75.0738 91.0301 76.772 95.3323 78.2302C91.1399 82.282 86.7963 86.1829 82.3017 89.9329L82.6233 90.1287C86.903 86.5366 91.5519 82.574 95.8309 78.2844C95.8542 78.2606 95.871 78.2311 95.8795 78.1988C95.888 78.1666 95.8881 78.1327 95.8796 78.1004C95.8711 78.0682 95.8543 78.0387 95.831 78.0148C95.8077 77.9909 95.7786 77.9735 95.7466 77.9643C91.4217 76.5651 87.1963 74.8753 83.0993 72.9064C86.2703 70.997 91.8313 66.8694 94.7538 64.6964C94.9158 64.5766 94.8291 64.2753 94.6032 64.3461C89.9131 65.8338 85.1736 67.1609 80.393 68.3254C79.0975 65.3941 77.7183 62.5006 76.2571 59.6483C76.3264 59.5286 76.3927 59.4043 76.4544 59.277C77.6394 59.0555 78.8034 58.7332 79.9335 58.3136C82.731 57.5551 85.2851 58.8205 88.5955 59.3049C88.9988 59.399 89.4191 59.3915 89.8187 59.283C90.572 58.9878 90.3919 58.038 89.8466 57.4663C89.3621 56.9522 88.7917 56.5265 88.1609 56.2084C88.4291 56.1733 88.6848 56.0741 88.9064 55.9191C89.128 55.7641 89.3089 55.5579 89.4339 55.3181C89.4857 55.1101 89.4943 54.8937 89.4591 54.6823C89.4239 54.4709 89.3456 54.269 89.2292 54.089C89.1127 53.9091 88.9606 53.755 88.7821 53.6363C88.6037 53.5176 88.4028 53.4368 88.1918 53.3989C88.2339 53.0945 88.1592 52.7855 87.9827 52.5339C87.8063 52.2824 87.541 52.107 87.2405 52.0431C84.782 51.5573 82.7897 53.6693 80.3953 54.3133C78.2283 53.5902 80.0405 53.1571 79.7023 50.4568C79.4221 48.4171 77.4276 48.4367 76.7497 50.4629C76.4672 51.8563 75.6583 52.3949 74.6979 53.0155C73.6891 52.33 72.6397 51.7062 71.5555 51.1475C70.7677 49.8319 69.9642 48.5469 69.1452 47.2926C69.1236 47.2564 69.0908 47.2283 69.0518 47.2124C69.0129 47.1965 68.9698 47.1937 68.9291 47.2044C67.9988 47.4681 66.8728 47.7694 65.6217 48.0932C64.5334 47.5324 63.512 46.8502 62.5772 46.0596C57.8922 41.7384 61.2214 34.3132 57.67 29.3291C55.6747 26.3803 50.9543 25.0478 49.1662 30.0191C46.7355 36.3461 46.8779 42.9051 48.9635 49.3549C49.2747 50.2515 49.6823 51.1117 50.1792 51.9203C47.5716 52.5689 45.5846 53.0833 44.9067 53.3251C44.2198 53.6851 44.3177 53.6716 42.1161 55.062C23.0529 67.1112 7.68278 79.4798 7.7581 79.4075C7.732 79.4301 7.71447 79.461 7.70843 79.495C7.7024 79.529 7.70823 79.564 7.72496 79.5942C11.4654 90.5031 15.8153 98.0962 20.4988 104.027C17.5446 108.428 14.6892 113.417 12.2277 118.037C12.1667 118.151 12.239 118.345 12.3934 118.325C19.8661 117.365 27.1105 116.283 34.4867 115.267C41.3531 114.323 40.938 114.473 41.0005 114.281C42.9732 108.638 43.911 102.867 45.6705 97.2082C47.5934 96.7631 47.6665 96.7954 48.0687 96.5356C52.8066 100.165 58.176 102.886 63.9051 104.56C63.9319 104.577 63.9634 104.585 63.9952 104.583C64.027 104.582 64.0574 104.57 64.0821 104.55C64.2064 104.474 66.2265 103.049 69.4051 100.648C67.8986 104.828 66.9391 112.887 70.3361 115.703C70.845 116.158 71.459 116.48 72.123 116.64C72.7869 116.799 73.4802 116.792 74.1406 116.618C75.9957 115.892 75.9317 114.892 77.7266 114.362C79.3747 114.033 80.7832 115.416 82.1435 116.094C83.2838 116.662 84.855 117.07 85.9224 116.129C86.1241 115.937 86.2976 115.718 86.4376 115.477C86.6052 115.594 86.7814 115.698 86.9648 115.789C84.8766 117.402 82.4806 118.571 79.924 119.225C77.3674 119.879 74.7041 120.003 72.0978 119.589C68.9125 118.969 65.4537 117.17 64.1537 117.378C63.9637 117.434 63.7929 117.541 63.66 117.688C63.5271 117.835 63.4373 118.016 63.4005 118.211C63.3637 118.405 63.3812 118.606 63.4513 118.792C63.5213 118.977 63.641 119.139 63.7974 119.261C64.213 119.667 64.7023 119.991 65.239 120.214C63.0442 120.734 60.4185 120.72 58.5738 121.333C56.9168 121.702 57.0486 123.689 58.9422 123.808C59.3311 123.856 59.7232 123.874 60.1149 123.862C59.6072 124.02 58.9188 124.209 58.6838 124.691C58.6236 124.823 58.5927 124.967 58.5935 125.112C58.5942 125.257 58.6265 125.401 58.6881 125.532C58.7497 125.664 58.8392 125.78 58.9503 125.874C59.0614 125.968 59.1915 126.036 59.3316 126.074C60.1946 126.276 61.0934 126.266 61.952 126.047C61.2063 126.43 60.829 126.584 60.5329 127.009C60.4457 127.175 60.4115 127.363 60.435 127.548C60.4584 127.734 60.5384 127.908 60.664 128.046C60.8039 128.174 60.9749 128.263 61.1599 128.305C61.3449 128.346 61.5375 128.338 61.7185 128.282C63.1079 128.049 64.4825 127.735 65.8356 127.342C71.5163 125.621 73.9251 125.625 79.3935 125.2C82.3678 125.049 85.3159 124.566 88.1828 123.76C88.191 123.76 88.1933 123.749 88.2008 123.746C88.2128 123.747 88.225 123.747 88.237 123.746C91.7377 122.748 94.8587 120.723 97.1965 117.933C99.9481 114.405 101.498 110.089 101.619 105.617C103.248 104.989 104.914 104.465 106.609 104.05C106.507 106.521 106.3 114.636 106.582 117.064C106.658 117.771 106.877 118.456 107.227 119.076C107.577 119.695 108.049 120.237 108.616 120.668C109.779 121.426 111.169 121.759 112.549 121.612C114.182 121.38 115.756 120.839 117.187 120.019C121.575 117.518 125.701 114.583 129.502 111.258C131.678 109.361 134.332 107.205 134.667 104.131C134.753 103.5 134.712 102.859 134.549 102.244C134.385 101.629 134.101 101.052 133.712 100.548ZM93.6413 65.0459C91.0902 66.9402 84.1854 72.0719 81.5477 73.3087L82.2211 72.7671C82.2505 72.7369 82.2692 72.6979 82.2745 72.656C82.2798 72.6142 82.2714 72.5717 82.2504 72.5351C81.6946 71.2471 81.1294 69.9631 80.5549 68.6832C85.4591 67.4788 89.6975 66.2827 93.6398 65.0459H93.6413ZM88.472 53.9427C88.6777 54.0374 88.8499 54.1923 88.9658 54.3869C89.0817 54.5815 89.1359 54.8066 89.1213 55.0326C89.052 55.4725 88.6023 55.6842 88.2174 55.7971C87.9997 55.8967 87.7599 55.938 87.5214 55.9169C85.7996 55.2141 84.2035 55.1343 82.1842 54.7607C84.0627 53.9902 86.6876 53.1149 88.4705 53.9427H88.472ZM86.5257 52.3482C87.1561 52.3022 87.9342 52.6374 87.8167 53.3032C85.4749 52.8686 82.3137 54.302 82.5397 54.2176C81.3413 54.6651 81.5462 54.6402 81.0566 54.5061C83.0044 53.8056 84.4679 52.4988 86.5257 52.3482ZM76.7723 51.6123C77.1127 50.8975 77.1203 49.9469 77.8629 49.4912C78.0151 49.3802 78.1999 49.3233 78.3881 49.3294C78.5763 49.3356 78.7571 49.4044 78.9016 49.5251C79.1474 49.7925 79.2962 50.1347 79.3242 50.4968C79.3898 50.9791 79.3784 51.4687 79.2903 51.9475C79.035 53.3876 77.8803 54.2372 81.7465 55.062C84.1568 55.5772 87.5983 55.5742 89.5762 57.7359C89.7871 57.9769 90.0952 58.4432 89.882 58.7663C89.6689 59.0894 89.0844 58.9765 88.7522 58.9388C84.3594 58.3475 82.7099 56.7236 78.0927 58.5095C77.2627 58.8474 76.3606 58.9692 75.4707 58.8635C74.7966 58.7026 74.1813 58.3556 73.695 57.8619C73.2086 57.3682 72.8708 56.7477 72.72 56.0713C72.4511 54.0467 75.949 53.3417 76.7723 51.6145V51.6123ZM68.8959 47.6112C69.5838 48.6853 70.2452 49.7463 70.8799 50.7943C69.2959 49.9725 67.6154 49.1636 66.1324 48.3682C67.0523 48.1236 67.9735 47.8713 68.8959 47.6112ZM49.2174 48.8773C47.3163 42.6761 47.1129 36.3694 49.539 30.1223C50.0497 28.8222 50.8812 27.437 52.356 27.1395C53.0572 27.0448 53.7706 27.1035 54.4469 27.3116C55.1231 27.5196 55.7461 27.8721 56.2728 28.3447C61.1265 32.513 57.5653 40.5144 61.4782 45.4193C61.0263 45.4502 60.0803 47.8002 59.8829 48.5557C59.8719 48.6039 59.8798 48.6545 59.9052 48.697C59.9305 48.7395 59.9712 48.7705 60.0189 48.7837C60.0665 48.7969 60.1174 48.7912 60.161 48.7679C60.2046 48.7445 60.2374 48.7052 60.2528 48.6582C60.5504 47.5839 61.0348 46.5704 61.6839 45.6641C64.2154 48.5866 70.4212 50.4968 74.3688 53.2332C73.3986 53.8727 72.3148 54.6801 72.3351 55.8356C72.4393 56.7562 72.868 57.6096 73.5443 58.2428C74.2206 58.8761 75.1004 59.2478 76.0258 59.2913C74.6625 61.8846 71.5932 63.1176 68.679 63.0054C63.0939 62.9346 56.3918 58.6488 52.5293 54.4278C51.0267 52.8466 49.8954 50.9505 49.2174 48.8773ZM40.6676 114.061C31.1651 115.285 22.4315 116.644 12.7376 117.898C15.2478 113.121 18.0048 108.478 20.9974 103.987C29.584 100.824 36.1144 99.4174 45.2427 97.3106C43.5675 102.803 42.513 108.743 40.6676 114.061ZM47.317 96.4354C43.4259 97.5087 32.2693 99.4196 20.7127 103.684C14.8813 96.1145 11.2176 88.5854 8.12868 79.5958C19.5571 70.619 31.444 62.242 43.7415 54.4986C45.0867 53.5051 45.6298 53.5194 46.9803 53.1518C48.1157 52.8445 49.252 52.5473 50.3894 52.26C51.282 53.6266 52.3285 54.8862 53.5085 56.0141C45.4982 60.5432 37.9154 65.7898 30.8532 71.6892C30.6642 71.8474 30.9361 72.1178 31.1244 71.9597C38.1917 66.0604 45.7801 60.815 53.7962 56.2882C57.5623 59.8336 62.6646 62.5746 66.8675 63.2359C70.1884 63.7579 74.0758 62.967 76.0236 60.0264C78.0528 63.9989 79.9185 68.0783 81.849 72.5743C64.5257 86.5442 48.4837 96.1138 47.317 96.4354ZM86.6387 115.162C86.8001 114.876 87.0273 114.634 87.3015 114.454C87.7046 114.228 88.1782 114.161 88.6279 114.269C88.17 114.741 87.7241 115.155 87.2955 115.516C87.0651 115.421 86.845 115.302 86.6387 115.162ZM89.7103 112.563C89.7187 112.187 89.6377 111.813 89.4737 111.474C89.3098 111.135 89.0676 110.84 88.7673 110.612C88.6668 110.551 88.5941 110.453 88.5642 110.338C88.5343 110.224 88.5496 110.103 88.6068 110C88.6675 109.898 88.7657 109.825 88.8802 109.795C88.9947 109.765 89.1164 109.781 89.2192 109.84C89.6519 110.149 90.0039 110.558 90.2452 111.032C90.4866 111.506 90.6103 112.031 90.6059 112.563C90.5931 112.673 90.5403 112.775 90.4575 112.849C90.3748 112.922 90.2678 112.963 90.1569 112.963C90.0461 112.963 89.9391 112.922 89.8564 112.849C89.7736 112.775 89.7208 112.673 89.708 112.563H89.7103ZM90.7896 115.357C90.3276 115.632 89.8105 115.801 89.2754 115.853C88.7403 115.905 88.2003 115.839 87.6939 115.658C88.1609 115.257 88.6103 114.828 89.0422 114.372C89.6733 114.606 90.2632 114.938 90.7896 115.357ZM72.9384 125.366C68.5419 125.881 66.8705 126.93 61.9083 127.867C61.5392 127.926 61.0127 128.071 60.8395 127.616C60.6889 127.226 61.0248 126.994 61.3118 126.822C62.065 126.37 62.8724 126.004 63.6633 125.624C63.8569 125.531 63.7206 125.198 63.5127 125.273C62.3856 125.668 61.1966 125.856 60.0027 125.828C59.5251 125.799 58.6943 125.5 59.0235 124.856C59.4807 124.219 61.2078 124.124 61.8541 123.604C61.883 123.574 61.9013 123.535 61.9062 123.493C61.9111 123.452 61.9023 123.41 61.8812 123.374C61.8601 123.337 61.8279 123.309 61.7893 123.293C61.7507 123.277 61.7079 123.274 61.6673 123.284C60.5703 123.593 59.4085 123.587 58.3147 123.266C58.2039 123.227 58.1037 123.162 58.0219 123.077C57.9401 122.993 57.8789 122.89 57.843 122.778C57.8071 122.666 57.7975 122.547 57.8149 122.431C57.8323 122.314 57.8763 122.203 57.9434 122.107C59.1613 121.025 63.1572 121.338 65.9486 120.402C66.112 120.347 66.1497 120.074 65.9486 120.031C65.269 119.881 64.6437 119.547 64.1409 119.066C63.5564 118.639 63.5782 117.536 64.7434 117.752C67.3699 118.237 70.1907 120.117 74.5917 120.208C77.9865 120.268 81.3442 119.494 84.3707 117.956C86.1875 119.281 87.4449 121.236 87.8973 123.439C83.0503 124.903 77.9353 124.78 72.9407 125.366H72.9384ZM88.3191 123.309C87.8516 121.084 86.594 119.104 84.779 117.735C85.6829 117.216 86.5415 116.622 87.3459 115.96C87.955 116.212 88.6172 116.31 89.2734 116.244C89.9295 116.179 90.5591 115.951 91.106 115.583C91.7465 116.119 92.5279 116.459 93.3566 116.562C94.0388 116.559 94.7077 116.374 95.2947 116.026C95.8817 115.678 96.3655 115.181 96.6964 114.584C98.0145 112.46 97.2854 109.64 96.4245 107.292C95.6978 105.109 94.7944 102.989 93.7234 100.952C95.8324 98.0556 100.627 98.4962 101.039 101.48C102.245 110.969 98.1629 120.198 88.3214 123.309H88.3191ZM101.628 105.198C101.647 103.956 101.577 102.714 101.418 101.482C100.865 97.9486 95.7036 97.7219 93.5208 100.587C91.3764 96.6516 88.3394 93.5415 84.1809 92.0163C84.8067 91.2548 85.4864 90.5391 86.2146 89.8749C93.4907 83.2745 103.505 79.4436 113.495 80.6344C115.091 80.8675 116.614 81.4582 117.95 82.3623C119.286 83.2664 120.4 84.4606 121.21 85.8558C122.019 87.2509 122.503 88.8109 122.626 90.4193C122.748 92.0277 122.505 93.643 121.916 95.1444C119.355 101.556 112.144 102.278 106.618 103.656C104.928 104.076 103.262 104.591 101.63 105.198H101.628ZM130.578 109.782C126.427 113.564 119.656 118.82 114.634 120.748C111.869 121.819 108.483 121.237 107.333 118.452C106.886 117.025 106.709 115.528 106.81 114.036C106.789 110.298 106.885 106.257 106.982 103.953C111.615 102.855 118.154 101.995 121.321 97.1276C122.719 94.9598 123.306 92.3677 122.978 89.809C122.65 87.2504 121.429 84.8898 119.53 83.1442C121.4 83.8582 123.033 85.0819 124.243 86.6766C125.453 88.2712 126.192 90.1729 126.376 92.1662C126.515 94.4918 126.093 96.8167 125.145 98.9451C124.096 101.259 122.727 103.414 121.078 105.347C120.949 105.506 121.113 105.772 121.311 105.649C123.796 104.101 125.408 101.392 128.104 100.164C131.267 98.7207 133.805 100.068 134.23 102.611C134.73 105.576 132.593 107.947 130.58 109.782H130.578Z" fill="black"/>
<path id="Vector_24" d="M91.2311 111.504C90.5606 110.275 89.6506 109.192 88.5549 108.32C87.2993 109.214 85.9329 110.323 85.472 111.846C85.2662 112.484 85.287 113.173 85.5307 113.798C85.7745 114.422 86.2262 114.943 86.8097 115.273C87.4037 115.639 88.0845 115.841 88.7823 115.857C89.4801 115.873 90.1696 115.703 90.7799 115.364C91.9677 114.483 91.7817 112.681 91.2311 111.504ZM89.7103 112.563C89.7188 112.187 89.6377 111.813 89.4737 111.474C89.3098 111.135 89.0677 110.84 88.7673 110.612C88.6668 110.551 88.5941 110.452 88.5642 110.338C88.5343 110.224 88.5496 110.103 88.6069 110C88.6676 109.898 88.7657 109.825 88.8803 109.795C88.9948 109.765 89.1165 109.781 89.2192 109.84C89.652 110.149 90.0039 110.558 90.2453 111.032C90.4866 111.506 90.6103 112.031 90.6059 112.563C90.5931 112.673 90.5403 112.775 90.4576 112.849C90.3748 112.922 90.2678 112.963 90.157 112.963C90.0461 112.963 89.9392 112.922 89.8564 112.849C89.7736 112.775 89.7208 112.673 89.7081 112.563H89.7103Z" fill="#FFD35C"/>
<path id="Vector_25" d="M90.4916 103.935C90.3848 103.723 90.2258 103.541 90.0295 103.407C89.8332 103.273 89.606 103.191 89.3693 103.169C88.8054 103.148 88.2453 103.27 87.7408 103.523C87.6918 103.536 87.6395 103.53 87.5953 103.504C87.5511 103.479 87.5186 103.438 87.5051 103.389C86.7458 99.1134 82.1573 95.98 77.8519 97.613C75.2352 98.5688 72.8257 100.843 72.5304 103.973C72.5288 104.014 72.514 104.054 72.4882 104.086C72.4625 104.119 72.4271 104.142 72.3872 104.153C72.3472 104.164 72.3049 104.162 72.2664 104.147C72.2278 104.132 72.1949 104.105 72.1726 104.07C71.8148 103.348 71.0624 102.897 70.3777 103.355C70.0586 103.568 69.7991 103.859 69.6236 104.2C69.4482 104.542 69.3625 104.922 69.3748 105.306C69.3871 105.689 69.4969 106.064 69.6938 106.393C69.8908 106.722 70.1684 106.996 70.5005 107.189C70.8398 107.349 71.2268 107.375 71.5849 107.264C71.9431 107.152 72.2463 106.91 72.4347 106.586C72.4542 106.554 72.4826 106.528 72.5164 106.512C72.5502 106.496 72.588 106.49 72.6252 106.495C72.6624 106.5 72.6973 106.515 72.7258 106.54C72.7543 106.564 72.7751 106.596 72.7857 106.632C73.2075 108.242 74.1513 109.666 75.4694 110.681C76.7874 111.697 78.4051 112.246 80.069 112.244C81.7329 112.241 83.3489 111.687 84.6638 110.667C85.9787 109.647 86.9181 108.22 87.3349 106.609C87.3429 106.581 87.3572 106.555 87.3768 106.533C87.3963 106.511 87.4206 106.494 87.4478 106.483C87.4749 106.472 87.5042 106.468 87.5335 106.47C87.5627 106.472 87.5912 106.48 87.6166 106.495C87.6915 106.555 87.7717 106.609 87.8561 106.655C87.933 106.557 88.0319 106.477 88.1448 106.423C88.2577 106.369 88.3817 106.342 88.5069 106.344C88.632 106.346 88.755 106.377 88.8661 106.435C88.9772 106.492 89.0734 106.575 89.1471 106.676C89.6487 106.44 90.0549 106.039 90.2992 105.541C90.5434 105.043 90.6113 104.477 90.4916 103.935Z" fill="#FCAFB7"/>
<path id="Vector_26" d="M76.0655 103.713C74.6871 106.796 77.8378 107.539 78.1866 105.94C78.2393 105.699 77.8695 105.596 77.8175 105.837C77.5426 106.951 75.2995 106.359 76.3969 103.907C76.4963 103.683 76.1664 103.492 76.0655 103.713ZM79.6388 108.596C78.3854 107.646 76.4805 108.456 76.9581 109.688C77.1007 109.942 77.314 110.149 77.572 110.283C77.8299 110.418 78.1214 110.475 78.411 110.447C78.6992 110.461 78.9871 110.412 79.2544 110.303C79.5216 110.195 79.7618 110.029 79.9581 109.817C80.0203 109.717 80.0614 109.605 80.079 109.488C80.0966 109.371 80.0902 109.252 80.0604 109.138C80.0305 109.024 79.9777 108.917 79.9052 108.824C79.8328 108.731 79.7421 108.653 79.6388 108.596ZM73.9821 102.027C74.5172 101.975 75.0344 101.806 75.4968 101.532C75.5689 101.489 75.621 101.419 75.6418 101.337C75.6627 101.256 75.6506 101.169 75.6081 101.097C75.5657 101.024 75.4964 100.971 75.4152 100.95C75.334 100.928 75.2475 100.939 75.1744 100.98C74.811 101.201 74.4043 101.34 73.9821 101.388C73.8981 101.39 73.8182 101.425 73.7588 101.484C73.6994 101.543 73.665 101.623 73.6627 101.707C73.6631 101.792 73.6969 101.873 73.7567 101.933C73.8165 101.992 73.8975 102.026 73.9821 102.027ZM73.1174 105.009C73.2466 105.097 73.4051 105.129 73.5582 105.1C73.7112 105.07 73.8462 104.981 73.9335 104.852C74.0208 104.722 74.0532 104.564 74.0236 104.411C73.9941 104.258 73.9049 104.123 73.7757 104.035C73.6465 103.956 73.4915 103.929 73.3431 103.961C73.1946 103.993 73.0643 104.081 72.9792 104.207C72.8942 104.332 72.8611 104.486 72.8869 104.636C72.9126 104.785 72.9952 104.919 73.1174 105.009ZM80.9087 104.245C80.8508 104.095 80.7399 103.972 80.597 103.899C80.4541 103.826 80.2893 103.807 80.134 103.848C79.9786 103.888 79.8436 103.985 79.7546 104.118C79.6657 104.252 79.629 104.414 79.6516 104.573C79.6839 104.744 79.7829 104.896 79.9269 104.995C80.0709 105.093 80.2481 105.131 80.4198 105.1C80.5976 105.051 80.7488 104.933 80.8404 104.773C80.9319 104.613 80.9565 104.423 80.9087 104.245ZM79.5544 99.8709C80.2476 99.9904 80.8985 100.286 81.4448 100.729C81.991 101.172 82.4144 101.748 82.6742 102.402C82.8188 102.778 83.4365 102.617 83.2904 102.232C83.001 101.471 82.521 100.798 81.8966 100.277C81.2722 99.7558 80.5243 99.4038 79.7246 99.2548C79.3224 99.1848 79.1492 99.8009 79.5544 99.8709ZM89.5066 104.566C89.4226 104.427 89.3113 104.305 89.1796 104.209C89.0478 104.112 88.8981 104.044 88.7393 104.006C88.5804 103.968 88.4157 103.963 88.2548 103.99C88.0938 104.017 87.9399 104.076 87.8021 104.164C87.6664 104.245 87.5491 104.353 87.4574 104.481C87.3657 104.61 87.3017 104.757 87.2695 104.911C87.2373 105.066 87.2376 105.226 87.2702 105.38C87.3029 105.535 87.3673 105.681 87.4594 105.809C88.3708 107.032 90.5303 105.922 89.5066 104.566ZM89.3771 105.45C89.3259 105.647 89.0856 105.77 88.9214 105.858C88.1215 106.255 87.0512 105.321 87.9799 104.509C88.6533 104.027 89.4615 104.727 89.3771 105.45ZM70.1663 105.493L71.8023 105.537C71.8511 105.534 71.8968 105.512 71.9303 105.476C71.9637 105.441 71.9823 105.394 71.9823 105.345C71.9823 105.296 71.9637 105.249 71.9303 105.213C71.8968 105.178 71.8511 105.156 71.8023 105.153L70.1663 105.109C70.1154 105.109 70.0665 105.129 70.0305 105.165C69.9945 105.201 69.9742 105.25 69.9742 105.301C69.9742 105.352 69.9945 105.401 70.0305 105.437C70.0665 105.473 70.1154 105.493 70.1663 105.493Z" fill="black"/>
<path id="Vector_27" d="M88.4689 106.719C88.1194 106.668 87.9417 107.215 88.1676 107.436C88.2277 107.512 88.3111 107.565 88.4048 107.588C88.4985 107.61 88.5971 107.601 88.685 107.562C88.773 107.522 88.8452 107.454 88.8904 107.369C88.9355 107.284 88.951 107.186 88.9344 107.091C88.899 106.862 88.667 106.768 88.4689 106.719Z" fill="#FFD35C"/>
<path id="Vector_28" d="M68.3538 86.3101C69.5261 85.0191 70.9094 83.9369 72.4445 83.1096C68.5557 79.8452 65.188 74.1652 59.6534 73.3005C56.7302 72.8433 53.3422 74.303 52.473 77.1314C52.3965 77.3214 52.3846 77.5312 52.4391 77.7287C52.6056 78.1625 53.2676 78.1505 53.6232 77.853C53.9787 77.5554 55.2298 76.2441 55.6403 76.3292C54.9387 76.6785 54.3133 77.1634 53.8002 77.7558C53.047 78.5022 53.0937 79.4596 53.5064 79.7646C54.2031 80.2791 55.7261 78.9941 56.3347 78.3975C56.0252 78.8201 55.0543 79.7488 54.4042 80.679C54.3058 80.8267 54.2597 81.0031 54.2731 81.1801C54.2864 81.357 54.3586 81.5244 54.4782 81.6557C54.5977 81.7869 54.7576 81.8743 54.9326 81.9041C55.1076 81.9339 55.2875 81.9044 55.4437 81.8201C57.3335 80.6858 57.402 80.1405 58.55 80.0245C59.8651 79.9198 60.0564 80.8914 60.7569 82.1146C60.8375 82.2556 60.9641 82.3646 61.1155 82.4234C61.2669 82.4822 61.4338 82.4872 61.5885 82.4376C61.7431 82.388 61.876 82.2869 61.965 82.151C62.054 82.0152 62.0936 81.8529 62.0773 81.6913C61.9816 80.7875 61.8777 79.8558 61.8814 79.2811C64.7919 80.7204 66.5393 83.5314 68.3538 86.3101Z" fill="#FCAFB7"/>
<path id="Vector_29" d="M55.8885 76.3104C56.6484 75.9186 57.4937 75.7216 58.3485 75.7372C58.3973 75.7342 58.4431 75.7126 58.4765 75.677C58.51 75.6414 58.5286 75.5944 58.5286 75.5455C58.5286 75.4967 58.51 75.4496 58.4765 75.414C58.4431 75.3784 58.3973 75.3569 58.3485 75.3538C57.4258 75.3394 56.514 75.5545 55.695 75.9798C55.472 76.0927 55.6663 76.4242 55.8885 76.3104ZM56.5566 78.7056C57.2801 78.3462 58.067 78.132 58.8728 78.0752C59.1168 78.0579 59.1191 77.6745 58.8728 77.6918C57.9994 77.7519 57.1464 77.9841 56.3631 78.375C56.1424 78.485 56.3405 78.8156 56.5566 78.7056Z" fill="black"/>
<path id="Vector_30" d="M88.4705 53.9428C88.6762 54.0375 88.8484 54.1924 88.9643 54.3869C89.0802 54.5815 89.1344 54.8067 89.1197 55.0327C89.0504 55.4726 88.6008 55.6842 88.2159 55.7972C87.9982 55.8968 87.7584 55.938 87.5199 55.917C85.7981 55.2142 84.202 55.1344 82.1826 54.7608C84.0626 53.9902 86.6876 53.115 88.4705 53.9428Z" fill="#A76C6C"/>
<path id="Vector_31" d="M86.5258 52.3483C87.1562 52.3023 87.9343 52.6375 87.8168 53.3034C85.4751 52.8688 82.3138 54.3021 82.5398 54.2178C81.3414 54.6652 81.5463 54.6403 81.0567 54.5062C83.0045 53.8058 84.468 52.4989 86.5258 52.3483Z" fill="#A76C6C"/>
<path id="Vector_32" d="M76.7723 51.6146C77.1127 50.8998 77.1203 49.9492 77.8629 49.4935C78.015 49.3826 78.1999 49.3256 78.3881 49.3317C78.5763 49.3379 78.757 49.4068 78.9016 49.5274C79.1474 49.7948 79.2962 50.137 79.3242 50.4991C79.3898 50.9814 79.3783 51.4711 79.2903 51.9498C79.0349 53.3899 77.8803 54.2395 81.7465 55.0643C84.1568 55.5795 87.5983 55.5765 89.5762 57.7382C89.7871 57.9793 90.0952 58.4455 89.882 58.7686C89.6688 59.0918 89.0843 58.9788 88.7522 58.9411C84.3594 58.3498 82.7099 56.7259 78.0927 58.5118C77.2627 58.8497 76.3606 58.9715 75.4707 58.8658C74.7966 58.7049 74.1813 58.3579 73.6949 57.8642C73.2086 57.3705 72.8707 56.7501 72.72 56.0736C72.4511 54.0467 75.949 53.3417 76.7723 51.6146Z" fill="#A76C6C"/>
</g>
</svg>
