<svg width="151" height="151" viewBox="0 0 151 151" fill="none" xmlns="http://www.w3.org/2000/svg">
<g id="Logged-In-1--Streamline-Barcelona">
<path id="Vector" d="M146.835 116.23L138.563 104.464L137.378 102.78C137.344 102.733 137.296 102.697 137.242 102.678C137.187 102.658 137.128 102.656 137.071 102.671C137.015 102.686 136.965 102.717 136.927 102.761C136.889 102.805 136.865 102.86 136.859 102.918L79.9793 103.59L21.2081 102.918C21.1998 102.866 21.1785 102.818 21.1461 102.778C21.1138 102.737 21.0715 102.706 21.0234 102.686C20.9753 102.667 20.923 102.66 20.8716 102.667C20.8201 102.674 20.7713 102.694 20.7298 102.725L5.92989 114.518L3.85026 116.175C3.65819 116.326 3.82465 116.64 4.04309 116.64H140.813C142.66 116.64 144.51 116.668 146.357 116.64H146.6C146.648 116.64 146.694 116.627 146.736 116.603C146.777 116.579 146.811 116.544 146.835 116.503C146.859 116.461 146.871 116.414 146.871 116.366C146.871 116.318 146.859 116.271 146.835 116.23ZM97.2288 114.315H97.1602C96.6367 114.326 96.1117 114.315 95.589 114.315H56.7298C56.6813 114.317 56.6332 114.305 56.5916 114.28C56.5501 114.255 56.5169 114.218 56.4963 114.174C56.4771 114.15 56.4628 114.123 56.4545 114.093C56.4461 114.064 56.4437 114.033 56.4475 114.003C56.4513 113.973 56.4612 113.944 56.4766 113.917C56.492 113.891 56.5125 113.868 56.537 113.85L56.5445 113.843C56.5562 113.832 56.5688 113.821 56.5822 113.812L57.0469 113.43L59.1815 111.676C59.3081 111.572 59.4467 111.421 59.6146 111.405C59.6606 111.4 59.7088 111.405 59.7547 111.405H93.7248C93.863 111.398 94.0016 111.398 94.1398 111.405C94.3243 111.424 94.4765 111.592 94.6173 111.701L95.6786 112.515L97.3636 113.807C97.4132 113.838 97.4515 113.885 97.4729 113.939C97.4943 113.994 97.4978 114.054 97.4827 114.111C97.4677 114.167 97.435 114.218 97.3893 114.255C97.3436 114.291 97.2874 114.313 97.2288 114.315Z" fill="#59679C"/>
<path id="Vector_2" d="M52.1973 90.0979L50.3248 94.6172L53.1991 94.6097C53.1863 94.0696 53.1569 92.4329 53.2209 90.0587L52.1973 90.0979ZM64.8242 43.7141C63.8492 44.3433 62.9181 45.0381 62.0373 45.7937L65.3515 49.2585C67.6077 46.9716 70.4296 45.3233 73.5299 44.4816L72.727 40.4557C69.9191 41.0605 67.2425 42.1641 64.8242 43.7141ZM76.4358 39.9435C75.3687 40.0102 74.307 40.1455 73.2572 40.3487L74.0557 44.3528C75.2272 44.0819 76.422 43.9233 77.6236 43.8791C79.5511 43.789 81.4799 44.0256 83.3285 44.5788L83.8934 40.5227C81.4469 39.9814 78.9365 39.7864 76.4358 39.9435ZM48.5209 78.5601L48.6949 78.5684L50.0883 73.0556C49.8316 73.0217 49.5752 72.985 49.3193 72.9457C48.9964 74.8091 48.7303 76.6806 48.5209 78.5601ZM48.4621 79.1032C48.4379 79.324 48.4148 79.545 48.3928 79.766L48.5593 79.1062H48.4787L48.4621 79.1032ZM60.9693 46.7548C61.0038 46.9476 60.9775 47.1464 60.894 47.3235C60.6024 47.7698 60.2442 48.1689 59.8319 48.5068C59.9035 48.6575 59.9675 48.8081 60.027 48.9587C60.4403 50.003 60.7324 51.0912 60.8977 52.2021C61.0219 52.7171 61.0426 53.2516 60.9585 53.7746C60.8745 54.2976 60.6874 54.7987 60.4081 55.2488C60.1488 55.5924 59.8122 55.8702 59.4257 56.0598C59.0392 56.2494 58.6136 56.3455 58.1831 56.3403L58.0189 56.6702C58.1998 56.8067 58.3566 56.9724 58.4829 57.1605L59.5721 57.7443C60.9204 54.7729 62.7417 52.0399 64.9651 49.6517L61.6223 46.1545C61.4009 46.3488 61.1839 46.5485 60.9693 46.7548ZM59.2775 58.38C59.2986 58.3325 59.3182 58.2843 59.3401 58.2369L59.1442 58.1322C59.1947 58.212 59.2376 58.2986 59.2775 58.38ZM53.2383 89.5119C53.2586 88.8506 53.2865 88.1388 53.3241 87.3833L52.4286 89.5435L53.2383 89.5119Z" fill="#FFD35C"/>
<path id="Vector_3" d="M111.452 30.4591H20.9986V94.713C22.2873 94.6851 23.5791 94.7039 24.8679 94.6994L33.3792 94.6685C37.1332 94.6555 40.8873 94.6434 44.6413 94.6324L47.5758 83.0042C47.7453 80.5841 47.9909 78.1693 48.329 75.7658C48.4646 74.7942 48.6153 73.8243 48.781 72.8561C48.68 72.8388 48.5799 72.823 48.4797 72.8042L50.8418 62.4565C50.8418 62.4565 50.307 62.1394 48.9474 63.6187C47.725 64.9489 47.4553 70.6387 47.4139 71.7685C47.4312 71.7863 47.4457 71.8066 47.4568 71.8288L47.4644 71.8438C47.4749 71.8679 47.4822 71.8932 47.4862 71.9191C47.4943 71.9596 47.4955 72.0011 47.49 72.0419C47.441 72.3711 47.383 72.6995 47.3212 73.0264C47.2158 73.5822 47.0953 74.1381 46.9386 74.6834C46.8544 75.1219 46.6632 75.5328 46.382 75.8795C46.3098 75.9511 46.2187 76.0004 46.1194 76.0218C46.0201 76.0431 45.9168 76.0356 45.8216 76.0001C45.6943 75.9433 45.5811 75.8592 45.49 75.7537C45.3989 75.6483 45.3321 75.5241 45.2943 75.39L45.2898 75.3756C45.2045 75.5702 45.0757 75.7426 44.9132 75.8795C44.7818 75.9867 44.6145 76.04 44.4453 76.0285C44.2761 76.017 44.1176 75.9417 44.0018 75.8178C43.8983 75.7052 43.818 75.5734 43.7653 75.4299C43.7337 75.4871 43.6998 75.5429 43.6636 75.5963C43.6003 75.7121 43.5109 75.8117 43.4025 75.8871C43.2942 75.9625 43.1698 76.0117 43.0392 76.0309C42.9399 76.0378 42.8406 76.0157 42.7536 75.9673C42.6666 75.9189 42.5954 75.8463 42.5489 75.7583C42.3779 75.3334 42.3208 74.8713 42.3832 74.4176C42.4189 73.5973 42.5087 72.7803 42.6521 71.9719C42.6521 71.9719 43.4866 60.7776 45.6853 59.1386C47.942 57.5448 50.5667 56.5506 53.3131 56.2492C53.3477 56.132 53.3882 56.0166 53.4343 55.9035C53.7507 55.075 54.1318 54.2668 54.522 53.4676C54.3571 53.4103 54.2029 53.326 54.0655 53.2183C53.9114 53.0991 53.7871 52.9458 53.7022 52.7704C53.6174 52.595 53.5744 52.4023 53.5767 52.2075C53.5878 51.912 53.7115 51.632 53.9224 51.4249C53.4393 50.7991 53.1462 50.0477 53.0781 49.2601C52.9689 47.3681 55.4921 45.2146 56.4676 45.6281C56.4676 45.6281 56.8374 45.6937 56.9895 46.2367C57.1831 45.7559 57.5005 45.335 57.9096 45.0168C58.3187 44.6986 58.8048 44.4945 59.3185 44.4252C59.4759 44.3968 59.6378 44.4065 59.7906 44.4536C59.9435 44.5007 60.0828 44.5837 60.1969 44.6958C60.311 44.8079 60.3965 44.9458 60.4463 45.0978C60.4961 45.2498 60.5086 45.4115 60.4829 45.5694C60.4438 45.7765 60.3816 45.9786 60.2977 46.1719C60.4194 46.2006 60.5357 46.249 60.6419 46.3151C62.5889 44.4595 64.8129 42.9183 67.234 41.7468C68.9608 40.927 70.7784 40.3139 72.6489 39.9203C72.6631 39.8713 72.6904 39.8271 72.7279 39.7926C72.7654 39.758 72.8116 39.7344 72.8616 39.7242C72.9116 39.7141 72.9633 39.7178 73.0114 39.7349C73.0594 39.7521 73.1018 39.7821 73.134 39.8216C76.7193 39.1389 80.4062 39.1953 83.969 39.9873L83.9803 39.9029C84.0285 39.5565 84.5542 39.7048 84.5075 40.0483L84.4985 40.1108C86.944 40.7009 89.2882 41.6511 91.4544 42.9301C92.3587 43.4667 93.227 44.0618 94.0538 44.7115C94.2609 44.4667 94.697 44.7303 94.5057 45.0128L94.4771 45.0549C96.7704 46.9362 98.702 49.2192 100.177 51.7924C102.555 56.0561 104.398 60.5966 105.664 65.3112C106.981 70.1229 107.849 75.0464 108.257 80.0185C108.665 84.8478 108.708 89.7009 108.388 94.5367C112.215 94.5407 116.041 94.5483 119.867 94.5593C123.367 94.5709 126.867 94.5902 130.368 94.6173C132.471 94.6354 134.575 94.6535 136.677 94.7085V30.4591H111.452ZM78.8245 35.0244C78.6102 35.0128 78.4023 34.9468 78.2205 34.8327C78.0387 34.7186 77.889 34.56 77.7854 34.372C77.6819 34.1839 77.6279 33.9726 77.6287 33.758C77.6294 33.5433 77.6848 33.3324 77.7896 33.1451C77.9034 32.9655 78.0621 32.8186 78.25 32.719C78.4379 32.6194 78.6485 32.5704 78.8611 32.577C79.0736 32.5835 79.2808 32.6453 79.4622 32.7563C79.6436 32.8673 79.7929 33.0237 79.8955 33.2099C79.9981 33.3962 80.0504 33.606 80.0472 33.8186C80.044 34.0313 79.9855 34.2394 79.8774 34.4226C79.7693 34.6057 79.6154 34.7575 79.4307 34.863C79.2461 34.9686 79.0372 35.0242 78.8245 35.0244Z" fill="#FFD35C"/>
<path id="Vector_4" d="M107.362 76.7135C107.089 74.5201 106.728 72.3388 106.278 70.1696C104.458 71.2586 102.564 72.2215 100.612 73.0514C101.098 75.8242 101.477 78.6146 101.748 81.4166L107.796 81.1695C107.689 79.6808 107.544 78.195 107.362 76.7135ZM102.301 90.0726C102.37 92.3397 102.355 93.9313 102.345 94.5354H107.839C107.908 93.4665 107.963 92.397 107.998 91.3259C108.012 90.8868 108.02 90.4477 108.029 90.0078C106.12 89.9243 104.208 89.9459 102.301 90.0726ZM101.801 81.9597C102.071 84.8437 102.213 87.4378 102.284 89.528C104.2 89.4008 106.122 89.3795 108.041 89.464C108.077 86.8789 108.009 84.2954 107.835 81.7134L101.801 81.9597ZM88.6637 42.0942C87.2965 41.4845 85.877 40.9997 84.4224 40.6458L83.8514 44.7485C86.5255 45.6992 88.9241 47.2941 90.8353 49.3921L93.7397 45.159C92.1789 43.9344 90.4743 42.9051 88.6637 42.0942ZM104.32 62.7489C102.705 64.1126 100.986 65.3481 99.1786 66.4442C99.6996 68.4472 100.146 70.469 100.516 72.5053C102.462 71.6711 104.348 70.7021 106.16 69.6054C105.659 67.2912 105.045 65.003 104.32 62.7489ZM101.511 55.5873C101.342 55.2268 101.168 54.8667 100.992 54.5072L100.986 54.5125C99.4109 55.4794 97.9348 56.5985 96.5785 57.8537C96.5337 57.8975 96.4748 57.924 96.4122 57.9282C96.3497 57.9325 96.2877 57.9144 96.2373 57.8771C97.3719 60.4742 98.3059 63.1545 99.031 65.8943C100.828 64.7972 102.536 63.5593 104.137 62.1923C103.391 59.9413 102.515 57.7359 101.511 55.5873ZM100.751 54.0214C100.009 52.5057 99.1393 51.0556 98.152 49.6866C97.0001 48.1329 95.6611 46.7271 94.1652 45.501L91.2141 49.8041C93.2313 52.1422 94.8839 54.7714 96.1161 57.6029C96.1265 57.5512 96.1528 57.5041 96.1914 57.4681C97.5822 56.1808 99.0959 55.0329 100.711 54.0409C100.724 54.0334 100.737 54.0268 100.751 54.0214Z" fill="#FFD35C"/>
<path id="Vector_5" d="M136.946 29.913H20.7262C20.654 29.9139 20.5851 29.9431 20.5342 29.9942C20.4832 30.0453 20.4543 30.1142 20.4535 30.1864V102.738C20.4547 102.81 20.4838 102.879 20.5346 102.93C20.5855 102.981 20.6542 103.01 20.7262 103.011C35.7036 103.346 50.6838 103.551 65.6668 103.628C80.9541 103.706 96.2419 103.648 111.53 103.455C120.003 103.349 128.475 103.201 136.946 103.011C137.008 103.011 137.067 102.99 137.115 102.95C137.148 102.926 137.175 102.894 137.193 102.857C137.211 102.82 137.22 102.78 137.219 102.738V30.1864C137.218 30.1142 137.189 30.0453 137.138 29.9942C137.087 29.9431 137.018 29.9139 136.946 29.913ZM136.673 58.5292V94.7084C134.571 94.6534 132.467 94.6331 130.364 94.6172C126.864 94.5866 123.364 94.5673 119.864 94.5592C116.037 94.5467 112.211 94.5392 108.385 94.5367C108.705 89.7008 108.661 84.8477 108.254 80.0184C107.846 75.0463 106.978 70.1228 105.66 65.3111C104.395 60.5967 102.554 56.0562 100.178 51.7924C98.7032 49.2174 96.7721 46.9325 94.4788 45.0496L94.5075 45.0074C94.7003 44.7265 94.2642 44.4628 94.0555 44.7061C93.2288 44.0564 92.3605 43.4614 91.4562 42.9248C89.2899 41.6457 86.9457 40.6956 84.5002 40.1055L84.5093 40.043C84.5567 39.6995 84.031 39.5511 83.982 39.8976L83.9707 39.982C80.408 39.1899 76.721 39.1335 73.1357 39.8162C73.1035 39.7767 73.0611 39.7467 73.0131 39.7296C72.9651 39.7124 72.9133 39.7087 72.8633 39.7189C72.8134 39.729 72.7671 39.7527 72.7296 39.7872C72.6921 39.8218 72.6648 39.8659 72.6506 39.9149C70.78 40.3095 68.9624 40.9236 67.2358 41.7445C64.8147 42.916 62.5907 44.4572 60.6436 46.3127C60.7251 46.3603 60.7962 46.4238 60.8525 46.4995C60.9088 46.5753 60.9492 46.6616 60.9713 46.7534C61.1859 46.5492 61.4029 46.3474 61.6243 46.1508L64.9671 49.648C62.7437 52.0362 60.9223 54.7692 59.574 57.7405L58.4849 57.1568C58.5266 57.2145 58.5665 57.2725 58.6046 57.3308C58.68 57.44 58.7448 57.5522 58.8103 57.666C58.9354 57.8115 59.0485 57.9669 59.1485 58.1307L59.3443 58.2354C59.3225 58.2829 59.3029 58.3311 59.2818 58.3785C59.3059 58.4267 59.333 58.4727 59.3571 58.5216C59.3812 58.5706 59.3918 58.6022 59.4098 58.6429C60.8817 60.989 61.8467 63.617 62.2427 66.3581L65.9463 64.1067L68.2315 67.3064C68.2315 67.3064 62.7918 72.8342 61.6205 72.2565C61.4868 72.1811 61.3641 72.0876 61.256 71.9786C61.2138 72.2799 61.1671 72.5812 61.1121 72.8824C61.1066 72.9142 61.0951 72.9446 61.0782 72.9721L65.4145 76.0527C65.3221 75.5308 65.1963 75.0152 65.0379 74.5094C64.9332 74.1727 65.4604 74.0303 65.5651 74.364C66.2749 76.6552 66.3463 79.0967 65.7715 81.4254C65.5934 82.1541 65.3486 82.8649 65.0401 83.5487C64.7702 84.196 64.3544 84.7721 63.8252 85.2322C63.5555 85.4521 63.1676 85.068 63.4395 84.8465C64.0041 84.3452 64.4333 83.7098 64.6876 82.9989C65.3112 81.4606 65.6233 79.8139 65.6058 78.1542C65.5968 80.1609 65.0892 82.134 64.1287 83.896C60.1367 79.104 57.0289 78.4442 57.0289 78.4442L53.3276 87.3834C53.29 88.1366 53.2621 88.8506 53.2417 89.5119L52.432 89.5436L52.2061 90.0979L53.2297 90.058C53.185 91.5746 53.1777 93.092 53.2079 94.609L50.3336 94.6165L50.1829 94.9878L50.1076 95.1626L56.0091 95.146C61.1535 95.1325 66.2982 95.1204 71.4432 95.1098C76.7695 95.0993 82.0957 95.091 87.422 95.085C92.579 95.0795 97.736 95.0772 102.893 95.0782C107.531 95.0782 112.169 95.084 116.806 95.0955C120.588 95.1056 124.368 95.1222 128.148 95.1452C130.691 95.1626 133.234 95.1814 135.776 95.2326C136.077 95.2386 136.379 95.2457 136.68 95.2537V102.469C121.627 102.803 106.571 103.008 91.5134 103.082C77.8466 103.149 64.1792 103.107 50.5113 102.958C50.488 102.982 50.46 103.001 50.429 103.014C50.3981 103.027 50.3649 103.033 50.3313 103.033H41.8388C41.7857 103.035 41.7333 103.02 41.6893 102.991C41.6454 102.961 41.6122 102.917 41.5948 102.867C41.5948 102.86 41.5872 102.852 41.5842 102.845C34.7224 102.744 27.8606 102.619 20.9988 102.468V95.259L23.4528 95.2492C25.9459 95.2392 28.4391 95.2301 30.9322 95.2221L42.1619 95.1852C42.9428 95.1822 43.7241 95.1799 44.5059 95.1784L44.5542 94.9871L44.643 94.6316L33.3809 94.6677L24.8696 94.6986C23.5808 94.7031 22.2891 94.6843 21.0003 94.7122V30.459H136.673V58.5292ZM102.302 90.0723C104.207 89.946 106.118 89.9247 108.026 90.0083C108.017 90.4482 108.01 90.8873 107.995 91.3265C107.96 92.3975 107.905 93.4671 107.836 94.5359H102.342C102.355 93.9311 102.37 92.3395 102.302 90.0723ZM102.284 89.5278C102.197 87.0008 102.036 84.4769 101.801 81.9594L107.836 81.7132C108.009 84.2922 108.078 86.8757 108.041 89.4637C106.123 89.3793 104.202 89.4007 102.287 89.5278H102.284ZM69.9082 71.7812C69.9253 71.8509 69.9152 71.9245 69.8797 71.9868C69.8442 72.0492 69.7862 72.0956 69.7176 72.1164C69.6479 72.1354 69.5735 72.1262 69.5106 72.0906C69.4477 72.0551 69.4014 71.9961 69.3817 71.9266L69.3267 71.6042C69.1942 71.6243 69.061 71.6399 68.9275 71.6509C68.8575 71.6473 68.7917 71.6169 68.7435 71.5661C68.6953 71.5153 68.6684 71.4479 68.6684 71.3779C68.6684 71.3079 68.6953 71.2405 68.7435 71.1897C68.7917 71.1389 68.8575 71.1085 68.9275 71.1049C68.981 71.1049 69.0337 71.0958 69.0864 71.0905L69.1534 71.083L69.1843 71.0792L69.2348 71.0702L69.1595 70.6251C69.1421 70.5553 69.1522 70.4815 69.1876 70.419C69.2231 70.3565 69.2812 70.31 69.35 70.2891C69.4197 70.2704 69.494 70.2799 69.5568 70.3155C69.6195 70.3512 69.6657 70.4102 69.6852 70.4797L69.7681 70.9625C69.8652 70.9369 69.9609 70.909 70.0565 70.8781C70.1265 70.859 70.2011 70.8683 70.2641 70.9042C70.3271 70.9401 70.3733 70.9995 70.3925 71.0695C70.4117 71.1394 70.4023 71.214 70.3664 71.277C70.3305 71.34 70.2711 71.3862 70.2012 71.4054C70.0888 71.441 69.9752 71.473 69.8607 71.501L69.9082 71.7812ZM69.3621 86.2791C69.3727 86.307 69.3798 86.3361 69.3832 86.3658L69.396 86.478C69.3961 86.5439 69.3721 86.6075 69.3286 86.6569C69.285 86.7063 69.2248 86.738 69.1595 86.7461C69.094 86.7556 69.0274 86.7409 68.972 86.7049C68.9166 86.6688 68.8761 86.6139 68.8582 86.5503C68.8275 86.4036 68.8006 86.2562 68.7776 86.1082C68.62 86.1147 68.4623 86.1167 68.3046 86.1142C68.2323 86.1142 68.1629 86.0855 68.1118 86.0343C68.0606 85.9832 68.0319 85.9138 68.0319 85.8415C68.0319 85.7692 68.0606 85.6999 68.1118 85.6487C68.1629 85.5976 68.2323 85.5689 68.3046 85.5689H68.7106C68.6906 85.3613 68.6785 85.153 68.6744 84.9444C68.6744 84.8721 68.7031 84.8028 68.7543 84.7516C68.8054 84.7005 68.8747 84.6718 68.9471 84.6718C69.0194 84.6718 69.0887 84.7005 69.1399 84.7516C69.191 84.8028 69.2197 84.8721 69.2197 84.9444C69.2197 85.1516 69.2355 85.3459 69.2529 85.5365H69.2604C69.3109 85.5319 69.3621 85.5267 69.411 85.5207L69.4999 85.5101H69.5285C69.5983 85.4931 69.6719 85.5033 69.7343 85.5388C69.7967 85.5742 69.8433 85.6321 69.8645 85.7007C69.8834 85.7716 69.8734 85.8472 69.8366 85.9108C69.8009 85.9722 69.7424 86.0171 69.6739 86.0359C69.5557 86.0524 69.4374 86.066 69.3199 86.078C69.3342 86.1375 69.3485 86.2076 69.3621 86.2769V86.2791ZM70.1108 65.7668C69.6503 66.3153 69.1581 66.8364 68.6367 67.3275C68.5956 67.3692 68.5414 67.3957 68.4832 67.4024C68.425 67.4091 68.3662 67.3957 68.3166 67.3644C68.2732 67.3435 68.2359 67.3119 68.2082 67.2725L66.057 64.2182C66.0175 64.1732 65.9974 64.1145 66.0012 64.0547V64.0148C66.0274 63.7202 66.0714 63.4274 66.133 63.1381C66.1717 62.9459 66.2261 62.7572 66.2957 62.5739C66.3569 62.3858 66.4599 62.2141 66.597 62.0715C66.6669 62.0017 66.7542 61.952 66.8499 61.9276C66.9456 61.9032 67.0461 61.9051 67.1409 61.9329C67.2261 61.9665 67.3035 62.0173 67.3683 62.0821C67.4331 62.1469 67.4839 62.2243 67.5175 62.3095C67.5463 62.3749 67.5715 62.4417 67.5928 62.5099C67.6884 62.4346 67.7841 62.3593 67.882 62.2922C68.1585 62.0372 68.5103 61.8786 68.8845 61.8403C69.4269 61.8757 69.3817 62.4971 69.2235 62.8662C69.3689 62.812 69.5287 62.8105 69.6751 62.8622C69.8214 62.9138 69.945 63.0152 70.0242 63.1486C70.0882 63.2777 70.1182 63.421 70.1113 63.565C70.1045 63.7089 70.061 63.8487 69.985 63.9711C70.0567 63.9568 70.1296 63.9488 70.2027 63.947C70.2995 63.9348 70.3978 63.9478 70.4882 63.9846C70.5785 64.0215 70.6578 64.0811 70.7184 64.1576C70.779 64.2341 70.8188 64.3249 70.834 64.4213C70.8492 64.5177 70.8393 64.6163 70.8052 64.7078C70.6378 65.0982 70.4027 65.456 70.1108 65.7645V65.7668ZM65.3489 49.2601L62.0348 45.7953C62.9155 45.0397 63.8467 44.3449 64.8217 43.7157C67.2392 42.1668 69.9147 41.064 72.7214 40.4595C72.9886 41.8017 73.2562 43.1437 73.5244 44.4854C70.4253 45.327 67.6045 46.9744 65.3489 49.2601ZM73.2577 40.348C74.3074 40.1448 75.3692 40.0095 76.4363 39.9428C78.9368 39.7858 81.4469 39.9808 83.8931 40.522L83.3282 44.5781C81.4797 44.0249 79.5508 43.7883 77.6234 43.8783C76.4217 43.9226 75.227 44.0812 74.0554 44.3521L73.2577 40.348ZM84.4226 40.6448C85.8772 40.9987 87.2968 41.4835 88.664 42.0932C90.4745 42.9042 92.1792 43.9334 93.7399 45.1581L90.8355 49.3911C88.9244 47.2931 86.5257 45.6983 83.8517 44.7476L84.4226 40.6448ZM94.1655 45.5C95.6614 46.7261 97.0004 48.1319 98.1523 49.6856C99.1395 51.0546 100.009 52.5047 100.752 54.0204C100.737 54.0258 100.723 54.0324 100.71 54.04C99.0954 55.0319 97.5817 56.1798 96.1909 57.4671C96.1524 57.5031 96.126 57.5503 96.1156 57.6019C94.8836 54.7708 93.2312 52.1418 91.2144 49.8039L94.1655 45.5ZM96.5758 57.8528C97.932 56.5976 99.4081 55.4785 100.983 54.5115L100.989 54.5062C101.165 54.8658 101.338 55.2258 101.509 55.5863C102.512 57.7349 103.389 59.9403 104.134 62.1913C102.533 63.5583 100.825 64.7962 99.0283 65.8933C98.3031 63.1535 97.3692 60.4733 96.2346 57.8761C96.2851 57.9143 96.3477 57.9331 96.4109 57.9289C96.4741 57.9248 96.5337 57.898 96.5788 57.8535L96.5758 57.8528ZM104.316 62.7487C105.042 65.0016 105.656 67.2892 106.156 69.6029C104.344 70.6996 102.458 71.6686 100.511 72.5028C100.142 70.4664 99.6957 68.4446 99.1744 66.4417C100.983 65.3466 102.704 64.1118 104.32 62.7487H104.316ZM106.274 70.1694C106.726 72.3351 107.087 74.5164 107.357 76.7133C107.541 78.1949 107.683 79.681 107.792 81.1693L101.744 81.4164C101.472 78.6144 101.094 75.824 100.608 73.0512C102.562 72.2214 104.457 71.2586 106.279 70.1694H106.274ZM66.231 72.3258C66.0992 72.0004 66.6272 71.8596 66.7582 72.1812C67.1484 73.147 67.4448 74.1481 67.6432 75.1707C68.3487 78.7892 67.8622 82.5388 66.2566 85.8573C66.1059 86.1737 65.6322 85.8965 65.7858 85.5824C66.2258 84.6797 66.5789 83.7372 66.8403 82.7677C67.775 79.3131 67.5611 75.6482 66.231 72.3258ZM62.1741 86.9849C62.4566 87.189 62.1839 87.6628 61.8985 87.4557C60.9674 86.7774 60.231 85.8664 59.763 84.8138C59.2951 83.7612 59.112 82.6042 59.2321 81.4586C59.272 81.1136 59.8181 81.1106 59.7774 81.4586C59.6579 82.5089 59.8163 83.5723 60.237 84.5422C60.6576 85.512 61.3256 86.3544 62.1741 86.9849ZM62.2058 84.5588C61.9002 84.2013 61.7426 83.7406 61.7651 83.2708C61.7667 83.199 61.7959 83.1305 61.8467 83.0797C61.8975 83.0289 61.966 82.9997 62.0378 82.9981C62.1101 82.9983 62.1793 83.0271 62.2304 83.0782C62.2815 83.1293 62.3103 83.1985 62.3105 83.2708V83.4855C62.3153 83.5075 62.3179 83.53 62.318 83.5525V83.5721C62.3218 83.5962 62.327 83.6195 62.3323 83.6429C62.3422 83.6864 62.3542 83.7294 62.3685 83.7717C62.3745 83.792 62.3813 83.8116 62.3888 83.8312L62.4016 83.8643C62.4122 83.8922 62.4099 83.8869 62.3941 83.8493C62.3941 83.8576 62.4197 83.905 62.4242 83.914L62.4573 83.9773C62.4803 84.0195 62.5054 84.0605 62.5327 84.1001C62.5395 84.1106 62.562 84.1551 62.5741 84.1581L62.5643 84.1453L62.5869 84.1731C62.6366 84.225 62.6644 84.2941 62.6644 84.366C62.6644 84.4378 62.6366 84.5069 62.5869 84.5588C62.5358 84.6082 62.4674 84.6359 62.3963 84.6359C62.3252 84.6359 62.2569 84.6082 62.2058 84.5588ZM58.4615 86.8644C58.476 86.9167 58.4746 86.9722 58.4574 87.0237C58.4402 87.0752 58.408 87.1203 58.365 87.1534C58.3219 87.1865 58.27 87.206 58.2158 87.2094C58.1616 87.2128 58.1077 87.1999 58.0608 87.1725C58.0011 87.1347 57.9566 87.0771 57.935 87.0098C57.9028 86.9253 57.8739 86.8396 57.8484 86.7529L57.4357 86.82C57.366 86.8371 57.2924 86.8269 57.2301 86.7915C57.1677 86.756 57.1213 86.698 57.1005 86.6294C57.0813 86.5597 57.0906 86.4852 57.1264 86.4223C57.1621 86.3595 57.2213 86.3134 57.291 86.2942L57.7332 86.2189C57.7136 86.0863 57.7008 85.9528 57.6948 85.8189C57.6984 85.749 57.7288 85.6831 57.7796 85.6349C57.8304 85.5867 57.8978 85.5599 57.9678 85.5599C58.0378 85.5599 58.1052 85.5867 58.156 85.6349C58.2068 85.6831 58.2372 85.749 58.2408 85.8189C58.2408 85.9161 58.2521 86.0125 58.2627 86.1097V86.1323L58.402 86.1097C58.4717 86.0925 58.5453 86.1027 58.6076 86.1381C58.67 86.1736 58.7164 86.2316 58.7372 86.3002C58.7564 86.37 58.7471 86.4444 58.7113 86.5073C58.6756 86.5701 58.6164 86.6162 58.5466 86.6354L58.3885 86.661C58.4141 86.7318 58.4359 86.7989 58.4615 86.8644Z" fill="#7D4AB4"/>
<path id="Vector_6" d="M48.3271 75.7674C47.9912 78.1709 47.7456 80.5879 47.5739 83.0058L48.3904 79.7669C48.4122 79.5462 48.4356 79.3248 48.4597 79.1041H48.5561L48.6924 78.5648L48.5184 78.5565C48.7283 76.678 48.9937 74.806 49.3146 72.9405C49.1368 72.9124 48.9578 72.883 48.7776 72.8524C48.6134 73.8241 48.4632 74.7957 48.3271 75.7674ZM78.8128 101.759C79.4619 101.759 80.0844 101.502 80.5435 101.043C81.0026 100.584 81.2606 99.9613 81.2608 99.3121C81.2608 96.9373 77.9843 95.9588 76.7415 98.0008C76.5315 98.3755 76.4206 98.7976 76.4191 99.2271C76.4176 99.6566 76.5256 100.079 76.7329 100.456C76.9403 100.832 77.24 101.149 77.6039 101.377C77.9678 101.605 78.3839 101.737 78.8128 101.759Z" fill="#7D4AB4"/>
<path id="Vector_7" d="M53.8293 56.4578C53.8298 56.4638 53.8298 56.4698 53.8293 56.4758L53.8368 56.4954C53.867 56.5815 53.9082 56.6633 53.9596 56.7387C53.9686 56.753 53.9791 56.7658 53.9889 56.7801C54.0471 56.8671 54.1116 56.9496 54.1818 57.0272C54.4149 57.3024 54.7019 57.5269 55.0251 57.687C55.3483 57.8472 55.7008 57.9394 56.061 57.9582C56.3472 57.9619 56.766 57.9582 56.9122 57.6727C57.0093 57.4859 57.1005 57.2961 57.1946 57.1063L57.2021 57.0905L57.4108 56.6717L57.4454 56.6016L57.6066 56.2777L57.6111 56.2672C57.168 56.1641 56.7608 55.9434 56.4324 55.6285C55.9549 55.1472 55.6155 54.5466 55.4494 53.8893C55.4211 53.7854 55.396 53.6806 55.3741 53.5752C55.2752 53.5805 55.1762 53.5805 55.0773 53.5752C54.6418 54.4172 54.255 55.2836 53.9189 56.17L53.9068 56.2092C53.8805 56.2845 53.8571 56.3598 53.8315 56.4389C53.824 56.4623 53.8225 56.4698 53.8217 56.4728L53.8293 56.4578Z" fill="#FFCEB6"/>
<path id="Vector_8" d="M54.7724 52.9629L54.8146 52.9742C54.8919 52.993 54.9704 53.0066 55.0496 53.0149C55.1441 53.0251 55.2392 53.0293 55.3343 53.0277C55.4224 53.0266 55.5105 53.0205 55.5979 53.0096C55.6354 53.0052 55.6734 53.011 55.7078 53.0264C55.7423 53.0418 55.772 53.0662 55.7938 53.097C55.8169 53.1266 55.8352 53.1596 55.848 53.1949C55.8589 53.223 55.8665 53.2523 55.8706 53.2823V53.2566C55.8653 53.2197 55.8661 53.228 55.8706 53.2566L55.8759 53.2913C55.8864 53.347 55.8962 53.4035 55.9083 53.4593C55.9504 53.6531 56.0047 53.844 56.071 54.031C56.1917 54.45 56.4186 54.8307 56.7298 55.1362C57.041 55.4417 57.4259 55.6617 57.847 55.7747H57.8538C57.8644 55.7747 57.8757 55.7747 57.8862 55.7792C57.9653 55.7934 58.0454 55.8022 58.1257 55.8055C58.2166 55.8104 58.3077 55.8089 58.3984 55.801H58.4632C58.7945 55.7603 59.1125 55.6455 59.3934 55.465C59.6743 55.2845 59.9109 55.043 60.0856 54.7586C60.455 54.0118 60.5561 53.1607 60.3718 52.3483C60.207 51.2379 59.9159 50.15 59.5041 49.1057C59.476 49.0344 59.4466 48.9621 59.416 48.8887C59.3663 48.7712 59.31 48.6565 59.2473 48.5453C59.1823 48.4244 59.1031 48.3116 59.0115 48.2093C58.9774 48.1727 58.9401 48.1392 58.9 48.1092C58.7333 47.9881 58.5321 47.9237 58.3261 47.9254C57.9243 47.8927 57.521 47.9667 57.1571 48.14C55.9776 48.7426 55.6808 50.3342 55.5497 51.5205C55.5301 51.6998 55.3238 51.8971 55.1392 51.7562C55.0589 51.6888 54.9634 51.6418 54.8609 51.6195C54.7584 51.5972 54.652 51.6002 54.551 51.6282C54.4391 51.6714 54.3419 51.7456 54.2708 51.8421C54.1739 51.9658 54.1243 52.1198 54.1307 52.2767C54.146 52.4462 54.2175 52.6057 54.3337 52.73C54.4499 52.8543 54.6043 52.9363 54.7724 52.9629ZM43.1638 72.2392C43.1322 72.4396 43.1028 72.6407 43.0772 72.8358C43.0116 73.3172 42.9658 73.8012 42.9401 74.2864C42.8919 74.6774 42.9175 75.0739 43.0155 75.4554C43.0102 75.4404 43.0109 75.4554 43.0283 75.481C43.0374 75.4787 43.0462 75.4754 43.0546 75.4713C43.1 75.4339 43.1414 75.392 43.1781 75.3462C43.2437 75.2562 43.2995 75.1595 43.3446 75.0577C43.4828 74.757 43.5849 74.441 43.6489 74.1162C43.668 74.0538 43.7087 74.0003 43.7638 73.9652C43.8188 73.9302 43.8846 73.9159 43.9492 73.925C44.0138 73.934 44.0731 73.9659 44.1164 74.0147C44.1596 74.0636 44.184 74.1263 44.1852 74.1915C44.169 74.4232 44.1765 74.6559 44.2078 74.886C44.2238 75.0465 44.2676 75.203 44.3373 75.3485C44.3599 75.3974 44.3943 75.4398 44.4375 75.472C44.4481 75.4802 44.4602 75.4861 44.4732 75.4895C44.4861 75.4928 44.4996 75.4936 44.5128 75.4916C44.5518 75.4824 44.5867 75.4607 44.6123 75.4298C44.6636 75.3785 44.707 75.3199 44.7411 75.2558C44.8289 75.1004 44.8992 74.9357 44.9505 74.7647C45.0186 74.5532 45.0722 74.3373 45.1109 74.1185C45.1644 73.8051 45.6419 73.8925 45.6464 74.1938C45.6344 74.5739 45.7049 74.9522 45.8528 75.3025C45.8819 75.3763 45.9319 75.4399 45.9967 75.4856C45.9861 75.4795 45.9967 75.4856 46.008 75.4931L46.0155 75.4833C46.063 75.4343 46.0298 75.4728 46.0479 75.4464C46.0907 75.3838 46.1288 75.3181 46.1616 75.2498C46.3406 74.8454 46.4757 74.4229 46.5646 73.9897C46.7047 73.415 46.8199 72.832 46.9149 72.2475H43.1638V72.2392ZM45.9922 75.5021L45.9959 75.4954H45.9854C45.9914 75.4991 45.9922 75.5006 45.9922 75.5021ZM46.0313 75.4856H46.0155C46.0215 75.4923 46.0328 75.4939 46.0313 75.4856ZM70.0491 64.5142C69.7545 64.6 69.4768 64.7358 69.2281 64.9157C68.966 65.0942 68.6843 64.6995 68.8975 64.4871C69.0245 64.3609 69.1423 64.2257 69.25 64.0826C69.3494 63.9508 69.6221 63.6089 69.5633 63.4454C69.5046 63.282 69.1385 63.4635 69.0233 63.5207C68.8983 63.5867 68.7775 63.6604 68.6617 63.7414L68.548 63.8243C68.5337 63.8348 68.5344 63.8341 68.5397 63.8295C68.4877 63.8795 68.4179 63.9067 68.3458 63.9052C68.2737 63.9037 68.2051 63.8737 68.1552 63.8216C68.1052 63.7696 68.078 63.6999 68.0795 63.6277C68.081 63.5556 68.111 63.4871 68.1631 63.4371C68.409 63.1892 68.6096 62.9001 68.7559 62.583C68.7822 62.5182 68.783 62.4414 68.8048 62.3834C68.7618 62.3938 68.7201 62.4093 68.6805 62.4293C68.3558 62.5998 68.0524 62.8081 67.7767 63.05L67.7194 63.0989C67.7625 63.4548 67.7817 63.8131 67.7767 64.1715C67.7767 64.2438 67.748 64.3132 67.6968 64.3643C67.6457 64.4154 67.5763 64.4442 67.504 64.4442C67.4317 64.4442 67.3624 64.4154 67.3112 64.3643C67.2601 64.3132 67.2314 64.2438 67.2314 64.1715V64.1444C67.2314 63.9425 67.2268 63.7392 67.2133 63.5373C67.2133 63.5079 67.2133 63.4785 67.208 63.4492C67.2015 63.3652 67.1935 63.2813 67.1839 63.1976V63.1758L67.1771 63.1238L67.1719 63.0869C67.1658 63.0466 67.159 63.0064 67.1515 62.9664C67.1462 62.9385 67.1387 62.9114 67.1327 62.8843C67.1206 62.827 67.1093 62.769 67.0935 62.7125C67.0819 62.6731 67.0693 62.6339 67.0559 62.595L67.0476 62.5694L67.04 62.5559C67.0252 62.5276 67.0096 62.4997 66.9933 62.4723C66.988 62.4686 66.9836 62.4637 66.9805 62.4579L66.9527 62.4866C66.9414 62.4994 66.921 62.5393 66.9384 62.5024C66.9557 62.4655 66.9331 62.5114 66.9263 62.5227C66.9046 62.556 66.8847 62.5904 66.8668 62.6259L66.8404 62.6794L66.8344 62.6937C66.805 62.7735 66.7749 62.8519 66.7508 62.9332C66.7144 63.0573 66.6838 63.183 66.6589 63.3098C66.6476 63.3648 66.6356 63.4206 66.625 63.4763C66.6104 63.5569 66.5974 63.6377 66.5859 63.7188L66.5806 63.755V63.7776L66.57 63.8657L66.558 63.9764C66.558 64.0013 66.5527 64.0261 66.5505 64.0517C66.5505 64.0608 66.5504 64.0691 66.5459 64.0781L66.6356 64.0871L68.4855 66.7091C68.5721 66.624 68.6595 66.5396 68.7446 66.4522C69.3288 65.9231 69.8359 65.3146 70.251 64.6445C70.2756 64.6029 70.2944 64.558 70.3067 64.5112L70.3113 64.4961C70.304 64.4933 70.2964 64.4913 70.2887 64.4901C70.208 64.482 70.1265 64.4902 70.0491 64.5142Z" fill="#FFCEB6"/>
<path id="Vector_9" d="M66.9909 62.4719L66.9832 62.4618L66.994 62.4742L66.9909 62.4719Z" fill="#FFCEB6"/>
<path id="Vector_10" d="M66.0879 76.9123C65.9986 76.0465 65.8241 75.1918 65.5667 74.3604C65.4628 74.0267 64.9355 74.169 65.0395 74.5057C65.1979 75.0116 65.3237 75.5271 65.4161 76.0491C65.5382 76.7431 65.6027 77.4459 65.6089 78.1505C65.6264 79.8103 65.3143 81.457 64.6907 82.9952C64.4364 83.7061 64.0072 84.3415 63.4427 84.8429C63.1707 85.0643 63.5586 85.4454 63.8283 85.2285C64.3575 84.7684 64.7733 84.1923 65.0432 83.5451C65.3517 82.8613 65.5965 82.1505 65.7746 81.4218C66.1374 79.9478 66.2433 78.4223 66.0879 76.9123ZM62.5689 84.1454L62.5787 84.1582C62.5667 84.1582 62.5441 84.1107 62.5373 84.1002C62.51 84.0606 62.4849 84.0196 62.462 83.9774C62.4505 83.9566 62.4394 83.9355 62.4288 83.9142C62.4243 83.9051 62.3949 83.8577 62.3987 83.8494C62.4145 83.887 62.4168 83.8923 62.4062 83.8644L62.3934 83.8313C62.3859 83.8117 62.3791 83.7919 62.3731 83.7718C62.3589 83.7295 62.3468 83.6865 62.3369 83.643C62.3314 83.6196 62.3266 83.596 62.3226 83.5722V83.5526C62.3225 83.5301 62.32 83.5076 62.3151 83.4856V83.2709C62.3149 83.1987 62.2861 83.1294 62.235 83.0783C62.1839 83.0272 62.1147 82.9984 62.0424 82.9982C61.9706 82.9998 61.9021 83.029 61.8513 83.0798C61.8005 83.1306 61.7713 83.1991 61.7698 83.2709C61.7472 83.7407 61.9048 84.2014 62.2104 84.5589C62.2617 84.6097 62.331 84.6382 62.4032 84.6382C62.4754 84.6382 62.5447 84.6097 62.596 84.5589C62.6458 84.507 62.6735 84.4379 62.6735 84.3661C62.6735 84.2942 62.6458 84.2251 62.596 84.1733L62.5689 84.1454Z" fill="#B26EE6"/>
<path id="Vector_11" d="M67.6431 75.1706C67.444 74.149 67.1471 73.1489 66.7566 72.1841C66.627 71.8625 66.099 72.0033 66.2293 72.3287C67.5593 75.6501 67.7737 79.3137 66.8402 82.7675C66.5787 83.7371 66.2256 84.6796 65.7857 85.5823C65.635 85.8964 66.1028 86.1736 66.2564 85.8572C67.8621 82.5387 68.3486 78.789 67.6431 75.1706ZM62.174 86.9848C61.3255 86.3543 60.6574 85.5119 60.2368 84.542C59.8162 83.5722 59.6577 82.5088 59.7773 81.4585C59.8179 81.1105 59.2719 81.1135 59.2319 81.4585C59.1118 82.6041 59.2949 83.7611 59.7629 84.8137C60.2309 85.8662 60.9673 86.7773 61.8983 87.4556C62.1838 87.6619 62.4565 87.1889 62.174 86.9848Z" fill="#B26EE6"/>
<path id="Vector_12" d="M70.3909 71.0663C70.3708 70.9972 70.3246 70.9386 70.262 70.903C70.1994 70.8674 70.1254 70.8576 70.0557 70.8758C69.9603 70.9065 69.8641 70.9347 69.7672 70.9601L69.6843 70.4773C69.6648 70.4078 69.6186 70.3488 69.5559 70.3132C69.4931 70.2775 69.4189 70.268 69.3492 70.2868C69.2804 70.3076 69.2222 70.3541 69.1867 70.4167C69.1513 70.4792 69.1412 70.5529 69.1586 70.6227L69.2339 71.0678L69.1834 71.0769L69.1526 71.0807L69.0855 71.0882C69.0328 71.0935 68.9801 71.0987 68.9266 71.1025C68.8567 71.1062 68.7908 71.1365 68.7426 71.1873C68.6944 71.2381 68.6675 71.3055 68.6675 71.3755C68.6675 71.4456 68.6944 71.5129 68.7426 71.5637C68.7908 71.6145 68.8567 71.6449 68.9266 71.6486C69.0607 71.638 69.1932 71.6215 69.3258 71.6019L69.3808 71.9243C69.4005 71.9938 69.4468 72.0527 69.5097 72.0883C69.5726 72.1238 69.647 72.1331 69.7167 72.1141C69.7854 72.0932 69.8434 72.0468 69.8788 71.9845C69.9143 71.9221 69.9245 71.8485 69.9073 71.7789L69.8591 71.4979C69.9736 71.4693 70.085 71.4384 70.1995 71.4023C70.2688 71.3821 70.3275 71.3357 70.3632 71.273C70.3989 71.2103 70.4088 71.1362 70.3909 71.0663ZM58.4057 86.1126L58.2663 86.1352V86.1126C58.2553 86.016 58.248 85.919 58.2445 85.8218C58.2408 85.7519 58.2104 85.686 58.1596 85.6378C58.1088 85.5896 58.0415 85.5628 57.9714 85.5628C57.9014 85.5628 57.8341 85.5896 57.7833 85.6378C57.7324 85.686 57.7021 85.7519 57.6984 85.8218C57.7044 85.9557 57.7172 86.0892 57.7368 86.2218L57.2947 86.2971C57.225 86.3163 57.1657 86.3624 57.13 86.4253C57.0943 86.4881 57.0849 86.5626 57.1041 86.6323C57.125 86.7009 57.1714 86.759 57.2337 86.7944C57.2961 86.8299 57.3697 86.84 57.4393 86.8229L57.8521 86.7558C57.8777 86.8425 57.9063 86.9283 57.9387 87.0127C57.9602 87.08 58.0048 87.1376 58.0645 87.1754C58.1113 87.2028 58.1653 87.2157 58.2195 87.2123C58.2736 87.2089 58.3256 87.1894 58.3686 87.1564C58.4117 87.1233 58.4439 87.0781 58.4611 87.0266C58.4783 86.9751 58.4797 86.9196 58.4652 86.8673C58.4401 86.8012 58.4169 86.7344 58.3959 86.667L58.5541 86.6413C58.6238 86.6222 58.683 86.5761 58.7187 86.5132C58.7545 86.4504 58.7638 86.3759 58.7446 86.3062C58.7244 86.2362 58.6777 86.1768 58.6144 86.1406C58.5511 86.1045 58.4763 86.0944 58.4057 86.1126ZM69.5314 85.501H69.5028L69.4139 85.5115C69.3638 85.5175 69.3136 85.5227 69.2633 85.5273H69.2558C69.2384 85.3368 69.2256 85.1424 69.2226 84.9353C69.2226 84.863 69.1939 84.7936 69.1428 84.7425C69.0916 84.6914 69.0223 84.6626 68.9499 84.6626C68.8776 84.6626 68.8083 84.6914 68.7571 84.7425C68.706 84.7936 68.6773 84.863 68.6773 84.9353C68.6773 85.144 68.6946 85.3518 68.7134 85.5597C68.5779 85.5597 68.443 85.565 68.3075 85.5597C68.2351 85.5597 68.1658 85.5885 68.1147 85.6396C68.0635 85.6907 68.0348 85.7601 68.0348 85.8324C68.0348 85.9047 68.0635 85.9741 68.1147 86.0252C68.1658 86.0763 68.2351 86.1051 68.3075 86.1051C68.4649 86.1051 68.6231 86.1051 68.7805 86.099C68.8038 86.2497 68.8302 86.395 68.8611 86.5412C68.879 86.6048 68.9195 86.6597 68.9749 86.6957C69.0303 86.7318 69.0969 86.7464 69.1624 86.737C69.2277 86.7289 69.2879 86.6972 69.3314 86.6478C69.375 86.5984 69.399 86.5347 69.3989 86.4689L69.3861 86.3566C69.3827 86.327 69.3756 86.2979 69.365 86.27C69.3514 86.2007 69.3371 86.1307 69.3258 86.0621C69.4433 86.0501 69.5616 86.0365 69.6798 86.0199C69.7483 86.0012 69.8067 85.9563 69.8425 85.8949C69.8793 85.8313 69.8893 85.7557 69.8704 85.6848C69.8478 85.6168 69.8002 85.5599 69.7373 85.5258C69.6743 85.4917 69.6007 85.4828 69.5314 85.501Z" fill="#FFD35C"/>
<path id="Vector_13" d="M58.8844 51.586C58.9489 51.586 59.012 51.5669 59.0656 51.531C59.1193 51.4952 59.1611 51.4443 59.1858 51.3847C59.2104 51.3251 59.2169 51.2595 59.2043 51.1962C59.1917 51.133 59.1607 51.0749 59.1151 51.0292C59.0694 50.9836 59.0113 50.9526 58.9481 50.94C58.8848 50.9274 58.8192 50.9339 58.7596 50.9585C58.7 50.9832 58.6491 51.025 58.6133 51.0787C58.5774 51.1323 58.5583 51.1953 58.5583 51.2599C58.5583 51.3464 58.5927 51.4293 58.6538 51.4905C58.715 51.5516 58.7979 51.586 58.8844 51.586ZM58.0777 50.4923C58.115 50.4474 58.1561 50.4058 58.2005 50.368C58.2407 50.3389 58.2836 50.3137 58.3286 50.2927C58.3509 50.2844 58.3738 50.2778 58.3971 50.2731H58.4205C58.4343 50.2696 58.4477 50.2645 58.4604 50.2581C58.4942 50.2477 58.5244 50.2281 58.5478 50.2016C58.5731 50.1763 58.5932 50.1462 58.6069 50.1131C58.6206 50.08 58.6276 50.0446 58.6276 50.0088C58.6276 49.9729 58.6206 49.9375 58.6069 49.9044C58.5932 49.8713 58.5731 49.8413 58.5478 49.8159C58.5226 49.7903 58.4926 49.7701 58.4595 49.7564C58.4263 49.7427 58.3908 49.7358 58.3549 49.7361C58.2858 49.7427 58.2179 49.7587 58.1531 49.7836C58.0852 49.8096 58.0199 49.8419 57.958 49.88C57.8851 49.9274 57.8172 49.9822 57.7554 50.0434C57.6738 50.127 57.603 50.2203 57.5445 50.3213C57.5087 50.3853 57.4989 50.4606 57.5174 50.5315C57.5316 50.5833 57.5608 50.6297 57.6013 50.665C57.6419 50.7002 57.6919 50.7227 57.7451 50.7296C57.7984 50.7365 57.8525 50.7276 57.9007 50.7038C57.9489 50.6801 57.989 50.6427 58.016 50.5963C58.0363 50.5579 58.0597 50.5247 58.083 50.4923H58.0777Z" fill="black"/>
<path id="Vector_14" d="M44.5537 94.9877L44.5055 95.179L43.3719 99.6712C43.3719 99.6712 46.3095 100.631 48.1692 99.8219L50.0997 95.1632L50.175 94.9885L50.3256 94.6171L52.1981 90.0978L52.4241 89.5435L53.3197 87.3832L57.0255 78.4403C57.0255 78.4403 60.1318 79.1001 64.1253 83.8921C65.0858 82.1301 65.5934 80.1571 65.6024 78.1503C65.5961 77.4457 65.5316 76.7428 65.4096 76.0489L61.0733 72.9682C61.0902 72.9408 61.1017 72.9103 61.1072 72.8786C61.1622 72.5773 61.2089 72.276 61.251 71.9747C61.4347 70.6726 61.5103 69.3575 61.477 68.0429C61.4548 66.604 61.2989 65.1702 61.0115 63.7601C60.8271 62.9535 60.6008 62.157 60.3336 61.3739C60.2523 61.1264 60.1687 60.8798 60.0828 60.6343C59.837 59.9284 59.5605 59.2335 59.2543 58.5516L59.2279 58.4944C59.1714 58.3727 59.1134 58.2516 59.0539 58.1313L59.02 58.0643C58.9522 57.9302 58.8814 57.7969 58.8069 57.6666C58.7418 57.5528 58.6732 57.441 58.6012 57.3314C58.5626 57.2737 58.5226 57.2157 58.4815 57.1574C58.3551 56.9693 58.1983 56.8036 58.0175 56.6671L58.1817 56.3372C58.6118 56.3431 59.0373 56.2479 59.424 56.0593C59.8106 55.8706 60.1474 55.5938 60.4074 55.251C60.6867 54.8009 60.8738 54.2998 60.9578 53.7768C61.0419 53.2538 61.0212 52.7193 60.897 52.2043C60.7322 51.0927 60.4403 50.0037 60.0271 48.9587C59.9676 48.808 59.9035 48.6574 59.832 48.5068C60.2436 48.1682 60.601 47.7686 60.8918 47.3219C60.9753 47.1448 61.0016 46.946 60.9671 46.7533C60.945 46.6615 60.9046 46.5752 60.8483 46.4994C60.792 46.4237 60.721 46.3602 60.6394 46.3126C60.5332 46.2465 60.417 46.1982 60.2952 46.1695C60.3792 45.9762 60.4414 45.7741 60.4805 45.5669C60.5066 45.4092 60.4945 45.2474 60.4451 45.0953C60.3957 44.9431 60.3106 44.8051 60.1968 44.6927C60.083 44.5803 59.9439 44.4968 59.7911 44.4494C59.6384 44.4019 59.4765 44.3917 59.319 44.4198C58.8054 44.4891 58.3193 44.6932 57.9102 45.0114C57.5011 45.3296 57.1836 45.7505 56.9901 46.2313C56.8395 45.6882 56.4681 45.6227 56.4681 45.6227C55.4889 45.2092 52.9664 47.3626 53.0786 49.2547C53.1488 50.043 53.4442 50.7945 53.9298 51.4194C53.7188 51.6266 53.5951 51.9066 53.5841 52.202C53.5818 52.3968 53.6248 52.5895 53.7096 52.7649C53.7944 52.9403 53.9188 53.0937 54.0729 53.2128C54.2102 53.3206 54.3645 53.4048 54.5293 53.4622C54.1392 54.2613 53.758 55.0695 53.4417 55.8981C53.3955 56.0112 53.355 56.1266 53.3204 56.2438C53.2986 56.3185 53.287 56.3957 53.2858 56.4735C53.2911 56.5993 53.3246 56.7224 53.3837 56.8336C53.4382 56.9391 53.5014 57.0399 53.5728 57.1348C53.6255 57.2102 53.6827 57.2787 53.7415 57.348C54.1905 57.8825 54.7968 58.2615 55.4739 58.4311C55.9396 58.5437 56.4271 58.528 56.8847 58.3859C57.0129 58.3368 57.1295 58.2613 57.2267 58.1643C57.3239 58.0672 57.3996 57.9508 57.4488 57.8225L57.6853 57.3472L57.7712 57.1687C57.9012 57.2906 58.0158 57.428 58.1124 57.5777L58.1222 57.5913L58.1327 57.6079C58.3381 57.9264 58.521 58.2589 58.6803 58.6029C58.7699 58.7889 58.8536 58.9795 58.9357 59.167C59.2324 59.8524 59.4893 60.5559 59.7273 61.2625C60.0012 62.0583 60.2389 62.866 60.4398 63.6833C60.711 64.9152 60.8693 66.1692 60.9128 67.4298C60.9828 68.7742 60.9379 70.122 60.7788 71.4588C60.7286 71.8851 60.6645 72.3099 60.5867 72.7332C60.5833 72.7582 60.5833 72.7835 60.5867 72.8085C60.5878 72.8242 60.5901 72.8398 60.5935 72.8552C58.7075 73.1896 56.7957 73.3562 54.8803 73.3531C53.2786 73.3602 51.6781 73.2596 50.0899 73.0518L48.6987 78.5661L48.5624 79.1054L48.3959 79.7652L47.5794 83.004L44.6426 94.6322L44.5537 94.9877ZM57.6055 56.2777L57.4443 56.6016L57.4096 56.6716L57.201 57.0904L57.1935 57.1062C57.0993 57.2945 57.0082 57.4828 56.911 57.6726C56.7649 57.9558 56.3461 57.9619 56.0599 57.9581C55.6997 57.9394 55.3471 57.8471 55.0239 57.687C54.7008 57.5269 54.4137 57.3023 54.1806 57.0271C54.1104 56.9496 54.046 56.867 53.9878 56.7801C53.978 56.7658 53.9674 56.753 53.9584 56.7387C53.9071 56.6632 53.8658 56.5814 53.8356 56.4954L53.8281 56.4758C53.8286 56.4698 53.8286 56.4637 53.8281 56.4577V56.4705C53.8281 56.4705 53.8281 56.46 53.8379 56.4366C53.8605 56.3613 53.8838 56.286 53.9132 56.2069L53.9253 56.1677C54.2614 55.2813 54.6482 54.4149 55.0837 53.5729C55.1826 53.5782 55.2816 53.5782 55.3805 53.5729C55.4008 53.6776 55.4257 53.7823 55.4558 53.887C55.6218 54.5442 55.9613 55.1449 56.4387 55.6261C56.7672 55.9411 57.1744 56.1617 57.6175 56.2649L57.6055 56.2777ZM57.8555 55.7753H57.8465C57.4249 55.6626 57.0396 55.4429 56.728 55.1373C56.4164 54.8318 56.1891 54.4509 56.0682 54.0316C56.0019 53.8446 55.9476 53.6537 55.9055 53.4599C55.8934 53.4042 55.8836 53.3477 55.8731 53.2919L55.8678 53.2573V53.2829C55.8637 53.253 55.8562 53.2237 55.8452 53.1955C55.8324 53.1602 55.8141 53.1272 55.791 53.0976C55.7692 53.0668 55.7395 53.0424 55.705 53.0271C55.6706 53.0117 55.6326 53.0059 55.5951 53.0102C55.5077 53.0212 55.4197 53.0272 55.3315 53.0283C55.2364 53.03 55.1413 53.0257 55.0468 53.0155C54.9676 53.0073 54.8891 52.9937 54.8118 52.9748L54.7696 52.9635C54.6011 52.9374 54.4462 52.8556 54.3295 52.7313C54.2128 52.6069 54.1411 52.4472 54.1256 52.2773C54.1192 52.1204 54.1689 51.9664 54.2657 51.8427C54.3369 51.7462 54.4341 51.672 54.5459 51.6288C54.647 51.6008 54.7534 51.5979 54.8559 51.6202C54.9584 51.6425 55.0539 51.6894 55.1342 51.7569C55.318 51.8962 55.5251 51.7004 55.5447 51.5211C55.6757 50.3348 55.9725 48.7463 57.152 48.1407C57.516 47.9674 57.9193 47.8933 58.321 47.926C58.5271 47.9243 58.7282 47.9887 58.895 48.1098C58.935 48.1399 58.9723 48.1734 59.0065 48.21C59.0981 48.3122 59.1772 48.425 59.2422 48.5459C59.3049 48.6571 59.3612 48.7718 59.4109 48.8894C59.4421 48.9627 59.4714 49.035 59.4991 49.1063C59.9123 50.1502 60.2049 51.2379 60.3713 52.3482C60.3976 52.5319 60.4195 52.7202 60.4331 52.9101C60.4142 52.9221 60.3961 52.9349 60.3773 52.9462C60.3585 52.9575 60.3208 52.9778 60.2914 52.9929L60.2425 53.017L60.2033 53.0351L60.1679 53.0494L60.0926 53.0758C60.0474 53.0908 60.0015 53.1044 59.9548 53.1157C59.9081 53.127 59.8531 53.1398 59.8041 53.1488L59.7536 53.1556C59.7295 53.1556 59.7047 53.1609 59.6783 53.1624C59.5405 53.1734 59.4019 53.1702 59.2648 53.1526C58.9463 53.1006 58.64 52.9908 58.361 52.8287C58.1998 52.7391 57.9218 52.8475 57.9505 53.0637C57.9882 53.4735 58.1263 53.8677 58.3527 54.2114C58.5791 54.5551 58.8866 54.8376 59.2482 55.0341C59.3111 55.0686 59.3848 55.0777 59.4542 55.0595C59.5235 55.0412 59.5833 54.9971 59.6211 54.9362C59.6579 54.8732 59.6683 54.7983 59.6499 54.7277C59.6316 54.6571 59.586 54.5966 59.5232 54.5596C59.1275 54.371 58.8204 54.0361 58.6668 53.6256L58.6622 53.6143L58.657 53.6008L58.6344 53.5428C59.0955 53.7165 59.5973 53.7521 60.0783 53.6452C60.2023 53.6145 60.3235 53.5734 60.4406 53.5224C60.4257 53.9567 60.3041 54.3807 60.0866 54.7569C59.9115 55.0402 59.675 55.2804 59.3945 55.4599C59.1141 55.6395 58.7969 55.7537 58.4664 55.7941H58.4016C58.311 55.802 58.2198 55.8035 58.129 55.7986C58.0486 55.7953 57.9686 55.7865 57.8894 55.7723C57.8789 55.7773 57.8668 55.7784 57.8555 55.7753Z" fill="black"/>
<path id="Vector_15" d="M41.5947 102.867C41.6121 102.917 41.6453 102.96 41.6892 102.99C41.7332 103.02 41.7856 103.035 41.8387 103.032H50.3245C50.358 103.032 50.3912 103.026 50.4222 103.013C50.4531 103 50.4811 102.981 50.5045 102.957C50.5411 102.925 50.5683 102.884 50.5832 102.837C50.5981 102.791 50.6001 102.741 50.589 102.694C50.578 102.647 50.5542 102.603 50.5204 102.568C50.4865 102.533 50.4438 102.508 50.3968 102.496C50.4419 102.504 50.4073 102.501 50.3817 102.481C50.3408 102.446 50.3018 102.408 50.2649 102.369C50.1896 102.293 50.1143 102.207 50.039 102.128C49.8177 101.914 49.5757 101.723 49.3166 101.557C48.6912 101.119 48.0064 100.772 47.283 100.528C46.6123 100.269 45.8902 100.173 45.1751 100.245C44.4601 100.318 43.7723 100.558 43.1674 100.947C42.5241 101.376 41.9904 101.949 41.609 102.622C41.5892 102.655 41.5771 102.692 41.5737 102.73C41.5704 102.769 41.5757 102.807 41.5894 102.843C41.5871 102.851 41.5909 102.859 41.5947 102.867ZM55.8704 53.2567C55.8651 53.2198 55.8659 53.2281 55.8704 53.2567V53.2567ZM43.0454 76.0257C43.176 76.0065 43.3003 75.9572 43.4087 75.8818C43.517 75.8064 43.6064 75.7069 43.6698 75.5911C43.7059 75.5376 43.7398 75.4819 43.7715 75.4246C43.8241 75.5682 43.9045 75.7 44.008 75.8125C44.1238 75.9365 44.2823 76.0118 44.4515 76.0232C44.6207 76.0347 44.7879 75.9815 44.9194 75.8743C45.0818 75.7374 45.2107 75.565 45.296 75.3704L45.3005 75.3847C45.3382 75.5189 45.405 75.6431 45.4962 75.7485C45.5873 75.8539 45.7005 75.938 45.8277 75.9948C45.9229 76.0303 46.0263 76.0379 46.1256 76.0165C46.2249 75.9952 46.316 75.9458 46.3881 75.8743C46.6693 75.5275 46.8605 75.1166 46.9448 74.6782C47.1037 74.1351 47.222 73.5793 47.3274 73.0211C47.3892 72.6942 47.4472 72.3658 47.4961 72.0367C47.5017 71.9958 47.5004 71.9543 47.4924 71.9139C47.4885 71.8879 47.4812 71.8626 47.4705 71.8386L47.463 71.8235C47.4499 71.7964 47.4313 71.7722 47.4085 71.7525C47.3857 71.7329 47.3592 71.718 47.3304 71.709C47.321 71.7073 47.3114 71.7063 47.3018 71.706C47.2892 71.7025 47.2764 71.7003 47.2634 71.6992H42.9331C42.8735 71.6995 42.8156 71.7192 42.7681 71.7553C42.7207 71.7915 42.6863 71.8421 42.6703 71.8996L42.659 71.9749C42.5156 72.7833 42.4258 73.6003 42.3901 74.4206C42.3277 74.8743 42.3848 75.3365 42.5558 75.7613C42.6034 75.8477 42.6749 75.9185 42.7617 75.9654C42.8486 76.0123 42.947 76.0332 43.0454 76.0257ZM45.992 75.4984L45.9852 75.4939H45.9957L45.992 75.4984ZM46.0153 75.4849C46.0236 75.4849 46.0304 75.4796 46.0311 75.4849C46.0319 75.4902 46.0213 75.4924 46.0153 75.4887V75.4849ZM42.9399 74.2797C42.9625 73.7947 43.0152 73.3104 43.077 72.8291C43.1026 72.634 43.132 72.4329 43.1636 72.2325H46.9124C46.8175 72.817 46.7022 73.4 46.5621 73.9747C46.4733 74.4079 46.3382 74.8304 46.1592 75.2348C46.1263 75.3031 46.0883 75.3689 46.0454 75.4314C46.0274 75.4578 46.0605 75.4194 46.013 75.4683L46.0055 75.4781C45.9935 75.4721 45.9837 75.4646 45.9942 75.4706C45.9294 75.4249 45.8794 75.3613 45.8503 75.2875C45.7024 74.9372 45.632 74.559 45.644 74.1788C45.6394 73.8836 45.1619 73.7924 45.1084 74.1035C45.0697 74.3223 45.0161 74.5382 44.948 74.7497C44.8967 74.9207 44.8265 75.0855 44.7386 75.2408C44.7045 75.3049 44.6611 75.3635 44.6098 75.4148C44.5843 75.4457 44.5494 75.4674 44.5104 75.4766C44.4971 75.4786 44.4837 75.4779 44.4707 75.4745C44.4578 75.4711 44.4456 75.4652 44.4351 75.457C44.3919 75.4249 44.3574 75.3824 44.3349 75.3335C44.2652 75.188 44.2213 75.0315 44.2053 74.871C44.1741 74.6409 44.1665 74.4082 44.1827 74.1766C44.1816 74.1113 44.1571 74.0486 44.1139 73.9997C44.0706 73.9509 44.0114 73.919 43.9467 73.91C43.8821 73.9009 43.8164 73.9152 43.7613 73.9502C43.7063 73.9853 43.6655 74.0388 43.6464 74.1012C43.5825 74.4273 43.4801 74.7446 43.3414 75.0465C43.2963 75.1483 43.2405 75.245 43.1749 75.335C43.1381 75.3808 43.0967 75.4227 43.0514 75.46C43.043 75.4642 43.0341 75.4675 43.025 75.4698C43.0077 75.442 43.007 75.4292 43.0122 75.4442C42.9166 75.0661 42.8921 74.6736 42.9399 74.2865V74.2797ZM66.0365 64.1919L66.0554 64.2183L68.2081 67.2703C68.2358 67.3097 68.2731 67.3414 68.3165 67.3622C68.3661 67.3935 68.4249 67.4069 68.4831 67.4002C68.5413 67.3935 68.5955 67.3671 68.6366 67.3253C69.158 66.8342 69.6502 66.3131 70.1107 65.7646C70.4055 65.4552 70.643 65.0959 70.8119 64.7034C70.846 64.6119 70.8559 64.5132 70.8407 64.4169C70.8255 64.3205 70.7856 64.2296 70.7251 64.1531C70.6645 64.0767 70.5852 64.0171 70.4948 63.9802C70.4045 63.9433 70.3062 63.9304 70.2094 63.9426C70.1362 63.9443 70.0634 63.9524 69.9917 63.9667C70.0677 63.8443 70.1111 63.7045 70.118 63.5605C70.1248 63.4166 70.0949 63.2733 70.0308 63.1442C69.9516 63.0107 69.8281 62.9094 69.6817 62.8577C69.5354 62.8061 69.3756 62.8075 69.2302 62.8617C69.3884 62.4927 69.4335 61.8713 68.8912 61.8359C68.517 61.8742 68.1652 62.0327 67.8887 62.2878C67.7908 62.3586 67.6951 62.4309 67.5995 62.5055C67.5782 62.4373 67.553 62.3704 67.5241 62.3051C67.4905 62.2199 67.4398 62.1424 67.375 62.0777C67.3102 62.0129 67.2328 61.9621 67.1475 61.9285C67.0528 61.9006 66.9523 61.8988 66.8566 61.9232C66.7609 61.9476 66.6736 61.9973 66.6037 62.0671C66.4666 62.2096 66.3636 62.3814 66.3024 62.5695C66.2328 62.7528 66.1784 62.9415 66.1397 63.1336C66.0781 63.423 66.0341 63.7157 66.0079 64.0104V64.0503C66.0053 64.0985 66.0183 64.1463 66.0448 64.1866L66.0365 64.1919ZM66.5419 64.0548C66.5419 64.03 66.5472 64.0051 66.5495 63.9795C66.5495 63.9426 66.557 63.9042 66.5615 63.8688L66.5721 63.7807V63.7581L66.5841 63.7219C66.5954 63.6406 66.609 63.56 66.6233 63.4794C66.6338 63.4236 66.6459 63.3679 66.6572 63.3129C66.6829 63.1862 66.7136 63.0606 66.7491 62.9363C66.7732 62.855 66.8033 62.7766 66.8327 62.6968L66.8387 62.6825L66.8651 62.629C66.883 62.5935 66.9029 62.5591 66.9246 62.5258C66.9314 62.5145 66.957 62.4625 66.9366 62.5055C66.9163 62.5484 66.9366 62.5055 66.9509 62.4896L66.9788 62.461L66.9863 62.4708L66.9946 62.4783L66.9878 62.4738C67.0044 62.5017 67.0195 62.5288 67.0345 62.5574L67.0421 62.571L67.0504 62.5966C67.0647 62.635 67.0767 62.6719 67.088 62.7141C67.1038 62.7706 67.1151 62.8286 67.1272 62.8858C67.1332 62.913 67.1408 62.9401 67.146 62.9679C67.1536 63.0079 67.1603 63.0485 67.1664 63.0885L67.1716 63.1254L67.1784 63.1773V63.1992C67.1882 63.2828 67.1957 63.3664 67.2025 63.4508C67.2212 63.682 67.2289 63.914 67.2259 64.146V64.1731C67.2259 64.2454 67.2546 64.3148 67.3057 64.3659C67.3569 64.417 67.4262 64.4458 67.4985 64.4458C67.5708 64.4458 67.6402 64.417 67.6913 64.3659C67.7425 64.3148 67.7712 64.2454 67.7712 64.1731C67.7712 63.9471 67.7659 63.7151 67.7501 63.4869C67.7413 63.3578 67.7293 63.229 67.714 63.1005L67.7712 63.0515C68.0469 62.8097 68.3503 62.6013 68.6751 62.4309C68.7146 62.4109 68.7563 62.3954 68.7993 62.385C68.7775 62.4429 68.7767 62.5198 68.7504 62.5846C68.6041 62.9017 68.4035 63.1908 68.1576 63.4387C68.1056 63.4886 68.0755 63.5572 68.074 63.6293C68.0725 63.7014 68.0997 63.7712 68.1497 63.8232C68.1996 63.8753 68.2682 63.9053 68.3403 63.9068C68.4124 63.9083 68.4822 63.8811 68.5342 63.8311C68.5745 63.8013 68.6152 63.7719 68.6562 63.743C68.772 63.662 68.8928 63.5883 69.0178 63.5223C69.133 63.4628 69.5013 63.285 69.5578 63.447C69.6143 63.6089 69.3439 63.9524 69.2445 64.0842C69.1368 64.2273 69.019 64.3625 68.892 64.4887C68.6788 64.7011 68.9605 65.0958 69.2226 64.9173C69.4728 64.7363 69.7523 64.6 70.0489 64.5143C70.1235 64.4917 70.2018 64.4837 70.2794 64.4909C70.2871 64.4921 70.2947 64.4941 70.302 64.497L70.2975 64.512C70.2851 64.5588 70.2664 64.6037 70.2417 64.6454C69.8266 65.3154 69.3195 65.9239 68.7353 66.4531C68.6502 66.5404 68.5628 66.6248 68.4762 66.7099L66.6263 64.088L66.5367 64.0789C66.5417 64.0719 66.5446 64.0635 66.545 64.0548H66.5419Z" fill="black"/>
<path id="Vector_16" d="M66.9923 62.4745L66.9817 62.4624C66.9848 62.4682 66.9892 62.4731 66.9945 62.4767L66.9923 62.4745ZM146.326 117.228V120.184H6.05784C5.47766 120.149 4.89601 120.148 4.31565 120.179V118.842C4.31565 118.77 4.28693 118.7 4.23579 118.649C4.18466 118.598 4.1153 118.569 4.04299 118.569C3.97067 118.569 3.90132 118.598 3.85019 118.649C3.79905 118.7 3.77032 118.77 3.77032 118.842V120.456C3.77129 120.528 3.80031 120.597 3.85121 120.648C3.90212 120.699 3.97091 120.729 4.04299 120.73H146.6C146.672 120.729 146.741 120.699 146.791 120.648C146.842 120.597 146.871 120.528 146.872 120.456V117.228C146.869 117.158 146.838 117.092 146.788 117.044C146.737 116.996 146.669 116.969 146.599 116.969C146.529 116.969 146.462 116.996 146.411 117.044C146.36 117.092 146.33 117.158 146.326 117.228Z" fill="black"/>
<path id="Vector_17" d="M4.04324 116.64L7.7227 116.653L17.6463 116.686L32.4169 116.737L50.3141 116.797L69.9512 116.864L70.3345 117.929C70.3519 117.986 70.3867 118.036 70.434 118.072C70.4813 118.108 70.5388 118.128 70.5982 118.13H83.8329C84.0367 118.14 84.2408 118.14 84.4445 118.13C84.7037 118.102 84.9048 117.689 85.0471 117.499L85.4727 116.917L89.8413 116.931L108.416 116.994L124.008 117.047L135.297 117.086C137.068 117.092 138.837 117.125 140.611 117.104H140.843C140.913 117.1 140.979 117.07 141.027 117.019C141.075 116.968 141.102 116.901 141.102 116.831C141.102 116.761 141.075 116.693 141.027 116.642C140.979 116.592 140.913 116.561 140.843 116.558L137.164 116.546L127.241 116.512L112.469 116.462L94.5723 116.401L74.838 116.334L55.051 116.267L36.4752 116.204L20.8836 116.152L9.59369 116.113C7.82363 116.107 6.05358 116.074 4.2805 116.095H4.04776C4.01195 116.095 3.97644 116.102 3.94324 116.115C3.91005 116.128 3.87983 116.148 3.8543 116.173C3.82877 116.199 3.80843 116.228 3.79446 116.261C3.78048 116.294 3.77313 116.33 3.77284 116.366C3.77254 116.401 3.7793 116.437 3.79273 116.47C3.80616 116.503 3.82599 116.533 3.8511 116.559C3.87621 116.585 3.9061 116.605 3.93907 116.619C3.97204 116.633 4.00743 116.64 4.04324 116.64ZM84.7978 116.914L84.3082 117.584H70.7887L70.5304 116.866L84.7978 116.914ZM21.6105 109.919C23.5136 109.927 25.417 109.935 27.3206 109.941L37.3429 109.978C41.7543 109.993 46.1656 110.008 50.5769 110.021C55.6586 110.037 60.7411 110.051 65.8243 110.063C71.1681 110.077 76.5122 110.088 81.8565 110.097C87.0949 110.105 92.3337 110.11 97.5731 110.113C102.338 110.113 107.104 110.11 111.87 110.105C115.752 110.099 119.635 110.086 123.518 110.066C126.122 110.05 128.725 110.034 131.328 109.99C132.021 109.978 132.715 109.964 133.407 109.935C133.449 109.934 133.49 109.923 133.527 109.904C133.533 109.902 133.539 109.9 133.545 109.898C134.342 109.542 133.077 108.445 132.81 108.128C132.132 107.325 131.468 106.505 130.771 105.718C130.35 105.242 129.433 105.444 128.84 105.452C126.487 105.484 124.134 105.492 121.781 105.502C118.093 105.516 114.405 105.525 110.717 105.527C106.127 105.532 101.536 105.534 96.9457 105.532C91.8238 105.532 86.7019 105.529 81.5801 105.523C76.3713 105.517 71.1633 105.511 65.9561 105.503C61.0286 105.497 56.101 105.489 51.1735 105.479L38.5646 105.45C35.4559 105.444 32.3479 105.437 29.2406 105.43L24.4953 105.418C24.3835 105.401 24.2692 105.406 24.1598 105.435C24.0503 105.464 23.9481 105.516 23.8596 105.586C23.6092 105.84 23.3766 106.11 23.1636 106.396L21.9653 107.79L21.014 108.897C20.8332 109.108 20.5786 109.326 20.6871 109.63C20.8121 109.996 21.2949 109.918 21.6105 109.919ZM133.216 109.453C133.202 109.463 133.19 109.474 133.178 109.487C133.188 109.473 133.201 109.461 133.216 109.453ZM21.3544 109.329L22.3102 108.217C22.9053 107.446 23.5404 106.706 24.2129 106.002C24.2263 105.992 24.2371 105.979 24.2445 105.964C24.2672 105.967 24.2903 105.967 24.313 105.964C24.3908 105.96 24.4688 105.96 24.5465 105.964L26.3128 105.968L33.4925 105.985L44.4812 106.008C49.0296 106.017 53.5783 106.025 58.1272 106.033L73.26 106.056C78.4105 106.063 83.5608 106.068 88.7108 106.071C93.5946 106.074 98.4785 106.074 103.362 106.071C107.552 106.071 111.741 106.066 115.93 106.058C119.053 106.051 122.177 106.039 125.301 106.023C126.345 106.016 127.389 106.007 128.432 105.996C128.799 105.992 129.166 105.987 129.532 105.98L129.967 105.972C130.043 105.972 130.321 105.977 130.256 105.943C130.44 106.04 130.633 106.388 130.762 106.546L131.792 107.765L132.847 109.016L133.168 109.392C131.415 109.459 129.659 109.468 127.906 109.485C124.658 109.517 121.41 109.536 118.162 109.542C113.866 109.557 109.57 109.565 105.274 109.566C100.283 109.569 95.2921 109.567 90.3008 109.561C85.0454 109.555 79.7904 109.547 74.536 109.536C69.3097 109.526 64.0836 109.513 58.8578 109.498C54.094 109.486 49.3299 109.472 44.5655 109.456C40.6152 109.443 36.6645 109.429 32.7137 109.415L24.3951 109.383L21.9457 109.373C21.795 109.373 21.5352 109.327 21.3431 109.34L21.3544 109.329Z" fill="black"/>
</g>
</svg>
