<svg width="151" height="151" viewBox="0 0 151 151" fill="none" xmlns="http://www.w3.org/2000/svg">
<g id="Media-Editor-No-Files-1--Streamline-Barcelona">
<path id="Vector" d="M54.862 41.6407C57.9916 47.0684 61.0753 52.8335 63.8042 58.4374C67.5462 55.7583 68.9321 54.7166 69.4751 54.3173C65.4131 50.4059 61.531 48.1274 59.2314 43.978C59.086 43.7166 59.4875 43.4823 59.6321 43.7437C62.2819 48.263 65.6029 49.9073 69.8691 54.0266C74.4386 50.6562 78.9524 47.2123 83.4104 43.6947C83.6431 43.511 83.9738 43.8379 83.7388 44.0231C79.2863 47.5435 74.7741 50.9877 70.2043 54.3543C73.7028 57.9327 76.9494 61.7491 79.9208 65.776C80.1023 66.0095 79.7754 66.3402 79.5923 66.1044C76.6114 62.053 73.3415 58.2225 69.8081 54.6427C67.8828 56.0618 65.9496 57.4678 64.0083 58.8608C68.1073 67.351 69.0262 70.7706 73.6156 80.234C73.7496 80.4818 73.4393 80.6242 73.0921 80.8614C71.9314 81.6606 70.7338 82.407 69.5249 83.1354C69.9768 83.207 71.0049 83.4924 77.4291 84.2396C77.7515 83.7119 78.0847 83.1916 78.4286 82.6789C75.2704 81.8466 74.6113 78.0482 75.3359 74.7807C75.9822 71.4108 77.5315 69.805 80.0059 67.9355C85.0464 63.9435 83.4759 62.8016 85.655 58.8442C87.4175 55.7711 91.103 54.0108 94.1204 53.4963C94.6047 50.311 94.6288 48.6803 95.3579 36.6243C91.1858 37.1516 86.9686 36.2846 82.8139 35.6331C71.9269 33.9278 60.4833 34.8527 49.5827 33.2627C49.2279 35.6112 48.0763 44.8795 48.1516 44.2845C50.2792 43.3199 52.4281 42.4032 54.5984 41.5345C54.6479 41.5205 54.7006 41.5233 54.7484 41.5425C54.7961 41.5617 54.8361 41.5963 54.862 41.6407Z" fill="#FEE992"/>
<path id="Vector_2" d="M133.989 89.6831C129.451 89.54 123.554 99.71 117.692 94.2597C116.606 96.9639 114.754 99.2919 112.363 100.957C114.748 103.859 118.398 106.035 122.118 105.771C125.153 105.557 132.542 102.264 136.064 98.5176C135.858 98.399 135.698 98.2128 135.613 97.9904C135.268 97.1166 135.808 96.4485 136.373 95.8392C136.076 95.933 135.772 95.9971 135.463 96.0305C135.264 96.0633 135.06 96.0176 134.894 95.9031C134.729 95.7886 134.614 95.6141 134.575 95.4166C134.505 94.8434 134.951 94.4608 136.015 93.1653L135.273 93.349C133.671 93.8846 133.39 92.9114 133.885 92.2524C134.749 91.0999 134.361 91.3267 133.952 90.8966C133.83 91.0781 132.194 93.8341 132.304 93.6744C132.435 96.6647 133.659 97.5542 133.283 97.7192C132.78 97.9399 131.987 95.2072 131.883 94.2619C131.185 95.2893 130.496 96.3232 129.817 97.3637C130.02 97.6365 130.158 97.9516 130.222 98.2854C130.286 98.6192 130.273 98.9632 130.186 99.2915C130.098 99.6198 129.937 99.924 129.715 100.181C129.493 100.439 129.216 100.643 128.904 100.778C128.592 100.913 128.254 100.977 127.915 100.963C127.575 100.949 127.243 100.859 126.943 100.698C126.643 100.538 126.384 100.313 126.183 100.038C125.983 99.7633 125.848 99.447 125.787 99.1127C125.335 96.1939 128.122 95.5552 129.508 96.9954C133.863 90.3445 134.682 89.7705 133.989 89.6831Z" fill="#FFCEB6"/>
<path id="Vector_3" d="M134.694 91.5839C133.255 93.6131 134.01 93.2802 136.446 92.6761C136.672 92.6219 136.96 92.768 136.803 92.9337C136.013 93.8948 134.511 95.3485 135.222 95.5556C135.949 95.6814 137.194 94.7934 137.325 95.3229C137.422 95.7274 135.193 96.98 136.243 98.0932C136.932 98.5911 138.177 97.2029 138.657 96.5152C141.449 92.588 138.195 86.6488 134.694 91.5839Z" fill="#FFCEB6"/>
<path id="Vector_4" d="M54.6003 47.4298C54.4557 46.3226 53.0849 46.1968 52.2458 46.535C52.231 46.5498 52.211 46.5585 52.1901 46.5591C49.9116 47.5277 48.3961 50.1474 50.6542 50.4653C52.8649 50.7778 54.7992 48.9588 54.6003 47.4298ZM46.3707 51.3262C46.286 51.0744 46.1382 50.8486 45.9413 50.6703C45.7444 50.492 45.5051 50.3672 45.2462 50.3078C43.1002 50.1843 41.9034 51.6704 41.0342 52.5577C40.7186 52.8801 40.1394 53.2356 40.2621 53.7628C40.3811 54.2765 40.9581 54.5108 41.4213 54.5966C42.5627 54.7411 43.7162 54.4447 44.6466 53.7681C45.5964 53.1851 46.7164 52.3543 46.3707 51.3262ZM37.9874 55.7498C37.872 55.595 37.7178 55.4734 37.5402 55.3975C37.3627 55.3216 37.1682 55.294 36.9766 55.3175C34.2884 55.6466 30.8281 58.5706 32.5545 59.8503C34.7034 61.249 38.6156 56.8186 37.9874 55.7498ZM28.0593 60.2013C27.236 59.4157 25.7499 60.2631 24.9545 60.541C23.7393 60.9096 22.652 61.6122 21.8166 62.5687C21.0898 63.2805 20.9986 64.936 22.8952 64.7266C26.3382 64.3568 28.7296 61.2001 28.0593 60.2013ZM68.504 78.1723C67.7899 77.6782 66.6865 78.0895 65.9076 78.4736C61.9909 80.1804 63.1358 82.7375 65.0927 82.2615C67.5963 81.8585 70.625 79.6403 68.504 78.1723ZM61.124 81.8201C60.0529 81.5188 59.6725 82.0408 57.8407 83.0441C53.9307 84.8473 56.6581 87.6312 60.074 85.2201C62.0369 83.8945 62.4413 82.034 61.124 81.8201ZM42.9006 91.7761C40.69 93.6916 43.0114 95.0828 44.3363 94.0298C44.6997 93.7718 45.041 93.484 45.3569 93.1696C44.4995 92.7767 43.6777 92.3105 42.9006 91.7761ZM40.0339 93.6019C39.005 92.7335 37.943 93.4844 36.9638 94.0961C32.9582 97.2204 36.4516 99.59 39.5812 96.0183C40.3653 95.3087 40.8383 94.2806 40.0339 93.6019ZM58.496 72.8516C53.3936 72.8415 48.2969 72.5145 43.2351 71.8724C45.7696 67.4683 48.2688 63.044 50.7326 58.6C50.878 58.3386 50.4772 58.1036 50.3319 58.3657C45.7101 66.6963 43.3955 70.6514 42.7319 71.8054C37.8756 71.181 33.0605 70.2703 28.3116 69.078C28.2523 69.0616 28.1889 69.0695 28.1353 69.0998C28.0818 69.1302 28.0425 69.1806 28.0261 69.2399C28.0097 69.2992 28.0176 69.3627 28.048 69.4162C28.0783 69.4697 28.1287 69.509 28.1881 69.5254C32.8957 70.7072 37.6681 71.6143 42.4811 72.2422C35.8731 83.7356 36.1797 82.5997 36.9352 82.6871C39.4908 78.3523 41.1208 75.5617 42.9873 72.31C48.1313 72.9665 53.311 73.3043 58.4967 73.3216C58.5591 73.3215 58.6188 73.2966 58.6628 73.2525C58.7068 73.2084 58.7315 73.1485 58.7314 73.0862C58.7313 73.0239 58.7064 72.9642 58.6623 72.9202C58.6181 72.8762 58.5583 72.8515 58.496 72.8516Z" fill="#B26EE6"/>
<path id="Vector_5" d="M83.738 44.0206C83.973 43.8353 83.6424 43.5084 83.4096 43.6922C78.9541 47.2112 74.4403 50.6552 69.8683 54.0241C65.4914 49.8204 62.2608 48.2243 59.6314 43.7412C59.4867 43.4798 59.0853 43.7133 59.2306 43.9754C61.5347 48.1324 65.407 50.3958 69.4744 54.3148C68.9938 54.6681 67.2268 55.9892 63.8034 58.4349C61.1672 53.0118 57.8154 46.8949 54.8612 41.6382C54.8352 41.5943 54.7954 41.5601 54.7481 41.5409C54.7007 41.5217 54.6484 41.5186 54.5991 41.532C41.0842 46.91 27.8072 54.7675 15.1826 62.372C15.1309 62.4044 15.0934 62.4553 15.0779 62.5144C15.0624 62.5734 15.0699 62.6361 15.099 62.6898C16.1113 65.0248 18.7084 70.9526 18.6895 70.8758C31.9092 100.687 27.5022 89.1789 32.3815 97.6963C33.105 98.8898 33.6508 100.182 34.0017 101.533C34.0101 101.563 34.0242 101.59 34.0433 101.614C34.0625 101.638 34.0861 101.659 34.113 101.673C34.1399 101.688 34.1694 101.698 34.1999 101.701C34.2305 101.705 34.2614 101.702 34.2909 101.694C34.3662 101.672 43.395 96.3066 47.8706 94.5486C47.2605 94.2036 47.8819 93.7675 41.5293 97.1096C39.1066 98.3827 36.7178 99.7194 34.3655 101.118C33.6281 98.5309 32.1344 96.284 30.5768 94.062C33.7215 92.5292 36.7027 90.8172 39.8918 89.0584C39.0437 88.1907 40.6111 88.5975 30.2815 93.6357C27.8268 90.1762 26.3181 86.9426 19.1934 70.8705C29.8206 65.9829 49.6271 54.6425 58.662 49.495C64.6636 60.5921 66.0066 64.4757 69.3335 72.0162C63.4765 75.9276 47.4609 84.2183 47.6831 84.2748C47.9053 84.3312 48.1132 84.3945 48.3271 84.4563C65.4944 75.1601 66.7718 74.3489 69.5474 72.4937C70.7021 75.1028 71.8824 77.7022 73.1215 80.2707C68.3423 83.6601 60.3612 87.6695 60.5721 87.8345C60.6768 87.915 60.7762 88.0009 60.8734 88.086C64.2184 86.2527 69.9338 83.0304 73.0876 80.8597C73.3836 80.6563 73.7496 80.4891 73.611 80.2322C68.9486 70.6174 67.8866 66.8642 64.0038 58.859C65.9486 57.467 67.8818 56.061 69.8035 54.641C73.3384 58.2194 76.6085 62.05 79.5878 66.1027C79.7709 66.3384 80.097 66.0077 79.9162 65.7743C76.9444 61.7477 73.6978 57.9313 70.1997 54.3525C74.769 50.9832 79.2824 47.5388 83.738 44.0206ZM54.9253 51.0926C41.3139 58.9938 19.0805 70.3696 18.9901 70.4126C17.8482 67.8351 16.7154 65.2533 15.5916 62.6672C28.2057 55.1125 40.996 47.4673 54.5562 42.0487C55.8552 44.3716 57.1417 46.7013 58.4157 49.0378C57.2444 49.7119 56.0927 50.4147 54.9253 51.0926Z" fill="#B26EE6"/>
<path id="Vector_6" d="M99.1921 34.8616C99.6787 34.0188 95.8102 34.8172 93.2199 33.887C92.9518 33.7604 92.7152 34.1604 92.9856 34.2877C93.8709 34.622 94.8069 34.8021 95.753 34.8202L98.7583 35.1117C98.7161 35.187 98.4246 39.158 98.4306 39.0812C98.4073 39.3787 98.8728 39.3772 98.8961 39.0812L99.1921 34.8616Z" fill="black"/>
<path id="Vector_7" d="M58.7255 87.1929C55.797 85.5998 54.106 87.5416 51.8185 89.0526C51.8059 89.1963 51.8494 89.3394 51.94 89.4517C52.0306 89.5641 52.1611 89.637 52.3043 89.6551C52.7521 89.6869 53.2008 89.6074 53.6104 89.4239L56.2595 88.5954C56.63 88.4605 61.071 91.1751 61.5847 91.5013C64.7482 93.1704 63.3118 95.4715 61.373 98.0829C64.2029 100.493 68.0518 104.751 74.0391 100.82C72.9809 98.8963 71.3773 95.3788 70.4877 93.3474C66.98 94.6038 61.0537 88.4153 58.7255 87.1929Z" fill="#FFCEB6"/>
<path id="Vector_8" d="M74.041 100.819C72.7388 101.673 71.2514 102.204 69.7024 102.367C66.0704 102.527 64.2228 100.511 61.3749 98.0814C61.0337 98.5333 60.9614 98.345 61.6649 98.9408C66.148 102.748 68.9711 104.412 74.3423 101.176C74.1758 101.146 74.1487 101.016 74.041 100.819ZM51.3066 30.6979C49.5194 30.8327 47.7223 30.7387 45.9588 30.4185C45.6816 30.368 45.5589 30.7635 45.7969 30.8508C45.6538 32.3457 45.5114 33.8409 45.3698 35.3362C45.3412 35.6338 45.8059 35.6323 45.8338 35.3362L46.2533 30.9292C47.9226 31.2063 49.6189 31.2847 51.3066 31.1627C51.6034 31.1408 51.6057 30.6753 51.3066 30.6979Z" fill="black"/>
<path id="Vector_9" d="M38.8405 83.1803C38.2732 83.9608 37.8063 84.8096 37.4508 85.7066C39.0075 87.5595 40.6835 89.3089 42.468 90.9437C42.4529 90.6296 42.4175 90.3901 42.7037 90.3336C44.1145 90.183 44.7495 89.4102 44.3872 87.7599C44.2531 87.149 44.058 86.8816 44.3119 86.7498C44.58 86.6699 46.3727 86.8424 46.454 85.5703C46.4564 85.1676 46.4003 84.7667 46.2875 84.3802C46.1392 84.3455 44.0565 84.0239 38.8405 83.1803Z" fill="#E59E70"/>
<path id="Vector_10" d="M56.3007 89.0669C54.1044 89.7523 54.6339 89.5859 53.9658 89.8073C56.5501 91.8056 57.176 91.7107 56.9312 92.0963C56.9009 92.1473 56.8518 92.1843 56.7944 92.1994C56.7371 92.2145 56.6761 92.2064 56.6246 92.1769C52.967 89.8691 54.0901 89.7493 53.0777 89.9489C52.3192 90.1613 51.3258 89.8962 51.3303 89.0586C51.3514 88.6398 51.4463 88.6541 53.6464 87.1002C51.5013 85.9465 49.2127 85.0823 46.8404 84.5303C46.972 84.8089 47.032 85.1159 47.0149 85.4236C46.9978 85.7312 46.9042 86.0297 46.7425 86.292C46.5809 86.5543 46.3563 86.7721 46.0891 86.9256C45.8219 87.0791 45.5207 87.1635 45.2127 87.1711C44.644 87.2328 44.7457 87.1206 44.8044 87.3511C45.0544 88.0994 45.0401 88.9109 44.7637 89.6499C45.065 89.3094 45.6058 90.4679 49.3358 92.0888C49.6092 92.2078 49.3727 92.6085 49.1015 92.4903C47.579 91.8288 46.1326 91.0043 44.7878 90.031C44.6056 89.9015 44.7426 89.7192 44.6741 89.8344C44.4218 90.2374 44.0314 90.5349 43.5759 90.6712C42.898 90.8603 42.9319 90.5839 43.0042 91.4132C43.2121 91.5314 43.3853 91.5412 48.8567 94.5503C48.9042 93.0966 50.1891 91.9645 51.4628 91.252C52.2161 90.6577 54.0931 91.1013 52.6077 94.1481C53.135 93.8061 53.959 93.6517 54.3138 92.9761C54.49 92.6394 55.1785 92.772 55.4865 92.9934C55.9143 93.3022 55.7065 93.8476 55.5069 94.3379C55.418 94.5511 55.369 94.8712 55.2583 95.0738C55.845 94.606 56.6721 93.7986 57.2656 94.1564C57.8305 92.9286 58.4595 91.7303 59.0168 90.4988C58.126 89.9946 57.2207 89.5173 56.3007 89.0669ZM50.0219 88.0877L47.687 87.0792C47.4128 86.9602 47.6501 86.5602 47.922 86.6777L50.2569 87.687C50.5304 87.8022 50.2931 88.2015 50.0219 88.0855V88.0877Z" fill="#FFD35C"/>
<path id="Vector_11" d="M57.4699 95.7733C57.2988 96.3208 57.0001 96.8198 56.5984 97.2293C56.2971 97.5223 56.5058 97.1472 56.0094 98.2838C57.1247 98.8617 58.2953 99.3261 59.5036 99.6697C64.9184 93.366 63.2764 92.9774 59.4621 90.7592C58.9002 92.0087 58.263 93.2222 57.6876 94.4657C57.5324 94.8077 57.6959 95.0788 57.4699 95.7733Z" fill="#A76C6C"/>
<path id="Vector_12" d="M137.226 89.2814C141.735 84.9964 140.603 80.2285 139.998 81.2017C138.647 83.4929 136.95 85.9658 135.083 88.727C132.266 81.9006 132.767 79.7148 132.111 79.9084C131.433 80.1133 131.433 81.2205 131.383 81.8449C131.072 85.7195 132.743 89.1986 132.98 89.3673C128.782 90.4828 124.354 96.8166 120.1 95.4013C117.682 94.3317 118.26 93.3819 117.826 94.3829C123.696 99.8377 129.438 89.5466 133.989 89.6829C134.68 89.7703 133.889 90.3043 129.506 96.9951C128.096 95.5369 125.339 96.214 125.786 99.1124C125.847 99.4464 125.982 99.7624 126.182 100.037C126.383 100.311 126.642 100.537 126.941 100.697C127.241 100.857 127.573 100.947 127.912 100.961C128.251 100.975 128.589 100.912 128.901 100.777C129.213 100.642 129.49 100.439 129.712 100.182C129.934 99.9251 130.095 99.6213 130.183 99.2935C130.271 98.9656 130.284 98.622 130.221 98.2883C130.158 97.9547 130.021 97.6395 129.819 97.3664C130.497 96.3255 131.186 95.2916 131.885 94.2647C131.982 95.1535 132.705 98.0895 133.298 97.7137C133.348 97.6821 133.384 97.633 133.398 97.5762C133.413 97.5193 133.406 97.459 133.379 97.4071C132.726 96.2609 132.355 94.9755 132.298 93.6576C134.347 90.6493 133.889 91.0703 134.3 91.3497C133.703 92.1783 133.378 92.6852 133.617 93.1936C134.078 93.8354 135.188 93.3691 136.014 93.1642C134.982 94.4153 134.508 94.8439 134.574 95.4156C134.725 96.2246 135.591 96.0875 136.372 95.8382C135.808 96.4475 135.269 97.1186 135.612 97.9893C135.698 98.2118 135.857 98.398 136.064 98.5166C132.554 102.25 125.17 105.555 122.117 105.77C118.418 106.031 114.756 103.874 112.363 100.956C112.363 100.956 112.132 101.116 111.979 101.226C114.089 103.935 117.167 105.721 120.566 106.209C125.679 106.573 133.592 101.935 136.584 98.6552C136.794 98.6531 137 98.6053 137.19 98.5151C136.956 98.7369 136.77 99.0044 136.643 99.3011C136.517 99.5977 136.453 99.9172 136.455 100.24C136.457 100.562 136.525 100.881 136.655 101.176C136.785 101.471 136.974 101.736 137.211 101.955C137.53 102.198 137.932 102.305 138.329 102.253C138.727 102.201 139.088 101.995 139.334 101.679C140.677 100.135 139.594 97.7543 137.702 98.2018C141.772 95.0164 140.196 89.0298 137.226 89.2814ZM132.052 80.5991C132.7 83.537 133.61 86.4108 134.771 89.1858L134.56 89.4991C134.412 89.3587 134.228 89.2625 134.028 89.2214C133.828 89.1803 133.621 89.1958 133.43 89.2664C131.762 86.1676 131.482 82.04 132.052 80.5991ZM140.059 81.9918C140.309 84.7576 138.703 87.3035 136.717 89.1255C135.568 90.0791 135.529 89.7944 134.584 90.9814C133.941 90.5453 134.286 91.4544 140.059 81.9918ZM137.639 97.6512C137.306 97.9426 136.699 98.4209 136.245 98.0933C135.119 96.9047 137.713 95.6348 137.259 95.2077C137.012 94.9742 135.833 95.6596 135.225 95.5557C134.547 95.3599 135.814 94.1382 136.807 92.9338C136.828 92.9114 136.844 92.8851 136.855 92.8564C136.866 92.8276 136.871 92.797 136.87 92.7662C136.869 92.7355 136.862 92.7052 136.85 92.6772C136.837 92.6492 136.819 92.624 136.796 92.6031C136.58 92.4005 135.247 92.9978 134.329 93.055C133.839 93.0407 133.971 92.7741 134.192 92.3771C138.04 85.553 142.371 93.5115 137.639 97.6512ZM50.2576 87.6846L47.9226 86.6753C47.6507 86.5578 47.4134 86.9585 47.6876 87.0768L50.0226 88.0853C50.2945 88.2013 50.531 87.8021 50.2576 87.6846Z" fill="black"/>
<path id="Vector_13" d="M56.156 97.0094C57.3664 95.9353 57.5351 93.7013 56.3563 94.7897C56.1424 94.9494 56.3819 94.7686 54.2473 96.4754C54.0214 96.6584 53.708 96.3699 53.9189 96.147C54.9139 95.103 55.9006 92.9488 54.9855 93.1507C53.78 93.6432 52.7346 94.46 51.9651 95.5105C51.8144 95.6755 51.4875 95.5007 51.5764 95.2846C52.0404 94.1547 53.0136 92.701 52.9202 91.7738C52.5865 90.1536 46.5095 94.0508 50.775 96.971C52.3417 98.0443 54.6428 98.3532 56.156 97.0094Z" fill="#FFCEB6"/>
<path id="Vector_14" d="M58.7253 87.1928C61.4279 88.6127 66.7735 94.6783 70.4876 93.3459C70.4137 93.2141 70.3558 93.074 70.3151 92.9286C68.2814 93.6163 65.9946 92.0857 62.2007 89.2318C61.1688 88.4567 57.8403 84.5844 54.1759 86.8644C51.6453 85.4587 48.9093 84.4598 46.0683 83.9043C36.2012 82.3097 36.1326 82.0966 35.5722 82.8566C35.1881 83.7047 35.6905 84.3698 37.0094 85.8838C38.7388 87.9319 40.6059 89.8598 42.5975 91.6541C42.6261 91.6926 48.8627 95.0926 48.9042 95.1189C49.4487 97.3228 52.3027 98.8963 54.8192 98.2154C60.0593 100.785 59.6608 100.219 60.1158 99.6744C62.8055 96.4642 65.2309 93.428 61.5845 91.5027C61.0528 91.1638 56.6322 88.4725 56.2593 88.5968C52.8631 89.7267 52.9361 89.7003 52.3042 89.6551C52.161 89.637 52.0304 89.5641 51.9398 89.4517C51.8493 89.3394 51.8057 89.1963 51.8183 89.0525C54.0908 87.5499 55.7893 85.5968 58.7253 87.1928ZM42.4679 90.9439C40.6833 89.3093 39.0073 87.5598 37.4507 85.7067C37.8064 84.8098 38.2733 83.9611 38.8404 83.1805C44.1197 84.0323 46.1399 84.3457 46.289 84.3803C46.9435 86.8659 45.1381 86.4991 44.3133 86.7499C44.0572 86.8818 44.2545 87.1552 44.3886 87.76C44.7472 89.3915 44.1039 90.15 42.6735 90.3021C42.3851 90.3586 42.4242 90.6554 42.4679 90.9439ZM50.7729 96.9696C50.3362 96.709 49.9736 96.3411 49.7194 95.9007C49.4652 95.4604 49.3279 94.9623 49.3207 94.4538C49.5926 92.6845 52.5158 90.562 52.7945 91.9132C52.8879 92.8397 52.0413 94.1556 51.5743 95.2824C51.4847 95.4993 51.8146 95.6748 51.963 95.5083C52.7351 94.4606 53.7801 93.6451 54.9841 93.1508C55.9045 92.9467 54.9224 95.0911 53.9176 96.1471C53.7067 96.373 54.017 96.6593 54.246 96.4755C56.3181 94.8244 56.0906 94.9879 56.355 94.7898C56.9221 94.2678 57.4577 94.4388 56.9734 95.8021C56.1674 98.0361 53.0672 98.6086 50.7729 96.9711V96.9696ZM59.5034 99.6699C58.2949 99.3256 57.124 98.8608 56.0085 98.2824C56.5086 97.1428 56.2955 97.5292 56.5975 97.2279C57.7921 96.0371 57.5292 94.8079 57.6874 94.4644C58.2629 93.2208 58.8993 92.0074 59.462 90.7578C63.277 92.9813 64.9326 93.3489 59.5034 99.6699ZM53.425 89.9745C54.4321 90.7899 55.5009 91.5262 56.6216 92.1769C56.6484 92.1916 56.6779 92.2009 56.7083 92.2041C56.7387 92.2074 56.7695 92.2045 56.7988 92.1958C56.8281 92.187 56.8553 92.1725 56.879 92.1531C56.9026 92.1337 56.9221 92.1098 56.9365 92.0827C57.1436 91.7061 56.5598 91.8146 53.9628 89.8073C54.8719 89.506 53.9484 89.8073 56.2977 89.0668C57.2182 89.5188 58.1235 89.9958 59.0138 90.498C58.4572 91.7295 57.8283 92.9278 57.2626 94.1556C56.6683 93.797 55.8526 94.5954 55.2553 95.073C55.6635 94.3243 56.1667 93.1282 55.4383 92.7418C55.2601 92.6841 55.0713 92.6667 54.8855 92.6909C54.6997 92.7152 54.5217 92.7804 54.3642 92.8819C53.7053 93.1931 53.1097 93.6236 52.6077 94.1518C53.0408 93.2525 53.5944 92.0714 53.0303 91.3702C52.8306 91.1586 52.5589 91.0296 52.2688 91.0084C51.9787 90.9872 51.6911 91.0754 51.4628 91.2557C50.1891 91.9697 48.9064 93.0965 48.8567 94.554C42.9673 91.322 43.2754 91.572 43.0042 91.4169C42.9289 90.5883 42.907 90.8625 43.5759 90.675C44.0102 90.5583 44.3859 90.2848 44.6304 89.9074C45.9949 90.9711 47.4994 91.8417 49.1015 92.4947C49.3727 92.613 49.6092 92.213 49.3357 92.0933C47.742 91.3975 46.2297 90.5283 44.8262 89.5014C45.0505 88.8025 45.0429 88.0498 44.8044 87.3555C44.7366 87.0829 44.9332 87.3555 45.8303 87.0655C46.0713 86.9767 46.291 86.8381 46.4751 86.6588C46.6592 86.4796 46.8035 86.2636 46.8987 86.025C46.994 85.7864 47.038 85.5304 47.0279 85.2737C47.0179 85.0169 46.954 84.7652 46.8403 84.5347C49.2127 85.0865 51.5014 85.9507 53.6464 87.1047C51.4523 88.6526 51.3416 88.645 51.3303 89.0631C51.3107 89.7831 51.9404 90.3955 53.428 89.9745H53.425ZM143.381 75.8577C143.349 75.5632 142.884 75.5564 142.916 75.8577C143.452 80.841 143.918 86.188 140.751 90.2065C140.566 90.4384 140.893 90.7684 141.079 90.5349C144.38 86.3884 143.919 80.8349 143.381 75.8577ZM145.277 74.4929C145.261 74.4342 145.221 74.3845 145.168 74.3546C145.115 74.3247 145.052 74.317 144.993 74.3331C144.934 74.3493 144.884 74.388 144.853 74.4409C144.823 74.4938 144.815 74.5566 144.83 74.6156C146.046 79.1349 147.24 83.8177 145.639 88.2375C145.537 88.5193 145.985 88.6405 146.087 88.3611C147.705 83.9081 146.584 78.9881 145.277 74.4929ZM47.7111 102.388C47.4188 102.344 47.2923 102.791 47.5875 102.836C52.4985 103.578 57.7883 104.473 60.8939 108.534C61.0716 108.77 61.4761 108.539 61.2946 108.3C58.125 104.11 52.7056 103.141 47.7111 102.388ZM48.2534 105.632C47.9762 105.518 47.8564 105.968 48.1298 106.08C52.3383 107.809 56.247 110.193 59.7113 113.143C59.9373 113.335 60.2679 113.008 60.0405 112.814C56.5179 109.809 52.539 107.384 48.2534 105.632ZM14.2818 41.2128C16.3456 42.7629 18.4102 44.3122 20.4755 45.8609C20.715 46.0409 20.9463 45.6349 20.7105 45.4601L14.5161 40.812C14.2773 40.632 14.0453 41.0357 14.2818 41.2128ZM22.4098 33.2754C22.8538 36.9104 23.7668 40.4726 25.1259 43.8731C25.2358 44.1473 25.6855 44.0275 25.574 43.7496C24.2265 40.3891 23.3191 36.8685 22.8745 33.2754C22.8384 32.9824 22.3736 32.9786 22.4098 33.2754ZM14.3496 86.9292C10.8577 88.4502 7.36779 89.9717 3.8799 91.4937C3.60648 91.6127 3.84224 92.0134 4.11415 91.8952L14.5876 87.3299C14.8573 87.2117 14.6208 86.811 14.3496 86.9292ZM16.8382 91.6338C14.3083 93.0847 12.0373 94.9462 10.118 97.1421C9.91994 97.368 10.2468 97.6942 10.4472 97.4705C12.3583 95.3228 14.595 93.4887 17.0755 92.0353C17.1287 92.0038 17.1673 91.9525 17.1827 91.8926C17.1981 91.8327 17.1891 91.7691 17.1576 91.7159C17.1261 91.6627 17.0748 91.6241 17.0149 91.6087C16.955 91.5933 16.8915 91.6023 16.8382 91.6338ZM77.1686 120.006C77.1686 120.067 77.193 120.126 77.2365 120.17C77.2801 120.213 77.3391 120.238 77.4006 120.238C77.4621 120.238 77.5211 120.213 77.5646 120.17C77.6081 120.126 77.6326 120.067 77.6326 120.006C77.6665 116.112 78.3235 112.249 79.5789 108.562C79.4282 108.531 79.2738 108.501 79.1209 108.469C77.8226 112.177 77.1624 116.078 77.1686 120.006Z" fill="black"/>
<path id="Vector_15" d="M106.395 75.1534C104.108 67.0541 106.511 70.1573 105.819 62.0045C105.654 60.0635 105.266 57.91 103.81 56.4895C102.555 55.2663 100.338 54.8015 98.9138 55.957C97.3192 53.2943 95.5499 52.7934 92.1017 54.0249C83.4804 56.9851 85.7837 62.2501 81.7894 66.0561C79.2285 68.5138 76.3941 69.2685 75.3366 74.7791C74.612 78.048 75.2756 81.8465 78.4293 82.6773C81.1469 78.631 85.3431 75.872 88.3379 75.0819C88.3144 74.6255 88.3245 74.1681 88.368 73.7133C88.8267 68.5123 89.116 70.0368 88.2633 68.8309C86.8458 69.4478 84.8889 69.6406 84.4159 68.159C83.8653 65.913 86.0428 64.0314 88.249 65.6591C89.5295 65.1183 90.0944 64.2612 90.8551 63.0605C90.4197 63.0404 89.9906 63.171 89.6402 63.4304C89.3984 63.6074 89.1672 63.2044 89.4052 63.0289C89.6511 62.8515 89.9299 62.7249 90.2253 62.6566C90.5207 62.5883 90.8267 62.5797 91.1255 62.6312C91.3794 62.2184 91.6294 61.8027 91.8885 61.3952C94.8698 56.1588 99.8305 55.7378 101.329 58.3341C102.498 60.3509 103.069 62.6586 102.977 64.988C103.329 64.8537 103.72 64.8594 104.069 65.0038C105.829 65.916 105.02 68.5394 102.434 68.7857C102.176 69.4918 101.76 70.129 101.216 70.6478C100.673 71.1667 100.017 71.5533 99.2994 71.7775C99.2573 73.1612 99.2369 74.0665 99.1925 75.2913C102.151 75.7655 104.93 77.0168 107.246 78.9172C107.038 77.6467 106.754 76.3898 106.395 75.1534Z" fill="#B26EE6"/>
<path id="Vector_16" d="M105.038 107.96C105.758 111.673 105.981 115.464 105.703 119.235C105.682 119.536 106.146 119.531 106.168 119.235C106.446 115.426 106.218 111.598 105.49 107.85C105.005 107.918 105.031 107.885 105.038 107.96ZM93.7702 116.171C93.1865 115.37 93.0743 118.014 93.1677 119.101C93.1933 119.397 93.658 119.403 93.6324 119.101C93.5691 118.371 93.591 117.637 93.6979 116.912C94.2885 117.839 94.6999 118.869 94.9106 119.949C94.9671 120.242 95.4153 120.118 95.3588 119.825C95.1047 118.505 94.5623 117.257 93.7702 116.171Z" fill="black"/>
<path id="Vector_17" d="M117.976 93.6389C110.242 85.9199 110.772 77.3107 99.1909 75.2913C99.1495 76.5409 98.8633 78.32 96.9057 78.4616C95.0841 78.6878 93.241 78.6795 91.4215 78.4367C88.8515 78.033 88.4779 76.9002 88.3333 75.0819C88.0539 75.1572 87.6381 75.2378 87.3639 75.3395C76.9274 79.4069 76.6042 89.7493 70.4279 92.6575C70.369 92.6925 70.3263 92.7492 70.3088 92.8154C70.2914 92.8816 70.3006 92.952 70.3345 93.0115C71.2293 95.0452 73.0686 99.1216 74.1638 101.057C74.1996 101.114 74.2563 101.156 74.322 101.173C74.3878 101.19 74.4577 101.181 74.5171 101.148C75.7757 100.356 76.8996 99.3672 77.8463 98.22C76.8995 102.122 75.8043 103.229 75.3471 107.451C75.3472 107.507 75.3657 107.562 75.3998 107.607C75.434 107.652 75.4819 107.684 75.5362 107.699C99.029 112.87 97.7561 107.707 108.571 107.615C108.925 107.608 108.803 108.175 109.161 97.1233C110.094 98.7276 111.35 101.609 111.873 101.304C115.595 98.6613 116.859 96.6472 118.041 93.8905C118.053 93.8466 118.054 93.8001 118.043 93.7559C118.031 93.7117 118.008 93.6713 117.976 93.6389ZM78.3645 94.1933C78.3645 94.1317 78.3889 94.0727 78.4324 94.0292C78.476 93.9857 78.535 93.9613 78.5965 93.9613C78.658 93.9613 78.717 93.9857 78.7605 94.0292C78.804 94.0727 78.8285 94.1317 78.8285 94.1933C78.8127 95.1895 78.705 96.1822 78.5069 97.1587C78.4474 97.4517 78.0067 97.3281 78.0594 97.0359C78.2471 96.0996 78.3492 95.1481 78.3645 94.1933ZM81.4949 95.2922C79.0944 97.008 78.8217 97.6272 78.6146 97.1338C78.5982 97.094 78.5951 97.0499 78.6057 97.0081C78.6163 96.9664 78.64 96.9291 78.6733 96.9018C79.5079 96.1988 80.3701 95.5285 81.2599 94.8907C81.5039 94.7168 81.7359 95.1197 81.4979 95.2922H81.4949ZM109.179 96.4883C108.901 95.1681 108.792 93.8177 108.855 92.4699C108.873 92.1686 109.338 92.1686 109.32 92.4699C109.136 95.6379 109.954 96.483 109.471 96.6352C109.442 96.6485 109.411 96.6551 109.38 96.6545C109.348 96.6539 109.317 96.6462 109.289 96.6319C109.261 96.6176 109.236 96.5971 109.217 96.572C109.198 96.5468 109.185 96.5177 109.179 96.4868V96.4883Z" fill="#FFD35C"/>
<path id="Vector_18" d="M105.127 43.7275C107.871 40.95 110.872 38.4394 114.091 36.2293C114.335 36.0606 114.104 35.6583 113.856 35.8278C110.604 38.0591 107.57 40.594 104.796 43.3984C104.589 43.6108 104.916 43.9407 105.127 43.7275ZM107.424 46.1002C110.273 44.1052 113.292 42.3648 116.447 40.8992C116.718 40.7734 116.481 40.372 116.212 40.4978C113.058 41.9635 110.039 43.7049 107.191 45.7017C106.946 45.8704 107.178 46.2727 107.424 46.1002Z" fill="black"/>
<path id="Vector_19" d="M91.6013 63.2654C91.074 62.9883 91.1154 64.0187 89.6278 65.3662C89.2416 65.7213 88.7814 65.9862 88.2803 66.142C88.08 66.1706 87.8984 65.9567 87.7305 65.8625C84.3644 63.9946 83.2195 70.5445 87.8917 68.5402C87.9723 68.2984 88.2969 68.385 88.2216 68.3896C88.4724 68.3406 88.4355 68.5605 88.8686 69.185C89.6091 69.9665 90.5128 70.5753 91.5154 70.9678C92.9733 71.5972 94.5522 71.8969 96.1394 71.8453C96.4407 71.8288 96.4407 72.2935 96.1394 72.3101C93.5397 72.4163 90.99 71.5742 88.965 69.9404C88.8144 71.6789 88.2005 75.5662 89.1834 76.9401C90.6899 78.6529 96.7661 78.4186 98.0925 77.5924C98.8796 77.0169 98.6898 76.4399 98.8404 71.6171C98.8487 71.2766 99.6042 71.3911 100.942 70.357C102.417 69.243 101.953 68.5395 102.424 68.5372C104.242 68.4747 105.384 66.3815 103.955 65.4754C103.782 65.3861 103.587 65.3471 103.393 65.3628C103.199 65.3786 103.014 65.4483 102.857 65.5643C101.859 66.1352 103.447 61.7921 100.766 58.1172C99.9778 56.9595 97.1269 56.6439 95.0291 58.3808C93.5272 59.5491 92.5895 61.1745 91.6005 62.7593C91.6818 62.7897 91.7612 62.8246 91.8385 62.864C92.1006 63.0026 91.8664 63.404 91.6013 63.2654ZM86.9087 66.8056L86.2203 67.0632C85.9393 67.1686 85.8188 66.7197 86.0968 66.6157L86.7852 66.3574C87.0661 66.2504 87.1859 66.7001 86.9087 66.804V66.8056ZM101.605 67.0481L103.345 66.1367C103.61 65.9981 103.844 66.3988 103.58 66.5382L101.84 67.4496C101.575 67.5866 101.34 67.1867 101.608 67.0466L101.605 67.0481ZM100.065 66.8327C100.062 66.892 100.036 66.9478 99.9926 66.9886C99.9494 67.0294 99.8922 67.0522 99.8328 67.0522C99.7733 67.0522 99.7162 67.0294 99.673 66.9886C99.6298 66.9478 99.6038 66.892 99.6004 66.8327C99.5856 66.1641 99.6409 65.4959 99.7654 64.8389C99.8204 64.5452 100.269 64.6702 100.213 64.9624C100.098 65.5785 100.049 66.2048 100.065 66.8312V66.8327ZM98.3328 62.8173C98.5414 62.7043 98.7717 62.6369 99.0083 62.6196C99.245 62.6022 99.4826 62.6353 99.7055 62.7166C99.9284 62.7979 100.132 62.9256 100.301 63.0912C100.471 63.2569 100.604 63.4567 100.691 63.6774C100.797 63.9584 100.348 64.0782 100.243 63.801C100.177 63.6479 100.079 63.5103 99.9571 63.3968C99.8349 63.2833 99.6905 63.1964 99.5329 63.1416C99.3754 63.0868 99.2082 63.0653 99.042 63.0784C98.8757 63.0916 98.714 63.1391 98.567 63.218C98.5144 63.2429 98.4544 63.2471 98.3988 63.2298C98.3433 63.2126 98.2962 63.175 98.267 63.1247C98.2379 63.0744 98.2286 63.0149 98.2412 62.9581C98.2538 62.9013 98.2873 62.8513 98.335 62.818L98.3328 62.8173ZM94.6089 68.6683C94.6923 68.4296 94.8561 68.2274 95.0722 68.0963C95.2884 67.9651 95.5435 67.9133 95.7937 67.9497C96.0427 67.9864 96.2676 68.1189 96.4204 68.3189C96.5732 68.519 96.6418 68.7708 96.6117 69.0208C96.522 70.5189 94.2541 70.1092 94.6111 68.6668L94.6089 68.6683ZM90.6831 66.6346C90.7381 66.2489 90.7938 65.864 90.848 65.4784C90.891 65.1831 91.3391 65.3089 91.2962 65.6019L91.1305 66.7581C91.0906 67.0564 90.6432 66.9298 90.6869 66.6368L90.6831 66.6346Z" fill="#FFCEB6"/>
<path id="Vector_20" d="M98.5691 63.2163C98.7161 63.1374 98.8778 63.0899 99.0441 63.0767C99.2103 63.0636 99.3775 63.0851 99.535 63.1399C99.6926 63.1947 99.837 63.2816 99.9592 63.3951C100.081 63.5086 100.179 63.6462 100.245 63.7993C100.35 64.0765 100.799 63.9567 100.693 63.6758C100.08 62.1189 97.9063 62.5776 98.2618 63.1357C98.2934 63.1854 98.3426 63.2214 98.3996 63.2363C98.4566 63.2513 98.5172 63.2441 98.5691 63.2163ZM90.8502 65.4805L90.6867 66.6367C90.6453 66.9297 91.0919 67.0554 91.1341 66.7602L91.2998 65.604C91.3405 65.3117 90.8923 65.1852 90.8502 65.4805ZM99.7652 64.8372C99.6411 65.4943 99.5858 66.1625 99.6003 66.831C99.6036 66.8903 99.6296 66.9461 99.6728 66.9869C99.716 67.0278 99.7732 67.0505 99.8326 67.0505C99.8921 67.0505 99.9493 67.0278 99.9925 66.9869C100.036 66.9461 100.062 66.8903 100.065 66.831C100.05 66.204 100.1 65.5772 100.216 64.9608C100.268 64.6685 99.8202 64.5435 99.7652 64.8372ZM95.5525 69.9772C95.8088 69.9862 96.0593 69.8989 96.2544 69.7324C96.4496 69.5659 96.5753 69.3324 96.6068 69.0778C96.6382 68.8233 96.5732 68.5661 96.4245 68.3571C96.2758 68.1481 96.0541 68.0024 95.8033 67.9488C95.6642 67.919 95.5203 67.9185 95.381 67.9473C95.2416 67.9761 95.1098 68.0336 94.9938 68.1161C94.8779 68.1986 94.7804 68.3043 94.7075 68.4265C94.6346 68.5488 94.588 68.6848 94.5705 68.826C94.553 68.9673 94.5651 69.1106 94.6061 69.2469C94.647 69.3832 94.7158 69.5095 94.8081 69.6177C94.9005 69.726 95.0144 69.8138 95.1425 69.8757C95.2707 69.9376 95.4103 69.9722 95.5525 69.9772ZM86.785 66.358L86.0966 66.6163C85.8187 66.7203 85.9392 67.1692 86.2201 67.0637L86.9086 66.8061C87.1858 66.6999 87.066 66.2503 86.785 66.358Z" fill="black"/>
<path id="Vector_21" d="M104.067 65.0024C103.719 64.8556 103.328 64.8499 102.975 64.9865C103.086 62.617 102.533 60.2636 101.379 58.191C100.222 56.1882 97.125 56.4179 95.3535 57.5832C93.1458 59.1295 92.3097 60.7015 91.1204 62.6297C90.8216 62.5782 90.5156 62.5869 90.2201 62.6552C89.9247 62.7234 89.6459 62.85 89.4001 63.0274C89.162 63.2022 89.394 63.6059 89.6351 63.4289C89.9854 63.1694 90.4145 63.0388 90.85 63.0591C90.0877 64.2582 89.5213 65.1184 88.2439 65.6577C84.2917 62.7374 82.3439 70.4436 87.1758 69.2467C88.4472 69.0012 87.8206 68.7059 88.4842 69.4531C88.5373 69.602 88.5423 69.7637 88.4985 69.9156C87.9712 76.1259 87.3106 78.6431 93.8425 78.6845C99.6875 78.6725 99.1037 78.1513 99.2943 71.776C100.682 71.2721 102.102 70.3208 102.503 68.892C104.834 68.6728 105.993 66.0418 104.067 65.0024ZM104.36 67.2906C103.467 68.6901 102.218 68.2201 102.111 68.6065C101.876 69.9623 100.303 70.955 99.0088 71.3934C98.9602 71.4082 98.9175 71.4381 98.8869 71.4787C98.8564 71.5193 98.8394 71.5685 98.8386 71.6194C98.688 76.4731 98.8672 77.029 98.0907 77.5946C96.6987 78.4616 90.6474 78.6137 89.1816 76.9423C88.2025 75.5783 88.8088 71.7452 88.9632 69.9427C90.9887 71.575 93.5384 72.4158 96.1376 72.3086C96.4389 72.292 96.4389 71.8273 96.1376 71.8438C94.8083 71.924 93.4767 71.7292 92.2261 71.2716C90.9755 70.814 89.8327 70.1034 88.869 69.1842C88.4269 68.547 88.4744 68.3384 88.222 68.3888C88.1922 68.3762 88.1601 68.3696 88.1277 68.3694C88.0953 68.3692 88.0631 68.3754 88.0331 68.3876C88.0031 68.3999 87.9758 68.4179 87.9527 68.4407C87.9297 68.4636 87.9114 68.4907 87.8989 68.5206L87.8921 68.5387C83.2538 70.528 84.3226 63.978 87.7309 65.861C87.8989 65.9552 88.0812 66.1698 88.2808 66.1405C89.2835 65.7599 90.1313 65.057 90.6911 64.1422C91.4676 63.0493 91.2492 63.0779 91.6025 63.2639C91.8676 63.4025 92.1026 63.0018 91.8375 62.8625C91.76 62.8234 91.6806 62.7885 91.5995 62.7578C92.5884 61.176 93.5269 59.5476 95.0281 58.3793C97.1243 56.6432 99.9745 56.9565 100.765 58.1157C103.407 61.7364 101.911 66.0998 102.856 65.5627C103.909 64.808 105.046 66.2188 104.36 67.2921V67.2906Z" fill="black"/>
<path id="Vector_22" d="M103.345 66.1322L101.605 67.0436C101.34 67.183 101.575 67.5837 101.84 67.4451L103.58 66.5337C103.844 66.3974 103.61 65.9966 103.345 66.1322ZM79.0014 97.2303C79.8099 96.5558 80.6415 95.9094 81.4945 95.2922C81.7355 95.1197 81.5035 94.7168 81.2595 94.8908C80.788 95.2275 78.7219 96.7821 78.6232 96.9614C78.5073 97.1497 78.7897 97.405 79.0014 97.2303ZM109.627 96.3648C109.342 95.0874 109.239 93.7762 109.32 92.4699C109.337 92.1686 108.872 92.1686 108.855 92.4699C108.786 93.8178 108.894 95.169 109.179 96.4883C109.237 96.7806 109.693 96.6533 109.627 96.3648ZM78.3641 94.1933C78.3409 95.1476 78.2389 96.0984 78.0591 97.0359C77.9988 97.3267 78.447 97.4517 78.5065 97.1587C78.7045 96.1822 78.8121 95.1895 78.8281 94.1933C78.8281 94.1318 78.8037 94.0728 78.7602 94.0292C78.7167 93.9857 78.6577 93.9613 78.5961 93.9613C78.5346 93.9613 78.4756 93.9857 78.4321 94.0292C78.3886 94.0728 78.3641 94.1318 78.3641 94.1933Z" fill="black"/>
</g>
</svg>
