<svg width="151" height="151" viewBox="0 0 151 151" fill="none" xmlns="http://www.w3.org/2000/svg">
<g id="Page-Not-Found-1--Streamline-Barcelona">
<path id="Vector" d="M39.7685 66.3081C39.7115 66.3166 39.6532 66.3102 39.5994 66.2897C39.5455 66.2691 39.4979 66.2349 39.4611 66.1906C39.4243 66.1462 39.3995 66.0931 39.3893 66.0363C39.379 65.9796 39.3835 65.9212 39.4024 65.8667C39.6178 64.5923 46.0955 35.842 46.2989 34.9366H34.5374C34.4801 35.012 36.1689 33.1786 5.64703 66.1416C5.59807 66.5981 4.78761 74.3095 4.42908 77.711C4.67463 77.6847 4.94202 77.6922 5.16497 77.6734C5.88881 77.6094 29.7025 75.5094 30.5815 75.4333C30.6303 75.4341 30.6783 75.4459 30.7218 75.468C30.7653 75.4901 30.8032 75.5218 30.8326 75.5607C30.862 75.5996 30.8821 75.6448 30.8915 75.6926C30.9008 75.7405 30.8992 75.7899 30.8866 75.837C30.8632 75.8965 30.1695 78.7972 23.1601 106.122C23.4915 106.081 26.1579 105.734 27.1574 105.606C27.1461 105.285 27.1385 104.968 27.1235 104.648C27.1084 104.236 27.7419 104.24 27.7607 104.648C27.772 104.938 27.7795 105.232 27.7908 105.523C28.7376 105.398 29.6874 105.277 30.638 105.153L30.6493 104.429C30.6493 104.345 30.6829 104.264 30.7426 104.204C30.8024 104.144 30.8834 104.111 30.9679 104.111C31.0524 104.111 31.1334 104.144 31.1932 104.204C31.2529 104.264 31.2865 104.345 31.2865 104.429C31.2827 104.644 31.2827 104.855 31.279 105.07L33.8926 104.73C33.8979 104.655 37.6798 74.9746 37.6896 74.8978C37.6901 74.8284 37.7132 74.761 37.7555 74.7059C37.7978 74.6509 37.8569 74.6111 37.9239 74.5927C38.357 74.5212 45.1638 73.4124 48.1352 72.9259C48.1879 72.6939 49.3336 67.3521 49.8887 64.6902C49.8134 64.7015 39.8438 66.3081 39.7685 66.3081ZM28.7406 67.9403C27.0783 68.1926 14.5395 70.1081 14.0529 70.1834V65.8065C14.7617 65.0826 35.3629 44.0927 35.3629 44.0927C35.3381 44.1688 28.9018 67.2797 28.7406 67.9403ZM133.289 66.3081C133.232 66.3166 133.173 66.3102 133.119 66.2897C133.066 66.2691 133.018 66.2349 132.981 66.1906C132.944 66.1462 132.92 66.0931 132.909 66.0363C132.899 65.9796 132.904 65.9212 132.923 65.8667C133.138 64.5923 139.616 35.842 139.82 34.9366H128.058C128.002 35.012 129.69 33.1786 99.1686 66.1416C99.1197 66.5981 98.3084 74.3095 97.9507 77.711C98.1955 77.6847 98.4629 77.6922 98.6858 77.6734C99.4096 77.6094 123.224 75.5094 124.102 75.4333C124.151 75.4339 124.199 75.4457 124.243 75.4677C124.286 75.4897 124.324 75.5215 124.354 75.5604C124.383 75.5994 124.403 75.6446 124.413 75.6925C124.422 75.7405 124.42 75.7899 124.407 75.837C124.385 75.898 123.595 79.1663 116.681 106.122C117.013 106.081 119.679 105.734 120.678 105.606C120.667 105.285 120.659 104.968 120.644 104.648C120.629 104.236 121.263 104.24 121.282 104.648C121.293 104.938 121.3 105.232 121.312 105.523C122.258 105.398 123.209 105.277 124.159 105.153C124.159 104.911 124.167 104.67 124.17 104.429C124.174 104.347 124.209 104.27 124.269 104.213C124.328 104.157 124.407 104.125 124.489 104.125C124.571 104.125 124.65 104.157 124.709 104.213C124.769 104.27 124.804 104.347 124.808 104.429C124.804 104.644 124.804 104.855 124.8 105.07L127.413 104.73C127.419 104.655 131.201 74.9739 131.21 74.8978C131.211 74.8284 131.234 74.761 131.276 74.7059C131.319 74.6509 131.378 74.6111 131.445 74.5927C131.879 74.5212 138.685 73.4124 141.656 72.9259C141.708 72.6999 142.849 67.3792 143.41 64.6902C143.336 64.7015 133.365 66.3081 133.289 66.3081ZM122.262 67.9403C120.599 68.1926 108.06 70.1081 107.57 70.1834V65.8065L128.88 44.0927C128.859 44.1696 122.425 67.2715 122.262 67.9403Z" fill="#B26EE6"/>
<path id="Vector_2" d="M91.6663 46.4117C90.4785 42.7428 88.7966 39.0882 85.8891 36.5581C84.5011 35.3632 82.8863 34.4605 81.1413 33.904C79.3964 33.3474 77.5571 33.1486 75.7335 33.3193C63.56 34.5018 57.1185 50.8022 55.0495 62.77C52.9977 74.6227 51.95 90.627 63.4779 98.2405C67.2297 100.718 72.1625 101.593 76.3406 99.9337C79.8212 98.5538 82.4537 95.6314 84.6185 92.5725C89.2408 85.9276 92.2794 78.3121 93.5011 70.3103C94.7228 62.3085 94.0952 54.1332 91.6663 46.4117ZM78.3118 85.6189C76.9387 87.7572 75.3064 89.7781 73.2743 90.6496C70.8301 91.6935 68.0891 90.8755 66.0901 88.9262C59.9552 82.9532 61.335 71.3688 63.0772 62.8348C64.5362 55.6793 68.413 44.1716 74.9185 42.4407C76.1859 42.1232 77.5195 42.1953 78.7452 42.6475C79.9709 43.0996 81.0318 43.9109 81.7894 44.9753C86.314 50.7954 87.7074 70.9906 78.3118 85.6189Z" fill="#FFD35C"/>
<path id="Vector_3" d="M50.2293 63.9924C46.8597 64.5272 43.4908 65.0662 40.1226 65.6096L47.0161 34.6916C47.0285 34.6444 47.0301 34.5951 47.0207 34.5473C47.0112 34.4995 46.9911 34.4544 46.9617 34.4155C46.9323 34.3766 46.8945 34.3449 46.8511 34.3228C46.8076 34.3007 46.7597 34.2887 46.711 34.2878H34.5496C34.1315 34.2984 34.1436 34.4264 33.4634 35.1631C3.26323 67.806 5.07622 65.6962 5.02952 66.0962C4.92407 67.0693 3.78521 77.8885 3.76563 78.0806C3.76553 78.1223 3.77366 78.1635 3.78956 78.2021C3.80546 78.2406 3.82882 78.2756 3.85828 78.305C3.88775 78.3345 3.92274 78.3579 3.96126 78.3738C3.99978 78.3897 4.04106 78.3978 4.08273 78.3977C9.0886 77.9676 27.6448 76.2955 30.1666 76.1275C25.8605 92.8421 22.4702 106.331 22.4401 106.407C22.3949 106.585 22.5343 106.837 22.7452 106.811L27.1839 106.233C27.3253 111.229 27.1148 116.23 26.5542 121.197C25.0751 121.108 23.5934 121.32 22.1983 121.819C21.8217 121.955 21.9799 122.572 22.3686 122.434C23.7983 121.919 25.3226 121.719 26.8366 121.849C26.9204 121.848 27.0005 121.815 27.0598 121.755C27.119 121.696 27.1528 121.616 27.1537 121.532C27.7452 116.428 27.9657 111.287 27.8136 106.151C28.7528 106.03 29.6913 105.905 30.6306 105.785C30.5585 110.792 30.7738 115.799 31.2753 120.782C31.4162 121.747 32.1039 121.892 34.4697 123.063C34.835 123.244 35.1597 122.694 34.7898 122.513C32.0783 121.175 31.9796 121.253 31.8937 120.65C31.4032 115.679 31.1942 110.685 31.2678 105.69C31.7694 105.626 33.7188 105.373 34.1903 105.309C34.2733 105.306 34.3521 105.272 34.4109 105.213C34.4698 105.155 34.5042 105.076 34.5074 104.993C34.5164 104.918 38.2991 75.2282 38.3044 75.1528C41.2645 74.67 48.0449 73.5613 48.4788 73.4897C48.7725 73.446 48.5632 73.8121 50.6096 64.36C50.6744 64.128 50.4703 63.954 50.2293 63.9924ZM48.1361 72.9256C45.1646 73.4122 38.3578 74.5209 37.9247 74.5924C37.8578 74.6108 37.7987 74.6506 37.7564 74.7056C37.7141 74.7607 37.691 74.8281 37.6905 74.8975C37.6807 74.9728 33.8988 104.654 33.8935 104.73L31.2799 105.07C31.2799 104.855 31.2799 104.644 31.2874 104.429C31.2874 104.344 31.2538 104.263 31.1941 104.204C31.1343 104.144 31.0533 104.11 30.9688 104.11C30.8843 104.11 30.8032 104.144 30.7435 104.204C30.6837 104.263 30.6502 104.344 30.6502 104.429L30.6389 105.153C29.6883 105.277 28.7385 105.397 27.7917 105.523C27.7804 105.232 27.7729 104.938 27.7616 104.647C27.7428 104.24 27.1093 104.236 27.1244 104.647C27.1394 104.968 27.147 105.284 27.1583 105.605C26.1587 105.733 23.4931 106.081 23.1609 106.122C30.1704 78.7969 30.8641 75.8963 30.8874 75.8368C30.9 75.7896 30.9017 75.7402 30.8924 75.6924C30.883 75.6445 30.8629 75.5993 30.8335 75.5604C30.804 75.5215 30.7661 75.4898 30.7226 75.4677C30.6791 75.4456 30.6312 75.4338 30.5824 75.433C29.7034 75.5084 5.8897 77.6091 5.16585 77.6731C4.93989 77.6919 4.67551 77.6844 4.42996 77.7108C4.78849 74.3092 5.59895 66.5978 5.64791 66.1414C36.1697 33.1784 34.4818 35.0117 34.5383 34.9364H46.2997C46.0964 35.8402 39.618 64.592 39.4025 65.8664C39.3836 65.9209 39.3791 65.9793 39.3894 66.036C39.3997 66.0928 39.4244 66.1459 39.4612 66.1903C39.498 66.2346 39.5456 66.2688 39.5995 66.2894C39.6533 66.31 39.7116 66.3163 39.7686 66.3078H39.7799C42.8756 65.8137 49.6146 64.7351 49.8896 64.6899C49.3131 67.4368 48.7286 70.1821 48.1361 72.9256Z" fill="black"/>
<path id="Vector_4" d="M35.7711 42.7615C35.509 43.0274 14.7398 64.1958 14.0913 64.8518C13.8465 65.1012 13.4202 65.3912 13.4134 65.7685C13.3954 66.8983 13.4134 70.6283 13.4134 70.5499C13.4146 70.5986 13.4268 70.6463 13.449 70.6896C13.4712 70.7329 13.5029 70.7707 13.5417 70.8001C13.5804 70.8294 13.6254 70.8497 13.673 70.8593C13.7207 70.869 13.77 70.8677 13.8172 70.8557C15.5405 70.5914 28.4597 68.6194 29.0856 68.5253C29.1475 68.5199 29.2053 68.4919 29.2478 68.4466C29.2903 68.4013 29.3146 68.3419 29.3161 68.2797C29.542 67.4467 36.3037 43.0779 36.3074 43.0628C36.3227 42.9954 36.3158 42.9248 36.2877 42.8616C36.2597 42.7984 36.2119 42.746 36.1517 42.7121C36.0914 42.6783 36.0218 42.6648 35.9532 42.6737C35.8846 42.6826 35.8208 42.7134 35.7711 42.7615ZM28.7414 67.94C27.079 68.1924 14.5402 70.1078 14.0537 70.1831V65.8062C14.7624 65.0823 35.3637 44.0925 35.3637 44.0925C35.3388 44.1685 28.9026 67.2795 28.7414 67.94ZM143.747 63.9924C140.649 64.4775 133.911 65.5644 133.64 65.6096C133.836 64.7276 140.529 34.7104 140.533 34.6916C140.546 34.6444 140.547 34.595 140.538 34.5472C140.529 34.4993 140.508 34.4542 140.479 34.4152C140.45 34.3763 140.412 34.3446 140.368 34.3225C140.325 34.3005 140.277 34.2886 140.228 34.2878H128.066C127.648 34.2984 127.663 34.4234 126.98 35.1631C96.7207 67.8459 98.5909 65.712 98.5472 66.0962C98.441 67.0693 97.3021 77.8885 97.2841 78.0806C97.284 78.1222 97.2921 78.1634 97.3079 78.2019C97.3238 78.2403 97.3471 78.2753 97.3764 78.3048C97.4058 78.3342 97.4408 78.3576 97.4792 78.3735C97.5176 78.3895 97.5588 78.3977 97.6004 78.3977C102.627 77.9661 121.152 76.2962 123.684 76.1275C119.275 93.2421 115.989 106.331 115.958 106.407C115.913 106.585 116.052 106.837 116.264 106.811L120.708 106.233C120.849 111.229 120.639 116.23 120.078 121.197C118.599 121.108 117.117 121.32 115.722 121.819C115.345 121.955 115.504 122.572 115.892 122.434C117.322 121.919 118.846 121.719 120.36 121.849C120.444 121.848 120.524 121.815 120.583 121.755C120.643 121.696 120.676 121.616 120.677 121.532C121.269 116.428 121.49 111.287 121.337 106.151C122.277 106.03 123.215 105.905 124.154 105.785C124.082 110.792 124.298 115.799 124.8 120.782C124.94 121.748 125.625 121.892 127.993 123.063C128.359 123.244 128.683 122.694 128.314 122.513C125.602 121.175 125.504 121.253 125.417 120.65C124.927 115.679 124.718 110.685 124.792 105.69C125.293 105.626 127.242 105.373 127.714 105.309C127.797 105.307 127.876 105.272 127.935 105.214C127.994 105.155 128.028 105.076 128.031 104.993C128.041 104.918 131.823 75.2319 131.828 75.1528C134.789 74.67 141.569 73.5613 142.003 73.4897C142.296 73.446 142.092 73.791 144.133 64.36C144.195 64.128 143.991 63.954 143.747 63.9924ZM141.657 72.9256C138.686 73.4122 131.879 74.5209 131.445 74.5924C131.378 74.6108 131.319 74.6506 131.277 74.7056C131.235 74.7607 131.212 74.8281 131.211 74.8975C131.201 74.9728 127.419 104.655 127.414 104.73L124.801 105.07C124.801 104.855 124.801 104.644 124.809 104.429C124.805 104.347 124.77 104.27 124.71 104.213C124.651 104.157 124.572 104.125 124.49 104.125C124.408 104.125 124.329 104.157 124.27 104.213C124.21 104.27 124.175 104.347 124.171 104.429L124.16 105.153C123.21 105.277 122.259 105.397 121.312 105.523C121.301 105.232 121.294 104.938 121.282 104.647C121.263 104.24 120.63 104.236 120.645 104.647C120.66 104.968 120.668 105.284 120.679 105.605C119.679 105.733 117.014 106.081 116.682 106.122C123.596 79.166 124.386 75.8978 124.408 75.8368C124.421 75.7896 124.422 75.7402 124.413 75.6924C124.404 75.6445 124.384 75.5993 124.354 75.5604C124.325 75.5215 124.287 75.4898 124.243 75.4677C124.2 75.4456 124.152 75.4338 124.103 75.433C123.225 75.5084 99.4104 77.6091 98.6865 77.6731C98.4606 77.6919 98.1962 77.6844 97.9514 77.7108C98.3092 74.3092 99.1204 66.5978 99.1694 66.1414C129.69 33.1784 128.002 35.0117 128.059 34.9364H139.82C139.617 35.8402 133.139 64.592 132.923 65.8664C132.904 65.9209 132.9 65.9793 132.91 66.036C132.92 66.0928 132.945 66.1459 132.982 66.1903C133.019 66.2346 133.066 66.2688 133.12 66.2894C133.174 66.31 133.232 66.3163 133.289 66.3078H133.301C136.396 65.8137 143.135 64.7351 143.411 64.6899C142.849 67.3789 141.709 72.6966 141.657 72.9256Z" fill="black"/>
<path id="Vector_5" d="M129.291 42.7616C129.029 43.0275 108.26 64.1959 107.612 64.8519C107.367 65.1012 106.94 65.3912 106.934 65.7686C106.916 66.8984 106.934 70.6283 106.934 70.55C106.935 70.5986 106.947 70.6464 106.969 70.6897C106.991 70.733 107.023 70.7707 107.062 70.8001C107.101 70.8295 107.146 70.8498 107.193 70.8594C107.241 70.869 107.29 70.8678 107.337 70.8558C109.061 70.5914 121.98 68.6195 122.607 68.5253C122.668 68.52 122.726 68.4919 122.769 68.4466C122.811 68.4013 122.835 68.3419 122.836 68.2798C123.066 67.4467 129.824 43.0779 129.828 43.0629C129.843 42.9954 129.836 42.9249 129.808 42.8617C129.78 42.7985 129.732 42.7461 129.672 42.7122C129.612 42.6783 129.542 42.6649 129.473 42.6738C129.405 42.6827 129.341 42.7135 129.291 42.7616ZM122.262 67.9401C120.599 68.1924 108.061 70.1079 107.57 70.1832V65.8062L128.88 44.0925C128.859 44.1693 122.425 67.2712 122.262 67.9401ZM38.8851 37.346C37.8118 36.7946 36.7565 38.28 37.8442 39.6463C37.9951 39.8574 38.2209 40.0027 38.4756 40.0526C38.7302 40.1024 38.9942 40.053 39.2135 39.9144C39.372 39.729 39.4899 39.5125 39.5597 39.2788C39.6294 39.0451 39.6495 38.7994 39.6185 38.5574C39.5876 38.3155 39.5064 38.0827 39.38 37.8741C39.2537 37.6654 39.0851 37.4855 38.8851 37.346ZM133.734 39.3525C133.711 39.434 133.722 39.5211 133.764 39.5947C133.806 39.6682 133.875 39.7221 133.956 39.7446C134.038 39.7671 134.125 39.7562 134.199 39.7145C134.272 39.6727 134.326 39.6035 134.348 39.522C134.487 39.0728 134.481 38.5912 134.329 38.1461C134.177 37.7011 133.889 37.3155 133.504 37.0447C132.084 36.003 130.077 37.3761 130.246 39.0091C130.25 39.0904 130.285 39.1671 130.344 39.2232C130.403 39.2794 130.481 39.3107 130.562 39.3107C130.644 39.3107 130.722 39.2794 130.781 39.2232C130.84 39.1671 130.875 39.0904 130.879 39.0091C130.86 38.7753 130.895 38.5403 130.98 38.3217C131.064 38.1031 131.198 37.9064 131.369 37.7465C131.541 37.5866 131.746 37.4675 131.97 37.3981C132.194 37.3288 132.431 37.3109 132.663 37.346C132.867 37.4034 133.058 37.5016 133.224 37.6348C133.39 37.7679 133.526 37.9332 133.627 38.1207C133.727 38.3081 133.788 38.5139 133.806 38.7256C133.825 38.9373 133.8 39.1506 133.734 39.3525ZM72.0854 97.6823C72.0733 97.2749 71.4369 97.2711 71.4482 97.6823C71.6863 105.364 71.4924 113.052 70.8674 120.712C69.3394 120.602 67.8103 120.91 66.4438 121.602C66.0777 121.783 66.3986 122.334 66.7639 122.153C68.1212 121.47 69.6481 121.199 71.1574 121.372C71.3382 121.395 71.4632 121.21 71.4745 121.055C72.1235 113.282 72.3275 105.478 72.0854 97.6823ZM80.6909 121.387C79.9106 120.887 78.2595 121.319 77.2585 121.146C77.0131 121.098 76.7869 120.98 76.6069 120.806C76.4669 120.653 76.359 120.473 76.2897 120.278C76.2203 120.082 76.1909 119.874 76.2032 119.667C75.6832 112.252 75.4844 104.817 75.6074 97.3841C75.6074 97.2996 75.5739 97.2185 75.5141 97.1588C75.4544 97.099 75.3733 97.0655 75.2888 97.0655C75.2043 97.0655 75.1233 97.099 75.0635 97.1588C75.0038 97.2185 74.9702 97.2996 74.9702 97.3841C74.8678 103.711 74.9921 110.034 75.3551 116.311C75.5811 120.202 75.6052 120.372 75.7844 120.755C75.9652 121.092 76.2369 121.371 76.5685 121.562C77.5108 122.153 79.665 121.486 80.37 121.938C80.7165 122.157 81.0351 121.608 80.6909 121.387ZM86.3777 43.795C86.9388 44.2432 87.1203 44.9527 87.5278 45.5184C87.7037 45.81 87.9575 46.0467 88.2606 46.2019C88.5638 46.3571 88.9042 46.4245 89.2437 46.3966C90.8879 46.0788 89.9826 43.9464 92.7544 36.1996C92.8561 35.9171 92.9691 35.4908 93.3344 35.7514C93.6357 35.9623 93.6967 36.4075 93.833 36.72C93.9985 37.0584 94.2479 37.3488 94.5574 37.5636C94.8669 37.7784 95.2262 37.9104 95.6011 37.9471C95.976 37.9838 96.354 37.9239 96.6993 37.7732C97.0445 37.6225 97.3455 37.386 97.5735 37.0861C97.8107 36.7502 97.2571 36.4338 97.0229 36.7652C96.8723 36.9419 96.6853 37.0838 96.4747 37.1814C96.2642 37.279 96.035 37.3299 95.8029 37.3306C95.5708 37.3313 95.3413 37.2819 95.1301 37.1856C94.9189 37.0893 94.7311 36.9485 94.5794 36.7728C94.1833 36.2523 94.2284 35.5209 93.5912 35.1669C93.4636 35.0889 93.3189 35.0433 93.1696 35.0341C93.0203 35.0249 92.871 35.0524 92.7348 35.1142C92.4481 35.3048 92.2468 35.5995 92.1737 35.9359C89.4433 43.4523 90.1769 45.907 88.9416 45.7857C87.9007 45.6735 87.6762 44.024 86.8326 43.3499C86.5095 43.093 86.0568 43.5359 86.3777 43.795ZM65.1091 43.844C64.9305 44.2569 64.6801 44.6348 64.3694 44.9602C64.1359 45.2013 63.7096 45.6502 63.3323 45.62C63.0626 45.6005 63.025 45.3112 62.7824 44.4285C62.6385 43.9193 61.1494 38.6965 60.5499 36.595C60.5349 36.5415 60.5061 36.4929 60.4664 36.4539C60.4268 36.415 60.3777 36.3871 60.3239 36.373C60.2702 36.3589 60.2137 36.3591 60.16 36.3736C60.1064 36.3881 60.0574 36.4164 60.0181 36.4557C59.5714 36.9343 58.9596 37.2253 58.3065 37.2701C57.6534 37.3148 57.0076 37.1099 56.4998 36.6967C56.1052 36.2975 55.8038 35.816 55.6171 35.2867C55.4514 34.9101 54.9045 35.2377 55.0665 35.6068C55.2851 36.2175 55.6467 36.7671 56.121 37.2096C56.6842 37.6489 57.3758 37.8919 58.09 37.9014C58.8043 37.9109 59.5021 37.6865 60.0769 37.2624C62.5226 45.8234 62.3923 45.8257 62.8713 46.1247C63.0349 46.21 63.2176 46.2523 63.4021 46.2475C63.5865 46.2428 63.7668 46.1912 63.9258 46.0976C64.7041 45.6654 65.3129 44.9822 65.6529 44.1596C65.8254 43.7942 65.2756 43.4704 65.1091 43.844ZM75.4154 29.4003C75.6839 29.2905 75.9795 29.2649 76.2629 29.3269C76.5463 29.3889 76.8042 29.5356 77.0024 29.7475C77.4762 30.2676 77.8246 30.8894 78.0207 31.565C78.1638 31.9462 78.7785 31.7797 78.6354 31.3956C78.1977 30.2303 77.5809 28.8535 76.1844 28.6614C75.68 28.6296 75.1809 28.78 74.7781 29.0853C74.3752 29.3905 74.0954 29.8303 73.9895 30.3245C73.8148 30.881 73.7123 31.4577 73.6845 32.0403C73.6574 32.4478 74.2916 32.4478 74.3217 32.0403C74.3782 31.1688 74.5296 29.8507 75.4154 29.4003ZM20.7808 115.365C20.8649 115.365 20.9456 115.331 21.0051 115.272C21.0645 115.213 21.0979 115.132 21.0979 115.048C21.0979 114.964 21.0645 114.883 21.0051 114.824C20.9456 114.764 20.8649 114.731 20.7808 114.731H19.6985C19.6144 114.731 19.5337 114.764 19.4742 114.824C19.4148 114.883 19.3813 114.964 19.3813 115.048C19.3813 115.132 19.4148 115.213 19.4742 115.272C19.5337 115.331 19.6144 115.365 19.6985 115.365H20.7808ZM92.4637 117.718C88.861 117.966 85.2501 118.061 81.6369 117.963C81.555 117.967 81.4778 118.002 81.4212 118.061C81.3646 118.121 81.3331 118.2 81.3331 118.282C81.3331 118.364 81.3646 118.443 81.4212 118.502C81.4778 118.561 81.555 118.597 81.6369 118.601C85.2477 118.702 88.8612 118.62 92.4637 118.355C92.8704 118.325 92.8749 117.69 92.4637 117.718ZM97.6639 120.531L90.955 120.832C90.5482 120.851 90.5445 121.489 90.955 121.47C93.191 121.372 95.4273 121.271 97.6639 121.168C98.0714 121.15 98.0714 120.515 97.6639 120.531ZM140.163 119.494H131.284C131.2 119.494 131.119 119.528 131.059 119.587C130.999 119.647 130.966 119.728 130.966 119.813C130.966 119.897 130.999 119.978 131.059 120.038C131.119 120.098 131.2 120.131 131.284 120.131H140.165C140.249 120.131 140.33 120.097 140.39 120.037C140.45 119.977 140.483 119.896 140.483 119.812C140.482 119.727 140.449 119.646 140.389 119.587C140.329 119.527 140.248 119.494 140.163 119.494ZM28.5902 25.8105C28.6738 25.8095 28.7538 25.7759 28.8131 25.7168C28.8723 25.6577 28.9061 25.5778 28.9073 25.4941C28.922 25.0625 29.0951 24.6515 29.3935 24.3393C29.6919 24.0272 30.0947 23.8358 30.5252 23.8016C30.6065 23.7977 30.6832 23.7626 30.7394 23.7036C30.7955 23.6446 30.8268 23.5663 30.8268 23.4849C30.8268 23.4035 30.7955 23.3252 30.7394 23.2662C30.6832 23.2072 30.6065 23.1721 30.5252 23.1682C28.4923 23.2367 27.7925 25.8459 28.5902 25.8105ZM47.3362 22.9633C47.7767 23.0308 48.1896 23.2202 48.5281 23.5101C48.8666 23.8001 49.1172 24.1789 49.2516 24.6038C49.2628 24.6442 49.2817 24.6819 49.3075 24.715C49.3332 24.748 49.3652 24.7756 49.4016 24.7963C49.438 24.817 49.4781 24.8303 49.5196 24.8354C49.5612 24.8406 49.6033 24.8375 49.6437 24.8264C49.684 24.8153 49.7218 24.7963 49.7548 24.7706C49.7879 24.7448 49.8155 24.7129 49.8362 24.6765C49.8568 24.6401 49.8701 24.5999 49.8753 24.5584C49.8805 24.5168 49.8774 24.4747 49.8663 24.4343C49.7024 23.9037 49.3959 23.4282 48.9803 23.0597C48.5647 22.6913 48.0559 22.444 47.5095 22.3449C47.4689 22.3335 47.4264 22.3303 47.3845 22.3353C47.3427 22.3403 47.3022 22.3536 47.2654 22.3742C47.2287 22.3949 47.1964 22.4226 47.1703 22.4558C47.1443 22.4889 47.125 22.5269 47.1136 22.5675C47.1023 22.6081 47.099 22.6505 47.104 22.6924C47.1091 22.7343 47.1223 22.7747 47.143 22.8115C47.1636 22.8482 47.1913 22.8806 47.2245 22.9066C47.2576 22.9327 47.2956 22.9519 47.3362 22.9633ZM124.313 27.8472L124.916 27.4705C124.758 27.9093 124.72 28.382 124.804 28.8406C124.888 29.2991 125.093 29.7271 125.396 30.0811C125.699 30.4351 126.091 30.7024 126.531 30.8559C126.972 31.0094 127.445 31.0436 127.902 30.9549C128.525 30.8357 129.084 30.4973 129.478 30.0011C129.872 29.5048 130.074 28.8837 130.049 28.2506C130.024 27.6175 129.773 27.0144 129.341 26.5509C128.909 26.0874 128.325 25.7942 127.695 25.7246C127.967 25.4911 127.669 25.0045 127.337 25.2117L123.996 27.2935C123.646 27.515 123.963 28.0656 124.313 27.8472ZM129.412 28.3526C129.412 28.7667 129.284 29.1708 129.046 29.5097C128.808 29.8486 128.471 30.1059 128.081 30.2467C127.692 30.3875 127.268 30.4048 126.869 30.2964C126.469 30.188 126.112 29.9591 125.847 29.6408C125.582 29.3225 125.422 28.9303 125.388 28.5175C125.353 28.1047 125.447 27.6914 125.656 27.3339C125.865 26.9763 126.179 26.6918 126.556 26.5191C126.932 26.3464 127.353 26.2938 127.76 26.3686C128.224 26.454 128.643 26.6993 128.945 27.0617C129.247 27.4242 129.412 27.8809 129.412 28.3526ZM33.7429 31.8068C34.1605 31.7271 34.5527 31.548 34.8865 31.2848C35.2203 31.0216 35.4859 30.6819 35.6608 30.2945C35.8358 29.9071 35.9149 29.4833 35.8916 29.0588C35.8683 28.6343 35.7433 28.2217 35.527 27.8558C35.3107 27.4898 35.0095 27.1813 34.6489 26.9562C34.2883 26.7311 33.8788 26.5961 33.455 26.5625C33.0313 26.5289 32.6056 26.5978 32.2141 26.7633C31.8225 26.9289 31.4765 27.1861 31.2053 27.5135C30.8726 27.9374 30.6756 28.452 30.6401 28.9898C30.6047 29.5276 30.7324 30.0635 31.0067 30.5275C31.2809 30.9915 31.6888 31.3618 32.1771 31.5901C32.6653 31.8184 33.211 31.8939 33.7429 31.8068ZM33.6036 27.2175C34.0654 27.3069 34.482 27.5532 34.783 27.9146C35.0841 28.276 35.2509 28.7304 35.2554 29.2007C35.2552 29.6149 35.1275 30.019 34.8895 30.358C34.6515 30.697 34.3149 30.9545 33.9254 31.0954C33.5358 31.2363 33.1124 31.2537 32.7126 31.1454C32.3128 31.0371 31.9561 30.8082 31.691 30.4899C31.4259 30.1717 31.2653 29.7794 31.2311 29.3666C31.1968 28.9539 31.2906 28.5405 31.4996 28.1829C31.7086 27.8253 32.0227 27.5408 32.3992 27.368C32.7756 27.1953 33.1962 27.1427 33.6036 27.2175ZM47.7354 31.803C48.153 31.7233 48.5452 31.5443 48.879 31.2811C49.2128 31.0178 49.4784 30.6782 49.6533 30.2908C49.8283 29.9033 49.9074 29.4795 49.8841 29.055C49.8608 28.6306 49.7357 28.218 49.5194 27.852C49.3032 27.486 49.002 27.1775 48.6414 26.9524C48.2808 26.7273 47.8713 26.5923 47.4475 26.5587C47.0238 26.5252 46.5981 26.5941 46.2066 26.7596C45.815 26.9251 45.469 27.1824 45.1978 27.5097C44.8655 27.9338 44.6688 28.4483 44.6336 28.9859C44.5984 29.5235 44.7262 30.0592 45.0003 30.5231C45.2744 30.9869 45.6822 31.3572 46.1701 31.5855C46.6581 31.8139 47.2037 31.8897 47.7354 31.803ZM47.5998 27.2175C48.0616 27.3069 48.4783 27.5532 48.7793 27.9146C49.0803 28.276 49.2472 28.7304 49.2516 29.2007C49.2514 29.615 49.1235 30.0191 48.8854 30.3581C48.6472 30.6971 48.3104 30.9545 47.9208 31.0953C47.5311 31.236 47.1076 31.2533 46.7078 31.1447C46.308 31.0361 45.9513 30.807 45.6864 30.4885C45.4215 30.17 45.2611 29.7775 45.2272 29.3646C45.1933 28.9517 45.2874 28.5384 45.4968 28.1809C45.7061 27.8234 46.0206 27.5391 46.3973 27.3667C46.774 27.1944 47.1947 27.1422 47.6021 27.2175H47.5998Z" fill="black"/>
<path id="Vector_6" d="M32.4977 29.4162C32.4977 29.6693 32.5982 29.9121 32.7772 30.0911C32.9562 30.27 33.1989 30.3706 33.452 30.3706C33.7051 30.3706 33.9478 30.27 34.1268 30.0911C34.3058 29.9121 34.4063 29.6693 34.4063 29.4162C34.4063 29.1631 34.3058 28.9204 34.1268 28.7414C33.9478 28.5625 33.7051 28.4619 33.452 28.4619C33.1989 28.4619 32.9562 28.5625 32.7772 28.7414C32.5982 28.9204 32.4977 29.1631 32.4977 29.4162Z" fill="black"/>
<path id="Vector_7" d="M46.2834 29.4162C46.2834 29.6693 46.384 29.9121 46.563 30.0911C46.7419 30.27 46.9847 30.3706 47.2378 30.3706C47.4909 30.3706 47.7336 30.27 47.9126 30.0911C48.0916 29.9121 48.1921 29.6693 48.1921 29.4162C48.1921 29.1631 48.0916 28.9204 47.9126 28.7414C47.7336 28.5625 47.4909 28.4619 47.2378 28.4619C46.9847 28.4619 46.7419 28.5625 46.563 28.7414C46.384 28.9204 46.2834 29.1631 46.2834 29.4162Z" fill="black"/>
<path id="Vector_8" d="M126.445 28.5676C126.445 28.7563 126.501 28.9409 126.606 29.0978C126.711 29.2548 126.86 29.3771 127.034 29.4493C127.209 29.5215 127.401 29.5404 127.586 29.5035C127.771 29.4666 127.941 29.3756 128.075 29.2421C128.208 29.1086 128.299 28.9384 128.336 28.7533C128.372 28.5681 128.353 28.3762 128.281 28.2018C128.209 28.0275 128.086 27.8785 127.929 27.7737C127.772 27.6689 127.588 27.6131 127.399 27.6132C127.273 27.6131 127.149 27.6378 127.034 27.6857C126.918 27.7336 126.813 27.8039 126.724 27.8926C126.635 27.9812 126.565 28.0865 126.517 28.2023C126.47 28.3181 126.445 28.4422 126.445 28.5676ZM139.776 32.018C140.193 31.9368 140.585 31.7561 140.917 31.4911C141.25 31.2262 141.514 30.8849 141.686 30.4962C141.859 30.1075 141.935 29.6829 141.908 29.2585C141.881 28.8341 141.753 28.4224 141.533 28.0584C141.743 28.148 142.044 28.3378 142.211 28.0584C142.232 28.0224 142.246 27.9827 142.251 27.9414C142.257 27.9002 142.254 27.8582 142.244 27.8179C142.233 27.7776 142.215 27.7398 142.19 27.7066C142.164 27.6734 142.133 27.6455 142.097 27.6245C140.819 27.0862 139.585 26.4483 138.406 25.7166C138.055 25.502 137.739 26.0526 138.085 26.2672C138.38 26.448 138.674 26.6258 138.972 26.7945C138.533 26.8463 138.114 27.0068 137.753 27.2613C137.392 27.5158 137.1 27.8564 136.904 28.2522C136.708 28.648 136.613 29.0864 136.629 29.5279C136.645 29.9694 136.771 30.3999 136.995 30.7805C137.28 31.2436 137.697 31.6098 138.194 31.8307C138.69 32.0516 139.241 32.1169 139.776 32.018ZM139.636 27.4287C140.098 27.5183 140.515 27.7646 140.816 28.126C141.117 28.4873 141.283 28.9416 141.288 29.4119C141.288 29.8261 141.16 30.2302 140.922 30.5692C140.684 30.9083 140.348 31.1657 139.958 31.3066C139.569 31.4475 139.145 31.465 138.745 31.3566C138.345 31.2483 137.989 31.0194 137.724 30.7012C137.459 30.3829 137.298 29.9907 137.264 29.5779C137.23 29.1651 137.323 28.7518 137.532 28.3941C137.741 28.0365 138.055 27.752 138.432 27.5792C138.808 27.4065 139.229 27.3539 139.636 27.4287Z" fill="black"/>
<path id="Vector_9" d="M138.319 29.6272C138.319 29.8803 138.419 30.123 138.598 30.302C138.777 30.481 139.02 30.5815 139.273 30.5815C139.526 30.5815 139.769 30.481 139.948 30.302C140.127 30.123 140.227 29.8803 140.227 29.6272C140.227 29.3741 140.127 29.1313 139.948 28.9524C139.769 28.7734 139.526 28.6729 139.273 28.6729C139.02 28.6729 138.777 28.7734 138.598 28.9524C138.419 29.1313 138.319 29.3741 138.319 29.6272Z" fill="black"/>
<path id="Vector_10" d="M68.9445 33.0775C69.362 32.9978 69.7543 32.8187 70.0881 32.5555C70.4219 32.2923 70.6875 31.9527 70.8624 31.5652C71.0373 31.1778 71.1165 30.754 71.0932 30.3295C71.0699 29.9051 70.9448 29.4924 70.7285 29.1265C70.5122 28.7605 70.2111 28.452 69.8505 28.2269C69.4898 28.0018 69.0804 27.8668 68.6566 27.8332C68.2328 27.7997 67.8072 27.8685 67.4156 28.0341C67.0241 28.1996 66.6781 28.4569 66.4069 28.7842C66.0746 29.2083 65.8779 29.7227 65.8427 30.2604C65.8074 30.798 65.9352 31.3337 66.2094 31.7975C66.4835 32.2614 66.8912 32.6317 67.3792 32.86C67.8672 33.0884 68.4127 33.1642 68.9445 33.0775ZM66.7165 29.438C66.9455 29.0563 67.2944 28.7613 67.7088 28.5989C68.1232 28.4366 68.5797 28.416 69.007 28.5405C69.4343 28.665 69.8083 28.9276 70.0706 29.2871C70.333 29.6467 70.4688 30.083 70.457 30.5279C70.4447 30.2142 70.3166 29.9161 70.0973 29.6914C69.8781 29.4666 69.5834 29.3311 69.27 29.311C68.9567 29.2908 68.6471 29.3876 68.4009 29.5825C68.1548 29.7774 67.9896 30.0566 67.9373 30.3662C67.885 30.6758 67.9493 30.9937 68.1179 31.2587C68.2864 31.5236 68.5471 31.7166 68.8496 31.8005C69.1522 31.8844 69.4751 31.8532 69.756 31.7129C70.0368 31.5726 70.2557 31.3331 70.3703 31.0408C70.2902 31.3155 70.1524 31.57 69.9661 31.7872C69.7798 32.0044 69.5493 32.1794 69.2901 32.3004C69.0308 32.4215 68.7486 32.4858 68.4625 32.4892C68.1764 32.4925 67.8928 32.4348 67.6308 32.3198C67.3687 32.2049 67.1342 32.0353 66.9429 31.8226C66.7516 31.6098 66.6079 31.3586 66.5213 31.0859C66.4348 30.8131 66.4075 30.525 66.4411 30.2409C66.4748 29.9567 66.5686 29.683 66.7165 29.438ZM84.2137 33.0775C84.6312 32.9976 85.0233 32.8185 85.357 32.5552C85.6907 32.292 85.9561 31.9523 86.131 31.5648C86.3058 31.1774 86.3849 30.7536 86.3615 30.3292C86.3381 29.9048 86.213 29.4922 85.9967 29.1264C85.7803 28.7605 85.4792 28.452 85.1186 28.227C84.758 28.0019 84.3486 27.8669 83.9248 27.8334C83.5011 27.7998 83.0755 27.8687 82.684 28.0342C82.2925 28.1997 81.9466 28.4569 81.6754 28.7842C81.3425 29.2082 81.1455 29.7228 81.11 30.2607C81.0746 30.7986 81.2024 31.3346 81.4768 31.7987C81.7511 32.2627 82.1592 32.633 82.6475 32.8612C83.1359 33.0894 83.6818 33.1648 84.2137 33.0775ZM84.0781 28.4882C84.5397 28.5779 84.9561 28.8243 85.257 29.1857C85.5578 29.547 85.7246 30.0012 85.7292 30.4714C85.7285 30.8878 85.5989 31.2937 85.3582 31.6335C85.1176 31.9733 84.7776 32.2302 84.3851 32.369C83.9926 32.5079 83.5667 32.5218 83.1659 32.4088C82.7651 32.2959 82.4092 32.0617 82.1469 31.7383C81.9503 31.4979 81.8144 31.2137 81.7507 30.9098C81.8336 31.2194 82.0299 31.4864 82.3007 31.6579C82.5714 31.8294 82.8968 31.8928 83.2121 31.8356C83.5274 31.7783 83.8097 31.6045 84.0028 31.3487C84.1959 31.0929 84.2858 30.7739 84.2545 30.4549C84.2233 30.1359 84.0732 29.8404 83.8341 29.627C83.595 29.4135 83.2843 29.2978 82.9639 29.3029C82.6434 29.3079 82.3366 29.4333 82.1043 29.6541C81.872 29.8749 81.7313 30.175 81.71 30.4948C81.7057 30.198 81.7671 29.904 81.8899 29.6339C82.0127 29.3637 82.1938 29.1241 82.4202 28.9323C82.6467 28.7404 82.9127 28.6011 83.1994 28.5243C83.486 28.4476 83.7861 28.4352 84.0781 28.4882ZM59.5361 125.162H53.7589C53.6744 125.162 53.5934 125.196 53.5336 125.255C53.4739 125.315 53.4403 125.396 53.4403 125.481C53.4403 125.565 53.4739 125.646 53.5336 125.706C53.5934 125.766 53.6744 125.799 53.7589 125.799H59.5361C59.6206 125.799 59.7016 125.766 59.7614 125.706C59.8211 125.646 59.8547 125.565 59.8547 125.481C59.8547 125.396 59.8211 125.315 59.7614 125.255C59.7016 125.196 59.6206 125.162 59.5361 125.162ZM29.5603 125.162H8.21644C8.13194 125.162 8.0509 125.196 7.99115 125.255C7.93139 125.315 7.89783 125.396 7.89783 125.481C7.89783 125.565 7.93139 125.646 7.99115 125.706C8.0509 125.766 8.13194 125.799 8.21644 125.799H29.5603C29.6448 125.799 29.7259 125.766 29.7856 125.706C29.8454 125.646 29.8789 125.565 29.8789 125.481C29.8789 125.396 29.8454 125.315 29.7856 125.255C29.7259 125.196 29.6448 125.162 29.5603 125.162ZM32.3661 126.207C32.3239 126.206 32.2821 126.214 32.2432 126.23C32.2043 126.246 32.1692 126.27 32.1401 126.301C31.9842 126.457 31.8139 126.595 31.9141 126.813C31.9359 126.878 31.9818 126.932 32.0422 126.964C32.1167 127.006 32.2045 127.018 32.2877 126.998C32.3924 126.967 32.4225 126.922 32.589 126.752C32.6332 126.707 32.6633 126.651 32.6755 126.589C32.6878 126.528 32.6816 126.464 32.6579 126.406C32.6341 126.348 32.5938 126.298 32.5419 126.262C32.49 126.227 32.4288 126.208 32.3661 126.207ZM35.1906 126.465C35.1458 126.421 35.0891 126.391 35.0275 126.379C34.9659 126.367 34.9021 126.374 34.8442 126.398C34.7863 126.422 34.7367 126.463 34.7018 126.515C34.6668 126.567 34.6479 126.628 34.6475 126.691C34.6357 126.787 34.6447 126.885 34.6739 126.978C34.7026 127.045 34.7536 127.099 34.8181 127.133C34.8826 127.166 34.9567 127.176 35.0277 127.161C35.0987 127.146 35.1624 127.107 35.2077 127.05C35.2531 126.993 35.2774 126.923 35.2765 126.85C35.2772 126.696 35.287 126.54 35.1906 126.465ZM28.7951 127.504C28.753 127.503 28.7112 127.511 28.6723 127.527C28.6334 127.544 28.5983 127.568 28.5691 127.598C28.4109 127.757 28.2437 127.892 28.3431 128.111C28.3653 128.175 28.4111 128.229 28.4712 128.261C28.5454 128.305 28.6335 128.317 28.7167 128.296C28.8214 128.266 28.847 128.221 29.018 128.051C29.062 128.006 29.0919 127.949 29.104 127.887C29.1162 127.826 29.11 127.762 29.0863 127.704C29.0626 127.646 29.0224 127.596 28.9706 127.56C28.9189 127.525 28.8578 127.505 28.7951 127.504ZM100.429 118.246H97.993C97.9085 118.246 97.8275 118.28 97.7677 118.339C97.708 118.399 97.6744 118.48 97.6744 118.565C97.6744 118.649 97.708 118.73 97.7677 118.79C97.8275 118.85 97.9085 118.883 97.993 118.883H100.429C100.513 118.883 100.594 118.85 100.654 118.79C100.714 118.73 100.748 118.649 100.748 118.565C100.748 118.48 100.714 118.399 100.654 118.339C100.594 118.28 100.513 118.246 100.429 118.246ZM101.402 121.334H100.263C100.22 121.332 100.177 121.339 100.137 121.354C100.097 121.369 100.06 121.392 100.029 121.421C99.998 121.451 99.9732 121.486 99.9563 121.526C99.9394 121.565 99.9307 121.608 99.9307 121.651C99.9307 121.694 99.9394 121.736 99.9563 121.776C99.9732 121.815 99.998 121.851 100.029 121.88C100.06 121.91 100.097 121.933 100.137 121.948C100.177 121.963 100.22 121.97 100.263 121.968H101.402C101.483 121.964 101.56 121.929 101.616 121.87C101.672 121.811 101.704 121.732 101.704 121.651C101.704 121.569 101.672 121.491 101.616 121.432C101.56 121.373 101.483 121.338 101.402 121.334ZM54.9467 122.783H56.7341C56.777 122.785 56.8199 122.778 56.8601 122.763C56.9004 122.748 56.9372 122.725 56.9683 122.695C56.9993 122.666 57.0241 122.63 57.041 122.591C57.0579 122.551 57.0667 122.509 57.0667 122.466C57.0667 122.423 57.0579 122.38 57.041 122.341C57.0241 122.301 56.9993 122.266 56.9683 122.236C56.9372 122.207 56.9004 122.184 56.8601 122.169C56.8199 122.154 56.777 122.147 56.7341 122.149H54.9467C54.8654 122.153 54.7887 122.188 54.7326 122.247C54.6764 122.306 54.6451 122.384 54.6451 122.466C54.6451 122.547 54.6764 122.626 54.7326 122.685C54.7887 122.743 54.8654 122.779 54.9467 122.783ZM59.17 122.13C59.2129 122.132 59.2558 122.125 59.296 122.11C59.3363 122.095 59.3731 122.072 59.4042 122.042C59.4352 122.013 59.46 121.977 59.4769 121.938C59.4938 121.898 59.5026 121.856 59.5026 121.813C59.5026 121.77 59.4938 121.727 59.4769 121.688C59.46 121.648 59.4352 121.613 59.4042 121.583C59.3731 121.554 59.3363 121.531 59.296 121.516C59.2558 121.501 59.2129 121.494 59.17 121.496H58.0311C57.9498 121.5 57.8731 121.535 57.817 121.594C57.7608 121.653 57.7295 121.731 57.7295 121.813C57.7295 121.894 57.7608 121.973 57.817 122.032C57.8731 122.09 57.9498 122.126 58.0311 122.13H59.17ZM143.633 122.209C142.714 122.227 141.797 122.243 140.877 122.262C140.792 122.262 140.711 122.296 140.651 122.355C140.592 122.415 140.558 122.496 140.558 122.581C140.558 122.665 140.592 122.746 140.651 122.806C140.711 122.866 140.792 122.899 140.877 122.899C141.797 122.88 142.714 122.865 143.633 122.847C143.715 122.843 143.793 122.807 143.849 122.748C143.906 122.688 143.937 122.61 143.937 122.528C143.937 122.446 143.906 122.367 143.849 122.307C143.793 122.248 143.715 122.213 143.633 122.209ZM146.56 121.983H145.587C145.505 121.987 145.428 122.022 145.372 122.081C145.316 122.14 145.285 122.218 145.285 122.299C145.285 122.381 145.316 122.459 145.372 122.518C145.428 122.577 145.505 122.612 145.587 122.616H146.56C146.603 122.618 146.645 122.612 146.686 122.597C146.726 122.582 146.763 122.559 146.794 122.529C146.825 122.499 146.85 122.464 146.867 122.424C146.883 122.385 146.892 122.342 146.892 122.299C146.892 122.256 146.883 122.214 146.867 122.174C146.85 122.135 146.825 122.099 146.794 122.07C146.763 122.04 146.726 122.017 146.686 122.002C146.645 121.987 146.603 121.981 146.56 121.983Z" fill="black"/>
<path id="Vector_11" d="M141.077 38.8133C140.742 37.162 140.158 35.5713 139.345 34.0959C139.152 33.7336 138.605 34.0545 138.794 34.416C138.832 34.4876 138.865 34.5666 138.903 34.6352C138.876 34.6479 138.851 34.6644 138.828 34.6842C136.679 36.8233 136.278 39.9311 137.135 41.5286C138.326 43.7521 141.743 42.5312 141.077 38.8133ZM139.995 41.4413C138.675 42.8957 136.831 41.5128 137.471 38.4623C137.728 37.2424 138.325 36.1199 139.191 35.2235C139.612 36.1183 139.959 37.0464 140.228 37.9983C140.538 39.092 140.841 40.5088 139.995 41.4413Z" fill="#FFD35C"/>
</g>
</svg>
