<svg width="151" height="151" viewBox="0 0 151 151" fill="none" xmlns="http://www.w3.org/2000/svg">
<g id="Question-1--Streamline-Barcelona">
<path id="Vector" d="M65.2386 35.5241L58.4054 30.0204C58.0597 29.7417 57.564 30.2313 57.9128 30.5122L64.7467 36.016C65.0924 36.2946 65.5881 35.8051 65.2386 35.5241ZM72.0175 36.2946C68.3478 33.3887 58.9251 25.9274 57.8827 25.1034C57.5347 24.8277 57.0391 25.3173 57.39 25.5952L71.5257 36.7872C71.8736 37.0622 72.3693 36.5726 72.0175 36.2946ZM73.5661 31.0688L64.9343 24.8021C64.5712 24.5384 64.2232 25.1425 64.5825 25.4046L73.2144 31.6714C73.5782 31.9365 73.9262 31.334 73.5661 31.0688ZM115.893 39.0409C112.675 36.7302 109.648 34.164 106.842 31.3671C106.777 31.3054 106.689 31.2718 106.599 31.2733C106.509 31.2748 106.423 31.3114 106.359 31.3752C106.295 31.439 106.258 31.5252 106.257 31.6154C106.255 31.7057 106.289 31.793 106.351 31.859C109.199 34.6964 112.272 37.2994 115.54 39.6427C115.906 39.9041 116.254 39.3007 115.893 39.0409ZM109.517 26.9254C109.141 26.6836 108.789 27.2862 109.165 27.528C112.887 29.9055 116.291 32.748 119.294 35.9866C119.6 36.3165 120.092 35.8231 119.787 35.4947C116.742 32.2134 113.291 29.3337 109.517 26.9254ZM126.425 32.4081C122.755 28.4933 118.688 24.969 114.292 21.8916C113.923 21.634 113.575 22.2374 113.94 22.4942C118.287 25.5383 122.306 29.0258 125.933 32.9007C126.239 33.2283 126.732 32.7357 126.425 32.4081ZM14.926 37.7001C13.2554 35.9648 11.4928 34.3204 9.64593 32.7741C9.30472 32.4886 8.80911 32.9782 9.15333 33.2667C11 34.813 12.7626 36.4571 14.4334 38.192C14.7452 38.5159 15.2371 38.0233 14.926 37.7001ZM20.783 38.1272C21.143 38.3946 21.491 37.7898 21.134 37.5246C17.059 34.507 13.2802 31.1088 9.84855 27.3758C9.54726 27.0452 9.0524 27.5385 9.35594 27.8677C12.8287 31.6445 16.6552 35.08 20.783 38.1272ZM14.3784 60.546C14.0869 60.2047 13.5958 60.6966 13.8858 61.0378C16.575 64.1839 19.4483 67.1678 22.4905 69.974C22.8197 70.2752 23.313 69.7857 22.9831 69.4814C19.9407 66.6757 17.0674 63.692 14.3784 60.546ZM14.8424 53.4378C14.5366 53.1087 14.0455 53.602 14.3505 53.9297L23.2543 63.5091C23.5601 63.8383 24.0519 63.3449 23.7469 63.0173L14.8424 53.4378Z" fill="#CFF0FA"/>
<path id="Vector_2" d="M146.455 14.6245C146.453 14.5329 146.416 14.4455 146.351 14.3806C146.286 14.3158 146.199 14.2785 146.107 14.2766C142.895 14.0303 139.672 13.9195 136.453 13.8246C131.901 13.6891 5.83016 14.2766 5.76463 14.2766C5.67289 14.2783 5.58538 14.3155 5.52049 14.3804C5.45561 14.4453 5.41839 14.5328 5.41665 14.6245C5.04004 25.5763 5.41665 81.6487 5.41665 81.7263C5.41728 81.8024 5.44248 81.8762 5.4885 81.9367C5.53452 81.9973 5.59889 82.0413 5.67199 82.0622C11.0673 83.0181 32.9475 83.418 33.1915 83.2245C33.071 83.0181 32.955 82.8094 32.845 82.5955C28.1675 82.5383 12.2446 82.4449 6.11036 81.4311C6.0953 79.7258 5.90925 43.3183 5.90699 42.2359C7.63186 42.2412 33.2382 42.2661 36.9719 42.2646C36.7964 42.0494 36.6449 41.8158 36.52 41.5678C30.4777 41.5678 6.39131 41.5407 5.90775 41.5392C5.90247 37.1706 6.0953 15.2136 6.10358 14.9673C7.03305 14.9522 49.763 14.5206 51.4547 14.504C51.5301 17.6585 51.4148 32.5518 51.4909 32.6867C51.6952 32.5856 51.9178 32.5267 52.1454 32.5134C52.2057 28.9891 52.1597 14.8573 52.1515 14.4965C56.252 14.4573 102.431 14.5289 102.736 14.5289C102.757 16.0918 102.771 38.1324 102.736 41.2801C101.184 41.2952 52.1153 41.5505 51.3756 41.552C51.2574 41.7848 51.1399 42.0175 51.0194 42.2488C58.3542 42.2352 145.925 40.9683 146.132 40.9525C146.228 53.1726 146.229 69.3096 145.771 81.5734C145.319 81.5832 144.867 81.5907 144.415 81.5998V81.6849C144.411 81.7745 144.372 81.859 144.308 81.9209C144.243 81.9829 144.156 82.0174 144.067 82.0174C143.977 82.0174 143.891 81.9829 143.826 81.9209C143.761 81.859 143.723 81.7745 143.718 81.6849C143.718 81.5772 144.576 81.6043 132.599 81.8272C132.604 81.8741 132.6 81.9215 132.586 81.9666C132.573 82.0118 132.55 82.0537 132.52 82.0899C132.49 82.126 132.452 82.1556 132.41 82.1769C132.368 82.1982 132.322 82.2108 132.275 82.2138C132.228 82.2168 132.181 82.2102 132.137 82.1945C132.092 82.1787 132.051 82.1541 132.017 82.1221C131.982 82.0901 131.954 82.0514 131.935 82.0083C131.916 81.9653 131.906 81.9188 131.905 81.8717C131.9 81.7964 132.097 81.8355 129.106 81.889C129.106 82.3101 128.459 82.3116 128.415 81.9011C124.699 81.9658 120.983 82.0281 117.267 82.0879L117.292 82.4434C117.322 82.8915 116.625 82.8885 116.594 82.4434L116.572 82.0976C114.068 82.1376 97.1802 82.3786 91.2396 82.4464C90.9698 82.6998 90.6848 82.9365 90.3862 83.1552C100.955 83.0369 144.933 82.2905 146.11 82.2656C146.202 82.2637 146.289 82.2263 146.354 82.1613C146.419 82.0963 146.456 82.0087 146.458 81.9169C147.164 63.3456 146.843 32.0479 146.455 14.6245ZM103.432 41.2763C103.49 35.9556 103.437 14.9718 103.432 14.5372C112.431 14.5515 136.738 14.2931 145.763 14.956C145.876 20.1381 146.096 37.0094 146.123 40.264C137.568 40.8802 112.011 41.1867 103.432 41.2763Z" fill="#61C0FF"/>
<path id="Vector_3" d="M128.916 66.3101L128.785 66.4005C129.319 64.2033 129.392 61.9193 129 59.6924C128.951 59.4107 128.599 59.3873 128.419 59.5417C126.777 60.9223 125.436 62.6247 124.477 64.5438C124.321 63.6502 123.96 62.8049 123.423 62.0741C123.387 62.0171 123.335 61.9717 123.274 61.9431C123.213 61.9145 123.145 61.9039 123.078 61.9126C123.011 61.9213 122.948 61.9489 122.897 61.9922C122.845 62.0355 122.807 62.0926 122.786 62.1569C122.418 63.1009 122.066 64.0507 121.732 65.0063C121.269 62.217 120.057 59.6061 118.224 57.4531C118.181 57.4107 118.127 57.3802 118.069 57.3646C118.011 57.3489 117.949 57.3487 117.89 57.3639C117.832 57.379 117.778 57.4091 117.735 57.4511C117.691 57.4931 117.659 57.5457 117.642 57.6037C116.922 60.0352 116.808 62.6058 117.31 65.0914C117.022 64.8012 116.724 64.5202 116.416 64.2486C116.24 64.0979 115.88 64.1243 115.834 64.3992C115.583 65.8934 115.845 67.4286 116.579 68.7543C117.474 68.7468 117.401 68.7694 117.35 68.6911C116.698 67.6522 116.381 66.4383 116.441 65.2135C116.892 65.6425 117.319 66.095 117.722 66.5692C117.951 66.8389 118.4 66.5504 118.304 66.2303C117.555 63.6949 117.496 61.0055 118.134 58.4398C119.949 60.7783 121.021 63.6075 121.212 66.5617C121.215 66.6442 121.247 66.7229 121.303 66.784C121.358 66.8451 121.433 66.8847 121.515 66.8957C121.597 66.9068 121.68 66.8887 121.75 66.8445C121.819 66.8004 121.871 66.733 121.896 66.6544C122.301 65.4306 122.734 64.2169 123.195 63.0133C123.704 63.9206 123.934 64.9584 123.855 65.996C123.824 66.4171 124.407 66.4276 124.539 66.0887C125.382 63.9405 126.709 62.0153 128.416 60.4622C128.714 62.7012 128.523 64.9783 127.856 67.1364C127.84 67.2029 127.843 67.2728 127.865 67.3375C127.888 67.4022 127.929 67.4589 127.983 67.5006C128.037 67.5424 128.103 67.5674 128.171 67.5725C128.239 67.5777 128.308 67.5627 128.368 67.5296L128.872 67.1809C128.911 67.5127 128.852 67.8485 128.704 68.1478C128.556 68.4472 128.324 68.6973 128.037 68.8681C127.976 68.9024 127.926 68.9551 127.896 69.0187C128.23 69.0353 128.563 69.0503 128.896 69.0684C130.074 67.8474 129.529 65.8853 128.916 66.3101Z" fill="#6DD3A8"/>
<path id="Vector_4" d="M146.528 117.628C144.986 117.633 123.054 117.72 119.89 117.734C119.769 117.96 119.644 118.186 119.513 118.407C119.603 118.443 141.694 118.339 146.524 118.324C146.616 118.324 146.705 118.288 146.771 118.223C146.836 118.158 146.874 118.07 146.874 117.978C146.875 117.885 146.838 117.797 146.773 117.731C146.709 117.665 146.62 117.628 146.528 117.628Z" fill="#A76C6C"/>
<path id="Vector_5" d="M123.743 104.867C116.173 94.9543 97.7452 89.7737 97.7452 89.7737C94.669 88.8764 91.7064 88.0581 88.8572 87.319C88.8431 87.6908 88.7519 88.0557 88.5894 88.3904C88.427 88.7252 88.1968 89.0226 87.9134 89.2638C87.3269 89.6822 86.6837 90.015 86.0033 90.252C82.4541 91.6786 78.206 91.6831 74.9099 89.5816C73.7914 88.8706 73.2995 88.366 73.1338 86.4475C73.0594 85.4894 73.0879 84.526 73.2189 83.574C58.6886 80.351 49.5597 78.8159 48.2001 75.7556C46.3502 71.5956 47.0289 60.808 47.1509 59.0523C42.3523 59.2626 37.5742 58.3064 33.2262 56.2654C32.197 61.3328 31.4544 66.4543 31.0019 71.6054C30.9957 71.6845 30.9633 71.7593 30.9098 71.818C30.8564 71.8766 30.7849 71.9158 30.7067 71.9293C30.7067 75.5221 31.2076 79.4321 32.842 82.5971C37.4547 91.5159 54.4593 96.2747 57.7584 98.389C60.4926 100.142 59.6814 114.12 59.4637 117.254C64.4349 115.814 70.4396 116.617 75.3799 117.985C77.3508 117.973 79.3223 117.959 81.2942 117.944C85.3992 117.146 90.57 116.54 94.7097 116.921C95.6348 116.924 96.5293 117.253 97.2352 117.851L99.5438 117.838C99.5574 117.372 99.5438 116.803 99.5047 116.176C99.4595 116.232 99.3983 116.274 99.3292 116.294C99.26 116.315 99.1862 116.314 99.1177 116.291C99.0491 116.269 98.989 116.226 98.9453 116.169C98.9017 116.111 98.8766 116.042 98.8735 115.97V104.412C98.8776 104.323 98.9162 104.238 98.981 104.176C99.0459 104.114 99.1322 104.08 99.2218 104.08C99.3115 104.08 99.3978 104.114 99.4626 104.176C99.5275 104.238 99.566 104.323 99.5702 104.412V106.786L100.757 105.587C100.823 105.524 100.911 105.488 101.002 105.488C101.094 105.488 101.182 105.524 101.248 105.587C101.313 105.653 101.349 105.741 101.349 105.833C101.349 105.925 101.313 106.014 101.248 106.079L99.5702 107.776V108.026C102.383 107.962 106.641 108.244 107.767 108.911C108.046 108.045 108.555 106.854 109.361 106.433C109.441 106.386 109.536 106.373 109.626 106.396C109.715 106.42 109.792 106.478 109.838 106.558C109.885 106.638 109.898 106.733 109.875 106.823C109.851 106.912 109.793 106.989 109.713 107.035C109.198 107.428 108.817 107.969 108.619 108.585C110.578 107.531 113.879 107.248 115.712 109C116.037 109.309 115.544 109.801 115.22 109.491C113.897 108.228 111.83 108.247 110.173 108.725C108.493 109.21 108.038 109.675 106.469 111.839C107.987 111.383 109.6 111.343 111.139 111.724C114.612 112.491 117.653 114.703 120.238 117.057C121.065 115.33 122.053 113.683 123.187 112.139C124.566 110.276 125.394 107.032 123.743 104.867Z" fill="#FFD35C"/>
<path id="Vector_6" d="M106.269 112.652C105.618 112.925 105.702 112.925 105.391 113.372C104.476 114.694 103.583 116.03 102.712 117.38C106.033 115.486 109.35 116.509 112.708 118.428C114.149 119.238 115.502 120.198 116.745 121.29C116.786 121.326 116.818 121.372 116.837 121.424C118.076 120.932 119.301 118.863 119.917 117.681C119.685 117.568 112.379 110.08 106.269 112.652ZM48.2127 58.2568C48.27 58.2458 48.3295 58.2535 48.3821 58.2789C48.4347 58.3043 48.4778 58.3459 48.5049 58.3977C49.7206 56.3053 49.2649 53.385 49.2649 53.385C47.8549 53.4016 48.0598 53.3203 48.0206 53.4769C47.9997 53.5501 47.9557 53.6146 47.8951 53.6607C47.8346 53.7069 47.7608 53.7322 47.6847 53.733C44.3133 53.6984 38.8991 52.964 35.9774 51.0214L34.5719 50.6162C34.1456 52.1151 33.708 54.0057 33.3773 55.5633C37.9808 57.808 43.114 58.7399 48.2127 58.2568Z" fill="#FFD35C"/>
<path id="Vector_7" d="M4.10542 118.742C4.01583 118.747 3.93129 118.785 3.86937 118.85C3.80744 118.915 3.77289 119.001 3.77289 119.091C3.77289 119.181 3.80744 119.267 3.86937 119.332C3.93129 119.397 4.01583 119.435 4.10542 119.439C7.30509 119.375 35.2886 118.987 56.7854 118.814C57.2712 118.428 57.2252 118.461 57.6576 118.112C28.6663 118.343 4.19355 118.741 4.10542 118.742ZM101.595 117.825L97.2383 117.85C97.5562 118.064 97.8629 118.295 98.1573 118.541L101.141 118.523C101.212 118.46 101.431 118.269 101.598 118.135C101.569 118.089 101.553 118.035 101.552 117.981C101.552 117.926 101.567 117.872 101.595 117.825ZM75.383 117.984C78.9186 118.95 76.1521 118.942 81.2973 117.943C79.3264 117.956 77.3549 117.969 75.383 117.984Z" fill="#A76C6C"/>
<path id="Vector_8" d="M86.0262 74.6347C86.0855 74.0815 86.1049 73.5247 86.0842 72.9686C83.0458 73.8876 79.5034 74.2589 76.4664 73.2368C76.4994 74.3222 76.8109 75.381 77.3709 76.3114C77.931 77.2419 78.7208 78.0127 79.6646 78.55C81.0573 75.7548 83.3659 74.4999 86.0262 74.6347Z" fill="#F55555"/>
<path id="Vector_9" d="M98.3253 125.147C97.6949 124.107 98.6387 121.877 99.3339 120.724C98.6095 119.823 97.7539 119.036 96.7956 118.389C96.3653 118.057 95.8708 117.817 95.3434 117.684C90.565 116.959 82.91 118.187 77.987 119.375C77.6536 121.158 77.4555 122.964 77.3942 124.776C79.1055 124.422 92.4947 124.67 98.3253 125.147ZM91.3445 120.007H93.3029C93.3925 120.011 93.477 120.05 93.539 120.115C93.6009 120.18 93.6354 120.266 93.6354 120.355C93.6354 120.445 93.6009 120.531 93.539 120.596C93.477 120.661 93.3925 120.7 93.3029 120.704H91.3445C91.255 120.7 91.1704 120.661 91.1085 120.596C91.0466 120.531 91.012 120.445 91.012 120.355C91.012 120.266 91.0466 120.18 91.1085 120.115C91.1704 120.05 91.255 120.011 91.3445 120.007ZM81.8796 121.486C82.4438 122.173 83.548 121.387 84.5302 121.514C85.0255 121.668 85.5468 121.72 86.063 121.669C86.6023 121.611 87.1295 121.532 87.6726 121.524C89.8705 121.491 92.0706 122.12 94.2625 121.745C94.7016 121.669 94.8884 122.341 94.4478 122.417C91.8597 122.86 89.7146 122.094 87.2418 122.235C86.0231 122.307 85.9613 122.54 84.6326 122.235C84.1963 122.173 83.7515 122.216 83.3348 122.359C83.0068 122.484 82.6504 122.514 82.306 122.447C81.9617 122.379 81.6433 122.216 81.387 121.976C81.1046 121.635 81.5949 121.14 81.8796 121.486ZM70.2575 124.725C71.8598 124.592 73.4718 124.633 75.0653 124.847C75.6081 124.886 76.1527 124.89 76.696 124.859C76.7526 123.003 76.9523 121.153 77.2933 119.328C71.5749 117.492 64.5956 116.184 58.9231 118.153C58.4471 118.315 59.3705 117.645 49.0439 125.862C55.1563 125.453 64.0984 124.908 70.2575 124.725ZM65.211 120.323C67.3446 120.235 69.4819 120.319 71.602 120.574C72.0419 120.628 72.0456 121.328 71.602 121.271C69.4819 121.015 67.3446 120.931 65.211 121.019C64.7658 121.038 64.7681 120.341 65.214 120.323H65.211ZM57.2269 122.684C57.7888 122.954 58.4892 121.99 59.5731 122.199C59.9979 122.281 60.413 122.568 60.8581 122.504C61.2962 122.375 61.7441 122.282 62.1973 122.226C63.0055 122.234 63.5102 122.533 65.1996 122.597C67.2831 122.594 69.3632 122.431 71.422 122.112C71.8671 122.06 71.8618 122.757 71.422 122.808C69.1619 123.172 66.8725 123.322 64.5843 123.256C63.0266 123.126 62.4097 122.761 61.5714 123.021C61.1505 123.194 60.6874 123.235 60.2427 123.14C59.8519 122.946 59.4159 122.862 58.9811 122.896C58.2542 123.093 57.6502 123.657 56.8721 123.285C56.4744 123.092 56.8277 122.491 57.2299 122.684H57.2269ZM101.554 124.13C101.042 124.589 100.472 124.977 99.8566 125.285C100.491 125.352 101.125 125.431 101.756 125.523C101.832 125.268 101.862 125.182 101.948 124.935C101.902 124.836 101.847 124.697 101.554 124.13ZM101.598 126.203C95.909 125.347 84.2123 125.275 78.3086 125.361C76.7616 125.642 75.1776 125.653 73.6266 125.395C71.6562 125.121 52.0703 126.351 48.4127 126.6C48.6065 127.384 48.6864 128.193 48.65 129C74.1283 127.936 72.7341 127.97 73.073 128.021C74.2361 128.189 75.416 128.208 76.5838 128.076C77.0774 127.96 77.5885 127.938 78.0902 128.012C79.809 128.051 100.467 128.486 101.792 128.485C101.801 128.22 101.834 127.957 101.89 127.698C101.731 127.488 101.622 127.243 101.571 126.984C101.521 126.725 101.53 126.458 101.598 126.203Z" fill="#ACEAC7"/>
<path id="Vector_10" d="M102.093 123.662C102.162 123.794 102.229 123.925 102.294 124.058C102.843 122.778 103.004 122.85 102.093 123.662Z" fill="#FFCEB6"/>
<path id="Vector_11" d="M118.18 120.355C117.822 120.811 117.364 121.177 116.84 121.425C116.858 121.487 116.859 121.553 116.843 121.617C116.826 121.68 116.793 121.737 116.747 121.783C113.903 124.685 110.999 128.655 108.656 129.125C108.408 129.196 108.148 129.216 107.892 129.181C107.636 129.146 107.391 129.058 107.171 128.923C106.951 128.788 106.762 128.608 106.615 128.395C106.469 128.182 106.369 127.941 106.321 127.688C106.251 126.751 106.445 125.814 106.879 124.981C106.015 125.832 103.84 127.994 102.545 127.966C102.495 128.22 102.483 128.481 102.51 128.74C102.523 128.792 102.525 128.846 102.515 128.898C102.504 128.95 102.482 129 102.449 129.042C102.417 129.085 102.375 129.119 102.328 129.143C102.28 129.168 102.227 129.18 102.174 129.181C101.5 129.186 77.226 128.68 77.1484 128.686C75.7251 128.923 74.2724 128.923 72.8491 128.686C72.7866 128.701 73.9239 128.64 48.2814 129.713C48.1892 129.712 48.1009 129.675 48.0358 129.61C47.9706 129.545 47.9338 129.456 47.9334 129.364C48.1459 127.029 47.3535 126.33 47.7188 126.037C47.7941 125.976 57.1799 118.504 56.7883 118.815C52.0776 118.852 47.3668 118.893 42.6557 118.937C39.4409 121.9 29.5633 131.011 23.9623 136.255C23.9623 136.255 106.138 137.574 132.259 136.255L118.18 120.355Z" fill="#FFCEB6"/>
<path id="Vector_12" d="M99.7364 120.111C100.145 119.532 100.616 119 101.14 118.523L98.1561 118.54C98.7213 119.024 99.2495 119.549 99.7364 120.111Z" fill="#FFCEB6"/>
<path id="Vector_13" d="M129.116 69.0828C125.041 68.8613 119.565 68.6911 115.525 68.7664C115.432 68.7666 115.344 68.8033 115.279 68.8686C115.214 68.9338 115.177 69.0222 115.177 69.1144V71.9939C115.178 72.0859 115.215 72.1737 115.28 72.2388C115.345 72.3039 115.433 72.3411 115.525 72.3427H115.912C115.987 73.3972 116.59 82.3281 116.599 82.4433C116.63 82.8885 117.326 82.8915 117.296 82.4433C117.287 82.3251 116.629 72.656 116.608 72.3427H128.069C128.069 72.4383 128.406 81.8121 128.417 81.901C128.461 82.3115 129.105 82.31 129.108 81.8889C129.108 81.8889 128.777 72.6304 128.765 72.3427H129.116C129.209 72.3413 129.296 72.3041 129.362 72.239C129.427 72.1739 129.464 72.086 129.465 71.9939V69.433C129.464 69.3408 129.427 69.2527 129.362 69.1874C129.297 69.122 129.209 69.0845 129.116 69.0828ZM128.768 71.6437H115.873V69.4594C120.058 69.3916 124.559 69.546 128.768 69.7607V71.6437ZM144.638 64.4753C144.578 64.4259 144.502 64.3992 144.424 64.4C140.131 64.2915 134.821 64.5296 130.832 64.8203C130.741 64.8222 130.653 64.8595 130.589 64.9244C130.524 64.9893 130.487 65.0767 130.485 65.1683V68.5713C130.486 68.6631 130.523 68.7508 130.588 68.8158C130.653 68.8808 130.74 68.9179 130.832 68.9193H131.214C131.289 70.3082 131.906 81.8611 131.907 81.8746C131.931 82.3205 132.627 82.3228 132.604 81.8746C132.604 81.8257 131.917 69.0443 131.911 68.9193H143.374L143.721 81.6848C143.725 81.7744 143.763 81.8589 143.828 81.9209C143.893 81.9828 143.979 82.0174 144.069 82.0174C144.159 82.0174 144.245 81.9828 144.31 81.9209C144.375 81.8589 144.413 81.7744 144.417 81.6848L144.07 68.9193H144.424C144.516 68.9181 144.604 68.8811 144.669 68.8161C144.734 68.7512 144.771 68.6633 144.773 68.5713C144.773 64.449 144.826 64.6102 144.638 64.4753ZM144.076 68.2196H131.181V65.4937C134.901 65.2301 140.161 65.0094 144.076 65.09V68.2196ZM85.9414 75.3254C83.3804 75.2222 81.5042 76.4824 80.3035 78.8264C83.2953 79.8914 85.3704 78.7654 85.9414 75.3254Z" fill="#FCAFB7"/>
<path id="Vector_14" d="M125.126 122.85C125.037 122.854 124.952 122.892 124.89 122.957C124.828 123.022 124.794 123.108 124.794 123.198C124.794 123.288 124.828 123.374 124.89 123.439C124.952 123.504 125.037 123.542 125.126 123.546H130.46C130.55 123.542 130.635 123.504 130.697 123.439C130.758 123.374 130.793 123.288 130.793 123.198C130.793 123.108 130.758 123.022 130.697 122.957C130.635 122.892 130.55 122.854 130.46 122.85H125.126ZM138.642 125.015C137.142 125.159 135.631 125.168 134.129 125.042C133.683 125.005 133.686 125.701 134.129 125.739C135.631 125.865 137.142 125.856 138.642 125.711C138.734 125.711 138.823 125.674 138.888 125.609C138.953 125.544 138.99 125.455 138.99 125.363C138.99 125.271 138.953 125.182 138.888 125.117C138.823 125.052 138.734 125.015 138.642 125.015ZM138.639 123.904C138.731 123.904 138.82 123.867 138.885 123.802C138.95 123.737 138.987 123.648 138.987 123.556C138.987 123.464 138.95 123.375 138.885 123.31C138.82 123.245 138.731 123.208 138.639 123.208H135.676C135.583 123.208 135.495 123.245 135.43 123.31C135.364 123.375 135.328 123.464 135.328 123.556C135.328 123.648 135.364 123.737 135.43 123.802C135.495 123.867 135.583 123.904 135.676 123.904H138.639ZM144.918 128.667C144.168 128.594 143.41 128.671 142.69 128.893C142.604 128.921 142.533 128.981 142.49 129.06C142.448 129.139 142.437 129.231 142.461 129.317C142.485 129.404 142.541 129.478 142.618 129.524C142.695 129.57 142.787 129.585 142.874 129.565C143.534 129.356 144.23 129.287 144.918 129.36C145.011 129.36 145.099 129.324 145.165 129.258C145.23 129.193 145.267 129.105 145.267 129.012C145.264 128.921 145.226 128.835 145.161 128.771C145.096 128.707 145.01 128.67 144.918 128.667ZM14.1767 127.625C12.3464 127.862 10.509 128.023 8.66467 128.109C8.21877 128.129 8.21274 128.825 8.66467 128.805C10.508 128.721 12.3454 128.56 14.1767 128.322C14.2663 128.318 14.3508 128.279 14.4128 128.214C14.4747 128.149 14.5092 128.063 14.5092 127.973C14.5092 127.884 14.4747 127.797 14.4128 127.733C14.3508 127.668 14.2663 127.629 14.1767 127.625ZM14.5367 123.385H7.60188C7.5123 123.389 7.42776 123.428 7.36583 123.493C7.3039 123.558 7.26935 123.644 7.26935 123.734C7.26935 123.823 7.3039 123.909 7.36583 123.974C7.42776 124.039 7.5123 124.078 7.60188 124.082H14.5367C14.6263 124.078 14.7109 124.039 14.7728 123.974C14.8347 123.909 14.8693 123.823 14.8693 123.734C14.8693 123.644 14.8347 123.558 14.7728 123.493C14.7109 123.428 14.6263 123.389 14.5367 123.385ZM24.4724 124.528C24.309 123.933 23.662 124.65 20.048 124.443C19.5961 124.418 19.6014 125.114 20.048 125.139C21.4444 125.216 22.8449 125.155 24.2291 124.956C24.318 124.931 24.3933 124.872 24.4389 124.792C24.4845 124.712 24.4965 124.617 24.4724 124.528Z" fill="#A76C6C"/>
<path id="Vector_15" d="M140.005 57.9797C139.426 58.6185 139.674 59.5736 139.412 60.326C139.227 60.8608 139.028 60.607 138.86 60.0737C138.322 58.3594 139.149 53.7309 138.107 50.3007C137.899 49.6168 137.54 48.6918 136.66 48.7875C134.11 49.0654 135.855 56.7106 135.129 57.6001C134.897 57.8848 134.561 57.6574 134.388 57.4314C133.975 56.8891 134.144 55.9092 133.602 55.2079C133.499 55.0636 133.361 54.949 133.199 54.8758C133.038 54.8026 132.861 54.7734 132.685 54.7912C132.508 54.8091 132.34 54.8733 132.197 54.9773C132.054 55.0813 131.941 55.2215 131.869 55.3834C131.246 56.4643 131.671 58.1952 132.02 59.3905C132.061 59.5803 132.146 59.7577 132.268 59.9084C132.391 60.059 132.547 60.1786 132.724 60.2575C133.579 60.6183 134.542 60.7245 135.385 61.1139C136.194 61.4905 136.224 62.6384 136.267 63.4044C136.287 63.7719 136.287 64.1403 136.267 64.5079L136.964 64.4785C137.012 63.6762 136.958 62.8712 136.803 62.0825C136.483 60.5075 135.478 60.3938 134.21 60.0014C132.969 59.6165 132.842 59.7257 132.678 59.1563C132.462 58.4783 132.32 57.7787 132.256 57.0699C132.195 55.763 132.69 55.1605 133.054 55.6259C133.435 56.1118 133.306 57.0375 133.739 57.7078C133.813 57.8632 133.919 58.001 134.05 58.1123C134.181 58.2236 134.334 58.3057 134.499 58.3532C134.665 58.4007 134.838 58.4125 135.008 58.3879C135.178 58.3632 135.341 58.3027 135.486 58.2102C136.061 57.7628 136.033 56.92 136.023 56.2654C136 54.8494 135.521 49.9203 136.625 49.5046C137.403 49.2116 137.778 51.8456 137.862 52.6681C138.221 56.157 137.401 60.9798 139.042 61.3195C139.224 61.3401 139.409 61.3041 139.571 61.2164C139.732 61.1287 139.863 60.9936 139.945 60.8292C140.361 60.1324 140.081 59.0825 140.501 58.4618C140.973 59.0002 141.254 59.6794 141.3 60.3938C141.411 60.9888 141.684 62.0509 140.884 62.2716C140.285 62.435 139.163 62.0599 139.17 63.0308C139.17 63.4827 139.234 63.9482 139.267 64.4024C139.498 64.3964 139.73 64.3911 139.962 64.3866C139.842 62.7386 139.882 63.1061 139.872 63.0308C140.203 63.0401 140.535 63.0245 140.864 62.9841C141.233 62.9316 141.569 62.7406 141.803 62.4497C142.037 62.1587 142.152 61.7897 142.124 61.4174C142.122 59.5404 140.965 56.9237 140.005 57.9797Z" fill="#6DD3A8"/>
<path id="Vector_16" d="M137.279 54.4734C137.267 54.4293 137.246 54.3881 137.218 54.352C137.19 54.3159 137.155 54.2858 137.115 54.2632C137.076 54.2407 137.032 54.2262 136.986 54.2205C136.941 54.2149 136.895 54.2183 136.851 54.2304C136.807 54.2426 136.766 54.2633 136.73 54.2914C136.693 54.3196 136.663 54.3545 136.641 54.3942C136.618 54.434 136.604 54.4778 136.598 54.5232C136.592 54.5686 136.596 54.6146 136.608 54.6587C136.78 55.7696 136.748 55.8269 136.934 55.9391C137.014 55.9851 137.109 55.9977 137.198 55.9743C137.287 55.9509 137.363 55.8933 137.41 55.8141C137.491 55.6574 137.461 55.6393 137.279 54.4734ZM136.394 58.0075C136.394 58.6635 136.348 58.8759 136.496 59.0243C136.545 59.0727 136.607 59.1056 136.674 59.1188C136.741 59.1321 136.811 59.1251 136.875 59.0988C136.938 59.0725 136.993 59.028 137.031 58.9709C137.069 58.9138 137.09 58.8467 137.09 58.778V58.0075C137.09 57.9152 137.053 57.8266 136.988 57.7614C136.923 57.6961 136.834 57.6595 136.742 57.6595C136.65 57.6595 136.561 57.6961 136.496 57.7614C136.431 57.8266 136.394 57.9152 136.394 58.0075ZM137.58 61.6221V62.6299C137.58 62.7222 137.616 62.8107 137.682 62.876C137.747 62.9413 137.835 62.9779 137.928 62.9779C138.02 62.9779 138.108 62.9413 138.174 62.876C138.239 62.8107 138.276 62.7222 138.276 62.6299V61.6221C138.276 61.5298 138.239 61.4413 138.174 61.3761C138.108 61.3108 138.02 61.2741 137.928 61.2741C137.835 61.2741 137.747 61.3108 137.682 61.3761C137.616 61.4413 137.58 61.5298 137.58 61.6221Z" fill="#6DD3A8"/>
<path id="Vector_17" d="M99.5751 104.412C99.571 104.323 99.5324 104.238 99.4676 104.176C99.4027 104.114 99.3165 104.08 99.2268 104.08C99.1371 104.08 99.0508 104.114 98.986 104.176C98.9211 104.238 98.8826 104.323 98.8784 104.412V115.968C98.8826 116.058 98.9211 116.142 98.986 116.204C99.0508 116.266 99.1371 116.301 99.2268 116.301C99.3165 116.301 99.4027 116.266 99.4676 116.204C99.5324 116.142 99.571 116.058 99.5751 115.968V107.776C100.061 107.285 101.18 106.155 101.253 106.079C101.315 106.013 101.349 105.926 101.347 105.836C101.346 105.746 101.309 105.659 101.245 105.596C101.181 105.532 101.095 105.495 101.005 105.494C100.915 105.492 100.827 105.526 100.761 105.587L99.5751 106.786V104.412ZM48.2133 58.2569C43.1133 58.7454 37.9777 57.8129 33.375 55.5626C33.7117 53.9726 34.1417 52.1295 34.5696 50.6155L35.9781 51.0192C38.8938 52.961 44.3199 53.6947 47.6853 53.7308C47.7614 53.73 47.8352 53.7047 47.8958 53.6585C47.9563 53.6124 48.0003 53.5479 48.0213 53.4747C48.0378 53.3994 50.2929 43.6076 50.3125 43.5616C50.5453 42.9689 54.2714 36.9122 53.7058 34.0508C53.5491 33.2614 52.9834 32.475 52.1444 32.5112C51.0514 32.5579 49.9141 33.995 49.191 34.9885C49.5194 32.5474 50.5121 24.9512 48.2472 23.9517C45.9514 22.9401 44.8291 27.9279 44.4706 30.4105C39.5438 30.6718 35.4011 33.8685 35.7958 38.8661C35.9058 40.2708 36.3984 41.9919 37.5463 42.8114C37.5011 42.8973 36.4744 47.5567 35.8606 50.2638L34.4219 49.848C34.3329 49.825 34.2384 49.8376 34.1585 49.8831C34.0786 49.9287 34.0196 50.0037 33.9941 50.092C32.8522 53.8649 31.153 62.2263 30.3033 71.6039C30.2634 72.0498 30.9609 72.0453 31.0001 71.6039C31.4539 66.4532 32.198 61.3322 33.2288 56.2654C37.8947 58.4814 43.0682 59.4095 48.2133 58.9536C48.6532 58.9016 48.6577 58.2034 48.2133 58.2569ZM38.1745 43.124C38.5378 43.2356 38.9287 43.2175 39.2802 43.0728C40.4665 42.5953 40.5742 41.0286 40.6684 39.9334C40.7196 39.3414 40.7512 38.7493 40.7738 38.1573C41.1459 39.2977 41.7131 40.7069 42.8323 41.2455C43.1132 41.3803 43.4226 41.4444 43.7339 41.4323C44.0451 41.4202 44.3487 41.3323 44.6182 41.1762C46.8025 39.9221 45.7827 34.4372 45.1568 32.1376C45.1294 32.0517 45.0699 31.9797 44.9907 31.9368C44.9114 31.8938 44.8186 31.8832 44.7317 31.9071C44.6448 31.9311 44.5706 31.9878 44.5246 32.0653C44.4785 32.1428 44.4643 32.2351 44.4849 32.3229C44.9963 34.2014 45.8859 38.9037 44.5783 40.3243C44.4279 40.4919 44.2352 40.6159 44.0204 40.6833C43.8055 40.7508 43.5765 40.7592 43.3573 40.7077C41.8163 40.2889 40.987 36.6787 40.7708 35.1603C40.7151 34.7701 40.0748 34.8665 40.0869 35.2529C40.1268 36.4889 40.2051 41.2673 39.3894 42.1772C37.1297 44.6907 32.8793 33.931 42.3759 31.462C45.104 30.7532 45.0024 31.4868 45.1522 30.5355C45.3564 29.2106 46.1902 24.8984 47.4872 24.5505C49.9525 23.8989 48.7082 33.8768 48.2766 36.4053C48.2577 36.4859 48.2678 36.5705 48.3054 36.6443C48.3429 36.718 48.4053 36.7761 48.4816 36.8083C48.5578 36.8404 48.643 36.8445 48.722 36.8198C48.8009 36.7951 48.8686 36.7433 48.9131 36.6735C49.4704 35.7237 50.9272 33.6094 51.9583 33.2622C52.0781 33.2039 52.2148 33.1906 52.3435 33.2248C52.4723 33.2589 52.5844 33.3382 52.6596 33.4482C54.3626 35.2484 50.2824 41.9106 49.6753 43.2958C49.6098 43.4464 47.4556 52.7351 47.4006 53.0326C44.219 52.9573 39.287 52.2861 36.5114 50.5394L38.1745 43.124ZM68.4304 72.8271C68.5057 75.1688 68.7603 77.674 69.8125 79.7567C69.042 79.5044 67.7427 79.3371 67.354 80.0452C67.2722 80.2135 67.2226 80.3956 67.2079 80.5822C67.1042 81.952 67.2622 83.3291 67.6734 84.6398C68.8394 89.0551 71.676 92.9395 75.8835 94.2569C76.4793 94.4297 77.1128 94.4227 77.7047 94.2369C78.2966 94.051 78.8204 93.6945 79.2104 93.2121L80.4269 91.8187C80.4796 94.1047 80.5451 98.8673 80.3455 101.034C80.3048 101.479 81.0016 101.476 81.0423 101.034C81.2456 98.8244 81.1665 93.9639 81.1213 91.7358C83.381 93.8569 83.9286 94.5288 84.9868 94.7389C85.5744 94.8585 86.184 94.8062 86.7426 94.5883C88.2246 93.8138 89.6484 92.9327 91.0028 91.952C92.2832 91.0173 94.3606 89.4092 94.2107 87.8289C94.0217 85.8336 91.5654 84.3167 89.7005 83.5951C93.1773 81.5237 94.3132 77.9106 94.6476 73.8432C94.6655 73.8459 94.6837 73.8474 94.7018 73.8477C95.7475 73.8542 96.7544 73.4523 97.5083 72.7277C98.1259 72.084 98.5473 71.2776 98.7232 70.4031C98.8992 69.5286 98.8224 68.622 98.5018 67.7896C98.298 67.3367 97.9565 66.9597 97.5258 66.7123C97.0952 66.4649 96.5975 66.3598 96.1036 66.412C100.924 60.9624 100.873 53.1328 95.043 55.8556C95.2236 55.2245 95.2652 54.5618 95.1651 53.9131C95.1247 53.5511 94.9906 53.206 94.7759 52.9118C94.5612 52.6176 94.2735 52.3845 93.9411 52.2357C92.9438 51.9156 91.4713 53.1606 90.6977 53.8634C90.4846 51.1563 87.9425 49.3343 85.9592 51.9419C85.4975 50.9067 84.6876 50.0661 83.6702 49.5663C81.4753 48.4545 79.8966 49.4209 78.8414 51.6557C77.359 49.61 74.6346 49.622 73.9846 52.7486C69.4201 47.3149 64.3856 52.7027 68.5185 65.8787C68.254 65.6764 67.9495 65.5326 67.6253 65.4569C67.301 65.3811 66.9644 65.375 66.6376 65.4391C66.3108 65.5032 66.0014 65.636 65.7298 65.8286C65.4581 66.0212 65.2305 66.2694 65.062 66.5566C63.8388 68.6746 65.0409 72.5439 68.4304 72.8271ZM95.9981 67.1253C96.3653 67.0464 96.7484 67.0938 97.0854 67.2598C97.4223 67.4257 97.6934 67.7005 97.8548 68.0397C98.7278 69.8082 97.6936 73.1088 94.7003 73.154C94.8357 71.5013 94.8054 69.8392 94.6099 68.1926C94.9538 67.7043 95.4379 67.3321 95.9981 67.1253ZM77.0494 93.6859C76.0499 93.7981 74.4772 92.9538 73.6924 92.4454C68.7686 89.2562 67.3902 81.9433 67.9732 80.3683C68.7129 80.0165 69.7237 80.4127 70.4091 80.7449C71.1393 81.8107 72.1167 82.684 73.2578 83.29C73.0393 84.7543 72.897 87.383 73.7541 88.5972C74.3763 89.4792 76.8596 90.9886 80.0345 91.2116C78.5717 92.8898 78.1838 93.5579 77.0494 93.6859ZM79.8484 90.5149C77.9211 90.3562 76.0812 89.6419 74.5518 88.4586C73.5726 87.569 73.7549 84.9433 73.9115 83.6275C77.6023 85.3681 84.5688 85.8193 88.4049 84.2481C88.4415 85.2884 88.3545 86.3293 88.1458 87.3491C87.9538 88.3223 87.9086 88.6484 86.3517 89.3519C84.3217 90.2977 82.0804 90.6985 79.8484 90.5149ZM90.1637 84.5607C92.2516 85.5723 94.4518 87.2663 93.0553 89.1598C91.8758 90.7597 88.8056 92.645 87.0913 93.6309C86.5904 94 85.9685 94.1663 85.3502 94.0964C84.7319 94.0266 84.1628 93.7258 83.7568 93.2543L81.5974 91.2282C83.1094 91.1453 84.5975 90.8145 86.0022 90.249C87.3052 89.7217 88.4547 89.2495 88.7424 87.8967C89.0385 86.6081 89.1536 85.2845 89.0843 83.9642C89.1664 84.2044 89.2485 84.1171 90.1637 84.5607ZM69.1572 68.9767C70.5658 53.4785 94.0405 54.063 94.0782 70.4153C94.0736 80.9174 90.6608 85.3825 79.8718 84.3747C71.7928 83.6162 69.4246 80.1928 69.1377 73.1457C69.0534 71.7571 69.06 70.3644 69.1572 68.9767ZM67.1725 66.0813C67.4877 66.1225 67.79 66.2328 68.0577 66.4043C68.3254 66.5757 68.5519 66.8042 68.7211 67.0733C68.4567 68.7452 68.3528 70.4386 68.4108 72.1304C64.6402 71.7568 64.412 65.9766 67.1725 66.0813Z" fill="black"/>
<path id="Vector_18" d="M76.743 69.4307C76.743 68.7784 76.3544 68.2481 75.8768 68.2481C75.3993 68.2481 75.0099 68.7754 75.0099 69.4307C75.0099 70.086 75.3985 70.6132 75.8768 70.6132C76.3551 70.6132 76.743 70.083 76.743 69.4307ZM87.8778 69.3554C87.1427 69.1573 86.4399 70.2698 86.7548 71.1284C86.797 71.2775 86.8853 71.4094 87.0071 71.5052C87.1288 71.601 87.2778 71.6558 87.4327 71.6617C88.4939 71.6617 88.8796 69.6235 87.8778 69.3554ZM75.7458 72.7351C75.7164 75.36 77.0805 78.2147 79.7295 79.3498C82.6038 80.5587 85.1903 79.877 86.2614 76.8747C86.7071 75.4613 86.8747 73.9749 86.7548 72.4978C86.754 72.4444 86.7411 72.3918 86.717 72.3441C86.6929 72.2964 86.6583 72.2548 86.6158 72.2225C86.5733 72.1901 86.524 72.1678 86.4716 72.1573C86.4192 72.1468 86.3651 72.1484 86.3134 72.1619C83.5182 73.1614 79.3168 73.6216 76.1864 72.3991C76.1347 72.3853 76.0806 72.3835 76.0281 72.3939C75.9756 72.4043 75.9262 72.4265 75.8836 72.459C75.8411 72.4914 75.8066 72.5331 75.7827 72.581C75.7588 72.6289 75.7461 72.6816 75.7458 72.7351ZM80.3005 78.8263C81.4785 76.526 83.3352 75.2199 85.9383 75.3254C85.3673 78.7804 83.2794 79.8853 80.3005 78.8263ZM86.0852 72.9685C86.1054 73.5246 86.086 74.0814 86.0272 74.6347C83.357 74.4991 81.0559 75.7645 79.6655 78.5514C78.7215 78.0144 77.9316 77.2436 77.3715 76.3131C76.8114 75.3826 76.5001 74.3237 76.4673 73.2382C79.4975 74.2558 83.0248 73.8905 86.0852 72.9685ZM74.1572 64.8986C74.3918 64.3759 74.7844 63.9399 75.2797 63.652C75.7751 63.3641 76.3482 63.2387 76.9185 63.2935C77.0081 63.2893 77.0926 63.2508 77.1546 63.1859C77.2165 63.121 77.251 63.0348 77.251 62.9451C77.251 62.8554 77.2165 62.7692 77.1546 62.7043C77.0926 62.6394 77.0081 62.6009 76.9185 62.5968C76.2263 62.5422 75.5339 62.6996 74.9333 63.0481C74.3327 63.3965 73.8523 63.9196 73.5562 64.5476C73.5096 64.6273 73.4966 64.7222 73.5201 64.8115C73.5435 64.9008 73.6015 64.9771 73.6812 65.0236C73.7609 65.0702 73.8558 65.0831 73.9451 65.0597C74.0344 65.0362 74.1107 64.9783 74.1572 64.8986ZM86.815 63.7974C87.381 63.8932 87.9023 64.1654 88.3043 64.5751C88.7063 64.9848 88.9686 65.5112 89.0536 66.0789C89.0809 66.1648 89.1404 66.2368 89.2197 66.2797C89.2989 66.3227 89.3917 66.3333 89.4786 66.3094C89.5655 66.2854 89.6398 66.2287 89.6858 66.1512C89.7318 66.0737 89.746 65.9814 89.7255 65.8936C89.6053 65.2102 89.2802 64.5796 88.7934 64.0852C88.3066 63.5908 87.681 63.2561 86.9996 63.1255C86.912 63.1057 86.8202 63.1204 86.7433 63.1666C86.6663 63.2127 86.6101 63.2868 86.5864 63.3733C86.5626 63.4598 86.5731 63.5522 86.6157 63.6312C86.6583 63.7102 86.7297 63.7697 86.815 63.7974Z" fill="black"/>
<path id="Vector_19" d="M88.4659 64.7602C88.4583 64.7504 88.4561 64.7504 88.4847 64.7836L88.4659 64.7602ZM120.323 117.131C117.639 114.708 114.674 112.504 111.141 111.722C109.602 111.341 107.989 111.381 106.471 111.838C108.001 109.729 108.434 109.227 110.175 108.724C111.832 108.246 113.9 108.227 115.222 109.49C115.545 109.8 116.039 109.308 115.713 108.998C113.878 107.244 110.552 107.541 108.621 108.584C108.819 107.967 109.2 107.426 109.715 107.034C109.754 107.011 109.789 106.98 109.817 106.943C109.844 106.907 109.865 106.865 109.876 106.821C109.888 106.777 109.891 106.731 109.885 106.685C109.878 106.64 109.863 106.596 109.84 106.557C109.817 106.517 109.787 106.482 109.75 106.455C109.714 106.427 109.672 106.407 109.628 106.395C109.583 106.383 109.537 106.381 109.492 106.387C109.446 106.393 109.403 106.408 109.363 106.431C108.393 106.938 107.66 108.954 107.714 109.223C106.409 110.406 102.561 116.309 101.606 117.799C101.572 117.848 101.553 117.905 101.552 117.965C101.55 118.024 101.566 118.083 101.597 118.134C100.886 118.701 100.26 119.366 99.7362 120.11C98.895 119.107 97.8972 118.247 96.7814 117.564C96.1819 117.125 95.4539 116.898 94.7115 116.918C89.4978 116.437 82.8152 117.485 77.7024 118.726C76.1656 118.19 74.5981 117.746 73.0084 117.397C68.4409 116.388 63.1879 115.966 58.7771 117.465C57.8288 117.79 59.2968 116.888 47.7146 126.033C47.3598 126.318 48.1379 127.05 47.9293 129.361C47.9295 129.453 47.9662 129.541 48.0314 129.607C48.0966 129.672 48.185 129.709 48.2773 129.709C74.7551 128.601 72.9074 128.692 72.9873 128.704C74.4717 128.898 75.9753 128.893 77.4584 128.689C78.8752 128.723 101.947 129.179 102.17 129.178C102.223 129.177 102.276 129.165 102.324 129.14C102.371 129.116 102.413 129.082 102.445 129.039C102.478 128.997 102.5 128.947 102.51 128.895C102.521 128.843 102.519 128.789 102.506 128.737C102.479 128.478 102.491 128.217 102.541 127.963C103.816 127.993 105.974 125.865 106.875 124.978C106.441 125.811 106.247 126.748 106.317 127.685C106.365 127.938 106.465 128.179 106.611 128.392C106.758 128.605 106.947 128.785 107.167 128.92C107.386 129.055 107.632 129.143 107.888 129.178C108.144 129.213 108.404 129.194 108.652 129.122C110.995 128.653 113.91 124.67 116.743 121.78C116.778 121.749 116.805 121.711 116.824 121.669C116.843 121.626 116.852 121.58 116.852 121.534C116.852 121.487 116.843 121.442 116.824 121.399C116.805 121.357 116.778 121.319 116.743 121.288C115.501 120.195 114.148 119.236 112.706 118.425C109.325 116.467 105.972 115.514 102.71 117.378C103.585 116.029 104.478 114.693 105.389 113.37C105.647 112.993 105.623 112.887 106.444 112.58C110.954 110.892 116.265 114.359 119.829 117.621C120.16 117.922 120.657 117.432 120.323 117.131ZM77.9871 119.377C90.2261 116.425 96.5765 117.87 95.3435 117.686C96.3024 118.021 97.1801 118.554 97.9195 119.25C98.4292 119.703 98.9022 120.196 99.334 120.724C98.6486 121.863 97.6958 124.107 98.3255 125.147C93.1855 124.726 79.1591 124.41 77.3943 124.778C77.4561 122.965 77.6542 121.16 77.9871 119.377ZM59.4512 117.985C65.0868 116.27 71.6812 117.526 77.2934 119.328C76.9517 121.153 76.752 123.003 76.6961 124.859C73.8151 125.034 77.6339 123.947 49.044 125.863C59.2652 117.728 58.2988 118.339 59.4512 117.985ZM101.792 128.485C100.468 128.485 77.4554 127.975 77.1413 127.989C76.4597 128.115 75.7674 128.173 75.0744 128.164C69.7786 128.142 82.6879 127.578 48.6501 129C48.6865 128.193 48.6066 127.384 48.4128 126.6C51.6991 126.374 71.749 125.125 73.6268 125.395C75.1774 125.658 76.7621 125.647 78.3088 125.361C84.2878 125.274 95.4986 125.344 101.444 126.18C101.762 126.223 101.482 126.131 101.567 126.941C101.589 127.221 101.702 127.486 101.89 127.694C101.834 127.955 101.802 128.219 101.792 128.485ZM101.756 125.526C101.125 125.434 100.492 125.354 99.8568 125.288C100.472 124.98 101.043 124.592 101.555 124.133C102.071 125.128 101.967 124.815 101.759 125.526H101.756ZM102.094 123.662C102.521 123.286 102.448 123.34 102.75 123.06C102.635 123.301 102.528 123.512 102.298 124.056C102.229 123.925 102.162 123.794 102.094 123.662ZM104.043 117.506C107.903 116.02 112.817 118.915 115.993 121.565C112.872 124.804 111.123 127.304 109.081 128.253C108.344 128.595 107.248 128.605 107.025 127.696C106.711 126.415 108.09 123.981 108.739 123.017C108.959 122.691 108.455 122.298 108.193 122.594C107.213 123.703 104.267 126.843 102.729 127.25C102.611 127.282 102.271 127.384 102.253 126.794C102.206 125.46 103.73 122.57 104.413 121.416C104.453 121.343 104.466 121.258 104.449 121.177C104.432 121.095 104.386 121.022 104.32 120.971C104.254 120.921 104.172 120.895 104.089 120.899C104.006 120.903 103.927 120.937 103.866 120.995C102.637 122.284 101.299 123.465 99.8681 124.526C99.1864 124.966 98.8482 125.065 98.8286 124.365C98.7631 122.398 100.761 118.77 104.043 117.506Z" fill="black"/>
<path id="Vector_20" d="M56.8775 123.285C57.6548 123.662 58.2589 123.093 58.9865 122.896C59.4213 122.862 59.8572 122.946 60.2481 123.14C60.6928 123.235 61.1559 123.194 61.5768 123.021C62.0655 122.899 62.5776 122.904 63.0636 123.037C65.785 123.57 68.0055 123.201 71.4243 122.811C71.8642 122.761 71.8687 122.064 71.4243 122.115C69.0765 122.386 66.1134 122.868 63.6782 122.45C63.192 122.338 62.6976 122.264 62.1997 122.23C61.7465 122.286 61.2986 122.379 60.8605 122.508C60.0575 122.624 59.7442 121.787 58.3334 122.404C58.0261 122.54 57.5749 122.856 57.2292 122.688C56.827 122.491 56.473 123.091 56.8775 123.285ZM65.2133 121.019C67.347 120.93 69.4843 121.014 71.6043 121.271C72.048 121.324 72.0442 120.627 71.6043 120.574C69.4842 120.319 67.3469 120.235 65.2133 120.323C64.7674 120.341 64.7644 121.037 65.2133 121.019ZM83.3342 122.362C83.7507 122.217 84.1956 122.175 84.632 122.237C86.3357 122.627 86.1474 122.105 88.6436 122.243C90.5959 122.352 92.4006 122.77 94.4434 122.416C94.884 122.341 94.6972 121.669 94.2581 121.745C92.0662 122.121 89.8661 121.491 87.6682 121.524C86.85 121.629 86.0254 121.674 85.2006 121.66C84.9747 121.617 84.7555 121.544 84.5227 121.513C83.5232 121.384 82.4461 122.184 81.8722 121.486C81.5875 121.139 81.0971 121.637 81.3796 121.978C81.6365 122.219 81.9561 122.383 82.3018 122.451C82.6475 122.519 83.0052 122.488 83.3342 122.362ZM91.3439 120.704H93.3022C93.3918 120.7 93.4764 120.661 93.5383 120.596C93.6002 120.531 93.6348 120.445 93.6348 120.355C93.6348 120.266 93.6002 120.179 93.5383 120.115C93.4764 120.05 93.3918 120.011 93.3022 120.007H91.3439C91.2543 120.011 91.1697 120.05 91.1078 120.115C91.0459 120.179 91.0113 120.266 91.0113 120.355C91.0113 120.445 91.0459 120.531 91.1078 120.596C91.1697 120.661 91.2543 120.7 91.3439 120.704Z" fill="black"/>
</g>
</svg>
