<svg width="151" height="151" viewBox="0 0 151 151" fill="none" xmlns="http://www.w3.org/2000/svg">
<g id="Reset-Password-2--Streamline-Barcelona">
<path id="Vector" d="M46.0513 70.5846C46.7261 67.581 47.6821 64.6476 48.9068 61.8232C50.0154 59.2521 51.4574 56.8379 53.1956 54.6428C53.0947 54.633 52.9892 54.6202 52.889 54.6112C48.7546 54.2248 44.984 57.7152 42.8532 61.2801C40.9528 64.4595 40.8353 69.5354 41.8484 73.3617C42.3567 72.9133 42.8977 72.5034 43.467 72.1355C44.3084 71.5864 45.1821 71.0885 46.0513 70.5846Z" fill="#FCAFB7"/>
<path id="Vector_2" d="M67.0445 77.3448C66.8727 77.3615 66.7004 77.371 66.5278 77.3735C66.2205 78.3978 65.9004 79.7386 65.5772 81.2992C68.483 82.1069 71.3935 82.8975 74.3085 83.6711C77.1384 84.4168 79.9757 85.1527 82.8417 85.7462C83.784 85.9413 84.73 86.0814 85.6791 86.2381C85.9804 86.2878 86.2816 86.3503 86.5829 86.4105C87.3919 86.0339 88.1971 85.6483 89.003 85.2694C89.6448 84.9681 90.2835 84.6669 90.9192 84.3467C91.5642 83.8872 92.3127 83.5943 93.0983 83.4941C93.3174 83.4975 93.5328 83.5522 93.7269 83.654C93.921 83.7558 94.0886 83.9017 94.216 84.0801C94.331 84.2872 94.3831 84.5232 94.3661 84.7594C94.3492 84.9956 94.2638 85.2218 94.1204 85.4103C93.8364 85.8292 93.5265 86.23 93.1924 86.6102C92.9258 86.9365 92.6611 87.2642 92.3985 87.5931L96.0222 88.4141C100.371 89.3712 104.737 90.2474 109.12 91.0428C111.304 91.4345 113.489 91.8013 115.68 92.1229C116.706 92.2736 117.735 92.4325 118.768 92.5395C119.797 92.6546 120.83 92.3593 121.644 91.7177C121.538 91.6198 121.441 91.5159 121.342 91.4104C120.909 91.7567 120.407 92.0069 119.869 92.1446C119.332 92.2822 118.771 92.3041 118.225 92.2088C117.651 92.0464 117.125 91.749 116.69 91.3416C116.255 90.9342 115.924 90.4286 115.724 89.8671C115.313 88.8321 115.124 87.7221 115.171 86.6094C115.174 85.3773 115.252 84.1466 115.404 82.9239C115.691 80.5046 116.293 78.1333 117.195 75.87C118.079 73.6482 119.309 71.5803 120.84 69.7434C121.53 68.7984 122.413 68.0105 123.43 67.4318C123.904 67.2308 124.416 67.1354 124.931 67.152C125.445 67.1687 125.95 67.297 126.41 67.5282C126.695 67.6494 126.448 68.0645 126.167 67.9447C125.646 67.7016 125.074 67.5906 124.501 67.6216C123.981 67.6853 123.487 67.8854 123.069 68.2015C122.564 68.5852 122.101 69.0218 121.688 69.5039C121.268 69.9633 120.871 70.4421 120.496 70.9402C117.853 74.6004 116.24 78.9023 115.826 83.3977C115.702 84.521 115.643 85.6503 115.647 86.7804C115.609 87.8333 115.811 88.8812 116.238 89.8445C116.422 90.3141 116.715 90.7328 117.094 91.0657C117.473 91.3985 117.926 91.6358 118.415 91.7576C118.878 91.8226 119.348 91.7926 119.799 91.6696C120.249 91.5466 120.669 91.3331 121.034 91.0421C120.545 90.3865 120.216 89.6259 120.072 88.8208C119.786 87.4198 119.793 85.9747 120.093 84.5765C120.236 83.9971 120.448 83.4367 120.723 82.9073L118.302 82.0961C118.009 81.9975 118.136 81.5327 118.43 81.6314L120.957 82.478C121.27 81.9434 121.622 81.4331 122.011 80.9512C122.249 80.6584 122.515 80.3901 122.807 80.1506C122.882 80.0903 122.957 80.0376 123.033 79.9811C122.769 79.8982 122.503 79.8268 122.233 79.7672C121.932 79.7024 122.059 79.2399 122.361 79.3025C122.763 79.3897 123.158 79.5029 123.545 79.6414C124.535 79.0418 125.695 78.7851 126.845 78.9108C127.001 78.9296 127.156 78.9582 127.309 78.9861C127.985 76.0847 128.247 73.1023 128.087 70.1275C128.026 69.3591 127.745 68.6246 127.277 68.0116C126.81 67.3986 126.176 66.933 125.451 66.6703C124.824 66.4845 124.18 66.3636 123.528 66.3095C122.334 66.1407 121.139 65.9693 119.945 65.795C117.109 65.3813 114.273 64.9589 111.439 64.5281C105.209 63.5831 98.9824 62.6094 92.7593 61.6071C91.4487 61.3955 90.1389 61.1786 88.829 60.9646C88.7718 60.9714 88.7145 60.9752 88.658 60.9835C88.4064 61.0189 88.1575 61.0715 87.9131 61.1409C87.7873 61.1771 87.3218 61.2682 87.2827 61.4309C87.2269 61.6674 87.889 61.7525 88.0359 61.7676C88.3161 61.7977 88.5985 61.7879 88.8795 61.7917C89.4067 61.7637 89.9306 61.8913 90.3859 62.1585C90.395 62.1667 90.4036 62.1755 90.4115 62.1849C90.4194 62.1879 90.427 62.1916 90.4341 62.1962C90.5932 62.3011 90.7225 62.4453 90.8094 62.6148C90.8964 62.7843 90.9381 62.9734 90.9305 63.1638C90.923 63.3542 90.8663 63.5394 90.7662 63.7015C90.666 63.8636 90.5257 63.9971 90.3588 64.089C89.9319 64.2443 89.4774 64.3095 89.0241 64.2803C88.5021 64.2803 87.9809 64.2374 87.4604 64.205C86.5532 64.0779 85.6286 64.1882 84.7767 64.5251C84.061 64.8851 83.3722 65.2964 82.7159 65.7559C81.3596 66.7199 80.0618 67.7637 78.8293 68.8817C76.5117 70.9154 74.1782 73.0786 71.3597 74.3983C71.2213 74.6593 71.0658 74.911 70.8942 75.1515C70.446 75.7704 69.8706 76.2863 69.2066 76.6646C68.5426 77.0429 67.8055 77.2748 67.0445 77.3448ZM97.3908 76.2595L98.6193 76.4801C99.062 75.426 99.8012 74.523 100.747 73.8808C101.073 73.6577 101.415 73.4591 101.771 73.2865C103.134 72.5884 104.681 72.3299 106.197 72.5468C107.714 72.7637 109.126 73.4453 110.239 74.4977C111.268 75.5275 111.981 76.8305 112.292 78.2525C112.604 79.8675 112.41 81.5393 111.737 83.0399C111.433 83.8234 111.003 84.5517 110.463 85.1956C109.911 85.7974 109.219 86.2529 108.448 86.5213C107.146 86.9846 105.738 87.061 104.393 86.7412C103.063 86.4354 101.834 85.7947 100.821 84.88C99.8005 83.9198 99.053 82.706 98.6547 81.3625C98.1831 80.0334 98.0865 78.6002 98.3753 77.2198C98.3979 77.1241 98.4295 77.033 98.4581 76.9404L97.2628 76.7257C96.957 76.6715 97.0873 76.2067 97.3908 76.261V76.2595ZM79.9991 74.271C80.0771 74.0727 80.1658 73.8788 80.265 73.6902C80.8019 72.6396 81.5614 71.7186 82.4906 70.9915C83.4198 70.2643 84.4963 69.7484 85.6452 69.4798C87.0403 69.2319 88.4781 69.4956 89.6945 70.2224C90.8101 70.9221 91.7238 71.9009 92.345 73.0621L93.4613 73.2413C93.7671 73.2903 93.6368 73.7543 93.3333 73.7061L92.6192 73.5916L92.6343 73.6209C93.0471 74.4145 93.2572 75.2979 93.2459 76.1924C93.1855 77.0299 92.9742 77.8495 92.6222 78.6117C92.0424 79.944 91.1356 81.1083 89.986 81.9967C88.8719 82.8718 87.5209 83.3924 86.1077 83.4911C84.7288 83.5614 83.3612 83.2107 82.1864 82.4855C80.9826 81.7564 80.085 80.6144 79.6609 79.2723C79.2188 77.6124 79.3385 75.8527 80.0013 74.2679L79.9991 74.271ZM73.648 61.4836C74.3823 61.0113 75.0851 60.4894 75.8104 60.0028C76.3126 59.6643 76.8263 59.3379 77.3515 59.0236C77.228 59.0018 77.1037 58.9822 76.9794 58.9596C70.1922 57.7446 63.4486 56.2578 56.617 55.2997C56.3363 55.2605 56.0548 55.2221 55.7726 55.1845C55.5828 55.1596 55.4374 55.1091 55.2815 55.2116C55.0954 55.3769 54.9304 55.5646 54.7904 55.7705C54.6473 55.9412 54.5067 56.1144 54.3686 56.2902C53.7275 57.1196 53.1485 57.9952 52.6362 58.9099C51.6908 60.61 50.9136 62.3983 50.3156 64.2494C49.833 65.7205 49.4124 67.2112 49.0547 68.7175C50.0345 68.0782 50.9979 67.4142 51.944 66.726C53.3058 65.7302 54.6021 64.6501 55.9564 63.6438C57.2257 62.644 58.6507 61.8595 60.1744 61.3217C61.2326 60.9986 62.3504 60.92 63.4434 61.0919C65.6216 61.4722 67.6156 62.5546 69.1211 64.1741C70.025 63.6212 70.9605 63.1015 71.8726 62.563C72.4692 62.2112 73.0627 61.8587 73.648 61.4836Z" fill="#FFD2D2"/>
<path id="Vector_3" d="M90.4108 60.8993C89.8845 60.8917 89.3582 60.9136 88.8344 60.9648C90.1442 61.1787 91.454 61.3956 92.7646 61.6073C98.9857 62.6116 105.212 63.5852 111.444 64.5283C114.279 64.9576 117.114 65.3799 119.951 65.7952C121.145 65.9689 122.339 66.1404 123.534 66.3096C124.188 66.3643 124.834 66.4862 125.463 66.6734C126.188 66.9361 126.822 67.4017 127.289 68.0147C127.757 68.6277 128.038 69.3623 128.1 70.1307C128.259 73.1055 127.997 76.0879 127.321 78.9893C127.482 79.0216 127.64 79.0608 127.797 79.1053C128.27 76.9131 128.546 74.683 128.621 72.4415C128.647 71.6713 128.633 70.901 128.581 70.1307C128.523 69.3985 128.29 68.6911 127.9 68.0686C127.51 67.4462 126.975 66.9273 126.342 66.5559C125.493 66.1298 124.567 65.8795 123.619 65.82C123.531 66.0113 123.215 66.0558 123.177 65.8057L123.172 65.7665C122.961 65.7417 122.752 65.7161 122.547 65.6867C119.831 65.2985 117.116 64.8998 114.403 64.4906C108.043 63.5365 101.688 62.5511 95.3376 61.5342C93.7649 61.2832 92.1924 61.0283 90.6202 60.7697C90.6024 60.8099 90.5729 60.8437 90.5355 60.8668C90.4982 60.8899 90.4547 60.9012 90.4108 60.8993ZM118.765 92.5396C117.733 92.4327 116.703 92.2737 115.677 92.1231C113.485 91.7981 111.298 91.438 109.117 91.043C104.734 90.2566 100.368 89.3804 96.0185 88.4143L96.0652 88.4248C96.096 88.4336 96.1246 88.4484 96.1496 88.4684C96.1746 88.4883 96.1954 88.513 96.2109 88.5409C96.2264 88.5689 96.2362 88.5997 96.2397 88.6314C96.2433 88.6632 96.2406 88.6954 96.2317 88.7261C96.2205 88.7645 96.1998 88.7995 96.1714 88.8278C96.139 88.8579 96.1044 88.8865 96.0713 88.9166C99.6837 89.711 103.308 90.4499 106.943 91.1334C109.189 91.5537 111.44 91.9491 113.697 92.3061C114.752 92.4728 115.806 92.6292 116.861 92.7754C117.847 92.9892 118.859 93.0639 119.866 92.9976C120.656 92.8816 121.399 92.549 122.012 92.0365C121.881 91.936 121.755 91.8301 121.635 91.7186C120.824 92.3586 119.792 92.6535 118.765 92.5396ZM50.3156 64.2496C50.9147 62.3978 51.6932 60.609 52.6401 58.9085C53.1523 57.9939 53.7313 57.1183 54.3725 56.2888C54.5105 56.1131 54.6511 55.9398 54.7943 55.7691C54.9341 55.5633 55.099 55.3758 55.2854 55.211C55.4413 55.1055 55.5866 55.1582 55.7765 55.1831C56.0582 55.2203 56.3396 55.2587 56.6208 55.2983C63.4525 56.2564 70.196 57.744 76.9833 58.9582C77.1075 58.9808 77.2318 59.0004 77.3553 59.0222C77.5677 58.8952 77.7817 58.7709 77.9971 58.6494C71.5315 57.5 65.1073 56.1156 58.6168 55.1093C57.713 54.9692 56.8091 54.8386 55.9052 54.7176C55.6965 54.6626 55.4816 54.6348 55.2658 54.6348C55.0933 54.6641 55.0089 54.7975 54.8944 54.924C54.554 55.2991 54.2298 55.6875 53.922 56.0892C52.7223 57.6762 51.7227 59.4051 50.9461 61.2367C49.8863 63.7719 49.0616 66.3991 48.4823 69.0852C48.6729 68.9624 48.8642 68.8404 49.0532 68.7154C49.4108 67.2096 49.832 65.7197 50.3156 64.2496ZM82.8418 85.7464C79.9758 85.1528 77.1384 84.4169 74.3086 83.6712C71.3936 82.8976 68.4831 82.107 65.5773 81.2994L65.4786 81.7731C67.7051 82.3878 69.9334 82.9964 72.1634 83.5989C75.2079 84.4154 78.2584 85.2214 81.3346 85.9128C82.841 86.251 84.3294 86.4928 85.8132 86.767L86.5807 86.4107C86.2794 86.3504 85.9782 86.2879 85.6769 86.2382C84.7301 86.0815 83.784 85.9422 82.8418 85.7464Z" fill="black"/>
<path id="Vector_4" d="M54.5583 100.62C54.2961 100.456 54.5379 100.039 54.8015 100.204C55.9668 100.923 57.2376 101.455 58.5676 101.781C60.685 102.227 62.8513 102.395 65.0121 102.283C67.011 102.306 69.0071 102.127 70.9701 101.749C70.4595 98.7519 70.1988 95.7173 70.1905 92.6767C70.183 92.1962 70.18 91.7164 70.1777 91.2358C69.2485 91.1548 68.3267 91.0037 67.4202 90.7839C64.1737 89.8586 61.095 88.4229 58.2995 86.5305C58.0366 86.3663 58.2791 85.9498 58.5428 86.1147C59.3113 86.5978 60.0898 87.0649 60.8777 87.5157C61.9462 88.1285 63.0487 88.68 64.1798 89.1675C64.5971 86.4981 65.0393 83.9462 65.4776 81.7732L65.5763 81.2994C65.8994 79.7395 66.2196 78.398 66.5269 77.3736C65.9641 77.384 65.4023 77.3233 64.8547 77.1929C64.431 77.9028 63.9681 78.5885 63.4681 79.2469C62.8274 80.1326 62.0472 80.9085 61.1579 81.5442C60.4484 82.0244 59.6237 82.3069 58.7687 82.3625C57.9138 82.4181 57.0594 82.2448 56.2937 81.8606C55.6809 81.4879 55.1949 80.939 54.8992 80.2856C54.6035 79.6321 54.512 78.9047 54.6366 78.1984C53.9625 78.6503 53.2853 79.0917 52.5961 79.5165C51.8866 79.9534 51.165 80.3729 50.4254 80.7616C50.4736 80.8467 50.524 80.9296 50.5707 81.0154C51.0686 81.9493 51.4903 82.9219 51.8316 83.9236C52.5796 85.8496 52.8704 87.9228 52.6812 89.9802C52.2353 92.6433 51.474 95.2439 50.4133 97.7271C49.5598 100.045 48.5714 102.31 47.4532 104.512C46.8942 105.582 46.2651 106.613 45.5701 107.6C50.6378 108.887 56.2417 109.899 58.8855 109.971C59.8694 110.018 60.8553 110.004 61.8373 109.928C61.8102 108.756 62.0204 106.098 62.3819 102.75C62.0964 102.738 61.8095 102.732 61.5255 102.714C59.0654 102.605 56.6712 101.885 54.5583 100.62ZM62.9694 99.0806C63.1629 99.3958 63.4525 99.6405 63.7957 99.7786C64.1388 99.9166 64.5172 99.9408 64.8751 99.8474C64.9366 99.8308 65.0021 99.8392 65.0575 99.8708C65.1128 99.9024 65.1533 99.9546 65.1702 100.016C65.1872 100.077 65.1791 100.143 65.1478 100.199C65.1164 100.254 65.0644 100.295 65.0031 100.312C64.5428 100.432 64.0562 100.4 63.6152 100.222C63.1741 100.045 62.802 99.7295 62.5536 99.3239C62.5242 99.2689 62.5172 99.2046 62.5341 99.1446C62.551 99.0846 62.5905 99.0334 62.6443 99.0019C62.6982 98.9704 62.7621 98.961 62.8227 98.9757C62.8834 98.9904 62.9359 99.028 62.9694 99.0806Z" fill="#6DD3A8"/>
<path id="Vector_5" d="M133.835 23.3746C133.226 22.968 132.587 22.6087 131.924 22.2997C131.418 22.0594 130.873 21.9119 130.315 21.8644C130.465 22.2335 130.602 22.604 130.738 22.9686C132.441 27.8644 133.126 33.0565 132.751 38.2265C132.616 40.7144 132.271 43.1865 131.72 45.6163C131.539 46.4102 131.343 47.1981 131.11 47.9814C131.284 47.9283 131.45 47.8523 131.604 47.7554C135.596 45.2186 137.661 41.6581 138.138 35.9849C138.532 31.2931 137.714 26.0395 133.835 23.3746ZM52.863 48.5403C53.1522 47.6161 53.3661 46.67 53.5025 45.7112C53.7511 44.1468 53.8347 42.5658 54.0516 40.9991C54.3967 38.5972 54.5772 36.1744 54.5917 33.7479C54.5917 29.7558 54.0584 25.3683 51.9351 21.8945C48.459 23.0002 45.4258 25.0113 43.661 28.2562C42.6269 30.1674 42.042 32.2891 41.9506 34.4602C41.8593 36.6313 42.2639 38.7946 43.1337 40.7859C44.7735 44.4036 48.8891 47.54 52.863 48.5403Z" fill="#FFD35C"/>
<path id="Vector_6" d="M112.334 21.9578C102.609 21.9036 92.8844 21.8602 83.1594 21.8275C78.3208 21.8064 73.4823 21.7813 68.6442 21.7522C66.1977 21.7371 63.7513 21.7203 61.3049 21.7017C60.0811 21.6927 58.8571 21.6829 57.6329 21.6724C56.5551 21.6633 55.4591 21.6023 54.379 21.643C55.2091 23.3408 55.8801 25.1119 56.3833 26.9336C57.3134 30.4455 57.6752 34.0836 57.4552 37.7098C57.3325 39.5808 57.1087 41.4437 56.7848 43.2904C56.6251 44.2545 56.476 45.2239 56.2651 46.1775C56.0911 46.9624 55.8885 47.7397 55.716 48.5238H57.242C62.0302 48.5358 66.8184 48.5863 71.6058 48.6488C76.2005 48.7091 80.7951 48.7806 85.3897 48.8311C89.9843 48.8816 94.5721 48.9124 99.1638 48.8929C103.94 48.8733 108.715 48.7942 113.489 48.6556C118.576 48.5019 123.66 48.2672 128.74 47.9513C129.512 45.0487 130.043 42.0873 130.327 39.0973C130.487 35.9939 130.369 32.8825 129.973 29.8003C129.668 27.1911 129.178 24.6071 128.505 22.0678C123.116 22.0231 117.726 21.9865 112.334 21.9578ZM74.3287 37.4741C73.3676 40.5826 70.5099 43.1435 67.14 43.0223C66.3772 42.9981 65.6267 42.8226 64.9323 42.5057C64.2379 42.1889 63.6135 41.7372 63.0952 41.1769C62.1575 40.1274 61.5314 38.8369 61.2875 37.4507C60.9913 35.9583 61.1006 34.4138 61.604 32.9779C62.1074 31.5421 62.9865 30.2674 64.1497 29.2866C64.16 29.2841 64.1695 29.2794 64.1778 29.2729C64.1862 29.2664 64.193 29.2583 64.198 29.249C64.504 29.0151 64.8319 28.8113 65.1771 28.6404C67.653 27.4284 70.4881 28.3963 72.4637 30.1069C73.2849 30.7721 73.9169 31.6415 74.2963 32.6279C74.8206 34.1989 74.8325 35.8959 74.3302 37.4741H74.3287ZM90.5296 39.9386C90.4932 39.9646 90.4501 39.9796 90.4054 39.9815L88.4771 40.0659C87.0249 40.1269 85.5735 40.1849 84.1205 40.2271C83.5285 40.2444 82.9365 40.2595 82.3437 40.264C82.0141 40.2774 81.684 40.2694 81.3555 40.2399C81.2906 40.2381 81.2291 40.2107 81.1843 40.1637C81.1396 40.1167 81.1153 40.054 81.1167 39.9891C81.1175 39.9497 81.1281 39.9111 81.1476 39.8769C82.8611 36.8263 84.6877 33.8338 86.2506 30.7012C86.3508 30.5008 86.6272 30.5807 86.6905 30.7584C87.815 33.8142 89.5135 36.6207 90.6373 39.6772C90.658 39.7252 90.6589 39.7794 90.6397 39.828C90.6205 39.8765 90.5828 39.9155 90.5349 39.9364L90.5296 39.9386ZM110.038 40.9057C106.867 40.9321 103.695 40.9811 100.524 40.9163C100.485 40.9163 100.447 40.9061 100.413 40.8867C100.379 40.8673 100.351 40.8393 100.332 40.8056C100.302 40.7684 100.285 40.7228 100.283 40.6753C100.117 37.2429 100.126 33.8037 99.9599 30.3713C99.9603 30.3075 99.9858 30.2464 100.031 30.2013C100.076 30.1562 100.137 30.1306 100.201 30.1302C103.381 30.2914 106.56 29.9276 109.74 30.1265C109.804 30.1278 109.864 30.1537 109.909 30.1986C109.954 30.2435 109.98 30.3041 109.981 30.3675C110.02 33.8014 110.24 37.2308 110.282 40.6647C110.281 40.7284 110.256 40.7893 110.211 40.8343C110.165 40.8793 110.105 40.905 110.041 40.9057H110.038ZM126.022 39.6885L121.158 37.0161L121.178 42.2382C121.178 42.3021 121.153 42.3634 121.107 42.4086C121.062 42.4538 121.001 42.4792 120.937 42.4792C120.873 42.4792 120.812 42.4538 120.767 42.4086C120.721 42.3634 120.696 42.3021 120.696 42.2382L120.676 37.1818L116.527 39.5921C116.472 39.6203 116.408 39.6263 116.349 39.609C116.29 39.5917 116.24 39.5523 116.209 39.4991C116.178 39.4458 116.168 39.3827 116.182 39.3227C116.196 39.2626 116.233 39.2103 116.284 39.1764L120.563 36.6907L116.097 34.2375C115.825 34.0869 116.068 33.6719 116.34 33.821L120.673 36.2012C120.664 34.2669 120.656 32.3336 120.649 30.4014C120.649 30.3375 120.675 30.2762 120.72 30.231C120.765 30.1858 120.826 30.1604 120.89 30.1604C120.954 30.1604 121.016 30.1858 121.061 30.231C121.106 30.2762 121.131 30.3375 121.131 30.4014L121.155 36.3518L125.776 33.6711C125.832 33.6388 125.897 33.6298 125.959 33.6461C126.021 33.6623 126.074 33.7025 126.106 33.7577C126.139 33.813 126.148 33.8787 126.131 33.9406C126.115 34.0025 126.075 34.0554 126.02 34.0876L121.546 36.6817L126.267 39.2758C126.539 39.4264 126.296 39.8414 126.024 39.6916L126.022 39.6885Z" fill="#FEE992"/>
<path id="Vector_7" d="M128.698 21.5902C118.967 21.5048 109.235 21.4461 99.5026 21.4139C89.7771 21.3727 80.0516 21.3283 70.3261 21.2806C67.625 21.2645 64.924 21.247 62.223 21.2279L58.0923 21.1955C56.7365 21.1842 55.3574 21.0893 54.0076 21.1744C53.9656 21.1754 53.9247 21.1873 53.8886 21.2087C53.8525 21.2302 53.8225 21.2606 53.8016 21.297C53.7806 21.3333 53.7694 21.3745 53.7689 21.4165C53.7685 21.4585 53.7788 21.4999 53.799 21.5367C55.3936 24.7476 56.4133 28.2131 56.8119 31.7759C57.1689 35.3995 57.031 39.0547 56.4021 42.6411C56.2356 43.6813 56.0745 44.7275 55.8598 45.7594C55.6542 46.7453 55.3838 47.7177 55.1781 48.7014C55.17 48.7325 55.1681 48.7648 55.1725 48.7965C55.177 48.8283 55.1876 48.8588 55.204 48.8864C55.2203 48.914 55.2419 48.9381 55.2676 48.9573C55.2933 48.9765 55.3225 48.9904 55.3536 48.9982C55.3721 49.0032 55.391 49.006 55.4101 49.0065C60.2352 49.0065 65.0598 49.0416 69.8839 49.1119C74.4929 49.1692 79.1018 49.2407 83.7107 49.2965C88.2925 49.3522 92.8743 49.3906 97.4561 49.3831C102.199 49.3751 106.942 49.3113 111.684 49.1918C116.778 49.0562 121.87 48.8405 126.959 48.5448C127.617 48.5066 128.275 48.4667 128.932 48.425C128.985 48.4238 129.035 48.4061 129.077 48.3743C129.119 48.3425 129.149 48.2983 129.164 48.248C129.95 45.2961 130.496 42.2859 130.799 39.2463C130.973 36.0947 130.858 32.9338 130.455 29.8032C130.141 27.0911 129.63 24.4054 128.926 21.7672C128.912 21.7174 128.882 21.6734 128.841 21.6416C128.8 21.6098 128.75 21.5918 128.698 21.5902ZM130.331 39.1002C130.046 42.0902 129.515 45.0516 128.743 47.9543C123.664 48.2701 118.58 48.5049 113.493 48.6585C108.719 48.8026 103.944 48.8817 99.1675 48.8958C94.5728 48.9154 89.9843 48.8852 85.3934 48.834C80.8025 48.7828 76.2042 48.712 71.6095 48.6517C66.8221 48.5892 62.0339 48.5387 57.2457 48.5267H55.7197C55.8937 47.7426 56.0963 46.9653 56.2688 46.1804C56.4797 45.2269 56.6288 44.2575 56.7885 43.2934C57.1124 41.4466 57.3362 39.5837 57.4589 37.7128C57.6789 34.0865 57.3171 30.4484 56.387 26.9365C55.8838 25.1149 55.2128 23.3438 54.3827 21.6459C55.4628 21.6052 56.5588 21.6663 57.6366 21.6753C58.8608 21.6858 60.0848 21.6956 61.3086 21.7047C63.755 21.7237 66.2014 21.7406 68.6479 21.7551C73.486 21.7848 78.3245 21.8099 83.1631 21.8305L112.338 21.96C117.73 21.9901 123.121 22.028 128.511 22.0737C129.184 24.613 129.675 27.1971 129.98 29.8063C130.375 32.8875 130.492 35.998 130.331 39.1002ZM37.7284 114.144C37.9814 114.023 38.2247 113.884 38.4725 113.754C38.4725 113.692 38.4771 113.63 38.4786 113.568C38.4805 113.512 38.5025 113.458 38.5404 113.416C38.5784 113.374 38.6301 113.346 38.6862 113.339C38.7424 113.331 38.7994 113.343 38.8473 113.374C38.8951 113.404 38.9308 113.45 38.9478 113.504C41.5825 112.074 43.8496 110.052 45.5709 107.597C46.2659 106.61 46.8949 105.578 47.4539 104.509C48.5716 102.307 49.5595 100.041 50.4125 97.7238C51.4732 95.2406 52.2345 92.64 52.6805 89.9769C52.8696 87.9195 52.5788 85.8463 51.8308 83.9203C51.4895 82.9186 51.0679 81.946 50.5699 81.0122C50.5232 80.9263 50.4728 80.8434 50.4246 80.7583C50.2852 80.8336 50.1459 80.909 50.005 80.9768C50.6077 82.0516 51.0988 83.1854 51.4708 84.3602C52.0637 85.9577 52.3353 87.6566 52.27 89.3593C51.9991 91.6399 51.4225 93.8736 50.5556 96.0004C49.8107 98.0175 49.0311 100.03 48.1453 101.99C47.3024 103.928 46.2639 105.774 45.0459 107.501C43.8894 109.102 42.4919 110.514 40.9032 111.688C37.7599 113.941 34.0992 115.366 30.2595 115.83C28.3364 116.084 26.3908 116.119 24.4597 115.936C22.4556 115.778 20.4988 115.246 18.6908 114.368C17.0283 113.531 15.6179 112.267 14.6039 110.706C13.6799 109.222 13.0681 107.566 12.8059 105.837C12.2929 102.238 12.7948 98.5665 14.2551 95.2366C15.6889 91.8234 17.8592 88.7691 20.6108 86.2922C21.9793 85.0547 23.4829 83.9753 25.0932 83.0745C26.5594 82.2733 28.0977 81.6118 29.6878 81.0988C33.0125 79.99 36.4223 79.166 39.7809 78.1733C39.749 78.0198 39.7262 77.8647 39.7123 77.7085C36.5488 78.6674 33.3175 79.4244 30.1698 80.4344C28.2738 81.0116 26.4426 81.7832 24.7053 82.737C19.006 85.994 14.78 91.3208 12.9046 97.6115C11.7582 101.56 11.707 106.085 13.5592 109.832C14.5002 111.743 15.9763 113.34 17.8081 114.427C19.8543 115.566 22.1248 116.244 24.4605 116.413C29.0067 116.863 33.59 116.079 37.7284 114.144Z" fill="black"/>
<path id="Vector_8" d="M71.4507 29.9231C70.4753 29.2092 69.3353 28.7532 68.1366 28.5975C66.8239 28.4662 65.5109 28.8436 64.4684 29.652C64.1952 29.8655 63.9382 30.0989 63.6994 30.3502C62.7619 31.4026 62.1109 32.6783 61.8087 34.0549C61.5065 35.4314 61.5633 36.8625 61.9737 38.2108C62.3336 39.4651 63.0602 40.5833 64.0601 41.4217C64.6638 41.888 65.359 42.2218 66.1003 42.4014C66.8416 42.581 67.6124 42.6024 68.3625 42.4642C71.4394 41.9369 73.7021 39.15 74.1412 36.1432C74.381 34.7566 74.1654 33.3296 73.5266 32.0758C72.9972 31.2175 72.2892 30.4833 71.4507 29.9231Z" fill="#FFD35C"/>
<path id="Vector_9" d="M72.4605 30.107C70.4848 28.3964 67.6497 27.4285 65.1738 28.6405C64.8286 28.8114 64.5007 29.0152 64.1947 29.2491C64.1897 29.2584 64.1829 29.2665 64.1746 29.273C64.1662 29.2795 64.1567 29.2842 64.1465 29.2867C62.9832 30.2675 62.1041 31.5422 61.6007 32.978C61.0973 34.4139 60.988 35.9584 61.2842 37.4508C61.5281 38.837 62.1542 40.1275 63.092 41.177C63.6102 41.7373 64.2346 42.189 64.929 42.5058C65.6234 42.8226 66.3739 42.9982 67.1367 43.0224C70.5066 43.1436 73.3643 40.5827 74.3254 37.4742C74.8277 35.896 74.8158 34.199 74.2915 32.628C73.9125 31.6418 73.2811 30.7724 72.4605 30.107ZM74.1371 36.141C73.698 39.1471 71.4353 41.9355 68.3584 42.462C67.6083 42.6002 66.8375 42.5788 66.0962 42.3992C65.3549 42.2196 64.6597 41.8858 64.0561 41.4195C63.0561 40.5811 62.3295 39.4629 61.9697 38.2086C61.5592 36.8603 61.5024 35.4292 61.8046 34.0526C62.1068 32.6761 62.7579 31.4004 63.6953 30.348C63.9341 30.0966 64.1911 29.8633 64.4643 29.6498C65.5068 28.8414 66.8198 28.464 68.1325 28.5953C69.3312 28.751 70.4712 29.207 71.4466 29.9209C72.2843 30.4798 72.9918 31.2124 73.521 32.0691C74.1621 33.3238 74.3791 34.7525 74.1394 36.141H74.1371Z" fill="black"/>
<path id="Vector_10" d="M81.7574 39.779C82.0218 39.7865 82.2847 39.7835 82.5483 39.779C85.0528 39.7496 87.5572 39.6283 90.0586 39.5138C89.0041 36.7427 87.5083 34.1607 86.4281 31.3987C84.9767 34.2504 83.3309 36.9958 81.7574 39.779Z" fill="#FFD35C"/>
<path id="Vector_11" d="M86.6917 30.7591C86.6262 30.5806 86.352 30.5008 86.2518 30.7011C84.6874 33.8338 82.8623 36.8263 81.1488 39.8768C81.1287 39.9137 81.1184 39.955 81.1188 39.997C81.1192 40.0389 81.1304 40.0801 81.1512 40.1165C81.1721 40.1529 81.2019 40.1833 81.2379 40.2049C81.2738 40.2265 81.3147 40.2386 81.3567 40.2399C81.6852 40.2694 82.0153 40.2774 82.3449 40.264C82.9377 40.2595 83.5297 40.2444 84.1217 40.2271C85.5747 40.1849 87.0261 40.1269 88.4783 40.0659C89.1206 40.0388 89.7633 40.0106 90.4066 39.9815C90.4513 39.9795 90.4944 39.9646 90.5308 39.9386C90.5793 39.9192 90.6181 39.8813 90.6388 39.8333C90.6594 39.7853 90.6601 39.731 90.6408 39.6825V39.6772C89.5147 36.6207 87.8162 33.8142 86.6917 30.7591ZM82.549 39.7804C82.2884 39.7804 82.0218 39.7864 81.7581 39.7804C83.3316 36.9973 84.9774 34.2518 86.4281 31.4016C87.5082 34.1637 89.0018 36.7457 90.0586 39.5168C87.5587 39.6275 85.0542 39.751 82.5498 39.7804H82.549Z" fill="black"/>
<path id="Vector_12" d="M100.454 30.6197C100.604 33.891 100.609 37.1667 100.759 40.4372C103.772 40.4959 106.785 40.4522 109.797 40.4266C109.753 37.1494 109.555 33.8736 109.51 30.5987C106.489 30.4352 103.472 30.747 100.454 30.6197Z" fill="#FFD35C"/>
<path id="Vector_13" d="M109.745 30.1286C106.565 29.929 103.386 30.2928 100.206 30.1286C100.142 30.129 100.081 30.1545 100.036 30.1997C99.9905 30.2448 99.9649 30.3058 99.9645 30.3696C100.13 33.8021 100.122 37.2412 100.288 40.6736C100.29 40.7211 100.307 40.7667 100.337 40.804C100.356 40.8379 100.384 40.866 100.418 40.8855C100.451 40.905 100.49 40.915 100.529 40.9147C103.7 40.9817 106.872 40.9305 110.043 40.9041C110.106 40.9034 110.167 40.8778 110.212 40.8329C110.257 40.7881 110.283 40.7274 110.284 40.6639C110.244 37.2292 110.024 33.7998 109.982 30.3659C109.98 30.3036 109.955 30.2443 109.911 30.2002C109.867 30.1561 109.807 30.1305 109.745 30.1286ZM100.759 40.4371C100.609 37.1667 100.604 33.8909 100.454 30.6197C103.472 30.747 106.49 30.4352 109.508 30.5986C109.552 33.8759 109.75 37.1516 109.795 40.4266C106.783 40.4522 103.771 40.4959 100.759 40.4371ZM126.268 39.2727L121.546 36.6816L126.023 34.086C126.05 34.07 126.074 34.0488 126.093 34.0236C126.112 33.9984 126.126 33.9696 126.134 33.939C126.142 33.9084 126.144 33.8764 126.14 33.8451C126.136 33.8137 126.125 33.7835 126.109 33.7561C126.093 33.7288 126.072 33.7048 126.047 33.6857C126.022 33.6665 125.993 33.6525 125.962 33.6445C125.932 33.6364 125.9 33.6345 125.868 33.6388C125.837 33.6431 125.807 33.6535 125.78 33.6695L121.158 36.3502L121.134 30.3998C121.134 30.3359 121.109 30.2745 121.064 30.2293C121.019 30.1841 120.957 30.1587 120.893 30.1587C120.829 30.1587 120.768 30.1841 120.723 30.2293C120.678 30.2745 120.652 30.3359 120.652 30.3998L120.676 36.1995L116.343 33.8194C116.071 33.6687 115.828 34.086 116.1 34.2359L120.567 36.6891L116.287 39.1747C116.235 39.2082 116.197 39.2608 116.183 39.3214C116.168 39.3821 116.177 39.446 116.209 39.4998C116.24 39.5537 116.291 39.5932 116.352 39.6101C116.412 39.627 116.476 39.62 116.531 39.5905L120.679 37.184L120.699 42.2403C120.699 42.3043 120.724 42.3656 120.77 42.4108C120.815 42.456 120.876 42.4814 120.94 42.4814C121.004 42.4814 121.065 42.456 121.111 42.4108C121.156 42.3656 121.181 42.3043 121.181 42.2403L121.161 37.019L126.025 39.6907C126.297 39.8383 126.542 39.4218 126.268 39.2727Z" fill="black"/>
<path id="Vector_14" d="M30.6696 66.7667C31.5506 66.0683 32.2087 65.128 32.5632 64.0612C32.8729 63.0402 32.875 61.9507 32.5692 60.9286C32.2784 59.8428 31.6612 58.8725 30.8011 58.1489C29.941 57.4253 28.8794 56.9831 27.7599 56.8823C26.7854 56.8537 25.8204 57.0813 24.9613 57.5423C24.1022 58.0033 23.379 58.6816 22.864 59.5095C21.3154 61.9341 21.3764 65.9389 24.1272 67.4996C25.1681 68.0374 26.345 68.2549 27.5094 68.1244C28.6738 67.994 29.7735 67.5216 30.6696 66.7667ZM26.0509 63.6966C25.9139 63.4613 25.8401 63.1947 25.8364 62.9224C25.8327 62.6502 25.8993 62.3817 26.0298 62.1427C26.2188 61.8158 26.5135 61.5631 26.8654 61.4262C27.2173 61.2892 27.6053 61.2763 27.9656 61.3895C29.3967 61.9921 28.7828 64.0258 27.4624 64.3331C27.1898 64.4031 26.9015 64.3782 26.645 64.2625C26.3884 64.1468 26.1789 63.9472 26.0509 63.6966Z" fill="#FFD35C"/>
<path id="Vector_15" d="M30.1935 67.6849C31.2352 67.0937 32.0784 66.2071 32.6168 65.1371C33.1552 64.0671 33.3645 62.8616 33.2184 61.6728C33.0723 60.4839 32.5773 59.365 31.7959 58.4572C31.0145 57.5493 29.9817 56.8933 28.8279 56.5719C27.6166 56.2996 26.3506 56.4129 25.207 56.8961C24.0634 57.3792 23.0995 58.2079 22.4504 59.2662C21.6716 60.499 21.2965 61.9439 21.3771 63.3998C21.3968 64.8595 21.9848 66.254 23.0161 67.2872C24.9774 69.0648 28.0121 69 30.1935 67.6849ZM22.8662 59.5095C23.3812 58.6816 24.1043 58.0033 24.9634 57.5423C25.8225 57.0813 26.7875 56.8537 27.7621 56.8822C28.8816 56.9831 29.9431 57.4252 30.8032 58.1489C31.6633 58.8725 32.2805 59.8428 32.5714 60.9285C32.8771 61.9507 32.875 63.0402 32.5653 64.0612C32.2108 65.128 31.5527 66.0683 30.6718 66.7667C29.7758 67.5211 28.6766 67.9932 27.5127 68.1237C26.3487 68.2541 25.1722 68.0369 24.1316 67.4996C21.3808 65.9389 21.3198 61.9341 22.8684 59.5095H22.8662Z" fill="black"/>
<path id="Vector_16" d="M27.4618 64.3306C28.7822 64.0233 29.3946 61.9904 27.965 61.3871C27.6047 61.2739 27.2167 61.2868 26.8648 61.4237C26.5129 61.5607 26.2182 61.8134 26.0292 62.1403C25.8987 62.3792 25.8321 62.6478 25.8358 62.92C25.8395 63.1922 25.9133 63.4589 26.0503 63.6942C26.1783 63.9448 26.3878 64.1444 26.6444 64.2601C26.9009 64.3757 27.1892 64.4006 27.4618 64.3306ZM26.6062 63.6573C26.4537 63.4866 26.3566 63.2737 26.3278 63.0466C26.2991 62.8196 26.3399 62.5892 26.445 62.3858C26.5142 62.2543 26.6092 62.1381 26.7244 62.0442C26.8396 61.9503 26.9726 61.8806 27.1154 61.8394C27.2582 61.7981 27.4078 61.786 27.5553 61.804C27.7029 61.8219 27.8453 61.8694 27.974 61.9437C28.0754 62.0369 28.1574 62.1492 28.2153 62.2742C28.2733 62.3991 28.306 62.5342 28.3117 62.6718C28.3173 62.8095 28.2958 62.9468 28.2484 63.0761C28.2009 63.2054 28.1284 63.324 28.035 63.4253C28.0025 63.4609 27.9675 63.4941 27.9303 63.5247C27.8549 63.62 27.7614 63.6995 27.6552 63.7587C27.549 63.8178 27.4322 63.8555 27.3115 63.8695C27.1908 63.8835 27.0685 63.8735 26.9516 63.8402C26.8347 63.8069 26.7255 63.7509 26.6303 63.6754L26.6062 63.6573ZM20.7785 62.8717C17.4568 63.2108 14.113 63.2783 10.7803 63.0735C10.7167 63.0743 10.6558 63.1 10.6108 63.145C10.5657 63.19 10.5401 63.2509 10.5393 63.3146V67.1718C10.5393 67.2357 10.5647 67.297 10.6099 67.3422C10.6551 67.3874 10.7164 67.4128 10.7803 67.4128C10.8443 67.4128 10.9056 67.3874 10.9508 67.3422C10.996 67.297 11.0214 67.2357 11.0214 67.1718V63.5654C11.871 63.6156 12.7216 63.6465 13.5733 63.658V65.2089C13.5767 65.2704 13.6036 65.3282 13.6483 65.3706C13.6931 65.4129 13.7523 65.4365 13.8139 65.4365C13.8755 65.4365 13.9348 65.4129 13.9795 65.3706C14.0243 65.3282 14.0511 65.2704 14.0546 65.2089V63.658C16.2997 63.6805 18.5444 63.5799 20.7785 63.3567C21.0836 63.3221 21.0904 62.84 20.7785 62.8717ZM63.4407 61.0911C62.3477 60.9191 61.2299 60.9977 60.1717 61.3208C58.648 61.8586 57.2231 62.6431 55.9537 63.643C54.5979 64.6493 53.3032 65.7294 51.9413 66.7251C50.8117 67.5465 49.6577 68.334 48.4811 69.0865C48.1481 69.3011 47.8212 69.5226 47.4846 69.7312C47.0107 70.0231 46.5324 70.3076 46.0497 70.5846C45.1805 71.0885 44.3067 71.5864 43.4654 72.1355C42.8963 72.5039 42.3555 72.9143 41.8475 73.3632C40.5625 74.5111 39.5607 75.9731 39.7136 77.71C39.7278 77.8661 39.7507 78.0213 39.7822 78.1748C39.7965 78.2426 39.804 78.3096 39.8213 78.3781C40.4518 80.8532 43.2161 82.3453 45.6324 82.3408C46.784 82.2832 47.9118 81.991 48.9466 81.4821C49.3051 81.3262 49.6576 81.1567 50.0071 80.9813C50.1479 80.9104 50.2873 80.8359 50.4266 80.7628C51.1648 80.3742 51.8879 79.9546 52.5974 79.5178C53.2852 79.0903 53.9655 78.6509 54.6379 78.1996C54.6636 77.978 54.7041 77.7583 54.7591 77.5421C54.8222 77.2884 54.9046 77.0398 55.0054 76.7986C55.2564 76.2545 55.5682 75.7406 55.9349 75.2666C56.3941 74.6372 56.8714 74.021 57.366 73.419L57.8631 72.8081C57.3686 72.5984 56.9776 72.201 56.7759 71.7031C56.5743 71.2053 56.5784 70.6478 56.7875 70.153C56.8168 70.0851 56.8495 70.0188 56.8855 69.9542C57.0318 69.6773 57.2477 69.4432 57.5117 69.2749C57.7758 69.1065 58.0791 69.0097 58.3919 68.9938C58.627 68.9964 58.8592 69.0461 59.0747 69.14C59.2903 69.234 59.4848 69.3702 59.6467 69.5406C59.8318 68.5731 60.2554 67.667 60.879 66.9044C62.1931 65.4764 63.9997 64.5998 65.9346 64.4512C66.7879 64.305 67.662 64.3337 68.5038 64.5355C68.5136 64.5355 68.5226 64.5431 68.5332 64.5461C68.5874 64.5114 68.6401 64.4708 68.6951 64.4391C68.8382 64.3487 68.9836 64.2614 69.129 64.1732C67.6207 62.5517 65.6227 61.4691 63.4407 61.0911Z" fill="black"/>
<path id="Vector_17" d="M89.7256 72.6457L91.7261 72.9658C91.696 72.9183 91.6689 72.8694 91.6387 72.8219C90.8892 71.5902 89.7443 70.6489 88.3909 70.1518C87.2039 69.7534 85.915 69.7819 84.7468 70.2324C83.6836 70.6585 82.7307 71.3201 81.9599 72.1674C81.3256 72.8115 80.8173 73.5684 80.461 74.3992C80.3151 74.7736 80.1933 75.157 80.0964 75.5471C79.6694 77.0597 79.8177 78.677 80.513 80.0867C81.1356 81.1807 82.1063 82.035 83.2705 82.5136C84.4545 83.0245 85.7683 83.1535 87.029 82.8826C88.3272 82.5743 89.5121 81.9063 90.4479 80.9552C91.4212 79.9855 92.1364 78.7876 92.5283 77.4708C92.7999 76.6353 92.826 75.7394 92.6036 74.8895C92.4629 74.407 92.2699 73.9412 92.0281 73.5006L89.5907 73.1104C89.2909 73.0622 89.422 72.5967 89.7256 72.6457ZM86.2796 77.1537C85.1524 77.0098 84.0135 76.9805 82.8803 77.0663C82.5708 77.0904 82.573 76.6084 82.8803 76.585C84.0134 76.4984 85.1524 76.5277 86.2796 76.6724C86.5809 76.7108 86.5861 77.1928 86.2796 77.1537Z" fill="#FF8684"/>
<path id="Vector_18" d="M82.1842 82.4886C83.359 83.2137 84.7266 83.5644 86.1054 83.4941C87.5186 83.3954 88.8697 82.8749 89.9837 81.9997C91.1334 81.1113 92.0402 79.947 92.62 78.6148C92.972 77.8525 93.1832 77.0329 93.2437 76.1954C93.255 75.3009 93.0449 74.4176 92.632 73.624L92.6177 73.5946L92.031 73.5004C92.2728 73.9411 92.4657 74.4068 92.6064 74.8894C92.8289 75.739 92.8027 76.6346 92.5311 77.4699C92.1395 78.787 91.4243 79.9852 90.4507 80.955C89.515 81.9061 88.33 82.5742 87.0319 82.8825C85.7711 83.1534 84.4573 83.0244 83.2733 82.5134C82.1093 82.0346 81.1386 81.1804 80.5158 80.0865C79.8206 78.6768 79.6722 77.0596 80.0993 75.5469C80.1962 75.1569 80.3179 74.7735 80.4638 74.399C80.8201 73.5682 81.3285 72.8113 81.9627 72.1672C82.7336 71.3199 83.6864 70.6584 84.7496 70.2322C85.9179 69.7817 87.2067 69.7532 88.3937 70.1516C89.7471 70.6488 90.892 71.5901 91.6416 72.8218C91.6717 72.8692 91.6988 72.9182 91.7289 72.9656L92.3451 73.0621C91.7241 71.8997 90.8101 70.9198 89.6938 70.2194C88.4774 69.4926 87.0396 69.2289 85.6445 69.4767C84.4956 69.7454 83.419 70.2613 82.4899 70.9885C81.5607 71.7156 80.8012 72.6366 80.2642 73.6872C80.1654 73.876 80.0767 74.0698 79.9984 74.2679C79.3355 75.8527 79.2158 77.6124 79.6579 79.2723C80.0815 80.6156 80.9795 81.7588 82.1842 82.4886Z" fill="black"/>
<path id="Vector_19" d="M99.5321 82.3108C100.071 83.4438 100.894 84.4178 101.921 85.138C102.948 85.8582 104.144 86.3 105.393 86.4204C106.737 86.5763 108.096 86.2851 109.258 85.5919C110.607 84.7377 111.343 83.0565 111.731 81.5674C112.106 80.1647 112.03 78.6795 111.514 77.3223C111.03 76.0458 110.183 74.9387 109.078 74.1369C107.872 73.3442 106.453 72.9349 105.01 72.963C103.566 72.9911 102.165 73.4552 100.99 74.2944C100.694 74.4993 100.417 74.7305 100.162 74.9851C99.7104 75.4375 99.3535 75.9752 99.1118 76.5668L101.869 77.0609C102.174 77.1152 102.044 77.5799 101.741 77.5257L98.9484 77.0248C98.5148 78.8006 98.7215 80.6724 99.5321 82.3108Z" fill="#FF8684"/>
<path id="Vector_20" d="M100.162 74.9881C100.417 74.7335 100.694 74.5023 100.99 74.2974C102.165 73.4582 103.566 72.9941 105.01 72.966C106.454 72.9379 107.872 73.3472 109.078 74.14C110.183 74.9417 111.03 76.0488 111.514 77.3253C112.03 78.6825 112.106 80.1677 111.731 81.5704C111.343 83.0595 110.607 84.7407 109.258 85.5949C108.096 86.2881 106.737 86.5793 105.393 86.4234C104.144 86.3031 102.948 85.8613 101.921 85.1411C100.893 84.4209 100.07 83.4468 99.5314 82.3139C98.7215 80.6758 98.5148 78.8047 98.9476 77.0293L98.458 76.9419C98.4294 77.0346 98.3978 77.1257 98.3752 77.2214C98.0864 78.6017 98.183 80.035 98.6546 81.3641C99.0529 82.7075 99.8004 83.9213 100.821 84.8816C101.834 85.7963 103.063 86.437 104.393 86.7428C105.738 87.0625 107.146 86.9861 108.448 86.5228C109.219 86.2544 109.911 85.7989 110.463 85.1972C111.003 84.5533 111.433 83.825 111.736 83.0415C112.41 81.5409 112.604 79.869 112.292 78.254C111.981 76.832 111.268 75.5291 110.239 74.4992C109.126 73.447 107.714 72.7656 106.198 72.5487C104.681 72.3318 103.135 72.5901 101.771 73.2881C101.416 73.4607 101.074 73.6593 100.748 73.8824C99.8019 74.5246 99.0627 75.4276 98.62 76.4817L99.1118 76.5698C99.3535 75.9782 99.7104 75.4405 100.162 74.9881ZM56.2953 81.8604C57.061 82.2447 57.9154 82.418 58.7703 82.3624C59.6253 82.3068 60.45 82.0243 61.1595 81.5441C62.0488 80.9084 62.829 80.1325 63.4697 79.2468C63.9695 78.5883 64.4325 77.9026 64.8563 77.1927C64.699 77.1553 64.543 77.1126 64.3886 77.0647C63.6284 78.3925 62.6709 79.597 61.549 80.6372C60.9477 81.2012 60.2056 81.5927 59.4006 81.7707C58.5957 81.9487 57.7577 81.9066 56.9747 81.6488C56.5838 81.5076 56.2286 81.2826 55.9338 80.9898C55.639 80.6969 55.4117 80.3432 55.2679 79.9533C54.9702 79.0176 55.0164 78.0063 55.3982 77.1016C55.6251 76.5746 55.9169 76.0779 56.2666 75.623C56.6858 75.042 57.1218 74.4733 57.5742 73.9178C57.8253 73.6029 58.0809 73.2878 58.341 72.9725C58.175 72.9345 58.0134 72.8793 57.8589 72.8075C57.6922 73.0109 57.5265 73.2145 57.3618 73.4184C56.8707 74.021 56.3887 74.6356 55.9307 75.266C55.5642 75.7401 55.2524 76.254 55.0012 76.7981C54.9004 77.0393 54.818 77.2878 54.7549 77.5415C54.6999 77.7577 54.6594 77.9774 54.6337 78.199C54.5097 78.9057 54.602 79.6333 54.8985 80.2866C55.1949 80.9399 55.6818 81.4885 56.2953 81.8604Z" fill="black"/>
<path id="Vector_21" d="M65.9268 64.4522C63.9919 64.6008 62.1853 65.4775 60.8713 66.9054C60.2476 67.668 59.8241 68.5741 59.639 69.5417C59.4771 69.3712 59.2825 69.235 59.067 69.1411C58.8515 69.0471 58.6193 68.9974 58.3841 68.9949C58.0714 69.0107 57.7681 69.1076 57.504 69.2759C57.2399 69.4443 57.0241 69.6784 56.8777 69.9552C56.7387 70.2036 56.6536 70.4786 56.628 70.7621C56.6025 71.0457 56.6371 71.3314 56.7295 71.6007C56.8219 71.87 56.9701 72.1167 57.1643 72.3248C57.3586 72.5329 57.5946 72.6977 57.8569 72.8084C58.0113 72.8801 58.1729 72.9354 58.3389 72.9734C58.8467 73.0842 59.3756 73.0468 59.8627 72.8656C60.2433 73.8656 60.8489 74.7645 61.6326 75.4929C62.4163 76.2213 63.357 76.7597 64.382 77.0663C64.5372 77.1138 64.6923 77.1575 64.8497 77.1944C65.3973 77.3248 65.9591 77.3855 66.5219 77.3752C66.6936 77.3714 66.8661 77.3639 67.0386 77.3465C67.8011 77.2771 68.5398 77.0451 69.2052 76.6663C69.8705 76.2874 70.447 75.7704 70.8958 75.1502C71.0675 74.911 71.223 74.6606 71.3613 74.4007C71.4845 74.175 71.5956 73.943 71.6942 73.7055C72.0828 72.7534 72.2931 71.738 72.3149 70.7099C72.3892 68.9729 71.8058 67.2717 70.6811 65.9459C70.2365 65.4466 69.6954 65.0425 69.0904 64.758C68.9054 64.6745 68.7146 64.6045 68.5194 64.5486C68.5089 64.5486 68.4998 64.5403 68.49 64.5381C67.6502 64.3366 66.7783 64.3074 65.9268 64.4522ZM70.3467 66.2833C72.2561 68.4367 72.2486 71.8729 70.874 74.3005C70.5301 74.9375 70.0502 75.491 69.4683 75.9216C68.8864 76.3523 68.2168 76.6495 67.5071 76.7922C66.0905 77.044 64.6303 76.8088 63.3644 76.1248C62.6298 75.7535 61.9757 75.241 61.4395 74.6166C60.9032 73.9923 60.4954 73.2682 60.2393 72.486C60.2301 72.4551 60.2148 72.4263 60.1945 72.4013C60.1741 72.3763 60.149 72.3556 60.1205 72.3404C60.0921 72.3251 60.061 72.3156 60.0289 72.3124C59.9968 72.3092 59.9644 72.3124 59.9335 72.3218C59.9166 72.3265 59.9004 72.3334 59.8853 72.3422C59.5784 72.4928 59.2398 72.5671 58.898 72.5589C58.5563 72.5506 58.2216 72.46 57.9224 72.2947C57.6727 72.1714 57.4619 71.9815 57.3133 71.746C57.1647 71.5105 57.0841 71.2385 57.0802 70.96C57.0764 70.6815 57.1496 70.4074 57.2917 70.1679C57.4338 69.9284 57.6393 69.7328 57.8855 69.6027C58.0382 69.5345 58.2028 69.497 58.37 69.4923C58.5371 69.4877 58.7036 69.5161 58.8598 69.5759C59.0159 69.6356 59.1588 69.7255 59.2803 69.8405C59.4017 69.9555 59.4993 70.0933 59.5674 70.246L59.5735 70.2588C59.6925 70.4945 59.9975 70.3514 60.0254 70.1375C60.1303 69.2104 60.4649 68.3241 60.9989 67.559C61.5329 66.7939 62.2494 66.1742 63.0835 65.756C63.8817 65.3652 64.737 65.1036 65.6173 64.981C66.4132 64.8191 67.2314 64.7987 68.0343 64.9207C68.9337 65.109 69.7462 65.5878 70.3467 66.2833Z" fill="black"/>
<path id="Vector_22" d="M140.927 104.809L140.982 106.252C140.994 106.562 140.512 106.561 140.501 106.252L140.44 104.678C139.338 104.439 138.195 104.459 137.102 104.736C136.182 105 135.33 105.461 134.607 106.089C133.884 106.716 133.307 107.494 132.916 108.368C132.116 109.986 131.809 111.803 132.032 113.594C132.256 115.384 133.001 117.07 134.174 118.441C136.618 121.077 141.071 121.72 143.966 119.584C145.099 118.677 145.957 117.472 146.442 116.104C146.928 114.736 147.021 113.26 146.712 111.841C146.262 109.692 144.416 105.892 140.927 104.809Z" fill="#FF8684"/>
<path id="Vector_23" d="M63.7233 70.9191C63.7589 71.2421 63.7069 71.5686 63.5727 71.8644C63.4424 72.1431 63.8574 72.3917 63.9884 72.107C64.1677 71.7382 64.2432 71.3276 64.2069 70.9191C64.1752 70.6133 63.6924 70.6103 63.7233 70.9191ZM69.9788 71.0344L69.7777 72.2795C69.7287 72.5807 70.1934 72.7133 70.2424 72.4075L70.4435 71.1624C70.4925 70.8589 70.0285 70.7271 69.9788 71.0344ZM69.035 72.8587C67.8585 73.0507 66.3867 73.1524 65.3216 72.5152C65.2848 72.4957 65.2436 72.4859 65.2019 72.4866C65.1602 72.4873 65.1194 72.4986 65.0832 72.5193C65.047 72.5401 65.0167 72.5697 64.9951 72.6053C64.9734 72.6409 64.9611 72.6814 64.9593 72.7231C64.9636 73.2848 65.1794 73.8243 65.5637 74.2341C65.948 74.6438 66.4726 74.8936 67.0329 74.9338C67.5502 74.9018 68.0459 74.7151 68.4557 74.398C68.8656 74.0809 69.1708 73.648 69.3318 73.1554C69.3935 72.9641 69.2045 72.8316 69.035 72.8587ZM64.4343 68.0102C63.7195 68.2231 63.0693 68.6115 62.543 69.14C62.5025 69.1862 62.4811 69.246 62.4831 69.3074C62.4851 69.3688 62.5104 69.4271 62.5538 69.4705C62.5972 69.5139 62.6555 69.5392 62.7169 69.5412C62.7783 69.5432 62.8381 69.5218 62.8842 69.4813C63.3502 69.0097 63.9273 68.6628 64.5624 68.4727C64.6237 68.4555 64.6757 68.4146 64.7071 68.3592C64.7384 68.3037 64.7465 68.2381 64.7295 68.1766C64.7126 68.1152 64.6721 68.063 64.6167 68.0314C64.5614 67.9998 64.4959 67.9914 64.4343 68.008V68.0102ZM69.1465 69.4022C69.6945 69.1065 70.3014 68.9362 70.9233 68.9035C70.9872 68.9035 71.0485 68.8781 71.0937 68.8329C71.1389 68.7877 71.1643 68.7264 71.1643 68.6625C71.1643 68.5986 71.1389 68.5373 71.0937 68.4921C71.0485 68.4469 70.9872 68.4215 70.9233 68.4215C70.2162 68.4567 69.526 68.6497 68.9032 68.9864C68.6237 69.1205 68.8678 69.5362 69.1465 69.4022Z" fill="black"/>
<path id="Vector_24" d="M126.667 82.0916C125.783 81.2572 124.742 80.6058 123.605 80.1747C123.136 80.482 122.716 80.8586 122.36 81.2917C122.016 81.716 121.704 82.1646 121.426 82.6339L123.091 83.1921C123.384 83.29 123.258 83.7547 122.963 83.6561L121.189 83.0618C120.853 83.7007 120.614 84.3861 120.481 85.0954C120.253 86.606 120.356 88.1478 120.782 89.6147C121.718 92.3052 125.114 93.2859 127.691 93.0931C128.565 93.0338 129.419 92.7999 130.202 92.4054C129.597 91.5262 128.817 90.7823 127.91 90.2211C127.645 90.0591 127.888 89.6426 128.153 89.8053C129.132 90.4105 129.973 91.2151 130.62 92.1666C130.903 91.9894 131.168 91.7853 131.412 91.5573C132.391 90.6084 133.027 89.3605 133.22 88.0104C133.65 85.1775 132.095 82.2505 129.818 80.6191C128.698 79.76 127.312 79.3186 125.901 79.371C125.289 79.4222 124.692 79.5923 124.144 79.8719C125.204 80.3256 126.176 80.9631 127.015 81.7549C127.235 81.9643 126.893 82.3048 126.667 82.0916Z" fill="#FF8684"/>
<path id="Vector_25" d="M119.913 118.394C119.752 118.272 119.606 118.129 119.481 117.969C118.873 117.153 118.402 116.244 118.089 115.275C117.55 113.759 117.167 112.192 116.947 110.599C116.654 108.528 116.536 106.437 116.595 104.347C116.588 102.343 116.856 100.348 117.391 98.4169C117.689 97.4403 118.093 96.4994 118.596 95.6112C118.723 95.3752 118.875 95.1532 119.048 94.9491C113.769 96.7395 111.505 102.508 111.237 107.344C111.023 109.82 111.658 112.296 113.04 114.362C114.375 116.21 117.522 118.377 119.913 118.394Z" fill="#FCAFB7"/>
<path id="Vector_26" d="M96.0667 88.4276L96.02 88.4171L92.397 87.5961C92.6591 87.2662 92.9238 86.9385 93.1909 86.6131C93.525 86.233 93.8349 85.8322 94.1189 85.4133C94.2623 85.2248 94.3477 84.9986 94.3646 84.7624C94.3816 84.5262 94.3295 84.2901 94.2145 84.0831C94.0871 83.9047 93.9196 83.7588 93.7254 83.657C93.5313 83.5552 93.3159 83.5004 93.0968 83.4971C92.3112 83.5973 91.5627 83.8902 90.9177 84.3497C90.2843 84.6683 89.6433 84.9711 89.0015 85.2724C88.1956 85.649 87.3904 86.0347 86.5814 86.4135C86.3264 86.5335 86.0705 86.6523 85.8139 86.7698C83.5685 87.8516 81.2447 88.7628 78.8625 89.4957C76.1318 90.3588 73.2835 90.7921 70.4197 90.7799L70.3895 90.7859C70.669 90.8372 70.6637 91.2846 70.3639 91.2605C70.3029 91.256 70.2419 91.2447 70.1809 91.2386C70.1809 91.7192 70.1862 92.199 70.1937 92.6795C70.202 95.7201 70.4627 98.7547 70.9733 101.752C71.0238 101.741 71.075 101.732 71.1239 101.72C71.1819 101.707 71.2428 101.715 71.2949 101.744C71.347 101.773 71.3866 101.82 71.406 101.876C71.4254 101.932 71.4232 101.994 71.3999 102.048C71.3766 102.103 71.3338 102.147 71.2799 102.172C71.2906 102.173 71.3015 102.173 71.3122 102.172C74.9186 101.339 78.4201 100.104 81.7511 98.4898C85.1512 96.8624 88.3918 94.9207 91.4306 92.6901C93.0407 91.5127 94.5895 90.254 96.0712 88.9187C96.1044 88.8886 96.139 88.86 96.1714 88.8298C96.194 88.8074 96.2119 88.7807 96.2241 88.7513C96.2363 88.7219 96.2426 88.6903 96.2426 88.6585C96.2426 88.6266 96.2363 88.5951 96.2241 88.5657C96.2119 88.5363 96.194 88.5096 96.1714 88.4871C96.142 88.4589 96.106 88.4385 96.0667 88.4276ZM87.0891 95.0303C83.9124 97.0007 80.5487 98.6525 77.0472 99.9616C75.2162 100.641 73.344 101.203 71.4418 101.644C70.9382 98.683 70.6817 95.6849 70.675 92.681C70.6682 92.2088 70.666 91.7365 70.663 91.265C73.0033 91.2596 75.3329 90.9484 77.5926 90.3393C79.8883 89.768 82.1245 88.9801 84.2713 87.9862C86.7087 86.8527 89.2064 85.8125 91.5775 84.5501C91.9975 84.263 92.4742 84.0696 92.9755 83.9829C93.514 83.9513 94.0616 84.3482 93.8274 84.9282C93.5592 85.4342 93.2192 85.8987 92.8181 86.3073C92.461 86.7442 92.101 87.1788 91.7568 87.6255C91.7248 87.6811 91.7163 87.7472 91.7329 87.8091C91.7496 87.8711 91.7901 87.924 91.8457 87.9561C91.8628 87.9664 91.8814 87.9742 91.9007 87.9795L95.4807 88.7907C92.8721 91.1119 90.064 93.1989 87.0891 95.0273V95.0303ZM117.393 98.4198C116.858 100.351 116.59 102.346 116.596 104.35C116.537 106.44 116.655 108.531 116.948 110.602C117.169 112.195 117.551 113.762 118.09 115.278C118.404 116.246 118.874 117.156 119.483 117.972C119.608 118.131 119.753 118.274 119.914 118.397C119.978 118.445 120.047 118.487 120.118 118.522C120.339 118.593 120.575 118.606 120.803 118.559C121.03 118.511 121.241 118.405 121.415 118.25C121.995 117.739 122.393 117.054 122.55 116.297C122.802 115.264 122.992 114.218 123.121 113.163C123.911 108.56 124.04 103.868 123.503 99.2288C123.426 98.6488 123.334 98.0713 123.228 97.4964C123.118 96.5864 122.782 95.7185 122.248 94.9731C122.023 94.7012 121.729 94.4948 121.397 94.3756C121.065 94.2563 120.707 94.2285 120.36 94.2952C119.999 94.3419 119.654 94.4727 119.352 94.6771C119.239 94.7585 119.135 94.8533 119.044 94.9595C118.871 95.1637 118.719 95.3856 118.592 95.6216C118.091 96.5077 117.689 97.446 117.393 98.4198ZM119.25 95.4529C119.451 95.1851 119.722 94.9785 120.033 94.8562C120.345 94.734 120.684 94.7009 121.013 94.7607C121.795 94.8812 122.214 95.654 122.449 96.3424C122.585 96.761 122.691 97.189 122.765 97.6229C123.489 101.96 123.559 106.38 122.972 110.738C122.841 111.833 122.684 112.924 122.502 114.011C122.396 114.918 122.201 115.813 121.921 116.682C121.687 117.299 121.265 118.011 120.547 118.113C120.511 118.118 120.474 118.121 120.437 118.122H120.429C120.401 118.116 120.373 118.108 120.346 118.098C120.256 118.057 120.173 118 120.103 117.93C119.561 117.361 119.142 116.686 118.873 115.948C118.351 114.711 117.96 113.424 117.703 112.106C117.336 110.303 117.128 108.471 117.081 106.631C116.993 104.668 117.085 102.701 117.359 100.756C117.616 98.8773 118.26 97.0728 119.25 95.4559V95.4529Z" fill="black"/>
<path id="Vector_27" d="M49.7479 87.7021C49.0663 86.58 48.0902 85.6661 46.9256 85.0598C45.6266 84.3495 44.1122 84.1402 42.6692 84.4716C41.2466 84.7837 39.9676 85.5588 39.0327 86.6755C38.6732 87.169 38.416 87.7295 38.2762 88.3238C38.1364 88.9182 38.1167 89.5345 38.2184 90.1365C38.2891 91.4068 38.5725 92.6561 39.0568 93.8325C39.5618 94.9543 40.4199 95.8801 41.5002 96.4688C42.6884 97.0554 44.0486 97.1932 45.3303 96.8567C46.541 96.4933 47.6337 95.8152 48.4967 94.8916C49.3598 93.9679 49.9623 92.8318 50.2428 91.5993C50.4245 90.9495 50.4743 90.27 50.3893 89.6007C50.3043 88.9314 50.0862 88.2858 49.7479 87.7021ZM43.0224 90.1124C42.9516 89.8111 43.4164 89.6823 43.4872 89.9844C43.5889 90.4165 43.7544 90.831 43.9783 91.2144C44.282 90.1141 44.7297 89.0587 45.31 88.0757C45.3422 88.0205 45.3951 87.9803 45.457 87.9641C45.5188 87.9478 45.5846 87.9568 45.6399 87.9891C45.6951 88.0214 45.7353 88.0742 45.7515 88.1361C45.7678 88.198 45.7588 88.2638 45.7265 88.319C45.073 89.4192 44.5921 90.6131 44.3007 91.8591C44.2868 91.9037 44.2605 91.9434 44.2247 91.9735C44.189 92.0036 44.1454 92.0228 44.0991 92.0288C44.0528 92.0348 44.0057 92.0274 43.9634 92.0075C43.9212 91.9876 43.8856 91.9559 43.8608 91.9164C43.4598 91.3802 43.1743 90.7667 43.0224 90.1147V90.1124Z" fill="#CFF0FA"/>
<path id="Vector_28" d="M35.5318 88.3261C34.9812 87.4738 34.2492 86.7537 33.3881 86.2171C32.5435 85.5375 31.547 85.0723 30.4837 84.8613C29.7305 84.8041 28.9743 84.9214 28.2738 85.2041C27.5733 85.4868 26.9475 85.9272 26.445 86.4912C25.3759 87.5731 24.6005 88.9097 24.1921 90.3748C23.6204 92.5878 24.5755 94.1703 26.2747 95.6993C27.1222 96.4721 28.1919 96.958 29.3314 97.0878C30.471 97.2176 31.6225 96.9848 32.6221 96.4224C33.2967 95.9707 33.8864 95.4036 34.3643 94.7472C35.7728 92.9207 36.6661 90.3357 35.5318 88.3261ZM31.3055 91.1062L29.8992 91.3691C29.5979 91.4263 29.4669 90.9616 29.7712 90.9051L31.1774 90.6415C31.481 90.5842 31.6098 91.049 31.3055 91.1062Z" fill="#ACEAC7"/>
<path id="Vector_29" d="M39.861 97.9837C38.7283 97.2456 37.3946 96.8772 36.0437 96.9291C35.4157 96.9652 34.8011 97.1254 34.2355 97.4005C33.6699 97.6757 33.1644 98.0602 32.7484 98.532C32.0637 99.2362 31.2088 99.8516 30.8502 100.8C30.4612 102.032 30.4612 103.354 30.8502 104.586C31.5402 107.007 33.7433 109.435 36.4625 109.222C37.195 109.144 37.9062 108.929 38.5587 108.587C39.2069 108.277 39.8164 107.892 40.3747 107.44C41.0777 106.849 41.6337 106.103 41.9986 105.26C42.3635 104.417 42.5274 103.501 42.4773 102.584C42.4271 101.667 42.1644 100.774 41.7098 99.9761C41.2552 99.1781 40.6212 98.4967 39.858 97.9859L39.861 97.9837ZM36.4715 103.482C36.3209 103.655 36.1627 103.823 35.9962 103.983C35.7703 104.197 35.4306 103.856 35.655 103.642C35.7861 103.518 35.9104 103.388 36.0316 103.255C35.774 103.129 35.5106 103.015 35.2415 102.915C34.9515 102.81 35.0773 102.344 35.3695 102.45C35.7035 102.574 36.0304 102.716 36.3487 102.876C36.6001 102.559 36.8248 102.221 37.0206 101.867C37.1712 101.595 37.5863 101.839 37.4364 102.111C37.2444 102.459 37.0261 102.792 36.7833 103.108C37.0628 103.264 37.3339 103.435 37.5953 103.619C37.8454 103.798 37.6043 104.217 37.352 104.036C37.0694 103.835 36.7757 103.65 36.4723 103.482H36.4715Z" fill="#FEE992"/>
<path id="Vector_30" d="M28.7687 102.523C28.3947 101.51 27.7419 100.625 26.8857 99.9677C25.6042 98.73 23.9007 98.0247 22.1194 97.9943C20.3591 98.0869 18.2855 99.1776 17.9126 100.899C17.4081 102.569 17.5451 104.367 18.2968 105.941C18.69 106.922 19.352 107.772 20.2067 108.394C21.0614 109.016 22.0742 109.384 23.1287 109.456C24.2374 109.423 25.3146 109.079 26.2377 108.464C27.1608 107.849 27.8926 106.987 28.35 105.977C28.9133 104.917 29.0626 103.686 28.7687 102.523ZM23.3245 104.441L23.0533 102.969C22.9976 102.668 23.4623 102.537 23.5181 102.841L23.7892 104.313C23.845 104.617 23.3802 104.746 23.3245 104.441Z" fill="#ACEAC7"/>
<path id="Vector_31" d="M36.3819 71.1526C36.1262 70.7463 35.72 70.4578 35.2521 70.3504C35.0502 70.3313 34.8472 70.373 34.6692 70.4701C34.4912 70.5673 34.3463 70.7155 34.2533 70.8957C33.7095 71.8674 34.5644 72.9761 35.0208 73.8009L36.1506 75.8346C34.6879 74.5156 32.8754 73.6472 30.9309 73.3339C30.625 73.2552 30.3035 73.2601 30.0002 73.3482C29.6969 73.4364 29.4228 73.6044 29.2067 73.8348C29.0385 74.0603 28.9623 74.3413 28.9933 74.621C29.0243 74.9006 29.1604 75.158 29.374 75.3412C29.7654 75.7025 30.2122 75.9988 30.6974 76.2187C31.2339 76.4853 31.7851 76.7212 32.3484 76.9252C33.6161 77.396 34.9191 77.759 36.2199 78.1266C36.2814 78.1432 36.347 78.1348 36.4023 78.1032C36.4577 78.0716 36.4982 78.0194 36.5151 77.9579C36.5321 77.8965 36.524 77.8309 36.4927 77.7754C36.4613 77.7199 36.4093 77.6791 36.348 77.6619C35.3537 77.3809 34.3595 77.1022 33.3788 76.7768C32.3582 76.467 31.3735 76.0494 30.4413 75.531C30.0647 75.3051 29.38 74.9285 29.4568 74.4065C29.5577 73.7128 30.4872 73.7376 30.9904 73.8265C32.1127 74.0315 33.1909 74.4296 34.1772 75.003C35.3102 75.6569 36.3074 76.5219 37.1148 77.5511C37.288 77.7726 37.6209 77.4901 37.4914 77.2597L35.9533 74.4788L35.1767 73.0966C34.8826 72.6745 34.6733 72.1992 34.5606 71.6972C34.5245 71.3522 34.6879 70.8626 35.0924 70.8264C35.5285 70.788 35.8825 71.2784 36.1092 71.5872C36.649 72.3134 37.0719 73.1195 37.3626 73.9764C37.6908 74.9461 37.8476 75.9657 37.8258 76.9892C37.8258 77.0532 37.8512 77.1145 37.8964 77.1597C37.9416 77.2049 38.0029 77.2303 38.0668 77.2303C38.1308 77.2303 38.1921 77.2049 38.2373 77.1597C38.2825 77.1145 38.3079 77.0532 38.3079 76.9892C38.3515 74.8808 37.6718 72.821 36.3819 71.1526ZM38.4788 113.568C38.4788 113.63 38.4743 113.692 38.4728 113.754C38.46 114.41 38.4336 115.064 38.3975 115.719C38.224 119.084 37.7659 122.428 37.0281 125.716C36.9311 126.139 36.8292 126.562 36.7223 126.983C36.5513 127.679 36.3677 128.372 36.1717 129.061C36.1551 129.123 36.1636 129.188 36.1952 129.244C36.2268 129.299 36.279 129.34 36.3404 129.357C36.4018 129.373 36.4675 129.365 36.5229 129.334C36.5784 129.303 36.6192 129.251 36.6365 129.189C37.7681 125.234 38.4929 121.172 38.7997 117.069C38.8871 115.904 38.9398 114.737 38.9579 113.568C38.9572 113.547 38.9532 113.525 38.9458 113.504C38.9288 113.45 38.8932 113.404 38.8453 113.374C38.7974 113.343 38.7404 113.331 38.6842 113.339C38.6281 113.346 38.5765 113.374 38.5385 113.416C38.5005 113.458 38.4785 113.512 38.4766 113.568H38.4788ZM61.8745 124.79C61.8986 125.224 61.9129 125.658 61.9302 126.092C61.9664 127.01 61.9935 127.929 61.9988 128.848C62.0022 128.91 62.0291 128.968 62.0738 129.01C62.1186 129.052 62.1778 129.076 62.2394 129.076C62.301 129.076 62.3603 129.052 62.405 129.01C62.4498 128.968 62.4766 128.91 62.4801 128.848C62.4415 123.961 62.0049 119.086 61.1748 114.27C60.9473 112.935 60.6879 111.607 60.3967 110.284C60.3296 109.983 59.8649 110.11 59.9319 110.412C60.127 111.294 60.3025 112.181 60.469 113.068C61.1931 116.941 61.6626 120.856 61.8745 124.79ZM48.1441 129.274L46.8712 116.963C46.8395 116.657 46.3575 116.654 46.3899 116.963L47.662 129.274C47.6937 129.58 48.1765 129.583 48.1441 129.274ZM86.2802 76.6721C85.153 76.5275 84.014 76.4982 82.8809 76.5848C82.5736 76.6081 82.5714 77.0902 82.8809 77.0661C84.0141 76.9803 85.153 77.0095 86.2802 77.1534C86.5868 77.1926 86.5837 76.7106 86.2802 76.6721ZM89.7262 72.6454C89.4249 72.5965 89.2915 73.0612 89.5974 73.1102L92.0348 73.5004L92.6215 73.5945L93.3348 73.709C93.6361 73.7572 93.7694 73.2932 93.4629 73.2443L92.3458 73.062L91.7259 72.9626L89.7262 72.6454ZM97.2636 76.7241L98.4589 76.9388L98.9485 77.0262L101.741 77.527C102.042 77.5813 102.174 77.1165 101.869 77.0623L99.112 76.5682L98.6201 76.4801L97.3916 76.2594C97.0911 76.2052 96.9578 76.6699 97.2636 76.7241ZM134.44 94.1694C135.171 96.4688 135.608 98.8516 135.739 101.261C135.756 101.569 136.238 101.571 136.221 101.261C136.089 98.8084 135.647 96.3825 134.905 94.0413C134.811 93.7468 134.346 93.8726 134.44 94.1694ZM139.125 91.4405C138.935 89.0777 137.928 86.8548 136.279 85.1526C136.062 84.9266 135.721 85.2709 135.938 85.4931C137.502 87.1035 138.458 89.2066 138.643 91.4435C138.669 91.7508 139.15 91.7538 139.125 91.4405ZM140.985 106.252L140.93 104.809L140.759 100.365C140.747 100.055 140.265 100.053 140.277 100.365L140.442 104.678L140.503 106.252C140.515 106.561 140.997 106.562 140.985 106.252ZM7.21208 61.0414H4.00037C3.93644 61.0414 3.87514 61.0668 3.82993 61.112C3.78473 61.1572 3.75934 61.2185 3.75934 61.2824C3.75934 61.3464 3.78473 61.4077 3.82993 61.4529C3.87514 61.4981 3.93644 61.5235 4.00037 61.5235H7.21208C7.27601 61.5235 7.33731 61.4981 7.38251 61.4529C7.42772 61.4077 7.45311 61.3464 7.45311 61.2824C7.45311 61.2185 7.42772 61.1572 7.38251 61.112C7.33731 61.0668 7.27601 61.0414 7.21208 61.0414ZM13.8261 53.4113L11.6892 50.4655C11.5084 50.2169 11.0904 50.4572 11.2727 50.7088L13.4088 53.6546C13.5903 53.9032 14.0114 53.6637 13.8261 53.4113ZM24.3711 47.0956V51.111C24.3745 51.1725 24.4014 51.2303 24.4461 51.2727C24.4909 51.315 24.5502 51.3386 24.6118 51.3386C24.6733 51.3386 24.7326 51.315 24.7774 51.2727C24.8221 51.2303 24.849 51.1725 24.8524 51.111V47.0956C24.849 47.0341 24.8221 46.9763 24.7774 46.9339C24.7326 46.8916 24.6733 46.868 24.6118 46.868C24.5502 46.868 24.4909 46.8916 24.4461 46.9339C24.4014 46.9763 24.3745 47.0341 24.3711 47.0956ZM35.4487 58.2907L38.0849 56.6193C38.3463 56.4536 38.1045 56.0363 37.8416 56.2027L35.2054 57.8749C34.944 58.0406 35.1858 58.4579 35.4487 58.2907ZM12.8002 71.9322C13.0518 71.7551 12.8115 71.3371 12.5569 71.5156C11.5258 72.2367 10.6762 73.1874 10.0751 74.2927C9.92441 74.5654 10.3432 74.8094 10.4916 74.536C11.0489 73.5009 11.8392 72.6094 12.8002 71.9322ZM24.6385 75.2614V79.0124C24.6385 79.0763 24.6639 79.1376 24.7091 79.1828C24.7543 79.228 24.8156 79.2534 24.8795 79.2534C24.9434 79.2534 25.0048 79.228 25.05 79.1828C25.0952 79.1376 25.1205 79.0763 25.1205 79.0124V75.2614C25.1205 75.1974 25.0952 75.1361 25.05 75.0909C25.0048 75.0457 24.9434 75.0203 24.8795 75.0203C24.8156 75.0203 24.7543 75.0457 24.7091 75.0909C24.6639 75.1361 24.6385 75.1974 24.6385 75.2614ZM128.152 89.803C127.887 89.6403 127.645 90.0568 127.909 90.2187C128.816 90.78 129.597 91.5238 130.201 92.4031C130.294 92.5371 130.382 92.6727 130.466 92.8121C131.2 94.0126 131.594 95.3896 131.608 96.7966C131.608 96.8605 131.633 96.9218 131.679 96.967C131.724 97.0122 131.785 97.0376 131.849 97.0376C131.913 97.0376 131.974 97.0122 132.019 96.967C132.065 96.9218 132.09 96.8605 132.09 96.7966C132.076 95.3038 131.658 93.8428 130.88 92.5688C130.797 92.4317 130.71 92.2974 130.62 92.1658C129.972 91.2137 129.132 90.4086 128.152 89.803ZM123.617 65.8198C123.639 65.7758 123.647 65.7262 123.64 65.6774C123.147 62.3854 122.813 59.075 122.639 55.7463C122.622 55.4382 122.141 55.436 122.157 55.7463C122.334 59.1006 122.672 62.4399 123.17 65.7641L123.176 65.8032C123.213 66.0571 123.529 66.0111 123.617 65.8198Z" fill="black"/>
<path id="Vector_32" d="M33.0728 42.8519C33.0193 42.0283 32.7223 41.2392 32.2194 40.5848C31.1592 39.3487 29.7979 38.4072 28.2673 37.8513C27.167 37.4152 26.0435 37.0401 24.9019 36.7275C24.7189 36.6726 24.6465 36.3773 24.8446 36.2869C25.7653 35.8518 26.5353 35.1521 27.0564 34.2772C27.5775 33.4023 27.826 32.392 27.7701 31.3752C27.7551 30.4309 27.3876 29.5263 26.7397 28.8391C26.1134 28.1913 25.3479 27.6945 24.5012 27.3862C23.6893 27.0701 22.8144 26.9499 21.9474 27.0352C21.0804 27.1205 20.2458 27.409 19.5111 27.8773C18.8037 28.3332 18.2337 28.9729 17.8622 29.7281C17.4907 30.4832 17.3316 31.3252 17.4021 32.1638C17.4874 33.0576 17.8569 33.9006 18.4566 34.5688C19.0793 35.2193 19.7784 35.7921 20.5385 36.2749C20.5844 36.3017 20.6202 36.3429 20.6405 36.3921C20.6607 36.4413 20.6642 36.4957 20.6504 36.5471C20.6366 36.5985 20.6063 36.6439 20.5642 36.6764C20.5221 36.7088 20.4704 36.7265 20.4172 36.7268C19.7923 36.7517 19.1783 36.8983 18.6095 37.1584C17.3437 37.6344 16.1549 38.2942 15.0815 39.1167C13.9313 40.1582 13.087 41.4936 12.6395 42.9792C14.033 42.9451 15.4267 42.933 16.8206 42.9431C22.243 42.971 27.6564 43.1593 33.0728 42.8519Z" fill="#B26EE6"/>
<path id="Vector_33" d="M28.3516 43.5096C30.0137 43.4824 31.675 43.4197 33.3356 43.3213C33.3992 43.3201 33.4598 43.2943 33.5048 43.2494C33.5497 43.2044 33.5755 43.1438 33.5766 43.0802C33.5525 39.5032 29.6117 37.709 26.7118 36.7645C26.3412 36.644 25.9684 36.5385 25.5948 36.4271C26.3417 35.9701 26.9699 35.3429 27.428 34.5967C27.8862 33.8505 28.1614 33.0066 28.2311 32.1337C28.364 31.0966 28.1418 30.045 27.6006 29.1502C27.0469 28.3504 26.2988 27.7045 25.4268 27.2732C24.576 26.8157 23.6299 26.5637 22.6642 26.5375C21.6985 26.5114 20.7402 26.7118 19.8658 27.1226C19.0366 27.5195 18.327 28.1286 17.809 28.8881C17.291 29.6476 16.983 30.5306 16.9162 31.4476C16.8443 32.5286 17.1485 33.6013 17.7772 34.4838C18.3339 35.1928 19.0009 35.8078 19.7529 36.305C19.4044 36.3752 19.0621 36.4729 18.7292 36.5973C18.0258 36.8557 17.3425 37.1658 16.685 37.5253C16.0702 37.8492 15.4809 38.2196 14.9225 38.6332C14.3525 39.0735 13.8606 39.6064 13.4673 40.2097C12.8766 41.1296 12.4051 42.1207 12.064 43.1593C12.0487 43.1966 12.0453 43.2378 12.0542 43.2771C12.0631 43.3165 12.0839 43.3521 12.1137 43.3793C12.1346 43.4076 12.1624 43.4303 12.1944 43.445C12.2264 43.4598 12.2616 43.4662 12.2968 43.4636C17.6484 43.3145 22.9992 43.5969 28.3516 43.5096ZM12.6425 42.9748C13.09 41.4891 13.9343 40.1537 15.0844 39.1123C16.158 38.29 17.3468 37.6301 18.6125 37.1539C19.1813 36.8939 19.7953 36.7473 20.4202 36.7223C20.4734 36.7221 20.525 36.7044 20.5671 36.6719C20.6093 36.6394 20.6396 36.594 20.6533 36.5427C20.6671 36.4913 20.6636 36.4368 20.6434 36.3876C20.6232 36.3384 20.5874 36.2972 20.5415 36.2704C19.7815 35.7903 19.0823 35.2202 18.4588 34.5727C17.8592 33.9044 17.4896 33.0615 17.4043 32.1676C17.3338 31.329 17.4929 30.487 17.8644 29.7319C18.2359 28.9768 18.8059 28.337 19.5133 27.8811C20.248 27.4128 21.0827 27.1243 21.9497 27.039C22.8167 26.9537 23.6916 27.0739 24.5034 27.39C25.3493 27.6972 26.1142 28.1928 26.7404 28.8392C27.3875 29.5267 27.7542 30.4312 27.7686 31.3752C27.8245 32.392 27.576 33.4024 27.0549 34.2773C26.5338 35.1521 25.7637 35.8518 24.8431 36.287C24.645 36.3774 24.7173 36.6726 24.9003 36.7276C26.0419 37.04 27.1654 37.4152 28.2657 37.8514C29.7965 38.4074 31.158 39.3489 32.2186 40.5848C32.7209 41.2396 33.0179 42.0285 33.072 42.852C27.6548 43.1623 22.2415 42.971 16.8213 42.9386C15.4289 42.9306 14.0359 42.9426 12.6425 42.9748ZM71.1252 101.717C71.0748 101.729 71.0235 101.738 70.9746 101.749C69.0116 102.127 67.0155 102.306 65.0166 102.282C62.8558 102.395 60.6894 102.227 58.5721 101.781C57.2421 101.455 55.9713 100.923 54.806 100.203C54.5424 100.039 54.3006 100.456 54.5627 100.62C56.675 101.883 59.0682 102.602 61.527 102.711C61.8109 102.729 62.0979 102.735 62.3834 102.747C64.2167 102.816 66.0524 102.782 67.8819 102.644C69.0169 102.577 70.145 102.422 71.2563 102.182C71.2659 102.179 71.2752 102.174 71.2841 102.169C71.3381 102.144 71.3809 102.1 71.4042 102.045C71.4275 101.991 71.4297 101.929 71.4103 101.873C71.3909 101.817 71.3513 101.77 71.2992 101.741C71.2471 101.712 71.1862 101.704 71.1282 101.717H71.1252ZM64.1813 89.1673C63.0502 88.6798 61.9477 88.1283 60.8792 87.5155C60.0924 87.0629 59.3139 86.5958 58.5442 86.1145C58.2806 85.9495 58.0381 86.3661 58.301 86.5303C61.0964 88.4232 64.1751 89.8594 67.4217 90.7852C68.3282 91.005 69.2499 91.156 70.1792 91.2371C70.2409 91.2431 70.3012 91.2544 70.3622 91.2589C70.6635 91.2831 70.6673 90.8356 70.3878 90.7844C70.3795 90.7814 70.3709 90.7791 70.3622 90.7776C68.2282 90.5798 66.1406 90.0359 64.1813 89.1673ZM65.0038 100.312C65.0652 100.295 65.1172 100.254 65.1485 100.198C65.1798 100.143 65.1879 100.077 65.171 100.016C65.154 99.9544 65.1135 99.9022 65.0582 99.8705C65.0029 99.8389 64.9373 99.8305 64.8758 99.8471C64.5179 99.9405 64.1395 99.9164 63.7964 99.7783C63.4533 99.6403 63.1636 99.3956 62.9701 99.0803C62.9367 99.0277 62.8841 98.9901 62.8235 98.9755C62.7628 98.9608 62.6989 98.9702 62.6451 99.0017C62.5912 99.0332 62.5517 99.0843 62.5348 99.1444C62.5179 99.2044 62.5249 99.2687 62.5544 99.3236C62.8027 99.7292 63.1749 100.044 63.6159 100.222C64.057 100.4 64.5435 100.432 65.0038 100.312ZM90.4399 62.1961C90.4328 62.1916 90.4252 62.1878 90.4173 62.1848C90.4094 62.1755 90.4008 62.1667 90.3917 62.1584C89.9364 61.8912 89.4125 61.7637 88.8853 61.7916C88.6043 61.7879 88.3219 61.7976 88.0417 61.7675C87.8986 61.7525 87.2365 61.6673 87.2885 61.4308C87.3277 61.2681 87.7931 61.177 87.9189 61.1408C88.1634 61.0715 88.4122 61.0189 88.6639 60.9834C88.7203 60.9751 88.7776 60.9714 88.8348 60.9646C89.3587 60.9134 89.885 60.8915 90.4113 60.8991C90.4548 60.9006 90.4978 60.889 90.5347 60.866C90.5716 60.8429 90.6008 60.8093 90.6184 60.7695C90.6347 60.7329 90.643 60.6932 90.643 60.6531C90.643 60.6131 90.6347 60.5734 90.6184 60.5368C90.2733 59.7708 89.794 59.0726 89.2032 58.4752C88.7941 58.0431 88.3328 57.6636 87.83 57.3454C87.8188 57.3106 87.7982 57.2795 87.7704 57.2557C87.7426 57.2319 87.7088 57.2163 87.6726 57.2106C87.635 57.2023 87.5973 57.1985 87.5596 57.1917C87.4361 57.1239 87.3141 57.0546 87.183 56.9982C86.303 56.6668 85.3604 56.5348 84.4232 56.6118C83.3906 56.6562 82.3682 56.8363 81.3825 57.1473C80.2023 57.5273 79.066 58.0323 77.993 58.6537C77.7776 58.7752 77.5637 58.8995 77.3513 59.0266C76.8286 59.3414 76.3149 59.6678 75.8102 60.0058C75.0849 60.4923 74.3791 61.0143 73.6477 61.4866C73.0655 61.8632 72.469 62.2142 71.8724 62.5659C70.9603 63.1045 70.0285 63.6204 69.1209 64.1771C68.9755 64.2652 68.8302 64.3526 68.6871 64.4429C68.6321 64.4776 68.5793 64.5183 68.5251 64.5499C68.7203 64.6057 68.9111 64.6757 69.0961 64.7593C69.8726 64.2803 70.6695 63.8313 71.4544 63.3711C72.664 62.6616 73.8519 61.94 75.0043 61.1401C78.1678 58.9399 81.9693 56.5575 86.0073 57.1759C85.5586 57.2488 85.1234 57.3887 84.7162 57.5909C84.4391 57.7288 84.6824 58.1446 84.9595 58.0067C85.7249 57.6284 86.5919 57.5074 87.4316 57.6617C87.855 57.9141 88.2476 58.2149 88.6013 58.5581C89.1753 59.0967 89.6554 59.7272 90.0219 60.4238C89.4543 60.4206 88.8874 60.4647 88.3272 60.5556C87.8662 60.6385 86.9902 60.7695 86.8207 61.3028C86.6121 61.9634 87.5303 62.1969 87.9897 62.2481C88.7053 62.3234 89.4962 62.1517 90.1319 62.5689C90.263 62.6605 90.3618 62.7912 90.4143 62.9423C90.4668 63.0933 90.4702 63.2571 90.4241 63.4103C90.2637 63.7681 89.7244 63.7726 89.3922 63.7914C88.52 63.8396 87.65 63.7123 86.7786 63.6973C85.957 63.6559 85.1383 63.8236 84.3991 64.1846C83.7238 64.5369 83.0715 64.9316 82.4461 65.3664C79.8181 67.1741 77.5848 69.4759 75.0917 71.4539C74.0354 72.31 72.9005 73.0643 71.7022 73.7068C71.6036 73.9442 71.4925 74.1763 71.3693 74.402C74.1878 73.0823 76.5213 70.9184 78.8389 68.8854C80.0714 67.7674 81.3692 66.7236 82.7255 65.7596C83.3818 65.3001 84.0706 64.8888 84.7863 64.5288C85.6382 64.1919 86.5628 64.0816 87.47 64.2087C87.9905 64.2403 88.5117 64.284 89.0337 64.284C89.487 64.3132 89.9415 64.2481 90.3684 64.0927C90.5359 64.0007 90.6767 63.8668 90.7771 63.7042C90.8775 63.5415 90.9341 63.3557 90.9413 63.1647C90.9485 62.9737 90.9061 62.7841 90.8182 62.6143C90.7304 62.4446 90.6 62.3005 90.4399 62.1961ZM59.7027 71.0283C59.2341 71.1042 58.7537 71.0522 58.3123 70.8777C58.0215 70.7669 57.8965 71.2332 58.1835 71.3424C58.709 71.5397 59.2781 71.5918 59.8307 71.4931C60.1358 71.4403 60.0062 70.9763 59.7027 71.0283ZM45.3095 88.0781C44.7293 89.0611 44.2815 90.1165 43.9778 91.2168C43.754 90.8334 43.5884 90.4189 43.4867 89.9868C43.4159 89.6855 42.9512 89.8128 43.022 90.1148C43.1737 90.7671 43.4592 91.3809 43.8603 91.9173C43.8851 91.9568 43.9207 91.9885 43.963 92.0084C44.0052 92.0283 44.0523 92.0357 44.0986 92.0297C44.1449 92.0237 44.1885 92.0045 44.2242 91.9744C44.26 91.9443 44.2863 91.9046 44.3002 91.86C44.5917 90.614 45.0725 89.4201 45.726 88.3199C45.7583 88.2647 45.7673 88.1989 45.751 88.137C45.7348 88.0751 45.6946 88.0223 45.6394 87.99C45.5842 87.9577 45.5184 87.9487 45.4565 87.965C45.3946 87.9812 45.3417 88.0214 45.3095 88.0766V88.0781ZM36.7846 103.108C36.6852 103.237 36.5797 103.36 36.4728 103.484C36.7765 103.652 37.0704 103.837 37.3533 104.038C37.6056 104.218 37.8466 103.801 37.5965 103.621C37.3352 103.436 37.0641 103.265 36.7846 103.108ZM35.37 102.45C35.0778 102.344 34.952 102.81 35.242 102.915C35.5106 103.015 35.774 103.129 36.0321 103.255C36.1428 103.133 36.2483 103.005 36.35 102.879C36.0315 102.718 35.7044 102.575 35.37 102.45Z" fill="black"/>
<path id="Vector_34" d="M37.4363 102.111C37.587 101.839 37.1697 101.595 37.0205 101.867C36.8248 102.221 36.6001 102.559 36.3487 102.876C36.247 103.005 36.1415 103.133 36.0308 103.252C35.9201 103.372 35.786 103.515 35.6542 103.639C35.4282 103.854 35.7709 104.194 35.9954 103.98C36.1619 103.82 36.3193 103.652 36.4707 103.479C36.579 103.357 36.6831 103.232 36.7825 103.103C37.0253 102.789 37.2439 102.457 37.4363 102.111ZM23.0499 102.969L23.321 104.441C23.3768 104.746 23.8415 104.617 23.7858 104.313L23.5146 102.841C23.4619 102.537 22.9972 102.663 23.0499 102.969ZM31.1778 90.6414L29.7716 90.905C29.4703 90.9615 29.5961 91.4262 29.8996 91.369L31.3059 91.1061C31.6102 91.0489 31.4814 90.5841 31.1778 90.6414ZM123.092 83.1921L121.427 82.6339L120.963 82.478L118.436 81.6314C118.142 81.5327 118.015 81.9975 118.308 82.0961L120.729 82.9073L121.19 83.058L122.964 83.6523C123.259 83.7577 123.385 83.29 123.092 83.1921ZM122.244 79.7657C122.514 79.8244 122.78 79.8982 123.043 79.9796C123.233 80.0383 123.42 80.1029 123.606 80.1732C124.743 80.6042 125.784 81.2557 126.668 82.0901C126.894 82.3033 127.235 81.9628 127.01 81.7496C126.171 80.9578 125.199 80.3203 124.139 79.8666C123.947 79.7839 123.753 79.7085 123.555 79.6406C123.169 79.5021 122.773 79.3889 122.372 79.3017C122.069 79.2384 121.94 79.7024 122.244 79.7657Z" fill="black"/>
</g>
</svg>
