<svg width="151" height="151" viewBox="0 0 151 151" fill="none" xmlns="http://www.w3.org/2000/svg">
<g id="Searching-2--Streamline-Barcelona">
<path id="Vector" d="M112.037 77.8472C111.729 88.2257 111.867 90.2971 111.364 109.628C113.605 111.177 117.013 110.98 118.74 110.473C118.724 109.783 118.734 113.059 118.89 81.675C118.891 81.6347 118.9 81.5949 118.917 81.5583C118.934 81.5216 118.958 81.4887 118.988 81.4617C119.018 81.4347 119.053 81.4141 119.092 81.4012C119.13 81.3883 119.17 81.3833 119.21 81.3866C119.251 81.3899 119.29 81.4014 119.325 81.4203C119.361 81.4393 119.392 81.4653 119.418 81.4969C119.443 81.5284 119.461 81.5647 119.472 81.6037C119.482 81.6426 119.485 81.6833 119.479 81.7232C119.479 81.7985 119.335 109.584 119.329 110.55C121.752 112.102 125.669 111.894 128.509 111.365C128.509 111.346 128.66 96.3846 128.803 78.4874C122.067 79.9667 115.46 78.7171 112.037 77.8472Z" fill="#ACEAC7"/>
<path id="Vector_2" d="M114.373 48.2511C115.251 49.7952 112.3 52.4744 110.916 53.0837C110.627 53.2237 110.309 53.2953 109.987 53.2929C109.665 53.2906 109.349 53.2144 109.061 53.0702L109.664 77.2123C109.739 77.2251 120.867 81.4348 131.926 77.6137C131.922 77.6137 132.603 49.0653 114.373 48.2511Z" fill="#F55555"/>
<path id="Vector_3" d="M96.7178 57.7845L88.3737 52.4238C88.1307 53.0138 87.8484 53.5868 87.5286 54.1389C85.8753 57.4154 85.0181 56.5492 86.4794 57.1156L95.6792 60.6738C96.3106 59.8384 96.6729 58.8307 96.7178 57.7845Z" fill="#FFD35C"/>
<path id="Vector_4" d="M46.8226 19.1469C46.5107 7.40348 33.7746 1.20527 24.1704 12.8605C10.5093 29.4418 22.972 53.315 37.7772 39.1674C44.1163 33.1077 46.9845 25.2374 46.8226 19.1469ZM26.1506 16.1897C21.7872 22.6915 20.161 30.7268 24.2449 37.3551C24.5778 37.8952 23.7282 38.3878 23.3976 37.8507C19.1215 30.9121 20.7666 22.455 25.3032 15.6956C25.6534 15.1722 26.5038 15.667 26.1506 16.1897ZM30.5712 14.196C30.228 14.5379 29.7859 14.763 29.3075 14.8394C28.8292 14.9158 28.3389 14.8396 27.9063 14.6216C26.2214 13.6356 27.5561 11.2532 28.9676 10.7802C31.5376 9.91847 31.9963 12.8184 30.5712 14.196Z" fill="#B26EE6"/>
<path id="Vector_5" d="M61.9345 28.3912C56.5393 24.2417 56.5988 24.1174 56.3608 24.5182C56.1642 24.8451 56.4361 24.8948 59.1153 26.9586C64.4932 31.0952 64.4541 31.2301 64.6891 30.8316C64.8872 30.5055 64.5723 30.4196 61.9345 28.3912Z" fill="black"/>
<path id="Vector_6" d="M87.2977 43.7161L80.9707 39.6013C81.812 46.3614 78.775 53.7098 71.8567 56.398C81.6388 59.6369 80.3357 59.7619 81.2124 59.3725C87.1395 56.7897 89.7599 50.8754 88.1541 44.2712C88.0742 43.9413 87.5846 43.9022 87.2977 43.7161ZM60.2519 55.6938C59.9028 56.0095 59.4821 56.2355 59.0261 56.3524C58.5701 56.4694 58.0925 56.4736 57.6345 56.3649C56.5988 55.9755 56.9468 55.5416 56.586 56.2527L54.0808 61.184C64.3916 61.3828 63.2987 61.6547 63.0584 61.184C62.9989 61.0725 60.3137 55.8173 60.2519 55.6938ZM53.3276 19.2185C52.2445 6.81757 39.5709 -0.0329323 30.1143 7.45705C34.9529 5.03019 39.5784 6.2617 42.9257 9.49073C55.466 21.5738 35.6429 52.1514 22.3034 41.1401C31.0046 56.3084 55.295 41.7555 53.3276 19.2185ZM132.34 117.467C129.977 118.986 127.653 120.563 125.369 122.199C125.063 122.417 125.358 122.929 125.667 122.707C127.95 121.072 130.274 119.495 132.637 117.976C132.953 117.772 132.658 117.261 132.34 117.467ZM86.8367 126.974L83.8743 128.563C83.5399 128.743 83.8374 129.251 84.1711 129.072L87.1342 127.483C87.4687 127.304 87.1711 126.795 86.8367 126.974ZM100.382 126.691L97.0676 128.794C96.7483 128.997 97.0435 129.507 97.3689 129.303L100.679 127.2C100.999 126.992 100.705 126.485 100.382 126.691ZM101.291 130.43L99.4425 131.879C99.1789 132.087 99.5066 132.574 99.8591 132.297C101.631 130.906 102.034 130.729 101.707 130.43C101.651 130.377 101.576 130.347 101.499 130.347C101.421 130.347 101.347 130.377 101.291 130.43ZM127.18 125.819C125.346 127.212 124.76 127.363 124.989 127.754C125.209 128.131 125.365 127.881 127.474 126.327C127.536 126.286 127.579 126.222 127.596 126.149C127.613 126.077 127.601 126 127.564 125.936C127.527 125.871 127.466 125.823 127.395 125.802C127.324 125.78 127.247 125.786 127.18 125.819ZM59.8347 130.849C58.5304 131.296 57.297 131.928 56.1718 132.724C55.8652 132.942 56.1597 133.453 56.4731 133.233C57.5546 132.463 58.7406 131.851 59.9951 131.417C60.3468 131.294 60.1947 130.725 59.8347 130.849ZM39.6982 136.322C38.2369 136.828 37.5696 136.918 37.6939 137.305C37.715 137.38 37.7649 137.444 37.8327 137.482C37.9006 137.521 37.9809 137.531 38.0562 137.51C39.4564 136.987 40.2036 136.969 40.0605 136.527C40.0382 136.453 39.9881 136.39 39.9206 136.352C39.8531 136.314 39.7734 136.303 39.6982 136.322ZM39.3826 139.289C35.8289 140.638 35.7905 140.556 35.8846 140.901C35.9069 140.975 35.9572 141.038 36.0248 141.076C36.0925 141.115 36.1723 141.125 36.2477 141.106C39.7464 139.777 39.8398 139.839 39.7449 139.494C39.7236 139.419 39.6737 139.356 39.6059 139.317C39.5381 139.279 39.4579 139.269 39.3826 139.289Z" fill="#6DD3A8"/>
<path id="Vector_7" d="M111.319 58.8496C107.901 52.2212 106.987 54.5216 108.411 57.3589C108.437 57.4048 108.451 57.4571 108.449 57.5101C108.447 57.5631 108.431 57.6146 108.402 57.6588C108.373 57.703 108.332 57.7382 108.284 57.7604C108.236 57.7826 108.182 57.791 108.13 57.7845C108.232 57.8214 108.228 57.6173 106.692 58.6733C105.984 59.1354 105.472 59.842 105.252 60.658C105.021 61.8737 105.91 63.2144 106.626 63.8969L111.899 60.0238C111.712 59.6271 111.519 59.2357 111.319 58.8496ZM114.021 48.6133C113.303 47.6573 112.455 46.8053 111.503 46.0818C111.539 47.2362 111.271 48.3798 110.727 49.3983C110.182 50.4168 109.379 51.2744 108.399 51.8853C108.757 52.2685 109.214 52.5457 109.719 52.6867C111.188 53.0204 114.573 49.6588 114.021 48.6133Z" fill="#FFCEB6"/>
<path id="Vector_8" d="M110.957 45.6685C110.937 45.3416 111.329 45.3597 111.508 45.3167C112.98 44.962 113.133 42.4387 111.527 42.108C110.554 41.9574 110.257 42.8319 109.952 42.3024C109.882 42.1818 109.778 42.1818 109.702 42.0643C102.347 38.8474 99.2237 42.8718 98.4426 44.1779C98.3425 45.319 98.5149 46.4675 98.9457 47.5289C99.3013 47.5794 99.6639 47.5387 99.9995 47.4106C100.335 47.2825 100.633 47.0713 100.864 46.7968C100.92 46.7466 100.994 46.7198 101.069 46.722C101.145 46.7242 101.216 46.7551 101.27 46.8085C101.323 46.8619 101.354 46.9337 101.356 47.0091C101.358 47.0845 101.331 47.1579 101.281 47.2141C100.732 47.7729 99.987 48.0956 99.2041 48.1134C99.4015 48.5108 99.6326 48.8905 99.8948 49.2485C99.9351 49.1568 99.9982 49.0768 100.078 49.0162C100.158 48.9555 100.252 48.9162 100.351 48.9019C100.45 48.8875 100.551 48.8987 100.645 48.9343C100.739 48.9698 100.822 49.0287 100.886 49.1052C100.951 49.1818 100.995 49.2736 101.015 49.3719C101.034 49.4702 101.028 49.5718 100.997 49.6672C100.967 49.7626 100.912 49.8487 100.839 49.9172C100.766 49.9857 100.677 50.0345 100.579 50.059C104.73 54.3335 111.337 51.6852 110.957 45.6685ZM105.328 51.9721C103.764 51.9721 103.764 50.1283 105.328 50.1283C106.893 50.1283 106.894 51.9721 105.328 51.9721ZM95.5502 46.0752C95.0101 45.8875 94.4194 45.9074 93.8931 46.131C91.9521 46.7659 89.8416 50.1742 89.7595 50.8762C89.6989 51.294 89.7733 51.7202 89.9719 52.0927C92.1427 55.1809 95.5495 53.7784 92.9222 51.2483C92.6895 51.0223 93.0043 50.581 93.2793 50.7858C94.9168 52.003 96.4066 51.4336 95.0117 49.25C94.9853 49.1992 94.9739 49.1419 94.9789 49.0848C94.9839 49.0277 95.0051 48.9733 95.04 48.9278C95.0748 48.8824 95.1219 48.8478 95.1758 48.8281C95.2296 48.8085 95.2879 48.8046 95.3438 48.8169C96.8917 49.2041 97.0205 49.5551 97.3383 49.2598C98.1488 48.5074 97.4988 46.8503 95.5502 46.0752Z" fill="#FFCEB6"/>
<path id="Vector_9" d="M128.806 78.4852C128.504 112.926 128.51 111.314 128.512 111.363C125.641 111.898 121.792 112.097 119.332 110.548C119.444 88.976 119.517 82.8877 119.482 81.721C119.488 81.681 119.485 81.6403 119.475 81.6014C119.464 81.5625 119.446 81.5261 119.42 81.4946C119.395 81.4631 119.364 81.437 119.328 81.4181C119.293 81.3991 119.254 81.3876 119.213 81.3843C119.173 81.381 119.133 81.386 119.094 81.3989C119.056 81.4118 119.021 81.4324 118.991 81.4595C118.961 81.4865 118.937 81.5193 118.92 81.556C118.903 81.5927 118.894 81.6324 118.893 81.6728C118.719 113.572 118.734 110.223 118.743 110.47C116.261 111.065 113.65 110.766 111.367 109.626C112.327 74.5195 112.548 78.0709 111.638 77.8208C110.673 113.279 110.377 109.878 111.651 110.427C110.38 111.121 106.547 113.305 105.051 115.216C103.243 117.522 117.786 115.517 118.588 113.311C119.026 112.106 118.896 111.444 118.688 111.086C119.19 110.974 119.742 111.699 122.002 112.111C121.042 112.625 116.776 114.979 115.178 117.021C113.371 119.328 127.914 117.322 128.716 115.116C128.957 114.602 129.025 114.024 128.91 113.468C128.795 112.912 128.503 112.409 128.078 112.033C128.723 111.928 129.108 111.938 129.111 111.606C129.402 74.4577 129.767 78.2773 128.806 78.4852ZM107.86 52.1678C108.741 53.0927 109.754 53.5989 110.917 53.0837C112.306 52.4728 115.256 49.8012 114.374 48.2511C113.704 47.3126 112.91 46.4693 112.013 45.7444C112.372 45.5625 112.677 45.2901 112.897 44.9543C113.118 44.6184 113.248 44.2307 113.273 43.8295C113.298 43.4283 113.217 43.0276 113.04 42.6669C112.862 42.3063 112.594 41.9983 112.26 41.7734C112.895 40.6149 113.684 38.8072 113.116 37.7527C112.233 36.113 110.657 35.4178 109.459 36.4918C109.459 36.4918 109.693 32.133 105.317 31.6991C104.652 31.6383 103.989 31.8229 103.452 32.218C102.914 32.6131 102.541 33.1914 102.401 33.8435C102.401 33.8435 99.7533 31.3218 97.105 33.024C94.4567 34.7263 96.5378 38.1308 96.5378 38.1308C96.5378 38.1308 94.9613 37.5004 93.7629 39.8331C92.9397 41.4367 95.8983 43.6647 97.8303 44.9023C97.9109 50.3254 103.37 54.2542 107.86 52.1678ZM113.805 49.5097C113.23 50.6809 110.93 53.2042 109.404 52.5851C109.027 52.4195 108.686 52.1818 108.4 51.8853C109.38 51.2743 110.183 50.4167 110.727 49.3982C111.272 48.3798 111.54 47.2362 111.503 46.0818C114.096 48.3316 114.163 48.7791 113.805 49.5097H113.805ZM100.58 50.0588C100.677 50.0343 100.767 49.9855 100.84 49.917C100.913 49.8484 100.968 49.7624 100.998 49.667C101.029 49.5716 101.035 49.47 101.015 49.3717C100.996 49.2733 100.952 49.1816 100.887 49.105C100.823 49.0285 100.739 48.9696 100.646 48.9341C100.552 48.8985 100.451 48.8873 100.352 48.9017C100.253 48.916 100.159 48.9553 100.079 49.016C99.999 49.0766 99.936 49.1566 99.8956 49.2483C99.6333 48.8904 99.4022 48.5107 99.2049 48.1132C99.988 48.0959 100.733 47.7732 101.282 47.2139C101.332 47.1577 101.359 47.0843 101.357 47.0089C101.355 46.9335 101.324 46.8617 101.271 46.8083C101.217 46.7549 101.146 46.724 101.07 46.7218C100.995 46.7196 100.921 46.7464 100.865 46.7966C100.616 47.0483 100.316 47.2438 99.9849 47.37C99.6541 47.4963 99.3 47.5504 98.9466 47.5287C98.5161 46.4672 98.3437 45.3188 98.4434 44.1777C99.2245 42.8716 102.348 38.8472 109.703 42.0641C109.779 42.1816 109.854 42.3006 109.922 42.4219C110.255 43.0011 110.798 41.5934 111.97 42.2826C113.19 42.9989 112.758 45.321 111.198 45.3564C111.121 45.3611 111.049 45.3936 110.995 45.4479C110.94 45.5021 110.908 45.5744 110.903 45.651C111.25 51.6526 104.758 54.3438 100.58 50.0588H100.58Z" fill="black"/>
<path id="Vector_10" d="M105.328 50.1267C103.764 50.1267 103.764 51.9705 105.328 51.9705C106.893 51.9705 106.893 50.1267 105.328 50.1267ZM106.414 45.9297C105.586 45.8386 104.541 47.11 105.397 47.9838C105.452 48.039 105.527 48.07 105.605 48.07C105.683 48.07 105.758 48.039 105.813 47.9838C105.869 47.9285 105.9 47.8536 105.9 47.7755C105.9 47.6974 105.869 47.6225 105.813 47.5672C105.448 47.1846 105.838 46.6039 106.377 46.5127L106.398 46.5173L106.389 46.5127C106.4 46.5127 106.398 46.5173 106.398 46.5173L106.422 46.5376C106.554 46.7809 106.747 46.7794 106.858 46.7078C107.157 46.518 106.942 45.9877 106.414 45.9297ZM104.335 45.05C104.493 44.6477 104.796 44.3192 105.184 44.1296C105.572 43.94 106.018 43.9032 106.432 44.0264C106.469 44.0367 106.508 44.0396 106.546 44.0349C106.585 44.0302 106.622 44.0179 106.656 43.9989C106.689 43.9798 106.719 43.9543 106.743 43.9238C106.766 43.8933 106.784 43.8584 106.794 43.8211C106.805 43.7838 106.808 43.7449 106.803 43.7065C106.798 43.6681 106.786 43.6309 106.767 43.5973C106.748 43.5636 106.722 43.534 106.692 43.5102C106.661 43.4864 106.626 43.4688 106.589 43.4584C104.427 42.9854 103.325 45.0779 103.972 45.2564C104.048 45.2755 104.128 45.2648 104.196 45.2263C104.263 45.1878 104.313 45.1246 104.335 45.05ZM106.374 64.4679C109.28 69.2327 113.339 73.4462 118.877 73.9584C128.288 74.8299 131.994 65.2964 127.867 57.0111C127.698 56.6714 127.189 56.9696 127.358 57.3086C130.892 64.4212 128.563 73.685 119.63 73.4176C114.035 73.2512 109.939 69.1107 106.998 64.3534L112.225 60.512C113.32 61.8347 114.488 63.0952 115.723 64.2879C123.217 71.1083 124.455 60.7282 118.094 53.239C117.847 52.9497 117.433 53.3678 117.676 53.6555C119.897 56.2684 121.813 59.6405 121.559 63.1822C121.348 66.1634 120.137 66.3562 118.428 65.5081C116.21 64.4107 114.172 61.8226 112.517 59.9524C108.585 51.4094 106.1 53.5839 107.747 57.3161C105.645 58.342 104.025 60.1241 104.953 62.3898C105.253 63.1867 105.74 63.8996 106.374 64.4679ZM105.279 60.7493C105.412 60.2396 105.649 59.7632 105.976 59.3501C106.302 58.9371 106.711 58.5966 107.177 58.3503C108.306 57.6204 108.206 57.8125 108.129 57.7846C108.182 57.7908 108.235 57.7823 108.283 57.76C108.331 57.7377 108.372 57.7025 108.401 57.6584C108.43 57.6142 108.446 57.5629 108.448 57.51C108.45 57.4572 108.437 57.4049 108.41 57.359C106.852 54.1149 108.275 52.3487 111.898 60.0224C108.541 62.4892 106.855 63.7267 106.625 63.8955C105.912 63.2168 105.092 61.7639 105.279 60.7493ZM79.4538 40.0336L79.4447 40.0419C79.4447 40.0419 79.444 40.0464 79.4538 40.0336Z" fill="black"/>
<path id="Vector_11" d="M96.4049 56.8837C99.9812 50.7073 100.389 50.7827 99.945 50.4512C99.1421 49.8442 98.529 49.3734 98.0514 49.0088C98.7293 47.2561 96.0705 45.2631 94.3554 45.4348C91.9504 45.6743 89.2945 49.7191 89.1725 50.8391C89.163 51.494 89.3837 52.1314 89.7962 52.6401L88.5496 51.8394C89.5536 48.2496 88.8833 44.0519 88.4999 43.7966C88.4246 43.7469 80.6988 38.6408 80.5053 38.7161C80.1042 38.871 79.7231 39.0733 79.3702 39.3187L80.6506 34.7007L85.7906 37.5087C86.1235 37.691 86.4203 37.1826 86.0873 37.0003L75.809 31.3843C75.476 31.2028 75.1785 31.7112 75.5122 31.8935C80.7425 34.7504 80.1324 34.3618 80.0895 34.5185L78.6885 39.565L53.6561 18.9939C52.2566 4.87563 37.0507 -1.52595 27.6114 9.01757C18.5321 15.8108 14.7389 31.0589 20.8566 39.4776C24.3281 48.2217 33.8526 49.9888 41.7274 44.8247C42.8573 45.2209 57.3258 50.3232 57.6896 50.4505C57.0702 50.6979 56.5504 51.1438 56.2117 51.7183C55.8729 52.2929 55.7344 52.9636 55.8179 53.6253C55.9549 56.6864 57.5774 52.9971 53.7292 60.5677C53.0279 61.9483 52.921 61.7495 55.6461 61.8052C50.7593 75.1793 32.7853 125.093 29.9547 139.119L29.4372 138.984C29.4372 138.984 28.034 140.792 28.5333 141.491C29.0327 142.19 31.7428 139.586 31.7428 139.586L30.5233 139.267C31.9545 132.079 37.3686 115.838 39.7013 108.898C43.2369 109.084 48.9598 109.215 54.2866 109.124C53.9898 114.805 53.4942 124.871 53.6448 130.602L53.0942 130.577C52.4864 133.449 53.8474 134.742 54.9072 130.663L54.2293 130.63C54.0787 124.981 54.5773 114.763 54.8748 109.114C60.2068 109.005 68.8605 108.615 73.8928 106.913C77.3418 120.512 79.9938 131.805 82.725 144.138L82.0893 144.646C82.0893 144.646 82.6979 146.851 83.5603 146.868C84.4227 146.886 83.9505 143.156 83.9505 143.156L83.2342 143.73C72.2214 93.9209 61.9935 61.931 62.2948 61.9408C64.6606 61.9875 64.3729 62.6654 60.6 55.305C60.8957 54.6942 61.0354 54.0196 61.0066 53.3417C60.9779 52.6637 60.7815 52.0034 60.4351 51.4199L68.8575 54.3883C70.2208 54.8704 69.7689 54.4034 70.7022 56.5621C70.7775 56.6374 70.7948 56.7022 70.9198 56.7127C82.1917 60.4472 80.4804 60.2453 82.2324 59.3942C86.7517 57.1963 83.3833 56.5523 88.6219 58.5777C96.3288 61.5567 95.837 61.4715 96.0464 61.1846C96.721 60.2833 97.1545 59.2248 97.3058 58.1092C97.3555 57.3198 97.2854 57.4494 96.4049 56.8837ZM95.9093 56.5658L93.2248 54.841L93.6052 54.1495C93.8828 54.0363 94.1131 53.8311 94.2576 53.5685C94.4021 53.3058 94.452 53.0015 94.3991 52.7064L94.8073 51.9637C95.8234 51.9712 96.4923 51.2564 95.9658 49.8547L96.1014 49.6076C96.3582 49.7206 96.6388 49.7689 96.9186 49.7483C97.1984 49.7277 97.469 49.6388 97.7065 49.4894L99.411 50.7759C99.3319 50.91 95.9816 56.4468 95.9093 56.5666V56.5658ZM95.1493 51.3415L95.5492 50.6154C95.5723 50.7637 95.5456 50.9154 95.4732 51.0467C95.4008 51.1781 95.2869 51.2818 95.1493 51.3415ZM96.3883 49.0894C96.4637 48.9569 96.539 48.8198 96.6188 48.6706L97.201 49.1105C97.018 49.2242 96.8275 49.2032 96.3883 49.0894ZM93.8937 46.1308C95.6366 45.5614 97.8541 47.4994 97.5611 48.6337C96.5141 47.8421 96.4117 47.8248 96.2693 48.0831L95.8016 48.9335C95.6652 48.8981 95.5169 48.8582 95.3496 48.8168C95.2937 48.8044 95.2354 48.8083 95.1816 48.828C95.1278 48.8476 95.0807 48.8822 95.0458 48.9276C95.0109 48.9731 94.9897 49.0276 94.9847 49.0846C94.9797 49.1417 94.9911 49.199 95.0175 49.2499C95.1308 49.4286 95.2315 49.6151 95.3188 49.808L94.4609 51.3687C94.0305 51.2585 93.6278 51.0599 93.2783 50.7857C93.0026 50.5808 92.6968 51.0154 92.9213 51.2481C93.3221 51.6166 93.6185 52.0843 93.7807 52.6039L93.1781 53.6931C92.8811 53.7765 92.5692 53.7928 92.2652 53.7406C91.9611 53.6885 91.6724 53.5694 91.4201 53.3918C90.8409 53.0001 89.6403 51.8552 89.7548 50.8715C89.8579 50.0694 92.0423 46.7371 93.8937 46.1308ZM79.4447 40.0418C79.6996 39.7715 80.0115 39.5613 80.3576 39.4264C80.4096 39.8588 80.4586 40.1661 80.5 41.0443C79.1766 40.0312 79.3672 40.1111 79.4447 40.0418ZM40.7716 8.28544C57.9321 18.887 33.201 55.3728 21.3906 39.2246C11.7494 25.7216 27.5203 0.0934646 40.7716 8.28544ZM41.6529 44.1762C33.8842 49.4427 25.7924 47.2538 22.3027 41.1392C34.9108 53.1365 56.0084 21.4667 43.0426 9.29023C41.3714 7.63465 39.2109 6.56211 36.8818 6.23184C34.5527 5.90158 32.1792 6.33119 30.1136 7.45691C38.1316 1.10729 48.6472 4.99163 52.1572 14.8181C55.1482 23.1893 52.1294 37.0696 41.6521 44.1732L41.6529 44.1762ZM57.2844 51.3242C58.4729 50.3895 60.4064 51.0674 60.423 53.449C60.4294 54.1297 60.2415 54.7981 59.8815 55.3758C56.9688 57.4546 55.1791 52.9768 57.2844 51.3212V51.3242ZM54.3197 108.537C50.6433 108.603 46.5149 108.571 42.1342 108.413C42.2095 108.398 54.1962 106.07 54.4575 106.021C54.4108 106.858 54.3649 107.695 54.3197 108.534V108.537ZM54.4907 105.416L39.9197 108.241C45.1636 92.6547 54.206 67.3127 56.2645 61.8173L57.5028 61.8421C56.605 73.0266 55.2627 91.7704 54.4907 105.413V105.416ZM54.9095 108.524C55.0661 105.605 55.0209 105.915 55.1354 105.888L72.5588 106.711C67.7044 108.057 59.9274 108.419 54.9087 108.521L54.9095 108.524ZM73.7105 106.179C61.0896 105.576 55.5256 105.298 55.0865 105.325C56.3775 82.4705 58.0481 62.9094 58.0993 61.8572L61.5965 61.928C65.9129 76.5996 69.9516 91.3515 73.7105 106.176V106.179ZM63.0434 61.3646L54.0802 61.1838C54.5412 60.28 56.6803 56.0672 56.7345 55.9595C56.8678 55.7027 56.7292 56.0258 57.6384 56.3647C59.1832 56.944 60.1549 55.714 60.2392 55.8736C60.5277 56.434 63.002 61.2795 63.0434 61.3646ZM42.5281 44.2786C50.4067 38.5881 54.334 29.1292 53.7292 19.8044L80.5181 41.8194C80.5595 47.5943 78.2886 52.5979 73.0364 55.2364C72.9626 55.2108 42.2366 44.4888 42.5281 44.2786ZM70.6841 55.0308C71.1255 55.1814 71.829 55.433 72.2749 55.5934C71.8973 55.7622 71.5114 55.9118 71.1187 56.0416L70.6841 55.0308ZM85.1383 56.6013C82.8093 58.9656 80.6032 59.2375 80.8224 59.3603L80.7892 59.3505C80.7139 59.3791 81.5711 59.6179 71.8568 56.3986C78.9288 53.6494 81.8874 46.9164 80.9707 39.6019L88.1564 44.2719C89.1966 50.0294 87.7361 53.9883 85.1383 56.6013ZM95.6788 60.6739L85.7424 56.8325C86.9411 55.5812 87.8407 54.0744 88.3734 52.4254L96.7175 57.7861C96.6721 58.8317 96.3099 59.8389 95.6788 60.6739Z" fill="black"/>
</g>
</svg>
