<svg width="151" height="151" viewBox="0 0 151 151" fill="none" xmlns="http://www.w3.org/2000/svg">
<g id="Something-Wrong-3--Streamline-Barcelona">
<path id="Vector" d="M137.231 120.201C137.516 119.983 137.747 119.703 137.909 119.382C138.07 119.061 138.157 118.708 138.163 118.349C138.141 117.549 137.145 117.212 136.417 117.144C136.587 117.023 136.725 116.863 136.82 116.677C136.915 116.49 136.963 116.284 136.961 116.075C136.958 115.866 136.905 115.661 136.806 115.477C136.707 115.293 136.565 115.136 136.392 115.019C135.805 114.733 131.036 114.762 131.355 114.762C117.4 96.8208 124.701 81.779 124.701 81.779C118.638 83.9566 114.484 89.6328 114.484 89.6328L112.832 80.5942C95.4017 97.281 109.436 121.329 111.259 124.269C111.862 125.239 112.339 127.868 114.827 130.55C115.756 131.565 116.849 130.585 116.986 129.137C117.431 129.793 118.048 130.314 118.77 130.643C119.725 130.912 120.025 129.528 120.011 128.514C120.523 129.041 121.539 129.761 122.137 129.328C122.366 129.062 122.535 128.75 122.633 128.412C122.731 128.075 122.754 127.721 122.703 127.373C122.608 126.594 122.398 125.832 122.08 125.114C121.986 124.877 121.575 124.8 121.518 125.114C121.388 125.886 122.753 127.211 121.901 128.726C121.755 128.986 121.489 128.835 121.273 128.73C120.579 128.397 120.045 127.802 119.788 127.077C119.665 126.726 119.11 126.873 119.225 127.227C119.524 128.087 119.517 129.024 119.205 129.879C119.039 130.208 118.912 130.099 118.626 129.927C117.741 129.369 117.099 128.496 116.831 127.484C116.808 127.412 116.759 127.351 116.692 127.314C116.626 127.278 116.548 127.269 116.475 127.289C116.402 127.309 116.339 127.357 116.301 127.422C116.262 127.487 116.251 127.565 116.269 127.639C116.502 128.366 116.477 129.151 116.2 129.862C116.094 130.069 115.898 130.375 115.638 130.389C115.336 130.406 115.055 129.946 114.884 129.742C113.62 128.211 112.662 126.451 112.062 124.558C116.313 124.383 121.167 122.148 124.999 119.917C122.194 119.665 119.455 118.922 116.908 117.721C116.569 117.563 116.863 117.062 117.201 117.221C119.923 118.508 122.871 119.248 125.878 119.399C127.927 118.164 129.903 116.814 131.799 115.356C132.59 115.356 133.688 115.378 134.975 115.431C135.653 115.465 136.373 115.329 136.359 116.038C136.351 116.629 135.736 116.97 135.288 117.231C135.231 117.269 135.189 117.326 135.17 117.391C135.15 117.456 135.154 117.527 135.181 117.589C135.208 117.652 135.256 117.703 135.317 117.734C135.378 117.765 135.448 117.774 135.514 117.759C136.146 117.629 136.804 117.727 137.371 118.035C137.449 118.083 137.511 118.155 137.546 118.24C137.581 118.325 137.588 118.419 137.567 118.508C137.515 118.854 137.374 119.181 137.159 119.458C136.943 119.734 136.66 119.949 136.337 120.084C136.264 120.106 136.203 120.156 136.167 120.222C136.13 120.289 136.121 120.367 136.141 120.44C136.161 120.513 136.209 120.575 136.274 120.614C136.34 120.652 136.418 120.664 136.491 120.646C137.12 120.495 137.711 121.278 137.196 122.14C136.237 123.751 131.632 124.207 129.304 121.199C129.265 121.132 129.201 121.084 129.127 121.064C129.052 121.044 128.972 121.055 128.905 121.094C128.838 121.132 128.79 121.196 128.77 121.271C128.75 121.346 128.76 121.425 128.799 121.492C131.625 125.155 137.165 124.329 137.893 121.989C138.008 121.661 138.004 121.303 137.883 120.976C137.762 120.65 137.532 120.376 137.231 120.201ZM110.207 94.7841C109.747 94.8726 109.271 94.817 108.844 94.6248C108.416 94.4326 108.059 94.1133 107.82 93.7103C107.581 93.3073 107.473 92.8404 107.509 92.3734C107.546 91.9063 107.725 91.462 108.024 91.1009C108.322 90.7399 108.725 90.4798 109.177 90.3563C109.629 90.2327 110.108 90.2516 110.548 90.4105C110.989 90.5694 111.37 90.8604 111.639 91.2439C111.908 91.6274 112.052 92.0846 112.052 92.5531C112.045 93.0798 111.859 93.5885 111.523 93.9944C111.188 94.4004 110.723 94.6791 110.207 94.7841ZM119.155 96.1158C118.695 96.2043 118.219 96.1487 117.792 95.9565C117.365 95.7643 117.007 95.4449 116.768 95.042C116.529 94.639 116.421 94.1721 116.457 93.7051C116.494 93.238 116.673 92.7936 116.972 92.4326C117.27 92.0716 117.673 91.8115 118.125 91.6879C118.577 91.5644 119.056 91.5833 119.497 91.7422C119.937 91.9011 120.318 92.1921 120.587 92.5756C120.856 92.9591 121 93.4163 121 93.8847C120.999 94.4123 120.815 94.9232 120.479 95.3301C120.143 95.737 119.677 96.0147 119.159 96.1158H119.155Z" fill="#FFD35C"/>
<path id="Vector_2" d="M87.1247 32.3358C86.123 31.8342 85.0519 32.0956 84.0012 31.908C84.169 31.2526 84.2667 30.5812 84.2926 29.9052C84.1691 27.3164 81.5705 25.6473 79.1708 24.6929C77.5737 24.0582 75.8403 23.845 74.137 24.0738C73.0554 24.1727 72.0113 24.5204 71.0864 25.0897C70.1614 25.659 69.3806 26.4345 68.805 27.3556C66.4015 30.8467 66.1379 35.7509 69.4317 38.4233C70.1194 39.0441 70.9752 39.4479 71.8917 39.584C71.7004 39.5675 71.2319 41.5017 71.195 41.6569C70.8447 43.2002 70.737 44.6569 72.0423 45.5864C72.6387 45.947 73.3107 46.1641 74.0053 46.2206C74.6999 46.277 75.3981 46.1713 76.0449 45.9118C79.9338 44.6577 79.8035 39.0575 79.8035 39.0575C79.8035 39.0575 82.5075 36.4883 83.1666 34.9691C83.1666 34.9691 84.551 36.2239 86.0009 35.6289C87.4509 35.0339 88.18 32.8646 87.1247 32.3358Z" fill="#A76C6C"/>
<path id="Vector_3" d="M35.4837 69.2078C35.2332 68.2521 34.7587 67.3698 34.0993 66.6341C33.1954 65.2339 35.1184 63.8472 34.0865 60.8072C33.1947 58.189 31.463 57.8697 30.3083 56.5274C28.1926 54.0697 31.3485 49.7266 27.6043 46.478C25.9088 45.1569 23.9024 44.2932 21.7774 43.9698C21.6653 43.9422 21.547 43.9554 21.4438 44.007C21.3405 44.0587 21.2589 44.1453 21.2136 44.2515C21.1684 44.3577 21.1623 44.4766 21.1966 44.5868C21.2309 44.6971 21.3033 44.7915 21.4008 44.8533C22.6142 45.602 23.9422 46.4984 24.5734 47.8255C25.3183 49.39 24.2254 50.6523 23.6695 51.7716C21.5944 55.9226 26.5317 58.3924 25.9585 61.3774C25.8708 61.9788 25.5526 62.5226 25.0712 62.8936C24.7413 63.109 23.8254 63.3659 23.7847 62.7264C23.7456 62.157 24.2555 61.4783 24.3429 60.4909C24.486 58.9091 23.4518 57.3206 22.1924 56.2804C21.3601 55.5919 20.6491 55.3253 20.3847 54.7333C19.8447 53.5454 21.199 52.0601 20.4171 50.046C19.4334 47.528 16.282 45.9688 11.0961 42.7519C10.6404 42.4671 10.074 43.1631 10.5101 43.5134C11.6753 44.4504 12.9859 45.4943 13.5681 46.9254C14.7966 49.9285 11.0335 52.8435 13.3971 55.9369C14.8109 57.7808 18.0513 58.6831 18.1002 60.9255C18.1186 61.2917 18.0262 61.655 17.8351 61.9679C17.5754 61.1314 17.0653 60.3947 16.3737 59.8572C15.682 59.3198 14.8421 59.0075 13.9673 58.9626C12.8759 58.8729 11.7438 59.1087 10.6728 58.8564C10.3183 58.7704 9.98689 58.6079 9.70188 58.3802C9.41687 58.1526 9.18513 57.8653 9.02292 57.5386C8.86071 57.2119 8.77196 56.8536 8.7629 56.489C8.75385 56.1243 8.8247 55.7621 8.97049 55.4277C9.06012 55.2688 9.14975 55.1106 9.24315 54.9517C9.27525 54.8967 9.29619 54.8358 9.30478 54.7727C9.31337 54.7096 9.30944 54.6453 9.29321 54.5837C9.27699 54.5221 9.24878 54.4643 9.21021 54.4136C9.17164 54.3628 9.12345 54.3202 9.06841 54.2881C9.01336 54.256 8.95253 54.2351 8.88939 54.2265C8.82625 54.2179 8.76204 54.2218 8.70042 54.2381C8.6388 54.2543 8.58098 54.2825 8.53026 54.3211C8.47955 54.3596 8.43692 54.4078 8.40482 54.4629C8.26021 54.6557 8.14098 54.8663 8.05006 55.0895C6.91842 56.9305 6.24981 59.0182 6.10149 61.174C6.05292 62.1809 6.22393 63.1864 6.60267 64.1206C6.98141 65.0549 7.55882 65.8955 8.29485 66.5844C9.89468 67.9462 12.1197 67.8859 11.7762 70.6811C11.4478 73.4304 7.42489 77.558 14.9525 81.4227C14.9187 81.501 14.9047 81.5864 14.9119 81.6713C16.8508 81.3848 18.7688 80.9714 20.6536 80.4338C19.7083 78.0852 17.7816 77.9218 16.3287 76.923C15.8321 76.6422 15.4436 76.2037 15.2246 75.6771C15.0056 75.1504 14.9687 74.5656 15.1197 74.0156C15.4286 72.7457 16.3656 71.6949 16.3739 70.3429C16.379 69.7492 16.2437 69.1627 15.979 68.6313C15.7144 68.0998 15.3278 67.6385 14.8508 67.2849C14.8033 67.2552 14.7653 67.2124 14.7414 67.1617C14.7175 67.111 14.7087 67.0545 14.716 66.999C14.7233 66.9434 14.7464 66.8911 14.7826 66.8483C14.8188 66.8055 14.8666 66.774 14.9201 66.7576C15.6579 66.557 16.4412 66.6042 17.1496 66.8918C17.8579 67.1795 18.4523 67.6917 18.8414 68.3499C19.8153 69.9844 18.6907 71.6008 19.5087 72.6011C20.1994 73.4462 22.0832 72.9023 22.1028 71.1104C22.1269 68.5819 18.9393 67.1764 20.0872 64.4611C20.3917 63.959 20.5978 63.4035 20.6943 62.8243C20.6536 62.6616 20.6122 62.4982 20.576 62.3355C20.5007 62.0259 20.9527 61.8082 21.1033 62.1095C21.3225 62.5486 21.5492 65.2625 23.265 66.7147C23.9964 67.3391 24.9116 67.7737 25.374 68.6286C26.0949 69.9641 25.139 71.5518 25.5405 72.5453C25.8953 73.4243 26.9867 73.2375 27.593 72.7607C27.9615 72.4359 28.234 72.0164 28.3811 71.5477C28.5282 71.079 28.5443 70.579 28.4276 70.1019C28.2016 69.1227 27.4424 68.3552 27.2917 67.3489C26.8541 64.4046 31.8314 64.2833 27.9802 60.2476C27.9365 60.2019 27.9089 60.1433 27.9014 60.0806C27.894 60.0179 27.9071 59.9545 27.9387 59.8999C27.9704 59.8453 28.019 59.8024 28.0771 59.7778C28.1353 59.7531 28.1998 59.748 28.2611 59.7633C30.7286 60.1994 32.2795 63.109 31.5429 65.4124C31.2491 66.3223 30.4552 66.8872 30.871 67.5583C31.4201 68.1699 31.8348 68.8899 32.0882 69.6718C32.6426 71.4999 32.2803 73.4793 31.7869 75.3157C33.0691 74.4759 34.2862 73.5408 35.428 72.5182C35.7026 71.4339 35.7216 70.3007 35.4837 69.2078Z" fill="#FFD35C"/>
<path id="Vector_4" d="M133.151 92.5244C132.06 91.6686 130.724 91.1849 129.338 91.1443C127.953 91.1036 126.59 91.5081 125.451 92.2985C121.928 94.873 120.874 100.976 119.811 104.881C118.079 111.25 116.594 117.686 114.815 124.041C119.323 125.741 124.162 126.384 128.957 125.918C131.326 118.083 133.287 110.13 134.832 102.092C135.424 98.7709 136.172 94.8903 133.151 92.5244Z" fill="#F55555"/>
<path id="Vector_5" d="M141.735 86.2937C139.352 86.5122 134.014 87.0469 133.729 87.0718C135.341 85.7439 139.088 82.6617 139.349 82.4456C139.402 82.3908 139.432 82.3171 139.432 82.2403C139.432 82.1635 139.402 82.0898 139.349 82.0351C139.108 81.8477 138.821 81.7306 138.518 81.6968C138.216 81.663 137.91 81.7139 137.634 81.8437C136.467 82.5013 133.04 85.7266 132.129 86.6071C131.681 86.468 131.201 86.4698 130.754 86.6123C130.307 86.7547 129.914 87.0308 129.629 87.4035C129.344 87.7761 129.18 88.2272 129.16 88.6959C129.139 89.1646 129.263 89.6283 129.515 90.0244C129.691 90.3381 129.939 90.6049 130.24 90.8021C130.541 90.9994 130.885 91.1213 131.243 91.1577C131.6 91.194 131.962 91.1437 132.296 91.0109C132.63 90.8782 132.928 90.6669 133.163 90.395C133.375 90.1243 133.527 89.8123 133.61 89.4792C133.694 89.146 133.706 88.7991 133.647 88.4607C134.551 88.4412 140.68 88.3184 141.364 87.7392C141.712 87.4436 141.945 87.036 142.024 86.5867C142.024 86.5485 142.017 86.5106 142.003 86.4751C141.988 86.4397 141.967 86.4074 141.94 86.3802C141.913 86.353 141.881 86.3314 141.846 86.3165C141.811 86.3017 141.773 86.2939 141.735 86.2937ZM132.659 90.0809C132.492 90.2555 132.29 90.3915 132.065 90.4795C131.841 90.5674 131.6 90.6052 131.359 90.5901C131.119 90.5751 130.884 90.5075 130.673 90.3922C130.461 90.2769 130.277 90.1167 130.134 89.9227C129.934 89.6724 129.807 89.3724 129.765 89.0551C129.723 88.7378 129.768 88.415 129.896 88.1215C130.024 87.828 130.229 87.5748 130.49 87.389C130.75 87.2033 131.057 87.0921 131.376 87.0673C131.712 87.0962 132.033 87.216 132.306 87.4139C132.579 87.6117 132.793 87.8801 132.924 88.1903C133.056 88.5004 133.101 88.8406 133.054 89.1744C133.008 89.5081 132.871 89.8228 132.659 90.0847V90.0809ZM132.862 87.0357C132.804 86.9843 132.743 86.9365 132.679 86.8925C133.206 86.3932 136.822 82.9314 137.917 82.3461C138.035 82.2836 138.15 82.2143 138.587 82.3198C136.7 83.8782 135.296 85.0381 132.862 87.0357ZM133.841 87.8702C133.841 87.7949 133.849 87.715 133.853 87.6375C136.141 87.4115 141.093 86.9332 141.281 86.9174C140.947 87.4567 141.309 87.6036 133.84 87.8702H133.841Z" fill="#F55555"/>
<path id="Vector_6" d="M127.222 106.369C126.976 106.168 126.663 106.069 126.346 106.092C127.437 104.577 125.956 103.35 124.505 103.938C125.797 101.717 124.739 100.392 123.552 101.108C122.778 101.623 122.065 102.226 121.427 102.904C121.476 102.767 121.496 102.621 121.486 102.476C121.476 102.331 121.436 102.19 121.368 102.061C121.3 101.933 121.206 101.819 121.092 101.729C120.979 101.639 120.847 101.573 120.707 101.536C119.445 101.381 118.842 104.486 116.211 105.29C115.189 105.573 114.106 105.536 113.106 105.182C112.107 104.829 111.24 104.177 110.624 103.315C110.398 103.022 109.895 103.315 110.123 103.608C112.193 106.335 115.613 106.739 117.835 105.123C119.257 104.091 120.432 101.396 120.832 102.309C121.023 102.749 120.606 103.273 120.606 103.93C120.606 104.162 120.936 104.342 121.103 104.134C121.775 103.291 122.554 102.54 123.42 101.898C123.619 101.751 124.01 101.371 124.279 101.511C124.467 101.609 124.505 101.902 124.512 102.09C124.523 103.048 123.641 104.22 123.213 104.809C123.005 105.095 123.432 105.355 123.664 105.16C124.024 104.818 124.453 104.558 124.923 104.398C126.008 104.131 126.968 105.199 124.964 106.61C124.662 106.821 124.935 107.31 125.257 107.11C125.676 106.85 126.531 106.329 126.935 106.906C127.312 107.444 126.36 108.21 126.022 108.531C121.964 112.385 115.522 112.994 110.252 109.622C109.934 109.419 109.645 109.924 109.958 110.123C115.714 113.814 122.779 112.856 126.898 108.475C127.429 107.92 127.983 106.983 127.222 106.369ZM131.493 93.3425C130.397 93.6844 130.143 94.5551 130.495 95.0982C131.008 95.5715 131.653 95.8767 132.344 95.9727C131.643 96.3146 130.448 97.1726 130.292 97.8557C130.271 98.0551 130.297 98.2567 130.368 98.4443C130.439 98.6318 130.553 98.8 130.701 98.9354C130.849 99.0707 131.027 99.1694 131.22 99.2235C131.413 99.2776 131.616 99.2857 131.813 99.2469C131.617 99.4763 131.441 99.7214 131.285 99.9798C130.416 101.437 132.126 102.501 133.394 101.572C133.011 103.54 134.198 104.156 135.385 103.522C136.427 102.965 137.581 101.25 137.71 99.1415C137.951 95.111 134.408 92.4461 131.493 93.3425ZM134.029 102.916C133.653 102.32 134.105 100.994 134.433 100.363C134.472 100.297 134.483 100.218 134.463 100.143C134.444 100.069 134.396 100.005 134.329 99.9662C134.263 99.9274 134.184 99.9165 134.109 99.936C134.035 99.9555 133.971 100.004 133.932 100.07C133.513 100.704 132.67 101.849 131.807 101.149C131.395 100.815 131.731 100.343 131.961 100.005C132.284 99.5381 132.678 99.1257 133.13 98.7829C133.407 98.5668 133.055 98.1962 132.78 98.331C132.352 98.6178 131.828 98.7259 131.322 98.6323C131.139 98.569 130.987 98.4376 130.898 98.2655C130.862 98.1619 130.858 98.0497 130.886 97.9436C130.915 97.8376 130.975 97.7426 131.058 97.6712C131.696 96.9416 132.536 96.4174 133.472 96.1648C133.81 96.0714 133.698 95.6375 133.397 95.5946C132.618 95.4913 131.86 95.2645 131.153 94.9227C131.091 94.8819 131.04 94.8265 131.004 94.7615C130.968 94.6964 130.949 94.6235 130.948 94.5493C130.947 94.475 130.963 94.4016 130.997 94.3354C131.031 94.2692 131.08 94.2123 131.141 94.1695C131.402 93.9709 131.711 93.8456 132.036 93.8064C133.014 93.6956 134 93.9082 134.846 94.4115C135.691 94.9148 136.347 95.6812 136.715 96.5933C138.381 100.488 134.896 104.275 134.029 102.916ZM113.364 96.8329C112.611 97.6983 114.262 100.289 115.042 99.1739C115.649 98.3129 114.241 95.8243 113.364 96.8329ZM124.79 88.2409C125.12 88.0609 124.827 87.563 124.497 87.74C123.26 88.4137 122.151 89.3014 121.223 90.362C120.979 90.6429 121.387 91.0542 121.635 90.7732C122.527 89.7478 123.596 88.8902 124.79 88.2409ZM125.515 89.8897C125.494 89.8156 125.445 89.7527 125.378 89.7146C125.311 89.6766 125.232 89.6664 125.157 89.6863C124.06 90.0873 123.021 90.6338 122.069 91.311C122.004 91.3516 121.957 91.4155 121.937 91.4897C121.918 91.5639 121.927 91.6428 121.964 91.7102C122.004 91.7762 122.067 91.8241 122.142 91.8438C122.216 91.8634 122.296 91.8534 122.363 91.8157C124.712 90.1466 125.666 90.4298 125.515 89.8897ZM124.431 91.8564C123.74 92.0451 123.059 92.2694 122.391 92.5282C122.317 92.5497 122.255 92.5992 122.218 92.6661C122.18 92.733 122.171 92.8118 122.191 92.8856C122.212 92.9595 122.26 93.0223 122.327 93.0606C122.393 93.0988 122.472 93.1094 122.546 93.0901C123.213 92.8297 123.894 92.6054 124.586 92.4183C124.658 92.396 124.719 92.3464 124.756 92.2799C124.792 92.2135 124.801 92.1355 124.781 92.0624C124.761 91.9893 124.713 91.9269 124.648 91.8884C124.583 91.85 124.505 91.8385 124.431 91.8564ZM103.754 87.1472C103.681 87.1309 103.604 87.1435 103.539 87.1825C103.475 87.2214 103.428 87.2837 103.409 87.3564C103.389 87.429 103.399 87.5063 103.435 87.5722C103.471 87.6381 103.532 87.6874 103.603 87.7099C104.247 87.8198 104.862 88.059 105.41 88.4131C105.959 88.7672 106.43 89.2287 106.795 89.7699C107.004 90.0795 107.504 89.7903 107.296 89.4769C106.893 88.8706 106.371 88.3518 105.762 87.9516C105.154 87.5513 104.471 87.2778 103.754 87.1472ZM103.492 89.1162C103.125 89.0408 102.971 89.6005 103.337 89.6781C104.526 89.9142 105.641 90.4306 106.591 91.1845C106.645 91.239 106.719 91.2697 106.796 91.2697C106.873 91.2697 106.947 91.239 107.002 91.1845C107.056 91.1299 107.087 91.056 107.087 90.9789C107.087 90.9017 107.056 90.8278 107.002 90.7732C105.98 89.9499 104.777 89.3819 103.492 89.1162ZM106.572 92.0273C105.197 91.9688 103.842 92.3844 102.736 93.2046C102.673 93.2453 102.628 93.3089 102.61 93.3821C102.593 93.4553 102.604 93.5324 102.642 93.5975C102.68 93.6625 102.741 93.7105 102.814 93.7313C102.886 93.7521 102.963 93.7442 103.03 93.7093C104.048 92.9464 105.299 92.5592 106.57 92.6133C106.947 92.6261 106.947 92.0432 106.572 92.0273Z" fill="black"/>
<path id="Vector_7" d="M76.411 29.3386C76.411 29.3386 74.1717 28.2841 73.6746 28.614C73.1775 28.9439 72.6201 31.0853 73.6422 31.2201C74.6643 31.3549 76.411 29.3386 76.411 29.3386Z" fill="#FF8684"/>
<path id="Vector_8" d="M82.1011 29.8514C81.7757 28.1778 80.5947 27.3312 79.6155 27.3312C79.5409 27.335 79.4705 27.3673 79.419 27.4215C79.3675 27.4756 79.3388 27.5475 79.3388 27.6223C79.3388 27.697 79.3675 27.7689 79.419 27.8231C79.4705 27.8773 79.5409 27.9096 79.6155 27.9134C80.3446 27.9172 81.2605 28.5642 81.546 30.0066C81.5526 30.0468 81.5675 30.0853 81.59 30.1194C81.6124 30.1534 81.6417 30.1824 81.6761 30.2044C81.7105 30.2263 81.7491 30.2408 81.7895 30.2468C81.8298 30.2528 81.871 30.2502 81.9103 30.2393C81.9496 30.2283 81.9861 30.2091 82.0175 30.1831C82.0489 30.157 82.0744 30.1246 82.0924 30.088C82.1104 30.0514 82.1205 30.0114 82.122 29.9706C82.1235 29.9299 82.1164 29.8892 82.1011 29.8514ZM73.0625 25.5227C72.1587 25.2327 70.7908 25.6424 69.9276 27.1798C69.8888 27.2462 69.8779 27.3253 69.8974 27.3998C69.9169 27.4742 69.9652 27.5379 70.0316 27.5767C70.098 27.6156 70.1771 27.6264 70.2516 27.6069C70.326 27.5875 70.3897 27.5392 70.4285 27.4728C70.5843 27.1395 70.8094 26.8432 71.0888 26.6038C71.3682 26.3645 71.6955 26.1874 72.0487 26.0846C72.3294 26.0146 72.6229 26.0131 72.9044 26.0801C73.2682 26.1991 73.4188 25.6364 73.0625 25.5227Z" fill="#7D4AB4"/>
<path id="Vector_9" d="M71.7447 29.7008C71.7698 29.5654 71.7549 29.4257 71.702 29.2986C71.649 29.1715 71.5603 29.0626 71.4466 28.985C71.3328 28.9074 71.199 28.8645 71.0614 28.8616C70.9237 28.8587 70.7882 28.8958 70.6713 28.9685C70.5544 29.0412 70.4611 29.1463 70.4028 29.271C70.3445 29.3957 70.3237 29.5347 70.343 29.671C70.3622 29.8073 70.4207 29.9351 70.5112 30.0388C70.6017 30.1425 70.7205 30.2177 70.8529 30.2552C71.0447 30.2995 71.2462 30.266 71.4133 30.1621C71.5804 30.0582 71.6996 29.8924 71.7447 29.7008ZM79.1963 30.9918C79.0495 30.9349 78.889 30.9237 78.7357 30.9597C78.5824 30.9957 78.4437 31.0773 78.3376 31.1936C78.2315 31.3099 78.1631 31.4556 78.1413 31.6115C78.1196 31.7675 78.1455 31.9263 78.2157 32.0672C78.2858 32.2082 78.397 32.3246 78.5346 32.4012C78.6721 32.4777 78.8296 32.5109 78.9864 32.4964C79.1431 32.4818 79.2918 32.4202 79.4129 32.3195C79.534 32.2189 79.6218 32.084 79.6648 31.9326C79.7269 31.7457 79.7125 31.5418 79.6247 31.3655C79.5369 31.1892 79.3829 31.0549 79.1963 30.9918ZM71.1542 33.4677C70.822 33.6273 71.0992 34.1456 71.4758 33.9565C71.8881 33.7844 72.3195 33.6625 72.7608 33.5934C73.3709 33.9844 74.613 35.1202 73.7581 37.5147C73.5863 37.4924 73.4172 37.4528 73.2534 37.3964C72.8987 37.2706 72.748 37.8325 73.0983 37.9583C73.9578 38.1904 74.863 38.1948 75.7247 37.9711C81.9892 36.7268 75.9243 31.1726 71.1542 33.4677Z" fill="black"/>
<path id="Vector_10" d="M15.4487 42.4551C14.8589 42.2555 14.602 43.1918 15.1926 43.3876C17.9493 44.311 22.202 46.6264 21.3735 49.4261C21.3418 49.549 21.3597 49.6795 21.4233 49.7893C21.487 49.8991 21.5913 49.9795 21.7137 50.0131C21.8361 50.0467 21.9668 50.0309 22.0776 49.969C22.1884 49.9071 22.2704 49.8041 22.3059 49.6822C23.3273 46.2634 18.8396 43.5955 15.4487 42.4551ZM32.4985 54.2595C31.8786 53.4114 32.9414 51.9637 32.2499 49.3041C31.9481 48.1258 31.3897 47.0287 30.6147 46.0912C29.8398 45.1537 28.8673 44.399 27.7668 43.8809C27.6556 43.8161 27.5232 43.7981 27.3988 43.8309C27.2743 43.8637 27.168 43.9445 27.1032 44.0557C27.0384 44.1669 27.0203 44.2992 27.0531 44.4237C27.0859 44.5481 27.1667 44.6545 27.2779 44.7193C28.7207 45.3763 29.9089 46.4873 30.6611 47.8828C31.4133 49.2783 31.6883 50.8816 31.444 52.448C31.1969 54.1051 31.2933 54.7077 32.6943 55.6326C33.6592 56.2638 34.7543 57.2144 34.6278 58.4866C34.6288 58.6149 34.6802 58.7377 34.771 58.8285C34.8617 58.9192 34.9845 58.9707 35.1129 58.9716C35.2404 58.9684 35.3618 58.9162 35.452 58.8259C35.5422 58.7356 35.5941 58.6141 35.5972 58.4866C35.8292 56.0544 32.8095 54.6836 32.4985 54.2595ZM12.3138 55.0858C12.0505 54.9704 11.8218 54.7884 11.6501 54.5578C11.4785 54.3273 11.3697 54.056 11.3346 53.7707C10.9459 51.9245 13.3766 48.9147 11.4287 46.8238C11.0009 46.3718 10.317 47.0497 10.7441 47.5077C11.8649 48.7128 10.7719 50.8678 10.4835 52.0609C9.96675 54.2053 10.8563 55.6251 12.0554 56.0183C12.6542 56.2141 12.9088 55.2801 12.3138 55.0858ZM4.84111 64.0159C5.20191 61.5122 3.38063 62.2971 3.84386 63.0224C3.96797 63.3505 3.97647 63.711 3.86796 64.0445C3.80618 64.6781 3.92343 65.3162 4.20639 65.8864C4.48935 66.4566 4.92665 66.9359 5.46854 67.2698C6.70608 68.1737 8.69532 68.5187 8.84822 69.5378C8.93786 70.1328 8.09501 70.8792 8.41211 71.7854C8.44829 71.9077 8.53049 72.0113 8.64145 72.0744C8.75241 72.1375 8.88349 72.1551 9.00715 72.1235C9.13027 72.0885 9.23468 72.0065 9.29782 71.8952C9.36096 71.7838 9.37776 71.6521 9.34459 71.5285C9.17135 71.0351 9.87185 70.3919 9.81761 69.5581C9.673 66.9045 4.34249 67.4129 4.84111 64.0159Z" fill="#FF9F48"/>
<path id="Vector_11" d="M56.0756 126.322H51.1322C51.0576 126.326 50.9873 126.358 50.9358 126.412C50.8843 126.466 50.8556 126.538 50.8556 126.613C50.8556 126.688 50.8843 126.76 50.9358 126.814C50.9873 126.868 51.0576 126.9 51.1322 126.904H56.0756C56.1502 126.9 56.2206 126.868 56.2721 126.814C56.3236 126.76 56.3523 126.688 56.3523 126.613C56.3523 126.538 56.3236 126.466 56.2721 126.412C56.2206 126.358 56.1502 126.326 56.0756 126.322ZM66.2719 124.31C64.0447 124.896 61.7341 125.1 59.4387 124.913C59.0681 124.88 59.0681 125.462 59.4387 125.495C61.7864 125.69 64.1501 125.479 66.4263 124.872C66.5008 124.851 66.5641 124.802 66.6023 124.735C66.6406 124.668 66.6505 124.588 66.63 124.514C66.6096 124.439 66.5603 124.376 66.4932 124.338C66.426 124.299 66.3464 124.289 66.2719 124.31ZM67.5463 127.902C65.832 127.989 64.1177 128.065 62.4079 128.146C62.0373 128.163 62.0313 128.745 62.4079 128.728L67.5463 128.484C67.9169 128.464 67.9214 127.882 67.5463 127.902ZM27.604 128.993C25.7589 128.85 23.9066 128.823 22.0581 128.912C21.6875 128.928 21.6815 129.51 22.0581 129.494C23.9066 129.405 25.7589 129.432 27.604 129.576C27.9746 129.6 27.9746 129.021 27.604 128.993ZM38.0775 130.08C35.3735 130.231 32.6709 130.376 29.9699 130.516C29.5993 130.536 29.5933 131.118 29.9699 131.099C32.6739 130.952 35.3765 130.807 38.0775 130.663C38.4481 130.642 38.4518 130.06 38.0775 130.08ZM77.4308 128.891H74.2673C74.19 128.891 74.1158 128.922 74.0612 128.976C74.0065 129.031 73.9758 129.105 73.9758 129.183C73.9758 129.26 74.0065 129.334 74.0612 129.389C74.1158 129.443 74.19 129.474 74.2673 129.474H77.4308C77.5081 129.474 77.5822 129.443 77.6369 129.389C77.6916 129.334 77.7223 129.26 77.7223 129.183C77.7223 129.105 77.6916 129.031 77.6369 128.976C77.5822 128.922 77.5081 128.891 77.4308 128.891ZM87.5239 133.81C77.4662 133.234 76.5337 132.317 76.3537 132.931C76.3344 133.006 76.3448 133.085 76.3828 133.151C76.4207 133.218 76.4833 133.268 76.5571 133.289C80.1981 133.806 83.8537 134.174 87.5239 134.393C87.8945 134.413 87.8945 133.831 87.5239 133.81ZM97.223 132.133C95.8416 132.29 94.449 132.324 93.0615 132.235C92.6849 132.21 92.6909 132.788 93.0615 132.817C94.4488 132.913 95.8421 132.879 97.223 132.715C97.2977 132.711 97.368 132.679 97.4195 132.625C97.471 132.571 97.4997 132.499 97.4997 132.424C97.4997 132.349 97.471 132.277 97.4195 132.223C97.368 132.169 97.2977 132.137 97.223 132.133ZM104.341 127.397C102.231 127.584 100.108 127.591 97.9966 127.418C97.62 127.385 97.626 127.967 97.9966 127.999C100.108 128.174 102.231 128.167 104.341 127.98C104.712 127.946 104.712 127.364 104.341 127.397ZM109.871 129.881H107.892C107.815 129.881 107.741 129.911 107.687 129.965C107.633 130.02 107.602 130.093 107.602 130.17C107.602 130.247 107.633 130.32 107.687 130.375C107.741 130.429 107.815 130.459 107.892 130.459H109.871C109.948 130.459 110.021 130.429 110.076 130.375C110.13 130.32 110.16 130.247 110.16 130.17C110.16 130.093 110.13 130.02 110.076 129.965C110.021 129.911 109.948 129.881 109.871 129.881Z" fill="black"/>
<path id="Vector_12" d="M49.1731 98.0177C48.8093 97.8828 49.0036 97.5348 49.1445 96.9503L36.44 120.927C38.961 120.186 48.4568 122.112 48.4568 122.112L61.8046 100.77C57.5132 100.274 53.2818 99.352 49.1731 98.0177ZM85.8992 75.5598C84.7008 76.113 83.4156 76.4547 82.1007 76.5698C82.3651 77.7915 86.3888 96.5029 86.5108 97.0724C86.5266 97.1346 86.5221 97.2002 86.498 97.2597C86.4739 97.3192 86.4314 97.3694 86.3767 97.403C82.9395 99.1111 79.2441 100.241 75.4393 100.746L81.3897 126.273C85.4634 125.274 89.6611 124.875 93.8501 125.088L85.8992 75.5598ZM69.4828 26.484C74.0255 21.2273 84.0704 25.2246 84.2926 29.9051C84.2557 30.5546 84.1726 31.2008 84.044 31.8386C84.9034 31.3053 87.5035 29.5036 87.5035 27.3471C87.5035 24.7659 86.7172 20.1969 82.0631 21.2597C82.0631 21.2597 81.88 15.1722 76.069 16.418C75.5532 16.5533 75.0989 16.86 74.7806 17.2878C74.4623 17.7156 74.2991 18.2389 74.3177 18.7718C74.3177 18.7718 72.1515 16.6952 71.5045 19.281C71.5045 19.281 67.9086 17.0657 65.2332 19.3254C62.8312 21.3493 66.5845 25.0468 69.4828 26.484Z" fill="#7D4AB4"/>
<path id="Vector_13" d="M85.3699 56.4076C85.2039 56.8631 85.0091 57.3076 84.7869 57.7385C83.7668 60.0364 82.4382 62.1845 80.8378 64.1236C80.8796 67.0564 81.0847 69.9847 81.4525 72.8948C82.6061 72.6935 83.6962 72.2233 84.6343 71.5223C85.5725 70.8212 86.3323 69.9091 86.8523 68.8598C86.8649 68.8297 86.8837 68.8025 86.9075 68.7801C86.9312 68.7577 86.9593 68.7404 86.9901 68.7295C86.6956 66.6446 85.7609 59.8724 85.3699 56.4076ZM53.5428 66.9436C55.9164 66.0618 58.083 64.7006 59.9075 62.9448C61.9562 54.0568 65.3397 46.2362 67.8162 42.3323C67.8944 42.2111 67.9936 42.105 68.1092 42.0189C67.4212 42.2536 66.7887 42.627 66.2508 43.1159C65.7128 43.6049 65.281 44.199 64.9819 44.8616C63.9182 46.8432 62.7407 48.7616 61.4553 50.6071C53.1022 59.8807 44.8047 64.0362 43.7864 64.525C44.9019 64.51 45.7726 64.8308 46.8279 66.402C46.9425 66.5654 47.0474 66.7354 47.142 66.9112C47.7807 66.5527 50.1834 65.2338 50.7416 64.9325C51.2411 64.6014 51.7911 64.3536 52.37 64.1989C53.6121 63.9978 54.5837 65.5562 53.5428 66.9436Z" fill="#B26EE6"/>
<path id="Vector_14" d="M82.3323 61.0725C84.1834 58.3872 85.3569 55.2938 85.7527 52.0565C86.1293 49.7682 86.6648 46.9466 84.9302 45.0448C84.4065 44.4603 83.7226 44.0425 82.9635 43.8434C82.9349 43.9187 82.5334 44.8113 82.3896 45.1058C77.9908 54.3575 68.0257 63.5739 53.7139 67.8401C53.7034 67.9645 53.6858 68.0883 53.6612 68.2107C53.5332 69.4981 53.7027 70.7978 54.1566 72.0093C54.6106 73.2209 55.3368 74.3119 56.2793 75.1983C58.0382 75.0974 59.7865 74.8589 61.5082 74.485C69.9841 72.7051 77.7912 68.3237 82.3323 61.0725Z" fill="#B26EE6"/>
<path id="Vector_15" d="M53.0461 69.3381C53.0137 68.307 53.1214 68.5254 52.9971 68.4832C51.8673 68.1066 50.0159 67.4702 48.8477 67.73C48.2556 67.8611 48.0191 68.2008 48.4402 68.6625C49.344 69.6198 51.6089 70.2443 51.7634 70.3399C52.0195 70.5026 51.8688 70.9628 51.5374 70.8611C50.7036 70.6017 49.8952 70.2663 49.1226 69.8594C48.1686 70.4069 47.209 70.9445 46.2438 71.472C48.6059 75.464 53.6253 74.0495 54.3838 73.807C53.5516 72.4614 53.0901 70.9196 53.0461 69.3381ZM46.7078 67.4129C46.6167 67.1186 46.4671 66.8457 46.2679 66.6107C46.0599 66.2209 45.7653 65.8839 45.4068 65.6256C45.0482 65.3673 44.6352 65.1947 44.1996 65.1209C41.2477 64.8505 37.6745 68.9209 40.9434 70.6645C41.3577 70.8988 42.0333 71.1835 42.1576 70.7218C42.3188 70.1448 41.8164 69.4647 41.5061 69.003C41.2937 68.6896 41.787 68.4169 42.0062 68.7099C42.4581 69.3178 43.7228 70.2691 44.3803 69.8993C44.7095 69.7125 44.6613 69.2643 44.5189 68.9096C44.2718 68.4882 44.0606 68.0468 43.8877 67.5899C43.8305 67.364 44.0994 67.0973 44.3156 67.26C44.6269 67.5273 44.9752 67.7482 45.3497 67.9161C46.1135 68.2053 46.7078 67.8129 46.7078 67.4129Z" fill="#A76C6C"/>
<path id="Vector_16" d="M37.5518 71.2437C33.635 75.6545 25.9839 79.7008 20.7837 81.0001C17.8529 81.826 14.8483 82.3634 11.8129 82.6044C12.7469 85.3318 14.6314 89.1356 17.0206 90.7286C24.6303 90.5365 33.3451 86.9716 40.1376 79.7655C39.8107 77.4682 38.8993 73.1237 37.5518 71.2437Z" fill="#FF8684"/>
<path id="Vector_17" d="M110.566 90.4191C110.112 90.2512 109.616 90.2327 109.15 90.3661C108.685 90.4996 108.274 90.7782 107.978 91.1612C107.681 91.5443 107.515 92.0119 107.503 92.496C107.491 92.9801 107.634 93.4554 107.91 93.8527C108.187 94.2501 108.584 94.5488 109.042 94.7053C109.5 94.8619 109.996 94.8681 110.458 94.7231C110.92 94.5781 111.324 94.2894 111.611 93.8991C111.897 93.5088 112.052 93.0372 112.052 92.553C112.048 92.089 111.904 91.6371 111.639 91.2564C111.373 90.8756 110.999 90.5838 110.566 90.4191ZM108.475 93.6316C109.044 93.2241 110.409 92.1372 110.478 91.0172C110.77 91.1535 111.019 91.3694 111.194 91.6402C111.37 91.911 111.466 92.2257 111.471 92.5484C111.471 92.8965 111.363 93.2359 111.163 93.5207C110.963 93.8054 110.68 94.0217 110.353 94.14C110.025 94.2583 109.669 94.273 109.333 94.182C108.998 94.0911 108.698 93.8989 108.475 93.6316ZM119.159 96.1157C119.634 96.024 120.067 95.7836 120.395 95.4293C120.724 95.075 120.931 94.6252 120.987 94.1451C121.042 93.6651 120.944 93.1798 120.705 92.7597C120.466 92.3395 120.1 92.0063 119.659 91.8084C119.218 91.6106 118.726 91.5583 118.253 91.6591C117.781 91.76 117.352 92.0088 117.031 92.3695C116.709 92.7301 116.511 93.1839 116.464 93.6649C116.418 94.1459 116.526 94.6292 116.773 95.0446C117.013 95.4466 117.37 95.765 117.797 95.9566C118.224 96.1483 118.7 96.2038 119.159 96.1157ZM119.432 92.3496C119.724 92.4857 119.973 92.7015 120.148 92.9721C120.324 93.2428 120.42 93.5575 120.425 93.8801C120.425 94.2279 120.318 94.5672 120.118 94.8518C119.918 95.1365 119.636 95.3527 119.309 95.471C118.982 95.5894 118.626 95.6041 118.291 95.5133C117.955 95.4224 117.655 95.2304 117.433 94.9633C117.991 94.5603 119.359 93.4689 119.428 92.3534L119.432 92.3496ZM45.521 124.611C41.6457 122.393 36.2195 122.865 32.0384 124.42C31.1707 124.742 28.4712 125.511 28.4915 126.684C28.5156 128.077 30.9387 127.552 31.7816 127.544C35.9423 127.496 39.8304 127.486 44.6819 127.619C45.0402 127.628 45.3911 127.517 45.6792 127.303C45.9673 127.09 46.176 126.787 46.2723 126.442C46.3686 126.097 46.347 125.729 46.2109 125.398C46.0748 125.066 45.832 124.789 45.521 124.611ZM93.6929 128.175C90.839 125.99 86.8319 126.394 83.6398 127.984C82.992 128.305 80.9801 129.074 80.996 130.243C81.0125 131.636 82.821 131.111 83.4477 131.103C86.5562 131.055 89.4523 131.045 93.0617 131.178C94.303 131.22 94.7715 129.001 93.6929 128.175ZM93.2576 60.9088C91.5056 60.9736 90.3539 62.4032 89.56 63.8125C88.6213 65.4053 87.9372 67.1349 87.5324 68.9389C87.3283 68.7378 86.9682 68.5984 86.8545 68.8636C86.3353 69.9135 85.5758 70.8262 84.6375 71.5273C83.6992 72.2284 82.6087 72.6982 81.4547 72.8985C81.0869 69.9885 80.8817 67.0602 80.84 64.1273C82.5792 62.0223 84.0003 59.6737 85.0581 57.1563C85.6998 55.9806 86.2112 52.8946 86.4138 51.5757C86.7939 49.9415 86.8037 48.243 86.4425 46.6045C86.2053 45.7708 85.7482 45.0162 85.1192 44.4198C84.4901 43.8235 83.7122 43.4074 82.867 43.215C82.1022 42.8236 81.2803 42.5557 80.4318 42.4212C80.0552 42.3827 79.9731 42.5816 79.6259 43.1088C77.5744 46.2923 75.8964 49.7015 74.6253 53.269C73.3101 53.1748 67.6904 52.7598 67.5157 52.7515C67.5157 46.3642 71.995 42.4799 70.3575 41.7207C69.7166 41.4239 68.2734 41.613 67.829 42.3232C64.908 47.0369 61.3875 55.5045 59.4352 65.1532C53.0539 67.8776 53.2784 66.8156 53.1398 67.8897C52.9891 67.8324 52.8347 67.7835 52.6796 67.7345C53.0472 67.5306 53.3599 67.2407 53.5909 66.8895C53.8219 66.5384 53.9643 66.1364 54.006 65.7181C54.0236 65.5055 53.9932 65.2916 53.9172 65.0922C53.8411 64.8928 53.7213 64.713 53.5666 64.5661C53.4118 64.4192 53.2261 64.3088 53.023 64.2432C52.82 64.1775 52.6048 64.1583 52.3933 64.1868C51.9331 64.2622 51.9218 64.2494 47.1653 66.8984C47.0717 66.7222 46.9671 66.5522 46.8519 66.3892C46.3867 65.5407 45.6168 64.9003 44.6977 64.5973C41.3316 63.8027 36.9742 68.4892 40.2266 70.8603C39.6806 71.1782 39.1352 71.4915 38.5937 71.8094C38.3956 71.3938 38.1496 71.0027 37.8608 70.6442C37.8461 70.6095 37.8246 70.5781 37.7975 70.552C37.7704 70.5259 37.7382 70.5056 37.703 70.4923C37.6678 70.4789 37.6302 70.4729 37.5926 70.4746C37.555 70.4762 37.5181 70.4855 37.4842 70.5018C29.5001 71.4185 18.6846 75.644 11.2399 82.1315C11.1987 82.1666 11.1697 82.2139 11.1573 82.2666C11.1448 82.3193 11.1495 82.3746 11.1706 82.4245C11.2218 82.5269 13.0092 88.3086 16.4235 90.9599C16.5753 91.1238 16.7725 91.2386 16.9899 91.2898C18.0041 91.2886 19.0168 91.211 20.0193 91.0578C27.2118 90.0681 34.3787 86.5777 40.4405 80.3034C40.6032 80.1324 40.7787 80.0059 40.7577 79.7536C40.5127 78.1012 40.1729 76.4643 39.7401 74.8509C43.2101 73.1418 46.2177 71.5277 49.1666 69.8382C49.939 70.2457 50.7473 70.5811 51.5814 70.84C51.9113 70.9417 52.0619 70.4777 51.8073 70.3188C50.8922 70.0167 50.0053 69.6351 49.1568 69.1784C47.8409 68.3589 48.1203 67.7624 49.1635 67.6592C50.3318 67.5447 52.1681 68.1706 53.0419 68.4621C53.1676 68.5126 53.0592 68.2685 53.0901 69.317C53.1492 71.6001 54.0874 73.7722 55.709 75.3804C56.1428 75.8142 55.9425 75.8368 57.9317 75.6244C57.925 75.7088 57.8105 76.8642 57.7163 78.5401C54.6861 83.3607 50.1721 92.0649 49.0182 97.6417C49.0002 97.7162 49.0113 97.7948 49.0492 97.8614C49.0872 97.928 49.149 97.9776 49.2223 98.0002C53.3314 99.3381 57.5643 100.26 61.8575 100.753C70.1067 101.732 79.0037 101.164 86.4319 97.3728C86.4864 97.3393 86.5289 97.2894 86.5531 97.2302C86.5773 97.1711 86.5821 97.1057 86.5668 97.0436C86.444 96.4735 82.4241 77.7613 82.1567 76.5411C83.8337 76.393 85.4568 75.8741 86.9087 75.0219C87.7223 74.4966 88.3192 73.6957 88.5899 72.766C89.0057 73.6412 89.4938 74.4803 89.9668 75.3231C90.6838 76.6036 91.3376 78.6893 92.9149 77.6114C94.3407 76.624 95.0924 75.8037 94.9749 73.8084C94.8898 72.2591 94.23 71.7446 92.8945 70.8807C92.4421 70.5875 91.9714 70.3235 91.4853 70.0906C94.4439 68.4862 97.3603 64.3013 95.3575 61.7713C95.092 61.4825 94.7663 61.2556 94.4035 61.1066C94.0406 60.9576 93.6494 60.89 93.2576 60.9088ZM44.1999 65.1178C44.6356 65.1915 45.0486 65.3641 45.4071 65.6224C45.7657 65.8807 46.0603 66.2177 46.2682 66.6077C46.4648 66.8444 46.6142 67.1168 46.7081 67.4099C46.7043 67.8151 46.116 68.1985 45.3583 67.9085C44.9841 67.7404 44.6359 67.5198 44.3241 67.2532C44.1125 67.0905 43.8391 67.3594 43.8963 67.5831C44.07 68.0396 44.2811 68.481 44.5275 68.9027C44.6781 69.2341 44.715 69.7064 44.3889 69.8917C43.7329 70.2608 42.4705 69.3125 42.0148 68.7031C41.7948 68.4094 41.2985 68.6828 41.5139 68.9961C41.8536 69.5008 42.31 70.1132 42.1654 70.7142C42.0472 71.1759 41.367 70.892 40.952 70.6577C37.7116 69.0368 41.1418 64.8361 44.1999 65.1178ZM36.8326 71.1827C35.3597 72.6756 33.7373 74.0133 31.991 75.1748C31.7959 74.9 31.5177 74.6951 31.1974 74.5903C30.8771 74.4855 30.5317 74.4863 30.2119 74.5925C30.0516 74.6623 29.9095 74.768 29.7965 74.9014C29.6835 75.0347 29.6027 75.1923 29.5602 75.3618C29.5177 75.5314 29.5147 75.7084 29.5514 75.8793C29.5881 76.0502 29.6636 76.2104 29.772 76.3475C28.6512 75.5099 27.1553 76.4417 28.0087 77.5248C27.617 77.2027 27.1509 76.984 26.6528 76.8886C26.1548 76.7932 25.6408 76.8242 25.1578 76.9787C24.7226 77.1567 24.3698 77.4911 24.1686 77.9161C23.9675 78.341 23.9327 78.8259 24.0709 79.2753C23.9006 79.1125 23.6913 78.9963 23.463 78.9378C23.2348 78.8794 22.9954 78.8807 22.7678 78.9416C22.5188 78.9897 22.2961 79.1273 22.1415 79.3283C21.9869 79.5294 21.9113 79.78 21.9288 80.033C21.8534 80.0481 19.8197 78.9506 19.245 80.8028C16.9704 81.3721 14.6547 81.7627 12.3192 81.971C19.4153 76.3079 27.8635 72.5899 36.8326 71.1827ZM40.1393 79.7543C33.059 87.2714 24.0204 90.633 17.0223 90.7204C14.4373 88.6521 12.7945 85.4795 11.8146 82.5962C17.4719 82.1852 22.9947 80.6736 28.0727 78.1462C31.6055 76.4033 34.812 74.0656 37.552 71.2354C38.9055 73.1238 39.8094 77.4555 40.1378 79.7543H40.1393ZM51.9346 67.5304C50.9152 67.1725 49.8294 67.0439 48.7545 67.1538C48.0337 67.2878 47.386 67.9236 47.7611 68.6851C47.9599 69.0174 48.2348 69.2977 48.5632 69.503C45.6087 71.1969 42.6008 72.7961 39.5442 74.298C39.3477 73.6312 39.1069 72.9782 38.8234 72.3434C39.4712 71.9668 40.1227 71.5902 40.7697 71.2136C41.4883 71.533 42.3613 71.7665 42.6753 70.9937C42.7857 70.7032 42.8015 70.3853 42.7205 70.0853C44.5719 71.1744 45.6023 70.0574 45.0819 68.7295C45.2001 68.6647 45.3139 68.5992 45.4321 68.5344C45.622 68.6006 45.8238 68.6256 46.0241 68.6079C46.2243 68.5901 46.4186 68.5299 46.5938 68.4313C46.7691 68.3327 46.9213 68.198 47.0405 68.036C47.1597 67.8741 47.243 67.6886 47.285 67.492C52.5093 64.571 52.2909 64.7412 52.66 64.7555C52.8307 64.7706 52.9917 64.8414 53.1183 64.9569C53.2448 65.0724 53.3299 65.2264 53.3605 65.395C53.6181 66.3584 52.7602 67.0137 51.9346 67.5304ZM81.4984 76.5268C74.8701 78.8813 64.8576 79.0011 58.2594 78.3872C58.3166 77.4472 58.3887 76.5095 58.4756 75.574C66.6412 74.5473 74.8128 71.0132 80.2608 64.7872C80.3482 68.0486 80.7964 74.0592 81.4984 76.5268ZM67.722 50.3299C67.7258 50.2975 67.7296 50.281 67.722 50.3299V50.3299ZM68.1371 42.907C68.3713 42.5168 68.3299 42.4099 69.0002 42.2592C69.3647 42.1637 69.7476 42.1637 70.112 42.2592C69.291 45.132 67.4358 46.4735 66.9613 51.9584C66.8901 52.3264 66.8819 52.7039 66.9372 53.0746C67.0434 53.446 66.9221 53.3059 74.8038 53.8685C74.8671 53.8678 74.9284 53.8469 74.979 53.8088C75.0295 53.7707 75.0666 53.7175 75.0847 53.6569C76.3908 49.8945 78.1725 46.3146 80.3866 43.0041C81.0819 43.126 81.7573 43.3424 82.3939 43.6474C78.4629 52.991 69.6179 60.6339 60.0784 64.8708C62.0292 55.5527 65.3637 47.4451 68.1371 42.907ZM56.2875 75.1898C55.298 74.263 54.5478 73.1103 54.101 71.8303C53.6542 70.5503 53.5242 69.1812 53.722 67.8399C53.722 67.55 68.8104 64.6335 79.0828 50.574C80.629 48.4815 81.9333 46.2208 82.9709 43.8349C83.73 44.0341 84.4138 44.4519 84.9375 45.0363C86.6699 46.9382 86.1352 49.756 85.7608 52.048C85.5434 53.606 85.1771 55.1395 84.6671 56.6276C83.5455 59.2526 82.0602 61.7067 80.2548 63.9179C75.5141 69.5671 68.7426 72.9565 61.5238 74.469C59.7988 74.8395 58.0484 75.0804 56.2875 75.1898ZM85.9032 96.9789C75.2211 102.313 61.1849 101.163 49.5982 97.5287C50.9539 91.674 55.0115 83.955 58.1095 78.9521C65.1551 79.5788 75.0395 79.435 81.6257 77.0955C83.8153 87.3023 85.4332 94.7817 85.9032 96.9789ZM87.8661 72.9867C87.2891 74.3922 85.8625 75.0204 84.5105 75.4783C83.6927 75.7565 82.8432 75.9303 81.9819 75.9958C81.7867 75.1613 81.6346 74.3173 81.5262 73.4672C82.7144 73.2662 83.8419 72.7996 84.8247 72.1023C85.8075 71.405 86.6203 70.4949 87.2025 69.4398C87.6374 69.9076 87.9306 70.4892 88.0481 71.1171C88.1655 71.745 88.1024 72.3933 87.8661 72.9867ZM93.5468 72.1318C93.9518 72.4568 94.2205 72.9216 94.3 73.4348C94.3895 73.978 94.377 74.533 94.2631 75.0716C94.0765 75.8148 93.6096 76.4569 92.9601 76.8635C92.2679 77.3719 91.8536 77.8359 91.1727 76.4869C90.3652 74.875 89.365 73.3768 88.7571 71.8922C88.7404 71.8516 88.7147 71.8152 88.6818 71.786C88.6879 71.5613 88.674 71.3365 88.6404 71.1142C88.608 70.8671 88.556 70.9432 88.6938 70.9432C88.8031 70.9349 88.9093 70.9146 89.0155 70.8988C88.9876 71.0381 88.9145 70.8814 90.2779 72.9671C90.5912 73.4476 90.9332 74.0826 91.5485 74.2046C92.0487 74.3025 92.6964 73.9523 92.6595 73.3866C92.6166 72.7238 90.8917 71.1782 90.2206 70.6457C90.3991 70.5892 90.5746 70.5319 90.7479 70.4626C91.7653 70.8653 92.7113 71.4288 93.5498 72.1318H93.5468ZM89.6173 70.8777C90.4836 71.5265 91.261 72.2862 91.9297 73.1373C92.0193 73.2556 92.133 73.3814 92.0359 73.4958C91.9881 73.5458 91.9287 73.5831 91.8629 73.6044C91.7972 73.6257 91.7272 73.6303 91.6593 73.6179C91.2149 73.5305 90.8684 72.7886 89.6173 70.8777ZM93.5054 67.7096C92.6167 68.7146 91.5052 69.4977 90.2598 69.9964C89.8259 70.1561 88.4995 70.4363 88.4807 70.4619C88.4679 70.4295 88.4566 70.3926 88.44 70.3602C88.9281 70.2623 93.055 66.4171 93.5709 65.1721C93.9935 64.1439 93.1069 63.2619 91.8604 63.979C89.4704 65.3393 88.5093 69.8714 88.2216 69.8684C88.2088 69.8684 88.1884 69.793 88.0084 69.5256C88.2938 67.9638 88.8154 66.4546 89.5555 65.05C90.2153 63.7756 91.0055 62.1712 92.4547 61.6606C95.2257 60.6761 96.8278 64.1529 93.5054 67.7096ZM89.2384 69.0248C89.841 67.5274 90.4662 65.9125 91.5222 64.9401C91.8167 64.6301 92.1922 64.4089 92.606 64.3013C93.1597 64.2117 93.1672 64.7608 92.9473 65.1238C91.8715 66.5679 90.6264 67.8776 89.2384 69.0248ZM138.291 85.3394C138.236 85.394 138.206 85.4679 138.206 85.545C138.206 85.6222 138.236 85.6961 138.291 85.7507C138.345 85.8052 138.419 85.8358 138.497 85.8358C138.574 85.8358 138.648 85.8052 138.702 85.7507C140.115 84.3414 142.571 84.6103 144.012 85.8358C145.727 87.294 146.297 89.6636 146.297 91.8299C146.297 98.6841 140.387 107.035 134.37 109.706C134.028 109.857 134.325 110.357 134.663 110.207C140.701 107.525 146.743 99.1685 146.875 92.0822C147.021 84.4672 140.885 82.7484 138.291 85.3394ZM130.036 119.248C125.653 119.79 121.207 119.083 117.208 117.209C116.871 117.051 116.578 117.551 116.915 117.71C121.002 119.637 125.55 120.371 130.036 119.827C130.402 119.786 130.406 119.203 130.036 119.248Z" fill="black"/>
</g>
</svg>
