<svg width="151" height="151" viewBox="0 0 151 151" fill="none" xmlns="http://www.w3.org/2000/svg">
<g id="To-Do-List-Zero-Tasks-1--Streamline-Barcelona">
<path id="Vector" d="M29.6356 140.892C29.6421 141.994 29.8462 143.086 30.2382 144.116C30.4124 144.446 30.7106 144.694 31.0673 144.804C31.424 144.914 31.8098 144.879 32.1401 144.704C33.1509 144.177 33.0695 142.933 33.1192 141.691C31.9379 141.522 30.7727 141.255 29.6356 140.892ZM118.834 142.635C118.347 147.681 122.073 149.037 122.737 142.215C121.298 142.397 120.815 142.442 118.834 142.635Z" fill="black"/>
<path id="Vector_2" d="M65.8482 94.2492C69.9371 93.7626 74.0532 93.5405 78.1708 93.5841C78.8878 95.6698 77.6383 94.0007 83.6323 93.8914C88.8845 93.9668 93.2133 98.0635 90.0113 104.395C93.0975 103.846 96.269 104.021 99.2759 104.906C100.281 105.019 101.206 105.513 101.859 106.285C102.451 107.113 101.014 108.371 101.82 108.826C104.589 110.386 106.52 116.327 94.5728 116.735C86.2498 117.438 83.9058 118.947 75.9774 119.53C74.2397 119.703 70.9821 119.59 69.9065 118.061C69.4537 116.872 69.3162 115.585 69.5073 114.327C67.6271 114.584 65.7248 114.642 63.8326 114.497L63.8167 114.51C63.117 118.072 55.7829 118.446 52.0666 117.542L51.9415 117.244C51.8873 117.432 51.8278 117.696 51.5401 117.63C49.24 117.162 47.0433 116.283 45.0556 115.035C43.4415 116.193 43.0024 118.235 41.581 117.786C39.3892 116.807 42.741 113.7 41.0154 115.116C40.6372 115.48 40.2803 115.865 39.9466 116.27C38.0635 118.225 35.9108 116.257 38.0462 114.08C37.7336 114.015 36.1963 115.774 35.1621 114.876C34.9959 114.669 34.9022 114.413 34.8953 114.148C34.8883 113.882 34.9686 113.622 35.1237 113.407C35.0484 113.386 32.5492 112.739 32.2954 112.578C30.4877 110.642 26.9476 108.627 24.6555 109.89C22.533 111.935 22.3665 112.836 22.0682 116.761C21.5696 122.731 22.6007 137.808 27.9885 139.702C35.3979 143.104 50.8275 141.052 79.8956 142.356C94.5495 142.996 109.291 143.476 123.778 141.569C126.427 141.651 127.79 135.385 128.321 132.791C129.731 125.903 131.178 117.011 128.915 110.623C128.195 108.589 126.847 105.785 124.697 105.496C124.708 105.532 124.71 105.57 124.703 105.607C124.696 105.644 124.68 105.678 124.656 105.708C124.632 105.737 124.602 105.76 124.568 105.775C124.533 105.79 124.496 105.796 124.458 105.793C120.7 105.545 117.635 110.376 117.227 113.431C117.88 113.379 116.991 114.295 115.539 141.659C115.52 141.988 115.006 141.989 115.023 141.659C115.51 132.499 116.138 123.347 116.906 114.206C116.192 114.276 116.9 110.431 120.232 107.055C121.239 106.01 122.599 105.377 124.048 105.282C97.3838 84.7143 86.3281 84.5614 67.0435 86.1936C68.3353 88.7696 67.7809 92.916 65.8482 94.2492ZM29.4505 118.85C28.6468 120.005 28.2736 121.404 28.396 122.806C28.4216 123.136 27.9079 123.133 27.8815 122.806C27.6789 120.195 28.9925 118.75 29.3458 117.994C29.5188 117.673 29.6089 117.314 29.608 116.949C29.6071 116.584 29.5151 116.225 29.3405 115.904C29.1659 115.583 28.9141 115.312 28.608 115.113C28.3018 114.914 27.9509 114.795 27.587 114.766C27.1551 114.768 26.7414 114.94 26.4347 115.244C26.128 115.548 25.953 115.96 25.9473 116.392C25.9744 117.36 27.1984 117.72 27.529 116.871C27.6255 116.555 28.1218 116.691 28.0247 117.008C27.9295 117.263 27.7574 117.481 27.5324 117.633C27.3073 117.785 27.0405 117.863 26.769 117.856C26.4975 117.849 26.235 117.758 26.0179 117.595C25.8008 117.431 25.64 117.205 25.5579 116.946C24.7293 114.551 28.2137 113.18 29.6117 115.372C29.9452 115.898 30.1086 116.514 30.0798 117.136C30.0509 117.759 29.8312 118.357 29.4505 118.85ZM36.7996 141.086C36.5255 135.588 35.3587 119.388 33.38 114.264C33.2527 113.958 33.7499 113.826 33.8756 114.127C35.8777 119.425 37.0391 135.456 37.3141 141.086C37.3322 141.418 36.8177 141.416 36.8011 141.086H36.7996ZM57.608 121.3C57.1314 122.633 56.6544 123.966 56.1769 125.299C56.0661 125.609 55.5698 125.474 55.6813 125.163L57.1124 121.164C57.2246 120.854 57.721 120.988 57.6095 121.3H57.608ZM59.3215 125.352L58.0027 122.799C57.852 122.505 58.2942 122.246 58.4463 122.539L59.7659 125.092C59.9196 125.386 59.4752 125.646 59.3231 125.352H59.3215ZM76.7698 139.373C76.7698 139.441 76.7427 139.507 76.6943 139.555C76.646 139.603 76.5805 139.63 76.5122 139.63C76.4439 139.63 76.3784 139.603 76.33 139.555C76.2817 139.507 76.2546 139.441 76.2546 139.373C76.3543 133.608 76.1531 127.841 75.652 122.097C75.6234 121.767 76.1379 121.77 76.1665 122.097C76.6954 127.84 76.8974 133.607 76.7713 139.373H76.7698ZM122.58 114.941C122.741 114.361 123.088 113.849 123.569 113.486C125.426 112.296 127.451 115 126.067 116.978C125.205 118.174 123.162 116.896 123.974 115.485C124.124 115.192 124.57 115.452 124.418 115.745C123.753 116.965 126.246 117.75 125.995 115.293C125.92 114.012 124.475 113.17 123.603 114.123C122.814 114.942 122.8 116.352 123.01 117.392C123.456 119.584 125.22 120.4 124.445 125.087C124.408 125.413 123.894 125.416 123.932 125.087C124.793 119.095 121.522 118.612 122.58 114.941ZM95.72 120.934C95.0873 119.895 94.4809 118.84 93.8618 117.793C93.8318 117.735 93.8254 117.667 93.8439 117.604C93.8624 117.54 93.9045 117.487 93.9614 117.453C94.0183 117.42 94.0857 117.41 94.1498 117.425C94.214 117.44 94.2699 117.479 94.3062 117.534L96.1644 120.674C96.1933 120.733 96.199 120.8 96.1801 120.863C96.1613 120.925 96.1194 120.978 96.0629 121.011C96.0065 121.044 95.9396 121.054 95.8759 121.04C95.8123 121.025 95.7565 120.987 95.72 120.933V120.934ZM98.5016 120.766C97.5847 120.146 96.7575 119.403 96.0431 118.558C95.8314 118.306 96.1937 117.941 96.4069 118.194C97.0899 119.008 97.8822 119.724 98.7614 120.322C99.0334 120.506 98.7765 120.951 98.5016 120.765V120.766ZM103.784 117.541C101.875 117.564 99.9664 117.456 98.0723 117.216C97.7484 117.175 97.7454 116.661 98.0723 116.702C99.9663 116.942 101.875 117.051 103.784 117.027C103.84 117.043 103.889 117.076 103.924 117.123C103.959 117.169 103.978 117.225 103.978 117.283C103.978 117.341 103.959 117.398 103.924 117.444C103.889 117.49 103.84 117.524 103.784 117.539V117.541ZM107.167 107.183C108.393 107.824 109.306 108.904 110.488 109.607C112.004 110.511 115.191 111.12 115.507 113.233C115.549 113.491 115.523 113.757 115.43 114.002C115.337 114.247 115.181 114.463 114.978 114.629C114.775 114.794 114.532 114.904 114.273 114.945C114.014 114.987 113.749 114.959 113.504 114.865C112.847 114.7 110.243 113.875 109.376 113.493C111.59 116.795 113.116 117.196 113.387 121.079C113.86 124.333 111.385 124.562 110.434 123.398C108.332 121.13 106.732 118.444 105.739 115.515C104.765 111.528 104.19 111.418 104.657 110.642C104.431 110.492 104.205 110.341 103.984 110.19C101.799 108.793 103.718 105.375 107.167 107.183ZM104.09 95.2698L103.379 95.9861C103.331 96.0344 103.265 96.0615 103.197 96.0616C103.129 96.0617 103.063 96.0347 103.015 95.9865C102.967 95.9384 102.94 95.873 102.94 95.8049C102.94 95.7367 102.967 95.6713 103.015 95.6231C103.475 95.1584 103.822 94.6326 104.09 94.9181C104.133 94.9658 104.158 95.0282 104.158 95.0928C104.158 95.1575 104.133 95.2198 104.09 95.2676V95.2698ZM102.131 94.7629L102.717 93.3408C102.841 93.0396 103.338 93.1721 103.212 93.4772L102.627 94.8992C102.501 95.1998 102.004 95.0657 102.131 94.7607L102.131 94.7629Z" fill="#ACEAC7"/>
<path id="Vector_3" d="M47.2617 99.5158C49.776 98.6315 46.2456 100.048 43.4844 100.143C43.9102 101.553 43.969 103.048 43.6552 104.487C43.3413 105.926 42.6652 107.261 41.691 108.365C39.6708 110.292 37.5852 109.699 39.2566 110.028C40.5428 109.614 41.9181 109.564 43.2313 109.881C44.7385 109.061 45.9248 107.757 46.5982 106.179C47.4273 104.061 47.6569 101.756 47.2617 99.5158Z" fill="#FFCEB6"/>
<path id="Vector_4" d="M35.3884 109.072C41.1182 111.368 44.8164 104.533 42.8347 99.8946C42.6389 99.3982 43.6633 99.4479 44.1077 97.9686C44.9641 96.2829 41.9655 94.5791 41.0948 98.1388C41.0818 98.1814 41.0581 98.22 41.026 98.2509C40.9938 98.2817 40.9544 98.3039 40.9113 98.3152C40.8682 98.3265 40.8229 98.3266 40.7797 98.3155C40.7366 98.3044 40.697 98.2825 40.6647 98.2518C38.5617 96.5322 35.3169 96.7875 33.1552 98.2586C32.1883 98.9323 31.4458 99.8807 31.0238 100.981C30.6017 102.081 30.5195 103.283 30.7878 104.43C30.934 103.862 31.2186 103.339 31.6163 102.908C31.8363 102.66 32.1986 103.026 31.9794 103.272C31.187 104.164 31.3971 104.82 30.9512 104.666C30.8972 104.648 30.8504 104.613 30.8179 104.566C31.3474 106.812 33.2162 108.259 35.3884 109.072ZM36.409 99.2212C36.6953 98.5177 37.7392 97.8654 37.8665 98.3927C37.9735 98.8401 37.2519 98.5629 36.9047 99.3545C36.7781 99.6581 36.284 99.527 36.409 99.2212ZM34.0605 107.458C33.2516 107.768 32.6204 106.991 32.2528 106.382C32.2228 106.323 32.2164 106.255 32.2349 106.192C32.2535 106.129 32.2955 106.075 32.3524 106.042C32.4093 106.009 32.4767 105.999 32.5409 106.014C32.605 106.029 32.6609 106.068 32.6972 106.123C32.9171 106.487 33.3329 107.158 33.8541 106.988C34.5102 106.777 34.3407 105.849 34.2307 105.358C34.1599 105.035 34.6556 104.899 34.7264 105.222C34.8981 105.996 34.9764 107.107 34.0605 107.458ZM36.9476 106.64C36.6207 106.591 36.7608 106.096 37.0847 106.146C38.3041 106.216 38.7711 104.84 38.732 103.669C38.7448 103.339 39.2592 103.338 39.2464 103.669C39.3172 105.184 38.5422 106.85 36.9476 106.64ZM42.9681 97.5182L42.3444 98.8965C42.2073 99.1978 41.7652 98.9365 41.9 98.6367C42.1089 98.1782 42.317 97.7188 42.5244 97.2583C42.6607 96.9578 43.1029 97.2191 42.9681 97.5182ZM39.9017 101.641C39.3368 102.21 38.5459 101.836 38.1829 101.121C38.0051 100.84 38.4495 100.581 38.6273 100.861C38.8623 101.229 39.3052 101.698 39.6456 101.141C39.9356 100.672 39.5959 100.099 39.3632 99.6829C39.202 99.3929 39.6456 99.1346 39.8068 99.4238C40.1842 100.102 40.5472 100.989 39.9017 101.641Z" fill="#FFCEB6"/>
<path id="Vector_5" d="M34.7279 105.224C34.6526 104.903 34.1615 105.038 34.2323 105.361C34.34 105.852 34.4635 106.785 33.8557 106.991C33.1266 107.237 32.8524 105.689 32.3432 106.045C32.289 106.08 32.2499 106.135 32.2335 106.197C32.2171 106.26 32.2245 106.327 32.2544 106.384C33.3345 108.356 35.3199 107.678 34.7279 105.224ZM39.3632 99.6829C39.5952 100.099 39.9357 100.671 39.6457 101.141C39.3022 101.697 38.8616 101.229 38.6273 100.861C38.5915 100.805 38.5353 100.765 38.4706 100.749C38.4059 100.734 38.3377 100.744 38.2802 100.777C38.2228 100.811 38.1806 100.865 38.1624 100.929C38.1443 100.993 38.1516 101.062 38.1829 101.121C39.0416 102.758 41.2003 101.697 39.8069 99.4238C39.7725 99.365 39.7162 99.3222 39.6503 99.3049C39.5844 99.2876 39.5143 99.2972 39.4555 99.3315C39.3967 99.3659 39.3539 99.4222 39.3366 99.4881C39.3193 99.554 39.3289 99.6241 39.3632 99.6829ZM38.732 103.669C38.7719 104.858 38.3042 106.217 37.0847 106.146C36.7609 106.096 36.6215 106.591 36.9476 106.64C38.1709 106.801 39.3451 105.867 39.2465 103.669C39.2585 103.341 38.7441 103.341 38.732 103.669ZM36.907 99.3575C37.2467 98.5659 38.0089 98.8416 37.8643 98.3783C37.7024 97.8654 36.6772 98.5433 36.4114 99.2212C36.2803 99.5255 36.7759 99.6573 36.907 99.3575ZM115.507 113.23C115.161 111.121 111.972 110.49 110.488 109.605C109.306 108.902 108.392 107.821 107.167 107.18C103.668 105.349 101.874 108.842 103.984 110.189C104.21 110.339 104.436 110.49 104.657 110.641C104.19 111.417 104.76 111.512 105.739 115.513C106.731 118.442 108.331 121.129 110.434 123.396C111.405 124.583 113.858 124.319 113.386 121.077C113.116 117.197 111.599 116.807 109.375 113.492C110.264 113.883 112.882 114.707 113.504 114.864C113.749 114.956 114.013 114.983 114.272 114.94C114.53 114.898 114.773 114.789 114.975 114.624C115.178 114.458 115.334 114.242 115.427 113.998C115.52 113.753 115.548 113.489 115.507 113.23ZM124.695 105.499C124.609 104.882 121.833 105.397 120.232 107.058C116.912 110.417 116.215 114.268 116.906 114.209C116.123 123.549 115.507 132.611 115.023 141.662C115.006 141.993 115.52 141.991 115.538 141.662C116.981 114.508 117.873 113.36 117.227 113.434C117.58 111.587 118.426 109.869 119.675 108.463C122.811 104.542 124.975 106.412 124.695 105.499ZM33.8768 114.127C33.7563 113.826 33.2539 113.959 33.3812 114.264C35.3576 119.376 36.5289 135.596 36.8008 141.086C36.8173 141.416 37.328 141.418 37.3152 141.086C37.035 135.467 35.9617 119.371 33.8768 114.127Z" fill="black"/>
<path id="Vector_6" d="M42.7716 93.7379C47.2872 97.7457 58.9447 95.9486 64.859 94.6538C68.7508 93.7966 70.734 84.4236 59.3914 80.3615C43.4337 74.6438 37.0095 88.625 42.7716 93.7379Z" fill="#B26EE6"/>
<path id="Vector_7" d="M59.027 91.9511C55.3302 91.7719 52.3987 93.3943 48.7471 92.2938C48.4323 92.1884 48.2952 92.6848 48.6108 92.7887C51.5122 93.7513 54.3985 92.7134 57.8693 92.4693C59.732 92.3051 62.5076 92.8234 62.656 94.6733C62.6824 95.0009 63.1968 95.0039 63.1705 94.6733C63.01 92.6765 60.6894 92.0317 59.027 91.9511Z" fill="black"/>
<path id="Vector_8" d="M55.3067 91.6869C55.2547 92.0108 55.7503 92.1501 55.803 91.824C56.0484 90.3529 56.6631 88.9681 57.5896 87.7993C58.5161 86.6306 59.7241 85.7161 61.1004 85.1415C61.938 84.7114 61.7971 84.9155 61.9244 86.1139C62.0886 87.3642 61.8589 87.7303 62.2573 87.7333C62.9132 87.727 63.5487 87.961 64.0438 88.3912C64.539 88.8214 64.8595 89.4179 64.9448 90.0683C64.9652 90.2648 65.2265 90.4388 65.3839 90.2505C65.8112 89.7228 66.3761 89.3234 67.0162 89.0966C67.1199 89.803 67.0728 90.5234 66.8781 91.2102C66.6834 91.8971 66.3454 92.535 65.8863 93.0819C65.6762 93.335 66.037 93.7003 66.2494 93.4457C66.8006 92.7959 67.1971 92.0293 67.4087 91.2039C67.6203 90.3784 67.6417 89.5157 67.4711 88.6808C67.3039 88.0941 65.8193 89.0793 65.3508 89.541C65.1675 88.9136 64.7972 88.357 64.2893 87.9456C63.7813 87.5341 63.16 87.2874 62.5082 87.2384C62.5027 86.8628 62.4775 86.4877 62.4328 86.1146C62.399 84.9313 62.3236 84.1563 61.3083 84.5148C59.7643 85.0747 58.3958 86.0331 57.3417 87.2927C56.2877 88.5523 55.5856 90.0683 55.3067 91.6869Z" fill="black"/>
<path id="Vector_9" d="M60.6082 89.3141C60.5101 89.3833 60.3968 89.4278 60.2778 89.4437C60.1588 89.4596 60.0377 89.4463 59.9249 89.4052C59.8121 89.364 59.711 89.2961 59.6302 89.2073C59.5494 89.1185 59.4914 89.0114 59.461 88.8953C59.391 88.5714 58.8954 88.7077 58.9654 89.0316C59.0209 89.2333 59.1257 89.418 59.2704 89.569C59.415 89.7201 59.595 89.8327 59.7941 89.8968C59.9932 89.961 60.2051 89.9745 60.4107 89.9363C60.6164 89.8981 60.8092 89.8092 60.972 89.6779C61.2243 89.4632 60.8598 89.1009 60.6082 89.3141ZM65.0243 92.4753C65.0859 92.4538 65.1371 92.4096 65.1675 92.3518C65.1978 92.294 65.2051 92.2268 65.1877 92.1638C65.1704 92.1008 65.1298 92.0468 65.0742 92.0126C65.0185 91.9784 64.952 91.9667 64.888 91.9797C64.8504 91.9933 64.8106 91.9993 64.7707 91.9973C64.7309 91.9954 64.6918 91.9855 64.6558 91.9684C64.6198 91.9512 64.5875 91.927 64.5609 91.8973C64.5343 91.8676 64.5139 91.8329 64.5008 91.7952C64.497 91.7601 64.4861 91.7262 64.4687 91.6955C64.4513 91.6649 64.4278 91.6381 64.3997 91.6168C64.3716 91.5956 64.3394 91.5803 64.3052 91.572C64.2709 91.5636 64.2353 91.5624 64.2006 91.5683C64.1658 91.5742 64.1326 91.5872 64.1031 91.6064C64.0735 91.6256 64.0482 91.6507 64.0287 91.68C64.0092 91.7094 63.9959 91.7425 63.9897 91.7771C63.9834 91.8118 63.9844 91.8474 63.9924 91.8818C64.0188 91.9899 64.0669 92.0915 64.1337 92.1805C64.2006 92.2695 64.2848 92.344 64.3813 92.3995C64.4777 92.4549 64.5845 92.4903 64.695 92.5033C64.8055 92.5164 64.9176 92.5068 65.0243 92.4753ZM62.4174 91.9435C62.6893 91.7605 62.4287 91.3078 62.1575 91.4999C62.0451 91.5753 61.9163 91.6229 61.7818 91.6386C61.6473 91.6544 61.511 91.638 61.3841 91.5906C61.2572 91.5433 61.1434 91.4665 61.0521 91.3665C60.9608 91.2665 60.8946 91.1462 60.859 91.0156C60.7837 90.6932 60.2881 90.8303 60.3626 91.1519C60.4183 91.3592 60.5221 91.5504 60.6657 91.71C60.8092 91.8696 60.9885 91.993 61.1888 92.0701C61.3891 92.1473 61.6047 92.176 61.8182 92.154C62.0318 92.132 62.2371 92.0599 62.4174 91.9435ZM54.251 86.3577H56.2501C56.3182 86.3577 56.3835 86.3306 56.4317 86.2825C56.4799 86.2343 56.5069 86.169 56.5069 86.1008C56.5069 86.0327 56.4799 85.9674 56.4317 85.9192C56.3835 85.8711 56.3182 85.844 56.2501 85.844H54.251C54.1829 85.844 54.1176 85.8711 54.0694 85.9192C54.0212 85.9674 53.9942 86.0327 53.9942 86.1008C53.9942 86.169 54.0212 86.2343 54.0694 86.2825C54.1176 86.3306 54.1829 86.3577 54.251 86.3577ZM52.7423 89.3171L54.0303 89.0437C54.3535 88.9751 54.2164 88.4795 53.894 88.548L52.606 88.8215C52.2829 88.8908 52.4192 89.3856 52.7423 89.3171ZM53.3125 81.6764L55.0683 82.2647C55.3824 82.3702 55.5202 81.8738 55.2054 81.7691L53.4489 81.1808C53.1348 81.0754 52.9999 81.5733 53.3125 81.6764ZM49.3175 84.9032C49.984 84.7385 50.6287 84.4956 51.2382 84.1794C51.5327 84.0287 51.2728 83.5836 50.9791 83.7357C49.4915 84.501 48.8701 84.2901 49.0124 84.73C49.0317 84.7923 49.0739 84.8449 49.1306 84.877C49.1873 84.9092 49.2541 84.9186 49.3175 84.9032ZM47.7312 88.5782C48.1462 88.2375 48.6016 87.9491 49.087 87.7195C49.3845 87.5756 49.1239 87.132 48.8271 87.2759C48.3058 87.5286 47.8169 87.8435 47.3712 88.2136C47.1121 88.4275 47.4774 88.7876 47.7312 88.5782ZM44.2461 85.7521C44.4955 85.1562 44.8478 84.6088 45.287 84.1349C45.513 83.8909 45.1484 83.5271 44.924 83.7704C44.427 84.3116 44.0295 84.9363 43.7497 85.6158C43.6232 85.9208 44.1203 86.0534 44.2461 85.7521Z" fill="black"/>
<path id="Vector_10" d="M36.6287 114.399C39.2822 112.839 39.5896 112.331 39.7967 112.711C40.0716 113.22 38.0003 114.26 37.6719 115.616C37.6263 115.795 37.6462 115.985 37.7277 116.15C37.8093 116.316 37.9474 116.447 38.117 116.52C39.3131 116.929 39.5933 115.255 42.0797 113.755C42.1288 113.728 42.1853 113.718 42.2406 113.726C42.2959 113.735 42.3471 113.76 42.3866 113.8C42.426 113.839 42.4517 113.891 42.4596 113.946C42.4676 114.001 42.4574 114.058 42.4307 114.107C41.3167 116.079 41.221 116.366 41.3604 116.885C41.4043 117.036 41.5053 117.164 41.6419 117.241C41.7785 117.319 41.9399 117.34 42.0917 117.3C42.7629 117.136 43.1108 116.31 43.5002 115.807C43.7503 115.471 44.8086 114.392 45.1671 114.602C47.0904 115.817 49.2159 116.678 51.4429 117.144C51.9702 115.369 51.0942 113.519 50.0532 112.087C43.1922 110.824 40.62 107.901 35.9816 112.863C35.0605 113.686 34.9882 115.363 36.6287 114.399ZM40.0181 110.881H40.8745C40.9404 110.884 41.0023 110.913 41.0476 110.961C41.093 111.009 41.1182 111.072 41.1182 111.138C41.1182 111.204 41.093 111.267 41.0476 111.315C41.0023 111.363 40.9404 111.392 40.8745 111.395C40.3608 111.344 39.7553 111.546 39.7553 111.138C39.7549 111.103 39.7616 111.069 39.7748 111.037C39.788 111.006 39.8075 110.977 39.8322 110.953C39.8568 110.929 39.8861 110.91 39.9182 110.898C39.9502 110.885 39.9845 110.88 40.0189 110.881H40.0181ZM42.0443 112.502C41.9801 112.515 41.9132 112.504 41.8572 112.47C41.8011 112.436 41.7602 112.382 41.7427 112.318C41.7252 112.255 41.7325 112.188 41.7631 112.13C41.7936 112.072 41.8452 112.027 41.9072 112.006L42.8517 111.742C42.9175 111.724 42.9877 111.732 43.0469 111.766C43.1062 111.8 43.1496 111.856 43.1677 111.921C43.1858 111.987 43.177 112.057 43.1433 112.117C43.1096 112.176 43.0538 112.219 42.9881 112.237L42.0443 112.502ZM44.6301 113.234C44.4536 113.314 44.2851 113.41 44.1269 113.522C43.855 113.714 43.5997 113.269 43.8671 113.079C44.0249 112.966 44.1934 112.87 44.3702 112.79C44.67 112.654 44.9314 113.098 44.6308 113.234H44.6301Z" fill="#FFCEB6"/>
<path id="Vector_11" d="M48.125 99.274C55.0109 97.0272 57.4897 96.106 57.7451 95.8597C58.3386 95.288 46.0567 97.9687 42.0232 92.9222C36.8403 91.1491 27.8469 94.2855 26.4369 100.839C24.7278 100.353 21.9018 100.696 21.7278 101.511C21.7328 103.879 22.1561 106.228 22.9781 108.449C23.5852 110.106 23.8383 110.666 24.1644 110.353C27.2963 107.699 32.5048 112.672 32.3225 112.597C32.6027 112.748 34.8609 113.35 35.0861 113.406C34.9259 113.622 34.8459 113.887 34.8596 114.155C34.8734 114.423 34.98 114.679 35.1614 114.877C35.889 115.509 36.7929 114.915 38.0455 114.081C35.9033 116.255 38.056 118.229 39.9458 116.271C40.223 115.984 41.7618 114.309 41.3943 114.991C40.7164 116.072 40.4151 117.267 41.5803 117.79C43.0189 118.242 43.4061 116.222 45.0549 115.039C47.771 116.771 51.4851 117.925 51.7766 117.64C52.0681 117.427 52.6654 115.146 50.8516 112.344C50.3304 111.536 50.3538 111.631 49.8318 111.534C45.1279 110.657 42.2454 108.922 39.2581 110.028C37.589 109.7 39.6762 110.29 41.6925 108.365C42.6665 107.261 43.3424 105.926 43.6562 104.487C43.97 103.048 43.9114 101.553 43.4859 100.143C45.0625 100.048 46.621 99.7564 48.125 99.274ZM32.6087 112.171C30.493 109.953 26.5544 108.008 24.0853 109.779C23.0194 107.469 22.398 104.978 22.2535 102.438C22.2159 101.736 22.0366 101.534 22.7273 101.394C23.9001 101.007 25.1643 100.998 26.3427 101.366C25.3884 107.769 30.9743 111.227 37.4647 111.032C36.7262 111.612 36.0412 112.258 35.4182 112.961C33.8696 112.565 32.5327 112.15 32.6087 112.171V112.171ZM41.0448 110.178C44.2625 110.223 44.8508 111.135 50.0502 112.092C51.0912 113.523 51.9679 115.375 51.4399 117.149C46.7933 116.105 45.3298 114.259 44.911 114.508C43.1146 115.629 43.0928 117.056 42.0887 117.302C41.9369 117.342 41.7755 117.321 41.6389 117.244C41.5023 117.166 41.4013 117.039 41.3574 116.888C41.0493 115.732 42.915 114.08 42.326 113.758C42.2879 113.737 42.245 113.726 42.2013 113.726C42.1577 113.726 42.1148 113.737 42.0767 113.758C39.4849 115.252 39.3433 116.943 38.114 116.523C37.3163 116.18 37.6658 115.126 38.3031 114.554C39.8276 112.947 39.9827 112.873 39.744 112.647C39.3169 112.244 36.234 115.035 35.5794 114.57C35.4819 114.476 35.4164 114.354 35.3923 114.22C35.3682 114.087 35.3868 113.95 35.4454 113.828C35.8159 113.078 38.1389 110.373 41.05 110.179L41.0448 110.178ZM44.1051 97.968C43.6682 99.4066 42.6333 99.4172 42.8321 99.8939C44.8116 104.529 41.1141 111.37 35.3859 109.071C33.2256 108.263 31.3479 106.82 30.8183 104.565C30.8129 104.556 30.8079 104.546 30.8033 104.535C30.8267 104.582 30.8634 104.62 30.9087 104.646C30.9541 104.672 31.006 104.684 31.058 104.68C31.11 104.676 31.1597 104.657 31.2009 104.625C31.242 104.593 31.2727 104.549 31.2891 104.5C31.4281 104.045 31.6638 103.626 31.9798 103.271C32.199 103.024 31.8375 102.66 31.6168 102.908C31.2203 103.34 30.9358 103.862 30.7882 104.43C30.5203 103.282 30.6026 102.081 31.0246 100.981C31.4467 99.8803 32.1889 98.9319 33.1556 98.258C35.3158 96.7869 38.5622 96.5308 40.6651 98.2512C40.6974 98.2819 40.737 98.3038 40.7802 98.3149C40.8233 98.326 40.8686 98.3259 40.9117 98.3146C40.9548 98.3033 40.9943 98.2811 41.0264 98.2502C41.0585 98.2194 41.0822 98.1808 41.0952 98.1382C42.0443 94.6041 44.9668 96.2845 44.1081 97.9687L44.1051 97.968ZM103.784 117.026C101.875 117.027 99.9683 116.919 98.0723 116.7C97.7454 116.659 97.7491 117.173 98.0723 117.215C99.9664 117.455 101.875 117.563 103.784 117.54C103.852 117.54 103.917 117.512 103.966 117.464C104.014 117.416 104.041 117.351 104.041 117.283C104.041 117.215 104.014 117.149 103.966 117.101C103.917 117.053 103.852 117.026 103.784 117.026ZM94.3062 117.533C94.2699 117.478 94.214 117.439 94.1499 117.424C94.0857 117.409 94.0183 117.419 93.9614 117.452C93.9045 117.485 93.8625 117.539 93.8439 117.602C93.8254 117.665 93.8318 117.733 93.8618 117.792L95.72 120.933C95.7558 120.989 95.812 121.029 95.8767 121.044C95.9414 121.06 96.0096 121.05 96.0671 121.016C96.1245 120.983 96.1667 120.928 96.1849 120.864C96.203 120.8 96.1957 120.732 96.1644 120.673C95.5445 119.626 94.9396 118.571 94.3062 117.533ZM96.4069 118.193C96.1938 117.939 95.8322 118.305 96.0431 118.556C96.7571 119.402 97.5844 120.145 98.5016 120.765C98.7758 120.951 99.0341 120.506 98.7615 120.32C97.8829 119.722 97.0906 119.006 96.4069 118.193ZM57.1131 121.164L55.682 125.163C55.5705 125.475 56.0669 125.609 56.1776 125.299C56.6537 123.966 57.1307 122.634 57.6087 121.3C57.721 120.989 57.2238 120.854 57.1131 121.164Z" fill="black"/>
<path id="Vector_12" d="M51.8357 103.457C51.6181 103.208 51.2565 103.572 51.4727 103.821C53.1854 105.798 54.3307 108.201 54.7868 110.776C55.0738 112.401 55.641 112.418 51.1089 111.628C50.785 111.571 50.6464 112.067 50.9718 112.124C54.3846 112.72 55.5822 113.108 55.4324 111.701C55.1066 108.65 53.8511 105.772 51.8357 103.457ZM58.449 122.539C58.2983 122.246 57.8532 122.505 58.0053 122.799L59.3242 125.352C59.4749 125.645 59.92 125.386 59.7686 125.092L58.449 122.539ZM76.1654 122.096C76.1368 121.77 75.6223 121.767 75.6509 122.096C76.1505 127.841 76.3516 133.607 76.2535 139.372C76.2535 139.441 76.2806 139.506 76.329 139.554C76.3773 139.603 76.4428 139.63 76.5111 139.63C76.5794 139.63 76.6449 139.603 76.6933 139.554C76.7416 139.506 76.7687 139.441 76.7687 139.372C76.8662 133.607 76.6649 127.841 76.1654 122.096ZM124.072 122.16C124.131 123.138 124.084 124.12 123.932 125.089C123.894 125.417 124.407 125.414 124.445 125.089C125.198 120.531 123.424 119.429 123.01 117.393C122.799 116.353 122.814 114.944 123.602 114.124C124.476 113.169 125.919 114.017 125.995 115.294C126.247 117.772 123.769 116.939 124.417 115.746C124.568 115.453 124.127 115.194 123.974 115.487C123.818 115.759 123.767 116.079 123.829 116.386C123.89 116.694 124.061 116.968 124.31 117.159C124.559 117.35 124.868 117.445 125.181 117.425C125.494 117.406 125.789 117.274 126.012 117.054C126.216 116.784 126.364 116.475 126.446 116.147C126.528 115.819 126.543 115.477 126.49 115.143C126.437 114.809 126.317 114.489 126.138 114.202C125.959 113.915 125.723 113.667 125.446 113.473C124.273 112.747 122.948 113.56 122.58 114.942C121.657 117.921 123.863 119.261 124.072 122.16ZM29.6106 115.372C28.2104 113.199 24.729 114.543 25.5568 116.946C25.6393 117.204 25.8002 117.431 26.0173 117.594C26.2343 117.756 26.4967 117.848 26.7679 117.855C27.0392 117.861 27.3058 117.784 27.5309 117.632C27.7559 117.48 27.9281 117.262 28.0236 117.008C28.1207 116.691 27.6244 116.557 27.528 116.871C27.198 117.718 25.9259 117.362 25.9462 116.392C25.9861 114.429 28.9463 114.225 29.5014 116.328C30.0475 118.397 27.5897 119.058 27.8805 122.805C27.9068 123.132 28.4205 123.135 28.3949 122.805C28.0801 119.017 31.4258 118.188 29.6106 115.372ZM102.626 94.8971C102.822 94.423 103.017 93.949 103.211 93.475C103.338 93.17 102.84 93.0366 102.715 93.3387L102.13 94.7607C102.004 95.0658 102.501 95.1991 102.626 94.8971ZM103.378 95.984C103.755 95.5268 104.396 95.2029 104.077 94.9039C103.851 94.6884 103.695 94.934 103.015 95.6209C102.966 95.6692 102.939 95.7346 102.939 95.8027C102.94 95.8709 102.967 95.9362 103.015 95.9843C103.063 96.0325 103.129 96.0595 103.197 96.0594C103.265 96.0594 103.33 96.0322 103.378 95.984ZM49.9007 36.5213C45.2383 36.1718 44.2456 35.0571 44.0949 35.686C44.0798 35.7493 44.0892 35.8161 44.1214 35.8727C44.1535 35.9293 44.206 35.9716 44.2682 35.9911C46.1019 36.5439 47.9907 36.8942 49.9007 37.0358C50.2314 37.0584 50.2291 36.5462 49.9007 36.5213ZM52.0813 49.9715C49.8085 50.3476 47.4777 50.1474 45.3023 49.3893C44.989 49.2808 44.8549 49.7772 45.166 49.8849C47.4311 50.6644 49.8555 50.8641 52.2176 50.4656C52.5438 50.4136 52.4059 49.918 52.0813 49.9715ZM63.8721 114.399C64.8152 109.229 64.3775 103.605 60.784 99.8314C60.558 99.5911 60.1934 99.9549 60.4209 100.195C63.1408 103.051 63.961 107.118 63.7742 110.947C63.6236 114.009 63.0926 114.487 63.5897 114.574C63.6295 114.582 63.6705 114.581 63.7096 114.57C63.7488 114.56 63.785 114.54 63.8156 114.514L63.8315 114.501C63.8522 114.47 63.866 114.435 63.8721 114.399Z" fill="black"/>
<path id="Vector_13" d="M78.8324 95.0802C79.2045 97.7217 79.0538 101.784 77.0073 103.753C73.9244 107.125 69.5354 110.629 69.9806 116.243C69.9484 116.943 70.185 117.629 70.6419 118.159C72.3178 119.334 75.9235 119.13 77.6935 118.891C83.5611 118.31 87.3626 116.767 94.9038 116.203C98.874 116.07 104.378 115.351 103.415 111.281C103.012 109.58 101.061 109.156 100.985 109.116C101.096 108.966 101.245 108.923 101.304 108.719C101.608 108.27 101.75 107.731 101.707 107.19C101.338 105.656 99.5052 105.475 97.9784 105.163C95.3482 104.627 92.9575 104.176 89.5974 105.012C89.5484 105.024 89.4971 105.022 89.4496 105.005C89.4021 104.988 89.3605 104.958 89.3297 104.918C89.299 104.878 89.2806 104.83 89.2766 104.78C89.2726 104.73 89.2833 104.68 89.3074 104.635C91.6461 100.823 90.9411 96.8081 86.8135 95.041C84.2661 93.9511 81.4348 94.4648 78.8324 95.0802Z" fill="#DFE4ED"/>
<path id="Vector_14" d="M75.1707 27.7598L73.2605 27.4849C72.6474 28.6518 72.2334 29.913 72.0358 31.2163L73.4089 31.7081C73.9806 30.3847 74.5975 29.0817 75.1707 27.7598ZM55.6624 60.2648L50.9661 60.9826C50.6399 61.0324 50.7778 61.528 51.1024 61.4783L55.7987 60.7604C56.1256 60.7092 55.987 60.2151 55.6624 60.2648ZM92.3327 58.7373C83.276 52.8502 77.6344 49.1105 77.4861 49.0125L90.7103 31.3677C90.9091 31.1026 90.4625 30.8465 90.2666 31.1086L77.0597 48.7293C71.1803 44.8553 65.3199 40.9523 59.4789 37.0206C59.204 36.8353 58.9456 37.2804 59.2191 37.4642C70.3011 44.9211 75.7898 48.5041 76.7532 49.1391L66.52 62.7919C66.3211 63.057 66.767 63.3131 66.9636 63.0517L77.181 49.4185C83.3574 53.4934 85.9936 55.2333 92.0736 59.1794C92.3515 59.3617 92.6099 58.9166 92.3327 58.7373ZM114.629 59.1335C114.874 59.3595 115.239 58.9927 114.992 58.7697C109.059 53.3571 105.511 45.8142 105.125 37.7919C105.111 37.462 104.598 37.4605 104.612 37.7919C104.997 45.9506 108.599 53.6245 114.629 59.1335ZM118.679 56.8603C118.888 57.1171 119.25 56.7518 119.043 56.4972C114.751 51.1992 111.764 44.9665 110.324 38.3018C110.253 37.9779 109.758 38.115 109.828 38.4381C111.292 45.1884 114.324 51.4992 118.679 56.8603ZM103.944 111.325C103.823 110.766 103.566 110.245 103.195 109.809C102.824 109.373 102.35 109.036 101.817 108.828C102.067 108.453 102.204 108.013 102.211 107.563C102.218 107.112 102.095 106.669 101.856 106.286C101.203 105.514 100.278 105.021 99.2728 104.908C96.2658 104.023 93.0944 103.848 90.0083 104.397C91.1599 102.119 91.7482 99.4178 90.2267 97.1543C86.6535 91.8366 78.4012 94.6514 78.4765 94.6356C77.8981 94.8141 78.9676 96.1902 78.1986 100.206C77.3369 105.193 68.818 107.902 69.4613 116.244C69.4694 116.877 69.6192 117.499 69.8997 118.067C70.976 119.596 74.2593 119.706 75.9706 119.535C83.8628 118.955 86.2083 117.447 94.566 116.74C99.0476 116.584 104.685 115.716 103.944 111.325ZM102.752 114.089C99.8084 116.717 95.4111 115.506 86.2422 117.433C82.0001 118.277 73.54 120.194 70.6401 118.161C70.1831 117.63 69.9465 116.944 69.9787 116.245C69.5449 110.776 73.6251 107.451 77.0055 103.755C79.0497 101.787 79.2034 97.7343 78.8305 95.0815C81.4329 94.4654 84.2635 93.9517 86.8094 95.0416C90.937 96.8086 91.642 100.825 89.3033 104.636C89.2867 104.666 89.2762 104.699 89.2725 104.733C89.2687 104.767 89.2717 104.801 89.2813 104.834C89.2909 104.867 89.3069 104.897 89.3284 104.924C89.3499 104.95 89.3764 104.972 89.4065 104.989C89.8049 105.21 91.5373 103.853 97.9743 105.164C99.5011 105.476 101.334 105.658 101.703 107.192C101.745 107.732 101.603 108.271 101.3 108.72C100.275 107.59 93.391 107.839 89.5496 108.558C84.6823 109.433 86.5201 110.592 89.2362 105.758C89.2675 105.7 89.2749 105.631 89.2567 105.567C89.2386 105.503 89.1964 105.448 89.1389 105.415C89.0815 105.381 89.0132 105.371 88.9485 105.387C88.8838 105.402 88.8277 105.442 88.7918 105.498C87.125 108.467 84.5936 110.858 81.5346 112.353C81.2439 112.512 81.5037 112.955 81.7937 112.796C83.295 111.98 84.6927 110.987 85.9567 109.838C86.0321 109.857 96.3134 107.191 100.981 109.12C101.075 109.168 103.19 110.232 103.411 111.285C103.532 111.77 103.536 112.278 103.421 112.766C103.307 113.253 103.078 113.706 102.753 114.087L102.752 114.089Z" fill="black"/>
<path id="Vector_15" d="M33.7019 86.9213L29.2323 89.5297C30.1149 87.9056 30.9146 86.2379 31.6283 84.5329C31.6418 84.505 31.6488 84.4744 31.6487 84.4434C31.6487 84.4125 31.6417 84.3819 31.6283 84.354C31.6148 84.3262 31.5952 84.3017 31.571 84.2824C31.5467 84.2632 31.5184 84.2497 31.4882 84.2429C31.5967 84.0629 31.4656 83.7706 31.2171 83.858C29.0372 84.6227 26.8933 85.4804 24.7853 86.431C24.4841 86.5665 24.7447 87.0094 25.0452 86.8746C27.0327 85.9793 29.0551 85.1681 31.1124 84.441C28.7947 89.9643 27.7621 90.429 28.2878 90.7145C28.3452 90.7455 28.4123 90.7535 28.4754 90.7368C28.5385 90.7202 28.5929 90.6802 28.6275 90.6249C28.6712 90.5495 28.7126 90.4697 28.7555 90.3929C28.8309 90.3756 34.1659 87.2377 33.961 87.365C34.0199 87.3306 34.0626 87.2743 34.0799 87.2084C34.0972 87.1425 34.0876 87.0724 34.0533 87.0136C34.0189 86.9547 33.9626 86.912 33.8967 86.8947C33.8308 86.8774 33.7607 86.8869 33.7019 86.9213ZM31.7194 68.6686C31.7509 68.6374 31.79 68.6149 31.8328 68.6034C31.8756 68.5919 31.9206 68.5918 31.9635 68.6031C32.0284 68.5831 32.0827 68.5382 32.1145 68.4781C32.1463 68.4181 32.1529 68.3479 32.133 68.283C32.113 68.218 32.068 68.1637 32.008 68.1319C31.948 68.1002 31.8778 68.0935 31.8128 68.1135C24.5217 69.9077 22.9844 70.6127 21.423 70.1622C20.7549 69.8572 20.2691 70.5389 20.7293 70.7648C20.763 70.7809 20.7998 70.7898 20.8372 70.7908C20.8746 70.7919 20.9118 70.7851 20.9464 70.7709C20.9811 70.7567 21.0123 70.7355 21.0382 70.7085C21.0641 70.6815 21.0841 70.6494 21.0968 70.6142C22.9972 71.1716 24.1022 70.6315 31.7194 68.6686Z" fill="#B26EE6"/>
<path id="Vector_16" d="M26.473 101.352C25.0904 100.958 23.6159 101.034 22.2814 101.569C22.1307 101.735 22.2414 102.229 22.2535 102.44C22.3973 104.98 23.0188 107.47 24.0853 109.78C26.5506 108.012 30.4809 109.943 32.6087 112.171C36.4222 113.288 34.9136 113.369 36.7454 111.715L37.4639 111.037C30.9215 111.231 25.6957 107.91 26.473 101.352ZM86.5616 20.5095C86.3522 20.9456 80.4349 24.5015 74.5855 22.0701C72.0245 21.0089 70.1023 18.0517 71.5327 15.423C71.6901 15.1315 72.1352 15.3914 71.9763 15.6829C70.5128 18.2649 72.6806 22.7631 79.1725 22.6426C83.0508 22.5635 86.4125 20.7528 86.2159 20.1924C86.252 18.1738 86.2046 16.055 86.3454 14.0401C86.8727 6.23377 88.6954 10.1008 83.9351 9.81532C81.4653 9.66467 77.3934 8.34956 77.2036 6.11853C75.0344 8.94836 72.6904 11.672 71.0951 14.8814C71.0718 14.9196 71.0394 14.9513 71.0007 14.9735C70.962 14.9958 70.9183 15.0079 70.8736 15.0087C66.0907 15.1526 63.9704 20.7 66.9335 23.8342C69.1887 26.2196 72.3959 26.847 75.6098 27.308C85.9944 28.8664 89.2611 23.0832 86.5616 20.5095Z" fill="#FFD35C"/>
<path id="Vector_17" d="M77.2042 6.11836C77.4414 9.01975 85.5649 11.4368 87.8298 8.48723C88.5785 7.53215 88.3412 5.95416 86.0063 5.13918C84.0332 4.48956 82.0026 4.02977 79.9421 3.76607C78.5811 3.66966 77.0784 4.56975 77.2042 6.11836ZM84.945 5.37117C90.979 7.03879 86.0748 11.4534 79.6725 8.16636C76.3809 6.44978 77.858 4.13439 79.8111 4.28353C81.5841 4.30236 82.7027 4.75203 84.9457 5.37117H84.945ZM71.9746 15.6827C72.132 15.3912 71.6884 15.1313 71.531 15.4228C71.1936 16.043 71.0176 16.738 71.0191 17.444C71.0205 18.15 71.1994 18.8443 71.5392 19.4631C73.9864 24.1963 81.783 24.1986 86.4733 20.6359C86.7218 20.4453 86.4815 19.9881 86.2142 20.1922C84.1869 21.7375 81.7195 22.5958 79.1708 22.6424C72.7843 22.7622 70.484 18.3107 71.9746 15.6827Z" fill="black"/>
<path id="Vector_18" d="M31.7343 68.6566C28.6042 71.2851 25.7041 74.1759 23.0656 77.2975C22.8531 77.5483 23.2162 77.9144 23.4286 77.6613C26.0675 74.5395 28.9678 71.6485 32.0981 69.0197C32.358 68.802 31.9693 68.4517 31.7343 68.6566ZM31.668 75.2947C22.6874 78.3415 22.3862 77.9596 22.5413 78.4492C22.561 78.5111 22.6034 78.5634 22.6599 78.5955C22.7165 78.6276 22.783 78.6372 22.8464 78.6224C25.8517 77.7412 28.8377 76.7974 31.8044 75.7911C32.1162 75.6849 31.9829 75.1885 31.668 75.2947Z" fill="#B26EE6"/>
<path id="Vector_19" d="M42.5248 97.2583L41.9004 98.6366C41.7649 98.9379 42.2077 99.1978 42.3448 98.8965L42.9685 97.5181C43.1041 97.2191 42.6612 96.9577 42.5248 97.2583ZM40.0189 111.395H40.8753C40.9411 111.392 41.0031 111.363 41.0484 111.315C41.0937 111.267 41.119 111.204 41.119 111.138C41.119 111.072 41.0937 111.009 41.0484 110.961C41.0031 110.913 40.9411 110.884 40.8753 110.881C40.3978 110.934 39.7575 110.725 39.7711 111.147C39.7733 111.212 39.8001 111.274 39.8461 111.32C39.8921 111.366 39.9538 111.393 40.0189 111.395ZM42.9888 112.237C43.0505 112.216 43.1017 112.172 43.132 112.114C43.1624 112.056 43.1696 111.989 43.1523 111.926C43.135 111.863 43.0944 111.809 43.0387 111.775C42.983 111.741 42.9165 111.729 42.8525 111.742L41.908 112.006C41.846 112.028 41.7944 112.072 41.7638 112.13C41.7333 112.188 41.726 112.255 41.7435 112.318C41.761 112.382 41.8019 112.436 41.8579 112.47C41.914 112.504 41.9809 112.515 42.045 112.502C42.3591 112.414 42.6755 112.33 42.9888 112.237ZM44.371 112.79C44.1946 112.87 44.0261 112.967 43.8678 113.079C43.5997 113.269 43.8558 113.714 44.1277 113.522C44.2859 113.411 44.4543 113.314 44.6308 113.234C44.9314 113.098 44.67 112.655 44.371 112.79ZM60.5975 115.363C60.7813 115.54 60.8956 115.777 60.9196 116.031C60.9437 116.285 60.8759 116.54 60.7286 116.748C60.5418 117.022 60.9877 117.279 61.173 117.008C61.3771 116.701 61.4676 116.333 61.4289 115.967C61.3903 115.6 61.2249 115.259 60.9613 115.001C60.7233 114.769 60.3595 115.132 60.5975 115.363ZM79.8196 112.623C79.1746 113.12 78.4802 113.549 77.7475 113.904C77.4507 114.047 77.7106 114.491 78.0066 114.348C78.7392 113.993 79.4335 113.564 80.0787 113.068C80.3371 112.868 80.0817 112.42 79.8196 112.623Z" fill="black"/>
<path id="Vector_20" d="M100.443 17.9479C89.2956 23.8177 88.4099 22.1953 88.3119 23.0509C87.7146 28.2775 80.3007 28.9117 75.7769 28.4266C75.1623 29.8502 74.5025 30.9522 73.8939 32.3787C73.8654 32.4278 73.8215 32.466 73.7691 32.4874C73.7166 32.5088 73.6585 32.5122 73.6039 32.497C71.7653 31.8387 71.2644 32.0338 71.2599 31.7076C71.1718 25.5041 74.5846 29.5534 68.4828 26.2468C66.129 24.9663 66.3557 24.7645 65.3584 24.8157C56.4856 25.3023 48.0646 22.7293 39.8756 19.2803C37.2147 37.3346 41.1453 55.7432 50.9479 71.1362C72.4899 79.5128 81.4313 69.1101 110.106 66.9981C102.061 51.9792 98.6956 34.896 100.443 17.9479ZM44.1004 35.6688C44.2842 35.0858 45.2559 36.1719 49.9002 36.5214C50.2286 36.5463 50.2301 37.06 49.9002 37.0359C47.9902 36.894 46.1015 36.5437 44.2676 35.9912C44.2354 35.9811 44.2056 35.9647 44.1797 35.943C44.1538 35.9213 44.1325 35.8947 44.117 35.8647C44.1015 35.8348 44.092 35.8021 44.0892 35.7684C44.0863 35.7348 44.0901 35.7009 44.1004 35.6688ZM45.1662 49.885C44.8544 49.7773 44.9892 49.2824 45.3026 49.3894C47.4781 50.1465 49.8087 50.3466 52.0815 49.9716C52.4061 49.9174 52.5432 50.413 52.2178 50.468C49.8555 50.8658 47.4312 50.6653 45.1662 49.885ZM55.7994 60.7607L51.1031 61.4785C50.7792 61.5282 50.6406 61.0326 50.9667 60.9829L55.6623 60.2651C55.9862 60.2154 56.1248 60.7095 55.7994 60.7607ZM92.0735 59.1789C87.1023 55.9544 82.049 52.6485 77.1809 49.418L66.9635 63.0512C66.7677 63.3133 66.3211 63.0565 66.5199 62.7914L76.7531 49.1378C75.2994 48.1775 70.0359 44.7435 59.219 37.463C58.9463 37.2799 59.2032 36.8333 59.4788 37.0193C65.3189 40.9531 71.1792 44.8565 77.0597 48.7296L90.2665 31.1081C90.4631 30.846 90.9083 31.102 90.7102 31.3672L77.4807 49.0188C80.956 51.3139 84.7116 53.7882 92.3326 58.7353C92.609 58.9168 92.3507 59.362 92.0735 59.1812V59.1789ZM36.9961 18.906C36.284 22.1403 35.7169 25.402 35.2946 28.691C35.2524 29.0186 35.7668 29.0156 35.809 28.691C36.2263 25.4512 36.7869 22.2344 37.4909 19.0408C37.5625 18.7184 37.0669 18.5806 36.9961 18.906ZM36.9999 42.2142C36.9886 41.8843 36.4726 41.8828 36.4862 42.2142C36.6096 45.5717 37.0693 48.9083 37.8585 52.174C37.9338 52.4956 38.4317 52.3586 38.3541 52.0377C37.5754 48.8167 37.1217 45.5258 36.9999 42.2142ZM43.3427 62.7552C43.2199 62.4539 42.7228 62.5842 42.8463 62.8915C43.9305 65.583 45.337 68.1332 47.0349 70.4862C47.2278 70.7513 47.6737 70.496 47.4793 70.2264C45.8035 67.9124 44.4145 65.4037 43.3427 62.7552ZM62.2379 75.9681C59.5131 76.3297 56.7436 76.1435 54.0918 75.4205C54.0278 75.4075 53.9613 75.4193 53.9056 75.4534C53.85 75.4876 53.8094 75.5417 53.7921 75.6046C53.7747 75.6676 53.782 75.7348 53.8123 75.7926C53.8427 75.8505 53.8938 75.8946 53.9555 75.9161C56.6478 76.6792 59.4698 76.8719 62.2409 76.4818C62.5618 76.4389 62.5655 75.9244 62.2379 75.9681ZM85.9627 73.5337C83.5171 74.5311 80.9769 75.2783 78.3808 75.764C78.0562 75.8243 78.1932 76.3199 78.5179 76.2596C81.1138 75.7734 83.654 75.0262 86.0997 74.0293C86.4018 73.9058 86.2692 73.4087 85.9627 73.5337ZM106.73 69.1884C104.569 69.7443 102.427 70.377 100.275 70.9705C100.212 70.9908 100.159 71.0347 100.127 71.0932C100.096 71.1516 100.088 71.22 100.105 71.2841C100.123 71.3482 100.165 71.403 100.222 71.4371C100.279 71.4711 100.347 71.4818 100.412 71.4669L106.867 69.684C106.928 69.6625 106.98 69.6184 107.01 69.5605C107.04 69.5027 107.047 69.4355 107.03 69.3725C107.013 69.3096 106.972 69.2555 106.917 69.2213C106.861 69.1872 106.794 69.1754 106.73 69.1884Z" fill="#FEE992"/>
<path id="Vector_21" d="M110.453 63.2168C109.694 61.9052 109.062 60.5247 108.565 59.0937C108.458 58.7826 107.962 58.9167 108.069 59.2308C108.568 60.7092 109.218 62.132 110.009 63.4767C110.046 63.5309 110.102 63.5692 110.166 63.5837C110.229 63.5982 110.296 63.5879 110.353 63.5548C110.409 63.5217 110.451 63.4684 110.47 63.4056C110.488 63.3428 110.482 63.2753 110.453 63.2168ZM105.253 52.5505C105.374 52.8518 105.872 52.7222 105.748 52.4142C104.669 49.7014 104.008 46.8409 103.785 43.9299C103.761 43.6031 103.246 43.6 103.271 43.9299C103.493 46.8871 104.161 49.7935 105.253 52.5505ZM102.982 28.5146C102.662 25.6678 102.566 22.8003 102.696 19.9385C102.711 19.6078 102.197 19.6086 102.183 19.9385C102.052 22.8003 102.147 25.6678 102.467 28.5146C102.503 28.8393 103.019 28.8438 102.982 28.5146ZM90.8926 19.3156C93.4004 18.8123 95.8043 17.8862 98.0015 16.5769C98.0565 16.5406 98.0955 16.4847 98.1105 16.4206C98.1255 16.3564 98.1154 16.289 98.0822 16.2321C98.049 16.1752 97.9953 16.1332 97.9321 16.1146C97.8689 16.0961 97.801 16.1025 97.7424 16.1325C95.5728 17.397 93.214 18.3044 90.7563 18.82C90.4324 18.8878 90.5703 19.3841 90.8926 19.3156ZM44.7408 17.5968C47.2202 18.8182 49.8153 19.7889 52.4876 20.4944C52.5516 20.5074 52.6182 20.4956 52.6739 20.4615C52.7295 20.4273 52.7701 20.3733 52.7874 20.3103C52.8047 20.2473 52.7975 20.1801 52.7672 20.1223C52.7368 20.0644 52.6856 20.0203 52.624 19.9988C50.0043 19.2755 47.4533 18.323 45.0007 17.1524C44.7054 17.007 44.444 17.4499 44.7408 17.5968Z" fill="#FEE992"/>
<path id="Vector_22" d="M84.946 5.37123C90.98 7.03885 86.0759 11.4535 79.6735 8.16642C76.382 6.44984 77.859 4.13445 79.8121 4.28359C81.5844 4.30242 82.7029 4.75209 84.946 5.37123Z" fill="#FFD35C"/>
</g>
</svg>
