<svg width="151" height="151" viewBox="0 0 151 151" fill="none" xmlns="http://www.w3.org/2000/svg">
<g id="Update-Sync-3--Streamline-Barcelona">
<path id="Vector" d="M146.245 83.3337L141.117 76.3409C140.527 75.6032 139.779 75.0066 138.93 74.5946C138.08 74.1825 137.149 73.9654 136.204 73.9592H79.2767C77.7866 73.8356 76.2985 74.2195 75.0542 75.0484C72.5128 77.1076 69.983 79.1809 67.4648 81.2684C64.4376 83.7766 66.9255 87.6572 71.6074 87.7461L141.205 89.0386C145.42 89.1147 148.185 85.9828 146.245 83.3337Z" fill="#FFD35C"/>
<path id="Vector_2" d="M135.951 38.9197C134.714 38.8165 132.589 38.7495 131.356 38.7103C129.436 38.6538 80.234 38.4324 79.892 38.4324C78.5016 45.8772 79.4981 61.3211 80.2106 68.8623C80.3545 68.8623 135.929 69.144 136.26 69.144C136.816 63.8421 136.181 44.0273 135.951 38.9197ZM123.667 55.3654C122.492 65.7726 110.195 70.7582 101.166 66.7473C98.4791 65.512 96.2297 63.4917 94.7141 60.9526C93.1985 58.4134 92.4877 55.4747 92.6756 52.5235C93.4966 43.445 103.558 37.4705 112.088 39.6963C119.123 41.5296 124.481 48.1571 123.667 55.3654Z" fill="#ACEAC7"/>
<path id="Vector_3" d="M106.033 63.4614C104.101 63.3944 102.222 62.81 100.592 61.769C98.9623 60.728 97.642 59.2687 96.7687 57.5434C95.8832 55.7239 95.5352 53.6896 95.7655 51.6792C95.9958 49.6689 96.7948 47.766 98.0688 46.1939C98.7366 45.3721 99.5615 44.6917 100.495 44.1926C101.429 43.6935 102.453 43.3857 103.508 43.2872C103.906 43.2631 103.91 42.6387 103.508 42.6636C97.4602 43.0402 93.2369 50.4217 95.8822 57.056C96.7163 59.0839 98.1199 60.8269 99.9233 62.0743C101.727 63.3216 103.853 64.02 106.045 64.085C106.436 64.0986 106.436 63.4727 106.033 63.4614Z" fill="#B26EE6"/>
<path id="Vector_4" d="M109.955 63.1949C109.624 62.8446 107.607 60.6866 106.923 59.956C106.649 59.6615 106.206 60.1067 106.48 60.3989C110.16 64.3239 110.185 64.2772 110.164 64.4565C110.131 64.7066 109.293 65.0033 108.892 65.1653C108.141 65.4662 107.373 65.7256 106.593 65.9426C106.554 65.9534 106.517 65.9719 106.484 65.9971C106.452 66.0222 106.425 66.0535 106.405 66.0892C106.384 66.1248 106.371 66.1641 106.366 66.2048C106.361 66.2455 106.364 66.2868 106.375 66.3264C106.385 66.3659 106.404 66.403 106.429 66.4354C106.454 66.4678 106.486 66.4949 106.521 66.5152C106.557 66.5356 106.596 66.5487 106.637 66.5538C106.678 66.5589 106.719 66.556 106.758 66.5452C107.662 66.2915 108.549 65.9823 109.415 65.6195C110.007 65.3694 111.034 65.0116 110.736 64.1658C110.542 63.7937 110.277 63.4637 109.955 63.1949ZM120.277 50.0023C119.443 47.9744 118.04 46.2314 116.237 44.984C114.434 43.7366 112.308 43.0382 110.116 42.9733C110.036 42.9772 109.961 43.0118 109.905 43.0699C109.85 43.1281 109.819 43.2052 109.819 43.2855C109.819 43.3657 109.85 43.4429 109.905 43.501C109.961 43.5591 110.036 43.5937 110.116 43.5977C112.049 43.6633 113.929 44.2472 115.559 45.2883C117.189 46.3294 118.509 47.7895 119.381 49.5157C120.266 51.3348 120.614 53.3687 120.385 55.3788C120.155 57.3888 119.357 59.2918 118.085 60.8644C117.417 61.6864 116.592 62.3668 115.658 62.8659C114.724 63.3651 113.699 63.6728 112.645 63.7711C112.246 63.7952 112.242 64.4196 112.645 64.3955C118.696 64.0159 122.92 56.6193 120.277 50.0023Z" fill="#B26EE6"/>
<path id="Vector_5" d="M106.199 43.8591L109.23 47.0979C109.504 47.3924 109.947 46.9473 109.673 46.655C105.993 42.73 105.969 42.7767 105.989 42.5974C106.023 42.3474 106.86 42.0506 107.262 41.8887C108.013 41.5876 108.78 41.3281 109.56 41.1113C109.64 41.0895 109.708 41.0367 109.749 40.9648C109.79 40.8928 109.801 40.8075 109.779 40.7276C109.757 40.6477 109.705 40.5797 109.633 40.5387C109.561 40.4977 109.475 40.4869 109.395 40.5088C108.491 40.7624 107.604 41.0715 106.738 41.4345C106.146 41.6845 105.119 42.0423 105.418 42.8882C105.611 43.2608 105.876 43.5909 106.199 43.8591Z" fill="#B26EE6"/>
<path id="Vector_6" d="M146.209 84.3302C125.34 86.2479 97.3301 82.9172 71.2982 84.0402C70.8997 84.056 70.8952 84.6805 71.2982 84.6639C97.6426 83.5273 125.173 86.9356 146.209 84.9501C146.608 84.9177 146.611 84.2933 146.209 84.3302ZM77.0226 79.3605C77.635 79.2799 78.2428 79.2098 78.8544 79.139C78.8685 79.1916 78.896 79.2396 78.9341 79.2784C78.9721 79.3172 79.0196 79.3456 79.0719 79.3607C79.1241 79.3759 79.1794 79.3773 79.2323 79.3649C79.2853 79.3524 79.3341 79.3265 79.3741 79.2897C79.4585 79.2091 79.5511 79.1323 79.6393 79.0517C81.9825 78.8106 84.3341 78.6532 86.6894 78.5606C86.5561 78.7255 86.416 78.8867 86.2864 79.0562C86.2657 79.0916 86.2522 79.1307 86.2467 79.1713C86.2412 79.2119 86.2438 79.2532 86.2543 79.2928C86.2648 79.3325 86.283 79.3696 86.3079 79.4022C86.3328 79.4347 86.3639 79.462 86.3994 79.4825C86.4715 79.5212 86.5557 79.531 86.6348 79.5101C86.714 79.4891 86.7822 79.4389 86.8257 79.3695C87.0472 79.0841 87.2776 78.8061 87.5141 78.5282C89.8777 78.4619 91.8768 78.4197 95.3084 78.4634C95.1435 78.6736 94.9785 78.8822 94.8136 79.0961C94.7573 79.1561 94.726 79.2353 94.726 79.3176C94.726 79.3998 94.7573 79.479 94.8136 79.539C94.8727 79.597 94.9522 79.6294 95.035 79.6294C95.1178 79.6294 95.1973 79.597 95.2565 79.539C95.5341 79.184 95.8118 78.831 96.0895 78.48C97.5877 78.5041 103.272 78.6698 104.613 78.718C104.584 78.7783 104.552 78.8423 104.528 78.9033C104.489 78.9754 104.479 79.0596 104.5 79.1388C104.521 79.218 104.571 79.2862 104.641 79.3296C104.712 79.371 104.798 79.3824 104.878 79.3612C104.958 79.34 105.026 79.288 105.068 79.2166C105.143 79.0562 105.225 78.8988 105.301 78.7376C107.672 78.8227 113.651 79.0155 114.265 79.0389C114.249 79.1511 114.237 79.2686 114.213 79.3808C114.193 79.4603 114.204 79.5442 114.245 79.6154C114.285 79.6866 114.351 79.7396 114.43 79.7635C114.509 79.7842 114.594 79.773 114.665 79.7324C114.737 79.6917 114.789 79.6248 114.812 79.5458C114.845 79.3853 114.864 79.2196 114.888 79.0547C118.064 79.13 121.548 79.1699 124.723 79.0871C124.755 79.176 124.798 79.2641 124.828 79.3522C124.957 79.7288 125.561 79.5661 125.427 79.1873C125.416 79.1473 125.396 79.1119 125.384 79.0705C127.654 79.0067 129.923 78.8794 132.191 78.6886C132.342 78.9703 132.492 79.252 132.638 79.5375C132.819 79.896 133.359 79.5827 133.178 79.2242C133.077 79.0268 132.972 78.8295 132.868 78.6321C134.235 78.5041 135.805 78.3308 137.369 78.1049C137.763 78.0484 137.595 77.4488 137.204 77.5023C135.657 77.72 134.107 77.8925 132.553 78.0341C132.32 77.6073 132.078 77.1857 131.829 76.7694C132.626 76.7898 134.748 76.8786 135.01 76.8945C135.413 76.9186 135.408 76.2919 135.01 76.2708C133.822 76.2023 132.634 76.1653 131.446 76.1382C131.195 75.7365 130.94 75.3391 130.682 74.9459C130.46 74.616 129.92 74.9263 130.142 75.26C130.331 75.5417 130.518 75.8317 130.698 76.1179C128.966 76.0772 124.413 76.0252 123.866 76.0215C123.801 75.9243 123.745 75.8272 123.681 75.7353C123.637 75.6659 123.569 75.6157 123.49 75.5947C123.411 75.5738 123.326 75.5836 123.254 75.6223C123.19 75.6623 123.142 75.724 123.118 75.7964C123.095 75.8688 123.099 75.947 123.128 76.017C117.82 75.997 112.511 75.9849 107.202 75.9808C107.306 75.8641 107.407 75.7435 107.52 75.6343C107.806 75.3526 107.363 74.9097 107.077 75.1914C106.824 75.4438 106.583 75.7071 106.353 75.9808C105.543 75.9846 99.9957 76.0011 98.0313 76.0124C98.0797 75.9482 98.1299 75.8854 98.182 75.8241C98.2384 75.7642 98.2698 75.685 98.2698 75.6027C98.2698 75.5204 98.2384 75.4412 98.182 75.3813C98.1231 75.323 98.0437 75.2903 97.9609 75.2903C97.8781 75.2903 97.7986 75.323 97.7398 75.3813C97.5741 75.5906 97.4091 75.8038 97.2442 76.0124C97.0356 76.0124 89.9531 76.0576 89.9531 76.0576C90.118 75.9123 90.2792 75.7563 90.4487 75.6185C90.7545 75.3602 90.3116 74.9218 90.0058 75.1756C89.6652 75.4621 89.3321 75.7574 89.007 76.0614C87.5006 76.0735 83.782 76.1058 83.4332 76.1058C83.5289 76.0456 83.6215 75.977 83.7187 75.9168C84.0569 75.7029 83.7428 75.1636 83.4046 75.3767C83.028 75.6147 82.6597 75.8603 82.2974 76.1179C81.7295 76.1179 78.706 76.1495 78.706 76.1495C78.6259 76.1535 78.5503 76.1881 78.495 76.2462C78.4397 76.3043 78.4088 76.3815 78.4088 76.4617C78.4088 76.542 78.4397 76.6192 78.495 76.6773C78.5503 76.7354 78.6259 76.77 78.706 76.7739C79.1211 76.7694 80.9446 76.7536 81.4395 76.7498C80.7278 77.2867 80.0414 77.8563 79.3824 78.4566C79.3824 78.4566 77.5145 78.6705 77.0354 78.73C76.6279 78.7865 76.6242 79.4125 77.0226 79.3605ZM131.083 76.7476C131.353 77.19 131.614 77.6366 131.864 78.0876C128.79 78.3444 126.785 78.3888 125.145 78.4499C124.892 77.8261 124.593 77.2219 124.252 76.6421C128.743 76.6813 130.808 76.7416 131.083 76.7476ZM123.517 76.6346C123.885 77.2181 124.208 77.829 124.483 78.4619C121.306 78.5372 118.13 78.5071 114.953 78.4295C114.999 77.8192 114.984 77.2059 114.909 76.5984C117.061 76.6022 119.209 76.5947 123.517 76.6346ZM106.645 76.6C107.639 76.5962 112.736 76.5924 114.291 76.5962C114.371 77.1994 114.387 77.8094 114.339 78.416C114.142 78.4114 108.326 78.2284 105.612 78.132C105.913 77.5942 106.258 77.0825 106.644 76.6022L106.645 76.6ZM97.5312 76.6384C99.0572 76.6308 104.605 76.6067 105.853 76.6067C105.502 77.0821 105.187 77.5826 104.91 78.1041C103.931 78.068 98.371 77.894 96.567 77.8623C96.8872 77.4518 97.2111 77.0451 97.5289 76.6384H97.5312ZM89.2556 76.6843L96.7403 76.6406C96.4262 77.0428 96.1076 77.4458 95.7943 77.8458C92.4733 77.7961 90.2363 77.8307 88.0806 77.8917C88.4565 77.474 88.8487 77.0712 89.2563 76.6843H89.2556ZM82.4842 76.7431C82.7779 76.7385 86.7022 76.7069 88.366 76.6949C87.9708 77.0872 87.5908 77.4948 87.2272 77.9166C84.957 77.9972 82.6853 78.138 80.4189 78.3557C81.0827 77.7843 81.7704 77.2467 82.4819 76.7431H82.4842Z" fill="black"/>
<path id="Vector_7" d="M55.6383 25.0558L7.84821 30.8955C10.846 104.635 10.6449 101.229 10.6984 101.229C10.7647 101.213 57.3157 91.9429 57.5529 91.8969C56.68 54.7807 55.6496 25.3269 55.6383 25.0558ZM31.9361 71.4652C25.7597 71.0464 19.9509 66.4488 18.3526 60.4215C15.8805 51.1095 23.7004 41.5324 32.9793 40.6541C41.053 39.8889 49.1644 45.0228 50.4192 53.3684C51.9001 63.6988 41.7279 72.1288 31.9361 71.4652Z" fill="#ACEAC7"/>
<path id="Vector_8" d="M41.864 44.6242C40.8422 44.0057 39.7036 43.6052 38.5196 43.4478C37.3357 43.2905 36.132 43.3797 34.9841 43.7098C34.6015 43.8311 34.7664 44.4344 35.1491 44.3124C38.6071 43.2051 42.9682 44.9195 45.2504 48.9379C46.0012 50.2445 46.4652 51.6959 46.6115 53.1958C46.7578 54.6956 46.5831 56.2093 46.099 57.6364C45.6149 59.0634 44.8325 60.3711 43.8039 61.4723C42.7752 62.5736 41.5239 63.4432 40.1331 64.0233C40.0617 64.065 40.0098 64.1332 39.9886 64.2131C39.9674 64.293 39.9788 64.378 40.0201 64.4496C40.0635 64.5193 40.1319 64.5698 40.2113 64.5907C40.2906 64.6117 40.375 64.6017 40.4472 64.5626C42.3073 63.7552 43.9187 62.4666 45.1152 60.8295C46.3118 59.1923 47.0503 57.2658 47.2548 55.2483C47.4361 53.151 47.0274 51.0447 46.0748 49.1673C45.1222 47.29 43.6637 45.7164 41.864 44.6242Z" fill="#B26EE6"/>
<path id="Vector_9" d="M40.598 66.5175C39.4023 66.6404 38.1983 66.6605 36.9991 66.5777C36.8824 66.5574 36.7257 66.525 36.6851 66.3962C36.6391 66.2546 36.5344 66.6041 38.6577 61.2743C38.8084 60.8977 38.2058 60.7388 38.0551 61.1094C37.7004 62.0035 36.6579 64.6164 36.493 65.0306C36.2779 65.4303 36.131 65.8631 36.0584 66.3111C36.0343 67.215 37.073 67.2248 37.7155 67.2451C38.6761 67.2724 39.6374 67.2375 40.5935 67.1404C40.9942 67.1012 40.998 66.4776 40.598 66.5175ZM32.6968 67.1118C29.2568 68.2069 24.8927 66.5325 22.5961 62.487C21.8454 61.1805 21.3814 59.7291 21.2351 58.2293C21.0888 56.7296 21.2635 55.2158 21.7476 53.7888C22.2317 52.3618 23.0141 51.0543 24.0428 49.9531C25.0714 48.8519 26.3227 47.9824 27.7135 47.4024C27.7849 47.3605 27.8369 47.2921 27.8579 47.212C27.879 47.132 27.8674 47.0468 27.8257 46.9753C27.7824 46.9057 27.7142 46.8552 27.635 46.8342C27.5557 46.8132 27.4715 46.8233 27.3994 46.8623C25.4923 47.6662 23.845 48.9825 22.6401 50.6652C21.4352 52.3479 20.7198 54.3314 20.573 56.3958C20.4262 58.4602 20.8538 60.5249 21.8085 62.3612C22.7632 64.1974 24.2077 65.7335 25.9818 66.7992C27.0037 67.4176 28.1423 67.8181 29.3262 67.9755C30.5101 68.133 31.7138 68.0441 32.8617 67.7143C33.2398 67.5923 33.0787 66.9913 32.6968 67.1118Z" fill="#B26EE6"/>
<path id="Vector_10" d="M27.2498 44.906C28.4455 44.7831 29.6496 44.7629 30.8487 44.8457C30.9655 44.8653 31.1229 44.8977 31.1628 45.0265C31.2087 45.1681 31.318 44.8186 29.1901 50.1483C29.0395 50.525 29.6421 50.6839 29.7927 50.3141C30.1475 49.42 31.1899 46.8071 31.3549 46.3921C31.5704 45.9925 31.7176 45.5597 31.7902 45.1116C31.8143 44.2077 30.7756 44.1972 30.1331 44.1776C29.1725 44.1495 28.2111 44.1845 27.2551 44.2823C26.8514 44.3222 26.8469 44.9459 27.2498 44.906Z" fill="#B26EE6"/>
<path id="Vector_11" d="M56.19 23.3429C56.1458 22.3075 55.8887 21.2924 55.4349 20.3607C54.9811 19.4291 54.3403 18.6009 53.5523 17.9278C52.7644 17.2547 51.8463 16.7511 50.8552 16.4484C49.8641 16.1457 48.8212 16.0505 47.7917 16.1685C37.862 17.037 24.0134 18.4711 14.1606 20.2667C12.7132 20.4488 11.3317 20.9794 10.1346 21.8131C9.04429 22.6333 8.19461 23.7317 7.67462 24.9932C7.01405 26.5915 7.11875 28.1778 7.18353 29.8364C7.26412 31.8813 10.2875 107.163 10.3033 107.424C10.3816 108.668 10.7635 109.873 11.4156 110.934C12.0677 111.996 12.9701 112.881 14.0438 113.513C11.5929 112.915 9.51097 111.807 8.31938 109.555C8.13032 109.2 7.59478 109.514 7.78008 109.869C9.15695 112.474 11.9981 113.886 14.8257 114.285C15.0804 114.326 15.3371 114.353 15.5947 114.366C15.6403 114.37 15.6861 114.362 15.7277 114.343C15.7692 114.323 15.8051 114.294 15.832 114.257C16.8118 114.529 17.8367 114.601 18.8448 114.466C20.2179 114.282 21.5828 114.027 22.9476 113.798C31.5184 112.359 41.0813 110.511 49.5309 108.435C51.2306 108.148 52.8867 107.645 54.4591 106.938C55.6604 106.266 56.6575 105.282 57.345 104.09C58.0324 102.898 58.3844 101.542 58.3638 100.166C57.7477 72.2394 56.4853 29.0048 56.19 23.3429ZM10.6769 101.232C10.6205 99.8147 7.77631 29.2436 7.74392 28.4143C7.6771 27.3444 7.83913 26.2726 8.2192 25.2704C8.76673 23.905 9.73395 22.7489 10.9812 21.969C12.2721 21.2829 13.6849 20.8563 15.1398 20.7134C21.6739 19.5625 28.2683 18.7648 34.8627 18.0485C37.9908 17.7103 46.8969 16.8283 48.2248 16.7522C49.6488 16.6653 51.0649 17.0196 52.2803 17.7667C53.4957 18.5138 54.4511 19.6175 55.0165 20.9273C55.4439 22.1003 55.6483 23.3429 55.6191 24.591C55.6274 24.7416 57.4554 88.3055 57.5398 91.9006C53.1922 92.7412 10.7583 101.232 10.6769 101.232ZM52.8955 106.929C50.8678 107.563 43.8403 109.131 42.0574 109.521C35.3297 110.983 28.5583 112.239 21.7665 113.363C20.4059 113.675 19.0189 113.858 17.6239 113.91C15.866 113.856 14.1945 113.135 12.9483 111.894C11.7021 110.653 10.9744 108.985 10.9127 107.227C10.8645 106.184 10.7274 102.593 10.6995 101.845C10.8502 101.845 57.4148 92.5604 57.5616 92.5281C57.5812 93.3897 57.698 98.4785 57.7341 100.161C57.7592 101.659 57.3025 103.125 56.4314 104.344C55.5602 105.562 54.3207 106.469 52.8955 106.93V106.929Z" fill="black"/>
<path id="Vector_12" d="M7.92547 108.291C7.31913 94.2484 4.34317 28.4339 4.41473 27.1157C4.58495 24.1255 5.56564 20.8512 8.54536 20.6019C8.94381 20.5695 8.94381 19.9459 8.54536 19.9783C4.65199 20.3037 3.6939 24.9661 3.77073 28.1748C3.77073 28.299 7.31084 108.251 7.31084 108.283C7.31762 108.693 7.94279 108.693 7.92547 108.291ZM35.5391 99.3891C31.5938 99.9593 31.5712 105.994 34.7543 107.292C35.4682 107.569 36.2557 107.591 36.9844 107.356C37.7131 107.121 38.3387 106.642 38.7561 106C39.1789 105.374 39.4437 104.656 39.5278 103.905C39.6119 103.155 39.5127 102.395 39.2389 101.692C38.9695 100.949 38.4583 100.318 37.7873 99.9004C37.1164 99.4828 36.3246 99.3028 35.5391 99.3891ZM38.4895 105.224C37.0749 108.011 33.217 107.265 33.0829 103.502C33.0076 99.7717 36.9612 98.8317 38.4654 101.521C38.7683 102.09 38.9287 102.725 38.9329 103.37C38.9371 104.015 38.785 104.651 38.4895 105.224Z" fill="black"/>
<path id="Vector_13" d="M25.4541 90.3936C23.5259 90.3936 23.5711 93.3884 25.4541 93.3884C25.8513 93.3884 26.2321 93.2306 26.5129 92.9498C26.7938 92.669 26.9515 92.2881 26.9515 91.891C26.9515 91.4938 26.7938 91.113 26.5129 90.8322C26.2321 90.5513 25.8513 90.3936 25.4541 90.3936ZM35.273 88.7162C33.3448 88.7162 33.39 91.7117 35.273 91.7117C35.4726 91.7162 35.671 91.6807 35.8566 91.6075C36.0422 91.5342 36.2114 91.4246 36.354 91.2851C36.4967 91.1456 36.6101 90.9789 36.6875 90.795C36.7649 90.6111 36.8048 90.4135 36.8048 90.2139C36.8048 90.0144 36.7649 89.8168 36.6875 89.6329C36.6101 89.4489 36.4967 89.2823 36.354 89.1428C36.2114 89.0033 36.0422 88.8936 35.8566 88.8204C35.671 88.7471 35.4726 88.7117 35.273 88.7162ZM44.0134 87.3995C42.0851 87.3995 42.1303 90.3951 44.0134 90.3951C44.2129 90.3996 44.4113 90.3641 44.5969 90.2909C44.7826 90.2176 44.9517 90.108 45.0944 89.9685C45.2371 89.829 45.3504 89.6623 45.4278 89.4784C45.5052 89.2944 45.5451 89.0969 45.5451 88.8973C45.5451 88.6977 45.5052 88.5002 45.4278 88.3162C45.3504 88.1323 45.2371 87.9657 45.0944 87.8262C44.9517 87.6866 44.7826 87.577 44.5969 87.5038C44.4113 87.4305 44.2129 87.3951 44.0134 87.3995Z" fill="#DCBEFF"/>
<path id="Vector_14" d="M66.072 128.601C61.1008 128.654 56.0234 128.902 51.2683 130.477C47.0172 131.89 54.364 133.779 55.4155 133.911C58.0036 134.237 60.6007 134.212 63.197 134.347C68.9321 134.665 74.6835 134.523 80.396 133.923C82.5742 133.686 86.0933 133.904 87.8844 132.45C92.2516 128.881 71.7445 128.538 66.072 128.601Z" fill="#FCAFB7"/>
<path id="Vector_15" d="M76.7938 63.9081C75.1478 64.2397 73.4378 63.9953 71.9506 63.2159C70.4833 63.2295 69.0377 63.5704 67.719 64.214L66.306 65.0553L66.9522 66.1708C70.7379 63.9202 74.2901 64.0437 78.4584 65.9893L78.7664 64.6207C78.1258 64.3388 77.4667 64.1007 76.7938 63.9081Z" fill="#F55555"/>
<path id="Vector_16" d="M80.7785 89.6826L80.5329 89.7956C80.5329 89.7956 72.1994 92.3317 64.1957 90.4961C55.2557 114.737 59.8541 127.151 59.6764 126.633C62.4633 127.808 66.5404 126.17 66.5404 126.17C64.5821 109.416 69.8486 99.967 71.6834 97.2509C72.4268 96.1512 72.3387 96.9835 72.3741 97.3699L75.0917 126.369C77.3015 126.809 79.5884 126.656 81.72 125.926C82.0107 115.748 82.0454 99.7403 80.7785 89.6826Z" fill="#7D4AB4"/>
<path id="Vector_17" d="M89.7834 74.561C87.462 71.512 84.2759 69.2795 81.0069 67.3505C80.1774 66.8593 79.3264 66.4051 78.4565 65.9894C70.2186 62.148 66.2002 66.528 61.2832 70.5757C58.4617 72.9024 55.6341 76.011 54.6007 79.5895C54.464 80.062 54.4588 80.5629 54.5857 81.0382C54.7126 81.5135 54.9667 81.9452 55.3207 82.2868C57.072 83.9717 61.2064 88.5934 61.4429 90.9646L62.9101 90.4192C62.875 90.3926 62.8461 90.3585 62.8255 90.3195C62.8049 90.2804 62.7932 90.2373 62.7911 90.1933C62.6633 87.6736 62.693 85.1484 62.88 82.6325C62.5274 82.1829 62.1655 81.7407 61.7946 81.3061C61.3713 80.8106 61.1374 80.1811 61.1345 79.5295C61.1316 78.8779 61.3599 78.2463 61.7788 77.7471C62.3913 77.0327 63.0815 76.3887 63.8366 75.8272C64.2865 73.5536 64.9815 71.3355 65.9095 69.2117C66.0902 68.8539 66.6258 69.168 66.4495 69.5265C66.3742 69.6772 66.2145 70.0432 66.207 70.0779C65.2701 72.4431 64.5847 74.9003 64.162 77.4089C63.4291 81.625 63.1806 85.911 63.4216 90.1835C63.4226 90.2203 63.4169 90.2571 63.405 90.2919C63.6709 90.3673 63.9323 90.429 64.1989 90.4893C72.1981 92.3256 80.5354 89.7888 80.5354 89.7888L81.9447 89.1365C81.9211 89.1097 81.9032 89.0784 81.892 89.0445C81.8809 89.0106 81.8768 88.9747 81.8799 88.9392C82.1676 83.6011 81.7609 77.6688 79.7626 72.687C79.4177 71.7406 78.9581 70.8401 78.394 70.0056C78.156 69.6832 78.6953 69.3691 78.9333 69.6907C79.7806 71.033 80.4429 72.4835 80.9022 74.0029C81.8022 74.4534 82.6466 75.0075 83.418 75.6539C83.9128 76.0773 84.2411 76.6627 84.3445 77.3057C84.4478 77.9487 84.3194 78.6075 83.9821 79.1647C83.4213 80.0816 82.9015 81.023 82.4245 81.9862C82.6059 84.2917 82.6325 86.6068 82.5043 88.9158C82.8628 88.8879 85.9104 88.6386 85.9104 88.6386C85.5722 88.6657 87.5373 83.8474 87.7015 83.5454C88.2411 82.5317 88.8329 81.5466 89.4746 80.5943C90.0591 79.7364 90.8597 78.9372 91.0172 77.8609C91.0503 76.6424 90.6078 75.4589 89.7834 74.561Z" fill="#F55555"/>
<path id="Vector_18" d="M84.7365 92.2753C84.4712 91.7812 84.3247 91.2322 84.3087 90.6717C84.2926 90.1112 84.4073 89.5547 84.6438 89.0462C84.6665 88.9985 84.6766 88.9457 84.673 88.8929C84.6694 88.8402 84.6524 88.7892 84.6235 88.7449C84.4457 88.7615 84.265 88.7736 84.0797 88.7901C83.7928 89.4191 83.662 90.108 83.6985 90.7983C83.735 91.4886 83.9376 92.1599 84.2891 92.7551C84.3644 92.8756 84.4021 92.9283 84.2891 93.033C84.1811 93.1056 84.0561 93.1489 83.9263 93.1588C83.7966 93.1687 83.6664 93.1448 83.5487 93.0895C83.3814 93.0189 83.2315 92.913 83.1091 92.7789C82.9868 92.6449 82.8949 92.4859 82.8399 92.3129C82.8423 92.0198 82.7763 91.7302 82.6471 91.4671C82.6114 91.4097 82.5582 91.3654 82.4953 91.3406C82.4325 91.3159 82.3633 91.3121 82.2981 91.3297C82.2329 91.3474 82.1752 91.3856 82.1334 91.4387C82.0917 91.4918 82.0681 91.557 82.0663 91.6245C82.0848 91.8937 82.1353 92.1597 82.217 92.4169C82.1765 92.6747 82.0505 92.9114 81.8592 93.089C81.668 93.2666 81.4226 93.3747 81.1625 93.3961C81.1783 93.5972 81.1986 93.8066 81.2144 94.0242C81.5012 94.0053 81.779 93.9162 82.0233 93.7648C82.2676 93.6134 82.4709 93.4042 82.6154 93.1558C83.3257 93.9896 84.518 93.9429 84.8977 93.2605C85.1018 92.8959 84.909 92.5939 84.7365 92.2753ZM60.2946 94.4129C60.4606 94.292 60.606 94.1453 60.7255 93.9783C60.6878 94.4234 60.6569 94.9575 60.971 95.2347C61.073 95.3179 61.1971 95.3694 61.328 95.3828C61.459 95.3962 61.591 95.3709 61.7077 95.31C61.954 95.1905 62.1648 95.0088 62.3193 94.7827C62.5332 94.4973 62.7343 94.2028 62.9316 93.909C63.1418 93.5942 62.9678 93.8525 63.7805 91.6305C63.4935 91.6087 63.6027 91.7232 62.6657 93.1844C62.5467 93.3689 62.189 93.9595 61.8696 94.3639C61.3235 95.0569 61.3333 94.7775 61.3333 94.2592C61.3464 93.7363 61.4655 93.2215 61.6835 92.746C61.719 92.6805 61.73 92.6044 61.7145 92.5315C61.6989 92.4585 61.6579 92.3936 61.5987 92.3482C61.5395 92.3028 61.4661 92.28 61.3917 92.2839C61.3172 92.2878 61.2466 92.3181 61.1924 92.3694C61.0011 92.6082 60.5756 93.2115 60.1492 93.7064C59.7666 94.1463 59.5791 93.8435 59.7952 93.3237C60.2043 92.448 60.8107 91.679 61.5668 91.0769C61.5973 91.0534 61.6225 91.0236 61.6405 90.9896C61.6586 90.9555 61.6692 90.918 61.6715 90.8796L61.4455 90.9662C61.4331 90.8318 61.4101 90.6986 61.377 90.5677C61.333 90.5612 61.2882 90.5642 61.2454 90.5764C61.2027 90.5886 61.1631 90.6098 61.1292 90.6385C60.3913 91.2422 59.7844 91.9901 59.3456 92.8364C59.174 93.1161 59.0847 93.4385 59.088 93.7666C59.0902 93.9062 59.1298 94.0426 59.2024 94.1618C59.2751 94.2809 59.3783 94.3785 59.5014 94.4444C59.6244 94.5103 59.7628 94.5421 59.9023 94.5366C60.0417 94.531 60.1772 94.4883 60.2946 94.4129ZM82.4979 88.946V88.922C82.815 83.071 82.223 75.697 79.4459 70.5593C79.2932 70.2603 79.1198 69.9724 78.9269 69.6976C78.6927 69.3798 78.1496 69.6901 78.3869 70.0117C78.952 70.8457 79.412 71.7463 79.7562 72.6932C81.7432 77.6689 82.1665 83.5515 81.8735 88.946C81.8554 89.3355 82.4716 89.3483 82.4979 88.946ZM63.4205 90.1896C63.1094 83.8408 63.7413 76.3922 66.0213 70.5435C66.1351 70.2557 66.3226 69.785 66.4484 69.5327C66.6254 69.1741 66.0899 68.8548 65.9091 69.2186C64.9827 71.3427 64.2875 73.5604 63.8355 75.8333C62.8781 80.5556 62.5283 85.3809 62.7945 90.1919C62.8443 90.6242 63.4544 90.5519 63.4205 90.1896ZM75.4162 127.784C75.4162 127.784 73.9911 131.906 74.7157 131.927C75.4403 131.947 82.107 132.201 82.751 131.267C83.395 130.333 81.5639 127.519 81.5639 127.519C81.5639 127.519 77.9003 127.821 75.4162 127.784ZM59.8721 128.658C59.7616 128.977 59.5771 129.266 59.3336 129.501C59.0901 129.735 58.7945 129.909 58.4711 130.007C57.7179 130.233 56.985 130.506 56.921 130.744C56.7801 131.235 57.388 132.547 59.1716 132.801C59.4427 132.836 66.5614 133.072 67.2031 132.14C67.8449 131.208 66.0153 128.393 66.0153 128.393C66.0153 128.393 62.3554 128.695 59.8721 128.658ZM73.8615 93.6205C73.7822 93.6002 73.6981 93.6115 73.6268 93.6519C73.5556 93.6924 73.5028 93.7589 73.4797 93.8374C73.1481 94.7012 72.6732 95.5028 72.0749 96.2086C72.0437 96.2396 72.0195 96.277 72.004 96.3182C71.9885 96.3594 71.982 96.4035 71.985 96.4474C71.988 96.4913 72.0004 96.5341 72.0214 96.5728C72.0424 96.6115 72.0714 96.6453 72.1066 96.6718C72.1664 96.7174 72.2404 96.7404 72.3155 96.7367C72.3907 96.7329 72.462 96.7028 72.5171 96.6515C73.2001 95.8757 73.7315 94.9786 74.0837 94.0069C74.1042 93.9263 74.0924 93.8408 74.0509 93.7687C74.0095 93.6966 73.9415 93.6434 73.8615 93.6205ZM139.96 56.2113C139.918 53.0583 139.416 35.5942 139.416 35.5942C139.414 35.5127 139.381 35.4349 139.323 35.3772C139.266 35.3194 139.188 35.286 139.107 35.2839C137.73 35.1709 136.348 35.1152 134.971 35.0625C132.963 34.9871 76.2492 34.7408 76.2492 34.7408C76.1816 34.7417 76.1159 34.7641 76.0617 34.8047C76.0076 34.8453 75.9677 34.9021 75.948 34.9668C75.5055 37.5443 75.2512 40.1505 75.1872 42.7649C75.1028 44.8739 75.0765 47.0582 75.0893 49.2327C74.2967 49.6469 73.5845 50.1994 72.9863 50.8642C70.2506 50.7309 67.9315 53.4078 67.4231 55.9974C66.7979 59.3974 68.522 62.753 71.5575 63.0234C71.6849 63.098 71.8167 63.1649 71.9521 63.2237C73.9414 64.1276 76.1521 64.5321 78.0065 63.3894C78.2821 63.2225 78.518 62.9976 78.6979 62.7303C78.8778 62.463 78.9973 62.1597 79.0482 61.8416C79.1559 63.6184 79.2689 65.1987 79.3691 66.4407C79.5935 66.5567 79.8162 66.6752 80.0372 66.7962C79.8692 64.804 79.6982 62.4961 79.5551 60.0436C80.0319 60.1633 80.5241 60.2096 81.0148 60.1807C82.4919 60.1114 80.6759 57.2982 80.6759 57.2982C81.292 57.3223 82.806 57.781 82.5876 56.7498C82.3526 55.6117 80.6819 54.2951 79.754 53.5984C79.6824 53.5464 79.4466 53.3204 79.2606 53.1879V53.0553C79.943 52.9257 82.0061 52.4301 80.1961 51.4155C79.889 51.2511 79.5616 51.128 79.2222 51.0495C79.0863 46.8332 79.3149 42.6131 79.9054 38.4361C80.2443 38.4361 135.823 38.9114 135.967 38.9235C136.177 44.196 136.85 63.9611 136.274 69.15C135.988 69.15 95.3794 68.9444 83.4733 68.8849C83.7796 69.0883 84.0829 69.2964 84.3832 69.5093C97.7445 69.5786 136.567 69.7707 136.567 69.7707C136.648 69.7684 136.726 69.7349 136.783 69.6772C136.841 69.6195 136.874 69.5419 136.876 69.4604C137.532 63.1333 136.694 41.6516 136.581 38.7397C136.574 38.5777 136.564 38.3359 136.269 38.3156C135.029 38.2192 133.783 38.1702 132.545 38.1266C130.737 38.0618 79.656 37.817 79.656 37.817C79.5883 37.8176 79.5225 37.8399 79.4683 37.8805C79.4141 37.9212 79.3743 37.9781 79.3548 38.0429C78.9577 40.2186 78.7311 42.4219 78.6769 44.6328C78.5963 46.5219 78.5857 48.6844 78.6204 50.9267C77.831 50.8175 77.0335 50.7782 76.2372 50.8092C76.479 50.0033 76.5633 49.171 75.9269 49.0821C75.8635 49.0734 75.7995 49.0703 75.7355 49.073C75.6994 43.7455 75.8982 38.754 76.5227 35.3532C76.9098 35.3532 138.655 35.8692 138.824 35.8805C138.857 36.7467 139.421 61.2397 139.397 64.34C139.369 67.0207 139.351 69.1606 139.138 71.7042C138.857 71.7042 104.419 71.5422 86.8779 71.4609C87.1144 71.6683 87.3469 71.8804 87.5754 72.0974C105.614 72.1832 139.428 72.3361 139.428 72.3361C139.51 72.334 139.588 72.3007 139.645 72.2429C139.703 72.1852 139.736 72.1074 139.739 72.0258C140.098 68.1513 140.014 60.0888 139.96 56.2113ZM67.9398 58.0265C68.2766 58.3839 68.7255 58.6153 69.2119 58.6826C68.6907 59.252 68.4188 59.1556 68.1326 59.1134C68.0382 58.7571 67.9737 58.3935 67.9398 58.0265ZM74.6434 60.3939C74.0167 61.4657 72.1435 60.4466 72.1435 60.4466C71.842 61.0659 71.6099 61.7166 71.4513 62.3869C70.7102 62.2568 70.0198 61.9232 69.4574 61.4233C68.895 60.9235 68.4828 60.277 68.2667 59.5563C68.5159 59.6185 68.7775 59.6112 69.023 59.5354C69.2684 59.4596 69.4885 59.3181 69.6594 59.1262C69.8336 58.9323 69.9661 58.7046 70.0488 58.4574C70.0609 58.4111 70.0624 58.3627 70.053 58.3158C70.0435 58.2688 70.0235 58.2247 69.9945 58.1867C69.9654 58.1487 69.9281 58.1178 69.8852 58.0965C69.8424 58.0751 69.7953 58.0638 69.7475 58.0634C69.3609 58.112 68.9692 58.0276 68.637 57.8241C68.3047 57.6205 68.0517 57.3099 67.9194 56.9434C68.0844 54.2228 70.3576 51.3734 72.8673 51.4841C74.2163 54.3666 72.9072 57.9301 72.9072 57.9301C74.9168 57.5113 75.2686 59.3236 74.6434 60.3939Z" fill="black"/>
<path id="Vector_19" d="M69.7558 55.0112C69.6719 55.018 69.592 55.0495 69.526 55.1018C69.4601 55.154 69.4111 55.2247 69.3853 55.3048C69.3595 55.3849 69.358 55.4708 69.381 55.5517C69.404 55.6327 69.4505 55.705 69.5146 55.7595C69.5787 55.814 69.6575 55.8483 69.7411 55.858C69.8247 55.8678 69.9093 55.8525 69.9842 55.8142C70.0591 55.7759 70.1209 55.7162 70.1619 55.6427C70.2029 55.5692 70.2212 55.4852 70.2145 55.4013C70.2053 55.2888 70.1518 55.1846 70.0658 55.1114C69.9798 55.0383 69.8683 55.0022 69.7558 55.0112ZM70.9271 53.1063C70.3388 52.9037 70.3004 53.6298 70.6491 53.678C70.9391 53.7194 71.2291 53.9973 71.205 54.6361C71.2049 54.6768 71.2128 54.7171 71.2283 54.7548C71.2439 54.7924 71.2666 54.8266 71.2954 54.8555C71.3242 54.8843 71.3583 54.9072 71.3959 54.9228C71.4335 54.9384 71.4739 54.9464 71.5146 54.9464C71.5964 54.945 71.6746 54.9119 71.7325 54.854C71.7904 54.7961 71.8235 54.718 71.8249 54.6361C71.8711 54.317 71.8074 53.9917 71.6443 53.7137C71.4811 53.4357 71.2282 53.2215 70.9271 53.1063Z" fill="black"/>
</g>
</svg>
