<svg width="151" height="151" viewBox="0 0 151 151" fill="none" xmlns="http://www.w3.org/2000/svg">
<g id="Virus-Threat-Found-1--Streamline-Barcelona">
<path id="Vector" d="M46.473 79.0005L46.8496 75.0838C46.8496 75.0838 43.3094 74.1234 43.2341 74.1046C43.2138 74.1845 42.3303 79.3771 42.3303 79.3771L46.473 79.0005Z" fill="#ACEAC7"/>
<path id="Vector_2" d="M90.4612 13.3198C88.9548 12.6419 87.5236 11.8134 86.0925 11.0602C86.0431 11.0305 85.9883 11.0108 85.9312 11.0024C85.8742 10.9939 85.816 10.9967 85.76 11.0107C85.7041 11.0247 85.6514 11.0495 85.6051 11.0839C85.5588 11.1182 85.5196 11.1613 85.49 11.2108C85.4603 11.2603 85.4406 11.3151 85.4322 11.3721C85.4237 11.4292 85.4265 11.4873 85.4405 11.5433C85.4545 11.5992 85.4793 11.6519 85.5137 11.6982C85.548 11.7446 85.5911 11.7837 85.6406 11.8134C87.0717 12.5666 88.5028 13.3951 90.0093 14.073C90.2352 14.1483 90.5365 14.1483 90.6118 13.9224C90.6464 13.8744 90.67 13.8194 90.6812 13.7614C90.6923 13.7033 90.6906 13.6435 90.6763 13.5862C90.6619 13.5288 90.6353 13.4752 90.5981 13.4292C90.561 13.3832 90.5142 13.3459 90.4612 13.3198ZM92.4949 4.7339C92.4549 4.61404 92.369 4.51496 92.256 4.45846C92.143 4.40196 92.0122 4.39266 91.8923 4.43261C91.7724 4.47256 91.6734 4.55849 91.6169 4.6715C91.5604 4.7845 91.5511 4.91532 91.591 5.03518C92.1936 6.61694 92.7208 8.19869 93.3987 9.70512C93.4284 9.75458 93.4675 9.79771 93.5139 9.83205C93.5602 9.86638 93.6129 9.89125 93.6688 9.90524C93.7248 9.91923 93.7829 9.92206 93.84 9.91357C93.897 9.90508 93.9518 9.88544 94.0013 9.85577C94.0508 9.82609 94.0939 9.78697 94.1282 9.74063C94.1626 9.69429 94.1874 9.64163 94.2014 9.58568C94.2154 9.52973 94.2182 9.47156 94.2097 9.41452C94.2013 9.35747 94.1816 9.30265 94.1519 9.25319C93.5494 7.74676 93.0101 6.2441 92.4949 4.7339ZM112.606 12.19C111.024 12.6419 109.442 13.0938 107.86 13.4705C107.746 13.5173 107.652 13.6043 107.597 13.7151C107.541 13.826 107.528 13.9531 107.559 14.073C107.579 14.1324 107.61 14.1873 107.651 14.2346C107.692 14.2819 107.742 14.3206 107.798 14.3486C107.854 14.3766 107.915 14.3932 107.977 14.3977C108.04 14.4021 108.102 14.3941 108.162 14.3743C109.744 13.9977 111.325 13.5458 112.907 13.0938C113.434 12.8679 113.133 11.964 112.606 12.19ZM108.463 4.7339C107.559 6.08969 106.731 7.5208 105.827 8.87659C105.767 8.97647 105.749 9.09607 105.777 9.20907C105.806 9.32208 105.878 9.41923 105.977 9.47916C106.077 9.53909 106.197 9.55689 106.31 9.52863C106.423 9.50038 106.52 9.4284 106.58 9.32852C107.529 7.99332 108.408 6.61063 109.216 5.18583C109.593 4.7339 108.764 4.28197 108.463 4.7339ZM102.061 1.72103C101.941 1.6899 101.814 1.70327 101.703 1.75866C101.592 1.81406 101.505 1.90773 101.458 2.02232C101.232 3.67939 100.931 5.33647 100.856 6.99355C100.864 7.11074 100.914 7.22105 100.997 7.30411C101.08 7.38718 101.19 7.43739 101.307 7.44548C101.367 7.44792 101.427 7.4379 101.483 7.41605C101.539 7.39421 101.59 7.36101 101.632 7.31854C101.675 7.27608 101.708 7.22528 101.73 7.16934C101.752 7.1134 101.762 7.05355 101.759 6.99355C101.91 5.41179 102.136 3.83004 102.362 2.24828C102.437 2.02232 102.362 1.72103 102.061 1.72103Z" fill="black"/>
<path id="Vector_3" d="M41.1253 87.8136L35.8528 96.4756C36.4644 104.86 37.0707 114.848 36.9073 123.215L98.2944 135.869L128.348 102.125L41.1253 87.8136Z" fill="#DCBEFF"/>
<path id="Vector_4" d="M6.85427 126.076C6.6283 125.399 6.40234 124.645 6.25169 123.967C4.85598 116.989 8.88795 109.906 9.71649 106.041C9.56584 105.966 9.4152 105.966 9.26456 105.89C7.83345 110.901 3.43165 119.64 6.6283 126.83C7.02148 127.749 7.57886 128.411 8.58666 128.411V127.959C7.77921 127.693 7.44479 127.655 6.85427 126.076Z" fill="#FCAFB7"/>
<path id="Vector_5" d="M13.7085 75.3858C14.9217 74.5343 16.272 73.8974 17.7006 73.5028C17.6241 73.3598 17.522 73.2322 17.3993 73.1261C16.8274 72.2131 16.4671 71.1837 16.3448 70.1133C12.1675 70.7098 9.24498 74.6461 9.4152 79.0766C10.6101 77.5956 12.065 76.3449 13.7085 75.3858ZM12.3527 92.1072C12.4283 93.6583 12.8395 95.1745 13.5579 96.5512C13.9157 93.3304 14.1838 90.1082 14.3111 84.6504C14.0851 84.9516 13.8592 85.3282 13.6332 85.6295C12.659 87.6436 12.2181 89.874 12.3527 92.1072ZM9.64117 101.296C9.11392 100.619 8.66199 99.9406 8.21006 99.2628C7.98409 98.8861 7.83345 98.5095 7.60749 98.1329C7.23088 99.79 6.40234 101.372 6.77895 102.954C7.05586 104.017 7.72977 104.933 8.66199 105.514C9.51372 105.939 10.4301 106.219 11.3736 106.343C11.5091 105.541 11.7365 104.758 12.0515 104.008C11.9008 103.857 10.3944 102.273 9.64117 101.296Z" fill="#F55555"/>
<path id="Vector_6" d="M27.2661 62.3551C27.4167 62.3551 27.492 62.2798 27.5674 62.1292C27.6549 61.9555 27.7066 61.766 27.7196 61.5719C27.7325 61.3778 27.7064 61.1831 27.6427 60.9993C27.8171 61.3175 28.0187 61.6199 28.2453 61.9032C28.3959 62.0538 28.6219 62.2798 28.8478 62.2045C28.9275 62.1433 28.9901 62.0627 29.0296 61.9704C29.0692 61.878 29.0844 61.7771 29.0738 61.6772V60.6981C29.2152 61.0123 29.4504 61.2751 29.7471 61.4504C30.0437 61.6257 30.3874 61.705 30.7309 61.6772C30.5533 61.3371 30.3519 61.0099 30.1283 60.6981C29.5809 60.2595 28.9718 59.9041 28.3206 59.6436C27.9353 59.8608 27.5971 60.1524 27.3255 60.5016C27.054 60.8507 26.8545 61.2503 26.7388 61.6772C26.8414 61.8457 26.9683 61.9979 27.1154 62.1292C27.1908 62.2798 27.1908 62.3551 27.2661 62.3551Z" fill="#FFD35C"/>
<path id="Vector_7" d="M10.6955 126.529C12.446 122.59 11.6612 116.416 13.0606 111.239C12.91 111.163 12.6976 111.088 12.5469 111.013C11.8475 114.436 11.4548 117.914 11.3734 121.407C11.2623 123.13 10.8847 124.824 10.2542 126.431C9.7962 127.465 9.62146 127.486 9.22301 127.773C9.24757 127.96 9.23425 128.149 9.18384 128.331C9.90628 127.954 10.4499 127.306 10.6955 126.529Z" fill="#FCAFB7"/>
<path id="Vector_8" d="M15.2148 106.343C14.9135 106.192 14.6876 105.966 14.3863 105.816C13.1269 108.151 12.336 109.079 12.202 109.883C11.97 111.277 13.4003 111.952 14.0097 110.95C14.7986 109.649 15.4788 108.284 16.0434 106.87C15.7408 106.74 15.4611 106.562 15.2148 106.343ZM18.6269 103.092C18.7775 102.791 19.3982 101.902 19.5488 101.601C18.9462 101.983 18.2427 102.176 17.5295 102.154C17.8596 102.506 18.2277 102.821 18.6269 103.092ZM19.1315 98.9606C18.6885 99.4551 18.2855 99.984 17.9264 100.542C18.529 100.643 19.6633 100.802 19.5496 101.597C19.8509 101.145 20.3367 100.237 20.5627 99.7892C21.5735 98.1035 19.9669 98.1283 19.1315 98.9606Z" fill="#ACEAC7"/>
<path id="Vector_9" d="M32.8402 66.7983C30.7312 67.8528 28.1702 67.6269 25.8353 67.4009V67.5516C26.4087 67.8589 26.9403 68.2386 27.417 68.6814C27.8997 69.166 28.1935 69.8071 28.2456 70.4891C28.2494 70.7343 28.1971 70.9772 28.0926 71.1991C27.9882 71.4211 27.8344 71.6162 27.643 71.7696C27.8569 72.0337 28.1111 72.2624 28.3962 72.4475C28.9626 72.925 29.6903 73.1676 30.4299 73.1254C30.6207 73.054 30.7988 72.9523 30.9571 72.8241C31.0325 72.7487 31.1078 72.5981 31.1831 72.5228C31.8928 71.5701 32.3583 70.4581 32.5389 69.284C32.7224 68.4676 32.8234 67.6349 32.8402 66.7983Z" fill="#CFF0FA"/>
<path id="Vector_10" d="M113.058 73.9538C112.003 75.3849 111.024 76.8913 110.12 78.3977C112.154 78.1718 114.112 77.9458 116.146 77.7198C117.05 76.2887 117.954 74.9329 118.858 73.5018C116.899 73.6525 114.941 73.8031 113.058 73.9538Z" fill="black"/>
<path id="Vector_11" d="M118.782 73.502C117.878 74.9331 117.05 76.3642 116.07 77.72C117.803 77.494 119.46 77.3434 121.192 77.1174C122.021 75.7616 122.849 74.4058 123.603 73.05C122.021 73.276 120.439 73.4267 118.782 73.502Z" fill="#FFD35C"/>
<path id="Vector_12" d="M83.3807 82.3155C82.1002 81.9509 80.8197 81.487 79.6146 81.1104C78.7107 81.7882 77.8822 82.5415 76.9783 83.2194C79.238 83.8219 81.573 84.4998 83.9079 85.1024C84.5105 84.4245 85.1884 83.7466 85.8663 83.0687C84.9624 82.8428 84.2092 82.5528 83.3807 82.3155Z" fill="black"/>
<path id="Vector_13" d="M44.5134 68.6068L43.9869 71.5436L47.6776 72.0709L49.1087 63.3336L44.5134 68.6068ZM137.894 29.6309C122.699 27.7644 58.6121 23.2233 55.6625 23.7144C53.2522 24.1964 52.7129 25.0167 52.1005 27.1957C50.7056 32.1625 49.3965 44.0105 46.3979 57.9865C46.9179 57.3806 47.5666 56.8986 48.2968 56.5757C49.0229 56.3234 49.4869 56.3656 49.2225 57.0841C49.1652 57.2348 49.0221 57.4607 48.8896 57.7274C49.2797 57.4395 49.7556 57.292 50.2401 57.3086C50.2499 57.2333 55.362 28.3527 55.6632 26.954C135.936 33.8082 141.153 34.218 141.153 34.3355L133.094 72.9002H137.463C138.472 69.0256 144.301 46.0329 144.405 35.6815C144.458 30.2862 143.619 30.3344 137.894 29.6309Z" fill="#ACEAC7"/>
<path id="Vector_14" d="M27.2794 65.3425C27.4052 66.519 28.3957 66.5725 28.3957 65.5188C28.3964 64.2338 27.1664 64.2842 27.2794 65.3425Z" fill="black"/>
<path id="Vector_15" d="M28.2456 63.7101C28.296 63.7447 28.3576 63.759 28.418 63.75C28.4784 63.7411 28.5332 63.7096 28.5714 63.6619C28.6096 63.6142 28.6283 63.5538 28.6237 63.4929C28.6192 63.432 28.5917 63.375 28.5469 63.3335C28.3011 63.1615 28.0053 63.0755 27.7056 63.0892C27.4058 63.1028 27.119 63.2152 26.8899 63.4088C26.669 63.6076 26.494 63.8521 26.377 64.1252C26.2599 64.3983 26.2036 64.6936 26.212 64.9906C26.212 65.0505 26.2358 65.108 26.2781 65.1504C26.3205 65.1927 26.378 65.2166 26.4379 65.2166C26.4979 65.2166 26.5553 65.1927 26.5977 65.1504C26.6401 65.108 26.6639 65.0505 26.6639 64.9906C26.6519 64.5454 26.814 64.113 27.1158 63.7854C27.268 63.6472 27.4625 63.5645 27.6676 63.5508C27.8727 63.5371 28.0765 63.5933 28.2456 63.7101ZM21.768 90.6753C21.1139 92.1595 20.195 93.5122 19.0564 94.6673C18.9621 94.7704 18.9086 94.9043 18.9058 95.0439C18.9058 95.1946 19.0564 95.2699 19.207 95.3452C19.3637 95.3452 19.4903 95.3625 19.5837 95.2699C20.7642 94.0316 21.7314 92.6063 22.4459 91.0519C22.6718 90.7069 22.2139 90.2309 21.768 90.6753ZM33.9701 94.2161C32.848 93.0475 31.9313 91.6979 31.2585 90.2241C31.1832 89.9981 30.9572 89.9981 30.7313 90.0734C30.6841 90.0954 30.6423 90.1273 30.6086 90.1668C30.5748 90.2064 30.55 90.2527 30.5357 90.3027C30.5214 90.3527 30.518 90.4052 30.5258 90.4566C30.5335 90.508 30.5522 90.5571 30.5806 90.6007C31.2755 92.0991 32.1984 93.4808 33.3163 94.6967C33.772 95.1448 34.3354 94.5822 33.9701 94.2161Z" fill="black"/>
<path id="Vector_16" d="M107.559 78.6238C107.559 79.7491 107.07 79.9329 106.655 79.8289L101.307 79.151C100.78 79.2263 100.253 79.2263 99.8006 79.3017L95.9592 79.5276L106.173 80.9143C106.961 80.9783 107.661 81.013 108.237 80.2063C108.43 79.9813 108.559 79.7094 108.612 79.4184C108.664 79.1273 108.639 78.8274 108.539 78.5492C108.217 78.6177 107.887 78.6428 107.559 78.6238Z" fill="#F55555"/>
<path id="Vector_17" d="M102.437 74.7072C100.855 74.7825 99.2736 74.9331 97.6919 75.0084C96.742 76.7875 95.1309 79.5277 95.1309 79.6031C95.6054 79.6031 93.7149 79.6588 99.8009 79.3018C100.021 79.1926 99.666 79.4886 102.437 74.7072Z" fill="#FFD35C"/>
<path id="Vector_18" d="M88.7291 75.6871C86.3188 75.913 83.9085 76.0637 81.5736 76.365C81.5736 76.4403 79.21 80.357 79.1633 80.4323C81.6489 80.2817 84.2098 80.2064 86.6954 80.0557C86.7263 79.9706 88.3525 76.3379 88.7291 75.6871ZM97.6924 75.0084C96.2613 75.0837 94.8302 75.2344 93.3991 75.3097C92.8462 76.2301 92.7528 76.4508 91.0641 79.829L95.1315 79.603C95.1315 79.5285 97.6457 75.0853 97.6924 75.0084Z" fill="black"/>
<path id="Vector_19" d="M93.4738 75.3857C91.892 75.5364 90.3103 75.6117 88.7285 75.7624C88.3466 76.4297 86.7317 80.0436 86.6948 80.131C88.2013 80.0557 89.7077 79.9804 91.1388 79.905C91.8363 78.3582 92.6158 76.8496 93.4738 75.3857Z" fill="#FFD35C"/>
<path id="Vector_20" d="M53.0263 76.6663L52.1224 76.4403C51.9718 77.1182 51.8211 77.8714 51.6705 78.5493L52.6497 78.474C52.8112 77.8795 52.9369 77.2758 53.0263 76.6663Z" fill="#F55555"/>
<path id="Vector_21" d="M54.2312 77.0427C55.2104 76.2141 56.1896 75.3103 57.1688 74.4817C56.1572 74.1443 53.478 73.4272 53.478 73.4272C53.3115 73.5937 52.3866 74.3673 50.6911 76.0635C51.1611 76.2202 53.4577 76.7331 54.2312 77.0427ZM55.6623 78.2471L51.369 78.5484C50.7664 79.6029 50.1639 80.7327 49.5613 81.8625C53.6369 81.6057 53.7793 81.632 53.704 81.6366C53.9827 81.2178 55.2488 78.9543 55.6623 78.2471Z" fill="black"/>
<path id="Vector_22" d="M132.039 39.1561C131.935 39.1441 58.7816 32.9692 58.9013 32.9797C58.7841 32.9877 58.6737 33.0378 58.5906 33.1209C58.5075 33.204 58.4573 33.3144 58.4494 33.4317C58.2747 36.7458 54.4867 64.7655 52.8003 73.2015C53.0142 73.2723 53.6785 73.4275 53.7042 73.4275C55.2106 66.6297 58.0849 44.1228 58.7507 39.0055L130.758 45.0312L126.54 72.8249L127.519 72.7496C127.519 72.7496 132.265 41.943 132.566 39.7587V39.6834C132.532 39.5569 132.466 39.4415 132.373 39.3489C132.28 39.2564 132.165 39.1899 132.039 39.1561ZM130.909 44.052L58.9013 38.0263L59.3533 33.9589C59.8459 34.029 130.244 40.0088 131.511 40.1353C131.285 41.4158 131.059 42.7716 130.909 44.052Z" fill="#F55555"/>
<path id="Vector_23" d="M128.197 40.8123L127.971 41.0383C127.896 40.963 127.619 40.1856 127.218 40.5863C126.821 40.8507 127.033 41.3057 127.368 41.6409C127.149 41.8226 126.947 42.0243 126.766 42.2434C126.676 42.3333 126.625 42.4552 126.625 42.5824C126.625 42.7095 126.676 42.8314 126.766 42.9213C126.856 43.0112 126.978 43.0617 127.105 43.0617C127.232 43.0617 127.354 43.0112 127.444 42.9213C127.594 42.7707 127.745 42.6954 127.896 42.5447C127.976 42.7706 128.104 42.9762 128.272 43.1473C128.385 43.2158 128.518 43.2424 128.649 43.2226C128.712 43.2097 128.772 43.1824 128.824 43.1429C128.875 43.1034 128.917 43.0528 128.946 42.9947C128.975 42.9366 128.991 42.8727 128.991 42.8078C128.992 42.7429 128.978 42.6787 128.95 42.62C128.875 42.3941 128.724 42.1681 128.649 41.9421L129.101 41.4902C129.659 40.9313 128.512 40.337 128.197 40.8123ZM125.109 41.8668C124.581 41.7915 124.054 41.7915 123.452 41.7162C123.334 41.7241 123.224 41.7743 123.141 41.8574C123.058 41.9405 123.008 42.0509 123 42.1681C122.997 42.2281 123.007 42.288 123.029 42.344C123.051 42.4 123.084 42.4509 123.126 42.4934C123.169 42.5358 123.22 42.569 123.276 42.5908C123.332 42.6127 123.392 42.6226 123.452 42.62C123.979 42.6954 124.506 42.6954 125.109 42.7707C125.226 42.7626 125.336 42.7124 125.419 42.6293C125.502 42.5462 125.552 42.4359 125.561 42.3187C125.561 42.0928 125.335 41.9421 125.109 41.8668ZM120.062 39.7586C119.196 40.1171 118.997 41.6506 119.384 42.1689C119.653 42.4458 120.005 42.6257 120.387 42.6802C120.769 42.7348 121.158 42.6609 121.493 42.4701C121.769 42.2347 121.956 41.9127 122.024 41.5569C122.093 41.2011 122.038 40.8326 121.87 40.5118C121.811 40.3359 121.715 40.1748 121.588 40.0391C121.462 39.9033 121.308 39.7962 121.137 39.7249C120.966 39.6536 120.781 39.6197 120.596 39.6255C120.41 39.6313 120.228 39.6767 120.062 39.7586ZM120.804 41.6416C119.982 41.6469 120.433 40.8613 120.669 40.63C120.887 40.4161 120.929 40.5223 121.061 40.688C121.122 40.7664 121.458 41.6386 120.803 41.6424L120.804 41.6416ZM90.6113 21.9073C90.712 20.9657 90.8883 20.0337 91.1386 19.1204C93.0733 19.6749 95.0765 19.9538 97.089 19.949C101.289 19.949 103.911 20.3949 106.504 20.0243C106.58 20.9282 106.655 21.832 106.655 22.6606C107.134 23.0322 107.456 23.5696 107.559 24.167C107.626 21.7951 107.449 19.4225 107.031 17.0868C106.325 12.1426 103.01 9.3806 99.3486 9.17799C95.5442 8.97763 92.16 12.7234 90.762 16.3335C89.8717 18.8061 89.3391 21.3932 89.1802 24.0163C89.5419 23.2416 90.025 22.5296 90.6113 21.9073ZM95.3566 11.8896C96.2611 11.0045 97.4201 10.4251 98.6708 10.2325C101.789 9.86567 105.487 12.1012 106.354 16.7101C106.504 17.5387 106.655 18.2919 106.73 19.1204C105.555 19.2531 104.37 19.2784 103.19 19.1958C103.627 16.5746 102.517 13.5052 99.9512 13.8479C98.2941 14.0739 96.9384 14.9777 96.7124 16.7855C96.6125 17.5663 96.6636 18.359 96.863 19.1204C95.0743 19.1053 93.2977 18.8261 91.5905 18.2919C91.415 17.5892 92.7896 14.0272 95.3566 11.8896Z" fill="#F55555"/>
<path id="Vector_24" d="M105.375 78.8504C107.835 78.6041 109.819 78.4609 110.195 78.3984C111.099 76.892 112.078 75.3856 113.133 73.9545C111.476 74.1051 109.743 74.1804 108.086 74.3311C107.672 74.7431 105.751 78.1544 105.375 78.8504ZM49.26 72.3719L46.6991 74.9329C46.913 75.0406 50.3808 75.9286 50.6158 75.9874C51.479 75.1242 53.1361 73.6178 53.4027 73.3511C52.0442 72.9363 50.6605 72.6093 49.26 72.3719ZM70.802 77.4193C69.7943 77.4378 68.7884 77.5133 67.7892 77.6452C67.1866 77.4946 66.584 77.2686 65.9061 77.118C64.9269 77.8712 64.0231 78.6244 63.1192 79.4529C63.5711 79.6036 64.0231 79.6789 64.475 79.8295C64.1737 80.2815 63.9478 80.6581 63.6465 81.11L68.3917 80.884C69.2745 79.5396 69.8748 78.8142 70.802 77.4193ZM79.0874 80.4314C81.9135 75.8367 81.573 76.4295 81.573 76.364C81.341 76.364 82.2441 76.3052 76.6771 76.8912C75.1398 79.3769 74.7112 80.0096 74.2668 80.6573C73.9911 80.8727 73.146 81.5424 72.5344 82.0131C73.9655 82.3897 75.3966 82.8417 76.9031 83.2183C77.8069 82.5404 78.7108 81.8625 79.5393 81.1093C78.8903 80.8965 78.2374 80.6956 77.581 80.5067L79.0874 80.4314ZM85.791 83.0684C85.1131 83.7463 84.4352 84.4242 83.8327 85.1021C85.1131 85.4787 86.4689 85.8553 87.7494 86.1566L89.6324 84.2735C88.4273 83.8969 87.0715 83.5203 85.791 83.0684Z" fill="#FFD35C"/>
<path id="Vector_25" d="M95.5078 88.3412C94.152 87.9645 89.0301 86.5334 87.8249 86.2321C84.8121 85.7802 58.6002 81.7128 57.621 81.5622C56.3405 81.6375 54.9847 81.7128 53.7043 81.7882H53.2523C53.6289 81.7882 91.9337 87.8327 95.8844 88.4918C95.7813 88.3975 95.6474 88.344 95.5078 88.3412ZM125.938 76.5149C123.822 90.9541 123.664 90.707 123.527 91.8052C123.075 91.7299 103.492 88.6417 103.492 88.6417C103.672 88.6869 108.588 90.1662 110.723 90.6754C118.671 92.0048 110.682 90.6211 123.603 92.7844C124.055 92.7347 124.269 92.7467 124.356 92.4831C124.356 92.4831 126.314 79.9797 126.842 76.3643C126.54 76.4396 126.239 76.4396 125.938 76.5149Z" fill="#F55555"/>
<path id="Vector_26" d="M110.798 90.7515C109.216 90.2995 107.634 89.9229 106.052 89.3957C105.875 89.5124 104.554 90.5481 104.395 90.6761C106.128 91.1281 107.86 91.6553 109.517 92.1073C110.12 91.6553 110.647 91.2787 111.174 90.8268C111.099 90.9021 110.948 90.8268 110.798 90.7515ZM101.91 88.1898C100.403 87.7378 98.8216 87.2106 97.3152 86.7587C96.7126 87.2106 96.1853 87.7378 95.5828 88.1898L95.5075 88.2651C95.6754 88.3487 100.062 89.5508 100.328 89.6209C100.944 89.0048 101.421 88.6831 101.91 88.1898ZM91.3648 87.2113C91.4401 87.136 91.5154 87.136 91.5154 87.0607C92.0683 86.5071 92.4727 86.2533 93.2478 85.4789C92.0427 85.1023 90.8375 84.7257 89.7077 84.3491C89.0429 84.9386 88.4141 85.5674 87.8246 86.2322C89.0298 86.5334 90.1596 86.8347 91.3648 87.2113Z" fill="black"/>
<path id="Vector_27" d="M91.3651 87.2111C92.7209 87.5877 94.152 87.9644 95.5078 88.341C95.8324 88.0156 97.0662 86.9641 97.2402 86.8345C95.8844 86.3826 94.5286 86.006 93.1728 85.5541C91.8667 86.6733 91.3651 87.2111 91.4404 87.1358C91.4404 87.0605 91.3651 87.1358 91.3651 87.2111ZM105.375 89.2448C105.093 89.174 103.206 88.588 101.91 88.2656C101.835 88.341 101.759 88.341 101.684 88.4163C101.664 88.4163 101.645 88.4242 101.631 88.4383C101.617 88.4525 101.609 88.4716 101.609 88.4916C101.037 88.9217 100.7 89.3955 100.253 89.6968C101.684 90.0734 103.04 90.45 104.471 90.8266C104.635 90.6955 105.933 89.6757 106.128 89.5461C105.891 89.4138 105.638 89.3125 105.375 89.2448ZM111.325 90.9019C110.798 91.3538 110.196 91.7304 109.668 92.1824C111.175 92.559 112.606 93.0109 114.037 93.3875C114.639 92.9356 115.167 92.4837 115.769 92.0317C114.188 91.6551 112.756 91.2785 111.325 90.9019ZM127.595 76.2895C128.8 76.1389 129.93 75.9882 131.135 75.7623C131.286 75.7623 131.436 75.6869 131.587 75.6869L132.189 72.9C131.21 72.9 130.231 72.9 129.252 72.8247C128.595 73.9265 128.04 75.0863 127.595 76.2895ZM49.5616 81.9386C50.1057 80.803 50.7091 79.6968 51.3693 78.6245L47.4526 78.9258C47.2266 80.2816 47.0007 81.3361 46.9254 82.0893C47.7539 82.0139 48.6578 81.9386 49.5616 81.9386Z" fill="#FFD35C"/>
<path id="Vector_28" d="M136.859 75.0084C136.129 75.0084 134.31 75.3421 132.491 75.611L128.574 94.818C129.553 95.1193 130.608 95.4206 131.21 95.5712C132.641 90.6 134.75 83.0678 136.859 75.0084Z" fill="#ACEAC7"/>
<path id="Vector_29" d="M121.042 93.3876C120.59 93.8395 120.063 94.3668 119.611 94.894L119.535 94.9693C120.665 95.2706 123 96.1745 124.507 96.6264C124.883 96.777 125.184 96.8524 125.41 96.9277C125.335 96.9277 125.26 96.9277 125.26 96.8524C126.51 95.5885 126.176 95.6352 127.293 94.5174H127.369C126.013 94.2161 122.473 93.6881 121.042 93.3876Z" fill="#FFD35C"/>
<path id="Vector_30" d="M130.532 97.907C129.327 97.6057 126.766 97.1538 125.41 96.8525C124.091 96.4126 129.9 97.4317 45.6448 83.6712C45.723 83.3255 45.7484 82.97 45.7202 82.6167L41.8034 83.9725C41.8034 84.0945 41.3304 86.7594 41.2762 87.0607L129.327 101.673C129.793 100.439 130.196 99.1822 130.532 97.907Z" fill="#ACEAC7"/>
<path id="Vector_31" d="M143.638 30.0421C142.594 29.3107 141.141 29.4116 140.324 29.1382C136.708 28.4603 122.322 27.2552 107.785 26.1254C107.958 24.75 107.957 23.4808 106.881 22.5852C105.826 21.832 102.158 21.4072 100.78 21.3048C98.9105 21.1669 91.9312 20.5056 90.6115 21.832C89.557 22.7562 89.2987 24.2499 89.557 24.7696C72.8356 23.6397 57.0181 22.6327 55.5117 22.8865C54.4002 23.0224 53.3662 23.5262 52.5741 24.3176C50.6316 26.2602 49.0717 39.9544 48.6574 42.0182C48.0548 45.1817 46.0965 55.5761 45.7198 57.5345C45.2544 57.0758 44.8687 57.2558 44.3641 57.7604C43.6719 58.6816 43.7773 59.0409 43.2342 59.9448C41.0748 65.3423 39.7966 66.6024 35.8527 69.8872C34.6112 70.8576 33.3023 71.7385 31.936 72.5235C32.3678 71.8744 32.698 71.1632 32.9152 70.4145C34.741 64.6313 32.119 58.5837 25.7438 58.604C23.6366 58.672 21.6054 59.4075 19.9432 60.7043C18.2809 62.0012 17.0735 63.7925 16.4951 65.8199C16.0681 67.2601 15.94 68.7723 16.1184 70.2638C16.2405 71.3343 16.6008 72.3638 17.1729 73.2767C17.2297 73.4317 17.3355 73.5639 17.4742 73.6533C14.2226 74.509 10.4136 77.5113 9.3395 79.3024C8.18417 81.194 7.20104 83.1854 6.40196 85.2528C4.45188 90.6647 5.96283 96.9774 9.49015 101.522C10.2481 102.465 11.0792 103.347 11.9758 104.159C10.8859 106.338 8.79493 124.261 8.52904 127.172C8.27759 129.711 8.22093 132.266 8.35957 134.814C8.56821 138.744 10.1108 140.433 12.3516 141.367L11.8997 143.174C11.7877 143.935 11.8654 144.711 12.1256 145.434C12.4695 146.038 12.9348 146.564 13.4923 146.979C14.0498 147.394 14.6873 147.688 15.3645 147.844C17.0153 148.315 18.7038 148.643 20.411 148.824C21.7668 148.974 23.1979 149.125 24.4031 148.296C24.4721 148.261 24.5299 148.207 24.5698 148.14C24.6098 148.074 24.6303 147.997 24.629 147.92C24.9341 147.769 24.9085 147.52 24.7044 147.317C24.2525 146.898 23.6636 146.657 23.0473 146.639C20.7462 146.064 19.1727 145.869 18.1514 143.702C17.8637 143.092 17.5488 142.497 17.3228 141.894C17.7248 141.779 18.1061 141.601 18.4527 141.367C19.1456 140.822 19.6683 140.09 19.9591 139.258C22.462 132.461 24.4837 119.88 24.629 117.094C24.4031 124.696 24.2524 134.972 24.7044 138.128C24.7399 138.699 24.9168 139.253 25.2192 139.74C25.5216 140.226 25.9399 140.63 26.4368 140.915C26.6907 141.084 26.9705 141.212 27.2653 141.291C27.1855 141.766 26.5776 143.299 27.19 144.831C27.5339 145.435 27.9992 145.961 28.5567 146.376C29.1142 146.791 29.7516 147.086 30.4288 147.242C32.0796 147.713 33.7681 148.041 35.4753 148.221C36.8311 148.372 38.2622 148.522 39.4674 147.694C39.5364 147.658 39.5941 147.604 39.634 147.538C39.674 147.471 39.6945 147.395 39.6934 147.317C39.9946 147.166 39.9758 146.919 39.7687 146.715C39.3172 146.294 38.7281 146.053 38.1116 146.037C34.3455 145.093 34.0849 145.221 32.2365 141.065C32.4532 140.965 32.6806 140.889 32.9144 140.839C36.2225 139.182 36.4651 128.13 36.6052 124.043C101.041 137.467 97.9426 136.806 98.2936 136.923L130.004 101.597C134.631 86.571 141.913 59.2315 144.24 43.5239C144.86 40.4884 146.216 31.7632 143.638 30.0421ZM91.2141 22.5852C92.1481 21.71 98.6484 22.058 100.177 22.2086C103.891 22.5807 104.072 22.5363 105.826 23.0372C106.034 23.0963 106.228 23.1966 106.396 23.3321C106.564 23.4676 106.704 23.6354 106.806 23.8258C107.076 24.5342 107.154 25.3017 107.032 26.05C89.8252 24.6724 90.6115 25.0008 90.6115 24.7696C90.4542 24.3903 90.4281 23.9693 90.5372 23.5735C90.6464 23.1776 90.8846 22.8295 91.2141 22.5845V22.5852ZM44.1381 59.9448C44.2887 59.5682 44.5147 59.1162 44.6653 58.7396C45.2491 57.5782 45.3206 58.4835 45.042 59.0409C44.9251 59.5034 44.774 59.9566 44.59 60.3967C44.5644 60.4349 44.5479 60.4785 44.5418 60.524C44.5356 60.5696 44.54 60.616 44.5545 60.6596C44.5691 60.7032 44.5934 60.7429 44.6257 60.7757C44.6579 60.8085 44.6973 60.8334 44.7407 60.8486C44.7761 60.8874 44.8204 60.9169 44.8698 60.9346C44.9192 60.9523 44.9722 60.9577 45.0242 60.9502C45.0761 60.9428 45.1255 60.9228 45.168 60.892C45.2105 60.8612 45.2448 60.8204 45.2679 60.7733C45.992 59.5126 46.9716 58.4172 48.1437 57.5571C48.9865 57.0253 48.3569 57.7612 48.2808 57.8365C47.915 58.4104 47.4854 58.941 47.0003 59.4183C46.699 59.7196 47.151 60.2468 47.5276 59.9455C48.1915 59.2452 48.979 58.6735 49.8505 58.2591C50.5284 57.9149 50.4854 58.0414 50.0893 58.4391C49.8824 58.7067 49.6558 58.9585 49.4114 59.1923C48.9918 59.7013 48.5111 60.1566 47.9802 60.5481C47.679 60.7741 48.0556 61.3013 48.4322 61.0753C49.0129 60.6611 49.9921 60.048 50.5352 59.7196C51.2567 59.2819 51.0737 59.8649 50.9931 59.9455C50.8351 60.2086 50.659 60.4603 50.4659 60.6987C50.3905 60.7741 43.6907 68.0095 43.009 69.3607L40.5987 66.4985C42.6738 63.9029 42.9842 62.2526 44.1381 59.9448ZM47.6782 72.0715C46.4731 71.8456 45.1926 71.6949 43.9874 71.5443C44.1381 70.5651 44.2887 69.5859 44.5147 68.6068C45.4314 67.4498 47.8447 64.6817 49.26 63.2589C48.9187 66.2266 48.3904 69.1697 47.6782 72.0708V72.0715ZM43.4602 70.0379C43.1589 71.6949 40.598 86.9099 40.598 86.9099L35.7021 94.894C35.1748 87.6631 34.5722 82.3906 34.5722 82.3153C34.777 82.069 35.0039 81.8421 35.2501 81.6374C39.3341 77.5504 40.0572 74.8411 43.4602 70.0371V70.0379ZM32.9641 67.6057C32.5694 74.3214 28.4268 74.7492 26.4729 69.903C26.0552 68.9758 25.8607 67.9635 25.905 66.9474C26.9184 67.2861 28.022 67.2323 28.9977 66.7968C29.9016 66.4375 30.3708 66.0436 31.0314 66.0436C31.6836 66.0816 32.3375 66.0816 32.9897 66.0436C32.9905 66.5686 32.995 67.0815 32.9641 67.6057ZM31.5594 62.2044C31.6025 62.2434 31.6294 62.2972 31.6347 62.3551C31.4478 62.3107 31.2527 62.315 31.0681 62.3678C30.8834 62.4206 30.7154 62.5199 30.5802 62.6563C30.5443 62.6983 30.5246 62.7518 30.5246 62.807C30.5246 62.8622 30.5443 62.9156 30.5802 62.9576C30.7519 63.1264 30.9048 62.8974 31.1534 62.8409C31.2659 62.8065 31.3862 62.8064 31.4988 62.8405C31.6114 62.8745 31.7114 62.9413 31.7861 63.0322C31.956 63.3663 32.0825 63.7206 32.1627 64.0867C32.1016 64.0034 32.0195 63.9378 31.9247 63.8966C31.83 63.8554 31.726 63.8402 31.6234 63.8525C31.1097 63.9406 31.2325 65.0335 31.8358 65.4041C32.2998 65.6888 32.4632 65.1412 32.4632 65.0659C32.4768 65.1487 32.5386 65.5894 32.5386 65.6685C31.3161 65.8191 31.1075 65.4817 29.7517 65.8191C28.925 66.3646 27.9552 66.6529 26.9648 66.6476C26.7097 66.6442 26.4581 66.5891 26.225 66.4855C25.992 66.3819 25.7824 66.2321 25.609 66.0451C25.8349 65.2165 25.9856 64.4633 26.1362 63.7101C26.2414 63.502 26.4034 63.328 26.6033 63.208C26.8032 63.0881 27.033 63.0271 27.266 63.0322C27.8686 62.9569 28.3959 63.1203 28.9984 63.0322C29.9023 62.8996 30.6555 62.279 31.5594 62.2044ZM29.8767 60.5097C30.364 60.8654 30.8031 61.2829 31.1828 61.7517C30.3542 61.9024 29.601 62.4869 28.6972 62.5803C27.9575 62.6556 27.1154 62.4153 26.4518 62.6902C26.6285 62.0911 26.8817 61.5172 27.205 60.9827C28.1187 59.526 28.3816 59.4168 29.8759 60.5097H29.8767ZM9.03822 99.338C8.50367 98.6081 8.09622 97.7932 7.83307 96.9277C9.25881 96.1334 10.6189 95.2267 11.9004 94.2161C12.5994 96.7891 14.7009 100.684 17.4742 101.146C17.7936 101.198 18.1521 101.214 18.4933 101.246C19.6382 101.349 18.3901 101.608 18.3141 101.616C17.8762 101.647 17.4365 101.59 17.0216 101.446C16.5915 101.231 16.2879 101.983 16.5696 102.124C18.0158 103.329 19.2059 104.049 19.0552 104.233C18.934 104.384 18.3329 103.902 18.1514 103.781C17.6241 103.48 17.1722 103.179 16.7203 102.877C16.419 102.651 16.0424 103.179 16.2683 103.405C16.7203 103.857 17.1722 104.308 17.6241 104.685C18.9746 105.589 18.8044 106.326 17.5488 105.062C17.0216 104.685 16.5696 104.308 16.0424 103.932C15.9698 103.877 15.8801 103.851 15.7897 103.857C15.6993 103.864 15.6142 103.903 15.5501 103.967C15.486 104.031 15.4472 104.116 15.4407 104.206C15.4343 104.297 15.4607 104.387 15.5151 104.459L17.2957 106.24C17.6964 106.64 18.0911 106.79 18.0015 106.945C17.7665 107.351 12.1693 104.286 9.03822 99.338ZM12.3908 90.9637C12.3554 89.1007 12.8097 87.2611 13.7082 85.6287C13.8888 85.2731 14.1168 84.9437 14.3861 84.6495C14.3495 88.6271 14.0981 92.5998 13.6328 96.5503C12.6851 94.8482 12.2533 92.9071 12.39 90.9637H12.3908ZM32.7645 140.237C32.4632 140.312 28.9984 141.593 26.9648 140.388C26.5789 140.142 26.2555 139.81 26.0202 139.418C25.7849 139.025 25.6441 138.584 25.609 138.128C24.9311 133.232 25.7596 109.355 25.7596 108.526C31.0992 99.6272 28.3205 87.163 28.3205 77.6446C28.7024 77.7436 29.1078 77.6896 29.4504 77.494C29.5468 77.4678 29.6304 77.4076 29.6858 77.3245C29.7412 77.2414 29.7646 77.141 29.7517 77.042C29.6763 76.8914 29.4504 76.6654 29.2997 76.7407C28.4787 77.1324 27.6427 76.5901 26.9648 75.9875C26.8922 75.9331 26.8025 75.9067 26.7121 75.9131C26.6217 75.9196 26.5366 75.9584 26.4725 76.0225C26.4084 76.0866 26.3696 76.1717 26.3631 76.2621C26.3567 76.3525 26.3831 76.4422 26.4375 76.5148C26.7819 76.8324 27.1609 77.1103 27.5673 77.3433C27.5673 87.2541 30.2413 99.7297 24.9311 108.225C24.8946 108.281 24.8752 108.347 24.8752 108.413C24.8752 108.48 24.8946 108.546 24.9311 108.602C24.0513 116.542 22.1811 131.589 19.282 139.032C19.0459 139.708 18.6291 140.307 18.0768 140.764C16.4951 141.819 12.503 141.291 10.6953 139.333C9.49015 138.053 9.26418 136.094 9.18886 134.814C9.04689 132.252 9.10178 129.684 9.35306 127.131C9.62422 124.446 11.7566 106.482 12.6537 104.534C13.9836 105.711 15.4731 106.693 17.078 107.452C18.4052 107.872 18.9822 107.099 18.3028 106.417C18.3766 106.447 18.4559 106.461 18.5355 106.458C18.615 106.454 18.6929 106.434 18.7641 106.399C18.8353 106.363 18.8981 106.313 18.9484 106.251C18.9987 106.189 19.0354 106.118 19.056 106.041C19.0913 105.807 19.0686 105.568 18.9897 105.344C18.9109 105.121 18.7785 104.92 18.6041 104.76C19.7045 105.127 19.9516 104.15 19.3573 103.555C18.8774 103.073 18.3471 102.644 17.7755 102.275C19.813 102.275 20.2024 100.977 18.9234 100.63C17.6957 100.296 16.4807 100.716 15.2153 99.1858C14.7519 98.6628 14.3241 98.1092 13.9349 97.5287C13.9634 97.499 13.985 97.4634 13.998 97.4243C14.0111 97.3852 14.0152 97.3437 14.0102 97.3028C14.5193 92.9016 14.7959 88.4765 14.8387 84.0462C15.3257 83.4892 15.9135 83.0292 16.5711 82.6904C16.647 82.6463 16.7041 82.5761 16.7319 82.4929C16.7596 82.4097 16.756 82.3192 16.7218 82.2385C16.6771 82.1632 16.6069 82.1065 16.5239 82.0789C16.4409 82.0512 16.3507 82.0544 16.2698 82.0878C12.0044 84.0688 10.8572 90.5713 11.5999 93.5367C10.2878 94.6372 8.84596 95.5732 7.30657 96.3236C5.19757 90.9923 6.17675 85.3907 9.18961 80.6567C10.2569 78.6983 11.0802 77.9323 13.1063 76.514C17.89 73.1848 19.2074 74.6498 19.2074 73.7271C19.2012 73.6293 19.1595 73.537 19.0902 73.4677C19.0208 73.3984 18.9286 73.3567 18.8308 73.3505C18.6048 73.3505 18.3788 73.4258 18.1529 73.4258C17.4859 72.4873 17.0268 71.4174 16.806 70.2874C16.5852 69.1574 16.6078 67.9934 16.8724 66.8728C17.0984 65.594 17.5993 64.3794 18.3405 63.313C19.0818 62.2466 20.0457 61.3539 21.1657 60.6965C22.9758 59.5424 25.1636 59.1373 27.2668 59.5667C26.6306 60.1325 26.1617 60.862 25.911 61.6757C23.7207 67.3067 25.2113 71.2611 27.5681 73.0492C28.9661 74.1361 30.2043 74.2446 31.4419 73.6699C33.9395 72.5084 39.9954 67.1606 40.0707 67.1003L42.5563 70.1132C40.1182 73.6887 38.8656 76.3453 36.9825 78.6999C36.1359 79.9118 34.1098 82.1436 32.6892 82.6166C32.6496 82.6364 32.6144 82.6637 32.5854 82.6972C32.5564 82.7306 32.5343 82.7694 32.5203 82.8113C32.5063 82.8533 32.5007 82.8976 32.5038 82.9417C32.507 82.9859 32.5188 83.0289 32.5386 83.0685C32.5583 83.1081 32.5857 83.1434 32.6191 83.1723C32.6526 83.2013 32.6914 83.2234 32.7333 83.2374C32.7753 83.2514 32.8196 83.257 32.8637 83.2539C32.9079 83.2507 32.9509 83.2389 32.9905 83.2191C33.2558 83.1244 33.5087 82.9979 33.7437 82.8425C34.4683 89.8791 39.0162 137.111 32.7645 140.237ZM98.219 135.944L36.8319 123.139C36.9976 114.846 36.38 104.723 35.7774 96.3997L41.1252 87.7377L128.348 102.199L98.219 135.944ZM129.366 101.491L41.4265 86.8346C41.477 86.5597 41.9538 83.943 41.9538 83.7464C44.7708 82.7853 45.0668 82.7537 45.8976 82.4554L45.7101 83.6824L124.506 96.5503C123 96.0984 120.665 95.1945 119.535 94.8932C119.967 94.4278 119.873 94.4805 121.041 93.3115C119.234 92.8596 117.426 92.4829 115.694 92.031C115.166 92.4829 114.564 92.9349 113.961 93.3868C115.062 93.8002 116.185 94.1522 117.325 94.4413L46.699 82.8425C46.699 82.719 47.4884 78.2479 47.9795 75.3104L47.0756 75.0844C46.9785 75.5522 46.7141 77.1972 46.4429 78.9258L42.6309 79.2271C42.6309 78.788 43.5009 74.0578 43.5348 73.9546C44.4386 74.1805 45.4931 74.4818 46.6983 74.7831L49.1839 72.2975C48.9579 72.2222 48.732 72.2222 48.506 72.1469C50.3845 61.1236 50.3024 61.8384 50.389 61.7525C50.8619 61.2555 51.2671 60.6984 51.5942 60.0954C51.6613 59.9635 51.6942 59.8168 51.6897 59.6688C51.6852 59.5208 51.6435 59.3764 51.5684 59.2488C51.4934 59.1212 51.3874 59.0146 51.2602 58.9387C51.1331 58.8629 50.9889 58.8203 50.841 58.8149L56.3394 27.8578L139.871 35.0133C126.582 99.817 127.842 94.4421 127.368 94.4421C126.356 95.4536 126.502 95.6141 125.334 96.777C125.409 96.777 130.368 97.87 130.444 97.888C129.952 99.6717 129.553 100.986 129.365 101.491H129.366ZM131.088 95.5207C130.479 95.37 129.538 95.1147 128.65 94.8187L132.566 75.6117C135.504 75.1213 136.212 75.1514 136.577 75.0844C135.856 77.8555 132.958 88.5459 131.086 95.5207H131.088ZM137.123 72.9001H133.093L141.077 34.1848L55.587 26.8786C55.5757 26.9667 50.1721 57.1639 50.1638 57.2332C49.9115 57.0969 49.7872 57.237 49.034 57.6098C49.3571 57.0735 49.6494 56.4596 49.034 56.254C48.2725 56.0634 46.8775 57.3567 46.3224 57.9111C46.3224 57.6286 48.4849 46.5127 49.3353 41.9429C49.7872 39.4701 51.3328 26.3882 53.026 24.6943C53.7453 24.0536 54.6348 23.635 55.587 23.4891C58.7008 22.9701 136.747 28.4942 140.926 29.8914C141.721 29.9448 142.493 30.1765 143.186 30.5693C143.789 30.9459 144.692 32.2468 144.316 35.5406C143.169 45.489 139.537 63.6159 137.122 72.9001H137.123Z" fill="black"/>
<path id="Vector_32" d="M71.1784 76.2142L76.5263 76.9674C76.5263 76.8695 76.225 76.932 80.8949 76.4402L71.4797 75.1597C71.2943 75.1216 71.1241 75.0299 70.9902 74.896C70.8563 74.7621 70.7646 74.5919 70.7265 74.4065C70.6503 74.229 70.6311 74.0322 70.6716 73.8433C70.7121 73.6544 70.8102 73.4827 70.9525 73.352C71.9957 72.1273 80.7593 61.2252 80.8196 61.1499C80.623 60.951 80.8106 60.5473 81.2715 60.5473H81.3469C81.9494 59.7941 82.552 59.0409 83.1546 58.363C83.1781 57.8509 83.1013 57.3392 82.9286 56.8565C81.1209 59.1162 71.781 70.7157 70.0486 72.7494C69.8141 73.0287 69.6546 73.363 69.5851 73.721C69.5156 74.079 69.5385 74.4488 69.6515 74.7955C69.7646 75.1422 69.9641 75.4544 70.2313 75.7026C70.4984 75.9508 70.8244 76.1269 71.1784 76.2142ZM100.177 58.9655C100.253 58.9655 101.458 59.0522 101.307 59.0409C100.447 56.8912 99.2403 53.6441 98.8215 52.6385C98.5756 53.0953 98.3738 53.5745 98.2189 54.0696L100.177 58.9655ZM84.5857 56.4039C86.2428 54.3702 87.8998 52.3365 89.3309 50.6041C89.3432 50.3755 89.3178 50.1465 89.2556 49.9262C89.2556 49.4923 89.8718 49.5044 90.0088 49.7756C91.2713 48.1881 92.6565 46.7022 94.1515 45.3316C94.5281 45.7835 95.3567 47.3653 97.541 52.7131C97.8152 52.4052 98.0669 52.0779 98.2942 51.7339C96.2922 46.9201 95.3763 45.1523 94.84 44.5226C94.4024 44.0089 93.8977 44.1347 93.3833 44.5271C91.5906 45.8988 84.8802 54.1909 83.6065 55.8013C83.9556 55.9627 84.2843 56.165 84.5857 56.4039ZM100.78 60.5473C101.382 62.2044 102.06 63.8615 102.663 65.4432L103.115 65.6692C103.381 65.8017 103.345 66.2717 103.039 66.2717C104.169 69.2846 105.224 72.0715 106.128 74.4065C106.504 74.4065 106.881 74.3312 107.257 74.3312C105.826 70.4144 103.793 64.9913 101.759 59.8694C101.595 59.9508 100.78 60.3213 100.78 60.5473Z" fill="#F55555"/>
<path id="Vector_33" d="M108.839 107.172C104.931 106.232 95.0556 103.857 94.0011 103.631L95.1309 102.276C95.6055 101.568 94.6858 101.249 94.453 101.598C93.9258 102.2 93.4739 102.803 93.0219 103.405C86.3982 101.847 91.7347 103.073 77.2797 99.8654C77.807 99.2628 78.2589 98.6602 78.7861 98.0577C78.9368 97.8317 79.0121 97.6057 78.7861 97.3798C78.6355 97.2291 78.2589 97.1538 78.1083 97.3798L76.3005 99.6394C75.6226 99.4692 63.6857 96.8254 62.0648 96.4759C62.6673 95.7227 63.3452 94.8942 63.9478 94.1409C64.0984 93.915 64.1738 93.689 63.9478 93.463C63.7971 93.3124 63.4205 93.2371 63.2699 93.463C62.5167 94.3669 61.7635 95.2708 61.0103 96.25C57.3948 95.4967 49.1094 93.689 48.6575 93.6137C48.5982 93.5989 48.5365 93.5959 48.476 93.6049C48.4154 93.6139 48.3573 93.6347 48.3049 93.6662C48.2524 93.6976 48.2066 93.7391 48.1702 93.7883C48.1338 93.8374 48.1074 93.8933 48.0926 93.9526C48.0778 94.012 48.0748 94.0737 48.0838 94.1342C48.0928 94.1947 48.1136 94.2528 48.1451 94.3053C48.1765 94.3577 48.218 94.4035 48.2672 94.4399C48.3163 94.4763 48.3722 94.5027 48.4315 94.5176C61.2068 97.2193 60.3324 97.0032 60.4077 97.0785C59.2025 98.5849 57.9974 100.091 56.8676 101.673C56.3403 102.351 55.8131 103.029 55.2858 103.782C51.6704 103.029 43.385 101.221 42.9331 101.146C42.8728 101.128 42.8095 101.123 42.7471 101.13C42.6846 101.137 42.6243 101.157 42.5698 101.188C42.5152 101.22 42.4675 101.262 42.4296 101.312C42.3916 101.362 42.3642 101.419 42.349 101.48C42.3337 101.541 42.331 101.604 42.3409 101.666C42.3508 101.729 42.3731 101.788 42.4066 101.841C42.44 101.894 42.4839 101.94 42.5355 101.976C42.5872 102.012 42.6455 102.037 42.7071 102.05L54.4573 104.535C54.5326 104.535 54.6832 104.611 54.7586 104.611C53.4028 106.418 52.1223 108.226 50.8418 110.034C50.5405 110.486 50.1639 110.938 49.8626 111.39C46.6238 110.712 39.167 109.13 38.7151 109.055C38.5952 109.025 38.4683 109.044 38.3624 109.107C38.2565 109.171 38.1801 109.274 38.1501 109.394C38.1202 109.513 38.1391 109.64 38.2026 109.746C38.2662 109.852 38.3692 109.929 38.4891 109.958L49.3354 112.218C48.7328 113.047 48.1303 113.951 47.603 114.779C47.5431 114.879 47.5253 114.999 47.5535 115.112C47.5818 115.225 47.6538 115.322 47.7536 115.382C47.8535 115.442 47.9731 115.459 48.0861 115.431C48.1991 115.403 48.2963 115.331 48.3562 115.231C48.9588 114.252 49.6367 113.348 50.3146 112.369C54.2313 113.197 63.7218 115.306 64.5504 115.457C64.1738 116.06 63.7218 116.662 63.3452 117.189C63.2853 117.289 63.2675 117.409 63.2957 117.522C63.324 117.635 63.396 117.732 63.4959 117.792C63.5957 117.852 63.7153 117.87 63.8284 117.841C63.9414 117.813 64.0385 117.741 64.0984 117.641L65.4542 115.608C69.4056 116.462 77.0673 118.209 81.1211 119.223C80.6692 119.901 80.1419 120.579 79.69 121.257C79.6301 121.357 79.6123 121.476 79.6405 121.589C79.6688 121.702 79.7408 121.799 79.8407 121.859C79.9405 121.919 80.0601 121.937 80.1731 121.909C80.2861 121.881 80.3833 121.809 80.4432 121.709C80.9705 120.955 81.4977 120.202 82.025 119.374C82.8852 119.545 97.2851 122.878 98.5204 123.29C98.6403 123.32 98.7671 123.301 98.8731 123.238C98.979 123.174 99.0554 123.071 99.0853 122.951C99.1153 122.832 99.0964 122.705 99.0329 122.599C98.9693 122.493 98.8662 122.417 98.7464 122.387C94.8297 121.483 84.0587 118.922 82.5522 118.545C84.8759 115.294 86.8764 112.6 87.5235 111.766C88.8604 112.067 101.609 114.98 102.814 115.382C102.934 115.412 103.06 115.393 103.166 115.329C103.272 115.266 103.349 115.163 103.379 115.043C103.409 114.923 103.39 114.796 103.326 114.69C103.263 114.584 103.16 114.508 103.04 114.478C99.123 113.574 89.1805 111.164 88.126 110.938C89.3312 109.356 92.7207 104.912 93.2479 104.234C94.6617 104.549 107.349 107.479 108.463 107.849C109.216 108.226 109.442 107.316 108.839 107.172ZM60.257 98.7356C60.6269 98.2776 61.0103 97.8317 61.3869 97.3044C64.927 98.0577 74.4175 100.167 75.6226 100.468C73.6108 102.983 71.0747 106.353 70.5008 107.172C69.8116 106.999 57.8106 104.341 56.265 104.008C57.6208 102.2 58.8741 100.446 60.257 98.7356ZM65.0023 114.779C64.5504 114.704 64.0984 114.553 63.7218 114.478C59.8051 113.574 51.2184 111.766 50.8418 111.691C51.9717 110.109 55.2105 105.59 55.7377 104.837C59.2779 105.59 68.7684 107.624 69.9735 107.925C68.7684 109.582 67.5632 111.164 66.4334 112.821C65.8843 113.417 65.4042 114.074 65.0023 114.778V114.779ZM81.6484 118.545C79.5394 118.093 69.145 115.683 65.9815 115.005C68.4016 111.525 70.3117 109.055 70.8774 108.151C73.2123 108.678 83.6821 111.088 86.5443 111.691C84.8224 114.019 84.134 115.069 81.6484 118.544V118.545ZM88.4273 109.205C87.9889 109.744 87.5988 110.335 87.1469 110.938C84.6612 110.335 74.1915 108 71.48 107.398C73.7245 104.361 76.6018 100.855 76.6771 100.769C79.0121 101.296 89.5571 103.707 92.4194 104.309C90.9883 105.891 89.7485 107.581 88.4273 109.205ZM101.609 59.9449L102.738 59.493C102.838 59.463 102.922 59.3946 102.972 59.3028C103.021 59.211 103.032 59.1033 103.002 59.0034C102.972 58.9035 102.904 58.8196 102.812 58.7702C102.72 58.7208 102.612 58.7098 102.512 58.7398C102.069 58.8759 101.616 58.9766 101.157 59.0411C97.4509 59.0411 96.9198 56.804 98.1965 53.6782C98.4014 53.178 98.9776 51.9895 99.0477 51.8855C99.2322 51.5164 98.7599 50.9478 98.0926 51.826C97.6431 52.4275 97.1572 53.0007 96.6374 53.5426C95.8766 54.2084 94.2218 55.211 93.2479 55.049C91.5343 54.7063 90.6734 52.284 90.1559 50.3459C89.988 49.7163 90.0535 49.5069 89.6475 49.5257C89.5528 49.5191 89.4592 49.5493 89.3862 49.6101C89.3132 49.6708 89.2665 49.7575 89.2559 49.8518C89.2436 50.0804 89.269 50.3094 89.3312 50.5297C89.6174 56.5344 86.3748 58.2818 83.7574 55.6516C83.2392 55.0828 82.761 54.4788 82.3263 53.8439C82.2747 53.7676 82.1955 53.7143 82.1054 53.6952C82.0154 53.6761 81.9214 53.6927 81.8433 53.7415C81.7652 53.7903 81.7091 53.8675 81.6868 53.9568C81.6645 54.0462 81.6777 54.1407 81.7237 54.2205C82.3549 55.3767 83.1548 56.8259 83.1548 58.0619C83.2006 58.6499 83.0409 59.2356 82.7029 59.719C82.4016 60.0956 81.9497 60.5475 81.4224 60.4722C80.6767 60.4722 80.6797 61.2254 81.1964 61.2254C83.8545 61.0348 84.8194 65.0886 79.8407 66.1966C79.7619 66.2189 79.6936 66.2684 79.6479 66.3363C79.6022 66.4042 79.5821 66.4861 79.5911 66.5675C79.6002 66.6488 79.6378 66.7243 79.6973 66.7806C79.7567 66.8368 79.8342 66.8701 79.916 66.8745C81.3614 66.8745 82.6449 65.8396 83.9833 67.1758C85.4596 68.6529 85.065 71.3396 84.134 73.2015L83.908 73.6535C83.6821 74.0301 84.2846 74.4067 84.5106 74.0301C84.5838 73.863 84.6858 73.71 84.8119 73.5781C85.4898 72.2977 86.3183 71.0172 87.7494 70.49C90.1981 69.5108 91.3483 72.2743 91.8168 74.8586C91.8168 75.1117 92.6453 75.2766 92.6453 74.7833C92.5148 73.3741 92.7214 71.9542 93.2479 70.6406C94.0011 69.504 95.5663 69.5469 96.7127 70.264C97.3757 70.6292 97.9842 71.0856 98.5204 71.6198C98.7554 71.8548 99.3693 71.6138 98.9678 70.9577C98.4767 70.1555 97.6602 69.2065 98.0685 67.7784C98.1224 67.514 98.2305 67.2637 98.3861 67.0433C98.5417 66.8229 98.7413 66.6372 98.9723 66.4979C99.2879 66.3405 101.51 65.8019 102.677 66.2847C103.347 66.5612 103.586 65.9247 102.927 65.6114C101.775 65.063 100.229 63.8511 99.8852 62.603C99.5553 61.4069 100.705 60.1709 101.609 59.9449ZM98.7464 65.7447C97.3906 66.1966 96.9387 67.929 97.1646 69.2095C97.2399 69.4355 97.3153 69.7367 97.3906 69.9627C96.5856 69.4306 95.6439 69.1429 94.679 69.1342C93.1349 69.3051 91.8168 69.8934 91.8168 72.6743C91.1751 70.7438 89.7221 69.1545 87.7494 69.8121C86.8364 70.1063 86.0263 70.655 85.4145 71.3938C85.5839 69.8829 85.5116 68.3199 84.5106 67.1758C84.2873 66.8787 84.0046 66.6315 83.6803 66.4499C83.3561 66.2683 82.9975 66.1564 82.6276 66.1213H82.2509C82.6962 65.8514 83.0808 65.4924 83.3808 65.0668C83.6134 64.7511 83.7738 64.3882 83.8507 64.0037C83.9276 63.6191 83.919 63.2224 83.8256 62.8416C83.7322 62.4607 83.5562 62.1051 83.3101 61.7998C83.064 61.4945 82.7539 61.2469 82.4016 61.0748C82.9138 60.6888 83.3061 60.1654 83.5327 59.5655C83.7594 58.9655 83.8112 58.3135 83.6821 57.6853C83.6427 57.3516 83.5669 57.0233 83.4561 56.7061C83.6821 56.8567 83.8327 57.0074 84.0587 57.158C86.8704 59.032 89.4555 56.8974 89.8584 53.5426C89.9338 53.0907 89.9338 52.6387 90.0091 52.1868C90.6968 54.2491 92.3086 56.5668 94.3777 55.8776C95.6236 55.5509 96.7485 54.8707 97.6166 53.9192C97.6166 53.9945 96.2095 57.1821 97.9178 58.8904C98.6976 59.5435 99.6879 59.8914 100.705 59.8696C99.0032 61.5704 98.5716 63.1875 100.705 64.9915C100.924 65.1454 101.126 65.3221 101.307 65.5187C100.966 65.1783 98.9023 65.6664 98.7464 65.7447Z" fill="black"/>
<path id="Vector_34" d="M90.3857 61.074C90.4398 60.9646 90.4494 60.8386 90.4127 60.7223C90.3759 60.606 90.2956 60.5084 90.1885 60.45C90.0814 60.3916 89.9559 60.3768 89.8382 60.4089C89.7205 60.441 89.6198 60.5174 89.5571 60.622C89.3136 60.9086 88.9832 61.1077 88.6161 61.1893C88.2491 61.2709 87.8654 61.2304 87.5234 61.074C87.2127 60.9749 86.9321 60.7985 86.7082 60.5614C86.4842 60.3242 86.3241 60.0341 86.243 59.7182C86.2351 59.6009 86.1849 59.4905 86.1018 59.4074C86.0187 59.3243 85.9083 59.2742 85.7911 59.2662C85.7309 59.2631 85.6707 59.2726 85.6145 59.2942C85.5582 59.3158 85.5071 59.349 85.4645 59.3916C85.4219 59.4342 85.3887 59.4853 85.3671 59.5416C85.3455 59.5978 85.336 59.658 85.3391 59.7182C85.6826 62.13 89.1135 63.0511 90.3857 61.074ZM95.8088 59.1163C95.7666 59.1917 96.0438 59.7897 94.8296 60.3968C93.6102 60.8028 93.4302 60.1339 93.2426 60.0066C92.8487 59.7408 92.3704 60.3471 92.6453 60.6228C92.9545 61.003 93.3819 61.2689 93.8597 61.3781C94.3374 61.4873 94.8379 61.4335 95.2816 61.2253C95.7116 61.0531 96.0869 60.7675 96.3674 60.3989C96.6479 60.0303 96.8232 59.5925 96.8746 59.1322C96.8038 58.5251 95.8088 58.4874 95.8088 59.1163ZM89.3312 63.1837C88.7318 63.5143 88.2164 63.9781 87.8247 64.5395C87.788 64.5867 87.7625 64.6417 87.7502 64.7003C87.7378 64.7588 87.7389 64.8194 87.7535 64.8774C87.768 64.9355 87.7955 64.9895 87.8339 65.0353C87.8724 65.0812 87.9208 65.1177 87.9754 65.1421C88.3354 65.3823 88.4725 65.0991 88.7768 64.7918C89.7098 63.9751 90.9209 63.5482 92.1598 63.5994C93.3987 63.6506 94.5705 64.1759 95.433 65.0668C95.5836 65.2927 95.8849 65.2174 96.1109 65.0668C96.1847 64.9692 96.2246 64.8502 96.2246 64.7278C96.2246 64.6054 96.1847 64.4864 96.1109 64.3889C95.2478 63.5058 94.1301 62.9148 92.9143 62.6987C91.6986 62.4826 90.4457 62.6522 89.3312 63.1837ZM123.603 73.1254C122.774 74.4812 122.021 75.837 121.192 77.1928C122.154 77.0557 127.376 76.3642 127.595 76.3642C128.122 75.2344 128.649 74.0293 129.176 72.8994C124.475 72.8994 123.603 73.1254 123.603 73.1254ZM102.512 74.7072C102.468 74.7825 99.9515 79.1511 99.9515 79.2265C100.897 79.2265 101.383 79.005 105.299 78.7745C105.343 78.6954 107.526 74.8714 107.936 74.2552C107.892 74.2552 102.43 74.7072 102.512 74.7072ZM68.391 80.8835L70.8013 77.4195L76.6764 76.8922L74.2653 80.6583L72.5337 82.0134L68.391 80.8835ZM58.4486 78.172L61.2355 75.7624L65.9054 77.1175L63.1185 79.4532L64.4743 79.8298L63.6457 81.1103L58.3732 81.3362L60.0303 78.6239L58.4486 78.172Z" fill="black"/>
<path id="Vector_35" d="M54.2306 77.0429L57.1682 74.4819L61.2355 75.7624L58.4486 78.1719L60.0304 78.6239L58.3733 81.3362L53.7034 81.6367L55.6617 78.2473L57.9455 78.059L54.2306 77.0429Z" fill="#FFD35C"/>
</g>
</svg>
