<svg width="151" height="151" viewBox="0 0 151 151" fill="none" xmlns="http://www.w3.org/2000/svg">
<g id="Waiting-1--Streamline-Barcelona">
<path id="Vector" d="M81.1512 24.9315C81.0006 34.239 79.8098 104.872 79.6358 115.304C79.6404 115.412 79.6865 115.514 79.7646 115.589C79.8427 115.664 79.9467 115.706 80.0549 115.706C80.1631 115.706 80.2671 115.664 80.3452 115.589C80.4234 115.514 80.4695 115.412 80.4741 115.304C80.679 102.971 81.8788 31.5576 81.9903 24.9315C81.9903 24.8203 81.9461 24.7135 81.8674 24.6349C81.7888 24.5562 81.682 24.512 81.5708 24.512C81.4595 24.512 81.3528 24.5562 81.2741 24.6349C81.1954 24.7135 81.1512 24.8203 81.1512 24.9315ZM45.2522 62.8183V75.8399C45.2568 75.948 45.3029 76.0501 45.3811 76.125C45.4592 76.1999 45.5632 76.2417 45.6714 76.2417C45.7796 76.2417 45.8836 76.1999 45.9617 76.125C46.0398 76.0501 46.0859 75.948 46.0905 75.8399V62.8183C46.0859 62.7102 46.0398 62.6081 45.9617 62.5332C45.8836 62.4583 45.7796 62.4165 45.6714 62.4165C45.5632 62.4165 45.4592 62.4583 45.3811 62.5332C45.3029 62.6081 45.2568 62.7102 45.2522 62.8183ZM51.3691 62.8183V75.0513C51.3691 75.1625 51.4133 75.2693 51.492 75.3479C51.5706 75.4266 51.6773 75.4708 51.7886 75.4708C51.8999 75.4708 52.0066 75.4266 52.0853 75.3479C52.1639 75.2693 52.2082 75.1625 52.2082 75.0513V62.8183C52.2082 62.707 52.1639 62.6003 52.0853 62.5216C52.0066 62.443 51.8999 62.3988 51.7886 62.3988C51.6773 62.3988 51.5706 62.443 51.492 62.5216C51.4133 62.6003 51.3691 62.707 51.3691 62.8183ZM57.7224 62.8183C57.9986 66.0358 57.9898 69.2714 57.6961 72.4873C57.6471 73.0244 58.4862 73.0214 58.5352 72.4873C58.8288 69.2714 58.8377 66.0358 58.5615 62.8183C58.5156 62.2813 57.6765 62.2767 57.7224 62.8183ZM66.2413 24.5436C66.2367 24.4355 66.1906 24.3334 66.1125 24.2585C66.0344 24.1836 65.9303 24.1418 65.8222 24.1418C65.714 24.1418 65.61 24.1836 65.5318 24.2585C65.4537 24.3334 65.4076 24.4355 65.403 24.5436C65.7527 40.5858 65.7068 56.6342 65.2652 72.6741C65.2697 72.7822 65.3159 72.8844 65.394 72.9592C65.4721 73.0341 65.5761 73.0759 65.6843 73.0759C65.7925 73.0759 65.8965 73.0341 65.9746 72.9592C66.0527 72.8844 66.0989 72.7822 66.1035 72.6741C66.5419 56.7383 66.5953 40.7378 66.2413 24.5436ZM73.2877 24.9383C73.1958 31.2849 72.5924 71.9955 72.4983 78.4076C72.5029 78.5157 72.549 78.6179 72.6271 78.6927C72.7053 78.7676 72.8093 78.8094 72.9175 78.8094C73.0257 78.8094 73.1297 78.7676 73.2078 78.6927C73.2859 78.6179 73.332 78.5157 73.3366 78.4076L74.1267 24.9383C74.1267 24.827 74.0825 24.7203 74.0039 24.6416C73.9252 24.563 73.8185 24.5188 73.7072 24.5188C73.5959 24.5188 73.4892 24.563 73.4105 24.6416C73.3319 24.7203 73.2877 24.827 73.2877 24.9383Z" fill="#DCBEFF"/>
<path id="Vector_2" d="M80.4033 97.9122C80.2951 97.1689 80.0051 96.4638 79.5592 95.8594C79.1133 95.255 78.5251 94.77 77.8468 94.4474C77.3761 87.5125 75.7446 79.9796 70.4488 75.5213C67.427 72.9866 63.5298 71.7416 59.5981 72.0552C55.6665 72.3687 52.0158 74.2156 49.434 77.1972C47.7137 75.747 45.5108 74.9968 43.2629 75.0957C43.3919 88.2933 43.1201 101.492 42.4479 114.673C53.3492 115.819 64.3043 116.378 75.2656 116.347C75.2934 116.25 75.3183 116.155 75.3454 116.058C78.4336 116.048 79.3879 107.335 79.8768 104.418C80.2308 102.309 80.8198 100.051 80.4033 97.9122ZM43.925 107.299C43.6364 106.949 43.4362 106.535 43.3413 106.092C43.2464 105.648 43.2596 105.188 43.3799 104.751C43.5001 104.313 43.7238 103.911 44.032 103.578C44.3403 103.245 44.7241 102.992 45.1511 102.838C45.578 102.685 46.0356 102.636 46.4852 102.697C46.9348 102.758 47.3632 102.926 47.7343 103.187C48.1053 103.448 48.4082 103.794 48.6172 104.197C48.8263 104.599 48.9354 105.046 48.9354 105.5C48.9226 106.076 48.7355 106.635 48.3986 107.103C48.0617 107.571 47.5909 107.926 47.0483 108.121C46.5057 108.316 45.9168 108.341 45.3592 108.195C44.8016 108.048 44.3016 107.736 43.925 107.299Z" fill="#B26EE6"/>
<path id="Vector_3" d="M45.4025 39.3421L45.2632 24.9391C45.2586 24.831 45.2124 24.7289 45.1343 24.654C45.0562 24.5792 44.9522 24.5374 44.844 24.5374C44.7358 24.5374 44.6318 24.5792 44.5537 24.654C44.4756 24.7289 44.4294 24.831 44.4249 24.9391L44.5635 39.3421C44.5635 39.4534 44.6077 39.5601 44.6863 39.6388C44.765 39.7175 44.8717 39.7617 44.983 39.7617C45.0943 39.7617 45.201 39.7175 45.2797 39.6388C45.3583 39.5601 45.4025 39.4534 45.4025 39.3421ZM51.4019 24.9414C51.4019 25.0167 51.1684 39.5907 51.1654 39.8732C51.17 39.9812 51.2161 40.0834 51.2943 40.1583C51.3724 40.2331 51.4764 40.2749 51.5846 40.2749C51.6928 40.2749 51.7968 40.2331 51.8749 40.1583C51.953 40.0834 51.9991 39.9812 52.0037 39.8732L52.241 24.9414C52.241 24.8301 52.1968 24.7234 52.1181 24.6447C52.0394 24.5661 51.9327 24.5219 51.8215 24.5219C51.7102 24.5219 51.6035 24.5661 51.5248 24.6447C51.4461 24.7234 51.4019 24.8301 51.4019 24.9414ZM58.0724 39.1418C58.2667 34.4061 58.4618 29.6708 58.6576 24.9361C58.6802 24.3961 57.8412 24.3976 57.8193 24.9361C57.6235 29.6718 57.4284 34.4071 57.2341 39.1418C57.2122 39.6811 58.0513 39.6803 58.0724 39.1418ZM89.6645 25.5342C89.6645 25.4229 89.6203 25.3162 89.5417 25.2375C89.463 25.1588 89.3563 25.1146 89.245 25.1146C89.1337 25.1146 89.027 25.1588 88.9483 25.2375C88.8697 25.3162 88.8255 25.4229 88.8255 25.5342C89.5636 55.5551 89.608 85.2921 88.9761 115.103C88.9807 115.211 89.0268 115.313 89.105 115.388C89.1831 115.463 89.2871 115.505 89.3953 115.505C89.5035 115.505 89.6075 115.463 89.6856 115.388C89.7637 115.313 89.8098 115.211 89.8144 115.103C90.4501 85.1204 90.3929 55.4436 89.6645 25.5342ZM98.7928 25.9243C98.7882 25.8162 98.742 25.7141 98.6639 25.6392C98.5858 25.5644 98.4818 25.5226 98.3736 25.5226C98.2654 25.5226 98.1614 25.5644 98.0833 25.6392C98.0052 25.7141 97.959 25.8162 97.9544 25.9243C97.9544 27.7132 98.1171 118.684 98.1164 117.469C98.121 117.577 98.1671 117.679 98.2452 117.754C98.3233 117.829 98.4273 117.871 98.5355 117.871C98.6437 117.871 98.7477 117.829 98.8259 117.754C98.904 117.679 98.9501 117.577 98.9547 117.469L98.7928 25.9243Z" fill="#DCBEFF"/>
<path id="Vector_4" d="M117.674 42.6903C117.953 42.7345 118.239 42.6848 118.488 42.5492C118.736 42.4135 118.932 42.1994 119.046 41.9403C119.16 41.6812 119.185 41.3917 119.116 41.1171C119.048 40.8425 118.891 40.5982 118.669 40.4223C118.455 40.2087 118.176 40.0723 117.876 40.0347C117.576 39.9972 117.271 40.0605 117.011 40.2148C116.751 40.369 116.549 40.6055 116.438 40.8869C116.327 41.1683 116.313 41.4787 116.398 41.7691C116.505 42.025 116.681 42.2464 116.906 42.4089C117.131 42.5714 117.397 42.6688 117.674 42.6903ZM118.394 40.8622C119.194 41.797 117.857 42.6473 117.086 41.9069C116.221 41.0776 117.633 39.9719 118.394 40.8622ZM126.841 77.4595C126.576 76.7285 126.052 76.1205 125.367 75.7517C124.683 75.3828 123.887 75.2789 123.131 75.4597C120.884 76.2061 120.301 79.8133 122.539 80.9491C124.802 82.0963 127.84 80.0121 126.841 77.4595ZM123.264 75.9455C123.837 75.8033 124.441 75.8601 124.977 76.1065C125.513 76.3528 125.949 76.7742 126.214 77.3013C127.352 79.344 125.16 81.2934 123.099 80.6388C120.979 79.9632 121.256 76.6136 123.267 75.9455H123.264ZM127.392 77.7073L129.165 78.0154C129.482 78.0696 129.617 77.5853 129.299 77.5295L127.526 77.2215C127.209 77.1665 127.072 77.6516 127.392 77.7073ZM127.45 79.8412H128.929C128.993 79.8376 129.054 79.8096 129.098 79.7627C129.143 79.7158 129.167 79.6537 129.167 79.5892C129.167 79.5247 129.143 79.4626 129.098 79.4157C129.054 79.3689 128.993 79.3408 128.929 79.3373H127.45C127.385 79.3408 127.324 79.3689 127.28 79.4157C127.236 79.4626 127.211 79.5247 127.211 79.5892C127.211 79.6537 127.236 79.7158 127.28 79.7627C127.324 79.8096 127.385 79.8376 127.45 79.8412ZM146.635 120.793C143.412 120.595 140.19 120.396 136.967 120.195C136.644 120.176 136.646 120.679 136.967 120.699L146.635 121.297C146.958 121.316 146.956 120.816 146.635 120.793Z" fill="black"/>
<path id="Vector_5" d="M132.575 9.75045C132.575 9.71175 132.565 9.67365 132.548 9.63906C132.531 9.60448 132.506 9.57431 132.475 9.55085C132.444 9.52739 132.408 9.51127 132.37 9.5037C132.332 9.49613 132.293 9.49731 132.256 9.50716C121.759 12.9064 112.747 17.2811 104.338 23.7347C104.085 23.929 104.338 24.3666 104.592 24.1693C113.147 17.6088 122.181 13.3305 132.077 10.0984C132.818 47.6011 132.859 83.5717 131.64 121.023C123.381 121.604 115.17 120.277 106.935 119.893C107.377 88.7026 106.501 56.9997 104.069 24.2408C104.067 24.1748 104.04 24.112 103.993 24.0652C103.946 24.0185 103.883 23.9913 103.817 23.9893C82.7031 22.2953 61.4993 21.7718 40.4808 21.9473C40.4142 21.9477 40.3504 21.9743 40.3033 22.0214C40.2562 22.0685 40.2296 22.1323 40.2292 22.1989C43.0688 54.6056 43.5506 87.1757 41.6709 119.652C29.1262 120.356 16.5511 120.325 4.01005 119.56C3.68616 119.541 3.68767 120.045 4.01005 120.064C16.6313 120.834 29.2868 120.86 41.9111 120.143C41.9773 120.142 42.0403 120.115 42.0871 120.068C42.1339 120.021 42.161 119.958 42.1627 119.892C43.9981 88.3864 43.607 56.7908 40.9922 25.3405C61.0006 24.6581 81.4173 24.9119 103.713 26.3302C105.445 50.2825 106.408 74.1889 106.531 99.0804C106.638 120.931 106.154 120.365 106.682 120.387C115.085 120.755 123.46 122.144 131.886 121.512C131.952 121.51 132.015 121.483 132.062 121.437C132.109 121.39 132.136 121.327 132.137 121.26C133.368 83.6432 133.371 47.2365 132.575 9.75045ZM40.9493 24.8389C40.8838 24.042 40.8212 23.2458 40.7527 22.4497C61.8684 22.2795 82.7882 22.815 103.581 24.4788C103.615 24.9308 103.643 25.3767 103.676 25.8248C81.4557 24.4118 60.972 24.1519 40.9493 24.8389Z" fill="black"/>
<path id="Vector_6" d="M112.611 105.12C112.432 105.115 112.255 105.146 112.089 105.212C111.922 105.277 111.771 105.375 111.644 105.5C111.517 105.626 111.416 105.775 111.348 105.94C111.28 106.105 111.246 106.282 111.248 106.461C111.25 106.639 111.288 106.816 111.36 106.979C111.432 107.142 111.536 107.29 111.666 107.412C111.796 107.534 111.95 107.629 112.117 107.69C112.285 107.752 112.463 107.778 112.642 107.769H126.508C126.694 107.784 126.881 107.76 127.057 107.699C127.232 107.637 127.393 107.539 127.529 107.412C127.665 107.284 127.772 107.129 127.844 106.958C127.916 106.786 127.952 106.601 127.948 106.415C127.944 106.229 127.901 106.045 127.822 105.877C127.743 105.708 127.629 105.558 127.489 105.436C127.348 105.314 127.183 105.223 127.005 105.168C126.827 105.114 126.639 105.098 126.454 105.12C114.785 105.107 114.009 105.091 112.611 105.12ZM125.511 105.624C126.145 105.624 127.265 105.429 127.44 106.277C127.464 106.397 127.461 106.52 127.431 106.638C127.402 106.756 127.347 106.866 127.27 106.96C127.193 107.055 127.097 107.131 126.987 107.184C126.877 107.237 126.757 107.265 126.636 107.266H112.642C112.482 107.276 112.322 107.238 112.183 107.159C112.044 107.08 111.93 106.961 111.857 106.819C111.783 106.676 111.753 106.516 111.769 106.356C111.785 106.197 111.847 106.045 111.947 105.92C112.278 105.525 111.438 105.624 125.511 105.624ZM81.0118 98.7292C80.6932 94.3108 76.9799 92.3321 73.781 94.7839C71.3149 96.6729 71.0332 99.841 70.9511 102.919C70.8622 106.263 70.7877 109.413 71.6433 112.719C72.1774 114.784 73.0986 116.356 75.2023 116.566C77.4423 116.734 78.6859 113.142 79.229 110.958C79.6553 109.237 79.8752 107.462 80.1682 105.715C80.7331 102.344 81.1339 100.418 81.0118 98.7292ZM79.8767 104.417C79.3495 107.54 78.3914 116.294 75.2015 116.061C73.6687 115.911 72.8138 114.715 72.3536 113.35C71.2155 109.971 71.2991 105.092 71.5085 101.512C71.6185 99.6413 71.9213 97.5806 73.1513 96.0884C74.1531 94.869 75.7943 93.9252 77.413 94.3041C79.0798 94.695 80.0967 96.3249 80.4032 97.9142C80.8198 100.051 80.23 102.308 79.8767 104.417ZM136.649 9.86701C136.63 9.73313 136.561 9.61163 136.455 9.52807C135.419 8.97547 134.238 8.75659 133.073 8.90139C132.756 8.94131 132.752 9.44597 133.073 9.40529C134.127 9.26466 135.199 9.44858 136.146 9.93254C136.429 45.5682 135.908 82.5423 134.582 120.855C134.571 121.18 135.074 121.179 135.085 120.855C136.419 83.8749 136.94 46.87 136.649 9.86701Z" fill="black"/>
<path id="Vector_7" d="M84.5017 118.529C82.7125 119.395 81.237 120.796 80.2799 122.538C78.3667 125.672 79.9643 128.355 83.945 127.451C86.8577 126.79 90.6027 124.583 91.4772 121.796C91.6888 121.19 91.7315 120.537 91.6009 119.909C91.4702 119.28 91.171 118.699 90.7353 118.227C90.2562 117.826 89.6853 117.55 89.0735 117.423C88.4617 117.296 87.8281 117.323 87.2291 117.5C86.2747 117.709 85.3559 118.055 84.5017 118.529Z" fill="#FFD35C"/>
<path id="Vector_8" d="M92.331 70.7097C92.3274 70.5328 92.2555 70.3642 92.1304 70.2392C92.0054 70.1141 91.8368 70.0422 91.6599 70.0385C91.4825 70.0403 91.3128 70.1116 91.1873 70.2371C91.0619 70.3625 90.9906 70.5322 90.9888 70.7097C93.012 111.074 92.5442 101.772 93.1151 113.139C93.1186 113.316 93.1903 113.484 93.3153 113.61C93.4402 113.735 93.6087 113.807 93.7855 113.81C93.9629 113.808 94.1326 113.737 94.2581 113.612C94.3836 113.486 94.4549 113.317 94.4566 113.139L92.331 70.7097ZM97.361 48.5372L83.3572 48.7843C82.6735 55.7451 81.484 62.647 79.7983 69.4352C87.3027 69.8071 94.8251 69.5552 102.288 68.682C99.8896 62.2842 98.7665 55.2265 97.361 48.5372Z" fill="#FF8684"/>
<path id="Vector_9" d="M62.9634 83.1206L61.3583 82.2168L62.2621 80.8987C62.4459 80.6313 62.0098 80.3789 61.8275 80.6448L60.9169 81.9697L59.8051 81.3476C59.7478 81.3186 59.6816 81.3126 59.62 81.3307C59.5584 81.3489 59.5061 81.3898 59.4736 81.4452C59.4412 81.5007 59.4311 81.5663 59.4454 81.629C59.4596 81.6916 59.4973 81.7464 59.5506 81.7822L60.6314 82.39L59.6583 83.8053C59.4737 84.0727 59.9098 84.325 60.0921 84.0592L61.0713 82.6371L62.708 83.5575C62.766 83.5914 62.835 83.6008 62.8999 83.5838C62.9648 83.5668 63.0203 83.5247 63.0541 83.4667C63.088 83.4088 63.0975 83.3398 63.0804 83.2749C63.0634 83.21 63.0213 83.1545 62.9634 83.1206Z" fill="black"/>
<path id="Vector_10" d="M59.8269 39.6312C55.7934 39.5762 46.1003 39.4339 41.874 39.3352C41.8095 39.3387 41.7489 39.3668 41.7045 39.4137C41.6602 39.4605 41.6354 39.5226 41.6354 39.5872C41.6354 39.6517 41.6602 39.7138 41.7045 39.7606C41.7489 39.8075 41.8095 39.8356 41.874 39.8391C45.9368 39.9333 55.5667 40.0756 59.5889 40.1314C59.8465 45.0596 60.4649 56.7089 60.794 62.3068C54.7721 62.1079 49.0868 62.4936 42.8577 62.2714C42.5338 62.2593 42.5346 62.7625 42.8577 62.7738C49.0521 62.9998 54.702 62.5885 61.0599 62.8175C61.1265 62.8171 61.1903 62.7904 61.2374 62.7433C61.2845 62.6963 61.3111 62.6325 61.3115 62.5659C59.9015 38.8818 60.2939 39.6395 59.8269 39.6312Z" fill="#FF8684"/>
<path id="Vector_11" d="M56.3863 41.6191C56.6288 45.508 57.3105 56.3738 57.5621 60.3538C52.273 60.2876 48.1303 60.1618 42.9113 60.4081C42.5896 60.4231 42.5874 60.9263 42.9113 60.9105C48.2666 60.6604 53.4834 60.8118 57.8302 60.8615C57.8966 60.8609 57.9602 60.8343 58.0072 60.7874C58.0542 60.7406 58.081 60.6771 58.0818 60.6107C57.7285 55.0369 56.8766 41.4669 56.8766 41.3638C56.8757 41.2973 56.8488 41.2339 56.8019 41.1869C56.7549 41.14 56.6915 41.1132 56.6251 41.1122C53.1603 41.1702 45.5445 41.2899 42.0752 41.3095C42.0085 41.3095 41.9445 41.336 41.8973 41.3832C41.8501 41.4304 41.8236 41.4944 41.8236 41.5611C41.8236 41.6278 41.8501 41.6918 41.8973 41.739C41.9445 41.7862 42.0085 41.8127 42.0752 41.8127C45.6048 41.7916 52.8695 41.6763 56.3863 41.6191Z" fill="#FF8684"/>
<path id="Vector_12" d="M45.3788 100.878C53.7242 99.8488 62.1218 99.299 70.5302 99.2312C70.5946 99.2277 70.6553 99.1996 70.6996 99.1528C70.744 99.1059 70.7687 99.0438 70.7687 98.9793C70.7687 98.9147 70.744 98.8526 70.6996 98.8058C70.6553 98.7589 70.5946 98.7308 70.5302 98.7273C62.1217 98.7924 53.724 99.3421 45.3788 100.374C45.0617 100.414 45.0579 100.917 45.3788 100.878ZM96.8882 116.035C95.4929 116.199 94.0818 115.911 92.8618 115.214C91.6418 114.518 90.6772 113.448 90.1093 112.163C90.0106 111.927 89.5903 111.919 89.6144 112.23C89.7342 113.812 89.6061 115.394 89.7259 116.975C89.7508 117.296 90.2532 117.299 90.2291 116.975C90.1379 115.761 90.1899 114.543 90.165 113.329C90.7008 114.15 91.3992 114.853 92.2172 115.394C93.0352 115.935 93.9553 116.302 94.9208 116.473L91.0004 117.348C90.6848 117.419 90.8181 117.904 91.1344 117.834L97.0238 116.519C97.3454 116.447 97.1993 115.991 96.8882 116.035ZM89.17 121.598C89.17 120.549 87.8798 119.599 86.3605 120.36C86.3192 119.908 86.1113 119.487 85.7772 119.18C85.4431 118.873 85.0067 118.701 84.5528 118.697C85.1868 118.111 86.0246 117.795 86.8878 117.818C87.5506 117.893 87.592 118.654 87.6711 119.167C87.7103 119.417 88.1027 119.393 88.157 119.167C88.3076 118.547 89.0397 117.915 89.6634 118.386C89.9166 118.621 90.0809 118.936 90.1286 119.278C90.1762 119.62 90.1042 119.968 89.9248 120.263C89.8911 120.321 89.8817 120.39 89.8987 120.454C89.9156 120.519 89.9575 120.574 90.0151 120.607C90.0728 120.641 90.1414 120.651 90.206 120.634C90.2705 120.617 90.3257 120.575 90.3594 120.517C90.5552 120.073 91.1879 119.839 91.4809 120.344C91.5799 120.619 91.609 120.914 91.5658 121.204C91.5225 121.493 91.4082 121.767 91.2331 122.001C91.0591 122.275 91.4952 122.528 91.6677 122.255C92.6823 120.652 91.801 119.219 90.6275 119.63C90.7458 117.94 89.0985 117.037 88.0319 118.334C87.5597 116.575 85.187 117.362 83.9706 118.547C83.9422 118.573 83.921 118.605 83.9088 118.641C83.8967 118.677 83.8941 118.716 83.9013 118.753C83.0545 118.994 82.3168 119.52 81.8126 120.241C81.6198 120.503 82.0567 120.754 82.2472 120.495C83.8553 118.311 86.2227 119.29 85.8205 120.699C85.5343 120.915 85.2751 121.164 85.0484 121.441C85.0112 121.481 84.9878 121.532 84.9818 121.587C84.9757 121.641 84.9873 121.696 85.0149 121.743C85.0424 121.79 85.0844 121.827 85.1347 121.849C85.185 121.87 85.2408 121.875 85.294 121.862C85.5104 121.804 85.7098 121.695 85.8759 121.544C86.0419 121.394 86.1698 121.206 86.2491 120.996C87.6049 120.057 88.9606 120.928 88.6209 121.9C88.3721 122.08 88.1358 122.276 87.9137 122.488C87.7141 122.672 87.9302 122.948 88.1592 122.909C88.3452 122.871 88.5201 122.791 88.6698 122.675C88.8195 122.558 88.94 122.409 89.0217 122.237C89.9074 121.685 90.6478 122.094 90.6561 122.645C90.6697 123.605 89.39 124.008 88.6684 124.709C88.6195 124.483 88.5204 124.271 88.3785 124.088C88.2365 123.906 88.0553 123.758 87.8482 123.655C87.6412 123.552 87.4137 123.497 87.1825 123.494C86.9513 123.49 86.7224 123.539 86.5127 123.637C86.5936 123.385 86.5854 123.112 86.4894 122.866C86.3934 122.619 86.2155 122.412 85.9854 122.281C85.6548 122.093 85.2737 122.013 84.8955 122.053C84.5173 122.093 84.161 122.25 83.8764 122.502C83.851 122.23 83.7488 121.972 83.582 121.756C83.4152 121.541 83.1905 121.377 82.9342 121.285C81.555 120.833 80.5171 122.103 79.8324 123.092C79.6403 123.373 79.6968 123.813 80.029 123.733C81.1633 123.491 82.3468 123.688 83.3421 124.283C84.3375 124.878 85.0711 125.827 85.3957 126.941C85.4143 127.004 85.457 127.057 85.5146 127.089C85.5722 127.121 85.6401 127.129 85.7036 127.112C85.7672 127.094 85.8213 127.053 85.8544 126.996C85.8876 126.939 85.897 126.871 85.8807 126.807C85.8619 126.732 85.8355 126.665 85.813 126.594C86.7228 126.495 88.3332 126.091 88.633 125.163C88.6779 125.199 88.735 125.217 88.7926 125.212C88.8501 125.208 88.9038 125.182 88.9426 125.139C89.4322 124.622 90.1311 124.371 90.6192 123.854C91.8922 122.496 90.687 121.014 89.17 121.598ZM85.6186 126.108C85.1634 125.133 84.415 124.325 83.478 123.796C82.5409 123.267 81.462 123.044 80.3921 123.158C80.8847 122.457 81.4993 121.697 82.4257 121.711C82.5814 121.696 82.7381 121.724 82.8793 121.791C83.0205 121.858 83.141 121.962 83.228 122.092C83.315 122.222 83.3653 122.373 83.3737 122.529C83.382 122.685 83.348 122.841 83.2754 122.979L83.0494 123.187C83.009 123.231 82.9854 123.287 82.9825 123.347C82.9797 123.406 82.9979 123.464 83.0338 123.512C83.0698 123.559 83.1214 123.592 83.1793 123.605C83.2373 123.618 83.298 123.61 83.3507 123.583C83.6437 123.402 84.5106 122.227 85.5147 122.615C85.6697 122.66 85.8062 122.753 85.9041 122.881C86.002 123.01 86.0561 123.166 86.0585 123.327C86.0276 123.759 85.5915 124.087 85.2767 124.326C85.0236 124.517 85.2601 124.949 85.5305 124.761C85.9515 124.413 86.4464 124.166 86.9774 124.038C87.2135 123.992 87.458 124.03 87.6696 124.144C87.8812 124.258 88.0467 124.442 88.1381 124.664C88.3942 125.518 86.5345 126.049 85.6186 126.108ZM80.7227 120.36C79.7164 119.396 79.8761 117.859 80.145 117.666C80.3913 117.491 80.5096 117.742 81.8608 119.147C82.0868 119.381 82.4416 119.025 82.2163 118.791C81.9512 118.514 81.6856 118.238 81.4194 117.963C81.1709 117.705 80.8666 117.259 80.5043 117.152C79.6471 116.897 79.443 117.931 79.4498 118.544C79.4506 118.95 79.5323 119.351 79.6901 119.724C79.8479 120.097 80.0786 120.435 80.3687 120.718C80.6007 120.94 80.957 120.584 80.7227 120.36ZM93.2479 125.48C92.4863 124.959 91.6217 124.607 90.7126 124.449C90.3963 124.392 90.2607 124.877 90.5785 124.934C91.2797 125.054 91.9544 125.296 92.5723 125.649C92.9723 125.879 94.1586 126.557 93.73 127.16C93.4061 127.612 92.5512 127.457 92.1031 127.371C91.3482 127.224 90.6253 126.944 89.9677 126.546C89.9101 126.512 89.8414 126.503 89.7769 126.52C89.7123 126.537 89.6571 126.579 89.6235 126.636C89.5898 126.694 89.5804 126.763 89.5974 126.827C89.6143 126.892 89.6562 126.947 89.7139 126.98C90.8934 127.689 93.5274 128.562 94.2 127.357C94.6301 126.578 93.8181 125.875 93.2479 125.48ZM81.5053 124.967C81.3931 124.967 81.2834 125 81.1901 125.063C81.0968 125.125 81.0241 125.214 80.9812 125.317C80.9383 125.421 80.9271 125.535 80.9491 125.645C80.971 125.755 81.0251 125.856 81.1045 125.936C81.1839 126.015 81.285 126.069 81.3951 126.091C81.5052 126.112 81.6193 126.101 81.7229 126.058C81.8265 126.015 81.915 125.942 81.9773 125.849C82.0395 125.755 82.0726 125.646 82.0725 125.534C82.0723 125.383 82.0124 125.239 81.9061 125.133C81.7997 125.027 81.6556 124.967 81.5053 124.967ZM27.929 54.4307C27.6559 54.7645 27.4669 55.1591 27.3781 55.5813C27.2893 56.0034 27.3032 56.4407 27.4187 56.8563C27.5343 57.2719 27.748 57.6537 28.0418 57.9695C28.3357 58.2852 28.7012 58.5258 29.1075 58.6708C29.5137 58.8158 29.9489 58.8611 30.3763 58.8027C30.8037 58.7444 31.2109 58.5843 31.5635 58.3357C31.916 58.0872 32.2037 57.7575 32.4023 57.3746C32.6008 56.9916 32.7045 56.5666 32.7044 56.1352C32.7031 55.5805 32.5306 55.0398 32.2105 54.5869C31.8904 54.1339 31.4383 53.7908 30.9159 53.6043C30.3935 53.4179 29.8263 53.3972 29.2918 53.5451C28.7572 53.693 28.2813 54.0022 27.929 54.4307ZM30.7679 58.1922C30.4508 58.3087 30.1111 58.3504 29.7752 58.3138C29.4394 58.2773 29.1165 58.1636 28.8319 57.9816C28.5473 57.7996 28.3086 57.5542 28.1345 57.2647C27.9604 56.9752 27.8556 56.6494 27.8283 56.3126C27.801 55.9759 27.8519 55.6374 27.9771 55.3237C28.1023 55.0099 28.2983 54.7293 28.5499 54.5038C28.8015 54.2784 29.1018 54.1141 29.4274 54.0239C29.753 53.9338 30.095 53.9201 30.4267 53.984C30.8965 54.0751 31.3235 54.3174 31.6426 54.674C31.9618 55.0305 32.1554 55.4817 32.1941 55.9587C32.2328 56.4356 32.1143 56.9121 31.8568 57.3154C31.5993 57.7187 31.2169 58.0266 30.7679 58.1922Z" fill="black"/>
<path id="Vector_13" d="M29.0989 56.086C29.0989 56.3216 29.1924 56.5474 29.359 56.714C29.5255 56.8805 29.7514 56.9741 29.9869 56.9741C30.2224 56.9741 30.4483 56.8805 30.6149 56.714C30.7814 56.5474 30.875 56.3216 30.875 56.086C30.875 55.8505 30.7814 55.6246 30.6149 55.4581C30.4483 55.2916 30.2224 55.198 29.9869 55.198C29.7514 55.198 29.5255 55.2916 29.359 55.4581C29.1924 55.6246 29.0989 55.8505 29.0989 56.086Z" fill="black"/>
<path id="Vector_14" d="M84.0029 43.0177C83.8801 42.7239 83.392 42.8527 83.5178 43.1518C84.0813 44.5135 84.9751 45.7134 86.1187 46.6429C86.3687 46.8448 86.7265 46.4923 86.4749 46.2867C85.393 45.4185 84.5435 44.2952 84.0029 43.0177ZM89.8109 42.6946V46.4433C89.8109 46.51 89.8374 46.574 89.8846 46.6212C89.9318 46.6684 89.9958 46.6949 90.0625 46.6949C90.1292 46.6949 90.1932 46.6684 90.2404 46.6212C90.2876 46.574 90.3141 46.51 90.3141 46.4433V42.6946C90.3141 42.6278 90.2876 42.5639 90.2404 42.5167C90.1932 42.4695 90.1292 42.443 90.0625 42.443C89.9958 42.443 89.9318 42.4695 89.8846 42.5167C89.8374 42.5639 89.8109 42.6278 89.8109 42.6946ZM96.9657 43.4862L94.0154 47.2425C93.818 47.4941 94.1713 47.8526 94.3717 47.598C95.3554 46.3462 96.3385 45.0941 97.3212 43.8417C97.5193 43.5901 97.1646 43.2346 96.9657 43.4862ZM79.9393 74.8049L76.4376 78.989C76.2304 79.2361 76.5882 79.5916 76.7931 79.3453L80.2955 75.162C80.5019 74.9149 80.1479 74.5564 79.9393 74.8049ZM87.8465 75.9709C87.4216 77.2631 87.2841 78.6324 87.4436 79.9833C87.4812 80.3004 87.9851 80.3042 87.9467 79.9833C87.7893 78.6776 87.921 77.3533 88.3324 76.1042C88.4333 75.7962 87.9475 75.6636 87.8465 75.9709ZM94.975 74.3884C95.7053 75.6196 96.6547 76.7068 97.7762 77.5963C98.0278 77.7952 98.3855 77.4412 98.1317 77.2401C97.0423 76.3798 96.1197 75.3273 95.4096 74.1346C95.3929 74.106 95.3708 74.0811 95.3445 74.0611C95.3182 74.0411 95.2882 74.0265 95.2562 74.0181C95.2242 74.0097 95.1909 74.0077 95.1582 74.0122C95.1254 74.0166 95.0939 74.0275 95.0654 74.0442C95.0368 74.0608 95.0119 74.083 94.9919 74.1093C94.9719 74.1356 94.9573 74.1656 94.9489 74.1976C94.9405 74.2295 94.9385 74.2628 94.9429 74.2956C94.9474 74.3283 94.9583 74.3599 94.975 74.3884ZM100.144 74.2423C101.162 75.4966 102.379 76.5762 103.746 77.4382C104.02 77.6122 104.273 77.1761 104.001 77.0036C102.671 76.1624 101.489 75.1093 100.5 73.886C100.296 73.6352 99.9409 73.9922 100.144 74.2423ZM30.8974 103.548C30.6342 103.546 30.3734 103.598 30.1308 103.7C29.8882 103.802 29.6687 103.952 29.4857 104.141C29.3027 104.33 29.1599 104.555 29.0659 104.8C28.9719 105.046 28.9287 105.309 28.9389 105.572C28.9491 105.835 29.0124 106.093 29.1251 106.331C29.2379 106.568 29.3976 106.781 29.5947 106.955C29.7918 107.13 30.0222 107.263 30.2719 107.345C30.5217 107.428 30.7857 107.46 31.048 107.438C30.9003 107.342 30.7783 107.212 30.6927 107.058C30.6071 106.904 30.5605 106.732 30.557 106.555C30.5535 106.379 30.5933 106.205 30.6727 106.048C30.7522 105.891 30.8689 105.756 31.0128 105.654C31.1566 105.553 31.3231 105.488 31.4978 105.466C31.6725 105.443 31.8499 105.464 32.0146 105.527C32.1793 105.589 32.3262 105.691 32.4425 105.823C32.5588 105.955 32.641 106.114 32.6817 106.285C32.8121 105.988 32.8664 105.663 32.8399 105.34C32.8133 105.017 32.7067 104.705 32.5296 104.434C32.3525 104.162 32.1106 103.939 31.8256 103.784C31.5406 103.629 31.2216 103.548 30.8974 103.548ZM46.1078 103.548C45.8446 103.546 45.5839 103.598 45.3412 103.7C45.0986 103.802 44.8792 103.952 44.6961 104.141C44.5131 104.33 44.3703 104.555 44.2763 104.8C44.1824 105.046 44.1392 105.309 44.1493 105.572C44.1595 105.835 44.2229 106.093 44.3356 106.331C44.4483 106.568 44.608 106.781 44.8051 106.955C45.0022 107.13 45.2326 107.263 45.4824 107.345C45.7322 107.428 45.9962 107.46 46.2585 107.438C46.1107 107.342 45.9887 107.212 45.9031 107.058C45.8175 106.904 45.7709 106.732 45.7675 106.555C45.764 106.379 45.8037 106.205 45.8832 106.048C45.9626 105.891 46.0794 105.756 46.2232 105.654C46.3671 105.553 46.5336 105.488 46.7083 105.466C46.8829 105.443 47.0604 105.464 47.2251 105.527C47.3898 105.589 47.5367 105.691 47.653 105.823C47.7693 105.955 47.8514 106.114 47.8922 106.285C48.0225 105.988 48.0769 105.663 48.0503 105.34C48.0238 105.017 47.9171 104.705 47.7401 104.434C47.563 104.162 47.321 103.939 47.0361 103.784C46.7511 103.629 46.4321 103.548 46.1078 103.548Z" fill="black"/>
<path id="Vector_15" d="M15.5017 129.553C9.88797 129.033 4.50473 134.61 4.41284 136.209C9.48425 136.347 15.9838 136.887 22.786 137.269C20.9218 132.41 20.6861 130.035 15.5017 129.553ZM55.4131 98.7128C54.6599 93.2776 53.3598 87.8522 50.5172 83.1544C49.1307 85.6951 47.9058 88.3207 46.8498 91.0157C41.7239 89.4596 36.2844 89.2452 31.0518 90.3928C30.0064 87.7927 28.3968 85.2897 26.5145 82.2015C23.937 88.6958 22.2211 94.6447 21.8852 101.595C21.5688 108.088 21.8483 118.75 24.5892 138.511C33.3017 138.692 46.7504 138.296 55.4628 138.477C55.1608 125.13 56.4247 105.995 55.4131 98.7128ZM30.1465 119.17C29.0264 119.17 28.0623 118.754 28.0623 116.804C28.0623 114.854 30.1465 112.109 30.1465 112.109C30.1465 112.109 32.1184 114.855 32.1184 116.804C32.1184 118.754 31.2673 119.17 30.1465 119.17ZM28.7154 107.299C28.4269 106.949 28.2269 106.535 28.1322 106.092C28.0375 105.648 28.0508 105.188 28.1712 104.751C28.2914 104.313 28.5152 103.911 28.8234 103.579C29.1317 103.246 29.5154 102.992 29.9423 102.839C30.3692 102.686 30.8267 102.637 31.2762 102.698C31.7257 102.759 32.1541 102.926 32.5251 103.187C32.8961 103.448 33.1989 103.795 33.408 104.197C33.6171 104.6 33.7264 105.046 33.7265 105.5C33.7141 106.077 33.527 106.636 33.1901 107.104C32.8531 107.573 32.3821 107.928 31.8391 108.123C31.2962 108.318 30.7069 108.343 30.149 108.196C29.5912 108.049 29.091 107.737 28.7146 107.299H28.7154ZM43.9258 107.299C43.6372 106.949 43.437 106.535 43.3421 106.092C43.2472 105.648 43.2604 105.188 43.3807 104.751C43.5009 104.313 43.7246 103.911 44.0328 103.578C44.3411 103.245 44.7249 102.991 45.1519 102.838C45.5789 102.685 46.0364 102.636 46.486 102.697C46.9356 102.758 47.364 102.926 47.7351 103.187C48.1062 103.448 48.409 103.794 48.618 104.197C48.8271 104.599 48.9362 105.046 48.9362 105.5C48.9236 106.077 48.7365 106.636 48.3996 107.104C48.0627 107.572 47.5917 107.927 47.049 108.122C46.5062 108.317 45.9171 108.342 45.3594 108.196C44.8016 108.049 44.3016 107.736 43.9251 107.299H43.9258Z" fill="#FFD35C"/>
<path id="Vector_16" d="M36.1491 129.945C36.1227 129.625 35.6218 129.622 35.6459 129.945C36.4308 139.194 36.6296 139.674 36.1107 140.422C35.9774 140.629 35.7758 140.783 35.541 140.857C35.3062 140.931 35.0528 140.921 34.8249 140.827C34.597 140.734 34.4089 140.564 34.2932 140.347C34.1775 140.129 34.1415 139.878 34.1915 139.637C34.2261 139.358 33.7396 139.29 33.6974 139.571C33.6666 139.883 33.5427 140.178 33.3418 140.418C33.141 140.658 32.8725 140.832 32.5713 140.917C32.4294 140.944 32.2835 140.942 32.1424 140.91C32.0014 140.879 31.8681 140.82 31.7504 140.736C31.6328 140.652 31.5334 140.546 31.458 140.423C31.3827 140.299 31.333 140.162 31.3119 140.019C31.3086 139.973 31.3023 139.927 31.2931 139.881C31.2751 139.825 31.2376 139.776 31.1872 139.744C31.1369 139.712 31.0769 139.699 31.0179 139.707C30.9588 139.715 30.9045 139.744 30.8645 139.788C30.8244 139.832 30.8013 139.889 30.799 139.948C30.799 139.989 30.8095 140.024 30.8133 140.066C30.9933 140.883 30.033 141.438 29.3219 141.227C27.5331 140.695 27.6777 137.968 27.5654 136.184L27.1399 129.382C27.1195 129.061 26.6126 129.058 26.636 129.382C27.2514 139.207 27.1587 139.282 27.6483 140.314C28.4972 142.1 30.4751 142.221 31.1756 140.885C31.3525 141.085 31.5752 141.238 31.8245 141.331C32.0738 141.425 32.3422 141.456 32.6064 141.423C32.8706 141.39 33.1227 141.292 33.3409 141.14C33.5591 140.987 33.7368 140.783 33.8586 140.546C34.0077 140.829 34.2394 141.06 34.5228 141.207C34.8063 141.355 35.128 141.412 35.445 141.372C35.762 141.332 36.0593 141.196 36.2972 140.983C36.5351 140.77 36.7023 140.489 36.7765 140.178C37.0582 139.296 36.952 139.428 36.1491 129.945ZM52.0472 129.779C51.996 129.46 51.5102 129.596 51.5622 129.913C52.0465 132.885 52.5331 135.917 52.2039 138.929C52.1158 139.741 51.9983 140.947 51.0545 141.217C50.1288 141.483 49.8622 140.299 49.774 139.635C49.7326 139.319 49.2295 139.315 49.2709 139.635C49.2575 139.803 49.2107 139.967 49.1331 140.117C49.0555 140.266 48.9488 140.399 48.8191 140.507C48.6895 140.615 48.5396 140.696 48.3783 140.745C48.2169 140.794 48.0474 140.81 47.8797 140.793C47.5729 140.728 47.3025 140.548 47.1235 140.291C46.9444 140.033 46.87 139.717 46.9156 139.407C46.969 139.093 46.5179 138.955 46.4297 139.273C46.3477 139.691 46.1833 140.09 45.9462 140.444C45.8363 140.612 45.6738 140.739 45.4841 140.804C45.2944 140.869 45.0884 140.87 44.8985 140.805C44.274 140.504 44.2891 139.49 44.2477 138.914C44.0217 135.801 43.8711 132.679 43.7875 129.609C43.7784 129.286 43.2745 129.284 43.2843 129.609C43.3393 131.588 43.6127 138.377 43.8259 139.777C43.9313 140.477 44.2627 141.278 45.0627 141.363C45.3946 141.378 45.7223 141.284 45.996 141.096C46.2697 140.907 46.4744 140.634 46.5789 140.319C46.6961 140.592 46.8856 140.828 47.127 141.002C47.3684 141.175 47.6526 141.279 47.9489 141.303C48.2452 141.327 48.5424 141.269 48.8084 141.137C49.0744 141.004 49.2992 140.801 49.4584 140.55C49.9857 142.258 51.7241 142.027 52.3425 140.634C52.6605 139.577 52.8179 138.478 52.8095 137.375C52.7894 134.825 52.5342 132.282 52.0472 129.779ZM32.0358 102.37C31.3701 102.128 30.6447 102.105 29.9648 102.303C29.285 102.502 28.6861 102.912 28.2552 103.474C27.8243 104.036 27.5837 104.72 27.5685 105.429C27.5532 106.137 27.7641 106.831 28.1704 107.411C28.5768 107.991 29.1575 108.427 29.8281 108.654C30.4988 108.882 31.2246 108.89 31.9 108.677C32.5755 108.464 33.1655 108.041 33.5843 107.47C34.0031 106.899 34.229 106.209 34.2291 105.501C34.2264 104.818 34.0148 104.151 33.6228 103.592C33.2307 103.032 32.677 102.606 32.0358 102.37ZM28.7149 107.3C28.4264 106.949 28.2264 106.535 28.1317 106.092C28.037 105.648 28.0503 105.188 28.1706 104.751C28.2909 104.314 28.5147 103.912 28.8229 103.579C29.1312 103.246 29.5149 102.992 29.9418 102.839C30.3687 102.686 30.8262 102.637 31.2757 102.698C31.7252 102.759 32.1535 102.926 32.5246 103.187C32.8956 103.448 33.1984 103.795 33.4075 104.197C33.6166 104.6 33.7259 105.047 33.726 105.5C33.7126 106.076 33.5251 106.635 33.188 107.102C32.851 107.57 32.3803 107.924 31.8378 108.119C31.2954 108.314 30.7067 108.34 30.1492 108.194C29.5918 108.047 29.0917 107.736 28.7149 107.3ZM44.2944 98.5208C44.7179 99.2632 45.3243 99.8849 46.0558 100.327C46.7874 100.769 47.6198 101.017 48.474 101.046C48.7986 101.056 48.7979 100.553 48.474 100.543C47.7074 100.515 46.9608 100.29 46.3053 99.8918C45.6498 99.4933 45.1071 98.9337 44.729 98.2662C44.6932 98.2129 44.6384 98.1753 44.5758 98.161C44.5132 98.1467 44.4475 98.1568 44.3921 98.1893C44.3366 98.2217 44.2957 98.2741 44.2776 98.3357C44.2594 98.3973 44.2654 98.4635 44.2944 98.5208ZM27.8185 101.435C28.5402 101.299 29.2226 101.004 29.8164 100.571C30.4103 100.139 30.9007 99.5806 31.2524 98.9358C31.4068 98.6511 30.973 98.3965 30.8186 98.682C30.4987 99.2701 30.0511 99.779 29.5088 100.171C28.9664 100.564 28.3431 100.83 27.6845 100.95C27.3673 101.006 27.5014 101.494 27.8185 101.435ZM47.2455 102.37C46.5798 102.128 45.8544 102.105 45.1745 102.303C44.4947 102.502 43.8958 102.912 43.4649 103.474C43.034 104.036 42.7934 104.72 42.7782 105.429C42.7629 106.137 42.9738 106.831 43.3801 107.411C43.7865 107.991 44.3672 108.427 45.0378 108.654C45.7085 108.882 46.4343 108.89 47.1097 108.677C47.7852 108.464 48.3752 108.041 48.794 107.47C49.2128 106.899 49.4387 106.209 49.4388 105.501C49.436 104.818 49.2243 104.152 48.8323 103.592C48.4403 103.032 47.8866 102.606 47.2455 102.37ZM43.9253 107.3C43.6367 106.95 43.4365 106.535 43.3416 106.092C43.2467 105.648 43.2599 105.188 43.3802 104.751C43.5004 104.313 43.7241 103.911 44.0323 103.578C44.3406 103.245 44.7244 102.992 45.1514 102.838C45.5783 102.685 46.0359 102.636 46.4855 102.697C46.9351 102.758 47.3635 102.926 47.7346 103.187C48.1056 103.448 48.4085 103.794 48.6175 104.197C48.8266 104.599 48.9357 105.046 48.9357 105.5C48.9229 106.076 48.7358 106.635 48.3989 107.103C48.062 107.571 47.5912 107.926 47.0486 108.121C46.506 108.316 45.9171 108.342 45.3595 108.195C44.8019 108.048 44.3019 107.736 43.9253 107.3ZM37.9003 113.529C39.0301 110.8 39.0588 110.211 39.2727 110.667C39.3284 110.786 40.4628 113.251 40.5027 113.338C40.6383 113.631 41.0721 113.376 40.9365 113.083L39.9242 110.884C39.7954 110.605 39.6847 110.169 39.397 110.009C39.286 109.953 39.1583 109.939 39.0377 109.969C38.9171 110 38.8119 110.074 38.7417 110.177C38.5549 110.409 37.9576 112.098 37.4175 113.397C37.291 113.694 37.7776 113.825 37.9003 113.529Z" fill="black"/>
</g>
</svg>
