<svg width="151" height="151" viewBox="0 0 151 151" fill="none" xmlns="http://www.w3.org/2000/svg">
<g id="Welcome-1--Streamline-Barcelona">
<path id="Vector" d="M115.603 77.2529C115.558 76.6782 115.618 75.9355 116.173 75.7932C116.249 75.7533 116.187 76.4297 116.282 67.7338C116.745 27.9986 116.534 48.2594 116.608 41.0134C116.575 41.0021 114.843 40.3837 114.806 40.3724C114.815 42.6584 114.745 41.5347 114.417 75.7284C114.799 76.1698 115.304 76.8281 115.603 77.2529Z" fill="#A76C6C"/>
<path id="Vector_2" d="M38.8302 76.3371C38.8617 76.3226 38.8977 76.3209 38.9304 76.3326C40.1913 76.7536 40.3879 77.949 39.7868 78.5222C39.6339 78.6453 39.4572 78.7355 39.2678 78.787C39.0783 78.8386 38.8803 78.8503 38.6861 78.8216C38.4919 78.7929 38.3058 78.7243 38.1394 78.6201C37.973 78.516 37.8299 78.3785 37.7192 78.2164C37.7117 78.2277 37.7079 78.2428 37.7011 78.2533C37.8014 80.2131 37.9894 82.1674 38.2646 84.1103C42.1813 84.5894 42.6332 79.3101 41.9613 75.4634C41.7542 74.2718 41.4876 72.0626 40.4082 71.4954C39.664 71.1 39.4667 72.2035 39.4072 73.0493C39.3726 73.3749 39.3746 73.7034 39.4132 74.0285C39.4426 74.213 39.1594 74.3012 39.124 74.1038C38.9249 73.0298 38.4905 72.0132 37.8518 71.1271C37.7765 71.8803 37.723 72.6456 37.6861 73.4086C38.1825 73.1826 38.4574 73.9532 38.0695 74.3411C38.0159 74.3963 37.9495 74.4374 37.8761 74.4607C37.8028 74.4839 37.7248 74.4887 37.6492 74.4744C37.6379 75.016 37.6349 75.5575 37.6379 76.1029C38.0481 76.087 38.4564 76.1673 38.8302 76.3371ZM40.3178 74.262C40.3413 74.2493 40.368 74.2435 40.3947 74.2454C40.4214 74.2473 40.4469 74.2567 40.4685 74.2726C40.763 74.1355 40.9445 74.7034 40.5897 74.9248C40.5916 74.9551 40.5844 74.9853 40.5689 75.0113C40.5534 75.0374 40.5304 75.0582 40.5028 75.071C40.4753 75.0837 40.4446 75.0879 40.4147 75.0829C40.3848 75.078 40.357 75.0641 40.3351 75.0431C40.3123 75.0185 40.2926 74.9911 40.2764 74.9617C39.6874 74.8699 40.0527 74.0413 40.3178 74.262ZM59.915 72.6855C59.5429 72.5417 59.1558 73.0621 59.0051 73.3303C58.1374 74.8548 58.1766 80.1228 59.2371 82.7033C59.5384 80.7721 59.7915 78.8702 60.0091 77.0903C59.8749 77.0517 59.7515 76.9825 59.6485 76.8881C59.5455 76.7938 59.4658 76.6769 59.4156 76.5465C59.3169 75.7737 59.7455 75.5206 60.1771 75.6894C60.269 74.897 60.3524 74.1415 60.4272 73.4229C60.3278 73.145 60.1824 72.791 59.915 72.6855ZM52.7926 68.4803C52.6352 66.7155 51.0602 65.4599 50.0449 65.6776C50.2924 66.3046 50.6631 66.8757 51.1351 67.357C51.607 67.8384 52.1706 68.2204 52.7926 68.4803Z" fill="#FF8684"/>
<path id="Vector_3" d="M63.2513 55.7997C62.6419 56.1557 62.0076 56.4671 61.3532 56.7315C61.0519 56.8497 57.3062 57.9005 57.3062 57.5133C52.9564 48.4242 39.8835 52.707 37.895 70.736C38.1904 71.0574 38.4403 71.4178 38.6377 71.8071C39.3337 73.0552 39.0271 73.2533 39.2049 72.3117C39.4489 71.0313 40.0538 70.8671 40.7181 71.3258C41.8042 72.088 42.0882 74.2686 42.2938 75.583C42.9371 79.6307 42.3759 84.8551 38.3131 84.4122C38.4464 85.3303 38.704 86.8887 38.7477 87.0883C35.6806 86.9377 32.4116 84.8445 30.6129 80.5828C29.7948 78.6833 29.3351 76.6487 29.2572 74.5819C29.2941 73.6833 29.5758 73.2382 29.1871 73.1998C28.8188 73.1666 28.409 73.672 28.1921 73.9116C27.3489 74.8554 26.8088 76.0309 26.6418 77.2855C26.4749 78.5401 26.6888 79.8159 27.2559 80.9474C27.3312 81.0875 27.2039 81.3164 27.0299 81.2487C25.7705 80.7395 25.6877 80.6355 25.5852 80.9647C25.5117 81.373 25.5562 81.7937 25.7135 82.1776C25.8708 82.5614 26.1344 82.8924 26.4733 83.1317C27.6086 83.9893 28.8881 84.637 30.2514 85.0441C30.2972 85.0587 30.3364 85.0891 30.362 85.1297C30.3876 85.1704 30.3981 85.2188 30.3915 85.2665C30.385 85.3141 30.3618 85.3579 30.3261 85.3901C30.2904 85.4223 30.2445 85.4409 30.1964 85.4426C29.2511 85.4652 27.5368 85.948 28.0294 86.7547C28.287 87.1825 28.998 87.0093 29.3965 86.9392C29.9965 86.8221 30.5858 86.6556 31.1583 86.4413C31.3647 86.366 31.4716 86.6402 31.3534 86.7803C31.2155 86.9259 31.1093 87.0985 31.0417 87.2873C30.9742 87.4761 30.9466 87.6769 30.9607 87.877C30.9749 88.077 31.0305 88.2719 31.124 88.4493C31.2176 88.6267 31.347 88.7827 31.504 88.9074C31.6538 89.0199 31.8319 89.0888 32.0184 89.1062C32.205 89.1236 32.3928 89.0889 32.5608 89.0061C32.7289 88.9232 32.8706 88.7953 32.9703 88.6366C33.0701 88.478 33.1238 88.2948 33.1257 88.1074C33.1181 87.8641 33.4503 87.8498 33.5241 88.0525C34.1809 89.8895 36.7185 91.0751 39.2403 89.6154C39.3066 89.9114 39.2117 89.5596 39.7231 91.8336L57.4237 91.9888C58.1091 89.2727 58.6838 86.2349 59.1561 83.2424C58.2183 81.3933 58.0345 78.6139 58.1407 76.5523C58.1001 75.4531 58.2794 74.3569 58.668 73.3278C59.1064 72.424 59.9372 71.9607 60.4757 72.8322C60.539 72.9588 61.0143 66.9255 61.009 67.0068C64.8346 64.3487 66.5248 61.6899 67.1658 59.434C65.6136 58.5198 64.2781 57.2799 63.2513 55.7997ZM39.1484 88.4389C39.0157 88.1058 38.9229 87.7581 38.872 87.4032C38.8612 87.364 38.8664 87.3222 38.8864 87.2869C38.9065 87.2516 38.9398 87.2257 38.9789 87.2149C39.0181 87.2041 39.0599 87.2093 39.0952 87.2294C39.1305 87.2494 39.1564 87.2827 39.1672 87.3218C39.2219 87.676 39.3146 88.0232 39.4437 88.3575C39.5099 88.5315 39.229 88.6422 39.1514 88.4389H39.1484ZM53.5469 56.1492C54.6669 54.4417 57.087 56.1131 56.7104 57.7415C56.6319 58.0269 56.476 58.285 56.26 58.4873C56.044 58.6896 55.7763 58.8282 55.4864 58.8879C55.1347 58.9749 54.765 58.9538 54.4254 58.8275C54.0859 58.7012 53.7922 58.4755 53.5829 58.1799C53.3735 57.8842 53.2581 57.5323 53.2516 57.1701C53.2452 56.8079 53.3481 56.4521 53.5469 56.1492ZM48.4416 54.8688C48.0162 55.0015 47.6419 55.262 47.3696 55.6147C47.0972 55.9675 46.9401 56.3955 46.9193 56.8407C46.9193 56.8944 46.898 56.946 46.86 56.984C46.822 57.0219 46.7704 57.0433 46.7167 57.0433C46.663 57.0433 46.6114 57.0219 46.5734 56.984C46.5354 56.946 46.5141 56.8944 46.5141 56.8407C46.5375 56.3076 46.7249 55.7948 47.0507 55.3723C47.3766 54.9497 47.825 54.6382 48.3346 54.4801C48.3852 54.4693 48.438 54.4783 48.4822 54.5052C48.5264 54.5321 48.5586 54.5748 48.5723 54.6247C48.5859 54.6746 48.58 54.7278 48.5557 54.7735C48.5314 54.8191 48.4906 54.8537 48.4416 54.8703V54.8688ZM49.0682 57.9396C50.189 56.2313 52.6084 57.9027 52.2318 59.5319C52.1535 59.8169 51.9979 60.0747 51.7823 60.2769C51.5668 60.4791 51.2995 60.6177 51.01 60.6776C50.6585 60.7647 50.2889 60.7439 49.9494 60.6179C49.6098 60.4918 49.3161 60.2665 49.1065 59.9711C48.897 59.6758 48.7812 59.3241 48.7744 58.962C48.7675 58.5999 48.87 58.2442 49.0682 57.9411V57.9396ZM58.8269 66.9247C57.7004 67.1772 56.531 67.1687 55.4082 66.8998C54.2855 66.6308 53.2391 66.1086 52.3493 65.3731C51.1773 64.4082 50.3811 63.4208 50.0527 63.8471C49.8577 64.339 49.8255 64.8804 49.9608 65.3919C51.1577 65.1155 52.9368 66.4962 53.101 68.4952C53.1036 68.5167 53.1006 68.5386 53.0923 68.5587C53.084 68.5787 53.0706 68.5963 53.0535 68.6097C53.47 68.8123 53.8941 68.9923 54.3137 69.1731C54.4944 69.2484 54.34 69.512 54.163 69.4352C52.8468 68.9829 51.6454 68.2482 50.6432 67.2825C50.2652 66.8888 49.9776 66.4173 49.8006 65.9009C49.6235 65.3846 49.5613 64.8359 49.6181 64.293C49.6881 63.8411 49.8802 63.3055 50.4466 63.475C51.3121 63.7311 52.6151 65.7723 55.1166 66.5052C56.2981 66.8535 57.5484 66.8978 58.7516 66.634C58.9391 66.5896 59.0197 66.881 58.8269 66.9247Z" fill="#FF8684"/>
<path id="Vector_4" d="M33.7201 51.0961C35.3297 52.5498 37.4945 53.2194 39.5764 53.651C40.6309 53.8679 41.7035 54.0562 42.7723 54.1888C43.7377 54.3801 44.739 54.256 45.6285 53.8348C44.6038 51.5607 43.0464 49.567 41.0881 48.0222C39.3851 46.7764 37.0004 45.7739 34.8695 46.3599C34.3582 46.4856 33.8878 46.7409 33.5038 47.1012C33.1198 47.4615 32.835 47.9146 32.6769 48.4169C32.5778 48.9165 32.6234 49.4339 32.8082 49.9085C32.993 50.3831 33.3093 50.7951 33.7201 51.0961ZM38.3049 48.1036C38.8625 48.2374 39.3726 48.5217 39.7797 48.9253C39.9198 49.0617 39.7044 49.2793 39.5658 49.1392C39.1952 48.7737 38.7311 48.5173 38.2244 48.3981C38.0376 48.3506 38.1174 48.0591 38.3049 48.1036ZM36.6539 48.3649C37.2986 48.612 37.9437 48.8603 38.5889 49.1099C38.628 49.1207 38.6611 49.1465 38.6811 49.1818C38.7011 49.217 38.7063 49.2587 38.6955 49.2978C38.6847 49.3368 38.6588 49.37 38.6236 49.39C38.5884 49.41 38.5466 49.4152 38.5076 49.4044C37.8628 49.1573 37.2181 48.911 36.5725 48.6602C36.5532 48.6549 36.535 48.6457 36.5191 48.6334C36.5033 48.621 36.49 48.6057 36.4801 48.5882C36.46 48.5529 36.4548 48.511 36.4656 48.4719C36.4764 48.4327 36.5023 48.3995 36.5376 48.3794C36.5729 48.3594 36.6147 48.3541 36.6539 48.3649ZM57.4397 47.8121C58.2297 47.283 58.816 46.5007 59.102 45.5939C59.3046 44.4203 57.9677 43.2868 55.595 43.9368C53.921 44.4368 52.4719 45.5015 51.4945 46.9496C50.4602 48.5248 49.766 50.2986 49.4563 52.1574C52.1272 50.4175 54.7318 50.089 57.4397 47.8121ZM52.3328 48.5917C52.2409 48.7649 51.9796 48.6105 52.0715 48.441C52.3631 47.8969 52.7753 47.4267 53.2766 47.0664C53.4182 46.964 53.6126 47.1959 53.4273 47.3293C52.973 47.6633 52.599 48.0946 52.3328 48.5917ZM54.307 47.6667C54.0253 47.9341 53.7436 48.2053 53.4634 48.4742C53.3128 48.6127 53.1064 48.3943 53.2495 48.2602C53.5297 47.9913 53.8137 47.7224 54.0939 47.4528C54.2407 47.3157 54.4524 47.5281 54.307 47.6667Z" fill="#FF8684"/>
<path id="Vector_5" d="M39.0924 76.7257C39.071 76.7393 39.0462 76.7464 39.0208 76.7464C38.9955 76.7464 38.9707 76.7393 38.9493 76.7257C38.5561 76.494 38.1034 76.3832 37.6477 76.4071C36.1759 76.4764 35.3301 77.8495 35.5387 78.6073C35.8279 79.6475 37.3645 78.7383 37.5656 77.7614C37.5897 77.6341 37.8262 77.6108 37.8571 77.7614C37.9087 77.9311 38.0008 78.0856 38.1254 78.2117C38.25 78.3379 38.4034 78.4318 38.5724 78.4855C38.7414 78.5392 38.9209 78.5509 39.0955 78.5198C39.2701 78.4886 39.4344 78.4155 39.5744 78.3067C39.9699 77.9339 39.9096 77.1242 39.0924 76.7257ZM63.9583 78.0597C63.9361 78.0509 63.917 78.0357 63.9036 78.0159C63.8902 77.9962 63.883 77.9728 63.883 77.949C63.6108 77.8337 63.3176 77.7766 63.0221 77.7812C62.7266 77.7857 62.4353 77.8519 62.1668 77.9755C61.8984 78.099 61.6587 78.2773 61.463 78.4988C61.2673 78.7203 61.1201 78.9802 61.0306 79.2618C60.8799 79.7514 60.846 80.583 61.5721 80.5167C62.1883 80.4579 62.5008 79.82 62.8368 79.3816C62.8526 79.3513 62.8783 79.3274 62.9096 79.3136C62.9408 79.2999 62.9758 79.2972 63.0088 79.3059C63.0418 79.3147 63.0709 79.3344 63.0912 79.3618C63.1115 79.3893 63.122 79.4228 63.1207 79.4569C63.1072 80.3834 64.6942 80.6357 65.0791 80.0211C65.1759 79.8284 65.2153 79.612 65.1924 79.3977C65.1696 79.1833 65.0855 78.98 64.9503 78.8122C64.6888 78.4812 64.3475 78.2223 63.9583 78.0597Z" fill="#A76C6C"/>
<path id="Vector_6" d="M26.6839 80.6786C26.4061 80.541 26.1145 80.4334 25.8139 80.3577C25.6658 80.3456 25.5187 80.3903 25.4025 80.4828C25.2862 80.5753 25.2095 80.7086 25.188 80.8556C25.1092 81.2261 25.1184 81.6099 25.215 81.9762C25.3115 82.3425 25.4927 82.6811 25.7439 82.9646C26.7523 83.9485 27.9692 84.693 29.3043 85.1429C28.3387 85.338 27.2074 85.8208 27.6058 86.8195C27.8265 87.3762 28.3756 87.4425 28.9028 87.4055C29.5281 87.3452 30.1442 87.2117 30.7384 87.0078C30.5377 87.3972 30.4892 87.8473 30.6022 88.2705C30.7153 88.6936 30.9819 89.0595 31.35 89.2969C31.5197 89.399 31.7085 89.4654 31.9048 89.492C32.101 89.5187 32.3007 89.505 32.4914 89.4518C32.6822 89.3987 32.8602 89.3071 33.0144 89.1828C33.1686 89.0586 33.2958 88.9041 33.3882 88.7289C34.4186 90.505 36.8779 91.3607 39.3153 90.0448C39.2701 89.8188 39.252 89.7737 39.2272 89.6208C36.777 91.0391 34.1919 89.9627 33.5103 88.0586C33.4349 87.8552 33.105 87.8703 33.1118 88.1136C33.11 88.3009 33.0562 88.4841 32.9565 88.6428C32.8568 88.8014 32.715 88.9293 32.5469 89.0122C32.3789 89.0951 32.1912 89.1297 32.0046 89.1123C31.818 89.0949 31.6399 89.0261 31.4901 88.9135C31.3338 88.7883 31.205 88.6321 31.1119 88.4548C31.0189 88.2774 30.9635 88.0827 30.9494 87.8829C30.9352 87.6831 30.9626 87.4826 31.0297 87.2938C31.0969 87.1051 31.2023 86.9324 31.3395 86.7864C31.457 86.6463 31.35 86.3736 31.1437 86.4475C30.5708 86.6606 29.9816 86.8269 29.3819 86.9446C28.9842 87.0154 28.2724 87.1849 28.0148 86.7608C27.5222 85.9526 29.2403 85.4713 30.1818 85.4487C30.2295 85.4467 30.275 85.428 30.3104 85.396C30.3458 85.3639 30.3688 85.3204 30.3755 85.2731C30.3821 85.2258 30.3719 85.1776 30.3467 85.1371C30.3215 85.0965 30.2829 85.066 30.2375 85.051C29.545 84.8344 28.8708 84.5632 28.2212 84.2398C27.0303 83.6372 25.6045 82.82 25.5232 81.4679C25.5094 81.3005 25.5255 81.1319 25.5706 80.9701C25.6738 80.6183 25.7906 80.772 27.016 81.254C27.193 81.3241 27.3173 81.1034 27.242 80.9527C26.6752 79.8212 26.4615 78.5454 26.6284 77.2909C26.7954 76.0364 27.3353 74.8609 28.1782 73.917C28.3997 73.6774 28.8049 73.1728 29.1732 73.2059C29.4745 73.2315 29.3721 73.6006 29.3359 73.7881C29.1652 75.1203 29.2808 76.4736 29.6749 77.7576C31.2333 84.1388 35.1387 86.9084 38.7383 87.0937C38.7142 86.9572 38.6891 86.8209 38.663 86.6847C37.0518 86.5552 35.517 85.9437 34.2582 84.9297C31.7952 83.0015 30.532 79.9834 29.8896 76.9102C29.575 75.8032 29.5409 74.6353 29.7901 73.5117C29.7975 73.4154 29.7832 73.3186 29.7484 73.2284C29.7136 73.1382 29.659 73.057 29.5888 72.9906C29.5186 72.9242 29.4344 72.8743 29.3425 72.8446C29.2505 72.8149 29.1531 72.806 29.0573 72.8188C27.8476 72.9528 25.0162 76.734 26.6839 80.6786ZM83.7438 126.691C57.3496 126.616 30.4914 125.87 30.5727 125.87C30.5328 125.87 30.4945 125.886 30.4662 125.914C30.438 125.942 30.4221 125.981 30.4221 126.021C30.4221 126.061 30.438 126.099 30.4662 126.127C30.4945 126.155 30.5328 126.171 30.5727 126.171C40.055 126.431 62.2568 126.868 83.7498 127C83.7881 126.995 83.8233 126.977 83.8487 126.948C83.8741 126.919 83.8877 126.881 83.8869 126.843C83.8862 126.804 83.8711 126.767 83.8446 126.739C83.8182 126.711 83.7822 126.694 83.7438 126.691ZM28.4012 125.712C24.8016 125.57 7.46631 124.948 3.91339 125.251C3.71755 125.262 3.71755 125.568 3.91339 125.552C8.93056 125.243 28.481 126.022 28.405 126.021C28.597 126.021 28.597 125.716 28.4012 125.712Z" fill="black"/>
<path id="Vector_7" d="M74.4671 100.276C74.5071 100.276 74.5454 100.26 74.5737 100.232C74.6019 100.203 74.6178 100.165 74.6178 100.125C74.5357 97.9099 74.3489 92.7383 74.3301 92.3338C74.3301 92.2939 74.3142 92.2556 74.2859 92.2273C74.2577 92.1991 74.2194 92.1832 74.1794 92.1832L72.9411 92.1726C72.9411 92.0634 74.9462 37.4718 74.9462 37.3423C74.9456 37.2887 74.9241 37.2375 74.8862 37.1996C74.8483 37.1618 74.7971 37.1402 74.7436 37.1396H19.2496C19.1962 37.1408 19.1454 37.1625 19.1076 37.2003C19.0699 37.238 19.0481 37.2889 19.047 37.3423C19.0666 38.4457 20.0631 91.3027 20.8713 91.7343C20.5225 91.7297 19.7475 91.7343 19.8251 91.7343C19.7851 91.7343 19.7468 91.7501 19.7185 91.7784C19.6903 91.8066 19.6744 91.845 19.6744 91.8849C19.5238 100.472 19.4959 100.014 19.5712 100.09C19.694 100.208 66.5192 99.7794 74.4671 100.276ZM54.3977 99.7304C54.8432 97.3544 55.124 94.9504 55.2383 92.5357C55.2488 92.2736 54.8474 92.2781 54.8323 92.5357C54.7176 94.9493 54.4357 97.352 53.9887 99.7266L44.453 99.7229C43.4843 91.8563 43.577 92.3067 43.4738 92.2261C46.7194 92.254 63.5975 92.3956 65.8978 92.4182C65.9535 94.766 66.0123 97.4384 66.0673 99.7929C62.0903 99.7025 54.6952 99.7312 54.3977 99.7304ZM74.0318 92.4875C74.0597 93.2407 74.2864 99.4412 74.3082 99.9662C72.0998 99.8607 68.8233 99.8231 66.483 99.7929C66.4281 97.4384 66.3693 94.766 66.3136 92.4182C66.4137 92.4197 73.9934 92.4897 74.0318 92.4875ZM20.68 83.4022C20.0164 67.7142 19.4688 37.624 19.4635 37.5471H72.4952C74.7029 37.5471 74.3414 37.5584 74.5372 37.5509C74.5372 37.6262 72.5412 91.9053 72.5389 92.0973C72.5389 92.2201 21.1801 91.7403 21.104 91.7395C21.2863 91.6288 21.0513 92.1839 20.68 83.4022ZM30.6977 99.7673C30.6051 99.7673 20.2205 99.817 19.8469 99.8261C20.0375 88.9602 19.9712 92.9507 19.9832 92.0386C22.0456 92.0559 28.7206 92.1101 30.7128 92.1305C30.6868 92.1291 30.6608 92.1331 30.6364 92.1424C30.6121 92.1517 30.5899 92.166 30.5715 92.1844C30.553 92.2028 30.5386 92.2249 30.5292 92.2492C30.5198 92.2735 30.5157 92.2995 30.517 92.3255C30.5765 94.6793 30.6352 97.3864 30.694 99.7673H30.6977ZM43.2011 92.2261C43.1175 92.3082 43.0927 91.8698 44.0598 99.7266C39.5729 99.7342 38.6118 99.7357 31.1045 99.7635C31.045 97.3826 30.99 94.6771 30.9312 92.3188C30.931 92.2925 30.9254 92.2665 30.915 92.2424C30.9046 92.2183 30.8895 92.1965 30.8706 92.1783C30.8516 92.16 30.8293 92.1458 30.8048 92.1363C30.7803 92.1268 30.7541 92.1222 30.7279 92.1229C31.4095 92.1229 29.0226 92.1282 43.1966 92.2261H43.2011Z" fill="black"/>
<path id="Vector_8" d="M67.167 59.4287C67.7803 57.4083 67.5717 55.2275 66.5863 53.3601C65.5587 54.2817 64.4414 55.098 63.251 55.7967C64.2804 57.2746 65.616 58.5133 67.167 59.4287ZM35.3496 52.5745C37.421 53.6523 40.0572 54.1118 42.4043 54.447C43.5386 54.7072 44.7271 54.584 45.7839 54.0967C46.0205 54.2346 46.1982 53.5906 45.8909 53.6877C44.9038 51.5229 43.45 49.6033 41.6337 48.0665C39.8825 46.673 37.4873 45.5809 35.202 45.977C34.6744 46.0523 34.1706 46.2458 33.7283 46.5432C33.286 46.8406 32.9166 47.2341 32.6479 47.6944C31.4984 49.768 33.2361 51.474 35.3496 52.5745ZM32.6772 48.4167C32.8356 47.9146 33.1204 47.4616 33.5044 47.1014C33.8884 46.7411 34.3586 46.4857 34.8698 46.3597C37.0045 45.7737 39.3891 46.7762 41.0884 48.022C43.0482 49.5653 44.6059 51.5595 45.6288 53.8346C44.7393 54.2558 43.738 54.3799 42.7726 54.1886C41.7004 54.0531 40.6342 53.8737 39.5767 53.6508C37.4329 53.3325 35.412 52.4508 33.7204 51.0959C33.3087 50.7957 32.9917 50.3838 32.8068 49.909C32.6219 49.4341 32.5769 48.9163 32.6772 48.4167Z" fill="black"/>
<path id="Vector_9" d="M36.5729 48.6577C37.2181 48.9043 37.8631 49.1524 38.5079 49.4019C38.5272 49.4073 38.5474 49.4087 38.5673 49.4063C38.5872 49.4038 38.6065 49.3975 38.6239 49.3876C38.6414 49.3777 38.6567 49.3644 38.669 49.3486C38.6814 49.3328 38.6905 49.3147 38.6958 49.2953C38.7012 49.276 38.7026 49.2558 38.7002 49.2359C38.6977 49.216 38.6913 49.1968 38.6814 49.1793C38.6716 49.1619 38.6583 49.1465 38.6425 49.1342C38.6267 49.1219 38.6086 49.1128 38.5892 49.1074C37.9445 48.8604 37.2995 48.6121 36.6542 48.3625C36.6348 48.3571 36.6146 48.3557 36.5946 48.3582C36.5747 48.3606 36.5554 48.367 36.5379 48.377C36.5204 48.3869 36.5051 48.4002 36.4927 48.416C36.4804 48.4319 36.4713 48.4501 36.4659 48.4694C36.4606 48.4888 36.4591 48.5091 36.4616 48.529C36.4641 48.549 36.4705 48.5683 36.4804 48.5857C36.4903 48.6032 36.5036 48.6186 36.5195 48.6309C36.5353 48.6433 36.5535 48.6524 36.5729 48.6577ZM38.2247 48.3979C38.7302 48.5203 39.1935 48.7763 39.5662 49.1391C39.7063 49.2754 39.9202 49.0637 39.7801 48.9251C39.3727 48.5217 38.8627 48.2375 38.3053 48.1034C38.1177 48.0589 38.0379 48.3519 38.2247 48.3979ZM49.37 52.5669C52.0153 50.7351 54.7502 50.4293 57.5492 48.1147C58.3433 47.5626 58.9633 46.7954 59.3366 45.9032C59.7682 44.4947 58.502 43.2286 56.4284 43.4666C54.629 43.7242 52.9883 44.6379 51.8217 46.032C50.4054 47.8013 49.4812 49.9132 49.1425 52.1542C49.0989 52.3756 49.1802 52.698 49.37 52.5669ZM51.4948 46.9464C53.4299 44.1852 56.3154 43.3822 57.9062 43.9019C58.2795 43.9861 58.6084 44.2056 58.8293 44.518C59.0502 44.8305 59.1475 45.2137 59.1023 45.5937C58.8162 46.5004 58.2299 47.2827 57.44 47.8119C54.7751 50.0595 52.0439 50.4715 49.4559 52.1542C49.765 50.2951 50.4595 48.5212 51.4948 46.9464Z" fill="black"/>
<path id="Vector_10" d="M53.281 47.0625C52.7796 47.4227 52.3674 47.8929 52.0758 48.4371C51.9839 48.6103 52.2453 48.761 52.3372 48.5877C52.6034 48.0883 52.9791 47.6554 53.4361 47.3216C53.4531 47.3114 53.468 47.2979 53.4798 47.282C53.4916 47.2661 53.5002 47.248 53.505 47.2288C53.5098 47.2095 53.5108 47.1895 53.5079 47.1699C53.505 47.1503 53.4983 47.1315 53.4881 47.1144C53.4779 47.0974 53.4645 47.0826 53.4485 47.0708C53.4326 47.0589 53.4145 47.0504 53.3953 47.0456C53.3761 47.0407 53.3561 47.0397 53.3364 47.0426C53.3168 47.0455 53.298 47.0523 53.281 47.0625ZM54.0959 47.4526C53.8097 47.7163 53.5318 47.9912 53.2516 48.2601C53.1055 48.3972 53.3269 48.6126 53.4655 48.474L54.3091 47.6665C54.4492 47.5355 54.2473 47.3133 54.0959 47.4526ZM58.7516 66.634C53.8662 67.7074 51.6005 63.817 50.4436 63.475C49.8764 63.3056 49.6844 63.8404 49.6151 64.293C49.5582 64.8359 49.6205 65.3847 49.7976 65.901C49.9746 66.4173 50.2622 66.8888 50.6402 67.2826C51.6415 68.2479 52.8418 68.9826 54.157 69.4352C54.334 69.5106 54.4884 69.2507 54.3076 69.1731C53.8881 68.9924 53.464 68.8123 53.0475 68.6097C53.0655 68.5972 53.0796 68.5798 53.088 68.5595C53.0964 68.5392 53.0988 68.5169 53.0949 68.4952C52.9307 66.4924 51.1524 65.1163 49.9548 65.392C49.8202 64.8804 49.8524 64.3392 50.0467 63.8471C50.3728 63.4216 51.2089 64.4392 52.3432 65.3732C53.2339 66.1072 54.2803 66.6285 55.4028 66.8973C56.5252 67.1662 57.6942 67.1756 58.8209 66.9248C59.0197 66.8856 58.9384 66.5926 58.7516 66.634ZM52.7936 68.4802C52.1713 68.2221 51.6071 67.8417 51.1345 67.3615C50.6619 66.8814 50.2904 66.3113 50.0421 65.685C51.0484 65.4583 52.646 66.7252 52.7929 68.4802H52.7936ZM58.668 73.3256C58.2789 74.3545 58.0997 75.4509 58.1407 76.5501C58.0217 79.0787 58.2612 82.5329 59.9447 84.4122C61.3863 86.0143 63.7416 85.6324 65.1863 84.3052C67.2396 82.4184 67.3021 79.2263 66.8667 76.6865C66.4683 74.3568 66.4532 73.9696 66.1037 73.425C65.5765 72.6085 64.6146 72.6055 63.8847 74.2212C63.8381 73.6731 63.7546 73.1288 63.6347 72.592C63.5127 72.0534 63.3213 71.1179 62.5621 71.261C61.8797 71.3906 61.5302 72.2493 61.2974 72.8097C61.1339 73.2073 61.0079 73.6194 60.9208 74.0404C60.8506 73.6136 60.7025 73.2033 60.484 72.83C59.9304 71.9585 59.1078 72.4187 58.668 73.3256ZM59.9153 72.6876C60.4734 72.9038 60.7634 74.6144 60.7634 75.2162C60.7634 75.2561 60.7793 75.2944 60.8075 75.3227C60.8358 75.351 60.8741 75.3668 60.9141 75.3668C60.954 75.3668 60.9923 75.351 61.0206 75.3227C61.0488 75.2944 61.0647 75.2561 61.0647 75.2162C61.0951 74.5513 61.2219 73.8944 61.4413 73.2661C61.6115 72.7893 62.0115 71.8184 62.4958 71.6007C63.1858 71.2912 63.3289 72.5957 63.4102 73.0047C63.5536 73.7346 63.6292 74.4762 63.6362 75.2199C63.6362 75.2599 63.6521 75.2982 63.6803 75.3265C63.7086 75.3547 63.7469 75.3706 63.7868 75.3706C63.8268 75.3706 63.8651 75.3547 63.8933 75.3265C63.9216 75.2982 63.9375 75.2599 63.9375 75.2199C63.9473 74.2076 65.2292 72.1581 65.9606 73.8084C66.3062 75.184 66.5651 76.58 66.7357 77.988C67.3239 84.3858 62.715 86.2402 60.5841 84.593C58.7764 83.1942 58.3863 79.7385 58.4058 77.4796C58.4156 76.2873 58.4495 74.3116 59.0031 73.3256C59.156 73.0673 59.5432 72.5438 59.9153 72.6854V72.6876ZM40.7181 71.3296C40.5803 71.2011 40.4032 71.123 40.2154 71.1079C40.0277 71.0929 39.8403 71.1418 39.6839 71.2467C39.3125 71.7184 39.1147 72.3035 39.1235 72.9038C38.8531 72.1303 38.0931 70.4461 37.1651 70.3602C36.4172 70.2849 36.3102 71.1458 36.2507 71.6911C36.0346 73.6141 36.4277 73.761 35.9675 73.1222C35.1051 71.9804 34.2502 72.131 33.8774 72.9927C33.6593 73.6592 33.5706 74.3612 33.616 75.061C33.5829 76.3919 33.0405 80.6416 35.6248 83.1619C37.0868 84.5854 39.6711 85.008 41.0939 83.4571C42.745 81.6592 42.6757 77.9692 42.2923 75.586C42.0799 74.2671 41.8042 72.0933 40.7181 71.3296ZM41.1768 82.8538C40.01 84.5779 37.718 84.3678 36.3042 83.3328C34.141 81.7511 33.7433 78.6742 33.8608 76.2006C33.8789 75.8172 33.912 75.4346 33.9233 75.0512C33.899 74.4592 33.9547 73.8666 34.089 73.2895C34.3557 72.4037 35.0742 72.2952 35.8365 73.4514C36.0551 73.7557 36.2047 74.104 36.2748 74.472C36.2967 74.6385 36.5919 74.6016 36.5761 74.4321C36.4891 73.6958 36.4681 72.9531 36.5136 72.2131C36.5392 71.789 36.5249 70.3918 37.2917 70.6946C37.8558 70.9206 38.2159 71.6361 38.4931 72.1837C38.7973 72.7887 39.011 73.4351 39.1273 74.1022C39.1604 74.2973 39.4421 74.2121 39.4165 74.0268C39.3433 73.2697 39.4292 72.5057 39.6688 71.7838C39.827 71.4335 40.0537 71.3032 40.4115 71.4945C40.8265 71.7598 41.1391 72.1582 41.298 72.6244C41.8446 74.3087 42.1489 76.0621 42.2019 77.8321C42.2494 79.4952 42.1424 81.4302 41.1768 82.8538ZM49.5397 60.4079C49.764 60.5678 50.0226 60.6729 50.2948 60.7146C50.5671 60.7564 50.8453 60.7337 51.1072 60.6485C51.369 60.5632 51.6073 60.4177 51.8027 60.2237C51.9981 60.0296 52.1453 59.7925 52.2325 59.5312C52.2703 59.2302 52.2404 58.9245 52.1451 58.6364C52.0497 58.3484 51.8913 58.0852 51.6814 57.8661C51.4715 57.647 51.2153 57.4776 50.9316 57.37C50.6479 57.2625 50.3438 57.2196 50.0414 57.2444C49.7209 57.3406 49.4341 57.5253 49.2139 57.7772C48.9937 58.0292 48.8491 58.3381 48.7967 58.6686C48.7443 58.9991 48.7863 59.3376 48.9177 59.6453C49.0491 59.953 49.2647 60.2173 49.5397 60.4079ZM50.8631 57.6474C50.6344 58.0682 50.5051 58.5358 50.4853 59.0144C50.4654 59.4929 50.5555 59.9697 50.7486 60.4079C50.3976 60.4505 50.0427 60.3682 49.7462 60.1754C49.4497 59.9826 49.2305 59.6916 49.127 59.3535C48.8317 58.3193 49.6979 57.13 50.8631 57.6497V57.6474ZM55.4886 58.888C55.7774 58.8258 56.0439 58.6863 56.2595 58.4843C56.4751 58.2824 56.6317 58.0257 56.7126 57.7416C57.0629 56.1259 54.6737 54.4312 53.5491 56.1493C53.3495 56.452 53.2459 56.808 53.252 57.1706C53.258 57.5332 53.3734 57.8855 53.583 58.1814C53.7925 58.4774 54.0866 58.7031 54.4266 58.8292C54.7666 58.9553 55.1368 58.9757 55.4886 58.888ZM53.6056 57.5608C53.3111 56.5319 54.175 55.3343 55.338 55.8548C55.1091 56.2755 54.9797 56.7431 54.9599 57.2217C54.94 57.7003 55.0302 58.177 55.2235 58.6153C54.873 58.6569 54.519 58.5741 54.2234 58.3814C53.9277 58.1887 53.709 57.8983 53.6056 57.5608ZM46.9193 56.8422C46.9398 56.397 47.0969 55.9689 47.3693 55.6161C47.6416 55.2633 48.016 55.0029 48.4415 54.8703C48.4906 54.8538 48.5314 54.8192 48.5557 54.7735C48.58 54.7278 48.5859 54.6746 48.5722 54.6247C48.5586 54.5749 48.5263 54.5321 48.4822 54.5052C48.438 54.4783 48.3852 54.4694 48.3346 54.4801C47.8247 54.6383 47.3762 54.9501 47.0503 55.3729C46.7244 55.7957 46.5371 56.3089 46.5141 56.8422C46.5141 56.896 46.5354 56.9475 46.5734 56.9855C46.6114 57.0235 46.6629 57.0448 46.7167 57.0448C46.7704 57.0448 46.822 57.0235 46.86 56.9855C46.898 56.9475 46.9193 56.896 46.9193 56.8422Z" fill="black"/>
<path id="Vector_11" d="M60.0094 77.0923C60.1059 77.1032 60.2035 77.0931 60.2957 77.063C60.3879 77.0328 60.4726 76.9832 60.544 76.9175C60.6154 76.8519 60.6719 76.7716 60.7096 76.6822C60.7473 76.5928 60.7654 76.4964 60.7627 76.3994C60.7461 75.665 59.2562 75.1001 59.4189 76.55C59.468 76.6804 59.547 76.7973 59.6496 76.8915C59.7521 76.9857 59.8754 77.0545 60.0094 77.0923ZM60.2354 76.7677C59.6698 76.9568 59.7541 76.251 59.7345 76.3911C59.8814 75.3968 60.8448 76.4009 60.2324 76.7677H60.2354ZM61.8947 75.6913C61.8963 75.8032 61.9317 75.912 61.9963 76.0033C62.0609 76.0947 62.1517 76.1643 62.2566 76.203C62.3616 76.2418 62.4758 76.2478 62.5843 76.2203C62.6927 76.1928 62.7903 76.1332 62.8641 76.0491C62.9796 75.949 63.0603 75.8149 63.0946 75.666C63.129 75.5171 63.1153 75.3612 63.0555 75.2206C62.9902 75.0822 62.8808 74.9695 62.7444 74.9001C62.6081 74.8307 62.4525 74.8086 62.3022 74.8372C61.8556 74.9449 61.7034 75.5279 61.8947 75.6913ZM62.2262 75.4654C62.2721 75.2839 62.3128 75.2613 62.2706 75.1852C62.3143 75.1553 62.3648 75.1369 62.4175 75.1318C62.4701 75.1267 62.5233 75.1349 62.5719 75.1558C63.4215 75.5776 61.9392 76.4679 62.2262 75.4631V75.4654ZM64.4707 76.3549C64.5294 76.5074 64.6436 76.6319 64.7905 76.7034C64.9373 76.775 65.1058 76.7882 65.262 76.7404C65.4182 76.6927 65.5504 76.5875 65.6321 76.4461C65.7138 76.3046 65.7389 76.1375 65.7023 75.9783C65.6632 75.8198 65.5709 75.6794 65.4408 75.5807C65.3107 75.482 65.1507 75.4309 64.9875 75.436C64.3517 75.5008 64.1521 76.3399 64.4707 76.3549ZM64.7547 75.9896C64.8059 75.8879 64.8805 75.8864 64.8707 75.7742C64.9351 75.7389 65.0092 75.7256 65.0818 75.7364C65.1544 75.7471 65.2215 75.7813 65.2729 75.8337C65.5335 76.1109 65.4349 76.3444 65.0793 76.4747C65.0207 76.4773 64.9624 76.4648 64.91 76.4384C64.8577 76.4119 64.813 76.3724 64.7804 76.3236C64.7477 76.2748 64.7282 76.2185 64.7237 76.16C64.7192 76.1015 64.7299 76.0428 64.7547 75.9896ZM35.7476 76.0047C35.9231 75.2206 34.8498 74.9502 34.7684 75.2515C34.6178 75.8714 34.5425 75.9731 34.6765 76.0544C34.7121 76.1723 34.786 76.2749 34.8865 76.346C34.9871 76.4171 35.1084 76.4526 35.2314 76.4469C35.3544 76.4412 35.472 76.3946 35.5655 76.3145C35.659 76.2344 35.7231 76.1254 35.7476 76.0047ZM35.2429 76.1418C35.1021 76.184 34.9289 76.0747 34.9733 75.7652C34.9921 75.6898 34.9733 75.4579 35.0486 75.4481C35.1572 75.4545 35.2608 75.496 35.3439 75.5663C35.4132 75.6209 35.4593 75.6998 35.4727 75.787C35.4712 76.0401 35.4531 76.0363 35.2429 76.1418ZM37.4544 74.3717C37.8393 74.6926 38.3432 74.2768 38.2392 73.7383C38.227 73.6373 38.1777 73.5444 38.101 73.4776C38.0243 73.4109 37.9255 73.3749 37.8238 73.3767C37.7221 73.3785 37.6246 73.4179 37.5503 73.4873C37.476 73.5567 37.43 73.6512 37.4212 73.7526V73.7639C37.3761 73.8019 37.3404 73.8499 37.317 73.9041C37.2936 73.9583 37.2831 74.0171 37.2863 74.0761C37.2895 74.135 37.3064 74.1924 37.3355 74.2437C37.3647 74.295 37.4054 74.3388 37.4544 74.3717ZM37.7158 73.8377C37.7609 73.6117 37.8122 73.6539 37.8551 73.6562C37.9734 73.6622 37.9523 73.913 37.9108 74.0222C37.8985 74.0607 37.8764 74.0954 37.8467 74.1229C37.817 74.1503 37.7807 74.1696 37.7414 74.1789C37.7216 74.077 37.7071 73.9742 37.6977 73.8708C37.7038 73.8679 37.7088 73.8631 37.712 73.8572C37.7153 73.8512 37.7166 73.8444 37.7158 73.8377ZM40.4695 74.2723C40.4476 74.2574 40.4221 74.2486 40.3956 74.2468C40.3692 74.2449 40.3427 74.2501 40.3189 74.2617C40.0522 74.0358 39.6832 74.8515 40.2782 74.9509C40.2949 74.9798 40.3146 75.0068 40.3369 75.0315C40.3588 75.0525 40.3864 75.0663 40.4163 75.0713C40.4461 75.0763 40.4768 75.0722 40.5043 75.0595C40.5317 75.0468 40.5548 75.0262 40.5703 75.0002C40.5859 74.9743 40.5933 74.9442 40.5915 74.914C40.9214 74.7076 40.7949 74.1503 40.4695 74.2723ZM38.9307 76.3323C38.8978 76.3224 38.8624 76.324 38.8305 76.3369C36.836 75.4435 34.852 77.2919 35.2467 78.6809C35.2805 78.8131 35.3432 78.9363 35.4303 79.0413C35.5175 79.1464 35.6269 79.2308 35.7506 79.2885C35.8744 79.3461 36.0094 79.3756 36.1459 79.3747C36.2824 79.3738 36.417 79.3427 36.54 79.2834C37.0329 79.0783 37.4428 78.7139 37.7045 78.2485C37.712 78.2372 37.7158 78.2222 37.7233 78.2109C37.8338 78.3732 37.9768 78.5108 38.1432 78.6151C38.3096 78.7194 38.4958 78.7881 38.6901 78.8168C38.8843 78.8455 39.0824 78.8337 39.2719 78.782C39.4614 78.7304 39.6381 78.64 39.7909 78.5167C40.4093 77.9239 40.1886 76.727 38.9307 76.3323ZM39.5732 78.3065C39.4331 78.4151 39.2687 78.4881 39.0942 78.5191C38.9197 78.5502 38.7403 78.5384 38.5713 78.4847C38.4024 78.4311 38.249 78.3372 38.1244 78.2112C37.9998 78.0851 37.9076 77.9307 37.8559 77.7612C37.8453 77.731 37.8256 77.7048 37.7995 77.6863C37.7733 77.6677 37.7421 77.6578 37.7101 77.6578C37.6781 77.6578 37.6469 77.6677 37.6207 77.6863C37.5946 77.7048 37.5749 77.731 37.5644 77.7612C37.4778 78.0604 37.3189 78.3336 37.1018 78.5569C36.8846 78.7802 36.6159 78.9467 36.3193 79.0417C35.6919 79.2292 35.2 78.5272 35.7325 77.5789C35.8847 77.3089 36.0894 77.072 36.3344 76.8822C36.5795 76.6924 36.86 76.5535 37.1595 76.4737C37.459 76.3938 37.7714 76.3746 38.0784 76.4172C38.3854 76.4598 38.6808 76.5634 38.9473 76.7218C38.9683 76.7362 38.9933 76.7439 39.0188 76.7439C39.0444 76.7439 39.0693 76.7362 39.0904 76.7218C39.9099 77.1353 39.9679 77.9352 39.5732 78.3065ZM61.6997 80.8004C61.9508 80.7252 62.1844 80.6008 62.3869 80.4344C62.5895 80.2679 62.7568 80.0628 62.8792 79.831C62.9825 80.0319 63.1284 80.2077 63.3068 80.3461C63.4852 80.4846 63.6917 80.5824 63.9119 80.6326C64.1321 80.6828 64.3606 80.6843 64.5813 80.6369C64.8021 80.5895 65.0099 80.4944 65.1901 80.3583C65.3581 80.1673 65.4648 79.9303 65.4963 79.6779C65.5279 79.4255 65.4829 79.1694 65.3671 78.943C65.1082 78.4423 64.6817 78.0485 64.1619 77.8305C64.1635 77.8053 64.1571 77.7803 64.1435 77.7591C64.13 77.7378 64.1101 77.7214 64.0866 77.7122C63.5587 77.4635 62.9591 77.4127 62.3969 77.5689C61.8346 77.7251 61.3472 78.078 61.0233 78.5634C60.362 79.5832 60.4953 81.0098 61.6997 80.8004ZM61.0323 79.2616C61.1219 78.98 61.2692 78.7202 61.4649 78.4987C61.6606 78.2773 61.9003 78.0991 62.1688 77.9756C62.4372 77.852 62.7285 77.7858 63.0239 77.7812C63.3194 77.7766 63.6126 77.8336 63.8847 77.9487C63.8848 77.9726 63.8921 77.9959 63.9055 78.0156C63.9189 78.0353 63.9379 78.0506 63.9601 78.0595C64.3468 78.2217 64.6865 78.4783 64.9483 78.8059C65.0828 78.9734 65.1664 79.176 65.1892 79.3896C65.212 79.6032 65.1731 79.8189 65.0771 80.011C64.6854 80.6279 63.1067 80.3688 63.1187 79.4476C63.1187 79.2812 62.9191 79.2593 62.8348 79.3723C62.4996 79.8069 62.1862 80.4479 61.5701 80.5074C60.8478 80.579 60.8809 79.7512 61.0323 79.2616ZM39.168 87.3218C39.1572 87.2826 39.1313 87.2493 39.096 87.2293C39.0606 87.2092 39.0188 87.204 38.9796 87.2148C38.9405 87.2256 38.9072 87.2515 38.8872 87.2868C38.8671 87.3221 38.8619 87.364 38.8727 87.4031C38.9281 87.7571 39.0208 88.1042 39.1491 88.4388C39.1545 88.4582 39.1636 88.4763 39.1759 88.4922C39.1883 88.508 39.2036 88.5213 39.2211 88.5313C39.2386 88.5412 39.2579 88.5476 39.2778 88.5501C39.2978 88.5526 39.318 88.5511 39.3374 88.5457C39.3568 88.5404 39.375 88.5313 39.3908 88.5189C39.4067 88.5066 39.42 88.4912 39.4299 88.4737C39.4398 88.4563 39.4462 88.437 39.4487 88.417C39.4512 88.3971 39.4497 88.3768 39.4444 88.3574C39.3142 88.0235 39.2215 87.6761 39.168 87.3218ZM30.6837 69.9933C31.0543 70.1876 31.1628 70.6569 31.2697 71.0252C31.4129 71.5144 31.5274 72.0117 31.6124 72.5143C31.6456 72.7064 31.9363 72.625 31.9032 72.4329C31.8094 71.8799 31.6803 71.3335 31.5168 70.7969C31.4805 70.5812 31.401 70.375 31.2831 70.1907C31.1652 70.0064 31.0113 69.8478 30.8306 69.7244C30.6649 69.6393 30.5097 69.9021 30.6837 69.9933ZM32.7988 72.2748C32.7875 72.4698 33.0903 72.4698 33.1 72.2748C33.141 71.5761 33.0338 70.8767 32.7853 70.2224C32.5368 69.5682 32.1528 68.9739 31.6584 68.4786C31.5183 68.3422 31.3051 68.5539 31.4445 68.6925C31.9106 69.1599 32.2723 69.7209 32.5057 70.3384C32.7392 70.9559 32.839 71.6159 32.7988 72.2748ZM25.3946 70.5168C25.5671 70.4241 25.4127 70.1627 25.2395 70.2546C23.6027 71.1359 23.0906 73.0671 23.3489 74.7995C23.3783 74.9909 23.669 74.9103 23.6396 74.7182C23.4039 73.1191 23.8882 71.3235 25.3946 70.5168ZM25.6266 71.346C24.8262 72.3273 24.3969 73.559 24.414 74.8252C24.414 74.8651 24.4298 74.9034 24.4581 74.9317C24.4863 74.9599 24.5246 74.9758 24.5646 74.9758C24.6045 74.9758 24.6429 74.9599 24.6711 74.9317C24.6994 74.9034 24.7152 74.8651 24.7152 74.8252C24.6972 73.6388 25.0951 72.4836 25.8398 71.56C25.9618 71.4086 25.7517 71.1909 25.6266 71.346ZM22.0624 41.5978C22.5415 41.0781 23.0243 40.5621 23.5033 40.0424C23.6359 39.8985 23.4227 39.6846 23.2894 39.8285C22.8104 40.3482 22.3275 40.8641 21.8485 41.3839C21.7122 41.524 21.9298 41.7416 22.0624 41.5978ZM22.2575 48.8776C24.5277 45.9401 26.7693 42.9762 29.0244 40.0273C29.1426 39.8729 28.8813 39.7215 28.763 39.8729L21.9946 48.7224C21.8779 48.8776 22.1407 49.029 22.2575 48.8776ZM25.424 50.3404C26.6186 48.8106 27.8087 47.2702 28.9988 45.7367C29.117 45.5861 28.9031 45.3684 28.7856 45.5235C27.5945 47.0561 26.4027 48.5906 25.2101 50.1272C25.0881 50.2816 25.3027 50.4955 25.424 50.3404ZM28.8112 52.1323C27.3802 54.1033 25.8465 55.9977 24.2166 57.8077C24.0871 57.9516 24.301 58.1693 24.4298 58.0216C26.077 56.1909 27.6275 54.2754 29.0749 52.2829C29.1908 52.1225 28.9242 51.9718 28.8112 52.1323ZM60.5939 102.074C60.4932 102.074 60.3965 102.114 60.3252 102.186C60.254 102.257 60.2139 102.353 60.2139 102.454C60.2139 102.555 60.254 102.652 60.3252 102.723C60.3965 102.794 60.4932 102.834 60.5939 102.834C60.6947 102.834 60.7914 102.794 60.8626 102.723C60.9339 102.652 60.9739 102.555 60.9739 102.454C60.9739 102.353 60.9339 102.257 60.8626 102.186C60.7914 102.114 60.6947 102.074 60.5939 102.074ZM64.9317 103.176C65.0324 103.176 65.129 103.136 65.2001 103.065C65.2713 102.994 65.3113 102.897 65.3113 102.797C65.3113 102.696 65.2713 102.599 65.2001 102.528C65.129 102.457 65.0324 102.417 64.9317 102.417C64.831 102.417 64.7345 102.457 64.6633 102.528C64.5921 102.599 64.5521 102.696 64.5521 102.797C64.5521 102.897 64.5921 102.994 64.6633 103.065C64.7345 103.136 64.831 103.176 64.9317 103.176ZM61.7644 104.485C61.6637 104.485 61.567 104.525 61.4957 104.596C61.4245 104.667 61.3844 104.764 61.3844 104.865C61.3844 104.965 61.4245 105.062 61.4957 105.133C61.567 105.205 61.6637 105.245 61.7644 105.245C61.8652 105.245 61.9619 105.205 62.0331 105.133C62.1044 105.062 62.1444 104.965 62.1444 104.865C62.1444 104.764 62.1044 104.667 62.0331 104.596C61.9619 104.525 61.8652 104.485 61.7644 104.485ZM66.7229 108.62C66.8235 108.62 66.9201 108.58 66.9913 108.509C67.0625 108.438 67.1025 108.342 67.1025 108.241C67.1025 108.14 67.0625 108.044 66.9913 107.972C66.9201 107.901 66.8235 107.861 66.7229 107.861C66.6222 107.861 66.5256 107.901 66.4544 107.972C66.3832 108.044 66.3432 108.14 66.3432 108.241C66.3432 108.342 66.3832 108.438 66.4544 108.509C66.5256 108.58 66.6222 108.62 66.7229 108.62ZM73.7519 106C73.6512 106 73.5546 106.04 73.4834 106.111C73.4123 106.182 73.3723 106.279 73.3723 106.38C73.3723 106.48 73.4123 106.577 73.4834 106.648C73.5546 106.719 73.6512 106.759 73.7519 106.759C73.8526 106.759 73.9491 106.719 74.0203 106.648C74.0915 106.577 74.1315 106.48 74.1315 106.38C74.1315 106.279 74.0915 106.182 74.0203 106.111C73.9491 106.04 73.8526 106 73.7519 106ZM71.548 104.485C71.6486 104.485 71.7452 104.445 71.8164 104.373C71.8876 104.302 71.9276 104.206 71.9276 104.105C71.9276 104.004 71.8876 103.908 71.8164 103.836C71.7452 103.765 71.6486 103.725 71.548 103.725C71.4473 103.725 71.3507 103.765 71.2795 103.836C71.2083 103.908 71.1683 104.004 71.1683 104.105C71.1683 104.206 71.2083 104.302 71.2795 104.373C71.3507 104.445 71.4473 104.485 71.548 104.485ZM78.3668 99.3875C78.4675 99.3875 78.5641 99.3475 78.6353 99.2763C78.7065 99.2052 78.7465 99.1086 78.7465 99.0079C78.7465 98.9072 78.7065 98.8107 78.6353 98.7395C78.5641 98.6683 78.4675 98.6283 78.3668 98.6283C78.2662 98.6283 78.1696 98.6683 78.0984 98.7395C78.0272 98.8107 77.9872 98.9072 77.9872 99.0079C77.9872 99.1086 78.0272 99.2052 78.0984 99.2763C78.1696 99.3475 78.2662 99.3875 78.3668 99.3875ZM79.6789 88.4335C79.7796 88.4335 79.8762 88.3935 79.9474 88.3223C80.0186 88.2511 80.0586 88.1546 80.0586 88.0539C80.0586 87.9532 80.0186 87.8566 79.9474 87.7855C79.8762 87.7143 79.7796 87.6743 79.6789 87.6743C79.5783 87.6743 79.4817 87.7143 79.4105 87.7855C79.3393 87.8566 79.2993 87.9532 79.2993 88.0539C79.2993 88.1546 79.3393 88.2511 79.4105 88.3223C79.4817 88.3935 79.5783 88.4335 79.6789 88.4335ZM61.2643 123.452C61.365 123.452 61.4615 123.412 61.5327 123.341C61.6039 123.27 61.6439 123.173 61.6439 123.072C61.6439 122.972 61.6039 122.875 61.5327 122.804C61.4615 122.733 61.365 122.693 61.2643 122.693C61.1636 122.693 61.0671 122.733 60.9959 122.804C60.9247 122.875 60.8847 122.972 60.8847 123.072C60.8847 123.173 60.9247 123.27 60.9959 123.341C61.0671 123.412 61.1636 123.452 61.2643 123.452ZM73.9771 122.984C74.0778 122.984 74.1743 122.944 74.2455 122.873C74.3167 122.802 74.3567 122.705 74.3567 122.605C74.3567 122.504 74.3167 122.407 74.2455 122.336C74.1743 122.265 74.0778 122.225 73.9771 122.225C73.8764 122.225 73.7799 122.265 73.7087 122.336C73.6375 122.407 73.5975 122.504 73.5975 122.605C73.5975 122.705 73.6375 122.802 73.7087 122.873C73.7799 122.944 73.8764 122.984 73.9771 122.984ZM57.0772 101.142C56.9765 101.142 56.8799 101.182 56.8087 101.253C56.7375 101.324 56.6976 101.421 56.6976 101.521C56.6976 101.622 56.7375 101.719 56.8087 101.79C56.8799 101.861 56.9765 101.901 57.0772 101.901C57.1779 101.901 57.2744 101.861 57.3456 101.79C57.4168 101.719 57.4568 101.622 57.4568 101.521C57.4568 101.421 57.4168 101.324 57.3456 101.253C57.2744 101.182 57.1779 101.142 57.0772 101.142Z" fill="black"/>
<path id="Vector_12" d="M38.791 125.55C38.791 125.55 24.376 124.311 15.8473 124.776C15.8473 124.776 8.86953 104.157 10.5748 101.831C12.2801 99.5051 15.2267 108.186 15.2267 108.186C15.2267 108.186 9.49094 77.3357 13.0536 78.5778C16.6164 79.8198 19.7211 99.5059 19.7211 99.5059C19.372 96.3703 19.196 93.2178 19.1939 90.0628C19.1161 88.7634 19.2874 87.4611 19.6985 86.2259C20.2333 84.9613 21.8218 83.653 23.079 84.8619C23.7424 85.673 24.1775 86.6465 24.3391 87.6819C24.704 89.1513 24.9846 90.6403 25.1797 92.1417C25.6199 94.418 25.8688 96.7271 25.9239 99.0449C25.9239 99.0449 26.1822 91.1362 30.0598 93.0004C33.9373 94.8646 32.2818 104.78 32.2818 104.78C32.2818 104.78 33.5185 91.1392 36.7754 92.0679C40.0323 92.9966 35.6923 109.894 35.6923 109.894C35.6923 109.894 37.2439 102.452 40.3434 105.088C43.4429 107.723 38.791 125.55 38.791 125.55Z" fill="#ACEAC7"/>
<path id="Vector_13" d="M57.641 123.968C57.4474 123.066 57.0406 122.223 56.4547 121.511C55.8687 120.798 55.1206 120.236 54.273 119.872C53.4254 119.507 52.5028 119.351 51.5824 119.416C50.6621 119.481 49.7707 119.766 48.9828 120.246C49.3443 119.181 49.6652 118.104 49.9304 117.007C50.2265 116.092 50.322 115.125 50.2105 114.17C50.1583 113.735 49.942 113.337 49.606 113.057C49.2699 112.777 48.8395 112.636 48.4028 112.663C46.9506 112.789 45.219 114.546 44.3776 115.719C45.5399 111.576 45.1188 107.41 44.5697 106.18C44.4208 105.833 44.1767 105.535 43.8657 105.32C43.5546 105.106 43.1893 104.983 42.8117 104.968C41.0642 104.856 39.9389 106.453 39.008 107.872C37.6944 109.883 36.6962 112.083 36.0478 114.396C35.9854 112.658 35.5978 110.948 34.9052 109.354C34.3779 108.135 33.4658 106.198 32.1853 106.526C31.9098 106.633 31.6635 106.804 31.4663 107.025C31.2691 107.245 31.1265 107.509 31.0502 107.794C29.9707 110.88 29.5542 114.158 29.8278 117.415C29.2122 116.284 28.4039 115.269 27.4393 114.415C27.0966 114.114 26.6951 113.715 26.1973 113.781C25.2392 113.906 25.136 115.318 25.0441 116.041C24.7314 118.55 25.0912 121.097 26.0865 123.422C26.1897 123.661 26.5385 123.455 26.4368 123.219C25.389 120.746 25.0818 118.023 25.5525 115.379C25.5756 114.962 25.7483 114.567 26.0391 114.266C26.4405 113.965 26.9053 114.472 27.1892 114.723C28.3875 115.796 29.3359 117.118 29.9679 118.597C29.9909 118.635 30.0255 118.664 30.0664 118.68C30.1074 118.696 30.1524 118.698 30.1949 118.687C30.2373 118.675 30.2748 118.65 30.3018 118.615C30.3288 118.58 30.3438 118.538 30.3445 118.494C29.9417 115.347 30.1839 112.152 31.0563 109.102C31.3041 108.245 31.6505 106.761 32.5928 106.906C33.4146 107.038 34.094 108.529 34.4359 109.283C35.4418 111.499 35.8389 113.943 35.5861 116.363C35.5635 116.589 35.9401 116.639 35.9838 116.419C36.6487 112.973 38.0854 109.723 40.186 106.912C40.6421 106.238 41.302 105.728 42.069 105.456C44.1336 104.895 44.459 106.711 44.63 108.56C44.9125 111.542 44.5 114.548 43.4248 117.344C43.3435 117.558 43.6937 117.704 43.7931 117.498C44.2295 116.586 44.8025 115.746 45.4924 115.006C46.449 113.987 48.2657 112.432 49.3338 113.344C49.598 113.593 49.7696 113.925 49.8204 114.284C49.9155 115.169 49.8199 116.064 49.5402 116.908C49.2268 118.19 48.8479 119.455 48.4051 120.698C48.3501 120.856 48.5633 121.033 48.7064 120.924C49.4276 120.368 50.278 120.005 51.1781 119.867C52.0781 119.73 52.9982 119.823 53.8523 120.139C54.7064 120.454 55.4665 120.981 56.0614 121.67C56.6563 122.359 57.0666 123.188 57.2539 124.079C57.3058 124.33 57.6968 124.223 57.641 123.968ZM15.8993 112.432C16.3733 113.215 16.6538 114.099 16.7173 115.012C16.7361 115.27 17.1413 115.274 17.1233 115.012C17.0592 114.028 16.7595 113.073 16.2495 112.229C16.2212 112.186 16.1773 112.155 16.1269 112.143C16.0764 112.131 16.0233 112.139 15.9785 112.165C15.9336 112.191 15.9004 112.233 15.8857 112.283C15.8709 112.332 15.8758 112.386 15.8993 112.432ZM18.0226 105.488C18.4728 106.431 18.7236 107.457 18.7593 108.501C18.7668 108.759 19.172 108.762 19.1652 108.501C19.1284 107.385 18.8585 106.288 18.3729 105.282C18.2584 105.049 17.9104 105.252 18.0226 105.488ZM19.2202 111.651C19.5766 112.497 19.8327 113.382 19.9832 114.287C20.0239 114.545 20.4141 114.438 20.3741 114.18C20.2232 113.275 19.9672 112.39 19.6111 111.544C19.6041 111.518 19.5921 111.494 19.5758 111.473C19.5595 111.452 19.5392 111.435 19.5161 111.421C19.493 111.408 19.4675 111.4 19.4411 111.396C19.4147 111.393 19.3879 111.395 19.3622 111.402C19.3365 111.409 19.3125 111.421 19.2915 111.437C19.2704 111.454 19.2528 111.474 19.2397 111.497C19.2265 111.52 19.218 111.546 19.2146 111.572C19.2113 111.598 19.2132 111.625 19.2202 111.651ZM22.1065 105.838C21.7706 106.031 22.4018 106.405 22.6037 108.19C22.6068 108.242 22.6296 108.29 22.6673 108.326C22.705 108.361 22.7549 108.381 22.8067 108.381C22.8585 108.381 22.9083 108.361 22.946 108.326C22.9837 108.29 23.0065 108.242 23.0097 108.19C22.9215 107.402 22.71 106.633 22.383 105.911C22.3558 105.865 22.3116 105.832 22.2599 105.818C22.2082 105.804 22.1531 105.811 22.1065 105.838ZM16.4958 94.7803C17.0149 95.9213 17.2525 97.1702 17.1888 98.4221C17.1737 98.6842 17.579 98.6797 17.594 98.4221C17.6599 97.0978 17.4032 95.7772 16.8461 94.5739C16.7399 94.3382 16.3889 94.5446 16.4958 94.7803ZM23.61 96.3583C23.5572 96.1045 23.1678 96.2077 23.219 96.4645C23.3998 97.3382 23.5844 98.212 23.7644 99.0819C23.8163 99.3358 24.2073 99.2326 24.1553 98.975C23.9745 98.105 23.7907 97.232 23.61 96.3583ZM27.0861 107.972C26.9143 106.941 26.7539 105.908 26.5882 104.876C26.5475 104.618 26.1566 104.726 26.1973 104.983L26.6951 108.079C26.7396 108.337 27.1282 108.23 27.0861 107.972ZM28.6595 102.919C28.6595 102.973 28.6809 103.024 28.7189 103.062C28.7569 103.1 28.8084 103.121 28.8621 103.121C28.9159 103.121 28.9674 103.1 29.0054 103.062C29.0434 103.024 29.0648 102.973 29.0648 102.919C29.1339 102.247 29.0167 101.57 28.7258 100.96C28.6975 100.917 28.6535 100.886 28.6031 100.874C28.5527 100.862 28.4996 100.87 28.4548 100.896C28.4099 100.922 28.3767 100.964 28.3619 101.014C28.3472 101.063 28.3521 101.117 28.3756 101.163C28.6288 101.711 28.727 102.319 28.6595 102.919Z" fill="#6DD3A8"/>
<path id="Vector_14" d="M33.9704 118.311C34.0659 119.447 34.0843 120.589 34.0254 121.727C34.0103 121.989 34.4163 121.986 34.4306 121.727C34.4914 120.589 34.473 119.447 34.3756 118.311C34.3508 118.052 33.9486 118.049 33.9704 118.311ZM34.4389 104.515C34.5639 103.95 34.6895 103.387 34.8155 102.823C34.8276 102.771 34.82 102.717 34.7941 102.671C34.7681 102.624 34.7258 102.589 34.6754 102.572C34.6236 102.558 34.5683 102.565 34.5213 102.591C34.4744 102.617 34.4397 102.661 34.4246 102.712L34.048 104.404C34.0361 104.455 34.0443 104.509 34.0708 104.554C34.0974 104.599 34.1403 104.632 34.1906 104.646C34.2409 104.66 34.2948 104.655 34.341 104.63C34.3873 104.606 34.4223 104.564 34.4389 104.515Z" fill="#6DD3A8"/>
<path id="Vector_15" d="M127.972 62.8726C127.972 62.8726 118.67 66.488 119.292 86.6426V88.4006H141.304C141.304 88.4006 140.789 57.1888 127.972 62.8726Z" fill="#B26EE6"/>
<path id="Vector_16" d="M132.776 50.5546C131.151 46.677 125.22 45.3837 121.903 48.4132C121.106 49.1426 120.54 50.089 120.274 51.1361C120.008 52.1831 120.054 53.2851 120.407 54.3063C120.824 55.454 121.545 56.4665 122.494 57.2353C123.442 58.0041 124.582 58.5002 125.791 58.6705C125.545 60.5158 125.028 65.5925 126.724 66.3533C128.549 67.175 132.028 65.362 131.062 60.1498C130.902 59.3133 130.666 58.493 130.358 57.6988C131.081 57.2597 131.702 56.6711 132.179 55.9725C132.655 55.2738 132.977 54.4813 133.122 53.648C133.53 53.6583 133.928 53.5153 134.235 53.2471C134.543 52.979 134.739 52.6052 134.785 52.1996C134.785 51.9512 134.73 51.7059 134.623 51.4814C134.517 51.2569 134.362 51.0588 134.17 50.9015C133.978 50.7441 133.753 50.6313 133.512 50.5713C133.271 50.5113 133.019 50.5056 132.776 50.5546Z" fill="#A76C6C"/>
<path id="Vector_17" d="M124.103 95.3C125.301 92.8714 126.725 90.5613 128.357 88.4005H123.05C123.236 90.7225 123.588 93.0282 124.103 95.3ZM142.909 112.288C142.723 111.601 142.353 110.978 141.839 110.486C138.733 107.006 135.229 102.421 133.867 97.9468C132.087 99.7424 130.548 101.871 129.341 106.985C130.448 108.544 131.719 109.981 133.13 111.272C134.726 112.721 138.382 116.068 140.756 115.681C142.201 115.443 143.157 113.656 142.909 112.288Z" fill="#FFD35C"/>
<path id="Vector_18" d="M136.61 94.0015C137.625 92.3964 138.525 90.2791 138.413 88.399H129.073C127.846 90.3002 122.119 97.2772 121.487 107.068C121.311 109.754 121.487 117.218 123.835 118.523C124.382 118.752 124.987 118.801 125.564 118.662C126.14 118.523 126.658 118.205 127.041 117.753C127.882 116.75 127.398 115.502 128.063 110.597C128.289 108.94 128.618 107.299 129.05 105.684C131.307 97.4301 134.149 97.8866 136.61 94.0015Z" fill="#FFD35C"/>
<path id="Vector_19" d="M145.565 114.43C145.565 114.39 145.549 114.351 145.521 114.323C145.493 114.295 145.455 114.279 145.415 114.279C144.828 114.341 144.26 114.522 143.746 114.811C143.231 115.099 142.781 115.49 142.422 115.958C142.064 116.426 141.804 116.963 141.66 117.535C141.515 118.107 141.488 118.702 141.582 119.285C141.736 120.731 142.366 122.057 141.799 123.033C141.296 123.696 140.587 124.173 139.783 124.389C139.47 124.514 138.899 124.684 138.732 125.019C138.249 125.991 142.671 125.423 143.723 125.245C144.434 125.128 144.661 125.16 144.939 124.102C145.53 121.883 145.565 116.714 145.565 114.43ZM144.224 124.831C142.806 125.113 141.364 125.253 139.919 125.251C139.614 125.274 139.308 125.232 139.02 125.13C139.375 124.753 140.785 124.434 141.556 123.774C143.166 122.398 141.756 120.545 141.857 118.455C141.876 117.512 142.229 116.607 142.853 115.9C143.477 115.193 144.333 114.731 145.266 114.596C145.269 115.664 145.224 124.545 144.224 124.831ZM144.375 72.4739C144.176 72.2863 143.947 72.3308 143.686 72.3601C143.336 72.4068 142.992 72.487 142.657 72.5997C142.195 70.0734 141.469 67.6028 140.49 65.2287C139.805 63.6002 139.251 62.3484 137.745 61.4287C135.87 60.4512 133.73 60.1076 131.644 60.4495C131.452 60.4789 131.533 60.7742 131.725 60.7403C132.326 60.6577 132.932 60.6258 133.538 60.6446C135.518 60.6913 137.572 61.2314 138.831 62.7604C140.373 64.6351 141.9 70.1781 142.391 72.8301C142.396 72.8496 142.405 72.8679 142.417 72.8839C142.43 72.8999 142.445 72.9132 142.462 72.9232C142.48 72.9332 142.499 72.9395 142.519 72.9419C142.539 72.9443 142.559 72.9427 142.579 72.9371C143.058 72.7459 143.569 72.6438 144.085 72.6358C144.802 73.0923 146.847 79.0668 146.543 81.7204C146.317 83.7119 143.299 84.444 141.402 84.5299C141.206 84.5366 141.206 84.8432 141.402 84.8311C143.285 84.7475 146.199 84.0493 146.749 82.2069C147.409 80.11 145.305 73.3634 144.375 72.4739Z" fill="black"/>
<path id="Vector_20" d="M141.722 82.4771C141.527 82.4696 141.527 82.7723 141.722 82.7784C143.189 82.8439 145.252 81.989 145.496 80.4901C145.784 78.7321 144.6 75.3396 143.914 73.7157C143.863 73.5816 143.963 73.605 140.361 74.264C140.169 74.3017 140.251 74.5924 140.442 74.5555L143.689 73.9582C144.288 75.4428 145.771 79.4974 145.049 80.9209C144.556 81.9122 142.925 82.5306 141.722 82.4771ZM121.24 51.7782C121.148 51.7782 121.058 51.8055 120.982 51.8566C120.905 51.9077 120.846 51.9803 120.81 52.0653C120.775 52.1503 120.766 52.2438 120.784 52.3339C120.802 52.4241 120.846 52.5069 120.912 52.5719C120.977 52.6368 121.059 52.681 121.15 52.6989C121.24 52.7167 121.333 52.7074 121.418 52.6721C121.503 52.6368 121.576 52.5772 121.627 52.5006C121.678 52.4241 121.705 52.3342 121.705 52.2422C121.705 52.1812 121.693 52.1207 121.67 52.0643C121.646 52.0078 121.612 51.9566 121.569 51.9134C121.526 51.8703 121.474 51.8361 121.418 51.8129C121.361 51.7897 121.301 51.7779 121.24 51.7782ZM128.645 51.7782C128.553 51.7781 128.463 51.8052 128.386 51.8563C128.31 51.9073 128.25 51.9798 128.215 52.0648C128.18 52.1497 128.17 52.2432 128.188 52.3335C128.206 52.4237 128.25 52.5066 128.315 52.5716C128.38 52.6366 128.463 52.6809 128.554 52.6988C128.644 52.7167 128.737 52.7075 128.822 52.6722C128.907 52.6369 128.98 52.5772 129.031 52.5007C129.082 52.4242 129.109 52.3342 129.109 52.2422C129.109 52.1812 129.097 52.1208 129.074 52.0644C129.051 52.0081 129.016 51.9568 128.973 51.9137C128.93 51.8706 128.879 51.8364 128.823 51.8132C128.766 51.7899 128.706 51.778 128.645 51.7782ZM128.549 53.8827C127.061 55.3613 123.475 55.4999 122.047 53.7426C121.925 53.592 121.711 53.8052 121.833 53.9566C123.306 55.768 126.939 55.689 128.612 54.2292C129.189 55.5541 126.973 56.9958 125.571 56.8655C125.376 56.8466 125.379 57.1525 125.571 57.1668C127.287 57.3219 129.781 55.4818 128.792 53.9083C128.779 53.8891 128.762 53.873 128.742 53.8611C128.722 53.8491 128.7 53.8417 128.677 53.8392C128.654 53.8368 128.63 53.8394 128.608 53.8469C128.586 53.8544 128.566 53.8667 128.549 53.8827ZM129.872 50.9746C129.699 50.6957 129.461 50.4627 129.179 50.2953C128.896 50.1278 128.578 50.0309 128.25 50.0127C128.055 50.0014 128.055 50.3072 128.25 50.314C128.525 50.3313 128.792 50.414 129.028 50.555C129.265 50.6961 129.464 50.8916 129.61 51.1252C129.71 51.2939 129.975 51.1433 129.872 50.9746ZM121.796 49.5774C121.432 49.6725 121.12 49.9054 120.926 50.2266C120.916 50.2438 120.909 50.2627 120.907 50.2824C120.904 50.302 120.906 50.322 120.911 50.3411C120.916 50.3602 120.925 50.3781 120.937 50.3939C120.949 50.4096 120.964 50.4227 120.981 50.4326C120.998 50.4425 121.017 50.4489 121.037 50.4515C121.057 50.4541 121.076 50.4528 121.096 50.4476C121.115 50.4425 121.133 50.4336 121.148 50.4215C121.164 50.4095 121.177 50.3944 121.187 50.3773C121.261 50.2503 121.36 50.1396 121.478 50.0516C121.596 49.9637 121.731 49.9002 121.873 49.8651C122.073 49.8289 121.994 49.5261 121.796 49.5774Z" fill="black"/>
<path id="Vector_21" d="M114.222 122.612C114.237 123.931 114.244 125.259 114.329 126.574L116.071 126.541C116.026 125.887 115.996 124.48 115.982 123.813C115.352 123.48 114.762 123.078 114.222 122.612ZM114.198 120.579C114.794 120.804 115.378 121.062 115.945 121.352C115.945 118.53 115.854 110.651 116.107 84.4214C115.498 84.2069 114.907 83.9418 114.342 83.629C114.291 91.5288 114.113 110.1 114.198 120.579Z" fill="#A76C6C"/>
<path id="Vector_22" d="M129.875 74.5475C128.123 76.2948 126.085 77.7296 123.85 78.7896C122.164 79.6065 120.322 80.0504 118.45 80.0912C118.175 80.1121 117.9 80.042 117.669 79.8916C117.342 79.4522 117.163 78.9206 117.157 78.3731C117.068 77.8067 116.934 76.1051 116.368 76.0825C115.761 76.0486 115.866 77.256 116 77.8571C116.012 77.8932 116.011 77.9328 115.996 77.9678C115.98 78.0029 115.952 78.0308 115.917 78.0458C115.882 78.0609 115.842 78.062 115.806 78.0489C115.77 78.0358 115.74 78.0095 115.723 77.9754C115.047 76.8919 114.228 75.9049 113.287 75.0416C113.036 74.8382 112.232 74.2967 112.081 74.9053C111.91 75.5982 113.237 77.2545 113.714 77.7871C113.742 77.8153 113.758 77.8537 113.758 77.8938C113.758 77.9338 113.742 77.9722 113.714 78.0006C113.686 78.029 113.647 78.0449 113.607 78.045C113.567 78.0451 113.529 78.0292 113.5 78.001C112.89 77.4986 111.068 75.6163 110.478 75.8875C110.422 75.9251 110.376 75.9751 110.343 76.0335C110.31 76.0919 110.29 76.1571 110.286 76.2241C110.112 77.2658 111.202 78.2669 111.753 78.8175C111.806 78.8679 112.13 79.1941 112.13 79.1941C112.258 79.3379 112.044 79.5549 111.916 79.4072L111.889 79.3839C111.281 78.6962 110.024 77.5701 109.615 78.4047C109.284 79.0871 110.025 79.939 110.6 80.4994C115.866 85.7953 123.419 86.7262 131.476 80.4798C132.359 79.8118 133.19 79.0781 133.962 78.2849C133.359 77.7223 135.128 79.3545 129.875 74.5475ZM116.547 79.9917C116.516 80.1326 115.275 80.9001 115.258 82.1007C115.258 82.1407 115.242 82.179 115.214 82.2073C115.185 82.2355 115.147 82.2514 115.107 82.2514C115.067 82.2514 115.029 82.2355 115.001 82.2073C114.972 82.179 114.956 82.1407 114.956 82.1007C115.004 81.6423 115.152 81.2002 115.391 80.8062C115.63 80.4121 115.954 80.0761 116.339 79.8223C116.455 79.7356 116.584 79.869 116.547 79.9917Z" fill="#A76C6C"/>
<path id="Vector_23" d="M120.182 88.7614C119.874 88.7154 119.976 88.8894 119.976 89.1154C119.981 89.3722 119.086 121.579 119.083 121.654C119.083 121.694 119.099 121.733 119.127 121.761C119.156 121.789 119.194 121.805 119.234 121.805C119.274 121.805 119.312 121.789 119.34 121.761C119.369 121.733 119.385 121.694 119.385 121.654C120.2 86.873 120.361 88.7885 120.182 88.7614ZM116.338 79.8214C115.954 80.0765 115.631 80.413 115.393 80.8069C115.154 81.2008 115.005 81.6426 114.956 82.1007C114.956 82.1406 114.972 82.1789 115 82.2072C115.028 82.2354 115.066 82.2513 115.106 82.2513C115.146 82.2513 115.185 82.2354 115.213 82.2072C115.241 82.1789 115.257 82.1406 115.257 82.1007C115.313 81.6979 115.452 81.3109 115.663 80.9637C115.875 80.6165 116.156 80.3165 116.488 80.0821C116.504 80.0716 116.517 80.0582 116.527 80.0427C116.536 80.0272 116.543 80.0098 116.546 79.9917V79.9126C116.544 79.8898 116.535 79.8682 116.521 79.8498C116.507 79.8314 116.489 79.817 116.468 79.8078C116.447 79.7986 116.424 79.795 116.401 79.7974C116.378 79.7998 116.356 79.8081 116.338 79.8214ZM135.316 77.8073C136.478 75.9863 137.232 73.9357 137.527 71.7959C137.561 71.6076 137.268 71.527 137.233 71.7206C136.856 73.7001 135.919 77.0873 134.38 78.37C134.229 78.4913 134.443 78.7052 134.594 78.5839C134.787 78.4215 134.96 78.2367 135.11 78.0333C135.469 78.4814 135.862 78.9009 136.285 79.2882C137.504 80.418 139.127 81.4845 140.729 81.0605C140.768 81.0497 140.801 81.024 140.82 80.989C140.84 80.9541 140.845 80.9127 140.834 80.8741C140.823 80.8354 140.798 80.8026 140.763 80.7829C140.728 80.7632 140.687 80.7582 140.648 80.769C138.763 81.2721 136.527 79.3198 135.316 77.8073Z" fill="black"/>
<path id="Vector_24" d="M141.368 81.7399C138.933 82.6671 135.815 80.5807 134 78.7082C134.099 78.6047 134.194 78.4971 134.284 78.3858C134.312 78.3548 134.327 78.3145 134.327 78.2728C134.327 78.2311 134.312 78.1908 134.284 78.1598C129.647 73.8514 129.985 74.1941 129.865 74.1941C129.881 74.1672 129.888 74.1351 129.882 74.1038C129.877 74.0726 129.86 74.0444 129.835 74.0247C129.559 73.7821 129.286 73.5351 129.007 73.2918C130.268 71.8974 131.319 70.3268 132.128 68.6294C132.209 68.4524 131.947 68.2972 131.866 68.4742C131.612 69.0212 131.329 69.5543 131.018 70.071C131.077 68.0486 131.752 65.3039 133.448 64.1658C136.62 62.0289 138.118 67.016 138.667 70.7007C138.667 70.9056 139 70.9357 138.973 70.7263C138.707 68.591 137.639 64.1199 135.633 63.4729C135.655 63.4453 135.667 63.4103 135.665 63.3748C135.663 63.3392 135.648 63.3057 135.622 63.2808C134.881 62.5065 133.815 61.7917 132.685 62.0425C132.389 62.1424 132.132 62.3332 131.951 62.5878C130.073 64.5989 129.39 67.6404 129.268 70.3723C129.24 70.8682 129.238 71.3653 129.261 71.8614C129.271 72.0565 129.577 72.0565 129.562 71.8614C129.406 69.3939 129.972 65.7604 131.589 63.5007C131.88 63.0938 132.214 62.7193 132.585 62.3837C132.866 62.2798 133.172 62.2594 133.465 62.325C134.165 62.4794 134.799 62.8461 135.283 63.3749C134.808 63.3025 134.323 63.3731 133.889 63.5776C131.393 64.6547 130.389 69.1649 130.713 70.5538C129.186 72.9295 128.431 73.1856 128.679 73.4078C129.654 74.2785 129.626 74.2702 129.704 74.2702C129.628 74.2702 125.085 79.2414 119.328 79.7581C119.033 79.786 118.736 79.7935 118.44 79.7807C118.182 79.7694 117.901 79.7732 117.754 79.5262C117.191 78.5681 117.545 76.2587 116.585 75.8354C116.678 67.1199 116.758 60.573 116.822 55.6537C117.074 56.121 117.426 56.5265 117.854 56.8411C118.282 57.1556 118.774 57.3714 119.295 57.4727C118.994 57.774 118.528 57.9186 118.252 58.2501C118.08 58.478 117.994 58.7594 118.011 59.0444C118.027 59.3294 118.144 59.5994 118.34 59.8062C118.88 60.451 119.852 60.4992 120.751 60.5805C120.719 60.6619 120.474 72.4873 120.33 74.1324C120.313 74.3071 120.373 74.3583 120.388 74.3094C120.84 72.8722 121.072 60.6822 121.057 60.6069C122.413 60.7183 124.014 60.7809 125.582 60.7575C125.635 60.7565 125.686 60.7349 125.724 60.6971C125.762 60.6593 125.784 60.6083 125.785 60.5549C125.835 59.9242 125.9 59.2965 125.98 58.6719C125.98 58.6271 125.966 58.5836 125.938 58.5482C125.911 58.5128 125.873 58.4874 125.83 58.476C121.636 57.8637 119.174 53.6554 120.795 50.2275C122.985 45.59 130.62 46.0178 132.586 50.6584C132.603 50.6892 132.628 50.7148 132.659 50.7323C132.689 50.7498 132.724 50.7586 132.759 50.7578C133.135 50.6882 133.523 50.758 133.85 50.9541C134.178 51.1501 134.423 51.4591 134.539 51.8229C134.571 52.0278 134.557 52.2372 134.499 52.4363C134.441 52.6354 134.34 52.8192 134.202 52.9747C134.065 53.1302 133.895 53.2536 133.705 53.3361C133.515 53.4186 133.309 53.4582 133.101 53.4521C133.057 53.4527 133.014 53.4678 132.979 53.4949C132.943 53.5221 132.918 53.5599 132.906 53.6027C132.762 54.4087 132.45 55.1752 131.989 55.8522C131.529 56.5291 130.93 57.1014 130.234 57.5315C130.196 57.5543 130.167 57.5886 130.151 57.6293C130.134 57.67 130.131 57.7149 130.142 57.7575C130.94 59.8612 130.726 60.399 131.041 60.356C132.889 60.1097 135.606 59.7218 137.126 58.815C139.884 57.1745 139.197 54.1126 137.569 53.4671C137.994 52.9923 138.306 52.4267 138.481 51.8133C138.655 51.1999 138.688 50.5548 138.576 49.927C138.21 47.4414 136.075 45.8107 133.809 44.7487C131.957 40.7566 126.026 41.3645 121.522 43.0381C121.522 42.9206 121.686 38.1203 121.686 36.8866C121.395 35.4977 120.926 34.1523 120.29 32.884C116.799 25.7985 109.126 22.9415 101.337 23.7836C95.5161 24.4619 90.0864 27.0589 85.9047 31.1652C84.7109 32.3078 83.5901 33.5574 82.507 34.807C81.4525 36.0249 81.5624 36.1522 81.5278 37.0666C80.9079 52.277 83.4169 123.432 83.566 126.172C83.566 126.212 83.5819 126.25 83.6101 126.279C83.6384 126.307 83.6767 126.323 83.7166 126.323C83.7566 126.323 83.7949 126.307 83.8232 126.279C83.8514 126.25 83.8673 126.212 83.8673 126.172V126.069C98.3901 126.164 104.815 127.54 128.517 126.482C128.712 126.474 128.712 126.168 128.517 126.181C123.832 126.382 120.324 126.454 116.446 126.539C116.398 125.703 116.37 124.866 116.363 124.029C118.458 125.025 120.684 125.719 122.974 126.093C123.676 126.223 123.933 126.458 124.828 125.702C125.377 125.165 125.802 124.515 126.076 123.797C126.349 123.079 126.463 122.311 126.41 121.544C126.409 121.512 126.398 121.48 126.379 121.454C126.359 121.429 126.331 121.41 126.3 121.401C125.445 121.182 124.568 121.056 123.686 121.025C120.873 120.903 120.008 121.77 119.293 121.953C118.289 122.133 117.255 121.983 116.344 121.525C116.259 113.263 116.419 90.5781 116.502 84.5644C117.527 84.8825 118.589 85.0696 119.661 85.121C123.712 85.3244 127.466 83.7171 130.748 81.3874C131.812 80.6355 132.823 79.8118 133.775 78.9221C135.601 80.8194 138.872 83.0188 141.44 82.0291C141.63 81.9651 141.552 81.6698 141.368 81.7399ZM116.545 46.2694C116.328 46.6409 116.211 47.0623 116.206 47.4924C116.2 47.9225 116.307 48.3467 116.515 48.7234L116.472 52.274C116.251 53.061 116.241 53.8922 116.442 54.6843C116.323 64.4196 116.182 75.7872 116.173 75.7917C115.624 75.9326 115.552 76.6813 115.603 77.2514C115.234 76.7238 114.841 76.2138 114.425 75.7232C114.5 65.4952 114.81 41.3893 114.806 40.3747C114.882 40.4033 116.539 40.9916 116.608 41.0157L116.545 46.2694ZM116.891 51.2022L116.916 49.2732C117.175 49.5435 117.513 49.7249 117.882 49.7914C117.491 50.2159 117.157 50.6903 116.891 51.2022ZM116.966 45.6668C117.031 40.4086 116.99 40.8176 116.793 40.7709L114.986 40.1262C114.391 39.907 115.783 39.5085 90.6078 38.9685C90.5325 38.9685 121.264 39.2087 121.339 39.208C121.35 39.208 121.192 42.8234 121.236 43.1413C121.312 43.1067 121.393 43.0814 121.475 43.066C120.063 43.5895 117.938 44.5287 116.963 45.6668H116.966ZM121.39 36.7292C119.836 36.7096 113.129 36.6335 113.211 36.6335C114.678 34.2564 116.174 31.8973 117.642 29.5194C119.478 31.5687 120.766 34.0487 121.387 36.7292H121.39ZM106.882 24.1271C110.855 24.5567 114.556 26.3533 117.352 29.2098C115.822 31.6871 114.263 34.1456 112.734 36.626L106.575 36.5559C106.581 36.4791 106.902 24.2032 106.882 24.1271ZM106.51 24.0759C106.454 24.1715 106.515 23.8092 106.175 36.5484L99.5101 36.4731C99.5206 36.3977 96.9876 25.0415 96.9378 24.9662C100.037 24.0331 103.293 23.7303 106.511 24.0759H106.51ZM96.5778 25.0746C96.5273 25.4121 98.5889 34.3317 99.1101 36.464C91.4733 36.3638 91.9877 36.4166 91.9546 36.3239C88.3391 29.4644 88.4069 29.545 88.3316 29.4757C90.7775 27.5007 93.5756 26.0073 96.5778 25.0746ZM82.6637 35.1075C84.2779 33.1514 86.0697 31.3488 88.016 29.7227C89.184 31.9412 90.3535 34.1587 91.5245 36.3751C91.4281 36.3751 82.0181 36.2644 81.9383 36.2644C82.0932 35.8307 82.3407 35.4359 82.6637 35.1075ZM81.875 36.571C85.1327 36.6102 121.225 37.0327 121.419 37.0312C121.408 37.2075 121.368 38.8555 121.364 38.8962C121.308 38.8962 81.8555 38.576 81.8072 38.6054C81.8298 37.7272 81.875 36.4075 81.875 36.571ZM83.8726 125.771C83.2429 108.974 81.3907 55.6914 81.7899 38.8743C81.8728 38.9157 114.235 40.2715 114.398 40.2821C114.313 47.8647 114.232 52.0466 114.011 75.3066C113.393 74.6905 112.411 73.8974 111.891 74.5956C111.457 75.1771 112.097 76.1081 112.459 76.6775C111.913 76.1924 110.839 75.2803 110.262 75.6644C109.695 75.47 109.085 75.4402 108.502 75.5784C107.919 75.7167 107.387 76.0173 106.968 76.4455C106.582 76.8846 106.343 77.4325 106.282 78.0135C106.221 78.5946 106.342 79.1802 106.628 79.6896C106.998 80.357 107.612 80.8543 108.342 81.0764C109.072 81.2985 109.86 81.228 110.539 80.8797C111.598 81.8145 112.735 82.657 113.937 83.3977C113.853 93.0584 113.716 110.788 113.787 120.491C113.691 120.473 113.592 120.483 113.502 120.519C113.412 120.556 113.334 120.618 113.278 120.698C113.065 121.011 113.263 121.442 113.441 121.726C113.546 121.891 113.665 122.048 113.796 122.194C113.807 123.299 113.839 125.542 113.912 126.592C104.547 126.733 94.1005 125.838 83.8733 125.771H83.8726ZM110.322 80.653C110.246 80.6861 110.171 80.723 110.096 80.7524C109.564 80.9413 108.986 80.9547 108.446 80.7906C107.907 80.6266 107.434 80.2937 107.097 79.841C106.781 79.4208 106.602 78.9135 106.584 78.3879C106.566 77.8624 106.711 77.3441 106.998 76.9035C107.346 76.4431 107.827 76.1011 108.377 75.9237C108.926 75.7464 109.516 75.7424 110.068 75.9122C109.967 76.2572 109.956 76.6222 110.035 76.9728C110.114 77.3235 110.281 77.6482 110.52 77.9165C110.395 77.8436 110.253 77.8038 110.108 77.8009C109.963 77.798 109.82 77.8321 109.691 77.8999C109.563 77.9678 109.455 78.0671 109.375 78.1886C109.296 78.3102 109.25 78.4498 109.239 78.5944C109.111 79.2987 109.819 80.1461 110.323 80.6567L110.322 80.653ZM116.053 126.545L114.313 126.578C114.238 125.315 114.221 123.874 114.204 122.597C114.441 122.805 114.691 123 114.951 123.18C115.277 123.409 115.616 123.62 115.965 123.812C115.978 124.541 116.01 125.905 116.054 126.549L116.053 126.545ZM119.58 122.188C120.554 121.661 121.637 121.368 122.744 121.333C123.875 121.29 125.007 121.403 126.108 121.668C126.09 123.278 125.597 124.968 124.218 125.771C124.11 125.854 123.985 125.913 123.853 125.944C122.208 125.682 120.585 125.296 118.999 124.79C117.324 124.229 115.014 123.212 113.901 121.852C113.699 121.63 113.555 121.36 113.485 121.068C113.377 120.428 114.608 121.068 115.142 121.314C116.486 121.951 118.115 122.705 119.581 122.192L119.58 122.188ZM115.945 121.348C115.275 121.046 114.672 120.727 114.197 120.575C114.122 111.118 114.258 93.1443 114.341 83.6252C114.906 83.9393 115.496 84.2044 116.106 84.4175C115.849 110.723 115.944 121.084 115.945 121.351L115.945 121.348ZM131.474 80.4707C127.149 83.8308 121.764 85.9518 116.521 84.221C115.618 83.9286 114.754 83.5272 113.948 83.0256C112.676 82.2505 108.963 79.7348 109.614 78.3956C109.816 77.9843 110.344 77.8179 111.656 79.1345C111.773 79.252 111.882 79.3717 111.914 79.4011C112.047 79.5518 112.257 79.3311 112.128 79.188C111.693 78.7021 110.081 77.4601 110.289 76.2203C110.483 74.9873 112.65 77.2944 113.503 77.9971C113.531 78.0254 113.569 78.0412 113.609 78.0412C113.649 78.0411 113.688 78.0251 113.716 77.9967C113.744 77.9684 113.76 77.9299 113.76 77.8899C113.76 77.8499 113.744 77.8115 113.716 77.7832C113.24 77.2514 111.908 75.5891 112.084 74.9014C112.234 74.2928 113.038 74.8344 113.289 75.0377C114.228 75.9028 115.047 76.8895 115.725 77.9715C115.743 78.0057 115.772 78.032 115.808 78.045C115.844 78.0581 115.884 78.057 115.919 78.042C115.954 78.0269 115.982 77.999 115.998 77.964C116.013 77.9289 116.015 77.8893 116.002 77.8533C115.656 76.3069 116.204 75.8264 116.58 76.1706C117.258 76.7935 116.951 79.2497 117.671 79.8877C117.904 80.0352 118.177 80.1051 118.452 80.0873C120.325 80.0479 122.167 79.6039 123.852 78.7857C126.087 77.7244 128.125 76.2898 129.877 74.5436C130.183 74.8216 133.784 78.1071 133.958 78.2683C133.188 79.0666 132.358 79.8042 131.475 80.4745L131.474 80.4707Z" fill="black"/>
<path id="Vector_25" d="M75.4725 75.7082C74.906 75.8965 74.9912 75.1907 74.9708 75.3315C75.1237 74.3343 76.0833 75.3406 75.4725 75.7082Z" fill="#A76C6C"/>
<path id="Vector_26" d="M75.0351 75.2576C75.0803 75.0761 75.1218 75.0535 75.0796 74.9774C75.1232 74.9475 75.1738 74.9291 75.2264 74.924C75.2791 74.9188 75.3323 74.9271 75.3809 74.9481C76.226 75.3721 74.7482 76.2624 75.0351 75.2576Z" fill="#A76C6C"/>
<path id="Vector_27" d="M75.0028 75.2072C75.054 75.1048 75.1286 75.1033 75.1188 74.9918C75.1831 74.9567 75.2572 74.9434 75.3297 74.954C75.4023 74.9646 75.4694 74.9985 75.521 75.0505C75.7809 75.3277 75.683 75.562 75.3274 75.6923C75.2688 75.6949 75.2105 75.6824 75.1581 75.656C75.1058 75.6295 75.0611 75.59 75.0285 75.5412C74.9958 75.4924 74.9763 75.4361 74.9718 75.3776C74.9673 75.3191 74.978 75.2604 75.0028 75.2072Z" fill="#A76C6C"/>
</g>
</svg>
