<svg width="151" height="151" viewBox="0 0 151 151" fill="none" xmlns="http://www.w3.org/2000/svg">
<g id="Avatar-Neutral-Check--Streamline-Ux">
<path id="Vector" d="M15.6672 75.3212C15.6672 91.1426 21.9523 106.316 33.1397 117.503C44.3271 128.691 59.5005 134.976 75.322 134.976C91.1434 134.976 106.317 128.691 117.504 117.503C128.692 106.316 134.977 91.1426 134.977 75.3212C134.977 67.4873 133.434 59.73 130.436 52.4924C127.438 45.2547 123.044 38.6784 117.504 33.139C111.965 27.5995 105.388 23.2054 98.1508 20.2074C90.9132 17.2095 83.1559 15.6665 75.322 15.6665C67.488 15.6665 59.7307 17.2095 52.4931 20.2074C45.2554 23.2054 38.6792 27.5995 33.1397 33.139C27.6002 38.6784 23.2061 45.2547 20.2082 52.4924C17.2103 59.73 15.6672 67.4873 15.6672 75.3212Z" fill="#DAEDF7" stroke="#DAEDF7" stroke-width="1.50643"/>
<path id="Vector_2" d="M91.9876 98.7359C91.9876 91.7819 89.2252 85.1129 84.308 80.1957C79.3908 75.2785 72.7217 72.5161 65.7678 72.5161C58.8139 72.5161 52.1448 75.2785 47.2277 80.1957C42.3105 85.1129 39.5481 91.7819 39.5481 98.7359V106.873H91.9876V98.7359Z" fill="#DAEDF7"/>
<path id="Vector_3" d="M48.5898 51.7236C48.5898 56.2794 50.3996 60.6486 53.621 63.87C56.8425 67.0914 61.2116 68.9012 65.7674 68.9012C70.3232 68.9012 74.6924 67.0914 77.9138 63.87C81.1352 60.6486 82.945 56.2794 82.945 51.7236V46.2995C82.945 41.7437 81.1352 37.3746 77.9138 34.1531C74.6924 30.9317 70.3232 29.1219 65.7674 29.1219C61.2116 29.1219 56.8425 30.9317 53.621 34.1531C50.3996 37.3746 48.5898 41.7437 48.5898 46.2995V51.7236Z" fill="#DAEDF7"/>
<path id="Vector_4" d="M65.7674 29.12C63.5115 29.12 61.2777 29.5644 59.1935 30.4277C57.1093 31.2911 55.2156 32.5565 53.6205 34.1517C52.0254 35.747 50.7601 37.6408 49.897 39.725C49.0338 41.8093 48.5896 44.0431 48.5898 46.2991V51.7232C48.5898 52.181 48.6227 52.6299 48.6584 53.0788C48.9951 48.7721 50.9437 44.7507 54.1151 41.8175C57.2865 38.8843 61.4475 37.2551 65.7674 37.2551C70.0873 37.2551 74.2483 38.8843 77.4197 41.8175C80.5912 44.7507 82.5397 48.7721 82.8764 53.0788C82.9122 52.6314 82.945 52.184 82.945 51.7232V46.2991C82.9452 44.0431 82.501 41.8093 81.6379 39.725C80.7747 37.6408 79.5094 35.747 77.9143 34.1517C76.3192 32.5565 74.4255 31.2911 72.3413 30.4277C70.2572 29.5644 68.0233 29.12 65.7674 29.12Z" fill="white"/>
<path id="Vector_5" d="M48.5898 51.7236C48.5898 56.2794 50.3996 60.6486 53.621 63.87C56.8425 67.0914 61.2116 68.9012 65.7674 68.9012C70.3232 68.9012 74.6924 67.0914 77.9138 63.87C81.1352 60.6486 82.945 56.2794 82.945 51.7236V46.2995C82.945 41.7437 81.1352 37.3746 77.9138 34.1531C74.6924 30.9317 70.3232 29.1219 65.7674 29.1219C61.2116 29.1219 56.8425 30.9317 53.621 34.1531C50.3996 37.3746 48.5898 41.7437 48.5898 46.2995V51.7236Z" stroke="#45413C" stroke-width="1.50643" stroke-linecap="round" stroke-linejoin="round"/>
<path id="Vector_6" d="M65.7678 72.5176C58.8142 72.5176 52.1453 75.2798 47.2282 80.1966C42.3111 85.1135 39.5485 91.7822 39.5481 98.7358V106.873H39.6391C40.0923 100.252 43.0421 94.0499 47.8923 89.5203C52.7425 84.9908 59.1315 82.4714 65.7678 82.4714C72.4042 82.4714 78.7931 84.9908 83.6434 89.5203C88.4936 94.0499 91.4434 100.252 91.8966 106.873H91.9876V98.7358C91.9872 91.7822 89.2246 85.1135 84.3075 80.1966C79.3904 75.2798 72.7215 72.5176 65.7678 72.5176Z" fill="white"/>
<path id="Vector_7" d="M91.9876 98.7359C91.9876 91.7819 89.2252 85.1129 84.308 80.1957C79.3908 75.2785 72.7217 72.5161 65.7678 72.5161C58.8139 72.5161 52.1448 75.2785 47.2277 80.1957C42.3105 85.1129 39.5481 91.7819 39.5481 98.7359V106.873H91.9876V98.7359Z" stroke="#45413C" stroke-width="1.50643" stroke-linecap="round" stroke-linejoin="round"/>
<path id="Vector_8" opacity="0.15" d="M39.9294 108.337C39.9294 108.923 42.5692 109.486 47.2679 109.9C51.9666 110.315 58.3394 110.547 64.9844 110.547C71.6294 110.547 78.0023 110.315 82.701 109.9C87.3997 109.486 90.0394 108.923 90.0394 108.337C90.0394 107.751 87.3997 107.189 82.701 106.774C78.0023 106.36 71.6294 106.127 64.9844 106.127C58.3394 106.127 51.9666 106.36 47.2679 106.774C42.5692 107.189 39.9294 107.751 39.9294 108.337Z" fill="#45413C"/>
<path id="Vector_9" d="M80.7413 97.5607L70.3807 87.1987C69.5954 86.4138 68.5306 85.9729 67.4204 85.9729C66.3101 85.9729 65.2453 86.4138 64.46 87.1987L60.0187 91.64C59.2339 92.4253 58.793 93.4901 58.793 94.6003C58.793 95.7106 59.2339 96.7754 60.0187 97.5607L79.2574 116.799C80.0427 117.584 81.1075 118.025 82.2177 118.025C83.328 118.025 84.3928 117.584 85.1781 116.799L121.469 80.5144C122.254 79.7291 122.695 78.6643 122.695 77.554C122.695 76.4437 122.254 75.3789 121.469 74.5936L117.029 70.1538C116.244 69.369 115.179 68.9281 114.069 68.9281C112.959 68.9281 111.894 69.369 111.109 70.1538L83.7016 97.5607C83.5076 97.7557 83.277 97.9105 83.023 98.0161C82.7689 98.1217 82.4965 98.1761 82.2215 98.1761C81.9464 98.1761 81.674 98.1217 81.42 98.0161C81.1659 97.9105 80.9353 97.7557 80.7413 97.5607Z" fill="#6DD627"/>
<path id="Vector_10" d="M119.26 72.3805L77.0675 114.595L60.0286 97.5563C59.6357 97.1694 59.3237 96.7082 59.1107 96.1996C58.8978 95.691 58.7881 95.1451 58.7881 94.5937C58.7881 94.0423 58.8978 93.4964 59.1107 92.9878C59.3237 92.4791 59.6357 92.018 60.0286 91.6311L64.4669 87.1942C65.2531 86.4099 66.3183 85.9695 67.4288 85.9695C68.5393 85.9695 69.6044 86.4099 70.3906 87.1942L80.7526 97.5563C81.1441 97.9474 81.6749 98.1671 82.2283 98.1671C82.7818 98.1671 83.3126 97.9474 83.7041 97.5563L111.115 70.1628C111.5 69.77 111.96 69.4579 112.466 69.2449C112.973 69.0319 113.518 68.9221 114.068 68.9221C114.617 68.9221 115.162 69.0319 115.669 69.2449C116.176 69.4579 116.635 69.77 117.02 70.1628L119.26 72.3805Z" fill="#9CEB60"/>
<path id="Vector_11" d="M80.7413 97.5607L70.3807 87.1987C69.5954 86.4138 68.5306 85.9729 67.4204 85.9729C66.3101 85.9729 65.2453 86.4138 64.46 87.1987L60.0187 91.64C59.2339 92.4253 58.793 93.4901 58.793 94.6003C58.793 95.7106 59.2339 96.7754 60.0187 97.5607L79.2574 116.799C80.0426 117.584 81.1075 118.025 82.2177 118.025C83.328 118.025 84.3928 117.584 85.1781 116.799L121.469 80.5144C122.254 79.7291 122.695 78.6643 122.695 77.554C122.695 76.4437 122.254 75.3789 121.469 74.5936L117.029 70.1538C116.244 69.369 115.179 68.9281 114.069 68.9281C112.959 68.9281 111.894 69.369 111.109 70.1538L83.7016 97.5607C83.5076 97.7557 83.277 97.9105 83.023 98.0161C82.7689 98.1217 82.4965 98.1761 82.2215 98.1761C81.9464 98.1761 81.674 98.1217 81.42 98.0161C81.1659 97.9105 80.9353 97.7557 80.7413 97.5607Z" stroke="#45413C" stroke-width="1.50643" stroke-linecap="round" stroke-linejoin="round"/>
</g>
</svg>
