<svg width="151" height="151" viewBox="0 0 151 151" fill="none" xmlns="http://www.w3.org/2000/svg">
<g id="Call-Question--Streamline-Ux">
<path id="Vector" d="M15.6675 75.3212C15.6675 91.1426 21.9525 106.316 33.1399 117.503C44.3274 128.691 59.5008 134.976 75.3222 134.976C91.1436 134.976 106.317 128.691 117.504 117.503C128.692 106.316 134.977 91.1426 134.977 75.3212C134.977 67.4873 133.434 59.73 130.436 52.4924C127.438 45.2547 123.044 38.6784 117.504 33.139C111.965 27.5995 105.389 23.2054 98.1511 20.2074C90.9134 17.2095 83.1562 15.6665 75.3222 15.6665C67.4882 15.6665 59.731 17.2095 52.4933 20.2074C45.2557 23.2054 38.6794 27.5995 33.1399 33.139C27.6005 38.6784 23.2064 45.2547 20.2084 52.4924C17.2105 59.73 15.6675 67.4873 15.6675 75.3212Z" fill="#DAEDF7" stroke="#DAEDF7" stroke-width="1.50643"/>
<path id="Vector_2" d="M95.5625 17.5932C90.6328 18.0601 85.8843 19.6899 81.7071 22.3489C77.5298 25.0079 74.0431 28.62 71.5334 32.8886C69.0236 37.1572 67.5625 41.9603 67.2701 46.9034C66.9777 51.8465 67.8623 56.7884 69.8513 61.3231L62.302 78.5812C62.1826 78.8543 62.1437 79.1558 62.1897 79.4502C62.2357 79.7447 62.3648 80.0199 62.5618 80.2435C62.7588 80.4672 63.0156 80.6299 63.3019 80.7127C63.5882 80.7955 63.8922 80.7949 64.1781 80.7109L82.1476 75.4255C86.3768 78.0272 91.1642 79.5857 96.1144 79.9723C101.065 80.359 106.036 79.5627 110.618 77.6491C115.2 75.7356 119.261 72.7597 122.466 68.9671C125.671 65.1746 127.927 60.6741 129.05 55.8373C130.173 51.0005 130.129 45.9661 128.922 41.1496C127.715 36.3331 125.38 31.8727 122.109 28.1367C118.839 24.4007 114.726 21.4961 110.112 19.6629C105.497 17.8296 100.513 17.1202 95.5699 17.5932H95.5625Z" fill="white"/>
<path id="Vector_3" d="M129.846 49.3313C127.953 56.7853 123.383 63.2817 117.006 67.5815C110.63 71.8812 102.894 73.6834 95.2741 72.6443C87.654 71.6052 80.683 67.7976 75.6908 61.9476C70.6985 56.0975 68.0343 48.6146 68.2063 40.9259C67.9195 42.0375 67.6949 43.1642 67.5337 44.3009C66.7026 50.0801 67.5054 55.9766 69.8513 61.3233L62.302 78.5815C62.1826 78.8545 62.1437 79.156 62.1897 79.4505C62.2357 79.745 62.3648 80.0202 62.5618 80.2438C62.7588 80.4674 63.0156 80.6302 63.3019 80.713C63.5882 80.7958 63.8922 80.7951 64.1781 80.7111L82.1476 75.4257C86.6685 78.2177 91.8263 79.8118 97.1341 80.0576C102.442 80.3034 107.725 79.1929 112.485 76.8307C117.244 74.4686 121.323 70.9328 124.338 66.5569C127.352 62.181 129.201 57.1093 129.712 51.8203C129.79 50.9832 129.837 50.153 129.852 49.3298" fill="#DAEDF7"/>
<path id="Vector_4" d="M95.5625 17.5932C90.6328 18.0601 85.8843 19.6899 81.7071 22.3489C77.5298 25.0079 74.0431 28.62 71.5334 32.8886C69.0236 37.1572 67.5625 41.9603 67.2701 46.9034C66.9777 51.8465 67.8623 56.7884 69.8513 61.3231L62.302 78.5812C62.1826 78.8543 62.1437 79.1558 62.1897 79.4502C62.2357 79.7447 62.3648 80.0199 62.5618 80.2435C62.7588 80.4672 63.0156 80.6299 63.3019 80.7127C63.5882 80.7955 63.8922 80.7949 64.1781 80.7109L82.1476 75.4255C86.3768 78.0272 91.1642 79.5857 96.1144 79.9723C101.065 80.359 106.036 79.5627 110.618 77.6491C115.2 75.7356 119.261 72.7597 122.466 68.9671C125.671 65.1746 127.927 60.6741 129.05 55.8373C130.173 51.0005 130.129 45.9661 128.922 41.1496C127.715 36.3331 125.38 31.8727 122.109 28.1367C118.839 24.4007 114.726 21.4961 110.112 19.6629C105.497 17.8296 100.513 17.1202 95.5699 17.5932H95.5625Z" stroke="#45413C" stroke-width="1.50643" stroke-linecap="round" stroke-linejoin="round"/>
<path id="Vector_5" d="M98.6198 55.822C97.9968 55.822 97.3994 55.5745 96.9589 55.134C96.5184 54.6935 96.2709 54.096 96.2709 53.473V51.0869C96.2805 49.6293 96.7391 48.2101 97.5843 47.0226C98.4294 45.835 99.6201 44.9368 100.994 44.4503C102.613 43.8698 103.965 42.7182 104.795 41.2118C105.626 39.7054 105.878 37.9477 105.504 36.2686C105.119 34.5799 104.127 33.0917 102.715 32.0879C101.304 31.0841 99.5726 30.6348 97.8512 30.8258C96.1298 31.0168 94.5389 31.8346 93.3819 33.1234C92.2248 34.4122 91.5826 36.0817 91.5776 37.8137C91.5776 38.4366 91.3301 39.0341 90.8896 39.4746C90.4491 39.9151 89.8516 40.1626 89.2287 40.1626C88.6057 40.1626 88.0082 39.9151 87.5677 39.4746C87.1272 39.0341 86.8798 38.4366 86.8798 37.8137C86.8791 35.6611 87.4699 33.5497 88.5875 31.7101C89.7052 29.8704 91.3067 28.3731 93.2174 27.3817C95.128 26.3902 97.2744 25.9428 99.422 26.0881C101.57 26.2334 103.636 26.966 105.396 28.2058C107.155 29.4456 108.541 31.145 109.4 33.1185C110.26 35.092 110.561 37.2637 110.27 39.3965C109.98 41.5294 109.109 43.5414 107.752 45.213C106.396 46.8845 104.607 48.1513 102.579 48.8752C102.116 49.0352 101.714 49.3339 101.427 49.7307C101.139 50.1274 100.981 50.603 100.973 51.0928V53.479C100.972 54.1017 100.723 54.6983 100.282 55.1377C99.8402 55.577 99.2425 55.8231 98.6198 55.822Z" fill="#00B8F0" stroke="#45413C" stroke-width="1.50643" stroke-linecap="round" stroke-linejoin="round"/>
<path id="Vector_6" d="M95.4877 63.6828C95.4877 64.5134 95.8176 65.31 96.405 65.8973C96.9923 66.4847 97.7889 66.8146 98.6195 66.8146C99.4502 66.8146 100.247 66.4847 100.834 65.8973C101.421 65.31 101.751 64.5134 101.751 63.6828C101.751 62.8521 101.421 62.0555 100.834 61.4682C100.247 60.8809 99.4502 60.5509 98.6195 60.5509C97.7889 60.5509 96.9923 60.8809 96.405 61.4682C95.8176 62.0555 95.4877 62.8521 95.4877 63.6828Z" fill="#00B8F0" stroke="#45413C" stroke-width="1.50643" stroke-linecap="round" stroke-linejoin="round"/>
<path id="Vector_7" opacity="0.15" d="M86.9547 127.503C86.9547 126.011 77.9811 124.8 66.9122 124.8C55.8432 124.8 46.8682 126.011 46.8682 127.503C46.8682 128.994 55.8358 130.204 66.9062 130.204C77.9766 130.204 86.9547 128.994 86.9547 127.503Z" fill="#45413C"/>
<path id="Vector_8" d="M49.6976 72.0076C50.191 72.4253 50.5855 72.9475 50.8525 73.5363C51.1196 74.1251 51.2524 74.7659 51.2416 75.4124C51.2308 76.0588 51.0764 76.6948 50.7898 77.2743C50.5032 77.8539 50.0914 78.3625 49.5843 78.7635C48.0168 80.2787 46.5687 81.7954 44.8849 83.1898C44.7066 83.3224 44.5823 83.5151 44.5351 83.7323C44.4879 83.9495 44.5211 84.1764 44.6284 84.371C45.6585 86.7874 46.9947 89.0615 48.6044 91.1373C51.7655 95.317 55.6132 98.9298 59.9836 101.821C60.9216 102.431 62.0402 102.865 62.9797 103.474C63.1826 103.616 63.433 103.673 63.6774 103.633C63.9218 103.593 64.1408 103.459 64.2877 103.259L68.9884 98.7135C69.4057 98.2398 69.9209 97.8624 70.4983 97.6074C71.0758 97.3525 71.7018 97.226 72.3329 97.2368C72.9641 97.2476 73.5854 97.3953 74.1538 97.6699C74.7222 97.9444 75.2242 98.3392 75.625 98.8268L82.967 106.419C83.4416 106.849 83.8189 107.375 84.0735 107.962C84.3281 108.549 84.4542 109.184 84.4433 109.824C84.4325 110.464 84.2849 111.094 84.0104 111.673C83.736 112.251 83.3411 112.764 82.8522 113.177C81.4637 114.635 79.9008 115.912 78.572 117.432C77.6511 118.41 76.5116 119.156 75.2468 119.608C73.982 120.061 72.6279 120.207 71.2956 120.036C67.3781 119.61 63.5871 118.397 60.1506 116.468C52.2939 112.509 45.3748 106.916 39.8575 100.063C35.669 95.0576 32.3759 89.3665 30.1234 83.2405C28.857 80.3206 28.301 77.1421 28.5008 73.9657C28.6926 72.012 29.5872 70.1943 31.0182 68.8503L35.719 64.3061C36.1438 63.8449 36.6613 63.4787 37.2377 63.2317C37.8141 62.9847 38.4362 62.8625 39.0631 62.8731C39.6901 62.8836 40.3077 63.0267 40.8754 63.293C41.4432 63.5593 41.9481 63.9427 42.3571 64.418L49.6976 72.0076Z" fill="#FF6242"/>
<path id="Vector_9" d="M38.3751 62.9235L36.0217 65.1978C34.5909 66.5419 33.6964 68.3595 33.5043 70.3132C33.3043 73.4901 33.8604 76.6691 35.1269 79.5895C37.3795 85.7154 40.6726 91.4065 44.8611 96.4121C50.3779 103.265 57.2971 108.859 65.1541 112.817C68.5898 114.746 72.3804 115.96 76.2976 116.385C77.5004 116.497 78.7136 116.388 79.8769 116.062C79.4295 116.51 78.991 116.957 78.5764 117.428C77.6554 118.408 76.5153 119.155 75.2496 119.608C73.984 120.061 72.6289 120.208 71.2956 120.035C67.3781 119.61 63.5871 118.396 60.1506 116.468C52.2939 112.509 45.3748 106.916 39.8575 100.063C35.669 95.0574 32.3759 89.3663 30.1234 83.2404C28.857 80.3205 28.301 77.142 28.5008 73.9656C28.6926 72.0118 29.5872 70.1941 31.0182 68.8502L35.719 64.306C36.4525 63.5986 37.3749 63.1185 38.3751 62.9235Z" fill="#FF6242"/>
<path id="Vector_10" d="M82.9664 106.42L75.6199 98.827C75.2191 98.3394 74.7171 97.9446 74.1487 97.67C73.5802 97.3955 72.959 97.2477 72.3278 97.237C71.6966 97.2262 71.0707 97.3526 70.4932 97.6076C69.9157 97.8626 69.4006 98.24 68.9833 98.7137L66.8536 100.773L80.786 115.186C81.484 114.527 82.1849 113.872 82.8471 113.177C83.3363 112.764 83.7315 112.252 84.0063 111.674C84.2812 111.095 84.4292 110.465 84.4405 109.825C84.4518 109.185 84.3261 108.55 84.0719 107.963C83.8176 107.376 83.4407 106.849 82.9664 106.42Z" fill="white"/>
<path id="Vector_11" d="M82.9664 106.42L75.6199 98.827C75.2191 98.3394 74.7171 97.9446 74.1487 97.67C73.5802 97.3955 72.959 97.2477 72.3278 97.237C71.6966 97.2262 71.0707 97.3526 70.4932 97.6076C69.9157 97.8626 69.4006 98.24 68.9833 98.7137L66.8536 100.773L80.786 115.186C81.484 114.527 82.1849 113.872 82.8471 113.177C83.3363 112.764 83.7315 112.252 84.0063 111.674C84.2812 111.095 84.4292 110.465 84.4405 109.825C84.4518 109.185 84.3261 108.55 84.0719 107.963C83.8176 107.376 83.4407 106.849 82.9664 106.42Z" stroke="#45413C" stroke-width="1.50643" stroke-linecap="round" stroke-linejoin="round"/>
<path id="Vector_12" d="M49.6976 72.0076C50.191 72.4253 50.5855 72.9475 50.8525 73.5363C51.1196 74.1251 51.2524 74.7659 51.2416 75.4124C51.2308 76.0588 51.0764 76.6948 50.7898 77.2743C50.5032 77.8539 50.0914 78.3625 49.5843 78.7635C48.0168 80.2787 46.5687 81.7954 44.8849 83.1898C44.7066 83.3224 44.5823 83.5151 44.5351 83.7323C44.4879 83.9495 44.5211 84.1764 44.6284 84.371C45.6585 86.7874 46.9947 89.0615 48.6044 91.1373C51.7655 95.317 55.6132 98.9298 59.9836 101.821C60.9216 102.431 62.0402 102.865 62.9797 103.474C63.1826 103.616 63.433 103.673 63.6774 103.633C63.9218 103.593 64.1408 103.459 64.2876 103.259L68.9884 98.7135C69.4057 98.2398 69.9209 97.8624 70.4983 97.6074C71.0758 97.3525 71.7018 97.226 72.3329 97.2368C72.9641 97.2476 73.5854 97.3953 74.1538 97.6699C74.7222 97.9444 75.2242 98.3392 75.625 98.8268L82.967 106.419C83.4416 106.849 83.8189 107.375 84.0735 107.962C84.3281 108.549 84.4542 109.184 84.4433 109.824C84.4325 110.464 84.2849 111.094 84.0104 111.673C83.736 112.251 83.3411 112.764 82.8522 113.177C81.4637 114.635 79.9008 115.912 78.572 117.432C77.6511 118.41 76.5116 119.156 75.2468 119.608C73.982 120.061 72.6279 120.207 71.2956 120.036C67.3781 119.61 63.5871 118.397 60.1506 116.468C52.2939 112.509 45.3748 106.916 39.8575 100.063C35.669 95.0576 32.3759 89.3665 30.1234 83.2405C28.857 80.3206 28.301 77.1421 28.5008 73.9657C28.6926 72.012 29.5872 70.1943 31.0182 68.8503L35.719 64.3061C36.1438 63.8449 36.6613 63.4787 37.2377 63.2317C37.8141 62.9847 38.4362 62.8625 39.0631 62.8731C39.6901 62.8836 40.3077 63.0267 40.8754 63.293C41.4432 63.5593 41.9481 63.9427 42.3571 64.418L49.6976 72.0076Z" stroke="#45413C" stroke-width="1.50643" stroke-linecap="round" stroke-linejoin="round"/>
<path id="Vector_13" d="M49.6976 72.0076C50.1911 72.4254 50.5855 72.9476 50.8526 73.5364C51.1196 74.1252 51.2525 74.766 51.2416 75.4124C51.2308 76.0589 51.0765 76.6949 50.7899 77.2744C50.5032 77.8539 50.0915 78.3626 49.5843 78.7635C48.8863 79.4391 48.2107 80.1132 47.5292 80.7784L33.5894 66.3598L35.719 64.3017C36.1438 63.8405 36.6614 63.4743 37.2377 63.2273C37.8141 62.9803 38.4362 62.8581 39.0632 62.8687C39.6901 62.8792 40.3078 63.0224 40.8755 63.2886C41.4432 63.5549 41.9481 63.9383 42.3571 64.4136L49.6976 72.0076Z" fill="white" stroke="#45413C" stroke-width="1.50643" stroke-linecap="round" stroke-linejoin="round"/>
</g>
</svg>
