<svg width="151" height="151" viewBox="0 0 151 151" fill="none" xmlns="http://www.w3.org/2000/svg">
<g id="Chatting-With-Bot-2--Streamline-Ux">
<path id="Vector" d="M8.27881 75.3212C8.27881 91.1426 14.5638 106.316 25.7513 117.503C36.9387 128.691 52.1121 134.976 67.9335 134.976C83.7549 134.976 98.9284 128.691 110.116 117.503C121.303 106.316 127.588 91.1426 127.588 75.3212C127.588 67.4873 126.045 59.73 123.047 52.4924C120.049 45.2547 115.655 38.6784 110.116 33.139C104.576 27.5995 98 23.2054 90.7624 20.2074C83.5248 17.2095 75.7675 15.6665 67.9335 15.6665C60.0996 15.6665 52.3423 17.2095 45.1047 20.2074C37.867 23.2054 31.2907 27.5995 25.7513 33.139C20.2118 38.6784 15.8177 45.2547 12.8198 52.4924C9.82182 59.73 8.27881 67.4873 8.27881 75.3212Z" fill="#DAEDF7" stroke="#DAEDF7" stroke-width="1.50643"/>
<path id="Vector_2" d="M44.4315 41.193C44.4313 40.3981 44.5877 39.611 44.8918 38.8765C45.1958 38.1421 45.6416 37.4748 46.2036 36.9126C46.7656 36.3505 47.4328 35.9046 48.1672 35.6003C48.9015 35.2961 49.6886 35.1395 50.4835 35.1395H81.8693C82.6642 35.1393 83.4512 35.2957 84.1856 35.5998C84.9199 35.9039 85.5871 36.3497 86.1492 36.9117C86.7112 37.4737 87.157 38.1409 87.461 38.8753C87.7651 39.6096 87.9215 40.3967 87.9213 41.1915V108.504C87.9213 109.299 87.7648 110.086 87.4606 110.82C87.1564 111.554 86.7106 112.221 86.1486 112.783C85.5866 113.345 84.9195 113.791 84.1852 114.095C83.451 114.399 82.664 114.555 81.8693 114.555H50.4835C48.8785 114.554 47.3394 113.917 46.2045 112.782C45.0697 111.647 44.4319 110.108 44.4315 108.503V41.193Z" fill="white"/>
<path id="Vector_3" d="M44.4315 108.505C44.4319 110.109 45.0697 111.649 46.2045 112.783C47.3394 113.918 48.8785 114.556 50.4835 114.556H81.8693C82.664 114.557 83.451 114.4 84.1852 114.096C84.9195 113.792 85.5866 113.347 86.1486 112.785C86.7106 112.223 87.1564 111.556 87.4606 110.822C87.7648 110.088 87.9213 109.301 87.9213 108.506V104.724C87.9205 106.329 87.2826 107.867 86.1478 109.002C85.0129 110.136 83.474 110.774 81.8693 110.774H50.4835C48.8784 110.774 47.3391 110.137 46.2041 109.002C45.0691 107.867 44.4315 106.327 44.4315 104.722V108.505Z" fill="#DAEDF7"/>
<path id="Vector_4" opacity="0.15" d="M53.6494 124.955C53.6494 125.578 54.9693 126.176 57.3186 126.616C59.668 127.057 62.8544 127.304 66.1769 127.304C69.4994 127.304 72.6858 127.057 75.0352 126.616C77.3845 126.176 78.7044 125.578 78.7044 124.955C78.7044 124.333 77.3845 123.735 75.0352 123.295C72.6858 122.854 69.4994 122.607 66.1769 122.607C62.8544 122.607 59.668 122.854 57.3186 123.295C54.9693 123.735 53.6494 124.333 53.6494 124.955Z" fill="#45413C"/>
<path id="Vector_5" d="M44.4315 41.193C44.4313 40.3981 44.5877 39.611 44.8918 38.8765C45.1958 38.1421 45.6416 37.4748 46.2036 36.9126C46.7656 36.3505 47.4328 35.9046 48.1672 35.6003C48.9015 35.2961 49.6886 35.1395 50.4835 35.1395H81.8693C82.6642 35.1393 83.4512 35.2957 84.1856 35.5998C84.9199 35.9039 85.5871 36.3497 86.1492 36.9117C86.7112 37.4737 87.157 38.1409 87.461 38.8753C87.7651 39.6096 87.9215 40.3967 87.9213 41.1915V108.504C87.9213 109.299 87.7648 110.086 87.4606 110.82C87.1564 111.554 86.7106 112.221 86.1486 112.783C85.5866 113.345 84.9195 113.791 84.1852 114.095C83.451 114.399 82.664 114.555 81.8693 114.555H50.4835C48.8785 114.554 47.3394 113.917 46.2045 112.782C45.0697 111.647 44.4319 110.108 44.4315 108.503V41.193Z" stroke="#45413C" stroke-width="1.50643" stroke-linecap="round" stroke-linejoin="round"/>
<path id="Vector_6" d="M48.2141 46.4858H84.1412V102.266H48.2141V46.4858Z" fill="#00B8F0"/>
<path id="Vector_7" d="M48.2141 76.6145L78.3442 46.4858H48.2141V76.6145Z" fill="#4ACFFF"/>
<path id="Vector_8" d="M48.2141 46.4858H84.1412V102.266H48.2141V46.4858Z" stroke="#45413C" stroke-width="1.50643" stroke-linecap="round" stroke-linejoin="round"/>
<path id="Vector_9" d="M64.2853 40.813H74.6861" stroke="#45413C" stroke-width="1.50643" stroke-linecap="round" stroke-linejoin="round"/>
<path id="Vector_10" d="M60.1778 40.8129C60.1778 41.1227 60.0859 41.4255 59.9138 41.683C59.7416 41.9406 59.497 42.1413 59.2107 42.2598C58.9245 42.3782 58.6096 42.4092 58.3058 42.3486C58.002 42.2881 57.723 42.1388 57.504 41.9196C57.2851 41.7005 57.1361 41.4213 57.0758 41.1175C57.0156 40.8136 57.0468 40.4987 57.1655 40.2126C57.2843 39.9265 57.4852 39.682 57.7429 39.5101C58.0006 39.3382 58.3036 39.2467 58.6133 39.247C58.819 39.2466 59.0227 39.2868 59.2128 39.3654C59.4029 39.444 59.5756 39.5593 59.721 39.7048C59.8663 39.8503 59.9815 40.0231 60.0599 40.2133C60.1383 40.4034 60.1784 40.6072 60.1778 40.8129Z" fill="#45413C"/>
<path id="Vector_11" d="M62.8673 108.412C62.8673 109.29 63.216 110.131 63.8366 110.752C64.4572 111.373 65.299 111.721 66.1767 111.721C67.0544 111.721 67.8961 111.373 68.5167 110.752C69.1373 110.131 69.486 109.29 69.486 108.412C69.486 107.534 69.1373 106.692 68.5167 106.072C67.8961 105.451 67.0544 105.103 66.1767 105.103C65.299 105.103 64.4572 105.451 63.8366 106.072C63.216 106.692 62.8673 107.534 62.8673 108.412Z" fill="white" stroke="#45413C" stroke-width="1.50643" stroke-linecap="round" stroke-linejoin="round"/>
<path id="Vector_12" d="M56.428 94.3395C56.428 94.6898 56.359 95.0367 56.2249 95.3603C56.0908 95.684 55.8942 95.978 55.6465 96.2256C55.3987 96.4733 55.1046 96.6696 54.7809 96.8036C54.4572 96.9375 54.1103 97.0063 53.76 97.0061H4.13022C3.77991 97.0063 3.433 96.9375 3.10931 96.8036C2.78561 96.6696 2.49148 96.4733 2.2437 96.2256C1.99593 95.978 1.79938 95.684 1.66528 95.3603C1.53118 95.0367 1.46216 94.6898 1.46216 94.3395V64.9924C1.46216 64.2848 1.74326 63.6062 2.24361 63.1058C2.74397 62.6054 3.4226 62.3243 4.13022 62.3243H53.76C54.4676 62.3243 55.1462 62.6054 55.6466 63.1058C56.1469 63.6062 56.428 64.2848 56.428 64.9924V78.3312L65.1257 88.1161C65.2969 88.3081 65.4089 88.5456 65.4482 88.7999C65.4875 89.0542 65.4524 89.3144 65.347 89.5492C65.2417 89.7839 65.0707 89.9832 64.8547 90.1229C64.6386 90.2627 64.3868 90.3369 64.1294 90.3367H56.428V94.3395Z" fill="white" stroke="#45413C" stroke-width="1.50643" stroke-linecap="round" stroke-linejoin="round"/>
<path id="Vector_13" d="M48.4248 71.6616H32.145" stroke="#45413C" stroke-width="1.50643" stroke-linecap="round" stroke-linejoin="round"/>
<path id="Vector_14" d="M48.4248 78.3307H32.145" stroke="#45413C" stroke-width="1.50643" stroke-linecap="round" stroke-linejoin="round"/>
<path id="Vector_15" d="M39.5318 85.0002H32.145" stroke="#45413C" stroke-width="1.50643" stroke-linecap="round" stroke-linejoin="round"/>
<path id="Vector_16" d="M82.5162 65.8034C82.5162 66.634 82.8462 67.4306 83.4335 68.018C84.0208 68.6053 84.8175 68.9353 85.6481 68.9353H146.048C146.879 68.9353 147.676 68.6053 148.263 68.018C148.85 67.4306 149.18 66.634 149.18 65.8034V31.3528C149.18 30.5222 148.85 29.7256 148.263 29.1383C147.676 28.5509 146.879 28.2209 146.048 28.2209H85.6481C84.8175 28.2209 84.0208 28.5509 83.4335 29.1383C82.8462 29.7256 82.5162 30.5222 82.5162 31.3528V47.0122L72.3048 58.4957C72.1045 58.7214 71.9737 59.0001 71.928 59.2984C71.8824 59.5967 71.9239 59.9018 72.0476 60.177C72.1713 60.4523 72.3718 60.6859 72.6252 60.8498C72.8785 61.0138 73.1738 61.1011 73.4755 61.1011H82.5162V65.8034Z" fill="white" stroke="#45413C" stroke-width="1.50643" stroke-linecap="round" stroke-linejoin="round"/>
<path id="Vector_17" d="M141.35 39.1826H120.098" stroke="#45413C" stroke-width="1.50643" stroke-linecap="round" stroke-linejoin="round"/>
<path id="Vector_18" d="M141.35 47.0122H120.098" stroke="#45413C" stroke-width="1.50643" stroke-linecap="round" stroke-linejoin="round"/>
<path id="Vector_19" d="M130.91 54.8418H120.098" stroke="#45413C" stroke-width="1.50643" stroke-linecap="round" stroke-linejoin="round"/>
<path id="Vector_20" d="M86.5038 47.6387C86.5038 49.3761 86.846 51.0965 87.5109 52.7016C88.1757 54.3067 89.1502 55.7652 90.3787 56.9937C91.6073 58.2222 93.0657 59.1967 94.6708 59.8616C96.276 60.5265 97.9963 60.8687 99.7337 60.8687C101.471 60.8687 103.191 60.5265 104.797 59.8616C106.402 59.1967 107.86 58.2222 109.089 56.9937C110.317 55.7652 111.292 54.3067 111.957 52.7016C112.621 51.0965 112.964 49.3761 112.964 47.6387C112.964 44.1299 111.57 40.7649 109.089 38.2838C106.608 35.8027 103.243 34.4088 99.7337 34.4088C96.2249 34.4088 92.8598 35.8027 90.3787 38.2838C87.8976 40.7649 86.5038 44.1299 86.5038 47.6387Z" fill="#B8ECFF" stroke="#45413C" stroke-width="1.50643"/>
<path id="Vector_21" d="M92.1619 42.832H107.304V55.3521H92.1619V42.832Z" fill="#00B8F0"/>
<path id="Vector_22" d="M92.1619 42.832H107.304V55.3521H92.1619V42.832Z" stroke="#45413C" stroke-width="1.50643" stroke-linecap="round" stroke-linejoin="round"/>
<path id="Vector_23" d="M105.645 42.844L94.2722 55.3521H94.0395C93.7927 55.3523 93.5484 55.3038 93.3204 55.2094C93.0924 55.115 92.8853 54.9766 92.7108 54.802C92.5364 54.6275 92.3982 54.4202 92.304 54.1922C92.2098 53.9641 92.1615 53.7197 92.1619 53.4729V44.7097C92.1617 44.463 92.2101 44.2188 92.3044 43.9909C92.3987 43.763 92.537 43.5559 92.7114 43.3815C92.8858 43.2071 93.0928 43.0688 93.3207 42.9746C93.5486 42.8803 93.7929 42.8318 94.0395 42.832H105.426C105.501 42.832 105.569 42.838 105.645 42.844Z" fill="#4ACFFF"/>
<path id="Vector_24" d="M107.304 44.7097V53.4729C107.304 53.7197 107.256 53.9641 107.162 54.1922C107.067 54.4202 106.929 54.6275 106.755 54.802C106.58 54.9766 106.373 55.115 106.145 55.2094C105.917 55.3038 105.673 55.3523 105.426 55.3521H94.0395C93.7927 55.3523 93.5484 55.3038 93.3204 55.2094C93.0924 55.115 92.8853 54.9766 92.7108 54.802C92.5364 54.6275 92.3982 54.4202 92.304 54.1922C92.2098 53.9641 92.1615 53.7197 92.1619 53.4729V44.7097C92.1617 44.463 92.2101 44.2188 92.3044 43.9909C92.3987 43.763 92.537 43.5559 92.7114 43.3815C92.8858 43.2071 93.0928 43.0688 93.3207 42.9746C93.5486 42.8803 93.7929 42.8318 94.0395 42.832H105.426C105.501 42.832 105.575 42.832 105.645 42.844C106.102 42.898 106.523 43.1178 106.829 43.4617C107.135 43.8055 107.304 44.2496 107.304 44.7097Z" stroke="#45413C" stroke-width="1.50643" stroke-linecap="round" stroke-linejoin="round"/>
<g id="Vector_25">
<path d="M99.733 42.832V40.5367V42.832Z" fill="#FF6242"/>
<path d="M99.733 42.832V40.5367" stroke="#45413C" stroke-width="1.50643" stroke-linecap="round" stroke-linejoin="round"/>
</g>
<path id="Vector_26" d="M98.1407 39.0375C98.1407 39.2466 98.182 39.4538 98.262 39.647C98.342 39.8403 98.4594 40.0158 98.6073 40.1637C98.7552 40.3117 98.9308 40.429 99.124 40.509C99.3172 40.5891 99.5244 40.6303 99.7335 40.6303C99.9427 40.6303 100.15 40.5891 100.343 40.509C100.536 40.429 100.712 40.3117 100.86 40.1637C101.008 40.0158 101.125 39.8403 101.205 39.647C101.285 39.4538 101.326 39.2466 101.326 39.0375C101.326 38.8283 101.285 38.6212 101.205 38.428C101.125 38.2347 101.008 38.0591 100.86 37.9112C100.712 37.7633 100.536 37.646 100.343 37.5659C100.15 37.4859 99.9427 37.4447 99.7335 37.4447C99.5244 37.4447 99.3172 37.4859 99.124 37.5659C98.9308 37.646 98.7552 37.7633 98.6073 37.9112C98.4594 38.0591 98.342 38.2347 98.262 38.428C98.182 38.6212 98.1407 38.8283 98.1407 39.0375Z" fill="#FF6242" stroke="#45413C" stroke-width="1.50643" stroke-linecap="round" stroke-linejoin="round"/>
<path id="Vector_27" d="M97.8853 57.832V55.3518H101.579V57.8126" stroke="#45413C" stroke-width="1.50643" stroke-linecap="round" stroke-linejoin="round"/>
<path id="Vector_28" d="M95.8167 48.5065C95.8167 48.7637 95.8673 49.0183 95.9657 49.2559C96.0641 49.4934 96.2083 49.7093 96.3902 49.8911C96.572 50.073 96.7879 50.2172 97.0255 50.3156C97.263 50.414 97.5177 50.4647 97.7748 50.4647C98.032 50.4647 98.2866 50.414 98.5242 50.3156C98.7617 50.2172 98.9776 50.073 99.1594 49.8911C99.3413 49.7093 99.4855 49.4934 99.5839 49.2559C99.6823 49.0183 99.733 48.7637 99.733 48.5065C99.733 48.2494 99.6823 47.9947 99.5839 47.7572C99.4855 47.5196 99.3413 47.3037 99.1594 47.1219C98.9776 46.94 98.7617 46.7958 98.5242 46.6974C98.2866 46.599 98.032 46.5483 97.7748 46.5483C97.5177 46.5483 97.263 46.599 97.0255 46.6974C96.7879 46.7958 96.572 46.94 96.3902 47.1219C96.2083 47.3037 96.0641 47.5196 95.9657 47.7572C95.8673 47.9947 95.8167 48.2494 95.8167 48.5065Z" fill="white" stroke="#45413C" stroke-width="1.50643" stroke-linecap="round" stroke-linejoin="round"/>
<path id="Vector_29" d="M99.7321 48.5065C99.7321 49.0258 99.9384 49.5239 100.306 49.8911C100.673 50.2584 101.171 50.4647 101.69 50.4647C102.21 50.4647 102.708 50.2584 103.075 49.8911C103.442 49.5239 103.648 49.0258 103.648 48.5065C103.648 47.9872 103.442 47.4891 103.075 47.1219C102.708 46.7546 102.21 46.5483 101.69 46.5483C101.171 46.5483 100.673 46.7546 100.306 47.1219C99.9384 47.4891 99.7321 47.9872 99.7321 48.5065Z" fill="white" stroke="#45413C" stroke-width="1.50643" stroke-linecap="round" stroke-linejoin="round"/>
<path id="Vector_30" d="M5.10913 79.666C5.10913 81.2044 5.41214 82.7277 6.00086 84.149C6.58958 85.5703 7.45248 86.8617 8.54029 87.9495C9.6281 89.0373 10.9195 89.9002 12.3408 90.489C13.7621 91.0777 15.2854 91.3807 16.8238 91.3807C18.3622 91.3807 19.8856 91.0777 21.3068 90.489C22.7281 89.9002 24.0196 89.0373 25.1074 87.9495C26.1952 86.8617 27.0581 85.5703 27.6468 84.149C28.2355 82.7277 28.5385 81.2044 28.5385 79.666C28.5385 78.1276 28.2355 76.6043 27.6468 75.183C27.0581 73.7617 26.1952 72.4703 25.1074 71.3825C24.0196 70.2946 22.7281 69.4317 21.3068 68.843C19.8856 68.2543 18.3622 67.9513 16.8238 67.9513C15.2854 67.9513 13.7621 68.2543 12.3408 68.843C10.9195 69.4317 9.6281 70.2946 8.54029 71.3825C7.45248 72.4703 6.58958 73.7617 6.00086 75.183C5.41214 76.6043 5.10913 78.1276 5.10913 79.666Z" fill="#FFE8D1" stroke="#45413C" stroke-width="1.50643"/>
<path id="Vector_31" d="M13.0554 79.3941C13.0751 80.3808 13.4808 81.3205 14.1856 82.0114C14.8904 82.7023 15.8379 83.0893 16.8249 83.0893C17.8118 83.0893 18.7594 82.7023 19.4641 82.0114C20.1689 81.3205 20.5747 80.3808 20.5943 79.3941V77.509C20.6043 77.0077 20.5141 76.5094 20.3292 76.0433C20.1442 75.5773 19.8682 75.1528 19.5172 74.7947C19.1662 74.4367 18.7472 74.1522 18.285 73.958C17.8227 73.7638 17.3263 73.6638 16.8249 73.6638C16.3234 73.6638 15.8271 73.7638 15.3648 73.958C14.9025 74.1522 14.4836 74.4367 14.1326 74.7947C13.7816 75.1528 13.5055 75.5773 13.3205 76.0433C13.1356 76.5094 13.0455 77.0077 13.0554 77.509V79.3941Z" fill="#DAEDF7"/>
<path id="Vector_32" d="M13.0554 79.3941C13.0751 80.3808 13.4808 81.3205 14.1856 82.0114C14.8904 82.7023 15.8379 83.0893 16.8249 83.0893C17.8118 83.0893 18.7594 82.7023 19.4641 82.0114C20.1689 81.3205 20.5747 80.3808 20.5943 79.3941V77.509C20.6043 77.0077 20.5141 76.5094 20.3292 76.0433C20.1442 75.5773 19.8682 75.1528 19.5172 74.7947C19.1662 74.4367 18.7472 74.1522 18.285 73.958C17.8227 73.7638 17.3263 73.6638 16.8249 73.6638C16.3234 73.6638 15.8271 73.7638 15.3648 73.958C14.9025 74.1522 14.4836 74.4367 14.1326 74.7947C13.7816 75.1528 13.5055 75.5773 13.3205 76.0433C13.1356 76.5094 13.0455 77.0077 13.0554 77.509V79.3941Z" fill="#FFCEBF" stroke="#45413C" stroke-width="1.50643"/>
<path id="Vector_33" d="M8.99768 88.3808C11.1479 90.3129 13.9366 91.3818 16.8274 91.3818C19.7181 91.3818 22.5068 90.3129 24.657 88.3808C24.0138 86.8342 22.9269 85.5128 21.5334 84.5832C20.14 83.6536 18.5024 83.1575 16.8274 83.1575C15.1523 83.1575 13.5148 83.6536 12.1213 84.5832C10.7279 85.5128 9.64096 86.8342 8.99768 88.3808Z" fill="#FF6242" stroke="#45413C" stroke-width="1.50643"/>
<path id="Vector_34" d="M13.0863 77.023C13.1848 76.2626 13.513 75.5503 14.0269 74.9812C14.5409 74.4122 15.2162 74.0134 15.9627 73.8382C16.7092 73.663 17.4914 73.7197 18.2048 74.0007C18.9182 74.2817 19.529 74.7736 19.9555 75.4108C19.0633 76.2755 17.9533 76.8821 16.7437 77.166C15.534 77.4499 14.2701 77.4005 13.0863 77.023Z" fill="#A86C4D" stroke="#45413C" stroke-width="1.50643" stroke-linejoin="round"/>
</g>
</svg>
