<svg width="151" height="151" viewBox="0 0 151 151" fill="none" xmlns="http://www.w3.org/2000/svg">
<g id="Cloud-Data-Exchange--Streamline-Ux">
<path id="Vector" d="M15.6665 75.3212C15.6665 91.1426 21.9515 106.316 33.139 117.503C44.3264 128.691 59.4998 134.976 75.3212 134.976C91.1426 134.976 106.316 128.691 117.503 117.503C128.691 106.316 134.976 91.1426 134.976 75.3212C134.976 67.4873 133.433 59.73 130.435 52.4924C127.437 45.2547 123.043 38.6784 117.503 33.139C111.964 27.5995 105.388 23.2054 98.1501 20.2074C90.9125 17.2095 83.1552 15.6665 75.3212 15.6665C67.4873 15.6665 59.73 17.2095 52.4924 20.2074C45.2547 23.2054 38.6784 27.5995 33.139 33.139C27.5995 38.6784 23.2054 45.2547 20.2074 52.4924C17.2095 59.73 15.6665 67.4873 15.6665 75.3212Z" fill="#DAEDF7"/>
<path id="Vector_2" d="M68.9083 76.8903C69.2767 75.3861 69.1689 73.8046 68.5998 72.3642C68.0307 70.9239 67.0283 69.6959 65.7312 68.8498C64.4341 68.0037 62.9062 67.5813 61.3587 67.641C59.8111 67.7006 58.3203 68.2394 57.0922 69.1829C55.1014 66.8368 52.4384 65.1585 49.463 64.3747C46.4876 63.5909 43.3433 63.7395 40.4551 64.8003C37.5669 65.8611 35.0739 67.7831 33.3132 70.3064C31.5525 72.8297 30.6089 75.8327 30.6099 78.9096V79.005C30.2976 78.9535 29.9823 78.9217 29.6659 78.9096C27.6724 78.9096 25.7606 79.7015 24.3509 81.1111C22.9413 82.5207 22.1494 84.4326 22.1494 86.4261C22.1494 88.4196 22.9413 90.3314 24.3509 91.7411C25.7606 93.1507 27.6724 93.9426 29.6659 93.9426H63.4946C65.4885 93.9448 67.4313 93.3117 69.0411 92.1352C70.6509 90.9586 71.8441 89.2998 72.4474 87.3994C73.0508 85.4989 73.0329 83.4557 72.3966 81.566C71.7602 79.6764 70.5384 78.0386 68.9083 76.8903Z" fill="white"/>
<path id="Vector_3" d="M63.4943 89.2448H29.6701C28.0925 89.2412 26.5564 88.7397 25.2806 87.8118C24.0048 86.8839 23.0545 85.5769 22.5652 84.0772C22.1736 85.2035 22.059 86.4076 22.231 87.5876C22.4031 88.7676 22.8567 89.8888 23.5536 90.8565C24.2505 91.8241 25.1701 92.6097 26.2347 93.1469C27.2994 93.6841 28.4777 93.957 29.6701 93.9426H63.4943C64.9305 93.9453 66.3481 93.6183 67.6379 92.9866C68.9277 92.3548 70.0552 91.4354 70.9335 90.299C71.8117 89.1627 72.4173 87.8398 72.7035 86.4324C72.9897 85.0251 72.9489 83.5707 72.5842 82.1816C72.0669 84.2003 70.8931 85.9897 69.2476 87.2683C67.6021 88.5469 65.5782 89.2422 63.4943 89.2448Z" fill="#DAEDF7"/>
<path id="Vector_4" d="M68.9083 76.8903C69.2767 75.3861 69.1689 73.8045 68.5998 72.3642C68.0307 70.9239 67.0283 69.6959 65.7312 68.8498C64.4341 68.0037 62.9062 67.5813 61.3587 67.641C59.8111 67.7006 58.3203 68.2394 57.0922 69.1829C55.1014 66.8368 52.4384 65.1585 49.463 64.3747C46.4876 63.5909 43.3433 63.7395 40.4551 64.8003C37.5669 65.8611 35.0739 67.7831 33.3132 70.3064C31.5525 72.8297 30.6089 75.8327 30.6099 78.9096V79.005C30.2976 78.9535 29.9823 78.9217 29.6659 78.9096C27.6724 78.9096 25.7606 79.7015 24.3509 81.1111C22.9413 82.5207 22.1494 84.4326 22.1494 86.4261C22.1494 88.4196 22.9413 90.3314 24.3509 91.7411C25.7606 93.1507 27.6724 93.9426 29.6659 93.9426H63.4946C65.4885 93.9448 67.4313 93.3117 69.0411 92.1352C70.6509 90.9586 71.8441 89.2998 72.4474 87.3994C73.0508 85.4989 73.0329 83.4557 72.3966 81.566C71.7602 79.6764 70.5384 78.0386 68.9083 76.8903Z" stroke="#45413C" stroke-width="1.50643" stroke-linecap="round" stroke-linejoin="round"/>
<path id="Vector_5" d="M121.525 56.5302C121.893 55.026 121.785 53.4445 121.216 52.0042C120.647 50.5639 119.645 49.3358 118.348 48.4897C117.051 47.6436 115.523 47.2213 113.975 47.2809C112.428 47.3406 110.937 47.8794 109.709 48.8228C107.718 46.476 105.054 44.7971 102.079 44.013C99.1026 43.229 95.9576 43.3776 93.0689 44.4389C90.1802 45.5002 87.6871 47.4229 85.9265 49.947C84.166 52.4712 83.2229 55.475 83.2249 58.5525V58.6495C82.9127 58.5967 82.5973 58.5643 82.2809 58.5525C80.2874 58.5525 78.3756 59.3444 76.9659 60.7541C75.5563 62.1637 74.7644 64.0755 74.7644 66.069C74.7644 68.0625 75.5563 69.9744 76.9659 71.384C78.3756 72.7936 80.2874 73.5855 82.2809 73.5855H116.11C118.104 73.589 120.048 72.9565 121.659 71.7799C123.27 70.6033 124.464 68.9439 125.068 67.0426C125.672 65.1412 125.654 63.097 125.017 61.2066C124.379 59.3162 123.156 57.6782 121.525 56.5302Z" fill="white"/>
<path id="Vector_6" d="M116.11 68.888H82.2862C80.7086 68.8844 79.1725 68.383 77.8967 67.455C76.6209 66.5271 75.6706 65.2201 75.1813 63.7204C74.7897 64.8467 74.6751 66.0508 74.8471 67.2308C75.0191 68.4108 75.4728 69.532 76.1697 70.4997C76.8665 71.4673 77.7862 72.2529 78.8508 72.7901C79.9155 73.3273 81.0938 73.6002 82.2862 73.5858H116.11C117.546 73.5883 118.963 73.2613 120.252 72.6299C121.541 71.9985 122.668 71.0797 123.547 69.944C124.425 68.8084 125.031 67.4864 125.317 66.0798C125.604 64.6732 125.564 63.2195 125.2 61.8308C124.682 63.8484 123.508 65.6364 121.862 66.9138C120.217 68.1913 118.193 68.8857 116.11 68.888Z" fill="#DAEDF7"/>
<path id="Vector_7" d="M121.525 56.5302C121.893 55.026 121.785 53.4445 121.216 52.0042C120.647 50.5639 119.645 49.3358 118.348 48.4897C117.051 47.6436 115.523 47.2213 113.975 47.2809C112.428 47.3406 110.937 47.8794 109.709 48.8228C107.718 46.476 105.054 44.7971 102.079 44.013C99.1026 43.229 95.9577 43.3776 93.0689 44.4389C90.1802 45.5002 87.6871 47.4229 85.9265 49.947C84.166 52.4712 83.2229 55.475 83.2249 58.5525V58.6495C82.9127 58.5967 82.5973 58.5643 82.2809 58.5525C80.2874 58.5525 78.3756 59.3444 76.9659 60.7541C75.5563 62.1637 74.7644 64.0755 74.7644 66.069C74.7644 68.0625 75.5563 69.9744 76.9659 71.384C78.3756 72.7936 80.2874 73.5855 82.2809 73.5855H116.11C118.104 73.589 120.048 72.9565 121.659 71.7799C123.27 70.6033 124.464 68.9439 125.068 67.0426C125.672 65.1412 125.654 63.097 125.017 61.2066C124.379 59.3162 123.156 57.6782 121.525 56.5302Z" stroke="#45413C" stroke-width="1.50643" stroke-linecap="round" stroke-linejoin="round"/>
<path id="Vector_8" opacity="0.15" d="M52.8461 122.913C52.8461 123.536 55.2218 124.133 59.4507 124.574C63.6795 125.014 69.4151 125.262 75.3956 125.262C81.376 125.262 87.1116 125.014 91.3405 124.574C95.5693 124.133 97.945 123.536 97.945 122.913C97.945 122.29 95.5693 121.692 91.3405 121.252C87.1116 120.811 81.376 120.564 75.3956 120.564C69.4151 120.564 63.6795 120.811 59.4507 121.252C55.2218 121.692 52.8461 122.29 52.8461 122.913Z" fill="#45413C"/>
<path id="Vector_9" d="M47.9914 75.1139C46.9631 75.1139 45.9768 74.7053 45.2496 73.9781C44.5224 73.251 44.1139 72.2647 44.1139 71.2363C44.1467 63.9949 46.6805 56.9872 51.2864 51.3993C55.8924 45.8115 62.2876 41.9867 69.3896 40.5723L66.6395 38.2622C66.0303 37.7505 65.5932 37.0638 65.3875 36.2953C65.1818 35.5267 65.2175 34.7135 65.4898 33.9659C65.762 33.2184 66.2577 32.5726 66.9094 32.1164C67.5612 31.6601 68.3375 31.4153 69.1331 31.4153C70.0438 31.4152 70.9256 31.7357 71.6237 32.3205L81.8023 40.8706C82.1925 41.1977 82.5145 41.5985 82.7498 42.0501C82.9852 42.5017 83.1292 42.9952 83.1738 43.5025C83.2184 44.0098 83.1627 44.5209 83.0097 45.0066C82.8568 45.4924 82.6097 45.9432 82.2825 46.3334L73.7384 56.5105C73.4154 56.9135 73.0151 57.2479 72.5611 57.4941C72.1071 57.7403 71.6084 57.8933 71.0945 57.9441C70.5805 57.995 70.0615 57.9426 69.5681 57.7901C69.0746 57.6377 68.6166 57.3881 68.2209 57.0562C67.8252 56.7243 67.4998 56.3167 67.2638 55.8573C67.0278 55.3978 66.8859 54.8959 66.8466 54.3809C66.8072 53.866 66.8711 53.3483 67.0345 52.8584C67.198 52.3684 67.4577 51.9161 67.7983 51.5279L70.5588 48.2379C65.2798 49.3497 60.5427 52.2409 57.1405 56.4278C53.7382 60.6146 51.8773 65.8429 51.869 71.2378C51.8686 72.2659 51.4599 73.2518 50.7328 73.9787C50.0056 74.7055 49.0196 75.1139 47.9914 75.1139Z" fill="#FFCC99"/>
<path id="Vector_10" d="M69.133 32.1612C69.869 32.1606 70.5815 32.4199 71.1449 32.8934L81.3235 41.4345C81.9596 41.9683 82.3576 42.733 82.43 43.5602C82.5025 44.3875 82.2434 45.2097 81.7097 45.8459L73.1687 56.0245C72.9043 56.3397 72.5804 56.5996 72.2155 56.7896C71.8507 56.9795 71.452 57.0958 71.0422 57.1316C70.6324 57.1675 70.2196 57.1223 69.8273 56.9986C69.435 56.8749 69.0708 56.6752 68.7557 56.4108C68.4406 56.1464 68.1806 55.8225 67.9907 55.4577C67.8007 55.0928 67.6845 54.6941 67.6486 54.2843C67.6128 53.8745 67.658 53.4617 67.7816 53.0694C67.9053 52.6771 68.1051 52.313 68.3695 51.9978L72.4245 47.1643C66.5513 47.8935 61.1463 50.7414 57.2242 55.1734C53.3021 59.6055 51.1327 65.3167 51.1233 71.235C51.1233 72.0656 50.7933 72.8622 50.206 73.4496C49.6186 74.0369 48.822 74.3669 47.9914 74.3669C47.1608 74.3669 46.3642 74.0369 45.7768 73.4496C45.1895 72.8622 44.8595 72.0656 44.8595 71.235C44.8726 63.8866 47.5332 56.7891 52.354 51.243C57.1747 45.697 63.8327 42.0739 71.1076 41.0378L67.1182 37.6926C66.6256 37.2795 66.272 36.7247 66.1056 36.1036C65.9392 35.4825 65.968 34.8253 66.188 34.2211C66.4081 33.617 66.8088 33.0952 67.3357 32.7267C67.8625 32.3581 68.4901 32.1607 69.133 32.1612ZM69.133 30.6698C68.184 30.6693 67.2578 30.9608 66.4802 31.5049C65.7026 32.049 65.1112 32.8192 64.7864 33.7109C64.4617 34.6026 64.4192 35.5727 64.6648 36.4894C64.9104 37.4062 65.4322 38.2251 66.1593 38.835L67.752 40.1698C60.8127 41.901 54.648 45.8953 50.2322 51.5213C45.8164 57.1474 43.4011 64.0845 43.3682 71.2365C43.3682 71.8436 43.4877 72.4448 43.7201 73.0057C43.9524 73.5666 44.293 74.0763 44.7223 74.5056C45.1516 74.9349 45.6612 75.2755 46.2222 75.5078C46.7831 75.7401 47.3843 75.8597 47.9914 75.8597C48.5985 75.8597 49.1997 75.7401 49.7606 75.5078C50.3216 75.2755 50.8312 74.9349 51.2605 74.5056C51.6898 74.0763 52.0304 73.5666 52.2627 73.0057C52.4951 72.4448 52.6146 71.8436 52.6146 71.2365C52.6209 66.4067 54.1606 61.7037 57.012 57.8054C59.8633 53.9072 63.8789 51.0151 68.4798 49.546L67.2271 51.0374C66.8195 51.5001 66.5085 52.0396 66.3126 52.6242C66.1166 53.2088 66.0396 53.8267 66.086 54.4416C66.1324 55.0564 66.3013 55.6558 66.5828 56.2043C66.8644 56.7529 67.2527 57.2396 67.7252 57.6359C68.1976 58.0321 68.7445 58.3298 69.3337 58.5115C69.9229 58.6932 70.5425 58.7552 71.1561 58.6939C71.7696 58.6325 72.3647 58.4491 72.9062 58.1543C73.4478 57.8596 73.925 57.4594 74.3096 56.9775L82.8521 46.7989C83.2425 46.3338 83.5375 45.7964 83.7202 45.2172C83.9028 44.6381 83.9696 44.0287 83.9167 43.4238C83.8638 42.8188 83.6922 42.2303 83.4118 41.6916C83.1314 41.153 82.7476 40.6749 82.2824 40.2846L72.1038 31.7451C71.2714 31.0467 70.2196 30.6639 69.133 30.6638V30.6698Z" fill="#FF8A14"/>
<path id="Vector_11" d="M82.38 111.132C81.4597 111.132 80.5695 110.804 79.8686 110.208L69.7511 101.595C69.3624 101.266 69.0427 100.862 68.8105 100.409C68.5784 99.9553 68.4383 99.4602 68.3985 98.9522C68.3198 97.9273 68.6476 96.9127 69.3112 96.1276L77.9238 86.0102C78.5905 85.2272 79.5409 84.7412 80.566 84.659C81.591 84.5768 82.6067 84.9051 83.3897 85.5717C83.778 85.9012 84.0976 86.3039 84.3302 86.757C84.5629 87.21 84.704 87.7044 84.7455 88.2119C84.7871 88.7195 84.7282 89.2303 84.5724 89.7151C84.4165 90.1999 84.1667 90.6493 83.8371 91.0376L81.3316 93.98C86.3764 92.6863 90.8458 89.7477 94.0331 85.6288C97.2203 81.51 98.9434 76.4461 98.9297 71.2381C98.9297 70.2098 99.3383 69.2235 100.065 68.4963C100.793 67.7691 101.779 67.3606 102.807 67.3606C103.836 67.3606 104.822 67.7691 105.549 68.4963C106.276 69.2235 106.685 70.2098 106.685 71.2381C106.707 78.3997 104.258 85.3496 99.7515 90.9156C95.245 96.4815 88.9568 100.323 81.9475 101.792L84.896 104.3C85.501 104.815 85.9335 105.502 86.1351 106.27C86.3367 107.038 86.2977 107.85 86.0233 108.595C85.7489 109.34 85.2523 109.983 84.6008 110.437C83.9492 110.89 83.1741 111.133 82.38 111.132Z" fill="#C8FFA1"/>
<path id="Vector_12" d="M102.8 68.1048C103.63 68.1048 104.427 68.4348 105.014 69.0221C105.602 69.6095 105.932 70.4061 105.932 71.2367C105.919 78.4817 103.333 85.4866 98.6345 91.0015C93.9361 96.5164 87.431 100.183 80.28 101.346L84.4186 104.869C85.0514 105.407 85.4444 106.175 85.5111 107.003C85.5778 107.832 85.3128 108.652 84.7742 109.285C84.2357 109.918 83.4679 110.311 82.6396 110.378C81.8113 110.445 80.9904 110.179 80.3576 109.641L70.2401 101.028C69.9268 100.762 69.669 100.436 69.4816 100.07C69.2942 99.7035 69.1807 99.3039 69.1478 98.8938C69.1148 98.4837 69.163 98.0712 69.2895 97.6797C69.416 97.2883 69.6184 96.9255 69.8852 96.6123L78.4978 86.4949C79.0363 85.862 79.8042 85.469 80.6325 85.4023C81.4608 85.3356 82.2816 85.6007 82.9145 86.1392C83.5474 86.6777 83.9404 87.4456 84.0071 88.2739C84.0738 89.1022 83.8087 89.923 83.2702 90.5559L79.3479 95.1567C85.0189 94.219 90.1736 91.3006 93.8956 86.9203C97.6175 82.54 99.6654 76.9817 99.6752 71.2337C99.6752 70.4031 100.005 69.6065 100.593 69.0191C101.18 68.4318 101.976 68.1018 102.807 68.1018M102.807 66.6105C102.2 66.6105 101.599 66.7301 101.038 66.9624C100.477 67.1947 99.9673 67.5353 99.538 67.9646C99.1087 68.3939 98.7681 68.9036 98.5358 69.4645C98.3035 70.0254 98.1839 70.6266 98.1839 71.2337C98.1961 75.8379 96.8061 80.3367 94.1987 84.1315C91.5913 87.9263 87.8902 90.8371 83.5879 92.4768L84.4036 91.5193C85.1991 90.586 85.5912 89.375 85.4937 88.1526C85.3962 86.9303 84.8172 85.7967 83.8839 85.0013C82.9506 84.2059 81.7396 83.8137 80.5172 83.9112C79.2949 84.0087 78.1613 84.5878 77.3659 85.521L68.7502 95.6414C67.9596 96.5776 67.5691 97.7872 67.663 99.0089C67.7085 99.6149 67.8735 100.206 68.1484 100.748C68.4233 101.289 68.8027 101.772 69.2648 102.166L79.3852 110.78C80.319 111.575 81.5304 111.966 82.7528 111.868C83.9751 111.77 85.1084 111.19 85.9032 110.256C86.698 109.322 87.0893 108.111 86.991 106.889C86.8927 105.666 86.3128 104.533 85.379 103.738L83.5521 102.183C90.4032 100.409 96.4687 96.4044 100.791 90.8008C105.114 85.1972 107.447 78.3137 107.423 71.2367C107.423 70.0105 106.936 68.8346 106.069 67.9676C105.202 67.1005 104.026 66.6135 102.8 66.6135L102.807 66.6105Z" fill="#46B000"/>
</g>
</svg>
