<svg width="151" height="151" viewBox="0 0 151 151" fill="none" xmlns="http://www.w3.org/2000/svg">
<g id="Cloud-Connecting-1--Streamline-Ux">
<path id="Vector" d="M15.6671 75.3212C15.6671 91.1426 21.9521 106.316 33.1396 117.503C44.327 128.691 59.5004 134.976 75.3218 134.976C91.1432 134.976 106.317 128.691 117.504 117.503C128.692 106.316 134.977 91.1426 134.977 75.3212C134.977 67.4873 133.434 59.73 130.436 52.4924C127.438 45.2547 123.044 38.6784 117.504 33.139C111.965 27.5995 105.388 23.2054 98.1507 20.2074C90.9131 17.2095 83.1558 15.6665 75.3218 15.6665C67.4879 15.6665 59.7306 17.2095 52.493 20.2074C45.2553 23.2054 38.679 27.5995 33.1396 33.139C27.6001 38.6784 23.206 45.2547 20.2081 52.4924C17.2101 59.73 15.6671 67.4873 15.6671 75.3212Z" fill="#DAEDF7"/>
<path id="Vector_2" opacity="0.15" d="M52.7694 123.056C52.7694 123.679 55.1451 124.276 59.374 124.717C63.6028 125.157 69.3384 125.405 75.3189 125.405C81.2994 125.405 87.0349 125.157 91.2638 124.717C95.4926 124.276 97.8684 123.679 97.8684 123.056C97.8684 122.433 95.4926 121.835 91.2638 121.395C87.0349 120.954 81.2994 120.707 75.3189 120.707C69.3384 120.707 63.6028 120.954 59.374 121.395C55.1451 121.835 52.7694 122.433 52.7694 123.056Z" fill="#45413C"/>
<path id="Vector_3" d="M100.194 41.8254C99.7998 41.8265 99.4098 41.7493 99.0462 41.5983C98.6827 41.4472 98.3528 41.2253 98.0758 40.9455C92.0391 34.9111 83.853 31.5212 75.3175 31.5212C66.782 31.5212 58.5959 34.9111 52.5592 40.9455C51.9976 41.5068 51.236 41.8219 50.4419 41.8216C49.6479 41.8214 48.8865 41.5057 48.3252 40.944C47.764 40.3823 47.4488 39.6207 47.4491 38.8267C47.4494 38.0327 47.7651 37.2713 48.3267 36.71C55.4865 29.5518 65.1962 25.5305 75.3205 25.5305C85.4448 25.5305 95.1545 29.5518 102.314 36.71C102.733 37.1288 103.017 37.6622 103.133 38.2427C103.248 38.8233 103.189 39.425 102.962 39.9719C102.736 40.5188 102.352 40.9863 101.86 41.3154C101.368 41.6445 100.79 41.8204 100.198 41.8209L100.194 41.8254Z" fill="#B8ECFF"/>
<path id="Vector_4" d="M75.3222 26.2808C80.2388 26.2673 85.1093 27.2292 89.6516 29.1107C94.194 30.9923 98.318 33.7562 101.785 37.2424C101.994 37.4512 102.16 37.6992 102.273 37.9721C102.386 38.245 102.444 38.5375 102.444 38.8329C102.444 39.1283 102.386 39.4208 102.273 39.6937C102.16 39.9666 101.994 40.2146 101.785 40.4235C101.576 40.6323 101.328 40.798 101.055 40.9111C100.782 41.0241 100.49 41.0823 100.194 41.0823C99.8991 41.0823 99.6066 41.0241 99.3336 40.9111C99.0607 40.798 98.8128 40.6323 98.6039 40.4235C92.4278 34.2486 84.0519 30.7796 75.3184 30.7796C66.5849 30.7796 58.2091 34.2486 52.033 40.4235C51.6077 40.8281 51.0411 41.0504 50.4542 41.043C49.8673 41.0355 49.3065 40.7989 48.8917 40.3837C48.4768 39.9684 48.2407 39.4075 48.2339 38.8205C48.227 38.2336 48.4498 37.6672 48.8548 37.2424C52.323 33.7565 56.4479 30.9929 60.9909 29.1114C65.5339 27.2298 70.4049 26.2678 75.3222 26.2808ZM75.3222 24.7895C70.2094 24.776 65.1447 25.7763 60.4209 27.7325C55.6972 29.6888 51.4082 32.5622 47.8019 36.1865C47.1164 36.8909 46.7357 37.8369 46.7421 38.8198C46.7486 39.8027 47.1417 40.7436 47.8365 41.4389C48.5312 42.1342 49.4718 42.5281 50.4547 42.5354C51.4376 42.5427 52.3839 42.1628 53.0888 41.4779C58.9851 35.5822 66.9818 32.2701 75.3199 32.2701C83.6581 32.2701 91.6548 35.5822 97.551 41.4779C98.2525 42.1789 99.2037 42.5727 100.196 42.5724C101.187 42.5721 102.138 42.1779 102.839 41.4764C103.54 40.7749 103.934 39.8236 103.934 38.8319C103.934 37.8401 103.539 36.8891 102.838 36.188C99.2331 32.5629 94.945 29.6889 90.2219 27.7324C85.4988 25.7758 80.4345 24.7755 75.3222 24.7895Z" fill="#009FD9"/>
<path id="Vector_5" d="M91.5406 50.4751C91.1472 50.4758 90.7576 50.3987 90.3941 50.2482C90.0307 50.0977 89.7006 49.8768 89.4229 49.5982C85.6817 45.8582 80.6083 43.7572 75.3183 43.7572C70.0283 43.7572 64.9548 45.8582 61.2137 49.5982C60.9355 49.8761 60.6054 50.0965 60.2421 50.2469C59.8788 50.3972 59.4895 50.4745 59.0963 50.4744C58.3023 50.4741 57.5409 50.1584 56.9797 49.5967C56.7017 49.3186 56.4813 48.9885 56.331 48.6252C56.1807 48.2619 56.1034 47.8726 56.1035 47.4794C56.1038 46.6854 56.4195 45.924 56.9812 45.3627C61.845 40.4999 68.4412 37.7681 75.319 37.7681C82.1968 37.7681 88.793 40.4999 93.6569 45.3627C94.0754 45.7813 94.3604 46.3146 94.4758 46.8952C94.5913 47.4757 94.532 48.0775 94.3055 48.6244C94.079 49.1712 93.6954 49.6387 93.2033 49.9676C92.7112 50.2965 92.1325 50.4721 91.5406 50.4722V50.4751Z" fill="#B8ECFF"/>
<path id="Vector_6" d="M75.3214 38.5159C78.6299 38.5076 81.9072 39.1553 84.9637 40.4217C88.0202 41.6881 90.7952 43.5479 93.1284 45.8937C93.55 46.3151 93.787 46.8868 93.7871 47.4829C93.7873 48.0791 93.5506 48.6509 93.1291 49.0725C92.9204 49.2813 92.6727 49.4469 92.4 49.5599C92.1273 49.673 91.835 49.7312 91.5399 49.7313C90.9437 49.7314 90.3719 49.4947 89.9503 49.0733C86.0693 45.1935 80.8062 43.0139 75.3185 43.0139C69.8307 43.0139 64.5677 45.1935 60.6866 49.0733C60.265 49.4947 59.6932 49.7314 59.0971 49.7313C58.5009 49.7311 57.9292 49.4942 57.5078 49.0725C57.0864 48.6509 56.8497 48.0791 56.8498 47.4829C56.8499 46.8868 57.0869 46.3151 57.5085 45.8937C59.8429 43.548 62.6191 41.6882 65.6765 40.4218C68.734 39.1555 72.0121 38.5077 75.3214 38.5159ZM75.3214 37.0245C71.8167 37.0158 68.345 37.7017 65.1068 39.0425C61.8687 40.3834 58.9283 42.3525 56.4556 44.8363C55.754 45.5372 55.3594 46.4881 55.3589 47.4799C55.3583 48.4716 55.7518 49.423 56.4527 50.1247C57.1535 50.8264 58.1045 51.2209 59.0962 51.2214C60.088 51.222 61.0394 50.8285 61.741 50.1277C65.3425 46.527 70.2266 44.5042 75.3192 44.5042C80.4118 44.5042 85.296 46.527 88.8974 50.1277C89.2426 50.4837 89.6552 50.7674 90.1112 50.9624C90.5671 51.1575 91.0573 51.2598 91.5532 51.2635C92.0491 51.2673 92.5408 51.1723 92.9997 50.9842C93.4585 50.7961 93.8754 50.5186 94.2259 50.1678C94.5765 49.817 94.8538 49.4001 95.0416 48.9411C95.2295 48.4821 95.3242 47.9904 95.3202 47.4945C95.3161 46.9986 95.2135 46.5085 95.0182 46.0526C94.823 45.5968 94.539 45.1843 94.1828 44.8393C91.7116 42.3544 88.7723 40.3843 85.5347 39.0429C82.2972 37.7015 78.8258 37.0155 75.3214 37.0245Z" fill="#009FD9"/>
<path id="Vector_7" d="M67.7521 59.1297C67.1601 59.1299 66.5813 58.9546 66.0889 58.6258C65.5965 58.297 65.2127 57.8296 64.986 57.2826C64.7593 56.7357 64.6999 56.1338 64.8153 55.5531C64.9308 54.9724 65.2158 54.439 65.6344 54.0203C66.9058 52.7471 68.4157 51.7371 70.0778 51.048C71.7399 50.3589 73.5215 50.0042 75.3208 50.0042C77.1201 50.0042 78.9017 50.3589 80.5638 51.048C82.2259 51.7371 83.7358 52.7471 85.0072 54.0203C85.5681 54.5822 85.8828 55.3438 85.8821 56.1377C85.8814 56.9316 85.5654 57.6927 85.0035 58.2536C84.4417 58.8144 83.68 59.1291 82.8861 59.1284C82.0922 59.1277 81.3311 58.8117 80.7703 58.2498C80.0548 57.5337 79.2051 56.9656 78.27 56.578C77.3348 56.1904 76.3324 55.9909 75.3201 55.9909C74.3077 55.9909 73.3053 56.1904 72.3702 56.578C71.435 56.9656 70.5854 57.5337 69.8699 58.2498C69.5927 58.5294 69.2628 58.7512 68.8993 58.9023C68.5357 59.0533 68.1458 59.1306 67.7521 59.1297Z" fill="#B8ECFF"/>
<path id="Vector_8" d="M75.3215 50.751C77.023 50.746 78.7087 51.0789 80.2806 51.7304C81.8525 52.382 83.2794 53.3392 84.4785 54.5465C84.692 54.7542 84.8621 55.0022 84.9789 55.2762C85.0957 55.5502 85.1569 55.8447 85.1589 56.1425C85.1609 56.4404 85.1037 56.7357 84.9905 57.0112C84.8774 57.2868 84.7107 57.5371 84.4999 57.7476C84.2892 57.9581 84.0388 58.1246 83.7631 58.2375C83.4875 58.3504 83.1921 58.4073 82.8943 58.405C82.5964 58.4028 82.302 58.3413 82.0281 58.2242C81.7542 58.1072 81.5063 57.9368 81.2989 57.7231C80.5138 56.9378 79.5817 56.3149 78.5558 55.8899C77.5299 55.4649 76.4304 55.2462 75.32 55.2462C74.2095 55.2462 73.11 55.4649 72.0841 55.8899C71.0583 56.3149 70.1262 56.9378 69.3411 57.7231C69.1325 57.932 68.8848 58.0977 68.6122 58.2109C68.3395 58.324 68.0473 58.3824 67.7521 58.3826C67.4569 58.3828 67.1646 58.3249 66.8918 58.2121C66.619 58.0993 66.3711 57.9339 66.1622 57.7253C65.9533 57.5168 65.7876 57.2691 65.6744 56.9964C65.5613 56.7238 65.5029 56.4316 65.5027 56.1364C65.5025 55.8412 65.5605 55.5489 65.6732 55.2761C65.786 55.0033 65.9514 54.7554 66.16 54.5465C67.3596 53.3386 68.7872 52.3811 70.3599 51.7296C71.9326 51.078 73.6191 50.7454 75.3215 50.751ZM75.3215 49.2596C73.4231 49.2538 71.5426 49.6251 69.7889 50.3519C68.0352 51.0788 66.4433 52.1466 65.1056 53.4936C64.7587 53.8412 64.4838 54.2538 64.2963 54.7077C64.1089 55.1616 64.0128 55.6479 64.0133 56.139C64.0139 56.6301 64.1111 57.1162 64.2996 57.5697C64.488 58.0232 64.7639 58.4351 65.1116 58.782C65.4592 59.1288 65.8717 59.4038 66.3256 59.5912C66.7795 59.7786 67.2659 59.8748 67.757 59.8743C68.7487 59.8731 69.6995 59.4781 70.3999 58.776C71.7054 57.4711 73.4757 56.7381 75.3215 56.7381C77.1673 56.7381 78.9375 57.4711 80.243 58.776C80.9437 59.4777 81.8944 59.8723 82.886 59.873C83.8777 59.8737 84.8289 59.4804 85.5306 58.7797C86.2323 58.0791 86.6269 57.1283 86.6276 56.1367C86.6283 55.1451 86.235 54.1938 85.5343 53.4921C84.197 52.1456 82.6055 51.0782 80.8524 50.3516C79.0992 49.625 77.2192 49.2539 75.3215 49.2596Z" fill="#009FD9"/>
<path id="Vector_9" d="M106.356 88.1855C106.889 86.0075 106.732 83.7176 105.908 81.6324C105.083 79.5471 103.632 77.7692 101.754 76.5444C99.8754 75.3195 97.6632 74.7081 95.4225 74.7945C93.1819 74.881 91.0234 75.6611 89.2451 77.0271C86.3629 73.6293 82.5069 71.1984 78.1984 70.0631C73.89 68.9277 69.3367 69.1427 65.1544 70.679C60.972 72.2152 57.3622 74.9986 54.813 78.6529C52.2638 82.3071 50.8981 86.656 50.9006 91.1116V91.2488C50.4482 91.1734 49.9913 91.1276 49.533 91.1116C46.6456 91.1116 43.8764 92.2586 41.8347 94.3003C39.793 96.342 38.646 99.1111 38.646 101.999C38.646 104.886 39.793 107.655 41.8347 109.697C43.8764 111.739 46.6456 112.886 49.533 112.886H98.514C101.402 112.89 104.216 111.974 106.548 110.271C108.88 108.567 110.608 106.165 111.482 103.412C112.356 100.66 112.331 97.7008 111.409 94.964C110.487 92.2273 108.717 89.8555 106.356 88.193V88.1855Z" fill="white"/>
<path id="Vector_10" d="M98.5139 105.832H49.5388C47.2705 105.83 45.0594 105.119 43.2145 103.799C41.3696 102.48 39.983 100.616 39.2484 98.4703C38.6836 100.108 38.5187 101.858 38.7675 103.572C39.0163 105.287 39.6715 106.918 40.6786 108.328C41.6856 109.738 43.0153 110.886 44.5566 111.678C46.0979 112.47 47.8061 112.881 49.5388 112.878H98.5139C100.3 112.878 102.069 112.527 103.72 111.843C105.371 111.159 106.87 110.157 108.134 108.894C109.397 107.631 110.399 106.131 111.083 104.48C111.766 102.83 112.118 101.061 112.118 99.2741C112.116 98.083 111.955 96.8974 111.641 95.7485C110.868 98.6396 109.162 101.195 106.789 103.018C104.415 104.841 101.507 105.83 98.5139 105.832Z" fill="#DAEDF7"/>
<path id="Vector_11" d="M106.356 88.1855C106.889 86.0074 106.732 83.7176 105.908 81.6324C105.083 79.5471 103.632 77.7692 101.754 76.5444C99.8754 75.3195 97.6632 74.7081 95.4225 74.7945C93.1819 74.881 91.0234 75.6611 89.2451 77.0271C86.3629 73.6293 82.5069 71.1984 78.1984 70.0631C73.89 68.9277 69.3367 69.1427 65.1544 70.679C60.972 72.2152 57.3622 74.9986 54.813 78.6529C52.2638 82.3071 50.8981 86.656 50.9006 91.1116V91.2488C50.4482 91.1734 49.9913 91.1276 49.533 91.1116C46.6456 91.1116 43.8764 92.2586 41.8347 94.3003C39.793 96.342 38.646 99.1111 38.646 101.999C38.646 104.886 39.793 107.655 41.8347 109.697C43.8764 111.739 46.6456 112.886 49.533 112.886H98.514C101.402 112.89 104.216 111.974 106.548 110.271C108.88 108.567 110.608 106.165 111.482 103.412C112.356 100.66 112.331 97.7008 111.409 94.964C110.487 92.2273 108.717 89.8555 106.356 88.193V88.1855Z" stroke="#45413C" stroke-width="1.50643" stroke-linecap="round" stroke-linejoin="round"/>
</g>
</svg>
