<svg width="151" height="151" viewBox="0 0 151 151" fill="none" xmlns="http://www.w3.org/2000/svg">
<g id="Cloud-Download-1--Streamline-Ux">
<path id="Vector" d="M15.6672 75.3212C15.6672 91.1426 21.9523 106.316 33.1397 117.503C44.3271 128.691 59.5005 134.976 75.322 134.976C91.1434 134.976 106.317 128.691 117.504 117.503C128.692 106.316 134.977 91.1426 134.977 75.3212C134.977 67.4873 133.434 59.73 130.436 52.4924C127.438 45.2547 123.044 38.6784 117.504 33.139C111.965 27.5995 105.388 23.2054 98.1508 20.2074C90.9132 17.2095 83.1559 15.6665 75.322 15.6665C67.488 15.6665 59.7307 17.2095 52.4931 20.2074C45.2554 23.2054 38.6792 27.5995 33.1397 33.139C27.6002 38.6784 23.2061 45.2547 20.2082 52.4924C17.2103 59.73 15.6672 67.4873 15.6672 75.3212Z" fill="#DAEDF7"/>
<path id="Vector_2" d="M107.904 54.007C108.464 51.7198 108.301 49.3149 107.435 47.1248C106.57 44.9346 105.046 43.0673 103.073 41.781C101.1 40.4947 98.777 39.8528 96.4238 39.9441C94.0707 40.0355 91.804 40.8555 89.9371 42.2908C86.9115 38.721 82.8624 36.1666 78.3377 34.9731C73.8129 33.7796 69.0307 34.0046 64.638 35.6177C60.2453 37.2308 56.454 40.1541 53.777 43.9923C51.1 47.8305 49.6664 52.3982 49.6701 57.0778V57.2269C49.1951 57.1461 48.7154 57.0963 48.234 57.0778C46.7223 57.0605 45.2222 57.3433 43.8206 57.9099C42.419 58.4764 41.1437 59.3154 40.0686 60.3783C38.9935 61.4411 38.14 62.7067 37.5575 64.1018C36.975 65.4968 36.675 66.9936 36.675 68.5054C36.675 70.0171 36.975 71.5139 37.5575 72.9089C38.14 74.304 38.9935 75.5696 40.0686 76.6325C41.1437 77.6953 42.419 78.5343 43.8206 79.1009C45.2222 79.6674 46.7223 79.9502 48.234 79.933H99.6712C102.703 79.9374 105.658 78.9755 108.106 77.1869C110.554 75.3983 112.369 72.8761 113.286 69.9863C114.204 67.0965 114.177 63.9894 113.209 61.1161C112.241 58.2427 110.383 55.7526 107.904 54.007Z" fill="white"/>
<path id="Vector_3" d="M99.6716 72.5339H48.2477C45.8655 72.5334 43.5431 71.7882 41.6054 70.4025C39.6677 69.0167 38.2117 67.0598 37.4413 64.8056C36.8481 66.5254 36.6749 68.3621 36.936 70.1624C37.1971 71.9628 37.885 73.6745 38.9423 75.1549C39.9996 76.6353 41.3956 77.8414 43.0138 78.6725C44.632 79.5036 46.4256 79.9357 48.2448 79.9326H99.6716C101.865 79.9392 104.03 79.4392 105.998 78.4716C107.966 77.5039 109.685 76.0947 111.019 74.3539C112.353 72.6131 113.267 70.5876 113.689 68.4355C114.112 66.2834 114.032 64.0627 113.455 61.9467C112.643 64.9821 110.852 67.6648 108.36 69.5789C105.868 71.4931 102.814 72.5317 99.6716 72.5339Z" fill="#DAEDF7"/>
<path id="Vector_4" d="M107.904 54.007C108.464 51.7198 108.301 49.3149 107.435 47.1248C106.57 44.9346 105.046 43.0673 103.073 41.781C101.1 40.4947 98.777 39.8528 96.4238 39.9441C94.0707 40.0355 91.804 40.8555 89.9371 42.2908C86.9115 38.721 82.8624 36.1666 78.3377 34.9731C73.8129 33.7796 69.0307 34.0046 64.638 35.6177C60.2453 37.2308 56.454 40.1541 53.777 43.9923C51.1 47.8305 49.6664 52.3982 49.6701 57.0778V57.2269C49.1951 57.1461 48.7154 57.0963 48.234 57.0778C46.7223 57.0605 45.2222 57.3433 43.8206 57.9099C42.419 58.4764 41.1437 59.3154 40.0686 60.3783C38.9935 61.4411 38.14 62.7067 37.5575 64.1018C36.975 65.4968 36.675 66.9936 36.675 68.5054C36.675 70.0171 36.975 71.5139 37.5575 72.9089C38.14 74.304 38.9935 75.5696 40.0686 76.6325C41.1437 77.6953 42.419 78.5343 43.8206 79.1009C45.2222 79.6674 46.7223 79.9502 48.234 79.933H99.6712C102.703 79.9374 105.658 78.9755 108.106 77.1869C110.554 75.3983 112.369 72.8761 113.286 69.9863C114.204 67.0965 114.177 63.9894 113.209 61.1161C112.241 58.2427 110.383 55.7526 107.904 54.007Z" stroke="#45413C" stroke-width="1.50643" stroke-linecap="round" stroke-linejoin="round"/>
<path id="Vector_5" opacity="0.15" d="M63.8054 120.218C63.8054 120.872 65.018 121.499 67.1763 121.962C69.3346 122.425 72.262 122.685 75.3143 122.685C78.3667 122.685 81.294 122.425 83.4523 121.962C85.6107 121.499 86.8232 120.872 86.8232 120.218C86.8232 119.564 85.6107 118.936 83.4523 118.474C81.294 118.011 78.3667 117.751 75.3143 117.751C72.262 117.751 69.3346 118.011 67.1763 118.474C65.018 118.936 63.8054 119.564 63.8054 120.218Z" fill="#45413C"/>
<path id="Vector_6" d="M75.3218 108.631C74.7918 108.632 74.2669 108.529 73.7774 108.326C73.2879 108.123 72.8436 107.824 72.4703 107.448L60.9599 95.9394C60.2034 95.184 59.778 94.1589 59.7773 93.0898C59.7766 92.0207 60.2007 90.9951 60.9561 90.2387C61.7116 89.4822 62.7367 89.0569 63.8058 89.0562C64.8749 89.0555 65.9004 89.4795 66.6569 90.235L70.4584 94.0365V65.957C70.4807 64.6836 71.0022 63.47 71.9106 62.5774C72.8189 61.6848 74.0415 61.1847 75.315 61.1847C76.5886 61.1847 77.8111 61.6848 78.7195 62.5774C79.6279 63.47 80.1494 64.6836 80.1717 65.957V94.0365L83.9717 90.235C84.7281 89.4785 85.7541 89.0535 86.8239 89.0535C87.8937 89.0535 88.9197 89.4785 89.6762 90.235C90.4326 90.9914 90.8576 92.0174 90.8576 93.0872C90.8576 94.157 90.4326 95.183 89.6762 95.9394L78.1658 107.448C77.7933 107.823 77.3502 108.121 76.862 108.324C76.3739 108.527 75.8504 108.631 75.3218 108.631Z" fill="#C8FFA1"/>
<path id="Vector_7" d="M75.322 61.8467C76.4121 61.8467 77.4575 62.2798 78.2283 63.0506C78.9992 63.8214 79.4322 64.8668 79.4322 65.9569V95.8365L84.5029 90.7658C85.1195 90.1492 85.9558 89.8028 86.8279 89.8028C87.7 89.8028 88.5363 90.1492 89.1529 90.7658C89.7696 91.3825 90.116 92.2188 90.116 93.0909C90.116 93.9629 89.7696 94.7993 89.1529 95.4159L77.6426 106.926C77.3377 107.232 76.9755 107.475 76.5766 107.641C76.1778 107.806 75.7501 107.892 75.3183 107.892C74.8864 107.892 74.4587 107.806 74.0599 107.641C73.661 107.475 73.2988 107.232 72.994 106.926L61.4836 95.4159C60.8669 94.7993 60.5205 93.9629 60.5205 93.0909C60.5205 92.2188 60.8669 91.3825 61.4836 90.7658C62.1002 90.1492 62.9366 89.8028 63.8086 89.8028C64.6807 89.8028 65.517 90.1492 66.1337 90.7658L71.2043 95.8365V65.9569C71.2043 65.4165 71.3109 64.8815 71.5179 64.3823C71.7249 63.8831 72.0284 63.4297 72.4108 63.0479C72.7933 62.6662 73.2473 62.3636 73.7468 62.1574C74.2463 61.9513 74.7816 61.8457 75.322 61.8467ZM75.322 60.3553C73.8367 60.3569 72.4127 60.9475 71.3623 61.9977C70.3119 63.0478 69.7209 64.4716 69.7189 65.9569V92.2348L67.1836 89.6995C66.7398 89.2557 66.2129 88.9037 65.6331 88.6635C65.0532 88.4233 64.4318 88.2997 63.8042 88.2997C63.1765 88.2997 62.5551 88.4233 61.9752 88.6635C61.3954 88.9037 60.8685 89.2557 60.4247 89.6995C59.9809 90.1433 59.6289 90.6702 59.3887 91.25C59.1485 91.8299 59.0249 92.4513 59.0249 93.0789C59.0249 93.7066 59.1485 94.328 59.3887 94.9079C59.6289 95.4877 59.9809 96.0146 60.4247 96.4584L71.9351 107.982C72.3785 108.427 72.9053 108.78 73.4853 109.021C74.0654 109.262 74.6872 109.386 75.3153 109.386C75.9433 109.386 76.5652 109.262 77.1453 109.021C77.7253 108.78 78.2521 108.427 78.6955 107.982L90.2044 96.4718C90.6481 96.028 91 95.5012 91.2401 94.9214C91.4802 94.3416 91.6037 93.7201 91.6036 93.0926C91.6036 92.465 91.4799 91.8436 91.2397 91.2639C90.9995 90.6841 90.6474 90.1574 90.2036 89.7137C89.7598 89.27 89.233 88.918 88.6532 88.6779C88.0734 88.4379 87.4519 88.3143 86.8244 88.3144C86.1968 88.3145 85.5754 88.4381 84.9957 88.6783C84.4159 88.9186 83.8892 89.2706 83.4455 89.7144L80.9101 92.2408V65.9569C80.9086 64.4741 80.3197 63.0523 79.2725 62.0025C78.2252 60.9527 76.8048 60.3605 75.322 60.3553Z" fill="#46B000"/>
</g>
</svg>
