<svg width="151" height="151" viewBox="0 0 151 151" fill="none" xmlns="http://www.w3.org/2000/svg">
<g id="Empty-Wallet-2--Streamline-Ux">
<path id="Vector" d="M15.6671 88.8228C15.6671 104.644 21.9521 119.818 33.1396 131.005C44.327 142.192 59.5004 148.478 75.3218 148.478C91.1432 148.478 106.317 142.192 117.504 131.005C128.692 119.818 134.977 104.644 134.977 88.8228C134.977 80.9888 133.434 73.2316 130.436 65.9939C127.438 58.7563 123.044 52.18 117.504 46.6406C111.965 41.1011 105.388 36.707 98.1507 33.709C90.9131 30.7111 83.1558 29.1681 75.3218 29.1681C67.4879 29.1681 59.7306 30.7111 52.493 33.709C45.2553 36.707 38.679 41.1011 33.1396 46.6406C27.6001 52.18 23.206 58.7563 20.2081 65.9939C17.2101 73.2316 15.6671 80.9888 15.6671 88.8228Z" fill="#DAEDF7" stroke="#DAEDF7" stroke-width="1.50643"/>
<path id="Vector_2" d="M63.5994 127.455V129.85" stroke="#E04122" stroke-width="1.50643" stroke-linecap="round" stroke-linejoin="round"/>
<path id="Vector_3" d="M85.6272 127.455V129.85" stroke="#E04122" stroke-width="1.50643" stroke-linecap="round" stroke-linejoin="round"/>
<path id="Vector_4" d="M120.78 6.8677C123.157 3.18999 122.104 2.3936 120.362 2.17139" stroke="#45413C" stroke-width="1.50643" stroke-linecap="round" stroke-linejoin="round"/>
<path id="Vector_5" d="M122.244 8.32024C125.918 5.94598 126.718 6.99889 126.936 8.73932" stroke="#45413C" stroke-width="1.50643" stroke-linecap="round" stroke-linejoin="round"/>
<path id="Vector_6" d="M114.03 10.6378C114.03 11.2201 114.145 11.7966 114.368 12.3346C114.59 12.8725 114.917 13.3613 115.329 13.773C115.74 14.1847 116.229 14.5113 116.767 14.7341C117.305 14.957 117.882 15.0717 118.464 15.0717C119.046 15.0717 119.623 14.957 120.161 14.7341C120.699 14.5113 121.187 14.1847 121.599 13.773C122.011 13.3613 122.337 12.8725 122.56 12.3346C122.783 11.7966 122.898 11.2201 122.898 10.6378C122.898 10.0556 122.783 9.479 122.56 8.94106C122.337 8.40312 122.011 7.91434 121.599 7.50262C121.187 7.0909 120.699 6.76431 120.161 6.54148C119.623 6.31866 119.046 6.20398 118.464 6.20398C117.882 6.20398 117.305 6.31866 116.767 6.54148C116.229 6.76431 115.74 7.0909 115.329 7.50262C114.917 7.91434 114.59 8.40312 114.368 8.94106C114.145 9.479 114.03 10.0556 114.03 10.6378Z" fill="#87898C" stroke="#45413C" stroke-width="1.50643" stroke-linecap="round" stroke-linejoin="round"/>
<path id="Vector_7" d="M111.003 24.4313C111.003 26.0775 111.657 27.6563 112.821 28.8204C113.985 29.9844 115.564 30.6384 117.21 30.6384C118.856 30.6384 120.435 29.9844 121.599 28.8204C122.763 27.6563 123.417 26.0775 123.417 24.4313C123.417 22.7851 122.763 21.2063 121.599 20.0423C120.435 18.8782 118.856 18.2242 117.21 18.2242C115.564 18.2242 113.985 18.8782 112.821 20.0423C111.657 21.2063 111.003 22.7851 111.003 24.4313Z" fill="white" stroke="#45413C" stroke-width="1.50643" stroke-linecap="round" stroke-linejoin="round"/>
<path id="Vector_8" d="M98.4634 11.8918C98.4634 13.538 99.1173 15.1168 100.281 16.2808C101.445 17.4449 103.024 18.0988 104.67 18.0988C106.317 18.0988 107.895 17.4449 109.06 16.2808C110.224 15.1168 110.878 13.538 110.878 11.8918C110.878 10.2455 110.224 8.66675 109.06 7.5027C107.895 6.33865 106.317 5.68469 104.67 5.68469C103.024 5.68469 101.445 6.33865 100.281 7.5027C99.1173 8.66675 98.4634 10.2455 98.4634 11.8918Z" fill="white" stroke="#45413C" stroke-width="1.50643" stroke-linecap="round" stroke-linejoin="round"/>
<path id="Vector_9" d="M114.702 23.1787C113.257 24.6224 108.026 25.6156 105.732 25.3233C105.24 25.2507 104.784 25.0214 104.432 24.6695C104.081 24.3176 103.852 23.8618 103.78 23.3696C103.481 21.0759 104.481 15.8442 105.924 14.4005C108.002 12.323 112.905 11.3492 115.329 13.7726C117.752 16.1961 116.781 21.0997 114.702 23.1787Z" fill="#FFE500" stroke="#45413C" stroke-width="1.50643" stroke-linecap="round" stroke-linejoin="round"/>
<path id="Vector_10" d="M107.382 13.3489L115.753 21.7199" stroke="#45413C" stroke-width="1.50643" stroke-linecap="round" stroke-linejoin="round"/>
<path id="Vector_11" d="M104.987 15.9709L113.131 24.1153" stroke="#45413C" stroke-width="1.50643" stroke-linecap="round" stroke-linejoin="round"/>
<path id="Vector_12" d="M101.57 26.7267C101.23 27.9973 100.619 29.1792 99.778 30.1908C98.9374 31.2024 97.8874 32.0196 96.7004 32.5863C94.3185 33.7013 91.7552 34.3782 89.1332 34.5847C78.2597 35.9105 67.2385 34.9396 56.2978 35.5228C51.5427 35.5438 46.8445 36.5598 42.5056 38.5055C38.9988 40.3049 36.1008 43.0991 34.1748 46.538C33.2117 48.1344 32.657 49.9436 32.5597 51.8055C32.6064 53.3688 33.029 54.8979 33.7917 56.2634C34.5544 57.6288 35.6347 58.7905 36.9413 59.6501C39.5817 61.3449 42.6435 62.2675 45.7807 62.3137C50.2887 62.6387 54.777 61.4574 58.5408 58.9551C59.4838 58.3857 60.291 57.6171 60.9059 56.7031C61.5208 55.7891 61.9286 54.7518 62.1007 53.6638C62.1162 52.5773 61.8354 51.5071 61.2883 50.5682C60.7412 49.6293 59.9486 48.8573 58.9957 48.3351C57.0644 47.3169 54.8575 46.9447 52.6991 47.2733C50.1069 47.5701 47.6267 48.4971 45.4753 49.9734C43.324 51.4497 41.5668 53.4303 40.3573 55.7423C39.1479 58.0542 38.523 60.6271 38.5371 63.2363C38.5513 65.8454 39.2041 68.4114 40.4386 70.7101C42.5966 74.7368 46.3593 77.6316 50.2324 80.0446" stroke="#ADC4D9" stroke-width="1.50643" stroke-linecap="round" stroke-linejoin="round"/>
<path id="Vector_13" opacity="0.15" d="M44.2402 138.281C44.2402 138.946 45.059 139.605 46.6499 140.219C48.2407 140.834 50.5725 141.392 53.512 141.862C56.4515 142.333 59.9412 142.706 63.7819 142.96C67.6225 143.215 71.7389 143.346 75.896 143.346C80.0531 143.346 84.1695 143.215 88.0102 142.96C91.8508 142.706 95.3405 142.333 98.28 141.862C101.22 141.392 103.551 140.834 105.142 140.219C106.733 139.605 107.552 138.946 107.552 138.281C107.552 137.616 106.733 136.957 105.142 136.343C103.551 135.728 101.22 135.17 98.28 134.7C95.3405 134.229 91.8508 133.856 88.0102 133.602C84.1695 133.347 80.0531 133.216 75.896 133.216C71.7389 133.216 67.6225 133.347 63.7819 133.602C59.9412 133.856 56.4515 134.229 53.512 134.7C50.5725 135.17 48.2407 135.728 46.6499 136.343C45.059 136.957 44.2402 137.616 44.2402 138.281Z" fill="#45413C"/>
<path id="Vector_14" d="M57.3151 84.5215H102.943V93.2475H57.3151V84.5215Z" fill="#E04122"/>
<path id="Vector_15" d="M102.739 95.0327C103.075 96.0349 103.246 97.0852 103.245 98.1422L101.719 116.018C107.317 109.056 108.812 101.83 108.351 90.2633C108.351 83.9205 103.968 78.7798 98.5616 78.7798H61.8531C56.6601 78.7798 52.4217 83.5313 52.0966 89.5296C53.5243 88.7575 55.1221 88.3541 56.7452 88.3559H57.3417C57.6654 87.2869 58.3125 86.3445 59.1938 85.6584C60.0752 84.9723 61.1475 84.5762 62.2632 84.5245H96.8823C98.5469 84.6424 100.104 85.3919 101.234 86.6198C102.364 87.8478 102.982 89.4612 102.961 91.1298C103.023 92.4352 102.947 93.7435 102.733 95.0327H102.739Z" fill="#FFE500" stroke="#45413C" stroke-width="1.50643" stroke-linecap="round" stroke-linejoin="round"/>
<path id="Vector_16" d="M79.587 73.8822C79.587 74.8503 79.2999 75.7966 78.762 76.6015C78.2242 77.4065 77.4598 78.0338 76.5654 78.4043C75.671 78.7748 74.6869 78.8717 73.7374 78.6828C72.7879 78.494 71.9158 78.0278 71.2312 77.3433C70.5467 76.6587 70.0805 75.7866 69.8917 74.8371C69.7028 73.8877 69.7997 72.9035 70.1702 72.0091C70.5407 71.1147 71.168 70.3503 71.9729 69.8124C72.7779 69.2746 73.7242 68.9875 74.6923 68.9875C75.3351 68.9874 75.9717 69.1138 76.5656 69.3597C77.1596 69.6056 77.6992 69.9662 78.1538 70.4207C78.6083 70.8753 78.9689 71.4149 79.2148 72.0089C79.4607 72.6028 79.5871 73.2394 79.587 73.8822Z" fill="#FFE500"/>
<path id="Vector_17" d="M74.692 72.1105C75.7169 72.1106 76.716 72.4323 77.5484 73.0303C78.3808 73.6283 79.0045 74.4725 79.3317 75.4438C79.5795 74.7076 79.6485 73.9229 79.5331 73.1548C79.4176 72.3866 79.121 71.657 78.6678 71.0261C78.2145 70.3953 77.6176 69.8814 76.9264 69.5269C76.2352 69.1724 75.4696 68.9875 74.6928 68.9875C73.916 68.9875 73.1503 69.1724 72.4591 69.5269C71.768 69.8814 71.1711 70.3953 70.7178 71.0261C70.2645 71.657 69.9679 72.3866 69.8525 73.1548C69.737 73.9229 69.806 74.7076 70.0539 75.4438C70.3808 74.4726 71.0042 73.6285 71.8364 73.0305C72.6685 72.4325 73.6673 72.1107 74.692 72.1105Z" fill="#FFFACF"/>
<path id="Vector_18" d="M79.587 73.8822C79.587 74.8503 79.2999 75.7966 78.762 76.6015C78.2242 77.4065 77.4598 78.0338 76.5654 78.4043C75.671 78.7748 74.6869 78.8717 73.7374 78.6828C72.7879 78.494 71.9158 78.0278 71.2312 77.3433C70.5467 76.6587 70.0805 75.7866 69.8917 74.8371C69.7028 73.8877 69.7997 72.9035 70.1702 72.0091C70.5407 71.1147 71.168 70.3503 71.9729 69.8124C72.7779 69.2746 73.7242 68.9875 74.6923 68.9875C75.3351 68.9874 75.9717 69.1138 76.5656 69.3597C77.1596 69.6056 77.6992 69.9662 78.1538 70.4207C78.6083 70.8753 78.9689 71.4149 79.2148 72.0089C79.4607 72.6028 79.5871 73.2394 79.587 73.8822Z" stroke="#45413C" stroke-width="1.50643" stroke-linecap="round" stroke-linejoin="round"/>
<path id="Vector_19" d="M89.3763 73.8822C89.3763 74.8503 89.0892 75.7966 88.5514 76.6015C88.0135 77.4065 87.2491 78.0338 86.3547 78.4043C85.4603 78.7748 84.4762 78.8717 83.5267 78.6828C82.5772 78.494 81.7051 78.0278 81.0205 77.3433C80.336 76.6587 79.8698 75.7866 79.681 74.8371C79.4921 73.8877 79.589 72.9035 79.9595 72.0091C80.33 71.1147 80.9573 70.3503 81.7623 69.8124C82.5672 69.2746 83.5135 68.9875 84.4816 68.9875C85.1244 68.9874 85.761 69.1138 86.3549 69.3597C86.9489 69.6056 87.4885 69.9662 87.9431 70.4207C88.3976 70.8753 88.7582 71.4149 89.0041 72.0089C89.25 72.6028 89.3765 73.2394 89.3763 73.8822Z" fill="#FFE500"/>
<path id="Vector_20" d="M84.4816 72.1108C85.5064 72.1107 86.5053 72.4324 87.3375 73.0305C88.1696 73.6285 88.793 74.4727 89.1197 75.444C89.368 74.7077 89.4374 73.923 89.3222 73.1546C89.207 72.3862 88.9105 71.6562 88.4573 71.0251C88.004 70.394 87.4071 69.8799 86.7157 69.5252C86.0244 69.1706 85.2586 68.9856 84.4816 68.9856C83.7046 68.9856 82.9388 69.1706 82.2474 69.5252C81.5561 69.8799 80.9592 70.394 80.5059 71.0251C80.0527 71.6562 79.7562 72.3862 79.641 73.1546C79.5258 73.923 79.5952 74.7077 79.8434 75.444C80.1703 74.4728 80.7938 73.6287 81.6259 73.0307C82.458 72.4327 83.4569 72.111 84.4816 72.1108Z" fill="#FFFACF"/>
<path id="Vector_21" d="M89.3763 73.8822C89.3763 74.8503 89.0892 75.7966 88.5514 76.6015C88.0135 77.4065 87.2491 78.0338 86.3547 78.4043C85.4603 78.7748 84.4762 78.8717 83.5267 78.6828C82.5772 78.494 81.7051 78.0278 81.0205 77.3433C80.336 76.6587 79.8698 75.7866 79.681 74.8371C79.4921 73.8877 79.589 72.9035 79.9595 72.0091C80.33 71.1147 80.9573 70.3503 81.7623 69.8124C82.5672 69.2746 83.5135 68.9875 84.4816 68.9875C85.1244 68.9874 85.761 69.1138 86.3549 69.3597C86.9489 69.6056 87.4885 69.9662 87.9431 70.4207C88.3976 70.8753 88.7582 71.4149 89.0041 72.0089C89.25 72.6028 89.3765 73.2394 89.3763 73.8822Z" stroke="#45413C" stroke-width="1.50643" stroke-linecap="round" stroke-linejoin="round"/>
<path id="Vector_22" d="M90.3249 137.3C101.51 137.3 110.587 133.806 110.587 122.616C110.587 111.173 98.3574 110.463 98.3574 98.1424C98.357 96.8446 97.8411 95.6 96.9233 94.6824C96.0054 93.7648 94.7606 93.2493 93.4627 93.2493H56.7452C55.4479 93.2493 54.2036 93.7643 53.2858 94.6813C52.368 95.5983 51.8518 96.8421 51.8506 98.1395C51.8506 110.637 39.6139 111.231 39.6139 122.613C39.6139 133.841 48.7112 137.297 59.9442 137.297L90.3249 137.3Z" fill="#FF6242"/>
<path id="Vector_23" d="M51.8506 98.1396C51.851 96.8417 52.3668 95.5971 53.2847 94.6795C54.2026 93.7619 55.4474 93.2464 56.7452 93.2464H93.4553C94.7532 93.2464 95.9979 93.7619 96.9158 94.6795C97.8337 95.5971 98.3495 96.8417 98.3499 98.1396C98.3469 100.256 98.78 102.35 99.6221 104.291C100.464 106.233 101.697 107.98 103.245 109.423V98.1396C103.244 95.5434 102.213 93.0537 100.377 91.2179C98.5412 89.3821 96.0514 88.3506 93.4553 88.3502H56.7452C55.4598 88.3502 54.1869 88.6034 52.9993 89.0954C51.8116 89.5874 50.7326 90.3085 49.8237 91.2175C48.9148 92.1266 48.1938 93.2058 47.702 94.3935C47.2102 95.5811 46.9572 96.8541 46.9574 98.1396V109.519C48.5121 108.061 49.7491 106.298 50.5911 104.34C51.4331 102.382 51.8618 100.271 51.8506 98.1396Z" fill="#FFE500" stroke="#45413C" stroke-width="1.50643" stroke-linecap="round" stroke-linejoin="round"/>
<path id="Vector_24" d="M64.087 96.9194V99.3146" stroke="#E04122" stroke-width="1.50643" stroke-linecap="round" stroke-linejoin="round"/>
<path id="Vector_25" d="M64.087 104.103V106.498" stroke="#E04122" stroke-width="1.50643" stroke-linecap="round" stroke-linejoin="round"/>
<path id="Vector_26" d="M64.087 111.29V113.685" stroke="#E04122" stroke-width="1.50643" stroke-linecap="round" stroke-linejoin="round"/>
<path id="Vector_27" d="M64.087 118.474V120.871" stroke="#E04122" stroke-width="1.50643" stroke-linecap="round" stroke-linejoin="round"/>
<path id="Vector_28" d="M64.087 125.66V128.055" stroke="#E04122" stroke-width="1.50643" stroke-linecap="round" stroke-linejoin="round"/>
<path id="Vector_29" d="M86.1149 96.9194V99.3146" stroke="#E04122" stroke-width="1.50643" stroke-linecap="round" stroke-linejoin="round"/>
<path id="Vector_30" d="M86.1149 104.103V106.498" stroke="#E04122" stroke-width="1.50643" stroke-linecap="round" stroke-linejoin="round"/>
<path id="Vector_31" d="M86.1149 111.29V113.685" stroke="#E04122" stroke-width="1.50643" stroke-linecap="round" stroke-linejoin="round"/>
<path id="Vector_32" d="M86.1149 118.474V120.871" stroke="#E04122" stroke-width="1.50643" stroke-linecap="round" stroke-linejoin="round"/>
<path id="Vector_33" d="M86.1149 125.66V128.055" stroke="#E04122" stroke-width="1.50643" stroke-linecap="round" stroke-linejoin="round"/>
<path id="Vector_34" d="M40.4238 117.985C42.8637 125.143 50.674 127.51 59.9518 127.51H90.325C99.5715 127.51 107.359 125.112 109.789 117.965C110.333 119.455 110.604 121.031 110.587 122.617C110.587 133.802 101.515 137.301 90.325 137.301H59.9443C48.7173 137.301 39.614 133.846 39.614 122.617C39.5987 121.036 39.8732 119.466 40.4238 117.985Z" fill="#E04122"/>
<path id="Vector_35" d="M90.3249 137.3C101.51 137.3 110.587 133.806 110.587 122.616C110.587 111.173 98.3574 110.463 98.3574 98.1424C98.357 96.8446 97.8411 95.6 96.9233 94.6824C96.0054 93.7648 94.7606 93.2493 93.4627 93.2493H56.7452C55.4479 93.2493 54.2036 93.7643 53.2858 94.6813C52.368 95.5983 51.8518 96.8421 51.8506 98.1395C51.8506 110.637 39.6139 111.231 39.6139 122.613C39.6139 133.841 48.7112 137.297 59.9442 137.297L90.3249 137.3Z" stroke="#45413C" stroke-width="1.50643" stroke-linecap="round" stroke-linejoin="round"/>
</g>
</svg>
