<svg width="151" height="151" viewBox="0 0 151 151" fill="none" xmlns="http://www.w3.org/2000/svg">
<g id="Fast-Email--Streamline-Ux">
<path id="Vector" d="M14.0232 75.3212C14.0232 91.1426 20.3082 106.316 31.4957 117.503C42.6831 128.691 57.8565 134.976 73.6779 134.976C89.4993 134.976 104.673 128.691 115.86 117.503C127.048 106.316 133.333 91.1426 133.333 75.3212C133.333 59.4998 127.048 44.3264 115.86 33.139C104.673 21.9515 89.4993 15.6665 73.6779 15.6665C57.8565 15.6665 42.6831 21.9515 31.4957 33.139C20.3082 44.3264 14.0232 59.4998 14.0232 75.3212Z" fill="#DAEDF7" stroke="#DAEDF7" stroke-width="1.50643"/>
<path id="Vector_2" d="M139.237 59.917L134.306 29.7198C134.206 29.2097 133.993 28.7284 133.683 28.311C133.373 27.8935 132.974 27.5504 132.515 27.3066C132.056 27.0627 131.548 26.9243 131.029 26.9014C130.51 26.8784 129.992 26.9716 129.513 27.174L82.9269 46.866C82.1864 47.1789 81.5762 47.7374 81.1992 48.4474C80.8222 49.1575 80.7013 49.9757 80.8569 50.7645L85.7874 80.9617C85.8878 81.4717 86.1006 81.953 86.4104 82.3705C86.7203 82.7879 87.1192 83.131 87.5784 83.3749C88.0375 83.6187 88.5452 83.7572 89.0645 83.7801C89.5839 83.803 90.1018 83.7099 90.5806 83.5074L137.161 63.8214C137.903 63.5093 138.516 62.9503 138.894 62.2389C139.272 61.5275 139.393 60.7073 139.237 59.917Z" fill="white"/>
<path id="Vector_3" d="M132.515 27.3066C132.056 27.0628 131.548 26.9243 131.029 26.9014C130.51 26.8784 129.992 26.9715 129.513 27.1739L82.9269 46.8659C82.1864 47.1788 81.5762 47.7373 81.1992 48.4473C80.8222 49.1574 80.7013 49.9756 80.8569 50.7643L81.0314 51.8322L105.49 58.9997C107.293 59.4378 109.184 59.3472 110.936 58.7389C112.689 58.1306 114.229 57.0303 115.373 55.5695L134.145 29.1559C133.844 28.3619 133.265 27.7045 132.515 27.3066Z" fill="#E0E0E0"/>
<path id="Vector_4" d="M139.237 59.917C139.393 60.7057 139.272 61.524 138.895 62.234C138.518 62.9441 137.908 63.5026 137.167 63.8154L90.5871 83.5015C90.1083 83.7039 89.5903 83.7971 89.071 83.7741C88.5516 83.7512 88.0439 83.6128 87.5848 83.3689C87.1257 83.1251 86.7267 82.782 86.4169 82.3645C86.1071 81.9471 85.8942 81.4658 85.7938 80.9557L80.8634 50.7645C80.7073 49.9765 80.8273 49.1587 81.2032 48.4488C81.5791 47.7388 82.188 47.1799 82.9274 46.866L129.507 27.18C129.986 26.9775 130.504 26.8844 131.023 26.9073C131.543 26.9303 132.05 27.0687 132.51 27.3125C132.969 27.5564 133.368 27.8995 133.677 28.317C133.987 28.7344 134.2 29.2157 134.301 29.7257L139.237 59.917Z" stroke="#45413C" stroke-width="1.50643" stroke-linecap="round" stroke-linejoin="round"/>
<path id="Vector_5" d="M106.146 55.4981C107.452 55.8153 108.822 55.7492 110.092 55.3077C111.361 54.8663 112.477 54.0682 113.304 53.009L131.769 27.016C131.02 26.8172 130.226 26.8728 129.513 27.1741L82.9268 46.8661C82.2662 47.1448 81.7074 47.6202 81.3265 48.2277L106.146 55.4981Z" fill="white" stroke="#45413C" stroke-width="1.50643" stroke-linecap="round" stroke-linejoin="round"/>
<path id="Vector_6" d="M43.5717 84.9852L73.4572 72.3503" stroke="#87898C" stroke-width="1.50643" stroke-linecap="round" stroke-linejoin="round"/>
<path id="Vector_7" d="M42.0784 95.1106L73.9847 81.6212" stroke="#87898C" stroke-width="1.50643" stroke-linecap="round" stroke-linejoin="round"/>
<path id="Vector_8" d="M34.8929 98.1464L38.1158 96.7848" stroke="#87898C" stroke-width="1.50643" stroke-linecap="round" stroke-linejoin="round"/>
<path id="Vector_9" d="M30.0607 100.19L30.866 99.85" stroke="#87898C" stroke-width="1.50643" stroke-linecap="round" stroke-linejoin="round"/>
<path id="Vector_10" d="M31.4885 90.0919L32.2939 89.7518" stroke="#87898C" stroke-width="1.50643" stroke-linecap="round" stroke-linejoin="round"/>
<path id="Vector_11" d="M34.5276 79.3139L35.3329 78.9739" stroke="#87898C" stroke-width="1.50643" stroke-linecap="round" stroke-linejoin="round"/>
<path id="Vector_12" d="M36.3218 88.0488L39.5431 86.6871" stroke="#87898C" stroke-width="1.50643" stroke-linecap="round" stroke-linejoin="round"/>
<path id="Vector_13" d="M46.6091 74.2059L72.6141 63.2115" stroke="#87898C" stroke-width="1.50643" stroke-linecap="round" stroke-linejoin="round"/>
<path id="Vector_14" d="M39.3597 77.2707L42.5826 75.9091" stroke="#87898C" stroke-width="1.50643" stroke-linecap="round" stroke-linejoin="round"/>
<g id="Vector_15">
<path d="M101.268 54.0695L87.5847 83.3748L101.268 54.0695Z" fill="#F0D3A8"/>
<path d="M101.268 54.0695L87.5847 83.3748" stroke="#45413C" stroke-width="1.50643" stroke-linecap="round" stroke-linejoin="round"/>
</g>
<g id="Vector_16">
<path d="M116.095 49.0808L139.26 61.1296L116.095 49.0808Z" fill="#F0D3A8"/>
<path d="M116.095 49.0808L139.26 61.1296" stroke="#45413C" stroke-width="1.50643" stroke-linecap="round" stroke-linejoin="round"/>
</g>
<path id="Vector_17" d="M69.1528 52.5187L66.6264 37.0487C66.5753 36.7873 66.4666 36.5405 66.308 36.3264C66.1495 36.1124 65.9451 35.9364 65.7099 35.8113C65.4747 35.6863 65.2145 35.6153 64.9484 35.6037C64.6823 35.592 64.4169 35.6398 64.1716 35.7438L40.3097 45.8329C39.9301 45.9929 39.6174 46.2789 39.4242 46.6427C39.2311 47.0065 39.1693 47.4258 39.2493 47.8298L41.7653 63.3013C41.8164 63.5628 41.9254 63.8096 42.0841 64.0236C42.2428 64.2377 42.4473 64.4136 42.6827 64.5385C42.9181 64.6634 43.1784 64.7342 43.4446 64.7456C43.7109 64.7571 43.9763 64.709 44.2216 64.6047L68.0834 54.5171C68.465 54.3586 68.7799 54.073 68.9748 53.7088C69.1697 53.3445 69.2326 52.924 69.1528 52.5187Z" fill="#B8ECFF"/>
<path id="Vector_18" d="M65.7092 35.8117C65.4741 35.6867 65.2141 35.6156 64.9481 35.6037C64.6821 35.5918 64.4168 35.6395 64.1716 35.7431L40.3097 45.8322C39.9301 45.9922 39.6174 46.2783 39.4242 46.6421C39.2311 47.0059 39.1693 47.4251 39.2493 47.8292L39.3388 48.3765L51.8663 52.0498C52.7914 52.2744 53.7616 52.2277 54.6608 51.9153C55.5601 51.603 56.3503 51.0382 56.937 50.2885L66.5473 36.7588C66.3925 36.3516 66.0945 36.0149 65.7092 35.8117Z" fill="#4ACFFF"/>
<path id="Vector_19" d="M69.1528 52.5187C69.2332 52.923 69.1717 53.3426 68.9785 53.7067C68.7853 54.0708 68.4723 54.3571 68.0924 54.5171L44.2306 64.6047C43.9849 64.7106 43.7186 64.7601 43.4512 64.7494C43.1839 64.7388 42.9224 64.6683 42.6858 64.5433C42.4493 64.4182 42.2439 64.2418 42.0846 64.0268C41.9253 63.8119 41.8162 63.5639 41.7653 63.3013L39.2464 47.8298C39.1664 47.4258 39.2281 47.0065 39.4213 46.6427C39.6145 46.2789 39.9272 45.9929 40.3068 45.8329L64.1687 35.7438C64.4139 35.6398 64.6793 35.592 64.9455 35.6037C65.2116 35.6153 65.4718 35.6863 65.707 35.8113C65.9422 35.9364 66.1466 36.1124 66.3051 36.3264C66.4637 36.5405 66.5724 36.7873 66.6234 37.0487L69.1528 52.5187Z" stroke="#00AED9" stroke-width="1.50643" stroke-linecap="round" stroke-linejoin="round"/>
<path id="Vector_20" d="M52.2049 50.2556C52.8742 50.4183 53.5762 50.3843 54.2267 50.1579C54.8772 49.9314 55.4485 49.5221 55.8722 48.979L65.3289 35.6626C64.9454 35.5605 64.5388 35.5889 64.1731 35.7431L40.3112 45.8322C39.9726 45.9752 39.6862 46.2188 39.491 46.5302L52.2049 50.2556Z" stroke="#00AED9" stroke-width="1.50643" stroke-linecap="round" stroke-linejoin="round"/>
<path id="Vector_21" d="M49.7009 49.5239L42.6899 64.5375" stroke="#00AED9" stroke-width="1.50643" stroke-linecap="round" stroke-linejoin="round"/>
<path id="Vector_22" d="M57.2965 46.9677L69.1648 53.1404" stroke="#00AED9" stroke-width="1.50643" stroke-linecap="round" stroke-linejoin="round"/>
<path id="Vector_23" d="M11.3383 72.5L12.0258 72.2092" stroke="#00AED9" stroke-width="1.50643" stroke-linecap="round" stroke-linejoin="round"/>
<path id="Vector_24" d="M13.9307 63.3084L14.6167 63.0176" stroke="#00AED9" stroke-width="1.50643" stroke-linecap="round" stroke-linejoin="round"/>
<path id="Vector_25" d="M21.6409 68.1437L36.0087 62.0693" stroke="#00AED9" stroke-width="1.50643" stroke-linecap="round" stroke-linejoin="round"/>
<path id="Vector_26" d="M15.4595 70.7564L18.2081 69.5961" stroke="#00AED9" stroke-width="1.50643" stroke-linecap="round" stroke-linejoin="round"/>
<path id="Vector_27" d="M24.2328 58.9521L34.5352 54.5973" stroke="#00AED9" stroke-width="1.50643" stroke-linecap="round" stroke-linejoin="round"/>
<path id="Vector_28" d="M18.0509 61.5666L20.798 60.4048" stroke="#00AED9" stroke-width="1.50643" stroke-linecap="round" stroke-linejoin="round"/>
<path id="Vector_29" d="M103.528 106.044L101.001 90.5738C100.95 90.3122 100.841 90.0652 100.683 89.851C100.524 89.6368 100.32 89.4607 100.084 89.3357C99.8488 89.2106 99.5884 89.1397 99.3221 89.1281C99.0558 89.1166 98.7902 89.1647 98.5449 89.2689L74.683 99.358C74.3034 99.518 73.9907 99.804 73.7975 100.168C73.6043 100.532 73.5426 100.951 73.6226 101.355L76.146 116.826C76.1979 117.087 76.3074 117.334 76.4664 117.547C76.6255 117.76 76.8301 117.935 77.0654 118.06C77.3007 118.184 77.5607 118.254 77.8266 118.265C78.0925 118.276 78.3575 118.228 78.6023 118.124L102.464 108.036C102.843 107.877 103.156 107.592 103.35 107.229C103.544 106.866 103.606 106.448 103.528 106.044Z" fill="#B8ECFF"/>
<path id="Vector_30" d="M100.077 89.3402C99.8423 89.2148 99.582 89.1436 99.3157 89.1318C99.0494 89.1199 98.7839 89.1677 98.5384 89.2716L74.6765 99.3607C74.297 99.5207 73.9842 99.8067 73.791 100.17C73.5979 100.534 73.5361 100.954 73.6162 101.358L73.7056 101.905L86.2331 105.578C87.1582 105.803 88.1285 105.756 89.0278 105.444C89.927 105.132 90.7173 104.567 91.3038 103.817L100.914 90.2872C100.76 89.8803 100.462 89.5436 100.077 89.3402Z" fill="#4ACFFF"/>
<path id="Vector_31" d="M103.528 106.044C103.608 106.448 103.546 106.868 103.353 107.232C103.16 107.596 102.847 107.882 102.467 108.042L78.6024 118.124C78.3571 118.228 78.0917 118.276 77.8255 118.265C77.5592 118.253 77.2989 118.183 77.0635 118.058C76.8281 117.933 76.6236 117.757 76.4649 117.543C76.3062 117.329 76.1972 117.082 76.1461 116.82L73.6197 101.355C73.5396 100.951 73.6014 100.532 73.7946 100.168C73.9878 99.804 74.3005 99.518 74.6801 99.358L98.5419 89.2689C98.7873 89.1647 99.0528 89.1166 99.3192 89.1281C99.5855 89.1397 99.8459 89.2106 100.081 89.3357C100.317 89.4607 100.521 89.6368 100.68 89.851C100.838 90.0652 100.947 90.3122 100.998 90.5738L103.528 106.044Z" stroke="#00AED9" stroke-width="1.50643" stroke-linecap="round" stroke-linejoin="round"/>
<path id="Vector_32" d="M86.5733 103.781C87.2416 103.943 87.9423 103.908 88.5916 103.682C89.2409 103.456 89.8113 103.048 90.2346 102.506L99.6944 89.1881C99.3108 89.0861 98.9042 89.1144 98.5386 89.2686L74.6767 99.3578C74.3386 99.5009 74.0528 99.7446 73.8579 100.056L86.5733 103.781Z" stroke="#00AED9" stroke-width="1.50643" stroke-linecap="round" stroke-linejoin="round"/>
<path id="Vector_33" d="M84.0742 103.049L77.0632 118.063" stroke="#00AED9" stroke-width="1.50643" stroke-linecap="round" stroke-linejoin="round"/>
<path id="Vector_34" d="M91.6708 100.493L103.539 106.665" stroke="#00AED9" stroke-width="1.50643" stroke-linecap="round" stroke-linejoin="round"/>
<path id="Vector_35" d="M45.713 126.025L46.399 125.734" stroke="#00AED9" stroke-width="1.50643" stroke-linecap="round" stroke-linejoin="round"/>
<path id="Vector_36" d="M48.304 116.834L48.9915 116.543" stroke="#00AED9" stroke-width="1.50643" stroke-linecap="round" stroke-linejoin="round"/>
<path id="Vector_37" d="M56.0156 121.669L70.3835 115.594" stroke="#00AED9" stroke-width="1.50643" stroke-linecap="round" stroke-linejoin="round"/>
<path id="Vector_38" d="M49.8337 124.283L52.5808 123.122" stroke="#00AED9" stroke-width="1.50643" stroke-linecap="round" stroke-linejoin="round"/>
<path id="Vector_39" d="M58.6061 112.477L68.9085 108.122" stroke="#00AED9" stroke-width="1.50643" stroke-linecap="round" stroke-linejoin="round"/>
<path id="Vector_40" d="M52.4242 115.092L55.1713 113.93" stroke="#00AED9" stroke-width="1.50643" stroke-linecap="round" stroke-linejoin="round"/>
</g>
</svg>
