<svg width="151" height="151" viewBox="0 0 151 151" fill="none" xmlns="http://www.w3.org/2000/svg">
<g id="Fingerprint-Passcode--Streamline-Ux">
<path id="Vector" d="M15.6672 75.3212C15.6672 91.1426 21.9523 106.316 33.1397 117.503C44.3271 128.691 59.5005 134.976 75.322 134.976C91.1434 134.976 106.317 128.691 117.504 117.503C128.692 106.316 134.977 91.1426 134.977 75.3212C134.977 67.4873 133.434 59.73 130.436 52.4924C127.438 45.2547 123.044 38.6784 117.504 33.139C111.965 27.5995 105.388 23.2054 98.1508 20.2074C90.9132 17.2095 83.1559 15.6665 75.322 15.6665C67.488 15.6665 59.7307 17.2095 52.4931 20.2074C45.2554 23.2054 38.6792 27.5995 33.1397 33.139C27.6002 38.6784 23.2061 45.2547 20.2082 52.4924C17.2103 59.73 15.6672 67.4873 15.6672 75.3212Z" fill="#DAEDF7" stroke="#DAEDF7" stroke-width="1.50643"/>
<path id="Vector_2" d="M76.2705 58.1868C76.2674 61.6919 75.4855 65.1526 73.9811 68.3185C72.4768 71.4845 70.2877 74.2765 67.5722 76.4928C64.8566 78.7091 61.6825 80.2943 58.2793 81.1336C54.8761 81.973 51.329 82.0456 47.8943 81.3462" stroke="#45413C" stroke-width="1.50643" stroke-linecap="round" stroke-linejoin="round"/>
<path id="Vector_3" d="M47.9076 69.5352V58.1874C47.9076 50.6651 50.8958 43.4509 56.2149 38.1319C61.5339 32.8128 68.7481 29.8246 76.2704 29.8246C79.9951 29.8244 83.6834 30.5579 87.1247 31.9832C90.5659 33.4085 93.6927 35.4977 96.3264 38.1314C98.9602 40.7652 101.049 43.892 102.475 47.3332C103.9 50.7744 104.633 54.4627 104.633 58.1874C104.495 66.429 102.389 74.5182 98.4903 81.7809" stroke="#45413C" stroke-width="1.50643" stroke-linecap="round" stroke-linejoin="round"/>
<path id="Vector_4" d="M87.8613 78.5282C92.9144 81.5109 98.8933 82.5156 104.644 81.3484" stroke="#45413C" stroke-width="1.50643" stroke-linecap="round" stroke-linejoin="round"/>
<path id="Vector_5" d="M84.7179 83.2584C89.2951 86.0383 94.5493 87.5042 99.9045 87.4954C101.316 87.4967 102.726 87.397 104.124 87.1971" stroke="#45413C" stroke-width="1.50643" stroke-linecap="round" stroke-linejoin="round"/>
<path id="Vector_6" d="M80.8654 87.5358C86.5312 91.2221 93.1476 93.1794 99.9072 93.1687C100.713 93.1687 101.514 93.1413 102.31 93.0866" stroke="#45413C" stroke-width="1.50643" stroke-linecap="round" stroke-linejoin="round"/>
<path id="Vector_7" d="M76.2707 97.8785C70.5331 100.934 64.2301 102.781 57.7509 103.306" stroke="#45413C" stroke-width="1.50643" stroke-linecap="round" stroke-linejoin="round"/>
<path id="Vector_8" d="M76.2703 97.8785C82.0083 100.934 88.3118 102.781 94.7916 103.306" stroke="#45413C" stroke-width="1.50643" stroke-linecap="round" stroke-linejoin="round"/>
<path id="Vector_9" d="M87.5182 107.869C83.6406 107.226 79.8608 106.091 76.2703 104.491C72.6829 106.09 68.9061 107.225 65.0314 107.869" stroke="#45413C" stroke-width="1.50643" stroke-linecap="round" stroke-linejoin="round"/>
<path id="Vector_10" d="M72.4897 110.185H80.0525" stroke="#45413C" stroke-width="1.50643" stroke-linecap="round" stroke-linejoin="round"/>
<path id="Vector_11" d="M53.5806 70.1599V58.1872C53.5821 52.1704 55.9733 46.4005 60.2282 42.1465C64.4832 37.8924 70.2535 35.5023 76.2702 35.502C82.2873 35.502 88.058 37.8918 92.3132 42.1459C96.5685 46.4001 98.9598 52.1701 98.9614 58.1872C98.8096 66.1041 96.6211 73.8486 92.6067 80.674" stroke="#45413C" stroke-width="1.50643" stroke-linecap="round" stroke-linejoin="round"/>
<path id="Vector_12" d="M59.2528 68.546V58.1869C59.2528 53.6735 61.0458 49.3449 64.2373 46.1534C67.4288 42.9619 71.7574 41.1689 76.2708 41.1689C80.7843 41.1689 85.1129 42.9619 88.3044 46.1534C91.4959 49.3449 93.2888 53.6735 93.2888 58.1869C92.7937 79.9296 77.6011 97.4547 53.5483 98.7969" stroke="#45413C" stroke-width="1.50643" stroke-linecap="round" stroke-linejoin="round"/>
<path id="Vector_13" d="M76.254 91.3075C82.9751 95.876 90.8414 98.4706 98.9616 98.7971" stroke="#45413C" stroke-width="1.50643" stroke-linecap="round" stroke-linejoin="round"/>
<path id="Vector_14" d="M47.9076 69.5346C49.7756 70.3114 51.8065 70.6154 53.8201 70.4194C55.8337 70.2235 57.7678 69.5338 59.4511 68.4114C61.1343 67.289 62.5146 65.7686 63.4695 63.985C64.4245 62.2015 64.9246 60.2099 64.9256 58.1867C64.9248 56.6964 65.2177 55.2205 65.7875 53.8434C66.3572 52.4663 67.1928 51.215 68.2463 50.1609C69.2999 49.1068 70.5508 48.2706 71.9276 47.7001C73.3044 47.1296 74.7801 46.8359 76.2704 46.8359C79.2794 46.8359 82.1652 48.0311 84.293 50.1587C86.4208 52.2862 87.6164 55.1718 87.6168 58.1808C87.6173 62.7751 86.713 67.3245 84.9553 71.5692C83.1976 75.814 80.621 79.6709 77.3726 82.9199C74.1242 86.1688 70.2677 88.7461 66.0232 90.5045C61.7788 92.2629 57.2295 93.1681 52.6352 93.1683C51.8284 93.1683 51.026 93.1399 50.2326 93.0863" stroke="#45413C" stroke-width="1.50643" stroke-linecap="round" stroke-linejoin="round"/>
<path id="Vector_15" d="M47.9868 75.542C50.6484 76.2526 53.4377 76.3419 56.1393 75.8031C58.8409 75.2643 61.3826 74.1118 63.5679 72.4345C65.7533 70.7572 67.5239 68.6001 68.743 66.1297C69.9621 63.6593 70.5971 60.9418 70.5989 58.187C70.5989 56.6839 71.196 55.2425 72.2588 54.1797C73.3216 53.1169 74.7631 52.5198 76.2661 52.5198C77.7692 52.5198 79.2106 53.1169 80.2735 54.1797C81.3363 55.2425 81.9333 56.6839 81.9333 58.187C81.9297 62.3914 81.0223 66.5459 79.2726 70.369C77.5229 74.1921 74.9719 77.5943 71.7923 80.3452C68.6127 83.0961 64.8789 85.1314 60.8439 86.313C56.809 87.4947 52.5671 87.7952 48.4059 87.1941" stroke="#45413C" stroke-width="1.50643" stroke-linecap="round" stroke-linejoin="round"/>
<path id="Vector_16" d="M54.847 121.584C54.847 122.262 57.0045 122.913 60.8449 123.393C64.6853 123.873 69.8939 124.143 75.325 124.143C80.7561 124.143 85.9648 123.873 89.8051 123.393C93.6455 122.913 95.803 122.262 95.803 121.584C95.803 120.905 93.6455 120.254 89.8051 119.774C85.9648 119.294 80.7561 119.025 75.325 119.025C69.8939 119.025 64.6853 119.294 60.8449 119.774C57.0045 120.254 54.847 120.905 54.847 121.584Z" fill="#45413C"/>
<path id="Vector_17" d="M30.2363 58.1868H121.944V83.713H30.2363V58.1868Z" fill="white" stroke="#45413C" stroke-width="1.50643" stroke-linecap="round" stroke-linejoin="round"/>
<path id="Vector_18" d="M57.1806 78.2411C56.877 78.2403 56.586 78.1192 56.3716 77.9042C56.1572 77.6892 56.0368 77.3979 56.0368 77.0943V75.0958C56.0369 74.9587 55.9992 74.8242 55.9278 74.7071C55.8564 74.5901 55.7542 74.4949 55.6322 74.4322C55.5103 74.3694 55.3735 74.3415 55.2367 74.3515C55.0999 74.3615 54.9686 74.409 54.8571 74.4889L53.2315 75.6521C53.1095 75.7446 52.9702 75.8117 52.8218 75.8494C52.6734 75.8872 52.5189 75.8948 52.3676 75.8718C52.2162 75.8488 52.071 75.7957 51.9405 75.7156C51.81 75.6355 51.6969 75.5301 51.6078 75.4056C51.5188 75.281 51.4556 75.1399 51.422 74.9905C51.3885 74.8411 51.3852 74.6865 51.4124 74.5358C51.4396 74.3852 51.4968 74.2415 51.5805 74.1133C51.6642 73.9851 51.7727 73.8749 51.8997 73.7894L54.362 72.0296C54.4589 71.9607 54.538 71.8695 54.5925 71.7638C54.6471 71.6581 54.6755 71.5408 54.6755 71.4219C54.6755 71.3029 54.6471 71.1856 54.5925 71.0799C54.538 70.9742 54.4589 70.8831 54.362 70.8141L51.9072 69.0573C51.7802 68.9718 51.6716 68.8616 51.5879 68.7334C51.5042 68.6052 51.4471 68.4615 51.4199 68.3109C51.3926 68.1602 51.3959 68.0056 51.4295 67.8562C51.463 67.7068 51.5262 67.5657 51.6153 67.4411C51.7043 67.3166 51.8174 67.2112 51.9479 67.1311C52.0784 67.051 52.2237 66.9979 52.375 66.9749C52.5264 66.9519 52.6809 66.9595 52.8292 66.9972C52.9776 67.035 53.1169 67.1021 53.2389 67.1946L54.8645 68.3564C54.976 68.4362 55.1074 68.4837 55.2442 68.4937C55.3809 68.5037 55.5178 68.4758 55.6397 68.413C55.7616 68.3503 55.8639 68.2552 55.9353 68.1381C56.0066 68.021 56.0443 67.8865 56.0442 67.7494V65.7494C56.0387 65.5956 56.0642 65.4423 56.1192 65.2986C56.1742 65.1549 56.2576 65.0237 56.3645 64.913C56.4713 64.8022 56.5994 64.7141 56.741 64.6539C56.8826 64.5938 57.0349 64.5627 57.1888 64.5627C57.3427 64.5627 57.495 64.5938 57.6367 64.6539C57.7783 64.7141 57.9064 64.8022 58.0132 64.913C58.1201 65.0237 58.2035 65.1549 58.2585 65.2986C58.3135 65.4423 58.339 65.5956 58.3335 65.7494V67.7494C58.3335 67.9471 58.412 68.1368 58.5519 68.2766C58.6917 68.4165 58.8814 68.495 59.0791 68.495C59.2346 68.4946 59.3862 68.4462 59.5131 68.3564L61.1387 67.1946C61.3319 67.055 61.5641 66.9799 61.8024 66.9798C61.9848 66.9798 62.1646 67.0232 62.327 67.1065C62.4893 67.1897 62.6295 67.3104 62.736 67.4585C62.8236 67.5809 62.8862 67.7194 62.9203 67.866C62.9544 68.0126 62.9593 68.1645 62.9346 68.3129C62.91 68.4614 62.8563 68.6036 62.7766 68.7313C62.697 68.859 62.593 68.9698 62.4705 69.0573L60.0083 70.8141C59.9113 70.8831 59.8323 70.9742 59.7777 71.0799C59.7231 71.1856 59.6947 71.3029 59.6947 71.4219C59.6947 71.5408 59.7231 71.6581 59.7777 71.7638C59.8323 71.8695 59.9113 71.9607 60.0083 72.0296L62.4705 73.7894C62.7082 73.9696 62.8662 74.2353 62.9109 74.5302C62.9557 74.825 62.8837 75.1257 62.7103 75.3683C62.5368 75.6109 62.2756 75.7763 61.9821 75.8293C61.6887 75.8823 61.3861 75.8187 61.1387 75.6521L59.5131 74.4889C59.3862 74.399 59.2346 74.3506 59.0791 74.3502C58.8814 74.3502 58.6917 74.4287 58.5519 74.5686C58.412 74.7084 58.3335 74.8981 58.3335 75.0958V77.0943C58.3335 77.2454 58.3036 77.395 58.2456 77.5345C58.1876 77.6741 58.1026 77.8008 57.9954 77.9073C57.8883 78.0139 57.7612 78.0983 57.6214 78.1556C57.4815 78.2128 57.3317 78.2419 57.1806 78.2411Z" fill="#45413C"/>
<path id="Vector_19" d="M57.1809 65.3516C57.2866 65.3516 57.3881 65.3935 57.463 65.4681C57.5379 65.5428 57.5802 65.644 57.5806 65.7498V67.7482C57.5807 68.0223 57.6563 68.291 57.7992 68.5249C57.9421 68.7588 58.1466 68.9488 58.3904 69.0741C58.6009 69.1833 58.8347 69.2401 59.0719 69.2396C59.3831 69.2399 59.6866 69.143 59.9399 68.9622L61.5655 67.8004C61.6322 67.7518 61.7126 67.7256 61.7952 67.7259C61.88 67.7255 61.9627 67.7521 62.0314 67.8019C62.1 67.8517 62.1511 67.922 62.1772 68.0027C62.2032 68.0834 62.203 68.1703 62.1764 68.2508C62.1498 68.3313 62.0983 68.4013 62.0293 68.4507L59.5686 70.209C59.3752 70.3469 59.2176 70.5291 59.1089 70.7402C59.0002 70.9514 58.9435 71.1855 58.9435 71.423C58.9435 71.6605 59.0002 71.8945 59.1089 72.1057C59.2176 72.3168 59.3752 72.499 59.5686 72.6369L62.0308 74.3953C62.0998 74.4446 62.1513 74.5146 62.1779 74.5951C62.2045 74.6756 62.2047 74.7625 62.1787 74.8432C62.1526 74.9239 62.1015 74.9943 62.0329 75.044C61.9642 75.0938 61.8815 75.1204 61.7967 75.1201C61.7141 75.1203 61.6337 75.0942 61.567 75.0455L59.9414 73.8837C59.7184 73.7241 59.4557 73.6291 59.1822 73.6091C58.9087 73.5891 58.6349 73.6449 58.3911 73.7704C58.1472 73.8958 57.9427 74.0861 57.8 74.3203C57.6572 74.5545 57.5818 74.8235 57.5821 75.0977V77.0961C57.5758 77.1977 57.5311 77.2931 57.457 77.3628C57.3828 77.4326 57.2849 77.4714 57.1831 77.4714C57.0813 77.4714 56.9834 77.4326 56.9093 77.3628C56.8351 77.2931 56.7904 77.1977 56.7842 77.0961V75.0977C56.784 74.8236 56.7084 74.5549 56.5655 74.321C56.4227 74.0871 56.2181 73.8971 55.9744 73.7719C55.7309 73.6466 55.4577 73.5908 55.1846 73.6105C54.9116 73.6303 54.6492 73.7248 54.4263 73.8837L52.7992 75.0455C52.7565 75.0761 52.7082 75.0979 52.6571 75.1098C52.606 75.1217 52.553 75.1234 52.5012 75.1148C52.4494 75.1062 52.3998 75.0875 52.3552 75.0598C52.3107 75.032 52.272 74.9957 52.2415 74.953C52.2109 74.9103 52.189 74.862 52.1771 74.8109C52.1653 74.7598 52.1636 74.7068 52.1721 74.655C52.1807 74.6032 52.1994 74.5536 52.2272 74.509C52.255 74.4645 52.2912 74.4258 52.3339 74.3953L54.7947 72.6369C54.988 72.499 55.1456 72.3168 55.2543 72.1057C55.363 71.8945 55.4198 71.6605 55.4198 71.423C55.4198 71.1855 55.363 70.9514 55.2543 70.7402C55.1456 70.5291 54.988 70.3469 54.7947 70.209L52.3324 68.4507C52.2635 68.4013 52.2119 68.3313 52.1854 68.2508C52.1588 68.1703 52.1585 68.0834 52.1846 68.0027C52.2106 67.922 52.2617 67.8517 52.3304 67.8019C52.3991 67.7521 52.4818 67.7255 52.5666 67.7259C52.6496 67.7258 52.7304 67.7519 52.7977 67.8004L54.4248 68.9622C54.6777 69.1427 54.9806 69.2396 55.2913 69.2396C55.5285 69.2401 55.7623 69.1833 55.9729 69.0741C56.2166 68.9488 56.4212 68.7588 56.564 68.5249C56.7069 68.291 56.7826 68.0223 56.7827 67.7482V65.7498C56.7831 65.6443 56.8252 65.5433 56.8997 65.4687C56.9743 65.3941 57.0754 65.352 57.1809 65.3516ZM57.1809 63.8602C56.6797 63.8602 56.1991 64.0593 55.8448 64.4137C55.4904 64.768 55.2913 65.2486 55.2913 65.7498V67.7482L53.6642 66.5864C53.256 66.2941 52.7484 66.176 52.2531 66.2579C51.7578 66.3399 51.3153 66.6152 51.023 67.0234C50.7307 67.4316 50.6125 67.9392 50.6945 68.4345C50.7764 68.9299 51.0518 69.3723 51.46 69.6646L53.9222 71.423L51.46 73.1813C51.0518 73.4728 50.7761 73.9145 50.6936 74.4093C50.6111 74.904 50.7285 75.4113 51.02 75.8195C51.3115 76.2277 51.7533 76.5034 52.248 76.5859C52.7428 76.6684 53.2501 76.551 53.6583 76.2595L55.2853 75.0977V77.0961C55.2992 77.5883 55.5044 78.0556 55.8574 78.3988C56.2104 78.7421 56.6833 78.9341 57.1757 78.9341C57.668 78.9341 58.1409 78.7421 58.4939 78.3988C58.8469 78.0556 59.0521 77.5883 59.066 77.0961V75.0977L60.6916 76.2595C60.8937 76.4038 61.1222 76.5069 61.3642 76.5629C61.6062 76.6189 61.8568 76.6267 62.1018 76.5859C62.3468 76.545 62.5813 76.4563 62.792 76.3248C63.0027 76.1933 63.1854 76.0216 63.3298 75.8195C63.4741 75.6174 63.5772 75.3888 63.6333 75.1469C63.6893 74.9049 63.6971 74.6543 63.6562 74.4093C63.6153 74.1643 63.5266 73.9298 63.3952 73.7191C63.2637 73.5084 63.0919 73.3256 62.8898 73.1813L60.4291 71.423L62.8898 69.6646C63.298 69.3731 63.5737 68.9314 63.6562 68.4366C63.7387 67.9419 63.6213 67.4346 63.3298 67.0264C63.0383 66.6182 62.5965 66.3425 62.1018 66.26C61.607 66.1775 61.0997 66.2949 60.6916 66.5864L59.066 67.7482V65.7498C59.066 65.5015 59.017 65.2557 58.922 65.0263C58.8269 64.797 58.6876 64.5886 58.512 64.4131C58.3364 64.2377 58.1279 64.0985 57.8985 64.0036C57.669 63.9088 57.4232 63.86 57.1749 63.8602H57.1809Z" fill="#45413C"/>
<path id="Vector_20" d="M76.0902 78.2414C75.7864 78.2407 75.4953 78.1195 75.2807 77.9046C75.066 77.6896 74.9452 77.3984 74.9448 77.0946V75.0961C74.9447 74.9593 74.9069 74.8252 74.8356 74.7084C74.7644 74.5916 74.6623 74.4966 74.5407 74.434C74.419 74.3713 74.2825 74.3432 74.1459 74.353C74.0094 74.3627 73.8782 74.4098 73.7667 74.4892L72.1396 75.6524C71.9466 75.7911 71.715 75.8657 71.4774 75.8657C71.2348 75.8661 70.9983 75.7894 70.802 75.6468C70.6058 75.5041 70.4599 75.3028 70.3854 75.0719C70.3109 74.841 70.3117 74.5924 70.3876 74.362C70.4635 74.1315 70.6106 73.9311 70.8078 73.7897L73.27 72.0299C73.367 71.961 73.446 71.8698 73.5006 71.7641C73.5552 71.6584 73.5836 71.5411 73.5836 71.4222C73.5836 71.3032 73.5552 71.1859 73.5006 71.0802C73.446 70.9745 73.367 70.8834 73.27 70.8144L70.8078 69.0576C70.6808 68.9721 70.5722 68.8619 70.4885 68.7337C70.4048 68.6055 70.3477 68.4618 70.3205 68.3112C70.2933 68.1605 70.2965 68.0059 70.3301 67.8565C70.3637 67.7071 70.4268 67.566 70.5159 67.4414C70.6049 67.3169 70.7181 67.2115 70.8486 67.1314C70.9791 67.0513 71.1243 66.9982 71.2757 66.9752C71.427 66.9522 71.5815 66.9598 71.7299 66.9976C71.8782 67.0353 72.0176 67.1024 72.1396 67.1949L73.7667 68.3567C73.8782 68.436 74.0094 68.4831 74.1459 68.4929C74.2825 68.5026 74.419 68.4746 74.5407 68.4118C74.6623 68.3492 74.7644 68.2542 74.8356 68.1374C74.9069 68.0207 74.9447 67.8865 74.9448 67.7497V65.7497C74.9448 65.446 75.0655 65.1546 75.2803 64.9398C75.4951 64.725 75.7864 64.6044 76.0902 64.6044C76.394 64.6044 76.6853 64.725 76.9001 64.9398C77.1149 65.1546 77.2356 65.446 77.2356 65.7497V67.7497C77.2357 67.8865 77.2735 68.0207 77.3448 68.1374C77.4161 68.2542 77.5181 68.3492 77.6397 68.4118C77.7614 68.4746 77.898 68.5026 78.0345 68.4929C78.171 68.4831 78.3022 68.436 78.4138 68.3567L80.0408 67.1949C80.234 67.0553 80.4662 66.9802 80.7045 66.9801C80.8869 66.9801 81.0668 67.0236 81.2291 67.1068C81.3914 67.19 81.5316 67.3107 81.6381 67.4588C81.8141 67.7064 81.8849 68.0137 81.8348 68.3134C81.7848 68.613 81.6181 68.8806 81.3711 69.0576L78.9104 70.8144C78.8134 70.8834 78.7344 70.9745 78.6798 71.0802C78.6253 71.1859 78.5968 71.3032 78.5968 71.4222C78.5968 71.5411 78.6253 71.6584 78.6798 71.7641C78.7344 71.8698 78.8134 71.961 78.9104 72.0299L81.3711 73.7897C81.6182 73.9661 81.785 74.2334 81.8349 74.5328C81.8848 74.8322 81.8138 75.1392 81.6374 75.3862C81.4609 75.6332 81.1936 75.8 80.8942 75.85C80.5948 75.8999 80.2879 75.8288 80.0408 75.6524L78.4138 74.4892C78.3022 74.4098 78.171 74.3627 78.0345 74.353C77.898 74.3432 77.7614 74.3713 77.6397 74.434C77.5181 74.4966 77.4161 74.5916 77.3448 74.7084C77.2735 74.8252 77.2357 74.9593 77.2356 75.0961V77.0946C77.2352 77.3984 77.1144 77.6896 76.8998 77.9046C76.6851 78.1195 76.394 78.2407 76.0902 78.2414Z" fill="#45413C"/>
<path id="Vector_21" d="M76.09 65.3516C76.1957 65.3516 76.2971 65.3935 76.372 65.4681C76.447 65.5428 76.4892 65.644 76.4896 65.7498V67.7482C76.4898 68.0223 76.5654 68.291 76.7083 68.5249C76.8511 68.7588 77.0557 68.9488 77.2995 69.0741C77.51 69.1833 77.7438 69.2401 77.981 69.2396C78.2917 69.2396 78.5946 69.1427 78.8475 68.9622L80.4746 67.8004C80.5412 67.7518 80.6217 67.7256 80.7042 67.7259C80.7891 67.7255 80.8718 67.7521 80.9404 67.8019C81.0091 67.8517 81.0602 67.922 81.0862 68.0027C81.1123 68.0834 81.112 68.1703 81.0855 68.2508C81.0589 68.3313 81.0074 68.4013 80.9384 68.4507L78.4761 70.209C78.2828 70.3469 78.1252 70.5291 78.0165 70.7402C77.9078 70.9514 77.8511 71.1855 77.8511 71.423C77.8511 71.6605 77.9078 71.8945 78.0165 72.1057C78.1252 72.3168 78.2828 72.499 78.4761 72.6369L80.9384 74.3953C81.0074 74.4446 81.0589 74.5146 81.0855 74.5951C81.112 74.6756 81.1123 74.7625 81.0862 74.8432C81.0602 74.9239 81.0091 74.9943 80.9404 75.044C80.8718 75.0938 80.7891 75.1204 80.7042 75.1201C80.6217 75.1203 80.5412 75.0942 80.4746 75.0455L78.8475 73.8837C78.6245 73.7245 78.3619 73.6298 78.0887 73.6101C77.8154 73.5903 77.5419 73.6462 77.2983 73.7716C77.0547 73.897 76.8504 74.0871 76.7077 74.3211C76.5651 74.555 76.4896 74.8237 76.4896 75.0977V77.0961C76.4896 77.2021 76.4475 77.3038 76.3726 77.3787C76.2976 77.4537 76.196 77.4958 76.09 77.4958C75.9839 77.4958 75.8823 77.4537 75.8073 77.3787C75.7324 77.3038 75.6903 77.2021 75.6903 77.0961V75.0977C75.6903 74.8237 75.6148 74.555 75.4722 74.3211C75.3295 74.0871 75.1252 73.897 74.8816 73.7716C74.638 73.6462 74.3645 73.5903 74.0912 73.6101C73.818 73.6298 73.5554 73.7245 73.3324 73.8837L71.7068 75.0455C71.6641 75.0761 71.6158 75.0979 71.5647 75.1098C71.5136 75.1217 71.4606 75.1234 71.4088 75.1148C71.357 75.1062 71.3074 75.0875 71.2628 75.0598C71.2182 75.032 71.1796 74.9957 71.149 74.953C71.1185 74.9103 71.0966 74.862 71.0847 74.8109C71.0728 74.7598 71.0711 74.7068 71.0797 74.655C71.0883 74.6032 71.107 74.5536 71.1348 74.509C71.1625 74.4645 71.1988 74.4258 71.2415 74.3953L73.7038 72.6369C73.8971 72.499 74.0547 72.3168 74.1634 72.1057C74.2721 71.8945 74.3288 71.6605 74.3288 71.423C74.3288 71.1855 74.2721 70.9514 74.1634 70.7402C74.0547 70.5291 73.8971 70.3469 73.7038 70.209L71.2415 68.4507C71.1725 68.4013 71.121 68.3313 71.0944 68.2508C71.0679 68.1703 71.0676 68.0834 71.0937 68.0027C71.1197 67.922 71.1708 67.8517 71.2395 67.8019C71.3081 67.7521 71.3909 67.7255 71.4757 67.7259C71.5586 67.7258 71.6395 67.7519 71.7068 67.8004L73.3324 68.9622C73.5853 69.1427 73.8882 69.2396 74.1989 69.2396C74.5944 69.2396 74.9738 69.0825 75.2535 68.8028C75.5331 68.5231 75.6903 68.1438 75.6903 67.7482V65.7498C75.6907 65.644 75.7329 65.5428 75.8079 65.4681C75.8828 65.3935 75.9842 65.3516 76.09 65.3516ZM76.09 63.8602C75.5887 63.8602 75.1079 64.0593 74.7533 64.4136C74.3987 64.7679 74.1993 65.2485 74.1989 65.7498V67.7482L72.5733 66.5864C72.3712 66.4421 72.1426 66.339 71.9007 66.283C71.6587 66.227 71.4081 66.2192 71.1631 66.26C70.9181 66.3009 70.6836 66.3896 70.4729 66.5211C70.2622 66.6526 70.0794 66.8243 69.9351 67.0264C69.7907 67.2285 69.6876 67.4571 69.6316 67.6991C69.5756 67.941 69.5678 68.1917 69.6087 68.4366C69.6495 68.6816 69.7382 68.9162 69.8697 69.1269C70.0012 69.3376 70.1729 69.5203 70.375 69.6646L72.8373 71.423L70.375 73.1813C69.9668 73.4728 69.6912 73.9145 69.6087 74.4093C69.5261 74.904 69.6436 75.4113 69.9351 75.8195C70.2266 76.2277 70.6683 76.5034 71.1631 76.5859C71.6578 76.6684 72.1651 76.551 72.5733 76.2595L74.1989 75.0977V77.0961C74.1989 77.5977 74.3981 78.0787 74.7528 78.4333C75.1074 78.7879 75.5884 78.9872 76.09 78.9872C76.5915 78.9872 77.0725 78.7879 77.4271 78.4333C77.7818 78.0787 77.981 77.5977 77.981 77.0961V75.0977L79.6066 76.2595C79.8087 76.4038 80.0373 76.5069 80.2793 76.5629C80.5212 76.6189 80.7718 76.6267 81.0168 76.5859C81.2618 76.545 81.4963 76.4563 81.707 76.3248C81.9177 76.1933 82.1005 76.0216 82.2448 75.8195C82.3892 75.6174 82.4923 75.3888 82.5483 75.1469C82.6043 74.9049 82.6121 74.6543 82.5712 74.4093C82.5304 74.1643 82.4417 73.9298 82.3102 73.7191C82.1787 73.5084 82.007 73.3256 81.8049 73.1813L79.3486 71.423L81.8108 69.6646C82.219 69.3731 82.4947 68.9314 82.5772 68.4366C82.6597 67.9419 82.5423 67.4346 82.2508 67.0264C81.9593 66.6182 81.5176 66.3425 81.0228 66.26C80.528 66.1775 80.0208 66.2949 79.6126 66.5864L77.987 67.7482V65.7498C77.9866 65.2485 77.7872 64.7679 77.4326 64.4136C77.078 64.0593 76.5972 63.8602 76.0959 63.8602H76.09Z" fill="#45413C"/>
<path id="Vector_22" d="M94.9989 78.2414C94.695 78.241 94.4037 78.12 94.1889 77.905C93.9742 77.69 93.8535 77.3985 93.8535 77.0946V75.0961C93.8534 74.9593 93.8156 74.8252 93.7443 74.7084C93.6731 74.5916 93.571 74.4966 93.4494 74.434C93.3275 74.371 93.1907 74.3428 93.0539 74.3525C92.917 74.3622 92.7855 74.4095 92.6739 74.4892L91.0483 75.6524C90.8009 75.819 90.4983 75.8826 90.2049 75.8296C89.9114 75.7766 89.6502 75.6112 89.4767 75.3686C89.3033 75.126 89.2313 74.8253 89.276 74.5305C89.3208 74.2356 89.4788 73.9699 89.7165 73.7897L92.1787 72.0299C92.2757 71.961 92.3547 71.8698 92.4093 71.7641C92.4639 71.6584 92.4923 71.5411 92.4923 71.4222C92.4923 71.3032 92.4639 71.1859 92.4093 71.0802C92.3547 70.9745 92.2757 70.8834 92.1787 70.8144L89.7165 69.0576C89.5895 68.9721 89.4809 68.8619 89.3972 68.7337C89.3135 68.6055 89.2564 68.4618 89.2292 68.3112C89.202 68.1605 89.2052 68.0059 89.2388 67.8565C89.2724 67.7071 89.3355 67.566 89.4246 67.4414C89.5136 67.3169 89.6268 67.2115 89.7572 67.1314C89.8877 67.0513 90.033 66.9982 90.1843 66.9752C90.3357 66.9522 90.4902 66.9598 90.6386 66.9976C90.7869 67.0353 90.9263 67.1024 91.0483 67.1949L92.6739 68.3567C92.7855 68.4363 92.917 68.4836 93.0539 68.4933C93.1907 68.503 93.3275 68.4749 93.4494 68.4118C93.571 68.3492 93.6731 68.2542 93.7443 68.1374C93.8156 68.0207 93.8534 67.8865 93.8535 67.7497V65.7497C93.8535 65.446 93.9742 65.1546 94.189 64.9398C94.4038 64.725 94.6951 64.6044 94.9989 64.6044C95.3027 64.6044 95.594 64.725 95.8088 64.9398C96.0236 65.1546 96.1443 65.446 96.1443 65.7497V67.7497C96.1444 67.8865 96.1822 68.0207 96.2535 68.1374C96.3247 68.2542 96.4268 68.3492 96.5484 68.4118C96.6701 68.4746 96.8067 68.5026 96.9432 68.4929C97.0797 68.4831 97.2109 68.436 97.3224 68.3567L98.9495 67.1949C99.1427 67.0553 99.3749 66.9802 99.6132 66.9801C99.8561 66.9796 100.093 67.0563 100.289 67.1991C100.486 67.342 100.632 67.5436 100.706 67.7748C100.78 68.006 100.779 68.2549 100.703 68.4855C100.627 68.7161 100.479 68.9164 100.281 69.0576L97.8191 70.8144C97.7221 70.8834 97.6431 70.9745 97.5885 71.0802C97.534 71.1859 97.5055 71.3032 97.5055 71.4222C97.5055 71.5411 97.534 71.6584 97.5885 71.7641C97.6431 71.8698 97.7221 71.961 97.8191 72.0299L100.281 73.7897C100.519 73.9699 100.677 74.2356 100.722 74.5305C100.767 74.8253 100.695 75.126 100.521 75.3686C100.348 75.6112 100.086 75.7766 99.7929 75.8296C99.4995 75.8826 99.1969 75.819 98.9495 75.6524L97.3224 74.4892C97.2109 74.4098 97.0797 74.3627 96.9432 74.353C96.8067 74.3432 96.6701 74.3713 96.5484 74.434C96.4268 74.4966 96.3247 74.5916 96.2535 74.7084C96.1822 74.8252 96.1444 74.9593 96.1443 75.0961V77.0946C96.1439 77.3984 96.0231 77.6896 95.8085 77.9046C95.5938 78.1195 95.3027 78.2407 94.9989 78.2414Z" fill="#45413C"/>
<path id="Vector_23" d="M94.9991 65.3516C95.1049 65.3516 95.2063 65.3935 95.2812 65.4681C95.3561 65.5428 95.3984 65.644 95.3988 65.7498V67.7482C95.3988 68.0222 95.4742 68.2909 95.6169 68.5249C95.7595 68.7588 95.9639 68.9489 96.2075 69.0743C96.4511 69.1997 96.7245 69.2556 96.9978 69.2358C97.2711 69.2161 97.5337 69.1214 97.7567 68.9622L99.3823 67.8004C99.4249 67.7699 99.4732 67.748 99.5244 67.7361C99.5755 67.7242 99.6285 67.7225 99.6803 67.7311C99.7321 67.7397 99.7817 67.7584 99.8263 67.7862C99.8708 67.8139 99.9095 67.8502 99.94 67.8929C100.001 67.9792 100.026 68.0863 100.009 68.1908C99.9914 68.2953 99.9335 68.3887 99.8476 68.4507L97.3853 70.209C97.192 70.3469 97.0344 70.5291 96.9257 70.7402C96.8169 70.9514 96.7602 71.1855 96.7602 71.423C96.7602 71.6605 96.8169 71.8945 96.9257 72.1057C97.0344 72.3168 97.192 72.499 97.3853 72.6369L99.8476 74.3953C99.9165 74.4446 99.9681 74.5146 99.9946 74.5951C100.021 74.6756 100.021 74.7625 99.9954 74.8432C99.9693 74.9239 99.9183 74.9943 99.8496 75.044C99.7809 75.0938 99.6982 75.1204 99.6134 75.1201C99.5304 75.1201 99.4496 75.094 99.3823 75.0455L97.7567 73.8837C97.5337 73.7245 97.2711 73.6298 96.9978 73.6101C96.7245 73.5903 96.4511 73.6462 96.2075 73.7716C95.9639 73.897 95.7595 74.0871 95.6169 74.3211C95.4742 74.555 95.3988 74.8237 95.3988 75.0977V77.0961C95.3988 77.2021 95.3567 77.3038 95.2817 77.3787C95.2068 77.4537 95.1051 77.4958 94.9991 77.4958C94.8931 77.4958 94.7915 77.4537 94.7165 77.3787C94.6415 77.3038 94.5994 77.2021 94.5994 77.0961V75.0977C94.5995 74.8237 94.524 74.555 94.3813 74.3211C94.2387 74.0871 94.0344 73.897 93.7907 73.7716C93.5471 73.6462 93.2737 73.5903 93.0004 73.6101C92.7271 73.6298 92.4646 73.7245 92.2416 73.8837L90.6145 75.0455C90.5478 75.0942 90.4674 75.1203 90.3848 75.1201C90.3 75.1204 90.2173 75.0938 90.1486 75.044C90.08 74.9943 90.0289 74.9239 90.0028 74.8432C89.9768 74.7625 89.977 74.6756 90.0036 74.5951C90.0302 74.5146 90.0817 74.4446 90.1507 74.3953L92.6129 72.6369C92.8063 72.499 92.9638 72.3168 93.0726 72.1057C93.1813 71.8945 93.238 71.6605 93.238 71.423C93.238 71.1855 93.1813 70.9514 93.0726 70.7402C92.9638 70.5291 92.8063 70.3469 92.6129 70.209L90.1507 68.4507C90.0817 68.4013 90.0302 68.3313 90.0036 68.2508C89.977 68.1703 89.9768 68.0834 90.0028 68.0027C90.0289 67.922 90.08 67.8517 90.1486 67.8019C90.2173 67.7521 90.3 67.7255 90.3848 67.7259C90.4674 67.7256 90.5478 67.7518 90.6145 67.8004L92.2416 68.9622C92.4646 69.1214 92.7271 69.2161 93.0004 69.2358C93.2737 69.2556 93.5471 69.1997 93.7907 69.0743C94.0344 68.9489 94.2387 68.7588 94.3813 68.5249C94.524 68.2909 94.5995 68.0222 94.5994 67.7482V65.7498C94.5998 65.644 94.6421 65.5428 94.717 65.4681C94.7919 65.3935 94.8934 65.3516 94.9991 65.3516ZM94.9991 63.8602C94.4978 63.8602 94.0171 64.0593 93.6625 64.4136C93.3079 64.7679 93.1085 65.2485 93.1081 65.7498V67.7482L91.4825 66.5864C91.2804 66.4421 91.0518 66.339 90.8098 66.283C90.5679 66.227 90.3172 66.2192 90.0722 66.26C89.8273 66.3009 89.5927 66.3896 89.382 66.5211C89.1713 66.6526 88.9886 66.8243 88.8442 67.0264C88.6999 67.2285 88.5968 67.4571 88.5408 67.6991C88.4848 67.941 88.477 68.1917 88.5178 68.4366C88.5587 68.6816 88.6474 68.9162 88.7789 69.1269C88.9104 69.3376 89.0821 69.5203 89.2842 69.6646L91.745 71.423L89.2842 73.1813C89.0821 73.3256 88.9104 73.5084 88.7789 73.7191C88.6474 73.9298 88.5587 74.1643 88.5178 74.4093C88.477 74.6543 88.4848 74.9049 88.5408 75.1469C88.5968 75.3888 88.6999 75.6174 88.8442 75.8195C89.1358 76.2277 89.5775 76.5034 90.0722 76.5859C90.3172 76.6267 90.5679 76.6189 90.8098 76.5629C91.0518 76.5069 91.2804 76.4038 91.4825 76.2595L93.1081 75.0977V77.0961C93.1081 77.5977 93.3073 78.0787 93.6619 78.4333C94.0166 78.7879 94.4976 78.9872 94.9991 78.9872C95.5007 78.9872 95.9817 78.7879 96.3363 78.4333C96.6909 78.0787 96.8902 77.5977 96.8902 77.0961V75.0977L98.5158 76.2595C98.7179 76.4038 98.9465 76.5069 99.1884 76.5629C99.4304 76.6189 99.681 76.6267 99.926 76.5859C100.171 76.545 100.406 76.4563 100.616 76.3248C100.827 76.1933 101.01 76.0216 101.154 75.8195C101.298 75.6174 101.401 75.3888 101.457 75.1469C101.513 74.9049 101.521 74.6543 101.48 74.4093C101.44 74.1643 101.351 73.9298 101.219 73.7191C101.088 73.5084 100.916 73.3256 100.714 73.1813L98.2518 71.423L100.714 69.6646C101.122 69.3731 101.398 68.9314 101.48 68.4366C101.563 67.9419 101.446 67.4346 101.154 67.0264C100.862 66.6182 100.421 66.3425 99.926 66.26C99.4312 66.1775 98.924 66.2949 98.5158 66.5864L96.8902 67.7482V65.7498C96.8898 65.2485 96.6904 64.7679 96.3358 64.4136C95.9812 64.0593 95.5004 63.8602 94.9991 63.8602Z" fill="#45413C"/>
</g>
</svg>
