<svg width="151" height="151" viewBox="0 0 151 151" fill="none" xmlns="http://www.w3.org/2000/svg">
<g id="Folder-Not-Found--Streamline-Ux">
<path id="Vector" d="M13.4321 77.1719C13.4321 85.0059 14.9751 92.7632 17.9731 100.001C20.971 107.238 25.3651 113.815 30.9046 119.354C36.444 124.894 43.0203 129.288 50.258 132.286C57.4956 135.284 65.2529 136.827 73.0868 136.827C80.9208 136.827 88.6781 135.284 95.9157 132.286C103.153 129.288 109.73 124.894 115.269 119.354C120.809 113.815 125.203 107.238 128.201 100.001C131.199 92.7632 132.742 85.0059 132.742 77.1719C132.742 61.3505 126.457 46.1771 115.269 34.9897C104.082 23.8022 88.9083 17.5172 73.0868 17.5172C57.2654 17.5172 42.092 23.8022 30.9046 34.9897C19.7172 46.1771 13.4321 61.3505 13.4321 77.1719Z" fill="#DAEDF7" stroke="#DAEDF7" stroke-width="1.50643"/>
<path id="Vector_2" opacity="0.15" d="M33.536 102.74C33.536 104.485 36.6856 106.158 42.2919 107.391C47.8982 108.624 55.502 109.317 63.4305 109.317C71.359 109.317 78.9628 108.624 84.5691 107.391C90.1754 106.158 93.325 104.485 93.325 102.74C93.325 100.996 90.1754 99.3232 84.5691 98.0898C78.9628 96.8564 71.359 96.1635 63.4305 96.1635C55.502 96.1635 47.8982 96.8564 42.2919 98.0898C36.6856 99.3232 33.536 100.996 33.536 102.74Z" fill="#45413C"/>
<path id="Vector_3" d="M97.1563 38.3354H32.8172C32.0688 38.3354 31.3511 38.6327 30.8219 39.1619C30.2928 39.6911 29.9955 40.4088 29.9955 41.1571V80.5889H99.9779V41.1586C99.9781 40.7879 99.9053 40.4209 99.7636 40.0783C99.6219 39.7358 99.414 39.4246 99.152 39.1624C98.89 38.9002 98.5789 38.6923 98.2364 38.5504C97.894 38.4085 97.5269 38.3354 97.1563 38.3354Z" fill="#FFE500"/>
<path id="Vector_4" d="M99.9785 53.625H61.7025C60.8627 53.6247 60.0489 53.3335 59.3996 52.8008C58.7503 52.2681 58.3056 51.527 58.1411 50.7034L57.127 45.6432C56.9626 44.8197 56.5176 44.0787 55.8678 43.5467C55.2181 43.0147 54.4039 42.7247 53.5641 42.7261H30.0005V80.5919H99.9785V53.625Z" fill="#EBCB00"/>
<path id="Vector_5" d="M97.1563 38.3354H32.8172C32.0688 38.3354 31.3511 38.6327 30.8219 39.1619C30.2928 39.6911 29.9955 40.4088 29.9955 41.1571V80.5889H99.9779V41.1586C99.9781 40.7879 99.9053 40.4209 99.7636 40.0783C99.6219 39.7358 99.414 39.4246 99.152 39.1624C98.89 38.9002 98.5789 38.6923 98.2364 38.5504C97.894 38.4085 97.5269 38.3354 97.1563 38.3354Z" stroke="#45413C" stroke-width="1.50643" stroke-linecap="round" stroke-linejoin="round"/>
<path id="Vector_6" d="M107.393 62.912C107.498 62.3846 107.486 61.8403 107.355 61.3184C107.225 60.7965 106.98 60.3101 106.639 59.8942C106.298 59.4783 105.869 59.1433 105.383 58.9134C104.896 58.6835 104.365 58.5644 103.827 58.5647H56.154C55.3143 58.5647 54.5006 58.2738 53.8512 57.7414C53.2019 57.209 52.7571 56.468 52.5926 55.6446L51.58 50.5844C51.4156 49.7608 50.9706 49.0199 50.3209 48.4879C49.6711 47.9559 48.8569 47.6658 48.0171 47.6672H24.5475C24.0097 47.6673 23.4786 47.7868 22.9925 48.017C22.5065 48.2472 22.0776 48.5824 21.7367 48.9984C21.3959 49.4144 21.1517 49.9009 21.0216 50.4227C20.8915 50.9446 20.8789 51.4888 20.9846 52.0161L30.4309 99.2417C30.5945 100.066 31.0391 100.808 31.6889 101.342C32.3386 101.875 33.1532 102.167 33.9938 102.166H96.5641C97.4034 102.167 98.2169 101.876 98.8661 101.344C99.5154 100.812 99.9604 100.072 100.126 99.2492L107.393 62.912Z" fill="#FFE500"/>
<path id="Vector_7" d="M107.393 62.912C107.498 62.3846 107.486 61.8403 107.355 61.3184C107.225 60.7965 106.98 60.3101 106.639 59.8942C106.298 59.4783 105.869 59.1433 105.383 58.9134C104.896 58.6835 104.365 58.5644 103.827 58.5647H56.154C55.3143 58.5647 54.5006 58.2738 53.8512 57.7414C53.2019 57.209 52.7571 56.468 52.5926 55.6446L51.58 50.5844C51.4156 49.7608 50.9706 49.0199 50.3209 48.4879C49.6711 47.9559 48.8569 47.6658 48.0171 47.6672H24.5475C24.0097 47.6673 23.4786 47.7868 22.9925 48.017C22.5065 48.2472 22.0776 48.5824 21.7367 48.9984C21.3959 49.4144 21.1517 49.9009 21.0216 50.4227C20.8915 50.9446 20.8789 51.4888 20.9846 52.0161L30.4309 99.2417C30.5945 100.066 31.0391 100.808 31.6889 101.342C32.3386 101.875 33.1532 102.167 33.9938 102.166H96.5641C97.4034 102.167 98.2169 101.876 98.8661 101.344C99.5154 100.812 99.9604 100.072 100.126 99.2492L107.393 62.912Z" fill="#FFE500"/>
<path id="Vector_8" d="M22.2282 58.2242C22.8779 57.6767 23.6992 57.3748 24.5488 57.3711H48.017C48.8567 57.3697 49.671 57.6597 50.3207 58.1917C50.9705 58.7237 51.4155 59.4647 51.5798 60.2882L52.5925 65.3484C52.757 66.1719 53.2017 66.9128 53.8511 67.4452C54.5004 67.9776 55.3142 68.2686 56.1539 68.2685H103.827C104.678 68.2715 105.5 68.5735 106.15 69.1216C106.625 66.7518 107.045 64.6206 107.393 62.9085C107.498 62.3811 107.485 61.8369 107.354 61.3152C107.224 60.7934 106.979 60.3071 106.638 59.8913C106.297 59.4754 105.868 59.1405 105.382 58.9105C104.896 58.6805 104.365 58.5612 103.827 58.5612H56.1539C55.3133 58.561 54.4989 58.2692 53.8495 57.7356C53.2 57.202 52.7558 56.4597 52.5925 55.6351L51.5798 50.5764C51.4155 49.7529 50.9705 49.0119 50.3207 48.4799C49.671 47.948 48.8567 47.6579 48.017 47.6593H24.5473C24.0094 47.6591 23.4782 47.7784 22.992 48.0085C22.5058 48.2386 22.0768 48.5738 21.7359 48.9899C21.395 49.406 21.1508 49.8926 21.0208 50.4145C20.8909 50.9365 20.8784 51.4808 20.9844 52.0081L22.2282 58.2242Z" fill="#FFF48C"/>
<path id="Vector_9" d="M107.393 62.912C107.498 62.3846 107.486 61.8403 107.355 61.3184C107.225 60.7965 106.98 60.3101 106.639 59.8942C106.298 59.4783 105.869 59.1433 105.383 58.9134C104.896 58.6835 104.365 58.5644 103.827 58.5647H56.154C55.3143 58.5647 54.5006 58.2738 53.8512 57.7414C53.2019 57.209 52.7571 56.468 52.5926 55.6446L51.58 50.5844C51.4156 49.7608 50.9706 49.0199 50.3209 48.4879C49.6711 47.9559 48.8569 47.6658 48.0171 47.6672H24.5475C24.0097 47.6673 23.4786 47.7868 22.9925 48.017C22.5065 48.2472 22.0776 48.5824 21.7367 48.9984C21.3959 49.4144 21.1517 49.9009 21.0216 50.4227C20.8915 50.9446 20.8789 51.4888 20.9846 52.0161L30.4309 99.2417C30.5945 100.066 31.0391 100.808 31.6889 101.342C32.3386 101.875 33.1532 102.167 33.9938 102.166H96.5641C97.4034 102.167 98.2169 101.876 98.8661 101.344C99.5154 100.812 99.9604 100.072 100.126 99.2492L107.393 62.912Z" stroke="#45413C" stroke-width="1.50643" stroke-linecap="round" stroke-linejoin="round"/>
<path id="Vector_10" d="M115.451 44.702C115.17 44.635 114.921 44.4755 114.742 44.2491C114.563 44.0228 114.466 43.7428 114.466 43.4545C114.466 43.1661 114.563 42.8861 114.742 42.6598C114.921 42.4334 115.17 42.2739 115.451 42.2069L127.598 39.2868C127.787 39.2416 127.983 39.2396 128.172 39.2809C128.361 39.3223 128.539 39.4059 128.691 39.5255C128.843 39.6452 128.967 39.7977 129.052 39.9718C129.137 40.1459 129.181 40.3369 129.182 40.5306L129.2 46.3708C129.201 46.5651 129.157 46.757 129.073 46.932C128.988 47.107 128.865 47.2606 128.713 47.3811C128.56 47.5016 128.383 47.5859 128.193 47.6276C128.003 47.6694 127.806 47.6675 127.618 47.6221L115.451 44.702Z" fill="white" stroke="#45413C" stroke-width="1.50643" stroke-linecap="round" stroke-linejoin="round"/>
<path id="Vector_11" d="M105.55 34.4359C105.304 34.5871 105.014 34.651 104.727 34.6172C104.44 34.5834 104.173 34.4538 103.969 34.2495C103.765 34.0452 103.635 33.778 103.602 33.4912C103.568 33.2043 103.632 32.9145 103.784 32.6686L112.95 17.7027C113.051 17.5375 113.188 17.3973 113.351 17.2927C113.514 17.1881 113.699 17.1217 113.891 17.0986C114.083 17.0755 114.278 17.0963 114.461 17.1593C114.644 17.2223 114.811 17.326 114.948 17.4626L120.765 23.2446C120.902 23.3817 121.007 23.5482 121.071 23.7317C121.135 23.9151 121.157 24.1107 121.134 24.3037C121.112 24.4966 121.045 24.682 120.941 24.8457C120.836 25.0095 120.696 25.1474 120.53 25.249L105.55 34.4359Z" fill="white" stroke="#45413C" stroke-width="1.50643" stroke-linecap="round" stroke-linejoin="round"/>
<path id="Vector_12" d="M83.4956 20.3004C83.4281 20.5806 83.2682 20.8299 83.0418 21.0082C82.8154 21.1865 82.5355 21.2834 82.2473 21.2834C81.9592 21.2834 81.6793 21.1865 81.4529 21.0082C81.2265 20.8299 81.0666 20.5806 80.9991 20.3004L78.079 8.15325C78.0334 7.96486 78.0312 7.7686 78.0724 7.57922C78.1137 7.38984 78.1973 7.21227 78.317 7.05984C78.4367 6.90741 78.5894 6.78409 78.7636 6.69915C78.9378 6.61421 79.129 6.56986 79.3228 6.56942L85.1645 6.55152C85.3589 6.55083 85.551 6.59436 85.7261 6.67881C85.9012 6.76327 86.0549 6.88644 86.1754 7.03901C86.296 7.19159 86.3802 7.36957 86.4219 7.5595C86.4635 7.74944 86.4614 7.94635 86.4157 8.13535L83.4956 20.3004Z" fill="white" stroke="#45413C" stroke-width="1.50643" stroke-linecap="round" stroke-linejoin="round"/>
<path id="Vector_13" d="M73.2335 30.203C73.3845 30.4487 73.4484 30.7381 73.4147 31.0245C73.3809 31.3109 73.2517 31.5776 73.0478 31.7815C72.8439 31.9855 72.5772 32.1147 72.2908 32.1484C72.0043 32.1821 71.7149 32.1183 71.4692 31.9673L56.4974 22.8028C56.3322 22.7016 56.192 22.5643 56.0874 22.4012C55.9828 22.2381 55.9164 22.0534 55.8933 21.861C55.8702 21.6686 55.891 21.4735 55.954 21.2902C56.017 21.107 56.1207 20.9404 56.2573 20.8029L62.0393 14.9866C62.1764 14.8489 62.3429 14.7441 62.5264 14.6801C62.7098 14.6161 62.9054 14.5945 63.0984 14.6171C63.2913 14.6396 63.4767 14.7057 63.6404 14.8102C63.8042 14.9148 63.9421 15.0551 64.0437 15.2207L73.2335 30.203Z" fill="white" stroke="#45413C" stroke-width="1.50643" stroke-linecap="round" stroke-linejoin="round"/>
<path id="Vector_14" d="M102.3 114.601L107.714 109.191L117.184 118.661L111.77 124.075L102.3 114.601Z" fill="#F8F8F8" stroke="#45413C" stroke-width="1.50643" stroke-linecap="round" stroke-linejoin="round"/>
<path id="Vector_15" d="M135.572 142.214L135.314 142.472C134.269 143.509 132.857 144.091 131.384 144.091C129.911 144.091 128.499 143.509 127.453 142.472L110.368 125.383C110.022 125.036 109.828 124.565 109.828 124.074C109.828 123.583 110.022 123.113 110.368 122.765L115.867 117.264C116.216 116.919 116.686 116.725 117.177 116.725C117.668 116.725 118.139 116.919 118.487 117.264L135.572 134.353C136.09 134.868 136.501 135.48 136.781 136.155C137.061 136.829 137.206 137.553 137.206 138.283C137.206 139.013 137.061 139.737 136.781 140.411C136.501 141.086 136.09 141.698 135.572 142.214Z" fill="#BF8256"/>
<path id="Vector_16" d="M135.572 142.214L135.444 142.342L113.139 119.997L115.87 117.264C116.219 116.919 116.689 116.725 117.18 116.725C117.671 116.725 118.142 116.919 118.49 117.264L135.572 134.353C136.09 134.868 136.501 135.48 136.781 136.155C137.061 136.829 137.206 137.553 137.206 138.283C137.206 139.013 137.061 139.737 136.781 140.411C136.501 141.086 136.09 141.698 135.572 142.214Z" fill="#E09F7E"/>
<path id="Vector_17" d="M135.572 142.214L135.314 142.472C134.269 143.509 132.857 144.091 131.384 144.091C129.911 144.091 128.499 143.509 127.453 142.472L110.368 125.383C110.022 125.036 109.828 124.565 109.828 124.074C109.828 123.583 110.022 123.113 110.368 122.765L115.867 117.264C116.216 116.919 116.686 116.725 117.177 116.725C117.668 116.725 118.139 116.919 118.487 117.264L135.572 134.353C136.09 134.868 136.501 135.48 136.781 136.155C137.061 136.829 137.206 137.553 137.206 138.283C137.206 139.013 137.061 139.737 136.781 140.411C136.501 141.086 136.09 141.698 135.572 142.214Z" stroke="#45413C" stroke-width="1.50643" stroke-linecap="round" stroke-linejoin="round"/>
<path id="Vector_18" d="M61.586 109.289C65.5592 115.781 71.9488 120.429 79.3491 122.211C86.7495 123.992 94.5544 122.761 101.047 118.788C107.539 114.815 112.188 108.425 113.969 101.025C115.751 93.6244 114.519 85.8195 110.546 79.327C108.579 76.1121 105.998 73.3162 102.95 71.0989C99.9019 68.8817 96.4472 67.2864 92.7829 66.4042C85.3824 64.6226 77.5773 65.8538 71.0846 69.827C64.5919 73.8001 59.9434 80.1898 58.1618 87.5903C56.3802 94.9908 57.6114 102.796 61.5846 109.289H61.586Z" fill="#F8F8F8" stroke="#45413C" stroke-width="1.50643" stroke-linecap="round" stroke-linejoin="round"/>
<path id="Vector_19" d="M102.301 78.073C105.514 81.2844 107.703 85.3767 108.59 89.8323C109.478 94.2878 109.024 98.9065 107.286 103.104C105.548 107.302 102.604 110.889 98.8268 113.414C95.0496 115.938 90.6085 117.285 86.0655 117.285C81.5224 117.285 77.0814 115.938 73.3041 113.414C69.5269 110.889 66.5832 107.302 64.8453 103.104C63.1074 98.9065 62.6534 94.2878 63.5408 89.8323C64.4281 85.3767 66.617 81.2844 69.8304 78.073C74.1372 73.7689 79.9767 71.3512 86.0655 71.3512C92.1542 71.3512 97.9938 73.7689 102.301 78.073Z" fill="#00B8F0"/>
<path id="Vector_20" d="M69.8299 110.543C65.7014 106.201 63.4328 100.418 63.5082 94.4275C63.5835 88.4368 65.9968 82.7126 70.2332 78.4762C74.4697 74.2397 80.1938 71.8264 86.1846 71.7511C92.1753 71.6757 97.9584 73.9443 102.3 78.0729L69.8299 110.543Z" fill="#4ACFFF"/>
<path id="Vector_21" d="M102.301 78.073C105.514 81.2844 107.703 85.3767 108.59 89.8323C109.478 94.2878 109.024 98.9065 107.286 103.104C105.548 107.302 102.604 110.889 98.8268 113.414C95.0496 115.938 90.6085 117.285 86.0655 117.285C81.5224 117.285 77.0814 115.938 73.3041 113.414C69.5269 110.889 66.5832 107.302 64.8453 103.104C63.1074 98.9065 62.6534 94.2878 63.5408 89.8323C64.4281 85.3767 66.617 81.2844 69.8304 78.073C74.1372 73.7689 79.9767 71.3512 86.0655 71.3512C92.1542 71.3512 97.9938 73.7689 102.301 78.073Z" stroke="#45413C" stroke-width="1.50643" stroke-linecap="round" stroke-linejoin="round"/>
<path id="Vector_22" d="M77.2972 103.623C76.9737 103.622 76.6578 103.526 76.3891 103.345C76.1204 103.165 75.9109 102.91 75.7871 102.611C75.6632 102.312 75.6305 101.983 75.693 101.666C75.7555 101.348 75.9105 101.057 76.1384 100.827C77.4378 99.503 78.9908 98.4545 80.7046 97.7443C82.4183 97.0341 84.2577 96.6766 86.1127 96.6933C87.9677 96.71 89.8003 97.1005 91.501 97.8415C93.2017 98.5825 94.7356 99.6588 96.0109 101.006C96.2342 101.24 96.3836 101.534 96.4402 101.852C96.4968 102.17 96.4582 102.498 96.3291 102.795C96.2001 103.091 95.9864 103.342 95.7149 103.518C95.4433 103.693 95.1261 103.784 94.8029 103.78L77.2972 103.623Z" fill="#FFA694" stroke="#45413C" stroke-width="1.50643" stroke-linecap="round" stroke-linejoin="round"/>
<path id="Vector_23" d="M82.2401 92.5961C81.9706 92.5978 81.7033 92.546 81.454 92.4436C81.2046 92.3412 80.9781 92.1903 80.7875 91.9996L79.584 90.7961L78.3805 91.9996C78.1897 92.1907 77.9632 92.3422 77.7138 92.4456C77.4644 92.5491 77.1971 92.6023 76.9271 92.6023C76.6571 92.6023 76.3898 92.5491 76.1404 92.4456C75.8911 92.3422 75.6645 92.1907 75.4738 91.9996C75.089 91.6138 74.8729 91.0911 74.8729 90.5463C74.8729 90.0014 75.089 89.4787 75.4738 89.0929L76.6773 87.8909L75.4738 86.6873C75.105 86.2985 74.9026 85.781 74.9097 85.2452C74.9167 84.7093 75.1327 84.1974 75.5115 83.8184C75.8903 83.4393 76.4022 83.2231 76.938 83.2158C77.4739 83.2085 77.9914 83.4106 78.3805 83.7792L79.584 84.9827L80.7875 83.7792C80.9766 83.5798 81.2036 83.4204 81.4553 83.3102C81.7069 83.2001 81.9781 83.1415 82.2528 83.1379C82.5275 83.1343 82.8001 83.1857 83.0546 83.2892C83.3091 83.3927 83.5402 83.5461 83.7345 83.7404C83.9287 83.9347 84.082 84.166 84.1853 84.4205C84.2887 84.675 84.34 84.9477 84.3363 85.2224C84.3325 85.4971 84.2737 85.7682 84.1635 86.0198C84.0532 86.2714 83.8936 86.4984 83.6942 86.6873L82.4907 87.8909L83.6942 89.0929C83.9813 89.3806 84.1766 89.7469 84.2557 90.1456C84.3347 90.5442 84.2938 90.9573 84.1383 91.3328C83.9827 91.7082 83.7194 92.0292 83.3815 92.2551C83.0437 92.481 82.6465 92.6018 82.2401 92.6021V92.5961Z" fill="white" stroke="#00658A" stroke-width="1.50643" stroke-linecap="round" stroke-linejoin="round"/>
<path id="Vector_24" d="M95.8005 92.5956C95.5307 92.5974 95.2633 92.5455 95.0137 92.4431C94.7641 92.3407 94.5373 92.1898 94.3464 91.9991L93.1429 90.7956L91.9394 91.9991C91.5496 92.3655 91.0323 92.5655 90.4974 92.5566C89.9625 92.5476 89.4521 92.3305 89.0748 91.9512C88.6975 91.5719 88.4829 91.0605 88.4767 90.5256C88.4706 89.9906 88.6732 89.4743 89.0416 89.0864L90.2347 87.8844L89.0312 86.6809C88.6456 86.2956 88.4287 85.7729 88.4285 85.2278C88.4282 84.6827 88.6445 84.1598 89.0297 83.7742C89.415 83.3885 89.9376 83.1717 90.4827 83.1715C91.0278 83.1712 91.5507 83.3874 91.9364 83.7727L93.1399 84.9762L94.3435 83.7727C94.5325 83.5734 94.7595 83.4139 95.0112 83.3038C95.2629 83.1936 95.534 83.135 95.8087 83.1314C96.0834 83.1278 96.3561 83.1793 96.6105 83.2827C96.865 83.3862 97.0962 83.5397 97.2904 83.734C97.4846 83.9283 97.6379 84.1595 97.7412 84.414C97.8446 84.6686 97.8959 84.9412 97.8922 85.2159C97.8884 85.4906 97.8297 85.7618 97.7194 86.0134C97.6091 86.265 97.4496 86.4919 97.2501 86.6809L96.0466 87.8844L97.2501 89.0864C97.6349 89.4723 97.851 89.9949 97.851 90.5398C97.851 91.0847 97.6349 91.6073 97.2501 91.9931C97.0604 92.1845 96.8346 92.3363 96.5857 92.4397C96.3369 92.5432 96.07 92.5962 95.8005 92.5956Z" fill="white" stroke="#00658A" stroke-width="1.50643" stroke-linecap="round" stroke-linejoin="round"/>
</g>
</svg>
