<svg width="151" height="151" viewBox="0 0 151 151" fill="none" xmlns="http://www.w3.org/2000/svg">
<g id="Gears--Streamline-Ux">
<path id="Vector" d="M75.322 134.977C108.268 134.977 134.977 108.268 134.977 75.322C134.977 42.3761 108.268 15.6672 75.322 15.6672C42.3761 15.6672 15.6672 42.3761 15.6672 75.322C15.6672 108.268 42.3761 134.977 75.322 134.977Z" fill="#DAEDF7" stroke="#DAEDF7" stroke-width="1.50643" stroke-miterlimit="10"/>
<path id="Vector_2" d="M91.4415 61.8085H85.7176C85.0255 58.2563 83.6262 54.8795 81.6029 51.8789L85.652 47.8314C85.8461 47.6374 86.0001 47.4072 86.1052 47.1537C86.2102 46.9002 86.2643 46.6285 86.2643 46.3542C86.2643 46.0798 86.2102 45.8081 86.1052 45.5546C86.0001 45.3011 85.8461 45.0709 85.652 44.877L81.2211 40.4476C81.0272 40.2535 80.7969 40.0995 80.5435 39.9944C80.29 39.8893 80.0183 39.8352 79.7439 39.8352C79.4695 39.8352 79.1978 39.8893 78.9444 39.9944C78.6909 40.0995 78.4606 40.2535 78.2667 40.4476L74.2191 44.4952C71.2169 42.472 67.8387 41.0728 64.2851 40.3805V34.6581C64.2851 34.3839 64.2311 34.1124 64.1262 33.8591C64.0213 33.6058 63.8675 33.3756 63.6736 33.1817C63.4797 32.9878 63.2495 32.8341 62.9962 32.7291C62.7429 32.6242 62.4714 32.5702 62.1972 32.5702H55.9335C55.3797 32.5702 54.8487 32.7902 54.4571 33.1817C54.0655 33.5733 53.8456 34.1044 53.8456 34.6581V40.3805C50.294 41.0731 46.9178 42.4723 43.9175 44.4952L39.8685 40.4476C39.6747 40.2535 39.4445 40.0995 39.1912 39.9945C38.9378 39.8894 38.6663 39.8354 38.392 39.8354C38.1177 39.8354 37.8462 39.8894 37.5928 39.9945C37.3395 40.0995 37.1093 40.2535 36.9155 40.4476L32.4847 44.877C32.2906 45.0709 32.1366 45.3011 32.0315 45.5546C31.9264 45.8081 31.8723 46.0798 31.8723 46.3542C31.8723 46.6285 31.9264 46.9002 32.0315 47.1537C32.1366 47.4072 32.2906 47.6374 32.4847 47.8314L36.5338 51.8789C34.5105 54.8795 33.1112 58.2563 32.4191 61.8085H26.7027C26.1489 61.8085 25.6178 62.0284 25.2263 62.42C24.8347 62.8116 24.6147 63.3426 24.6147 63.8964V70.1601C24.6147 70.7139 24.8347 71.2449 25.2263 71.6365C25.6178 72.0281 26.1489 72.248 26.7027 72.248H32.4265C33.1163 75.8013 34.5136 79.1796 36.5353 82.182L32.4862 86.2311C32.2921 86.4249 32.1381 86.655 32.0331 86.9084C31.928 87.1617 31.874 87.4333 31.874 87.7076C31.874 87.9818 31.928 88.2534 32.0331 88.5067C32.1381 88.7601 32.2921 88.9902 32.4862 89.184L36.917 93.6149C37.1109 93.8088 37.3411 93.9626 37.5944 94.0675C37.8478 94.1725 38.1193 94.2265 38.3935 94.2265C38.6677 94.2265 38.9392 94.1725 39.1926 94.0675C39.4459 93.9626 39.6761 93.8088 39.8699 93.6149L43.919 89.5673C46.9191 91.5889 50.2947 92.9871 53.8456 93.679V99.4014C53.8456 99.9551 54.0655 100.486 54.4571 100.878C54.8487 101.269 55.3797 101.489 55.9335 101.489H62.1972C62.751 101.489 63.282 101.269 63.6736 100.878C64.0652 100.486 64.2851 99.9551 64.2851 99.4014V93.679C67.8371 92.9861 71.2137 91.5869 74.2147 89.5643L78.2622 93.6119C78.4561 93.806 78.6864 93.96 78.9399 94.0651C79.1934 94.1702 79.4651 94.2242 79.7394 94.2242C80.0138 94.2242 80.2855 94.1702 80.539 94.0651C80.7925 93.96 81.0227 93.806 81.2166 93.6119L85.6475 89.181C85.8414 88.9871 85.9952 88.757 86.1002 88.5036C86.2051 88.2503 86.2591 87.9788 86.2591 87.7046C86.2591 87.4304 86.2051 87.1589 86.1002 86.9055C85.9952 86.6522 85.8414 86.422 85.6475 86.2281L81.6029 82.182C83.626 79.1819 85.0253 75.8057 85.7176 72.254H91.4415C91.9952 72.254 92.5263 72.034 92.9178 71.6425C93.3094 71.2509 93.5294 70.7198 93.5294 70.1661V63.9023C93.5302 63.6277 93.4767 63.3555 93.3722 63.1015C93.2676 62.8475 93.1139 62.6166 92.92 62.4221C92.726 62.2276 92.4956 62.0733 92.2419 61.968C91.9881 61.8627 91.7161 61.8085 91.4415 61.8085ZM59.0683 82.6876C55.7088 82.687 52.4386 81.6059 49.7407 79.6042C47.0427 77.6024 45.06 74.7861 44.0854 71.5711C43.1108 68.356 43.196 64.9128 44.3284 61.75C45.4607 58.5871 47.5803 55.8722 50.3739 54.0063C53.1676 52.1404 56.4873 51.2224 59.8427 51.3879C63.1981 51.5534 66.4113 52.7936 69.0078 54.9253C71.6043 57.057 73.4465 59.9672 74.2621 63.2262C75.0778 66.4852 74.8238 69.92 73.5376 73.0236C72.3525 75.8863 70.3449 78.3332 67.7687 80.0545C65.1926 81.7758 62.1637 82.6943 59.0653 82.6936L59.0683 82.6876Z" fill="#ADC4D9"/>
<path id="Vector_3" d="M36.536 51.8789C34.7766 54.4887 33.4865 57.3857 32.724 60.4394C35.3678 55.7824 39.1987 51.9094 43.8266 49.215C48.4545 46.5205 53.7139 45.101 59.069 45.101C64.4242 45.101 69.6836 46.5205 74.3115 49.215C78.9394 51.9094 82.7703 55.7824 85.4141 60.4394C84.652 57.3858 83.3625 54.4888 81.6036 51.8789L85.6527 47.8314C85.8468 47.6374 86.0008 47.4072 86.1059 47.1537C86.211 46.9002 86.265 46.6285 86.265 46.3542C86.265 46.0798 86.211 45.8081 86.1059 45.5546C86.0008 45.3011 85.8468 45.0709 85.6527 44.877L81.2218 40.4476C81.0279 40.2535 80.7976 40.0995 80.5442 39.9944C80.2907 39.8893 80.019 39.8352 79.7446 39.8352C79.4702 39.8352 79.1985 39.8893 78.9451 39.9944C78.6916 40.0995 78.4613 40.2535 78.2674 40.4476L74.2199 44.4952C71.2176 42.472 67.8394 41.0728 64.2858 40.3805V34.6581C64.2858 34.3839 64.2318 34.1124 64.1269 33.8591C64.022 33.6058 63.8682 33.3756 63.6743 33.1817C63.4804 32.9878 63.2503 32.8341 62.9969 32.7291C62.7436 32.6242 62.4721 32.5702 62.1979 32.5702H55.9342C55.3804 32.5702 54.8494 32.7902 54.4578 33.1817C54.0662 33.5733 53.8463 34.1044 53.8463 34.6581V40.3805C50.2947 41.073 46.9185 42.4723 43.9182 44.4952L39.8692 40.4476C39.6754 40.2535 39.4452 40.0995 39.1919 39.9945C38.9385 39.8894 38.667 39.8354 38.3927 39.8354C38.1185 39.8354 37.8469 39.8894 37.5935 39.9945C37.3402 40.0995 37.11 40.2535 36.9163 40.4476L32.4854 44.877C32.2913 45.0709 32.1373 45.3011 32.0322 45.5546C31.9271 45.8081 31.873 46.0798 31.873 46.3542C31.873 46.6285 31.9271 46.9002 32.0322 47.1537C32.1373 47.4072 32.2913 47.6374 32.4854 47.8314L36.536 51.8789Z" fill="#ADC4D9"/>
<path id="Vector_4" d="M85.6524 89.181C85.8465 88.9872 86.0004 88.7571 86.1055 88.5038C86.2106 88.2504 86.2646 87.9788 86.2646 87.7046C86.2646 87.4303 86.2106 87.1587 86.1055 86.9054C86.0004 86.6521 85.8465 86.4219 85.6524 86.2281L81.6033 82.182C83.362 79.5721 84.6515 76.6751 85.4138 73.6216C82.77 78.2786 78.9391 82.1516 74.3112 84.846C69.6833 87.5404 64.4239 88.9599 59.0688 88.9599C53.7136 88.9599 48.4542 87.5404 43.8263 84.846C39.1984 82.1516 35.3675 78.2786 32.7237 73.6216C33.4858 76.6754 34.7759 79.5725 36.5357 82.182L32.4866 86.2311C32.2927 86.425 32.1389 86.6552 32.034 86.9085C31.929 87.1618 31.875 87.4334 31.875 87.7076C31.875 87.9818 31.929 88.2533 32.034 88.5066C32.1389 88.7599 32.2927 88.9901 32.4866 89.184L36.9175 93.6134C37.1114 93.8073 37.3415 93.9611 37.5949 94.066C37.8482 94.171 38.1197 94.225 38.3939 94.225C38.6681 94.225 38.9396 94.171 39.193 94.066C39.4463 93.9611 39.6765 93.8073 39.8704 93.6134L43.9194 89.5673C46.9198 91.5884 50.2953 92.9865 53.846 93.679V99.4014C53.846 99.9551 54.066 100.486 54.4575 100.878C54.8491 101.269 55.3802 101.489 55.9339 101.489H62.1976C62.7514 101.489 63.2825 101.269 63.674 100.878C64.0656 100.486 64.2856 99.9551 64.2856 99.4014V93.679C67.8375 92.9851 71.214 91.5854 74.2151 89.5628L78.2627 93.6119C78.4564 93.8064 78.6866 93.9607 78.9401 94.066C79.1936 94.1713 79.4654 94.2255 79.7399 94.2255C80.0144 94.2255 80.2861 94.1713 80.5396 94.066C80.7931 93.9607 81.0234 93.8064 81.2171 93.6119L85.6524 89.181Z" fill="#8CA4B8"/>
<path id="Vector_5" d="M59.0654 82.6931C54.9122 82.6931 50.9292 81.0433 47.9925 78.1066C45.0558 75.1699 43.406 71.1869 43.406 67.0338C43.406 62.8806 45.0558 58.8976 47.9925 55.9609C50.9292 53.0242 54.9122 51.3744 59.0654 51.3744C63.2185 51.3744 67.2015 53.0242 70.1382 55.9609C73.0749 58.8976 74.7247 62.8806 74.7247 67.0338C74.7247 71.1869 73.0749 75.1699 70.1382 78.1066C67.2015 81.0433 63.2185 82.6931 59.0654 82.6931Z" stroke="#45413C" stroke-width="1.50643" stroke-miterlimit="10"/>
<path id="Vector_6" d="M91.4415 61.8085H85.7176C85.0255 58.2563 83.6262 54.8795 81.6029 51.8789L85.652 47.8314C85.8461 47.6374 86.0001 47.4072 86.1052 47.1537C86.2102 46.9002 86.2643 46.6285 86.2643 46.3542C86.2643 46.0798 86.2102 45.8081 86.1052 45.5546C86.0001 45.3011 85.8461 45.0709 85.652 44.877L81.2211 40.4476C81.0272 40.2535 80.7969 40.0995 80.5435 39.9944C80.29 39.8893 80.0183 39.8352 79.7439 39.8352C79.4695 39.8352 79.1978 39.8893 78.9444 39.9944C78.6909 40.0995 78.4606 40.2535 78.2667 40.4476L74.2191 44.4952C71.2169 42.472 67.8387 41.0728 64.2851 40.3805V34.6581C64.2851 34.3839 64.2311 34.1124 64.1262 33.8591C64.0213 33.6058 63.8675 33.3756 63.6736 33.1817C63.4797 32.9878 63.2495 32.8341 62.9962 32.7291C62.7429 32.6242 62.4714 32.5702 62.1972 32.5702H55.9335C55.3797 32.5702 54.8487 32.7902 54.4571 33.1817C54.0655 33.5733 53.8456 34.1044 53.8456 34.6581V40.3805C50.294 41.0731 46.9178 42.4723 43.9175 44.4952L39.8685 40.4476C39.6747 40.2535 39.4445 40.0995 39.1912 39.9945C38.9378 39.8894 38.6663 39.8354 38.392 39.8354C38.1177 39.8354 37.8462 39.8894 37.5928 39.9945C37.3395 40.0995 37.1093 40.2535 36.9155 40.4476L32.4847 44.877C32.2906 45.0709 32.1366 45.3011 32.0315 45.5546C31.9264 45.8081 31.8723 46.0798 31.8723 46.3542C31.8723 46.6285 31.9264 46.9002 32.0315 47.1537C32.1366 47.4072 32.2906 47.6374 32.4847 47.8314L36.5338 51.8789C34.5105 54.8795 33.1112 58.2563 32.4191 61.8085H26.7027C26.1489 61.8085 25.6178 62.0284 25.2263 62.42C24.8347 62.8116 24.6147 63.3426 24.6147 63.8964V70.1601C24.6147 70.7139 24.8347 71.2449 25.2263 71.6365C25.6178 72.0281 26.1489 72.248 26.7027 72.248H32.4265C33.1163 75.8013 34.5136 79.1796 36.5353 82.182L32.4862 86.2311C32.2921 86.4249 32.1381 86.655 32.0331 86.9084C31.928 87.1617 31.874 87.4333 31.874 87.7076C31.874 87.9818 31.928 88.2534 32.0331 88.5067C32.1381 88.7601 32.2921 88.9902 32.4862 89.184L36.917 93.6149C37.1109 93.8088 37.3411 93.9626 37.5944 94.0675C37.8478 94.1725 38.1193 94.2265 38.3935 94.2265C38.6677 94.2265 38.9392 94.1725 39.1926 94.0675C39.4459 93.9626 39.6761 93.8088 39.8699 93.6149L43.919 89.5673C46.9191 91.5889 50.2947 92.9871 53.8456 93.679V99.4014C53.8456 99.9551 54.0655 100.486 54.4571 100.878C54.8487 101.269 55.3797 101.489 55.9335 101.489H62.1972C62.751 101.489 63.282 101.269 63.6736 100.878C64.0652 100.486 64.2851 99.9551 64.2851 99.4014V93.679C67.8371 92.9861 71.2137 91.5869 74.2147 89.5643L78.2622 93.6119C78.4561 93.806 78.6864 93.96 78.9399 94.0651C79.1934 94.1702 79.4651 94.2242 79.7394 94.2242C80.0138 94.2242 80.2855 94.1702 80.539 94.0651C80.7925 93.96 81.0227 93.806 81.2166 93.6119L85.6475 89.181C85.8414 88.9871 85.9952 88.757 86.1002 88.5036C86.2051 88.2503 86.2591 87.9788 86.2591 87.7046C86.2591 87.4304 86.2051 87.1589 86.1002 86.9055C85.9952 86.6522 85.8414 86.422 85.6475 86.2281L81.6029 82.182C83.626 79.1819 85.0253 75.8057 85.7176 72.254H91.4415C91.9952 72.254 92.5263 72.034 92.9178 71.6425C93.3094 71.2509 93.5294 70.7198 93.5294 70.1661V63.9023C93.5302 63.6277 93.4767 63.3555 93.3722 63.1015C93.2676 62.8475 93.1139 62.6166 92.9199 62.4221C92.726 62.2276 92.4956 62.0733 92.2419 61.968C91.9881 61.8627 91.7161 61.8085 91.4415 61.8085ZM59.0683 82.6876C55.7088 82.687 52.4386 81.6059 49.7407 79.6042C47.0427 77.6024 45.06 74.7861 44.0854 71.5711C43.1108 68.356 43.196 64.9128 44.3284 61.75C45.4607 58.5871 47.5803 55.8722 50.3739 54.0063C53.1676 52.1404 56.4873 51.2224 59.8427 51.3879C63.1981 51.5534 66.4113 52.7936 69.0078 54.9253C71.6043 57.057 73.4465 59.9672 74.2621 63.2262C75.0778 66.4852 74.8238 69.92 73.5376 73.0236C72.3525 75.8863 70.3449 78.3332 67.7687 80.0545C65.1926 81.7758 62.1637 82.6943 59.0653 82.6936L59.0683 82.6876Z" stroke="#45413C" stroke-width="1.50643" stroke-linecap="round" stroke-linejoin="round"/>
<path id="Vector_7" d="M74.2681 118.861C84.4422 118.861 92.691 117.83 92.691 116.558C92.691 115.286 84.4437 114.255 74.2681 114.255C64.094 114.255 55.8452 115.286 55.8452 116.558C55.8452 117.83 64.0925 118.861 74.2681 118.861Z" fill="#45413C" fill-opacity="0.15"/>
<path id="Vector_8" d="M125.323 94.2173L123.947 93.4238C124.776 90.5052 124.776 87.4136 123.947 84.495L125.323 83.7001C125.561 83.563 125.769 83.3804 125.936 83.1628C126.103 82.9451 126.225 82.6968 126.296 82.4318C126.367 82.1669 126.385 81.8906 126.349 81.6187C126.313 81.3468 126.224 81.0846 126.087 80.8471L123.999 77.2291C123.722 76.7498 123.266 76.4001 122.731 76.2569C122.196 76.1138 121.627 76.1888 121.147 76.4655L119.778 77.2559C117.651 75.0936 114.975 73.552 112.038 72.7967V71.2069C112.038 70.6532 111.818 70.1221 111.426 69.7306C111.035 69.339 110.504 69.119 109.95 69.119H105.774C105.5 69.119 105.229 69.173 104.975 69.278C104.722 69.3829 104.492 69.5367 104.298 69.7306C104.104 69.9244 103.95 70.1546 103.845 70.4079C103.74 70.6612 103.686 70.9327 103.686 71.2069V72.7982C100.749 73.553 98.0731 75.0942 95.9461 77.2559L94.5771 76.4655C94.0978 76.1892 93.5284 76.1145 92.9941 76.2577C92.4597 76.4008 92.004 76.7502 91.7271 77.2291L89.6391 80.8471C89.5019 81.0846 89.4128 81.3468 89.3769 81.6187C89.341 81.8906 89.359 82.1669 89.4299 82.4318C89.5008 82.6968 89.6232 82.9451 89.7901 83.1628C89.957 83.3804 90.1652 83.563 90.4027 83.7001L91.7793 84.495C90.95 87.4135 90.95 90.5053 91.7793 93.4238L90.4027 94.2173C89.9233 94.4945 89.5737 94.9508 89.4305 95.4857C89.2873 96.0207 89.3624 96.5906 89.6391 97.0702L91.7271 100.688C91.8642 100.926 92.0468 101.134 92.2644 101.301C92.482 101.468 92.7304 101.59 92.9954 101.661C93.2603 101.732 93.5366 101.75 93.8085 101.714C94.0804 101.678 94.3426 101.589 94.58 101.452L95.9491 100.661C98.0761 102.823 100.752 104.364 103.689 105.119V106.71C103.689 107.264 103.909 107.795 104.301 108.187C104.692 108.578 105.223 108.798 105.777 108.798H109.953C110.507 108.798 111.038 108.578 111.429 108.187C111.821 107.795 112.041 107.264 112.041 106.71V105.119C114.978 104.364 117.654 102.822 119.781 100.66L121.15 101.45C121.629 101.727 122.199 101.802 122.734 101.66C123.268 101.517 123.725 101.167 124.002 100.688L126.09 97.0702C126.227 96.8326 126.316 96.5703 126.351 96.2983C126.387 96.0262 126.369 95.7498 126.298 95.4849C126.226 95.2199 126.104 94.9716 125.937 94.7541C125.769 94.5366 125.561 94.3542 125.323 94.2173ZM107.861 98.3573C105.369 98.3573 102.979 97.3673 101.216 95.6052C99.4543 93.843 98.4643 91.453 98.4643 88.9609C98.4643 86.4689 99.4543 84.0789 101.216 82.3167C102.979 80.5545 105.369 79.5646 107.861 79.5646C110.353 79.5646 112.742 80.5545 114.504 82.3165C116.266 84.0785 117.256 86.4683 117.256 88.9602C117.256 91.4521 116.266 93.8419 114.504 95.6039C112.742 97.3659 110.353 98.3558 107.861 98.3558V98.3573Z" fill="#8CA4B8"/>
<path id="Vector_9" d="M121.146 76.4655L119.777 77.2559C117.65 75.0936 114.974 73.552 112.037 72.7967V71.2069C112.037 70.6532 111.817 70.1221 111.425 69.7306C111.033 69.339 110.502 69.119 109.949 69.119H105.773C105.219 69.119 104.688 69.339 104.296 69.7306C103.905 70.1221 103.685 70.6532 103.685 71.2069V72.7982C100.747 73.5538 98.0708 75.0966 95.9446 77.2604L94.5741 76.47C94.0956 76.1943 93.5274 76.1194 92.9938 76.2617C92.4602 76.4039 92.0048 76.7518 91.7271 77.2291L89.6391 80.8471C89.5019 81.0846 89.4128 81.3468 89.3769 81.6187C89.341 81.8906 89.359 82.1669 89.4299 82.4318C89.5008 82.6968 89.6232 82.9451 89.7901 83.1628C89.957 83.3804 90.1652 83.563 90.4027 83.7001L91.7793 84.4935C90.9501 87.4126 90.9501 90.5048 91.7793 93.4238L90.4027 94.2173C89.9233 94.4945 89.5737 94.9508 89.4305 95.4857C89.2873 96.0207 89.3624 96.5906 89.6391 97.0702L91.7271 100.688C91.8642 100.926 92.0468 101.134 92.2644 101.301C92.482 101.468 92.7304 101.59 92.9954 101.661C93.2603 101.732 93.5366 101.75 93.8085 101.714C94.0804 101.678 94.3426 101.589 94.58 101.452L95.9506 100.661C96.2489 100.96 96.5546 101.248 96.8663 101.525L102.049 96.341C101.01 95.5179 100.158 94.4845 99.5473 93.3087C98.9365 92.1328 98.5814 90.8411 98.5052 89.5183C98.429 88.1955 98.6335 86.8716 99.1051 85.6334C99.5768 84.3952 100.305 83.2708 101.242 82.3339C102.179 81.3971 103.303 80.669 104.542 80.1975C105.78 79.7259 107.104 79.5216 108.427 79.598C109.749 79.6743 111.041 80.0296 112.217 80.6404C113.393 81.2513 114.426 82.1039 115.249 83.1423L122.206 76.1851C121.834 76.1814 121.468 76.2783 121.146 76.4655Z" fill="#ADC4D9"/>
<path id="Vector_10" d="M125.323 94.2173L123.947 93.4238C124.776 90.5052 124.776 87.4136 123.947 84.495L125.323 83.7001C125.561 83.563 125.769 83.3804 125.936 83.1628C126.103 82.9451 126.225 82.6968 126.296 82.4318C126.367 82.1669 126.385 81.8906 126.349 81.6187C126.313 81.3468 126.224 81.0846 126.087 80.8471L123.999 77.2291C123.722 76.7498 123.266 76.4001 122.731 76.2569C122.196 76.1138 121.627 76.1888 121.147 76.4655L119.778 77.2559C117.651 75.0936 114.975 73.552 112.038 72.7967V71.2069C112.038 70.6532 111.818 70.1221 111.426 69.7306C111.035 69.339 110.504 69.119 109.95 69.119H105.774C105.5 69.119 105.229 69.173 104.975 69.278C104.722 69.3829 104.492 69.5367 104.298 69.7306C104.104 69.9244 103.95 70.1546 103.845 70.4079C103.74 70.6612 103.686 70.9327 103.686 71.2069V72.7982C100.749 73.553 98.0731 75.0942 95.9461 77.2559L94.5771 76.4655C94.0978 76.1892 93.5284 76.1145 92.9941 76.2577C92.4597 76.4008 92.004 76.7502 91.7271 77.2291L89.6391 80.8471C89.5019 81.0846 89.4128 81.3468 89.3769 81.6187C89.341 81.8906 89.359 82.1669 89.4299 82.4318C89.5008 82.6968 89.6232 82.9451 89.7901 83.1628C89.957 83.3804 90.1652 83.563 90.4027 83.7001L91.7793 84.495C90.95 87.4135 90.95 90.5053 91.7793 93.4238L90.4027 94.2173C89.9233 94.4945 89.5737 94.9508 89.4305 95.4857C89.2873 96.0207 89.3624 96.5906 89.6391 97.0702L91.7271 100.688C91.8642 100.926 92.0468 101.134 92.2644 101.301C92.482 101.468 92.7304 101.59 92.9954 101.661C93.2603 101.732 93.5366 101.75 93.8085 101.714C94.0804 101.678 94.3426 101.589 94.58 101.452L95.9491 100.661C98.0761 102.823 100.752 104.364 103.689 105.119V106.71C103.689 107.264 103.909 107.795 104.301 108.187C104.692 108.578 105.223 108.798 105.777 108.798H109.953C110.507 108.798 111.038 108.578 111.429 108.187C111.821 107.795 112.041 107.264 112.041 106.71V105.119C114.978 104.364 117.654 102.822 119.781 100.66L121.15 101.45C121.629 101.727 122.199 101.802 122.734 101.66C123.268 101.517 123.725 101.167 124.002 100.688L126.09 97.0702C126.227 96.8326 126.316 96.5703 126.351 96.2983C126.387 96.0262 126.369 95.7498 126.298 95.4849C126.226 95.2199 126.104 94.9716 125.937 94.7541C125.769 94.5366 125.561 94.3542 125.323 94.2173ZM107.861 98.3573C105.369 98.3573 102.979 97.3673 101.216 95.6052C99.4543 93.843 98.4643 91.453 98.4643 88.9609C98.4643 86.4689 99.4543 84.0789 101.216 82.3167C102.979 80.5545 105.369 79.5646 107.861 79.5646C110.353 79.5646 112.742 80.5545 114.504 82.3165C116.266 84.0785 117.256 86.4683 117.256 88.9602C117.256 91.4521 116.266 93.8419 114.504 95.6039C112.742 97.3659 110.353 98.3558 107.861 98.3558V98.3573Z" stroke="#45413C" stroke-width="1.50643" stroke-miterlimit="10"/>
</g>
</svg>
