<svg width="151" height="151" viewBox="0 0 151 151" fill="none" xmlns="http://www.w3.org/2000/svg">
<g id="Paper-Plane--Streamline-Ux">
<path id="Vector" d="M13.3929 69.4832C13.3929 85.3046 19.678 100.478 30.8654 111.665C42.0528 122.853 57.2262 129.138 73.0477 129.138C88.8691 129.138 104.042 122.853 115.23 111.665C126.417 100.478 132.702 85.3046 132.702 69.4832C132.702 53.6618 126.417 38.4884 115.23 27.301C104.042 16.1135 88.8691 9.82849 73.0477 9.82849C57.2262 9.82849 42.0528 16.1135 30.8654 27.301C19.678 38.4884 13.3929 53.6618 13.3929 69.4832Z" fill="#DAEDF7" stroke="#DAEDF7" stroke-width="1.50643"/>
<path id="Vector_2" d="M47.7632 140.815C47.2661 140.716 46.7799 140.61 46.3047 140.498" stroke="#00B8F0" stroke-width="1.50643" stroke-linecap="round" stroke-linejoin="round"/>
<path id="Vector_3" d="M39.156 138.192C6.70384 124.431 19.285 78.2836 46.7351 89.0602C47.7892 89.5015 48.7207 90.1917 49.4498 91.0717C50.1788 91.9516 50.6838 92.9952 50.9214 94.1129C51.1718 95.2142 51.1747 96.3572 50.9299 97.4597C50.6852 98.5622 50.1989 99.5967 49.5061 100.489C48.0156 102.318 45.9634 103.604 43.6675 104.149C41.3716 104.693 38.9602 104.465 36.8071 103.5C18.6691 95.7266 31.2339 64.0231 53.1659 58.7228" stroke="#00B8F0" stroke-width="1.50643" stroke-linecap="round" stroke-linejoin="round"/>
<path id="Vector_4" d="M56.8792 58.095C57.3713 58.0472 57.8684 58.0129 58.3705 57.9921" stroke="#00B8F0" stroke-width="1.50643" stroke-linecap="round" stroke-linejoin="round"/>
<path id="Vector_5" d="M51.3448 33.079C51.0138 32.7099 50.8011 32.25 50.734 31.7588C50.6669 31.2675 50.7486 30.7675 50.9685 30.3231C51.1885 29.8788 51.5365 29.5105 51.9678 29.2659C52.3991 29.0213 52.8938 28.9116 53.388 28.9509L134.966 35.4294C135.474 35.4703 135.957 35.6667 136.349 35.9918C136.742 36.3169 137.024 36.755 137.159 37.2465C137.294 37.738 137.273 38.259 137.102 38.7387C136.93 39.2184 136.614 39.6334 136.198 39.9274L69.3024 87.0666C68.8973 87.3525 68.4157 87.5103 67.9199 87.5196C67.4242 87.529 66.937 87.3894 66.5214 87.119C66.1057 86.8485 65.7808 86.4597 65.5885 86.0026C65.3962 85.5455 65.3454 85.0413 65.4427 84.5551L71.0205 56.5084C71.0959 56.131 71.0824 55.7413 70.9809 55.37C70.8794 54.9988 70.6928 54.6563 70.4358 54.3698L51.3448 33.079Z" fill="white" stroke="#45413C" stroke-width="1.50643" stroke-linecap="round" stroke-linejoin="round"/>
<path id="Vector_6" d="M71.0212 56.508L65.4435 84.5547C65.347 85.0408 65.3983 85.5446 65.5908 86.0012C65.7833 86.4578 66.1081 86.8462 66.5235 87.1165C66.9388 87.3867 67.4256 87.5264 67.921 87.5174C68.4165 87.5085 68.8979 87.3513 69.3031 87.0662L136.2 39.927C136.617 39.6328 136.933 39.2172 137.105 38.7369C137.278 38.2566 137.298 37.7348 137.163 37.2426L70.9809 55.3701C71.0831 55.7411 71.0969 56.1308 71.0212 56.508Z" fill="#DAEDF7" stroke="#45413C" stroke-width="1.50643" stroke-linecap="round" stroke-linejoin="round"/>
</g>
</svg>
