<svg width="151" height="151" viewBox="0 0 151 151" fill="none" xmlns="http://www.w3.org/2000/svg">
<g id="Permanetly-Delete--Streamline-Ux">
<path id="Vector" d="M15.6658 79.0101C15.6658 94.8315 21.9508 110.005 33.1382 121.192C44.3257 132.38 59.4991 138.665 75.3205 138.665C91.1419 138.665 106.315 132.38 117.503 121.192C128.69 110.005 134.975 94.8315 134.975 79.0101C134.975 71.1761 133.432 63.4188 130.434 56.1812C127.436 48.9435 123.042 42.3673 117.503 36.8278C111.963 31.2884 105.387 26.8942 98.1494 23.8963C90.9117 20.8984 83.1545 19.3553 75.3205 19.3553C67.4865 19.3553 59.7293 20.8984 52.4916 23.8963C45.254 26.8942 38.6777 31.2884 33.1382 36.8278C27.5988 42.3673 23.2046 48.9435 20.2067 56.1812C17.2088 63.4188 15.6658 71.1761 15.6658 79.0101Z" fill="#DAEDF7" stroke="#DAEDF7" stroke-width="1.50643" stroke-linecap="round" stroke-linejoin="round"/>
<path id="Vector_2" d="M97.1312 67.0868C97.1312 67.7988 96.8483 68.4816 96.3449 68.985C95.8415 69.4885 95.1587 69.7713 94.4467 69.7713H58.4451C57.7331 69.7713 57.0503 69.4885 56.5469 68.985C56.0434 68.4816 55.7606 67.7988 55.7606 67.0868V24.1891C55.7606 23.4771 56.0434 22.7943 56.5469 22.2909C57.0503 21.7875 57.7331 21.5046 58.4451 21.5046H83.342V28.3649H73.83L73.9016 35.9873H83.6492L83.5955 42.9147H78.1356V50.5058H88.9242V44.4911L97.1267 44.6015L97.1312 67.0868Z" fill="#00B8F0"/>
<path id="Vector_3" d="M73.8986 35.9898L73.83 28.3659H83.345V21.5056H58.4451C57.7331 21.5056 57.0503 21.7884 56.5469 22.2919C56.0434 22.7953 55.7606 23.4781 55.7606 24.1901V57.6862L77.4585 35.9898H73.8986Z" fill="#4ACFFF"/>
<path id="Vector_4" d="M97.9409 125.134C97.8257 125.957 97.4168 126.711 96.7894 127.257C96.1621 127.802 95.3586 128.103 94.5271 128.103H55.8604C55.0289 128.103 54.2252 127.803 53.5978 127.257C52.9704 126.711 52.5615 125.957 52.4467 125.134L45.0256 72.0095H105.362L97.9409 125.134Z" fill="white"/>
<path id="Vector_5" d="M104.464 78.4328L105.362 72.0095H45.0256L45.9219 78.4328H104.464Z" fill="#DAEDF7"/>
<path id="Vector_6" d="M97.1312 67.0868C97.1312 67.7988 96.8483 68.4816 96.3449 68.985C95.8415 69.4885 95.1587 69.7713 94.4467 69.7713H58.4451C57.7331 69.7713 57.0503 69.4885 56.5469 68.985C56.0434 68.4816 55.7606 67.7988 55.7606 67.0868V24.1891C55.7606 23.4771 56.0434 22.7943 56.5469 22.2909C57.0503 21.7875 57.7331 21.5046 58.4451 21.5046H83.342V28.3649H73.83L73.9016 35.9873H83.6492L83.5955 42.9147H78.1356V50.5058H88.9242V44.4911L97.1267 44.6015L97.1312 67.0868Z" stroke="#45413C" stroke-width="1.50643" stroke-linecap="round" stroke-linejoin="round"/>
<path id="Vector_7" opacity="0.15" d="M54.5129 129.113C54.5129 129.798 56.6916 130.456 60.5698 130.94C64.4479 131.425 69.7078 131.697 75.1923 131.697C80.6767 131.697 85.9366 131.425 89.8147 130.94C93.6929 130.456 95.8716 129.798 95.8716 129.113C95.8716 128.427 93.6929 127.77 89.8147 127.285C85.9366 126.8 80.6767 126.528 75.1923 126.528C69.7078 126.528 64.4479 126.8 60.5698 127.285C56.6916 127.77 54.5129 128.427 54.5129 129.113Z" fill="#45413C"/>
<path id="Vector_8" d="M97.9409 125.134C97.8257 125.957 97.4168 126.711 96.7894 127.257C96.1621 127.802 95.3586 128.103 94.5271 128.103H55.8604C55.0289 128.103 54.2252 127.803 53.5978 127.257C52.9704 126.711 52.5615 125.957 52.4467 125.134L45.0256 72.0095H105.362L97.9409 125.134Z" stroke="#45413C" stroke-width="1.50643" stroke-linecap="round" stroke-linejoin="round"/>
<path id="Vector_9" d="M97.6714 35.1725H103.965V41.4661H97.6714V35.1725Z" fill="#00B8F0" stroke="#45413C" stroke-width="1.50643" stroke-linecap="round" stroke-linejoin="round"/>
<path id="Vector_10" d="M88.6991 25.5759H94.9927V31.8695H88.6991V25.5759Z" fill="#4ACFFF" stroke="#45413C" stroke-width="1.50643" stroke-linecap="round" stroke-linejoin="round"/>
<path id="Vector_11" d="M105.172 25.5759H111.466V31.8695H105.172V25.5759Z" fill="#4ACFFF" stroke="#45413C" stroke-width="1.50643" stroke-linecap="round" stroke-linejoin="round"/>
<path id="Vector_12" d="M117.151 17.7368H122.321V22.9074H117.151V17.7368Z" fill="#4ACFFF" stroke="#45413C" stroke-width="1.50643" stroke-linecap="round" stroke-linejoin="round"/>
<path id="Vector_13" d="M101.534 11.9788H106.705V17.1493H101.534V11.9788Z" fill="#4ACFFF" stroke="#45413C" stroke-width="1.50643" stroke-linecap="round" stroke-linejoin="round"/>
<path id="Vector_14" d="M116.36 33.5515H122.653V39.8451H116.36V33.5515Z" fill="#4ACFFF" stroke="#45413C" stroke-width="1.50643" stroke-linecap="round" stroke-linejoin="round"/>
<path id="Vector_15" d="M108.306 45.1713H113.477V50.3418H108.306V45.1713Z" fill="#00B8F0" stroke="#45413C" stroke-width="1.50643" stroke-linecap="round" stroke-linejoin="round"/>
<path id="Vector_16" d="M92.8702 95.5641C92.8702 96.5753 91.5056 97.394 89.8234 97.394C88.1411 97.394 86.775 96.5753 86.775 95.5641C86.775 94.553 88.1396 93.7357 89.8234 93.7357C91.5071 93.7357 92.8702 94.5604 92.8702 95.5641Z" fill="#FFCCDD"/>
<path id="Vector_17" d="M57.5172 95.5641C57.5172 96.5753 58.8803 97.394 60.5641 97.394C62.2478 97.394 63.6124 96.5753 63.6124 95.5641C63.6124 94.553 62.2478 93.7357 60.5641 93.7357C58.8803 93.7357 57.5172 94.5604 57.5172 95.5641Z" fill="#FFCCDD"/>
<path id="Vector_18" d="M64.6161 88.2508C64.6161 88.5475 64.6745 88.8413 64.7881 89.1154C64.9016 89.3895 65.0681 89.6386 65.2779 89.8484C65.4877 90.0582 65.7367 90.2246 66.0109 90.3382C66.285 90.4517 66.5788 90.5102 66.8755 90.5102C67.1722 90.5102 67.466 90.4517 67.7402 90.3382C68.0143 90.2246 68.2634 90.0582 68.4732 89.8484C68.683 89.6386 68.8494 89.3895 68.9629 89.1154C69.0765 88.8413 69.1349 88.5475 69.1349 88.2508C69.1349 87.954 69.0765 87.6602 68.9629 87.3861C68.8494 87.112 68.683 86.8629 68.4732 86.6531C68.2634 86.4433 68.0143 86.2769 67.7402 86.1633C67.466 86.0498 67.1722 85.9913 66.8755 85.9913C66.5788 85.9913 66.285 86.0498 66.0109 86.1633C65.7367 86.2769 65.4877 86.4433 65.2779 86.6531C65.0681 86.8629 64.9016 87.112 64.7881 87.3861C64.6745 87.6602 64.6161 87.954 64.6161 88.2508Z" fill="#45413C"/>
<path id="Vector_19" d="M75.1931 110.194C77.9691 110.254 80.673 109.307 82.8056 107.529C84.9382 105.751 86.3555 103.261 86.796 100.52C86.8174 100.355 86.7982 100.187 86.7399 100.031C86.6817 99.8749 86.5863 99.7355 86.4619 99.6249C86.3337 99.5096 86.1812 99.4247 86.0157 99.3764C85.8502 99.3281 85.676 99.3177 85.5059 99.346C78.6747 100.439 71.713 100.439 64.8818 99.346C64.7117 99.3177 64.5375 99.3281 64.372 99.3764C64.2065 99.4247 64.054 99.5096 63.9258 99.6249C63.8014 99.7355 63.706 99.8749 63.6478 100.031C63.5896 100.187 63.5703 100.355 63.5918 100.52C64.0321 103.261 65.4493 105.75 67.5815 107.529C69.7138 109.307 72.4173 110.253 75.1931 110.194Z" fill="#FFB0CA" stroke="#45413C" stroke-width="1.50643" stroke-linecap="round" stroke-linejoin="round"/>
<path id="Vector_20" d="M75.1924 104.916C72.2519 104.838 69.3341 105.451 66.6737 106.706C68.9445 108.944 72.0048 110.199 75.1931 110.199C78.3815 110.199 81.4418 108.944 83.7126 106.706C81.0516 105.451 78.1334 104.838 75.1924 104.916Z" fill="#FF87AF" stroke="#45413C" stroke-width="1.50643" stroke-linecap="round" stroke-linejoin="round"/>
<path id="Vector_21" d="M85.4462 85.6646L82.1428 88.2506L85.476 90.51" stroke="#45413C" stroke-width="1.50643" stroke-linecap="round" stroke-linejoin="round"/>
<path id="Vector_22" d="M108.319 68.8387C108.319 67.9978 107.985 67.1914 107.39 66.5968C106.796 66.0021 105.989 65.6681 105.148 65.6681H45.2385C44.3976 65.6681 43.5911 66.0021 42.9965 66.5968C42.4019 67.1914 42.0679 67.9978 42.0679 68.8387C42.0679 69.6796 42.4019 70.4861 42.9965 71.0807C43.5911 71.6753 44.3976 72.0094 45.2385 72.0094H105.148C105.989 72.0094 106.796 71.6753 107.39 71.0807C107.985 70.4861 108.319 69.6796 108.319 68.8387Z" fill="white" stroke="#45413C" stroke-width="1.50643" stroke-linecap="round" stroke-linejoin="round"/>
</g>
</svg>
