<svg width="151" height="151" viewBox="0 0 151 151" fill="none" xmlns="http://www.w3.org/2000/svg">
<g id="Phone-Compatibility--Streamline-Ux">
<path id="Vector" d="M15.3839 79.8137C15.3839 95.6351 21.6689 110.808 32.8564 121.996C44.0438 133.183 59.2172 139.468 75.0386 139.468C90.86 139.468 106.033 133.183 117.221 121.996C128.408 110.808 134.693 95.6351 134.693 79.8137C134.693 63.9922 128.408 48.8188 117.221 37.6314C106.033 26.444 90.86 20.1589 75.0386 20.1589C59.2172 20.1589 44.0438 26.444 32.8564 37.6314C21.6689 48.8188 15.3839 63.9922 15.3839 79.8137Z" fill="#DAEDF7" stroke="#DAEDF7" stroke-width="1.50643"/>
<path id="Vector_2" d="M30.8005 43.3482C30.8001 42.6613 30.9351 41.9811 31.1977 41.3465C31.4603 40.7119 31.8454 40.1352 32.331 39.6495C32.8166 39.1637 33.3932 38.7785 34.0277 38.5157C34.6623 38.2529 35.3424 38.1177 36.0293 38.1179H63.1498C63.8366 38.1179 64.5166 38.2532 65.1511 38.5161C65.7856 38.7789 66.3621 39.1642 66.8476 39.6499C67.3332 40.1356 67.7183 40.7122 67.981 41.3467C68.2436 41.9813 68.3787 42.6614 68.3785 43.3482V101.512C68.3785 102.898 67.8277 104.228 66.8471 105.209C65.8665 106.189 64.5365 106.74 63.1498 106.74H36.0293C34.6425 106.74 33.3126 106.189 32.332 105.209C31.3514 104.228 30.8005 102.898 30.8005 101.512V43.3482Z" fill="white"/>
<path id="Vector_3" d="M30.8005 101.51C30.8005 102.897 31.3514 104.227 32.332 105.208C33.3126 106.188 34.6425 106.739 36.0293 106.739H63.1498C64.5365 106.739 65.8665 106.188 66.8471 105.208C67.8277 104.227 68.3785 102.897 68.3785 101.51V98.2427C68.3785 99.6294 67.8277 100.959 66.8471 101.94C65.8665 102.921 64.5365 103.471 63.1498 103.471H36.0293C34.6425 103.471 33.3126 102.921 32.332 101.94C31.3514 100.959 30.8005 99.6294 30.8005 98.2427V101.51Z" fill="#DAEDF7"/>
<path id="Vector_4" d="M30.8005 43.3482C30.8001 42.6613 30.9351 41.9811 31.1977 41.3465C31.4603 40.7119 31.8454 40.1352 32.331 39.6495C32.8166 39.1637 33.3932 38.7785 34.0277 38.5157C34.6623 38.2529 35.3424 38.1177 36.0293 38.1179H63.1498C63.8366 38.1179 64.5166 38.2532 65.1511 38.5161C65.7856 38.7789 66.3621 39.1642 66.8476 39.6499C67.3332 40.1356 67.7183 40.7122 67.981 41.3467C68.2436 41.9813 68.3787 42.6614 68.3785 43.3482V101.512C68.3785 102.898 67.8277 104.228 66.8471 105.209C65.8665 106.189 64.5365 106.74 63.1498 106.74H36.0293C34.6425 106.74 33.3126 106.189 32.332 105.209C31.3514 104.228 30.8005 102.898 30.8005 101.512V43.3482Z" stroke="#45413C" stroke-width="1.50643" stroke-linecap="round" stroke-linejoin="round"/>
<path id="Vector_5" d="M34.0692 47.921H65.112V96.1191H34.0692V47.921Z" fill="#00B8F0"/>
<path id="Vector_6" d="M34.0692 73.9558L60.104 47.921H34.0692V73.9558Z" fill="#4ACFFF"/>
<path id="Vector_7" d="M34.0692 47.921H65.112V96.1191H34.0692V47.921Z" stroke="#45413C" stroke-width="1.50643" stroke-linecap="round" stroke-linejoin="round"/>
<path id="Vector_8" d="M47.957 43.0204L56.9425 43.0189" stroke="#45413C" stroke-width="1.50643" stroke-linecap="round" stroke-linejoin="round"/>
<path id="Vector_9" d="M44.546 43.0201C44.546 43.315 44.4585 43.6034 44.2946 43.8486C44.1308 44.0939 43.8978 44.285 43.6253 44.3979C43.3528 44.5108 43.0529 44.5403 42.7636 44.4828C42.4744 44.4252 42.2086 44.2832 42 44.0746C41.7915 43.866 41.6494 43.6003 41.5919 43.311C41.5343 43.0217 41.5639 42.7218 41.6768 42.4493C41.7896 42.1768 41.9808 41.9439 42.226 41.78C42.4713 41.6162 42.7596 41.5287 43.0546 41.5287C43.4501 41.5287 43.8295 41.6858 44.1092 41.9655C44.3888 42.2452 44.546 42.6245 44.546 43.0201Z" fill="#45413C"/>
<path id="Vector_10" d="M47.353 101.429C47.353 102.023 47.5887 102.592 48.0082 103.011C48.4278 103.431 48.9968 103.666 49.5901 103.666C50.1834 103.666 50.7524 103.431 51.1719 103.011C51.5914 102.592 51.8271 102.023 51.8271 101.429C51.8271 100.836 51.5914 100.267 51.1719 99.8476C50.7524 99.4281 50.1834 99.1924 49.5901 99.1924C48.9968 99.1924 48.4278 99.4281 48.0082 99.8476C47.5887 100.267 47.353 100.836 47.353 101.429Z" fill="white" stroke="#45413C" stroke-width="1.50643" stroke-linecap="round" stroke-linejoin="round"/>
<path id="Vector_11" d="M44.8982 65.4787C45.8944 62.7555 46.7594 60.4081 49.5558 60.4081C52.4237 60.4081 53.2842 62.757 54.2879 65.4862L59.6777 80.027C60.1803 81.1125 60.4617 82.2872 60.5054 83.4825C60.4932 83.8144 60.4119 84.1401 60.2667 84.4387C60.1215 84.7373 59.9156 85.0024 59.662 85.2169C59.4085 85.4314 59.113 85.5906 58.7945 85.6843C58.4759 85.7781 58.1413 85.8043 57.812 85.7613C55.9806 85.7613 55.3945 84.5876 54.8755 83.0321L54.185 80.8219H44.9966L44.3017 83.0306C43.7842 84.5861 43.1966 85.7598 41.3652 85.7598C41.0359 85.8028 40.7012 85.7766 40.3827 85.6828C40.0641 85.5891 39.7686 85.4299 39.5151 85.2154C39.2616 85.0009 39.0556 84.7358 38.9104 84.4372C38.7652 84.1386 38.6839 83.8129 38.6718 83.481C38.7154 82.2857 38.9968 81.111 39.4995 80.0255L44.8982 65.4787ZM49.7332 66.6181H49.6646L46.6595 75.6335H52.531L49.7332 66.6181Z" fill="white" stroke="#00658A" stroke-width="1.50643" stroke-linecap="round" stroke-linejoin="round"/>
<path id="Vector_12" d="M73.5411 31.7736C73.5409 30.9263 73.7077 30.0872 74.0318 29.3044C74.356 28.5215 74.8312 27.8102 75.4304 27.2111C76.0295 26.612 76.7408 26.1368 77.5236 25.8126C78.3065 25.4884 79.1455 25.3217 79.9928 25.3219H113.45C114.297 25.3217 115.136 25.4884 115.919 25.8126C116.702 26.1368 117.413 26.612 118.013 27.2111C118.612 27.8102 119.087 28.5215 119.411 29.3044C119.735 30.0872 119.902 30.9263 119.902 31.7736V103.529C119.902 104.376 119.735 105.215 119.411 105.998C119.087 106.78 118.612 107.491 118.013 108.09C117.414 108.689 116.703 109.164 115.92 109.488C115.137 109.813 114.299 109.979 113.452 109.979H79.9928C78.2818 109.979 76.6411 109.299 75.4312 108.089C74.2214 106.88 73.5415 105.239 73.5411 103.528V31.7736Z" fill="white"/>
<path id="Vector_13" d="M73.5411 103.529C73.5415 105.24 74.2214 106.881 75.4312 108.091C76.6411 109.301 78.2818 109.981 79.9928 109.981H113.452C114.299 109.981 115.137 109.814 115.92 109.49C116.703 109.166 117.414 108.691 118.013 108.092C118.612 107.493 119.087 106.782 119.411 105.999C119.735 105.217 119.902 104.378 119.902 103.531V99.5043C119.902 101.215 119.222 102.856 118.013 104.065C116.803 105.275 115.162 105.954 113.452 105.954H79.9928C79.1456 105.955 78.3067 105.788 77.524 105.464C76.7412 105.14 76.03 104.665 75.4309 104.066C74.8318 103.467 74.3565 102.756 74.0323 101.973C73.708 101.19 73.5411 100.351 73.5411 99.5043V103.529Z" fill="#DAEDF7"/>
<path id="Vector_14" d="M119.901 53.9949V31.7736C119.901 30.9263 119.735 30.0874 119.41 29.3046C119.086 28.5219 118.611 27.8106 118.012 27.2115C117.413 26.6125 116.701 26.1372 115.919 25.813C115.136 25.4888 114.297 25.3219 113.45 25.3219H92.6765C91.8181 29.1354 91.9127 33.1016 92.9517 36.8698C93.9908 40.6381 95.9423 44.0923 98.6338 46.9269C101.325 49.7616 104.674 51.8894 108.383 53.1221C112.093 54.3549 116.049 54.6547 119.901 53.9949Z" fill="#E0E0E0"/>
<path id="Vector_15" d="M73.5411 31.7736C73.5409 30.9263 73.7077 30.0872 74.0318 29.3044C74.356 28.5215 74.8312 27.8102 75.4304 27.2111C76.0295 26.612 76.7408 26.1368 77.5236 25.8126C78.3065 25.4884 79.1455 25.3217 79.9928 25.3219H113.45C114.297 25.3217 115.136 25.4884 115.919 25.8126C116.702 26.1368 117.413 26.612 118.013 27.2111C118.612 27.8102 119.087 28.5215 119.411 29.3044C119.735 30.0872 119.902 30.9263 119.902 31.7736V103.529C119.902 104.376 119.735 105.215 119.411 105.998C119.087 106.78 118.612 107.491 118.013 108.09C117.414 108.689 116.703 109.164 115.92 109.488C115.137 109.813 114.299 109.979 113.452 109.979H79.9928C78.2818 109.979 76.6411 109.299 75.4312 108.089C74.2214 106.879 73.5415 105.239 73.5411 103.528V31.7736Z" stroke="#45413C" stroke-width="1.50643" stroke-linecap="round" stroke-linejoin="round"/>
<path id="Vector_16" d="M77.5724 37.4159H115.871V96.8782H77.5724V37.4159Z" fill="#00B8F0"/>
<path id="Vector_17" d="M77.5724 69.534L109.693 37.4159H77.5724V69.534Z" fill="#4ACFFF"/>
<path id="Vector_18" d="M93.1039 37.4159C94.5827 42.305 97.5941 46.5891 101.693 49.6362C105.793 52.6832 110.763 54.3317 115.871 54.3385V37.4159H93.1039Z" fill="#00B8F0"/>
<path id="Vector_19" d="M77.5724 37.4159H115.871V96.8782H77.5724V37.4159Z" stroke="#45413C" stroke-width="1.50643" stroke-linecap="round" stroke-linejoin="round"/>
<path id="Vector_20" d="M94.707 31.3701L105.792 31.3687" stroke="#45413C" stroke-width="1.50643" stroke-linecap="round" stroke-linejoin="round"/>
<path id="Vector_21" d="M90.1502 31.3697C90.1502 31.6646 90.0627 31.953 89.8989 32.1982C89.735 32.4435 89.5021 32.6346 89.2296 32.7475C88.9571 32.8604 88.6572 32.8899 88.3679 32.8324C88.0786 32.7748 87.8129 32.6328 87.6043 32.4242C87.3957 32.2157 87.2537 31.9499 87.1961 31.6606C87.1386 31.3713 87.1681 31.0715 87.281 30.7989C87.3939 30.5264 87.585 30.2935 87.8303 30.1296C88.0755 29.9658 88.3639 29.8783 88.6588 29.8783C89.0544 29.8783 89.4337 30.0354 89.7134 30.3151C89.9931 30.5948 90.1502 30.9741 90.1502 31.3697Z" fill="#45413C"/>
<path id="Vector_22" d="M93.7385 103.43C93.7385 104.221 94.0528 104.979 94.6121 105.539C95.1715 106.098 95.9302 106.412 96.7213 106.412C97.5123 106.412 98.271 106.098 98.8304 105.539C99.3897 104.979 99.704 104.221 99.704 103.43C99.704 102.639 99.3897 101.88 98.8304 101.321C98.271 100.761 97.5123 100.447 96.7213 100.447C95.9302 100.447 95.1715 100.761 94.6121 101.321C94.0528 101.88 93.7385 102.639 93.7385 103.43Z" fill="white" stroke="#45413C" stroke-width="1.50643" stroke-linecap="round" stroke-linejoin="round"/>
<path id="Vector_23" d="M86.0241 55.272C86.007 54.8081 86.0858 54.3456 86.2554 53.9134C86.4251 53.4813 86.6821 53.0888 87.0103 52.7604C87.3385 52.4321 87.7309 52.175 88.1629 52.0051C88.595 51.8352 89.0575 51.7563 89.5214 51.7732H97.7717C103.082 51.7732 106.407 55.0542 106.407 59.8057C106.369 61.0219 106.01 62.2064 105.365 63.2383C104.72 64.2701 103.813 65.1123 102.736 65.6788C104.505 65.9798 106.104 66.9107 107.24 68.2995C108.375 69.6883 108.969 71.4412 108.912 73.234C108.912 78.1138 105.759 82.5193 98.2027 82.5193H89.5214C89.0575 82.5362 88.595 82.4573 88.1629 82.2874C87.7309 82.1176 87.3385 81.8604 87.0103 81.5321C86.6821 81.2037 86.4251 80.8112 86.2554 80.3791C86.0858 79.947 86.007 79.4845 86.0241 79.0205V55.272ZM93.0187 63.7728H96.2162C98.2027 63.7728 99.4122 62.7795 99.4122 60.8795C99.4122 58.9795 98.2444 57.9863 96.2162 57.9863H93.0187V63.7728ZM93.0187 76.3003H97.4257C99.7582 76.3003 101.657 75.48 101.657 73.1475C101.657 70.815 99.4972 69.9978 97.4257 69.9978H93.0187V76.3003Z" fill="white" stroke="#00658A" stroke-width="1.50643" stroke-linecap="round" stroke-linejoin="round"/>
<path id="Vector_24" opacity="0.15" d="M80.3162 123.954C80.3162 124.289 80.7405 124.622 81.5649 124.932C82.3894 125.242 83.5977 125.524 85.1211 125.761C86.6444 125.998 88.4529 126.187 90.4433 126.315C92.4336 126.444 94.5669 126.51 96.7212 126.51C98.8756 126.51 101.009 126.444 102.999 126.315C104.99 126.187 106.798 125.998 108.321 125.761C109.845 125.524 111.053 125.242 111.877 124.932C112.702 124.622 113.126 124.289 113.126 123.954C113.126 123.276 111.398 122.625 108.321 122.146C105.245 121.667 101.072 121.397 96.7212 121.397C92.3703 121.397 88.1976 121.667 85.1211 122.146C82.0445 122.625 80.3162 123.276 80.3162 123.954Z" fill="#45413C"/>
<path id="Vector_25" opacity="0.15" d="M37.6588 116.151C37.6588 116.386 37.9674 116.619 38.567 116.837C39.1666 117.054 40.0454 117.251 41.1533 117.418C42.2612 117.584 43.5765 117.716 45.024 117.806C46.4715 117.896 48.023 117.942 49.5898 117.942C51.1566 117.942 52.708 117.896 54.1555 117.806C55.6031 117.716 56.9183 117.584 58.0262 117.418C59.1341 117.251 60.0129 117.054 60.6125 116.837C61.2121 116.619 61.5207 116.386 61.5207 116.151C61.5207 115.676 60.2637 115.221 58.0262 114.885C55.7887 114.549 52.754 114.36 49.5898 114.36C46.4255 114.36 43.3908 114.549 41.1533 114.885C38.9158 115.221 37.6588 115.676 37.6588 116.151Z" fill="#45413C"/>
<path id="Vector_26" d="M96.4844 30.5625C96.4844 35.7044 98.527 40.6358 102.163 44.2717C105.799 47.9076 110.73 49.9503 115.872 49.9503C121.014 49.9503 125.945 47.9076 129.581 44.2717C133.217 40.6358 135.26 35.7044 135.26 30.5625C135.26 28.0164 134.758 25.4953 133.784 23.1431C132.81 20.7908 131.382 18.6536 129.581 16.8532C127.781 15.0529 125.644 13.6248 123.292 12.6505C120.939 11.6762 118.418 11.1747 115.872 11.1747C113.326 11.1747 110.805 11.6762 108.453 12.6505C106.101 13.6248 103.963 15.0529 102.163 16.8532C100.363 18.6536 98.9345 20.7908 97.9602 23.1431C96.9859 25.4953 96.4844 28.0164 96.4844 30.5625Z" fill="#6DD627"/>
<path id="Vector_27" d="M134.912 34.2301C134.075 29.7929 131.714 25.7876 128.237 22.9059C124.761 20.0243 120.387 18.4473 115.871 18.4473C111.356 18.4473 106.982 20.0243 103.505 22.9059C100.029 25.7876 97.6678 29.7929 96.8301 34.2301C96.2925 31.4258 96.381 28.5373 97.0892 25.7711C97.7974 23.005 99.1079 20.4294 100.927 18.2284C102.746 16.0274 105.029 14.2555 107.612 13.0391C110.196 11.8227 113.016 11.192 115.871 11.192C118.727 11.192 121.547 11.8227 124.13 13.0391C126.713 14.2555 128.996 16.0274 130.815 18.2284C132.634 20.4294 133.945 23.005 134.653 25.7711C135.361 28.5373 135.45 31.4258 134.912 34.2301Z" fill="#9CEB60"/>
<path id="Vector_28" d="M96.4844 30.5625C96.4844 35.7044 98.527 40.6358 102.163 44.2717C105.799 47.9076 110.73 49.9503 115.872 49.9503C121.014 49.9503 125.945 47.9076 129.581 44.2717C133.217 40.6358 135.26 35.7044 135.26 30.5625C135.26 28.0164 134.758 25.4953 133.784 23.1431C132.81 20.7908 131.382 18.6536 129.581 16.8532C127.781 15.0529 125.644 13.6248 123.292 12.6505C120.939 11.6762 118.418 11.1747 115.872 11.1747C113.326 11.1747 110.805 11.6762 108.453 12.6505C106.101 13.6248 103.963 15.0529 102.163 16.8532C100.363 18.6536 98.9345 20.7908 97.9602 23.1431C96.9859 25.4953 96.4844 28.0164 96.4844 30.5625Z" stroke="#45413C" stroke-width="1.50643" stroke-linecap="round" stroke-linejoin="round"/>
<path id="Vector_29" d="M111.95 40.1253C111.579 40.1257 111.212 40.0528 110.869 39.9107C110.527 39.7687 110.216 39.5603 109.954 39.2976L104.308 33.6512C103.779 33.122 103.481 32.4042 103.481 31.6558C103.481 30.9073 103.779 30.1896 104.308 29.6603C104.837 29.1311 105.555 28.8338 106.303 28.8338C107.052 28.8338 107.77 29.1311 108.299 29.6603L111.95 33.3097L123.444 21.8157C123.977 21.305 124.689 21.0234 125.427 21.0314C126.165 21.0394 126.871 21.3363 127.393 21.8585C127.915 22.3807 128.212 23.0866 128.22 23.8249C128.227 24.5632 127.945 25.2751 127.435 25.8081L113.948 39.3035C113.686 39.5655 113.374 39.7729 113.031 39.914C112.688 40.055 112.32 40.1268 111.95 40.1253Z" fill="white" stroke="#46B000" stroke-width="1.50643" stroke-linecap="round" stroke-linejoin="round"/>
</g>
</svg>
