<svg width="151" height="151" viewBox="0 0 151 151" fill="none" xmlns="http://www.w3.org/2000/svg">
<g id="Phone-Message--Streamline-Ux">
<path id="Vector" d="M14.2969 83.5156C14.2969 91.3495 15.8399 99.1068 18.8378 106.344C21.8358 113.582 26.2299 120.158 31.7693 125.698C37.3088 131.237 43.8851 135.631 51.1227 138.629C58.3604 141.627 66.1176 143.17 73.9516 143.17C81.7856 143.17 89.5428 141.627 96.7805 138.629C104.018 135.631 110.594 131.237 116.134 125.698C121.673 120.158 126.067 113.582 129.065 106.344C132.063 99.1068 133.606 91.3495 133.606 83.5156C133.606 75.6816 132.063 67.9243 129.065 60.6867C126.067 53.449 121.673 46.8728 116.134 41.3333C110.594 35.7938 104.018 31.3997 96.7805 28.4018C89.5428 25.4039 81.7856 23.8608 73.9516 23.8608C66.1176 23.8608 58.3604 25.4039 51.1227 28.4018C43.8851 31.3997 37.3088 35.7938 31.7693 41.3333C26.2299 46.8728 21.8358 53.449 18.8378 60.6867C15.8399 67.9243 14.2969 75.6816 14.2969 83.5156Z" fill="#DAEDF7" stroke="#DAEDF7" stroke-width="1.50643"/>
<path id="Vector_2" d="M89.3247 119.615C89.3249 120.49 89.1529 121.355 88.8185 122.163C88.4841 122.97 87.9938 123.704 87.3757 124.322C86.7576 124.94 86.0237 125.431 85.2161 125.765C84.4085 126.1 83.5429 126.272 82.6688 126.271H48.1525C47.2785 126.272 46.4129 126.1 45.6054 125.765C44.7978 125.431 44.0641 124.94 43.4461 124.322C42.8282 123.704 42.338 122.97 42.0038 122.163C41.6695 121.355 41.4977 120.489 41.498 119.615V45.5854C41.498 44.7116 41.6702 43.8463 42.0046 43.039C42.3391 42.2318 42.8292 41.4983 43.4472 40.8805C44.0651 40.2627 44.7987 39.7726 45.6061 39.4384C46.4134 39.1041 47.2787 38.9322 48.1525 38.9324H82.6702C84.4353 38.9328 86.1279 39.6342 87.3758 40.8824C88.6237 42.1306 89.3247 43.8233 89.3247 45.5883V119.615Z" fill="white"/>
<path id="Vector_3" d="M41.498 119.616C41.4977 120.49 41.6695 121.355 42.0038 122.163C42.338 122.971 42.8282 123.704 43.4461 124.323C44.0641 124.941 44.7978 125.431 45.6054 125.765C46.4129 126.1 47.2785 126.272 48.1525 126.272H82.6688C83.5429 126.272 84.4085 126.1 85.2161 125.765C86.0237 125.431 86.7576 124.941 87.3757 124.323C87.9938 123.705 88.4841 122.971 88.8185 122.163C89.1529 121.355 89.3249 120.49 89.3247 119.616V113.714C89.3247 115.48 88.6235 117.173 87.3752 118.421C86.127 119.669 84.434 120.37 82.6688 120.37H48.1525C47.2785 120.371 46.4129 120.198 45.6054 119.864C44.7978 119.53 44.0641 119.039 43.4461 118.421C42.8282 117.803 42.338 117.069 42.0038 116.262C41.6695 115.454 41.4977 114.588 41.498 113.714V119.616Z" fill="#DAEDF7"/>
<path id="Vector_4" d="M89.3247 119.615C89.3249 120.49 89.1529 121.355 88.8185 122.163C88.484 122.97 87.9938 123.704 87.3757 124.322C86.7576 124.94 86.0237 125.431 85.2161 125.765C84.4085 126.1 83.5429 126.272 82.6688 126.271H48.1525C47.2785 126.272 46.4129 126.1 45.6054 125.765C44.7978 125.431 44.0641 124.94 43.4461 124.322C42.8282 123.704 42.338 122.97 42.0038 122.163C41.6695 121.355 41.4977 120.489 41.498 119.615V45.5854C41.498 44.7116 41.6702 43.8463 42.0046 43.039C42.3391 42.2318 42.8292 41.4983 43.4472 40.8805C44.0651 40.2627 44.7987 39.7726 45.6061 39.4384C46.4134 39.1041 47.2787 38.9322 48.1525 38.9324H82.6703C84.4353 38.9328 86.1279 39.6342 87.3758 40.8824C88.6237 42.1306 89.3247 43.8233 89.3247 45.5883V119.615Z" stroke="#45413C" stroke-width="1.50643" stroke-linecap="round" stroke-linejoin="round"/>
<path id="Vector_5" d="M45.657 51.4061H85.1663V112.751H45.657V51.4061Z" fill="#00B8F0"/>
<path id="Vector_6" d="M45.657 84.5413L78.7922 51.4061H45.657V84.5413Z" fill="#4ACFFF"/>
<path id="Vector_7" d="M45.657 51.4061H85.1663V112.751H45.657V51.4061Z" stroke="#45413C" stroke-width="1.50643" stroke-linecap="round" stroke-linejoin="round"/>
<path id="Vector_8" d="M63.3313 45.1677H74.7686" stroke="#45413C" stroke-width="1.50643" stroke-linecap="round" stroke-linejoin="round"/>
<path id="Vector_9" d="M58.3841 45.1675C58.3841 45.4229 58.3083 45.6726 58.1664 45.885C58.0245 46.0974 57.8228 46.263 57.5868 46.3607C57.3508 46.4585 57.0911 46.484 56.8406 46.4342C56.5901 46.3844 56.3599 46.2614 56.1793 46.0807C55.9987 45.9001 55.8757 45.67 55.8258 45.4195C55.776 45.1689 55.8016 44.9093 55.8993 44.6733C55.9971 44.4373 56.1626 44.2356 56.375 44.0936C56.5874 43.9517 56.8371 43.876 57.0926 43.876C57.4351 43.876 57.7636 44.012 58.0058 44.2543C58.248 44.4965 58.3841 44.825 58.3841 45.1675Z" fill="#45413C"/>
<path id="Vector_10" d="M61.7727 119.509C61.7727 120.475 62.1561 121.4 62.8385 122.083C63.521 122.765 64.4465 123.148 65.4116 123.148C66.3767 123.148 67.3023 122.765 67.9848 122.083C68.6672 121.4 69.0506 120.475 69.0506 119.509C69.0506 118.544 68.6672 117.619 67.9848 116.936C67.3023 116.254 66.3767 115.87 65.4116 115.87C64.4465 115.87 63.521 116.254 62.8385 116.936C62.1561 117.619 61.7727 118.544 61.7727 119.509Z" fill="white" stroke="#45413C" stroke-width="1.50643" stroke-linecap="round" stroke-linejoin="round"/>
<path id="Vector_11" opacity="0.15" d="M45.1514 137.665C45.1514 138.028 45.6754 138.387 46.6935 138.722C47.7116 139.057 49.2038 139.362 51.085 139.618C52.9662 139.875 55.1995 140.078 57.6574 140.217C60.1153 140.356 62.7497 140.427 65.4101 140.427C68.0705 140.427 70.7049 140.356 73.1628 140.217C75.6207 140.078 77.854 139.875 79.7352 139.618C81.6164 139.362 83.1087 139.057 84.1268 138.722C85.1448 138.387 85.6689 138.028 85.6689 137.665C85.6689 137.303 85.1448 136.943 84.1268 136.608C83.1087 136.273 81.6164 135.969 79.7352 135.712C77.854 135.456 75.6207 135.252 73.1628 135.114C70.7049 134.975 68.0705 134.903 65.4101 134.903C62.7497 134.903 60.1153 134.975 57.6574 135.114C55.1995 135.252 52.9662 135.456 51.085 135.712C49.2038 135.969 47.7116 136.273 46.6935 136.608C45.6754 136.943 45.1514 137.303 45.1514 137.665Z" fill="#45413C"/>
<path id="Vector_12" d="M127.14 7.47375H75.5696C73.1271 7.47375 70.7847 8.44401 69.0577 10.1711C67.3306 11.8981 66.3604 14.2405 66.3604 16.683V49.8346C66.3604 52.277 67.3306 54.6194 69.0577 56.3465C70.7847 58.0735 73.1271 59.0438 75.5696 59.0438H79.6812L77.4442 71.3505C77.3794 71.7063 77.4207 72.0732 77.563 72.4056C77.7053 72.738 77.9423 73.0212 78.2445 73.2198C78.5466 73.4184 78.9005 73.5237 79.2621 73.5225C79.6237 73.5214 79.9769 73.4138 80.2778 73.2133L101.533 59.0453H127.14C129.582 59.0449 131.924 58.0744 133.65 56.3474C135.377 54.6204 136.347 52.2782 136.347 49.8361V16.683C136.347 14.2408 135.377 11.8986 133.65 10.1716C131.924 8.44458 129.582 7.47415 127.14 7.47375Z" fill="white"/>
<path id="Vector_13" d="M127.14 7.47375H75.5696C73.1271 7.47375 70.7847 8.44401 69.0577 10.1711C67.3306 11.8981 66.3604 14.2405 66.3604 16.683V49.8346C66.3604 52.277 67.3306 54.6194 69.0577 56.3465C70.7847 58.0735 73.1271 59.0438 75.5696 59.0438H79.6812L77.4442 71.3505C77.3794 71.7063 77.4207 72.0732 77.563 72.4056C77.7053 72.738 77.9423 73.0212 78.2445 73.2198C78.5466 73.4184 78.9005 73.5237 79.2621 73.5225C79.6237 73.5214 79.9769 73.4138 80.2778 73.2133L101.533 59.0453H127.14C129.582 59.0449 131.924 58.0744 133.65 56.3474C135.377 54.6204 136.347 52.2782 136.347 49.8361V16.683C136.347 14.2408 135.377 11.8986 133.65 10.1716C131.924 8.44458 129.582 7.47415 127.14 7.47375Z" stroke="#45413C" stroke-width="1.50643" stroke-linecap="round" stroke-linejoin="round"/>
<path id="Vector_14" d="M81.0952 33.2575C81.0952 34.2345 81.4833 35.1715 82.1741 35.8623C82.865 36.5531 83.8019 36.9412 84.7789 36.9412C85.7559 36.9412 86.6928 36.5531 87.3836 35.8623C88.0745 35.1715 88.4626 34.2345 88.4626 33.2575C88.4626 32.2806 88.0745 31.3436 87.3836 30.6528C86.6928 29.962 85.7559 29.5739 84.7789 29.5739C83.8019 29.5739 82.865 29.962 82.1741 30.6528C81.4833 31.3436 81.0952 32.2806 81.0952 33.2575Z" fill="#87898C" stroke="#45413C" stroke-width="1.50643" stroke-linecap="round" stroke-linejoin="round"/>
<path id="Vector_15" d="M97.6699 33.2575C97.6699 34.2345 98.058 35.1715 98.7488 35.8623C99.4397 36.5531 100.377 36.9412 101.354 36.9412C102.331 36.9412 103.268 36.5531 103.958 35.8623C104.649 35.1715 105.037 34.2345 105.037 33.2575C105.037 32.2806 104.649 31.3436 103.958 30.6528C103.268 29.962 102.331 29.5739 101.354 29.5739C100.377 29.5739 99.4397 29.962 98.7488 30.6528C98.058 31.3436 97.6699 32.2806 97.6699 33.2575Z" fill="#87898C" stroke="#45413C" stroke-width="1.50643" stroke-linecap="round" stroke-linejoin="round"/>
<path id="Vector_16" d="M114.247 33.2575C114.247 34.2345 114.635 35.1715 115.326 35.8623C116.016 36.5531 116.953 36.9412 117.93 36.9412C118.907 36.9412 119.844 36.5531 120.535 35.8623C121.226 35.1715 121.614 34.2345 121.614 33.2575C121.614 32.2806 121.226 31.3436 120.535 30.6528C119.844 29.962 118.907 29.5739 117.93 29.5739C116.953 29.5739 116.016 29.962 115.326 30.6528C114.635 31.3436 114.247 32.2806 114.247 33.2575Z" fill="#87898C" stroke="#45413C" stroke-width="1.50643" stroke-linecap="round" stroke-linejoin="round"/>
</g>
</svg>
