<svg width="151" height="151" viewBox="0 0 151 151" fill="none" xmlns="http://www.w3.org/2000/svg">
<g id="Phone-Error--Streamline-Ux">
<path id="Vector" d="M13.2266 79.0635C13.2266 94.8849 19.5116 110.058 30.699 121.246C41.8865 132.433 57.0599 138.718 72.8813 138.718C88.7027 138.718 103.876 132.433 115.064 121.246C126.251 110.058 132.536 94.8849 132.536 79.0635C132.536 63.2421 126.251 48.0687 115.064 36.8813C103.876 25.6938 88.7027 19.4088 72.8813 19.4088C57.0599 19.4088 41.8865 25.6938 30.699 36.8813C19.5116 48.0687 13.2266 63.2421 13.2266 79.0635Z" fill="#DAEDF7" stroke="#DAEDF7" stroke-width="1.50643"/>
<path id="Vector_2" d="M131.338 65.5071C131.286 65.885 131.159 66.2487 130.965 66.5775C130.772 66.9064 130.515 67.1938 130.21 67.4235C129.906 67.6531 129.559 67.8204 129.189 67.9159C128.82 68.0114 128.435 68.0331 128.057 67.9798L70.5488 59.9145C69.7858 59.8073 69.0967 59.4014 68.633 58.7861C68.1692 58.1708 67.9689 57.3965 68.0761 56.6335L74.3398 11.9774C74.4652 11.0849 74.7966 10.2337 75.3077 9.49134L77.1958 6.7502C77.5013 6.30824 77.9235 5.95976 78.4154 5.74358C78.9073 5.5274 79.4495 5.45201 79.9817 5.52579L96.5582 7.84785C97.0922 7.92252 97.5948 8.14443 98.0097 8.48872C98.4245 8.83301 98.7353 9.28605 98.9072 9.79707L100.399 14.2518L134.915 19.0972C135.293 19.1501 135.656 19.277 135.985 19.4705C136.314 19.6641 136.601 19.9206 136.831 20.2253C137.061 20.53 137.228 20.877 137.324 21.2464C137.419 21.6158 137.441 22.0004 137.387 22.3782L131.338 65.5071Z" fill="#FFE500" stroke="#45413C" stroke-width="1.50643" stroke-linecap="round" stroke-linejoin="round"/>
<path id="Vector_3" d="M67.666 59.5119L73.3108 19.2494L136.579 28.1215L130.934 68.3825L67.666 59.5119Z" fill="#FFF48C" stroke="#45413C" stroke-width="1.50643" stroke-linecap="round" stroke-linejoin="round"/>
<path id="Vector_4" d="M78.4797 103.676C91.9304 94.9884 100.627 80.2059 101.92 67.2743" stroke="#45413C" stroke-width="1.50643" stroke-linecap="round" stroke-linejoin="round"/>
<path id="Vector_5" d="M80.9464 130.817C81.1284 131.552 81.1639 132.315 81.0508 133.064C80.9377 133.812 80.6782 134.531 80.2873 135.179C79.8963 135.827 79.3815 136.392 78.7722 136.841C78.1629 137.29 77.4711 137.615 76.7363 137.797L47.7203 144.979C46.9855 145.161 46.2221 145.197 45.4737 145.084C44.7253 144.971 44.0064 144.711 43.3583 144.32C42.7101 143.929 42.1454 143.414 41.6962 142.805C41.2471 142.196 40.9224 141.504 40.7407 140.769L25.3378 78.5404C24.9707 77.0565 25.208 75.4876 25.9975 74.1787C26.787 72.8698 28.0641 71.9281 29.5479 71.5608L58.564 64.3783C60.0478 64.0112 61.6167 64.2485 62.9256 65.038C64.2345 65.8276 65.1762 67.1047 65.5436 68.5885L80.9464 130.817Z" fill="white"/>
<path id="Vector_6" d="M40.7407 140.769C40.9224 141.504 41.2471 142.196 41.6963 142.805C42.1454 143.414 42.7102 143.929 43.3583 144.32C44.0065 144.711 44.7253 144.97 45.4737 145.083C46.2222 145.197 46.9856 145.161 47.7203 144.979L76.7364 137.798C77.4712 137.616 78.163 137.291 78.7723 136.842C79.3816 136.393 79.8965 135.828 80.2874 135.18C80.6784 134.531 80.9378 133.812 81.0509 133.064C81.164 132.315 81.1285 131.552 80.9465 130.817L79.7191 125.86C80.0862 127.344 79.8489 128.913 79.0594 130.221C78.2699 131.53 76.9928 132.472 75.509 132.839L46.4929 140.02C45.7582 140.202 44.9948 140.238 44.2463 140.125C43.4979 140.012 42.7791 139.752 42.1309 139.361C41.4828 138.97 40.918 138.455 40.4689 137.846C40.0197 137.237 39.695 136.545 39.5133 135.81L40.7407 140.769Z" fill="#DAEDF7"/>
<path id="Vector_7" d="M80.9464 130.817C81.1284 131.552 81.1639 132.315 81.0508 133.064C80.9377 133.812 80.6782 134.531 80.2873 135.179C79.8963 135.827 79.3815 136.392 78.7722 136.841C78.1629 137.29 77.4711 137.615 76.7363 137.797L47.7203 144.979C46.9855 145.161 46.2221 145.197 45.4737 145.084C44.7253 144.971 44.0064 144.711 43.3583 144.32C42.7101 143.929 42.1454 143.414 41.6962 142.805C41.2471 142.196 40.9224 141.504 40.7407 140.769L25.3378 78.5404C24.9707 77.0565 25.208 75.4876 25.9975 74.1787C26.787 72.8698 28.0641 71.9281 29.5479 71.5608L58.564 64.3783C60.0478 64.0112 61.6167 64.2485 62.9256 65.038C64.2345 65.8276 65.1762 67.1047 65.5436 68.5885L80.9464 130.817Z" stroke="#45413C" stroke-width="1.50643" stroke-linecap="round" stroke-linejoin="round"/>
<path id="Vector_8" d="M30.0459 82.5683L63.2602 74.3464L76.0233 125.915L42.8105 134.135L30.0459 82.5683Z" fill="#FF6242"/>
<path id="Vector_9" d="M36.9405 110.423L57.9017 75.6737L30.0459 82.5683L36.9405 110.423Z" fill="#FF6242"/>
<path id="Vector_10" d="M30.0459 82.5683L63.2602 74.3464L76.0233 125.915L42.8105 134.135L30.0459 82.5683Z" stroke="#45413C" stroke-width="1.50643" stroke-linecap="round" stroke-linejoin="round"/>
<path id="Vector_11" d="M43.6058 73.6471L53.2207 71.2668" stroke="#45413C" stroke-width="1.50643" stroke-linecap="round" stroke-linejoin="round"/>
<path id="Vector_12" d="M39.4475 74.6761C39.5003 74.8909 39.4883 75.1165 39.4129 75.3244C39.3375 75.5324 39.2022 75.7133 39.024 75.8444C38.8458 75.9754 38.6328 76.0507 38.4118 76.0606C38.1908 76.0706 37.9719 76.0149 37.7826 75.9004C37.5933 75.786 37.4422 75.618 37.3484 75.4177C37.2546 75.2174 37.2223 74.9938 37.2555 74.7751C37.2888 74.5564 37.3861 74.3525 37.5352 74.1892C37.6844 74.0258 37.8786 73.9103 38.0933 73.8573C38.236 73.8217 38.3843 73.8146 38.5298 73.8366C38.6752 73.8585 38.8148 73.9089 38.9407 73.985C39.0666 74.0611 39.1761 74.1613 39.2631 74.2799C39.3501 74.3985 39.4127 74.5332 39.4475 74.6761Z" fill="#45413C"/>
<path id="Vector_13" d="M57.6704 135.707C57.6704 136.543 58.0024 137.345 58.5934 137.936C59.1844 138.527 59.9859 138.859 60.8217 138.859C61.6574 138.859 62.459 138.527 63.0499 137.936C63.6409 137.345 63.9729 136.543 63.9729 135.707C63.9729 134.872 63.6409 134.07 63.0499 133.479C62.459 132.888 61.6574 132.556 60.8217 132.556C59.9859 132.556 59.1844 132.888 58.5934 133.479C58.0024 134.07 57.6704 134.872 57.6704 135.707Z" fill="white" stroke="#45413C" stroke-width="1.50643" stroke-linecap="round" stroke-linejoin="round"/>
<path id="Vector_14" d="M60.6745 111.241C60.3056 111.334 59.9218 111.352 59.5457 111.295C59.1696 111.238 58.8086 111.107 58.4837 110.909L54.0186 108.224L51.3252 112.68C51.1327 113.014 50.8757 113.306 50.5691 113.539C50.2625 113.772 49.9125 113.942 49.5396 114.038C49.1666 114.134 48.7783 114.155 48.3972 114.099C48.0162 114.043 47.6501 113.912 47.3203 113.713C46.9906 113.514 46.7038 113.251 46.4768 112.94C46.2498 112.629 46.0871 112.276 45.9983 111.901C45.9095 111.527 45.8963 111.138 45.9595 110.758C46.0227 110.378 46.161 110.015 46.3664 109.689L49.0598 105.225L44.5991 102.532C43.9733 102.121 43.5307 101.484 43.3641 100.755C43.1976 100.025 43.32 99.259 43.7057 98.6176C44.0914 97.9761 44.7105 97.5089 45.4331 97.3139C46.1557 97.1189 46.9258 97.2112 47.5818 97.5714L52.0559 100.266L54.7404 95.8012C54.9328 95.4676 55.1899 95.1757 55.4965 94.9427C55.8031 94.7096 56.1531 94.5401 56.526 94.4439C56.8989 94.3477 57.2872 94.3269 57.6683 94.3827C58.0494 94.4384 58.4155 94.5696 58.7452 94.7685C59.075 94.9675 59.3618 95.2302 59.5888 95.5413C59.8158 95.8524 59.9784 96.2057 60.0673 96.5804C60.1561 96.9551 60.1693 97.3438 60.1061 97.7237C60.0429 98.1036 59.9046 98.4671 59.6992 98.7929L57.0147 103.258L61.4784 105.95C61.9689 106.246 62.3606 106.68 62.6041 107.199C62.8476 107.717 62.9319 108.296 62.8464 108.863C62.7608 109.429 62.5092 109.957 62.1235 110.381C61.7377 110.804 61.235 111.104 60.679 111.241H60.6745Z" fill="white" stroke="#E04122" stroke-width="1.50643" stroke-linecap="round" stroke-linejoin="round"/>
<path id="Vector_15" d="M93.3849 57.425C93.1015 57.3844 92.8311 57.2796 92.5943 57.1186C92.3575 56.9576 92.1607 56.7446 92.0188 56.4959C91.8763 56.249 91.7925 55.9726 91.7739 55.6881C91.7552 55.4037 91.8023 55.1187 91.9115 54.8554C92.7093 52.9396 94.121 51.3433 95.9248 50.3173C97.7285 49.2912 99.8221 48.8936 101.876 49.1869C103.931 49.4802 105.83 50.4478 107.274 51.9376C108.719 53.4275 109.627 55.3551 109.857 57.4175C109.887 57.7021 109.852 57.9898 109.754 58.2587C109.656 58.5276 109.498 58.7706 109.292 58.9694C109.086 59.1681 108.838 59.3172 108.566 59.4055C108.294 59.4937 108.005 59.5187 107.721 59.4786C105.433 58.6368 103.08 57.9843 100.685 57.5279C98.2587 57.294 95.8171 57.2596 93.3849 57.425Z" fill="#FFA694" stroke="#45413C" stroke-width="1.50643" stroke-linecap="round" stroke-linejoin="round"/>
<path id="Vector_16" d="M117.237 44.4295C117.145 44.4297 117.052 44.4232 116.96 44.4101C116.709 44.3752 116.467 44.2905 116.249 44.1609C116.03 44.0314 115.84 43.8595 115.689 43.6555L114.159 41.6168L112.121 43.1454C111.787 43.3964 111.381 43.532 110.963 43.5317C110.663 43.5318 110.366 43.4621 110.098 43.328C109.829 43.1939 109.595 42.9992 109.414 42.7592C109.107 42.3484 108.975 41.8328 109.048 41.3252C109.12 40.8177 109.391 40.3595 109.8 40.0508L111.839 38.5222L110.31 36.4835C110.042 36.0714 109.941 35.5731 110.027 35.0892C110.112 34.6053 110.378 34.172 110.771 33.8768C111.164 33.5817 111.654 33.4467 112.143 33.4993C112.632 33.5518 113.082 33.788 113.403 34.1599L114.933 36.1986L116.971 34.67C117.172 34.4958 117.406 34.3649 117.66 34.2855C117.914 34.206 118.182 34.1796 118.446 34.208C118.711 34.2364 118.967 34.3189 119.198 34.4504C119.429 34.582 119.631 34.7597 119.791 34.9726C119.95 35.1854 120.064 35.4288 120.126 35.6877C120.187 35.9466 120.195 36.2153 120.148 36.4772C120.101 36.7391 120.001 36.9885 119.853 37.21C119.706 37.4315 119.515 37.6203 119.291 37.7646L117.252 39.2932L118.783 41.3334C118.996 41.6211 119.125 41.9621 119.156 42.3188C119.187 42.6755 119.119 43.0338 118.959 43.3541C118.799 43.6744 118.554 43.9442 118.25 44.1335C117.946 44.3227 117.596 44.4242 117.237 44.4265V44.4295Z" fill="white" stroke="#45413C" stroke-width="1.50643" stroke-linecap="round" stroke-linejoin="round"/>
<path id="Vector_17" d="M95.2726 41.2947C95.1818 41.2946 95.0911 41.2887 95.0011 41.2768C94.7493 41.2414 94.507 41.1565 94.2881 41.0269C94.0693 40.8974 93.8783 40.7259 93.726 40.5222L92.1974 38.485L90.1587 40.0151C89.8242 40.2666 89.4169 40.4022 88.9984 40.4014C88.9076 40.4016 88.8168 40.3952 88.727 40.382C88.3491 40.327 87.9958 40.1616 87.7116 39.9066C87.4273 39.6516 87.2247 39.3184 87.1291 38.9486C87.0335 38.5789 87.0492 38.1892 87.1743 37.8284C87.2994 37.4676 87.5282 37.1518 87.8321 36.9205L89.8693 35.3904L88.3422 33.3517C88.1286 33.064 87.9989 32.7228 87.9674 32.3659C87.936 32.009 88.0041 31.6503 88.1641 31.3298C88.3242 31.0092 88.5699 30.7393 88.8741 30.5499C89.1783 30.3606 89.529 30.2592 89.8872 30.2571C90.1876 30.2574 90.4838 30.3274 90.7524 30.4618C91.0211 30.5961 91.2548 30.791 91.4353 31.0311L92.9654 33.0698L95.0071 31.5382C95.3411 31.2856 95.7487 31.1494 96.1674 31.1504C96.4676 31.1511 96.7636 31.2215 97.032 31.3561C97.3003 31.4907 97.5338 31.6857 97.7139 31.9259C98.0203 32.3366 98.1516 32.8518 98.0792 33.359C98.0068 33.8662 97.7366 34.3242 97.3277 34.6328L95.2905 36.1614L96.8191 38.2001C97.0329 38.488 97.1626 38.8295 97.1939 39.1866C97.2252 39.5438 97.1569 39.9027 96.9965 40.2233C96.8361 40.544 96.5899 40.8139 96.2853 41.003C95.9807 41.1921 95.6296 41.2931 95.2711 41.2947H95.2726Z" fill="white" stroke="#45413C" stroke-width="1.50643" stroke-linecap="round" stroke-linejoin="round"/>
</g>
</svg>
