<svg width="151" height="151" viewBox="0 0 151 151" fill="none" xmlns="http://www.w3.org/2000/svg">
<g id="Skull-2--Streamline-Ux">
<path id="Vector" d="M15.6671 75.322C15.6671 91.1434 21.9521 106.317 33.1396 117.504C44.327 128.692 59.5004 134.977 75.3218 134.977C91.1432 134.977 106.317 128.692 117.504 117.504C128.692 106.317 134.977 91.1434 134.977 75.322C134.977 67.488 133.434 59.7307 130.436 52.4931C127.438 45.2554 123.044 38.6792 117.504 33.1397C111.965 27.6002 105.388 23.2061 98.1507 20.2082C90.9131 17.2103 83.1558 15.6672 75.3218 15.6672C67.4879 15.6672 59.7306 17.2103 52.493 20.2082C45.2553 23.2061 38.679 27.6002 33.1396 33.1397C27.6001 38.6792 23.206 45.2554 20.2081 52.4931C17.2101 59.7307 15.6671 67.488 15.6671 75.322Z" fill="#DAEDF7" stroke="#DAEDF7" stroke-width="1.50643"/>
<path id="Vector_2" d="M47.1213 99.8709L109.93 37.062C110.747 37.8908 111.751 38.5109 112.858 38.8698C113.965 39.2287 115.143 39.316 116.29 39.1241C117.438 38.9322 118.523 38.4669 119.453 37.7675C120.383 37.068 121.131 36.155 121.634 35.1055C122.137 34.0561 122.38 32.901 122.342 31.7379C122.304 30.5747 121.987 29.4378 121.418 28.423C120.848 27.4082 120.043 26.5454 119.069 25.9076C118.096 25.2697 116.983 24.8755 115.826 24.7582C115.703 23.6063 115.306 22.5007 114.667 21.5343C114.028 20.5679 113.167 19.7689 112.155 19.2045C111.144 18.6401 110.011 18.3268 108.853 18.2908C107.696 18.2549 106.546 18.4974 105.501 18.9979C104.457 19.4985 103.547 20.2425 102.85 21.1674C102.153 22.0923 101.687 23.1711 101.493 24.3132C101.299 25.4552 101.382 26.6271 101.735 27.7304C102.088 28.8337 102.701 29.8362 103.522 30.6536L40.7129 93.4625C39.3531 92.1027 37.5087 91.3387 35.5856 91.3387C33.6625 91.3387 31.8181 92.1027 30.4583 93.4625C29.0984 94.8224 28.3345 96.6667 28.3345 98.5898C28.3345 99.5421 28.522 100.485 28.8864 101.365C29.2508 102.244 29.785 103.044 30.4583 103.717C31.6318 104.882 33.1717 105.606 34.8176 105.766C34.9777 107.412 35.7016 108.952 36.8667 110.126C38.2265 111.485 40.0709 112.249 41.994 112.249C43.9171 112.249 45.7615 111.485 47.1213 110.126C48.4812 108.766 49.2451 106.921 49.2451 104.998C49.2451 103.075 48.4812 101.231 47.1213 99.8709Z" fill="white"/>
<path id="Vector_3" d="M48.717 102.275C49.3449 103.826 49.4174 105.546 48.9222 107.144C48.4271 108.742 47.3947 110.119 46.0001 111.043C44.6054 111.967 42.9342 112.38 41.2697 112.213C39.6051 112.046 38.0496 111.308 36.8666 110.126C35.7015 108.952 34.9776 107.412 34.8174 105.766C33.1716 105.606 31.6316 104.882 30.4582 103.717C29.4521 102.712 28.764 101.432 28.4795 100.038C28.1949 98.6447 28.3265 97.1981 28.8579 95.8785C29.2286 96.7707 29.7708 97.5814 30.4537 98.2647C31.6249 99.4382 33.1708 100.163 34.8219 100.314C34.9724 101.965 35.6976 103.511 36.8711 104.682C37.7172 105.528 38.7598 106.151 39.9057 106.496C41.0516 106.841 42.2651 106.896 43.4376 106.657C44.6102 106.419 45.7052 105.893 46.6249 105.127C47.5447 104.362 48.2604 103.38 48.708 102.271" fill="#F8F8F8"/>
<path id="Vector_4" d="M121.795 29.2461C122.413 30.7969 122.478 32.5136 121.978 34.1065C121.477 35.6994 120.443 37.0709 119.048 37.9895C117.654 38.9081 115.986 39.3174 114.325 39.1485C112.664 38.9796 111.112 38.2428 109.931 37.0624L49.0562 97.937C48.8661 97.0884 48.5213 96.282 48.0391 95.5583C47.8085 95.2095 47.7054 94.7918 47.7473 94.3757C47.7891 93.9597 47.9733 93.5709 48.2688 93.275L108.771 32.7732C109.066 32.4771 109.456 32.2926 109.872 32.251C110.289 32.2094 110.707 32.3133 111.055 32.545C111.951 33.1365 112.967 33.5225 114.03 33.6752C115.093 33.8279 116.177 33.7436 117.203 33.4283C118.229 33.113 119.173 32.5745 119.967 31.8515C120.761 31.1284 121.385 30.2387 121.795 29.2461Z" fill="#F8F8F8"/>
<path id="Vector_5" d="M47.1213 99.8709L109.93 37.062C110.747 37.8908 111.751 38.5109 112.858 38.8698C113.965 39.2287 115.143 39.316 116.29 39.1241C117.438 38.9322 118.523 38.4669 119.453 37.7675C120.383 37.068 121.131 36.155 121.634 35.1055C122.137 34.0561 122.38 32.901 122.342 31.7379C122.304 30.5747 121.987 29.4378 121.418 28.423C120.848 27.4082 120.043 26.5454 119.069 25.9076C118.096 25.2697 116.983 24.8755 115.826 24.7582C115.703 23.6063 115.306 22.5007 114.667 21.5343C114.028 20.5679 113.167 19.7689 112.155 19.2045C111.144 18.6401 110.011 18.3268 108.853 18.2908C107.696 18.2549 106.546 18.4974 105.501 18.9979C104.457 19.4985 103.547 20.2425 102.85 21.1674C102.153 22.0923 101.687 23.1711 101.493 24.3132C101.299 25.4552 101.382 26.6271 101.735 27.7304C102.088 28.8337 102.701 29.8362 103.522 30.6536L40.7129 93.4625C39.3531 92.1027 37.5087 91.3387 35.5856 91.3387C33.6625 91.3387 31.8181 92.1027 30.4583 93.4625C29.0984 94.8224 28.3345 96.6667 28.3345 98.5898C28.3345 99.5421 28.522 100.485 28.8864 101.365C29.2508 102.244 29.785 103.044 30.4583 103.717C31.6318 104.882 33.1717 105.606 34.8176 105.766C34.9777 107.412 35.7016 108.952 36.8667 110.126C38.2265 111.485 40.0709 112.249 41.994 112.249C43.9171 112.249 45.7615 111.485 47.1213 110.126C48.4812 108.766 49.2451 106.921 49.2451 104.998C49.2451 103.075 48.4812 101.231 47.1213 99.8709Z" stroke="#45413C" stroke-width="1.50643" stroke-linecap="round" stroke-linejoin="round"/>
<path id="Vector_6" d="M103.522 99.8709L40.7128 37.062C39.896 37.8908 38.8916 38.5109 37.7846 38.8698C36.6777 39.2287 35.5005 39.316 34.3527 39.1241C33.2049 38.9322 32.1202 38.4669 31.1901 37.7675C30.2601 37.068 29.512 36.155 29.0091 35.1055C28.5063 34.0561 28.2634 32.901 28.301 31.7379C28.3387 30.5747 28.6557 29.4378 29.2253 28.423C29.7949 27.4082 30.6004 26.5454 31.5738 25.9076C32.5471 25.2697 33.6597 24.8755 34.8175 24.7582C34.9402 23.6063 35.3376 22.5007 35.9763 21.5343C36.615 20.5679 37.4764 19.7689 38.488 19.2045C39.4996 18.6401 40.6319 18.3268 41.7897 18.2908C42.9475 18.2549 44.0971 18.4974 45.1418 18.9979C46.1864 19.4985 47.0957 20.2425 47.7931 21.1674C48.4906 22.0923 48.9558 23.1711 49.1498 24.3132C49.3437 25.4552 49.2607 26.6271 48.9077 27.7304C48.5547 28.8337 47.9421 29.8362 47.1212 30.6536L109.93 93.4625C110.604 92.7892 111.403 92.2551 112.283 91.8907C113.162 91.5263 114.105 91.3387 115.058 91.3387C116.01 91.3387 116.953 91.5263 117.832 91.8907C118.712 92.2551 119.512 92.7892 120.185 93.4625C120.858 94.1358 121.392 94.9352 121.757 95.815C122.121 96.6947 122.309 97.6376 122.309 98.5898C122.309 99.5421 122.121 100.485 121.757 101.365C121.392 102.244 120.858 103.044 120.185 103.717C119.011 104.882 117.471 105.606 115.826 105.766C115.665 107.412 114.942 108.952 113.776 110.126C112.417 111.485 110.572 112.249 108.649 112.249C106.726 112.249 104.882 111.485 103.522 110.126C102.162 108.766 101.398 106.921 101.398 104.998C101.398 103.075 102.162 101.231 103.522 99.8709Z" fill="white"/>
<path id="Vector_7" d="M101.926 102.275C101.298 103.826 101.226 105.546 101.721 107.144C102.216 108.742 103.248 110.119 104.643 111.043C106.038 111.967 107.709 112.38 109.373 112.213C111.038 112.046 112.594 111.308 113.776 110.126C114.942 108.952 115.665 107.412 115.826 105.766C117.471 105.606 119.011 104.882 120.185 103.717C121.191 102.712 121.879 101.432 122.164 100.038C122.448 98.6447 122.317 97.1981 121.785 95.8785C121.414 96.7707 120.872 97.5814 120.189 98.2647C119.018 99.4382 117.472 100.163 115.821 100.314C115.671 101.965 114.945 103.511 113.772 104.682C112.926 105.528 111.883 106.151 110.737 106.496C109.591 106.841 108.378 106.896 107.205 106.657C106.033 106.419 104.938 105.893 104.018 105.127C103.098 104.362 102.383 103.38 101.935 102.271" fill="#F8F8F8"/>
<path id="Vector_8" d="M28.8491 29.2461C28.2304 30.7969 28.1659 32.5136 28.6662 34.1065C29.1665 35.6994 30.2011 37.0709 31.5953 37.9895C32.9896 38.9081 34.6581 39.3174 36.3191 39.1485C37.9802 38.9796 39.5321 38.2428 40.7129 37.0624L101.588 97.937C101.778 97.0884 102.122 96.282 102.605 95.5583C102.835 95.2095 102.938 94.7918 102.896 94.3757C102.855 93.9597 102.67 93.5709 102.375 93.275L41.8732 32.7732C41.5773 32.4771 41.188 32.2926 40.7715 32.251C40.355 32.2094 39.937 32.3133 39.5884 32.545C38.6923 33.1365 37.6763 33.5225 36.6135 33.6752C35.5506 33.8279 34.4672 33.7436 33.4407 33.4283C32.4143 33.113 31.4703 32.5745 30.6765 31.8515C29.8826 31.1284 29.2586 30.2387 28.8491 29.2461Z" fill="#F8F8F8"/>
<path id="Vector_9" d="M103.522 99.8709L40.7128 37.062C39.896 37.8908 38.8916 38.5109 37.7846 38.8698C36.6777 39.2287 35.5005 39.316 34.3527 39.1241C33.2049 38.9322 32.1202 38.4669 31.1901 37.7675C30.2601 37.068 29.512 36.155 29.0091 35.1055C28.5063 34.0561 28.2634 32.901 28.301 31.7379C28.3387 30.5747 28.6557 29.4378 29.2253 28.423C29.7949 27.4082 30.6004 26.5454 31.5738 25.9076C32.5471 25.2697 33.6597 24.8755 34.8175 24.7582C34.9402 23.6063 35.3376 22.5007 35.9763 21.5343C36.615 20.5679 37.4764 19.7689 38.488 19.2045C39.4996 18.6401 40.6319 18.3268 41.7897 18.2908C42.9475 18.2549 44.0971 18.4974 45.1418 18.9979C46.1864 19.4985 47.0957 20.2425 47.7931 21.1674C48.4906 22.0923 48.9558 23.1711 49.1498 24.3132C49.3437 25.4552 49.2607 26.6271 48.9077 27.7304C48.5547 28.8337 47.9421 29.8362 47.1212 30.6536L109.93 93.4625C110.604 92.7892 111.403 92.2551 112.283 91.8907C113.162 91.5263 114.105 91.3387 115.058 91.3387C116.01 91.3387 116.953 91.5263 117.832 91.8907C118.712 92.2551 119.512 92.7892 120.185 93.4625C120.858 94.1359 121.392 94.9352 121.757 95.815C122.121 96.6947 122.309 97.6376 122.309 98.5898C122.309 99.5421 122.121 100.485 121.757 101.365C121.392 102.244 120.858 103.044 120.185 103.717C119.011 104.882 117.471 105.606 115.826 105.766C115.665 107.412 114.942 108.952 113.776 110.126C112.417 111.485 110.572 112.249 108.649 112.249C106.726 112.249 104.882 111.485 103.522 110.126C102.162 108.766 101.398 106.921 101.398 104.998C101.398 103.075 102.162 101.231 103.522 99.8709Z" stroke="#45413C" stroke-width="1.50643" stroke-linecap="round" stroke-linejoin="round"/>
<path id="Vector_10" opacity="0.15" d="M49.9434 118.3C49.9434 119.021 52.6172 119.713 57.3766 120.223C62.136 120.732 68.5911 121.019 75.322 121.019C82.0528 121.019 88.5079 120.732 93.2674 120.223C98.0268 119.713 100.701 119.021 100.701 118.3C100.701 117.579 98.0268 116.887 93.2674 116.378C88.5079 115.868 82.0528 115.581 75.322 115.581C68.5911 115.581 62.136 115.868 57.3766 116.378C52.6172 116.887 49.9434 117.579 49.9434 118.3Z" fill="#45413C"/>
<path id="Vector_11" d="M75.5842 35.3082C57.9651 35.3082 43.6793 49.2361 43.6793 66.4152C43.6763 69.943 44.2858 73.4446 45.4809 76.7638C46.5172 79.5521 48.3862 81.954 50.8343 83.6436C53.2825 85.3333 56.1912 86.2288 59.1657 86.2086C59.674 86.2086 60.1614 86.4105 60.5208 86.7699C60.8802 87.1293 61.0821 87.6168 61.0821 88.125V95.1628C61.1203 96.4195 61.6464 97.6119 62.5489 98.4872C63.4513 99.3626 64.6591 99.8522 65.9164 99.8522C67.1736 99.8522 68.3815 99.3626 69.2839 98.4872C70.1863 97.6119 70.7124 96.4195 70.7506 95.1628C70.7889 96.4195 71.315 97.6119 72.2174 98.4872C73.1198 99.3626 74.3277 99.8522 75.5849 99.8522C76.8422 99.8522 78.05 99.3626 78.9524 98.4872C79.8549 97.6119 80.381 96.4195 80.4192 95.1628C80.4505 96.4239 80.9735 97.6229 81.8766 98.5038C82.7796 99.3847 83.9912 99.8777 85.2527 99.8777C86.5142 99.8777 87.7258 99.3847 88.6289 98.5038C89.5319 97.6229 90.0549 96.4239 90.0862 95.1628V88.128C90.0858 87.8761 90.1351 87.6266 90.2313 87.3937C90.3274 87.1609 90.4685 86.9492 90.6465 86.771C90.8245 86.5927 91.0359 86.4513 91.2686 86.3548C91.5013 86.2583 91.7507 86.2086 92.0026 86.2086C94.9779 86.2303 97.8877 85.335 100.336 83.6446C102.785 81.9541 104.653 79.5506 105.687 76.7608C106.883 73.4418 107.493 69.9401 107.489 66.4122C107.489 49.2361 93.2047 35.3082 75.5842 35.3082Z" fill="#F8F8F8"/>
<path id="Vector_12" d="M43.8807 69.9363C43.7464 68.7674 43.6792 67.5918 43.6793 66.4152C43.6793 49.2361 57.9651 35.3082 75.5842 35.3082C93.2032 35.3082 107.489 49.2361 107.489 66.4152C107.489 67.5918 107.422 68.7674 107.288 69.9363C106.214 62.2922 102.415 55.2934 96.5899 50.2288C90.7646 45.1643 83.3055 42.3751 75.5864 42.3751C67.8673 42.3751 60.4082 45.1643 54.5829 50.2288C48.7576 55.2934 44.9584 62.2922 43.8851 69.9363" fill="white"/>
<path id="Vector_13" d="M52.3798 66.4154C52.3798 68.8531 53.373 71.1909 55.1409 72.9147C56.9087 74.6384 59.3065 75.6067 61.8067 75.6067C64.3069 75.6067 66.7047 74.6384 68.4726 72.9147C70.2404 71.1909 71.2336 68.8531 71.2336 66.4154C71.2336 63.9777 70.2404 61.6399 68.4726 59.9162C66.7047 58.1925 64.3069 57.2241 61.8067 57.2241C59.3065 57.2241 56.9087 58.1925 55.1409 59.9162C53.373 61.6399 52.3798 63.9777 52.3798 66.4154Z" fill="#87898C"/>
<path id="Vector_14" d="M75.5842 35.3082C57.9651 35.3082 43.6793 49.2361 43.6793 66.4152C43.6763 69.943 44.2858 73.4446 45.4809 76.7638C46.5172 79.5521 48.3862 81.954 50.8343 83.6436C53.2825 85.3333 56.1912 86.2288 59.1657 86.2086C59.674 86.2086 60.1614 86.4105 60.5208 86.7699C60.8802 87.1293 61.0821 87.6168 61.0821 88.125V95.1628C61.1203 96.4195 61.6464 97.6119 62.5489 98.4872C63.4513 99.3626 64.6591 99.8522 65.9164 99.8522C67.1736 99.8522 68.3815 99.3626 69.2839 98.4872C70.1863 97.6119 70.7124 96.4195 70.7506 95.1628C70.7889 96.4195 71.315 97.6119 72.2174 98.4872C73.1198 99.3626 74.3277 99.8522 75.5849 99.8522C76.8422 99.8522 78.05 99.3626 78.9524 98.4872C79.8549 97.6119 80.3809 96.4195 80.4192 95.1628C80.4505 96.4239 80.9735 97.6229 81.8766 98.5038C82.7796 99.3847 83.9912 99.8777 85.2527 99.8777C86.5142 99.8777 87.7258 99.3847 88.6289 98.5038C89.5319 97.6229 90.0549 96.4239 90.0862 95.1628V88.128C90.0858 87.8761 90.1351 87.6266 90.2313 87.3937C90.3274 87.1609 90.4685 86.9492 90.6465 86.771C90.8245 86.5927 91.0359 86.4513 91.2686 86.3548C91.5013 86.2583 91.7507 86.2086 92.0026 86.2086C94.9779 86.2303 97.8877 85.335 100.336 83.6446C102.785 81.9541 104.653 79.5506 105.687 76.7608C106.883 73.4418 107.493 69.9401 107.489 66.4122C107.489 49.2361 93.2047 35.3082 75.5842 35.3082Z" stroke="#45413C" stroke-width="1.50643" stroke-linejoin="round"/>
<path id="Vector_15" d="M70.7413 95.1824V90.9409" stroke="#45413C" stroke-width="1.50643" stroke-linecap="round" stroke-linejoin="round"/>
<path id="Vector_16" d="M80.4117 95.1824V90.9409" stroke="#45413C" stroke-width="1.50643" stroke-linecap="round" stroke-linejoin="round"/>
<path id="Vector_17" d="M71.2297 66.6881C71.2513 65.4429 71.0227 64.206 70.5574 63.0508C70.092 61.8956 69.3994 60.8456 68.5207 59.963C67.6419 59.0805 66.5949 58.3835 65.4416 57.9132C64.2884 57.4429 63.0525 57.209 61.8072 57.2254C59.3877 57.2177 57.0559 58.1311 55.2854 59.7801C55.264 61.0254 55.4927 62.2623 55.9581 63.4175C56.4235 64.5727 57.1161 65.6227 57.9948 66.5053C58.8735 67.3879 59.9204 68.0851 61.0736 68.5556C62.2267 69.0261 63.4626 69.2603 64.7079 69.2444C67.1272 69.2496 69.4583 68.336 71.2297 66.6881Z" fill="#87898C"/>
<path id="Vector_18" d="M52.3798 66.4154C52.3798 68.8531 53.373 71.1909 55.1409 72.9147C56.9087 74.6384 59.3065 75.6067 61.8067 75.6067C64.3069 75.6067 66.7047 74.6384 68.4726 72.9147C70.2404 71.1909 71.2336 68.8531 71.2336 66.4154C71.2336 63.9777 70.2404 61.6399 68.4726 59.9162C66.7047 58.1925 64.3069 57.2241 61.8067 57.2241C59.3065 57.2241 56.9087 58.1925 55.1409 59.9162C53.373 61.6399 52.3798 63.9777 52.3798 66.4154Z" stroke="#45413C" stroke-width="1.50643" stroke-linecap="round" stroke-linejoin="round"/>
<path id="Vector_19" d="M79.9344 66.4154C79.9344 67.6224 80.1783 68.8176 80.652 69.9328C81.1258 71.0479 81.8202 72.0612 82.6955 72.9147C83.5709 73.7681 84.6101 74.4452 85.7539 74.9071C86.8976 75.369 88.1234 75.6067 89.3614 75.6067C90.5993 75.6067 91.8252 75.369 92.9689 74.9071C94.1126 74.4452 95.1519 73.7681 96.0272 72.9147C96.9026 72.0612 97.597 71.0479 98.0707 69.9328C98.5445 68.8176 98.7883 67.6224 98.7883 66.4154C98.7883 65.2084 98.5445 64.0132 98.0707 62.8981C97.597 61.7829 96.9026 60.7697 96.0272 59.9162C95.1519 59.0627 94.1126 58.3857 92.9689 57.9238C91.8252 57.4619 90.5993 57.2241 89.3614 57.2241C88.1234 57.2241 86.8976 57.4619 85.7539 57.9238C84.6101 58.3857 83.5709 59.0627 82.6955 59.9162C81.8202 60.7697 81.1258 61.7829 80.652 62.8981C80.1783 64.0132 79.9344 65.2084 79.9344 66.4154Z" fill="#87898C"/>
<path id="Vector_20" d="M79.9452 66.6881C79.9238 65.4429 80.1525 64.2061 80.6179 63.051C81.0833 61.8959 81.7759 60.846 82.6547 59.9635C83.5334 59.081 84.5804 58.3839 85.7335 57.9136C86.8866 57.4433 88.1224 57.2092 89.3677 57.2254C91.7872 57.2175 94.119 58.1309 95.8894 59.7801C95.9111 61.0254 95.6825 62.2624 95.2172 63.4177C94.7519 64.573 94.0593 65.6231 93.1806 66.5057C92.3018 67.3884 91.2548 68.0856 90.1015 68.556C88.9483 69.0264 87.7124 69.2605 86.467 69.2443C84.0477 69.2496 81.7166 68.3359 79.9452 66.6881Z" fill="#87898C"/>
<path id="Vector_21" d="M79.9344 66.4154C79.9344 67.6224 80.1783 68.8176 80.652 69.9328C81.1258 71.0479 81.8202 72.0612 82.6955 72.9147C83.5709 73.7681 84.6101 74.4452 85.7539 74.9071C86.8976 75.369 88.1234 75.6067 89.3614 75.6067C90.5993 75.6067 91.8252 75.369 92.9689 74.9071C94.1126 74.4452 95.1519 73.7681 96.0272 72.9147C96.9026 72.0612 97.597 71.0479 98.0707 69.9328C98.5445 68.8176 98.7883 67.6224 98.7883 66.4154C98.7883 65.2084 98.5445 64.0132 98.0707 62.8981C97.597 61.7829 96.9026 60.7697 96.0272 59.9162C95.1519 59.0627 94.1126 58.3857 92.9689 57.9238C91.8252 57.4619 90.5993 57.2241 89.3614 57.2241C88.1234 57.2241 86.8976 57.4619 85.7539 57.9238C84.6101 58.3857 83.5709 59.0627 82.6955 59.9162C81.8202 60.7697 81.1258 61.7829 80.652 62.8981C80.1783 64.0132 79.9344 65.2084 79.9344 66.4154Z" stroke="#45413C" stroke-width="1.50643" stroke-linecap="round" stroke-linejoin="round"/>
</g>
</svg>
