<svg width="151" height="151" viewBox="0 0 151 151" fill="none" xmlns="http://www.w3.org/2000/svg">
<g id="Startup-Setting-1--Streamline-Ux">
<path id="Vector" d="M15.6665 75.322C15.6665 91.1434 21.9515 106.317 33.139 117.504C44.3264 128.692 59.4998 134.977 75.3212 134.977C91.1426 134.977 106.316 128.692 117.503 117.504C128.691 106.317 134.976 91.1434 134.976 75.322C134.976 67.488 133.433 59.7307 130.435 52.4931C127.437 45.2554 123.043 38.6792 117.503 33.1397C111.964 27.6002 105.388 23.2061 98.1501 20.2082C90.9125 17.2103 83.1552 15.6672 75.3212 15.6672C67.4873 15.6672 59.73 17.2103 52.4924 20.2082C45.2547 23.2061 38.6784 27.6002 33.139 33.1397C27.5995 38.6792 23.2054 45.2554 20.2074 52.4931C17.2095 59.7307 15.6665 67.488 15.6665 75.322Z" fill="#DAEDF7" stroke="#DAEDF7" stroke-width="1.50643"/>
<path id="Vector_2" d="M59.8374 127.024C59.8374 127.618 61.4087 128.187 64.2055 128.606C67.0024 129.026 70.7957 129.261 74.7511 129.261C78.7064 129.261 82.4998 129.026 85.2966 128.606C88.0935 128.187 89.6648 127.618 89.6648 127.024C89.6648 126.731 89.279 126.44 88.5295 126.168C87.78 125.897 86.6815 125.65 85.2966 125.443C83.9118 125.235 82.2677 125.07 80.4583 124.958C78.6489 124.845 76.7096 124.787 74.7511 124.787C72.7926 124.787 70.8533 124.845 69.0439 124.958C67.2345 125.07 65.5904 125.235 64.2055 125.443C62.8207 125.65 61.7221 125.897 60.9726 126.168C60.2232 126.44 59.8374 126.731 59.8374 127.024Z" fill="#45413C"/>
<path id="Vector_3" d="M119.492 69.1553C119.492 68.4362 119.207 67.7466 118.698 67.2381C118.19 66.7296 117.5 66.444 116.781 66.444H109.351C108.452 61.8308 106.636 57.4454 104.009 53.5481L109.264 48.291C109.773 47.7826 110.059 47.093 110.059 46.3739C110.059 45.6548 109.773 44.9652 109.264 44.4567L103.508 38.7105C102.999 38.202 102.31 37.9164 101.591 37.9164C100.872 37.9164 100.182 38.202 99.6734 38.7105L94.4164 43.9661C90.5212 41.3394 86.1377 39.5228 81.5265 38.624V31.194C81.5265 30.4748 81.2409 29.785 80.7324 29.2763C80.224 28.7676 79.5344 28.4816 78.8152 28.4812H70.6842C69.965 28.4816 69.2754 28.7676 68.7669 29.2763C68.2585 29.785 67.9729 30.4748 67.9729 31.194V38.624C63.3612 39.5229 58.9773 41.3396 55.0815 43.9661L49.8259 38.7105C49.3175 38.202 48.6279 37.9164 47.9088 37.9164C47.1897 37.9164 46.5001 38.202 45.9916 38.7105L40.2394 44.4627C39.9873 44.7143 39.7873 45.0131 39.6508 45.3421C39.5143 45.671 39.4441 46.0237 39.4441 46.3799C39.4441 46.736 39.5143 47.0887 39.6508 47.4176C39.7873 47.7466 39.9873 48.0454 40.2394 48.297L45.4935 53.5481C42.8669 57.4433 41.0502 61.8268 40.1514 66.438H32.7229C32.3668 66.4378 32.014 66.5078 31.6849 66.644C31.3558 66.7801 31.0567 66.9798 30.8048 67.2316C30.5529 67.4834 30.353 67.7824 30.2167 68.1114C30.0803 68.4405 30.0101 68.7931 30.0101 69.1493V77.2907C30.0101 77.6469 30.0803 77.9996 30.2167 78.3286C30.353 78.6577 30.5529 78.9566 30.8048 79.2084C31.0567 79.4602 31.3558 79.6599 31.6849 79.796C32.014 79.9322 32.3668 80.0022 32.7229 80.002H40.1529C41.0512 84.6131 42.8674 88.9966 45.4935 92.8919L40.2379 98.149C39.9858 98.4005 39.7858 98.6994 39.6493 99.0283C39.5129 99.3573 39.4426 99.71 39.4426 100.066C39.4426 100.422 39.5129 100.775 39.6493 101.104C39.7858 101.433 39.9858 101.732 40.2379 101.983L45.9901 107.735C46.4986 108.244 47.1882 108.53 47.9073 108.53C48.6264 108.53 49.316 108.244 49.8244 107.735L55.08 102.48C58.9761 105.106 63.36 106.922 67.9714 107.822V115.252C67.9714 115.971 68.2571 116.661 68.7655 117.169C69.274 117.678 69.9636 117.963 70.6827 117.963H78.8181C79.5372 117.963 80.2269 117.678 80.7353 117.169C81.2438 116.661 81.5294 115.971 81.5294 115.252V107.822C86.1405 106.923 90.5239 105.106 94.4193 102.48L99.6764 107.735C100.185 108.244 100.875 108.53 101.594 108.53C102.313 108.53 103.002 108.244 103.511 107.735L109.263 101.983C109.771 101.475 110.057 100.785 110.057 100.066C110.057 99.347 109.771 98.6574 109.263 98.149L104.007 92.8919C106.633 88.9965 108.45 84.6131 109.349 80.002H116.781C117.5 80.002 118.19 79.7164 118.698 79.2079C119.207 78.6994 119.492 78.0098 119.492 77.2907V69.1553ZM74.7512 93.56C70.7287 93.56 66.7966 92.3672 63.4521 90.1325C60.1076 87.8977 57.5008 84.7214 55.9615 81.0052C54.4222 77.2889 54.0194 73.1997 54.8042 69.2545C55.5889 65.3094 57.5259 61.6855 60.3702 58.8413C63.2145 55.997 66.8383 54.06 70.7835 53.2752C74.7286 52.4905 78.8179 52.8933 82.5341 54.4326C86.2504 55.9719 89.4267 58.5786 91.6614 61.9232C93.8962 65.2677 95.089 69.1998 95.089 73.2222C95.0892 75.8931 94.5632 78.5378 93.5412 81.0054C92.5192 83.473 91.0212 85.7151 89.1326 87.6037C87.244 89.4922 85.0019 90.9903 82.5343 92.0123C80.0668 93.0343 77.422 93.5602 74.7512 93.56Z" fill="#ADC4D9"/>
<path id="Vector_4" d="M45.4939 53.5481C43.2095 56.9361 41.5348 60.6972 40.5455 64.6618C43.9777 58.6151 48.9514 53.5862 54.96 50.0877C60.9686 46.5892 67.7972 44.7461 74.75 44.7461C81.7029 44.7461 88.5315 46.5892 94.5401 50.0877C100.549 53.5862 105.522 58.6151 108.955 64.6618C107.966 60.6974 106.293 56.9362 104.009 53.5481L109.265 48.291C109.773 47.7826 110.059 47.093 110.059 46.3739C110.059 45.6548 109.773 44.9652 109.265 44.4567L103.508 38.7105C103 38.202 102.31 37.9164 101.591 37.9164C100.872 37.9164 100.182 38.202 99.6738 38.7105L94.4167 43.9661C90.5216 41.3394 86.1381 39.5228 81.5268 38.624V31.194C81.5268 30.4748 81.2412 29.785 80.7328 29.2763C80.2244 28.7676 79.5347 28.4816 78.8155 28.4812H70.6846C69.9654 28.4816 69.2757 28.7676 68.7673 29.2763C68.2589 29.785 67.9733 30.4748 67.9733 31.194V38.624C63.3616 39.5229 58.9777 41.3396 55.0819 43.9661L49.8263 38.7105C49.3178 38.202 48.6282 37.9164 47.9092 37.9164C47.1901 37.9164 46.5005 38.202 45.992 38.7105L40.2398 44.4627C39.9877 44.7143 39.7877 45.0131 39.6512 45.3421C39.5147 45.671 39.4445 46.0237 39.4445 46.3799C39.4445 46.736 39.5147 47.0887 39.6512 47.4176C39.7877 47.7466 39.9877 48.0454 40.2398 48.297L45.4939 53.5481Z" fill="#DAEDF7"/>
<path id="Vector_5" d="M74.7514 93.5596C70.7289 93.5596 66.7968 92.3668 63.4523 90.1321C60.1078 87.8973 57.501 84.721 55.9617 81.0048C54.4224 77.2885 54.0196 73.1993 54.8044 69.2541C55.5891 65.309 57.5261 61.6851 60.3704 58.8408C63.2147 55.9966 66.8385 54.0596 70.7837 53.2748C74.7288 52.4901 78.8181 52.8928 82.5343 54.4322C86.2506 55.9715 89.4269 58.5782 91.6616 61.9228C93.8964 65.2673 95.0892 69.1994 95.0892 73.2218C95.0894 75.8927 94.5634 78.5374 93.5414 81.005C92.5194 83.4726 91.0214 85.7147 89.1328 87.6033C87.2442 89.4918 85.0021 90.9899 82.5345 92.0119C80.067 93.0339 77.4222 93.5598 74.7514 93.5596Z" stroke="#45413C" stroke-width="1.50643" stroke-linecap="round" stroke-linejoin="round"/>
<path id="Vector_6" d="M119.492 69.1553C119.492 68.4362 119.207 67.7466 118.698 67.2381C118.19 66.7296 117.5 66.444 116.781 66.444H109.351C108.452 61.8308 106.636 57.4454 104.009 53.5481L109.264 48.291C109.773 47.7826 110.059 47.093 110.059 46.3739C110.059 45.6548 109.773 44.9652 109.264 44.4567L103.508 38.7105C102.999 38.202 102.31 37.9164 101.591 37.9164C100.872 37.9164 100.182 38.202 99.6734 38.7105L94.4164 43.9661C90.5212 41.3394 86.1377 39.5228 81.5265 38.624V31.194C81.5265 30.4748 81.2409 29.785 80.7324 29.2763C80.224 28.7676 79.5344 28.4816 78.8152 28.4812H70.6842C69.965 28.4816 69.2754 28.7676 68.7669 29.2763C68.2585 29.785 67.9729 30.4748 67.9729 31.194V38.624C63.3612 39.5229 58.9773 41.3396 55.0815 43.9661L49.8259 38.7105C49.3175 38.202 48.6279 37.9164 47.9088 37.9164C47.1897 37.9164 46.5001 38.202 45.9916 38.7105L40.2394 44.4627C39.9873 44.7143 39.7873 45.0131 39.6508 45.3421C39.5143 45.671 39.4441 46.0237 39.4441 46.3799C39.4441 46.736 39.5143 47.0887 39.6508 47.4176C39.7873 47.7466 39.9873 48.0454 40.2394 48.297L45.4935 53.5481C42.8669 57.4433 41.0502 61.8268 40.1514 66.438H32.7229C32.3668 66.4378 32.014 66.5078 31.6849 66.644C31.3558 66.7801 31.0567 66.9798 30.8048 67.2316C30.5529 67.4834 30.353 67.7824 30.2167 68.1114C30.0803 68.4405 30.0101 68.7931 30.0101 69.1493V77.2907C30.0101 77.6469 30.0803 77.9996 30.2167 78.3286C30.353 78.6577 30.5529 78.9566 30.8048 79.2084C31.0567 79.4602 31.3558 79.6599 31.6849 79.796C32.014 79.9322 32.3668 80.0022 32.7229 80.002H40.1529C41.0512 84.6131 42.8674 88.9966 45.4935 92.8919L40.2379 98.149C39.9858 98.4005 39.7858 98.6994 39.6493 99.0283C39.5129 99.3573 39.4426 99.71 39.4426 100.066C39.4426 100.422 39.5129 100.775 39.6493 101.104C39.7858 101.433 39.9858 101.732 40.2379 101.983L45.9901 107.735C46.4986 108.244 47.1882 108.53 47.9073 108.53C48.6264 108.53 49.316 108.244 49.8244 107.735L55.08 102.48C58.9761 105.106 63.36 106.922 67.9714 107.822V115.252C67.9714 115.971 68.2571 116.661 68.7655 117.169C69.274 117.678 69.9636 117.963 70.6827 117.963H78.8181C79.5372 117.963 80.2269 117.678 80.7353 117.169C81.2438 116.661 81.5294 115.971 81.5294 115.252V107.822C86.1405 106.923 90.5239 105.106 94.4193 102.48L99.6764 107.735C100.185 108.244 100.875 108.53 101.594 108.53C102.313 108.53 103.002 108.244 103.511 107.735L109.263 101.983C109.771 101.475 110.057 100.785 110.057 100.066C110.057 99.347 109.771 98.6574 109.263 98.149L104.007 92.8919C106.633 88.9965 108.45 84.6131 109.349 80.002H116.781C117.5 80.002 118.19 79.7163 118.698 79.2079C119.207 78.6994 119.492 78.0098 119.492 77.2907V69.1553ZM74.7512 93.56C70.7287 93.56 66.7966 92.3672 63.4521 90.1325C60.1076 87.8977 57.5008 84.7214 55.9615 81.0052C54.4222 77.2889 54.0194 73.1997 54.8042 69.2545C55.5889 65.3094 57.5259 61.6855 60.3702 58.8413C63.2145 55.997 66.8383 54.06 70.7835 53.2752C74.7286 52.4905 78.8179 52.8933 82.5341 54.4326C86.2504 55.9719 89.4267 58.5786 91.6614 61.9232C93.8962 65.2677 95.089 69.1998 95.089 73.2222C95.0892 75.8931 94.5632 78.5378 93.5412 81.0054C92.5192 83.473 91.0212 85.7151 89.1326 87.6037C87.244 89.4922 85.0019 90.9903 82.5343 92.0123C80.0668 93.0343 77.422 93.5602 74.7512 93.56Z" stroke="#45413C" stroke-width="1.50643" stroke-linecap="round" stroke-linejoin="round"/>
<path id="Vector_7" d="M37.8325 111.88C30.3518 111.88 25.9478 102.35 34.3442 92.5532C34.48 92.3959 34.6658 92.29 34.8704 92.2532C35.075 92.2165 35.286 92.2512 35.4681 92.3515C35.6502 92.4518 35.7923 92.6116 35.8706 92.8042C35.9489 92.9967 35.9586 93.2104 35.8982 93.4093C35.1883 95.7149 34.7827 98.4546 36.1473 100.077C43.024 108.256 84.7211 58.3189 84.8613 58.1533C86.3527 56.3637 90.272 59.3151 92.0572 60.802C93.8423 62.2889 97.438 65.8428 95.9511 67.634C95.8094 67.804 57.2218 112.582 37.8325 111.88Z" fill="#FFF48C" stroke="#45413C" stroke-width="1.50643" stroke-linecap="round" stroke-linejoin="round"/>
<path id="Vector_8" d="M98.5957 76.9903L93.2537 65.037L104.633 54.9882L103.107 75.3438L98.5957 76.9903Z" fill="#FF6242"/>
<path id="Vector_9" d="M95.9456 71.0621C98.6041 69.5728 101.217 68.0036 103.781 66.3569L104.634 54.9882L93.2537 65.031L95.9456 71.0621Z" fill="#E04122"/>
<path id="Vector_10" d="M75.2006 56.6318L87.8578 60.3409L96.4555 47.873L76.2684 51.9892L75.2006 56.6318Z" fill="#FF6242"/>
<path id="Vector_11" d="M81.5043 58.4797L87.856 60.3409L96.4567 47.8716L85.2312 50.1608L81.5043 58.4797Z" fill="#E04122"/>
<path id="Vector_12" d="M75.2006 56.6318L87.8578 60.3409L96.4555 47.873L76.2684 51.9892L75.2006 56.6318Z" stroke="#45413C" stroke-width="1.50643" stroke-linecap="round" stroke-linejoin="round"/>
<path id="Vector_13" d="M74.862 49.9686C75.0965 50.0111 75.3197 50.1012 75.518 50.2335C75.7162 50.3657 75.8853 50.5373 76.0146 50.7374C76.1439 50.9376 76.2307 51.1622 76.2698 51.3973C76.3088 51.6324 76.2992 51.873 76.2415 52.1042L74.9872 57.5507C74.8759 58.0315 74.5855 58.4517 74.1751 58.7258C73.7647 58.9998 73.2652 59.1071 72.7785 59.0257C72.5442 58.983 72.321 58.8927 72.123 58.7604C71.9249 58.6281 71.756 58.4565 71.6269 58.2564C71.4977 58.0562 71.411 57.8317 71.3721 57.5967C71.3331 57.3617 71.3428 57.1212 71.4005 56.89L72.6532 51.4436C72.7645 50.9628 73.055 50.5425 73.4654 50.2685C73.8758 49.9944 74.3752 49.8872 74.862 49.9686Z" fill="#FF6242" stroke="#45413C" stroke-width="1.50643" stroke-linecap="round" stroke-linejoin="round"/>
<path id="Vector_14" d="M98.5957 76.9903L93.2537 65.037L104.633 54.9882L103.107 75.3438L98.5957 76.9903Z" stroke="#45413C" stroke-width="1.50643" stroke-linecap="round" stroke-linejoin="round"/>
<path id="Vector_15" d="M105.314 76.4657C105.238 76.2391 105.117 76.0304 104.957 75.8521C104.798 75.6739 104.604 75.5299 104.388 75.4289C104.171 75.3279 103.936 75.272 103.697 75.2646C103.458 75.2573 103.22 75.2985 102.998 75.386L97.7051 77.3158C97.2412 77.4809 96.8586 77.8182 96.6365 78.2576C96.4144 78.6971 96.3698 79.2052 96.512 79.6767C96.5885 79.903 96.71 80.1115 96.8693 80.2895C97.0287 80.4675 97.2224 80.6114 97.439 80.7123C97.6555 80.8132 97.8902 80.8692 98.129 80.8768C98.3678 80.8844 98.6056 80.8434 98.8281 80.7564L104.121 78.8176C104.583 78.6532 104.965 78.3174 105.187 77.8798C105.409 77.4422 105.454 76.936 105.314 76.4657Z" fill="#FF6242" stroke="#45413C" stroke-width="1.50643" stroke-linecap="round" stroke-linejoin="round"/>
<path id="Vector_16" d="M89.6843 80.0392C85.3758 84.8936 70.6127 89.9449 66.0685 91.4154C65.9292 91.4605 65.7805 91.4686 65.6372 91.4387C65.4938 91.4089 65.3607 91.3422 65.2509 91.2453C65.1412 91.1483 65.0586 91.0244 65.0113 90.8859C64.964 90.7473 64.9537 90.5987 64.9813 90.4549C65.8761 85.7884 69.0304 70.663 73.333 65.8116C78.4528 60.0489 86.2527 58.562 90.767 62.4963C95.2814 66.4305 94.7967 74.2781 89.6843 80.0392Z" fill="#FF8A14" stroke="#45413C" stroke-width="1.50643" stroke-linecap="round" stroke-linejoin="round"/>
<path id="Vector_17" d="M90.1155 72.7103C87.7621 75.3619 80.0577 78.115 76.9124 79.159C76.7725 79.2052 76.623 79.214 76.4786 79.1844C76.3342 79.1549 76.2001 79.0881 76.0896 78.9907C75.9791 78.8933 75.8959 78.7686 75.8485 78.6291C75.8011 78.4896 75.791 78.3401 75.8193 78.1955C76.462 74.9637 78.2263 67.0595 80.5767 64.4093C83.5595 61.0478 88.1126 60.1798 90.7464 62.4706C93.3801 64.7613 93.0982 69.3473 90.1155 72.7103Z" fill="#FFE500" stroke="#45413C" stroke-width="1.50643" stroke-linecap="round" stroke-linejoin="round"/>
<path id="Vector_18" d="M85.2611 60.1009L93.8275 67.5577C95.6673 66.6937 97.4677 65.7483 99.2233 64.7241L87.4012 54.4426C86.6043 56.296 85.8902 58.184 85.2611 60.1009Z" fill="#FF6242" stroke="#45413C" stroke-width="1.50643" stroke-linecap="round" stroke-linejoin="round"/>
<path id="Vector_19" d="M87.4015 54.4427L99.2206 64.7332C104.131 61.8518 108.862 58.6764 113.389 55.2242C119.096 50.9547 123.761 45.4478 127.035 39.1169C130.309 32.786 132.106 25.7957 132.292 18.6708C132.301 18.2872 132.226 17.9062 132.071 17.555C131.916 17.2038 131.686 16.8911 131.397 16.6391C131.107 16.3871 130.766 16.2021 130.397 16.0973C130.028 15.9924 129.64 15.9703 129.261 16.0325C122.188 17.1074 115.446 19.7557 109.532 23.7822C103.618 27.8087 98.6835 33.1108 95.091 39.2979C92.2218 44.1849 89.6539 49.2426 87.4015 54.4427Z" fill="#DAEDF7"/>
<path id="Vector_20" d="M96.1409 46.5044C99.984 39.8893 105.187 34.1649 111.406 29.7094C117.625 25.2539 124.719 22.1686 132.219 20.6575C132.258 19.9963 132.285 19.3342 132.298 18.671C132.307 18.2874 132.232 17.9065 132.077 17.5554C131.922 17.2042 131.692 16.8916 131.403 16.6397C131.113 16.3879 130.772 16.203 130.403 16.0984C130.033 15.9937 129.646 15.9718 129.267 16.0343C122.194 17.1085 115.452 19.7565 109.538 23.7831C103.624 27.8097 98.689 33.1121 95.0969 39.2996C92.2258 44.186 89.6559 49.2432 87.4015 54.443L90.4454 57.0902C92.222 53.4973 94.1216 49.9667 96.1409 46.5044Z" fill="white"/>
<path id="Vector_21" d="M87.4015 54.4427L99.2206 64.7332C104.131 61.8518 108.862 58.6764 113.389 55.2242C119.096 50.9547 123.761 45.4478 127.035 39.1169C130.309 32.786 132.106 25.7957 132.292 18.6708C132.301 18.2872 132.226 17.9062 132.071 17.555C131.916 17.2038 131.686 16.8911 131.397 16.6391C131.107 16.3871 130.766 16.2021 130.397 16.0973C130.028 15.9924 129.64 15.9703 129.261 16.0325C122.188 17.1074 115.446 19.7557 109.532 23.7822C103.618 27.8087 98.6835 33.1108 95.091 39.2979C92.2218 44.1849 89.6539 49.2426 87.4015 54.4427Z" stroke="#45413C" stroke-width="1.50643" stroke-linecap="round" stroke-linejoin="round"/>
<path id="Vector_22" d="M111.872 32.5639C111.872 33.9894 112.438 35.3565 113.446 36.3645C114.454 37.3725 115.821 37.9387 117.247 37.9387C118.672 37.9387 120.039 37.3725 121.047 36.3645C122.055 35.3565 122.621 33.9894 122.621 32.5639C122.621 31.1383 122.055 29.7712 121.047 28.7632C120.039 27.7552 118.672 27.189 117.247 27.189C115.821 27.189 114.454 27.7552 113.446 28.7632C112.438 29.7712 111.872 31.1383 111.872 32.5639Z" fill="#00B8F0"/>
<path id="Vector_23" d="M113.151 36.0451C112.695 35.5072 112.348 34.8846 112.132 34.2129C111.916 33.5411 111.835 32.8334 111.892 32.1301C111.949 31.4268 112.145 30.7417 112.467 30.1139C112.789 29.4861 113.232 28.9279 113.77 28.4712C114.308 28.0145 114.93 27.6682 115.602 27.452C116.274 27.2359 116.981 27.1543 117.685 27.2117C119.105 27.3276 120.421 28.003 121.344 29.0894L113.151 36.0451Z" fill="#4ACFFF"/>
<path id="Vector_24" d="M111.872 32.5639C111.872 33.9894 112.438 35.3565 113.446 36.3645C114.454 37.3725 115.821 37.9387 117.247 37.9387C118.672 37.9387 120.039 37.3725 121.047 36.3645C122.055 35.3565 122.621 33.9894 122.621 32.5639C122.621 31.1383 122.055 29.7712 121.047 28.7632C120.039 27.7552 118.672 27.189 117.247 27.189C115.821 27.189 114.454 27.7552 113.446 28.7632C112.438 29.7712 111.872 31.1383 111.872 32.5639Z" stroke="#45413C" stroke-width="1.50643" stroke-linecap="round" stroke-linejoin="round"/>
</g>
</svg>
