<svg width="151" height="151" viewBox="0 0 151 151" fill="none" xmlns="http://www.w3.org/2000/svg">
<g id="Video-Projector--Streamline-Ux">
<path id="Vector" d="M15.6672 75.322C15.6672 91.1434 21.9523 106.317 33.1397 117.504C44.3271 128.692 59.5005 134.977 75.322 134.977C91.1434 134.977 106.317 128.692 117.504 117.504C128.692 106.317 134.977 91.1434 134.977 75.322C134.977 67.488 133.434 59.7307 130.436 52.4931C127.438 45.2554 123.044 38.6792 117.504 33.1397C111.965 27.6002 105.388 23.2061 98.1508 20.2082C90.9132 17.2103 83.1559 15.6672 75.322 15.6672C67.488 15.6672 59.7307 17.2103 52.4931 20.2082C45.2554 23.2061 38.6792 27.6002 33.1397 33.1397C27.6002 38.6792 23.2061 45.2554 20.2082 52.4931C17.2103 59.7307 15.6672 67.488 15.6672 75.322Z" fill="#DAEDF7" stroke="#DAEDF7" stroke-width="1.50643"/>
<path id="Vector_2" d="M28.8401 30.87H121.802V38.6982H28.8401V30.87Z" fill="#87898C"/>
<path id="Vector_3" d="M120.163 30.87H30.4806C30.0455 30.87 29.6282 31.0428 29.3206 31.3505C29.0129 31.6581 28.8401 32.0754 28.8401 32.5105V36.2016C28.8401 35.7665 29.0129 35.3493 29.3206 35.0416C29.6282 34.734 30.0455 34.5611 30.4806 34.5611H120.163C120.598 34.5611 121.015 34.734 121.323 35.0416C121.63 35.3493 121.803 35.7665 121.803 36.2016V32.5105C121.803 32.0754 121.63 31.6581 121.323 31.3505C121.015 31.0428 120.598 30.87 120.163 30.87Z" fill="#BDBEC0"/>
<path id="Vector_4" d="M28.8401 30.87H121.802V38.6982H28.8401V30.87Z" stroke="#45413C" stroke-width="1.50643" stroke-linecap="round" stroke-linejoin="round"/>
<path id="Vector_5" d="M118.108 97.9443C118.108 98.3794 117.935 98.7967 117.627 99.1043C117.32 99.412 116.902 99.5848 116.467 99.5848H34.1765C33.7414 99.5848 33.3242 99.412 33.0165 99.1043C32.7088 98.7967 32.536 98.3794 32.536 97.9443V38.6982H118.108V97.9443Z" fill="white"/>
<path id="Vector_6" d="M32.536 38.6982H118.108V42.7756H32.536V38.6982Z" fill="#F8F8F8"/>
<path id="Vector_7" d="M118.108 97.9443C118.108 98.3794 117.935 98.7967 117.627 99.1043C117.32 99.412 116.902 99.5848 116.467 99.5848H34.1765C33.7414 99.5848 33.3242 99.412 33.0165 99.1043C32.7088 98.7967 32.536 98.3794 32.536 97.9443V38.6982H118.108V97.9443Z" stroke="#45413C" stroke-width="1.50643" stroke-linecap="round" stroke-linejoin="round"/>
<path id="Vector_8" d="M75.3217 99.585V108.01" stroke="#45413C" stroke-width="1.50643" stroke-linecap="round" stroke-linejoin="round"/>
<path id="Vector_9" d="M71.3459 111.986C71.3459 113.04 71.7648 114.051 72.5105 114.797C73.2561 115.543 74.2674 115.962 75.3219 115.962C76.3764 115.962 77.3877 115.543 78.1334 114.797C78.879 114.051 79.2979 113.04 79.2979 111.986C79.2979 110.931 78.879 109.92 78.1334 109.174C77.3877 108.429 76.3764 108.01 75.3219 108.01C74.2674 108.01 73.2561 108.429 72.5105 109.174C71.7648 109.92 71.3459 110.931 71.3459 111.986Z" stroke="#45413C" stroke-width="1.50643" stroke-linecap="round" stroke-linejoin="round"/>
<path id="Vector_10" opacity="0.15" d="M52.2012 123.824C52.2012 124.574 54.6371 125.294 58.9731 125.824C63.309 126.355 69.1899 126.653 75.3218 126.653C81.4538 126.653 87.3347 126.355 91.6706 125.824C96.0066 125.294 98.4425 124.574 98.4425 123.824C98.4425 123.074 96.0066 122.354 91.6706 121.824C87.3347 121.293 81.4538 120.995 75.3218 120.995C69.1899 120.995 63.309 121.293 58.9731 121.824C54.6371 122.354 52.2012 123.074 52.2012 123.824Z" fill="#45413C"/>
<path id="Vector_11" d="M67.1001 51.6776C66.5768 51.397 65.9897 51.257 65.3961 51.2714C64.8025 51.2857 64.2228 51.4539 63.7137 51.7595C63.2046 52.0651 62.7835 52.4976 62.4917 53.0147C62.1999 53.5318 62.0473 54.1158 62.0488 54.7096V83.5735C62.0469 84.1676 62.1993 84.7521 62.491 85.2696C62.7828 85.7871 63.204 86.22 63.7134 86.5258C64.2228 86.8316 64.8028 86.9998 65.3968 87.0141C65.9907 87.0283 66.5782 86.888 67.1016 86.607L94.1595 72.175C94.7111 71.8835 95.1728 71.4471 95.4948 70.9127C95.8168 70.3783 95.9869 69.7662 95.9869 69.1423C95.9869 68.5184 95.8168 67.9063 95.4948 67.3719C95.1728 66.8376 94.7111 66.4011 94.1595 66.1096L67.1001 51.6776Z" fill="#00B8F0"/>
<path id="Vector_12" d="M80.506 58.8289L67.1001 51.6703C66.5763 51.3894 65.9885 51.2494 65.3942 51.2641C64.8 51.2788 64.2198 51.4476 63.7105 51.7541C63.2012 52.0606 62.7802 52.4941 62.4889 53.0123C62.1977 53.5304 62.046 54.1153 62.0489 54.7097V77.2876L80.506 58.8289Z" fill="#4ACFFF"/>
<path id="Vector_13" d="M67.1001 51.6776C66.5768 51.397 65.9897 51.257 65.3961 51.2714C64.8025 51.2857 64.2228 51.4539 63.7137 51.7595C63.2046 52.0651 62.7835 52.4976 62.4917 53.0147C62.1999 53.5318 62.0473 54.1158 62.0488 54.7096V83.5735C62.0469 84.1676 62.1993 84.7521 62.491 85.2696C62.7828 85.7871 63.204 86.22 63.7134 86.5258C64.2228 86.8316 64.8028 86.9998 65.3968 87.0141C65.9907 87.0283 66.5782 86.888 67.1016 86.607L94.1595 72.175C94.7111 71.8835 95.1728 71.4471 95.4948 70.9127C95.8168 70.3783 95.9869 69.7662 95.9869 69.1423C95.9869 68.5184 95.8168 67.9063 95.4948 67.3719C95.1728 66.8376 94.7111 66.4011 94.1595 66.1096L67.1001 51.6776Z" stroke="#45413C" stroke-width="1.50643" stroke-linecap="round" stroke-linejoin="round"/>
</g>
</svg>
