<svg width="151" height="151" viewBox="0 0 151 151" fill="none" xmlns="http://www.w3.org/2000/svg">
<g id="Video-Player-Tablet--Streamline-Ux">
<path id="Vector" d="M15.6666 75.322C15.6666 91.1434 21.9517 106.317 33.1391 117.504C44.3265 128.692 59.4999 134.977 75.3213 134.977C91.1428 134.977 106.316 128.692 117.504 117.504C128.691 106.317 134.976 91.1434 134.976 75.322C134.976 67.488 133.433 59.7307 130.435 52.4931C127.437 45.2554 123.043 38.6792 117.504 33.1397C111.964 27.6002 105.388 23.2061 98.1502 20.2082C90.9126 17.2103 83.1553 15.6672 75.3213 15.6672C67.4874 15.6672 59.7301 17.2103 52.4925 20.2082C45.2548 23.2061 38.6785 27.6002 33.1391 33.1397C27.5996 38.6792 23.2055 45.2554 20.2076 52.4931C17.2096 59.7307 15.6666 67.488 15.6666 75.322Z" fill="#DAEDF7" stroke="#DAEDF7" stroke-width="1.50643"/>
<path id="Vector_2" d="M30.5431 48.9944H107.463V110.697H30.5431V48.9944Z" fill="white"/>
<path id="Vector_3" d="M103.237 79.945C103.21 79.945 103.185 79.9345 103.166 79.9157C103.147 79.897 103.137 79.8716 103.137 79.8451H103.336L103.237 79.945Z" fill="white"/>
<path id="Vector_4" d="M103.237 78.9994C103.069 78.9994 102.906 79.049 102.767 79.1419C102.628 79.2348 102.519 79.3669 102.455 79.5214C102.391 79.6759 102.375 79.8459 102.407 80.01C102.44 80.174 102.52 80.3247 102.639 80.4429C102.757 80.5612 102.908 80.6417 103.072 80.6744C103.236 80.707 103.406 80.6902 103.56 80.6262C103.715 80.5622 103.847 80.4538 103.94 80.3148C104.033 80.1757 104.082 80.0122 104.082 79.845C104.082 79.6207 103.993 79.4056 103.835 79.2471C103.676 79.0885 103.461 78.9994 103.237 78.9994Z" fill="#45413C"/>
<path id="Vector_5" d="M32.6948 79.8495C32.6948 80.1758 32.8245 80.4888 33.0552 80.7195C33.2859 80.9503 33.5989 81.0799 33.9252 81.0799C34.2515 81.0799 34.5645 80.9503 34.7952 80.7195C35.026 80.4888 35.1556 80.1758 35.1556 79.8495C35.1556 79.5232 35.026 79.2103 34.7952 78.9795C34.5645 78.7488 34.2515 78.6191 33.9252 78.6191C33.5989 78.6191 33.2859 78.7488 33.0552 78.9795C32.8245 79.2103 32.6948 79.5232 32.6948 79.8495Z" fill="#45413C"/>
<path id="Vector_6" d="M30.5431 48.9944H107.463V110.697H30.5431V48.9944Z" stroke="#45413C" stroke-width="1.50643" stroke-linecap="round" stroke-linejoin="round"/>
<path id="Vector_7" d="M37.3077 54.4901H99.8557V105.201H37.3077V54.4901Z" fill="#45413C"/>
<path id="Vector_8" d="M67.0649 54.4827L37.3047 84.2444V54.4827H67.0649Z" fill="#87898C"/>
<path id="Vector_9" d="M37.3077 54.4901H99.8557V105.201H37.3077V54.4901Z" stroke="#45413C" stroke-width="1.50643" stroke-linecap="round" stroke-linejoin="round"/>
<path id="Vector_10" opacity="0.15" d="M52.0079 121.336C52.0079 121.66 52.4747 121.98 53.3816 122.278C54.2884 122.577 55.6177 122.848 57.2934 123.077C58.969 123.305 60.9584 123.486 63.1478 123.61C65.3371 123.734 67.6837 123.797 70.0535 123.797C72.4233 123.797 74.7698 123.734 76.9592 123.61C79.1486 123.486 81.1379 123.305 82.8136 123.077C84.4893 122.848 85.8185 122.577 86.7254 122.278C87.6323 121.98 88.099 121.66 88.099 121.336C88.099 121.013 87.6323 120.693 86.7254 120.395C85.8185 120.096 84.4893 119.825 82.8136 119.596C81.1379 119.368 79.1486 119.187 76.9592 119.063C74.7698 118.939 72.4233 118.876 70.0535 118.876C67.6837 118.876 65.3371 118.939 63.1478 119.063C60.9584 119.187 58.969 119.368 57.2934 119.596C55.6177 119.825 54.2884 120.096 53.3816 120.395C52.4747 120.693 52.0079 121.013 52.0079 121.336Z" fill="#45413C"/>
<path id="Vector_11" d="M49.063 38.2922H128.539V83.9177H49.063V38.2922Z" fill="#00B8F0"/>
<path id="Vector_12" d="M107.86 38.2922L62.2362 83.9177H49.063V38.2922H107.86Z" fill="#4ACFFF"/>
<path id="Vector_13" d="M49.063 38.2922H128.539V83.9177H49.063V38.2922Z" stroke="#45413C" stroke-width="1.50643"/>
<path id="Vector_14" d="M128.539 32.4064V38.2928H49.063V32.4064C49.065 31.6262 49.3758 30.8785 49.9274 30.3268C50.4791 29.7752 51.2268 29.4644 52.007 29.4624H125.596C126.376 29.4644 127.123 29.7752 127.675 30.3268C128.227 30.8785 128.538 31.6262 128.539 32.4064Z" fill="white" stroke="#45413C" stroke-width="1.50643"/>
<path id="Vector_15" d="M128.539 83.9177V89.8056C128.537 90.5856 128.226 91.3329 127.675 91.8842C127.123 92.4356 126.375 92.7461 125.596 92.7481H52.007C51.227 92.7461 50.4796 92.4356 49.928 91.8842C49.3763 91.3329 49.0654 90.5856 49.063 89.8056V83.9177H128.539Z" fill="white" stroke="#45413C" stroke-width="1.50643"/>
<path id="Vector_16" d="M56.007 33.878C56.007 34.3784 56.2057 34.8582 56.5595 35.2121C56.9133 35.5659 57.3932 35.7646 57.8935 35.7646C58.3939 35.7646 58.8738 35.5659 59.2276 35.2121C59.5814 34.8582 59.7801 34.3784 59.7801 33.878C59.7801 33.3777 59.5814 32.8978 59.2276 32.544C58.8738 32.1902 58.3939 31.9915 57.8935 31.9915C57.3932 31.9915 56.9133 32.1902 56.5595 32.544C56.2057 32.8978 56.007 33.3777 56.007 33.878Z" fill="#45413C"/>
<path id="Vector_17" d="M64.8386 33.878C64.8386 34.3784 65.0374 34.8582 65.3912 35.2121C65.745 35.5659 66.2249 35.7646 66.7252 35.7646C67.2256 35.7646 67.7054 35.5659 68.0592 35.2121C68.413 34.8582 68.6118 34.3784 68.6118 33.878C68.6118 33.3777 68.413 32.8978 68.0592 32.544C67.7054 32.1902 67.2256 31.9915 66.7252 31.9915C66.2249 31.9915 65.745 32.1902 65.3912 32.544C65.0374 32.8978 64.8386 33.3777 64.8386 33.878Z" fill="#45413C"/>
<path id="Vector_18" d="M73.6688 33.878C73.6688 34.3784 73.8676 34.8582 74.2214 35.2121C74.5752 35.5659 75.0551 35.7646 75.5554 35.7646C76.0558 35.7646 76.5356 35.5659 76.8894 35.2121C77.2432 34.8582 77.442 34.3784 77.442 33.878C77.442 33.3777 77.2432 32.8978 76.8894 32.544C76.5356 32.1902 76.0558 31.9915 75.5554 31.9915C75.0551 31.9915 74.5752 32.1902 74.2214 32.544C73.8676 32.8978 73.6688 33.3777 73.6688 33.878Z" fill="#45413C"/>
<path id="Vector_19" d="M82.4996 33.878C82.4996 34.3784 82.6984 34.8582 83.0522 35.2121C83.406 35.5659 83.8859 35.7646 84.3862 35.7646C84.8866 35.7646 85.3664 35.5659 85.7202 35.2121C86.074 34.8582 86.2728 34.3784 86.2728 33.878C86.2728 33.3777 86.074 32.8978 85.7202 32.544C85.3664 32.1902 84.8866 31.9915 84.3862 31.9915C83.8859 31.9915 83.406 32.1902 83.0522 32.544C82.6984 32.8978 82.4996 33.3777 82.4996 33.878Z" fill="#45413C"/>
<path id="Vector_20" d="M91.3293 33.878C91.3293 34.3784 91.5281 34.8582 91.8819 35.2121C92.2357 35.5659 92.7156 35.7646 93.2159 35.7646C93.7163 35.7646 94.1961 35.5659 94.5499 35.2121C94.9037 34.8582 95.1025 34.3784 95.1025 33.878C95.1025 33.3777 94.9037 32.8978 94.5499 32.544C94.1961 32.1902 93.7163 31.9915 93.2159 31.9915C92.7156 31.9915 92.2357 32.1902 91.8819 32.544C91.5281 32.8978 91.3293 33.3777 91.3293 33.878Z" fill="#45413C"/>
<path id="Vector_21" d="M100.16 33.878C100.16 34.3784 100.359 34.8582 100.713 35.2121C101.066 35.5659 101.546 35.7646 102.047 35.7646C102.547 35.7646 103.027 35.5659 103.381 35.2121C103.734 34.8582 103.933 34.3784 103.933 33.878C103.933 33.3777 103.734 32.8978 103.381 32.544C103.027 32.1902 102.547 31.9915 102.047 31.9915C101.546 31.9915 101.066 32.1902 100.713 32.544C100.359 32.8978 100.16 33.3777 100.16 33.878Z" fill="#45413C"/>
<path id="Vector_22" d="M108.992 33.878C108.992 34.1258 109.041 34.3711 109.135 34.6C109.23 34.8289 109.369 35.0369 109.544 35.2121C109.72 35.3872 109.928 35.5262 110.156 35.621C110.385 35.7158 110.631 35.7646 110.878 35.7646C111.126 35.7646 111.371 35.7158 111.6 35.621C111.829 35.5262 112.037 35.3872 112.212 35.2121C112.388 35.0369 112.527 34.8289 112.621 34.6C112.716 34.3711 112.765 34.1258 112.765 33.878C112.765 33.6303 112.716 33.385 112.621 33.1561C112.527 32.9272 112.388 32.7192 112.212 32.544C112.037 32.3688 111.829 32.2299 111.6 32.1351C111.371 32.0403 111.126 31.9915 110.878 31.9915C110.631 31.9915 110.385 32.0403 110.156 32.1351C109.928 32.2299 109.72 32.3688 109.544 32.544C109.369 32.7192 109.23 32.9272 109.135 33.1561C109.041 33.385 108.992 33.6303 108.992 33.878Z" fill="#45413C"/>
<path id="Vector_23" d="M117.823 33.878C117.823 34.3784 118.021 34.8582 118.375 35.2121C118.729 35.5659 119.209 35.7646 119.709 35.7646C120.209 35.7646 120.689 35.5659 121.043 35.2121C121.397 34.8582 121.596 34.3784 121.596 33.878C121.596 33.3777 121.397 32.8978 121.043 32.544C120.689 32.1902 120.209 31.9915 119.709 31.9915C119.209 31.9915 118.729 32.1902 118.375 32.544C118.021 32.8978 117.823 33.3777 117.823 33.878Z" fill="#45413C"/>
<path id="Vector_24" d="M56.007 88.3338C56.007 88.8342 56.2057 89.3141 56.5595 89.6679C56.9133 90.0217 57.3932 90.2204 57.8935 90.2204C58.3939 90.2204 58.8738 90.0217 59.2276 89.6679C59.5814 89.3141 59.7801 88.8342 59.7801 88.3338C59.7801 87.8335 59.5814 87.3536 59.2276 86.9998C58.8738 86.646 58.3939 86.4473 57.8935 86.4473C57.3932 86.4473 56.9133 86.646 56.5595 86.9998C56.2057 87.3536 56.007 87.8335 56.007 88.3338Z" fill="#45413C"/>
<path id="Vector_25" d="M64.8386 88.3338C64.8386 88.8342 65.0374 89.3141 65.3912 89.6679C65.745 90.0217 66.2249 90.2204 66.7252 90.2204C67.2256 90.2204 67.7054 90.0217 68.0592 89.6679C68.413 89.3141 68.6118 88.8342 68.6118 88.3338C68.6118 87.8335 68.413 87.3536 68.0592 86.9998C67.7054 86.646 67.2256 86.4473 66.7252 86.4473C66.2249 86.4473 65.745 86.646 65.3912 86.9998C65.0374 87.3536 64.8386 87.8335 64.8386 88.3338Z" fill="#45413C"/>
<path id="Vector_26" d="M73.6688 88.3338C73.6688 88.8342 73.8676 89.3141 74.2214 89.6679C74.5752 90.0217 75.0551 90.2204 75.5554 90.2204C76.0558 90.2204 76.5356 90.0217 76.8894 89.6679C77.2432 89.3141 77.442 88.8342 77.442 88.3338C77.442 87.8335 77.2432 87.3536 76.8894 86.9998C76.5356 86.646 76.0558 86.4473 75.5554 86.4473C75.0551 86.4473 74.5752 86.646 74.2214 86.9998C73.8676 87.3536 73.6688 87.8335 73.6688 88.3338Z" fill="#45413C"/>
<path id="Vector_27" d="M82.4996 88.3338C82.4996 88.8342 82.6984 89.3141 83.0522 89.6679C83.406 90.0217 83.8859 90.2204 84.3862 90.2204C84.8866 90.2204 85.3664 90.0217 85.7202 89.6679C86.074 89.3141 86.2728 88.8342 86.2728 88.3338C86.2728 87.8335 86.074 87.3536 85.7202 86.9998C85.3664 86.646 84.8866 86.4473 84.3862 86.4473C83.8859 86.4473 83.406 86.646 83.0522 86.9998C82.6984 87.3536 82.4996 87.8335 82.4996 88.3338Z" fill="#45413C"/>
<path id="Vector_28" d="M91.3293 88.3338C91.3293 88.8342 91.5281 89.3141 91.8819 89.6679C92.2357 90.0217 92.7156 90.2204 93.2159 90.2204C93.7163 90.2204 94.1961 90.0217 94.5499 89.6679C94.9037 89.3141 95.1025 88.8342 95.1025 88.3338C95.1025 87.8335 94.9037 87.3536 94.5499 86.9998C94.1961 86.646 93.7163 86.4473 93.2159 86.4473C92.7156 86.4473 92.2357 86.646 91.8819 86.9998C91.5281 87.3536 91.3293 87.8335 91.3293 88.3338Z" fill="#45413C"/>
<path id="Vector_29" d="M100.16 88.3338C100.16 88.8342 100.359 89.3141 100.713 89.6679C101.066 90.0217 101.546 90.2204 102.047 90.2204C102.547 90.2204 103.027 90.0217 103.381 89.6679C103.734 89.3141 103.933 88.8342 103.933 88.3338C103.933 87.8335 103.734 87.3536 103.381 86.9998C103.027 86.646 102.547 86.4473 102.047 86.4473C101.546 86.4473 101.066 86.646 100.713 86.9998C100.359 87.3536 100.16 87.8335 100.16 88.3338Z" fill="#45413C"/>
<path id="Vector_30" d="M108.992 88.3338C108.992 88.5816 109.041 88.8269 109.135 89.0558C109.23 89.2847 109.369 89.4927 109.544 89.6679C109.72 89.843 109.928 89.982 110.156 90.0768C110.385 90.1716 110.631 90.2204 110.878 90.2204C111.126 90.2204 111.371 90.1716 111.6 90.0768C111.829 89.982 112.037 89.843 112.212 89.6679C112.388 89.4927 112.527 89.2847 112.621 89.0558C112.716 88.8269 112.765 88.5816 112.765 88.3338C112.765 88.0861 112.716 87.8408 112.621 87.6119C112.527 87.383 112.388 87.175 112.212 86.9998C112.037 86.8246 111.829 86.6857 111.6 86.5909C111.371 86.4961 111.126 86.4473 110.878 86.4473C110.631 86.4473 110.385 86.4961 110.156 86.5909C109.928 86.6857 109.72 86.8246 109.544 86.9998C109.369 87.175 109.23 87.383 109.135 87.6119C109.041 87.8408 108.992 88.0861 108.992 88.3338Z" fill="#45413C"/>
<path id="Vector_31" d="M117.823 88.3338C117.823 88.8342 118.021 89.3141 118.375 89.6679C118.729 90.0217 119.209 90.2204 119.709 90.2204C120.209 90.2204 120.689 90.0217 121.043 89.6679C121.397 89.3141 121.596 88.8342 121.596 88.3338C121.596 87.8335 121.397 87.3536 121.043 86.9998C120.689 86.646 120.209 86.4473 119.709 86.4473C119.209 86.4473 118.729 86.646 118.375 86.9998C118.021 87.3536 117.823 87.8335 117.823 88.3338Z" fill="#45413C"/>
<path id="Vector_32" d="M98.8847 62.2929C99.0931 62.1724 99.2662 61.9992 99.3865 61.7907C99.5068 61.5822 99.5701 61.3457 99.5701 61.105C99.5701 60.8643 99.5068 60.6278 99.3865 60.4193C99.2662 60.2108 99.0931 60.0376 98.8847 59.9171L84.3289 51.5147C84.12 51.3945 83.8832 51.3314 83.6421 51.3318C83.4011 51.3322 83.1644 51.3961 82.9559 51.517C82.7474 51.638 82.5744 51.8117 82.4544 52.0208C82.3345 52.2298 82.2716 52.4668 82.2723 52.7078V69.5051C82.2716 69.7462 82.3345 69.9831 82.4544 70.1922C82.5744 70.4012 82.7474 70.575 82.9559 70.6959C83.1644 70.8169 83.4011 70.8808 83.6421 70.8812C83.8832 70.8816 84.12 70.8185 84.3289 70.6982L98.8847 62.2929Z" fill="#DAEDF7"/>
<path id="Vector_33" d="M98.3746 62.5853L98.8802 62.287C99.0886 62.1665 99.2617 61.9934 99.382 61.7849C99.5023 61.5763 99.5656 61.3399 99.5656 61.0991C99.5656 60.8584 99.5023 60.6219 99.382 60.4134C99.2617 60.2049 99.0886 60.0317 98.8802 59.9113L84.3245 51.5089C84.1156 51.3886 83.8787 51.3255 83.6376 51.3259C83.3966 51.3263 83.1599 51.3902 82.9514 51.5112C82.7429 51.6321 82.57 51.8059 82.45 52.0149C82.33 52.224 82.2672 52.4609 82.2679 52.702V55.6683C82.2659 55.4266 82.3283 55.1887 82.4486 54.9791C82.5689 54.7694 82.7428 54.5955 82.9524 54.4752C83.16 54.3518 83.397 54.2867 83.6384 54.2867C83.8799 54.2867 84.1169 54.3518 84.3245 54.4752L98.3746 62.5823" fill="white"/>
<path id="Vector_34" d="M98.8847 62.2929C99.0931 62.1724 99.2662 61.9992 99.3865 61.7907C99.5068 61.5822 99.5701 61.3457 99.5701 61.105C99.5701 60.8643 99.5068 60.6278 99.3865 60.4193C99.2662 60.2108 99.0931 60.0376 98.8847 59.9171L84.3289 51.5147C84.12 51.3945 83.8832 51.3314 83.6421 51.3318C83.4011 51.3322 83.1644 51.3961 82.9559 51.517C82.7474 51.638 82.5744 51.8117 82.4544 52.0208C82.3345 52.2298 82.2716 52.4668 82.2723 52.7078V69.5051C82.2716 69.7462 82.3345 69.9831 82.4544 70.1922C82.5744 70.4012 82.7474 70.575 82.9559 70.6959C83.1644 70.8169 83.4011 70.8808 83.6421 70.8812C83.8832 70.8816 84.12 70.8185 84.3289 70.6982L98.8847 62.2929Z" stroke="#45413C" stroke-width="1.50643" stroke-linecap="round" stroke-linejoin="round"/>
</g>
</svg>
