<svg xmlns="http://www.w3.org/2000/svg" xmlns:xlink="http://www.w3.org/1999/xlink" width="192" zoomAndPan="magnify" viewBox="0 0 144 143.999998" height="192" preserveAspectRatio="xMidYMid meet" version="1.0"><defs><clipPath id="5aa02fbd67"><path d="M 0.320312 0.652344 L 75.703125 0.652344 L 75.703125 111.480469 L 0.320312 111.480469 Z M 0.320312 0.652344 " clip-rule="nonzero"/></clipPath><clipPath id="d0316ff69e"><path d="M 5.859375 28.269531 L 27.234375 28.269531 L 27.234375 46.386719 L 5.859375 46.386719 Z M 5.859375 28.269531 " clip-rule="nonzero"/></clipPath><clipPath id="c8e996dd97"><path d="M 16.519531 28.269531 C 10.632812 28.269531 5.859375 32.324219 5.859375 37.328125 C 5.859375 42.332031 10.632812 46.386719 16.519531 46.386719 C 22.410156 46.386719 27.183594 42.332031 27.183594 37.328125 C 27.183594 32.324219 22.410156 28.269531 16.519531 28.269531 Z M 16.519531 28.269531 " clip-rule="nonzero"/></clipPath><clipPath id="0367702158"><path d="M 0.859375 0.269531 L 22.199219 0.269531 L 22.199219 18.386719 L 0.859375 18.386719 Z M 0.859375 0.269531 " clip-rule="nonzero"/></clipPath><clipPath id="7c41391857"><path d="M 11.519531 0.269531 C 5.632812 0.269531 0.859375 4.324219 0.859375 9.328125 C 0.859375 14.332031 5.632812 18.386719 11.519531 18.386719 C 17.410156 18.386719 22.183594 14.332031 22.183594 9.328125 C 22.183594 4.324219 17.410156 0.269531 11.519531 0.269531 Z M 11.519531 0.269531 " clip-rule="nonzero"/></clipPath><clipPath id="90aa65297c"><rect x="0" width="23" y="0" height="19"/></clipPath><clipPath id="5da5755632"><path d="M 18.382812 8.875 L 36.335938 8.875 L 36.335938 26.28125 L 18.382812 26.28125 Z M 18.382812 8.875 " clip-rule="nonzero"/></clipPath><clipPath id="977baf76d0"><path d="M 27.328125 8.875 C 22.386719 8.875 18.382812 12.769531 18.382812 17.578125 C 18.382812 22.382812 22.386719 26.28125 27.328125 26.28125 C 32.265625 26.28125 36.269531 22.382812 36.269531 17.578125 C 36.269531 12.769531 32.265625 8.875 27.328125 8.875 Z M 27.328125 8.875 " clip-rule="nonzero"/></clipPath><clipPath id="02bff33e6a"><path d="M 0.382812 0.875 L 18.320312 0.875 L 18.320312 18.28125 L 0.382812 18.28125 Z M 0.382812 0.875 " clip-rule="nonzero"/></clipPath><clipPath id="6578c77a30"><path d="M 9.328125 0.875 C 4.386719 0.875 0.382812 4.769531 0.382812 9.578125 C 0.382812 14.382812 4.386719 18.28125 9.328125 18.28125 C 14.265625 18.28125 18.269531 14.382812 18.269531 9.578125 C 18.269531 4.769531 14.265625 0.875 9.328125 0.875 Z M 9.328125 0.875 " clip-rule="nonzero"/></clipPath><clipPath id="7b7a4b103a"><rect x="0" width="19" y="0" height="19"/></clipPath><clipPath id="a90e9ab2bc"><path d="M 19.875 58.574219 L 36.308594 58.574219 L 36.308594 73.65625 L 19.875 73.65625 Z M 19.875 58.574219 " clip-rule="nonzero"/></clipPath><clipPath id="bf604a2905"><path d="M 28.070312 58.574219 C 23.542969 58.574219 19.875 61.953125 19.875 66.117188 C 19.875 70.28125 23.542969 73.65625 28.070312 73.65625 C 32.597656 73.65625 36.269531 70.28125 36.269531 66.117188 C 36.269531 61.953125 32.597656 58.574219 28.070312 58.574219 Z M 28.070312 58.574219 " clip-rule="nonzero"/></clipPath><clipPath id="28ca41417c"><path d="M 0.875 0.574219 L 17.308594 0.574219 L 17.308594 15.65625 L 0.875 15.65625 Z M 0.875 0.574219 " clip-rule="nonzero"/></clipPath><clipPath id="079b7e98a9"><path d="M 9.070312 0.574219 C 4.542969 0.574219 0.875 3.953125 0.875 8.117188 C 0.875 12.28125 4.542969 15.65625 9.070312 15.65625 C 13.597656 15.65625 17.269531 12.28125 17.269531 8.117188 C 17.269531 3.953125 13.597656 0.574219 9.070312 0.574219 Z M 9.070312 0.574219 " clip-rule="nonzero"/></clipPath><clipPath id="db1fb5e202"><rect x="0" width="18" y="0" height="16"/></clipPath><clipPath id="a90857059e"><rect x="0" width="76" y="0" height="112"/></clipPath></defs><g transform="matrix(1, 0, 0, 1, 34, 15)"><g clip-path="url(#a90857059e)"><g clip-path="url(#5aa02fbd67)"><path fill="#2b2e3f" d="M 46.371094 101.445312 L 46.371094 104.453125 C 46.371094 108.285156 43.246094 111.414062 39.410156 111.414062 L 36.148438 111.414062 C 32.316406 111.414062 29.1875 108.285156 29.1875 104.453125 L 29.1875 101.445312 C 26.121094 100.722656 23.820312 97.957031 23.820312 94.667969 L 23.820312 90.742188 C 21.898438 89.496094 20.632812 87.347656 20.632812 84.894531 L 20.632812 81.167969 C 15.808594 75.769531 18.453125 71.636719 18.453125 71.636719 C 12.726562 70.496094 8.21875 65.292969 10.15625 59.3125 C 2.550781 57.222656 -0.679688 48.804688 3.601562 42.382812 C -1.988281 34.988281 0.792969 22.03125 9.542969 19.308594 C 9.5 11.222656 16.984375 4.816406 25.054688 6.171875 C 28.875 1.117188 35.097656 0.652344 40.703125 1.089844 C 60.261719 2.578125 75.671875 18.917969 75.671875 38.867188 C 75.671875 47.523438 72.738281 55.835938 67.3125 62.585938 L 54.941406 80.984375 L 54.941406 84.890625 C 54.941406 87.339844 53.664062 89.492188 51.738281 90.738281 L 51.738281 94.660156 C 51.738281 97.957031 49.453125 100.726562 46.371094 101.445312 Z M 46.371094 101.445312 " fill-opacity="1" fill-rule="evenodd"/></g><path fill="#00c896" d="M 24.363281 81.664062 L 51.214844 81.664062 L 51.214844 84.894531 C 51.214844 86.667969 49.753906 88.128906 47.980469 88.128906 L 27.597656 88.128906 C 25.808594 88.128906 24.363281 86.667969 24.363281 84.894531 Z M 24.363281 81.664062 " fill-opacity="1" fill-rule="evenodd"/><path fill="#ff7d7d" d="M 27.550781 91.449219 L 48.011719 91.449219 L 48.011719 94.667969 C 48.011719 96.457031 46.566406 97.898438 44.792969 97.898438 L 30.785156 97.898438 C 29.011719 97.898438 27.550781 96.457031 27.550781 94.667969 Z M 27.550781 91.449219 " fill-opacity="1" fill-rule="evenodd"/><path fill="#00c896" d="M 32.917969 101.21875 L 42.644531 101.21875 L 42.644531 104.453125 C 42.644531 106.226562 41.203125 107.683594 39.414062 107.683594 L 36.148438 107.683594 C 34.375 107.683594 32.917969 106.226562 32.917969 104.453125 Z M 32.917969 101.21875 " fill-opacity="1" fill-rule="evenodd"/><path fill="#00c896" d="M 40.027344 77.890625 L 44.992188 77.890625 L 44.992188 39.289062 L 40.027344 39.289062 Z M 48.65625 77.890625 L 52.894531 77.890625 L 65.660156 58.9375 C 69.882812 53.089844 72.140625 46.246094 72.140625 38.867188 C 72.140625 20.648438 57.949219 5.734375 40.027344 4.578125 L 40.027344 35.621094 L 44.882812 35.621094 C 45.019531 29.761719 46.550781 27.59375 50.191406 27.519531 C 54.007812 27.445312 57.015625 30.976562 55.902344 35.066406 C 55.871094 35.15625 55.859375 35.246094 55.828125 35.335938 C 54.746094 38.386719 52.234375 39.230469 48.65625 39.289062 Z M 50.296875 35.589844 C 49.125 35.589844 48.175781 34.640625 48.175781 33.46875 C 48.175781 32.28125 49.125 31.335938 50.296875 31.335938 C 51.484375 31.335938 52.429688 32.28125 52.429688 33.46875 C 52.429688 34.640625 51.484375 35.589844 50.296875 35.589844 Z M 50.296875 35.589844 " fill-opacity="1" fill-rule="evenodd"/><path fill="#ff7d7d" d="M 21.660156 73.574219 C 21.027344 74.808594 21.792969 76.460938 22.652344 77.707031 L 36.34375 77.859375 L 36.34375 51.507812 C 34.917969 49.570312 32.285156 47.4375 27.867188 48.097656 C 26.859375 48.246094 25.910156 47.539062 25.761719 46.53125 C 25.609375 45.511719 26.316406 44.578125 27.324219 44.425781 C 31.277344 43.84375 34.210938 44.832031 36.34375 46.351562 L 36.34375 36.910156 C 34.78125 34.941406 32.222656 32.882812 28.359375 32.804688 C 27.339844 32.773438 26.527344 31.933594 26.542969 30.914062 C 26.574219 29.890625 27.414062 29.078125 28.4375 29.109375 C 31.757812 29.167969 34.359375 30.308594 36.34375 31.796875 L 36.34375 4.5625 C 32.359375 4.800781 30.222656 5.628906 28.222656 8.382812 C 27.894531 9.480469 27.757812 11.371094 28.945312 14.183594 C 30.222656 13.703125 31.726562 13.433594 33.5625 13.507812 C 34.582031 13.539062 35.378906 14.394531 35.351562 15.417969 C 35.320312 16.425781 34.460938 17.234375 33.441406 17.207031 C 26.828125 16.980469 26.421875 23.382812 26.421875 23.398438 C 26.347656 24.421875 25.457031 25.1875 24.4375 25.113281 C 23.417969 25.039062 22.648438 24.152344 22.722656 23.128906 C 22.722656 23.101562 22.980469 19.058594 25.804688 16.214844 C 24.648438 13.675781 24.300781 11.554688 24.347656 9.84375 C 18.648438 8.941406 13.238281 13.496094 13.269531 19.285156 L 13.269531 19.601562 C 14.457031 20.324219 16.351562 22.035156 17.449219 25.929688 C 17.71875 26.921875 17.132812 27.945312 16.15625 28.214844 C 15.164062 28.484375 14.140625 27.898438 13.871094 26.921875 C 12.789062 23.042969 11.316406 22.714844 11.300781 22.714844 L 11.242188 22.683594 L 10.65625 22.875 C 4.132812 24.90625 2.75 35.066406 6.582031 40.132812 L 7.019531 40.707031 C 11.574219 40.34375 15.675781 37.640625 17.554688 36.226562 C 16.515625 32.976562 17.976562 30.003906 17.976562 29.988281 C 18.410156 29.054688 19.507812 28.664062 20.441406 29.097656 C 21.375 29.535156 21.765625 30.648438 21.328125 31.566406 C 21.328125 31.578125 19.347656 35.636719 24.003906 38.132812 C 24.90625 38.617188 25.253906 39.742188 24.769531 40.644531 C 24.289062 41.542969 23.164062 41.890625 22.261719 41.410156 C 21.105469 40.777344 20.203125 40.101562 19.496094 39.378906 C 17.089844 41.136719 12.207031 44.160156 6.734375 44.433594 L 6.703125 44.460938 C 3.753906 48.882812 6.128906 54.339844 11.152344 55.722656 L 11.648438 55.855469 C 13.015625 55 14.820312 54.082031 16.894531 53.585938 C 16.96875 51.015625 18.277344 48.851562 18.292969 48.835938 C 18.804688 47.949219 19.945312 47.664062 20.816406 48.1875 C 21.707031 48.714844 21.992188 49.855469 21.464844 50.730469 C 21.449219 50.746094 18.957031 54.910156 22.832031 56.832031 C 23.75 57.285156 24.125 58.398438 23.671875 59.3125 C 23.222656 60.230469 22.109375 60.605469 21.191406 60.15625 C 19.507812 59.3125 18.425781 58.277344 17.78125 57.179688 C 16.472656 57.480469 15.300781 58.007812 14.339844 58.546875 L 13.707031 60.472656 C 12.472656 64.273438 15.691406 67.28125 19.195312 67.972656 L 21.898438 68.515625 C 24.214844 67.238281 27.792969 64.636719 28.921875 60.378906 C 29.1875 59.390625 30.195312 58.800781 31.191406 59.058594 C 32.183594 59.3125 32.769531 60.335938 32.515625 61.328125 C 30.816406 67.746094 24.984375 71.175781 22.398438 72.421875 Z M 21.660156 73.574219 " fill-opacity="1" fill-rule="evenodd"/><g clip-path="url(#d0316ff69e)"><g clip-path="url(#c8e996dd97)"><g transform="matrix(1, 0, 0, 1, 5, 28)"><g clip-path="url(#90aa65297c)"><g clip-path="url(#0367702158)"><g clip-path="url(#7c41391857)"><path fill="#ff7d7d" d="M 0.859375 0.269531 L 22.164062 0.269531 L 22.164062 18.386719 L 0.859375 18.386719 Z M 0.859375 0.269531 " fill-opacity="1" fill-rule="nonzero"/></g></g></g></g></g></g><g clip-path="url(#5da5755632)"><g clip-path="url(#977baf76d0)"><g transform="matrix(1, 0, 0, 1, 18, 8)"><g clip-path="url(#7b7a4b103a)"><g clip-path="url(#02bff33e6a)"><g clip-path="url(#6578c77a30)"><path fill="#ff7d7d" d="M 0.382812 0.875 L 18.269531 0.875 L 18.269531 18.28125 L 0.382812 18.28125 Z M 0.382812 0.875 " fill-opacity="1" fill-rule="nonzero"/></g></g></g></g></g></g><g clip-path="url(#a90e9ab2bc)"><g clip-path="url(#bf604a2905)"><g transform="matrix(1, 0, 0, 1, 19, 58)"><g clip-path="url(#db1fb5e202)"><g clip-path="url(#28ca41417c)"><g clip-path="url(#079b7e98a9)"><path fill="#ff7d7d" d="M 0.875 0.574219 L 17.25 0.574219 L 17.25 15.65625 L 0.875 15.65625 Z M 0.875 0.574219 " fill-opacity="1" fill-rule="nonzero"/></g></g></g></g></g></g></g></g></svg>