<svg xmlns="http://www.w3.org/2000/svg" xmlns:xlink="http://www.w3.org/1999/xlink" width="500" zoomAndPan="magnify" viewBox="0 0 375 374.999991" height="500" preserveAspectRatio="xMidYMid meet" version="1.0"><defs><clipPath id="81f626b639"><path d="M 90 41 L 285.6875 41 L 285.6875 329.515625 L 90 329.515625 Z M 90 41 " clip-rule="nonzero"/></clipPath><clipPath id="e614eac5bf"><path d="M 103.804688 112.679688 L 159.464844 112.679688 L 159.464844 159.863281 L 103.804688 159.863281 Z M 103.804688 112.679688 " clip-rule="nonzero"/></clipPath><clipPath id="904f63ebce"><path d="M 131.566406 112.679688 C 116.234375 112.679688 103.804688 123.242188 103.804688 136.273438 C 103.804688 149.300781 116.234375 159.863281 131.566406 159.863281 C 146.898438 159.863281 159.328125 149.300781 159.328125 136.273438 C 159.328125 123.242188 146.898438 112.679688 131.566406 112.679688 Z M 131.566406 112.679688 " clip-rule="nonzero"/></clipPath><clipPath id="ac9b2f7f9a"><path d="M 0.804688 0.679688 L 56.359375 0.679688 L 56.359375 47.863281 L 0.804688 47.863281 Z M 0.804688 0.679688 " clip-rule="nonzero"/></clipPath><clipPath id="e1560d45b4"><path d="M 28.566406 0.679688 C 13.234375 0.679688 0.804688 11.242188 0.804688 24.273438 C 0.804688 37.300781 13.234375 47.863281 28.566406 47.863281 C 43.898438 47.863281 56.328125 37.300781 56.328125 24.273438 C 56.328125 11.242188 43.898438 0.679688 28.566406 0.679688 Z M 28.566406 0.679688 " clip-rule="nonzero"/></clipPath><clipPath id="a52d732eef"><rect x="0" width="57" y="0" height="48"/></clipPath><clipPath id="8ce179bae8"><path d="M 136.414062 62.171875 L 183 62.171875 L 183 107.503906 L 136.414062 107.503906 Z M 136.414062 62.171875 " clip-rule="nonzero"/></clipPath><clipPath id="b2de9c1016"><path d="M 159.707031 62.171875 C 146.84375 62.171875 136.414062 72.320312 136.414062 84.835938 C 136.414062 97.355469 146.84375 107.503906 159.707031 107.503906 C 172.566406 107.503906 182.996094 97.355469 182.996094 84.835938 C 182.996094 72.320312 172.566406 62.171875 159.707031 62.171875 Z M 159.707031 62.171875 " clip-rule="nonzero"/></clipPath><clipPath id="cd9af147be"><path d="M 0.414062 0.171875 L 47 0.171875 L 47 45.503906 L 0.414062 45.503906 Z M 0.414062 0.171875 " clip-rule="nonzero"/></clipPath><clipPath id="b33fc0d02f"><path d="M 23.707031 0.171875 C 10.84375 0.171875 0.414062 10.320312 0.414062 22.835938 C 0.414062 35.355469 10.84375 45.503906 23.707031 45.503906 C 36.566406 45.503906 46.996094 35.355469 46.996094 22.835938 C 46.996094 10.320312 36.566406 0.171875 23.707031 0.171875 Z M 23.707031 0.171875 " clip-rule="nonzero"/></clipPath><clipPath id="d255b8420f"><rect x="0" width="47" y="0" height="46"/></clipPath><clipPath id="42b74934c1"><path d="M 140.292969 191.601562 L 183 191.601562 L 183 230.878906 L 140.292969 230.878906 Z M 140.292969 191.601562 " clip-rule="nonzero"/></clipPath><clipPath id="8d74133cd7"><path d="M 161.644531 191.601562 C 149.851562 191.601562 140.292969 200.394531 140.292969 211.238281 C 140.292969 222.085938 149.851562 230.878906 161.644531 230.878906 C 173.4375 230.878906 182.996094 222.085938 182.996094 211.238281 C 182.996094 200.394531 173.4375 191.601562 161.644531 191.601562 Z M 161.644531 191.601562 " clip-rule="nonzero"/></clipPath><clipPath id="379ef3c8e7"><path d="M 0.292969 0.601562 L 43 0.601562 L 43 39.878906 L 0.292969 39.878906 Z M 0.292969 0.601562 " clip-rule="nonzero"/></clipPath><clipPath id="7e3e520b3b"><path d="M 21.644531 0.601562 C 9.851562 0.601562 0.292969 9.394531 0.292969 20.238281 C 0.292969 31.085938 9.851562 39.878906 21.644531 39.878906 C 33.4375 39.878906 42.996094 31.085938 42.996094 20.238281 C 42.996094 9.394531 33.4375 0.601562 21.644531 0.601562 Z M 21.644531 0.601562 " clip-rule="nonzero"/></clipPath><clipPath id="427cc7b191"><rect x="0" width="43" y="0" height="40"/></clipPath></defs><g clip-path="url(#81f626b639)"><path fill="#2b2e3f" d="M 209.300781 303.246094 L 209.300781 311.074219 C 209.300781 321.054688 201.160156 329.199219 191.171875 329.199219 L 182.675781 329.199219 C 172.695312 329.199219 164.550781 321.058594 164.550781 311.074219 L 164.550781 303.246094 C 156.566406 301.363281 150.578125 294.160156 150.578125 285.589844 L 150.578125 275.375 C 145.566406 272.121094 142.277344 266.527344 142.277344 260.144531 L 142.277344 250.4375 C 129.710938 236.382812 136.597656 225.621094 136.597656 225.621094 C 121.683594 222.644531 109.941406 209.097656 114.992188 193.519531 C 95.1875 188.078125 86.769531 166.15625 97.925781 149.4375 C 83.363281 130.179688 90.605469 96.433594 113.390625 89.347656 C 113.277344 68.285156 132.773438 51.609375 153.792969 55.128906 C 163.738281 41.972656 179.945312 40.765625 194.542969 41.898438 C 245.472656 45.777344 285.601562 88.328125 285.601562 140.273438 C 285.601562 162.824219 277.96875 184.472656 263.832031 202.046875 L 231.613281 249.957031 L 231.613281 260.132812 C 231.613281 266.515625 228.289062 272.113281 223.277344 275.363281 L 223.277344 285.578125 C 223.277344 294.160156 217.324219 301.367188 209.300781 303.246094 Z M 209.300781 303.246094 " fill-opacity="1" fill-rule="evenodd"/></g><path fill="#00c896" d="M 151.992188 251.730469 L 221.910156 251.730469 L 221.910156 260.144531 C 221.910156 264.765625 218.113281 268.5625 213.492188 268.5625 L 160.410156 268.5625 C 155.75 268.5625 151.992188 264.765625 151.992188 260.144531 Z M 151.992188 251.730469 " fill-opacity="1" fill-rule="evenodd"/><path fill="#ff7d7d" d="M 160.289062 277.214844 L 213.566406 277.214844 L 213.566406 285.589844 C 213.566406 290.25 209.8125 294.003906 205.191406 294.003906 L 168.710938 294.003906 C 164.089844 294.003906 160.292969 290.25 160.292969 285.589844 L 160.292969 277.214844 Z M 160.289062 277.214844 " fill-opacity="1" fill-rule="evenodd"/><path fill="#00c896" d="M 174.265625 302.65625 L 199.59375 302.65625 L 199.59375 311.074219 C 199.59375 315.691406 195.839844 319.488281 191.179688 319.488281 L 182.683594 319.488281 C 178.0625 319.488281 174.265625 315.691406 174.265625 311.074219 Z M 174.265625 302.65625 " fill-opacity="1" fill-rule="evenodd"/><path fill="#00c896" d="M 192.785156 241.90625 L 205.703125 241.90625 L 205.703125 141.371094 L 192.785156 141.371094 Z M 215.253906 241.90625 L 226.292969 241.90625 L 259.53125 192.542969 C 270.53125 177.316406 276.402344 159.5 276.402344 140.28125 C 276.402344 92.832031 239.449219 53.996094 192.785156 50.988281 L 192.785156 131.828125 L 205.429688 131.828125 C 205.777344 116.5625 209.769531 110.925781 219.246094 110.730469 C 229.191406 110.535156 237.019531 119.730469 234.121094 130.378906 C 234.042969 130.617188 234.007812 130.851562 233.925781 131.082031 C 231.105469 139.027344 224.574219 141.222656 215.253906 141.378906 Z M 219.523438 131.742188 C 216.46875 131.742188 214 129.273438 214 126.21875 C 214 123.125 216.46875 120.664062 219.523438 120.664062 C 222.617188 120.664062 225.078125 123.132812 225.078125 126.21875 C 225.078125 129.273438 222.609375 131.742188 219.523438 131.742188 Z M 219.523438 131.742188 " fill-opacity="1" fill-rule="evenodd"/><path fill="#ff7d7d" d="M 144.945312 230.664062 C 143.300781 233.875 145.296875 238.183594 147.527344 241.425781 L 183.1875 241.816406 L 183.1875 173.203125 C 179.472656 168.152344 172.621094 162.59375 161.109375 164.3125 C 158.488281 164.707031 156.019531 162.863281 155.628906 160.242188 C 155.238281 157.578125 157.078125 155.148438 159.699219 154.757812 C 169.996094 153.234375 177.632812 155.816406 183.1875 159.769531 L 183.1875 135.183594 C 179.117188 130.058594 172.460938 124.691406 162.398438 124.496094 C 159.734375 124.414062 157.625 122.222656 157.664062 119.566406 C 157.746094 116.902344 159.9375 114.789062 162.59375 114.863281 C 171.246094 115.019531 178.015625 117.996094 183.183594 121.871094 L 183.183594 50.941406 C 172.8125 51.570312 167.246094 53.722656 162.042969 60.890625 C 161.179688 63.746094 160.828125 68.675781 163.921875 76 C 167.246094 74.746094 171.164062 74.042969 175.941406 74.242188 C 178.605469 74.320312 180.675781 76.554688 180.601562 79.210938 C 180.519531 81.832031 178.289062 83.945312 175.628906 83.871094 C 158.40625 83.285156 157.347656 99.960938 157.347656 100 C 157.152344 102.664062 154.839844 104.660156 152.183594 104.464844 C 149.523438 104.269531 147.523438 101.957031 147.71875 99.296875 C 147.71875 99.21875 148.386719 88.691406 155.742188 81.292969 C 152.730469 74.675781 151.824219 69.15625 151.945312 64.695312 C 137.109375 62.351562 123.015625 74.210938 123.097656 89.285156 L 123.097656 90.105469 C 126.191406 91.988281 131.121094 96.445312 133.980469 106.585938 C 134.683594 109.171875 133.160156 111.832031 130.617188 112.535156 C 128.03125 113.238281 125.371094 111.710938 124.667969 109.171875 C 121.847656 99.070312 118.011719 98.210938 117.972656 98.210938 L 117.816406 98.128906 L 116.292969 98.636719 C 99.304688 103.921875 95.703125 130.386719 105.683594 143.574219 L 106.816406 145.066406 C 118.679688 144.128906 129.367188 137.082031 134.257812 133.398438 C 131.554688 124.945312 135.355469 117.195312 135.355469 117.15625 C 136.488281 114.726562 139.347656 113.707031 141.777344 114.84375 C 144.203125 115.976562 145.222656 118.875 144.089844 121.261719 C 144.089844 121.300781 138.921875 131.871094 151.054688 138.371094 C 153.402344 139.625 154.304688 142.558594 153.050781 144.90625 C 151.796875 147.253906 148.863281 148.15625 146.515625 146.902344 C 143.5 145.253906 141.15625 143.496094 139.3125 141.613281 C 133.050781 146.195312 120.332031 154.0625 106.074219 154.769531 L 105.996094 154.851562 C 98.320312 166.363281 104.503906 180.570312 117.582031 184.171875 L 118.875 184.523438 C 122.4375 182.289062 127.136719 179.902344 132.535156 178.609375 C 132.734375 171.914062 136.136719 166.277344 136.179688 166.242188 C 137.507812 163.929688 140.488281 163.1875 142.753906 164.554688 C 145.066406 165.925781 145.808594 168.898438 144.4375 171.171875 C 144.398438 171.210938 137.902344 182.054688 148 187.066406 C 150.386719 188.238281 151.363281 191.136719 150.191406 193.527344 C 149.019531 195.914062 146.117188 196.890625 143.730469 195.71875 C 139.347656 193.527344 136.53125 190.820312 134.84375 187.96875 C 131.4375 188.75 128.382812 190.121094 125.882812 191.53125 L 124.234375 196.539062 C 121.027344 206.445312 129.402344 214.273438 138.527344 216.074219 L 145.574219 217.484375 C 151.601562 214.160156 160.921875 207.382812 163.855469 196.304688 C 164.554688 193.722656 167.179688 192.191406 169.769531 192.859375 C 172.355469 193.527344 173.878906 196.183594 173.214844 198.773438 C 168.789062 215.488281 153.601562 224.410156 146.867188 227.660156 Z M 144.945312 230.664062 " fill-opacity="1" fill-rule="evenodd"/><g clip-path="url(#e614eac5bf)"><g clip-path="url(#904f63ebce)"><g transform="matrix(1, 0, 0, 1, 103, 112)"><g clip-path="url(#a52d732eef)"><g clip-path="url(#ac9b2f7f9a)"><g clip-path="url(#e1560d45b4)"><path fill="#ff7d7d" d="M 0.804688 0.679688 L 56.28125 0.679688 L 56.28125 47.863281 L 0.804688 47.863281 Z M 0.804688 0.679688 " fill-opacity="1" fill-rule="nonzero"/></g></g></g></g></g></g><g clip-path="url(#8ce179bae8)"><g clip-path="url(#b2de9c1016)"><g transform="matrix(1, 0, 0, 1, 136, 62)"><g clip-path="url(#d255b8420f)"><g clip-path="url(#cd9af147be)"><g clip-path="url(#b33fc0d02f)"><path fill="#ff7d7d" d="M 0.414062 0.171875 L 46.988281 0.171875 L 46.988281 45.503906 L 0.414062 45.503906 Z M 0.414062 0.171875 " fill-opacity="1" fill-rule="nonzero"/></g></g></g></g></g></g><g clip-path="url(#42b74934c1)"><g clip-path="url(#8d74133cd7)"><g transform="matrix(1, 0, 0, 1, 140, 191)"><g clip-path="url(#427cc7b191)"><g clip-path="url(#379ef3c8e7)"><g clip-path="url(#7e3e520b3b)"><path fill="#ff7d7d" d="M 0.292969 0.601562 L 42.945312 0.601562 L 42.945312 39.878906 L 0.292969 39.878906 Z M 0.292969 0.601562 " fill-opacity="1" fill-rule="nonzero"/></g></g></g></g></g></g></svg>