<svg xmlns="http://www.w3.org/2000/svg" xmlns:xlink="http://www.w3.org/1999/xlink" width="500" zoomAndPan="magnify" viewBox="0 0 375 374.999991" height="500" preserveAspectRatio="xMidYMid meet" version="1.0"><defs><g/><clipPath id="ba8af7f8ab"><path d="M 37 119.289062 L 122.738281 119.289062 L 122.738281 245.289062 L 37 245.289062 Z M 37 119.289062 " clip-rule="nonzero"/></clipPath></defs><g fill="#000000" fill-opacity="0.4"><g transform="translate(122.691119, 226.836372)"><g><path d="M 69.96875 0 L 47.625 0 L 21.390625 -30.1875 L 21.390625 0 L 5.171875 0 L 5.171875 -71.171875 L 21.390625 -71.171875 L 21.390625 -42.09375 L 45.8125 -71.171875 L 65.46875 -71.171875 L 36.828125 -37.4375 Z M 69.96875 0 "/></g></g></g><g fill="#000000" fill-opacity="0.4"><g transform="translate(186.783259, 226.836372)"><g><path d="M 5.171875 0 L 5.171875 -74.1875 L 20.4375 -74.1875 L 20.4375 0 Z M 5.171875 0 "/></g></g></g><g fill="#000000" fill-opacity="0.4"><g transform="translate(208.607209, 226.836372)"><g><path d="M 19.578125 -44.25 L 19.578125 -23.203125 C 19.578125 -18.835938 20.238281 -15.734375 21.5625 -13.890625 C 22.882812 -12.046875 25.128906 -11.125 28.296875 -11.125 C 31.460938 -11.125 33.707031 -12.046875 35.03125 -13.890625 C 36.351562 -15.734375 37.015625 -18.835938 37.015625 -23.203125 L 37.015625 -44.25 L 52.28125 -44.25 L 52.28125 -19.5 C 52.28125 -12.132812 50.363281 -6.828125 46.53125 -3.578125 C 42.707031 -0.328125 36.625 1.296875 28.28125 1.296875 C 19.945312 1.296875 13.867188 -0.328125 10.046875 -3.578125 C 6.222656 -6.828125 4.3125 -12.132812 4.3125 -19.5 L 4.3125 -44.25 Z M 19.578125 -44.25 "/></g></g></g><g fill="#000000" fill-opacity="0.4"><g transform="translate(261.399086, 226.836372)"><g><path d="M 7.765625 -44.25 L 7.765625 -60.734375 L 23.03125 -60.734375 L 23.03125 -44.25 L 32.34375 -44.25 L 32.34375 -32.609375 L 23.03125 -32.609375 L 23.03125 -18.546875 C 23.03125 -14.460938 24.179688 -12.421875 26.484375 -12.421875 C 27.054688 -12.421875 27.660156 -12.535156 28.296875 -12.765625 C 28.929688 -12.992188 29.421875 -13.222656 29.765625 -13.453125 L 30.28125 -13.796875 L 34.078125 -1.46875 C 30.796875 0.375 27.054688 1.296875 22.859375 1.296875 C 19.984375 1.296875 17.507812 0.796875 15.4375 -0.203125 C 13.375 -1.210938 11.804688 -2.566406 10.734375 -4.265625 C 9.671875 -5.960938 8.910156 -7.742188 8.453125 -9.609375 C 7.992188 -11.484375 7.765625 -13.484375 7.765625 -15.609375 L 7.765625 -32.609375 L 1.375 -32.609375 L 1.375 -44.25 Z M 7.765625 -44.25 "/></g></g></g><g fill="#000000" fill-opacity="0.4"><g transform="translate(291.676672, 226.836372)"><g><path d="M 5.171875 0 L 5.171875 -44.25 L 20.4375 -44.25 L 20.4375 -37.875 L 20.625 -37.875 C 20.738281 -38.101562 20.921875 -38.390625 21.171875 -38.734375 C 21.429688 -39.078125 21.992188 -39.679688 22.859375 -40.546875 C 23.722656 -41.410156 24.644531 -42.1875 25.625 -42.875 C 26.601562 -43.5625 27.867188 -44.175781 29.421875 -44.71875 C 30.972656 -45.269531 32.550781 -45.546875 34.15625 -45.546875 C 35.820312 -45.546875 37.460938 -45.316406 39.078125 -44.859375 C 40.691406 -44.398438 41.867188 -43.941406 42.609375 -43.484375 L 43.828125 -42.78125 L 37.4375 -29.84375 C 35.539062 -31.457031 32.894531 -32.265625 29.5 -32.265625 C 27.664062 -32.265625 26.085938 -31.859375 24.765625 -31.046875 C 23.441406 -30.242188 22.503906 -29.265625 21.953125 -28.109375 C 21.410156 -26.960938 21.019531 -25.988281 20.78125 -25.1875 C 20.550781 -24.382812 20.4375 -23.753906 20.4375 -23.296875 L 20.4375 0 Z M 5.171875 0 "/></g></g></g><g fill="#2b2e3f" fill-opacity="1"><g transform="translate(122.691119, 226.836372)"><g><path d="M 69.96875 0 L 47.625 0 L 21.390625 -30.1875 L 21.390625 0 L 5.171875 0 L 5.171875 -71.171875 L 21.390625 -71.171875 L 21.390625 -42.09375 L 45.8125 -71.171875 L 65.46875 -71.171875 L 36.828125 -37.4375 Z M 69.96875 0 "/></g></g></g><g fill="#2b2e3f" fill-opacity="1"><g transform="translate(186.783259, 226.836372)"><g><path d="M 5.171875 0 L 5.171875 -74.1875 L 20.4375 -74.1875 L 20.4375 0 Z M 5.171875 0 "/></g></g></g><g fill="#2b2e3f" fill-opacity="1"><g transform="translate(208.607209, 226.836372)"><g><path d="M 19.578125 -44.25 L 19.578125 -23.203125 C 19.578125 -18.835938 20.238281 -15.734375 21.5625 -13.890625 C 22.882812 -12.046875 25.128906 -11.125 28.296875 -11.125 C 31.460938 -11.125 33.707031 -12.046875 35.03125 -13.890625 C 36.351562 -15.734375 37.015625 -18.835938 37.015625 -23.203125 L 37.015625 -44.25 L 52.28125 -44.25 L 52.28125 -19.5 C 52.28125 -12.132812 50.363281 -6.828125 46.53125 -3.578125 C 42.707031 -0.328125 36.625 1.296875 28.28125 1.296875 C 19.945312 1.296875 13.867188 -0.328125 10.046875 -3.578125 C 6.222656 -6.828125 4.3125 -12.132812 4.3125 -19.5 L 4.3125 -44.25 Z M 19.578125 -44.25 "/></g></g></g><g fill="#2b2e3f" fill-opacity="1"><g transform="translate(261.399086, 226.836372)"><g><path d="M 7.765625 -44.25 L 7.765625 -60.734375 L 23.03125 -60.734375 L 23.03125 -44.25 L 32.34375 -44.25 L 32.34375 -32.609375 L 23.03125 -32.609375 L 23.03125 -18.546875 C 23.03125 -14.460938 24.179688 -12.421875 26.484375 -12.421875 C 27.054688 -12.421875 27.660156 -12.535156 28.296875 -12.765625 C 28.929688 -12.992188 29.421875 -13.222656 29.765625 -13.453125 L 30.28125 -13.796875 L 34.078125 -1.46875 C 30.796875 0.375 27.054688 1.296875 22.859375 1.296875 C 19.984375 1.296875 17.507812 0.796875 15.4375 -0.203125 C 13.375 -1.210938 11.804688 -2.566406 10.734375 -4.265625 C 9.671875 -5.960938 8.910156 -7.742188 8.453125 -9.609375 C 7.992188 -11.484375 7.765625 -13.484375 7.765625 -15.609375 L 7.765625 -32.609375 L 1.375 -32.609375 L 1.375 -44.25 Z M 7.765625 -44.25 "/></g></g></g><g fill="#2b2e3f" fill-opacity="1"><g transform="translate(291.676672, 226.836372)"><g><path d="M 5.171875 0 L 5.171875 -44.25 L 20.4375 -44.25 L 20.4375 -37.875 L 20.625 -37.875 C 20.738281 -38.101562 20.921875 -38.390625 21.171875 -38.734375 C 21.429688 -39.078125 21.992188 -39.679688 22.859375 -40.546875 C 23.722656 -41.410156 24.644531 -42.1875 25.625 -42.875 C 26.601562 -43.5625 27.867188 -44.175781 29.421875 -44.71875 C 30.972656 -45.269531 32.550781 -45.546875 34.15625 -45.546875 C 35.820312 -45.546875 37.460938 -45.316406 39.078125 -44.859375 C 40.691406 -44.398438 41.867188 -43.941406 42.609375 -43.484375 L 43.828125 -42.78125 L 37.4375 -29.84375 C 35.539062 -31.457031 32.894531 -32.265625 29.5 -32.265625 C 27.664062 -32.265625 26.085938 -31.859375 24.765625 -31.046875 C 23.441406 -30.242188 22.503906 -29.265625 21.953125 -28.109375 C 21.410156 -26.960938 21.019531 -25.988281 20.78125 -25.1875 C 20.550781 -24.382812 20.4375 -23.753906 20.4375 -23.296875 L 20.4375 0 Z M 5.171875 0 "/></g></g></g><g fill="#e45858" fill-opacity="1"><g transform="translate(126.462858, 247.430741)"><g><path d="M 7.125 -2.109375 L 2.578125 -2.109375 L 1.671875 0 L -0.0625 0 L 4.03125 -9.09375 L 5.6875 -9.09375 L 9.796875 0 L 8.03125 0 Z M 6.5625 -3.4375 L 4.84375 -7.40625 L 3.140625 -3.4375 Z M 6.5625 -3.4375 "/></g></g></g><g fill="#e45858" fill-opacity="1"><g transform="translate(137.236863, 247.430741)"><g><path d="M 1.21875 -9.09375 L 2.90625 -9.09375 L 2.90625 0 L 1.21875 0 Z M 1.21875 -9.09375 "/></g></g></g><g fill="#e45858" fill-opacity="1"><g transform="translate(142.422581, 247.430741)"><g/></g></g><g fill="#e45858" fill-opacity="1"><g transform="translate(147.049473, 247.430741)"><g><path d="M 4.96875 -9.09375 C 5.757812 -9.09375 6.445312 -8.960938 7.03125 -8.703125 C 7.613281 -8.441406 8.0625 -8.066406 8.375 -7.578125 C 8.6875 -7.097656 8.84375 -6.523438 8.84375 -5.859375 C 8.84375 -5.203125 8.6875 -4.628906 8.375 -4.140625 C 8.0625 -3.648438 7.613281 -3.273438 7.03125 -3.015625 C 6.445312 -2.753906 5.757812 -2.625 4.96875 -2.625 L 2.90625 -2.625 L 2.90625 0 L 1.21875 0 L 1.21875 -9.09375 Z M 4.890625 -4.0625 C 5.628906 -4.0625 6.1875 -4.210938 6.5625 -4.515625 C 6.945312 -4.828125 7.140625 -5.273438 7.140625 -5.859375 C 7.140625 -6.441406 6.945312 -6.890625 6.5625 -7.203125 C 6.1875 -7.515625 5.628906 -7.671875 4.890625 -7.671875 L 2.90625 -7.671875 L 2.90625 -4.0625 Z M 4.890625 -4.0625 "/></g></g></g><g fill="#e45858" fill-opacity="1"><g transform="translate(157.52457, 247.430741)"><g><path d="M 5.46875 0.125 C 4.539062 0.125 3.703125 -0.0703125 2.953125 -0.46875 C 2.210938 -0.875 1.628906 -1.429688 1.203125 -2.140625 C 0.785156 -2.859375 0.578125 -3.660156 0.578125 -4.546875 C 0.578125 -5.429688 0.785156 -6.226562 1.203125 -6.9375 C 1.628906 -7.65625 2.210938 -8.21875 2.953125 -8.625 C 3.703125 -9.03125 4.539062 -9.234375 5.46875 -9.234375 C 6.394531 -9.234375 7.226562 -9.03125 7.96875 -8.625 C 8.71875 -8.21875 9.304688 -7.660156 9.734375 -6.953125 C 10.160156 -6.242188 10.375 -5.441406 10.375 -4.546875 C 10.375 -3.660156 10.160156 -2.859375 9.734375 -2.140625 C 9.304688 -1.429688 8.71875 -0.875 7.96875 -0.46875 C 7.226562 -0.0703125 6.394531 0.125 5.46875 0.125 Z M 5.46875 -1.359375 C 6.082031 -1.359375 6.628906 -1.492188 7.109375 -1.765625 C 7.597656 -2.035156 7.976562 -2.414062 8.25 -2.90625 C 8.53125 -3.394531 8.671875 -3.941406 8.671875 -4.546875 C 8.671875 -5.148438 8.53125 -5.695312 8.25 -6.1875 C 7.976562 -6.675781 7.597656 -7.054688 7.109375 -7.328125 C 6.628906 -7.609375 6.082031 -7.75 5.46875 -7.75 C 4.863281 -7.75 4.316406 -7.609375 3.828125 -7.328125 C 3.347656 -7.054688 2.96875 -6.675781 2.6875 -6.1875 C 2.414062 -5.695312 2.28125 -5.148438 2.28125 -4.546875 C 2.28125 -3.941406 2.414062 -3.394531 2.6875 -2.90625 C 2.96875 -2.414062 3.347656 -2.035156 3.828125 -1.765625 C 4.316406 -1.492188 4.863281 -1.359375 5.46875 -1.359375 Z M 5.46875 -1.359375 "/></g></g></g><g fill="#e45858" fill-opacity="1"><g transform="translate(169.507209, 247.430741)"><g><path d="M 14.515625 -9.09375 L 11.5 0 L 9.71875 0 L 7.46875 -6.734375 L 5.171875 0 L 3.359375 0 L 0.34375 -9.09375 L 2.109375 -9.09375 L 4.375 -2.1875 L 6.71875 -9.09375 L 8.28125 -9.09375 L 10.578125 -2.140625 L 12.90625 -9.09375 Z M 14.515625 -9.09375 "/></g></g></g><g fill="#e45858" fill-opacity="1"><g transform="translate(185.414644, 247.430741)"><g><path d="M 8.046875 -1.421875 L 8.046875 0 L 1.21875 0 L 1.21875 -9.09375 L 7.859375 -9.09375 L 7.859375 -7.6875 L 2.90625 -7.6875 L 2.90625 -5.3125 L 7.3125 -5.3125 L 7.3125 -3.921875 L 2.90625 -3.921875 L 2.90625 -1.421875 Z M 8.046875 -1.421875 "/></g></g></g><g fill="#e45858" fill-opacity="1"><g transform="translate(195.161965, 247.430741)"><g><path d="M 7.171875 0 L 5.3125 -2.671875 C 5.238281 -2.660156 5.125 -2.65625 4.96875 -2.65625 L 2.90625 -2.65625 L 2.90625 0 L 1.21875 0 L 1.21875 -9.09375 L 4.96875 -9.09375 C 5.757812 -9.09375 6.445312 -8.960938 7.03125 -8.703125 C 7.613281 -8.441406 8.0625 -8.066406 8.375 -7.578125 C 8.6875 -7.097656 8.84375 -6.523438 8.84375 -5.859375 C 8.84375 -5.179688 8.675781 -4.59375 8.34375 -4.09375 C 8.007812 -3.601562 7.53125 -3.234375 6.90625 -2.984375 L 9 0 Z M 7.140625 -5.859375 C 7.140625 -6.441406 6.945312 -6.890625 6.5625 -7.203125 C 6.1875 -7.515625 5.628906 -7.671875 4.890625 -7.671875 L 2.90625 -7.671875 L 2.90625 -4.046875 L 4.890625 -4.046875 C 5.628906 -4.046875 6.1875 -4.203125 6.5625 -4.515625 C 6.945312 -4.828125 7.140625 -5.273438 7.140625 -5.859375 Z M 7.140625 -5.859375 "/></g></g></g><g fill="#e45858" fill-opacity="1"><g transform="translate(205.702042, 247.430741)"><g><path d="M 8.046875 -1.421875 L 8.046875 0 L 1.21875 0 L 1.21875 -9.09375 L 7.859375 -9.09375 L 7.859375 -7.6875 L 2.90625 -7.6875 L 2.90625 -5.3125 L 7.3125 -5.3125 L 7.3125 -3.921875 L 2.90625 -3.921875 L 2.90625 -1.421875 Z M 8.046875 -1.421875 "/></g></g></g><g fill="#e45858" fill-opacity="1"><g transform="translate(215.449363, 247.430741)"><g><path d="M 1.21875 -9.09375 L 5.203125 -9.09375 C 6.171875 -9.09375 7.03125 -8.90625 7.78125 -8.53125 C 8.539062 -8.15625 9.128906 -7.625 9.546875 -6.9375 C 9.960938 -6.25 10.171875 -5.453125 10.171875 -4.546875 C 10.171875 -3.648438 9.960938 -2.851562 9.546875 -2.15625 C 9.128906 -1.46875 8.539062 -0.9375 7.78125 -0.5625 C 7.03125 -0.1875 6.171875 0 5.203125 0 L 1.21875 0 Z M 5.125 -1.4375 C 5.789062 -1.4375 6.375 -1.5625 6.875 -1.8125 C 7.382812 -2.070312 7.773438 -2.4375 8.046875 -2.90625 C 8.328125 -3.375 8.46875 -3.921875 8.46875 -4.546875 C 8.46875 -5.171875 8.328125 -5.71875 8.046875 -6.1875 C 7.773438 -6.664062 7.382812 -7.03125 6.875 -7.28125 C 6.375 -7.539062 5.789062 -7.671875 5.125 -7.671875 L 2.90625 -7.671875 L 2.90625 -1.4375 Z M 5.125 -1.4375 "/></g></g></g><g fill="#e45858" fill-opacity="1"><g transform="translate(227.224062, 247.430741)"><g/></g></g><g fill="#e45858" fill-opacity="1"><g transform="translate(231.850954, 247.430741)"><g><path d="M 9.3125 -9.09375 L 9.3125 0 L 7.921875 0 L 2.90625 -6.15625 L 2.90625 0 L 1.21875 0 L 1.21875 -9.09375 L 2.609375 -9.09375 L 7.625 -2.9375 L 7.625 -9.09375 Z M 9.3125 -9.09375 "/></g></g></g><g fill="#e45858" fill-opacity="1"><g transform="translate(243.417726, 247.430741)"><g><path d="M 5.46875 0.125 C 4.539062 0.125 3.703125 -0.0703125 2.953125 -0.46875 C 2.210938 -0.875 1.628906 -1.429688 1.203125 -2.140625 C 0.785156 -2.859375 0.578125 -3.660156 0.578125 -4.546875 C 0.578125 -5.429688 0.785156 -6.226562 1.203125 -6.9375 C 1.628906 -7.65625 2.210938 -8.21875 2.953125 -8.625 C 3.703125 -9.03125 4.539062 -9.234375 5.46875 -9.234375 C 6.394531 -9.234375 7.226562 -9.03125 7.96875 -8.625 C 8.71875 -8.21875 9.304688 -7.660156 9.734375 -6.953125 C 10.160156 -6.242188 10.375 -5.441406 10.375 -4.546875 C 10.375 -3.660156 10.160156 -2.859375 9.734375 -2.140625 C 9.304688 -1.429688 8.71875 -0.875 7.96875 -0.46875 C 7.226562 -0.0703125 6.394531 0.125 5.46875 0.125 Z M 5.46875 -1.359375 C 6.082031 -1.359375 6.628906 -1.492188 7.109375 -1.765625 C 7.597656 -2.035156 7.976562 -2.414062 8.25 -2.90625 C 8.53125 -3.394531 8.671875 -3.941406 8.671875 -4.546875 C 8.671875 -5.148438 8.53125 -5.695312 8.25 -6.1875 C 7.976562 -6.675781 7.597656 -7.054688 7.109375 -7.328125 C 6.628906 -7.609375 6.082031 -7.75 5.46875 -7.75 C 4.863281 -7.75 4.316406 -7.609375 3.828125 -7.328125 C 3.347656 -7.054688 2.96875 -6.675781 2.6875 -6.1875 C 2.414062 -5.695312 2.28125 -5.148438 2.28125 -4.546875 C 2.28125 -3.941406 2.414062 -3.394531 2.6875 -2.90625 C 2.96875 -2.414062 3.347656 -2.035156 3.828125 -1.765625 C 4.316406 -1.492188 4.863281 -1.359375 5.46875 -1.359375 Z M 5.46875 -1.359375 "/></g></g></g><g fill="#e45858" fill-opacity="1"><g transform="translate(255.400365, 247.430741)"><g><path d="M 3.0625 -7.671875 L 0.046875 -7.671875 L 0.046875 -9.09375 L 7.78125 -9.09375 L 7.78125 -7.671875 L 4.765625 -7.671875 L 4.765625 0 L 3.0625 0 Z M 3.0625 -7.671875 "/></g></g></g><g fill="#e45858" fill-opacity="1"><g transform="translate(264.263962, 247.430741)"><g><path d="M 8.046875 -1.421875 L 8.046875 0 L 1.21875 0 L 1.21875 -9.09375 L 7.859375 -9.09375 L 7.859375 -7.6875 L 2.90625 -7.6875 L 2.90625 -5.3125 L 7.3125 -5.3125 L 7.3125 -3.921875 L 2.90625 -3.921875 L 2.90625 -1.421875 Z M 8.046875 -1.421875 "/></g></g></g><g fill="#e45858" fill-opacity="1"><g transform="translate(274.011283, 247.430741)"><g><path d="M 4.046875 0.125 C 3.335938 0.125 2.65625 0.0234375 2 -0.171875 C 1.351562 -0.367188 0.835938 -0.632812 0.453125 -0.96875 L 1.046875 -2.28125 C 1.410156 -1.976562 1.863281 -1.734375 2.40625 -1.546875 C 2.945312 -1.367188 3.492188 -1.28125 4.046875 -1.28125 C 4.722656 -1.28125 5.226562 -1.382812 5.5625 -1.59375 C 5.894531 -1.8125 6.0625 -2.097656 6.0625 -2.453125 C 6.0625 -2.710938 5.96875 -2.925781 5.78125 -3.09375 C 5.59375 -3.269531 5.351562 -3.40625 5.0625 -3.5 C 4.78125 -3.59375 4.394531 -3.703125 3.90625 -3.828125 C 3.207031 -3.984375 2.644531 -4.144531 2.21875 -4.3125 C 1.789062 -4.476562 1.421875 -4.734375 1.109375 -5.078125 C 0.804688 -5.429688 0.65625 -5.910156 0.65625 -6.515625 C 0.65625 -7.015625 0.789062 -7.46875 1.0625 -7.875 C 1.332031 -8.289062 1.742188 -8.617188 2.296875 -8.859375 C 2.847656 -9.109375 3.519531 -9.234375 4.3125 -9.234375 C 4.863281 -9.234375 5.410156 -9.160156 5.953125 -9.015625 C 6.492188 -8.878906 6.957031 -8.679688 7.34375 -8.421875 L 6.8125 -7.109375 C 6.414062 -7.347656 6 -7.523438 5.5625 -7.640625 C 5.125 -7.765625 4.703125 -7.828125 4.296875 -7.828125 C 3.628906 -7.828125 3.132812 -7.710938 2.8125 -7.484375 C 2.488281 -7.265625 2.328125 -6.96875 2.328125 -6.59375 C 2.328125 -6.332031 2.421875 -6.117188 2.609375 -5.953125 C 2.796875 -5.785156 3.03125 -5.65625 3.3125 -5.5625 C 3.601562 -5.46875 3.992188 -5.359375 4.484375 -5.234375 C 5.160156 -5.078125 5.710938 -4.914062 6.140625 -4.75 C 6.578125 -4.582031 6.945312 -4.320312 7.25 -3.96875 C 7.5625 -3.625 7.71875 -3.160156 7.71875 -2.578125 C 7.71875 -2.066406 7.582031 -1.609375 7.3125 -1.203125 C 7.039062 -0.796875 6.625 -0.472656 6.0625 -0.234375 C 5.507812 0.00390625 4.835938 0.125 4.046875 0.125 Z M 4.046875 0.125 "/></g></g></g><g fill="#e45858" fill-opacity="1"><g transform="translate(283.225768, 247.430741)"><g/></g></g><g fill="#e45858" fill-opacity="1"><g transform="translate(287.85266, 247.430741)"><g><path d="M 7.125 -2.109375 L 2.578125 -2.109375 L 1.671875 0 L -0.0625 0 L 4.03125 -9.09375 L 5.6875 -9.09375 L 9.796875 0 L 8.03125 0 Z M 6.5625 -3.4375 L 4.84375 -7.40625 L 3.140625 -3.4375 Z M 6.5625 -3.4375 "/></g></g></g><g fill="#e45858" fill-opacity="1"><g transform="translate(298.626665, 247.430741)"><g><path d="M 4.96875 -9.09375 C 5.757812 -9.09375 6.445312 -8.960938 7.03125 -8.703125 C 7.613281 -8.441406 8.0625 -8.066406 8.375 -7.578125 C 8.6875 -7.097656 8.84375 -6.523438 8.84375 -5.859375 C 8.84375 -5.203125 8.6875 -4.628906 8.375 -4.140625 C 8.0625 -3.648438 7.613281 -3.273438 7.03125 -3.015625 C 6.445312 -2.753906 5.757812 -2.625 4.96875 -2.625 L 2.90625 -2.625 L 2.90625 0 L 1.21875 0 L 1.21875 -9.09375 Z M 4.890625 -4.0625 C 5.628906 -4.0625 6.1875 -4.210938 6.5625 -4.515625 C 6.945312 -4.828125 7.140625 -5.273438 7.140625 -5.859375 C 7.140625 -6.441406 6.945312 -6.890625 6.5625 -7.203125 C 6.1875 -7.515625 5.628906 -7.671875 4.890625 -7.671875 L 2.90625 -7.671875 L 2.90625 -4.0625 Z M 4.890625 -4.0625 "/></g></g></g><g fill="#e45858" fill-opacity="1"><g transform="translate(309.101762, 247.430741)"><g><path d="M 4.96875 -9.09375 C 5.757812 -9.09375 6.445312 -8.960938 7.03125 -8.703125 C 7.613281 -8.441406 8.0625 -8.066406 8.375 -7.578125 C 8.6875 -7.097656 8.84375 -6.523438 8.84375 -5.859375 C 8.84375 -5.203125 8.6875 -4.628906 8.375 -4.140625 C 8.0625 -3.648438 7.613281 -3.273438 7.03125 -3.015625 C 6.445312 -2.753906 5.757812 -2.625 4.96875 -2.625 L 2.90625 -2.625 L 2.90625 0 L 1.21875 0 L 1.21875 -9.09375 Z M 4.890625 -4.0625 C 5.628906 -4.0625 6.1875 -4.210938 6.5625 -4.515625 C 6.945312 -4.828125 7.140625 -5.273438 7.140625 -5.859375 C 7.140625 -6.441406 6.945312 -6.890625 6.5625 -7.203125 C 6.1875 -7.515625 5.628906 -7.671875 4.890625 -7.671875 L 2.90625 -7.671875 L 2.90625 -4.0625 Z M 4.890625 -4.0625 "/></g></g></g><g clip-path="url(#ba8af7f8ab)"><path fill="#2b2e3f" d="M 89.320312 233.917969 L 89.320312 237.339844 C 89.320312 241.699219 85.765625 245.253906 81.402344 245.253906 L 77.695312 245.253906 C 73.335938 245.253906 69.777344 241.699219 69.777344 237.339844 L 69.777344 233.917969 C 66.289062 233.097656 63.675781 229.953125 63.675781 226.210938 L 63.675781 221.746094 C 61.488281 220.328125 60.050781 217.882812 60.050781 215.097656 L 60.050781 210.855469 C 54.5625 204.71875 57.570312 200.019531 57.570312 200.019531 C 51.054688 198.71875 45.929688 192.804688 48.132812 186 C 39.484375 183.625 35.808594 174.050781 40.679688 166.75 C 34.320312 158.339844 37.484375 143.601562 47.4375 140.507812 C 47.386719 131.308594 55.898438 124.027344 65.078125 125.5625 C 69.421875 119.816406 76.5 119.289062 82.875 119.785156 C 105.117188 121.476562 122.644531 140.0625 122.644531 162.746094 C 122.644531 172.59375 119.308594 182.050781 113.136719 189.722656 L 99.066406 210.648438 L 99.066406 215.09375 C 99.066406 217.878906 97.613281 220.324219 95.425781 221.742188 L 95.425781 226.203125 C 95.425781 229.953125 92.824219 233.101562 89.320312 233.917969 Z M 89.320312 233.917969 " fill-opacity="1" fill-rule="evenodd"/></g><path fill="#00c896" d="M 64.292969 211.421875 L 94.828125 211.421875 L 94.828125 215.097656 C 94.828125 217.117188 93.167969 218.773438 91.152344 218.773438 L 67.96875 218.773438 C 65.933594 218.773438 64.292969 217.117188 64.292969 215.097656 Z M 64.292969 211.421875 " fill-opacity="1" fill-rule="evenodd"/><path fill="#ff6b6b" d="M 67.914062 222.550781 L 91.183594 222.550781 L 91.183594 226.210938 C 91.183594 228.246094 89.542969 229.886719 87.527344 229.886719 L 71.59375 229.886719 C 69.578125 229.886719 67.917969 228.246094 67.917969 226.210938 L 67.917969 222.550781 Z M 67.914062 222.550781 " fill-opacity="1" fill-rule="evenodd"/><path fill="#00c896" d="M 74.019531 233.664062 L 85.082031 233.664062 L 85.082031 237.339844 C 85.082031 239.355469 83.441406 241.015625 81.40625 241.015625 L 77.695312 241.015625 C 75.679688 241.015625 74.019531 239.355469 74.019531 237.339844 Z M 74.019531 233.664062 " fill-opacity="1" fill-rule="evenodd"/><path fill="#00c896" d="M 82.109375 207.132812 L 87.75 207.132812 L 87.75 163.226562 L 82.109375 163.226562 Z M 91.921875 207.132812 L 96.742188 207.132812 L 111.257812 185.574219 C 116.0625 178.925781 118.625 171.144531 118.625 162.75 C 118.625 142.027344 102.488281 125.070312 82.109375 123.753906 L 82.109375 159.058594 L 87.628906 159.058594 C 87.78125 152.390625 89.527344 149.929688 93.664062 149.84375 C 98.007812 149.757812 101.425781 153.777344 100.160156 158.425781 C 100.125 158.53125 100.109375 158.632812 100.074219 158.734375 C 98.84375 162.203125 95.992188 163.160156 91.921875 163.230469 Z M 93.785156 159.023438 C 92.449219 159.023438 91.371094 157.945312 91.371094 156.609375 C 91.371094 155.257812 92.449219 154.183594 93.785156 154.183594 C 95.136719 154.183594 96.210938 155.261719 96.210938 156.609375 C 96.210938 157.945312 95.132812 159.023438 93.785156 159.023438 Z M 93.785156 159.023438 " fill-opacity="1" fill-rule="evenodd"/><path fill="#ff6b6b" d="M 61.214844 202.222656 C 60.496094 203.625 61.367188 205.507812 62.34375 206.921875 L 77.917969 207.09375 L 77.917969 177.128906 C 76.292969 174.921875 73.300781 172.496094 68.273438 173.246094 C 67.128906 173.417969 66.050781 172.613281 65.878906 171.46875 C 65.710938 170.304688 66.515625 169.246094 67.660156 169.074219 C 72.15625 168.40625 75.492188 169.535156 77.917969 171.261719 L 77.917969 160.523438 C 76.136719 158.285156 73.230469 155.941406 68.835938 155.855469 C 67.675781 155.820312 66.753906 154.863281 66.769531 153.703125 C 66.804688 152.539062 67.761719 151.617188 68.921875 151.652344 C 72.703125 151.71875 75.660156 153.015625 77.914062 154.710938 L 77.914062 123.734375 C 73.386719 124.007812 70.957031 124.949219 68.683594 128.078125 C 68.304688 129.328125 68.152344 131.480469 69.503906 134.679688 C 70.957031 134.128906 72.667969 133.824219 74.75 133.910156 C 75.914062 133.945312 76.820312 134.917969 76.785156 136.078125 C 76.75 137.226562 75.777344 138.148438 74.617188 138.113281 C 67.09375 137.859375 66.632812 145.140625 66.632812 145.160156 C 66.546875 146.320312 65.535156 147.195312 64.375 147.109375 C 63.214844 147.023438 62.339844 146.011719 62.425781 144.851562 C 62.425781 144.816406 62.71875 140.21875 65.929688 136.988281 C 64.613281 134.101562 64.21875 131.6875 64.273438 129.742188 C 57.792969 128.714844 51.640625 133.898438 51.675781 140.480469 L 51.675781 140.839844 C 53.027344 141.660156 55.179688 143.605469 56.425781 148.035156 C 56.734375 149.164062 56.066406 150.328125 54.957031 150.632812 C 53.828125 150.941406 52.667969 150.273438 52.359375 149.164062 C 51.128906 144.753906 49.453125 144.378906 49.4375 144.378906 L 49.367188 144.34375 L 48.703125 144.5625 C 41.285156 146.871094 39.710938 158.429688 44.070312 164.191406 L 44.5625 164.839844 C 49.746094 164.429688 54.414062 161.351562 56.546875 159.746094 C 55.367188 156.050781 57.027344 152.667969 57.027344 152.652344 C 57.523438 151.589844 58.769531 151.144531 59.832031 151.640625 C 60.890625 152.136719 61.335938 153.402344 60.839844 154.445312 C 60.839844 154.460938 58.585938 159.078125 63.882812 161.914062 C 64.910156 162.464844 65.304688 163.746094 64.753906 164.769531 C 64.207031 165.792969 62.925781 166.1875 61.902344 165.640625 C 60.585938 164.921875 59.558594 164.15625 58.757812 163.332031 C 56.019531 165.332031 50.464844 168.769531 44.238281 169.078125 L 44.203125 169.113281 C 40.855469 174.140625 43.554688 180.347656 49.265625 181.917969 L 49.828125 182.070312 C 51.386719 181.097656 53.4375 180.054688 55.796875 179.488281 C 55.882812 176.566406 57.371094 174.101562 57.386719 174.085938 C 57.96875 173.078125 59.269531 172.753906 60.257812 173.351562 C 61.269531 173.949219 61.59375 175.25 60.996094 176.242188 C 60.976562 176.257812 58.140625 180.992188 62.550781 183.183594 C 63.59375 183.695312 64.019531 184.960938 63.507812 186.003906 C 62.996094 187.046875 61.726562 187.472656 60.683594 186.960938 C 58.769531 186.003906 57.539062 184.824219 56.804688 183.578125 C 55.316406 183.917969 53.984375 184.515625 52.890625 185.132812 L 52.171875 187.320312 C 50.769531 191.644531 54.425781 195.066406 58.410156 195.851562 L 61.488281 196.46875 C 64.121094 195.015625 68.191406 192.054688 69.472656 187.21875 C 69.78125 186.089844 70.925781 185.421875 72.054688 185.710938 C 73.1875 186.003906 73.851562 187.164062 73.5625 188.292969 C 71.628906 195.59375 64.996094 199.492188 62.054688 200.910156 Z M 61.214844 202.222656 " fill-opacity="1" fill-rule="evenodd"/></svg>