<svg width="1513" height="3471" viewBox="0 0 1513 3471" fill="none" xmlns="http://www.w3.org/2000/svg">
<rect x="0.5" y="0.5" width="1512" height="3470" rx="4.5" stroke="#7B61FF" stroke-dasharray="10 5"/>
<path d="M50 50L178 50C195.673 50 210 64.3269 210 82L210 202" stroke="black" stroke-width="3" stroke-linecap="round"/>
<circle cx="50" cy="50" r="6.5" fill="white" stroke="black" stroke-width="3"/>
<path d="M218 200.5C218 200.5 213.333 202.5 210 208.5C206.667 202.5 202 200.5 202 200.5" stroke="black" stroke-width="3" stroke-linecap="round" stroke-linejoin="round"/>
<path d="M210 208.5V197.5" stroke="black" stroke-width="3" stroke-linecap="round"/>
<g filter="url(#filter0_d_5_597)">
<rect x="79" y="91" width="262" height="68" rx="4" fill="white"/>
<rect x="80" y="92" width="260" height="66" rx="3" stroke="black" stroke-width="2"/>
</g>
<path d="M50 680H178C195.673 680 210 665.673 210 648L210 528" stroke="black" stroke-width="3" stroke-linecap="round"/>
<circle cx="50" cy="680" r="6.5" fill="white" stroke="black" stroke-width="3"/>
<path d="M202 529.5C202 529.5 206.667 527.5 210 521.5C213.333 527.5 218 529.5 218 529.5" stroke="black" stroke-width="3" stroke-linecap="round" stroke-linejoin="round"/>
<path d="M210 521.5V532.5" stroke="black" stroke-width="3" stroke-linecap="round"/>
<g filter="url(#filter1_d_5_597)">
<rect x="79" y="569" width="262" height="68" rx="4" fill="white"/>
<rect x="80" y="570" width="260" height="66" rx="3" stroke="black" stroke-width="2"/>
</g>
<path d="M50 1559H178C195.673 1559 210 1544.67 210 1527L210 1407" stroke="black" stroke-width="3" stroke-linecap="round"/>
<path d="M51.5 1567C51.5 1567 49.5 1562.33 43.5 1559C49.5 1555.67 51.5 1551 51.5 1551" stroke="black" stroke-width="3" stroke-linecap="round" stroke-linejoin="round"/>
<path d="M43.5 1559H54.5" stroke="black" stroke-width="3" stroke-linecap="round"/>
<circle cx="210" cy="1407" r="6.5" fill="white" stroke="black" stroke-width="3"/>
<g filter="url(#filter2_d_5_597)">
<rect x="79" y="1448" width="262" height="68" rx="4" fill="white"/>
<rect x="80" y="1449" width="260" height="66" rx="3" stroke="black" stroke-width="2"/>
</g>
<path d="M306 978H178C160.327 978 146 963.673 146 946L146 826" stroke="black" stroke-width="3" stroke-linecap="round"/>
<circle cx="306" cy="978" r="6.5" fill="white" stroke="black" stroke-width="3"/>
<path d="M138 827.5C138 827.5 142.667 825.5 146 819.5C149.333 825.5 154 827.5 154 827.5" stroke="black" stroke-width="3" stroke-linecap="round" stroke-linejoin="round"/>
<path d="M146 819.5V830.5" stroke="black" stroke-width="3" stroke-linecap="round"/>
<g filter="url(#filter3_d_5_597)">
<rect x="15" y="867" width="262" height="68" rx="4" fill="white"/>
<rect x="16" y="868" width="260" height="66" rx="3" stroke="black" stroke-width="2"/>
</g>
<path d="M306 1248H178C160.327 1248 146 1233.67 146 1216L146 1096" stroke="black" stroke-width="3" stroke-linecap="round"/>
<path d="M304.5 1240C304.5 1240 306.5 1244.67 312.5 1248C306.5 1251.33 304.5 1256 304.5 1256" stroke="black" stroke-width="3" stroke-linecap="round" stroke-linejoin="round"/>
<path d="M312.5 1248H301.5" stroke="black" stroke-width="3" stroke-linecap="round"/>
<circle cx="146" cy="1096" r="6.5" fill="white" stroke="black" stroke-width="3"/>
<g filter="url(#filter4_d_5_597)">
<rect x="15" y="1137" width="262" height="68" rx="4" fill="white"/>
<rect x="16" y="1138" width="260" height="66" rx="3" stroke="black" stroke-width="2"/>
</g>
<path d="M1018 978H890C872.327 978 858 963.673 858 946V826" stroke="black" stroke-width="3" stroke-linecap="round" stroke-dasharray="6 8"/>
<circle cx="1018" cy="978" r="6.5" fill="white" stroke="black" stroke-width="3"/>
<path d="M850 827.5C850 827.5 854.667 825.5 858 819.5C861.333 825.5 866 827.5 866 827.5" stroke="black" stroke-width="3" stroke-linecap="round" stroke-linejoin="round"/>
<path d="M858 819.5V830.5" stroke="black" stroke-width="3" stroke-linecap="round"/>
<g filter="url(#filter5_d_5_597)">
<rect x="727" y="867" width="262" height="68" rx="4" fill="white"/>
<rect x="728" y="868" width="260" height="66" rx="3" stroke="black" stroke-width="2"/>
</g>
<path d="M1018 1248H890C872.327 1248 858 1233.67 858 1216V1096" stroke="black" stroke-width="3" stroke-linecap="round" stroke-dasharray="6 8"/>
<path d="M1016.5 1240C1016.5 1240 1018.5 1244.67 1024.5 1248C1018.5 1251.33 1016.5 1256 1016.5 1256" stroke="black" stroke-width="3" stroke-linecap="round" stroke-linejoin="round"/>
<path d="M1024.5 1248H1013.5" stroke="black" stroke-width="3" stroke-linecap="round"/>
<circle cx="858" cy="1096" r="6.5" fill="white" stroke="black" stroke-width="3"/>
<g filter="url(#filter6_d_5_597)">
<rect x="727" y="1137" width="262" height="68" rx="4" fill="white"/>
<rect x="728" y="1138" width="260" height="66" rx="3" stroke="black" stroke-width="2"/>
</g>
<path d="M642 978H514C496.327 978 482 963.673 482 946V826" stroke="black" stroke-width="3" stroke-linecap="round"/>
<circle cx="642" cy="978" r="6.5" fill="white" stroke="black" stroke-width="3"/>
<path d="M474 827.5C474 827.5 478.667 825.5 482 819.5C485.333 825.5 490 827.5 490 827.5" stroke="black" stroke-width="3" stroke-linecap="round" stroke-linejoin="round"/>
<path d="M482 819.5V830.5" stroke="black" stroke-width="3" stroke-linecap="round"/>
<path d="M642 1248H514C496.327 1248 482 1233.67 482 1216V1096" stroke="black" stroke-width="3" stroke-linecap="round"/>
<path d="M640.5 1240C640.5 1240 642.5 1244.67 648.5 1248C642.5 1251.33 640.5 1256 640.5 1256" stroke="black" stroke-width="3" stroke-linecap="round" stroke-linejoin="round"/>
<path d="M648.5 1248H637.5" stroke="black" stroke-width="3" stroke-linecap="round"/>
<circle cx="482" cy="1096" r="6.5" fill="white" stroke="black" stroke-width="3"/>
<path d="M1282 978H1154C1136.33 978 1122 963.673 1122 946V826" stroke="black" stroke-width="3" stroke-linecap="round" stroke-dasharray="6 8"/>
<circle cx="1282" cy="978" r="6.5" fill="white" stroke="black" stroke-width="3"/>
<path d="M1114 827.5C1114 827.5 1118.67 825.5 1122 819.5C1125.33 825.5 1130 827.5 1130 827.5" stroke="black" stroke-width="3" stroke-linecap="round" stroke-linejoin="round"/>
<path d="M1122 819.5V830.5" stroke="black" stroke-width="3" stroke-linecap="round"/>
<path d="M1282 1248H1154C1136.33 1248 1122 1233.67 1122 1216V1096" stroke="black" stroke-width="3" stroke-linecap="round" stroke-dasharray="6 8"/>
<path d="M1280.5 1240C1280.5 1240 1282.5 1244.67 1288.5 1248C1282.5 1251.33 1280.5 1256 1280.5 1256" stroke="black" stroke-width="3" stroke-linecap="round" stroke-linejoin="round"/>
<path d="M1288.5 1248H1277.5" stroke="black" stroke-width="3" stroke-linecap="round"/>
<circle cx="1122" cy="1096" r="6.5" fill="white" stroke="black" stroke-width="3"/>
<path d="M762 680H890C907.673 680 922 665.673 922 648V528" stroke="black" stroke-width="3" stroke-linecap="round" stroke-dasharray="6 8"/>
<circle cx="762" cy="680" r="6.5" fill="white" stroke="black" stroke-width="3"/>
<path d="M914 529.5C914 529.5 918.667 527.5 922 521.5C925.333 527.5 930 529.5 930 529.5" stroke="black" stroke-width="3" stroke-linecap="round" stroke-linejoin="round"/>
<path d="M922 521.5V532.5" stroke="black" stroke-width="3" stroke-linecap="round"/>
<g filter="url(#filter7_d_5_597)">
<rect x="792" y="569" width="262" height="68" rx="4" fill="white"/>
<rect x="793" y="570" width="260" height="66" rx="3" stroke="black" stroke-width="2"/>
</g>
<path d="M762 1559H890C907.673 1559 922 1544.67 922 1527V1407" stroke="black" stroke-width="3" stroke-linecap="round" stroke-dasharray="6 8"/>
<path d="M763.5 1567C763.5 1567 761.5 1562.33 755.5 1559C761.5 1555.67 763.5 1551 763.5 1551" stroke="black" stroke-width="3" stroke-linecap="round" stroke-linejoin="round"/>
<path d="M755.5 1559H766.5" stroke="black" stroke-width="3" stroke-linecap="round"/>
<circle cx="922" cy="1407" r="6.5" fill="white" stroke="black" stroke-width="3"/>
<g filter="url(#filter8_d_5_597)">
<rect x="791" y="1448" width="262" height="68" rx="4" fill="white"/>
<rect x="792" y="1449" width="260" height="66" rx="3" stroke="black" stroke-width="2"/>
</g>
<path d="M482 680H610C627.673 680 642 665.673 642 648V528" stroke="black" stroke-width="3" stroke-linecap="round"/>
<circle cx="482" cy="680" r="6.5" fill="white" stroke="black" stroke-width="3"/>
<path d="M634 529.5C634 529.5 638.667 527.5 642 521.5C645.333 527.5 650 529.5 650 529.5" stroke="black" stroke-width="3" stroke-linecap="round" stroke-linejoin="round"/>
<path d="M642 521.5V532.5" stroke="black" stroke-width="3" stroke-linecap="round"/>
<path d="M482 1559H610C627.673 1559 642 1544.67 642 1527V1407" stroke="black" stroke-width="3" stroke-linecap="round"/>
<path d="M483.5 1567C483.5 1567 481.5 1562.33 475.5 1559C481.5 1555.67 483.5 1551 483.5 1551" stroke="black" stroke-width="3" stroke-linecap="round" stroke-linejoin="round"/>
<path d="M475.5 1559H486.5" stroke="black" stroke-width="3" stroke-linecap="round"/>
<circle cx="642" cy="1407" r="6.5" fill="white" stroke="black" stroke-width="3"/>
<path d="M1122 680H1250C1267.67 680 1282 665.673 1282 648V528" stroke="black" stroke-width="3" stroke-linecap="round" stroke-dasharray="6 8"/>
<circle cx="1122" cy="680" r="6.5" fill="white" stroke="black" stroke-width="3"/>
<path d="M1274 529.5C1274 529.5 1278.67 527.5 1282 521.5C1285.33 527.5 1290 529.5 1290 529.5" stroke="black" stroke-width="3" stroke-linecap="round" stroke-linejoin="round"/>
<path d="M1282 521.5V532.5" stroke="black" stroke-width="3" stroke-linecap="round"/>
<path d="M1122 1559H1250C1267.67 1559 1282 1544.67 1282 1527V1407" stroke="black" stroke-width="3" stroke-linecap="round" stroke-dasharray="6 8"/>
<path d="M1123.5 1567C1123.5 1567 1121.5 1562.33 1115.5 1559C1121.5 1555.67 1123.5 1551 1123.5 1551" stroke="black" stroke-width="3" stroke-linecap="round" stroke-linejoin="round"/>
<path d="M1115.5 1559H1126.5" stroke="black" stroke-width="3" stroke-linecap="round"/>
<circle cx="1282" cy="1407" r="6.5" fill="white" stroke="black" stroke-width="3"/>
<path d="M762 50L890 50C907.673 50 922 64.3269 922 82V202" stroke="black" stroke-width="3" stroke-linecap="round" stroke-dasharray="6 8"/>
<circle cx="762" cy="50" r="6.5" fill="white" stroke="black" stroke-width="3"/>
<path d="M930 200.5C930 200.5 925.333 202.5 922 208.5C918.667 202.5 914 200.5 914 200.5" stroke="black" stroke-width="3" stroke-linecap="round" stroke-linejoin="round"/>
<path d="M922 208.5V197.5" stroke="black" stroke-width="3" stroke-linecap="round"/>
<g filter="url(#filter9_d_5_597)">
<rect x="792" y="90" width="262" height="68" rx="4" fill="white"/>
<rect x="793" y="91" width="260" height="66" rx="3" stroke="black" stroke-width="2"/>
</g>
<path d="M1122 50L1250 50C1267.67 50 1282 64.3269 1282 82V202" stroke="black" stroke-width="3" stroke-linecap="round" stroke-dasharray="6 8"/>
<circle cx="1122" cy="50" r="6.5" fill="white" stroke="black" stroke-width="3"/>
<path d="M1290 200.5C1290 200.5 1285.33 202.5 1282 208.5C1278.67 202.5 1274 200.5 1274 200.5" stroke="black" stroke-width="3" stroke-linecap="round" stroke-linejoin="round"/>
<path d="M1282 208.5V197.5" stroke="black" stroke-width="3" stroke-linecap="round"/>
<path d="M482 50L610 50C627.673 50 642 64.3269 642 82V202" stroke="black" stroke-width="3" stroke-linecap="round"/>
<circle cx="482" cy="50" r="6.5" fill="white" stroke="black" stroke-width="3"/>
<path d="M650 200.5C650 200.5 645.333 202.5 642 208.5C638.667 202.5 634 200.5 634 200.5" stroke="black" stroke-width="3" stroke-linecap="round" stroke-linejoin="round"/>
<path d="M642 208.5V197.5" stroke="black" stroke-width="3" stroke-linecap="round"/>
<path d="M306 303L178 303C160.327 303 146 317.327 146 335L146 455" stroke="black" stroke-width="3" stroke-linecap="round"/>
<circle cx="306" cy="303" r="6.5" fill="white" stroke="black" stroke-width="3"/>
<path d="M154 453.5C154 453.5 149.333 455.5 146 461.5C142.667 455.5 138 453.5 138 453.5" stroke="black" stroke-width="3" stroke-linecap="round" stroke-linejoin="round"/>
<path d="M146 461.5V450.5" stroke="black" stroke-width="3" stroke-linecap="round"/>
<g filter="url(#filter10_d_5_597)">
<rect x="15" y="344" width="262" height="68" rx="4" fill="white"/>
<rect x="16" y="345" width="260" height="66" rx="3" stroke="black" stroke-width="2"/>
</g>
<path d="M1018 303L890 303C872.327 303 858 317.327 858 335V455" stroke="black" stroke-width="3" stroke-linecap="round" stroke-dasharray="6 8"/>
<circle cx="1018" cy="303" r="6.5" fill="white" stroke="black" stroke-width="3"/>
<path d="M866 453.5C866 453.5 861.333 455.5 858 461.5C854.667 455.5 850 453.5 850 453.5" stroke="black" stroke-width="3" stroke-linecap="round" stroke-linejoin="round"/>
<path d="M858 461.5V450.5" stroke="black" stroke-width="3" stroke-linecap="round"/>
<g filter="url(#filter11_d_5_597)">
<rect x="726" y="344" width="262" height="68" rx="4" fill="white"/>
<rect x="727" y="345" width="260" height="66" rx="3" stroke="black" stroke-width="2"/>
</g>
<path d="M642 303L514 303C496.327 303 482 317.327 482 335V455" stroke="black" stroke-width="3" stroke-linecap="round"/>
<circle cx="642" cy="303" r="6.5" fill="white" stroke="black" stroke-width="3"/>
<path d="M490 453.5C490 453.5 485.333 455.5 482 461.5C478.667 455.5 474 453.5 474 453.5" stroke="black" stroke-width="3" stroke-linecap="round" stroke-linejoin="round"/>
<path d="M482 461.5V450.5" stroke="black" stroke-width="3" stroke-linecap="round"/>
<path d="M1282 303L1154 303C1136.33 303 1122 317.327 1122 335V455" stroke="black" stroke-width="3" stroke-linecap="round" stroke-dasharray="6 8"/>
<circle cx="1282" cy="303" r="6.5" fill="white" stroke="black" stroke-width="3"/>
<path d="M1130 453.5C1130 453.5 1125.33 455.5 1122 461.5C1118.67 455.5 1114 453.5 1114 453.5" stroke="black" stroke-width="3" stroke-linecap="round" stroke-linejoin="round"/>
<path d="M1122 461.5V450.5" stroke="black" stroke-width="3" stroke-linecap="round"/>
<path d="M222 1896L222 1768C222 1750.33 207.673 1736 190 1736H70" stroke="black" stroke-width="3" stroke-linecap="round"/>
<g filter="url(#filter12_d_5_597)">
<rect x="91" y="1785" width="262" height="68" rx="4" fill="white"/>
<rect x="92" y="1786" width="260" height="66" rx="3" stroke="black" stroke-width="2"/>
</g>
<circle cx="222" cy="1896" r="6.5" fill="white" stroke="black" stroke-width="3"/>
<path d="M66.5 1744C66.5 1744 64.5 1739.33 58.5 1736C64.5 1732.67 66.5 1728 66.5 1728" stroke="black" stroke-width="3" stroke-linecap="round" stroke-linejoin="round"/>
<path d="M58.5 1736H69.5" stroke="black" stroke-width="3" stroke-linecap="round"/>
<path d="M931 1896V1768C931 1750.33 916.673 1736 899 1736H779" stroke="black" stroke-width="3" stroke-linecap="round" stroke-dasharray="6 8"/>
<g filter="url(#filter13_d_5_597)">
<rect x="800" y="1785" width="262" height="68" rx="4" fill="white"/>
<rect x="801" y="1786" width="260" height="66" rx="3" stroke="black" stroke-width="2"/>
</g>
<circle cx="931" cy="1896" r="6.5" fill="white" stroke="black" stroke-width="3"/>
<path d="M775.5 1744C775.5 1744 773.5 1739.33 767.5 1736C773.5 1732.67 775.5 1728 775.5 1728" stroke="black" stroke-width="3" stroke-linecap="round" stroke-linejoin="round"/>
<path d="M767.5 1736H778.5" stroke="black" stroke-width="3" stroke-linecap="round"/>
<path d="M1259 1900V1772C1259 1754.33 1244.67 1740 1227 1740H1107" stroke="black" stroke-width="3" stroke-linecap="round" stroke-dasharray="6 8"/>
<circle cx="1259" cy="1900" r="6.5" fill="white" stroke="black" stroke-width="3"/>
<path d="M1103.5 1748C1103.5 1748 1101.5 1743.33 1095.5 1740C1101.5 1736.67 1103.5 1732 1103.5 1732" stroke="black" stroke-width="3" stroke-linecap="round" stroke-linejoin="round"/>
<path d="M1095.5 1740H1106.5" stroke="black" stroke-width="3" stroke-linecap="round"/>
<path d="M646 1900V1772C646 1754.33 631.673 1740 614 1740H494" stroke="black" stroke-width="3" stroke-linecap="round"/>
<circle cx="646" cy="1900" r="6.5" fill="white" stroke="black" stroke-width="3"/>
<path d="M490.5 1748C490.5 1748 488.5 1743.33 482.5 1740C488.5 1736.67 490.5 1732 490.5 1732" stroke="black" stroke-width="3" stroke-linecap="round" stroke-linejoin="round"/>
<path d="M482.5 1740H493.5" stroke="black" stroke-width="3" stroke-linecap="round"/>
<path d="M193 2194V2066C193 2048.33 207.327 2034 225 2034H345" stroke="black" stroke-width="3" stroke-linecap="round"/>
<path d="M348.5 2026C348.5 2026 350.5 2030.67 356.5 2034C350.5 2037.33 348.5 2042 348.5 2042" stroke="black" stroke-width="3" stroke-linecap="round" stroke-linejoin="round"/>
<path d="M356.5 2034H345.5" stroke="black" stroke-width="3" stroke-linecap="round"/>
<g filter="url(#filter14_d_5_597)">
<rect x="62" y="2083" width="262" height="68" rx="4" fill="white"/>
<rect x="63" y="2084" width="260" height="66" rx="3" stroke="black" stroke-width="2"/>
</g>
<circle cx="193" cy="2194" r="6.5" fill="white" stroke="black" stroke-width="3"/>
<path d="M913 2198V2070C913 2052.33 927.327 2038 945 2038H1065" stroke="black" stroke-width="3" stroke-linecap="round" stroke-dasharray="6 8"/>
<path d="M1068.5 2030C1068.5 2030 1070.5 2034.67 1076.5 2038C1070.5 2041.33 1068.5 2046 1068.5 2046" stroke="black" stroke-width="3" stroke-linecap="round" stroke-linejoin="round"/>
<path d="M1076.5 2038H1065.5" stroke="black" stroke-width="3" stroke-linecap="round"/>
<g filter="url(#filter15_d_5_597)">
<rect x="782" y="2087" width="262" height="68" rx="4" fill="white"/>
<rect x="783" y="2088" width="260" height="66" rx="3" stroke="black" stroke-width="2"/>
</g>
<circle cx="913" cy="2198" r="6.5" fill="white" stroke="black" stroke-width="3"/>
<path d="M1214 2202V2074C1214 2056.33 1228.33 2042 1246 2042H1366" stroke="black" stroke-width="3" stroke-linecap="round" stroke-dasharray="6 8"/>
<path d="M1369.5 2034C1369.5 2034 1371.5 2038.67 1377.5 2042C1371.5 2045.33 1369.5 2050 1369.5 2050" stroke="black" stroke-width="3" stroke-linecap="round" stroke-linejoin="round"/>
<path d="M1377.5 2042H1366.5" stroke="black" stroke-width="3" stroke-linecap="round"/>
<circle cx="1214" cy="2202" r="6.5" fill="white" stroke="black" stroke-width="3"/>
<path d="M547 2198V2070C547 2052.33 561.327 2038 579 2038H699" stroke="black" stroke-width="3" stroke-linecap="round"/>
<path d="M702.5 2030C702.5 2030 704.5 2034.67 710.5 2038C704.5 2041.33 702.5 2046 702.5 2046" stroke="black" stroke-width="3" stroke-linecap="round" stroke-linejoin="round"/>
<path d="M710.5 2038H699.5" stroke="black" stroke-width="3" stroke-linecap="round"/>
<circle cx="547" cy="2198" r="6.5" fill="white" stroke="black" stroke-width="3"/>
<path d="M1458 2702H1330C1312.33 2702 1298 2687.67 1298 2670V2550" stroke="black" stroke-width="3" stroke-linecap="round" stroke-dasharray="6 8"/>
<circle cx="1458" cy="2702" r="6.5" fill="#FDFEBE" stroke="black" stroke-width="3"/>
<g filter="url(#filter16_d_5_597)">
<rect x="1188" y="2482" width="262" height="68" rx="4" fill="#FDFEBE"/>
<rect x="1189" y="2483" width="260" height="66" rx="3" stroke="black" stroke-width="2"/>
</g>
<path d="M287 3035H159C141.327 3035 127 3020.67 127 3003L127 2883" stroke="black" stroke-width="3" stroke-linecap="round" stroke-dasharray="6 8"/>
<g filter="url(#filter17_d_5_597)">
<rect x="287" y="3001" width="262" height="68" rx="4" fill="#FDFEBE"/>
<rect x="288" y="3002" width="260" height="66" rx="3" stroke="black" stroke-width="2"/>
</g>
<circle cx="127" cy="2883" r="6.5" fill="#FDFEBE" stroke="black" stroke-width="3"/>
<path d="M833 2702H961C978.673 2702 993 2687.67 993 2670V2550" stroke="black" stroke-width="3" stroke-linecap="round" stroke-dasharray="6 8"/>
<circle cx="833" cy="2702" r="6.5" fill="#FDFEBE" stroke="black" stroke-width="3"/>
<g filter="url(#filter18_d_5_597)">
<rect x="841" y="2482" width="262" height="68" rx="4" fill="#FDFEBE"/>
<rect x="842" y="2483" width="260" height="66" rx="3" stroke="black" stroke-width="2"/>
</g>
<path d="M897 3035H1025C1042.67 3035 1057 3020.67 1057 3003V2883" stroke="black" stroke-width="3" stroke-linecap="round" stroke-dasharray="6 8"/>
<g filter="url(#filter19_d_5_597)">
<rect x="635" y="3001" width="262" height="68" rx="4" fill="#FDFEBE"/>
<rect x="636" y="3002" width="260" height="66" rx="3" stroke="black" stroke-width="2"/>
</g>
<circle cx="1057" cy="2883" r="6.5" fill="#FDFEBE" stroke="black" stroke-width="3"/>
<path d="M121 2482H249C266.673 2482 281 2496.33 281 2514V2634" stroke="black" stroke-width="3" stroke-linecap="round" stroke-dasharray="6 8"/>
<circle cx="121" cy="2482" r="6.5" fill="#FDFEBE" stroke="black" stroke-width="3"/>
<g filter="url(#filter20_d_5_597)">
<rect x="129" y="2634" width="262" height="68" rx="4" fill="#FDFEBE"/>
<rect x="130" y="2635" width="260" height="66" rx="3" stroke="black" stroke-width="2"/>
</g>
<path d="M711 2482H583C565.327 2482 551 2496.33 551 2514V2634" stroke="black" stroke-width="3" stroke-linecap="round" stroke-dasharray="6 8"/>
<circle cx="711" cy="2482" r="6.5" fill="#FDFEBE" stroke="black" stroke-width="3"/>
<g filter="url(#filter21_d_5_597)">
<rect x="441" y="2634" width="262" height="68" rx="4" fill="#FDFEBE"/>
<rect x="442" y="2635" width="260" height="66" rx="3" stroke="black" stroke-width="2"/>
</g>
<path d="M664 3436V3308C664 3290.33 678.327 3276 696 3276H816" stroke="black" stroke-width="3" stroke-linecap="round" stroke-dasharray="6 8"/>
<g filter="url(#filter22_d_5_597)">
<rect x="816" y="3242" width="262" height="68" rx="4" fill="#FDFEBE"/>
<rect x="817" y="3243" width="260" height="66" rx="3" stroke="black" stroke-width="2"/>
</g>
<circle cx="664" cy="3436" r="6.5" fill="#FDFEBE" stroke="black" stroke-width="3"/>
<path d="M539 3436V3308C539 3290.33 524.673 3276 507 3276H387" stroke="black" stroke-width="3" stroke-linecap="round" stroke-dasharray="6 8"/>
<circle cx="539" cy="3436" r="6.5" fill="#FDFEBE" stroke="black" stroke-width="3"/>
<g filter="url(#filter23_d_5_597)">
<rect x="125" y="3242" width="262" height="68" rx="4" fill="#FDFEBE"/>
<rect x="126" y="3243" width="260" height="66" rx="3" stroke="black" stroke-width="2"/>
</g>
<defs>
<filter id="filter0_d_5_597" x="79" y="91" width="266" height="72" filterUnits="userSpaceOnUse" color-interpolation-filters="sRGB">
<feFlood flood-opacity="0" result="BackgroundImageFix"/>
<feColorMatrix in="SourceAlpha" type="matrix" values="0 0 0 0 0 0 0 0 0 0 0 0 0 0 0 0 0 0 127 0" result="hardAlpha"/>
<feOffset dx="4" dy="4"/>
<feColorMatrix type="matrix" values="0 0 0 0 0 0 0 0 0 0 0 0 0 0 0 0 0 0 1 0"/>
<feBlend mode="normal" in2="BackgroundImageFix" result="effect1_dropShadow_5_597"/>
<feBlend mode="normal" in="SourceGraphic" in2="effect1_dropShadow_5_597" result="shape"/>
</filter>
<filter id="filter1_d_5_597" x="79" y="569" width="266" height="72" filterUnits="userSpaceOnUse" color-interpolation-filters="sRGB">
<feFlood flood-opacity="0" result="BackgroundImageFix"/>
<feColorMatrix in="SourceAlpha" type="matrix" values="0 0 0 0 0 0 0 0 0 0 0 0 0 0 0 0 0 0 127 0" result="hardAlpha"/>
<feOffset dx="4" dy="4"/>
<feColorMatrix type="matrix" values="0 0 0 0 0 0 0 0 0 0 0 0 0 0 0 0 0 0 1 0"/>
<feBlend mode="normal" in2="BackgroundImageFix" result="effect1_dropShadow_5_597"/>
<feBlend mode="normal" in="SourceGraphic" in2="effect1_dropShadow_5_597" result="shape"/>
</filter>
<filter id="filter2_d_5_597" x="79" y="1448" width="266" height="72" filterUnits="userSpaceOnUse" color-interpolation-filters="sRGB">
<feFlood flood-opacity="0" result="BackgroundImageFix"/>
<feColorMatrix in="SourceAlpha" type="matrix" values="0 0 0 0 0 0 0 0 0 0 0 0 0 0 0 0 0 0 127 0" result="hardAlpha"/>
<feOffset dx="4" dy="4"/>
<feColorMatrix type="matrix" values="0 0 0 0 0 0 0 0 0 0 0 0 0 0 0 0 0 0 1 0"/>
<feBlend mode="normal" in2="BackgroundImageFix" result="effect1_dropShadow_5_597"/>
<feBlend mode="normal" in="SourceGraphic" in2="effect1_dropShadow_5_597" result="shape"/>
</filter>
<filter id="filter3_d_5_597" x="15" y="867" width="266" height="72" filterUnits="userSpaceOnUse" color-interpolation-filters="sRGB">
<feFlood flood-opacity="0" result="BackgroundImageFix"/>
<feColorMatrix in="SourceAlpha" type="matrix" values="0 0 0 0 0 0 0 0 0 0 0 0 0 0 0 0 0 0 127 0" result="hardAlpha"/>
<feOffset dx="4" dy="4"/>
<feColorMatrix type="matrix" values="0 0 0 0 0 0 0 0 0 0 0 0 0 0 0 0 0 0 1 0"/>
<feBlend mode="normal" in2="BackgroundImageFix" result="effect1_dropShadow_5_597"/>
<feBlend mode="normal" in="SourceGraphic" in2="effect1_dropShadow_5_597" result="shape"/>
</filter>
<filter id="filter4_d_5_597" x="15" y="1137" width="266" height="72" filterUnits="userSpaceOnUse" color-interpolation-filters="sRGB">
<feFlood flood-opacity="0" result="BackgroundImageFix"/>
<feColorMatrix in="SourceAlpha" type="matrix" values="0 0 0 0 0 0 0 0 0 0 0 0 0 0 0 0 0 0 127 0" result="hardAlpha"/>
<feOffset dx="4" dy="4"/>
<feColorMatrix type="matrix" values="0 0 0 0 0 0 0 0 0 0 0 0 0 0 0 0 0 0 1 0"/>
<feBlend mode="normal" in2="BackgroundImageFix" result="effect1_dropShadow_5_597"/>
<feBlend mode="normal" in="SourceGraphic" in2="effect1_dropShadow_5_597" result="shape"/>
</filter>
<filter id="filter5_d_5_597" x="727" y="867" width="266" height="72" filterUnits="userSpaceOnUse" color-interpolation-filters="sRGB">
<feFlood flood-opacity="0" result="BackgroundImageFix"/>
<feColorMatrix in="SourceAlpha" type="matrix" values="0 0 0 0 0 0 0 0 0 0 0 0 0 0 0 0 0 0 127 0" result="hardAlpha"/>
<feOffset dx="4" dy="4"/>
<feColorMatrix type="matrix" values="0 0 0 0 0 0 0 0 0 0 0 0 0 0 0 0 0 0 1 0"/>
<feBlend mode="normal" in2="BackgroundImageFix" result="effect1_dropShadow_5_597"/>
<feBlend mode="normal" in="SourceGraphic" in2="effect1_dropShadow_5_597" result="shape"/>
</filter>
<filter id="filter6_d_5_597" x="727" y="1137" width="266" height="72" filterUnits="userSpaceOnUse" color-interpolation-filters="sRGB">
<feFlood flood-opacity="0" result="BackgroundImageFix"/>
<feColorMatrix in="SourceAlpha" type="matrix" values="0 0 0 0 0 0 0 0 0 0 0 0 0 0 0 0 0 0 127 0" result="hardAlpha"/>
<feOffset dx="4" dy="4"/>
<feColorMatrix type="matrix" values="0 0 0 0 0 0 0 0 0 0 0 0 0 0 0 0 0 0 1 0"/>
<feBlend mode="normal" in2="BackgroundImageFix" result="effect1_dropShadow_5_597"/>
<feBlend mode="normal" in="SourceGraphic" in2="effect1_dropShadow_5_597" result="shape"/>
</filter>
<filter id="filter7_d_5_597" x="792" y="569" width="266" height="72" filterUnits="userSpaceOnUse" color-interpolation-filters="sRGB">
<feFlood flood-opacity="0" result="BackgroundImageFix"/>
<feColorMatrix in="SourceAlpha" type="matrix" values="0 0 0 0 0 0 0 0 0 0 0 0 0 0 0 0 0 0 127 0" result="hardAlpha"/>
<feOffset dx="4" dy="4"/>
<feColorMatrix type="matrix" values="0 0 0 0 0 0 0 0 0 0 0 0 0 0 0 0 0 0 1 0"/>
<feBlend mode="normal" in2="BackgroundImageFix" result="effect1_dropShadow_5_597"/>
<feBlend mode="normal" in="SourceGraphic" in2="effect1_dropShadow_5_597" result="shape"/>
</filter>
<filter id="filter8_d_5_597" x="791" y="1448" width="266" height="72" filterUnits="userSpaceOnUse" color-interpolation-filters="sRGB">
<feFlood flood-opacity="0" result="BackgroundImageFix"/>
<feColorMatrix in="SourceAlpha" type="matrix" values="0 0 0 0 0 0 0 0 0 0 0 0 0 0 0 0 0 0 127 0" result="hardAlpha"/>
<feOffset dx="4" dy="4"/>
<feColorMatrix type="matrix" values="0 0 0 0 0 0 0 0 0 0 0 0 0 0 0 0 0 0 1 0"/>
<feBlend mode="normal" in2="BackgroundImageFix" result="effect1_dropShadow_5_597"/>
<feBlend mode="normal" in="SourceGraphic" in2="effect1_dropShadow_5_597" result="shape"/>
</filter>
<filter id="filter9_d_5_597" x="792" y="90" width="266" height="72" filterUnits="userSpaceOnUse" color-interpolation-filters="sRGB">
<feFlood flood-opacity="0" result="BackgroundImageFix"/>
<feColorMatrix in="SourceAlpha" type="matrix" values="0 0 0 0 0 0 0 0 0 0 0 0 0 0 0 0 0 0 127 0" result="hardAlpha"/>
<feOffset dx="4" dy="4"/>
<feColorMatrix type="matrix" values="0 0 0 0 0 0 0 0 0 0 0 0 0 0 0 0 0 0 1 0"/>
<feBlend mode="normal" in2="BackgroundImageFix" result="effect1_dropShadow_5_597"/>
<feBlend mode="normal" in="SourceGraphic" in2="effect1_dropShadow_5_597" result="shape"/>
</filter>
<filter id="filter10_d_5_597" x="15" y="344" width="266" height="72" filterUnits="userSpaceOnUse" color-interpolation-filters="sRGB">
<feFlood flood-opacity="0" result="BackgroundImageFix"/>
<feColorMatrix in="SourceAlpha" type="matrix" values="0 0 0 0 0 0 0 0 0 0 0 0 0 0 0 0 0 0 127 0" result="hardAlpha"/>
<feOffset dx="4" dy="4"/>
<feColorMatrix type="matrix" values="0 0 0 0 0 0 0 0 0 0 0 0 0 0 0 0 0 0 1 0"/>
<feBlend mode="normal" in2="BackgroundImageFix" result="effect1_dropShadow_5_597"/>
<feBlend mode="normal" in="SourceGraphic" in2="effect1_dropShadow_5_597" result="shape"/>
</filter>
<filter id="filter11_d_5_597" x="726" y="344" width="266" height="72" filterUnits="userSpaceOnUse" color-interpolation-filters="sRGB">
<feFlood flood-opacity="0" result="BackgroundImageFix"/>
<feColorMatrix in="SourceAlpha" type="matrix" values="0 0 0 0 0 0 0 0 0 0 0 0 0 0 0 0 0 0 127 0" result="hardAlpha"/>
<feOffset dx="4" dy="4"/>
<feColorMatrix type="matrix" values="0 0 0 0 0 0 0 0 0 0 0 0 0 0 0 0 0 0 1 0"/>
<feBlend mode="normal" in2="BackgroundImageFix" result="effect1_dropShadow_5_597"/>
<feBlend mode="normal" in="SourceGraphic" in2="effect1_dropShadow_5_597" result="shape"/>
</filter>
<filter id="filter12_d_5_597" x="91" y="1785" width="266" height="72" filterUnits="userSpaceOnUse" color-interpolation-filters="sRGB">
<feFlood flood-opacity="0" result="BackgroundImageFix"/>
<feColorMatrix in="SourceAlpha" type="matrix" values="0 0 0 0 0 0 0 0 0 0 0 0 0 0 0 0 0 0 127 0" result="hardAlpha"/>
<feOffset dx="4" dy="4"/>
<feColorMatrix type="matrix" values="0 0 0 0 0 0 0 0 0 0 0 0 0 0 0 0 0 0 1 0"/>
<feBlend mode="normal" in2="BackgroundImageFix" result="effect1_dropShadow_5_597"/>
<feBlend mode="normal" in="SourceGraphic" in2="effect1_dropShadow_5_597" result="shape"/>
</filter>
<filter id="filter13_d_5_597" x="800" y="1785" width="266" height="72" filterUnits="userSpaceOnUse" color-interpolation-filters="sRGB">
<feFlood flood-opacity="0" result="BackgroundImageFix"/>
<feColorMatrix in="SourceAlpha" type="matrix" values="0 0 0 0 0 0 0 0 0 0 0 0 0 0 0 0 0 0 127 0" result="hardAlpha"/>
<feOffset dx="4" dy="4"/>
<feColorMatrix type="matrix" values="0 0 0 0 0 0 0 0 0 0 0 0 0 0 0 0 0 0 1 0"/>
<feBlend mode="normal" in2="BackgroundImageFix" result="effect1_dropShadow_5_597"/>
<feBlend mode="normal" in="SourceGraphic" in2="effect1_dropShadow_5_597" result="shape"/>
</filter>
<filter id="filter14_d_5_597" x="62" y="2083" width="266" height="72" filterUnits="userSpaceOnUse" color-interpolation-filters="sRGB">
<feFlood flood-opacity="0" result="BackgroundImageFix"/>
<feColorMatrix in="SourceAlpha" type="matrix" values="0 0 0 0 0 0 0 0 0 0 0 0 0 0 0 0 0 0 127 0" result="hardAlpha"/>
<feOffset dx="4" dy="4"/>
<feColorMatrix type="matrix" values="0 0 0 0 0 0 0 0 0 0 0 0 0 0 0 0 0 0 1 0"/>
<feBlend mode="normal" in2="BackgroundImageFix" result="effect1_dropShadow_5_597"/>
<feBlend mode="normal" in="SourceGraphic" in2="effect1_dropShadow_5_597" result="shape"/>
</filter>
<filter id="filter15_d_5_597" x="782" y="2087" width="266" height="72" filterUnits="userSpaceOnUse" color-interpolation-filters="sRGB">
<feFlood flood-opacity="0" result="BackgroundImageFix"/>
<feColorMatrix in="SourceAlpha" type="matrix" values="0 0 0 0 0 0 0 0 0 0 0 0 0 0 0 0 0 0 127 0" result="hardAlpha"/>
<feOffset dx="4" dy="4"/>
<feColorMatrix type="matrix" values="0 0 0 0 0 0 0 0 0 0 0 0 0 0 0 0 0 0 1 0"/>
<feBlend mode="normal" in2="BackgroundImageFix" result="effect1_dropShadow_5_597"/>
<feBlend mode="normal" in="SourceGraphic" in2="effect1_dropShadow_5_597" result="shape"/>
</filter>
<filter id="filter16_d_5_597" x="1188" y="2482" width="266" height="72" filterUnits="userSpaceOnUse" color-interpolation-filters="sRGB">
<feFlood flood-opacity="0" result="BackgroundImageFix"/>
<feColorMatrix in="SourceAlpha" type="matrix" values="0 0 0 0 0 0 0 0 0 0 0 0 0 0 0 0 0 0 127 0" result="hardAlpha"/>
<feOffset dx="4" dy="4"/>
<feColorMatrix type="matrix" values="0 0 0 0 0 0 0 0 0 0 0 0 0 0 0 0 0 0 1 0"/>
<feBlend mode="normal" in2="BackgroundImageFix" result="effect1_dropShadow_5_597"/>
<feBlend mode="normal" in="SourceGraphic" in2="effect1_dropShadow_5_597" result="shape"/>
</filter>
<filter id="filter17_d_5_597" x="287" y="3001" width="266" height="72" filterUnits="userSpaceOnUse" color-interpolation-filters="sRGB">
<feFlood flood-opacity="0" result="BackgroundImageFix"/>
<feColorMatrix in="SourceAlpha" type="matrix" values="0 0 0 0 0 0 0 0 0 0 0 0 0 0 0 0 0 0 127 0" result="hardAlpha"/>
<feOffset dx="4" dy="4"/>
<feColorMatrix type="matrix" values="0 0 0 0 0 0 0 0 0 0 0 0 0 0 0 0 0 0 1 0"/>
<feBlend mode="normal" in2="BackgroundImageFix" result="effect1_dropShadow_5_597"/>
<feBlend mode="normal" in="SourceGraphic" in2="effect1_dropShadow_5_597" result="shape"/>
</filter>
<filter id="filter18_d_5_597" x="841" y="2482" width="266" height="72" filterUnits="userSpaceOnUse" color-interpolation-filters="sRGB">
<feFlood flood-opacity="0" result="BackgroundImageFix"/>
<feColorMatrix in="SourceAlpha" type="matrix" values="0 0 0 0 0 0 0 0 0 0 0 0 0 0 0 0 0 0 127 0" result="hardAlpha"/>
<feOffset dx="4" dy="4"/>
<feColorMatrix type="matrix" values="0 0 0 0 0 0 0 0 0 0 0 0 0 0 0 0 0 0 1 0"/>
<feBlend mode="normal" in2="BackgroundImageFix" result="effect1_dropShadow_5_597"/>
<feBlend mode="normal" in="SourceGraphic" in2="effect1_dropShadow_5_597" result="shape"/>
</filter>
<filter id="filter19_d_5_597" x="635" y="3001" width="266" height="72" filterUnits="userSpaceOnUse" color-interpolation-filters="sRGB">
<feFlood flood-opacity="0" result="BackgroundImageFix"/>
<feColorMatrix in="SourceAlpha" type="matrix" values="0 0 0 0 0 0 0 0 0 0 0 0 0 0 0 0 0 0 127 0" result="hardAlpha"/>
<feOffset dx="4" dy="4"/>
<feColorMatrix type="matrix" values="0 0 0 0 0 0 0 0 0 0 0 0 0 0 0 0 0 0 1 0"/>
<feBlend mode="normal" in2="BackgroundImageFix" result="effect1_dropShadow_5_597"/>
<feBlend mode="normal" in="SourceGraphic" in2="effect1_dropShadow_5_597" result="shape"/>
</filter>
<filter id="filter20_d_5_597" x="129" y="2634" width="266" height="72" filterUnits="userSpaceOnUse" color-interpolation-filters="sRGB">
<feFlood flood-opacity="0" result="BackgroundImageFix"/>
<feColorMatrix in="SourceAlpha" type="matrix" values="0 0 0 0 0 0 0 0 0 0 0 0 0 0 0 0 0 0 127 0" result="hardAlpha"/>
<feOffset dx="4" dy="4"/>
<feColorMatrix type="matrix" values="0 0 0 0 0 0 0 0 0 0 0 0 0 0 0 0 0 0 1 0"/>
<feBlend mode="normal" in2="BackgroundImageFix" result="effect1_dropShadow_5_597"/>
<feBlend mode="normal" in="SourceGraphic" in2="effect1_dropShadow_5_597" result="shape"/>
</filter>
<filter id="filter21_d_5_597" x="441" y="2634" width="266" height="72" filterUnits="userSpaceOnUse" color-interpolation-filters="sRGB">
<feFlood flood-opacity="0" result="BackgroundImageFix"/>
<feColorMatrix in="SourceAlpha" type="matrix" values="0 0 0 0 0 0 0 0 0 0 0 0 0 0 0 0 0 0 127 0" result="hardAlpha"/>
<feOffset dx="4" dy="4"/>
<feColorMatrix type="matrix" values="0 0 0 0 0 0 0 0 0 0 0 0 0 0 0 0 0 0 1 0"/>
<feBlend mode="normal" in2="BackgroundImageFix" result="effect1_dropShadow_5_597"/>
<feBlend mode="normal" in="SourceGraphic" in2="effect1_dropShadow_5_597" result="shape"/>
</filter>
<filter id="filter22_d_5_597" x="816" y="3242" width="266" height="72" filterUnits="userSpaceOnUse" color-interpolation-filters="sRGB">
<feFlood flood-opacity="0" result="BackgroundImageFix"/>
<feColorMatrix in="SourceAlpha" type="matrix" values="0 0 0 0 0 0 0 0 0 0 0 0 0 0 0 0 0 0 127 0" result="hardAlpha"/>
<feOffset dx="4" dy="4"/>
<feColorMatrix type="matrix" values="0 0 0 0 0 0 0 0 0 0 0 0 0 0 0 0 0 0 1 0"/>
<feBlend mode="normal" in2="BackgroundImageFix" result="effect1_dropShadow_5_597"/>
<feBlend mode="normal" in="SourceGraphic" in2="effect1_dropShadow_5_597" result="shape"/>
</filter>
<filter id="filter23_d_5_597" x="125" y="3242" width="266" height="72" filterUnits="userSpaceOnUse" color-interpolation-filters="sRGB">
<feFlood flood-opacity="0" result="BackgroundImageFix"/>
<feColorMatrix in="SourceAlpha" type="matrix" values="0 0 0 0 0 0 0 0 0 0 0 0 0 0 0 0 0 0 127 0" result="hardAlpha"/>
<feOffset dx="4" dy="4"/>
<feColorMatrix type="matrix" values="0 0 0 0 0 0 0 0 0 0 0 0 0 0 0 0 0 0 1 0"/>
<feBlend mode="normal" in2="BackgroundImageFix" result="effect1_dropShadow_5_597"/>
<feBlend mode="normal" in="SourceGraphic" in2="effect1_dropShadow_5_597" result="shape"/>
</filter>
</defs>
</svg>
