<svg width="388" height="206" viewBox="0 0 388 206" fill="none" xmlns="http://www.w3.org/2000/svg">
<path d="M380 192V134C380 116.327 365.673 102 348 102L40 102C22.3269 102 8.00002 87.6731 8.00002 70V12" stroke="black" stroke-width="3" stroke-linecap="round"/>
<g filter="url(#filter0_d_648_3098)">
<rect x="63" y="68" width="262" height="68" rx="4" fill="white"/>
<rect x="64" y="69" width="260" height="66" rx="3" stroke="black" stroke-width="2"/>
</g>
<g clip-path="url(#clip0_648_3098)">
<path d="M388 196.5C388 196.5 383.333 198.5 380 204.5C376.667 198.5 372 196.5 372 196.5" stroke="black" stroke-width="3" stroke-linecap="round" stroke-linejoin="round"/>
<path d="M380 204.5V193.5" stroke="black" stroke-width="3" stroke-linecap="round"/>
</g>
<circle cx="8" cy="8" r="6.5" fill="white" stroke="black" stroke-width="3"/>
<defs>
<filter id="filter0_d_648_3098" x="63" y="68" width="266" height="72" filterUnits="userSpaceOnUse" color-interpolation-filters="sRGB">
<feFlood flood-opacity="0" result="BackgroundImageFix"/>
<feColorMatrix in="SourceAlpha" type="matrix" values="0 0 0 0 0 0 0 0 0 0 0 0 0 0 0 0 0 0 127 0" result="hardAlpha"/>
<feOffset dx="4" dy="4"/>
<feColorMatrix type="matrix" values="0 0 0 0 0 0 0 0 0 0 0 0 0 0 0 0 0 0 1 0"/>
<feBlend mode="normal" in2="BackgroundImageFix" result="effect1_dropShadow_648_3098"/>
<feBlend mode="normal" in="SourceGraphic" in2="effect1_dropShadow_648_3098" result="shape"/>
</filter>
<clipPath id="clip0_648_3098">
<rect width="16" height="16" fill="white" transform="matrix(0 1 -1 0 388 190)"/>
</clipPath>
</defs>
</svg>
