<svg width="3320" height="4464" viewBox="0 0 3320 4464" fill="none" xmlns="http://www.w3.org/2000/svg">
<rect x="0.5" y="0.5" width="3319" height="4463" rx="4.5" stroke="#7B61FF" stroke-dasharray="10 5"/>
<path d="M50 198V82C50 64.3269 64.3269 50 82 50H568C585.673 50 600 64.3269 600 82V198" stroke="black" stroke-width="3" stroke-linecap="round"/>
<circle cx="50" cy="198" r="6.5" fill="white" stroke="black" stroke-width="3"/>
<path d="M608 196.5C608 196.5 603.333 198.5 600 204.5C596.667 198.5 592 196.5 592 196.5" stroke="black" stroke-width="3" stroke-linecap="round" stroke-linejoin="round"/>
<path d="M600 204.5V193.5" stroke="black" stroke-width="3" stroke-linecap="round"/>
<g filter="url(#filter0_d_944_1863)">
<rect x="188" y="16" width="262" height="68" rx="4" fill="white"/>
<rect x="189" y="17" width="260" height="66" rx="3" stroke="black" stroke-width="2"/>
</g>
<path d="M362 1928H246C228.327 1928 214 1913.67 214 1896L214 1410C214 1392.33 228.327 1378 246 1378H362" stroke="black" stroke-width="3" stroke-linecap="round"/>
<circle cx="362" cy="1928" r="6.5" transform="rotate(-90 362 1928)" fill="white" stroke="black" stroke-width="3"/>
<path d="M360.5 1370C360.5 1370 362.5 1374.67 368.5 1378C362.5 1381.33 360.5 1386 360.5 1386" stroke="black" stroke-width="3" stroke-linecap="round" stroke-linejoin="round"/>
<path d="M368.5 1378H357.5" stroke="black" stroke-width="3" stroke-linecap="round"/>
<g filter="url(#filter1_d_944_1863)">
<rect x="83" y="1625" width="262" height="68" rx="4" fill="white"/>
<rect x="84" y="1626" width="260" height="66" rx="3" stroke="black" stroke-width="2"/>
</g>
<path d="M226 3697H342C359.673 3697 374 3711.33 374 3729L374 4215C374 4232.67 359.673 4247 342 4247H226" stroke="black" stroke-width="3" stroke-linecap="round"/>
<circle cx="226" cy="3697" r="6.5" transform="rotate(90 226 3697)" fill="white" stroke="black" stroke-width="3"/>
<path d="M227.5 4255C227.5 4255 225.5 4250.33 219.5 4247C225.5 4243.67 227.5 4239 227.5 4239" stroke="black" stroke-width="3" stroke-linecap="round" stroke-linejoin="round"/>
<path d="M219.5 4247H230.5" stroke="black" stroke-width="3" stroke-linecap="round"/>
<g filter="url(#filter2_d_944_1863)">
<rect x="243" y="3932" width="262" height="68" rx="4" fill="white"/>
<rect x="244" y="3933" width="260" height="66" rx="3" stroke="black" stroke-width="2"/>
</g>
<path d="M226 3453H342C359.673 3453 374 3438.67 374 3421L374 2935C374 2917.33 359.673 2903 342 2903H226" stroke="black" stroke-width="3" stroke-linecap="round"/>
<circle cx="8" cy="8" r="6.5" transform="matrix(0 -1 -1 0 234 3461)" fill="white" stroke="black" stroke-width="3"/>
<path d="M227.5 2895C227.5 2895 225.5 2899.67 219.5 2903C225.5 2906.33 227.5 2911 227.5 2911" stroke="black" stroke-width="3" stroke-linecap="round" stroke-linejoin="round"/>
<path d="M219.5 2903H230.5" stroke="black" stroke-width="3" stroke-linecap="round"/>
<g filter="url(#filter3_d_944_1863)">
<rect x="243" y="3150" width="262" height="68" rx="4" fill="white"/>
<rect x="244" y="3151" width="260" height="66" rx="3" stroke="black" stroke-width="2"/>
</g>
<path d="M362 2172H246C228.327 2172 214 2186.33 214 2204L214 2690C214 2707.67 228.327 2722 246 2722H362" stroke="black" stroke-width="3" stroke-linecap="round"/>
<circle cx="8" cy="8" r="6.5" transform="matrix(0 1 1 0 354 2164)" fill="white" stroke="black" stroke-width="3"/>
<path d="M360.5 2730C360.5 2730 362.5 2725.33 368.5 2722C362.5 2718.67 360.5 2714 360.5 2714" stroke="black" stroke-width="3" stroke-linecap="round" stroke-linejoin="round"/>
<path d="M368.5 2722H357.5" stroke="black" stroke-width="3" stroke-linecap="round"/>
<g filter="url(#filter4_d_944_1863)">
<rect x="83" y="2407" width="262" height="68" rx="4" fill="white"/>
<rect x="84" y="2408" width="260" height="66" rx="3" stroke="black" stroke-width="2"/>
</g>
<path d="M50 728V844C50 861.673 64.3269 876 82 876H568C585.673 876 600 861.673 600 844V728" stroke="black" stroke-width="3" stroke-linecap="round"/>
<circle cx="50" cy="728" r="6.5" fill="white" stroke="black" stroke-width="3"/>
<path d="M592 729.5C592 729.5 596.667 727.5 600 721.5C603.333 727.5 608 729.5 608 729.5" stroke="black" stroke-width="3" stroke-linecap="round" stroke-linejoin="round"/>
<path d="M600 721.5V732.5" stroke="black" stroke-width="3" stroke-linecap="round"/>
<g filter="url(#filter5_d_944_1863)">
<rect x="194" y="842" width="262" height="68" rx="4" fill="white"/>
<rect x="195" y="843" width="260" height="66" rx="3" stroke="black" stroke-width="2"/>
</g>
<path d="M600 1061V1173C600 1190.67 585.673 1205 568 1205H82C64.3269 1205 50 1190.67 50 1173V1061" stroke="black" stroke-width="3" stroke-linecap="round"/>
<circle cx="600" cy="1057" r="6.5" fill="white" stroke="black" stroke-width="3"/>
<path d="M42 1058.5C42 1058.5 46.6667 1056.5 50 1050.5C53.3333 1056.5 58 1058.5 58 1058.5" stroke="black" stroke-width="3" stroke-linecap="round" stroke-linejoin="round"/>
<path d="M50 1050.5V1061.5" stroke="black" stroke-width="3" stroke-linecap="round"/>
<g filter="url(#filter6_d_944_1863)">
<rect x="194" y="1171" width="262" height="68" rx="4" fill="white"/>
<rect x="195" y="1172" width="260" height="66" rx="3" stroke="black" stroke-width="2"/>
</g>
<path d="M2242 1061V1173C2242 1190.67 2227.67 1205 2210 1205H1724C1706.33 1205 1692 1190.67 1692 1173V1061" stroke="black" stroke-width="3" stroke-linecap="round" stroke-linejoin="round" stroke-dasharray="6 8"/>
<circle cx="2242" cy="1057" r="6.5" fill="white" stroke="black" stroke-width="3"/>
<path d="M1684 1058.5C1684 1058.5 1688.67 1056.5 1692 1050.5C1695.33 1056.5 1700 1058.5 1700 1058.5" stroke="black" stroke-width="3" stroke-linecap="round" stroke-linejoin="round"/>
<path d="M1692 1050.5V1061.5" stroke="black" stroke-width="3" stroke-linecap="round"/>
<g filter="url(#filter7_d_944_1863)">
<rect x="1836" y="1171" width="262" height="68" rx="4" fill="white"/>
<rect x="1837" y="1172" width="260" height="66" rx="3" stroke="black" stroke-width="2"/>
</g>
<path d="M1421 1061V1173C1421 1190.67 1406.67 1205 1389 1205H903C885.327 1205 871 1190.67 871 1173V1061" stroke="black" stroke-width="3" stroke-linecap="round"/>
<circle cx="1421" cy="1057" r="6.5" fill="white" stroke="black" stroke-width="3"/>
<path d="M863 1058.5C863 1058.5 867.667 1056.5 871 1050.5C874.333 1056.5 879 1058.5 879 1058.5" stroke="black" stroke-width="3" stroke-linecap="round" stroke-linejoin="round"/>
<path d="M871 1050.5V1061.5" stroke="black" stroke-width="3" stroke-linecap="round"/>
<path d="M3063 1061V1173C3063 1190.67 3048.67 1205 3031 1205H2545C2527.33 1205 2513 1190.67 2513 1173V1061" stroke="black" stroke-width="3" stroke-linecap="round" stroke-linejoin="round" stroke-dasharray="6 8"/>
<circle cx="3063" cy="1057" r="6.5" fill="white" stroke="black" stroke-width="3"/>
<path d="M2505 1058.5C2505 1058.5 2509.67 1056.5 2513 1050.5C2516.33 1056.5 2521 1058.5 2521 1058.5" stroke="black" stroke-width="3" stroke-linecap="round" stroke-linejoin="round"/>
<path d="M2513 1050.5V1061.5" stroke="black" stroke-width="3" stroke-linecap="round"/>
<path d="M1692 728V844C1692 861.673 1706.33 876 1724 876H2210C2227.67 876 2242 861.673 2242 844V728" stroke="black" stroke-width="3" stroke-linecap="round" stroke-linejoin="round" stroke-dasharray="6 8"/>
<circle cx="1692" cy="728" r="6.5" fill="white" stroke="black" stroke-width="3"/>
<path d="M2234 729.5C2234 729.5 2238.67 727.5 2242 721.5C2245.33 727.5 2250 729.5 2250 729.5" stroke="black" stroke-width="3" stroke-linecap="round" stroke-linejoin="round"/>
<path d="M2242 721.5V732.5" stroke="black" stroke-width="3" stroke-linecap="round"/>
<g filter="url(#filter8_d_944_1863)">
<rect x="1836" y="842" width="262" height="68" rx="4" fill="white"/>
<rect x="1837" y="843" width="260" height="66" rx="3" stroke="black" stroke-width="2"/>
</g>
<path d="M871 720V840C871 857.673 885.327 872 903 872H1389C1406.67 872 1421 857.673 1421 840V720" stroke="black" stroke-width="3" stroke-linecap="round"/>
<circle cx="871" cy="728" r="6.5" fill="white" stroke="black" stroke-width="3"/>
<path d="M1413 729.5C1413 729.5 1417.67 727.5 1421 721.5C1424.33 727.5 1429 729.5 1429 729.5" stroke="black" stroke-width="3" stroke-linecap="round" stroke-linejoin="round"/>
<path d="M1421 721.5V732.5" stroke="black" stroke-width="3" stroke-linecap="round"/>
<path d="M2513 728V844C2513 861.673 2527.33 876 2545 876H3031C3048.67 876 3063 861.673 3063 844V728" stroke="black" stroke-width="3" stroke-linecap="round" stroke-linejoin="round" stroke-dasharray="6 8"/>
<circle cx="2513" cy="728" r="6.5" fill="white" stroke="black" stroke-width="3"/>
<path d="M3055 729.5C3055 729.5 3059.67 727.5 3063 721.5C3066.33 727.5 3071 729.5 3071 729.5" stroke="black" stroke-width="3" stroke-linecap="round" stroke-linejoin="round"/>
<path d="M3063 721.5V732.5" stroke="black" stroke-width="3" stroke-linecap="round"/>
<path d="M1692 198V82C1692 64.3269 1706.33 50 1724 50H2210C2227.67 50 2242 64.3269 2242 82V198" stroke="black" stroke-width="3" stroke-linecap="round" stroke-linejoin="round" stroke-dasharray="6 8"/>
<circle cx="1692" cy="198" r="6.5" fill="white" stroke="black" stroke-width="3"/>
<path d="M2250 196.5C2250 196.5 2245.33 198.5 2242 204.5C2238.67 198.5 2234 196.5 2234 196.5" stroke="black" stroke-width="3" stroke-linecap="round" stroke-linejoin="round"/>
<path d="M2242 204.5V193.5" stroke="black" stroke-width="3" stroke-linecap="round"/>
<g filter="url(#filter9_d_944_1863)">
<rect x="1836" y="16" width="262" height="68" rx="4" fill="white"/>
<rect x="1837" y="17" width="260" height="66" rx="3" stroke="black" stroke-width="2"/>
</g>
<path d="M2004 1928H1888C1870.33 1928 1856 1913.67 1856 1896V1410C1856 1392.33 1870.33 1378 1888 1378H2004" stroke="black" stroke-width="3" stroke-linecap="round" stroke-linejoin="round" stroke-dasharray="6 8"/>
<circle cx="2004" cy="1928" r="6.5" transform="rotate(-90 2004 1928)" fill="white" stroke="black" stroke-width="3"/>
<path d="M2002.5 1370C2002.5 1370 2004.5 1374.67 2010.5 1378C2004.5 1381.33 2002.5 1386 2002.5 1386" stroke="black" stroke-width="3" stroke-linecap="round" stroke-linejoin="round"/>
<path d="M2010.5 1378H1999.5" stroke="black" stroke-width="3" stroke-linecap="round"/>
<g filter="url(#filter10_d_944_1863)">
<rect x="1725" y="1619" width="262" height="68" rx="4" fill="white"/>
<rect x="1726" y="1620" width="260" height="66" rx="3" stroke="black" stroke-width="2"/>
</g>
<path d="M1868 3697H1984C2001.67 3697 2016 3711.33 2016 3729V4215C2016 4232.67 2001.67 4247 1984 4247H1868" stroke="black" stroke-width="3" stroke-linecap="round" stroke-linejoin="round" stroke-dasharray="6 8"/>
<circle cx="1868" cy="3697" r="6.5" transform="rotate(90 1868 3697)" fill="white" stroke="black" stroke-width="3"/>
<path d="M1869.5 4255C1869.5 4255 1867.5 4250.33 1861.5 4247C1867.5 4243.67 1869.5 4239 1869.5 4239" stroke="black" stroke-width="3" stroke-linecap="round" stroke-linejoin="round"/>
<path d="M1861.5 4247H1872.5" stroke="black" stroke-width="3" stroke-linecap="round"/>
<g filter="url(#filter11_d_944_1863)">
<rect x="1885" y="3938" width="262" height="68" rx="4" fill="white"/>
<rect x="1886" y="3939" width="260" height="66" rx="3" stroke="black" stroke-width="2"/>
</g>
<path d="M1868 3453H1984C2001.67 3453 2016 3438.67 2016 3421V2935C2016 2917.33 2001.67 2903 1984 2903H1868" stroke="black" stroke-width="3" stroke-linecap="round" stroke-linejoin="round" stroke-dasharray="6 8"/>
<circle cx="8" cy="8" r="6.5" transform="matrix(0 -1 -1 0 1876 3461)" fill="white" stroke="black" stroke-width="3"/>
<path d="M1869.5 2895C1869.5 2895 1867.5 2899.67 1861.5 2903C1867.5 2906.33 1869.5 2911 1869.5 2911" stroke="black" stroke-width="3" stroke-linecap="round" stroke-linejoin="round"/>
<path d="M1861.5 2903H1872.5" stroke="black" stroke-width="3" stroke-linecap="round"/>
<g filter="url(#filter12_d_944_1863)">
<rect x="1885" y="3144" width="262" height="68" rx="4" fill="white"/>
<rect x="1886" y="3145" width="260" height="66" rx="3" stroke="black" stroke-width="2"/>
</g>
<path d="M2004 2172H1888C1870.33 2172 1856 2186.33 1856 2204V2690C1856 2707.67 1870.33 2722 1888 2722H2004" stroke="black" stroke-width="3" stroke-linecap="round" stroke-linejoin="round" stroke-dasharray="6 8"/>
<circle cx="8" cy="8" r="6.5" transform="matrix(0 1 1 0 1996 2164)" fill="white" stroke="black" stroke-width="3"/>
<path d="M2002.5 2730C2002.5 2730 2004.5 2725.33 2010.5 2722C2004.5 2718.67 2002.5 2714 2002.5 2714" stroke="black" stroke-width="3" stroke-linecap="round" stroke-linejoin="round"/>
<path d="M2010.5 2722H1999.5" stroke="black" stroke-width="3" stroke-linecap="round"/>
<g filter="url(#filter13_d_944_1863)">
<rect x="1725" y="2413" width="262" height="68" rx="4" fill="white"/>
<rect x="1726" y="2414" width="260" height="66" rx="3" stroke="black" stroke-width="2"/>
</g>
<path d="M2513 198V82C2513 64.3269 2527.33 50 2545 50H3031C3048.67 50 3063 64.3269 3063 82V198" stroke="black" stroke-width="3" stroke-linecap="round" stroke-linejoin="round" stroke-dasharray="6 8"/>
<circle cx="2513" cy="198" r="6.5" fill="white" stroke="black" stroke-width="3"/>
<path d="M3071 196.5C3071 196.5 3066.33 198.5 3063 204.5C3059.67 198.5 3055 196.5 3055 196.5" stroke="black" stroke-width="3" stroke-linecap="round" stroke-linejoin="round"/>
<path d="M3063 204.5V193.5" stroke="black" stroke-width="3" stroke-linecap="round"/>
<path d="M2825 1928H2709C2691.33 1928 2677 1913.67 2677 1896V1410C2677 1392.33 2691.33 1378 2709 1378H2825" stroke="black" stroke-width="3" stroke-linecap="round" stroke-linejoin="round" stroke-dasharray="6 8"/>
<circle cx="2825" cy="1928" r="6.5" transform="rotate(-90 2825 1928)" fill="white" stroke="black" stroke-width="3"/>
<path d="M2823.5 1370C2823.5 1370 2825.5 1374.67 2831.5 1378C2825.5 1381.33 2823.5 1386 2823.5 1386" stroke="black" stroke-width="3" stroke-linecap="round" stroke-linejoin="round"/>
<path d="M2831.5 1378H2820.5" stroke="black" stroke-width="3" stroke-linecap="round"/>
<path d="M2689 3697H2805C2822.67 3697 2837 3711.33 2837 3729V4215C2837 4232.67 2822.67 4247 2805 4247H2689" stroke="black" stroke-width="3" stroke-linecap="round" stroke-linejoin="round" stroke-dasharray="6 8"/>
<circle cx="2689" cy="3697" r="6.5" transform="rotate(90 2689 3697)" fill="white" stroke="black" stroke-width="3"/>
<path d="M2690.5 4255C2690.5 4255 2688.5 4250.33 2682.5 4247C2688.5 4243.67 2690.5 4239 2690.5 4239" stroke="black" stroke-width="3" stroke-linecap="round" stroke-linejoin="round"/>
<path d="M2682.5 4247H2693.5" stroke="black" stroke-width="3" stroke-linecap="round"/>
<path d="M2689 3453H2805C2822.67 3453 2837 3438.67 2837 3421V2935C2837 2917.33 2822.67 2903 2805 2903H2689" stroke="black" stroke-width="3" stroke-linecap="round" stroke-linejoin="round" stroke-dasharray="6 8"/>
<circle cx="8" cy="8" r="6.5" transform="matrix(0 -1 -1 0 2697 3461)" fill="white" stroke="black" stroke-width="3"/>
<path d="M2690.5 2895C2690.5 2895 2688.5 2899.67 2682.5 2903C2688.5 2906.33 2690.5 2911 2690.5 2911" stroke="black" stroke-width="3" stroke-linecap="round" stroke-linejoin="round"/>
<path d="M2682.5 2903H2693.5" stroke="black" stroke-width="3" stroke-linecap="round"/>
<path d="M2825 2172H2709C2691.33 2172 2677 2186.33 2677 2204V2690C2677 2707.67 2691.33 2722 2709 2722H2825" stroke="black" stroke-width="3" stroke-linecap="round" stroke-linejoin="round" stroke-dasharray="6 8"/>
<circle cx="8" cy="8" r="6.5" transform="matrix(0 1 1 0 2817 2164)" fill="white" stroke="black" stroke-width="3"/>
<path d="M2823.5 2730C2823.5 2730 2825.5 2725.33 2831.5 2722C2825.5 2718.67 2823.5 2714 2823.5 2714" stroke="black" stroke-width="3" stroke-linecap="round" stroke-linejoin="round"/>
<path d="M2831.5 2722H2820.5" stroke="black" stroke-width="3" stroke-linecap="round"/>
<path d="M871 198V82C871 64.3269 885.327 50 903 50H1389C1406.67 50 1421 64.3269 1421 82V198" stroke="black" stroke-width="3" stroke-linecap="round"/>
<circle cx="871" cy="198" r="6.5" fill="white" stroke="black" stroke-width="3"/>
<path d="M1429 196.5C1429 196.5 1424.33 198.5 1421 204.5C1417.67 198.5 1413 196.5 1413 196.5" stroke="black" stroke-width="3" stroke-linecap="round" stroke-linejoin="round"/>
<path d="M1421 204.5V193.5" stroke="black" stroke-width="3" stroke-linecap="round"/>
<path d="M1183 1928H1067C1049.33 1928 1035 1913.67 1035 1896V1410C1035 1392.33 1049.33 1378 1067 1378H1183" stroke="black" stroke-width="3" stroke-linecap="round"/>
<circle cx="1183" cy="1928" r="6.5" transform="rotate(-90 1183 1928)" fill="white" stroke="black" stroke-width="3"/>
<path d="M1181.5 1370C1181.5 1370 1183.5 1374.67 1189.5 1378C1183.5 1381.33 1181.5 1386 1181.5 1386" stroke="black" stroke-width="3" stroke-linecap="round" stroke-linejoin="round"/>
<path d="M1189.5 1378H1178.5" stroke="black" stroke-width="3" stroke-linecap="round"/>
<path d="M1047 3697H1163C1180.67 3697 1195 3711.33 1195 3729V4215C1195 4232.67 1180.67 4247 1163 4247H1047" stroke="black" stroke-width="3" stroke-linecap="round"/>
<circle cx="1047" cy="3697" r="6.5" transform="rotate(90 1047 3697)" fill="white" stroke="black" stroke-width="3"/>
<path d="M1048.5 4255C1048.5 4255 1046.5 4250.33 1040.5 4247C1046.5 4243.67 1048.5 4239 1048.5 4239" stroke="black" stroke-width="3" stroke-linecap="round" stroke-linejoin="round"/>
<path d="M1040.5 4247H1051.5" stroke="black" stroke-width="3" stroke-linecap="round"/>
<path d="M1047 3453H1163C1180.67 3453 1195 3438.67 1195 3421V2935C1195 2917.33 1180.67 2903 1163 2903H1047" stroke="black" stroke-width="3" stroke-linecap="round"/>
<circle cx="8" cy="8" r="6.5" transform="matrix(0 -1 -1 0 1055 3461)" fill="white" stroke="black" stroke-width="3"/>
<path d="M1048.5 2895C1048.5 2895 1046.5 2899.67 1040.5 2903C1046.5 2906.33 1048.5 2911 1048.5 2911" stroke="black" stroke-width="3" stroke-linecap="round" stroke-linejoin="round"/>
<path d="M1040.5 2903H1051.5" stroke="black" stroke-width="3" stroke-linecap="round"/>
<path d="M1183 2172H1067C1049.33 2172 1035 2186.33 1035 2204V2690C1035 2707.67 1049.33 2722 1067 2722H1183" stroke="black" stroke-width="3" stroke-linecap="round"/>
<circle cx="8" cy="8" r="6.5" transform="matrix(0 1 1 0 1175 2164)" fill="white" stroke="black" stroke-width="3"/>
<path d="M1181.5 2730C1181.5 2730 1183.5 2725.33 1189.5 2722C1183.5 2718.67 1181.5 2714 1181.5 2714" stroke="black" stroke-width="3" stroke-linecap="round" stroke-linejoin="round"/>
<path d="M1189.5 2722H1178.5" stroke="black" stroke-width="3" stroke-linecap="round"/>
<path d="M600 531V415C600 397.327 585.673 383 568 383H82C64.3269 383 50 397.327 50 415V531" stroke="black" stroke-width="3" stroke-linecap="round"/>
<circle cx="600" cy="531" r="6.5" fill="white" stroke="black" stroke-width="3"/>
<path d="M58 529.5C58 529.5 53.3333 531.5 50 537.5C46.6667 531.5 42 529.5 42 529.5" stroke="black" stroke-width="3" stroke-linecap="round" stroke-linejoin="round"/>
<path d="M50 537.5V526.5" stroke="black" stroke-width="3" stroke-linecap="round"/>
<g filter="url(#filter14_d_944_1863)">
<rect x="194" y="349" width="262" height="68" rx="4" fill="white"/>
<rect x="195" y="350" width="260" height="66" rx="3" stroke="black" stroke-width="2"/>
</g>
<path d="M2242 531V415C2242 397.327 2227.67 383 2210 383H1724C1706.33 383 1692 397.327 1692 415V531" stroke="black" stroke-width="3" stroke-linecap="round" stroke-linejoin="round" stroke-dasharray="6 8"/>
<circle cx="2242" cy="531" r="6.5" fill="white" stroke="black" stroke-width="3"/>
<path d="M1700 529.5C1700 529.5 1695.33 531.5 1692 537.5C1688.67 531.5 1684 529.5 1684 529.5" stroke="black" stroke-width="3" stroke-linecap="round" stroke-linejoin="round"/>
<path d="M1692 537.5V526.5" stroke="black" stroke-width="3" stroke-linecap="round"/>
<g filter="url(#filter15_d_944_1863)">
<rect x="1836" y="349" width="262" height="68" rx="4" fill="white"/>
<rect x="1837" y="350" width="260" height="66" rx="3" stroke="black" stroke-width="2"/>
</g>
<path d="M1421 531V415C1421 397.327 1406.67 383 1389 383H903C885.327 383 871 397.327 871 415V531" stroke="black" stroke-width="3" stroke-linecap="round"/>
<circle cx="1421" cy="531" r="6.5" fill="white" stroke="black" stroke-width="3"/>
<path d="M879 529.5C879 529.5 874.333 531.5 871 537.5C867.667 531.5 863 529.5 863 529.5" stroke="black" stroke-width="3" stroke-linecap="round" stroke-linejoin="round"/>
<path d="M871 537.5V526.5" stroke="black" stroke-width="3" stroke-linecap="round"/>
<path d="M3063 531V415C3063 397.327 3048.67 383 3031 383H2545C2527.33 383 2513 397.327 2513 415V531" stroke="black" stroke-width="3" stroke-linecap="round" stroke-linejoin="round" stroke-dasharray="6 8"/>
<circle cx="3063" cy="531" r="6.5" fill="white" stroke="black" stroke-width="3"/>
<path d="M2521 529.5C2521 529.5 2516.33 531.5 2513 537.5C2509.67 531.5 2505 529.5 2505 529.5" stroke="black" stroke-width="3" stroke-linecap="round" stroke-linejoin="round"/>
<path d="M2513 537.5V526.5" stroke="black" stroke-width="3" stroke-linecap="round"/>
<defs>
<filter id="filter0_d_944_1863" x="188" y="16" width="266" height="72" filterUnits="userSpaceOnUse" color-interpolation-filters="sRGB">
<feFlood flood-opacity="0" result="BackgroundImageFix"/>
<feColorMatrix in="SourceAlpha" type="matrix" values="0 0 0 0 0 0 0 0 0 0 0 0 0 0 0 0 0 0 127 0" result="hardAlpha"/>
<feOffset dx="4" dy="4"/>
<feColorMatrix type="matrix" values="0 0 0 0 0 0 0 0 0 0 0 0 0 0 0 0 0 0 1 0"/>
<feBlend mode="normal" in2="BackgroundImageFix" result="effect1_dropShadow_944_1863"/>
<feBlend mode="normal" in="SourceGraphic" in2="effect1_dropShadow_944_1863" result="shape"/>
</filter>
<filter id="filter1_d_944_1863" x="83" y="1625" width="266" height="72" filterUnits="userSpaceOnUse" color-interpolation-filters="sRGB">
<feFlood flood-opacity="0" result="BackgroundImageFix"/>
<feColorMatrix in="SourceAlpha" type="matrix" values="0 0 0 0 0 0 0 0 0 0 0 0 0 0 0 0 0 0 127 0" result="hardAlpha"/>
<feOffset dx="4" dy="4"/>
<feColorMatrix type="matrix" values="0 0 0 0 0 0 0 0 0 0 0 0 0 0 0 0 0 0 1 0"/>
<feBlend mode="normal" in2="BackgroundImageFix" result="effect1_dropShadow_944_1863"/>
<feBlend mode="normal" in="SourceGraphic" in2="effect1_dropShadow_944_1863" result="shape"/>
</filter>
<filter id="filter2_d_944_1863" x="243" y="3932" width="266" height="72" filterUnits="userSpaceOnUse" color-interpolation-filters="sRGB">
<feFlood flood-opacity="0" result="BackgroundImageFix"/>
<feColorMatrix in="SourceAlpha" type="matrix" values="0 0 0 0 0 0 0 0 0 0 0 0 0 0 0 0 0 0 127 0" result="hardAlpha"/>
<feOffset dx="4" dy="4"/>
<feColorMatrix type="matrix" values="0 0 0 0 0 0 0 0 0 0 0 0 0 0 0 0 0 0 1 0"/>
<feBlend mode="normal" in2="BackgroundImageFix" result="effect1_dropShadow_944_1863"/>
<feBlend mode="normal" in="SourceGraphic" in2="effect1_dropShadow_944_1863" result="shape"/>
</filter>
<filter id="filter3_d_944_1863" x="243" y="3150" width="266" height="72" filterUnits="userSpaceOnUse" color-interpolation-filters="sRGB">
<feFlood flood-opacity="0" result="BackgroundImageFix"/>
<feColorMatrix in="SourceAlpha" type="matrix" values="0 0 0 0 0 0 0 0 0 0 0 0 0 0 0 0 0 0 127 0" result="hardAlpha"/>
<feOffset dx="4" dy="4"/>
<feColorMatrix type="matrix" values="0 0 0 0 0 0 0 0 0 0 0 0 0 0 0 0 0 0 1 0"/>
<feBlend mode="normal" in2="BackgroundImageFix" result="effect1_dropShadow_944_1863"/>
<feBlend mode="normal" in="SourceGraphic" in2="effect1_dropShadow_944_1863" result="shape"/>
</filter>
<filter id="filter4_d_944_1863" x="83" y="2407" width="266" height="72" filterUnits="userSpaceOnUse" color-interpolation-filters="sRGB">
<feFlood flood-opacity="0" result="BackgroundImageFix"/>
<feColorMatrix in="SourceAlpha" type="matrix" values="0 0 0 0 0 0 0 0 0 0 0 0 0 0 0 0 0 0 127 0" result="hardAlpha"/>
<feOffset dx="4" dy="4"/>
<feColorMatrix type="matrix" values="0 0 0 0 0 0 0 0 0 0 0 0 0 0 0 0 0 0 1 0"/>
<feBlend mode="normal" in2="BackgroundImageFix" result="effect1_dropShadow_944_1863"/>
<feBlend mode="normal" in="SourceGraphic" in2="effect1_dropShadow_944_1863" result="shape"/>
</filter>
<filter id="filter5_d_944_1863" x="194" y="842" width="266" height="72" filterUnits="userSpaceOnUse" color-interpolation-filters="sRGB">
<feFlood flood-opacity="0" result="BackgroundImageFix"/>
<feColorMatrix in="SourceAlpha" type="matrix" values="0 0 0 0 0 0 0 0 0 0 0 0 0 0 0 0 0 0 127 0" result="hardAlpha"/>
<feOffset dx="4" dy="4"/>
<feColorMatrix type="matrix" values="0 0 0 0 0 0 0 0 0 0 0 0 0 0 0 0 0 0 1 0"/>
<feBlend mode="normal" in2="BackgroundImageFix" result="effect1_dropShadow_944_1863"/>
<feBlend mode="normal" in="SourceGraphic" in2="effect1_dropShadow_944_1863" result="shape"/>
</filter>
<filter id="filter6_d_944_1863" x="194" y="1171" width="266" height="72" filterUnits="userSpaceOnUse" color-interpolation-filters="sRGB">
<feFlood flood-opacity="0" result="BackgroundImageFix"/>
<feColorMatrix in="SourceAlpha" type="matrix" values="0 0 0 0 0 0 0 0 0 0 0 0 0 0 0 0 0 0 127 0" result="hardAlpha"/>
<feOffset dx="4" dy="4"/>
<feColorMatrix type="matrix" values="0 0 0 0 0 0 0 0 0 0 0 0 0 0 0 0 0 0 1 0"/>
<feBlend mode="normal" in2="BackgroundImageFix" result="effect1_dropShadow_944_1863"/>
<feBlend mode="normal" in="SourceGraphic" in2="effect1_dropShadow_944_1863" result="shape"/>
</filter>
<filter id="filter7_d_944_1863" x="1836" y="1171" width="266" height="72" filterUnits="userSpaceOnUse" color-interpolation-filters="sRGB">
<feFlood flood-opacity="0" result="BackgroundImageFix"/>
<feColorMatrix in="SourceAlpha" type="matrix" values="0 0 0 0 0 0 0 0 0 0 0 0 0 0 0 0 0 0 127 0" result="hardAlpha"/>
<feOffset dx="4" dy="4"/>
<feColorMatrix type="matrix" values="0 0 0 0 0 0 0 0 0 0 0 0 0 0 0 0 0 0 1 0"/>
<feBlend mode="normal" in2="BackgroundImageFix" result="effect1_dropShadow_944_1863"/>
<feBlend mode="normal" in="SourceGraphic" in2="effect1_dropShadow_944_1863" result="shape"/>
</filter>
<filter id="filter8_d_944_1863" x="1836" y="842" width="266" height="72" filterUnits="userSpaceOnUse" color-interpolation-filters="sRGB">
<feFlood flood-opacity="0" result="BackgroundImageFix"/>
<feColorMatrix in="SourceAlpha" type="matrix" values="0 0 0 0 0 0 0 0 0 0 0 0 0 0 0 0 0 0 127 0" result="hardAlpha"/>
<feOffset dx="4" dy="4"/>
<feColorMatrix type="matrix" values="0 0 0 0 0 0 0 0 0 0 0 0 0 0 0 0 0 0 1 0"/>
<feBlend mode="normal" in2="BackgroundImageFix" result="effect1_dropShadow_944_1863"/>
<feBlend mode="normal" in="SourceGraphic" in2="effect1_dropShadow_944_1863" result="shape"/>
</filter>
<filter id="filter9_d_944_1863" x="1836" y="16" width="266" height="72" filterUnits="userSpaceOnUse" color-interpolation-filters="sRGB">
<feFlood flood-opacity="0" result="BackgroundImageFix"/>
<feColorMatrix in="SourceAlpha" type="matrix" values="0 0 0 0 0 0 0 0 0 0 0 0 0 0 0 0 0 0 127 0" result="hardAlpha"/>
<feOffset dx="4" dy="4"/>
<feColorMatrix type="matrix" values="0 0 0 0 0 0 0 0 0 0 0 0 0 0 0 0 0 0 1 0"/>
<feBlend mode="normal" in2="BackgroundImageFix" result="effect1_dropShadow_944_1863"/>
<feBlend mode="normal" in="SourceGraphic" in2="effect1_dropShadow_944_1863" result="shape"/>
</filter>
<filter id="filter10_d_944_1863" x="1725" y="1619" width="266" height="72" filterUnits="userSpaceOnUse" color-interpolation-filters="sRGB">
<feFlood flood-opacity="0" result="BackgroundImageFix"/>
<feColorMatrix in="SourceAlpha" type="matrix" values="0 0 0 0 0 0 0 0 0 0 0 0 0 0 0 0 0 0 127 0" result="hardAlpha"/>
<feOffset dx="4" dy="4"/>
<feColorMatrix type="matrix" values="0 0 0 0 0 0 0 0 0 0 0 0 0 0 0 0 0 0 1 0"/>
<feBlend mode="normal" in2="BackgroundImageFix" result="effect1_dropShadow_944_1863"/>
<feBlend mode="normal" in="SourceGraphic" in2="effect1_dropShadow_944_1863" result="shape"/>
</filter>
<filter id="filter11_d_944_1863" x="1885" y="3938" width="266" height="72" filterUnits="userSpaceOnUse" color-interpolation-filters="sRGB">
<feFlood flood-opacity="0" result="BackgroundImageFix"/>
<feColorMatrix in="SourceAlpha" type="matrix" values="0 0 0 0 0 0 0 0 0 0 0 0 0 0 0 0 0 0 127 0" result="hardAlpha"/>
<feOffset dx="4" dy="4"/>
<feColorMatrix type="matrix" values="0 0 0 0 0 0 0 0 0 0 0 0 0 0 0 0 0 0 1 0"/>
<feBlend mode="normal" in2="BackgroundImageFix" result="effect1_dropShadow_944_1863"/>
<feBlend mode="normal" in="SourceGraphic" in2="effect1_dropShadow_944_1863" result="shape"/>
</filter>
<filter id="filter12_d_944_1863" x="1885" y="3144" width="266" height="72" filterUnits="userSpaceOnUse" color-interpolation-filters="sRGB">
<feFlood flood-opacity="0" result="BackgroundImageFix"/>
<feColorMatrix in="SourceAlpha" type="matrix" values="0 0 0 0 0 0 0 0 0 0 0 0 0 0 0 0 0 0 127 0" result="hardAlpha"/>
<feOffset dx="4" dy="4"/>
<feColorMatrix type="matrix" values="0 0 0 0 0 0 0 0 0 0 0 0 0 0 0 0 0 0 1 0"/>
<feBlend mode="normal" in2="BackgroundImageFix" result="effect1_dropShadow_944_1863"/>
<feBlend mode="normal" in="SourceGraphic" in2="effect1_dropShadow_944_1863" result="shape"/>
</filter>
<filter id="filter13_d_944_1863" x="1725" y="2413" width="266" height="72" filterUnits="userSpaceOnUse" color-interpolation-filters="sRGB">
<feFlood flood-opacity="0" result="BackgroundImageFix"/>
<feColorMatrix in="SourceAlpha" type="matrix" values="0 0 0 0 0 0 0 0 0 0 0 0 0 0 0 0 0 0 127 0" result="hardAlpha"/>
<feOffset dx="4" dy="4"/>
<feColorMatrix type="matrix" values="0 0 0 0 0 0 0 0 0 0 0 0 0 0 0 0 0 0 1 0"/>
<feBlend mode="normal" in2="BackgroundImageFix" result="effect1_dropShadow_944_1863"/>
<feBlend mode="normal" in="SourceGraphic" in2="effect1_dropShadow_944_1863" result="shape"/>
</filter>
<filter id="filter14_d_944_1863" x="194" y="349" width="266" height="72" filterUnits="userSpaceOnUse" color-interpolation-filters="sRGB">
<feFlood flood-opacity="0" result="BackgroundImageFix"/>
<feColorMatrix in="SourceAlpha" type="matrix" values="0 0 0 0 0 0 0 0 0 0 0 0 0 0 0 0 0 0 127 0" result="hardAlpha"/>
<feOffset dx="4" dy="4"/>
<feColorMatrix type="matrix" values="0 0 0 0 0 0 0 0 0 0 0 0 0 0 0 0 0 0 1 0"/>
<feBlend mode="normal" in2="BackgroundImageFix" result="effect1_dropShadow_944_1863"/>
<feBlend mode="normal" in="SourceGraphic" in2="effect1_dropShadow_944_1863" result="shape"/>
</filter>
<filter id="filter15_d_944_1863" x="1836" y="349" width="266" height="72" filterUnits="userSpaceOnUse" color-interpolation-filters="sRGB">
<feFlood flood-opacity="0" result="BackgroundImageFix"/>
<feColorMatrix in="SourceAlpha" type="matrix" values="0 0 0 0 0 0 0 0 0 0 0 0 0 0 0 0 0 0 127 0" result="hardAlpha"/>
<feOffset dx="4" dy="4"/>
<feColorMatrix type="matrix" values="0 0 0 0 0 0 0 0 0 0 0 0 0 0 0 0 0 0 1 0"/>
<feBlend mode="normal" in2="BackgroundImageFix" result="effect1_dropShadow_944_1863"/>
<feBlend mode="normal" in="SourceGraphic" in2="effect1_dropShadow_944_1863" result="shape"/>
</filter>
</defs>
</svg>
