<svg width="1626" height="1484" viewBox="0 0 1626 1484" fill="none" xmlns="http://www.w3.org/2000/svg">
<rect x="0.5" y="0.5" width="1625" height="1483" rx="4.5" stroke="#7B61FF" stroke-dasharray="10 5"/>
<path d="M348.5 56C348.5 56 350.5 60.6667 356.5 64C350.5 67.3333 348.5 72 348.5 72" stroke="black" stroke-width="3" stroke-linecap="round" stroke-linejoin="round"/>
<path d="M356.5 64H345.5" stroke="black" stroke-width="3" stroke-linecap="round"/>
<path d="M16 64L350 64" stroke="black" stroke-width="3" stroke-linecap="round"/>
<circle cx="16" cy="64" r="6.5" fill="white" stroke="black" stroke-width="3"/>
<g filter="url(#filter0_d_4_4071)">
<rect x="54" y="29" width="262" height="68" rx="4" fill="white"/>
<rect x="55" y="30" width="260" height="66" rx="3" stroke="black" stroke-width="2"/>
</g>
<path d="M355.5 376C355.5 376 357.5 380.667 363.5 384C357.5 387.333 355.5 392 355.5 392" stroke="black" stroke-width="3" stroke-linecap="round" stroke-linejoin="round"/>
<path d="M363.5 384H352.5" stroke="black" stroke-width="3" stroke-linecap="round"/>
<path d="M24 384L357 384" stroke="black" stroke-width="3" stroke-linecap="round"/>
<path d="M25.5 392C25.5 392 23.5 387.333 17.5 384C23.5 380.667 25.5 376 25.5 376" stroke="black" stroke-width="3" stroke-linecap="round" stroke-linejoin="round"/>
<path d="M17.5 384H28.5" stroke="black" stroke-width="3" stroke-linecap="round"/>
<g filter="url(#filter1_d_4_4071)">
<rect x="58" y="350" width="262" height="68" rx="4" fill="white"/>
<rect x="59" y="351" width="260" height="66" rx="3" stroke="black" stroke-width="2"/>
</g>
<path d="M1155.5 376C1155.5 376 1157.5 380.667 1163.5 384C1157.5 387.333 1155.5 392 1155.5 392" stroke="black" stroke-width="3" stroke-linecap="round" stroke-linejoin="round"/>
<path d="M1163.5 384H1152.5" stroke="black" stroke-width="3" stroke-linecap="round"/>
<path d="M831 384L1157 384" stroke="black" stroke-width="3" stroke-linecap="round" stroke-dasharray="6 8"/>
<path d="M832.5 392C832.5 392 830.5 387.333 824.5 384C830.5 380.667 832.5 376 832.5 376" stroke="black" stroke-width="3" stroke-linecap="round" stroke-linejoin="round"/>
<path d="M824.5 384H835.5" stroke="black" stroke-width="3" stroke-linecap="round"/>
<g filter="url(#filter2_d_4_4071)">
<rect x="861" y="350" width="262" height="68" rx="4" fill="white"/>
<rect x="862" y="351" width="260" height="66" rx="3" stroke="black" stroke-width="2"/>
</g>
<path d="M706.5 376C706.5 376 708.5 380.667 714.5 384C708.5 387.333 706.5 392 706.5 392" stroke="black" stroke-width="3" stroke-linecap="round" stroke-linejoin="round"/>
<path d="M714.5 384H703.5" stroke="black" stroke-width="3" stroke-linecap="round"/>
<path d="M468 384L708 384" stroke="black" stroke-width="3" stroke-linecap="round"/>
<path d="M469.5 392C469.5 392 467.5 387.333 461.5 384C467.5 380.667 469.5 376 469.5 376" stroke="black" stroke-width="3" stroke-linecap="round" stroke-linejoin="round"/>
<path d="M461.5 384H472.5" stroke="black" stroke-width="3" stroke-linecap="round"/>
<path d="M1539.5 376C1539.5 376 1541.5 380.667 1547.5 384C1541.5 387.333 1539.5 392 1539.5 392" stroke="black" stroke-width="3" stroke-linecap="round" stroke-linejoin="round"/>
<path d="M1547.5 384H1536.5" stroke="black" stroke-width="3" stroke-linecap="round"/>
<path d="M1301 384L1541 384" stroke="black" stroke-width="3" stroke-linecap="round" stroke-dasharray="6 8"/>
<path d="M1302.5 392C1302.5 392 1300.5 387.333 1294.5 384C1300.5 380.667 1302.5 376 1302.5 376" stroke="black" stroke-width="3" stroke-linecap="round" stroke-linejoin="round"/>
<path d="M1294.5 384H1305.5" stroke="black" stroke-width="3" stroke-linecap="round"/>
<path d="M1155.5 56C1155.5 56 1157.5 60.6667 1163.5 64C1157.5 67.3333 1155.5 72 1155.5 72" stroke="black" stroke-width="3" stroke-linecap="round" stroke-linejoin="round"/>
<path d="M1163.5 64H1152.5" stroke="black" stroke-width="3" stroke-linecap="round"/>
<path d="M823 64L1157 64" stroke="black" stroke-width="3" stroke-linecap="round" stroke-dasharray="6 8"/>
<circle cx="823" cy="64" r="6.5" fill="white" stroke="black" stroke-width="3"/>
<g filter="url(#filter3_d_4_4071)">
<rect x="861" y="30" width="262" height="68" rx="4" fill="white"/>
<rect x="862" y="31" width="260" height="66" rx="3" stroke="black" stroke-width="2"/>
</g>
<path d="M706.5 56C706.5 56 708.5 60.6667 714.5 64C708.5 67.3333 706.5 72 706.5 72" stroke="black" stroke-width="3" stroke-linecap="round" stroke-linejoin="round"/>
<path d="M714.5 64H703.5" stroke="black" stroke-width="3" stroke-linecap="round"/>
<path d="M460 64L708 64" stroke="black" stroke-width="3" stroke-linecap="round"/>
<circle cx="460" cy="64" r="6.5" fill="white" stroke="black" stroke-width="3"/>
<path d="M1539.5 56C1539.5 56 1541.5 60.6667 1547.5 64C1541.5 67.3333 1539.5 72 1539.5 72" stroke="black" stroke-width="3" stroke-linecap="round" stroke-linejoin="round"/>
<path d="M1547.5 64H1536.5" stroke="black" stroke-width="3" stroke-linecap="round"/>
<path d="M1293 64L1541 64" stroke="black" stroke-width="3" stroke-linecap="round" stroke-dasharray="6 8"/>
<circle cx="1293" cy="64" r="6.5" fill="white" stroke="black" stroke-width="3"/>
<path d="M24 224L357 224" stroke="black" stroke-width="3" stroke-linecap="round"/>
<circle cx="357" cy="224" r="6.5" fill="white" stroke="black" stroke-width="3"/>
<path d="M25.5 232C25.5 232 23.5 227.333 17.5 224C23.5 220.667 25.5 216 25.5 216" stroke="black" stroke-width="3" stroke-linecap="round" stroke-linejoin="round"/>
<path d="M17.5 224H28.5" stroke="black" stroke-width="3" stroke-linecap="round"/>
<g filter="url(#filter4_d_4_4071)">
<rect x="54" y="190" width="262" height="68" rx="4" fill="white"/>
<rect x="55" y="191" width="260" height="66" rx="3" stroke="black" stroke-width="2"/>
</g>
<path d="M831 224L1165 224" stroke="black" stroke-width="3" stroke-linecap="round" stroke-dasharray="6 8"/>
<circle cx="1165" cy="224" r="6.5" fill="white" stroke="black" stroke-width="3"/>
<path d="M832.5 232C832.5 232 830.5 227.333 824.5 224C830.5 220.667 832.5 216 832.5 216" stroke="black" stroke-width="3" stroke-linecap="round" stroke-linejoin="round"/>
<path d="M824.5 224H835.5" stroke="black" stroke-width="3" stroke-linecap="round"/>
<g filter="url(#filter5_d_4_4071)">
<rect x="861" y="190" width="262" height="68" rx="4" fill="white"/>
<rect x="862" y="191" width="260" height="66" rx="3" stroke="black" stroke-width="2"/>
</g>
<path d="M468 224L716 224" stroke="black" stroke-width="3" stroke-linecap="round"/>
<circle cx="716" cy="224" r="6.5" fill="white" stroke="black" stroke-width="3"/>
<path d="M469.5 232C469.5 232 467.5 227.333 461.5 224C467.5 220.667 469.5 216 469.5 216" stroke="black" stroke-width="3" stroke-linecap="round" stroke-linejoin="round"/>
<path d="M461.5 224H472.5" stroke="black" stroke-width="3" stroke-linecap="round"/>
<path d="M1301 224L1549 224" stroke="black" stroke-width="3" stroke-linecap="round" stroke-dasharray="6 8"/>
<circle cx="1549" cy="224" r="6.5" fill="white" stroke="black" stroke-width="3"/>
<path d="M1302.5 232C1302.5 232 1300.5 227.333 1294.5 224C1300.5 220.667 1302.5 216 1302.5 216" stroke="black" stroke-width="3" stroke-linecap="round" stroke-linejoin="round"/>
<path d="M1294.5 224H1305.5" stroke="black" stroke-width="3" stroke-linecap="round"/>
<path d="M146 496L146 620" stroke="black" stroke-width="3" stroke-linecap="round"/>
<circle cx="146" cy="496" r="6.5" fill="white" stroke="black" stroke-width="3"/>
<path d="M154 618.5C154 618.5 149.333 620.5 146 626.5C142.667 620.5 138 618.5 138 618.5" stroke="black" stroke-width="3" stroke-linecap="round" stroke-linejoin="round"/>
<path d="M146 626.5V615.5" stroke="black" stroke-width="3" stroke-linecap="round"/>
<g filter="url(#filter6_d_4_4071)">
<rect x="13" y="524" width="262" height="68" rx="4" fill="white"/>
<rect x="14" y="525" width="260" height="66" rx="3" stroke="black" stroke-width="2"/>
</g>
<path d="M995 496L995 620" stroke="black" stroke-width="3" stroke-linecap="round" stroke-dasharray="6 8"/>
<circle cx="995" cy="496" r="6.5" fill="white" stroke="black" stroke-width="3"/>
<path d="M1003 618.5C1003 618.5 998.333 620.5 995 626.5C991.667 620.5 987 618.5 987 618.5" stroke="black" stroke-width="3" stroke-linecap="round" stroke-linejoin="round"/>
<path d="M995 626.5V615.5" stroke="black" stroke-width="3" stroke-linecap="round"/>
<g filter="url(#filter7_d_4_4071)">
<rect x="862" y="524" width="262" height="68" rx="4" fill="white"/>
<rect x="863" y="525" width="260" height="66" rx="3" stroke="black" stroke-width="2"/>
</g>
<path d="M590 496L590 620" stroke="black" stroke-width="3" stroke-linecap="round"/>
<circle cx="590" cy="496" r="6.5" fill="white" stroke="black" stroke-width="3"/>
<path d="M598 618.5C598 618.5 593.333 620.5 590 626.5C586.667 620.5 582 618.5 582 618.5" stroke="black" stroke-width="3" stroke-linecap="round" stroke-linejoin="round"/>
<path d="M590 626.5V615.5" stroke="black" stroke-width="3" stroke-linecap="round"/>
<path d="M1423 496L1423 620" stroke="black" stroke-width="3" stroke-linecap="round" stroke-dasharray="6 8"/>
<circle cx="1423" cy="496" r="6.5" fill="white" stroke="black" stroke-width="3"/>
<path d="M1431 618.5C1431 618.5 1426.33 620.5 1423 626.5C1419.67 620.5 1415 618.5 1415 618.5" stroke="black" stroke-width="3" stroke-linecap="round" stroke-linejoin="round"/>
<path d="M1423 626.5V615.5" stroke="black" stroke-width="3" stroke-linecap="round"/>
<path d="M138 701.5C138 701.5 142.667 699.5 146 693.5C149.333 699.5 154 701.5 154 701.5" stroke="black" stroke-width="3" stroke-linecap="round" stroke-linejoin="round"/>
<path d="M146 693.5V704.5" stroke="black" stroke-width="3" stroke-linecap="round"/>
<path d="M146 700L146 824" stroke="black" stroke-width="3" stroke-linecap="round"/>
<circle cx="146" cy="824" r="6.5" fill="white" stroke="black" stroke-width="3"/>
<g filter="url(#filter8_d_4_4071)">
<rect x="13" y="724" width="262" height="68" rx="4" fill="white"/>
<rect x="14" y="725" width="260" height="66" rx="3" stroke="black" stroke-width="2"/>
</g>
<path d="M138 897.5C138 897.5 142.667 895.5 146 889.5C149.333 895.5 154 897.5 154 897.5" stroke="black" stroke-width="3" stroke-linecap="round" stroke-linejoin="round"/>
<path d="M146 889.5V900.5" stroke="black" stroke-width="3" stroke-linecap="round"/>
<path d="M146 896L146 1012" stroke="black" stroke-width="3" stroke-linecap="round"/>
<path d="M154 1010.5C154 1010.5 149.333 1012.5 146 1018.5C142.667 1012.5 138 1010.5 138 1010.5" stroke="black" stroke-width="3" stroke-linecap="round" stroke-linejoin="round"/>
<path d="M146 1018.5V1007.5" stroke="black" stroke-width="3" stroke-linecap="round"/>
<g filter="url(#filter9_d_4_4071)">
<rect x="13" y="918" width="262" height="68" rx="4" fill="white"/>
<rect x="14" y="919" width="260" height="66" rx="3" stroke="black" stroke-width="2"/>
</g>
<path d="M989 897.5C989 897.5 993.667 895.5 997 889.5C1000.33 895.5 1005 897.5 1005 897.5" stroke="black" stroke-width="3" stroke-linecap="round" stroke-linejoin="round"/>
<path d="M997 889.5V900.5" stroke="black" stroke-width="3" stroke-linecap="round"/>
<path d="M997 896L997 1012" stroke="black" stroke-width="3" stroke-linecap="round" stroke-dasharray="6 8"/>
<path d="M1005 1010.5C1005 1010.5 1000.33 1012.5 997 1018.5C993.667 1012.5 989 1010.5 989 1010.5" stroke="black" stroke-width="3" stroke-linecap="round" stroke-linejoin="round"/>
<path d="M997 1018.5V1007.5" stroke="black" stroke-width="3" stroke-linecap="round"/>
<g filter="url(#filter10_d_4_4071)">
<rect x="864" y="918" width="262" height="68" rx="4" fill="white"/>
<rect x="865" y="919" width="260" height="66" rx="3" stroke="black" stroke-width="2"/>
</g>
<path d="M1417 897.5C1417 897.5 1421.67 895.5 1425 889.5C1428.33 895.5 1433 897.5 1433 897.5" stroke="black" stroke-width="3" stroke-linecap="round" stroke-linejoin="round"/>
<path d="M1425 889.5V900.5" stroke="black" stroke-width="3" stroke-linecap="round"/>
<path d="M1425 896L1425 1012" stroke="black" stroke-width="3" stroke-linecap="round" stroke-dasharray="6 8"/>
<path d="M1433 1010.5C1433 1010.5 1428.33 1012.5 1425 1018.5C1421.67 1012.5 1417 1010.5 1417 1010.5" stroke="black" stroke-width="3" stroke-linecap="round" stroke-linejoin="round"/>
<path d="M1425 1018.5V1007.5" stroke="black" stroke-width="3" stroke-linecap="round"/>
<path d="M584 897.5C584 897.5 588.667 895.5 592 889.5C595.333 895.5 600 897.5 600 897.5" stroke="black" stroke-width="3" stroke-linecap="round" stroke-linejoin="round"/>
<path d="M592 889.5V900.5" stroke="black" stroke-width="3" stroke-linecap="round"/>
<path d="M592 896L592 1012" stroke="black" stroke-width="3" stroke-linecap="round"/>
<path d="M600 1010.5C600 1010.5 595.333 1012.5 592 1018.5C588.667 1012.5 584 1010.5 584 1010.5" stroke="black" stroke-width="3" stroke-linecap="round" stroke-linejoin="round"/>
<path d="M592 1018.5V1007.5" stroke="black" stroke-width="3" stroke-linecap="round"/>
<path d="M987 701.5C987 701.5 991.667 699.5 995 693.5C998.333 699.5 1003 701.5 1003 701.5" stroke="black" stroke-width="3" stroke-linecap="round" stroke-linejoin="round"/>
<path d="M995 693.5V704.5" stroke="black" stroke-width="3" stroke-linecap="round"/>
<path d="M995 700L995 824" stroke="black" stroke-width="3" stroke-linecap="round" stroke-dasharray="6 8"/>
<circle cx="995" cy="824" r="6.5" fill="white" stroke="black" stroke-width="3"/>
<g filter="url(#filter11_d_4_4071)">
<rect x="862" y="724" width="262" height="68" rx="4" fill="white"/>
<rect x="863" y="725" width="260" height="66" rx="3" stroke="black" stroke-width="2"/>
</g>
<path d="M582 701.5C582 701.5 586.667 699.5 590 693.5C593.333 699.5 598 701.5 598 701.5" stroke="black" stroke-width="3" stroke-linecap="round" stroke-linejoin="round"/>
<path d="M590 693.5V704.5" stroke="black" stroke-width="3" stroke-linecap="round"/>
<path d="M590 700L590 824" stroke="black" stroke-width="3" stroke-linecap="round"/>
<circle cx="590" cy="824" r="6.5" fill="white" stroke="black" stroke-width="3"/>
<path d="M1415 701.5C1415 701.5 1419.67 699.5 1423 693.5C1426.33 699.5 1431 701.5 1431 701.5" stroke="black" stroke-width="3" stroke-linecap="round" stroke-linejoin="round"/>
<path d="M1423 693.5V704.5" stroke="black" stroke-width="3" stroke-linecap="round"/>
<path d="M1423 700L1423 824" stroke="black" stroke-width="3" stroke-linecap="round" stroke-dasharray="6 8"/>
<circle cx="1423" cy="824" r="6.5" fill="white" stroke="black" stroke-width="3"/>
<g filter="url(#filter12_d_4_4071)">
<rect x="154" y="1164" width="262" height="68" rx="4" fill="#FDFEBE"/>
<rect x="155" y="1165" width="260" height="66" rx="3" stroke="black" stroke-width="2"/>
</g>
<path d="M44 1198H154" stroke="black" stroke-width="3" stroke-linecap="round" stroke-dasharray="6 8"/>
<circle cx="44" cy="1198" r="6.5" fill="#FDFEBE" stroke="black" stroke-width="3"/>
<path d="M755 1198H865" stroke="black" stroke-width="3" stroke-linecap="round" stroke-dasharray="6 8"/>
<circle cx="865" cy="1198" r="6.5" fill="#FDFEBE" stroke="black" stroke-width="3"/>
<g filter="url(#filter13_d_4_4071)">
<rect x="493" y="1164" width="262" height="68" rx="4" fill="#FDFEBE"/>
<rect x="494" y="1165" width="260" height="66" rx="3" stroke="black" stroke-width="2"/>
</g>
<path d="M1411 1150L1411 1274" stroke="black" stroke-width="3" stroke-linecap="round" stroke-dasharray="6 8"/>
<circle cx="1411" cy="1150" r="6.5" fill="#FDFEBE" stroke="black" stroke-width="3"/>
<g filter="url(#filter14_d_4_4071)">
<rect x="1280" y="1274" width="262" height="68" rx="4" fill="#FDFEBE"/>
<rect x="1281" y="1275" width="260" height="66" rx="3" stroke="black" stroke-width="2"/>
</g>
<g filter="url(#filter15_d_4_4071)">
<rect x="944" y="1164" width="262" height="68" rx="4" fill="#FDFEBE"/>
<rect x="945" y="1165" width="260" height="66" rx="3" stroke="black" stroke-width="2"/>
</g>
<path d="M1075 1232L1075 1356" stroke="black" stroke-width="3" stroke-linecap="round" stroke-dasharray="6 8"/>
<circle cx="1075" cy="1356" r="6.5" fill="#FDFEBE" stroke="black" stroke-width="3"/>
<defs>
<filter id="filter0_d_4_4071" x="54" y="29" width="266" height="72" filterUnits="userSpaceOnUse" color-interpolation-filters="sRGB">
<feFlood flood-opacity="0" result="BackgroundImageFix"/>
<feColorMatrix in="SourceAlpha" type="matrix" values="0 0 0 0 0 0 0 0 0 0 0 0 0 0 0 0 0 0 127 0" result="hardAlpha"/>
<feOffset dx="4" dy="4"/>
<feColorMatrix type="matrix" values="0 0 0 0 0 0 0 0 0 0 0 0 0 0 0 0 0 0 1 0"/>
<feBlend mode="normal" in2="BackgroundImageFix" result="effect1_dropShadow_4_4071"/>
<feBlend mode="normal" in="SourceGraphic" in2="effect1_dropShadow_4_4071" result="shape"/>
</filter>
<filter id="filter1_d_4_4071" x="58" y="350" width="266" height="72" filterUnits="userSpaceOnUse" color-interpolation-filters="sRGB">
<feFlood flood-opacity="0" result="BackgroundImageFix"/>
<feColorMatrix in="SourceAlpha" type="matrix" values="0 0 0 0 0 0 0 0 0 0 0 0 0 0 0 0 0 0 127 0" result="hardAlpha"/>
<feOffset dx="4" dy="4"/>
<feColorMatrix type="matrix" values="0 0 0 0 0 0 0 0 0 0 0 0 0 0 0 0 0 0 1 0"/>
<feBlend mode="normal" in2="BackgroundImageFix" result="effect1_dropShadow_4_4071"/>
<feBlend mode="normal" in="SourceGraphic" in2="effect1_dropShadow_4_4071" result="shape"/>
</filter>
<filter id="filter2_d_4_4071" x="861" y="350" width="266" height="72" filterUnits="userSpaceOnUse" color-interpolation-filters="sRGB">
<feFlood flood-opacity="0" result="BackgroundImageFix"/>
<feColorMatrix in="SourceAlpha" type="matrix" values="0 0 0 0 0 0 0 0 0 0 0 0 0 0 0 0 0 0 127 0" result="hardAlpha"/>
<feOffset dx="4" dy="4"/>
<feColorMatrix type="matrix" values="0 0 0 0 0 0 0 0 0 0 0 0 0 0 0 0 0 0 1 0"/>
<feBlend mode="normal" in2="BackgroundImageFix" result="effect1_dropShadow_4_4071"/>
<feBlend mode="normal" in="SourceGraphic" in2="effect1_dropShadow_4_4071" result="shape"/>
</filter>
<filter id="filter3_d_4_4071" x="861" y="30" width="266" height="72" filterUnits="userSpaceOnUse" color-interpolation-filters="sRGB">
<feFlood flood-opacity="0" result="BackgroundImageFix"/>
<feColorMatrix in="SourceAlpha" type="matrix" values="0 0 0 0 0 0 0 0 0 0 0 0 0 0 0 0 0 0 127 0" result="hardAlpha"/>
<feOffset dx="4" dy="4"/>
<feColorMatrix type="matrix" values="0 0 0 0 0 0 0 0 0 0 0 0 0 0 0 0 0 0 1 0"/>
<feBlend mode="normal" in2="BackgroundImageFix" result="effect1_dropShadow_4_4071"/>
<feBlend mode="normal" in="SourceGraphic" in2="effect1_dropShadow_4_4071" result="shape"/>
</filter>
<filter id="filter4_d_4_4071" x="54" y="190" width="266" height="72" filterUnits="userSpaceOnUse" color-interpolation-filters="sRGB">
<feFlood flood-opacity="0" result="BackgroundImageFix"/>
<feColorMatrix in="SourceAlpha" type="matrix" values="0 0 0 0 0 0 0 0 0 0 0 0 0 0 0 0 0 0 127 0" result="hardAlpha"/>
<feOffset dx="4" dy="4"/>
<feColorMatrix type="matrix" values="0 0 0 0 0 0 0 0 0 0 0 0 0 0 0 0 0 0 1 0"/>
<feBlend mode="normal" in2="BackgroundImageFix" result="effect1_dropShadow_4_4071"/>
<feBlend mode="normal" in="SourceGraphic" in2="effect1_dropShadow_4_4071" result="shape"/>
</filter>
<filter id="filter5_d_4_4071" x="861" y="190" width="266" height="72" filterUnits="userSpaceOnUse" color-interpolation-filters="sRGB">
<feFlood flood-opacity="0" result="BackgroundImageFix"/>
<feColorMatrix in="SourceAlpha" type="matrix" values="0 0 0 0 0 0 0 0 0 0 0 0 0 0 0 0 0 0 127 0" result="hardAlpha"/>
<feOffset dx="4" dy="4"/>
<feColorMatrix type="matrix" values="0 0 0 0 0 0 0 0 0 0 0 0 0 0 0 0 0 0 1 0"/>
<feBlend mode="normal" in2="BackgroundImageFix" result="effect1_dropShadow_4_4071"/>
<feBlend mode="normal" in="SourceGraphic" in2="effect1_dropShadow_4_4071" result="shape"/>
</filter>
<filter id="filter6_d_4_4071" x="13" y="524" width="266" height="72" filterUnits="userSpaceOnUse" color-interpolation-filters="sRGB">
<feFlood flood-opacity="0" result="BackgroundImageFix"/>
<feColorMatrix in="SourceAlpha" type="matrix" values="0 0 0 0 0 0 0 0 0 0 0 0 0 0 0 0 0 0 127 0" result="hardAlpha"/>
<feOffset dx="4" dy="4"/>
<feColorMatrix type="matrix" values="0 0 0 0 0 0 0 0 0 0 0 0 0 0 0 0 0 0 1 0"/>
<feBlend mode="normal" in2="BackgroundImageFix" result="effect1_dropShadow_4_4071"/>
<feBlend mode="normal" in="SourceGraphic" in2="effect1_dropShadow_4_4071" result="shape"/>
</filter>
<filter id="filter7_d_4_4071" x="862" y="524" width="266" height="72" filterUnits="userSpaceOnUse" color-interpolation-filters="sRGB">
<feFlood flood-opacity="0" result="BackgroundImageFix"/>
<feColorMatrix in="SourceAlpha" type="matrix" values="0 0 0 0 0 0 0 0 0 0 0 0 0 0 0 0 0 0 127 0" result="hardAlpha"/>
<feOffset dx="4" dy="4"/>
<feColorMatrix type="matrix" values="0 0 0 0 0 0 0 0 0 0 0 0 0 0 0 0 0 0 1 0"/>
<feBlend mode="normal" in2="BackgroundImageFix" result="effect1_dropShadow_4_4071"/>
<feBlend mode="normal" in="SourceGraphic" in2="effect1_dropShadow_4_4071" result="shape"/>
</filter>
<filter id="filter8_d_4_4071" x="13" y="724" width="266" height="72" filterUnits="userSpaceOnUse" color-interpolation-filters="sRGB">
<feFlood flood-opacity="0" result="BackgroundImageFix"/>
<feColorMatrix in="SourceAlpha" type="matrix" values="0 0 0 0 0 0 0 0 0 0 0 0 0 0 0 0 0 0 127 0" result="hardAlpha"/>
<feOffset dx="4" dy="4"/>
<feColorMatrix type="matrix" values="0 0 0 0 0 0 0 0 0 0 0 0 0 0 0 0 0 0 1 0"/>
<feBlend mode="normal" in2="BackgroundImageFix" result="effect1_dropShadow_4_4071"/>
<feBlend mode="normal" in="SourceGraphic" in2="effect1_dropShadow_4_4071" result="shape"/>
</filter>
<filter id="filter9_d_4_4071" x="13" y="918" width="266" height="72" filterUnits="userSpaceOnUse" color-interpolation-filters="sRGB">
<feFlood flood-opacity="0" result="BackgroundImageFix"/>
<feColorMatrix in="SourceAlpha" type="matrix" values="0 0 0 0 0 0 0 0 0 0 0 0 0 0 0 0 0 0 127 0" result="hardAlpha"/>
<feOffset dx="4" dy="4"/>
<feColorMatrix type="matrix" values="0 0 0 0 0 0 0 0 0 0 0 0 0 0 0 0 0 0 1 0"/>
<feBlend mode="normal" in2="BackgroundImageFix" result="effect1_dropShadow_4_4071"/>
<feBlend mode="normal" in="SourceGraphic" in2="effect1_dropShadow_4_4071" result="shape"/>
</filter>
<filter id="filter10_d_4_4071" x="864" y="918" width="266" height="72" filterUnits="userSpaceOnUse" color-interpolation-filters="sRGB">
<feFlood flood-opacity="0" result="BackgroundImageFix"/>
<feColorMatrix in="SourceAlpha" type="matrix" values="0 0 0 0 0 0 0 0 0 0 0 0 0 0 0 0 0 0 127 0" result="hardAlpha"/>
<feOffset dx="4" dy="4"/>
<feColorMatrix type="matrix" values="0 0 0 0 0 0 0 0 0 0 0 0 0 0 0 0 0 0 1 0"/>
<feBlend mode="normal" in2="BackgroundImageFix" result="effect1_dropShadow_4_4071"/>
<feBlend mode="normal" in="SourceGraphic" in2="effect1_dropShadow_4_4071" result="shape"/>
</filter>
<filter id="filter11_d_4_4071" x="862" y="724" width="266" height="72" filterUnits="userSpaceOnUse" color-interpolation-filters="sRGB">
<feFlood flood-opacity="0" result="BackgroundImageFix"/>
<feColorMatrix in="SourceAlpha" type="matrix" values="0 0 0 0 0 0 0 0 0 0 0 0 0 0 0 0 0 0 127 0" result="hardAlpha"/>
<feOffset dx="4" dy="4"/>
<feColorMatrix type="matrix" values="0 0 0 0 0 0 0 0 0 0 0 0 0 0 0 0 0 0 1 0"/>
<feBlend mode="normal" in2="BackgroundImageFix" result="effect1_dropShadow_4_4071"/>
<feBlend mode="normal" in="SourceGraphic" in2="effect1_dropShadow_4_4071" result="shape"/>
</filter>
<filter id="filter12_d_4_4071" x="154" y="1164" width="266" height="72" filterUnits="userSpaceOnUse" color-interpolation-filters="sRGB">
<feFlood flood-opacity="0" result="BackgroundImageFix"/>
<feColorMatrix in="SourceAlpha" type="matrix" values="0 0 0 0 0 0 0 0 0 0 0 0 0 0 0 0 0 0 127 0" result="hardAlpha"/>
<feOffset dx="4" dy="4"/>
<feColorMatrix type="matrix" values="0 0 0 0 0 0 0 0 0 0 0 0 0 0 0 0 0 0 1 0"/>
<feBlend mode="normal" in2="BackgroundImageFix" result="effect1_dropShadow_4_4071"/>
<feBlend mode="normal" in="SourceGraphic" in2="effect1_dropShadow_4_4071" result="shape"/>
</filter>
<filter id="filter13_d_4_4071" x="493" y="1164" width="266" height="72" filterUnits="userSpaceOnUse" color-interpolation-filters="sRGB">
<feFlood flood-opacity="0" result="BackgroundImageFix"/>
<feColorMatrix in="SourceAlpha" type="matrix" values="0 0 0 0 0 0 0 0 0 0 0 0 0 0 0 0 0 0 127 0" result="hardAlpha"/>
<feOffset dx="4" dy="4"/>
<feColorMatrix type="matrix" values="0 0 0 0 0 0 0 0 0 0 0 0 0 0 0 0 0 0 1 0"/>
<feBlend mode="normal" in2="BackgroundImageFix" result="effect1_dropShadow_4_4071"/>
<feBlend mode="normal" in="SourceGraphic" in2="effect1_dropShadow_4_4071" result="shape"/>
</filter>
<filter id="filter14_d_4_4071" x="1280" y="1274" width="266" height="72" filterUnits="userSpaceOnUse" color-interpolation-filters="sRGB">
<feFlood flood-opacity="0" result="BackgroundImageFix"/>
<feColorMatrix in="SourceAlpha" type="matrix" values="0 0 0 0 0 0 0 0 0 0 0 0 0 0 0 0 0 0 127 0" result="hardAlpha"/>
<feOffset dx="4" dy="4"/>
<feColorMatrix type="matrix" values="0 0 0 0 0 0 0 0 0 0 0 0 0 0 0 0 0 0 1 0"/>
<feBlend mode="normal" in2="BackgroundImageFix" result="effect1_dropShadow_4_4071"/>
<feBlend mode="normal" in="SourceGraphic" in2="effect1_dropShadow_4_4071" result="shape"/>
</filter>
<filter id="filter15_d_4_4071" x="944" y="1164" width="266" height="72" filterUnits="userSpaceOnUse" color-interpolation-filters="sRGB">
<feFlood flood-opacity="0" result="BackgroundImageFix"/>
<feColorMatrix in="SourceAlpha" type="matrix" values="0 0 0 0 0 0 0 0 0 0 0 0 0 0 0 0 0 0 127 0" result="hardAlpha"/>
<feOffset dx="4" dy="4"/>
<feColorMatrix type="matrix" values="0 0 0 0 0 0 0 0 0 0 0 0 0 0 0 0 0 0 1 0"/>
<feBlend mode="normal" in2="BackgroundImageFix" result="effect1_dropShadow_4_4071"/>
<feBlend mode="normal" in="SourceGraphic" in2="effect1_dropShadow_4_4071" result="shape"/>
</filter>
</defs>
</svg>
