<svg xmlns="http://www.w3.org/2000/svg" xmlns:xlink="http://www.w3.org/1999/xlink" width="500" zoomAndPan="magnify" viewBox="0 0 375 374.999991" height="500" preserveAspectRatio="xMidYMid meet" version="1.0"><defs><g/><clipPath id="b128196083"><path d="M 0.160156 0.1875 L 102.296875 0.1875 L 102.296875 150.390625 L 0.160156 150.390625 Z M 0.160156 0.1875 " clip-rule="nonzero"/></clipPath><clipPath id="3bca2a6147"><rect x="0" width="358" y="0" height="166"/></clipPath></defs><g transform="matrix(1, 0, 0, 1, 8, 106)"><g clip-path="url(#3bca2a6147)"><g fill="#000000" fill-opacity="0.4"><g transform="translate(102.243119, 128.391808)"><g><path d="M 83.390625 0 L 56.765625 0 L 25.5 -35.984375 L 25.5 0 L 6.171875 0 L 6.171875 -84.828125 L 25.5 -84.828125 L 25.5 -50.1875 L 54.609375 -84.828125 L 78.046875 -84.828125 L 43.90625 -44.625 Z M 83.390625 0 "/></g></g></g><g fill="#000000" fill-opacity="0.4"><g transform="translate(178.645597, 128.391808)"><g><path d="M 6.171875 0 L 6.171875 -88.4375 L 24.375 -88.4375 L 24.375 0 Z M 6.171875 0 "/></g></g></g><g fill="#000000" fill-opacity="0.4"><g transform="translate(204.661328, 128.391808)"><g><path d="M 23.34375 -52.75 L 23.34375 -27.65625 C 23.34375 -22.445312 24.128906 -18.742188 25.703125 -16.546875 C 27.285156 -14.359375 29.960938 -13.265625 33.734375 -13.265625 C 37.503906 -13.265625 40.175781 -14.359375 41.75 -16.546875 C 43.320312 -18.742188 44.109375 -22.445312 44.109375 -27.65625 L 44.109375 -52.75 L 62.3125 -52.75 L 62.3125 -23.234375 C 62.3125 -14.460938 60.03125 -8.140625 55.46875 -4.265625 C 50.914062 -0.390625 43.664062 1.546875 33.71875 1.546875 C 23.78125 1.546875 16.53125 -0.390625 11.96875 -4.265625 C 7.414062 -8.140625 5.140625 -14.460938 5.140625 -23.234375 L 5.140625 -52.75 Z M 23.34375 -52.75 "/></g></g></g><g fill="#000000" fill-opacity="0.4"><g transform="translate(267.593074, 128.391808)"><g><path d="M 9.25 -52.75 L 9.25 -72.390625 L 27.453125 -72.390625 L 27.453125 -52.75 L 38.5625 -52.75 L 38.5625 -38.875 L 27.453125 -38.875 L 27.453125 -22.109375 C 27.453125 -17.242188 28.820312 -14.8125 31.5625 -14.8125 C 32.25 -14.8125 32.96875 -14.945312 33.71875 -15.21875 C 34.476562 -15.488281 35.0625 -15.765625 35.46875 -16.046875 L 36.09375 -16.453125 L 40.609375 -1.75 C 36.703125 0.445312 32.25 1.546875 27.25 1.546875 C 23.820312 1.546875 20.875 0.945312 18.40625 -0.25 C 15.9375 -1.457031 14.066406 -3.070312 12.796875 -5.09375 C 11.535156 -7.113281 10.628906 -9.238281 10.078125 -11.46875 C 9.523438 -13.695312 9.25 -16.078125 9.25 -18.609375 L 9.25 -38.875 L 1.640625 -38.875 L 1.640625 -52.75 Z M 9.25 -52.75 "/></g></g></g><g fill="#000000" fill-opacity="0.4"><g transform="translate(303.686152, 128.391808)"><g><path d="M 6.171875 0 L 6.171875 -52.75 L 24.375 -52.75 L 24.375 -45.140625 L 24.578125 -45.140625 C 24.710938 -45.410156 24.929688 -45.75 25.234375 -46.15625 C 25.546875 -46.570312 26.21875 -47.296875 27.25 -48.328125 C 28.28125 -49.359375 29.375 -50.285156 30.53125 -51.109375 C 31.695312 -51.929688 33.207031 -52.664062 35.0625 -53.3125 C 36.914062 -53.96875 38.800781 -54.296875 40.71875 -54.296875 C 42.707031 -54.296875 44.660156 -54.019531 46.578125 -53.46875 C 48.492188 -52.914062 49.898438 -52.367188 50.796875 -51.828125 L 52.234375 -51 L 44.625 -35.578125 C 42.363281 -37.492188 39.210938 -38.453125 35.171875 -38.453125 C 32.972656 -38.453125 31.082031 -37.972656 29.5 -37.015625 C 27.925781 -36.054688 26.8125 -34.890625 26.15625 -33.515625 C 25.507812 -32.148438 25.050781 -30.988281 24.78125 -30.03125 C 24.507812 -29.070312 24.375 -28.316406 24.375 -27.765625 L 24.375 0 Z M 6.171875 0 "/></g></g></g><g fill="#2b2e3f" fill-opacity="1"><g transform="translate(102.243119, 128.391808)"><g><path d="M 83.390625 0 L 56.765625 0 L 25.5 -35.984375 L 25.5 0 L 6.171875 0 L 6.171875 -84.828125 L 25.5 -84.828125 L 25.5 -50.1875 L 54.609375 -84.828125 L 78.046875 -84.828125 L 43.90625 -44.625 Z M 83.390625 0 "/></g></g></g><g fill="#2b2e3f" fill-opacity="1"><g transform="translate(178.645597, 128.391808)"><g><path d="M 6.171875 0 L 6.171875 -88.4375 L 24.375 -88.4375 L 24.375 0 Z M 6.171875 0 "/></g></g></g><g fill="#2b2e3f" fill-opacity="1"><g transform="translate(204.661328, 128.391808)"><g><path d="M 23.34375 -52.75 L 23.34375 -27.65625 C 23.34375 -22.445312 24.128906 -18.742188 25.703125 -16.546875 C 27.285156 -14.359375 29.960938 -13.265625 33.734375 -13.265625 C 37.503906 -13.265625 40.175781 -14.359375 41.75 -16.546875 C 43.320312 -18.742188 44.109375 -22.445312 44.109375 -27.65625 L 44.109375 -52.75 L 62.3125 -52.75 L 62.3125 -23.234375 C 62.3125 -14.460938 60.03125 -8.140625 55.46875 -4.265625 C 50.914062 -0.390625 43.664062 1.546875 33.71875 1.546875 C 23.78125 1.546875 16.53125 -0.390625 11.96875 -4.265625 C 7.414062 -8.140625 5.140625 -14.460938 5.140625 -23.234375 L 5.140625 -52.75 Z M 23.34375 -52.75 "/></g></g></g><g fill="#2b2e3f" fill-opacity="1"><g transform="translate(267.593074, 128.391808)"><g><path d="M 9.25 -52.75 L 9.25 -72.390625 L 27.453125 -72.390625 L 27.453125 -52.75 L 38.5625 -52.75 L 38.5625 -38.875 L 27.453125 -38.875 L 27.453125 -22.109375 C 27.453125 -17.242188 28.820312 -14.8125 31.5625 -14.8125 C 32.25 -14.8125 32.96875 -14.945312 33.71875 -15.21875 C 34.476562 -15.488281 35.0625 -15.765625 35.46875 -16.046875 L 36.09375 -16.453125 L 40.609375 -1.75 C 36.703125 0.445312 32.25 1.546875 27.25 1.546875 C 23.820312 1.546875 20.875 0.945312 18.40625 -0.25 C 15.9375 -1.457031 14.066406 -3.070312 12.796875 -5.09375 C 11.535156 -7.113281 10.628906 -9.238281 10.078125 -11.46875 C 9.523438 -13.695312 9.25 -16.078125 9.25 -18.609375 L 9.25 -38.875 L 1.640625 -38.875 L 1.640625 -52.75 Z M 9.25 -52.75 "/></g></g></g><g fill="#2b2e3f" fill-opacity="1"><g transform="translate(303.686152, 128.391808)"><g><path d="M 6.171875 0 L 6.171875 -52.75 L 24.375 -52.75 L 24.375 -45.140625 L 24.578125 -45.140625 C 24.710938 -45.410156 24.929688 -45.75 25.234375 -46.15625 C 25.546875 -46.570312 26.21875 -47.296875 27.25 -48.328125 C 28.28125 -49.359375 29.375 -50.285156 30.53125 -51.109375 C 31.695312 -51.929688 33.207031 -52.664062 35.0625 -53.3125 C 36.914062 -53.96875 38.800781 -54.296875 40.71875 -54.296875 C 42.707031 -54.296875 44.660156 -54.019531 46.578125 -53.46875 C 48.492188 -52.914062 49.898438 -52.367188 50.796875 -51.828125 L 52.234375 -51 L 44.625 -35.578125 C 42.363281 -37.492188 39.210938 -38.453125 35.171875 -38.453125 C 32.972656 -38.453125 31.082031 -37.972656 29.5 -37.015625 C 27.925781 -36.054688 26.8125 -34.890625 26.15625 -33.515625 C 25.507812 -32.148438 25.050781 -30.988281 24.78125 -30.03125 C 24.507812 -29.070312 24.375 -28.316406 24.375 -27.765625 L 24.375 0 Z M 6.171875 0 "/></g></g></g><g clip-path="url(#b128196083)"><path fill="#2b2e3f" d="M 62.460938 136.835938 L 62.460938 140.910156 C 62.460938 146.109375 58.226562 150.347656 53.027344 150.347656 L 48.601562 150.347656 C 43.40625 150.347656 39.167969 146.109375 39.167969 140.910156 L 39.167969 136.835938 C 35.007812 135.855469 31.890625 132.105469 31.890625 127.644531 L 31.890625 122.324219 C 29.285156 120.632812 27.570312 117.71875 27.570312 114.398438 L 27.570312 109.34375 C 21.03125 102.027344 24.613281 96.425781 24.613281 96.425781 C 16.847656 94.875 10.738281 87.824219 13.367188 79.714844 C 3.054688 76.878906 -1.328125 65.464844 4.480469 56.765625 C -3.097656 46.738281 0.671875 29.167969 12.535156 25.480469 C 12.472656 14.515625 22.621094 5.835938 33.566406 7.667969 C 38.742188 0.816406 47.179688 0.1875 54.78125 0.777344 C 81.292969 2.796875 102.1875 24.949219 102.1875 51.992188 C 102.1875 63.734375 98.210938 75.003906 90.851562 84.152344 L 74.078125 109.09375 L 74.078125 114.394531 C 74.078125 117.714844 72.347656 120.628906 69.738281 122.320312 L 69.738281 127.640625 C 69.738281 132.105469 66.640625 135.859375 62.460938 136.835938 Z M 62.460938 136.835938 " fill-opacity="1" fill-rule="evenodd"/></g><path fill="#00c896" d="M 32.628906 110.015625 L 69.027344 110.015625 L 69.027344 114.398438 C 69.027344 116.804688 67.050781 118.78125 64.644531 118.78125 L 37.011719 118.78125 C 34.585938 118.78125 32.628906 116.804688 32.628906 114.398438 Z M 32.628906 110.015625 " fill-opacity="1" fill-rule="evenodd"/><path fill="#ff6b6b" d="M 36.945312 123.285156 L 64.683594 123.285156 L 64.683594 127.644531 C 64.683594 130.070312 62.730469 132.027344 60.324219 132.027344 L 41.332031 132.027344 C 38.925781 132.027344 36.949219 130.070312 36.949219 127.644531 L 36.949219 123.285156 Z M 36.945312 123.285156 " fill-opacity="1" fill-rule="evenodd"/><path fill="#00c896" d="M 44.222656 136.53125 L 57.410156 136.53125 L 57.410156 140.910156 C 57.410156 143.316406 55.453125 145.292969 53.027344 145.292969 L 48.605469 145.292969 C 46.199219 145.292969 44.222656 143.316406 44.222656 140.910156 Z M 44.222656 136.53125 " fill-opacity="1" fill-rule="evenodd"/><path fill="#00c896" d="M 53.863281 104.902344 L 60.589844 104.902344 L 60.589844 52.566406 L 53.863281 52.566406 Z M 65.5625 104.902344 L 71.308594 104.902344 L 88.613281 79.203125 C 94.339844 71.277344 97.398438 62 97.398438 51.996094 C 97.398438 27.296875 78.160156 7.078125 53.863281 5.511719 L 53.863281 47.597656 L 60.445312 47.597656 C 60.628906 39.648438 62.707031 36.714844 67.640625 36.613281 C 72.820312 36.511719 76.894531 41.296875 75.386719 46.84375 C 75.34375 46.964844 75.324219 47.085938 75.285156 47.207031 C 73.816406 51.34375 70.414062 52.488281 65.5625 52.566406 Z M 67.785156 47.550781 C 66.195312 47.550781 64.910156 46.265625 64.910156 44.675781 C 64.910156 43.066406 66.195312 41.785156 67.785156 41.785156 C 69.394531 41.785156 70.675781 43.070312 70.675781 44.675781 C 70.675781 46.265625 69.394531 47.550781 67.785156 47.550781 Z M 67.785156 47.550781 " fill-opacity="1" fill-rule="evenodd"/><path fill="#ff6b6b" d="M 28.960938 99.050781 C 28.101562 100.722656 29.140625 102.964844 30.304688 104.652344 L 48.871094 104.855469 L 48.871094 69.136719 C 46.933594 66.507812 43.367188 63.613281 37.375 64.507812 C 36.007812 64.710938 34.726562 63.753906 34.519531 62.386719 C 34.316406 61 35.277344 59.738281 36.640625 59.535156 C 42.003906 58.742188 45.976562 60.085938 48.871094 62.140625 L 48.871094 49.34375 C 46.75 46.675781 43.285156 43.878906 38.046875 43.777344 C 36.660156 43.738281 35.558594 42.59375 35.582031 41.210938 C 35.625 39.824219 36.765625 38.726562 38.148438 38.765625 C 42.652344 38.847656 46.175781 40.394531 48.867188 42.414062 L 48.867188 5.488281 C 43.464844 5.8125 40.570312 6.933594 37.859375 10.664062 C 37.410156 12.152344 37.226562 14.71875 38.839844 18.53125 C 40.570312 17.878906 42.609375 17.515625 45.097656 17.617188 C 46.480469 17.65625 47.558594 18.820312 47.523438 20.203125 C 47.480469 21.570312 46.316406 22.667969 44.933594 22.628906 C 35.96875 22.324219 35.417969 31.003906 35.417969 31.027344 C 35.316406 32.414062 34.109375 33.453125 32.726562 33.351562 C 31.34375 33.25 30.300781 32.042969 30.402344 30.660156 C 30.402344 30.621094 30.75 25.140625 34.582031 21.289062 C 33.011719 17.84375 32.542969 14.96875 32.605469 12.648438 C 24.882812 11.425781 17.542969 17.601562 17.585938 25.445312 L 17.585938 25.875 C 19.195312 26.855469 21.761719 29.175781 23.25 34.457031 C 23.617188 35.800781 22.824219 37.1875 21.5 37.550781 C 20.15625 37.917969 18.769531 37.125 18.402344 35.800781 C 16.9375 30.542969 14.9375 30.09375 14.917969 30.09375 L 14.835938 30.054688 L 14.042969 30.316406 C 5.199219 33.070312 3.324219 46.84375 8.519531 53.710938 L 9.109375 54.488281 C 15.285156 54 20.851562 50.332031 23.394531 48.414062 C 21.988281 44.011719 23.96875 39.976562 23.96875 39.957031 C 24.558594 38.691406 26.046875 38.164062 27.308594 38.753906 C 28.574219 39.34375 29.105469 40.851562 28.511719 42.09375 C 28.511719 42.117188 25.824219 47.617188 32.140625 51 C 33.363281 51.65625 33.832031 53.183594 33.179688 54.402344 C 32.527344 55.625 31 56.097656 29.777344 55.441406 C 28.207031 54.585938 26.984375 53.671875 26.027344 52.691406 C 22.765625 55.074219 16.144531 59.171875 8.722656 59.539062 L 8.683594 59.582031 C 4.6875 65.574219 7.90625 72.972656 14.714844 74.847656 L 15.386719 75.027344 C 17.242188 73.867188 19.6875 72.625 22.5 71.949219 C 22.601562 68.464844 24.375 65.53125 24.394531 65.511719 C 25.085938 64.308594 26.640625 63.921875 27.820312 64.632812 C 29.023438 65.347656 29.410156 66.894531 28.695312 68.078125 C 28.675781 68.097656 25.292969 73.746094 30.550781 76.351562 C 31.792969 76.964844 32.300781 78.472656 31.691406 79.714844 C 31.082031 80.957031 29.570312 81.46875 28.328125 80.855469 C 26.046875 79.714844 24.578125 78.308594 23.699219 76.824219 C 21.929688 77.230469 20.335938 77.941406 19.035156 78.675781 L 18.179688 81.285156 C 16.507812 86.441406 20.867188 90.519531 25.617188 91.457031 L 29.285156 92.1875 C 32.425781 90.457031 37.277344 86.929688 38.804688 81.164062 C 39.167969 79.816406 40.535156 79.019531 41.882812 79.367188 C 43.230469 79.714844 44.023438 81.101562 43.675781 82.449219 C 41.375 91.148438 33.46875 95.796875 29.960938 97.488281 Z M 28.960938 99.050781 " fill-opacity="1" fill-rule="evenodd"/></g></g></svg>