<svg width="151" height="151" viewBox="0 0 151 151" fill="none" xmlns="http://www.w3.org/2000/svg">
<g id="All-Good-2--Streamline-Milano">
<g id="All-Good-2--Streamline-Milano.svg">
<path id="Vector" d="M33.3666 78.3347L34.3382 77.1597C34.6471 76.7906 35.4379 76.286 34.519 76.4893C34.1928 76.5692 33.8935 76.7339 33.6515 76.9667C33.4094 77.1995 33.2332 77.4922 33.1406 77.815C33.0879 78.0183 33.0352 78.764 33.3666 78.3347ZM39.1664 82.1008C39.1664 82.3493 40.2811 81.7618 40.7481 81.4078C40.8616 81.2776 40.9354 81.1176 40.9608 80.9467C40.9861 80.7758 40.962 80.6013 40.8912 80.4437C40.3941 79.2988 37.7127 77.6869 37.5243 77.8978C37.336 78.1087 38.6768 78.6511 40.0552 79.9993C41.2904 81.1969 39.1664 81.8146 39.1664 82.1008ZM35.4003 80.4588C35.6419 80.3063 35.8935 80.1704 36.1535 80.052C36.5527 79.924 36.3267 79.3515 35.9652 79.4495C35.6521 79.5789 35.3519 79.7378 35.0689 79.924C34.9979 79.9679 34.9474 80.0383 34.9283 80.1195C34.9093 80.2007 34.9232 80.2862 34.9672 80.3571C35.0111 80.428 35.0814 80.4786 35.1627 80.4976C35.2439 80.5167 35.3294 80.5027 35.4003 80.4588ZM39.5204 78.1313C39.559 78.1962 39.6195 78.2451 39.691 78.2693C39.7625 78.2934 39.8404 78.2912 39.9104 78.263C39.9804 78.2348 40.0381 78.1825 40.0729 78.1156C40.1077 78.0486 40.1175 77.9714 40.1003 77.8978C40.0027 77.6989 39.8946 77.5053 39.7765 77.3179C39.7566 77.282 39.7297 77.2505 39.6975 77.2251C39.6653 77.1997 39.6284 77.181 39.5889 77.1701C39.5494 77.1591 39.5081 77.1561 39.4674 77.1613C39.4267 77.1665 39.3875 77.1797 39.352 77.2002C39.3165 77.2207 39.2854 77.2481 39.2606 77.2807C39.2358 77.3134 39.2177 77.3506 39.2074 77.3903C39.1972 77.43 39.1949 77.4714 39.2008 77.512C39.2067 77.5525 39.2206 77.5915 39.2417 77.6267L39.5204 78.1313ZM126.916 50.1117C126.881 50.0829 126.837 50.0672 126.792 50.0672C126.746 50.0672 126.703 50.0829 126.667 50.1117C126.148 50.5561 127.601 50.7218 128.882 53.7121C129.432 55.0151 129.929 56.6421 128.814 57.7041C127.247 59.2105 122.103 59.1352 119.956 58.8415C119.892 58.8415 119.831 58.8669 119.786 58.9121C119.741 58.9573 119.715 59.0186 119.715 59.0825C119.715 59.1464 119.741 59.2077 119.786 59.2529C119.831 59.2981 119.892 59.3235 119.956 59.3235C120.858 59.4676 121.77 59.5407 122.683 59.542C124.189 59.542 128.129 59.3386 129.417 57.8171C130.419 56.6345 130.019 55.1281 129.492 53.8025C128.927 52.3913 128.046 51.1287 126.916 50.1117ZM44.2732 80.4964C45.2523 79.698 46.1863 78.9523 47.7606 77.5589C47.8735 77.461 47.7606 77.2802 47.5873 77.3706C46.4424 78.2744 45.3277 79.2687 44.1376 80.3307C44.0623 80.3985 44.1978 80.5944 44.2732 80.4964ZM48.0618 80.5492C47.0131 81.0408 45.9181 81.4268 44.7929 81.7016C44.6498 81.7016 44.695 81.9275 44.7929 81.9501C45.9867 81.7594 47.14 81.3698 48.205 80.7977C48.3481 80.7224 48.2878 80.4738 48.0618 80.5492ZM47.0299 84.8726C47.3388 84.737 47.5421 84.7822 47.9112 84.6467C47.9458 84.6338 47.9756 84.6107 47.9967 84.5804C48.0178 84.5501 48.0291 84.5141 48.0291 84.4772C48.0291 84.4403 48.0178 84.4043 47.9967 84.374C47.9756 84.3437 47.9458 84.3205 47.9112 84.3077C47.4291 84.1571 47.2107 84.3077 46.9245 84.0516C46.7663 83.788 46.8793 83.2984 46.8341 82.6808C46.8291 82.6517 46.8173 82.6242 46.7997 82.6005C46.7821 82.5769 46.7592 82.5577 46.7328 82.5445C46.7064 82.5313 46.6773 82.5245 46.6478 82.5246C46.6183 82.5247 46.5892 82.5318 46.5629 82.5452C46.2843 82.741 46.2617 83.2532 45.9679 83.6675C45.8097 83.8633 45.3804 84.1269 45.2147 84.0591C45.1824 84.0279 45.1392 84.0104 45.0942 84.0104C45.0492 84.0104 45.006 84.0279 44.9737 84.0591C44.7251 84.3303 45.5612 84.5111 45.9001 84.8877C46.0491 85.1979 46.076 85.5528 45.9754 85.8819C45.9227 86.1154 46.3144 86.1983 46.3144 86.0326C46.3451 85.7997 46.4247 85.5759 46.548 85.376C46.6713 85.1761 46.8356 85.0045 47.0299 84.8726ZM46.45 83.3662C46.4202 83.6307 46.4842 83.8972 46.6307 84.1194C46.9245 84.4132 47.0751 84.2851 46.8567 84.3755C46.6367 84.4959 46.4503 84.6694 46.3144 84.8802C46.2576 84.7252 46.1694 84.5837 46.0553 84.4644C45.9413 84.3452 45.8038 84.2508 45.6516 84.1872C45.9987 84.024 46.2801 83.7478 46.45 83.4039V83.3662Z" fill="black"/>
<path id="Vector_2" d="M143.329 59.218C142.7 57.9959 141.943 56.8445 141.07 55.7833C138.918 53.4135 136.514 51.2867 133.899 49.4412C133.763 49.3509 133.304 49.494 133.771 49.8932C135.92 51.433 137.936 53.1514 139.797 55.0301C142.523 57.9149 145.649 62.7882 143.02 65.7408C142.17 66.5223 141.105 67.0312 139.962 67.2021C136.837 67.7369 129.048 67.895 120.379 66.1551C120.317 66.1563 120.258 66.1791 120.211 66.2195C120.164 66.26 120.133 66.3156 120.123 66.3766C120.113 66.4376 120.125 66.5001 120.157 66.5532C120.188 66.6064 120.238 66.6467 120.296 66.6673C127.745 68.3244 135.594 68.4072 139.774 67.7218C144.173 66.8631 145.717 63.6846 143.329 59.218ZM41.5773 106.256C41.5563 106.247 41.533 106.243 41.5102 106.247C41.4874 106.25 41.466 106.26 41.4486 106.275C41.4311 106.29 41.4184 106.31 41.4118 106.332C41.4053 106.354 41.4052 106.377 41.4116 106.399C41.408 106.408 41.4062 106.417 41.4062 106.426C41.4062 106.435 41.408 106.444 41.4116 106.452C41.6089 106.668 41.7575 106.923 41.8472 107.201C41.9369 107.48 41.9656 107.774 41.9313 108.064C41.943 108.093 41.9633 108.119 41.9895 108.136C42.0156 108.154 42.0465 108.164 42.0782 108.164C42.1098 108.164 42.1407 108.154 42.1669 108.136C42.193 108.119 42.2133 108.093 42.225 108.064C42.2987 107.732 42.2769 107.387 42.1623 107.067C42.0477 106.747 41.8449 106.466 41.5773 106.256ZM42.5941 105.511C42.5671 105.484 42.5306 105.469 42.4924 105.469C42.4543 105.469 42.4177 105.484 42.3907 105.511C42.3638 105.538 42.3486 105.574 42.3486 105.612C42.3486 105.65 42.3638 105.687 42.3907 105.714C42.6031 105.929 42.7621 106.191 42.855 106.479C42.9478 106.767 42.972 107.072 42.9255 107.371C42.8698 107.579 42.8271 107.79 42.7975 108.004C42.8025 108.036 42.8161 108.067 42.8371 108.092C42.8581 108.117 42.8855 108.136 42.9164 108.147C42.9474 108.158 42.9807 108.16 43.0128 108.153C43.045 108.147 43.0747 108.132 43.0988 108.109C43.3132 107.681 43.38 107.194 43.2888 106.724C43.1975 106.254 42.9532 105.827 42.5941 105.511ZM36.2671 106.377C36.3349 106.256 36.1165 106.083 36.0261 106.249C35.2729 107.62 36.1616 109.028 36.4177 108.682C36.5533 108.463 35.5967 107.605 36.2671 106.377ZM37.3141 108.38C37.1629 108.087 37.0741 107.766 37.0534 107.436C37.0326 107.107 37.0804 106.777 37.1936 106.467C37.1936 106.332 37.0203 106.271 36.9601 106.384C36.7515 106.761 36.6608 107.191 36.6998 107.619C36.7387 108.048 36.9055 108.455 37.1785 108.787C37.2764 108.885 37.4722 108.787 37.4195 108.644C37.3916 108.553 37.3563 108.465 37.3141 108.38ZM35.5289 82.997C35.3331 83.1703 35.318 83.1627 35.1749 83.3058C35.0318 83.449 35.1749 84.1118 35.5063 83.7502L35.5817 83.6749C36.3349 85.8668 38.4514 86.1907 40.5228 85.1814C40.7563 85.0458 40.568 84.6842 40.3345 84.8123L40.2215 84.865C40.1238 84.5397 40.0706 84.2028 40.0633 83.8632L40.5077 83.7879C40.5536 83.7696 40.5916 83.7357 40.6151 83.6922C40.6386 83.6487 40.6461 83.5984 40.6362 83.5499C40.6263 83.5015 40.5998 83.458 40.5611 83.4272C40.5225 83.3964 40.4743 83.3801 40.4248 83.3812C38.9245 83.6378 37.3879 83.5918 35.9056 83.2456C36.0637 82.9518 35.7097 82.8539 35.5289 82.997ZM36.6964 84.7897C40.7638 84.7294 39.6114 83.8783 39.9428 84.978C38.9787 85.3546 37.5024 85.5881 36.6964 84.7897ZM39.8524 84.1645C38.7603 84.3978 37.6526 84.5514 36.5383 84.624C36.3046 84.345 36.1234 84.026 36.0035 83.6825C37.2671 83.9767 38.573 84.0431 39.8599 83.8783C39.8524 83.9687 39.8524 84.0591 39.8524 84.1645ZM99.1456 56.5817C103.518 58.1573 107.986 59.4554 112.523 60.4683C114.248 58.2765 120.055 51.1736 121.034 50.0815C122.376 48.585 123.619 47.0024 124.755 45.3438C125.181 44.7579 125.571 44.1467 125.922 43.5134C126.623 42.2028 126.367 42.3459 125.245 43.1293C122.985 44.7035 122.405 45.9237 119.678 47.7691C118.631 48.5675 117.057 48.4018 116.665 47.0987C116.274 45.7957 117.343 43.8524 118.435 41.8714C118.435 41.8262 121.305 36.3729 122.646 33.8346C123.316 32.5767 125.824 27.5603 124.597 26.8523C124.313 26.7598 124.005 26.7732 123.731 26.89C120.944 27.7336 119.128 31.5222 117.803 34.2865C114.3 41.6003 114.21 42.474 113.336 43.1896C113.041 43.4242 112.674 43.5519 112.297 43.5519C111.919 43.5519 111.553 43.4242 111.257 43.1896C111.001 42.9344 110.817 42.6162 110.723 42.2671C110.629 41.918 110.629 41.5503 110.723 41.2011C112.146 32.863 114.489 26.084 115.905 19.1544C116.131 18.1225 116.319 17.068 115.852 16.4202C115.385 15.7725 114.074 15.7273 113.283 16.2319C112.329 16.9952 111.623 18.0258 111.257 19.1921C108.696 25.5492 108.606 32.8856 107.943 39.7699C107.792 41.2764 107.084 41.7735 106.512 41.9016C104.486 42.4062 103.846 38.4217 102.979 36.3805C101.919 34.4513 100.545 32.7127 98.9121 31.236C97.6149 30.0828 96.013 29.3275 94.298 29.0604C92.583 28.7933 90.8273 29.0256 89.2408 29.7296C83.3356 32.1625 82.2133 36.5085 84.1114 37.4274C84.4442 37.4855 84.7856 37.4726 85.1132 37.3898C86.2447 37.1624 87.3557 36.8424 88.4348 36.4332C90.1693 35.7079 92.0237 35.312 93.9032 35.2657C95.4466 35.3894 96.9313 35.9129 98.211 36.7845C99.4908 37.6562 100.522 38.846 101.202 40.2369C106.06 50.9477 94.084 62.8334 84.3373 56.0545C82.5623 54.8737 81.1248 53.2516 80.166 51.3473C79.2073 49.4431 78.7604 47.3223 78.869 45.1931V43.7695C78.9007 43.4896 78.8533 43.2065 78.7321 42.9522C78.6109 42.6979 78.4209 42.4826 78.1836 42.3309C77.8877 42.2266 77.5703 42.1989 77.2608 42.2503C76.9513 42.3016 76.6599 42.4304 76.4135 42.6246C71.7059 45.6375 73.3253 53.8325 75.231 57.5459C77.1366 61.2592 82.3564 66.6598 81.7689 76.911C91.9373 80.6771 81.1814 76.4742 97.5111 82.8087C101.837 75.31 106.648 68.1014 111.913 61.2291C107.422 60.4351 103.037 59.1285 98.8443 57.335C97.9781 56.9659 98.4526 56.3482 99.1456 56.5817Z" fill="black"/>
<path id="Vector_3" d="M130.938 53.7873C130.788 53.6066 130.501 53.8777 130.614 54.0208C132.392 56.2805 131.872 59.8206 129.259 61.0182C125.319 62.9464 119.926 61.9673 115.64 61.2894C118.714 57.3726 121.945 53.3053 125.99 47.5055C127.225 45.7505 128.927 43.8147 129.078 41.5777C129.439 39.8679 127.745 38.5046 125.756 39.7022C123.51 40.9056 121.517 42.5323 119.889 44.4926C121.726 41.4798 123.564 37.548 124.724 35.1678C125.477 33.6614 126.329 32.0646 126.984 30.5581C128.332 27.8842 127.699 24.1784 124.619 23.7792C121.418 23.3499 119.226 26.3552 117.749 28.7354C116.19 31.3635 114.894 34.1387 113.878 37.0207C114.978 32.2604 116.499 27.6055 117.772 22.8904C118.412 20.5178 119.422 17.8438 118.337 15.4486C117.9 14.5133 117.118 13.7829 116.156 13.4096C115.193 13.0363 114.123 13.049 113.17 13.4451C108.553 15.0494 106.843 23.8696 106.323 28.7203C106.052 31.5441 105.924 34.3798 105.939 37.2166C105.074 33.7272 103.074 30.6245 100.252 28.3964C93.4131 23.1239 83.5384 27.1611 80.39 34.972C80.1005 35.6761 79.9701 36.4354 80.0078 37.1958C80.0456 37.9561 80.2506 38.6988 80.6084 39.3708C77.9571 37.6986 72.0142 40.2596 70.6509 47.3398C66.7658 45.7826 62.991 43.9632 59.3526 41.894C56.867 40.5081 53.4549 37.9397 53.6207 35.1151C53.7864 32.2905 57.1156 31.0477 59.5937 30.3774C63.335 29.4076 67.2388 29.2382 71.0501 29.8802C71.2911 29.8802 71.4116 29.4961 71.1329 29.4358C67.6476 28.744 64.0565 28.7851 60.5879 29.5564C57.6654 30.1891 54.5622 31.1758 53.4022 33.684C52.0992 36.614 54.5546 39.2954 56.9047 40.9676C59.8769 42.9875 63.0315 44.725 66.3274 46.1572C67.7209 46.7975 69.1068 47.4754 70.5228 48.0779C70.4532 48.5774 70.4105 49.0803 70.3948 49.5844C63.3862 47.018 56.6983 43.6487 50.4647 39.544C49.3438 38.8688 48.4496 37.875 47.8962 36.6893C47.3162 35.1377 48.3783 33.7894 49.0562 33.1266C51.3375 30.9785 54.2355 29.6007 57.3415 29.1873C57.5826 29.1873 57.5298 28.7655 57.2813 28.7956C54.4736 29.1754 51.8185 30.2988 49.5909 32.0495C48.7021 32.7274 47.497 33.797 47.256 35.2733C47.1996 35.8485 47.2724 36.429 47.4692 36.9724C47.666 37.5159 47.9817 38.0084 48.3933 38.4142C49.3793 39.4018 50.4911 40.2553 51.7 40.9525C57.6375 44.573 63.8985 47.6341 70.4023 50.0966C70.5755 60.0616 81.3993 68.0005 78.9362 78.1915C78.876 78.4326 78.6048 78.9447 78.7253 79.1556C78.9362 79.5172 84.3293 81.4153 84.7511 81.5961C84.5376 82.3307 84.4236 83.0907 84.4121 83.8557C73.1139 88.9324 66.5534 94.4007 60.7536 101.933C60.2513 101.559 59.7227 101.222 59.1718 100.924C56.4112 99.1631 53.4999 97.6508 50.4722 96.4043C46.811 95.1343 43.0227 94.2655 39.174 93.8132C38.8953 93.2634 38.9103 92.9922 38.1571 90.7024C39.7087 90.3635 41.5466 88.7968 42.5408 87.3732C43.7611 85.6559 43.6556 83.5544 42.9928 81.5659C41.7876 77.9354 40.5749 76.9412 38.5111 73.1676C38.6825 72.4149 38.6926 71.6344 38.5407 70.8776C38.3888 70.1207 38.0784 69.4046 37.6299 68.7763C37.9027 67.2859 37.9636 65.7645 37.8106 64.257C37.7215 63.4812 37.4792 62.7309 37.0978 62.0494C36.7163 61.368 36.2034 60.7692 35.5887 60.2876C34.9275 59.8578 34.1795 59.5796 33.3982 59.4728C32.6168 59.366 31.8216 59.4333 31.0694 59.6699C28.6591 60.4232 27.0321 61.9296 25.4805 64.1139C23.176 64.5177 21.0313 65.5608 19.2907 67.1242C17.5502 68.6876 16.2838 70.7085 15.636 72.9567C13.5119 80.4888 19.6054 87.2226 23.7707 87.0795C24.2904 87.5163 24.8478 87.9532 25.4654 88.5031C25.9546 89.0525 26.4752 89.5731 27.0246 90.0622C27.1547 90.1544 27.3142 90.1955 27.4726 90.1774C27.6311 90.1593 27.7773 90.0835 27.8833 89.9643C28.0264 90.3032 28.1695 90.6497 28.29 91.0037C28.5762 91.8775 29.1261 94.6794 28.6365 95.3347C28.4632 95.5758 27.8833 95.5984 25.8571 96.4419C25.7818 96.329 25.714 96.216 25.6462 96.103C25.488 95.8695 25.1265 96.103 25.2771 96.3214L25.4579 96.6077C22.9426 97.7054 20.6266 99.2122 18.6036 101.067C10.1525 108.524 5.91194 120.515 6.20569 128.002C6.3262 132.197 8.56326 136.716 12.9846 137.394C18.7317 138.148 25.1867 135.3 29.5554 130.909C31.5875 128.825 33.4821 126.611 35.2271 124.281C36.3645 125.501 38.3982 124.371 39.3397 123.302C42.4053 120.236 42.4881 115.898 44.1829 115.958C45.2449 115.995 45.7571 117.502 45.983 118.33C46.196 119.348 46.4625 120.354 46.7814 121.343C47.1807 122.353 47.9791 123.543 49.1993 123.52C50.4195 123.497 50.9618 122.209 51.3083 121.26C52.5285 117.66 51.6096 115.559 53.1235 114.64C54.3891 120.578 54.7145 126.678 54.0876 132.717C53.9596 133.877 54.3965 133.199 54.517 132.566C54.5622 132.325 54.6074 132.001 54.6601 131.542C55.2375 126.93 55.1436 122.26 54.3814 117.675H56.4904C60.9049 117.678 65.2298 116.43 68.9637 114.075C69.6114 113.608 71.6828 112.485 76.0665 107.981C85.8131 97.9635 87.4551 87.8779 88.0652 86.2735C89.416 85.8327 90.6476 85.088 91.6656 84.0967C93.1215 84.8459 94.6579 85.4271 96.2452 85.8291C96.9764 85.9612 97.7307 85.8642 98.4047 85.5514C99.0788 85.2386 99.6399 84.7253 100.011 84.0817C104.154 76.9864 107.122 72.1055 115.294 61.7112C119.858 62.6075 125.598 63.3758 129.741 61.3195C132.445 59.911 132.836 56.1298 130.938 53.7873ZM81.4595 40.2294C81.5348 40.2294 82.8379 41.4798 85.8432 40.7266C87.9598 40.1993 89.7675 38.836 91.869 38.3615C92.8698 38.1243 93.919 38.1976 94.8771 38.5717C95.8352 38.9458 96.6566 39.6028 97.2319 40.4554C98.4339 42.2191 99.0126 44.3337 98.8762 46.4637C98.7397 48.5937 97.8959 50.6172 96.4786 52.2131C91.8162 57.3802 82.5442 53.2902 81.9265 45.5396C81.7231 43.0314 82.3182 42.1351 81.4595 40.252V40.2294ZM16.359 73.145C16.9595 71.1655 18.0615 69.3749 19.5581 67.9469C21.0547 66.5189 22.8951 65.5021 24.9005 64.9952C23.9651 66.4462 23.2304 68.0171 22.7162 69.6651C21.6014 73.258 20.4565 78.5983 20.5469 82.3945C20.4709 83.3582 20.5548 84.3279 20.7955 85.2642C18.9404 83.9093 17.5287 82.0347 16.739 79.8775C15.9494 77.7203 15.8171 75.3774 16.359 73.145ZM21.2399 81.5509C21.2399 78.3045 22.3396 73.2655 23.379 69.9061C24.2424 67.1643 25.7271 64.6588 27.7175 62.5849C29.6834 60.5361 32.7415 59.3009 35.0915 60.9128C35.6247 61.3364 36.0689 61.8613 36.3985 62.4572C36.7281 63.0531 36.9367 63.7083 37.0122 64.3851C37.1441 65.5725 37.1289 66.7716 36.967 67.9553C36.3456 67.4742 35.5837 67.2097 34.7978 67.2021C30.6702 67.3 23.3489 72.6629 21.2399 81.5509ZM28.4858 95.862C29.239 95.636 29.3972 94.8225 29.3596 94.0015C29.2927 92.4534 28.9081 90.9356 28.2297 89.5425C28.6892 88.955 28.6741 89.1282 28.3954 88.5558C29.0206 89.0529 29.9998 88.149 29.7286 87.1096C29.8159 87.0265 29.8846 86.9257 29.9301 86.814C29.9755 86.7024 29.9967 86.5823 29.9923 86.4618C29.9923 86.4259 29.978 86.3914 29.9525 86.366C29.9271 86.3405 29.8926 86.3263 29.8567 86.3263C29.8207 86.3263 29.7862 86.3405 29.7608 86.366C29.7354 86.3914 29.7211 86.4259 29.7211 86.4618C29.6489 86.7292 29.4827 86.9617 29.2531 87.1166C29.0235 87.2715 28.7458 87.3386 28.4708 87.3054C28.5051 87.1396 28.5744 86.9829 28.6741 86.846C28.8248 86.8008 28.9453 86.6426 28.772 86.5447C28.5009 86.1455 27.9134 86.5447 27.8531 87.2452C26.0529 86.861 24.8403 84.2323 25.4805 83.1326C26.6706 81.7693 28.1619 83.0498 29.3822 84.3679C30.045 84.9403 30.8886 84.9177 30.3387 83.69C29.7719 82.3976 29.6091 80.964 29.8717 79.5774C28.1996 80.1876 26.9869 78.2367 27.8381 76.5646C28.998 74.3727 32.3574 72.6554 34.8128 73.4011C35.5661 72.2336 36.7712 71.4427 37.8257 72.4144C38.5036 73.9208 39.0911 75.0054 39.6259 75.962C39.0685 75.8038 37.9764 76.3763 38.1195 76.6173C38.2626 76.8583 39.6259 76.4893 39.9121 76.4817C41.2227 78.7866 42.7367 81.709 42.7141 84.5185C42.6614 87.0343 40.3038 89.2939 37.886 90.0773C37.3211 90.258 37.4717 90.5217 37.8031 91.3954C38.1456 92.2459 38.4447 93.1132 38.6994 93.994C38.7522 94.2124 38.7522 94.1145 38.6994 94.3179C38.6241 94.7999 39.8594 94.4384 44.9285 95.5833C43.6255 101.85 36.0933 105.285 29.6759 100.509C28.2912 99.4865 27.0849 98.242 26.1057 96.8261C26.8815 96.4872 27.6724 96.1708 28.4858 95.8846V95.862ZM28.4858 87.5766C28.7938 87.5783 29.098 87.5087 29.3746 87.3732C29.3713 87.5379 29.3186 87.6979 29.2232 87.8322C29.1278 87.9665 28.9943 88.069 28.8398 88.1264C28.6817 88.1264 28.516 87.8402 28.4783 87.5992L28.4858 87.5766ZM70.9973 111.68C68.7166 113.623 66.0704 115.09 63.2143 115.995C60.3582 116.901 57.3499 117.226 54.3663 116.952H54.2308C53.4029 112.599 52.0498 108.363 50.201 104.336C50.0579 104.019 49.5985 104.283 49.7566 104.539C51.1092 107.503 52.1638 110.594 52.9051 113.766C52.7974 113.751 52.688 113.775 52.5963 113.834C50.8563 114.918 51.2179 117.291 50.9241 119.016C50.8189 119.629 50.6678 120.233 50.4722 120.824C50.3501 121.38 50.0912 121.898 49.719 122.33C48.7323 123.226 47.8209 121.479 47.5648 120.726C46.9472 118.918 46.9848 116.357 45.1319 115.257C44.7267 115.009 44.2447 114.918 43.777 115.002C43.3093 115.085 42.8883 115.337 42.5936 115.709C42.0179 116.499 41.6196 117.403 41.4261 118.361C40.7482 120.379 39.6485 122.481 37.8182 123.633C37.5968 123.816 37.34 123.951 37.0639 124.03C36.7879 124.109 36.4985 124.13 36.2138 124.093C35.998 124.019 35.8056 123.889 35.6564 123.716C36.5302 122.533 39.6259 118.112 40.123 117.095C40.2045 116.923 40.243 116.734 40.2352 116.543C40.2273 116.353 40.1733 116.168 40.0778 116.003C39.9196 115.747 39.8293 115.724 39.8519 115.709C39.8745 115.694 40.6051 115.589 41.3583 114.203C41.3957 114.234 41.4394 114.257 41.4863 114.271C43.1509 114.384 44.1829 112.531 43.6782 111.054C43.4517 110.41 43.0191 109.857 42.4473 109.483C41.8755 109.108 41.1963 108.933 40.5147 108.983C40.6204 108.591 40.6254 108.178 40.5293 107.783C40.4332 107.388 40.239 107.023 39.9648 106.723C39.834 106.511 39.624 106.359 39.381 106.301C39.1381 106.243 38.8821 106.284 38.6693 106.415C38.4566 106.545 38.3045 106.755 38.2466 106.998C38.1887 107.241 38.2296 107.497 38.3605 107.71C38.8049 109.322 37.6675 111.167 36.6206 112.651L35.7996 111.898C35.679 111.702 35.5359 111.695 35.4455 111.793C35.1518 112.086 35.1141 112.101 35.1292 112.214C34.6697 113.472 25.3374 118.526 25.2395 118.587C25.3373 117.964 25.3676 117.333 25.3299 116.703C27.3334 113.472 27.243 113.691 27.1978 113.563C27.1526 113.435 26.8965 113.344 26.7911 113.502C26.7911 113.502 22.7463 119.656 21.2775 121.938C21.1269 122.179 21.6692 122.526 21.8274 122.27C23.2962 119.95 26.648 118.609 28.8022 117.404C30.4065 116.5 34.6697 114.097 35.6715 112.749C39.4376 116.206 39.4376 116.184 39.5204 116.365C39.6033 116.545 39.4376 116.937 39.2418 117.268C36.3943 122.065 33.008 126.52 29.1487 130.548C24.1624 135.489 17.7299 137.327 13.06 136.701C9.1357 136.061 7.03423 131.851 6.95137 127.957C6.66515 120.635 10.6195 111.634 15.0033 105.917C17.7574 102.083 21.4474 99.0185 25.7215 97.0144C28.0264 100.411 31.8376 103.251 35.9653 103.251C38.1717 103.277 40.3198 102.542 42.0483 101.171C43.7767 99.7987 44.98 97.8736 45.4558 95.7189C47.0639 96.085 48.6465 96.5555 50.1935 97.1274C50.8413 97.3759 55.2777 99.6431 58.1098 101.225C60.6933 102.882 60.7235 103.161 60.9118 102.912C66.8622 94.9732 74.5601 89.3015 84.5552 84.8349L86.9505 86.5598C84.7963 95.5155 80.2544 103.778 70.9898 111.732L70.9973 111.68ZM38.8802 107.544C38.8124 107.251 38.7748 106.897 39.076 106.844C39.5732 106.769 40.2134 107.537 39.8293 109.224C39.3494 109.481 38.9019 109.795 38.4961 110.158C38.8816 109.363 39.0131 108.469 38.8727 107.597L38.8802 107.544ZM41.0043 109.586C41.5321 109.656 42.024 109.892 42.4086 110.26C42.7931 110.629 43.0505 111.11 43.1434 111.634C42.7848 111.052 42.2411 110.606 41.5993 110.369C41.58 110.364 41.5601 110.364 41.5405 110.367C41.521 110.37 41.5023 110.377 41.4855 110.388C41.4687 110.398 41.4542 110.412 41.4427 110.428C41.4312 110.444 41.423 110.463 41.4185 110.482C41.4126 110.501 41.4118 110.521 41.4164 110.541C41.4209 110.561 41.4306 110.579 41.4444 110.593C41.4582 110.608 41.4757 110.618 41.4949 110.624C41.5142 110.63 41.5347 110.63 41.5541 110.625C42.1741 110.977 42.6492 111.538 42.8949 112.207C42.94 112.35 42.9852 112.501 43.038 112.651C42.9491 112.907 42.8022 113.139 42.6086 113.329C42.6242 113.023 42.5576 112.719 42.4159 112.447C42.2742 112.176 42.0625 111.947 41.8027 111.785C41.6596 111.695 41.4788 111.913 41.6219 112.034C41.8426 112.251 41.9977 112.525 42.0697 112.826C42.1416 113.127 42.1274 113.442 42.0287 113.736C41.9314 113.772 41.8303 113.798 41.7274 113.811C41.686 113.583 41.5561 113.38 41.3658 113.246C41.1399 113.028 40.8235 113.374 41.0419 113.57C40.9557 113.976 40.7806 114.359 40.5293 114.689C40.278 115.02 39.9566 115.291 39.5882 115.483C39.302 115.197 36.9068 112.983 36.9068 112.983C37.2785 112.302 37.7285 111.668 38.2475 111.092C38.9179 110.361 40.0176 109.555 40.9967 109.638L41.0043 109.586ZM87.8016 85.8668C87.6434 85.7614 87.2894 85.5053 84.8791 83.7729C85.0604 82.7807 85.3483 81.8109 85.7378 80.8805C85.9336 80.3156 86.378 80.0369 86.3178 80.6847V81.0763C86.4232 82.7184 89.3306 83.2079 90.8973 83.7427C90.001 84.6476 88.95 85.3848 87.7941 85.9195L87.8016 85.8668ZM98.2562 83.7352C98.2071 83.8218 98.1359 83.8939 98.05 83.9442C97.964 83.9945 97.8662 84.0211 97.7667 84.0214C97.5783 84.0214 81.1281 77.8224 80.9699 77.7622C80.8594 77.7145 80.7661 77.6341 80.7028 77.5317C80.6395 77.4293 80.6092 77.3099 80.6159 77.1898C81.3691 67.0891 76.0966 61.6208 74.2362 58.0053C72.1573 53.9832 70.4701 45.05 75.7426 41.6455C76.1586 41.3321 76.6498 41.1337 77.1667 41.0702C77.6837 41.0068 78.2082 41.0805 78.6877 41.2839C79.1093 41.5388 79.4526 41.9049 79.6798 42.3421C79.907 42.7792 80.0094 43.2705 79.9757 43.762V45.1931C79.4258 52.8985 87.7112 59.572 94.9496 55.7382C99.725 53.2073 102.919 46.7749 100.184 40.7341C99.5969 39.5285 98.7062 38.4962 97.5998 37.7383C96.4933 36.9804 95.209 36.5229 93.8725 36.4106C92.1554 36.4621 90.4625 36.8298 88.8787 37.4953C87.7432 37.9265 86.5743 38.2641 85.3838 38.5046C84.8444 38.6364 84.2812 38.6364 83.7418 38.5046C83.2527 38.2956 82.8395 37.9416 82.558 37.4904C82.2765 37.0392 82.1402 36.5124 82.1675 35.9813C82.2805 31.7256 87.2819 29.3379 88.8109 28.7128C90.5934 27.9212 92.5661 27.6594 94.4934 27.9585C96.4207 28.2577 98.2212 29.1053 99.6798 30.4C101.421 31.9747 102.885 33.8309 104.011 35.8909C104.568 37.1789 105.517 40.9826 106.27 40.8019C106.677 40.7115 106.805 40.0487 106.835 39.6645C107.513 32.6973 107.589 25.3082 110.217 18.808C110.659 17.425 111.506 16.2071 112.65 15.313C113.893 14.5146 115.821 14.4544 116.785 15.7499C117.539 16.7818 117.313 18.115 117.026 19.3879C115.52 26.6113 113.313 32.9458 111.837 41.4647C111.781 41.6189 111.767 41.7851 111.797 41.9464C111.826 42.1077 111.897 42.2585 112.002 42.3836C112.098 42.4284 112.205 42.4457 112.31 42.4338C112.415 42.4218 112.514 42.381 112.597 42.3158C112.817 42.124 112.99 41.8844 113.102 41.6154C113.599 40.6437 114.081 39.5591 114.609 38.4142C115.987 35.3109 115.836 35.7704 116.823 33.7141C118.329 30.6259 120.16 26.7845 123.346 25.8204C123.903 25.6057 124.521 25.6057 125.078 25.8204C126.321 26.5736 126.065 28.2458 125.877 28.9387C125.325 30.8192 124.567 32.633 123.617 34.3468C122.276 36.8776 119.422 42.361 119.391 42.4138C118.857 43.3402 117.448 45.7806 117.719 46.7673C117.878 47.272 118.593 47.144 119.007 46.8351C122.02 44.8015 122.284 43.5812 125.372 41.6681C125.574 41.5256 125.806 41.4307 126.05 41.3902C126.293 41.3498 126.543 41.365 126.781 41.4346C126.975 41.5248 127.138 41.6715 127.248 41.8555C127.358 42.0395 127.411 42.2524 127.398 42.4665C127.436 43.0389 127.15 43.8675 125.658 45.984C124.511 47.6752 123.253 49.2881 121.892 50.8121C119.565 53.486 119.843 53.3128 117.682 55.9114C110.377 64.5989 103.873 73.9291 98.2487 83.7879L98.2562 83.7352Z" fill="black"/>
</g>
</g>
</svg>
