<svg width="151" height="151" viewBox="0 0 151 151" fill="none" xmlns="http://www.w3.org/2000/svg">
<g id="Be-Patient-3--Streamline-Milano">
<g id="Be-Patient-3--Streamline-Milano.svg">
<path id="Vector" d="M146.636 118.707C144.971 111.31 142.207 114.647 140.535 111.31C140.539 111.27 140.539 111.23 140.535 111.19C141.348 111.032 142.147 110.805 142.922 110.512L142.704 109.887C141.782 110.007 140.845 109.943 139.947 109.699C139.654 109.379 139.276 109.15 138.857 109.037C138.439 108.923 137.997 108.931 137.582 109.058C142.968 100.02 134.871 89.083 132.106 82.2588C137.326 71.4427 143.404 59.3234 137.733 49.4563L137.793 49.4111C134.63 44.0482 130.261 43.5511 126.886 41.6605C126.941 41.5321 126.952 41.3891 126.918 41.2539C126.883 41.1186 126.805 40.9986 126.694 40.9126C126.584 40.8266 126.449 40.7795 126.309 40.7785C126.17 40.7775 126.034 40.8228 125.922 40.9073C125.598 40.5909 125.169 40.4478 123.881 36.6893C124.976 36.7224 126.059 36.4616 127.019 35.9342C127.979 35.4067 128.78 34.6318 129.339 33.69C129.898 32.7482 130.194 31.6738 130.198 30.5786C130.201 29.4834 129.91 28.4074 129.357 27.4624C129.054 26.9142 128.802 26.3393 128.604 25.745C129.673 22.4309 129.063 19.5009 126.947 17.9116H126.894C126.735 17.8156 126.605 17.6793 126.516 17.5166C126.428 17.3538 126.384 17.1704 126.389 16.9851V16.9249C124.883 8.06704 111.054 8.20262 104.938 12.9629C103.916 13.8351 103.104 14.9254 102.56 16.1534C102.017 17.3815 101.756 18.7159 101.797 20.0582C101.887 22.378 102.895 24.567 104.599 26.1442C102.076 30.5957 106.241 38.8435 109.525 36.7721C110.264 37.7513 111.286 38.4796 112.453 38.8582C113.62 39.2368 114.875 39.2474 116.048 38.8887C116.048 39.3782 116.131 39.8678 116.176 40.3574C116.115 40.2155 116.004 40.101 115.864 40.0353C115.724 39.9696 115.565 39.9574 115.416 40.001C115.268 40.0445 115.141 40.1408 115.059 40.2717C114.977 40.4026 114.945 40.559 114.971 40.7114C114.879 40.7141 114.789 40.7367 114.707 40.7777C114.625 40.8186 114.552 40.877 114.495 40.9486C114.438 41.0203 114.397 41.1035 114.375 41.1927C114.353 41.2818 114.35 41.3746 114.368 41.4646C108.809 43.3477 101.006 45.6149 97.8424 57.9676C96.7327 62.6543 96.2264 67.4637 96.336 72.2787C96.336 73.1751 92.9164 74.094 87.4179 80.2176C85.5725 82.2588 82.8007 86.3563 79.7577 89.8362C78.9518 90.7626 76.421 93.7906 76.2703 93.8584C76.2086 93.8945 76.1637 93.9536 76.1454 94.0228C76.127 94.0919 76.1368 94.1654 76.1724 94.2274C74.5982 94.3856 71.9469 94.9807 71.2991 96.3967C60.0009 100.291 57.4625 110.919 62.6296 118.037C64.7311 120.974 68.7909 124.974 71.2388 127.233C76.0067 131.662 81.3922 135.248 87.8623 134.803C90.0626 136.065 92.0378 137.684 93.7073 139.594C93.7073 141.432 96.8783 140.663 98.4299 140.844C109.412 140.844 123.994 135.82 137.552 137.831H137.657C137.707 137.808 137.747 137.768 137.77 137.718C137.786 137.669 137.786 137.617 137.77 137.568C135.511 132.024 132.694 128.529 128.152 126.759C132.955 126.176 137.65 124.908 142.094 122.993C142.696 122.654 141.13 121.81 140.798 118.662C143.811 120.168 145.498 122.194 146.606 121.215C147.163 120.688 146.771 119.355 146.636 118.707ZM106.15 27.0104C105.592 27.676 105.249 28.4956 105.167 29.3605C105.085 30.2255 105.268 31.0949 105.691 31.8536C105.698 31.8636 105.701 31.8754 105.701 31.8875C105.701 31.8996 105.698 31.9114 105.691 31.9214C105.672 31.929 105.65 31.929 105.631 31.9214C105.174 31.1499 104.975 30.2532 105.061 29.3609C105.148 28.4686 105.516 27.6269 106.113 26.9577C106.128 26.8899 106.203 26.9426 106.15 27.0104ZM137.725 107.544C136.622 110.208 134.557 112.359 131.941 113.57C140.497 105.368 138.222 93.6098 131.293 83.8783C131.534 83.4113 131.684 83.125 131.918 82.6505C134.825 90.9058 141.002 98.5132 137.725 107.544ZM130.351 85.573C130.622 85.106 130.879 84.639 131.104 84.1645C134.479 89.678 137.921 96.2159 136.626 103.808C135.609 109.834 131.466 114.64 124.326 118.044C115.957 122.066 99.1154 126.947 92.1029 128.295C93.3533 127.655 98.8216 126.232 114.104 113.57C120.379 108.614 119.641 109.352 121.38 107.951C128.415 102.528 134.208 92.7813 130.351 85.573ZM125.485 41.1332C124.567 43.7695 120.484 44.8993 117.953 43.9503C118.466 40.5231 118.353 39.6343 118.533 39.1297C118.585 39.0706 118.651 39.0248 118.724 38.996C118.798 38.9672 118.877 38.9562 118.955 38.964C119.855 39.074 120.767 38.911 121.573 38.4959C122.379 38.0808 123.041 37.433 123.474 36.6365C123.768 37.9848 124.363 39.9733 125.485 41.1558V41.1332ZM125.094 30.5882C124.883 29.8731 124.611 29.1775 124.28 28.5093C124.28 27.8917 124.988 29.6392 125.222 30.5731C125.222 30.5816 125.221 30.59 125.218 30.5979C125.216 30.6059 125.211 30.6132 125.206 30.6195C125.2 30.6258 125.193 30.6309 125.186 30.6346C125.178 30.6383 125.17 30.6404 125.162 30.6409C125.153 30.6414 125.145 30.6403 125.137 30.6375C125.129 30.6347 125.122 30.6304 125.115 30.6248C125.109 30.6192 125.104 30.6125 125.1 30.6049C125.096 30.5973 125.094 30.5891 125.094 30.5807V30.5882ZM128.732 30.3698C128.785 30.4602 128.634 30.543 128.589 30.4451C128.546 29.7474 128.355 29.0667 128.031 28.4475C127.706 27.8284 127.255 27.2848 126.706 26.8523C126.66 26.8523 126.706 26.7317 126.751 26.7694C127.346 27.1641 127.838 27.697 128.182 28.3226C128.527 28.9482 128.716 29.648 128.732 30.3622V30.3698ZM126.6 21.0902C126.593 21.0602 126.598 21.0287 126.613 21.0021C126.629 20.9755 126.654 20.9558 126.683 20.947C126.699 20.9385 126.717 20.934 126.736 20.934C126.754 20.934 126.772 20.9385 126.789 20.947C127.235 21.677 127.414 22.5392 127.296 23.3866C127.178 24.234 126.77 25.0142 126.141 25.5944C126.119 25.6076 126.094 25.6127 126.069 25.6088C126.044 25.6049 126.022 25.5923 126.005 25.5732C125.989 25.5542 125.98 25.5299 125.98 25.5048C125.98 25.4796 125.989 25.4553 126.005 25.4362C126.559 24.8726 126.917 24.1451 127.024 23.3619C127.131 22.5788 126.983 21.782 126.6 21.0902ZM124.89 26.0011C125.245 25.551 125.507 25.0349 125.661 24.4828C125.815 23.9308 125.858 23.3536 125.787 22.7849C125.787 22.6418 125.998 22.5815 126.013 22.7246C126.397 25.0897 124.536 26.5886 124.89 26.0162V26.0011ZM124.815 27.8917C124.83 27.8807 124.849 27.8747 124.868 27.8747C124.887 27.8747 124.905 27.8807 124.921 27.8917C126.148 28.5545 126.359 30.1965 126.043 30.1513C126.031 30.1504 126.019 30.1471 126.009 30.1417C125.998 30.1362 125.989 30.1287 125.981 30.1196C125.973 30.1105 125.968 30.1 125.964 30.0886C125.96 30.0773 125.959 30.0653 125.96 30.0534C125.955 29.6457 125.847 29.2457 125.647 28.8903C125.447 28.535 125.161 28.2356 124.815 28.0197C124.801 28.0044 124.793 27.9842 124.793 27.9632C124.793 27.9423 124.801 27.9221 124.815 27.9068V27.8917ZM124.28 15.5841H124.333C124.447 16.2699 124.369 16.9738 124.107 17.6178C124.107 17.6705 123.987 17.6178 124.009 17.5425C124.227 16.9138 124.319 16.2484 124.28 15.5841ZM120.085 12.0967C121.163 12.5093 122.067 13.2801 122.644 14.2798C123.222 15.2796 123.438 16.4476 123.256 17.5877C123.253 17.5981 123.247 17.6078 123.24 17.6161C123.233 17.6244 123.224 17.6312 123.214 17.6361C123.204 17.641 123.194 17.6439 123.183 17.6446C123.172 17.6454 123.161 17.644 123.151 17.6404C123.138 17.637 123.126 17.6303 123.117 17.621C123.108 17.6118 123.101 17.6003 123.098 17.5877C123.229 16.4902 123.002 15.3796 122.451 14.4213C121.9 13.4631 121.054 12.7085 120.04 12.27C119.927 12.2775 119.972 12.0516 120.077 12.0967H120.085ZM119.008 15.7047C120.266 16.0888 121.704 17.2111 121.765 18.6271C121.753 18.648 121.735 18.664 121.713 18.6723C121.691 18.6806 121.666 18.6806 121.644 18.6723C121.404 18.0791 121.087 17.5196 120.703 17.0077C120.237 16.4852 119.657 16.0778 119.008 15.8176C118.932 15.8176 119.008 15.6821 119.008 15.7047ZM112.38 18.1375C114.843 17.2412 119.287 16.7893 120.959 19.2598C121.004 19.3427 120.868 19.4406 120.8 19.3578C118.932 17.2638 114.888 17.4371 112.38 18.1978C112.312 18.2129 112.289 18.1601 112.357 18.1375H112.38ZM107.619 27.6883C108.907 21.9865 114.112 25.3835 117.999 22.1221C117.065 24.8788 120.582 27.3117 120.19 33.0286C120.189 33.0405 120.191 33.0525 120.194 33.0638C120.198 33.0752 120.204 33.0857 120.211 33.0948C120.219 33.1039 120.229 33.1114 120.239 33.1169C120.25 33.1223 120.261 33.1256 120.273 33.1265C120.286 33.1276 120.298 33.126 120.31 33.122C120.322 33.1179 120.333 33.1114 120.342 33.1029C120.351 33.0944 120.359 33.0841 120.364 33.0726C120.369 33.0611 120.371 33.0487 120.371 33.0362C120.492 32.6654 120.643 32.3052 120.823 31.9591C121.576 29.6994 120.763 27.1912 121.945 26.9351C123.128 26.679 124.062 30.3321 122.646 31.4544V31.1381C122.726 31.0906 122.786 31.0161 122.816 30.9281C122.847 30.84 122.844 30.7442 122.81 30.6576C122.776 30.571 122.712 30.4995 122.63 30.4557C122.548 30.4119 122.453 30.3988 122.362 30.4186C122.271 30.4385 122.19 30.4901 122.134 30.5642C122.078 30.6383 122.05 30.7299 122.055 30.8229C122.06 30.9158 122.098 31.0038 122.162 31.0712C122.226 31.1386 122.312 31.181 122.405 31.1908V31.6352C122.262 31.703 122.156 31.7256 122.134 31.7632C122.183 32.1647 122.279 32.559 122.42 32.9382C122.42 33.5182 122.488 34.0831 122.563 34.6556C122.186 34.8288 122.352 35.8231 122.36 36.0415C122.371 36.1161 122.409 36.184 122.466 36.2331C122.524 36.2822 122.597 36.3092 122.672 36.3092C122.748 36.3092 122.821 36.2822 122.878 36.2331C122.935 36.184 122.973 36.1161 122.985 36.0415C122.985 35.8005 123.128 34.7836 122.721 34.648V34.1133L123.407 36.3729C122.95 37.118 122.285 37.7128 121.494 38.0837C120.702 38.4545 119.82 38.5851 118.955 38.4593C117.923 38.3915 117.991 39.431 117.931 40.1616C117.803 41.9241 117.803 43.1744 117.803 43.9277H117.742C117.774 42.8952 117.749 41.8617 117.667 40.8319C117.516 39.3933 117.614 38.7757 117.034 38.5723C117.584 38.2904 118.067 37.8937 118.451 37.4089C118.834 36.9242 119.109 36.3629 119.256 35.7628C119.256 35.7628 119.204 35.6875 119.174 35.7628C116.921 40.4101 107.499 40.8997 107.597 27.6883H107.619ZM116.567 38.7531C117.456 38.9414 116.831 39.8528 117.539 43.7996C115.136 42.6321 116.582 40.719 116.274 40.5081V38.8585L116.567 38.7531ZM79.5694 90.9811C85.8211 83.7879 87.5008 79.8937 94.4228 74.7417C97.8123 72.1356 96.7277 74.335 97.0968 66.833C97.4282 60.9127 98.6634 55.0451 101.872 50.1191C104.975 45.3889 108.952 43.6791 114.428 41.6756C114.493 41.8184 114.608 41.9319 114.752 41.9936C114.896 42.0552 115.058 42.0605 115.206 42.0084C115.354 41.9563 115.477 41.8506 115.55 41.7122C115.624 41.5739 115.643 41.4129 115.603 41.2613C115.695 41.2576 115.785 41.2345 115.867 41.1935C114.85 45.7128 123.693 45.8936 125.659 41.6002C125.679 41.6971 125.722 41.7878 125.784 41.865C125.846 41.9423 125.925 42.0039 126.016 42.0449C126.106 42.0859 126.204 42.1052 126.303 42.1013C126.402 42.0973 126.499 42.0702 126.585 42.022C127.233 42.376 129.598 43.31 131.323 44.2064H131.413C133.668 45.2733 135.618 46.8895 137.085 48.9064C141.1 55.5197 139.623 63.323 136.799 70.5313C135.548 74.0187 130.637 84.8424 126.419 90.4388C118.948 99.2891 109.562 104.313 100.358 110.09C100.599 108.056 99.5372 106.414 96.6298 105.91C98.3094 103.914 97.5788 104.403 104.162 94.3254C112.447 81.4077 117.795 80.0143 118.337 77.5512C119.723 69.8684 121.682 64.8369 124.288 56.9734L123.836 56.7926C114.745 83.1552 119.61 76.2708 114.797 80.6319C115.377 76.7679 116.146 73.273 116.899 68.9118L116.575 69.0324C115.905 72.7984 114.91 76.6323 114.541 80.6771C114.541 81.1893 114.255 80.7373 110.165 85.4525C108.245 85.0568 106.408 84.3332 104.734 83.3133C105.488 83.4565 101.797 70.8853 100.268 63.7975C100.208 63.6434 100.118 63.5027 100.004 63.3832C99.976 63.3729 99.9459 63.3688 99.916 63.3714C99.8861 63.374 99.8572 63.3832 99.8313 63.3984C99.8054 63.4135 99.7831 63.4341 99.7661 63.4589C99.7491 63.4836 99.7378 63.5118 99.733 63.5414C100.388 66.5543 104.614 83.1627 104.629 83.1853C102.829 81.7843 103.122 81.3851 99.4619 67.669C96.8256 59.7678 101.157 55.3992 105.924 48.6202C108.516 46.4886 111.89 44.5227 113.961 42.9861C114.051 43.1223 114.19 43.2186 114.348 43.2551C114.507 43.2915 114.674 43.2652 114.814 43.1817C114.954 43.0982 115.056 42.9639 115.1 42.8068C115.143 42.6497 115.124 42.4819 115.047 42.3384C114.97 42.1949 114.84 42.0868 114.685 42.0365C114.53 41.9863 114.361 41.9978 114.215 42.0687C114.068 42.1395 113.954 42.2643 113.897 42.417C113.84 42.5697 113.844 42.7385 113.909 42.8882C111.25 44.3344 108.418 45.9011 106.376 48.0101C106.587 47.7088 106.791 47.4 106.994 47.0912L106.866 47.0083C101.752 54.2015 95.9293 58.992 99.0024 67.8498C102.595 80.6093 102.204 79.9013 102.904 81.4077C95.0932 91.3276 83.6067 96.0126 80.3302 97.9182C80.4281 96.2536 78.8237 93.9036 77.129 93.7906C77.3399 93.4893 76.8804 94.1069 79.5468 90.9811H79.5694ZM92.2912 111.318C91.2819 110.987 93.1725 109.36 94.0538 108.742C93.8655 108.84 92.231 109.435 91.892 109.495C89.5495 109.495 95.4321 104.283 99.138 107.65C99.3973 107.961 99.5889 108.322 99.7004 108.711C99.8119 109.1 99.841 109.508 99.7857 109.909C99.3078 110.273 98.7454 110.509 98.1513 110.595C97.3045 110.822 96.5161 111.228 95.8389 111.785C95.3041 112.41 94.2496 112.455 94.4153 111.702C94.5309 111.295 94.7308 110.917 95.002 110.593C95.2732 110.269 95.6097 110.005 95.9895 109.819C93.6772 110.407 93.0972 111.597 92.2686 111.303L92.2912 111.318ZM76.1799 94.2877C76.4436 94.6116 77.5734 93.5872 78.9367 95.5004C79.2763 95.8643 79.5314 96.2988 79.6838 96.7727C79.8361 97.2467 79.8819 97.7484 79.818 98.2421C79.2079 98.8447 77.2947 101.383 76.0519 100.449C75.5924 100.103 77.7391 98.5886 77.3851 98.2647C77.362 98.2481 77.3344 98.2392 77.306 98.2392C77.2776 98.2392 77.25 98.2481 77.2269 98.2647C74.794 99.1987 73.5813 100.908 73.3629 100.2C73.1595 99.3041 74.5982 98.0689 75.3815 97.5943C75.4 97.5761 75.4146 97.5544 75.4246 97.5305C75.4346 97.5066 75.4398 97.4809 75.4398 97.455C75.4398 97.429 75.4346 97.4034 75.4246 97.3795C75.4146 97.3555 75.4 97.3338 75.3815 97.3156C75.1782 97.1047 74.9899 97.4437 73.4608 98.2722C72.926 98.5509 72.2331 99.1685 71.9544 98.807C71.6757 98.4454 72.8281 96.9692 74.3496 96.344C74.3817 96.3225 74.4056 96.291 74.4177 96.2543C74.4298 96.2177 74.4293 96.1781 74.4163 96.1418C74.4033 96.1055 74.3786 96.0746 74.3461 96.0539C74.3135 96.0332 74.275 96.024 74.2366 96.0276C71.977 96.8336 72.2481 96.8712 71.8414 96.9842C71.6682 96.9842 71.5175 96.9842 71.4648 96.8486H71.5326C71.5034 96.7652 71.4807 96.6795 71.4648 96.5925C71.8489 95.3046 74.8769 94.4534 76.1573 94.2726L76.1799 94.2877ZM68.2034 122.774C65.9437 120.048 58.5999 115.009 61.7558 106.204C63.5786 101.15 66.6442 98.5434 71.2162 96.9014C71.3895 97.0897 71.5251 97.6546 72.5419 96.9842L72.7905 96.8788C70.5308 98.7317 71.9393 99.7561 72.7905 99.0932L73.6265 98.6036L73.5437 98.6865C72.6474 99.7033 72.8733 100.765 73.5437 100.683C74.5605 100.479 74.5907 99.7561 76.662 98.7392C76.1121 99.4322 75.3363 100.208 75.8561 100.577C77.2194 101.594 78.8689 99.1836 79.7502 98.2722C79.7502 98.4229 79.8632 98.566 80.0891 98.4982C80.6358 98.2154 81.1641 97.8984 81.6709 97.5491C85.7458 95.5004 90.4308 93.9939 98.7614 87.1472C100.448 85.6772 101.964 84.0223 103.281 82.2136C104.523 84.1419 107.634 85.2265 109.849 85.7839C102.158 94.7698 97.1796 105.111 95.7862 105.789C95.3493 105.857 95.4171 106.211 95.5903 106.324C92.3967 106.46 89.8508 109.043 91.071 109.766C91.297 109.887 91.3949 109.849 91.8242 109.872C91.071 110.723 91.3196 111.574 92.0728 111.838C92.826 112.101 93.3005 111.747 93.9257 111.371C93.8207 111.532 93.7648 111.72 93.7648 111.913C93.7648 112.106 93.8207 112.294 93.9257 112.455C94.468 113.118 95.4321 112.772 95.982 112.184C97.6391 110.678 98.9346 110.874 99.6577 110.083C99.5296 110.776 99.0928 110.738 99.3187 111.069C99.7255 111.649 101.013 109.977 107.604 106.264C114.195 102.55 121.765 96.826 126.834 90.7928C128.012 89.239 129.094 87.6139 130.073 85.927C133.59 93.0374 127.956 102.272 121.034 107.544C90.6568 131.353 94.453 125.621 90.7396 128.356C88.2239 130.163 88.7586 133.101 90.9656 133.628C81.0834 135.88 75.615 130.133 68.2034 122.774ZM89.7906 131.459C94.4078 130.917 105.194 129.659 109.879 129.064C111.46 129.909 112.917 130.969 114.21 132.212C112.467 131.753 110.659 131.592 108.862 131.738C100.185 131.594 94.7919 133.139 91.9372 133.244C91.4155 133.288 90.8974 133.125 90.4955 132.789C90.0936 132.453 89.8403 131.973 89.7906 131.451V131.459ZM88.4574 134.773C90.3669 134.563 92.2513 134.167 94.0839 133.591C99.9289 132.913 104.817 132.468 109.404 132.212C115.626 131.964 115.633 134.08 116.183 134.095C117.765 136.249 103.959 134.999 97.1194 136.897C96.0724 137.236 94.2948 138.125 93.7826 139.112C92.3451 137.292 90.5277 135.809 88.4574 134.766V134.773ZM137.123 137.394C129.229 136.219 121.237 137.394 113.314 138.569C112.056 138.75 94.8974 141.266 94.3174 139.767C94.2044 139.473 94.4982 139.089 94.7844 138.84C98.2341 136.069 102.904 136.935 115.347 135.677C116.801 135.413 117.607 134.283 115.746 132.988C114.339 131.28 112.565 129.911 110.557 128.981C123.979 127.354 124.868 127.264 127.346 126.902C131.783 129.076 135.264 132.809 137.123 137.387V137.394ZM89.8433 130.773C90.056 130.071 90.4793 129.45 91.056 128.996C97.9404 127.821 123.565 121.351 131.73 113.804C134.064 112.945 136.063 111.361 137.431 109.284C137.507 109.284 139.096 108.742 139.849 110.12C140.934 112.817 138.908 118.006 141.529 122.503C131.157 126.955 122.307 127.173 89.8433 130.766V130.773ZM142.568 119.129C141.992 118.712 141.373 118.356 140.723 118.067C140.64 117.17 140.595 116.274 140.587 115.37C142.599 116.59 143.058 117.276 142.546 119.121L142.568 119.129Z" fill="black"/>
<path id="Vector_2" d="M116.59 28.1855C115.897 26.5962 113.773 26.4833 113.186 27.4323C113.773 27.2852 114.386 27.2767 114.977 27.4074C115.568 27.5382 116.12 27.8046 116.59 28.1855ZM108.373 28.8634C108.568 28.4213 108.905 28.0572 109.331 27.8292C109.757 27.6012 110.247 27.5225 110.723 27.6056C110.496 27.4519 110.231 27.3633 109.957 27.3492C109.683 27.335 109.41 27.396 109.168 27.5255C108.926 27.6549 108.725 27.8479 108.584 28.0837C108.444 28.3195 108.371 28.5891 108.373 28.8634ZM111.71 29.9104C111.552 30.7099 111.461 31.5211 111.438 32.3358C111.265 33.4957 111.823 34.2113 112.945 33.7367C111.167 33.7819 112.086 33.0438 111.71 29.9104ZM114.609 34.859C114.135 34.859 113.796 34.6933 113.668 34.8214C113.54 34.9494 113.668 34.9343 113.532 35.0097C113.397 35.085 113.321 35.0097 113.208 35.0097C113.095 35.0097 112.885 35.3411 112.757 35.5369C112.608 35.5446 112.46 35.5446 112.312 35.5369C112.424 35.5899 112.54 35.6352 112.659 35.6725L112.907 35.7177C113.036 35.8933 113.218 36.0219 113.426 36.0839C113.635 36.1459 113.858 36.1378 114.061 36.0608C114.265 35.9839 114.437 35.8424 114.553 35.658C114.668 35.4735 114.72 35.2564 114.7 35.0398C114.747 34.9746 114.789 34.9067 114.828 34.8364C114.908 34.676 114.959 34.5026 114.979 34.3242C114.883 34.5201 114.759 34.7005 114.609 34.859ZM114.896 47.8595C114.976 47.7864 115.036 47.6936 115.07 47.5902C115.104 47.4868 115.11 47.3764 115.088 47.2699C115.065 47.1634 115.016 47.0645 114.944 46.983C114.872 46.9015 114.78 46.8401 114.677 46.805C114.729 46.7301 114.764 46.645 114.781 46.5553C114.797 46.4657 114.794 46.3736 114.772 46.2851C114.75 46.1967 114.709 46.114 114.653 46.0426C114.596 45.9712 114.525 45.9127 114.444 45.871C114.545 45.8181 114.629 45.7385 114.688 45.6409C114.747 45.5433 114.778 45.4315 114.778 45.3174C114.778 45.2034 114.747 45.0915 114.688 44.994C114.629 44.8964 114.545 44.8168 114.444 44.7638C114.552 44.7226 114.646 44.6526 114.717 44.5615C114.788 44.4704 114.833 44.3616 114.846 44.247C114.86 44.1323 114.842 44.0161 114.794 43.911C114.746 43.8059 114.67 43.7159 114.575 43.6507C114.48 43.5855 114.368 43.5476 114.253 43.5411C114.138 43.5347 114.023 43.5599 113.921 43.614C113.819 43.6682 113.734 43.7492 113.675 43.8483C113.615 43.9474 113.584 44.0609 113.585 44.1763C113.584 44.2888 113.613 44.3994 113.67 44.4963C113.728 44.5932 113.81 44.6727 113.909 44.7262C113.796 44.7711 113.698 44.8478 113.627 44.947C113.556 45.0461 113.516 45.1636 113.51 45.2853C113.505 45.407 113.534 45.5277 113.596 45.633C113.657 45.7382 113.748 45.8235 113.856 45.8786C113.745 45.9333 113.653 46.0196 113.591 46.1266C113.53 46.2337 113.501 46.3566 113.509 46.4799C113.517 46.6033 113.562 46.7214 113.637 46.8195C113.712 46.9176 113.815 46.9912 113.932 47.031C113.857 47.1376 113.818 47.2645 113.818 47.3943C113.819 47.5241 113.859 47.6507 113.934 47.7568C114.009 47.8629 114.115 47.9434 114.237 47.9874C114.359 48.0314 114.492 48.0367 114.617 48.0026C114.505 48.1066 114.434 48.248 114.419 48.4003C114.404 48.5526 114.446 48.7051 114.536 48.8289C114.625 48.9527 114.758 49.0393 114.907 49.0722C115.057 49.105 115.213 49.082 115.346 49.0073C115.48 48.9327 115.582 48.8116 115.632 48.6671C115.682 48.5226 115.678 48.3647 115.619 48.2232C115.561 48.0818 115.453 47.9666 115.315 47.8996C115.178 47.8326 115.02 47.8183 114.873 47.8595H114.896ZM116.319 49.8254C116.474 49.8085 116.617 49.7349 116.721 49.6188C116.825 49.5027 116.883 49.3524 116.883 49.1965C116.883 49.0406 116.825 48.8902 116.721 48.7742C116.617 48.6581 116.474 48.5845 116.319 48.5676C116.164 48.5845 116.021 48.6581 115.917 48.7742C115.813 48.8902 115.755 49.0406 115.755 49.1965C115.755 49.3524 115.813 49.5027 115.917 49.6188C116.021 49.7349 116.164 49.8085 116.319 49.8254ZM117.848 49.8631C118.003 49.8461 118.146 49.7725 118.25 49.6565C118.354 49.5404 118.412 49.39 118.412 49.2342C118.412 49.0783 118.354 48.9279 118.25 48.8118C118.146 48.6958 118.003 48.6222 117.848 48.6052C117.693 48.6222 117.55 48.6958 117.446 48.8118C117.342 48.9279 117.284 49.0783 117.284 49.2342C117.284 49.39 117.342 49.5404 117.446 49.6565C117.55 49.7725 117.693 49.8461 117.848 49.8631ZM119.874 48.9592C119.884 48.8709 119.875 48.7814 119.848 48.6968C119.821 48.6122 119.776 48.5342 119.717 48.468C119.657 48.4018 119.585 48.3488 119.503 48.3126C119.422 48.2763 119.334 48.2576 119.245 48.2576C119.157 48.2576 119.069 48.2763 118.987 48.3126C118.906 48.3488 118.834 48.4018 118.774 48.468C118.715 48.5342 118.67 48.6122 118.643 48.6968C118.616 48.7814 118.607 48.8709 118.617 48.9592C118.617 49.126 118.683 49.286 118.801 49.404C118.919 49.5219 119.079 49.5882 119.245 49.5882C119.412 49.5882 119.572 49.5219 119.69 49.404C119.808 49.286 119.874 49.126 119.874 48.9592ZM120.575 48.9592C120.73 48.9423 120.873 48.8687 120.977 48.7526C121.081 48.6366 121.139 48.4862 121.139 48.3303C121.139 48.1744 121.081 48.024 120.977 47.908C120.873 47.7919 120.73 47.7183 120.575 47.7014C120.42 47.7183 120.277 47.7919 120.173 47.908C120.069 48.024 120.011 48.1744 120.011 48.3303C120.011 48.4862 120.069 48.6366 120.173 48.7526C120.277 48.8687 120.42 48.9423 120.575 48.9592ZM121.893 48.0629C122.048 48.0459 122.191 47.9724 122.295 47.8563C122.399 47.7402 122.457 47.5898 122.457 47.434C122.457 47.2781 122.399 47.1277 122.295 47.0117C122.191 46.8956 122.048 46.822 121.893 46.805C121.738 46.822 121.595 46.8956 121.491 47.0117C121.387 47.1277 121.329 47.2781 121.329 47.434C121.329 47.5898 121.387 47.7402 121.491 47.8563C121.595 47.9724 121.738 48.0459 121.893 48.0629ZM123.723 46.5113C123.706 46.3563 123.633 46.2131 123.517 46.1091C123.401 46.005 123.25 45.9475 123.094 45.9475C122.939 45.9475 122.788 46.005 122.672 46.1091C122.556 46.2131 122.482 46.3563 122.465 46.5113C122.482 46.6662 122.556 46.8094 122.672 46.9135C122.788 47.0175 122.939 47.0751 123.094 47.0751C123.25 47.0751 123.401 47.0175 123.517 46.9135C123.633 46.8094 123.706 46.6662 123.723 46.5113ZM124.718 45.4492C124.718 45.2827 124.652 45.1229 124.535 45.0045C124.418 44.8861 124.259 44.8185 124.092 44.8165C123.925 44.8185 123.765 44.8858 123.647 45.004C123.529 45.1223 123.462 45.2821 123.46 45.4492C123.477 45.6042 123.55 45.7474 123.666 45.8514C123.782 45.9555 123.933 46.013 124.089 46.013C124.245 46.013 124.395 45.9555 124.511 45.8514C124.627 45.7474 124.701 45.6042 124.718 45.4492ZM125.584 44.1763C125.567 44.0214 125.493 43.8782 125.377 43.7741C125.261 43.6701 125.111 43.6125 124.955 43.6125C124.799 43.6125 124.649 43.6701 124.533 43.7741C124.416 43.8782 124.343 44.0214 124.326 44.1763C124.343 44.3313 124.416 44.4745 124.533 44.5785C124.649 44.6825 124.799 44.7401 124.955 44.7401C125.111 44.7401 125.261 44.6825 125.377 44.5785C125.493 44.4745 125.567 44.3313 125.584 44.1763ZM126.382 42.9335C126.365 42.7786 126.292 42.6353 126.176 42.5313C126.06 42.4273 125.909 42.3697 125.753 42.3697C125.597 42.3697 125.447 42.4273 125.331 42.5313C125.215 42.6353 125.141 42.7786 125.124 42.9335C125.141 43.0884 125.215 43.2317 125.331 43.3357C125.447 43.4397 125.597 43.4973 125.753 43.4973C125.909 43.4973 126.06 43.4397 126.176 43.3357C126.292 43.2317 126.365 43.0884 126.382 42.9335ZM116.553 28.9237C116.573 28.9026 116.585 28.8742 116.585 28.8446C116.585 28.815 116.573 28.7866 116.553 28.7655C116.541 28.7601 116.528 28.7573 116.515 28.7573C116.502 28.7573 116.489 28.7601 116.477 28.7655C116.317 28.8363 116.144 28.8728 115.969 28.8728C115.794 28.8728 115.621 28.8363 115.461 28.7655C115.343 28.6999 115.21 28.6655 115.075 28.6655C114.941 28.6655 114.808 28.7 114.69 28.7657C114.573 28.8313 114.474 28.926 114.403 29.0406C114.332 29.1553 114.292 29.2862 114.286 29.4208C114.291 29.4413 114.304 29.4593 114.321 29.4721C114.338 29.4849 114.358 29.4918 114.38 29.4918C114.401 29.4918 114.422 29.4849 114.439 29.4721C114.456 29.4593 114.468 29.4413 114.474 29.4208V29.4585C114.483 29.3814 114.508 29.307 114.547 29.2397C114.586 29.1724 114.638 29.1136 114.7 29.0668C114.7 29.0668 114.76 29.9707 114.76 29.9933C114.76 30.3548 115.348 30.3548 115.325 29.9933C115.257 29.0216 115.28 29.0442 115.227 28.9613C115.4 28.9613 115.558 29.1195 115.739 29.1496C115.883 29.1767 116.031 29.1704 116.172 29.1313C116.313 29.0921 116.443 29.0211 116.553 28.9237ZM109.57 29.2476C109.247 29.2476 108.817 29.5865 108.584 29.4208C108.584 29.4208 108.493 29.4208 108.523 29.4961C108.719 29.7447 108.968 29.6694 109.224 29.4961C109.196 29.8244 109.196 30.1545 109.224 30.4828C109.217 30.5238 109.22 30.5657 109.231 30.6057C109.242 30.6457 109.261 30.6828 109.288 30.7144C109.315 30.7461 109.349 30.7715 109.386 30.7889C109.424 30.8063 109.465 30.8153 109.506 30.8153C109.548 30.8153 109.589 30.8063 109.627 30.7889C109.664 30.7715 109.698 30.7461 109.725 30.7144C109.751 30.6828 109.771 30.6457 109.782 30.6057C109.793 30.5657 109.796 30.5238 109.789 30.4828V29.6166C110.316 29.9481 110.083 29.2325 109.57 29.2476ZM134.54 120.108C128.175 120.989 121.833 121.991 115.152 122.993H115.084V123.196H115.174C121.584 122.307 127.843 121.532 134.276 120.5C134.411 120.454 134.538 120.388 134.653 120.304C134.667 120.28 134.675 120.253 134.675 120.225C134.675 120.197 134.667 120.169 134.653 120.146C134.641 120.127 134.624 120.113 134.603 120.106C134.582 120.099 134.56 120.1 134.54 120.108ZM95.1162 113.638C94.7622 113.156 87.456 115.898 81.0913 113.773C76.9486 112.395 73.0168 108.667 73.5591 103.439V103.357H73.4537L73.3558 103.259V103.409C72.6478 109.141 76.9486 115.22 86.3939 115.22C89.3054 115.088 92.1943 114.643 95.0107 113.894C95.1539 113.894 95.199 113.736 95.1162 113.638Z" fill="black"/>
<path id="Vector_3" d="M91.1391 110.67C90.883 110.377 85.5653 111.423 82.2662 108.26C80.0066 106.136 80.112 102.859 82.447 98.5058V98.3853H82.3792V98.3401H82.2813C81.9197 99.357 78.1536 104.494 81.1665 108.215C83.9911 111.657 91.7417 111.393 91.1391 110.67ZM36.9075 115.37C36.9075 112.689 33.8947 112.049 31.2132 111.649C26.3474 110.542 21.1126 110.226 16.6837 112.621C16.1229 112.937 15.6494 113.388 15.3053 113.932C15.0049 114.506 14.8743 115.154 14.9287 115.8C15.0408 117.048 15.3723 118.267 15.9079 119.4C20.6155 130.374 36.561 126.864 36.9075 115.37ZM15.3354 115.37C18.4839 117.381 23.0333 118.315 26.3625 118.556C28.2927 118.712 30.2328 118.423 32.0342 117.713C33.8407 117.031 35.4376 115.888 36.6665 114.399C35.5894 116.073 33.9783 117.333 32.0945 117.976V118.022C30.2182 118.565 28.2701 118.819 26.3173 118.775C22.6943 118.775 18.16 117.788 15.358 115.378L15.3354 115.37ZM25.9708 94.107C27.4773 94.913 28.0346 92.917 29.9629 89.761L30.106 89.535C33.3222 84.5261 35.3182 83.6976 35.4312 82.146V82.033C35.3923 81.8383 35.3079 81.6556 35.1848 81.4998C35.0618 81.344 34.9036 81.2196 34.7232 81.1367C33.2852 80.5106 31.7621 80.1019 30.2039 79.924C25.3381 79.0352 21.4892 79.8035 18.7776 81.3174C18.5938 81.4173 18.4435 81.5692 18.3457 81.7541C18.2479 81.939 18.2068 82.1487 18.2278 82.3569C18.2201 82.3992 18.2201 82.4426 18.2278 82.4849C23.2894 85.3095 29.9478 85.7463 35.3333 82.0179C30.3319 85.9346 23.3647 85.6861 18.2278 82.5075L18.3633 82.741L18.2504 82.5753C18.4688 83.0875 21.09 86.2585 22.0164 87.539C24.7732 91.4407 25.4436 93.7154 25.9708 94.107ZM25.2327 100.652C25.2235 100.904 25.2693 101.154 25.3669 101.385C25.4644 101.617 25.6114 101.824 25.7976 101.993C25.9941 102.151 26.2386 102.237 26.4905 102.237C26.7425 102.237 26.987 102.151 27.1835 101.993C28.6146 100.675 26.4303 97.022 26.5508 96.4571C26.2119 97.9183 25.2402 99.1461 25.2327 100.652Z" fill="black"/>
<path id="Vector_4" d="M48.4243 62.2157C48.5493 61.407 48.5493 60.5839 48.4243 59.7752C50.8045 56.1899 9.79188 56.1975 4.51937 58.8262H4.43652C3.54772 58.9467 3.76615 60.762 3.81135 62.2157C3.92433 63.1421 6.32709 63.7221 7.29874 63.8803V126.397C5.40063 126.992 3.32929 128.175 3.88667 130.088C3.88667 131.707 3.63057 132.348 4.18042 132.98L4.27834 133.123C5.70192 135.338 9.09892 135.925 11.8632 136.46C19.8172 137.967 32.9533 138.306 43.7017 135.489C48.3641 134.283 48.7407 133.282 48.4319 129.267C48.4319 127.761 46.2551 126.721 45.0499 126.352V63.7221C46.8802 63.4133 48.4243 62.9614 48.4243 62.2157ZM42.5116 125.667C41.3592 125.403 38.1731 124.846 36.629 124.657C40.2745 120.665 41.1483 115.076 39.0694 109.126L38.9112 108.749C35.4916 99.7108 27.3418 98.2797 30.4903 93.9035C33.2847 89.7156 36.5913 88.6912 39.4837 81.6788C41.9919 75.2689 39.3632 68.0004 35.4841 64.7841C39.1974 64.5431 41.1483 64.2268 42.5116 64.0309V125.667ZM9.83708 64.2343C12.0679 64.5667 14.3164 64.768 16.5708 64.8369C8.53401 72.3088 12.0515 82.5751 19.7795 90.9659C20.7662 92.043 22.6342 93.9788 22.9958 95.44C23.1087 97.4135 21.4441 98.1592 19.9829 99.7936C13.0382 106.957 9.03867 116.884 15.2979 124.612C13.4561 124.863 11.6322 125.23 9.83708 125.712V64.2343ZM20.3821 100.118C21.3613 98.9952 22.5514 98.2571 23.2217 96.9088C24.8713 93.5947 18.3183 91.1316 13.8065 81.7315C13.8065 81.6486 8.92568 72.015 17.0303 64.8519C22.5137 64.9574 28.3285 65.2135 35.1075 64.8067C41.4646 69.8834 42.5869 80.8427 33.8119 89.6629L33.5333 89.9491C23.8469 99.0479 34.3919 97.4813 38.6928 108.832L38.8585 109.269C41.5098 116.801 39.2125 123.317 33.586 126.962C32.5419 127.659 31.4097 128.214 30.2191 128.612H30.1287C17.5726 132.83 3.54772 117.118 20.3369 100.118H20.3821ZM23.2895 57.5457L28.1327 57.6587C30.2342 57.6587 48.2436 57.4855 48.2436 59.5643C48.2436 61.4926 26.1593 63.3304 8.76751 61.1988C4.82819 60.6942 4.56456 59.9937 4.35366 59.9184C1.5065 57.9977 19.7494 57.5081 23.2895 57.5457ZM9.55085 64.1966V128.499C9.55085 128.86 8.98594 129.033 8.6244 128.981C7.63768 128.981 7.57743 128.484 7.57743 128.484V63.9255L9.55085 64.1966ZM47.9649 128.664C48.0856 128.931 48.1374 129.224 48.1155 129.516C47.1062 136.084 15.087 134.268 16.8269 134.291C3.90173 133.304 4.70767 129.809 4.3386 129.772C4.13523 128.092 5.73205 127.437 7.35146 126.924C7.35146 128.589 6.97485 129.297 8.67712 129.297C8.86739 129.317 9.05971 129.296 9.24146 129.237C9.4232 129.177 9.59025 129.08 9.73163 128.951C9.83882 128.825 9.89523 128.664 9.8898 128.499V126.171C11.7767 125.67 13.6938 125.29 15.6293 125.034C21.2709 131.738 30.543 131.06 36.2373 125.094C37.6383 125.26 40.7566 125.802 42.5116 126.209C42.5493 128.574 42.0672 129.32 43.8373 129.32C44.3494 129.372 45.0801 129.094 45.0499 128.521V126.864C46.0366 127.135 47.4527 127.745 47.9272 128.664H47.9649ZM44.8014 128.491C44.8014 128.853 44.2365 129.033 43.8749 128.981C42.8882 128.981 42.8279 128.484 42.8279 128.484V64.0234C43.4079 63.9481 43.9879 63.8878 44.8014 63.7598V128.491Z" fill="black"/>
<path id="Vector_5" d="M34.0679 67.1116C38.7378 72.7682 36.5761 77.7545 37.6231 77.7545C37.6847 77.7564 37.7451 77.7374 37.7943 77.7004C37.8436 77.6634 37.8789 77.6108 37.8942 77.5511C39.5438 72.2786 34.6629 66.1625 34.083 66.8555C34.0507 66.8903 34.0327 66.936 34.0327 66.9835C34.0327 67.031 34.0507 67.0767 34.083 67.1116H34.0679ZM36.5987 79.2609L36.4481 79.5547C36.2447 79.9464 36.8322 80.3079 37.028 79.9012L37.1862 79.5999C37.3971 79.2157 36.7945 78.8617 36.5987 79.2609ZM29.4657 93.0599C29.526 92.9544 29.398 92.7887 29.285 92.8791V92.9243C26.7918 94.8374 28.3886 98.2495 29.993 100.117C32.4786 102.987 36.0187 105.39 37.9093 112.116C37.9167 112.161 37.9411 112.202 37.9775 112.23C38.0138 112.258 38.0595 112.271 38.1051 112.267C38.1499 112.259 38.1899 112.235 38.2167 112.198C38.2434 112.162 38.2548 112.116 38.2482 112.071C38.2407 103.469 25.4059 99.5676 29.4657 93.0599Z" fill="black"/>
</g>
</g>
</svg>
