<svg width="151" height="151" viewBox="0 0 151 151" fill="none" xmlns="http://www.w3.org/2000/svg">
<g id="Change-Setting-3--Streamline-Milano">
<g id="Change-Setting-3--Streamline-Milano.svg">
<path id="Vector" d="M38.0159 90.8076C38.1957 90.8076 38.3681 90.7362 38.4952 90.6091C38.6224 90.4819 38.6938 90.3095 38.6938 90.1297C38.6938 89.95 38.6224 89.7775 38.4952 89.6504C38.3681 89.5233 38.1957 89.4518 38.0159 89.4518C37.8361 89.4518 37.6637 89.5233 37.5365 89.6504C37.4094 89.7775 37.338 89.95 37.338 90.1297C37.338 90.3095 37.4094 90.4819 37.5365 90.6091C37.6637 90.7362 37.8361 90.8076 38.0159 90.8076ZM43.2131 87.6968C43.2276 87.6004 43.2211 87.5019 43.1941 87.4082C43.167 87.3145 43.1201 87.2277 43.0565 87.1538C42.9928 87.0799 42.914 87.0206 42.8253 86.9799C42.7366 86.9392 42.6403 86.9182 42.5427 86.9182C42.4452 86.9182 42.3488 86.9392 42.2601 86.9799C42.1715 87.0206 42.0926 87.0799 42.029 87.1538C41.9653 87.2277 41.9184 87.3145 41.8914 87.4082C41.8643 87.5019 41.8579 87.6004 41.8724 87.6968C41.8579 87.7933 41.8643 87.8918 41.8914 87.9855C41.9184 88.0792 41.9653 88.166 42.029 88.2399C42.0926 88.3138 42.1715 88.3731 42.2601 88.4138C42.3488 88.4545 42.4452 88.4755 42.5427 88.4755C42.6403 88.4755 42.7366 88.4545 42.8253 88.4138C42.914 88.3731 42.9928 88.3138 43.0565 88.2399C43.1201 88.166 43.167 88.0792 43.1941 87.9855C43.2211 87.8918 43.2276 87.7933 43.2131 87.6968ZM31.6361 88.6836C31.8546 88.6836 32.5626 88.2015 32.5777 87.9831C32.5927 87.7646 31.8244 86.921 31.6361 86.9135C31.2798 87.0656 30.9685 87.3069 30.7323 87.614C30.7097 87.8776 31.4629 88.661 31.6361 88.6836ZM26.6197 52.4689C26.66 52.8137 26.7409 53.1525 26.8608 53.4782C26.897 53.5143 26.942 53.5402 26.9914 53.5535C27.0407 53.5668 27.0927 53.567 27.1421 53.554C27.1916 53.5411 27.2368 53.5155 27.2733 53.4798C27.3098 53.444 27.3364 53.3993 27.3503 53.3502C27.3955 53.177 27.0114 52.4614 26.9737 52.3484C26.9538 52.3069 26.9194 52.274 26.8769 52.2562C26.8344 52.2383 26.7869 52.2367 26.7432 52.2515C26.6996 52.2664 26.6629 52.2967 26.6402 52.3368C26.6174 52.3768 26.6101 52.4239 26.6197 52.4689ZM26.1829 52.8079C26.1829 52.597 26.3712 51.9115 26.7779 51.8136C26.8371 51.7895 26.8871 51.7472 26.9207 51.6927C26.9543 51.6383 26.9697 51.5746 26.9646 51.5109C26.9596 51.4471 26.9344 51.3866 26.8927 51.3382C26.851 51.2897 26.795 51.2557 26.7327 51.2412C26.6577 51.2114 26.5742 51.2114 26.4992 51.2412C26.2529 51.416 26.0599 51.6557 25.9416 51.9336C25.8233 52.2115 25.7842 52.5167 25.8288 52.8154C25.8381 52.856 25.8611 52.8921 25.8939 52.9177C25.9267 52.9433 25.9673 52.9568 26.0089 52.9559C26.0505 52.955 26.0905 52.9398 26.1222 52.9128C26.1539 52.8859 26.1753 52.8488 26.1829 52.8079ZM51.973 14.2206C54.1381 12.713 56.7288 11.9378 59.3661 12.0083C62.0035 12.0787 64.5491 12.9912 66.6306 14.6123C66.9394 14.8684 67.3838 14.4089 67.0448 14.1453C64.8973 12.3189 62.201 11.2624 59.3844 11.1437C56.5677 11.0249 53.7921 11.8508 51.4985 13.49C51.0691 13.8289 51.5211 14.552 51.973 14.2206ZM62.0058 17.7005C58.5034 17.6101 53.9991 18.9433 51.9052 22.8073C51.877 22.8567 51.8588 22.9113 51.8517 22.9677C51.8446 23.0242 51.8487 23.0815 51.8637 23.1364C51.8787 23.1914 51.9044 23.2428 51.9394 23.2877C51.9743 23.3327 52.0177 23.3704 52.0671 23.3985C52.1166 23.4267 52.1711 23.4449 52.2276 23.452C52.2841 23.4591 52.3414 23.4551 52.3963 23.44C52.4512 23.425 52.5026 23.3993 52.5476 23.3644C52.5926 23.3295 52.6302 23.2861 52.6584 23.2366C53.8625 21.3802 55.6599 19.9863 57.7577 19.2822C60.8459 18.175 66.4573 18.303 69.5606 20.2614C69.6335 20.3083 69.7221 20.3244 69.8068 20.306C69.8916 20.2877 69.9656 20.2364 70.0125 20.1635C70.0595 20.0906 70.0755 20.002 70.0571 19.9172C70.0388 19.8325 69.9875 19.7585 69.9146 19.7116C67.9487 18.4462 65.4405 17.7909 62.0058 17.7005ZM86.0786 88.8794C83.9414 88.9778 81.8295 88.3836 80.0571 87.1853C78.2848 85.987 76.9466 84.2485 76.2416 82.2285C76.1973 82.1179 76.113 82.0281 76.0055 81.9768C75.898 81.9255 75.7752 81.9165 75.6613 81.9516C75.5475 81.9867 75.4511 82.0633 75.3911 82.1662C75.3312 82.2692 75.3121 82.3909 75.3377 82.5072C76.0703 84.7247 77.5381 86.6256 79.4981 87.8953C81.4582 89.1651 83.793 89.7275 86.1163 89.4895C86.1889 89.4744 86.2537 89.4335 86.2988 89.3745C86.3438 89.3155 86.3661 89.2422 86.3615 89.1682C86.3569 89.0941 86.3258 89.0241 86.2739 88.9711C86.2219 88.918 86.1526 88.8855 86.0786 88.8794ZM77.8384 74.2971C77.3865 78.131 81.6798 83.9458 89.0086 84.5785C89.0452 84.582 89.0821 84.5782 89.1173 84.5674C89.1524 84.5566 89.1851 84.539 89.2134 84.5155C89.2417 84.4921 89.2652 84.4633 89.2824 84.4308C89.2996 84.3984 89.3102 84.3628 89.3137 84.3262C89.3171 84.2896 89.3134 84.2527 89.3026 84.2175C89.2917 84.1824 89.2741 84.1497 89.2507 84.1214C89.2273 84.0931 89.1985 84.0697 89.166 84.0525C89.1335 84.0352 89.0979 84.0246 89.0613 84.0212C84.6475 83.5391 78.5992 79.6224 78.7649 74.3348C78.795 73.7322 77.9062 73.7172 77.8384 74.2971ZM11.0583 82.3565C9.19783 81.769 7.42778 84.0739 8.70824 85.6632C9.00605 86.0113 9.41159 86.2501 9.86053 86.3415C10.3095 86.4329 10.7761 86.3718 11.1863 86.1678C12.6777 85.3242 12.8434 82.9215 11.0583 82.3565ZM10.9227 85.7084C10.6576 85.8301 10.3615 85.8675 10.0745 85.8154C9.78747 85.7634 9.52336 85.6244 9.31792 85.4173C9.11247 85.2102 8.9756 84.945 8.92584 84.6576C8.87607 84.3701 8.9158 84.0744 9.03966 83.8102C9.17203 83.5084 9.39414 83.2547 9.6758 83.0835C9.95746 82.9124 10.285 82.8321 10.6139 82.8537C12.1052 83.0495 12.0902 85.1133 10.9227 85.7084ZM113.88 36.7418C114.014 36.7418 114.146 36.7018 114.257 36.627C114.369 36.5522 114.456 36.4458 114.507 36.3215C114.558 36.1972 114.571 36.0605 114.544 35.9288C114.517 35.7971 114.452 35.6764 114.356 35.5819C114.261 35.4874 114.139 35.4234 114.007 35.3981C113.875 35.3728 113.739 35.3873 113.615 35.4398C113.491 35.4922 113.386 35.5803 113.313 35.6928C113.239 35.8052 113.2 35.937 113.202 36.0714C113.204 36.2499 113.276 36.4204 113.403 36.5459C113.53 36.6714 113.701 36.7418 113.88 36.7418ZM116.486 36.7418C116.58 36.7518 116.676 36.7418 116.766 36.7125C116.857 36.6832 116.94 36.6352 117.011 36.5716C117.081 36.508 117.138 36.4303 117.177 36.3435C117.215 36.2567 117.235 36.1627 117.235 36.0676C117.235 35.9726 117.215 35.8786 117.177 35.7918C117.138 35.705 117.081 35.6273 117.011 35.5637C116.94 35.5001 116.857 35.4521 116.766 35.4228C116.676 35.3935 116.58 35.3835 116.486 35.3935C116.391 35.3835 116.296 35.3935 116.205 35.4228C116.115 35.4521 116.032 35.5001 115.961 35.5637C115.891 35.6273 115.834 35.705 115.795 35.7918C115.757 35.8786 115.737 35.9726 115.737 36.0676C115.737 36.1627 115.757 36.2567 115.795 36.3435C115.834 36.4303 115.891 36.508 115.961 36.5716C116.032 36.6352 116.115 36.6832 116.205 36.7125C116.296 36.7418 116.391 36.7518 116.486 36.7418ZM119.092 36.7418C119.187 36.7518 119.282 36.7418 119.373 36.7125C119.463 36.6832 119.546 36.6352 119.617 36.5716C119.688 36.508 119.744 36.4303 119.783 36.3435C119.821 36.2567 119.841 36.1627 119.841 36.0676C119.841 35.9726 119.821 35.8786 119.783 35.7918C119.744 35.705 119.688 35.6273 119.617 35.5637C119.546 35.5001 119.463 35.4521 119.373 35.4228C119.282 35.3935 119.187 35.3835 119.092 35.3935C118.998 35.3835 118.902 35.3935 118.812 35.4228C118.721 35.4521 118.638 35.5001 118.567 35.5637C118.497 35.6273 118.44 35.705 118.401 35.7918C118.363 35.8786 118.343 35.9726 118.343 36.0676C118.343 36.1627 118.363 36.2567 118.401 36.3435C118.44 36.4303 118.497 36.508 118.567 36.5716C118.638 36.6352 118.721 36.6832 118.812 36.7125C118.902 36.7418 118.998 36.7518 119.092 36.7418Z" fill="black"/>
<path id="Vector_2" d="M146.969 136.136C145.703 134.027 131.731 110.338 131.595 110.105C131.337 109.593 130.974 109.141 130.531 108.778C130.087 108.414 129.572 108.148 129.019 107.996C129.442 107.642 129.771 107.189 129.976 106.678C130.293 105.769 130.408 104.803 130.315 103.846C130.315 103.642 129.712 30.1059 129.712 29.9251C129.801 29.1854 129.625 28.4381 129.215 27.8161C128.868 27.488 128.458 27.2329 128.011 27.066C127.563 26.8991 127.086 26.8238 126.609 26.8444C125.69 26.7766 88.195 27.8311 76.6106 28.1626L76.7462 26.2419C76.7482 26.2202 76.7435 26.1985 76.7327 26.1796C76.7219 26.1607 76.7056 26.1456 76.6859 26.1364L72.5959 24.178C72.574 24.1621 72.5477 24.1535 72.5206 24.1535C72.4935 24.1535 72.4672 24.1621 72.4453 24.178L70.3664 27.3717C68.7299 26.9323 67.0348 26.7518 65.3425 26.8369L62.6987 23.583C62.6803 23.569 62.6578 23.5613 62.6346 23.5613C62.6115 23.5613 62.589 23.569 62.5706 23.583L58.5485 25.0894C58.524 25.0979 58.5032 25.1144 58.4895 25.1364C58.4758 25.1583 58.47 25.1843 58.4731 25.2099L58.7518 28.3207C53.3136 28.3207 24.1039 28.8555 23.5239 28.9233C22.2058 29.0815 21.4902 30.4297 21.3772 31.6048C21.3245 32.358 21.7011 47.4675 21.7312 48.6952C20.7617 49.1691 19.9352 49.8916 19.336 50.7892C18.8868 51.6378 18.706 52.6029 18.8177 53.5566C18.9293 54.5103 19.3281 55.4075 19.9612 56.1295C19.6674 57.2819 20.1269 57.8468 21.0232 58.8185C21.5264 59.4096 21.8688 60.1204 22.0175 60.8823C21.7915 60.9727 21.5655 61.063 21.3471 61.1685C21.0203 61.3556 20.7674 61.649 20.6304 61.9997C20.4933 62.3505 20.4805 62.7376 20.5939 63.0967L20.4282 63.2775C19.9943 63.3283 19.5821 63.495 19.2348 63.76C18.8876 64.0251 18.6181 64.3788 18.4548 64.7839C16.2303 67.0449 14.6898 69.8882 14.0108 72.9865C13.7938 73.8717 13.6801 74.7791 13.6718 75.6905C9.62706 78.8615 5.52956 82.4694 5.27347 85.8062C5.08517 88.1638 6.62926 90.1824 9.00189 90.1824C10.5083 90.0681 11.9616 89.5759 13.2274 88.7513C15.359 87.5386 19.3737 84.5784 20.6466 83.6143C20.8531 84.2153 21.1448 84.7835 21.5128 85.3015C21.6409 89.1505 21.7538 101.119 21.6785 103.085C21.5128 106.098 22.1756 108.003 23.6971 108.998C22.3581 109.376 21.1723 110.167 20.3077 111.257C19.69 112.011 3.64652 136.211 3.65406 136.287C3.7533 136.986 4.0305 137.649 4.45912 138.211C4.88775 138.772 5.45343 139.215 6.10201 139.495H144.023C144.87 139.186 145.612 138.643 146.163 137.929C146.479 137.522 147.097 136.332 146.969 136.136ZM22.2359 92.6454C22.478 95.673 23.1057 98.6573 24.1039 101.526C24.9249 103.785 25.6103 105.149 25.3768 107.009C25.2756 107.634 25.1398 108.253 24.9701 108.862C24.1498 108.6 23.4415 108.069 22.959 107.356C22.3862 106.07 22.1503 104.66 22.2736 103.258C22.3338 102.166 22.2962 97.1647 22.2359 92.6454ZM20.6391 63.8047C21.6597 63.0042 22.7662 62.3195 23.9382 61.7635C23.9836 61.744 24.02 61.7079 24.04 61.6627C24.06 61.6174 24.0621 61.5662 24.0458 61.5194C24.0296 61.4727 23.9963 61.4338 23.9526 61.4106C23.9088 61.3874 23.8579 61.3816 23.8101 61.3945C22.8775 61.7254 21.9794 62.1467 21.1287 62.6523C21.0835 61.8991 21.3396 61.8238 22.0627 61.4999C23.7348 60.5885 28.239 60.3776 28.5328 60.5132C28.6359 60.569 28.7232 60.6502 28.7865 60.749C28.8497 60.8478 28.8868 60.961 28.8943 61.0781C26.7683 61.2103 24.6967 61.804 22.8234 62.818L22.492 62.9837C22.4496 63.0096 22.4186 63.0506 22.4053 63.0985C22.392 63.1464 22.3973 63.1975 22.4203 63.2415C22.4433 63.2856 22.4822 63.3192 22.529 63.3357C22.5759 63.3522 22.6273 63.3502 22.6728 63.3302C22.7255 63.3302 28.2014 60.7994 32.796 61.9066C33.6945 62.058 34.5771 62.2925 35.4322 62.6071C35.4322 62.9385 35.5754 64.1136 35.6206 64.5429C34.5359 64.5429 34.4455 64.5429 34.3552 64.106C34.31 63.9102 34.212 63.7445 34.0087 63.7445C33.4287 63.7445 32.5022 65.2509 32.5022 65.5296C32.5022 65.8083 32.6453 65.8083 32.9617 66.0644C33.357 66.4528 33.794 66.7963 34.2648 67.0888C34.3173 67.1024 34.3722 67.104 34.4254 67.0934C34.4787 67.0829 34.5288 67.0605 34.5722 67.028C34.6157 66.9954 34.6512 66.9535 34.6762 66.9054C34.7012 66.8572 34.715 66.8041 34.7167 66.7498C35.1159 66.8628 35.7637 66.9758 36.0273 67.021C35.952 68.7534 35.9294 72.2031 35.9595 72.8207C34.4003 73.574 31.6963 72.5044 30.7774 72.0148C30.7355 72.0002 30.6899 72.0009 30.6485 72.0166C30.6071 72.0324 30.5726 72.0622 30.551 72.1009C30.5295 72.1395 30.5222 72.1846 30.5305 72.2281C30.5389 72.2716 30.5623 72.3107 30.5966 72.3387C32.2461 73.2576 34.3627 74.1991 36.2231 73.2877C36.4464 73.3728 36.679 73.4309 36.9161 73.461C36.9613 73.6267 39.1757 81.5355 39.5448 82.8837C38.2417 83.5164 34.2271 85.3919 32.6755 86.0623C32.5214 85.8882 32.3239 85.7582 32.103 85.6857C29.0902 81.076 23.0117 73.9807 21.0684 68.3617C20.6692 67.1114 19.6825 64.7764 20.6391 63.8047ZM22.6426 57.3196C22.7104 56.9279 22.7782 56.5211 22.8008 56.4609C22.8079 56.442 22.8099 56.4216 22.8064 56.4017C22.803 56.3818 22.7943 56.3632 22.7812 56.3478C22.7681 56.3324 22.7512 56.3209 22.7321 56.3142C22.713 56.3076 22.6925 56.3063 22.6728 56.3102C22.4561 56.3787 22.2248 56.3862 22.0042 56.3317C21.7836 56.2772 21.5823 56.1629 21.4224 56.0014C21.3226 55.872 21.2563 55.7199 21.2292 55.5587C21.2022 55.3975 21.2154 55.2321 21.2675 55.0772C21.3196 54.9223 21.4092 54.7826 21.5281 54.6706C21.6471 54.5585 21.7919 54.4775 21.9497 54.4347C22.2158 54.4298 22.4789 54.4921 22.7146 54.6158C22.9503 54.7396 23.1509 54.9208 23.2979 55.1428C23.3068 55.1567 23.3191 55.1681 23.3336 55.176C23.348 55.1839 23.3643 55.188 23.3808 55.188H24.2395C24.2564 55.1883 24.2732 55.1848 24.2886 55.1778C24.304 55.1708 24.3177 55.1603 24.3285 55.1473C24.3394 55.1343 24.3472 55.119 24.3513 55.1026C24.3554 55.0861 24.3558 55.069 24.3524 55.0524V54.8641C24.1176 54.047 24.0968 53.1833 24.2922 52.3559C26.2355 51.5499 26.1978 50.4276 26.8079 50.3222C26.9644 50.3156 27.1203 50.3447 27.2639 50.4074C27.4074 50.47 27.5348 50.5645 27.6365 50.6837C28.3897 51.6026 28.0959 52.1148 28.593 52.6572C28.8395 52.8972 29.1012 53.1211 29.3764 53.3275C29.5044 53.4179 29.527 53.3953 28.9395 54.4573C27.3954 54.2992 27.772 56.0316 26.3108 55.783C26.291 55.779 26.2705 55.7804 26.2515 55.787C26.2324 55.7936 26.2154 55.8052 26.2024 55.8206C26.1893 55.836 26.1806 55.8545 26.1771 55.8744C26.1737 55.8943 26.1756 55.9148 26.1828 55.9336C26.2672 56.2113 26.4209 56.463 26.6294 56.6649C26.838 56.8667 27.0945 57.0122 27.3748 57.0876C27.6551 57.1629 27.9499 57.1657 28.2316 57.0956C28.5133 57.0255 28.7724 56.8848 28.9847 56.6869C29.0659 57.3446 28.9433 58.0115 28.6335 58.5974C28.3237 59.1833 27.8416 59.6601 27.2523 59.9633C26.0372 60.0387 24.8275 60.1846 23.6294 60.4002C23.2452 60.4906 22.8761 60.596 22.5071 60.7015C22.4235 60.3076 22.305 59.9219 22.153 59.5491C22.3719 58.8192 22.5355 58.0739 22.6426 57.3196ZM67.7904 47.5127C67.1378 47.4913 66.4959 47.3411 65.9016 47.0705C65.3073 46.7999 64.7725 46.4144 64.3279 45.9362C63.8833 45.458 63.5377 44.8966 63.3111 44.2842C63.0845 43.6718 62.9813 43.0206 63.0075 42.3682C63.1355 35.5365 72.4453 35.5365 72.5733 42.3682C72.5995 43.0206 72.4963 43.6718 72.2697 44.2842C72.0431 44.8966 71.6975 45.458 71.2529 45.9362C70.8083 46.4144 70.2735 46.7999 69.6792 47.0705C69.085 47.3411 68.443 47.4913 67.7904 47.5127ZM34.2346 66.5163C33.8957 66.2828 33.1801 65.6577 33.0069 65.5296C33.234 65.0677 33.5341 64.6455 33.8957 64.2793C33.892 64.352 33.892 64.4249 33.8957 64.4977C33.9421 64.6061 34.0133 64.7021 34.1035 64.778C34.1938 64.8539 34.3006 64.9075 34.4154 64.9346C34.3207 65.0024 34.25 65.0985 34.2135 65.209C34.1769 65.3196 34.1764 65.4389 34.212 65.5497C34.2476 65.6606 34.3175 65.7573 34.4116 65.8259C34.5056 65.8945 34.6191 65.9315 34.7355 65.9315C34.852 65.9315 34.9654 65.8945 35.0595 65.8259C35.1536 65.7573 35.2234 65.6606 35.259 65.5497C35.2946 65.4389 35.2941 65.3196 35.2576 65.209C35.221 65.0985 35.1503 65.0024 35.0556 64.9346C35.4021 64.9346 35.8992 64.8668 36.5621 64.7915C36.5933 64.7847 36.6215 64.7677 36.642 64.7432C36.6624 64.7186 36.6741 64.6879 36.6751 64.6559C36.6702 64.6264 36.6558 64.5993 36.634 64.5789C36.6122 64.5585 36.5843 64.5458 36.5545 64.5429H35.9972C35.9634 63.8805 35.9634 63.2168 35.9972 62.5544C36.2505 62.467 36.522 62.446 36.7857 62.4935C37.0495 62.541 37.2966 62.6553 37.5036 62.8256C37.7564 63.2496 37.8696 63.7422 37.8275 64.2341C38.0007 73.4685 37.9405 72.8659 37.8275 72.8961C37.4096 72.9452 36.9875 72.9452 36.5696 72.8961C36.3361 72.5421 36.4416 68.5651 36.3888 67.0436C36.7151 67.0582 37.042 67.0557 37.368 67.036C37.41 67.036 37.4502 67.0194 37.4799 66.9897C37.5095 66.9601 37.5262 66.9198 37.5262 66.8779C37.5262 66.8359 37.5095 66.7957 37.4799 66.766C37.4502 66.7364 37.41 66.7197 37.368 66.7197C36.4265 66.7226 35.4924 66.5542 34.6112 66.2226C34.4079 66.1322 34.2874 66.2828 34.2346 66.5163ZM119.762 118.933L131.143 118.79C131.897 120.145 134.36 124.22 135.098 125.44C131.467 125.395 127.761 125.38 123.8 125.365C123.476 124.778 119.905 119.121 119.762 118.933ZM109.134 125.395L95.6745 125.471C95.3129 123.49 94.9213 121.531 94.4241 119.226L106.664 119.091C107.123 120.341 108.78 124.499 109.157 125.395H109.134ZM107.108 118.443C106.641 117.072 105.338 112.832 104.984 111.664L114.384 111.581C115.891 113.841 117.352 116.251 118.648 118.36L107.108 118.443ZM119.017 118.94C119.77 120.153 122.406 124.378 123.069 125.365H109.767C109.647 125.019 107.508 119.467 107.327 119.053L119.017 118.94ZM119.393 118.338C118.58 117.012 115.928 112.794 115.107 111.559L126.873 111.438C127.972 113.276 130.827 118.262 130.827 118.262L119.393 118.338ZM47.0242 63.3528C48.5307 62.2456 50.2555 60.8973 51.5435 59.888C52.2204 60.2534 52.8024 60.772 53.2431 61.4024C53.6838 62.0327 53.9711 62.7574 54.0819 63.5185C54.9707 68.309 50.9259 72.9262 46.1731 72.414C45.2508 72.3284 44.3614 72.0276 43.5765 71.5357C42.7916 71.0438 42.133 70.3746 41.6538 69.5819C43.8683 68.0679 45.3973 66.1096 47.0468 63.3528H47.0242ZM122.105 74.3046L118.753 69.7024C119.431 69.0471 121.668 65.8535 121.909 63.6014H122.067C122.09 65.8083 122.105 69.7401 122.127 74.3046H122.105ZM121.811 55.3687C121.743 54.5025 120.952 50.985 119.823 49.5614L121.758 45.7953C121.804 47.8064 121.947 54.4573 121.969 55.4215L121.811 55.3687ZM107.711 40.8166L107.236 38.5569L121.638 38.346C121.638 39.1746 121.728 42.1648 121.804 45.5468L118.037 40.6885C118.016 40.6678 117.988 40.6562 117.958 40.6562C117.929 40.6562 117.9 40.6678 117.879 40.6885L114.392 43.3173C112.372 42.0098 110.093 41.1566 107.711 40.8166ZM116.185 59.3758C116.32 66.908 110.468 72.9789 103.44 72.9789C96.4126 72.9789 90.5526 66.8779 90.6957 59.421C91.0121 41.3664 115.823 41.3589 116.162 59.3758H116.185ZM119.74 34.241C121.382 34.1958 121.66 36.0563 121.623 37.6907C121.623 37.7811 122.7 37.7359 107.108 37.9544L106.543 35.2729C106.537 35.2477 106.522 35.2252 106.502 35.2089C106.482 35.1926 106.456 35.1833 106.43 35.1825H101.12C101.096 35.1823 101.072 35.1893 101.052 35.2028C101.032 35.2162 101.016 35.2354 101.007 35.2579L100.051 38.0523L85.25 38.2782L84.2934 34.6854C92.5938 34.6477 119.461 34.241 119.717 34.241H119.74ZM122.866 104.049C122.911 100.886 122.73 70.5385 122.677 63.4809L126.187 62.9235C126.33 75.9692 126.632 103.108 126.639 104.011L122.866 104.049ZM70.8033 119.482C70.6074 120.77 69.9672 124.582 69.8618 125.704C68.506 125.704 61.3655 125.809 58.5635 125.855C58.7518 124.973 59.731 119.754 59.7536 119.603L70.8033 119.482ZM59.8666 118.903C60.1453 117.479 60.8985 113.397 61.0943 112.304L71.6845 112.131C71.5188 114.15 71.2627 116.274 70.9313 118.805L59.8666 118.903ZM31.0109 86.7552C31.3498 86.3033 31.7641 86.002 32.1859 86.4163C32.5086 86.8582 32.7744 87.339 32.9768 87.8474C33.0557 88.1108 33.0287 88.3946 32.9014 88.6383C32.4495 89.4668 30.7774 89.2032 30.4309 88.4575C30.4309 88.4575 30.348 88.3144 30.348 88.3069C30.2351 87.8022 30.5288 87.3729 31.0109 86.7552ZM40.3733 112.365C40.7123 114.624 41.1266 116.884 41.5634 119.144C39.6352 119.144 35.1837 119.257 34.9201 119.257C35.9218 117.667 38.7841 113.359 39.4394 112.38L40.3733 112.365ZM38.6409 105.947L39.6729 107.009C39.7406 107.597 39.816 108.207 39.8913 108.809C39.4092 108.809 36.8784 108.9 35.0707 108.99C35.3419 108.071 35.598 107.107 35.8239 106.105L38.6409 105.947ZM39.9591 109.442C40.057 110.195 40.1624 110.949 40.2754 111.702H34.1744C34.4229 111.009 34.664 110.293 34.9276 109.563C38.6409 109.404 38.415 109.472 39.9591 109.457V109.442ZM38.7916 112.387C37.2174 114.541 35.6733 116.854 34.1894 119.272L30.5589 119.332C31.8702 117.094 32.9986 114.754 33.9333 112.334C35.5829 112.387 37.9857 112.402 38.7916 112.402V112.387ZM31.9449 89.6325C32.2913 90.3857 35.0632 95.2666 35.839 96.2684C36.2814 96.8553 36.8185 97.3645 37.4283 97.7748C37.4724 97.7916 37.5209 97.7925 37.5656 97.7775C37.6103 97.7624 37.6484 97.7322 37.6733 97.6922C37.6982 97.6521 37.7085 97.6046 37.7022 97.5579C37.696 97.5111 37.6737 97.468 37.6392 97.4359C36.9708 96.9538 36.3986 96.3508 35.952 95.6583C35.5 95.0105 32.9918 90.4912 32.5324 89.6325C32.9237 89.5047 33.2538 89.2363 33.4588 88.8793C33.5348 88.8461 33.6169 88.829 33.6999 88.829C33.7828 88.829 33.8649 88.8461 33.9409 88.8793C35.3343 89.3764 38.2191 92.9994 39.477 96.3512C39.757 96.9171 39.8161 97.5669 39.6427 98.174C39.6427 98.2267 39.5825 98.2644 39.5599 98.3096C38.8949 98.5915 38.164 98.6803 37.4509 98.5657C36.3662 98.3397 35.6055 97.579 34.0689 95.1611C32.917 93.3436 31.8684 91.4626 30.928 89.5271C31.2615 89.6032 31.6029 89.6386 31.9449 89.6325ZM40.2679 97.9782C40.3535 97.1759 40.1849 96.367 39.7858 95.6658C39.2678 94.4053 38.6216 93.2014 37.8576 92.073C40.0202 91.1988 42.0914 90.114 44.0415 88.8341C44.7161 89.6799 45.3088 90.5878 45.8116 91.5457C46.0092 91.9983 46.1112 92.4868 46.1112 92.9806C46.1112 93.4744 46.0092 93.9629 45.8116 94.4155C44.7718 95.3036 43.6551 96.0976 42.4748 96.7881C41.6689 97.2852 40.9383 97.6995 40.2679 98.0083V97.9782ZM35.952 105.556C36.0725 104.998 36.1252 104.938 36.0574 104.87C32.8412 101.556 28.8793 98.1589 26.1978 92.3893C25.8664 91.5306 26.7477 91.267 27.0791 92.1106C29.6626 96.9689 31.8243 98.9498 38.1137 105.39L35.952 105.556ZM34.5359 119.867L41.6915 119.799C42.1157 121.883 42.5878 123.958 43.1075 126.02C40.0947 125.975 32.9466 125.938 31.0561 125.96C31.636 124.958 34.1367 120.582 34.5359 119.897V119.867ZM50.0974 119.663C53.0123 119.663 59.136 119.58 59.136 119.58C59.0606 119.957 58.0739 125.056 57.9534 125.832C55.4829 125.832 52.6809 125.907 49.7358 125.968C49.9015 123.58 50.0296 121.501 50.0974 119.693V119.663ZM59.2866 118.91C56.1909 118.91 53.1554 118.978 50.1275 119.031C50.2028 117.012 50.2179 114.474 50.1953 112.508C52.8089 112.508 60.1151 112.319 60.552 112.312C60.1227 114.489 59.7084 116.673 59.2866 118.91ZM39.5147 84.7216C39.8774 84.5996 40.262 84.5566 40.6426 84.5956C41.0233 84.6346 41.3912 84.7546 41.7216 84.9475C42.5953 85.3769 43.8607 87.6968 44.034 88.0884C42.0629 89.5823 39.9024 90.8082 37.609 91.734C37.0667 90.9808 34.5962 88.1713 33.5567 88.2315C33.5685 88.0462 33.5376 87.8607 33.4664 87.6892C34.7544 87.1017 38.1815 85.4145 39.5147 84.7216ZM33.8128 119.904C33.0596 121.147 30.7548 125.23 30.4234 125.998L26.1526 126.081C27.5913 124.032 28.9621 122.028 30.2125 119.927L33.8128 119.904ZM47.9733 128.129C47.5692 128.413 47.1017 128.593 46.6118 128.653C46.1219 128.714 45.6247 128.653 45.1638 128.476C45.1638 128.303 45.0659 127.79 45.0282 127.542C46.1663 127.615 47.3068 127.443 48.3725 127.037C48.3725 127.218 48.4177 127.647 48.4177 127.866C48.26 127.936 48.1109 128.025 47.9733 128.129ZM82.1015 119.362C82.2748 120.575 83.0054 124.634 83.2163 125.568C79.0887 125.568 74.9309 125.644 70.4116 125.697C70.6451 124.582 71.3004 120.228 71.4059 119.475L82.1015 119.362ZM95.1246 125.478L83.8264 125.561C83.7285 124.913 82.7719 119.678 82.7192 119.354L93.814 119.241C94.0551 120.439 94.861 124.28 95.1322 125.478H95.1246ZM82.6288 118.699C82.5384 118.699 82.0865 112.628 82.0563 111.973L92.2624 111.815C92.4281 112.643 93.4676 117.675 93.6559 118.594C89.9877 118.609 86.312 118.669 82.6363 118.684L82.6288 118.699ZM94.2961 118.586C94.0023 117.208 93.1286 113.035 92.8725 111.807L104.382 111.657C105.135 114.383 105.798 116.492 106.461 118.436L94.2961 118.586ZM71.4962 118.812C71.677 117.419 72.0837 113.291 72.1741 112.139L81.4462 111.988C81.5441 114.248 81.7324 116.507 82.0111 118.707L71.4962 118.812ZM83.608 52.7249C83.6358 52.7296 83.6644 52.7237 83.6881 52.7084C83.7118 52.693 83.7289 52.6694 83.736 52.6421L84.7604 48.3488C84.7604 48.2433 84.9713 48.4316 81.9584 45.9761C82.3251 44.1649 82.4165 42.3086 82.2296 40.4701L84.783 38.8356C88.2628 38.798 93.9195 38.7226 99.8473 38.6398L99.2749 40.3044C96.5783 40.4023 93.8442 42.1422 93.1587 42.677L88.6394 39.8148C88.6181 39.7977 88.5915 39.7884 88.5641 39.7884C88.5367 39.7884 88.5102 39.7977 88.4888 39.8148L85.1144 44.0931C85.0984 44.1121 85.0897 44.1361 85.0897 44.1609C85.0897 44.1857 85.0984 44.2097 85.1144 44.2287L87.6452 47.9947C86.1388 49.8401 85.2274 53.7794 85.1068 54.7285L79.6686 55.6399C79.6433 55.6435 79.6202 55.6562 79.6036 55.6756C79.587 55.695 79.578 55.7198 79.5782 55.7453L79.0887 61.1836C79.0855 61.2092 79.0913 61.2352 79.105 61.2571C79.1187 61.2791 79.1395 61.2956 79.164 61.3041L84.3612 62.9084C84.1729 65.1681 86.6208 68.5952 87.2836 69.3334L84.3913 73.6493C84.3754 73.6683 84.3666 73.6923 84.3666 73.7171C84.3666 73.7419 84.3754 73.7659 84.3913 73.7849L88.2026 78.3042C88.2245 78.3201 88.2508 78.3287 88.2779 78.3287C88.305 78.3287 88.3313 78.3201 88.3532 78.3042L93.106 75.3892C93.7839 75.9466 96.9173 77.7016 99.2221 77.8296L99.7268 82.944C99.7302 82.97 99.7427 82.994 99.7619 83.0119C99.7811 83.0298 99.806 83.0404 99.8322 83.0419L106.852 83.4562C106.881 83.4562 106.909 83.4454 106.93 83.4258C106.951 83.4062 106.963 83.3793 106.965 83.3507C107.048 81.671 107.131 79.9838 107.221 78.3042C108.14 78.1535 111.801 77.2798 113.247 76.0445L117.503 79.0574C117.523 79.0759 117.55 79.0861 117.578 79.0861C117.606 79.0861 117.633 79.0759 117.653 79.0574L122.127 74.5682C122.188 86.115 122.301 101.571 122.353 104.072C114.113 104.17 62.8493 104.976 49.8187 105.232C49.7099 104.055 49.5084 102.889 49.2161 101.744C48.5767 99.2362 47.657 96.8081 46.4744 94.5058C46.7868 93.5319 46.725 92.4765 46.3012 91.5457C45.7764 90.4974 45.1534 89.5012 44.4407 88.5705C44.544 88.5026 44.6197 88.4 44.6542 88.2813C44.6888 88.1626 44.6798 88.0355 44.629 87.9227C44.4934 87.6591 43.2883 85.3618 42.1886 84.5333C41.5711 84.0798 40.8 83.8877 40.0419 83.9985C40.073 83.6083 40.0527 83.2158 39.9817 82.831C39.7557 82.5448 40.7349 84.8421 37.3981 73.461H37.8727C38.2719 73.461 38.43 73.3028 38.4451 72.9036V71.3972L39.2586 71.0356L40.0118 72.1428L38.1137 74.862C38.0952 74.8827 38.0849 74.9095 38.0849 74.9373C38.0849 74.9651 38.0952 74.9919 38.1137 75.0126L40.6746 77.1065C40.6958 77.1272 40.7241 77.1388 40.7537 77.1388C40.7833 77.1388 40.8117 77.1272 40.8328 77.1065L42.761 74.7188C43.8278 75.3487 45.0334 75.7057 46.271 75.7583L46.8209 78.3192C46.8276 78.3437 46.8425 78.3652 46.863 78.3803C46.8835 78.3953 46.9085 78.403 46.9339 78.4021L50.5493 78.2364C50.5641 78.2354 50.5787 78.2315 50.592 78.225C50.6054 78.2184 50.6173 78.2092 50.6271 78.198C50.6369 78.1868 50.6443 78.1738 50.6491 78.1597C50.6539 78.1456 50.6558 78.1307 50.6547 78.1159L50.5794 75.103C51.9891 74.769 53.2985 74.1027 54.3982 73.1597L56.4319 74.5155C56.4538 74.5314 56.4802 74.54 56.5072 74.54C56.5343 74.54 56.5607 74.5314 56.5826 74.5155L58.7292 72.0751C58.7499 72.0539 58.7615 72.0255 58.7615 71.996C58.7615 71.9664 58.7499 71.938 58.7292 71.9169L56.5524 69.6572C57.2965 68.6759 57.7553 67.5082 57.8781 66.2828L60.2583 65.1831C60.2793 65.1729 60.2969 65.1568 60.309 65.1367C60.321 65.1167 60.3269 65.0935 60.326 65.0701L60.085 61.4321C60.0831 61.4035 60.0704 61.3766 60.0494 61.3571C60.0284 61.3375 60.0007 61.3266 59.972 61.3267H57.6371C57.4111 60.6714 56.4997 58.6678 55.4452 57.9447L55.8143 56.6191C56.093 56.4157 57.3584 55.4892 57.9007 55.1126L58.5635 55.6474L57.9986 59.1875C57.9944 59.2114 57.998 59.236 58.0088 59.2578C58.0197 59.2795 58.0372 59.2971 58.0589 59.308L61.6291 61.0932C61.6493 61.1097 61.6746 61.1187 61.7007 61.1187C61.7267 61.1187 61.752 61.1097 61.7722 61.0932L63.8888 58.2686C64.8604 58.5548 68.1218 59.0218 69.9145 58.472L72.3097 61.2739C72.3775 61.3493 72.1741 61.3568 76.5127 60.3098C76.5267 60.3072 76.54 60.3017 76.5518 60.2937C76.5636 60.2858 76.5737 60.2755 76.5815 60.2635C76.5892 60.2515 76.5945 60.2381 76.5969 60.2241C76.5993 60.21 76.5988 60.1956 76.5955 60.1818C76.3193 58.7406 76.0381 57.302 75.7519 55.8658C76.4449 55.4892 78.9832 53.4405 79.518 52.0998L83.608 52.7249ZM48.5683 55.9487C48.5556 55.982 48.5551 56.0187 48.5669 56.0523C48.5787 56.0859 48.602 56.1143 48.6327 56.1323C48.6634 56.1504 48.6995 56.157 48.7346 56.151C48.7697 56.1449 48.8015 56.1266 48.8244 56.0993C49.1121 55.5628 49.3346 54.9939 49.4873 54.4046C49.4963 54.3583 49.5212 54.3166 49.5576 54.2866C49.594 54.2566 49.6397 54.2402 49.6869 54.2402C49.734 54.2402 49.7798 54.2566 49.8162 54.2866C49.8526 54.3166 49.8774 54.3583 49.8865 54.4046C49.7704 55.0099 49.5513 55.5908 49.2387 56.1219C49.1935 56.1897 49.2387 56.2801 49.3442 56.3102C49.3812 56.3206 49.4207 56.3172 49.4553 56.3006C49.49 56.2839 49.5174 56.2552 49.5325 56.2199C49.6284 55.8335 49.7999 55.47 50.0371 55.1503C50.2179 54.9469 50.474 55.1503 50.4363 55.4516C50.4066 56.0282 50.1776 56.5766 49.7885 57.0032C49.4006 57.313 49.0309 57.6449 48.6813 57.9974C48.55 58.2273 48.4775 58.486 48.4704 58.7507C48.2068 61.0103 46.2484 63.6842 45.0132 65.3865C44.1808 66.5199 43.2316 67.5625 42.1811 68.4973C41.014 69.3888 39.7508 70.1467 38.415 70.7569C38.415 69.2505 38.3321 64.6333 38.3171 64.0608L45.9471 58.0652C46.8435 57.3723 46.5497 57.1463 46.625 55.7303C47.2577 56.3554 47.2954 56.5362 47.5063 56.5287C47.5395 56.5284 47.5722 56.5209 47.6022 56.5066C47.6321 56.4922 47.6585 56.4715 47.6795 56.4458C48.1213 55.6872 48.4944 54.8907 48.7943 54.0657C49.0655 53.5083 49.2236 53.8623 49.2086 53.9903C49.0693 54.6651 48.8545 55.322 48.5683 55.9487ZM48.0637 130.615C47.4912 130.615 45.3672 130.615 45.2391 130.562C44.9722 130.047 44.8523 129.469 44.8926 128.89C45.4395 129.106 46.0298 129.189 46.615 129.133C47.2002 129.077 47.7638 128.882 48.2595 128.566C48.5759 128.355 48.6889 128.28 49.0127 128.498C48.8621 128.657 48.5533 128.996 48.5005 129.041C48.4646 129.054 48.4353 129.081 48.419 129.115C48.4028 129.15 48.4009 129.189 48.4139 129.225C48.4269 129.261 48.4537 129.291 48.4883 129.307C48.5229 129.323 48.5625 129.325 48.5985 129.312C48.8899 129.178 49.1473 128.979 49.3517 128.732L49.5626 128.875L49.0881 129.402C49.0507 129.414 49.0188 129.439 48.9987 129.472C48.9786 129.506 48.9716 129.546 48.979 129.584C48.9865 129.622 49.008 129.657 49.0392 129.68C49.0705 129.704 49.1094 129.715 49.1483 129.711C49.4416 129.568 49.7109 129.38 49.9467 129.154L50.1501 129.304C49.9769 129.455 49.6078 129.764 49.5475 129.802C49.5178 129.819 49.4947 129.847 49.4819 129.879C49.4692 129.911 49.4673 129.947 49.4767 129.98C49.4862 130.013 49.5063 130.043 49.5341 130.064C49.5618 130.084 49.5957 130.096 49.6304 130.095C49.9553 129.97 50.26 129.798 50.5342 129.583C50.8213 129.756 51.0761 129.978 51.2874 130.238C50.2217 130.43 49.145 130.556 48.0637 130.615ZM125.878 31.2507C125.878 32.7572 125.961 43.6261 126.097 56.5211L122.579 55.5721C122.489 49.2827 122.255 36.0487 121.984 35.2353C121.623 34.0678 120.621 33.5706 118.911 33.6083L84.1126 34.1431L84.0298 33.8343C84.0279 33.8213 84.0235 33.8089 84.0168 33.7977C84.0101 33.7865 84.0012 33.7768 83.9907 33.7691C83.9802 33.7613 83.9682 33.7558 83.9555 33.7528C83.9428 33.7497 83.9297 33.7493 83.9168 33.7514L80.1507 34.0602C79.7122 33.2665 79.2083 32.5107 78.6443 31.8006C89.9877 31.7027 122.557 31.2959 125.878 31.2507ZM29.5647 56.7697C29.7076 56.8243 29.8606 56.8478 30.0133 56.8386C30.1661 56.8295 30.3151 56.7879 30.4505 56.7166C30.5859 56.6453 30.7046 56.546 30.7986 56.4253C30.8926 56.3046 30.9599 56.1652 30.9958 56.0165C31.0004 56 31.0011 55.9827 30.998 55.9658C30.9949 55.949 30.988 55.9331 30.9779 55.9193C30.9677 55.9055 30.9546 55.8942 30.9394 55.8863C30.9242 55.8783 30.9075 55.8739 30.8904 55.8734C29.7455 55.8734 30.5665 54.736 29.512 54.5251C29.625 54.3142 29.8283 53.9075 29.9112 53.7041C29.9674 53.5809 29.9762 53.4414 29.9359 53.3121C29.8956 53.1828 29.809 53.073 29.6927 53.0036C29.512 52.853 28.7136 52.3785 28.7136 51.9416C29.4668 51.0528 30.4686 50.2619 30.461 49.0116C30.3254 47.5051 29.0751 47.362 27.7494 48.0399C27.7118 46.3452 27.5913 40.3119 27.5988 39.3026C30.2878 39.3026 48.2369 39.1219 52.5001 39.1219C51.9955 40.4852 52.3645 44.1609 52.5453 45.1476L49.3065 47.4072C49.2906 47.4262 49.2818 47.4502 49.2818 47.475C49.2818 47.4998 49.2906 47.5238 49.3065 47.5428L50.1501 49.7121C49.4948 50.1339 47.7247 51.3089 47.0694 51.7533V51.5574C47.0615 51.5316 47.0455 51.5089 47.0239 51.4927C47.0022 51.4764 46.976 51.4675 46.9489 51.4671L43.9737 51.5876C43.9458 51.5876 43.9189 51.5987 43.8992 51.6185C43.8794 51.6382 43.8683 51.6651 43.8683 51.693L43.7176 54.1033C42.5426 54.9268 41.3676 55.7554 40.1926 56.5889L37.8501 55.2256C37.8282 55.2097 37.8018 55.2011 37.7748 55.2011C37.7477 55.2011 37.7213 55.2097 37.6994 55.2256L35.5 57.9974C35.4829 58.0188 35.4736 58.0454 35.4736 58.0728C35.4736 58.1002 35.4829 58.1267 35.5 58.1481L36.4868 59.2026C35.5528 59.873 34.4907 60.6186 33.4061 61.5074C32.0815 61.2225 30.7313 61.0736 29.3764 61.063C29.3749 60.8236 29.3026 60.59 29.1685 60.3916C29.0345 60.1933 28.8447 60.039 28.6232 59.9483C28.4457 59.9252 28.2659 59.9252 28.0884 59.9483C29.286 59.0519 29.3764 58.2761 29.5647 56.7697ZM24.9399 32.3881C27.418 32.3278 54.0668 31.9211 56.0101 31.8834C55.6412 32.3475 55.3277 32.8531 55.0761 33.3899L51.423 32.6894C51.3971 32.6839 51.3701 32.6877 51.3467 32.7001C51.3233 32.7124 51.305 32.7327 51.295 32.7572L50.5418 34.5423C45.2316 34.5423 30.3782 34.6251 29.4517 34.8436C27.1544 35.3181 26.9736 37.6606 26.9812 39.8148C26.9812 41.1857 27.1393 46.7519 27.2598 48.2885C27.0014 48.4555 26.7659 48.6555 26.5594 48.8835C26.0931 48.3742 25.4702 48.0349 24.7893 47.9194C24.9023 45.946 24.9399 33.7138 24.9399 32.3881ZM49.7132 36.6739L51.9729 38.5795C46.4217 38.5795 29.8434 38.685 27.5988 38.7829C27.6967 37.043 28.2692 35.9583 29.3011 35.5591C30.0543 35.2654 45.804 35.2202 50.1953 35.2428L49.6228 36.5383C49.6182 36.5681 49.6249 36.5986 49.6416 36.6237C49.6584 36.6488 49.6839 36.6667 49.7132 36.6739ZM29.1429 48.2056C29.3598 48.2184 29.5643 48.3108 29.7172 48.4651C29.8701 48.6194 29.9607 48.8247 29.9714 49.0417C30.0468 49.7422 28.9471 50.8871 28.5102 51.3014C28.1311 50.4966 27.59 49.7786 26.9209 49.1924C27.5076 48.5907 28.3031 48.2374 29.1429 48.2056ZM20.2248 124.514C20.1344 124.642 19.9537 124.913 19.8557 125.079C19.5017 125.041 18.9895 125.787 18.7937 126.088C18.0405 126.088 17.4304 126.035 16.7525 126.028C17.9953 123.768 20.6466 119.656 22.4769 116.854C21.5505 119.407 20.7973 121.494 19.9838 124.152C19.9612 124.228 19.9988 124.28 20.2248 124.514ZM20.1344 125.681C20.2714 125.419 20.4275 125.168 20.6014 124.928C21.4375 125.685 22.3151 126.394 23.2301 127.052C23.1398 127.203 22.9891 127.429 22.8912 127.565C22.3489 127.459 20.2851 126.969 20.1344 125.681ZM22.3564 129.154C22.3216 129.155 22.288 129.167 22.2604 129.188C22.2327 129.209 22.2125 129.238 22.2025 129.272C22.1925 129.305 22.1932 129.341 22.2046 129.374C22.216 129.407 22.2375 129.435 22.266 129.455C22.656 129.546 23.0596 129.564 23.4561 129.508C23.5013 129.628 23.539 129.749 23.5766 129.869C23.359 129.974 23.1149 130.011 22.8761 129.975C22.8382 129.962 22.7966 129.964 22.7606 129.982C22.7246 130 22.697 130.031 22.6841 130.069C22.6711 130.107 22.6737 130.148 22.6914 130.184C22.709 130.221 22.7403 130.248 22.7782 130.261C23.0814 130.322 23.3939 130.322 23.6971 130.261C23.8036 130.611 23.8693 130.973 23.893 131.338C23.893 131.428 23.8177 131.444 23.7875 131.451C23.6218 131.496 23.3431 131.3 23.0343 131.037C21.7162 129.967 19.1703 127.873 19.0121 127.617C18.854 127.361 18.9217 126.962 19.1477 126.585C19.223 126.457 19.4641 126.088 19.6147 125.832C19.8331 126.382 20.6014 127.73 22.8535 127.986C22.9439 127.986 23.0192 128.175 23.0644 128.295C22.7978 128.34 22.5286 128.367 22.2585 128.378C22.2328 128.378 22.2076 128.385 22.1846 128.396C22.1617 128.408 22.1415 128.424 22.1257 128.444C22.1098 128.464 22.0986 128.488 22.0929 128.513C22.0873 128.538 22.0872 128.564 22.0928 128.589C22.0928 128.687 22.2284 128.747 22.6728 128.747C22.8533 128.76 23.0345 128.76 23.2151 128.747C23.2527 128.837 23.2979 128.958 23.3281 129.048C23.0065 129.103 22.6821 129.138 22.3564 129.154ZM128.228 107.89C128.228 107.89 64.5667 108.644 50.0974 108.99C50.0371 107.762 49.9618 106.731 49.8865 105.872C65.5308 105.684 121.563 104.697 126.835 104.561C127.897 104.561 126.308 33.5932 126.458 31.0323C126.474 30.9868 126.479 30.9383 126.472 30.8907C126.465 30.8431 126.446 30.7979 126.418 30.7588C126.39 30.7198 126.353 30.688 126.311 30.6661C126.268 30.6442 126.22 30.6329 126.172 30.6331C122.112 30.6331 88.9181 31.0172 78.117 31.198C77.6577 30.6799 77.1028 30.2554 76.4825 29.9477L76.5654 28.7501C88.3231 28.3961 125.645 27.4244 125.645 27.4244C127.453 27.4244 129.057 27.5223 129.102 29.3225C129.102 29.9703 129.803 104.87 129.69 105.729C129.639 106.18 129.48 106.613 129.225 106.99C128.971 107.366 128.629 107.675 128.228 107.89ZM62.2693 38.5193C61.9455 38.7302 60.5294 44.545 60.4993 45.4489C60.4993 45.5242 60.3863 45.3284 63.0903 49.5012C63.1431 49.5765 62.9397 49.5012 67.6096 50.1941C67.685 50.1941 67.0899 50.5858 76.3093 44.2663C76.7859 46.4283 76.5482 48.6866 75.6318 50.7019C74.7155 52.7173 73.17 54.3809 71.2275 55.443C69.285 56.5051 67.0504 56.9083 64.8592 56.592C62.668 56.2758 60.6386 55.2571 59.0757 53.6891C59.0538 53.6731 59.0274 53.6646 59.0004 53.6646C58.9733 53.6646 58.9469 53.6731 58.9251 53.6891C58.8271 53.7644 50.6397 59.9633 47.7473 62.1627C48.4253 60.981 48.8678 59.679 49.0504 58.3289C49.1107 58.1707 49.2764 58.0728 49.4119 57.9598C50.0271 57.4953 50.4634 56.8329 50.6472 56.0843C50.7376 55.557 50.6472 54.7737 50.12 54.6908C50.12 54.4799 50.1727 54.0958 49.9392 53.9753C49.8815 53.9478 49.8185 53.9336 49.7547 53.9336C49.6908 53.9336 49.6278 53.9478 49.5701 53.9753C49.5701 53.7493 49.5701 53.561 49.3893 53.4932C48.7642 53.2748 48.478 54.0506 48.3574 54.382C48.1496 54.9249 47.86 55.4329 47.4988 55.8884C47.275 55.6001 47.0226 55.3351 46.7456 55.0976C46.3765 54.8867 46.0752 55.1804 46.0526 55.5947C45.9773 56.8827 46.1656 57.1614 45.8191 57.4627C45.7438 57.5305 38.9724 62.916 38.2869 63.4884C38.2738 63.2703 38.2153 63.0574 38.1151 62.8634C38.0148 62.6693 37.8751 62.4983 37.7049 62.3614C37.5346 62.2245 37.3377 62.1247 37.1266 62.0685C36.9155 62.0122 36.695 62.0007 36.4792 62.0347C36.2258 62.0404 35.9736 62.0706 35.726 62.1251C35.1686 61.9368 34.6263 61.7861 34.1066 61.6656C35.9369 60.4153 54.4886 47.3997 55.0987 46.9854C55.1195 46.9742 55.1356 46.9558 55.1439 46.9336C55.1522 46.9115 55.1522 46.8871 55.1439 46.8649C53.163 39.9203 56.6127 33.8945 60.9211 32.3278C64.8077 30.9043 68.7169 33.0811 69.7864 33.7665C68.5436 34.5498 63.7833 37.5476 62.2693 38.5193ZM58.8121 29.5409C57.962 29.9829 57.197 30.572 56.5524 31.2809C53.7279 31.3562 25.7835 31.8458 24.7592 31.8684C24.7135 31.8499 24.664 31.8429 24.6149 31.848C24.5659 31.8531 24.5189 31.8702 24.478 31.8977C24.4371 31.9252 24.4036 31.9623 24.3804 32.0058C24.3572 32.0493 24.345 32.0978 24.3449 32.1471C24.2997 35.9659 24.2395 46.0966 24.2846 47.9119C23.564 47.9207 22.8551 48.096 22.2133 48.4241C22.1606 45.8179 21.9572 31.7177 22.0627 31.2583C22.1043 30.7908 22.3203 30.3561 22.6678 30.0407C23.0154 29.7253 23.4689 29.5523 23.9382 29.556C24.1792 29.556 57.155 28.9459 58.7744 28.9233L58.8121 29.5409ZM21.4752 49.4183C23.1096 48.3789 24.8571 47.9119 26.1903 49.3204C24.5407 50.6611 21.0006 53.6815 20.1118 55.6098C19.6718 55.0148 19.3887 54.3185 19.2886 53.5853C19.1886 52.8521 19.2748 52.1055 19.5394 51.4143C19.941 50.5497 20.6232 49.8462 21.4752 49.4183ZM20.0817 67.3675C21.9723 73.6342 28.2315 81.076 31.4327 85.7158C30.8571 86.0072 30.4093 86.5007 30.1748 87.1017C26.399 81.6219 22.9435 75.9281 19.8256 70.0489C19.3494 69.266 18.9748 68.4257 18.7108 67.5482C18.5305 66.9325 18.5389 66.2769 18.7349 65.666C18.931 65.055 19.3056 64.5169 19.8105 64.1211C19.3963 65.0927 19.803 66.441 20.0817 67.3675ZM19.095 69.9435V71.4499C17.7392 72.5797 15.9465 73.9054 14.169 75.2838C14.3297 73.8815 14.63 72.4988 15.0653 71.1561C15.7819 69.2492 16.799 67.4692 18.0781 65.8836C17.7919 67.3449 18.3568 68.6253 19.095 69.9435ZM20.7671 81.5355C20.1611 78.0288 19.7862 74.486 19.6448 70.9302C22.5605 76.4926 25.8312 81.8616 29.4366 87.0038C27.4156 87.052 25.4068 86.6774 23.539 85.9041C21.6635 85.1735 21.091 83.6068 20.7671 81.5355ZM24.8571 109.608C24.4202 111.31 23.9306 112.869 23.3507 114.421C20.9027 117.908 16.406 125.29 15.9089 126.201C15.8819 126.251 15.8681 126.306 15.8686 126.363C15.8691 126.419 15.8841 126.475 15.912 126.524C15.9399 126.573 15.9798 126.614 16.0281 126.643C16.0763 126.672 16.1312 126.689 16.1876 126.691H17.3626C17.7189 126.71 18.0759 126.71 18.4322 126.691C18.3664 126.804 18.3158 126.926 18.2815 127.052C18.2698 127.371 18.3432 127.687 18.4941 127.967C18.645 128.248 18.868 128.483 19.1402 128.649C19.7578 129.161 22.3188 131.12 22.9063 131.579C23.4938 132.039 24.1265 132.106 24.3524 131.496C24.4244 131.192 24.4087 130.873 24.3072 130.577C24.1641 130.012 23.5013 128.242 23.3507 127.888C23.4486 127.738 23.6218 127.489 23.7197 127.316C24.0737 127.504 24.4278 127.67 24.7818 127.821C24.8062 127.829 24.8326 127.828 24.857 127.82C24.8814 127.812 24.9025 127.796 24.9174 127.775L25.7534 126.593C29.4366 126.548 42.5426 126.638 43.2431 126.638C43.3636 127.082 43.3485 127.158 43.4389 127.188C43.7696 127.294 44.1067 127.38 44.4482 127.444C44.4482 127.617 44.5386 128.016 44.5763 128.197C44.3202 128.295 44.3579 128.687 44.388 128.95C44.5612 130.592 44.7119 130.916 44.8399 130.999C45.1261 131.195 49.8111 131.09 51.6189 130.592C51.661 130.581 51.699 130.559 51.7284 130.526C51.7578 130.494 51.7773 130.455 51.7846 130.412C51.7901 130.262 51.7562 130.114 51.6861 129.981C51.616 129.849 51.5123 129.738 51.3854 129.658C50.5998 128.996 49.7747 128.383 48.9148 127.821V126.759L49.073 126.668C64.3256 126.518 128.982 125.96 135.565 125.915C135.615 125.924 135.668 125.919 135.716 125.9C135.763 125.881 135.805 125.848 135.835 125.806C135.865 125.764 135.882 125.715 135.885 125.663C135.888 125.612 135.876 125.561 135.851 125.516C134.608 123.414 127.671 111.385 127.385 110.911C127.348 110.853 127.294 110.809 127.23 110.784C127.167 110.76 127.097 110.757 127.031 110.775C116.878 110.858 63.821 111.529 50.2028 111.792C50.2028 110.979 50.1652 110.225 50.1426 109.533C63.3916 109.382 123.815 108.636 127.332 108.516C129.336 108.388 130.277 108.922 131.241 110.715C131.995 112.033 144.927 133.839 146.306 136.144H4.29429C5.58982 134.042 17.4982 116.342 19.9763 112.794C20.6154 111.844 21.4128 111.011 22.3338 110.331C23.0656 109.805 23.9576 109.549 24.8571 109.608ZM5.89864 86.2581C5.89864 83.7951 7.73649 81.8593 9.37097 80.1571C10.5987 78.8691 17.1065 73.5363 19.1628 71.9771C19.2994 75.6914 19.7479 79.3876 20.5035 83.0268C18.4759 84.6994 16.3478 86.2464 14.1313 87.6591C13.0088 88.4028 11.7932 88.9954 10.5159 89.4216C8.03024 90.1523 5.89864 88.9622 5.86098 86.2958L5.89864 86.2581Z" fill="black"/>
</g>
</g>
</svg>
