<svg width="151" height="151" viewBox="0 0 151 151" fill="none" xmlns="http://www.w3.org/2000/svg">
<g id="Cloud-Service-Empty-3--Streamline-Milano">
<path id="Vector" d="M146.742 112.757C146.017 111.719 145.025 110.897 143.872 110.376C143.86 110.352 143.845 110.329 143.827 110.309C144.16 110.09 144.393 109.749 144.475 109.36C144.55 108.817 144.158 108.328 143.722 107.815C142.275 106.008 137.786 100.208 134.916 97.4436C139.827 84.0213 137.327 65.0553 128.288 53.9529C128.913 53.5632 129.445 53.0418 129.847 52.4251C130.249 51.8084 130.511 51.1114 130.616 50.3827C131.678 44.357 122.074 32.3055 119.25 32.4938C118.908 31.0045 118.926 29.4554 119.302 27.9745C119.792 26.1894 119.792 25.1876 119.302 25.0068C119.161 24.9769 119.015 24.9946 118.885 25.0574C118.756 25.1201 118.651 25.2243 118.587 25.3533L117.984 26.7844C117.984 25.9182 117.931 24.5248 117.434 24.2536C117.339 24.211 117.234 24.1983 117.132 24.2171C117.029 24.236 116.935 24.2855 116.862 24.3591C116.611 24.6798 116.462 25.0678 116.433 25.4738C116.397 25.2461 116.31 25.0292 116.18 24.839C116.05 24.6488 115.879 24.49 115.679 24.3741C115.592 24.3479 115.499 24.3506 115.413 24.3819C115.328 24.4131 115.255 24.4712 115.205 24.5474C114.678 25.2403 115.001 29.5563 114.06 29.8726C113.804 29.4056 113.841 28.1703 112.998 27.8992C112.92 27.8661 112.834 27.8536 112.75 27.8628C112.666 27.872 112.585 27.9027 112.516 27.9519C112.23 28.1779 112.312 28.788 112.335 29.1043C112.35 30.8031 112.945 32.4456 114.022 33.7592C113.352 34.0605 113.412 34.0379 114.022 36.3427C114.467 38.0149 116.003 42.8053 116.967 44.5302C114.135 44.5302 111.273 44.726 108.479 45.0273C105.589 44.9425 102.698 45.1418 99.8467 45.6224C100.201 43.5962 99.1462 40.0034 96.9167 38.9865C96.9559 38.7814 96.9521 38.5703 96.9054 38.3667C96.8587 38.1632 96.7702 37.9715 96.6455 37.804C96.8941 36.2975 97.6172 35.8004 98.9504 36.5461C100.156 37.2165 101.451 38.8058 102.656 39.4837C103.711 40.0902 104.891 40.4458 106.106 40.5231C106.264 40.5231 106.317 40.4553 106.339 40.395C106.407 40.2067 106.106 39.9657 106.083 39.9506C101.564 36.7344 102.957 32.9081 100.14 30.3471C99.5276 29.8043 98.8114 29.391 98.0347 29.1321C97.2581 28.8732 96.4371 28.7741 95.6211 28.8407C91.486 29.1571 89.7687 33.1566 90.778 37.1939C90.564 37.3399 90.3912 37.5385 90.2765 37.7708C90.1617 38.003 90.1087 38.2609 90.1227 38.5195C89.4434 38.7748 88.8221 39.1635 88.2955 39.6629C87.769 40.1623 87.3479 40.7621 87.0571 41.4269C85.3208 39.8842 83.3601 38.6144 81.2422 37.6609C80.6546 36.8929 80.0127 36.1679 79.3215 35.4916C79.2413 35.4088 79.1396 35.3502 79.0278 35.3222C78.916 35.2942 78.7986 35.2981 78.6888 35.3334C77.8452 33.827 75.2994 32.9683 73.4163 32.9683C72.5698 32.9169 71.7256 33.1008 70.9771 33.4996C70.2286 33.8985 69.6052 34.4967 69.1757 35.228C65.2439 35.0472 52.2359 34.648 44.6736 36.5612C38.3006 38.1518 32.558 41.6336 28.2008 46.5488C25.9411 49.1549 22.1223 54.9999 21.0377 60.4758C17.7714 60.61 14.5986 61.6052 11.8409 63.3606C3.23164 69.0173 2.04909 79.7732 5.36324 87.0267C10.2365 97.6997 18.9889 96.4795 29.2703 96.6678C33.4582 96.7356 37.4503 96.9917 41.6532 96.9992C41.7537 97.4933 41.9852 97.9512 42.3236 98.3249C42.6749 98.7174 43.1025 99.034 43.5804 99.2555C44.0583 99.477 44.5764 99.5986 45.1029 99.6129C57.1167 100.411 78.9223 100.035 86.2436 100.253C87.7096 100.373 89.1852 100.287 90.6273 99.997C91.2554 99.8455 91.8308 99.5267 92.2923 99.0745C92.7538 98.6223 93.0843 98.0535 93.2485 97.4286H98.054C97.4363 104.795 98.247 112.212 100.442 119.272C100.615 119.829 101.323 119.686 101.85 119.648C101.924 120.248 102.039 120.842 102.197 121.426C100.118 121.426 97.1125 123.686 96.9242 125.81C9.4306 125.81 15.3735 125.742 15.2454 125.923C15.2059 125.97 15.1809 126.027 15.1735 126.088C15.166 126.149 15.1766 126.211 15.2037 126.266C15.2309 126.321 15.2735 126.367 15.3264 126.399C15.3793 126.43 15.4401 126.445 15.5015 126.442C133.862 126.442 128.379 126.525 128.341 126.284C128.373 126.252 128.396 126.212 128.408 126.168C128.419 126.124 128.418 126.078 128.405 126.035C128.392 125.991 128.367 125.952 128.333 125.922C128.299 125.891 128.257 125.871 128.213 125.862C121.524 125.667 114.655 125.742 107.944 125.772C107.938 124.761 107.837 123.752 107.642 122.759V119.407H107.778C109.721 119.31 110.098 119.197 110.136 119.008C112.199 109.42 112.395 102.965 118.361 94.6115C121.328 90.4538 125.042 86.7856 127.166 82.0554C127.542 81.2194 128.296 81.7014 128.032 82.4019C126.239 87.2451 121.728 91.6062 118.888 95.9598C121.411 104.863 129.041 109.608 136.558 114.85C136.995 115.152 138.871 114.647 139.293 114.263L139.413 114.338C138.765 115.694 138.374 119.279 138.479 120.816C138.585 122.353 139.15 122.631 140.407 121.569C141.665 120.507 148.294 114.881 146.742 112.757ZM112.794 28.6223C112.785 28.517 112.785 28.4112 112.794 28.3059C113.04 28.5015 113.226 28.7626 113.329 29.0591C113.435 29.4056 113.548 30.204 113.924 30.3396C113.98 30.3593 114.04 30.3641 114.098 30.3536C114.156 30.343 114.211 30.3174 114.256 30.2794C115.536 29.6391 115.273 25.3232 115.612 24.8637C116.191 25.3533 116.033 27.6883 116.048 28.5168C116.061 28.565 116.089 28.6076 116.129 28.638C116.168 28.6684 116.217 28.6849 116.267 28.6849C116.317 28.6849 116.365 28.6684 116.405 28.638C116.444 28.6076 116.472 28.565 116.485 28.5168C116.551 28.2407 116.579 27.9569 116.568 27.6732C116.553 27.2832 116.591 26.8929 116.681 26.5133C116.733 25.8438 116.909 25.1899 117.201 24.585C117.201 24.585 117.261 24.6302 117.336 24.9315C117.615 26.1668 117.269 28.3511 117.336 28.6072C117.404 28.8633 117.781 29.0215 117.909 27.9745C118.187 27.6506 118.858 25.4512 119.137 25.4136C119.679 26.1141 117.916 28.0875 118.692 32.4637C117.242 32.5521 115.817 32.8804 114.474 33.4353C113.246 31.7632 112.983 31.1681 112.794 28.6223ZM123.302 45.0499C123.333 45.0499 123.365 45.0437 123.394 45.0316C123.423 45.0195 123.45 45.0017 123.472 44.9793C123.495 44.9569 123.512 44.9304 123.525 44.9011C123.537 44.8719 123.543 44.8405 123.543 44.8089C123.544 44.7776 123.539 44.7464 123.527 44.7172C123.516 44.688 123.499 44.6614 123.477 44.6389C123.455 44.6164 123.429 44.5985 123.401 44.5863C123.372 44.5741 123.341 44.5678 123.309 44.5679C121.63 44.4323 119.174 44.4323 117.608 44.485C116.267 41.8713 114.64 36.5687 114.03 34.294C115.802 33.3959 117.777 32.9704 119.762 33.0587C123.791 35.5594 134.442 48.7783 128.047 53.275L127.821 53.4483C123.806 48.8763 118.617 46.2023 112.004 45.2909C113.781 45.193 123.227 45.0349 123.302 45.0499ZM90.68 38.2333C90.7107 38.024 90.8054 37.8293 90.9512 37.6759C91.155 38.1835 91.489 38.6283 91.9195 38.9656C92.3501 39.3029 92.8619 39.5207 93.4035 39.5971C93.9451 39.6735 94.4972 39.6057 95.0042 39.4007C95.5113 39.1956 95.9553 38.8605 96.2915 38.4291C97.0899 40.9148 90.2582 41.0127 90.68 38.2333ZM90.9286 47.641L86.8688 48.8537C85.8633 45.2573 84.2508 41.8591 82.1009 38.8058C85.9221 40.7179 89.0197 43.8182 90.9286 47.641ZM78.0109 35.4012C75.9622 35.6272 74.501 36.2373 73.5519 37.2466C73.1248 36.6388 72.5622 36.1387 71.9086 35.7858C71.255 35.4328 70.5283 35.2367 69.7858 35.2129C71.4429 32.7198 75.9848 33.1943 78.0109 35.4012ZM28.841 46.8426C32.0138 43.2933 35.9342 40.4918 40.32 38.64C46.9257 35.8607 56.5443 35.5368 64.5434 35.6272C60.6556 36.2491 56.9311 37.6415 53.5888 39.7226C50.2465 41.8038 47.3538 44.5318 45.0803 47.7464C42.2739 51.6876 40.599 56.3214 40.2372 61.1462C36.7347 60.8373 24.8339 60.3176 21.6252 60.4457C23.4404 54.8041 24.9092 51.3167 28.841 46.8426ZM5.97334 86.763C1.45405 77.1972 6.04113 65.0553 16.4506 61.9069C21.1431 60.4833 26.378 61.1537 36.1924 61.5604C29.2628 62.9765 23.4254 68.4222 21.7984 75.1183C19.9154 82.8764 23.4932 93.1277 31.5902 96.0427C20.1263 95.6058 11.163 97.7826 5.97334 86.7932V86.763ZM56.3635 99.1308C53.8101 99.2062 49.7352 99.048 47.0839 99.0103C43.9882 98.9651 43.1446 98.6187 42.3913 96.9842L58.1185 97.1273C58.0533 97.5994 57.853 98.0427 57.5416 98.4035C57.2302 98.7643 56.821 99.0274 56.3635 99.161V99.1308ZM83.8182 90.7852L76.6175 83.9008C74.0953 86.3202 71.4478 88.6056 68.6861 90.7476C68.5283 90.8804 68.3242 90.9451 68.1187 90.9274C67.9131 90.9098 67.723 90.8112 67.5902 90.6534C67.4574 90.4956 67.3926 90.2915 67.4103 90.0859C67.428 89.8804 67.5265 89.6903 67.6844 89.5575C69.944 87.2451 72.874 84.9252 75.337 82.6806C74.1168 81.5282 69.4619 77.1369 68.5581 76.0071C68.4073 75.8673 68.3182 75.6732 68.3104 75.4677C68.3026 75.2622 68.3768 75.062 68.5167 74.9112C68.6565 74.7604 68.8505 74.6713 69.056 74.6635C69.2616 74.6557 69.4618 74.7299 69.6126 74.8697C70.8177 75.7811 75.4425 80.2703 76.6853 81.4679L83.178 75.156C83.9689 74.3576 85.2644 75.5702 84.4434 76.3988L77.9658 82.6881L85.0535 89.4671C85.9122 90.2354 84.6694 91.6288 83.8182 90.8153V90.7852ZM98.0917 96.8109C97.4515 96.7055 94.4386 96.7507 93.2786 96.7507C93.6628 84.6992 93.3314 71.8945 93.3314 71.8117C93.3314 69.552 92.5781 68.1963 91.2073 68.1209C88.0814 67.9477 74.5085 67.4656 71.4956 67.7594C71.1642 67.1418 69.1155 63.9331 68.528 63.9481C67.5789 63.9481 60.5062 63.579 59.5797 63.6996C59.3163 63.7066 59.0608 63.791 58.8452 63.9424C58.6295 64.0938 58.4632 64.3053 58.3671 64.5507C57.5385 75.2539 58.932 86.3488 58.1863 96.472C51.2793 96.3967 37.9022 96.472 34.942 96.118C23.7267 94.9053 18.8307 80.4586 24.1033 71.0811C25.6235 68.4403 27.7744 66.2173 30.3638 64.6111C32.9532 63.0049 35.9003 62.0655 38.9416 61.8768C40.3577 61.8768 40.7343 61.809 40.7569 61.568C41.1631 57.2724 42.5411 53.1255 44.7866 49.4412C50.1419 40.734 60.1145 35.5443 70.7801 35.8833C71.6613 35.9812 72.5577 36.9227 73.1678 37.6533C73.1289 37.6966 73.1028 37.7497 73.0922 37.8068C73.0815 37.8639 73.0868 37.9229 73.1075 37.9772C73.2732 39.1296 74.6139 48.5222 74.6139 48.5222C75.5329 54.9848 75.9923 58.186 82.4775 61.7638C87.5391 64.5507 94.6043 65.8161 97.4816 66.2831C98.3854 69.3562 101.074 74.9526 103.138 77.4457C100.36 83.5749 98.653 90.135 98.0917 96.8411V96.8109ZM102.762 121.509C102.7 120.872 102.604 120.238 102.475 119.611L106.995 119.422C106.995 120.432 107.047 121.336 107.108 122.179C104.562 122.594 104.449 121.938 102.762 121.539V121.509ZM103.515 76.9185C101.271 73.6028 99.4276 70.0327 98.0239 66.2831L100.751 66.5844C101.044 66.5844 101.082 66.1174 100.788 66.0872C96.5777 65.6203 86.1457 64.0536 80.248 59.5343C76.384 56.5817 75.9923 53.8249 75.3973 49.6445C74.5236 43.4079 74.0867 40.2595 73.6197 37.8944C75.2466 36.0866 78.0486 35.808 79.0052 35.8531C79.4421 36.4105 79.8036 36.8549 80.12 37.2466C82.9867 40.6767 85.0805 44.6845 86.2587 48.9968L84.5489 49.5391C84.2325 49.6445 84.4208 50.1191 84.7296 50.0212C84.7296 50.0212 89.505 48.6051 91.1772 48.1381C91.1772 48.2285 91.1772 48.236 91.1772 48.1381C95.3427 46.9058 99.6187 46.0834 103.944 45.6826C118.617 44.5528 128.303 50.7819 133.561 64.7164C122.684 64.8972 111.205 69.5746 103.553 76.9486L103.515 76.9185ZM138.291 112.772C138.012 113.207 137.76 113.66 137.538 114.127C137.387 114.436 136.784 114.301 137.04 113.773C137.929 111.679 141.085 108.177 143.609 108.689C143.683 108.704 143.749 108.747 143.792 108.809C143.835 108.871 143.853 108.948 143.841 109.022C143.83 109.097 143.789 109.165 143.729 109.211C143.669 109.257 143.593 109.278 143.518 109.269C143.173 109.274 142.832 109.337 142.509 109.457C142.742 109.751 142.998 110.037 143.262 110.399C143.274 110.414 143.282 110.432 143.285 110.451C143.288 110.471 143.286 110.49 143.279 110.508C143.272 110.527 143.261 110.543 143.246 110.555C143.231 110.568 143.213 110.576 143.194 110.58C142.155 110.76 140.264 112.982 139.812 113.841C139.801 113.853 139.788 113.862 139.773 113.868C139.758 113.875 139.742 113.878 139.726 113.878C139.71 113.878 139.694 113.875 139.679 113.868C139.664 113.862 139.65 113.853 139.639 113.841L138.291 112.772ZM139.933 121.155C139.724 121.349 139.485 121.507 139.225 121.622C139.225 121.577 139.225 121.411 139.504 120.733C140.611 118.112 143.435 114.052 145.838 113.201C146.215 113.073 146.343 113.035 146.365 113.329C146.569 115.189 141.936 119.633 139.971 121.185L139.933 121.155Z" fill="black"/>
</g>
</svg>
