<svg width="151" height="151" viewBox="0 0 151 151" fill="none" xmlns="http://www.w3.org/2000/svg">
<g id="Disk-Full-Cloud-Storage-1--Streamline-Milano">
<g id="Disk-Full-Cloud-Storage-1--Streamline-Milano.svg">
<path id="Vector" d="M113.239 27.3042C113.179 27.2288 112.983 26.9577 112.696 26.6489C114.376 23.5456 113.276 24.2461 112.162 26.5811C112.034 26.8372 112.305 26.9727 113.103 27.4623C113.125 27.4755 113.15 27.4806 113.175 27.4767C113.2 27.4729 113.222 27.4603 113.239 27.4412C113.255 27.4221 113.264 27.3978 113.264 27.3727C113.264 27.3476 113.255 27.3233 113.239 27.3042ZM113.081 29.255C113.09 29.2648 113.101 29.2726 113.113 29.278C113.125 29.2833 113.139 29.2861 113.152 29.2861C113.166 29.2861 113.179 29.2833 113.191 29.278C113.203 29.2726 113.215 29.2648 113.224 29.255C113.736 29.255 114.429 28.9311 115.069 29.722C114.723 29.7672 113.909 30.0459 114.052 30.2568C114.195 30.4677 114.158 30.2568 114.708 30.1814C115.257 30.1061 115.596 30.3095 115.739 30.1061C115.763 30.0663 115.776 30.0207 115.776 29.9743C115.776 29.9279 115.763 29.8823 115.739 29.8425C114.798 28.0046 112.983 29.0215 113.081 29.255ZM112.764 21.8961C112.777 21.8866 112.788 21.8742 112.796 21.8599C112.803 21.8456 112.808 21.8297 112.808 21.8135C112.808 21.7973 112.805 21.7812 112.798 21.7665C112.792 21.7517 112.782 21.7388 112.769 21.7286C112.756 21.7184 112.742 21.7112 112.726 21.7077C112.71 21.7041 112.694 21.7042 112.678 21.708C112.662 21.7119 112.647 21.7193 112.635 21.7297C112.622 21.7401 112.613 21.7532 112.606 21.768C112.434 21.8131 112.268 21.8762 112.109 21.9563C111.145 22.4534 111.258 22.7547 111.454 22.7095C111.729 22.7265 112.004 22.6573 112.239 22.5116C112.473 22.3659 112.657 22.1508 112.764 21.8961ZM116.975 23.5079C116.988 23.5114 117.001 23.5123 117.014 23.5106C117.027 23.5089 117.04 23.5046 117.052 23.4979C117.063 23.4913 117.073 23.4824 117.081 23.4719C117.09 23.4613 117.096 23.4492 117.099 23.4364C117.102 23.4235 117.103 23.4101 117.102 23.3969C117.1 23.3837 117.096 23.371 117.089 23.3594C117.082 23.3479 117.073 23.3378 117.063 23.3297C117.052 23.3215 117.04 23.3156 117.027 23.3121C116.805 23.0343 116.552 22.7817 116.274 22.5589C116.201 22.5066 116.123 22.4612 116.041 22.4233C115.965 22.3103 115.792 22.4233 115.868 22.5438C115.878 22.6076 115.893 22.6705 115.913 22.7321C116.033 23.0861 116.5 23.5908 116.975 23.5079Z" fill="black"/>
<path id="Vector_2" d="M146.877 56.9581C145.77 49.8176 142.772 44.9971 139.285 41.7507C135.123 37.9063 129.787 35.5765 124.138 35.1375L123.068 29.9177C123.399 29.9035 123.723 29.8181 124.018 29.6673C124.313 29.5166 124.573 29.3039 124.778 29.0439C125.19 28.3673 125.347 27.5664 125.222 26.7843C125.622 25.6921 127.482 21.6172 124.507 17.5951C120.959 12.7745 113.578 15.712 112.568 17.7231C112.252 17.6779 111.401 19.1693 111.145 19.7944C109.992 22.5437 109.262 28.9837 111.363 31.9363C112.305 33.2695 113.856 34.1959 116.357 34.4144V35.7852C112.698 36.891 109.434 39.0274 106.957 41.939C88.1265 41.939 88.9851 41.8712 88.9851 42.1951L89.0906 55.3839C86.9816 55.2408 86.8686 56.2275 87.6971 56.5966C87.0569 56.8376 87.0268 57.395 87.6971 57.6888C86.9439 58.0428 87.2226 58.8939 89.083 58.9617C88.8947 67.2471 88.8646 66.9081 89.196 66.9081C89.3241 66.9081 98.1442 66.9533 103.424 66.9081C103.315 68.2466 103.315 69.5918 103.424 70.9303C103.424 71.2391 103.778 71.209 105.353 71.2617C103.311 85.3996 98.2497 139.111 98.2497 139.111C98.4792 139.325 98.7318 139.512 99.0029 139.669L98.3099 141.002C85.6634 139.021 89.5877 143.781 99.6733 145.469C102.136 145.883 102.242 145.717 102.792 144.037C103.161 142.823 103.46 141.588 103.688 140.339H103.921C106.505 134.984 117.961 104.253 117.961 104.253C116.442 98.4121 115.227 92.4963 114.323 86.5294C115.973 92.9317 127.482 140.339 127.482 140.339C127.753 140.399 128.024 140.445 128.311 140.482L128.273 141.989C126.164 142.636 119.844 144.783 121.539 146.177C123.234 147.57 132.446 145.559 133.515 144.474C134.08 143.902 133.252 141.213 133.011 140.46C133.643 140.392 134.035 140.332 134.035 140.332C134.939 121.916 136.295 76.1802 136.393 73.6645C136.799 73.7473 138.072 73.8603 137.997 73.8452C138.031 73.8495 138.066 73.8465 138.098 73.8363C138.131 73.8262 138.161 73.8091 138.187 73.7863C138.213 73.7634 138.233 73.7354 138.247 73.704C138.261 73.6726 138.268 73.6386 138.268 73.6042C138.324 72.107 138.228 70.608 137.982 69.1301C141.394 68.4447 143.917 67.1717 144.904 63.8576C145.415 61.7822 145.415 59.6136 144.904 57.5381C146.471 57.2444 146.93 57.3272 146.877 56.9581ZM101.865 145.084C101.36 145.619 94.4083 143.864 91.8624 142.388C89.3165 140.912 92.2616 140.882 95.2745 141.017C95.3585 141.444 95.5138 141.854 95.7339 142.23C95.7339 142.258 95.7451 142.285 95.7648 142.304C95.7846 142.324 95.8114 142.335 95.8394 142.335C95.8674 142.335 95.8942 142.324 95.914 142.304C95.9337 142.285 95.9448 142.258 95.9448 142.23C96.0029 142.033 96.0134 141.825 95.9754 141.623C95.9374 141.422 95.8521 141.232 95.7264 141.07L96.8562 141.153C96.9857 141.562 97.1494 141.961 97.3458 142.343C97.3477 142.369 97.3597 142.394 97.3792 142.412C97.3988 142.431 97.4246 142.441 97.4513 142.441C97.4792 142.441 97.5061 142.43 97.5258 142.41C97.5456 142.39 97.5567 142.363 97.5567 142.335C97.6345 142.147 97.6581 141.941 97.6249 141.74C97.5916 141.539 97.5028 141.351 97.3684 141.198C98.8749 141.341 98.4003 141.695 99.3268 139.835C100.584 140.41 101.984 140.598 103.349 140.377C103.191 141.183 102.438 144.459 101.865 145.084ZM111.777 31.635C109.676 28.6824 110.331 20.4046 112.463 18.0771C112.44 18.1686 112.44 18.2643 112.463 18.3558C113.352 20.8715 119.362 19.109 119.362 19.109C119.362 20.8715 121.117 23.8016 121.117 25.0368C121.002 26.085 120.775 27.1178 120.439 28.1175H121.946C122.015 27.7302 122.174 27.3646 122.411 27.0505C122.648 26.7364 122.956 26.4826 123.309 26.3098C125.403 25.5566 125.245 27.9292 124.447 28.8556C123.648 29.7821 122.443 29.2548 122.526 29.6616C123.528 35.6873 123.445 35.3258 123.482 35.386C119.716 38.2332 117.412 36.6514 116.809 36.1392C116.922 36.0112 116.809 35.9434 116.869 34.1733C116.869 34.108 116.844 34.045 116.8 33.9974C116.755 33.9498 116.693 33.9211 116.628 33.9173C114.188 33.7892 112.681 32.9155 111.777 31.635ZM89.1132 55.5948C89.6249 55.6148 90.1239 55.7596 90.5669 56.0166C90.936 56.1673 88.375 56.6117 87.6896 56.0166C87.5615 55.9338 88.3826 55.6475 89.1132 55.5948ZM87.6519 57.1012C87.8797 56.9488 88.1359 56.8438 88.4052 56.7924C88.8846 56.864 89.3719 56.864 89.8513 56.7924C90.1216 56.8401 90.3785 56.9455 90.6045 57.1012C90.1667 57.3598 89.6554 57.4658 89.1508 57.4025C87.9457 57.4101 87.7273 57.1238 87.6519 57.1012ZM87.8026 58.1633C87.9758 58.0396 88.1696 57.9478 88.375 57.8921C88.923 57.9906 89.4841 57.9906 90.0321 57.8921C90.2755 57.9475 90.5058 58.0499 90.71 58.1934C90.71 58.1934 90.5669 58.329 90.13 58.4194C89.5199 58.4796 88.2093 58.4947 87.8026 58.1633ZM89.4069 66.4487C89.4069 64.1514 89.4822 61.5076 89.4069 58.9918C91.4707 58.9918 91.5159 57.9825 90.6196 57.6586C91.1619 57.3724 91.1318 56.8602 90.5217 56.6343C91.3427 56.2727 91.403 55.3086 89.3768 55.399V42.4437C95.7791 42.4889 109.427 42.4889 115.807 42.4889C115.581 50.6462 115.611 59.3986 115.807 65.477C115.557 65.513 115.304 65.513 115.054 65.477C113.894 64.8443 111.167 63.0667 111.243 64.2643C111.503 65.0562 111.917 65.7884 112.463 66.4185C108.117 66.283 107.394 66.3206 89.4069 66.4185V66.4487ZM133.259 144.173C132.506 144.889 126.021 146.267 123.106 146.071C120.191 145.875 122.835 144.504 125.569 143.345C125.822 143.695 126.142 143.992 126.51 144.218C126.516 144.232 126.525 144.244 126.536 144.254C126.547 144.265 126.56 144.272 126.574 144.277C126.588 144.282 126.603 144.283 126.618 144.282C126.633 144.28 126.648 144.275 126.66 144.268C126.673 144.26 126.685 144.25 126.693 144.238C126.702 144.226 126.708 144.212 126.711 144.197C126.714 144.183 126.713 144.167 126.71 144.153C126.707 144.138 126.7 144.125 126.691 144.113C126.658 143.91 126.577 143.719 126.455 143.554C126.333 143.389 126.174 143.255 125.991 143.164L127.038 142.742C127.334 143.053 127.656 143.338 128.002 143.593C128.008 143.605 128.017 143.615 128.027 143.623C128.037 143.631 128.049 143.637 128.062 143.641C128.074 143.644 128.087 143.645 128.1 143.643C128.113 143.642 128.126 143.637 128.137 143.631C128.15 143.626 128.162 143.619 128.172 143.609C128.181 143.599 128.189 143.587 128.193 143.574C128.198 143.561 128.199 143.547 128.197 143.533C128.195 143.52 128.19 143.507 128.182 143.495C128.171 143.292 128.102 143.096 127.985 142.93C127.868 142.764 127.707 142.633 127.52 142.554C128.928 142.019 128.649 142.554 128.657 140.497C129.969 140.639 131.292 140.639 132.604 140.497C132.604 140.52 133.681 143.744 133.259 144.143V144.173ZM103.944 70.6365C103.823 69.3184 104.117 69.1301 103.944 66.8705C105.337 66.8705 107.537 66.8177 109.608 66.765C109.926 67.3438 110.366 67.846 110.898 68.2364C111.43 68.6268 112.041 68.8958 112.689 69.0247C114.76 69.4766 117.54 68.9117 121.291 69.2356C126.277 69.6574 132.852 70.0942 137.786 69.1527C137.741 70.742 137.786 71.1713 137.846 73.318C127.941 72.6326 108.983 70.9906 103.944 70.6365ZM142.23 67.0362C137.922 70.049 126.54 69.1376 121.283 68.6707C115.724 68.1811 112.35 69.6649 110.279 66.8931H112.983C113.894 66.8931 112.124 65.4469 111.77 64.3397C112.819 64.7473 113.827 65.2516 114.783 65.8461C115.19 66.0645 116.673 65.7482 117.178 65.6503C125.463 63.9781 124.597 62.9613 130.51 61.2665C134.57 60.099 136.347 60.5133 136.347 60.2648C136.347 60.0162 132.996 60.4079 132.348 60.5284C132.39 59.9778 132.367 59.4242 132.28 58.8788C136.475 58.4043 140.287 57.9524 144.655 57.4327C145.484 60.8673 145.122 65.0401 142.23 67.0362ZM116.191 42.4587H124.409C124.409 49.6218 124.266 56.1673 124.334 63.2701C121.732 64.2587 119.033 64.9682 116.282 65.3866C116.508 56.8903 116.372 48.733 116.191 42.4587ZM132.175 56.5589C132.039 54.8491 131.851 50.2545 131.805 48.5372C131.735 48.382 131.626 48.2472 131.489 48.1455C131.461 48.1455 131.434 48.1566 131.415 48.1764C131.395 48.1962 131.384 48.223 131.384 48.251C131.384 50.714 132.062 60.4832 132.137 60.6414C129.61 61.2078 127.147 62.0279 124.785 63.0893C125.011 40.8167 125.027 41.9465 124.68 41.9465H107.703C109.934 39.4118 112.795 37.5101 115.995 36.433C116.441 36.9195 116.991 37.2994 117.604 37.5445C118.217 37.7896 118.877 37.8937 119.536 37.849C122.94 37.849 124.13 36.1242 124.431 35.5894C134.977 36.8397 143.465 43.694 145.973 55.0299L132.175 56.5589ZM16.6086 18.4688C16.597 18.4787 16.5877 18.491 16.5813 18.5048C16.5749 18.5186 16.5716 18.5337 16.5715 18.5489C16.5715 18.5641 16.5748 18.5792 16.5812 18.593C16.5875 18.6069 16.5968 18.6192 16.6084 18.6291C16.6199 18.639 16.6335 18.6463 16.6482 18.6505C16.6628 18.6546 16.6782 18.6556 16.6933 18.6532C16.7083 18.6509 16.7227 18.6453 16.7354 18.6369C16.7481 18.6284 16.7588 18.6173 16.7668 18.6044C16.8421 18.5215 17.7158 17.6026 18.4464 16.7665C24.7132 9.55071 25.7677 6.35707 16.6086 18.4688ZM23.4854 13.3545C24.0654 12.3677 24.1633 12.2246 24.0504 12.1568C23.9374 12.089 23.8696 12.2397 23.1917 13.1586C13.8593 25.6545 19.6591 19.8547 23.4854 13.3545ZM22.2125 19.7719C26.9502 12.9929 25.7752 13.6708 22.446 18.529C19.29 23.1312 19.0641 24.261 22.2125 19.7719ZM54.8192 7.64507C55.2862 7.73546 55.708 7.81078 56.062 7.89363C56.0755 7.90134 56.0905 7.90598 56.1059 7.90722C56.1214 7.90847 56.1369 7.9063 56.1515 7.90085C56.166 7.8954 56.1791 7.88682 56.1899 7.87572C56.2008 7.86462 56.209 7.85126 56.2141 7.83661C56.2192 7.82196 56.2209 7.80637 56.2193 7.79095C56.2176 7.77553 56.2126 7.76066 56.2046 7.7474C56.1965 7.73415 56.1857 7.72283 56.1727 7.71426C56.1598 7.70568 56.1452 7.70006 56.1298 7.6978C51.3996 5.59632 45.0425 5.71684 54.8192 7.64507ZM51.2791 8.20245C58.8113 10.1759 55.8963 8.5188 51.136 7.69026C49.14 7.34378 48.7031 7.53209 51.2791 8.20245ZM55.3691 10.4546C55.3825 10.4623 55.3975 10.4669 55.413 10.4682C55.4284 10.4694 55.444 10.4672 55.4585 10.4618C55.473 10.4563 55.4862 10.4478 55.497 10.4367C55.5078 10.4256 55.5161 10.4122 55.5211 10.3975C55.5262 10.3829 55.528 10.3673 55.5263 10.3519C55.5247 10.3365 55.5197 10.3216 55.5116 10.3083C55.5036 10.2951 55.4927 10.2838 55.4798 10.2752C55.4669 10.2666 55.4522 10.261 55.4369 10.2587C52.1303 8.82762 45.4191 8.20245 51.6708 9.69382C55.1055 10.545 54.1564 10.1909 55.3691 10.4546ZM55.9265 57.2444C56.0168 57.5306 61.6283 55.7379 61.5982 55.5572C61.5078 55.158 55.8361 56.9506 55.9265 57.2444ZM55.4745 55.9187C54.8343 56.1748 54.7213 56.1974 54.774 56.2953C54.8268 56.3932 56.8981 55.8509 56.9734 55.8283C62.1857 54.3144 59.5419 54.2993 55.4745 55.9187ZM59.0523 53.7344C60.4156 53.2372 59.3611 53.2824 57.3049 53.8775C51.844 55.4592 53.5162 55.7379 59.0523 53.7344ZM28.6224 58.6378C28.6224 60.3024 30.8368 61.1385 32.17 60.0237C33.5032 58.909 32.5994 56.7924 30.7314 56.8979C30.4782 56.8709 30.2221 56.8947 29.9782 56.968C29.7344 57.0412 29.5076 57.1625 29.3111 57.3245C29.1147 57.4866 28.9526 57.6862 28.8343 57.9117C28.7161 58.1372 28.644 58.3841 28.6224 58.6378ZM30.7314 57.1841C32.2378 57.267 32.9308 58.7583 31.8461 59.6321C30.7615 60.5058 29.1195 59.8053 29.0969 58.6378C29.124 58.2281 29.3117 57.8457 29.6191 57.5735C29.9266 57.3013 30.3289 57.1614 30.7389 57.1841H30.7314Z" fill="black"/>
<path id="Vector_3" d="M83.5542 31.8911C80.805 26.837 75.4195 27.1157 73.544 27.3718C72.7786 24.878 71.6136 22.5249 70.0942 20.4045C69.1982 18.6279 67.932 17.0638 66.3809 15.8174C67.7593 14.6273 70.4633 9.52053 70.3353 9.22678C70.2599 9.0686 70.3353 9.15146 68.2187 8.47356C63.4358 6.96713 63.5036 6.82402 63.3529 7.13284C62.4114 9.20418 58.5399 13.8214 58.6679 13.957C57.3308 14.1734 56.0504 14.6549 54.9019 15.373C55.471 14.0192 55.9368 12.6243 56.2953 11.2002C56.7877 9.51231 57.1057 7.77838 57.2444 6.02561C57.2474 5.96464 57.2287 5.90457 57.1914 5.85624C57.1541 5.8079 57.1007 5.77447 57.041 5.76198C49.2226 4.00699 49.0644 3.82622 49.0569 4.25555C48.9134 6.13332 48.5649 7.98975 48.0175 9.79169C41.3515 5.84484 33.0812 8.36058 27.6128 13.972C24.3213 9.03847 23.3496 5.72432 22.86 6.5378C20.8188 9.86701 14.311 16.5254 14.3864 16.8267C15.5828 20.4335 17.6227 23.7027 20.3368 26.3624C19.8622 27.8011 19.6589 28.705 19.6589 28.705C19.6589 28.705 10.3566 27.5073 8.9632 37.962C7.72792 47.1588 14.0022 51.2111 22.5211 52.1224L26.6939 52.4162C26.5885 52.7476 23.907 61.6732 24.1028 61.982C24.4041 62.5168 43.6865 65.6351 44.1083 64.6108C45.1251 61.6732 47.43 55.7755 47.7237 52.3409L51.3768 52.2279C52.0123 54.0258 52.9164 55.7171 54.0583 57.2443C54.2917 57.5456 55.7078 59.3157 56.0618 59.1876C68.1133 54.6683 62.9311 58.0051 60.3551 51.904C67.5408 51.6555 72.9414 51.437 73.8151 51.437C88.9849 51.4596 86.9587 36.3049 83.5542 31.8911ZM63.7145 7.58477C65.2812 8.11202 68.1434 9.0912 69.7402 9.513C69.0774 10.8161 67.1567 14.5671 66.0495 15.5839C65.0667 14.8583 63.9485 14.3371 62.7608 14.0512C61.5732 13.7653 60.3402 13.7204 59.1349 13.9193C60.8423 11.9447 62.3746 9.82515 63.7145 7.58477ZM49.4938 4.5719L56.687 6.22145C56.3582 9.48292 55.5669 12.681 54.3369 15.7195L54.2315 15.8174C52.8004 14.1528 51.4823 11.9007 48.4694 10.0327C49.0196 8.26045 49.3634 6.43057 49.4938 4.57943V4.5719ZM14.9136 16.8117C17.0527 14.552 21.3235 9.79922 23.0483 7.17803C24.2924 9.65089 25.7068 12.0343 27.2814 14.311C24.2564 17.6181 21.9597 21.5237 20.5401 25.7749C18.0279 23.2376 16.1067 20.1771 14.9136 16.8117ZM47.3848 52.3409C47.0383 55.3537 44.7937 61.4548 43.7091 64.2718C38.2859 64.2266 29.8273 62.7654 24.5623 61.6883C25.1272 59.3232 26.4378 54.7512 27.1232 52.4388L28.4564 52.4915C25.662 61.3569 26.0235 60.7769 26.0989 60.9275C26.1742 61.0782 25.6319 60.9275 34.5198 62.2155C43.4078 63.5035 42.9784 63.4659 43.0688 63.1872C43.7467 60.807 45.4339 55.4065 45.8859 52.3785L47.3923 52.3409H47.3848ZM31.7781 56.0015C32.0945 56.2199 32.328 56.0844 32.6669 55.8433C33.8276 54.9162 34.9224 53.9095 35.9434 52.8305C36.6013 54.3827 37.356 55.8921 38.2031 57.3498C38.8659 58.457 39.6191 59.6094 40.5606 58.8562C41.8185 57.8168 43.807 53.885 44.5225 52.4162H45.6222C45.1628 54.9018 43.4379 60.453 42.6847 62.8708C37.7888 62.1779 31.7631 61.3644 26.6111 60.6112C27.4471 57.6661 28.0572 55.5044 28.8707 52.5066H29.7294C30.0608 53.305 31.0701 55.5194 31.7781 56.0015ZM30.1286 52.5292C31.748 52.5292 33.4352 52.5668 35.4689 52.5292C32.0643 56.107 32.0794 55.768 31.8158 55.542C31.1352 54.6087 30.5688 53.5972 30.1286 52.5292ZM36.3803 52.5292C38.429 52.5292 40.8318 52.4765 44.0631 52.4011C43.6337 53.1544 40.5606 59.0068 39.7848 58.5624C38.7755 57.9975 36.8473 53.6213 36.3878 52.5442L36.3803 52.5292ZM62.8633 56.1522C60.5767 56.9786 58.2944 57.8172 56.0166 58.6679C54.1788 57.0334 52.7853 54.4273 51.8438 52.1978C54.7136 52.1149 57.2971 52.0245 59.9183 51.9341C60.4957 53.5892 61.5171 55.0536 62.8709 56.1672L62.8633 56.1522ZM73.4837 50.729C71.096 50.729 33.4653 52.3333 25.3682 51.4822C8.45854 49.7649 11.366 36.1543 15.7723 32.3882C17.7227 30.8597 20.1802 30.1276 22.6491 30.3394C23.2442 30.4148 23.5756 24.4869 28.931 18.0846C31.8001 14.493 35.8479 12.0328 40.3573 11.1399C46.2926 10.0553 51.7459 12.202 55.6023 18.2654C55.6136 18.2847 55.6288 18.3013 55.647 18.3143C55.6652 18.3273 55.6859 18.3363 55.7078 18.3407C55.7268 18.349 55.7473 18.3533 55.7681 18.3533C55.7888 18.3533 55.8093 18.349 55.8283 18.3407C55.8283 18.3407 61.9746 14.0172 67.5032 18.3407C69.7628 20.1409 72.0225 23.4324 73.5967 29.1268L73.8678 29.2849C73.9432 29.3226 84.089 27.0253 85.0004 39.1973C85.5804 46.9328 81.8067 50.7441 73.4912 50.7441L73.4837 50.729Z" fill="black"/>
<path id="Vector_4" d="M56.9057 38.6323C57.561 36.689 57.9903 36.6438 57.7944 36.5007C57.5986 36.3576 56.2127 38.2406 55.9943 40.3496C54.7241 39.4385 53.1757 38.9994 51.6163 39.1081C50.0569 39.2167 48.5844 39.8663 47.4528 40.9447C47.0988 38.8131 44.8467 37.6757 44.7337 37.9318C44.6207 38.1879 44.8693 38.0373 45.5547 38.685C48.7257 41.6452 45.6451 44.7107 45.984 44.9442C46.0035 44.9622 46.029 44.9722 46.0556 44.9722C46.0821 44.9722 46.1076 44.9622 46.1271 44.9442C46.5893 44.4559 46.9482 43.8793 47.1824 43.249C47.4167 42.6188 47.5215 41.9478 47.4904 41.2761C48.6879 40.3526 50.1309 39.8022 51.6392 39.6937C53.1475 39.5852 54.6543 39.9234 55.9717 40.666C55.806 43.2269 57.5685 45.1476 57.802 44.9442C58.0355 44.7409 55.4745 42.888 56.9057 38.6323ZM44.9521 23.0106C44.9521 22.8825 44.7864 22.8298 44.7487 22.9654C43.6264 25.6694 42.0824 25.8728 41.9995 25.9783C41.9838 25.974 41.9674 25.9733 41.9515 25.9764C41.9356 25.9795 41.9206 25.9862 41.9076 25.9961C41.8947 26.0059 41.8843 26.0186 41.8771 26.0332C41.8699 26.0477 41.8661 26.0637 41.8661 26.0799C41.8661 26.0962 41.8699 26.1122 41.8771 26.1267C41.8843 26.1413 41.8947 26.154 41.9076 26.1638C41.9206 26.1736 41.9356 26.1804 41.9515 26.1835C41.9674 26.1866 41.9838 26.1859 41.9995 26.1816C42.3977 26.1798 42.7899 26.0844 43.1444 25.9029C43.6618 25.6084 44.0978 25.1898 44.4133 24.685C44.7289 24.1801 44.914 23.6047 44.9521 23.0106ZM58.0957 25.6996C55.7457 25.4811 54.8192 23.116 54.5104 22.6867C54.5104 22.6114 54.1112 22.3402 54.5104 23.3947C55.4745 26.159 58.2765 26.1666 58.2313 25.805C58.232 25.7882 58.2287 25.7715 58.2216 25.7563C58.2146 25.741 58.204 25.7277 58.1907 25.7174C58.1774 25.707 58.1619 25.7 58.1454 25.6969C58.1289 25.6939 58.1118 25.6948 58.0957 25.6996ZM12.5036 54.8114C12.5258 54.8053 12.5455 54.792 12.5595 54.7736C12.5735 54.7553 12.5811 54.7328 12.5811 54.7097C12.5811 54.6866 12.5735 54.6641 12.5595 54.6458C12.5455 54.6274 12.5258 54.6141 12.5036 54.608C7.84115 53.8096 6.0259 50.4653 4.39895 46.3829C4.39722 46.3692 4.39262 46.356 4.38543 46.3442C4.37825 46.3324 4.36865 46.3223 4.35727 46.3144C4.34589 46.3066 4.33298 46.3013 4.31939 46.2988C4.30581 46.2963 4.29185 46.2967 4.27843 46.3C3.84157 46.3829 5.73214 54.3368 12.5036 54.8114ZM13.9723 56.2425C13.8593 55.9035 9.24213 58.1481 4.93373 54.8641C3.96208 54.1109 3.96208 53.8247 3.81144 53.9376C3.79344 53.9571 3.78345 53.9827 3.78345 54.0092C3.78345 54.0357 3.79344 54.0613 3.81144 54.0808C3.88676 54.1259 7.0578 59.0896 13.9347 56.3404C13.9489 56.3288 13.9599 56.3136 13.9665 56.2965C13.9731 56.2793 13.9751 56.2607 13.9723 56.2425ZM75.7135 19.0411C76.8864 17.7118 77.7154 16.1151 78.1278 14.3908C78.5401 12.6666 78.5232 10.8676 78.0786 9.15141C77.589 7.16292 77.3781 7.6977 77.4157 7.79562C77.7966 9.20621 77.9591 10.6668 77.8978 12.1266C77.7879 14.5662 76.9714 16.9214 75.5478 18.9056C75.5388 18.9164 75.5322 18.929 75.5281 18.9424C75.5241 18.9559 75.5227 18.97 75.5241 18.984C75.5255 18.998 75.5296 19.0116 75.5363 19.024C75.5429 19.0363 75.5519 19.0473 75.5628 19.0562C75.5737 19.0651 75.5862 19.0718 75.5997 19.0758C75.6131 19.0799 75.6273 19.0813 75.6413 19.0799C75.6552 19.0785 75.6688 19.0743 75.6812 19.0677C75.6936 19.061 75.7046 19.052 75.7135 19.0411ZM80.6621 15.1244C81.1441 13.4071 80.7224 13.7385 80.7073 13.8364C79.7364 17.0251 77.8475 19.8571 75.2766 21.9787C75.2668 21.9878 75.259 21.9989 75.2536 22.0112C75.2483 22.0235 75.2455 22.0368 75.2455 22.0502C75.2455 22.0637 75.2483 22.0769 75.2536 22.0892C75.259 22.1016 75.2668 22.1126 75.2766 22.1218C75.5026 22.4381 79.5097 19.252 80.6621 15.1244ZM17.166 72.8283C17.1283 72.6023 17.053 72.4592 16.9023 72.4818C16.7517 72.5044 12.8048 80.1872 12.8425 80.3002C16.0361 87.1545 26.0163 93.2028 26.4004 92.4345C30.3397 83.3959 30.2493 83.8855 30.1665 83.6972C29.9857 83.3583 21.738 81.2869 17.166 72.8283ZM28.999 83.7273C25.376 83.6219 23.508 83.5842 19.3729 83.5918C19.0716 82.477 18.9134 81.6108 17.3618 73.8C20.0089 78.328 24.1104 81.8269 28.999 83.7273ZM16.9023 73.0618C17.3392 76.2328 17.7836 78.5076 18.1602 80.4734C16.587 80.2288 14.9992 80.0904 13.4074 80.0592L16.9023 73.0618ZM13.43 80.594C15.0118 80.9062 16.6305 80.9874 18.2355 80.835C18.5067 82.2284 18.7402 83.2905 18.9285 83.9232C18.9445 83.9769 18.9772 84.0242 19.0219 84.058C19.0666 84.0919 19.121 84.1106 19.1771 84.1115H22.3707C23.1796 86.7735 24.2651 89.3434 25.6095 91.7792C20.9245 89.2861 15.8629 85.3468 13.43 80.594ZM26.084 91.7792C25.6924 90.9206 24.1935 87.0867 22.7925 84.104C25.0973 84.104 26.7845 84.0437 29.5714 83.9608L26.084 91.7792ZM45.5246 32.7497V31.1227C45.5324 30.9057 45.4599 30.6935 45.3209 30.5267C45.1819 30.3599 44.9862 30.2503 44.7713 30.2189C43.7244 30.136 43.9277 31.5897 44.0181 32.7572C44.0186 32.8561 44.0386 32.954 44.0769 33.0452C44.1152 33.1364 44.1711 33.2191 44.2414 33.2887C44.3117 33.3583 44.395 33.4134 44.4866 33.4508C44.5781 33.4882 44.6762 33.5071 44.7751 33.5067C44.874 33.5062 44.9719 33.4862 45.0631 33.4479C45.1543 33.4096 45.237 33.3537 45.3066 33.2834C45.3762 33.2131 45.4313 33.1298 45.4687 33.0382C45.5061 32.9466 45.525 32.8486 45.5246 32.7497ZM111.333 24.6978C111.288 25.1045 111.19 25.6167 111.567 25.6468C111.943 25.677 111.853 25.1648 111.89 24.7806C111.896 24.744 111.894 24.7067 111.885 24.6708C111.876 24.6349 111.86 24.6012 111.838 24.5714C111.816 24.5417 111.788 24.5166 111.757 24.4976C111.725 24.4786 111.69 24.466 111.653 24.4605C111.579 24.4495 111.504 24.4684 111.444 24.5129C111.384 24.5574 111.344 24.6239 111.333 24.6978ZM57.8698 30.8214C57.8795 30.6032 57.8079 30.3891 57.6687 30.2207C57.5295 30.0523 57.3327 29.9416 57.1166 29.91C56.0696 29.8272 56.2729 31.2809 56.3633 32.4484C56.3633 32.6561 56.4459 32.8554 56.5928 33.0023C56.7397 33.1492 56.9389 33.2317 57.1467 33.2317C57.3544 33.2317 57.5537 33.1492 57.7006 33.0023C57.8475 32.8554 57.93 32.6561 57.93 32.4484C57.8622 31.8985 57.8547 31.3638 57.8698 30.8214ZM115.754 24.9087C115.709 25.323 115.611 25.8351 115.988 25.8653C116.365 25.8954 116.274 25.3832 116.312 24.9991C116.325 24.9597 116.33 24.9179 116.325 24.8766C116.321 24.8352 116.307 24.7954 116.286 24.7598C116.264 24.7242 116.235 24.6937 116.201 24.6704C116.167 24.6471 116.128 24.6316 116.086 24.6249C116.045 24.6183 116.003 24.6206 115.963 24.6318C115.923 24.6431 115.886 24.6629 115.855 24.6899C115.823 24.7169 115.798 24.7504 115.78 24.7882C115.763 24.826 115.754 24.8671 115.754 24.9087ZM59.1201 103.326C53.2601 105.661 47.8746 101.82 47.8219 101.767C47.805 101.756 47.7854 101.75 47.7654 101.75C47.7454 101.75 47.7258 101.756 47.7089 101.767C47.6924 101.777 47.6789 101.792 47.6696 101.809C47.6604 101.826 47.6558 101.845 47.6562 101.865C47.7767 104.396 48.7935 113.479 49.0571 113.63C55.3766 117.223 62.9013 115.784 63.0142 115.332C62.4963 114.174 62.0682 112.978 61.7338 111.755C59.331 103.861 59.6022 103.138 59.1201 103.326ZM53.7949 114.948C53.5764 113.118 53.5011 113.027 53.3731 113.005C52.4843 112.817 52.3713 111.604 52.3336 111.498C52.2884 111.175 51.829 111.822 51.3243 110.843C51.1385 110.508 51.0873 110.115 51.1812 109.743C51.3921 109.359 51.716 109.743 51.7913 109.743C51.8095 109.762 51.8324 109.776 51.8576 109.782C51.8828 109.789 51.9094 109.788 51.9344 109.781C52.0097 109.939 52.1303 110.241 52.2809 110.632H52.6274C52.6141 110.082 52.5435 109.534 52.4165 108.998C52.3562 108.757 52.7027 107.439 52.6274 107.213C52.6274 107.213 54.6083 108.207 55.6403 106.715C55.8181 107.226 56.1335 107.677 56.5516 108.019C56.5516 108.019 56.7625 109.344 56.9508 109.992L57.5986 109.653V109.088C57.7267 109.028 57.8622 108.983 57.9677 109.088C58.1008 109.263 58.194 109.465 58.2409 109.68C58.2877 109.894 58.287 110.117 58.2388 110.331C58.0581 110.798 57.7041 110.73 57.7267 110.926C57.794 111.205 57.7669 111.498 57.6497 111.76C57.5324 112.021 57.3317 112.237 57.0789 112.372C56.8906 112.447 56.9433 112.576 57.8321 115.385C56.4741 115.395 55.1194 115.248 53.7949 114.948ZM62.3213 115.084C60.9397 115.355 59.5336 115.481 58.1259 115.46L57.2446 112.591C57.5059 112.443 57.7172 112.221 57.8514 111.952C57.9856 111.684 58.0366 111.382 57.9978 111.084C59.0523 110.504 58.51 108.591 57.5986 108.885C57.5986 107.996 57.3275 105.179 55.339 105.443C53.1245 105.736 51.5202 105.443 51.49 109.359C50.3828 109.246 50.9176 111.868 52.1529 111.724C52.1874 112.057 52.3133 112.374 52.5167 112.64C52.72 112.906 52.993 113.11 53.3053 113.231L53.5312 114.941C52.0869 114.583 50.6945 114.042 49.3886 113.329C48.9366 110.504 48.2135 105.194 47.9876 102.324C49.5837 103.436 51.418 104.157 53.3434 104.432C55.2687 104.707 57.2317 104.527 59.0749 103.906C59.5042 105.646 61.4852 113.427 62.3213 115.084Z" fill="black"/>
<path id="Vector_5" d="M55.4444 110.678C55.6704 110.339 54.179 108.29 55 110.165C55.0753 110.339 55.1055 110.406 55.1356 110.489C54.0284 110.798 55.339 110.828 55.4444 110.678ZM53.6292 109.359C53.4107 109.359 53.5011 109.668 53.5538 109.909C53.6066 110.15 53.9305 110.082 53.8777 109.857C53.825 109.631 53.8476 109.344 53.6292 109.359Z" fill="black"/>
<path id="Vector_6" d="M60.747 101.684C60.7164 101.669 60.6829 101.662 60.649 101.662C60.6151 101.662 60.5817 101.669 60.5511 101.684C50.2547 105.269 46.5187 98.4001 46.3982 98.3474C46.3866 98.3285 46.3697 98.3134 46.3496 98.304C46.3295 98.2946 46.3071 98.2914 46.2852 98.2946C46.2643 98.2977 46.245 98.3074 46.23 98.3223C46.2151 98.3372 46.2054 98.3566 46.2024 98.3775C45.5923 101.865 47.4979 114.444 47.5054 114.519C47.5108 114.553 47.5237 114.586 47.5432 114.615C47.5628 114.643 47.5885 114.667 47.6184 114.685C55.7155 119.339 64.6863 116.515 64.2796 115.814C61.8768 111.619 61.0106 101.812 60.747 101.684ZM47.9423 114.308C47.4301 111.182 46.0818 102.053 46.4359 98.9047C48.8612 102.498 53.7948 104.313 60.4381 102.196C60.875 105.864 61.9446 112.515 63.6996 115.792C61.1134 116.641 58.3793 116.945 55.6698 116.684C52.9604 116.424 50.3343 115.604 47.9574 114.278L47.9423 114.308Z" fill="black"/>
<path id="Vector_7" d="M55.5121 111.604C55.3568 111.71 55.173 111.767 54.9849 111.767C54.7967 111.767 54.6129 111.71 54.4576 111.604C54.4049 111.544 54.307 111.604 54.3672 111.687C54.3949 111.742 54.4304 111.793 54.4727 111.838C54.9999 112.47 55.7456 111.732 55.595 111.597C55.5828 111.587 55.5675 111.582 55.552 111.584C55.5366 111.585 55.5223 111.592 55.5121 111.604ZM56.0318 109.088C56.01 109.091 55.9889 109.098 55.9699 109.109C55.9508 109.12 55.9341 109.135 55.9208 109.152C55.9074 109.17 55.8978 109.19 55.8923 109.211C55.8868 109.233 55.8856 109.255 55.8887 109.277C55.8887 109.518 55.9415 109.819 56.1524 109.789C56.1744 109.784 56.1953 109.776 56.2138 109.763C56.2323 109.75 56.2481 109.734 56.26 109.715C56.272 109.696 56.28 109.674 56.2835 109.652C56.287 109.63 56.286 109.607 56.2804 109.585C56.2277 109.367 56.2427 109.073 56.0318 109.088Z" fill="black"/>
</g>
</g>
</svg>
