<svg width="151" height="151" viewBox="0 0 151 151" fill="none" xmlns="http://www.w3.org/2000/svg">
<g id="Downloading-1--Streamline-Milano">
<path id="Vector" fill-rule="evenodd" clip-rule="evenodd" d="M140.851 67.6462C141.613 67.2876 142.222 66.6711 142.572 65.9059C142.923 65.1408 142.991 64.2764 142.765 63.4659C141.559 60.0387 135.986 60.0613 135.18 63.9103C134.555 67.0211 137.936 69.1828 140.851 67.6764V67.6462ZM85.7913 84.3601C88.6761 84.4656 89.226 89.0451 85.7461 88.9924C82.2662 88.9397 82.8312 84.2471 85.7913 84.3601ZM50.6236 21.0221C51.1885 20.6832 51.3769 20.8564 51.7384 20.766C52.0999 20.6757 51.7384 20.2162 51.0304 20.4497C50.3223 20.6832 50.3525 21.2029 50.6236 21.0221ZM49.3658 26.8822C50.5332 26.4152 50.7818 27.8839 51.3618 27.6354C51.3765 27.6306 51.39 27.6227 51.4013 27.6121C51.4127 27.6015 51.4215 27.5886 51.4273 27.5742C51.433 27.5598 51.4355 27.5443 51.4346 27.5289C51.4337 27.5134 51.4294 27.4984 51.422 27.4847C51.415 27.466 51.4027 27.4497 51.3867 27.4377C51.3707 27.4257 51.3516 27.4185 51.3317 27.4169C50.8421 27.3642 50.5784 26.0536 49.2904 26.6637C49.2634 26.6768 49.2423 26.6995 49.2312 26.7274C49.22 26.7553 49.2197 26.7863 49.2302 26.8144C49.2359 26.8284 49.2444 26.8411 49.2552 26.8517C49.2659 26.8624 49.2787 26.8708 49.2928 26.8764C49.3068 26.882 49.3218 26.8848 49.337 26.8845C49.3521 26.8841 49.367 26.8808 49.3808 26.8746L49.3658 26.8822ZM55.4517 24.6602C55.8434 24.6602 55.7907 23.7563 55.5949 23.7337C55.2333 23.7337 55.045 24.6677 55.4517 24.6602ZM100.313 88.209C100.717 87.829 100.98 87.3236 101.059 86.7751C101.139 86.2267 101.031 85.6673 100.753 85.1881C100.474 84.7089 100.042 84.3379 99.5258 84.1356C99.0098 83.9333 98.4405 83.9116 97.9105 84.0739C94.1445 85.1811 97.0217 91.3499 100.313 88.209ZM51.2789 22.5964C50.7893 22.6491 50.8496 23.6885 51.2789 23.5153C51.5124 23.4249 51.6179 22.5662 51.2789 22.5964ZM146.666 70.9529C146.719 73.0543 146.99 90.9658 146.824 96.6074C146.659 102.249 144.911 102.294 139.819 102.4C131.986 102.52 71.6836 102.482 65.3264 102.49C64.8011 112.86 63.5426 123.18 61.5603 133.372C61.5151 133.613 59.3007 133.53 58.9542 133.538C59.0672 133.688 58.796 138.479 58.781 138.983C61.3788 139.546 63.6744 141.055 65.221 143.216H137.839C138.072 143.216 138.072 143.819 137.839 143.819C137.726 143.819 9.72399 143.774 3.8941 143.638C3.77358 143.638 3.77358 143.277 3.8941 143.277C5.45325 143.231 7.00488 143.231 8.57157 143.209C9.55828 140.588 13.4599 139.563 15.9154 139.315L17.4219 133.553C17.1959 133.553 15.3279 133.507 15.4409 133.048C19.7719 115.468 23.8995 95.7939 29.5788 79.0047C28.1401 78.0707 27.5827 76.0672 27.515 74.4327C24.0224 71.8524 20.6708 69.0867 17.4746 66.1473C14.0023 62.9763 8.82013 57.8017 8.98584 52.7175C9.20427 46.2474 15.7196 41.4192 20.8264 38.4064C20.3198 37.5915 20.1002 36.6307 20.2025 35.6766C20.3049 34.7226 20.7233 33.8302 21.3913 33.1414C22.7094 31.8911 24.841 31.5596 25.7976 29.9101C27.5526 26.8445 21.4817 23.8316 24.9691 20.0354C26.2872 18.6043 27.7485 18.8002 29.4884 18.642C33.4578 18.2729 32.2903 14.4918 32.3958 12.202C32.6896 6.07833 42.6697 4.44385 46.0215 10.8387C40.5682 12.7292 38.655 17.5348 40.4477 22.9805C39.009 23.2818 37.7286 24.7807 38.6475 25.9482C39.9732 27.6203 41.7658 28.6748 40.41 32.0417L41.585 31.9136C41.6099 31.7855 41.6604 31.6638 41.7337 31.5558C41.807 31.4478 41.9014 31.3558 42.0112 31.2854C42.1211 31.215 42.2441 31.1676 42.3728 31.1461C42.5015 31.1246 42.6333 31.1295 42.7601 31.1604C42.932 29.9028 43.2143 28.6627 43.6037 27.4546C42.3874 26.1773 41.4939 24.6278 40.9975 22.9353C37.6608 10.3114 51.3618 8.36058 57.0486 13.6933C59.4739 15.953 59.617 19.2671 57.9524 19.7191C58.0353 23.2893 57.4628 30.3093 53.2147 31.3186C52.2215 31.554 51.1848 31.5333 50.2018 31.2584C50.1039 31.5973 50.006 31.9739 49.9081 32.3279C50.1504 32.4253 50.3669 32.5774 50.5408 32.7723C58.9165 33.3598 67.571 38.5947 73.7172 44.0706C75.9591 45.9142 77.728 48.2668 78.8768 50.9324C79.8108 53.3728 80.1874 56.7698 77.8901 58.585C88.3974 58.2687 114.097 57.9674 139.654 58.3064C142.403 58.3064 145.341 58.6679 146.124 61.8841C146.576 63.6994 146.591 68.7987 146.644 70.998L146.666 70.9529ZM102.023 58.5775C114.552 58.4721 127.075 58.5047 139.594 58.6754C143.706 58.7282 145.717 59.1048 146.056 64.076C146.229 66.5315 146.229 69.002 146.275 71.4575C61.7637 71.5554 68.7686 71.5027 66.6671 71.5554C67.0526 67.2485 67.0123 62.9141 66.5466 58.6152C69.7026 59.6395 74.237 60.6714 77.3176 58.9014C85.5503 58.7959 93.7829 58.6076 102.016 58.5398L102.023 58.5775ZM76.828 47.8894C71.8304 48.3029 66.8626 49.0198 61.952 50.036C60.8222 50.3072 59.6924 50.6461 58.5701 50.9098C58.4551 51.0153 58.3257 51.104 58.1859 51.1734C58.9391 51.8739 58.8036 54.239 58.329 55.2257C62.9613 56.9807 72.4744 61.3945 77.1594 58.683C80.8276 56.5815 78.9747 50.8947 76.813 47.8894H76.828ZM53.3352 55.7379C53.2597 55.6288 53.2144 55.5016 53.2038 55.3694C53.1932 55.2371 53.2178 55.1044 53.275 54.9847C53.8248 53.2824 55.0224 54.352 56.1296 54.4423C56.5891 53.2146 56.4234 52.8531 56.3556 51.6705C56.0741 51.7048 55.7885 51.6675 55.5252 51.5622C55.2619 51.4569 55.0294 51.2869 54.8492 51.0679C54.2466 51.2337 51.7911 50.8269 50.6312 52.8832C50.1725 53.5583 49.8807 54.3328 49.78 55.1428C49.78 56.5438 51.0906 53.9528 51.2865 53.9678C51.7836 52.6422 52.2129 52.951 52.0999 53.1393C51.958 53.3585 51.8273 53.5847 51.7083 53.8172C50.6839 55.9789 52.0321 58.2009 51.9945 56.5137C52.0397 56.1296 52.0773 55.7605 52.115 55.3613C52.0623 53.8548 53.3201 53.418 53.0113 53.8548C52.1602 55.1052 52.0547 55.8057 53.6892 56.6191C54.5404 57.0409 53.3503 55.7454 53.3051 55.7078L53.3352 55.7379ZM55.2559 50.6009C55.0676 51.2562 56.7623 51.196 57.1465 51.0981C57.5306 51.0001 58.6529 50.5708 58.3366 50.0586C58.0202 49.5464 55.4517 49.908 55.2559 50.6009ZM75.5024 46.2624C71.674 46.4275 67.8949 47.1899 64.302 48.5221C64.3849 48.7254 64.4602 48.9288 64.5355 49.1397C68.5105 48.3284 72.5376 47.7973 76.587 47.5504C76.248 47.0985 75.879 46.6616 75.4948 46.2398M50.4655 33.4125C50.4439 33.2438 50.3762 33.0842 50.2699 32.9513C50.1636 32.8185 50.0228 32.7174 49.8629 32.6593C49.7119 32.6051 49.5485 32.595 49.392 32.6304C49.2354 32.6657 49.0922 32.745 48.9791 32.8588C48.8661 32.9727 48.7878 33.1165 48.7536 33.2732C48.7193 33.43 48.7305 33.5933 48.7858 33.744C49.313 34.4972 50.5784 34.5499 50.4655 33.4276V33.4125ZM44.0179 27.206C45.5244 22.6265 43.9652 23.794 43.7016 21.6699C43.6263 21.105 43.7016 20.1635 44.4021 20.1635C45.5846 20.0882 45.6825 22.2047 46.8274 21.7528C47.8443 21.346 48.5297 18.6269 49.2603 18.4311C51.7309 17.7532 55.286 19.9375 57.6361 19.7944C57.6361 23.7262 57.1691 31.0926 51.9041 31.1454C49.4938 31.1454 50.006 30.2867 49.6445 32.3053C49.3613 32.2872 49.0816 32.3763 48.8611 32.5549C48.6406 32.7336 48.4954 32.9886 48.4544 33.2694C48.2811 33.0889 48.0708 32.948 47.8379 32.8566C47.6051 32.7651 47.3551 32.7251 47.1053 32.7394C46.8555 32.7537 46.6118 32.822 46.3909 32.9395C46.17 33.057 45.9771 33.2209 45.8256 33.4201C45.547 32.5313 44.613 32.4861 43.8522 32.7422C43.9184 32.4285 43.8667 32.1014 43.7069 31.8235C43.5471 31.5456 43.2904 31.3363 42.986 31.2358C43.2555 29.8802 43.5975 28.5401 44.0104 27.2211L44.0179 27.206ZM48.2736 34.8663C48.4086 34.6503 48.4745 34.3983 48.4624 34.1439C48.4503 33.8895 48.3608 33.6448 48.2058 33.4427C47.5882 32.6895 45.8708 33.0284 45.9462 34.0829C46.0215 35.1374 47.8518 35.514 48.2962 34.8361M45.4566 34.226C46.2098 33.0435 44.146 32.2903 43.566 33.277C42.986 34.2637 44.7937 35.2881 45.4566 34.226ZM42.052 31.635C41.2988 32.6518 43.1367 33.8946 43.5585 32.6518C43.8447 31.7479 42.5416 31.0098 42.052 31.635ZM40.6435 32.3129C39.9581 32.3731 39.2877 32.4484 38.6174 32.5388C39.815 36.5987 42.3383 40.9071 47.0609 41.2008C53.7344 41.6151 54.3822 33.8268 54.5931 33.6686C53.3244 33.3679 52.0392 33.1415 50.7441 32.9907C50.8593 33.2375 50.8815 33.5176 50.8066 33.7794C50.7317 34.0412 50.5648 34.2671 50.3365 34.4156C50.1082 34.5641 49.834 34.6252 49.5643 34.5876C49.2946 34.55 49.0476 34.4162 48.8686 34.211C48.8686 36.094 45.9914 35.8153 45.7202 34.3993C44.967 35.5969 42.8655 34.7683 43.2346 33.3824C43.0541 33.4606 42.8569 33.4923 42.6611 33.4745C42.4652 33.4567 42.2769 33.39 42.1135 33.2806C41.9501 33.1711 41.8168 33.0224 41.7258 32.8481C41.6348 32.6738 41.589 32.4794 41.5926 32.2827C41.2913 32.2827 40.99 32.2827 40.6887 32.3355L40.6435 32.3129ZM38.3839 32.5765L36.9678 32.7949C37.0868 33.8144 37.3192 34.8173 37.6608 35.7852C40.1615 42.2553 48.8988 45.7126 53.7796 39.5513C55.1064 38.0244 55.806 36.0519 55.738 34.0302C55.4367 33.9398 55.1279 33.8569 54.819 33.7816C54.2617 38.896 50.9023 41.8109 47.0082 41.5624C42.3232 41.2686 39.3028 36.9075 38.414 32.6066M15.5012 42.5114C15.23 42.7298 14.9664 42.9558 14.7027 43.1893C19.0337 45.2983 23.3497 50.149 25.3834 53.1619C25.9165 52.8332 26.4729 52.5437 27.048 52.2957C24.1802 48.0253 20.1827 44.6354 15.5012 42.5039V42.5114ZM29.3754 69.8381C28.8444 63.8668 28.8444 57.8602 29.3754 51.8889C27.0622 52.5311 24.9179 53.6727 23.0936 55.2332C24.5631 60.347 26.6738 65.2542 29.3754 69.8381ZM27.4848 74.0787C27.5008 73.3867 27.6755 72.7076 27.9954 72.0938C28.3154 71.48 28.772 70.9479 29.3302 70.5386C26.1086 65.1285 23.7383 59.255 22.3027 53.1242C22.3027 52.9962 22.5061 52.9359 22.5362 53.064C22.7019 53.7042 22.8751 54.3444 23.0559 54.9771C23.6738 54.3788 24.3501 53.8439 25.0745 53.3803C23.7564 51.5349 18.8304 45.464 14.5672 43.3324C13.5966 44.1748 12.7088 45.108 11.9158 46.1193C5.83739 53.998 10.8839 59.858 18.4086 66.6294C21.316 69.2456 24.3414 71.7287 27.4848 74.0787ZM29.3302 78.5302C29.5637 78.7411 30.0834 79.1704 30.3922 79.0123C31.1003 78.7034 27.9594 75.6077 28.9385 76.1576C29.4658 76.4589 30.1738 77.6038 31.4392 77.4154C31.7857 77.3627 32.1924 77.0238 31.379 76.7074C31.1907 76.6396 30.1437 76.1199 30.2039 75.9015C29.1796 75.3893 29.1118 74.2595 29.4507 74.6587C29.7897 75.0579 30.0006 75.4721 30.46 75.6605C31.3564 76.0446 32.8929 75.9316 31.2509 74.9826C29.6089 74.0335 29.6014 72.4593 29.4432 70.8022C26.7015 72.9639 27.8313 77.1217 29.3227 78.5001L29.3302 78.5302ZM20.156 139.721L22.7245 134.012L17.6478 133.651L16.0736 139.435C17.4099 139.751 18.7883 139.851 20.156 139.729V139.721ZM52.9435 143.277C52.9059 142.471 52.9435 139.812 53.5009 139.27C53.2448 138.998 53.1243 134.517 53.1318 133.846C52.7251 133.846 50.6839 134.298 50.6688 133.628C50.4655 123.241 50.2847 112.839 49.0569 102.513C47.2869 102.513 44.9896 102.897 43.8823 101.187C28.3435 128.355 27.1609 130.502 25.0896 133.929C24.8787 134.268 23.3873 134.057 23.0107 134.035C18.6345 143.683 21.316 137.974 20.2464 143.254H52.9285L52.9435 143.277ZM49.0117 102.166C48.7255 99.801 48.3866 97.4384 47.9949 95.0784L50.3751 89.2937C50.3829 89.2514 50.3761 89.2078 50.3558 89.17C50.3354 89.1321 50.3028 89.1024 50.2632 89.0857C50.2236 89.069 50.1795 89.0663 50.1382 89.0781C50.0969 89.0899 50.0609 89.1155 50.0361 89.1506C47.7765 94.5361 47.0233 95.6659 44.0706 100.833C44.9594 102.257 47.0609 102.317 49.0117 102.166ZM58.7508 133.613C56.9958 133.613 55.2408 133.756 53.4783 133.831C53.4783 134.441 53.6817 139.262 53.6817 139.262C55.8811 139.413 56.1598 139.548 58.4947 139.021C58.442 138.449 58.4947 133.967 58.7207 133.628L58.7508 133.613ZM32.1171 77.0464C41.0954 78.4323 63.24 77.3326 66.0118 74.493C66.7033 69.1912 66.7665 63.8263 66.2001 58.5097C63.4948 57.648 60.8437 56.6242 58.2612 55.4441C58.0579 55.7906 57.862 55.6174 56.9281 55.3387C56.6418 55.2558 55.9715 55.1202 56.0769 54.6909C55.4141 54.8114 54.4876 54.0055 53.9378 54.48C53.6893 54.7133 53.5274 55.024 53.4783 55.3613C53.4783 55.7529 54.7964 56.5815 54.1562 56.943C53.6666 57.2217 52.5368 56.1898 52.3184 55.8358C52.3184 56.2425 52.3937 57.0409 52.0773 57.297C51.2865 57.9599 50.8421 55.8283 51.1358 54.5779L50.5784 55.3688C49.667 56.6719 49.2151 55.3688 49.7122 54.0959C50.7366 51.4671 51.9116 50.8872 54.7663 50.7441C54.6759 49.0418 59.6095 48.733 58.8487 50.5633C60.6032 50.0217 62.3859 49.5767 64.1891 49.2301C63.13 46.5539 61.9023 43.9476 60.5134 41.4268C60.4456 41.2912 60.6414 41.1556 60.7167 41.2912C62.0065 43.557 63.1634 45.8959 64.1815 48.2961C67.6538 46.8602 71.3495 46.0396 75.1032 45.8707C70.3353 40.8995 62.6525 36.0789 56.1598 34.1432C56.4234 37.962 52.6272 42.3608 48.6276 43.001C42.858 43.8973 36.9076 38.6926 36.6816 32.9004C29.0249 34.2819 21.8273 37.5314 15.7271 42.3608C20.5057 44.4143 24.5813 47.8172 27.4547 52.1526C28.085 51.8726 28.7443 51.6629 29.4206 51.5274C29.6089 49.5238 29.8499 47.5278 30.1738 45.5017C30.1738 45.336 30.4299 45.4038 30.4148 45.5544C29.1907 53.8894 28.9858 62.3424 29.8047 70.7269C29.993 72.6928 29.7219 73.4234 31.3865 74.7039C31.6545 74.8798 31.9065 75.0789 32.1397 75.2989C32.5163 75.7659 31.9137 76.3534 30.6785 76.0521C31.2132 76.3911 32.0719 76.5417 32.1171 77.0313V77.0464ZM69.7101 85.5201C70.4633 87.7044 67.6312 89.7456 66.0118 87.9379C66.0118 88.6459 65.9591 89.3615 65.9365 90.0695C68.0832 90.0695 112.109 90.2729 136.739 89.6627C143.691 89.4895 142.011 82.7407 138.125 82.6352C138.027 82.6352 71.0885 82.6352 66.1625 82.5524C66.1625 83.2529 66.1625 83.9609 66.1098 84.6614C66.377 84.4098 66.7026 84.2285 67.0572 84.1339C67.4119 84.0394 67.7845 84.0344 68.1416 84.1196C68.4986 84.2047 68.8289 84.3773 69.1027 84.6217C69.3765 84.8662 69.5852 85.1749 69.7101 85.5201ZM139.797 102.091C144.685 102.091 146.365 101.985 146.425 96.7053C146.516 88.4199 146.425 80.1346 146.32 71.8492C61.9595 71.9471 68.4221 71.9471 66.6822 71.8492C66.6822 72.2107 66.5165 74.5909 66.2604 74.6662C66.3658 75.216 66.2001 81.3397 66.1775 82.1381C69.8984 82.0929 138.102 82.2511 137.982 82.2511C142.802 82.2511 143.834 89.8511 137.364 89.9866C107.785 90.6043 71.6534 90.5063 65.9214 90.3406C65.7407 94.2574 65.5624 98.1691 65.3867 102.076H139.782L139.797 102.091ZM75.54 85.9494C75.4695 85.4425 75.2344 84.9728 74.8709 84.6125C74.5073 84.2523 74.0355 84.0214 73.528 83.9555C73.0204 83.8896 72.5053 83.9923 72.0618 84.2478C71.6183 84.5032 71.2711 84.8973 71.0734 85.3694C69.6423 88.9924 76.0899 89.8887 75.54 85.9494ZM91.4178 88.7288C90.8531 88.4879 90.3967 88.0478 90.1356 87.4922C89.8745 86.9366 89.8268 86.3044 90.0018 85.7159C90.8454 83.2905 94.5211 83.5692 94.7922 86.1452C94.8284 86.5677 94.7578 86.9924 94.587 87.3805C94.4163 87.7685 94.1507 88.1075 93.8148 88.3662C93.4789 88.6249 93.0833 88.795 92.6645 88.861C92.2457 88.927 91.817 88.8867 91.4178 88.7438M56.0694 21.5946C56.3697 21.7025 56.6316 21.8963 56.8226 22.152C56.9582 22.3553 57.1917 22.0465 56.7247 21.5343C56.2577 21.0221 55.7003 21.3686 56.107 21.5946M81.0385 88.081C81.3993 87.7253 81.63 87.2586 81.6937 86.756C81.7574 86.2533 81.6503 85.7439 81.3896 85.3094C81.1289 84.8749 80.7298 84.5407 80.2563 84.3603C79.7829 84.18 79.2625 84.164 78.7788 84.3149C75.1709 85.3393 78.5228 90.8378 81.0385 88.081ZM53.3653 26.1064C54.4575 26.3022 54.1185 24.8861 54.1185 23.4023C54.1185 23.2667 53.9001 23.2291 53.9001 23.4023C53.7796 26.4152 54.2391 25.903 52.4765 25.5565C52.2129 25.4962 52.2732 25.9482 53.3427 26.1365M137.492 66.1549C137.364 66.2528 137.243 66.072 137.319 65.959C137.71 65.4278 138.138 64.9244 138.599 64.4526C136.927 62.5846 137.002 62.3285 138.87 64.1362C139.284 63.615 139.74 63.1288 140.234 62.6825C140.287 62.6678 140.343 62.6736 140.392 62.6988C140.441 62.7239 140.479 62.7665 140.497 62.8181C140.501 62.8507 140.501 62.8835 140.497 62.916C140.106 63.4608 139.662 63.9654 139.172 64.4225C139.616 64.8669 140.068 65.3113 140.505 65.7632C140.731 65.9967 140.324 66.3055 140.098 66.0645C139.684 65.6351 139.27 65.1907 138.87 64.7463C138.443 65.2392 137.98 65.6999 137.485 66.1247L137.492 66.1549ZM88.1715 38.8056C92.0594 43.7631 96.7518 48.0329 102.053 51.437C102.219 51.5425 102.4 51.6554 102.806 51.2864C104.727 49.5464 114.037 38.7529 114.014 38.1804C113.992 37.608 112.937 37.8942 112.38 37.9017C111.295 37.9017 108.938 37.9017 107.981 38.0072C108.117 35.8304 107.589 26.9951 107.431 23.5002C107.431 22.9579 107.363 22.8525 106.603 22.8751C103.07 22.9579 98.5282 23.101 94.973 23.1161C94.6039 23.1161 94.5738 23.2215 94.6039 23.681C94.7546 26.0612 95.0709 37.8189 95.1387 37.9921C92.8791 38.1427 90.5592 38.2708 88.2618 38.4365C88.1112 38.4365 87.9229 38.4817 88.1865 38.8056H88.1715ZM95.1613 38.3311C92.9996 38.4666 90.5667 38.5721 88.4878 38.6926C92.471 43.465 97.1239 47.6358 102.302 51.0755C106.36 47.0963 110.112 42.8158 113.525 38.2708C112.139 38.2708 109.548 38.2708 108.162 38.316C107.77 38.316 107.732 38.316 107.695 37.5628C107.567 35.032 107.055 24.0049 107.017 23.2517C106.753 23.4249 96.2384 23.5304 94.9655 23.4852C95.2442 25.0744 95.2592 33.0887 95.4927 37.7963C95.4927 37.9243 95.4927 38.3311 95.1462 38.3536L95.1613 38.3311ZM135.579 64.4451C135.775 60.9652 140.686 60.3024 142.245 63.2023C143.058 64.7087 142.207 66.5465 140.693 67.3525C138.524 68.4974 135.421 67.1792 135.579 64.4451Z" fill="black"/>
</g>
</svg>
