<svg width="151" height="151" viewBox="0 0 151 151" fill="none" xmlns="http://www.w3.org/2000/svg">
<g id="E-Commerce-No-Purchases-2--Streamline-Milano">
<g id="E-Commerce-No-Purchases-2--Streamline-Milano.svg">
<path id="Vector" d="M138.773 115.641C137.635 112.493 137.726 112.5 137.507 112.5C137.289 112.5 137.296 112.628 136.618 114.647C136.219 115.837 135.813 117.065 135.293 118.232C135.248 118.33 135.293 118.421 135.481 118.503C135.669 118.586 139.021 118.933 139.518 118.91C139.552 118.925 139.589 118.931 139.626 118.926C139.662 118.921 139.697 118.906 139.725 118.882C139.753 118.859 139.774 118.828 139.786 118.793C139.797 118.758 139.799 118.72 139.79 118.684C139.526 117.788 139.202 116.824 138.773 115.641ZM135.76 118.119C135.684 118.119 135.684 118.541 137.492 113.291C137.891 114.383 138.953 117.494 139.3 118.564C138.908 118.541 137.959 118.428 135.79 118.119H135.76ZM142.418 104.087C142.41 104.05 142.39 104.017 142.36 103.993C142.331 103.969 142.294 103.956 142.256 103.956C142.218 103.956 142.182 103.969 142.152 103.993C142.123 104.017 142.102 104.05 142.094 104.087C142.094 104.426 141.989 105.955 142.034 106.347C142.034 106.535 142.343 106.58 142.381 106.347C142.441 105.993 142.418 104.516 142.418 104.087ZM142.185 108.998C142.185 108.96 142.17 108.924 142.143 108.897C142.116 108.87 142.08 108.855 142.042 108.855C142.004 108.855 141.967 108.87 141.94 108.897C141.914 108.924 141.899 108.96 141.899 108.998C141.899 109.585 141.823 110.188 141.831 110.783C141.831 110.839 141.853 110.893 141.893 110.932C141.932 110.972 141.986 110.994 142.042 110.994C142.098 110.994 142.151 110.972 142.191 110.932C142.23 110.893 142.253 110.839 142.253 110.783C142.253 110.18 142.192 109.585 142.185 108.998ZM141.303 107.416C141.13 107.363 139.797 107.416 139.436 107.416C139.4 107.424 139.369 107.443 139.346 107.472C139.324 107.5 139.312 107.535 139.312 107.571C139.312 107.607 139.324 107.641 139.346 107.669C139.369 107.698 139.4 107.717 139.436 107.725C139.963 107.725 141.13 107.793 141.296 107.725C141.323 107.709 141.345 107.687 141.361 107.661C141.377 107.634 141.386 107.604 141.387 107.573C141.387 107.542 141.38 107.511 141.366 107.483C141.351 107.456 141.33 107.433 141.303 107.416ZM144.776 107.815C144.3 107.702 143.817 107.624 143.33 107.582C143.276 107.582 143.224 107.603 143.186 107.641C143.148 107.68 143.126 107.731 143.126 107.785C143.126 107.839 143.148 107.891 143.186 107.929C143.224 107.967 143.276 107.989 143.33 107.989C143.805 108.043 144.283 108.063 144.761 108.049C144.787 108.044 144.811 108.031 144.829 108.01C144.847 107.99 144.858 107.965 144.86 107.938C144.861 107.911 144.854 107.884 144.839 107.862C144.824 107.84 144.801 107.823 144.776 107.815ZM13.3396 115.769C13.0609 115.769 12.6541 115.935 12.8198 116.161C12.8454 116.195 12.8832 116.218 12.9253 116.225C12.9674 116.232 13.0105 116.223 13.0458 116.199C13.1432 116.144 13.2559 116.123 13.3663 116.14C13.4767 116.156 13.5785 116.209 13.6559 116.289C13.9723 116.613 14.0175 117.539 13.5203 117.795C13.3993 117.85 13.2659 117.872 13.1336 117.859C13.0013 117.846 12.8749 117.798 12.7671 117.72C12.4734 117.502 12.5487 116.967 12.5939 116.779C12.5975 116.739 12.5872 116.7 12.5646 116.668C12.5421 116.636 12.5089 116.613 12.4709 116.603C12.4329 116.593 12.3926 116.597 12.3572 116.614C12.3217 116.631 12.2935 116.66 12.2775 116.696C12.213 116.903 12.1911 117.122 12.2131 117.338C12.2351 117.554 12.3006 117.763 12.4056 117.954C12.5462 118.112 12.7308 118.226 12.936 118.28C13.1412 118.333 13.3577 118.325 13.558 118.255C14.5673 117.901 14.4317 115.86 13.3396 115.769ZM13.9572 55.9639C13.8186 55.8881 13.6632 55.8484 13.5053 55.8484C13.3473 55.8484 13.1919 55.8881 13.0533 55.9639C12.7391 56.1301 12.498 56.4072 12.3769 56.7413C12.2557 57.0755 12.2633 57.4427 12.398 57.7716C12.5098 57.9091 12.6481 58.0226 12.8047 58.1055C12.9612 58.1883 13.1329 58.2387 13.3094 58.2537C14.1154 58.2763 15.0644 56.7849 13.9572 55.9639ZM13.204 57.8846C12.2775 57.7264 12.6165 56.7322 13.1663 56.3782C13.3384 56.2896 13.538 56.2708 13.7237 56.3255C14.2133 56.461 14.1304 57.282 13.7237 57.636C13.5795 57.7623 13.4014 57.8435 13.2115 57.8695C13.204 57.9976 13.204 57.9976 13.2191 57.8846H13.204ZM8.88053 46.5562C8.67716 46.5562 8.72235 46.8048 8.70729 47.0232C8.70729 47.5128 8.65456 48.3263 8.70729 48.5673C8.70729 48.6193 8.72792 48.6691 8.76465 48.7058C8.80137 48.7425 8.85119 48.7632 8.90312 48.7632C8.95506 48.7632 9.00488 48.7425 9.0416 48.7058C9.07833 48.6691 9.09896 48.6193 9.09896 48.5673C9.11947 47.944 9.09934 47.32 9.0387 46.6994C9.03208 46.6613 9.01292 46.6265 8.98425 46.6006C8.95559 46.5746 8.91908 46.559 8.88053 46.5562ZM8.0068 49.9834C7.69045 49.9834 6.28193 49.9005 5.93545 49.8629C5.89978 49.8633 5.86542 49.8764 5.83849 49.8997C5.81156 49.9231 5.7938 49.9553 5.78837 49.9906C5.78295 50.0258 5.79021 50.0619 5.80887 50.0923C5.82753 50.1227 5.85637 50.1455 5.89026 50.1566C6.2518 50.2169 7.63772 50.4202 8.0068 50.4278C8.05872 50.4182 8.10564 50.3907 8.13941 50.3501C8.17319 50.3095 8.19168 50.2584 8.19168 50.2056C8.19168 50.1528 8.17319 50.1016 8.13941 50.061C8.10564 50.0205 8.05872 49.993 8.0068 49.9834ZM11.4189 50.1415C10.1158 50.1415 9.73166 49.8779 9.67894 50.1415C9.6716 50.1833 9.67981 50.2263 9.70202 50.2623C9.72423 50.2984 9.75889 50.3251 9.79945 50.3374C10.2961 50.4094 10.7966 50.4522 11.2984 50.4654C11.4189 50.4654 11.5921 50.4654 11.5846 50.2922C11.5847 50.2711 11.5803 50.2502 11.5719 50.2308C11.5634 50.2115 11.5509 50.1942 11.5353 50.18C11.5196 50.1658 11.5012 50.155 11.4812 50.1484C11.4611 50.1418 11.4399 50.1394 11.4189 50.1415ZM8.83533 51.2714C8.48132 51.2714 8.60937 52.5443 8.62443 53.2599C8.62443 53.3038 8.64189 53.346 8.67297 53.377C8.70405 53.4081 8.74619 53.4256 8.79014 53.4256C8.83409 53.4256 8.87624 53.4081 8.90732 53.377C8.93839 53.346 8.95585 53.3038 8.95585 53.2599C8.97091 52.0848 9.20441 51.2864 8.83533 51.2714ZM98.4982 14.2056C100.05 14.3035 101.097 11.946 99.5075 11.0421C99.1214 10.7986 98.6608 10.7012 98.2092 10.7675C97.7575 10.8338 97.3444 11.0594 97.0445 11.4036C96.8939 11.6771 96.8132 11.9835 96.8093 12.2956C96.8055 12.6078 96.8787 12.9161 97.0224 13.1932C97.1662 13.4703 97.3761 13.7076 97.6335 13.8842C97.8909 14.0608 98.1879 14.1712 98.4982 14.2056ZM97.3382 11.6974C97.8504 10.8764 99.6356 10.8764 99.854 12.2171C99.9004 12.5861 99.8037 12.9588 99.5838 13.2586C99.3638 13.5584 99.0373 13.7625 98.6714 13.829C98.4224 13.8228 98.1788 13.755 97.9624 13.6316C97.7459 13.5082 97.5635 13.3331 97.4314 13.1218C97.2993 12.9106 97.2217 12.6699 97.2054 12.4214C97.1891 12.1728 97.2348 11.924 97.3382 11.6974ZM54.4953 82.4771C54.7523 81.903 55.149 81.4024 55.6492 81.021C56.1493 80.6395 56.7371 80.3895 57.3588 80.2936C57.9804 80.1977 58.6162 80.2591 59.2081 80.4721C59.7999 80.6851 60.329 81.043 60.747 81.513C60.9278 81.7164 61.214 81.4226 61.0408 81.2268C60.5855 80.7097 60.0066 80.3165 59.3581 80.0839C58.7096 79.8513 58.0127 79.7869 57.3326 79.8967C56.6525 80.0066 56.0113 80.287 55.469 80.712C54.9267 81.1369 54.501 81.6924 54.2317 82.3265C54.1187 82.5223 54.4049 82.673 54.4953 82.4771ZM50.217 74.7265C50.2324 74.7896 50.2705 74.8449 50.3241 74.8816C50.3776 74.9183 50.4429 74.934 50.5073 74.9256C50.5717 74.9172 50.6307 74.8853 50.6731 74.8361C50.7154 74.7868 50.7381 74.7237 50.7368 74.6587C50.7368 74.3951 50.4807 72.143 50.4204 71.5781C50.4204 71.3145 49.9685 71.3069 49.9835 71.5781C50.0287 72.2258 50.1568 74.4704 50.217 74.7265ZM65.4471 73.8151C65.4897 73.8389 65.5376 73.8513 65.5864 73.8513C65.6352 73.8513 65.6832 73.8389 65.7258 73.8151C65.9969 73.6796 65.8086 73.4461 65.9141 70.2524C65.9058 70.2136 65.8845 70.1787 65.8537 70.1537C65.8228 70.1287 65.7843 70.1151 65.7446 70.1151C65.7049 70.1151 65.6664 70.1287 65.6355 70.1537C65.6047 70.1787 65.5834 70.2136 65.5751 70.2524C65.4019 73.4913 65.2136 73.6494 65.4471 73.8151Z" fill="black"/>
<path id="Vector_2" d="M137.522 96.6452C138.539 96.9164 141.1 97.0821 141.1 96.0803C141.1 95.6736 140.671 95.5832 140.347 95.5229C138.215 95.0635 137.018 94.604 135.828 92.7435C136.031 92.6155 136.34 92.4573 136.31 92.3067C135.782 89.4595 133.297 78.2818 132.634 75.4798C131.349 69.9632 129.752 64.5238 127.851 59.1878C127.068 57.0185 126.171 54.9848 124.469 53.4784C124.04 51.9343 124.341 51.1735 124.062 50.4655C123.204 48.3942 119.408 47.9573 117.17 48.0326C114.581 47.9955 112.075 48.9494 110.166 50.699C109.358 51.392 108.491 52.0121 107.574 52.5519C107.529 52.5519 106.558 52.6649 106.189 52.1226C105.97 51.7836 106.083 51.279 106.731 49.7424C107.107 48.8461 107.522 47.9422 107.959 47.061C109.254 47.5581 111.423 47.2342 112.726 46.8124C112.454 47.6028 112.029 48.3321 111.476 48.9591C111.465 48.9736 111.46 48.9915 111.461 49.0096C111.463 49.0277 111.47 49.0447 111.483 49.0575C111.496 49.0704 111.513 49.0781 111.531 49.0794C111.549 49.0807 111.567 49.0754 111.582 49.0645C114.888 46.6091 120.56 47.8594 120.711 47.656C125.772 41.2311 123.49 32.8855 119.475 30.5204C118.354 29.9231 117.12 29.569 115.852 29.4809C113.865 29.1274 111.818 29.3903 109.985 30.2341C108.798 30.8064 107.766 31.6534 106.972 32.7047C106.91 33.8158 107.064 34.9283 107.424 35.9812C106.204 38.7907 104.531 42.9334 106.121 45.532C105.985 45.9462 104.403 50.0513 103.861 51.7309C98.4907 52.1377 95.2293 60.5812 94.8225 61.7788L92.1486 58.0127C92.2766 52.9361 92.3143 11.6222 92.1938 9.97262C91.8247 4.96373 89.6404 3.51756 86.2961 3.60794C85.1136 3.6682 28.6223 4.51933 25.8505 4.70764C23.6586 4.88088 21.9262 5.02399 20.578 5.8224C19.7392 6.30936 19.0233 6.98219 18.4854 7.78917C17.9474 8.59614 17.6016 9.51575 17.4747 10.4773C17.4295 10.997 19.87 89.0829 20.0884 129.101C20.0884 134.517 22.9958 136.965 28.0574 136.965C28.9019 136.961 29.745 136.898 30.5807 136.777C31.1983 136.664 80.6621 128.13 84.6842 127.61C86.9439 127.316 91.6816 126.706 92.352 123.03C92.5252 122.104 92.4424 121.29 92.4499 118.217C92.4499 113.856 92.3821 102.859 92.239 75.3518C93.2726 75.7885 94.4264 75.8498 95.5004 75.525C95.2217 77.5738 94.9958 79.4945 94.83 81.385C94.3631 86.522 94.476 101.293 94.5965 103.537C94.702 105.277 95.0635 105.247 96.5775 105.624C96.6905 107.175 97.4136 123.03 97.5115 124.454C97.8881 129.787 99.1761 136.121 99.3343 136.197C99.811 136.411 100.299 136.599 100.796 136.762C100.785 137.294 100.803 137.827 100.848 138.358C99.6739 139.166 98.5472 140.042 97.4738 140.98C97.2705 141.288 97.2931 141.59 97.617 141.733C98.3702 142.094 105.277 142.298 105.503 142.298C105.641 142.293 105.774 142.249 105.887 142.17C106.173 141.913 106.241 139.835 106.241 139.752C106.265 139.619 106.238 139.481 106.165 139.367C106.093 139.253 105.98 139.17 105.85 139.134C105.85 138.697 105.804 137.492 105.804 137.492C106.323 137.483 106.841 137.448 107.356 137.387C107.371 137.383 107.384 137.376 107.395 137.365C107.405 137.354 107.413 137.341 107.416 137.326C109.676 126.887 111.1 120.959 111.084 120.884C111.032 120.628 109.623 112.523 109.314 109.909C109.209 109.081 109.864 108.923 109.97 109.585C110.467 112.726 114.489 134.991 116.041 140.565C116.501 140.774 116.98 140.938 117.472 141.055C117.472 141.055 117.645 142.81 117.668 142.991C116.377 143.623 115.233 144.519 114.308 145.619C114.105 145.928 114.127 146.229 114.451 146.373C115.167 146.734 122.112 146.93 122.33 146.93C122.48 146.968 122.638 146.949 122.774 146.877C123.061 146.629 123.128 144.55 123.128 144.467C123.151 144.324 123.117 144.179 123.034 144.061C122.951 143.943 122.826 143.862 122.684 143.834V141.575C123.265 141.528 123.844 141.45 124.416 141.341C124.981 141.228 126.631 109.601 126.744 106.836C127.572 106.889 127.806 106.889 128.115 106.927C128.981 107.025 129.455 106.927 129.388 106.091C129.388 106.023 128.981 94.7923 128.958 92.4573C129.772 94.0692 130.63 94.9053 132.4 94.5739C132.212 95.3798 132.129 96.7657 132.958 97.0444C133.447 97.2026 133.711 96.9013 134.69 95.8845C134.826 95.9447 137.522 96.6452 137.522 96.6452ZM91.8172 120.567C91.8172 122.074 91.9076 123.527 90.8907 124.642C89.7006 125.945 87.8779 126.42 86.5823 126.668C84.511 127.068 31.1908 135.993 29.7672 136.227C25.6396 135.135 23.6586 132.385 23.7415 127.941C23.9599 115.551 21.6024 9.90483 21.6024 9.88223C21.6585 8.87964 22.0094 7.91593 22.611 7.11196C23.2126 6.30799 24.0382 5.69955 24.9843 5.36294C27.7411 5.07671 85.7689 4.35363 85.7689 4.35363C86.5996 4.28139 87.4365 4.32703 88.2545 4.4892C90.1149 4.97126 90.8832 6.74885 91.2071 8.09711C91.5761 9.6864 91.5385 50.3676 91.5611 57.2369C90.4539 55.7305 89.3014 54.0207 88.2997 52.6649C88.2545 49.1097 88.1641 7.71297 88.1716 7.47194C88.1706 7.43662 88.161 7.40207 88.1438 7.37126C88.1265 7.34045 88.1019 7.31429 88.0723 7.29503C88.0427 7.27578 88.0088 7.26399 87.9737 7.2607C87.9385 7.2574 87.903 7.26269 87.8703 7.2761C87.5088 7.2761 26.0011 9.71653 26.0011 9.95002C26.0011 10.0253 27.2967 126.442 27.5076 126.608C27.7185 126.774 86.2584 118.323 88.021 117.916C88.2319 117.916 88.262 80.8201 88.39 72.1581C89.2317 73.3774 90.3558 74.375 91.6665 75.0656C91.5611 79.0877 91.7193 113.058 91.8172 120.567ZM109.081 32.652C108.659 33.4052 107.846 35.0623 107.574 35.582C107.331 34.6458 107.227 33.6788 107.266 32.7122C107.864 32.5964 108.476 32.5761 109.081 32.652ZM108.275 34.9116C108.629 34.1584 109.028 33.4052 109.42 32.7047C111.31 33.0587 112.259 34.1433 113.254 35.582C113.758 36.2796 114.171 37.039 114.481 37.8416C112.807 36.1859 110.617 35.1521 108.275 34.9116ZM106.015 41.2236C106.501 39.1574 107.208 37.1498 108.124 35.2355C109.433 35.413 110.704 35.7995 111.89 36.3804C112.526 36.6276 113.099 37.0134 113.567 37.5099C114.034 38.0063 114.385 38.6008 114.594 39.2501C115.453 42.1124 113.367 45.6449 112.937 46.3228C112.06 46.6514 111.143 46.8616 110.211 46.948C108.652 47.0836 107.477 46.8501 106.55 45.5546C105.827 44.4925 105.639 43.0765 106.015 41.2236ZM132.717 94.4985C133.756 94.157 134.726 93.6314 135.579 92.9469C136.319 94.1408 137.446 95.0448 138.773 95.5079C139.978 95.9296 140.776 95.8167 140.731 96.1029C140.731 96.246 140.452 96.2987 140.309 96.3213C137.733 96.7958 136.799 95.7639 134.992 95.5681C135.135 95.4024 135.361 95.2141 135.24 95.086C135.12 94.958 134.894 95.184 134.622 95.4401C133.455 96.5548 133.372 96.7582 133.116 96.7431C132.446 96.6527 132.566 95.1538 132.717 94.4985ZM118.202 67.7895C119.129 70.4107 125.313 86.0927 128.536 91.6288C128.536 91.9677 128.597 101.142 128.951 105.676C129.034 106.738 129.327 106.558 126.36 106.377L123.889 105.962C123.132 103.739 122.203 101.579 121.11 99.4999C121.004 99.4999 121.215 99.1158 118.541 106.927C112.47 108.215 108.177 107.499 102.972 106.542C100.253 106.045 95.9222 105.036 95.5983 104.9C95.4553 104.831 95.3335 104.725 95.246 104.592C95.1585 104.46 95.1085 104.306 95.1012 104.147C94.9355 103.394 94.3932 84.8498 96.2386 73.3407C96.7357 70.2149 97.2855 66.8856 98.0237 63.5489C98.0286 63.5306 98.0299 63.5115 98.0275 63.4927C98.0251 63.4739 98.0189 63.4558 98.0095 63.4393C98.0001 63.4229 97.9875 63.4085 97.9725 63.3969C97.9574 63.3853 97.9403 63.3768 97.922 63.3719C97.9037 63.3669 97.8846 63.3656 97.8658 63.3681C97.847 63.3705 97.8289 63.3766 97.8124 63.3861C97.796 63.3955 97.7816 63.4081 97.77 63.4231C97.7584 63.4381 97.7499 63.4553 97.745 63.4736C96.8487 67.3376 96.118 71.2467 95.5833 75.0957C94.481 75.4217 93.2989 75.347 92.2465 74.8848C92.2115 74.8051 92.1484 74.741 92.0692 74.7049C91.99 74.6688 91.9003 74.6631 91.8172 74.689C87.2979 72.4293 84.285 63.3305 83.0573 58.4195C82.5677 56.4235 82.1308 54.3747 81.7241 52.1527C83.0432 51.2111 84.548 50.5614 86.1379 50.2471C86.5221 50.8271 91.6364 58.2839 91.7569 58.3216C91.9076 58.5325 94.5965 62.2835 94.8677 62.2985C95.1389 62.3136 95.0711 62.1253 95.2293 61.7562C98.2873 54.4199 101.473 52.4013 103.748 52.0925C103.625 52.4733 103.607 52.8806 103.697 53.2707C103.787 53.6608 103.982 54.019 104.26 54.3069C104.675 54.7664 109.804 57.8094 110.354 57.5985C110.505 57.5381 110.637 57.4394 110.738 57.3123C112.187 55.8356 113.793 54.5222 115.528 53.3955C116.497 52.6428 117.677 52.211 118.903 52.1603C120.814 52.4856 122.675 53.0578 124.439 53.8625C125.733 55.3207 126.706 57.0351 127.294 58.894C130.751 67.8874 132.672 77.8374 135.903 92.3217C134.396 93.2708 132.137 95.0183 130.63 94.0089C128.167 92.3519 118.73 68.5578 118.428 67.7292C118.411 67.7145 118.39 67.7043 118.367 67.6993C118.345 67.6944 118.322 67.6949 118.3 67.7008C118.278 67.7067 118.257 67.7178 118.24 67.7333C118.223 67.7487 118.21 67.768 118.202 67.7895ZM87.7046 117.554C86.1982 117.735 30.2041 125.84 27.8089 126.186C27.6507 112.237 26.5133 19.1468 26.3778 10.1911C33.2772 9.85964 86.9514 7.71297 87.7197 7.68284C87.7197 11.0497 87.8402 46.5639 87.8628 52.0322C86.2434 49.7726 86.4166 49.9232 86.3564 49.878C86.3564 48.6955 86.5145 10.5526 86.2358 10.3417C86.1379 10.2664 28.3512 12.3904 28.3512 12.6013C28.419 17.8739 30.6108 122.232 30.7313 122.232C31.6955 122.232 85.3094 113.193 85.6634 113.141C85.8592 113.103 85.8743 75.6832 86.0325 68.1058C86.6261 69.3264 87.2953 70.5087 88.036 71.646C87.8854 77.4533 87.5916 113.788 87.7046 117.585V117.554ZM83.6071 45.5997C85.4224 43.0614 85.4073 43.1895 85.3847 42.9409C85.3621 42.6923 85.2491 42.7149 82.9066 40.8997C82.5376 40.6135 82.1534 40.3498 81.7617 40.0787C81.7907 39.2996 81.6332 38.5249 81.3023 37.819C81.355 37.5855 81.3023 36.2071 81.3023 35.7552C81.3749 34.882 81.238 34.004 80.9031 33.1943C80.6997 32.8026 79.3966 30.8367 79.3364 30.8141C79.173 30.5992 78.9329 30.4557 78.6662 30.4136C78.3996 30.3715 78.1269 30.434 77.9053 30.5881C76.9088 31.0901 75.9842 31.7234 75.156 32.4712C75.1166 32.6221 75.1123 32.7801 75.1437 32.9329C75.175 33.0857 75.2411 33.2293 75.3368 33.3524C75.7285 34.1057 77.3554 36.885 77.9429 37.3746C78.4324 37.7552 79.0057 38.0135 79.6151 38.1278C79.5306 38.8127 79.7082 39.5042 80.1122 40.0636C79.8335 40.7038 79.2761 42.0069 78.3421 44.146C77.2123 46.7145 75.7511 47.9648 72.5424 48.1682C70.8778 48.2737 69.6726 47.882 69.5295 48.1682C69.4617 48.349 69.7931 48.6503 70.2375 48.9817C71.8118 50.1567 74.1166 51.8816 76.5796 51.0832C77.0827 50.9166 77.5521 50.6615 77.9655 50.3299C77.7613 50.7905 77.4668 51.2055 77.0993 51.5502C76.9261 51.7083 76.7453 51.8439 76.7227 52.0774C76.7001 52.3109 77.7245 53.4031 78.2292 53.2825C78.6434 53.1922 78.9221 52.8608 80.7298 50.0136C81.0864 50.588 81.5522 51.087 82.1007 51.4824C81.8371 51.6556 81.6186 51.8062 81.4228 51.9644C81.384 51.9931 81.3572 52.0351 81.3474 52.0824C81.3377 52.1296 81.3458 52.1788 81.3701 52.2205C82.2815 57.3574 83.5017 62.7655 85.686 67.443C85.3395 73.8002 85.1889 109.292 85.332 112.839C81.4379 113.517 33.3601 121.418 31.0628 121.795C30.9422 112.711 28.8031 19.0715 28.8031 16.39L86.0475 14.2509C86.1153 16.5105 86.0475 49.9081 85.9572 49.9307C85.9213 49.0775 85.691 48.2437 85.2837 47.4931C84.8764 46.7425 84.303 46.0949 83.6071 45.5997ZM80.6696 36.5988C80.1875 35.6874 78.6585 36.5988 79.2309 37.4273C79.316 37.5383 79.4255 37.6281 79.5509 37.69C79.6763 37.7518 79.8142 37.784 79.954 37.784C80.0938 37.784 80.2318 37.7518 80.3572 37.69C80.4825 37.6281 80.592 37.5383 80.6771 37.4273C80.8498 37.5789 80.9906 37.7632 81.0914 37.9697C81.0633 38.0392 81.013 38.0975 80.9483 38.1354C80.6319 38.3387 79.1857 37.8868 78.6359 37.6081C78.0686 37.2774 77.6164 36.7805 77.3404 36.1845C77.0014 35.5669 75.9168 33.842 75.7586 33.5634C75.6004 33.2847 75.254 32.8629 75.4197 32.5616C75.51 32.3959 78.4325 30.2341 79.0803 30.9798C79.0803 30.9798 79.9239 32.1774 80.308 32.7574C80.7197 33.3281 80.979 33.9943 81.0613 34.6932C81.1366 35.4464 81.2044 37.3746 81.1818 37.6081C81.0704 37.4329 80.9333 37.2755 80.775 37.1411C80.8071 36.9569 80.7808 36.7673 80.6997 36.5988H80.6696ZM80.4888 37.3144C80.4888 37.3144 80.4135 37.6383 79.9013 37.5855C79.8938 37.3897 80.18 37.1336 80.5189 37.3144H80.4888ZM79.6527 37.5177C79.5412 37.4769 79.448 37.3975 79.39 37.2938C79.332 37.1902 79.313 37.0693 79.3364 36.9528C79.472 36.3578 80.5792 36.1544 80.5792 37.0357C80.4899 36.9917 80.3914 36.9697 80.2918 36.9715C80.1923 36.9733 80.0946 36.9988 80.0069 37.046C79.9193 37.0931 79.8441 37.1605 79.7877 37.2426C79.7314 37.3246 79.6954 37.419 79.6829 37.5177H79.6527ZM79.8862 38.2258C80.308 38.3312 80.888 38.4894 81.1742 38.1354C81.4473 38.6692 81.5548 39.2724 81.4831 39.8678C80.7298 39.2878 80.5943 38.9338 80.2327 39.7849C80.0614 39.568 79.9436 39.3139 79.8886 39.0431C79.8337 38.7722 79.8432 38.4922 79.9164 38.2258H79.8862ZM81.3475 46.5865C81.3231 46.4762 81.3226 46.3621 81.3459 46.2517C81.3693 46.1412 81.4161 46.0371 81.4831 45.9462C81.6956 45.7863 81.9408 45.6751 82.2011 45.6205C82.4614 45.5658 82.7306 45.569 82.9895 45.6299C85.4148 46.7898 85.5806 49.5767 85.5881 50.0061C84.5262 50.2641 83.5102 50.6832 82.5752 51.2489C82.001 50.8465 81.5121 50.3345 81.1366 49.7424C81.8898 48.5298 82.5752 47.4225 82.643 47.2719C82.1007 47.2418 81.4379 46.9932 81.3475 46.5865ZM28.7203 12.9403C33.1416 12.8047 83.6071 10.8238 85.8668 10.7334C85.912 11.7653 85.9496 12.7972 85.9798 13.8366C81.7693 13.9571 31.0477 15.9682 28.7353 16.0586C28.7655 16.0586 28.7278 13.6408 28.7203 12.9403ZM122.119 146.606C121.607 146.606 114.956 146.199 114.76 146.132C114.564 146.064 114.61 146.064 114.617 145.981C115.506 144.922 116.59 144.045 117.811 143.397C117.865 143.427 117.918 143.459 117.969 143.495C118.622 144.011 119.396 144.351 120.217 144.483C121.038 144.615 121.88 144.534 122.661 144.248C122.658 144.974 122.607 145.699 122.511 146.418C122.481 146.599 122.375 146.606 122.142 146.606H122.119ZM117.886 141.221C119.313 141.592 120.791 141.73 122.262 141.627V143.887C120.575 144.821 118.345 143.277 118.059 143.066C118.089 142.772 117.931 141.447 117.909 141.221H117.886ZM101.172 138.396C101.219 137.895 101.237 137.392 101.225 136.89C102.57 137.344 103.985 137.558 105.405 137.522C105.405 137.522 105.45 138.735 105.473 139.194C103.944 140.264 101.805 138.855 101.195 138.396H101.172ZM105.691 141.778C105.631 141.936 105.541 141.951 105.33 141.944C98.7392 141.725 97.9032 141.394 97.7977 141.311C98.1141 141.025 100.667 138.953 100.984 138.735L101.082 138.81C102.694 140.015 104.29 140.317 105.827 139.609C105.834 140.334 105.794 141.058 105.706 141.778H105.691Z" fill="black"/>
<path id="Vector_3" d="M109.405 43.7619C110.09 43.9017 110.803 43.778 111.401 43.4155C111.627 43.2573 111.401 42.8957 111.182 43.0615C110.658 43.3632 110.053 43.4972 109.45 43.4456C109.408 43.4396 109.366 43.4505 109.332 43.4759C109.298 43.5014 109.275 43.5392 109.269 43.5812C109.263 43.6231 109.274 43.6657 109.3 43.6996C109.325 43.7335 109.363 43.756 109.405 43.7619ZM107.65 41.314C107.712 41.4635 107.807 41.5969 107.929 41.7039C108.05 41.811 108.194 41.8889 108.35 41.9316C108.501 41.9316 108.546 41.7207 108.433 41.6303C108.32 41.54 108.019 41.3893 108.079 41.073C108.233 40.7596 108.417 40.4619 108.629 40.1842C109.254 39.2728 109.51 38.9188 109.277 38.8209C109.261 38.8133 109.243 38.8091 109.225 38.8084C109.207 38.8077 109.189 38.8106 109.172 38.8169C109.155 38.8232 109.14 38.8328 109.127 38.8451C109.114 38.8575 109.103 38.8722 109.096 38.8886C108.825 39.5138 107.552 40.9675 107.65 41.314ZM111.363 39.8C111.401 39.7096 111.552 38.9489 111.574 38.8133C111.585 38.7704 111.579 38.7248 111.556 38.6867C111.533 38.6485 111.497 38.6209 111.454 38.6099C111.411 38.599 111.365 38.6055 111.327 38.6281C111.289 38.6507 111.261 38.6875 111.25 38.7305C111.25 38.8434 111.092 39.205 111.009 39.446C110.926 39.687 110.881 39.7322 110.957 39.8528C110.98 39.8892 111.012 39.9184 111.051 39.9367C111.091 39.9551 111.134 39.9619 111.177 39.9564C111.22 39.9508 111.26 39.9332 111.293 39.9055C111.326 39.8778 111.35 39.8412 111.363 39.8ZM108.177 38.9564C108.246 38.709 108.299 38.4574 108.335 38.2032C108.335 37.9848 108.441 37.8191 108.275 37.7739C108.109 37.7287 108.087 37.8718 108.034 38.0074C107.906 38.2841 107.803 38.5714 107.725 38.866C107.73 38.9174 107.752 38.9657 107.787 39.0039C107.821 39.0421 107.867 39.0682 107.918 39.0783C107.968 39.0884 108.021 39.082 108.068 39.0601C108.114 39.0382 108.153 39.0018 108.177 38.9564ZM111.529 37.5329C112.636 37.8341 112.463 39.0393 112.907 38.8133C112.942 38.7894 112.969 38.7561 112.985 38.7174C113.001 38.6787 113.005 38.6361 112.998 38.5949C112.945 38.2559 112.696 37.6308 111.612 37.2617C111.578 37.2562 111.543 37.2633 111.513 37.2815C111.484 37.2998 111.462 37.3281 111.452 37.3612C111.442 37.3942 111.444 37.4298 111.458 37.4614C111.473 37.4929 111.498 37.5183 111.529 37.5329ZM107.605 37.1412C108.051 37.1305 108.477 36.95 108.795 36.6365C108.829 36.6026 108.848 36.5565 108.848 36.5085C108.848 36.4605 108.829 36.4144 108.795 36.3804C108.761 36.3465 108.715 36.3274 108.667 36.3274C108.619 36.3274 108.573 36.3465 108.539 36.3804C108.261 36.5823 107.937 36.7118 107.597 36.757C107.558 36.7717 107.523 36.7983 107.5 36.8332C107.476 36.8681 107.464 36.9095 107.464 36.9518C107.465 36.994 107.479 37.035 107.504 37.0689C107.529 37.1028 107.565 37.1281 107.605 37.1412ZM77.9129 60.4532C77.6794 59.3309 76.4969 59.1652 75.6533 59.1351C73.8004 57.3575 63.5491 47.5657 63.1198 47.2493C62.6904 46.933 62.3666 47.3322 62.0126 47.7088C61.3347 48.462 61.1388 48.7407 61.1238 48.8838C61.1249 48.9889 61.1499 49.0923 61.1969 49.1862C61.2438 49.2802 61.3116 49.3622 61.3949 49.4261C61.6736 49.735 69.1003 57.3726 71.1265 59.3309L43.4533 61.8919C45.2309 60.0164 53.4259 50.2019 53.4786 49.976C53.5313 49.75 52.6727 48.4696 52.3187 48.2963C52.1772 48.2187 52.0215 48.1707 51.8609 48.1552C51.7004 48.1396 51.5383 48.1569 51.3847 48.2059C51.106 48.3038 39.4161 61.7638 38.8737 62.3815C38.6327 62.3815 37.1338 62.6225 36.3655 62.7656C35.5973 62.9087 35.4918 63.1497 35.3939 63.8502C35.302 65.126 35.3374 66.4078 35.4993 67.6766C35.8006 68.7989 36.2526 68.829 37.1639 68.8742C37.9172 72.7758 41.0204 81.2495 42.4365 84.7444C41.2823 84.9804 40.1526 85.3234 39.0621 85.7688C38.8377 85.8368 38.6422 85.9771 38.506 86.1679C38.3697 86.3586 38.3004 86.5891 38.3088 86.8233C38.2636 88.5783 38.3917 94.9204 38.3088 96.5021C38.3088 97.4964 39.1298 97.7299 40.109 97.7751C42.3687 97.8881 46.6394 97.4813 47.7466 95.5154C48.1458 94.7622 48.0103 94.7622 48.0555 90.386C51.701 90.0772 65.1459 88.2469 66.562 87.9833C67.6619 87.8291 68.7361 87.5276 69.7556 87.0869C70.9984 86.4844 71.262 85.8065 71.6537 84.5863C71.6537 84.4808 77.1899 65.1081 77.4384 64.144C77.6812 64.0184 77.8767 63.8175 77.9958 63.5715C78.1064 62.533 78.0785 61.4844 77.9129 60.4532ZM61.5305 48.8386C61.8938 48.382 62.2917 47.9539 62.7206 47.5582C63.3382 48.0176 73.0622 57.2445 75.126 59.105C73.916 59.1069 72.7068 59.1698 71.5031 59.2933C68.1513 56.0695 61.8167 49.3885 61.5305 48.8386ZM51.6784 48.5223C52.0091 48.5985 52.3123 48.7649 52.5542 49.0028C52.7962 49.2408 52.9675 49.5411 53.0493 49.8705C52.635 50.443 44.7639 60.0465 42.9261 61.922C41.7134 62.0124 40.5158 62.1329 39.3709 62.2685C52.7857 46.9857 51.7537 48.5223 51.6784 48.5223ZM45.2836 92.7511C45.2921 93.3741 45.0904 93.9817 44.7112 94.476C44.4623 94.7402 44.1571 94.9449 43.8182 95.075C43.4794 95.2052 43.1156 95.2573 42.7538 95.2277C42.3921 95.198 42.0416 95.0873 41.7285 94.9037C41.4154 94.7201 41.1476 94.4684 40.9451 94.1672C40.6288 93.4774 40.5115 92.7131 40.6061 91.9602C40.6664 90.853 40.8472 88.5783 41.5929 87.7648C42.3385 86.9514 44.0559 86.8836 44.6057 87.9079C45.02 88.5105 45.3363 91.8322 45.2836 92.7511ZM70.1398 86.3488C68.5806 87.4636 65.7184 87.8552 48.0781 89.9642C48.0781 86.4844 48.2588 85.9496 47.7542 85.3847C47.001 84.5712 43.8751 84.5486 42.7905 84.6315C41.2388 80.5415 37.8418 70.23 37.518 68.8139C39.6948 68.8139 69.3037 66.9535 77.0693 64.2946C70.9231 85.3244 71.2771 85.5504 70.1548 86.3488H70.1398ZM77.7322 63.1723C77.7268 63.3282 77.6733 63.4786 77.5788 63.6027C77.4844 63.7268 77.3537 63.8186 77.2049 63.8653C65.3041 66.9233 37.4426 68.4825 37.3673 68.475C36.4861 68.4147 36.1697 68.5428 35.8609 67.7218C35.6838 66.3709 35.6459 65.0054 35.7479 63.6469C35.7931 63.451 35.8383 63.2702 35.9739 63.1949C36.7271 62.7505 51.2114 61.4098 75.7286 59.5117C76.019 59.4711 76.3148 59.502 76.5905 59.6018C76.8661 59.7016 77.1133 59.8671 77.3104 60.0841C77.7623 60.6566 77.7623 62.7807 77.7472 63.1723H77.7322Z" fill="black"/>
<path id="Vector_4" d="M43.257 94.6189C44.5676 94.3929 44.7634 93.4213 44.6957 92.186C44.6957 91.2595 44.3567 88.5706 44.063 88.1563C43.9594 88.0335 43.8284 87.9368 43.6805 87.874C43.5327 87.8112 43.3721 87.7841 43.2118 87.7948C41.8636 87.7948 41.6301 88.9622 41.4719 90.19C41.3137 91.4177 40.9898 93.3309 41.7054 94.1444C41.9025 94.3487 42.1483 94.4994 42.4198 94.5824C42.6912 94.6655 42.9794 94.678 43.257 94.6189Z" fill="black"/>
</g>
</g>
</svg>
