<svg width="151" height="151" viewBox="0 0 151 151" fill="none" xmlns="http://www.w3.org/2000/svg">
<g id="Ebook-Download-2--Streamline-Milano">
<g id="Ebook-Download-2--Streamline-Milano.svg">
<path id="Vector" d="M77.3255 44.9897C77.2859 44.9733 77.2419 44.9708 77.2007 44.9828C77.1595 44.9948 77.1237 45.0205 77.0991 45.0556C77.0745 45.0908 77.0626 45.1333 77.0654 45.1761C77.0683 45.2189 77.0856 45.2594 77.1146 45.291C77.2954 45.5019 84.1422 53.1019 84.4208 53.1019C84.6995 53.1019 90.3562 46.2401 91.5463 44.8617C91.5821 44.8429 91.6108 44.8131 91.6284 44.7767C91.6459 44.7403 91.6513 44.6992 91.6437 44.6595C91.6361 44.6198 91.6159 44.5836 91.5862 44.5563C91.5564 44.5289 91.5187 44.5119 91.4785 44.5077C91.2826 44.5077 88.4656 44.6809 87.9158 44.6583C87.9836 43.4908 87.9158 39.3858 87.9158 38.0601C87.9069 38.0157 87.8829 37.9757 87.8479 37.947C87.8129 37.9182 87.769 37.9025 87.7237 37.9025C87.6784 37.9025 87.6345 37.9182 87.5995 37.947C87.5644 37.9757 87.5405 38.0157 87.5316 38.0601C87.5316 42.4815 87.4638 45.0274 87.6747 45.0424C88.2246 45.0952 90.3788 44.9822 91.0567 44.937C89.7611 46.3756 85.1515 51.7159 84.4284 52.665C83.9086 52.0775 78.8621 46.6393 77.6494 45.3211C78.2294 45.3211 80.2857 45.2759 80.5192 45.2232C80.7527 45.1705 80.5192 43.4381 80.3233 38.0526C80.3147 38.01 80.2916 37.9718 80.258 37.9443C80.2243 37.9168 80.1822 37.9018 80.1388 37.9018C80.0954 37.9018 80.0533 37.9168 80.0196 37.9443C79.986 37.9718 79.9629 38.01 79.9543 38.0526C80.0447 40.4629 80.0748 42.6472 80.233 44.8767C79.6831 44.8843 77.8377 44.9671 77.3255 44.9897ZM69.5674 35.808C70.5315 35.7101 99.5078 35.1979 100.6 35.2431C101.322 35.3539 102.06 35.2243 102.701 34.874C104.69 33.4881 102.603 28.4416 98.265 28.7504C97.5117 25.3082 93.0678 22.7246 90.4315 24.2838C90.4285 23.3572 90.1477 22.4528 89.6254 21.6874C89.1031 20.9221 88.3633 20.331 87.5015 19.9905C84.6393 18.8004 79.1408 20.0658 78.8922 23.9373C78.1764 23.6517 77.396 23.5676 76.6358 23.6942C75.8755 23.8208 75.1645 24.1534 74.5799 24.6556C73.9954 25.1579 73.5596 25.8108 73.3199 26.5433C73.0803 27.2758 73.0459 28.06 73.2205 28.8106C68.0384 27.485 66.9312 32.1549 67.948 34.7309C68.4225 35.8231 68.7238 35.8984 69.5674 35.808ZM73.6122 29.2174C73.7779 29.0592 72.746 27.0707 74.8249 24.9165C75.9246 23.7716 77.8377 23.8319 79.1559 24.4796C79.6153 24.7282 78.2595 21.2634 83.5848 20.1336C87.863 19.2222 90.5294 22.1371 90.1001 24.7659C90.0881 24.8038 90.0917 24.845 90.1101 24.8803C90.1284 24.9156 90.1601 24.9422 90.198 24.9542C90.236 24.9661 90.2771 24.9626 90.3124 24.9442C90.3478 24.9258 90.3743 24.8942 90.3863 24.8562C92.1338 23.1841 97.2481 24.8562 98.0842 29.6844C98.0842 29.8576 98.3855 29.8275 98.393 29.6844C98.3914 29.5055 98.3789 29.3269 98.3553 29.1496C99.3757 29.0895 100.386 29.377 101.222 29.9653C102.058 30.5535 102.67 31.4077 102.957 32.3884C103.394 34.1961 102.619 34.9041 100.871 34.859C99.6358 34.859 71.0437 35.326 69.4318 35.4691C68.8745 35.5218 68.7464 35.4691 68.5054 35.0397C67.3228 32.8855 68.0158 28.886 71.3751 28.886C72.1287 28.9348 72.8769 29.0457 73.6122 29.2174ZM69.2963 84.3603C69.5373 85.2491 73.8156 82.9292 85.2569 83.7352C85.0611 84.1118 85.4527 84.1871 85.5356 83.9988C85.9499 83.0648 86.9592 82.6882 88.0589 83.6297C88.202 83.7578 88.4279 83.5695 88.2622 83.3811L89.2113 83.0874V86.748C89.2743 87.0958 89.465 87.4075 89.7461 87.6218C90.0334 87.0221 90.2849 86.4059 90.4993 85.7764C90.665 86.0174 91.4032 87.5464 91.6291 87.456C91.7044 87.456 91.6743 87.5992 91.6291 83.2983C94.1675 83.4037 100.894 83.1401 104.494 83.9084C104.667 83.9293 104.842 83.8897 104.989 83.7963C105.135 83.703 105.246 83.5616 105.3 83.3962C105.405 83.0196 105.872 70.2677 108.185 60.0465C108.253 59.7302 106.987 59.5795 106.528 59.587C106.791 58.4723 106.814 58.5401 106.754 58.4648C106.093 58.0856 105.323 57.9397 104.569 58.0505C104.841 56.3482 104.954 56.2051 104.705 56.1825C100.08 55.8285 95.6664 57.4102 91.019 59.331C90.7158 59.2913 90.4075 59.334 90.1266 59.4546C89.8456 59.5752 89.6023 59.7692 89.4222 60.0164C88.9703 60.2197 87.5919 60.8449 87.0571 61.1688C76.1731 57.4931 69.2963 57.4705 69.4092 57.4705C69.1757 57.4705 69.2435 57.6437 69.3339 59.7754C68.9885 59.6447 68.6203 59.5853 68.2513 59.6008C67.8824 59.6164 67.5204 59.7065 67.1872 59.8657C67.1044 59.926 67.1195 59.8657 67.1872 61.1763C66.553 60.928 65.8692 60.8326 65.1912 60.8976C64.9276 61.101 68.641 82.0103 69.2963 84.3603ZM86.2512 82.8539C86.158 82.8904 86.0674 82.9331 85.98 82.9819C80.9862 81.3324 75.5555 80.4888 70.5466 82.0178C69.0895 74.7608 68.0833 67.4204 67.5337 60.039C68.1395 59.842 68.795 59.8633 69.3866 60.0992C69.6926 66.7308 70.4121 73.3368 71.5408 79.8787C71.6689 80.5942 76.6326 78.44 86.221 82.8539H86.2512ZM71.8421 79.6377C71.6312 78.184 70.4788 73.2805 69.5825 57.7944C75.4807 58.3263 81.2956 59.5525 86.9065 61.4475C86.8236 66.4037 86.2662 80.6168 86.2512 82.4773C81.8081 80.1718 76.7963 79.1913 71.812 79.6527L71.8421 79.6377ZM89.1661 82.6505C88.6765 82.8162 88.2999 82.9518 87.9459 83.0949C87.6309 82.8454 87.2406 82.71 86.8387 82.7108C87.5919 82.4622 88.3978 82.1534 89.1661 81.8898V82.6505ZM89.1661 81.483C88.27 81.7543 87.3962 82.0942 86.5524 82.4999C86.6654 79.5623 87.1927 63.2025 87.2228 61.4098C87.9007 61.0859 88.5635 60.7319 89.249 60.393C89.2188 62.0501 89.1435 75.7586 89.1736 81.5358L89.1661 81.483ZM70.3357 82.3342C70.6897 82.4622 75.2165 80.4285 82.9144 82.5526C73.3486 81.9877 70.1097 83.5167 69.5222 83.8783C69.2285 82.2137 67.3454 73.3332 65.5678 61.0784C66.1468 61.0879 66.7179 61.2134 67.2475 61.4475C68.2267 72.8888 70.0495 82.289 70.3206 82.3869L70.3357 82.3342ZM104.984 81.7391V82.7183C103.161 81.9651 95.0111 82.1082 93.0527 82.1459C94.8077 81.7768 98.6265 80.9859 104.984 81.7919V81.7391ZM104.351 80.4888C104.78 80.2779 103.176 73.8982 106.437 59.8657C106.897 59.8493 107.357 59.9156 107.793 60.0616C105.872 68.347 105.142 79.2309 105.006 81.4379C102.116 81.0124 99.1837 80.9441 96.2765 81.2345C98.9481 80.8122 101.646 80.5806 104.351 80.5415V80.4888ZM102.317 78.8844C98.6868 79.0979 95.0917 79.7168 91.599 80.7298C91.4559 58.6907 91.7873 59.7979 91.3278 59.4515C92.6158 58.9092 99.6132 56.0846 104.494 56.4386C102.739 64.7164 102.28 77.1671 102.317 78.9372V78.8844ZM104.08 80.195C99.8621 80.1881 95.664 80.7686 91.6065 81.9199V81.1667C96.879 79.5172 102.634 79.2535 102.641 79.0502C102.804 72.1222 103.426 65.2127 104.502 58.3668C105.123 58.2749 105.758 58.3423 106.347 58.5627C103.123 72.1281 103.944 79.3665 104.08 80.2478V80.195Z" fill="black"/>
<path id="Vector_2" d="M82.8088 73.4385C80.2294 72.4088 77.5283 71.7152 74.772 71.3747C74.7455 71.3732 74.7191 71.3786 74.6955 71.3905C74.6718 71.4024 74.6517 71.4204 74.6372 71.4425C74.6227 71.4647 74.6143 71.4902 74.6128 71.5167C74.6114 71.5431 74.6169 71.5695 74.6288 71.5931C74.7644 71.8643 74.9527 71.3069 80.3382 73.0016C80.4663 73.0016 82.5979 73.7548 82.7636 73.7548C82.8055 73.7608 82.8481 73.7499 82.882 73.7245C82.9159 73.6991 82.9384 73.6612 82.9444 73.6193C82.9503 73.5773 82.9394 73.5347 82.914 73.5008C82.8886 73.4669 82.8507 73.4445 82.8088 73.4385ZM82.1008 70.049C82.1303 70.0419 82.1567 70.025 82.1755 70.0011C82.1944 69.9772 82.2046 69.9476 82.2046 69.9172C82.2046 69.8868 82.1944 69.8572 82.1755 69.8333C82.1567 69.8094 82.1303 69.7925 82.1008 69.7854C74.4179 67.9551 73.1299 66.2528 72.8814 66.7725C72.87 66.7914 72.8629 66.8125 72.8606 66.8345C72.8583 66.8564 72.8609 66.8785 72.868 66.8993C72.8752 66.9202 72.8869 66.9392 72.9022 66.955C72.9175 66.9708 72.9361 66.9831 72.9567 66.991C75.8332 68.4653 78.916 69.4963 82.1008 70.049ZM73.5367 63.4358C74.2296 63.4358 81.0011 66.8253 81.7091 66.8704C81.7424 66.8629 81.7721 66.8442 81.7934 66.8175C81.8147 66.7908 81.8262 66.7577 81.8262 66.7236C81.8262 66.6894 81.8147 66.6563 81.7934 66.6296C81.7721 66.6029 81.7424 66.5843 81.7091 66.5767C80.9559 66.3959 74.9979 63.5638 73.5668 63.1797C73.5387 63.1853 73.5132 63.1997 73.4938 63.2207C73.4743 63.2417 73.4621 63.2684 73.4587 63.2968C73.4554 63.3252 73.4611 63.354 73.4751 63.3789C73.4891 63.4039 73.5107 63.4238 73.5367 63.4358ZM99.3645 63.5111C97.745 63.6994 96.1106 63.963 94.4836 64.1061C94.2878 64.1061 94.2878 64.43 94.4836 64.43C96.1375 64.3082 97.7824 64.0869 99.4097 63.7672C99.4436 63.7612 99.4738 63.742 99.4936 63.7137C99.5134 63.6855 99.5211 63.6505 99.5151 63.6166C99.5091 63.5826 99.4899 63.5524 99.4616 63.5326C99.4334 63.5129 99.3984 63.5051 99.3645 63.5111ZM96.6002 69.1602C98.2045 68.7535 98.3024 68.7535 98.2648 68.5727C98.2271 68.3919 98.1066 68.4371 96.555 68.8062C96.2537 68.874 96.4119 69.213 96.6002 69.1602ZM98.212 71.8718C97.6112 72.1468 96.95 72.2635 96.2913 72.2108C96.0503 72.2108 96.0352 72.5572 96.2913 72.5798C97.016 72.6552 97.7464 72.5081 98.3853 72.158C98.551 72.0601 98.4003 71.7889 98.212 71.8718ZM61.9146 73.4837C62.5021 73.4159 62.7732 72.7305 62.4945 72.4442C62.2158 72.158 61.5003 72.4442 61.4626 73.0619C61.45 73.1227 61.4532 73.1858 61.4719 73.245C61.4907 73.3042 61.5245 73.3576 61.5699 73.4C61.6153 73.4424 61.6709 73.4724 61.7312 73.487C61.7916 73.5017 61.8548 73.5005 61.9146 73.4837ZM63.195 72.5045C63.775 72.5045 63.8654 71.6082 63.2929 71.6458C62.7205 71.6835 62.6527 72.5045 63.195 72.5045ZM52.8232 73.4762C53.1848 73.4762 52.9438 72.9037 52.9664 71.8567C52.9664 71.8108 52.9481 71.7667 52.9156 71.7342C52.8831 71.7018 52.8391 71.6835 52.7931 71.6835C52.7472 71.6835 52.7031 71.7018 52.6706 71.7342C52.6381 71.7667 52.6199 71.8108 52.6199 71.8567C52.5937 72.346 52.5937 72.8363 52.6199 73.3255C52.6339 73.3686 52.6611 73.4063 52.6975 73.4333C52.734 73.4603 52.7779 73.4753 52.8232 73.4762ZM47.2871 72.3463C47.2785 72.3038 47.2554 72.2655 47.2217 72.238C47.1881 72.2105 47.146 72.1955 47.1026 72.1955C47.0591 72.1955 47.017 72.2105 46.9834 72.238C46.9498 72.2655 46.9267 72.3038 46.918 72.3463C46.9027 72.7963 46.9178 73.2467 46.9632 73.6946C46.9773 73.7478 47.0104 73.7941 47.0562 73.8247C47.102 73.8553 47.1574 73.8681 47.212 73.8607C47.2666 73.8533 47.3166 73.8262 47.3526 73.7845C47.3887 73.7428 47.4082 73.6894 47.4076 73.6343C47.4528 73.5138 47.2871 72.5497 47.2871 72.3463ZM50.0815 74.3424C50.0733 74.3035 50.052 74.2687 50.0211 74.2437C49.9903 74.2187 49.9518 74.205 49.9121 74.205C49.8724 74.205 49.8339 74.2187 49.803 74.2437C49.7722 74.2687 49.7508 74.3035 49.7426 74.3424C49.7426 75.1709 48.6128 75.6002 48.9894 75.9015C49.4874 76.1932 50.0374 76.3851 50.6088 76.4664C50.8272 76.4664 50.8046 76.2254 50.6088 76.2103C50.1849 76.1568 49.7824 75.9932 49.4413 75.7358C49.7568 75.3254 49.9756 74.8491 50.0815 74.3424ZM56.386 76.2179C56.386 75.9542 55.9416 75.9015 55.9265 76.1727C55.8361 77.3402 55.0904 77.7996 54.1866 77.6113C54.1499 77.6094 54.1137 77.6202 54.0841 77.642C54.0546 77.6639 54.0336 77.6953 54.0247 77.7309C54.0158 77.7665 54.0195 77.8041 54.0353 77.8373C54.0511 77.8704 54.078 77.8971 54.1112 77.9126C54.3756 78.0075 54.6593 78.0354 54.937 77.9941C55.2148 77.9527 55.478 77.8432 55.7032 77.6754C55.9284 77.5076 56.1086 77.2868 56.2277 77.0324C56.3469 76.7781 56.4012 76.4983 56.386 76.2179ZM57.7116 66.9081C57.6681 66.888 57.6211 66.8767 57.5732 66.8749C57.5254 66.8731 57.4776 66.8809 57.4328 66.8977C57.3879 66.9145 57.3469 66.9401 57.312 66.9729C57.2771 67.0057 57.2491 67.0451 57.2296 67.0889C57.2163 67.139 57.2137 67.1913 57.222 67.2425C57.2303 67.2937 57.2492 67.3425 57.2777 67.3858C57.3061 67.4292 57.3433 67.4661 57.3869 67.4941C57.4306 67.5221 57.4796 67.5406 57.5308 67.5483C57.6092 67.5548 57.6873 67.5338 57.7519 67.489C57.8164 67.4441 57.8634 67.3783 57.8848 67.3026C57.9061 67.227 57.9005 67.1463 57.8689 67.0743C57.8373 67.0024 57.7817 66.9436 57.7116 66.9081ZM59.3235 65.9063C59.2909 65.8888 59.2547 65.8789 59.2178 65.8771C59.1808 65.8754 59.1439 65.882 59.1097 65.8963C59.0756 65.9107 59.0451 65.9325 59.0205 65.9601C58.9959 65.9878 58.9777 66.0206 58.9674 66.0561C58.9571 66.0917 58.9548 66.1291 58.9608 66.1656C58.9668 66.2022 58.9809 66.2369 59.002 66.2673C59.0232 66.2977 59.0508 66.323 59.083 66.3413C59.1151 66.3597 59.151 66.3706 59.1879 66.3733C59.2447 66.3775 59.3012 66.362 59.348 66.3295C59.3948 66.297 59.4289 66.2494 59.4448 66.1947C59.4607 66.14 59.4573 66.0815 59.4352 66.0291C59.4131 65.9766 59.3737 65.9332 59.3235 65.9063ZM59.7378 67.7291C59.804 67.7288 59.8681 67.7061 59.9198 67.6647C59.9715 67.6233 60.0077 67.5657 60.0225 67.5011C60.0374 67.4366 60.0299 67.369 60.0015 67.3092C59.9731 67.2494 59.9252 67.2009 59.8658 67.1717C59.8284 67.1528 59.7876 67.1417 59.7458 67.1391C59.7039 67.1365 59.662 67.1424 59.6226 67.1565C59.5831 67.1706 59.5469 67.1926 59.5162 67.2211C59.4855 67.2496 59.461 67.2841 59.444 67.3224C59.4301 67.3688 59.4271 67.4179 59.4352 67.4657C59.4433 67.5135 59.4623 67.5588 59.4907 67.5981C59.5191 67.6374 59.5561 67.6697 59.599 67.6924C59.6418 67.7151 59.6893 67.7277 59.7378 67.7291ZM60.6718 66.3583C61.0258 66.6294 61.3798 66.0419 60.973 65.8687C60.9409 65.8489 60.9052 65.8356 60.8679 65.8297C60.8306 65.8237 60.7925 65.8251 60.7558 65.8339C60.6817 65.8515 60.6176 65.8979 60.5776 65.9628C60.5377 66.0277 60.5251 66.1059 60.5428 66.18C60.5604 66.2542 60.6068 66.3183 60.6718 66.3583ZM58.9544 68.0756C58.9111 68.0544 58.864 68.0423 58.8158 68.0399C58.7677 68.0376 58.7196 68.0451 58.6744 68.0621C58.6293 68.079 58.5881 68.105 58.5533 68.1384C58.5186 68.1718 58.491 68.2119 58.4724 68.2564C58.4578 68.3064 58.4541 68.359 58.4613 68.4106C58.4685 68.4622 58.4866 68.5117 58.5144 68.5558C58.5421 68.5999 58.5789 68.6377 58.6223 68.6666C58.6657 68.6954 58.7147 68.7148 58.7661 68.7234C58.8488 68.7387 58.9342 68.7228 59.0059 68.6787C59.0775 68.6347 59.1301 68.5655 59.1536 68.4847C59.1771 68.404 59.1697 68.3174 59.1329 68.2418C59.0961 68.1662 59.0325 68.1069 58.9544 68.0756ZM60.5286 68.4597C60.9278 68.7911 61.3722 68.0907 60.8902 67.8873C60.8144 67.8446 60.7251 67.8326 60.6408 67.8538C60.5565 67.8751 60.4835 67.928 60.4371 68.0015C60.3906 68.0751 60.3742 68.1636 60.3913 68.2489C60.4083 68.3342 60.4575 68.4097 60.5286 68.4597ZM61.538 67.3902C61.5697 67.4203 61.6077 67.4429 61.6493 67.4565C61.6908 67.47 61.7349 67.4741 61.7782 67.4684C61.8216 67.4628 61.8631 67.4475 61.8998 67.4237C61.9365 67.4 61.9675 67.3683 61.9904 67.3311C62.0133 67.2939 62.0276 67.252 62.0323 67.2085C62.037 67.165 62.0319 67.1211 62.0174 67.0798C62.0029 67.0386 61.9794 67.0011 61.9486 66.9701C61.9178 66.9391 61.8804 66.9153 61.8392 66.9006C61.7758 66.8779 61.7065 66.8776 61.6429 66.9C61.5793 66.9223 61.5254 66.9658 61.49 67.0232C61.4547 67.0806 61.4402 67.1484 61.4489 67.2152C61.4577 67.282 61.4891 67.3438 61.538 67.3902ZM59.8056 69.1753C59.6624 69.5594 60.3102 69.8155 60.4307 69.3787C60.5512 68.9418 59.9336 68.8363 59.8056 69.1753ZM61.9221 68.4597C61.8828 68.4396 61.8397 68.4277 61.7957 68.4248C61.7516 68.4219 61.7073 68.428 61.6657 68.4428C61.6241 68.4576 61.5859 68.4808 61.5536 68.5109C61.5213 68.541 61.4954 68.5774 61.4777 68.6179C61.463 68.664 61.4585 68.7128 61.4646 68.7608C61.4708 68.8088 61.4873 68.8549 61.5132 68.8958C61.539 68.9367 61.5735 68.9715 61.6142 68.9977C61.6549 69.0238 61.7009 69.0407 61.7489 69.0472C61.823 69.059 61.8988 69.0435 61.9623 69.0034C62.0257 68.9634 62.0724 68.9016 62.0936 68.8296C62.1148 68.7576 62.1091 68.6804 62.0776 68.6123C62.046 68.5443 61.9907 68.49 61.9221 68.4597ZM34.4146 88.5179C33.6614 88.9246 33.8121 90.3482 34.6105 90.6871C34.7409 90.7449 34.8837 90.769 35.0259 90.7571C35.168 90.7453 35.3049 90.6979 35.4239 90.6194C36.2073 90.0695 35.5972 87.8852 34.4146 88.5179ZM34.2489 89.5875C34.228 89.4472 34.2441 89.3039 34.2956 89.1718C34.3471 89.0396 34.4323 88.9233 34.5427 88.8342C35.2959 88.3672 35.6725 90.0093 35.2959 90.3407C34.9193 90.6721 34.3092 90.3859 34.2489 89.5875ZM17.392 137.447C16.5635 136.852 15.9942 135.962 15.8009 134.961C15.6076 133.959 15.805 132.922 16.3525 132.061C16.3695 132.033 16.3747 132 16.3669 131.968C16.3591 131.936 16.3391 131.909 16.3111 131.892C16.2831 131.875 16.2496 131.87 16.2178 131.877C16.186 131.885 16.1586 131.905 16.1416 131.933C15.7726 132.429 15.5144 132.998 15.3844 133.603C15.2545 134.207 15.2558 134.832 15.3884 135.436C15.5532 135.952 15.8193 136.431 16.1711 136.843C16.5228 137.256 16.9532 137.594 17.4371 137.838C17.4673 137.838 17.4965 137.828 17.5214 137.811C17.5463 137.794 17.5658 137.77 17.5777 137.743C17.5896 137.715 17.5933 137.684 17.5884 137.655C17.5835 137.625 17.5702 137.597 17.5501 137.575L17.392 137.447ZM18.7176 132.762C18.7779 132.611 18.5594 132.528 18.4766 132.671C16.9702 135.24 18.9963 136.927 19.2298 136.927C19.2599 136.926 19.2891 136.917 19.314 136.9C19.3389 136.883 19.3585 136.859 19.3703 136.831C19.3822 136.804 19.3859 136.773 19.381 136.743C19.3762 136.714 19.3629 136.686 19.3428 136.663C18.9511 136.332 17.7686 135.18 18.7176 132.762ZM21.0902 135.172C20.9832 135.103 20.8915 135.012 20.8208 134.906C20.7502 134.799 20.7021 134.68 20.6795 134.554C20.6569 134.428 20.6603 134.299 20.6895 134.175C20.7187 134.051 20.773 133.934 20.8492 133.831C20.8672 133.799 20.8717 133.762 20.8619 133.726C20.852 133.691 20.8285 133.661 20.7965 133.643C20.7645 133.625 20.7267 133.621 20.6914 133.63C20.6561 133.64 20.6262 133.664 20.6082 133.696C20.4859 133.86 20.405 134.051 20.3722 134.253C20.3394 134.455 20.3558 134.661 20.4199 134.856C20.4673 134.993 20.5466 135.117 20.6514 135.218C20.7561 135.319 20.8833 135.394 21.0225 135.436C21.158 135.436 21.143 135.172 21.0902 135.172Z" fill="black"/>
<path id="Vector_3" d="M146.802 139.194C145.295 139.556 141.168 138.057 144.542 134.208H144.768C144.811 134.207 144.852 134.191 144.885 134.163C144.917 134.135 144.94 134.097 144.947 134.055C144.955 134.012 144.949 133.969 144.928 133.931C144.908 133.893 144.875 133.863 144.836 133.847C144.64 133.809 143.571 133.847 143.021 133.847C143.483 133.497 143.854 133.04 144.099 132.515C144.345 131.99 144.458 131.413 144.429 130.834C144.572 128.951 144.151 128.258 142.313 127.73C141.665 127.539 140.993 127.44 140.317 127.437C139.987 127.16 139.723 126.814 139.542 126.423C139.361 126.033 139.268 125.607 139.27 125.177C139.317 124.711 139.489 124.267 139.767 123.89C140.045 123.514 140.42 123.22 140.851 123.038C145.198 122.94 145.755 123.038 145.8 122.767C145.806 122.728 145.8 122.688 145.783 122.653C145.765 122.618 145.737 122.589 145.702 122.571C143.563 121.569 143.224 119.957 145.416 118.24C146.169 117.652 143.616 118.119 128.921 118.127C130.291 116.5 129.403 113.834 128.167 113.532H124.831C126.337 111.936 126.555 110.218 124.71 109.013L127.369 108.938C127.625 108.938 127.542 108.554 127.369 108.599H126.322C125.989 108.109 125.789 107.541 125.742 106.951C125.694 106.361 125.801 105.769 126.051 105.232H126.721C126.754 105.224 126.784 105.206 126.805 105.179C126.827 105.152 126.838 105.119 126.838 105.085C126.838 105.051 126.827 105.018 126.805 104.991C126.784 104.964 126.754 104.946 126.721 104.938C125.682 104.893 124.793 104.84 123.784 104.81C124.537 103.793 124.657 102.55 123.686 101.714C124.034 101.733 124.384 101.733 124.733 101.714C125.069 101.654 125.377 101.489 125.614 101.243C125.851 100.997 126.004 100.682 126.051 100.344C126.032 99.9723 125.894 99.6169 125.658 99.3296C125.422 99.0422 125.101 98.838 124.74 98.7467C124.582 98.7015 121.132 98.7467 119.889 98.7467C120.063 66.9083 120.334 16.7441 120.349 15.4485C120.454 9.75422 116.726 8.3909 110.851 8.05195C105.895 7.76573 62.9538 7.93144 62.8785 7.93144C60.3703 7.93144 57.5457 7.93144 55.6853 10.0254C53.8249 12.1193 53.8248 15.087 53.9002 17.8438C53.9604 19.8699 53.968 23.4854 54.209 57.011C53.123 57.0041 52.0404 57.1306 50.9852 57.3876C45.8332 58.6304 42.504 61.8542 41.2461 67.4506C39.7397 74.3501 43.3928 77.039 43.9276 78.8317C45.1553 83.012 42.278 83.6297 43.0539 87.9305C43.1141 88.2394 44.0632 87.0116 47.2116 85.6031C50.6387 84.059 52.3184 84.2172 52.3109 83.9762C52.3034 83.7351 52.6875 82.2212 52.5143 81.9801C52.1904 81.5508 51.761 82.2739 49.3056 81.0235C47.6635 80.1724 46.9932 77.1445 47.0911 75.4045C49.1097 75.3368 48.9741 75.6004 49.0344 73.514C49.1144 73.3906 49.2225 73.2879 49.3497 73.2142C49.4769 73.1405 49.6198 73.0979 49.7666 73.0899C49.9134 73.0818 50.06 73.1085 50.1946 73.1678C50.3291 73.2271 50.4477 73.3173 50.5408 73.4311C50.586 74.2446 50.473 74.7944 51.0907 74.817C51.3166 74.817 55.4217 74.817 55.8359 74.7267C56.3933 74.6137 56.3105 74.1919 56.3783 72.0829C57.1315 72.1732 58.6379 72.354 59.3384 71.9699C60.0088 73.1072 59.6849 71.8343 61.3495 70.6744C63.6769 69.0474 65.6428 71.2317 63.3003 73.4763C63.0109 73.7686 62.6501 73.98 62.2537 74.0897C61.8573 74.1994 61.4391 74.2034 61.0407 74.1015C60.9993 74.0904 60.9553 74.0958 60.9178 74.1166C60.8803 74.1373 60.8523 74.1717 60.8396 74.2126C60.827 74.2535 60.8306 74.2977 60.8499 74.336C60.8691 74.3742 60.9024 74.4036 60.9427 74.4178C61.0611 74.4678 61.185 74.5032 61.3118 74.5233C61.3118 74.93 60.6038 83.6071 61.0181 83.9385C62.758 88.1942 57.1541 92.8114 52.9511 91.207C51.3091 90.5819 49.185 88.7214 49.6746 86.9966C50.0362 85.6558 51.7309 85.0834 52.2356 84.9327C52.2469 84.9365 52.2589 84.9374 52.2707 84.9356C52.2824 84.9338 52.2936 84.9292 52.3033 84.9222C52.3129 84.9152 52.3208 84.906 52.3262 84.8954C52.3316 84.8848 52.3344 84.8731 52.3344 84.8612C52.3344 84.8493 52.3316 84.8375 52.3262 84.8269C52.3208 84.8163 52.3129 84.8072 52.3033 84.8002C52.2936 84.7932 52.2824 84.7886 52.2707 84.7868C52.2589 84.7849 52.2469 84.7859 52.2356 84.7896C48.3363 85.692 44.7165 87.533 41.6905 90.1525C41.0352 86.5898 41.1633 86.3864 36.8549 86.1605C34.9009 86.0399 32.9413 86.0399 30.9873 86.1605C28.8934 86.2961 29.029 87.3581 29.609 89.3391C30.1287 91.1618 30.784 93.1051 31.605 95.2141C30.3546 95.41 29.7671 96.1255 29.3001 97.3382C26.8522 103.65 32.8854 109.292 38.4969 111.137C38.2124 112.63 38.0287 114.139 37.9471 115.656C34.3471 113.799 30.5393 112.375 26.6036 111.416C26.0086 110.806 25.8504 109.751 26.7995 108.629H27.3418C27.3877 108.629 27.4318 108.611 27.4643 108.578C27.4968 108.546 27.515 108.502 27.515 108.456C27.515 108.41 27.4968 108.366 27.4643 108.333C27.4318 108.301 27.3877 108.282 27.3418 108.282L24.0502 108.147C24.4968 107.606 24.7794 106.948 24.8648 106.251C24.9502 105.555 24.8348 104.848 24.5323 104.215C24.9408 104.249 25.3515 104.249 25.76 104.215C26.7091 103.967 27.4171 102.581 27.1911 101.413C27.1281 101.021 26.9626 100.652 26.7113 100.343C26.46 100.035 26.1319 99.7989 25.76 99.6581C25.6998 99.6581 3.00536 99.4623 4.49672 99.4623C4.4733 99.463 4.45048 99.4698 4.43048 99.4821C4.41047 99.4943 4.39398 99.5115 4.3826 99.5319C4.37122 99.5524 4.36534 99.5755 4.36554 99.5989C4.36574 99.6224 4.37201 99.6454 4.38374 99.6656C4.43647 99.7786 4.54945 99.741 5.25747 99.7862C6.42496 100.931 5.76213 102.332 4.88086 103.658H4.05986C4.01991 103.658 3.98159 103.674 3.95334 103.702C3.92509 103.73 3.90922 103.768 3.90922 103.808C3.90922 103.848 3.92509 103.887 3.95334 103.915C3.98159 103.943 4.01991 103.959 4.05986 103.959C5.56629 104.012 7.07272 104.079 8.57916 104.125C8.89099 104.743 9.05345 105.425 9.05345 106.117C9.05345 106.809 8.89099 107.491 8.57916 108.109C7.90742 108.054 7.23227 108.054 6.56054 108.109C4.60971 108.599 3.73598 112.493 5.86758 114.188C5.3102 114.233 4.82814 114.263 4.36115 114.271C4.32519 114.271 4.2907 114.285 4.26528 114.31C4.23985 114.336 4.22557 114.37 4.22557 114.406C4.22557 114.442 4.23985 114.477 4.26528 114.502C4.2907 114.527 4.32519 114.542 4.36115 114.542H5.52863C6.88442 115.702 6.50781 117.818 5.36292 119.204C5.20475 119.204 4.37621 119.257 3.92428 119.257C3.88915 119.265 3.85773 119.284 3.83521 119.312C3.81269 119.34 3.80042 119.375 3.80042 119.411C3.80042 119.447 3.81269 119.482 3.83521 119.51C3.85773 119.538 3.88915 119.558 3.92428 119.566C5.3102 119.566 12.2097 119.566 13.5504 119.445C13.7914 121.373 15.0192 122.729 16.4804 123.964C18.9948 126.144 22.0584 127.592 25.3382 128.152C24.6905 128.574 22.0015 130.412 21.7454 130.623C20.5026 130.261 14.1153 128.875 11.5845 130.48C9.63366 131.715 10.0329 134.675 10.2814 135.895C10.658 137.703 11.3811 139.164 13.0005 140.053C17.6102 142.591 22.5965 138.705 23.4778 137.793C23.6736 138.208 23.7866 138.464 23.8694 138.501C33.4805 142.9 44.6205 141.462 54.9547 139.187C56.559 138.84 57.8772 138.501 59.1049 138.125C59.894 139.432 60.9837 140.532 62.2835 141.334C63.5322 142.194 65.0077 142.666 66.5241 142.689C72.836 142.689 73.7625 136.581 66.75 134.442C67.1417 134.155 67.5033 133.854 67.8723 133.545C68.136 133.545 98.9576 133.41 99.7861 133.342C99.863 133.645 100.002 133.928 100.194 134.174C100.385 134.421 100.626 134.624 100.901 134.773C99.4698 134.773 99.5074 134.728 99.4321 134.863C99.4057 134.911 99.398 134.967 99.4106 135.02C99.4231 135.073 99.455 135.119 99.4999 135.15C99.7883 135.341 100.031 135.593 100.211 135.888C100.39 136.184 100.503 136.516 100.539 136.859C100.773 138.554 99.6204 140.528 99.176 141.055C98.9274 141.349 119.513 141.221 119.573 141.198C119.883 141.058 120.156 140.849 120.374 140.588C120.592 140.328 120.748 140.021 120.831 139.692C132.016 140.249 146.026 139.503 146.907 139.39C146.932 139.393 146.957 139.389 146.979 139.379C147.002 139.368 147.021 139.352 147.035 139.332C147.049 139.311 147.057 139.287 147.058 139.262C147.06 139.238 147.054 139.213 147.042 139.191C147.03 139.169 147.013 139.151 146.992 139.139C146.97 139.126 146.946 139.12 146.921 139.12C146.896 139.12 146.872 139.127 146.851 139.141C146.83 139.154 146.813 139.172 146.802 139.194ZM99.6505 132.815C98.3098 132.815 73.288 132.973 68.4146 133.026C71.7665 129.824 73.0997 125.802 72.6553 122.375C118.3 122.676 115.355 122.616 115.468 122.413C115.581 122.209 114.866 15.3054 114.67 15.1548C114.474 15.0041 59.0296 14.8083 58.9317 14.8083C58.8851 14.7957 58.8362 14.7938 58.7888 14.803C58.7414 14.8121 58.6967 14.832 58.6582 14.8611C58.6197 14.8902 58.5883 14.9277 58.5665 14.9708C58.5447 15.0138 58.5331 15.0613 58.5325 15.1096C58.5325 20.7813 58.5776 47.2418 58.6153 57.5609C57.3383 57.2656 56.0377 57.0841 54.7287 57.0185C54.6157 45.7806 54.3446 15.9457 54.4802 14.3112C54.5942 12.7687 55.2382 11.313 56.3029 10.1911C57.3047 9.18931 58.6982 8.68466 60.6942 8.54908C62.4115 8.45116 109.555 8.58674 111.16 8.69219C114.414 8.91062 118.24 9.52826 119.4 12.5863C119.92 13.9572 119.761 9.80695 119.4 74.094C119.114 128.74 119.204 124.77 118.986 124.733C118.88 124.733 99.5526 124.642 99.1835 124.635C99.1436 124.635 99.1053 124.651 99.077 124.679C99.0488 124.707 99.0329 124.745 99.0329 124.785C99.0329 124.825 99.0488 124.864 99.077 124.892C99.1053 124.92 99.1436 124.936 99.1835 124.936H99.6806C99.9231 125.027 100.134 125.187 100.288 125.395C100.441 125.604 100.531 125.852 100.547 126.111C100.518 126.394 100.424 126.666 100.274 126.908C100.124 127.149 99.9212 127.353 99.6806 127.505C99.6377 127.521 99.6033 127.555 99.5849 127.597C99.5665 127.64 99.5658 127.688 99.5827 127.73C99.5997 127.773 99.6331 127.808 99.6754 127.826C99.7178 127.845 99.7657 127.845 99.8087 127.828C100.818 127.889 101.82 127.934 102.776 127.964C103.808 128.642 103.53 129.666 102.694 130.54C102.311 130.522 101.927 130.545 101.549 130.608C101.03 130.708 100.56 130.98 100.215 131.381C99.8706 131.781 99.6716 132.287 99.6505 132.815ZM5.68681 99.8163C7.39661 99.8991 12.8574 99.9594 14.4919 99.9745C14.8877 100.523 15.1008 101.181 15.1008 101.858C15.1008 102.534 14.8877 103.192 14.4919 103.741C12.8876 103.741 7.03506 103.665 5.21981 103.635C5.74706 103.002 6.84676 101.293 5.68681 99.8163ZM61.7035 136.724C56.2201 138.984 44.952 140.934 38.1881 140.934C33.3139 141.025 28.4748 140.093 23.9824 138.2C23.8318 137.824 22.0542 133.319 21.9864 130.819C31.9515 124.145 41.0352 119.046 43.905 117.434C48.3554 115.018 53.4707 114.113 58.4797 114.858C60.3552 116.455 60.9427 117.479 63.8878 118.722C66.4111 119.792 69.0775 120.771 71.6911 120.093C71.9103 120.666 72.0743 121.259 72.1807 121.863C72.1407 121.927 72.1247 122.003 72.1358 122.077C72.1468 122.152 72.1841 122.22 72.241 122.27C72.9189 127.376 69.8006 133.417 61.7035 136.754V136.724ZM34.5199 96.2837C34.6103 97.0369 32.6143 97.293 31.8008 97.2328C31.7759 97.2324 31.7513 97.2386 31.7295 97.2506C31.7077 97.2627 31.6894 97.2803 31.6765 97.3016C31.6635 97.3229 31.6564 97.3472 31.6557 97.3721C31.6551 97.397 31.661 97.4217 31.6728 97.4437C31.8008 97.7073 34.5952 97.0369 34.3919 98.1969C34.3316 98.5434 33.827 98.6488 32.9382 98.9501C32.0494 99.2514 31.7632 99.3192 31.8234 99.5075C31.9515 99.8765 33.0888 98.9802 33.9851 99.643C34.181 99.7786 33.4805 100.675 31.8837 100.841C31.6803 100.841 31.6803 101.187 31.8837 101.172C32.5326 101.118 33.1596 100.911 33.714 100.57L34.1659 101.94C33.1029 103.099 31.8235 104.038 30.3998 104.705C29.819 103.915 29.4029 103.017 29.1765 102.063C28.95 101.109 28.9178 100.12 29.0817 99.1535C29.2323 98.0613 29.7144 96.4042 30.5881 95.8544C31.8611 95.1087 34.4371 95.6133 34.5199 96.2837ZM41.9316 94.4308C41.4989 94.5233 41.0754 94.6544 40.6662 94.8225C39.7849 95.1614 40.154 95.7263 40.8997 96.3289C40.5306 96.4268 40.1841 96.5473 40.2142 96.9465C40.2666 97.1572 40.3714 97.3513 40.5189 97.5106C40.6664 97.67 40.8518 97.7894 41.0578 97.8579C40.0109 98.453 41.7056 99.7862 43.3777 99.9594C43.7242 100.908 44.613 104.26 44.7863 105.134C42.6773 104.938 38.06 105.285 36.6591 105.029C35.2581 104.772 35.6196 105.089 34.0077 100.441C34.5425 99.9594 34.4521 99.3192 33.6236 99.1986C33.488 99.1986 33.5332 99.1986 34.1433 98.9727C34.3322 98.9131 34.4955 98.7917 34.6069 98.628C34.7183 98.4643 34.7713 98.2678 34.7574 98.0703C34.7434 97.8727 34.6634 97.6856 34.5301 97.5392C34.3969 97.3927 34.2181 97.2954 34.0228 97.2629C35.5292 96.6754 35.0622 95.0032 31.8912 95.2217C31.2284 93.4365 29.7295 88.7967 29.6315 88.0511C29.4583 87.0342 29.8274 86.7329 30.5731 86.6727C33.2851 86.4733 36.0093 86.5086 38.7153 86.7781C41.4269 87.0191 40.508 87.9305 41.9316 94.4308ZM61.6056 74.5685C62.7203 74.5685 63.9782 73.755 64.6184 71.9398C64.7063 71.6784 64.7287 71.3994 64.6838 71.1273C64.6389 70.8552 64.5279 70.5983 64.3607 70.3791C64.1934 70.1598 63.975 69.9849 63.7245 69.8696C63.474 69.7543 63.199 69.7022 62.9237 69.7178C62.9757 68.5072 62.8745 67.295 62.6224 66.1099C62.3207 65.0684 61.7306 64.1336 60.9201 63.4133C63.4961 61.5529 61.8541 58.6455 59.248 57.7567C59.248 47.754 59.2028 21.3387 59.1953 15.4335C63.451 15.4335 110.504 15.667 114.18 15.667C114.27 15.667 114.775 109.51 114.933 121.961C110.986 121.878 75.9694 121.78 72.5649 121.773C72.4465 121.179 72.2699 120.599 72.0376 120.04C74.9827 119.121 77.1218 116.658 78.1914 113.645C81.1139 113.585 102.159 113.239 103.612 113.201C103.657 113.192 103.697 113.168 103.726 113.133C103.754 113.098 103.77 113.054 103.77 113.009C103.77 112.964 103.754 112.92 103.726 112.885C103.697 112.85 103.657 112.826 103.612 112.817C100.901 112.817 81.4001 113.246 78.3044 113.321C78.6501 112.239 78.8774 111.123 78.9823 109.992C79.4905 109.828 79.9802 109.611 80.4435 109.344C80.5113 109.307 80.4962 109.254 80.4887 108.222C85.0833 108.222 101.021 107.936 102.731 107.778C102.772 107.769 102.808 107.747 102.835 107.715C102.861 107.683 102.875 107.642 102.875 107.601C102.875 107.559 102.861 107.519 102.835 107.487C102.808 107.454 102.772 107.432 102.731 107.424C100.02 107.582 85.121 107.853 80.4887 107.876C80.4557 106.241 80.3097 104.61 80.0518 102.995C103.115 102.995 102.95 103.198 103.778 102.061C104.2 101.481 104.185 97.4587 104.185 96.939C104.057 95.9372 102.912 95.6736 102.422 95.6133C101.722 95.5154 101.955 95.5154 78.2517 95.9071C76.1502 90.9509 72.2711 88.051 67.5183 85.6935C65.5294 84.7474 63.4212 84.0759 61.2516 83.6975C61.1687 82.9217 61.4851 76.4515 61.6056 74.5685ZM70.8023 109.337C71.4125 109.465 74.4931 110.09 74.93 110.188C75.918 111.827 76.5637 113.648 76.8281 115.543C76.2018 116.659 75.3369 117.622 74.2953 118.364C73.2536 119.106 72.0609 119.609 70.8023 119.837C69.5964 119.858 68.3923 119.731 67.217 119.46C69.1453 116.41 70.9756 112.983 70.8023 109.337ZM103.191 96.1632C103.342 96.2337 103.474 96.3385 103.577 96.4693C103.681 96.6001 103.752 96.7532 103.786 96.9164C103.786 97.2704 103.62 100.795 103.575 101.225C103.432 102.558 101.662 102.483 100.396 102.49C99.2664 102.49 84.1795 102.588 79.9464 102.588C79.6064 100.439 79.0771 98.3244 78.3646 96.2686C102.686 95.8092 102.347 95.6585 103.228 96.1632H103.191ZM77.0992 114.994C76.7967 113.339 76.216 111.747 75.3819 110.286C76.4358 110.442 77.5099 110.394 78.5454 110.143C78.3954 111.824 77.9168 113.459 77.1369 114.956L77.0992 114.994ZM66.9157 119.385C65.1364 118.757 63.4045 118.002 61.7336 117.125C64.2791 114.386 66.0201 110.998 66.7651 107.333C67.9122 108.108 69.1522 108.736 70.4559 109.201C70.6442 113.043 68.7009 116.274 66.9157 119.385ZM61.4549 116.944C60.4908 116.236 57.4478 113.389 56.6118 112.583C59.4312 110.534 61.4264 107.545 62.2383 104.155C63.6694 105.096 65.914 106.753 66.5015 107.168C65.6505 110.793 63.9169 114.151 61.4549 116.944ZM37.8943 105.45C38.5346 105.45 39.2953 105.511 39.9355 105.511C39.2564 107.209 38.7664 108.977 38.4743 110.783C37.5826 110.475 36.7184 110.092 35.8908 109.638C36.7304 108.331 37.4034 106.924 37.8943 105.45ZM56.3481 112.305C55.2334 111.212 54.1412 110.083 53.0942 108.953C55.3747 106.977 57.1971 104.527 58.4345 101.775C59.7301 102.528 60.9126 103.281 61.9521 103.944C61.1042 107.302 59.1251 110.265 56.3481 112.335V112.305ZM52.8306 108.682C52.4465 108.245 50.8798 106.482 50.3073 105.804C52.326 104.238 54.2542 102.264 55.1656 99.8765C56.2427 100.494 57.252 101.074 58.1784 101.616C56.9124 104.33 55.0905 106.747 52.8306 108.712V108.682ZM50.0814 105.548C49.5466 104.901 49.0495 104.298 48.5749 103.71C50.5559 101.511 50.9174 100.622 52.1904 98.2119C53.2524 98.7994 54.1035 99.2815 54.8568 99.7184C53.8851 102.294 51.9719 103.944 50.0814 105.578V105.548ZM48.8762 102.791C47.0685 99.5979 47.6184 101.775 46.0441 99.982C45.6073 99.5075 41.5248 99.7937 41.1558 98.4153C41.0277 97.9634 43.1066 98.1743 43.551 98.1441C43.5909 98.1441 43.6293 98.1283 43.6575 98.1C43.6858 98.0718 43.7016 98.0335 43.7016 97.9935C43.7016 97.9536 43.6858 97.9152 43.6575 97.887C43.6293 97.8587 43.5909 97.8429 43.551 97.8429C40.8017 97.8429 40.3724 96.9315 40.6812 96.7281C41.7803 96.3876 42.9566 96.3876 44.0556 96.7281C44.259 96.7808 44.3419 96.4343 44.1234 96.4118C41.0578 96.1029 40.6888 95.6585 40.6662 95.4552C40.5833 94.6116 47.1514 93.5194 51.7083 98.3701C50.9376 99.9574 49.9874 101.451 48.8762 102.822V102.791ZM34.3015 102.302C34.5726 103.123 34.8061 103.808 34.9869 104.238C34.8061 104.501 34.9267 105.307 32.3959 107.077C31.7249 106.439 31.117 105.738 30.5806 104.983C31.9717 104.333 33.2326 103.435 34.3015 102.332V102.302ZM35.1602 104.697C35.484 105.375 36.5461 105.45 37.5554 105.45C37.0429 106.855 36.3972 108.206 35.6271 109.488C34.5444 108.877 33.5338 108.147 32.6143 107.311C33.7059 106.715 34.593 105.804 35.1602 104.697ZM48.5071 75.0129C47.2069 75.133 45.8983 75.133 44.598 75.0129C44.485 73.3854 44.485 71.752 44.598 70.1245C45.8488 69.9929 47.1081 69.9602 48.364 70.0266C48.7527 71.6614 48.8014 73.3585 48.5071 75.0129ZM50.8948 70.5538C51.3242 70.4559 55.4744 70.4936 56.0318 70.5011C55.9715 73.981 55.9565 74.2672 55.7682 74.3651C55.5798 74.463 51.3166 74.4856 51.0681 74.4329C50.8195 74.3802 50.9626 74.4329 50.7442 70.9078C50.7367 70.6894 50.7367 70.5915 50.8948 70.5538ZM56.3481 71.774C56.3741 71.2974 56.3741 70.8196 56.3481 70.3429C56.3524 70.315 56.3507 70.2866 56.3434 70.2593C56.336 70.2321 56.3231 70.2067 56.3054 70.1847C56.2877 70.1628 56.2656 70.1447 56.2405 70.1318C56.2155 70.1188 56.188 70.1112 56.1598 70.1094C55.271 70.0567 51.1434 70.0642 50.7367 70.1772C50.1642 70.3354 50.3073 70.7271 50.4429 72.9641C50.2329 72.8129 49.9778 72.7372 49.7193 72.7495C49.4608 72.7618 49.214 72.8614 49.0193 73.0319C49.0193 72.5197 49.0193 69.7253 48.5297 69.6726C47.9656 69.631 47.3992 69.631 46.835 69.6726C46.722 67.0137 48.2435 65.0629 49.3131 64.6788C51.1283 64.0385 52.1527 66.4488 54.5178 66.2379C56.1297 66.0873 55.9489 64.8897 58.5099 64.1967C59.2176 64.0789 59.9116 63.8897 60.5812 63.6318L61.0256 64.0159C60.6791 64.1289 60.3251 64.2193 59.9862 64.3097C56.6419 65.1608 57.6211 65.5299 54.3672 66.8706C54.2391 66.9233 53.9529 67.0062 54.096 67.202C55.6024 69.296 58.3366 69.8985 58.7509 70.1471C59.1652 70.3957 58.9317 70.6292 59.2028 71.7364C58.653 72.0151 56.9658 71.8343 56.3481 71.774ZM6.02575 114.564C8.61682 114.564 11.5092 114.512 14.9363 114.564C13.9222 115.849 13.3893 117.448 13.4299 119.084C12.3302 119.084 6.95221 119.242 5.7546 119.272C7.08779 117.502 6.93714 115.619 6.02575 114.564ZM17.324 108.132L8.88044 108.094C9.19236 107.482 9.36432 106.809 9.38386 106.122C9.4034 105.436 9.27003 104.753 8.99342 104.125C10.0178 104.125 16.6084 104.215 17.8211 104.215C18.5668 105.744 17.7232 107.522 17.324 108.132ZM25.986 111.318C22.9731 110.768 19.8925 110.874 17.3014 112.418C16.8779 111.87 16.637 111.203 16.6127 110.511C16.5884 109.819 16.7819 109.137 17.1658 108.561C20.0883 108.561 23.1916 108.561 26.2797 108.621C25.942 108.976 25.7285 109.431 25.6714 109.917C25.6144 110.403 25.7168 110.895 25.9634 111.318H25.986ZM23.5079 108.154C22.6869 108.154 19.1769 108.094 17.791 108.117C18.1846 107.555 18.4308 106.903 18.5071 106.222C18.5835 105.54 18.4874 104.85 18.2279 104.215H24.0427C24.3899 104.843 24.5233 105.567 24.4227 106.278C24.3222 106.989 23.9932 107.647 23.4853 108.154H23.5079ZM14.4844 121.268C12.6917 118.172 14.6953 113.193 19.7569 111.8C23.0334 110.896 26.4379 111.687 29.3378 112.553C36.1167 114.64 36.87 115.95 42.037 118.052C38.4141 120.1 30.9873 124.477 25.6094 127.972C20.2088 127.06 15.9607 123.836 14.4844 121.268ZM59.3535 70.8024C59.2555 69.7102 58.9543 69.8383 57.7265 69.296C56.5324 68.849 55.4575 68.1324 54.5856 67.202C55.3935 66.9326 56.1554 66.5414 56.8452 66.0421C59.1049 64.5808 59.4212 64.8671 61.3194 64.2042C62.9237 66.1174 62.5772 69.0926 62.645 69.6575C62.0146 69.7927 61.4218 70.0654 60.9089 70.4559C60.3959 70.8465 59.9754 71.3455 59.6773 71.9172C59.4952 71.5902 59.3848 71.2281 59.3535 70.8551V70.8024ZM17.324 140.497C12.6616 139.104 10.7032 133.982 14.2057 130.216C14.8986 130.096 16.97 129.945 21.6173 131.06C21.7013 133.295 22.2503 135.488 23.2292 137.5C21.7454 139.134 18.3785 140.392 17.324 140.497ZM66.3358 134.743C72.4971 136.325 73.1147 141.996 66.8404 142.396C63.933 142.584 60.8975 140.558 59.3083 138.072C61.8033 137.33 64.1686 136.207 66.3207 134.743H66.3358ZM144.015 131.662C143.956 132.12 143.789 132.557 143.527 132.937C143.265 133.317 142.916 133.629 142.509 133.847C141.597 133.847 131.67 133.907 128.634 133.892C130.766 133.071 132.016 130.615 130.291 128.619C129.365 127.55 128.559 127.663 129.485 127.685C141.364 128.047 140.158 127.459 142.072 127.972C143.578 128.386 144.557 128.845 144 131.662H144.015ZM119.859 105.247C120.613 105.307 123.053 105.247 125.689 105.247C125.417 105.782 125.299 106.383 125.348 106.981C125.397 107.58 125.612 108.153 125.968 108.636C124.853 108.636 120.951 108.636 119.844 108.704C119.837 107.589 119.844 106.437 119.844 105.247H119.859ZM135.142 118.609C135.398 118.609 142.968 118.383 144.806 118.3C142.87 119.905 143.149 121.516 144.911 122.586C143.111 122.586 135.24 122.827 135.119 122.827C134.598 122.8 134.108 122.569 133.755 122.185C133.401 121.8 133.212 121.293 133.229 120.771C133.282 120.258 133.493 119.775 133.833 119.387C134.174 119 134.626 118.728 135.127 118.609H135.142ZM139.85 127.459C138.622 127.459 133.244 127.459 130.457 127.414C130.072 127.215 129.753 126.91 129.537 126.535C129.32 126.16 129.216 125.731 129.237 125.299C129.257 124.866 129.402 124.449 129.653 124.096C129.904 123.743 130.251 123.47 130.653 123.309C131.158 123.309 138.614 123.113 140.181 123.083C139.812 123.303 139.5 123.608 139.273 123.974C139.046 124.339 138.91 124.753 138.876 125.182C138.842 125.61 138.911 126.041 139.078 126.437C139.245 126.833 139.504 127.184 139.835 127.459H139.85ZM116.99 130.691L103.243 130.548C103.429 130.397 103.584 130.211 103.698 130.001C103.812 129.791 103.883 129.56 103.908 129.322C103.932 129.084 103.909 128.843 103.841 128.614C103.772 128.385 103.658 128.172 103.507 127.987C105.993 128.024 115.845 127.919 117.562 127.904C118.375 128.966 118.037 129.847 116.975 130.691H116.99ZM121.208 131.09C121.24 131.054 121.259 131.007 121.259 130.958C121.259 130.909 121.24 130.862 121.208 130.826C121.125 130.728 117.811 130.691 117.698 130.691C117.908 130.535 118.086 130.34 118.221 130.115C118.356 129.89 118.445 129.641 118.483 129.382C118.52 129.123 118.506 128.859 118.441 128.605C118.377 128.351 118.262 128.113 118.104 127.904C119.611 127.859 126.488 127.67 128.069 127.67C129.259 128.069 130.645 129.026 130.645 130.404C130.645 133.643 126.992 133.869 126.955 133.869C126.917 133.869 122.435 133.786 120.695 133.719C120.492 133.279 120.431 132.786 120.52 132.31C120.609 131.833 120.844 131.396 121.193 131.06L121.208 131.09ZM108.787 127.452C106.836 127.535 101.624 127.542 100.343 127.52C101.097 126.766 101.315 125.674 100.441 124.951C102.076 124.989 107.604 125.177 108.855 125.2C109.009 125.347 109.13 125.525 109.21 125.722C109.29 125.919 109.328 126.132 109.32 126.344C109.312 126.557 109.259 126.766 109.165 126.957C109.07 127.148 108.936 127.316 108.772 127.452H108.787ZM112.402 131.03C112.998 131.03 119.181 131.127 120.582 131.105C119.957 132.129 119.829 133.809 120.906 134.69C119.822 134.69 113.193 134.901 112.433 134.909C111.981 134.743 110.813 133.907 110.76 132.935C110.723 132.227 111.258 131.587 112.387 131.06L112.402 131.03ZM133.952 122.85L120.989 123.158C120.59 122.924 120.266 122.58 120.055 122.168C119.844 121.756 119.755 121.292 119.799 120.831C120.005 119.965 120.499 119.195 121.2 118.647C124.574 118.647 130.856 118.601 134.103 118.579C133.72 118.781 133.398 119.081 133.167 119.447C132.937 119.814 132.807 120.234 132.79 120.667C132.773 121.099 132.87 121.528 133.072 121.911C133.273 122.295 133.571 122.618 133.937 122.85H133.952ZM124.16 113.578H119.784V109.111H123.972C126.081 110.376 125.915 112.086 124.175 113.578H124.16ZM102.227 130.977C103.048 130.849 109.005 130.977 111.371 130.977C109.668 132.438 109.977 133.937 111.559 134.886C109.714 134.886 101.835 134.766 101.616 134.758C100.268 134.502 99.0555 131.466 102.242 130.977H102.227ZM122.917 101.722C123.217 101.84 123.472 102.049 123.647 102.319C123.823 102.589 123.91 102.907 123.897 103.228C123.852 103.836 123.584 104.405 123.143 104.825C122.481 104.825 120.545 104.788 119.852 104.825V101.737C120.876 101.729 122.172 101.722 122.932 101.722H122.917ZM119.761 119.694V118.632C121.193 118.654 120.515 118.421 119.761 119.694ZM120.831 123.46H122.669C122.304 123.651 121.999 123.939 121.787 124.291C121.574 124.644 121.461 125.048 121.461 125.46C121.461 125.871 121.574 126.275 121.787 126.628C121.999 126.98 122.304 127.268 122.669 127.459L119.581 127.557C119.775 127.426 119.935 127.251 120.05 127.047C120.164 126.843 120.23 126.614 120.241 126.38C120.252 126.146 120.208 125.913 120.113 125.699C120.018 125.485 119.874 125.296 119.694 125.147V122.533C119.988 122.936 120.383 123.256 120.839 123.46H120.831ZM119.761 135.104C119.852 135.104 121.637 135.104 121.742 135.067C121.848 135.029 121.893 134.698 121.742 134.69C121.359 134.588 121.032 134.339 120.831 133.997C123.791 134.118 131.948 134.291 134.103 134.306C131.722 135.579 131.466 138.697 134.178 139.661C131.014 139.661 122.812 139.518 120.899 139.443C121.012 138.908 121.622 136.332 119.761 135.104ZM134.826 134.351L143.864 134.246C142.29 135.684 142.358 138.614 144.392 139.33C142.396 139.405 135.617 139.654 135.18 139.661C134.559 139.554 133.965 139.327 133.432 138.991C131.986 137.914 132.227 135.255 134.826 134.336V134.351ZM99.9518 135.104C102.633 135.104 105.721 135.18 108.749 135.3C110.58 137.274 110.301 138.991 108.682 140.897C105.624 140.98 102.656 141.055 99.643 140.995C100.268 140.166 102.114 137.379 99.9518 135.074V135.104Z" fill="black"/>
</g>
</g>
</svg>
