<svg width="151" height="151" viewBox="0 0 151 151" fill="none" xmlns="http://www.w3.org/2000/svg">
<g id="Empty-State-Email-Zero-2--Streamline-Milano">
<g id="Empty-State-Email-Zero-2--Streamline-Milano.svg">
<path id="Vector" d="M54.3518 19.2448C53.8697 18.7928 52.8453 18.6723 52.4913 19.2448C53.1104 19.1921 53.7327 19.1921 54.3518 19.2448ZM52.9809 20.7889L52.9056 21.5421C52.9152 21.594 52.9427 21.6409 52.9833 21.6747C53.0239 21.7085 53.075 21.727 53.1278 21.727C53.1806 21.727 53.2317 21.7085 53.2723 21.6747C53.3129 21.6409 53.3404 21.594 53.35 21.5421L53.4329 20.7889C53.4329 20.5102 53.0186 20.5102 52.9809 20.7889ZM56.6416 22.1974C56.6614 21.9589 56.6992 21.7222 56.7545 21.4894C56.7545 21.2483 56.3478 21.2182 56.3026 21.4894C56.2574 21.7605 56.2273 21.9564 56.1896 22.1974C56.152 22.4384 56.5964 22.4761 56.6416 22.1974ZM53.478 26.2949H53.5383C53.5578 26.3018 53.5791 26.3018 53.5986 26.2949C53.9601 25.9107 51.1958 25.3082 51.1958 25.7074C51.1958 26.1066 52.1373 25.3986 53.478 26.2949ZM104.697 139.345C103.778 140.098 102.866 140.852 101.948 141.605C101.985 138.358 98.7915 136.611 99.364 137.741C99.9765 138.935 100.282 140.263 100.253 141.605C99.7933 141.288 97.7295 140.098 97.6014 140.693C97.5792 140.749 97.5792 140.811 97.6014 140.867C97.9555 141.62 98.2869 142.426 98.6936 143.179C98.8217 143.42 99.2661 143.247 99.1531 142.991C98.897 142.365 98.5882 141.763 98.2869 141.16C99.0233 141.422 99.7164 141.793 100.343 142.26C100.501 142.388 100.69 142.222 100.697 142.057C100.789 140.79 100.598 139.52 100.14 138.336C100.636 138.809 101.019 139.39 101.257 140.033C101.496 140.677 101.585 141.366 101.518 142.049C101.52 142.091 101.533 142.132 101.557 142.167C101.581 142.201 101.615 142.228 101.654 142.244C101.693 142.26 101.736 142.264 101.777 142.256C101.819 142.249 101.857 142.229 101.887 142.2L104.147 140.211C103.629 141.221 103.295 142.316 103.16 143.443C103.16 143.465 103.169 143.486 103.184 143.501C103.2 143.517 103.221 143.525 103.243 143.525C103.265 143.525 103.286 143.517 103.302 143.501C103.317 143.486 103.326 143.465 103.326 143.443C103.544 142.014 104.096 140.656 104.938 139.481C105.111 139.345 104.862 139.225 104.697 139.345ZM131.511 139.413C130.518 139.662 129.584 140.105 128.762 140.716C129.154 137.997 127.022 135.865 127.15 137.01C127.323 138.128 127.323 139.266 127.15 140.385C126.48 139.737 124.793 138.818 124.973 139.631C125.236 140.437 125.403 141.272 125.47 142.117C125.47 142.463 126.028 142.463 126.013 142.117C125.974 141.391 125.847 140.673 125.636 139.978C126.917 140.52 127.384 141.642 127.572 140.987C127.776 139.948 127.842 138.887 127.768 137.831C129.093 140.015 127.858 141.326 128.438 141.469C128.754 141.537 129.086 140.716 130.924 140.083C130.215 140.928 129.712 141.926 129.455 142.998C129.456 143.032 129.468 143.065 129.49 143.092C129.511 143.118 129.541 143.137 129.574 143.145C129.607 143.154 129.642 143.151 129.673 143.139C129.705 143.126 129.731 143.103 129.749 143.074C130.067 141.797 130.772 140.65 131.767 139.789C131.895 139.631 131.715 139.345 131.511 139.413ZM83.1924 69.6952C82.6901 69.8933 82.1432 69.9506 81.6107 69.8609C81.5203 69.8609 81.4977 69.9965 81.6107 70.0266C82.1535 70.1845 82.7345 70.1472 83.2527 69.9212C83.3958 69.8684 83.328 69.6425 83.1924 69.6952Z" fill="black"/>
<path id="Vector_2" d="M125.786 25.5416C123.221 25.1425 120.619 25.0238 118.028 25.1875C106.218 25.4964 91.5677 26.0914 91.5301 26.1667C84.5327 27.2438 82.1525 34.7986 81.3014 41.811C80.2394 48.8611 80.1565 49.185 80.503 49.7424C80.5783 55.4292 80.9775 62.6375 83.3577 68.2866C82.6917 68.3235 82.0281 68.3939 81.3692 68.4975H81.2186C81.1653 68.2756 81.0575 68.0705 80.9049 67.9009C80.7523 67.7312 80.5598 67.6023 80.3448 67.5258C80.3448 66.4789 79.3355 66.396 79.5238 66.5918C79.6554 66.7195 79.7626 66.8701 79.8402 67.0362L79.5313 66.6521C79.516 66.5263 79.4665 66.4071 79.3881 66.3075C79.3098 66.2079 79.2056 66.1317 79.087 66.0872C78.4768 65.334 77.8743 64.513 77.2491 63.7372C72.549 57.8997 67.2313 55.8359 66.4028 54.7588C66.2296 54.4651 64.6252 50.94 64.1431 49.6972C64.3554 49.7136 64.5666 49.7413 64.7758 49.7801C64.8133 49.7829 64.8505 49.7723 64.8809 49.7503C64.9112 49.7282 64.9327 49.696 64.9416 49.6595C64.9943 49.5466 63.8946 46.8199 63.8946 46.7371C59.3753 37.2616 56.9725 36.5912 56.3624 35.2806C56.3576 35.2516 56.3448 35.2244 56.3254 35.2022C56.306 35.18 56.2808 35.1637 56.2526 35.155C56.2244 35.1464 56.1943 35.1459 56.1658 35.1534C56.1373 35.161 56.1115 35.1763 56.0913 35.1978L55.5791 34.0228H55.4962C55.3767 34.0493 55.2637 34.0997 55.1641 34.1709C55.0644 34.242 54.9801 34.3326 54.9162 34.437C53.3447 33.4199 51.5671 32.7639 49.7115 32.5163C49.5835 32.3657 49.478 32.2602 49.2822 32.3205V32.2753C49.2511 32.2413 49.2133 32.2141 49.1712 32.1955C49.129 32.1769 49.0835 32.1673 49.0374 32.1673C48.9913 32.1673 48.9458 32.1769 48.9036 32.1955C48.8615 32.2141 48.8236 32.2413 48.7926 32.2753C47.9716 31.6049 48.303 30.6785 48.8303 27.8389C51.2481 29.511 52.0992 29.3453 53.7488 28.1628C54.4267 29.7822 57.1608 28.6448 56.1289 25.5717C56.2193 25.421 56.3022 25.2704 56.3775 25.1198C56.8972 25.1198 57.1307 24.7356 56.7616 24.2084C57.212 23.1336 57.4916 21.9951 57.5902 20.834C58.5636 19.4537 59.2171 17.8738 59.5033 16.2092C60.3469 15.8326 61.65 14.635 61.5144 13.7236C60.7612 11.8255 53.9145 13.7236 51.3761 14.7781C50.299 15.1924 49.2445 15.6292 48.1373 15.9531C47.0301 16.277 45.8776 16.4954 44.7704 16.7063C43.6632 16.9172 42.5108 17.1206 41.3734 17.3767C40.4922 17.4897 39.3849 18.2504 39.7841 19.1016C39.8547 19.2309 39.9713 19.3291 40.1108 19.3765C40.2503 19.4239 40.4026 19.4172 40.5373 19.3577C40.913 20.3704 41.3507 21.359 41.8479 22.3178C42.0965 22.9279 42.2999 23.7037 42.9326 23.8242H43.0681C43.1811 25.9709 43.2188 29.1871 41.9007 31.025C41.7726 30.7463 41.509 30.3546 41.2152 30.4601C41.1072 30.446 40.9973 30.4555 40.8933 30.488C40.7892 30.5205 40.6935 30.5752 40.6127 30.6484C40.4829 30.8181 40.3893 31.0126 40.3375 31.2198C40.2857 31.427 40.2768 31.6427 40.3114 31.8535C35.197 32.3356 32.5758 33.3599 30.4292 35.1903C29.9848 34.7911 29.676 34.0906 29.0433 34.309C28.29 34.5877 28.8098 35.8154 28.4181 36.3427C27.2958 36.7946 27.0397 37.9621 25.6237 40.041C24.3463 41.873 23.3013 43.8566 22.5129 45.9462C22.2568 47.4526 22.5129 47.8443 22.0384 49.2528C21.9932 49.3357 21.9706 49.3357 22.0007 49.411C20.1177 55.8359 20.3286 65.3867 23.7482 74.0713C22.8142 78.0935 22.8142 79.1706 19.6808 99.3191C22.5656 97.4737 23.7708 102.882 26.8891 99.4095C28.1017 98.3098 29.0207 95.779 33.2236 98.0386C35.0389 99.0103 36.6733 100.17 38.6317 98.5131C39.7615 97.5641 40.5449 95.3421 44.7252 97.5415C46.5631 98.5132 48.2804 99.5978 50.3894 98.6261C51.5343 98.0989 52.1821 96.9013 53.4023 96.4569C55.451 95.7413 57.6128 96.2686 59.3301 98.2721C59.9101 98.8144 59.3979 99.8991 61.2056 99.2739C61.6048 99.1308 62.584 97.7675 62.9305 97.421C60.7612 87.7497 59.6841 72.723 54.5547 62.3286C56.1816 61.711 55.3079 61.0256 55.5866 57.6286C55.6243 57.0064 55.759 56.3939 55.9858 55.8133C60.5578 62.0048 67.382 65.9215 74.3793 69.1226C74.2814 69.3335 74.4848 70.3052 75.7351 70.2073C75.4113 71.42 76.4884 73.0092 78.153 71.7137C78.2997 71.9171 78.4937 72.0816 78.7182 72.1932C78.9428 72.3048 79.1911 72.36 79.4418 72.354C79.6924 72.3481 79.9379 72.2812 80.1569 72.1591C80.3759 72.0371 80.5619 71.8635 80.6988 71.6535C81.6404 72.0903 81.7081 72.5046 82.6497 73.3783C83.6288 74.4253 84.48 73.7625 84.1561 73.0996L84.2992 73.19C85.0976 73.7022 86.1747 73.19 85.8433 72.6703C85.783 72.595 84.6532 71.8342 84.5779 71.7815C84.8597 71.8911 85.1527 71.9694 85.4516 72.015C92.1553 81.1365 105.849 78.3119 106.715 58.6755C107.325 58.8413 107.31 58.7659 108.221 58.4872L109.585 58.0805L108.282 143.661C108.244 143.736 108.236 146.357 108.236 146.433H108.628C108.673 146.794 109.08 146.689 109.133 146.433C109.133 146.35 108.952 145.092 108.831 144.294C109.749 144.877 110.534 145.647 111.136 146.553C111.242 146.711 111.566 146.727 111.596 146.493C111.911 144.351 111.739 142.165 111.091 140.098C114.714 143.495 112.914 147.389 113.901 146.591C114.722 145.898 116.16 145.085 116.823 144.482C116.404 145.195 116.225 146.024 116.311 146.847C116.311 146.907 116.416 146.892 116.416 146.847C116.391 146.379 116.469 145.911 116.645 145.476C116.821 145.041 117.09 144.651 117.433 144.331C117.614 144.211 117.433 144.022 117.245 144.098C116.082 144.591 114.984 145.226 113.976 145.988C114.019 144.816 113.809 143.648 113.362 142.563C112.915 141.478 112.241 140.501 111.385 139.699L112.643 57.1616C112.726 57.1616 129.04 52.2581 130.524 51.7459C134.011 50.5408 134.689 50.9099 134.968 44.0933C135.367 34.4069 130.178 26.4304 125.786 25.5416ZM61.0926 13.7989C61.2508 14.5973 60.4449 15.5614 59.5033 16.0058C59.5917 15.0655 59.4441 14.118 59.074 13.2491C60.0005 13.2189 60.7989 13.1662 61.0926 13.7989ZM40.2737 18.0019L40.1532 18.1374C40.1532 18.2128 40.1005 18.2052 40.447 19.1769C39.8369 19.3953 39.4678 18.7174 40.2737 18.0019ZM80.857 49.411C80.6838 48.9214 81.9642 39.5815 82.8078 36.1242C84.3143 30.0533 88.359 26.8371 92.0121 26.5433C92.1778 26.6036 96.7649 25.8428 100.9 31.4769C101.812 32.6787 102.571 33.9893 103.16 35.3786C104.724 39.1275 105.738 43.0824 106.173 47.1212C97.0436 47.5957 88.8788 48.2058 81.0679 48.9591C81.0161 48.9604 80.9658 48.9762 80.9225 49.0046C80.8791 49.033 80.8446 49.0729 80.8227 49.1198C80.8008 49.1667 80.7924 49.2188 80.7985 49.2703C80.8045 49.3217 80.8248 49.3704 80.857 49.411ZM49.7115 34.3165C49.8383 34.2444 49.9479 34.1454 50.0324 34.0264C50.117 33.9075 50.1745 33.7716 50.2011 33.6281C50.2276 33.4846 50.2225 33.3371 50.1861 33.1958C50.1497 33.0545 50.0828 32.9229 49.9902 32.8101C51.6983 33.0884 53.3313 33.7139 54.7882 34.6479C54.6276 35.2805 54.3117 35.863 53.8693 36.3427C52.8901 36.7871 52.0691 35.9736 51.1652 37.0959C50.2614 38.2182 49.3048 37.352 48.8604 37.2239C48.9766 37.0897 49.0629 36.9324 49.1135 36.7622C49.1642 36.5921 49.178 36.4131 49.1541 36.2372C49.945 36.2674 50.0806 35.0396 49.7115 34.3165ZM49.2671 32.8101C49.419 32.9798 49.5208 33.1884 49.5609 33.4127L49.2144 33.488C49.167 33.3808 49.1438 33.2645 49.1464 33.1474C49.149 33.0302 49.1774 32.9151 49.2295 32.8101H49.2671ZM48.9583 34.6479C49.0089 34.6767 49.0659 34.6922 49.124 34.6931C49.2312 34.9298 49.2499 35.1971 49.1767 35.4464C49.1654 35.5083 49.1367 35.5658 49.0939 35.6121C48.6796 35.4012 48.6721 34.7459 48.9583 34.6479ZM54.2308 27.869C54.8731 27.3349 55.4406 26.7167 55.918 26.0312C56.0385 28.6222 54.5321 28.7578 54.2308 27.869ZM46.9171 22.4684C46.9171 24.1858 45.7948 26.2948 44.7102 25.0369C44.3845 24.6182 44.2165 24.0982 44.2356 23.5681C44.2808 23.5455 46.1865 22.8074 46.887 22.476L46.9171 22.4684ZM41.9911 31.3338C43.5427 29.6165 43.4297 25.9483 43.1359 23.8016C43.3514 23.773 43.5651 23.7328 43.7762 23.6811C43.7694 24.2902 43.9774 24.8823 44.3637 25.3533C45.8099 26.9425 47.4745 24.6 47.3163 22.2575C51.9712 19.9753 55.3908 15.8175 56.611 15.0116C57.3776 16.5251 57.6914 18.2276 57.5148 19.915C57.3728 19.7554 57.1814 19.6479 56.9712 19.6096C56.761 19.5714 56.544 19.6047 56.3549 19.7041C56.7552 19.8021 57.1386 19.9596 57.4922 20.1711C57.3912 21.4679 57.0808 22.7397 56.5733 23.9372C55.903 23.0258 55.2025 22.4308 55.3682 21.2934C54.9388 22.6341 56.1214 23.5907 56.5733 24.3816C57.1985 25.3533 55.5188 24.5322 53.9823 25.0444C54.6532 24.9603 55.3337 24.9935 55.9933 25.1424C55.5658 25.9027 55.0219 26.5914 54.3815 27.1836C52.1218 29.2624 51.2405 29.1193 48.7851 27.4472C48.7097 27.4472 48.5817 27.4472 48.5516 27.5752C48.0996 30.5881 47.7306 31.7255 48.7399 32.426C48.6174 32.6088 48.5387 32.8174 48.51 33.0355C48.4813 33.2537 48.5032 33.4755 48.5742 33.6838C47.7606 33.9925 47.0324 34.4909 46.4501 35.1375C46.9742 34.7545 47.5283 34.4145 48.1072 34.1207C48.2963 34.0393 48.4899 33.9688 48.6871 33.9098L48.77 34.0303C48.6526 34.0671 48.5439 34.1275 48.4506 34.2078C48.3574 34.2881 48.2815 34.3866 48.2277 34.4973C48.0917 34.8278 48.0917 35.1987 48.2277 35.5292C47.9689 35.6073 47.7487 35.7792 47.61 36.0113C47.5525 36.1065 47.5117 36.211 47.4895 36.3201C47.3687 36.3278 47.2519 36.3667 47.1506 36.4331C46.8276 36.5672 46.5613 36.8095 46.3974 37.1185C46.1577 37.052 45.9062 37.0398 45.6613 37.0828C45.4163 37.1258 45.184 37.2229 44.9813 37.3671C44.8981 37.194 44.7771 37.0419 44.6272 36.9219C44.4772 36.802 44.3022 36.7173 44.1151 36.6741C43.9494 36.5485 43.7416 36.4919 43.5351 36.5159C43.466 36.2777 43.339 36.0602 43.1656 35.8828C42.9921 35.7054 42.7775 35.5736 42.5409 35.4991C42.6166 35.2977 42.632 35.0786 42.5852 34.8685C42.5384 34.6585 42.4314 34.4667 42.2773 34.3165C43.2188 34.4973 44.1452 34.8061 44.5369 35.4238C44.5404 35.4284 44.545 35.4322 44.5502 35.4348C44.5554 35.4375 44.5612 35.4388 44.5671 35.4388C44.5729 35.4388 44.5787 35.4375 44.5839 35.4348C44.5891 35.4322 44.5937 35.4284 44.5972 35.4238C44.6019 35.4202 44.6056 35.4157 44.6083 35.4105C44.6109 35.4052 44.6122 35.3995 44.6122 35.3936C44.6122 35.3878 44.6109 35.382 44.6083 35.3768C44.6056 35.3716 44.6019 35.367 44.5972 35.3635C44.0775 34.4973 43.0305 34.3542 42.0965 34.1734C41.979 34.0947 41.8491 34.0362 41.7124 34.0002C41.8325 33.9043 41.9286 33.7816 41.993 33.642C42.0573 33.5024 42.0882 33.3497 42.0831 33.1961C42.0779 33.0424 42.037 32.8921 41.9635 32.7571C41.89 32.6221 41.7859 32.5061 41.6596 32.4184C41.8132 32.2886 41.9262 32.1172 41.9849 31.9249C42.0437 31.7325 42.0458 31.5273 41.9911 31.3338ZM48.3105 36.9076C48.2415 36.8617 48.1878 36.7962 48.1564 36.7195C48.125 36.6428 48.1173 36.5585 48.1343 36.4774C48.1514 36.3963 48.1923 36.3221 48.2519 36.2645C48.3116 36.207 48.3871 36.1686 48.4687 36.1544C48.524 36.2808 48.5385 36.4213 48.5101 36.5563C48.4818 36.6913 48.412 36.8141 48.3105 36.9076ZM47.6176 37.2239C47.5917 37.3634 47.5368 37.4959 47.4563 37.6127C47.3759 37.7295 47.2717 37.828 47.1506 37.9018C47.0979 37.9018 46.9246 37.7964 46.9397 37.593C46.9746 37.4787 47.0327 37.3729 47.1105 37.2821C47.1883 37.1914 47.284 37.1177 47.3916 37.0658C47.4519 37.1411 47.4519 37.2013 47.6176 37.2315V37.2239ZM45.4784 37.7813C45.5339 37.7497 45.5951 37.7295 45.6584 37.7217C45.7218 37.7139 45.7861 37.7189 45.8475 37.7361H46.0584C46.066 37.8112 46.1009 37.8808 46.1563 37.932C46.135 37.9949 46.0988 38.0517 46.0509 38.0977C45.8543 38.0059 45.6631 37.9028 45.4784 37.7889V37.7813ZM45.855 38.1881C45.5538 38.2784 45.1847 38.1881 45.3579 37.9094C45.515 38.019 45.6813 38.1148 45.855 38.1956V38.1881ZM44.3486 37.5629C44.5068 37.7889 44.4089 38.0374 44.2432 38.0675C44.1104 38.0527 43.9825 38.0094 43.8681 37.9405C43.7537 37.8715 43.6555 37.7787 43.5803 37.6683C43.8239 37.5427 44.1043 37.508 44.3712 37.5704L44.3486 37.5629ZM43.49 37.4424C43.481 37.3632 43.4997 37.2834 43.5427 37.2164C43.58 37.2445 43.6225 37.265 43.6677 37.2767C43.713 37.2883 43.7601 37.2909 43.8063 37.2842L43.8666 37.3445C43.7465 37.3725 43.6283 37.4077 43.5125 37.4499L43.49 37.4424ZM42.9326 36.9076C42.8573 36.9603 42.4731 36.4858 42.4053 36.2372C42.4605 36.2135 42.5094 36.1774 42.5484 36.1318C42.6991 36.2372 43.1359 36.7118 42.9326 36.9076ZM41.7048 34.6479C41.7933 34.6916 41.8677 34.7593 41.9196 34.8432C41.9716 34.927 41.9989 35.0238 41.9986 35.1225C41.988 35.1747 41.988 35.2284 41.9986 35.2806C41.9132 35.2256 41.8398 35.1539 41.7828 35.0697C41.7259 34.9856 41.6865 34.8908 41.6672 34.7911C41.6593 34.7675 41.6565 34.7426 41.6591 34.7179C41.6617 34.6932 41.6696 34.6693 41.6822 34.6479H41.7048ZM41.4939 33.0813C41.8781 33.6688 40.8462 33.6838 41.1098 33.2319C41.1776 33.1114 41.268 33.1114 41.3433 33.0813C41.384 33.0971 41.4281 33.1023 41.4713 33.0963L41.4939 33.0813ZM41.0043 31.9891H41.3508C41.2228 32.1247 41.0646 32.1623 40.9817 32.0042L41.0043 31.9891ZM41.0043 31.0702C41.026 31.111 41.056 31.1468 41.0923 31.1753C41.1286 31.2038 41.1705 31.2245 41.2152 31.2359C41.2903 31.337 41.3441 31.4523 41.3734 31.5748L41.1474 31.7631H40.9215C40.9276 31.5346 40.9579 31.3074 41.0119 31.0852L41.0043 31.0702ZM40.3189 32.0418C40.3469 32.1678 40.4027 32.2859 40.4822 32.3876C40.5617 32.4892 40.6629 32.5718 40.7784 32.6293C40.6786 32.6962 40.5935 32.7828 40.5284 32.8838C40.4633 32.9848 40.4195 33.098 40.3997 33.2165C40.38 33.335 40.3847 33.4563 40.4135 33.5729C40.4424 33.6896 40.4948 33.7991 40.5675 33.8947C39.1313 33.5683 37.6601 33.3173 36.1536 33.1415C36.1336 33.1415 36.1145 33.1494 36.1004 33.1636C36.0862 33.1777 36.0783 33.1969 36.0783 33.2168C36.0783 33.2368 36.0862 33.256 36.1004 33.2701C36.1145 33.2842 36.1336 33.2922 36.1536 33.2922C37.291 33.5407 40.3942 34.0454 40.8914 34.1358C41.0146 34.1907 41.1481 34.2189 41.283 34.2186C41.1922 34.3022 41.1194 34.4035 41.0689 34.5161C41.0184 34.6288 40.9913 34.7505 40.9893 34.8739C41.0111 35.1032 41.0919 35.323 41.2239 35.5117C41.3559 35.7005 41.5346 35.8518 41.7425 35.951H41.7877C41.4789 36.5988 42.1794 37.5328 42.8196 37.6307C42.8161 37.6758 42.8161 37.7211 42.8196 37.7663C42.5176 37.9042 42.1769 37.9323 41.8565 37.8456C41.536 37.759 41.2559 37.563 41.0646 37.2917C39.7465 36.1092 39.4527 36.8021 38.7296 37.1185C37.1102 37.7587 35.777 34.6329 33.909 35.838C32.8771 36.5912 32.8997 35.2053 31.8151 35.0848C31.2351 35.13 30.9941 35.6271 30.5045 35.3334C32.6813 33.5332 35.295 32.5389 40.3264 32.0569L40.3189 32.0418ZM29.096 34.5124C29.8492 34.2563 30.2484 36.192 31.4686 35.4388C31.9883 35.1074 32.2218 35.3409 32.6135 35.7401C32.6831 35.8696 32.7807 35.9818 32.8992 36.0687C33.0177 36.1556 33.1541 36.215 33.2985 36.2424C33.4429 36.2698 33.5915 36.2647 33.7337 36.2273C33.8758 36.1899 34.0077 36.1212 34.1199 36.0263C34.2145 35.961 34.3154 35.9055 34.4212 35.8606C35.8071 35.2656 37.3512 37.9395 38.9029 37.3143C39.7314 36.9603 39.7992 36.3803 41.0269 37.4499C41.2349 37.7528 41.5431 37.9726 41.8972 38.0705C42.2514 38.1683 42.6288 38.1379 42.9627 37.9847C43.0907 38.1973 43.2674 38.3765 43.4783 38.5074C43.6891 38.6384 43.928 38.7174 44.1754 38.7379L44.2733 38.7002C44.4571 38.6763 44.6286 38.5945 44.7629 38.4667C44.8696 38.6178 45.012 38.7401 45.1775 38.8228C45.3429 38.9055 45.5261 38.946 45.711 38.9408C45.8959 38.9356 46.0766 38.8847 46.237 38.7928C46.3975 38.7009 46.5328 38.5708 46.6309 38.414H46.6987C47.2862 38.8584 47.9942 38.2935 48.2051 37.5554C48.3791 37.5682 48.5521 37.5203 48.6947 37.4198C49.3424 37.578 50.3442 38.4442 51.3385 37.2842C52.3327 36.1242 52.8976 37.0432 53.9672 36.531C54.9087 35.7778 54.7204 34.5274 55.4736 34.2713L55.9783 35.4012C54.4718 37.9169 48.3934 39.0844 45.3805 39.0392H45.1922C37.0274 39.0392 31.5213 35.4539 28.6742 36.2222C28.9002 35.6573 28.5687 34.6856 29.096 34.5124ZM22.8142 45.9989C23.5735 43.9314 24.5855 41.9657 25.827 40.1464C27.7327 37.2315 27.6272 36.5235 29.4199 36.3803C33.3592 36.3276 44.3712 42.5492 54.5321 37.0884C55.237 36.7301 55.8327 36.189 56.257 35.5217C57.6203 37.6156 58.9384 37.4047 63.0359 45.6223C60.5804 45.3511 60.023 47.4752 57.5073 48.0025C56.3781 45.8678 55.3673 43.6726 54.4794 41.4269C54.4794 41.344 54.3137 41.3742 54.3363 41.4269V41.4871C55.1465 43.7575 56.1836 45.9403 57.432 48.0025C55.0142 48.4243 53.229 46.496 49.6588 48.5147C48.6228 49.0638 47.4891 49.4041 46.322 49.5164C46.0057 47.317 45.6667 45.1176 45.3881 42.9107C45.3881 42.8429 45.2751 42.8429 45.2826 42.9107C45.5312 45.1252 45.7873 47.3472 46.1187 49.5541C42.1191 49.8478 40.2888 47.3622 37.3889 47.8217C36.3043 47.9874 35.7544 48.5749 34.4212 48.7105C34.941 47.1011 35.3487 45.4577 35.6414 43.792C35.6414 43.679 35.4908 43.6263 35.4757 43.7393C35.1663 45.4251 34.7538 47.0903 34.2405 48.7256C32.734 48.7933 31.4611 48.0401 30.1354 47.3246C31.0782 45.5218 31.8912 43.6541 32.5683 41.7357C32.6286 41.5775 32.3649 41.5022 32.3047 41.6679C31.6117 43.566 30.7983 45.3963 29.9622 47.2267H29.9095C27.6046 45.9989 24.7876 45.1553 22.6937 47.0685C22.7149 46.7101 22.7551 46.353 22.8142 45.9989ZM22.6786 47.5053C25.0512 45.0122 27.3937 46.3755 29.7814 47.6635C29.7136 47.8142 29.6383 47.9648 29.5705 48.123C29.5027 48.2812 29.6383 48.2661 29.6835 48.1908C29.7287 48.1154 29.8492 47.8895 29.9245 47.7388C31.2653 48.4921 32.6587 49.1624 34.1501 49.0494C33.9618 49.6369 33.7584 50.2169 33.5475 50.7894C33.5475 50.8722 33.6454 50.9023 33.6755 50.7894C33.9015 50.2094 34.1124 49.6294 34.3082 49.0419C36.1536 48.8461 37.3211 47.6786 39.4151 48.1983C41.7274 48.7406 43.2941 50.2395 46.1563 49.8328C46.2994 50.8044 46.4652 51.7686 46.6459 52.7327C46.6459 52.7929 46.7664 52.7854 46.7589 52.7327C46.6309 51.7535 46.4953 50.7743 46.3597 49.8027C49.0863 49.3357 51.4138 47.4526 54.3513 47.9196C55.4042 48.2022 56.4932 48.3266 57.5826 48.2887C57.613 48.3322 57.6406 48.3774 57.6655 48.4243C57.6752 48.4327 57.6873 48.4378 57.7001 48.4388C57.7129 48.4399 57.7256 48.4368 57.7366 48.4301C57.7475 48.4234 57.756 48.4133 57.7608 48.4014C57.7656 48.3896 57.7665 48.3764 57.7634 48.364C57.7487 48.3323 57.731 48.3021 57.7107 48.2736C59.9703 47.897 60.6783 45.4943 63.1037 45.6524C63.6931 46.853 64.1965 48.0939 64.6101 49.3658C63.737 49.2603 62.8517 49.3285 62.005 49.5663C61.1583 49.8042 60.367 50.207 59.6766 50.7517C57.5676 52.3485 57.5676 51.4221 52.3628 52.921C41.4261 56.0694 41.8781 52.808 34.2555 52.5368C33.8944 52.6154 33.5192 52.6013 33.165 52.4959C32.8108 52.3906 32.4889 52.1974 32.2294 51.9343L32.1766 51.8891C30.3748 50.3324 28.2498 49.1953 25.9551 48.5598C25.3847 48.3845 24.7845 48.3275 24.1914 48.3923C23.5982 48.457 23.0245 48.6422 22.5053 48.9365C22.5957 48.4619 22.6409 47.9874 22.6786 47.5129V47.5053ZM28.6215 77.3176C28.4859 77.3704 28.6215 77.5436 28.6215 77.875C28.7269 78.327 29.4651 80.677 29.2014 81.4754C29.2014 81.7917 28.8776 81.7692 28.87 81.7616C28.6667 81.7616 28.3804 81.5357 28.3277 81.1967C28.2147 80.4435 28.3277 80.1648 28.0641 80.2251C27.6525 81.0627 27.5875 82.0288 27.8833 82.914V83.3584C27.4389 83.6447 26.7309 82.2738 26.7158 81.1741C26.7158 81.1262 26.6968 81.0802 26.6629 81.0463C26.629 81.0124 26.583 80.9933 26.5351 80.9933C26.4871 80.9933 26.4411 81.0124 26.4072 81.0463C26.3733 81.0802 26.3543 81.1262 26.3543 81.1741C26.181 82.3265 26.6706 82.9216 26.7761 83.5015C26.7761 83.6597 26.5953 83.7426 26.4221 83.6748C25.0964 82.7559 25.7894 80.8352 25.4052 80.8352C25.0211 80.8352 25.2395 82.2813 25.1868 82.4546C24.9156 82.5224 24.7575 82.3265 24.6445 82.0629V82.0102C24.1022 80.5941 25.9927 77.988 25.6086 77.8901C25.5955 77.8845 25.5814 77.8816 25.5672 77.8816C25.5529 77.8816 25.5388 77.8845 25.5257 77.8901C24.5993 75.5928 23.8913 74.0562 23.8536 73.6495V73.7399C20.7527 66.0308 20.201 57.5315 22.2794 49.4863C22.7752 49.1013 23.3579 48.8437 23.9764 48.736C24.5948 48.6284 25.2302 48.6739 25.827 48.8687C28.0778 49.4968 30.1614 50.6157 31.9281 52.1452H31.9808C32.191 52.3731 32.4479 52.5529 32.734 52.6724C31.9808 53.9303 31.1673 55.2107 30.2484 56.5063C29.988 56.7963 29.7814 57.1304 29.6383 57.493C29.6383 58.3893 29.9622 58.6077 30.1806 60.7619C30.7983 68.9117 28.5461 71.6384 28.6215 77.3176ZM30.5798 61.1838C30.4593 59.2781 29.9999 58.3366 29.9999 57.5909C30.2686 57.0071 30.6076 56.4582 31.0092 55.9564C31.9507 58.9693 29.6383 58.4119 30.8811 60.9804C30.7702 61.0352 30.6665 61.1035 30.5723 61.1838H30.5798ZM34.6472 63.2702C33.5968 65.6766 32.8601 68.208 32.4553 70.8023C32.4553 70.8626 32.3348 70.855 32.3424 70.8023C32.6587 68.1807 33.423 65.633 34.602 63.2702C34.5643 63.1722 34.6472 63.225 34.6472 63.2702ZM34.7677 73.062C34.7531 73.0583 34.7399 73.0508 34.7292 73.0402C34.7186 73.0296 34.7111 73.0163 34.7075 73.0017C34.6322 69.6823 35.1081 66.3735 36.116 63.2099C36.116 63.0819 36.357 63.1346 36.3193 63.2626C35.3719 66.4116 34.8947 69.6832 34.9033 72.9716C34.9033 72.9877 34.8993 73.0036 34.8917 73.0178C34.8841 73.032 34.8731 73.0441 34.8597 73.0531C34.8463 73.062 34.8309 73.0675 34.8148 73.069C34.7988 73.0706 34.7826 73.0682 34.7677 73.062ZM35.8599 76.4891V76.4439C35.8528 76.4689 35.8362 76.49 35.8136 76.5027C35.791 76.5154 35.7643 76.5187 35.7394 76.5117C35.7249 76.5056 35.712 76.4963 35.7016 76.4846C35.6911 76.4729 35.6835 76.459 35.6791 76.4439C35.6188 71.9246 35.9427 67.2471 37.7128 63.0065H37.7655C36.0934 67.3677 36.0783 71.8794 35.8599 76.4514V76.4891ZM38.466 70.2751C38.4482 70.2904 38.4255 70.2989 38.402 70.2989C38.3785 70.2989 38.3557 70.2904 38.338 70.2751C38.1328 69.8766 37.9785 69.454 37.8785 69.0172C37.8785 68.9268 37.9915 68.859 38.0367 68.9494C38.241 69.349 38.3977 69.7712 38.5037 70.2073C38.4938 70.2203 38.4809 70.2307 38.466 70.2374V70.2751ZM39.3322 69.6499C39.3322 69.7177 39.2343 69.7102 39.2267 69.6499C39.0962 67.6978 39.3312 65.7386 39.9197 63.8727H39.9724C39.4413 65.737 39.225 67.6768 39.3322 69.6122V69.6499ZM42.9326 72.8963C42.9326 72.9162 42.9246 72.9354 42.9105 72.9495C42.8964 72.9636 42.8772 72.9716 42.8573 72.9716C42.8467 72.9726 42.8361 72.9715 42.8261 72.9682C42.8161 72.9649 42.8069 72.9595 42.799 72.9524C42.7912 72.9453 42.785 72.9366 42.7808 72.9269C42.7765 72.9173 42.7743 72.9068 42.7744 72.8963C42.8434 70.0933 42.7428 67.2887 42.4731 64.4979H42.6388C42.9629 67.2849 43.0612 70.0935 42.9326 72.8963ZM44.9888 66.283C44.9888 66.3508 44.8608 66.3358 44.8608 66.283C44.9082 65.6268 44.7999 64.9687 44.5445 64.3623L44.7177 64.3171C44.9822 64.9364 45.0758 65.6153 44.9888 66.283ZM49.1617 67.3677C48.8198 65.8451 48.3666 64.3498 47.8059 62.8936L47.9189 62.8333C48.5156 64.2944 48.977 65.8072 49.2972 67.3526C49.2972 67.4204 49.1843 67.458 49.1617 67.33V67.3677ZM54.3137 77.9127C54.3022 77.9137 54.2906 77.9124 54.2796 77.9087C54.2687 77.905 54.2587 77.8991 54.2502 77.8913C54.2416 77.8835 54.2349 77.874 54.2302 77.8634C54.2256 77.8528 54.2232 77.8414 54.2233 77.8298C53.9014 72.4598 52.4974 67.2102 50.0957 62.3964H50.3819C52.9657 67.1283 54.3445 72.4237 54.3965 77.8148C54.3915 77.8326 54.3806 77.8483 54.3655 77.8592C54.3505 77.8702 54.3322 77.8757 54.3137 77.875V77.9127ZM55.1271 69.4465C55.1271 69.4917 55.0744 69.5068 55.0292 69.4993C55.0183 69.4943 55.0086 69.487 55.0008 69.4779C54.993 69.4688 54.9873 69.4581 54.984 69.4465C54.3168 66.9378 53.1654 64.5837 51.5946 62.5169H51.813C53.4173 64.5387 54.5496 66.8934 55.1271 69.4089V69.4465ZM55.8804 55.4744C54.63 58.1408 55.8804 61.2365 54.9238 61.9219C53.0257 62.9237 51.2255 61.9219 49.3876 62.1027C46.9171 62.3512 45.9379 64.4226 42.4656 64.2493C41.896 64.2029 41.3314 64.1072 40.7784 63.9631C38.9631 63.4057 37.8936 62.1479 35.3552 62.8107C34.6044 62.9159 33.8416 62.9007 33.0956 62.7655C32.4457 62.5348 31.8748 62.1241 31.4494 61.5813C31.024 61.0386 30.7616 60.3861 30.6928 59.6999C30.6928 58.6454 32.0185 58.4571 31.1146 55.8284C31.8678 54.6534 32.2218 54.0734 32.9525 52.8682C33.2842 52.9691 33.6347 52.9923 33.9768 52.936C38.4961 53.034 39.5431 54.1713 43.9795 54.6609C46.8276 54.6802 49.6588 54.222 52.3553 53.3051C56.4453 52.1301 55.6243 52.5519 57.1156 52.2958C56.7695 53.3663 56.3595 54.4152 55.8879 55.4367L55.8804 55.4744ZM74.8463 69.3712C75.1853 69.5294 75.5016 69.6725 75.7728 69.7855C75.3661 69.8231 74.9518 69.7478 74.8463 69.3712ZM71.3213 67.202C60.6482 61.4775 59.5937 60.2573 56.1289 55.497C56.5889 54.416 56.9937 53.3124 57.3416 52.1903C59.9779 51.6556 60.4373 49.5842 63.8569 49.6821C64.5499 51.3543 66.1166 54.5555 66.2747 54.8266C66.6187 55.2572 67.0637 55.5962 67.5703 55.8133C73.837 59.6321 76.9855 64.0008 78.8685 66.1249C78.8594 66.1367 78.8544 66.1513 78.8544 66.1663C78.8544 66.1813 78.8594 66.1958 78.8685 66.2077L79.1472 66.5165C79.3355 67.1944 77.6408 69.3486 76.2247 69.7102C74.5777 68.9318 72.9432 68.0958 71.3213 67.202ZM77.4299 71.6007C75.9234 71.7966 76.3528 70.8475 76.2699 70.1395L76.4658 70.0868L77.7839 70.614C77.7877 70.845 77.8284 71.0738 77.9044 71.2919C77.7519 71.4033 77.5935 71.5064 77.4299 71.6007ZM77.8366 70.4257L76.8273 69.9587C77.4664 69.6585 78.0357 69.228 78.4988 68.6949C78.9618 68.1618 79.3084 67.5378 79.5163 66.863L79.8929 67.2773C80.1038 68.3619 79.2753 69.9211 78.5446 70.727L78.2433 70.599C78.2207 70.3127 77.9496 70.2826 77.8366 70.4257ZM78.281 70.9831C78.2648 70.916 78.2523 70.8481 78.2433 70.7797L78.4166 70.8475L78.281 70.9831ZM78.4693 71.4727C78.624 71.3375 78.7607 71.1831 78.876 71.0132C79.0719 71.0735 79.9833 71.42 80.2544 71.5179C80.1472 71.654 80.0096 71.7633 79.8527 71.837C79.6958 71.9107 79.5238 71.9468 79.3506 71.9424C79.1773 71.938 79.0074 71.8933 78.8544 71.8118C78.7014 71.7302 78.5696 71.6141 78.4693 71.4727ZM80.3825 71.3748C79.8932 71.2626 79.4145 71.1089 78.9514 70.9153C79.5946 70.0076 80.0574 68.9848 80.3147 67.9024L80.8194 68.5125L80.8721 69.0775C80.9543 69.8756 80.783 70.6795 80.3825 71.3748ZM83.7343 71.3748C83.7209 71.392 83.7136 71.4132 83.7136 71.435C83.7136 71.4569 83.7209 71.4781 83.7343 71.4953C83.8096 71.5631 85.4366 72.8887 85.4818 73.0017V73.062C84.4348 73.5365 83.32 71.8192 83.0187 72.3088C82.8229 72.6402 83.6816 72.8661 83.772 73.4988C83.5611 73.8905 82.4915 72.8285 82.1751 72.5046C81.8067 72.0798 81.3381 71.7536 80.8118 71.5555C81.308 70.6615 81.4658 69.6188 81.2562 68.618L81.3843 68.6632C81.7985 68.7234 85.3386 68.4523 85.1503 69.0624C85.0223 69.4315 84.2992 69.5143 83.9075 69.5068C83.883 69.4992 83.8568 69.4992 83.8322 69.5068C83.674 69.665 84.2088 70.1847 84.367 70.3353C84.6852 70.9017 85.0348 71.4499 85.414 71.9773C84.3595 71.7589 83.8548 71.1337 83.7343 71.3748ZM102.798 71.7212C98.1508 78.3345 89.7826 78.1462 85.3612 70.8852C85.3649 70.8627 85.3649 70.8398 85.3612 70.8174L85.2859 70.7647C85.0851 70.4182 84.8968 70.0642 84.721 69.7026C85.8508 69.4315 85.8584 68.3242 84.0657 68.2941C82.0019 63.3003 81.1131 55.6401 81.0528 50.2169C85.0826 52.5971 101.623 57.3047 106.451 58.6153C105.849 63.2702 105.45 67.9024 102.798 71.7212ZM106.376 58.3592C98.1433 56.0995 82.4388 50.8798 81.0604 49.7198C81.0695 49.6419 81.0479 49.5636 81.0001 49.5014C81.196 49.5466 81.5048 49.3507 91.1535 48.7481C96.0795 48.4469 101.171 48.138 106.15 47.3848C106.579 51.0379 106.67 54.3219 106.768 57.9976C106.716 57.9675 106.656 57.9548 106.597 57.9612C106.538 57.9677 106.482 57.993 106.438 58.0335C106.394 58.074 106.364 58.1275 106.353 58.1861C106.342 58.2447 106.35 58.3054 106.376 58.3592ZM133.801 49.0946C133.085 50.8948 131.789 50.9777 119.346 54.6458C112.952 56.5665 114.285 56.0845 112.635 56.6946C111.129 57.2444 108.236 58.3215 107.159 58.201C107.054 53.6817 106.971 51.4221 106.594 47.3396H106.715V47.1212H106.572C105.608 39.1672 102.512 28.464 94.8518 26.4153C103.664 26.34 119.03 25.0821 124.98 25.9483C133.025 27.1158 136.12 41.9315 133.801 49.0946Z" fill="black"/>
<path id="Vector_3" d="M123.203 34.9945L123.158 34.9342L123.06 35.002V34.9041C114.443 35.7778 117.787 35.5895 112.214 36.162V36.516H112.334C115.053 41.3818 113.765 45.306 114.684 45.1705C116.627 44.9068 123.527 43.6038 125.463 43.2347C125.493 40.2068 125.53 38.4593 123.203 34.9945ZM122.864 35.341C122.645 36.5508 122.222 37.7147 121.614 38.7832C119.761 41.796 121.463 39.4083 113.14 36.4633L122.864 35.341ZM114.91 44.2817C114.805 41.6211 114.089 39.0204 112.816 36.6817C114.642 37.3296 116.388 38.1838 118.021 39.2276C117.183 41.0271 116.139 42.7232 114.91 44.2817ZM115.068 44.5528C116.424 43.0113 117.532 41.2681 118.352 39.3858L119.904 40.4101C120.657 41.0654 121.192 40.1766 121.719 39.3255C123.11 40.2489 124.249 41.5045 125.033 42.9786C121.744 43.691 118.417 44.2165 115.068 44.5528ZM121.9 39.0468C122.501 37.9692 122.933 36.8057 123.18 35.5971C124.486 37.6636 125.193 40.0521 125.222 42.4965C124.468 41.0522 123.315 39.8548 121.9 39.0468ZM107.898 16.8345C108.137 16.8371 108.372 16.7783 108.582 16.6635C108.792 16.5488 108.969 16.382 109.095 16.1792C109.848 14.8761 109.909 10.4095 109.193 9.18178C108.673 8.28545 107.272 8.15741 106.64 9.64124C105.969 11.577 105.593 16.8043 107.898 16.8345ZM109.314 12.7294C109.314 17.0152 107.25 17.1433 106.768 14.9288C105.45 8.28545 109.494 6.71876 109.314 12.7294Z" fill="black"/>
<path id="Vector_4" d="M114.489 15.7498H114.534C114.594 14.9438 116.04 10.078 113.027 6.09354V6.02575C109.419 1.59683 100.682 3.54013 100.976 12.6013C100.275 23.4778 112.568 24.7055 114.489 15.7498ZM103.597 5.82238C104.171 5.25888 104.852 4.81597 105.599 4.51973C106.347 4.22349 107.147 4.07993 107.951 4.09751C108.372 4.1879 111.415 3.977 113.163 6.85428C116.048 12.4431 114.368 21.6625 107.815 21.2558C106.8 21.2371 105.804 20.979 104.908 20.5026C102.226 18.9961 101.33 15.3506 101.488 12.5561C101.352 8.10462 103.552 5.8977 103.597 5.82238ZM51.5046 61.1386C50.3394 60.2976 49.0744 59.6043 47.7385 59.0748C47.6707 59.0748 47.618 59.1275 47.6406 59.1802C47.6858 59.4137 48.0097 60.8523 48.1377 60.4833C48.1377 60.3402 47.8214 59.489 47.9193 59.3986C48.0172 59.3083 49.0792 59.8656 49.2751 59.956C50.0327 60.3445 50.7581 60.7928 51.4443 61.2967C51.5046 61.3269 51.5874 61.1988 51.5046 61.1386ZM45.4562 60.4607C44.8913 60.3929 44.1984 61.0256 43.7314 61.2817C42.7301 61.8254 41.7595 62.4239 40.824 63.0743C40.8134 63.0855 40.8075 63.1003 40.8075 63.1158C40.8075 63.1312 40.8134 63.146 40.824 63.1572C40.824 63.1572 40.8767 63.1948 40.8993 63.1572C44.5825 61.2139 47.038 58.5098 45.0495 63.4058C45.0495 63.5037 45.155 63.5338 45.155 63.4509C45.5474 62.685 45.8145 61.8611 45.9458 61.0105C45.9571 60.9409 45.9527 60.8697 45.933 60.802C45.9133 60.7343 45.8787 60.6718 45.8318 60.6192C45.7849 60.5665 45.7269 60.525 45.6619 60.4975C45.5969 60.4701 45.5267 60.4575 45.4562 60.4607ZM35.5364 61.5001C33.2767 61.1009 32.7269 59.715 32.4708 59.9259C32.2734 60.293 32.2149 60.7191 32.3062 61.1259C32.3976 61.5326 32.6325 61.8928 32.9679 62.1403C33.0357 62.1403 33.1412 62.1403 33.0809 62.0274C32.842 61.8078 32.6705 61.5247 32.5865 61.2113C32.5025 60.8978 32.5094 60.567 32.6064 60.2573C33.3998 61.0351 34.4318 61.5233 35.5364 61.6432C35.5554 61.6432 35.5736 61.6357 35.587 61.6223C35.6004 61.6088 35.6079 61.5906 35.6079 61.5717C35.6079 61.5527 35.6004 61.5345 35.587 61.5211C35.5736 61.5077 35.5554 61.5001 35.5364 61.5001ZM17.8207 112.154C20.0804 113.013 20.1632 108.388 22.34 108.064C24.1327 107.815 26.0685 109.495 27.4619 110.324C38.1199 116.959 37.2085 108.275 42.1572 109.073C44.7482 109.503 46.8422 112.259 49.5839 111.536C51.964 110.904 51.6778 107.77 53.9977 107.062C57.2215 106.068 59.6393 109.909 61.5299 111.069C63.0363 111.928 65.2432 112.184 66.2676 110.617C64.7964 106.343 63.6705 101.958 62.9007 97.5038C62.3132 98.2571 61.2663 100.351 60.0461 99.7635C59.3456 99.4321 59.0141 98.1667 58.4342 97.6394C57.8321 97.1304 57.12 96.7682 56.354 96.5813C55.5881 96.3944 54.7892 96.3879 54.0203 96.5623C51.9188 97.0745 50.9246 99.4245 48.6198 99.3869C46.1341 99.3869 44.3566 96.8862 41.9011 96.8937C39.6414 96.8937 39.197 99.3794 37.1709 99.6882C34.9112 100.035 33.3596 97.9633 31.2883 97.5415C28.1775 96.9314 28.0344 99.7484 25.8199 100.705C23.9218 101.571 21.2403 98.2194 19.6285 99.7334C18.122 109.525 17.9262 110.858 17.7078 112.124C17.7277 112.121 17.7479 112.122 17.7673 112.127C17.7867 112.133 17.8049 112.142 17.8207 112.154Z" fill="black"/>
<path id="Vector_5" d="M68.5418 117.336C67.2387 117.336 66.8169 118.843 65.7172 119.264C62.8173 120.191 61.0247 117.005 58.8027 116.199C57.8599 115.843 56.8337 115.771 55.8503 115.99C54.8669 116.21 53.9689 116.712 53.2666 117.434C52.6003 118.18 51.7119 118.691 50.7327 118.893C49.7536 119.095 48.7353 118.977 47.8283 118.556C44.7025 117.381 39.7991 113.02 38.0365 118.556C36.0104 124.883 31.3555 116.764 27.1752 115.83C24.6594 115.257 22.5278 116.545 22.2115 119.114C22.1211 119.784 22.2115 120.349 21.6541 120.839C20.0723 122.345 17.7826 120.439 16.3816 119.701C16.1707 119.596 16.3816 119.287 16.5623 119.393C17.2779 119.762 17.9407 120.296 18.6864 120.62C20.6222 121.479 21.2699 120.018 21.8424 118.474C22.4676 115.596 25.6085 114.708 27.8681 115.657C31.4685 116.997 32.5983 119.423 34.6471 120.093C35.2873 120.665 35.8823 120.5 36.4397 119.581C36.7936 119.542 37.1224 119.38 37.3678 119.122C37.6132 118.864 37.7594 118.528 37.7804 118.172C38.2324 116.914 38.722 116.048 40.0401 115.657C44.6874 114.241 48.3782 121.389 52.8448 117.396C53.8152 116.3 55.1763 115.628 56.6365 115.524C58.0966 115.42 59.5394 115.892 60.6556 116.839C61.374 117.458 62.1286 118.034 62.9153 118.564C63.5619 118.866 64.2812 118.979 64.9894 118.888C65.6975 118.798 66.3653 118.507 66.9148 118.052C67.5777 117.57 67.7208 117.193 68.5267 117.193C67.299 113.352 66.2671 110.813 66.2671 110.866C65.9336 111.308 65.4861 111.651 64.9726 111.858C64.4591 112.065 63.8989 112.128 63.3521 112.041C60.9795 111.83 59.5861 109.631 57.7633 108.388C52.7167 104.901 52.4908 110.264 50.4119 111.687C46.465 113.947 42.955 106.693 38.6316 110.723C37.9387 111.547 37.0983 112.234 36.1535 112.749C34.2417 113.389 32.1548 113.248 30.3462 112.357C27.7551 111.265 22.4148 106.159 20.5544 110.55C20.0497 111.74 19.2137 113.043 17.76 112.47C17.7311 112.459 17.7072 112.437 17.6922 112.41C16.8109 117.901 14.7471 123.708 16.1481 125.509C16.2008 125.757 16.4644 126.766 16.713 126.759C18.8973 126.548 19.9518 128.8 22.0307 128.732C22.6903 128.535 23.3267 128.268 23.9288 127.934C27.1752 127.181 30.1278 129.599 32.5682 130.668C33.2235 134.284 33.7131 136.619 33.3967 137.967C33.3591 137.993 33.3317 138.031 33.3193 138.075C33.3069 138.119 33.3103 138.166 33.3289 138.208L33.2536 138.464L33.0804 138.321C32.7335 139.581 32.8733 140.925 33.472 142.087C34.1198 143.789 33.7131 144.881 33.8713 145.175C34.0294 145.469 34.8128 145.303 35.1065 145.235L35.1668 142.147C37.2683 142.667 37.7503 145.597 42.1491 145.401C42.9023 145.401 45.4557 145.514 45.3653 144.241C45.3603 144.154 45.3377 144.07 45.2988 143.992C45.26 143.914 45.2057 143.845 45.1394 143.789C45.3043 143.781 45.4681 143.759 45.629 143.721L45.6892 140.633C47.7606 141.153 48.3104 144.083 52.664 143.887C53.4172 143.887 55.9706 144.008 55.8878 142.735C55.8275 142.373 55.4735 142.147 55.1345 141.981C54.1478 141.432 53.2741 140.709 52.3175 140.136V140.211C47.3915 135.413 48.3631 136.927 49.5683 129.365C53.3344 129.666 54.0424 127.105 58.8931 127.783C60.4758 127.922 62.0695 127.702 63.5551 127.138C65.0407 126.575 66.3797 125.683 67.4722 124.529C67.7462 124.527 68.0154 124.457 68.2558 124.326C68.4963 124.194 68.7006 124.006 68.8506 123.776V123.656C69.7695 122.021 69.0615 119.084 68.5418 117.336ZM42.3751 124.936C42.5408 126.111 42.7215 127.286 42.9098 128.461C41.6564 128.659 40.4432 129.059 39.317 129.644C39.4074 129.004 39.5053 128.371 39.5957 127.738C41.8704 126.955 40.9967 124.966 42.3751 124.936ZM43.8212 136.438C43.7083 136.528 43.761 136.588 43.7685 136.664C43.776 136.739 43.7158 136.837 43.6857 136.927L43.535 136.799C42.9626 140.505 44.6347 140.272 44.3334 143.315C43.4748 142.795 42.6914 142.17 41.8403 141.665V141.733C36.8916 136.897 37.8633 138.72 39.189 130.314C40.3719 129.663 41.6393 129.179 42.955 128.876C43.9945 135.293 44.1075 135.203 43.8212 136.438ZM26.9266 127.685C23.5447 126.699 22.6634 128.951 20.3887 127.889C19.6731 127.565 19.1911 126.864 18.4454 126.571C17.8741 126.44 17.3273 126.219 16.826 125.915L16.9164 125.765C15.9146 124.944 17.5415 123.505 19.3417 124.258C21.3603 125.011 23.5371 128.07 25.9474 126.977C27.0245 126.465 25.3674 124.371 24.8176 123.294C24.1548 121.991 28.3125 122.292 30.3537 123.234C30.7303 123.422 31.1069 123.626 31.4459 123.844C31.6869 125.463 32.0635 127.821 32.4627 130.224C30.6023 129.41 28.9151 128.198 26.9266 127.685ZM33.3892 133.666C32.8243 130.653 32.0711 126.661 31.4911 123.874C33.9842 125.448 36.0857 128.845 39.4978 127.768C38.3529 133.222 37.5319 136.807 37.9913 137.779C37.6223 137.854 38.4282 138.532 35.7317 138.456C35.0805 138.427 34.4432 138.258 33.8637 137.959C34.1499 136.4 33.6528 135.579 33.3892 133.666ZM33.6076 138.6C34.7374 139.503 38.1269 139.428 38.2248 138.23C39.3594 139.51 40.58 140.71 41.8779 141.823C41.9231 142.494 40.9816 142.81 40.0401 142.215C35.679 140.008 35.0538 139.872 33.5624 138.735L33.6076 138.6ZM52.325 140.49C52.1066 141.206 51.1274 141.085 50.5023 140.701C46.4952 138.652 45.5913 138.404 43.9945 137.168C44.0321 137.063 44.0397 137.055 44.0472 137.025C45.0791 137.907 48.1673 137.899 48.6418 136.89C49.8086 138.151 51.0379 139.352 52.325 140.49ZM48.3029 136.332C48.0317 137.04 47.0149 136.927 46.1185 136.912C45.4557 136.884 44.8073 136.709 44.2204 136.4C44.4539 135.218 44.2656 134.502 43.1885 128.823C42.9023 127.354 42.7592 126.638 42.4353 124.936C43.2789 124.936 44.1828 125.878 44.597 126.608C45.5235 128.16 47.2634 128.363 48.7397 127.309C49.1239 127.045 49.493 126.782 49.862 126.503C48.9582 131.308 47.8811 135.353 48.3029 136.332ZM55.2701 127.49C53.0933 128.122 52.2573 129.267 49.6587 128.883C49.7867 128.039 49.8922 127.203 50.0127 126.367C52.4079 124.484 55.6241 120.04 59.9401 122.119C61.6574 123.144 60.8891 124.416 62.6366 125.576C63.435 126.051 64.143 125.441 64.6552 124.657C65.672 123.226 68.5267 121.75 68.4213 123.204C68.0882 123.733 67.668 124.201 67.1785 124.59H67.2387C62.6516 129.041 58.5541 126.797 55.2701 127.49ZM47.8811 44.8542C48.2426 46.0594 48.6343 47.257 48.9958 48.4621H49.041C48.6945 47.2469 48.3355 46.0418 47.9639 44.8467C47.9639 44.7638 47.8208 44.8015 47.8434 44.8467L47.8811 44.8542ZM35.0161 19.1771C36.076 19.7825 37.2213 20.2244 38.4131 20.4877C36.033 23.2218 40.025 26.5963 42.3223 24.186C42.4353 24.0127 42.1491 23.4327 41.6068 22.3858C41.0645 21.3388 40.4468 19.6742 40.3338 19.5838C40.0745 19.5334 39.8064 19.5521 39.5565 19.638C39.3066 19.724 39.0838 19.8741 38.9103 20.0734C37.8181 19.7872 36.1384 19.6064 35.1442 18.9812C33.9014 18.3109 33.9842 16.4881 36.6506 16.4354C47.8585 15.0645 50.4194 12.4509 61.2205 11.2984C64.3539 10.726 65.9432 12.6844 64.9866 14.1757C63.8191 15.9608 60.8439 16.4354 59.6689 17.0078C61.6951 17.2488 66.0637 15.0118 65.4009 12.6693C64.6477 10.6507 62.034 10.8842 59.9401 11.1177C60.2639 10.9294 60.6255 10.6657 60.6933 10.2891C61.1075 9.45306 59.8271 9.08398 58.8479 9.44552C60.874 7.0277 58.7123 5.37062 57.4168 8.1048C57.4996 7.27626 57.462 6.48538 56.7615 6.06358C56.5377 5.96055 56.2846 5.94035 56.0474 6.00656C55.8101 6.07278 55.604 6.22112 55.466 6.42513C53.2063 4.30106 50.8563 5.09193 47.8811 5.75476C41.8553 7.07289 39.4902 7.80351 39.1287 15.7349C36.0254 16.2471 35.9652 16.0663 35.0387 16.4881C34.7741 16.5981 34.5476 16.7835 34.3876 17.0212C34.2275 17.259 34.1409 17.5385 34.1384 17.8251C34.136 18.1117 34.218 18.3927 34.374 18.6331C34.5301 18.8734 34.7534 19.0626 35.0161 19.1771ZM57.0628 7.04276C57.2059 8.69984 56.6334 9.19696 56.9347 9.30241C56.9697 9.31211 57.007 9.30817 57.0392 9.29139C57.0713 9.27461 57.0959 9.24624 57.108 9.21203C58.1549 6.19916 59.3676 6.74148 59.2923 7.46456C59.217 8.82789 58.1173 9.59617 58.2529 9.76187C58.2736 9.7804 58.3004 9.79064 58.3282 9.79064C58.356 9.79064 58.3828 9.7804 58.4035 9.76187C58.681 9.57415 58.998 9.45301 59.33 9.40786C60.8364 9.1819 61.0473 10.4699 59.8271 11.0574C59.8223 11.0616 59.8184 11.0669 59.8158 11.0727C59.8131 11.0786 59.8118 11.0849 59.8118 11.0913C59.8118 11.0977 59.8131 11.1041 59.8158 11.1099C59.8184 11.1157 59.8223 11.121 59.8271 11.1252C57.3557 11.4184 54.9035 11.856 52.4832 12.4358C52.1292 12.1722 52.197 12.0215 52.2045 11.6826C52.3751 11.476 52.6203 11.3451 52.8869 11.3183C53.1535 11.2915 53.4198 11.371 53.6281 11.5395C53.6444 11.5525 53.665 11.5589 53.6858 11.5574C53.7066 11.5559 53.726 11.5466 53.7403 11.5314C53.7545 11.5162 53.7625 11.4962 53.7627 11.4753C53.7628 11.4545 53.7551 11.4344 53.7411 11.4189C51.956 10.2741 51.8129 8.91827 52.3476 8.53413C53.6055 8.13493 54.6073 9.23462 55.2325 10.3494C55.2436 10.3568 55.2567 10.3608 55.2701 10.3608C55.2835 10.3608 55.2966 10.3568 55.3078 10.3494C55.3184 10.3382 55.3243 10.3234 55.3243 10.308C55.3243 10.2925 55.3184 10.2777 55.3078 10.2665C55.2551 10.1159 55.2099 9.95771 55.1647 9.79954V9.61876C54.1554 6.02592 56.9724 5.20492 57.0628 7.04276ZM47.9489 6.02592C50.2989 5.51373 53.2214 4.65507 55.2475 6.67369C54.8808 7.44216 54.7674 8.3072 54.9236 9.14424C54.9439 9.40104 54.9971 9.65418 55.0818 9.89745C53.5754 7.24613 50.796 8.06714 52.1895 10.2439C52.4525 10.628 52.7845 10.96 53.1686 11.2231C52.5359 11.1855 52.0238 11.4114 52.084 12.1119C52.1513 12.2437 52.2464 12.3593 52.3627 12.4509C48.1899 13.4677 45.7871 14.59 39.2793 15.6897C39.8066 7.79598 42.2545 7.29133 47.9489 6.02592Z" fill="black"/>
</g>
</g>
</svg>
