<svg width="151" height="151" viewBox="0 0 151 151" fill="none" xmlns="http://www.w3.org/2000/svg">
<g id="Enter-Password-1--Streamline-Milano">
<g id="Enter-Password-1--Streamline-Milano.svg">
<path id="Vector" d="M101.85 90.9959C99.5905 89.7004 96.5777 90.0394 96.5777 89.964C88.232 89.8887 85.7916 100.78 93.9264 103.605C94.0449 106.182 94.2963 108.751 94.6796 111.303C94.7033 111.549 94.8054 111.782 94.9707 111.966C95.1361 112.15 95.356 112.277 95.5985 112.327C96.7509 112.689 100.005 112.327 100.359 111.702C101.112 110.331 100.095 104.923 99.7788 103.349C103.153 102.113 105.292 99.319 104.539 95.5981C104.23 94.0766 103.861 92.1634 101.85 90.9959ZM136.122 52.597C135.549 51.4446 130.616 49.4862 129.177 49.6368C129.08 49.6397 128.984 49.6658 128.899 49.713C128.814 49.7601 128.741 49.827 128.687 49.908C127.723 51.4144 123.573 62.0498 123.731 62.9537C123.822 63.4885 125.78 64.4601 126.247 64.6786C126.714 64.897 127.881 65.4318 128.326 65.1832C129.553 64.4149 136.717 53.8021 136.122 52.597ZM135.557 53.064C134.909 55.0525 129.192 63.7446 128.024 64.5806C126.721 64.2201 125.497 63.617 124.417 62.8031C124.643 61.4774 128.371 50.5407 129.064 49.9532C129.553 49.5239 135.903 51.9718 135.579 53.064H135.557ZM132.25 76.1576C133.711 76.3007 145.943 72.2107 146.215 70.8851C146.486 69.5594 143.496 64.671 142.381 64.2794C142.282 64.2532 142.178 64.2532 142.079 64.2794C140.686 64.7012 130.465 70.7721 130.028 71.6458C129.772 72.1203 130.721 74.0636 130.962 74.5231C131.203 74.9826 131.738 76.0747 132.25 76.1576ZM130.6 71.9094C131.58 71.0131 141.341 64.5807 142.245 64.5355C142.923 64.5355 146.433 70.2599 145.484 70.9152C143.721 72.1128 133.809 75.5324 132.363 75.4797C131.556 74.4114 130.958 73.2 130.6 71.9094ZM146.621 85.5125C145.409 84.7593 133.892 81.3698 132.966 81.6033C132.446 81.7314 131.625 83.7123 131.459 84.2095C131.293 84.7066 130.796 85.8816 131.113 86.3034C131.986 87.4709 143.27 93.6774 144.437 92.992C145.605 92.3065 147.103 87.4332 146.885 85.9795C146.876 85.8876 146.848 85.7986 146.803 85.7182C146.757 85.6378 146.695 85.5677 146.621 85.5125ZM143.865 92.4647C141.831 91.9977 132.566 87.0642 131.617 85.9268C131.888 84.6191 132.399 83.3729 133.124 82.2511C134.585 82.3716 145.928 85.264 146.486 85.7912C147.043 86.3185 144.987 92.7133 143.865 92.4647ZM46.3909 19.5082C46.3953 19.5576 46.4095 19.6057 46.4325 19.6497C46.4556 19.6937 46.487 19.7327 46.5252 19.7646C46.5633 19.7964 46.6073 19.8204 46.6547 19.8352C46.7021 19.85 46.7519 19.8554 46.8014 19.8509C46.8508 19.8464 46.8989 19.8323 46.9429 19.8093C46.9869 19.7862 47.0259 19.7547 47.0578 19.7166C47.0896 19.6785 47.1136 19.6345 47.1284 19.5871C47.1432 19.5397 47.1486 19.4899 47.1441 19.4404C47.1441 19.2822 47.0989 19.1391 47.0612 18.9433C47.0429 18.8451 46.987 18.758 46.9054 18.7003C46.8239 18.6427 46.7231 18.619 46.6244 18.6345C46.5267 18.6528 46.4402 18.709 46.3837 18.7908C46.3273 18.8726 46.3055 18.9735 46.3231 19.0713C46.3532 19.3048 46.3758 19.3952 46.3909 19.5082ZM49.9009 21.7603C50.2022 21.5193 50.044 20.4346 49.9687 20.058C49.8809 19.5851 49.7289 19.1264 49.5167 18.6947C49.5087 18.6628 49.4884 18.6353 49.4601 18.6183C49.4319 18.6014 49.3981 18.5963 49.3661 18.6043C49.3341 18.6123 49.3066 18.6327 49.2897 18.6609C49.2727 18.6892 49.2677 18.723 49.2757 18.755C49.2858 19.2338 49.3236 19.7116 49.3887 20.1861C49.3887 20.1861 49.5243 21.3159 49.5167 21.3837C49.5167 21.5795 48.7635 21.5268 48.7033 21.7302C48.643 21.9335 49.5619 22.0465 49.9009 21.7603ZM50.8273 19.2521C50.8273 19.352 50.867 19.4478 50.9376 19.5184C51.0083 19.589 51.1041 19.6287 51.2039 19.6287C51.3038 19.6287 51.3996 19.589 51.4702 19.5184C51.5409 19.4478 51.5805 19.352 51.5805 19.2521C51.5899 19.079 51.5899 18.9055 51.5805 18.7324C51.5692 18.6339 51.5209 18.5433 51.4454 18.479C51.3699 18.4147 51.2729 18.3814 51.1738 18.3859C51.1243 18.3897 51.076 18.4033 51.0318 18.4258C50.9875 18.4483 50.9482 18.4794 50.9159 18.5172C50.8837 18.555 50.8593 18.5988 50.8441 18.6461C50.8289 18.6933 50.8232 18.7431 50.8273 18.7926C50.8375 18.9456 50.8375 19.0991 50.8273 19.2521Z" fill="black"/>
<path id="Vector_2" d="M124.552 78.5304C123.061 78.1515 121.533 77.9318 119.995 77.8751C114.346 75.6155 93.3388 77.7697 87.2302 78.6283C86.9967 76.1879 86.6578 72.6026 86.6578 72.2561C86.59 65.0855 89.5953 61.1537 93.5271 59.6021C99.9219 59.9787 106.385 64.8369 105.88 71.3974C105.88 71.4426 105.88 71.5406 106.046 71.5782C106.746 71.759 114.655 71.9398 116.508 70.9154C119.189 70.8175 121.878 70.5011 121.991 69.7328C122.323 67.556 121.072 62.7129 120.266 60.8901C115.672 50.4656 102.709 46.0216 91.7571 48.7784C84.9781 49.1399 78.4101 51.9871 74.1695 57.5835C69.9289 63.1799 70.4862 75.6607 71.4127 82.6731C71.0469 82.9029 70.7787 83.2596 70.6595 83.6749C68.9572 92.5854 75.7889 118.677 79.4495 123.942C81.8297 127.361 115.604 128.039 123.784 121.682C125.614 120.251 127.964 86.2057 126.45 80.2553C126.202 79.3815 125.93 78.9522 124.552 78.5304ZM74.7118 57.9977C84.6392 44.8616 108.155 47.2493 114.738 61.8542C115.536 63.6243 116.802 68.3846 116.508 70.4484C116.387 71.3598 107.575 71.5782 106.159 71.3297C107.07 58.1107 80.8806 51.5502 80.9258 73.0319C80.9258 74.93 81.5736 79.4795 81.5811 79.5548C77.3254 80.3457 73.8682 81.2796 72.0454 82.2814C71.1491 75.3217 70.6972 63.2702 74.7118 57.9977ZM118.255 120.274C111.589 125.463 81.8749 126.36 79.9165 123.58C76.3237 118.489 69.3715 92.7963 71.0662 84.0138C71.955 79.3439 117.615 75.3292 120.462 78.9145C122.518 81.4905 119.716 119.136 118.255 120.274Z" fill="black"/>
<path id="Vector_3" d="M74.5684 41.427C73.5893 39.2125 68.3017 31.9666 65.9818 31.8461C65.334 31.8461 63.0819 32.9834 59.956 34.8589C59.2932 33.714 58.0278 33.6312 56.657 34.0379C55.8523 34.311 55.1098 34.7411 54.4726 35.3033C52.6858 33.7608 50.715 32.4452 48.6051 31.3866L48.8762 28.5244C48.9516 28.4792 48.8762 28.4792 49.4412 28.4717C49.7376 28.4114 50.0176 28.2881 50.2622 28.1101C50.6019 27.9459 50.9291 27.7571 51.2413 27.5452C51.5702 27.3607 51.8895 27.1595 52.1979 26.9426C52.7402 26.4606 52.5745 25.8655 52.6649 25.391C52.8758 24.3516 53.4181 22.7999 52.7704 22.3781C53.081 20.9623 53.28 19.5243 53.3654 18.0773C54.0282 18.0773 54.5856 17.0378 54.3672 16.6386C54.4908 16.4992 54.5737 16.3286 54.6069 16.1453C54.6401 15.962 54.6223 15.7731 54.5555 15.5992C54.9321 15.3356 54.9396 14.5974 54.8568 14.1831C54.8568 14.0852 54.8568 14.1455 54.917 13.9873C55.2183 13.4676 55.2033 12.4809 54.5329 12.398C54.4103 12.3829 54.2864 12.3829 54.1638 12.398C54.2693 11.6448 53.9755 11.449 53.4709 11.1402C53.2547 10.9793 52.9854 10.9066 52.7176 10.9368C52.5745 10.7485 52.5444 10.3342 51.9644 10.3267C51.3844 10.3191 51.5502 10.4999 51.0907 9.89735C50.9742 9.68104 50.7979 9.50283 50.5829 9.38396C50.3678 9.2651 50.1232 9.21061 49.878 9.22699C49.7269 9.25487 49.5817 9.30836 49.4487 9.38516C49.441 9.26204 49.4033 9.14268 49.3387 9.03757C49.2742 8.93246 49.1848 8.84482 49.0784 8.78234C48.972 8.71986 48.852 8.68446 48.7287 8.67925C48.6055 8.67404 48.4828 8.69918 48.3716 8.75246C48.1983 8.82025 47.9498 8.98596 47.8443 9.02362C47.8443 8.60182 47.287 8.14989 46.5714 8.34572C46.2551 8.43611 45.9764 8.64701 45.6223 8.77506C45.4943 8.82025 45.2382 8.36832 44.8691 8.47377C44.5001 8.57922 43.9577 9.09141 43.777 9.09894C43.6624 9.0184 43.5253 8.97622 43.3853 8.97843C42.9505 9.12975 42.5471 9.35951 42.1952 9.65632C42.0278 9.58311 41.847 9.54532 41.6642 9.54532C41.4814 9.54532 41.3006 9.58311 41.1332 9.65632C40.621 9.91241 40.7716 10.3191 40.734 10.756C40.5532 10.869 39.9808 10.869 39.7699 11.0046C39.2727 11.2983 39.3857 11.5846 39.2049 11.9235C39.0242 12.2624 38.8208 12.2926 38.753 12.7445C38.7256 12.894 38.7384 13.048 38.79 13.1909C38.8416 13.3338 38.9302 13.4605 39.0468 13.558C38.8982 13.5663 38.7534 13.6078 38.6231 13.6795C38.4927 13.7512 38.3801 13.8512 38.2936 13.9722C38.2074 14.1259 38.1561 14.2966 38.1431 14.4723C38.13 14.648 38.1557 14.8244 38.2182 14.9891C37.996 15.102 37.8152 15.2823 37.7016 15.5041C37.588 15.726 37.5474 15.9781 37.5855 16.2244C37.6029 16.2969 37.6382 16.3638 37.6882 16.4191C37.7382 16.4744 37.8013 16.5162 37.8717 16.5407C37.7297 16.8158 37.6787 17.1289 37.7261 17.4348C37.7734 17.7408 37.9168 18.0238 38.1354 18.243C38.2264 18.29 38.3268 18.3157 38.4291 18.3183C38.4178 18.4863 38.4178 18.6549 38.4291 18.823C38.4668 19.3126 39.0166 19.305 39.0995 19.3427C39.1447 19.5009 38.8886 20.0206 38.9488 20.3445C38.9815 20.4679 39.0435 20.5816 39.1296 20.6759C38.8057 21.3236 39.6041 21.4291 39.6795 21.4668C41.6454 22.928 41.1859 22.5213 41.4947 22.7849C41.4194 23.3649 40.1314 27.4172 39.913 28.6223C37.1512 28.197 34.3394 28.2123 31.5824 28.6675C26.4078 29.1571 13.9119 36.7646 13.5655 38.4593C13.5471 38.839 13.6248 39.2173 13.7914 39.559C11.2983 41.3517 8.1875 43.9503 8.28542 46.9029C8.41123 49.8289 8.86345 52.7317 9.63367 55.5573C3.76612 60.1143 1.76256 69.1755 6.10862 76.3386C7.10226 79.0754 8.75846 81.5235 10.9292 83.464C14.4543 86.7103 20.1486 87.4711 24.9616 86.7857C24.2837 92.721 23.5079 97.9483 22.7396 99.2891C17.5575 108.328 5.65669 127.798 5.78474 128.197C5.95045 128.747 6.91456 129.508 7.89374 130.171C6.59068 131.677 5.22736 133.282 5.08425 133.545C4.43648 134.818 12.978 143.766 15.3054 142.177C16.8118 141.175 13.6935 137.101 13.1211 135.963C13.4535 135.188 13.9032 134.469 14.4543 133.832C16.7968 134.961 16.8721 134.841 17.1809 134.54C18.9886 132.77 27.0782 123.799 29.3077 121.275C37.4048 112.109 39.3481 110.128 44.613 96.6603C45.193 93.9186 45.9462 85.5203 46.4434 82.8539C46.4434 82.8219 46.4561 82.7913 46.4786 82.7687C46.5013 82.7461 46.5319 82.7334 46.5639 82.7334C46.5958 82.7334 46.6265 82.7461 46.6491 82.7687C46.6717 82.7913 46.6844 82.8219 46.6844 82.8539C46.6844 83.0798 46.3831 92.9093 45.0725 97.2704C46.6994 104.245 51.972 133.591 52.9511 134.577C53.1301 134.699 53.345 134.758 53.5612 134.743C54.7037 134.713 55.8432 134.612 56.9733 134.442C57.4102 140.091 57.4102 140.083 57.6813 140.287C58.7886 141.13 67.2472 141.56 70.0266 139.789C70.7798 139.322 71.1413 138.667 70.5689 138.019C69.5445 136.859 65.6278 136.28 64.8595 136.031C64.5303 135.16 64.3249 134.247 64.2494 133.319C67.1191 132.83 67.428 132.777 67.5183 132.566C67.8422 131.918 62.7128 91.8925 61.6282 85.2566C60.463 78.9551 58.9364 72.7258 57.0562 66.5995C57.5608 66.3735 57.7039 66.2078 57.719 65.545C57.6874 64.4594 57.5817 63.3773 57.4026 62.3061C61.3947 62.5848 64.1816 61.5529 66.1852 58.0655C67.8799 55.128 65.6428 49.6295 64.0535 46.6392C64.7703 46.0183 65.5475 45.4707 66.3735 45.0048C67.4506 45.7956 69.0624 48.1532 69.8458 47.7314C71.8117 46.6995 75.4949 43.5209 74.5684 41.427ZM14.9589 140.55C15.215 141.303 15.2301 141.778 14.5672 141.74C11.9988 141.597 6.28186 135.602 5.5889 133.756C5.69435 133.56 6.28939 132.8 7.02754 131.881C8.15737 133.327 10.6731 135.451 12.5562 135.963C12.5486 136.332 14.3789 138.78 14.9589 140.55ZM12.8047 135.466C10.9367 135.044 8.28542 132.988 7.18572 131.7L8.21763 130.419C10.1221 131.612 12.0882 132.703 14.1078 133.688C13.6204 134.24 13.1842 134.835 12.8047 135.466ZM69.4165 137.944C69.6876 138.072 70.2676 138.396 70.2299 138.697C70.004 140.505 60.295 140.957 57.9902 139.85C57.9299 139.631 57.8094 138.682 57.6663 137.507C59.5041 137.726 62.7806 137.409 64.4452 136.43C64.7766 136.701 67.7895 137.146 69.424 137.944H69.4165ZM63.8878 133.38C63.9355 134.232 64.0692 135.077 64.287 135.903C62.6676 136.942 59.3233 137.409 57.6361 137.251C57.5307 136.332 57.4102 135.3 57.3123 134.396C59.4514 134.118 61.9822 133.704 63.8954 133.38H63.8878ZM56.7549 34.3919C59.4815 33.4504 59.7677 35.2732 59.8506 35.2054C60.1578 36.0136 60.3529 36.86 60.4306 37.7212C60.4181 37.8177 60.3791 37.909 60.318 37.9848C60.2568 38.0605 60.1759 38.1179 60.0841 38.1505C59.828 38.2635 59.3987 37.2466 59.3309 36.8776L59.2028 36.388C59.1828 36.3307 59.1424 36.2827 59.0894 36.2531C59.0364 36.2235 58.9744 36.2143 58.9151 36.2273C58.8558 36.2403 58.8033 36.2745 58.7675 36.3235C58.7317 36.3725 58.7151 36.433 58.7208 36.4934C58.9543 38.3087 59.0296 39.0769 58.7208 39.3255C58.5777 39.431 58.5099 39.4084 58.412 39.3255C58.0219 38.6978 57.7917 37.984 57.7416 37.2466C57.5834 35.1075 56.9884 34.5501 57.1993 38.2107C57.1993 38.5422 57.2972 39.3481 57.0034 39.5213C56.7097 39.6946 56.6193 39.2803 56.5214 39.0995C56.2328 38.4912 56.0983 37.8213 56.1297 37.1487C56.1254 37.0965 56.1075 37.0464 56.0779 37.0032C56.0482 36.96 56.0078 36.9253 55.9607 36.9025C55.9135 36.8797 55.8613 36.8695 55.809 36.8731C55.7568 36.8766 55.7063 36.8938 55.6627 36.9227C55.3929 37.0932 55.1406 37.29 54.9095 37.5103C54.5404 37.9245 53.4935 38.4894 53.1997 37.9998C52.9059 37.5103 54.8794 35.0397 56.7549 34.3919ZM48.9591 25.3157C48.8007 25.3893 48.629 25.4303 48.4544 25.4362C48.2707 25.4178 48.094 25.3555 47.9393 25.2546C47.7846 25.1537 47.6565 25.017 47.5656 24.8562C47.4948 24.6991 47.4515 24.5309 47.4376 24.3591C47.4302 24.3448 47.4257 24.3291 47.4243 24.313C47.4229 24.2969 47.4247 24.2807 47.4296 24.2653C47.4345 24.2499 47.4424 24.2357 47.4528 24.2233C47.4632 24.211 47.476 24.2008 47.4903 24.1934C47.5047 24.186 47.5203 24.1815 47.5364 24.1801C47.5525 24.1787 47.5687 24.1805 47.5841 24.1854C47.5995 24.1903 47.6138 24.1982 47.6261 24.2086C47.6384 24.219 47.6486 24.2318 47.656 24.2461C47.656 24.2838 48.236 24.7056 48.2737 24.7357C48.3113 24.7658 48.9139 25.0295 48.9817 25.0521C49.0167 25.0551 49.049 25.0718 49.0716 25.0987C49.0942 25.1255 49.1052 25.1602 49.1022 25.1952C49.0992 25.2301 49.0824 25.2625 49.0556 25.2851C49.0288 25.3077 48.9941 25.3187 48.9591 25.3157ZM41.9843 22.8451C41.9963 22.7766 41.9938 22.7064 41.9769 22.6389C41.96 22.5714 41.9292 22.5083 41.8864 22.4535C41.1332 21.6551 39.2878 21.2257 40.0711 19.6515C40.2971 19.1845 40.6361 19.1845 41.0428 19.4858C41.1708 19.5837 41.7207 20.6307 42.3685 19.9904C42.4454 19.9017 42.4928 19.7911 42.504 19.6741C42.5794 19.6214 43.4456 19.2448 43.1443 18.5819C43.0463 18.3635 42.9861 18.4464 43.1443 18.3635C44.2741 17.8438 43.1443 17.4069 44.1159 17.0152C44.5076 16.8495 44.5528 16.5934 44.613 16.1264C45.2759 16.2846 45.2985 15.6293 45.3663 15.6519C46.0667 15.795 45.8935 15.9457 46.7145 15.313C47.1363 15.4109 47.6485 15.7875 48.1456 15.5917C48.3257 15.5062 48.4869 15.3859 48.6202 15.2377C49.1474 15.7649 49.5014 15.5239 50.0437 15.1699C50.4203 15.5239 50.6312 15.7724 51.2187 15.6218C51.3995 16.375 51.7837 16.375 52.2883 16.2319L52.6499 16.8345C52.6047 17.2563 52.4691 17.7911 52.9963 17.9869C52.8447 19.4386 52.593 20.8782 52.2431 22.2953C52.1307 22.3735 52.0379 22.4766 51.972 22.5966C51.3016 23.0786 51.7535 22.4459 50.0663 22.2953C49.4261 22.2426 49.0269 22.589 48.4921 22.7322C47.9306 22.6878 47.3664 22.6878 46.8049 22.7322C45.9086 22.8753 45.0876 23.5984 44.6055 23.4025C44.6055 23.4025 44.3645 23.2443 44.2741 23.2142C44.2551 23.2045 44.2342 23.1992 44.2128 23.1986C44.1915 23.198 44.1703 23.2022 44.1508 23.2109C44.1313 23.2195 44.114 23.2324 44.1002 23.2487C44.0863 23.2649 44.0762 23.284 44.0707 23.3046C44.033 23.7054 44.033 24.1089 44.0707 24.5097C44.0707 25.0671 44.4549 25.1726 44.726 25.3082C44.9369 25.7601 44.8315 26.212 45.1478 26.7468C45.3135 27.018 45.5244 27.0631 45.7429 27.2138C45.9661 27.3925 46.2028 27.5536 46.4509 27.6959C47.061 28.0122 47.302 28.5771 48.3113 28.5169C48.2586 28.901 48.1908 29.6919 48.01 31.4092C48.01 31.4845 48.8461 37.2843 46.9857 37.1638C44.0406 36.9679 40.9976 31.7858 40.4327 28.8784C40.5833 27.726 41.9316 23.6209 42.0144 22.8451H41.9843ZM39.7925 28.9462C40.4026 32.1323 43.6263 37.5178 46.9103 37.7362C48.9817 37.8643 48.8913 34.1208 48.6051 31.831C49.0118 32.0494 49.411 32.2679 49.7876 32.4863C50.0211 34.9343 50.0437 38.7531 47.5958 38.8811C44.2967 39.092 41.4571 35.5218 39.6945 32.7273C38.8678 31.454 38.1594 30.1076 37.578 28.7052C38.3689 28.7579 39.107 28.8407 39.8226 28.9462H39.7925ZM13.927 38.5497C14.168 37.3069 25.9107 29.6994 31.5523 28.9161C33.4709 28.6513 35.4107 28.5731 37.3445 28.6826C37.2767 29.0893 41.5851 39.8904 47.6711 39.4762C50.5484 39.2502 50.5183 35.5444 50.0889 32.652C51.5082 33.5068 52.8514 34.482 54.1036 35.567C53.4183 36.1193 52.8973 36.8486 52.5971 37.676C52.5702 37.8066 52.5728 37.9415 52.6047 38.071C52.6365 38.2004 52.6969 38.3211 52.7813 38.4243C52.8657 38.5275 52.9721 38.6106 53.0927 38.6674C53.2133 38.7243 53.3451 38.7536 53.4784 38.7531C45.4416 43.8147 35.4012 50.4656 29.3002 54.322C28.2257 53.5793 27.0679 52.965 25.8504 52.4917C26.2873 49.2454 26.3023 49.1249 26.2647 49.0194C28.9386 47.2719 32.2076 44.6206 33.5483 42.1049C33.5695 42.0825 33.5813 42.0528 33.5813 42.022C33.5813 41.9912 33.5695 41.9616 33.5483 41.9392C33.3901 41.8413 33.4428 42.007 32.554 42.9711C31.3263 44.2892 24.8411 50.2471 23.0786 50.571C20.6382 49.5316 13.6408 40.0185 13.927 38.5497ZM25.6621 49.7124C25.6019 50.217 25.4738 51.1359 25.3156 52.2959C23.5626 51.6841 21.71 51.4081 19.8548 51.4824C19.9125 51.1143 20.0461 50.7621 20.247 50.4484C20.448 50.1346 20.712 49.866 21.0223 49.6596C21.5493 50.2272 22.1649 50.7054 22.8451 51.0757C23.4175 51.3092 25.1349 50.0814 25.6621 49.7124ZM8.66956 46.8878C8.52645 44.0934 11.5845 41.5023 13.8291 39.8C14.8911 42.2405 18.2429 46.8351 20.7361 49.3659C20.1384 49.7884 19.6942 50.3938 19.4707 51.0907C19.0564 52.4541 23.1162 72.0904 23.7113 73.2805C23.8167 73.4989 24.0578 73.4763 24.2913 73.401C24.8185 73.2353 26.7166 72.3917 26.8447 73.0696C26.8447 73.288 26.5434 73.6646 26.3852 73.8228C25.391 74.8321 24.7733 74.802 24.8788 75.2163C25.217 76.2369 25.7604 77.1776 26.4756 77.9806C26.6908 78.1399 26.9298 78.2644 27.1836 78.3496C27.0951 78.4689 26.984 78.5696 26.8566 78.6459C26.7292 78.7222 26.588 78.7726 26.4411 78.7943C26.2942 78.816 26.1445 78.8085 26.0005 78.7723C25.8565 78.736 25.721 78.6718 25.6019 78.5831C24.8471 77.9196 24.2347 77.1099 23.8017 76.203C23.7854 76.1668 23.7621 76.1343 23.7333 76.1071C23.7044 76.08 23.6704 76.0588 23.6333 76.0448C23.5962 76.0308 23.5568 76.0243 23.5171 76.0256C23.4775 76.0269 23.4386 76.036 23.4025 76.0523C23.3653 76.0684 23.3319 76.092 23.3043 76.1216C23.2767 76.1512 23.2555 76.1862 23.242 76.2244C23.2286 76.2626 23.2232 76.3032 23.2262 76.3436C23.2292 76.3839 23.2405 76.4233 23.2594 76.4591C23.6942 77.4305 24.334 78.2964 25.1349 78.9974C25.1167 79.077 25.0823 79.1521 25.0339 79.2179C24.9854 79.2836 24.924 79.3387 24.8533 79.3797C24.7826 79.4207 24.7043 79.4467 24.6231 79.4561C24.542 79.4655 24.4598 79.458 24.3816 79.4343C23.6661 79.2309 22.8074 77.7847 22.4459 77.2123C22.4029 77.1444 22.3348 77.0963 22.2564 77.0786C22.178 77.061 22.0958 77.0752 22.0278 77.1181C21.9599 77.1611 21.9118 77.2293 21.8942 77.3077C21.8765 77.3861 21.8907 77.4683 21.9337 77.5362C22.3849 78.2532 22.7706 79.0095 23.0861 79.7958C23.169 80.0218 22.83 80.308 22.3329 80.1574C20.8792 79.6979 20.1862 75.4196 20.0732 75.1259C19.7343 74.4179 9.42277 61.7638 8.66956 46.8878ZM23.6134 69.055C23.6134 69.3562 23.7038 69.7479 23.9824 69.8684C24.8883 70.1415 25.8308 70.2736 26.7769 70.2601C26.7241 70.8702 26.6639 71.533 26.6036 72.2411C25.7581 72.2823 24.9278 72.4816 24.1557 72.8286C23.9071 72.0754 22.815 67.2924 21.7906 62.4116C22.537 62.3998 23.2794 62.5223 23.9824 62.7731C23.6963 64.8543 23.5729 66.9546 23.6134 69.055ZM24.5474 63.0292C25.8619 63.5986 26.9469 64.5934 27.628 65.8538C27.8666 67.131 27.8972 68.4384 27.7184 69.7253C26.557 69.7746 25.3946 69.6528 24.2687 69.3638C24.0427 68.6934 24.2235 66.1174 24.5474 63.0066V63.0292ZM19.6289 75.7586C18.013 75.7512 16.458 75.1415 15.2677 74.0488C14.9192 73.7038 14.5992 73.3309 14.3111 72.934C13.8904 71.1852 13.9952 69.351 14.6124 67.6615C16.0959 70.3135 17.741 72.8717 19.5385 75.3217C19.5764 75.458 19.6065 75.5963 19.6289 75.736V75.7586ZM57.1014 65.7634C56.9733 67.0439 39.7774 68.9194 37.7362 69.1152C37.5895 67.5621 37.2138 66.0391 36.6214 64.5959L55.2259 53.373C56.1448 58.0957 57.2445 64.272 57.1014 65.7634ZM65.6579 57.7868C63.7673 61.0709 61.1386 62.0199 57.3725 61.7638C57.1917 61.7638 57.5081 62.0124 55.7456 53.0566L56.1749 52.8005C56.6796 53.501 58.5777 56.1072 59.2857 56.6118C59.8581 57.0186 60.9126 56.1976 61.47 55.7682C62.6917 54.7677 63.8489 53.6909 64.9348 52.5445C64.988 52.4946 65.0257 52.4303 65.043 52.3594C65.0604 52.2885 65.0568 52.2141 65.0327 52.1453C64.6636 51.1962 63.112 48.6428 62.7731 48.0176C62.9976 47.6552 63.2801 47.3321 63.6091 47.061C65.0177 49.8178 67.2095 55.1129 65.6579 57.7868ZM69.5972 47.1364C68.3996 46.4208 66.961 44.1235 66.2379 44.357C65.5148 44.5905 62.743 46.6995 62.2157 47.6184C62.1606 47.699 62.1229 47.7902 62.1047 47.8861C62.0866 47.982 62.0884 48.0806 62.1102 48.1758C62.1479 48.3264 63.82 51.1133 64.3096 52.2055C63.5564 52.9587 60.7168 55.8134 59.6774 56.0168C58.5445 54.7984 57.5046 53.4967 56.5666 52.1227C56.5161 52.0496 56.4395 51.9987 56.3526 51.9805C56.2657 51.9623 56.1751 51.9781 56.0996 52.0247L35.9736 64.1515C35.9021 64.194 35.8478 64.2603 35.8202 64.3388C35.7927 64.4173 35.7937 64.503 35.823 64.5808C35.8757 63.9557 38.5346 71.5481 36.1845 77.1972C35.3861 79.133 34.2864 82.4697 30.2266 84.526C28.0347 85.6332 24.9541 86.3563 20.6909 86.3036C17.4521 86.3036 13.7914 85.2039 11.3661 82.9895C9.70763 81.5634 8.35785 79.8137 7.39942 77.8477C6.44099 75.8816 5.8941 73.7405 5.79227 71.5556C5.63409 67.2096 7.2987 62.3438 10.8614 59.3987C11.7982 61.9871 12.9209 64.5044 14.2208 66.9309C13.4149 68.6953 13.1741 70.6658 13.5314 72.5724C13.8887 74.479 14.8266 76.2285 16.2168 77.5814C17.4937 78.7726 19.1636 79.4534 20.9093 79.4945C21.1754 80.0369 21.6309 80.4629 22.1898 80.6921C22.352 80.7681 22.5304 80.8028 22.7093 80.793C22.8881 80.7832 23.0618 80.7293 23.2147 80.6361C23.3676 80.5428 23.495 80.4131 23.5856 80.2586C23.6762 80.1041 23.7272 79.9296 23.7339 79.7506C23.8832 79.8836 24.0621 79.9788 24.2558 80.0283C24.4495 80.0778 24.6522 80.0802 24.847 80.0352C25.0417 79.9902 25.2229 79.8991 25.3752 79.7697C25.5275 79.6402 25.6466 79.4761 25.7224 79.2912C26.1609 79.4515 26.6451 79.4314 27.0688 79.2351C27.4924 79.0388 27.8209 78.6824 27.982 78.2442C27.982 77.8827 27.4849 77.8149 27.161 77.6567C28.0849 76.7245 28.7585 75.5742 29.1194 74.3124C29.8081 72.0074 29.7154 69.5393 28.8558 67.2924C28.2732 65.9797 27.4242 64.8024 26.3626 63.8352C25.0578 62.7035 23.4038 62.0547 21.6776 61.9973C21.1805 59.5042 20.6834 56.9583 20.3369 54.9849C27.0028 54.1563 30.3998 57.9525 30.8367 57.6739C39.7925 52.085 64.3699 36.5838 66.622 35.5444C67.3752 36.1771 72.0075 41.6981 73.642 43.4757C72.506 44.9118 71.1391 46.1489 69.5972 47.1364Z" fill="black"/>
</g>
</g>
</svg>
