<svg width="151" height="151" viewBox="0 0 151 151" fill="none" xmlns="http://www.w3.org/2000/svg">
<g id="Fatal-Error-1--Streamline-Milano">
<g id="Fatal-Error-1--Streamline-Milano.svg">
<path id="Vector" d="M46.3762 25.9256C47.5738 26.1667 48.7714 25.7599 49.9766 25.8729C51.95 26.0386 52.5902 28.1778 51.6788 29.7595C50.5189 31.7706 46.4063 32.9682 46.7603 35.7175C47.0466 38.2407 50.4285 38.0976 51.95 39.4082C53.2229 40.5154 52.4998 41.9164 52.4998 43.3325C52.4998 45.0724 53.931 44.8389 54.187 45.8407C54.6239 47.5053 51.5734 47.8141 50.8051 48.8008C50.5348 49.2286 50.3796 49.719 50.3545 50.2244C50.3294 50.7299 50.4353 51.2332 50.662 51.6856C51.1892 53.064 52.3191 54.2315 52.1006 55.8133C51.8973 57.2067 50.9934 58.5022 50.5942 59.843C49.9615 61.8767 49.487 64.0007 51.5583 65.349C52.884 66.2227 54.285 66.7274 54.9403 68.3091C55.5202 69.7628 55.2641 71.2316 55.0306 72.723C54.8932 74.114 54.5426 75.4757 53.9912 76.7602C53.9008 76.9184 54.1343 77.1368 54.285 76.9711C55.7804 74.8347 56.8588 72.4351 57.4635 69.8984C58.3674 66.6972 57.2451 65.1381 56.2584 62.3662C55.5052 59.5492 55.1512 56.3405 56.409 53.6289C57.6669 50.9174 60.7099 49.78 62.5176 47.5053C64.3253 45.2306 64.5287 43.2948 62.4046 41.4042C60.145 39.3555 58.4201 40.2669 57.6669 38.6399C57.4354 38.1554 57.3841 37.6042 57.5222 37.0852C57.6602 36.5663 57.9785 36.1134 58.4201 35.8078C60.3107 34.4972 63.1654 35.4463 64.1973 32.8628C64.3951 32.3457 64.4818 31.7928 64.452 31.24C64.4221 30.6872 64.2763 30.1468 64.024 29.6541C63.4064 28.4188 62.2992 27.7635 61.3426 26.8144C60.5894 26.0612 59.9567 24.8711 60.74 23.9296C61.192 23.4024 61.9226 23.1764 62.4122 22.6943C64.4308 20.5025 62.0808 16.164 58.7591 14.7554C57.4958 14.312 56.1426 14.1878 54.8197 14.3939C53.1853 14.4994 51.6412 14.1001 50.0218 14.0851C48.8668 14.0698 47.7351 14.4099 46.7799 15.0593C45.8247 15.7087 45.0921 16.636 44.6815 17.7156C43.8228 19.6438 43.4236 22.2349 44.335 24.2158C44.5107 24.6453 44.7884 25.0254 45.144 25.3233C45.4997 25.6212 45.9226 25.828 46.3762 25.9256ZM45.4648 16.7515C45.8618 16.111 46.3988 15.5688 47.0354 15.1657C47.6721 14.7626 48.3918 14.509 49.1405 14.424C50.7524 14.2433 52.3191 14.7705 53.9309 14.7329C55.5428 14.6952 57.1999 14.3562 58.7817 15.117C61.32 16.3297 63.896 20.1183 62.254 22.2951C61.561 23.199 60.145 23.3798 59.9943 24.6904C59.7307 27.1835 63.5269 27.9066 64.024 30.8818C64.1772 31.6893 64.0062 32.5245 63.548 33.2068C63.0899 33.8891 62.3814 34.3635 61.5761 34.5274C60.5216 34.7985 59.3164 34.8211 58.3975 35.3634C56.6877 36.3502 56.5747 39.0316 58.5256 39.815C59.5951 40.2518 60.612 40.3648 61.5912 41.0879C65.0936 43.6564 63.3612 46.9328 59.919 49.5013C58.8866 50.1889 57.9363 50.9925 57.0869 51.8965C55.5052 53.8022 55.1587 56.4158 55.3771 58.8035C55.8893 64.3849 58.3448 65.3565 57.1246 69.921C56.59 71.8743 55.7891 73.7448 54.7444 75.4797C55.2346 73.6399 55.5076 71.749 55.5579 69.8457C55.3093 66.1775 52.7559 65.9365 51.2194 64.6711C48.9597 62.8182 51.2194 58.9994 52.0554 56.9506C53.4263 53.5762 50.2628 52.3711 50.6771 49.7875C50.9482 48.1003 52.9367 48.2284 53.9084 47.2115C54.2063 46.9775 54.4051 46.6397 54.4651 46.2656C54.5252 45.8915 54.442 45.5085 54.2322 45.1929C53.8029 44.6883 53.0949 44.5 52.8915 43.7919C52.7922 43.0766 52.8409 42.3485 53.0346 41.6528C53.1205 41.1976 53.0842 40.7277 52.9294 40.2911C52.7746 39.8545 52.5068 39.4667 52.1534 39.1672C50.6469 37.8566 46.2481 37.7135 47.1219 34.7835C47.6642 32.9532 49.954 32.0267 51.242 30.7538C52.53 29.4808 53.0045 27.2438 51.4604 26.0462C49.4267 24.4644 46.2331 26.9576 44.6815 24.3062C43.4311 22.1294 44.1542 18.7475 45.4648 16.7515ZM104.329 39.9204C104.186 39.9882 104.246 40.3196 104.404 40.2819C104.528 40.2201 104.669 40.2006 104.805 40.2264C104.941 40.2523 105.065 40.3221 105.157 40.4251C105.233 40.4702 105.345 40.4251 105.3 40.2819C105.255 40.1388 104.856 39.604 104.329 39.9204ZM104.329 38.301C104.327 38.2798 104.321 38.2593 104.311 38.2408C104.3 38.2223 104.286 38.2064 104.269 38.1941C104.251 38.1819 104.231 38.1736 104.211 38.17C104.19 38.1663 104.168 38.1673 104.148 38.1729C103.982 38.1729 103.764 38.3161 103.636 38.1729C103.508 38.0298 103.598 37.8265 103.636 37.6833C103.682 37.1986 103.664 36.7098 103.583 36.2296C103.579 36.2181 103.571 36.2082 103.561 36.2011C103.551 36.1941 103.539 36.1904 103.526 36.1904C103.514 36.1904 103.502 36.1941 103.492 36.2011C103.482 36.2082 103.474 36.2181 103.47 36.2296C103.499 36.6761 103.499 37.1239 103.47 37.5704C103.417 37.8792 103.312 38.3236 103.651 38.4818C103.99 38.6399 104.329 38.5495 104.329 38.301ZM104.871 37.0431C104.871 37.1712 105.112 37.239 105.112 37.0431C105.084 36.8605 105.046 36.6795 104.999 36.5008C104.954 36.3652 104.803 36.4179 104.803 36.5008C104.803 36.5837 104.871 37.0431 104.871 37.0431ZM102.363 36.7192C102.378 36.9225 102.421 37.1228 102.491 37.3143C102.589 37.4122 102.717 37.2691 102.672 37.1862C102.626 37.1034 102.581 36.7343 102.581 36.6816C102.581 36.6288 102.333 36.6138 102.363 36.7192ZM102.657 35.1751C102.58 35.1247 102.492 35.0943 102.401 35.087C102.31 35.0796 102.218 35.0955 102.135 35.1331C102.051 35.1707 101.979 35.2288 101.924 35.302C101.869 35.3752 101.833 35.4611 101.82 35.5517C101.818 35.5721 101.822 35.5927 101.833 35.6102C101.844 35.6277 101.86 35.6411 101.879 35.6481C101.898 35.6551 101.92 35.6553 101.939 35.6488C101.958 35.6422 101.975 35.6293 101.986 35.612C102.272 35.1375 102.566 35.4086 102.566 35.4086C102.566 35.4086 102.762 35.2429 102.657 35.1751ZM109.255 53.0339C105.505 52.5982 101.725 52.4873 97.9564 52.7025C97.7907 52.7025 97.5045 58.2085 98.431 60.3552C98.8452 61.3343 99.9901 61.5302 100.977 61.6808C103.65 62.087 106.37 62.0667 109.036 61.6206C109.064 61.6177 109.09 61.6058 109.11 61.5868C109.131 61.5678 109.144 61.5426 109.149 61.5151C109.764 58.7688 109.838 55.9291 109.368 53.1544C109.358 53.1275 109.343 53.1029 109.324 53.0822C109.305 53.0614 109.281 53.045 109.255 53.0339ZM108.871 61.3193C106.497 61.7081 104.079 61.7513 101.692 61.4473C100.751 61.3193 99.5156 61.2515 98.8603 60.4681C98.5661 60.0168 98.39 59.4988 98.3481 58.9617C98.0589 56.9974 97.9681 55.0089 98.077 53.0264C101.754 52.761 105.449 52.8695 109.104 53.3502C109.513 55.9961 109.434 58.6944 108.871 61.3117V61.3193Z" fill="black"/>
<path id="Vector_2" d="M106.204 55.4139C105.752 55.3386 101.443 55.3386 100.479 55.3235C100.455 55.3235 100.432 55.3331 100.415 55.35C100.398 55.367 100.389 55.39 100.389 55.4139C100.389 55.4379 100.398 55.4609 100.415 55.4778C100.432 55.4948 100.455 55.5043 100.479 55.5043C102.386 55.7051 104.306 55.7404 106.219 55.6098C106.324 55.5947 106.347 55.429 106.204 55.4139ZM106.038 58.3364C104.11 58.9691 101.15 58.1556 100.698 58.0653C100.6 58.0653 100.532 58.1933 100.622 58.2234C101.458 58.6076 104.2 59.3156 106.091 58.5548C106.204 58.5172 106.128 58.3138 106.038 58.3364ZM136.265 131.459C136.265 131.346 136.099 131.398 136.099 131.496C136.302 133.395 137.135 135.172 138.464 136.543C138.532 136.596 138.66 136.543 138.592 136.437C137.397 135.008 136.595 133.292 136.265 131.459Z" fill="black"/>
<path id="Vector_3" d="M144.731 131.655C144.346 131.549 140.317 131.421 138.532 125.516C138.268 124.763 137.191 124.921 136.317 124.763C134.004 124.337 131.642 124.253 129.305 124.514C127.843 124.642 124.552 125.004 124.386 126.458C122.669 128.891 120.327 130.816 117.607 132.031C117.587 132.043 117.572 132.061 117.564 132.083C117.557 132.105 117.557 132.129 117.565 132.15C117.573 132.172 117.589 132.19 117.609 132.201C117.629 132.213 117.652 132.216 117.675 132.212C120.003 131.376 123.618 128.559 124.416 126.781C124.469 127.452 125.252 127.746 125.599 127.911C124.692 130.249 123.387 132.413 121.742 134.306C121.728 134.321 121.721 134.341 121.722 134.361C121.722 134.382 121.731 134.401 121.746 134.415C121.761 134.429 121.781 134.437 121.802 134.436C121.822 134.435 121.841 134.426 121.855 134.412C123.635 132.597 124.962 130.388 125.727 127.964C128.866 128.989 132.234 129.089 135.428 128.25C135.752 128.145 137.989 127.399 138.441 126.164C138.724 127.663 139.485 129.03 140.609 130.062C141.733 131.094 143.16 131.734 144.678 131.888C144.709 131.895 144.741 131.89 144.768 131.873C144.795 131.856 144.814 131.829 144.821 131.798C144.828 131.767 144.822 131.734 144.805 131.708C144.788 131.681 144.762 131.662 144.731 131.655ZM137.899 126.54C135.511 128.439 131.783 128.627 128.762 128.303C127.685 128.234 126.627 127.979 125.637 127.55C125.275 127.369 124.763 127.098 124.695 126.646C124.682 126.537 124.693 126.427 124.727 126.323C124.76 126.219 124.816 126.123 124.891 126.043C126.149 124.612 132.272 124.537 134.412 124.718C135.12 124.793 135.828 124.936 136.536 125.026C137.047 125.029 137.554 125.108 138.042 125.26C138.592 125.531 138.26 126.277 137.899 126.54ZM133.063 108.328C133.914 108.154 134.434 107.235 133.869 106.625C133.282 106.143 132.534 105.901 131.775 105.947C130.457 105.947 128.544 106.196 129.109 107.386C129.674 108.576 132.235 108.501 133.063 108.328ZM131.632 106.279C132.257 106.229 132.882 106.363 133.432 106.663C134.186 107.138 133.719 107.883 133.033 108.056C132.585 108.146 132.126 108.171 131.67 108.132C131.308 108.132 129.832 108.132 129.41 107.296C128.988 106.46 130.645 106.249 131.632 106.279ZM83.2757 102.061C79.3062 101.858 78.8242 104.509 81.016 104.426C83.577 104.313 84.6541 102.987 84.1946 102.445C84.0771 102.32 83.9345 102.221 83.7761 102.155C83.6178 102.089 83.4473 102.057 83.2757 102.061ZM81.6035 104.095C81.2043 104.147 80.3381 104.155 80.0971 103.846C79.8561 103.537 80.0971 103.025 80.9031 102.679C81.7499 102.367 82.6574 102.256 83.5544 102.355C83.7502 102.355 84.044 102.445 84.0816 102.679C84.1645 103.296 82.402 104.004 81.6035 104.095ZM57.0035 104.697C56.5425 104.944 56.012 105.029 55.4971 104.938C55.4758 104.938 55.4551 104.945 55.438 104.958C55.4209 104.97 55.4085 104.988 55.4025 105.009C55.3966 105.029 55.3974 105.051 55.405 105.071C55.4125 105.091 55.4263 105.108 55.4443 105.119C55.7268 105.213 56.0264 105.243 56.3219 105.208C56.6174 105.173 56.9016 105.073 57.1541 104.916C57.2445 104.825 57.0939 104.644 57.0035 104.697ZM25.8128 120.741C25.4951 123.443 24.3748 125.988 22.5966 128.047C22.5882 128.055 22.5815 128.065 22.577 128.076C22.5724 128.087 22.5701 128.099 22.5701 128.111C22.5701 128.123 22.5724 128.135 22.577 128.146C22.5815 128.156 22.5882 128.166 22.5966 128.175C22.605 128.183 22.615 128.19 22.626 128.195C22.6369 128.199 22.6487 128.201 22.6606 128.201C22.6725 128.201 22.6843 128.199 22.6953 128.195C22.7062 128.19 22.7162 128.183 22.7246 128.175C24.706 126.174 25.8828 123.515 26.0313 120.703C26.0313 120.628 25.8279 120.628 25.8128 120.741ZM37.2165 121.938C37.2095 121.912 37.1925 121.89 37.1692 121.877C37.1459 121.863 37.1182 121.86 37.0922 121.867C37.0663 121.874 37.0441 121.891 37.0307 121.914C37.0173 121.937 37.0137 121.965 37.0207 121.991C37.3658 123.646 38.2766 125.13 39.5967 126.186C39.6871 126.262 39.8 126.119 39.7247 126.028C38.5602 124.896 37.6979 123.49 37.2165 121.938Z" fill="black"/>
<path id="Vector_4" d="M44.7557 119.068C43.5992 119.061 42.4667 118.738 41.4814 118.132C40.496 117.526 39.6955 116.662 39.1668 115.634C39.2139 115.463 39.204 115.282 39.1388 115.118C39.0736 114.953 38.9565 114.814 38.8053 114.722C37.2001 114.484 35.5752 114.406 33.9546 114.489C31.5307 114.651 29.1381 115.127 26.8367 115.905C26.0835 116.161 24.9461 116.508 24.8934 117.411C24.5345 118.641 23.924 119.783 23.1007 120.765C22.2774 121.746 21.2591 122.546 20.1105 123.113C20.0201 123.151 20.1105 123.317 20.1858 123.279C21.3445 122.828 22.385 122.119 23.2282 121.205C24.0714 120.292 24.695 119.197 25.0516 118.006C25.9629 119.551 31.6121 119.309 33.9922 118.76C35.597 118.426 37.1072 117.739 38.4136 116.749C38.6882 116.53 38.9054 116.249 39.0463 115.928C39.5427 116.992 40.3489 117.883 41.3595 118.482C42.37 119.082 43.538 119.362 44.7105 119.287C44.8687 119.249 44.8837 119.068 44.7557 119.068ZM38.2328 116.455C37.0427 117.388 35.6698 118.06 34.2031 118.428C31.7702 119.084 25.4658 119.181 25.2097 117.524C25.0817 116.703 26.3546 116.417 26.9572 116.214C30.0864 115.168 33.3758 114.683 36.6737 114.783C40.018 114.783 38.5266 116.214 38.2328 116.455ZM14.3634 122.631C14.2203 122.631 14.258 122.902 14.4011 122.88C14.5442 122.857 14.6948 123.151 14.5442 123.302C14.0019 123.934 12.7817 123.467 12.7289 123.354C12.6762 123.241 12.7289 123.083 12.8721 123.151C13.0152 123.219 13.0604 123.061 12.97 123.008C12.9209 122.982 12.8659 122.971 12.8108 122.975C12.7557 122.979 12.7027 122.998 12.6576 123.029C12.6126 123.061 12.5771 123.105 12.5551 123.156C12.5332 123.206 12.5256 123.262 12.5331 123.317C12.5331 123.716 14.2956 124.356 14.9133 123.211C14.9324 123.134 14.9317 123.053 14.9114 122.976C14.8911 122.899 14.8517 122.829 14.797 122.771C14.7422 122.713 14.6738 122.67 14.598 122.646C14.5223 122.621 14.4416 122.616 14.3634 122.631ZM33.3821 129.207C32.9534 129.37 32.4844 129.393 32.0414 129.275C31.936 129.275 31.8606 129.425 31.9661 129.455C32.2071 129.568 33.239 129.674 33.4725 129.388C33.5328 129.335 33.4951 129.146 33.3821 129.207ZM62.0345 128.047C60.8444 127.949 58.3964 128.363 58.9312 129.425C59.2099 129.99 60.3096 130.261 60.9423 130.178C61.3275 130.16 61.7045 130.061 62.0495 129.888C62.3944 129.716 62.6997 129.473 62.9459 129.177C63.2095 128.695 62.9007 128.092 62.0345 128.047ZM61.2135 129.824C60.6117 129.889 60.0045 129.769 59.4735 129.478C58.7806 128.988 59.6694 128.604 60.5054 128.446C62.1098 128.213 62.7651 128.612 62.7651 128.898C62.6371 129.455 61.5223 129.764 61.2135 129.802V129.824ZM108.576 23.1087C113.178 24.1858 114.119 26.6714 114.684 27.9067C114.694 27.9307 114.713 27.9497 114.737 27.9596C114.761 27.9695 114.788 27.9694 114.812 27.9594C114.836 27.9494 114.855 27.9303 114.865 27.9063C114.875 27.8823 114.875 27.8553 114.865 27.8314C114.556 26.7995 113.359 23.7113 108.561 22.9807C108.508 22.9656 108.508 23.0936 108.576 23.1087ZM64.377 130.133C64.8892 130.133 65.3034 130.329 65.3034 130.57C65.3034 130.811 64.8892 130.999 64.377 130.999C63.8648 130.999 63.4505 130.811 63.4505 130.57C63.4505 130.329 63.8648 130.133 64.377 130.133ZM70.2295 109.819C69.8453 109.819 69.5365 110 69.5365 110.203C69.5365 110.406 69.8453 110.58 70.2295 110.58C70.6136 110.58 70.9149 110.399 70.9149 110.203C70.9149 110.007 70.6061 109.819 70.2295 109.819ZM107.92 55.1731C107.855 55.1839 107.796 55.2175 107.753 55.2678C107.711 55.3182 107.687 55.382 107.687 55.448C107.687 55.514 107.711 55.5779 107.753 55.6282C107.796 55.6786 107.855 55.7122 107.92 55.723C107.986 55.7122 108.045 55.6786 108.087 55.6282C108.13 55.5779 108.153 55.514 108.153 55.448C108.153 55.382 108.13 55.3182 108.087 55.2678C108.045 55.2175 107.986 55.1839 107.92 55.1731ZM107.853 57.9525C107.785 57.9525 107.72 57.9795 107.672 58.0275C107.624 58.0755 107.597 58.1407 107.597 58.2086C107.597 58.2765 107.624 58.3416 107.672 58.3897C107.72 58.4377 107.785 58.4647 107.853 58.4647C107.921 58.4647 107.986 58.4377 108.034 58.3897C108.082 58.3416 108.109 58.2765 108.109 58.2086C108.109 58.1407 108.082 58.0755 108.034 58.0275C107.986 57.9795 107.921 57.9525 107.853 57.9525ZM104.855 35.1752C104.742 35.228 104.855 35.4087 104.96 35.4238C105.066 35.4389 105.254 35.1526 105.54 35.6272C105.551 35.6436 105.567 35.656 105.586 35.6625C105.604 35.669 105.624 35.6694 105.643 35.6634C105.662 35.6574 105.678 35.6455 105.689 35.6295C105.701 35.6134 105.707 35.5941 105.706 35.5744C105.692 35.4825 105.656 35.3953 105.6 35.3208C105.545 35.2462 105.471 35.1866 105.387 35.1471C105.303 35.1076 105.21 35.0895 105.117 35.0944C105.025 35.0993 104.934 35.1271 104.855 35.1752Z" fill="black"/>
<path id="Vector_5" d="M146.877 107.71C146.612 107.302 146.281 106.94 145.898 106.64C145.514 106.346 143.315 105.074 138.215 103.786C134.638 102.874 134.382 101.059 132.762 100.878C131.821 100.765 131.128 101.496 130.277 101.752C129.275 102.038 128.77 101.134 128.183 100.532C127.429 99.7784 126.744 99.8688 125.772 100.147C124.432 100.569 123.98 100.773 122.699 100.08C121.946 99.6579 121.193 98.867 120.259 99.1005C120.635 94.1745 121.81 75.4043 121.411 73.4912C121.502 73.3631 122.586 71.4349 121.042 70.5837C121.72 69.8611 122.12 68.9219 122.172 67.9324C122.3 66.8403 121.72 60.212 121.645 59.7374C121.942 59.6972 122.226 59.5867 122.472 59.4151C122.718 59.2435 122.92 59.0158 123.061 58.7507C123.175 58.4947 123.218 58.2124 123.185 57.9338C123.152 57.6553 123.044 57.391 122.872 57.169C123.49 56.8225 125.78 55.3537 126.638 54.0958C127.911 52.2957 129.29 50.5557 129.779 48.3714C130.796 43.7768 128.273 39.3328 125.516 35.8605C124.735 34.8791 123.884 33.9553 122.97 33.0962C122.082 32.2601 120.424 30.8968 119.86 30.7913C120.01 29.9553 119.86 28.8254 119.106 29.0966C118.843 24.5773 114.933 21.4289 110.535 20.2689C103.191 18.3105 93.6175 22.408 93.4216 31.409C93.1312 31.3776 92.8383 31.3776 92.5479 31.409C91.456 32.8175 90.5073 34.3314 89.7158 35.9283C86.477 42.6394 88.0135 50.8344 94.8527 54.3293C94.0655 58.6007 93.6172 62.9276 93.512 67.2696C93.4442 68.9869 93.7907 70.5612 95.1088 71.6458C94.1899 71.9169 93.8208 73.4309 94.9959 74.4026C94.48 81.2816 94.3041 88.1819 94.4686 95.0783C92.209 94.8825 90.0774 92.3743 88.3525 91.1541C86.0401 89.5196 83.08 89.5723 80.4437 90.2126C84.963 86.9963 88.5333 82.7934 90.1301 79.8935C90.2355 79.8182 90.2732 79.66 90.1301 79.5997C80.4964 75.7583 69.6049 74.1841 59.5344 77.1141C59.4139 77.1141 59.444 77.2723 59.6625 77.3702C61.1689 78.0029 61.666 79.6751 61.2668 81.2192C60.8978 82.5825 59.1578 84.7819 59.1578 84.7969C59.0448 85.2112 59.7378 86.0849 59.8131 86.1075C61.1388 86.4691 62.8787 86.6498 62.826 88.45C62.826 89.723 61.3723 91.9902 61.4099 92.1709C61.709 93.0767 62.1515 93.9286 62.7205 94.6942C59.9638 95.5227 58.5025 99.0779 54.857 95.4474C54.8279 95.4248 54.7921 95.4125 54.7553 95.4125C54.7184 95.4125 54.6827 95.4248 54.6536 95.4474C54.4069 95.5902 54.1276 95.6669 53.8426 95.6702C53.5576 95.6735 53.2765 95.6032 53.0266 95.4661C52.7768 95.329 52.5664 95.1298 52.416 94.8877C52.2656 94.6457 52.1802 94.3689 52.168 94.0841C52.168 93.9711 52.0776 93.9184 51.9797 93.9334L50.5486 94.1895C50.7115 93.5719 50.8025 92.9375 50.8197 92.299C50.8179 92.2725 50.8095 92.2469 50.7952 92.2246C50.7809 92.2023 50.7612 92.1839 50.738 92.1711C50.7147 92.1584 50.6886 92.1517 50.6621 92.1516C50.6356 92.1516 50.6095 92.1582 50.5862 92.1709C49.4177 90.8631 48.1727 89.6256 46.8578 88.4651C48.0903 87.5235 49.1374 86.3615 49.946 85.038C49.9546 85.0204 49.9591 85.0011 49.9591 84.9815C49.9591 84.9619 49.9546 84.9426 49.946 84.925C49.9534 84.9138 49.9574 84.9007 49.9574 84.8873C49.9574 84.8739 49.9534 84.8608 49.946 84.8497C49.1532 83.1187 47.9032 81.6369 46.3306 80.5639C46.2892 80.5489 46.2439 80.5489 46.2025 80.5639C43.1307 80.0653 40.0099 79.9388 36.9078 80.1873C36.1724 77.8081 34.637 75.7564 32.5618 74.38C29.097 72.0676 25.1501 72.1203 21.1957 72.8735C19.1576 73.1878 17.1822 73.8234 15.3432 74.7566C14.9968 74.9599 13.5656 75.7734 13.7615 76.3609C13.9573 76.9484 15.1248 76.1801 17.392 76.5793C23.8772 77.6866 25.8054 80.5337 26.8599 82.2963C26.1067 82.5373 25.4062 82.8084 24.6982 83.0495C23.8923 82.9214 23.0712 82.9214 22.2653 83.0495C21.8652 83.5814 21.6061 84.2058 21.5121 84.8647C17.746 84.6689 13.769 84.5785 9.35516 84.4655C8.60195 84.4655 8.27053 85.1208 9.35516 85.4146C12.948 86.3184 17.4146 87.6742 21.0903 88.4802C21.0903 88.8116 20.3973 91.2972 21.5422 91.5307C22.0469 91.6437 23.8847 91.8998 24.1785 91.3123C24.1948 91.2582 24.1948 91.2006 24.1785 91.1466C24.5924 91.5705 25.0327 91.968 25.4966 92.3366C24.427 94.0464 18.6197 96.7505 12.3379 94.3854C11.886 94.2046 11.0122 93.4966 10.5001 93.5719C8.90323 93.8205 11.8106 96.9689 12.1948 97.338C15.4186 100.125 18.2205 101.714 22.1146 102.445C21.3603 102.967 20.493 103.302 19.5838 103.424C19.5431 103.438 19.509 103.466 19.4881 103.504C19.4673 103.541 19.4611 103.585 19.4709 103.627C19.5989 104.132 20.2241 106.256 18.8758 106.587C17.9798 106.829 17.0546 106.946 16.1266 106.934C15.3734 106.896 14.4544 106.512 13.6937 106.693C13.189 106.821 13.0083 107.258 12.6768 107.604C11.2608 109.111 9.06141 107.604 7.33654 107.785C5.96112 108.001 4.70115 108.682 3.7663 109.713C3.74932 109.727 3.73859 109.747 3.73647 109.769C3.73435 109.791 3.74102 109.813 3.755 109.83C3.76898 109.847 3.78914 109.858 3.81103 109.86C3.83293 109.862 3.85477 109.855 3.87175 109.841C4.53789 109.284 5.25978 108.797 6.02595 108.388C7.28382 107.8 8.44377 108.147 9.71671 108.388C10.9896 108.629 12.2249 108.606 13.061 107.537C14.108 106.218 15.1926 107.778 18.4691 106.994C19.2223 106.813 19.742 106.829 19.8701 106.03C19.9922 105.257 19.9666 104.467 19.7947 103.703C20.8153 103.558 21.7807 103.15 22.5967 102.52C25.4954 103.019 28.4665 102.906 31.319 102.189C31.2291 102.281 31.1624 102.393 31.1244 102.516C31.0865 102.639 31.0783 102.77 31.1005 102.897C31.2813 103.552 32.8932 103.876 33.4054 104.064C35.0775 104.644 37.6384 105.751 39.1825 104.403C39.7816 103.757 40.3449 103.078 40.8697 102.369C41.3593 101.842 41.6681 102.264 42.2331 102.52C42.5705 102.699 42.9448 102.797 43.3265 102.806C43.7082 102.815 44.0868 102.735 44.4324 102.573C45.0877 102.211 45.1857 101.533 46.1422 101.518C47.2269 101.518 48.063 102.392 49.2078 102.083C49.4112 102.023 49.3208 101.752 49.1175 101.789C47.8822 102.023 46.7373 100.81 45.5246 101.285C44.8467 101.533 44.5982 102.279 43.8525 102.445C42.9637 102.641 42.105 102.121 41.3593 101.692C41.3328 101.673 41.3013 101.663 41.2689 101.663C41.2366 101.663 41.2051 101.673 41.1786 101.692C39.6721 102.912 39.2578 105.104 36.6593 104.637C35.6357 104.439 34.6285 104.165 33.6464 103.816C33.0965 103.635 30.5582 103.288 31.8839 102C33.7812 101.329 35.3567 99.9683 36.2977 98.1891C39.4795 99.5427 42.8889 100.281 46.3456 100.366C46.436 100.366 48.1232 99.7633 50.5561 94.3402C51.0306 94.2875 51.5051 94.2347 51.9571 94.1594C51.9965 94.5683 52.163 94.9545 52.4332 95.2638C52.7034 95.5732 53.0637 95.7902 53.4635 95.8843C53.8778 95.9747 54.2845 95.7186 54.6461 95.7788C55.1507 95.8466 55.6102 96.532 56.047 96.8258C58.6607 98.6109 60.5663 95.6131 62.9842 94.9578C63.2307 95.3383 63.5105 95.6963 63.8202 96.0274C64.5084 96.3581 65.2841 96.461 66.0347 96.3211C67.5938 96.2308 75.7361 93.4137 79.8562 90.6193C81.7694 90.3105 83.5696 89.9263 85.5129 90.2502C87.4562 90.5741 88.7442 91.7567 90.1602 93.0145C91.3428 94.0464 92.9396 95.1763 94.5364 95.2742C94.8301 106.994 96.0428 115.498 96.4797 121.185C97.083 121.555 97.7753 121.756 98.4832 121.765C98.4832 121.908 98.4833 123.075 98.536 123.203C96.8111 123.618 95.5231 125.237 96.1709 125.614C96.2688 125.666 100.969 125.614 101.022 125.561C101.24 125.418 101.104 123.075 101.022 122.985C101.063 122.579 101.063 122.17 101.022 121.765C101.617 121.727 102.016 121.674 102.016 121.674C102.016 121.674 105.91 102.354 106.746 94.4532C106.603 92.7961 105.993 83.9081 106.03 82.831C106.03 82.7407 106.196 82.703 106.211 82.831C106.302 83.4487 107.115 91.6813 107.431 94.3025C108.034 99.4018 111.552 118.059 112.629 122.669C112.629 122.759 112.99 122.812 113.495 122.834C113.495 122.977 113.645 123.836 113.645 123.889C111.808 124.725 110.158 126.148 110.828 126.465C110.919 126.525 115.626 126.465 115.679 126.412C115.898 126.269 115.777 123.919 115.642 123.851C115.642 123.814 115.717 123 115.694 122.812L117.419 122.744C117.419 122.744 120.236 99.5826 120.259 99.4545C121.148 99.2888 121.908 99.9064 122.639 100.328C122.992 100.581 123.401 100.746 123.83 100.808C124.26 100.871 124.699 100.831 125.109 100.69C125.976 100.449 127 99.9366 127.813 100.577C128.416 101.066 128.778 101.925 129.591 102.083C130.917 102.385 131.851 100.667 133.357 101.375C134.389 101.865 134.803 102.882 137.244 103.793C141.439 105.299 144.866 105.495 146.697 107.86C146.727 108.004 146.945 107.86 146.877 107.71ZM49.1175 96.3437C48.3974 97.6961 47.4782 98.9326 46.3908 100.012C39.5591 100.132 28.6752 94.8373 24.2086 90.7624C24.2086 90.672 24.3065 89.1807 24.3065 89.1279C27.5755 89.8811 30.9875 90.4912 34.2038 89.9791C35.2055 89.8209 36.1621 89.4895 36.3128 88.5103C36.5463 86.8758 35.2583 86.1452 34.1134 85.987C30.9122 85.5276 27.8617 85.2338 24.7961 85.0078C24.7961 84.5333 24.9241 83.3884 24.9015 83.298C28.4354 81.9621 32.1219 81.0715 35.8759 80.6467C36.8273 81.0224 37.6069 81.7356 38.0655 82.65C38.524 83.5644 38.6294 84.6157 38.3615 85.6029C38.3163 85.7912 38.482 85.761 39.1976 85.9644C38.6744 86.5498 38.3472 87.2841 38.2618 88.0645C38.1764 88.845 38.3371 89.6327 38.7213 90.3173C39.1055 91.002 39.6942 91.5495 40.4049 91.8832C41.1155 92.2169 41.9127 92.3201 42.685 92.1785C43.6811 92.0101 44.5711 91.4569 45.1629 90.6382C45.7548 89.8195 46.001 88.8009 45.8485 87.8023C45.4869 84.9702 41.623 83.3357 39.401 85.7686C38.7457 85.6255 38.7984 85.6029 38.7607 85.1283C38.6703 84.0814 38.7607 83.2453 38.1807 82.2586C37.7446 81.516 37.0821 80.9326 36.2902 80.594C39.6232 80.3342 42.9726 80.3644 46.3004 80.6844C47.7377 81.789 48.9432 83.166 49.8481 84.7367C48.9763 86.0755 47.8896 87.2615 46.6318 88.2467C46.6142 88.2622 46.6001 88.2813 46.5904 88.3028C46.5807 88.3242 46.5757 88.3474 46.5757 88.3709C46.5757 88.3945 46.5807 88.4177 46.5904 88.4391C46.6001 88.4606 46.6142 88.4797 46.6318 88.4952C48.0102 89.7305 49.2832 91.0637 50.6314 92.3291C50.3431 93.7392 49.832 95.0944 49.1175 96.3437ZM42.1803 89.4217C42.3686 89.4895 42.4364 89.2033 42.2556 89.1279C40.3726 88.4199 41.5627 87.0867 41.4572 86.454C41.7133 86.454 41.9694 86.5067 42.2105 86.567C42.567 86.6706 42.8972 86.8492 43.1791 87.0908C43.461 87.3325 43.688 87.6315 43.8449 87.968C43.8977 88.0584 44.0709 87.968 44.0257 87.8927C43.8333 87.3207 43.4326 86.842 42.9034 86.5519C42.0894 86.2766 41.2487 86.0872 40.3952 85.987C40.7709 85.736 41.2035 85.5831 41.6535 85.5423C42.1035 85.5015 42.5565 85.5741 42.9712 85.7535C43.6076 86.0452 44.1189 86.5545 44.4131 87.1897C44.7072 87.825 44.7648 88.5443 44.5756 89.2183C44.4436 89.5596 44.2439 89.8707 43.9884 90.1328C43.733 90.3949 43.4272 90.6025 43.0894 90.7433C42.7516 90.8841 42.3888 90.955 42.0229 90.9518C41.6569 90.9486 41.2954 90.8714 40.9601 90.7247C40.5397 90.5479 40.17 90.269 39.8846 89.9133C39.5991 89.5576 39.4069 89.1362 39.3254 88.6875C39.2439 88.2387 39.2756 87.7767 39.4177 87.3433C39.5598 86.91 39.8077 86.5188 40.1391 86.2055C40.3739 86.2348 40.6027 86.3009 40.817 86.4013C41.397 86.8231 40.817 87.4031 40.7793 87.9077C40.6739 88.7814 41.4271 89.143 42.1803 89.4217ZM40.8923 90.9281C41.5759 91.2213 42.3453 91.2436 43.0447 90.9904C43.744 90.7373 44.3209 90.2276 44.6584 89.5648C44.9499 88.8347 44.9445 88.0196 44.6433 87.2935C44.3422 86.5674 43.7691 85.9877 43.0465 85.6782C42.5942 85.4759 42.0961 85.3979 41.6036 85.4522C41.1111 85.5065 40.642 85.6911 40.2446 85.987C40.0638 85.987 39.883 85.9117 39.7022 85.859C40.1864 85.3904 40.7949 85.0708 41.4555 84.9381C42.116 84.8054 42.8007 84.8652 43.4283 85.1103C44.0558 85.3554 44.5998 85.7757 44.9954 86.321C45.3911 86.8663 45.6218 87.5138 45.6602 88.1864C45.7223 89.0828 45.4539 89.9709 44.9057 90.6829C44.3575 91.3948 43.5675 91.8813 42.685 92.0504C38.9942 92.2312 37.4125 88.5178 39.4989 86.0247C39.6119 86.0247 39.9357 86.1377 40.0111 86.1527C39.6539 86.4798 39.3853 86.892 39.2303 87.3508C39.0754 87.8097 39.039 88.3003 39.1247 88.777C39.2104 89.2537 39.4154 89.7009 39.7205 90.077C40.0256 90.4532 40.421 90.7459 40.8697 90.9281H40.8923ZM80.971 77.3024C80.9781 77.2859 80.9887 77.2712 81.0019 77.259C81.0152 77.2469 81.0309 77.2377 81.0479 77.232C81.065 77.2263 81.083 77.2243 81.1009 77.226C81.1188 77.2278 81.1361 77.2333 81.1517 77.2422C81.17 77.2495 81.1866 77.2605 81.2004 77.2745C81.2143 77.2886 81.2251 77.3053 81.2321 77.3237C81.2392 77.342 81.2424 77.3617 81.2415 77.3814C81.2407 77.401 81.2357 77.4203 81.2271 77.438C79.8185 80.6693 81.6037 84.5484 84.0667 86.2958C84.0982 86.3209 84.12 86.3562 84.1283 86.3957C84.1365 86.4351 84.1308 86.4762 84.1121 86.5118C84.0934 86.5475 84.0628 86.5755 84.0257 86.5911C83.9885 86.6067 83.9471 86.6088 83.9085 86.5971C82.4868 85.7972 81.431 84.4768 80.9634 82.9139C80.2207 81.1182 80.2153 79.1021 80.9484 77.3024H80.971ZM65.9066 96.1931C65.2166 96.2894 64.5136 96.1683 63.8956 95.8466C63.8956 95.8466 62.3891 93.3761 61.6962 92.0805C62.5096 90.9356 63.4963 89.0677 63.0595 87.629C62.6603 86.3335 59.9864 85.8288 59.8809 85.8288C59.7755 85.8288 59.3311 85.1735 59.4064 84.7593C60.5546 83.654 61.3555 82.2379 61.7112 80.6844C61.6736 79.7429 63.8579 80.594 65.402 80.5563C66.11 80.5563 66.0196 80.7597 66.2155 80.9781C65.7215 81.5316 65.3647 82.1935 65.1738 82.9104C64.9829 83.6272 64.9632 84.3789 65.1165 85.1047C65.2697 85.8306 65.5915 86.5102 66.0559 87.0887C66.5202 87.6672 67.1142 88.1284 67.7897 88.435C68.7265 88.8805 69.7718 89.0464 70.8005 88.9128C71.8292 88.7792 72.7975 88.3518 73.5894 87.6818C75.3746 86.0623 75.3294 82.7783 74.0715 81.1966C72.1809 78.7863 68.5128 78.8541 66.464 80.7672C66.3823 80.585 66.2552 80.4268 66.0949 80.3078C65.6975 80.2546 65.2948 80.2546 64.8973 80.3078C62.4946 80.2099 62.118 79.5546 61.3572 78.4925C61.08 77.9392 60.6343 77.4882 60.0843 77.2045C66.4852 75.6987 73.1306 75.5498 79.5926 76.7677C78.9599 77.0765 78.8394 77.9879 78.7038 78.8013C78.0334 83.9985 81.4078 87.9604 83.1026 87.7571C77.6493 92.8564 67.2775 96.1554 65.884 96.1931H65.9066ZM70.5766 84.1416C69.386 83.6289 68.3065 82.8895 67.398 81.9648C67.8015 81.5462 68.2941 81.2239 68.8392 81.0217C69.3843 80.8195 69.968 80.7427 70.5468 80.797C71.1257 80.8513 71.6849 81.0352 72.183 81.3352C72.681 81.6352 73.1051 82.0434 73.4237 82.5298C73.6443 82.9137 73.7838 83.3388 73.8336 83.7788C73.8834 84.2188 73.8424 84.6644 73.7132 85.0879C73.5841 85.5114 73.3694 85.904 73.0825 86.2413C72.7957 86.5786 72.4427 86.8535 72.0454 87.049C71.2439 87.3869 70.3565 87.4639 69.5089 87.2692C68.6613 87.0746 67.8964 86.6181 67.3227 85.9644C66.9047 85.4298 66.6702 84.7747 66.6539 84.0964C66.6377 83.418 66.8405 82.7524 67.2323 82.1983C68.1523 83.1529 69.2855 83.8757 70.5389 84.3073C70.5766 84.3149 70.6444 84.1718 70.554 84.1115L70.5766 84.1416ZM67.2172 86.0548C67.8367 86.7591 68.6684 87.2428 69.5869 87.4331C70.5053 87.6233 71.4607 87.5097 72.309 87.1093C72.7073 86.8612 73.0518 86.5357 73.3221 86.1521C73.5924 85.7685 73.7831 85.3346 73.8828 84.876C73.9825 84.4174 73.9893 83.9436 73.9027 83.4823C73.8161 83.0211 73.6378 82.582 73.3785 82.1908C73.027 81.7234 72.578 81.338 72.0628 81.0612C71.5475 80.7844 70.9783 80.6229 70.3945 80.5878C69.8107 80.5527 69.2262 80.6448 68.6815 80.8579C68.1368 81.0709 67.6449 81.3998 67.2398 81.8217C67.0214 81.5882 66.5996 81.0685 66.5845 81.0233C67.0811 80.5512 67.6675 80.1839 68.3089 79.9431C68.9504 79.7024 69.6337 79.5932 70.3182 79.622C71.0027 79.6508 71.6744 79.8171 72.2934 80.1109C72.9123 80.4047 73.4658 80.82 73.9209 81.3321C75.1561 83.2453 74.885 86.6574 72.6479 88.0358C71.5425 88.6888 70.2274 88.8888 68.9778 88.594C67.7282 88.2991 66.6412 87.5323 65.9443 86.454C65.4519 85.6571 65.2272 84.7236 65.3031 83.7899C65.379 82.8562 65.7514 81.9713 66.3661 81.2644C66.4188 81.3321 66.8708 81.882 67.0365 82.0628C66.6189 82.6469 66.4078 83.3534 66.4364 84.0708C66.4651 84.7883 66.7318 85.4757 67.1946 86.0247L67.2172 86.0548ZM122.774 58.6603C122.533 59.1123 121.132 60.1668 119.264 58.7206C118.701 58.3101 118.167 57.8595 117.668 57.3723C115.687 55.429 112.885 50.5934 113.977 45.5845C113.977 45.5845 114.248 45.4339 114.338 45.3811C114.831 45.5107 115.336 45.584 115.845 45.5996C115.137 46.1118 115.092 47.1964 115.175 48.0174C115.378 51.4747 116.56 54.9244 119.423 56.7924C121.351 58.0653 122.511 57.3347 122.639 57.2669C122.799 57.4586 122.897 57.6941 122.922 57.9427C122.946 58.1913 122.894 58.4413 122.774 58.6603ZM114.7 42.7147C116.471 41.6485 117.906 40.106 118.843 38.2632C121.675 45.6749 115.611 45.3661 114.595 45.1853C114.933 44.8915 115.717 43.4228 114.7 42.7147ZM120.04 31.0098C124.273 34.3164 127.572 38.9336 128.454 40.9899C132.958 51.4144 122.021 57.2443 121.969 57.2443C120.342 57.5456 118.526 56.0542 117.532 54.7135C115.205 51.5801 114.753 45.8707 116.372 45.5996C117 45.5851 117.617 45.4268 118.174 45.137C118.732 44.8471 119.216 44.4333 119.588 43.9274C119.866 43.4717 120.046 42.9627 120.114 42.4333C120.183 41.9039 120.14 41.3659 119.988 40.8543C119.338 38.3634 118.322 35.9826 116.975 33.7891C116.952 33.6686 117.773 31.07 120.04 31.0098ZM119.189 29.3753C119.222 29.3519 119.259 29.3369 119.299 29.3316C119.338 29.3264 119.379 29.3311 119.416 29.3453C119.453 29.3594 119.487 29.3827 119.513 29.4129C119.539 29.4431 119.557 29.4794 119.566 29.5184C119.63 29.9277 119.63 30.3444 119.566 30.7537C118.75 30.928 118.02 31.3807 117.502 32.0341C117.457 31.9588 115.996 30.4599 116.493 29.2171C116.552 29.1094 116.633 29.0147 116.729 28.9387C116.826 28.8627 116.937 28.8068 117.056 28.7745C117.175 28.7422 117.299 28.7341 117.42 28.7506C117.542 28.7671 117.66 28.8079 117.766 28.8706C118.227 29.1571 118.608 29.5563 118.873 30.0306C118.948 30.1285 119.204 30.0532 119.189 29.3753ZM95.0109 26.5055C97.4061 21.8356 103.673 19.4178 108.817 20.2011C113.962 20.9845 118.805 24.4191 118.805 29.4431C118.624 29.0996 118.337 28.823 117.988 28.6536C117.638 28.4842 117.244 28.431 116.862 28.5016C115.355 28.9686 116.47 31.5144 117.314 32.2224C117.006 32.7101 116.825 33.2667 116.786 33.8419C117.518 35.1819 118.167 36.5654 118.73 37.9845C116.991 40.9148 114.178 43.052 110.889 43.9425C110.957 43.4152 111.175 39.5663 111.175 39.0391C112.064 39.6567 113.645 36.7794 114.03 35.273C114.579 33.0133 114.03 32.6141 113.774 31.5069C113.645 30.942 113.645 30.362 113.517 29.7971C113.323 29.074 112.892 28.4373 112.292 27.9892C111.692 27.5411 110.959 27.3077 110.211 27.3265C109.284 27.3793 108.396 27.8161 107.469 27.8011C105.963 27.8011 104.208 26.2946 101.948 27.0478C100.818 27.4471 100.803 29.5937 100.765 29.6992C100.675 29.9703 100.389 30.121 100.148 30.2791C99.7007 30.6244 99.3691 31.0975 99.1969 31.6355C99.0247 32.1736 99.0201 32.7513 99.1837 33.292C99.3568 33.815 99.6325 34.2982 99.9947 34.7134C100.357 35.1285 100.798 35.4673 101.293 35.7098C101.293 35.9584 101.383 37.9695 101.511 38.7227C102.016 41.5925 103.906 42.7373 105.435 42.4888C105.539 43.0373 105.565 43.5978 105.511 44.1534C104.637 44.0329 99.0933 42.9934 95.8621 38.3084C95.9148 37.6531 96.6153 33.7891 96.1935 32.3656C96.4608 32.25 96.7136 32.1033 96.9467 31.9287C97.0876 31.8534 97.2087 31.7459 97.3003 31.6151C97.3919 31.4842 97.4514 31.3336 97.4739 31.1755C97.4749 31.0833 97.4545 30.9922 97.4142 30.9092C97.374 30.8263 97.315 30.7539 97.242 30.6977C97.1689 30.6414 97.0838 30.6029 96.9934 30.5852C96.9029 30.5675 96.8096 30.571 96.7207 30.5955C96.9928 30.1583 97.1436 29.6566 97.1576 29.1418C97.0446 27.5224 95.0938 26.9424 93.9564 29.6013C94.1548 28.5306 94.5101 27.495 95.0109 26.5281V26.5055ZM105.669 42.3231C105.66 42.2932 105.641 42.2675 105.614 42.2509C105.588 42.2342 105.557 42.2278 105.526 42.2327C104.895 42.2856 104.263 42.1472 103.712 41.8354C103.161 41.5237 102.717 41.0532 102.438 40.4852C101.846 39.2086 101.573 37.8081 101.639 36.4028C101.639 35.6496 101.315 32.8401 102.453 31.8006C102.641 31.6425 102.89 31.9362 103.04 32.1321C103.744 33.0873 104.768 33.7582 105.925 34.0226C108.185 34.4972 108.094 36.0413 108.433 36.1241C108.772 36.207 108.81 35.6044 109.232 35.1449C109.842 34.4821 110.7 34.6026 110.941 36.0337C110.994 36.3425 110.685 43.3926 110.67 43.9576C110.105 44.0856 109.307 44.6129 105.707 44.1534C105.79 43.5602 105.778 42.9574 105.669 42.3683V42.3231ZM100.713 44.4622C100.073 44.7409 95.9148 45.2154 95.847 38.8357C96.2989 39.9429 99.1159 42.18 100.894 43.0462C100.713 43.2393 100.598 43.4848 100.565 43.7474C100.533 44.0099 100.584 44.276 100.713 44.5074V44.4622ZM95.6587 38.0071C94.3895 36.1621 93.7526 33.9554 93.8434 31.7178C94.0393 31.7178 95.734 32.3957 95.9675 32.471C95.9148 32.5237 96.2236 33.3598 95.6587 38.0071ZM94.6268 28.9686C94.9657 28.479 95.5532 27.899 96.201 28.1325C96.428 28.2398 96.6164 28.4146 96.7404 28.633C96.8644 28.8514 96.9181 29.1027 96.894 29.3527C96.8107 29.9804 96.5493 30.5711 96.1407 31.055C96.0504 31.183 96.2462 31.3261 96.3516 31.2207C96.4992 31.0491 96.6967 30.9279 96.9166 30.8742C97.1726 30.8742 97.248 31.2056 97.1576 31.3864C96.9542 31.7856 95.9223 32.1998 95.8997 32.2224C95.2291 31.8603 94.5154 31.5845 93.7756 31.4014C93.7329 30.5111 94.032 29.6381 94.6117 28.961L94.6268 28.9686ZM91.1394 33.9774C91.629 33.1564 92.1939 32.3731 92.7061 31.5747C92.9541 31.6304 93.2058 31.6682 93.4593 31.6877C93.3932 34.144 94.134 36.5543 95.5683 38.5495C95.2369 41.3891 96.3818 43.8747 98.1066 44.6957C96.8036 47.7086 95.0938 54.0281 95.0938 54.013C87.9307 50.3072 86.492 41.4644 91.1394 33.9774ZM95.3047 71.7588C95.4135 71.8332 95.5267 71.9012 95.6436 71.9621C95.4052 72.3006 95.2643 72.6981 95.2364 73.1112C95.2085 73.5243 95.2947 73.9372 95.4854 74.3046C95.2427 74.2005 95.0336 74.0311 94.8812 73.8154C94.7288 73.5997 94.639 73.3461 94.6219 73.0825C94.6047 72.819 94.6608 72.5558 94.784 72.3222C94.9072 72.0885 95.0926 71.8935 95.3197 71.7588H95.3047ZM95.8847 74.5231C95.6359 74.1712 95.4979 73.753 95.4885 73.3222C95.4791 72.8914 95.5987 72.4676 95.8319 72.1052C95.8319 72.1052 96.1181 72.4291 98.1895 72.7605C98.0172 73.1587 97.9483 73.5939 97.9891 74.0258C98.03 74.4577 98.1792 74.8723 98.423 75.2311C97.5511 75.1229 96.7005 74.8843 95.8997 74.5231H95.8847ZM100.698 122.97C100.065 122.902 99.425 122.945 98.8071 123.098C98.8071 123.008 98.7318 121.953 98.7167 121.795H100.713C100.75 122.021 100.713 122.774 100.713 122.97H100.698ZM98.6715 75.2688C98.4508 74.8957 98.3183 74.4771 98.2844 74.0449C98.2504 73.6127 98.3159 73.1786 98.4757 72.7756C99.3269 72.8886 100.201 72.9413 101.074 72.994C100.903 73.4024 100.823 73.8436 100.841 74.2863C100.859 74.7289 100.975 75.1621 101.18 75.555C100.338 75.5154 99.5003 75.4198 98.6715 75.2688ZM101.398 75.5926C101.211 75.1932 101.109 74.7589 101.1 74.3178C101.091 73.8766 101.175 73.4385 101.345 73.0317C101.345 73.0317 103.605 73.1748 104.69 73.2125C104.483 73.5935 104.359 74.0133 104.324 74.4452C104.289 74.877 104.344 75.3114 104.486 75.7207C103.492 75.7056 102.438 75.668 101.421 75.5926H101.398ZM104.742 75.7357C104.599 75.3243 104.55 74.8857 104.599 74.4526C104.649 74.0196 104.796 73.6034 105.029 73.2351C106.174 73.2878 107.288 73.3255 108.448 73.3255C108.175 74.1219 108.194 74.9894 108.501 75.7734C107.364 75.7734 104.871 75.7357 104.765 75.7357H104.742ZM108.719 75.7357C108.406 74.95 108.406 74.0736 108.719 73.2878C109.849 73.2878 112.245 73.107 112.335 73.107C112.335 73.2501 112.41 75.3667 112.448 75.5926C112.32 75.6454 109.812 75.7583 108.742 75.7734L108.719 75.7357ZM94.785 70.8172C93.7003 69.0999 93.8208 66.9984 93.9489 65.1455C94.913 52.0697 98.4004 44.8087 98.4155 44.7635C99.2039 45.0012 100.045 45.0012 100.833 44.7635C101.074 45.0874 106.392 47.9421 113.638 45.69C112.681 49.5841 113.962 54.367 117.562 57.7866C118.564 58.7281 119.89 59.9107 121.328 59.7826C121.441 59.7826 121.788 68.2488 121.404 69.2129C121.285 69.6777 121.054 70.1061 120.731 70.4607C120.408 70.8153 120.002 71.0852 119.551 71.2466C110.723 73.8678 96.2311 73.0995 94.8075 70.8549L94.785 70.8172ZM115.31 123.753C114.809 123.718 114.305 123.718 113.804 123.753C113.804 123.701 113.623 122.902 113.6 122.774H115.385C115.395 123.114 115.377 123.454 115.333 123.791L115.31 123.753ZM115.837 75.2311C114.79 75.3893 113.713 75.5022 112.644 75.5776V73.0694C113.585 72.9564 115.619 72.6476 115.694 72.6476C116.084 73.4677 116.143 74.4061 115.86 75.2688L115.837 75.2311ZM119.167 74.5231C119.023 74.5758 116.967 75.0654 116.056 75.2085C116.206 74.7716 116.493 73.3932 115.95 72.6099C116.862 72.4668 118.654 71.9772 118.677 71.9621C119.074 72.2527 119.347 72.6822 119.442 73.1651C119.537 73.648 119.447 74.149 119.189 74.5683L119.167 74.5231ZM119.008 71.8717C119.645 71.6325 120.24 71.2944 120.771 70.87C120.951 70.9871 121.105 71.1389 121.226 71.3166C121.346 71.4943 121.43 71.6943 121.472 71.9047C121.514 72.1152 121.514 72.332 121.471 72.5423C121.428 72.7527 121.344 72.9523 121.223 73.1296C120.819 73.7406 120.218 74.1951 119.521 74.4176C119.745 74.0001 119.817 73.5172 119.724 73.0523C119.63 72.5874 119.377 72.1698 119.008 71.8717Z" fill="black"/>
</g>
</g>
</svg>
