<svg width="151" height="151" viewBox="0 0 151 151" fill="none" xmlns="http://www.w3.org/2000/svg">
<g id="Finding-1--Streamline-Milano">
<g id="Finding-1--Streamline-Milano.svg">
<path id="Vector" fill-rule="evenodd" clip-rule="evenodd" d="M85.6027 67.036C85.2938 64.8216 85.4897 65.3338 85.2035 64.8216C88.3745 64.6032 91.5681 62.7728 93.8052 60.4981C102.844 51.339 97.737 38.6549 88.0732 38.6549C83.9531 38.6549 80.1569 41.0124 77.6939 44.5375C76.9934 44.0102 74.1538 41.9389 73.4458 41.4568C73.973 41.0124 74.0408 40.9672 74.199 40.8166C74.5267 41.0455 74.8874 41.2233 75.2685 41.3438C75.9879 41.6612 76.7718 41.8047 77.557 41.7628C78.3421 41.721 79.1063 41.4949 79.7878 41.1028C80.7026 40.4968 81.5011 39.7314 82.1454 38.8432C82.8526 37.7896 83.5062 36.7011 84.1038 35.5817C84.6361 34.6038 85.0459 33.5641 85.324 32.486C86.3935 32.1019 87.9979 31.3637 88.4875 30.3092C88.8302 30.3144 89.1728 30.2918 89.5119 30.2414C89.7723 30.204 90.0184 30.099 90.2257 29.9368C90.433 29.7747 90.5942 29.5611 90.6932 29.3173C90.7922 29.0735 90.8257 28.808 90.7902 28.5473C90.7548 28.2865 90.6516 28.0396 90.491 27.8311C89.6022 26.2042 87.8924 25.7598 86.0471 25.4585V25.3606C86.1297 23.1445 85.9833 20.9258 85.6102 18.7398C84.6913 17.1053 75.2685 17.8586 72.6549 18.9206C71.4196 19.4252 71.4874 19.8169 71.2765 20.5852C71.0656 21.3535 70.2521 24.5396 70.2747 25.6092C68.6779 25.9029 67.3748 26.2268 66.3655 27.2436C65.0926 28.5241 65.9513 29.6916 67.4276 29.9025C67.8873 29.9584 68.3508 29.976 68.8135 29.9552C68.8216 30.5747 68.8846 31.1922 69.0018 31.8006C68.7735 32.0592 68.6074 32.3666 68.5163 32.6993C68.4252 33.032 68.4115 33.3812 68.4762 33.72C68.5409 34.0588 68.6824 34.3783 68.8897 34.654C69.0969 34.9297 69.3646 35.1543 69.6721 35.3106C67.9473 36.817 67.533 37.0279 67.4577 37.284C66.6084 37.0881 65.7193 37.1591 64.9118 37.4874C63.2504 37.2554 61.5704 37.1848 59.8954 37.2765C60.6486 39.1746 61.4018 41.0426 62.4187 42.9934C62.8405 43.8596 64.1887 46.4431 64.5955 46.9779C64.7068 47.1333 64.8538 47.2596 65.0243 47.3462C65.1947 47.4327 65.3835 47.4769 65.5746 47.475C66.2074 47.5293 66.8363 47.6224 67.4577 47.7537C67.8117 47.8516 67.9473 48.0173 67.8343 48.4241C67.558 49.0415 67.1078 49.5649 66.5388 49.9305C66.3485 50.0922 66.1385 50.2289 65.9136 50.3372C66.1374 51.0486 66.417 51.7412 66.7497 52.4086C67.383 54.9883 68.16 57.5306 69.0771 60.0236C69.3332 60.6789 69.514 61.289 69.7475 61.9669C70.1596 59.1412 70.238 56.2769 69.981 53.433C70.1688 53.0091 70.3298 52.5739 70.463 52.1299C70.6585 51.5951 70.7727 51.034 70.802 50.4653C71.6456 50.5331 72.0222 50.4653 72.4214 50.518C71.7284 54.0355 70.9149 58.1255 70.2069 61.6731C71.8864 58.992 73.4275 56.2266 74.8241 53.3878C74.8241 53.8548 74.8241 54.3142 74.8693 54.7812C74.3781 55.7722 73.8324 56.7353 73.2349 57.666C73.1294 57.7188 70.4781 62.2305 70.1165 62.1251C70.0262 62.5619 69.9358 62.9988 69.8529 63.4131C70.583 63.6464 71.2555 64.0314 71.8263 64.5429C72.4816 65.1229 72.9788 65.4016 72.9486 66.1924C73.9805 66.0343 73.9579 66.328 74.3647 65.7932C74.6208 65.4694 75.6451 64.8065 75.954 65.04C75.954 65.1681 74.3647 66.1473 75.5774 66.8176C76.79 67.488 78.1232 66.908 77.4303 67.5708C76.7222 67.97 77.0009 67.6612 75.5774 67.8495C74.7036 67.9625 75.7883 68.5575 76.7298 68.4446C76.8126 68.4446 77.483 68.2261 77.6939 68.7308C77.6939 69.1676 76.7524 69.2731 76.2854 69.2731C73.2725 69.2731 75.6979 70.2523 77.0386 69.8531C77.5056 70.2372 77.3324 70.531 76.8729 70.7117C76.2672 70.9146 75.6264 70.9915 74.9898 70.9377C73.9959 70.9527 73.0077 70.7841 72.0749 70.4406C71.9695 70.7494 71.8715 70.9603 71.638 71.0281C70.5231 71.1853 69.3957 71.2358 68.2712 71.1787C67.7816 73.8903 67.2242 78.3117 67.5179 78.3946C70.5308 79.2683 74.0182 77.6413 75.3891 76.7224C76.4597 77.9258 77.3664 79.2656 78.0856 80.7069C78.9034 82.3883 79.5276 84.1571 79.946 85.9794C81.4524 93.376 72.4138 101.338 65.8157 108.214C65.183 108.877 56.0239 118.458 55.1878 118.97C53.5684 118.97 50.8643 118.33 50.9171 118.149C51.3615 116.718 53.6512 111.144 54.54 108.953C59.9632 95.5076 59.6242 96.7354 59.4359 96.4491C58.0507 94.4096 56.9579 92.1861 56.1896 89.8434C58.1487 87.0624 59.5316 83.9175 60.2569 80.5939C60.7013 80.5939 64.2565 80.3981 64.4524 80.2851C64.6482 80.1721 64.5427 80.8726 67.5707 71.2465C64.136 71.126 59.1798 70.5686 55.1878 68.9116C53.9896 68.4387 52.8677 67.7915 51.8586 66.9909C48.6348 63.624 48.1678 53.9451 48.4239 49.3355C48.4239 49.0568 48.4239 49.1396 48.5746 48.9815C48.8909 49.3279 48.4766 49.117 48.8005 53.9226C49.1244 58.7281 49.7948 65.4392 54.0052 67.6461C58.7128 70.1092 67.5631 70.9151 71.3292 70.5008C71.8361 69.047 72.1649 67.5371 72.3084 66.0041C72.3084 65.7631 71.2388 64.8818 71.0355 64.7463C68.3239 62.8331 65.763 64.2416 65.537 63.3754C65.4693 63.0329 65.4315 62.6851 65.424 62.336C65.2583 57.9221 63.7443 51.9717 62.6145 49.7121C61.9893 48.4241 62.4337 48.8007 62.5693 49.0266C64.1737 51.6328 65.4391 57.6284 65.8684 60.3249C66.0115 61.2287 65.9136 62.2531 66.0642 63.0892C67.224 62.9667 68.3962 63.0457 69.529 63.3227C69.5893 62.9762 69.642 62.6222 69.6947 62.2607C69.4612 62.1778 69.6947 62.3736 68.354 59.293C67.4805 57.0926 66.741 54.8414 66.1396 52.5517C65.9287 51.9115 65.1001 50.6762 65.2734 50.0209C65.3788 49.7196 65.6274 49.7422 66.3354 49.1622C66.6584 48.9385 66.9326 48.6515 67.1413 48.3186C66.6819 48.2132 65.3562 48.0776 65.2809 48.0625C64.2942 47.8968 64.008 47.3093 63.5334 46.4205C61.9067 43.5059 60.5841 40.4316 59.5866 37.2463C53.9633 37.6096 48.5997 39.7455 44.2662 43.3474C38.4137 48.281 34.979 52.966 31.7402 59.8654C31.356 60.6789 29.1114 64.7463 29.3299 65.6125C29.5031 66.313 32.2674 68.3768 32.8022 68.7609C32.7355 68.9259 32.6777 69.0944 32.629 69.2656C29.3148 79.5696 33.1261 87.5386 32.629 87.8474C31.8758 88.8944 17.3613 100.697 6.40951 113.457C6.22874 113.66 5.97265 113.871 6.18355 114.142C5.18718 115.164 4.38116 116.355 3.80339 117.66C3.66781 118.194 3.96156 118.353 4.5566 118.699C5.80694 119.415 14.6648 123.121 15.5988 122.043C16.1712 121.245 14.8455 120.198 14.0923 119.558C13.6479 119.166 11.7498 117.599 10.7706 116.891C15.1092 115.242 14.9209 115.061 20.8562 112.124C25.3378 109.864 32.1544 106.286 32.2448 106.286C41.0424 101.812 50.4275 97.7145 55.941 90.2125C56.6823 92.5219 57.7311 94.721 59.0593 96.7504C56.9353 101.714 53.365 110.082 51.3765 115.099C50.1262 118.262 50.0584 118.405 50.3371 118.677C49.9328 119.473 49.6268 120.315 49.4257 121.185C48.9436 122.864 49.3052 123.271 50.4049 123.588C52.1297 123.934 60.3021 125.154 61.5449 124.544C61.6401 124.512 61.7279 124.461 61.8032 124.395C61.8784 124.328 61.9396 124.247 61.9831 124.157C62.0266 124.066 62.0516 123.968 62.0566 123.867C62.0615 123.767 62.0463 123.667 62.0119 123.572C61.8086 123.008 60.9348 122.608 60.3775 122.322C60.2419 122.322 56.9428 120.319 55.5945 119.528C57.1688 118.36 73.2424 101.533 75.7657 98.4376C79.125 94.2874 81.5504 90.2728 80.2322 85.4823C79.4557 82.1832 77.854 79.1353 75.5774 76.6245C75.7958 76.4663 75.9238 76.3383 75.9314 76.2705C76.0594 75.2612 75.1782 71.5327 75.3288 71.7512C75.9389 73.0241 81.1888 76.3383 86.4839 78.4397C89.9638 94.6941 95.3794 114.398 96.1929 118.466L96.3134 118.631C97.0666 118.759 96.9913 119.445 92.5473 99.9215C90.6869 91.8922 86.6873 74.7716 85.6027 67.036ZM72.1201 19.9902C73.1897 18.5214 84.5557 17.8887 85.1507 19.0411C85.1507 18.8001 85.9793 23.7412 85.8512 25.3305V25.4133C80.777 24.7322 75.6321 24.7702 70.5685 25.5263C70.976 23.6519 71.4941 21.8033 72.1201 19.9902ZM68.8361 29.6238C67.887 29.6238 66.7647 29.556 66.3128 28.8706C65.7554 27.9818 67.3673 26.9423 68.467 26.6109C72.5871 25.4359 86.0245 24.984 89.1126 27.0026C90.4458 27.8688 91.0108 29.3903 89.6399 29.895C89.3164 29.9756 88.9861 30.0261 88.6532 30.0456C88.7741 29.7704 88.7826 29.4589 88.6771 29.1775C88.5716 28.8961 88.3603 28.667 88.0883 28.5392C87.32 27.9897 86.453 27.5934 85.5349 27.3717C80.8499 26.1515 72.4214 27.4395 72.3461 27.447C70.5157 27.6353 69.0545 27.7859 68.8361 29.6238ZM70.4178 34.949C70.2597 34.8135 70.1391 34.9038 69.8228 34.7231C67.9096 33.646 69.3859 30.957 71.2614 31.2658C73.1821 31.906 71.864 34.6176 73.3629 33.3522C73.6983 33.0738 73.9925 32.7492 74.2366 32.3881C75.3213 30.8817 75.5322 30.8817 76.2176 29.1267C77.0778 30.5259 78.3443 31.6295 79.8481 32.2902C81.4749 33.0695 83.3403 33.1883 85.0528 32.6216C84.7402 33.5939 84.3208 34.5285 83.8025 35.4085C82.7178 37.3217 81.3922 39.4834 79.5317 40.6132C78.762 41.0115 77.8985 41.1932 77.0335 41.1388C76.1685 41.0844 75.3346 40.796 74.6208 40.3044C74.0935 39.9881 73.9278 40.199 72.7377 41.2233C72.3913 41.5246 72.6247 41.2233 71.9243 44.3793C71.4799 43.5658 69.2579 39.4533 68.1582 37.4196C70.7342 35.175 70.5986 35.303 70.4178 34.949ZM69.0545 47.6332C68.6127 45.6825 68.0517 43.7607 67.3748 41.8786C66.8002 40.518 66.1359 39.1969 65.3863 37.9242C66.1192 37.8975 66.8469 37.7888 67.5556 37.6004C67.6535 37.8113 67.8644 38.1954 68.3088 38.9637C70.5685 43.0913 71.3217 44.6053 71.623 45.1852C70.7204 45.9511 69.8628 46.7684 69.0545 47.6332ZM69.8077 51.9265C69.6357 50.6251 69.4121 49.3311 69.1374 48.0475C69.2955 47.9119 69.5064 47.7462 69.6721 47.6181C69.7586 48.5561 69.9872 49.4755 70.35 50.3448C70.5534 50.5632 70.4555 50.1188 69.8153 51.9265H69.8077ZM72.4666 50.2695C71.9544 50.0523 71.4144 49.9078 70.8622 49.8401C70.6233 49.0088 70.2897 48.2076 69.868 47.4524C71.8866 45.946 71.3744 46.2699 71.8113 45.8556C71.8113 45.9385 71.6832 45.5619 72.4741 47.4524C72.7603 48.1454 72.7227 48.055 72.8884 48.1379C72.7603 48.8308 72.6172 49.5388 72.4741 50.2695H72.4666ZM72.9486 47.829C72.8611 46.9973 72.6451 46.1842 72.3084 45.4187C72.6603 44.3009 72.9124 43.154 73.0616 41.9916C73.3006 42.2717 73.6026 42.4911 73.9429 42.6318C73.8148 43.3549 73.4684 45.2304 72.9562 47.829H72.9486ZM72.6549 73.3329C72.5121 73.3574 72.3658 73.3521 72.2252 73.3171C72.0846 73.2822 71.9528 73.2185 71.8382 73.13C71.7235 73.0415 71.6284 72.9301 71.5589 72.803C71.4895 72.6759 71.4472 72.5357 71.4347 72.3914C71.6854 71.886 71.9776 71.4023 72.3084 70.9452C72.9268 71.1796 73.568 71.3487 74.2216 71.4499C73.7978 72.1512 73.2724 72.7858 72.6624 73.3329H72.6549ZM13.5575 119.859C14.0471 120.326 15.1092 121.237 15.064 121.652C13.1131 121.652 4.24025 118.232 4.27038 117.886C4.3231 117.223 5.77681 115.039 6.37938 114.353C11.4937 117.818 10.1982 116.635 13.5575 119.859ZM31.9134 105.721C31.8381 105.721 15.2071 114.346 13.3542 115.144C12.488 115.521 11.4109 115.942 10.5522 116.266C10.4317 116.311 10.8535 116.56 6.8991 113.879C19.3874 99.3566 33.0282 88.932 33.096 87.8926C33.1863 86.3862 29.8044 78.7712 32.998 68.9266C39.5134 73.5664 52.3482 80.3153 59.9557 80.5939C56.4909 94.4606 45.0646 99.1155 31.9435 105.721H31.9134ZM61.334 123.919C61.1905 123.987 61.0336 124.023 60.8746 124.024C60.1891 124.07 49.486 123.964 49.6968 121.991C49.7832 121.455 49.8989 120.924 50.0433 120.401C50.1156 119.857 50.2812 119.33 50.5329 118.842C52.046 119.417 53.6521 119.708 55.2706 119.701C60.9273 123.527 61.7106 123.678 61.3642 123.919H61.334ZM74.6735 47.9345C74.8392 47.3018 76.2402 46.1117 77.257 45.2078C77.0009 45.607 76.7674 46.0213 76.549 46.4506C76.0394 46.9265 75.596 47.4686 75.2309 48.0625C75.3706 48.2043 75.537 48.3169 75.7205 48.3939C75.6527 48.5898 75.5849 48.7856 75.5246 48.9815C74.9898 48.7103 74.568 48.3713 74.6735 47.9345ZM77.4905 66.6067C74.1161 66.215 76.7373 66.1171 76.5189 64.9948C76.5002 64.8957 76.4531 64.8041 76.3833 64.7312C77.1365 63.624 77.6864 62.7804 77.8897 62.5469L79.3962 63.7219C79.1702 64.0232 78.4245 65.1756 77.4905 66.6067ZM75.6753 57.1463C73.6039 47.6784 80.6842 39.3855 87.9979 39.3252C94.9124 39.2725 99.9288 46.3678 96.8708 54.495C92.6452 65.6803 78.1835 68.6329 75.6753 57.1463Z" fill="black"/>
<path id="Vector_2" fill-rule="evenodd" clip-rule="evenodd" d="M78.0937 34.6479C78.169 34.4746 78.2217 34.3014 78.3046 34.083C78.3216 34.0027 78.309 33.9189 78.269 33.8473C78.229 33.7756 78.1643 33.7209 78.087 33.6933C78.0097 33.6657 77.9251 33.6671 77.8487 33.6972C77.7724 33.7273 77.7095 33.7841 77.6719 33.857C77.6719 33.9022 77.5363 34.2411 77.476 34.3842C77.4545 34.4632 77.4622 34.5474 77.4979 34.6211C77.5335 34.6948 77.5947 34.7531 77.67 34.7852C77.7453 34.8174 77.8297 34.8212 77.9076 34.7959C77.9854 34.7707 78.0516 34.7181 78.0937 34.6479ZM82.6958 35.8681C83.0574 35.8681 83.0272 35.4689 83.1478 35.2429C83.1764 35.2034 83.1962 35.1583 83.2057 35.1104C83.2153 35.0626 83.2145 35.0133 83.2032 34.9659C83.192 34.9184 83.1707 34.874 83.1407 34.8355C83.1107 34.797 83.0728 34.7655 83.0295 34.7431C82.9862 34.7206 82.9386 34.7077 82.8899 34.7054C82.8412 34.703 82.7926 34.7111 82.7473 34.7293C82.7021 34.7474 82.6613 34.7751 82.6277 34.8104C82.5941 34.8458 82.5685 34.888 82.5527 34.9341C82.4842 35.0933 82.4263 35.2568 82.3795 35.4237C82.3612 35.4741 82.3554 35.5282 82.3626 35.5814C82.3699 35.6346 82.3899 35.6852 82.421 35.7289C82.4522 35.7726 82.4934 35.8081 82.5413 35.8323C82.5891 35.8566 82.6422 35.8689 82.6958 35.8681ZM79.0879 38.2407C79.531 38.3744 80.0075 38.3422 80.4287 38.1503C80.5487 38.075 80.635 37.9563 80.6697 37.8189C80.828 37.3024 80.9414 36.7732 81.0086 36.2372C81.0915 35.5668 81.0086 35.5894 81.0764 35.1073C80.986 34.8889 81.0764 34.9115 80.8279 35.0094C80.2554 35.9133 80.2102 37.5628 79.9617 37.6833C79.7787 37.7678 79.5866 37.8309 79.3892 37.8716C78.5983 38.0825 79.0277 38.2181 79.0879 38.2407ZM79.6378 39.604C79.8637 39.1521 79.2536 38.8508 78.6737 38.8508C78.3455 38.8348 78.0178 38.8905 77.7134 39.0141C77.409 39.1377 77.1352 39.3261 76.9111 39.5664C77.1823 39.7848 76.9111 39.6869 78.4176 39.5664C78.8241 39.5228 79.2347 39.5355 79.6378 39.604ZM100.442 52.1375L99.9445 52.2807L99.7035 52.7326C99.8164 53.1318 142.795 101.586 142.87 101.571C143.623 100.178 105.917 58.2311 103.974 56.0091C100.261 51.7609 101.157 52.5292 100.442 52.1375ZM92.578 74.8169C92.7211 75.7358 96.9316 91.2671 97.3986 91.3876C98.0313 91.1014 93.8359 74.4855 93.6325 74.139C93.1354 74.026 92.7588 73.8151 92.578 74.8169ZM110.444 80.7146C110.821 81.4678 113.909 87.3127 114.768 87.1922C114.971 86.8759 114.979 87.1922 113.751 84.6614C113.713 84.5861 111.8 80.6468 111.649 80.1421C110.602 79.1403 110.301 80.4208 110.444 80.7146ZM122.827 89.8812C123.031 89.836 108.689 65.9063 107.349 66.2528C107.025 66.8027 107.055 66.5767 107.213 67.1868C107.424 67.1868 110.648 72.5045 110.715 72.6175C112.983 76.2254 122.082 89.4217 122.827 89.8812ZM124.62 102.882C123.437 102.55 110.859 103.198 108.87 103.635C108.584 103.703 108.471 103.861 108.237 104.2C107.31 105.593 106.496 107.059 105.805 108.584C105.85 108.666 116.47 122.33 116.96 122.488C117.713 122.729 126.661 109.683 127.203 108.794C127.957 107.582 127.994 107.491 127.746 107.039C127.497 106.588 125.132 103.13 124.62 102.882ZM124.168 103.462C123.949 103.808 123.415 104.644 121.953 106.753C121.639 107.231 121.289 107.684 120.906 108.109C120.854 108.034 120.778 107.981 119.965 107.002C118.233 104.9 117.494 103.989 117.14 103.56C120.244 103.462 123.241 103.409 124.168 103.462ZM120.402 108.456C117.987 108.656 115.562 108.709 113.141 108.614C114.045 107.778 115.657 105.367 116.688 104.094C116.749 104.132 119.453 107.439 120.387 108.463L120.402 108.456ZM112.719 108.214C112.719 108.214 112.719 108.252 112.674 108.214C111.635 106.731 110.484 105.328 109.232 104.019C110.279 103.861 113.194 103.71 116.206 103.605C115.581 104.358 113.337 107.604 112.704 108.214H112.719ZM117.08 121.772C115.634 120.176 106.535 109.013 106.106 108.553C106.837 107.164 107.644 105.816 108.524 104.516C108.626 104.363 108.744 104.221 108.878 104.094C110.038 105.096 111.062 106.957 112.237 108.614C106.271 108.373 107.025 108.327 106.784 108.538C106.98 108.764 106.595 108.651 109.089 108.938C114.82 109.71 120.643 109.455 126.284 108.184L126.405 108.034C126.141 107.838 126.751 107.868 121.479 108.358C122.584 106.818 123.59 105.211 124.492 103.545C125.498 104.787 126.424 106.093 127.264 107.454C126.736 108.772 118.865 119.452 117.065 121.757L117.08 121.772Z" fill="black"/>
<path id="Vector_3" fill-rule="evenodd" clip-rule="evenodd" d="M113.48 109.97L113.292 109.917L113.247 110.105C113.555 110.7 115.951 119.618 116.636 119.98C116.749 119.761 116.749 119.927 116.583 119.227C116.094 117.08 114.625 111.642 113.48 109.97ZM120.771 109.97C117.08 118.963 116.824 122.111 117.894 119.332C119.111 116.3 120.157 113.202 121.027 110.052L120.937 109.879L120.771 109.97ZM110.143 123.362C110.143 123.324 104.185 115.95 104.065 115.905C102.939 116.213 101.836 116.6 100.766 117.065C98.8978 118.571 99.0107 118.662 98.9957 118.571C98.8676 118.722 97.9562 121.863 97.9261 122.013C97.896 122.164 98.6115 124.205 98.6793 124.273C98.7471 124.341 100.442 126.804 100.517 126.857C100.592 126.909 100.517 126.94 102.513 126.307C102.912 126.179 109.759 123.972 110.098 123.731C110.141 123.68 110.168 123.619 110.176 123.553C110.184 123.487 110.173 123.421 110.143 123.362ZM107.884 121.577C107.296 121.049 105.692 119.709 105.067 119.317C104.939 118.782 104.675 117.863 104.464 117.155C105.134 118.089 106.656 120.055 107.846 121.577H107.884ZM103.944 116.402C104.163 117.908 104.306 118.662 104.396 119.091C103.605 119.008 102.28 119.008 101.858 119.001C101.617 118.4 101.345 117.812 101.044 117.238C101.218 117.17 101.805 116.937 103.944 116.402ZM104.396 119.769C104.396 119.769 103.929 121.682 103.417 123.693L101.112 122.661C101.293 121.983 101.73 119.957 101.865 119.302C102.792 119.49 104.276 119.761 104.359 119.761L104.396 119.769ZM98.6191 122.029C99.6058 118.36 99.297 119.016 99.6284 118.632C99.9598 118.247 100.562 117.63 100.834 117.389C101.361 118.933 101.233 118.594 101.413 119.076C100.705 121.486 100.495 122.413 100.472 122.488C99.9447 122.91 99.4024 123.332 99.1388 123.55L98.6191 122.029ZM99.2894 124.288C99.6811 123.987 100.675 123.189 100.969 122.932C101.642 123.402 102.347 123.825 103.078 124.198C102.784 124.454 102.039 125.132 100.721 126.382C99.8167 125.185 99.425 124.597 99.2518 124.281L99.2894 124.288ZM101.775 125.983C102.528 125.433 103.417 124.74 103.794 124.416C104.472 124.416 106.053 124.251 107.13 124.1C105.375 124.71 103.071 125.516 101.737 125.998L101.775 125.983ZM104.072 123.723C104.359 122.744 104.826 120.869 105.059 120.063C109.812 124.032 108.885 122.819 109.307 123.324C109.27 123.347 105.729 123.565 104.035 123.746L104.072 123.723ZM136.446 118.564C136.559 118.564 133.975 117.404 133.787 117.344C133.598 117.283 133.787 117.344 132.559 117.524C131.534 117.869 130.543 118.308 129.599 118.835C129.305 118.684 131.03 126.307 131.015 126.367C131.075 126.623 131.181 126.781 131.459 126.736C131.535 126.736 137.982 122.97 138.073 122.789C137.951 121.893 137.755 121.009 137.485 120.146C137.168 119.599 136.821 119.071 136.446 118.564ZM133.674 117.991C136.536 119.144 135.986 118.745 136.333 119.166C136.4 119.272 136.37 119.166 137.033 119.995C137.169 120.161 137.259 119.995 135.76 120.326C134.525 119.784 134.419 119.724 133.162 119.234C133.018 118.993 132.559 118.262 132.529 118.21L133.674 117.991ZM135.504 120.741C135.323 121.23 134.947 122.443 134.901 122.586C133.907 122.164 132.747 121.697 131.979 121.396C132.228 120.982 132.732 120.206 132.936 119.844C133.779 120.161 135.014 120.59 135.504 120.741ZM130.329 120.236C130.623 120.756 130.955 121.328 131.173 121.652C130.932 123.866 131.482 125.222 130.307 120.236H130.329ZM130.043 119.099C130.149 119.038 131.226 118.511 131.761 118.247C131.836 118.383 132.619 119.611 132.657 119.656C132.239 120.079 131.849 120.53 131.489 121.004C131.437 120.921 130.119 119.144 130.043 119.099ZM131.55 125.877C131.768 123.098 131.678 124.906 131.783 122.006C132.491 122.307 133.749 122.827 134.427 123.091C133.41 123.953 132.46 124.892 131.587 125.9L131.55 125.877ZM135.233 123.211C135.602 123.173 136.167 123.091 136.739 123C132.182 125.418 133.734 124.906 135.271 123.234L135.233 123.211ZM135.504 122.578C135.627 121.974 135.718 121.363 135.775 120.748C136.084 120.68 136.867 120.454 137.236 120.319C137.349 120.936 137.583 122.488 137.568 122.578C137.033 122.586 136.205 122.578 135.579 122.601L135.504 122.578ZM124.07 127.572C123.197 128.265 122.36 129.001 121.562 129.779C121.359 130.013 121.517 130.163 121.675 130.374C123.626 132.995 123.483 132.784 123.633 132.837C123.784 132.89 123.859 132.837 124.07 132.694C124.925 132.192 125.741 131.625 126.511 130.999C126.729 130.788 126.759 130.638 126.714 130.48C126.541 129.854 124.198 127.625 124.07 127.572ZM123.799 132.092L122.165 130.013C122.858 129.259 123.814 128.205 124.025 127.926C124.752 128.765 125.433 129.643 126.066 130.555C125.337 131.101 124.58 131.608 123.799 132.076V132.092ZM112.704 127.045C111.759 127.565 110.891 128.217 110.128 128.981C109.819 129.305 109.593 129.568 109.91 129.892C110.226 130.216 110.301 130.118 111.416 130.442C112.855 130.879 112.456 130.683 112.591 130.743C112.99 130.811 113.631 131.06 113.698 130.465C113.639 129.666 113.484 128.877 113.239 128.115C112.915 127.135 112.9 126.94 112.704 127.045ZM111.574 129.802C110.701 129.531 110.437 129.5 110.512 129.5C111.175 128.745 111.898 128.045 112.674 127.407C112.772 128.047 112.975 129.561 113.013 130.171C112.938 130.156 112.079 129.96 111.574 129.802ZM146.35 124.627C145.442 124.228 144.505 123.895 143.548 123.633C143.089 123.49 143.338 125.983 143.413 126.382C143.488 126.781 143.533 127.399 143.797 127.587C143.896 127.637 144.007 127.658 144.117 127.649C144.227 127.639 144.333 127.6 144.422 127.535C144.497 127.535 146.96 125.621 146.87 125.094C146.817 124.868 146.576 124.74 146.35 124.627ZM144.159 126.887C143.89 125.918 143.711 124.928 143.624 123.927C144.465 124.307 145.285 124.735 146.079 125.207C145.251 126.006 144.008 127.083 144.159 126.924V126.887ZM91.0794 125.787C90.8383 125.787 88.0665 127.497 87.6974 128.25C87.5619 128.604 87.833 128.747 88.2548 129.041C88.9987 129.594 89.7991 130.066 90.6425 130.45C90.9513 130.578 91.1999 130.63 91.8477 130.231C92.7225 129.663 93.5028 128.962 94.16 128.152C94.1935 128.099 94.2113 128.038 94.2113 127.975C94.2113 127.913 94.1935 127.851 94.16 127.798C93.8211 127.294 91.23 125.862 91.0794 125.787ZM91.0191 129.87C90.0944 129.429 89.201 128.926 88.3452 128.363C89.1671 127.52 90.0732 126.762 91.0492 126.103C91.9381 126.652 92.7662 127.293 93.5198 128.017C92.7967 128.779 91.9515 129.415 91.0191 129.9V129.87ZM95.1241 49.9834C95.0564 45.9085 92.1113 42.3383 87.8782 42.3307C83.5171 42.3307 79.4798 46.2098 78.5308 50.6688C77.8454 53.8625 78.1692 57.6361 80.7377 59.7074C86.3868 64.1815 95.2522 57.4704 95.1241 49.9834ZM81.2951 59.7752C78.4705 57.9073 78.2144 53.4859 79.2237 50.1115C79.9954 47.6822 81.5947 45.6005 83.743 44.2289C89.7688 40.523 95.8924 45.8181 94.0922 52.5142C92.518 58.5701 85.8219 62.7504 81.2951 59.7602V59.7752Z" fill="black"/>
<path id="Vector_4" fill-rule="evenodd" clip-rule="evenodd" d="M92.1334 46.4205C91.3801 45.4112 90.6269 46.6691 91.1391 47.3244C92.2463 48.8308 91.7266 53.1241 90.8152 54.028C90.7248 54.2615 90.7248 54.1711 90.8152 54.4046C91.0337 54.5025 90.9433 54.5025 91.1918 54.4046C91.4209 54.2199 91.6149 53.9953 91.7643 53.7418C92.6949 52.1283 93.0879 50.2606 92.8866 48.409C92.8229 47.6896 92.5623 47.0016 92.1334 46.4205Z" fill="black"/>
</g>
</g>
</svg>
