<svg width="151" height="151" viewBox="0 0 151 151" fill="none" xmlns="http://www.w3.org/2000/svg">
<g id="I-Have-Question-1--Streamline-Milano">
<g id="I-Have-Question-1--Streamline-Milano.svg">
<path id="Vector" d="M102.204 86.6196C99.2668 79.1929 96.5627 76.2177 90.311 71.5025C89.5969 71.0229 88.8406 70.6095 88.0514 70.2672C88.0514 68.0829 92.0058 66.6292 92.405 65.5446C92.8042 64.4599 91.6517 63.2021 90.3863 63.3452C91.3053 62.5468 92.0434 61.4622 91.3655 60.4528C90.8383 59.6544 89.7838 59.6996 88.8573 59.9858C89.4072 59.2326 89.7386 58.5472 89.2641 57.7789C89.0989 57.5204 88.8778 57.3022 88.6171 57.1406C88.3563 56.9789 88.0626 56.8779 87.7576 56.8449C87.0044 56.7169 84.7975 58.2459 83.0575 59.6846C84.9557 57.2592 86.3642 54.1635 86.0026 51.1356C85.5925 48.3293 84.9192 45.5679 83.9915 42.8878C84.9782 42.1346 85.1063 41.05 84.8803 39.8298C84.6311 38.4522 84.0436 37.1581 83.1705 36.0637C82.9822 35.8905 82.8466 35.8377 82.4173 35.9432C82.2139 36.0034 81.8599 36.1315 81.4381 36.3047C80.9937 35.2715 80.5241 34.2494 80.0296 33.2391C80.4865 32.9907 80.849 32.599 81.0615 32.1244C81.8994 30.6756 82.49 29.0973 82.809 27.4544C83.05 25.7974 82.7487 23.3118 81.521 22.1819C80.8506 21.5417 79.8112 21.2103 79.2613 20.5023C77.2503 17.9564 75.1036 16.0733 71.8949 16.6006C70.042 16.9094 68.9649 18.0618 67.3756 18.8602C65.8222 19.5397 64.1636 19.9474 62.4722 20.0654C57.629 20.1708 52.3188 20.0654 48.9971 23.5829C45.4118 27.349 44.1389 32.4935 44.4778 37.653C44.5908 39.2347 45.3741 40.4248 45.6604 41.8409C45.8035 42.5188 45.1858 43.1967 45.0578 43.9197C44.636 46.2848 45.811 49.4785 47.1819 51.3992C48.4548 53.1466 50.1947 53.0638 51.7765 53.8321C53.0118 54.4271 53.539 55.7452 55.1434 56.28C55.6653 56.453 56.2257 56.4741 56.7591 56.3407C57.2926 56.2074 57.7771 55.9251 58.1562 55.5268C58.096 57.1161 57.9378 61.3416 57.8625 63.5034C57.4934 63.4356 54.2998 65.183 53.9683 65.3638C53.8598 65.2666 53.722 65.2083 53.5767 65.1981C30.3324 69.2429 20.292 98.2794 19.0794 121.689C18.9363 124.529 18.3939 142.779 20.3071 143.706C20.3381 143.721 20.3737 143.723 20.4062 143.712C20.4387 143.7 20.4654 143.677 20.4803 143.646C20.4953 143.615 20.4974 143.579 20.4861 143.546C20.4748 143.514 20.4511 143.487 20.4201 143.472C18.8308 142.531 19.5238 123.527 19.6367 121.622C20.9549 98.9799 30.4077 70.9602 52.9741 65.8835C51.2794 66.9079 49.8181 68.0001 49.901 68.6629C50.014 69.5517 62.5324 79.5092 63.2254 80.0666C63.2932 80.2624 64.5586 83.6594 66.1177 88.5855C64.2874 90.0919 62.0202 92.1331 59.8359 94.2873C59.3162 86.8832 55.1434 74.6359 47.0312 72.4968C44.8996 71.9544 41.6307 72.4968 40.1318 74.0032C40.0037 74.1162 40.1845 74.312 40.3125 74.1915C41.7662 72.8357 44.9523 72.4666 46.8881 73.0315C50.4207 74.0333 53.057 77.0387 54.8873 80.2398C57.2871 84.7152 58.8517 89.5902 59.5045 94.6263C57.2571 96.7895 55.21 99.1517 53.3884 101.684C53.3764 101.713 53.3746 101.745 53.3833 101.774C53.3921 101.804 53.4109 101.83 53.4365 101.848C53.4621 101.865 53.493 101.874 53.524 101.871C53.555 101.869 53.5842 101.856 53.6068 101.835C57.3729 96.3285 67.8275 87.4104 69.8009 86.5292C71.3902 88.1034 79.5928 97.3002 80.6247 99.138C74.7948 110.316 66.193 125.214 53.6897 124.672C37.8721 124.009 33.3528 112.575 28.7055 104.81C28.6971 104.795 28.6858 104.782 28.6724 104.771C28.6589 104.761 28.6435 104.753 28.6271 104.749C28.6107 104.744 28.5935 104.743 28.5766 104.745C28.5596 104.747 28.5433 104.752 28.5285 104.761C28.5136 104.769 28.5006 104.78 28.4901 104.794C28.4796 104.807 28.4719 104.823 28.4673 104.839C28.4628 104.856 28.4615 104.873 28.4636 104.89C28.4657 104.907 28.4711 104.923 28.4795 104.938C30.8672 109.073 33.3679 114.73 38.0002 119.046C42.3989 123.135 47.6413 124.996 53.6595 125.282C58.6458 125.508 62.9994 123.399 66.8182 120.07C67.6091 121.057 70.0646 122.397 73.3411 123.761C74.0943 133.763 73.3411 140.655 72.5878 144.391C72.5844 144.408 72.5843 144.425 72.5875 144.442C72.5907 144.459 72.5973 144.475 72.6067 144.49C72.6161 144.504 72.6283 144.516 72.6425 144.526C72.6567 144.535 72.6727 144.542 72.6895 144.546C72.7063 144.549 72.7237 144.549 72.7405 144.546C72.7574 144.543 72.7735 144.536 72.7878 144.527C72.8021 144.517 72.8145 144.505 72.8241 144.491C72.8337 144.477 72.8405 144.461 72.8439 144.444C73.5972 140.723 74.4558 133.899 73.7855 123.949C75.7438 124.755 77.9733 125.561 80.2932 126.307C81.0465 142.124 82.0784 141.062 82.116 144.873C82.1231 144.903 82.14 144.929 82.1639 144.948C82.1879 144.967 82.2174 144.977 82.2478 144.977C82.2783 144.977 82.3078 144.967 82.3317 144.948C82.3557 144.929 82.3725 144.903 82.3797 144.873C82.4173 141.167 81.4909 142.877 80.9109 126.502C84.2321 127.567 87.6153 128.427 91.0416 129.078C93.7607 145.694 93.8059 145.498 94.0545 145.649C95.8547 146.515 97.3461 146.658 100.028 146.907C101.933 146.813 103.828 146.579 105.699 146.207C105.838 146.164 105.962 146.083 106.055 145.972C106.149 145.861 106.208 145.725 106.226 145.581C106.309 145.22 104.961 137.914 104.072 127.504C107.763 125.041 109.428 121.343 109.91 117.238C110.957 108.297 106.58 98.2643 104.946 93.3006C104.193 90.9581 103.086 88.8792 102.204 86.6196ZM87.735 57.4776C88.5786 57.6057 89.023 58.3137 88.8347 58.7882C87.9685 60.965 85.0084 61.6128 84.3154 62.8179C83.7925 63.7559 83.4285 64.7739 83.2383 65.8308C83.2319 65.8669 83.2326 65.9039 83.2405 65.9397C83.2484 65.9756 83.2632 66.0095 83.2842 66.0395C83.3052 66.0696 83.3319 66.0953 83.3628 66.115C83.3937 66.1348 83.4282 66.1483 83.4643 66.1547C83.5004 66.1611 83.5374 66.1604 83.5732 66.1525C83.609 66.1446 83.643 66.1298 83.673 66.1088C83.7031 66.0878 83.7287 66.0611 83.7485 66.0302C83.7683 65.9993 83.7817 65.9648 83.7882 65.9287C83.9736 64.9375 84.3142 63.9817 84.7975 63.0966C85.1138 62.5769 86.6052 61.786 87.1626 61.4697C87.4036 61.4697 88.8648 60.3173 90.2658 60.4453C90.391 60.4516 90.5132 60.4862 90.623 60.5465C90.7329 60.6068 90.8277 60.6913 90.9002 60.7935C90.9727 60.8957 91.0211 61.0131 91.0417 61.1368C91.0623 61.2604 91.0545 61.3871 91.019 61.5073C90.5897 63.0138 87.6522 64.2867 87.1249 64.8893C86.5247 65.4296 86.036 66.0821 85.6863 66.81C85.5533 67.1313 85.4499 67.4641 85.3775 67.8042C85.3715 67.8201 85.3688 67.8369 85.3693 67.8538C85.3699 67.8707 85.3738 67.8873 85.3808 67.9027C85.3878 67.9181 85.3978 67.9319 85.4101 67.9435C85.4224 67.955 85.437 67.964 85.4528 67.9699C85.4686 67.9759 85.4854 67.9786 85.5023 67.9781C85.5192 67.9775 85.5358 67.9736 85.5512 67.9666C85.5666 67.9596 85.5805 67.9496 85.592 67.9373C85.6036 67.9249 85.6125 67.9104 85.6185 67.8946C87.4262 64.6332 89.1511 64.2792 90.3713 63.9854C91.5915 63.6917 92.6309 65.0927 91.3354 65.8911C89.829 66.8175 88.4054 67.7967 87.6597 69.4538C87.2982 70.2522 87.7049 71.7134 87.9233 72.5872C88.2472 73.8827 88.541 75.8561 88.1116 77.1065C87.4488 79.0573 85.3097 82.1681 84.0744 83.7272C84.0744 83.7272 83.984 83.9682 83.8409 84.3599C82.8961 83.5265 81.7952 82.8889 80.6021 82.4844C80.9787 81.9496 81.182 81.4902 81.0841 81.2265C80.7075 80.2097 78.4253 79.0648 76.8812 78.643C77.1565 78.3042 77.4082 77.9468 77.6344 77.5734C77.6344 77.8898 77.5289 72.075 77.2201 69.2881C77.0243 67.518 75.8869 64.1135 77.431 63.6691C78.9751 63.2247 79.894 67.4352 80.0974 69.0546C80.1024 69.1365 80.1397 69.213 80.2012 69.2674C80.2626 69.3218 80.3432 69.3496 80.4251 69.3446C80.507 69.3396 80.5835 69.3022 80.6379 69.2408C80.6923 69.1793 80.72 69.0988 80.715 69.0169C80.6548 68.3164 80.3384 63.6615 81.3402 62.238C82.1763 61.0705 86.9366 57.3496 87.735 57.4776ZM72.3092 83.9005C72.1058 84.1716 71.9024 84.4352 71.7216 84.6537L68.8293 80.2775C69.9589 78.5315 71.5348 77.1194 73.3938 76.1875C73.4992 76.6093 73.7252 77.9275 74.019 79.7804C73.2345 80.5717 72.5282 81.4369 71.91 82.3639C71.8017 82.6288 71.7822 82.9216 71.8541 83.1985C71.9261 83.4755 72.0857 83.7217 72.3092 83.9005ZM72.8063 82.2359C73.1603 81.4826 74.9831 79.223 75.4275 79.1326C76.1807 78.982 79.0203 80.4733 79.3141 81.2416C78.4833 82.5614 77.3882 83.695 76.0978 84.5708C75.2429 84.3406 74.4365 83.9579 73.7177 83.441C73.3712 83.2 72.618 82.6049 72.8063 82.2359ZM76.2259 78.5376C75.7658 77.6623 75.3997 76.7407 75.1337 75.7883C75.8741 76.0833 76.565 76.4897 77.1825 76.9935V77.5358C76.9942 77.7768 76.7155 78.1308 76.3841 78.5677L76.2259 78.5376ZM80.3912 82.7556C81.6233 83.2988 82.7346 84.0824 83.6601 85.0604C83.9463 85.3466 84.4133 85.1282 82.583 88.7813C82.4098 87.4632 79.7434 85.4671 78.4479 84.842C79.1504 84.1996 79.8002 83.5019 80.3912 82.7556ZM78.2294 63.172C79.2082 62.7729 80.1402 62.2677 81.0088 61.6655C80.1727 62.6146 80.0447 64.5729 80.007 65.8383C79.6605 64.7763 79.0881 63.526 78.2294 63.1569V63.172ZM85.4904 51.2184C85.8294 54.1258 84.3983 57.1236 82.5755 59.4134C80.8984 61.3129 78.6621 62.6314 76.1882 63.1795C74.5291 63.5345 72.8015 63.3796 71.2321 62.7351C67.466 60.8294 66.4717 58.3514 66.9463 55.6699C67.1044 54.7811 69.4545 54.5024 70.3357 53.9149C72.0079 52.7926 71.5258 52.4085 73.1528 51.4971C74.1545 50.9397 75.4124 49.3354 76.3238 48.8985C77.6258 48.2978 79.0592 48.0386 80.4891 48.1453C82.4625 48.4014 83.4568 48.3562 85.1666 49.1546C85.3021 49.84 85.4151 50.5405 85.4904 51.2184ZM82.2968 36.6587C82.5604 36.5759 82.8542 36.4102 82.8617 36.5156C82.8692 36.6211 83.1555 36.96 83.1781 37.0052C83.9915 38.3158 85.0611 41.2383 83.871 42.2325C82.4474 43.4377 80.8582 42.9858 79.5852 41.5772C79.2161 41.178 77.4235 39.0238 77.5591 38.7075C77.8076 38.2179 81.6716 36.832 82.2968 36.6361V36.6587ZM60.2954 36.5307C61.2896 35.2578 65.711 36.4554 68.882 36.0712C70.85 35.8186 72.7323 35.1121 74.3805 34.0074C75.1337 33.4952 75.6308 32.2976 76.4368 32.0415C77.3708 31.7402 78.8395 33.1488 79.6455 33.2994C80.1125 34.256 80.5945 35.3406 81.0917 36.5006C79.5852 37.1408 77.5214 38.1275 77.3256 38.5719C77.2126 38.7903 77.4536 39.3251 77.8076 39.9051C77.3864 39.8836 76.9659 39.961 76.5799 40.1311C76.3313 39.8599 76.1506 39.6791 76.0602 39.5662C76.0508 39.5518 76.0386 39.5395 76.0245 39.5298C76.0103 39.5202 75.9944 39.5134 75.9776 39.5099C75.9608 39.5064 75.9435 39.5062 75.9266 39.5094C75.9098 39.5126 75.8937 39.5191 75.8794 39.5285C75.8651 39.5379 75.8527 39.55 75.843 39.5642C75.8334 39.5784 75.8266 39.5943 75.8231 39.6111C75.8196 39.6279 75.8195 39.6452 75.8227 39.662C75.8259 39.6789 75.8323 39.6949 75.8417 39.7093C75.9321 39.8674 76.0602 40.0708 76.2183 40.2968C75.6492 40.5842 75.1562 41.0023 74.7797 41.517C74.5539 40.8374 74.1122 40.2502 73.5218 39.8448C72.3317 39.3025 66.1177 42.451 65.711 43.5205C65.6603 43.9181 65.7368 44.3215 65.9294 44.673C64.0924 44.6786 62.257 44.7817 60.4309 44.9818C60.5741 43.8294 60.9507 42.7673 60.7021 41.6074C60.3857 40.0783 59.2635 37.8488 60.2954 36.5307ZM73.567 47.9871C72.0606 48.906 69.6654 49.1245 68.4376 47.8515C67.594 47.0004 65.7637 44.1382 65.9595 43.6109C66.2834 42.7673 71.5559 40.4248 73.0624 40.3796C74.2223 40.342 76.1732 46.4054 73.567 47.9871ZM58.5479 63.6163C58.7663 54.2463 58.9848 54.5778 58.5479 54.4271C57.1501 53.8607 55.9227 52.9421 54.9852 51.7607C53.3356 49.2826 55.8137 46.782 58.111 48.1302C58.34 48.2278 58.5388 48.3846 58.6871 48.5845C58.8354 48.7844 58.9277 49.0202 58.9546 49.2676C59.1806 50.1714 59.5195 51.7984 60.4611 51.5272C62.314 50.9247 60.4008 47.3092 60.4611 45.5919C62.3639 45.5775 64.2599 45.3629 66.1177 44.9517C66.6382 46.1058 67.2875 47.1974 68.0535 48.2055C69.4545 49.712 72.1133 49.599 73.8984 48.5294C75.9171 47.3092 75.7438 44.0704 74.9303 41.8936C75.4683 41.5083 76.0292 41.1561 76.61 40.8391C77.5817 42.1798 79.0881 44.0403 79.5551 44.8236C79.6831 45.0571 79.7283 45.0872 79.5551 45.3358C79.0766 45.9863 78.4846 46.5451 77.8076 46.9853C77.7767 47.0013 77.7533 47.0289 77.7427 47.0621C77.7321 47.0953 77.7352 47.1314 77.7511 47.1623C77.7671 47.1933 77.7947 47.2167 77.8279 47.2272C77.8611 47.2378 77.8972 47.2348 77.9281 47.2188C78.6814 46.8949 80.3234 45.8932 80.2631 45.0194C80.2029 44.1457 77.6043 41.2534 77.0168 40.6131C77.3219 40.4388 77.6563 40.3214 78.0035 40.2666C78.4554 40.9671 78.9902 41.6601 79.171 41.8861C80.4138 43.3925 82.0256 43.9725 83.5547 43.1741C84.1533 45.0122 84.6562 46.8802 85.0611 48.7705C83.0575 47.7913 78.8169 46.9703 76.0225 48.2959C75.0509 48.7629 73.7629 50.3597 72.8063 50.8719C70.9383 51.8888 71.6011 52.1976 69.9365 53.3124C69.1005 53.8697 66.5169 54.0656 66.2759 55.4967C65.6507 59.1799 67.6467 61.5224 70.9835 63.1117C72.5545 63.6709 74.2419 63.8212 75.8869 63.5486C76.1204 67.8344 76.5121 67.4126 76.7833 70.6062C74.4784 74.6585 74.2148 74.9748 75.6836 78.5074C75.2618 78.5526 74.7044 79.0874 74.2826 79.5017C73.9436 77.6563 73.6649 76.2252 73.5294 75.9691C73.8156 74.9748 61.4252 65.0249 58.5479 63.6163ZM70.4487 86.4237C70.1173 86.0773 70.0118 85.8965 69.6955 85.9944C68.5922 86.6076 67.5614 87.3428 66.6224 88.1863C65.8692 85.7157 65.018 83.2602 64.1594 80.8349C67.4961 83.4636 67.3003 83.2376 67.4358 83.2075C67.9179 83.1246 67.4358 82.7405 68.4527 80.9479C69.4093 82.4091 70.3734 83.8628 71.2998 85.2713C71.2622 85.2939 70.4713 86.3559 70.4487 86.4237ZM70.6069 86.5894C70.7048 86.5894 70.5014 86.7024 72.5276 84.1264C72.7261 84.3218 72.9402 84.5006 73.1678 84.6612C73.7704 85.0981 76.0978 86.484 76.7305 86.1676C77.2738 85.8463 77.7791 85.4648 78.237 85.0303C79.7434 85.9643 81.7018 87.6289 82.0482 89.4743C81.1368 92.0729 80.1426 94.92 79.5476 96.5244C77.9733 94.7844 74.275 90.3857 70.6069 86.6196V86.5894ZM81.2498 99.3263C81.2746 99.2582 81.2746 99.1835 81.2498 99.1154C80.8635 98.3275 80.3551 97.6055 79.7434 96.9763C79.8112 96.8407 81.5662 92.1934 82.1914 89.9262C82.2328 89.9503 82.2786 89.9659 82.3262 89.9722C82.3737 89.9784 82.422 89.9751 82.4683 89.9625C82.5146 89.9499 82.5579 89.9282 82.5957 89.8987C82.6335 89.8692 82.665 89.8324 82.6885 89.7906C83.2855 88.7603 83.7896 87.679 84.1949 86.5593C85.144 92.585 86.2286 99.4318 87.3283 106.309C85.144 106.037 80.7 105.555 78.4931 105.555L78.3575 104.629C79.4195 102.806 80.3686 101.029 81.2498 99.3263ZM94.4612 145.092C94.4612 145.092 93.4444 138.983 91.8175 129.221C93.1758 129.458 94.5463 129.619 95.9225 129.704C99.4099 145.935 99.1387 145.257 99.3647 145.152C99.5906 145.047 99.8015 145.581 96.3518 129.726C98.8742 129.9 101.384 129.238 103.492 127.843C104.931 144.67 106.061 144.79 105.579 145.529C103.773 145.876 101.946 146.108 100.11 146.222C98.1838 146.111 96.2823 145.73 94.4612 145.092ZM99.8241 128.8C93.2636 130.901 69.2134 122.608 67.2626 119.761C74.9228 112.801 76.3012 107.461 77.6419 106.135C78.4403 105.872 84.4209 106.452 85.2569 106.535C96.1786 107.634 96.9393 108.448 97.0222 108.041C97.0266 108.024 97.0273 108.006 97.0243 107.988C97.0212 107.97 97.0145 107.953 97.0046 107.939C96.9947 107.924 96.9817 107.911 96.9666 107.901C96.9514 107.892 96.9345 107.885 96.9167 107.883C95.3048 107.551 93.4143 107.22 91.4484 106.926C91.5614 104.749 91.7873 102.098 91.6216 94.0463C91.6216 94.0123 91.6081 93.9798 91.5841 93.9557C91.5601 93.9317 91.5275 93.9182 91.4936 93.9182C91.4596 93.9182 91.427 93.9317 91.403 93.9557C91.379 93.9798 91.3655 94.0123 91.3655 94.0463C90.9503 98.3196 90.8848 102.62 91.1697 106.904C90.1302 106.745 89.0682 106.602 88.0288 106.467C84.0518 82.5221 84.3154 84.375 84.4284 84.0812C85.7691 82.394 87.8857 79.4188 88.6087 77.3851C89.362 75.1933 88.2246 71.9017 88.1041 70.6062C88.8202 70.9191 89.506 71.2974 90.1528 71.736C96.4723 76.5491 98.9805 79.2682 101.843 86.8003C102.694 89.06 103.801 91.2217 104.517 93.4512C105.232 95.6808 106.98 100.117 108.2 105.126C110.723 115.588 110.106 125.478 99.8241 128.8Z" fill="black"/>
<path id="Vector_2" d="M68.7758 55.9638C68.6553 56.122 68.7306 56.3103 68.7758 56.5061C68.7868 56.5731 68.8212 56.634 68.8729 56.678C68.9247 56.7219 68.9903 56.746 69.0582 56.746C69.1261 56.746 69.1918 56.7219 69.2435 56.678C69.2953 56.634 69.3297 56.5731 69.3407 56.5061C69.3407 55.7378 68.934 55.7378 68.7758 55.9638ZM71.2388 59.3081C70.9375 59.0595 70.5835 59.4964 70.8547 59.7223C71.2689 60.3626 71.4648 60.0462 71.4648 59.8504C71.4569 59.6484 71.3767 59.4559 71.2388 59.3081ZM72.6925 54.4724C72.6392 54.4565 72.5825 54.4553 72.5285 54.469C72.4746 54.4827 72.4253 54.5106 72.386 54.55C72.3466 54.5894 72.3186 54.6386 72.305 54.6926C72.2913 54.7466 72.2925 54.8032 72.3084 54.8566C72.2104 56.2048 73.3629 54.7134 72.6925 54.4724ZM74.2592 57.9975C74.2592 57.5983 73.506 57.5907 73.7395 58.2084C73.7328 58.2493 73.735 58.2912 73.7461 58.3312C73.7573 58.3712 73.7769 58.4083 73.8038 58.4399C73.8307 58.4716 73.8641 58.497 73.9018 58.5144C73.9394 58.5318 73.9804 58.5409 74.0219 58.5409C74.0634 58.5409 74.1044 58.5318 74.1421 58.5144C74.1798 58.497 74.2132 58.4716 74.2401 58.4399C74.2669 58.4083 74.2866 58.3712 74.2977 58.3312C74.3088 58.2912 74.3111 58.2493 74.3044 58.2084C74.2966 58.1367 74.2814 58.066 74.2592 57.9975ZM75.3212 61.5376C75.337 61.6052 75.3774 61.6645 75.4346 61.7039C75.4918 61.7433 75.5617 61.7599 75.6305 61.7504C75.6993 61.741 75.7621 61.7062 75.8066 61.6529C75.8511 61.5996 75.8741 61.5316 75.8711 61.4623C75.8861 60.7542 75.035 60.9049 75.3212 61.5376ZM78.5827 56.3479C78.3642 56.1747 78.0027 56.3479 78.1307 56.7547C78.2588 57.1614 78.7484 57.1087 78.7484 56.7547C78.7287 56.6072 78.6716 56.4672 78.5827 56.3479ZM78.9743 59.7148C78.7107 59.873 78.9065 60.2722 78.9291 60.3174C78.9689 60.373 79.0274 60.4126 79.0939 60.4289C79.1603 60.4452 79.2304 60.4371 79.2915 60.4061C79.3525 60.3751 79.4004 60.3233 79.4265 60.2601C79.4526 60.1968 79.4552 60.1263 79.4338 60.0613C79.3961 59.986 79.3434 59.5039 78.9743 59.7148ZM82.8534 56.137C82.8062 56.1125 82.7531 56.1016 82.7 56.1056C82.647 56.1095 82.5961 56.1282 82.5531 56.1595C82.51 56.1908 82.4766 56.2335 82.4565 56.2827C82.4363 56.332 82.4303 56.3858 82.4391 56.4383C82.4428 56.5086 82.4428 56.579 82.4391 56.6492C82.4501 56.7162 82.4845 56.7771 82.5363 56.8211C82.588 56.865 82.6537 56.8891 82.7216 56.8891C82.7895 56.8891 82.8551 56.865 82.9069 56.8211C82.9586 56.7771 82.9931 56.7162 83.004 56.6492C83.0116 56.2274 82.9137 56.1822 82.8534 56.137ZM84.1339 53.2522C84.0661 53.448 84.277 53.7192 84.3071 53.7493C84.5783 54.0129 84.9775 53.6137 84.7138 53.3576C84.3598 52.8907 84.1866 53.0865 84.1339 53.2522ZM81.6558 52.7249C81.6061 52.6971 81.5492 52.6847 81.4924 52.6893C81.4356 52.694 81.3815 52.7155 81.337 52.7511C81.2925 52.7867 81.2597 52.8348 81.2426 52.8891C81.2256 52.9435 81.2252 53.0018 81.2415 53.0564C81.2328 53.1014 81.2339 53.1478 81.2449 53.1924C81.2558 53.2369 81.2764 53.2786 81.305 53.3144C81.3337 53.3502 81.3698 53.3794 81.4109 53.3998C81.4519 53.4203 81.4969 53.4316 81.5428 53.433C81.942 53.3953 81.8516 52.7927 81.6558 52.7249ZM82.9664 49.6217C82.9642 49.6637 82.9712 49.7057 82.9871 49.7447C83.003 49.7837 83.0273 49.8187 83.0582 49.8473C83.0892 49.8758 83.126 49.8972 83.1662 49.9098C83.2064 49.9225 83.2488 49.9261 83.2905 49.9205C83.3323 49.9148 83.3722 49.9001 83.4076 49.8772C83.4429 49.8543 83.4728 49.824 83.4951 49.7882C83.5174 49.7525 83.5315 49.7123 83.5364 49.6705C83.5414 49.6287 83.5371 49.5863 83.5238 49.5464C83.6066 49.1396 82.8911 48.9589 82.9664 49.6217ZM79.9535 50.036C78.3341 49.6066 75.9313 51.5876 76.0744 54.2314C76.0816 54.261 76.0984 54.2873 76.1224 54.3061C76.1463 54.325 76.1758 54.3352 76.2063 54.3352C76.2367 54.3352 76.2663 54.325 76.2902 54.3061C76.3141 54.2873 76.3309 54.261 76.3381 54.2314C76.7448 52.0998 78.7182 50.2845 79.9158 50.2996C79.9332 50.3021 79.9508 50.3011 79.9677 50.2968C79.9847 50.2924 80.0006 50.2848 80.0146 50.2743C80.0286 50.2638 80.0403 50.2507 80.0493 50.2356C80.0582 50.2206 80.064 50.2039 80.0665 50.1866C80.069 50.1693 80.068 50.1517 80.0637 50.1347C80.0593 50.1178 80.0517 50.1019 80.0412 50.0879C80.0307 50.0739 80.0176 50.0621 80.0025 50.0532C79.9875 50.0443 79.9708 50.0384 79.9535 50.036ZM79.4037 39.9203C79.4619 40.0538 79.5577 40.1676 79.6794 40.2478C79.801 40.328 79.9434 40.3712 80.0891 40.3722C80.2154 40.3732 80.3398 40.3424 80.4511 40.2827C80.5624 40.2231 80.6569 40.1364 80.7259 40.0306C80.7949 39.9249 80.8362 39.8035 80.846 39.6776C80.8558 39.5517 80.8338 39.4253 80.782 39.3102C80.6458 38.9835 80.4924 38.6642 80.3226 38.3536C80.2731 38.267 80.2071 38.1911 80.1283 38.13C80.0495 38.069 79.9594 38.0241 79.8632 37.9979C79.7671 37.9716 79.6667 37.9646 79.5678 37.9772C79.4689 37.9897 79.3735 38.0217 79.2869 38.0711C79.2004 38.1206 79.1244 38.1866 79.0634 38.2654C79.0023 38.3442 78.9574 38.4343 78.9312 38.5305C78.905 38.6266 78.8979 38.727 78.9105 38.8259C78.9231 38.9248 78.955 39.0202 79.0045 39.1068C79.1476 39.3629 79.2681 39.6491 79.4037 39.9203ZM76.549 35.6797C77.5106 35.4556 78.4874 35.302 79.4715 35.2202C79.5054 35.2272 79.5408 35.2204 79.5697 35.2013C79.5987 35.1823 79.6189 35.1525 79.6259 35.1185C79.6328 35.0846 79.6261 35.0492 79.607 35.0203C79.5879 34.9913 79.5581 34.9711 79.5242 34.9641C79.0144 34.725 78.4446 34.6445 77.8886 34.7331C77.3325 34.8218 76.816 35.0754 76.4059 35.4612C76.2552 35.5516 76.4059 35.7701 76.549 35.6797ZM70.6061 42.4435C70.4964 42.2927 70.3347 42.188 70.1523 42.1495C69.9698 42.1111 69.7796 42.1417 69.6184 42.2354C69.4572 42.3291 69.3365 42.4793 69.2796 42.6569C69.2227 42.8345 69.2338 43.0268 69.3106 43.1968C69.7173 43.8897 69.755 44.7032 70.5006 44.7032C70.6199 44.6988 70.7364 44.6662 70.8406 44.608C70.9448 44.5497 71.0337 44.4676 71.0999 44.3683C71.1661 44.269 71.2077 44.1554 71.2214 44.0368C71.2351 43.9182 71.2204 43.7981 71.1785 43.6864C70.9752 43.257 70.8019 42.8051 70.6061 42.4435ZM65.1829 41.4719C65.7177 40.4099 69.175 38.2632 70.6664 38.3009C70.6978 38.2994 70.7278 38.2869 70.7511 38.2657C70.7745 38.2445 70.7897 38.2158 70.7941 38.1846C70.7986 38.1534 70.792 38.1216 70.7756 38.0947C70.7591 38.0678 70.7338 38.0475 70.704 38.0372C68.7607 37.5552 65.3712 39.6265 64.9419 41.3815C64.9299 41.4135 64.9311 41.4489 64.9453 41.48C64.9594 41.511 64.9853 41.5352 65.0172 41.5472C65.0492 41.5592 65.0846 41.558 65.1157 41.5439C65.1468 41.5298 65.171 41.5039 65.1829 41.4719ZM126.54 37.9996C127.293 37.6305 132.287 10.0101 131.602 8.69946C131.466 8.43584 131.044 8.33792 130.728 8.27013C128.672 7.80313 117.87 7.07251 116.839 8.06676C115.626 9.23424 118.503 37.7209 118.819 37.6154C119.302 38.7151 125.862 38.331 126.54 37.9996ZM122.232 41.5397C121.694 41.6239 121.181 41.8209 120.725 42.1178C120.269 42.4146 119.881 42.8045 119.586 43.2619C119.292 43.7193 119.097 44.2339 119.016 44.7718C118.934 45.3097 118.967 45.8587 119.113 46.3829C120.138 50.0284 126.171 51.8286 127.399 46.8122C127.621 45.9292 127.584 45.001 127.293 44.1383C126.683 42.2778 124.28 41.1932 122.232 41.5397ZM106.956 47.6106C107.192 46.7322 107.173 45.8051 106.904 44.9367C106.271 43.0687 103.838 41.9841 101.812 42.3306C101.275 42.4169 100.762 42.6155 100.306 42.9134C99.851 43.2113 99.4636 43.6018 99.1694 44.0595C98.8751 44.5172 98.6807 45.0318 98.5987 45.5697C98.5167 46.1076 98.549 46.6567 98.6935 47.1813C99.7405 50.8419 105.781 52.5969 106.956 47.6106ZM108.365 5.48323C103.092 1.98077 93.5114 4.15004 90.25 9.13633C89.2095 10.6579 88.5389 12.4015 88.2916 14.2281C88.1212 16.0574 88.3791 17.9012 89.0448 19.6136C89.3235 20.5024 94.5358 20.0504 95.8238 19.6964C96.1189 19.6503 96.3869 19.4976 96.577 19.2671C97.0063 18.3858 94.8597 15.7496 97.3302 12.8572C99.4242 10.3641 103.898 10.944 105.759 13.9569C108.124 17.723 105.239 22.3477 101.752 25.1196C100.388 26.2042 97.4733 27.6278 97.0892 28.6145C96.2531 30.7687 97.2624 37.5175 97.6917 38.331C97.7402 38.4113 97.8047 38.4809 97.8811 38.5353C97.9576 38.5897 98.0444 38.6278 98.1361 38.6473C99.394 39.0465 104.328 38.6473 105.42 38.105C105.546 38.0484 105.655 37.9579 105.733 37.8437C105.811 37.7294 105.857 37.5957 105.864 37.4573C106.113 36.3199 105.864 33.2317 105.729 32.0718C107.657 30.2414 111.242 26.6335 112.56 24.3212C115.807 18.5063 114.104 9.30957 108.365 5.48323Z" fill="black"/>
</g>
</g>
</svg>
