<svg width="151" height="151" viewBox="0 0 151 151" fill="none" xmlns="http://www.w3.org/2000/svg">
<g id="Logged-In-1--Streamline-Milano">
<g id="Logged-In-1--Streamline-Milano.svg">
<path id="Vector" fill-rule="evenodd" clip-rule="evenodd" d="M29.6994 135.398C27.6808 134.946 23.523 130.781 23.523 130.781C20.1787 92.8866 17.1131 25.7148 22.0618 8.2251C23.5682 2.89232 81.95 2.77181 93.3838 5.61897C95.779 6.21401 99.8163 10.3868 99.8238 10.4396C99.8313 10.4923 101.571 33.7893 101.632 34.7082C101.692 34.6103 101.752 34.5123 101.82 34.422C101.838 34.3965 101.865 34.3786 101.896 34.3717C101.926 34.3647 101.958 34.3692 101.986 34.3843C102.353 34.6276 102.647 34.9661 102.837 35.3635C103.402 36.5385 102.837 37.7813 102.038 38.8132C102.281 38.7059 102.533 38.6202 102.791 38.5571C103.368 38.0112 104.08 37.6308 104.854 37.4558C105.628 37.2808 106.435 37.3178 107.19 37.5629C110.09 38.3989 111.672 40.4025 111.853 41.6528C112.033 42.9032 112.877 42.9634 113.359 43.1593C114.549 43.6112 117.555 42.6697 118.963 44.3569C119.807 45.3662 119.867 47.3697 118.85 49.0871C117.833 50.8044 120.507 51.1208 121.464 52.0999C122.42 53.0791 122.88 56.0844 121.373 57.4252C119.867 58.7659 118.843 58.781 117.607 59.5568C116.372 60.3326 116.854 61.5754 117.072 63.3229C117.115 63.5286 117.11 63.7412 117.058 63.9448C117.006 64.1483 116.909 64.3374 116.773 64.4977C116.637 64.6581 116.467 64.7855 116.275 64.8703C116.083 64.9551 115.874 64.9952 115.664 64.9875C116.485 66.3809 119.716 74.7793 120.432 76.5719V76.6548C119.977 77.5447 119.451 78.3962 118.858 79.2007C121.968 82.4889 123.796 86.7836 124.01 91.3048C124.431 99.1006 116.342 104.11 116.342 104.11L116.146 105.616C116.387 106.197 116.46 106.834 116.357 107.454C116.311 107.536 116.243 107.604 116.161 107.65C116.334 108.523 117.667 115.076 117.667 115.988C118.933 118.3 133.139 144.354 130.901 145.815C128.792 147.171 121.381 147.698 120.296 145.341C119.648 143.909 126.548 143.751 126.909 142.011C117.472 137.575 110.052 129.772 105.066 120.869C104.998 122.752 104.11 131.624 103.891 132.22C103.53 133.214 103.243 133.402 102.566 133.658C97.7525 135.488 81.837 137.085 76.3913 137.507C76.3913 141.107 76.3913 140.949 76.3084 140.995C75.2136 141.554 74.0318 141.923 72.8135 142.087C72.7231 142.087 69.1679 140.294 65.093 138.11C53.1696 138.471 40.3574 137.959 29.6918 135.654C29.6579 135.653 29.6257 135.639 29.6024 135.614C29.5791 135.589 29.5666 135.556 29.5676 135.522C29.5686 135.488 29.583 135.456 29.6077 135.433C29.6325 135.41 29.6654 135.397 29.6994 135.398ZM126.729 142.411C126.119 142.894 125.413 143.241 124.657 143.427C124.41 143.802 124.141 144.162 123.851 144.504C124.809 145.083 125.672 145.805 126.412 146.644C127.219 146.587 128.02 146.466 128.808 146.282C129.213 145.101 129.778 143.981 130.487 142.953C130.273 143.166 130.016 143.333 129.734 143.442C129.187 143.582 128.611 143.558 128.077 143.375C127.544 143.191 127.075 142.856 126.729 142.411ZM116.116 107.597C114.218 108.742 103.688 112.154 101.262 112.154C103.021 116.851 105.369 121.306 108.252 125.41C112.25 131.254 117.424 136.198 123.445 139.925C125.968 141.431 126.879 141.748 127.007 141.868C126.987 142.046 126.911 142.212 126.789 142.343C127.31 142.832 127.952 143.173 128.649 143.329C128.977 143.388 129.313 143.371 129.633 143.279C129.953 143.188 130.248 143.025 130.495 142.802C128.047 135.104 117.502 116.048 117.502 115.905C117.562 115.106 116.267 108.38 116.116 107.597ZM77.039 30.7237C75.7768 31.4779 74.3844 31.9889 72.934 32.2301C72.934 33.036 73.0244 135.368 72.8813 141.755C73.9859 141.61 75.058 141.279 76.0523 140.776C76.0523 139.413 76.7076 80.7824 76.7377 77.295C76.2632 77.1896 74.2069 76.6247 74.35 76.1049C74.4178 75.8714 74.9375 75.7509 75.2012 75.7057C75.4744 75.6848 75.7489 75.6848 76.0222 75.7057C75.5476 75.3291 74.0789 74.1993 74.4178 73.672C74.7568 73.1448 75.751 73.8227 76.2029 74.1089C75.992 73.77 75.51 72.964 75.7887 72.6778C76.0674 72.3916 76.4892 72.7155 76.7754 72.9716C76.8281 65.6578 77.0691 32.7799 77.039 30.7237ZM37.8718 25.3457C37.8718 49.4938 38.2484 96.0727 39.7473 120.409C39.9808 120.71 42.6321 124.07 52.1151 130.201C58.7973 134.425 65.7017 138.287 72.7984 141.77C72.9189 135.383 72.7532 33.3072 72.7457 32.2903C69.3863 30.8216 41.427 25.9558 37.8718 25.3457ZM99.6355 10.4396C64.3549 2.90739 25.7073 11.0723 25.7073 11.0723C21.3161 87.2375 29.4734 133.846 29.7596 135.353C30.5128 135.285 40.4553 138.411 64.4603 137.613C61.2064 135.85 58.3593 134.216 55.8736 132.717C48.3668 132.442 40.8888 131.636 33.4956 130.306C26.1367 98.7466 29.9781 16.518 29.9781 16.518C36.5776 14.8336 43.3537 13.9385 50.1643 13.8516C50.3224 14.7479 51.9494 16.9775 51.9494 16.9775C57.3499 18.6873 75.9695 17.3842 75.9695 17.3842C76.7829 16.8344 77.2198 13.6934 77.2198 13.6934C82.7889 13.1377 88.4129 13.649 93.7905 15.1999C96.0502 20.2766 96.6226 29.2097 97.3156 40.2368C97.2327 40.282 95.6133 40.877 95.8092 42.4964C95.877 43.1442 96.5624 43.5133 97.1725 43.7543L97.2327 43.6338C96.5548 43.3024 96.0954 42.8806 96.0125 42.4889C95.6585 40.6887 99.5225 39.3555 101.232 39.2651C101.429 39.1426 101.639 39.0415 101.857 38.9638C101.271 38.8831 100.707 38.6855 100.199 38.3828C99.6902 38.08 99.2477 37.6783 98.8974 37.2013C98.5343 36.6229 98.3926 35.9327 98.4982 35.258C98.5019 35.2354 98.514 35.215 98.5322 35.201C98.5504 35.187 98.5732 35.1805 98.5961 35.1827C99.8087 35.0998 100.713 36.0941 101.3 37.1486C101.406 37.3369 101.3 37.254 101.3 36.7193C101.267 36.2907 101.31 35.8597 101.428 35.4463C101.27 34.2035 99.628 10.4396 99.628 10.4396H99.6355ZM76.4364 136.98C89.7985 135.91 102.046 133.786 103.01 132.837C103.227 132.582 103.388 132.284 103.484 131.963C103.695 131.391 104.637 121.961 104.75 120.123C103.337 117.575 102.143 114.911 101.18 112.161C101.119 112.161 101.029 112.161 101.006 112.101C100.804 111.393 100.7 110.661 100.698 109.924L100.464 108.847L99.4999 109.292C98.9977 109.712 98.3755 109.962 97.7223 110.007C97.7223 110.376 96.9691 128.084 96.9691 128.084C90.3168 130.211 83.4518 131.602 76.4967 132.235L76.4364 136.98ZM76.5494 124.22C78.3494 124.425 80.162 124.498 81.9726 124.439C79.7129 119.92 76.4967 111.212 78.2065 106.362C79.8033 101.91 85.4223 97.9331 89.565 95.6961C89.4445 91.1768 89.3616 86.4843 89.1884 81.9348C84.8506 81.3781 80.703 79.815 77.0767 77.3703C77.0691 77.8223 76.9185 82.206 76.5419 124.213L76.5494 124.22ZM96.5925 108.802C94.6342 105.895 90.853 97.7298 90.3408 95.4023C87.4103 96.9508 84.6893 98.8669 82.2437 101.104C78.0408 105.096 77.2499 108.132 78.4099 113.811C79.2244 117.48 80.4498 121.045 82.063 124.439C84.6052 124.363 87.1406 124.134 89.6554 123.753C88.1941 111.371 88.2393 112.041 88.3448 111.996C89.5349 111.416 97.0746 108.614 96.585 108.795L96.5925 108.802ZM89.9943 111.476C89.452 111.702 88.9248 111.928 88.4879 112.139C88.5482 112.651 89.6554 121.584 89.7307 123.738H89.7985C90.0245 115.694 90.2655 121.592 89.9943 111.476ZM115.988 105.601L100.765 109.924C100.797 110.634 100.915 111.338 101.119 112.018C103.206 112.146 115.536 108.041 116.244 107.356C116.477 107.137 116.199 105.985 115.995 105.593L115.988 105.601ZM92.8641 94.0164C91.9846 94.2441 91.1598 94.6462 90.4387 95.199C90.7777 97.0895 94.7019 105.45 96.5247 108.395C96.8174 108.959 97.2255 109.454 97.7223 109.849C97.8127 109.849 98.2873 109.97 99.4171 109.216C98.9651 106.957 92.8114 94.5512 92.8641 94.0089V94.0164ZM113.201 90.4386C113.201 90.4386 119.317 87.0567 120.402 86.0399C120.402 86.0399 124.672 93.6699 119.483 97.2101C114.293 100.75 113.178 90.4311 113.178 90.4311L113.201 90.4386ZM92.9319 93.9637C93.1352 93.7603 93.8433 93.1352 94.3479 92.6832L103.387 87.7723C103.406 87.7623 103.422 87.7448 103.429 87.7236C103.436 87.7024 103.434 87.6792 103.424 87.6593C103.414 87.6393 103.397 87.6241 103.375 87.617C103.354 87.61 103.331 87.6116 103.311 87.6216C100.396 88.7537 97.5836 90.1347 94.9053 91.7492C94.9053 90.16 94.9957 87.486 95.0484 86.8006L94.5664 86.7178C94.5664 87.1847 94.3931 91.8095 94.363 92.2087L92.8566 93.9336L92.9319 93.9637ZM102.844 56.559C100.87 57.0427 99.029 57.9642 97.4587 59.2555C93.9035 62.3512 92.1862 67.9325 91.3577 72.5723C93.8583 74.7868 98.5358 77.0389 103.763 77.7921C105.598 73.8849 106.895 69.7473 107.62 65.4921C107.617 65.4852 107.615 65.4777 107.616 65.4703C107.617 65.4628 107.619 65.4556 107.623 65.4493C107.627 65.443 107.633 65.4379 107.64 65.4343C107.646 65.4307 107.654 65.4289 107.661 65.4289C107.669 65.4289 107.676 65.4307 107.683 65.4343C107.689 65.4379 107.695 65.443 107.699 65.4493C107.703 65.4556 107.705 65.4628 107.706 65.4703C107.707 65.4777 107.705 65.4852 107.702 65.4921C107.028 69.7915 105.76 73.9765 103.936 77.9277L103.831 77.9804C102.912 77.8524 102.038 77.6867 101.21 77.4909C99.2805 79.6881 96.6761 81.1823 93.8056 81.739C93.542 83.027 92.9545 85.8515 94.2952 86.2583C96.7354 86.7517 99.2305 86.9163 101.714 86.7479C109.533 86.3788 116.741 83.4865 120.326 76.5041C120.326 76.5041 115.739 65.3641 115.558 64.9046C114.052 64.9649 114.255 63.7673 112.131 63.1572C110.557 62.7052 109.367 62.4491 108.478 60.6263C107.589 58.8036 107.492 59.0446 105.533 58.8186C103.944 58.6755 102.889 57.7566 102.822 56.5514L102.844 56.559ZM91.2522 72.7682C87.2813 73.4663 83.3533 74.3893 79.487 75.5325C79.261 75.6078 79.487 75.1032 79.0501 73.7398C78.9543 73.3784 78.7907 73.0385 78.568 72.7381C78.2366 72.5874 78.1538 72.8058 78.1914 73.1674L78.3496 74.9826C78.3516 75.0046 78.3461 75.0266 78.334 75.045C78.3219 75.0634 78.304 75.0773 78.283 75.0842C78.2621 75.0912 78.2395 75.0909 78.2188 75.0834C78.198 75.0759 78.1804 75.0616 78.1688 75.0429C77.6908 74.2246 77.0769 73.4936 76.3536 72.8812C76.2481 72.8134 76.0146 72.7079 75.9318 72.7983C75.736 73.0017 76.4515 74.1315 76.685 74.4102C76.8281 74.5382 76.685 74.6814 76.5494 74.5684C76.4138 74.4554 74.817 73.431 74.5685 73.77C74.4706 73.9055 74.7718 74.2671 74.8848 74.3951C75.3476 74.8798 75.8517 75.3233 76.3913 75.7208C76.4036 75.7385 76.4102 75.7595 76.4102 75.7811C76.4102 75.8026 76.4036 75.8236 76.3913 75.8413C76.331 76.007 76.0749 75.7961 75.171 75.9317C74.9903 75.9317 74.5082 76.0823 74.4931 76.1803C74.4931 76.4514 76.6775 76.9335 77.0466 77.1594C77.152 77.2122 91.7192 87.5086 101.006 77.4758C97.4394 76.6684 94.1035 75.0584 91.2522 72.7682ZM77.2123 30.6257C77.2951 33.0812 77.1068 69.921 77.0842 73.1825C77.4746 73.6216 77.8203 74.0984 78.1161 74.606C78.0031 73.2427 77.9203 72.8661 78.1161 72.6401C78.188 72.5624 78.2857 72.5135 78.391 72.5024C78.4963 72.4913 78.602 72.5189 78.6886 72.5799C78.954 72.9031 79.1444 73.2813 79.2459 73.6871C79.4018 74.2257 79.5052 74.7781 79.5548 75.3367C82.6118 74.4233 85.7142 73.669 88.8494 73.077C87.7121 47.7388 86.0851 25.293 86.0851 25.293C73.2051 22.958 45.2608 23.8242 41.8412 23.9372C52.4314 25.1951 67.2924 28.0799 77.1445 30.3922C77.2123 30.4224 77.2047 30.4525 77.2123 30.6257ZM98.0236 54.6609C98.0688 55.9338 98.1065 57.2143 98.1441 58.5023C98.7083 58.0988 99.3055 57.7435 99.9293 57.4402C99.9293 57.2896 99.6732 55.2559 99.6204 54.8642C99.0796 54.9254 98.5319 54.8556 98.0236 54.6609ZM97.3985 43.6865C96.9477 44.4426 96.615 45.263 96.4117 46.1194C96.3417 46.5192 96.1898 46.9002 95.9656 47.2385C95.7414 47.5768 95.4496 47.8651 95.1087 48.0853C94.8526 48.3339 95.1087 49.1775 95.8619 49.298C95.8872 49.3016 95.9103 49.3143 95.9269 49.3337C95.9435 49.3531 95.9525 49.3779 95.9523 49.4034C95.8512 50.9102 96.2424 52.409 97.067 53.6742C97.3807 54.0582 97.7881 54.355 98.2499 54.5357C98.7117 54.7165 99.2122 54.7752 99.7033 54.7061C99.7134 54.7038 99.7238 54.7038 99.7339 54.7062C99.7439 54.7085 99.7533 54.7132 99.7613 54.7197C99.7693 54.7262 99.7757 54.7345 99.78 54.7439C99.7843 54.7533 99.7864 54.7635 99.7861 54.7739C99.8238 55.0977 100.02 57.1841 100.035 57.395C100.937 56.9573 101.88 56.6116 102.852 56.3631C102.85 56.0172 102.924 55.6751 103.07 55.3614C103.823 53.7194 102.724 53.275 103.236 51.889C103.748 50.5031 103.763 50.9174 104.742 50.5031C105.721 50.0888 106.565 49.2904 105.39 48.4468C104.215 47.6032 104.72 49.2001 102.302 49.2001C99.8841 49.2001 100.991 44.6356 100.991 44.6356C99.7566 44.4813 98.5482 44.1621 97.3985 43.6865ZM102.822 38.6098C101.888 39.009 101.835 39.0166 101.24 39.2576C103.643 41.811 106.068 47.543 106.068 47.543C106.309 43.4831 103.869 39.9204 102.822 38.6098ZM101.451 37.8566C100.878 36.6967 99.9443 35.3183 98.6262 35.3559C98.3927 37.1863 99.982 38.3688 101.88 38.8584C101.702 38.5325 101.559 38.1892 101.451 37.834V37.8566ZM101.955 38.768C102.927 37.352 103.289 35.6949 101.955 34.6931C101.681 35.1536 101.509 35.6672 101.449 36.1998C101.389 36.7324 101.444 37.2715 101.609 37.7813C101.684 38.0073 101.918 38.6701 101.955 38.7454V38.768ZM77.0014 30.558C76.6097 30.3696 55.482 25.647 41.5023 23.9974C40.2236 24.1689 38.9934 24.5995 37.8868 25.2628C39.5063 25.534 71.6987 31.0325 72.9039 32.1397C74.3056 31.7107 75.6749 31.1821 77.0014 30.558Z" fill="black"/>
<path id="Vector_2" fill-rule="evenodd" clip-rule="evenodd" d="M69.9657 86.2808C69.9657 83.8554 69.9657 83.8178 70.0636 83.524C70.1632 83.2947 70.3383 83.1065 70.5599 82.9907C70.7815 82.875 71.0361 82.8388 71.2812 82.8882C71.5262 82.9376 71.7469 83.0695 71.9064 83.262C72.0659 83.4545 72.1546 83.6958 72.1576 83.9458C72.1576 84.925 72.2178 89.851 72.2178 90.5289C72.2178 90.8286 72.0988 91.1159 71.8869 91.3278C71.675 91.5397 71.3876 91.6587 71.088 91.6587C70.7884 91.6587 70.501 91.5397 70.2891 91.3278C70.0772 91.1159 69.9582 90.8286 69.9582 90.5289V87.4784C68.9582 87.4441 67.9909 87.1138 67.1788 86.5293C66.9453 86.3034 66.9076 86.0925 67.0583 85.9494C67.5479 85.4899 69.2426 86.0774 69.9657 86.2808ZM70.1691 87.4784C70.1691 90.6946 70.1239 90.6042 70.2369 90.8754C70.3204 91.0699 70.468 91.23 70.6551 91.3289C70.8423 91.4279 71.0577 91.4598 71.2654 91.4193C71.4732 91.3788 71.6609 91.2683 71.7971 91.1063C71.9334 90.9443 72.0101 90.7406 72.0145 90.5289C72.0145 89.851 72.0747 84.925 72.0747 83.9458C72.0707 83.6874 71.9648 83.4411 71.78 83.2605C71.5951 83.0799 71.3464 82.9797 71.088 82.9817C70.9617 82.9827 70.8369 83.0086 70.7207 83.0581C70.6046 83.1075 70.4993 83.1795 70.4111 83.2698C70.3229 83.3602 70.2534 83.4671 70.2067 83.5844C70.16 83.7017 70.137 83.8271 70.1389 83.9533V86.3335H70.3348C70.6737 86.3335 70.7265 86.0623 70.6963 86.1377C70.796 86.0651 70.9107 86.0159 71.032 85.9937C71.1532 85.9716 71.2779 85.977 71.3968 86.0096C71.4837 86.0281 71.5634 86.0713 71.6263 86.1342C71.6891 86.197 71.7324 86.2767 71.7508 86.3636C71.7763 86.5144 71.7553 86.6694 71.6906 86.808C71.5023 87.2825 70.6963 87.4633 70.1691 87.4784ZM70.8018 86.228C70.7602 86.3079 70.6975 86.3748 70.6204 86.4213C70.5433 86.4678 70.4549 86.4921 70.3649 86.4917C70.026 86.4917 67.6458 85.7385 67.224 86.1151C67.0206 86.3034 68.7304 87.3729 70.4176 87.2374C70.7867 87.2374 71.3968 87.0641 71.5625 86.7628C71.6134 86.6522 71.6342 86.5301 71.6228 86.4088C71.6077 86.2054 71.2311 86.0171 70.8018 86.228Z" fill="black"/>
<path id="Vector_3" fill-rule="evenodd" clip-rule="evenodd" d="M70.8021 88.6533C70.4632 88.0056 71.5026 87.9001 71.1938 88.6533C71.254 88.9519 71.2968 89.2537 71.3218 89.5572C71.3218 89.5572 70.5686 89.512 70.5686 89.4969C70.5686 89.4819 70.8021 88.6383 70.8021 88.6533ZM63.1645 90.5138C63.1645 89.7606 63.2248 88.8115 63.2248 88.8944C63.2218 88.8875 63.2205 88.88 63.2212 88.8725C63.2218 88.865 63.2243 88.8578 63.2284 88.8516C63.2325 88.8453 63.2381 88.8401 63.2447 88.8366C63.2513 88.833 63.2587 88.8311 63.2662 88.8311C63.2737 88.8311 63.2811 88.833 63.2877 88.8366C63.2943 88.8401 63.2999 88.8453 63.304 88.8516C63.3081 88.8578 63.3106 88.865 63.3112 88.8725C63.3119 88.88 63.3106 88.8875 63.3076 88.8944C63.3076 89.0525 63.3679 89.5271 63.3679 90.5966C63.8575 90.0091 64.3395 89.5195 64.2642 89.5949C64.2721 89.5895 64.2815 89.5869 64.291 89.5872C64.3005 89.5875 64.3097 89.5908 64.3172 89.5967C64.3247 89.6025 64.3302 89.6106 64.3329 89.6197C64.3355 89.6289 64.3352 89.6386 64.332 89.6476C64.2416 89.753 64.106 90.0167 63.4432 90.8377C63.9118 91 64.3719 91.186 64.8216 91.3951C64.8296 91.3986 64.8365 91.4044 64.8413 91.4117C64.8462 91.4191 64.8487 91.4277 64.8487 91.4365C64.8487 91.4453 64.8462 91.4539 64.8413 91.4612C64.8365 91.4686 64.8296 91.4744 64.8216 91.4779C64.2265 91.3273 63.8273 91.1842 63.5261 91.0787C63.9403 91.7641 64.3998 92.6454 64.3546 92.5851C64.3576 92.5896 64.3596 92.5946 64.3607 92.5998C64.3617 92.6051 64.3617 92.6105 64.3606 92.6157C64.3596 92.621 64.3575 92.626 64.3545 92.6304C64.3516 92.6348 64.3477 92.6387 64.3433 92.6416C64.3388 92.6446 64.3339 92.6467 64.3286 92.6477C64.3234 92.6487 64.318 92.6487 64.3127 92.6477C64.3075 92.6466 64.3025 92.6446 64.298 92.6416C64.2936 92.6386 64.2898 92.6348 64.2868 92.6303C64.2868 92.6303 63.8951 92.0955 63.3905 91.2745C63.3905 92.088 63.3302 92.9617 63.3302 92.894C63.3267 92.902 63.3209 92.9089 63.3136 92.9137C63.3062 92.9185 63.2976 92.9211 63.2888 92.9211C63.28 92.9211 63.2714 92.9185 63.264 92.9137C63.2567 92.9089 63.2509 92.902 63.2474 92.894C63.2474 92.7358 63.1871 92.2612 63.1871 91.1917C62.705 91.7717 62.1778 92.329 62.2456 92.2462C62.2432 92.2529 62.2392 92.259 62.234 92.2639C62.2288 92.2688 62.2225 92.2724 62.2157 92.2743C62.2088 92.2763 62.2016 92.2767 62.1945 92.2753C62.1875 92.274 62.1809 92.271 62.1753 92.2666C62.1697 92.2622 62.1651 92.2566 62.1621 92.2501C62.1591 92.2436 62.1576 92.2365 62.1579 92.2294C62.1581 92.2223 62.1601 92.2153 62.1635 92.209C62.167 92.2028 62.1719 92.1975 62.1778 92.1935C62.2983 92.0504 62.351 91.8922 63.1118 90.9507C62.2983 90.6494 61.8539 90.4309 61.869 90.4385C61.884 90.446 61.869 90.3405 61.869 90.3631C61.869 90.3857 62.2004 90.446 62.6222 90.574L63.0214 90.7096C62.5845 89.9564 62.1477 89.1429 62.1929 89.2032C62.1869 89.1942 62.1847 89.1832 62.1868 89.1726C62.1889 89.162 62.1952 89.1527 62.2042 89.1467C62.2132 89.1407 62.2242 89.1385 62.2348 89.1407C62.2453 89.1428 62.2547 89.149 62.2607 89.158C62.351 89.2936 62.6448 89.6325 63.1645 90.5138ZM58.7055 89.0074C58.7055 88.2541 58.7657 87.3051 58.7657 87.3804C58.7692 87.3723 58.775 87.3655 58.7824 87.3607C58.7898 87.3558 58.7984 87.3533 58.8072 87.3533C58.816 87.3533 58.8246 87.3558 58.8319 87.3607C58.8393 87.3655 58.8451 87.3723 58.8486 87.3804C58.8486 87.5461 58.9088 88.0206 58.9088 89.0902C59.3683 88.5328 59.8805 88.0131 59.8052 88.0884C59.8076 88.0817 59.8115 88.0756 59.8167 88.0708C59.822 88.0659 59.8282 88.0623 59.8351 88.0603C59.842 88.0583 59.8492 88.0579 59.8562 88.0593C59.8632 88.0606 59.8698 88.0636 59.8755 88.068C59.8811 88.0724 59.8856 88.078 59.8886 88.0845C59.8917 88.091 59.8931 88.0981 59.8929 88.1052C59.8926 88.1124 59.8907 88.1193 59.8872 88.1256C59.8838 88.1318 59.8789 88.1372 59.873 88.1412C59.5039 88.6835 59.2403 89.0149 58.9842 89.3312C59.4561 89.4912 59.9188 89.6773 60.3701 89.8886C60.4153 89.8886 60.3701 89.9865 60.3701 89.9639C59.932 89.855 59.4996 89.7243 59.0745 89.5723C59.5265 90.3255 59.9483 91.139 59.9106 91.0787C59.9065 91.0849 59.9009 91.09 59.8943 91.0935C59.8878 91.0971 59.8804 91.0989 59.873 91.0989C59.8655 91.0989 59.8582 91.0971 59.8516 91.0935C59.845 91.09 59.8394 91.0849 59.8353 91.0787C59.7148 90.8829 59.6169 90.8 58.939 89.7229C58.939 90.5364 58.8787 91.4176 58.8787 91.3499C58.8752 91.3579 58.8694 91.3648 58.862 91.3696C58.8547 91.3744 58.8461 91.377 58.8373 91.377C58.8285 91.377 58.8199 91.3744 58.8125 91.3696C58.8052 91.3648 58.7994 91.3579 58.7959 91.3499C58.7959 91.1917 58.7356 90.7172 58.7356 89.6476C58.2008 90.2954 57.7188 90.7774 57.7941 90.7021C57.7862 90.7074 57.7768 90.7101 57.7673 90.7098C57.7578 90.7094 57.7486 90.7061 57.7411 90.7003C57.7336 90.6944 57.7281 90.6864 57.7254 90.6772C57.7228 90.6681 57.7231 90.6583 57.7263 90.6494C57.8468 90.4987 57.8995 90.3481 58.6678 89.399C57.9146 89.1279 57.3497 88.8567 57.425 88.8944C57.4169 88.8909 57.4101 88.8851 57.4053 88.8777C57.4004 88.8703 57.3979 88.8617 57.3979 88.8529C57.3979 88.8441 57.4004 88.8355 57.4053 88.8282C57.4101 88.8208 57.4169 88.815 57.425 88.8115C57.5079 88.8115 58.0577 88.9697 58.5774 89.158C58.118 88.4048 57.7112 87.6064 57.7489 87.6516C57.7865 87.6968 57.7941 87.5687 57.8167 87.6516C57.8393 87.7344 58.1556 88.1261 58.7055 89.0224V89.0074ZM54.2464 87.5009C54.2464 86.7477 54.3067 85.7987 54.3067 85.874C54.3067 85.8213 54.3971 85.8213 54.3971 85.874C54.3971 86.0849 54.4423 86.356 54.4573 87.5762C54.8038 87.1544 55.4139 86.4991 55.3537 86.5745C55.3537 86.5745 55.4516 86.5745 55.4139 86.6272C55.1387 87.0392 54.842 87.4364 54.5251 87.8173C54.9974 87.9793 55.4601 88.1679 55.911 88.3822C55.9638 88.3822 55.911 88.4726 55.911 88.4575C55.3838 88.3219 54.9996 88.2014 54.623 88.0658C55.0599 88.819 55.4968 89.625 55.4516 89.5723C55.4546 89.5819 55.4543 89.5923 55.4507 89.6018C55.4471 89.6113 55.4404 89.6193 55.4317 89.6245C55.423 89.6297 55.4128 89.6318 55.4028 89.6306C55.3927 89.6293 55.3834 89.6247 55.3763 89.6175C55.3763 89.6175 54.9996 89.0977 54.4875 88.2617C54.4875 89.0751 54.4197 89.9564 54.4197 89.8811C54.4227 89.888 54.4239 89.8955 54.4233 89.903C54.4226 89.9104 54.4202 89.9176 54.4161 89.9239C54.4119 89.9302 54.4063 89.9353 54.3997 89.9389C54.3931 89.9425 54.3857 89.9443 54.3782 89.9443C54.3707 89.9443 54.3634 89.9425 54.3568 89.9389C54.3502 89.9353 54.3445 89.9302 54.3404 89.9239C54.3363 89.9176 54.3338 89.9104 54.3332 89.903C54.3326 89.8955 54.3338 89.888 54.3368 89.8811C54.3368 89.6175 54.2841 89.3538 54.2766 88.1788C53.8246 88.7287 53.2748 89.3162 53.335 89.2409C53.335 89.2785 53.2371 89.2409 53.2748 89.1881C53.5636 88.755 53.8753 88.3376 54.2088 87.9378C53.5007 87.6817 52.8982 87.403 52.966 87.4331C52.9579 87.4296 52.951 87.4238 52.9462 87.4165C52.9414 87.4091 52.9388 87.4005 52.9388 87.3917C52.9388 87.3829 52.9414 87.3743 52.9462 87.3669C52.951 87.3596 52.9579 87.3538 52.966 87.3503C53.2597 87.4256 53.787 87.5762 54.1109 87.6968C53.6288 86.8833 53.2522 86.1451 53.2823 86.1903C53.3124 86.2355 53.3275 86.0999 53.3576 86.1451C53.3878 86.1903 53.7041 86.6197 54.2314 87.5311L54.2464 87.5009ZM49.7949 85.9945C49.7949 85.1584 49.8552 84.2998 49.8552 84.3751C49.8522 84.3682 49.8509 84.3607 49.8516 84.3532C49.8522 84.3457 49.8547 84.3385 49.8588 84.3323C49.8629 84.326 49.8685 84.3208 49.8751 84.3173C49.8817 84.3137 49.8891 84.3118 49.8966 84.3118C49.9041 84.3118 49.9115 84.3137 49.9181 84.3173C49.9247 84.3208 49.9303 84.326 49.9344 84.3323C49.9385 84.3385 49.941 84.3457 49.9416 84.3532C49.9423 84.3607 49.941 84.3682 49.938 84.3751C49.938 84.5784 49.9908 84.8571 49.9983 86.0773C50.4578 85.52 50.9699 85.0002 50.8946 85.0756C50.9016 85.0676 50.9115 85.0627 50.9221 85.062C50.9273 85.0616 50.9326 85.0623 50.9376 85.064C50.9426 85.0657 50.9472 85.0683 50.9511 85.0718C50.9551 85.0753 50.9583 85.0795 50.9606 85.0842C50.963 85.0889 50.9643 85.094 50.9647 85.0993C50.965 85.1045 50.9644 85.1098 50.9627 85.1148C50.961 85.1197 50.9583 85.1243 50.9549 85.1283C50.6461 85.5878 50.3448 85.9719 50.0661 86.3184C50.9624 86.6347 51.4746 86.8908 51.452 86.8758C51.4601 86.8793 51.4669 86.8851 51.4717 86.8924C51.4766 86.8998 51.4791 86.9084 51.4791 86.9172C51.4791 86.926 51.4766 86.9346 51.4717 86.9419C51.4669 86.9493 51.4601 86.9551 51.452 86.9586C51.0156 86.8495 50.5856 86.7163 50.164 86.5594C50.5406 87.1921 51.0377 88.1336 50.9925 88.0658C50.9925 88.111 50.9473 88.1562 50.9172 88.111C50.8871 88.0658 50.6687 87.7871 50.0284 86.7552C50.0284 87.5085 49.9682 88.45 49.9682 88.3747C49.9646 88.3827 49.9589 88.3896 49.9515 88.3944C49.9441 88.3992 49.9355 88.4018 49.9267 88.4018C49.9179 88.4018 49.9093 88.3992 49.902 88.3944C49.8946 88.3896 49.8888 88.3827 49.8853 88.3747C49.8853 88.111 49.8251 87.8399 49.8175 86.6724C49.5216 87.0394 49.2073 87.3914 48.876 87.7269C48.876 87.7721 48.7781 87.7269 48.8157 87.6742C48.8534 87.6214 48.9589 87.3729 49.7121 86.454C48.9589 86.1753 48.3939 85.9116 48.4693 85.9418C48.4165 85.9418 48.4693 85.8438 48.4693 85.8664C49.0643 86.0171 49.4861 86.1677 49.6217 86.2129C49.1472 85.4597 48.7555 84.6613 48.7856 84.7065C48.8157 84.7517 48.8308 84.6161 48.8609 84.6613C49.0342 84.9023 49.2225 85.1132 49.7949 86.0322V85.9945ZM45.3359 84.4881C45.3359 83.7348 45.3961 82.7858 45.3961 82.8611C45.3997 82.8531 45.4054 82.8462 45.4128 82.8414C45.4202 82.8365 45.4288 82.834 45.4376 82.834C45.4464 82.834 45.455 82.8365 45.4623 82.8414C45.4697 82.8462 45.4755 82.8531 45.479 82.8611C45.479 82.8611 45.5393 83.539 45.5393 84.5709C46.0514 83.9533 46.4582 83.5465 46.4356 83.5691C46.4435 83.5638 46.4529 83.5611 46.4624 83.5615C46.4719 83.5618 46.4811 83.5651 46.4886 83.5709C46.4961 83.5768 46.5016 83.5849 46.5042 83.594C46.5069 83.6031 46.5066 83.6129 46.5034 83.6219C46.5034 83.6219 46.2171 84.0663 45.6146 84.8119C46.4958 85.1283 47.0683 85.407 46.993 85.3693C47.0457 85.3693 46.993 85.4672 46.993 85.4446C46.5542 85.338 46.1217 85.2073 45.6974 85.053C46.1117 85.7384 46.5712 86.6197 46.526 86.5594C46.526 86.6046 46.4808 86.6498 46.4582 86.5594C46.4356 86.469 46.2247 86.2807 45.5618 85.2036C45.5618 85.9568 45.5016 86.9059 45.5016 86.8306C45.4981 86.8386 45.4923 86.8455 45.4849 86.8503C45.4776 86.8551 45.469 86.8577 45.4602 86.8577C45.4514 86.8577 45.4428 86.8551 45.4354 86.8503C45.428 86.8455 45.4223 86.8386 45.4187 86.8306C45.4187 86.6724 45.3585 86.1979 45.3585 85.1283C44.8689 85.7083 44.3718 86.228 44.417 86.1828C44.4146 86.1895 44.4106 86.1956 44.4054 86.2005C44.4002 86.2054 44.3939 86.209 44.387 86.211C44.3802 86.2129 44.3729 86.2133 44.3659 86.2119C44.3589 86.2106 44.3523 86.2076 44.3467 86.2032C44.341 86.1988 44.3365 86.1932 44.3335 86.1867C44.3305 86.1802 44.329 86.1731 44.3292 86.166C44.3295 86.1589 44.3314 86.1519 44.3349 86.1456C44.3384 86.1394 44.3432 86.1341 44.3492 86.1301C44.6957 85.6179 44.9593 85.294 45.2832 84.8797C44.6354 84.6462 43.965 84.3449 44.0404 84.3751C44.0304 84.3751 44.0208 84.3711 44.0137 84.364C44.0067 84.357 44.0027 84.3474 44.0027 84.3374C44.0027 84.3274 44.0067 84.3178 44.0137 84.3108C44.0208 84.3037 44.0304 84.2998 44.0404 84.2998C44.3266 84.3675 44.8689 84.5257 45.1928 84.6462C44.6956 83.8177 44.3266 83.0946 44.3642 83.1398C44.3613 83.1353 44.3592 83.1304 44.3582 83.1251C44.3571 83.1199 44.3571 83.1145 44.3582 83.1092C44.3592 83.104 44.3613 83.099 44.3643 83.0945C44.3673 83.0901 44.3711 83.0863 44.3755 83.0833C44.38 83.0803 44.385 83.0783 44.3902 83.0772C44.3955 83.0762 44.4009 83.0762 44.4061 83.0773C44.4114 83.0783 44.4164 83.0804 44.4208 83.0834C44.4252 83.0863 44.4291 83.0902 44.432 83.0946C44.5224 83.313 44.8011 83.6746 45.3359 84.5408V84.4881ZM43.4378 73.1748C43.2778 72.9836 43.1901 72.7423 43.1901 72.4931C43.1901 72.2439 43.2778 72.0026 43.4378 71.8114C44.0479 71.2239 45.4338 71.9847 44.7032 73.3932C44.957 73.6423 45.1501 73.9464 45.2677 74.2821C45.3852 74.6177 45.424 74.9759 45.3811 75.329C45.3811 75.329 43.4152 75.7733 42.6318 74.6511C42.6951 74.0719 42.9848 73.5412 43.4378 73.1748ZM97.3681 50.9775C97.7447 51.2411 98.3548 51.0453 98.4527 50.3146C98.4527 50.2619 98.3924 50.2318 98.3774 50.3146C98.322 50.4131 98.2617 50.5086 98.1966 50.6009C98.1141 50.73 97.9942 50.8309 97.8529 50.8901C97.7116 50.9493 97.5556 50.964 97.4057 50.9323C97.353 50.8796 97.3153 50.9549 97.3681 50.9775Z" fill="black"/>
<path id="Vector_4" fill-rule="evenodd" clip-rule="evenodd" d="M41.969 69.4764C42.097 75.9089 42.0142 75.5021 42.0895 75.5021C49.1999 78.2815 61.1685 81.6936 68.5952 83.6595L68.7232 83.5616C68.7232 82.8611 68.7232 77.7392 68.4445 77.099C68.2939 76.7148 64.0382 75.4871 63.172 75.2461C61.6204 74.8017 42.0744 69.3936 41.969 69.4764ZM42.0594 69.5291C42.0594 69.9058 42.1799 75.2159 42.1724 75.4268C48.8835 77.9953 61.1383 81.5053 68.5349 83.4561C68.5349 82.7933 68.5349 77.8296 68.2713 77.2119C67.1867 76.3759 47.7989 71.126 42.0594 69.5291ZM42.1121 80.6316C42.1498 82.2359 42.2251 86.4991 42.195 86.6046C42.1648 86.71 45.961 88.4575 52.5969 90.6418C57.7489 92.3365 63.3603 93.9108 68.5952 95.2665L68.7232 95.1762C68.7609 94.4681 68.9793 89.4969 68.7232 88.8567C68.3391 87.9302 42.1799 80.5939 42.1121 80.6316ZM42.2025 80.6843C42.2025 81.0609 42.323 86.3861 42.3155 86.5895C48.1454 89.4517 61.8539 93.3082 68.5274 95.033C68.5274 94.3928 68.7609 89.5496 68.5274 88.9395C67.4277 87.998 43.5056 81.0534 42.1799 80.6843H42.2025ZM58.8636 56.5512C60.2559 57.0854 61.5929 57.7539 62.8557 58.5473C61.0103 61.417 58.2535 63.2699 55.1804 63.2699C57.2442 62.3435 58.3816 58.7506 58.8636 56.5512ZM50.4653 56.2499C53.0727 55.3294 55.9254 55.3856 58.4946 56.4081C58.0803 58.2686 57.2819 60.7692 55.9788 62.1627C54.8113 63.413 53.5761 63.3603 52.514 62.0271C51.452 60.6939 50.7364 58.0953 50.4653 56.2499ZM50.0811 56.4081C50.3975 58.4795 51.1658 61.5827 52.7852 62.9008C50.418 62.0633 48.4631 60.3483 47.3244 58.1104C48.1514 57.4099 49.0779 56.8362 50.0736 56.4081H50.0811ZM59.4436 52.642L64.8592 53.0412C64.5976 54.923 63.9625 56.7336 62.9913 58.3665C61.7317 57.4892 60.3774 56.7565 58.954 56.1821C59.1889 55.0033 59.3499 53.8109 59.4361 52.6119L59.4436 52.642ZM45.6221 51.3088L49.7723 51.7457C49.7519 53.1709 49.835 54.5957 50.0209 56.0089C48.979 56.464 48.0175 57.0847 47.1737 57.8468C46.1469 55.8208 45.6151 53.5802 45.6221 51.3088ZM50.1414 51.7834L59.0444 52.5818C58.9523 53.7353 58.7914 54.8822 58.5623 56.0164C55.9495 54.9649 53.0416 54.9086 50.39 55.8583C50.2168 54.5071 50.1388 53.1455 50.1565 51.7834H50.1414ZM64.3245 46.2397C64.9782 48.3354 65.1709 50.5477 64.8894 52.7249L59.5039 52.2052C59.5944 50.8509 59.5944 49.4921 59.5039 48.1378C61.1746 47.6812 62.7909 47.0448 64.3245 46.2397ZM50.4653 47.6934C53.2201 48.8013 56.261 48.9811 59.1273 48.2056C59.2101 49.5224 59.2101 50.8432 59.1273 52.16L50.2016 51.4068C50.2194 50.165 50.3074 48.9252 50.4653 47.6934ZM46.9101 45.1249C47.823 46.1349 48.9229 46.9585 50.1489 47.5503C49.9544 48.8173 49.8387 50.0952 49.8024 51.3766C48.8534 51.3013 46.0364 51.1055 45.6447 51.0829C45.6439 49.0325 46.0671 47.004 46.8875 45.1249H46.9101ZM50.5255 47.3017C50.7456 45.7589 51.1294 44.244 51.6704 42.7824C54.3443 35.8303 58.5172 38.926 59.1273 47.8139C56.2723 48.5761 53.2476 48.3965 50.5029 47.3017H50.5255ZM47.008 44.9065C51.0603 36.1541 61.176 36.8245 64.2642 46.0439C62.7072 46.7547 61.0886 47.322 59.4285 47.7386C59.3109 46.1094 59.0154 44.498 58.5473 42.9331C56.2876 35.8754 51.693 38.1954 50.1866 47.1436C48.9923 46.5989 47.9075 45.8408 46.9854 44.9065H47.008ZM97.3982 47.9043V47.5277C97.4062 47.4798 97.3948 47.4306 97.3665 47.3911C97.3383 47.3515 97.2955 47.3248 97.2475 47.3168C97.1996 47.3088 97.1504 47.3202 97.1109 47.3484C97.0713 47.3767 97.0446 47.4195 97.0366 47.4674V47.8742C97.0326 47.9221 97.0479 47.9697 97.0789 48.0064C97.11 48.0431 97.1544 48.066 97.2023 48.07C97.2503 48.074 97.2979 48.0588 97.3346 48.0277C97.3713 47.9966 97.3942 47.9522 97.3982 47.9043Z" fill="black"/>
</g>
</g>
</svg>
