<svg width="151" height="151" viewBox="0 0 151 151" fill="none" xmlns="http://www.w3.org/2000/svg">
<g id="Logged-Out-1--Streamline-Milano">
<g id="Logged-Out-1--Streamline-Milano.svg">
<path id="Vector" fill-rule="evenodd" clip-rule="evenodd" d="M73.3257 50.8195C73.5917 51.3727 73.9424 51.8809 74.3652 52.3259C74.7644 52.7025 74.3652 53.0792 73.9208 53.3277C73.8605 53.3277 73.9208 53.4407 73.9208 53.4181C74.787 53.1545 74.9301 52.5896 74.4932 52.1527C74.2673 51.9343 73.3107 50.6463 73.3709 50.7442C73.3709 50.7141 73.2881 50.7668 73.3257 50.8195ZM71.6461 54.7739C71.7051 55.0634 71.848 55.3291 72.0569 55.5381C72.2658 55.747 72.5316 55.8899 72.8211 55.9489C72.8331 55.9489 72.8446 55.9537 72.853 55.9621C72.8615 55.9706 72.8663 55.9821 72.8663 55.9941C72.8663 56.0061 72.8615 56.0176 72.853 56.0261C72.8446 56.0345 72.8331 56.0393 72.8211 56.0393C72.6266 56.0365 72.4349 55.9928 72.2584 55.9111C72.0819 55.8293 71.9246 55.7113 71.7967 55.5648C71.5469 55.258 71.3971 54.8821 71.3674 54.4877C71.3652 54.4632 71.3705 54.4387 71.3826 54.4173C71.3947 54.396 71.413 54.3789 71.4351 54.3682C71.4572 54.3576 71.4821 54.3539 71.5063 54.3578C71.5305 54.3616 71.553 54.3728 71.5707 54.3897C71.9259 54.6977 72.3682 54.8873 72.8361 54.9321C73.5216 55.0375 73.6873 54.9321 73.7023 55.0074C73.7098 55.0157 73.7139 55.0264 73.7139 55.0375C73.7139 55.0486 73.7098 55.0594 73.7023 55.0676C73.3578 55.1623 72.9974 55.185 72.6437 55.1345C72.2899 55.0839 71.9504 54.9612 71.6461 54.7739ZM87.1849 37.465C86.954 38.001 86.8884 38.5937 86.9966 39.1672C87.04 39.4666 87.143 39.7541 87.2995 40.0129C87.4561 40.2716 87.663 40.4964 87.908 40.6737C87.9532 40.7189 88.021 40.6737 87.9683 40.6059C87.689 40.3033 87.4748 39.9466 87.3387 39.558C87.2027 39.1693 87.1478 38.7569 87.1774 38.3462C87.1822 38.07 87.215 37.7949 87.2753 37.5252C87.2979 37.4424 87.2075 37.4047 87.1849 37.465ZM103.552 36.8097C103.874 37.3387 104.06 37.9389 104.095 38.5571C104.09 39.1744 103.892 39.7747 103.53 40.2745C103.526 40.2794 103.523 40.2851 103.521 40.2912C103.519 40.2973 103.519 40.3036 103.519 40.3099C103.52 40.3162 103.522 40.3223 103.525 40.3279C103.528 40.3334 103.532 40.3383 103.537 40.3423C103.542 40.3462 103.548 40.3492 103.554 40.3509C103.56 40.3527 103.566 40.3532 103.573 40.3525C103.579 40.3518 103.585 40.3499 103.591 40.3469C103.596 40.3438 103.601 40.3397 103.605 40.3347C103.962 39.9845 104.204 39.5341 104.3 39.0432C104.395 38.5523 104.339 38.044 104.14 37.5855C104.017 37.2802 103.844 36.9976 103.628 36.7494C103.624 36.7445 103.619 36.7404 103.613 36.7373C103.608 36.7342 103.602 36.7323 103.595 36.7316C103.589 36.7309 103.583 36.7315 103.577 36.7332C103.57 36.735 103.565 36.7379 103.56 36.7419C103.555 36.7458 103.551 36.7507 103.548 36.7563C103.545 36.7618 103.543 36.7679 103.542 36.7742C103.541 36.7805 103.542 36.7869 103.544 36.793C103.545 36.7991 103.548 36.8047 103.552 36.8097ZM105.352 39.4309C105.451 39.8955 105.43 40.3774 105.292 40.8319C105.132 41.2794 104.875 41.6859 104.539 42.0219C104.494 42.0596 104.539 42.1349 104.599 42.0973C104.933 41.8948 105.207 41.6062 105.391 41.2616C105.575 40.917 105.664 40.5292 105.646 40.1389C105.639 39.878 105.577 39.6216 105.465 39.3857C105.463 39.3783 105.458 39.3715 105.453 39.3658C105.447 39.3601 105.44 39.3555 105.433 39.3524C105.426 39.3492 105.418 39.3475 105.41 39.3474C105.402 39.3473 105.394 39.3488 105.386 39.3518C105.379 39.3548 105.372 39.3592 105.366 39.3647C105.361 39.3703 105.356 39.377 105.353 39.3843C105.35 39.3917 105.348 39.3995 105.348 39.4075C105.348 39.4155 105.35 39.4235 105.352 39.4309ZM71.2243 51.9719C71.1791 51.8665 71.1339 51.761 71.0962 51.648C71.0942 51.6222 71.0865 51.5971 71.0735 51.5747C71.0606 51.5522 71.0427 51.533 71.0213 51.5184C71 51.5037 70.9756 51.4941 70.9499 51.4901C70.9243 51.4861 70.8982 51.488 70.8734 51.4955C70.8485 51.503 70.8257 51.516 70.8066 51.5334C70.7875 51.5509 70.7725 51.5725 70.7628 51.5965C70.7531 51.6206 70.7489 51.6465 70.7506 51.6723C70.7522 51.6982 70.7597 51.7233 70.7723 51.746C70.81 51.8665 70.8627 51.9795 70.9079 52.0924C70.9118 52.118 70.9213 52.1424 70.9358 52.1639C70.9503 52.1853 70.9695 52.2032 70.9918 52.2162C71.0142 52.2293 71.0392 52.2372 71.065 52.2393C71.0908 52.2414 71.1167 52.2378 71.1409 52.2286C71.1651 52.2193 71.1869 52.2048 71.2047 52.1861C71.2226 52.1673 71.236 52.1448 71.244 52.1202C71.252 52.0956 71.2544 52.0695 71.2509 52.0438C71.2475 52.0182 71.2384 51.9936 71.2243 51.9719ZM74.5234 50.5408C74.4706 50.4354 74.433 50.3299 74.3878 50.2169C74.3813 50.1957 74.3708 50.1759 74.3567 50.1587C74.3426 50.1415 74.3253 50.1273 74.3057 50.1168C74.2861 50.1063 74.2647 50.0997 74.2426 50.0975C74.2205 50.0953 74.1981 50.0975 74.1769 50.1039C74.1556 50.1104 74.1358 50.1209 74.1186 50.135C74.1014 50.1491 74.0872 50.1664 74.0767 50.186C74.0662 50.2056 74.0597 50.227 74.0575 50.2492C74.0553 50.2713 74.0575 50.2936 74.0639 50.3149C74.1091 50.4354 74.1543 50.5483 74.207 50.6689C74.2123 50.6936 74.2229 50.7168 74.2382 50.737C74.2534 50.7572 74.2729 50.7738 74.2952 50.7856C74.3176 50.7974 74.3422 50.8043 74.3675 50.8056C74.3927 50.8069 74.418 50.8026 74.4414 50.7931C74.4648 50.7836 74.4859 50.7691 74.5031 50.7506C74.5204 50.7322 74.5333 50.7101 74.5412 50.6861C74.549 50.662 74.5514 50.6366 74.5483 50.6115C74.5453 50.5864 74.5367 50.5623 74.5234 50.5408ZM90.5066 41.7131C90.5593 41.7131 90.6045 41.6529 90.5518 41.6227C90.1399 41.4031 89.7846 41.0908 89.514 40.7105C89.2435 40.3301 89.065 39.892 88.9926 39.4309C88.9469 39.1212 88.9469 38.8065 88.9926 38.4969C88.9926 38.4849 88.9879 38.4734 88.9794 38.4649C88.9709 38.4565 88.9594 38.4517 88.9474 38.4517C88.9355 38.4517 88.924 38.4565 88.9155 38.4649C88.907 38.4734 88.9022 38.4849 88.9022 38.4969C88.6899 39.1405 88.7414 39.842 89.0454 40.4477C89.357 41.0374 89.8784 41.4889 90.5066 41.7131Z" fill="black"/>
<path id="Vector_2" fill-rule="evenodd" clip-rule="evenodd" d="M129.237 8.40576C127.677 2.85456 67.3749 2.72651 55.572 5.69418C53.0186 6.33442 49.3505 10.3415 49.0718 10.6654C48.9814 10.8989 48.5822 15.6291 47.8892 25.4284C47.6708 25.4284 34.143 23.8166 31.9813 23.5981C30.3393 23.4324 23.8014 22.8449 22.1895 22.7621C22.1775 22.7641 22.1662 22.7694 22.1569 22.7774C22.1476 22.7854 22.1407 22.7957 22.1368 22.8073C20.9247 23.1737 19.767 23.7006 18.6946 24.3739C18.6946 24.3739 19.5307 100.509 20.8412 137.356C20.8412 137.356 23.5905 138.863 24.8107 138.863C24.8202 138.871 24.8322 138.875 24.8446 138.875C24.857 138.875 24.869 138.871 24.8785 138.863L44.1458 132.084C44.1665 133.783 44.3353 135.476 44.6504 137.145C45.0195 138.185 45.3208 138.373 46.0213 138.652C49.7873 140.076 61.5827 141.544 66.0267 142.011C67.6612 142.177 71.2992 142.448 74.1614 142.651C75.3214 144.248 77.3174 146.086 78.3418 146.418C79.095 146.696 79.9085 147.54 80.3001 144.821C80.4993 144.279 80.7281 143.748 80.9856 143.231C93.3986 143.623 110.308 142.915 121.381 140.505C123.218 139.97 126.359 137.07 127.7 135.714C131.18 96.4115 134.351 26.5884 129.237 8.40576ZM24.8559 138.825C24.8559 138.9 22.0916 22.8299 22.182 22.8299C23.7637 22.9654 61.417 27.3492 62.1627 27.4847C62.1627 28.2379 61.4095 42.7072 61.3567 44.5451C61.0664 44.7325 60.8114 44.9696 60.6035 45.2456C59.6243 46.5712 59.0971 47.0533 56.0315 48.1379C52.9659 49.2225 54.6682 50.2996 53.4781 51.6404C52.288 52.9811 50.1941 52.612 49.8476 54.4725C49.5011 56.3329 51.354 56.943 52.0395 57.7716C52.7249 58.6001 52.5215 59.504 51.2185 60.5509C49.9154 61.5979 48.9588 62.6449 49.8401 64.317C50.5933 65.8837 53.5459 66.1172 54.0355 66.1473C52.6646 67.134 49.4409 69.5895 48.537 71.0131V71.1411C44.0704 71.6609 38.4891 74.5683 34.6477 77.4832C34.8209 76.3459 34.4669 75.0955 33.3748 75.3968C33.2837 75.4338 33.2042 75.4946 33.1446 75.5727C33.085 75.6509 33.0474 75.7436 33.0358 75.8412C32.9182 75.767 32.7831 75.725 32.6442 75.7196C32.5052 75.7142 32.3672 75.7456 32.2443 75.8105C32.1213 75.8754 32.0176 75.9717 31.9436 76.0894C31.8697 76.2072 31.8281 76.3425 31.8231 76.4814C31.5473 76.4152 31.257 76.4472 31.0021 76.5718C30.4899 76.7903 30.5803 77.1593 30.6632 77.7092C30.6632 77.8372 30.7912 77.7092 30.264 77.8448C29.7367 77.9803 29.1568 78.2515 28.7575 78.4097C28.7575 78.4097 28.6446 76.0069 28.5994 75.1181C28.5788 74.7108 28.41 74.3251 28.1248 74.0335C27.9153 73.8331 27.6486 73.703 27.3616 73.6614C27.0747 73.6198 26.782 73.6687 26.5242 73.8013C26.2663 73.934 26.0563 74.1437 25.9234 74.4013C25.7904 74.659 25.7411 74.9517 25.7823 75.2386C26.2117 84.8647 25.8727 84.925 26.5883 85.6406C26.763 85.8176 26.9815 85.9452 27.2215 86.0104C27.4615 86.0756 27.7145 86.0761 27.9548 86.0118C28.1951 85.9475 28.414 85.8208 28.5894 85.6445C28.7648 85.4681 28.8904 85.2485 28.9534 85.0079C29.089 84.5785 29.0362 84.7216 28.8329 80.0668C29.2531 80.059 29.6707 79.9983 30.0757 79.886C30.1544 80.1365 30.3061 80.3578 30.5114 80.5216C30.7168 80.6853 30.9663 80.784 31.2281 80.8049C32.0438 80.8579 32.8585 80.6887 33.5857 80.3153C33.7514 80.353 34.5648 80.5639 35.8001 80.7748C41.0726 81.6937 47.49 81.6786 52.1449 79.0424C52.962 79.9732 53.9792 80.7071 55.1201 81.189H55.2256C56.5738 80.2852 58.6075 78.8315 59.9708 77.7243C59.8202 81.3096 58.3288 124.017 58.2987 126.962L24.8559 138.825ZM62.7728 27.5073C71.013 25.7674 114.368 26.5733 114.368 26.5733C114.519 57.7113 112.297 104.689 110.225 129.636C103.929 130.156 100.306 130.457 97.0667 130.585C96.2081 131.956 95.259 131.775 95.1159 130.638C92.6077 130.683 90.1447 130.638 86.6347 130.472C87.2987 127.901 87.8242 125.296 88.2089 122.669C90.5595 123.953 92.9986 125.068 95.5076 126.005C95.3193 126.826 94.6866 131.331 95.8766 131.368C96.6826 131.368 97.707 129.169 98.1363 128.167C98.4677 127.301 99.462 125.569 99.2887 124.175C99.1833 123.422 98.9046 123.316 98.3623 123.143C98.2191 123.098 97.9028 122.932 97.5111 122.804C97.2798 122.427 97.0283 122.062 96.7579 121.712C94.8958 119.319 92.7822 117.132 90.4535 115.189L93.6848 107.348H93.8204C94.1369 106.989 94.3914 106.579 94.5736 106.136C94.7846 105.685 94.8975 105.195 94.905 104.697C98.1108 99.7099 99.3733 93.7192 98.4527 87.8625C97.8518 84.5936 96.5178 81.5033 94.551 78.824C94.792 78.2214 95.0255 77.6037 95.2364 76.956V76.8656C94.4832 75.9994 87.7645 67.9927 86.951 67.2018C88.7025 66.3612 90.4095 65.431 92.0654 64.4149C92.081 64.4036 92.0938 64.3889 92.1029 64.372C92.1121 64.355 92.1172 64.3362 92.1181 64.317C92.0711 62.8054 91.7175 61.3191 91.0787 59.9483C90.1319 57.9058 88.877 56.0209 87.3578 54.3595C87.3415 54.3509 87.3234 54.3464 87.305 54.3464C87.2867 54.3464 87.2686 54.3509 87.2523 54.3595C84.8119 54.8792 82.2811 55.542 79.8633 56.235C69.3182 59.2931 73.7396 58.8788 75.344 56.4007C75.9081 55.3744 76.1323 54.1956 75.9842 53.0338C75.9842 51.6253 74.538 49.0568 73.83 47.8517L74.1388 47.6935C75.118 47.1738 74.892 45.0497 71.947 44.2061C70.4158 43.7826 68.7934 43.8219 67.2846 44.3191C66.2376 44.1534 66.7573 44.3944 68.0378 43.7467C68.8002 43.4064 69.4337 42.831 69.8455 42.1047C70.2003 41.4542 70.315 40.6996 70.1694 39.9731C70.1559 39.9542 70.1376 39.9393 70.1164 39.93C70.0952 39.9207 70.0718 39.9174 70.0489 39.9203C68.2411 40.0258 67.036 42.5114 66.9757 42.5867C67.1058 42.1405 67.1817 41.6802 67.2017 41.2159C67.2872 40.1477 66.9997 39.083 66.3882 38.203C66.3769 38.1889 66.3626 38.1775 66.3463 38.1696C66.33 38.1618 66.3122 38.1577 66.2941 38.1577C66.276 38.1577 66.2581 38.1618 66.2418 38.1696C66.2255 38.1775 66.2112 38.1889 66.1999 38.203C65.7809 38.7252 65.4831 39.3339 65.3281 39.9852C65.1731 40.6365 65.1647 41.3141 65.3036 41.9691C65.4674 42.7777 65.79 43.5457 66.2527 44.2287L65.409 44.1383C64.7841 43.9269 64.1216 43.8497 63.4648 43.912C62.808 43.9743 62.1718 44.1747 61.5978 44.4999C61.9894 35.0847 62.2681 28.5242 62.3058 27.5751L62.7427 27.6278C62.7586 27.6318 62.7756 27.6293 62.7897 27.6208C62.8038 27.6124 62.814 27.5986 62.818 27.5826C62.822 27.5667 62.8195 27.5498 62.811 27.5356C62.8025 27.5215 62.7888 27.5113 62.7728 27.5073ZM95.5678 125.855C95.4473 125.81 88.2918 122.51 88.2616 122.495C88.5027 120.914 88.6081 119.904 88.6232 119.761C88.9094 119.053 89.64 117.298 90.4535 115.332C97.0065 121.592 97.1722 122.699 97.4207 122.865C97.1646 125.343 95.613 125.787 95.5678 125.855ZM97.6166 123.113C97.9287 124.09 98.3322 125.036 98.8217 125.938C98.656 126.442 98.4451 126.962 98.1589 127.708C97.3892 127.872 96.6596 128.187 96.0122 128.634C95.8874 128.347 95.7361 128.072 95.5603 127.813C95.5603 127.346 95.6206 126.307 95.6507 125.99C96.7202 125.651 97.4735 124.725 97.6166 123.113ZM61.4622 76.4137C61.1174 79.093 61.3747 81.8154 62.2154 84.3827C63.3226 87.3955 64.9496 91.0788 67.1791 93.3158C67.3373 93.9862 68.2713 94.4607 68.919 94.6867C68.9944 95.8165 69.5819 103.394 71.9319 108.922C71.8811 109.237 71.8949 109.56 71.9726 109.869C72.0503 110.179 72.1902 110.469 72.3838 110.723C72.4871 110.811 72.6069 110.877 72.7362 110.919C72.8655 110.96 73.0018 110.975 73.137 110.964C73.8903 113.457 75.6603 116.869 78.0555 118.014C77.6563 123.083 77.8145 123.814 77.468 129.674C71.0614 129.212 64.6911 128.339 58.3966 127.06C58.4644 122.902 59.903 84.5861 60.2119 77.5284C60.64 77.1836 61.0474 76.8139 61.4321 76.4212L61.4622 76.4137ZM73.3028 110.949C75.279 110.668 77.203 110.097 79.0121 109.254C78.9594 109.676 78.387 114.489 78.1158 117.886C75.9239 116.658 74.169 113.276 73.2726 110.956L73.3028 110.949ZM72.5495 110.572C72.3528 110.341 72.2047 110.072 72.1141 109.782C72.0235 109.492 71.9923 109.187 72.0223 108.885C72.4064 108.779 78.4548 107.002 79.2155 107.213C79.2155 107.213 79.1552 107.966 79.0046 109.141C78.8841 109.216 73.1295 111.303 72.542 110.58L72.5495 110.572ZM69.2429 94.5436C67.4352 93.9937 67.4503 93.2556 67.3674 93.1803C65.153 90.9809 63.4959 87.2524 62.3962 84.3149C61.7124 82.3822 61.3981 80.3381 61.4697 78.2892C61.51 76.2269 61.806 74.1775 62.351 72.1881C62.351 72.1761 62.3462 72.1646 62.3378 72.1562C62.3293 72.1477 62.3178 72.1429 62.3058 72.1429C62.2938 72.1429 62.2823 72.1477 62.2738 72.1562C62.2654 72.1646 62.2606 72.1761 62.2606 72.1881C61.8608 73.53 61.5909 74.9072 61.4547 76.3007C60.3022 77.5661 56.5964 80.0668 55.1804 81.0083C51.6327 79.5018 49.4559 74.9223 48.7328 71.2165C49.5915 69.8682 52.8981 67.2545 54.1635 66.3281C62.1702 60.4153 65.3413 60.2572 66.5313 59.504C66.3355 61.4247 66.6293 63.85 68.4972 64.3019C69.0014 64.4384 69.5353 64.417 70.0269 64.2405C70.5185 64.0641 70.9441 63.7411 71.2465 63.3152C72.4893 61.8088 72.7529 59.0746 72.7529 59.0746V58.585C76.8278 57.2443 82.8008 55.5345 87.1921 54.608C89.4517 57.0409 91.8018 60.9275 91.8469 64.2869C89.3237 65.8611 84.9776 68.2488 82.0551 68.9719C82.0431 68.9719 82.0316 68.9766 82.0232 68.9851C82.0147 68.9936 82.0099 69.0051 82.0099 69.0171C82.0099 69.0291 82.0147 69.0406 82.0232 69.049C82.0316 69.0575 82.0431 69.0623 82.0551 69.0623C83.6901 68.6305 85.2774 68.035 86.7929 67.2847C87.2674 67.6688 94.6338 76.5266 95.0104 76.9861C93.8427 80.5034 91.9184 83.7221 89.3731 86.4157C86.8277 89.1095 83.7231 91.2127 80.2775 92.5777C76.752 93.918 73.0069 94.5873 69.2354 94.5511L69.2429 94.5436ZM27.0176 79.7052C27.5181 79.921 28.0546 80.0411 28.5994 80.0592C28.6747 81.8443 28.7952 84.3902 28.7952 84.3902C28.8134 84.5527 28.7982 84.7171 28.7505 84.8734C28.7027 85.0297 28.6235 85.1746 28.5177 85.2992C28.4118 85.4237 28.2816 85.5253 28.1351 85.5976C27.9885 85.67 27.8287 85.7115 27.6654 85.7198C27.5022 85.728 27.339 85.7028 27.1859 85.6456C27.0328 85.5883 26.893 85.5004 26.7752 85.3871C26.6573 85.2739 26.5639 85.1377 26.5007 84.987C26.4374 84.8362 26.4057 84.6742 26.4075 84.5107C26.3623 83.5541 25.9782 76.6095 25.9179 75.2311C25.8945 75.0159 25.9264 74.7984 26.0105 74.599C26.0946 74.3995 26.2281 74.2248 26.3985 74.0914C26.5689 73.958 26.7705 73.8702 26.9843 73.8363C27.198 73.8024 27.4169 73.8237 27.6202 73.8979C27.8522 74.0004 28.0504 74.1667 28.1917 74.3773C28.3331 74.588 28.4117 74.8344 28.4186 75.088C28.4186 75.4947 28.4638 76.3534 28.5391 78.5001C28.4589 78.5331 28.3756 78.5583 28.2906 78.5754C28.1914 78.5826 28.0924 78.5607 28.0054 78.5126C27.9185 78.4644 27.8475 78.3921 27.801 78.3042C27.1231 77.9352 26.5205 78.3042 26.4979 78.6959C26.4592 78.8981 26.4885 79.1075 26.5811 79.2914C26.6738 79.4753 26.8246 79.6234 27.0101 79.7127L27.0176 79.7052ZM27.1005 79.5094C26.8067 79.3889 26.6335 79.1855 26.641 78.6733C26.641 78.372 27.1381 78.0707 27.7106 78.357C27.7667 78.4619 27.8503 78.5497 27.9525 78.6107C28.0547 78.6717 28.1715 78.7038 28.2906 78.7034C28.6521 78.7034 30.4372 77.7845 31.0021 78.0255C31.195 78.1382 31.3397 78.3178 31.4089 78.5302C31.7403 79.2382 29.1492 80.3906 27.1155 79.5169L27.1005 79.5094ZM31.6198 78.4473C31.5981 78.2455 31.5161 78.0548 31.3844 77.9003C31.2527 77.7458 31.0775 77.6345 30.8816 77.5811C30.8214 77.1518 30.7611 76.9183 31.1001 76.7752C31.2068 76.6961 31.3326 76.6466 31.4647 76.6318C31.5967 76.6171 31.7304 76.6375 31.852 76.691C31.9736 76.7446 32.0789 76.8293 32.1572 76.9367C32.2354 77.0441 32.2839 77.1703 32.2977 77.3025C32.3626 77.4772 32.4056 77.6594 32.4257 77.8448C32.4296 77.8546 32.4364 77.8629 32.4451 77.8689C32.4538 77.8748 32.4641 77.8779 32.4747 77.8779C32.4852 77.8779 32.4955 77.8748 32.5042 77.8689C32.513 77.8629 32.5197 77.8546 32.5236 77.8448C32.5236 77.9653 32.599 76.8129 31.9211 76.4965C32.0566 75.7433 33.2392 75.5475 33.4275 77.0012C33.4497 77.2266 33.4497 77.4536 33.4275 77.6791C33.4275 77.7468 33.5179 77.7619 33.5254 77.6791C33.5254 77.8071 33.9095 76.4212 33.1337 75.8563C33.1491 75.784 33.1828 75.717 33.2316 75.6615C33.2804 75.6061 33.3427 75.5642 33.4124 75.5399C34.1204 75.4119 34.3464 75.9768 34.4594 76.6773C34.5053 76.9561 34.528 77.2383 34.5272 77.5209L34.241 77.7468C34.1882 77.7468 34.241 77.8598 34.3012 77.8222C39.747 73.8904 45.2229 71.7287 48.5069 71.2315C49.0416 74.0511 50.2684 76.6937 52.0771 78.9219C47.4524 81.4376 41.035 81.3999 35.8604 80.594C34.4745 80.368 33.6007 80.1571 33.6007 80.1571C33.4652 80.1195 32.3429 80.8426 31.2432 80.707C31.0021 80.6837 30.7736 80.5887 30.587 80.4343C30.4004 80.2799 30.2643 80.0732 30.1962 79.8408C30.8816 79.6374 31.9135 79.0876 31.6348 78.4549L31.6198 78.4473ZM66.5389 44.2212H66.3129C66.772 43.1448 67.3917 42.1442 68.1508 41.2535C68.5981 40.6863 69.2343 40.2987 69.9434 40.1614C70.1543 41.4343 69.5216 42.8729 67.6838 43.7617C66.8025 44.1609 66.5313 44.1157 66.5389 44.2212ZM66.2828 44.0404C65.7203 43.21 65.4197 42.2301 65.4197 41.2272C65.4197 40.2242 65.7203 39.2443 66.2828 38.4139C66.9833 39.4759 67.2921 41.2686 66.5087 43.4378C66.3958 43.7241 66.2828 43.935 66.2828 44.0404ZM67.036 44.5752C66.2225 45.5469 64.8517 47.7613 65.2358 53.2523C65.4919 53.8096 62.6523 48.5823 65.3639 44.2739C65.9589 44.3718 66.6443 44.5451 67.036 44.5752ZM66.7121 53.9076C67.9097 53.8624 67.0737 49.9532 67.0737 49.9532C68.2562 49.908 72.0524 48.6501 73.702 47.8969C74.3573 49.0644 75.7356 51.663 75.7507 53.0338C75.8941 54.1525 75.675 55.2877 75.1255 56.2727C74.4622 57.1785 73.5779 57.8993 72.5571 58.3666C72.4592 58.4193 72.4893 58.457 72.5571 59.0746C72.4153 60.5365 71.9217 61.9424 71.1184 63.1721C70.8391 63.5759 70.4411 63.8828 69.9795 64.0502C69.5179 64.2175 69.0156 64.2371 68.5424 64.1061C66.7573 63.7069 66.4711 61.2514 66.6368 59.4211C67.2846 58.7733 67.0285 56.1371 65.4919 55.655C63.8348 55.173 63.6992 54.2766 64.1512 53.6364C64.6031 52.9962 65.5296 53.9603 66.6895 53.9076H66.7121ZM94.2798 82.8537L96.9989 86.9963C96.9989 86.9963 93.5417 88.4275 92.5474 86.8382C91.5532 85.2489 94.3175 82.9064 94.2798 82.8537ZM81.0308 97.0066C81.0308 96.9946 81.0355 96.9831 81.044 96.9746C81.0525 96.9662 81.064 96.9614 81.0759 96.9614C81.0879 96.9614 81.0994 96.9662 81.1079 96.9746C81.1164 96.9831 81.1211 96.9946 81.1211 97.0066C80.546 99.2316 80.1456 101.498 79.9235 103.786C80.5487 103.59 84.7968 102.279 94.7995 104.81C94.8129 105.268 94.7147 105.723 94.5133 106.136C94.338 106.526 94.0987 106.885 93.8053 107.198C89.0632 106.384 84.2604 105.976 79.449 105.977C79.9085 101.97 80.0139 99.6203 81.0308 96.9689V97.0066ZM73.8677 142.297C71.1712 142.087 67.7515 141.83 66.1095 141.65C60.4121 141.096 54.7477 140.244 49.1396 139.096C48.5973 138.976 46.0288 138.388 45.6371 137.997C45.4111 137.733 45.2419 137.425 45.14 137.093C44.8344 135.428 44.6482 133.745 44.5826 132.054L50.6084 129.892C58.8937 133.184 68.1583 134.6 77.1065 135.323C77.0086 136.987 76.7826 140.595 76.8579 141.936C74.5079 140.151 72.3085 139.774 73.8677 142.26V142.297ZM80.2248 144.911C79.2278 143.862 78.1499 142.892 77.001 142.011C76.9257 140.701 77.2496 136.912 77.581 131.986C78.1836 123.03 77.8296 124.017 78.3794 117.125C78.5527 114.948 78.8916 111.047 79.4415 106.173C84.1968 106.285 88.9409 106.687 93.6471 107.378C93.5718 107.424 88.4273 119.648 88.3746 119.724C87.9807 123.054 87.3947 126.358 86.6196 129.621C85.181 135.496 84.6387 135.112 80.2248 144.873V144.911ZM121.35 140.339C110.527 142.599 93.4136 143.352 81.2417 142.923C81.558 142.26 84.6989 136.023 84.714 135.993V136.068C106.03 137.786 118.112 133.658 118.112 133.658C121.452 95.0515 122.551 56.2837 121.403 17.5498C114.767 13.9796 99.9365 14.4014 99.9365 14.4014C99.6037 15.6849 99.1809 16.9434 98.6711 18.1674C94.0237 18.9207 74.425 19.0864 74.425 19.0864C73.8527 17.3529 73.4417 15.5702 73.1973 13.7611C67.5181 12.9175 55.798 15.6291 55.798 15.6291C54.8565 17.1355 54.1937 25.1046 54.1033 26.2495C53.7493 26.2043 49.9079 25.6845 48.1981 25.4962C48.2734 23.7563 49.23 10.7709 49.23 10.7106C85.6555 2.89975 125.455 11.3885 125.455 11.3885C129.922 88.8794 121.968 136.761 121.35 140.301V140.339Z" fill="black"/>
<path id="Vector_3" fill-rule="evenodd" clip-rule="evenodd" d="M72.3092 69.9136C70.998 69.6347 69.6335 69.7509 68.3882 70.2475C67.143 70.744 66.0729 71.5986 65.3133 72.7033C64.5537 73.8079 64.1387 75.113 64.1208 76.4534C64.1028 77.7939 64.4827 79.1096 65.2124 80.2342C65.9422 81.3588 66.9889 82.2418 68.2204 82.7715C69.4519 83.3012 70.8128 83.4539 72.1311 83.2103C73.4494 82.9667 74.6658 82.3376 75.6266 81.4027C76.5874 80.4678 77.2495 79.269 77.529 77.9579C77.7147 77.087 77.727 76.188 77.5652 75.3123C77.4033 74.4366 77.0705 73.6013 76.5858 72.8543C76.1011 72.1072 75.4739 71.463 74.7401 70.9584C74.0063 70.4539 73.1803 70.0988 72.3092 69.9136ZM93.6403 35.7853C93.4384 36.2623 93.4065 36.7941 93.5499 37.2918C93.6586 37.7729 93.8388 38.235 94.0847 38.6626C94.0947 38.6694 94.1065 38.6731 94.1186 38.6731C94.1307 38.6731 94.1425 38.6694 94.1525 38.6626C94.2128 38.6626 94.1525 38.6024 94.0019 38.1128C93.7382 37.2617 93.4219 35.9962 94.1374 35.4539C94.3483 35.3033 94.5818 35.4539 94.725 35.7025C94.3032 36.2749 94.5216 37.5705 94.725 38.2484C94.7289 38.2582 94.7356 38.2665 94.7443 38.2725C94.7531 38.2784 94.7634 38.2815 94.7739 38.2815C94.7844 38.2815 94.7947 38.2784 94.8035 38.2725C94.8122 38.2665 94.819 38.2582 94.8229 38.2484C94.6683 37.6742 94.6023 37.0799 94.627 36.4858C94.7174 35.5519 95.2823 35.4765 95.4254 35.7326C95.4665 35.8341 95.4665 35.9475 95.4254 36.049C95.3213 36.7986 95.3213 37.559 95.4254 38.3086C95.4932 38.7154 95.6514 39.1899 96.0506 39.0618C96.4498 38.9338 96.7134 38.7907 96.7059 38.3839C96.7059 37.6307 96.4197 37.2089 96.7511 37.111C96.962 37.0508 97.3687 37.8642 97.4591 38.2936C97.5326 38.5308 97.542 38.7833 97.4865 39.0253C97.4309 39.2674 97.3123 39.4905 97.1428 39.6719C97.1357 39.6886 97.1321 39.7066 97.1321 39.7247C97.1321 39.7428 97.1357 39.7607 97.1428 39.7774C97.6266 42.221 97.9138 44.6995 98.0014 47.189C98.2048 52.9511 97.2859 60.1067 91.9757 62.3965C91.9155 62.3965 91.9757 62.5095 92.0134 62.4869C95.2522 61.1386 96.9017 58.0354 97.6625 54.6534C98.6718 50.1793 98.2877 44.1084 97.3763 39.7925C98.3404 38.753 97.2407 36.7796 96.7134 36.9001C96.1862 37.0206 96.4272 37.5177 96.4799 38.0149C96.5327 38.512 96.6231 38.6852 96.013 38.8735C95.4028 39.0618 95.5008 36.6741 95.6213 36.0565C95.7418 35.4389 95.1769 35.3033 94.8229 35.6573C94.5894 35.1903 94.0697 35.0698 93.7232 35.71C93.6175 35.6631 93.4995 35.6517 93.3868 35.6775C93.274 35.7033 93.1727 35.7649 93.098 35.8531C92.1866 36.8097 93.098 39.092 93.6855 40.267C92.3297 42.3383 88.6164 51.7234 87.5091 54.4651C87.5091 54.5254 87.5769 54.563 87.5995 54.4651C87.6221 54.3672 91.4635 45.4265 91.8853 44.4699C93.8889 39.9506 93.9943 40.3272 93.919 40.1841C93.473 39.3937 93.1408 38.5442 92.9323 37.6609C92.84 37.3745 92.8125 37.0713 92.8515 36.773C92.8906 36.4748 92.9954 36.1889 93.1583 35.936C93.2138 35.8649 93.2897 35.8124 93.3758 35.7855C93.4619 35.7586 93.5542 35.7586 93.6403 35.7853ZM27.2066 83.1175C27.2066 83.1175 28.1331 83.012 28.1331 82.9969C28.1331 82.9819 27.8318 81.7843 27.8243 81.7993C28.0502 81.2419 27.6812 81.0461 27.5381 81.0461C27.3949 81.0461 27.1012 81.3097 27.3196 81.7993C27.3196 81.837 27.184 82.9141 27.2066 83.1175Z" fill="black"/>
</g>
</g>
</svg>
