<svg width="151" height="151" viewBox="0 0 151 151" fill="none" xmlns="http://www.w3.org/2000/svg">
<g id="No-Connection-1--Streamline-Milano">
<g id="No-Connection-1--Streamline-Milano.svg">
<path id="Vector" fill-rule="evenodd" clip-rule="evenodd" d="M73.5971 32.1323C73.5769 32.1594 73.5669 32.1929 73.5691 32.2267C73.5713 32.2605 73.5853 32.2925 73.6088 32.3169C73.6323 32.3413 73.6637 32.3566 73.6974 32.36C73.7311 32.3634 73.765 32.3548 73.7929 32.3356C74.4708 31.9665 75.5178 32.3959 76.1053 32.8177C76.1306 32.8378 76.1619 32.8488 76.1943 32.8488C76.2266 32.8488 76.258 32.8379 76.2833 32.8178C76.3086 32.7977 76.3264 32.7697 76.3337 32.7382C76.3411 32.7067 76.3375 32.6737 76.3237 32.6444C75.8191 31.4619 74.275 31.0552 73.5971 32.1323ZM69.1079 25.504C68.2794 25.8429 67.7295 26.8296 69.0401 26.2572C69.0401 26.2572 69.4167 26.0915 69.7481 25.9634C71.0889 25.4738 69.846 25.2027 69.1079 25.504ZM77.1824 24.4344C76.8253 24.3165 76.4439 24.2932 76.0751 24.3666C75.3219 24.5624 75.0131 24.9014 76.5723 25.0294C78.1314 25.1575 77.9582 24.7658 77.1824 24.4344ZM70.7198 27.1158C70.6966 27.0267 70.6396 26.95 70.5608 26.9022C70.4821 26.8544 70.3878 26.8391 70.298 26.8597C70.2072 26.8828 70.1292 26.941 70.0812 27.0215C70.0332 27.102 70.0191 27.1982 70.0419 27.2891C70.0946 27.515 70.1699 27.7561 70.2377 27.9594C70.2726 28.0405 70.3366 28.1056 70.417 28.142C70.4975 28.1784 70.5886 28.1834 70.6725 28.156C70.7565 28.1287 70.8272 28.0709 70.8707 27.9942C70.9143 27.9174 70.9276 27.8271 70.9081 27.741C70.8478 27.5226 70.8026 27.3041 70.7198 27.1158ZM75.9546 25.9559C75.8614 25.9654 75.7755 26.0108 75.7151 26.0825C75.6546 26.1542 75.6244 26.2465 75.6307 26.34V26.9878C75.6234 27.0381 75.6269 27.0894 75.6411 27.1382C75.6553 27.187 75.6798 27.2322 75.7131 27.2707C75.7463 27.3092 75.7874 27.34 75.8337 27.3612C75.8799 27.3823 75.9301 27.3933 75.981 27.3933C76.0318 27.3933 76.0821 27.3823 76.1283 27.3612C76.1745 27.34 76.2157 27.3092 76.2489 27.2707C76.2821 27.2322 76.3067 27.187 76.3209 27.1382C76.3351 27.0894 76.3386 27.0381 76.3312 26.9878V26.2873C76.3284 26.2408 76.3163 26.1953 76.2958 26.1534C76.2753 26.1116 76.2468 26.0742 76.2118 26.0434C76.1768 26.0126 76.1361 25.989 76.0919 25.974C76.0478 25.959 76.0011 25.9528 75.9546 25.9559ZM99.3721 26.6564C99.0106 25.4814 97.5569 25.4663 96.9091 25.8203C96.6642 25.8793 96.4386 26.0006 96.2544 26.1725C96.0702 26.3444 95.9336 26.561 95.8578 26.8013C95.782 27.0416 95.7696 27.2974 95.8218 27.5439C95.8741 27.7903 95.9891 28.0191 96.1559 28.208C97.3234 29.5563 99.9069 28.4415 99.3721 26.6564ZM97.0146 26.0764C97.7301 25.8504 98.9654 26.2421 98.7695 27.2213C98.6854 27.5076 98.4998 27.7535 98.2475 27.9129C97.9952 28.0723 97.6934 28.1344 97.3987 28.0875C97.1592 28.0821 96.9288 27.9948 96.7459 27.84C96.563 27.6853 96.4387 27.4725 96.3938 27.2372C96.3488 27.0019 96.3859 26.7583 96.4989 26.547C96.6119 26.3358 96.7939 26.1697 97.0146 26.0764ZM34.9194 29.1571C32.0873 28.7729 29.4737 31.3112 31.417 33.6763C31.9712 34.2434 32.7046 34.6012 33.4926 34.6891C34.2807 34.777 35.0749 34.5895 35.7404 34.1584C36.2825 33.8451 36.7021 33.357 36.9306 32.7741C37.1591 32.1912 37.183 31.5479 36.9983 30.9497C36.8876 30.4686 36.6263 30.0353 36.2524 29.7129C35.8786 29.3905 35.4116 29.1958 34.9194 29.1571ZM35.7856 31.8762C35.6461 32.3361 35.3453 32.7303 34.9385 32.9863C34.5317 33.2423 34.0462 33.3429 33.5712 33.2696C33.1776 33.2679 32.7968 33.1299 32.4936 32.879C32.1904 32.6282 31.9834 32.28 31.9079 31.8938C31.8325 31.5076 31.8931 31.1071 32.0797 30.7606C32.2662 30.4141 32.567 30.1429 32.9309 29.9931C34.121 29.6316 36.1095 30.3471 35.7856 31.8762ZM106.083 26.7166C105.413 24.5022 101.142 26.1969 102.89 28.2683C104.035 29.6165 106.618 28.4942 106.083 26.7166ZM104.622 26.1367C106.061 26.4455 105.631 28.2607 104.11 28.1477C102.588 28.0348 102.634 25.7224 104.622 26.1367ZM112.32 26.4982C112.256 26.2275 112.107 25.984 111.896 25.8027C111.685 25.6214 111.422 25.5116 111.145 25.4889C109.518 25.2403 108.004 26.7091 109.134 28.0498C110.264 29.3905 112.862 28.2909 112.32 26.4982ZM110.859 25.9182C112.305 26.227 111.868 28.0423 110.354 27.9293C108.84 27.8163 108.87 25.504 110.859 25.9182ZM60.7472 61.9973C60.9054 61.9973 61.2594 60.7771 61.6059 58.4195C61.8108 57.2461 61.8615 56.0509 61.7565 54.8643C61.7491 54.8329 61.7314 54.8049 61.7061 54.7848C61.6808 54.7647 61.6494 54.7538 61.6172 54.7538C61.5849 54.7538 61.5535 54.7647 61.5282 54.7848C61.5029 54.8049 61.4852 54.8329 61.4778 54.8643C61.0182 57.0984 60.7336 59.3649 60.6267 61.6433C60.6267 61.7638 60.6041 61.9822 60.7472 61.9973Z" fill="black"/>
<path id="Vector_2" fill-rule="evenodd" clip-rule="evenodd" d="M22.9881 35.4539C24.2084 34.1433 28.3661 30.4676 33.7667 25.6169C36.861 25.5272 39.9024 26.4328 42.4437 28.2005C42.4714 28.2247 42.5036 28.2432 42.5385 28.255C42.5733 28.2668 42.6102 28.2716 42.6469 28.2692C42.6836 28.2667 42.7195 28.2571 42.7525 28.2408C42.7855 28.2244 42.8149 28.2018 42.8392 28.1741C42.8634 28.1464 42.8819 28.1142 42.8937 28.0793C42.9055 28.0445 42.9103 28.0076 42.9079 27.9709C42.9054 27.9342 42.8958 27.8983 42.8795 27.8653C42.8631 27.8323 42.8405 27.8029 42.8128 27.7787C40.8428 25.686 38.1493 24.4227 35.2806 24.2461C37.126 22.589 39.0467 20.8114 41.1105 18.9736C43.199 19.6401 45.158 20.6591 46.9028 21.9864C46.9587 22.0354 47.0318 22.0601 47.1059 22.0551C47.1801 22.0502 47.2493 22.016 47.2982 21.9601C47.3471 21.9041 47.3719 21.831 47.3669 21.7569C47.362 21.6827 47.3278 21.6136 47.2718 21.5646C45.7744 20.1065 44.03 18.9257 42.1198 18.0772C44.0405 16.3072 46.014 14.4769 47.9723 12.6239C49.9626 13.5566 51.8276 14.7358 53.5235 16.1339C53.5795 16.1829 53.6525 16.2076 53.7267 16.2027C53.8009 16.1977 53.87 16.1635 53.919 16.1076C53.9679 16.0516 53.9926 15.9786 53.9877 15.9044C53.9827 15.8302 53.9485 15.7611 53.8926 15.7121C52.319 14.257 50.5944 12.9743 48.7481 11.8858C50.1717 10.5375 51.5576 9.14409 52.9737 7.81843C53.0286 7.76849 53.0615 7.69877 53.065 7.62461C53.0685 7.55045 53.0425 7.47792 52.9925 7.42299C52.9426 7.36805 52.8729 7.33521 52.7987 7.33168C52.7245 7.32814 52.652 7.35422 52.5971 7.40416C50.9852 8.80514 49.4863 9.97263 47.8066 11.3736C36.7795 5.6341 22.9505 8.20257 14.3036 16.7139C14.2563 16.7675 14.2308 16.8368 14.232 16.9082C14.2332 16.9796 14.2611 17.048 14.3102 17.0999C14.3593 17.1519 14.426 17.1835 14.4972 17.1888C14.5685 17.194 14.6391 17.1724 14.6952 17.1282C23.1463 9.33992 36.2447 7.53221 46.8952 12.1042C45.193 13.5579 43.2497 15.215 40.6737 17.4822C37.2405 16.2981 33.5407 16.1184 30.0089 16.9644C26.4772 17.8103 23.2602 19.6466 20.736 22.2576C20.6821 22.3095 20.651 22.3808 20.6496 22.4556C20.6482 22.5305 20.6766 22.6028 20.7285 22.6568C20.7804 22.7107 20.8517 22.7418 20.9265 22.7432C21.0014 22.7446 21.0738 22.7163 21.1277 22.6643C23.6616 20.5904 26.6436 19.135 29.8374 18.4133C33.0313 17.6916 36.3494 17.7236 39.5288 18.5066C37.4424 20.3821 34.904 22.702 33.2469 24.2461C31.6703 24.3259 30.1255 24.7195 28.7029 25.4037C27.2802 26.0878 26.0083 27.0489 24.9616 28.2306C24.9076 28.2825 24.8765 28.3538 24.8751 28.4286C24.8737 28.5035 24.9021 28.5759 24.954 28.6298C25.006 28.6837 25.0772 28.7148 25.1521 28.7162C25.2269 28.7176 25.2993 28.6893 25.3532 28.6373C27.1532 27.2625 29.2463 26.3217 31.4694 25.8881C28.4339 28.803 24.9013 32.3883 22.5965 35.0773C22.5705 35.1316 22.5624 35.1927 22.5731 35.2518C22.5839 35.311 22.613 35.3653 22.6564 35.407C22.6997 35.4487 22.7551 35.4757 22.8147 35.4841C22.8742 35.4925 22.9349 35.482 22.9881 35.4539ZM134.02 112.982C135.285 110.226 135.33 102.784 133.703 101.616C132.95 99.0404 127.248 91.7267 125.456 89.5122C129.433 85.0833 130.382 80.4737 127.286 74.9902C125.32 71.533 121.705 70.2902 117.78 70.3655C117.682 66.2379 116.274 61.8165 114.7 57.9977C111.258 49.4637 105.895 42.6622 96.2008 38.1203C95.6729 37.8734 95.1323 37.6547 94.5814 37.465C94.6045 37.4311 94.6197 37.3924 94.6257 37.3518C94.6318 37.3112 94.6285 37.2697 94.6162 37.2305C94.6038 37.1914 94.5828 37.1555 94.5546 37.1257C94.5263 37.0958 94.4917 37.0728 94.4533 37.0583C91.459 36.2908 88.4007 35.7991 85.3168 35.5895L83.8104 31.0702C84.3193 29.8916 84.7006 28.6619 84.9477 27.402C85.4295 27.1534 85.8393 26.7851 86.1378 26.3325C86.8458 26.6187 87.8777 25.6847 88.0284 25.0294C88.4575 24.9186 88.8289 24.6495 89.0678 24.2762C89.2191 24.0304 89.2991 23.7475 89.2991 23.459C89.2991 23.1704 89.2191 22.8875 89.0678 22.6417C89.2402 22.477 89.374 22.2761 89.4594 22.0535C89.5448 21.8309 89.5797 21.5921 89.5617 21.3544C89.5437 21.1166 89.4732 20.8858 89.3552 20.6786C89.2372 20.4714 89.0748 20.2929 88.8795 20.1561C89.118 19.6721 89.1716 19.1177 89.0301 18.597C91.0337 18.484 92.5477 18.1149 92.1183 17.1809C91.689 16.2469 89.3013 14.5296 88.1489 13.7688C88.3673 11.5092 88.5029 6.44004 86.6424 5.10685C85.136 4.04482 80.7598 5.37048 78.9672 5.10685C76.0748 4.51934 70.8023 2.62877 69.8457 4.73024C69.0645 6.86886 68.45 9.06477 68.0079 11.2983C67.6539 11.3661 65.8913 11.5167 64.2418 11.8933C63.6543 12.0289 62.5019 12.285 62.7354 12.8499C63.112 13.9195 64.9423 14.8083 66.8178 15.4636C66.8178 15.9682 66.9609 15.7272 66.4638 15.9607C66.0268 16.2335 65.676 16.6244 65.4521 17.0883C65.2281 17.5522 65.1402 18.0701 65.1984 18.5819C65.2704 18.9293 65.4373 19.25 65.6804 19.5083C64.3246 20.4499 64.174 21.527 64.9272 22.6041C65.1909 22.878 65.528 23.0699 65.8982 23.1567C66.2683 23.2436 66.6557 23.2217 67.0136 23.0937C67.208 23.0301 67.3874 22.9275 67.5409 22.7924C67.6388 23.2895 67.7593 23.8017 67.9024 24.3365C67.6118 24.4888 67.3555 24.6989 67.1492 24.9541C66.6902 25.6467 66.4877 26.478 66.5768 27.3041C66.6893 28.09 67.0987 28.8028 67.7208 29.2959C68.3429 29.7891 69.1303 30.0251 69.9211 29.9555C71.081 32.4034 72.5799 34.535 74.4027 35.4615C74.4027 35.4991 74.4027 35.5067 74.4027 35.4615C74.3274 35.8871 74.2821 36.3175 74.2671 36.7495C73.7951 36.8499 73.3206 36.9629 72.8435 37.0884C72.7004 36.9528 72.497 36.7947 72.3313 36.8474C72.1656 36.9001 66.5542 38.8735 66.3056 39.2727C66.2748 39.3169 66.2583 39.3695 66.2583 39.4234C66.2583 39.4772 66.2748 39.5298 66.3056 39.574C57.714 43.9221 51.1114 51.3924 47.8518 60.4532C37.8717 60.0766 24.8486 59.9937 23.071 60.2197C22.8526 60.2197 22.6643 60.3101 22.6492 60.536C22.4835 63.0894 30.558 82.3793 31.5221 83.8857C31.6652 84.1042 33.8495 84.3377 37.0959 84.5636C35.6949 88.4954 36.0263 92.5025 38.6626 95.7489C36.2447 99.1609 34.3316 102.121 34.0002 103.002C33.5859 104.14 32.9231 104.509 33.0059 107.959C33.0487 110.002 33.3732 112.03 33.97 113.984C33.5106 121.095 32.2828 138.456 33.0812 144.271C33.1641 144.911 33.3373 146.026 33.8345 146.38C34.7383 147.035 36.4632 147.133 37.0507 146.124C37.8039 144.889 38.9865 125.991 39.7698 123.964C41.3365 123.573 56.3406 123.136 73.3557 122.797C73.4896 122.92 73.6305 123.036 73.7775 123.143C74.35 123.535 74.9149 123.497 75.0128 122.767C98.3625 122.307 124.838 122.014 126.194 122.277C127.015 123.294 131.655 142.034 132.076 142.727C132.281 143.097 132.584 143.403 132.95 143.614C133.317 143.824 133.734 143.93 134.156 143.921C134.579 143.912 134.991 143.787 135.348 143.561C135.705 143.334 135.993 143.015 136.181 142.637C137.085 140.769 135.225 120.733 134.02 112.982ZM125.207 89.7909C128.657 94.0993 131.986 98.8295 133.071 101.3C130.465 100.336 122.526 99.7936 112.192 99.53C117.215 96.5398 121.577 93.7227 125.207 89.806V89.7909ZM94.0089 37.4424C91.561 41.3667 90.288 45.5018 88.5481 49.991C88.0393 49.3204 87.3626 48.796 86.5863 48.4706C85.81 48.1453 84.9616 48.0306 84.1267 48.1381C84.7519 45.4642 87.6894 37.9546 89.0151 36.3126C89.8286 36.4331 93.2708 37.2089 94.0089 37.4424ZM70.2977 4.93361C71.0509 3.38199 75.879 5.13698 78.8165 5.68683C80.2326 5.93539 83.0948 5.28762 84.9251 5.35541C85.9947 5.35541 86.4315 5.58891 86.891 6.62835C87.1344 7.26056 87.2964 7.92116 87.3731 8.59424C87.5459 10.3248 87.5459 12.0684 87.3731 13.799C87.3128 14.1906 86.3412 14.4166 85.9495 14.4844C81.611 15.2903 68.4447 13.5052 68.2338 11.4715C68.7564 9.24344 69.4463 7.05793 70.2977 4.93361ZM63.127 12.7369C63.6919 12.2021 67.3375 11.6975 67.9853 11.592C68.2113 13.9873 85.5428 16.8646 87.8476 14.3714C88.9322 15.1246 90.9734 16.6311 91.4254 17.3843C89.3013 19.0263 64.6787 16.3976 63.127 12.7369ZM78.3345 23.1313C77.8634 22.9072 77.3441 22.803 76.823 22.8281C76.3019 22.8533 75.7951 23.0069 75.3477 23.2753C74.9004 23.5437 74.5263 23.9186 74.259 24.3666C73.9916 24.8146 73.8391 25.3217 73.8152 25.8429C73.5355 25.7749 73.2437 25.7749 72.964 25.8429V25.4512C72.964 25.4133 72.949 25.3769 72.9221 25.35C72.8953 25.3232 72.8589 25.3081 72.8209 25.3081C72.783 25.3081 72.7466 25.3232 72.7197 25.35C72.6929 25.3769 72.6778 25.4133 72.6778 25.4512C72.5648 26.0764 72.6778 25.8956 72.369 26.0613C72.071 25.3044 71.4978 24.6881 70.7644 24.3361C70.031 23.984 69.1916 23.9223 68.4146 24.1632C68.3092 23.749 68.2188 23.3347 68.1435 22.943C68.4456 23.1853 68.8269 23.3071 69.2136 23.2848C69.6003 23.2626 69.965 23.0979 70.2374 22.8225C70.8249 22.2124 70.2374 22.4308 71.209 22.6417C71.535 22.7036 71.8698 22.7036 72.1958 22.6417C72.5817 22.4775 72.9302 22.2367 73.2201 21.9337C73.6422 22.1497 74.1224 22.2246 74.5902 22.1474C75.058 22.0701 75.4886 21.8447 75.8187 21.5044C76.2456 21.7884 76.7603 21.9096 77.269 21.846C77.7778 21.7824 78.2467 21.5382 78.5906 21.1579C78.7632 21.2568 78.9548 21.318 79.1527 21.3374C79.3507 21.3569 79.5505 21.3342 79.7391 21.2709C79.9277 21.2076 80.1007 21.105 80.2468 20.97C80.3928 20.835 80.5087 20.6705 80.5866 20.4875C80.7844 20.5135 80.9856 20.4929 81.1741 20.4273C81.5884 20.2992 81.2946 20.2088 81.5206 20.7888C81.6339 21.0481 81.7983 21.2817 82.0041 21.4759C82.2099 21.67 82.4528 21.8206 82.7182 21.9186C82.7515 22.1921 82.7993 22.4637 82.8613 22.7321C81.6233 23.0772 80.4678 23.6691 79.4643 24.472C79.2136 23.9326 78.8236 23.4698 78.3345 23.1313ZM77.1067 28.1176C74.3575 28.788 72.6778 23.7414 76.4966 23.2895C77.0234 23.2117 77.5603 23.3325 78.0031 23.6284C78.4829 24.0702 78.821 24.6442 78.9747 25.278C79.0897 25.9009 78.9595 26.5441 78.6115 27.0732C78.2634 27.6024 77.7242 27.9766 77.1067 28.1176ZM67.2095 27.1911C67.1424 26.5423 67.2737 25.8883 67.5861 25.3156C67.9056 24.8848 68.3767 24.5914 68.9042 24.4946C69.4493 24.3643 70.0196 24.3851 70.5537 24.5549C70.882 24.7285 71.1686 24.9713 71.3937 25.2667C71.6187 25.5621 71.7769 25.9028 71.8571 26.2654C71.9374 26.628 71.9378 27.0036 71.8584 27.3664C71.779 27.7291 71.6217 28.0703 71.3974 28.3662C71.107 28.7271 70.717 28.9949 70.2758 29.1362C69.8346 29.2774 69.3616 29.286 68.9156 29.1609C68.4695 29.0357 68.0701 28.7824 67.7668 28.4322C67.4635 28.082 67.2697 27.6505 67.2095 27.1911ZM74.5232 36.9076C74.5368 36.4777 74.5847 36.0495 74.6663 35.6272C75.5927 35.9845 76.5862 36.1339 77.5767 36.0649C78.5672 35.9959 79.5304 35.7102 80.3983 35.228C80.6544 35.0623 81.7089 34.2563 81.4905 34.0454C81.272 33.8345 81.3398 34.2111 80.0443 34.7986C75.0279 36.9076 72.5121 34.6706 70.3203 29.963C70.8195 29.8342 71.2739 29.5708 71.6338 29.2016C71.9938 28.8324 72.2455 28.3715 72.3615 27.869C72.3416 28.372 72.3617 28.8757 72.4217 29.3755C72.4329 29.5021 72.4854 29.6216 72.5712 29.7155C72.6569 29.8094 72.7711 29.8726 72.8963 29.8952C73.5214 30.0397 74.1736 30.0163 74.7868 29.8274C75.284 29.4734 74.1391 29.6542 73.1599 29.2851C73.0243 29.2324 73.0921 29.2851 73.077 28.9838C73.0318 28.1553 73.077 27.5602 73.0017 26.6036C73.2866 26.5803 73.5636 26.4982 73.8152 26.3626C73.9384 27.1506 74.3691 27.8576 75.0128 28.3285C77.2724 30.0383 80.4585 27.5753 79.5321 24.8788C80.7179 24.4535 81.8424 23.8736 82.8764 23.1539C82.9339 23.3971 83.0146 23.6342 83.1174 23.8619C83.3208 24.3289 83.72 24.3666 83.9911 23.8619C84.1267 23.6058 84.6992 22.2275 85.2113 22.1898C85.4674 22.1898 86.1152 22.7472 86.2131 23.523C86.3336 24.5172 85.7085 25.2629 85.6482 25.7374C85.249 26.34 84.8046 26.7693 84.5786 26.7769C83.9459 26.7769 84.3828 28.0197 83.0722 30.9271C83.0119 31.0627 84.6389 36.2975 85.0381 36.3126C86.1529 36.3653 87.2977 36.4632 88.4426 36.6139C87.0793 38.625 83.9233 45.3437 83.3509 48.5524C83.4491 49.1768 83.6637 49.7772 83.9836 50.3224C83.1695 50.7642 82.271 51.0286 81.3473 51.0982C79.4948 51.1083 77.7034 50.4352 76.3159 49.2077C76.7904 47.6184 76.8356 48.1682 76.8732 47.8594C77.1595 45.2985 74.6136 39.1824 73.1072 37.3144C74.3801 36.983 74.5157 37.0583 74.5232 36.9076ZM84.315 50.8572C84.5329 51.1675 84.7054 51.5074 84.8272 51.8665C86.1077 57.139 86.5973 58.9392 86.3788 64.2117C83.3427 63.267 80.2095 62.6681 77.0389 62.4266C75.3517 51.6405 74.7793 54.2542 76.12 49.7876C78.5378 51.7385 81.4679 52.3712 84.315 50.8195V50.8572ZM72.3991 37.1261C73.5214 37.7738 76.2933 44.6582 76.1652 47.5129C75.4301 47.6027 74.7232 47.8513 74.0937 48.2415C73.4642 48.6317 72.9271 49.1541 72.5196 49.7726C70.8174 45.5998 69.2507 43.197 66.9007 39.5138C67.7367 39.0618 71.6309 37.4274 72.3991 37.1261ZM66.4939 39.9205C69.0021 44.1084 70.4558 46.3982 72.128 50.6614C72.1522 50.7201 72.1918 50.7713 72.2426 50.8095C72.2934 50.8477 72.3535 50.8715 72.4167 50.8784C72.4799 50.8854 72.5437 50.8752 72.6016 50.8489C72.6595 50.8226 72.7092 50.7813 72.7456 50.7291C74.252 48.4092 76.1953 48.0628 76.0974 48.3942C74.2144 54.8041 74.6738 50.4731 76.4665 62.3889C75.4195 62.3211 74.8094 62.3362 74.8094 62.3362C74.5985 62.3362 74.5307 62.5094 74.3575 62.7731C73.3633 61.8767 71.5028 60.5134 70.1847 60.2197C68.6782 59.941 65.4545 63.4736 65.5449 64.513C65.5635 64.6598 65.6188 64.7995 65.7057 64.9193C65.7926 65.0391 65.9082 65.1351 66.042 65.1984C66.5843 65.4621 67.0287 65.0855 67.5032 64.7013C67.5358 64.8347 67.5997 64.9584 67.6895 65.0622C67.7793 65.1661 67.8925 65.2471 68.0198 65.2986C68.147 65.3501 68.2847 65.3706 68.4215 65.3584C68.5582 65.3462 68.6901 65.3017 68.8063 65.2286C69.0295 65.1183 69.2372 64.979 69.4239 64.8143C69.6122 65.4093 70.2449 65.7784 71.435 64.6185C71.7288 64.9725 72.1882 65.6202 72.4519 65.9291C72.2786 66.2755 71.9246 66.9158 72.0828 67.2547C73.3321 69.6182 74.8982 71.8001 76.7377 73.7399C76.5042 76.3611 76.7377 76.926 77.3478 80.1422C74.4768 79.7776 71.5872 79.5789 68.6933 79.5472C68.6697 79.5468 68.6464 79.5522 68.6255 79.5629C68.6045 79.5737 68.5865 79.5895 68.5731 79.6088C68.5597 79.6282 68.5513 79.6506 68.5486 79.674C68.5459 79.6974 68.549 79.7211 68.5577 79.743C68.5577 79.8184 69.8382 83.3057 70.0642 83.8481C70.0799 83.8816 70.1042 83.9104 70.1346 83.9315C70.165 83.9527 70.2005 83.9655 70.2374 83.9686C71.1111 84.059 76.8958 83.479 77.8675 83.3811C78.1537 85.8667 77.8675 86.7028 77.2423 89.4068C79.9162 90.9132 82.6203 92.5628 85.1887 94.137C86.9739 91.7493 88.9548 89.1582 90.996 86.9588L89.934 87.1321C89.9221 85.8951 89.8341 84.66 89.6704 83.4338C90.809 83.9253 91.9791 84.3405 93.1728 84.6766L93.7151 84.1418C88.2619 82.7032 83.1701 79.2083 79.1555 75.2463C75.7434 71.9096 73.431 68.6105 72.7004 67.0137C73.3326 65.5941 74.0887 64.233 74.9601 62.9463C79.3869 63.0105 83.7743 63.7888 87.953 65.2512C92.2138 66.6843 96.0822 69.0904 99.2513 72.2787C99.3793 72.4142 99.5827 72.2184 99.4547 72.0904C98.5911 71.1659 97.6595 70.3073 96.6678 69.5219C96.6678 69.0775 96.5322 59.7301 96.4418 56.5666C96.4344 56.5351 96.4167 56.5071 96.3914 56.4871C96.3661 56.467 96.3347 56.4561 96.3025 56.4561C96.2702 56.4561 96.2388 56.467 96.2135 56.4871C96.1882 56.5071 96.1705 56.5351 96.1631 56.5666C95.6786 60.7867 95.7622 65.0528 96.4117 69.2507C93.574 67.1128 90.3996 65.4632 87.0191 64.3699C87.2149 58.9844 86.665 56.9808 85.3168 51.7159C85.1134 50.8949 83.8782 49.637 83.9685 48.8762C84.8226 48.7116 85.7067 48.8185 86.497 49.1819C87.2872 49.5453 87.9439 50.1469 88.3748 50.9024C88.409 50.9571 88.4578 51.0012 88.5156 51.0297C88.5735 51.0581 88.6382 51.0699 88.7023 51.0637C88.7665 51.0574 88.8277 51.0333 88.879 50.9942C88.9302 50.9551 88.9695 50.9024 88.9925 50.8421C90.6345 46.6467 92.1861 41.683 94.4307 37.7814C94.9898 37.9836 95.5378 38.2149 96.0727 38.4743C103.183 41.8939 108.011 46.5187 111.303 52.1678C111.305 52.1989 111.319 52.2282 111.34 52.2506C113.138 55.0939 114.56 58.1572 115.573 61.3646C116.693 64.5309 117.261 67.8658 117.253 71.2242C117.012 78.7563 106.588 87.1246 94.393 84.2849C91.3802 87.3882 88.3221 91.0187 85.5804 94.3328C96.9615 101.3 101.888 104.878 102.294 105.157C105.398 103.477 108.32 101.835 111.114 100.193C123.083 100.456 131.986 101.104 133.357 102.219C134.464 103.123 134.555 109.126 133.688 112.011C133.259 113.434 132.935 113.48 132.129 113.668C128.649 114.459 116.568 115.001 102.001 115.302C102.799 113.128 103.345 110.868 103.627 108.569C103.627 107.815 102.806 107.446 102.121 107.409C102.633 106.309 102.701 106.083 102.317 105.767C102.196 105.661 86.763 95.9748 76.9561 89.7156C76.346 89.7156 77.5511 90.16 68.7159 85.0607C67.9175 83.2681 60.3326 61.7638 59.3384 61.4022C58.3441 61.0407 53.9604 60.7093 48.5222 60.4908C51.6883 51.6036 58.1122 44.2509 66.4939 39.9205ZM70.26 63.1798C69.9738 63.4434 68.4447 64.9197 68.1736 64.6411C67.9024 64.3624 69.4089 62.9764 69.439 62.9011C69.6198 62.6902 69.1829 62.1479 68.9419 62.4115C68.1772 63.1864 67.3565 63.9039 66.4864 64.5582C66.3583 64.6335 66.1248 64.5582 66.2303 64.3247C66.6069 63.338 69.0925 60.6339 70.0491 60.7771C71.2316 60.9503 73.4009 62.3889 74.1617 63.0367C73.7474 63.6769 73.0544 64.7691 72.5724 65.6504C71.6459 64.2569 71.4953 63.9632 71.2693 64.1891C70.9962 64.4635 70.6809 64.6924 70.3353 64.867C70.0868 64.9574 69.665 64.7992 70.0868 64.2268C70.2658 64.0196 70.4596 63.8258 70.6667 63.6468C70.7337 63.5979 70.7784 63.5243 70.7911 63.4424C70.8038 63.3605 70.7835 63.2769 70.7345 63.2099C70.6856 63.143 70.6121 63.0983 70.5301 63.0856C70.4482 63.0729 70.3646 63.0932 70.2977 63.1422L70.26 63.1798ZM78.5454 83.3057C80.5414 83.0798 80.6845 83.0195 80.805 82.8162C80.9255 82.6128 81.0536 80.8277 80.2853 80.6243C79.5403 80.45 78.7858 80.3192 78.0257 80.2326C77.4607 77.3553 77.1821 76.5569 77.2724 74.3877C80.565 77.9782 84.5022 80.919 88.8795 83.0572C89.0461 83.9955 89.1467 84.9444 89.1808 85.8968C85.2113 85.7763 80.8954 88.7816 78.2441 87.9983C78.6806 86.4613 78.7884 84.8495 78.5604 83.2681L78.5454 83.3057ZM69.6047 81.5809L68.8515 79.8485C71.0057 79.9841 76.7151 80.7297 78.696 81.0386C77.0992 81.144 70.4257 81.5282 69.6198 81.5432L69.6047 81.5809ZM100.223 117.359C99.8028 115.973 99.4608 114.565 99.1986 113.141C99.9518 111.634 101.225 109.307 101.963 107.763C102.475 107.763 103.153 108.102 103.138 108.599C103.138 109.329 101.187 116.53 100.238 117.321L100.223 117.359ZM37.2315 84.2171C35.3988 84.1822 33.5712 84.0135 31.7631 83.7125C31.0099 82.6806 23.4777 64.0008 23.2367 60.7997C25.9483 60.5511 56.0468 61.003 59.0145 62.0274C60.2573 64.0234 66.17 80.3456 67.7894 84.5034C64.4226 82.5827 61.6658 81.0762 60.0464 80.323C52.3184 76.7528 40.2669 76.6624 37.2315 84.2171ZM39.122 96.2686C41.0126 98.3625 43.7995 100.035 46.2927 101.36C40.6737 101.865 36.5008 102.453 34.7082 103.1C36.0295 100.727 37.5039 98.4426 39.122 96.2611V96.2686ZM39.3028 123.475C38.3538 124.416 37.1335 144.648 36.4556 145.785C36.1016 146.38 34.8287 146.26 34.2412 145.838C32.5841 144.633 34.1207 121.547 34.6103 114.768C37.2993 115.521 51.6556 116.033 68.6255 116.161C69.8065 118.326 71.2046 120.365 72.7983 122.247C55.1655 122.511 39.8451 122.925 39.3028 123.467V123.475ZM68.7611 115.317C68.5728 114.813 69.198 114.286 69.665 114.127C70.1847 114.835 72.8737 117.14 73.9357 118.18C74.1659 119.676 74.2993 121.186 74.3349 122.699C73.1975 122.194 69.0624 116.154 68.7611 115.31V115.317ZM72.3539 109.804C69.3411 113.623 69.4541 113.623 69.5143 113.834C68.7611 114.045 68.0531 114.768 68.3544 115.566C50.6538 115.506 35.8907 115.107 34.4973 114.376C33.7734 112.306 33.3794 110.136 33.3298 107.943C33.2243 104.524 33.9776 103.688 34.0303 103.763C34.8739 102.957 39.7472 102.257 46.9254 101.684C56.7172 106.497 81.8746 111.476 88.4502 112.982C90.7776 113.51 95.9145 114.489 97.8729 114.715C98.5659 114.798 98.4529 114.677 98.7391 114.075C98.822 114.496 98.9048 114.941 98.9877 115.37C93.4741 115.468 87.6894 115.536 81.9198 115.566C83.4714 114.813 85.2038 113.977 87.0567 113.05C82.0102 112.229 77.3252 111.069 72.3539 109.796V109.804ZM135.797 142.471C135.641 142.782 135.403 143.044 135.108 143.229C134.814 143.415 134.475 143.517 134.127 143.523C133.779 143.53 133.436 143.442 133.134 143.269C132.833 143.095 132.584 142.843 132.415 142.539C132.061 141.959 126.804 121.547 126.39 122.074C126.126 121.803 98.9651 121.87 75.058 122.209C74.9938 121.074 74.8681 119.942 74.6814 118.82C75.1559 118.82 80.1573 116.402 80.5941 116.199C86.8458 116.199 93.1578 116.131 99.1534 116.033C99.2532 116.656 99.4542 117.259 99.7484 117.818C100.095 118.293 100.592 118.067 100.938 117.6C101.271 117.095 101.543 116.554 101.752 115.988C104.223 115.943 131.963 115.558 133.575 113.728C134.826 121.78 136.641 140.746 135.797 142.463V142.471Z" fill="black"/>
</g>
</g>
</svg>
