<svg width="151" height="151" viewBox="0 0 151 151" fill="none" xmlns="http://www.w3.org/2000/svg">
<g id="Page-Not-Found-1--Streamline-Milano">
<g id="Page-Not-Found-1--Streamline-Milano.svg">
<path id="Vector" fill-rule="evenodd" clip-rule="evenodd" d="M146.877 23.425C146.877 22.6341 146.817 14.4467 146.357 13.4976C149.061 11.6221 59.7372 7.98409 56.9051 11.238C54.7584 13.6859 53.0637 70.953 54.8789 82.8839C52.9569 83.4648 51.0769 84.177 49.2524 85.0155C41.4717 88.6008 32.5988 104.953 29.0512 112.756C29.0225 112.818 29.0174 112.888 29.0368 112.953C29.0562 113.019 29.0988 113.075 29.1566 113.11L31.0848 114.353C30.3316 115.543 29.6989 116.349 29.4504 116.259C25.27 114.85 16.1862 111.597 11.4786 111.905C11.0418 111.905 10.3187 109.39 9.89686 108.651C9.47506 107.913 9.04573 107.966 8.71431 108.312C8.15693 108.892 8.57873 110.489 8.60133 111.122C7.7276 111.047 5.53574 110.369 4.83525 110.58C4.75081 110.606 4.67383 110.652 4.61068 110.714C4.54752 110.776 4.5 110.852 4.47203 110.936C4.44407 111.02 4.43647 111.109 4.44985 111.196C4.46324 111.284 4.49724 111.367 4.54903 111.438C4.74202 111.729 4.99983 111.972 5.30224 112.146C4.97335 112.089 4.63689 112.089 4.308 112.146C4.21367 112.158 4.12367 112.193 4.04574 112.248C3.9678 112.302 3.90424 112.375 3.86054 112.459C3.81683 112.544 3.79428 112.637 3.79481 112.732C3.79534 112.828 3.81895 112.921 3.8636 113.005C4.09833 113.381 4.4318 113.686 4.82772 113.886C4.70444 113.879 4.58124 113.901 4.46762 113.949C4.354 113.998 4.253 114.071 4.17242 114.165C3.08025 115.724 8.32264 116.726 8.89508 117.118C9.46753 117.509 24.7879 129.553 30.5275 131.233C37.6679 133.334 39.7016 129.915 44.6653 125.282L45.2905 124.642C45.2378 126.412 44.6201 132.702 44.364 136.483C44.1682 139.39 44.1833 139.827 44.6051 139.88C45.6897 140.015 80.1569 140.633 88.1184 140.678C89.5194 140.678 89.6248 140.678 89.7001 140.512C90.1445 139.631 89.2934 126.036 89.2934 124.695L89.3762 124.635C96.6523 132.483 99.2132 134.75 105.676 132.845C111.445 131.135 126.721 119.076 127.331 118.662C127.941 118.247 133.161 117.283 132.061 115.717C131.981 115.622 131.88 115.547 131.766 115.498C131.653 115.448 131.53 115.425 131.406 115.43C131.802 115.23 132.135 114.926 132.37 114.549C132.413 114.465 132.435 114.373 132.435 114.279C132.435 114.184 132.412 114.092 132.368 114.008C132.325 113.925 132.262 113.853 132.185 113.799C132.108 113.745 132.019 113.71 131.925 113.698C131.594 113.653 131.258 113.665 130.931 113.736C131.216 113.554 131.458 113.312 131.639 113.028C131.828 112.674 131.752 112.274 131.361 112.169C130.607 111.981 128.348 112.674 127.594 112.711C127.594 112.086 128.039 110.452 127.481 109.902C127.389 109.784 127.255 109.705 127.107 109.681C126.959 109.658 126.808 109.691 126.683 109.774C126.096 110.165 125.764 111.694 125.237 112.787C125.154 112.945 124.898 113.464 124.717 113.457C120.01 113.148 110.963 116.379 106.745 117.811C106.369 117.939 104.855 115.551 104.644 115.189C104.999 114.988 105.332 114.751 105.638 114.481C105.721 114.308 105.472 113.879 105.254 113.472C103.514 110.286 95.3718 97.2703 93.2553 94.7245C90.489 91.5286 87.2321 88.7929 83.6066 86.6199C108.568 87.3731 141.604 87.6066 144.527 86.2131C144.612 86.1817 144.689 86.1295 144.75 86.0611C144.81 85.9927 144.853 85.9104 144.873 85.8215C145.31 82.8086 147.133 43.4907 146.786 23.5003L146.877 23.425ZM57.4775 11.5317C62.1851 9.31728 141.755 11.9987 145.754 13.7914C146.161 15.5614 146.206 21.3235 146.221 23.1388C127.76 24.1632 73.5436 23.7564 56.0088 22.3404C56.4456 15.9983 56.9503 11.7728 57.4775 11.5317ZM59.3304 82.2587C59.6229 82.9983 60.0668 83.6685 60.6337 84.2263C61.2005 84.7841 61.8778 85.2171 62.622 85.4976C64.363 86.0506 66.1809 86.3226 68.0075 86.3035C70.704 86.2207 71.7736 85.4524 73.28 82.7634C76.163 83.4925 78.9455 84.5727 81.5654 85.9796C80.315 90.7475 77.5583 97.3758 73.4231 100.027C69.8529 102.287 64.5804 102.4 61.2285 99.6806C56.7093 96.0803 53.6964 89.8888 52.1071 84.3C54.4431 83.3872 56.8622 82.7036 59.3304 82.2587ZM62.9158 82.2135C61.8421 80.8029 60.4231 79.6926 58.7957 78.9898C58.5068 77.5549 58.3355 76.0989 58.2835 74.6362C58.2383 73.6043 58.3287 73.8152 57.8692 73.4762C54.0504 70.6592 56.6942 68.3318 57.7412 68.7084C58.1199 68.9013 58.4514 69.1756 58.7118 69.5115C58.9722 69.8474 59.1552 70.2368 59.2476 70.6517C59.2587 70.7151 59.2939 70.7717 59.3459 70.8096C59.3979 70.8475 59.4625 70.8638 59.5263 70.855C60.2795 70.7571 63.2246 66.7124 63.6012 66.0194C65.9437 68.9795 73.5813 69.6348 75.9464 68.1133C76.3155 68.8666 76.4134 71.7589 76.4209 73.0544C75.7163 75.8007 74.7529 78.4741 73.5436 81.0385C72.3686 81.1289 70.3801 82.2361 69.3783 82.8387C65.4692 80.8502 63.0061 82.319 62.9158 82.2135ZM44.4394 125.034C39.4757 129.553 37.5173 132.845 30.6555 130.751C25.1796 129.109 9.79141 116.974 9.18884 116.575C8.93048 116.438 8.65766 116.329 8.37537 116.251C8.01382 116.131 4.20255 115.016 4.60928 114.429C4.82772 114.105 7.40372 115.031 7.65981 115.122C7.72832 115.144 7.80273 115.14 7.86818 115.109C7.93362 115.079 7.98529 115.026 8.01287 114.959C8.04045 114.892 8.0419 114.818 8.01695 114.75C7.99199 114.683 7.94246 114.627 7.87824 114.594C7.79539 114.594 4.7072 113.427 4.35319 112.711C4.35319 112.659 4.35319 112.651 4.39838 112.636C5.08381 112.493 7.36606 113.261 8.01382 113.51C8.08027 113.528 8.15108 113.522 8.21325 113.492C8.27542 113.462 8.32477 113.411 8.35225 113.348C8.37973 113.285 8.38348 113.214 8.36282 113.148C8.34216 113.082 8.29848 113.026 8.23979 112.99C7.94603 112.869 5.63366 111.943 5.09887 111.22C4.66201 110.625 8.40549 111.883 8.94781 111.597C9.02149 111.543 9.07976 111.471 9.11677 111.387C9.15379 111.304 9.16825 111.213 9.15871 111.122C9.15871 110.632 8.7821 108.998 9.10599 108.659C9.10599 108.659 9.15871 108.599 9.18884 108.599H9.2265C9.91946 109.149 10.3413 112.463 11.4861 112.365C16.0054 112.041 25.044 115.152 29.2997 116.545C29.7667 116.703 30.4973 115.792 31.356 114.474C35.2577 116.997 43.0911 122.142 45.2302 124.213C44.8762 124.642 44.5825 124.943 44.4394 125.034ZM106.873 118.255C108.38 117.765 112.997 116.138 117.464 115.061C124.152 113.442 124.506 114.398 125.139 113.931C125.892 113.374 126.299 111.197 126.864 110.414C127.014 110.203 127.03 110.256 127.097 110.324C127.211 110.519 127.257 110.747 127.225 110.971C127.225 112.433 126.555 113.449 127.79 113.299C128.747 113.178 131.428 112.448 131.097 112.885C130.637 113.517 128.717 114.391 127.986 114.647C127.927 114.681 127.883 114.735 127.86 114.8C127.838 114.864 127.839 114.934 127.863 114.997C127.888 115.061 127.934 115.113 127.994 115.146C128.054 115.178 128.123 115.188 128.189 115.174C127.888 115.287 131.202 114.044 131.858 114.323C132.084 114.813 128.415 116.229 128.34 116.259C128.276 116.29 128.226 116.343 128.2 116.409C128.173 116.475 128.172 116.548 128.196 116.615C128.221 116.681 128.269 116.737 128.332 116.77C128.394 116.803 128.467 116.811 128.536 116.794C128.724 116.643 131.406 115.83 131.549 116.101C131.692 116.372 131.022 116.718 130.743 116.854C129.462 117.472 127.399 117.946 126.977 118.24C126.412 118.616 110.971 130.773 105.495 132.43C99.2208 134.351 96.7201 132.129 89.557 124.514C91.6284 123.045 100.855 117.63 104.328 115.476C105.45 117.163 106.324 118.406 106.873 118.255ZM93.0896 94.9052C95.3944 97.6997 104.764 112.982 105.277 114.368C104.019 115.295 91.5229 122.533 89.2181 124.16C89.4666 118.94 89.3084 110.414 89.4365 108.96C89.4365 108.93 89.4246 108.902 89.4034 108.88C89.3822 108.859 89.3535 108.847 89.3235 108.847C89.2935 108.847 89.2648 108.859 89.2436 108.88C89.2224 108.902 89.2105 108.93 89.2105 108.96C88.2238 116.56 89.4817 138.268 89.2557 140.143C86.4161 140.219 48.6423 139.488 44.816 139.322C44.7951 138.954 44.7951 138.584 44.816 138.215C45.2453 127.301 46.0814 132.943 45.5014 115.31C45.3206 109.713 45.185 109.585 45.1474 107.559C45.1474 107.529 45.1355 107.501 45.1143 107.479C45.0931 107.458 45.0644 107.446 45.0344 107.446C45.0044 107.446 44.9757 107.458 44.9545 107.479C44.9333 107.501 44.9214 107.529 44.9214 107.559C44.8235 112.659 45.0721 120.484 45.3733 123.603C42.3605 120.854 32.5687 114.564 29.6311 112.741C33.1185 105.209 41.8106 88.9699 49.4332 85.4373C50.2542 85.0532 51.0677 84.6841 51.8661 84.3903C53.3725 90.0922 56.3854 96.3364 60.9047 100.072C64.4222 102.965 69.9433 102.942 73.7093 100.509C77.9876 97.7675 80.7896 91.094 82.0851 86.1303C86.2378 88.3898 89.9623 91.3597 93.0896 94.9052ZM144.308 85.6557C141.295 86.9965 107.401 86.6726 82.4316 85.9269C79.6825 84.2454 76.6856 83.0075 73.5512 82.2587C74.9289 79.4981 76.0265 76.6064 76.8277 73.6269C77.1214 73.3708 79.2605 67.8648 79.2681 66.0345C79.2681 59.1124 73.5512 54.5705 66.0717 55.7154C63.7963 56.0499 61.6611 57.0183 59.9104 58.5098C58.7165 59.3774 57.7284 60.4974 57.0163 61.7901C56.3042 63.0828 55.8856 64.5165 55.7903 65.9893C55.7075 66.7952 55.6472 68.7234 55.9485 69.2281C54.781 70.8701 55.9485 72.5799 57.824 73.9658C57.9069 76.5117 58.05 79.2911 59.1195 81.8445C57.9219 82.0554 56.7093 82.3265 55.474 82.673C54.1483 74.1692 54.7208 40.4929 55.956 22.6718C74.7864 24.3289 127.007 24.8561 146.47 23.7564C146.749 43.6263 144.775 82.2964 144.323 85.6859L144.308 85.6557Z" fill="black"/>
<path id="Vector_2" fill-rule="evenodd" clip-rule="evenodd" d="M101.872 42.8202C102.87 41.735 103.737 40.5368 104.456 39.25C104.494 39.2138 104.524 39.1703 104.545 39.1222C104.566 39.0741 104.577 39.0222 104.577 38.9697C104.578 38.9172 104.568 38.8652 104.548 38.8167C104.528 38.7682 104.498 38.7242 104.461 38.6873C104.423 38.6504 104.379 38.6215 104.33 38.6021C104.281 38.5827 104.229 38.5734 104.177 38.5746C104.124 38.5758 104.073 38.5875 104.025 38.6091C103.977 38.6306 103.934 38.6616 103.898 38.7001C102.609 39.4698 101.435 40.4182 100.411 41.5171C99.2857 40.5389 98.0524 39.6923 96.7351 38.9939C96.6557 38.9348 96.5571 38.9074 96.4586 38.917C96.36 38.9265 96.2685 38.9724 96.2019 39.0456C96.1352 39.1188 96.0982 39.2142 96.0979 39.3132C96.0976 39.4122 96.1341 39.5078 96.2004 39.5814C97.0212 40.8125 97.99 41.9382 99.0852 42.9332C98.0839 44.0363 97.2144 45.2521 96.4941 46.5561C96.4222 46.6321 96.3834 46.7334 96.3862 46.838C96.389 46.9425 96.4333 47.0416 96.5092 47.1135C96.5851 47.1854 96.6865 47.2243 96.791 47.2214C96.8955 47.2186 96.9946 47.1744 97.0666 47.0985C98.339 46.2963 99.5035 45.3344 100.531 44.2362C101.653 45.2329 102.89 46.0926 104.215 46.7972C104.251 46.8341 104.294 46.8634 104.342 46.8834C104.39 46.9033 104.441 46.9136 104.493 46.9136C104.545 46.9136 104.596 46.9033 104.644 46.8834C104.692 46.8634 104.736 46.8341 104.772 46.7972C104.845 46.7226 104.885 46.6226 104.885 46.5185C104.885 46.4144 104.845 46.3144 104.772 46.2398C103.966 44.9725 102.991 43.8219 101.872 42.8202Z" fill="black"/>
<path id="Vector_3" fill-rule="evenodd" clip-rule="evenodd" d="M99.9963 31.1078C98.825 31.0512 97.6555 31.2533 96.5711 31.6998C95.4867 32.1464 94.5139 32.8263 93.722 33.6913C91.1912 36.433 90.5811 40.764 90.6263 43.0462C90.8071 50.1189 93.0291 55.5572 100.072 55.4065C101.213 55.3923 102.338 55.1397 103.376 54.665C104.414 54.1902 105.341 53.5038 106.097 52.6498C110.632 47.3622 109.75 31.394 99.9963 31.1078ZM100.049 53.6214C99.0943 53.6929 98.1358 53.5477 97.245 53.1969C96.3542 52.8461 95.5542 52.2986 94.9046 51.5953C93.5413 50.0135 92.6449 47.3546 92.5621 43.0011C92.5013 40.5822 93.0918 38.1914 94.2719 36.079C94.8416 35.0804 95.6712 34.2548 96.6725 33.6898C97.6737 33.1249 98.8094 32.8417 99.9587 32.8703C109.871 32.6745 110.888 53.8248 100.049 53.6214ZM64.2035 15.0115C63.1565 13.7235 60.3922 14.2131 60.4374 16.4728C60.4901 18.0395 61.3036 18.7324 62.6971 18.6948C62.9731 18.7075 63.2485 18.6602 63.5044 18.5559C63.7602 18.4516 63.9904 18.2929 64.1788 18.0909C64.3672 17.8888 64.5095 17.6482 64.5957 17.3857C64.6819 17.1232 64.71 16.8451 64.678 16.5707C64.715 16.0105 64.5463 15.4561 64.2035 15.0115ZM62.6971 18.0997C61.6802 18.0997 61.1454 17.6478 61.1153 16.4502C61.1077 16.2445 61.141 16.0393 61.2134 15.8466C61.2859 15.654 61.3959 15.4776 61.5371 15.3279C61.864 15.0498 62.2792 14.8971 62.7084 14.8971C63.1375 14.8971 63.5527 15.0498 63.8796 15.3279C64.1962 15.6686 64.3875 16.1069 64.4219 16.5707C64.4244 16.7891 64.3794 17.0053 64.29 17.2046C64.2005 17.4038 64.0689 17.5812 63.9041 17.7245C63.7393 17.8678 63.5453 17.9736 63.3356 18.0345C63.1259 18.0953 62.9054 18.1099 62.6895 18.0771L62.6971 18.0997ZM71.4419 15.0643C71.1583 14.7169 70.7721 14.4683 70.3385 14.3539C69.905 14.2395 69.4463 14.2652 69.0283 14.4274C68.6103 14.5896 68.2543 14.8799 68.0113 15.2568C67.7684 15.6337 67.651 16.0778 67.6758 16.5255C67.721 18.0319 68.4818 18.7852 69.9355 18.7475C70.2165 18.7615 70.4972 18.7132 70.7573 18.6058C71.0174 18.4985 71.2505 18.3349 71.4399 18.1268C71.6293 17.9187 71.7703 17.6712 71.8527 17.4022C71.935 17.1331 71.9568 16.8492 71.9164 16.5707C71.9406 16.0283 71.7726 15.4948 71.4419 15.0643ZM69.9355 18.1525C68.9186 18.1525 68.3839 17.7081 68.3537 16.5029C68.3461 16.2972 68.3794 16.0921 68.4518 15.8994C68.5243 15.7067 68.6343 15.5304 68.7755 15.3806C69.1019 15.1045 69.5155 14.953 69.943 14.953C70.3705 14.953 70.7841 15.1045 71.1105 15.3806C71.4218 15.7038 71.6132 16.1237 71.6528 16.5707C71.6665 16.7945 71.6299 17.0186 71.546 17.2265C71.462 17.4345 71.3326 17.621 71.1673 17.7726C71.002 17.9242 70.805 18.0369 70.5906 18.1027C70.3762 18.1684 70.1498 18.1854 69.9279 18.1525H69.9355ZM78.7933 14.9362C78.3904 14.5147 77.8402 14.2652 77.2576 14.2399C76.6751 14.2147 76.1053 14.4156 75.6675 14.8006C75.2573 15.2301 75.0328 15.8037 75.0423 16.3975C75.0875 17.9039 75.8482 18.6571 77.3019 18.6194C77.5801 18.6352 77.8582 18.5894 78.1166 18.4851C78.3749 18.3809 78.607 18.2209 78.7963 18.0165C78.9855 17.8121 79.1273 17.5684 79.2114 17.3028C79.2956 17.0373 79.32 16.7564 79.2829 16.4803C79.3112 15.9234 79.1373 15.375 78.7933 14.9362ZM77.2869 18.0244C76.2625 18.0244 75.7352 17.5725 75.7051 16.3824C75.6977 16.1756 75.7312 15.9694 75.8035 15.7755C75.8759 15.5816 75.9858 15.4039 76.1269 15.2526C76.4546 14.9793 76.8677 14.8296 77.2944 14.8296C77.7211 14.8296 78.1342 14.9793 78.4619 15.2526C78.7844 15.5871 78.979 16.0243 79.0117 16.4878C79.0187 16.7087 78.9769 16.9284 78.8895 17.1313C78.802 17.3343 78.671 17.5155 78.5056 17.6621C78.3403 17.8088 78.1448 17.9172 77.9328 17.9798C77.7209 18.0424 77.4978 18.0577 77.2793 18.0244H77.2869ZM94.8217 59.6245C94.5905 59.5991 94.3565 59.6242 94.1359 59.6983C93.9153 59.7723 93.7135 59.8934 93.5444 60.0532C93.3753 60.2129 93.2429 60.4076 93.1566 60.6236C93.0702 60.8397 93.0318 61.0719 93.0442 61.3042C93.0286 61.6374 93.1193 61.9669 93.3031 62.2452C93.487 62.5234 93.7544 62.7362 94.067 62.8526C94.3795 62.9691 94.7209 62.9833 95.042 62.8932C95.3632 62.803 95.6474 62.6133 95.8537 62.3512C96.411 61.1084 96.1248 59.9635 94.8217 59.6245ZM104.922 59.504C104.692 59.4774 104.458 59.5014 104.237 59.5745C104.016 59.6476 103.814 59.768 103.645 59.9272C103.476 60.0864 103.343 60.2807 103.257 60.4964C103.171 60.7121 103.132 60.9441 103.145 61.1762C103.137 61.6411 103.313 62.0902 103.634 62.4265C104.388 63.1345 105.698 62.8257 105.954 62.2231C106.497 61.0105 106.203 59.8505 104.922 59.504ZM73.4153 45.2456C73.4756 43.7844 75.0272 32.7874 75.1101 32.441C75.128 32.3915 75.136 32.339 75.1336 32.2865C75.1312 32.2339 75.1184 32.1824 75.096 32.1348C75.0736 32.0872 75.0421 32.0445 75.0031 32.0091C74.9641 31.9738 74.9186 31.9465 74.869 31.9288C74.7701 31.8968 74.6626 31.904 74.5687 31.9488C74.4749 31.9936 74.4017 32.0727 74.3644 32.1698C73.4304 34.2637 71.2536 43.0086 71.5549 45.5997C71.5709 45.9593 71.7152 46.3013 71.9616 46.5638C72.9032 47.5128 74.3493 47.6484 75.6825 47.6409C77.6409 47.5957 80.0135 47.3998 82.0171 47.1965C82.0429 49.7396 82.295 52.2754 82.7703 54.7738C82.7713 54.8253 82.7824 54.876 82.803 54.9232C82.8236 54.9703 82.8532 55.0129 82.8903 55.0486C82.9274 55.0843 82.9711 55.1123 83.019 55.1311C83.0669 55.1498 83.118 55.159 83.1695 55.158C83.2727 55.1541 83.3704 55.1103 83.4421 55.0358C83.5137 54.9614 83.5537 54.8621 83.5536 54.7588C83.9348 52.1839 84.071 49.5786 83.9604 46.978C84.7192 46.9067 85.4736 46.7935 86.22 46.6391C86.2719 46.61 86.317 46.57 86.3521 46.5219C86.3872 46.4738 86.4115 46.4187 86.4234 46.3604C86.4378 46.2985 86.4357 46.2338 86.4172 46.173C86.3987 46.1122 86.3644 46.0573 86.3179 46.0139C86.2707 45.9728 86.2157 45.9416 86.1562 45.9222C86.0966 45.9028 86.0338 45.8956 85.9715 45.9009C85.9715 45.7126 85.9263 45.7578 85.8886 45.9009L85.866 45.9461L83.9152 45.8783C83.8885 43.2155 83.6365 40.5598 83.162 37.9394C83.158 37.8349 83.1132 37.736 83.0371 37.6642C82.9611 37.5924 82.8598 37.5533 82.7552 37.5553C82.65 37.5592 82.5504 37.6038 82.4773 37.6796C82.4043 37.7555 82.3635 37.8567 82.3635 37.962C82.0062 40.5569 81.8752 43.1779 81.9719 45.7955C76.5186 45.562 74.2665 45.9838 73.4153 45.2456ZM125.99 46.0516C125.854 45.9235 125.802 45.9461 123.61 45.8708C123.585 43.2104 123.333 40.5569 122.856 37.9394C122.856 37.8336 122.814 37.732 122.74 37.6572C122.665 37.5823 122.563 37.5402 122.457 37.5402C122.351 37.5402 122.25 37.5823 122.175 37.6572C122.1 37.732 122.058 37.8336 122.058 37.9394C121.699 40.5367 121.568 43.1603 121.666 45.7804C120.597 45.7804 119.588 45.69 119.068 45.7126C114.104 45.8783 113.042 45.2004 113.11 45.2682C113.17 43.807 114.722 32.8176 114.805 32.4636C114.824 32.4137 114.833 32.3604 114.831 32.307C114.829 32.2535 114.817 32.201 114.794 32.1524C114.772 32.1039 114.74 32.0604 114.7 32.0244C114.661 31.9885 114.614 31.9608 114.564 31.9432C114.514 31.9255 114.46 31.9182 114.407 31.9216C114.353 31.925 114.301 31.9391 114.253 31.963C114.205 31.987 114.163 32.0203 114.128 32.061C114.094 32.1017 114.067 32.1489 114.051 32.1999C113.117 34.2562 110.941 43.0011 111.234 45.5921C111.255 45.953 111.398 46.2959 111.641 46.5638C112.583 47.5128 114.029 47.6409 115.362 47.6333C117.313 47.5881 119.685 47.3998 121.697 47.1889C121.725 49.7319 121.977 52.2675 122.45 54.7663C122.451 54.8177 122.462 54.8685 122.482 54.9156C122.503 54.9628 122.533 55.0054 122.57 55.0411C122.607 55.0767 122.651 55.1048 122.698 55.1235C122.746 55.1423 122.797 55.1514 122.849 55.1504C122.901 55.1505 122.952 55.1401 122.999 55.1198C123.047 55.0996 123.09 55.0699 123.126 55.0326C123.162 54.9954 123.19 54.9512 123.208 54.9029C123.227 54.8545 123.235 54.8029 123.233 54.7512C123.621 52.177 123.76 49.5714 123.647 46.9705C124.407 46.9036 125.161 46.7904 125.907 46.6316C125.953 46.601 125.992 46.5611 126.022 46.5143C126.052 46.4675 126.071 46.415 126.079 46.3602C126.087 46.3054 126.083 46.2495 126.067 46.1964C126.052 46.1432 126.026 46.0938 125.99 46.0516ZM99.9436 63.2701C97.0814 63.3379 94.4527 64.3472 92.9086 66.765C92.874 66.8039 92.8476 66.8493 92.8307 66.8985C92.8139 66.9477 92.8071 66.9997 92.8106 67.0516C92.8141 67.1035 92.8279 67.1542 92.8512 67.2006C92.8745 67.2471 92.9068 67.2885 92.9462 67.3224C92.9857 67.3572 93.0317 67.3838 93.0815 67.4007C93.1313 67.4176 93.184 67.4245 93.2365 67.421C93.289 67.4175 93.3403 67.4037 93.3874 67.3803C93.4346 67.3569 93.4766 67.3244 93.5111 67.2847C95.0628 65.9365 97.9024 65.2737 99.9813 65.236C101.834 65.236 105.163 65.7181 106.595 66.878C106.627 66.9227 106.668 66.9601 106.715 66.9879C106.763 67.0156 106.815 67.033 106.87 67.039C106.925 67.045 106.98 67.0394 107.033 67.0225C107.085 67.0057 107.133 66.978 107.174 66.9413C107.215 66.9046 107.248 66.8597 107.27 66.8095C107.293 66.7593 107.304 66.7049 107.304 66.6499C107.304 66.5949 107.293 66.5405 107.271 66.4903C107.248 66.44 107.215 66.395 107.174 66.3583C105.977 64.5732 103.461 63.2174 99.9436 63.2701ZM64.2261 122.774C63.729 122.699 61.1379 122.85 61.1605 123.226C61.0415 124.207 61.0415 125.198 61.1605 126.179C61.1817 126.234 61.2162 126.282 61.2609 126.32C61.3056 126.358 61.3591 126.385 61.4166 126.397C62.4725 126.489 63.5359 126.444 64.5801 126.262C64.6455 126.242 64.7017 126.199 64.7383 126.141C64.9944 125.749 64.7383 123.445 64.5048 123C64.4827 122.941 64.4452 122.889 64.3962 122.849C64.3472 122.81 64.2885 122.784 64.2261 122.774ZM59.7821 118.436C59.285 118.36 56.6864 118.511 56.709 118.888C56.5815 119.867 56.5689 120.858 56.6713 121.84C56.6925 121.895 56.7271 121.944 56.7718 121.982C56.8165 122.02 56.87 122.046 56.9274 122.059C57.9834 122.151 59.0468 122.105 60.0909 121.923C60.124 121.915 60.155 121.899 60.1822 121.879C60.2094 121.858 60.2321 121.832 60.2491 121.803C60.5052 121.411 60.2491 119.106 60.0232 118.662C60.0023 118.608 59.9699 118.561 59.9282 118.521C59.8865 118.482 59.8366 118.453 59.7821 118.436ZM64.1884 117.539C64.2527 117.517 64.3082 117.475 64.3466 117.419C64.6027 117.027 64.3466 114.722 64.1131 114.278C64.0943 114.223 64.0626 114.174 64.0206 114.135C63.9786 114.096 63.9276 114.067 63.8721 114.052C63.375 113.977 60.7839 114.127 60.8065 114.504C60.6874 115.487 60.6874 116.481 60.8065 117.464C60.8281 117.518 60.8629 117.565 60.9077 117.602C60.9524 117.639 61.0057 117.664 61.0626 117.675C62.106 117.764 63.1566 117.718 64.1884 117.539ZM68.6098 118.006C68.1052 117.923 65.5141 118.089 65.5367 118.458C65.4092 119.438 65.3966 120.429 65.499 121.411C65.5202 121.466 65.5548 121.514 65.5995 121.552C65.6442 121.591 65.6977 121.617 65.7551 121.629C66.8111 121.718 67.8741 121.672 68.9186 121.494C68.9841 121.474 69.0402 121.431 69.0768 121.373C69.3329 120.974 69.0768 118.677 68.8508 118.225C68.8291 118.173 68.7962 118.127 68.7546 118.089C68.7129 118.051 68.6635 118.023 68.6098 118.006ZM74.2891 122.315C73.7995 122.232 71.2009 122.383 71.2235 122.759C71.1041 123.742 71.1041 124.736 71.2235 125.719C71.2451 125.773 71.2799 125.821 71.3246 125.857C71.3694 125.894 71.4227 125.919 71.4796 125.93C72.5354 126.026 73.5993 125.981 74.6431 125.795C74.7085 125.775 74.7646 125.732 74.8013 125.674C75.0573 125.282 74.8013 122.978 74.5678 122.533C74.5475 122.474 74.5104 122.421 74.4609 122.382C74.4114 122.344 74.3517 122.32 74.2891 122.315ZM73.8597 117.012C73.9227 116.987 73.9775 116.946 74.0179 116.892C74.2665 116.492 74.0179 114.188 73.7844 113.743C73.7636 113.691 73.731 113.644 73.6893 113.606C73.6475 113.568 73.5976 113.54 73.5434 113.525C73.0463 113.449 70.4477 113.592 70.4703 113.977C70.3524 114.957 70.3524 115.949 70.4703 116.929C70.4896 116.985 70.5235 117.035 70.5685 117.073C70.6136 117.112 70.6681 117.137 70.7264 117.148C71.7723 117.237 72.8254 117.191 73.8597 117.012ZM78.4318 117.502C77.9346 117.419 75.3436 117.569 75.3662 117.954C75.2467 118.934 75.2467 119.926 75.3662 120.906C75.3885 120.96 75.4233 121.008 75.4679 121.046C75.5124 121.084 75.5653 121.111 75.6223 121.125C76.6782 121.217 77.7416 121.171 78.7858 120.989C78.8524 120.967 78.9087 120.922 78.9439 120.861C79.2 120.469 78.9439 118.172 78.718 117.72C78.6935 117.662 78.6542 117.611 78.604 117.573C78.5538 117.534 78.4944 117.51 78.4318 117.502ZM67.4122 71.2542C67.4422 71.2542 67.4709 71.2423 67.4921 71.2211C67.5133 71.1999 67.5252 71.1712 67.5252 71.1412C67.5252 71.1112 67.5133 71.0825 67.4921 71.0613C67.4709 71.0401 67.4422 71.0282 67.4122 71.0282C66.7346 70.7448 65.9999 70.6245 65.2673 70.6768C64.5347 70.7291 63.8246 70.9527 63.1942 71.3295C63.1662 71.3415 63.1442 71.3641 63.1329 71.3924C63.1216 71.4206 63.1219 71.4522 63.1339 71.4802C63.1459 71.5081 63.1685 71.5302 63.1968 71.5415C63.225 71.5528 63.2566 71.5524 63.2846 71.5404C64.6429 71.2718 66.0298 71.1756 67.4122 71.2542ZM71.344 71.9999C72.5132 72.2758 73.6404 72.7064 74.6958 73.2803C74.7072 73.2902 74.7204 73.2978 74.7347 73.3026C74.749 73.3074 74.7641 73.3093 74.7791 73.3082C74.7942 73.3072 74.8088 73.3032 74.8223 73.2965C74.8358 73.2897 74.8479 73.2804 74.8577 73.2691C74.8676 73.2577 74.8752 73.2445 74.88 73.2302C74.8848 73.2159 74.8867 73.2008 74.8856 73.1857C74.8846 73.1707 74.8806 73.156 74.8739 73.1425C74.8671 73.129 74.8578 73.117 74.8465 73.1071C74.4563 72.5732 73.9082 72.1754 73.2798 71.9698C72.6704 71.7375 72.0112 71.6674 71.3666 71.7664C71.3397 71.77 71.3148 71.7827 71.296 71.8022C71.2772 71.8218 71.2655 71.8472 71.2629 71.8742C71.2603 71.9012 71.2669 71.9283 71.2816 71.9511C71.2963 71.974 71.3183 71.9911 71.344 71.9999ZM66.0112 73.9281V73.1222C66.0001 73.0533 65.9648 72.9906 65.9117 72.9454C65.8585 72.9001 65.791 72.8753 65.7212 72.8753C65.6515 72.8753 65.5839 72.9001 65.5308 72.9454C65.4777 72.9906 65.4424 73.0533 65.4312 73.1222V73.8754C65.4243 73.9523 65.4481 74.0288 65.4975 74.0882C65.547 74.1475 65.618 74.1847 65.6949 74.1917C65.7718 74.1987 65.8483 74.1749 65.9076 74.1254C65.967 74.076 66.0042 74.005 66.0112 73.9281ZM71.9315 74.1767C71.9315 74.4177 71.8712 74.5909 71.8336 74.832C71.8226 74.9079 71.8422 74.9851 71.8881 75.0465C71.934 75.1079 72.0025 75.1486 72.0784 75.1596C72.1543 75.1706 72.2315 75.151 72.2929 75.1051C72.3544 75.0592 72.395 74.9907 72.406 74.9148C72.406 74.6738 72.4663 74.5006 72.4964 74.2595C72.5049 74.2211 72.5054 74.1814 72.4979 74.1428C72.4903 74.1042 72.4749 74.0676 72.4526 74.0352C72.4303 74.0028 72.4015 73.9754 72.3681 73.9546C72.3347 73.9339 72.2974 73.9202 72.2585 73.9145C72.2196 73.9088 72.1799 73.9112 72.142 73.9215C72.104 73.9318 72.0686 73.9498 72.0379 73.9744C72.0072 73.999 71.9819 74.0296 71.9636 74.0644C71.9453 74.0993 71.9344 74.1375 71.9315 74.1767ZM67.0356 78.116C67.4574 78.5227 68.9714 78.7788 69.3932 78.3043C70.056 77.5511 69.3932 73.785 69.1597 73.6796C69.1398 73.6636 69.1151 73.6548 69.0896 73.6547C69.0642 73.6545 69.0394 73.663 69.0193 73.6787C68.9993 73.6944 68.9851 73.7164 68.9791 73.7412C68.9732 73.766 68.9757 73.792 68.9864 73.8151C68.9864 73.8151 69.0467 73.8829 68.9864 73.8151C68.8734 73.5967 69.2952 77.521 68.9864 77.9277C68.4027 78.1257 67.77 78.1257 67.1862 77.9277C67.1613 77.9077 67.1294 77.8985 67.0976 77.902C67.0658 77.9055 67.0367 77.9216 67.0168 77.9465C66.9968 77.9715 66.9876 78.0034 66.9911 78.0352C66.9946 78.0669 67.0106 78.096 67.0356 78.116ZM65.5292 79.6676C65.4992 79.6676 65.4705 79.6795 65.4493 79.7007C65.4281 79.7219 65.4162 79.7506 65.4162 79.7806C65.4162 79.8106 65.4281 79.8393 65.4493 79.8605C65.4705 79.8817 65.4992 79.8936 65.5292 79.8936C66.0555 79.9315 66.5684 80.0777 67.0356 80.3229C67.4921 80.5972 67.9015 80.9431 68.2483 81.3473C68.2542 81.3611 68.2628 81.3737 68.2736 81.3842C68.2844 81.3947 68.2971 81.403 68.3111 81.4086C68.3251 81.4142 68.3401 81.417 68.3551 81.4168C68.3702 81.4166 68.3851 81.4135 68.3989 81.4076C68.4128 81.4016 68.4253 81.393 68.4358 81.3822C68.4464 81.3714 68.4546 81.3587 68.4602 81.3447C68.4658 81.3307 68.4686 81.3158 68.4684 81.3007C68.4683 81.2856 68.4651 81.2708 68.4592 81.2569C68.3833 80.9527 68.245 80.6676 68.053 80.4198C67.8611 80.1719 67.6196 79.9668 67.344 79.8173C67.0685 79.6678 66.7648 79.5773 66.4523 79.5515C66.1399 79.5258 65.8255 79.5653 65.5292 79.6676ZM22.1364 76.3158C22.1552 76.3702 22.1845 76.4204 22.2227 76.4634C22.2609 76.5065 22.3072 76.5416 22.3589 76.5668C22.4107 76.592 22.4669 76.6067 22.5243 76.6102C22.5818 76.6137 22.6394 76.6058 22.6938 76.587C22.7482 76.5682 22.7983 76.5388 22.8414 76.5007C22.8845 76.4625 22.9196 76.4162 22.9448 76.3644C22.97 76.3127 22.9847 76.2565 22.9881 76.199C22.9916 76.1416 22.9837 76.084 22.9649 76.0296C19.9521 66.6897 19.3796 64.6786 17.6924 59.5116C17.6498 59.3655 17.5778 59.2296 17.4807 59.1125C17.3836 58.9953 17.2636 58.8992 17.128 58.8302C16.9923 58.7611 16.844 58.7206 16.6922 58.711C16.5403 58.7015 16.3881 58.7231 16.2449 58.7746C16.1017 58.8261 15.9706 58.9064 15.8596 59.0105C15.7486 59.1146 15.6601 59.2404 15.5995 59.38C15.539 59.5196 15.5076 59.6701 15.5074 59.8223C15.5073 59.9744 15.5382 60.125 15.5985 60.2648C20.7203 73.9507 20.2157 71.2768 22.1364 76.3158ZM24.3132 86.7554C29.0057 88.3597 30.3389 82.1457 27.2206 80.9029C22.8971 79.1705 20.8258 85.4599 24.3132 86.7554ZM27.1151 82.4018C28.019 83.6371 27.1151 86.2131 24.7576 85.4147C21.7748 84.5108 24.8028 79.2308 27.1151 82.4018ZM34.3611 66.4035C34.3619 66.4665 34.3761 66.5285 34.4028 66.5856C34.4295 66.6427 34.4679 66.6934 34.5157 66.7345C34.5635 66.7756 34.6194 66.806 34.6798 66.8238C34.7402 66.8416 34.8038 66.8464 34.8662 66.8378C34.9286 66.8292 34.9884 66.8074 35.0418 66.7739C35.0951 66.7404 35.1407 66.696 35.1756 66.6435C35.2104 66.591 35.2337 66.5318 35.244 66.4696C35.2542 66.4074 35.251 66.3438 35.2348 66.283C34.6021 59.6697 34.5419 58.57 33.3292 50.7291C33.2715 50.442 33.1032 50.1891 32.8607 50.0251C32.6181 49.8611 32.3207 49.7991 32.0328 49.8525C31.745 49.9059 31.4896 50.0705 31.3221 50.3106C31.1545 50.5507 31.0881 50.8471 31.1373 51.1358C31.5817 53.3578 34.0447 64.9422 34.3611 66.4035ZM33.6606 73.672C34.4741 74.3348 35.6867 74.5985 37.1404 73.5967C40.4019 72.2108 38.9708 68.3242 36.3345 67.9702C32.3274 67.5258 31.7098 72.0827 33.6606 73.672ZM36.1537 69.4088C36.5568 69.4704 36.9309 69.6552 37.2246 69.938C37.5183 70.2208 37.7172 70.5876 37.794 70.988C37.8708 71.3884 37.8217 71.8028 37.6534 72.1742C37.4851 72.5455 37.2059 72.8557 36.8542 73.0619C35.2725 73.7473 34.2104 73.0167 34.0447 71.5555C33.9874 71.2646 34.0019 70.9642 34.087 70.6802C34.1721 70.3962 34.3251 70.1372 34.5329 69.9257C34.7406 69.7143 34.9969 69.5567 35.2793 69.4666C35.5617 69.3765 35.8619 69.3567 36.1537 69.4088Z" fill="black"/>
</g>
</g>
</svg>
