<svg width="151" height="151" viewBox="0 0 151 151" fill="none" xmlns="http://www.w3.org/2000/svg">
<g id="Searching-2--Streamline-Milano">
<g id="Searching-2--Streamline-Milano.svg">
<path id="Vector" d="M90.5517 64.8142C90.5781 64.9397 90.6474 65.052 90.7478 65.1318C90.8482 65.2116 90.9734 65.2538 91.1016 65.251C91.1863 65.2521 91.2701 65.2339 91.3467 65.1978C91.4234 65.1617 91.4907 65.1085 91.5437 65.0425C91.5968 64.9764 91.634 64.8991 91.6527 64.8165C91.6713 64.7338 91.6709 64.648 91.6514 64.5656C90.0019 57.1389 89.3014 54.8265 89.1282 52.3635C89.1244 52.2889 89.1056 52.2158 89.0731 52.1486C89.0405 52.0814 88.9947 52.0214 88.9385 51.9723C88.8823 51.9231 88.8168 51.8857 88.7459 51.8623C88.6749 51.839 88.6 51.8301 88.5256 51.8362C88.4516 51.841 88.3794 51.8604 88.3131 51.8934C88.2467 51.9264 88.1876 51.9723 88.1392 52.0284C88.0908 52.0845 88.0541 52.1497 88.0312 52.2202C88.0083 52.2907 87.9997 52.365 88.0059 52.4388C88.1791 54.9847 88.8796 57.1916 90.5517 64.8142ZM85.2642 65.3565C85.2346 65.4294 85.2207 65.5076 85.2231 65.5862C85.2256 65.6648 85.2444 65.7421 85.2785 65.813C85.3125 65.8839 85.361 65.9469 85.4208 65.998C85.4806 66.0491 85.5504 66.0871 85.6257 66.1097C86.1405 66.2812 86.6799 66.3677 87.2225 66.3658C87.3723 66.3658 87.516 66.3063 87.622 66.2003C87.7279 66.0944 87.7874 65.9507 87.7874 65.8009C87.7874 65.651 87.7279 65.5074 87.622 65.4014C87.516 65.2955 87.3723 65.236 87.2225 65.236C86.7999 65.2365 86.3801 65.1678 85.9797 65.0326C85.8416 64.987 85.6913 64.995 85.5588 65.055C85.4262 65.115 85.3211 65.2226 85.2642 65.3565ZM82.3869 58.57C82.4781 58.5716 82.5683 58.551 82.6498 58.5102C82.7313 58.4693 82.8018 58.4093 82.8551 58.3353C82.9084 58.2612 82.9429 58.1754 82.9558 58.0851C82.9687 57.9948 82.9596 57.9028 82.9292 57.8168C82.7073 57.1083 82.6104 56.3666 82.643 55.6249C82.6464 55.5507 82.6352 55.4766 82.61 55.4067C82.5849 55.3369 82.5462 55.2727 82.4961 55.2177C82.4461 55.1628 82.3858 55.1183 82.3186 55.0867C82.2514 55.0551 82.1786 55.0371 82.1044 55.0336C82.0302 55.0302 81.9561 55.0414 81.8862 55.0666C81.8164 55.0918 81.7521 55.1305 81.6972 55.1805C81.6423 55.2305 81.5978 55.2908 81.5662 55.358C81.5346 55.4252 81.5166 55.498 81.5131 55.5722C81.4728 56.4411 81.585 57.3104 81.8446 58.1407C81.8734 58.2628 81.9426 58.3717 82.0411 58.4496C82.1395 58.5276 82.2613 58.57 82.3869 58.57Z" fill="black"/>
<path id="Vector_2" d="M134.073 35.0771C120.251 32.2827 117.6 24.9388 114.602 18.4536C104.969 -2.55358 83.8786 11.4186 83.8786 11.4186C80.1615 9.11849 76.1439 7.34414 71.9401 6.14606C67.3507 4.79864 62.4368 5.07683 58.0288 6.93363C53.6208 8.79043 49.9889 12.112 47.7468 16.3371C43.1221 25.6092 44.2519 29.4355 25.2407 34.6478C18.3488 36.5233 12.5038 45.8707 15.3736 57.2443C15.6071 61.0103 16.5185 68.2713 20.0812 74.0259C21.3585 76.079 21.8731 78.516 21.5349 80.9103C19.4184 80.7446 18.4693 80.5262 18.7405 81.2267C19.923 84.1943 20.3222 84.6312 20.2469 84.7517C15.3058 93.9334 -0.89588 89.979 5.03946 112.447C5.61476 114.484 6.4906 116.424 7.63806 118.202C6.97523 118.782 6.31993 119.392 5.6797 120.025C5.62045 120.101 5.58831 120.195 5.58831 120.292C5.58831 120.389 5.62045 120.483 5.6797 120.56C11.246 128.001 19.4786 131.624 25.5495 133.364C47.5359 145.416 83.728 151.313 103.944 136.761C110.927 131.707 114.301 126.043 114.889 118.39C114.984 117.204 115.296 116.045 115.807 114.971C116.55 114.911 117.276 114.715 117.947 114.391C119.868 112.665 121.211 110.391 121.796 107.875C122.323 107.875 124.138 105.54 132.469 101.232C139.104 97.7597 143.142 93.1651 144.475 87.5838C146.448 79.3361 141.093 69.3484 140.182 69.0095C143.112 65.8686 145.153 61.8991 146.388 56.7697C148.979 46.4055 141.1 36.5007 134.073 35.0771ZM120.824 50.744C122.512 50.7425 124.163 51.2419 125.568 52.1791C126.972 53.1162 128.067 54.449 128.714 56.0087C129.361 57.5683 129.531 59.2849 129.202 60.941C128.873 62.5971 128.06 64.1184 126.866 65.3123C125.672 66.5063 124.151 67.3192 122.494 67.6483C120.838 67.9773 119.122 67.8077 117.562 67.1608C116.002 66.514 114.67 65.419 113.733 64.0144C112.795 62.6099 112.296 60.9589 112.297 59.2704C112.301 57.0103 113.201 54.8439 114.799 53.2457C116.397 51.6476 118.564 50.748 120.824 50.744ZM116.907 50.857C114.856 51.8182 113.224 53.4909 112.313 55.5646C111.77 54.5176 111.913 53.1543 111.876 52.0169C111.876 51.4746 110.881 51.7458 110.768 52.1299C110.339 53.5535 109.616 56.122 108.23 56.9731C107.04 57.7263 107.002 55.7755 107.078 55.0072C107.235 54.1118 107.454 53.2284 107.733 52.3634C107.846 51.9416 106.731 52.0923 106.618 52.514C106.001 54.8189 105.865 56.5212 105.112 56.2801C104.359 56.0391 104.698 54.8566 104.841 53.0112C105.232 48.1303 113.781 47.4524 116.907 50.857ZM104.351 56.8827C104.622 56.9973 104.919 57.0382 105.212 57.0012C105.504 56.9641 105.781 56.8505 106.016 56.6718C106.257 57.5681 106.904 58.2611 107.884 57.9975C109.292 57.6058 110.211 56.2801 110.896 54.834C110.987 55.3989 111.371 56.6115 111.966 56.589C111.439 58.3451 111.443 60.2181 111.98 61.9715C112.516 63.7249 113.56 65.2802 114.979 66.441C108.757 64.6333 108.117 64.4601 107.997 64.4073C106.739 63.8952 106.068 61.7635 105.737 60.5433C105.541 59.8579 104.916 59.1198 104.231 59.2327C103.153 59.2327 102.619 61.7711 102.483 62.8256L95.3953 60.7768C94.1224 60.5207 93.5876 58.2234 93.6554 57.0635C93.6756 56.4377 93.8904 55.8338 94.2697 55.3357C94.649 54.8376 95.174 54.47 95.7719 54.2841C96.0205 54.1862 95.0187 54.3368 103.688 53.1543C103.809 55.3612 103.236 56.4458 104.351 56.8902V56.8827ZM111.168 68.5425L113.134 77.099C111.787 77.7757 110.335 78.2188 108.84 78.4096C106.904 69.3183 107.145 70.1242 106.807 69.6949C106.468 69.2656 101.285 67.3072 103.794 60.6563C103.907 60.4078 104.057 60.0688 104.283 60.0236C104.961 59.8428 105.036 61.7485 105.458 62.3661C105.886 63.4373 106.606 64.3665 107.537 65.0476C107.635 65.1304 107.153 64.9722 113.563 66.8402C112.426 68.4069 111.702 68.1207 111.702 68.1207C111.639 68.0889 111.567 68.0759 111.496 68.0832C111.425 68.0906 111.357 68.1179 111.301 68.1621C111.245 68.2064 111.203 68.2656 111.179 68.3329C111.156 68.4003 111.152 68.4729 111.168 68.5425ZM91.1396 88.2316C90.6344 87.9543 90.0663 87.8116 89.4901 87.8173C89.4355 87.8052 89.3789 87.8052 89.3244 87.8173C89.3244 86.2431 89.2716 83.7876 89.0758 82.5448C95.674 81.8518 100.427 77.2723 102.069 75.0126C103.236 75.5549 104.381 76.0219 105.503 76.4287C104.306 77.3551 104.381 78.3795 105.609 79.1553C106.26 85.9146 107.322 92.6281 108.787 99.2587C101.308 92.442 94.5592 92.4797 92.5331 91.8621C92.4603 91.7178 92.439 91.5531 92.4728 91.3951C92.5632 90.672 92.4803 88.6157 91.1396 88.2316ZM90.6048 88.8492C90.2354 89.0867 89.8085 89.2195 89.3696 89.2333V88.5404C89.4195 88.5482 89.4703 88.5482 89.5202 88.5404C89.8968 88.5705 90.522 88.6986 90.6048 88.8793V88.8492ZM106.422 76.7977C106.897 76.9634 107.371 77.1066 107.846 77.2497C107.894 77.6689 107.983 78.0825 108.11 78.4849C107.429 78.5566 106.745 78.5918 106.061 78.5904C105.18 78.0707 105.104 77.5811 106.392 76.8279L106.422 76.7977ZM86.8764 38.3461C90.4467 35.9659 95.5158 36.8848 98.4759 39.6868C101.963 43.0009 103.929 52.0019 103.816 52.3785C94.9057 53.5987 95.8246 53.4782 95.4555 53.5912C94.7274 53.8331 94.0905 54.2916 93.6302 54.9055C93.1698 55.5193 92.9079 56.2591 92.8795 57.0258C92.7967 58.3665 93.4143 61.1685 95.1844 61.5451L102.385 63.6315C102.261 65.407 102.84 67.1601 103.997 68.5124C103.333 70.6899 102.315 72.7435 100.984 74.5908L101.376 74.7791C100.156 76.2856 95.6815 81.2493 88.8348 81.882C88.7677 81.8275 88.6839 81.7978 88.5975 81.7978C88.5111 81.7978 88.4273 81.8275 88.3602 81.882C83.0275 82.2134 76.6251 81.0685 72.3996 77.2271C68.5431 73.7547 67.9556 72.7605 62.7584 54.5854C62.7584 54.013 63.5644 53.9753 64.1067 54.0883C67.7899 54.9017 73.6047 55.1804 76.8285 53.6288C81.5662 51.3692 82.5605 45.4037 83.8937 42.2628C84.5142 40.7108 85.5452 39.3568 86.8764 38.3461ZM88.6163 89.3087C86.5358 89.4106 84.4504 89.3476 82.3797 89.1204V82.3866C84.3495 82.6718 86.3431 82.7576 88.3301 82.6427C88.5636 84.1115 88.526 87.8022 88.6163 89.3087ZM58.4274 52.4011C61.6738 49.2451 66.4492 50.8946 69.9667 50.4954C71.3917 50.3138 72.7593 49.8209 73.9725 49.0516C75.1857 48.2823 76.2147 47.2554 76.9867 46.0439C77.5884 44.8603 78.3184 43.7464 79.1635 42.7222C79.3053 42.5804 79.4977 42.5007 79.6983 42.5007C79.7976 42.5007 79.8959 42.5203 79.9877 42.5583C80.0794 42.5963 80.1628 42.652 80.233 42.7222C80.3033 42.7925 80.359 42.8758 80.397 42.9676C80.435 43.0594 80.4546 43.1577 80.4546 43.257C80.4546 43.3563 80.435 43.4547 80.397 43.5464C80.359 43.6382 80.3033 43.7216 80.233 43.7918C79.4761 44.7464 78.8151 45.7732 78.2596 46.8574C77.3685 48.2571 76.178 49.4418 74.774 50.3262C73.3699 51.2105 71.7873 51.7725 70.1399 51.9717C66.4643 52.4237 62.1634 50.8494 59.4819 53.4782C58.6007 54.3594 56.9587 57.5681 56.1075 59.18C55.6449 58.9751 55.1969 58.7386 54.7668 58.472C55.7987 56.491 57.3729 53.4179 58.4274 52.3634V52.4011ZM16.4582 60.5584C20.2243 70.0414 26.4911 75.9617 37.2621 78.6356C59.1053 84.0738 66.1931 76.2554 68.0008 73.3631C69.094 74.9964 70.3983 76.478 71.8799 77.7694C74.6383 80.1556 78.0188 81.7074 81.6265 82.2435V86.7628C80.9376 86.7667 80.2555 86.8996 79.6154 87.1545C78.109 87.4934 78.0562 90.2201 78.4856 91.6738C78.6004 91.9843 78.6516 92.3147 78.6362 92.6454C77.7926 92.8186 76.7682 93.0145 75.9246 93.1953C73.8846 93.3905 71.9555 94.2143 70.4036 95.5528C54.3073 81.3472 40.4105 82.2586 22.2881 80.9254C22.6374 78.3721 22.0832 75.777 20.7214 73.589C18.1304 69.4012 16.9704 64.3697 16.4582 60.5584ZM79.7736 87.983C79.7736 87.983 79.9544 87.6441 81.6265 87.5461V88.9848C81.1133 88.8772 80.6095 88.7286 80.1201 88.5404C79.9468 88.4575 79.879 88.3897 79.8715 88.4123C79.8887 88.338 79.8888 88.2608 79.8718 88.1864C79.8549 88.1121 79.8213 88.0425 79.7736 87.983ZM5.78515 112.229C0.158623 90.9507 14.8991 94.5962 20.6762 85.5049C25.2784 94.6038 32.3737 102.151 40.2599 108.101C27.8167 106.972 17.0608 110.195 8.24063 117.705C7.15466 116.012 6.32708 114.166 5.78515 112.229ZM28.7206 134.148C33.5203 135.162 38.4056 135.717 43.3104 135.805C48.7185 135.805 56.4766 134.735 62.4873 132.204C62.5329 132.185 62.5741 132.156 62.6087 132.121C62.6432 132.085 62.6704 132.043 62.6886 131.997C62.7068 131.95 62.7157 131.901 62.7148 131.851C62.7138 131.802 62.7031 131.753 62.6831 131.707C62.6434 131.617 62.5698 131.546 62.4783 131.509C62.3868 131.473 62.2845 131.473 62.1935 131.511C55.633 134.276 46.9484 135.277 41.6533 135.014C28.2461 134.328 14.6053 130.984 6.44798 120.311C7.02796 119.746 7.61546 119.204 8.2105 118.677C8.29339 118.672 8.37231 118.639 8.43497 118.585C8.49763 118.53 8.54053 118.457 8.55698 118.375C17.5504 110.647 28.6227 107.476 41.4273 108.937C48.2635 113.878 55.7746 117.81 63.7301 120.612C63.7781 120.635 63.8304 120.648 63.8836 120.649C63.9368 120.65 63.9897 120.64 64.0387 120.62C64.0878 120.599 64.1319 120.568 64.1682 120.53C64.2045 120.491 64.2321 120.444 64.2493 120.394C64.2664 120.344 64.2727 120.29 64.2677 120.237C64.2627 120.184 64.2465 120.133 64.2202 120.087C64.194 120.04 64.1582 120 64.1152 119.969C64.0723 119.937 64.0232 119.915 63.9711 119.904C45.8035 113.57 27.2367 99.816 19.7121 81.6259C28.8788 85.9795 37.6688 90.2878 46.8279 94.6866L39.582 96.5471C39.4821 96.572 39.3962 96.6357 39.3432 96.724C39.2903 96.8122 39.2745 96.9179 39.2995 97.0178C39.3245 97.1177 39.3881 97.2036 39.4764 97.2566C39.5647 97.3095 39.6704 97.3253 39.7703 97.3003L47.8824 95.2139C48.6883 95.598 52.3414 97.3304 54.2471 98.287L49.6299 100.275C49.5396 100.315 49.4686 100.389 49.432 100.48C49.3953 100.572 49.3961 100.674 49.434 100.765C49.4739 100.857 49.5482 100.93 49.6411 100.968C49.7341 101.006 49.8382 101.006 49.9312 100.968C55.3468 98.6109 54.9852 98.8067 55.0756 98.7088C58.0358 100.215 60.8528 101.759 63.5568 103.484C63.6406 103.532 63.7395 103.546 63.8332 103.523C63.9268 103.5 64.0081 103.442 64.0602 103.361C64.1124 103.28 64.1314 103.182 64.1134 103.087C64.0955 102.992 64.0418 102.908 63.9636 102.851C59.9191 100.34 55.726 98.0763 51.4075 96.0725L50.9631 87.87C50.9601 87.8206 50.9474 87.7722 50.9257 87.7276C50.9041 87.6831 50.8738 87.6432 50.8368 87.6103C50.7997 87.5775 50.7565 87.5522 50.7097 87.536C50.6629 87.5199 50.6133 87.513 50.5639 87.516C50.5144 87.519 50.466 87.5317 50.4215 87.5533C50.3769 87.575 50.337 87.6052 50.3042 87.6423C50.2713 87.6794 50.246 87.7225 50.2299 87.7694C50.2137 87.8162 50.2069 87.8658 50.2098 87.9152L50.6693 95.6583C48.8013 94.7695 33.2851 87.2449 21.4822 81.6259C39.4012 83.0118 53.6294 81.784 69.8763 96.1403C69.0986 97.0309 68.523 98.0793 68.1891 99.2135C66.7505 105.134 61.5608 131.602 64.5511 135.955C64.423 137.379 64.6641 138.373 66.0575 139.134C66.8103 139.566 67.6118 139.908 68.4452 140.151C67.54 141.417 66.8832 142.843 66.5094 144.354C53.376 143.402 40.5475 139.937 28.7206 134.148ZM65.2742 136.656C65.5001 136.806 70.5919 139.669 74.1772 138.561C74.1274 138.799 74.0233 139.022 73.873 139.213C73.7228 139.404 73.5304 139.557 73.311 139.661C71.6916 140.414 68.1966 139.495 66.4341 138.479C66.0758 138.332 65.7717 138.078 65.5639 137.752C65.3561 137.425 65.2549 137.042 65.2742 136.656ZM67.2777 144.399C67.6761 142.942 68.34 141.57 69.2361 140.354C69.8927 140.506 70.56 140.607 71.2321 140.655C71.7324 141.917 72.1107 143.223 72.3619 144.557C70.6823 144.557 68.98 144.504 67.2777 144.399ZM114.113 118.307C113.555 125.614 110.527 130.856 104.027 135.714C103.229 123.346 102.927 119.211 101.609 108.599C105.217 111.822 110.128 115.084 114.941 115.016C114.48 116.058 114.2 117.171 114.113 118.307ZM117.465 113.788C116.967 114.014 111.055 116.372 101.466 107.454C101.368 106.663 101.263 105.827 101.157 104.961C101.145 104.861 101.094 104.77 101.015 104.707C100.936 104.645 100.835 104.617 100.736 104.629C100.636 104.641 100.545 104.692 100.483 104.771C100.42 104.85 100.392 104.951 100.404 105.051C102.137 118.722 102.4 122.3 103.312 136.272C96.254 141.288 87.0873 143.804 77.1825 144.444C76.1054 137.266 75.7288 135.97 75.548 122.284C75.3823 109.962 75.3673 110.866 74.1094 104.817C74.0995 104.768 74.08 104.721 74.0519 104.679C74.0238 104.637 73.9878 104.601 73.9458 104.573C73.9039 104.545 73.8568 104.526 73.8073 104.516C73.7578 104.506 73.7069 104.506 73.6575 104.516C73.608 104.526 73.561 104.546 73.5191 104.574C73.4772 104.602 73.4412 104.638 73.4132 104.68C73.3852 104.722 73.3658 104.769 73.356 104.818C73.3462 104.868 73.3463 104.919 73.3562 104.968C74.6366 111.114 74.6216 110.542 74.7722 122.292C74.9605 135.985 75.3371 137.356 76.4067 144.474C75.3145 144.534 74.2148 144.565 73.1152 144.572C72.8833 143.251 72.52 141.957 72.0305 140.708C72.5785 140.703 73.1196 140.585 73.6198 140.362C75.2844 139.608 75.1714 137.394 74.373 137.71C71.0589 139.006 65.8165 136.257 65.3344 135.737C63.4815 124.891 66.6751 108.696 68.9348 99.4168C69.8462 96.6299 71.8648 94.7243 75.7137 94.0765C76.1732 94.0012 78.4404 93.5342 79.0053 93.4137C79.284 93.3308 79.6832 92.9768 79.2614 91.5231C79.0091 90.5857 79.0091 89.5983 79.2614 88.6609C79.327 88.8003 79.4202 88.925 79.5355 89.0272C79.6507 89.1295 79.7855 89.2073 79.9318 89.2559C82.0182 90.0995 84.3983 90.1071 86.7107 90.1297C87.9083 90.1297 90.8308 90.1899 91.3656 89.2183C91.7545 89.876 91.9135 90.6445 91.8175 91.4026C91.7271 92.2085 92.0811 92.5098 92.2544 92.6077C93.3013 93.361 100.992 92.6605 109.217 100.705C109.634 102.406 110.137 104.086 110.723 105.736C110.739 105.783 110.765 105.827 110.798 105.864C110.831 105.902 110.871 105.932 110.916 105.954C110.96 105.975 111.009 105.988 111.059 105.991C111.109 105.994 111.158 105.986 111.205 105.97C111.3 105.934 111.376 105.863 111.419 105.771C111.461 105.68 111.465 105.575 111.431 105.48C108.26 96.7278 106.716 82.0025 106.46 79.3737C108.519 79.3896 110.562 79.0218 112.486 78.2891C113.607 78.4563 114.736 78.5669 115.868 78.6205C119.98 88.5856 125.66 106.572 117.502 113.735L117.465 113.788ZM124.018 105.352C123.317 105.834 122.647 106.324 122.014 106.813C123.897 97.3078 119.001 84.2169 116.666 78.6507C119.141 78.6809 121.61 78.4051 124.018 77.8297V105.352ZM124.771 104.84V77.6338C124.771 77.5133 125.757 77.4907 129.418 75.9993L130.57 101.33C128.451 102.48 126.521 103.64 124.778 104.81L124.771 104.84ZM143.722 87.3729C142.434 92.7358 138.524 97.1647 132.1 100.524L131.346 100.931C130.759 87.9981 130.796 89.8058 130.94 89.9263C130.977 89.9593 131.021 89.9844 131.068 90.0004C131.115 90.0164 131.165 90.0228 131.215 90.0193C131.265 90.0158 131.313 90.0024 131.358 89.98C131.402 89.9576 131.442 89.9265 131.474 89.8886C131.708 89.6175 130.495 90.3406 142.87 77.084C142.905 77.0479 142.931 77.0054 142.949 76.959C142.967 76.9126 142.975 76.8631 142.974 76.8135C142.972 76.7638 142.961 76.7149 142.941 76.6696C142.921 76.6242 142.892 76.5833 142.855 76.5492C142.819 76.5151 142.777 76.4884 142.73 76.4707C142.684 76.4529 142.635 76.4446 142.585 76.446C142.535 76.4473 142.486 76.4585 142.441 76.4788C142.396 76.4991 142.355 76.5281 142.321 76.5642C132.303 87.3051 131.022 89.1204 130.827 89.5346L130.706 86.8682C131.143 86.9812 130.57 87.2524 142.004 74.3046C142.039 74.2702 142.067 74.2292 142.086 74.184C142.105 74.1387 142.115 74.0901 142.115 74.041C142.115 73.9919 142.105 73.9433 142.086 73.898C142.067 73.8527 142.039 73.8117 142.004 73.7773C141.933 73.7079 141.837 73.669 141.737 73.669C141.637 73.669 141.541 73.7079 141.47 73.7773L130.714 86.0548L130.239 75.6604C133.785 74.2291 137.019 72.1211 139.76 69.4539C139.722 69.5819 145.891 78.3343 143.722 87.3729Z" fill="black"/>
<path id="Vector_3" d="M92.179 50.9324C92.2573 50.9315 92.3346 50.9143 92.4059 50.8818C92.4772 50.8494 92.541 50.8025 92.5932 50.7441C93.2862 49.9909 93.9641 49.1775 94.77 48.138C94.8219 48.0804 94.8614 48.0127 94.8859 47.9391C94.9105 47.8656 94.9197 47.7878 94.9129 47.7105C94.9061 47.6333 94.8834 47.5583 94.8464 47.4901C94.8093 47.422 94.7587 47.3623 94.6975 47.3146C94.6363 47.2669 94.566 47.2323 94.4909 47.213C94.4158 47.1937 94.3376 47.19 94.261 47.2023C94.1844 47.2145 94.1112 47.2424 94.0459 47.2841C93.9805 47.3259 93.9245 47.3807 93.8812 47.4451C93.128 48.4544 92.4351 49.2377 91.7572 49.9834C91.6853 50.0656 91.6385 50.1666 91.6222 50.2745C91.6059 50.3825 91.6208 50.4928 91.6651 50.5926C91.7094 50.6923 91.7814 50.7773 91.8724 50.8375C91.9635 50.8978 92.0698 50.9307 92.179 50.9324ZM77.8001 70.0491C77.6517 70.0749 77.5194 70.1582 77.432 70.2808C77.3446 70.4035 77.3091 70.5557 77.3331 70.7044C77.5498 71.93 78.0878 73.0762 78.8922 74.0261C80.1501 75.1785 82.0407 74.4403 81.5285 73.5817C81.4496 73.4614 81.3283 73.3752 81.1887 73.3403C81.0491 73.3054 80.9015 73.3243 80.7753 73.3934C80.5941 73.4741 80.3926 73.4979 80.1976 73.4615C80.0025 73.4252 79.8231 73.3305 79.6831 73.19C79.0723 72.4085 78.6589 71.4913 78.478 70.5161C78.4664 70.4398 78.4392 70.3668 78.3983 70.3014C78.3574 70.236 78.3035 70.1798 78.24 70.136C78.1765 70.0923 78.1047 70.062 78.029 70.047C77.9534 70.0321 77.8755 70.0328 77.8001 70.0491ZM52.605 118.579C51.1513 118.797 49.7729 118.993 48.4548 119.166L41.3444 115.543C41.2545 115.498 41.1505 115.491 41.0551 115.523C40.9598 115.555 40.8809 115.623 40.836 115.713C40.791 115.803 40.7837 115.907 40.8154 116.002C40.8472 116.097 40.9156 116.176 41.0055 116.221L47.1291 119.34C44.5983 119.671 42.2784 119.935 40.0639 120.183C39.9811 120.01 40.2598 120.183 35.7781 117.923C35.6883 117.879 35.5842 117.871 35.4888 117.903C35.3935 117.935 35.3147 118.003 35.2697 118.093C35.2248 118.183 35.2174 118.287 35.2492 118.382C35.281 118.478 35.3493 118.556 35.4392 118.601L38.8362 120.311C36.8176 120.53 35.0174 120.718 33.157 120.929C33.0741 120.733 33.6315 121.049 25.331 116.846C25.2418 116.804 25.1395 116.797 25.0455 116.828C24.9514 116.859 24.873 116.925 24.8264 117.012C24.8031 117.057 24.7889 117.105 24.7846 117.155C24.7804 117.205 24.7861 117.255 24.8015 117.303C24.817 117.351 24.8418 117.395 24.8745 117.433C24.9072 117.471 24.9472 117.502 24.9921 117.524L31.9593 121.057C28.9917 121.396 26.0014 121.81 22.7174 122.307C22.6679 122.315 22.6205 122.333 22.5778 122.359C22.5352 122.385 22.4981 122.42 22.4687 122.46C22.4394 122.501 22.4183 122.547 22.4066 122.595C22.395 122.644 22.3931 122.695 22.401 122.744C22.4089 122.794 22.4265 122.841 22.4528 122.884C22.479 122.926 22.5134 122.963 22.5539 122.993C22.5945 123.022 22.6405 123.043 22.6892 123.055C22.7379 123.066 22.7884 123.068 22.8379 123.06C30.2345 121.87 36.2225 121.418 43.8526 120.515L38.1884 127.986C38.1576 128.026 38.135 128.072 38.1221 128.12C38.1092 128.169 38.1061 128.22 38.1131 128.27C38.1202 128.32 38.1371 128.368 38.163 128.411C38.1888 128.454 38.2231 128.492 38.2638 128.521C38.3443 128.579 38.4443 128.604 38.5426 128.59C38.6409 128.576 38.7299 128.524 38.791 128.446C45.2536 119.912 44.8167 120.477 44.8695 120.394C51.0082 119.641 51.4752 119.52 52.718 119.332C52.767 119.325 52.814 119.308 52.8565 119.282C52.8989 119.257 52.9359 119.223 52.9652 119.183C52.9946 119.143 53.0159 119.098 53.0277 119.05C53.0396 119.002 53.0418 118.952 53.0343 118.903C53.0194 118.803 52.9661 118.714 52.8858 118.653C52.8055 118.593 52.7047 118.566 52.605 118.579ZM120.824 66.9458C122.342 66.9473 123.827 66.4984 125.09 65.656C126.353 64.8135 127.338 63.6153 127.92 62.213C128.502 60.8106 128.655 59.2672 128.36 57.7778C128.065 56.2884 127.334 54.9201 126.261 53.846C125.188 52.7718 123.821 52.0401 122.331 51.7433C120.842 51.4465 119.299 51.5981 117.896 52.1788C116.493 52.7595 115.294 53.7433 114.45 55.0056C113.606 56.268 113.156 57.7522 113.156 59.2706C113.158 61.3042 113.966 63.2542 115.404 64.6929C116.841 66.1317 118.79 66.9418 120.824 66.9458ZM120.824 52.356C122.193 52.3545 123.533 52.7594 124.672 53.5195C125.812 54.2795 126.7 55.3605 127.225 56.6256C127.75 57.8908 127.888 59.2832 127.621 60.6267C127.354 61.9701 126.694 63.2042 125.726 64.1727C124.757 65.1412 123.523 65.8006 122.18 66.0675C120.836 66.3343 119.444 66.1966 118.179 65.6718C116.914 65.1469 115.833 64.2586 115.073 63.1191C114.313 61.9796 113.908 60.6402 113.909 59.2706C113.911 57.4373 114.64 55.6797 115.937 54.3834C117.233 53.0872 118.991 52.358 120.824 52.356Z" fill="black"/>
<path id="Vector_4" d="M117.638 58.6907C117.856 58.6907 117.638 58.8338 121.095 55.4293C121.166 55.3584 121.206 55.2622 121.206 55.1619C121.206 55.0616 121.166 54.9654 121.095 54.8945C121.024 54.8236 120.928 54.7838 120.828 54.7838C120.727 54.7838 120.631 54.8236 120.56 54.8945L117.374 58.043C117.32 58.0952 117.283 58.1625 117.267 58.2361C117.251 58.3098 117.258 58.3864 117.287 58.4561C117.315 58.5258 117.364 58.5854 117.426 58.6272C117.489 58.6691 117.562 58.6912 117.638 58.6907ZM117.638 60.3026C117.871 60.3026 117.638 60.4382 121.095 57.0035C121.164 56.9331 121.203 56.8385 121.203 56.7399C121.203 56.6413 121.164 56.5467 121.095 56.4763C121.06 56.441 121.018 56.413 120.972 56.3938C120.926 56.3747 120.877 56.3649 120.828 56.3649C120.778 56.3649 120.729 56.3747 120.683 56.3938C120.637 56.413 120.595 56.441 120.56 56.4763L117.374 59.6624C117.322 59.715 117.287 59.7816 117.273 59.854C117.259 59.9264 117.267 60.0013 117.295 60.0694C117.323 60.1376 117.37 60.196 117.431 60.2375C117.492 60.2789 117.564 60.3016 117.638 60.3026ZM83.1253 48.8311C85.6335 51.0004 85.513 50.9703 85.7992 50.9703C85.9155 50.9722 86.0296 50.9383 86.1258 50.873C86.2221 50.8077 86.2958 50.7143 86.337 50.6055C86.3782 50.4968 86.3849 50.3779 86.356 50.2653C86.3272 50.1526 86.2642 50.0516 86.1758 49.976L83.871 47.98C83.7581 47.8801 83.6102 47.8292 83.4598 47.8383C83.3093 47.8475 83.1687 47.9161 83.0688 48.029C82.9689 48.1418 82.918 48.2897 82.9271 48.4402C82.9363 48.5906 83.0049 48.7312 83.1178 48.8311H83.1253ZM70.4788 108.712C70.4499 108.752 70.4293 108.798 70.4182 108.847C70.4071 108.895 70.4057 108.945 70.4141 108.994C70.4225 109.043 70.4405 109.09 70.4672 109.132C70.4938 109.174 70.5284 109.211 70.5692 109.239L73.7553 111.499C73.8372 111.557 73.9387 111.58 74.0376 111.563C74.1365 111.546 74.2246 111.49 74.2825 111.408C74.3405 111.326 74.3635 111.225 74.3465 111.126C74.3296 111.027 74.2741 110.939 74.1921 110.881L70.9985 108.621C70.9173 108.565 70.8174 108.544 70.7202 108.56C70.623 108.577 70.5363 108.632 70.4788 108.712ZM103.801 102.438L102.152 104.275C102.105 104.33 102.074 104.397 102.064 104.469C102.054 104.54 102.064 104.613 102.093 104.679C102.122 104.745 102.169 104.802 102.229 104.842C102.288 104.883 102.358 104.905 102.43 104.908C102.671 104.908 102.611 104.908 104.366 102.942C104.433 102.867 104.467 102.769 104.462 102.669C104.456 102.568 104.411 102.474 104.336 102.407C104.299 102.374 104.256 102.349 104.209 102.332C104.162 102.316 104.112 102.309 104.062 102.312C103.962 102.317 103.868 102.363 103.801 102.438ZM138.856 85.3245L136.973 85.0533C136.873 85.0403 136.772 85.067 136.692 85.1276C136.612 85.1881 136.558 85.2777 136.543 85.3772C136.531 85.476 136.557 85.5759 136.618 85.655C136.679 85.7341 136.768 85.7859 136.867 85.799L138.743 86.0701C138.842 86.0851 138.942 86.0602 139.023 86.0009C139.103 85.9415 139.157 85.8527 139.172 85.7538C139.187 85.6549 139.162 85.5541 139.103 85.4736C139.044 85.3931 138.955 85.3394 138.856 85.3245ZM140.272 82.6957L138.464 83.4489C138.418 83.4677 138.376 83.4954 138.341 83.5304C138.306 83.5653 138.278 83.6069 138.258 83.6527C138.239 83.6985 138.229 83.7477 138.229 83.7974C138.229 83.8471 138.238 83.8963 138.257 83.9423C138.276 83.9883 138.303 84.0301 138.338 84.0654C138.373 84.1007 138.415 84.1288 138.461 84.148C138.507 84.1673 138.556 84.1773 138.605 84.1775C138.655 84.1778 138.704 84.1682 138.75 84.1494L140.55 83.3962C140.596 83.3779 140.638 83.3507 140.674 83.3162C140.709 83.2817 140.738 83.2406 140.757 83.1951C140.777 83.1496 140.787 83.1008 140.788 83.0513C140.789 83.0018 140.78 82.9526 140.761 82.9066C140.743 82.8606 140.716 82.8187 140.681 82.7832C140.647 82.7477 140.606 82.7194 140.56 82.6998C140.515 82.6802 140.466 82.6698 140.416 82.6691C140.367 82.6684 140.318 82.6774 140.272 82.6957Z" fill="black"/>
</g>
</g>
</svg>
