<svg width="151" height="151" viewBox="0 0 151 151" fill="none" xmlns="http://www.w3.org/2000/svg">
<g id="All-Good--Streamline-Bruxelles">
<g id="All-Good--Streamline-Bruxelles.svg">
<path id="Vector" d="M99.3186 110.542C99.7798 111.436 100.013 112.43 99.9965 113.435C100.087 115.461 100.863 120.56 100.863 121.14C100.863 124.718 63.2923 125.923 57.4022 120.711C52.7247 116.598 58.5094 111.025 58.5094 111.025L99.3186 110.542Z" fill="#D3FFCF"/>
<path id="Vector_2" d="M108.884 140.761C108.385 139.668 107.996 138.527 107.724 137.357C107.329 135.971 106.82 134.621 106.202 133.32C105.541 131.643 104.747 130.021 103.83 128.469C103.024 127.256 103.491 126.337 103.197 123.678C102.903 121.02 102.444 120.914 101.239 120.108C100.033 119.302 98.2935 120.681 96.7946 121.027C95.6346 121.298 93.247 121.63 91.6577 121.825C91.2133 116.033 91.8384 120.04 90.8593 112.712C92.8854 112.433 95.0697 112.071 95.0773 112.071C95.9585 111.876 97.4348 111.416 98.0901 111.318C99.0618 111.137 99.4685 111.318 99.8451 110.896C99.9732 110.761 100.131 110.648 100.018 110.437C99.9054 110.226 99.9054 109.902 99.5363 109.925C98.7839 110.067 98.0081 110.023 97.2767 109.797C96.7323 109.539 96.1391 109.4 95.5367 109.39C94.7835 109.586 92.0041 111.853 89.0591 111.988C84.9616 112.177 86.0462 111.107 84.4419 112.064C83.8393 112.425 83.6058 112.538 81.8207 112.448C80.8245 112.39 79.8576 112.09 79.0036 111.574C78.2504 111.205 74.7706 112.275 74.7555 112.275C71.8481 112.651 71.9912 112.214 70.3341 111.393C69.8295 111.145 69.6186 111.333 68.9331 111.619C68.7599 111.687 69.9123 112.162 71.1928 112.681C72.3678 113.148 73.6558 113.676 74.2056 113.435H74.7706L74.0173 118.007L74.3789 122.164V122.232C73.3475 122.333 72.3077 122.305 71.2832 122.149C68.9181 121.75 65.7395 121.283 62.335 120.477C58.9304 119.671 54.6672 121.057 54.2605 121.63C53.8537 122.202 51.2476 129.365 50.8559 130.405C50.4643 131.444 50.6827 132.664 50.6827 133.862C50.6827 135.06 49.8542 136.332 49.7111 137.297C49.5679 138.261 49.5981 140.242 49.1311 141.341C48.6641 142.441 47.8054 145.326 48.2122 145.379C58.3053 146.591 56.2264 143.239 63.7284 145.492C71.2304 147.744 79.8849 144.166 82.0768 145.258C84.2686 146.35 97.947 145.318 99.2124 145.665C100.478 146.011 111.392 146.297 111.392 145.898C111.392 145.499 109.283 141.741 108.884 140.761ZM81.188 122.993C80.028 123.106 77.7834 122.413 76.7967 122.18C76.4618 122.134 76.1223 122.134 75.7874 122.18V117.66L76.4954 113.54C78.5668 113.54 78.7551 113.457 79.1995 113.796C79.6439 114.135 79.6137 113.796 82.2123 113.713C82.5021 114.501 82.6673 115.33 82.7019 116.169C82.5965 116.997 82.6341 122.888 82.6341 122.888H82.7095C82.2801 122.895 81.7303 122.933 81.188 122.993ZM89.752 122.097C89.1014 122.407 88.4125 122.63 87.7033 122.759C86.8521 122.805 85.5717 122.812 84.6904 122.812L84.4645 113.578L85.7148 113.502C87.2212 113.397 86.7768 113.035 87.7635 113.028C88.1326 113.028 88.7578 112.968 89.4809 112.877C89.7277 115.944 89.8182 119.021 89.752 122.097Z" fill="#84D492"/>
<path id="Vector_3" d="M57.9364 109.97C58.9307 110.294 59.1868 110.053 59.7442 110.55C59.1872 111.038 58.5814 111.467 57.9364 111.83C57.251 111.672 56.9422 111.401 57.0928 110.753C57.2435 110.249 57.4619 109.797 57.9364 109.97Z" fill="#D3FFCF"/>
<path id="Vector_4" d="M126.81 80.8429C127.232 82.7862 126.983 88.8495 126.885 89.4145C126.253 92.8491 122.961 93.8208 120.566 93.4065C116.408 92.6533 113.591 89.3693 104.402 81.7693C103.965 81.4153 104.748 81.0839 105.035 79.698C105.24 79.0043 105.595 78.3642 106.074 77.8225C106.534 77.1672 109.2 72.55 109.69 71.7967C109.863 71.5256 109.863 71.518 113.004 74.1016C113.395 74.4255 115.625 85.2416 117.169 84.2022C117.809 83.7729 116.416 82.741 115.542 79.5624C113.953 73.6045 112.19 63.7976 109.637 58.1711C109.381 57.6061 108.582 55.2862 108.032 54.6535C106.782 53.1923 102.075 52.7102 100.862 50.187C100.508 49.4337 100.696 49.7049 99.4835 45.9313C99.2876 45.3061 99.4835 45.2308 99.5889 45.1103C99.6944 44.9898 100.101 45.1103 100.244 45.2685C100.611 45.7188 100.899 46.2282 101.095 46.7749C102.218 49.2379 101.811 49.5919 102.602 49.7878C104.364 50.2849 103.988 49.2228 105.826 49.5392C106.383 49.7011 106.952 49.8219 107.528 49.9007C107.814 49.9007 108.085 49.4563 107.603 49.268C107.152 49.0139 106.656 48.8502 106.142 48.786C105.63 48.786 106.142 47.5808 105.69 46.1799C104.718 42.8657 105.366 42.9787 104.41 42.1426C103.784 41.6003 102.843 40.7115 102.09 40.7944C101.336 40.8772 101.555 41.2614 100.636 43.0992C100.011 44.342 99.2876 44.4475 99.5287 43.5587C99.9348 42.5004 100.228 41.4021 100.402 40.2822C100.674 38.7757 101.909 38.5347 102.662 38.9942C103.732 39.657 103.528 39.2804 104.982 40.1315C106.662 41.1107 105.554 37.9773 105.908 32.6446C105.942 31.62 106.057 30.5999 106.255 29.594C106.255 29.466 106.323 29.0216 106.639 28.9613C106.955 28.9011 107.114 29.2099 107.159 29.7145C107.324 31.5223 106.586 36.6441 107.972 41.1258C107.332 41.1258 106.571 40.945 106.76 41.5476C106.797 41.6606 107.709 41.7961 107.731 41.7961C110.541 42.1878 112.371 43.6792 112.612 43.1293C112.778 42.7377 112.326 42.5569 111.904 42.3761C111.482 42.1953 111.799 42.2405 112.537 40.3575C113.087 38.9414 114.42 32.7124 115.218 32.8253C115.467 32.8253 115.67 32.9534 115.663 33.3149C115.663 34.731 113.862 38.5272 113.456 41.9995C112.996 45.8334 113.817 43.6039 113.079 51.1436C112.906 52.9437 114.216 53.2149 116.597 58.2539C116.597 58.2539 119.572 65.0329 120.491 66.7502C122.683 70.8853 125.951 76.8282 126.81 80.8429ZM112.499 44.6358C112.846 44.1085 107.701 42.3761 106.473 42.6473C106.398 42.6762 106.337 42.7326 106.303 42.8049C106.268 42.8772 106.262 42.96 106.286 43.0367C106.309 43.1133 106.362 43.1779 106.431 43.2175C106.501 43.2571 106.584 43.2687 106.662 43.2498C108.921 43.3176 111.467 44.7563 112.092 44.9145C112.348 44.9521 112.424 44.7713 112.514 44.6358H112.499ZM112.138 53.0567C112.763 52.3035 109.479 52.4617 109.659 49.9083C109.81 47.7691 111.286 45.2609 110.556 45.1103C110.307 45.0576 110.149 45.0651 109.953 45.6601C108.756 49.253 107.694 52.1604 111.603 53.23C111.693 53.245 111.866 53.3806 112.153 53.0567H112.138Z" fill="#C49E91"/>
<path id="Vector_5" d="M110.723 41.7583C110.723 41.9617 110.828 41.9767 109.171 41.3817C109.005 41.3214 109.05 41.3064 109.307 39.122C109.307 39.009 109.517 32.667 110.06 30.558C110.18 30.1211 110.18 29.8499 110.542 29.7294C111.702 29.3754 110.248 34.9266 110.723 41.7583Z" fill="#C49E91"/>
<path id="Vector_6" d="M110.278 69.0177C110.61 69.2964 110.467 69.0177 108.486 71.9853C107.039 74.1772 106.354 75.7514 105.307 77.2579C103.228 80.2255 103.401 82.7488 102.58 81.6114C101.511 80.105 99.6051 78.9677 98.8143 77.8454C98.3925 77.2654 98.867 77.1599 98.4301 75.1263C97.7974 72.1134 98.3322 71.5409 97.5263 68.7013C97.4208 68.3548 96.8182 68.2569 96.773 68.7013C96.773 68.9951 96.9839 69.9592 97.1948 71.4355C97.2045 72.7614 97.3432 74.0833 97.6091 75.3823C98.3096 78.7266 96.8559 82.4174 96.9388 86.3115C97.0969 92.9473 96.517 93.8437 96.7429 96.7586C96.9312 99.2216 97.112 97.6399 98.1665 101.896C98.2192 102.099 87.7345 96.2615 76.9635 82.455C75.5775 80.685 57.6133 58.2391 57.6585 58.2241C58.9013 57.8023 59.2252 57.5688 59.8052 58.1036C62.5168 60.7248 64.4525 63.2706 71.3972 65.1913C85.7083 69.0855 94.3025 57.0867 95.5001 57.2524C98.513 57.6968 98.867 57.4483 100.163 58.6911C102.821 61.2445 102.595 62.1483 106.271 65.6583C107.085 66.4643 109.148 68.0761 110.278 69.0177ZM94.8524 85.4302C95.003 85.3625 95.2591 85.1742 95.1084 84.9708C94.2799 83.8862 92.7885 87.1551 85.9719 85.9801C81.3547 85.1817 81.7238 84.4209 80.4358 84.3757C80.0893 84.3757 80.014 84.4963 79.9989 84.6394C79.9986 84.7131 80.0218 84.7849 80.0652 84.8445C80.1085 84.9041 80.1698 84.9484 80.24 84.9708C81.9949 85.5508 82.2435 86.4772 86.2657 86.9442C91.9449 87.5769 93.8129 85.8671 94.8524 85.4302Z" fill="#FFF59E"/>
<path id="Vector_7" d="M101.187 117.728C104.147 118.443 108.493 115.927 110.903 114.767C110.346 112.41 109.081 107.68 107.017 106.414C105.382 105.413 104.757 104.795 103.868 104.659C103.147 104.466 102.407 104.355 101.661 104.328C100.087 104.426 100.2 104.411 100.253 104.72C100.324 104.884 100.351 105.065 100.331 105.243C100.311 105.421 100.245 105.591 100.14 105.736C99.9817 105.925 100.833 107.152 100.2 108.998C100.087 109.314 100.328 108.998 100.81 110.188C101.232 111.175 100.245 111.491 100.178 111.747C100.11 112.003 100.275 112.116 100.313 112.312C100.599 113.592 100.486 117.554 101.187 117.728Z" fill="#E3B27D"/>
<path id="Vector_8" d="M111.287 117.344C111.219 117.344 109.826 117.909 109.449 118.142C107.664 119.234 107.521 118.895 105.193 119.649C104.545 119.884 103.856 119.986 103.167 119.95C102.633 119.95 102.248 120.01 102.083 119.844C102.047 119.806 102.02 119.761 102.003 119.712C101.986 119.662 101.98 119.61 101.985 119.558C101.985 118.873 102.7 119.618 105.457 118.715C106.647 118.33 107.544 118.345 108.824 117.502C109.525 117.15 110.244 116.836 110.978 116.56C111.264 116.432 111.31 116.274 111.4 115.604C111.445 115.265 111.182 115.431 109.02 116.606C106.994 117.705 105.902 117.615 104.787 118.248C104.124 118.617 102.218 118.609 101.405 118.541C101.141 118.541 100.878 118.361 100.975 118.654C101.156 119.204 100.975 119.408 101.329 119.588C101.919 119.823 102.429 120.22 102.801 120.733C103.173 121.247 103.392 121.855 103.431 122.488C103.544 123.995 103.815 124.695 103.808 125.825C103.808 128.461 104.726 127.874 106.21 132.001C107.061 134.366 107.114 134.261 107.265 134.261C107.734 134.313 108.21 134.243 108.644 134.057C109.078 133.87 109.457 133.575 109.743 133.199C112.394 129.034 111.912 129.26 111.837 120.304C111.829 119.942 112.266 116.929 111.287 117.344Z" fill="#E3B27D"/>
<path id="Vector_9" d="M95.9434 101.609C93.8393 100.276 91.8262 98.8036 89.9177 97.2027C81.1578 89.7685 79.0111 86.0928 73.4223 79.3666C65.4608 69.7781 59.2016 60.8224 56.8515 58.6832C56.2791 58.171 56.2791 58.171 55.9326 58.3217C55.5861 58.4723 55.4355 58.5627 55.571 58.7209C55.7066 58.8791 56.3243 59.4741 56.5728 59.7377C74.5521 81.2722 77.8512 90.0095 92.554 100.713C99.5513 105.804 99.6869 106.189 99.6342 104.87C99.5815 103.552 99.4911 104.336 95.9434 101.609Z" fill="#E3B27D"/>
<path id="Vector_10" d="M99.3259 106.392C99.5971 107.108 99.8231 108.592 99.1 108.855C98.0154 109.254 97.2998 108.576 95.9515 108.381C94.6033 108.185 92.0875 111.393 87.8319 110.994H87.2142C85.5496 110.685 85.2408 110.384 84.2014 110.994C83.8596 111.309 83.4078 111.477 82.9435 111.461C81.7671 111.613 80.5739 111.366 79.554 110.761C78.0476 109.94 75.6825 111.514 72.873 111.469C72.1165 111.359 71.4021 111.053 70.8016 110.58C69.5136 109.789 68.6324 111.409 66.7041 110.678C65.6647 110.279 64.1131 110.475 62.7121 110.211C62.1438 110.113 61.5631 110.113 60.9948 110.211C60.5202 110.414 60.8366 109.88 59.8198 109.458C59.4883 109.322 58.3133 109.284 57.7409 108.817C57.0479 108.253 58.2079 107.816 58.366 106.746C58.3803 106.244 58.4876 105.748 58.6824 105.285C59.6616 103.65 59.639 103.304 59.6842 102.634C59.5948 101.801 59.669 100.959 59.9026 100.155C60.3545 99.3044 59.2473 96.1408 59.0515 95.5609C57.4697 90.9286 58.0045 93.5648 57.2739 88.8422C56.7014 85.1288 56.1742 85.1288 56.129 83.178C56.0838 81.2272 56.6336 81.1744 56.129 79.9392C55.9617 79.665 55.7619 79.4121 55.534 79.1859C55.3012 78.921 55.1636 78.5858 55.1431 78.2337C55.1227 77.8816 55.2205 77.5328 55.421 77.2426C56.274 75.8247 56.7486 74.2116 56.7994 72.5576C56.9877 71.2696 57.0931 69.959 56.5809 69.9816C55.6997 69.9816 56.5131 72.5501 55.4963 75.3219C54.9916 76.7079 53.8769 77.4912 53.0107 78.3348C50.6531 80.5945 51.6775 80.7978 50.284 78.4553C48.2805 75.0885 48.4161 75.1487 47.5047 74.2072C45.9229 72.5652 46.3146 73.1452 45.5614 72.0906C44.8135 71.0223 43.8152 70.1533 42.654 69.5598C42.4732 69.5071 45.3731 66.547 46.5556 65.3644C51.4817 60.6267 51.3536 62.6077 52.5813 60.5815C53.1613 59.64 53.4626 59.8283 54.7657 59.2483C56.2721 58.6307 76.6918 88.9552 86.1974 96.7283C92.1026 101.504 99.3033 106.347 99.3259 106.392ZM72.8956 84.7748C72.9868 84.7709 73.0731 84.7319 73.1362 84.6659C73.1994 84.6 73.2346 84.5121 73.2345 84.4208C73.2345 83.6149 71.7959 84.3003 70.7414 84.4208C64.6629 84.9405 65.273 84.7823 61.5672 83.6676C60.8633 83.3875 60.1997 83.0152 59.5938 82.5604C58.8406 82.1611 58.0874 84.6618 66.9753 85.6109C66.9753 85.6109 70.4175 85.2192 70.4326 85.2192C71.2634 85.1318 72.0866 84.9833 72.8956 84.7748Z" fill="#FFF59E"/>
<path id="Vector_11" d="M97.5252 24.4795C96.9603 25.4587 99.2049 26.4906 98.8133 28.1703C98.5346 29.383 97.5554 29.511 96.9453 29.9102C96.3352 30.3094 96.2373 30.6634 96.8474 31.507C97.0639 31.7523 97.1913 32.0634 97.2091 32.3901C97.2268 32.7168 97.1339 33.0399 96.9453 33.3072C96.1167 34.2186 94.8815 33.6838 94.8513 34.6178C94.8137 35.8004 95.4012 36.2297 94.5199 36.7118C93.6387 37.1938 92.6218 36.3728 92.2603 36.772C91.8987 37.1712 92.2603 37.4122 92.3582 37.8642C92.6143 38.753 91.9891 38.4969 90.6559 39.2275C90.0082 39.589 89.7219 40.5155 90.3998 41.6077C91.492 43.3777 91.5522 43.4832 90.091 44.4096C87.4999 46.0667 90.7538 47.3698 89.7219 48.703C88.69 50.0361 88.7352 50.6463 88.7879 50.9626C88.8407 51.279 88.5469 51.3091 88.3285 50.8421C88.1349 50.5458 88.0428 50.1947 88.0659 49.8415C88.089 49.4884 88.226 49.1523 88.4565 48.8837C88.6146 48.7019 88.7309 48.4876 88.7973 48.256C88.8636 48.0243 88.8784 47.781 88.8407 47.543C88.7955 47.1739 88.3285 46.7898 87.8163 46.4207C87.6064 46.2044 87.4769 45.9227 87.4495 45.6226C87.4221 45.3224 87.4984 45.0219 87.6656 44.7712C88.3285 43.7543 88.69 43.905 88.8482 43.2647C88.9762 42.7525 88.336 42.2479 87.9669 41.4118C87.869 41.2612 91.1907 38.2031 91.4317 35.5443C91.5072 35.1609 91.477 34.7642 91.3443 34.3967C91.2116 34.0291 90.9815 33.7046 90.6785 33.4579C90.5429 33.375 90.4676 33.3298 90.5053 33.0888C92.4184 20.3971 93.0436 16.8871 93.2394 15.9531C93.3374 15.4635 93.2394 15.2677 92.9382 15.1472C92.6369 15.0267 92.3732 15.2074 92.3356 14.7555C92.0946 12.2398 88.9085 10.899 86.3852 10.899C85.7106 10.8122 85.0251 10.9191 84.409 11.2071C83.7928 11.4952 83.2713 11.9526 82.9053 12.526C82.7471 12.8423 82.7245 13.0306 82.5212 12.8197C82.154 12.4481 81.7002 12.1736 81.2005 12.0211C80.7009 11.8685 80.1711 11.8427 79.659 11.946C78.3182 12.1268 78.273 12.6992 78.2203 12.2247C77.806 8.3155 70.6882 7.94642 68.6394 11.1551C68.3682 11.5845 68.6394 11.9083 67.969 11.9686C66.7865 12.0289 67.3062 12.3753 66.9145 26.2044C66.6735 34.7157 67.0652 30.3546 66.1086 35.3258C65.506 38.4291 66.6961 39.5514 65.8676 41.0804C65.6157 41.3516 65.3438 41.6033 65.0541 41.8336C64.3461 42.632 65.6567 43.1442 65.5813 43.9953C65.4185 44.5337 65.0651 44.9943 64.5871 45.2909C64.5641 45.3085 64.536 45.3182 64.507 45.3187C64.478 45.3192 64.4496 45.3103 64.426 45.2935C64.4024 45.2766 64.3848 45.2526 64.3759 45.225C64.3669 45.1975 64.367 45.1677 64.3762 45.1402C64.7829 43.7543 64.3762 43.566 63.5477 42.6471C62.8472 41.8939 63.4347 41.4796 64.4289 40.6812C65.0918 40.1539 64.7151 39.7698 64.3159 39.461C62.5158 38.0675 63.0129 38.0675 63.8339 36.4933C64.203 35.7853 64.0222 35.5066 63.6908 35.1752C63.3594 34.8438 62.5986 34.3316 62.3952 33.7441C62.2747 33.3942 62.2385 33.0209 62.2895 32.6544C62.3406 32.2879 62.4775 31.9387 62.689 31.6351C63.4422 30.6408 61.7023 31.3564 60.9641 30.3772C60.3465 29.5562 61.16 28.803 61.401 28.5996C61.8831 28.1929 61.7173 27.7937 61.3257 27.8087C59.1188 27.8916 58.6894 26.1065 60.1507 24.7959C60.6101 24.3967 60.8286 24.0954 60.1507 23.8092C58.8024 23.2668 59.3974 22.9053 60.1507 22.3856C60.7532 22.009 60.9039 21.6324 59.9925 21.3311C58.2977 20.7963 58.486 19.2899 59.6008 18.4463C60.7156 17.6027 61.1072 18.6044 61.6797 18.3257C62.1015 18.1224 61.7249 17.3918 61.4462 17.1884C59.9398 16.0661 60.8888 15.23 61.3633 15.2074C62.3651 15.1472 62.3049 15.2827 62.817 15.1547C64.203 14.8158 63.0505 13.7387 62.9602 12.8348C62.915 12.4205 63.1259 11.5995 63.7134 11.7652C64.1201 11.8707 65.0692 12.3075 64.926 11.4639C64.8646 11.2369 64.8486 11 64.879 10.7668C64.9094 10.5336 64.9856 10.3087 65.1032 10.105C65.2208 9.90132 65.3774 9.72289 65.5642 9.57995C65.751 9.43701 65.9641 9.33238 66.1915 9.27208C66.6434 9.17416 66.6434 9.42272 67.3439 9.88972C68.0444 10.3567 68.7524 10.078 68.7675 9.59596C68.7675 8.5264 68.3532 7.33632 70.5375 6.3496C70.9199 6.23116 71.3278 6.222 71.7151 6.32316C72.1024 6.42431 72.4537 6.63175 72.7294 6.92205C73.0382 7.26099 73.219 7.53215 73.5428 7.01996C73.788 6.36482 74.201 5.78559 74.7405 5.34029C75.1246 5.01349 75.5768 4.77633 76.064 4.64604C76.5513 4.51576 77.0615 4.49562 77.5575 4.58708C78.0225 4.64745 78.4572 4.85101 78.8014 5.16951C79.1455 5.48802 79.3821 5.90571 79.4782 6.36467C79.546 6.62829 79.4782 6.84673 79.8171 6.93711C80.0431 6.99737 80.2766 6.65842 80.3143 6.5831C80.4697 6.27517 80.7045 6.01435 80.9945 5.82763C81.2845 5.64091 81.6192 5.53507 81.9638 5.52106C83.2669 5.6943 83.1388 6.84672 83.3422 7.0275C84.0201 7.6602 83.6133 5.47587 86.6187 5.9504C87.1232 6.05573 87.5906 6.29329 87.9731 6.63873C88.3556 6.98417 88.6394 7.42508 88.7955 7.91629C89.1871 8.79756 88.6599 8.75989 88.9311 9.42272C89.1118 9.88219 89.4508 9.72401 89.7973 9.35494C90.8442 8.21005 92.2377 8.43601 91.9665 9.40013C91.8036 9.73154 91.7112 10.0932 91.6954 10.4622C91.6988 10.5365 91.7233 10.6083 91.7661 10.6692C91.8089 10.7301 91.8681 10.7775 91.9369 10.8059C92.0056 10.8344 92.081 10.8427 92.1543 10.8298C92.2276 10.8169 92.2957 10.7835 92.3507 10.7333C93.3072 9.69388 96.403 10.6203 95.7326 12.9327C95.5443 13.5955 95.3108 14.0927 95.7778 14.296C97.0507 14.8459 97.4876 14.8911 98.2634 15.9004C98.6203 16.3148 98.8277 16.837 98.8523 17.3834C98.8769 17.9297 98.7172 18.4685 98.399 18.9133C98.3011 19.0564 97.7588 19.3878 97.5554 19.6665C97.5135 19.724 97.4868 19.7913 97.4779 19.862C97.469 19.9326 97.4782 20.0044 97.5045 20.0705C97.5308 20.1367 97.5734 20.1952 97.6284 20.2404C97.6834 20.2856 97.749 20.3162 97.819 20.3293C98.8358 20.4498 99.7774 22.137 98.6325 23.4627C98.0374 24.1858 97.8265 23.9523 97.5252 24.4795Z" fill="#585858"/>
<path id="Vector_12" d="M91.0331 18.522C92.6902 17.0156 92.3512 13.0838 89.6321 32.6448C89.6321 32.818 89.5493 32.9009 89.3685 32.916C89.1877 32.931 88.8789 33.0289 88.6153 32.8557C88.5244 32.806 88.4448 32.7381 88.3814 32.6563C88.318 32.5744 88.2721 32.4804 88.2467 32.38C88.2212 32.2796 88.2167 32.1751 88.2335 32.0729C88.2503 31.9707 88.2879 31.8731 88.3441 31.7861C88.6605 31.2513 89.5191 31.0781 88.4194 30.4454C87.5382 29.9407 88.6153 29.2177 88.8262 28.6829C89.3158 27.4476 86.9733 28.2837 86.913 27.0936C86.8226 25.4666 88.8488 26.2425 88.4194 24.1711C88.2763 23.5007 87.7039 23.5007 86.7322 23.2748C86.3029 23.1769 86.092 22.8304 85.8585 22.5216C85.399 21.8587 86.6117 20.5557 86.0317 20.1489C85.4518 19.7422 84.5931 21.5725 83.6516 20.9925C83.2599 20.759 82.7477 20.518 82.8984 20.0811C83.2072 19.0869 82.567 18.876 82.0924 19.3279C81.9578 19.4386 81.7964 19.512 81.6245 19.5407C81.4525 19.5694 81.2761 19.5523 81.1128 19.4913C80.9495 19.4302 80.8052 19.3273 80.6942 19.1929C80.5832 19.0585 80.5095 18.8972 80.4805 18.7254C80.3224 17.814 79.7273 18.0324 79.539 18.5446C79.2603 19.456 78.3188 20.3297 77.5957 20.051C77.3514 19.988 77.1268 19.8647 76.9425 19.6923C76.7583 19.5199 76.6203 19.3039 76.5412 19.0643C76.4966 18.9817 76.4291 18.9137 76.3469 18.8684C76.2646 18.8231 76.1711 18.8024 76.0775 18.8087C75.9838 18.8151 75.8939 18.8482 75.8186 18.9042C75.7432 18.9602 75.6855 19.0367 75.6524 19.1246C75.2156 20.0058 75.1026 19.8778 74.372 19.9305C73.7694 19.9757 73.4304 19.5765 73.099 19.0869C73.052 18.9958 72.9764 18.9228 72.8838 18.8789C72.7911 18.8351 72.6867 18.823 72.5865 18.8444C72.4862 18.8658 72.3959 18.9196 72.3292 18.9974C72.2626 19.0753 72.2234 19.1729 72.2178 19.2752C72.3525 19.7486 72.3332 20.2527 72.1626 20.7144C71.992 21.1761 71.6789 21.5716 71.2687 21.8437C70.7126 22.1458 70.0935 22.3135 69.461 22.3333C68.5948 22.4387 68.64 21.7759 68.0826 22.3709C67.9922 22.4764 68.0826 22.4161 67.8868 22.5366C67.8416 22.273 67.834 13.4453 68.0977 13.4528C68.3613 13.4604 67.8868 14.1232 68.8509 15.6221C71.1105 19.0116 75.9462 17.6407 77.3848 15.1099C77.9723 14.0705 78.2435 13.3248 79.2377 13.0084C79.707 12.8461 80.2148 12.8312 80.6928 12.9659C81.1708 13.1005 81.5961 13.3782 81.9117 13.7617C82.1638 14.2801 82.3705 14.8194 82.5293 15.3735C83.3654 18.9137 87.96 21.3767 91.0331 18.522Z" fill="#585858"/>
<path id="Vector_13" d="M93.6246 57.478C91.7039 59.5644 90.5138 60.0465 88.111 61.5378C86.3922 62.8385 84.4186 63.7624 82.3188 64.2494C80.8982 64.6753 79.4314 64.9282 77.9501 65.0026H76.8203C72.0428 64.9122 67.407 63.3643 63.5336 60.5662C59.9332 57.2972 60.1441 58.0504 61.9518 57.5533C68.083 55.949 68.3165 56.0469 69.484 51.6104C69.9616 50.0102 70.2696 48.3641 70.4029 46.6995C70.998 47.0685 73.122 49.2981 75.8487 48.8838C79.0047 48.3942 80.5487 46.9706 81.1212 46.7673C81.1739 47.4677 79.8483 51.166 80.6919 54.2994C81.6334 57.719 90.4611 56.7323 93.6246 57.478ZM76.4738 59.2179C77.0764 59.2179 80.1194 58.7735 79.9914 58.186C79.8332 57.4328 78.5452 58.6756 76.1726 58.5777C75.9089 58.5777 75.8035 58.5777 74.7866 58.0429C73.122 57.2144 72.7605 57.5307 70.0188 58.2463C69.017 58.5099 69.3936 58.9995 70.1016 58.8036C70.8097 58.6078 72.9262 57.96 73.5966 58.2463C75.6453 59.1275 75.8713 59.2706 76.4738 59.2179Z" fill="#C49E91"/>
<path id="Vector_14" d="M89.9108 33.7967C90.7996 34.211 90.7468 35.3785 90.4154 36.2899C89.8827 37.6127 89.1174 38.8296 88.1558 39.8827C87.9321 40.1592 87.612 40.3408 87.26 40.3911C86.9079 40.4414 86.5498 40.3566 86.2577 40.1539C86.0995 40.0635 85.881 40.0635 85.6701 40.3346C84.6759 41.6 84.3445 43.9802 79.7047 46.6164C77.671 47.7689 75.1854 48.5899 73.0462 47.5956C70.6284 46.4658 69.4383 44.0706 68.2106 41.954C65.6271 37.4875 67.2389 35.0621 67.5553 32.0492C67.721 30.5428 67.48 28.705 67.6306 26.7767C67.7135 25.6996 67.7135 24.2535 68.1202 23.4249C68.2181 23.2366 68.3085 23.0784 68.4667 23.0558C68.9939 22.9956 69.2199 23.2818 70.169 23.101C71.0268 23.0238 71.8285 22.6417 72.4286 22.0239C73.3777 20.8715 72.9785 20.4045 73.3551 20.5853C73.7834 20.817 74.2741 20.9075 74.7569 20.8439C75.2398 20.7803 75.6902 20.5659 76.044 20.2313C76.3755 19.9526 76.142 20.4949 77.3772 20.9318C78.266 21.2406 79.3883 20.525 79.8704 19.8622C80.1415 19.4705 80.2169 20.6606 81.6781 20.4422C82.3485 20.3443 81.8965 21.6473 83.8474 22.0013C84.1936 22.005 84.5369 21.9383 84.8567 21.8055C85.3086 21.6172 84.337 22.6717 85.9639 23.8994C86.3914 24.1313 86.8592 24.2796 87.3423 24.3363C87.6285 24.3966 87.7942 24.7054 87.4402 24.9464C85.3011 26.3851 85.9338 28.479 87.3122 28.7125C87.5155 28.7125 87.7264 28.7652 87.5984 28.9159C87.3638 29.2202 87.2367 29.5937 87.2367 29.9779C87.2367 30.3621 87.3638 30.7356 87.5984 31.0399C87.8921 31.3488 87.3875 31.4015 87.4477 32.5464C87.5005 33.4502 88.201 33.3749 87.8469 33.7816C87.6059 34.0754 87.8469 34.5876 88.1784 34.4143C88.442 34.2411 89.0069 33.3824 89.9108 33.7967ZM89.8731 35.6571C90.1217 35.5517 90.1894 34.9567 89.7827 34.58C89.1952 34.0302 88.103 34.9868 87.7114 36.1543C87.3197 37.3218 88.2461 37.2012 87.7716 37.8189C87.4929 38.1804 87.0787 38.5118 87.4176 38.8207C87.7566 39.1295 88.1708 38.5947 88.4646 38.2633C88.5665 38.15 88.6422 38.0158 88.6865 37.87C88.7307 37.7242 88.7424 37.5705 88.7207 37.4197C88.6604 36.9979 87.8093 36.7117 88.924 35.4161C89.1575 35.145 89.3609 35.1148 89.4965 35.3559C89.6321 35.5969 89.745 35.7174 89.8731 35.6571ZM84.6382 30.3394C84.9094 30.6859 85.4818 30.4826 85.3237 30.0156C85.0601 29.324 84.5756 28.7388 83.9453 28.351C83.329 27.9702 82.5883 27.8459 81.8815 28.0045C79.7047 28.1175 79.908 29.5109 80.842 29.0966C83.0339 28.2003 83.8323 29.3151 84.6382 30.3394ZM81.181 40.3723C81.1358 40.8543 81.761 41.3967 82.017 40.0861C81.7836 37.8264 79.8628 38.0674 80.4504 38.8207C80.6537 39.0843 79.9156 39.1144 79.5842 39.1219C77.2517 39.1672 74.9271 38.8366 72.6998 38.1428C71.6528 37.849 71.5699 37.9319 72.2403 39.3931C73.6112 42.406 74.4322 45.0046 77.0308 43.4981C78.6125 42.5867 80.36 40.425 81.2036 39.9128C81.2412 40.3422 81.2111 40.1237 81.181 40.3723ZM81.4521 32.5614C81.5802 31.9212 81.4521 31.6048 81.2111 31.5069C81.1414 31.4917 81.0693 31.4914 80.9995 31.5061C80.9297 31.5207 80.8638 31.55 80.8062 31.592C80.7485 31.634 80.7004 31.6877 80.6651 31.7497C80.6297 31.8116 80.6079 31.8803 80.601 31.9513C80.36 33.1791 81.3467 33.1414 81.4521 32.5614ZM78.0325 36.4405C78.9063 36.2522 79.0418 35.0696 78.4769 35.1073C78.2359 35.1073 78.2284 35.2579 78.1455 35.3785C78.0627 35.499 77.9421 35.7551 77.6484 35.6421C76.9856 35.386 77.0157 34.4671 76.4884 35.1902C76.3647 35.3822 76.1893 35.5354 75.9823 35.6321C75.7753 35.7289 75.5452 35.7651 75.3185 35.7368C75.0918 35.7085 74.8778 35.6167 74.701 35.472C74.5241 35.3273 74.3918 35.1356 74.3192 34.919C74.1158 34.0001 74.6431 33.6084 75.3059 32.9908C75.5305 32.8032 75.7042 32.5619 75.8108 32.2894C75.9175 32.0169 75.9536 31.7218 75.916 31.4316C75.916 31.1454 75.6147 30.9872 75.4038 31.2734C75.2356 31.7842 74.9182 32.2329 74.4924 32.5614C71.9164 34.6102 74.4924 37.9017 76.6767 36.3275C76.8349 36.2145 76.8952 36.0865 77.0308 36.1844C77.168 36.2992 77.3292 36.3818 77.5026 36.4261C77.6759 36.4704 77.857 36.4754 78.0325 36.4405ZM75.0197 26.5357C75.5017 25.7825 73.7241 24.8033 71.6829 25.5415C69.9957 26.144 69.5513 27.8689 70.4853 27.5977C70.7113 27.5299 70.6284 26.9198 71.7959 26.3549C73.6714 25.4435 74.6129 27.1609 75.0197 26.5357ZM73.6262 30.6633C73.6714 30.1963 73.3475 29.8273 73.0236 29.9101C72.6998 29.993 72.6395 30.1511 72.6244 30.6031C72.6094 31.055 72.8655 31.3036 73.0312 31.3563C73.3852 31.409 73.6036 31.0098 73.6262 30.6633Z" fill="#C49E91"/>
<path id="Vector_15" d="M88.7892 13.3997C88.8871 14.6275 87.7799 14.5597 87.9908 16.0887C88.39 18.8831 88.6988 18.8681 88.0812 18.838C86.7706 18.7551 87.0417 19.1166 86.5747 16.5783C86.4789 16.2954 86.4487 15.9944 86.4866 15.6982C86.5244 15.4019 86.6293 15.1182 86.7932 14.8685C88.1188 12.8122 86.3337 11.5167 87.6518 11.8104C88.4653 12.0515 88.6837 11.9912 88.7892 13.3997Z" fill="white"/>
<path id="Vector_16" d="M75.6973 39.627C79.1169 40.2748 80.2165 39.6722 79.855 39.9961C76.2019 43.3404 75.3357 44.6585 73.4677 40.1317C72.9254 38.7985 72.127 38.9567 75.6973 39.627Z" fill="white"/>
<path id="Vector_17" d="M73.6113 9.79224C74.7185 9.92028 73.89 9.79224 73.6565 11.2987C73.2648 13.7993 74.8692 12.0519 72.8581 16.4959C72.7451 16.7444 72.7074 16.7218 71.5851 16.5411C70.7717 16.413 73.197 13.8219 72.3007 12.2628C71.8563 11.5096 72.3007 10.8241 72.6246 10.0483C72.7074 9.86003 72.6547 9.92782 73.6113 9.79224Z" fill="white"/>
<path id="Vector_18" d="M70.1988 114.723C72.1572 115.288 72.5262 115.258 72.4584 115.536C72.2551 116.214 71.2006 116.116 69.6715 115.823C67.6228 115.431 65.3933 114.768 62.8926 115.228C62.4859 115.303 62.516 115.228 61.3184 115.13C61.2463 115.117 61.1721 115.129 61.1077 115.163C61.0433 115.198 60.9925 115.254 60.9637 115.321C60.9349 115.388 60.9297 115.463 60.9489 115.534C60.9682 115.604 61.0108 115.666 61.0698 115.71C61.9632 116.001 62.8771 116.225 63.804 116.38C64.7078 116.546 65.1598 116.38 65.7397 116.681C67.3215 117.6 67.4947 117.103 68.3308 117.638C70.4699 119.001 71.4642 118.843 70.9068 119.348C70.3494 119.852 69.7318 119.709 67.329 118.519C65.7247 117.721 63.7362 118.127 61.1301 117.48C60.4446 117.306 60.068 117.939 60.5501 118.12C64.0601 119.408 63.6835 118.722 65.0694 119.739C66.026 120.492 66.2519 120.304 67.5249 121.246C67.8488 121.487 67.4194 121.728 67.1483 121.735C65.9958 121.735 63.4876 120.334 62.8323 120.334C62.1499 120.32 61.4719 120.221 60.8137 120.041C59.8421 119.807 56.3848 122.639 54.3135 123.053C52.5359 123.43 50.7131 122.089 50.5474 121.442C50.5474 121.321 50.4796 121.329 51.2253 119.22C51.632 118.067 52.1442 119.837 54.1026 118.105C54.5183 117.578 54.7628 116.937 54.8031 116.267C54.8031 116.011 55.1269 115.702 55.9781 114.911C56.8292 114.12 57.5598 113.36 58.1775 112.832C61.3937 110.076 61.1903 110.844 64.512 111.107C66.8771 111.288 66.0184 111.22 71.1026 113.269C71.4642 113.412 71.1026 114.15 70.4549 114.022C67.7237 112.993 64.8244 112.482 61.9059 112.516C61.5217 112.516 61.2355 112.795 61.2807 112.968C61.469 113.736 62.3653 112.478 70.1988 114.723Z" fill="#C49E91"/>
<path id="Vector_19" d="M51.4289 114.338C53.4626 114.745 54.3664 116.861 52.5361 117.253C49.7116 117.072 49.6136 113.977 51.4289 114.338Z" fill="white"/>
<path id="Vector_20" d="M50.1559 79.9011C49.7352 80.5199 49.2449 81.0886 48.6947 81.5958C47.5498 82.6277 47.7607 82.7256 47.4744 82.462C45.968 81.0459 44.9813 78.8089 41.5617 76.1124C39.4678 74.4553 39.0535 75.6755 41.7199 72.5346C43.2263 70.7721 42.9024 70.6968 43.3016 70.9754C44.6499 71.9094 44.921 73.0242 46.7589 74.7415C47.8586 75.7508 47.8284 76.15 48.544 77.3251C49.0788 78.1611 49.945 79.532 50.1559 79.9011Z" fill="#C49E91"/>
<path id="Vector_21" d="M47.7458 111.785C47.7458 111.785 49.6665 113.291 49.4631 113.532C49.0192 114.049 48.7568 114.697 48.716 115.377C48.6752 116.057 48.8582 116.732 49.2372 117.298C49.7795 118.112 49.0263 118.119 48.7325 120.161C48.7325 120.439 48.9434 120.454 45.4259 118.097C42.4733 116.123 31.5441 107.913 29.2468 105.209C24.8631 100.057 21.4661 96.9239 25.1945 91.9828C28.4484 87.6518 34.5796 80.4209 34.8959 80.2251C37.9992 81.3173 41.5092 86.3036 42.7746 87.4334C42.9855 87.6217 43.1964 87.5388 41.6598 88.985C41.6598 88.985 38.1197 92.5552 36.5455 94.6341C35.5362 95.9673 34.5269 96.3515 34.7302 97.647C34.9562 99.0781 46.6988 110.723 47.7458 111.785Z" fill="#C49E91"/>
<path id="Vector_22" d="M38.1795 76.4668C41.6895 78.1917 46.3745 84.0743 46.0958 84.3454C44.2053 86.1984 44.4312 86.1682 44.1676 85.8519C42.9323 84.4886 39.1286 80.022 37.0949 78.8168C36.4245 78.4176 36.2362 78.508 36.3869 78.3498C38.3528 76.2408 37.7653 76.8283 38.1795 76.4668Z" fill="#C49E91"/>
<path id="Vector_23" d="M126.63 77.3253C125.877 75.2012 116.334 55.8812 116.326 55.8662C114.541 52.4541 113.69 53.0491 114.007 50.4129C114.684 44.6508 113.788 45.2534 114.338 41.894C114.791 39.3115 115.418 36.7624 116.213 34.2639C116.605 32.8178 116.357 32.0871 115.302 32.0043C114.549 31.9365 114.082 32.6521 113.6 33.9928C112.884 35.9587 112.236 38.8736 111.589 40.3951C111.415 40.8018 111.785 31.462 111.769 30.9197C111.82 30.3559 111.71 29.7895 111.453 29.2852C111.324 29.1335 111.152 29.0239 110.961 28.9702C110.769 28.9166 110.565 28.9213 110.376 28.9839C109.374 29.255 109.299 30.3547 109.035 32.2679C108.629 35.326 108.538 40.4403 108.403 39.672C107.785 36.2449 107.838 35.2732 107.785 31.3866C107.785 30.8669 107.845 30.1288 107.785 29.481C107.71 28.5621 107.228 28.1403 106.595 28.2307C106.083 28.2985 105.804 28.5094 105.57 29.255C104.606 32.2152 105.329 39.3933 104.998 39.1146C104.629 38.9014 104.237 38.7296 103.831 38.6025C102.731 38.0451 102.166 37.6986 101.179 38.1204C99.6728 38.7606 99.8912 39.2201 99.3489 41.1333C98.8066 43.0464 98.4752 43.5737 98.7238 44.3872C98.8141 44.6583 98.43 45.1404 98.6409 45.7279C100.735 51.9118 98.9798 51.5954 106.52 54.5254C107.74 55.0075 107.74 55.58 108.613 57.8471C109.924 61.2592 110.549 63.1874 110.873 64.4302C111.197 65.673 112.967 71.2092 112.922 72.8813C112.431 72.5374 111.958 72.1678 111.506 71.7741C111.272 71.5933 111.506 71.4126 111.589 70.5087C111.665 70.1997 111.666 69.8768 111.591 69.5674C111.517 69.258 111.368 68.9711 111.159 68.7311C110.497 68.121 109.427 67.1343 107.454 65.5149C101.91 61.0106 102.437 56.401 95.6582 56.4913C95.3569 56.4913 94.7317 56.1147 94.1517 56.642C93.9559 56.8303 90.5589 56.0846 88.5026 56.2126C88.1109 56.2126 82.5447 55.9264 81.7688 54.6158C80.8951 53.1621 81.2265 50.4656 81.445 49.4337C82.04 46.6619 81.912 45.9915 82.6878 45.4793C84.0287 44.3361 85.1121 42.9216 85.8663 41.3291C85.9417 41.1559 85.9793 40.8847 86.1074 40.9525C86.3903 41.1329 86.7141 41.2391 87.0489 41.2613C87.3351 41.2613 87.3125 42.0145 88.0959 42.8958C88.2164 43.0238 88.1637 43.0088 87.5686 43.5436C87.3194 43.758 87.118 44.0224 86.9774 44.3196C86.8368 44.6168 86.7601 44.9402 86.7523 45.2688C86.7445 45.5975 86.8058 45.9242 86.9321 46.2277C87.0584 46.5312 87.2471 46.8049 87.4858 47.0309C88.1938 47.5808 88.2842 47.6636 88.1185 48.0252C87.776 48.3877 87.5445 48.8405 87.451 49.3303C87.3576 49.8201 87.4063 50.3264 87.5912 50.7895C87.7804 51.1613 88.0356 51.4957 88.3444 51.7762C88.706 52.1905 89.6023 52.2658 89.4366 51.5728C88.8717 49.1249 91.99 49.8329 89.9337 46.2551C89.0073 44.6357 93.4964 45.2006 91.4853 41.7358C91.0108 40.9224 90.3932 40.2746 91.2594 39.9055C92.1256 39.5364 92.3741 39.5666 92.8713 39.0996C93.5868 38.4217 92.8713 37.5931 93.3382 37.6534C95.0104 37.9924 96.4189 36.7119 95.6506 35.1979C95.1686 34.2338 97.8199 34.9418 97.9103 32.6295C97.9931 30.7991 96.7503 30.8142 97.5638 30.4301C97.927 30.3398 98.2686 30.1781 98.5687 29.9544C98.8687 29.7307 99.1212 29.4494 99.3113 29.127C100.366 27.018 98.6936 25.5191 98.2492 24.8713C99.8536 23.9524 100.328 22.6795 99.8536 21.1504C99.4996 19.9905 98.6861 20.0131 99.0401 19.6063C99.5745 18.9282 99.8279 18.0708 99.7481 17.2111C98.671 13.1739 96.0574 14.3112 96.4114 13.558C96.6989 12.9333 96.7473 12.2248 96.5473 11.5668C96.3475 10.9088 95.9132 10.347 95.3267 9.98778C94.6055 9.56023 93.7651 9.37788 92.9315 9.46806C92.7733 9.28728 93.0445 7.91643 91.5381 7.80345C90.0316 7.69047 89.9714 8.46628 89.8584 8.02941C89.5026 6.96984 88.7923 6.06537 87.8473 5.46848C87.2009 5.1487 86.4797 5.01071 85.7609 5.06927C83.8628 5.11447 83.9984 5.82249 83.5766 5.40069C81.8216 3.58544 80.2248 5.72457 80.0591 5.3103C79.5017 3.91685 75.4343 2.51587 73.2801 5.80743C73.1521 6.00326 73.0767 6.11624 72.9562 5.9882C72.5829 5.69379 72.1398 5.50093 71.67 5.42834C71.2001 5.35575 70.7195 5.4059 70.2748 5.57393C66.584 7.08036 68.6026 9.55844 67.8419 9.09898C67.0811 8.63952 66.5539 8.13486 65.7253 8.55666C63.6013 9.63376 64.5654 11.2005 63.9703 10.982C62.8857 10.5753 61.8538 12.0064 62.1626 13.1287C62.6447 14.8837 62.6447 14.0401 61.2814 14.251C60.8515 14.3071 60.4583 14.5224 60.1794 14.8543C59.9005 15.1861 59.7562 15.6105 59.7749 16.0436C59.8352 17.1584 60.37 17.294 59.9934 17.3392C59.6291 17.4338 59.2883 17.6028 58.9926 17.8356C58.6968 18.0683 58.4525 18.3598 58.2749 18.6916C58.0973 19.0235 57.9903 19.3885 57.9607 19.7637C57.9311 20.1389 57.9795 20.5162 58.1028 20.8717C58.5171 22.0543 59.4887 21.9187 59.1272 22.1974C58.9351 22.3146 58.7777 22.4808 58.6713 22.6791C58.5648 22.8773 58.5132 23.1003 58.5216 23.3252C58.5301 23.55 58.5983 23.7685 58.7193 23.9582C58.8403 24.1479 59.0097 24.3019 59.21 24.4043C59.323 24.4797 59.323 24.5248 59.21 24.6077C58.9094 24.8815 58.6882 25.2314 58.5698 25.6205C58.4514 26.0096 58.4403 26.4233 58.5374 26.8182C58.6346 27.2131 58.8366 27.5745 59.122 27.8641C59.4074 28.1538 59.7657 28.3611 60.1591 28.4642C60.4528 28.532 60.0988 28.547 59.9783 29.5789C59.9479 29.8217 59.9663 30.0681 60.0324 30.3036C60.0985 30.5392 60.211 30.7592 60.3632 30.9507C60.5155 31.1422 60.7044 31.3014 60.919 31.419C61.1335 31.5365 61.3694 31.61 61.6128 31.6352C62.1928 31.6729 60.3097 33.7066 62.8707 35.4615C63.8046 36.1018 62.6372 36.5386 62.4715 37.6308C62.2605 38.964 62.8405 39.2126 63.7519 39.9356C64.2114 40.2972 63.7519 40.2972 62.9987 40.96C62.728 41.164 62.548 41.4659 62.4973 41.801C62.4466 42.1361 62.5293 42.4778 62.7275 42.7527C62.9721 43.0862 63.2442 43.3986 63.541 43.6867C64.0833 44.3194 63.8046 44.7788 63.541 45.6149C63.4054 46.1045 63.8122 46.4133 64.1587 46.2325C65.9513 45.3136 67.0209 44.1763 65.8082 42.5719C65.4542 42.0974 66.2451 42.3233 66.6819 40.9224C66.6819 40.8847 66.7422 40.8094 66.7874 40.9224C68.3767 44.357 69.5441 45.2157 69.5366 46.6091C69.5366 48.1758 68.58 53.3881 67.3899 54.646C66.3354 55.7607 64.4901 56.1072 60.3022 57.0788C59.549 57.2521 59.7674 56.6269 58.6225 56.996C56.747 57.591 56.7244 57.7492 56.4758 57.591C56.2273 57.4329 56.039 57.4781 54.879 57.93C54.4196 58.1108 54.879 58.171 54.1258 58.5024C52.9809 59.0071 52.3633 59.1577 51.6327 60.4608C50.902 61.7639 50.4426 59.7076 42.8351 67.993C41.7881 69.1228 41.2609 69.3864 41.3287 70.1697C41.404 71.1037 41.871 71.2619 41.4341 71.6762C39.7846 73.1299 30.7309 83.5996 29.3827 85.3094C21.4814 95.1012 19.6511 95.7113 29.0136 106.445C30.633 108.305 46.0513 120.424 48.424 121.147C48.8382 121.275 48.4842 121.742 49.4333 122.164C50.066 122.443 49.8475 122.066 50.646 122.82C52.2277 124.326 52.7625 123.791 52.6194 124.168C52.0168 125.757 50.0057 130.781 50.194 132.28C50.4426 134.238 49.7195 134.894 49.4408 136.28C49.0642 137.929 49.3203 138.735 49.019 140.347C48.7554 141.718 48.552 140.987 47.9419 144.919C47.8139 145.763 48.6951 145.898 48.8156 145.341C48.9132 144.321 49.1048 143.312 49.3881 142.328C49.8876 141.135 50.1437 139.855 50.1413 138.562C50.4426 134.419 51.3841 135.278 51.1129 132.491C50.9774 131.067 51.354 130.638 53.4253 124.303C53.5383 123.957 53.7567 124.168 54.3518 124.04C57.2517 123.415 59.9105 120.778 60.5583 120.906C65.183 121.871 61.432 120.741 66.0191 122.518C67.7364 123.189 68.2787 122.021 68.7608 122.096C68.7608 122.096 75.2837 122.97 75.7356 122.631C76.0293 122.413 75.9239 122.767 77.7843 122.925C78.6882 123.008 79.1477 123.271 80.044 123.347C80.9403 123.422 82.4091 123.083 82.7932 123.166C83.8159 123.272 84.8485 123.229 85.8588 123.038C86.9514 123.137 88.0521 123.099 89.1353 122.925C90.1295 122.714 89.6852 122.405 90.2651 122.413C90.7095 122.413 93.6772 122.074 93.6998 122.074C96.0596 121.726 98.372 121.109 100.592 120.236C100.833 120.236 101.044 120.56 101.345 120.665C101.773 120.882 102.111 121.242 102.302 121.682C102.784 122.338 102.558 122.91 102.799 124.07C102.962 125.066 103.037 126.074 103.025 127.083C103.205 128.589 103.446 128.077 104.938 131.271C105.292 132.024 104.637 130.661 107.197 136.942C108.952 141.273 106.339 136.287 110.79 145.838C111.016 146.32 111.159 147.111 111.747 146.922C112.794 146.599 109.487 141.996 108.772 138.743C108.056 135.489 106.971 135.278 107.913 135.225C108.423 135.215 108.924 135.092 109.38 134.864C109.836 134.636 110.236 134.309 110.549 133.907C112.056 131.459 112.854 130.894 112.899 126.104C112.899 123.633 112.734 120.507 112.899 119.46C113.231 117.419 112.146 116.96 112.312 116.319C112.485 115.453 112.44 115.566 112.018 114.632C111.137 112.636 110.248 107.205 107.612 105.646C105.232 104.238 105.201 103.936 104.35 103.846C103.175 103.718 102.527 103.364 100.938 103.613C100.381 103.695 100.185 103.748 100.019 103.613C99.1531 102.859 99.1531 102.776 99.123 102.468C98.9422 100.434 97.7446 98.1819 97.6692 97.3684C97.6051 95.386 97.658 93.4016 97.8274 91.4255C98.1513 86.8535 97.5638 87.215 97.9856 83.7502C98.1739 82.2438 98.3773 81.3851 98.6334 79.2309C98.6334 79.0803 98.4526 78.8619 100.531 80.7374C102.038 82.0706 103.544 84.5034 104.667 83.3435C104.787 83.223 104.878 83.2531 104.991 83.3435C105.992 84.2474 106.565 84.6164 107.612 85.5128C111.287 88.6461 117.11 94.9355 121.923 94.5062C128.016 93.9714 127.949 90.0396 127.949 83.9611C127.977 81.6814 127.528 79.421 126.63 77.3253ZM109.306 39.1146C109.306 39.0017 109.517 32.6596 110.06 30.5506C110.18 30.1137 110.18 29.8426 110.542 29.722C111.664 29.3379 110.21 34.8966 110.7 41.7735C110.7 41.9769 110.805 41.9919 109.148 41.3969C109.02 41.3216 109.065 41.3065 109.322 39.1146H109.306ZM66.1095 35.2582C65.5069 38.3614 66.697 39.4837 65.8685 41.0127C65.6166 41.2839 65.3447 41.5357 65.055 41.766C64.347 42.5644 65.6576 43.0766 65.5822 43.9277C65.4194 44.4661 65.0659 44.9267 64.588 45.2232C64.5649 45.2408 64.5369 45.2506 64.5079 45.251C64.4789 45.2515 64.4505 45.2427 64.4269 45.2258C64.4033 45.2089 64.3857 45.185 64.3768 45.1574C64.3678 45.1298 64.3679 45.1001 64.3771 45.0726C64.7838 43.6867 64.3771 43.4984 63.5485 42.5794C62.8481 41.8262 63.4356 41.4119 64.4298 40.6135C65.0926 40.0863 64.716 39.7022 64.3168 39.3933C62.5166 37.9999 63.0138 37.9999 63.8348 36.4257C64.2038 35.7176 64.0231 35.4389 63.6917 35.1075C63.3602 34.7761 62.5995 34.2639 62.3961 33.6764C62.2867 33.3362 62.2562 32.9756 62.3071 32.6219C62.358 32.2682 62.4889 31.9307 62.6899 31.6352C63.4431 30.641 61.7032 31.3565 60.965 30.3773C60.3474 29.5563 61.1609 28.8031 61.4019 28.5997C61.8839 28.193 61.7182 27.7938 61.3266 27.8089C59.1196 27.8917 58.6903 26.1066 60.1515 24.796C60.611 24.3968 60.8294 24.0955 60.1515 23.8093C58.8033 23.267 59.3983 22.9054 60.1515 22.3857C60.7541 22.0091 60.9048 21.6325 59.9934 21.3312C58.2986 20.7964 58.4869 19.29 59.6017 18.4464C60.7165 17.6028 61.1081 18.6046 61.6806 18.3259C62.1024 18.1225 61.7258 17.3919 61.4471 17.1885C59.9406 16.0662 60.8897 15.2302 61.3642 15.2076C62.366 15.1473 62.3057 15.2829 62.8179 15.1548C64.2038 14.8159 63.0514 13.7388 62.961 12.8349C62.9158 12.4207 63.1267 11.5997 63.7143 11.7654C64.121 11.8708 65.07 12.3077 64.9269 11.4641C64.8655 11.2371 64.8495 11.0001 64.8799 10.7669C64.9103 10.5337 64.9865 10.3088 65.1041 10.1051C65.2216 9.90146 65.3783 9.72303 65.5651 9.58009C65.7519 9.43715 65.965 9.33252 66.1923 9.27222C66.6443 9.1743 66.6443 9.42286 67.3448 9.88986C68.0452 10.3569 68.7533 10.0782 68.7683 9.5961C68.7683 8.52654 68.3541 7.33646 70.5384 6.34974C70.9208 6.2313 71.3287 6.22214 71.716 6.3233C72.1033 6.42445 72.4546 6.63189 72.7303 6.92219C73.0391 7.26113 73.2198 7.53229 73.5437 7.0201C73.7889 6.36496 74.2019 5.78573 74.7413 5.34043C75.1255 5.01362 75.5777 4.77647 76.0649 4.64618C76.5522 4.5159 77.0624 4.49576 77.5584 4.58722C78.0234 4.64759 78.4581 4.85115 78.8023 5.16965C79.1464 5.48816 79.3829 5.90585 79.4791 6.36481C79.5469 6.62843 79.4791 6.84686 79.818 6.93725C80.044 6.99751 80.2775 6.65856 80.3151 6.58324C80.4705 6.27531 80.7054 6.01449 80.9954 5.82777C81.2854 5.64105 81.6201 5.53521 81.9647 5.5212C83.2677 5.69444 83.1397 6.84686 83.3431 7.02764C84.021 7.66034 83.6142 5.47601 86.6196 5.95054C87.1241 6.05587 87.5915 6.29342 87.974 6.63887C88.3565 6.98431 88.6403 7.42522 88.7964 7.91643C89.188 8.79769 88.6608 8.76003 88.9319 9.42286C89.1127 9.88233 89.4517 9.72415 89.7981 9.35507C90.8451 8.21019 92.2386 8.43615 91.9674 9.40027C91.8044 9.73168 91.7121 10.0933 91.6962 10.4623C91.6997 10.5366 91.7242 10.6084 91.767 10.6693C91.8098 10.7302 91.869 10.7776 91.9377 10.8061C92.0065 10.8345 92.0819 10.8428 92.1552 10.8299C92.2285 10.8171 92.2966 10.7836 92.3515 10.7335C93.3081 9.69402 96.4038 10.6205 95.7335 12.9329C95.5452 13.5957 95.3117 14.0928 95.7787 14.2962C97.0516 14.846 97.4885 14.8912 98.2643 15.9005C98.6212 16.3149 98.8286 16.8372 98.8532 17.3835C98.8778 17.9299 98.7181 18.4686 98.3999 18.9134C98.3019 19.0565 97.7596 19.3879 97.5563 19.6666C97.5144 19.7242 97.4877 19.7914 97.4788 19.8621C97.4699 19.9328 97.4791 20.0045 97.5054 20.0707C97.5317 20.1369 97.5743 20.1953 97.6293 20.2405C97.6843 20.2858 97.7499 20.3164 97.8199 20.3294C98.8367 20.4499 99.7783 22.1372 98.6334 23.4628C98.0082 24.216 97.7898 23.9524 97.496 24.4797C96.9311 25.4588 99.1757 26.4907 98.784 28.1704C98.5053 29.3831 97.5261 29.5111 96.916 29.9103C96.3059 30.3095 96.208 30.6636 96.8181 31.5072C97.0346 31.7524 97.1621 32.0636 97.1798 32.3902C97.1976 32.7169 97.1047 33.04 96.916 33.3073C96.0875 34.2187 94.8522 33.684 94.8221 34.6179C94.7844 35.8005 95.3719 36.2298 94.4907 36.7119C93.6094 37.1939 92.5926 36.3729 92.231 36.7721C91.8695 37.1713 92.231 37.4124 92.3289 37.8643C92.585 38.7531 91.9599 38.497 90.6267 39.2276C89.9789 39.5892 89.6927 40.5156 90.3706 41.6078C91.4627 43.3778 91.523 43.4833 90.0618 44.4098C87.4707 46.0668 90.7246 47.3699 89.6927 48.7031C88.6608 50.0363 88.706 50.6464 88.7587 50.9627C88.8114 51.2791 88.5177 51.3092 88.2992 50.8422C88.1057 50.5459 88.0135 50.1948 88.0366 49.8417C88.0597 49.4885 88.1968 49.1524 88.4273 48.8839C88.5854 48.702 88.7017 48.4877 88.768 48.2561C88.8344 48.0245 88.8492 47.7811 88.8114 47.5431C88.7662 47.1741 88.2992 46.7899 87.787 46.4208C87.5771 46.2046 87.4477 45.9228 87.4203 45.6227C87.3928 45.3225 87.4691 45.022 87.6364 44.7713C88.2992 43.7545 88.6608 43.9051 88.819 43.2649C88.947 42.7527 88.3068 42.248 87.9377 41.412C87.8398 41.2613 91.1615 38.2033 91.4025 35.5444C91.478 35.161 91.4478 34.7643 91.3151 34.3968C91.1824 34.0293 90.9522 33.7047 90.6493 33.458C90.5137 33.3751 90.4384 33.3299 90.476 33.0889C92.3892 20.3972 93.0144 16.8872 93.2102 15.9532C93.3081 15.4637 93.2102 15.2678 92.9089 15.1473C92.6076 15.0268 92.344 15.2076 92.3064 14.7556C92.0653 12.2399 88.8792 10.8992 86.3559 10.8992C85.6813 10.8123 84.9959 10.9192 84.3797 11.2073C83.7636 11.4954 83.242 11.9528 82.8761 12.5261C82.7179 12.8425 82.6953 13.0308 82.4919 12.8199C82.1248 12.4482 81.6709 12.1737 81.1713 12.0212C80.6716 11.8687 80.1418 11.8429 79.6297 11.9461C78.289 12.1269 78.2438 12.6994 78.1911 12.2248C77.7768 8.31564 70.6589 7.94656 68.6102 11.1553C68.339 11.5846 68.6102 11.9085 67.9398 11.9687C66.7572 12.029 67.277 12.3755 66.8853 26.2045C66.6744 34.6481 67.0359 30.287 66.1095 35.2582ZM88.4273 30.4451C87.546 29.9405 88.6231 29.2174 88.834 28.6826C89.3236 27.4473 86.9811 28.2834 86.9209 27.0933C86.8305 25.4664 88.8566 26.2422 88.4273 24.1708C88.2842 23.5005 87.7117 23.5005 86.7401 23.2745C86.3107 23.1766 86.0998 22.8301 85.8663 22.5213C85.4069 21.8585 86.6196 20.5554 86.0396 20.1487C85.4596 19.7419 84.6009 21.5722 83.6594 20.9923C83.2677 20.7588 82.7556 20.5177 82.9062 20.0809C83.215 19.0866 82.5748 18.8757 82.1003 19.3277C81.9656 19.4384 81.8042 19.5117 81.6323 19.5404C81.4604 19.5691 81.2839 19.552 81.1206 19.491C80.9574 19.43 80.813 19.3271 80.702 19.1926C80.591 19.0582 80.5174 18.897 80.4884 18.7251C80.3302 17.8137 79.7352 18.0321 79.5469 18.5443C79.2682 19.4557 78.3267 20.3294 77.6036 20.0507C77.3592 19.9878 77.1346 19.8644 76.9504 19.692C76.7661 19.5196 76.6281 19.3037 76.5491 19.064C76.5044 18.9814 76.4369 18.9134 76.3547 18.8681C76.2725 18.8228 76.179 18.8021 76.0853 18.8085C75.9916 18.8148 75.9018 18.848 75.8264 18.904C75.751 18.9599 75.6934 19.0364 75.6603 19.1243C75.2234 20.0056 75.1104 19.8775 74.3798 19.9302C73.7772 19.9754 73.4383 19.5762 73.1069 19.0866C73.0599 18.9956 72.9842 18.9225 72.8916 18.8787C72.799 18.8348 72.6945 18.8227 72.5943 18.8441C72.4941 18.8655 72.4037 18.9193 72.3371 18.9972C72.2704 19.075 72.2313 19.1726 72.2256 19.2749C72.3596 19.7492 72.3391 20.2537 72.1672 20.7155C71.9952 21.1773 71.6806 21.5724 71.269 21.8434C70.7129 22.1455 70.0938 22.3132 69.4613 22.333C68.5951 22.4384 68.6403 21.7756 68.0829 22.3706C67.9925 22.4761 68.0829 22.4158 67.8871 22.5364C67.8419 22.2727 67.8344 13.445 68.098 13.4526C68.3616 13.4601 67.8871 14.1229 68.8512 15.6218C71.1108 19.0113 75.9465 17.6405 77.3851 15.1096C77.9726 14.0702 78.2438 13.3245 79.238 13.0082C79.7028 12.8443 80.2062 12.825 80.6821 12.9527C81.1581 13.0804 81.5842 13.3492 81.9044 13.7237C82.1586 14.2473 82.3677 14.7916 82.5296 15.3507C83.3355 18.9285 87.9302 21.3764 91.0033 18.5368C91.6736 17.9191 92.0201 16.9098 92.0126 17.2187C92.0126 17.6706 91.2594 20.9847 89.6023 32.6596C89.6023 32.8328 89.5194 32.9157 89.3387 32.9307C89.1579 32.9458 88.8491 33.0437 88.5855 32.8705C88.4946 32.8208 88.415 32.7529 88.3516 32.671C88.2881 32.5892 88.2423 32.4952 88.2168 32.3948C88.1914 32.2944 88.1869 32.1899 88.2037 32.0877C88.2205 31.9855 88.2581 31.8879 88.3143 31.8009C88.6758 31.2511 89.5194 31.0778 88.4273 30.4451ZM72.3085 12.2851C71.8641 11.5319 72.3085 10.8464 72.6323 10.0706C72.7152 9.85973 72.6323 9.92752 73.619 9.81454C74.7263 9.94258 73.8977 9.81454 73.6642 11.321C73.2726 13.8216 74.8769 12.0742 72.8658 16.5182C72.7528 16.7667 72.7152 16.7441 71.5929 16.5634C70.802 16.4353 73.1973 13.8442 72.3085 12.2851ZM87.6967 11.8332C88.4499 12.0139 88.6909 11.9913 88.7964 13.3998C88.8943 14.6276 87.787 14.5598 87.9979 16.0888C88.3972 18.8833 88.706 18.8682 88.0883 18.8381C86.7777 18.7552 87.0489 19.1168 86.5819 16.5784C86.486 16.2956 86.4559 15.9946 86.4937 15.6983C86.5316 15.402 86.6364 15.1183 86.8003 14.8686C88.126 12.8048 86.371 11.5394 87.6891 11.8332H87.6967ZM68.2411 41.9618C65.6576 37.4952 67.2694 35.0699 67.5858 32.057C67.7515 30.5506 67.5105 28.7127 67.6611 26.7845C67.744 25.7074 67.744 24.2612 68.1507 23.4327C68.2486 23.2444 68.339 23.0862 68.4972 23.0636C69.0244 23.0034 69.2504 23.2896 70.1994 23.1088C71.0572 23.0316 71.859 22.6495 72.4591 22.0317C73.4081 20.8793 73.0089 20.4123 73.3856 20.5931C73.8139 20.8247 74.3045 20.9152 74.7874 20.8517C75.2703 20.7881 75.7207 20.5737 76.0745 20.239C76.406 19.9604 76.1725 20.5027 77.4077 20.9395C78.2965 21.2484 79.4188 20.5328 79.9009 19.87C80.172 19.4783 80.2474 20.6684 81.7086 20.4499C82.379 20.352 81.927 21.6551 83.8779 22.0091C84.2241 22.0127 84.5674 21.9461 84.8872 21.8133C85.3391 21.625 84.3674 22.6795 85.9944 23.9072C86.4219 24.1391 86.8897 24.2874 87.3728 24.3441C87.659 24.4043 87.8247 24.7132 87.4707 24.9542C85.3316 26.3928 85.9643 28.4868 87.3427 28.7203C87.546 28.7203 87.7569 28.773 87.6289 28.9236C87.3943 29.228 87.2671 29.6014 87.2671 29.9857C87.2671 30.3699 87.3943 30.7433 87.6289 31.0477C87.9226 31.3565 87.418 31.4092 87.4782 32.5541C87.531 33.458 88.2314 33.3827 87.8774 33.7894C87.6364 34.0832 87.8774 34.5953 88.2089 34.4221C88.4423 34.3091 89.0073 33.4505 89.9111 33.8647C90.815 34.279 90.7472 35.4465 90.4158 36.3579C89.8831 37.6808 89.1178 38.8976 88.1561 39.9507C87.9324 40.2272 87.6124 40.4088 87.2603 40.4591C86.9083 40.5094 86.5502 40.4247 86.258 40.2219C86.0998 40.1315 85.8814 40.1315 85.6705 40.4026C84.6763 41.668 84.3449 44.0482 79.705 46.6845C77.6714 47.8369 75.1857 48.6579 73.0466 47.6636C70.6514 46.466 69.4613 44.0708 68.2336 41.9543L68.2411 41.9618ZM61.9517 57.5308C68.0829 55.934 68.3164 56.0243 69.4839 51.5879C69.9599 49.995 70.2679 48.3566 70.4028 46.6995C70.9979 47.0686 73.1219 49.2981 75.8486 48.8839C79.0045 48.3943 80.5486 46.9707 81.1211 46.7673C81.1738 47.4678 79.8481 51.1661 80.6917 54.2995C81.6182 57.7417 90.4459 56.755 93.6094 57.5006C91.6887 59.5871 90.4986 60.0691 88.0959 61.5605C86.377 62.8612 84.4034 63.7851 82.3036 64.2721C80.883 64.6979 79.4162 64.9508 77.935 65.0253H76.8052C72.0277 64.9349 67.3918 63.3869 63.5184 60.5888C59.9331 57.2446 60.144 57.9978 61.9517 57.5308ZM46.5937 65.3492C51.5197 60.6114 51.3916 62.5924 52.6194 60.5662C53.1994 59.6247 53.5006 59.813 54.8037 59.233C56.3101 58.6154 76.7298 88.9399 86.2354 96.7131C92.0879 101.504 99.2887 106.347 99.3113 106.392C99.5824 107.145 99.8084 108.591 99.0853 108.855C98.0007 109.254 97.2851 108.576 95.9369 108.38C94.5886 108.185 92.0653 111.393 87.8172 110.994H87.1995C85.5349 110.685 85.2261 110.384 84.1867 110.994C83.8449 111.309 83.3931 111.477 82.9288 111.461C81.7525 111.613 80.5592 111.366 79.5393 110.761C78.0329 109.94 75.6678 111.514 72.8583 111.469C72.1071 111.357 71.3982 111.05 70.802 110.58C69.514 109.789 68.6328 111.408 66.7045 110.678C65.6651 110.279 64.1135 110.474 62.7125 110.211C62.1442 110.113 61.5634 110.113 60.9951 110.211C60.5206 110.414 60.837 109.879 59.8201 109.458C59.4887 109.322 58.3137 109.284 57.7413 108.817C57.0483 108.252 58.2082 107.815 58.3664 106.746C58.3807 106.243 58.4879 105.748 58.6828 105.285C59.662 103.65 59.6394 103.304 59.6845 102.633C59.5952 101.801 59.6694 100.959 59.903 100.155C60.3549 99.3041 59.2477 96.1406 59.0518 95.5607C57.4701 90.9284 58.0049 93.5646 57.2743 88.842C56.7018 85.1286 56.1746 85.1286 56.1294 83.1778C56.0842 81.227 56.634 81.1742 56.1294 79.939C55.9621 79.6648 55.7623 79.4119 55.5343 79.1857C55.3015 78.9208 55.164 78.5856 55.1435 78.2335C55.123 77.8814 55.2208 77.5326 55.4213 77.2424C56.2743 75.8245 56.7489 74.2114 56.7997 72.5574C56.988 71.2694 57.0935 69.9588 56.5813 69.9814C55.7 69.9814 56.5135 72.5499 55.4967 75.3217C54.992 76.7077 53.8772 77.491 53.011 78.3346C50.6535 80.5943 51.6779 80.7976 50.2844 78.4551C48.2809 75.0882 48.4164 75.1485 47.505 74.207C45.9233 72.565 46.315 73.145 45.5617 72.0904C44.8138 71.022 43.8156 70.1531 42.6543 69.5596C42.5112 69.4919 45.4111 66.4941 46.5937 65.3492ZM59.7448 110.542C59.1879 111.03 58.5821 111.459 57.9371 111.823C57.2517 111.664 56.9428 111.393 57.0935 110.746C57.2065 110.256 57.4626 109.804 57.9371 109.992C58.9313 110.279 59.1874 110.037 59.7448 110.535V110.542ZM41.7203 72.5348C43.2268 70.7723 42.9029 70.697 43.3021 70.9757C44.6504 71.9097 44.9215 73.0244 46.7594 74.7418C47.8591 75.7511 47.8289 76.1503 48.5445 77.3253C49.0793 78.199 49.9455 79.5849 50.1564 79.939C49.7356 80.5579 49.2454 81.1265 48.6951 81.6337C47.5502 82.6656 47.7611 82.7635 47.4749 82.4999C45.9685 81.0838 44.9818 78.8468 41.5622 76.1503C39.4682 74.4555 39.054 75.6758 41.7203 72.5348ZM36.3876 78.3723C38.3535 76.2407 37.766 76.8206 38.1802 76.4666C41.6902 78.1915 46.3752 84.0741 46.0965 84.3453C44.206 86.2057 44.4319 86.1681 44.1683 85.8517C42.933 84.4884 39.1293 80.0218 37.0956 78.8167C36.4252 78.4401 36.2369 78.5304 36.3876 78.3723ZM49.4634 113.532C49.0195 114.049 48.757 114.697 48.7162 115.377C48.6754 116.058 48.8585 116.732 49.2374 117.298C49.7798 118.112 49.0265 118.119 48.7328 120.161C48.7328 120.439 48.9437 120.454 45.4262 118.097C42.4736 116.123 31.5444 107.913 29.2471 105.209C24.8634 100.057 21.4664 96.924 25.1948 91.9829C28.4487 87.6519 34.5799 80.421 34.8962 80.2252C37.9995 81.3173 41.5094 86.3036 42.7748 87.4335C42.9857 87.6218 43.1966 87.5389 41.6601 88.9851C41.6601 88.9851 38.12 92.5553 36.5457 94.6342C35.5364 95.9674 34.5271 96.3515 34.7305 97.6471C35.0652 98.3996 35.5496 99.0762 36.1541 99.6356C37.894 101.662 41.1479 105.27 47.7611 111.785C47.7611 111.8 49.6668 113.299 49.4634 113.532ZM40.5303 103.319C36.4855 98.1141 34.61 98.0839 36.1239 96.3591C41.1102 90.6798 40.3194 91.772 46.4204 85.2868C48.4466 83.1251 49.3128 82.1534 49.7722 81.7316C50.2317 81.3098 50.2844 81.483 50.8041 81.5508C51.4745 81.6337 51.9189 80.3608 54.3442 78.3421C54.4196 78.2819 54.4723 78.2518 54.4648 78.3421C54.397 79.7808 55.5117 79.8486 55.5117 80.9558C55.162 82.49 55.2165 84.0888 55.6699 85.5956C56.5888 88.4352 56.5813 91.4029 57.1763 92.9545C60.2495 101.481 58.7807 97.9785 58.8861 101.993C58.8861 103.07 58.8861 103.108 57.9446 104.742C57.455 105.586 57.7563 106.422 57.3044 107.002C56.7319 107.695 56.4005 108.282 56.8073 109.058C57.101 109.616 56.054 109.812 56.3252 111.318C56.521 112.448 57.5303 112.109 57.0182 112.779C56.8449 113.005 56.4608 113.337 55.7678 114.037C55.4367 114.387 55.0846 114.717 54.7133 115.024C54.4798 115.205 54.412 115.024 54.2011 114.715C53.8026 114.071 53.205 113.573 52.4989 113.299C50.9171 112.591 50.6761 113.299 50.3221 112.93C49.9681 112.561 40.7713 103.62 40.5303 103.319ZM51.4293 114.338C53.463 114.745 54.3668 116.862 52.5365 117.253C49.712 117.073 49.614 113.977 51.4293 114.338ZM67.1339 121.758C65.9814 121.803 63.4732 120.357 62.8179 120.357C62.1355 120.342 61.4575 120.243 60.7993 120.063C59.8277 119.829 56.3704 122.661 54.299 123.076C52.5215 123.452 50.6987 122.112 50.533 121.464C50.533 121.343 50.4652 121.351 51.2109 119.242C51.6176 118.089 52.1298 119.859 54.0881 118.127C54.5039 117.6 54.7484 116.959 54.7886 116.289C54.7886 116.033 55.1125 115.724 55.9637 114.933C56.8148 114.143 57.5454 113.382 58.1631 112.855C61.3793 110.098 61.1759 110.866 64.4976 111.13C66.8778 111.31 66.0869 111.265 71.0882 113.291C71.4498 113.434 71.0882 114.173 70.4405 114.045C67.7093 113.015 64.81 112.504 61.8915 112.538C61.5073 112.538 61.2211 112.817 61.2663 112.99C61.4621 113.743 62.3585 112.5 70.1919 114.745C72.1503 115.31 72.5194 115.28 72.4516 115.559C72.2482 116.236 71.1937 116.139 69.6647 115.845C67.6159 115.453 65.3864 114.79 62.8857 115.25C62.479 115.325 62.5091 115.25 61.3115 115.152C61.2395 115.139 61.1652 115.151 61.1008 115.186C61.0364 115.22 60.9856 115.276 60.9568 115.343C60.928 115.41 60.9228 115.485 60.9421 115.556C60.9613 115.627 61.0039 115.689 61.0629 115.732C61.9563 116.023 62.8703 116.247 63.7971 116.402C64.701 116.568 65.1529 116.402 65.7329 116.703C67.3146 117.622 67.4879 117.125 68.3239 117.66C70.4631 119.023 71.4573 118.865 70.8999 119.37C70.3426 119.874 69.7249 119.731 67.3222 118.541C65.7178 117.743 63.7293 118.15 61.1232 117.502C60.4378 117.329 60.0612 117.961 60.5432 118.142C64.0532 119.43 63.6766 118.745 65.0625 119.762C66.0191 120.515 66.2451 120.326 67.518 121.268C67.8343 121.509 67.405 121.75 67.1339 121.758ZM74.2819 114.979C74.1237 116.364 73.4533 119.588 73.8224 121.426C73.8676 121.645 73.7546 121.569 73.4533 121.569C72.5277 121.52 71.6051 121.425 70.689 121.283C69.5893 121.117 68.9943 121.456 68.3239 120.876C66.8175 119.588 65.7027 119.37 65.3563 118.888C66.8627 118.812 67.9624 120.01 69.5818 120.296C70.6514 120.492 71.7134 120.296 72.09 119.287C72.4666 118.278 69.9584 117.781 68.5725 116.809C68.0603 116.595 67.5242 116.443 66.9757 116.357C66.7798 116.297 66.0944 115.95 66.2978 115.935C66.6489 115.95 66.9974 116.003 67.3372 116.093C68.1733 116.312 69.853 116.598 71.2916 116.847C71.9996 116.952 73.0993 116.681 73.25 115.672C73.4006 114.662 72.4516 114.504 71.4799 114.263C71.7887 114.112 71.7887 113.645 71.9846 113.676C72.1804 113.706 72.8809 113.984 73.619 114.09C73.8218 114.121 74.0195 114.179 74.2066 114.263C74.4024 114.346 74.3346 114.489 74.2819 115.001V114.979ZM75.0351 121.758C74.9071 121.758 74.651 121.705 74.6284 121.577C74.4099 120.131 74.1915 120.439 74.9899 114.594C74.9899 114.361 75.0803 114.301 76.0293 114.376C75.1029 118.541 75.6 120.876 75.4042 121.577C75.3665 121.765 75.2008 121.773 75.0426 121.765L75.0351 121.758ZM82.2584 122.127C80.752 122.322 80.2022 122.496 79.2004 122.202C77.4755 121.682 76.1875 122.119 76.1875 121.388C76.1222 119.207 76.2913 117.026 76.6922 114.881C76.7168 114.742 76.7889 114.617 76.8962 114.526C77.0035 114.435 77.1391 114.385 77.2797 114.384H78.2965C78.9669 114.384 78.997 114.941 79.931 114.798C80.5863 114.7 81.2416 114.655 81.8969 114.61C82.3036 114.61 82.2283 114.542 82.379 115.837C82.1003 115.852 82.3865 122.119 82.266 122.134L82.2584 122.127ZM84.1942 122.217C83.2753 122.217 83.2452 122.217 83.1849 122.096C82.9062 121.471 83.1849 115.393 82.9891 114.753C82.8987 114.466 83.0719 114.534 83.9607 114.534C84.0511 115.483 84.3599 122.225 84.2017 122.225L84.1942 122.217ZM89.3914 121.675C89.2929 121.809 89.1524 121.907 88.9922 121.953C88.4126 122.06 87.8261 122.126 87.2372 122.149C85.5349 122.066 85.0905 122.3 85.0679 121.614C84.7742 111.928 83.9984 115.22 86.9359 114.21C87.3706 113.951 87.8799 113.845 88.3821 113.909C89.2106 113.909 89.2257 113.796 89.301 114.391C89.4586 116.818 89.4913 119.252 89.3989 121.682L89.3914 121.675ZM90.3781 121.449C89.9789 121.449 90.1747 121.404 90.1898 120.409C90.1898 119.716 90.2501 117.66 90.2651 117.329C90.3781 113.563 89.2332 113.713 90.5965 113.698C90.6223 113.703 90.6462 113.715 90.666 113.732C90.6859 113.749 90.7008 113.771 90.7095 113.796C90.9251 114.529 91.0243 115.292 91.0033 116.056C90.9106 117.75 90.9383 119.449 91.0861 121.14C91.1389 121.434 90.9129 121.486 90.3856 121.456L90.3781 121.449ZM91.99 121.185C91.651 120.906 91.8996 115.785 91.7414 114.873C91.41 112.922 90.4233 113.721 94.7995 112.967C99.3188 112.214 99.5222 111.348 99.605 113.141C99.605 113.344 99.8988 117.773 100.193 119.166C100.336 119.762 92.4796 121.584 91.9975 121.193L91.99 121.185ZM111.393 115.626C111.31 116.297 111.257 116.455 110.971 116.583C110.237 116.859 109.518 117.173 108.817 117.524C107.536 118.368 106.64 118.353 105.45 118.737C102.693 119.641 101.97 118.895 101.978 119.581C101.971 119.685 102.007 119.788 102.076 119.867C102.241 120.033 102.625 119.972 103.16 119.972C103.849 120.009 104.538 119.907 105.186 119.671C107.514 118.918 107.657 119.227 109.442 118.165C109.819 117.931 111.212 117.411 111.28 117.366C112.259 116.944 111.822 119.965 111.83 120.334C111.905 129.29 112.387 129.064 109.736 133.229C109.45 133.605 109.071 133.901 108.637 134.087C108.202 134.273 107.727 134.343 107.258 134.291C107.107 134.291 107.054 134.419 106.203 132.031C104.697 127.904 103.778 128.491 103.8 125.855C103.8 124.725 103.537 123.987 103.424 122.518C103.384 121.885 103.166 121.277 102.794 120.763C102.422 120.25 101.912 119.853 101.322 119.618C100.976 119.438 101.149 119.234 100.968 118.684C100.87 118.391 101.134 118.549 101.398 118.571C102.211 118.639 104.117 118.647 104.78 118.278C105.894 117.645 106.987 117.735 109.013 116.636C111.182 115.461 111.476 115.295 111.4 115.634L111.393 115.626ZM100.095 105.729C100.2 105.584 100.266 105.414 100.286 105.236C100.306 105.057 100.279 104.877 100.208 104.712C100.155 104.403 100.042 104.418 101.616 104.321C102.362 104.348 103.102 104.459 103.823 104.652C104.742 104.788 105.329 105.405 106.971 106.407C109.035 107.672 110.301 112.433 110.858 114.76C108.448 115.92 104.079 118.436 101.142 117.72C100.441 117.547 100.554 113.585 100.268 112.305C100.23 112.109 100.087 111.905 100.132 111.74C100.177 111.574 101.187 111.167 100.765 110.181C100.283 109.028 100.012 109.307 100.155 108.991C100.825 107.153 99.9816 105.925 100.177 105.737L100.095 105.729ZM99.959 110.407C100.072 110.617 99.9138 110.73 99.7858 110.866C99.4092 111.295 99.0326 111.107 98.0308 111.288C97.3604 111.408 95.8841 111.868 95.0179 112.041C95.0179 112.041 89.2859 112.983 87.772 112.998C86.7853 112.998 87.2146 113.367 85.7232 113.472C84.2319 113.578 81.814 113.676 81.5052 113.698C79.6071 113.834 79.5243 114.007 79.2004 113.743C78.756 113.397 78.5677 113.51 76.4511 113.487C75.5925 113.487 74.1915 113.412 74.1915 113.412C73.6115 113.623 72.3235 113.096 71.1786 112.659C69.8906 112.139 68.7382 111.664 68.919 111.597C69.6044 111.31 69.8153 111.122 70.32 111.371C71.977 112.192 71.8264 112.629 74.7413 112.252C74.7413 112.252 78.2137 111.182 78.9895 111.551C79.8434 112.068 80.8104 112.367 81.8065 112.425C83.5916 112.516 83.8251 112.425 84.4277 112.041C86.0245 111.084 84.9474 112.154 89.0449 111.966C91.99 111.83 94.7995 109.563 95.5226 109.367C96.1249 109.377 96.7182 109.516 97.2625 109.774C97.9939 110.001 98.7698 110.045 99.5222 109.902C99.8912 109.879 99.8912 110.203 100.004 110.414L99.959 110.407ZM99.5674 104.863C99.6201 106.181 99.4845 105.797 92.4871 100.705C77.8295 90.0019 74.5681 81.3023 56.5512 59.7377C56.3101 59.4515 55.7076 58.9167 55.5494 58.7209C55.3912 58.525 55.6021 58.4422 55.9109 58.3217C56.2198 58.2011 56.2574 58.171 56.8299 58.6832C59.21 60.8223 65.4692 69.7781 73.4006 79.3665C78.7936 85.8668 81.0307 89.678 89.8961 97.2027C91.8046 98.8036 93.8176 100.276 95.9218 101.609C99.492 104.336 99.4619 103.56 99.6125 104.87L99.5674 104.863ZM102.535 81.6262C101.465 80.1197 99.5598 78.9824 98.7689 77.8601C98.3471 77.2876 98.8217 77.1747 98.3848 75.141C97.7521 72.1281 98.2869 71.5557 97.4809 68.716C97.3755 68.3696 96.7729 68.2716 96.7277 68.716C96.7277 69.0098 96.9386 69.9739 97.1495 71.4502C97.1591 72.7762 97.2979 74.098 97.5638 75.3971C98.2643 78.7413 96.8106 82.4396 96.8934 86.3262C97.0516 92.9621 96.4716 93.8584 96.6976 96.7733C96.8859 99.2364 97.0667 97.6546 98.1212 101.91C98.1739 102.114 87.6891 96.2762 76.9181 82.4698C75.5322 80.6997 57.568 58.2539 57.6132 58.2388C58.856 57.817 59.1799 57.5835 59.7599 58.1183C62.5166 60.7244 64.4524 63.2703 71.3971 65.191C85.7082 69.0851 94.3024 57.0864 95.5 57.2521C98.5128 57.6965 98.8669 57.4479 100.162 58.6907C102.821 61.2441 102.595 62.148 106.271 65.658C107.115 66.4639 109.178 68.0758 110.308 69.0173C110.64 69.296 110.497 69.0173 108.516 71.985C107.069 74.1769 106.384 75.7511 105.337 77.2575C103.228 80.2478 103.401 82.771 102.58 81.6337L102.535 81.6262ZM120.567 93.3989C116.409 92.6457 113.592 89.3617 104.403 81.7617C103.966 81.4077 104.749 81.0763 105.036 79.6904C105.241 78.9968 105.596 78.3566 106.075 77.8149C106.535 77.1596 109.201 72.5424 109.691 71.7892C109.864 71.518 109.864 71.5105 113.005 74.094C113.396 74.4179 115.626 85.2341 117.17 84.1946C117.81 83.7653 116.417 82.7334 115.543 79.5548C113.961 73.6119 112.191 63.7975 109.638 58.1635C109.382 57.5986 108.583 55.2787 108.034 54.646C106.783 53.1847 102.076 52.7027 100.863 50.1794C100.509 49.4262 100.697 49.6973 99.4845 45.9237C99.2887 45.2985 99.4845 45.2232 99.59 45.1027C99.6954 44.9822 100.102 45.1027 100.245 45.2609C100.612 45.7112 100.9 46.2206 101.096 46.7673C102.219 49.2303 101.812 49.5843 102.603 49.7802C104.365 50.2773 103.989 49.2153 105.827 49.5316C106.384 49.6935 106.953 49.8144 107.529 49.8932C107.815 49.8932 108.086 49.4488 107.604 49.2605C107.153 49.0064 106.657 48.8426 106.143 48.7784C105.631 48.7784 106.143 47.5733 105.691 46.1723C104.697 42.9334 105.345 42.9786 104.395 42.1802C103.77 41.6379 102.829 40.7491 102.076 40.832C101.322 40.9148 101.541 41.299 100.622 43.1368C99.9967 44.3796 99.2736 44.4851 99.5146 43.5963C99.9208 42.538 100.214 41.4398 100.388 40.3198C100.66 38.8134 101.895 38.5723 102.648 39.0318C103.718 39.6946 103.514 39.318 104.968 40.1691C106.648 41.1483 105.54 38.0149 105.894 32.6822C105.927 31.6577 106.043 30.6375 106.241 29.6317C106.241 29.5036 106.309 29.0592 106.625 28.999C106.941 28.9387 107.1 29.2475 107.145 29.7522C107.31 31.5599 106.572 36.6818 107.958 41.1634C107.318 41.1634 106.557 40.9826 106.746 41.5852C106.783 41.6982 107.695 41.8338 107.717 41.8338C110.527 42.2254 112.357 43.7168 112.598 43.1669C112.764 42.7753 112.312 42.5945 111.89 42.4137C111.468 42.233 111.785 42.2782 112.523 40.3951C113.073 38.9791 114.406 32.75 115.204 32.8629C115.453 32.8629 115.656 32.991 115.649 33.3525C115.649 34.7686 113.848 38.5648 113.442 42.0371C112.982 45.871 113.803 43.6415 113.065 51.1812C112.892 52.9813 114.202 53.2525 116.583 58.2915C116.583 58.2915 119.558 65.0705 120.477 66.7878C122.736 70.9305 125.975 76.9035 126.834 80.888C127.256 82.8313 127.007 88.8947 126.909 89.4596C126.254 92.8491 122.962 93.8283 120.567 93.3989ZM105.119 48.334C105.119 48.8085 104.915 48.5148 103.815 48.9893C103.507 49.1249 102.708 49.0571 102.573 48.7558C102.219 47.9574 102.452 47.9649 102.038 47.0159C101.779 46.383 101.466 45.7733 101.104 45.1931C100.901 44.8617 100.403 44.8692 100.652 44.5905C102.158 42.9259 101.85 41.412 102.497 41.7057C103.087 42.0309 103.623 42.445 104.087 42.9334C104.584 43.2197 104.147 43.8147 104.923 46.466C105.076 47.0763 105.142 47.7052 105.119 48.334Z" fill="#000001"/>
<path id="Vector_24" d="M106.52 42.6475C107.717 42.4065 112.862 44.1087 112.546 44.636C112.455 44.7716 112.38 44.9523 112.169 44.9147C111.544 44.7942 108.975 43.3179 106.738 43.2501C106.699 43.2644 106.657 43.2708 106.615 43.2689C106.573 43.267 106.531 43.2569 106.493 43.2391C106.455 43.2212 106.421 43.196 106.393 43.165C106.364 43.1339 106.342 43.0976 106.328 43.058C106.313 43.0184 106.307 42.9764 106.309 42.9344C106.311 42.8923 106.321 42.8511 106.339 42.813C106.357 42.7748 106.382 42.7406 106.413 42.7122C106.444 42.6838 106.48 42.6618 106.52 42.6475Z" fill="#000001"/>
<path id="Vector_25" d="M109.675 49.9083C109.494 52.4617 112.778 52.3412 112.153 53.0567C111.867 53.3806 111.694 53.245 111.618 53.23C107.724 52.1604 108.771 49.253 109.969 45.6601C110.165 45.0651 110.323 45.0576 110.571 45.1103C111.302 45.2609 109.826 47.7691 109.675 49.9083Z" fill="#000001"/>
<path id="Vector_26" d="M99.6493 145.604C99.8828 145.936 99.4987 146.682 99.0015 146.184C98.5044 145.687 98.7304 145.431 98.1429 144.106C96.757 141.017 96.4632 138.374 95.4916 134.788C95.4464 134.615 94.9191 133.5 95.2882 133.417C96.5009 133.154 96.3879 137.289 99.1296 144.158C99.259 144.655 99.433 145.139 99.6493 145.604Z" fill="#000001"/>
<path id="Vector_27" d="M95.1082 84.9706C95.2589 85.1739 95.0028 85.3622 94.8521 85.43C93.8127 85.8895 91.9447 87.5767 86.2278 86.9365C82.2433 86.4921 81.9947 85.543 80.2021 84.963C80.1319 84.9406 80.0707 84.8964 80.0273 84.8368C79.984 84.7772 79.9608 84.7053 79.9611 84.6316C79.9611 84.4885 80.0514 84.3605 80.3979 84.368C81.6859 84.4132 81.3168 85.1739 85.9341 85.9723C92.7883 87.1549 94.2722 83.8859 95.1082 84.9706Z" fill="#000001"/>
<path id="Vector_28" d="M89.7825 34.5802C90.1892 34.9568 90.1214 35.5519 89.8729 35.6573C89.7448 35.7176 89.6469 35.6573 89.4963 35.356C89.3456 35.0547 89.1649 35.1451 88.9238 35.4163C87.8091 36.7118 88.6602 37.0056 88.7205 37.4198C88.7422 37.5706 88.7305 37.7244 88.6863 37.8701C88.642 38.0159 88.5663 38.1502 88.4644 38.2634C88.2007 38.5949 87.7111 39.0995 87.4174 38.8208C87.1236 38.5421 87.4927 38.1806 87.7714 37.819C88.2459 37.2014 87.327 37.2993 87.7111 36.1544C88.0953 35.0095 89.195 34.0304 89.7825 34.5802Z" fill="#000001"/>
<path id="Vector_29" d="M85.3235 30.0156C85.4817 30.4826 84.9093 30.686 84.6381 30.3395C83.8322 29.3151 83.0338 28.2004 80.872 29.0967C79.938 29.4808 79.7347 28.1175 81.9115 28.0045C82.6183 27.8459 83.359 27.9703 83.9753 28.351C84.5943 28.7439 85.0678 29.3285 85.3235 30.0156Z" fill="#000001"/>
<path id="Vector_30" d="M82.5968 144.821C82.8981 145.77 81.7908 146.087 81.7155 145.205C81.5724 143.443 80.9623 141.778 80.9623 140.279C80.953 138.142 80.8223 136.007 80.5706 133.884C80.5662 133.835 80.5715 133.785 80.5863 133.738C80.6011 133.69 80.6251 133.646 80.657 133.608C80.6888 133.57 80.7278 133.539 80.7718 133.516C80.8158 133.493 80.8639 133.478 80.9133 133.474C80.9628 133.469 81.0126 133.475 81.06 133.49C81.1074 133.504 81.1514 133.528 81.1896 133.56C81.2277 133.592 81.2592 133.631 81.2822 133.675C81.3052 133.719 81.3194 133.767 81.3238 133.817C82.077 138.758 81.4895 139.481 82.1976 142.697C82.3557 143.443 82.4913 144.497 82.5968 144.821Z" fill="#000001"/>
<path id="Vector_31" d="M82.0169 40.0863C81.7608 41.3969 81.1356 40.8395 81.1808 40.3725C81.1808 40.124 81.2411 40.3725 81.1808 39.9131C80.3372 40.4252 78.5898 42.587 77.008 43.4984C74.4094 45.0048 73.5884 42.3836 72.2176 39.3933C71.5924 38.0225 71.6225 37.8869 72.4962 38.0903C74.7798 38.8151 77.166 39.1636 79.5614 39.1222C79.8928 39.1222 80.631 39.1222 80.4276 38.8209C79.8401 38.0677 81.7834 37.8041 82.0169 40.0863ZM79.8401 39.9959C80.2016 39.672 79.0869 40.2746 75.6823 39.6268C72.1121 38.9565 72.9105 38.7983 73.4227 40.1315C75.3208 44.6583 76.2096 43.3402 79.8401 39.9959Z" fill="#000001"/>
<path id="Vector_32" d="M81.211 31.5073C81.4822 31.6052 81.5876 31.9215 81.452 32.5618C81.3164 33.202 80.3599 33.1869 80.6009 31.9516C80.6078 31.8807 80.6296 31.8119 80.665 31.75C80.7003 31.6881 80.7484 31.6343 80.8061 31.5923C80.8637 31.5504 80.9296 31.5211 80.9994 31.5064C81.0692 31.4917 81.1413 31.492 81.211 31.5073Z" fill="#000001"/>
<path id="Vector_33" d="M79.991 58.1859C80.119 58.7734 77.076 59.2254 76.4734 59.2178C75.8709 59.2103 75.6449 59.1275 73.5961 58.2462C72.9258 57.96 70.8093 58.5851 70.1012 58.8036C69.3932 59.022 69.0166 58.5098 70.0184 58.2462C72.7601 57.493 73.1216 57.2143 74.7862 58.0428C75.8031 58.5475 75.9085 58.5625 76.1721 58.5776C78.5448 58.6755 79.8403 57.4628 79.991 58.1859Z" fill="#000001"/>
<path id="Vector_34" d="M78.4767 35.1075C79.0416 35.1075 78.906 36.2524 78.0323 36.4407C77.8546 36.4715 77.6721 36.4618 77.4987 36.4122C77.3252 36.3627 77.1652 36.2746 77.0305 36.1545C76.895 36.0566 76.8347 36.1545 76.6765 36.2976C74.4847 37.9019 71.9162 34.6104 74.4922 32.5315C74.918 32.203 75.2354 31.7543 75.4036 31.2435C75.6145 30.9573 75.8932 31.1155 75.9158 31.4017C75.9605 31.6953 75.9293 31.9956 75.8252 32.2738C75.721 32.552 75.5473 32.7989 75.3207 32.991C74.6579 33.6086 74.1307 34.0003 74.334 34.9192C74.4067 35.1358 74.539 35.3275 74.7158 35.4722C74.8926 35.6169 75.1067 35.7087 75.3334 35.737C75.5601 35.7653 75.7902 35.7291 75.9971 35.6323C76.2041 35.5356 76.3796 35.3824 76.5033 35.1904C77.0381 34.4371 77.0004 35.3862 77.6632 35.6423C77.957 35.7553 78.0624 35.5142 78.1604 35.3787C78.2583 35.2431 78.2357 35.1226 78.4767 35.1075Z" fill="#000001"/>
<path id="Vector_35" d="M71.683 25.5418C73.7243 24.7886 75.5018 25.8054 75.0198 26.536C74.5377 27.2666 73.6715 25.4439 71.796 26.3552C70.6285 26.9202 70.7114 27.5303 70.4854 27.5981C69.5514 27.8692 69.9958 26.1443 71.683 25.5418Z" fill="#000001"/>
<path id="Vector_36" d="M73.0616 29.9253C73.3855 29.8273 73.7094 30.1964 73.6642 30.6785C73.6642 31.025 73.4231 31.4317 73.0691 31.3639C72.9034 31.3639 72.6549 31.0852 72.6624 30.6107C72.6699 30.1362 72.813 29.9855 73.0616 29.9253Z" fill="#000001"/>
<path id="Vector_37" d="M73.2352 84.4207C73.2352 84.512 73.2 84.5998 73.1368 84.6658C73.0737 84.7318 72.9875 84.7708 72.8962 84.7747C72.0865 84.973 71.2633 85.1115 70.4332 85.189C70.4332 85.189 66.9759 85.5656 66.9759 85.5806C58.103 84.6316 58.8789 82.1309 59.5944 82.5301C60.202 82.9744 60.8655 83.3365 61.5678 83.6072C65.2737 84.722 64.6636 84.8801 70.742 84.3604C71.7965 84.3002 73.1975 83.6072 73.2352 84.4207Z" fill="#000001"/>
<path id="Vector_38" d="M65.3333 132.566C65.8379 132.498 65.7852 133.07 65.9057 133.906C65.6421 136.641 64.3993 139.232 64.5047 141.107C64.693 143.939 64.0528 143.6 64.2034 145.122C64.2034 145.318 64.2034 145.83 63.8871 145.875C63.2845 145.928 63.277 145.333 63.2017 144.542C63.5528 143.555 63.7064 142.508 63.6536 141.461C63.3222 138.855 65.4538 134.871 65.0696 133.349C64.9868 133.04 64.9792 132.626 65.3333 132.566Z" fill="#000001"/>
</g>
</g>
</svg>
