<svg width="151" height="151" viewBox="0 0 151 151" fill="none" xmlns="http://www.w3.org/2000/svg">
<g id="Be-Patient-1--Streamline-Bruxelles">
<g id="Be-Patient-1--Streamline-Bruxelles.svg">
<g id="phone">
<path id="vector" d="M103.569 20.2658C97.3843 19.4342 75.4492 18.0815 69.3556 19.4275C65.1105 20.3652 62.8411 22.4079 60.604 28.1226C56.3446 39.0013 33.9545 122.303 33.0928 125.603C32.152 129.203 31.2489 135.35 34.4147 137.862C37.13 140.017 37.1345 139.77 40.0947 140.641C48.9277 143.241 63.522 145.09 67.984 145.773C92.9388 149.597 90.6506 143.594 95.7687 126.025C97.6156 119.686 108.773 76.2463 110.801 69.0192C120.181 35.5817 129.355 23.7419 103.569 20.2658Z" fill="#FFF5D7"/>
<path id="vector_2" d="M100.612 67.5982C100.418 68.5752 92.0922 99.0239 83.1207 133.851C82.5226 135.589 81.5374 137.943 80.5462 139.591C78.9026 142.324 76.6249 141.847 65.0269 139.838C64.9501 139.825 42.5389 134.762 38.4775 133.341C37.6701 133.059 37.1323 131.98 37.2543 131.22C39.523 116.993 42.5765 111.051 43.5022 107.689C44.4905 104.111 45.5517 100.554 46.775 97.0354C50.4785 86.3872 55.2336 66.0255 60.1943 47.4663C65.0427 29.3243 66.0799 24.5037 69.7571 23.9471C71.3298 23.7083 74.6892 23.6985 74.8496 23.6827C77.1318 23.4485 76.1383 24.9376 77.4919 26.2211C78.3377 27.0225 78.3279 27.4835 81.4485 27.732C81.5306 27.7388 93.1339 28.6095 93.21 28.5922C95.2248 28.1327 97.3798 28.0295 98.5096 26.2241C99.1867 25.1447 99.0429 25.1771 104.59 25.8625C105.64 25.9906 106.65 26.3009 107.711 26.3807C114.811 26.917 101.825 61.522 100.612 67.5998V67.5982Z" fill="white"/>
<path id="vector_3" d="M90.4979 139.98C89.4366 143.755 84.4194 145.556 82.1116 145.158C84.7245 143.291 86.3831 140.242 87.1935 137.507C87.8006 135.458 88.0311 136.724 90.0331 128.935C112.874 40.0962 112.055 45.0908 113.313 40.1761C116.47 27.8444 114.471 27.5446 114.103 24.7073C115.386 24.8986 117.458 27.1439 118.418 28.6421C119.253 29.9451 119.544 31.2663 119.137 34.008C118.153 40.6431 100.538 104.251 90.4979 139.98Z" fill="#F0CDA4"/>
<path id="vector_4" d="M73.3377 18.8467C64.3751 19.3807 60.945 22.5555 57.2693 34.7056C53.1605 48.2861 33.7147 122.009 32.853 125.309C31.9123 128.91 31.2494 135.351 34.4152 137.862C37.1313 140.016 37.1351 139.77 40.0952 140.641C48.9274 143.241 63.5225 145.089 67.9845 145.773C92.9386 149.596 90.6503 143.594 95.7692 126.025C97.6161 119.684 120.619 40.9603 120.83 33.093C120.964 28.1112 119.255 25.1616 114.405 22.8365C105.498 18.5635 76.1306 18.6802 73.3377 18.8467ZM71.0757 144.926C32.3875 139.657 31.9258 138.613 34.5071 125.28C37.4326 110.168 57.9306 38.6088 58.604 35.9635C62.7271 19.7731 68.8959 20.0473 81.1229 20.2025C85.1473 20.2537 108.554 21.2246 111.18 23.2213C115.766 26.708 112.631 37.14 111.111 42.3749C107.693 54.1514 87.889 132.386 88.0645 132.28C83.5769 145.917 79.2504 146.04 71.0757 144.927V144.926ZM90.4974 139.98C89.4361 143.754 84.419 145.555 82.1111 145.157C84.724 143.29 86.3826 140.241 87.1931 137.506C87.8002 135.457 88.0306 136.724 90.0327 128.935C112.874 40.0957 112.054 45.0902 113.312 40.1755C116.47 27.8438 114.47 27.5441 114.102 24.7067C115.386 24.898 117.457 27.1433 118.418 28.6415C119.447 30.2481 119.649 31.8796 118.739 36.1654C117.122 43.7729 100.537 104.25 90.4974 139.98Z" fill="black"/>
<path id="vector_5" d="M110.85 27.8068C110.287 24.4497 106.859 24.6915 99.5111 23.9217C96.9306 23.6506 99.2829 27.7322 90.1426 26.9331C90.1253 26.9316 81.2742 26.3004 80.8464 26.2476C77.3477 25.8108 78.3224 23.7583 76.721 22.4047C76.2134 21.9754 75.6763 22.3626 74.9766 22.3068C63.3733 21.3879 64.6101 27.6298 59.2765 45.701C52.3146 69.2887 54.6759 65.2093 47.5874 89.8492C47.1528 91.3594 38.1473 119.412 37.9688 120.141C37.7941 120.852 35.682 130.979 36.0707 132.71C36.5746 134.952 39.5378 135.431 62.2133 140.681C65.1546 141.362 72.7034 142.639 77.3899 142.919C82.9132 143.25 84.7217 132.465 91.8757 105.209C108.258 42.7943 112.286 36.3792 110.85 27.8068ZM83.1204 133.851C82.5216 135.589 81.5364 137.944 80.5459 139.591C78.9024 142.324 76.6239 141.847 65.0266 139.839C64.9513 139.826 42.5401 134.762 38.4772 133.341C37.6698 133.059 37.1327 131.981 37.254 131.22C39.5235 116.994 42.5747 111.051 43.5019 107.689C44.4887 104.113 45.5514 100.555 46.7747 97.0357C50.4775 86.3874 55.234 66.0273 60.194 47.4665C65.0424 29.3238 66.0796 24.504 69.7568 23.9473C71.3363 23.7078 74.6874 23.6988 74.8493 23.6829C77.1315 23.4487 76.1365 24.9386 77.4916 26.2213C78.3374 27.022 78.3277 27.4837 81.4482 27.7322C81.5296 27.739 93.1336 28.6097 93.2097 28.5924C95.2238 28.1329 97.3787 28.029 98.5093 26.2243C99.185 25.1442 99.0426 25.1788 104.59 25.8628C105.64 25.9923 106.648 26.2996 107.711 26.381C114.81 26.9158 101.824 61.5215 100.612 67.6C100.435 68.4797 92.0558 99.1658 83.1204 133.853V133.851Z" fill="black"/>
<path id="vector_6" d="M91.5259 23.8461C91.5538 25.6274 88.9077 25.8323 88.9055 24.0871C88.9032 21.7762 91.5041 22.4715 91.5259 23.8461Z" fill="black"/>
<path id="vector_7" d="M84.751 23.844C84.6884 22.1546 86.683 22.5297 86.7101 23.6512C86.7492 25.3135 84.7977 25.1162 84.751 23.844Z" fill="black"/>
</g>
<g id="loading bar">
<path id="vector_8" d="M78.7285 129.639C74.5903 129.704 48.807 124.584 47.644 124.224C46.2076 123.78 45.7678 122.992 46.0804 121.523C46.7055 118.583 47.4678 115.993 50.3541 116.229C60.5105 117.062 76.4139 119.687 80.2598 121.119C82.3168 121.885 81.6924 123.273 81.0002 127.424C80.7675 128.819 79.9615 129.619 78.7285 129.639ZM78.2803 128.686C79.957 128.562 79.9291 126.512 80.4127 123.35C80.6198 121.994 79.8388 121.711 73.4876 120.502C60.7003 118.069 54.2731 117.56 50.4234 117.183C48.6209 117.007 47.9355 118.149 47.3073 121.747C47.1213 122.812 47.3473 123.148 48.4063 123.443C48.5027 123.47 74.8306 128.503 78.2803 128.686Z" fill="black"/>
<path id="vector_9" d="M53.3759 123.269C57.7619 119.088 57.548 119.069 58.5603 119.308C59.2322 119.467 59.956 119.411 60.5729 119.809C61.1943 120.211 59.2834 121.124 56.9695 123.804C56.8452 123.947 56.9522 123.916 53.3759 123.269Z" fill="black"/>
<path id="vector_10" d="M55.6027 118.896C51.2167 122.912 51.4765 123.061 50.5674 122.604C50.0206 122.33 49.5717 121.988 49.6447 121.298C50.0454 117.53 51.4743 118.027 55.6027 118.896Z" fill="black"/>
<path id="vector_11" d="M59.1053 124.311C63.5621 120.292 62.9068 120.205 63.6223 120.352C64.5488 120.542 66.2074 120.493 65.3095 121.312C64.545 122.01 63.962 122.865 63.2902 123.642C62.1129 125.004 62.3961 124.882 59.1053 124.311Z" fill="black"/>
</g>
<g id="fly">
<path id="vector_12" d="M58.4837 9.2797C58.4249 11.2117 56.5667 10.4999 56.6887 11.7985C56.8311 13.2989 55.4203 13.7229 55.8338 14.5447C56.096 15.0621 56.3347 16.3193 55.6734 16.3095C55.2704 16.305 55.3435 15.9652 55.2847 15.5932C55.1356 14.6366 55.235 14.5726 53.9704 15.1081C53.8747 15.1488 54.0367 17.3075 53.1034 17.1026C52.2191 16.9135 54.2227 15.2904 52.3592 15.2633C51.9774 15.1427 51.7137 15.3084 51.5827 15.7378C51.5006 16.0044 51.2761 16.1739 51.072 16.3464C50.5365 16.796 50.0544 16.1505 50.5146 15.7559C51.1631 15.2113 51.0321 14.9936 50.654 14.7684C49.4435 14.0476 48.9366 12.8628 49.2251 11.5537C49.3614 10.9473 47.1643 11.0452 45.8831 9.98321C44.6629 8.97691 44.7073 7.55182 46.0134 6.6088C46.2778 6.41899 46.3765 6.26157 46.3636 5.92337C46.2401 2.51883 51.2505 3.16133 52.949 7.72808C53.2789 8.61537 53.9478 8.69445 54.5955 8.95281C54.8916 9.07182 54.823 8.74944 54.8772 8.61838C55.632 6.74513 58.5529 6.97411 58.4852 9.27744L58.4837 9.2797Z" fill="white"/>
<path id="vector_13" d="M33.4219 27.1502C29.5745 29.9206 28.2842 34.6417 30.0754 38.9976C31.6699 42.8736 36.6939 50.0314 44.2373 52.4598C47.1726 53.4051 46.8096 54.507 45.9426 54.1078C43.7794 53.1106 34.911 51.4189 29.6957 40.2102C27.1009 34.6342 28.5313 29.7428 33.0453 26.2599C33.5869 25.8419 33.5515 25.2039 33.8053 24.0605C35.5497 16.212 42.8235 13.093 44.0754 12.6553C44.5755 12.4806 44.9333 12.4881 45.0621 12.7668C45.2308 13.1329 44.922 13.285 44.6463 13.3867C39.3301 15.3375 35.1475 19.6753 34.383 25.286C37.3785 23.9257 40.0713 23.4617 42.9418 25.4118C45.4553 27.1194 46.8969 28.7787 45.4824 31.4677C41.7299 38.6006 33.339 34.1506 33.4219 27.1502ZM34.2105 27.3205C34.1811 30.3281 35.494 31.9445 37.893 33.6098C41.5363 36.1391 46.7169 30.7679 44.6975 28.1219C40.6498 22.8192 33.6268 25.5301 34.2113 27.3212L34.2105 27.3205Z" fill="black"/>
<path id="vector_14" d="M52.3584 15.2641C51.9758 15.1428 51.7144 15.3093 51.5818 15.7386C51.4997 16.0052 51.2745 16.1755 51.0712 16.3472C50.5379 16.7969 50.0506 16.1506 50.5138 15.7567C51.1593 15.2068 51.0335 14.9959 50.6531 14.7692C49.4427 14.0484 48.935 12.8636 49.2243 11.5545C49.3583 10.9474 47.1718 11.0483 45.8823 9.98403C44.6628 8.97774 44.708 7.55114 46.0126 6.60962C46.2769 6.41831 46.3749 6.26239 46.3628 5.9242C46.2393 2.50987 51.2542 3.16969 52.9482 7.7289C53.2781 8.61544 53.9469 8.69528 54.5947 8.95363C54.8907 9.07189 54.8237 8.74951 54.8764 8.61921C55.6281 6.755 58.5536 6.96966 58.4843 9.27827C58.4263 11.2095 56.5674 10.4985 56.6894 11.797C56.8318 13.3072 55.4187 13.72 55.8345 14.5433C56.0974 15.063 56.3324 16.3156 55.6741 16.308C55.2734 16.3035 55.3434 15.9638 55.2854 15.5917C55.1378 14.6336 55.2282 14.5726 53.971 15.1067C53.8754 15.1473 54.0381 17.303 53.1041 17.1012C52.1935 16.9046 54.2414 15.2897 52.3599 15.2618L52.3584 15.2641ZM52.7041 9.29107C52.9595 9.94261 53.3489 10.5791 52.6476 11.4694C52.1829 12.0584 51.4387 11.9032 50.6268 11.724C48.8823 11.3383 50.1748 14.2141 51.9554 14.4642C54.957 14.8852 56.2827 12.3589 55.7803 11.1839C55.3314 10.1332 53.9447 9.26245 52.7041 9.29107ZM47.87 6.92598C45.581 6.8386 45.0899 9.14043 47.0603 9.81983C49.2883 10.5874 51.6956 11.4912 52.1294 10.799C52.8698 9.62023 49.1625 6.97569 47.87 6.92598ZM48.468 4.56238C47.1364 4.48254 46.6995 6.14414 47.4286 6.14188C50.0912 6.13058 51.7686 8.88133 52.314 8.50547C52.6627 8.26444 50.8927 4.8825 48.468 4.56238ZM56.5252 10.2868C57.9623 10.2605 58.2079 8.12359 56.6472 8.17556C56.0725 8.19439 55.3878 8.85647 55.4217 9.35962C55.4413 9.6481 56.2096 10.2936 56.5252 10.2876V10.2868Z" fill="black"/>
<path id="vector_15" d="M51.034 9.56788C51.336 9.98215 50.9881 10.2887 50.6423 10.1147C48.0332 8.79659 46.8996 8.97133 47.0081 8.34918C47.1391 7.59973 50.8615 9.33137 51.034 9.56788Z" fill="black"/>
</g>
<g id="clock">
<path id="vector_16" d="M52.6095 34.6072C51.9406 34.577 51.9226 34.4769 51.4526 40.6095C49.8422 61.619 58.8582 64.3125 60.107 68.7369C62.1912 76.1222 47.4899 67.9181 39.3077 100.807C39.1947 101.26 39.3069 101.337 39.7498 101.415C83.398 109.112 82.0007 110.008 82.1973 108.745C83.4823 100.488 83.7964 89.6108 80.2827 82.0296C78.1609 77.4516 75.8206 76.6856 72.7558 73.7413C70.8245 71.8861 72.3724 70.1431 74.7804 68.9719C77.9462 67.4323 81.3507 66.3341 86.9667 59.861C91.4739 54.6653 94.5614 45.3962 95.7356 38.6195C95.8855 37.7533 95.4931 38.3469 88.675 37.8068C79.7238 37.0988 67.0539 35.2549 52.6095 34.6072Z" fill="#D5EBFF"/>
<path id="vector_17" d="M78.6972 95.5849C78.5676 92.6624 78.4381 89.169 77.599 86.4069C74.1598 75.0778 62.3773 73.649 73.5572 65.9564C75.7551 64.4439 79.6523 63.6606 84.5715 56.4621C85.8204 54.6348 87.5181 52.348 86.0772 51.8449C81.3854 50.2066 81.8125 52.3337 74.3195 49.2161C71.1213 47.8867 69.4793 48.5375 67.1994 49.1981C61.3235 50.9003 60.1899 47.8573 56.8863 48.6301C56.2762 48.7725 55.9117 49.2026 55.9207 49.7886C56.0548 58.8332 61.8063 62.06 63.4777 66.7796C64.7062 70.2489 63.3406 73.3944 60.852 75.291C49.4295 83.9951 49.5839 81.0576 44.215 95.081C42.5262 99.4918 48.5068 99.2214 62.4918 102.007C80.0741 105.509 79.1981 106.9 78.6972 95.5849Z" fill="#FFF591"/>
<path id="vector_18" d="M49.9146 29.9654C48.6748 34.0817 50.1865 33.5439 54.1899 33.8263C99.2096 37.0079 98.6025 38.5565 99.2653 36.4144C99.4627 35.7764 99.5463 35.1249 99.596 34.4681C99.703 33.0678 99.8935 32.9353 87.3351 32.0299C53.3515 29.5797 50.4027 28.3444 49.9146 29.9661V29.9654Z" fill="#99BBEE"/>
<path id="vector_19" d="M36.244 104.765C35.9503 106.028 81.0273 114.236 82.3341 114.413C83.5777 114.581 83.6891 114.335 84.2797 111.948C84.7557 110.026 84.3188 110.906 76.1035 109.127C75.0445 108.898 36.9649 101.087 36.7412 102.194C36.574 103.022 36.2561 103.824 36.2433 104.764L36.244 104.765Z" fill="#99BBEE"/>
<path id="vector_20" d="M98.7403 32.1818C89.9691 31.1386 56.6084 28.5543 56.3862 28.5415C54.4934 28.436 49.6969 27.6858 48.9625 29.3986C48.1588 31.2696 48.0134 32.5945 48.5181 33.4472C49.0476 34.342 50.1624 34.4941 51.0286 34.5792C50.1066 37.7917 49.0988 50.4307 52.132 58.4637C54.6696 65.1839 57.8776 66.1857 58.752 68.8363C59.6069 71.4243 58.0704 70.8007 52.892 74.0546C45.344 78.7976 39.2558 92.6643 38.2141 100.517C38.1493 101.001 37.8925 100.968 37.4021 100.883C36.8839 100.794 36.1736 100.673 35.846 101.647C33.8982 107.44 35.5492 106.14 49.2962 109.109C51.4647 109.577 81.0284 115.377 83.1156 115.377C84.4224 115.377 84.6958 114.311 85.2472 112.157L85.3489 111.761C85.6532 110.582 85.2592 109.917 84.0722 109.606C83.3363 109.413 83.1321 109.322 83.3001 108.522C85.3587 98.6953 84.7787 82.0221 76.7938 75.8864C75.6648 75.0187 74.5749 74.0847 73.6567 73.2863C72.8553 72.5888 72.6918 71.5817 73.6228 70.9385C78.3492 67.6718 87.0752 66.4132 93.4972 50.3546C96.6787 42.4006 96.2969 38.853 96.7157 38.4026C96.9951 38.102 99.5395 38.9133 100.084 37.3481C100.891 35.0282 101.193 32.4725 98.7426 32.1825H98.7403V32.1818ZM50.023 29.9997C50.4742 28.5015 53.8546 29.7308 87.3276 32.1441C99.7398 33.0389 99.5809 33.1933 99.4882 34.4037C99.4355 35.0937 99.3594 35.7302 99.1523 36.4005C98.5362 38.3935 98.8036 36.8675 54.1981 33.7153C50.139 33.4298 48.8314 33.9548 50.023 29.9997ZM71.7932 71.7505C71.6825 72.4562 71.9793 73.1537 72.6768 73.8233C75.7386 76.7646 78.0713 77.5291 80.1795 82.0771C84.2695 90.8995 82.8745 103.654 82.0852 108.727C81.9082 109.834 83.5366 109.023 39.7695 101.304C39.3763 101.235 39.3243 101.204 39.417 100.834C47.5984 67.946 62.3471 76.2585 60.2155 68.7067C58.9464 64.21 49.9552 61.6205 51.5649 40.6178C51.9633 35.4131 52.0386 34.708 52.4265 34.708L95.2348 38.5705C94.6082 42.1415 92.2423 53.607 86.8809 59.7871C81.9157 65.5116 78.6754 67.0225 75.8177 68.3565C74.3444 69.0434 72.0599 70.0602 71.794 71.7497L71.7932 71.7505ZM76.079 109.239C84.3644 111.034 84.6107 110.142 84.1693 111.922C83.5698 114.346 83.4847 114.457 82.3488 114.302C79.7525 113.949 37.2432 106.081 36.3559 104.768C36.368 103.844 36.6775 103.068 36.847 102.241C38.1523 101.485 73.7215 108.728 76.079 109.239Z" fill="black"/>
<path id="vector_21" d="M86.6396 51.0542C85.5339 50.5405 84.4817 50.2385 83.4241 50.1308C78.8386 49.6653 82.274 50.9021 74.3539 48.1348C70.4274 46.7624 69.4625 47.6828 65.6731 48.5415C61.7827 49.4228 60.8744 47.6151 58.0129 47.5608C56.1223 47.5284 54.6257 48.6635 54.8667 50.536C56.2579 61.3251 60.448 61.6309 62.3401 66.5592C64.9063 73.2447 60.0692 74.236 51.1119 81.1219C47.2886 84.0602 46.6792 86.6015 43.7989 93.4829C42.4462 96.7142 42.7716 98.9347 46.1746 99.6969C49.1528 100.364 52.1265 101.129 55.122 101.647C77.3856 105.498 79.817 107.979 79.8004 100.885C79.7733 89.7402 79.4562 83.6113 72.278 75.942C70.6217 74.1742 69.0565 72.5043 70.2843 70.387C72.1251 67.2115 76.6128 65.4693 78.0289 64.5059C82.7658 61.2874 86.089 56.2281 87.3062 53.7455C87.8854 52.5644 87.8387 51.6086 86.6404 51.0527L86.6396 51.0542ZM71.8126 77.1027C77.5694 83.8184 78.1931 86.8689 78.5719 95.3072C79.0894 106.835 80.1123 105.4 62.5141 101.896C48.4162 99.0868 42.6947 99.3693 44.3209 95.1212C49.6778 81.1279 49.4119 84.1498 60.9203 75.3809C63.7004 73.2628 64.721 69.9517 63.5837 66.7415C61.8904 61.9593 56.1675 58.8078 56.0334 49.7866C56.0191 48.8307 57.0081 48.6138 57.9639 48.6138C60.5105 48.6138 61.9906 50.8328 67.23 49.3068C69.7344 48.5762 71.2567 48.0655 74.2748 49.3218C81.7452 52.4289 81.41 50.3349 86.0393 51.9513C86.2728 52.0327 86.4167 52.1652 86.4784 52.355C86.73 53.1241 85.665 54.6697 84.7265 56.0353C79.4426 63.7241 75.8649 64.2318 73.4922 65.8647C70.4801 67.9361 68.9775 69.6715 68.762 71.3233C68.5105 73.2515 69.9672 74.9515 71.8118 77.1035L71.8126 77.1027Z" fill="black"/>
<path id="vector_22" d="M71.4835 56.3819C67.3439 53.5694 64.9675 58.0563 62.1015 55.353C61.633 54.9116 60.995 55.4878 61.3513 55.9518C62.2122 57.0756 64.3046 57.7414 66.6404 56.8421C69.8423 55.6068 70.6829 57.8213 72.532 57.9561C72.8777 57.9817 73.1918 57.8574 73.2596 57.5215C73.399 56.8338 72.4311 57.0244 71.4835 56.3819Z" fill="black"/>
<path id="vector_23" d="M62.4994 91.2436C60.8627 91.2662 59.5807 89.5753 57.7933 89.2845C54.5311 88.7535 54.269 89.2062 52.5743 89.4367C52.0041 89.4299 51.4294 89.3056 51.4015 89.918C51.3669 90.6606 52.5359 90.4317 53.3094 90.3368C56.9098 89.8946 58.1307 90.4023 59.8308 91.4523C60.7135 91.9983 61.3161 92.3403 62.4339 92.2996C63.3445 92.2642 63.3633 91.2459 62.4994 91.2436Z" fill="black"/>
<path id="vector_24" d="M65.7061 96.2885C65.1329 96.2975 64.6003 96.4565 64.0603 96.5627C63.4381 96.6854 63.4735 97.2232 63.7326 97.4176C64.0053 97.6224 64.5423 97.4914 65.0711 97.4176C67.0167 97.1509 68.7061 97.8936 70.2427 98.7364C70.559 98.9112 70.8159 99.2117 71.1609 98.817C72.2033 97.6239 67.3247 96.2614 65.7061 96.2885Z" fill="black"/>
<path id="vector_25" d="M69.9375 81.8006C69.8599 81.5806 69.6046 81.4797 69.402 81.3991C69.3251 81.5791 69.3635 81.4895 69.402 81.3991C64.6921 79.5341 63.09 81.027 63.5939 81.7132C63.8086 82.0054 64.0368 81.9166 64.3268 81.8036C66.8968 80.7988 69.3455 83.1556 69.8674 82.2367C69.9593 82.0755 69.9827 81.9286 69.9375 81.8006Z" fill="black"/>
</g>
</g>
</g>
</svg>
