<svg width="151" height="151" viewBox="0 0 151 151" fill="none" xmlns="http://www.w3.org/2000/svg">
<g id="Downloading--Streamline-Bruxelles">
<g id="Downloading--Streamline-Bruxelles.svg">
<g id="Colour">
<path id="Vector" d="M140.713 95.5853C135.636 100.285 147.401 114.664 115.043 124.208C114.519 124.363 114.041 124.641 113.647 125.02C113.254 125.399 112.958 125.867 112.783 126.384C108.897 138.134 95.6024 138.029 88.1381 136.123C87.4279 135.942 86.6804 135.968 85.9847 136.199C85.2889 136.43 84.6743 136.856 84.2138 137.426C79.4987 143.256 72.1623 148.235 57.4822 143.919C56.9026 143.748 56.2938 143.701 55.6946 143.778C55.0954 143.856 54.5191 144.058 54.0023 144.371C44.5268 150.073 30.6526 145.953 29.8467 130.941C29.5002 124.674 14.0291 133.871 12.2214 111.448C11.5962 103.584 15.8519 100.466 13.3588 98.809C7.8678 95.1484 0.501349 86.4638 5.337 74.0056C7.69456 67.9347 10.6095 69.0344 7.09952 61.8788C2.58023 52.7197 6.26345 43.2819 14.014 39.2447C15.2881 38.5806 16.3254 37.5385 16.9835 36.2614C17.6416 34.9842 17.8883 33.5347 17.6897 32.1117C17.0269 27.3589 17.7726 23.9092 24.5591 18.5539C35.6163 9.77135 40.5499 17.1227 43.6456 13.1307C51.8406 2.58567 67.1535 1.32026 74.6555 7.45898C75.6153 8.24003 76.7705 8.74348 77.996 8.91476C79.2215 9.08604 80.4705 8.91861 81.6077 8.43062C89.3055 5.10141 97.6444 4.75493 105.041 8.02389C113.598 11.79 116.64 20.1883 117.739 28.3607C117.852 29.2372 118.269 30.0463 118.917 30.6466C119.566 31.2469 120.405 31.6002 121.287 31.6447C130.552 32.1946 132.902 33.7538 136.623 41.4366C142.889 54.4069 135.636 58.1128 140.939 65.5395C145.661 72.0925 151.092 85.9893 140.713 95.5853Z" fill="#F2FBFF"/>
<path id="Vector_2" d="M98.9167 116.811C99.0297 117.489 96.1976 120.705 94.6008 122.648C92.2583 125.488 92.2583 125.902 91.6482 125.518C90.8423 125.006 84.055 119.831 85.3054 119.492C87.904 118.739 88.3182 118.98 88.3182 117.865V110.823C88.273 107.855 88.7408 108.51 94.6912 106.936C95.9189 106.612 96.2805 105.294 95.4444 116.042C95.2486 118.099 98.7811 116.005 98.9167 116.811Z" fill="#E5FFF2"/>
<path id="Vector_3" d="M44.8878 104.428C45.5506 104.646 44.8878 105.181 42.4172 107.237C38.6512 110.348 39.6379 109.964 37.2954 107.027C33.6046 102.387 32.7761 101.588 34.6666 101.965C35.6006 102.161 36.5271 102.568 36.6099 101.709C36.6099 96.6096 35.9019 93.4235 36.851 93.7323C42.5302 95.4797 42.4549 95.0429 42.5152 96.0597C43.065 104.94 41.1217 103.2 44.8878 104.428Z" fill="#E5FFF2"/>
<path id="Vector_4" d="M59.6881 99.4794C60.2455 105.106 60.9083 96.1351 58.6938 114.37C57.3004 125.797 59.4471 98.937 59.4923 98.6885C59.5992 98.9401 59.6655 99.2074 59.6881 99.4794Z" fill="white"/>
<path id="Vector_5" d="M125.957 66.0742C120.948 69.1474 120.044 67.6259 33.906 67.9271C18.7588 67.9799 16.0246 68.0552 12.4695 62.8279C9.73528 58.8132 10.2098 51.5748 12.8084 48.8105C17.6742 43.5832 21.6662 45.2252 23.1576 44.5548C25.0858 44.0427 17.644 38.5291 22.5249 28.1875C25.9972 20.8135 36.0301 17.552 43.0877 21.6345C44.2627 22.3199 43.7204 22.3877 44.436 22.222C45.272 22.0036 44.2251 13.6956 55.5233 10.7656C58.1286 10.1812 60.8435 10.314 63.3793 11.1497C69.0737 13.0704 70.2487 17.3562 71.0697 15.5108C72.4405 12.4377 83.9195 6.03537 92.6493 17.3185C94.6077 19.8494 94.3064 22.9978 95.1349 23.5552C95.3609 23.7058 96.7551 23.0129 98.6457 22.704C102.261 22.1165 108.257 23.5928 111.066 26.8919C117.777 34.7706 113.099 40.5327 115.457 40.382C117.521 40.254 120.428 40.1711 122.793 41.2256C132.713 45.6395 134.912 60.5758 125.957 66.0742Z" fill="white"/>
<path id="Vector_6" d="M111.841 91.1488C117.927 90.2676 117.272 87.3827 114.455 100.029C111.555 113.022 110.259 116.849 109.137 121.308C108.128 125.33 108.173 126.241 107.058 126.58C103.126 127.898 73.9168 136.123 69.4803 136.718C67.7404 136.944 68.3204 137.607 66.9345 131.634C65.8272 126.851 59.9823 98.6207 59.4023 93.7625C59.1613 91.774 57.7979 89.6725 61.0443 88.8816C61.1196 88.8816 73.2389 84.98 76.7263 84.2494C79.3625 83.6995 78.7223 89.326 80.7108 89.0398C81.9687 88.859 96.6187 84.8896 96.679 84.8067C96.7392 84.7239 100.008 83.7824 100.957 84.0535C101.906 84.3247 101.793 86.1324 101.959 87.3827C102.275 89.7177 102.644 89.2055 100.633 89.7177C99.963 89.8909 100.136 89.7177 99.8801 87.0287C99.7069 85.3491 99.6617 85.816 97.033 86.2755C96.9577 86.2755 69.8117 93.5215 63.0328 95.4873C62.0762 95.766 62.5357 97.1595 63.1006 99.2007C63.3567 100.12 64.3057 107.351 68.1321 127.379C69.6385 135.363 69.5406 133.615 68.7572 133.706C67.4768 133.856 70.9265 135.905 71.1148 132.854C71.3408 129.043 72.094 112.118 72.7493 108.352C73.269 105.339 72.1919 106.04 76.8694 104.918C98.5771 99.7129 95.5943 100.338 97.5904 96.3234C98.5243 94.4328 98.0799 94.5157 101.108 93.6344C103.3 93.0394 109.25 91.5104 111.841 91.1488ZM98.5545 115.93C98.0046 116.043 97.2815 116.118 96.4982 116.261C95.7148 116.404 96.2948 115.711 96.1216 115.327C96.1216 109.301 97.2665 105.686 95.5943 106.063C85.8025 108.247 87.9115 107.652 87.6328 113.022C87.3541 118.393 87.7835 118.144 87.196 118.25C81.2456 119.312 85.6895 121.353 90.4047 125.465C91.1127 126.091 92.0618 126.783 92.6191 126.053C94.4118 123.688 102.885 115.071 98.5545 115.915V115.93Z" fill="#FFF2B2"/>
<path id="Vector_7" d="M104.226 89.7478C104.332 89.8533 104.226 89.6122 104.143 91.8568C104.15 91.9145 104.134 91.9725 104.099 92.0188C104.064 92.0651 104.012 92.0961 103.955 92.1054C98.5394 93.529 99.2323 93.529 98.4791 93.7399C97.1534 94.1165 96.2202 98.9145 94.8644 99.3438C71.3415 106.816 72.5541 102.959 71.8762 108.239C70.4828 119.176 70.9649 136.402 69.9254 133.095C68.886 129.789 68.4792 100.782 68.5169 99.0802C68.5169 98.6358 68.434 98.7412 70.5656 98.1236C71.108 98.1236 104.083 89.5972 104.226 89.7478Z" fill="white"/>
<path id="Vector_8" d="M99.0669 86.6969C99.0669 90.6513 100.499 89.8228 96.7403 90.6287C95.7084 90.8547 69.6245 97.7692 68.6679 97.8068C67.7113 97.8445 67.8017 99.2304 67.8017 99.5392C67.6586 131.762 70.8146 133.803 63.2372 96.5264C63.0715 95.728 99.0594 86.6291 99.0669 86.6969Z" fill="white"/>
<path id="Vector_9" d="M76.1091 51.3038C77.6155 51.1833 73.0962 56.4709 70.9948 59.2427C69.1117 61.766 69.3979 62.1049 67.8313 61.058C67.5375 60.8621 61.3461 56.2223 61.105 55.5067C60.7058 54.5652 64.4192 54.5502 64.4493 53.7593C64.7581 45.1651 63.5605 42.9657 65.1046 42.559C75.3182 39.8549 72.0191 37.3693 72.4861 51.2511C72.5238 52.4261 74.4219 51.4469 76.1091 51.3038Z" fill="#E5FFF2"/>
<path id="Vector_10" d="M66.8288 80.0766C67.7853 80.7921 66.776 83.3832 66.0755 86.0044C65.9249 86.5844 66.2187 86.3057 63.9741 87.0363C62.4676 87.5184 62.7991 87.7895 63.1681 85.0177C63.2736 84.2645 34.0488 76.4009 33.9735 76.3934C33.3408 76.2954 33.401 76.77 33.2203 77.9751C32.9717 80.0163 33.4538 79.7226 31.5105 79.248C31.1866 79.1652 31.3222 79.1501 31.8042 75.7607C32.2335 73.8701 34.335 75.2108 36.9411 75.8661C42.289 77.2068 47.1096 78.9995 49.0529 79.233C50.9962 79.4665 50.371 74.7137 52.5252 75.3615C54.9505 76.0393 65.2244 78.9091 66.8288 80.0766Z" fill="#FFF2B2"/>
<path id="Vector_11" d="M62.3037 85.1228C62.477 85.1755 62.4619 85.2659 62.3037 86.1698C62.0175 88.1884 62.3037 87.2996 59.9688 88.4746C59.4039 88.7608 60.2249 86.7422 58.8992 86.697C57.8372 86.5916 33.8849 80.0536 33.6966 79.6017C34.6231 76.1369 30.5707 76.1821 46.6745 80.5734C51.0959 81.7333 58.2891 83.7519 62.3037 85.1228Z" fill="white"/>
<path id="Vector_12" d="M60.7061 104.707C60.8643 107.765 62.1448 106.326 60.2919 113.745C58.7101 120.102 59.5838 119.439 56.5258 118.694C46.9449 116.351 28.2425 110.634 26.9997 110.16C26.013 109.776 26.0356 109.535 25.3351 106.492C18.9328 78.4645 18.4356 79.3382 20.8158 80.001C24.6949 81.0857 33.9368 82.6373 34.7051 84.1889C37.1003 89.0773 34.0649 87.3524 47.8261 91.5554C57.7083 94.5682 56.3224 93.4158 56.7517 97.4681C57.505 104.684 57.1886 117.481 57.8062 117.76C57.9051 117.82 58.0166 117.857 58.1321 117.867C58.2475 117.877 58.3636 117.86 58.4713 117.817C58.5792 117.775 58.6759 117.708 58.7538 117.623C58.8317 117.537 58.8886 117.434 58.9202 117.323C59.1989 115.56 60.6301 103.479 60.7054 104.707H60.7061ZM40.3693 109.565C44.8208 106.077 46.9825 104.737 45.1597 103.893C44.3161 103.501 43.1863 103.501 43.1863 103.14C43.1863 100.571 42.9905 98.3042 43.1863 96.3609C42.9905 94.7791 43.5403 95.0503 37.6276 93.4158C36.3848 93.0693 35.7069 92.7153 35.9102 94.6963C35.9102 94.7716 35.9856 100.654 36.0684 101.362C36.1362 101.95 35.0892 101.317 33.7259 101.31C33.6222 101.322 33.5223 101.357 33.4325 101.41C33.3427 101.463 33.2649 101.535 33.204 101.62C33.1431 101.704 33.1005 101.801 33.0789 101.903C33.0572 102.005 33.057 102.111 33.0782 102.213C33.4924 103.411 38.2979 109.196 38.8704 109.836C39.247 110.25 39.9023 109.896 40.3693 109.55V109.565Z" fill="#FFF2B2"/>
<path id="Vector_13" d="M59.1544 88.6856C59.1544 89.1601 57.3241 89.484 58.5594 93.2877C59.1996 95.2461 58.1828 108.601 57.9719 108.623C57.761 108.646 57.6781 100.692 57.5802 99.1101C57.0454 90.8247 59.1544 95.2009 37.2434 87.5859C36.5353 87.3373 36.1437 85.7028 35.2172 83.8198C34.464 82.3134 33.1308 82.6674 29.8317 81.4396C29.6359 81.3719 29.7263 81.3041 29.7187 80.7542C29.7187 79.6018 29.6133 79.3984 29.8392 79.4662C30.2309 79.5943 58.8531 87.3449 58.8682 87.3524C59.2523 87.5106 59.1469 87.4202 59.1544 88.6856Z" fill="white"/>
</g>
<g id="Ink">
<path id="Vector_14" d="M119.178 68.5523C119.103 68.5523 24.7324 68.6051 24.6571 68.5975C18.7594 68.2737 18.2848 68.6954 14.579 66.3379C7.88293 62.0596 6.95647 46.4229 19.3619 44.1331C23.3691 43.3799 22.8418 44.7131 21.6216 41.9864C16.688 30.7861 24.6947 18.0341 37.5672 18.9832C42.0865 19.3146 43.736 21.3483 43.8716 20.8888C47.3891 8.95788 59.4255 7.33093 66.4681 11.6619C72.1624 15.1644 68.8708 16.0532 72.411 12.8143C78.3237 7.40625 91.5276 10.3137 94.5856 18.9907C96.4837 24.3611 94.194 22.2371 98.7811 21.8529C105.748 21.273 112.083 24.2632 114.734 31.4037C116.994 37.4294 114.787 39.4631 116.052 39.4631C118.749 39.4631 121.581 39.207 125.467 41.8282C135.523 48.5996 135.726 67.8594 119.178 68.5523ZM122.786 41.2181C120.316 40.1184 117.22 40.2691 115.45 40.3745C113.68 40.48 115.691 37.791 114.561 34.0174C113.152 29.3474 111.827 27.7732 111.058 26.8694C108.249 23.5627 102.253 22.094 98.6379 22.6815C96.7398 22.9978 95.3615 23.6908 95.1204 23.5326C94.322 22.9978 94.6082 19.8419 92.6348 17.296C87.1062 10.148 79.7774 9.76382 75.3108 12.144C74.4777 12.5178 73.6956 12.9962 72.9834 13.5676C72.1247 14.4112 71.477 14.6597 71.0627 15.5335C70.1513 17.5747 69.4132 13.2135 63.3648 11.1723C57.1357 9.07839 48.7223 11.4209 45.5965 18.5388C43.9243 22.3425 45.4759 23.0581 43.0732 21.6571C35.9779 17.6349 25.9902 20.8361 22.5179 28.2101C16.8839 40.1636 27.6549 45.4587 21.486 44.7808C20.5596 44.8547 19.6361 44.9752 18.7217 45.1424C16.6127 45.7525 15.3925 46.1065 12.8165 48.8482C10.2405 51.5899 9.80363 58.9413 12.47 62.8656C17.6295 70.3977 22.6912 67.3849 60.7361 67.7087C62.4685 67.7087 109.319 68.0176 113.092 68.01C118.237 68.01 123.487 67.6184 125.965 66.1119C135.621 60.1615 131.847 45.2554 122.786 41.2257V41.2181Z" fill="black"/>
<path id="Vector_15" d="M63.2374 96.5266C70.8524 133.848 67.7567 131.694 67.8019 99.5394C67.8019 99.2306 67.6814 97.8447 68.6681 97.807C69.4213 97.807 89.0727 92.8057 89.148 92.7755C100.318 88.7383 99.6253 92.2182 99.0679 86.6971C99.0679 86.5766 63.0717 95.7432 63.2374 96.5266ZM108.671 126.09C108.219 127.823 105.937 127.597 102.902 128.704C102.902 128.704 77.4581 136.01 68.6455 137.69C67.7492 137.743 67.0939 136.575 67.0788 135.897C60.5484 105.271 61.8891 109.294 61.0531 113.301C60.9702 113.685 60.1643 116.728 60.1492 116.841C59.4337 120.396 59.2378 119.854 56.4359 119.259C49.9055 117.797 30.0733 111.726 30.0733 111.726C24.6652 109.633 26.2018 112.299 24.2057 104.518C21.7201 94.8318 21.9913 95.2461 20.8615 90.0414C17.3213 73.6665 17.8486 79.9031 28.2279 81.0028C28.6422 81.0028 28.9811 81.402 29.0414 81.0028C29.1694 80.2496 28.71 78.5774 29.6364 78.7431C30.0658 78.8109 30.7512 79.1348 30.7587 78.9314C30.7964 78.3063 30.819 78.7205 31.1504 76.2952C31.5722 73.207 32.4309 73.8246 40.7991 76.25C52.0973 79.534 48.4066 79.4662 50.8771 75.3612C51.0078 75.1622 51.1838 74.997 51.3907 74.8792C51.5975 74.7613 51.8294 74.6942 52.0672 74.6833C52.956 74.5929 63.2675 77.8468 64.2994 78.2008C68.2011 79.5415 68.4195 79.8278 67.1315 84.799C66.7022 86.4711 66.3783 86.2527 68.284 85.7179C77.5862 83.157 77.4355 83.0515 78.5955 84.106C79.8534 85.6125 79.6123 88.3391 81.0133 88.2562C81.4878 88.2562 94.7143 84.4374 100.243 83.2172C102.503 82.7126 102.683 86.4711 102.864 88.9115C102.864 89.1978 102.796 89.1601 104.062 88.8362C105.327 88.5123 104.913 90.1393 104.905 91.6382C104.905 92.1127 113.944 89.7401 114.215 89.7401C114.29 89.7401 117.025 88.3165 117.303 90.4481C117.235 90.4632 118.019 90.6364 108.671 126.09ZM114.456 100.014C117.273 87.375 117.928 90.2221 111.842 91.1335C109.251 91.5101 103.301 93.0316 101.079 93.6719C98.0661 94.5531 98.4955 94.4703 97.5615 96.3609C95.5579 100.413 98.4729 99.7654 76.8405 104.963C72.163 106.085 73.2401 105.369 72.7204 108.39C72.0726 112.156 71.3119 129.081 71.0859 132.892C70.9051 135.905 67.4479 133.909 68.7359 133.743C69.4891 133.645 69.6322 135.408 68.1107 127.416C67.9149 126.414 62.8382 98.5377 62.4541 96.2403C62.4642 96.0799 62.5219 95.9261 62.6198 95.7987C62.7178 95.6712 62.8515 95.5759 63.0039 95.5248C69.7829 93.574 96.8986 86.328 97.0116 86.313C99.6328 85.8158 99.678 85.3564 99.8512 87.0285C100.13 89.7326 99.9567 89.8983 100.604 89.725C102.616 89.2128 102.246 89.725 101.93 87.3825C101.764 86.1322 101.772 84.3019 100.921 84.0608C99.3692 83.6164 84.2145 88.5274 80.6819 89.0396C78.6934 89.3258 79.3261 83.6842 76.6898 84.2491C76.6898 84.2491 66.303 87.0737 62.7779 88.2337C57.5732 89.9435 58.9365 90.2297 59.3659 93.7623C59.9609 98.6205 65.8059 126.851 66.898 131.634C68.2764 137.615 67.6964 136.952 69.4364 136.718C74.2118 136.085 103.881 127.627 107.022 126.58C108.129 126.211 108.084 125.299 109.093 121.307C110.253 116.833 111.556 112.992 114.456 100.014ZM104.145 91.8566C104.227 89.2957 104.461 89.6798 103.791 89.7702C103.12 89.8606 68.5325 98.6205 68.5175 99.095C68.4647 100.858 68.8941 129.841 69.926 133.11C70.9579 136.379 70.4833 119.176 71.8768 108.254C72.5547 102.982 71.3269 106.831 94.865 99.3587C96.2207 98.9293 97.1246 94.1313 98.4804 93.7547C99.2336 93.5438 98.5406 93.5438 103.956 92.1202C104.016 92.1103 104.07 92.0773 104.106 92.0284C104.124 92.0038 104.136 91.9759 104.143 91.9464C104.149 91.9169 104.15 91.8864 104.145 91.8566ZM66.0996 86.0117C67.8998 78.954 69.926 80.3023 52.5869 75.3612C50.4327 74.7511 50.9524 79.4587 49.1146 79.2327C47.2768 79.0068 42.3357 77.2066 36.9954 75.8658C34.2536 75.1804 32.2802 73.8924 31.8584 75.7604C31.3764 79.1574 31.2332 79.1725 31.5647 79.2478C33.4628 79.7072 33.0259 80.0462 33.2745 77.9824C33.4251 76.7772 33.3648 76.2952 34.0277 76.3931C34.103 76.3931 63.3278 84.2491 63.2223 85.025C62.8533 87.8119 62.5444 87.5181 64.0283 87.036C66.2427 86.3054 65.9791 86.5841 66.0996 86.0117ZM62.3335 86.1246C62.4616 85.2208 62.4842 85.1304 62.3335 85.0777C58.3189 83.752 51.1257 81.7334 46.7344 80.5584C30.6005 76.1521 34.683 76.1219 33.7565 79.5867C34.0201 80.2119 59.4563 86.4711 59.7425 87.3675C59.8856 87.8495 59.6521 88.6479 60.0287 88.4596C61.9795 87.4428 62.0247 88.2864 62.3335 86.1246ZM60.7066 104.706C60.6388 103.494 59.2002 115.575 58.9139 117.285C58.8815 117.395 58.8244 117.497 58.747 117.581C58.6697 117.666 58.574 117.732 58.4673 117.775C58.3604 117.817 58.2454 117.834 58.1309 117.825C58.0164 117.816 57.9056 117.78 57.8067 117.722C57.2041 117.451 57.4904 104.428 56.7522 97.4304C56.3229 93.3781 57.7013 94.5305 47.8191 91.5177C34.0427 87.3147 37.0857 89.0471 34.698 84.1512C33.9448 82.5921 24.6953 81.0555 20.8163 79.9633C19.0236 79.4587 19.3098 79.9633 20.0179 83.2097C26.3449 112.322 26.2244 109.813 27.0152 110.122C28.2656 110.597 46.9679 116.314 56.5488 118.656C59.5617 119.409 58.6729 120.049 60.3149 113.707C62.0925 106.642 60.8497 107.501 60.7066 104.706ZM58.703 114.385C60.9175 96.15 60.2547 105.121 59.6973 99.4942C59.6742 99.2219 59.6081 98.955 59.5015 98.7034C59.4261 98.9143 57.2795 126.015 58.6955 114.37L58.703 114.385ZM59.1625 88.7006C59.1625 87.4428 59.2604 87.5256 58.8687 87.375C58.8687 87.375 30.2465 79.6169 29.8398 79.4963C29.6214 79.421 29.6892 79.6244 29.7193 80.7768C29.7193 81.3342 29.6364 81.3945 29.8398 81.4698C33.1314 82.69 34.4721 82.351 35.2178 83.8424C36.1517 85.7179 36.5434 87.3449 37.2439 87.6085C59.0872 95.1406 57.046 90.9302 57.5807 99.1402C57.6862 100.73 57.7766 108.683 57.9724 108.653C58.1683 108.623 59.2002 95.2762 58.5675 93.3179C57.2569 89.2731 59.2002 89.2882 59.155 88.6856L59.1625 88.7006Z" fill="black"/>
<path id="Vector_16" d="M103.27 51.8537C103.828 52.0571 103.556 52.607 103.074 52.4488C95.708 49.7372 104.114 58.6478 94.5932 54.7988C88.9667 52.5392 92.6574 55.4842 89.6596 56.6894C87.8594 57.4426 83.8297 56.3806 83.6791 56.2902C83.3627 56.1019 83.3929 55.6726 83.9879 55.6726C85.4944 56.0567 88.1683 56.6367 89.5316 55.9286C91.1962 55.07 89.7576 52.8179 92.1227 53.1493C93.6291 53.3677 98.4346 56.1621 98.8037 54.7235C99.3385 52.6522 98.284 50.046 103.27 51.8537Z" fill="black"/>
<path id="Vector_17" d="M98.5559 115.914C102.849 115.07 94.4434 123.657 92.6206 126.037C92.0632 126.791 91.1141 126.037 90.4061 125.45C85.5027 121.172 81.3148 119.288 87.1974 118.234C87.7849 118.129 87.3556 118.362 87.6343 113.007C87.913 107.651 85.8492 108.276 95.5958 106.047C97.7876 105.542 95.1288 116.502 96.4996 116.245C97.283 116.102 98.0061 116.004 98.5559 115.914ZM94.6015 122.648C98.6312 117.737 99.6782 116.622 98.3676 116.622C96.7181 116.622 95.2719 117.646 95.4075 115.997C96.2812 105.286 95.9197 106.567 94.6543 106.891C86.9489 108.932 88.3498 107.29 88.3423 114.219C88.3423 114.332 88.2067 114.897 88.2067 115.131C88.2067 119.349 89.088 118.377 85.2692 119.447C84.0188 119.793 90.8053 124.975 91.6113 125.472C92.259 125.902 92.2666 125.487 94.6015 122.648Z" fill="black"/>
<path id="Vector_18" d="M90.0808 29.6032C92.6568 27.9988 92.4911 29.1964 92.107 29.3772C85.0117 32.6763 90.0959 33.437 88.6347 35.4029C87.8814 36.3821 87.0303 36.6834 85.7272 37.3914C84.025 38.3179 84.974 38.5589 85.2828 39.2895C85.5917 40.0201 84.4769 40.7357 83.7312 41.0445C79.8597 42.6715 80.1384 42.9577 79.9124 42.7844C78.7148 41.8505 82.398 41.1048 84.4769 39.7716C84.7255 39.6134 84.4769 39.4703 84.3037 39.1163C83.4676 37.5571 84.492 37.2558 86.7968 35.9829C90.4198 33.9567 84.4091 33.1508 90.0808 29.6032Z" fill="black"/>
<path id="Vector_19" d="M77.1338 51.0248C77.6008 52.117 76.4484 53.3523 72.8405 58.0825C69.4962 62.4812 69.5038 62.6469 68.5698 62.3306C68.035 62.1498 60.3371 56.7493 60.194 55.3106C60.0509 53.872 63.6814 53.9699 63.6814 53.179C63.6814 41.572 62.4311 42.4984 66.6943 41.2933C74.0607 39.2144 73.2623 38.0168 73.2623 44.517C73.187 44.517 73.2623 50.1887 73.187 50.6256C72.9384 51.7931 76.5237 49.6163 77.1338 51.0248ZM70.9951 59.2424C73.0665 56.4706 77.5933 51.183 76.1095 51.3035C74.4223 51.4466 72.5242 52.4258 72.4865 51.2508C72.0496 37.4971 75.2131 39.8772 65.105 42.5587C64.8782 42.6325 64.6819 42.7784 64.5459 42.9743C64.4099 43.1701 64.3417 43.4051 64.3518 43.6433C64.3518 55.755 65.926 53.533 61.4142 54.9943C59.6894 55.3257 67.7864 61.02 67.8617 61.02C69.3983 62.1046 69.1046 61.7732 70.9951 59.2424Z" fill="black"/>
<path id="Vector_20" d="M67.1914 31.8326C67.4776 33.5424 67.1462 36.5854 66.8976 36.8264C65.9561 37.7152 66.6265 34.4312 66.6265 33.2335C66.2197 28.7971 64.3292 30.763 63.4178 29.7763C62.0243 28.428 65.6774 22.0709 64.0957 21.8299C62.1976 21.5361 59.9907 22.44 60.3296 19.284C60.6384 16.5799 61.2862 17.303 61.2485 17.5742C60.9774 19.5853 60.4953 20.6699 61.6553 20.9863C62.4085 21.1821 63.0186 20.9109 64.299 21.1294C66.2951 21.4758 63.8471 27.1551 63.8019 28.782C63.7869 30.1981 66.619 28.4054 67.1914 31.8326Z" fill="black"/>
<path id="Vector_21" d="M54.4926 42.0391C55.2986 42.5212 54.9747 42.8978 54.5905 42.8827C51.525 41.6701 50.0712 37.2939 48.8887 38.7852C47.6384 40.7285 45.7553 37.2788 43.7593 36.4427C43.0061 36.1339 42.3583 38.9058 39.6317 37.3165C36.905 35.7272 38.0123 35.3732 38.1252 35.4711C41.6654 38.2203 41.1908 37.098 42.976 35.9456C44.4146 35.0116 46.6215 37.8889 47.4952 38.484C47.902 38.7777 48.1807 38.484 48.4669 38.1601C50.1616 36.2092 51.3291 40.1486 54.4926 42.0391Z" fill="black"/>
<path id="Vector_22" d="M52.489 55.7476C50.6361 55.0697 48.1354 53.6838 46.516 54.5575C45.1904 55.3107 46.0716 58.0449 42.7876 56.1318C42.0721 55.7175 38.08 52.7272 37.5528 53.8721C37.0255 55.017 37.0104 57.8867 34.3893 56.7343C33.4251 56.3125 32.0844 55.7627 32.4911 55.3107C32.8979 54.8588 33.9976 56.1242 35.3006 56.305C36.4305 56.4632 36.3853 54.678 37.0029 53.3599C37.8842 51.4844 42.2227 55.2053 44.2112 55.966C45.6498 56.5084 44.294 53.0888 48.5874 53.6311C49.9206 53.7893 54.3947 55.5141 52.489 55.7476Z" fill="black"/>
<path id="Vector_23" d="M45.1447 103.878C46.9675 104.714 44.8057 106.062 40.3542 109.55C39.9098 109.896 39.2545 110.258 38.8478 109.836C38.2754 109.196 33.4774 103.411 33.0556 102.213C33.0339 102.111 33.0338 102.005 33.0553 101.903C33.0767 101.801 33.1193 101.704 33.1802 101.619C33.2412 101.534 33.3192 101.462 33.4092 101.409C33.4993 101.356 33.5994 101.322 33.7033 101.31C35.0667 101.31 36.1136 101.95 36.0458 101.362C35.9554 100.609 35.8952 94.7717 35.8877 94.6964C35.7069 92.7832 36.3095 93.0544 37.605 93.4159C43.5177 95.0504 42.9679 94.7792 43.1637 96.361C42.9453 98.2967 43.1637 100.571 43.1637 103.14C43.1637 103.494 44.2935 103.486 45.1447 103.878ZM42.4256 107.237C44.9338 105.181 45.559 104.646 44.8961 104.428C41.0773 103.185 43.0658 104.948 42.516 96.0672C42.4557 95.0504 42.516 95.4797 36.8518 93.7398C35.8199 93.4234 36.7689 100.722 36.6107 101.716C36.5279 102.567 35.609 102.168 34.6674 101.972C32.7995 101.596 33.6054 102.394 37.2962 107.027C39.6161 109.979 38.6143 110.356 42.4256 107.237Z" fill="black"/>
</g>
</g>
</g>
</svg>
