<svg width="151" height="151" viewBox="0 0 151 151" fill="none" xmlns="http://www.w3.org/2000/svg">
<g id="Enter-Your-Password--Streamline-Bruxelles">
<g id="Enter-Your-Password--Streamline-Bruxelles.svg">
<g id="Colour">
<path id="Vector" d="M90.997 135.327C86.1613 137.39 45.3446 145.337 36.9989 144.23C34.7016 143.921 33.037 141.217 32.5775 139.055C31.5607 134.265 30.6568 131.026 31.3573 131.026C32.5625 131.026 92.3227 121.234 92.3679 121.482C93.106 127.93 94.9363 133.639 90.997 135.327Z" fill="#FFFBE5"/>
<path id="Vector_2" d="M91.5759 120.895C89.0526 120.895 30.7989 131.387 30.8365 130.039C30.8365 129.888 20.5702 68.1547 15.7722 22.4119C14.8608 13.7649 15.9078 13.1774 29.7293 11.1664C36.0186 10.2474 32.9079 9.76537 35.755 12.5824C36.7417 13.5616 37.7435 13.3959 39.4157 13.2678C43.0989 12.9741 52.1601 11.43 52.6572 11.3095C54.1636 10.7897 54.1636 8.80125 54.6683 7.6639C54.8792 7.15171 69.2731 4.96738 72.5722 5.99929C75.0955 6.75251 75.5248 10.2851 75.9994 12.8837C75.9994 12.959 86.7252 73.141 86.0699 73.8942C83.1436 77.1026 81.6005 81.3354 81.7753 85.6743C81.9502 90.0132 83.8289 94.1082 87.0039 97.0707C88.6911 98.6976 89.6024 98.6901 89.6552 99.3303C91.5156 120.39 93.0898 120.895 91.5759 120.895Z" fill="#FFFDF2"/>
<path id="Vector_3" d="M117.42 122.326C118.445 125.798 118.392 122.748 115.567 128.457C114.965 129.662 114.987 129.444 110.385 127.877C108.698 127.297 109.414 126.446 108.412 124.812C108.08 124.277 100.616 103.466 100.285 102.75C100.029 102.215 103.99 102.501 108.652 98.6977C108.81 98.5697 108.705 98.517 109.616 100.799C110.528 103.081 110.656 102.991 110.369 103.661C108.803 107.307 108.013 107.428 110.031 108.309C113.451 109.815 112.954 109.446 111.96 111.502C110.453 114.681 110.716 113.694 115.258 115.931C115.567 116.082 115.567 115.871 114.505 117.897C113.081 120.579 112.999 120.27 115.658 121.4C117.217 122.078 117.307 121.927 117.42 122.326Z" fill="#E5F6FF"/>
<path id="Vector_4" d="M103.484 69.8047C112.87 72.9833 117.517 83.1668 112.922 91.9493C105.737 105.711 87.3129 102.065 83.2681 90.1868C78.7036 76.9 91.9979 65.9106 103.484 69.8047ZM100.713 80.4552C100.71 79.9446 100.599 79.4405 100.386 78.9763C100.174 78.512 99.8649 78.0984 99.4802 77.7628C99.0954 77.4272 98.6436 77.1773 98.1548 77.0299C97.666 76.8824 97.1514 76.8407 96.6453 76.9076C96.0977 76.9743 95.5715 77.1603 95.1037 77.4526C94.6359 77.7449 94.238 78.1363 93.9381 78.5992C93.6381 79.0621 93.4434 79.5852 93.3676 80.1316C93.2919 80.6779 93.337 81.2343 93.4998 81.7613C93.7183 82.4655 94.1385 83.0907 94.7095 83.5584C96.8561 85.3812 100.72 83.8522 100.713 80.4552Z" fill="#E5F6FF"/>
<path id="Vector_5" d="M95.4625 129.323C96.1329 135.899 94.115 136.772 87.6901 138.324C70.7051 142.414 45.7661 145.856 42.1055 145.962C39.2056 146.06 31.8015 148.003 30.5511 139.183C30.5511 139.107 21.8213 86.0358 18.2812 58.8598C12.2555 12.4617 10.5909 13.0266 21.4598 11.2038C31.1989 9.56932 33.6167 8.74831 33.5113 9.84048C33.5113 10.1192 22.7478 11.5126 18.5298 12.9663C13.7619 14.6008 15.0424 19.6474 15.306 22.8937C15.8257 25.2136 19.3659 62.6108 28.8639 120.94C30.6415 131.846 31.1612 144.817 37.2472 144.854C53.818 144.945 88.4659 137.465 91.6671 135.567C96.7287 132.554 92.5777 126.981 90.2879 99.7368C90.2503 99.3226 90.416 99.5184 91.5157 100.083C91.6889 100.159 95.455 129.24 95.4625 129.323Z" fill="#E5F6FF"/>
<path id="Vector_6" d="M88.7213 129.12C88.8493 129.783 88.6686 130.257 88.3597 130.039C87.6065 129.527 87.6065 129.934 87.7647 129.376C87.8215 129.18 87.8174 128.97 87.753 128.776C87.6886 128.582 87.5669 128.412 87.4039 128.288C87.2407 128.164 87.0436 128.093 86.839 128.085C86.6343 128.076 86.4317 128.13 86.2583 128.239C86.0232 128.373 85.8489 128.592 85.7718 128.852C85.6948 129.111 85.7209 129.39 85.8448 129.631C85.9269 129.79 86.0489 129.925 86.198 130.024C86.4616 130.182 86.198 130.137 85.8666 130.89C85.7536 131.184 85.1736 130.498 85.0531 130.212C83.9007 127.486 88.1865 126.371 88.7213 129.12Z" fill="white"/>
<path id="Vector_7" d="M88.3748 130.581C88.1667 130.918 87.8463 131.171 87.4702 131.295C87.0941 131.419 86.6863 131.406 86.3186 131.259C85.8892 131.04 87.0868 129.233 88.3748 130.581Z" fill="white"/>
<path id="Vector_8" d="M87.8182 71.9209C88.0291 72.3803 86.839 73.1637 86.6959 73.2013C86.6959 73.126 79.3671 26.2233 78.6666 23.5945C74.765 8.90682 78.5537 4.44777 66.6679 5.63786C54.7822 6.82794 54.752 7.0765 54.9027 6.63963C54.9436 6.48217 55.0307 6.34059 55.1529 6.23317C55.2751 6.12576 55.4267 6.05745 55.5881 6.03706C60.9811 5.33657 69.372 4.48544 70.6524 4.41011C77.921 4.00338 76.8891 8.22892 80.3388 25.922C82.4704 36.8888 87.7881 71.8456 87.8182 71.9209Z" fill="#E5F6FF"/>
<path id="Vector_9" d="M87.3369 128.856C87.377 128.942 87.3975 129.035 87.397 129.129C87.3965 129.223 87.3749 129.316 87.3339 129.4C87.2933 129.485 87.2342 129.56 87.1608 129.619C87.0873 129.678 87.0016 129.72 86.9098 129.741C86.8183 129.763 86.7231 129.764 86.6312 129.744C86.5393 129.725 86.4529 129.685 86.3784 129.627C86.3038 129.57 86.243 129.497 86.2004 129.413C86.1577 129.329 86.1343 129.237 86.1318 129.143C86.1205 129.03 86.1399 128.917 86.188 128.815C86.236 128.713 86.3109 128.626 86.4046 128.563C86.4983 128.5 86.6073 128.463 86.7201 128.458C86.8328 128.452 86.945 128.477 87.0447 128.53C87.1783 128.6 87.2821 128.716 87.3369 128.856Z" fill="white"/>
<path id="Vector_10" d="M76.4287 93.546C76.4814 94.1184 76.8053 95.4591 75.57 95.5796C75.4947 95.5796 40.5831 101.138 40.5078 101.131C39.1671 101.056 38.8583 102.012 37.8038 97.1991C37.4874 95.7604 36.1392 89.6669 37.5853 89.5765C39.4232 88.5597 55.9789 86.5637 59.6245 85.8556C72.1956 84.1684 74.4553 83.4529 74.9298 84.4095C75.8337 86.2247 76.263 91.5273 76.4287 93.546Z" fill="white"/>
<path id="Vector_11" d="M74.8173 130.37C75.4274 129.949 76.0601 130.868 75.224 131.877C74.4708 132.766 74.6365 133.105 74.3277 132.856C74.0188 132.607 73.2204 132.043 73.0472 131.884C72.3467 131.206 73.2355 129.971 73.8004 130.747C74.29 131.387 74.4105 130.672 74.8173 130.37Z" fill="white"/>
<path id="Vector_12" d="M73.9055 76.8093C73.9507 78.5266 73.1146 78.504 38.1654 83.4451C35.9058 83.7614 35.7702 83.6033 34.6027 76.1238C34.0378 72.4707 34.1658 72.192 35.2655 71.7853C38.1051 70.7383 67.3827 66.7312 67.458 66.7463C68.6029 66.7463 72.5497 65.6089 72.5347 67.1907C73.2375 70.357 73.6958 73.5727 73.9055 76.8093ZM64.174 74.3161C64.4199 73.9705 64.5429 73.5524 64.5235 73.1287C64.504 72.7049 64.3432 72.2999 64.0666 71.9782C63.79 71.6566 63.4137 71.4368 62.9976 71.3541C62.5816 71.2713 62.1498 71.3303 61.7712 71.5217C58.683 73.4725 62.7654 76.8996 64.174 74.301V74.3161ZM57.3272 74.3161C56.8602 71.4991 53.4708 72.1544 53.4934 74.4668C53.516 76.7791 57.0109 77.2235 57.3272 74.2709V74.3161ZM48.5372 77.57C48.9218 77.5706 49.2979 77.457 49.6179 77.2436C49.9378 77.0302 50.1872 76.7266 50.3343 76.3712C50.4815 76.0159 50.5198 75.6249 50.4445 75.2477C50.3691 74.8706 50.1835 74.5243 49.9111 74.2528C49.5467 73.8884 49.0525 73.6835 48.5372 73.6834C48.2738 73.686 48.0137 73.7423 47.7728 73.8489C47.5319 73.9555 47.3153 74.1101 47.1362 74.3033C46.9571 74.4965 46.8193 74.7242 46.7312 74.9725C46.6432 75.2207 46.6067 75.4844 46.624 75.7472C46.7069 77.2085 48.3941 77.7131 48.5372 77.5625V77.57ZM42.8052 78.0521C44.854 75.4007 40.3045 73.126 39.5061 76.4628C38.9262 77.9391 41.5398 79.6489 42.8052 78.0069V78.0521Z" fill="white"/>
<path id="Vector_13" d="M69.1833 8.57534C69.236 9.44154 69.1833 9.64491 68.882 9.69763C68.2719 9.80308 67.6768 9.84828 67.722 9.15532C67.722 8.5904 67.6166 8.28159 68.9498 8.31925C69.123 8.31925 69.1757 8.38704 69.1833 8.57534Z" fill="white"/>
<path id="Vector_14" d="M64.0918 131.53C64.845 135.922 64.9504 135.342 62.6607 135.711C59.5348 136.223 60.3031 136.637 59.5951 132.969C59.2712 131.289 59.8135 131.719 62.6079 131.109C63.1578 130.98 63.9939 130.95 64.0918 131.53ZM62.5853 133.602C63.2557 133.436 63.6474 133.436 63.572 133.142C63.572 132.547 62.8866 132.871 62.3594 132.976C62.0656 133.037 62.2012 131.997 61.8848 131.914C61.0714 131.847 61.7869 133.059 61.4103 133.127C60.5517 133.278 60.2956 133.285 60.3182 133.677C60.3709 134.347 61.6589 133.361 61.7869 134.106C61.8773 134.649 61.8321 134.995 62.2464 134.988C62.9167 134.98 62.0807 133.722 62.5929 133.602H62.5853Z" fill="white"/>
<path id="Vector_15" d="M60.5062 49.4826C57.4933 45.1065 53.6218 43.8411 52.5221 44.0971C52.2886 44.1499 52.6351 43.6904 52.846 43.1255C54.3524 39.1711 53.3657 35.1037 51.7764 33.4994C49.7427 31.4507 43.9731 32.0683 43.1747 36.7382C42.8508 38.6288 43.4308 42.1915 44.5907 43.7883C45.4193 44.9257 45.7657 45.0462 45.4343 45.2194C43.7471 45.8145 40.9904 48.6918 40.0413 52.97C37.8325 51.2317 36.2671 48.8059 35.5931 46.0771C34.919 43.3483 35.175 40.4726 36.3204 37.9057C39.1751 31.0138 50.2549 26.8033 57.1318 32.6784C62.8261 37.514 63.2479 44.8052 60.5062 49.4826Z" fill="#E5F6FF"/>
<path id="Vector_16" d="M60.1674 50.0475C55.9419 56.3972 46.6095 57.7831 40.5838 53.3692C41.2768 50.9288 42.0902 48.6918 43.9959 47.0196C45.427 45.7542 46.0371 45.596 46.4965 45.7391C48.003 46.1911 48.5679 47.2983 51.9046 44.9859C52.5223 44.5566 53.1399 44.4813 55.5276 45.6337C57.9153 46.7861 58.9999 48.4432 60.1674 50.0475Z" fill="white"/>
<path id="Vector_17" d="M54.2469 6.27824C54.3486 6.68116 54.3486 7.10306 54.2469 7.50598C52.6501 11.8445 55.1884 10.6092 38.8285 12.7785C37.4351 12.9668 36.358 12.7785 35.65 11.7089C33.5259 8.50776 33.1794 9.23838 35.0022 8.83164C36.4032 8.83164 54.2243 6.24058 54.2469 6.27824ZM50.3 8.85424C50.2559 8.7349 50.1738 8.63338 50.0663 8.5653C49.9589 8.49723 49.832 8.46638 49.7052 8.47751C49.5785 8.48865 49.459 8.54114 49.365 8.62691C49.271 8.71268 49.2079 8.82696 49.1853 8.95216C49.0647 9.72797 50.4883 9.56226 50.3 8.85424ZM46.8277 9.70537C47.0311 9.41162 46.8729 8.81658 46.3306 8.95216C45.7883 9.08774 42.1653 9.40409 40.5383 9.7581C39.9734 9.87861 40.1316 10.662 40.5383 10.6544C40.9451 10.6469 46.5565 10.082 46.8277 9.70537Z" fill="#CCEEFF"/>
<path id="Vector_18" d="M51.6932 34.4028C54.7061 38.7413 51.9192 49.0453 46.24 44.7143C43.9803 42.9744 42.263 36.8959 45.3964 34.0111C46.2324 33.2353 50.1868 32.2184 51.6932 34.4028Z" fill="white"/>
<path id="Vector_19" d="M51.2648 135.003C51.7017 135.937 50.7075 136.788 49.668 136.509C49.4022 136.412 49.1786 136.225 49.0356 135.981C48.8926 135.736 48.8393 135.45 48.8847 135.171C48.9148 134.985 48.9871 134.809 49.0956 134.656C49.3165 134.412 49.6213 134.26 49.9494 134.23C50.2774 134.201 50.6046 134.296 50.8656 134.496C51.0389 134.63 51.176 134.804 51.2648 135.003Z" fill="white"/>
<path id="Vector_20" d="M39.492 137.729C39.831 139.19 39.8159 139.235 39.605 139.235C38.6409 139.235 39.1606 139.59 38.7087 138.189C38.6032 137.865 38.5505 137.827 38.2191 137.842C36.803 137.91 37.2625 138.595 37.1194 138.595C37.383 139.612 37.5186 139.559 36.5997 139.703C36.3888 139.703 36.1553 138.091 36.2908 137.925C36.6991 137.365 37.1392 136.83 37.609 136.321C38.2748 136.737 38.9045 137.208 39.492 137.729Z" fill="white"/>
<path id="Vector_21" d="M34.1889 145.977C34.6709 146.369 28.713 145.879 27.1689 141.865C26.0391 138.92 14.2211 64.2834 15.1551 63.8616C16.8348 63.1535 15.7502 62.0237 14.6881 51.8779C14.4471 50.4844 14.4998 50.1756 13.9876 49.9722C13.8219 49.912 13.6637 49.7764 13.4528 49.8593C13.0009 50.04 12.903 46.982 12.775 46.4321C12.5791 45.5509 13.9575 46.6355 13.724 43.9164C13.6487 43.1029 12.662 35.2469 12.2929 33.1755C12.2025 32.6709 12.1121 32.0683 11.389 31.9026C11.0426 31.9402 11.0727 32.2189 10.5756 28.5884C9.06913 17.6442 8.42136 16.183 13.5884 13.5241C14.8312 12.8763 13.8822 13.8631 13.5884 14.4882C11.5095 18.533 20.7214 79.4305 21.0076 81.2157C31.3643 146.55 28.8712 141.669 34.1889 145.977Z" fill="#E5F6FF"/>
<path id="Vector_22" d="M30.4243 12.989C30.6276 13.1623 29.7238 15.0152 29.671 14.744C29.3999 13.9079 29.2643 14.2845 29.0157 14.2544C28.9254 14.2544 28.7822 14.2544 28.7596 14.2168C29.2701 13.7505 29.828 13.339 30.4243 12.989Z" fill="white"/>
<path id="Vector_23" d="M14.3044 53.2714C17.3173 77.525 12.9562 50.6352 13.3102 50.492C14.0709 50.1832 14.1613 52.1265 14.3044 53.2714Z" fill="#CCEEFF"/>
<path id="Vector_24" d="M14.4635 63.1316C14.4635 63.4028 13.9438 63.6513 13.7856 62.6797C11.2096 46.7266 12.9797 46.6814 14.4635 63.1316Z" fill="#CCEEFF"/>
<path id="Vector_25" d="M11.954 34.6293C13.0613 44.1424 13.5057 44.9935 12.8956 45.3701C12.6319 45.5359 12.2779 40.8508 12.1423 40.1805C12.1423 39.3068 10.9749 32.5504 11.0502 32.4977C11.6904 32.0533 11.8712 33.9137 11.954 34.6293Z" fill="#CCEEFF"/>
<path id="Vector_26" d="M12.2399 45.4452C11.223 45.8971 11.4415 45.6335 10.0706 35.1261C9.9727 34.3729 9.67141 33.0096 10.3794 32.8665C10.7937 32.8891 12.2323 45.415 12.2399 45.4452Z" fill="#CCEEFF"/>
</g>
<g id="Ink">
<path id="Vector_27" d="M100.712 80.4549C100.712 83.769 96.9084 85.4261 94.6864 83.5581C94.2595 83.2085 93.9147 82.7693 93.6764 82.2716C93.4381 81.7739 93.3121 81.2299 93.3074 80.6782C93.3026 80.1264 93.4193 79.5803 93.649 79.0786C93.8787 78.5769 94.2159 78.1319 94.6366 77.7749C95.1991 77.2973 95.8895 76.9955 96.6221 76.9072C97.1299 76.8369 97.6468 76.8761 98.1381 77.0221C98.6295 77.1682 99.0839 77.4177 99.4708 77.7539C99.858 78.0898 100.169 78.5046 100.383 78.9704C100.597 79.4362 100.709 79.9423 100.712 80.4549ZM99.8534 80.8842C100.607 78.6848 97.8197 76.2821 95.2061 78.2856C94.6665 78.674 94.2753 79.2347 94.097 79.8752C93.9188 80.5157 93.964 81.1978 94.2254 81.8092C94.3986 82.2144 94.6623 82.5759 94.9952 82.8644C96.931 84.6345 100.034 82.9254 99.8534 80.8842Z" fill="black"/>
<path id="Vector_28" d="M141.95 76.6808C141.95 76.387 133.665 74.5491 129.146 72.5381C125.282 70.8132 122.496 64.0945 123.814 58.4981C127.09 44.7143 135.36 41.2796 123.43 48.5557C118.006 51.8623 114.586 53.783 108.462 55.1915C100.99 56.9088 97.6243 50.9132 98.95 43.6522C99.0404 43.1174 99.2437 42.3868 98.7542 42.4847C97.8654 42.6655 98.8137 47.4183 93.963 55.1764C92.2607 57.8729 90.4462 57.6696 90.401 58.5358C90.401 59.063 92.5921 58.3399 95.0928 54.4006C97.7215 50.3408 98.1064 45.8968 98.242 47.6217C99.7484 67.2655 128.234 45.8441 128.603 46.1152C128.603 46.8007 121.968 54.8299 123.12 64.1397C123.579 67.9058 125.426 71.815 130.547 73.6604C140.294 77.1703 140.934 76.5753 140.889 77.0348C140.889 77.0348 130.758 82.0888 128.175 85.4632C124.499 90.2763 130.932 98.1851 136.197 101.175C141.462 104.166 138.193 101.326 127.535 104.188C118.534 106.629 121.027 111.894 121.757 111.622C122.255 111.427 117.592 105.717 133.184 103.495C139.541 102.606 143.389 104.309 138.192 101.635C132.385 98.6671 125.207 91.602 128.536 85.9905C130.434 82.7667 142.146 77.3586 141.95 76.6808Z" fill="black"/>
<path id="Vector_29" d="M86.8158 127.093C90.3333 126.943 89.7458 132.675 86.2434 131.831C83.3661 131.138 84.1042 126.913 86.8158 127.093ZM88.3599 130.038C88.9549 130.46 88.8947 128.577 88.0812 127.975C87.6813 127.66 87.173 127.516 86.6674 127.575C86.2902 127.619 85.9346 127.774 85.6455 128.02C85.3564 128.266 85.1468 128.593 85.0434 128.958C84.9399 129.323 84.9472 129.711 85.0643 130.072C85.1813 130.434 85.4029 130.752 85.701 130.987C85.8969 131.146 85.799 130.822 86.2509 130.234C86.4317 130.008 85.5429 129.903 85.7387 128.939C86.0174 127.613 88.1415 128.02 87.7724 129.391C87.6217 129.933 87.6218 129.534 88.375 130.038H88.3599ZM88.3599 130.581C86.8911 129.074 85.1135 131.748 87.1623 131.334C87.4072 131.305 87.6428 131.222 87.8523 131.092C88.0619 130.962 88.2403 130.787 88.375 130.581H88.3599ZM86.7932 129.775C87.4786 129.775 87.6067 128.366 86.748 128.472C86.5872 128.495 86.4407 128.577 86.3367 128.701C86.2327 128.826 86.1785 128.985 86.1846 129.147C86.1912 129.31 86.258 129.464 86.3718 129.58C86.4857 129.696 86.6385 129.765 86.8007 129.775H86.7932Z" fill="black"/>
<path id="Vector_30" d="M77.3483 94.3587C77.4157 94.6887 77.3815 95.0314 77.2503 95.3416C77.119 95.6517 76.8969 95.9149 76.6132 96.0964C76.4244 96.2162 76.2132 96.2964 75.9925 96.3321C69.2136 97.7557 40.4934 101.906 40.4181 101.906C39.7402 101.944 38.7158 102.049 38.2262 101.326C37.8423 100.818 37.6099 100.213 37.5559 99.5785C37.5559 99.4278 37.3299 99.3601 37.458 99.1943C37.0738 98.8253 36.0946 91.6245 36.0946 91.5266C36.0419 87.6777 35.4544 88.7397 68.7541 83.8363C72.942 83.2186 74.9531 82.6838 75.6008 84.0246C76.5198 85.9151 77.0771 93.2816 77.3483 94.3587ZM75.985 95.4433C76.7382 94.9462 76.5039 94.4415 76.4286 93.5452C76.2629 91.5266 75.8336 86.224 74.9222 84.4087C74.3196 83.1885 38.813 88.8903 37.5777 89.5758C36.1316 89.6586 37.4798 95.7371 37.7962 97.1983C38.8431 102.011 39.1595 101.055 40.5002 101.13C40.9973 101.16 76.0603 95.368 75.985 95.4433Z" fill="black"/>
<path id="Vector_31" d="M76.2406 130.799C76.1502 132.064 75.7133 132.147 75.1258 133.157C75.0577 133.296 74.9442 133.409 74.8038 133.476C74.6635 133.543 74.5045 133.56 74.353 133.525C74.2528 133.501 74.1591 133.455 74.0789 133.39C72.9566 132.561 71.4727 131.605 72.5724 130.279C73.1901 129.526 74.0789 130.279 74.2898 130.016C74.4457 129.851 74.6475 129.737 74.8689 129.689C75.0902 129.641 75.321 129.66 75.5313 129.745C75.7416 129.829 75.9217 129.975 76.0481 130.163C76.1746 130.351 76.2417 130.572 76.2406 130.799ZM75.2464 131.876C76.0824 130.867 75.4497 129.948 74.8396 130.37C74.4103 130.671 74.2973 131.386 73.8228 130.731C73.2579 129.978 72.3691 131.206 73.0696 131.876C73.2428 132.034 74.0713 132.629 74.35 132.848C74.6287 133.066 74.5007 132.765 75.2464 131.876Z" fill="black"/>
<path id="Vector_32" d="M74.7181 76.4692C75.1173 77.6066 73.9649 78.7289 73.3397 78.6309C73.2644 78.6309 37.0197 84.845 36.4321 84.2048C36.274 84.039 35.9576 84.039 35.6789 83.6775C34.7073 82.397 33.0954 74.2472 33.698 71.9499C34.052 70.5866 41.9833 69.5547 42.0587 69.63C42.134 69.5698 57.7331 67.3704 57.8084 67.3704C62.8399 67.0013 72.1948 64.4705 72.9405 66.2104C73.9649 68.6282 74.6353 76.0022 74.7106 76.1152C74.7859 76.2282 74.6729 76.3412 74.7181 76.4692ZM71.8634 78.1866C73.0309 77.9455 73.9348 77.8024 73.9046 76.7931C73.7407 73.551 73.2767 70.331 72.5187 67.1745C72.5187 65.8715 70.2591 66.4213 68.135 66.6397C67.5174 66.6397 38.0892 70.7222 35.2571 71.7692C34.18 72.1684 34.0068 72.3642 34.5943 76.1001C36.1007 85.6359 34.7977 83.9487 47.6325 81.9376C49.4854 81.4555 64.1656 79.821 71.8634 78.1866Z" fill="black"/>
<path id="Vector_33" d="M72.5563 7.97943C72.7973 9.54612 73.0542 9.48586 70.7117 9.86247C69.4086 10.0658 67.503 10.6157 67.3297 9.6591C67.2092 9.0038 66.9381 8.15267 67.9624 8.00203C71.8038 7.51243 72.4064 7.20362 72.5571 7.97943H72.5563ZM68.9107 9.69676C69.2421 9.64404 69.2655 9.44067 69.2128 8.57447C69.2128 8.38617 69.1525 8.31838 68.9793 8.31838C67.6461 8.31838 67.7817 8.58953 67.7515 9.15445C67.6762 9.8474 68.2712 9.80974 68.8814 9.69676H68.9115H68.9107Z" fill="black"/>
<path id="Vector_34" d="M70.215 97.5073C70.1622 97.5449 70.215 97.5525 70.117 97.5073C70.0191 97.4621 70.1246 97.4772 70.215 97.5073Z" fill="black"/>
<path id="Vector_35" d="M65.4458 8.44692C65.378 8.92145 65.039 8.80847 64.5796 8.70302C62.3199 8.19083 61.5674 9.62947 61.3114 8.95911C60.9724 7.97993 65.6122 7.42255 65.4465 8.44692H65.4458Z" fill="black"/>
<path id="Vector_36" d="M64.874 9.44911C64.6932 10.2475 64.2187 9.29847 62.3055 9.89351C61.9289 10.0065 61.7557 9.58469 61.9591 9.42652C62.6445 8.89173 65.0246 8.72603 64.874 9.44911Z" fill="black"/>
<path id="Vector_37" d="M64.6177 131.417C64.7457 133.511 65.9584 135.281 64.3239 135.974C63.9548 136.124 61.8985 136.41 61.0549 136.591C60.8188 136.653 60.5697 136.645 60.3383 136.567C60.1068 136.489 59.9031 136.346 59.7519 136.154C59.6088 135.981 58.1023 131.281 60.0381 130.995C61.8006 130.739 64.5197 129.677 64.6177 131.417ZM62.6593 135.71C64.9189 135.341 64.8361 135.913 64.0904 131.53C63.9925 130.95 63.1564 130.98 62.584 131.108C59.8197 131.718 59.2698 131.289 59.5711 132.968C60.3017 136.629 59.5335 136.215 62.6593 135.71Z" fill="black"/>
<path id="Vector_38" d="M64.0458 71.929C66.2 74.6331 60.92 76.907 60.6639 73.2923C60.8597 71.2436 63.0591 70.6862 64.0458 71.929Z" fill="black"/>
<path id="Vector_39" d="M63.9404 10.7517C63.5707 10.6814 63.1938 10.6561 62.8181 10.6764C62.4942 10.6764 62.5394 10.2696 62.8181 10.2018C64.7388 9.71226 64.2718 10.8647 63.9404 10.7517Z" fill="black"/>
<path id="Vector_40" d="M63.5781 133.142C63.6534 133.436 63.2618 133.443 62.5914 133.601C62.0641 133.722 62.9228 134.965 62.2525 134.987C61.8382 134.987 61.8834 134.648 61.793 134.106C61.6649 133.353 60.3769 134.347 60.3242 133.677C60.3242 133.285 60.5577 133.277 61.4164 133.127C61.8005 133.051 61.0699 131.846 61.8909 131.914C62.1997 132.005 62.0717 133.036 62.3654 132.976C62.8927 132.871 63.5706 132.547 63.5781 133.142Z" fill="black"/>
<path id="Vector_41" d="M62.8176 42.0411C63.5709 52.9552 51.896 59.6965 43.3997 55.8852C28.7798 49.3323 34.0372 29.9746 46.985 29.2364C53.1689 28.8824 53.764 30.0499 55.4587 30.645C58.6373 31.7371 62.4561 36.6406 62.8176 42.0411ZM57.1233 32.6335C50.4875 26.9768 39.2721 30.7127 36.312 37.8532C35.1732 40.4212 34.9207 43.295 35.5943 46.0222C36.268 48.7494 37.8294 51.1751 40.0329 52.9176C40.9442 48.805 43.6182 45.8072 45.4259 45.1745C45.7573 45.0013 45.4259 44.8807 44.5823 43.7434C43.4223 42.1466 42.8423 38.5839 43.1662 36.6933C43.9194 32.1062 49.6816 31.3455 51.768 33.4545C53.3648 35.0663 54.2912 39.1186 52.8451 43.073C52.6342 43.653 52.2877 44.1125 52.5136 44.0522C53.5004 43.8036 57.3568 44.8506 60.5128 49.4603C63.2244 44.8356 62.9607 37.6423 57.1233 32.6335ZM60.1362 50.0478C58.9009 48.3154 57.756 46.696 55.4964 45.5963C52.9053 44.3384 52.3931 44.5267 51.7303 45.0465C49.4706 46.8316 48.1375 46.455 46.6009 45.7997C46.1264 45.5888 45.5464 45.649 43.9722 47.0274C42.1494 48.6242 41.2229 51.027 40.5526 53.377C44.4693 56.2468 46.9022 56.0434 50.4272 55.7873C51.783 55.6894 55.4437 54.665 56.9727 53.4222C58.2176 52.483 59.297 51.3425 60.1663 50.0478H60.1362ZM47.3993 33.1984C41.8255 34.4638 43.4148 42.5608 46.2168 44.7075C53.4928 50.2587 56.2044 31.2023 47.4294 33.1984H47.3993Z" fill="black"/>
<path id="Vector_42" d="M59.4277 8.81569C59.5332 10.8946 59.6763 10.7741 59.134 11.0301C58.8779 11.1507 58.4862 11.0301 58.4561 10.7741C58.4033 10.2242 58.1849 8.68011 58.6142 8.5144C59.0436 8.3487 59.4127 8.52947 59.4277 8.81569Z" fill="black"/>
<path id="Vector_43" d="M57.8835 9.49368C57.989 10.9474 58.0869 11.0001 57.6349 11.211C57.183 11.4219 57.0248 11.1658 56.9947 10.9549C56.7989 9.69705 56.9119 9.37317 57.3487 9.30538C57.6274 9.26019 57.8684 9.26019 57.8835 9.49368Z" fill="black"/>
<path id="Vector_44" d="M56.4902 10.1501C56.4902 11.0615 56.4902 11.1293 56.3546 11.2724C56.219 11.4155 55.6014 11.5285 55.6014 11.1745V10.6849C55.6014 10.2104 55.5487 9.9995 55.8048 9.93171C56.0609 9.86392 56.4751 9.77353 56.4902 10.1501Z" fill="black"/>
<path id="Vector_45" d="M53.4927 74.421C53.4927 72.1086 56.8596 71.4533 57.3266 74.2704C57.0103 77.223 53.5078 76.7409 53.4927 74.421Z" fill="black"/>
<path id="Vector_46" d="M52.3333 137.209C52.6346 137.48 52.386 137.963 52.0546 137.789C51.8889 137.699 51.3014 136.991 51.1658 136.976C51.0303 136.961 48.3563 137.993 48.2961 135.221C48.4844 132.622 52.4086 133.534 51.904 135.695C51.6479 136.772 51.2788 136.268 52.3333 137.209ZM49.6669 136.509C50.7064 136.788 51.7006 135.936 51.2637 135.002C51.1746 134.803 51.0374 134.63 50.8645 134.497C50.6916 134.364 50.4885 134.277 50.2733 134.242C50.0578 134.207 49.8372 134.227 49.6314 134.3C49.4256 134.372 49.2411 134.494 49.0945 134.656C48.9308 134.887 48.8521 135.167 48.8719 135.449C48.8917 135.731 49.0087 135.998 49.2029 136.204C49.3325 136.34 49.4907 136.444 49.6669 136.509Z" fill="black"/>
<path id="Vector_47" d="M50.2993 8.85377C50.4876 9.60699 49.0565 9.7275 49.1845 8.95169C49.2749 8.42444 50.1411 8.26626 50.2993 8.85377Z" fill="black"/>
<path id="Vector_48" d="M48.5674 73.6451C49.0609 73.6803 49.5223 73.9023 49.8577 74.266C50.1931 74.6297 50.3771 75.1076 50.3723 75.6023C50.3675 76.097 50.1742 76.5712 49.8319 76.9283C49.4895 77.2854 49.0238 77.4985 48.5297 77.5241C45.9312 77.5618 46.1496 73.5622 48.5674 73.6451Z" fill="black"/>
<path id="Vector_49" d="M46.3302 9.0193C46.8725 8.85359 47.0306 9.44863 46.8273 9.77252C46.6239 10.0964 40.9597 10.7216 40.5455 10.7517C40.4438 10.7287 40.3529 10.6718 40.2878 10.5904C40.2227 10.509 40.1873 10.4078 40.1873 10.3035C40.1873 10.1993 40.2227 10.0981 40.2878 10.0167C40.3529 9.93523 40.4438 9.87835 40.5455 9.85537C42.1724 9.43357 45.8782 9.11722 46.3302 9.0193Z" fill="black"/>
<path id="Vector_50" d="M42.7979 78.0146C41.525 79.6265 38.9189 77.9544 39.4989 76.4254C39.5686 75.9802 39.7931 75.5738 40.1328 75.2778C40.4725 74.9817 40.9057 74.8149 41.3563 74.8067C41.7307 74.8001 42.0987 74.9036 42.4149 75.1042C42.731 75.3048 42.9813 75.5938 43.1348 75.9353C43.2883 76.2769 43.3382 76.6559 43.2783 77.0255C43.2184 77.3951 43.0514 77.739 42.7979 78.0146Z" fill="black"/>
<path id="Vector_51" d="M40.2666 138.715C40.4172 139.333 40.2666 139.702 39.5661 139.777C38.8656 139.853 38.5266 140.019 38.4438 139.461C38.2555 138.203 38.3308 138.444 37.8337 138.489C37.6002 138.489 37.7433 138.738 37.8337 139.288C37.9617 140.041 37.9918 140.079 36.5306 140.282C35.9808 140.282 35.8828 140.282 35.8452 139.793C35.687 137.458 35.092 138.497 36.862 136.222C37.5625 135.311 37.216 135.424 39.5284 136.9C40.0105 137.201 39.9427 137.345 40.2666 138.715ZM39.6037 139.22C39.8146 139.22 39.8297 139.22 39.4907 137.714C38.904 137.187 38.2741 136.711 37.6077 136.29C35.8828 138.188 36.154 137.797 36.4176 139.356C36.4176 139.431 36.4854 139.687 36.5984 139.672C37.5173 139.552 37.3516 139.582 37.1181 138.565C37.2537 138.565 36.8244 137.879 38.2178 137.812C38.5492 137.812 38.6019 137.812 38.7074 138.158C39.1593 139.574 38.6622 139.235 39.6037 139.22Z" fill="black"/>
<path id="Vector_52" d="M28.0188 14.1111C31.6569 11.5427 32.3122 10.6539 29.9169 15.5573C29.7587 15.8812 29.465 16.0394 29.3369 15.6853C28.7193 13.9379 28.9377 15.1958 27.6422 14.8643C27.2279 14.7589 27.7175 14.2919 28.0188 14.1111ZM30.4216 12.9888C29.8149 13.337 29.2468 13.7486 28.7268 14.2166C28.7268 14.2618 28.885 14.2166 28.9829 14.2542C29.2315 14.2542 29.3595 13.9153 29.6382 14.7438C29.7437 14.9849 30.6174 13.1621 30.4216 12.9888Z" fill="black"/>
<path id="Vector_53" d="M24.2835 15.3687C24.5547 15.798 23.101 15.911 22.634 15.9712C21.7376 15.8884 21.5117 15.8055 20.9317 16.0541C20.0881 16.4156 20.1785 15.5871 20.8413 15.4967C21.2841 15.3975 21.7419 15.3847 22.1896 15.4591C22.8449 15.6398 24.0274 14.9695 24.2835 15.3687Z" fill="black"/>
<path id="Vector_54" d="M24.2683 14.1798C24.547 14.933 21.0294 14.4208 20.5022 14.8426C20.1708 15.1138 19.8243 14.7371 20.3967 14.3756C21.4437 13.7128 22.0312 14.4509 23.8917 14.0141C23.9639 13.9978 24.0395 14.0051 24.1072 14.035C24.175 14.0648 24.2315 14.1155 24.2683 14.1798Z" fill="black"/>
<path id="Vector_55" d="M117.931 121.806C117.773 121.429 117.366 121.399 114.459 120.179C113.849 119.931 114.27 119.75 116.056 116.285C116.583 114.854 111.378 114.176 111.777 113.31C113.178 110.169 113.977 109.393 112.982 109.031C111.988 108.67 113.216 108.941 109.495 107.337C109.277 107.246 109.329 107.337 110.143 105.499C111.416 102.607 111.378 103.443 109.721 99.2547C109.111 97.7483 109.013 97.7935 109.247 97.6052C124.409 85.3579 108.719 59.5 88.5858 71.7021C88.4125 71.8 82.1006 30.3882 80.6394 23.8879C77.0013 7.60338 79.6074 2.14256 66.622 4.16871C66.5391 4.16871 48.0703 5.9463 26.4078 9.76511C9.60353 12.7177 8.33059 13.9605 9.26458 23.2401C9.79183 28.4147 10.771 31.8193 10.2362 32.1356C9.13654 32.5574 9.35497 33.8002 9.48302 34.9376C11.0648 46.3187 10.4019 45.5579 12.0289 46.1229C12.3226 46.2208 12.2097 46.2283 12.4055 47.8854C12.4808 48.4804 12.4959 48.4202 12.6616 49.776C12.7218 50.2881 12.1494 49.9793 11.8556 50.5819C11.6654 50.9176 11.6013 51.3103 11.6749 51.6891C13.3244 64.2076 13.1813 63.6201 14.2207 64.0268C14.6802 64.2151 24.5699 136.14 26.6789 141.932C27.9368 145.389 32.0418 146.918 35.2053 146.858C56.0619 146.466 89.1959 138.708 89.211 138.708C99.2513 134.942 96.6603 136.343 92.4272 101.303C92.3217 100.4 92.2765 100.332 92.4649 100.4C97.3457 102.253 98.8521 100.724 99.2438 101.906C100.2 104.768 108.757 127.696 108.757 127.711C108.968 128.419 113.615 129.76 114.346 129.813C114.64 129.813 115.001 130.227 115.528 129.609C116.464 128.328 117.315 126.987 118.074 125.595C119.189 124.57 118.338 122.83 117.931 121.806ZM54.902 6.63926C54.9419 6.48131 55.0288 6.33918 55.1512 6.23161C55.2735 6.12404 55.4256 6.05607 55.5874 6.03669C60.9729 5.28347 69.3712 4.48506 70.6517 4.40974C77.9278 4.0482 76.8657 8.11556 80.3381 25.9442C82.4395 36.7453 87.7798 71.8904 87.8175 71.9356C88.0209 72.4026 86.8383 73.1784 86.6952 73.2236C86.6952 73.1483 77.6566 14.8644 75.8414 9.29811C75.2011 4.93699 70.5312 5.25334 66.6672 5.63748C54.8116 6.82756 54.7513 7.07613 54.902 6.63926ZM67.3074 6.06682C76.6624 5.05751 74.1617 6.88782 79.1254 29.7329C79.261 30.358 86.3864 73.5399 86.0776 73.8789C83.2021 77.1112 81.6927 81.3329 81.8669 85.6556C82.0411 89.9783 83.8853 94.0649 87.0116 97.0553C88.7063 98.6898 89.6102 98.6748 89.6704 99.315C91.5535 120.405 93.09 120.94 91.5761 120.94C87.9907 120.94 30.7915 131.538 30.8292 130.084C30.8292 129.768 19.6288 57.391 16.164 26.2304C14.5898 12.1453 14.04 14.1036 33.5332 10.5259C34.6404 10.315 33.6537 10.5259 35.7929 12.6047C36.7796 13.5839 37.7813 13.4182 39.4535 13.2902C43.1367 13.0115 52.1904 11.4598 52.695 11.3318C54.2015 10.8121 54.2015 9.01942 54.6534 7.88207C54.917 7.18158 57.8696 7.15145 67.2848 6.06682H67.3074ZM92.3443 121.482C94.9203 139.092 96.0502 134.219 61.2817 141.751C61.1988 141.751 41.6981 144.854 36.998 144.229C34.6932 143.92 33.0361 141.216 32.5766 139.055C31.5598 134.264 30.6559 131.025 31.3564 131.025C32.7574 131.04 92.3368 121.407 92.3443 121.482ZM35.0246 8.81605C36.3352 8.81605 54.2241 6.24006 54.2467 6.27772C54.3747 6.48862 54.1261 7.18911 54.0584 7.38494C53.3805 9.23032 54.435 11.151 49.4788 11.3243C38.1354 12.8985 36.87 13.5011 35.6723 11.6933C33.5407 8.49217 33.1943 9.22279 35.0246 8.81605ZM10.0856 35.1259C9.98767 34.3727 9.68638 33.0094 10.3944 32.8662C10.8237 32.8662 12.2398 45.3998 12.2398 45.4224C11.2154 45.927 11.4338 45.6107 10.0856 35.1259ZM11.0346 32.5122C11.6899 32.0528 11.8782 33.9057 11.9536 34.6438C13.1813 44.1494 13.5052 45.0081 12.8951 45.3847C12.8122 45.4299 11.0196 32.5198 11.0346 32.5122ZM13.7839 62.6861C11.9008 50.9434 12.1042 50.9284 12.6842 50.8681C13.0759 50.8154 14.4618 63.1229 14.4618 63.138C14.4844 63.4167 13.9421 63.6427 13.8065 62.6861H13.7839ZM13.3094 50.499C14.0626 50.1902 14.1605 52.1411 14.3036 53.2784C17.2863 77.4868 13.0533 50.6045 13.3094 50.499ZM26.8672 140.885C25.8353 136.441 14.1605 64.2754 15.1397 63.8686C16.857 63.1681 15.7046 61.7596 14.6727 51.885C14.4316 50.4915 14.4919 50.1752 13.9722 49.9793C13.332 49.7308 13.347 50.0546 13.219 49.5726C13.0189 48.5317 12.8756 47.4806 12.7896 46.4241C12.5938 45.5278 13.9722 46.635 13.7312 43.9009C13.6634 43.0874 12.6691 35.2389 12.3 33.1675C12.2172 32.6629 12.1193 32.0528 11.4037 31.8871C11.0572 31.9247 11.0798 32.211 10.5902 28.5805C9.08381 17.6362 8.43605 16.175 13.6031 13.5161C13.7236 13.4559 14.153 13.245 14.2207 13.3655C14.6049 14.0283 12.0741 13.3128 13.3621 22.6677C13.3621 22.7581 16.5557 53.2483 20.9997 81.2152C31.2962 146.609 29.0591 141.759 34.2111 146.029C34.6404 146.346 28.1176 146.06 26.8823 140.877L26.8672 140.885ZM92.5176 107.043C95.4325 134.437 99.2965 135.53 87.6744 138.339C70.712 142.422 45.9161 145.871 42.0973 145.977C39.1899 146.082 31.7933 148.018 30.5429 139.198C30.2793 137.322 14.2433 35.4648 13.4901 18.3066C13.2491 12.9211 15.9531 12.0925 21.4516 11.1736C31.2434 9.54667 33.6085 8.74073 33.5031 9.8329C33.5031 10.1116 22.6342 11.5427 18.5216 12.9663C15.682 13.9455 14.974 15.9791 14.974 18.992C14.974 26.5242 27.0254 113.438 29.2851 123.305C30.7312 129.647 30.6936 144.817 37.2692 144.892C52.3787 145.073 88.2468 137.646 91.689 135.605C96.8034 132.592 92.5552 126.047 90.3107 99.7744C90.273 99.3602 90.4462 99.556 91.5384 100.121C91.8547 100.279 92.4724 106.486 92.5326 107.035L92.5176 107.043ZM83.2681 90.186C80.8578 83.151 85.0457 75.9427 85.234 75.8749C88.5707 70.8434 96.3816 67.7402 101.684 69.3746C111.386 72.3875 115.122 78.6392 114.647 85.7571C113.382 103.782 88.6084 105.665 83.2831 90.1785L83.2681 90.186ZM115.543 128.449C114.941 129.647 115.016 129.459 110.361 127.869C108.682 127.297 109.382 126.438 108.388 124.804C108.071 124.277 100.585 103.465 100.261 102.75C100.005 102.207 103.982 102.509 108.629 98.6973C108.787 98.5618 108.689 98.5166 109.593 100.799C110.497 103.081 110.632 102.983 110.346 103.654C108.764 107.299 107.981 107.42 110 108.301C113.419 109.807 112.93 109.446 111.928 111.502C110.422 114.681 110.685 113.694 115.227 115.931C115.536 116.082 115.536 115.871 114.474 117.889C113.043 120.571 112.967 120.262 115.626 121.399C117.208 122.077 117.298 121.934 117.411 122.333C118.428 125.768 118.391 122.755 115.558 128.442L115.543 128.449Z" fill="black"/>
</g>
</g>
</g>
</svg>
