<svg width="151" height="151" viewBox="0 0 151 151" fill="none" xmlns="http://www.w3.org/2000/svg">
<g id="I-Have-A-Question-1--Streamline-Bruxelles">
<g id="I-Have-A-Question-1--Streamline-Bruxelles.svg">
<g id="phone">
<path id="vector" d="M15.9251 61.5545C18.4777 69.3992 32.6736 116.59 34.9875 123.469C41.4011 142.532 39.1114 149.207 66.6497 144.008C71.5735 143.079 87.6953 140.464 97.3907 137.256C100.64 136.182 100.655 136.452 103.58 133.979C106.989 131.097 105.73 124.392 104.536 120.482C103.443 116.898 73.873 26.6497 70.049 14.0175C68.2186 7.97143 64.738 6.25635 59.8595 5.49862C53.079 4.44411 28.6853 6.64351 21.9192 7.79367C-6.5569 12.6451 4.11919 25.2608 15.9236 61.5537L15.9251 61.5545Z" fill="#D5EBFF"/>
<path id="vector_2" d="M26.8549 59.493C27.111 60.5566 37.6221 93.6152 49.0318 131.449C49.7685 133.331 50.96 135.874 52.1275 137.64C54.0663 140.571 56.5745 139.957 69.3641 137.287C71.095 136.927 85.3956 132.842 86.951 132.557C89.2942 132.128 94.2105 130.775 98.5603 129.092C99.4446 128.75 99.9967 127.546 99.8295 126.717C96.7179 111.205 93.0814 104.811 91.9132 101.161C90.6673 97.2766 89.3402 93.4187 87.836 89.6089C83.2813 78.0794 77.1539 55.9416 70.8736 35.7863C64.7371 16.0837 63.3843 10.839 59.2793 10.3766C57.5236 10.1777 53.7944 10.3035 53.6151 10.2914C51.073 10.1257 52.2368 11.7195 50.7883 13.1815C49.8829 14.0944 49.9131 14.5998 46.4596 14.9975C46.3684 15.0081 33.5261 16.4302 33.441 16.4143C31.1859 15.9925 28.7891 15.9654 27.4605 14.0304C26.6636 12.8742 26.8247 12.9044 20.6966 13.879C19.5359 14.0628 18.4294 14.4432 17.2544 14.5727C9.39682 15.4472 25.2535 52.876 26.8541 59.4923V59.493H26.8549Z" fill="white"/>
<path id="vector_3" d="M5.78703 17.5805C6.79032 15.8978 8.99573 13.3519 10.4125 13.0913C10.1225 16.2172 7.91562 16.6262 11.934 30.0236C13.5361 35.3639 12.4176 29.9182 41.4752 126.43C44.0225 134.892 44.2259 133.494 44.9852 135.716C45.999 138.683 47.9664 141.96 50.9446 143.902C48.3995 144.432 42.7556 142.658 41.4209 138.562C28.7872 99.7812 27.1723 93.8406 27.1723 93.8406C6.90104 27.5463 2.80128 22.5841 5.78703 17.5797V17.5805Z" fill="#99BBEE"/>
<path id="vector_4" d="M15.9245 61.5542C18.4764 69.4004 32.6722 116.589 34.9869 123.469C41.4013 142.531 39.1107 149.205 66.6491 144.007C71.5728 143.078 87.6954 140.463 97.3901 137.256C104.487 134.908 108.294 131.331 104.912 120.255C104.339 118.378 71.4712 14.8879 69.2356 11.2875C63.6724 2.32576 55.7304 4.79782 34.2487 6.23947C-9.96508 9.20714 3.45422 23.2147 15.9245 61.5534V61.5542ZM44.6356 131.115C44.8352 131.224 16.5707 41.3378 13.4328 31.6387C11.7275 26.3677 8.64915 15.3496 13.594 11.341C16.5692 8.92921 44.0044 6.95804 46.8297 6.8202C60.3944 6.15812 66.8472 4.2314 71.5156 22.8961C72.0368 24.9787 99.6151 105.853 103.34 121.57C105.363 130.11 103.31 133.139 99.1481 135.013C92.696 137.917 79.7038 140.366 63.1835 143.204C54.1562 144.754 50.1853 145.89 44.6363 131.115H44.6356ZM5.78693 17.5791C6.79022 15.8972 8.99563 13.3513 10.4117 13.09C10.1224 16.2166 7.20976 16.8576 11.2282 30.2558C12.254 33.6739 31.0212 91.7084 41.4751 126.429C44.0224 134.89 44.2258 133.492 44.9851 135.714C45.9989 138.681 47.9663 141.958 50.9445 143.901C48.3986 144.431 42.7555 142.657 41.4208 138.561C28.7871 99.7799 27.1722 93.8393 27.1722 93.8393C6.90094 27.5457 2.80118 22.5835 5.78693 17.5791Z" fill="black"/>
<path id="vector_5" d="M38.1191 100.388C47.1969 129.993 49.6539 141.748 55.77 141.163C60.9597 140.666 69.285 138.961 72.5215 138.096C97.4703 131.426 100.739 130.781 101.206 128.302C101.566 126.388 98.7982 115.367 98.5753 114.594C98.3463 113.802 87.1814 83.3985 86.636 81.7602C77.7406 55.0241 80.5312 59.401 71.8203 33.8127C65.1468 14.2088 66.2608 7.31459 53.4192 8.78788C52.6457 8.87676 52.0325 8.47454 51.4872 8.96564C49.7661 10.515 50.9343 12.7272 47.0688 13.3463C46.5958 13.4224 36.7987 14.4701 36.7792 14.4724C26.668 15.7175 29.1084 11.147 26.2552 11.5477C18.1318 12.688 14.316 12.56 13.8317 16.2651C12.5941 25.7255 17.3334 32.597 38.1199 100.389L38.1191 100.388ZM26.8533 59.4921C25.2542 52.8759 9.39749 15.4463 17.255 14.5726C18.4301 14.4415 19.5365 14.0627 20.6965 13.8796C26.8246 12.9057 26.665 12.8733 27.4604 14.0303C28.7898 15.9645 31.1865 15.9916 33.4409 16.4142C33.526 16.43 46.3691 15.0079 46.4595 14.9981C49.913 14.5997 49.8829 14.0943 50.7882 13.1814C52.2389 11.7202 51.0729 10.1256 53.6158 10.2913C53.7054 10.2973 57.653 10.1934 59.2792 10.3764C63.3835 10.8396 64.7363 16.0828 70.8742 35.7862C77.153 55.9422 83.282 78.08 87.8359 89.6087C89.3408 93.4193 90.6688 97.278 91.9131 101.161C93.0828 104.811 96.7178 111.206 99.8294 126.717C99.9958 127.546 99.4445 128.75 98.5602 129.092C94.2096 130.776 89.2956 132.128 86.9509 132.557C85.3955 132.843 71.0957 136.925 69.3633 137.287C56.5752 139.956 54.067 140.572 52.1282 137.64C50.96 135.874 49.7684 133.33 49.0317 131.449C37.6672 93.7672 27.0868 60.451 26.8548 59.4929H26.854L26.8533 59.4921Z" fill="black"/>
<path id="vector_6" d="M35.4363 11.5191C35.4717 13.116 37.8798 13.2124 37.8218 11.6487C37.7449 9.57735 35.4092 10.2861 35.4363 11.5191Z" fill="black"/>
<path id="vector_7" d="M42.5995 11.1491C42.598 9.59752 40.7601 10.0088 40.7744 11.0384C40.7955 12.5644 42.6002 12.3189 42.5995 11.1491Z" fill="black"/>
</g>
<path id="wave" d="M53.2076 88.9054C57.0641 45.1421 55.2059 57.6289 65.7638 77.0897C66.1253 77.7571 66.3633 78.4945 66.8883 79.1814C69.0681 73.1949 68.2418 71.4112 69.4967 71.1747C70.1836 71.0452 70.1784 71.1943 72.9871 76.0262C73.1551 76.3154 73.2854 76.3945 73.6213 76.2529C76.0964 75.209 78.7937 75.035 81.3531 74.3119C81.6837 74.2185 82.1304 74.1401 82.2441 74.6501C82.4611 75.624 77.8566 75.8266 73.4842 77.5469C72.798 77.8166 72.3604 77.6486 72.0704 76.9557C71.5206 75.6428 70.5256 74.5928 69.8658 73.118C69.3732 75.0937 69.3958 76.4013 67.9262 80.0634C66.7655 82.9558 65.0414 78.45 63.7821 76.1339C56.3297 62.4435 57.6019 57.1483 56.4939 66.8332C54.1153 87.6287 55.2029 91.1651 53.576 91.4287C52.8808 91.5417 52.6646 91.0144 52.4341 90.5603C47.0124 79.8849 49.8694 85.7367 45.4857 75.6315C44.3897 79.0526 46.1221 83.6292 43.2562 84.579C38.6066 86.1193 38.1403 86.5599 37.9008 85.7111C37.7388 85.1394 37.8458 85.006 42.4261 83.5832C44.6571 82.8903 43.049 79.0074 44.3679 74.052C44.5201 73.4788 44.4229 72.9101 45.2657 72.7761C46.391 72.5976 50.484 85.873 53.2099 88.9047L53.2076 88.9054Z" fill="black"/>
<path id="box" d="M65.199 28.3589C62.968 20.0554 63.0117 20.6445 61.1828 20.9262C46.1908 23.2363 42.5769 23.8516 38.67 24.647C23.29 27.7782 22.9082 27.2125 23.4399 29.1264C24.6466 33.4649 26.1801 37.704 27.377 42.0463C27.9713 44.202 27.7792 44.4905 30.6121 43.964L66.3793 37.0804C67.1634 36.9335 67.2862 36.1261 65.199 28.3589ZM30.008 42.8493C28.964 43.0993 28.8804 43.0293 28.6258 42.0207C25.5407 29.8066 23.5401 28.9012 25.2243 28.5781C26.4249 28.3476 61.9067 21.366 62.275 22.532C62.8813 24.452 63.8741 28.2964 65.8543 35.998C60.3814 36.6164 31.7223 42.438 30.008 42.8493Z" fill="black"/>
<g id="microphone">
<path id="vector_8" d="M85.8979 114.623C85.6539 107.708 79.6138 102.818 73.2341 103.291C66.6096 103.782 61.6624 109.495 62.195 116.103C62.7079 122.473 68.519 127.545 75.3183 126.852C81.3267 126.241 86.1179 120.853 85.8979 114.623Z" fill="#C0F4E0"/>
<path id="vector_9" d="M70.6527 110.115C70.8712 113.815 74.3209 117.691 75.4989 114.26C76.097 112.52 75.3656 109.277 73.2588 107.823C71.5792 106.664 70.551 108.406 70.6527 110.115Z" fill="#6ED0AC"/>
<path id="vector_10" d="M87.1767 115.201C87.1601 122.581 81.0786 128.114 74.3004 128.25C67.0959 128.395 60.9308 122.712 60.8894 114.952C60.8502 107.604 66.8127 101.774 74.2598 101.884C81.7196 101.994 87.1925 108.008 87.1767 115.201ZM85.8969 114.623C85.6529 107.707 79.6129 102.818 73.2331 103.291C66.6086 103.782 61.6615 109.495 62.194 116.102C62.7069 122.473 68.518 127.544 75.3173 126.852C81.3257 126.24 86.1169 120.853 85.8969 114.623Z" fill="black"/>
<path id="vector_11" d="M76.7159 119.061C76.2925 119.242 76.2097 119.368 76.3844 119.799C77.1663 121.725 76.7761 122.266 77.5135 122.031C78.1643 121.824 78.7797 121.582 78.9265 122.177C79.1194 122.961 79.1156 122.899 75.2456 124.096C74.5119 124.322 74.2943 123.047 74.8961 122.762C75.2335 122.602 75.8052 122.708 75.8813 122.308C75.9468 121.966 75.6696 121.561 75.5506 121.182C75.0912 119.717 75.0957 119.763 73.6307 119.872C67.3978 120.339 65.0033 114.058 66.4149 113.752C66.7794 113.673 66.8864 114.003 66.9391 114.248C67.5342 117.023 70.7429 119.045 74.2988 118.552C77.8043 118.066 80.5121 114.453 79.2504 111.333C79.0968 110.951 78.852 110.469 79.3973 110.239C80.9527 109.581 82.3288 116.657 76.7166 119.06L76.7159 119.061Z" fill="black"/>
<path id="vector_12" d="M76.878 112.825C77.04 116.49 74.3849 117.692 72.3911 116.28C68.0594 113.211 68.7192 104.414 73.2875 106.41C75.706 107.467 76.9677 110.904 76.878 112.825ZM70.6512 110.115C70.8696 113.815 74.3201 117.691 75.4982 114.26C76.0962 112.52 75.3648 109.277 73.2581 107.823C71.5784 106.664 70.5503 108.405 70.6512 110.115Z" fill="black"/>
</g>
<g id="bubble">
<path id="vector_13" d="M106.19 18.9593C96.4926 18.8712 92.5834 18.8313 86.7844 19.519C82.0519 20.0801 71.4941 21.6694 71.2282 23.3679C70.2882 29.3447 68.5874 54.7168 74.2862 56.5057C76.5617 57.2212 78.9163 57.6852 81.3333 57.6566C139.152 56.9802 124.922 50.623 144.078 62.7491C146.261 64.1312 140.193 56.0741 136.711 46.7658C133.43 37.9984 135.933 33.4874 133.022 25.8889C132.221 23.7972 130.477 22.5793 128.734 21.3779C124.812 18.6754 119.171 19.0738 106.19 18.9578V18.9586V18.9593Z" fill="#FFF5D4"/>
<path id="vector_14" d="M69.4919 24.1587C67.0906 26.639 65.9103 28.8527 65.8825 34.3422C65.8553 39.617 66.3826 51.0184 67.6713 57.0893C68.6475 61.6892 72.3978 61.9626 79.475 61.9935C85.7591 62.0214 95.1976 61.4904 101.095 60.9428C136.906 57.6218 132.907 61.8926 145.141 65.2233C145.663 65.3046 145.683 64.8911 145.419 64.7488C127.99 55.3637 137.542 55.775 111.765 57.6964C103.674 58.2997 105.029 58.0248 84.0734 58.7343C80.8195 58.8443 77.6115 58.6387 74.4646 57.7017C72.5198 57.1225 71.2024 55.9866 70.6571 54.0087C67.541 42.7051 69.4971 24.1399 69.4919 24.1587Z" fill="#FACD9A"/>
<path id="vector_15" d="M125.937 18.743C127.523 19.0074 133.812 21.8071 135.355 28.6712C136.125 32.0953 135.799 35.5307 136.23 37.6329C135.789 38.1105 137.609 46.6798 138.473 47.549C139.518 50.7758 144.054 57.8094 146.815 64.3028C147.317 66.3938 146.157 66.7719 144.53 66.1934C137.795 63.7967 133.971 62.288 133.914 62.2706C130.148 61.1521 124.094 60.3831 111.251 61.3111C65.0657 64.6493 66.432 66.0111 65.0709 46.0162C64.1189 32.0366 64.5226 28.1055 67.7208 24.1828C69.8471 21.5751 73.5205 20.1711 77.4056 19.3712C89.0323 16.9767 121.573 17.2886 125.936 18.743H125.937ZM69.4923 24.1594C67.0911 26.6398 65.9108 28.8535 65.8829 34.3429C65.8558 39.6177 66.383 51.0191 67.6718 57.09C68.648 61.6899 72.3982 61.9633 79.4755 61.9942C85.7595 62.0221 95.1981 61.4911 101.096 60.9435C137.596 57.5585 133.239 61.8398 144.984 65.1487C145.407 65.2677 145.832 65.0221 145.033 64.6109C142.96 63.5451 140.655 62.0424 138.726 60.8523C130.118 55.5467 133.361 56.086 111.767 57.6964C103.676 58.2989 105.03 58.024 84.0746 58.7335C80.8207 58.8435 77.6127 58.6379 74.4658 57.7016C72.521 57.1217 71.2036 55.9858 70.6583 54.0079C67.5422 42.7044 69.4976 24.1391 69.4923 24.1579V24.1594ZM106.191 18.9585C96.4929 18.8711 92.5837 18.8312 86.7847 19.5189C82.0522 20.08 71.4944 21.6693 71.2285 23.3678C70.2885 29.3446 68.5877 54.7166 74.2865 56.5055C76.562 57.2211 78.9166 57.6851 81.3336 57.6564C139.152 56.9801 124.922 50.6229 144.078 62.7489C146.262 64.1311 140.194 56.0739 136.711 46.7657C133.43 37.9983 135.934 33.4872 133.022 25.8888C132.221 23.7971 130.477 22.5792 128.734 21.3778C124.812 18.6753 119.171 19.0737 106.191 18.9577V18.9585Z" fill="black"/>
</g>
<g id="question">
<path id="vector_16" d="M98.2004 38.1689C98.1642 40.3864 100.132 39.9811 105.212 40.2357C106.215 40.2862 106.337 39.9917 106.497 35.5982C106.713 29.6598 109.712 29.0949 111.355 23.2869C112.374 19.6827 112.833 16.0846 110.454 12.8812C106.719 7.8497 101.997 6.048 96.1215 6.99028C90.6035 7.87531 87.9348 12.0865 85.4025 16.4077C84.7382 17.5413 86.6152 17.344 89.2424 18.7698C90.8716 19.6541 90.9379 19.74 91.658 18.0761C92.9497 15.0919 96.4273 12.6032 100.62 14.1993C104.812 15.7961 103.765 22.1909 100.828 25.5443C97.7394 29.0685 98.3164 31.0706 98.1996 38.1682H98.2004V38.1689Z" fill="#FF8088"/>
<path id="vector_17" d="M101.235 52.9185C102.837 52.917 104.198 51.6259 104.194 50.112C104.191 48.708 102.909 47.3507 101.562 47.3236C99.9319 47.2912 98.451 48.6387 98.4676 50.1406C98.4834 51.5612 99.837 52.92 101.235 52.9185Z" fill="#FF8088"/>
<path id="vector_18" d="M99.4975 4.95576C105.037 4.58292 114.575 10.449 113.883 19.526C113.091 29.9106 108.186 29.0911 108.2 37.2974C108.205 39.8048 107.979 42.3198 105.474 42.2136C99.5427 41.9635 96.5923 42.1029 96.4907 38.7413C96.2677 31.3861 96.2391 28.0177 98.7465 25.0953C101.437 21.9596 102.992 17.0404 100.01 15.973C96.7385 14.8026 94.5105 16.2992 93.0439 19.4175C91.6347 22.4146 91.3778 21.6839 84.8625 18.9309C83.1286 18.1981 83.576 16.1267 83.9421 15.4654C87.6984 8.68342 91.3018 4.77574 99.4975 4.95576ZM98.2005 38.1688C98.1643 40.3863 100.132 39.9811 105.212 40.2356C106.215 40.2861 106.337 39.9916 106.497 35.5981C106.713 29.6597 109.712 29.0948 111.355 23.2868C112.374 19.6826 112.833 16.0845 110.454 12.8811C106.719 7.84961 101.997 6.04792 96.1216 6.99019C90.6035 7.87522 87.9349 12.0865 85.4026 16.4077C84.7382 17.5412 86.6152 17.3439 89.2425 18.7697C90.8717 19.654 90.938 19.7399 91.658 18.076C92.9498 15.0918 96.4274 12.6032 100.62 14.1992C104.812 15.796 103.765 22.1908 100.828 25.5442C97.7395 29.0685 98.3165 31.0705 98.1997 38.1681H98.2005V38.1688Z" fill="black"/>
<path id="vector_19" d="M105.945 50.0748C106.031 56.2715 96.7728 56.4485 96.7268 50.1312C96.6832 44.0972 105.857 43.7493 105.945 50.0755V50.0748ZM101.236 52.9189C102.838 52.9174 104.199 51.6264 104.196 50.1124C104.192 48.7084 102.911 47.3511 101.563 47.324C99.9333 47.2916 98.4525 48.6391 98.469 50.141C98.4848 51.5616 99.8384 52.9204 101.236 52.9189Z" fill="black"/>
</g>
</g>
</g>
</svg>
