<svg width="151" height="151" viewBox="0 0 151 151" fill="none" xmlns="http://www.w3.org/2000/svg">
<g id="Interface-Delete--Streamline-Bruxelles">
<path id="Vector" d="M137.281 145.982C137.281 145.982 127.866 128.983 126.106 125.219C124.345 121.454 120.576 113.811 120.515 111.928C120.453 110.045 120.573 106.634 120.221 104.87C119.868 103.105 118.221 94.5174 116.75 90.2828C115.279 86.0483 116.162 85.1655 114.103 79.2241C112.045 73.2828 109.398 68.9902 107.222 66.5784C105.046 64.1666 102.401 61.5785 101.516 58.9317C100.631 56.2849 97.8111 52.8149 96.5171 51.7551C95.2231 50.6953 90.6352 47.8143 88.8117 46.4027C88.8117 46.4027 85.3469 42.0785 83.8563 42.5553C82.3657 43.0321 78.5785 34.5042 78.5785 34.5042C77.8335 34.112 76.9804 33.9755 76.1502 34.1155C75.3201 34.2556 74.559 34.6644 73.9839 35.2792C71.8063 37.456 71.4192 40.853 72.6718 45.1464C73.9244 49.4397 76.7565 53.4958 77.9202 54.4795C79.0839 55.4632 83.5264 60.1459 84.8678 61.2494C86.2093 62.3528 89.58 67.8694 88.2679 71.179L57.4455 115.852C57.451 116.428 57.5972 116.993 57.8713 117.499C58.1455 118.005 58.5392 118.436 59.0182 118.754C60.7506 120.125 65.7505 122.302 66.7583 122.826C67.7661 123.351 71.7973 126.858 74.7424 127.462C77.6874 128.067 81.4754 130.083 82.8018 130.244C84.1282 130.405 82.9215 130.607 83.2454 131.454C83.4385 131.959 83.8116 132.376 84.2931 132.623C88.6309 145.851 87.8687 142.973 89.0105 146.532C89.0105 146.532 100.862 146.854 103.924 146.37C109.805 145.446 134.628 147.493 137.281 145.982Z" fill="#FFD1BA"/>
<path id="Vector_2" d="M87.8664 87.4575C89.0135 90.4861 89.6643 89.6154 83.0511 92.5387C81.8926 93.0508 80.5248 93.4282 78.9212 94.2598C78.8172 94.3132 79.0176 94.253 74.9291 96.0004C72.8457 96.8907 73.0077 97.1077 72.021 94.9256C70.4964 91.5535 69.5127 89.8037 69.2469 88.7809C69.9586 87.645 76.6713 84.9395 84.437 81.8422C85.7988 81.2984 85.6911 81.7097 87.8664 87.4575ZM82.862 91.4412C83.5828 89.8647 83.8962 90.0915 80.0299 88.6114C80.2553 87.8522 80.5247 87.1068 80.8366 86.3789C81.3096 85.0743 80.9918 85.1082 80.5737 84.9206C79.4326 84.4077 79.4567 84.77 78.3525 87.9832C76.5598 87.5765 75.183 86.3163 74.8169 87.117C74.1947 88.4773 73.9597 88.3063 77.8117 89.6026C76.9749 93.1759 75.9339 93.0117 77.6844 93.5871C78.3322 93.8003 78.3623 93.6542 79.4055 90.2542C81.8926 91.3019 82.2233 91.5083 82.862 91.4405V91.4412Z" fill="#FF9C9F"/>
<path id="Vector_3" d="M69.3113 98.1295C69.3176 98.2371 69.2957 98.3445 69.2477 98.4411C69.1998 98.5377 69.1274 98.62 69.0378 98.6801C67.9427 99.4084 60.165 102.886 59.2347 103.257C53.209 105.661 53.1713 105.761 52.7571 104.777C49.6282 97.3951 49.635 97.1744 50.5065 96.7812C59.9172 92.5346 54.8947 94.9147 60.7103 92.3033C65.6423 90.0881 65.4556 90.0309 66.0709 91.0756C66.077 91.0914 69.1697 97.7024 69.3113 98.1295ZM64.0824 97.4772C65.0571 96.2088 65.5083 96.4611 65.1249 95.5512C64.4071 95.2401 64.1457 95.7704 63.0912 96.8919C62.7824 97.1074 62.5572 96.5854 62.1504 96.4144C60.5687 95.7531 60.418 98.9204 59.2732 98.9573C59.2501 98.8486 59.202 98.7469 59.1326 98.6603C59.0631 98.5736 58.9744 98.5044 58.8734 98.4582C58.7725 98.412 58.6621 98.3901 58.5511 98.3942C58.4402 98.3983 58.3317 98.4284 58.2345 98.482C57.8985 99.0198 57.8398 99.8084 57.1453 100.169C56.5488 99.9764 57.07 99.19 56.4358 98.9994C55.968 99.0665 55.9929 98.9701 55.8091 99.4657C55.6731 100.053 55.4189 100.607 55.0619 101.093C54.0458 102.064 52.9687 100.206 54.0157 98.3893C54.1096 98.4865 54.2084 98.5787 54.3117 98.6658C54.3517 98.7033 54.4002 98.7308 54.453 98.7458C54.5058 98.7608 54.5614 98.763 54.6152 98.7522C54.669 98.7413 54.7194 98.7178 54.7623 98.6835C54.8052 98.6492 54.8392 98.6052 54.8616 98.555C55.3436 97.4252 53.3747 96.9424 52.8957 98.3487C52.5364 99.4032 52.5846 101.322 53.4267 102.022C53.6371 102.172 53.8768 102.276 54.13 102.327C54.3833 102.378 54.6445 102.375 54.8965 102.318C55.1485 102.261 55.3857 102.152 55.5925 101.997C55.7994 101.842 55.9712 101.645 56.0968 101.42C56.1865 101.269 56.2708 101.118 56.3559 100.963C57.2651 101.469 57.8752 101.202 58.776 99.938C60.345 100.478 60.9852 98.8518 61.7429 97.4832C61.8258 97.5309 61.9044 97.5856 61.9779 97.6467C62.116 97.796 62.2861 97.912 62.4755 97.986C62.665 98.0599 62.8687 98.0899 63.0714 98.0735C63.2741 98.0572 63.4704 97.995 63.6456 97.8917C63.8207 97.7884 63.9701 97.6467 64.0824 97.4772Z" fill="#D4F2E2"/>
<path id="Vector_4" d="M83.4476 42.1048C83.3508 42.1929 83.2436 42.2688 83.1283 42.3308C81.9088 42.739 81.3492 43.6504 80.7745 44.1046C79.5023 45.1086 76.796 38.396 77.3157 36.6703C77.562 35.8501 78.3981 34.7316 79.2462 34.8528C80.5124 35.0321 80.077 35.5044 83.4476 42.1048Z" fill="#FFF0E9"/>
<path id="Vector_5" d="M51.8001 11.5246C51.4503 10.9276 51.1693 10.2929 50.9626 9.63254C52.4048 8.89514 53.9219 8.31436 55.4879 7.90015C55.8052 8.30237 56.0404 8.76303 56.1801 9.25594C56.4354 9.9022 56.3947 9.83215 53.8037 10.8573C53.1673 11.1649 52.4939 11.3892 51.8001 11.5246ZM51.5531 9.97601C51.5445 10.184 51.5893 10.3907 51.683 10.5766C51.7767 10.7624 51.9163 10.9213 52.0886 11.038C54.6691 9.98806 54.6285 10.0521 54.7173 9.78168C54.7395 9.59351 54.7136 9.40279 54.6421 9.22733C54.5706 9.05188 54.4558 8.89742 54.3083 8.7784C53.3239 9.00422 52.3898 9.41026 51.5531 9.97601Z" fill="white"/>
<path id="Vector_6" d="M78.8668 56.1147C79.9785 57.2656 94.7333 92.846 94.4809 95.9952C94.2098 99.3734 91.215 100.529 64.997 111.478C58.7197 114.1 53.8991 116.609 50.8878 112.889C49.6578 111.37 49.3354 110.311 47.8139 107.056C47.606 106.61 47.8892 106.539 48.3284 104.98C49.7663 99.8577 47.6957 94.7585 42.3945 95.4499C42.2951 95.3128 47.7635 84.9177 39.8336 83.4519C38.8544 83.2712 38.9802 83.7472 39.1971 82.3846C39.5167 80.7696 39.6682 79.1259 39.6491 77.4797C39.5413 74.4254 37.6967 72.4331 36.1496 72.1424C34.4345 71.8238 34.5121 71.9963 34.1912 71.2905C32.8618 68.3808 15.6825 28.5395 15.9679 25.3533C16.1329 23.4989 17.0563 21.6777 19.8847 20.1313C30.1932 14.492 38.7053 11.6395 49.6563 7.48706C55.3054 5.34566 57.3798 4.49528 61.9277 13.9881C66.9479 24.4668 66.4575 25.2728 70.891 35.6212C72.8734 40.2482 71.0416 37.4711 71.849 42.2864C72.7604 47.7314 73.8632 50.9386 78.8668 56.1147ZM82.1583 93.7891C88.9553 91.0255 89.286 90.673 89.3659 89.4882C88.4354 86.7265 87.3513 84.019 86.1187 81.3783C85.6547 80.5174 85.5915 80.2862 77.3061 83.8278C73.1062 85.6235 72.5141 86.0701 71.1147 86.7013C67.3245 88.4104 68.2389 88.4691 70.8428 94.1047C73.0512 98.8846 71.123 98.2782 82.1583 93.7913V93.7891ZM72.7559 73.3189C73.8876 69.8193 73.7087 66.0276 72.2524 62.6501C70.7962 59.2726 68.162 56.5396 64.8404 54.96C67.4947 53.6954 70.8977 53.0107 71.4687 50.089C71.9801 47.4851 70.6281 45.419 67.4985 37.3596C65.0573 31.0733 65.9205 32.872 61.6671 23.1826C57.4061 13.4721 59.1536 12.9901 31.4842 25.6848C24.5908 28.8483 22.49 29.2904 22.4313 32.2942C22.3823 34.9388 32.9906 59.9456 34.1679 62.0101C35.8069 64.8852 38.0093 65.5148 39.9044 64.9108C42.6649 64.031 42.1799 63.219 41.6526 66.198C40.7186 71.4901 43.733 78.5997 47.0261 80.894C51.6538 84.12 52.456 84.3626 56.3983 84.8273C62.7201 85.5722 70.4918 81.1012 72.7559 73.3189ZM69.1676 99.4502C70.6838 98.3475 69.8365 97.5213 68.4626 94.5235C65.3179 87.6639 67.634 88.7003 56.7124 93.1729C49.8205 95.9945 49.2857 96.2551 49.2021 97.5845C49.5282 98.7897 51.6478 104.359 52.7497 106.005C53.4645 107.077 68.2901 100.089 69.1676 99.4502ZM55.9223 10.5346C56.3607 10.3674 56.8608 10.0073 56.6755 9.5471C56.0473 7.98795 56.0677 7.14886 54.7307 7.62565C49.8054 9.38215 50.0962 8.94679 51.4489 11.7525C51.6839 12.2429 52.236 11.9416 55.9223 10.5346ZM50.0585 12.6436C50.8351 12.3468 50.4743 11.9318 49.8642 10.4472C49.6826 10.0058 49.7429 10.0894 48.8609 10.3478C48.8784 10.529 48.9111 10.7084 48.9588 10.8841C49.5689 12.5509 49.6367 12.8048 50.0585 12.6443V12.6436ZM48.2674 13.2273C49.3972 12.8967 49.3023 13.204 48.3962 11.0513C47.89 11.0671 47.539 11.452 47.6806 11.8369C47.8433 12.282 48.0467 12.7121 48.2674 13.2281V13.2273ZM46.7903 13.7011C47.3017 13.6295 47.6791 13.5866 47.4682 13.0609C47.127 12.1992 47.1518 12.3483 46.9342 12.0817C46.2314 12.627 46.3165 12.5035 46.7903 13.7018V13.7011ZM35.602 15.85C39.2664 14.2216 39.5941 14.2954 39.5022 13.8337C39.5022 13.2311 39.0706 12.9087 38.5313 13.1332C37.5777 13.5316 36.6332 13.9489 35.6917 14.3745C32.7654 15.6979 32.7451 15.6549 32.6035 16.1528C32.498 16.5211 32.7247 17.1516 33.374 16.891C35.0243 16.2281 34.5204 16.3306 35.602 15.85Z" fill="#FFF5DB"/>
<path id="Vector_7" d="M94.72 89.8339C97.9152 98.1743 97.6576 100.982 85.3101 105.798C59.6706 115.797 54.9238 118.929 50.9755 117.287C47.5107 115.845 46.8622 111.116 46.1956 111.322C46.0033 110.715 46.0551 110.057 46.3402 109.488C47.3194 107.489 47.2102 107.529 47.4293 107.981C49.7191 112.698 50.7488 116.683 57.3454 115.246C60.6746 114.521 87.0975 102.804 89.7247 101.626C94.9106 99.3034 96.6912 96.7974 94.018 90.9939C91.8819 86.3623 90.6285 81.5998 89.5816 79.545C89.574 79.5299 80.9196 58.409 81.1177 58.2568C82.8885 59.8552 81.898 58.0655 85.5119 66.7162C91.3833 80.7818 93.8817 87.6451 94.72 89.8339Z" fill="#D8E9FF"/>
<path id="Vector_8" d="M70.687 30.7897C73.3722 36.3778 72.8585 35.9003 72.4036 36.9661C71.0282 34.7117 67.94 26.3782 67.1499 24.3C66.2385 21.8897 65.3625 20.3359 64.5498 18.5236C63.1601 15.4226 61.9331 12.5853 60.8666 10.779C57.0937 4.39102 54.9335 5.21654 52.0359 6.06692C46.6609 7.64416 21.3378 17.5557 17.5152 21.0145C13.6618 24.5026 15.7308 28.3501 17.6282 32.7473C17.9732 33.5458 21.6572 43.901 26.4265 54.8708C27.0042 56.201 33.3388 70.6575 33.5376 72.0758C32.9128 72.1149 32.3171 72.3539 31.8384 72.7574C31.1823 71.5289 20.8851 48.2779 14.0806 29.4927C13.3534 27.4683 13.4055 25.2457 14.2267 23.2576C14.8782 21.6645 16.4223 20.4255 17.8753 19.365C22.845 15.742 52.5744 4.92806 53.6764 4.67347C58.497 3.56173 60.7144 5.63382 65.6585 18.0054C68.8861 24.3701 69.2913 27.8853 70.687 30.7897Z" fill="#D8E9FF"/>
<path id="Vector_9" d="M72.183 64.7223C73.5433 68.2782 72.0406 74.38 69.9233 77.5112C68.2662 79.9727 64.1989 82.7927 62.1177 83.3237C60.588 83.8628 58.9754 84.1287 57.3536 84.1093C54.9284 84.0586 52.5513 83.4226 50.4248 82.2554C48.2983 81.0882 46.4853 79.4244 45.1402 77.4057C33.781 59.5944 58.8262 44.0232 70.968 61.9143C71.1247 62.144 72.0255 64.311 72.183 64.7223ZM66.2461 76.1712C68.0365 75.1875 67.2343 73.6283 66.2054 71.685C64.3292 68.1411 63.4095 66.9134 63.3304 66.0871C64.354 65.1584 64.116 65.0658 63.3304 63.6015C63.0035 62.9922 62.6329 62.7082 61.6824 63.1601C50.0369 68.7023 48.8461 69.0051 49.2882 70.0792C49.8448 71.4304 49.9917 72.1038 50.7547 72.0067C51.3716 71.9313 51.456 71.63 52.1105 73.1666C55.1836 80.3726 55.3222 81.3608 58.091 80.1542C59.3173 79.6149 64.0588 77.3718 66.2461 76.1704V76.1712ZM61.1446 62.1403C62.3347 61.5452 63.6023 61.1272 63.0525 59.9733C61.5732 56.8708 61.235 58.5919 56.5319 60.3446C55.2861 59.2396 54.3227 59.022 53.1206 59.6908C51.6488 60.5088 51.4115 61.1769 51.5689 62.7602C46.4117 65.5471 46.1458 65.3106 47.2395 67.6666C47.8111 68.9034 48.6141 68.4048 61.1446 62.1403Z" fill="#FF9C9F"/>
<path id="Vector_10" d="M63.7452 68.8635C65.7074 72.7049 67.3983 74.5646 65.9755 75.3268C62.8693 76.9922 60.2006 78.2192 57.4107 79.4944C55.9517 80.161 55.9095 79.8589 53.494 74.3657C51.9363 70.8256 52.0154 70.8143 50.7553 71.1653C50.4057 70.7588 50.1808 70.2601 50.1075 69.7289C51.3548 68.9117 61.1798 64.3013 62.0837 63.8448C62.4874 63.6414 62.5047 63.8448 63.1028 65.0424C63.1525 65.1418 62.9596 65.2548 62.7563 65.4243C62.1047 65.9696 62.3601 66.1542 63.7452 68.8635ZM63.7151 74.951C63.6669 74.7727 63.6067 74.5978 63.5351 74.4275C60.1968 66.7281 60.3588 66.7854 59.5227 67.29C59.7434 68.2233 62.4768 74.0562 62.8828 74.9246C63.099 75.3871 63.4048 75.4014 63.7151 74.951ZM60.4349 76.828C61.2905 76.4845 60.9184 76.41 59.8089 73.8347C57.2171 67.8195 57.6578 68.404 56.8654 68.4801C57.0499 69.8178 59.9656 76.2563 60.4349 76.828ZM58.1202 77.9578C58.7296 77.7078 57.7888 76.3979 56.14 72.9346C54.5884 69.6755 54.9469 69.7033 54.138 69.9617C54.2638 70.9507 54.9108 72.1332 56.7162 75.897C57.5455 77.6196 57.6389 78.1567 58.1202 77.9578Z" fill="white"/>
<path id="Vector_11" d="M61.1943 59.1278C61.8594 58.8664 62.2164 59.9028 62.4484 60.403C62.2104 60.9031 49.1375 67.1819 47.9475 67.4877C47.2334 65.7779 46.9487 66.2133 49.661 64.7309C52.0465 63.4264 52.6694 63.2998 52.463 62.3109C52.1805 60.9551 53.0723 60.5785 54.3634 60.1936C55.1279 59.9676 55.4691 60.58 55.7643 60.9144C56.4355 61.6767 57.4704 60.5928 61.1943 59.1278Z" fill="white"/>
<path id="Vector_12" d="M57.0368 43.8475C57.0995 43.9341 57.1421 44.0336 57.1615 44.1388C57.1809 44.2439 57.1767 44.3521 57.1492 44.4554C57.1216 44.5588 57.0714 44.6547 57.0022 44.7362C56.933 44.8177 56.8466 44.8828 56.7491 44.9268C56.6802 44.9645 56.6236 45.0213 56.5862 45.0904C56.5488 45.1594 56.5322 45.2378 56.5383 45.3162C56.5444 45.3945 56.5731 45.4693 56.6208 45.5318C56.6684 45.5942 56.7332 45.6415 56.8071 45.668C57.5204 45.9572 57.1784 46.2864 56.6806 46.7089C56.2927 47.0381 56.1405 46.727 56.3115 47.3981C56.3765 47.5556 56.3945 47.7285 56.3632 47.896C56.332 48.0634 56.2529 48.2182 56.1355 48.3417C56.0181 48.4651 55.8675 48.5519 55.7018 48.5915C55.5361 48.6311 55.3625 48.6218 55.202 48.5648C54.2597 48.3728 55.1786 49.4905 54.0722 49.6691C52.9657 49.8476 53.102 48.8224 52.507 49.3354C52.5048 49.801 52.3313 50.2496 52.0197 50.5955C51.5708 50.7424 51.0823 50.7078 50.6586 50.4991C50.334 50.2641 50.0673 50.3967 49.9807 50.7921C49.9697 50.9941 49.8811 51.1841 49.7335 51.3224C49.5859 51.4608 49.3906 51.5368 49.1883 51.5348C47.8649 51.7186 48.1926 50.7816 46.9053 50.9367C45.4283 51.1167 45.9186 50.7989 45.2091 49.5915C42.261 50.3793 44.7022 48.3351 42.789 46.4837C42.4297 46.1357 41.559 45.665 41.9891 44.7686C42.508 43.6878 43.8307 44.8681 43.7569 43.7232C43.7477 43.6259 43.7612 43.5278 43.7965 43.4367C43.8317 43.3455 43.8877 43.2638 43.96 43.1981C44.0322 43.1323 44.1188 43.0843 44.2129 43.0577C44.3069 43.0312 44.4058 43.027 44.5018 43.0453C44.6276 43.0581 45.2987 43.3978 45.4057 42.7206C45.6889 40.9129 46.8955 42.463 47.1381 41.6021C47.3045 41.0041 48.3432 41.462 49.2471 40.3548C49.5966 39.9277 50.1163 40.2878 50.6556 40.5363C51.1158 40.5725 51.3335 39.0299 52.33 40.0987C52.5318 40.3164 52.754 40.8173 53.1133 40.3548C53.4726 39.8923 54.3079 39.7439 54.5188 40.336C54.799 41.1253 54.6446 41.3972 55.022 41.6797C55.4445 41.9968 55.3451 42.3109 55.3986 42.7613C55.5229 43.8407 56.3544 42.8713 57.0368 43.8475Z" fill="#808080"/>
<path id="Vector_13" d="M53.4687 30.0663C52.8413 32.0728 55.1567 31.0711 54.5903 32.2657C53.7745 33.9837 53.6488 33.1183 53.1464 34.8206C52.6786 34.8627 52.4286 34.3686 52.2982 33.9724C52.0806 33.3096 52.5581 32.5715 52.1476 32.4909C51.292 32.3244 51.3153 31.5704 51.5819 31.0711C51.6454 30.9662 51.6687 30.8418 51.6475 30.721C51.6263 30.6003 51.5621 30.4913 51.4667 30.4143C51.2656 30.4461 51.0597 30.4267 50.868 30.358C50.6764 30.2893 50.5051 30.1734 50.37 30.0211C49.9761 29.6317 50.3098 29.7808 50.0476 28.3098C47.8633 29.0103 47.8776 28.6743 47.1854 27.5377C47.0529 27.5867 46.9208 27.637 46.7892 27.6884C46.0797 30.3043 45.1969 28.3738 44.7232 28.5252C44.5138 28.5922 44.4746 28.7692 44.4625 28.959C44.4005 29.3823 44.1899 29.7698 43.8684 30.052C43.5468 30.3342 43.1353 30.4928 42.7075 30.4994C42.1547 30.5498 41.9694 30.1273 41.641 29.8847C41.0218 29.4283 40.9593 30.4286 40.7801 30.9566C40.423 32.0111 39.5222 31.1479 39.2473 31.5591C39.129 31.7346 39.2036 31.9177 39.3226 32.0947C39.4134 32.2188 39.4744 32.3622 39.5009 32.5137C39.5274 32.6652 39.5187 32.8208 39.4754 32.9684C39.4322 33.116 39.3556 33.2517 39.2515 33.3649C39.1474 33.4782 39.0186 33.5659 38.8752 33.6214C38.3837 33.8214 37.8503 33.8962 37.3228 33.8391C37.2625 34.172 37.2377 34.4417 37.9013 34.517C38.4338 34.578 38.546 35.3855 38.4398 35.8668C38.3564 36.0914 38.3583 36.3388 38.445 36.5622C38.5318 36.7855 38.6974 36.9693 38.9106 37.0787C39.1775 37.2812 39.3717 37.5647 39.4639 37.8868C39.5561 38.2089 39.5414 38.5523 39.422 38.8653C39.3605 38.9578 39.3194 39.0622 39.3013 39.1718C39.2832 39.2813 39.2885 39.3934 39.317 39.5007C39.3455 39.608 39.3965 39.7081 39.4665 39.7942C39.5365 39.8804 39.6241 39.9507 39.7233 40.0004C39.9749 40.1802 40.1488 40.449 40.2096 40.7522C40.2704 41.0554 40.2137 41.3704 40.051 41.6334C39.4604 40.9887 38.7984 40.6324 37.4441 41.1144C37.0675 40.6746 38.0203 40.2452 37.4863 39.6509C37.1292 39.254 36.0333 39.2969 36.2713 38.2635C36.422 37.6067 36.5726 37.209 35.9158 37.035C35.3132 36.8746 34.905 36.7661 35.0119 36.2148C35.2123 35.21 35.5618 35.1904 33.968 34.795C33.7457 34.7169 33.5413 34.595 33.3671 34.4363C33.1929 34.2777 33.0524 34.0856 32.954 33.8715C32.8557 33.6574 32.8013 33.4257 32.7944 33.1902C32.7874 32.9547 32.8279 32.7202 32.9135 32.5007C33.8219 30.1725 36.5929 30.931 35.7004 29.8154C35.1505 29.127 35.5671 28.4378 36.3421 28.0077C37.3213 27.4647 38.0256 28.8076 38.1626 27.5309C38.2711 26.5261 38.4888 26.2573 38.8586 25.9605C39.5794 25.3828 39.9884 25.9356 40.6121 26.5292C40.7627 26.4538 40.8938 26.3891 41.0407 26.3183C41.0058 26.0714 41.0288 25.8198 41.1078 25.5833C41.1868 25.3468 41.3196 25.1319 41.4958 24.9555C41.6721 24.7792 41.8869 24.6461 42.1233 24.567C42.3597 24.4878 42.6113 24.4646 42.8582 24.4992C43.8848 24.6981 43.6521 25.7134 44.1387 25.7308C44.6832 25.7503 44.4686 24.8781 45.1856 23.9893C45.405 23.7708 45.6861 23.6248 45.991 23.571C46.2959 23.5171 46.6099 23.5579 46.8909 23.688C47.626 23.9961 46.9346 25.37 48.0094 24.8405C48.1601 23.6044 49.9309 23.3408 50.181 24.558C50.1801 24.8117 50.1498 25.0645 50.0906 25.3112C50.0797 25.3799 50.0899 25.4502 50.1199 25.5129C50.15 25.5756 50.1983 25.6277 50.2586 25.6622C50.3189 25.6968 50.3883 25.7122 50.4576 25.7064C50.5268 25.7006 50.5927 25.6739 50.6464 25.6298C50.7981 25.5117 50.9882 25.454 51.1799 25.4679C51.3716 25.4818 51.5514 25.5663 51.6844 25.7051C53.3512 27.0044 51.3703 27.7599 51.8087 28.5086C51.9254 28.7075 52.1099 28.6969 52.3216 28.6638C53.2157 28.5101 53.7459 29.179 53.4687 30.0663Z" fill="#808080"/>
<path id="Vector_14" d="M70.7226 48.7619C70.6744 52.2802 67.767 52.8202 64.5176 54.1542C63.68 54.4977 63.9082 54.3463 58.5837 53.1863C60.3417 51.3424 60.112 51.771 60.8517 49.4955C64.077 48.696 67.4144 48.4479 70.7226 48.7619Z" fill="#B8D7FF"/>
<path id="Vector_15" d="M46.7218 56.9497C47.2317 57.1877 45.7381 57.1335 42.7064 62.6824C42.4428 63.166 38.679 64.7161 37.9363 64.0277C39.2552 60.709 42.1046 58.2784 44.8915 56.1603C44.9514 56.105 45.0225 56.0632 45.1 56.0378C45.1775 56.0124 45.2596 56.004 45.3406 56.0131C45.4217 56.0223 45.4998 56.0488 45.5697 56.0908C45.6396 56.1328 45.6996 56.1894 45.7456 56.2568C45.9933 56.5813 46.3337 56.823 46.7218 56.9497Z" fill="#B8D7FF"/>
<path id="Vector_16" d="M39.2713 97.9512C40.6422 96.1239 41.5144 96.1729 42.1667 96.1187C39.953 98.7549 39.1358 101.869 39.0032 105.227C37.7069 105.224 35.9835 102.331 39.2713 97.9512Z" fill="#FFF0E9"/>
<path id="Vector_17" d="M36.268 83.9466C36.7166 83.6996 37.2442 83.6383 37.7375 83.7756C36.2198 85.0945 34.3375 88.5661 34.0084 92.0037C30.8817 92.5483 31.9754 86.57 36.268 83.9466Z" fill="#FFF0E9"/>
<path id="Vector_18" d="M30.7401 73.8369C28.9038 81.1567 29.9493 80.942 29.6374 83.7673C29.3502 83.7669 29.0667 83.7024 28.8077 83.5784C28.5486 83.4544 28.3205 83.2741 28.1401 83.0507C27.9596 82.8273 27.8313 82.5664 27.7646 82.287C27.6979 82.0077 27.6944 81.717 27.7544 81.4361C27.7762 81.2719 27.5134 75.5829 30.7401 73.8369Z" fill="#FFF0E9"/>
<path id="Vector_19" d="M42.7828 96.5796C44.3962 94.4668 50.5266 99.0584 47.0008 106.114C45.535 109.045 44.7961 110.181 45.5742 111.865C45.6224 111.969 45.9041 112.213 46.0141 112.186C46.0947 112.358 46.1738 112.532 46.2702 112.739C44.5687 113.243 43.3394 113.091 40.7905 111.58C38.9881 110.512 36.568 107.143 37.1088 104.711C37.5012 105.158 37.9484 105.553 38.4397 105.887C38.5632 105.969 38.7062 106.016 38.854 106.024C39.0017 106.032 39.1489 106 39.2805 105.933C39.4121 105.865 39.5233 105.763 39.6027 105.638C39.6821 105.514 39.7268 105.37 39.7323 105.222C40.1503 101.737 40.3943 99.7084 42.7828 96.5796Z" fill="#FFD1BA"/>
<path id="Vector_20" d="M41.7675 84.9921C45.3121 86.9308 42.0733 95.3443 41.2402 95.5295C39.0762 96.0101 37.8673 98.919 37.6579 99.0335C36.9047 99.023 35.0073 97.6642 34.578 97.3139C33.6998 96.6805 32.998 95.8332 32.539 94.8525C32.08 93.8718 31.8791 92.7901 31.9553 91.71C32.1765 92.056 32.485 92.3376 32.8497 92.5263C33.2144 92.715 33.6225 92.8042 34.0327 92.7848C34.7949 92.8255 34.7023 91.9706 34.7746 91.1601C34.8552 90.2638 36.5236 85.7724 38.1769 84.3857C39.1945 83.5316 40.3507 84.217 41.7675 84.9921Z" fill="#FFD1BA"/>
<path id="Vector_21" d="M38.3685 75.074C39.3718 77.6252 38.6878 80.3865 38.2389 83.0393C37.4457 82.9707 36.6479 83.1024 35.9187 83.4222C35.1895 83.7419 34.5523 84.2396 34.0654 84.8696C33.3503 85.5941 32.7567 86.429 32.3073 87.3424C31.4605 87.2986 30.6497 86.9858 29.9929 86.4495C29.336 85.9132 28.8673 85.1814 28.655 84.3604C32.3134 85.2952 28.9939 81.9155 31.3847 74.5302C31.4601 74.2834 31.5851 74.0545 31.7521 73.8577C31.919 73.6608 32.1244 73.5001 32.3556 73.3853C32.5145 73.31 32.6395 73.1593 32.8022 73.0968C35.269 72.1741 37.6778 73.319 38.3685 75.074Z" fill="#FFD1BA"/>
<path id="Vector_22" d="M19.2937 45.4023C19.2997 45.4174 27.7018 65.1494 27.5421 65.2782C26.3671 64.0655 16.4789 53.0272 16.384 52.9142C12.7573 48.5839 14.8776 45.4347 16.9338 45.037C17.6095 44.9067 19.1069 44.9512 19.2937 45.4023Z" fill="#FFD1BA"/>
<path id="Vector_23" d="M60.0902 49.716C59.9906 50.3795 59.7075 51.002 59.2729 51.5132C59.1502 51.6292 57.4818 53.1703 57.1421 53.1703C53.852 53.2746 50.6578 54.3039 47.9257 56.1402C47.4151 56.5168 46.396 55.9511 46.0932 55.393C46.5137 54.9868 46.9587 54.6067 47.4256 54.2549C48.4492 53.3096 48.1404 52.7884 47.9355 52.002C48.1597 52.1373 48.4085 52.2267 48.6675 52.2649C48.9265 52.3032 49.1905 52.2895 49.4442 52.2247C49.6979 52.16 49.9361 52.0454 50.1451 51.8877C50.3541 51.7299 50.5296 51.5322 50.6614 51.306C50.893 51.4033 51.1425 51.4508 51.3936 51.4454C51.6448 51.4401 51.892 51.382 52.1192 51.275C52.3465 51.168 52.5487 51.0144 52.7128 50.8242C52.8769 50.634 52.9992 50.4114 53.0717 50.1709C53.791 50.5476 55.1378 50.4632 55.2884 49.3228C55.5897 49.2603 55.9031 49.1985 56.2232 49.1345C57.2257 50.662 57.2988 50.4255 60.0902 49.716Z" fill="#FFD1BA"/>
<path id="Vector_24" d="M38.4531 45.7331C37.5567 44.7901 36.2055 43.264 36.9594 42.0205C37.2763 41.6993 37.6996 41.5052 38.1498 41.4746C38.5999 41.4441 39.0456 41.5793 39.4029 41.8548C39.5656 42.019 39.7509 42.1621 39.9301 42.3157C40.6916 42.9831 41.3522 40.9306 40.4393 39.8075C40.312 39.6501 40.2005 39.4814 40.0732 39.3036C40.2624 38.7562 40.2637 38.1612 40.0768 37.6129C39.8899 37.0647 39.5255 36.5944 39.0413 36.2765C39.1609 35.6425 39.0901 34.9873 38.838 34.3934C39.247 34.2051 39.72 34.1019 39.9678 33.6568C40.202 33.2363 40.2644 32.7415 40.1418 32.2761C40.8521 32.1021 41.487 31.8393 41.6241 30.9957C43.3324 31.953 45.0023 30.3931 45.1642 29.5186C45.342 29.617 45.5384 29.6772 45.7408 29.6955C45.9432 29.7137 46.1472 29.6895 46.3397 29.6244C46.5322 29.5593 46.7091 29.4548 46.8589 29.3176C47.0087 29.1803 47.1283 29.0132 47.21 28.8271C47.7967 29.3476 48.0144 29.4817 49.4606 29.3326C49.4653 29.728 49.5956 30.1117 49.8327 30.4283C50.0697 30.7448 50.4013 30.9778 50.7794 31.0936C50.7486 31.9372 50.7885 32.7507 51.7097 33.1551C51.6991 33.348 51.6765 33.5265 51.6833 33.705C51.7413 35.2596 53.4443 35.6121 53.6017 34.3241C53.6594 34.1295 53.7579 33.9493 53.8906 33.7956C54.0233 33.6419 54.1871 33.5182 54.3713 33.4327C54.5554 33.3472 54.7557 33.3019 54.9587 33.2998C55.1617 33.2976 55.3629 33.3387 55.5488 33.4203C56.9445 34.3821 57.2323 37.5388 55.8637 38.7154C55.4471 39.0739 53.4217 39.3677 52.8643 39.7066C52.5577 39.3372 52.1175 39.1041 51.6396 39.0581C51.4153 39.065 51.1969 39.1314 51.0067 39.2506C50.8165 39.3697 50.6614 39.5372 50.5573 39.736C49.4749 39.504 49.621 39.7096 49.4063 38.7741C49.2557 38.1158 48.44 37.511 47.1633 37.8394C46.4582 38.0209 46.3475 37.3392 45.8986 37.6338C45.7111 38.1437 46.4146 38.6815 47.5843 38.442C48.5635 38.2416 49.0968 39.1515 48.7955 39.6795C48.2547 40.6285 47.6822 40.4553 46.7264 40.615C46.5991 41.9926 45.5574 40.102 44.8351 42.37C43.9756 42.3052 43.2842 42.5379 43.0936 43.551C42.1069 43.7197 41.3002 44.0722 41.2061 45.0823C41.0652 46.5564 39.2485 46.5699 38.4531 45.7331Z" fill="#FFD1BA"/>
<path id="Vector_25" d="M80.0303 88.611C83.8965 90.0911 83.5832 89.8644 82.8624 91.4408C82.2236 91.5079 81.893 91.3007 79.4058 90.256C78.3604 93.6561 78.3325 93.8022 77.6848 93.589C75.9343 93.0136 76.9752 93.1778 77.812 89.6045C73.9601 88.306 74.1966 88.4747 74.8173 87.1189C75.1833 86.3182 76.5602 87.5784 78.3529 87.9851C79.4571 84.7734 79.433 84.4096 80.5741 84.9225C80.9921 85.1101 81.31 85.0732 80.837 86.3807C80.5251 87.1079 80.2558 87.8526 80.0303 88.611Z" fill="white"/>
<path id="Vector_26" d="M64.9842 48.1063C66.8562 47.9138 68.74 47.8614 70.6198 47.9496C69.8417 45.1928 59.8194 19.4162 57.9221 17.5573C55.6406 15.3187 51.6372 17.7833 44.5495 20.6884C40.278 22.4374 36.3793 24.2142 33.6918 25.4729C20.6876 31.5596 21.2999 29.0175 27.6096 44.8011C34.2846 61.4977 35.2005 62.7495 37.0248 63.7114C38.5885 62.1394 37.9287 60.2278 44.8877 55.261C47.3582 53.497 48.0014 53.4993 46.846 51.6818C46.6324 51.7552 46.4049 51.7792 46.1807 51.7522C45.9565 51.7252 45.7412 51.6478 45.5512 51.5258C45.3611 51.4037 45.2011 51.2403 45.0832 51.0476C44.9653 50.855 44.8925 50.6381 44.8703 50.4134C42.0947 51.0091 43.3187 47.9707 42.686 47.3327C41.1329 45.7622 41.7618 46.3189 40.9039 46.6337C39.1399 47.2822 38.1554 46.0198 37.4391 45.3231C36.3326 44.2505 35.7233 42.7456 36.7928 41.5216C36.6188 40.5575 36.6098 40.9394 36.826 40.0619C35.7835 39.9045 35.3843 38.8718 35.6299 37.7661C34.2922 37.1349 34.2922 37.1349 34.3494 35.6782C33.9133 35.5823 33.4933 35.4242 33.1021 35.2089C32.6531 34.8495 32.3301 34.3565 32.1796 33.8014C32.0292 33.2463 32.0592 32.6577 32.2653 32.1207C32.8972 30.6896 33.8884 30.3703 34.8857 29.9093C34.7717 29.5479 34.7561 29.1627 34.8406 28.7932C34.925 28.4238 35.1064 28.0836 35.3661 27.8076C35.6257 27.5316 35.9543 27.3298 36.3178 27.223C36.6814 27.1162 37.0669 27.1083 37.4346 27.2C37.6967 25.4804 38.9101 24.511 40.409 25.3968C41.0832 23.3729 43.3202 23.2923 44.1352 24.4432C44.2248 24.0514 44.4245 23.6934 44.7107 23.4113C44.9969 23.1292 45.3578 22.9348 45.7508 22.8509C46.1269 22.7349 46.53 22.7411 46.9023 22.8686C47.2746 22.9961 47.5969 23.2383 47.8229 23.5604C48.8609 22.6393 50.4065 22.7191 50.948 24.6541C51.3132 24.6619 51.6707 24.7609 51.988 24.9419C52.3052 25.123 52.5722 25.3805 52.7647 25.691C52.9571 26.0014 53.069 26.3551 53.0901 26.7198C53.1111 27.0845 53.0407 27.4486 52.8853 27.7792C54.2803 28.3682 54.4881 29.4363 54.0641 30.7793C54.3027 30.7962 54.5323 30.8776 54.7285 31.0146C54.9246 31.1516 55.08 31.3392 55.178 31.5575C55.276 31.7757 55.3131 32.0165 55.2853 32.2541C55.2574 32.4918 55.1657 32.7174 55.0199 32.9071C55.3055 32.9084 55.5863 32.9814 55.8363 33.1195C56.0864 33.2576 56.2977 33.4562 56.451 33.6972C57.0655 34.6488 57.3019 35.7957 57.1139 36.9127C56.9512 38.6993 55.7641 39.5874 54.7638 39.4631C55.285 40.1674 55.0937 40.8693 55.395 41.2196C55.6063 41.3908 55.7776 41.6061 55.8969 41.8504C56.0162 42.0948 56.0807 42.3623 56.0857 42.6341C56.3976 42.6152 56.7084 42.6855 56.9817 42.8368C57.2551 42.9881 57.4796 43.2141 57.6292 43.4884C57.7787 43.7627 57.847 44.074 57.826 44.3857C57.805 44.6974 57.6957 44.9967 57.5108 45.2485C58.1194 46.2187 58.0584 46.4891 57.0943 47.1933C56.976 47.695 57.159 48.2614 56.7742 48.6923C57.5394 50.9474 58.154 48.6983 64.9842 48.1063Z" fill="white"/>
<path id="Vector_27" d="M70.8439 94.107C73.0515 98.8846 71.1233 98.2783 82.1587 93.7914C88.9557 91.0278 89.2864 90.6753 89.3662 89.4905C88.4357 86.7288 87.3517 84.0213 86.1191 81.3806C85.6551 80.5197 85.5918 80.2885 77.3065 83.8301C73.1065 85.6257 72.5145 86.0732 71.115 86.7036C67.3256 88.4126 68.2415 88.4714 70.8439 94.107ZM84.4357 81.8423C85.799 81.2985 85.6913 81.7098 87.8666 87.4576C89.0137 90.4862 89.6645 89.6155 83.0512 92.5388C81.8928 93.0509 80.525 93.4283 78.9214 94.2599C78.8174 94.3133 79.0178 94.2531 74.9293 96.0005C72.8459 96.8908 73.0079 97.1078 72.0211 94.9257C70.4966 91.5536 69.5129 89.8038 69.247 88.781C69.9573 87.6444 76.6715 84.9396 84.4357 81.8423Z" fill="black"/>
<path id="Vector_28" d="M64.8408 54.9598C67.4951 53.6952 70.8981 53.0105 71.4691 50.0888C71.9805 47.4849 70.6285 45.4188 67.4989 37.3594C65.0577 31.0731 65.9209 32.8717 61.6675 23.1824C57.4065 13.4719 59.154 12.9898 31.4846 25.6846C24.5912 28.8481 22.4904 29.2902 22.4317 32.294C22.3827 34.9386 32.991 59.9454 34.1683 62.0099C35.8073 64.8849 38.0097 65.5146 39.9048 64.9105C42.6653 64.0308 42.1803 63.2188 41.653 66.1978C40.719 71.4899 43.7334 78.5995 47.0265 80.8938C51.6542 84.1198 52.4564 84.3624 56.3987 84.8271C62.7197 85.572 70.4914 81.1009 72.7556 73.3187C73.8873 69.8192 73.7085 66.0276 72.2524 62.6501C70.7963 59.2726 68.1622 56.5395 64.8408 54.9598ZM64.5176 54.1539C63.6801 54.4973 63.9083 54.3459 58.5838 53.186C60.3418 51.3421 60.1121 51.7707 60.8517 49.4952C64.0769 48.6947 67.4143 48.4456 70.7226 48.7586C70.6744 52.2799 67.767 52.8199 64.5176 54.1561V54.1539ZM42.7911 46.4869C42.4318 46.1389 41.5611 45.6681 41.9912 44.7718C42.5102 43.6909 43.8328 44.8712 43.759 43.7263C43.7498 43.6291 43.7633 43.531 43.7986 43.4398C43.8338 43.3487 43.8898 43.267 43.9621 43.2013C44.0344 43.1355 44.1209 43.0874 44.215 43.0609C44.309 43.0344 44.408 43.0301 44.5039 43.0485C44.6297 43.0613 45.3008 43.401 45.4078 42.7238C45.691 40.9161 46.8977 42.4662 47.1402 41.6053C47.3067 41.0072 48.3453 41.4652 49.2492 40.358C49.5987 39.9309 50.1184 40.2909 50.6577 40.5395C51.1179 40.5756 51.3356 39.0331 52.3321 40.1019C52.534 40.3195 52.7562 40.8204 53.1155 40.358C53.4747 39.8955 54.3101 39.7471 54.521 40.3391C54.8012 41.1285 54.6467 41.4004 55.0241 41.6829C55.4467 42 55.3472 42.3141 55.4007 42.7645C55.5242 43.8408 56.3558 42.8714 57.0382 43.8469C57.1009 43.9335 57.1434 44.033 57.1629 44.1382C57.1823 44.2433 57.1781 44.3515 57.1505 44.4548C57.123 44.5582 57.0728 44.6541 57.0036 44.7356C56.9344 44.8171 56.848 44.8822 56.7505 44.9262C56.6816 44.9639 56.625 45.0207 56.5876 45.0898C56.5502 45.1588 56.5336 45.2373 56.5397 45.3156C56.5458 45.3939 56.5744 45.4687 56.6221 45.5312C56.6698 45.5936 56.7345 45.6409 56.8085 45.6674C57.5218 45.9566 57.1798 46.2858 56.6819 46.7083C56.294 47.0375 56.1419 46.7264 56.3129 47.3975C56.3779 47.555 56.3958 47.7279 56.3646 47.8954C56.3334 48.0628 56.2543 48.2176 56.1369 48.3411C56.0195 48.4645 55.8689 48.5513 55.7032 48.5909C55.5375 48.6305 55.3639 48.6213 55.2034 48.5643C54.2611 48.3722 55.18 49.49 54.0735 49.6685C52.9671 49.847 53.1019 48.8226 52.5069 49.3355C52.5047 49.8012 52.3312 50.2497 52.0195 50.5957C51.5707 50.7426 51.0821 50.708 50.6585 50.4993C50.3338 50.2643 50.0672 50.3968 49.9806 50.7923C49.9695 50.9943 49.881 51.1842 49.7334 51.3226C49.5858 51.4609 49.3905 51.537 49.1882 51.5349C47.8648 51.7187 48.1924 50.7817 46.9052 50.9369C45.4281 51.1169 45.9185 50.799 45.2089 49.5916C42.2631 50.3825 44.7043 48.339 42.7911 46.4869ZM35.9082 37.031C35.3057 36.8706 34.8974 36.7621 35.0044 36.2108C35.2047 35.206 35.5542 35.1864 33.9604 34.7909C33.7381 34.7129 33.5337 34.591 33.3596 34.4323C33.1854 34.2737 33.0449 34.0816 32.9465 33.8675C32.8481 33.6534 32.7938 33.4217 32.7868 33.1862C32.7798 32.9507 32.8203 32.7162 32.9059 32.4966C33.8143 30.1685 36.5854 30.9269 35.6928 29.8114C35.143 29.123 35.5595 28.4338 36.3346 28.0037C37.3137 27.4606 38.018 28.8036 38.1551 27.5269C38.2635 26.5221 38.4812 26.2532 38.851 25.9565C39.5719 25.3787 39.9809 25.9316 40.6045 26.5251C40.7552 26.4498 40.8862 26.385 41.0331 26.3142C40.9983 26.0674 41.0212 25.8158 41.1002 25.5793C41.1792 25.3428 41.3121 25.1279 41.4883 24.9515C41.6645 24.7752 41.8793 24.6421 42.1157 24.5629C42.3521 24.4838 42.6037 24.4606 42.8506 24.4952C43.8773 24.6941 43.6445 25.7094 44.1311 25.7267C44.6757 25.7463 44.461 24.8741 45.1781 23.9853C45.3974 23.7668 45.6785 23.6208 45.9834 23.5669C46.2883 23.5131 46.6024 23.5539 46.8833 23.684C47.6185 23.9921 46.927 25.3659 48.0019 24.8364C48.1525 23.6004 49.9233 23.3368 50.1734 24.554C50.1726 24.8077 50.1422 25.0605 50.083 25.3072C50.0721 25.3758 50.0824 25.4462 50.1124 25.5089C50.1424 25.5716 50.1908 25.6236 50.2511 25.6582C50.3114 25.6928 50.3808 25.7082 50.45 25.7024C50.5193 25.6966 50.5852 25.6699 50.6389 25.6258C50.7905 25.5077 50.9806 25.45 51.1723 25.4639C51.3641 25.4778 51.5438 25.5623 51.6768 25.7011C53.3437 27.0004 51.3627 27.7559 51.8011 28.5046C51.9178 28.7034 52.1024 28.6929 52.314 28.6598C53.2134 28.5189 53.7451 29.187 53.4665 30.0751C52.839 32.0816 55.1544 31.0798 54.588 32.2744C53.7723 33.9925 53.4928 32.9975 52.9912 34.7006C52.0647 34.458 52.3833 33.2069 52.4172 32.8258C52.4391 32.5803 52.4526 32.5599 52.1431 32.4997C51.2874 32.3332 51.3107 31.5792 51.5774 31.0798C51.6409 30.9749 51.6642 30.8506 51.643 30.7298C51.6218 30.6091 51.5575 30.5001 51.4621 30.423C51.261 30.4548 51.0552 30.4355 50.8635 30.3668C50.6718 30.2981 50.5006 30.1822 50.3655 30.0299C49.9715 29.6404 50.3052 29.7896 50.0431 28.3186C47.8588 29.019 47.8731 28.6831 47.1809 27.5465C47.0484 27.5955 46.9163 27.6457 46.7847 27.6972C46.0751 30.3131 45.1924 28.3826 44.7186 28.534C44.5092 28.601 44.47 28.778 44.458 28.9678C44.3942 29.3887 44.1833 29.7734 43.8629 30.0537C43.5425 30.334 43.1332 30.4918 42.7075 30.4991C42.1547 30.5496 41.9694 30.127 41.641 29.8845C41.0218 29.428 40.9593 30.4283 40.78 30.9563C40.423 32.0108 39.5222 31.1476 39.2472 31.5589C39.129 31.7344 39.2036 31.9174 39.3226 32.0944C39.4134 32.2186 39.4744 32.362 39.5009 32.5135C39.5274 32.665 39.5187 32.8206 39.4754 32.9682C39.4322 33.1158 39.3555 33.2514 39.2514 33.3647C39.1473 33.4779 39.0186 33.5657 38.8752 33.6212C38.3837 33.8212 37.8503 33.896 37.3228 33.8389C37.2625 34.1718 37.2377 34.4414 37.9012 34.5168C38.4338 34.5778 38.546 35.3852 38.4398 35.8665C38.3564 36.0912 38.3582 36.3386 38.445 36.5619C38.5318 36.7852 38.6974 36.969 38.9106 37.0785C39.1775 37.2809 39.3717 37.5645 39.4639 37.8866C39.5561 38.2087 39.5414 38.552 39.422 38.8651C39.3605 38.9575 39.3193 39.062 39.3012 39.1715C39.2831 39.281 39.2885 39.3932 39.317 39.5005C39.3455 39.6078 39.3964 39.7078 39.4665 39.794C39.5365 39.8801 39.624 39.9504 39.7233 40.0002C39.9749 40.18 40.1487 40.4487 40.2096 40.752C40.2704 41.0552 40.2137 41.3702 40.0509 41.6332C39.4604 40.9884 38.7983 40.6321 37.444 41.1142C37.0674 40.6743 38.0203 40.245 37.4862 39.6507C37.1292 39.2537 36.0325 39.2967 36.2713 38.2633C36.4151 37.6034 36.5635 37.2088 35.9082 37.031ZM37.1043 42.1047C37.3808 41.7739 37.7745 41.5629 38.203 41.5159C38.6315 41.4688 39.0616 41.5894 39.4032 41.8523C39.5658 42.0165 39.7511 42.1597 39.9304 42.3133C40.6919 42.9807 41.3525 40.9281 40.4396 39.8051C40.3123 39.6477 40.2008 39.479 40.0735 39.3012C40.2627 38.7537 40.264 38.1588 40.0771 37.6105C39.8902 37.0622 39.5258 36.5919 39.0416 36.274C39.1612 35.64 39.0904 34.9848 38.8382 34.391C39.2472 34.2027 39.7203 34.0995 39.9681 33.6543C40.2023 33.2339 40.2647 32.7391 40.1421 32.2737C40.8523 32.0997 41.4873 31.8368 41.6244 30.9932C43.3327 31.9506 45.0026 30.3907 45.1645 29.5162C45.3423 29.6146 45.5387 29.6748 45.7411 29.693C45.9435 29.7113 46.1475 29.6871 46.34 29.622C46.5325 29.5569 46.7093 29.4524 46.8592 29.3151C47.009 29.1778 47.1286 29.0108 47.2102 28.8247C47.797 29.3452 48.0147 29.4793 49.4608 29.3301C49.4656 29.7256 49.5959 30.1093 49.8329 30.4258C50.07 30.7424 50.4016 30.9754 50.7797 31.0911C50.7488 31.9347 50.7888 32.7482 51.71 33.1527C51.6994 33.3455 51.6768 33.524 51.6836 33.7025C51.703 34.0696 51.828 34.4232 52.0437 34.7208C52.2594 35.0184 52.5565 35.2473 52.8993 35.38C53.291 35.4967 53.5124 35.2963 53.6668 34.7495C53.9011 33.921 54.7921 33.1678 55.4843 33.643C56.9908 34.6832 56.9154 37.91 55.6048 38.7167C55.3352 38.8832 54.6257 39.2025 54.3364 38.322C54.2347 38.0117 53.7738 38.0441 53.7647 38.3461C53.7561 38.6495 53.8614 38.9451 54.06 39.1747L52.8021 39.5641C52.4765 39.2788 52.0705 39.1014 51.6399 39.0564C51.4156 39.0633 51.1972 39.1298 51.007 39.2489C50.8168 39.368 50.6617 39.5355 50.5575 39.7343C49.4752 39.5023 49.6213 39.7079 49.4066 38.7724C49.256 38.1141 48.4402 37.5093 47.1635 37.8377C46.4585 38.0192 46.3478 37.3376 45.8989 37.6321C45.7113 38.142 46.4148 38.6798 47.5846 38.4403C48.5638 38.2399 49.097 39.1498 48.7958 39.6778C48.2549 40.6269 47.6825 40.4536 46.7267 40.6133C46.5994 41.9909 45.5577 40.1004 44.8354 42.3683C43.9759 42.3035 43.2845 42.5363 43.0939 43.5493C42.1072 43.7181 41.3005 44.0706 41.2064 45.0806C41.0685 46.5622 39.2661 46.3882 38.4707 45.5506C37.5713 44.6016 36.3504 43.3505 37.1043 42.1047ZM47.9356 52.0012C48.1597 52.1365 48.4085 52.2259 48.6675 52.2641C48.9265 52.3023 49.1906 52.2887 49.4442 52.2239C49.6979 52.1591 49.9362 52.0446 50.1452 51.8868C50.3541 51.7291 50.5296 51.5314 50.6615 51.3052C50.8931 51.4025 51.1425 51.4499 51.3937 51.4446C51.6448 51.4393 51.892 51.3812 52.1193 51.2742C52.3465 51.1671 52.5488 51.0135 52.7128 50.8234C52.8769 50.6332 52.9992 50.4106 53.0718 50.1701C53.7911 50.5467 55.1378 50.4624 55.2885 49.322C55.5898 49.2595 55.9031 49.1977 56.2232 49.1337C57.222 50.6597 57.2951 50.4232 60.0865 49.7137C59.9868 50.3772 59.7038 50.9996 59.2692 51.5108C59.1465 51.6268 57.4781 53.1679 57.1384 53.1679C53.8482 53.2723 50.6541 54.3016 47.922 56.1378C47.4114 56.5145 46.3922 55.9488 46.0895 55.3907C46.5098 54.9843 46.9548 54.6042 47.4219 54.2525C48.4493 53.311 48.1405 52.7898 47.9356 52.0034V52.0012ZM28.0334 44.6581C21.7237 28.8752 21.2815 31.2606 34.2851 25.1701C36.9718 23.9122 40.2776 22.4374 44.5491 20.6885C51.6369 17.7871 55.5747 15.6344 57.8562 17.873C59.7543 19.7341 69.8421 45.1929 70.6202 47.9496C68.7404 47.8614 66.8566 47.9138 64.9846 48.1063C58.1545 48.6983 57.5398 50.9474 56.7746 48.6923C57.1595 48.2615 56.9764 47.695 57.0947 47.1934C58.0588 46.4891 58.1198 46.2187 57.5112 45.2486C57.6969 44.9967 57.8068 44.6971 57.8281 44.3849C57.8494 44.0728 57.7812 43.761 57.6315 43.4863C57.4818 43.2115 57.2568 42.9852 56.9829 42.8338C56.709 42.6825 56.3977 42.6125 56.0854 42.6319C56.0803 42.36 56.0159 42.0926 55.8966 41.8482C55.7773 41.6039 55.606 41.3886 55.3947 41.2174C55.0934 40.8671 55.2847 40.1629 54.7635 39.4609C55.7638 39.5852 56.9478 38.6971 57.1135 36.9105C57.3012 35.7935 57.0648 34.6467 56.4507 33.695C56.2974 33.454 56.086 33.2553 55.836 33.1173C55.5859 32.9792 55.3052 32.9062 55.0196 32.9049C55.1654 32.7152 55.2571 32.4895 55.2849 32.2519C55.3128 32.0143 55.2757 31.7735 55.1777 31.5553C55.0796 31.337 54.9243 31.1494 54.7281 31.0124C54.532 30.8754 54.3024 30.794 54.0638 30.7771C54.4878 29.4378 54.2799 28.3668 52.885 27.777C53.0404 27.4464 53.1108 27.0822 53.0897 26.7176C53.0687 26.3529 52.9568 25.9992 52.7643 25.6888C52.5719 25.3783 52.3049 25.1208 51.9876 24.9397C51.6704 24.7587 51.3129 24.6597 50.9477 24.6519C50.4061 22.7169 48.8605 22.637 47.8226 23.5582C47.5966 23.2361 47.2743 22.9939 46.902 22.8664C46.5297 22.7389 46.1266 22.7327 45.7505 22.8487C45.3575 22.9326 44.9966 23.127 44.7104 23.4091C44.4241 23.6912 44.2245 24.0492 44.1349 24.441C43.3199 23.2901 41.0828 23.3707 40.4087 25.3946C38.9098 24.5088 37.6971 25.4782 37.4342 27.1978C37.0675 27.1083 36.6836 27.1178 36.3217 27.2254C35.9599 27.333 35.6331 27.5347 35.3748 27.8099C35.1165 28.0852 34.9359 28.4241 34.8515 28.7921C34.7671 29.16 34.7819 29.5437 34.8944 29.9041C33.8971 30.365 32.9059 30.6821 32.274 32.1155C32.0679 32.6525 32.0379 33.2411 32.1884 33.7962C32.3388 34.3513 32.6618 34.8442 33.1108 35.2037C33.502 35.419 33.922 35.577 34.3581 35.673C34.2979 37.1297 34.2979 37.1297 35.6386 37.7609C35.393 38.8666 35.7892 39.8993 36.8347 40.0567C36.6185 40.9342 36.6276 40.5523 36.8015 41.5164C35.732 42.7404 36.3413 44.2453 37.4478 45.3179C38.1679 46.0146 39.1523 47.2763 40.9126 46.6285C41.7705 46.3136 41.1386 45.757 42.6947 47.3275C43.3252 47.9654 42.1012 51.0047 44.879 50.4081C44.9007 50.6328 44.9728 50.8497 45.0902 51.0426C45.2075 51.2354 45.3669 51.3993 45.5565 51.5218C45.7461 51.6443 45.961 51.7223 46.185 51.75C46.4091 51.7777 46.6365 51.7544 46.8502 51.6818C48.0034 53.4993 47.3594 53.4971 44.8918 55.2611C37.9321 60.2278 38.5904 62.1402 37.0268 63.7114C35.2017 62.7496 34.7076 61.3554 28.0334 44.6581ZM37.9366 64.0278C39.2555 60.7091 42.1049 58.2785 44.8918 56.1604C44.9517 56.1051 45.0229 56.0633 45.1004 56.0379C45.1779 56.0125 45.2599 56.0041 45.341 56.0132C45.422 56.0224 45.5001 56.0488 45.57 56.0909C45.6399 56.1329 45.6999 56.1895 45.746 56.2569C45.9945 56.5819 46.336 56.8236 46.7252 56.9498C47.2351 57.1878 45.7407 57.1328 42.7098 62.6825C42.4431 63.1661 38.6793 64.7162 37.9366 64.0278ZM72.1831 64.7222C73.5434 68.2782 72.0408 74.38 69.9235 77.5111C68.2664 79.9726 64.199 82.7927 62.1179 83.3237C60.5882 83.8627 58.9756 84.1286 57.3538 84.1093C54.9286 84.0585 52.5515 83.4225 50.425 82.2553C48.2985 81.0881 46.4855 79.4244 45.1404 77.4057C33.7811 59.5943 58.8218 44.0284 70.9682 61.9143C71.1256 62.144 72.0257 64.311 72.1831 64.7222Z" fill="black"/>
<path id="Vector_29" d="M56.7108 93.173C49.8189 95.9945 49.2841 96.2552 49.2005 97.5846C49.5266 98.7897 51.6462 104.359 52.7481 106.006C53.4652 107.077 68.2907 100.089 69.1682 99.4526C70.6845 98.3498 69.8371 97.5236 68.4632 94.5258C65.3185 87.664 67.6392 88.7004 56.7108 93.173ZM69.0379 98.6805C67.9427 99.4089 60.165 102.886 59.2348 103.258C53.2091 105.661 53.1714 105.761 52.7572 104.777C49.6283 97.3955 49.6351 97.1748 50.5065 96.7816C59.9172 92.535 54.8948 94.9152 60.7104 92.3038C65.6424 90.0886 65.4556 90.0313 66.071 91.076C66.08 91.0918 69.1728 97.7043 69.3144 98.1299C69.3204 98.2378 69.298 98.3454 69.2495 98.442C69.201 98.5386 69.1281 98.6208 69.0379 98.6805Z" fill="black"/>
<path id="Vector_30" d="M63.3306 66.0864C64.3542 65.1577 64.1162 65.065 63.3306 63.6008C63.0037 62.9914 62.6331 62.7075 61.6826 63.1594C50.0371 68.7016 48.8463 69.0044 49.2884 70.0784C49.845 71.4297 49.9919 72.1031 50.7549 72.0059C51.3718 71.9306 51.4562 71.6293 52.1107 73.1659C55.1838 80.3719 55.3224 81.3601 58.0912 80.1535C59.319 79.6179 64.0605 77.3733 66.2478 76.172C68.0382 75.1883 67.236 73.6291 66.2071 71.6858C64.3294 68.1412 63.4097 66.9127 63.3306 66.0864ZM65.9759 75.3269C62.8696 76.9922 60.201 78.2192 57.4111 79.4944C55.9521 80.161 55.9099 79.859 53.4944 74.3658C51.9367 70.8256 52.0158 70.8143 50.7557 71.1653C50.4061 70.7588 50.1812 70.2601 50.1079 69.7289C51.3552 68.9117 61.1802 64.3013 62.084 63.8448C62.4878 63.6415 62.5051 63.8448 63.1031 65.0424C63.1529 65.1419 62.96 65.2548 62.7567 65.4243C62.1029 65.9696 62.3582 66.1542 63.7434 68.8635C65.7078 72.7019 67.3987 74.5684 65.9759 75.3269Z" fill="black"/>
<path id="Vector_31" d="M63.088 96.8924C62.7792 97.1078 62.554 96.5858 62.1473 96.4149C60.5655 95.7535 60.4149 98.9208 59.27 98.9577C59.2469 98.8491 59.1988 98.7474 59.1294 98.6607C59.06 98.5741 58.9712 98.5048 58.8702 98.4586C58.7693 98.4124 58.6589 98.3905 58.5479 98.3947C58.437 98.3988 58.3285 98.4289 58.2313 98.4824C57.8953 99.0202 57.8366 99.8089 57.1421 100.17C56.5456 99.9768 57.0668 99.1905 56.4326 98.9999C55.9648 99.0669 55.9897 98.9705 55.8059 99.4661C55.6699 100.054 55.4157 100.608 55.0587 101.094C54.0426 102.064 52.9655 100.207 54.0125 98.3898C54.1064 98.4869 54.2052 98.5792 54.3085 98.6662C54.3486 98.7038 54.397 98.7312 54.4498 98.7462C54.5026 98.7613 54.5582 98.7635 54.612 98.7526C54.6658 98.7418 54.7163 98.7183 54.7591 98.684C54.802 98.6497 54.836 98.6056 54.8584 98.5555C55.3404 97.4257 53.3715 96.9429 52.8925 98.3491C52.5332 99.4036 52.5814 101.322 53.4235 102.023C53.6339 102.172 53.8736 102.276 54.1268 102.327C54.3801 102.378 54.6413 102.375 54.8933 102.318C55.1453 102.261 55.3825 102.152 55.5893 101.997C55.7962 101.842 55.968 101.646 56.0937 101.42C56.1833 101.269 56.2676 101.119 56.3528 100.964C57.2619 101.47 57.872 101.202 58.7728 99.9384C60.3418 100.478 60.982 98.8523 61.7398 97.4837C61.8226 97.5314 61.9012 97.5861 61.9748 97.6471C62.113 97.7972 62.2836 97.9137 62.4736 97.9879C62.6636 98.0622 62.868 98.0921 63.0713 98.0755C63.2747 98.0588 63.4715 97.9961 63.6469 97.892C63.8224 97.7879 63.9718 97.6451 64.0838 97.4746C65.0584 96.2062 65.5096 96.4585 65.1262 95.5487C64.4069 95.2406 64.1433 95.7709 63.088 96.8924Z" fill="black"/>
<path id="Vector_32" d="M59.5229 67.2902C59.7436 68.2234 62.4771 74.0563 62.883 74.9248C63.0992 75.3873 63.405 75.4016 63.7116 74.9511C63.6634 74.7728 63.6032 74.5979 63.5316 74.4277C60.1971 66.7283 60.359 66.7855 59.5229 67.2902Z" fill="black"/>
<path id="Vector_33" d="M63.0524 59.9751C61.5731 56.8726 61.2349 58.5937 56.5318 60.3465C55.286 59.2415 54.3226 59.0238 53.1205 59.6927C51.6487 60.5107 51.4114 61.1788 51.5689 62.762C46.4116 65.5489 46.1457 65.3124 47.2394 67.6685C47.8111 68.9022 48.614 68.4044 61.1445 62.1421C62.3346 61.5471 63.6022 61.1291 63.0524 59.9751ZM47.9474 67.4877C47.2333 65.7779 46.9486 66.2133 49.661 64.7309C52.0464 63.4264 52.6693 63.2998 52.4629 62.3108C52.1805 60.9551 53.0723 60.5785 54.3633 60.1936C55.1278 59.9676 55.469 60.58 55.7643 60.9144C56.4354 61.6736 57.4696 60.5897 61.1942 59.1278C61.8593 58.8671 62.2163 59.9028 62.4483 60.403C62.2103 60.9053 49.1375 67.1811 47.9474 67.4877Z" fill="black"/>
<path id="Vector_34" d="M56.8677 68.4835C57.0522 69.8182 59.9679 76.2567 60.4372 76.8314C61.2928 76.4879 60.9207 76.4134 59.8112 73.8381C57.2172 67.8222 57.6578 68.4067 56.8677 68.4835Z" fill="black"/>
<path id="Vector_35" d="M54.1382 69.9622C54.2639 70.9512 54.911 72.1338 56.7164 75.8976C57.545 77.6202 57.6391 78.1572 58.1204 77.9584C58.729 77.7076 57.789 76.3985 56.1402 72.9352C54.5886 69.676 54.9471 69.7039 54.1382 69.9622Z" fill="black"/>
<path id="Vector_36" d="M55.223 36.8969C55.2087 37.0121 55.1854 37.3307 54.8118 37.2517C54.7818 37.2454 54.751 37.245 54.7209 37.2507C54.6909 37.2563 54.6622 37.2678 54.6366 37.2845C54.611 37.3013 54.589 37.3229 54.5717 37.3481C54.5545 37.3733 54.5424 37.4017 54.5361 37.4317C54.4773 37.7066 54.8856 38.0523 55.3277 37.7932C55.4962 37.6922 55.6298 37.5421 55.7106 37.3631C55.7913 37.184 55.8154 36.9846 55.7797 36.7914C55.6034 35.8123 54.6137 36.4442 54.6611 35.6081C54.6754 35.3581 54.6227 35.0229 54.924 34.9174C55.1937 34.8233 55.2916 35.2413 55.4076 35.4808C55.4117 35.4903 55.4178 35.4987 55.4254 35.5057C55.433 35.5127 55.4419 35.5181 55.4517 35.5215C55.4614 35.5249 55.4718 35.5262 55.4821 35.5254C55.4924 35.5247 55.5024 35.5218 55.5115 35.517C56.0192 35.2157 55.5642 34.342 54.9903 34.2862C54.1384 34.2041 53.8876 35.401 54.1565 36.1753C54.3824 36.8216 55.1989 36.5414 55.223 36.8969Z" fill="black"/>
<path id="Vector_37" d="M52.0888 11.0375C54.6693 9.9875 54.6286 10.0515 54.7175 9.78112C54.7397 9.59295 54.7138 9.40222 54.6423 9.22677C54.5708 9.05132 54.4559 8.89686 54.3085 8.77783C53.3241 9.00366 52.3899 9.4097 51.5532 9.97545C51.5447 10.1834 51.5894 10.3901 51.6831 10.576C51.7769 10.7618 51.9165 10.9207 52.0888 11.0375Z" fill="black"/>
<path id="Vector_38" d="M55.9225 10.5345C56.3609 10.3672 56.861 10.0072 56.6757 9.54699C56.0476 7.98783 56.0679 7.14875 54.7309 7.62554C49.8057 9.38204 50.0964 8.94668 51.4492 11.7524C51.6842 12.2428 52.2363 11.9415 55.9225 10.5345ZM55.4879 7.8982C55.8052 8.30043 56.0404 8.76108 56.1801 9.25399C56.4355 9.90025 56.3948 9.8302 53.8037 10.8553C53.1674 11.1633 52.494 11.3878 51.8002 11.5234C51.4504 10.9264 51.1694 10.2917 50.9626 9.63135C52.405 8.89427 53.922 8.31351 55.4879 7.89895V7.8982Z" fill="black"/>
<path id="Vector_39" d="M50.0589 12.644C50.8355 12.3473 50.4747 11.9322 49.8646 10.4476C49.6831 10.0063 49.7433 10.0899 48.8613 10.3482C48.8788 10.5292 48.9116 10.7083 48.9592 10.8838C49.5693 12.5506 49.6371 12.8045 50.0589 12.644Z" fill="black"/>
<path id="Vector_40" d="M48.2677 13.228C49.3975 12.8974 49.3026 13.2047 48.3965 11.052C47.8903 11.0678 47.5393 11.4527 47.6809 11.8376C47.8436 12.282 48.047 12.7121 48.2677 13.228Z" fill="black"/>
<path id="Vector_41" d="M47.0702 34.6969C47.769 33.9978 48.3856 33.2213 48.9081 32.3822C48.9601 31.0264 44.9055 33.7885 46.1136 34.9432C46.4225 35.2377 46.7637 34.9989 47.0702 34.6969Z" fill="black"/>
<path id="Vector_42" d="M47.8654 35.7023C47.815 36.4051 48.468 36.9391 48.7475 36.7214C49.0427 36.4954 48.9056 35.9772 48.6247 35.5705C48.586 35.4931 48.5235 35.4302 48.4462 35.3911C48.369 35.3521 48.2813 35.339 48.196 35.3538C48.1107 35.3686 48.0325 35.4105 47.973 35.4733C47.9134 35.5361 47.8757 35.6164 47.8654 35.7023Z" fill="black"/>
<path id="Vector_43" d="M47.4708 13.0615C47.1296 12.1998 47.1545 12.3489 46.9368 12.0823C46.2318 12.6306 46.3169 12.5093 46.7907 13.7055C47.3021 13.6331 47.6787 13.5872 47.4708 13.0615Z" fill="black"/>
<path id="Vector_44" d="M43.7233 37.3427C43.4461 37.4858 43.5041 37.763 43.5124 37.9196C43.5267 38.2089 43.6522 38.4815 43.8626 38.6804C44.2566 38.9817 44.7665 38.6608 44.4373 37.7524C44.2987 37.3706 43.9997 37.1996 43.7233 37.3427Z" fill="black"/>
<path id="Vector_45" d="M44.2318 35.8141C44.2439 35.6928 44.2868 35.2507 43.8138 35.2236C42.8904 35.1716 41.0186 35.2575 40.7603 35.7222C40.4801 36.2246 40.4198 36.7873 40.6925 36.9763C41.7396 36.8404 42.7745 36.6223 43.7874 36.324C43.9053 36.2958 44.0115 36.2315 44.0912 36.1401C44.1708 36.0487 44.22 35.9348 44.2318 35.8141Z" fill="black"/>
<path id="Vector_46" d="M39.4625 43.6861C39.4964 43.9204 39.3119 44.0175 39.2366 44.4024C39.214 44.495 39.2128 44.5916 39.2331 44.6847C39.2533 44.7779 39.2944 44.8653 39.3533 44.9402C39.7254 45.414 40.6948 45.1662 40.3792 44.6495C40.2398 44.4235 39.9529 44.8513 39.8278 44.5463C39.7028 44.2412 40.4816 43.9369 39.519 42.7868C39.3745 42.6146 39.1865 42.4842 38.9746 42.4092C38.7627 42.3342 38.5345 42.3174 38.3139 42.3604C37.7339 42.426 37.3912 42.7642 37.4356 43.2116C37.4695 43.5445 37.5712 43.7629 37.7407 43.7215C38.1075 43.6326 37.6864 43.067 38.4788 42.9773C38.6978 42.9712 38.9128 43.0373 39.0905 43.1654C39.2683 43.2934 39.399 43.4764 39.4625 43.6861Z" fill="black"/>
<path id="Vector_47" d="M33.3731 16.8909C35.0227 16.2281 34.521 16.3305 35.6026 15.85C39.267 14.2215 39.5947 14.2953 39.5028 13.8336C39.5028 13.231 39.0712 12.9087 38.5319 13.1331C37.5783 13.5316 36.6338 13.9489 35.6923 14.3744C32.766 15.6978 32.7457 15.6549 32.6041 16.1528C32.4971 16.5211 32.7239 17.1515 33.3731 16.8909Z" fill="black"/>
<path id="Vector_48" d="M137.688 145.844C129.428 130.519 133.997 140.496 124.801 121.343C119.188 109.654 121.739 112.003 120.787 105.034C120.221 100.899 116.56 87.5936 116.557 87.5748C113.167 68.2661 105.763 66.5427 101.733 58.3583C96.9277 48.5981 93.368 50.3704 88.3577 45.5355C85.1414 42.4315 85.1113 42.2304 84.4048 42.14C83.5984 40.9584 82.903 39.7047 82.3274 38.395C81.5802 36.3726 80.7788 33.9352 78.7225 34.0173C77.0383 32.8574 75.0318 33.8735 73.4056 35.1095C69.2689 26.4309 71.6152 30.2377 67.5508 20.4368C66.7223 18.4393 66.3163 18.0138 66.1777 17.5505C65.85 16.4538 65.4245 15.5507 63.5482 11.5783C58.4497 0.787698 56.4363 2.91629 43.8501 7.60732C27.5806 13.6662 26.6135 14.268 23.2911 15.898C15.1142 19.9081 10.1542 21.9237 14.4845 32.6465C16.3976 37.3865 18.7025 43.6721 18.9209 44.359C18.5729 44.3402 16.54 43.7873 15.0388 45.1777C10.2258 49.636 18.1044 55.8079 23.2233 61.7606C25.3797 64.268 26.8493 66.0682 28.2005 66.9299C29.4509 68.7971 30.1017 70.9784 31.0929 72.9556C30.7607 73.6486 30.2915 72.8502 29.5413 73.6222C27.439 75.7854 26.969 78.616 27.0187 81.6327C27.0406 82.9591 27.6627 83.4035 27.9693 84.5152C28.1555 85.4153 28.6165 86.2355 29.2886 86.8624C29.9608 87.4894 30.8109 87.8922 31.7218 88.0154C31.9862 88.0388 31.8047 88.1179 31.5026 89.8857C31.4605 90.1327 31.5297 90.4008 31.4702 90.6389C30.4911 94.5759 33.4602 98.2998 37.1397 99.7709C36.74 100.956 36.5268 102.197 36.5078 103.447C36.1922 104.668 36.2039 105.951 36.5416 107.166C37.9185 111.373 41.8142 114.586 46.6106 113.488C47.6252 115.438 48.7761 117.387 50.8761 118.07C51.9344 118.415 53.425 118.851 56.3128 118.021C58.51 117.389 56.2789 117.465 60.0699 119.922C61.8449 120.986 63.6809 121.944 65.5683 122.793C71.2928 125.603 70.5109 126.625 76.0968 128.307C78.2887 128.967 80.1694 130.157 81.7971 130.508C83.7728 130.934 81.8499 131.027 83.5988 132.647C84.6209 133.593 85.4465 138.974 86.687 141.229C87.679 143.03 88.433 148.247 89.3481 146.537C88.4556 144.663 89.7549 147.644 86.3353 138.074C85.9428 136.974 86.4377 137.844 84.6782 132.781C89.9221 133.534 85.8321 133.275 91.4067 133.248C96.5376 133.223 96.7831 131.992 94.882 132.19C88.4895 132.857 87.5208 132.447 84.3008 131.959C84.0787 131.91 83.8815 131.783 83.7448 131.601C83.6081 131.419 83.5408 131.195 83.5551 130.968C86.388 131.067 88.5911 131.376 91.3833 130.656C92.0612 130.48 91.8481 129.671 91.0858 129.903C89.1079 130.498 84.3219 130.324 83.1695 129.994C78.8415 128.755 82.0977 129.829 78.6419 128.433C74.9466 126.94 75.1018 127.217 73.8281 126.683C71.3289 125.633 68.6708 123.333 66.9844 122.552C60.4231 119.514 60.8607 119.712 58.0927 117.435C60.7086 116.068 61.5123 116.623 77.3276 109.732C80.2546 108.457 84.1871 107.326 89.0777 105.031C89.8061 104.689 89.7556 104.734 89.8746 104.931C93.4147 110.686 95.7211 114.007 101.466 117.479C101.682 118.998 101.505 120.547 100.95 121.977C99.3599 126.056 98.8409 126.312 94.3073 128.643C93.9104 128.847 93.7612 129.355 94.464 129.215C96.0359 128.901 99.5738 126.942 100.588 124.893C104.989 115.997 98.5185 117.587 107.083 118.985C109.945 119.452 113.435 117.986 114.426 116.925C114.957 116.356 114.676 115.965 113.925 116.444C110.888 118.382 107.056 118.974 102.419 117.047C97.2765 114.906 93.2114 109.2 90.5186 104.322C93.0999 102.848 94.8489 102.253 96.289 99.8025C98.8703 95.4082 93.8682 86.1941 93.7123 85.3671C93.3643 83.527 88.1219 73.0068 88.723 71.4326C89.2035 70.1725 89.2841 68.2691 88.3019 65.907C86.2276 60.9117 82.9292 59.3058 79.8019 55.8892C74.3034 49.8853 73.621 48.0633 72.6539 42.0956C71.5594 35.3483 76.2693 33.8336 77.9475 34.5431C75.1884 36.3749 76.7664 39.7297 78.1787 42.7298C78.9515 44.3703 80.116 45.8752 81.4439 44.6475C82.0288 43.9049 82.8182 43.3498 83.7148 43.0507C85.1828 42.5912 84.5434 43.6532 89.3255 47.5353C91.5061 49.3061 97.809 51.1937 100.457 57.6804C102.813 63.4515 105.277 64.2688 109.587 70.7916C111.792 74.1321 114.896 81.8202 115.528 86.6092C116.037 90.4566 120.194 101.155 120.167 109.766C120.154 113.858 121.484 116.098 123.122 119.629C126.649 127.236 133.546 141.02 137.037 146.217C137.29 146.59 137.922 146.281 137.688 145.844ZM27.5422 65.2781C26.3672 64.0654 16.479 53.027 16.3841 52.914C12.7573 48.5838 14.8776 45.4346 16.9339 45.0369C17.6118 44.9066 19.107 44.951 19.2937 45.4022C19.2998 45.4188 27.7019 65.153 27.5422 65.2781ZM27.7531 81.4361C27.7765 81.2711 27.5136 75.5828 30.7404 73.8369C28.904 81.1566 29.9495 80.942 29.6377 83.7673C29.3503 83.7671 29.0667 83.7027 28.8074 83.5788C28.5482 83.455 28.3199 83.2747 28.1392 83.0513C27.9586 82.8278 27.8302 82.5668 27.7634 82.2874C27.6966 82.0079 27.6931 81.7171 27.7531 81.4361ZM28.657 84.3586C32.3154 85.2933 28.9959 81.9136 31.3866 74.5283C31.4621 74.2815 31.5871 74.0526 31.754 73.8558C31.921 73.6589 32.1263 73.4982 32.3575 73.3834C32.5165 73.3081 32.6415 73.1575 32.8042 73.095C35.271 72.1738 37.6798 73.3209 38.3705 75.0736C39.3737 77.6248 38.6898 80.3861 38.2409 83.0389C37.4476 82.9704 36.6499 83.102 35.9207 83.4218C35.1915 83.7416 34.5543 84.2393 34.0673 84.8692C33.3523 85.5937 32.7587 86.4287 32.3093 87.342C31.4622 87.2985 30.6511 86.9859 29.9939 86.4496C29.3368 85.9132 28.8679 85.1813 28.6555 84.3601L28.657 84.3586ZM37.7393 83.7756C36.2215 85.0944 34.3392 88.566 34.0101 92.0037C30.8797 92.5483 31.9764 86.57 36.2697 83.9443C36.7179 83.6989 37.2441 83.6384 37.7362 83.7756H37.7393ZM34.5788 97.3154C33.7006 96.6819 32.9987 95.8347 32.5397 94.854C32.0808 93.8733 31.8799 92.7916 31.9561 91.7114C32.1772 92.0575 32.4857 92.339 32.8505 92.5277C33.2152 92.7164 33.6232 92.8056 34.0334 92.7863C34.7957 92.827 34.703 91.9721 34.7754 91.1616C34.856 90.2653 36.5243 85.7738 38.1776 84.3872C39.1945 83.5345 40.3507 84.2185 41.7675 84.9897C45.3121 86.9285 42.0733 95.3419 41.2402 95.5272C39.0762 96.0078 37.8673 98.9167 37.6579 99.0312C36.9077 99.0229 35.0081 97.6641 34.5788 97.3154ZM42.1667 96.12C39.953 98.7563 39.1357 101.87 39.0032 105.229C37.7106 105.229 35.9903 102.333 39.2751 97.9526C40.6422 96.1238 41.5144 96.1727 42.1667 96.1185V96.12ZM40.792 111.581C38.9896 110.513 36.5695 107.145 37.1103 104.713C37.5027 105.159 37.9499 105.554 38.4413 105.888C38.5648 105.97 38.7077 106.017 38.8555 106.025C39.0032 106.033 39.1505 106.002 39.282 105.934C39.4136 105.866 39.5248 105.765 39.6042 105.64C39.6836 105.515 39.7283 105.371 39.7338 105.223C40.1503 101.738 40.3944 99.7099 42.7851 96.581C44.3984 94.4682 50.5289 99.0598 47.0031 106.115C45.5373 109.046 44.7984 110.183 45.5765 111.866C45.6247 111.97 45.9064 112.214 46.0164 112.188C46.0969 112.359 46.176 112.533 46.2724 112.74C44.5905 113.238 43.356 113.099 40.792 111.58V111.581ZM83.9355 60.8145C86.2358 63.5909 89.1094 67.2982 87.9946 70.7637C87.4485 69.713 83.6696 61.0104 83.9355 60.8107V60.8145ZM81.1147 58.2641C82.8855 59.8624 81.8951 58.0728 85.509 66.7235C91.3841 80.7853 93.8817 87.6486 94.7201 89.8374C97.9152 98.1778 97.6576 100.985 85.3101 105.802C59.6707 115.801 54.9239 118.933 50.9755 117.291C47.5107 115.849 46.8622 111.12 46.1956 111.326C46.0033 110.719 46.0552 110.061 46.3402 109.491C47.3194 107.493 47.2102 107.533 47.4294 107.985C49.7192 112.701 50.7488 116.687 57.3455 115.249C60.6747 114.524 87.0975 102.807 89.7247 101.63C94.9106 99.3069 96.6912 96.8009 94.0181 90.9974C91.882 86.3659 90.6286 81.6033 89.5816 79.5485C89.5711 79.5334 80.9144 58.4125 81.1147 58.2604V58.2641ZM78.8671 56.1144C79.9789 57.2654 94.7336 92.8458 94.4813 95.995C94.2101 99.3732 91.2154 100.529 64.9974 111.478C58.7201 114.1 53.8995 116.608 50.8882 112.889C49.6582 111.37 49.3358 110.311 47.8143 107.056C47.6064 106.61 47.8896 106.539 48.3287 104.979C49.7666 99.8575 47.696 94.7582 42.3949 95.4497C42.2955 95.3126 47.7638 84.9174 39.834 83.4517C38.8548 83.2709 38.9806 83.7469 39.1975 82.3844C39.5171 80.7694 39.6685 79.1256 39.6494 77.4794C39.5417 74.4251 37.6971 72.4329 36.15 72.1421C34.4349 71.8235 34.5125 71.996 34.1916 71.2902C32.8622 68.3806 15.6828 28.5392 15.9683 25.3531C16.1333 23.4987 17.0567 21.6774 19.885 20.131C30.1935 14.4917 38.7056 11.6393 49.6567 7.4868C55.3058 5.34541 57.3801 4.49503 61.9281 13.9878C66.9482 24.4666 66.4579 25.2725 70.8913 35.6209C72.8738 40.2479 71.042 37.4708 71.8494 42.2861C72.7608 47.7311 73.8635 50.9383 78.8671 56.1144ZM72.4038 36.9647C69.293 31.879 64.8716 16.5051 60.0254 9.2418C56.7113 4.28036 54.7235 5.27837 52.0361 6.06699C46.6619 7.64423 21.338 17.5558 17.5154 21.0146C13.662 24.5027 15.731 28.3501 17.6284 32.7474C17.9734 33.5458 21.6573 43.901 26.4267 54.8709C27.0044 56.2011 33.339 70.6575 33.5378 72.0759C32.913 72.115 32.3172 72.354 31.8386 72.7575C31.1825 71.529 20.8853 48.278 14.0807 29.4928C13.3536 27.4683 13.4057 25.2458 14.2269 23.2576C14.8784 21.6646 16.4225 20.4256 17.8754 19.365C22.8452 15.7421 52.5746 4.92813 53.6766 4.67354C58.4972 3.56179 60.7146 5.63389 65.6587 18.0055C68.7733 24.1502 69.3668 28.0436 70.6872 30.7921C73.3717 36.3802 72.8587 35.9004 72.4038 36.9647ZM83.1281 42.3306C81.9086 42.7388 81.349 43.6502 80.7743 44.1044C79.5021 45.1084 76.7958 38.3958 77.3155 36.6702C77.5618 35.8499 78.3979 34.7314 79.246 34.8527C80.5122 35.0342 80.0745 35.5064 83.4474 42.1069C83.3505 42.1942 83.2432 42.2693 83.1281 42.3306Z" fill="black"/>
<path id="Vector_49" d="M77.4128 89.8256C77.1648 90.766 76.852 91.6882 76.4765 92.5853C76.4448 92.6791 76.4223 92.7757 76.4095 92.8738C76.307 93.6421 77.7713 94.0451 78.1705 93.9494C78.532 93.8146 78.6872 93.4591 78.8431 93.0599C79.0924 92.4189 79.4118 91.3275 79.6076 90.6857C80.4907 91.1162 81.4096 91.469 82.3539 91.7402C83.1786 91.86 82.9888 91.8058 83.4234 90.9983C83.5245 90.8492 83.5914 90.6796 83.6196 90.5016C83.6477 90.3237 83.6363 90.1417 83.5861 89.9687C83.3255 89.4678 82.3697 89.0889 80.461 88.3937C80.5363 88.1632 81.1675 86.6402 81.3438 85.994C81.7445 84.5244 80.0392 84.2962 79.6867 84.4084C79.4871 84.4725 79.1286 84.5749 78.6533 86.0007L78.6593 85.9849L78.1223 87.5614C76.4464 87.047 75.5199 86.2267 74.8232 86.6123C74.6015 86.8193 74.4261 87.0707 74.3083 87.3502C74.1906 87.6297 74.1333 87.9308 74.14 88.234C74.317 88.8863 75.4401 89.1673 77.4128 89.8256ZM75.184 87.1953C75.5139 86.827 78.2556 88.6679 78.5938 88.1692C79.0352 87.3497 79.0058 86.8888 79.6626 85.4087C79.7082 85.3068 79.7703 85.2132 79.8464 85.1315C79.9714 85.0178 80.6041 85.3108 80.7036 85.3748C80.7164 85.9314 79.875 87.7218 79.7025 88.4058C79.521 89.1371 81.3717 89.159 82.8397 90.0063C83.1651 90.1939 83.141 90.4138 82.9466 90.7724C82.8796 90.8974 82.787 91.2326 82.4804 91.1896C81.5181 90.8903 80.5853 90.5036 79.6935 90.0342C79.6176 89.9962 79.5326 89.9802 79.4481 89.9879C79.3636 89.9956 79.283 90.0268 79.2152 90.0779C78.9269 90.6868 78.6984 91.3222 78.5328 91.9752C78.4085 92.4434 78.2247 92.8937 77.986 93.3152L77.9731 93.3273C77.9649 93.3258 77.9565 93.3258 77.9483 93.3273C77.6378 93.2508 77.3389 93.1333 77.0595 92.9778C77.0497 92.6765 77.9325 91.03 78.0598 89.7826C78.1004 89.3864 77.7193 89.3375 77.4218 89.2117C77.1446 89.0934 76.7439 88.9857 76.4953 88.9029C75.7256 88.6408 74.8383 88.4246 74.8029 88.0645C74.7283 88.0834 74.9573 87.4484 75.184 87.1953Z" fill="black"/>
<path id="Vector_50" d="M46.2366 45.6684C46.5073 45.8004 46.8015 45.8775 47.1022 45.8954C47.4029 45.9132 47.7041 45.8714 47.9886 45.7723C49.1599 45.2874 50.2793 44.6856 51.3298 43.9759C51.7863 43.75 51.9475 43.5782 51.9226 43.3944C51.8774 43.0683 51.6507 42.9757 51.3728 43.1421C50.6888 43.5534 50.1563 43.9089 48.9158 44.6199C48.2755 44.9875 47.5133 45.6466 46.5002 45.2172C46.4405 45.1844 46.3703 45.1762 46.3047 45.1944C46.239 45.2125 46.183 45.2556 46.1487 45.3144C46.1143 45.3732 46.1043 45.4432 46.1207 45.5093C46.1371 45.5754 46.1787 45.6325 46.2366 45.6684Z" fill="black"/>
</g>
</svg>
