<svg width="151" height="151" viewBox="0 0 151 151" fill="none" xmlns="http://www.w3.org/2000/svg">
<g id="Interface-Change-Settings--Streamline-Bruxelles">
<path id="Vector" d="M130.075 24.533C132.733 34.1546 130.071 41.0179 125.597 50.0558C124.969 51.3257 125.269 51.2496 127.766 52.5798C128.845 53.1545 126.72 54.0192 122.192 56.6607C118.001 59.1079 118.669 59.297 118.445 56.6607C117.767 48.6849 117.079 47.2922 118.184 47.7923C122.213 49.6159 121.052 49.9013 122.295 47.2222C126.656 37.8258 126.478 24.9119 119.109 17.4023C113.034 11.2116 112.046 12.5637 113.977 10.896C117.668 7.7122 117.853 7.8184 118.115 7.96754C119.546 8.90657 120.857 10.0156 122.02 11.2704C125.243 14.7156 128.106 17.4076 130.075 24.533Z" fill="#FFF59E"/>
<path id="Vector_2" d="M126.099 130.532C126.297 132.103 125.909 132.415 125.722 133.875C125.075 138.937 115.001 138.501 88.1364 143.366C82.012 144.474 75.4877 145.259 73.9052 145.579C71.0806 146.149 69.4461 146.143 67.5902 143.997C64.2271 140.113 58.8793 103.969 55.242 87.5688C54.0142 82.0312 54.0971 82.8235 53.9306 81.9912C53.9156 81.9159 50.5095 63.5374 50.3905 62.8174C49.6539 58.3734 50.5457 60.8259 48.6077 50.6032C47.41 44.2867 43.9091 23.6448 43.9656 18.8815C43.9897 16.8425 44.9448 16.0592 46.1138 14.9362C47.4266 13.6738 58.6262 12.098 58.6541 12.3104C61.215 11.9421 61.4605 11.7034 63.1651 12.0604C63.7563 12.1847 64.1736 11.9225 64.8093 12.849C65.6725 14.1084 66.0431 16.0381 68.3592 15.6645C68.6379 15.6193 70.3816 15.5658 71.7148 15.4386C75.3413 15.1443 78.9342 14.526 82.4504 13.5909C84.8328 13.1646 84.4841 8.63174 87.3222 8.27546C88.1666 8.17001 95.2031 6.88729 99.7006 7.29628C102.939 7.58853 103.542 8.20014 105.448 19.7598C105.913 22.5805 116.762 80.7356 116.892 81.2915C117.315 82.7015 117.661 84.1335 117.928 85.5811C118.123 86.6401 118.871 91.9179 119.237 92.6681C119.083 94.7356 124.799 120.223 126.099 130.532Z" fill="white"/>
<path id="Vector_3" d="M121.937 128.809C121.971 129.264 121.913 129.721 121.766 130.153C121.619 130.585 121.387 130.982 121.082 131.322C120.778 131.662 120.409 131.937 119.996 132.131C119.583 132.324 119.135 132.433 118.679 132.449C113.557 132.91 112.855 125.547 118.178 125.462C119.109 125.451 120.011 125.788 120.706 126.408C121.402 127.027 121.841 127.883 121.937 128.809Z" fill="#B2E2FF"/>
<path id="Vector_4" d="M119.726 117.412C119.884 117.832 119.952 118.28 119.927 118.727C119.902 119.175 119.784 119.613 119.581 120.012C119.378 120.412 119.094 120.765 118.748 121.049C118.401 121.334 117.999 121.542 117.567 121.663C114.836 122.553 112.472 120.708 112.498 118.273C112.522 116.071 114.909 114.309 117.437 115.064C118.676 115.429 119.148 116.194 119.726 117.412Z" fill="#B2E2FF"/>
<path id="Vector_5" d="M117.193 105.54C117.62 106.318 118.23 107.132 117.846 108.419C117.679 108.934 117.404 109.407 117.041 109.808C116.677 110.209 116.233 110.529 115.738 110.746C115.242 110.963 114.706 111.074 114.165 111.07C113.624 111.066 113.09 110.947 112.598 110.723C110.995 110.024 110.688 108.839 110.475 107.45C110.606 103.95 115.675 102.781 117.193 105.54Z" fill="#B2E2FF"/>
<path id="Vector_6" d="M115.35 94.1375C115.425 95.787 114.44 96.5417 113.069 97.1187C112.349 97.42 107.544 98.9392 106.698 98.653C107.16 98.096 107.487 97.4389 107.651 96.7338C107.816 96.0287 107.813 95.295 107.645 94.5909C107.144 92.2047 105.276 92.2409 105.874 91.7987C106.081 91.6481 111.991 90.5552 112.581 90.4941C114.413 90.6523 115.263 92.3169 115.35 94.1375Z" fill="#CBF7F7"/>
<path id="Vector_7" d="M108.091 127.491C109.274 127.027 115.273 125.421 114.516 126.231C113.889 127 113.539 127.957 113.522 128.948C113.505 129.94 113.821 130.908 114.421 131.698C115.686 133.164 116.972 132.73 111.951 133.538C109.616 133.914 109.122 134.023 108.661 133.975C106.863 133.791 106.077 132.047 105.999 130.215C105.939 128.813 106.789 128.002 108.091 127.491Z" fill="#CBF7F7"/>
<path id="Vector_8" d="M113.408 122.021C113.622 122.151 113.629 122.22 113.435 122.369C113.392 122.41 113.34 122.441 113.284 122.46C112.194 122.648 107.301 123.532 106.52 123.446C104.863 123.264 104.067 121.429 104.019 119.772C103.977 118.332 104.795 117.52 106.108 116.994C106.966 116.65 112.674 114.975 112.585 115.592C112.224 115.93 111.963 116.361 111.832 116.837C111.035 119.222 111.938 121.129 113.408 122.021Z" fill="#CBF7F7"/>
<path id="Vector_9" d="M110.545 79.7405C113.614 80.0568 114.322 84.6409 111.891 85.9598C110.03 86.9699 104.3 88.4785 104.262 88.1607C104.225 87.8428 105.292 87.3457 105.342 84.958C105.445 79.9612 97.3409 81.6228 110.545 79.7405Z" fill="#CBF7F7"/>
<path id="Vector_10" d="M111.47 111.202C111.776 111.36 111.405 111.605 111.248 111.635C105.025 112.787 104.219 113.162 103.081 111.904C102.182 110.911 102.168 110.081 102.035 108.967C101.986 106.361 105.041 105.769 108.544 104.945C109.424 104.739 111.049 104.339 110.484 104.901C109.046 106.333 109.185 110.026 111.47 111.202Z" fill="#CBF7F7"/>
<path id="Vector_11" d="M110.856 72.5348C110.937 74.3697 109.719 75.1146 108.127 75.7217C107.607 75.9198 102.455 77.555 102.261 77.1807C102.147 76.9592 103.302 76.5028 103.299 74.0518C103.299 70.8981 100.695 70.7475 101.378 70.3761C103.614 69.7729 105.88 69.2842 108.166 68.9119C109.982 69.1145 110.778 70.7685 110.856 72.5348Z" fill="#CBF7F7"/>
<path id="Vector_12" d="M107.79 59.2156C108.355 60.2445 108.814 60.9134 108.521 62.0703C108.38 62.6027 108.129 63.0993 107.782 63.5273C107.436 63.9552 107.002 64.3049 106.511 64.5531C106.019 64.8014 105.481 64.9426 104.93 64.9675C104.38 64.9924 103.831 64.9004 103.319 64.6975C101.716 64.0701 101.412 62.8898 101.198 61.5039C101.22 57.9683 106.421 56.7172 107.79 59.2156Z" fill="#B2E2FF"/>
<path id="Vector_13" d="M104.705 92.6351C106.313 93.2995 106.621 94.4956 106.842 95.8868C106.673 99.4269 101.651 100.516 100.203 97.7879C99.8213 97.0685 99.2669 96.3289 99.5396 95.172C99.6734 94.641 99.9212 94.1455 100.266 93.7199C100.61 93.2943 101.043 92.9488 101.535 92.7074C102.026 92.466 102.565 92.3345 103.112 92.322C103.66 92.3095 104.203 92.4164 104.705 92.6351Z" fill="#B2E2FF"/>
<path id="Vector_14" d="M102.797 81.7104C104.504 82.3882 104.876 83.6785 105.113 85.1684C104.949 88.9827 99.6212 90.1848 98.0274 87.2811C97.6327 86.5611 96.9729 85.6617 97.3691 84.2999C97.534 83.7587 97.8098 83.2578 98.1789 82.8291C98.548 82.4003 99.0023 82.0531 99.5129 81.8095C100.024 81.5659 100.579 81.4313 101.145 81.4142C101.71 81.3971 102.273 81.498 102.797 81.7104Z" fill="#B2E2FF"/>
<path id="Vector_15" d="M102.345 74.4326C102.345 77.1819 98.6849 78.9835 96.4449 77.2195C95.7516 76.5397 95.2758 75.6694 95.0778 74.7188C94.6417 70.0948 102.345 69.4215 102.345 74.4326Z" fill="#B2E2FF"/>
<path id="Vector_16" d="M102.136 65.2113C102.481 65.4079 102.183 65.5721 101.815 65.667C100.579 65.9871 96.1965 66.8879 95.5502 66.9746C92.7023 66.7011 92.038 62.5351 93.8344 61.1161C95.273 59.9787 98.8727 59.2074 100.822 58.6982C100.891 58.6802 100.729 58.6839 101.339 58.6839C99.4368 61.5243 100.308 64.1696 102.136 65.2113Z" fill="#CBF7F7"/>
<path id="Vector_17" d="M96.6999 40.0951C97.6972 40.6375 96.3903 43.1314 94.7483 46.5977C94.3529 47.4322 93.9951 47.5106 93.2208 47.317C90.4113 46.618 90.1612 46.3468 89.756 46.7897C88.1976 48.5003 86.9872 48.5221 86.9458 49.4772C86.6904 55.3666 87.7396 54.2526 84.427 55.3756C84.3517 55.4013 80.3129 56.9318 79.339 56.7879C78.9217 56.7254 79.0874 56.8256 77.5991 53.7577C76.9784 52.4773 77.5042 53.0798 74.4989 51.4981C73.6153 51.0341 73.3833 50.7117 70.7893 53.0761C68.6803 54.996 69.2828 55.5926 65.5921 51.7105C65.1951 51.2925 63.9169 49.4983 63.6043 49.0569C63.0952 48.3361 63.5712 48.1418 65.0995 46.4553C66.0787 45.3767 66.3965 45.0159 66.2903 43.7942C66.0041 40.4891 66.575 40.4431 65.8015 40.1034C62.9445 38.8426 67.0194 40.8152 61.6181 38.1729C60.9937 37.8671 60.6788 37.8717 60.7421 37.437C61.2033 35.2477 61.9554 33.1299 62.9784 31.1402C63.3708 30.3116 63.6616 29.9215 64.7665 30.0299C69.9841 30.5414 67.3207 32.1465 71.834 28.4286C72.3914 27.9691 72.1707 26.7519 72.0818 24.9977C71.892 21.2316 71.5154 22.3516 76.125 21.2519C77.5548 20.9447 79.0064 20.7497 80.4666 20.6689C81.0172 20.6027 81.1595 20.8196 81.3765 22.4571C81.5596 23.3032 81.6889 24.1601 81.7636 25.0225C81.7681 25.7803 82.2344 25.9889 85.3851 27.1044C86.5255 27.5082 86.7891 27.0389 89.5609 25.3502C91.2617 24.3145 91.4794 24.2204 91.6918 24.3153C92.7644 24.71 94.5065 27.3959 95.0865 28.3781C95.7441 29.4914 96.556 30.4992 95.5452 31.3232C91.279 34.8008 92.8404 32.7483 92.5263 36.9151C92.4254 38.2038 93.3436 38.2701 96.6999 40.0951ZM86.4916 40.2104C87.073 36.2839 85.2548 34.2321 82.2668 32.6413C81.3544 32.3172 80.3946 32.1464 79.4264 32.1359C76.3909 32.035 72.8553 34.791 72.1375 39.3344C71.8069 41.4283 74.1207 45.974 78.9617 46.2504C80.4971 46.2923 81.998 45.7903 83.1993 44.8329C84.7468 43.6681 85.8967 42.0537 86.4916 40.2104Z" fill="#B2E2FF"/>
<path id="Vector_18" d="M84.7086 8.5026C85.0686 8.45213 84.8389 8.59449 83.9878 10.07C82.5717 12.527 83.7272 12.1971 80.2405 13.0076C77.2035 13.642 74.13 14.0872 71.0377 14.3408C67.5488 14.6089 67.2483 14.868 66.602 13.696C65.302 11.3339 65.3163 12.039 64.8629 11.3686C65.3283 11.1328 78.6535 9.18878 80.5531 9.12626C81.9501 9.0067 83.3381 8.7984 84.7086 8.5026Z" fill="#D8E9FF"/>
<path id="Vector_19" d="M67.7893 99.3264C67.8733 99.5979 67.8481 99.8914 67.7191 100.145C67.5901 100.398 67.3675 100.591 67.0986 100.682C64.9451 101.365 64.3998 101.704 63.2752 101.789C62.1507 101.873 62.3375 101.625 62.1665 101.379C61.6451 99.9773 61.2912 98.5191 61.112 97.0344C61.0481 96.8171 61.0682 96.5837 61.1682 96.3805C61.2682 96.1772 61.4409 96.0189 61.652 95.937C62.9986 95.2456 64.4623 94.8114 65.968 94.6565C66.5705 94.6814 66.7596 94.8486 66.9359 95.421C67.3456 96.6923 67.6314 98.0002 67.7893 99.3264ZM66.3137 98.2192C66.2791 95.7607 62.519 95.8707 62.6922 98.516C62.8466 100.887 66.3476 100.638 66.3137 98.2192Z" fill="#FFE0E1"/>
<path id="Vector_20" d="M63.7535 85.0801C64.3839 85.248 64.9432 85.6152 65.3479 86.127C65.7525 86.6387 65.9809 87.2676 65.9989 87.9198C66.0165 88.6344 65.7969 89.3347 65.3744 89.9113C65.2502 90.0009 64.9707 89.7877 64.8261 89.7312C64.1015 89.4503 64.8615 89.4819 64.909 88.3114C65.0234 85.4492 61.9714 85.7324 61.5858 87.4987C61.5547 88.0739 61.6374 88.6495 61.829 89.1927C61.8396 89.4819 60.4507 90.5485 60.3354 88.4832C60.1991 86.0284 62.0143 84.7547 63.7535 85.0801Z" fill="#FF9C9F"/>
<path id="Vector_21" d="M63.6978 135.116C65.3466 143.433 66.5495 143.752 66.9095 145.155C62.4332 144.975 61.4698 138.173 60.2669 133.864C56.6756 121 43.471 41.2347 41.7657 28.8518C41.3446 25.793 39.6793 19.6256 43.1727 17.247C43.2766 17.1762 43.3346 17.1912 43.3331 17.3261C43.3316 17.4609 43.3798 17.6665 43.3075 17.7675C42.5543 18.8114 43.5493 24.0839 43.5666 25.5022C43.5753 25.9058 43.6358 26.3065 43.7466 26.6946C44.2498 28.5219 44.5202 32.883 45.0437 35.0395C45.1969 35.9066 45.3008 36.7817 45.3548 37.6606C46.6797 48.3232 48.1417 49.5675 49.3129 61.811C49.4108 62.8181 51.0491 72.0826 51.3391 73.0475C52.0584 75.448 51.373 74.8477 52.2384 78.1084C52.8297 80.3334 52.2128 79.251 54.3632 87.9002C56.482 96.4243 58.4487 109.808 58.7673 111.009C59.5071 113.981 60.0772 116.992 60.4748 120.029C62.15 129.531 63.4078 133.654 63.6978 135.116Z" fill="#D8E9FF"/>
<path id="Vector_22" d="M64.072 88.5848C64.2784 88.9916 63.5515 91.1864 63.2676 91.8756C63.132 92.2055 62.8646 92.1716 62.6017 92.0361C61.9894 91.7197 61.8048 92.543 63.0032 88.2971C63.0823 88.0161 63.7971 88.3137 64.072 88.5848Z" fill="#FF9C9F"/>
<path id="Vector_23" d="M63.0921 77.8434C63.7549 78.1213 63.7534 78.116 63.6457 78.5966C63.1539 80.7847 62.6756 82.5939 60.8279 82.5841C60.2706 82.5841 59.9241 82.4546 60.0815 82.3137C60.3101 82.1129 60.4776 81.8519 60.5651 81.5605C60.6713 81.0927 60.4784 81.2547 59.4752 80.6822C59.3366 80.6031 58.8153 80.219 58.9841 80.1008C59.1068 80.0156 59.5542 80.0782 59.5866 79.9697C59.7102 79.5931 59.3456 78.9152 59.4209 77.9405C59.4556 77.4886 60.9771 79.4176 61.3138 78.5777C61.3818 78.4124 61.4819 78.2621 61.6083 78.1355C61.7346 78.009 61.8848 77.9087 62.0501 77.8404C62.2154 77.7722 62.3926 77.7373 62.5714 77.7378C62.7502 77.7383 62.9272 77.7742 63.0921 77.8434Z" fill="#CBF7F7"/>
<path id="Vector_24" d="M61.3871 70.1994C61.5724 70.2747 61.4767 71.1462 61.3494 71.2607C61.2221 71.3752 60.6791 71.2607 60.4079 71.3202C59.852 71.4354 60.0486 71.9551 60.0486 72.5058C60.0486 74.0039 60.4621 73.7742 58.9022 73.8081C58.4126 73.9 58.5776 73.0277 58.5301 71.8497C58.5158 71.4912 58.4006 71.4686 58.1701 71.4558C57.8063 71.4824 57.4407 71.4702 57.0794 71.4196C56.9815 71.3669 56.9401 70.2589 57.1646 70.1889C57.5721 70.1301 57.7212 70.1941 58.2462 70.1037C58.6928 69.8288 57.9667 68.7156 58.7644 67.5594C59.1854 66.9493 60.6376 66.2985 60.7905 66.4725C61.0026 66.9076 61.183 67.3575 61.3306 67.8185C61.6108 68.5167 59.7805 68.2064 60.0908 69.9124C60.1819 70.4171 60.9133 70.0488 61.3871 70.1994Z" fill="#B2E2FF"/>
<path id="Vector_25" d="M38.3871 6.43197C37.2919 13.7751 37.2768 15.6867 36.8325 15.6867C36.1109 15.2145 35.4333 14.6783 34.8078 14.0847C33.7533 13.1439 33.7232 13.1627 33.0837 14.047C27.3276 22.0205 25.6758 27.9596 25.8024 34.0923C26.0374 45.4546 33.8482 50.9395 33.0483 51.341C27.0489 54.3538 27.3404 54.2394 27.1732 54.0036C24.9422 51.4713 24.6575 50.645 23.1586 47.944C20.7279 43.5633 19.8715 41.6471 19.5175 33.9101C19.6538 27.214 21.5271 23.1255 24.8895 17.8831C29.8976 10.0775 31.9968 11.6631 28.8484 9.18121C27.3464 7.99866 27.3013 8.04009 32.054 6.67677C39.9538 4.41034 38.7471 4.02017 38.3871 6.43197Z" fill="#FFF59E"/>
<path id="Vector_26" d="M132.03 32.2488C131.914 34.0874 132.1 40.4664 126.427 50.5806C126.201 50.9783 126.448 50.903 128.105 51.7413C131.789 53.6063 126.111 55.0713 119.298 59.6433C119.169 59.7304 119.021 59.7844 118.867 59.8003C118.712 59.8163 118.556 59.7938 118.413 59.7348C118.269 59.6758 118.142 59.5822 118.043 59.4622C117.944 59.3423 117.877 59.1998 117.847 59.0475C117.792 58.7778 116.817 50.8706 116.826 47.8442C116.819 47.6656 116.86 47.4885 116.944 47.3307C117.027 47.1729 117.151 47.0399 117.303 46.9452C117.454 46.8504 117.628 46.7973 117.806 46.7912C117.985 46.7851 118.162 46.8261 118.32 46.9102C121.126 48.1424 120.777 48.4919 121.265 47.5421C122.383 45.1922 123.167 42.6972 123.593 40.1297C125.609 28.2379 122.317 19.527 112.321 12.742C111.95 12.4905 111.761 12.3157 111.961 11.8224C112.294 11.2298 112.764 10.7248 113.33 10.3491C117.518 6.60784 117.785 6.54833 118.22 6.8338C121.439 8.94281 121.818 9.73444 125.004 13.0388C128.828 17.0067 132.012 24.2783 132.03 32.2488ZM130.075 24.5329C128.1 17.3999 125.248 14.717 122.023 11.2702C120.858 10.0175 119.547 8.90862 118.119 7.96739C117.86 7.81675 117.67 7.7113 113.98 10.8959C112.051 12.5613 113.034 11.21 119.112 17.4022C126.543 24.972 126.607 37.9258 122.298 47.222C121.057 49.9004 122.212 49.6127 118.187 47.7922C117.082 47.2928 117.768 48.6915 118.448 56.6606C118.674 59.2968 118.003 59.1085 122.196 56.6606C129.32 52.4998 129.154 53.314 125.648 51.4137C123.515 50.2567 134.389 40.1116 130.075 24.5329Z" fill="black"/>
<path id="Vector_27" d="M127.026 133.29C126.569 137.241 123.243 138.279 118.99 139.265C117.57 139.595 117.484 139.423 114.595 140.089C113.781 140.285 112.946 140.38 112.109 140.372C86.0975 144.979 80.3294 145.686 79.65 145.829C78.8794 146.05 70.9955 147.376 67.5307 146.464C65.7599 145.998 65.2711 145.831 64.8606 145.514C63.9836 145.055 63.216 144.413 62.6105 143.63C62.0049 142.847 61.5757 141.942 61.3521 140.978C56.3523 121.217 59.1309 134.501 54.9415 112.094C54.6726 110.654 54.0203 108.508 53.7522 106.187C52.5116 95.4455 47.1374 72.4867 45.5496 58.0227C45.5067 57.6325 45.0487 55.6026 44.7813 54.1188C44.4047 52.0399 43.229 44.3217 43.2252 44.3021C42.5473 40.5127 42.9028 44.1726 42.4516 39.6962C42.4245 39.4266 42.2618 38.6169 42.2716 38.4579C42.3387 37.3801 41.9651 37.0185 41.895 35.3148C41.8099 34.0338 41.5645 32.7685 41.1644 31.5487C40.964 30.4909 40.817 29.4238 40.7238 28.3513C39.5435 20.337 39.6399 18.8736 44.1818 15.0239C46.5732 12.997 52.1576 11.962 55.3045 11.544C58.5162 11.1177 92.176 6.25266 98.1625 6.30312C100.196 6.32045 101.858 6.56675 102.793 7.19945C104.087 8.07318 105.03 11.0152 105.132 12.6814C105.207 13.8541 105.305 12.0509 106.931 22.6833C112.108 56.5359 127.879 125.889 127.026 133.29ZM125.732 133.875C125.912 132.414 126.306 132.102 126.108 130.532C125.807 128.158 122.422 108.601 121.75 106.59C121.334 105.35 120.13 98.0494 120.119 98.0298C119.912 96.9497 119.165 94.2328 119.243 92.7144C119.242 92.6935 119.242 92.6727 119.243 92.6518C118.899 92.0011 118.105 86.492 117.935 85.5648C117.664 84.1169 117.318 82.6839 116.899 81.2715C116.77 80.7134 105.92 22.5673 105.45 19.739C103.545 8.17788 102.948 7.56928 99.7036 7.27628C95.2054 6.8703 88.1689 8.15227 87.3253 8.25546C84.4856 8.61399 84.8396 13.1514 82.4527 13.5702C78.9333 14.4908 75.3417 15.1092 71.7171 15.4185C70.3839 15.5428 68.6402 15.5971 68.3615 15.6445C66.0431 16.0121 65.6733 14.0914 64.8101 12.832C64.1752 11.9055 63.7556 12.1684 63.1658 12.0441C61.4613 11.6856 61.2135 11.9251 58.6548 12.2942C58.6142 11.9831 47.3385 13.7426 46.1145 14.9192C44.9463 16.043 43.9905 16.8263 43.9664 18.8653C43.9144 23.206 47.7972 46.9708 48.0337 47.5372C48.204 47.9394 48.3742 49.363 48.6062 50.5862C50.545 60.8096 49.6524 58.3587 50.389 62.8011C50.9961 66.4602 54.0429 82.146 55.2413 87.5526C58.7867 103.547 64.2045 140.095 67.5729 143.991C69.4273 146.137 71.0626 146.146 73.8886 145.573C74.6908 145.409 83.6518 144.168 88.1199 143.36C115.078 138.483 125.082 138.916 125.717 133.869L125.732 133.875ZM83.9878 10.0707C85.5929 7.28381 85.2923 8.97252 80.5531 9.12769C78.6535 9.1902 65.3283 11.1343 64.8628 11.37C65.3148 12.0426 65.302 11.3354 66.602 13.6974C67.2483 14.871 67.5488 14.6103 71.0377 14.3422C74.13 14.089 77.2035 13.6437 80.2405 13.009C83.7234 12.2023 82.5725 12.5285 83.9878 10.0707ZM66.9003 145.156C66.5403 143.76 65.314 143.439 63.6871 135.116C63.4009 133.655 62.1505 129.542 60.4746 120.032C60.0752 116.996 59.5052 113.984 58.7671 111.012C58.447 109.807 56.4863 96.427 54.363 87.9036C52.2081 79.2506 52.8325 80.333 52.2382 78.1117C51.369 74.8556 52.0582 75.4514 51.3389 73.0509C51.0489 72.083 49.4106 62.8184 49.3127 61.8114C48.1083 49.192 46.7412 48.8214 45.3545 37.661C45.3005 36.7821 45.1967 35.907 45.0435 35.0398C44.5162 32.8811 44.2496 28.5223 43.7464 26.6949C43.6351 26.307 43.5746 25.9062 43.5664 25.5026C43.5513 24.1363 42.5684 18.7899 43.3073 17.7678C43.3826 17.6669 43.3291 17.4763 43.3329 17.3264C43.3367 17.1766 43.2764 17.1758 43.1725 17.2474C39.6791 19.626 41.3437 25.7881 41.7655 28.8522C44.4168 48.1202 57.2893 123.176 60.2667 133.864C61.4666 138.172 62.4239 144.983 66.9003 145.156Z" fill="black"/>
<path id="Vector_28" d="M120.885 132.702C119.808 133.393 119.545 133.356 111.292 134.577C109.549 134.834 108.371 135.153 107.026 134.236C106.166 133.69 105.554 132.828 105.321 131.836C104.207 126.73 108.011 126.057 116.531 124.676C117.221 124.468 117.947 124.405 118.663 124.491C119.378 124.576 120.069 124.808 120.691 125.172C123.161 126.737 123.788 130.839 120.885 132.702ZM118.68 132.449C119.136 132.433 119.583 132.325 119.996 132.131C120.409 131.938 120.779 131.663 121.083 131.323C121.387 130.983 121.62 130.585 121.766 130.153C121.913 129.722 121.971 129.265 121.937 128.81C121.842 127.883 121.404 127.026 120.708 126.407C120.012 125.787 119.11 125.45 118.179 125.463C112.855 125.549 113.557 132.91 118.68 132.449ZM114.516 126.232C115.269 125.423 109.273 127.029 108.091 127.491C106.788 128.001 105.938 128.817 105.999 130.215C106.074 132.047 106.855 133.786 108.661 133.976C109.122 134.024 109.608 133.914 111.951 133.538C116.972 132.731 115.678 133.157 114.421 131.698C113.823 130.907 113.508 129.939 113.525 128.948C113.542 127.957 113.891 127.001 114.516 126.232Z" fill="black"/>
<path id="Vector_29" d="M120.213 116.21C121.457 118.121 120.665 120.889 118.814 122.147C117.636 122.949 116.07 123.022 114.695 123.178C111.532 123.538 109.478 124.258 106.475 124.258C105.201 124.258 103.148 122.681 103.148 119.94C103.148 115.844 107.861 115.56 111.425 114.724C114.853 113.92 118.029 112.846 120.213 116.21ZM117.556 121.663C121.155 120.492 120.222 115.899 117.417 115.06C114.888 114.307 112.499 116.067 112.479 118.27C112.459 120.708 114.827 122.552 117.558 121.663H117.556ZM113.433 122.372C113.627 122.221 113.613 122.152 113.406 122.023C111.942 121.119 111.03 119.223 111.834 116.839C111.962 116.361 112.223 115.93 112.587 115.594C112.672 114.977 106.964 116.653 106.109 116.996C104.797 117.523 103.979 118.329 104.021 119.774C104.069 121.431 104.867 123.264 106.521 123.448C107.302 123.535 112.231 122.644 113.286 122.462C113.341 122.442 113.392 122.412 113.434 122.372H113.433Z" fill="black"/>
<path id="Vector_30" d="M118.641 106.764C118.848 107.602 118.785 108.484 118.462 109.285C118.14 110.085 117.573 110.764 116.842 111.224C115.341 112.233 113.992 111.973 107.765 113.13C106.871 113.343 105.959 113.475 105.041 113.525C102.48 113.525 101.168 111.217 101.168 109.351C101.168 105.375 105.212 104.581 111.672 103.414C115.124 102.79 117.824 103.147 118.641 106.764ZM117.853 108.41C118.236 107.13 117.627 106.317 117.2 105.531C115.689 102.768 110.613 103.941 110.482 107.428C110.696 108.821 111.004 109.997 112.605 110.701C113.096 110.927 113.63 111.046 114.17 111.052C114.711 111.057 115.247 110.948 115.742 110.732C116.238 110.515 116.682 110.197 117.046 109.797C117.41 109.397 117.685 108.924 117.853 108.41ZM111.248 111.635C111.405 111.605 111.776 111.359 111.47 111.202C109.241 110.06 109 106.378 110.484 104.904C111.049 104.342 109.424 104.742 108.544 104.948C105.041 105.772 101.986 106.364 102.035 108.97C102.168 110.081 102.186 110.911 103.08 111.907C104.213 113.161 105.025 112.787 111.25 111.635H111.248Z" fill="black"/>
<path id="Vector_31" d="M116.004 92.5644C116.319 94.1695 116.343 94.3058 115.91 95.4703C115.781 96.0876 115.419 96.6317 114.901 96.9903C114.534 97.4225 114.051 97.7389 113.508 97.9009C112.077 98.5713 105.018 100.236 103.012 100.236C102.056 100.248 101.122 99.9472 100.352 99.3787C99.5834 98.8103 99.0215 98.0057 98.7527 97.0879C98.4839 96.1701 98.523 95.1895 98.8639 94.296C99.2048 93.4025 99.8289 92.6451 100.641 92.1396C102.079 91.1921 103.969 91.18 105.612 90.9058C108.603 90.4049 110.301 89.7429 112.908 89.7361C113.652 89.8326 114.348 90.1558 114.902 90.6618C115.456 91.1678 115.841 91.8321 116.004 92.5644ZM113.067 97.1184C114.437 96.5399 115.426 95.7867 115.347 94.1371C115.261 92.3166 114.412 90.652 112.578 90.4938C111.985 90.5548 106.078 91.6447 105.871 91.7984C105.274 92.2405 107.139 92.2051 107.642 94.5906C107.811 95.2946 107.814 96.0285 107.65 96.7338C107.485 97.439 107.158 98.0961 106.695 98.6527C107.544 98.9389 112.353 97.4204 113.07 97.1184H113.067ZM106.839 95.8861C106.618 94.4949 106.308 93.3011 104.702 92.6345C104.2 92.4145 103.656 92.3067 103.109 92.3186C102.561 92.3305 102.022 92.4618 101.53 92.7034C101.038 92.9449 100.605 93.2909 100.261 93.7172C99.9164 94.1434 99.6693 94.6397 99.5365 95.1713C99.2638 96.3282 99.8182 97.0717 100.2 97.7872C101.659 100.516 106.673 99.4285 106.842 95.8838L106.839 95.8861Z" fill="black"/>
<path id="Vector_32" d="M114.129 82.9158C114.227 83.5152 114.164 84.1298 113.945 84.6965C113.726 85.2631 113.361 85.7613 112.886 86.1395C111.338 87.6656 109.174 87.8878 107.613 88.2952C105.555 88.9574 103.422 89.3599 101.263 89.4936C96.1416 89.4936 95.2121 83.724 98.7552 81.4455C99.5943 80.9062 99.6169 80.87 108.687 79.2273C110.198 78.9531 112.159 78.4153 113.591 80.8196C113.89 81.4822 114.072 82.1913 114.129 82.9158ZM111.891 85.9595C114.314 84.6429 113.614 80.0566 110.545 79.7402C109.687 79.8622 103.71 80.8015 103.378 81.0802C103.077 81.3325 105.7 82.03 105.696 84.9826C105.696 87.3718 104.703 87.6693 104.74 87.9714C104.778 88.2734 110.03 86.9711 111.891 85.9595ZM104.393 83.4626C103.058 80.8459 98.5089 81.0599 97.5621 84.2994C96.6847 87.301 100.212 89.8627 103.152 88.1604C103.897 87.6646 104.435 86.9129 104.665 86.0474C104.894 85.1818 104.798 84.2624 104.395 83.4626H104.393Z" fill="black"/>
<path id="Vector_33" d="M111.684 72.5686C111.641 73.2811 111.422 73.9717 111.045 74.5778C110.668 75.1839 110.146 75.6863 109.525 76.0395C108.085 76.8838 99.9895 78.8173 98.746 78.8173C93.4885 78.8173 92.7722 72.5551 96.6648 70.5267C97.9348 69.8646 98.41 70.1056 104.203 68.859C105.604 68.43 107.06 68.2018 108.525 68.1812C109.881 68.1857 111.62 69.7147 111.684 72.5686ZM108.127 75.7246C109.72 75.1175 110.937 74.3688 110.857 72.5378C110.782 70.7617 109.982 69.1182 108.158 68.9133C105.872 69.2848 103.606 69.7736 101.369 70.3775C100.686 70.7489 103.289 70.8995 103.291 74.0532C103.291 76.5057 102.136 76.9614 102.253 77.1821C102.452 77.5595 107.608 75.9242 108.127 75.7246ZM96.4456 77.2197C98.6767 78.9951 102.346 77.1821 102.346 74.4328C102.346 69.4217 94.6266 70.0966 95.0786 74.7168C95.2805 75.6666 95.7557 76.5365 96.4456 77.2197Z" fill="black"/>
<path id="Vector_34" d="M107.224 65.2288C106.224 65.799 106.396 65.7064 98.2783 67.3107C97.3422 67.5416 96.3859 67.6819 95.4229 67.7295C93.7357 67.7295 92.0101 66.3165 92.0101 63.3021C92.0101 60.2041 94.8188 59.2807 102.435 57.4707C103.993 57.1009 106.148 56.3936 107.933 58.0499C108.474 58.5087 108.896 59.0919 109.162 59.7495C109.428 60.407 109.53 61.1193 109.461 61.8252C109.391 62.5311 109.151 63.2095 108.762 63.8024C108.372 64.3952 107.845 64.8847 107.224 65.2288ZM108.521 62.0729C108.814 60.9159 108.355 60.2471 107.791 59.2182C106.421 56.7182 101.22 57.9708 101.199 61.5064C101.412 62.8916 101.716 64.0734 103.32 64.7001C103.832 64.9032 104.381 64.9953 104.931 64.9704C105.482 64.9455 106.02 64.8041 106.512 64.5556C107.004 64.307 107.437 63.957 107.783 63.5287C108.13 63.1003 108.381 62.6033 108.521 62.0706V62.0729ZM101.818 65.6695C102.178 65.5783 102.483 65.4104 102.138 65.2138C100.309 64.1721 99.439 61.5268 101.341 58.6864C100.164 58.6864 95.2444 60.0068 93.8366 61.1185C92.0379 62.5391 92.7068 66.6961 95.5524 66.977C96.1987 66.8859 100.582 65.982 101.818 65.6672V65.6695Z" fill="black"/>
<path id="Vector_35" d="M100.273 9.67152C100.704 11.3798 100.475 11.5101 100.032 11.5674C94.3439 12.304 94.8847 12.6475 94.6843 10.5129H94.7145C94.5924 9.4335 94.4056 9.61955 99.3799 9.07347C99.4783 9.04522 99.5816 9.03878 99.6828 9.05459C99.7839 9.07041 99.8804 9.10811 99.9654 9.16506C100.05 9.222 100.122 9.29682 100.175 9.3843C100.228 9.47177 100.262 9.56979 100.273 9.67152ZM98.8895 11.2472C99.5049 11.1862 99.9282 11.2058 99.8348 10.5927C99.6518 9.3981 99.5072 9.49527 98.9543 9.57436C98.5589 9.63009 98.2116 9.64968 98.2764 10.0112C98.5099 11.3211 98.4218 11.2616 98.8895 11.2472Z" fill="black"/>
<path id="Vector_36" d="M96.9486 30.142C97.1482 30.9216 96.5012 31.418 95.995 31.9497C94.2513 33.7838 93.3587 33.6769 93.3587 34.5634C93.3587 34.9039 93.4793 35.1825 93.4793 35.6051C93.4793 38.1517 93.2714 37.1394 96.9162 39.2205C98.7525 40.2698 98.2509 41.1992 95.6854 46.4567C95.1763 47.4999 94.8396 48.2109 93.5983 48.2109C92.4594 48.2109 90.7556 47.5232 90.2698 47.5232C89.7298 47.5232 89.6823 48.0693 88.4169 48.9483C87.8949 49.3106 87.6554 49.3084 87.6554 50.1038C87.6554 55.3115 88.0666 54.8935 85.752 55.7672C84.7676 56.1393 79.2585 58.0939 78.4097 57.4747C78.1335 57.1811 77.9252 56.8304 77.7996 56.4473C75.924 52.7061 77.368 53.7215 74.7053 52.5487C73.4475 51.9951 73.6034 51.861 72.3101 52.8869C69.3485 55.2377 69.7138 55.9683 68.172 55.2618C67.3363 54.7805 66.6107 54.1296 66.0419 53.3509C65.0841 52.5076 64.2549 51.5289 63.5803 50.4457C63.218 49.9072 62.6343 49.2941 62.6343 48.6086C62.6343 46.892 65.486 45.8662 65.486 44.1518C65.486 43.8784 65.4717 44.121 65.3602 41.8508C65.2932 40.495 65.7217 41.1842 61.3335 39.0134C60.6338 38.6669 59.7969 38.3995 59.7969 37.4934C59.7969 36.1866 62.1899 29.5997 63.2617 29.1704C64.6439 28.6175 68.0477 29.8106 68.413 29.8106C68.8807 29.8106 69.0479 29.434 69.3485 29.1576C70.6711 27.9524 71.2217 28.2379 71.2217 27.209C71.2217 23.2102 69.933 21.4612 73.5642 20.7984C75.1512 20.5091 78.5302 19.6829 80.4117 19.6829C82.0311 19.6829 81.8624 20.2643 82.0311 21.1893C82.7166 24.9501 82.6021 25.0812 83.1956 25.3275C87.7428 27.2105 85.5132 26.3526 90.4423 23.9189C90.8506 23.658 91.3091 23.4858 91.7883 23.4135C93.2043 23.4248 96.5622 28.6333 96.9486 30.142ZM94.7484 46.5975C96.3904 43.1327 97.6988 40.6403 96.7 40.095C93.3474 38.2632 92.4278 38.2044 92.528 36.9089C92.8503 32.7406 91.264 34.7999 95.5468 31.317C96.5592 30.4938 95.7457 29.4852 95.0881 28.372C94.3303 27.0843 93.4416 25.8783 92.4361 24.7731C91.5796 23.9513 91.3687 24.2458 89.5633 25.3433C86.7899 27.0312 86.5278 27.5028 85.3867 27.0975C82.2368 25.9805 81.7713 25.7734 81.7652 25.0164C81.6883 24.1539 81.559 23.2969 81.3781 22.4502C81.1612 20.8097 81.0188 20.5965 80.4682 20.662C79.008 20.7429 77.5564 20.9378 76.1267 21.245C71.517 22.3455 71.8936 21.2232 72.0842 24.9908C72.1723 26.745 72.393 27.963 71.8356 28.4217C67.3223 32.1396 69.988 30.5344 64.7682 30.023C63.6639 29.9153 63.3725 30.3025 62.98 31.1333C61.9567 33.1245 61.2046 35.2438 60.7437 37.4347C60.6805 37.87 60.9953 37.8647 61.6197 38.1698C67.0165 40.8113 62.9446 38.8356 65.8031 40.101C66.5766 40.443 66.0057 40.4874 66.2919 43.7918C66.3981 45.012 66.0765 45.3788 65.1011 46.4529C63.5705 48.1371 63.096 48.3307 63.606 49.0545C63.9178 49.4967 65.1967 51.2908 65.5944 51.7081C69.2852 55.5887 68.6871 54.9936 70.7916 53.0737C73.3857 50.7101 73.6185 51.0317 74.5012 51.4957C77.5066 53.0774 76.9808 52.4749 77.6015 53.7553C79.0898 56.8224 78.9241 56.723 79.3414 56.7848C80.3206 56.9302 84.351 55.3989 84.4294 55.3725C87.7435 54.2495 86.6943 55.3635 86.9481 49.4748C86.9895 48.5228 88.2067 48.5002 89.7584 46.7866C90.1613 46.3422 90.4189 46.5998 93.2232 47.3138C94.0012 47.5059 94.353 47.4321 94.7484 46.5975Z" fill="black"/>
<path id="Vector_37" d="M92.0887 130.344C92.5187 130.101 93.29 130.215 93.287 130.767C93.287 131.101 93.0731 131.486 92.8245 131.512C91.3543 131.662 90.0919 133.633 89.0155 132.231C88.6894 131.805 88.657 131.941 87.9204 132.553C87.2425 133.114 86.954 132.697 86.5578 132.501C85.736 132.094 85.736 132.426 84.8774 133.59C83.9946 134.783 83.511 133.187 82.4919 132.892C82.1227 132.786 81.7283 132.813 81.377 132.968C81.0257 133.123 80.7399 133.397 80.569 133.74C80.5223 133.834 80.4936 133.935 80.4515 134.03C80.4157 134.136 80.3417 134.223 80.2441 134.277C80.1466 134.33 80.0326 134.344 79.9249 134.317C79.8171 134.291 79.7234 134.224 79.6623 134.131C79.6012 134.039 79.5772 133.926 79.5951 133.817C79.6915 133.241 79.9867 132.718 80.4292 132.339C80.8718 131.959 81.4336 131.746 82.0167 131.738C84.2567 132.066 83.8681 132.96 84.3418 132.37C85.1869 131.315 85.3059 130.997 85.9823 131.152C87.2116 131.433 87.1702 131.692 87.8714 131.058C88.1643 130.848 88.525 130.755 88.883 130.797C89.241 130.838 89.5705 131.012 89.8072 131.284C90.0015 131.581 90.0188 131.515 92.0887 130.344Z" fill="black"/>
<path id="Vector_38" d="M92.1053 119.756C92.4653 119.865 92.4111 120.578 92.1377 120.906C91.6519 121.487 90.9325 120.498 90.1582 121.422C89.5044 122.202 89.2694 122.094 88.3897 121.812C87.5099 121.53 87.6026 121.498 87.1198 122.189C86.5714 122.977 85.8694 122.909 85.4446 122.295C85.0198 121.681 85.2066 121.731 84.2801 122.927C84.2022 123.063 84.0829 123.171 83.9395 123.236C83.796 123.3 83.6359 123.317 83.4822 123.284C83.3286 123.251 83.1894 123.17 83.0847 123.053C82.9801 122.935 82.9155 122.788 82.9002 122.632C82.7293 122.016 82.8121 121.433 82.2133 121.667C81.37 121.97 80.6016 122.45 79.9604 123.076C79.2215 123.704 78.7817 122.911 79.2645 122.357C80.4741 120.966 83.1691 119.728 83.7047 121.276C83.8726 121.763 83.8832 121.379 84.5739 120.779C84.6711 120.684 84.7881 120.611 84.9165 120.567C85.0449 120.523 85.1815 120.507 85.3165 120.522C85.4515 120.537 85.5816 120.581 85.6974 120.653C85.8132 120.724 85.9118 120.819 85.9862 120.933C86.3063 121.345 86.3063 121.345 86.6226 120.91C87.2764 120.01 87.65 120.355 88.7655 120.706C89.4856 120.932 89.2928 119.909 90.7842 119.784C91.2143 119.657 91.6703 119.648 92.1053 119.756Z" fill="black"/>
<path id="Vector_39" d="M92.0588 12.1165C92.0294 12.237 92.0437 12.4178 91.9647 12.4766C90.4371 13.5537 90.6089 11.7987 90.3708 9.67309C90.3478 9.57767 90.363 9.47704 90.4131 9.39263C90.4632 9.30822 90.5442 9.24669 90.639 9.22116C91.7922 8.88824 91.6664 8.92816 92.0588 12.1165Z" fill="black"/>
<path id="Vector_40" d="M90.0937 12.3624C90.0937 13.1073 88.9405 13.2617 88.8253 12.5424C88.5993 11.1278 88.4351 10.4198 89.0339 10.297C89.9656 10.1057 89.7833 9.99801 90.0937 12.3624Z" fill="black"/>
<path id="Vector_41" d="M88.7332 110.868C88.7991 110.881 88.8615 110.908 88.9162 110.947C88.9709 110.986 89.0168 111.036 89.0508 111.094C89.0848 111.152 89.1061 111.217 89.1135 111.283C89.1208 111.35 89.1139 111.418 89.0933 111.482C88.9614 112.288 88.6858 111.98 87.0927 112.696C86.7334 112.857 86.2996 114.111 85.3204 113.182C84.7668 112.654 84.754 112.534 84.1024 113.525C84.0153 113.657 83.8964 113.764 83.7567 113.838C83.617 113.911 83.4611 113.948 83.3033 113.945C83.1455 113.942 82.9911 113.899 82.8543 113.82C82.7175 113.742 82.6027 113.63 82.5207 113.495C82.0688 112.84 82.0424 112.8 81.778 113.081C81.3909 113.493 81.0248 114.005 80.7363 114.248C80.5102 114.443 80.2162 114.541 79.9184 114.52C79.6206 114.498 79.3433 114.36 79.147 114.135C79.0333 114.003 78.9919 113.916 78.8992 113.793C77.9607 112.554 77.215 115.531 76.4181 114.673C76.3499 114.601 76.3101 114.507 76.3061 114.407C76.3021 114.308 76.3341 114.211 76.3963 114.134C77.731 111.949 79.1267 112.135 79.7413 113.115C79.9364 113.426 80.0562 113.403 80.2806 113.126C80.8252 112.455 81.9483 110.709 83.1594 112.361C83.5549 112.9 83.8373 111.287 84.7412 111.503C85.0684 111.543 85.3796 111.667 85.645 111.863C85.9772 112.16 86.0164 111.823 86.8411 111.452C88.3016 110.798 88.4274 110.777 88.7332 110.868Z" fill="black"/>
<path id="Vector_42" d="M88.2011 12.5787C88.2569 13.1489 87.9435 13.1315 87.4479 13.1941C87.1564 13.231 87.0713 13.0231 87.0449 12.7278C86.9086 11.4074 86.8649 11.1852 87.405 11.0707C88.1823 10.8945 88.0836 11.3961 88.2011 12.5787Z" fill="black"/>
<path id="Vector_43" d="M86.4931 36.9716C86.8319 38.4842 86.6914 40.0648 86.0912 41.494C85.491 42.9233 84.4608 44.1302 83.1436 44.9474C75.5963 49.9299 67.6981 39.9664 74.6443 33.9617C75.9719 32.6981 77.7095 31.9536 79.5402 31.864C81.3426 31.861 85.5523 32.9517 86.4931 36.9716ZM85.3783 41.0992C88.7535 33.8216 76.6651 28.5205 73.1973 37.3263C71.6442 41.2709 74.6021 44.6559 77.9019 45.3903C81.0459 46.0893 84.0278 44.0104 85.3783 41.0992Z" fill="black"/>
<path id="Vector_44" d="M82.7496 93.5687C83.7356 93.5378 83.4938 94.6925 82.9545 94.9245C81.9595 95.3501 81.6341 95.7531 80.743 95.5429C80.3363 95.448 80.1209 95.338 79.8814 95.6371C79.3029 96.3571 78.7063 96.9499 77.917 96.1477C77.2391 95.4623 77.456 95.9677 76.5009 96.8098C76.4115 96.901 76.3003 96.9679 76.1779 97.0043C76.0555 97.0407 75.9258 97.0454 75.8011 97.0179C75.6764 96.9904 75.5607 96.9317 75.4649 96.8472C75.3691 96.7627 75.2964 96.6552 75.2536 96.5349C75.1368 96.2826 75.0743 95.9813 74.7324 95.9248C74.5761 95.9015 74.4166 95.9142 74.266 95.9619C74.1154 96.0095 73.9776 96.0908 73.8632 96.1997C73.3013 96.595 72.8399 97.1163 72.5156 97.722C72.474 97.8254 72.3944 97.9091 72.2932 97.9559C72.1919 98.0026 72.0766 98.009 71.9708 97.9736C71.8651 97.9382 71.7768 97.8638 71.7241 97.7655C71.6713 97.6672 71.6581 97.5525 71.6871 97.4448C71.8378 96.4987 73.0813 95.4111 73.6658 95.0608C73.796 94.9623 73.9445 94.8905 74.1026 94.8495C74.2607 94.8085 74.4253 94.7992 74.587 94.8221C76.6907 94.9366 75.3508 96.2577 76.8399 94.7083C76.933 94.6133 77.0442 94.5376 77.1668 94.4858C77.2895 94.434 77.4212 94.4071 77.5543 94.4066C77.6874 94.4061 77.8194 94.4321 77.9424 94.483C78.0654 94.5339 78.1771 94.6087 78.271 94.7031C78.6107 95.0398 78.6054 95.2808 78.9534 94.9155C79.1387 94.7211 79.3692 94.5509 79.556 94.3363C79.6094 94.2751 79.6783 94.2295 79.7554 94.2042C79.8325 94.1788 79.9151 94.1748 79.9943 94.1924C81.2628 94.2783 80.905 94.5449 81.7523 94.1171C82.025 93.977 82.4506 93.5778 82.7496 93.5687Z" fill="black"/>
<path id="Vector_45" d="M79.3342 85.0824C79.6949 84.8443 80.4135 84.9468 80.403 85.4673C80.2862 86.1866 80.1732 86.0909 78.9636 86.5466C78.2555 86.8133 78.1057 86.2453 77.6929 86.6513C76.7137 87.6139 76.0358 88.5509 75.486 86.8562C75.1372 85.7866 74.4925 88.1419 73.377 87.5958C72.8377 87.3834 73.2384 86.5519 72.3285 86.6852C70.8891 86.8954 70.4824 88.6782 69.6802 88.7091C69.2154 88.7272 69.3179 88.1464 69.4331 87.9679C70.4921 86.335 71.5135 85.1886 73.3393 85.6977C74.1076 85.9117 73.499 86.6302 74.6507 85.5388C74.7821 85.4419 74.9315 85.3721 75.0902 85.3336C75.2489 85.295 75.4137 85.2884 75.575 85.3142C75.7362 85.34 75.8907 85.3977 76.0295 85.4838C76.1682 85.57 76.2884 85.6829 76.3831 85.816C76.728 86.5361 77.0941 84.8293 78.3459 85.3302C78.5182 85.3757 78.6991 85.3769 78.872 85.3335C79.0448 85.2902 79.2038 85.2038 79.3342 85.0824Z" fill="black"/>
<path id="Vector_46" d="M79.6079 65.8453C79.9318 65.9349 80.0237 66.0501 80.0508 66.3974C79.8798 66.9374 79.8309 67.4278 79.2592 67.421C78.8592 67.421 78.442 67.8677 78.0857 68.0989C76.5905 69.0645 76.4557 67.0534 75.8803 67.7569C75.1609 68.6352 74.7791 69.7439 73.8165 68.7986C73.3419 68.3324 73.4007 68.2586 72.8847 68.6435C71.2751 69.8486 70.6439 70.7781 69.5578 69.3922C69.3544 69.1331 69.27 68.7557 68.919 68.9553C68.2283 69.3462 67.9127 70.0038 67.4796 70.4105C67.1844 70.6877 66.6511 70.5612 66.7596 69.9428C66.7837 69.8079 68.9077 66.4026 70.2394 68.4296C70.6115 68.9952 70.6093 68.9915 71.1267 68.5862C72.5337 67.4835 73.2877 66.6173 74.2902 67.4926C74.8619 67.9912 75.4389 65.0913 77.2142 66.8568C77.8153 67.4556 78.7523 65.5297 79.6079 65.8453Z" fill="black"/>
<path id="Vector_47" d="M78.4509 76.3474C78.7047 76.5628 78.771 76.6599 78.6882 76.898C78.5315 77.3499 78.3869 77.4749 78.0012 77.4734C76.6454 77.0509 77.2292 75.857 76.2018 77.0561C75.4486 77.9397 75.2768 79.1395 74.4295 78.7042C73.6838 78.2598 74.0084 77.3122 72.9652 78.1249C72.7061 78.3261 72.2316 78.9075 72.0207 79.0635C71.7405 79.2713 71.2675 79.2344 71.1447 78.9542C70.6611 77.8312 69.111 78.5942 68.6455 79.7368C68.4331 80.2588 67.6867 80.1684 67.817 79.4612C67.9511 78.7185 69.114 76.7579 71.2065 77.5292C71.9913 77.8191 71.9823 77.3032 72.7716 76.8091C73.047 76.6395 73.3687 76.561 73.6911 76.5847C74.0136 76.6083 74.3204 76.733 74.5681 76.9409C74.9514 77.2655 74.8611 76.5221 76.1762 75.4262C77.129 74.6315 77.5809 75.6092 78.4509 76.3474Z" fill="black"/>
<path id="Vector_48" d="M76.6017 135.405C77.4024 137.767 77.2397 138.719 72.694 139.003C72.3596 139.025 70.8698 139.558 70.8675 136.733C71.0181 135.603 70.9481 135.464 71.5062 134.868C72.0109 134.328 70.2446 133.977 71.1123 131.945C72.1532 129.508 76.0361 130.977 74.855 133.741C74.6358 134.248 75.9607 133.522 76.6017 135.405ZM74.5311 137.902C75.9517 137.573 76.2989 137.483 76.1626 136.809C75.8116 135.064 75.4629 134.666 74.4445 134.759C73.7666 134.822 73.0887 135.183 72.5283 135.277C71.3895 135.47 71.5936 138.048 72.1992 138.207C72.9859 138.21 73.7694 138.107 74.5289 137.902H74.5311ZM74.2916 132.841C74.294 132.669 74.2622 132.498 74.1979 132.338C74.1337 132.178 74.0383 132.033 73.9173 131.91C73.7964 131.787 73.6523 131.69 73.4933 131.623C73.3344 131.557 73.1639 131.523 72.9916 131.522C72.7297 131.519 72.4727 131.593 72.2531 131.735C72.0335 131.878 71.8613 132.083 71.7584 132.324C71.6556 132.564 71.6267 132.83 71.6754 133.088C71.7242 133.345 71.8483 133.582 72.0322 133.768C72.216 133.955 72.4511 134.082 72.7077 134.135C72.9643 134.187 73.2306 134.162 73.4729 134.063C73.7151 133.963 73.9224 133.794 74.0682 133.577C74.2139 133.359 74.2917 133.103 74.2916 132.841Z" fill="black"/>
<path id="Vector_49" d="M75.698 123.584C76.6177 124.274 76.6305 125.223 76.1424 125.727C75.5232 126.189 74.832 126.545 74.0967 126.782C73.2373 127.063 72.9111 126.099 72.8162 125.211C72.9315 124.232 72.9978 124.153 72.75 124C72.5156 123.837 72.3289 123.614 72.2093 123.354C72.0897 123.095 72.0414 122.808 72.0694 122.524C72.0974 122.239 72.2007 121.967 72.3687 121.736C72.5366 121.505 72.7631 121.323 73.0249 121.208C73.2313 121.101 73.4613 121.047 73.6939 121.051C73.9264 121.056 74.1542 121.118 74.3564 121.233C74.5586 121.348 74.7288 121.512 74.8514 121.71C74.9741 121.907 75.0453 122.133 75.0586 122.365C75.0714 122.626 74.9433 122.94 75.0495 123.138C75.1557 123.337 75.4826 123.425 75.698 123.584ZM74.0071 125.983C75.7658 125.052 75.8148 125.094 75.6747 124.75C75.5082 124.353 74.8974 123.804 74.401 123.957C73.6184 124.198 73.6071 124.196 73.5484 125.012C73.4617 125.38 73.6726 126.159 74.0056 125.983H74.0071ZM73.4226 123.527C74.4967 123.527 74.8575 121.756 73.6704 121.707C72.4637 121.731 72.3553 123.527 73.4226 123.527Z" fill="black"/>
<path id="Vector_50" d="M73.0027 127.728C73.5797 127.593 73.7213 128.112 73.4599 128.41C72.4416 129.569 70.6437 129.847 69.9876 129.175C69.7428 128.925 69.837 128.453 70.3477 128.54C70.597 128.666 70.8759 128.721 71.1545 128.701C71.433 128.681 71.7009 128.585 71.9294 128.424C72.3226 128.223 72.8355 127.767 73.0027 127.728Z" fill="black"/>
<path id="Vector_51" d="M73.1672 115.521C73.5717 117.739 73.1115 118.106 71.7075 118.472C70.2549 118.884 68.77 119.174 67.2688 119.337C66.7762 119.379 66.0636 119.563 65.5831 118.599C64.616 116.659 63.7844 113.235 65.8445 112.573C67.149 112.156 70.4353 111.376 71.6841 111.827C72.109 111.982 72.5511 112.148 73.1672 115.521ZM72.3989 117.26C72.5609 117.379 72.7424 117.019 72.6144 116.307C72.4851 115.2 72.2218 114.112 71.8303 113.068C71.7165 112.842 71.6894 112.867 71.5674 113.016C70.549 114.574 70.4752 114.54 70.711 114.816C71.2293 115.66 71.7928 116.476 72.3989 117.26ZM69.2957 115.029C71.4966 112.206 71.6005 112.311 70.5656 112.359C69.2862 112.457 68.0202 112.686 66.7875 113.042C65.9702 113.343 65.333 113.127 65.8738 113.783C65.91 113.827 67.4556 114.611 67.5399 114.654C68.8204 115.295 69.0456 115.354 69.2957 115.029ZM71.8129 117.604C69.9367 114.596 70.4685 114.927 69.7039 115.584C69.1179 116.202 68.6306 115.89 67.8578 115.575C67.375 115.378 67.5422 115.186 66.8862 118.389C66.9291 118.95 67.1423 118.683 68.669 118.407C69.7486 118.278 70.8065 118.008 71.816 117.604H71.8129ZM66.4169 117.763C67.0142 115.139 67.1204 115.159 66.7551 114.99C66.2354 114.75 66.0358 114.643 65.3842 114.366C64.9165 114.926 65.8264 117.572 66.1292 118.223C66.2158 118.411 66.3612 117.972 66.4079 117.771L66.4169 117.763Z" fill="black"/>
<path id="Vector_52" d="M71.8566 121.532C71.8905 121.808 71.8114 122.032 71.2608 122.059C69.0426 121.988 68.6245 123.942 68.0528 123.729C67.8585 123.657 67.8495 123.472 67.8728 123.277C67.9482 122.863 68.1737 122.49 68.5063 122.232C69.1227 121.611 69.9596 121.259 70.8345 121.252C71.4755 121.249 71.8129 121.176 71.8566 121.532Z" fill="black"/>
<path id="Vector_53" d="M69.4556 127.049C69.5977 127.269 69.666 127.529 69.6507 127.791C69.6354 128.053 69.5373 128.303 69.3705 128.506C68.9399 128.876 68.4405 129.157 67.9009 129.334C67.0664 129.725 66.4902 129.874 66.1143 128.588C65.8484 127.676 66.3953 127.081 65.9343 126.769C65.7021 126.596 65.521 126.363 65.4103 126.096C65.2997 125.828 65.2635 125.536 65.3058 125.249C65.3481 124.963 65.4671 124.693 65.6503 124.469C65.8335 124.245 66.074 124.074 66.3463 123.976C66.569 123.886 66.8112 123.856 67.0491 123.887C67.2871 123.919 67.5128 124.012 67.7042 124.157C67.8956 124.302 68.0461 124.494 68.1412 124.715C68.2363 124.935 68.2726 125.176 68.2467 125.415C67.8648 126.198 68.9193 126.017 69.4556 127.049ZM67.3074 128.754C68.5464 128.133 69.2469 127.896 68.7521 127.304C67.7932 126.156 66.8163 126.764 66.683 127.795C66.8555 128.603 66.8336 128.991 67.3074 128.754ZM67.6561 125.33C67.6587 125.125 67.5817 124.927 67.4412 124.778C67.3007 124.628 67.1077 124.539 66.9029 124.529C65.7219 124.469 65.4906 126.302 66.6099 126.345C66.8753 126.324 67.125 126.212 67.316 126.026C67.507 125.841 67.6273 125.595 67.6561 125.33Z" fill="black"/>
<path id="Vector_54" d="M68.4578 99.3771C68.6491 101.304 67.8183 101.067 65.5346 101.946C64.6662 102.321 63.7358 102.532 62.7906 102.567C61.767 102.583 61.6721 101.964 61.5003 101.52C61.0511 100.374 60.735 99.1796 60.5581 97.9611C60.3607 96.5616 60.3321 95.9146 61.1787 95.3557C62.4491 94.7265 63.8035 94.2835 65.2001 94.0406C67.1359 93.8244 67.2037 94.4496 67.3965 94.7599C68.0337 95.7873 68.3162 97.9106 68.4578 99.3771ZM67.0945 100.685C67.3636 100.593 67.5863 100.4 67.7153 100.147C67.8443 99.8939 67.8694 99.6004 67.7852 99.3289C67.6254 98.0028 67.3406 96.6946 66.9348 95.422C66.7578 94.8488 66.5755 94.6823 65.9669 94.6575C64.4615 94.8139 62.9981 95.2481 61.651 95.938C61.4378 96.0173 61.2631 96.1752 61.1627 96.3793C61.0622 96.5833 61.0437 96.8181 61.1109 97.0354C61.2883 98.5179 61.6423 99.9739 62.1654 101.372C62.3304 101.612 62.1526 101.867 63.2734 101.783C64.3942 101.699 64.932 101.363 67.0945 100.685Z" fill="black"/>
<path id="Vector_55" d="M66.3138 98.2192C66.3499 100.636 62.849 100.884 62.6923 98.516C62.5168 95.8714 66.2769 95.7614 66.3138 98.2192ZM64.4428 99.4477C64.7564 99.4323 65.053 99.3001 65.2741 99.0771C65.4952 98.854 65.6248 98.5563 65.6374 98.2425C65.6466 98.0863 65.6233 97.9299 65.5689 97.7831C65.5145 97.6364 65.4302 97.5025 65.3213 97.3901C65.2125 97.2776 65.0815 97.189 64.9366 97.1299C64.7917 97.0707 64.6361 97.0423 64.4797 97.0464C64.3232 97.0506 64.1693 97.0871 64.0278 97.1539C63.8862 97.2206 63.76 97.316 63.6573 97.4341C63.5545 97.5521 63.4774 97.6902 63.4309 97.8396C63.3843 97.9891 63.3693 98.1465 63.3868 98.302C63.3942 98.5886 63.5053 98.8627 63.6995 99.0735C63.8937 99.2843 64.1578 99.4175 64.4428 99.4484V99.4477Z" fill="black"/>
<path id="Vector_56" d="M63.4427 84.4024C62.776 84.3992 62.1215 84.5802 61.5511 84.9253C60.9808 85.2704 60.5168 85.7663 60.2103 86.3583C59.9038 86.9503 59.7667 87.6154 59.814 88.2804C59.8614 88.9453 60.0914 89.5843 60.4788 90.1268C60.8207 90.6014 61.1047 90.3445 62.0809 89.873C61.2666 92.5168 61.3457 92.2275 62.7429 92.6689C63.5285 92.9167 63.527 92.6358 63.808 91.9812C64.03 91.435 64.2002 90.8691 64.3164 90.291C64.6297 89.5928 65.7204 92.2155 66.5806 88.6656C66.6681 88.1781 66.6553 87.6778 66.5432 87.1954C66.431 86.7129 66.2217 86.2584 65.9281 85.8594C65.6345 85.4605 65.2627 85.1256 64.8354 84.8751C64.408 84.6246 63.9342 84.4637 63.4427 84.4024ZM63.2702 91.8833C63.1346 92.2132 62.8672 92.1786 62.6043 92.043C61.9867 91.7236 61.8082 92.5469 63.0058 88.3048C63.0811 88.0246 63.8133 88.3297 64.0694 88.585C64.2803 88.9737 63.5587 91.1904 63.2702 91.8833ZM64.3247 88.1248C63.7974 87.6646 62.7806 87.4107 62.6028 88.1014C62.5689 88.2348 62.4522 88.478 62.4145 88.5692C62.3159 88.8343 62.1886 88.7326 62.1336 88.1677C61.9325 86.186 64.3571 86.2922 64.3292 88.1263L64.3247 88.1248ZM65.3702 89.9114C65.2481 89.9965 64.9657 89.7834 64.8218 89.7314C64.5107 89.6184 64.4324 89.5958 64.5861 89.3548C65.4432 87.999 64.6953 85.8147 62.8153 86.2545C60.8659 86.714 61.7675 88.994 61.7758 89.1529C61.7901 89.4542 60.994 89.9641 60.7213 89.5295C59.7338 87.9297 60.9601 84.5688 63.7455 85.0855C64.3761 85.2531 64.9356 85.6202 65.3403 86.1321C65.745 86.6439 65.9732 87.2729 65.9908 87.9252C66.0134 88.6375 65.7964 89.3369 65.3747 89.9114H65.3702Z" fill="black"/>
<path id="Vector_57" d="M64.7488 77.9125C64.6561 78.3298 64.3722 78.2199 64.2215 79.0748C63.7523 81.7268 62.9516 82.5825 62.1781 82.9214C61.7708 83.1166 61.326 83.2212 60.8744 83.2279C60.4228 83.2347 59.9751 83.1435 59.5621 82.9606C58.5076 82.3422 60.1647 81.8428 59.7414 81.5295C59.3181 81.2161 58.4489 81.0135 58.2824 79.9764C58.2259 79.6216 58.8744 79.7835 58.9053 79.6095C58.8936 79.3366 58.8581 79.0651 58.7991 78.7983C58.488 75.0096 60.5165 78.3035 60.9978 77.7581C61.2822 77.4381 61.6563 77.2109 62.0714 77.106C62.4865 77.0011 62.9236 77.0234 63.326 77.1699C64.2343 77.5954 64.9273 77.1292 64.7488 77.9125ZM63.6461 78.5957C63.753 78.1159 63.7553 78.1219 63.0925 77.8425C62.9278 77.7739 62.7512 77.7384 62.5728 77.7382C62.3944 77.7379 62.2178 77.7728 62.0529 77.841C61.8881 77.9092 61.7383 78.0092 61.6121 78.1353C61.486 78.2615 61.386 78.4113 61.3179 78.5761C60.988 79.3949 59.5915 77.6105 59.4348 77.9103C59.2639 78.2342 59.7015 79.6351 59.5923 79.9681C59.5561 80.0765 59.1087 80.014 58.9897 80.0991C58.821 80.2174 59.3482 80.603 59.4808 80.6806C60.4773 81.2651 60.6769 81.0911 60.5707 81.5589C60.4859 81.8515 60.3179 82.1131 60.0871 82.3121C59.9365 82.4567 60.2762 82.5795 60.8336 82.5825C62.6759 82.593 63.1565 80.783 63.6468 78.5957H63.6461Z" fill="black"/>
<path id="Vector_58" d="M62.0459 70.0872C62.0172 69.8364 62.0278 69.6955 61.6241 69.6752C61.1458 69.6519 60.8098 69.7882 60.8046 69.569C60.8008 69.4304 60.7903 69.2602 60.8513 69.1984C61.3386 68.7051 62.2756 68.6222 61.9811 67.7236C61.795 67.158 61.5623 66.6089 61.3514 66.047C61.249 65.7735 61.1013 65.6222 60.6584 65.7607C56.5768 67.0359 57.9973 69.2722 57.6305 69.6112C57.5085 69.6918 57.4204 69.6112 57.0114 69.6632C56.7666 69.694 56.5466 69.7724 56.5368 69.9562C56.5052 70.5271 56.3915 71.5763 56.6626 71.9349C56.8758 72.2166 57.8678 71.8204 57.9295 72.1314C58.0177 72.5924 57.7789 74.2058 58.3596 74.3979C59.1038 74.5877 60.4995 74.5485 60.7488 74.1109C60.7967 73.4351 60.7853 72.7563 60.7149 72.0825C60.6878 71.9228 60.736 71.8618 61.0162 71.8618C61.3135 71.8811 61.6104 71.8189 61.8749 71.6818C62.0293 71.1653 62.0873 70.6247 62.0459 70.0872ZM61.368 71.257C61.2316 71.3797 60.6969 71.2645 60.4272 71.3165C59.5919 71.4769 60.3624 73.3765 60.0506 73.7366C59.6806 73.8141 59.3012 73.837 58.9245 73.8043C58.4206 73.8985 58.618 72.9449 58.5479 71.846C58.5261 71.4859 58.4116 71.4648 58.1879 71.4513C57.0197 71.385 56.9828 71.7789 57.0347 70.5994C57.0505 70.2394 57.0777 70.1753 57.3466 70.1625C57.5916 70.1656 57.8365 70.1542 58.0802 70.1286C58.5268 70.0533 58.3724 69.8153 58.3815 69.3551C58.4191 67.8487 58.5984 67.1708 60.3752 66.514C60.9326 66.3076 60.7518 66.3633 61.3311 67.8148C61.6113 68.513 59.7809 68.2027 60.0913 69.9087C60.1222 70.0797 60.1666 70.1347 60.3127 70.1625C61.2324 70.2379 61.5344 69.984 61.5028 70.4894C61.4855 70.7644 61.5028 71.1342 61.3657 71.2539L61.368 71.257Z" fill="black"/>
<path id="Vector_59" d="M49.8114 15.6983C51.809 13.8454 55.3611 14.3146 55.1532 15.2358C55.0252 15.8037 54.0739 15.3767 52.8627 15.4045C52.0296 15.4932 51.2317 15.7874 50.5405 16.2609C50.1444 16.4869 50.0886 16.4869 49.7994 16.2105C49.5832 16.0071 49.5847 15.9084 49.8114 15.6983Z" fill="black"/>
<path id="Vector_60" d="M54.1853 16.006C54.6568 16.125 54.7224 16.2975 54.4625 16.7095C54.3186 16.9355 54.1281 16.8466 53.9225 16.8428C52.0394 16.5498 51.3269 17.9229 50.9344 17.422C50.6723 17.0884 50.5224 16.9581 50.8644 16.6824C51.9189 15.8297 52.5554 15.9879 54.0595 15.9811C54.1023 15.9845 54.1445 15.9928 54.1853 16.006Z" fill="black"/>
<path id="Vector_61" d="M53.9302 17.7294C53.9415 17.9554 53.7916 18.0548 53.4466 18.1414C52.0953 18.4789 52.2046 18.8389 51.6977 18.1557C51.4626 17.8417 53.8918 16.9536 53.9302 17.7294Z" fill="black"/>
<path id="Vector_62" d="M39.5112 4.81102C39.4608 5.47686 38.4266 12.7657 38.4153 12.8426C37.8127 17.0817 37.5243 17.8311 34.3871 14.9516C34.0256 14.6194 33.9487 14.5139 33.7755 14.7256C29.565 19.8475 25.9134 28.1532 26.8572 36.5282C27.4507 41.7909 30.8139 47.4084 33.9593 50.5531C34.1265 50.7595 34.3781 51.3116 34.2161 51.4637C32.602 52.7525 27.9275 54.8592 27.7264 54.9594C27.5666 55.0638 27.3737 55.1055 27.185 55.0763C26.9963 55.0471 26.8251 54.9491 26.7043 54.8012C24.5456 52.3563 23.7803 51.2822 21.2058 46.3343C19.484 43.0202 18.6095 38.4933 18.6095 32.8871C19.1111 26.0088 21.3768 19.2795 29.1892 10.8616C29.3843 10.6515 29.3775 10.6658 28.8224 10.2191C28.0586 9.60524 26.8956 8.78197 27.0734 7.98431C27.4289 6.38674 32.7225 5.84217 38.1652 3.83183C38.3196 3.77046 38.4871 3.74916 38.6519 3.76992C38.8168 3.79069 38.9737 3.85283 39.108 3.95058C39.2424 4.04832 39.3498 4.17848 39.4203 4.32893C39.4908 4.47937 39.5221 4.64522 39.5112 4.81102ZM38.5434 5.55218C38.7844 4.35306 38.8047 4.6905 35.8853 5.55971C25.7997 8.55977 27.1788 7.56251 29.9853 10.1295C31.3411 11.0959 28.6868 11.9666 24.8898 17.8876C21.5282 23.127 19.6542 27.2184 19.5179 33.9145C19.9013 42.157 20.7682 43.5625 23.769 49.0625C24.6676 50.8618 25.8136 52.5264 27.1736 54.0081C27.1981 54.043 27.23 54.0722 27.2669 54.0936C27.3038 54.1151 27.345 54.1283 27.3875 54.1324C27.4553 54.1263 33.0705 51.3726 33.0856 51.2965C33.2475 50.48 26.0264 44.9476 25.802 34.0968C25.7074 32.0045 25.8987 29.9091 26.3706 27.8685C28.8419 18.7546 33.3552 13.3849 33.7928 13.3849C34.1943 13.3849 34.5415 13.9701 36.5308 15.5406C37.1484 16.1432 37.2222 15.054 37.577 12.3093C37.7578 10.9121 38.4959 5.78568 38.5434 5.55218Z" fill="black"/>
</g>
</svg>
