<svg width="151" height="151" viewBox="0 0 151 151" fill="none" xmlns="http://www.w3.org/2000/svg">
<g id="Let-Get-Started--Streamline-Bruxelles">
<g id="Let-Get-Started--Streamline-Bruxelles.svg">
<g id="Colour">
<path id="Vector" d="M142.669 91.5636C144.929 99.3895 144.929 114.8 131.898 120.427C129.043 121.655 76.3934 119.967 14.2455 121.127C14.3887 119.545 14.6899 117.98 15.1419 116.457C15.3316 115.801 15.2719 115.098 14.9743 114.484C14.6767 113.869 14.1623 113.386 13.53 113.128C6.1108 110.115 1.47852 104.843 4.92825 92.0381C6.977 84.3628 12.0687 82.8263 10.2535 80.4009C6.26145 75.0832 2.17148 64.3574 10.954 54.1362C15.2473 49.1424 17.6727 51.1987 16.701 43.1995C16.1587 38.7556 16.9571 34.8238 19.1188 31.6904C22.7644 26.4179 26.2217 24.6855 30.869 24.0227C32.3441 23.8139 33.7146 23.1418 34.7828 22.1034C35.851 21.065 36.5615 19.714 36.8119 18.2455C38.0547 12.2876 41.6024 10.0279 47.8465 7.84357C61.3592 3.20376 63.4983 11.8657 67.7992 9.10145C72.9804 5.74683 79.2605 4.53185 85.319 5.71197C94.094 7.48956 97.1144 10.7209 99.1707 14.1179C99.8163 15.1864 100.745 16.0557 101.853 16.63C102.962 17.2042 104.207 17.4609 105.453 17.3718C120.517 16.3323 137.878 25.2353 133.209 47.9147C132.455 51.6808 134.76 52.4867 136.892 53.4358C144.205 56.6897 145.75 59.2129 146.684 67.2347C148.28 81.9676 140.033 82.4873 142.669 91.5636Z" fill="#F6F2FF"/>
<path id="Vector_2" d="M135.588 56.6375C134.751 57.2223 133.806 57.6369 132.809 57.8578C131.995 57.9481 131.453 58.2871 132.116 58.8143C132.402 59.0432 132.606 59.3577 132.7 59.7116C132.793 60.0655 132.771 60.4401 132.636 60.7802C131.967 61.6624 131.154 62.4262 130.233 63.0399C129.562 63.4993 128.553 62.6633 128.553 63.7027C128.553 68.222 129.404 66.4746 126.12 70.7152C124.614 72.6133 121.601 71.4081 122.49 73.2912C123.537 75.4755 119.033 78.5637 118.603 78.767C118.197 78.9 117.768 78.9453 117.343 78.8998C116.919 78.8544 116.509 78.7193 116.14 78.5034C115.387 78.0967 113.707 75.7843 113.218 76.3944C113.018 76.6246 112.877 76.8995 112.806 77.1958C112.735 77.4921 112.737 77.8011 112.811 78.0967C112.909 78.7369 111.997 80.6802 111.598 81.0568C111.199 81.4334 108.774 82.1791 107.757 81.7498C106.74 81.3204 107.154 80.3262 106.861 79.9195C106.567 79.5127 106.311 79.9797 105.497 80.2961C104.684 80.6124 103.908 80.9363 104.285 81.8025C105.279 84.1073 104.285 85.1392 101.919 86.0657L99.6598 85.9753C99.6598 85.9753 97.6713 83.6554 97.1441 84.4689C96.6168 85.2824 94.8844 87.188 93.9881 86.8415C93.2059 86.5565 92.5355 86.0286 92.0749 85.3351C91.7812 84.838 90.8246 83.919 90.4254 84.8154C90.2566 85.0887 90.1623 85.4014 90.1517 85.7225C90.1412 86.0436 90.2147 86.3618 90.3651 86.6457C90.5986 87.0825 89.4387 87.3386 89.6119 88.0617C89.7851 88.7848 89.6119 89.5682 90.0714 90.2084C90.5308 90.8486 90.8246 91.7148 90.3953 92.1216C88.5499 93.7334 86.7045 94.4641 88.7683 95.624C89.5215 96.0308 90.2145 96.8141 89.9358 97.4769C89.6571 98.1398 87.8795 99.6763 88.1657 100.136C88.452 100.595 88.5725 103.495 88.1657 103.992C87.759 104.489 82.4338 103.902 82.4338 103.902C82.0953 103.545 81.8495 103.11 81.7182 102.636C81.5869 102.162 81.574 101.663 81.6805 101.183C82.0496 99.7893 82.1777 99.5558 81.2437 99.3524C80.3097 99.1491 79.4736 98.4862 79.5941 97.5899C79.7146 96.6936 80.8972 95.8199 80.2042 95.3303C79.6346 94.9922 79.1784 94.4921 78.8941 93.8939C78.6097 93.2956 78.5099 92.6261 78.6074 91.9709C78.9539 90.2611 79.0744 89.9749 80.0536 89.3648C81.0328 88.7547 82.5467 87.6399 81.9969 87.1051C80.7164 85.9452 79.8879 86.9093 78.9012 86.4122C78.8409 86.4122 77.7337 85.5384 78.0877 83.3391C78.4417 81.1397 78.984 82.0963 77.8542 81.1698C76.7244 80.2433 76.6641 78.6164 78.2007 77.577C79.7372 76.5375 81.0403 76.417 79.7071 75.5508C78.3739 74.6846 77.4475 73.6678 77.7412 72.5379C78.035 71.4081 80.1741 71.2876 79.564 70.105C78.9539 68.9225 78.8108 68.5986 79.3606 67.3558C79.9105 66.113 80.498 65.8494 81.191 65.6686C81.8839 65.4878 84.0004 65.8494 83.8875 64.5087C83.654 61.8121 87.2995 61.1719 88.693 62.1059C91.8414 64.1998 89.175 57.3154 90.4706 55.9295C90.8999 55.4701 92.1201 54.5135 92.8733 54.6265C93.6266 54.7394 94.7262 55.2667 94.9597 54.5135C95.1932 53.7603 96.3758 52.5476 97.3625 52.7735C97.8606 52.9071 98.3162 53.1663 98.6854 53.5264C99.0547 53.8864 99.3254 54.3352 99.4715 54.8298C99.6222 55.7036 99.8255 55.8165 100.308 55.8467C100.79 55.8768 101.061 55.8467 101.377 55.0934C101.693 54.3402 103.207 53.4138 104.157 53.7301C105.106 54.0465 104.533 52.8037 104.857 52.284C105.181 51.7642 107.923 51.0637 108.736 51.4404C109.55 51.817 110.243 52.7434 110.732 52.3668C111.097 52.1901 111.498 52.0983 111.903 52.0983C112.309 52.0983 112.709 52.1901 113.075 52.3668C113.677 52.7818 114.11 53.3993 114.295 54.1067C114.498 54.7168 115.854 54.393 116.728 54.9503C117.601 55.5077 118.317 54.6867 119.221 54.6265C120.125 54.5662 122.467 55.6734 122.543 55.0633C122.618 54.4532 122.543 53.4138 122.897 53.0673C123.251 52.7208 125.473 52.7509 126.572 52.8639C127.672 52.9769 128.079 52.2237 128.079 51.3575C128.079 50.4913 128.485 50.2277 129.412 50.1674C130.338 50.1072 132.01 49.5046 132.244 48.661C132.477 47.8174 132.244 47.4709 133.261 47.2223C134.335 46.9612 135.443 46.8747 136.545 46.9662C136.545 47.8324 134.827 46.6574 133.163 47.7195C133.163 47.9002 133.095 48.081 133.057 48.2543C132.874 49.1251 132.999 50.0328 133.411 50.8215C133.824 51.6103 134.497 52.2312 135.317 52.5777L136.296 52.9995C136.312 52.8996 136.36 52.8076 136.433 52.7381C136.506 52.6686 136.601 52.6254 136.701 52.6154C136.768 52.6084 136.835 52.6161 136.899 52.638C136.861 53.3234 137.027 55.7864 135.588 56.6375Z" fill="white"/>
<path id="Vector_3" d="M131.506 120.563C126.474 124.487 130.655 140.327 98.3643 138.64C97.8155 138.61 97.2677 138.713 96.7678 138.941C96.2679 139.17 95.8309 139.516 95.4945 139.95C87.8569 149.818 75.2556 145.223 68.808 140.937C68.1942 140.527 67.4757 140.301 66.7375 140.287C65.9994 140.272 65.2725 140.469 64.6428 140.854C58.2028 144.816 49.5408 147.083 37.06 138.06C36.5676 137.701 36.0059 137.449 35.4107 137.319C34.8154 137.189 34.1997 137.185 33.6027 137.307C22.6585 139.566 13.3864 131.281 14.2601 121.113C49.0813 120.48 91.6606 120.563 131.506 120.563Z" fill="#FFFDF2"/>
<path id="Vector_4" d="M108.94 126.777C110.017 128.833 107.885 130.995 107.245 131.349C106.238 132.127 105.141 132.78 103.976 133.292C93.5137 136.802 77.8996 135.228 74.5251 134.422C68.7781 133.051 68.9664 132.78 67.1888 131.522C66.6713 131.268 66.222 130.893 65.8782 130.43C65.4414 129.775 64.0705 128.411 65.125 126.664C65.9112 125.519 67.0686 124.681 68.4015 124.291C71.4897 123.305 71.1432 123.41 71.1733 123.41C71.5499 123.41 71.8437 123.056 71.9265 123.531C71.9806 124.359 72.2942 125.15 72.8229 125.79C73.1895 126.202 73.6319 126.54 74.1259 126.785C75.5646 127.425 70.0887 131.409 89.4012 131.658C95.329 131.733 95.2989 131.055 96.6471 130.769C97.4907 130.641 97.5886 130.016 97.9502 129.519C98.4021 128.698 98.146 127.816 98.5527 127.508C99.09 127.194 99.5451 126.758 99.8803 126.234C100.216 125.71 100.421 125.114 100.481 124.495C100.707 123.131 100.669 123.131 101.038 123.199C103.644 123.696 107.78 124.578 108.94 126.777Z" fill="white"/>
<path id="Vector_5" d="M108.706 131.469C109.309 131.1 108.142 132.584 108.051 132.742C107.644 133.405 107.298 133.541 106.582 134.03C105.377 135.039 103.936 135.728 102.394 136.034C100.121 136.745 97.7775 137.212 95.4047 137.427C88.0382 138.18 78.5778 137.939 71.4373 135.996C67.7315 134.979 67.9876 134.316 66.6243 133.601C65.871 133.194 65.743 132.682 65.2007 132.049C64.6584 131.416 64.3119 129.466 65.0048 130.889C65.3137 131.529 65.8334 131.808 66.564 132.32C69.6522 134.452 69.4564 133.947 72.1905 134.859C78.2916 136.892 94.8774 137.269 102.636 134.685C104.443 134.083 105.016 134.309 108.706 131.469Z" fill="white"/>
<path id="Vector_6" d="M97.1519 128.148C97.2197 129.963 96.3987 129.865 95.9468 130.031C94.7497 130.434 93.5026 130.67 92.2409 130.731C87.1944 130.731 86.6144 130.927 83.1346 130.468C81.0858 130.196 79.3685 130.279 76.7548 129.436C76.4761 129.338 76.22 129.172 75.9413 129.074C75.854 129.043 75.7762 128.99 75.7155 128.92C75.6548 128.85 75.6132 128.766 75.5949 128.675C75.045 126.927 75.0074 127.379 76.3481 127.839C78.3742 128.532 84.1514 128.916 85.9064 128.961C95.525 129.232 97.1293 127.673 97.1519 128.148Z" fill="white"/>
<path id="Vector_7" d="M101.475 101.039C101.302 101.611 100.94 101.626 100.157 101.882C99.7654 102.01 100.232 100.986 98.6054 100.308C94.4928 98.5983 91.2766 99.0277 90.1769 98.8544C89.5291 98.7565 89.6873 98.8544 89.9509 98.3724C90.3501 97.6644 90.32 97.4987 90.5611 97.5213C94.2744 97.8828 102.349 98.0862 101.475 101.039Z" fill="white"/>
<path id="Vector_8" d="M79.7977 99.1488C80.1291 99.5631 79.6019 99.2542 76.0316 100.135C75.4938 100.309 74.9726 100.528 74.4725 100.791C73.2146 101.333 73.2899 102.38 72.966 102.297C71.6705 101.778 71.7157 101.589 71.4973 100.791C71.4973 100.038 73.3954 98.9981 74.1034 98.7044C74.8114 98.4106 75.1202 98.4784 77.1916 97.8834C77.8017 97.7101 78.4419 97.7252 79.0671 97.6047C79.3684 97.4992 79.2027 98.3956 79.7977 99.1488Z" fill="white"/>
<path id="Vector_9" d="M118.761 19.2026C118.694 18.3288 119.063 15.6097 116.351 15.8658C107.938 16.619 33.2863 16.0466 33.211 16.0391C23.2158 16.4458 26.3869 14.2991 25.9048 25.4015C25.837 26.9908 25.5508 29.0697 25.8521 29.9208C25.8822 30.0293 25.8822 30.1438 25.8521 30.2522C25.6907 31.7317 25.6907 33.2243 25.8521 34.7038C25.8521 37.3249 25.4604 37.7166 25.9274 44.2244C25.9274 44.6688 25.9952 51.3423 25.9952 51.3724C25.2872 67.7699 26.5526 103.307 25.8446 106.997C25.7976 107.583 25.8668 108.171 26.0479 108.73C26.5903 110.056 29.6784 109.528 31.1849 109.784C32.4758 110.027 33.7948 110.083 35.1016 109.95C40.8863 109.95 39.0861 109.566 41.3909 109.769C45.8425 110.168 53.1261 109.122 63.8293 109.566C66.6086 109.679 66.4655 109.483 67.407 109.566C68.4314 109.696 69.4633 109.744 70.4952 109.709C70.6459 109.709 70.6911 109.626 70.6685 109.491C70.3822 107.743 70.6308 107.434 70.1864 107.412C69.3428 107.367 68.4992 107.367 67.6556 107.412C66.3601 107.472 64.6427 107.254 63.4075 107.208C54.7681 106.884 46.6183 107.427 29.3922 107.125C28.0741 107.125 29.0307 107.125 28.0816 69.0128C28.0214 66.7079 28.3076 65.9396 28.1569 64.275C27.818 60.5089 38.4459 62.7686 39.8393 62.2338C40.103 62.1359 40.1858 62.2338 41.647 62.3242C42.7084 62.3384 43.7698 62.2906 44.8256 62.1811C45.7229 62.1641 46.6205 62.1943 47.5146 62.2715C50.2353 62.3664 52.9593 62.2606 55.6644 61.9551C56.4779 61.9551 71.143 62.038 71.1581 62.038C72.0167 62.1058 72.0996 62.9418 72.0845 63.7402C71.9866 70.6924 72.7549 95.9402 72.7549 96.0155C72.7549 98.1396 72.5138 98.3204 72.9432 98.1547C74.7434 97.4542 75.0898 97.4015 75.0748 97.1604C75.0145 95.5184 74.8111 76.0704 74.7283 64.8701C74.7283 62.972 74.5325 61.8572 76.0916 62.0304C76.6113 62.0832 84.603 62.0832 84.9871 61.812C85.5406 61.4803 86.17 61.2964 86.8149 61.278C87.4599 61.2595 88.0988 61.4071 88.6703 61.7066C89.0771 61.8723 88.6251 61.8949 89.5591 62.2564C90.4931 62.6179 89.996 60.2453 89.8303 59.8461C89.6646 59.4469 89.9131 59.4695 87.8117 59.477C73.011 59.5222 74.5475 61.9401 74.8789 53.3609C75.2932 42.8159 74.2312 19.6018 75.2254 18.8787C75.5066 18.674 75.8499 18.5729 76.1971 18.5925C79.5564 18.8034 92.4741 18.4042 99.9309 18.4493C114.295 18.5322 114.882 17.8166 115.658 18.6151C116.547 19.5415 115.794 19.3306 116.05 24.3094C116.05 24.8291 115.907 46.7929 115.907 46.9059C115.907 47.9001 116.072 48.8868 116.102 50.0543C115.994 51.0305 115.994 52.0157 116.102 52.9918C116.193 54.1443 116.17 54.4079 116.343 54.4983C117.383 55.0632 117.503 55.0707 117.594 54.9954C119.213 53.6773 118.754 56.4566 118.882 50.7096C119.055 43.2226 119.402 27.0511 118.761 19.2026ZM72.2276 32.0072C72.2954 34.41 72.1448 39.321 72.1749 41.7237C72.1749 44.5935 72.3858 47.6666 72.3783 48.5403C72.2728 60.9081 73.2445 59.7407 67.859 59.6277C67.859 59.7181 58.5191 59.477 58.4588 59.477C58.3986 59.477 37.2106 59.9139 31.0719 59.7482C30.0776 59.7482 29.347 59.7482 28.8122 59.0778C27.592 57.4132 28.511 54.9728 28.3226 51.2444C28.3226 51.1691 28.413 21.1835 28.1343 19.6093C28.0926 19.3134 28.1629 19.0126 28.3315 18.766C28.5001 18.5193 28.7549 18.3446 29.0457 18.2761C31.923 18.1782 61.788 18.2761 62.0818 18.2761C63.7238 18.3213 63.9874 18.4569 66.6538 18.4569C70.4199 18.4569 71.6702 18.5021 71.9263 18.954C73.2143 20.935 71.8435 31.8265 72.2276 31.9846V32.0072ZM115.952 78.4882C117.262 79.3393 118.211 79.0004 119.59 78.2095V108.594C119.59 108.594 119.695 110.184 117.473 110.394C115.251 110.605 107.486 110.538 107.486 110.538C105.904 106.124 103.818 108.316 105.896 106.719C105.896 106.719 114.016 106.997 114.845 106.304C116.035 105.288 115.635 77.8179 115.952 78.4656V78.4882Z" fill="#E5D4CF"/>
<path id="Vector_10" d="M115.176 87.1274C115.327 99.1337 115.244 99.1789 114.928 99.1789C111.365 99.2391 112.857 99.2316 103.11 99.337C102.733 99.337 102.432 99.5178 102.108 99.1563C100.504 97.4088 93.1072 96.6104 90.7345 96.6255C90.2751 96.6255 90.6216 96.4146 89.9211 95.9626C88.859 95.2697 88.4146 95.1115 88.2941 94.6822C88.0908 94.0495 88.7159 94.5843 90.1546 93.1757C90.4031 92.9272 90.599 92.6259 90.84 92.3623C90.968 92.2079 91.0494 92.0211 91.0757 91.823C91.103 91.6245 91.0735 91.4224 90.9906 91.24C89.8307 87.7451 89.6198 88.9351 90.6969 87.6471C91.4501 86.7433 90.1094 86.2386 90.7647 85.3348C91.0057 85.0033 91.081 84.5815 91.2618 84.9581C91.421 85.4312 91.6794 85.8647 92.0198 86.2297C92.3601 86.5947 92.7745 86.8828 93.2352 87.0747C94.3952 87.5793 95.1559 87.022 96.0372 86.3893C97.8072 85.1088 97.4005 84.4309 97.7319 84.8075C98.4851 85.6586 99.3664 87.4287 102.409 86.4721C103.276 86.1934 103.758 85.4553 104.759 84.461C105.324 83.8886 105.144 83.0073 104.895 82.239C104.646 81.4708 104.436 81.3653 104.692 81.1921C104.888 81.0181 105.127 80.8987 105.385 80.8456C106.017 80.7552 106.206 80.356 106.447 80.2129C106.695 80.823 106.567 82.0432 107.87 82.4725C110.883 83.4367 111.734 80.9661 112.028 81.6139C112.313 82.076 112.655 82.501 113.045 82.8793C115.568 86.103 115.161 85.5155 115.176 87.1274Z" fill="#CCFFE5"/>
<path id="Vector_11" d="M115.018 19.3979C115.116 53.6015 115.184 54.3246 115.093 54.3396C114.762 54.3999 114.694 54.2493 114.506 53.3906C114.189 51.9745 112.675 51.5829 111.214 51.8842C110.777 51.9896 110.853 52.2382 110.461 51.8842C107.764 49.6245 104.141 51.6205 104.179 52.9085C104.179 53.0968 104.089 53.4207 103.915 53.3303C103.518 53.2858 103.117 53.3244 102.735 53.4438C102.354 53.5631 102.002 53.7604 101.701 54.0233C100.541 55.3941 101.294 55.7256 100.647 55.6653C99.9987 55.605 100.089 55.7933 99.9987 55.0401C99.9394 54.6315 99.7968 54.2394 99.5797 53.8881C99.3626 53.5368 99.0757 53.2339 98.7367 52.998C98.3978 52.7621 98.014 52.5984 97.6092 52.5169C97.2043 52.4355 96.7871 52.438 96.3833 52.5244C95.7424 52.7255 95.2031 53.165 94.8769 53.7521C94.2592 54.5807 94.2668 53.7521 92.7829 54.2493C90.7869 54.9272 90.6363 55.1832 90.2069 55.7105C89.8755 56.1097 89.7324 55.123 88.1205 55.1682C87.1112 55.1682 86.0868 56.5014 85.2658 57.2998C83.2096 59.3033 84.9269 58.4145 80.4754 58.6782C78.9721 58.8151 77.4594 58.8151 75.9561 58.6782C75.6247 58.6782 75.5719 59.0171 75.8205 53.3153C75.9335 50.6564 75.6699 51.2665 75.8205 49.6772C75.9711 48.2537 75.8732 49.0973 75.8205 42.6045C75.8205 42.356 75.8205 42.3635 76.0992 42.2882C76.5922 42.1526 77.1126 42.1526 77.6056 42.2882C80.0234 42.9058 80.6185 42.0396 82.1249 42.243C82.6446 42.3183 83.6314 42.1903 84.0532 42.243C85.665 42.4388 86.132 42.017 86.9606 42.2957C87.9623 42.6347 88.5273 42.1526 90.2898 42.13C91.0162 42.0603 91.7477 42.0603 92.4741 42.13C93.5286 42.3786 93.9805 41.9417 95.2083 42.1827C96.2281 42.3108 97.2608 42.3108 98.2814 42.1827C99.8406 42.1827 102.582 42.2656 103.245 42.1827C104.752 42.0773 104.322 42.5443 106.16 42.3635C107.418 42.2355 107.041 42.3635 108.593 42.3108C110.348 42.2204 109.994 42.0396 110.348 42.1677C110.523 42.2287 110.714 42.2233 110.884 42.1525C111.055 42.0816 111.194 41.9503 111.274 41.7835C112.562 39.8327 111.787 39.7423 111.274 39.0569C110.521 38.1455 109.015 38.3037 108.472 38.3037C108.118 38.3037 108.231 38.1455 107.644 37.5505C107.215 37.1061 106.627 37.1814 106.439 37.0684C106.238 36.9604 106.018 36.8952 105.791 36.877C105.564 36.8589 105.336 36.8881 105.121 36.9629C104.737 36.9922 104.361 37.0918 104.013 37.2567C103.938 37.3019 103.848 37.2567 103.848 37.1362C103.848 36.2097 101.829 35.7653 101.016 35.9762C100.631 36.0741 101.355 35.3887 99.6673 34.6204C99.5091 34.5451 99.0045 34.6656 98.9141 34.0631C98.8538 33.6714 98.417 33.4304 98.0178 33.3098C97.6186 33.1893 97.8521 33.1441 97.9199 31.6603C97.9651 30.8092 96.9557 30.1539 96.0368 30.0108C95.5397 29.943 95.7205 30.2518 94.7036 29.943C93.506 29.5814 92.444 29.1295 91.8113 30.3572C91.7209 30.538 91.7736 30.4702 91.5251 30.6887C90.9601 29.8375 90.109 29.8601 89.9358 29.6191C89.7625 29.3781 90.2672 27.6381 88.3164 26.9075C87.7364 26.6891 88.3164 26.5535 87.8494 25.7325C87.4427 25.1192 86.844 24.6582 86.1471 24.4219C85.8982 24.2923 85.612 24.2529 85.3373 24.3106C85.0626 24.3683 84.8164 24.5194 84.6407 24.7382C84.5126 24.8814 84.4448 24.7382 84.1737 24.6253C83.2246 24.1733 80.6787 24.1432 80.2042 25.2806C80.1138 25.5065 79.9632 25.5593 79.451 25.4463C78.9873 25.3659 78.5101 25.447 78.0989 25.6759C77.6877 25.9048 77.3674 26.2677 77.1914 26.7041C77.0256 27.1711 76.2724 26.6062 75.7979 27.5402C75.3234 28.4742 75.8506 24.0302 75.7075 20.2717C75.6548 18.9987 76.1444 19.7068 79.2326 19.5185C80.6541 19.4215 82.08 19.4064 83.5033 19.4733C85.763 19.5411 83.8648 19.3753 87.9548 19.3979C91.4874 19.3979 89.3483 19.5712 92.4741 19.3151C93.9805 19.1946 102.371 19.4356 108.465 19.2699C115.04 19.1494 115.01 18.8707 115.018 19.3979Z" fill="#F2FBFF"/>
<path id="Vector_12" d="M115.086 104.617C115.086 105.272 115.086 106.124 114.423 106.184C101.001 106.621 104.985 106.38 102.989 106.071C102.236 105.95 103.14 105.852 102.756 100.452C102.756 100.286 102.567 100.09 102.71 99.9697C102.71 99.9697 109.859 99.789 114.099 99.9697C115.749 100.015 114.882 98.9077 115.086 104.617Z" fill="#CCFFE5"/>
<path id="Vector_13" d="M111.116 40.1567C111.282 40.2847 111.282 40.4354 110.785 41.3392C110.642 41.6029 110.454 41.505 109.625 41.505C108.924 41.569 108.22 41.5916 107.516 41.5727C107.132 41.5501 106.747 41.5501 106.364 41.5727C104.307 41.7159 104.345 41.2564 103.351 41.3844C101.362 41.6556 102.093 41.0455 96.4739 41.4748C95.329 41.5652 95.1784 41.1133 93.6493 41.3618C92.8961 41.4824 90.7721 41.0304 88.4371 41.5426C86.9834 41.859 87.1114 41.2564 85.831 41.4598C84.3923 41.6933 84.2341 41.3769 83.383 41.4598C81.8163 41.6481 82.1176 41.1434 80.4681 41.5577C79.417 41.7622 78.3335 41.7288 77.297 41.4598C76.1597 41.2263 75.7906 41.8966 75.7906 41.2941C75.7454 40.2245 75.8358 40.2923 75.7529 40.2923C75.7529 27.4876 75.6023 28.994 76.1597 28.0902C76.7848 27.0809 77.3723 28.0902 77.7489 27.0733C78.5022 25.1225 80.3701 26.9829 80.7016 25.7778C80.8823 25.1451 81.9067 25.0246 82.5545 25.1376C83.2022 25.2505 83.5111 25.0547 83.8349 25.3259C85.1229 26.3954 84.6861 24.5727 86.0946 25.2355C88.2638 26.2975 86.4637 27.5931 87.6537 27.5705C87.8958 27.5842 88.1309 27.6561 88.3391 27.7802C88.5473 27.9043 88.7225 28.0769 88.8497 28.2832C88.9769 28.4896 89.0524 28.7236 89.0697 28.9654C89.0871 29.2072 89.0457 29.4495 88.9493 29.6719C88.7082 29.9582 88.8815 30.2896 89.2581 30.3122C89.6347 30.3348 90.8022 30.6662 90.6741 31.1106C90.4934 31.9542 91.6458 31.9692 92.399 30.7189C93.1522 29.4686 94.3724 31.0804 95.8487 30.7566C96.0809 30.7294 96.3158 30.7756 96.5205 30.8886C96.7251 31.0017 96.8892 31.176 96.9899 31.387C97.0565 31.5268 97.0937 31.6789 97.0991 31.8337C97.0388 33.3401 96.7601 33.6338 97.3928 33.8749C98.3645 34.259 98.2891 34.2515 97.8899 34.8013C97.4907 35.3512 97.9427 35.5545 98.3871 35.3813C98.8315 35.2081 99.1403 35.1101 99.8935 35.6073C100.18 35.7956 100.089 36.1044 100.059 36.4509C100.029 36.7974 100.285 37.0986 100.812 36.8802C101.167 36.7227 101.563 36.6831 101.942 36.7672C102.213 36.7785 102.482 36.8275 102.741 36.9103C103.343 37.1966 103.012 37.6635 103.607 38.0703C104.202 38.477 104.232 37.7012 105.166 37.7841C105.368 37.6973 105.587 37.6583 105.807 37.6701C106.026 37.6819 106.24 37.744 106.431 37.8519C106.617 37.8533 106.799 37.9025 106.96 37.9949C107.121 38.0872 107.255 38.2196 107.35 38.3791C107.448 38.4898 107.514 38.6254 107.539 38.7708C107.689 39.8554 108.608 38.7708 109.655 39.0721C111.034 39.5466 110.363 39.5617 111.116 40.1567Z" fill="white"/>
<path id="Vector_14" d="M103.403 107.366C102.65 107.065 99.1477 106.892 98.6506 106.839C98.4999 106.839 98.4547 106.756 98.4698 106.628C98.6054 105.543 100.398 105.935 101.415 105.935C101.844 105.935 101.807 106.169 101.98 103.291V102.38C101.98 102.071 101.98 102.169 101.761 102.275C96.9935 104.896 83.0741 104.677 77.1914 104.082C75.5344 103.917 72.401 103.653 71.2109 102.275C70.9322 101.958 71.7231 114.108 72.4688 120.623C72.7701 123.221 72.7173 125.225 74.7962 126.054C78.5623 127.56 83.8348 127.974 88.6102 127.974C92.1277 127.974 96.7374 128.11 99.1552 125.579C99.4791 125.248 99.7578 123.199 97.8597 121.489C97.5057 121.173 97.6789 120.849 98.0103 120.548C98.176 120.427 103.283 120.728 105.076 118.74C105.688 118.202 106.172 117.532 106.492 116.781C106.928 115.433 107.041 115.079 106.996 114.605C106.921 113.445 108.103 109.219 103.403 107.366ZM102.424 117.158C101.478 117.529 100.464 117.698 99.449 117.655C98.6958 117.602 97.7618 117.693 97.8446 116.902C97.9275 116.111 100.406 116.97 100.488 116.217C100.88 112.684 101.099 113.264 99.2607 111.501C99.11 111.358 99.0046 111.584 98.741 110.944C98.274 109.829 101.754 110.146 102.612 110.65C104.925 112.066 104.126 116.789 102.424 117.158Z" fill="white"/>
<path id="Vector_15" d="M82.0273 62.9414C83.722 62.9414 83.835 62.7455 83.7521 63.0543C83.5284 63.5693 83.4229 64.1278 83.4433 64.6888C83.4433 65.1332 83.5262 64.9901 81.5527 65.2387C81.1437 65.2625 80.739 65.3358 80.3476 65.4571C80.1819 65.5249 80.0463 65.4571 80.0689 65.2688C80.0915 65.0805 79.986 65.0052 79.8881 64.8997C79.6396 64.621 78.8863 65.3968 78.5851 65.1257C78.4721 65.0202 78.4796 65.1257 79.7977 63.7548C80.4078 63.1447 80.4756 62.9414 80.8748 62.964C81.2589 62.9911 81.6446 62.9835 82.0273 62.9414Z" fill="white"/>
<path id="Vector_16" d="M80.7469 87.1496C81.1989 87.0441 81.8391 87.4433 81.5905 87.6994C81.342 87.9555 80.8373 88.3623 80.8373 88.3924C80.1594 89.1983 79.828 88.6711 78.9468 89.8988C78.3213 90.7169 78.0364 91.7452 78.1515 92.7685C78.2666 93.7918 78.7728 94.731 79.5644 95.3898C80.2272 95.8492 79.7301 95.8191 79.5644 96.3012C79.3987 96.7832 79.0748 96.4292 76.3406 97.0092C75.9038 97.0996 76.0092 97.0619 75.9716 95.4048C75.9113 92.392 75.7381 79.994 75.7456 76.0246C75.7456 75.8363 75.6025 74.8722 75.61 74.006C75.7124 72.3112 75.6846 70.612 75.5272 68.9218C75.4669 68.048 75.2786 68.402 77.7868 65.8034C78.058 65.5247 77.7868 65.7357 79.0899 65.7357C79.4062 65.7357 79.4815 65.5549 79.6021 65.7808C79.813 66.165 79.3158 66.1499 78.9091 67.468C78.073 70.1269 79.8431 70.5186 78.8564 70.85C78.4158 70.9957 78.0359 71.2831 77.7757 71.6672C77.5154 72.0514 77.3896 72.5109 77.4177 72.9741C77.5684 75.0831 78.4346 75.4521 78.9995 75.8815C79.3158 76.1225 79.6397 76.228 79.3987 76.3334C78.3065 76.8155 78.3442 76.7703 77.9676 77.0866C75.9716 78.8717 76.6871 81.1465 78.2387 81.9524C78.4948 82.088 78.0956 82.2386 77.8019 82.8638C77.5773 83.5087 77.5286 84.2018 77.661 84.8717C77.7934 85.5416 78.102 86.1641 78.5551 86.6751C79.1953 87.4509 79.8506 87.3605 80.7469 87.1496Z" fill="#CCFFE5"/>
<path id="Vector_17" d="M71.5045 88.1893C71.7079 96.3015 72.3556 99.3746 70.8341 99.3821C62.8124 99.4349 52.3276 99.7587 51.2505 99.6458C48.7574 99.3821 35.7418 99.6458 35.7267 99.6458C35.1844 99.706 35.1091 99.4725 33.9943 99.4725C29.0532 99.4725 29.4298 99.9169 29.4298 98.659C29.4298 94.3356 29.4675 97.8154 29.3545 93.2359C29.261 91.8029 29.2812 90.3648 29.4148 88.935C29.4148 86.7507 29.0532 83.9035 29.5654 83.4968C31.2602 82.141 31.682 81.546 33.3315 80.6722C35.2296 79.6479 36.0205 78.2544 38.604 76.3488C39.3572 75.7914 39.312 75.7989 39.41 76.281C39.7112 77.8627 41.4662 76.6501 42.1517 75.7688C42.4379 75.3997 42.3626 75.7688 42.4002 76.055C42.4018 76.1807 42.437 76.3036 42.5022 76.411C42.5675 76.5184 42.6603 76.6063 42.7712 76.6655C42.882 76.7248 43.0066 76.7532 43.1322 76.7478C43.2577 76.7425 43.3795 76.7035 43.4849 76.635C43.9293 76.409 44.0648 76.055 44.1703 76.2659C44.5092 76.8911 44.7578 77.4259 45.5185 77.5313C45.9931 77.5991 46.1964 77.3355 46.5128 77.0041C46.8291 76.6727 46.6182 77.7573 47.9439 78.1038C48.1678 78.1555 48.4021 78.1369 48.6151 78.0507C48.828 77.9644 49.0092 77.8146 49.134 77.6217C49.7591 76.8685 49.2394 76.7856 49.9475 77.5765C50.3542 78.0285 51.5141 78.5934 51.8456 77.4937C52.0941 76.6802 51.7401 76.6425 52.3879 77.3882C52.5336 77.6031 52.7325 77.7764 52.9653 77.8914C53.198 78.0064 53.4566 78.0591 53.7158 78.0443C53.9751 78.0301 54.2264 77.9491 54.4451 77.8091C54.6638 77.669 54.8425 77.4747 54.9639 77.2451C55.0543 77.0493 55.1296 76.8459 55.2124 76.6425C55.3179 76.6425 56.6586 77.9983 57.683 76.8158C58.0897 76.3563 57.9918 77.6292 59.5962 77.7196C59.7494 77.7211 59.9001 77.6814 60.0327 77.6045C60.1652 77.5276 60.2746 77.4165 60.3494 77.2828C60.5377 77.0267 60.4172 76.8459 60.7938 77.0794C61.66 77.6368 62.3002 77.3882 62.5488 76.8911C62.6919 76.6049 63.2116 76.9438 63.3773 76.0701C63.4225 75.7914 63.4225 75.9119 64.1305 76.4542C65.383 77.3324 66.5711 78.2989 67.6857 79.3466C68.5142 80.0998 71.3689 82.1561 71.3539 82.4348C71.3011 83.2784 71.4518 84.1069 71.4819 84.943C71.5045 86.0427 71.4744 87.1198 71.5045 88.1893Z" fill="#CCFFE5"/>
<path id="Vector_18" d="M70.8647 19.466C71.8891 19.5187 71.6707 22.4788 71.6179 24.1208C71.6616 25.07 71.6112 26.0212 71.4673 26.9605C71.1735 29.1523 71.6556 29.6494 71.1811 29.5591C70.3375 29.4009 70.3601 29.5591 70.3525 29.2276C70.3525 28.3991 70.3525 27.789 69.6897 27.3446C67.6711 26.0415 67.1966 27.7438 66.9405 27.5103C66.7929 27.3742 66.6132 27.2779 66.4182 27.2305C66.2231 27.1831 66.0193 27.186 65.8257 27.2392C64.7561 27.5932 64.6356 24.151 59.4083 23.4731C58.2278 23.3625 57.0379 23.5322 55.9354 23.9683C54.8329 24.4044 53.8489 25.0946 53.0635 25.9828C52.2781 26.871 51.7135 27.932 51.4155 29.0796C51.1176 30.2272 51.0947 31.4289 51.3489 32.587C51.4619 33.1142 50.7463 32.233 49.5788 33.7921C49.2535 34.1512 49.0367 34.5952 48.9537 35.0726C48.916 35.4492 47.6732 34.6131 46.4906 36.1196C46.1969 36.4886 46.4906 36.8276 46.0462 36.9632C45.3045 37.0393 44.5555 37.0038 43.8243 36.8577C43.0682 36.6804 42.2748 36.7544 41.5646 37.0686C40.4047 37.9951 40.4724 38.0704 40.2992 38.4395C40.0506 38.9517 39.6891 37.8143 38.6346 39.0345C37.8814 39.9309 37.6554 41.2113 38.6346 41.9269C39.4405 42.537 39.7946 41.9871 40.6231 42.1001C41.1202 42.1679 41.301 41.9269 41.7077 42.1378C42.1145 42.3487 42.4007 42.2809 43.4928 42.3713C44.1783 42.3464 44.8577 42.2432 45.519 42.0625C47.3418 41.9344 46.4605 42.5294 48.321 42.2432C48.6072 42.1905 48.9009 42.1905 49.1872 42.2432C49.6404 42.2821 50.0968 42.2567 50.5429 42.1679C51.7029 42.0625 52.1322 42.3487 53.3524 42.07C54.5727 41.7913 54.0077 42.6198 57.8717 42.2131C58.4517 42.1528 58.7605 42.4617 60.0485 42.3411C60.9976 42.2508 63.0162 41.9721 63.2798 41.957C63.9653 41.9118 64.2063 42.4541 65.5395 42.1378C66.1117 42.0678 66.688 42.0376 67.2644 42.0474C69.4035 41.957 69.4261 42.3411 69.9081 42.183C70.3313 42.115 70.7638 42.1304 71.1811 42.2282C71.8062 42.2282 71.3468 57.9026 71.3468 57.993C71.3469 58.0951 71.3263 58.1963 71.2861 58.2902C71.2459 58.3841 71.187 58.4689 71.113 58.5393C71.039 58.6098 70.9515 58.6645 70.8557 58.7C70.7599 58.7356 70.6579 58.7513 70.5559 58.7462C57.6382 58.46 57.7512 58.4826 57.6307 58.4976C54.8664 58.8441 45.4361 58.4976 39.9151 58.7989C36.149 58.9797 39.3803 58.8893 32.6315 58.7989C28.6696 58.7537 28.9482 59.4843 29.2194 53.308C29.4228 48.6682 29.0838 24.2865 29.0914 24.1736C29.3776 18.9011 28.662 19.1421 29.6412 19.2099C30.6204 19.2777 31.479 19.112 32.398 19.0894C32.6239 19.0894 35.0493 19.2099 36.4277 19.2475C38.9058 19.3304 57.578 18.773 70.8647 19.466Z" fill="#F2FBFF"/>
<path id="Vector_19" d="M71.3621 33.0166C71.5052 34.1465 71.3621 36.9635 71.3621 38.9068C71.3621 41.3547 71.4073 41.5129 71.1362 41.4451C70.1118 41.2116 69.931 41.5581 69.3435 41.3698C68.464 41.2312 67.5701 41.2084 66.6846 41.302C65.7356 41.0986 64.9523 41.6184 64.3271 41.3397C63.4082 40.9254 62.8884 41.2945 59.8078 41.543C58.4821 41.6485 58.9566 41.2794 57.1866 41.5054C56.7196 41.5656 56.1848 41.5054 55.7178 41.543C55.2897 41.5488 54.8647 41.4694 54.4675 41.3095C53.5787 41.0308 53.4356 41.5054 51.5977 41.3849C49.9632 41.2794 50.3097 41.6033 49.0971 41.4451C48.3438 41.3472 47.5153 41.6711 46.8374 41.3547C46.1595 41.0384 45.4063 41.3547 44.2087 41.5656C43.746 41.6236 43.2779 41.6236 42.8152 41.5656C41.354 41.641 42.8905 41.1363 39.8702 41.4301C39.4559 41.4677 39.0341 41.6259 38.8382 40.9857C38.7699 40.6915 38.7837 40.3842 38.878 40.0973C38.9723 39.8105 39.1435 39.555 39.373 39.3587C39.4235 39.3013 39.4918 39.2626 39.5671 39.2489C39.6423 39.2352 39.7199 39.2474 39.7873 39.2834C39.968 39.3955 40.1847 39.4346 40.3932 39.3926C40.6017 39.3506 40.7864 39.2308 40.9096 39.0574C41.2109 38.5302 40.7364 38.7938 41.9114 37.7845C42.6646 37.1367 45.7151 38.4398 46.8374 37.4154C47.4475 36.8656 46.8901 36.7375 47.4249 36.2931C47.9597 35.8487 48.4342 36.0295 49.1196 36.0521C50.0612 36.0521 49.4435 35.2989 50.3248 34.1163C50.7165 33.574 51.545 33.4836 51.6655 33.6795C52.0271 34.2368 53.0966 36.5492 55.4316 37.5209C58.0679 38.6281 60.7041 38.5151 62.896 36.7676C67.6488 33.0016 65.4268 28.0153 66.1197 27.9701C66.5792 27.9324 66.4286 28.1283 66.9257 28.4521C67.1968 28.6329 67.4831 28.4521 67.6036 28.1358C67.7262 27.9188 67.9264 27.7563 68.1639 27.6808C68.4014 27.6054 68.6587 27.6226 68.884 27.729C69.7201 28.1659 69.6373 28.2864 69.5996 29.5594C69.5996 30.2674 69.9687 30.2297 70.8951 30.2071C71.8216 30.1845 71.1437 31.2541 71.3621 33.0166Z" fill="white"/>
<path id="Vector_20" d="M71.3165 69.8408C71.3541 70.8953 71.5801 70.594 68.7555 73.4186C68.2961 73.8931 67.6559 74.4354 67.6408 74.4505C67.0834 75.4297 66.2699 75.6933 65.7502 76.5068C65.6372 76.68 65.6674 76.8306 64.9593 76.2281C62.6316 74.3397 60.2026 72.5796 57.6833 70.9556C56.5499 70.0018 55.2805 69.2225 53.9172 68.6432C52.6367 68.0632 52.2676 67.8448 51.2734 67.8071C49.6615 67.7393 47.3943 69.2684 46.8897 69.6902C46.1682 70.2384 45.4136 70.7415 44.63 71.1966C38.1674 75.3845 33.5728 79.8962 32.4204 80.3557C31.5542 80.7022 29.3171 82.9317 29.2569 82.4798C29.085 81.1206 29.0598 79.7469 29.1816 78.3823C29.1816 76.3335 28.8351 71.1363 29.0761 64.8244C29.011 64.4969 29.0619 64.157 29.2199 63.863C29.3779 63.5689 29.6333 63.3389 29.9423 63.2125C31.0345 62.6551 36.1789 62.9413 37.3916 63.0468C39.35 63.2125 39.6513 62.9715 40.638 63.107C41.9576 63.2132 43.2848 63.1907 44.5999 63.0393C45.5113 62.9263 45.5716 63.092 48.5543 63.107C56.9527 63.1598 50.0607 62.9112 58.2256 62.8585C66.9855 62.7982 65.464 63.0393 69.4485 62.8585C72.0546 62.7982 71.0755 62.5798 71.3165 69.8408Z" fill="#F2FBFF"/>
<path id="Vector_21" d="M71.2937 72.0029C71.3464 72.2816 71.4142 80.8984 71.2937 81.3955C70.0057 80.695 67.4372 78.1944 66.669 77.5014C66.1266 77.0043 65.396 77.8027 69.147 74.0291C71.4067 71.792 71.0903 72.0858 71.2937 72.0029Z" fill="#CCFFE5"/>
<path id="Vector_22" d="M64.289 100.173C70.0586 100.414 70.9399 99.8341 70.6763 100.173C70.0888 100.926 70.1264 102.5 70.262 105.37C70.3072 106.289 70.4579 106.485 70.1038 106.477C51.8308 106.026 57.0581 106.342 29.7766 106.214C29.1364 106.214 29.6486 104.489 29.4452 100.422C29.4452 100.083 29.5733 100.196 30.6353 100.196C38.1147 100.196 58.5043 100.354 58.6173 100.354C60.1237 100.414 63.4529 100.143 64.289 100.173Z" fill="#CCFFE5"/>
<path id="Vector_23" d="M62.677 25.3865C63.4718 25.9498 64.1236 26.6916 64.5801 27.5523C65.0366 28.4129 65.2851 29.3686 65.3057 30.3426C65.238 30.9226 65.1626 33.1898 63.965 34.6736C62.0142 37.0839 60.0182 38.033 56.4856 37.114C56.0375 37.0555 55.608 36.8986 55.2277 36.6546C55.2277 36.6546 52.9681 35.1481 52.4257 33.5664C50.1661 26.5991 57.1183 21.7258 62.677 25.3865Z" fill="#FFF6CC"/>
<path id="Vector_24" d="M58.203 72.2368C63.257 75.6941 63.2118 75.453 62.775 75.9577C62.5641 76.1912 62.4963 75.7167 62.1799 76.4473C61.9916 76.8691 61.1706 76.7862 60.8392 76.3042C60.681 76.0782 60.3647 75.6263 60.1613 75.7468C59.958 75.8673 60.0634 75.8974 60.0182 76.5452C59.973 77.193 59.0993 77.1478 58.7453 76.726C58.4918 76.514 58.2776 76.259 58.1126 75.9727C58.0598 75.8447 58.0373 75.6715 57.8791 75.6865C57.51 75.6865 57.6079 75.8447 57.2162 76.3494C57.0841 76.5232 56.8912 76.6408 56.6761 76.6785C56.4611 76.7162 56.2397 76.6713 56.0563 76.5527C55.6345 76.3117 55.5441 75.9878 55.3633 75.4681C55.2729 75.2195 54.8436 75.3626 54.7909 75.7995C54.6478 77.0348 53.9021 77.9989 52.9756 77.1854C52.6194 76.8277 52.3422 76.3992 52.1622 75.9276C51.9739 75.5735 51.5219 75.5735 51.4617 76.0707C51.3186 77.193 51.3864 77.0047 51.3487 77.1327C51.0926 78.0516 50.0682 77.1327 49.7669 76.2816C49.669 76.0104 49.6012 75.7844 49.3225 75.8296C48.8555 75.8974 49.1568 77.3361 48.4563 77.5319C47.7559 77.7277 47.4847 77.2005 47.1985 76.6431C46.9122 76.0857 46.8897 75.8146 46.5356 76.1083C46.3398 76.2665 45.7372 77.5244 45.0292 76.6582C44.5472 76.0707 44.7355 75.566 44.4116 75.4907C44.0877 75.4154 43.7638 75.8673 43.5906 76.033C43.1311 76.4473 42.8373 76.1234 42.8825 75.7016V75.0312C42.8825 74.6697 42.5135 74.5115 42.0691 75.084C39.8094 77.9838 39.4403 75.7618 40.3141 75.1593C52.245 66.9191 50.377 66.8814 58.203 72.2368Z" fill="white"/>
<path id="Vector_25" d="M85.5067 58.7309C84.874 58.7912 84.8137 58.5426 85.3636 58.0154C85.9134 57.4881 87.2918 55.7557 88.2559 55.7557C88.5979 55.7371 88.9376 55.8211 89.2315 55.9969C89.5254 56.1727 89.7601 56.4323 89.9055 56.7424C89.9055 57.0211 89.6268 57.8421 89.687 58.1735C89.7473 58.5049 89.7699 58.7234 89.3858 58.7234C89.0016 58.7234 85.808 58.7083 85.5067 58.7309Z" fill="white"/>
</g>
<g id="Ink">
<path id="Vector_26" d="M137.275 54.0161C137.238 53.4663 137.328 52.9767 136.989 52.8411C136.379 52.6377 136.191 53.2855 136.341 53.9107C136.361 54.2127 136.298 54.5148 136.161 54.7844C136.094 55.0598 135.969 55.3176 135.793 55.54C135.618 55.7623 135.396 55.944 135.144 56.0724C133.969 57.0742 133.999 57.1646 133.479 57.1721C132.116 57.1721 131.37 57.1194 131.219 57.8199C130.903 59.6427 134.36 59.0551 129.864 62.5727C129.707 62.6857 129.528 62.7654 129.339 62.8068C129.15 62.8483 128.954 62.8506 128.764 62.8137C127.973 62.8137 128.011 63.2656 127.951 64.1469C127.785 65.9094 128.945 67.3405 126.896 69.0353C125.608 70.1124 124.501 71.8372 122.783 71.4907C122.256 71.3853 121.955 71.4907 121.917 72.131C121.782 74.2475 122.55 73.9613 122.181 74.594C121.503 75.7389 120.629 76.3791 118.889 77.7801C118.136 78.3601 117.383 78.6915 116.63 77.9759C116.05 77.4186 115.44 77.2905 114.588 76.3113C114.35 76.0477 114.019 75.8876 113.664 75.8651C113.309 75.8426 112.96 75.9595 112.69 76.1908C111.651 77.4035 112.69 77.8479 112.193 79.0982C111.952 79.6782 111.589 80.1996 111.129 80.6271C110.669 81.0547 110.123 81.3784 109.527 81.5763C108.872 81.6742 107.712 81.4106 107.606 80.7478C107.561 80.2569 107.455 79.7737 107.29 79.3091C107.041 78.7292 106.16 78.5107 105.844 79.1359C105.234 80.3636 103.75 79.5502 103.584 81.2072C103.494 82.1714 104.488 83.1204 103.953 83.6627C102.206 85.4252 102.499 85.5985 100.556 85.5834C99.7652 85.5834 99.3509 85.0863 98.7935 84.4235C97.5507 82.9622 97.7993 82.917 97.1289 83.0074C96.4586 83.0978 97.7918 84.1372 94.4475 86.0655C94.0106 86.314 92.813 85.9525 92.2556 84.7097C92.1069 84.3228 91.9886 83.9249 91.9016 83.5196C91.8673 83.4349 91.8146 83.3588 91.7474 83.2968C91.6802 83.2348 91.6002 83.1885 91.5129 83.1611C91.4253 83.135 91.333 83.1286 91.2426 83.1424C91.1523 83.1562 91.066 83.1898 90.9902 83.2409C90.4629 83.7387 90.0381 84.3349 89.7399 84.9959C89.1448 86.1333 90.0864 86.7584 89.7399 87.0673C88.5724 88.1293 88.5799 87.8205 90.0035 91.4962C90.1014 91.7297 89.0846 92.867 88.1657 93.2587C87.9171 93.3642 87.2693 93.8613 87.2769 94.2077C87.0584 97.0097 91.6154 96.023 88.1054 98.7271C87.7782 99.0379 87.4168 99.3108 87.0283 99.5405C86.8679 99.6253 86.7398 99.7604 86.6636 99.925C86.5874 100.09 86.5673 100.275 86.6065 100.452C86.7571 102.245 87.774 101.958 87.7514 102.712C87.7514 103.194 87.8116 103.374 87.5857 103.389C83.9025 103.63 82.6596 103.713 82.3508 102.696C82.268 102.418 82.042 101.431 82.3508 101.1C82.4678 100.939 82.548 100.754 82.586 100.559C82.624 100.363 82.6188 100.162 82.5707 99.969C82.5226 99.7759 82.4328 99.5957 82.3076 99.441C82.1825 99.2863 82.025 99.1609 81.8462 99.0735C81.4747 98.9846 81.1155 98.8505 80.7766 98.6743C80.5288 98.4714 80.3521 98.1948 80.2722 97.8846C80.1923 97.5744 80.2133 97.2469 80.3322 96.9495C80.8595 95.6765 81.9968 95.782 80.1364 94.494C79.6243 94.0907 79.2726 93.5182 79.1443 92.8792C79.0159 92.2402 79.1193 91.5763 79.4359 91.0066C80.2719 89.5001 80.5582 90.2534 82.0495 88.6415C83.3677 87.248 82.9082 87.0522 82.0495 86.3818C80.641 85.3575 79.5112 87.4062 78.6375 84.9206C78.0952 83.369 78.9764 83.015 79.5037 82.2617C79.7748 81.8776 79.8276 81.3353 79.24 81.1922C78.9141 81.1235 78.6104 80.9745 78.3566 80.7588C78.1028 80.5431 77.9068 80.2675 77.7863 79.9569C77.3645 79.0907 78.3814 77.8102 79.3606 77.4035C79.7372 77.2529 80.7163 76.8762 80.754 76.5373C80.9122 75.0309 78.7429 75.3547 78.3512 73.2005C77.9596 71.0463 81.7257 71.8523 80.5582 70.4287C80.0859 70.0906 79.7622 69.5834 79.6543 69.0127C79.5413 67.7171 80.4075 66.4367 80.8218 66.3689C84.4222 65.4274 84.5879 66.8509 84.4674 64.8173C84.392 64.2068 84.5523 63.5905 84.9156 63.0942C85.279 62.5979 85.818 62.2589 86.4227 62.1464C86.8234 62.071 87.2362 62.0989 87.6233 62.2262C88.2108 62.3844 89.0319 63.2129 89.5214 63.228C89.8015 63.2315 90.0765 63.1537 90.3132 63.004C90.5499 62.8542 90.738 62.639 90.8546 62.3844C91.412 60.6068 90.6965 59.5975 90.5684 58.6183C90.3424 56.9687 91.0128 55.982 91.9769 55.6054C92.3083 55.4698 93.7018 54.8522 94.3044 55.1083C94.4056 55.1881 94.5255 55.2406 94.6528 55.2608C94.7801 55.281 94.9105 55.2682 95.0314 55.2236C95.1523 55.179 95.2598 55.1041 95.3435 55.0061C95.4272 54.9081 95.4844 54.7903 95.5095 54.6639C96.4812 52.5172 98.7182 53.5793 99.012 55.0932C99.2153 56.1854 99.1099 56.8106 99.946 56.6976C100.315 56.5413 100.726 56.5121 101.113 56.6147C101.731 56.7804 101.867 56.0875 101.867 55.982C101.876 55.7283 101.939 55.4793 102.049 55.2508C102.16 55.0223 102.317 54.8191 102.51 54.6541C102.703 54.4893 102.929 54.3663 103.172 54.2928C103.415 54.2193 103.671 54.1969 103.923 54.227C104.047 54.2737 104.181 54.2902 104.312 54.2751C104.444 54.26 104.571 54.2137 104.681 54.1401C104.791 54.0665 104.883 53.9677 104.947 53.8519C105.012 53.736 105.048 53.6064 105.053 53.4738C105.113 52.5097 106.717 51.5983 108.224 51.8619C110.084 52.1933 110.077 53.9935 111.109 53.0219C111.497 52.7866 111.959 52.7059 112.404 52.7959C113.526 52.9089 113.526 53.5491 113.783 54.7242C113.926 55.3719 114.34 55.3192 115.101 55.274C115.861 55.2288 116.035 55.4849 116.607 56.0272C117.18 56.5695 117.76 55.741 118.581 55.4774C121.797 54.453 123.311 57.5412 123.1 54.4078C123.1 54.0387 123.303 53.2479 123.853 53.2177C125.698 53.1349 126.482 53.9709 127.717 53.5039C128.952 53.0369 128.47 52.3063 128.433 51.5305C128.395 50.7547 129.939 50.7773 131.024 50.5137C131.436 50.3867 131.8 50.1384 132.069 49.8011C132.338 49.4638 132.498 49.0532 132.53 48.6231C132.914 47.0037 135.935 47.4104 136.251 47.4029C136.567 47.3954 136.545 47.0037 136.454 46.7702C136.123 46.2505 131.702 46.2429 131.724 48.3745C131.528 48.6382 131.43 49.6098 130.459 49.6851C127.182 49.9412 127.393 50.4384 127.491 52.005C127.604 53.8655 122.422 50.0392 122.083 54.1668C122.038 54.7543 122.03 54.6112 121.465 54.4455C119.635 53.9182 119.65 54.4078 119.65 53.9634C119.65 53.8881 119.823 37.7542 119.831 37.6789C120.057 35.7657 119.703 29.4537 119.831 28.6403C119.933 26.828 119.903 25.0098 119.74 23.2021C119.402 20.6637 120.705 14.6681 117.074 14.9167C104.164 15.8055 43.7259 14.4572 26.4396 15.2104C23.4267 15.346 25.6864 20.8746 24.8729 26.8702C24.7904 27.9352 24.7677 29.0039 24.8051 30.0714C24.5114 31.8339 24.9181 34.2291 24.8051 35.4945C24.1649 45.678 25.2721 38.7032 24.7524 55.274C24.6915 56.1768 24.6915 57.0827 24.7524 57.9856C24.8578 62.1283 24.6997 59.9138 24.6319 62.5501C24.5264 66.5195 25.0009 93.6353 25.0913 99.6234C25.1365 102.636 24.7147 102.471 24.7599 105.649C24.8729 106.272 24.8729 106.91 24.7599 107.532C24.5264 109.265 25.8747 110.394 27.6221 110.455C28.7444 110.455 30.635 110.455 30.9288 110.507C31.9772 110.733 33.0506 110.824 34.1224 110.779C36.5477 110.673 38.0994 110.779 38.8903 110.613C39.9851 110.511 41.087 110.511 42.1818 110.613C54.5345 110.703 46.4751 109.86 70.3973 110.53C70.9019 110.53 70.4726 110.733 71.1505 117.716C71.3915 120.344 71.4593 120.209 71.1505 120.201C69.3654 120.201 26.7107 120.201 25.7692 120.005C25.3474 119.907 24.5114 120.081 24.5867 120.465C24.662 120.849 24.7223 120.834 24.9332 120.857C58.9183 121.565 47.0852 121.271 58.9258 121.128C64.3791 121.067 65.1323 121.203 66.7065 121.03C67.7814 120.994 68.8575 121.014 69.9303 121.09C71.8661 121.143 71.4367 120.857 71.5874 121.941C71.7003 122.747 71.3162 122.16 69.8776 122.694C68.6122 123.146 66.812 123.387 65.0344 125.022C64.5552 125.44 64.1869 125.971 63.9622 126.566C63.7375 127.161 63.6634 127.803 63.7464 128.434C63.8669 128.999 63.5807 129.187 63.5204 129.842C63.4517 130.783 63.7186 131.717 64.2736 132.479C65.0269 133.556 64.9741 133.676 65.8253 134.204C66.6764 134.731 66.8572 134.957 67.5803 135.446C69.5236 136.674 75.1802 137.939 77.131 138.105C81.7934 138.497 89.0545 139.657 99.8782 137.608C100.898 137.381 101.904 137.095 102.891 136.749C104.812 136.531 110.529 133.458 109.971 129.767C109.828 128.81 110.499 128.261 110.032 127.033C109.762 126.175 109.237 125.421 108.525 124.871C107.717 124.164 106.771 123.633 105.746 123.312C103.403 122.649 104.315 122.649 100.955 122.227C100.923 122.228 100.892 122.221 100.863 122.207C100.834 122.193 100.809 122.172 100.791 122.146C100.772 122.12 100.76 122.089 100.756 122.058C100.752 122.026 100.756 121.994 100.767 121.964C100.985 121.082 100.428 121.625 102.575 121.128C105.173 120.525 122.256 120.939 122.279 120.939C123.281 120.751 124.004 121.09 124.064 120.51C124.074 120.462 124.075 120.412 124.066 120.364C124.057 120.315 124.038 120.269 124.011 120.228C123.984 120.187 123.948 120.152 123.907 120.126C123.865 120.099 123.819 120.081 123.77 120.073C121.849 119.757 106.446 120.133 105.625 119.825C107.041 118.589 107.923 115.855 107.975 114.251C108.329 113.904 107.907 111.411 107.885 111.193C107.862 110.974 107.885 110.937 108.284 110.944C115.959 111.14 115.161 110.696 116.065 110.763C117.39 110.989 120.027 110.364 119.891 108.203C119.838 107.299 120.027 107.449 119.891 104.745C119.545 96.6331 119.771 78.6463 119.771 78.6388C119.771 78.0739 120.155 78.1416 121.051 77.3432C124.064 74.6919 123.107 74.1119 122.806 72.6884C122.708 72.1988 123.748 73.2307 125.819 71.3702C128.003 69.4043 128.613 68.8545 128.9 67.8C129.397 65.9546 128.643 65.4274 128.794 64.3879C128.862 63.9285 128.794 63.7778 129.095 63.7778C130.301 63.7778 131.408 62.5576 132.251 61.7215C132.673 61.2997 132.939 60.7476 133.005 60.1548C133.238 59.0551 132.929 58.9422 132.342 58.2567C131.935 57.7822 133.848 58.5505 134.903 57.5035C135.656 56.7955 136.537 56.336 136.831 55.5226C137.082 55.0571 137.233 54.5434 137.275 54.0161ZM114.927 99.1488C111.365 99.2091 112.856 99.2016 103.109 99.307C102.733 99.307 102.432 99.4878 102.108 99.1263C100.503 97.3788 93.1068 96.5804 90.7341 96.5954C90.2747 96.5954 90.6211 96.3845 89.9207 95.9326C88.8586 95.2397 88.4142 95.0815 88.2937 94.6521C88.0903 94.0194 88.7155 94.5542 90.1541 93.1457C90.4027 92.8972 90.5985 92.5959 90.8396 92.3322C90.9671 92.178 91.0488 91.991 91.0755 91.7926C91.1021 91.5943 91.0726 91.3924 90.9902 91.2099C89.8303 87.715 89.6194 88.9051 90.6965 87.6171C91.4497 86.7132 90.1089 86.2086 90.7643 85.3047C91.0053 84.9733 91.0806 84.5515 91.2614 84.9281C91.42 85.4015 91.6782 85.8353 92.0186 86.2004C92.359 86.5655 92.7737 86.8534 93.2348 87.0447C94.3948 87.5493 95.1555 86.9919 96.0368 86.3592C97.8068 85.0788 97.4001 84.4009 97.7315 84.7775C98.4847 85.6286 99.366 87.3987 102.409 86.4421C103.275 86.1634 103.757 85.4252 104.759 84.431C105.324 83.8586 105.143 82.9773 104.895 82.209C104.646 81.4407 104.435 81.3353 104.691 81.162C104.888 80.9881 105.127 80.8687 105.384 80.8156C106.017 80.7252 106.205 80.326 106.446 80.1829C106.695 80.793 106.567 82.0132 107.87 82.4425C110.883 83.4066 111.734 80.9361 112.028 81.5838C112.313 82.0461 112.654 82.4712 113.044 82.8493C115.575 86.1333 115.161 85.5307 115.176 87.1501C115.327 99.1564 115.259 99.1488 114.927 99.1488ZM115.086 104.617C115.086 105.272 115.086 106.124 114.423 106.184C101 106.621 104.985 106.38 102.989 106.071C102.236 105.95 103.14 105.852 102.755 100.452C102.755 100.286 102.567 100.09 102.71 99.9698C102.71 99.9698 109.858 99.7891 114.099 99.9698C115.748 100.015 114.882 98.9078 115.086 104.617ZM89.9508 98.373C90.35 97.665 90.3199 97.4993 90.5609 97.5219C94.7563 97.9362 102.319 98.1697 101.475 101.039C101.302 101.612 100.94 101.627 100.157 101.883C99.7652 102.011 100.232 100.987 98.6052 100.309C94.4927 98.599 91.2764 99.0359 90.1767 98.8551C89.529 98.7572 89.6871 98.8626 89.9508 98.373ZM114.242 83.1129C112.193 80.3486 112.736 81.2374 112.592 80.9511C112.254 80.3034 113.639 80.0247 113.172 77.4336C113.12 77.2227 113.436 76.6804 113.843 77.0796C115.59 78.8873 115.297 77.75 115.432 79.4673C114.95 85.1541 115.786 85.1842 114.242 83.0903V83.1129ZM75.8958 63.0321H79.3982C79.2852 63.2732 76.6866 65.7437 76.4833 65.9169C75.3158 66.8886 75.5719 68.0034 75.5945 64.8624C75.6095 63.13 75.3911 63.0472 75.8958 63.0321ZM83.7518 63.0321C83.5281 63.5471 83.4226 64.1056 83.443 64.6666C83.443 65.111 83.5258 64.9679 81.5524 65.2165C81.1433 65.2402 80.7387 65.3136 80.3473 65.4349C80.1816 65.5027 80.046 65.4349 80.0686 65.2466C80.0912 65.0583 79.9857 64.983 79.8878 64.8775C79.6393 64.5988 78.886 65.3746 78.5847 65.1035C78.4718 64.998 78.4793 65.1035 79.7974 63.7326C80.4075 63.1225 80.4753 62.9192 80.8745 62.9417C84.0456 62.9643 83.7518 62.7534 83.7518 63.0547V63.0321ZM77.7261 65.804C77.9972 65.5253 77.7261 65.7362 79.0291 65.7362C79.3455 65.7362 79.4208 65.5554 79.5413 65.7814C79.7522 66.1655 79.2551 66.1504 78.8484 67.4686C78.0123 70.1274 79.7824 70.5191 78.7956 70.8505C78.3548 70.9957 77.9744 71.2829 77.7141 71.6672C77.4538 72.0515 77.3282 72.5113 77.357 72.9746C77.5076 75.0836 78.3738 75.4527 78.9388 75.882C79.2551 76.123 79.579 76.2285 79.338 76.3339C78.2458 76.816 78.2835 76.7708 77.9068 77.0871C75.9108 78.8723 76.6264 81.147 78.178 81.9529C78.4341 82.0885 78.0349 82.2391 77.7411 82.8643C77.5187 83.5095 77.4713 84.2021 77.6036 84.8716C77.7359 85.5411 78.0432 86.1635 78.4944 86.6756C79.2024 87.4288 79.8577 87.3158 80.754 87.0974C81.2059 86.9919 81.8462 87.3911 81.5976 87.6472C81.349 87.9033 80.8444 88.3101 80.8444 88.3402C80.1665 89.1461 79.8351 88.6189 78.9538 89.8466C78.3284 90.6647 78.0434 91.693 78.1585 92.7163C78.2737 93.7396 78.7799 94.6788 79.5715 95.3376C80.2343 95.797 79.7372 95.7669 79.5715 96.249C79.4058 96.731 79.0819 96.377 76.3477 96.957C75.9108 97.0474 76.0163 97.0097 75.9786 95.3526C75.6623 81.1545 75.6547 70.7451 75.5342 68.8696C75.4212 68.0787 75.2329 68.4252 77.7185 65.8266L77.7261 65.804ZM77.2139 97.8157C77.8335 97.6886 78.4596 97.5956 79.0894 97.537C79.3756 97.4842 79.2099 98.373 79.8426 99.1263C80.174 99.5405 79.6468 99.2317 76.0765 100.113C75.5387 100.286 75.0175 100.505 74.5174 100.768C73.2595 101.311 73.3348 102.358 73.0109 102.275C71.7154 101.755 71.7606 101.567 71.5422 100.768C71.5422 100.015 73.4327 98.9681 74.1483 98.6819C74.8639 98.3956 75.135 98.4408 77.2214 97.8382L77.2139 97.8157ZM85.1603 58.4676C86.1395 57.6768 87.5706 55.4171 88.7155 56.0197C89.8604 56.6223 89.7097 56.6147 89.6646 56.7729C89.2051 58.1814 89.8679 58.5731 89.2126 58.5806C89.2051 58.43 84.7912 58.784 85.1528 58.4902L85.1603 58.4676ZM88.1205 55.1761C87.1036 55.1761 86.0792 56.5017 85.2582 57.3002C83.202 59.3037 84.9268 58.4149 80.4753 58.6785C78.972 58.8158 77.4593 58.8158 75.956 58.6785C75.6246 58.6785 75.5719 59.0175 75.8129 53.3156C75.9334 50.6568 75.6698 51.2669 75.8129 49.6776C75.956 48.254 75.8581 49.0976 75.8129 42.6049C75.8129 42.3563 75.8129 42.3639 76.0841 42.2886C76.5773 42.1544 77.0973 42.1544 77.5905 42.2886C80.0008 42.9062 80.6034 42.04 82.1098 42.2434C82.6295 42.3187 83.6162 42.1906 84.0456 42.2434C85.6574 42.4392 86.1169 42.0174 86.953 42.2961C87.9472 42.635 88.5197 42.153 90.2747 42.1304C91.0011 42.0606 91.7326 42.0606 92.459 42.1304C93.5135 42.3789 93.9654 41.9421 95.2007 42.1831C96.2183 42.3112 97.2487 42.3112 98.2663 42.1831C99.833 42.1831 102.567 42.266 103.23 42.1831C104.736 42.0852 104.315 42.5446 106.152 42.3639C107.403 42.2358 107.026 42.3639 108.578 42.3112C110.34 42.2208 109.979 42.04 110.34 42.168C110.514 42.227 110.703 42.2205 110.872 42.1498C111.042 42.079 111.179 41.9489 111.259 41.7839C112.555 39.8331 111.779 39.7427 111.259 39.0573C110.506 38.1459 109 38.304 108.465 38.304C108.111 38.304 108.216 38.1459 107.636 37.5508C107.207 37.1064 106.612 37.1817 106.431 37.0688C106.231 36.9611 106.01 36.8962 105.783 36.878C105.556 36.8599 105.328 36.8889 105.113 36.9633C104.727 36.9969 104.35 37.0963 103.998 37.2571C103.923 37.3023 103.84 37.2571 103.833 37.1366C103.833 36.2101 101.814 35.7657 101.008 35.9766C100.624 36.0745 101.339 35.3891 99.6522 34.6208C99.5016 34.5455 98.9894 34.666 98.899 34.0634C98.8387 33.6718 98.4019 33.4307 98.0027 33.3102C97.6035 33.1897 97.837 33.1445 97.9047 31.6607C97.9424 30.8095 96.9406 30.1542 96.0142 30.0111C95.517 29.9433 95.6978 30.2522 94.6885 29.9433C93.4909 29.5818 92.4289 29.1299 91.7962 30.3576C91.6982 30.5384 91.7585 30.4706 91.5024 30.689C90.945 29.8379 90.0939 29.8605 89.9207 29.627C89.7474 29.3935 90.2521 27.6385 88.3012 26.9079C87.7213 26.6894 88.3012 26.5539 87.8342 25.7329C87.4243 25.1226 86.8267 24.6626 86.132 24.4223C85.8831 24.2925 85.5968 24.2531 85.3221 24.3108C85.0474 24.3685 84.8012 24.5197 84.6255 24.7386C84.4975 24.8817 84.4297 24.7386 84.151 24.6256C83.2095 24.1737 80.6561 24.1436 80.1891 25.2809C80.0912 25.5069 79.9481 25.5596 79.4359 25.4466C78.9723 25.3675 78.4955 25.449 78.0846 25.6777C77.6737 25.9065 77.3532 26.2688 77.1762 26.7045C77.0105 27.1715 76.2648 26.6066 75.7903 27.5406C75.3158 28.4746 75.8355 24.0306 75.6924 20.272C75.6472 18.9991 76.1293 19.7071 79.2174 19.5188C80.6415 19.422 82.0699 19.4069 83.4957 19.4736C85.7554 19.5414 83.8573 19.3757 87.9472 19.3983C91.4798 19.3983 89.3407 19.5716 92.4665 19.3155C93.973 19.1949 102.364 19.4284 108.45 19.2703C115.048 19.1046 115.018 18.8334 115.018 19.3607C115.018 24.9269 115.199 25.3864 115.168 26.1396C114.649 42.9815 115.733 58.8141 114.513 53.3382C114.197 51.9297 112.683 51.5305 111.222 51.877C110.785 51.9824 110.853 52.231 110.468 51.877C107.764 49.6173 104.149 51.6134 104.187 52.9014C104.187 53.0821 104.096 53.4136 103.923 53.3232C103.526 53.2762 103.123 53.3137 102.742 53.4331C102.36 53.5525 102.008 53.7512 101.708 54.0161C100.541 55.387 101.294 55.7184 100.654 55.6581C100.014 55.5979 100.089 55.7862 99.9987 55.033C99.9459 54.6221 99.8077 54.2268 99.593 53.8725C99.3783 53.5183 99.0918 53.2128 98.752 52.9759C98.4122 52.739 98.0266 52.5757 97.6199 52.4968C97.2133 52.4178 96.7946 52.4247 96.3908 52.5172C95.754 52.7219 95.2167 53.1571 94.8843 53.7374C94.2742 54.5735 94.2742 53.7374 92.7979 54.2421C90.8019 54.92 90.6513 55.1761 90.2144 55.7033C89.8755 56.1477 89.7248 55.1535 88.1129 55.2213L88.1205 55.1761ZM87.6309 27.6159C87.9953 27.6365 88.3399 27.7885 88.6009 28.0437C88.8618 28.299 89.0213 28.6402 89.0499 29.0041C89.068 29.2451 89.0288 29.4876 88.9339 29.7098C88.6929 29.9961 88.8661 30.3275 89.2428 30.3501C89.6194 30.3727 90.7492 30.7041 90.6513 31.1485C90.478 31.9921 91.6229 32.0147 92.3837 30.7568C93.1444 29.4989 94.3496 31.1184 95.8334 30.802C95.9867 30.7828 96.1423 30.7959 96.2902 30.8406C96.4381 30.8852 96.575 30.9603 96.6921 31.0611C96.8092 31.1618 96.9039 31.286 96.97 31.4256C97.0362 31.5652 97.0723 31.7171 97.0762 31.8716C97.0159 33.378 96.7448 33.6718 97.3699 33.9128C98.3416 34.2969 98.2663 34.2969 97.8671 34.8392C97.4679 35.3816 97.9198 35.5925 98.3717 35.4192C98.8237 35.246 99.1249 35.1481 99.8782 35.6452C100.172 35.8335 100.082 36.1423 100.044 36.4888C100.006 36.8353 100.277 37.1366 100.797 36.9181C101.153 36.7651 101.548 36.7257 101.927 36.8051C102.2 36.8191 102.471 36.8672 102.733 36.9483C103.335 37.2345 102.996 37.7015 103.592 38.1082C104.187 38.5149 104.217 37.7391 105.151 37.822C105.353 37.7358 105.572 37.697 105.791 37.7088C106.011 37.7205 106.224 37.7825 106.416 37.8898C106.602 37.8924 106.785 37.9421 106.947 38.0343C107.109 38.1265 107.245 38.2581 107.343 38.417C107.44 38.5277 107.506 38.6633 107.531 38.8087C107.681 39.8933 108.593 38.8087 109.64 39.11C111.086 39.5318 110.393 39.5393 111.146 40.1419C111.312 40.2699 111.312 40.4206 110.815 41.3244C110.672 41.5881 110.483 41.4901 109.655 41.4901C108.954 41.5542 108.249 41.5768 107.546 41.5579C107.162 41.5353 106.777 41.5353 106.393 41.5579C104.337 41.701 104.375 41.2416 103.381 41.3696C101.392 41.6408 102.123 41.0307 96.5038 41.46C95.3589 41.5504 95.2082 41.0985 93.6792 41.347C92.926 41.4676 90.8019 41.0156 88.4669 41.5278C87.0132 41.8442 87.1413 41.2416 85.8608 41.445C84.4222 41.6784 84.264 41.3621 83.4129 41.445C81.8462 41.6333 82.1475 41.1286 80.4979 41.5429C79.4468 41.7474 78.3633 41.7139 77.3269 41.445C76.1895 41.2115 75.8204 41.8818 75.8204 41.2792C75.7752 40.2097 75.8656 40.2775 75.7828 40.2775C75.7828 27.4728 75.6321 28.9792 76.1895 28.0754C76.8147 27.0661 77.4022 28.0754 77.7788 27.0585C78.532 25.1077 80.4 26.9681 80.7314 25.763C80.9122 25.1303 81.9366 25.0098 82.5843 25.1228C83.2321 25.2357 83.5409 25.0399 83.8648 25.3111C85.1528 26.3806 84.7159 24.5578 86.1244 25.2207C86.7722 25.537 87.4727 26.1019 87.2618 26.7874C87.1036 27.3523 87.1563 27.646 87.6233 27.6385L87.6309 27.6159ZM70.6308 109.453C70.6684 109.581 70.6308 109.656 70.4801 109.664C69.4482 109.698 68.4163 109.651 67.392 109.521C66.4504 109.415 66.5935 109.611 63.8142 109.521C53.1034 109.076 45.8274 110.123 41.3759 109.724C39.1162 109.521 40.8712 109.905 35.0865 109.905C33.7797 110.037 32.4607 109.982 31.1698 109.739C29.1436 109.393 25.1441 110.447 25.8295 106.952C26.5375 103.261 25.2721 67.7247 25.9801 51.3271C25.9801 51.2669 25.9801 44.744 25.9123 44.1791C25.4378 37.5659 25.8671 37.3324 25.837 34.6585C25.6758 33.179 25.6758 31.6864 25.837 30.207C25.8671 30.0985 25.8671 29.984 25.837 29.8756C25.5357 29.0696 25.837 27.0585 25.8897 25.3563C26.176 18.8259 25.0386 16.6039 26.643 16.2348C28.9026 15.5644 105.731 16.8073 116.359 15.8205C119.07 15.5644 118.694 18.2836 118.769 19.1573C118.929 20.1711 118.964 21.2008 118.874 22.2229C118.874 22.6522 118.98 22.6371 119.063 25.2357C119.236 30.1015 118.957 25.1755 119.063 33.2876C119.166 34.7941 119.14 36.3058 118.987 37.8069C118.806 39.4791 119.176 40.0666 118.987 42.1756C118.874 43.3431 118.874 50.4609 118.867 50.5739C118.739 56.321 119.176 53.5039 117.579 54.8597C117.481 54.9426 117.368 54.9351 116.328 54.3626C116.163 54.2647 116.17 54.0011 116.087 52.8562C115.978 51.8826 115.978 50.8998 116.087 49.9262C115.266 22.8631 116.72 19.6393 115.643 18.5171C114.89 17.7262 114.28 18.3965 99.9158 18.3513C91.5627 18.3513 79.338 18.6978 76.182 18.502C75.8343 18.4778 75.4894 18.5794 75.2103 18.7882C74.2161 19.5414 75.2781 42.7028 74.8639 53.2704C74.5324 61.8195 72.898 59.4092 87.7966 59.379C89.8981 59.379 89.6721 59.379 89.8152 59.7481C89.9583 60.1172 90.5684 62.5651 89.544 62.1659C88.5197 61.7667 89.062 61.7743 88.6553 61.6086C87.4124 61.1114 86.0567 60.9457 84.972 61.714C84.5879 61.9927 76.5435 61.9852 76.0765 61.9324C74.5174 61.7667 74.6831 62.8815 74.7132 64.7796C74.7132 65.0583 74.6605 73.3512 74.7509 80.3109C74.9166 82.3325 74.9768 84.3617 74.9316 86.3894C74.9316 86.7057 74.9919 87.0145 75.007 87.3384C75.0823 88.8448 74.7885 89.7788 75.0597 97.0624C75.0597 97.3261 74.7283 97.3562 72.9281 98.0642C72.4988 98.2299 72.7624 98.0642 72.7398 95.9251C72.7398 93.1457 71.9414 72.3118 72.0694 63.6422C72.0694 62.889 72.0016 62.0002 71.143 61.94C71.143 61.94 56.4628 61.827 55.6493 61.8646C52.9439 62.1663 50.2202 62.272 47.4995 62.181C46.6054 62.1038 45.7078 62.0736 44.8105 62.0906C43.7548 62.2009 42.6933 62.2462 41.632 62.2262C40.1707 62.1057 40.1255 62.0379 39.8242 62.1433C38.4233 62.6631 27.7728 60.4561 28.1419 64.177C28.2925 65.8416 28.0063 66.6099 28.0665 68.9147C29.0231 107.027 28.0665 107.02 29.3771 107.043C45.2399 107.314 55.1221 106.809 63.3924 107.125C64.6277 107.171 66.345 107.381 67.6405 107.321H70.1713C70.5931 107.427 70.3144 107.736 70.6308 109.453ZM60.018 76.5072C59.9652 77.2604 59.099 77.1097 58.745 76.6804C58.4915 76.4685 58.2773 76.2135 58.1123 75.9272C58.0596 75.7991 58.037 75.6259 57.8788 75.641C57.5098 75.641 57.6077 75.7991 57.216 76.3038C57.0851 76.4793 56.8921 76.5981 56.6764 76.6359C56.4608 76.6737 56.2388 76.6277 56.056 76.5072C55.6342 76.2661 55.5439 75.9423 55.3631 75.4225C55.2727 75.174 54.8434 75.3171 54.7906 75.7615C54.6475 76.9892 53.9018 77.9533 52.9754 77.1474C52.6197 76.7863 52.3427 76.3555 52.1619 75.882C51.9736 75.528 51.5217 75.528 51.4614 76.0251C51.3183 77.1474 51.3861 76.9591 51.3484 77.0947C51.0924 78.0061 50.068 77.0947 49.7667 76.236C49.6688 75.9649 49.601 75.7464 49.3223 75.7841C48.8553 75.8519 49.1566 77.2905 48.4561 77.4863C47.7556 77.6822 47.4844 77.1549 47.1982 76.5976C46.912 76.0402 46.8894 75.769 46.5354 76.0628C46.3396 76.2209 45.737 77.4863 45.029 76.6126C44.5469 76.0326 44.7352 75.5205 44.4113 75.4527C44.0874 75.3849 43.7636 75.8293 43.5903 75.9874C43.1309 76.4017 42.8371 76.0854 42.8823 75.656V74.9857C42.8823 74.6241 42.5132 74.466 42.0688 75.0459C39.8092 77.9383 39.4401 75.7163 40.3138 75.1137C52.2448 66.9187 50.3768 66.8886 58.2027 72.244C63.2568 75.7012 63.2116 75.4602 62.7747 75.9648C62.5638 76.1983 62.496 75.7238 62.1797 76.4544C61.9914 76.8762 61.1704 76.7934 60.839 76.3113C60.6808 76.0854 60.3644 75.6334 60.1611 75.7539C59.9577 75.8745 60.0632 75.882 60.018 76.5373V76.5072ZM57.683 70.9409C56.5496 69.9872 55.2803 69.2078 53.9169 68.6285C52.6364 68.0485 52.2674 67.8301 51.2731 67.7925C49.6612 67.7247 47.3941 69.2537 46.8894 69.6755C46.168 70.2238 45.4133 70.7269 44.6298 71.1819C38.1672 75.3698 33.5725 79.8816 32.4201 80.341C31.5539 80.6875 29.3169 82.917 29.2566 82.4651C29.0847 81.1059 29.0595 79.7322 29.1813 78.3676C29.1813 76.3189 28.8348 71.1217 29.0758 64.8097C29.0108 64.4823 29.0616 64.1424 29.2196 63.8483C29.3777 63.5542 29.6331 63.3243 29.942 63.1978C31.0342 62.6405 36.1787 62.9267 37.3914 63.0321C39.3497 63.1978 39.651 62.9568 40.6377 63.0924C41.9573 63.1993 43.2845 63.176 44.5996 63.0246C45.511 62.9116 45.5713 63.0773 48.554 63.0924C56.9524 63.1451 50.0604 62.8965 58.2253 62.8438C66.9852 62.7836 65.4637 63.0246 69.4482 62.8438C72.0468 62.7384 71.0752 62.5124 71.3162 69.7809C71.3539 70.8354 71.5798 70.5342 68.7553 73.3587C68.2958 73.8332 67.6556 74.3756 67.6405 74.3906C67.0831 75.3698 66.2697 75.6334 65.7499 76.4469C65.637 76.6202 65.6671 76.7708 64.9591 76.1682C62.6267 74.3091 60.198 72.5743 57.683 70.971V70.9409ZM69.162 73.999C71.4217 71.7393 71.0902 72.0557 71.2936 71.9728C71.3463 72.2515 71.4141 80.8683 71.2936 81.3654C70.0056 80.6649 67.4371 78.1642 66.6689 77.4713C66.1416 77.0118 65.411 77.8178 69.162 74.0517V73.999ZM70.6684 100.136C70.0809 100.889 70.1186 102.463 70.2542 105.333C70.2994 106.252 70.45 106.448 70.096 106.44C48.7047 105.913 64.6879 106.335 29.7688 106.176C29.1286 106.176 29.6408 104.451 29.4374 100.384C29.4374 100.045 29.5654 100.158 30.6275 100.158C30.7103 100.158 55.1522 100.249 58.6095 100.316C60.1159 100.316 63.43 100.113 64.2586 100.151C70.0583 100.414 70.9396 99.8343 70.676 100.166L70.6684 100.136ZM51.2355 99.6158C48.7423 99.3522 35.7267 99.6158 35.7117 99.6158C35.1694 99.6761 35.094 99.4426 33.9793 99.4426C29.0382 99.4426 29.4148 99.887 29.4148 98.6291C29.4148 94.3057 29.4525 97.7855 29.3395 93.206C29.246 91.773 29.2662 90.3349 29.3997 88.9051C29.3997 86.7208 29.0382 83.8736 29.5504 83.4669C31.2451 82.1111 31.6669 81.5161 33.3165 80.6423C35.2146 79.618 36.0054 78.2245 38.589 76.3189C39.3422 75.7615 39.297 75.769 39.3949 76.2511C39.6962 77.8328 41.4512 76.6202 42.1366 75.7389C42.4228 75.3698 42.3475 75.7389 42.3852 76.0251C42.3867 76.1508 42.4219 76.2737 42.4872 76.3811C42.5524 76.4885 42.6453 76.5764 42.7561 76.6356C42.8669 76.6949 42.9916 76.7233 43.1171 76.7179C43.2427 76.7126 43.3645 76.6736 43.4698 76.6051C43.9142 76.3791 44.0498 76.0251 44.1552 76.236C44.4942 76.8612 44.7427 77.396 45.5035 77.5014C45.978 77.5692 46.1814 77.3056 46.4977 76.9742C46.8141 76.6427 46.6032 77.7274 47.9288 78.0739C48.1527 78.1256 48.3871 78.107 48.6 78.0208C48.813 77.9345 48.9941 77.7847 49.1189 77.5918C49.7441 76.8386 49.2244 76.7557 49.9324 77.5466C50.3391 77.9985 51.4991 78.5634 51.8305 77.4638C52.0791 76.6503 51.7251 76.6126 52.3728 77.3583C52.5187 77.5732 52.7177 77.7466 52.9506 77.8616C53.1835 77.9766 53.4422 78.0292 53.7015 78.0144C53.9607 78.0001 54.2118 77.919 54.4304 77.779C54.6489 77.6389 54.8275 77.4447 54.9488 77.2152C55.0392 77.0194 55.1145 76.816 55.1974 76.6126C55.3028 76.6126 56.6436 77.9684 57.6679 76.7859C58.0747 76.3264 57.9767 77.5993 59.5811 77.6897C59.7343 77.6912 59.8851 77.6514 60.0176 77.5746C60.1502 77.4977 60.2595 77.3866 60.3343 77.2529C60.5226 76.9968 60.4021 76.816 60.7787 77.0495C61.6449 77.6069 62.2851 77.3583 62.5337 76.8612C62.6768 76.575 63.1965 76.9139 63.3622 76.0402C63.4074 75.7615 63.4074 75.882 64.1155 76.4243C65.368 77.3024 66.556 78.269 67.6706 79.3167C68.4992 80.0699 71.3539 82.1262 71.3388 82.4048C71.2861 83.2485 71.4367 84.077 71.4669 84.9131C71.5045 85.9902 71.4669 87.0748 71.5045 88.1519C71.7079 96.264 72.3556 99.3296 70.8341 99.3372C63.2116 99.4426 51.243 99.7815 51.243 99.661L51.2355 99.6158ZM108.043 132.712C107.644 133.383 107.29 133.511 106.574 134C105.368 135.009 103.928 135.698 102.386 136.004C100.113 136.715 97.7694 137.183 95.3965 137.397C88.0301 138.15 78.5697 137.909 71.4292 135.966C67.7234 134.949 67.9795 134.286 66.6161 133.571C65.8629 133.164 65.7349 132.652 65.1926 132.019C64.6502 131.386 64.3038 129.436 64.9967 130.859C65.3055 131.499 65.8253 131.778 66.5559 132.29C69.6441 134.422 69.4482 133.917 72.1824 134.829C78.2835 136.862 94.8693 137.216 102.627 134.655C104.435 134.06 105.008 134.301 108.698 131.454C109.308 131.108 108.164 132.554 108.051 132.742L108.043 132.712ZM108.932 126.754C110.009 128.81 107.877 130.972 107.237 131.326C106.231 132.105 105.133 132.757 103.968 133.27C93.506 136.78 77.8918 135.205 74.5174 134.399C68.7703 133.029 68.9586 132.757 67.1811 131.499C66.6635 131.245 66.2142 130.87 65.8705 130.407C65.4336 129.752 64.0627 128.396 65.1172 126.641C65.9033 125.496 67.0607 124.658 68.3937 124.269C71.4819 123.282 71.1354 123.387 71.1656 123.387C71.5422 123.387 71.8359 123.033 71.9188 123.508C71.9729 124.336 72.2865 125.127 72.8151 125.768C73.1818 126.179 73.6241 126.517 74.1182 126.762C75.5568 127.402 70.0809 131.386 89.3934 131.635C95.3212 131.71 95.2911 131.032 96.6393 130.746C97.4829 130.618 97.5809 129.993 97.9424 129.496C98.3943 128.675 98.1382 127.794 98.545 127.485C99.0828 127.172 99.5383 126.736 99.8736 126.212C100.209 125.688 100.415 125.091 100.473 124.472C100.699 123.116 100.654 123.116 101.031 123.192C101.008 123.342 107.456 123.96 108.939 126.777L108.932 126.754ZM76.3628 127.809C78.3889 128.502 84.1661 128.886 85.9211 128.931C95.517 129.21 97.1214 127.643 97.144 128.118C97.2118 129.933 96.3908 129.835 95.9389 130.001C94.7419 130.404 93.4947 130.64 92.233 130.701C87.1865 130.701 86.6065 130.897 83.1266 130.437C81.0779 130.166 79.3606 130.249 76.7469 129.406C76.4682 129.308 76.2121 129.142 75.9334 129.044C75.8461 129.013 75.7683 128.96 75.7076 128.89C75.6469 128.82 75.6053 128.736 75.5869 128.645C75.0446 126.927 75.007 127.379 76.3703 127.839L76.3628 127.809ZM107.004 114.59C106.98 115.342 106.806 116.083 106.491 116.767C106.179 117.517 105.697 118.184 105.083 118.717C103.298 120.721 98.1759 120.405 98.0102 120.533C97.6863 120.834 97.5131 121.158 97.8671 121.474C99.7803 123.184 99.4639 125.24 99.1626 125.564C98.0328 126.739 94.9446 127.733 93.393 127.824C88.6529 128.122 83.895 127.956 79.1873 127.327C77.5679 127.093 78.5772 127.538 74.7885 126.031C72.7624 125.233 72.785 123.44 72.4611 120.608C71.7079 114.093 70.9547 101.936 71.2032 102.26C72.3933 103.638 75.5342 103.894 77.1838 104.067C83.0664 104.662 96.9858 104.873 101.754 102.252C101.965 102.139 102.04 102.034 101.972 103.276C101.814 106.146 101.837 105.913 101.407 105.913C100.39 105.913 98.5977 105.529 98.4621 106.606C98.4621 106.741 98.4621 106.809 98.6429 106.824C99.1551 106.869 102.62 107.05 103.396 107.351C108.028 109.182 106.913 113.43 107.011 114.62L107.004 114.59ZM118.234 109.656C116.919 109.888 115.585 109.992 114.25 109.965C113.451 109.912 107.734 110.424 107.584 109.965C107.247 108.973 106.654 108.087 105.866 107.397C105.987 107.231 107.049 107.397 113.361 107.14C114.867 107.08 116.215 107.653 115.967 102.945C115.967 102.192 116.208 91.2853 116.208 91.2627C116.208 91.2401 115.914 83.6778 116.208 81.3579C116.419 79.7083 116.14 79.0982 116.585 79.2715C120.305 80.9737 118.528 71.8749 119.002 100.798C119.13 108.218 119.447 109.182 118.242 109.686L118.234 109.656Z" fill="black"/>
<path id="Vector_27" d="M102.613 110.666C101.784 110.168 98.2741 109.837 98.741 110.959C99.0047 111.607 99.1101 111.374 99.2608 111.517C101.099 113.279 100.88 112.699 100.489 116.232C100.406 116.985 97.92 116.164 97.8447 116.917C97.7694 117.67 98.6657 117.603 99.4491 117.67C100.465 117.713 101.478 117.544 102.424 117.173C104.127 116.782 104.925 112.059 102.613 110.666ZM101.468 116.367C101.249 116.428 101.52 116.141 101.837 112.511C101.897 111.697 101.837 111.479 102.1 111.63C103.516 112.556 103.268 114.01 102.575 115.554C102.402 115.554 102.628 116.044 101.468 116.367Z" fill="black"/>
<path id="Vector_28" d="M72.3705 48.5175C72.3705 47.6362 72.1897 44.5706 72.1596 41.7009C72.009 25.8833 73.0936 20.769 71.9487 18.9613C71.6625 18.5093 70.3971 18.4641 66.6762 18.4641C64.0098 18.4641 63.7386 18.306 62.0966 18.2758C62.0138 18.2758 32.3295 18.1403 29.0606 18.2758C28.772 18.3474 28.5201 18.5232 28.3532 18.7693C28.1864 19.0154 28.1164 19.3144 28.1567 19.609C28.4354 21.1757 28.3375 51.1537 28.345 51.2441C28.5258 54.965 27.5918 57.4054 28.8271 59.07C29.3317 59.7555 30.0548 59.7178 31.0867 59.7479C37.1125 59.9061 58.3983 59.4692 58.4737 59.4692C58.549 59.4692 67.8663 59.7103 67.8663 59.6199C73.2518 59.7404 72.25 60.8627 72.3705 48.5175ZM71.6173 24.1208C71.661 25.07 71.6105 26.0212 71.4666 26.9604C71.1729 29.1523 71.6549 29.6494 71.1804 29.559C70.3368 29.4008 70.3594 29.559 70.3519 29.2276C70.3519 28.3991 70.3519 27.789 69.6891 27.3446C67.6704 26.0415 67.1959 27.7438 66.9398 27.5103C66.7922 27.3742 66.6125 27.278 66.4175 27.2306C66.2225 27.1831 66.0186 27.1861 65.8251 27.2391C64.7555 27.5931 64.635 24.1509 59.4077 23.473C58.2272 23.3625 57.0373 23.5322 55.9348 23.9683C54.8323 24.4044 53.8483 25.0946 53.0629 25.9828C52.2775 26.8709 51.7128 27.932 51.4149 29.0796C51.1169 30.2272 51.0941 31.4289 51.3482 32.5869C51.4612 33.1142 50.7457 32.2329 49.5782 33.7921C49.2529 34.1512 49.0361 34.5952 48.953 35.0726C48.9153 35.4492 47.6725 34.6131 46.49 36.1195C46.1962 36.4886 46.49 36.8275 46.0456 36.9631C45.3038 37.0392 44.5548 37.0036 43.8236 36.8577C43.0675 36.6803 42.2742 36.7544 41.564 37.0686C40.404 37.995 40.4718 38.0704 40.2986 38.4394C40.05 38.9516 39.6885 37.8143 38.634 39.0345C37.8807 39.9308 37.6548 41.2113 38.634 41.9268C39.4399 42.5369 39.7939 41.9871 40.6224 42.1001C41.1196 42.1679 41.3003 41.9268 41.7071 42.1377C42.1138 42.3486 42.4 42.2808 43.4922 42.3712C44.1776 42.3464 44.857 42.2432 45.5183 42.0624C47.3411 41.9344 46.4599 42.5294 48.3203 42.2432C48.6065 42.1904 48.9003 42.1904 49.1865 42.2432C49.6397 42.2821 50.0962 42.2567 50.5423 42.1679C51.7023 42.0624 52.1316 42.3486 53.3518 42.0699C54.572 41.7912 54.0071 42.6198 57.8711 42.213C58.4511 42.1528 58.7599 42.4616 60.0479 42.3411C60.9969 42.2507 63.0156 41.972 63.2792 41.9569C63.9646 41.9118 64.2056 42.4541 65.5388 42.1377C66.1113 42.0677 66.6875 42.0375 67.2637 42.0473C69.4028 41.957 69.4254 42.3411 69.9075 42.1829C70.3307 42.115 70.7631 42.1303 71.1804 42.2281C71.8056 42.2281 71.3461 57.9025 71.3461 57.9929C71.3461 58.1927 71.2668 58.3843 71.1255 58.5255C70.9843 58.6668 70.7927 58.7461 70.5929 58.7461C61.2907 58.7913 58.0443 58.4449 57.6376 58.49C54.8733 58.8365 45.443 58.49 39.922 58.7913C36.1559 58.9721 39.3872 58.8817 32.6384 58.7913C28.6764 58.7461 28.9551 59.4768 29.2263 53.3004C29.3845 49.7527 29.0982 24.2488 29.0982 24.166C29.392 18.8935 28.6689 19.142 29.6481 19.2098C30.6273 19.2776 31.4935 19.1119 32.4124 19.0893C32.6384 19.0893 35.0562 19.2249 36.4346 19.24C36.5099 19.24 55.1068 18.9085 62.0966 19.1496C63.4374 19.1948 65.7347 19.4057 66.4276 19.3529C67.5424 19.2851 70.8264 19.4207 70.8565 19.4207C71.8884 19.5111 71.67 22.4637 71.6399 24.1208H71.6173ZM55.378 37.5054C58.0142 38.6127 60.6505 38.4997 62.8423 36.7522C67.5951 32.9861 65.3731 27.9999 66.0661 27.9547C66.5255 27.917 66.3749 28.1128 66.872 28.4367C67.1432 28.6175 67.4294 28.4367 67.5499 28.1204C67.6725 27.9034 67.8727 27.7409 68.1102 27.6654C68.3478 27.59 68.605 27.6072 68.8304 27.7136C69.6665 28.1505 69.5836 28.271 69.5459 29.5439C69.5459 30.252 69.915 30.2218 70.8415 30.1917C71.7679 30.1616 71.1352 31.2236 71.3537 32.9861C71.4968 34.116 71.3537 36.933 71.3537 38.8763C71.3537 41.3242 71.3913 41.4749 71.1277 41.4146C70.1033 41.1811 69.915 41.5276 69.335 41.3318C68.4549 41.1986 67.5614 41.1784 66.6762 41.2715C65.7196 41.0682 64.9438 41.5879 64.3111 41.2715C63.3997 40.8573 62.88 41.2188 59.7918 41.4749C58.4586 41.5803 58.9331 41.2113 57.1631 41.4372C56.6961 41.4975 56.1688 41.4372 55.6943 41.4749C55.2686 41.4807 54.846 41.4013 54.4515 41.2414C53.5552 40.9627 53.4196 41.4297 51.5817 41.3167C49.9397 41.2113 50.2862 41.5276 49.0735 41.377C48.3203 41.2791 47.4918 41.6029 46.8139 41.2866C46.136 40.9702 45.3752 41.2866 44.1776 41.4975C43.7149 41.5553 43.2469 41.5553 42.7842 41.4975C41.3229 41.5728 42.8595 41.0682 39.8391 41.3544C39.4248 41.3996 39.0106 41.5502 38.8147 40.9175C38.7432 40.6223 38.7553 40.313 38.8498 40.0243C38.9442 39.7355 39.1173 39.4789 39.3495 39.283C39.4009 39.2268 39.4697 39.1896 39.5449 39.1773C39.62 39.165 39.6971 39.1784 39.7638 39.2152C39.9449 39.3285 40.1627 39.3674 40.3718 39.3239C40.5809 39.2804 40.7652 39.1578 40.8861 38.9817C41.1798 38.462 40.7053 38.7257 41.8803 37.7163C42.6335 37.0686 45.6841 38.3716 46.8139 37.3473C47.424 36.7974 46.8591 36.6694 47.3939 36.2174C47.9286 35.7655 48.4107 35.9613 49.0886 35.9839C50.0301 35.9839 49.4125 35.2307 50.3013 34.0406C50.6929 33.5059 51.514 33.4155 51.642 33.6113C51.996 34.2214 53.0656 36.5338 55.378 37.5054ZM65.2903 30.3424C65.2225 30.9223 65.1472 33.1895 63.9496 34.6734C61.9987 37.0836 60.0027 38.0327 56.4701 37.1138C56.0221 37.0552 55.5925 36.8983 55.2122 36.6543C55.2122 36.6543 52.9526 35.1479 52.4103 33.5661C50.1506 26.6064 57.1028 21.7256 62.6615 25.3862C63.2265 25.3862 65.4183 27.9923 65.3053 30.365L65.2903 30.3424Z" fill="black"/>
</g>
</g>
</g>
</svg>
