<svg width="151" height="151" viewBox="0 0 151 151" fill="none" xmlns="http://www.w3.org/2000/svg">
<g id="No-Messages--Streamline-Bruxelles">
<g id="No-Messages--Streamline-Bruxelles.svg">
<g id="Colour">
<path id="Vector" d="M132.336 120.019C125.926 122.783 132.275 140.356 98.328 138.616C97.7793 138.585 97.2314 138.689 96.7315 138.917C96.2316 139.145 95.7947 139.491 95.4582 139.926C87.8206 149.785 75.2193 145.198 68.7793 140.913C68.165 140.5 67.4449 140.272 66.705 140.258C65.965 140.243 65.2365 140.442 64.6065 140.83C58.174 144.822 49.5045 147.081 37.0237 138.043C36.5313 137.684 35.9696 137.432 35.3744 137.302C34.7791 137.172 34.1634 137.168 33.5664 137.29C29.7928 138.17 25.828 137.654 22.4052 135.837C18.9824 134.021 16.333 131.027 14.9469 127.408C13.4932 123.582 14.3368 119.122 15.1202 116.433C15.3118 115.778 15.253 115.075 14.955 114.461C14.6571 113.847 14.1414 113.366 13.5083 113.111C6.08911 110.098 1.50202 104.826 4.91409 92.0212C6.96284 84.346 12.047 82.8026 10.2318 80.3848C6.24728 75.0671 2.15732 64.3413 10.9398 54.1201C15.2181 49.1414 17.651 51.1826 16.6793 43.1834C16.1445 38.7319 16.9354 34.8002 19.0972 31.6668C23.1344 25.8218 26.9005 24.5564 30.8549 23.999C32.2877 23.7932 33.6222 23.1505 34.6763 22.1584C35.7304 21.1663 36.4528 19.8731 36.745 18.4554C37.7091 13.7176 39.5771 10.6822 47.8248 7.84254C61.3224 3.1952 63.4842 11.8572 67.785 9.10041C72.9648 5.74923 79.2412 4.53445 85.2973 5.71094C94.0723 7.48853 97.1002 10.7274 99.1565 14.1168C99.8021 15.1854 100.73 16.0547 101.839 16.6289C102.947 17.2031 104.193 17.4598 105.438 17.3707C113.867 16.7908 121.911 19.2613 127.839 24.8502C134.701 31.3203 134.791 40.3062 133.111 48.456C132.928 49.3269 133.053 50.2345 133.465 51.0233C133.878 51.812 134.551 52.4329 135.371 52.7794C143.988 56.4024 145.705 58.6771 146.669 67.2412C148.266 81.6043 140.139 82.832 142.677 91.5693C144.907 99.3576 145.389 114.377 132.336 120.019Z" fill="#FFFDF2"/>
<path id="Vector_2" d="M43.9231 17.3696C45.1283 17.1135 47.0716 18.876 42.5975 23.6137C41.6297 24.5525 40.567 25.388 39.4264 26.1069C38.827 26.4908 38.2533 26.9135 37.7091 27.3723C37.566 27.41 37.4455 27.3723 37.5133 27.2066C38.3023 25.6948 39.3183 24.3129 40.5261 23.1091C40.7521 22.6948 40.1571 22.4538 39.8633 22.6873C38.5828 23.6665 37.9125 25.0675 37.4907 25.3989C37.3777 24.0431 39.7503 18.281 43.9231 17.3696Z" fill="white"/>
<path id="Vector_3" d="M41.2946 28.4646C42.0478 31.3344 36.9937 32.9839 34.0487 31.8842C33.8378 31.8089 33.6871 31.7788 33.8227 31.6282C34.1163 31.3822 34.3403 31.0637 34.4725 30.7042C34.6046 30.3447 34.6403 29.9569 34.5759 29.5794C34.3499 28.3215 33.7097 28.2537 34.1692 27.9977C34.7978 27.6476 35.4686 27.3793 36.1652 27.1992C36.5343 27.1089 36.3384 27.8018 36.4891 28.0353C36.5569 28.1483 36.7376 28.1784 36.8506 28.2763C36.9503 28.348 37.0681 28.3903 37.1906 28.3983C37.3131 28.4063 37.4354 28.3797 37.5436 28.3215C38.4776 28.2688 38.9898 27.0787 40.0141 27.3273C40.3033 27.3999 40.5707 27.5411 40.7936 27.7391C41.0166 27.9372 41.1884 28.186 41.2946 28.4646Z" fill="#CCCCCC"/>
<path id="Vector_4" d="M38.9369 17.8225C38.7185 21.3852 38.8465 19.1105 37.4305 22.5602C36.9798 23.6055 36.6537 24.7001 36.4588 25.8216C36.391 26.2585 36.037 26.2961 35.9014 26.1229C35.2763 25.2793 35.3742 23.2531 35.5926 22.2363C35.683 21.807 35.2612 21.581 35.0428 21.7241C34.4327 22.1459 34.2895 25.445 34.9976 26.4016C35.1106 26.5598 34.8319 26.6878 34.7415 26.5598C31.6307 22.0405 34.6436 15.5327 38.2138 15.6155C39.1177 15.6306 38.8842 17.8225 38.9369 17.8225Z" fill="white"/>
<path id="Vector_5" d="M33.5211 29.5349C33.5799 29.6901 33.5969 29.8581 33.5705 30.022C33.544 30.1859 33.4751 30.3399 33.3705 30.4688C33.1445 30.7701 32.9788 31.2597 32.1427 31.1844C30.2898 31.0262 29.9509 28.5632 31.9394 28.3824C32.2971 28.3547 32.6529 28.4555 32.9429 28.6668C33.2328 28.8781 33.4379 29.1859 33.5211 29.5349Z" fill="#CCCCCC"/>
<path id="Vector_6" d="M132.11 58.6988C132.11 58.6988 131.153 51.1666 131.1 51.0763C130.935 50.8955 130.438 49.2987 130.174 49.2836C129.491 49.1541 128.785 49.2603 128.17 49.5849C127.854 49.6979 126.107 49.6451 126.054 49.2836C125.165 43.6345 124.608 44.3651 123.854 43.8303C123.854 43.8303 123.033 43.9433 123.033 43.9358C121.452 43.9358 118.251 44.3802 116.676 44.3124C102.531 43.755 86.4272 46.7001 79.9345 48.9823C77.8399 49.1125 75.7533 49.3488 73.6828 49.6903C72.8208 49.6052 71.9519 49.7535 71.167 50.1197C70.233 49.954 61.9401 51.5282 61.9175 51.5357C60.6892 51.5447 59.4688 51.7325 58.2945 52.0931C57.4502 52.2907 56.5912 52.4192 55.7261 52.4772C53.041 52.9126 50.332 53.1842 47.6139 53.2907C46.1602 53.4112 46.2958 53.7351 44.2169 53.7652C39.4189 53.8481 28.6103 55.7839 27.8194 56.0927C27.0285 56.4015 26.6218 56.1981 26.313 56.3111C24.1513 57.0643 25.2811 59.1733 25.1003 61.2522C25.0099 62.3444 23.3754 62.3745 22.4565 62.6683C22.0872 62.7941 21.7811 63.0583 21.6026 63.4054C21.4242 63.7524 21.3874 64.1551 21.4999 64.5287C21.4999 64.6191 21.4999 65.3723 21.5527 65.7263C24.5655 82.456 22.3812 72.7162 26.7122 97.4224C27.6688 98.0852 29.1903 97.2793 30.2523 97.091L32.2634 103.456C32.2634 103.531 33.4459 104.382 36.0295 103.84C37.1442 103.606 40.7521 103.245 41.3472 103.456C41.9422 103.667 50.9883 101.949 52.8865 101.881C54.1594 101.829 79.5277 99.3958 80.0022 99.3883C80.0022 99.3883 85.2748 104.887 85.207 105.482C85.1392 106.077 79.7537 106.378 79.4298 108.193C79.0381 110.355 85.7192 115.063 86.0732 115.364C88.4081 117.345 96.2717 124.448 96.8668 124.485C97.4618 124.523 98.3732 124.794 98.5012 123.958C97.5974 122.15 91.2779 113.82 90.1481 110.107C89.6509 108.465 96.2491 108.751 95.8574 107.094C95.3754 105.135 91.9332 100.119 91.3381 98.1606C91.1724 97.6182 101.13 96.2399 108.926 94.9142C111.185 94.1007 123.719 93.5433 127.922 92.3457C129.104 92.0068 129.428 90.6359 129.556 89.9053C129.684 89.1747 129.022 87.6833 129.187 86.5912C129.285 85.9057 133.3 85.7777 133.435 85.032C134.249 80.8065 132.878 77.063 132.825 75.3908C132.773 73.7187 132.283 60.2813 132.11 58.6996V58.6988Z" fill="white"/>
<path id="Vector_7" d="M129.91 75.4275C129.361 57.7721 129.519 60.2878 128.442 52.4167C126.182 52.7256 123.629 52.0401 123.26 49.7278C123.026 48.2213 122.83 47.3099 122.695 46.7751C121.03 46.8354 118.492 47.1894 116.563 47.1518C109.574 47.0162 108.278 46.7074 97.6351 48.2289C79.234 50.8651 80.7932 52.4092 79.4148 51.8292C73.3891 52.4695 74.195 52.5824 73.3891 52.5071C71.8826 52.5071 72.3572 53.1925 70.911 52.944C69.1409 53.0494 62.5428 54.3148 62.2641 54.3525C61.1538 54.3613 60.0505 54.5287 58.9876 54.8496C58.0611 55.0667 57.1193 55.2127 56.1705 55.2865C53.4273 55.7252 50.6608 56.0044 47.8852 56.1226C46.7242 56.3717 45.5456 56.5304 44.3601 56.5971C44.089 56.5971 39.8408 56.8908 38.0331 57.1771C30.5763 58.4048 27.827 58.6458 27.8722 59.3237C28.0285 60.0393 28.0464 60.7782 27.9249 61.5005C27.7969 63.1501 26.6369 64.5962 24.3472 65.131C24.3472 65.4775 25.5674 71.8045 25.7858 73.2356C26.0871 75.2467 25.5975 73.2733 28.3543 90.1303C29.2113 90.0634 30.0593 89.9094 30.8851 89.6708C32.774 89.4705 34.6465 89.1383 36.489 88.6766C37.0401 88.4688 37.6068 88.3051 38.1837 88.187C38.6959 88.1192 39.0349 88.5335 40.0141 88.187C40.537 87.9886 41.0895 87.8792 41.6485 87.8631C42.3114 88.0815 43.0043 87.6823 43.637 87.6823C44.6614 87.6823 45.7988 87.3208 46.4315 87.3057C47.537 87.1676 48.6219 86.897 49.6628 86.4998C51.3876 85.9198 51.5835 86.4998 53.4288 85.9349C56.9991 84.8653 71.4232 83.389 75.2721 82.9747C75.9568 83.1834 76.6942 83.1404 77.351 82.8542C79.4299 82.8542 79.2642 82.5981 81.6895 82.5228C82.3021 82.4988 82.913 82.4435 83.5198 82.3571C84.6369 82.3429 85.7497 82.2168 86.8415 81.9805C92.0462 81.1821 86.8867 82.2516 94.0573 80.941C96.2492 80.5418 94.4565 81.0766 97.5447 80.4364C98.0795 80.3234 96.3471 78.1089 97.0928 77.7549C97.4242 77.5968 97.7029 77.7549 98.5616 78.5081C98.7273 77.9508 98.3808 75.6836 98.8402 75.5555C99.0436 75.4877 99.2696 75.4275 99.4503 75.6309C99.9556 76.1355 100.344 76.7449 100.588 77.416C101.341 79.1634 100.866 79.4497 101.589 78.4102C101.589 78.4102 102.441 77.1825 102.471 77.1674C102.596 77.1509 102.723 77.1679 102.84 77.2169C102.956 77.2659 103.058 77.345 103.134 77.4461C103.247 78.1737 103.288 78.9104 103.254 79.6455C103.216 80.0221 103.405 79.8865 104.369 79.6907C104.903 79.6362 105.426 79.5017 105.92 79.2915C106.408 79.1325 106.915 79.0437 107.427 79.0279C107.852 78.9959 108.275 78.9355 108.692 78.8471C109.363 78.8252 110.032 78.7416 110.688 78.5985C112.827 78.3952 112.85 78.6964 114.959 78.1466C119.81 76.8812 128.622 76.0677 129.27 75.9547C129.474 75.7672 129.687 75.5917 129.91 75.4275Z" fill="white"/>
<path id="Vector_8" d="M127.335 83.5547C124.405 84.9707 126.943 88.7293 124.322 89.0607C112.27 90.5671 83.279 95.0036 83.2037 95.0186C66.8137 97.4892 52.962 98.0917 42.7936 99.5831C34.3576 100.811 34.8848 101.157 33.755 96.3744C33.1072 93.693 32.693 94.755 31.4954 94.4914C30.7422 94.3407 29.2357 95.2446 28.9646 93.8511C28.7763 92.8945 28.4674 91.373 28.2716 90.198C28.0758 89.023 27.7142 89.8064 30.7647 88.9552C32.6538 88.7524 34.5263 88.4176 36.3687 87.9534C36.9208 87.7508 37.4873 87.5897 38.0634 87.4714C38.5756 87.3961 38.9145 87.8179 39.8937 87.4714C40.4131 87.2697 40.9637 87.1601 41.5207 87.1475C42.191 87.3659 42.884 86.9592 43.5167 86.9592C44.5411 86.9592 45.6784 86.6052 46.3111 86.5826C47.4169 86.45 48.5022 86.1819 49.5424 85.7842C51.2673 85.1967 51.4631 85.7842 53.2708 85.2193C60.5921 83.0199 87.1656 81.8449 97.3717 79.7208C97.9064 79.6153 96.1665 77.4009 96.9197 77.0469C97.2511 76.8887 97.5298 77.0469 98.4262 77.8001C98.5919 77.2427 98.2454 74.9755 98.7049 74.84C98.9082 74.7797 99.1342 74.7194 99.315 74.9153C99.8154 75.4266 100.203 76.0374 100.452 76.7079C101.206 78.4554 100.731 78.7424 101.454 77.7029C101.454 77.7029 102.305 76.4744 102.335 76.4594C102.461 76.4428 102.588 76.4599 102.705 76.5089C102.821 76.5578 102.922 76.6369 102.998 76.7381C103.113 77.4657 103.153 78.2023 103.119 78.9375C103.119 79.3065 103.269 79.1785 104.226 78.9826C104.773 78.9366 105.311 78.8123 105.823 78.6136C106.31 78.4545 106.817 78.3658 107.329 78.3499C107.755 78.3227 108.177 78.2648 108.595 78.1767C109.267 78.1555 109.935 78.0698 110.591 77.9206C112.722 77.7172 112.752 78.0185 114.861 77.4687C119.923 76.1581 129.172 75.3145 129.406 75.209C129.843 83.9991 130.777 81.9127 127.335 83.5547Z" fill="#CCFFE5"/>
<path id="Vector_9" d="M110.44 62.8048C109.995 63.1889 110.44 62.7445 107.427 64.5598C106.687 65.0631 105.859 65.4233 104.986 65.6218C104.602 65.7197 103.382 66.149 103.088 66.1641C102.425 66.2018 101.657 66.5031 101.318 66.3825C101.258 66.3825 94.9083 66.6462 91.0744 64.9439C89.4004 64.0338 87.81 62.9777 86.3216 61.7879C85.5232 61.2079 84.175 59.242 83.8963 59.0989C83.1431 58.7073 79.5352 50.8889 79.9946 49.0134C80.0474 48.8025 79.8816 48.5464 79.9118 48.3279C79.9645 47.861 79.9118 44.8255 80.5219 42.8445C81.3822 39.9509 82.8598 37.2784 84.8529 35.0111C85.0336 34.1298 89.5303 31.019 90.2986 30.7328C93.658 29.4674 91.2025 29.5955 95.428 29.0381C97.2809 28.7895 95.8423 28.6163 98.6292 28.5786C98.7422 28.5786 101.748 28.669 101.808 28.6841C102.365 28.8648 104.278 29.1962 105.077 29.4975C105.687 29.731 106.674 30.2508 107.133 30.3487C108.865 31.1568 110.469 32.215 111.893 33.4896C113.814 35.704 112.82 33.5423 115.833 38.7621C120.503 46.9044 116.608 57.4494 110.44 62.8048Z" fill="#FFCCCC"/>
<path id="Vector_10" d="M104.64 47.2882C104.213 44.5476 103.454 41.8691 102.38 39.3116C102.045 38.7256 101.541 38.2545 100.933 37.9602C100.326 37.6658 99.6434 37.5619 98.9757 37.6621C97.9514 37.7901 98.1472 37.4888 96.5127 37.8278C94.5167 38.2345 92.8144 39.5526 92.6563 41.6541C92.5207 42.6538 92.5207 43.6673 92.6563 44.667C93.4095 48.531 94.6222 57.5169 98.6217 57.5771C105.92 56.9595 105.92 54.0747 104.64 47.2882ZM96.7989 43.2057C96.6182 41.4131 96.6332 41.285 97.0098 40.9461C97.2263 40.7812 97.4909 40.6918 97.7631 40.6918C98.0352 40.6918 98.2998 40.7812 98.5163 40.9461C100.023 42.9798 101.574 53.2988 101.062 54.0219C100.588 54.5492 99.7666 54.617 99.631 54.4136C98.1773 52.1765 97.0626 45.7441 96.7989 43.2057Z" fill="white"/>
</g>
<g id="Ink">
<path id="Vector_11" d="M130.024 75.7441C129.045 76.1132 126.71 76.0002 125.753 76.2714C125.529 76.3106 125.302 76.3308 125.075 76.3316C124.331 76.4951 123.576 76.6058 122.816 76.663C121.999 76.7708 121.189 76.9267 120.39 77.13C119.474 77.1874 118.565 77.3363 117.679 77.5744C116.992 77.7557 116.296 77.8941 115.592 77.9887C113.099 78.4783 113.769 78.3804 112.715 78.403C111.525 78.403 112.609 78.4934 110.96 78.5235H110.839C109.988 78.7495 107.209 78.8097 106.32 79.1487C104.934 79.6608 105.514 79.2616 104.467 79.5931C104.005 79.7015 103.533 79.7723 103.059 79.804C102.049 79.9546 102.607 78.6365 102.449 77.8757C102.038 78.4026 101.67 78.9618 101.349 79.5479C101.3 79.6264 101.229 79.6886 101.145 79.7266C101.061 79.7646 100.967 79.7765 100.876 79.761C100.785 79.7456 100.7 79.7035 100.633 79.6401C100.566 79.5767 100.519 79.4948 100.498 79.4047C100.445 78.352 100.162 77.3237 99.6692 76.3919C99.2022 76.3919 100.347 79.337 98.8783 78.87C98.7502 78.87 98.6749 78.6741 98.5092 78.7043C98.6824 79.5102 98.8858 80.2107 98.1853 80.3086C97.3732 80.5062 96.5474 80.6422 95.7148 80.7154C94.4106 80.8395 93.1168 81.056 91.8433 81.3631C85.6744 82.1691 73.1861 83.216 66.5051 83.8111C64.0722 84.022 64.027 84.3233 62.7992 84.376C61.8403 84.3719 60.8844 84.4832 59.9521 84.7074C58.6867 84.9484 58.4456 84.7752 57.1275 85.0388C53.1882 85.792 52.6082 86.2214 51.6742 86.1159C50.7402 86.0105 50.0021 86.4473 47.9082 87.0198C47.6973 87.0725 43.8031 87.4943 42.8239 87.7278C42.146 87.886 41.7393 87.6073 40.8053 87.9312C40.1884 88.2185 39.4908 88.2825 38.8319 88.1119C38.267 87.8935 37.7925 88.368 36.7154 88.6091C34.2599 89.1514 32.5049 89.3246 30.2076 89.7464C29.492 89.882 27.9479 90.1381 28.0157 89.415C28.0534 89.0459 28.2793 89.0836 28.3999 89.0986C29.2978 89.0431 30.1869 88.889 31.0512 88.6392C32.9406 88.4426 34.8134 88.1104 36.6551 87.6449C37.2062 87.4371 37.7729 87.2734 38.3498 87.1553C38.862 87.0876 39.2085 87.5018 40.1802 87.1553C40.7031 86.957 41.2556 86.8475 41.8146 86.8315C42.4775 87.0499 43.1704 86.6507 43.8107 86.6507C44.8275 86.6507 45.9724 86.2891 46.5976 86.2741C47.7037 86.1394 48.789 85.8687 49.8289 85.4681C51.5537 84.8882 51.7495 85.4681 53.5573 84.9032C57.3234 83.7659 75.5361 81.815 77.4644 81.8226C78.1498 81.8226 83.5428 81.3405 83.6332 81.3405C84.7508 81.3292 85.8642 81.2005 86.9549 80.9564C92.1219 80.1655 87.0001 81.2275 94.1707 79.9245C96.3625 79.5177 94.5699 80.06 97.6581 79.4123C98.1929 79.2993 96.4605 77.0848 97.2062 76.7308C97.5451 76.5802 97.8238 76.7308 98.6749 77.4841C98.8406 76.9191 98.4941 74.6595 98.9536 74.5239C99.0521 74.4727 99.1639 74.4525 99.2741 74.466C99.3843 74.4794 99.4879 74.5259 99.5713 74.5992C100.071 75.1066 100.456 75.7154 100.701 76.3844C101.454 78.1318 100.98 78.418 101.703 77.3861C101.703 77.3861 102.554 76.1584 102.584 76.1358C102.71 76.1192 102.838 76.1371 102.955 76.1875C103.072 76.2379 103.173 76.3189 103.247 76.422C103.361 77.1474 103.402 77.8818 103.367 78.6139C103.33 78.9905 103.526 78.8624 104.482 78.6666C105.027 78.6215 105.562 78.4971 106.072 78.2975C106.559 78.1386 107.066 78.0498 107.578 78.0339C108.004 78.0099 108.427 77.9494 108.843 77.8531C109.515 77.8349 110.184 77.7517 110.839 77.6046C112.971 77.4012 113.001 77.7025 115.118 77.1526C118.884 76.1659 129.03 74.893 129.655 74.893C129.918 74.7951 130.054 74.9984 130.257 75.0361C130.461 75.0738 130.302 75.6387 130.024 75.7441Z" fill="black"/>
<path id="Vector_12" d="M44.8501 16.4505C45.4276 16.6893 45.8948 17.1356 46.1597 17.7016C46.4246 18.2676 46.4679 18.9122 46.2812 19.5086C45.8999 20.7008 45.322 21.8209 44.5714 22.8227C43.419 24.5777 41.0614 26.1444 40.8656 26.3252C40.6698 26.506 40.6321 26.5361 40.9108 26.7093C41.3307 26.8829 41.6921 27.173 41.9523 27.5454C42.2126 27.9178 42.3608 28.3569 42.3796 28.8108C42.2817 30.8294 40.8731 31.56 41.3929 31.5299C42.1461 31.5299 42.1461 31.2136 42.6357 31.5977C42.9294 31.8387 42.47 32.3509 42.0934 32.4488C40.6321 32.6823 40.715 31.9668 40.248 32.1852C39.0579 32.7426 38.5457 32.7727 38.96 33.1192C39.3961 33.3284 39.8915 33.379 40.361 33.2623C40.715 33.2246 41.1142 33.5184 41.0238 33.6841C40.7225 34.2942 40.6999 34.1888 39.6981 34.3319C39.2763 34.2566 38.2896 34.2566 37.9281 33.2698C37.8377 33.0288 37.8603 33.0891 36.2107 33.2698C35.9245 33.3075 36.2635 33.7971 36.8284 33.9854C37.1297 34.0833 37.4912 34.0758 37.4159 34.4675C37.4013 34.5498 37.3695 34.6281 37.3225 34.6973C37.2756 34.7665 37.2146 34.8251 37.1436 34.8691C37.0725 34.9132 36.9929 34.9418 36.9101 34.953C36.8272 34.9643 36.7429 34.958 36.6627 34.9344C34.6214 34.1059 35.4801 33.2096 34.8323 33.1192C34.4256 33.0589 34.1394 32.9083 34.0791 33.2096C33.7025 34.8441 35.7588 34.2641 34.7721 35.4692C34.6214 35.6575 33.3937 35.1077 33.1602 34.0682C32.9041 32.8782 34.1243 33.0363 32.6254 32.2003C32.2112 31.9743 31.1943 32.7878 29.8837 30.7842C28.8593 29.21 30.7574 26.5587 32.8966 27.4851C33.115 27.5831 33.2581 27.4399 33.8908 27.0031C30.3055 21.8059 34.1996 14.0628 38.4101 14.6051C40.3007 14.8386 39.7885 17.1284 39.9693 18.5595C40.2706 18.3863 42.8466 15.7726 44.8501 16.4505ZM44.9405 20.4727C46.0327 18.3788 44.9405 17.151 43.9237 17.3694C39.7508 18.2507 37.4083 24.0429 37.4761 25.3912C37.8979 25.0598 38.5683 23.6588 39.8488 22.6796C40.1501 22.4461 40.7376 22.6796 40.5116 23.1014C39.3064 24.3075 38.2906 25.6889 37.4987 27.1989C37.4309 27.342 37.559 27.4023 37.6946 27.3722C38.2362 26.9067 38.8128 26.4836 39.4194 26.1068C42.0708 24.6756 44.9104 21.0301 44.9104 20.4727H44.9405ZM41.3175 29.1573C41.3729 28.7385 41.2655 28.3144 41.0175 27.9725C40.7694 27.6305 40.3996 27.3968 39.9843 27.3194C38.96 27.0709 38.4779 28.2911 37.5213 28.3137C37.4686 28.3137 37.1071 28.517 36.8208 28.2685C36.7154 28.1706 36.5346 28.1329 36.4593 28.0199C36.3162 27.794 36.512 27.101 36.1429 27.1914C35.4447 27.3628 34.7731 27.6289 34.1469 27.9823C33.6799 28.2459 34.3202 28.3061 34.5461 29.5715C34.613 29.948 34.5785 30.3355 34.4462 30.6942C34.3138 31.053 34.0883 31.37 33.7929 31.6128C33.6498 31.7634 33.7929 31.7935 34.0189 31.8764C36.6777 32.8782 41.3175 31.6354 41.3175 29.1573ZM38.9374 17.8214C38.8696 17.8214 38.9374 17.4975 38.9374 17.1209C38.7717 15.9233 38.6888 15.6144 38.1842 15.6144C34.6139 15.5316 31.6236 22.0243 34.7118 26.5587C34.7947 26.6867 35.0809 26.5587 34.9679 26.4005C34.2147 25.4364 34.403 22.1448 35.0131 21.723C35.2316 21.5799 35.6534 21.8059 35.563 22.2352C35.3445 23.2521 35.2466 25.2481 35.8718 26.1218C36.0074 26.2951 36.3614 26.2574 36.4292 25.8205C36.624 24.699 36.9501 23.6044 37.4008 22.5591C38.8846 19.1169 38.7189 21.3841 38.9374 17.8214ZM33.3711 30.4679C33.4757 30.339 33.5447 30.1849 33.5711 30.021C33.5975 29.8571 33.5805 29.6891 33.5218 29.5339C33.4416 29.1821 33.2378 28.8708 32.9476 28.6566C32.6573 28.4423 32.2998 28.3393 31.94 28.3664C29.9515 28.5547 30.2829 31.0102 32.1434 31.1759C32.3985 31.2201 32.6611 31.1734 32.8854 31.0441C33.1097 30.9147 33.2815 30.7108 33.3711 30.4679Z" fill="black"/>
<path id="Vector_13" d="M102.155 53.5916C101.876 49.4715 100.648 42.2933 99.2624 40.4254C98.9009 40.0485 98.4101 39.8226 97.8888 39.7932C97.3674 39.7639 96.8543 39.9332 96.4529 40.2672C95.6996 40.93 95.7599 41.4799 95.9407 43.28C96.285 46.2184 96.8286 49.13 97.5676 51.9948C97.7917 53.0335 98.2164 54.0186 98.818 54.8946C99.4507 55.9416 101.861 55.4897 102.155 53.5916ZM99.654 54.4276C98.4338 52.4994 98.5694 51.7085 98.2606 50.9177C97.9518 50.1268 97.0102 44.8919 96.8897 43.7018C96.7014 41.8489 96.3022 40.689 98.0045 40.689C99.7068 40.689 101.115 51.6257 101.251 53.5539C101.13 54.4352 99.7896 54.7063 99.6164 54.4352L99.654 54.4276ZM102.155 53.5916C101.876 49.4715 100.648 42.2933 99.2624 40.4254C98.9009 40.0485 98.4101 39.8226 97.8888 39.7932C97.3674 39.7639 96.8543 39.9332 96.4529 40.2672C95.6996 40.93 95.7599 41.4799 95.9407 43.28C96.285 46.2184 96.8286 49.13 97.5676 51.9948C97.7917 53.0335 98.2164 54.0186 98.818 54.8946C99.4507 55.9416 101.861 55.4897 102.155 53.5916ZM99.654 54.4276C98.4338 52.4994 98.5694 51.7085 98.2606 50.9177C97.9518 50.1268 97.0102 44.8919 96.8897 43.7018C96.7014 41.8489 96.3022 40.689 98.0045 40.689C99.7068 40.689 101.115 51.6257 101.251 53.5539C101.13 54.4352 99.7896 54.7063 99.6164 54.4352L99.654 54.4276ZM105.175 46.6319C104.803 44.1492 104.093 41.7291 103.066 39.4386C102.852 38.8671 102.505 38.3549 102.053 37.9449C101.601 37.5348 101.057 37.2386 100.468 37.0811C99.9421 36.916 99.3885 36.8596 98.8406 36.9154C96.8763 36.9331 94.9658 37.5594 93.3722 38.708C92.632 39.4559 92.1856 40.4451 92.1143 41.4949C91.972 42.5572 91.972 43.6338 92.1143 44.6961C92.9278 49.1099 94.1857 58.254 98.6974 58.254C106.32 57.6137 106.448 53.938 105.168 46.6319H105.175ZM98.6899 57.1166C95.3155 57.1166 93.9672 48.9442 93.3722 45.6075C93.0182 43.5964 92.6792 40.9752 94.1254 39.5366C95.0656 38.9155 96.1087 38.4666 97.2061 38.2109C97.9934 38.0479 98.7991 37.9922 99.6013 38.0452C99.7806 38.049 99.9568 38.0874 100.121 38.1582C100.582 38.2715 101.008 38.4973 101.36 38.8154C101.712 39.1335 101.98 39.534 102.14 39.981C103.116 42.1594 103.792 44.4601 104.151 46.8202C105.356 53.569 105.409 56.5442 98.6523 57.1166H98.6899ZM99.2624 40.4254C98.5995 39.5592 97.0027 39.6721 96.37 40.237C95.4812 40.9903 95.6996 41.8037 95.903 43.7696C96.0235 44.9446 97.1082 50.639 97.4095 51.4148C97.7107 52.1906 97.4546 52.8835 98.8255 54.9097C99.4733 55.8738 101.838 55.5273 102.155 53.6368C102.11 51.3244 100.776 42.459 99.2247 40.4254H99.2624ZM99.654 54.4276C98.4338 52.4994 98.5694 51.7085 98.2606 50.9177C97.9518 50.1268 97.0102 44.8919 96.8897 43.7018C96.7014 41.8489 96.3022 40.689 98.0045 40.689C99.7068 40.689 101.115 51.6257 101.251 53.5539C101.123 54.4352 99.7896 54.7063 99.6164 54.4352L99.654 54.4276Z" fill="black"/>
<path id="Vector_14" d="M134.106 83.6751C134.129 84.1376 134.091 84.6016 133.993 85.0535C133.925 85.5356 133.24 85.6561 133.24 85.6862C132.942 85.9273 132.581 86.0788 132.2 86.1231C129.707 86.8763 129.504 86.2662 129.541 87.5467C129.541 87.9911 130.709 91.3128 129.022 92.2693C126.416 93.7758 115.818 93.7758 92.0012 98.2951C91.4287 98.4005 92.2346 99.3948 93.9972 102.596C96.2568 106.716 96.7916 107.251 95.9103 107.868C94.1252 109.141 94.0348 108.622 92.1895 109.33C89.5306 110.392 89.7264 108.667 97.3189 121.441C98.5391 123.49 99.2094 124.048 98.75 124.454C98.5843 124.59 98.2227 125.742 96.3472 124.605C94.9914 123.791 90.4119 120.425 89.5683 119.332C89.3348 119.024 86.4876 116.636 84.7477 115.107C79.1664 110.211 78.9329 110.06 78.722 108.667C78.5487 107.612 79.6409 106.633 80.6878 106.339C81.6212 105.945 82.5769 105.605 83.5501 105.323C84.9435 105.051 84.4163 105.428 82.6688 103.424C78.9027 99.101 80.2435 99.8844 76.982 100.186C71.0166 100.751 71.5965 100.555 71.009 100.66C66.8889 101.413 54.6642 102.287 54.1219 102.362C53.331 102.475 52.5552 102.31 51.6966 102.43C35.5702 104.803 31.9849 105.277 31.4501 103.274C31.2816 102.981 31.1596 102.663 31.0886 102.332C31.0492 101.207 30.8927 100.089 30.6216 98.9956C30.501 98.4306 30.4935 98.039 30.0567 98.0239C30.0567 98.0239 29.4842 97.8808 29.2582 98.0239C28.776 98.2109 28.268 98.3227 27.7518 98.3553C27.4113 98.3252 27.0869 98.197 26.8178 97.9863C26.0043 97.587 26.2454 96.6229 25.9366 95.1918C25.9366 95.1918 23.5338 81.5134 22.9237 76.738C21.1536 63.2178 19.4589 62.924 24.4301 61.6737C25.6127 61.3799 23.112 56.6573 26.2153 55.8815C26.2153 55.8815 27.3752 55.6254 27.7819 55.5877C28.9193 55.4823 28.5352 55.2789 29.1905 55.181C31.0358 54.9173 31.307 54.8194 34.0864 54.262C40.4284 52.9966 53.3913 52.5221 59.1609 51.0308C59.2362 51.0308 66.9868 49.8181 68.5761 49.4791C70.3236 49.1101 70.7077 49.6072 70.6776 48.7259C70.6098 46.5868 70.4441 46.7901 69.7813 44.7866C69.7135 44.6736 69.4725 44.5004 69.5478 44.4326C69.6231 44.3648 69.4047 44.2292 69.4725 44.1012C68.8699 43.9731 68.1317 39.5819 58.8596 33.1343C57.1036 32.1187 55.2518 31.2786 53.331 30.6261C45.5126 28.4192 46.4843 29.7599 45.603 28.7732C44.4355 27.1387 60.7125 29.0594 68.4631 40.8247C69.2617 41.9085 69.9457 43.0721 70.5044 44.297C73.0201 50.5412 69.2465 48.8163 74.7977 48.6732C74.9182 48.6732 74.9634 48.4472 75.1065 48.5753C76.353 48.3717 77.6107 48.2434 78.8726 48.1911C79.2266 48.1911 79.0383 44.7414 79.4676 43.3103C81.3582 37.0511 84.8456 32.012 90.8563 29.436C92.2322 28.675 93.7553 28.2178 95.3228 28.0953C96.4376 27.9597 96.8293 27.5304 99.0889 27.6283C100.083 27.5455 100.784 27.7639 101.416 27.7187C102.614 27.6434 102.644 28.0275 103.051 28.0803C106.907 28.5397 112.541 31.8463 113.747 34.106C114.414 34.7971 115.01 35.5542 115.524 36.3656C118.002 40.1844 117.58 40.561 117.919 40.9979C118.175 41.8039 118.507 42.5872 118.673 43.4233C118.673 43.6116 118.725 43.6191 118.914 43.589C119.841 43.4511 120.779 43.3982 121.716 43.4308C123.267 43.3329 124.299 42.9261 125.075 44.1388C126.401 46.2177 125.128 49.6825 127.335 48.9594C127.681 48.8954 128.023 48.8103 128.359 48.7033C128.574 48.6431 128.8 48.6431 129.014 48.7033C129.413 48.7711 130.031 48.5979 130.212 48.756C131.312 49.7051 132.012 48.4849 132.81 63.73C133.247 72.1811 132.652 68.0836 133.428 76.1882C133.993 82.3419 133.616 79.9844 134.106 83.6751ZM132.208 84.9782C133.518 84.7296 132.81 84.0593 132.208 76.2108C131.959 72.9267 131.568 59.1203 131.357 57.3804C131.357 57.3804 130.408 50.4282 130.355 50.3755C130.123 50.0993 129.818 49.8954 129.474 49.7879C128.344 49.7503 126.762 50.6165 125.625 49.8934C125.479 49.8203 125.351 49.7142 125.253 49.5834C125.155 49.4527 125.089 49.3009 125.06 49.1402C124.194 43.4835 124.661 44.2292 120.819 44.538C118.153 44.538 118.944 44.538 118.989 46.0445C119.237 55.2412 114.658 59.2785 114.003 60.5363C113.927 60.6719 112.496 62.2085 112.421 62.2989C111.743 63.0069 111.585 62.8638 111.419 63.0521C110.918 63.6029 110.314 64.0506 109.641 64.3702C107.088 65.8164 107.382 65.9595 103.894 67.0667C103.518 67.1797 103.488 66.9311 103.488 67.1722C102.791 67.1208 102.091 67.1716 101.409 67.3228C100.746 67.5337 98.1474 67.3228 96.189 67.3228C94.866 67.1734 93.5564 66.9216 92.2723 66.5696C91.5718 66.0122 90.9693 66.1177 90.2462 65.726C88.4967 64.7284 86.8135 63.6189 85.2071 62.4043C83.422 60.7548 81.5766 57.3804 81.3808 57.1318C80.9169 56.3765 80.5356 55.5734 80.2434 54.7366C79.9497 54.1359 79.7418 53.497 79.6258 52.8385C79.2711 51.8431 79.0729 50.7988 79.0383 49.7428C78.9931 49.3661 79.1287 49.2456 78.4282 49.3285C74.6621 49.7503 75.2496 49.6524 71.7622 50.2248C71.009 50.3453 72.1916 52.8761 69.2691 58.0206C68.9301 58.6232 68.8473 58.6533 69.0281 58.7738C72.1464 60.2802 74.3006 61.0711 76.0857 65.8616C77.803 70.5165 76.982 73.0096 76.7033 77.3029C76.628 78.4779 76.9067 79.5626 76.1158 79.4647C75.5057 79.3667 75.7919 78.6663 75.7844 78.4026C75.6714 73.2506 77.5771 71.2546 74.391 64.4757C73.0201 61.5682 71.1823 60.9431 68.5912 59.64C68.2372 59.4592 67.2957 61.6511 64.9155 63.5718C60.6222 67.0366 53.7754 67.7446 55.071 61.975C55.2512 61.3211 55.5764 60.7161 56.0223 60.205C56.4683 59.6938 57.0235 59.2897 57.647 59.0224C61.6616 57.0414 62.6558 57.3578 64.7874 57.5611C67.6346 57.8248 67.8982 58.5403 68.1167 58.111C68.4481 57.4707 70.1504 54.5483 69.9319 54.1265C70.0826 53.9984 70.0298 53.8026 70.0901 53.6519C70.1579 53.5028 70.1955 53.3416 70.2031 53.1774C70.2031 52.974 70.2935 52.8234 70.3085 52.6426C70.3839 51.9421 70.4818 51.2416 70.5797 50.5412C70.6399 50.1194 61.6013 51.9045 61.5938 51.9045C60.409 51.931 59.2332 52.1185 58.0989 52.4619C57.2877 52.6609 56.4613 52.7919 55.6283 52.8535C53.0413 53.2845 50.4303 53.5562 47.81 53.667C46.409 53.7875 46.5446 54.1039 44.5335 54.1415C40.9934 54.2018 29.8608 56.017 28.7159 56.469C27.9175 56.7853 27.5635 56.5669 27.2622 56.6799C26.3433 57.0264 25.7934 56.8004 25.7558 57.29C24.8444 58.0884 25.7558 60.6418 25.6277 61.5005C25.5374 62.7207 24.4301 62.7508 23.5489 63.0445C22.7956 63.2856 21.824 63.7978 22.0424 64.5962C22.0424 64.6866 22.0424 65.4398 22.0876 65.7938C24.4301 79.3517 23.9481 78.8244 24.2569 79.9693C24.2569 79.9693 27.0287 95.8321 27.0438 96.6079C27.0332 96.7395 27.0676 96.8709 27.1416 96.9804C27.2155 97.0899 27.3244 97.171 27.4505 97.2104C27.5484 97.2104 27.6539 97.3535 27.7367 97.3309C28.08 97.2963 28.4156 97.2073 28.731 97.0673C29.2879 96.9177 29.876 96.9307 30.4257 97.105C31.8945 97.4138 31.2467 99.3646 31.8342 100.306C31.8779 101.047 32.0097 101.781 32.2259 102.49C32.3389 103.018 32.5498 102.912 32.6854 103.244C32.7532 103.424 32.8059 103.409 33.8077 103.658C34.011 103.711 42.9969 102.724 43.2982 102.679C56.6904 100.585 50.6872 101.685 53.8432 101.428C54.2801 101.391 79.1061 98.973 79.5505 98.9654C79.6785 98.9654 79.912 99.1311 80.025 99.1613C80.5071 99.2968 80.6878 99.6659 81.2377 100.284C81.5646 100.601 81.8674 100.944 82.1416 101.308C83.0906 102.814 85.4256 104.652 85.6967 105.225C85.7733 105.387 85.7848 105.573 85.7287 105.744C85.6727 105.915 85.5535 106.058 85.3954 106.144C85.0716 106.265 84.7356 106.354 84.3937 106.407C83.5657 106.581 82.7484 106.803 81.9457 107.07C81.1821 107.183 80.4677 107.515 79.8894 108.027C79.5354 108.283 79.7237 108.712 79.9271 109.292C80.2886 110.309 96.6033 124.688 97.5448 124.161C97.5825 124.161 95.0743 120.033 95.0667 120.018C92.8749 116.425 88.3405 110.166 89.6285 109.337C91.4588 108.162 93.8465 107.884 94.6073 107.439C95.368 106.995 95.0366 107.13 93.4699 104.11C91.9032 101.089 92.2497 101.85 90.6529 99.1537C90.2612 98.4834 90.6529 98.2499 90.6529 98.0164C90.4721 97.1878 95.3756 96.9167 97.6729 96.4196C117.166 92.2467 128.555 92.9774 128.555 91.2374C128.555 90.7026 128.984 89.957 128.555 88.7217C128.299 87.9685 128.193 86.2587 129.059 85.8293C129.35 85.6733 129.666 85.5712 129.993 85.5281C130.777 85.3172 131.53 85.1138 132.208 84.9782ZM115.712 38.7684C112.7 33.6013 113.701 35.7555 111.781 33.5411C110.36 32.2712 108.761 31.2157 107.035 30.4077C106.583 30.3098 105.597 29.7901 104.994 29.5641C104.196 29.2628 102.283 28.9314 101.733 28.7506C101.672 28.7506 98.6747 28.6452 98.5617 28.6527C95.7898 28.728 97.2209 28.8561 95.368 29.1046C91.1877 29.6545 93.5603 29.5641 90.2612 30.7918C89.508 31.0781 84.9887 34.1813 84.8381 35.0626C82.8468 37.3185 81.3714 39.9814 80.5146 42.8659C79.9045 44.7791 79.9572 47.8672 79.9045 48.3267C79.9045 48.5451 80.0476 48.8012 79.9949 49.0046C79.5505 50.8349 83.1207 58.6608 83.8815 59.06C84.1752 59.2107 85.5084 61.1615 86.3068 61.7415C87.7871 62.9269 89.3701 63.978 91.037 64.8824C94.8558 66.5696 101.175 66.2909 101.243 66.3135C101.838 66.2932 102.431 66.2201 103.013 66.0951C103.307 66.0951 104.52 65.6507 104.904 65.5528C105.775 65.3609 106.601 65.0029 107.337 64.4983C110.395 62.683 109.928 63.1274 110.35 62.7433C118.816 55.4145 119.388 45.0502 115.712 38.7684ZM67.4011 59.158C67.7551 58.6684 63.8836 58.2993 63.281 58.2315C61.6164 58.2315 60.6071 58.6458 58.1893 59.7379C55.538 60.928 55.44 63.6321 56.1481 64.5284C56.9766 65.5904 58.7015 65.1987 60.0422 65.0255C60.9182 64.7987 61.7576 64.4487 62.5353 63.9861C65.616 62.2311 66.3541 60.6041 67.4011 59.158Z" fill="black"/>
</g>
</g>
</g>
</svg>
