<svg width="151" height="151" viewBox="0 0 151 151" fill="none" xmlns="http://www.w3.org/2000/svg">
<g id="No-Search-Results-Found--Streamline-Bruxelles">
<g id="No-Search-Results-Found--Streamline-Bruxelles.svg">
<g id="Colour">
<path id="Vector" d="M141.557 121.568C136.698 127.873 123.562 137.13 110.675 137.574C100.13 137.936 89.9386 133.808 72.3887 139.45C57.5353 144.217 60.6385 144.127 49.2649 141.98C44.7456 141.122 40.023 141.084 35.5263 139.977C19.7087 136.098 19.9573 126.939 8.51594 115.648C2.49021 109.728 2.9798 101.939 5.68385 96.3354C7.31079 92.9836 9.44993 90.4528 9.44993 87.4098C9.37461 79.1244 2.24918 67.3969 11.1145 57.0929C15.3853 52.1216 17.6223 52.0237 16.8992 46.0582C16.033 38.8801 18.4659 32.9221 25.0264 29.8867C31.9184 26.7006 31.8054 25.3147 34.6299 20.5543C37.3415 16.035 42.5237 10.16 49.5738 8.54807C62.9132 5.49001 63.4555 10.5516 78.8889 8.04342C84.5607 7.12449 90.6316 9.18831 95.0002 12.9167C102.532 19.3417 99.3162 17.2176 111.526 18.4378C123.261 19.6053 131.93 30.0072 132.654 39.9045C133.105 46.0507 132.775 50.344 137.482 54.8558C143.267 60.3995 147.168 65.0845 146.641 73.1816C146.151 80.7664 144.268 80.9397 146.076 93.0288C147.552 102.828 147.605 113.735 141.557 121.568Z" fill="#F2FBFF"/>
<path id="Vector_2" d="M117.808 90.5204C119.954 91.8988 120.112 91.3715 117.612 94.6179C117.152 95.2129 117.567 95.2054 114.094 92.8252C112.656 91.8461 112.979 93.0889 114.516 89.4734C114.516 89.4056 114.516 89.4734 114.9 88.7202C115.864 89.2625 117.19 90.1061 117.808 90.5204Z" fill="#D9FFFC"/>
<path id="Vector_3" d="M143.312 106.632C143.82 106.992 144.188 107.516 144.351 108.117C144.515 108.718 144.464 109.356 144.209 109.924C143.807 110.778 143.259 111.556 142.588 112.221C139.839 114.081 140.495 114.097 133.294 108.515C119.495 97.812 116.392 96.4637 117.115 96.2905C117.959 96.1022 118.622 95.1607 119.375 94.2267C119.985 93.5968 120.419 92.8175 120.633 91.967C120.799 90.8372 119.88 90.2271 131.78 98.9946C136.277 102.294 132.481 99.6499 143.312 106.632Z" fill="#A0E5E5"/>
<path id="Vector_4" d="M116.963 71.5329C118.801 81.1281 112.444 93.3754 101.018 97.6009C96.4137 99.3215 91.3546 99.3881 86.7068 97.7892C84.6305 97.3883 82.6415 96.6233 80.8317 95.5296C79.4264 94.7439 78.1235 93.7876 76.9526 92.6824C71.8609 88.3138 68.9685 83.2898 68.8329 76.5862C68.7652 73.5281 68.6597 72.7523 68.8781 71.6225C69.2045 68.5021 70.1493 65.4781 71.6575 62.727C80.1613 47.6627 101.704 45.5612 113.507 62.019C115.285 64.5498 116.376 68.5042 116.963 71.5321V71.5329ZM94.4122 94.5805C105.289 93.9855 116.309 82.5291 112.061 69.1218C110.343 63.7363 108.121 61.9964 106.321 60.3469C96.3253 51.1953 80.1922 54.9237 75.3264 65.1674C72.6751 70.7488 72.8634 74.7408 73.7673 80.2318C73.9134 80.9097 74.1273 81.571 74.4075 82.2052C74.7595 83.1988 75.2377 84.143 75.8303 85.0147C79.1671 91.0028 87.573 94.9571 94.4122 94.5805Z" fill="#A0E5E5"/>
<path id="Vector_5" d="M113.183 93.9931C113.296 97.2847 113.891 121.862 113.756 123.233C113.756 123.474 113.65 123.602 113.409 123.64C108.438 124.476 107.948 124.182 104.468 124.393C104.205 124.393 63.4859 126.314 63.4633 126.306C58.0476 126.223 44.1207 127.813 44.0905 125.975C44.0453 123.323 44.0077 123.888 44.0077 123.248C44.0077 122.608 43.8043 122.864 46.2673 122.404C46.2673 122.404 54.9896 120.634 57.7388 120.499C60.3374 120.371 58.6653 119.934 80.9002 116.65C85.4195 115.98 104.378 113.2 109.952 110.956C110.991 110.541 110.321 109.186 108.197 95.0476C108.144 94.6936 109.756 93.7822 111.082 92.3361C111.308 92.0875 111.39 92.2231 112.535 93.0064C112.995 93.3152 113.16 93.2776 113.183 93.9931Z" fill="#FFFDF2"/>
<path id="Vector_6" d="M111.925 56.9205C111.925 58.0051 112.294 58.5324 110.991 57.1465C110.32 56.4385 110.343 56.6945 109.65 56.0242C108.483 54.9749 107.222 54.0345 105.884 53.2147C105.598 53.0189 105.561 52.9209 103.015 51.7535C102.111 51.3317 101.839 51.4371 101.787 50.955C101.787 50.8345 100.807 45.1929 100.092 39.7924C100.016 39.1823 100.227 40.2443 99.3838 34.4445C99.203 33.1641 99.0524 33.1114 99.4892 33.0586C100.099 32.9833 107.729 32.5766 108.716 32.5841C110.787 32.5992 111.39 29.993 111.925 56.9205Z" fill="#FFFDF2"/>
<path id="Vector_7" d="M87.2578 22.5062C93.5547 27.5754 98.767 29.948 96.7333 30.9799C96.5826 31.0552 90.7076 33.1341 89.3367 33.5032C88.3274 33.7743 86.6552 34.053 86.6025 32.9985C86.5431 30.4759 86.3192 27.9598 85.9322 25.4664C85.8999 24.4068 85.8018 23.3502 85.6384 22.3028C85.42 20.6684 85.2769 20.9169 87.2578 22.5062Z" fill="#FFFDF2"/>
<path id="Vector_8" d="M107.104 95.9966C107.646 100.456 109.71 109.441 109.063 109.924C105.914 112.296 55.2 119.188 46.9448 121.086C45.4835 121.418 38.5615 122.088 38.2753 121.885C38.1924 121.817 38.1547 120.604 37.8987 119.723C37.6426 118.842 37.1831 115.008 37.1454 114.789C33.5601 96.6443 31.5114 82.8755 29.9146 70.6659C29.3195 66.1466 28.5512 63.7664 28.1445 59.812C27.7679 56.2041 27.3913 56.1891 27.1729 53.6583C26.4196 45.7269 24.4311 40.4845 24.16 32.0485C24.0997 30.0751 23.4746 31.1522 38.3581 28.3427C47.1105 26.6931 47.5097 27.3258 56.714 25.7441C69.5187 23.5372 66.5058 24.2376 68.3587 23.9439C68.3587 23.9439 83.2573 21.0139 83.9503 20.8632C84.7939 20.6749 84.7035 24.441 85.0274 27.1827C85.2775 29.2179 85.4213 31.2644 85.4567 33.3139C85.491 33.5665 85.5761 33.8096 85.7068 34.0285C85.8376 34.2474 86.0113 34.4375 86.2176 34.5874C86.4238 34.7373 86.6582 34.8439 86.9068 34.9008C87.1553 34.9576 87.4128 34.9636 87.6637 34.9183C88.6358 34.8749 89.5958 34.6845 90.5108 34.3533C97.6739 32.1916 97.6061 31.6116 97.7191 32.0937C98.2765 34.4739 99.6172 45.8173 100.16 48.7774C100.529 50.7885 100.679 50.8412 99.8733 50.5701C89.5768 47.1505 75.8156 51.8732 70.4602 62.1621C65.7526 71.2007 66.6188 85.203 74.2941 91.9292C78.6702 95.7631 80.5458 97.6536 88.7332 99.6045C90.9733 99.9675 93.2472 100.079 95.5122 99.9359C104.603 98.904 106.969 94.8215 107.104 95.9966ZM59.1168 45.7118C65.1952 43.6932 61.5873 41.9458 60.6232 42.4128C60.1185 42.6387 59.6214 42.8647 59.1168 43.1132C58.4087 43.4748 58.3635 42.8195 57.8965 42.714C56.4428 42.3751 56.3073 42.5634 54.3037 43.7459C52.9856 44.4992 52.8651 44.921 52.255 44.3259C50.982 43.0982 49.3927 43.2865 47.826 44.1527C44.8132 45.8098 45.8602 45.6064 43.6382 45.5838C42.4405 45.5838 41.3785 45.1394 39.7516 46.1562C37.4919 47.5572 39.5482 45.983 36.7387 45.7043C35.9026 45.6215 34.1778 46.7212 33.5601 47.158C32.6864 47.7757 31.8729 48.3406 31.9633 49.3348C31.9712 49.5061 32.0298 49.6711 32.1316 49.8091C32.2334 49.947 32.3739 50.0516 32.5352 50.1097C32.6965 50.1678 32.8714 50.1767 33.0378 50.1353C33.2041 50.0939 33.3545 50.004 33.4697 49.8771C34.2921 49.0836 35.2551 48.4501 36.3094 48.0092C37.0099 47.7003 36.3922 49.1314 38.0116 49.3725C38.9984 49.5156 39.2695 49.0411 41.4011 47.979C42.0564 47.6551 42.6439 47.979 44.0449 48.0845C47.0578 48.3858 49.3174 44.5067 51.0046 46.1035C53.4752 48.4837 56.4805 44.2732 57.0981 45.0867C57.328 45.3877 57.6459 45.6096 58.0076 45.7216C58.3694 45.8337 58.757 45.8302 59.1168 45.7118ZM52.9178 37.2382C52.9178 36.4849 52.0742 36.4021 51.9085 36.3343C51.3586 36.1159 50.9293 36.5226 50.4548 36.6732C49.212 37.0649 49.1969 36.372 47.3892 36.8691C44.7379 37.6223 44.7002 38.3755 44.1428 37.9236C43.7888 37.6374 43.6984 37.4566 43.1787 37.434C42.9067 37.3556 42.6216 37.3333 42.3406 37.3682C42.0597 37.4032 41.7888 37.4947 41.5442 37.6374C39.5633 38.6015 39.2846 39.2267 38.3355 39.3999C38.1397 39.3999 38.0719 39.2417 37.9514 39.1363C36.0909 37.4415 34.4715 38.383 32.5207 39.5355C32.013 39.7681 31.5717 40.1245 31.2375 40.5719C30.9032 41.0194 30.6866 41.5435 30.6075 42.0964C30.4719 43.0982 31.9482 43.3618 32.1817 42.5634C32.4152 41.765 34.3661 40.7933 35.3678 40.3791C36.3696 39.9648 36.1211 40.7632 37.5371 41.4712C39.4804 42.4429 42.3652 39.1438 42.7192 39.8518C42.9498 40.1563 43.2699 40.381 43.6346 40.4944C43.9993 40.6079 44.3903 40.6044 44.7529 40.4845C47.0804 39.43 47.5474 39.2191 48.5793 39.0383C49.1969 38.9329 49.7844 39.415 51.223 38.8802C52.2022 38.5488 52.8952 38.2851 52.9178 37.2382ZM49.4681 54.1253C49.7467 53.0934 48.4663 52.8297 47.7357 52.9804C46.4326 53.2515 45.8376 54.0198 44.7228 53.6432C43.9596 53.4807 43.164 53.5788 42.4631 53.9219C40.7835 54.6149 40.9567 54.8634 40.678 54.3588C39.729 52.4155 36.4826 54.0725 34.7653 55.3831C34.3669 55.6847 34.0977 56.1261 34.0121 56.6184C33.9878 56.8206 34.0314 57.0251 34.136 57.1998C34.2406 57.3745 34.4002 57.5095 34.5899 57.5836C34.7795 57.6578 34.9884 57.6668 35.1838 57.6094C35.3791 57.5519 35.5498 57.4312 35.6691 57.2662C36.5247 56.6102 37.4744 56.0871 38.4862 55.7146C39.0661 55.5187 38.6067 56.3473 39.3825 56.9046C40.678 57.8311 41.3634 56.7992 43.7963 55.933C44.1805 55.7974 44.4441 56.0083 44.8207 56.0686C46.3271 56.3322 46.651 55.8727 48.9182 55.112C49.3701 54.9387 49.3174 54.6902 49.4681 54.1253Z" fill="#FFFDF2"/>
<path id="Vector_9" d="M111.843 73.7852C111.843 74.0564 112.009 74.2146 111.986 74.2748C111.964 74.3351 112.619 86.5816 100.688 91.9822C97.5165 93.3409 94.0326 93.8021 90.6168 93.3154C84.8622 92.2006 84.704 91.2742 83.4537 90.89C83.3934 90.89 78.9352 87.9299 77.5417 85.6627C75.9132 83.5284 74.8485 81.0183 74.446 78.364C73.6928 74.1686 74.7623 70.3875 74.7699 69.7698C76.0277 67.1637 77.2781 61.2058 84.4562 58.095C92.8169 54.4645 99.8587 56.1743 106.419 61.959C109.093 64.294 111.233 68.0224 111.843 73.7845V73.7852Z" fill="#F2FBFF"/>
<path id="Vector_10" d="M62.6649 99.3564C62.793 99.8686 60.104 101.616 59.75 101.88C58.2435 102.844 57.882 103.22 57.0685 101.947C55.66 99.7406 55.2985 99.2359 54.9821 98.1814C54.9821 97.3679 56.353 96.4641 58.7105 94.8296C58.8469 94.7795 58.9948 94.77 59.1364 94.802C59.2781 94.8341 59.4075 94.9065 59.5089 95.0104C60.2697 95.8314 62.4088 98.2868 62.6649 99.3564Z" fill="#FFCCCC"/>
<path id="Vector_11" d="M59.4644 66.8855C60.8353 68.4974 61.4077 71.2467 61.2721 73.3707C60.903 78.8308 53.6044 83.4857 55.0882 87.538C56.2783 90.7994 58.3798 89.7298 53.7324 93.0892C52.8662 93.7068 52.1657 94.4299 51.4728 93.6164C46.5618 87.7489 48.829 81.9642 53.6797 76.0514C57.6943 71.1631 52.6855 66.7191 47.2623 69.8675C45.6203 70.8166 43.8427 71.6903 42.8409 75.4489C42.6955 76.0439 42.6097 76.6525 42.5848 77.2641C42.5274 77.5848 42.3987 77.8886 42.2082 78.1529C42.05 78.4919 39.3008 77.9043 37.9751 77.7537C35.4594 77.4675 37.2219 64.949 49.5973 62.9379C54.8848 62.0943 57.2951 64.3314 59.4644 66.8848V66.8855Z" fill="#FFCCCC"/>
</g>
<g id="Ink">
<path id="Vector_12" d="M112.061 69.1224C116.309 82.5138 105.282 93.9778 94.4131 94.5804C87.5739 94.957 79.168 91.0026 75.8313 85.022C75.2384 84.1504 74.76 83.2061 74.4077 82.2125C74.1317 81.5767 73.9173 80.9159 73.7675 80.2391C72.8486 74.7482 72.6753 70.7486 75.3266 65.1748C82.0227 51.0595 106.457 51.4889 112.061 69.1216V69.1224ZM111.843 73.7848C110.336 59.7976 96.7782 52.6948 84.4782 58.0953C77.3076 61.2287 76.0497 67.1339 74.7919 69.7702C74.7919 70.3878 73.7374 74.169 74.468 78.3636C74.8704 81.0179 75.9351 83.528 77.5637 85.6623C78.9345 87.9219 83.4162 90.8745 83.4764 90.8896C84.7268 91.2737 84.885 92.2002 90.6395 93.315C94.0554 93.8015 97.539 93.3406 100.71 91.9818C108.664 88.3739 112.536 80.3295 111.843 73.7841V73.7848Z" fill="black"/>
<path id="Vector_13" d="M95.2791 77.7159C96.3712 78.326 95.7837 79.3881 95.1736 79.0416C93.1023 77.859 91.8444 77.2113 89.5848 78.1754C87.8524 78.9286 87.3251 80.9397 87.0766 81.482C86.9711 81.7155 86.3233 82.062 86.1275 81.1054C86.3459 78.5897 89.7957 74.6428 95.2791 77.7159Z" fill="black"/>
<path id="Vector_14" d="M88.0331 61.5301C90.7598 59.0746 93.6521 60.3928 93.0948 61.8088C93.0044 62.0348 92.5223 62.0272 92.3415 61.8088C91.3925 60.679 89.6526 61.4774 88.711 62.3812C86.7301 64.2794 85.7886 62.2909 86.956 62.1628C87.4833 62.095 87.295 62.2005 88.0331 61.5301Z" fill="black"/>
<path id="Vector_15" d="M90.5414 70.4481C89.8485 70.4481 89.6601 69.0396 89.7355 68.3767C89.8108 67.7139 91.0385 67.3298 91.2796 68.8588C91.4453 69.6421 91.385 70.4255 90.5414 70.4481Z" fill="black"/>
<path id="Vector_16" d="M85.0206 69.8304C85.3294 70.4179 85.578 71.9921 84.8248 72.09C84.0715 72.1879 83.6716 70.7719 83.8298 69.9584C83.9503 69.3408 84.8022 69.4312 85.0206 69.8304Z" fill="black"/>
<path id="Vector_17" d="M84.2448 65.1833C84.5838 66.2981 82.535 65.5449 82.2111 67.4882C81.9927 68.4222 81.2244 68.3092 81.1039 67.8497C81.096 67.265 81.2671 66.6919 81.5943 66.2072C81.9214 65.7225 82.389 65.3495 82.9342 65.1381C83.1075 65.0779 84.064 64.5883 84.2448 65.1833Z" fill="black"/>
<path id="Vector_18" d="M58.0327 103.325C57.3624 103.325 56.933 102.798 56.5715 102.233C53.5586 97.5257 53.3327 97.8495 58.3642 94.332C58.6174 94.1974 58.9077 94.1496 59.1907 94.1959C59.4737 94.2421 59.7337 94.3799 59.9308 94.5881C59.9308 94.5881 62.8759 97.714 63.2299 99.1827C63.358 99.6949 62.9663 100.215 61.7235 101.156C61.1586 101.638 58.8311 103.325 58.0327 103.325ZM55.5773 98.1207C55.871 99.017 56.3305 99.6271 57.5582 101.601C58.0177 102.354 57.965 102.294 59.0646 101.601C60.1357 100.958 61.1333 100.2 62.0398 99.3409C61.2107 97.8735 60.1702 96.536 58.9517 95.3715C54.9521 98.196 55.6149 98.2262 55.5773 98.1508V98.1207Z" fill="black"/>
<path id="Vector_19" d="M52.1204 94.5805C50.9077 94.5805 47.8496 90.7241 48.1509 85.9487C48.6782 77.7386 57.1895 74.5224 53.8678 70.6358C52.3614 68.8281 49.6046 69.1972 47.4354 70.455C45.8762 71.3514 44.3397 72.1874 43.4132 75.6146C43.0366 77.0155 43.368 77.4374 42.8633 78.2056C42.2005 79.3806 41.4021 78.7178 37.9222 78.3337C34.4424 77.9495 36.6267 64.4293 49.5067 62.358C51.0833 62.0464 52.7108 62.1054 54.2607 62.5304C55.8105 62.9554 57.2405 63.7348 58.4376 64.807C59.6347 65.8792 60.5663 67.215 61.1588 68.7089C61.7514 70.2028 61.9886 71.8139 61.8519 73.4152C61.6561 76.2623 59.8936 78.6877 58.7939 80.1113C57.4456 81.8361 54.8696 85.2859 55.6304 87.3421C56.7978 90.4906 59.163 89.9106 54.0712 93.5712C53.5357 94.0942 52.8565 94.4456 52.1204 94.5805ZM51.9396 93.2398C52.1882 93.5411 52.3237 93.398 53.4008 92.6147C57.4757 89.6395 55.7735 91.1082 54.5457 87.7413C52.9263 83.335 60.353 78.4994 60.6995 73.3323C60.9857 69.0013 58.8617 67.2614 59.0349 67.2614C56.8882 64.7457 54.7039 62.7421 49.7176 63.4953C37.9976 65.3708 36.5589 76.9704 38.0654 77.1436C43.2851 77.7236 41.4322 78.4165 42.2984 75.2606C43.3605 71.3815 45.2435 70.3421 46.8554 69.4081C53.0619 65.8002 58.5528 71.035 54.1541 76.3979C49.5293 82.0621 47.2245 87.5982 51.9396 93.2398Z" fill="black"/>
<path id="Vector_20" d="M60.6313 42.4135C61.5879 41.9691 65.1958 43.6939 59.1249 45.7125C58.7663 45.8304 58.3799 45.8335 58.0194 45.7214C57.659 45.6094 57.3424 45.3877 57.1138 45.0874C56.5037 44.2739 53.4908 48.4844 51.0203 46.1042C49.3632 44.5074 47.081 48.3639 44.0606 48.0852C42.6596 47.9496 42.0721 47.6558 41.4168 47.9797C39.2852 49.0418 39.014 49.4862 38.0273 49.3732C36.4079 49.1321 37.0255 47.701 36.325 48.0099C35.2612 48.4405 34.2858 49.0635 33.4477 49.8477C33.3326 49.975 33.1823 50.0651 33.0158 50.1068C32.8493 50.1484 32.6742 50.1396 32.5128 50.0814C32.3513 50.0233 32.2108 49.9185 32.109 49.7803C32.0073 49.6421 31.9489 49.4768 31.9413 49.3054C31.8434 48.3337 32.6945 47.7462 33.5381 47.1286C35.1651 45.9686 37.5603 44.7861 38.4491 46.5637C38.5545 46.7595 38.4491 46.9252 39.7522 46.1268C41.3942 45.11 42.4411 45.5468 43.6388 45.5544C45.8607 45.5544 44.8213 45.7803 47.8266 44.1233C49.3933 43.2571 50.9826 43.0688 52.2555 44.2965C52.8732 44.8991 53.0088 44.4923 54.3043 43.7165C56.3154 42.534 56.4434 42.3532 57.8971 42.6846C58.3491 42.7901 58.4018 43.4378 59.1173 43.0838C59.6371 42.8654 60.1342 42.6394 60.6313 42.4135Z" fill="black"/>
<path id="Vector_21" d="M51.9088 36.335C52.0745 36.4103 52.9331 36.4706 52.9181 37.2389C52.9181 38.2783 52.2101 38.5269 51.2384 38.8884C49.7998 39.4307 49.2122 38.9411 48.5946 39.0466C47.5627 39.2198 47.0882 39.4383 44.7683 40.4852C44.4063 40.6048 44.0161 40.6089 43.6518 40.4969C43.2874 40.3849 42.9669 40.1623 42.7346 39.8601C42.3806 39.1069 39.4958 42.4511 37.5525 41.472C36.1439 40.7639 36.3323 40.0107 35.3832 40.3873C34.4341 40.7639 32.4231 41.7808 32.1971 42.5716C31.9711 43.3625 30.4873 43.1064 30.6229 42.0971C30.7046 41.5451 30.9222 41.0221 31.2561 40.5751C31.5901 40.1281 32.0299 39.7711 32.536 39.5362C34.4869 38.3687 36.1063 37.4422 37.9667 39.137C38.0872 39.25 38.155 39.4383 38.3509 39.4081C39.3301 39.2349 39.5786 38.6022 41.5596 37.6381C41.805 37.4976 42.0761 37.4078 42.3569 37.3742C42.6377 37.3405 42.9224 37.3637 43.1941 37.4422C43.7138 37.4422 43.8042 37.6381 44.1582 37.9243C44.7231 38.3838 44.7607 37.608 47.4045 36.8698C49.2122 36.3727 49.2273 37.0807 50.4701 36.6815C50.9371 36.5233 51.3664 36.1091 51.9088 36.335Z" fill="black"/>
<path id="Vector_22" d="M47.7587 52.9808C48.512 52.8302 49.7698 53.0938 49.4911 54.1257C49.3405 54.6906 49.3932 54.9392 48.8886 55.1124C46.6289 55.8656 46.3352 56.3326 44.7911 56.069C44.4145 56.0088 44.1508 55.7979 43.7667 55.9334C41.3338 56.7996 40.6484 57.8315 39.3529 56.9051C38.5996 56.3477 39.0365 55.5192 38.4565 55.715C37.4448 56.0876 36.4951 56.6107 35.6395 57.2666C35.5202 57.4316 35.3495 57.5524 35.1541 57.6098C34.9588 57.6673 34.7499 57.6582 34.5603 57.5841C34.3706 57.51 34.211 57.3749 34.1064 57.2002C34.0018 57.0255 33.9582 56.821 33.9824 56.6189C34.0681 56.1266 34.3372 55.6851 34.7356 55.3836C36.4454 54.073 39.6918 52.4234 40.6484 54.3592C40.8969 54.8639 40.7538 54.6228 42.4335 53.9223C43.1342 53.5787 43.93 53.4806 44.6932 53.6437C45.838 54.0203 46.4331 53.252 47.7587 52.9808Z" fill="black"/>
<path id="Vector_23" d="M30.1931 80.7742C28.3477 68.6625 28.7921 70.9824 28.423 68.6399C27.248 61.3186 27.4514 63.9398 27.1199 60.8064C26.4646 54.6828 26.3667 57.8463 25.9299 52.1218C25.6587 48.5817 24.8452 47.2937 23.3162 35.0766C23.0827 33.201 22.5027 30.03 23.8209 29.8944C24.1749 29.8944 26.7433 29.0885 28.1368 28.9303C29.5302 28.7721 47.984 25.1642 52.541 25.232C53.7763 25.232 53.5126 24.8328 62.4608 23.5147C84.0262 20.3286 83.9283 18.8523 85.623 19.7486C85.977 19.9294 91.1742 23.9892 92.5978 24.9609C98.036 28.6817 98.1106 28.8926 98.7357 31.4084C98.8261 31.785 98.8419 31.8001 99.2186 31.8603C100.16 31.9959 108.822 31.3557 108.837 31.3557C111.353 31.1222 111.503 31.9432 111.925 34.0371C112.52 36.9308 112.801 39.8806 112.761 42.8347C112.761 43.2038 113.054 50.4271 113.069 51.3536C113.069 52.152 112.949 52.1068 113.069 56.1892C113.069 57.2814 113.28 58.2455 113.243 59.2021C113.205 60.1586 122.372 70.5003 116.543 84.4047C115.036 87.9297 114.207 86.8978 116.301 88.3515C119.434 90.5359 119.314 90.5359 119.586 90.3852C121.047 89.5793 122.327 90.807 123.487 91.5979C125.009 92.544 126.459 93.6014 127.826 94.7614C137.911 102.467 143.184 104.749 144.931 106.489C147.522 109.065 143.598 114.684 140.465 114.774C137.331 114.865 135.38 110.255 117.905 98.6028C117.717 98.4748 116.994 97.7893 116.565 97.4429C115.91 96.9005 115.532 95.9364 115.706 95.5598C115.789 95.379 115.789 95.4242 114.576 94.4978C114.35 94.3321 114.327 94.8518 114.365 94.9723C114.651 95.9138 114.531 102.663 114.531 102.685C114.531 103.521 114.644 103.167 114.682 106.18C114.655 107.688 114.71 109.197 114.848 110.699C114.976 113.419 114.72 113.637 115.044 118.571C115.044 118.646 114.975 122.578 114.93 123.263C114.885 123.949 114.712 124.77 113.921 124.83C104.13 125.877 51.8262 128.174 45.5519 127.654C42.9382 127.436 43.1567 126.999 42.991 124.559C42.8478 122.472 43.5483 122.789 40.8368 122.954C36.7694 123.195 37.4247 123.444 36.8598 120.536C36.2949 117.629 36.4229 117.456 35.971 114.729C33.5833 100.313 34.7282 110.534 30.1938 80.7742H30.1931ZM29.1988 73.4981C27.9711 65.8078 29.1988 73.4228 29.1988 73.4981V73.4981ZM144.208 109.924C144.462 109.356 144.511 108.718 144.348 108.118C144.185 107.518 143.818 106.993 143.312 106.632C132.481 99.6498 136.269 102.294 131.75 98.9568C119.864 90.1818 120.767 90.7995 120.602 91.9293C120.388 92.7797 119.954 93.559 119.344 94.189C118.591 95.1229 117.959 96.0569 117.085 96.2528C116.332 96.4185 119.465 97.7592 133.264 108.477C140.465 114.059 139.809 114.051 142.559 112.183C143.235 111.531 143.793 110.767 144.208 109.924ZM117.611 94.6032C120.112 91.3569 119.961 91.8841 117.807 90.5057C117.19 90.1065 115.856 89.2629 114.9 88.7357C114.501 89.4437 114.516 89.391 114.516 89.4889C113.009 93.0968 112.656 91.854 114.095 92.8407C117.559 95.1907 117.152 95.1983 117.611 94.6032ZM115.413 83.6741C117.1 79.8639 117.639 75.6442 116.964 71.5322C116.376 68.5194 115.285 64.5499 113.484 62.0568C101.569 45.5312 80.071 47.8059 71.6358 62.7572C70.1198 65.5191 69.1722 68.5565 68.8489 71.6904C68.6304 72.8202 68.7359 73.596 68.8037 76.6541C69.105 91.1008 85.4498 103.288 101.817 97.2922C102.749 96.9842 103.628 96.5345 104.423 95.959C109.373 93.2291 113.249 88.8971 115.413 83.6741ZM113.756 123.233C113.891 121.832 113.296 97.2847 113.183 93.9931C113.183 93.2399 112.994 93.3228 112.535 93.0064C111.382 92.2532 111.308 92.0875 111.082 92.336C109.764 93.7973 108.143 94.7011 108.196 95.0552C110.267 108.869 111.021 110.534 109.952 110.963C104.348 113.223 85.4415 115.987 80.8996 116.657C58.6646 119.941 60.3368 120.371 57.7306 120.506C54.9814 120.642 46.2893 122.412 46.2667 122.412C43.8112 122.864 44.007 122.532 44.007 123.248C44.007 123.964 44.007 123.331 44.0899 125.982C44.0899 127.805 58.0395 126.223 63.4626 126.314L104.468 124.4C107.948 124.197 108.437 124.483 113.408 123.647C113.815 123.564 113.68 123.308 113.756 123.233ZM111.925 56.95C111.382 30.0225 110.787 32.6211 108.686 32.6135C108.31 32.58 107.932 32.58 107.556 32.6135C105.748 32.9299 101.575 32.8621 99.4588 33.1182C99.0144 33.1709 99.1726 33.2236 99.3534 34.5041C100.197 40.3039 99.9785 39.2418 100.061 39.8519C100.769 45.2525 101.741 50.8941 101.756 51.0071C101.816 51.4967 102.081 51.3912 102.985 51.8055C103.988 52.1945 104.949 52.6841 105.854 53.2667C107.191 54.0909 108.451 55.0337 109.62 56.0838C110.32 56.7541 110.305 56.4905 110.96 57.1985C111.209 57.4697 111.48 57.7182 111.714 57.9517C111.766 57.9969 111.849 57.9517 111.917 58.012C111.94 57.6489 111.942 57.2836 111.925 56.9198V56.95ZM109.062 109.954C109.71 109.472 107.647 100.486 107.105 96.0268C106.969 94.8518 104.588 98.9116 95.5346 99.9812C93.2694 100.122 90.9955 100.008 88.7556 99.6423C80.5908 97.6161 78.6934 95.8084 74.324 91.9745C66.6487 85.2408 65.7825 71.2611 70.4901 62.2074C75.838 51.9109 89.6068 47.1958 99.8656 50.6154C100.672 50.8866 100.522 50.8414 100.16 48.8227C99.6178 45.8551 98.277 34.5116 97.7197 32.139C97.5991 31.6344 97.6669 32.2068 90.5114 34.3987C89.5939 34.7338 88.6313 34.9259 87.6559 34.9711C87.2647 35.0441 86.8604 34.9921 86.5003 34.8224C86.1403 34.6528 85.8428 34.3741 85.6501 34.0258C85.5219 33.7947 85.4432 33.5395 85.4189 33.2764C85.3907 31.2287 85.2474 29.1843 84.9895 27.1527C84.7033 24.411 84.7568 20.6449 83.9207 20.8257C83.2202 20.9839 68.3367 23.9064 68.3216 23.9064C66.4461 24.2302 69.5042 23.5072 56.6769 25.7141C47.4726 27.2883 47.0809 26.6631 38.321 28.3127C23.4375 31.1146 24.0626 30.0375 24.1304 32.0185C24.4016 40.4545 26.3901 45.6969 27.1433 53.6283C27.3843 56.1515 27.7383 56.1741 28.1074 59.782C28.5217 63.7364 29.29 66.1091 29.885 70.6359C31.3914 82.2354 33.508 96.6746 37.1008 114.767C37.146 114.985 37.6055 118.849 37.854 119.7C38.1026 120.552 38.1478 121.794 38.2306 121.862C38.5169 122.065 45.4464 121.395 46.9002 121.064C55.2006 119.196 105.914 112.296 109.062 109.924V109.954ZM96.7171 31.0167C98.7508 29.9848 93.5385 27.6122 87.2417 22.543C85.2607 20.9538 85.3669 20.7127 85.623 22.3095C85.7865 23.3569 85.8843 24.4135 85.916 25.473C86.2903 27.9685 86.5148 30.4834 86.5871 33.0052C86.6398 34.0597 88.3037 33.7584 89.3205 33.5099C90.6914 33.1408 96.5815 31.0544 96.7171 31.0167Z" fill="black"/>
</g>
</g>
</g>
</svg>
