<svg width="151" height="151" viewBox="0 0 151 151" fill="none" xmlns="http://www.w3.org/2000/svg">
<g id="Product-Site-Builder--Streamline-Bruxelles">
<path id="Vector" d="M105.521 70.6668C105.521 68.704 105.632 69.3299 105.521 66.8669C105.414 65.4577 105.405 64.0426 105.497 62.6323C105.497 61.6689 105.384 62.105 105.439 59.3995C105.534 58.6365 105.514 57.8637 105.379 57.1067C95.708 57.5292 71.0168 58.0618 62.0694 58.6643C34.812 60.4984 36.0284 60.4834 28.1889 60.6777C25.6596 60.741 27.7702 60.692 23.8354 60.9496C23.5793 63.1076 24.4967 109.181 24.4967 109.192C24.4967 109.506 24.6383 110.406 24.8981 110.538C25.1043 110.679 25.3374 110.774 25.5826 110.82C25.8278 110.865 26.0798 110.859 26.3225 110.802C29.0717 110.692 30.3032 110.421 31.2447 110.405C38.5645 110.282 47.6649 109.434 54.9869 108.644C58.3319 108.283 69.6309 107.863 71.3535 107.608C74.7091 107.109 88.6383 106.163 88.6609 106.163C92.4662 105.689 84.1416 106.375 104.274 104.892C105.761 104.783 104.762 100.612 105.758 78.3391C105.85 76.2738 105.515 77.3727 105.521 70.6668Z" fill="white"/>
<path id="Vector_2" d="M121.92 43.3784L130.189 43.9056L135.673 42.2485C137.111 76.3609 138.55 110.549 139.589 127.118L130.711 130.339L118.35 126.769C119.239 95.5077 120.297 66.1978 121.92 43.3784Z" fill="#FFFBD4"/>
<path id="Vector_3" d="M39.954 26.299L49.0634 16.7227H136.26L136.134 25.5654L129.661 26.299H39.954Z" fill="#FFFBD4"/>
<path id="Vector_4" d="M109.907 65.7555C110.031 70.4164 109.955 68.5884 109.845 70.7727C109.766 72.3635 110.214 84.2229 109.379 102.789C109.255 105.543 109.142 106.056 109.13 106.718C109.071 109.877 110.075 109.836 106.076 110.227C102.932 110.535 102.837 110.466 102.242 110.541C92.068 111.84 91.4842 111.294 81.2518 112.451C74.8781 113.174 71.3093 113.033 70.126 113.164C62.1517 114.045 62.8778 113.512 54.9751 114.164C50.2381 114.553 49.3418 114.726 36.3097 115.343C30.6651 115.609 23.1638 116.649 21.0728 116.171C19.3186 115.772 20.349 114.089 19.9008 102.786C18.997 80.0019 19.4798 76.4007 19.5077 57.1079C19.5167 51.1695 18.8433 50.1625 23.0252 49.7926C25.0024 49.6179 37.4199 49.3942 39.3783 49.1524C41.3366 48.9106 41.4534 49.2699 43.8222 49.0959C43.8418 49.0959 56.7316 48.589 56.8883 48.6206C56.9859 49.6558 56.9859 50.6978 56.8883 51.7329C56.6706 51.7502 54.9646 51.8836 47.5431 52.0591C47.5258 52.0591 35.5323 52.9539 33.2162 52.7603C32.5149 52.7023 30.1024 53.3486 28.3045 53.1919C27.4033 53.2311 26.5059 53.3317 25.6185 53.4932C24.4623 53.6762 23.5893 53.7191 23.0945 54.8753C22.7179 55.7521 23.111 92.9421 23.4771 106.976C23.6278 112.823 23.2511 111.821 32.4969 111.361C41.5001 110.914 48.0711 110.36 50.6938 110.104C66.0873 108.598 58.397 109.612 69.7359 108.736C79.9736 107.945 74.2288 108.142 102.984 106.01C106.762 105.729 105.908 105.574 106.11 100.531C106.3 98.5281 106.378 96.5164 106.344 94.505C106.414 84.2108 106.695 82.0393 106.754 78.0465C106.784 76.0061 106.51 75.3816 106.522 74.0944C106.614 64.2702 106.227 65.9423 106.417 64.1919C106.595 62.5446 106.224 51.3872 106.226 51.3661C106.209 51.0611 106.108 50.7668 105.934 50.5157C105.76 50.2646 105.52 50.0665 105.24 49.9433C104.126 49.5667 104.309 49.7926 99.9963 49.831C91.7321 49.9064 89.199 50.1474 80.9859 50.7575C79.249 50.8863 78.5952 50.6069 72.5657 50.9872C68.8817 51.2177 69.4376 51.0339 67.4273 51.1439C64.6961 51.2945 59.3227 51.919 58.4806 51.6839C58.4723 50.6573 58.4806 49.6578 58.4986 48.6349C60.5512 48.3562 87.1962 47.7213 98.5268 46.9967C99.7139 46.9214 100.741 46.6608 102.737 46.6457C104.236 46.5879 105.73 46.4407 107.211 46.2051C107.875 46.1403 109.273 46.3956 109.371 47.0547C109.679 49.1147 109.544 52.0809 109.907 65.7555Z" fill="#CBF7F7"/>
<path id="Vector_5" d="M144.351 137.739C144.415 138.656 144.422 139.575 144.37 140.492C144.372 140.601 144.338 140.708 144.275 140.797C144.212 140.886 144.123 140.953 144.019 140.988C141.473 142.284 133.625 144.924 130.851 145.762C129.958 146.033 130.649 144.461 130.399 141.776C131.294 141.109 129.953 141.885 137.809 139.355C144.467 137.21 144.251 137.054 144.351 137.739Z" fill="#FFF59E"/>
<path id="Vector_6" d="M143.02 136.288C143.174 136.937 143.472 136.311 130.592 140.585C130.441 138.552 130.778 133.129 130.924 131.102C130.959 130.622 131.182 130.726 133.35 130.111C135.477 129.54 137.569 128.842 139.613 128.02C140.202 128.534 140.635 130.315 141.076 131.259C142.083 133.41 142.273 134.64 143.02 136.288Z" fill="#FFF59E"/>
<path id="Vector_7" d="M135.783 40.0505C135.833 41.6202 136.235 41.105 132.976 42.3749C130.583 43.3089 131.034 43.1643 130.772 43.196C130.574 41.5779 130.457 39.9509 130.421 38.3211C130.439 38.3211 135.598 36.6769 135.653 36.6641C135.668 36.8561 135.751 39.0766 135.783 40.0505Z" fill="#FFF59E"/>
<path id="Vector_8" d="M135.938 25.9243C136.016 26.6497 135.992 27.3824 135.867 28.1011C134.343 28.5011 131.208 28.8799 130.115 29.0185C130.105 28.1681 130.15 27.3179 130.252 26.4734L135.938 25.9243Z" fill="#FFF59E"/>
<path id="Vector_9" d="M135.378 28.5801C135.502 35.6912 135.62 35.6837 135.253 35.811C133.685 36.4013 132.085 36.9043 130.461 37.3174C130.343 36.6982 130.426 34.3896 130.386 32.0968C130.359 30.4789 130.21 30.2176 130.508 29.316L135.378 28.5801Z" fill="#E5F6FF"/>
<path id="Vector_10" d="M129.704 41.0218C129.759 42.0093 129.801 41.7976 129.879 43.3794C129.277 43.4705 122.422 43.0171 121.838 42.8522C121.783 42.7575 121.74 42.6563 121.711 42.5509C121.462 41.0331 120.917 39.5787 120.727 38.0173C121.661 37.9222 122.605 37.9643 123.527 38.1423C123.613 38.1619 128.53 38.3683 129.106 38.4022C129.798 38.4451 129.566 38.5272 129.704 41.0218Z" fill="#FFF59E"/>
<path id="Vector_11" d="M129.93 130.984C129.775 137.526 129.579 134.213 129.44 140.46C128.532 140.788 113.812 135.373 113.794 135.373C113.989 134.746 115.309 132.109 115.417 131.891C118.34 126.005 117.136 126.79 123.066 128.946C125.609 129.872 127.502 130.231 129.93 130.984Z" fill="#FFF59E"/>
<path id="Vector_12" d="M127.583 141.085C129.445 141.666 129.529 141.468 129.513 142.11C129.414 145.837 129.497 145.666 129.305 145.8C123.942 144.376 114.826 140.679 113.261 140.111C112.659 139.894 112.799 139.916 112.686 137.343C112.669 136.962 112.512 136.816 112.769 136.277C113.101 135.565 112.571 136.407 127.583 141.085Z" fill="#FFF59E"/>
<path id="Vector_13" d="M129.39 29.4996C129.626 31.3789 129.509 31.4128 129.509 37.559C126.655 37.3225 121.102 37.1071 121.088 37.1071C120.195 37.1071 120.512 37.144 117.006 30.7477C116.685 30.2103 116.398 29.6537 116.146 29.0808C116.532 28.9061 116.837 28.9475 118.153 29.0251C121.077 29.2006 128.681 29.1893 129.39 29.4996Z" fill="#E5F6FF"/>
<path id="Vector_14" d="M129.542 26.5411C129.676 26.7166 129.507 27.5835 129.496 27.8027C129.486 28.0219 129.647 28.6313 129.428 28.8339C127.498 28.8339 115.63 28.513 115.604 28.513C115.038 28.513 115.181 26.8469 115.253 26.5185C116.141 26.2518 128.649 26.52 129.542 26.5411Z" fill="#FFF59E"/>
<path id="Vector_15" d="M113.492 74.3949C113.603 75.5247 113.382 76.0369 113.423 78.2784C113.594 87.4187 112.99 86.8026 113.197 96.2961C113.207 96.7631 113.14 102.491 113.146 103.818C113.146 104.195 113.372 112.016 112.619 113.535C112.365 113.951 112.022 114.305 111.615 114.574C111.208 114.842 110.747 115.017 110.265 115.086C108.316 115.36 109.037 115.479 106.812 115.496C106.795 115.496 95.2399 116.338 82.4676 117.651C82.3426 117.663 74.0068 118.247 69.0506 118.74C64.4183 119.2 59.6098 119.03 31.2331 122.061C18.9308 123.374 23.1142 123.221 20.9992 123.123C19.7428 123.066 19.257 123.143 18.7644 122.755C14.3882 119.311 16.5047 117.396 15.8939 99.4551C15.4743 87.1423 16.0151 73.433 15.4487 64.3394C15.3139 62.1799 15.3922 59.2514 15.4593 57.0867C15.5346 54.687 15.3131 51.7298 15.6559 50.2595C15.7424 49.7025 15.9559 49.1728 16.2798 48.7113C16.6037 48.2499 17.0293 47.8691 17.5238 47.5984C18.192 47.1191 18.9798 46.8339 19.8 46.7744C20.6067 46.7533 20.3665 46.6004 24.7487 46.4151C40.4299 45.7516 46.8827 45.8992 56.8862 45.3606C56.9758 46.0619 56.9057 46.7285 56.9404 47.4357C52.8339 47.7762 28.8304 48.4586 24.7088 48.6635C20.1751 48.8895 19.0981 49.1026 18.5685 52.172C18.4322 52.9613 18.5384 56.1874 18.5384 57.5416C18.5384 75.1669 18.2635 69.5246 18.3968 82.1432C18.4345 85.6991 18.9994 114.526 18.9994 114.596C19.1606 118.183 21.9158 117.281 23.704 117.383C24.8586 117.449 31.6368 116.76 31.6647 116.758C37.1391 116.377 35.183 116.701 54.6378 115.311C69.0536 114.281 75.1908 114.192 78.0011 113.88C97.3587 111.744 94.4626 112.865 96.8714 112.362C97.5661 112.209 98.2738 112.121 98.9849 112.101C99.3691 112.095 103.934 111.491 103.951 111.488C104.798 111.354 105.655 111.301 106.512 111.33C111.891 110.565 109.318 110.878 110.036 104.137C110.386 100.853 111.15 55.4161 109.891 47.4855C109.614 45.7433 108.452 45.1113 106.382 45.1912C105.172 45.3774 103.952 45.4894 102.728 45.5263C101.7 45.5263 79.6212 47.1081 67.215 47.1081C66.0042 47.057 64.7913 47.1269 63.5943 47.3167C62.6211 47.3921 59.481 47.5081 58.5071 47.4305V45.4344C58.5071 44.9275 58.7142 45.1497 60.5106 45.0578C62.9247 44.9358 60.6387 44.8658 67.9132 44.8048C78.5826 44.7151 95.8448 42.9586 99.946 43.2893C100.747 43.3541 106.247 43.0633 107.715 42.9714C112.964 42.6317 113.087 45.8133 113.018 49.7715C112.989 51.4323 113.204 51.9558 113.101 53.4389C113.032 54.4181 113.199 56.2461 113.221 56.8404C113.279 58.1736 113.469 74.1666 113.492 74.3949ZM64.633 117.705C65.0751 117.354 65.3109 116.787 65.2017 116.558C64.1231 114.277 61.6615 117.486 64.2082 117.871C64.3577 117.84 64.5012 117.784 64.633 117.707V117.705Z" fill="#E3E8FF"/>
<path id="Vector_16" d="M104.178 50.7881C105.464 50.8898 105.353 51.692 105.302 53.1984C105.267 54.274 105.354 55.1982 105.354 56.1088C100.21 56.6911 99.2312 55.7782 88.229 56.7227C87.2462 56.8152 86.2581 56.8404 85.2719 56.798C81.3793 56.5999 58.4491 57.961 58.4318 57.9572C58.3052 56.661 58.5267 52.919 58.5304 52.8263C60.0143 52.623 59.8109 52.9446 66.0046 52.2667C69.2344 51.9134 70.5171 52.2961 73.2076 51.9405C75.166 51.6822 79.4247 51.8487 80.3632 51.814C82.6733 51.7289 98.9887 50.3776 104.178 50.7881ZM98.8388 54.6438C99.8474 54.6544 100.421 53.2127 99.2004 52.8437C99.0805 52.7847 98.9483 52.7553 98.8148 52.7579C98.6813 52.7605 98.5503 52.7951 98.4328 52.8586C98.3154 52.9222 98.2149 53.0129 98.1396 53.1233C98.0644 53.2336 98.0167 53.3604 98.0005 53.4929C97.8528 54.1158 98.0509 54.6356 98.8388 54.6438ZM96.1671 53.9908C96.1722 53.8641 96.1517 53.7376 96.1069 53.6189C96.0621 53.5003 95.9939 53.3918 95.9063 53.3001C95.8188 53.2083 95.7137 53.1351 95.5973 53.0847C95.4808 53.0344 95.3555 53.008 95.2286 53.0071C94.1741 52.9401 93.8254 54.7892 95.0411 54.8615C95.3023 54.8767 95.5601 54.7969 95.7671 54.6369C95.974 54.4769 96.1161 54.2474 96.1671 53.9908ZM90.8992 55.0521C91.0292 55.0568 91.1588 55.0355 91.2804 54.9893C91.4021 54.9432 91.5132 54.8731 91.6074 54.7833C91.7015 54.6936 91.7767 54.5858 91.8286 54.4665C91.8804 54.3472 91.9079 54.2187 91.9093 54.0886C91.9107 53.9585 91.886 53.8295 91.8368 53.7091C91.7875 53.5887 91.7146 53.4793 91.6225 53.3875C91.5303 53.2957 91.4207 53.2233 91.3001 53.1745C91.1795 53.1257 91.0503 53.1016 90.9202 53.1035C90.6668 53.1431 90.4353 53.2703 90.266 53.463C90.0968 53.6557 90.0004 53.9016 89.9938 54.158C90.0135 54.3905 90.1155 54.6082 90.2815 54.7722C90.4474 54.9361 90.6665 55.0353 90.8992 55.0521Z" fill="#FFFBD4"/>
<path id="Vector_17" d="M101.734 62.4172C101.864 67.9255 101.803 68.1417 101.618 72.5103C101.496 75.3906 101.751 77.0831 101.717 78.5323C101.015 78.6935 101.653 78.5406 95.7521 78.6076C95.7325 78.6076 90.4984 78.9089 90.2687 78.7635C90.2687 77.053 90.1934 66.279 90.0932 62.5807C90.0623 61.4599 90.2175 61.4795 90.9406 61.4629C97.08 61.3258 99.7698 60.9726 100.929 60.9809C101.62 60.9884 101.708 61.298 101.734 62.4172Z" fill="#CBF7F7"/>
<path id="Vector_18" d="M87.5613 137.283C87.7917 140.051 87.5921 138.633 85.8228 139.676C85.453 139.893 85.0297 139.945 80.475 140.931C79.8363 141.07 74.972 142.401 74.5668 142.472C71.9554 142.923 68.0198 143.989 67.9483 144.01C66.8184 144.357 64.9444 144.585 64.3622 144.771C63.446 145.012 62.5096 145.169 61.5648 145.24C60.7151 145.482 60.5103 144.971 59.2433 144.185C57.6536 143.297 56.1294 142.296 54.6826 141.19C43.4281 132.395 44.9797 137.072 44.878 123.703C46.3588 123.292 50.0481 122.648 56.0701 121.455C60.105 120.655 63.7227 120.603 72.1023 119.973C72.8705 119.916 73.2494 119.838 73.635 119.838C73.635 120.382 73.6509 118.598 73.7104 125.864C73.73 128.241 73.6817 128.5 77.435 131.061C78.4383 131.747 84.464 135.339 84.4814 135.348C86.8736 136.742 87.5289 136.889 87.5613 137.283ZM85.2881 137.186C85.2471 137.094 85.1847 137.013 85.1061 136.95C85.0275 136.887 84.9349 136.843 84.8361 136.823C84.5725 136.743 84.5514 137.042 84.0483 137.139C77.5081 138.396 81.6884 137.666 74.2436 139.212C63.2761 141.492 61.6853 142.15 60.8364 141.568C58.2483 139.786 56.1665 138.605 52.89 136.014C51.0348 134.549 49.145 133.666 48.1726 132.183C47.7124 131.481 47.9308 131.171 47.7523 129.773C47.4276 127.238 47.9624 126.48 47.4329 125.398L46.9057 125.442C46.703 127.413 46.706 129.401 46.9147 131.371C47.0367 133.097 48.0408 133.631 50.8736 135.776C60.38 142.964 60.9351 143.111 62.4415 142.842C68.3302 141.806 82.0763 138.365 82.0884 138.361C84.5401 137.849 85.0689 138.089 85.2881 137.186Z" fill="#C5CDF3"/>
<path id="Vector_19" d="M73.3539 81.6825C73.4383 82.0327 74.9553 87.0363 75.2551 88.0637C74.6239 88.3801 68.0031 90.6472 67.738 90.6842C67.1768 89.9927 65.809 83.2235 64.0246 78.2885C67.9504 76.782 69.331 76.4258 70.1467 76.1832C72.4034 75.5129 71.8016 75.2357 73.3539 81.6825ZM73.8812 87.6992C74.3753 87.553 74.2314 87.0966 73.9655 86.9136C72.9427 86.1935 73.015 85.966 70.4578 83.4578C70.0059 83.0157 70.2823 83.1874 71.5364 77.9721C71.5825 77.682 71.5936 77.3874 71.5696 77.0946C71.5633 77.0235 71.532 76.9569 71.4812 76.9068C71.4305 76.8566 71.3635 76.826 71.2923 76.8206C71.2212 76.8152 71.1504 76.8352 71.0926 76.8771C71.0348 76.919 70.9938 76.9801 70.9768 77.0494C70.0428 79.6299 70.1837 79.9802 69.395 82.3385C67.3967 80.1873 68.1552 80.7884 66.4492 79.6269C65.8323 79.2074 65.5597 78.9543 65.2215 79.2405C65.0023 79.4266 65.2373 79.8054 65.3774 79.9184C68.6915 82.4846 67.7342 82.1299 68.9175 83.1972C69.029 83.2803 69.1069 83.4008 69.1369 83.5366C69.1669 83.6724 69.147 83.8145 69.0809 83.9368C68.5459 85.627 68.1465 87.3571 67.8863 89.1107C67.8659 89.203 67.8649 89.2985 67.8833 89.3912C67.9017 89.4839 67.9392 89.5717 67.9933 89.6492C69.0478 89.8067 68.3699 89.5265 69.7596 84.669C69.7696 84.5749 69.8022 84.4847 69.8547 84.406C69.9072 84.3273 69.9779 84.2625 70.0609 84.217C72.0697 86.3396 73.2831 87.8762 73.8819 87.6992H73.8812Z" fill="#CBF7F7"/>
<path id="Vector_20" d="M71.8902 63.2041C72.1026 64.1871 73.1428 68.1972 73.704 70.7634C72.4589 71.4044 58.1629 74.6108 56.2791 75.0334C54.6077 75.41 52.8339 76.3703 51.4728 76.417C50.7994 76.4404 46.6643 77.8203 43.9896 78.4033C42.9735 75.3083 43.5987 77.1755 42.7227 73.316C42.5464 72.5402 42.0448 71.079 41.907 70.5495C41.5552 69.2178 42.7506 69.3873 44.7383 68.8171C48.4102 67.7626 49.8255 67.1781 51.9006 66.8873C54.6777 66.4987 57.598 64.6563 57.9075 66.2403C58.2992 68.2469 56.313 66.8956 55.5658 68.5C55.2035 69.275 54.8638 70.7144 55.7405 71.0911C56.3399 71.3954 57.0044 71.5493 57.6766 71.5395C58.3487 71.5297 59.0084 71.3565 59.5987 71.0348C60.1889 70.713 60.692 70.2525 61.0646 69.6929C61.4371 69.1334 61.6678 68.4915 61.7369 67.8228C62.0214 66.7074 61.9652 65.5324 61.5757 64.4492C62.5104 63.8564 68.7011 62.8584 70.5224 62.3967C70.6653 62.3513 70.8161 62.3366 70.9651 62.3535C71.114 62.3703 71.2577 62.4185 71.3868 62.4947C71.5159 62.5709 71.6274 62.6734 71.7142 62.7957C71.8009 62.9179 71.8609 63.0571 71.8902 63.2041ZM50.3144 75.1155C51.7455 73.5608 51.7184 70.435 49.592 69.3406C46.2779 67.6368 43.7388 71.1438 44.7639 73.8862C45.2558 75.2013 45.7303 75.2963 47.0831 75.9576C47.6452 76.1465 48.2503 76.1675 48.8242 76.0179C49.3981 75.8684 49.9159 75.5548 50.3144 75.1155Z" fill="#FFCCCE"/>
<path id="Vector_21" d="M61.5009 26.8987C63.0269 26.8046 63.0134 26.8181 63.0074 27.1887C62.9147 31.6463 62.3423 30.1745 57.2671 30.5481C56.5764 30.5985 52.6612 31.0633 52.436 30.2167C52.0707 29.1447 51.9025 28.0155 51.9396 26.8837C59.4446 26.8897 59.3588 27.0321 61.5009 26.8987Z" fill="#FFF59E"/>
<path id="Vector_22" d="M61.2809 31.9478C61.369 32.1971 61.4036 31.9049 61.2199 33.7721C61.2091 33.8969 61.1547 34.014 61.0661 34.1026C60.9775 34.1912 60.8604 34.2457 60.7355 34.2564C59.1127 34.5363 57.4572 34.5718 55.8238 34.3619C53.9709 34.2233 54.2323 34.1705 53.7645 32.0653C56.3217 32.106 58.787 31.9448 61.2809 31.9478Z" fill="#FFF59E"/>
<path id="Vector_23" d="M59.6283 62.7646C60.5683 63.3031 61.3916 65.0995 61.2899 66.8485C61.1882 68.5975 60.1653 70.2824 59.034 70.7268C58.2026 71.0186 57.3076 71.0793 56.4445 70.9023C55.9556 70.7125 55.5677 70.6598 55.7711 69.9231C56.101 68.3903 55.9466 68.4958 57.0237 68.1154C58.3727 67.6424 58.8118 67.5791 58.2748 66.3077C57.8756 65.3662 57.734 65.217 57.0026 65.0551C56.504 64.9451 55.994 65.2487 54.8077 65.3639C54.52 63.517 56.2961 62.1635 57.0433 62.3277C57.8236 62.504 58.5211 62.1289 59.6283 62.7646Z" fill="#FFF59E"/>
<path id="Vector_24" d="M56.8863 52.8332C56.9616 53.3604 57.0588 57.6681 57.0369 58.0349C53.704 58.291 55.9689 58.3023 46.9898 58.5855C46.5687 58.5991 40.4986 59.2333 39.6836 59.2634C22.4395 59.8426 24.6984 60.2155 23.8216 60.0264C23.7598 55.8513 23.5693 54.5279 25.1563 54.4481C27.1403 54.3449 27.5161 54.0835 29.1612 54.1317C30.886 54.183 31.7334 53.7807 33.5471 53.7461C39.1963 53.6391 46.1899 53.194 50.1126 53.0388C52.3656 52.8568 54.6264 52.7882 56.8863 52.8332ZM30.3543 57.5822C30.5008 57.3297 30.568 57.0391 30.5473 56.7479C30.5267 56.4567 30.419 56.1785 30.2383 55.9492C30.0894 55.7907 29.9326 55.6398 29.7683 55.4973C29.4148 55.2355 28.9815 55.1041 28.5421 55.1255C28.1027 55.1469 27.6843 55.3198 27.358 55.6148C26.9866 55.9225 26.7502 56.3631 26.6989 56.8426C26.4127 57.7577 27.5493 58.8009 28.2437 58.7949C28.6789 58.8445 29.1185 58.7535 29.4983 58.5353C29.878 58.3171 30.178 57.9831 30.3543 57.5822Z" fill="#FFFBD4"/>
<path id="Vector_25" d="M17.4165 123.258C15.4076 123.409 13.4176 121.471 11.9519 119.899C10.6322 118.483 11.4502 109.562 11.0186 97.5567C10.996 96.93 10.926 72.5989 10.8974 70.7023C10.7942 63.8028 10.4168 63.1596 10.6624 56.0741C10.8567 50.4777 10.0214 49.042 12.3044 47.571C13.5781 46.7508 16.3145 46.6785 16.85 46.7801C14.3238 49.0398 14.4465 49.1995 14.4345 57.9511C14.4028 80.2463 14.9256 104.168 14.9286 104.65C15.016 118.742 14.1603 120.138 17.4165 123.258Z" fill="#C5CDF3"/>
<path id="Vector_26" d="M134.587 6.49046C134.587 5.52333 133.683 4.28353 131.601 4.68952C131.091 4.88047 130.663 5.24014 130.386 5.70868C130.109 6.17722 130.001 6.72637 130.08 7.26477C130.187 7.65661 130.36 8.02713 130.592 8.35994C130.855 8.6071 131.169 8.79298 131.512 8.90421C131.855 9.01545 132.219 9.04927 132.576 9.00324C132.934 8.95722 133.277 8.83249 133.581 8.63803C133.885 8.44358 134.141 8.18423 134.333 7.87864C134.567 7.50881 134.584 7.31146 134.587 6.49046Z" fill="#FFFBD4"/>
<path id="Vector_27" d="M135.754 15.8715C135.754 15.2297 135.66 13.9086 135.535 12.7878C135.496 11.6579 135.276 10.5415 134.884 9.4812C134.874 9.46025 134.86 9.44168 134.842 9.42684C134.825 9.412 134.804 9.40125 134.782 9.39535C134.759 9.38945 134.736 9.38854 134.713 9.39271C134.69 9.39687 134.669 9.406 134.65 9.41944C133.392 10.2939 131.854 10.6698 130.335 10.4739C130.313 10.4715 130.291 10.4737 130.27 10.4803C130.249 10.487 130.23 10.4979 130.214 10.5125C130.197 10.527 130.184 10.5449 130.175 10.5648C130.166 10.5848 130.161 10.6064 130.161 10.6283C130.104 12.1535 130.127 13.6806 130.23 15.2034C130.282 15.5544 130.23 15.8956 130.502 15.9204C130.843 15.9521 131.596 15.9762 132.665 15.9754C135.265 15.9717 135.754 16.215 135.754 15.8715Z" fill="#FFF59E"/>
<path id="Vector_28" d="M87.1612 18.6042C87.589 18.3187 91.4131 15.7254 83.1985 21.4446C83.8177 21.904 87.7404 24.8077 88.4612 25.1549C88.4929 24.6811 88.6631 18.376 88.5102 17.6853L87.1612 18.6042ZM70.8164 61.359C71.1994 61.2858 71.5959 61.3672 71.9191 61.5854C72.2423 61.8036 72.466 62.1408 72.5413 62.5235C73.8217 66.5743 74.6503 71.788 75.2754 73.7592C77.3521 80.2813 77.4839 82.4656 79.1003 88.9809C79.7895 91.7611 78.8863 91.5072 76.2139 92.4894C75.5899 92.732 74.9493 92.9296 74.297 93.0807C72.1315 93.5394 68.5628 95.1596 61.5895 97.1714C51.8587 99.9787 49.294 101.624 48.4466 99.3429C46.3775 93.7857 41.0101 70.3584 41.0229 70.0489C41.0452 69.6674 41.2012 69.3061 41.4636 69.0283C41.849 68.6682 42.3336 68.4321 42.8547 68.3504C48.7765 66.7746 49.5945 66.2067 51.7359 65.9401C56.1377 65.3887 52.1344 64.0103 56.4111 61.8727C56.6303 61.1428 56.6303 61.1428 57.1967 60.8031C57.2501 60.2004 57.1909 59.593 57.022 59.012C42.7229 59.7449 41.9863 60.3316 28.1889 60.6736C25.6596 60.7368 27.7701 60.6879 23.8353 60.9455C23.5792 63.1035 24.4966 109.177 24.4966 109.187C24.4966 109.502 24.6382 110.402 24.8981 110.534C25.1042 110.675 25.3373 110.77 25.5825 110.816C25.8277 110.861 26.0797 110.855 26.3224 110.798C29.0716 110.688 30.3031 110.417 31.2447 110.401C38.5644 110.278 47.6648 109.43 54.9868 108.64C58.3318 108.279 69.6308 107.86 71.3534 107.603C74.706 107.104 88.6382 106.159 88.6608 106.159C92.4661 105.685 84.1415 106.37 104.274 104.888C105.761 104.779 104.762 100.608 105.758 78.335C105.85 76.2682 105.515 77.3686 105.521 70.6627C105.521 68.6999 105.632 69.3258 105.521 66.8628C105.413 65.4535 105.405 64.0385 105.497 62.6282C105.497 61.6648 105.384 62.1009 105.439 59.3954C105.534 58.6324 105.514 57.8596 105.379 57.1026C95.7079 57.5251 71.0167 58.0584 62.0693 58.6602C60.1712 58.7875 60.0416 58.9487 58.7627 58.9472C58.6443 58.9576 58.5269 58.9775 58.4117 59.0067C58.3817 59.6572 58.3952 60.3089 58.4523 60.9575C59.0594 61.0886 58.9796 61.6354 59.1453 62.0572C59.9417 62.2666 60.6304 62.7674 61.075 63.4605L70.8164 61.359ZM145.2 137.343C145.514 141.378 145.404 141.729 143.854 142.285C139.351 143.9 137.226 144.771 133.997 145.839C132.942 146.188 131.19 146.608 131.171 146.62C130.388 146.953 129.505 146.962 128.715 146.646C128.233 146.442 123.066 144.936 120.821 144.071C120.801 144.062 113.102 141.1 112.225 140.606C111.472 140.179 111.995 139.772 111.773 137.224C111.773 136.832 111.817 136.441 111.904 136.059C111.904 135.168 112.682 135.479 113.021 134.752C113.934 132.653 114.969 130.608 116.12 128.629C116.373 127.911 116.785 127.261 117.325 126.725C117.622 126.408 117.922 126.575 117.94 125.72C118.335 106.493 119.978 68.446 119.98 68.4264C120.342 63.9342 120.447 64.2777 120.629 59.8752C121.182 46.4446 120.898 49.3128 121.106 47.3341C121.622 42.4043 120.934 43.962 120.847 42.8306C120.732 41.9925 120.556 41.164 120.319 40.3518C119.674 37.5205 119.928 37.8956 119.409 36.9661C115.963 30.8025 115.232 29.3707 115.162 29.1326C115.011 28.6152 114.635 28.9135 114.6 28.3629C114.52 26.9792 114.553 27.3837 114.52 27.0417C111.445 26.6907 100.996 26.5145 98.1453 26.5258C93.9628 26.7622 89.7694 26.7313 85.5907 26.4331C83.3258 26.2772 79.2524 26.922 76.9491 26.5032C75.8946 26.3119 75.8562 26.7841 69.1834 26.3578C67.1784 26.2297 66.0681 26.6824 64.2559 26.5017C64.1642 26.4995 64.0724 26.5053 63.9817 26.519C63.8823 27.0259 63.9651 29.2697 63.2285 30.6044C62.8037 31.3765 62.2252 31.0277 62.2862 31.7885C62.3114 32.4713 62.2672 33.155 62.1544 33.8289C62.1023 34.2214 61.9407 34.5913 61.6882 34.8963C61.2225 35.2505 60.6442 35.424 60.0605 35.3843C59.576 35.3852 59.0922 35.4204 58.6128 35.4898C58.3394 35.8664 58.4184 36.2769 58.3815 38.7964C58.31 43.6238 58.2881 41.8748 58.429 44.0117C59.9227 44.0505 61.4173 43.9871 62.9023 43.8219C81.8834 43.6283 92.1151 42.0895 100.776 42.2243C101.348 42.2326 107.164 41.9682 107.906 41.8733C109.017 41.7045 110.153 41.8903 111.153 42.4041C112.153 42.9179 112.965 43.7337 113.475 44.7355C114.055 45.9075 113.959 49.2548 114.108 57.7767C114.169 61.2588 114.382 72.298 114.382 73.8421C114.382 75.9925 114.116 108.482 114.108 108.711C113.855 116.583 114.446 116.079 101.171 116.921C101.132 116.921 74.9817 119.081 74.9063 119.088C74.7123 121.34 74.6537 123.602 74.7309 125.861C75.8396 126.026 73.2169 125.84 97.8448 123.316C98.6673 123.231 101.221 123.148 102.548 122.987C102.639 122.976 111.163 121.33 113.785 121.287C114.619 121.274 114.388 122.056 113.884 122.199C113.183 122.398 114.347 122.082 109.9 122.708C100.797 123.989 106.401 123.708 98.946 124.29C95.1325 124.586 87.0964 125.587 85.2631 125.693C81.9708 125.886 82.6961 125.864 75.5797 127.009C75.3417 127.048 75.0803 126.96 74.8521 127.139C74.764 128.977 84.8285 134.219 86.7808 135.296C88.4311 136.205 88.6089 136.331 88.6194 136.817C88.6518 138.308 88.8793 139.895 87.9912 140.225C86.0329 140.955 64.002 145.987 63.9847 145.987C63.0559 146.26 62.0988 146.426 61.1323 146.481C60.9387 146.532 60.6864 146.467 58.7762 145.307C58.4893 145.133 58.249 144.885 57.9778 144.701C52.7053 141.118 56.8397 143.982 52.9117 141.134C47.1066 136.927 44.4086 135.127 44.2286 133.491C43.8964 130.486 44.035 131.128 43.9273 130.821C43.8271 130.821 37.4497 131.512 37.4361 131.523C36.7349 131.618 34.9806 131.971 33.7702 132.147C31.3893 132.495 32.0521 132.012 25.0939 133.183C23.5027 133.473 21.8978 133.682 20.2854 133.81C19.4892 133.863 18.0679 134.173 16.8695 134.293C14.4223 134.536 15.9039 134.026 7.35792 135.073C6.49699 135.179 5.11785 135.439 5.32424 134.603C5.37319 134.405 5.49974 134.344 5.75056 134.322C8.13524 134.117 6.85552 134.096 11.1519 133.65C15.8128 133.168 16.2195 133.492 19.1058 132.914C19.7634 132.782 21.6999 132.655 22.7092 132.521C24.8642 132.234 28.6995 131.511 30.2677 131.439C34.9061 131.225 31.5241 131.037 43.9507 129.758C44.1013 127.875 43.9507 123.776 43.8754 121.892C43.4596 121.829 37.7359 122.439 36.8704 122.462C34.1317 122.537 20.601 125.023 15.9777 124.108C14.5391 123.824 12.4903 121.974 11.4901 121.024C10.2977 119.894 10.2751 118.077 10.1637 116.409C10.1358 115.985 9.61531 53.5805 9.71172 51.18C9.77348 49.6314 9.93166 48.0919 11.1805 47.1699C13.3836 45.5513 14.8012 45.8443 22.5541 45.5354C56.8096 44.1706 55.435 44.6429 56.8774 44.2859C57 41.4796 56.9701 38.6687 56.7877 35.8656C56.7365 35.315 56.6853 35.5357 54.8339 35.3384C54.4272 35.2893 54.0453 35.117 53.7395 34.8444C53.4337 34.5719 53.2187 34.2123 53.1233 33.8139C52.9478 32.9032 52.8657 32.1508 52.8025 31.6506C52.1005 31.3245 51.7261 31.3102 51.4512 30.4824C51.0656 29.1922 50.8735 27.852 50.881 26.5054C50.7409 26.4391 42.8698 26.586 41.2489 26.5423C39.8773 26.5054 39.8976 26.1394 39.8125 25.9669C39.6822 25.7055 39.7018 25.42 40.0279 25.048C42.3727 22.2784 44.9369 19.7023 47.6957 17.3448C48.6425 16.4831 48.6357 16.5622 48.7133 16.0997C48.8134 15.4972 49.0145 15.0309 49.6254 14.9292C49.645 14.9292 123.591 5.53589 131.337 3.86375C132.115 3.63723 132.949 3.701 133.684 4.04322C134.418 4.38543 135.004 4.98279 135.331 5.72419C135.453 6.60234 135.512 7.48817 135.506 8.37476C135.595 9.32984 136.197 10.059 136.427 12.6003C136.523 13.6661 136.78 16.0832 136.728 16.2511C136.56 16.8236 136.814 27.3234 136.339 28.2273C136.052 28.6114 136.121 28.3357 136.199 35.5403C136.184 35.6835 136.226 35.8268 136.315 35.9402C136.626 36.4494 136.357 37.3999 136.644 41.3943C136.709 42.2981 136.281 42.0134 136.293 42.5994C136.369 46.3783 136.53 46.5395 136.469 47.6136C136.464 47.6889 139.783 125.173 140.09 127.324C140.933 127.918 141.845 131.487 143.873 135.792C144.111 136.296 144.282 136.273 144.4 136.286C144.919 136.352 145.165 136.94 145.196 137.346L145.2 137.343ZM144.371 140.501C144.412 139.584 144.406 138.666 144.351 137.75C144.254 137.061 144.47 137.223 137.807 139.366C129.95 141.895 131.291 141.12 130.397 141.787C130.644 144.473 129.953 146.045 130.848 145.774C133.622 144.935 141.469 142.296 144.017 140.999C144.123 140.963 144.214 140.894 144.278 140.802C144.342 140.711 144.375 140.601 144.373 140.49L144.371 140.501ZM130.587 140.592C143.467 136.317 143.166 136.943 143.015 136.294C142.276 134.664 142.105 133.473 141.071 131.263C140.631 130.32 140.194 128.541 139.608 128.025C137.564 128.844 135.472 129.543 133.345 130.116C131.178 130.734 130.955 130.626 130.919 131.107C130.283 139.872 130.666 140.337 130.589 140.594L130.587 140.592ZM138.863 125.474C138.939 125.248 138.284 111.898 137.986 111.835C137.935 111.935 137.89 112.038 137.85 112.142C135.55 119.195 135.178 118.902 135.515 119.434C136.089 120.348 137.381 123.943 138.866 125.465L138.863 125.474ZM138.674 127.023C136.715 123.98 137.682 126.13 134.955 120.329C134.341 121.353 134.822 121.139 132.174 127.522C131.827 128.36 131.572 129.179 131.421 129.627C133.925 129.046 136.378 128.265 138.757 127.292C138.736 127.201 138.709 127.112 138.676 127.025L138.674 127.023ZM134.749 102.393C138.642 110.057 137.853 110.048 137.507 102.063C137.396 99.5019 137.49 94.7483 137.005 96.0054C134.502 102.519 134.551 102.002 134.75 102.396L134.749 102.393ZM137.381 110.817C136.986 110.715 135.069 111.438 131.444 112.248C130.871 112.376 131.177 112.447 132.432 114.312C133.275 115.573 134.044 116.881 134.737 118.229C135.097 117.666 137.192 111.522 137.386 110.82L137.381 110.817ZM137.053 109.728C137.165 109.694 137.288 109.684 137.322 109.506C137.322 109.487 134.481 103.773 134.176 103.336C131.773 109.599 133.607 105.342 131.185 111.124C131.012 111.545 130.29 111.742 137.055 109.731L137.053 109.728ZM134.706 87.0557C138.48 95.0187 136.571 92.9398 136.571 80.148C136.22 80.1005 135.893 82.2344 134.343 85.956C134.156 86.4147 134.433 86.4795 134.708 87.0602L134.706 87.0557ZM134.084 100.931C134.573 100.01 136.8 94.4967 136.644 94.3175C136.448 94.2874 135.063 94.7943 133.618 95.2123C132.906 95.4179 131.404 95.6454 130.987 96.0017C133.966 99.3542 133.394 100.178 134.084 100.931ZM134.04 72.7424C136.781 75.8742 136.8 80.7747 136.375 70.9437C136.284 68.8565 136.495 67.1023 136.131 66.3536C135.708 67.4216 135.338 68.6629 134.761 70.2123C134.077 72.0441 133.556 72.188 134.04 72.7409V72.7424ZM133.174 94.3213C136.973 93.1334 136.38 93.3225 136.639 93.1297C135.601 91.267 134.934 89.2702 133.822 87.3532C133.441 88.0217 133.113 88.7197 132.843 89.4404C132.369 90.5372 131.985 91.6708 131.695 92.8299C130.9 95.1528 130.179 95.256 133.174 94.3197V94.3213ZM134.775 61.0909C136.733 64.585 135.988 63.8514 135.726 56.8962C135.616 54.0106 135.927 53.8502 133.943 59.1348C133.831 59.4285 133.828 59.4037 134.775 61.0894V61.0909ZM132.976 42.3764C136.237 41.1028 135.834 41.6232 135.783 40.052C135.744 38.922 135.701 37.7922 135.652 36.6625C135.598 36.6746 130.439 38.3113 130.421 38.3196C130.457 39.9494 130.574 41.5764 130.772 43.1944C131.03 43.1643 130.583 43.3097 132.976 42.3749V42.3764ZM135.752 18.8362C135.789 18.6281 135.774 18.4142 135.708 18.2133C134.78 19.1435 134.366 20.3765 133.561 21.3587C136.058 25.1888 135.545 26.6817 135.752 18.8347V18.8362ZM135.64 27.8266C135.777 27.249 135.816 26.6522 135.753 26.0618L130.406 26.7638C130.327 27.3532 130.306 27.9487 130.342 28.5421C132.12 28.4012 133.889 28.1618 135.64 27.8251V27.8266ZM135.985 78.8592C135.508 78.8961 135.91 78.7606 134.436 79.3714C130.954 80.8131 130.891 80.6956 131.157 81.0978C132.607 83.2821 133.087 84.5829 133.664 85.2676C134.19 84.1943 134.675 82.4769 135.985 78.8615V78.8592ZM135.583 16.0576C135.63 16.0576 135.674 16.0391 135.707 16.0062C135.74 15.9733 135.759 15.9286 135.759 15.8821C135.759 15.2403 135.665 13.9192 135.54 12.7984C135.501 11.6685 135.281 10.552 134.889 9.49178C134.879 9.47073 134.865 9.45207 134.847 9.43715C134.83 9.42223 134.809 9.41142 134.787 9.40551C134.764 9.3996 134.741 9.39873 134.718 9.40297C134.695 9.40721 134.674 9.41645 134.655 9.43002C133.397 10.3045 131.859 10.6803 130.34 10.4845C130.318 10.4822 130.296 10.4845 130.275 10.4912C130.255 10.4978 130.235 10.5088 130.219 10.5233C130.203 10.5379 130.189 10.5556 130.18 10.5755C130.171 10.5955 130.166 10.617 130.166 10.6389C130.109 12.1641 130.132 13.6912 130.235 15.214C130.287 15.565 130.235 15.9069 130.507 15.9318C130.848 15.9627 131.601 15.9905 132.67 15.986C133.913 15.9807 134.775 16.0561 135.578 16.0508L135.583 16.0576ZM135.522 50.0276C135.46 49.0155 135.467 48.0003 135.543 46.9891C135.317 43.8723 135.369 44.1006 134.771 45.5189C134.106 47.1006 133.34 48.409 133.717 49.01C134.266 49.9735 134.867 50.9071 135.515 51.8067C135.607 51.2171 135.609 50.6171 135.522 50.0269V50.0276ZM134.566 68.2155C134.878 67.0277 135.506 65.812 135.469 65.0791C134.023 65.6282 134.347 65.742 130.607 67.2122C132.408 69.6979 132.528 70.5347 133.191 71.3979C133.787 70.8895 134.566 68.138 134.566 68.2148V68.2155ZM135.253 35.8144C135.621 35.6841 135.503 35.6917 135.378 28.5836L130.512 29.3307C130.219 30.2346 130.361 30.4937 130.389 32.1109C130.427 34.4037 130.343 36.7123 130.464 37.3314C132.085 36.906 133.683 36.3994 135.253 35.8137V35.8144ZM135.277 77.9945C135.505 77.9324 135.709 77.8008 135.86 77.6179C133.945 74.0025 134.093 74.364 133.405 73.3397C131.597 77.0794 131.859 77.8868 130.901 79.5966C130.574 80.1766 131.598 79.3646 135.277 77.9908L135.277 77.9945ZM134.163 18.6562C134.595 18.1157 134.991 17.5479 135.35 16.9562C133.875 16.7854 132.387 16.7473 130.906 16.8424C133.782 20.8119 132.402 21.431 134.163 18.6524V18.6562ZM132.915 47.3989C133.029 47.2904 134.893 43.373 134.845 42.7207C130.491 44.2467 131.252 43.9665 130.884 44.145C130.87 44.5555 132.774 47.2264 132.915 47.3951V47.3989ZM134.798 25.2611L132.997 22.2415C132.116 23.331 131.364 24.5189 130.757 25.7816C133.018 25.643 131.34 25.7869 134.799 25.2573L134.798 25.2611ZM134.087 55.9125C134.505 55.1119 134.841 54.2707 135.09 53.402C134.623 53.5465 134.172 53.7399 133.746 53.979C130.722 55.3491 131.227 55.0636 131.035 55.2723L133.219 58.3876C133.545 57.782 133.702 56.8676 134.087 55.9087L134.087 55.9125ZM134.689 52.4869C134.725 52.4582 134.759 52.4276 134.791 52.395C133.195 49.9041 133.113 49.6081 132.919 50.0427C132.472 51.052 132.241 51.693 131.751 52.9124C131.374 53.8509 131.073 54.1394 131.767 53.8427C132.753 53.4141 133.68 52.8597 134.687 52.4831L134.689 52.4869ZM134.589 6.49398C134.589 5.52685 133.685 4.28706 131.603 4.69304C131.094 4.88346 130.665 5.24238 130.388 5.71016C130.111 6.17794 130.002 6.72644 130.08 7.26452C130.187 7.65637 130.36 8.02688 130.592 8.3597C130.855 8.60673 131.169 8.79249 131.512 8.90365C131.855 9.01481 132.219 9.04859 132.576 9.00257C132.934 8.95655 133.277 8.83187 133.581 8.6375C133.884 8.44312 134.141 8.18387 134.333 7.87839C134.567 7.50706 134.584 7.31122 134.587 6.49021L134.589 6.49398ZM132.96 123.075C134.316 119.316 134.429 119.398 134.113 119.025C134.097 119.006 131.755 114.45 131.062 113.842C130.784 113.906 131.044 113.269 131.27 122.709C131.398 128.096 131.322 127.099 132.027 125.665C132.431 124.838 132.744 123.97 132.96 123.075ZM135.371 64.042C134.795 62.8396 134.137 61.6779 133.403 60.5651C132.444 62.3037 131.595 64.1001 130.859 65.9438C130.696 66.4538 133.898 64.5504 135.368 64.0412L135.371 64.042ZM133.532 102.5C133.711 102.035 133.516 102.055 132.715 100.077C132.248 98.9376 131.566 97.8979 130.708 97.0147C130.422 97.1112 130.748 109.012 130.929 109.435C131.48 108.629 131.833 106.92 133.529 102.5L133.532 102.5ZM132.648 59.9234C132.964 59.314 132.746 59.256 130.94 56.6145C130.563 56.0624 130.728 58.7988 130.627 60.7512C130.334 66.3679 130.231 64.5858 132.645 59.9226L132.648 59.9234ZM132.422 49.1802C132.598 48.7652 132.548 48.4526 131.334 46.5877C130.327 45.0391 130.462 45.4676 130.54 46.0333C130.555 46.147 130.505 50.9157 130.684 53.4028C131.035 52.9509 131.305 51.7984 132.419 49.1795L132.422 49.1802ZM131.114 91.6662C133.321 84.8601 133.851 87.6304 132.319 84.7961C130.732 81.8585 131.242 82.6871 130.565 81.5829C130.409 81.8088 130.467 80.8116 130.543 92.918C130.543 92.9677 130.587 93.0167 130.608 93.0641C130.916 93.0054 130.793 92.6544 131.114 91.6662ZM131.566 75.3831C133.123 70.8691 133.209 74.0499 131.239 69.6677C131.064 69.2768 130.818 68.9145 130.604 68.5379L130.506 68.5575C130.49 68.6549 130.48 68.7533 130.476 68.852C130.211 80.618 130.282 79.0965 131.563 75.3861L131.566 75.3831ZM132.46 21.3022C130.555 17.741 131.19 18.4249 130.755 18.0724C130.58 19.6195 130.558 23.9475 130.61 24.1531C130.916 24.2676 130.516 23.7675 132.457 21.3082L132.46 21.3022ZM130.29 129.279C130.439 127.334 130.436 125.38 130.28 123.435C130.28 123.418 130.244 113.933 129.871 113.261C128.101 115.324 126.46 117.495 124.958 119.761C126.958 123.441 128.108 126.35 130.287 129.285L130.29 129.279ZM129.844 53.5293C129.906 53.0292 129.655 49.1433 129.657 48.4828C129.661 47.5789 129.876 45.0602 129.529 44.7476C128.474 46.0333 127.301 47.1895 126.354 48.5822C127.144 49.8722 127.998 51.1212 128.915 52.3242C129.578 53.2958 129.553 53.5911 129.841 53.5353L129.844 53.5293ZM129.884 43.3737C129.808 41.792 129.763 42.0036 129.708 41.0161C129.569 38.5215 129.801 38.4341 129.106 38.3965C128.53 38.3656 123.613 38.1562 123.527 38.1366C122.606 37.9613 121.664 37.9205 120.731 38.0153C120.92 39.5767 121.466 41.0282 121.715 42.5489C121.744 42.6544 121.787 42.7556 121.842 42.8502C122.424 43.0084 129.279 43.4709 129.881 43.3797L129.884 43.3737ZM129.512 65.2283C129.642 64.588 129.863 56.7094 129.779 56.1746C128.431 57.4187 127.179 58.7633 126.035 60.1968C126.252 60.654 129.119 65.0776 129.512 65.2283ZM129.468 109.496C130.111 110.613 129.85 109.833 129.643 97.2023C129.629 97.06 129.605 96.9189 129.572 96.7797C128.05 98.6161 126.679 100.451 125.286 102.313C125.787 103.099 128.911 108.528 129.468 109.496V109.496ZM129.441 140.463C129.577 134.218 129.777 137.53 129.931 130.987C127.502 130.234 125.611 129.863 123.067 128.935C117.139 126.772 118.341 125.997 115.418 131.88C115.31 132.097 113.987 134.734 113.796 135.362C113.811 135.374 128.533 140.79 129.441 140.462V140.463ZM129.424 93.6381C129.704 94.0411 129.628 94.4516 129.484 81.4864C128.607 82.2879 126.119 86.0472 125.449 87.0452C127.472 90.4881 127.314 90.5876 129.424 93.6373V93.6381ZM129.303 25.2174C129.516 22.5736 129.592 19.9204 129.529 17.2687C126.68 19.441 124.587 20.4812 123.589 21.2231C124.094 21.6517 129.303 25.399 129.303 25.2167V25.2174ZM129.512 78.5745C129.676 78.3689 129.57 68.4596 129.46 67.8261C128.124 69.7016 127.896 69.8364 127.338 70.6062C126.959 71.2102 126.536 71.7866 126.075 72.3311C125.872 72.5413 125.884 72.6264 126.028 72.8764C126.039 72.8945 129.182 78.1663 129.512 78.5738V78.5745ZM129.512 142.111C129.526 141.469 129.437 141.666 127.583 141.086C112.578 136.403 113.098 135.56 112.765 136.274C112.509 136.823 112.666 136.959 112.682 137.34C112.796 139.913 112.655 139.892 113.258 140.109C114.826 140.673 123.941 144.373 129.301 145.798C129.492 145.661 129.429 145.838 129.512 142.11V142.111ZM129.512 37.5551C129.512 31.4043 129.626 31.3787 129.39 29.5002C128.688 29.1989 121.081 29.1989 118.146 29.0242C116.83 28.9451 116.525 28.9014 116.14 29.0799C116.391 29.6528 116.678 30.2094 116.999 30.7468C120.454 37.0505 120.177 37.1024 121.081 37.1062C121.102 37.1017 126.655 37.3171 129.512 37.5544V37.5551ZM129.356 27.7347C129.366 27.5155 129.473 26.9543 129.338 26.7819C128.447 26.7525 117.588 26.8278 115.448 26.8504C115.373 27.1788 115.222 28.2717 115.799 28.2717C115.826 28.2717 127.284 28.6626 129.206 28.6626C129.449 28.4156 129.313 27.6074 129.356 27.7339V27.7347ZM129.18 15.8708C129.219 15.869 129.255 15.8524 129.282 15.8243C129.309 15.7963 129.324 15.7589 129.324 15.7201C129.46 7.30293 128.956 6.35689 129.891 5.1284C124.6 5.99535 51.3345 15.3059 50.0208 15.5032C49.8243 15.5333 49.526 15.5145 49.4047 15.8542C49.3294 16.0651 49.1674 16.5479 49.4733 16.5562C49.5034 16.5562 52.3761 16.6895 59.9302 16.34C61.9006 16.2489 63.7226 16.34 64.4208 16.34C67.5934 16.334 66.514 16.2376 77.1637 16.2873C88.0281 16.3393 86.7138 16.0756 89.7733 16.0982C126.249 16.3626 129.109 15.7841 129.18 15.87V15.8708ZM128.913 55.6406C129.331 55.2331 129.151 55.3747 122.423 54.7827C121.465 54.6983 123.703 56.43 125.055 58.8176C125.166 58.9861 125.291 59.146 125.426 59.2959C126.072 58.8854 127.38 57.1365 128.913 55.6406ZM122.046 53.8163C129.703 54.4754 128.565 54.4 129.098 54.3684C128.441 53.1714 127.672 52.0387 126.804 50.985C126.391 50.4675 126.126 49.8423 125.633 49.3279C124.177 50.985 124.057 50.8396 123.425 51.8572C122.702 53.0262 122.383 53.1843 122.046 53.8163ZM129.375 129.669C128.426 128.308 127.574 126.882 126.825 125.401C126.416 124.662 124.741 121.152 124.268 120.489C123.917 120.874 119.873 125.983 119.708 126.531C119.988 126.707 119.461 126.496 122.153 127.408C122.34 127.471 123.451 127.968 124.082 128.206C125.815 128.803 127.582 129.291 129.375 129.669ZM128.848 79.391C128.814 79.28 128.772 79.1715 128.723 79.0664C125.04 72.9141 125.495 73.6846 125.205 73.4315C123.758 75.2122 122.512 77.0982 120.98 78.756C121.055 78.921 120.908 78.8186 121.713 78.9135C123.585 79.1341 122.152 79.0859 124.213 79.2645C124.228 79.266 128.416 79.4543 128.847 79.3887L128.848 79.391ZM126.43 99.2684C128.684 96.4137 128.832 96.3632 128.943 95.9248C128.257 95.7742 130.332 96.1403 120.953 95.1174C120.985 95.1777 124.363 100.859 124.78 101.389C125.373 100.691 125.696 100.199 126.429 99.2684H126.43ZM127.183 82.8151C128.367 81.3222 128.718 81.0157 128.901 80.6752C128.441 80.3649 125.724 80.5592 122.599 80.1118C121.634 79.974 121.319 79.6245 121.137 79.9612C122.409 81.9685 124.713 85.8574 124.912 86.0276C125.428 85.5606 126.835 83.2535 127.183 82.8151H127.183ZM128.58 16.7716C128.297 16.5856 128.525 16.865 125.04 16.81C123.864 16.792 122.022 17.0089 120.813 16.8733C119.565 16.7332 119.15 17.0797 118.036 16.9208C117.738 16.8422 117.422 16.8688 117.141 16.9961C119.1 18.1726 120.877 19.4621 122.784 20.5678C124.25 19.5472 126.322 18.5085 128.579 16.7716H128.58ZM124.818 118.346C128.961 112.754 128.446 113.747 129.338 112.39C126.98 111.99 127.408 112.164 120.468 110.937C119.658 110.794 120.185 110.974 123.363 116.761C124.506 118.857 124.356 118.968 124.817 118.346H124.818ZM125.766 47.7092C128.89 44.1729 128.214 44.9713 128.676 44.3024C127.888 44.2309 127.471 44.2474 126.718 44.1819C125.448 43.9844 124.161 43.915 122.876 43.9748C123.761 45.2784 124.725 46.5257 125.765 47.7092H125.766ZM129.016 94.7596C128.757 94.2196 127.461 92.2567 127.341 92.0759C126.142 90.2637 125.759 89.1482 124.855 87.9513C124.143 88.8505 123.489 89.7939 122.897 90.7759C122.144 92.0202 121.39 92.6634 120.453 94.0373C121.741 94.2339 127.717 94.7596 129.015 94.7596H129.016ZM123.352 26.0535C126.572 25.9029 128.687 26.2237 128.123 25.7725C127.521 25.292 122.648 21.898 122.631 21.8852C121.539 22.5872 121.61 22.652 116.726 25.7304C116.752 25.8622 116.682 25.881 117.121 25.8938C117.138 25.8938 119.05 25.9774 119.47 25.945C120.764 25.9056 122.06 25.9418 123.351 26.0535H123.352ZM127.379 65.7133C128.111 65.7412 127.68 65.8956 128.632 65.7058C128.295 65.1394 125.55 61.1202 125.379 60.9063C124.713 61.594 121.959 64.6325 121.789 65.1484C123.625 65.5448 125.5 65.7343 127.378 65.7133H127.379ZM129.492 111.35C129.479 111.33 124.822 103.291 124.808 103.273C124.329 103.449 122.878 106.08 119.871 109.608C119.828 109.683 119.794 109.763 119.772 109.847C120.904 110.286 128.197 111.234 129.491 111.35H129.492ZM125.486 71.5726C125.643 71.3971 127.74 68.6901 128.94 66.9027C126.945 66.4696 123.738 66.8168 122.186 66.1645C121.997 66.1226 121.803 66.1071 121.61 66.1186C121.709 66.2941 121.754 66.3943 121.817 66.4839C125.454 71.5869 125.109 71.541 125.486 71.5726ZM124.517 72.8056C124.759 72.4915 124.689 72.2633 124.469 71.9334C121.259 67.1128 121.44 67.2537 121.1 67.0548C120.819 67.7764 120.412 77.3294 120.648 77.8258C121.067 77.3792 122.617 75.2747 124.519 72.8056H124.517ZM121.388 64.0276C125.66 59.2364 124.899 60.3806 124.353 59.2929C123.659 58.1279 122.851 57.0342 121.942 56.0277C121.864 55.9567 121.775 55.8978 121.68 55.853C121.529 58.188 121.599 60.477 121.374 62.7517C121.333 63.1763 121.338 63.604 121.388 64.0276ZM122.785 51.2185C123.42 50.2084 124.634 49.3309 125.104 48.4715C125.089 48.4541 122.37 44.7122 122.166 44.5751C121.991 48.7087 121.873 45.8435 121.873 52.4959C122.09 52.2865 121.97 52.5132 122.785 51.2185ZM123.948 87.519C124.381 86.884 124.378 87.0437 123.891 86.2295C121.768 82.678 121.148 81.4089 120.383 80.5901C120.208 81.3931 119.965 92.3975 119.965 92.4277C119.957 92.5128 119.977 92.5983 120.022 92.671C120.067 92.7438 120.135 92.7998 120.215 92.8306C121.362 91.1201 119.137 94.5728 123.948 87.5182V87.519ZM123.784 119.595C123.264 118.414 122.664 117.27 121.99 116.169C119.438 111.607 119.639 111.859 119.297 111.641C119.065 114.338 118.783 125.419 118.915 125.909C119.008 125.787 118.495 126.455 123.784 119.595V119.595ZM119.478 108.575C120.105 108.205 123.751 102.94 124.186 102.292C120.678 96.3519 120.248 95.5626 119.849 95.3185C119.813 95.7757 119.379 107.893 119.478 108.574V108.575ZM121.711 21.2404C121.485 20.9783 121.732 21.1561 120.862 20.5889C116.192 17.5467 117.725 18.3684 116.257 17.6212C116.161 18.1033 116.061 24.4627 116.195 24.938C118.066 23.7133 119.969 22.6203 121.711 21.2404ZM114.689 24.7437C115.426 25.3101 115.101 24.9237 115.101 17.5776C114.703 17.8208 110.389 20.6311 109.956 21.086C109.969 21.0823 112.157 22.7928 114.689 24.7399V24.7437ZM114.531 25.8976C114.266 25.521 115.096 26.2629 109.347 21.8136C109.032 21.5704 109.466 21.2864 104.219 24.9998C104.037 25.1498 103.864 25.3107 103.702 25.4818C104.005 25.5338 114.513 25.8938 114.531 25.8938V25.8976ZM113.778 17.323C113.882 17.2339 113.978 17.1353 114.064 17.0285C107.573 17.3297 107.771 16.853 104.436 17.2424C104.398 17.4179 104.306 17.2424 105.177 17.8352C105.849 18.2939 108.292 19.9329 108.83 20.2914C109.13 20.4872 108.938 20.5309 113.78 17.3192L113.778 17.323ZM113.432 78.2875C113.392 76.046 113.61 75.53 113.5 74.404C113.479 74.178 113.287 58.1827 113.235 56.8615C113.213 56.2725 113.046 54.4369 113.115 53.46C113.218 51.9792 113.003 51.4535 113.032 49.7919C113.101 45.8345 112.978 42.6521 107.729 42.9926C106.26 43.0875 100.761 43.3745 99.9598 43.3104C95.8586 42.979 78.5964 44.7363 67.9271 44.8259C60.6525 44.8869 62.9385 44.9562 60.5244 45.0782C58.728 45.1694 58.5216 44.9472 58.5209 45.4548V47.4509C59.4895 47.5262 62.6297 47.4102 63.6081 47.3371C64.8051 47.1477 66.018 47.0775 67.2288 47.1277C79.635 47.1277 101.714 45.5513 102.741 45.546C103.965 45.5088 105.186 45.3972 106.396 45.2116C109.089 45.1076 110.071 44.9419 110.292 47.2897C111.032 55.1902 110.843 99.2699 110.315 104.201C109.593 110.933 111.904 110.571 106.526 111.336C105.669 111.3 104.811 111.354 103.965 111.495C103.947 111.495 99.3829 112.097 98.9987 112.107C98.285 112.133 97.5751 112.223 96.8777 112.377C94.4674 112.885 97.3635 111.757 78.0073 113.895C74.9817 114.229 67.1437 114.339 48.9332 115.751C42.1098 116.278 36.2295 116.421 31.6717 116.772C31.6439 116.772 24.8649 117.46 23.711 117.396C22.1827 117.312 19.0802 118.237 19.0064 114.609C17.9052 60.8596 18.5447 83.4885 18.5447 57.5545C18.5447 56.1987 18.4385 52.9742 18.5748 52.1848C19.1021 49.12 20.1867 48.9076 24.7143 48.6763C28.8366 48.4654 52.8401 47.7815 56.9467 47.4478C56.912 46.7466 56.9821 46.0747 56.8924 45.3727C50.692 45.7155 39.579 45.8179 24.755 46.4272C20.3697 46.6088 20.6123 46.7662 19.8063 46.7873C18.9881 46.8462 18.202 47.1298 17.5346 47.6068C17.0408 47.8791 16.6157 48.2607 16.292 48.7224C15.9682 49.1842 15.7543 49.7138 15.6666 50.2709C15.3179 51.7412 15.5446 54.6983 15.4701 57.0981C15.4038 59.2575 15.3254 62.1853 15.4595 64.35C16.0259 73.4444 15.4859 87.1552 15.9054 99.4665C16.517 117.407 14.399 119.322 18.7752 122.766C19.2685 123.154 19.7544 123.077 21.01 123.135C23.1257 123.231 18.9416 123.385 31.2447 122.071C59.6206 119.041 64.4291 119.209 69.0621 118.751C74.0183 118.258 82.3542 117.674 82.4784 117.661C95.2552 116.349 106.807 115.507 106.824 115.507C109.053 115.49 108.33 115.371 110.276 115.096C110.758 115.026 111.219 114.85 111.625 114.582C112.032 114.314 112.375 113.961 112.63 113.546C113.39 112.031 113.158 104.206 113.158 103.833C113.152 102.505 113.219 96.7775 113.208 96.3105C112.996 86.8026 113.596 87.418 113.427 78.2785L113.432 78.2875ZM109.853 70.7832C109.964 68.5989 110.039 70.4323 109.915 65.7661C109.552 52.0831 109.695 49.12 109.399 47.0675C109.304 46.4084 107.903 46.1538 107.24 46.2186C105.758 46.4538 104.264 46.601 102.765 46.6592C100.761 46.675 99.7346 46.9349 98.5543 47.0095C87.2214 47.728 60.5787 48.369 58.5262 48.6485C58.5064 49.6644 58.5007 50.6806 58.5088 51.6967C59.3487 51.9325 64.7221 51.3051 67.4555 51.1567C69.4659 51.0475 68.9025 51.232 72.5932 51.0008C78.619 50.6242 79.272 50.8998 81.0142 50.771C89.2242 50.1617 91.7603 49.9222 100.025 49.8446C104.336 49.8047 104.154 49.5779 105.268 49.9568C105.548 50.0793 105.788 50.2772 105.962 50.5284C106.137 50.7797 106.237 51.0744 106.254 51.3796C106.254 51.397 106.626 62.5574 106.445 64.2047C106.252 65.9589 106.642 64.28 106.55 74.1072C106.538 75.3952 106.812 76.0196 106.782 78.0601C106.723 82.0521 106.442 84.2244 106.371 94.5178C106.406 96.5292 106.328 98.5409 106.138 100.544C105.936 105.59 106.791 105.741 103.012 106.022C74.2571 108.155 80.0019 107.954 69.7641 108.748C58.4245 109.627 66.1156 108.616 50.7213 110.116C48.0903 110.373 41.5276 110.924 32.5251 111.374C23.2764 111.837 23.6568 112.841 23.5046 106.989C23.1393 92.9549 22.7461 55.7641 23.122 54.8881C23.6176 53.735 24.4906 53.689 25.6468 53.5052C26.534 53.3425 27.4315 53.2418 28.3327 53.2039C30.1246 53.3696 32.5425 52.7143 33.2445 52.7723C35.5598 52.9644 47.5556 52.0711 47.5714 52.0711C54.9891 51.8956 56.6928 51.7623 56.9158 51.7442C57.0138 50.7093 57.0138 49.6675 56.9158 48.6327C56.7599 48.601 43.8693 49.1064 43.8505 49.1079C41.4816 49.303 41.3732 48.9219 39.4065 49.1637C37.4399 49.4055 25.0306 49.6292 23.0534 49.8039C18.8716 50.1737 19.545 51.1815 19.5367 57.1191C19.5081 76.4158 19.0252 80.0169 19.9291 102.798C20.381 114.101 19.3551 115.783 21.1011 116.183C23.1913 116.662 30.6933 115.618 36.3387 115.354C49.3693 114.738 50.2732 114.567 55.0034 114.175C62.8978 113.521 62.18 114.062 70.1551 113.176C71.3391 113.044 74.9071 113.186 81.2801 112.463C91.5125 111.303 92.1 111.852 102.271 110.553C102.863 110.478 102.961 110.553 106.105 110.239C110.104 109.842 109.099 109.872 109.158 106.73C109.171 106.068 109.285 105.555 109.407 102.801C110.377 80.9464 109.621 70.662 109.856 70.7795L109.853 70.7832ZM105.006 23.2591C107.102 21.602 107.812 21.608 108.169 20.9926C104.075 18.2298 103.599 17.7177 103.245 17.6295C103.189 17.9662 103.372 18.8731 103.433 20.0858C103.479 20.9994 103.178 24.2187 103.349 24.4589C103.507 24.4288 104.988 23.2741 105.006 23.2591ZM105.302 53.2002C105.354 51.6937 105.464 50.89 104.178 50.7899C98.9874 50.3794 82.6735 51.7306 80.3649 51.8158C79.4249 51.8504 75.164 51.6847 73.2094 51.9423C70.5189 52.2963 69.2361 51.9114 66.0064 52.2684C59.8164 52.9524 60.016 52.6194 58.5322 52.8281C58.5322 52.9207 58.3062 56.6627 58.4335 57.959C58.4508 57.959 81.381 56.6032 85.2736 56.7998C86.2599 56.8421 87.2479 56.8169 88.2308 56.7245C99.233 55.7799 100.212 56.6928 105.356 56.1106C105.354 55.2 105.266 54.2758 105.299 53.2002H105.302ZM102.276 24.6781C102.346 23.7803 102.647 18.4084 102.276 17.6612C100.336 18.784 98.4825 20.0512 96.7323 21.4521C97.0396 21.6607 101.469 24.3083 102.109 24.6766C102.136 24.6939 102.184 24.6781 102.276 24.6781ZM100.874 17.3682C100.98 17.2837 101.078 17.1905 101.167 17.0895C101.074 17.0895 90.4927 16.9644 89.982 17.0895C91.0681 18.0385 94.9344 20.3057 95.4865 20.7155C95.9595 21.0665 95.7335 20.619 100.874 17.3682ZM101.42 25.4238C101.021 25.1835 97.4705 23.0241 96.0303 22.1451C95.5784 21.8694 95.8992 22.0313 90.0663 25.5134C90.3571 25.6257 90.0663 25.6264 91.4485 25.5782C93.1417 25.5187 92.9029 25.6377 94.02 25.6166C95.137 25.5955 96.7986 25.4321 97.8004 25.4464C97.7853 25.3711 100.515 25.6844 101.42 25.4238ZM89.5293 24.6849C89.9662 24.5343 94.9992 21.4996 94.7468 21.3384C89.0457 17.7011 89.8856 17.9029 89.4743 17.854C89.3952 19.0825 89.5624 16.3189 89.4743 24.3708C89.4805 24.4773 89.4989 24.5827 89.5293 24.6849ZM85.8318 139.668C87.5988 138.623 87.8007 140.044 87.5702 137.276C87.537 136.882 86.8832 136.733 84.4933 135.346C84.4752 135.335 78.4495 131.745 77.4462 131.059C73.6929 128.492 73.7411 128.236 73.7223 125.861C73.6635 118.594 73.647 120.377 73.647 119.836C73.2606 119.836 72.8817 119.911 72.1134 119.971C63.7339 120.601 60.1162 120.649 56.082 121.454C50.0427 122.653 46.358 123.291 44.8771 123.709C44.9788 137.078 43.4264 132.403 54.6817 141.197C56.1295 142.301 57.6535 143.302 59.2425 144.192C60.5094 144.98 60.7143 145.493 61.5639 145.246C62.5087 145.176 63.4451 145.019 64.3613 144.778C64.9443 144.592 66.813 144.364 67.9474 144.017C68.0189 143.995 71.9545 142.929 74.5659 142.478C74.9711 142.408 79.8294 141.076 80.4741 140.938C85.0281 139.956 85.4521 139.892 85.8318 139.668ZM82.3707 20.8171C82.849 20.5558 87.5152 17.3983 87.5047 17.0752C81.0669 17.32 78.4615 17.1768 77.6571 17.2175C77.6021 17.3855 77.1042 16.9125 82.3707 20.8171ZM86.9458 25.3199L82.4174 22.0155C78.7342 24.0047 81.2793 22.8207 77.8981 24.8694C77.6291 25.005 77.3903 25.1936 77.1961 25.4238C78.7071 25.8757 81.8939 25.2799 84.9497 25.3643C86.8034 25.4148 86.8524 25.5149 86.9458 25.3199ZM81.5301 21.4694L81.5444 21.3384C79.8761 20.1852 78.3493 18.8399 76.5732 17.6981C76.5649 17.8487 76.6983 24.3151 76.7314 24.5011C81.2213 21.6555 79.2637 22.5028 81.5301 21.4664V21.4694ZM65.2607 95.0474C78.5233 90.281 78.7176 91.7001 78.2032 89.5391C75.7123 79.0746 77.1163 83.3484 74.5704 74.5162C73.6199 71.2194 74.1599 72.5458 73.8406 71.8234C72.3304 72.1044 70.8446 72.5031 69.3966 73.0158L61.6234 74.8581C52.45 76.7879 53.3779 77.2458 52.1713 77.3031C49.4589 77.7782 46.7981 78.5109 44.2248 79.4912C44.3002 79.91 48.6425 98.7276 49.5184 99.1456C50.9586 99.8318 51.159 99.01 53.3599 98.6183C53.8743 98.5272 55.2429 97.9698 57.9793 97.1609C65.3917 94.972 65.0776 95.1129 65.2599 95.0474H65.2607ZM75.5391 24.5169C75.6144 23.3065 75.9533 18.8158 75.457 17.6506C74.9538 17.912 70.9429 20.561 70.5452 20.9595C72.1264 22.2583 73.7949 23.4469 75.5391 24.5169ZM70.3697 25.3937C70.3871 25.3937 74.4725 25.5134 74.9305 25.4042C74.4785 24.9606 71.6962 23.1905 69.7205 21.6728C69.6634 21.616 69.5886 21.5804 69.5085 21.5722C69.4284 21.564 69.348 21.5835 69.2806 21.6276C67.4688 22.7404 65.7285 23.9655 64.0698 25.2958C64.0984 25.7304 67.0405 25.2852 68.5839 25.2445C68.8384 25.2378 68.4912 25.2799 70.3697 25.3937ZM73.7954 17.6664C74.3226 17.335 74.3113 17.1204 73.6974 17.1106C72.3078 17.088 66.1457 16.9908 64.7982 17.2733C66.34 18.4626 63.2918 16.3453 69.6293 20.308C70.3502 19.8907 73.7954 17.6664 73.7954 17.6664ZM73.7042 70.7637C73.1431 68.1974 72.1059 64.1881 71.8905 63.2044C71.8606 63.0588 71.8008 62.921 71.7149 62.7998C71.6289 62.6785 71.5187 62.5765 71.3912 62.5002C71.2637 62.4238 71.1217 62.3748 70.9743 62.3562C70.8268 62.3377 70.6771 62.35 70.5347 62.3924C68.7187 62.8993 62.5167 63.8521 61.5842 64.4449C61.9743 65.528 62.0307 66.7031 61.7462 67.8186C61.677 68.4872 61.4462 69.1289 61.0736 69.6884C60.701 70.2479 60.1979 70.7083 59.6077 71.03C59.0174 71.3516 58.3578 71.5248 57.6857 71.5345C57.0135 71.5443 56.3491 71.3904 55.7498 71.086C54.8731 70.7094 55.209 69.2715 55.5743 68.4957C56.3275 66.8967 58.3092 68.2457 57.9161 66.2361C57.6072 64.6543 54.687 66.4974 51.9099 66.8838C49.8386 67.1723 48.4195 67.7621 44.7476 68.8136C42.7598 69.3823 41.563 69.2135 41.9162 70.546C42.0556 71.0732 42.5557 72.5375 42.732 73.3125C43.6072 77.1728 42.9828 75.3108 43.9981 78.3998C46.6735 77.819 50.808 76.4376 51.4821 76.4143C52.8431 76.3676 54.6162 75.405 56.2884 75.0299C58.1639 74.6118 72.4592 71.4046 73.7042 70.7637ZM65.6719 22.8727C67.1543 21.9379 68.2502 21.1486 68.6893 20.9437C68.388 20.6959 63.4597 17.5896 63.4424 17.5768C63.3688 18.1248 63.3615 18.6796 63.4206 19.2294C63.5524 20.6454 63.0997 23.6854 63.3663 24.6465C64.0345 23.9351 64.813 23.3361 65.6719 22.8727ZM63.0055 27.1886C63.0055 26.818 63.0266 26.8045 61.4991 26.8986C59.357 27.0319 59.4428 26.8835 51.9333 26.8835C51.8968 28.0154 52.0649 29.1445 52.4296 30.2165C52.6556 31.0639 56.5723 30.5992 57.2608 30.5479C62.3412 30.1698 62.9551 31.6469 63.0055 27.1909V27.1886ZM62.3276 24.8853C62.4911 23.9309 62.5536 19.1751 62.5536 18.0001C62.5536 17.033 62.0045 18.3662 56.9662 21.0536C56.3049 21.4031 57.2916 21.5154 62.3246 24.8853H62.3276ZM61.2317 33.7732C61.4539 31.9105 61.3824 32.1915 61.2927 31.9489C58.7981 31.9489 56.3335 32.1071 53.7794 32.0664C54.2479 34.1754 53.9865 34.2244 55.8387 34.363C57.472 34.5727 59.1276 34.5372 60.7504 34.2575C60.8734 34.245 60.9881 34.1896 61.0745 34.1011C61.1608 34.0126 61.2132 33.8965 61.2227 33.7732H61.2317ZM61.4984 17.0345C59.8541 16.9961 57.205 17.2205 53.7018 17.2733C49.0868 17.3433 50.2445 17.1226 51.8248 18.15C55.0636 20.2522 53.3147 18.9484 55.8168 20.7396C62.0633 16.7701 61.3018 17.2959 61.4863 17.0345H61.4984ZM61.1865 25.3078C61.2423 25.069 61.2076 25.2649 57.9183 23.1536C55.9712 21.904 55.9253 21.6238 55.383 21.9696C51.8316 24.2292 52.4537 23.9588 50.2061 25.5059C50.6792 25.5803 51.1617 25.5701 51.6312 25.4758C54.9062 25.1421 55.9163 25.6114 61.1775 25.3078H61.1865ZM60.544 68.9424C61.0126 67.8018 61.1453 66.551 60.9267 65.3375C60.8723 64.8915 60.7278 64.4612 60.502 64.0727C60.2762 63.6842 59.9737 63.3458 59.613 63.0778C58.5043 62.4391 58.2573 62.6922 57.269 62.7268C56.9485 62.7172 56.6296 62.7748 56.3328 62.8962C56.036 63.0175 55.7679 63.1998 55.546 63.4312C55.3241 63.6627 55.1532 63.9381 55.0444 64.2398C54.9356 64.5414 54.8914 64.8625 54.9145 65.1823C56.0865 64.9413 57.9176 64.2378 58.4478 65.5951C58.9449 66.8665 58.6858 67.9301 57.7639 68.2698C56.6695 68.6727 56.3486 68.0732 56.0097 69.5419C55.8952 70.0353 55.9343 70.3245 56.4993 70.503C57.2508 70.7374 58.0596 70.7106 58.7939 70.427C59.5283 70.1433 60.1451 69.6196 60.544 68.9409V68.9424ZM57.034 58.0351C57.0536 57.6682 56.955 53.3508 56.8834 52.8303C54.6252 52.785 52.3662 52.8539 50.115 53.0367C45.9934 53.2062 40.3232 53.6197 33.5495 53.744C31.7267 53.7779 30.8794 54.1809 29.1635 54.1296C27.5185 54.0807 27.1427 54.342 25.1587 54.446C23.5769 54.5281 23.7554 55.8492 23.824 60.0243C24.7007 60.2134 22.4418 59.842 39.686 59.2613C40.4964 59.2334 46.5696 58.5992 46.9922 58.5834C55.9569 58.3047 53.6958 58.2912 57.034 58.0351ZM49.3994 24.7655C49.761 24.6412 54.3375 21.654 54.8467 21.2133C53.9519 20.4225 50.1399 18.0558 49.3573 17.9383C49.3573 23.1235 49.1848 24.3083 49.3994 24.7655ZM48.598 25.5745C48.247 22.3047 48.8436 17.5452 48.3419 18.0174C45.8308 20.2392 43.4397 22.5931 41.1788 25.069C41.0546 25.2061 40.3706 25.6189 41.2542 25.6656C41.6526 25.6844 47.9397 25.6694 48.598 25.5745ZM11.9518 119.898C13.4198 121.475 15.4075 123.407 17.4164 123.258C14.1572 120.14 14.9647 118.738 14.9308 104.649C14.9308 104.168 14.4035 80.2444 14.4366 57.9492C14.4487 49.1976 14.3259 49.0409 16.8522 46.7782C16.3167 46.6766 13.5802 46.7481 12.3066 47.5691C10.0266 49.0394 10.8589 50.4758 10.6645 56.0722C10.419 63.1607 10.7964 63.8009 10.8995 70.7004C10.9282 72.597 10.9982 96.9281 11.0208 97.5548C11.4539 109.562 10.6337 118.481 11.9518 119.898Z" fill="black"/>
<path id="Vector_29" d="M132.459 5.72396C132.687 5.74426 132.902 5.83908 133.071 5.99376C133.239 6.14844 133.352 6.35438 133.392 6.57974C133.432 6.8051 133.397 7.03735 133.292 7.24058C133.186 7.44382 133.017 7.60674 132.81 7.70416C132.69 7.77555 132.557 7.82172 132.418 7.83986C132.28 7.85799 132.139 7.84771 132.005 7.80964C131.871 7.77157 131.746 7.70651 131.637 7.61844C131.529 7.53037 131.44 7.42114 131.375 7.29743C131.28 7.1236 131.236 6.92696 131.246 6.72933C131.257 6.5317 131.322 6.34081 131.434 6.17783C131.546 6.01485 131.701 5.88617 131.882 5.80605C132.063 5.72593 132.263 5.69752 132.459 5.72396Z" fill="black"/>
<path id="Vector_30" d="M102.437 60.8904C102.598 62.4963 102.767 68.2199 102.692 70.4638C102.545 74.8031 102.656 77.0921 102.673 78.1609C102.687 78.3571 102.659 78.5542 102.59 78.7384C102.521 78.9226 102.412 79.0896 102.272 79.2276C102.132 79.3656 101.963 79.4715 101.778 79.5378C101.592 79.6041 101.395 79.6293 101.199 79.6116C98.9769 79.4715 98.5287 79.6116 92.6031 79.7238C89.6784 79.7818 89.4328 80.5185 89.3997 78.6927C89.2762 71.9634 89.2385 74.8121 89.2626 72.8266C89.4133 60.3488 88.8069 60.617 90.3676 60.5921C99.8378 60.4422 102.299 59.509 102.437 60.8904ZM101.618 72.511C101.801 68.1424 101.863 67.9254 101.734 62.4179C101.707 61.2986 101.615 60.9868 100.937 60.9868C99.7775 60.9823 97.078 61.3363 90.9483 61.4689C90.226 61.4847 90.0716 61.4689 90.101 62.5866C90.2004 66.2842 90.2682 77.0589 90.2765 78.7695C90.5024 78.9149 95.741 78.6136 95.7606 78.6136C101.661 78.5443 101.023 78.6972 101.725 78.5383C101.751 77.0838 101.497 75.3913 101.618 72.511Z" fill="black"/>
<path id="Vector_31" d="M100.32 88.0728C100.285 88.2374 100.195 88.3854 100.066 88.4927C99.9361 88.6 99.774 88.6604 99.6057 88.664C99.0566 88.7333 98.509 88.8373 97.9584 88.8779C97.2195 88.9329 96.9446 88.4915 96.2042 88.7446C95.1166 89.116 94.6345 88.7446 93.748 88.9096C92.7876 89.0866 92.3108 88.6723 91.6435 89.2026C91.3911 89.4029 91.2804 89.3939 91.0944 89.2553C90.5332 88.8373 91.4446 87.8242 92.7673 88.0027C93.3744 88.0833 93.7555 87.8182 94.9373 87.9485C95.8374 88.0471 96.3413 87.489 97.3325 87.8287C97.917 88.0298 98.0857 87.8732 99.788 87.6427C99.9869 87.6163 100.109 87.7255 100.32 88.0728Z" fill="black"/>
<path id="Vector_32" d="M99.7633 82.0716C99.7608 82.2324 99.7032 82.3874 99.6001 82.5108C99.497 82.6342 99.3547 82.7185 99.1969 82.7495C98.8214 82.7832 98.443 82.7528 98.0776 82.6599C96.7173 82.0972 96.1622 82.9823 94.948 82.3089C93.5854 82.925 93.2533 83.2481 92.5083 82.5108C92.0881 82.0942 92.006 81.9323 91.1623 82.6109C91.0238 82.7224 90.7767 83.0478 90.4468 82.7495C90.1169 82.4512 90.7579 81.5692 91.7453 81.2431C91.9516 81.1896 92.168 81.1895 92.3743 81.2429C92.5805 81.2962 92.7698 81.4013 92.9241 81.5481C93.5207 81.9948 93.0665 82.0438 94.2957 81.4954C94.454 81.3887 94.6365 81.3235 94.8266 81.3058C95.0166 81.288 95.2081 81.3182 95.3834 81.3937C95.8353 81.6272 96.0214 81.5323 96.9199 81.3937C97.8901 81.2431 98.2712 81.8517 99.099 81.6988C99.2737 81.6785 99.7445 81.8027 99.7633 82.0716Z" fill="black"/>
<path id="Vector_33" d="M99.1983 52.8439C100.427 53.2092 99.8453 54.6516 98.8368 54.6441C98.0489 54.6358 97.8508 54.0965 97.9984 53.4932C98.0167 53.3616 98.0657 53.2362 98.1413 53.1271C98.217 53.018 98.3173 52.9282 98.4341 52.865C98.5509 52.8018 98.6809 52.7669 98.8137 52.7633C98.9465 52.7596 99.0782 52.7872 99.1983 52.8439Z" fill="black"/>
<path id="Vector_34" d="M95.2285 53.0078C95.3553 53.0087 95.4807 53.0351 95.5971 53.0854C95.7135 53.1357 95.8186 53.209 95.9062 53.3007C95.9938 53.3925 96.062 53.5009 96.1068 53.6196C96.1516 53.7383 96.1721 53.8647 96.167 53.9915C96.1167 54.2499 95.9746 54.4815 95.767 54.6435C95.5593 54.8054 95.3001 54.8868 95.0372 54.8727C93.8328 54.7974 94.1815 52.9339 95.2285 53.0078Z" fill="black"/>
<path id="Vector_35" d="M95.9594 84.8501C96.0655 84.8597 96.1673 84.8972 96.2542 84.9588C96.3412 85.0205 96.4102 85.1041 96.4543 85.2011C96.2788 86.0937 95.5768 85.693 94.1946 85.7608C92.9842 85.8195 93.4595 85.3201 92.652 85.4934C91.4996 85.7412 90.4956 85.992 91.0703 84.9661C91.1298 84.8607 91.4295 84.8562 92.5767 84.5639C93.5288 84.3214 93.5642 84.9405 94.352 84.7748C94.8884 84.7153 95.4309 84.7407 95.9594 84.8501Z" fill="black"/>
<path id="Vector_36" d="M90.9209 53.1012C91.051 53.0993 91.1802 53.1234 91.3008 53.1722C91.4214 53.2209 91.531 53.2934 91.6232 53.3852C91.7153 53.477 91.7882 53.5863 91.8374 53.7067C91.8867 53.8271 91.9113 53.9562 91.9099 54.0863C91.9085 54.2164 91.8811 54.3449 91.8292 54.4642C91.7774 54.5835 91.7022 54.6912 91.608 54.781C91.5139 54.8708 91.4028 54.9408 91.2811 54.987C91.1595 55.0332 91.0298 55.0545 90.8998 55.0497C90.6656 55.0319 90.4455 54.931 90.279 54.7654C90.1124 54.5997 90.0105 54.38 89.9915 54.1459C89.9974 53.8898 90.0941 53.6442 90.2643 53.4528C90.4346 53.2615 90.6673 53.1368 90.9209 53.1012Z" fill="black"/>
<path id="Vector_37" d="M84.8353 136.823C84.9341 136.843 85.0267 136.887 85.1053 136.95C85.1839 137.013 85.2463 137.094 85.2873 137.186C85.0681 138.084 84.5393 137.849 82.1049 138.361C82.0876 138.361 68.3414 141.807 62.4573 142.842C60.9509 143.107 60.3912 142.959 50.8902 135.772C48.0566 133.629 47.0525 133.093 46.9305 131.368C46.7221 129.397 46.7193 127.41 46.9222 125.438L47.4495 125.394C47.9767 126.476 47.4495 127.234 47.7688 129.769C47.9451 131.172 47.7281 131.476 48.1899 132.18C49.1593 133.663 51.0521 134.545 52.9073 136.01C56.1868 138.601 58.2649 139.783 60.8537 141.565C61.6996 142.147 63.2904 141.483 74.2609 139.209C81.7057 137.665 77.5329 138.434 84.0656 137.135C84.5589 137.04 84.5717 136.743 84.8353 136.823Z" fill="black"/>
<path id="Vector_38" d="M74.1114 81.1413C75.6043 86.6797 76.8983 88.6592 75.4394 88.9582C74.8681 89.1227 74.3121 89.3364 73.7778 89.5969C71.9388 90.368 70.0518 91.0191 68.1287 91.5462C67.8917 91.6192 67.6367 91.6063 67.4083 91.5099C67.1799 91.4134 66.9928 91.2396 66.8798 91.019C65.943 88.402 65.1932 85.7219 64.636 82.9987C63.586 79.0067 62.6422 77.8641 63.9694 77.385C65.6423 76.7824 68.7576 75.6526 71.1355 75.05C72.8506 74.6192 72.6751 75.8138 74.1114 81.1413ZM75.2548 88.0634C74.9535 87.036 73.4373 82.0324 73.3537 81.6821C71.8051 75.2368 72.4039 75.514 70.1465 76.1836C68.0713 76.7819 66.0275 77.4843 64.0229 78.2881C65.805 83.2232 67.1804 89.9923 67.7362 90.6838C68.0029 90.6454 74.6236 88.3797 75.2548 88.0634Z" fill="black"/>
<path id="Vector_39" d="M73.9653 86.9137C74.2358 87.1012 74.3751 87.5539 73.881 87.6993C73.2784 87.8748 72.0688 86.3382 70.0652 84.2156C69.9822 84.2611 69.9115 84.3259 69.859 84.4046C69.8066 84.4833 69.7739 84.5735 69.7639 84.6676C68.375 89.5251 69.0431 89.8053 67.9976 89.6478C67.9435 89.5704 67.9061 89.4825 67.8877 89.3898C67.8692 89.2971 67.8703 89.2016 67.8907 89.1093C68.15 87.3555 68.5495 85.6254 69.0853 83.9355C69.1514 83.8131 69.1712 83.671 69.1412 83.5352C69.1112 83.3994 69.0333 83.2789 68.9218 83.1958C67.7378 82.1202 68.6891 82.4757 65.3817 79.917C65.2416 79.8078 65.0051 79.429 65.2258 79.2391C65.564 78.9529 65.8366 79.206 66.4535 79.6255C68.1596 80.784 67.4011 80.1829 69.3994 82.3371C70.1835 79.9788 70.0434 79.6293 70.9811 77.048C70.9981 76.9787 71.0391 76.9176 71.0969 76.8757C71.1547 76.8338 71.2255 76.8138 71.2967 76.8192C71.3678 76.8247 71.4348 76.8552 71.4856 76.9054C71.5363 76.9555 71.5676 77.0221 71.5739 77.0932C71.5979 77.386 71.5868 77.6806 71.5408 77.9707C70.2919 83.186 70.0102 83.0173 70.4621 83.4564C73.0208 85.9631 72.9395 86.1989 73.9653 86.9137Z" fill="black"/>
<path id="Vector_40" d="M64.633 117.707C64.4702 117.788 64.2887 117.824 64.1074 117.811C63.926 117.798 63.7514 117.737 63.6018 117.634C63.4521 117.531 63.333 117.389 63.2566 117.224C63.1803 117.059 63.1496 116.877 63.1677 116.696C63.1859 116.515 63.2522 116.342 63.3598 116.195C63.4674 116.049 63.6123 115.934 63.7795 115.862C63.9466 115.791 64.1299 115.765 64.3102 115.789C64.4906 115.812 64.6613 115.883 64.8047 115.995C65.4442 116.571 65.2792 117.2 64.633 117.707Z" fill="black"/>
<path id="Vector_41" d="M63.1596 90.1834C63.7667 89.8821 64.2849 90.2038 64.1592 90.6075C63.9806 91.1837 63.7615 90.9841 63.1468 91.3253C62.5322 91.6665 62.4448 91.2266 61.8754 91.6763C61.0401 92.3354 59.8018 92.7639 58.9718 92.3165C58.5487 92.6774 58.0093 92.873 57.4533 92.8671C57.1023 92.8347 56.7513 93.1308 55.9604 93.136C55.4844 93.136 55.0746 93.8064 54.3447 93.8373C53.9937 93.8523 53.3867 94.601 51.9638 94.2704C51.1353 94.0783 51.2325 94.7155 50.7692 94.7675C50.3994 94.8089 50.0778 94.369 50.7888 93.6113C51.6633 92.6773 52.122 93.8689 53.529 93.069C54.176 92.7007 54.176 93.0005 54.9323 92.4973C55.1115 92.3451 55.3197 92.2305 55.5442 92.1605C55.7687 92.0905 56.0051 92.0665 56.2391 92.0898C56.7576 91.8977 57.3056 91.7971 57.8585 91.7923C58.0596 91.7923 58.7352 91.0587 59.2934 91.3622C59.914 91.7004 60.8842 91.1694 61.4544 90.7393C62.2475 90.1412 62.2422 90.6354 63.1596 90.1834Z" fill="black"/>
<path id="Vector_42" d="M61.3514 82.4664C61.3257 82.6542 61.2421 82.8292 61.1122 82.9672C60.9823 83.1052 60.8126 83.1992 60.6268 83.2362C60.3458 83.3115 60.0754 83.432 59.7983 83.5043C59.1204 83.6791 59.1121 83.3763 58.4033 83.7574C57.5258 84.2289 57.1756 84.5679 56.344 84.4308C56.0124 84.4059 55.6795 84.4024 55.3475 84.4203C54.7984 84.3013 54.6304 84.6892 53.707 85.2978C52.7836 85.9064 52.7323 85.0326 51.8654 85.6872C51.7572 85.8064 51.6227 85.8988 51.4726 85.957C51.3225 86.0151 51.1609 86.0375 51.0007 86.0223C50.6497 85.9666 50.6693 85.715 50.4531 85.4198C49.7286 85.6399 49.0759 86.0495 48.5625 86.6061C48.3027 86.8531 47.7498 86.6867 47.8779 86.2694C48.3397 85.5054 49.0381 84.9128 49.8671 84.5814C50.1227 84.4763 50.3998 84.4342 50.6751 84.4586C50.9503 84.4829 51.2157 84.5731 51.4488 84.7215C51.8827 84.4835 52.2224 84.2432 52.7015 84.4481C53.4471 84.7667 54.3389 83.075 55.1276 83.3936C55.3889 83.4991 56.0209 83.243 56.5993 83.4215C56.9104 83.5156 57.0995 83.3236 58.1811 82.7436C58.9818 82.312 58.7837 82.724 59.9007 82.4137C60.669 82.1975 60.8287 81.8292 61.3514 82.4664Z" fill="black"/>
<path id="Vector_43" d="M60.1437 78.2282C60.5128 78.4029 60.3004 78.9882 59.9019 79.1456C57.5903 80.0608 58.1929 79.4032 55.9317 80.5632C54.9812 81.0505 55.296 80.1045 53.9056 81.3473C53.7152 81.5545 53.4534 81.6819 53.1728 81.7037C52.8923 81.7255 52.6139 81.6401 52.3939 81.4648C52.012 81.2004 51.6632 81.3759 51.3235 81.5469C50.6072 81.9069 50.3956 82.4982 49.7749 81.931C49.0556 81.275 47.9009 82.3189 47.452 82.9855L47.0257 82.9237C46.6378 82.3167 47.5055 81.5898 48.0802 81.1575C49.4036 80.1572 49.9007 81.3458 50.6411 80.8208C50.9219 80.5739 51.2689 80.4148 51.6392 80.363C52.0094 80.3112 52.3868 80.369 52.7245 80.5293C53.1433 80.7839 53.2729 80.5142 54.3243 79.7949C55.0022 79.3324 54.9827 79.8951 55.6907 79.5689C56.3525 79.2071 57.0549 78.925 57.7831 78.7283C59.4477 78.5016 59.3739 77.8621 60.1437 78.2282Z" fill="black"/>
<path id="Vector_44" d="M58.0729 87.0588C58.8683 87.1959 58.5414 88.0169 58.1226 88.1216C57.5012 88.2768 56.931 88.5735 56.2908 88.694C55.2047 88.8944 54.3189 89.8743 53.6387 89.8758C53.4448 89.8153 53.239 89.8035 53.0394 89.8415C52.8398 89.8794 52.6527 89.966 52.4946 90.0935C51.5576 90.7021 50.7818 89.0511 49.8772 90.4536C49.3612 91.2527 48.9183 90.6291 49.0298 90.3255C49.1431 89.9059 49.3981 89.5385 49.7515 89.2855C50.1048 89.0324 50.5348 88.9094 50.9686 88.9373C51.6962 88.9938 51.889 89.3719 52.3349 89.0443C52.4771 88.9301 52.6434 88.8494 52.8211 88.8085C52.9989 88.7675 53.1837 88.7673 53.3615 88.8078C53.6982 88.9479 53.8511 88.7897 54.6141 88.3167C55.462 87.8684 56.3615 87.5255 57.2926 87.2953C57.6782 87.1469 57.8869 87.0272 58.0729 87.0588Z" fill="black"/>
<path id="Vector_45" d="M49.5944 69.341C51.7207 70.4354 51.7501 73.5635 50.3167 75.1159C49.9162 75.5523 49.3983 75.8638 48.8252 76.0132C48.252 76.1625 47.648 76.1434 47.0854 75.958C45.7296 75.308 45.2581 75.2048 44.7663 73.8867C43.7412 71.1442 46.2825 67.6387 49.5944 69.341ZM46.9679 74.8252C48.5248 75.836 50.554 74.2226 50.3815 72.5535C50.4011 70.4693 49.0144 70.1703 48.3697 69.9217C48.1328 69.8478 47.8831 69.8243 47.6367 69.8527C47.3902 69.8811 47.1524 69.9608 46.9386 70.0867C46.2519 70.4814 45.7349 71.1153 45.4864 71.8673C45.3706 72.4421 45.4318 73.0385 45.6619 73.5778C46.1718 74.6436 46.0965 74.2595 46.9679 74.8252Z" fill="black"/>
<path id="Vector_46" d="M30.2414 55.9494C30.4221 56.1787 30.5298 56.4569 30.5505 56.7481C30.5711 57.0393 30.5039 57.3299 30.3574 57.5824C30.1805 57.9825 29.8806 58.3157 29.5013 58.5335C29.122 58.7514 28.683 58.8425 28.2484 58.7936C27.5471 58.7936 26.4188 57.7564 26.7035 56.8412C26.7559 56.3621 26.9921 55.9219 27.3626 55.6135C27.6885 55.3177 28.107 55.1443 28.5467 55.1229C28.9863 55.1014 29.4197 55.2333 29.7729 55.496C29.9369 55.6388 30.0932 55.7902 30.2414 55.9494ZM29.6591 56.9505C29.6301 56.683 29.5091 56.434 29.3167 56.2459C29.1244 56.0578 28.8727 55.9424 28.6046 55.9193C28.3249 55.934 28.061 56.0536 27.8656 56.2542C27.6702 56.4548 27.5575 56.7217 27.5501 57.0017C27.5838 57.2483 27.7052 57.4744 27.8921 57.6388C28.079 57.8031 28.3189 57.8946 28.5677 57.8965C28.8307 57.8883 29.0828 57.7898 29.2816 57.6175C29.4804 57.4452 29.6137 57.2096 29.6591 56.9505Z" fill="black"/>
<path id="Vector_47" d="M29.6591 56.9503C29.6301 56.6829 29.509 56.4338 29.3167 56.2458C29.1244 56.0577 28.8726 55.9422 28.6046 55.9192C28.3249 55.9339 28.061 56.0534 27.8656 56.2541C27.6701 56.4547 27.5575 56.7216 27.5501 57.0016C27.5838 57.2481 27.7052 57.4743 27.8921 57.6387C28.079 57.803 28.3188 57.8945 28.5677 57.8964C28.8307 57.8882 29.0828 57.7897 29.2816 57.6174C29.4804 57.445 29.6137 57.2095 29.6591 56.9503Z" fill="white"/>
</g>
</svg>
