<svg width="151" height="151" viewBox="0 0 151 151" fill="none" xmlns="http://www.w3.org/2000/svg">
<g id="Something-Went-Wrong--Streamline-Bruxelles">
<g id="Something-Went-Wrong--Streamline-Bruxelles.svg">
<g id="Colour">
<path id="Vector" d="M128.348 108.86C122.473 111.534 128.657 127.691 97.2551 126.629C96.7476 126.613 96.2438 126.72 95.7863 126.941C95.3288 127.161 94.931 127.488 94.6264 127.894C87.7495 137.144 76.0295 133.167 69.9962 129.272C65.0024 126.064 59.2553 140.126 40.6208 127.171C40.1594 126.848 39.6357 126.625 39.0832 126.516C38.5307 126.407 37.9615 126.415 37.4121 126.538C27.3792 128.798 16.322 121.115 20.0052 107.587C20.1621 106.983 20.0915 106.342 19.8068 105.787C19.5221 105.231 19.0432 104.8 18.4611 104.574C11.5542 101.923 2.40258 96.4925 5.33259 84.6067C7.08758 77.4813 11.7575 75.9749 10.0477 73.7755C6.28164 68.9247 7.12524 59.7054 15.0641 50.1094C18.9131 45.4545 21.2029 47.2547 20.1709 39.8958C18.8453 30.4731 24.8936 23.2196 32.9229 21.9316C34.2425 21.718 35.4638 21.1018 36.4197 20.1675C37.3757 19.2331 38.0195 18.0261 38.2632 16.7118C39.0767 12.313 40.7488 9.48092 48.3186 6.71662C60.6789 2.19732 62.8632 10.1513 66.78 7.53009C77.1292 0.592969 91.0185 3.99751 95.8466 11.6201C96.4642 12.5932 97.3375 13.3777 98.3711 13.8879C99.4046 14.398 100.559 14.6141 101.707 14.5124C109.487 13.8345 116.959 16.0188 122.533 21.0353C128.981 26.8877 129.191 35.1882 127.806 42.743C126.766 48.2866 136.211 46.1927 139.495 54.35C146.365 71.3953 136.935 74.4006 139.495 82.5881C141.68 89.7436 140.316 103.43 128.348 108.86Z" fill="#F2FBFF"/>
<path id="Vector_2" d="M4.82823 88.0867C4.82823 88.0867 2.8548 94.3233 5.31782 99.6712C6.72633 102.729 4.90355 104.19 4.90355 110.171C4.90355 116.152 8.97092 119.277 6.34973 128.248C3.72853 137.219 7.10294 143.313 21.3689 144.066C35.6348 144.819 45.7053 146.755 52.4466 146.747C67.7745 146.747 71.4653 144.427 89.0823 143.862C106.7 143.297 106.248 146.521 121.132 145.821C134.079 145.203 138.139 141.648 142.485 133.619C146.063 126.998 142.9 123.405 146.131 112.965C149.897 100.741 142.485 96.3947 140.324 87.8532C111.121 87.4841 22.3473 88.034 4.82748 88.0867H4.82823Z" fill="#FFF2E5"/>
<path id="Vector_3" d="M96.087 7.49281C100.154 7.69617 98.4521 10.1065 97.5256 31.7539C96.6368 38.8643 96.8402 41.026 96.9758 43.0521C95.6802 47.5714 96.9155 49.0327 95.6953 55.209C95.9288 59.2839 94.7914 56.8737 95.6426 61.6491C94.8366 64.3832 94.9572 63.6149 95.0325 65.1515C95.9363 66.1307 95.9665 65.5281 94.7011 67.9233C94.8366 70.7328 94.7011 69.8215 95.1982 71.9907C94.0834 73.2486 94.3019 72.5481 94.3696 75.1542C94.9647 77.1502 95.0701 76.5627 94.091 77.8206C94.7161 80.9615 94.7764 79.8317 93.6466 82.7542C93.7144 84.4941 93.526 83.8991 94.3998 85.3678C93.2097 87.5371 93.4809 86.588 93.3453 89.5858C93.8123 91.7852 93.9335 91.032 92.9544 92.9151C92.6229 96.184 92.5167 95.3178 93.285 96.8619C92.1703 99.3701 92.4038 98.4437 92.4038 100.907C93.2398 102.586 93.2782 101.856 92.0128 104.183C92.0436 105.429 91.8547 106.671 91.4547 107.851C89.7072 109.041 90.5659 108.936 87.5681 108.07C85.5721 108.461 86.0617 108.672 85.2407 107.317C81.3917 108.07 82.8379 108.183 78.9061 106.654C77.0909 107.06 77.942 107.301 75.0798 105.388C71.148 105.456 71.9991 105.818 71.0275 104.002C68.1577 103.129 69.054 103.099 67.0279 103.942C65.9056 101.984 66.5835 102.549 63.9171 101.554C62.0265 102.112 62.5915 102.308 61.7554 100.718C60.2489 100.161 60.7762 100.176 59.3074 100.779C58.0496 98.9559 58.7952 99.4078 55.8652 98.9408C52.3778 93.6683 50.5023 99.9049 53.6508 90.7835C55.466 89.1716 55.0819 89.9248 55.1572 87.3865C57.4169 84.8481 57.0402 85.5863 57.0402 84.0497C58.4412 82.9349 58.0044 83.6505 58.8781 80.7205C60.3393 77.8583 59.9401 78.9278 60.7084 76.0581C62.6668 74.3784 62.2148 75.1392 62.4257 72.6761C64.3841 70.9965 63.8945 71.8099 64.4293 69.0155C66.5609 66.2813 66.1466 67.3584 66.4253 64.3531C68.5419 63.3212 68.218 62.4324 68.4816 59.9091C73.3022 53.9587 70.2818 55.7438 74.3642 50.0269C74.7333 45.3645 76.1418 48.5205 76.9704 43.4212C78.9664 40.559 78.6357 41.4101 78.6357 39.5873C80.805 37.983 80.292 38.7889 80.6988 35.9267C81.9566 35.0906 81.6328 35.7685 82.0169 32.703C83.8397 31.3773 83.2823 32.2812 84.3519 28.4849C85.8206 27.2949 85.3838 28.0405 86.1822 25.0427C87.5832 23.6418 87.1538 24.4854 88.02 21.1561C89.8202 18.9492 89.5265 19.6497 89.5265 17.9851C90.9952 16.3883 90.5508 17.1264 91.417 14.6634C93.1645 13.157 92.7578 13.9554 93.0289 11.2212L94.0842 10.5509C94.0842 10.5509 94.8668 6.57388 96.087 7.49281Z" fill="#FFFBE5"/>
<path id="Vector_4" d="M29.8805 129.551C29.8992 129.565 29.9144 129.583 29.9249 129.604C29.9353 129.625 29.9408 129.648 29.9408 129.671C29.9408 129.695 29.9353 129.718 29.9249 129.739C29.9144 129.76 29.8992 129.778 29.8805 129.792C29.1725 130.673 30.2571 130.741 28.231 131.457C25.9111 132.27 26.009 133.513 20.3523 130.982C19.3053 130.515 19.923 130.779 18.281 130.492C17.9948 130.447 17.2415 129.89 17.7839 129.566C19.0719 128.813 19.7573 128.918 21.4294 128.655C22.9735 128.948 22.9359 129.046 23.9452 128.82C26.0316 128.338 27.1162 129.204 28.7733 129.34C29.3608 129.385 29.4361 129.265 29.8805 129.551Z" fill="#EEE5FF"/>
<path id="Vector_5" d="M77.0462 137.46C77.5584 137.882 76.9332 138.273 76.2929 138.394C70.1467 139.509 73.506 138.394 68.8286 140.066C68.1808 140.3 66.6744 139.84 66.0417 139.644C60.8897 138.002 55.1276 138.891 53.0186 137.897C51.6854 137.287 55.8431 134.824 59.9482 136.134C61.8689 136.744 64.6181 135.2 66.7271 135.509C68.5574 135.773 68.3766 136.172 70.8472 136.398C70.9225 136.405 75.7431 136.383 77.0462 137.46Z" fill="#EEE5FF"/>
<path id="Vector_6" d="M134.117 73.5193C137.13 73.9863 134.321 78.2872 132.294 75.9447C131.458 74.973 132.784 73.3159 134.117 73.5193Z" fill="white"/>
<path id="Vector_7" d="M54.7971 28.4546C56.1153 28.304 56.6049 30.4356 54.9779 30.9553C54.3452 31.1587 53.8406 30.526 53.5694 29.8933C53.2982 29.2606 54.2021 28.3718 54.7971 28.4546Z" fill="white"/>
<path id="Vector_8" d="M130.728 39.5116C132.234 40.9126 128.129 39.4137 127.873 40.3929C127.255 42.1178 127.165 43.9481 126.502 42.1178C125.568 39.5568 125.689 39.4514 125.139 39.3309C123.632 39.007 121.373 39.3309 122.653 38.4496C124.732 37.0185 124.815 37.139 124.649 36.6419C123.896 34.563 123.647 34.2015 124.393 34.5404C126.879 36.1222 126.065 36.0468 128.837 34.6684C129.688 34.2542 129.44 35.0074 129.522 35.0225C128.822 38.3743 128.4 37.3424 130.728 39.5116Z" fill="#FFEE99"/>
<path id="Vector_9" d="M34.1739 47.7522C34.9723 48.6109 31.0179 47.6393 30.6639 48.4452C29.9107 50.1927 29.7826 52.2113 29.2478 50.3508C28.5925 48.0912 28.7131 47.9104 28.1256 47.8954C26.7246 47.8954 25.7831 47.9481 26.0843 47.5715C27.169 46.2006 27.9824 46.2082 27.8243 45.3796C27.1238 41.6813 26.9957 41.8696 29.8052 43.941C30.3325 44.3251 30.5584 43.9937 32.336 42.9392C33.1495 42.4496 32.4791 44.0841 32.223 44.9879C31.7711 46.5772 32.4038 45.8617 34.1739 47.7522Z" fill="#FFEE99"/>
<path id="Vector_10" d="M97.6845 11.605C98.046 11.605 98.1741 12.0042 98.0987 12.2829C97.9782 12.7198 93.7534 13.7291 93.6781 14.4597C93.6179 14.9869 93.8205 14.9267 95.4173 15.6573C99.4771 17.5102 97.5263 16.2448 97.564 18.4668C97.5271 18.933 97.5271 19.4008 97.564 19.8678C97.7598 20.8093 96.5177 20.1465 96.9019 20.0109C97.5647 19.7774 97.3764 19.0392 96.9019 19.2577C93.5953 20.4176 97.3606 20.8244 97.7447 21.8035C97.9406 22.3082 98.2569 22.5116 96.8559 21.9391C93.2179 20.4327 94.4306 20.4854 90.7097 22.489C89.2033 23.325 94.1594 25.0348 94.7695 24.8616C96.4718 24.372 96.6383 24.3645 96.7211 23.9954C96.8642 23.3928 97.2551 23.3853 97.4359 22.956C97.6317 23.0238 97.7146 23.1593 97.6092 23.3175C97.2024 23.9577 97.5263 24.952 97.1045 25.0951C96.5095 25.2985 96.8785 26.1119 97.1949 26.2776C97.2401 26.2776 97.2559 26.3906 97.2785 26.4509C97.8359 28.0854 95.6734 25.6977 94.4758 26.4509C93.3476 26.9539 92.2665 27.5563 91.2452 28.2511C90.0853 29.1173 96.8107 30.8421 96.871 31.505C96.9538 32.341 97.3079 32.1678 97.3531 32.7176C97.4284 33.7345 91.9073 34.322 96.2609 35.6552C96.5095 35.7305 96.4492 35.851 96.4266 36.5214C95.8411 36.386 95.2707 36.1917 94.7243 35.9414C92.186 35.1053 92.766 35.3991 89.7004 37.0788C89.5422 37.1692 88.789 37.3273 89.3313 37.832C89.4669 37.9525 89.4443 37.9525 91.8998 38.9995C96.4191 40.9202 96.1705 40.2272 96.291 41.2591C96.291 41.6884 95.8692 41.2591 93.9711 42.4115C90.9131 44.2193 90.3933 43.6091 95.6357 45.5374C95.9144 45.6353 95.9069 45.6579 95.9069 45.9818C95.9069 46.4563 96.0726 46.7727 95.7939 46.6672C93.7075 45.8387 93.8883 45.8311 93.5343 45.7483C89.015 44.739 91.2746 44.2418 88.3371 46.0571C87.9529 46.2981 87.5017 47.0513 88.029 47.2698C93.8664 49.6951 93.8054 49.4541 94.295 49.1754C95.9445 48.2414 95.7035 48.3243 95.5529 49.6951C95.5001 50.1697 95.5529 50.7647 95.116 50.7798C94.2498 50.7798 90.0627 53.4838 91.6218 53.6646C91.6896 53.6646 94.5737 54.6588 95.116 54.7643C95.4399 54.7643 95.3495 55.3292 95.2968 55.6455C95.1913 56.2029 93.2179 55.0204 90.9357 54.4253C89.2183 53.9809 89.723 54.6061 88.0885 55.5175C84.4128 57.5436 89.1279 57.6039 91.8546 58.8392C92.5174 59.1405 92.8112 58.3872 93.9786 57.747C94.3176 57.5662 94.8524 56.9185 94.7319 56.8432C94.8448 56.4515 94.7326 56.5193 95.403 56.7076C96.2541 56.9335 94.8983 57.5361 94.9962 58.4776C94.9962 59.0802 94.4758 59.0124 94.4908 59.3212C94.4908 59.8033 95.0331 59.5472 94.9804 60.0067C94.9277 60.4661 95.4851 61.0838 94.9804 60.9557C93.2028 60.4887 93.0221 60.3381 92.6455 60.5565C90.7624 61.6487 90.8159 61.9424 90.3188 62.1383C88.4433 62.8915 94.8381 63.4941 94.6196 64.7218C94.4087 65.588 95.3269 65.5729 95.2666 66.2282C95.2666 66.5898 94.4464 67.1321 94.4313 67.8778C94.4765 68.3975 93.8355 67.6744 93.3836 68.2092C92.9317 68.744 94.3251 68.5481 94.3779 69.339C94.3779 69.4821 94.5285 70.0094 94.1519 69.9039C91.139 69.0679 93.2638 68.3975 89.558 71.8171C88.1646 73.0976 93.8958 73.2181 93.9561 74.0767C93.9741 74.3276 93.9741 74.5791 93.9561 74.83C93.7226 75.0559 93.7075 75.4175 93.4363 75.6284C89.7606 78.4831 93.602 77.4286 93.7979 78.6036C93.8958 79.2062 93.9109 79.0856 91.3123 78.5508C90.4536 78.3701 89.3321 79.7334 88.0441 81.0591C87.2381 81.8951 93.3166 82.7086 93.4898 83.1756C94.1752 84.9833 91.493 85.8721 90.785 86.9944C90.0318 87.9661 93.0447 87.5066 93.0447 88.2447C93.0447 88.9829 93.0078 89.0808 92.7441 88.998C89.2115 88.1318 89.7305 87.8606 87.614 90.0675C86.921 90.8207 87.0114 90.7078 90.6268 91.7849C91.1014 91.928 91.7265 92.3347 92.1333 91.7849C92.2312 91.6643 92.134 91.3028 91.8026 91.2199C92.5558 91.348 93.0974 91.5966 93.0371 91.6869C92.1107 93.0729 92.9392 93.103 92.0655 93.8336C91.4041 94.3921 90.7777 94.9908 90.19 95.6263C89.6401 96.2138 90.4837 96.7034 91.0938 96.3795C91.6719 96.3825 92.2488 96.4329 92.8187 96.5301C93.135 96.9293 93.0899 97.6298 92.5023 97.562C88.5103 97.1101 89.4895 96.3117 87.1846 98.9781C86.6348 99.6032 86.4322 99.7915 86.3343 99.9497C86.2363 100.108 86.7854 100.334 87.0189 100.319C87.7194 100.274 89.6251 101.072 90.7248 100.537C90.9507 100.462 92.5852 98.1345 91.9073 100.59C91.6361 101.577 92.6605 101.253 92.6605 102.315C92.6605 103.015 91.2821 101.675 90.1674 102.782C89.6453 103.348 89.186 103.97 88.7973 104.635C89.2944 105.162 88.6685 104.996 90.9583 105.305C91.3198 105.35 91.5458 105.215 91.5307 105.546C91.478 106.518 91.072 105.87 89.5656 106.006H89.4518C89.1882 105.765 88.8643 105.9 88.5706 105.878C87.7495 105.817 86.5971 107.226 87.6064 107.226V107.512C87.1394 107.565 87.0423 107.791 86.5527 108.017C86.0631 108.243 86.3486 107.504 85.6631 107.196C85.3619 107.053 86.0405 107.143 86.3569 105.87C86.3945 105.697 86.3569 105.283 85.9576 105.252C84.1273 105.124 83.042 103.889 81.9197 105.712C81.4225 106.518 81.5355 106.902 80.0216 106.465C80.1421 105.885 81.3321 104.062 80.835 104.484C80.5488 104.725 78.3946 104.138 78.1084 103.791C77.8222 103.445 77.1593 105.727 76.6019 105.546C74.847 104.959 75.0955 105.162 75.2462 104.793C75.5708 104.951 75.7591 104.544 76.0001 104.183C76.7533 102.97 76.8806 103.091 74.9004 102.383C72.9195 101.675 73.1982 101.547 72.799 102.292C71.5788 104.552 72.0457 104.168 70.7276 103.58C70.4339 103.445 71.9629 101.629 71.6465 101.509C71.172 101.328 69.1835 100.756 68.9048 100.756C68.6261 100.756 67.9106 102.006 67.7373 102.774C67.6696 103.076 67.9407 103.204 67.8955 103.264C67.5189 103.769 67.0444 103.264 67.0143 102.985C66.9389 102.435 66.0652 102.051 65.5831 101.885C65.8959 101.525 66.1271 101.101 66.261 100.643C66.261 100.989 66.6678 101.004 66.7657 100.854C67.7223 99.3848 67.8729 99.9573 63.7528 98.142C62.3669 97.5244 62.3895 100.605 61.3727 100.243C61.2672 100.206 60.1223 100.643 60.1148 100.454C60.1148 99.7614 61.3501 97.6449 61.3877 97.4415C61.4254 97.2381 59.6553 96.6883 59.4068 96.5904C58.6536 96.2062 57.4559 95.1894 56.7329 95.5057C56.0098 95.8221 55.3695 99.7012 54.5184 96.8088C53.7652 96.8992 54.1719 95.9953 54.3979 95.905C54.6239 95.8146 55.5729 94.5567 54.8348 94.1575C53.9083 93.6528 53.4262 93.8637 53.9158 92.9297C54.2548 92.2745 55.6181 94.1123 56.1755 92.99C57.6819 90.0374 57.9531 90.4893 56.3487 89.7512C55.7085 89.4574 55.49 89.465 55.5955 89.2239C55.8365 88.6515 55.5955 88.7117 55.5955 88.4255C55.9721 88.4255 56.2056 88.8247 56.9588 89.0432C57.5915 89.2239 57.9832 89.7964 58.3824 89.0432C58.7816 88.2899 59.5122 87.0773 59.8888 86.3994C60.401 85.4127 56.8082 84.9457 57.6292 84.4259C58.4502 83.9062 58.4201 84.1698 60.2805 84.8929C60.7852 85.0888 60.9283 84.6067 61.9376 83.0626C62.5477 82.1286 63.1653 82.1136 60.1374 80.4791C59.8361 80.3134 59.8813 80.1929 60.047 79.8539C60.1525 79.6505 60.1901 79.8087 61.1919 80.351C63.2858 81.4959 62.7962 81.511 64.9128 78.9049C65.44 78.2571 64.845 78.1065 63.5043 77.3984C61.9978 76.5925 61.8171 76.4795 61.5986 76.7959C60.7475 76.6979 61.6438 76.6527 62.0506 75.9071C62.2313 75.5832 62.4498 75.8393 63.9487 76.6603C66.2083 77.8956 65.794 77.6997 66.6753 76.4418C68.3776 74.0165 68.6487 74.9354 64.2048 72.6306C63.9788 72.5101 63.9788 72.5101 64.0391 72.2615C64.2575 71.3878 63.9411 71.674 68.242 73.4817C68.8144 73.7227 69.1157 73.2105 70.1702 71.9753C70.3148 71.8334 70.4282 71.6631 70.5034 71.4751C70.5786 71.2871 70.6139 71.0855 70.6071 70.8831C70.6071 70.5291 65.8091 68.6235 66.0501 68.1414C66.2083 67.8552 66.4945 67.3882 66.6678 67.6443C67.0971 68.3975 69.3869 69.1507 71.0364 70.1224C71.6164 70.4764 71.7896 69.8813 73.2961 68.1941C74.0493 67.3957 73.0475 67.102 69.6053 65.2716C68.2119 64.5184 68.1742 64.7369 66.9766 66.3262C66.9239 66.4015 66.7356 66.5597 66.7356 66.3864C66.7356 64.7595 66.5322 64.9854 67.9031 63.9987C68.5885 63.5091 68.7693 62.319 69.0028 62.1684C69.4386 61.7592 69.8139 61.29 70.1175 60.775C70.4339 60.2703 69.3266 60.1196 69.5451 59.841C69.7635 59.5623 69.8915 59.2685 70.2983 59.5773C70.3712 59.6471 70.4594 59.6988 70.5559 59.7284C70.6524 59.758 70.7545 59.7647 70.854 59.7478C70.9535 59.731 71.0477 59.6912 71.129 59.6315C71.2104 59.5718 71.2767 59.4939 71.3227 59.4041C71.9177 58.327 73.989 57.0541 73.0551 56.6473C72.5089 56.4532 71.9995 56.168 71.5486 55.8037C71.5486 55.8037 71.8424 55.4572 71.9026 55.4572C74.1623 55.2539 72.701 58.0935 76.6245 54.0412C77.3778 53.288 72.1053 51.9548 73.8151 51.533C74.4779 51.3673 74.4327 51.533 75.7659 52.2184C76.3782 52.5415 77.0253 52.7939 77.6949 52.9716C77.8304 52.7909 78.1611 52.8511 78.1912 52.5574C78.2024 52.535 78.2183 52.5154 78.2378 52.4998C78.2573 52.4842 78.28 52.473 78.3042 52.467C78.4699 52.467 78.546 52.3691 78.6439 52.2787C80.9714 50.0943 80.9036 50.4408 79.3971 49.6725C75.3072 47.5259 76.5342 47.9853 75.0963 49.0926C74.6142 48.023 77.3552 46.509 77.1895 44.626C77.1292 43.9933 77.3853 44.2193 77.5661 43.9782C78.1536 43.1798 78.1837 43.0367 78.5227 42.9463C79.3512 42.7354 79.419 42.517 80.5865 41.4399C81.0535 41.0181 81.7389 40.5888 81.0309 40.2197C79.419 39.3685 79.7579 39.6472 80.0743 39.1878C80.6317 38.3969 82.5072 40.6942 83.2303 39.4891C83.2679 39.4137 83.765 39.1049 85.3242 38.0504C85.5728 37.8922 85.5502 37.1541 84.8873 36.8151C81.7765 35.2409 81.6485 35.3087 82.3189 34.3597C82.9064 33.5462 81.8971 33.0641 83.0194 32.6197C84.7141 31.9569 83.7123 30.8421 84.7517 30.699C85.1058 30.6463 85.0161 30.699 87.1176 29.396C87.7202 29.0269 88.3823 28.6427 87.7646 28.3264C86.0699 27.4075 86.0096 27.7163 86.2055 26.9706C86.2732 26.6994 86.3644 26.5789 88.8048 27.8368C89.4601 28.1682 93.1132 26.4885 92.7441 25.6977C92.6613 25.5094 92.8714 25.4114 92.6379 25.3286C90.5139 24.5754 88.4651 22.9936 87.9002 24.2892C87.4859 24.2063 87.629 24.2892 88.1186 22.4664C88.3371 21.6604 88.2617 21.6002 88.5103 21.5023C88.7061 21.7433 89.3547 21.5023 89.1814 21.5023V21.57C89.1814 21.5926 89.2635 21.6152 89.2786 21.57C89.6025 21.3441 89.7162 21.6529 89.912 21.57C93.1057 19.6644 91.5382 20.0636 90.0469 19.0618C89.7004 18.8283 90.0469 18.2333 90.3858 18.3463C92.6982 19.0392 93.3158 19.9732 94.1519 19.5062C94.2347 19.4535 97.097 18.7982 96.871 17.7964C95.4861 16.9386 94.0529 16.1615 92.5784 15.469C92.1792 15.469 91.5156 14.8363 92.1182 14.4747C94.2498 13.1867 96.5245 12.0569 95.2516 11.4619C94.3628 10.9422 94.1602 11.2284 94.4389 10.6409C94.8833 9.62403 97.3832 11.6125 97.6845 11.605ZM95.5152 31.7008C89.0752 29.1399 90.3933 28.8461 88.548 29.8931C87.6441 30.4053 86.2205 30.9702 87.0415 31.6707C87.1846 31.7912 91.4787 33.9303 92.36 33.8249C92.4956 33.855 96.984 32.2883 95.5152 31.7008ZM94.1519 40.988C93.941 40.4984 93.9033 40.5963 91.6663 39.6924C88.0282 38.2312 87.9002 38.1107 87.2675 38.4948C84.9401 40.0012 83.9616 40.2649 84.4587 40.5963C85.2798 41.1612 89.61 43.3907 90.4385 43.1873C90.9959 43.0593 94.3703 41.5077 94.1519 40.988ZM94.0698 65.716C94.0865 65.5296 94.0366 65.3433 93.9289 65.1902C93.8212 65.0371 93.6627 64.9272 93.4815 64.88C87.9002 63.4338 89.3614 62.9593 87.5462 64.9704C86.4841 66.1454 86.1527 66.281 86.793 66.6802C86.9888 66.7931 90.657 67.9606 91.3123 68.0736C91.9676 68.1866 93.9945 65.7537 94.0698 65.716ZM91.8101 75.6811C92.9249 74.4232 92.0881 74.6944 89.2485 73.7755C88.3371 73.4817 87.6516 73.203 85.9268 75.5606C85.4598 76.2008 89.1656 76.8486 90.0695 77.067C90.1903 77.0936 90.3162 77.0851 90.4324 77.0423C90.5485 76.9996 90.65 76.9246 90.7248 76.826C90.8754 76.5699 91.8621 75.6811 91.7868 75.6811H91.8101ZM91.1767 84.0644C91.8094 83.0927 88.4659 83.0626 87.4716 82.3697C86.9594 82.0156 86.6649 82.4374 84.7743 84.7649C84.3751 85.2545 84.2396 85.5181 84.5484 85.6687C84.6312 85.7139 88.1186 86.6479 88.1939 86.663C89.1355 86.3391 88.3973 86.889 89.4669 85.9098C90.2201 85.2243 91.5156 84.0644 91.1541 84.0644H91.1767ZM90.9206 93.2612C91.1541 92.9297 90.7699 92.7038 86.567 91.7547C86.3791 91.7326 86.1889 91.7675 86.021 91.8548C85.8531 91.9421 85.7153 92.0778 85.6255 92.2443C85.2112 92.9222 83.0269 94.9333 84.5107 94.873C84.6455 94.8776 84.7781 94.9062 84.9024 94.9559C88.3446 95.9125 88.096 96.161 89.2334 94.9107C89.7374 94.3119 90.2946 93.7598 90.898 93.2612H90.9206ZM90.492 60.4887C91.0569 59.9841 90.9364 59.6376 90.492 59.5246C85.2195 58.0182 86.1678 56.4289 83.0721 59.6828C82.8085 59.9539 82.8461 60.0895 83.17 60.2703C83.6822 60.549 88.0365 62.2814 88.624 61.9952C89.2753 61.5393 89.8919 61.0358 90.4687 60.4887H90.492ZM90.4009 34.6609C90.8001 34.1714 89.271 33.7721 88.2015 33.2826C85.0606 31.8665 85.7234 31.52 83.0947 33.8173C81.769 34.9848 86.341 36.6494 87.162 36.6494C87.2298 36.9206 90.7022 34.6609 90.3783 34.6609H90.4009ZM89.9715 52.3389C94.0841 49.3261 92.5784 50.2224 88.7973 48.4071C88.722 48.3695 86.5369 47.6163 86.4841 47.6087C85.9192 47.5409 85.8514 47.9401 85.2489 48.3619C83.5089 49.5068 82.7859 50.0115 83.4412 50.5161C83.4412 50.5161 88.6007 52.836 89.0451 52.7758C89.3901 52.7457 89.7117 52.5897 89.9489 52.3389H89.9715ZM88.3145 71.3878C91.026 68.4728 90.2427 68.9172 87.9228 67.9757C86.1527 67.2225 85.8439 67.0794 85.4899 67.4033C82.0703 70.5291 81.4979 70.1299 87.1545 71.9225C87.4633 72.0129 88.0584 71.6363 88.2919 71.3878H88.3145ZM88.978 102.081C88.978 101.788 87.5161 101.539 87.147 101.456C84.8873 100.929 85.5584 100.846 83.698 103.166C82.9448 103.979 85.7091 104.461 86.7109 104.469C87.5017 104.469 87.2155 104.612 88.8048 102.744C88.9555 102.548 88.8718 102.292 88.9547 102.081H88.978ZM86.567 77.2779C85.9494 77.0068 85.1811 76.359 84.6011 77.1122C83.411 78.6563 81.9423 79.9217 83.0947 80.0799C87.968 81.5863 85.4831 81.3679 88.8123 78.694C88.7973 78.4303 89.4526 78.5283 86.5452 77.2779H86.567ZM88.624 44.3398C88.6886 44.2891 88.7323 44.2164 88.7468 44.1355C88.7612 44.0547 88.7454 43.9713 88.7024 43.9014C88.6731 43.8553 88.633 43.817 88.5856 43.7899C88.5103 43.7372 83.1625 41.1687 82.8612 41.3947C80.2701 43.2853 79.1629 43.4962 82.6653 44.8896C86.1678 46.2831 85.3325 46.7275 88.6014 44.3398H88.624ZM88.1864 53.883C88.8116 53.3558 85.7535 52.3766 83.9684 51.6234C82.1833 50.8702 82.236 50.245 79.6223 53.1298C79.1704 53.6269 79.7662 53.883 83.7131 55.8263C84.7826 56.346 85.1585 56.5795 88.1864 53.8905V53.883ZM86.0247 90.0374C88.0132 87.725 88.0734 87.8455 86.2281 87.3409C82.9064 86.4295 83.9684 85.955 82.0778 88.2071C81.2493 89.2013 81.7396 89.1335 82.1991 89.3068C84.9031 90.3462 85.6405 90.4366 86.0021 90.0148L86.0247 90.0374ZM87.3428 63.3735C87.7872 62.899 87.3436 62.8915 82.4025 60.9407C81.9957 60.7825 81.8669 60.9407 81.1966 61.5432C78.6733 63.9083 78.5829 63.3735 83.5767 65.5579C84.9325 66.1379 84.4279 66.4015 87.3202 63.3509L87.3428 63.3735ZM85.6112 99.0534C86.1234 98.3002 87.8701 96.7937 86.4239 96.387C86.4239 96.387 84.5785 95.905 84.5107 95.905C82.5072 95.905 83.7575 94.7676 81.1288 98.1194C81.0757 98.178 81.0387 98.2494 81.0213 98.3265C81.0038 98.4037 81.0066 98.484 81.0294 98.5597C81.0521 98.6355 81.094 98.7041 81.151 98.7589C81.208 98.8137 81.2782 98.8529 81.3547 98.8726C84.2848 99.7388 85.0463 99.784 85.5886 99.0308L85.6112 99.0534ZM85.9576 73.9336C87.4641 72.5628 83.3289 71.7342 82.7715 71.3501C81.9355 70.7701 81.1664 71.8924 80.2776 72.9771C79.2683 74.2123 80.1421 74.0165 83.863 75.4024C84.6463 75.6736 85.7837 73.8357 85.9343 73.911L85.9576 73.9336ZM85.4003 82.46C85.6639 82.2416 85.6338 82.106 85.4003 81.865C84.2738 81.368 83.1132 80.9527 81.9272 80.6222C81.0911 81.172 81.6485 80.6222 81.0384 81.3754C79.6449 83.1229 78.9972 83.7029 79.5998 83.9439C84.3601 85.9173 82.6653 84.7348 85.3769 82.4374L85.4003 82.46ZM84.6471 91.7773C85.2346 91.0241 81.8594 90.4667 81.189 90.0751C80.0291 90.286 79.2231 92.297 79.0951 92.5531C78.7411 93.3064 79.2081 93.3666 82.4168 94.2629C83.0721 93.8939 84.5032 91.7547 84.6162 91.7547L84.6471 91.7773ZM83.8253 57.4608C84.5408 56.7829 82.8235 56.5042 81.7238 55.9544C77.8297 53.9583 78.6281 54.0638 77.2648 55.3217C74.4929 57.86 75.8111 56.6473 81.0309 59.4041C81.8971 59.856 83.5165 57.4457 83.8253 57.4382V57.4608ZM83.7281 47.9477C85.1668 46.7877 84.1642 46.6069 82.2812 45.6428C80.0743 44.5205 79.2683 44.1364 78.7411 44.6712C76.4814 46.8555 76.1425 47.1643 77.2347 47.684C82.123 50.0793 81.2877 49.8684 83.698 47.9251L83.7281 47.9477ZM82.7181 102.887C83.6295 101.253 84.9777 100.71 82.6503 100.372C80.3228 100.033 80.2633 98.9555 78.6289 102.029C78.2372 102.782 79.8182 102.782 80.6317 103C81.4451 103.219 82.2435 103.656 82.6879 102.865L82.7181 102.887ZM79.4416 74.5739C79.2747 74.5238 79.0956 74.5333 78.9348 74.6006C78.7741 74.6679 78.6418 74.7889 78.5603 74.9429C78.1686 75.6962 75.9165 77.3984 77.197 77.7073C78.0331 77.9182 78.372 78.3023 80.6467 79.1384C81.1966 79.3493 81.2116 79.2589 83.2679 76.8787C83.411 75.9447 83.6671 76.0954 79.4114 74.5287L79.4416 74.5739ZM82.108 68.7741C84.5559 66.2659 84.5484 66.8082 80.2626 65.1135C77.9653 64.2096 78.6884 64.0364 76.6019 66.4542C76.3233 66.7856 76.1576 67.3204 76.5342 67.5162C78.1912 68.3523 81.7012 70.612 82.0778 68.7515L82.108 68.7741ZM81.3547 85.6311C78.2063 84.328 78.5603 84.4561 77.905 85.4277C76.504 87.5217 76.3993 87.2053 77.5066 87.6874C79.6984 88.659 80.3379 88.7645 80.594 88.2975C82.1456 86.0378 82.8386 86.2186 81.3472 85.6085L81.3547 85.6311ZM81.1966 94.9182C78.4473 94.052 78.3193 93.6152 77.7619 94.2328C77.7619 94.2328 76.2027 96.6732 76.15 96.8163C76.15 97.4114 76.2781 97.3436 77.9803 97.9311C80.1873 98.6843 79.2156 98.5111 81.5732 95.6112C81.7088 95.1141 81.4828 94.986 81.189 94.8655L81.1966 94.9182ZM78.9369 103.701C78.5227 103.588 77.9284 103.271 77.6723 103.618C76.6705 104.951 76.8656 104.71 76.8053 104.861C76.7526 105.313 77.13 105.403 77.3183 105.215C78.2748 104.281 77.438 104.107 78.8767 104.461C80.8878 104.996 80.4584 104.657 79.8483 105.878C79.6751 106.232 80.3605 107.098 81.2267 104.657C81.5129 104.213 80.8802 104.205 78.952 103.678L78.9369 103.701ZM79.9086 59.8786C72.8208 56.6247 75.8261 57.2951 72.6777 59.8786C72.3312 60.0895 72.5271 60.6996 72.8283 60.8126C73.4686 61.0461 74.2369 61.5206 74.5833 61.6487C78.0557 62.899 77.5962 63.4338 78.3042 62.7785C79.4566 61.3625 81.1137 60.4059 79.9236 59.856L79.9086 59.8786ZM79.5553 81.3754C80.3085 80.3962 80.7145 80.1251 79.3135 79.5451C75.9467 78.1592 75.9248 77.9332 75.4352 78.6864C74.6142 79.9518 73.1756 81.172 73.9815 81.5487C79.419 84.1021 77.3635 83.5673 79.5704 81.3528L79.5553 81.3754ZM79.4491 89.8943C79.7655 89.3896 79.1629 89.5177 78.5001 89.1411C77.8432 88.8302 77.1601 88.5782 76.4588 88.3879C76.3239 88.3361 76.1752 88.3325 76.0379 88.3778C75.9006 88.4231 75.7832 88.5145 75.7056 88.6364C73.4987 91.8752 73.4083 91.2049 77.0388 92.636C78.0933 92.9825 78.8013 90.527 79.4642 89.8717L79.4491 89.8943ZM79.1478 72.0732C80.5714 70.3182 80.6543 70.8153 78.131 69.5123C76.5191 68.6762 75.3215 67.7799 74.7189 68.6461C73.6644 70.1525 72.5271 70.6571 73.5288 71.1091C79.3068 73.7303 77.7996 73.4214 79.1629 72.0506L79.1478 72.0732ZM78.3946 100.033C78.7712 99.1739 78.659 99.3246 76.1884 98.4056C74.4485 97.7654 75.329 98.8048 73.7857 100.477C73.7179 100.545 73.4015 101.125 73.9213 101.23C76.4521 101.788 76.565 102.307 77.3258 101.901C77.7235 101.291 78.0879 100.659 78.4172 100.01L78.3946 100.033ZM76.0001 86.2111C76.2638 85.6612 77.9201 84.3205 77.0162 83.9137C75.1181 83.0551 77.1669 84.3205 73.6493 82.46C72.7907 82.0081 72.9715 81.9027 71.1863 84.4636C70.998 84.7348 71.3671 85.1114 71.6307 85.2168C75.8261 87.0321 74.9524 86.8965 76.022 86.1885L76.0001 86.2111ZM77.2196 74.3253C77.2547 74.2661 77.2766 74.1999 77.2839 74.1314C77.2912 74.0629 77.2836 73.9937 77.2618 73.9284C77.2404 73.8629 77.2055 73.8028 77.1593 73.7518C77.1131 73.7008 77.0566 73.6601 76.9936 73.6324C73.5138 72.2464 72.4291 71.2221 71.8567 72.0054C71.4087 72.7147 70.9049 73.3871 70.3503 74.0165C69.4087 74.6718 73.2501 75.892 74.4327 76.585C75.6152 77.2779 77.1669 74.2575 77.2422 74.3027L77.2196 74.3253ZM76.6245 93.2762C73.5665 92.056 73.6117 92.0334 73.3179 92.3648C72.607 93.2068 71.9977 94.1296 71.5027 95.1141C71.465 95.7618 71.5027 95.7995 74.4026 96.7636C74.9976 96.967 74.6662 97.1478 76.7458 94.0445C76.8513 94.1123 77.0464 93.3967 76.6471 93.2536L76.6245 93.2762ZM75.3742 65.7612C77.6339 63.3585 77.4606 63.9761 74.5231 62.4847C71.1637 60.79 71.819 60.6318 69.8908 62.884C68.6856 64.2849 68.7007 63.833 71.6533 65.2792C74.395 66.5973 74.2218 66.9965 75.3968 65.7386L75.3742 65.7612ZM70.403 85.9474C70.2222 85.8721 70.3578 85.842 69.243 87.3559C67.8872 89.1863 68.3467 88.8624 70.4858 89.8566C72.625 90.8509 72.7455 90.8358 73.0016 90.4291C75.2763 87.1752 75.6378 88.0866 70.4256 85.9248L70.403 85.9474ZM73.8753 77.3231C73.1824 76.9917 69.5744 75.0635 69.243 75.4853C67.134 78.1893 67.1566 78.114 67.9023 78.4981C72.7831 81.157 71.9546 80.9385 73.2727 79.2513C73.9657 78.4228 74.7867 77.7298 73.8979 77.3005L73.8753 77.3231ZM73.7623 97.5244C71.1261 96.5452 70.7495 96.1761 70.2825 96.8389C68.2111 99.7388 69.0623 99.2869 70.6365 99.9497C73.092 100.989 72.3312 101.027 73.4384 99.3999C74.0335 98.4885 74.5607 97.788 73.7849 97.5018L73.7623 97.5244ZM71.6985 92.5456C72.4065 91.5137 72.1504 91.5288 70.1394 90.6776C67.0361 89.3595 68.4597 88.9302 65.9364 92.6963C65.6201 93.1708 65.9364 93.4495 69.5292 94.8806C70.4557 95.2195 71.8416 92.0259 71.7211 92.523L71.6985 92.5456ZM71.3294 103.091C72.3387 101.584 72.4969 101.298 71.6533 101.23C71.352 101.23 71.3294 101.162 68.8815 100.274C68.4371 100.108 68.3166 100.492 67.9701 101.245C67.9462 101.313 67.9459 101.386 67.9692 101.454C67.9925 101.521 68.0379 101.579 68.0982 101.618C68.1585 101.656 68.23 101.673 68.3012 101.665C68.3723 101.658 68.4388 101.627 68.4898 101.577C68.7685 101.268 68.7911 101.027 69.0246 101.117C71.6232 102.142 71.2842 101.667 70.7193 102.827C70.6289 103.03 71.0206 103.505 71.352 103.038L71.3294 103.091ZM69.7326 84.0343C72.4668 80.5469 71.6458 82.0006 66.8177 79.2438C66.5842 79.1082 66.4411 79.1986 66.1247 79.6656C64.3471 82.2943 63.8651 81.6692 69.0999 84.1322C69.2089 84.1903 69.3353 84.2071 69.4557 84.1795C69.5762 84.1518 69.6825 84.0815 69.7552 83.9815L69.7326 84.0343ZM68.9116 97.0649C69.7703 95.6338 70.162 96.1761 65.6577 94.1349C65.3188 93.9843 64.9045 94.4512 64.8292 94.5266C63.0893 97.9989 62.788 96.5904 67.2922 98.6617C68.3241 99.076 68.6555 97.0122 68.9342 97.0122L68.9116 97.0649ZM68.5877 85.7064C68.9191 85.1867 68.1433 84.8779 67.94 84.7724C63.8651 82.5655 64.1739 81.9102 62.4867 85.4654C62.4385 85.5685 62.4235 85.684 62.4437 85.7959C62.464 85.9079 62.5185 86.0108 62.5997 86.0905C63.9346 86.9379 65.347 87.6566 66.8177 88.2372C67.3449 88.0866 68.5877 85.6537 68.6103 85.6537L68.5877 85.7064ZM64.7539 92.0786C66.6218 88.9904 67.119 89.1109 64.0006 87.7702C61.982 86.8965 61.741 86.6479 61.4397 87.0999C59.1801 90.8659 59.1424 90.0223 61.8163 91.3405C63.9404 92.3196 64.2417 92.9222 64.7765 92.0259L64.7539 92.0786ZM62.7277 95.7769C63.85 93.1557 64.8593 93.8487 61.6506 92.3347C57.9523 90.5872 59.7224 90.994 57.4477 93.4796C56.7622 94.2328 57.9071 94.5416 58.2536 94.6998C61.5376 96.1535 62.2607 96.8841 62.7352 95.7242L62.7277 95.7769ZM61.6732 97.9763C62.2005 96.9369 60.6112 97.0649 57.0108 94.9634C56.5061 94.6697 55.7077 95.92 56.0843 96.1686C56.5739 96.4925 56.5739 95.7468 56.8376 95.8748C60.1592 97.3285 58.811 96.6958 60.2798 97.321C61.2439 97.7277 61.0932 97.4415 60.4681 98.9103C60.4681 99.2116 60.4681 99.2492 60.6413 99.317C61.1309 99.4375 61.5527 98.2023 61.6958 97.9236L61.6732 97.9763Z" fill="#FFEE99"/>
<path id="Vector_11" d="M132.287 106.089C132.686 106.187 133.733 106.473 133.424 106.736C132.784 107.271 130.728 106.488 132.287 106.089Z" fill="#BF8686"/>
<path id="Vector_12" d="M133.116 107.452C131.79 111.384 128.19 114.555 127.723 114.577C127.658 114.583 127.593 114.57 127.536 114.54C127.479 114.509 127.432 114.463 127.4 114.407C127.368 114.351 127.353 114.286 127.357 114.222C127.361 114.157 127.383 114.095 127.421 114.043C127.851 113.289 129.975 112.378 131.474 107.52C131.662 106.917 131.466 107.339 133.116 107.452Z" fill="#BF8686"/>
<path id="Vector_13" d="M131.586 125.831C127.504 129.65 123.617 128.324 123.15 128.301C121.215 128.233 115.739 123.277 115.52 123.029C111.129 117.628 114.285 111.61 118.059 109.524C123.889 106.307 129.251 111.309 128.333 112.333C127.579 113.199 127.029 113.84 126.751 113.35C126.562 113.026 126.231 112.86 125.998 112.597C125.9 112.491 125.696 112.642 125.681 112.423C125.357 112.552 125.628 112.785 125.365 112.777C125.47 113.184 126.118 113.448 126.495 114.608C126.819 115.557 127.248 115.301 129.274 115.979C129.33 115.997 129.391 115.996 129.447 115.975C129.502 115.954 129.549 115.914 129.578 115.863C129.608 115.811 129.618 115.751 129.608 115.692C129.598 115.634 129.568 115.581 129.523 115.542C128.446 114.653 128.212 115.24 129.952 113.418C130.622 112.68 139.563 118.396 131.586 125.831Z" fill="#FFCCCC"/>
<path id="Vector_14" d="M119.076 127.164C119.332 127.382 119 127.269 117.938 127.743C117.261 128.113 114.798 127.45 113.238 127.525C111.092 127.623 111.107 128.113 108.546 127.525C105.405 126.84 104.027 129.28 99.1984 128.015C97.692 127.63 96.8785 128.361 95.8466 128.821C94.4833 129.431 89.5648 129.514 88.9923 129.446C87.0792 129.205 83.3583 130.35 79.7428 129.913C77.1216 129.596 77.2949 128.15 74.0862 129.996C73.1974 130.508 72.9789 130.184 72.5797 130.583C72.2164 130.892 71.7539 131.061 71.2767 131.058C67.6989 130.975 67.5106 131.811 66.3054 131.397C62.4942 130.078 61.9142 129.197 60.7316 129.355C60.1517 129.431 59.2252 129.672 58.9993 129.664C52.4011 129.393 53.8548 128.158 51.1507 129.355C50.149 129.792 48.9739 129.212 46.6314 128.858C43.1666 128.323 42.8654 128.723 41.9238 127.774C41.6 127.45 41.6301 126.825 41.2761 126.651C39.3704 125.717 38.9486 126.727 38.2632 126.757C37.1445 126.862 36.0159 126.747 34.9415 126.418C34.3917 126.169 33.9699 125.205 33.307 125.424C30.8968 125.288 32.0642 125.695 29.9854 125.009C29.1719 124.746 29.4807 124.309 28.5919 124.128C28.0195 124.008 26.739 123.97 26.2268 123.879C21.7075 123.126 23.5228 118.675 23.4173 117.989C23.229 116.739 23.8918 116.483 24.1705 115.195C24.4492 113.907 25.7448 112.995 25.677 113.402C25.6705 114.21 25.9153 115 26.3775 115.662C28.8706 117.402 19.7266 103.445 36.7869 98.4358C36.8622 98.4358 41.4644 97.901 42.0594 97.9613C45.4263 98.3003 46.3302 99.302 47.4901 99.6334C49.3731 100.168 50.4201 100.635 52.7626 103.008C54.3519 104.59 53.8623 103.761 54.8264 106.021C56.6567 110.329 55.8583 111.12 56.6116 111.293C57.3648 111.466 56.8827 105.561 51.9793 101.155C48.8685 98.3605 43.5433 99.3246 48.9664 96.3268C49.0719 96.2666 49.3355 96.3268 49.3957 96.2741C49.5765 96.131 49.795 96.2063 49.9908 96.1385C52.3935 95.4832 51.3315 96.5227 52.9208 96.9294C54.1259 97.2458 53.4782 97.1704 53.9828 97.6073C54.3519 97.9161 54.736 97.8634 54.7963 98.2099C55.301 100.078 56.7396 98.9631 57.8092 99.4903C58.0728 99.6108 58.3289 99.7238 58.2385 100.116C58.1481 100.507 59.18 101.343 60.2421 100.831C60.4522 100.736 60.6912 100.727 60.9079 100.806C61.1246 100.885 61.302 101.045 61.402 101.253C61.4882 101.463 61.6158 101.653 61.7772 101.813C61.9386 101.972 62.1305 102.097 62.3414 102.181C62.5524 102.265 62.778 102.305 63.0048 102.3C63.2316 102.294 63.455 102.243 63.6617 102.149C63.9253 101.976 63.9479 102.014 65.5748 102.722C66.6745 103.196 65.6652 104.469 68.1358 104.183C68.6856 104.123 68.2789 103.43 69.0848 103.761C70.7344 104.469 70.6666 104.379 70.7796 104.672C70.869 105.03 71.0805 105.346 71.3775 105.564C71.6744 105.783 72.0383 105.891 72.4065 105.87C73.1597 105.742 73.1597 105.298 73.7322 105.501C75.8562 106.217 75.9918 106.126 76.3232 106.578C76.8053 107.331 77.9351 107.844 78.7034 107.211C79.0047 106.97 79.1177 107.264 80.9178 107.572C81.6711 107.708 81.6711 108.74 83.4185 108.198C83.8554 108.062 83.7047 107.67 84.0813 107.761C85.0379 107.972 85.1961 107.979 85.2714 108.228C85.4748 108.981 86.115 108.137 83.893 109.403C83.4033 109.778 82.9784 110.231 82.6352 110.743C81.4225 112.295 81.5053 112.205 81.9272 112.589C82.0025 112.657 82.1079 112.589 82.1832 112.544C83.4487 111.414 83.6897 109.915 86.0397 109.35C86.5844 109.146 87.093 108.856 87.5461 108.491C87.6441 108.363 87.9755 108.423 88.0809 108.431C89.158 108.529 88.7362 108.431 89.4668 108.883C90.0318 109.222 90.2803 108.567 91.4553 108.213C92.073 108.024 92.0579 107.512 92.2085 105.772C92.2085 105.441 95.3721 105.117 95.7713 105.124C98.8745 105.17 96.9613 105.32 100.961 106.141C105.134 107 103.868 108.228 106.068 109.116C106.761 109.395 108.086 109.531 109.081 111.022C110.075 112.513 110.391 112.062 110.436 113.206C110.579 114.103 110.497 114.577 111.852 116.468C112.048 116.747 112.666 116.468 112.538 116.957C112.033 118.803 113.442 122.817 116.417 124.911C116.673 125.039 119 127.096 119.076 127.164Z" fill="#EEE5FF"/>
</g>
<g id="Ink">
<path id="Vector_15" d="M25.1494 110.924C24.5242 108.205 26.9647 101.886 32.7795 99.1366C41.5846 94.9714 45.0117 98.7751 45.9758 97.6302C48.5292 94.6173 51.5045 95.3706 51.6476 94.8433C51.8735 93.9997 51.8735 93.7286 52.3255 93.3971C53.4628 92.5611 52.7096 91.5367 53.0109 91.1827C53.3122 90.8287 53.3875 90.0001 54.0805 89.8269C54.4947 89.729 55.0596 88.3205 54.329 88.3205C25.4356 88.0794 11.0115 88.3807 5.94993 88.215C2.74123 88.1171 3.33627 87.4091 6.00266 87.3337C15.3124 87.0626 51.6928 87.3337 54.9617 87.3337C55.037 87.2584 56.5058 86.0382 56.5058 85.0741C56.5058 83.3643 57.259 83.7861 57.5302 83.2965C57.598 83.112 57.6763 82.9304 57.7637 82.7542C57.9219 82.5132 58.1252 82.4604 58.1252 82.114C58.1252 80.6527 58.3361 81.0595 58.7654 80.3213C59.0517 79.8242 60.0535 77.8056 60.0535 76.962C60.0535 75.6363 60.8745 75.7643 61.5599 74.853C62.396 73.6779 61.4243 73.1432 62.5315 72.2167C64.1359 70.876 63.3902 69.8742 63.9928 68.7896C64.1735 68.4657 64.5577 68.4657 64.8062 68.2246C64.975 67.9942 65.109 67.7403 65.2055 67.4714C66.0641 65.8068 65.7252 66.8689 65.7252 65.5055C65.7252 62.9069 67.8794 64.9557 67.8794 61.1745C67.8794 59.9242 69.9733 57.883 70.139 57.6495C70.7793 56.4971 70.4252 56.2937 70.6964 55.7363C70.9452 55.2752 71.2832 54.8681 71.6906 54.5387C71.6906 53.7855 72.1802 53.8834 72.1802 52.377C72.1914 51.9847 72.3253 51.6059 72.5631 51.2937C72.801 50.9816 73.1307 50.7519 73.5059 50.637C73.6261 50.4922 73.718 50.3262 73.7771 50.1475C73.9202 49.8838 74.1838 49.7633 74.1838 49.3942C74.1838 46.3362 75.0726 47.7522 75.7881 46.3211C76.1045 45.9588 76.3131 45.5152 76.3907 45.0406C76.3907 41.7642 77.1439 44.1519 78.1005 41.3348C78.575 39.9414 77.9499 40.7925 78.3641 39.6024C78.5976 38.7287 78.8613 38.8492 79.2605 38.5856C80.5183 37.5838 80.0664 37.2599 80.0664 36.808C80.2698 35.0078 81.136 35.7912 81.5126 34.7743C82.1754 33.3809 81.6708 34.104 81.6934 33.1775C81.7385 31.4903 83.1998 32.5147 83.6818 30.2249C83.7798 29.7805 83.6818 28.8691 84.194 28.3042C84.3597 28.1309 84.6836 28.0707 85 27.551C85.4971 26.7074 85.5649 25.0729 86.0921 24.636C86.2729 24.4854 86.4838 24.4778 86.6119 24.2293C88.2087 21.0131 86.6119 21.7512 88.1183 20.531C88.4422 20.2674 89.0447 19.6347 89.0447 19.1225C89.0447 17.2394 89.4665 18.0228 90.0315 16.9833L90.7847 15.1606C91.1839 13.6541 91.6961 14.9045 92.2158 12.6825C92.3137 12.2682 92.2158 11.3794 92.6376 10.9426C92.9012 10.6789 93.308 10.7166 93.677 10.114C94.6713 8.51719 94.5508 6.5287 96.494 6.89778C96.864 6.91359 97.2245 7.02009 97.5436 7.20791C97.8628 7.39573 98.1309 7.65911 98.3244 7.97488C98.8154 8.89816 98.9647 9.96512 98.7462 10.9877C98.7462 11.402 99.0173 11.741 99.0173 12.3812C99.0173 13.3152 98.4976 13.0516 98.4976 14.912C98.4976 15.5146 99.0776 15.7556 99.0776 16.893C99.0776 18.0303 98.2867 16.7273 98.2867 20.659C98.2867 21.3746 98.7914 21.9621 98.7914 22.6852C98.7914 23.9355 98.1963 23.6342 98.1361 24.5004C98.0939 25.6303 98.1752 26.7616 98.3771 27.8749C98.3771 28.5678 97.6841 28.4925 97.6841 30.5488V31.1965C97.6841 31.8443 98.0909 31.7539 98.0909 32.3941C98.0909 34.232 97.7896 33.5842 97.5712 34.1642C97.4689 34.6192 97.4158 35.0838 97.413 35.5501C97.1192 36.1753 97.6917 36.7327 97.6917 37.3503C97.6917 39.2032 96.9912 38.1035 96.9912 40.0092C96.9912 41.7943 97.4883 41.1239 97.4883 42.3818C97.4883 44.0238 96.7351 42.9316 96.7351 46.1102C96.7351 46.5471 97.0439 47.0065 97.0439 47.6166C97.0439 48.4151 96.5242 48.4301 96.4865 48.9574C96.2229 52.5879 96.6899 50.9233 96.6899 52.5954C96.6899 54.2676 96.1325 52.8138 96.1325 55.4878C96.1325 56.3841 96.4865 56.241 96.4865 57.0996C96.4865 58.109 95.7333 58.0035 95.7333 59.0957C95.7333 61.2122 96.2229 60.459 96.2078 61.4382C96.2078 63.0425 95.4094 61.7621 95.2362 64.6845C95.2362 65.0611 96.6296 66.0328 95.4697 67.4338C94.7165 68.3226 95.0554 67.366 95.0705 69.9043C95.0705 70.4542 95.5299 70.7856 95.5299 71.6593C95.5299 72.9699 94.483 72.6987 94.5658 73.8512C94.5658 75.6288 95.1533 74.288 95.1533 76.2313C95.1533 77.7378 94.4001 77.3838 94.4001 78.25C94.4001 78.9278 94.8294 79.4024 94.8294 80.2083C94.8294 81.9934 93.9482 81.2402 93.9482 83.289C93.9482 85.1645 94.6487 84.1175 94.4754 85.88C94.4754 87.0174 93.8051 86.4751 93.8051 87.3337C96.6372 87.394 109.397 87.5672 140.715 87.5672C141.356 87.5672 141.295 88.2753 140.482 88.1849C135.322 88.1849 131.797 88.3129 129.545 88.3129H109.118C93.7147 88.3129 93.7373 87.5597 93.7373 88.8628C93.7373 90.5123 94.1591 89.9775 94.1591 91.1224C94.1591 92.3803 93.1422 91.9434 93.1422 95.0768C93.1422 95.8903 93.7298 96.0937 93.7298 97.2687C93.7298 98.4437 92.9765 98.0821 92.7355 100.138C92.4342 101.803 94.0612 100.741 93.2402 103.422C92.9464 104.379 92.6752 104.078 92.374 104.402C91.3421 105.547 93.3079 104.53 96.4263 104.522C98.3545 104.522 98.7537 105.049 99.8459 105.321C100.938 105.592 101.736 105.373 104.049 106.646C105.322 107.226 105.081 108.025 106.256 108.484C109.351 109.704 108.553 109.29 110.172 111.188C112.432 113.885 109.946 112.182 112.432 115.835C112.839 116.446 112.831 115.512 113.298 114.276C116.409 106.036 126.261 106.405 128.717 111.03C129.395 112.303 130.464 109.094 130.803 107.701C131.021 106.835 131.187 105.622 132.174 105.622C132.72 105.671 133.242 105.872 133.68 106.202C134.434 106.955 133.899 107.354 133.68 108.025C132.979 109.734 132.024 111.329 130.848 112.755C130.848 113.116 135.706 114.6 135.706 119.624C135.706 124.143 130.366 129.499 125.116 129.499C123.271 129.499 120.522 128.098 120.446 128.098L119.188 128.294C115.422 129.393 116.048 128.294 113.991 128.294C112.824 128.294 111.679 128.633 110.511 128.633C109.005 128.633 108.53 128.196 107.755 128.196C106.791 128.196 104.531 129.326 101.187 129.326C99.2056 129.326 99.1906 128.828 98.3846 128.828C96.9836 128.828 96.6673 129.725 95.2663 130.034C93.5113 130.425 91.2215 130.207 90.506 130.41C88.6606 130.937 90.2047 129.943 86.1223 130.629C76.0141 132.331 79.1927 128.369 73.0389 131.276C72.4891 131.532 72.3233 131.969 71.186 131.969C70.5608 131.969 70.1466 131.864 69.8679 131.864C69.0544 131.864 68.3614 132.308 67.2015 132.308C64.6029 132.308 62.3432 130.267 60.9347 130.267C60.1438 130.267 59.3304 130.644 58.6223 130.644C53.9298 130.644 53.3875 129.725 53.0034 129.725C52.6192 129.725 51.6099 130.425 50.1713 130.425C49.418 130.425 45.9457 129.755 45.0419 129.672C40.6883 129.363 41.321 127.691 40.8992 127.269C39.7919 126.561 39.5886 127.571 37.9767 127.571C36.1388 127.571 34.5571 127.676 33.706 126.509C33.3293 125.996 33.4499 126.426 32.1995 126.426C31.0998 126.426 31.612 126.185 30.9567 126.185C30.3065 126.206 29.6677 126.01 29.1415 125.627C28.087 125.032 29.4202 124.874 27.635 124.874C26.403 124.913 25.1886 124.574 24.1552 123.902C21.7223 122.034 22.822 119.956 22.822 117.877C22.7727 117.179 22.9878 116.488 23.4246 115.941C23.8915 114.63 23.3492 114.434 24.931 113.109C25.4808 112.499 25.6013 112.943 25.1494 110.924ZM133.417 106.729C133.703 106.488 132.535 105.976 131.873 106.209C131.21 106.443 132.784 107.256 133.417 106.729ZM133.115 107.482C131.466 107.369 131.662 106.94 131.473 107.55C129.628 113.516 126.555 113.892 127.504 114.547C128.152 114.962 131.971 110.842 133.115 107.452V107.482ZM131.609 125.853C139.548 118.449 130.69 112.664 129.959 113.425C128.204 115.233 128.453 114.66 129.53 115.549C129.582 115.585 129.619 115.638 129.634 115.7C129.648 115.761 129.638 115.826 129.607 115.881C129.575 115.935 129.524 115.976 129.464 115.994C129.403 116.012 129.338 116.007 129.282 115.979C127.27 115.308 126.826 115.557 126.502 114.608C126.095 113.448 125.478 113.184 125.372 112.777C125.651 112.777 125.372 112.566 125.689 112.431C125.689 112.642 125.907 112.491 126.005 112.604C127.15 113.862 127.045 113.779 128.348 112.333C128.928 111.693 125.817 107.55 120.318 108.657C115.535 109.614 109.517 117.086 116.658 124.128C119.979 127.39 125.952 131.081 131.586 125.823L131.609 125.853ZM117.961 127.774C119.023 127.299 119.347 127.412 119.098 127.194C119.023 127.126 116.695 125.062 116.492 124.934C113.615 122.886 112.093 118.909 112.62 116.98C112.748 116.513 112.131 116.777 111.927 116.491C110.572 114.585 110.655 114.073 110.511 113.229C110.474 112.092 110.165 112.529 109.156 111.045C108.146 109.561 106.813 109.418 106.143 109.139C103.951 108.251 105.179 107.015 101.043 106.164C97.0439 105.351 98.9495 105.193 95.8538 105.147C95.5149 105.147 92.3212 105.456 92.2836 105.795C92.1405 107.301 92.1555 108.055 91.5304 108.235C90.3403 108.59 90.0993 109.245 89.5343 108.906C88.7811 108.477 89.233 108.552 88.156 108.454C88.043 108.454 87.7191 108.386 87.6212 108.514C87.1675 108.878 86.6591 109.168 86.1147 109.373C83.7722 109.938 83.5237 111.437 82.2658 112.566C82.1829 112.642 82.0775 112.679 82.0097 112.612C81.5653 112.205 81.5201 112.288 82.7177 110.766C83.058 110.254 83.4805 109.801 83.9681 109.426C86.2277 108.16 85.5574 108.981 85.3465 108.251C85.2787 108.002 85.1205 107.994 84.1639 107.784C83.7798 107.693 83.9304 108.085 83.4935 108.22C81.7762 108.755 81.716 107.723 81.0004 107.595C79.2002 107.286 79.0797 106.993 78.7859 107.234C78.0327 107.866 76.8803 107.317 76.4058 106.601C76.097 106.149 75.9388 106.239 73.8147 105.524C73.2121 105.321 73.2272 105.765 72.4815 105.893C72.1134 105.914 71.7495 105.806 71.4525 105.587C71.1555 105.368 70.9441 105.053 70.8546 104.695C70.7491 104.402 70.8169 104.492 69.1598 103.784C68.3614 103.438 68.7682 104.146 68.2108 104.206C65.7478 104.484 66.7495 103.219 65.6498 102.745C64.0229 102.037 64.0078 101.991 63.7367 102.172C63.5302 102.267 63.3067 102.319 63.0795 102.325C62.8523 102.332 62.6262 102.291 62.415 102.208C62.2037 102.124 62.0117 101.998 61.8505 101.838C61.6892 101.678 61.5622 101.486 61.477 101.276C61.3764 101.069 61.199 100.909 60.9825 100.83C60.766 100.751 60.5273 100.76 60.3171 100.854C59.2475 101.366 58.2382 100.432 58.306 100.138C58.3738 99.8447 58.1478 99.6338 57.8842 99.5132C56.8297 99.0161 55.4061 100.108 54.8713 98.2328C54.7734 97.8863 54.4269 97.9315 54.0578 97.6227C53.5231 97.1783 54.2311 97.2988 52.9958 96.9523C51.4367 96.523 52.3631 95.5363 50.0658 96.1614L49.0339 96.3497C43.6409 99.3626 48.951 98.3834 52.0468 101.178C52.6795 101.75 53.6285 102.797 53.847 102.955C55.263 103.995 56.8598 108.77 56.9954 110.653C56.8749 110.729 56.8975 110.759 56.9954 110.789C57.0933 110.819 56.9502 111.376 56.6564 111.316C55.9032 111.173 56.6941 110.382 54.8638 106.044C53.8997 103.784 54.3893 104.613 52.8075 103.031C50.4575 100.688 49.403 100.199 47.4898 99.6564C46.3223 99.3174 45.3959 98.3232 42.0591 97.9842C41.4867 97.924 36.8921 98.4361 36.7866 98.4587C28.9833 100.718 28.3431 103.807 26.8442 106.511C24.6523 110.465 27.7932 116.672 26.3772 115.685C25.907 115.026 25.6614 114.234 25.6767 113.425C25.6767 113.018 24.3736 113.967 24.125 115.218C23.8765 116.468 23.2136 116.762 23.3718 118.012C23.4773 118.765 21.6319 123.059 26.1813 123.902C26.6935 124 27.9137 124.023 28.5389 124.151C29.4352 124.332 29.1264 124.769 29.9399 125.032C32.0112 125.71 30.8513 125.311 33.2616 125.446C33.9319 125.228 34.3387 126.2 34.896 126.441C35.9724 126.76 37.0995 126.872 38.2177 126.772C38.9257 126.772 39.3249 125.733 41.2306 126.674C41.5695 126.84 41.5545 127.427 41.8783 127.797C42.8274 128.753 43.1212 128.346 46.5935 128.881C48.8983 129.235 50.0733 129.815 51.0751 129.378C54.1558 128.038 53.4477 130.357 60.656 129.378C61.8461 129.213 62.4186 130.131 66.2374 131.419C67.4425 131.841 67.6233 130.99 71.2086 131.081C71.6858 131.084 72.1483 130.915 72.5117 130.606C72.9259 130.207 73.1443 130.531 74.0181 130.019C77.2343 128.166 77.0309 129.619 79.6747 129.936C83.2902 130.365 87.0111 129.235 88.9242 129.469C89.4439 129.529 94.3775 129.469 95.771 128.843C96.8104 128.384 97.6465 127.653 99.1303 128.038C104.102 129.333 105.156 126.817 108.478 127.548C111.031 128.105 111.016 127.616 113.17 127.548C115.324 127.48 114.308 127.668 116.349 127.842C116.88 127.851 117.412 127.818 117.938 127.744L117.961 127.774ZM98.1361 12.2833C98.2114 12.0046 98.0833 11.6054 97.7218 11.6054C97.3603 11.6054 94.8897 9.58676 94.4528 10.5207C94.3549 10.7317 94.2419 10.8672 94.4528 10.9727C96.7125 12.1251 95.3266 12.4791 92.1329 14.3923C91.5304 14.7538 92.1932 15.3564 92.5924 15.379C94.0687 16.0757 95.5051 16.8553 96.8933 17.714C97.1192 18.7157 94.257 19.371 94.1666 19.4238C93.3456 19.8983 92.728 18.9492 90.4005 18.2638C90.039 18.1508 89.7151 18.7459 90.0616 18.9718C90.1595 19.0396 91.4927 19.7251 91.568 19.7251C92.9615 20.2448 89.3084 21.9244 89.1879 21.4499C89.105 21.126 91.1236 20.3427 90.8073 20.1845C89.9034 19.7326 89.8055 19.6949 89.7528 19.7928C89.2481 20.6214 89.2406 21.0884 88.5401 21.3821C88.0053 21.6006 88.0505 24.7415 86.6947 25.344C86.4763 25.4344 86.303 25.796 86.6947 25.924C88.8941 26.6772 89.3536 27.3401 89.7678 27.0614C91.3948 25.9767 92.1254 25.8788 91.681 25.6679C87.9149 23.8828 89.0523 24.3649 88.2539 24.6586C87.8999 24.7867 87.8019 24.4703 87.93 24.169C88.4949 22.8735 90.5813 24.4402 92.6677 25.2085C92.9012 25.2913 92.6677 25.3892 92.7732 25.5775C93.1422 26.3308 89.4891 28.0481 88.8414 27.7091C86.3934 26.4663 86.303 26.5718 86.2352 26.8505C85.8737 28.3569 89.6699 27.7393 87.1466 29.2758C85.0376 30.5488 85.1431 30.5262 84.7815 30.5714C83.8551 30.6994 84.661 31.8669 83.0491 32.4996C81.9269 32.944 82.9362 33.4261 82.3562 34.2395C81.6783 35.181 81.8063 35.1208 84.9171 36.695C85.5799 37.0264 85.6025 37.7646 85.3615 37.9303C83.8024 38.9999 83.2977 39.2936 83.26 39.3614C82.5068 40.5967 80.6614 38.2768 80.1041 39.0601C79.7877 39.5271 79.4563 39.2409 81.0607 40.092C81.7687 40.4686 81.0607 40.8904 80.6238 41.3198C79.4488 42.3893 79.381 42.6078 78.5524 42.8262C78.2135 42.909 78.1834 43.0522 77.5959 43.8506C77.4151 44.0991 77.159 43.8506 77.2192 44.5059C77.3096 45.5227 75.9463 47.3003 75.7128 47.5187C75.2006 48.0761 74.8165 48.2719 75.1253 48.9423C76.5639 47.8351 75.3437 47.3681 79.4262 49.5223C80.8949 50.2755 80.9778 49.9441 78.673 52.1209C78.5675 52.2188 78.4922 52.3243 78.334 52.3167C78.3093 52.3187 78.2857 52.3275 78.2658 52.3421C78.2458 52.3567 78.2303 52.3766 78.221 52.3996C78.1834 52.7009 77.852 52.6406 77.7239 52.8138C77.0533 52.6335 76.4043 52.381 75.7881 52.0606C74.4625 51.3978 74.5077 51.202 73.8373 51.3677C72.12 51.797 77.385 53.1227 76.6468 53.8834C72.7225 57.9357 74.1763 55.0961 71.9317 55.2995C71.8639 55.2995 71.5475 55.6083 71.5701 55.6459C72.0221 56.0082 72.5312 56.2937 73.0766 56.4895C74.0105 56.8887 71.9392 58.1692 71.3442 59.2463C71.2981 59.336 71.2317 59.4138 71.1504 59.4734C71.069 59.533 70.9748 59.5727 70.8754 59.5896C70.7759 59.6064 70.6739 59.5998 70.5775 59.5703C70.481 59.5407 70.3928 59.4891 70.3198 59.4195C69.8829 59.1032 69.8302 59.3066 69.5666 59.6832C69.3029 60.0598 70.4554 60.1125 70.139 60.6096C69.8355 61.127 69.4602 61.5987 69.0243 62.0106C68.7983 62.1613 68.61 63.3513 67.9246 63.8409C66.5612 64.8201 66.7571 64.5941 66.7571 66.2286C66.7571 66.4019 66.9454 66.2286 66.9981 66.1684C68.1957 64.5791 68.2334 64.3682 69.6268 65.1063C73.069 66.9366 74.0331 67.2304 73.3176 68.0363C71.8112 69.7235 71.6228 70.296 71.0579 69.957C69.4084 68.9553 67.1186 68.2171 66.6893 67.4865C66.516 67.1927 66.2298 67.6899 66.0717 67.9836C65.8382 68.4356 70.591 70.3638 70.591 70.7253C70.5981 70.9266 70.5629 71.1272 70.4877 71.314C70.4124 71.5009 70.2988 71.6698 70.1541 71.81C69.1071 73.0829 68.7983 73.5875 68.2259 73.3164C63.925 71.5087 64.2338 71.2149 64.0229 72.0886C63.9626 72.3447 63.9702 72.3447 64.1886 72.4577C68.6175 74.7626 68.3614 73.8436 66.6592 76.2765C65.7779 77.5269 66.1545 77.7302 63.9325 76.4874C62.4261 75.6514 62.2152 75.4028 62.0344 75.7342C61.6879 76.3518 61.01 76.3518 61.0552 77.1653C61.0552 78.8073 59.1496 78.1671 62.6144 80.133C62.9835 80.3439 62.9383 80.1857 63.6312 79.2668C64.7309 77.7604 64.3844 78.8827 61.5825 76.9168C61.4243 76.8264 61.5298 76.6908 61.5825 76.6155C61.7934 76.2991 61.9892 76.4196 63.4957 77.2256C64.8364 77.9788 65.4239 78.0993 64.8966 78.732C62.7801 81.3306 63.2697 81.3231 61.1757 80.1782C60.174 79.6283 60.1363 79.4777 60.0384 79.6811C59.8727 80.02 59.82 80.133 60.1212 80.3062C63.1341 81.9708 62.5391 81.9407 61.9214 82.8898C60.9121 84.3962 60.769 84.9084 60.2644 84.7201C58.4039 83.9669 58.5395 83.6806 57.6206 84.2531C56.7016 84.8255 60.3623 85.2323 59.8802 86.219C59.5262 86.8969 58.8332 88.0116 58.3738 88.8628C57.9143 89.7139 57.6206 89.0511 56.9577 88.8628C56.2045 88.6443 55.9635 88.2527 55.5944 88.2527C55.5944 88.5389 55.8354 88.4711 55.5944 89.0511C55.489 89.2846 55.7149 89.2846 56.3476 89.5783C57.8541 90.2562 57.7787 89.9399 56.4305 92.2598C56.2422 92.5761 56.1066 93.367 55.3835 93.1561C54.6604 92.9452 54.1407 92.2899 53.8771 92.7494C53.1841 94.0976 55.4287 93.5553 55.0747 94.655C54.6529 95.9581 53.7716 96.0861 54.0805 95.1295C54.1482 94.9262 54.3667 94.5496 54.1859 94.4667C52.2275 93.5478 52.9054 94.5722 52.4384 95.2199C52.1221 95.6718 53.2896 96.2142 53.8018 96.1464C53.9527 96.125 54.1062 96.1611 54.2318 96.2477C54.3574 96.3342 54.4458 96.4647 54.4797 96.6134C54.7132 97.3666 55.5116 96.99 55.7074 97.939C55.8204 98.4964 56.1217 98.6922 56.6414 98.4286C57.3343 98.1273 59.3228 98.9333 59.1496 99.6262C59.0065 100.545 60.1664 99.6262 60.9422 99.92C61.8988 100.274 61.6051 100.387 62.7198 98.3081C62.8088 98.1333 62.9625 98 63.1481 97.9367C63.3338 97.8734 63.5368 97.885 63.7141 97.9692C67.8266 99.7844 67.676 99.212 66.7269 100.681C66.629 100.831 66.1771 100.816 66.2148 100.47C66.2976 99.679 66.8851 100.153 64.3091 99.0086C63.4203 98.6094 63.4053 98.5341 63.2471 98.8128C63.0889 99.0915 62.396 100.41 62.2754 100.538C62.1549 100.666 62.4411 101.185 62.75 101.336C63.2546 101.585 63.2094 100.907 64.1585 101.133C64.2338 101.133 66.8625 102.052 66.968 102.82C66.968 103.061 67.4726 103.573 67.8492 103.099C68.0225 102.865 68.2033 102.624 68.5347 102.669C69.6012 102.949 70.6286 103.361 71.5927 103.897C71.781 104.01 71.9241 103.694 72.7527 102.15C73.1519 101.396 72.9334 101.554 74.8541 102.24C76.7748 102.925 76.7221 102.827 75.9538 104.04C75.7279 104.402 75.5396 104.793 75.2006 104.65C74.8617 104.507 75.1404 104.123 75.4115 103.573C75.6827 103.023 75.4944 103.249 73.5586 102.609C73.3025 102.526 73.408 102.481 72.0898 104.673C71.9995 104.823 72.0899 104.936 72.5041 104.733C73.1444 104.379 72.6472 104.146 75.0952 104.959C77.5431 105.772 76.6016 105.426 77.1741 106.126C77.4678 106.488 77.8444 106.571 78.1382 106.33C78.8914 105.705 79.8178 106.556 81.151 106.541C81.3996 106.541 81.3619 106.45 81.8666 105.644C82.9964 103.814 84.0735 105.049 85.9038 105.177C86.2729 105.177 86.3407 105.629 86.2955 105.803C85.9792 107.068 85.3088 106.985 85.6101 107.121C86.3633 107.475 85.8511 108.514 86.9508 107.678C87.5458 107.241 88.2388 107.52 88.5928 107.505C89.5419 107.46 89.5042 108.183 89.9486 107.829C90.393 107.475 90.0089 107.52 90.9956 107.128H91.1086C91.44 106.624 91.1086 106.797 90.4156 106.729C89.5419 106.556 88.6079 106.548 88.3744 106.503C87.7643 106.383 87.7191 107.693 87.1466 107.015C86.8303 106.39 88.7284 105.418 89.3686 105.968H89.4816C90.988 105.833 91.3948 106.48 91.4475 105.509C91.4475 105.177 91.2291 105.313 90.8751 105.268C88.6154 104.959 89.2104 105.125 88.7133 104.597C89.1039 103.933 89.5633 103.312 90.0842 102.745C91.2065 101.645 92.5321 102.978 92.5698 102.278C92.6376 101.223 91.568 101.524 91.8166 100.553C92.4945 98.0972 90.8449 100.432 90.634 100.5C89.5645 101.005 87.5609 100.244 86.9282 100.282C86.6947 100.282 86.0771 100.161 86.2428 99.9125C86.4085 99.6639 86.5441 99.5735 87.0939 98.9408C88.6003 97.1933 88.1635 97.5398 89.2105 97.0201C89.4138 96.9146 94.257 98.4361 92.728 96.4929C92.2911 95.943 87.2747 97.698 91.9748 93.7813C92.9087 93.0281 91.9296 93.0281 93.1498 91.3484C93.5866 90.8362 93.1498 89.7817 92.2685 89.5783C88.9845 88.8251 89.8281 88.5314 88.3669 90.0754C87.8245 90.6479 92.7882 90.8287 92.0576 91.7325C91.6283 92.2523 91.0031 91.8455 90.5512 91.7325C86.9433 90.6554 86.8454 90.7308 87.5383 90.0152C89.6699 87.8158 89.1351 88.0794 92.6752 88.9456C92.9389 89.0134 92.9765 88.8778 92.9765 88.1924C92.9765 87.507 89.9637 87.9137 90.7169 86.9421C91.1679 86.3397 91.75 85.8478 92.4192 85.5034C92.6075 85.4582 92.6225 85.8273 92.5472 85.9328C91.907 86.8517 91.0408 86.8216 92.5472 87.0325C93.4511 87.0325 92.7882 86.7086 93.5415 85.9554C93.6017 85.9026 93.677 85.8424 93.6921 85.7746C93.9181 84.6071 93.3155 84.9234 93.4963 84.5092C93.564 84.3661 92.9615 84.2305 93.195 83.6957C93.6017 82.7843 92.9313 82.9425 90.8675 82.3399C89.4891 81.9257 87.5157 81.5189 87.9978 81.0067C89.2782 79.666 90.4081 78.3102 91.2743 78.491C93.8729 79.0333 93.8578 79.1387 93.7523 78.5512C93.549 77.3386 89.7302 78.4609 93.3908 75.5384C93.662 75.3275 93.677 74.9659 93.9105 74.74C93.9324 74.4894 93.9324 74.2373 93.9105 73.9867C93.8427 73.0678 88.0957 73.0226 89.5117 71.7271C93.2778 68.3 91.1086 68.9779 94.1064 69.8139C94.483 69.9194 94.3474 69.3846 94.3323 69.2415C94.2871 68.4883 92.8259 68.6992 93.3381 68.1117C93.8503 67.5242 94.4378 68.3226 94.385 67.7878C94.385 67.0346 95.1985 66.5374 95.2287 66.1382C95.2814 65.4603 94.3549 65.4754 94.5733 64.6318C94.7842 63.3965 88.4271 62.7789 90.28 62.0407C90.7696 61.8449 90.7244 61.5512 92.6075 60.4665C92.9841 60.2481 93.1648 60.3912 94.9349 60.8582C95.417 60.9862 94.852 60.3309 94.9349 59.9167C95.0178 59.5024 94.4754 59.7208 94.4528 59.2237C94.4528 58.9149 94.9801 58.9827 94.95 58.3801C94.852 57.4235 96.2154 56.8737 95.3567 56.6101C89.0749 54.8475 91.0106 54.1847 88.9242 55.6836C86.8378 57.1825 88.3443 56.4368 91.0558 57.8001C92.9012 58.7115 93.2176 56.5423 94.6713 56.7456C94.8219 56.7456 94.4378 57.3934 93.9632 57.6495C92.0651 58.6814 93.21 59.3593 89.4063 57.9884C86.5064 56.9415 86.642 57.0394 86.6872 56.6703C86.7324 56.3012 88.0128 55.4576 88.0882 55.4124C89.7302 54.5086 89.2255 53.906 90.9353 54.3278C95.0931 55.4049 95.2362 56.5272 95.3341 54.9454C95.3432 54.9123 95.3447 54.8776 95.3386 54.8438C95.3318 54.8103 95.3178 54.7787 95.2975 54.7512C95.2772 54.7238 95.2511 54.7011 95.2211 54.6848C95.1908 54.669 95.1574 54.6602 95.1232 54.6592C94.5733 54.5613 91.6885 53.5746 91.6207 53.5671C91.553 53.5595 90.9202 53.2507 91.6961 52.6632C95.6354 49.6955 95.3492 51.4505 95.5601 49.5976C95.7107 48.2268 95.9442 48.1364 94.3022 49.0704C93.8126 49.349 93.8729 49.5976 88.0354 47.1722C87.5006 46.9463 87.9601 46.1931 88.3443 45.9596C91.2893 44.1594 89.0372 44.649 93.5339 45.6508C93.9181 45.7336 93.7298 45.7487 95.7936 46.5621C96.0723 46.6751 95.9065 46.3588 95.9065 45.8843C95.9065 45.5604 95.9065 45.5378 95.6279 45.4323C90.393 43.4966 90.9127 44.1217 93.9632 42.314C95.7484 41.2595 96.3359 41.5608 96.2907 41.1616C96.1702 40.1071 96.3886 40.8 91.8994 38.9019C89.4364 37.855 89.459 37.855 89.331 37.7345C88.7962 37.2223 89.5419 37.0792 89.7 36.9812C92.7129 35.2338 92.1781 35.0078 94.724 35.8439C95.2678 36.0924 95.8357 36.2868 96.4187 36.4239C96.4187 35.7535 96.5091 35.633 96.253 35.5577C91.8994 34.2169 97.4205 33.6068 97.3452 32.6201C97.3075 32.0627 96.946 32.2435 96.8707 31.4074C96.8029 30.7521 90.0917 29.0197 91.2366 28.1535C91.7413 27.7694 94.5056 26.0521 95.2512 26.2253C97.5109 26.9032 97.6691 27.5284 97.2774 26.3609C97.2774 26.3006 97.2397 26.2102 97.187 26.1876C96.8481 26.0069 96.5166 25.2009 97.0966 25.0051C97.5184 24.862 97.2021 23.8677 97.6088 23.2275C97.7067 23.0618 97.6088 22.9338 97.428 22.866C94.7842 21.9772 94.2344 21.2014 93.4209 21.7587C91.4023 23.1597 90.2273 22.2031 94.4001 24.1238C94.4631 24.1641 94.5363 24.1855 94.611 24.1855C94.6858 24.1855 94.7589 24.1641 94.8219 24.1238C95.3115 23.7397 96.8631 23.3104 96.72 23.9054C96.6372 24.2745 96.4715 24.282 94.7692 24.7716C94.1591 24.9448 89.1577 23.2652 90.7094 22.4065C94.4227 20.3954 93.2176 20.3578 96.8556 21.8491C98.2566 22.4216 97.9402 22.2182 97.7444 21.7135C97.3678 20.7494 93.5716 20.2975 96.9008 19.1677C97.3904 19.002 97.5862 19.7326 96.9008 19.9661C96.5995 20.0715 96.9686 20.177 97.0439 20.2297C97.5938 20.6063 97.5787 19.8908 97.5636 19.8154C97.5388 19.3484 97.5516 18.8799 97.6013 18.4145C97.526 16.1925 99.5069 17.4654 95.4471 15.605C93.8578 14.8517 93.6544 14.9346 93.7147 14.4149C93.7448 13.7295 97.9779 12.7201 98.1361 12.2833ZM96.6296 7.86943C95.8162 7.86943 95.9593 7.21413 95.1232 9.1273C94.95 9.51144 95.0403 9.39846 96.1174 9.88052C98.1285 10.7693 97.8348 10.9124 98.008 9.77507C97.9628 10.3701 98.0833 7.90709 96.5769 7.86943H96.6296ZM97.8724 15.8159C97.7821 15.1606 97.6239 16.1397 97.7143 13.6014C97.8423 13.1043 95.4546 14.1964 94.9801 14.4375C94.6261 14.6408 97.6088 15.8385 97.8197 15.8159H97.8724ZM97.0364 29.3738C97.0364 27.6263 98.2415 28.1535 94.9801 27.0087C94.7993 27.0764 92.1781 28.3042 92.3363 28.4398C93.7605 29.1822 95.2268 29.8411 96.7276 30.4132C97.0062 30.5111 96.9836 29.2758 96.9836 29.3361L97.0364 29.3738ZM96.6146 37.4407C96.6146 37.4407 93.7298 36.3184 92.969 36.0849C92.3363 36.3561 92.8861 36.0849 91.553 36.8984C91.0332 37.2072 90.3704 37.4482 90.7997 37.6516C90.9127 37.7043 94.1365 39.0978 95.9442 39.6627C96.2304 39.7531 96.2681 39.7154 96.238 39.4217C96.2078 39.1279 96.3585 38.8793 96.3509 38.6684C96.2229 37.6968 97.0966 37.6667 96.5618 37.4181L96.6146 37.4407ZM96.6824 34.1868C96.6824 33.9232 95.2136 34.5257 96.5016 34.8798C96.6824 34.5634 96.5543 34.1115 96.6296 34.1642L96.6824 34.1868ZM96.3811 43.0446C96.8857 42.3893 96.4865 42.3818 95.9367 42.2086C94.9465 42.6184 94.0085 43.1443 93.1422 43.7752C93.9457 44.1414 94.7737 44.451 95.6203 44.7017C96.2756 44.9051 95.5601 44.0163 96.3283 43.022L96.3811 43.0446ZM96.1702 17.9173C96.0497 17.8119 91.7262 15.6577 91.6132 15.8761C90.5512 17.7366 90.9052 17.5784 91.4475 17.8194C93.7749 18.8739 93.6168 19.356 96.1174 17.8947L96.1702 17.9173ZM95.5902 53.0473C95.9065 52.7536 95.8764 51.9476 95.5902 51.8196C94.4453 51.2999 94.7767 51.2923 92.5773 52.8214C92.5065 52.8816 92.444 52.9494 92.389 53.0247C92.7506 53.2432 95.0253 53.9211 95.0403 53.9286C95.4471 53.9889 95.078 53.439 95.5375 53.0247L95.5902 53.0473ZM95.4847 47.6468C95.9216 47.3907 95.3266 47.2777 92.3137 46.0952C90.8073 45.4851 90.6491 45.2817 90.2951 45.5378C88.4346 46.9011 87.237 46.3889 93.6243 48.5506C93.903 48.5657 93.9181 48.5356 95.432 47.6242L95.4847 47.6468ZM95.1458 61.8524C94.7692 61.5813 94.8144 61.7696 92.8861 61.1595C92.615 61.0766 92.3966 61.5662 91.3797 62.1236C90.9428 62.3571 92.1329 62.5755 93.3531 62.922C94.5734 63.2685 94.6261 63.7279 95.1232 61.8298L95.1458 61.8524ZM94.2118 70.7479C91.5153 69.9947 92.3288 69.8064 90.4457 71.8627C90.3252 71.9983 90.4457 72.0736 90.6491 72.1338C95.7107 73.5047 93.2703 73.2712 94.6261 71.9907C94.8822 71.9681 94.837 70.9212 94.1591 70.763L94.2118 70.7479ZM94.1516 12.3887C94.4604 12.223 94.9048 12.0347 94.6411 11.9217C93.4285 11.3493 93.4435 11.1685 93.2854 12.6749C93.2326 12.8256 93.3155 12.7653 94.0988 12.3661L94.1516 12.3887ZM94.4378 76.2163C94.4378 76.2163 94.2947 75.5986 93.9105 76.0129C93.0519 76.9318 92.6301 77.1352 92.9765 77.2632C93.7298 77.5269 93.7298 77.4741 93.8503 77.2632C93.6846 77.1201 94.37 76.6531 94.37 76.1937L94.4378 76.2163ZM93.564 81.5792C94.1967 80.1782 94.5809 79.9899 92.8108 79.7112C90.1821 79.2969 91.0106 78.8676 89.7302 80.2008C88.7585 81.2176 88.8564 80.954 89.6247 81.2026C93.9632 82.483 93.097 82.483 93.5113 81.5566L93.564 81.5792ZM92.4267 94.5872C92.4643 94.3613 92.3514 94.3236 92.2083 94.4667C90.8299 95.7622 90.9052 95.6493 92.0124 95.717C92.5623 95.7246 92.2007 95.5287 92.374 94.5646L92.4267 94.5872ZM92.0425 98.5793C92.6677 98.2704 90.2499 98.1198 90.1746 98.1047C89.2481 97.9466 89.2104 97.6679 88.879 98.052C87.0337 100.199 87.5232 99.5584 88.2765 99.7467C91.8316 100.613 90.6868 98.5567 91.9898 98.5567L92.0425 98.5793ZM91.5605 104.409C91.8015 103.483 92.3514 103.309 91.8392 103.212C91.6369 103.206 91.4386 103.155 91.2592 103.061C91.2065 103.023 91.101 103.061 90.973 103.061C90.8449 103.061 90.5512 103.302 90.3177 103.633C89.8206 104.349 89.7302 104.432 89.9411 104.447C91.3571 104.522 91.4324 104.658 91.5078 104.387L91.5605 104.409ZM85.1205 29.9085C86.9508 28.7561 87.0487 28.7034 86.8077 28.5753C86.2578 28.2816 85.8436 28.0406 85.7306 28.2213C85.2787 28.9745 84.5706 28.726 84.6535 29.6374C84.6234 29.9085 84.8192 30.0366 85.0678 29.8859L85.1205 29.9085ZM85.3088 106.978C85.0452 106.473 86.062 106.051 85.128 105.885C82.1603 105.358 83.245 105.29 82.0549 106.639C81.7687 106.963 81.7084 107.008 82.2733 107.392C82.4316 107.496 82.6233 107.537 82.8103 107.506C82.9973 107.475 83.1659 107.375 83.2826 107.226C83.825 106.45 85.58 107.58 85.2561 106.955L85.3088 106.978ZM84.6535 37.4934C84.5857 37.4181 80.6765 35.0153 81.0381 36.8758C81.3318 38.3822 79.8932 37.7269 81.972 38.8869C82.6273 39.2484 82.665 38.9321 82.8458 38.8191C84.533 37.6893 84.5782 37.7043 84.5782 37.4708L84.6535 37.4934ZM80.3225 40.785C80.6087 40.5214 78.9968 39.7832 79.2153 40.2954C79.6069 41.2821 77.5657 43.2329 80.2698 40.7624L80.3225 40.785ZM79.3433 50.6521C79.6069 50.4261 79.4488 50.4337 77.8369 49.5976C76.5263 48.9197 76.3305 48.8444 76.2551 48.8444C76.1798 48.8444 74.3721 50.4638 74.8993 50.7651C77.6109 52.3469 77.3247 52.6029 79.3057 50.6295L79.3433 50.6521ZM75.63 54.1244C75.9011 53.8533 75.5396 53.7554 74.6282 53.2884C73.3176 52.6255 73.423 52.6255 73.3251 52.859C72.5041 54.8777 72.1652 54.6065 74.1311 55.435C74.342 55.2769 74.0859 55.548 75.5772 54.1018L75.63 54.1244ZM72.4966 68.1493C72.8205 67.7802 72.8581 67.6899 72.6472 67.5844C68.2861 65.4076 68.836 65.3248 68.3765 65.7315C67.6233 66.4847 67.0282 67.0647 67.6233 67.4714C67.8944 67.6522 71.1182 69.2038 71.3894 69.3018C71.8714 68.8724 72.4439 68.0439 72.4439 68.1267L72.4966 68.1493ZM72.3083 57.2729C72.602 57.0319 71.4571 56.4443 71.427 56.9189C71.3818 57.7775 69.8151 58.8019 70.8847 58.8923C71.1634 58.6663 72.2556 57.077 72.2556 57.2503L72.3083 57.2729ZM69.6494 71.5162C70.1541 70.9438 70.2746 71.1923 66.7721 69.5051C66.4289 69.299 66.0622 69.1347 65.68 69.0155C65.3787 69.2189 64.7686 69.2641 64.7234 69.7687C64.6104 71.0266 64.5953 71.0567 64.8288 71.1622C69.4536 73.1883 67.8492 73.4595 69.5967 71.5162H69.6494ZM69.2803 60.6096C68.8284 60.4289 68.7983 60.5268 68.7908 60.7603C68.7154 61.8374 69.5138 60.7076 69.2276 60.587L69.2803 60.6096ZM66.9303 74.9207C67.0584 74.7249 67.1262 74.74 65.7101 74.0395C63.2923 72.8419 63.3375 72.8343 63.2019 72.9774C62.5617 73.6327 63.3827 74.3106 62.6972 74.9283C62.4487 75.1467 63.0061 75.2672 63.9325 75.7869C65.9587 76.962 65.341 77.1503 66.8776 74.9283L66.9303 74.9207ZM60.6485 83.8614C61.9591 81.7825 62.1549 82.5207 59.6241 81.0971C59.4584 81.0067 59.0065 81.3306 59.0592 81.9407C59.2098 83.5375 57.598 82.6939 60.0535 84.0422C60.5732 84.3585 60.5958 83.6731 60.5958 83.8689L60.6485 83.8614ZM58.5997 87.3036C59.1873 86.2265 59.2324 86.3018 58.9688 86.1361C57.4172 85.2097 57.5377 85.5336 56.5811 87.1228C56.1141 87.8761 55.0747 87.2132 57.6055 88.5088C57.9896 88.7423 58.547 87.1605 58.547 87.3337L58.5997 87.3036ZM56.4757 90.5123C55.1877 89.8645 55.3383 89.7591 55.037 90.2939C54.5926 91.0471 53.9901 90.7006 53.9147 91.5593C53.9147 92.0187 54.4194 92.0489 54.6228 92.1393C55.7601 92.674 55.376 92.9979 56.4455 91.1074C56.3928 91.1902 56.7092 90.6705 56.4229 90.5199L56.4757 90.5123Z" fill="black"/>
<path id="Vector_16" d="M133.274 72.917C136.972 72.2918 136.852 77.263 133.598 77.1651C130.344 77.0672 131.444 73.0224 133.274 72.917ZM134.118 73.5195C132.837 73.3162 131.444 74.9808 132.295 75.9599C134.329 78.2949 137.131 73.9865 134.118 73.5195Z" fill="black"/>
<path id="Vector_17" d="M128.385 40.9051C126.382 47.8723 125.93 40.0464 124.77 39.9786C123.346 39.8958 122.164 39.8732 121.629 39.2254C121.094 38.5777 121.629 38.3668 122.653 37.719C125.034 36.092 123.603 37.6211 123.407 34.3145C123.294 32.4766 125.937 35.3765 126.781 34.9698C127.58 34.5235 128.441 34.1962 129.335 33.9981C131.089 34.0508 129.063 37.2821 129.764 37.8621C135.255 42.4417 128.657 39.9711 128.385 40.9051ZM128.333 40.069C131.059 40.1895 131.526 40.2573 130.728 39.5117C128.401 37.3424 128.807 38.3517 129.523 34.9924C129.44 34.9924 129.689 34.2391 128.837 34.6383C126.683 35.6928 126.517 35.8962 126.156 35.6025C125.494 35.101 124.767 34.693 123.994 34.3898C123.896 34.5706 123.926 34.4952 124.649 36.6494C124.815 37.139 124.732 37.026 122.653 38.4571C121.35 39.3535 123.663 39.0145 125.139 39.3384C125.689 39.4589 125.568 39.5644 126.502 42.1253C127.436 44.6862 127.346 40.0238 128.333 40.069Z" fill="black"/>
<path id="Vector_18" d="M128.897 75.1162C129.033 75.9899 124.378 75.7188 119.362 77.052C118.45 77.293 121.621 78.6337 112.025 79.5978L107.732 80.0121C107.175 80.0121 107.619 80.4339 107.227 80.6674C105.796 81.5035 104.358 81.4206 102.926 81.5863C102.173 81.6692 102.316 82.1588 101.774 81.7144C100.403 80.5996 103.446 81.2172 106.391 80.351C106.851 80.2155 106.195 79.7861 106.813 79.5225C107.95 79.0329 115.098 79.1911 118.352 77.7073C118.872 77.4738 118.066 76.9088 118.985 76.5398C119.904 76.1707 128.799 74.5287 128.897 75.1162Z" fill="black"/>
<path id="Vector_19" d="M121.38 43.2024C121.546 43.1346 121.727 43.3078 121.606 43.6016C121.486 43.8954 115.347 47.3677 114.827 48.3393C114.406 49.1453 116.334 48.603 116.974 49.0925C118.609 50.4483 108.877 54.1692 109.6 55.3216C110.097 56.1125 108.553 56.9185 105.947 58.6735C105.721 58.8316 105.45 58.4475 105.623 58.2592C106.218 57.6039 109.284 55.9995 108.967 55.5325C107.935 53.9131 112.605 52.9565 116.326 49.6499C116.605 49.4014 115.528 49.5068 114.699 49.311C111.845 48.6632 120.597 43.5037 121.38 43.2024Z" fill="black"/>
<path id="Vector_20" d="M111.077 120.611C110.941 120.965 111.077 120.912 110.512 120.995C108.343 120.731 106.987 121.597 105.992 121.522C100.916 121.115 102.859 120.95 100.938 121.251C100.432 121.302 99.9291 121.383 99.432 121.492C99.0554 121.748 98.6788 121.695 97.8502 121.703C96.7957 121.703 97.5791 121.763 95.4776 122.125C93.1502 122.524 92.8413 123.337 91.2219 122.878C89.949 122.539 89.4217 122.682 88.6158 122.343C87.5553 121.908 86.3953 121.775 85.264 121.959C81.0158 123.096 81.4979 121.71 81.867 121.914C81.9423 121.914 86.2055 120.58 88.6459 121.56C93.0598 123.337 97.6167 119.466 105.217 120.663C106.866 120.919 107.657 120.272 109.216 120.257C109.721 120.279 111.242 120.174 111.077 120.611ZM81.7992 122.253C81.7992 122.215 81.7992 122.215 81.7013 122.253C81.7389 122.268 81.7163 122.283 81.7992 122.253Z" fill="black"/>
<path id="Vector_21" d="M95.5152 31.7007C96.5169 32.0999 94.8975 32.7778 93.9183 33.2448C92.8036 33.7796 93.1651 33.8549 92.3592 33.8248C91.4779 33.9378 87.1846 31.7911 87.0415 31.6706C86.2205 30.9701 87.644 30.4052 88.5479 29.893C90.3933 28.846 89.0977 29.1473 95.5152 31.7007ZM92.3893 33.1092C95.018 31.8664 95.1084 32.4464 91.3122 30.7517C89.3463 29.8779 89.8058 29.8101 88.578 30.6085C87.4708 31.3618 87.2373 31.0303 90.0845 32.2957C92.1106 33.2147 92.1106 33.2373 92.3893 33.1017V33.1092Z" fill="black"/>
<path id="Vector_22" d="M94.152 40.9882C94.3705 41.4928 91.0186 43.052 90.4387 43.1876C89.6101 43.3909 85.2791 41.1614 84.4581 40.5965C83.961 40.2651 84.9327 40.009 87.2676 38.495C87.8627 38.1109 88.0208 38.2314 91.6664 39.6927C93.911 40.6342 93.9411 40.4911 94.152 40.9882ZM92.9921 41.2066C93.2105 41.1162 92.9318 41.0334 88.0736 39.0901C87.6668 38.9244 87.7346 39.1353 87.3881 39.3311C84.6088 40.9053 85.0456 40.0241 89.9867 42.5097C90.5592 42.7884 91.4932 41.7941 92.9921 41.2066Z" fill="black"/>
<path id="Vector_23" d="M93.4814 64.88C93.5791 64.8963 93.6721 64.9336 93.7541 64.9892C93.836 65.0448 93.905 65.1175 93.9562 65.2023C94.0075 65.2871 94.0397 65.382 94.0509 65.4804C94.062 65.5788 94.0517 65.6785 94.0207 65.7726C93.9792 65.8988 93.9017 66.01 93.7978 66.0927C91.9524 67.923 91.8168 68.1038 91.3649 68.0736C90.687 67.9607 87.0188 66.7932 86.8456 66.6802C86.1752 66.281 86.5066 66.1454 87.5988 64.9704C89.3613 62.9593 87.9001 63.4338 93.4814 64.88ZM93.1575 65.5353C87.7344 64.3226 90.0919 63.4489 87.6741 65.7688C87.3502 66.1379 87.177 66.1454 91.4402 67.2752C91.7641 67.1397 93.617 65.6332 93.1575 65.5353Z" fill="black"/>
<path id="Vector_24" d="M89.2328 73.7758C93.0667 75.0111 92.9989 74.2052 90.6941 76.7887C90.1066 77.6022 86.7548 76.0882 86.0919 76.0732C85.9187 76.0732 85.7906 75.7041 85.8961 75.561C86.2878 75.0186 86.8226 74.5743 87.4477 73.8738C87.8017 73.4218 88.6679 73.6026 89.2328 73.7758ZM91.4398 75.2823C91.5753 75.109 91.2816 75.1542 90.0162 74.7852C88.0503 74.2052 88.1557 74.1148 87.975 74.3182C87.0561 75.3802 86.6568 75.4856 87.2218 75.6514C90.1894 76.4799 89.6019 76.3217 90.0614 76.4046C90.5606 76.0821 91.0228 75.7057 91.4398 75.2823Z" fill="black"/>
<path id="Vector_25" d="M87.4482 82.3699C88.4425 83.0629 91.7792 83.1231 91.154 84.0647C90.8302 84.5768 91.7792 83.8236 89.4518 85.9251C88.3822 86.8892 89.1279 86.3394 88.1788 86.6783C88.096 86.6783 84.6161 85.7293 84.5408 85.6841C84.2244 85.5259 84.36 85.2773 84.7592 84.7802C86.6423 82.4377 86.936 82.0159 87.4482 82.3699ZM89.2936 85.2698C90.9205 83.7634 91.1088 84.2981 87.4557 83.2964C86.8004 83.1156 86.8532 83.1909 86.4464 83.7106C85.3769 85.0815 85.3317 85.0363 85.5652 85.1192C86.2054 85.3451 87.9227 85.7669 88.578 85.9402C88.8402 85.7428 89.0797 85.5184 89.2936 85.2698Z" fill="black"/>
<path id="Vector_26" d="M86.5441 91.7628C90.747 92.7043 91.1312 92.9227 90.8977 93.2692C90.28 93.7623 89.7147 94.3176 89.2105 94.9263C88.0731 96.1766 88.3217 95.928 84.8795 94.9714C84.7547 94.9215 84.6222 94.8935 84.4878 94.8886C82.9814 94.9489 85.241 92.87 85.6026 92.2599C85.6915 92.0921 85.8288 91.9549 85.9968 91.8663C86.1647 91.7776 86.3554 91.7416 86.5441 91.7628ZM89.557 93.6383C90.1294 93.0507 89.6699 93.2466 88.5778 92.983C86.5064 92.4934 86.4763 92.3126 86.2353 92.6063C84.6309 94.6174 84.307 93.8868 87.8246 94.994C88.2012 95.1221 88.1786 95.0242 89.5419 93.6383H89.557Z" fill="black"/>
<path id="Vector_27" d="M90.4989 59.5244C91.6965 59.8559 88.872 61.882 88.6385 61.995C88.0509 62.2963 83.6974 60.5564 83.1852 60.2701C82.8613 60.0969 82.8236 59.9613 83.0872 59.6902C86.2658 56.3534 85.2565 58.1009 90.4989 59.5244ZM89.708 60.2777C89.9415 60.0592 89.708 60.0366 85.7612 58.5076C85.4825 58.4022 85.4599 58.4549 84.4807 59.2608C83.6522 59.9613 83.5994 59.7429 88.1865 61.3322C88.5179 61.4753 89.708 60.3455 89.708 60.2701V60.2777Z" fill="black"/>
<path id="Vector_28" d="M88.179 33.2825C89.7457 34.0357 91.4404 34.2768 89.7683 35.2258C89.3163 35.4442 87.2224 36.8904 87.1395 36.6494C86.3487 36.6494 81.7616 34.9923 83.0722 33.8173C85.6783 31.4899 85.0381 31.8589 88.179 33.2825ZM88.8719 34.9019C89.5348 34.4651 89.2561 34.5856 87.3655 33.7344C85.3168 32.8004 85.6105 32.7025 85.1511 33.049C84.6916 33.3955 83.3961 34.2768 83.7802 34.4877C84.848 35.0724 85.9584 35.576 87.1019 35.9941C87.7361 35.7079 88.3311 35.3403 88.8719 34.9019Z" fill="black"/>
<path id="Vector_29" d="M88.7738 48.4072C92.5398 50.2224 94.0463 49.3562 89.9488 52.339C89.7062 52.5951 89.3741 52.7457 89.0223 52.7608C88.5779 52.806 83.4335 50.5011 83.4184 50.5011C83.3404 50.4542 83.2766 50.387 83.234 50.3065C83.1914 50.2261 83.1716 50.1355 83.1766 50.0447C83.1817 49.9536 83.2119 49.8657 83.2639 49.7907C83.3159 49.7157 83.3876 49.6566 83.4711 49.6198C84.2921 49.1077 86.017 47.5862 86.484 47.6314C86.5518 47.6238 88.6909 48.362 88.7738 48.4072ZM89.3161 51.9699C91.5757 50.0341 92.4269 50.6969 90.1295 49.763C85.9341 48.0532 86.7325 48.0607 85.3316 49.1077C83.9306 50.1546 83.8251 49.8609 86.9585 51.1564C89.8509 52.339 89.3161 51.9322 89.3161 51.9699Z" fill="black"/>
<path id="Vector_30" d="M89.9562 68.9923C90.0542 69.8434 87.8849 72.1483 87.1317 71.9073C81.2265 70.0543 82.6124 70.5741 84.7892 67.9529C84.9097 67.8098 85.6478 67.0942 86.1374 67.29C86.9208 67.7495 89.896 68.45 89.9562 68.9923ZM87.8774 70.8904C89.6248 68.8266 90.2425 69.6853 85.9567 68.1035C85.5876 67.9679 85.565 68.1035 84.4879 69.1957C83.8928 69.8058 83.7347 69.9489 84.0209 70.0393C84.0209 70.0393 86.2429 70.8452 87.4932 71.1842C87.638 71.1103 87.7682 71.0108 87.8774 70.8904Z" fill="black"/>
<path id="Vector_31" d="M88.9168 102.014C88.9552 102.272 88.91 102.536 88.7888 102.767C86.8304 105.094 87.787 104.665 83.9531 103.919C83.8677 103.915 83.7855 103.886 83.7166 103.835C83.6476 103.785 83.5951 103.715 83.5654 103.635C83.5357 103.555 83.5303 103.467 83.5496 103.384C83.569 103.301 83.6124 103.225 83.6744 103.166C85.5349 100.846 84.857 100.907 87.1242 101.456C88.7888 101.841 88.2465 101.645 88.9168 102.014ZM87.6514 103.068C87.9828 102.729 88.2239 102.458 87.8171 102.36C85.6705 101.856 85.6102 101.758 85.3541 102.074C84.2996 103.385 83.8477 103.37 86.9057 103.844C87.1242 103.859 87.1166 103.633 87.6514 103.068Z" fill="black"/>
<path id="Vector_32" d="M86.8378 80.6673C86.2127 81.2624 86.529 81.1569 83.0717 80.0798C81.9118 79.9216 83.3504 78.6713 84.5782 77.1121C85.1657 76.3589 85.9038 76.9992 86.5441 77.2778C89.331 78.483 89.7076 77.9633 86.8378 80.6673ZM87.6588 78.4077C84.6008 77.6545 85.6402 76.9012 84.2166 78.6713C83.6367 79.4245 83.5764 79.4245 83.7496 79.4697C87.5157 80.6221 85.7607 80.4865 87.7793 78.7541C87.704 78.7316 88.1108 78.4905 87.6588 78.3851V78.4077Z" fill="black"/>
<path id="Vector_33" d="M88.5631 43.7825C88.6102 43.8098 88.6499 43.8481 88.6788 43.8942C88.7077 43.9402 88.7248 43.9927 88.7288 44.0469C88.7329 44.1014 88.7233 44.156 88.701 44.2059C88.6786 44.2557 88.6442 44.2992 88.6008 44.3324C85.2866 46.7427 86.0323 46.238 82.6428 44.8898C79.1027 43.4888 80.3154 43.2252 82.8387 41.3948C83.14 41.1764 88.4878 43.7298 88.5631 43.7825ZM86.3562 44.9802C88.0509 43.8729 88.0434 44.3324 85.0682 42.9239C83.2605 42.0577 83.2906 41.9748 83.0646 42.1707C81.2193 43.4813 80.8577 43.3532 82.0629 43.8503C86.085 45.4622 85.5201 45.5225 86.3562 44.9802Z" fill="black"/>
<path id="Vector_34" d="M88.1637 53.8756C85.1509 56.542 84.7592 56.3236 83.6896 55.8038C79.0875 53.5442 78.4171 53.6496 81.1437 51.6838C82.1606 50.9305 81.3396 50.5841 83.9457 51.6235C85.422 52.2185 88.7512 53.3559 88.1637 53.8756ZM86.7175 54.2296C87.3502 53.7702 87.3201 53.7928 85.4069 53.0245C82.1756 51.729 82.251 51.6838 81.9873 51.9022C80.0365 53.5593 79.5168 53.1751 82.4393 54.3577C85.6404 55.6532 84.2018 56.0599 86.7175 54.2296Z" fill="black"/>
<path id="Vector_35" d="M86.0021 90.0149C85.6406 90.4367 84.9024 90.3237 82.1758 89.2617C81.7163 89.0885 81.2268 89.1563 82.0553 88.162C83.9233 85.9024 82.8763 86.392 86.2055 87.2958C88.0886 87.8306 87.9605 87.7327 86.0021 90.0149ZM86.4465 88.4482C86.5897 88.275 86.5595 88.1921 86.3486 88.1394C83.1475 87.3862 84.089 86.5803 82.7031 88.4558C82.447 88.7947 85.0832 89.3973 85.4975 89.4952C85.8395 89.1698 86.1566 88.8203 86.4465 88.4482Z" fill="black"/>
<path id="Vector_36" d="M82.3794 60.9184C87.328 62.809 87.7648 62.8768 87.3205 63.3513C84.4356 66.4094 84.9252 66.1307 83.5544 65.5356C78.553 63.3664 78.6509 63.8861 81.1742 61.521C81.8446 60.8958 81.9726 60.7678 82.3794 60.9184ZM84.8424 64.9331C86.3488 63.4266 86.5597 63.3588 86.1454 63.1781C81.6789 61.2046 82.2287 61.4683 81.468 62.1989C80.4436 63.1705 80.2026 63.2233 80.6168 63.4191C81.0311 63.6149 84.5787 65.2419 84.8424 64.9331Z" fill="black"/>
<path id="Vector_37" d="M86.4009 96.3719C87.8546 96.7862 86.0996 98.3077 85.5874 99.0383C85.4127 99.2781 85.1635 99.4533 84.8786 99.5364C84.5938 99.6195 84.2895 99.606 84.0132 99.4978C82.3335 99.1287 80.345 98.8801 81.1209 98.0893C83.3805 95.2195 82.439 95.2421 86.4009 96.3719ZM86.0168 97.1251C82.8156 96.3041 83.5537 96.0556 82.5068 97.4791C81.8816 98.3303 81.3995 98.2324 84.7062 98.9178C84.789 98.8349 86.544 97.2231 86.0168 97.1251Z" fill="black"/>
<path id="Vector_38" d="M85.9343 73.9111C84.5107 75.2293 84.5182 75.6285 83.8403 75.4176C80.1571 74.0316 79.2306 74.235 80.255 72.9922C81.0082 72.0582 81.882 70.7702 82.7482 71.3653C83.3131 71.7193 87.4106 72.5478 85.9343 73.9111ZM85.392 73.4818C85.6029 73.2634 85.5953 73.2408 83.5692 72.4499C82.1607 71.8925 82.0627 71.8699 81.897 72.1034C80.4659 73.8132 80.1044 73.173 83.9458 74.5815C84.5785 74.8075 85.392 73.2483 85.392 73.4818Z" fill="black"/>
<path id="Vector_39" d="M85.3769 81.8426C85.7535 82.2268 85.6932 82.0686 83.2151 84.8555C82.7933 85.3225 80.7446 84.4488 79.5771 83.9667C78.9745 83.7257 79.6223 83.1457 81.0158 81.3982C81.6259 80.645 81.0609 81.1647 81.9046 80.645C83.0884 80.9632 84.2486 81.3634 85.3769 81.8426ZM83.4034 83.6052C84.8647 81.9255 84.9927 82.4678 82.0175 81.3455C81.8669 81.466 79.9989 83.2888 80.5111 83.462C83.3131 84.5015 82.6653 84.4563 83.4034 83.6052Z" fill="black"/>
<path id="Vector_40" d="M84.6156 91.755C82.7928 94.0147 82.7552 94.0598 82.4012 94.2406C79.1925 93.3443 78.7255 93.269 79.0795 92.5384C79.1699 92.35 79.9381 90.2787 81.1734 90.0527C81.8965 90.4896 85.2182 90.9943 84.6156 91.755ZM83.5912 91.6646C83.5912 91.6646 81.4596 90.9114 81.0303 90.7909C80.7516 91.0093 81.1358 90.5725 79.7724 92.463C79.6595 92.6287 79.8628 92.6513 79.9833 92.689C82.7326 93.5401 82.243 93.623 82.823 92.8773C82.7175 92.8773 83.8775 91.8077 83.5912 91.6646Z" fill="black"/>
<path id="Vector_41" d="M81.6931 55.9168C82.7928 56.4817 84.5102 56.7604 83.7946 57.4232C81.9417 59.1858 81.5952 59.6829 80.9851 59.3515C75.7729 56.6097 74.4623 57.845 77.219 55.269C78.5899 54.0338 77.799 53.9208 81.6931 55.9168ZM82.2279 58.0559C83.064 57.0165 83.9754 57.8224 79.9005 55.9017C77.9798 54.9979 78.6727 54.8698 77.0684 56.3612C76.5336 56.8583 76.3754 56.3612 81.1433 58.6208C81.5048 58.8543 82.3183 58.0559 82.2279 58.0559Z" fill="black"/>
<path id="Vector_42" d="M82.2511 45.6203C84.1341 46.5844 85.1359 46.7652 83.6973 47.9251C81.287 49.876 82.1155 50.0793 77.2121 47.6841C76.0973 47.1418 76.4589 46.8179 78.7185 44.6712C79.2533 44.1139 80.0592 44.498 82.2511 45.6203ZM83.2453 47.3527C83.5391 47.1117 83.5316 47.0137 83.1926 46.8631C79.4717 45.2587 79.66 44.5357 78.726 45.5299C77.084 47.2698 77.5435 46.8782 78.2289 47.2849C79.2543 47.8524 80.325 48.3336 81.4301 48.7235C81.9347 48.4599 81.3623 48.9194 83.2453 47.3527Z" fill="black"/>
<path id="Vector_43" d="M82.6878 102.865C82.2434 103.618 81.5052 103.189 80.6164 102.978C79.931 102.82 78.2061 102.759 78.6129 102.006C80.2398 98.9329 80.3679 100.018 82.6275 100.349C84.8872 100.68 83.6067 101.208 82.6878 102.865ZM82.1756 102.345C83.2452 100.839 83.3657 101.381 80.3679 100.575C80.1419 100.771 80.3679 100.485 79.6147 101.637C79.4038 101.976 79.5243 101.991 79.705 102.044C82.2208 102.669 81.927 102.699 82.1756 102.345Z" fill="black"/>
<path id="Vector_44" d="M79.4114 74.5665C83.1021 75.8997 83.8553 76.1181 83.2377 76.8261C81.1889 79.2214 81.1663 79.3193 80.6165 79.0858C78.3569 78.2648 78.0104 77.858 77.1668 77.6547C75.8863 77.3383 78.1158 75.6586 78.5301 74.8904C78.6122 74.7382 78.7471 74.6212 78.9094 74.5616C79.0717 74.5019 79.2502 74.5037 79.4114 74.5665ZM79.2155 75.3197C79.0122 75.5005 79.2155 75.3197 77.9275 76.7433C77.4982 77.2404 77.7242 77.1651 79.1025 77.745C81.0232 78.5435 80.85 78.5962 81.1287 78.2572C82.8084 76.1934 83.2754 76.7885 79.2155 75.282V75.3197Z" fill="black"/>
<path id="Vector_45" d="M80.232 65.1062C84.5027 66.801 84.5329 66.2436 82.0698 68.7593C80.9551 69.8967 81.3166 69.9494 76.5036 67.5014C76.1194 67.3056 76.2927 66.7482 76.5714 66.4469C78.6653 64.0216 77.9347 64.1873 80.232 65.1062ZM82.8758 66.9441C82.8005 66.9441 78.6126 65.0158 78.3565 65.302C76.496 67.5617 76.4584 66.6352 80.7593 68.7518C81.166 68.9401 81.2488 68.5032 82.8758 66.9441Z" fill="black"/>
<path id="Vector_46" d="M81.347 85.6163C82.8911 86.249 82.0625 86.0531 80.5938 88.2977C80.3603 88.7346 79.7652 88.6969 77.5056 87.6876C76.3833 87.1905 76.4963 87.5144 77.9048 85.428C78.5525 84.4488 78.1985 84.3207 81.347 85.6163ZM80.9553 86.3092C78.4019 85.0137 78.7484 85.3526 77.8596 86.6406C77.5508 87.085 77.3926 87.0398 79.9008 87.8232C80.059 87.8533 81.4148 86.5804 80.9553 86.3092Z" fill="black"/>
<path id="Vector_47" d="M81.1815 94.9034C81.656 95.054 81.7163 95.393 81.5656 95.5813C80.6015 96.7714 79.6901 98.7448 78.9896 98.2854C78.2891 97.8259 76.0973 97.728 76.1349 96.7789C76.1877 96.6358 77.7393 94.218 77.7543 94.1954C78.3117 93.6003 78.4398 94.0372 81.1815 94.9034ZM80.5337 95.8073C80.7522 95.4683 80.4735 95.4758 80.0441 95.3177C78.3419 94.6774 78.3494 94.6172 78.2063 94.8733C76.8882 97.2685 76.0144 96.5605 79.2533 97.4794C79.6148 97.5773 80.3906 95.8073 80.5337 95.8073Z" fill="black"/>
<path id="Vector_48" d="M78.9516 103.694C81.0757 104.274 81.4071 104.191 81.2113 104.665C80.3451 107.106 79.6672 106.239 79.8404 105.901C80.4505 104.688 80.8723 105.012 78.8612 104.484C77.415 104.093 78.2812 104.259 77.3096 105.238C77.1288 105.411 76.7371 105.336 76.7899 104.884C76.8577 104.733 76.6694 104.982 77.6561 103.641C77.9423 103.264 78.5524 103.581 78.9516 103.694Z" fill="black"/>
<path id="Vector_49" d="M79.9155 59.8637C80.0436 59.9236 80.1524 60.0181 80.2296 60.1365C80.3068 60.255 80.3493 60.3927 80.3524 60.5341C80.0812 60.9182 78.3262 62.7259 78.3036 62.741C77.6107 63.3888 78.0626 62.8615 74.5827 61.6112C74.2438 61.4831 73.468 61.0086 72.8353 60.7751C72.5415 60.6621 72.3306 60.0219 72.6771 59.8411C75.8858 57.2049 72.8277 56.6098 79.9155 59.8637ZM79.456 60.5567C79.1849 60.3006 79.456 60.5567 75.3585 58.5531C74.9518 58.3422 75.0723 58.3347 73.7467 59.7658C73.4604 60.0746 73.4002 60.1575 73.5885 60.2479C78.5446 62.6506 77.7688 62.2439 78.3563 61.679C78.7524 61.335 79.1202 60.9597 79.456 60.5567Z" fill="black"/>
<path id="Vector_50" d="M79.5691 81.3528C77.7689 83.8083 78.7707 83.8158 73.9953 81.526C73.2421 81.1494 74.6205 79.9217 75.449 78.6638C75.9462 77.9106 75.9688 78.1365 79.3281 79.5225C80.7291 80.1024 80.2922 80.3736 79.5691 81.3528ZM78.4544 81.7294C79.8403 79.8237 79.8026 80.7351 76.1947 79.0931C76.0365 79.0253 75.9612 79.0931 75.8407 79.2739C74.7184 80.7803 74.4322 80.9234 74.8841 81.1268C78.379 82.6634 77.7313 82.7161 78.4544 81.7294Z" fill="black"/>
<path id="Vector_51" d="M78.5526 89.1036C79.2154 89.4953 79.818 89.3672 79.5016 89.8568C77.8596 92.4705 77.7918 92.8697 77.129 92.5608C73.506 91.0544 73.5813 91.8076 75.7807 88.5763C75.858 88.4541 75.9754 88.3624 76.1128 88.3171C76.2502 88.2718 76.399 88.2755 76.5339 88.3278C77.2269 88.5311 77.9018 88.7902 78.5526 89.1036ZM76.5791 89.1036C76.2628 88.9831 76.2176 89.1036 75.2083 90.61C75.0802 90.8134 74.9673 90.9339 75.4794 91.1147C77.3926 91.785 77.3775 91.8679 77.5207 91.6269C78.8764 89.4651 79.1928 90.1129 76.5415 89.1111L76.5791 89.1036Z" fill="black"/>
<path id="Vector_52" d="M78.1459 69.4897C80.6315 70.7928 80.5863 70.2957 79.1627 72.0506C77.9651 73.5571 78.9594 73.5571 73.5438 71.0865C72.542 70.6346 73.6793 70.1601 74.7338 68.6235C75.3364 67.7498 76.534 68.6536 78.1459 69.4897ZM79.2155 70.951C79.3962 70.74 79.3134 70.7024 78.3643 70.3032C74.7715 68.7968 75.8335 68.4729 74.2668 70.2354C73.9505 70.5894 74.4326 70.6195 75.4569 71.0865C78.5526 72.5101 77.7994 72.6457 79.2155 70.951Z" fill="black"/>
<path id="Vector_53" d="M76.2101 98.3829C78.3417 99.1813 79.2908 99.0608 77.9274 100.891C77.7768 101.087 77.5659 101.772 77.3475 101.893C76.5943 102.3 76.4737 101.78 73.9429 101.223C73.4232 101.102 73.7396 100.522 73.8074 100.469C75.3891 98.7445 74.4551 97.7351 76.2101 98.3829ZM77.7165 100.025C77.8973 99.7236 77.95 99.814 75.9088 99.0608C75.5849 98.9403 75.5774 99.0608 75.359 99.4073C74.6434 100.59 74.0032 100.59 76.8654 101.245C77.2049 100.888 77.4801 100.475 77.6789 100.025H77.7165Z" fill="black"/>
<path id="Vector_54" d="M77.3174 84.3206C77.4002 84.5616 76.1273 85.9626 76.0218 86.1886C75.4946 87.2732 74.1463 86.3091 71.6456 85.2094C71.382 85.0964 71.0129 84.7198 71.2088 84.4562C72.9864 81.8952 72.8131 82.0007 73.6643 82.4526C76.9935 84.2076 77.0462 83.5146 77.3174 84.3206ZM75.7657 85.4353C76.519 84.4788 76.519 84.5013 76.3005 84.3959C72.7227 82.8443 73.2425 82.7388 72.6926 83.492C72.0373 84.411 71.8867 84.539 72.0976 84.6294C75.5774 86.1735 74.9749 85.9325 75.246 86.0304C75.4381 85.8489 75.6121 85.65 75.7657 85.4353Z" fill="black"/>
<path id="Vector_55" d="M77.046 73.6102C77.1088 73.6381 77.1651 73.6789 77.2111 73.7299C77.2572 73.7809 77.292 73.841 77.3133 73.9064C77.3346 73.9717 77.3419 74.0408 77.3348 74.1092C77.3277 74.1775 77.3063 74.2436 77.272 74.3032C76.6543 75.2372 75.3964 77.1127 74.4474 76.5628C73.2648 75.8699 69.4234 74.6572 70.365 73.9943C70.9148 73.3616 71.418 72.689 71.8714 71.9833C72.4438 71.1924 73.536 72.2243 77.046 73.6102ZM75.2684 75.7569C76.8577 73.7608 76.9707 74.4538 74.4248 73.3164C72.0145 72.2393 72.7979 71.9757 71.2688 73.9868C70.9223 74.4538 72.022 74.612 73.7846 75.3803C74.9897 75.915 75.0349 76.0356 75.2383 75.7569H75.2684Z" fill="black"/>
<path id="Vector_56" d="M77.114 122.629C77.3098 123.45 75.6904 122.961 74.3497 123.541C74.1313 123.631 72.8433 123.789 72.2558 123.947C70.9527 124.271 70.1769 123.42 69.3709 123.744C68.2493 124.133 67.033 124.154 65.8986 123.804C65.0014 123.809 64.1141 123.617 63.3 123.239C62.5338 122.803 61.679 122.546 60.7993 122.486C59.3984 122.486 59.2477 122.275 58.5397 122.486C56.1972 123.171 54.8565 122.358 52.0168 122.237C50.9774 122.192 49.1169 122.237 48.198 121.484C47.7105 121.087 47.1343 120.813 46.5184 120.686C45.9308 120.565 45.6371 119.933 46.5184 120.016C47.4697 120.218 48.3776 120.588 49.1998 121.108C49.3881 121.213 57.2216 122.042 57.5605 121.959C62.833 120.641 65.5069 124.218 68.4671 123.217C70.1919 122.644 71.0958 123.526 72.3311 123.164C72.6173 123.074 77.0462 122.215 77.114 122.629Z" fill="black"/>
<path id="Vector_57" d="M76.6467 93.2538C76.7619 93.3382 76.8392 93.4646 76.8617 93.6057C76.8843 93.7467 76.8503 93.8909 76.7672 94.007C74.8992 96.8391 75.0649 96.9446 74.4247 96.7261C71.5474 95.762 71.4947 95.7244 71.5248 95.0766C72.0197 94.092 72.629 93.1692 73.3401 92.3274C73.6639 92.011 73.5886 92.0336 76.6467 93.2538ZM75.095 95.3327C76.4358 93.2839 76.3529 94.1275 73.7242 92.9149C73.4907 93.1484 73.792 92.719 72.3458 94.926C72.1199 95.2649 72.3458 95.1218 74.3117 95.9729C74.854 96.214 75.095 95.0841 75.095 95.3327Z" fill="black"/>
<path id="Vector_58" d="M74.3345 135.961C78.191 135.961 79.2831 138.725 76.0368 139.215C68.7306 140.322 69.7474 140.985 68.3013 140.97C66.3881 140.97 65.6424 140.028 61.0177 139.463C58.5094 139.177 53.8244 139.554 52.2502 138.108C51.3238 137.256 52.9432 134.936 58.4567 134.936C59.7447 134.936 60.0234 135.622 61.6955 135.381C66.5312 134.628 64.2791 133.95 70.3801 135.614C70.591 135.667 71.5551 135.614 72.2632 135.614C72.9463 135.77 73.6378 135.885 74.3345 135.961ZM76.2853 138.394C77.9274 138.085 77.2495 137.181 75.6225 136.887C74.708 136.83 73.799 136.704 72.9034 136.511C72.2217 136.423 71.5334 136.398 70.8471 136.435C68.3766 136.209 68.5875 135.81 66.727 135.547C64.6105 135.238 61.8612 136.782 59.9481 136.172C55.8431 134.869 51.6627 137.324 53.0185 137.934C54.9844 138.838 61.0779 138.1 66.0416 139.682C66.6743 139.878 68.1732 140.33 68.8285 140.104C71.2601 139.31 73.7584 138.738 76.2929 138.394H76.2853Z" fill="black"/>
<path id="Vector_59" d="M74.5455 62.4777C77.4831 63.9842 77.6488 63.3515 75.3967 65.7542C74.2217 67.0121 74.3949 66.6129 71.6758 65.2722C68.7232 63.826 68.7081 64.2779 69.9133 62.8769C71.8415 60.6098 71.1862 60.7755 74.5455 62.4777ZM74.4853 65.709C76.1574 64.0143 75.9013 64.2704 75.9917 64.1047C75.698 63.8185 72.2256 62.0861 71.9921 61.9731C71.5929 61.7772 71.7134 61.7697 70.4857 63.0954C70.1392 63.4644 69.9057 63.6076 70.2974 63.8486C71.1787 64.2704 74.2066 65.9802 74.4853 65.694V65.709Z" fill="black"/>
<path id="Vector_60" d="M70.4255 85.9248C75.6453 88.1317 75.2686 87.2128 73.0241 90.4441C72.7454 90.8433 72.6249 90.8583 70.5083 89.8716C69.0697 89.2088 68.2035 89.0808 68.5801 88.4631C68.6931 88.2371 70.1618 85.8269 70.4255 85.9248ZM72.7378 89.7511C73.7095 88.2447 73.9129 88.1769 73.4911 88.0037C70.1995 86.5424 70.6891 86.452 70.0413 87.4161C69.3936 88.3803 69.2881 88.3727 69.499 88.5384C69.612 88.6288 72.3838 89.8415 72.3989 89.8415C72.6098 89.9319 72.6173 89.9319 72.7378 89.7511Z" fill="black"/>
<path id="Vector_61" d="M73.8976 77.3006C73.9899 77.3377 74.0719 77.3965 74.1365 77.4721C74.2012 77.5478 74.2465 77.6379 74.2687 77.7349C74.2909 77.8318 74.2893 77.9327 74.264 78.0289C74.2388 78.1251 74.1906 78.2138 74.1236 78.2873C73.86 78.438 73.8449 78.5735 73.2951 79.2665C71.9769 80.9236 72.8055 81.1495 67.9246 78.5133C67.1714 78.1065 67.1714 78.1819 69.2729 75.5004C69.6118 75.0184 73.4156 77.0671 73.8976 77.3006ZM72.3008 79.3945C73.4532 77.986 73.1971 78.2949 73.393 77.9785C72.3572 77.3382 71.2887 76.7524 70.1918 76.2235C69.7775 76.0503 69.7173 75.9825 69.2955 76.57C68.3841 77.8505 68.2711 77.8806 68.5423 78.0764C69.1448 78.4809 69.7881 78.8191 70.463 79.0857C72.0824 79.613 71.864 79.9369 72.3008 79.3945Z" fill="black"/>
<path id="Vector_62" d="M73.7846 97.5019C74.5378 97.7806 74.101 98.4359 73.4607 99.3774C72.3535 101.004 73.1143 100.967 70.6588 99.9273C69.077 99.2644 68.2334 99.7164 70.3048 96.8165C70.7793 96.1536 71.1408 96.5378 73.7846 97.5019ZM73.2273 98.353C73.3704 98.0819 73.4156 98.1723 71.412 97.3965C71.073 97.2609 70.9073 97.1554 70.7642 97.3965C69.6269 99.2268 69.431 98.7071 72.3385 99.8444C72.5268 99.6335 72.3987 99.9423 73.2273 98.353Z" fill="black"/>
<path id="Vector_63" d="M70.1622 90.655C73.5441 92.0936 71.6686 91.6266 70.5162 94.3683C70.0868 95.3551 69.3562 94.7374 67.1644 93.7733C66.5166 93.4871 65.5675 93.2461 65.9592 92.6585C68.4975 88.8925 66.9685 89.2992 70.1622 90.655ZM71.0208 91.8526L68.0908 90.5495C67.895 90.7378 68.0908 90.4667 67.5033 91.4383C66.5693 92.9448 66.1324 92.4702 69.552 93.9616C69.9287 94.1273 69.8383 94.1349 70.599 92.99C70.5915 92.8092 71.5029 92.0936 71.0208 91.8526Z" fill="black"/>
<path id="Vector_64" d="M71.6759 101.177C72.5271 101.245 72.3614 101.516 71.3521 103.038C71.0357 103.505 70.5988 103.038 70.7495 102.759C71.2617 101.584 71.6533 102.074 69.0472 101.049C68.8137 100.959 68.7911 101.193 68.5124 101.501C68.465 101.559 68.3979 101.598 68.3238 101.61C68.2497 101.622 68.1737 101.607 68.1102 101.567C68.0465 101.527 67.9995 101.466 67.9778 101.394C67.9562 101.323 67.9615 101.246 67.9927 101.177C68.3392 100.424 68.4597 100.033 68.9116 100.198C71.3521 101.102 71.3747 101.162 71.6759 101.177Z" fill="black"/>
<path id="Vector_65" d="M66.8405 79.1911C71.6686 81.9479 72.4896 80.4941 69.7554 83.9815C69.6767 84.0672 69.5712 84.1235 69.4562 84.1413C69.3412 84.1591 69.2236 84.1373 69.1227 84.0795C63.9105 81.6315 64.3473 82.2491 66.1475 79.6129C66.4563 79.1534 66.607 79.048 66.8405 79.1911ZM70.4559 81.6993C66.6898 79.8464 66.8555 79.7937 66.6898 80.0272C65.2361 82.2265 64.9047 81.3152 69.0549 83.3714C69.3788 83.5673 70.4032 81.8198 70.4559 81.6993Z" fill="black"/>
<path id="Vector_66" d="M65.6802 94.1121C70.1995 96.1533 69.7928 95.6185 68.9341 97.0421C68.0755 98.4657 68.0228 98.9628 67.3147 98.6389C62.7954 96.5676 63.1118 97.9761 64.8517 94.5038C64.8894 94.3983 65.3338 93.9238 65.6802 94.1121ZM67.2545 95.6185C65.5748 94.8653 65.5673 94.7824 65.4392 95.0084C64.558 96.5826 64.4148 96.6504 64.8366 96.8086C67.3072 97.7275 67.5482 98.0062 67.7516 97.6748C68.7609 95.98 68.8965 96.3717 67.2545 95.6185Z" fill="black"/>
<path id="Vector_67" d="M68.5051 85.0212C69.0474 85.3752 67.2924 88.1094 66.8405 88.1847C65.3684 87.6072 63.9558 86.8883 62.6225 86.038C62.5415 85.9582 62.4871 85.8553 62.4669 85.7434C62.4467 85.6314 62.4616 85.516 62.5095 85.4129C63.8804 82.5582 63.6243 81.8652 68.5051 85.0212ZM66.8556 87.2356C67.9628 85.4505 68.1511 85.5183 67.6465 85.2622C63.6243 83.2587 64.498 83.0553 63.2175 85.2622C63.0217 85.6087 62.969 85.4656 65.2286 86.5879C66.7727 87.3938 66.7125 87.4616 66.8556 87.2356Z" fill="black"/>
<path id="Vector_68" d="M64.0155 87.7176C67.1414 89.0584 66.6367 88.9379 64.7688 92.026C64.2264 92.9224 63.9402 92.3123 61.8387 91.2728C59.2703 90.0074 59.195 90.8585 61.4546 87.0322C61.7258 86.5803 61.9819 86.8439 64.0155 87.7176ZM65.522 89.3521C65.07 89.0478 64.5963 88.7759 64.1059 88.5386C61.8463 87.3862 61.8463 87.4164 61.5902 87.9436C60.3775 90.1581 60.2043 89.9246 61.0027 90.2033C64.7989 91.6871 63.6841 92.8395 65.5446 89.3521H65.522Z" fill="black"/>
<path id="Vector_69" d="M62.735 95.7242C62.2304 96.9143 61.4696 96.1384 58.2609 94.6471C57.9144 94.4889 56.7545 94.1801 57.455 93.4269C59.7146 90.9413 57.9521 90.5496 61.6579 92.282C64.8968 93.7884 63.8498 93.1482 62.735 95.7242ZM62.6974 94.2931C63.1568 93.4118 63.2246 93.8863 60.9499 92.7264C59.6619 92.0711 59.4887 91.702 59.1422 92.2217C58.05 93.8562 58.0199 93.7282 58.389 93.9617C59.493 94.6052 60.6557 95.1424 61.8613 95.566C62.1626 95.5735 62.735 94.3684 62.735 94.2931H62.6974Z" fill="black"/>
<path id="Vector_70" d="M57.0334 94.8656C60.6263 97.0048 62.2231 96.8692 61.6958 97.8785C61.5527 98.1572 61.1385 99.3849 60.6941 99.1816C60.551 99.1138 60.5208 99.0761 60.5284 98.7748C61.1535 97.2684 61.2816 97.5923 60.34 97.1856C59.0521 96.6432 60.0086 97.1178 56.8903 95.7394C56.6041 95.6113 56.6041 96.357 56.1371 96.0331C55.7454 95.8373 56.5288 94.5794 57.0334 94.8656Z" fill="black"/>
<path id="Vector_71" d="M60.588 53.898C61.281 53.8603 60.8667 55.0579 60.1361 54.7265C59.526 54.4478 59.2624 48.0832 58.6297 46.1474C58.4037 46.2754 58.5393 46.3734 57.8765 47.3149C57.5451 47.7668 56.8973 47.7517 56.822 47.1868C56.7692 46.8479 56.596 44.0836 56.6563 44.0836C56.3022 35.979 55.2477 34.7889 55.8127 34.6985C56.9952 34.3671 57.2287 44.656 57.3191 46.6671C57.3191 47.2546 58.1853 45.5975 58.4188 45.0628C58.5016 44.8669 58.6598 44.882 58.8255 44.8745C59.6089 44.8519 60.0533 53.9281 60.588 53.898Z" fill="black"/>
<path id="Vector_72" d="M56.1444 28.3266C57.6132 29.833 55.6548 32.2358 54.1484 31.4751C51.2259 29.9912 54.3517 26.4812 56.1444 28.3266ZM54.9769 30.9553C56.7244 30.3904 56.1444 27.6035 54.0203 28.7785C52.9432 29.3962 54.0128 31.2642 54.9769 30.9553Z" fill="black"/>
<path id="Vector_73" d="M50.9174 75.1766C51.294 75.6662 50.7968 75.8771 50.5031 75.7038C50.0361 75.3272 49.5013 73.5346 49.087 72.2164C48.9665 71.8323 47.8216 71.9076 46.3529 69.2036C44.1987 65.219 44.9519 65.1739 43.3777 66.2284C40.764 67.9834 40.892 63.2983 39.122 59.5247C38.7303 58.6811 37.7361 59.5247 36.6288 58.5681C35.7476 57.8149 35.386 57.0617 33.616 53.2956C32.7573 51.4503 33.5407 51.3825 33.7139 51.7892C33.7516 51.8645 35.3785 56.7303 37.0582 58.1313C37.9696 58.8845 38.783 57.943 39.5664 59.0803C40.4702 60.3834 41.0728 64.3528 41.9014 65.5731C42.406 66.3263 43.0914 65.5731 43.6564 65.2642C45.0347 64.511 45.1025 65.3094 46.4583 68.0662C48.3263 71.8323 49.2979 70.9962 49.5465 71.6967C50.4278 74.1522 50.601 74.9958 50.9174 75.1766Z" fill="black"/>
<path id="Vector_74" d="M43.3696 118.743C43.5806 118.743 44.4919 119.496 41.11 119.037C38.293 118.667 39.9425 119.88 34.5947 118.765C34.1169 118.774 33.6427 118.85 33.1862 118.991C32.7877 119.06 32.3779 119.018 32.0019 118.869C31.6258 118.72 31.2981 118.471 31.0546 118.148C30.694 117.911 30.297 117.736 29.8795 117.628C28.6593 117.703 28.1095 116.822 28.7271 116.784C29.5331 117.033 30.4671 117.033 30.7081 117.199C33.9319 119.353 33.1636 117.801 34.7303 118.103C41.5996 119.421 37.4343 117.733 43.3696 118.743Z" fill="black"/>
<path id="Vector_75" d="M34.9187 47.684C36.267 49.4089 31.4916 48.3995 31.1978 48.9946C30.7534 49.8909 30.5877 51.8493 29.5709 51.8719C28.554 51.8945 28.7423 48.5878 27.8385 48.5427C27.125 48.5807 26.411 48.4783 25.737 48.2414C25.6376 48.2107 25.5484 48.1534 25.4791 48.0758C25.4097 47.9982 25.3629 47.9032 25.3435 47.8009C25.3241 47.6987 25.333 47.5931 25.3692 47.4955C25.4053 47.3979 25.4674 47.3121 25.5487 47.2471C27.605 45.1155 27.2434 46.2378 26.9572 43.6844C26.4752 39.5568 29.7893 43.8577 30.4145 43.3982C31.1372 42.8813 31.9185 42.4516 32.7419 42.1177C34.4442 41.9068 32.3201 45.4017 32.885 45.8838C34.8133 47.4128 34.6174 47.2998 34.9187 47.684ZM34.1655 47.7518C32.3954 45.8612 31.7627 46.5768 32.2147 44.9875C32.4708 44.0761 33.1336 42.4567 32.3276 42.9387C30.5802 43.9932 30.3241 44.3246 29.7968 43.9405C26.9873 41.8692 27.1003 41.6809 27.8159 45.3792C27.9816 46.2077 27.1681 46.2002 26.076 47.571C25.7747 47.9401 26.7162 47.8572 28.1172 47.8949C28.7047 47.8949 28.5842 48.0907 29.2395 50.3504C29.7742 52.1807 29.8948 50.1922 30.6555 48.4447C31.0171 47.6388 34.979 48.618 34.173 47.7518H34.1655Z" fill="black"/>
<path id="Vector_76" d="M30.4599 129.009C31.2884 129.438 30.5427 130.033 30.3393 131.05C30.249 131.487 28.7049 132.112 28.3885 132.217C26.9273 132.699 26.0008 134.236 21.9786 132.609C19.945 131.788 20.4722 131.69 19.1541 131.472C17.6476 131.208 16.2316 130.447 17.0149 129.302C17.7983 128.158 20.4873 128.007 20.6906 127.954C21.9334 127.623 22.6791 128.338 23.6357 128.097C24.8258 127.804 24.7806 127.849 24.9764 127.864C26.8301 128.108 28.6627 128.49 30.4599 129.009ZM29.9175 129.762C30.4071 129.28 27.929 129.333 27.6579 129.182C26.499 128.688 25.2182 128.554 23.9822 128.798C22.9955 129.024 23.0105 128.926 21.4665 128.64C19.7943 128.896 19.1089 128.783 17.8209 129.551C16.7287 130.199 19.945 130.771 20.3894 130.967C26.0686 133.475 25.7146 132.338 28.268 131.434C30.3017 130.756 29.2095 130.673 29.9175 129.792V129.762Z" fill="black"/>
</g>
</g>
</g>
</svg>
