<svg width="151" height="151" viewBox="0 0 151 151" fill="none" xmlns="http://www.w3.org/2000/svg">
<g id="To-Do-List-No-Tasks--Streamline-Bruxelles">
<g id="To-Do-List-No-Tasks--Streamline-Bruxelles.svg">
<path id="shadow" d="M117.203 42.8159C114.267 42.6216 96.8538 43.588 41.9112 42.4408C40.2557 42.4062 38.4472 41.8435 37.2714 41.8435C35.8026 41.8435 35.3409 42.7331 35.2099 43.1149C34.5666 45.0017 34.1674 49.8238 34.2533 50.69C34.367 51.8296 34.4996 78.1433 34.0288 82.5842C33.8887 83.9039 33.1054 91.3848 30.7493 109.079C30.7041 109.412 28.4437 140.347 28.4362 140.452C28.4023 140.918 28.3594 141.498 28.8128 141.993C29.2549 142.475 29.8349 142.481 30.0255 142.484C41.5474 142.599 74.0638 144.33 75.2245 144.331C80.445 144.334 98.6262 145.678 110.925 147.105C111.047 147.12 111.136 147.115 111.244 147.104C112.458 146.977 113.225 147.11 113.776 146.443C114.167 145.97 114.105 145.45 114.085 145.279C114.013 144.682 113.979 144.249 113.949 143.867C113.654 140.106 111.904 139.584 115.58 109.958C116.149 105.374 116.209 105.615 116.646 95.5139C116.785 92.2924 116.901 89.1658 117.146 86.8708C117.604 82.5676 119 69.473 118.818 59.7459C118.82 46.5217 119.585 42.9681 117.202 42.8152L117.203 42.8159Z" fill="black"/>
<g id="list">
<path id="vector" d="M106.562 143.464C96.1828 142.26 77.1679 140.734 70.8002 140.685C69.8783 140.677 36.0581 138.943 25.5959 138.839C25.4491 138.837 25.1086 138.833 24.8585 138.56C24.5972 138.276 24.622 137.938 24.6537 137.513C24.662 137.404 26.9186 106.513 26.963 106.18C29.3168 88.4995 30.1092 80.9922 30.244 79.6673C30.7276 75.3739 30.5822 48.7357 30.4677 47.6255C30.3736 46.8218 30.7879 42.1172 31.3927 40.3434C31.9636 38.6735 34.6624 40.0571 37.4561 40.1144C94.687 41.3097 108.978 40.2402 112.722 40.4887C113.863 40.5618 113.924 41.9244 113.787 50.3807C113.616 60.9333 114.069 64.8417 112.052 83.813C111.85 85.7088 111.796 86.7874 111.548 92.4945C111.127 102.262 111.083 102.075 110.486 106.895C109.423 115.463 107.211 133.293 108.683 139.617C108.782 140.042 108.813 140.436 108.852 140.935C108.964 142.366 109.122 142.682 108.828 143.038C108.589 143.327 108.311 143.346 107.568 143.399C106.629 143.466 106.66 143.477 106.561 143.465L106.562 143.464Z" fill="#FFFBE5"/>
<path id="vector_2" d="M37.4433 40.7714C94.2705 41.9487 109.069 40.9107 112.679 41.1442C113.511 41.197 112.987 48.94 113.06 56.784C113.156 66.9826 111.698 80.8673 111.326 84.4105C111.02 87.3126 110.751 97.9902 110.355 102.361C109.949 106.855 106.195 131.838 108.042 139.764C108.197 140.432 108.164 141.018 108.337 142.447C108.373 142.744 108.342 142.665 106.644 142.808C96.5986 141.642 76.8252 139.977 70.7852 140.026C70.7678 140.026 35.8646 138.296 25.6027 138.18C25.1945 138.175 25.2902 138.054 25.3376 137.159C25.3414 137.083 27.5754 106.574 27.6161 106.267C30.168 86.9978 30.8948 79.7744 30.9039 79.6983C31.4063 75.2996 31.2323 48.4821 31.1231 47.5503C31.044 46.8739 31.4379 42.2477 32.0171 40.5552C32.341 39.6099 34.8726 40.7194 37.4441 40.7729V40.7714H37.4433ZM32.8306 38.856C31.3626 38.856 30.9001 39.7448 30.769 40.1274C30.1243 42.0142 29.7266 46.837 29.8132 47.7032C29.9367 48.9453 30.0799 74.7881 29.588 79.608C29.4524 80.9464 28.6322 88.511 26.3093 106.093C26.2641 106.432 24.0044 137.359 23.9969 137.463C23.9622 137.929 23.9201 138.511 24.3735 139.005C24.8156 139.487 25.3956 139.495 25.5862 139.497C36.4799 139.625 69.9837 141.337 70.7852 141.343C75.843 141.381 93.6362 142.622 106.485 144.119C106.608 144.133 106.696 144.128 106.805 144.117C108.023 143.99 108.787 144.122 109.337 143.456C109.729 142.981 109.666 142.462 109.645 142.291C109.574 141.696 109.54 141.265 109.51 140.884C109.226 137.253 107.462 136.604 111.14 106.972C111.708 102.394 111.774 102.546 112.208 92.5234C112.348 89.283 112.463 86.1828 112.708 83.8742C113.166 79.5718 114.469 66.4802 114.378 56.7607C114.262 44.2972 115.303 39.9941 112.763 39.8299C109.33 39.6069 93.0615 40.6132 37.4712 39.4548C35.8141 39.4201 34.0064 38.8575 32.8314 38.8575V38.856H32.8306Z" fill="black"/>
<path id="vector_3" d="M37.9752 121.001C37.9647 121.604 37.7312 122.808 37.7402 123.476C37.7726 125.919 37.5474 126.191 37.7493 126.213C39.3235 126.384 39.3634 126.201 39.966 126.283C40.4481 126.349 40.9196 126.383 41.3971 126.278C41.614 126.231 41.5862 126.434 42.5224 126.293C43.7502 126.106 43.7569 126.233 44.1283 126.243C45.3666 126.277 46.8926 126.14 47.587 126.407C47.7881 126.485 48.0126 126.496 48.228 126.538C48.6076 126.612 48.4065 126.158 48.4208 125.971C48.4208 125.95 49.1454 117.086 49.2991 115.906C49.4121 115.036 47.6601 115.487 41.4122 115.058C39.6865 114.939 39.844 115.114 39.0471 114.975C37.622 114.725 38.0626 116.05 37.9767 121.002L37.9752 121.001Z" fill="white"/>
<path id="vector_4" d="M42.0446 105.533C42.0461 105.504 48.0854 105.23 48.8838 105.559C49.0947 105.646 49.3357 105.659 49.5639 105.702C50.0814 105.8 49.5624 105.591 50.2705 98.9865C50.3993 97.7874 50.5717 95.9533 50.5717 95.9533C50.6855 95.1074 50.8354 94.7813 50.3202 94.6465C50.055 94.5772 48.944 94.422 47.9001 94.4559C44.7562 94.5576 44.5724 94.303 41.9949 94.196C41.5655 94.178 41.14 94.2435 40.7144 94.1975C40.0327 94.1245 39.4942 93.9151 39.4091 95.0027C39.3759 95.4321 39.275 96.9649 39.3338 97.3965C39.4965 98.6031 39.2185 98.7635 39.3315 99.1861C39.5582 100.034 39.049 100.728 39.0347 105.25C39.0347 105.451 39.107 105.373 39.8369 105.439C39.9356 105.448 40.0576 105.518 40.1307 105.481C40.3642 105.365 40.5329 105.404 42.0446 105.533Z" fill="white"/>
<path id="vector_5" d="M41.6557 73.46C40.9989 73.4472 40.9176 74.0535 40.91 74.9348C40.8746 79.3313 40.9213 79.3245 40.8694 79.7817C40.3964 83.9741 40.9206 80.5975 40.5869 84.643C41.8779 84.9255 40.7775 84.6197 43.367 84.8516C43.8596 84.8961 44.3492 84.6792 44.8441 84.8426C44.9292 84.8705 45.5047 84.652 45.7841 84.7063C46.16 84.7793 46.5351 84.5752 46.8989 84.7432C47.3719 84.6777 47.8442 84.6573 48.3172 84.75C48.4158 84.7695 48.794 84.6852 49.0094 84.6935C50.7064 84.759 50.9911 85.0738 51.1982 85.0271C51.2675 85.0113 51.3782 84.9014 51.3692 84.8773C51.2509 84.5963 51.3865 84.3297 51.3993 84.0578C51.8505 74.1944 52.6888 74.0475 51.8249 73.9225C49.679 73.6114 50.6981 73.8238 47.4758 73.7455C47.3184 73.7417 47.1595 73.7861 47.0028 73.7771C46.3227 73.7379 43.3618 73.3854 42.6997 73.5436C42.546 73.5805 42.488 73.4758 41.6557 73.4585V73.46Z" fill="white"/>
<path id="vector_6" d="M43.1098 63.9307C46.784 64.0738 46.2733 63.8192 50.5343 63.8968C51.887 63.9216 52.2388 64.1491 52.4045 64.1868C52.8022 64.2764 52.7005 64.3525 52.8263 61.6537C52.8368 61.4292 52.986 60.2354 53.0673 59.3504C53.1698 58.2115 53.0907 58.4013 53.282 56.5544C53.6254 53.2403 53.7113 53.3661 53.3912 53.18C53.0432 52.9789 51.4178 52.8893 50.9854 52.9051C48.9065 52.9804 48.7582 52.9879 46.5219 52.7936C43.909 52.5661 44.1974 52.7198 43.9022 52.7055C43.0209 52.6633 42.3468 52.2957 42.3129 53.6259C42.3129 53.6432 42.2112 55.4668 42.2451 55.7846C42.3716 56.9837 42.2202 57.0229 42.2609 57.6586C42.3513 59.0438 42.0056 59.9318 42.035 61.2394C42.0982 64.064 41.3495 63.8629 43.109 63.9314L43.1098 63.9307Z" fill="white"/>
<path id="vector_7" d="M42.7194 51.2691C43.9321 51.4649 45.1056 51.3549 46.2768 51.4069C52.936 51.7006 52.0367 51.3165 53.565 51.6735C54.5261 51.898 55.042 52.5375 54.865 53.4504C54.6391 54.6201 54.1095 63.0192 54.047 64.3117C54.0274 64.7185 53.8346 65.6359 53.4497 65.6803C52.7959 65.7564 53.2976 65.8694 51.7151 65.477C49.426 64.9098 41.1851 66.2829 40.7565 64.378C40.645 63.8817 40.5049 63.3996 40.6187 62.8821C40.6541 62.7194 40.6353 61.3305 40.7392 60.2941C41.1007 56.6892 40.9237 57.111 40.9772 55.3907C41.0073 54.41 41.2439 52.4637 41.2491 52.4441C41.3975 51.7232 42.0634 51.2239 42.7186 51.2675L42.7194 51.2691ZM43.1096 63.9306C46.7838 64.0737 46.2731 63.8191 50.534 63.8967C51.8868 63.9216 52.2385 64.1491 52.4043 64.1867C52.802 64.2771 52.7003 64.3524 52.8261 61.6536C52.8366 61.4292 52.9857 60.2353 53.0671 59.3503C53.1695 58.2114 53.0904 58.4013 53.2818 56.5544C53.6252 53.2402 53.7111 53.366 53.391 53.1807C53.043 52.9789 51.4175 52.8892 50.9852 52.905C48.9063 52.9811 48.7579 52.9886 46.5216 52.7936C43.9087 52.5661 44.1972 52.7197 43.902 52.7054C43.0207 52.6633 42.3466 52.2957 42.3127 53.6259C42.3127 53.6432 42.211 55.4667 42.2449 55.7846C42.3714 56.9837 42.22 57.0229 42.2607 57.6586C42.3511 59.0445 42.0054 59.9318 42.0347 61.2394C42.098 64.0639 41.3493 63.8628 43.1088 63.9314L43.1096 63.9306Z" fill="black"/>
<path id="vector_8" d="M39.2321 83.8631C39.2336 83.845 39.6757 78.034 39.6223 77.7041C39.4558 76.6706 39.788 74.4306 39.843 73.4981C39.8814 72.8413 40.5103 71.9984 41.4857 72.1348C41.5249 72.14 49.1022 72.4067 49.2823 72.3856C50.9408 72.192 53.7406 72.3171 53.5357 73.9734C53.1606 77.0081 52.6439 84.8189 52.6559 84.8596C52.7697 85.2309 52.6514 85.5804 52.5482 85.9231C52.1573 87.2224 50.6742 86.183 49.3034 86.1808C47.0211 86.1777 43.4991 86.2711 43.4991 86.2711C42.5206 86.25 42.8739 86.116 42.2804 86.1672C41.5723 86.2275 40.8862 86.1024 40.2068 85.9216C39.7707 85.8056 39.446 85.6196 39.3692 85.1006C39.3165 84.7436 39.1907 84.3934 39.2313 83.8639L39.2321 83.8631ZM41.656 73.4604C40.9991 73.4476 40.9178 74.054 40.9103 74.9352C40.8749 79.3318 40.9216 79.325 40.8696 79.7822C40.3966 83.9746 40.9208 80.5979 40.5871 84.6434C41.8782 84.9259 40.7777 84.6201 43.3673 84.8521C43.8599 84.8965 44.3495 84.6796 44.8443 84.843C44.9294 84.8709 45.5049 84.6525 45.7843 84.7067C46.1602 84.7798 46.5353 84.5757 46.8991 84.7436C47.3721 84.6781 47.8444 84.6577 48.3174 84.7504C48.4161 84.77 48.7942 84.6856 49.0096 84.6939C50.7066 84.7594 50.9913 85.0743 51.1984 85.0276C51.2677 85.0118 51.3785 84.9018 51.3694 84.8777C51.2512 84.5967 51.3868 84.3301 51.3996 84.0582C51.8507 74.1948 52.6891 74.0479 51.8251 73.9229C49.6792 73.6118 50.6983 73.8242 47.4761 73.7459C47.3186 73.7421 47.1597 73.7866 47.003 73.7775C46.3229 73.7384 43.362 73.3866 42.6999 73.544C42.5463 73.5809 42.4883 73.4763 41.656 73.4589V73.4604Z" fill="black"/>
<path id="vector_9" d="M36.2946 125.525C36.4467 124.317 36.3676 123.093 36.5582 121.884C36.803 120.325 36.5281 118.463 36.8203 116.239C36.8768 115.81 36.8956 115.377 36.928 114.944C36.9747 114.333 37.6029 113.681 38.2108 113.644C38.2281 113.644 44.3773 113.846 44.3947 113.848C47.2403 114.112 49.4231 113.329 50.492 114.839C50.797 115.27 50.4957 116.22 50.4355 116.944C50.2999 118.588 50.4663 116.948 49.8736 124.14C49.7033 126.203 50.1101 128.34 48.5577 128.09C47.6147 127.939 46.6234 127.615 46.2046 127.68C45.8446 127.737 44.4421 127.717 44.0866 127.707C43.1609 127.68 42.9575 127.825 42.0341 127.76C41.1777 127.699 40.844 127.933 39.9409 127.738C38.9587 127.527 38.964 127.903 37.3393 127.458C36.5688 127.246 36.6019 127.107 36.4543 126.647C36.3329 126.286 36.2786 125.906 36.2938 125.526L36.2946 125.525ZM37.9743 121.001C37.9637 121.604 37.7302 122.808 37.7393 123.476C37.7716 125.919 37.5464 126.191 37.7483 126.212C39.3225 126.383 39.3624 126.2 39.965 126.283C40.4471 126.349 40.9186 126.383 41.3961 126.278C41.613 126.231 41.5852 126.434 42.5214 126.292C43.7492 126.106 43.7567 126.233 44.1273 126.243C45.3656 126.276 46.8916 126.139 47.586 126.407C47.7872 126.484 48.0116 126.496 48.227 126.538C48.6067 126.612 48.4055 126.158 48.4199 125.971C48.4199 125.95 49.1444 117.086 49.2981 115.905C49.4111 115.036 47.6591 115.487 41.4119 115.057C39.6856 114.939 39.843 115.114 39.0468 114.974C37.621 114.725 38.0616 116.05 37.9758 121.002L37.9743 121.001Z" fill="black"/>
<path id="vector_10" d="M39.7798 92.8377C50.0567 93.1451 51.1714 92.7541 51.8569 94.0286C52.2154 94.6959 51.823 94.9739 51.7386 96.9096C51.5661 100.878 51.0261 103.564 51.1278 105.688C51.1669 106.506 50.7655 107.43 49.9693 107.268C48.4199 106.952 47.956 106.799 47.6238 106.851C47.1862 106.921 46.7425 106.768 46.3117 106.906C45.7076 106.602 42.1125 107.363 38.6718 106.634C38.5378 106.606 38.0421 106.412 37.9917 106.286C37.7537 105.694 37.548 105.105 37.7002 104.44C37.7642 104.159 37.7107 103.854 37.7303 103.561C38.2884 95.1433 37.7642 92.6442 39.7813 92.8385L39.7798 92.8377ZM42.044 105.532C42.0455 105.504 48.0848 105.23 48.8832 105.559C49.0933 105.645 49.3351 105.659 49.5633 105.702C50.0808 105.8 49.5618 105.59 50.2698 98.9862C50.3986 97.7871 50.5704 95.953 50.5704 95.953C50.6849 95.1072 50.834 94.781 50.3196 94.6462C50.0544 94.5769 48.9434 94.4218 47.8995 94.4557C44.7555 94.5573 44.5718 94.3027 41.9943 94.1958C41.5649 94.1777 41.1394 94.2432 40.7138 94.1973C40.0321 94.1242 39.4936 93.9148 39.4085 95.0025C39.3753 95.4318 39.2744 96.9646 39.3324 97.3962C39.4958 98.6029 39.2179 98.7633 39.3309 99.1858C39.5576 100.034 39.0484 100.728 39.0341 105.25C39.0341 105.451 39.1064 105.373 39.8363 105.439C39.935 105.448 40.057 105.518 40.1293 105.481C40.3628 105.364 40.5323 105.404 42.044 105.532Z" fill="black"/>
<path id="vector_11" d="M103.907 86.224C88.8977 84.9766 88.3094 85.6417 81.6841 85.5513C80.2696 85.5318 81.1222 85.0565 65.9524 84.8079C63.7832 84.7725 63.384 84.5699 60.8991 84.5872C57.3515 84.6121 56.5643 84.6851 56.773 84.2219C56.7881 84.1903 56.6427 84.0155 56.6706 83.9711C56.7436 83.8551 56.8363 83.718 56.9553 83.6691C58.287 83.1169 65.1638 83.4785 65.1849 83.4762C65.5879 83.4438 65.9939 83.6337 66.3863 83.4499C72.1733 83.7399 70.6766 83.5425 72.5853 83.5485C73.2059 83.5508 74.1105 83.7045 75.1296 83.7941C77.4525 83.9982 77.3501 83.7338 79.8267 84.0163C85.4246 84.6558 90.6263 83.6811 92.8505 84.237C93.0765 84.2935 93.3296 84.2355 93.5714 84.2423C98.5313 84.3876 96.8554 84.4411 98.8318 84.5496C100.597 84.646 100.026 84.4908 102.041 84.7492C103.428 84.9269 104.11 84.829 105.102 84.8531C105.471 84.8621 105.958 85.424 105.68 85.7449C105.27 86.2194 105.129 86.175 104.442 86.1833C103.906 86.1893 103.914 86.1622 103.909 86.224H103.907Z" fill="black"/>
<path id="vector_12" d="M77.8684 128.238C77.3841 128.229 77.1619 128.285 77.0188 128.268C73.7438 127.872 54.8968 127.147 54.8155 127.143C54.0984 127.1 53.8724 125.793 55.0572 125.803C63.607 125.884 76.0351 126.88 76.9585 126.881C85.9286 126.888 85.1799 126.645 93.2062 127.644C94.6086 127.819 100.724 127.904 101.487 127.927C101.788 127.936 102.069 128.012 102.07 128.311C102.07 128.472 102.222 128.621 102.058 128.796C101.888 128.976 101.722 129.102 101.455 129.098C87.9329 128.893 95.9426 128.568 77.8684 128.238Z" fill="black"/>
<path id="vector_13" d="M98.7919 107.554C94.8706 107.271 79.0862 107.303 77.1979 107.185C60.4486 106.138 56.8566 106.249 55.839 106.029C55.3938 105.934 55.1181 105.389 55.2876 104.968C55.3592 104.789 55.8337 104.552 56.2043 104.707C56.6705 104.9 59.239 104.741 61.0369 104.977C62.2059 105.131 63.3809 105.036 64.5499 105.088C65.3521 105.125 65.0832 105.192 66.3358 105.238C71.4373 105.429 70.7662 105.369 72.006 105.431C76.5117 105.655 76.1005 105.799 77.2077 105.848C78.7571 105.917 104.217 106.065 103.997 106.984C103.853 107.581 104.378 107.387 103.322 107.736C103.276 107.559 103.311 107.879 98.7911 107.554H98.7919Z" fill="black"/>
<path id="vector_14" d="M57.8566 61.1928C58.5082 61.2794 59.238 61.125 59.9619 61.2508C60.1969 61.2915 60.4515 61.2041 60.697 61.2056C60.7166 61.2056 62.7563 61.3547 64.5814 61.2696C65.486 61.2274 67.1867 60.9472 68.19 61.2018C69.2814 61.4805 70.1574 61.0843 71.981 61.2011C72.5655 61.238 74.3039 61.5747 75.7561 61.5121C77.664 61.4293 78.4089 61.9859 80.8538 61.7893C82.4348 61.6613 83.9895 61.7818 84.8286 61.8232C86.8073 61.9189 86.1316 61.7569 86.9059 61.7456C86.9233 61.7456 95.586 61.8639 97.1384 61.714C98.571 61.5762 99.9946 61.8172 100.832 61.6688C101.356 61.5769 101.91 61.6364 102.43 61.5332C102.772 61.4654 102.965 61.6538 103.203 61.7735C103.386 61.8662 103.419 62.1848 103.294 62.3565C102.845 62.9741 102.687 62.8423 100.306 63.0344C100.173 63.0457 99.5057 62.9802 99.0109 62.9787C98.8715 62.9787 90.6683 63.1285 89.4759 63.1233C87.4272 63.1142 89.1859 63.0013 86.5263 63.1142C83.7146 63.234 85.2248 62.9997 82.6616 63.0434C81.0738 63.0705 80.1021 63.2302 78.0421 62.9817C76.034 62.7391 76.1658 62.9274 74.1156 62.7678C73.3435 62.7075 71.9923 62.4401 71.0989 62.4958C67.9475 62.6917 68.2691 62.4311 66.5985 62.5102C63.8869 62.6382 63.8658 62.6623 58.8027 62.5102C58.3809 62.4974 57.4469 62.5998 56.7509 62.2752C56.4707 62.1441 56.4173 61.9415 56.5905 61.6651C56.937 61.1145 57.5411 61.1928 57.8589 61.1928H57.8566Z" fill="black"/>
</g>
<g id="fly">
<path id="vector_15" d="M124.505 11.937C124.437 10.6068 123.961 11.9445 122.546 12.2586C121.799 12.4243 120.487 14.8632 121.169 16.2153C121.343 16.5618 121.937 16.8201 122.299 16.6853C123.146 16.3704 123.318 16.0247 123.744 15.2142C124.282 14.1899 124.565 13.1037 124.505 11.9378V11.937Z" fill="white"/>
<path id="vector_16" d="M118.958 4.50781C118.826 4.53945 118.686 4.56581 118.547 4.60573C118.19 4.71043 117.905 5.19851 117.993 5.55704C118.338 6.98288 119.556 7.75267 119.699 7.89954C120.02 8.22945 120.274 7.78958 121.137 7.50411C122.115 7.18022 122.555 7.3625 122.379 7.13654C121.341 5.80937 120.747 4.85956 118.958 4.50781Z" fill="white"/>
<path id="vector_17" d="M101.416 25.6267C101.45 24.7891 101.517 24.6257 101.199 24.7025C97.0669 25.7066 92.6734 29.7702 91.1782 36.772C89.8804 42.852 90.1087 40.9215 89.7953 45.2487C89.2176 53.2238 90.4665 59.1275 92.5702 65.2835C92.641 65.4899 94.8313 70.422 96.8575 73.2466C96.9901 73.4318 97.3682 73.8808 97.1738 74.1331C95.983 75.6742 88.9367 65.0041 88.5134 49.826C88.3966 45.6306 88.9276 40.9358 89.607 38.2401C90.7045 33.882 91.2739 29.8937 96.3649 25.7924C97.4495 24.9187 99.0569 24.0254 100.374 23.6601C101.53 23.3399 101.496 23.5855 101.639 22.9641C101.962 21.5601 102.026 20.1343 103.938 17.6313C105.357 15.7746 107.774 13.988 109.174 13.4306C115.378 10.9631 114.768 12.9365 114.318 13.0826C113.428 13.3704 110.218 13.9873 108.911 14.8806C105.882 16.9512 103.707 18.7476 102.879 23.0025C102.859 23.1034 102.916 23.236 102.976 23.3279C103.011 23.3814 103.123 23.3972 103.202 23.404C105.153 23.5584 107.782 25.0821 108.517 27.7508C109.469 31.2095 107.376 33.1272 105.522 32.8719C103.741 32.6263 103.071 31.2932 102.265 29.6835C101.584 28.3255 101.521 26.7422 101.417 25.626L101.416 25.6267ZM107.473 29.4335C107.315 26.9644 105.913 25.2396 103.161 24.585C102.472 24.4208 102.618 25.2072 102.665 26.1871C102.733 27.6212 103.176 28.8527 103.78 30.0323C105.02 32.4584 107.433 32.0886 107.473 29.4335H107.473Z" fill="black"/>
<path id="vector_18" d="M126.314 6.96614C125.731 6.2905 124.394 6.33118 123.841 7.26969C123.758 7.41054 123.488 7.42334 123.331 7.168C122.348 5.58248 120.785 3.49908 118.573 3.70396C118.204 3.73861 117.97 4.01654 117.723 4.21313C117.189 4.63719 117.044 5.13206 117.252 5.81673C117.667 7.16951 118.546 7.87301 119.208 8.48236C119.442 8.69929 118.795 8.97346 118.619 9.90218C118.339 11.392 119.466 12.4435 120.933 12.5452C120.973 12.5468 121.012 12.5518 121.051 12.5603C120.978 12.7554 120.542 13.208 120.22 14.5616C119.642 16.9914 121.609 18.2177 123.149 17.2084C124.543 16.2955 125.82 13.3858 125.087 10.8723C124.966 10.4611 125.077 10.5695 125.282 9.94963C125.34 9.77187 125.349 9.74475 125.522 9.70709C126.547 9.48489 127.254 8.05228 126.314 6.96614ZM122.324 7.18834C122.112 7.23353 121.388 7.21244 120.353 7.77359C119.856 8.04248 119.901 7.95662 119.621 7.73593C119.275 7.461 118.355 6.73189 118.066 5.53879C117.989 5.22094 118.253 4.77051 118.568 4.67862C118.694 4.64171 118.815 4.61836 118.961 4.58447C120.672 4.92568 121.265 5.82577 122.324 7.18909V7.18834ZM123.677 15.1777L123.663 15.2048C123.252 15.9874 123.082 16.3113 122.272 16.6141C121.95 16.7331 121.398 16.5026 121.235 16.181C120.578 14.8742 121.863 12.4872 122.562 12.3321C123.57 12.1083 124.131 11.374 124.319 11.4365C124.464 11.5058 124.68 13.2721 123.676 15.1785L123.677 15.1777Z" fill="black"/>
</g>
<g id="pin">
<path id="vector_19" d="M64.9092 36.3549C65.8505 36.3549 66.7532 35.981 67.4188 35.3154C68.0844 34.6498 68.4584 33.747 68.4584 32.8057C68.4584 31.8645 68.0844 30.9617 67.4188 30.2961C66.7532 29.6305 65.8505 29.2566 64.9092 29.2566C63.9679 29.2566 63.0652 29.6305 62.3996 30.2961C61.734 30.9617 61.36 31.8645 61.36 32.8057C61.36 33.747 61.734 34.6498 62.3996 35.3154C63.0652 35.981 63.9679 36.3549 64.9092 36.3549Z" fill="#FFB2B2"/>
<path id="vector_20" d="M72.6943 43.4908L67.7366 35.9202C70.5763 33.3404 68.746 28.5974 64.9098 28.5974C63.7941 28.5986 62.7244 29.0424 61.9355 29.8313C61.1465 30.6202 60.7028 31.6899 60.7016 32.8056C60.7016 35.8705 63.8764 37.8891 66.6347 36.644L71.5916 44.2131C71.6391 44.2855 71.7004 44.3478 71.7719 44.3966C71.8435 44.4453 71.924 44.4794 72.0087 44.4971C72.0935 44.5147 72.1809 44.5154 72.266 44.4993C72.351 44.4831 72.4321 44.4504 72.5045 44.4029C72.5769 44.3554 72.6392 44.2941 72.688 44.2226C72.7367 44.151 72.7708 44.0705 72.7885 43.9858C72.8061 43.901 72.8069 43.8136 72.7907 43.7285C72.7745 43.6435 72.7418 43.5624 72.6943 43.49V43.4908ZM62.0197 32.8056C62.0205 32.0394 62.3253 31.3047 62.8671 30.7629C63.4089 30.2211 64.1436 29.9163 64.9098 29.9155C65.6761 29.9163 66.4107 30.2211 66.9525 30.7629C67.4944 31.3047 67.7991 32.0394 67.7999 32.8056C67.7989 33.5718 67.4941 34.3064 66.9523 34.8481C66.4105 35.3899 65.676 35.6947 64.9098 35.6957C64.1436 35.6947 63.4091 35.3899 62.8673 34.8481C62.3255 34.3064 62.0207 33.5718 62.0197 32.8056Z" fill="black"/>
</g>
</g>
</g>
</svg>
