<svg width="151" height="151" viewBox="0 0 151 151" fill="none" xmlns="http://www.w3.org/2000/svg">
<g id="Upload-File--Streamline-Bruxelles">
<g id="Upload-File--Streamline-Bruxelles.svg">
<g id="Colour">
<path id="Vector" d="M110.662 137.563C100.117 137.925 89.9255 133.797 72.3831 139.439C57.5221 144.214 60.6329 144.116 49.2593 141.969C44.7401 141.111 40.0174 141.073 35.5207 139.973C19.7031 136.094 19.8914 126.867 8.50282 115.629C2.51475 109.709 2.96668 101.928 5.67826 96.3169C7.29767 92.9651 9.44434 90.4343 9.44434 87.3913C9.36902 79.1059 2.25112 67.3859 11.1089 57.0744C15.3872 52.1031 17.6243 52.0052 16.9012 46.0397C16.0274 38.8616 18.4603 32.9036 25.0284 29.8682C31.9128 26.6821 31.8073 25.3037 34.6244 20.5358C37.3359 16.0165 42.5256 10.1415 49.5682 8.52957C62.9076 5.51671 63.4499 10.5331 78.8833 8.02492C84.5551 7.10599 90.6252 9.16981 95.0014 12.8982C102.534 19.3232 99.3106 17.1991 111.52 18.4193C123.255 19.5868 131.925 29.9887 132.61 39.886C133.062 46.0322 132.731 50.3255 137.438 54.8373C143.223 60.381 147.124 65.066 146.597 73.1631C146.107 80.7479 144.224 80.9212 146.032 93.0103C150.453 122.182 131.126 136.87 110.662 137.563Z" fill="#F2FBFF"/>
<path id="Vector_2" d="M108.537 90.4262C108.997 90.4714 108.883 90.2681 108.868 93.4994V101.476C108.574 123.545 109.863 121.85 106.858 121.978C101.397 122.212 49.5682 123.071 45.674 122.144C44.6346 121.896 45.2598 122.182 45.0187 115.471C45.0187 115.177 45.0187 115.169 45.305 115.139C45.9508 115.068 46.6025 115.068 47.2483 115.139C49.1614 115.343 48.702 114.974 50.4871 115.23C53.1836 115.614 52.5208 115.184 54.5168 115.373C55.1872 115.441 57.0175 115.094 57.831 115.064C62.1695 114.898 63.1035 115.252 63.6759 114.687C65.1221 113.271 64.2107 113.008 64.0375 111.938C63.8642 110.869 62.4105 110.386 61.3635 110.032C59.6839 109.483 59.1792 110.032 58.9984 109.332C58.8177 108.631 58.6369 108.157 58.1322 107.893C57.0776 107.414 55.8944 107.294 54.7654 107.554C54.1327 107.66 54.8106 106.801 54.2908 105.656C54.0046 105.039 53.6732 104.722 52.453 104.617C51.8052 104.564 52.2572 104.519 51.9257 102.839C51.293 99.6155 49.1162 101.378 49.1991 100.542C49.4703 97.9132 48.3781 95.5782 46.1486 95.9323C45.5535 96.1356 45.9151 95.0811 44.7551 94.1095C44.4764 93.8835 44.7551 79.7456 44.7551 79.7306C44.838 62.5497 44.7551 69.291 44.7551 65.3065C44.7551 64.719 44.951 62.5648 44.8832 60.7872C44.6873 55.7557 45.1694 58.5275 44.8832 49.73C44.6421 42.0246 44.9434 39.5088 45.2372 36.9253C45.3803 35.6599 45.1242 35.9988 55.2022 35.916C56.6559 35.916 61.1225 35.6147 63.0507 35.803C66.9373 36.1871 90.9951 36.2474 98.354 35.6448C99.1901 35.577 98.5943 38.8611 98.4738 41.6706C98.4398 43.5692 98.284 45.4636 98.0075 47.3423C97.5104 51.7561 108.687 47.1389 108.778 48.2537C109.041 51.5754 108.386 52.1403 108.778 71.6636C108.778 72.1984 108.65 72.2813 108.439 72.3792C107.098 72.9818 105.118 74.6388 105.698 75.9193C105.796 76.1377 105.494 76.0624 104.65 76.439C102.18 77.5538 105.629 80.5666 103.392 80.2051C102.172 80.0319 100.771 81.3425 100.673 82.5401C100.492 84.6189 100.922 84.5512 99.6947 84.7997C99.1418 84.9537 98.6514 85.2778 98.293 85.7262C97.8876 86.2092 97.6795 86.8274 97.7102 87.4571C97.741 88.0869 98.0083 88.6819 98.4587 89.1232C99.2119 89.6881 99.2571 90.0496 102.857 90.2304C105.464 90.366 104.726 90.2304 105.532 90.3735C106.338 90.5166 105.766 90.1551 108.537 90.4262Z" fill="#FFFDF2"/>
<path id="Vector_3" d="M92.9684 83.678C93.3301 85.2514 93.5068 86.8616 93.4949 88.476C93.156 91.4286 93.2546 92.1969 91.6955 96.1437C91.264 97.4155 90.5117 98.5545 89.5111 99.4504C87.0029 101.823 89.127 100.693 83.3348 103.811C82.6599 104.191 81.9345 104.473 81.1806 104.648C76.8421 105.868 76.9701 105.28 74.9741 105.054C71.6901 104.685 70.8841 104.128 68.8504 103.676C67.911 103.385 67.0106 102.98 66.169 102.471C65.0316 101.891 63.7813 100.279 62.885 99.2093C56.814 91.9408 58.4485 78.7896 65.2049 74.4888C68.3759 72.4777 68.3382 72.3496 71.7804 71.4759C75.5992 70.5118 79.1996 71.3704 79.8549 71.393C82.0242 71.4608 85.1651 73.0652 86.8222 74.5415C90.7314 78.0063 89.8727 77.3209 92.524 82.1414C92.7229 82.6378 92.8712 83.1523 92.9684 83.678Z" fill="#CCFFE5"/>
<path id="Vector_4" d="M63.2307 113.234C63.2909 113.332 63.4792 113.377 63.3964 113.535C63.0122 114.288 62.2138 113.95 58.4553 114.017C56.1354 114.062 57.7021 114.266 52.4973 114.379C50.6369 114.417 49.9364 113.987 48.8668 114.153C47.7973 114.319 47.1194 114.017 45.4849 114.153C44.7829 114.191 44.0786 114.153 43.3834 114.04C42.2235 114.484 38.6457 113.889 38.1109 114.145C37.5761 114.401 36.7551 114.311 34.3072 114.288C33.0116 114.288 33.0644 114.507 31.7086 114.228C30.7445 114.032 30.044 114.153 28.2965 114.002C27.483 113.934 25.9013 114.334 24.6961 114.266C21.4724 114.085 23.0165 114.725 19.6948 113.829C19.1722 113.736 18.6852 113.502 18.2868 113.151C17.8883 112.8 17.5937 112.347 17.4351 111.841C17.2167 111.268 17.0811 110.922 17.5556 110.462C17.8946 110.146 17.8419 109.558 17.3749 109.543C16.6217 109.543 16.3731 109.935 15.6801 109.543C14.9872 109.152 15.1529 108.172 15.2282 107.675C15.3864 106.651 14.8591 105.973 15.2282 105.303C15.5295 104.76 15.7479 103.736 17.0736 103.796C17.9021 103.834 17.9247 103.126 18.3541 102.486C18.5725 102.147 18.8662 102.094 20.222 101.431C20.5534 101.265 20.689 101.988 21.4874 101.514C22.7905 100.723 23.8827 100.979 24.2593 101.627C24.5681 102.154 24.8543 102.004 25.9088 102.184C28.1685 102.561 26.2101 100.241 27.3249 98.486C27.7467 97.8307 28.4999 98.7647 28.8313 98.0491C29.11 97.4767 29.0271 96.2113 30.3377 95.9401C31.4224 95.7142 33.8176 97.3788 34.1038 95.9401C34.1716 95.571 33.9381 94.5542 35.1432 94.0345C35.5659 93.8219 36.0269 93.6964 36.499 93.6654C36.838 93.6654 37.192 93.5826 37.5309 93.5901C38.0873 93.6204 38.6305 93.7707 39.1232 94.0307C39.616 94.2908 40.0466 94.6543 40.3856 95.0965C40.4242 95.1703 40.4807 95.2333 40.5499 95.2796C40.6191 95.3259 40.6989 95.3541 40.7818 95.3617C40.8645 95.3697 40.9478 95.3573 41.0245 95.3255C41.1012 95.2937 41.169 95.2435 41.2217 95.1794C41.6658 94.7997 42.1766 94.506 42.7281 94.3132C43.1198 94.1249 44.5208 94.6822 44.92 96.2866C45.2815 97.7478 46.8332 96.1661 47.7295 97.5595C48.7689 99.179 48.0006 100.813 48.0082 101.326C48.0082 102.079 48.7087 101.891 49.9967 101.8C50.5917 101.755 50.9608 102.749 51.0361 103.307C51.2319 104.73 50.9081 104.587 50.9909 105.205C51.119 106.124 52.1207 105.205 53.0924 105.777C53.3192 105.959 53.4752 106.215 53.533 106.499C53.5908 106.784 53.5468 107.08 53.4087 107.336C53.1451 107.826 53.0849 108.639 53.7477 108.677C54.6666 108.737 55.9245 108.044 57.3631 108.677C57.9883 108.941 57.9958 109.28 58.1163 109.92C58.2971 111.17 59.7282 110.357 61.8071 111.276C63.1779 111.886 63.0499 112.066 63.1478 112.473C63.1501 112.729 63.1779 112.984 63.2307 113.234Z" fill="white"/>
<path id="Vector_5" d="M107.739 44.9474C108.907 46.5292 108.764 46.5744 108.199 46.8455C105.726 47.478 103.208 47.9162 100.667 48.1561C99.8608 48.2239 98.972 48.0733 99.0548 47.2447C99.7026 40.7219 99.2657 41.3169 99.6574 38.5225C100.117 35.246 97.9551 34.5003 105.058 42.0852C106.338 43.4259 106.519 43.2903 107.739 44.9474Z" fill="#FFFDF2"/>
<path id="Vector_6" d="M124.393 112.978C124.604 113.731 124.476 114.002 123.971 114.364C123.007 115.057 122.894 116.194 121.207 116.164C119.881 116.164 119.128 116.33 118.021 115.976C117.184 115.704 114.548 116.224 112.402 116.134C111.648 116.134 110.94 116.013 110.202 115.961C109.788 115.961 109.833 115.923 109.871 115.049C110.059 115.049 109.615 107.788 109.705 106.146C109.969 100.964 109.509 101.943 110.202 101.838C110.465 101.801 110.733 101.856 110.961 101.993C111.188 102.13 111.362 102.341 111.452 102.591C111.686 103.276 111.784 103.307 112.537 103.216C113.531 103.088 113.584 103.322 114.367 104.256C114.752 104.715 114.202 104.873 114.307 105.513C114.404 105.9 114.634 106.241 114.956 106.476C115.278 106.711 115.672 106.826 116.07 106.801C117.087 106.681 117.968 106.417 118.525 107.261C118.917 107.856 118.616 108.202 119.278 108.564C120.476 109.197 120.868 109.257 121.079 110.424C121.154 110.846 121.026 111.283 121.508 111.411C122.969 111.803 123.986 111.599 124.393 112.978Z" fill="white"/>
<path id="Vector_7" d="M141.264 84.9133C141.264 84.9661 141.309 85.0339 141.264 85.0791C141.083 85.4406 141.204 85.8323 141.098 86.2239C140.752 87.4065 140.707 87.6325 140.187 87.994C139.832 88.299 139.415 88.524 138.966 88.654C138.516 88.784 138.044 88.8157 137.581 88.7472C136.135 88.6719 133.619 88.9958 133.355 88.9431C131.902 88.6945 131.133 89.1314 129.86 89.0259C129.052 88.8837 128.227 88.8608 127.412 88.9581C124.641 89.2895 126.185 88.7547 124.279 89.3573C123.839 89.5318 123.359 89.5813 122.893 89.5004C122.507 89.4741 122.119 89.4741 121.733 89.5004C119.474 89.5004 119.353 89.1464 118.238 89.3197C117.537 89.3437 116.836 89.2625 116.159 89.0786C115.375 88.9709 114.579 88.9709 113.794 89.0786C112.747 89.0786 113.199 88.9129 112.19 89.0259C111.565 89.2728 110.884 89.338 110.224 89.2142C109.591 89.056 108.921 89.5833 107.836 89.3423L103.648 89.0937C100.862 89.0937 100.756 89.1916 100.425 88.9431C100.327 88.8602 99.8146 88.9431 99.6187 88.6041C99.5133 88.4384 99.2195 88.6644 98.7525 87.4291C98.5642 86.9395 99.0011 86.3821 99.3852 86.0356C99.7694 85.6892 99.7769 85.8097 100.892 85.5084C102.33 85.1242 100.666 82.7441 102.398 81.5766C103.407 80.9138 103.829 81.8176 104.658 80.9439C105.004 80.5673 105.411 79.8668 105.238 79.3923C104.522 77.7427 104.567 77.69 105.012 77.4414C105.369 77.2502 105.756 77.1228 106.157 77.0648C106.256 77.0594 106.354 77.0341 106.444 76.9904C106.534 76.9467 106.614 76.8854 106.679 76.8102C106.746 76.7354 106.796 76.6481 106.828 76.5534C106.86 76.4587 106.872 76.3585 106.865 76.2589C106.819 75.6639 106.383 75.4228 106.714 75.0387C107.286 74.2985 108.038 73.7175 108.898 73.3515C110.216 72.651 109.064 71.9505 110.548 71.1521C111.301 70.7604 113.011 72.1991 113.094 70.655C113.094 70.1352 112.725 69.4197 113.365 68.9376C113.753 68.7159 114.185 68.5833 114.631 68.5494C115.076 68.5156 115.524 68.5813 115.941 68.7418C116.62 68.9334 117.2 69.3783 117.56 69.9846C117.944 70.5269 117.357 72.071 118.231 72.0107C118.705 72.0107 119.812 70.655 121.522 71.6793C122.946 72.5229 122.102 75.5358 124.083 74.0896C124.617 73.7768 125.25 73.6798 125.853 73.8185C127.397 73.9465 126.004 77.7503 128.309 76.3493C128.72 76.145 129.171 76.0331 129.631 76.0214C130.09 76.0097 130.546 76.0984 130.968 76.2815C133.498 77.6975 132.195 78.4357 132.278 80.5146C132.278 81.0493 132.632 81.3808 133.37 80.9816C133.988 80.6501 133.807 80.4543 134.545 80.4618C136.346 80.4618 135.02 84.2279 138.311 83.55C139.434 83.3165 141.136 83.7308 141.264 84.9133Z" fill="white"/>
<path id="Vector_8" d="M136.896 57.6087C136.964 58.1661 137.152 58.1058 136.979 58.7008C136.407 60.5914 136.339 60.727 135.887 60.9605C135.528 61.2382 135.111 61.4313 134.667 61.5254C133.614 61.8041 132.531 61.951 131.443 61.9623C130.69 61.9246 130.607 62.2786 129.816 62.3916C128.863 62.592 127.896 62.7229 126.924 62.7833C125.771 62.6402 125.583 63.0469 124.664 62.9791C122.246 62.8134 124.25 63.1674 121.772 62.836C120.966 62.8202 120.16 62.8676 119.361 62.9791C118.697 63.0281 118.03 63.0281 117.365 62.9791C116.454 62.9791 117.034 62.4142 113.599 62.6176C112.206 62.7004 112.53 62.9866 111.016 62.9942C109.675 62.9942 109.72 63.0695 109.72 62.723C109.72 54.8594 109.916 55.4545 109.916 50.4682C109.796 49.5391 109.741 48.6029 109.75 47.6662C110.157 44.8643 107.189 42.5895 104.862 40.1341C100.403 35.4415 100.569 34.7109 99.1978 34.4171C97.9776 34.1611 96.8553 34.726 94.799 34.6356C94.3998 34.6356 94.799 34.6356 90.0839 34.7561C80.5933 35.0197 81.1432 34.9519 81.211 34.5151C81.3315 33.7016 81.919 32.5416 82.4764 32.4437C85.2934 31.9466 83.8774 32.0897 84.8716 30.6435C85.104 30.3993 85.4117 30.2401 85.7453 30.1916C85.8999 30.1429 86.0651 30.1398 86.2214 30.1825C86.3777 30.2252 86.5184 30.3121 86.6266 30.4326C86.6921 30.5036 86.7728 30.5589 86.8627 30.5943C86.9526 30.6297 87.0493 30.6443 87.1457 30.6371C87.242 30.6298 87.3355 30.6009 87.4191 30.5525C87.5026 30.504 87.5742 30.4373 87.6284 30.3573C87.9071 29.9204 87.9824 29.22 89.0896 28.7454C89.3704 28.6976 89.6589 28.727 89.9242 28.8305C90.1895 28.934 90.4218 29.1077 90.596 29.3329C90.9802 29.9732 91.7033 30.2368 92.3134 29.3329C92.4668 29.0953 92.7076 28.9275 92.9837 28.8659C95.4468 28.3312 95.3865 29.9355 95.9288 29.9355C97.1415 29.9355 96.5465 28.9639 98.324 28.9714C99.0773 28.9714 100.139 28.8735 100.704 29.943C100.992 30.4326 101.195 30.9674 101.307 31.5248C101.51 32.7977 102.61 31.3139 104.071 31.8261C106.496 32.6772 104.666 34.0857 106.331 34.1385C107.102 34.036 107.882 34.0179 108.658 34.0857C109.449 34.2665 109.238 34.967 109.103 35.7654C108.997 36.4132 109.479 36.5186 110.112 36.7295C111.415 37.2191 110.564 38.0552 111.513 38.236C111.78 38.2161 112.046 38.2821 112.272 38.4244C112.498 38.5668 112.673 38.7779 112.771 39.0268C113.84 41.4447 112.921 41.6028 116.431 41.6028C117.328 41.6028 116.906 42.7929 117.23 44.6157C117.243 44.7026 117.278 44.7849 117.33 44.8553C117.383 44.9257 117.452 44.982 117.532 45.0194C117.611 45.0573 117.698 45.0753 117.786 45.0719C117.874 45.0684 117.96 45.0437 118.036 44.9998C118.744 44.6684 118.789 44.4199 119.542 44.3219C119.956 44.2692 120.145 44.3671 120.295 44.7588C120.89 46.3933 120.213 47.5758 121.259 48.0428C121.749 48.2688 122.45 47.9223 123.218 48.2613C123.866 48.5475 123.971 48.781 124.988 49.6924C125.357 50.0313 125.621 49.5417 126.954 50.0012C127.624 50.2347 127.526 50.9728 127.647 52.1403C127.767 53.3078 128.784 52.4491 131.285 52.6224C131.474 52.6239 131.66 52.6747 131.824 52.7698C131.987 52.8649 132.124 53.001 132.219 53.1647C133.522 55.4244 133.032 55.4244 134.765 55.7482C135.271 55.792 135.751 55.9959 136.134 56.3304C136.517 56.6648 136.784 57.1125 136.896 57.6087Z" fill="white"/>
<path id="Vector_9" d="M39.8056 46.5966C39.0524 46.8829 37.8021 46.1899 36.9057 46.687C36.1525 47.1239 35.6027 46.8377 35.098 46.8829C34.6723 46.9217 34.2432 46.8963 33.8251 46.8076C33.4977 46.7911 33.1697 46.8267 32.8534 46.913C30.3226 47.2444 28.6731 46.446 27.6713 46.4535C27.3932 46.4309 27.1225 46.3526 26.8754 46.2232C26.6282 46.0938 26.4096 45.916 26.2327 45.7003C26.0178 45.4874 25.872 45.2148 25.8142 44.9179C25.7565 44.621 25.7894 44.3136 25.9088 44.0357C26.1321 43.5676 26.4817 43.1711 26.9181 42.8908C27.2721 42.6046 27.1817 42.3259 27.0989 41.7309C27.1008 41.1866 27.2435 40.6521 27.5131 40.1792C27.9575 39.0946 29.2982 38.8536 30.6239 38.7557C30.9553 38.7557 31.6407 39.2302 31.9194 38.5372C32.522 37.0308 31.4449 35.7955 34.4126 35.5244C35.0076 35.4716 35.2637 35.2156 35.211 34.4699C35.211 34.1083 34.8946 33.8221 35.3692 33.4003C35.7088 33.0296 36.1347 32.7484 36.6089 32.5815C37.0832 32.4147 37.5913 32.3674 38.0883 32.4437C39.8659 32.632 38.3519 29.6267 40.2801 29.5212C41.3271 29.4685 41.7866 29.5212 41.9824 28.9187C42.2084 28.0901 42.1707 27.48 43.1348 27.0884C45.869 25.9811 44.8145 25.6648 47.8952 26.7795C48.01 26.8441 48.1379 26.8823 48.2694 26.8913C48.4009 26.9003 48.5327 26.8799 48.6554 26.8316C48.778 26.7833 48.8883 26.7082 48.9783 26.6119C49.0683 26.5156 49.1357 26.4005 49.1756 26.2749C49.6953 24.9944 50.6067 23.4277 51.9098 22.9683C52.1522 22.8304 52.4039 22.7096 52.663 22.6067C53.9661 22.313 53.8832 22.3431 53.9736 22.3582C58.1088 23.2846 55.7361 23.0586 58.0786 21.394C58.7038 20.9496 59.3365 21.2283 60.3383 21.4618C61.6941 21.7782 60.9635 24.1433 62.274 23.7667C63.0273 23.5558 63.2834 23.1415 63.5922 25.3108C63.7428 26.3427 63.5093 26.8699 64.3454 26.9076C64.7497 26.9319 65.1387 27.0709 65.4669 27.3084C65.795 27.5458 66.0488 27.8719 66.1983 28.2483C66.4393 28.7078 66.0853 30.0108 67.1926 29.7547C68.2998 29.4986 69.2338 29.4459 69.9343 30.508C70.2883 30.938 70.5105 31.4615 70.5745 32.0144C70.5745 32.9032 72.209 32.2253 72.6986 32.6396C74.0619 33.7995 73.7455 34.259 73.7154 34.7862C73.6853 35.3135 63.9688 33.92 45.3267 35.0348C44.3776 35.0875 44.114 35.5018 43.9935 43.2674C43.9408 46.9733 44.0537 46.6795 43.6621 46.6795C42.2008 46.6795 42.3665 46.6795 42.359 46.7548L39.8056 46.5966Z" fill="white"/>
<path id="Vector_10" d="M43.8806 60.6896C43.9785 63.1451 43.7601 83.2861 43.6621 85.7115C43.6621 86.0504 43.5793 85.9374 42.8035 85.8546C41.6887 85.7341 42.3967 85.7491 39.7906 86.073C39.1856 86.1528 38.5728 86.1528 37.9678 86.073C37.1092 86.3668 35.55 85.9826 33.7498 85.945C29.3209 85.8621 30.4884 85.591 29.0196 85.6663C25.0502 85.8922 25.0351 86.0052 24.5003 85.7868C23.4311 85.5696 22.3232 85.6425 21.2916 85.9977C20.8563 86.0806 20.4089 86.0806 19.9735 85.9977C19.3935 86.0278 18.8135 86.0278 18.2336 85.9977C17.7138 85.9148 17.1941 85.8019 16.6744 85.719C14.5353 85.3876 14.9571 85.945 14.0909 85.9676C13.5538 86.0354 13.0093 86.0354 12.4715 85.9676C12.2648 85.9299 12.053 85.9299 11.8463 85.9676C11.4018 85.9972 10.9588 85.8904 10.5766 85.6616C10.1944 85.4328 9.89105 85.0929 9.70716 84.6871C9.4729 84.2143 9.14186 83.796 8.73551 83.4594C8.14047 82.8718 8.32124 81.1997 9.48872 80.3335C9.82014 80.0699 10.1064 80.3862 11.319 79.8816C11.884 79.6481 11.6655 79.3242 11.786 78.5785C12.2078 75.882 14.1963 76.6201 14.0457 75.2945C14.0425 74.9106 14.1652 74.5362 14.3951 74.2287C14.6251 73.9213 14.9495 73.6977 15.3186 73.5922C16.0718 73.4491 17.4502 74.8426 18.3842 72.6281C18.9265 71.3552 17.9398 71.3552 18.5499 70.5266C19.16 69.6981 19.2353 69.0202 20.1844 69.2386C21.9243 69.6755 20.7192 68.3649 22.2181 67.446C22.3289 67.3754 22.4545 67.3313 22.585 67.3169C22.7156 67.3025 22.8478 67.3183 22.9713 67.3631C23.147 67.416 23.3337 67.4208 23.5118 67.3768C23.6899 67.3329 23.853 67.2418 23.9839 67.1132C24.1148 66.9847 24.2087 66.8233 24.2558 66.6459C24.303 66.4686 24.3016 66.2819 24.2518 66.1053C24.2518 65.9395 23.7998 65.4726 24.5681 64.8323C24.9297 64.5235 25.4418 64.2599 25.1481 63.5669C24.8543 62.874 25.4569 61.4127 26.7449 61.0286C27.6563 60.7574 27.7542 61.1265 28.1384 61.3073C28.1917 61.3382 28.2506 61.3583 28.3118 61.3663C28.3729 61.3743 28.435 61.3702 28.4946 61.354C28.5541 61.3379 28.6098 61.3102 28.6586 61.2724C28.7073 61.2347 28.7481 61.1876 28.7786 61.134C29.0046 60.7424 28.5451 60.6218 29.803 59.9214C30.3679 59.605 30.5562 59.9665 31.3094 59.9214C32.0626 59.8762 31.7839 59.2133 32.0626 58.0232C32.1605 57.609 32.2057 57.6014 32.6125 57.6994C33.7272 57.9555 33.4787 56.5695 33.9683 56.2984C34.4578 56.0272 35.3843 55.6431 35.8965 55.9745C37.2071 56.8181 37.4782 57.2098 38.0733 56.916C38.1537 56.8631 38.244 56.8272 38.3387 56.8103C38.4334 56.7934 38.5306 56.7959 38.6243 56.8178C38.718 56.8396 38.8063 56.8803 38.8838 56.9373C38.9613 56.9943 39.0263 57.0665 39.0751 57.1495C39.7078 57.9555 39.8961 58.1136 39.6701 59.266C39.5345 59.9816 39.768 60.0871 40.8451 60.4411C41.3347 60.5992 41.4628 60.8855 41.7339 61.3299C42.0051 61.7743 42.4871 61.7818 42.8035 61.0964C43.1198 60.4109 43.8504 59.9364 43.8806 60.6896Z" fill="white"/>
<path id="Vector_11" d="M83.4169 86.9096C83.6127 87.1281 83.5826 87.1808 82.4678 88.1976C80.6827 89.8321 81.5037 89.3952 78.8675 86.8569C78.5511 86.5556 78.1142 86.8042 78.1142 87.5499C78.0088 95.4888 78.7854 96.4529 77.6329 96.4905C74.846 96.5884 74.1606 96.7692 74.0552 96.129C73.9798 95.79 74.2133 88.0018 74.0552 87.2184C74.0499 87.1478 74.0295 87.0791 73.9954 87.017C73.9613 86.9549 73.9143 86.9009 73.8576 86.8585C73.8008 86.8161 73.7357 86.7863 73.6665 86.7712C73.5972 86.7562 73.5256 86.7561 73.4564 86.771C73.3637 86.7904 73.2785 86.8359 73.2108 86.9021C71.4633 88.6119 71.3052 89.6212 70.7704 89.1617C70.7026 89.109 69.0229 87.6553 68.8873 87.5122C68.5936 87.1582 68.5785 87.1883 69.859 85.7572C72.8719 82.3979 72.1186 83.3017 74.0619 81.2379C76.4429 78.7749 75.9149 78.8351 78.8524 81.9233C82.7089 85.9907 80.9689 84.0926 83.4169 86.9096Z" fill="white"/>
</g>
<g id="Ink">
<path id="Vector_12" d="M139.796 82.5027C141.928 82.8944 142.613 84.4009 142.244 85.5608C142.154 85.8395 141.987 88.069 140.639 88.875C140.217 89.189 139.735 89.412 139.224 89.5303C138.885 89.5754 138.568 89.7713 138.236 89.8466C136.986 90.1328 136.971 89.7562 135.849 89.8466C129.884 90.404 126.6 89.6357 124.551 90.4191C123.203 90.9237 119.519 90.2533 118.088 90.4191C116.656 90.5848 117.884 89.8617 111.429 90.3211C109.765 90.4341 109.825 90.2157 109.817 90.63C109.817 102.086 109.757 100.941 110.073 100.926C110.517 100.897 110.961 100.987 111.358 101.187C111.755 101.387 112.092 101.69 112.333 102.064C112.725 102.885 113.553 101.71 114.819 103.329C115.368 104.037 115.738 104.497 115.421 105.137C115.36 105.275 115.356 105.431 115.41 105.572C115.464 105.713 115.571 105.828 115.708 105.89C115.896 105.98 116.017 105.95 117.215 105.792C117.829 105.708 118.453 105.867 118.952 106.236C119.451 106.605 119.787 107.153 119.888 107.766C119.956 108.202 121.605 108.157 122.147 110.131C122.185 110.259 122.147 110.545 122.245 110.665C122.592 111.072 124.038 110.304 125.138 112.172C125.785 113.678 125.537 114.432 124.46 115.185C123.993 115.509 124.03 116.104 123.315 116.397C122.049 116.932 121.9 116.977 121.711 116.947C120.868 116.812 119.338 117.173 117.899 116.789C117.267 116.616 114.028 117.211 110.744 116.789C109.169 116.601 110.353 117.218 109.826 121.896C109.66 123.402 107.196 122.966 103.957 123.169C100.342 123.395 50.1926 123.802 45.2515 123.079C43.9334 122.89 44.1744 122.732 44.1217 119.561C44.0464 114.981 44.5511 114.884 43.5116 115.079C42.0323 115.197 40.5439 115.177 39.0676 115.019C38.6684 114.944 38.0583 115.396 37.0716 115.313C36.0696 115.216 35.0607 115.216 34.0588 115.313C32.2962 115.501 29.5847 114.642 26.9484 115.094C25.0654 115.411 24.4327 115.094 23.0091 115.245C22.5144 115.354 22.0044 115.374 21.5026 115.305C19.8682 114.906 17.5031 115.238 16.3808 111.426C16.2151 110.861 16.7649 110.673 15.846 110.515C15.3747 110.409 14.9647 110.12 14.7063 109.712C14.4478 109.304 14.362 108.809 14.4676 108.338C14.6182 107.449 14.6032 107.223 14.4676 107.027C13.8123 105.928 14.204 105.107 15.0777 103.698C15.9514 102.29 17.1265 103.005 17.375 102.358C17.6118 101.752 18.0731 101.261 18.663 100.987C20.2222 100.233 20.5611 100.09 20.9227 100.362C21.2842 100.633 21.6759 99.8794 23.1296 99.887C23.8923 99.9842 24.6004 100.334 25.1407 100.881L26.0295 101.032C26.3308 101.07 25.4118 99.4124 26.8279 97.5671C27.4982 96.6933 28.018 97.4315 28.2063 96.8967C29.1779 94.0797 30.9781 94.7952 32.7934 95.33C33.3507 95.5033 32.9289 94.9835 33.7424 93.8236C35.0003 92.0234 39.2258 92.2192 40.318 93.5148C40.8226 94.1098 40.8904 94.1851 41.0712 94.0194C41.7222 93.4693 42.5641 93.1986 43.4137 93.2662C43.7677 93.3491 43.6547 93.2662 43.6547 91.82C43.6547 91.338 43.6999 91.4058 43.6547 89.1536C43.6547 88.9804 43.5794 88.8147 43.6547 88.6264C43.6849 88.4343 43.6849 88.2385 43.6547 88.0464C43.6924 86.9467 43.8656 86.894 43.3007 86.8488C42.2944 86.7177 41.2725 86.7765 40.2879 87.022C40.2879 87.022 38.6609 87.1576 38.6308 87.1426C38.224 86.894 37.8776 87.2781 37.1243 87.1426C36.8908 87.0974 35.874 87.1426 35.2187 86.9994C34.0437 86.7659 33.9759 86.9994 32.9591 86.894C31.1438 86.6454 31.1137 86.9543 30.0215 86.668C29.5747 86.5505 29.105 86.5505 28.6582 86.668C27.0915 86.7509 25.8412 86.8036 25.1181 86.8639C24.395 86.9241 24.5532 86.6454 23.4007 86.6304C21.9998 86.6304 21.4273 87.1275 20.2824 86.9994C19.2581 86.8789 18.7007 87.0748 17.9173 86.9091C17.2008 86.7539 16.4728 86.6582 15.7405 86.6228C15.1154 86.3743 15.2811 86.9166 13.978 86.9618C13.1193 86.9618 11.8841 86.8714 11.7184 86.9618C10.9651 87.2104 9.88052 86.4797 9.45872 86.1558C8.83355 85.6587 8.92393 85.0863 8.56992 84.7925C7.54555 83.9339 7.2292 83.0149 7.69619 81.4633C7.73385 81.3579 7.69619 81.1093 7.75645 81.0114C8.27617 80.0849 8.71303 79.1434 9.91065 79.1961C11.6732 79.2714 10.3852 79.5727 10.9953 77.5391C11.2779 76.7515 11.806 76.0756 12.5017 75.6108C12.7277 75.4376 12.8708 75.769 13.0516 74.9932C13.3227 73.7956 13.9253 72.8164 15.138 72.6055C15.9816 72.4624 16.7122 73.306 17.2093 72.7185C18.2337 71.5133 16.1096 71.9276 18.5199 68.7867C18.7209 68.5424 18.9907 68.3643 19.2944 68.2756C19.598 68.1869 19.9213 68.1918 20.2222 68.2896C20.3578 68.2896 20.4029 68.2896 20.4933 68.0033C20.7946 66.979 21.9998 66.0676 23.0091 66.399C23.7171 66.64 22.3688 65.5328 23.9807 64.0715C24.3423 63.7477 23.815 63.484 24.0937 62.6254C24.8017 60.4335 26.4211 59.7255 27.8071 60.1473C28.3343 60.3055 27.8071 59.8159 29.193 59.1154C29.3916 58.984 29.6149 58.8942 29.8492 58.8515C30.0835 58.8088 30.3241 58.814 30.5563 58.8668C31.1438 59.0401 30.6693 58.4375 31.3095 57.1495C31.3741 56.9792 31.4982 56.838 31.6588 56.7521C31.8194 56.6663 32.0058 56.6415 32.1832 56.6825C33.2302 56.7879 32.1832 55.8238 34.0286 55.1083C34.3915 54.9251 34.7952 54.838 35.2013 54.8551C35.6074 54.8723 36.0024 54.9931 36.3485 55.2062C37.3352 55.7636 37.3955 56.0347 37.7043 55.9142C38.9622 55.4246 40.4084 56.916 40.5439 58.0533C40.6494 58.8894 40.333 59.2585 40.6871 59.3715C42.1106 59.8611 41.96 60.4109 42.1935 60.087C42.427 59.7631 43.1651 59.1832 43.5719 59.266C43.8054 59.3187 43.7301 59.1229 43.8054 57.8801C43.9636 55.1233 44.0615 55.8464 43.8807 48.6909C43.8807 47.8623 43.9711 47.7343 43.6999 47.7343C41.9901 47.7343 39.2484 47.674 38.1713 47.5234C36.8231 47.3351 37.2147 48.1109 35.9945 47.9527C35.6392 47.9113 35.2803 47.9113 34.925 47.9527C34.6081 47.9477 34.2925 47.9098 33.9834 47.8397C33.4411 47.7795 33.5692 47.9979 32.9365 47.9753C29.1704 47.8548 30.3002 47.9 28.2364 47.546C27.5938 47.4645 26.9606 47.3208 26.3458 47.1166C24.3799 46.2956 24.3724 43.1999 25.7357 42.4542C26.6396 41.9571 25.7357 41.4374 26.8053 39.2907C27.1075 38.737 27.6166 38.3254 28.2213 38.1458C30.6843 37.2947 31.2342 38.1006 31.189 37.4905C30.9555 34.1237 34.2019 34.9597 34.1115 34.2517C33.9307 32.9261 34.8647 32.3461 36.0171 31.6832C36.559 31.4175 37.1634 31.3054 37.7646 31.3594C38.2617 31.3594 37.8851 31.2614 38.4048 29.6646C38.7739 28.5122 40.0092 28.5047 40.785 28.4519C41.0637 28.4519 41.0637 28.452 41.1164 28.1507C41.4026 26.712 41.7868 26.3881 44.7017 25.1981C45.6508 24.8139 46.404 25.1981 47.9857 25.7404C48.3096 25.8534 48.1966 25.6651 48.9574 24.49C50.4638 22.1777 51.684 21.3868 54.5688 21.3943C55.0373 21.447 55.4976 21.5563 55.9397 21.7182C56.4745 21.8236 57.2654 19.8879 58.8923 20.1063C61.5361 20.4603 61.8298 21.0554 62.1839 22.2831C62.4023 23.0363 64.4435 21.5299 64.3908 25.3638C64.3908 25.6425 64.2477 25.8759 64.6318 25.9513C65.2463 25.993 65.8234 26.2615 66.2512 26.7045C66.7833 27.1454 67.1191 27.7791 67.1852 28.467C67.2831 28.9792 67.9384 28.2185 69.5126 28.821C70.4117 29.373 71.0765 30.2362 71.3806 31.2464C71.5011 31.5853 71.5313 31.397 72.8871 31.6456C73.4331 31.9211 73.8959 32.337 74.2278 32.8507C75.3576 34.6735 73.5424 35.1104 76.0958 34.8844C77.2376 34.8166 78.3818 34.8166 79.5236 34.8844C80.9548 34.9296 79.5236 34.1689 81.241 32.0147C81.463 31.7514 81.7452 31.5455 82.0637 31.4144C82.3822 31.2833 82.7275 31.2309 83.0705 31.2614C83.3869 31.2614 83.3801 31.2614 83.4931 30.9602C83.8697 29.9358 84.0723 29.4537 85.3377 29.1374C85.7871 28.9744 86.2827 28.9961 86.7161 29.1976C87.1831 29.5065 86.9353 28.3088 88.743 27.6912C89.2097 27.5747 89.7009 27.604 90.1506 27.775C90.6002 27.946 90.9866 28.2506 91.258 28.6478C91.5668 29.1524 91.258 28.0753 93.1184 27.8117C95.4609 27.4803 95.7472 28.6629 96.0635 28.693C96.3799 28.7231 96.2518 27.8644 99.2346 27.9398C101.833 28.0377 101.947 31.1033 102.339 30.8698C102.719 30.6917 103.144 30.6339 103.558 30.7041C103.734 30.6852 103.911 30.6852 104.085 30.7041C106.925 31.4121 106.006 33.1972 106.586 33.0315C107.273 32.896 107.975 32.858 108.672 32.9185C109.076 32.9586 109.452 33.1442 109.729 33.4408C110.006 33.7374 110.166 34.1247 110.179 34.5304C110.141 34.8016 110.179 35.0803 110.111 35.3665C110.043 35.6527 110.149 35.6452 110.329 35.6828C110.665 35.7523 110.975 35.9117 111.227 36.1438C111.479 36.376 111.664 36.6722 111.761 37.001C111.934 37.6939 112.785 36.8127 113.523 38.4095C114.193 39.8556 113.946 40.5185 114.925 40.5109C117.087 40.5109 117.938 40.1494 117.938 43.1924C117.938 44.1188 118.133 43.0794 119.971 43.1924C121.281 43.2978 121.552 45.9944 121.477 46.7852C121.417 47.2522 122.358 47.1468 123.089 47.2673C124.392 47.4707 125.033 48.7737 125.297 48.7737C125.609 48.8377 125.932 48.8377 126.246 48.7737C126.513 48.7423 126.784 48.7647 127.043 48.8397C127.302 48.9148 127.543 49.0409 127.752 49.2106C128.317 49.5721 128.339 50.2576 128.459 51.3874C128.52 51.9749 131.683 50.5362 132.926 52.3741C134.169 54.2119 133.611 54.5132 134.297 54.5132C134.814 54.5147 135.325 54.6171 135.803 54.8145C136.647 55.3794 137.671 55.8163 137.799 57.0742C137.952 57.8268 137.903 58.6065 137.656 59.3338C137.144 60.4561 137.204 61.2997 136.27 61.7667C135.235 62.3927 134.065 62.7645 132.858 62.8513C130.598 62.8513 132.052 63.1526 127.473 63.6799C126.38 63.8079 127.323 63.484 125.485 63.838C124.543 64.0188 124.61 63.7552 123.548 63.838C121.703 63.9812 122.396 63.5744 120.852 63.7703C115.941 64.3804 117.395 63.1903 113.493 63.4539C112.054 63.5594 113.072 63.8908 109.863 63.7929C109.449 63.7929 109.772 63.8908 109.727 67.9883C109.727 69.4947 109.727 70.2479 110.006 70.0596C110.917 69.4872 112.054 70.5266 112.002 69.7885C111.738 66.2182 118.253 66.7304 118.781 70.1651C118.856 70.6622 119.014 69.7282 121.04 70.2329C123.827 70.9183 123.157 73.3361 123.744 72.9294C124.388 72.5624 125.146 72.4496 125.869 72.613C127.225 72.9068 127.322 72.726 127.834 75.189C130.583 74.4358 131.834 75.0459 133.265 76.6352C133.837 77.2754 133.491 78.2621 133.431 79.1359C133.37 80.0096 133.86 78.7141 135.615 79.4899C136.323 79.7987 136.571 80.7854 136.843 81.5462C137.4 83.1354 137.71 82.1186 139.796 82.5027ZM141.302 85.0788V84.913C141.189 83.723 139.479 83.3238 138.417 83.5347C135.103 84.205 136.443 80.4465 134.651 80.4389C133.898 80.4389 134.093 80.6348 133.476 80.9662C132.723 81.3654 132.406 81.034 132.384 80.4992C132.301 78.4128 133.604 77.6746 131.073 76.2661C130.65 76.0835 130.193 75.9943 129.733 76.0047C129.273 76.0151 128.82 76.1248 128.407 76.3264C126.147 77.7349 127.503 73.9311 125.951 73.8031C125.351 73.6641 124.72 73.7611 124.189 74.0743C122.2 75.5129 123.051 72.5076 121.628 71.664C119.481 70.3835 118.434 72.726 117.899 71.7619C117.696 71.3853 117.952 70.3835 117.658 69.9617C117.296 69.3602 116.721 68.9166 116.047 68.7189C115.629 68.5596 115.181 68.4952 114.736 68.5304C114.29 68.5655 113.858 68.6994 113.47 68.9223C112.823 69.4043 113.229 70.1199 113.199 70.6321C113.116 72.1912 111.391 70.745 110.653 71.1367C109.147 71.9276 110.314 72.6431 108.996 73.3286C108.138 73.6983 107.389 74.2817 106.82 75.0233C106.534 75.3472 106.752 75.3773 106.925 76.0552C106.972 76.1982 106.976 76.3521 106.935 76.497C106.894 76.642 106.811 76.7715 106.696 76.8687C106.62 76.9335 106.531 76.9822 106.436 77.0118C105.976 77.0734 105.53 77.2136 105.118 77.4261C104.666 77.6746 104.628 77.7274 105.336 79.3769C105.54 79.8514 105.11 80.5519 104.764 80.9285C103.958 81.7947 103.536 80.9285 102.504 81.5612C100.749 82.7287 102.414 85.1089 100.998 85.493C99.868 85.7943 99.7776 85.7491 99.4914 86.0203C99.2052 86.2914 98.6696 86.9241 98.8579 87.4137C99.3249 88.649 99.6112 88.4155 99.7166 88.5887C99.92 88.9277 100.425 88.8373 100.53 88.9202C100.854 89.1762 100.967 89.0859 103.746 89.0783L107.942 89.3269C109.02 89.5604 109.697 89.0407 110.329 89.1988C110.987 89.3188 111.666 89.2537 112.289 89.0105C112.826 88.9723 113.366 88.99 113.9 89.0633C114.684 88.951 115.481 88.951 116.266 89.0633C116.943 89.244 117.643 89.3254 118.344 89.3043C119.452 89.1235 119.617 89.47 121.839 89.4851C122.224 89.4512 122.613 89.4512 122.999 89.4851C123.465 89.5625 123.944 89.5131 124.384 89.3419C126.283 88.7394 124.738 89.2742 127.51 88.9427C128.325 88.8455 129.15 88.8683 129.958 89.0105C131.231 89.116 132.007 88.6716 133.453 88.9277C133.724 88.9729 136.24 88.6565 137.679 88.7243C138.143 88.7946 138.617 88.7636 139.068 88.6336C139.519 88.5036 139.937 88.2776 140.292 87.9711C140.812 87.6096 140.872 87.3836 141.196 86.201C141.234 85.847 141.099 85.4403 141.287 85.0788H141.302ZM136.971 58.7162C137.137 58.1287 136.971 58.1814 136.888 57.624C136.777 57.12 136.506 56.6656 136.115 56.3288C135.724 55.992 135.234 55.7911 134.719 55.756C132.987 55.4849 133.476 55.402 132.173 53.18C132.079 53.0147 131.944 52.8773 131.779 52.782C131.615 52.6867 131.429 52.6369 131.239 52.6377C128.746 52.4645 127.714 53.2328 127.601 52.1481C127.488 51.0635 127.601 50.25 126.915 50.0165C125.575 49.5495 125.311 50.0165 124.949 49.7077C123.94 48.7888 123.827 48.5628 123.179 48.2766C122.426 47.9377 121.711 48.2766 121.213 48.0582C120.189 47.5987 120.852 46.4086 120.257 44.7741C120.241 44.6934 120.207 44.617 120.16 44.55C120.112 44.483 120.05 44.4269 119.979 44.3855C119.908 44.3438 119.829 44.3179 119.746 44.3096C119.664 44.3013 119.582 44.3107 119.504 44.3373C118.479 44.4653 117.718 45.6253 117.244 44.8193C116.769 44.0134 117.447 41.6106 116.385 41.6106C112.875 41.6106 113.787 41.4525 112.717 39.0271C112.614 38.7864 112.438 38.5842 112.213 38.4491C111.989 38.314 111.728 38.2527 111.467 38.2739C110.518 38.1157 111.369 37.2796 110.066 36.7675C109.433 36.5264 108.951 36.4511 109.056 35.7958C109.185 34.9974 109.403 34.2894 108.605 34.1237C107.832 34.0597 107.054 34.0774 106.285 34.1764C104.606 34.1086 106.444 32.7076 104.026 31.864C102.557 31.3518 101.464 32.8357 101.261 31.5552C101.148 30.9998 100.941 30.4675 100.651 29.981C100.086 28.9114 99.0086 29.0093 98.278 29.0093C96.5004 29.0093 97.0879 29.981 95.8827 29.9734C95.3404 29.9734 95.4007 28.3691 92.9301 28.9039C92.6544 28.9664 92.4139 29.1339 92.2598 29.3709C91.6572 30.2672 90.9341 30.0111 90.5424 29.3709C90.369 29.1446 90.1369 28.9702 89.8713 28.8666C89.6057 28.763 89.3168 28.7342 89.036 28.7834C87.9212 29.2504 87.861 29.9509 87.5748 30.3952C87.5204 30.476 87.4483 30.5433 87.364 30.592C87.2796 30.6406 87.1853 30.6694 87.0882 30.6762C86.9912 30.6836 86.8938 30.6689 86.8033 30.6333C86.7127 30.5977 86.6314 30.5421 86.5655 30.4706C86.4598 30.3487 86.3205 30.2609 86.165 30.218C86.0096 30.1751 85.8449 30.1791 85.6917 30.2295C85.3584 30.2782 85.051 30.4374 84.8188 30.6815C83.8245 32.1276 85.2398 31.9845 82.4152 32.4817C81.8654 32.5796 81.2779 33.7395 81.1574 34.553C81.0896 34.9823 80.5397 35.0577 90.0303 34.794C94.7228 34.666 94.3387 34.6585 94.7379 34.6735C96.8017 34.7639 97.924 34.199 99.1442 34.4551C100.515 34.7488 100.342 35.4795 104.801 40.172C107.136 42.6199 110.073 44.9022 109.689 47.7042C109.684 48.6433 109.74 49.5817 109.856 50.5137C109.856 55.4924 109.652 54.9049 109.66 62.7685C109.66 63.115 109.66 63.0547 110.955 63.0396C112.462 63.0396 112.145 62.7459 113.546 62.663C116.98 62.4597 116.415 63.017 117.312 63.0246C117.976 63.0735 118.643 63.0735 119.308 63.0246C120.104 62.9132 120.908 62.8653 121.711 62.8815C124.189 63.2129 122.185 62.8815 124.603 63.0246C125.529 63.0924 125.71 62.6856 126.863 62.8287C127.835 62.7689 128.802 62.638 129.755 62.4371C130.508 62.3241 130.614 61.9701 131.382 62.0077C132.468 61.9938 133.549 61.8446 134.598 61.5633C135.043 61.4743 135.461 61.2836 135.819 61.006C136.316 60.7348 136.399 60.5992 136.956 58.7011L136.971 58.7162ZM123.986 114.379C124.224 114.249 124.402 114.032 124.481 113.772C124.559 113.513 124.533 113.233 124.407 112.993C124 111.615 122.983 111.818 121.56 111.434C121.07 111.306 121.207 110.869 121.131 110.455C120.913 109.28 120.52 109.219 119.33 108.587C118.637 108.225 118.946 107.879 118.577 107.284C118.027 106.447 117.146 106.696 116.129 106.824C115.731 106.85 115.337 106.735 115.015 106.5C114.693 106.264 114.464 105.923 114.367 105.536C114.254 104.896 114.804 104.738 114.419 104.278C113.666 103.344 113.583 103.111 112.597 103.239C111.843 103.337 111.738 103.299 111.504 102.614C111.415 102.364 111.243 102.153 111.017 102.016C110.79 101.879 110.524 101.824 110.262 101.86C109.561 101.966 110.028 100.987 109.757 106.169C109.674 107.811 110.111 115.072 109.923 115.072C109.878 115.946 109.832 115.953 110.262 115.983C111.015 116.043 111.723 116.126 112.454 116.156C114.608 116.239 117.236 115.727 118.072 115.998C119.187 116.36 119.94 116.164 121.259 116.194C122.893 116.194 123.007 115.049 123.971 114.364L123.986 114.379ZM108.884 93.5148C108.884 90.2835 109.02 90.5019 108.553 90.4416C105.781 90.1705 106.383 90.5094 105.54 90.3588C104.696 90.2081 105.472 90.3588 102.866 90.2157C99.2654 90.0349 99.2421 89.6734 98.4663 89.1085C98.0155 88.6674 97.748 88.0723 97.7173 87.4424C97.6865 86.8125 97.8949 86.1943 98.3006 85.7114C98.6567 85.2607 99.148 84.936 99.7023 84.785C100.93 84.5666 100.5 84.6344 100.681 82.5253C100.779 81.3277 102.187 80.0096 103.4 80.1904C105.614 80.5218 102.195 77.5089 104.658 76.4243C105.501 76.0477 105.803 76.123 105.705 75.9046C105.125 74.6392 107.113 72.9821 108.446 72.3645C108.65 72.2665 108.785 72.1837 108.785 71.6489C108.597 52.1255 109.072 51.5606 108.785 48.2389C108.695 47.1317 97.4871 51.7339 98.0144 47.3275C98.2953 45.4498 98.4512 43.5547 98.4813 41.6558C98.6019 38.8463 99.1901 35.5548 98.3616 35.6301C91.0027 36.2101 66.9449 36.1724 63.0583 35.7883C61.1301 35.6 56.6635 35.8862 55.2098 35.9013C45.1318 35.9766 45.418 35.6376 45.2448 36.9106C44.951 39.4715 44.6497 41.9872 44.8908 49.7152C44.9962 53.2102 44.3635 93.8462 44.7175 94.155C45.8775 95.1266 45.5159 96.1812 46.111 95.9778C48.3706 95.6238 49.4402 97.9211 49.169 100.587C49.0862 101.416 51.2554 99.6459 51.8957 102.885C52.2271 104.557 51.7752 104.602 52.4229 104.662C53.6356 104.768 53.9745 105.077 54.2532 105.694C54.7805 106.862 54.1026 107.698 54.7353 107.6C55.8632 107.333 57.0479 107.45 58.1022 107.931C58.6068 108.202 58.7725 108.587 58.9684 109.37C59.1642 110.153 59.6538 109.521 61.3335 110.078C62.3804 110.424 63.8191 110.876 63.9999 111.984C64.1806 113.091 65.092 113.317 63.6458 114.725C63.0583 115.298 62.1394 114.936 57.8009 115.102C56.9874 115.14 55.1646 115.479 54.4867 115.418C52.4907 115.222 53.1611 115.652 50.457 115.268C48.6719 115.019 49.1314 115.381 47.2182 115.177C46.5699 115.106 45.9157 115.106 45.2674 115.177C44.9811 115.177 44.9811 115.222 44.9887 115.516C45.2297 122.22 44.6045 121.926 45.644 122.182C48.8828 122.973 96.4032 122.461 106.82 122.016C109.833 121.896 108.574 123.583 108.838 101.514C108.898 96.5879 108.846 98.84 108.868 93.5223L108.884 93.5148ZM108.213 46.8606C108.778 46.5894 108.922 46.5442 107.754 44.9624C106.587 43.3807 106.352 43.456 105.087 42.1002C97.9842 34.5078 100.147 35.261 99.6872 38.5375C99.2956 41.3319 99.7242 40.7294 99.0839 47.2598C99.0011 48.0958 99.8899 48.2389 100.696 48.1711C102.82 48.1486 108.123 46.8229 108.198 46.8229L108.213 46.8606ZM73.7231 34.8468C73.7231 34.3195 74.0696 33.86 72.7063 32.7001C72.2167 32.2858 70.6048 32.9637 70.5822 32.0749C70.5183 31.5216 70.296 30.9985 69.942 30.5685C69.2415 29.5215 68.3904 29.5667 67.2003 29.8153C66.0102 30.0638 66.4471 28.7532 66.206 28.3088C66.0565 27.9324 65.8028 27.6064 65.4746 27.3689C65.1465 27.1315 64.7574 26.9925 64.3531 26.9681C63.5472 26.9305 63.7807 26.4032 63.5999 25.3713C63.2911 23.202 63.0199 23.6163 62.2818 23.8272C60.9712 24.2038 61.7018 21.8387 60.346 21.5224C59.3518 21.2889 58.7115 21.0177 58.0864 21.4546C55.7439 23.1116 58.0864 23.3451 53.9813 22.4187C53.8909 22.4187 53.9813 22.3735 52.6707 22.6672C52.411 22.7688 52.1592 22.8896 51.9175 23.0288C50.6144 23.4883 49.7106 25.0474 49.1833 26.3354C49.1433 26.4609 49.0758 26.576 48.9858 26.6722C48.8958 26.7684 48.7855 26.8434 48.6629 26.8917C48.5403 26.94 48.4085 26.9605 48.2771 26.9515C48.1456 26.9426 48.0178 26.9045 47.9029 26.8401C44.8222 25.7253 45.8767 26.0417 43.1425 27.1489C42.1784 27.5406 42.2161 28.1582 41.9901 28.9792C41.8244 29.6044 41.3348 29.529 40.2879 29.5818C38.3596 29.6872 39.8736 32.6926 38.096 32.5043C37.5991 32.4279 37.0909 32.4752 36.6167 32.6421C36.1424 32.8089 35.7166 33.0902 35.3769 33.4608C34.9024 33.8826 35.1961 34.1689 35.2187 34.5304C35.2714 35.2836 35.0153 35.5322 34.4203 35.5849C31.4074 35.8335 32.5373 37.0913 31.9272 38.5978C31.6485 39.2907 30.963 38.7861 30.6316 38.8162C29.306 38.9141 27.9652 39.1476 27.5208 40.2398C27.2513 40.7126 27.1086 41.2471 27.1066 41.7914C27.1894 42.3865 27.2723 42.6651 26.9258 42.9514C26.4914 43.234 26.1425 43.6299 25.9165 44.0963C25.7971 44.3742 25.7642 44.6816 25.822 44.9785C25.8797 45.2753 26.0255 45.548 26.2404 45.7609C26.4174 45.9765 26.6359 46.1543 26.8831 46.2837C27.1303 46.4132 27.4009 46.4915 27.679 46.5141C28.6808 46.5141 30.3303 47.2673 32.8611 46.9735C33.1775 46.8877 33.5054 46.8521 33.8328 46.8681C34.2504 46.9608 34.6801 46.9863 35.1057 46.9434C35.6104 46.8982 36.1376 47.1844 36.9134 46.7476C37.6893 46.3107 39.0375 46.9509 39.8133 46.6572L42.3441 46.8756C42.3441 46.7702 42.1784 46.7928 43.6472 46.7928C44.0464 46.7928 43.9334 47.0865 43.9861 43.3807C44.0916 35.6226 44.3703 35.2008 45.3118 35.148C63.9162 33.973 73.6704 35.4418 73.7081 34.8317L73.7231 34.8468ZM63.4116 113.55C63.4944 113.392 63.3061 113.347 63.2459 113.249C63.1712 113.003 63.1207 112.751 63.0952 112.496C62.9898 112.089 63.0952 111.908 61.7545 111.298C59.6756 110.379 58.2445 111.193 58.0638 109.942C57.9658 109.302 57.9583 108.963 57.3105 108.7C55.8719 108.097 54.614 108.782 53.6951 108.7C53.0323 108.7 53.085 107.864 53.3562 107.359C53.4986 107.104 53.5451 106.807 53.487 106.521C53.429 106.235 53.2703 105.979 53.0398 105.8C52.0682 105.235 51.0664 106.146 50.9459 105.227C50.863 104.61 51.1869 104.753 50.9459 103.329C50.8705 102.749 50.5015 101.755 49.9064 101.823C48.626 101.913 47.9405 102.101 47.9179 101.348C47.9179 100.866 48.6712 99.2317 47.6392 97.5821C46.7354 96.1812 45.1913 97.7704 44.8298 96.3092C44.4381 94.6973 43.0371 94.1475 42.6379 94.3358C42.0864 94.5286 41.5755 94.8223 41.1315 95.202C40.3782 96.1736 40.0619 93.6955 37.4407 93.5901C37.1093 93.5901 36.7553 93.6729 36.4163 93.6654C35.9434 93.691 35.4812 93.8168 35.0605 94.0345C33.8479 94.5542 34.0814 95.5409 34.0136 95.9401C33.7575 97.3486 31.3622 95.684 30.2851 95.9401C29.0197 96.2038 29.0725 97.4993 28.7787 98.0491C28.4322 98.7647 27.679 97.8307 27.2723 98.486C26.1575 100.241 28.1385 102.553 25.8562 102.184C24.8017 102.011 24.5155 102.184 24.2142 101.627C23.8301 100.979 22.7078 100.723 21.4349 101.514C20.6364 101.988 20.5009 101.273 20.1695 101.431C18.8137 102.086 18.5199 102.184 18.3015 102.486C17.8721 103.133 17.8495 103.834 17.021 103.796C15.6878 103.736 15.4694 104.753 15.1756 105.303C14.8141 105.98 15.3338 106.643 15.1756 107.675C14.7388 110.53 16.9683 109.536 17.3298 109.551C17.6914 109.566 17.8345 110.153 17.5031 110.47C17.0361 110.929 17.1716 111.276 17.3826 111.848C17.5412 112.355 17.8357 112.808 18.2342 113.158C18.6326 113.509 19.1196 113.744 19.6422 113.837C22.9639 114.733 21.4198 114.093 24.6436 114.273C25.8562 114.341 27.438 113.942 28.2515 114.01C29.9914 114.168 30.6919 114.01 31.656 114.236C33.0118 114.514 32.9666 114.281 34.2546 114.296C36.7025 114.296 37.4407 114.447 38.0583 114.153C38.676 113.859 42.1709 114.462 43.3308 114.047C44.0276 114.165 44.7348 114.203 45.4399 114.16C47.0668 114.025 47.6543 114.341 48.8143 114.16C49.9742 113.98 50.5843 114.424 52.4448 114.386C57.6269 114.273 56.0903 114.063 58.4027 114.025C62.214 113.942 63.0124 114.281 63.3965 113.535L63.4116 113.55ZM43.8958 60.7047C43.8958 59.9515 43.1425 60.4486 42.7283 61.1566C42.314 61.8646 41.9223 61.8194 41.6587 61.3826C41.3951 60.9457 41.2595 60.6293 40.7699 60.5013C39.6928 60.1473 39.4518 60.0418 39.5949 59.3263C39.8209 58.1739 39.5949 58.0082 38.9999 57.2097C38.952 57.1249 38.8871 57.0509 38.8093 56.9923C38.7315 56.9337 38.6425 56.8918 38.5478 56.8692C38.453 56.8465 38.3546 56.8437 38.2588 56.8608C38.1629 56.878 38.0716 56.9147 37.9905 56.9687C37.3955 57.27 37.1319 56.8859 35.8213 56.0347C35.3091 55.7033 34.4504 56.0347 33.893 56.3586C33.3357 56.6825 33.652 58.0157 32.5373 57.7596C32.1305 57.6617 32.0853 57.6692 31.9874 58.0835C31.7163 59.266 31.9046 59.9138 31.2342 59.974C30.5638 60.0343 30.3002 59.6878 29.7278 59.974C28.7787 60.5013 28.9745 60.4335 28.7411 61.0888C28.7198 61.1552 28.684 61.2161 28.6363 61.2669C28.5885 61.3177 28.53 61.3571 28.465 61.3824C28.4 61.4077 28.3302 61.4181 28.2607 61.4129C28.1912 61.4077 28.1237 61.3871 28.0632 61.3524C27.679 61.1867 27.5736 60.8101 26.6697 61.0813C25.3817 61.4579 24.7415 62.8212 25.0729 63.6196C25.3591 64.305 24.8545 64.5762 24.4929 64.8775C23.7397 65.5253 24.1389 65.9922 24.1766 66.158C24.227 66.3343 24.2288 66.5211 24.1818 66.6984C24.1347 66.8757 24.0406 67.037 23.9093 67.1651C23.7781 67.2933 23.6146 67.3835 23.4362 67.4264C23.2579 67.4692 23.0712 67.4629 22.8961 67.4083C22.7717 67.3663 22.6396 67.3526 22.5093 67.3683C22.3789 67.3839 22.2538 67.4285 22.1429 67.4987C20.6364 68.4101 21.8491 69.7207 20.1017 69.2913C19.1601 69.0503 19.1149 69.7056 18.4747 70.5718C17.8345 71.438 18.8513 71.4079 18.309 72.6808C17.3675 74.8877 15.9891 73.5018 15.2434 73.6449C14.8736 73.7466 14.5479 73.9682 14.3175 74.2749C14.0872 74.5816 13.9651 74.9561 13.9705 75.3397C14.1211 76.6729 12.1251 75.9347 11.7108 78.6312C11.5903 79.3844 11.8088 79.7008 11.2438 79.9343C10.0312 80.4389 9.73741 80.1226 9.40599 80.3787C8.25357 81.2675 8.06527 82.917 8.65277 83.5121C9.06478 83.8427 9.39846 84.2592 9.63196 84.7323C9.81538 85.1389 10.1184 85.48 10.5005 85.7101C10.8827 85.9402 11.3259 86.0484 11.7711 86.0203C11.9782 85.9826 12.1899 85.9826 12.3963 86.0203C12.9342 86.0843 13.4778 86.0843 14.0157 86.0203C14.3697 86.0203 15.0777 85.606 15.4016 85.6512C19.8757 86.2086 16.5465 86.0127 19.9209 86.0429C20.357 86.1257 20.8037 86.1257 21.239 86.0429C22.2707 85.688 23.3785 85.6152 24.4477 85.832C24.99 86.0429 24.9976 85.9299 28.967 85.7114C30.4358 85.6286 29.2683 85.8997 33.6972 85.9901C35.4974 85.9901 37.0566 86.4119 37.9152 86.1182C38.5209 86.1867 39.1323 86.1867 39.738 86.1182C42.3818 85.7943 41.6738 85.7792 42.7509 85.8997C43.5041 85.9826 43.602 86.0956 43.6171 85.7566C43.7602 83.2334 43.9786 63.1601 43.8807 60.6896L43.8958 60.7047Z" fill="black"/>
<path id="Vector_13" d="M94.3318 90.6452C94.5502 91.3306 93.9175 93.8991 93.2999 95.1645C92.5467 96.7311 92.2529 97.9589 90.9649 99.4804C88.7806 102.049 88.9689 101.74 88.1856 102.275C82.4461 106.192 78.3026 107.736 69.7996 105.212C55.85 101.085 53.7787 80.3562 65.9732 72.7186C69.7088 70.4049 74.1271 69.4481 78.4852 70.0091C82.8433 70.5702 86.8752 72.6148 89.9029 75.7993C95.9889 82.1112 94.2716 90.4493 94.3318 90.6452ZM93.495 88.4759C93.507 86.8615 93.33 85.2512 92.9677 83.6779C92.8695 83.1625 92.7209 82.6579 92.5241 82.1715C89.8351 77.3735 90.7314 78.0363 86.8222 74.5715C85.1652 73.1027 82.0243 71.4909 79.855 71.4231C79.1997 71.4231 75.5993 70.5418 71.7805 71.5059C68.3383 72.3721 68.376 72.4926 65.2049 74.5188C58.426 78.8197 56.799 91.9783 62.885 99.2394C63.7814 100.301 65.0468 101.928 66.1691 102.501C67.0106 103.01 67.9111 103.415 68.8505 103.706C70.8842 104.158 71.6901 104.708 74.9742 105.084C76.9702 105.31 76.8421 105.898 81.1807 104.678C81.9331 104.499 82.6585 104.218 83.3341 103.842C89.1339 100.746 87.003 101.861 89.5112 99.4804C90.5068 98.5803 91.2583 97.4427 91.6956 96.1738C93.2547 92.1968 93.156 91.4285 93.495 88.4759Z" fill="black"/>
<path id="Vector_14" d="M79.275 81.0346C84.9091 87.1582 85.1577 87.0151 83.7943 88.3784C80.6459 91.4741 81.0602 90.3443 79.2223 88.74C78.7779 88.4462 79.3428 90.4799 79.2223 95.4511C79.1771 97.5451 79.1771 97.4923 74.5448 97.3718C72.835 97.3266 73.0384 97.3718 73.1815 91.5419C73.1815 90.0355 73.3548 88.8529 73.1815 88.5291C71.9764 89.8095 71.5922 90.8942 70.7562 90.3744C70.1605 90.0423 69.6194 89.6206 69.1518 89.1241C67.3215 86.9473 66.139 88.3709 71.7278 82.4205C76.2998 77.4342 76.0437 77.517 79.275 81.0346ZM82.4988 88.2052C83.6286 87.1883 83.6437 87.1356 83.4479 86.9172C80.9773 84.1001 82.6946 86.0058 78.8834 81.9685C75.9458 78.8804 76.4731 78.8201 74.0929 81.2831C72.127 83.3168 72.8953 82.4054 69.89 85.8024C68.3383 87.5348 68.2555 87.0226 70.8014 89.207C71.3211 89.6589 71.5546 88.5968 73.2342 86.9473C73.3029 86.8822 73.3883 86.8375 73.4809 86.8184C73.5735 86.7992 73.6697 86.8063 73.7585 86.8388C73.8474 86.8718 73.9252 86.9291 73.983 87.0043C74.0408 87.0794 74.0763 87.1693 74.0854 87.2637C74.2059 88.0169 73.9724 95.8277 74.0854 96.1742C74.1908 96.8069 74.8386 96.6487 77.6556 96.5357C78.8156 96.4906 78.0398 95.4812 78.1452 87.5951C78.1452 86.8419 78.6273 86.6159 78.8984 86.9021C81.5498 89.4103 80.6836 89.8472 82.4988 88.2052Z" fill="black"/>
<path id="Vector_15" d="M75.2301 52.2016C76.134 51.8777 77.2412 53.0678 76.7366 53.708C76.0436 54.5592 75.0268 54.7023 73.4375 55.0412C71.7277 54.9132 72.1721 53.8135 71.5318 54.0244C68.9182 54.8906 68.1198 56.1033 66.4778 54.1148C65.7245 53.1657 64.5345 53.9114 63.0431 54.5893C60.1959 55.8848 59.2318 54.1449 58.0041 54.4838C56.1888 54.9885 55.5787 55.7191 54.6297 55.1919C53.5149 54.5742 54.2003 53.595 53.5827 53.7607C50.7657 54.514 51.0142 55.6212 49.907 55.0713C49.3572 54.7927 49.6132 53.6628 50.261 53.2034C51.2582 52.4921 52.3836 51.9805 53.5752 51.6969C54.0046 51.6178 54.4482 51.6786 54.8406 51.8702C55.0393 51.9372 55.217 52.0553 55.3558 52.2126C55.4946 52.3699 55.5897 52.5609 55.6314 52.7665C55.7369 53.1431 55.7294 52.8945 57.4241 52.3598C58.9682 51.8702 59.6837 52.759 61.4613 52.8268C62.659 52.8268 66.1388 50.1227 67.7356 52.533C68.3382 53.4444 68.0972 53.1205 71.1854 51.8626C71.4833 51.7626 71.7995 51.729 72.1117 51.7641C72.424 51.7993 72.7248 51.9023 72.9931 52.066C73.1287 52.1338 73.219 52.307 73.332 52.4276C73.558 52.7439 73.558 52.8042 75.2301 52.2016Z" fill="black"/>
<path id="Vector_16" d="M67.5993 45.2492C68.4429 44.8801 69.5426 45.5655 69.3392 46.2359C68.9626 47.4561 68.4805 47.3356 67.0796 47.6218C66.7299 47.5915 66.3841 47.5259 66.0477 47.426C64.1044 46.6125 61.2723 49.2789 60.278 47.2753C60.037 46.7857 60.2404 46.959 57.2652 48.0888C56.1805 48.4955 55.2541 47.9005 54.6741 46.9514C54.5933 46.7778 54.4495 46.6415 54.2718 46.5701C54.0941 46.4987 53.8959 46.4977 53.7175 46.5673C52.9004 46.7448 52.1171 47.0526 51.3976 47.4787C50.5389 47.9758 50.795 48.5558 50.0343 48.4052C48.8367 48.1641 49.6275 46.2434 50.8478 45.686C51.6612 45.3094 54.4783 43.4264 56.06 45.5655C56.3387 45.9421 56.5044 46.2434 57.0693 45.9873C59.5097 44.9027 59.8638 44.6014 60.7676 44.8876C61.9803 45.2793 61.566 45.9271 62.274 45.6785C66.2209 44.2097 66.2661 45.8367 67.5993 45.2492Z" fill="black"/>
<path id="Vector_17" d="M63.8337 60.4342C64.4287 60.8033 63.9994 61.5188 63.9768 61.6243C63.8488 62.257 63.5098 62.2344 61.3029 62.6938C59.7965 63.0102 59.7136 62.0762 58.6968 62.272C56.8363 62.6336 55.7216 63.6504 54.78 62.272C54.426 61.7598 54.8554 61.0518 54.1097 61.2702C53.1958 61.4722 52.3258 61.837 51.5412 62.3473C50.4189 63.1909 48.3551 60.4116 54.4863 59.1838C54.7424 59.1311 54.9307 59.2215 55.4579 59.3721C56.648 59.7186 56.1208 60.7355 56.8062 60.517C60.5723 59.3495 59.5856 60.8409 61.4309 60.3513C62.9449 59.9521 63.2161 60.0576 63.8337 60.4342Z" fill="black"/>
</g>
</g>
</g>
</svg>
