<svg width="151" height="151" viewBox="0 0 151 151" fill="none" xmlns="http://www.w3.org/2000/svg">
<g id="Waiting--Streamline-Bruxelles">
<g id="Waiting--Streamline-Bruxelles.svg">
<path id="Vector" d="M143.743 113.359C144.328 116.452 144.371 119.622 143.872 122.729C143.239 125.742 138.049 142.938 137.68 142.848C137.311 142.757 130.856 142.207 129.312 142.569C127.768 142.93 117.019 142.569 117.019 142.569C117.019 142.569 111.423 142.893 111.355 142.825C111.287 142.757 111.596 132.664 111.596 132.664L121.042 120.341L143.743 113.359Z" fill="#A1C9B2"/>
<path id="Vector_2" d="M131.918 142.704C131.918 142.704 132.566 101.458 132.566 100.931C132.566 100.403 132.626 99.4242 129.297 99.8987C125.967 100.373 74.2741 99.2886 74.2741 99.2886L4.6016 100.629C4.6016 100.629 3.27594 108.244 4.05929 110.903C4.84263 113.562 3.81826 119.309 3.81826 122.458C3.81826 125.606 3.93877 132.859 4.11955 133.643C4.30032 134.426 3.36633 137.816 4.24006 138.539C5.11379 139.262 49.9603 138.878 49.9603 138.878H100.426L100.968 143.322C107.747 143.103 105.352 143.216 111.37 142.84L111.611 132.679L123.949 116.108L125.402 142.29C126.079 142.735 126.855 143.007 127.662 143.081C128.528 143.005 131.918 142.704 131.918 142.704Z" fill="#FFF5DB"/>
<path id="Vector_3" d="M145.25 103.07C145.378 103.386 145.513 103.326 142.425 105.262C139.563 107.055 137.808 107.604 134.185 108.493C132.972 108.787 132.867 108.892 132.874 108.576C132.927 100.562 133.251 100.035 131.971 99.6053C131.624 99.4924 115.008 99.6806 114.375 99.5601C114.466 99.3191 115.166 97.7976 115.422 97.8353C116.515 98.016 117.584 97.3683 118.819 97.2327C122.849 96.8184 122.051 96.2686 126.02 96.7808C129.304 97.2026 127.353 96.6 134.268 96.8486C134.622 96.8486 135.669 96.6452 136.528 96.5925C139.013 96.4117 142.553 94.5889 142.711 95.1538C144.316 100.155 143.465 97.4888 144.316 99.6731C144.774 100.76 145.088 101.902 145.25 103.07Z" fill="white"/>
<path id="Vector_4" d="M135.496 73.755C138.185 82.417 141.574 81.1893 136.076 82.8388C132.257 83.9837 130.871 83.6899 127.414 83.6523C125.523 83.6523 126.201 84.2624 127.03 80.4662C127.73 77.265 127.489 77.8149 129.131 74.2296C129.802 72.7759 129.884 72.5047 130.073 72.5649C132.566 73.4236 134.931 71.7289 135.104 72.2411C135.208 72.7522 135.339 73.2576 135.496 73.755Z" fill="white"/>
<path id="Vector_5" d="M89.0375 76.3987C89.6852 79.1178 91.2971 81.98 91.0862 82.5072C88.9546 87.2977 90.5665 86.2055 88.7061 84.5485C87.6742 83.6295 84.3374 80.1798 82.251 79.5697C81.4978 79.3588 81.5957 79.5019 81.6409 78.8165C81.7614 76.6924 81.9798 75.1559 81.9121 73.898C81.892 73.5554 81.9407 73.2122 82.0552 72.8887C83.9457 73.6419 83.0042 73.2352 84.6914 74.3198C88.6157 76.828 88.8793 75.668 89.0375 76.3987Z" fill="white"/>
<path id="Vector_6" d="M100.245 75.9393C105.804 74.2596 106.738 73.0544 106.331 73.77C103.318 79.0425 104.35 77.7018 103.507 78.9295C103.283 79.3546 103.194 79.838 103.254 80.3148C103.313 80.7915 103.517 81.2386 103.838 81.5959C104.275 81.965 104.659 82.3491 105.073 82.786C105.232 82.9366 105.254 82.7333 104.004 85.1059C103.454 86.1604 103.484 86.3336 103.055 86.3638C100.795 86.4994 98.9949 87.5614 94.4078 86.9212C93.3457 86.778 94.4078 86.3939 92.713 82.9442C90.943 79.3438 92.0653 81.5131 91.3271 79.6903C89.0298 73.9809 89.9111 79.0877 100.245 75.9393Z" fill="white"/>
<path id="Vector_7" d="M128.687 69.6271C129.907 70.3276 129.937 70.29 127.994 74.2895C125.448 79.5621 126.608 80.5864 125.448 79.6148C124.581 78.8788 123.602 78.2863 122.548 77.8598C120.763 76.858 120.62 75.4796 118.074 74.5306C112.334 72.3839 115.001 72.866 111.363 72.0901C109.148 71.6156 108.049 72.173 108.199 71.6683C108.953 69.2581 108.779 69.469 109.706 68.2111C111.551 65.6426 111.272 66.2527 111.822 65.153C112.221 64.3998 114.632 64.5806 114.632 64.4827C116.794 64.6484 114.858 64.3396 120.454 65.9891C122.021 66.4862 121.802 65.6276 128.687 69.6271Z" fill="white"/>
<path id="Vector_8" d="M130.834 53.3274C131.494 54.7682 131.97 56.2867 132.25 57.8467C131.647 57.7789 127.73 55.1728 122.834 54.7435C120.145 54.5175 120.168 54.8941 117.878 55.1502C115.069 55.4665 114.654 57.2366 116.116 54.397C116.417 53.8095 116.824 53.1391 116.184 52.9885C115.543 52.8378 113.005 58.4493 112.485 58.9087C110.994 60.2409 109.316 61.3497 107.506 62.2003C107.25 62.3359 107.265 62.1476 107.265 61.8839C107.356 61.0177 107.793 55.3234 107.83 55.0221C107.868 54.7209 107.891 55.0749 110.421 53.2747C121.268 45.5693 125.787 48.5445 127.519 48.9588C128.386 49.132 130.427 52.5516 130.834 53.3274Z" fill="white"/>
<path id="Vector_9" d="M95.3944 65.8011C95.4547 66.1626 95.289 65.9442 94.9877 66.0873C94.1893 66.4789 93.5641 66.4262 92.0954 66.6823C87.2823 66.381 86.1374 65.8538 83.8928 64.9198C83.3354 64.6863 83.3505 64.6185 83.5614 64.1666C85.2788 60.4005 87.4405 59.0296 87.7493 59.6473C88.0456 60.0213 88.416 60.3302 88.8372 60.5544C89.2585 60.7786 89.7215 60.9134 90.1973 60.9503C90.9649 61.1788 91.7765 61.2176 92.5623 61.0633C94.1366 60.7997 94.0688 60.8223 94.1516 61.0633C95.3718 65.078 94.8145 62.0274 95.3944 65.8011Z" fill="white"/>
<path id="Vector_10" d="M123.851 117.29C123.994 120.002 124.002 119.821 123.776 119.866C122.879 120.098 121.964 120.256 121.042 120.341C121.185 119.994 123.136 117.448 123.377 117.14C123.836 116.53 123.806 116.417 123.851 117.29Z" fill="#FF9C9F"/>
<path id="Vector_11" d="M145.469 104.471C145.89 108.29 145.981 108.237 145.559 109.743C145.333 110.549 144.346 112.048 144.143 112.756C144.083 112.967 143.857 113.133 143.744 113.336C143.126 114.421 140.731 115.355 140.091 115.656C138.644 116.364 137.56 116.206 136.445 116.899C134.072 118.405 133.432 118.3 132.958 118.405C132.732 118.466 132.762 118.466 132.792 116.62C132.943 108.154 132.415 109.555 133.545 109.246C137.123 108.29 136.935 108.606 139.202 107.74C143.344 106.203 145.371 103.755 145.469 104.471Z" fill="#FF9C9F"/>
<path id="Vector_12" d="M89.3313 86.552C89.61 86.8457 89.4292 86.9437 88.8116 88.5857C88.3672 89.7758 88.5028 90.3633 87.8776 91.6513C87.3504 92.7284 87.9755 92.766 84.2923 88.4049C82.9742 86.8382 81.9423 86.9964 81.9197 85.9795C81.7766 80.5338 81.415 80.112 81.7615 80.0969C82.816 80.4359 83.0118 80.2024 88.5405 85.3694C88.8191 85.6481 88.6534 85.8666 89.3313 86.552Z" fill="#FF9C9F"/>
<path id="Vector_13" d="M142.215 93.3984C142.32 94.2043 142.493 94.0989 141.657 94.3927C136.746 96.0874 133.703 96.1025 133.696 96.0874C131.898 95.9831 130.095 96.0184 128.303 96.1928C126.623 96.1928 124.401 95.7484 123.075 95.8916C117.66 96.4715 116.65 97.3001 115.664 97.2323C115.875 96.7502 115.302 97.6993 119.43 91.1162C119.739 90.619 120.718 91.8694 122.699 91.3647C122.895 91.312 123.045 91.1162 123.226 90.9881C123.748 90.4884 124.101 89.8379 124.235 89.1277C126.751 82.1906 124.115 84.6611 130.329 84.4502C132.566 84.4932 134.79 84.1071 136.882 83.3128C140.301 82.168 138.878 81.7311 140.49 86.1374C141.304 88.4947 141.881 90.9269 142.215 93.3984Z" fill="#FF9C9F"/>
<path id="Vector_14" d="M94.2047 87.5615C99.4772 88.4428 103.243 86.62 102.814 87.328C100.08 91.8473 100.969 92.8114 96.1028 94.2878C95.7036 94.4083 96.3213 94.4685 94.5437 90.1074C94.2691 89.3435 94.0871 88.5495 94.0014 87.7423C93.9712 87.554 94.0315 87.5163 94.2047 87.5615Z" fill="#FF9C9F"/>
<path id="Vector_15" d="M124.868 80.1946C125.433 80.7143 125.892 80.6691 125.794 81.1437C125.425 82.9665 124.785 83.7272 124.085 86.0697C122.797 90.3781 123.58 89.3236 121.569 87.9753C116.846 84.8118 117.562 83.0116 112.726 82.4693C110.18 82.1831 107.717 79.6372 105.676 79.238C104.659 79.0347 104.983 79.238 104.614 79.1853C104.727 78.5752 106.874 75.0953 107.845 72.9336C108.049 72.4666 108.011 72.5947 108.87 72.4817C114.383 73.1596 113.178 73.4609 114.797 74.1086C119.558 75.9917 118.564 75.3213 119.806 76.5265C121.674 78.3643 121.471 78.2739 122.292 78.6279C123.23 79.0059 124.101 79.5351 124.868 80.1946Z" fill="#FF9C9F"/>
<path id="Vector_16" d="M134.494 70.2301C134.584 70.4033 134.901 71.3524 134.713 71.4654C134.022 71.7059 133.318 71.9046 132.603 72.0604C132.036 72.134 131.461 72.134 130.894 72.0604C130.14 72.0604 130.178 71.9851 130.306 71.5708C131.737 66.9159 130.818 70.1171 131.428 66.3586C131.617 65.1911 131.428 65.6656 131.504 64.9877C131.504 64.7919 131.767 64.1893 131.203 64.0763C130.306 63.9031 130.449 70.0041 129.786 69.4468C128.416 68.3471 127.949 68.3621 125.606 67.0741C124.398 66.2971 123.054 65.7553 121.644 65.4773C115.054 63.8654 116.492 63.5867 112.945 63.9709C112.191 64.0537 111.89 65.0404 113.005 61.0107C113.268 60.0466 114.105 57.3953 115.016 56.981C116.326 56.3935 115.769 56.1902 117.788 55.8587C121.253 55.2637 122.119 55.1959 125.222 55.9265C126.918 56.3672 128.571 56.957 130.163 57.689C132.852 59.1051 132.423 58.3443 133.018 61.7188C133.869 66.4942 133.65 68.5429 134.494 70.2301Z" fill="#FF9C9F"/>
<path id="Vector_17" d="M123.783 46.3528C124.537 46.6165 126.879 47.9346 126.186 47.7613C121.848 46.6842 119.498 47.7613 115.046 49.5766C114.482 49.7719 113.968 50.0881 113.54 50.5031C113.027 50.955 112.711 50.7742 111.205 51.8739C108.094 54.1336 108.267 54.013 108.192 54.0281C107.988 54.0959 108.034 53.9678 108.041 53.9829C108.968 48.8158 109.397 48.8987 109.148 48.0852C109.066 47.8216 109.148 47.9195 110.851 47.4751C118.443 45.5318 119.573 44.869 123.783 46.3528Z" fill="#FF9C9F"/>
<path id="Vector_18" d="M119.678 88.126C120.19 88.4424 117.539 92.2536 115.483 95.5678C108.787 106.354 110.963 105.857 105.073 106.783C91.6358 108.9 86.6872 107.137 78.1457 107.326C77.4829 107.326 77.5808 103.16 77.5959 102.919C77.6109 102.678 77.5959 102.641 77.8294 102.535C79.848 101.616 79.509 101.096 80.0212 100.87C80.5334 100.644 81.2941 100.434 83.6065 99.7105C84.8644 99.3113 88.5627 98.0835 89.3536 97.7521C95.673 95.1309 100.328 94.9426 101.759 91.2594C102.106 90.3556 105.728 83.9607 107.069 81.1964C107.197 80.9328 107.069 81.0985 108.945 82.1455C111.325 83.4636 111.122 83.3054 114.473 84.021C116.665 84.4729 117.667 86.8606 119.678 88.126Z" fill="#FFCEB6"/>
<path id="Vector_19" d="M118.059 21.15C118.15 24.6072 118.812 26.189 118.27 28.0946C117.464 30.7535 117.246 31.1075 116.402 31.8607C114.715 33.4575 116.462 33.9772 114.233 35.2201C114.15 35.2728 114.12 35.2201 114.127 35.1523C114.367 32.1177 114.001 29.0657 113.05 26.1739C112.546 24.9236 112.674 24.2683 112.003 24.547C111.333 24.8257 113.585 30.3618 113.291 33.676C113.201 34.738 112.613 35.6494 112.651 36.6888C112.696 37.9693 111.672 39.1744 111.273 39.2422C110.602 39.3552 110.022 39.2422 109.495 39.4004C108.456 39.6264 108.041 40.4248 106.934 40.1536C106.181 39.9427 107.363 37.8337 107.22 36.1917C106.542 28.5164 106.467 27.1531 103.221 22.679C101.473 20.2838 99.7033 19.7189 97.5189 18.6116C92.1184 15.9001 94.1295 14.7024 89.0151 12.6989C88.3948 12.3738 87.7214 12.1621 87.0266 12.0737C86.2734 12.0737 87.1923 12.262 85.7688 12.0361C85.4675 11.9909 85.5127 10.9439 86.522 10.4166C88.4728 9.4224 88.4502 8.157 90.7701 8.157C92.0882 8.00635 93.2934 9.2115 95.8091 10.4166C97.1047 11.0493 97.5792 11.8176 98.4604 12.6763C99.0082 13.1354 99.6687 13.4397 100.374 13.5576C101.021 13.8061 101.39 14.2129 101.677 13.7835C101.963 13.3542 101.127 12.8797 100.554 12.6838C99.6656 12.3599 99.53 12.5784 98.7768 11.7498C96.9465 9.73875 96.5925 9.89693 95.7187 9.45253C94.845 9.00813 95.4777 9.25669 94.6416 8.7897C94.3705 8.63152 94.3479 8.59386 94.5663 8.36037C94.6635 8.24786 94.788 8.16226 94.9279 8.11181C97.0143 7.27574 98.1592 8.05155 99.9819 8.72191C102.565 9.67849 102.422 7.14769 107.205 8.91775C109.766 9.85927 110.896 10.5221 112.651 13.1885C114.24 15.6063 115.227 15.6289 116.673 17.6023C117.423 18.6515 117.899 19.8707 118.059 21.15Z" fill="#A59EB5"/>
<path id="Vector_20" d="M112.101 60.1743C112.101 60.3325 111.212 63.7144 110.948 64.43C110.466 65.7707 109.517 66.4938 108.192 68.535C107.702 69.2882 107.536 70.0415 106.851 72.5271C106.723 73.0091 106.527 72.5271 106.015 72.8811C104.162 74.1465 99.635 75.3441 99.394 75.442C97.5411 76.1952 91.8618 76.4664 91.1086 76.248C89.5419 75.796 90.4156 78.1536 88.849 69.7477C88.8256 69.6659 88.7762 69.5939 88.7082 69.5426C88.6403 69.4913 88.5575 69.4636 88.4723 69.4636C88.3872 69.4636 88.3044 69.4913 88.2365 69.5426C88.1685 69.5939 88.1191 69.6659 88.0957 69.7477C88.1994 71.6027 88.4513 73.4464 88.849 75.2612C89.0523 76.2781 83.7195 72.8585 83.5011 72.7681C81.5352 71.9245 81.8666 73.6418 83.245 65.7255C83.4333 64.6334 83.3655 65.9816 87.4254 66.8177C91.794 67.714 92.6979 67.2545 93.7599 67.1717C94.3209 67.1434 94.8687 66.9916 95.3643 66.7273C95.7785 66.6218 95.4547 67.3223 96.1175 68.9192C97.1042 71.2541 99.5973 73.4385 101.39 72.7832C105.646 71.1562 106.03 67.7893 106.956 63.27C107.032 62.901 107.212 62.9913 108.463 62.5168C109.735 61.8333 110.952 61.05 112.101 60.1743Z" fill="#FF9C9F"/>
<path id="Vector_21" d="M102.897 42.5939C103.65 43.9196 108.117 49.29 108.064 49.4858C107.199 52.6157 106.706 55.8365 106.595 59.0818C106.415 61.7407 105.217 68.3539 103.959 69.6268C102.453 71.1333 102.551 71.2538 100.878 71.8187C100.125 72.0823 97.6923 70.6437 96.8035 68.0526C96.4419 66.5972 96.1901 65.1168 96.0503 63.6237C95.9223 62.7801 95.1992 62.2604 94.7322 58.5018C94.5665 57.1159 94.8376 57.8541 95.6963 59.0667C97.4739 61.5825 97.7074 61.8913 98.0614 61.6503C98.5736 61.2963 97.745 60.4451 97.6245 60.2719C94.1673 55.15 91.8022 51.8811 89.5726 51.6024C83.7804 50.8491 83.2833 52.8376 78.4928 48.5895C78.3347 48.4464 79.0201 47.9342 78.8845 46.5257C78.9321 46.296 78.9234 46.0582 78.8591 45.8326C78.7948 45.607 78.6769 45.4003 78.5154 45.2301C78.1991 44.9741 78.8996 44.7933 79.3741 44.7933C80.278 44.718 80.4361 45.5013 80.986 44.6954C81.92 43.3396 82.6129 45.2301 84.7521 45.7951C85.0985 45.8854 85.317 45.9231 85.3998 45.6068C85.5806 44.9213 84.5638 45.0418 83.3661 44.0476C83.1158 43.7978 82.8168 43.602 82.4877 43.4725C82.1586 43.3429 81.8064 43.2823 81.453 43.2944C80.9333 43.2492 80.632 43.8894 80.3156 43.9873C79.9993 44.0853 80.0294 43.8819 79.1858 43.8744C78.8016 43.8744 79.344 43.4526 79.1331 42.8199C78.8619 42.029 78.1765 41.9461 77.3103 41.6373C77.0467 41.5394 77.3781 41.5921 77.3705 41.3059C77.363 41.0197 77.702 39.1969 77.7095 39.1818C77.7848 38.7902 77.9731 39.3701 78.9448 39.1818C79.5096 39.2852 80.0928 39.1809 80.5868 38.8881C81.34 38.3382 80.6546 37.7884 79.8336 38.0972C77.9053 38.7977 75.962 36.6811 77.4157 35.7321C78.2367 35.1973 80.4286 35.4082 80.5416 33.0431C80.5416 32.7644 80.6395 32.8322 81.0688 33.0431C81.4982 33.254 81.1442 34.3537 82.2213 35.604C82.5752 36.05 83.0363 36.3991 83.5615 36.619C84.0867 36.8388 84.6591 36.9221 85.2252 36.8612C85.7913 36.8003 86.3327 36.5972 86.7992 36.2707C87.2657 35.9442 87.6419 35.505 87.893 34.9939C88.3374 34.0901 89.8815 33.7737 90.9058 33.962C93.4366 34.4215 93.2785 34.3085 93.0525 34.7906C92.8265 35.2726 92.6684 35.6794 92.4499 36.1162C92.3143 36.3799 92.126 36.6134 91.9905 36.8695C91.4481 37.9164 92.3445 38.2026 93.4969 38.8127C96.0503 40.1911 95.7565 39.566 97.6019 36.2367C97.9861 35.5739 98.0463 36.3121 98.4531 35.6944C98.6855 35.2467 99.0265 34.8645 99.445 34.5829C99.8635 34.3013 100.346 34.1292 100.848 34.0825C105.857 33.6909 105.194 38.6847 101.602 42.0742C100.901 42.7295 99.4322 42.4433 98.5886 41.8859C98.3262 41.6633 98.0911 41.4105 97.8882 41.1327C97.5492 40.8163 96.8939 41.095 97.4588 42.0064C98.0237 42.9178 99.8164 43.4074 100.63 43.3772C102.648 43.317 102.438 41.7277 102.897 42.5939ZM103.274 37.472C103.665 37.5925 103.831 36.7188 103.522 36.184C103.27 35.8628 102.95 35.6006 102.586 35.4159C102.222 35.2311 101.821 35.1282 101.413 35.1145C100.419 34.881 98.5209 36.7414 99.854 38.2403C100.276 38.7148 100.826 38.9935 100.329 39.5735C99.6431 40.3267 100.502 40.756 100.946 40.2514C102.151 38.8655 100.668 37.7884 100.509 37.6076C99.7938 36.8544 100.878 35.7095 101.933 36.056C103.515 36.5757 102.566 37.2461 103.274 37.472ZM87.0569 47.5049C87.5088 47.181 88.2696 46.4805 87.8101 46.2771C87.5314 46.1566 87.6067 45.9834 86.6125 46.9249C86.1154 47.3618 86.5748 47.8589 87.0569 47.5049ZM85.5053 46.8119C85.9045 47.5651 87.9984 45.5842 87.0117 45.2226C86.6502 45.0946 86.6652 45.4109 86.1229 45.9758C85.9045 46.1641 85.2793 46.3901 85.5053 46.8119Z" fill="#FFCEB6"/>
<path id="Vector_22" d="M105.797 31.7102C106.136 34.6552 106.919 36.35 105.586 39.7169C104.772 41.7731 105.586 41.7882 105.104 42.1874C104.403 42.7598 104.607 43.5281 104.351 43.1967C102.234 40.4625 104.057 42.1723 105.307 37.5627C105.477 36.6394 105.345 35.6859 104.931 34.8435C104.592 33.6309 101.805 32.6969 99.7785 33.5104C99.3793 33.6685 99.5375 33.6987 97.9181 34.5423C97.7599 34.6251 98.0612 34.5423 96.5246 34.1205C93.8055 33.4501 94.7621 33.887 94.5512 33.1036C94.4617 32.6751 94.537 32.2287 94.7621 31.8533C95.2592 30.8364 94.6566 30.4071 93.5645 28.0269C92.9619 26.7239 95.0257 26.046 93.4666 24.871C92.6606 24.2684 94.4759 23.1913 93.685 22.8071C93.0674 22.5059 92.8339 22.6866 92.525 22.3025C91.4705 21.022 90.4838 22.2046 89.4594 21.3158C88.1564 20.186 87.953 20.0353 87.471 20.1634C84.4581 20.9166 84.6163 20.3969 83.0195 20.0504C82.8394 19.9906 82.6444 19.9939 82.4665 20.0596C82.2886 20.1253 82.1383 20.2495 82.0403 20.4119C81.7315 20.9015 81.1665 20.6228 80.3907 20.3291C79.0726 19.8169 79.6375 21.5267 78.1989 20.6831C75.9392 19.3348 75.4647 15.7721 75.5626 15.501C76.0457 16.2341 76.6404 16.8872 77.3251 17.4367C77.5479 17.8595 77.7465 18.2946 77.9202 18.7398C78.1085 19.1315 78.6734 19.0787 78.5905 18.6494C78.0113 17.293 77.7535 15.821 77.8373 14.3485C77.8868 13.8158 78.0137 13.2931 78.2139 12.7969C78.3356 13.4693 78.5645 14.1178 78.8918 14.7176C79.0726 15.034 78.8918 15.3202 79.2308 16.3897C79.3739 16.8492 79.984 16.6308 79.8936 16.2014C79.7384 15.7444 79.7227 15.2514 79.8484 14.7854C79.9313 14.6197 79.8484 13.6706 80.8653 13.6932C82.6052 13.6932 81.4528 14.3259 82.3717 16.45C82.9667 17.8736 83.5768 17.0978 83.2454 16.45C82.3566 14.6649 83.0571 11.5692 83.2454 11.1775C83.477 12.088 83.9477 12.9202 84.6087 13.5878C85.1745 14.2806 85.6786 15.0216 86.1152 15.8022C86.1699 15.8797 86.2504 15.9352 86.3423 15.9587C86.4343 15.9823 86.5315 15.9723 86.6168 15.9306C86.702 15.8889 86.7696 15.8182 86.8074 15.7312C86.8452 15.6442 86.8508 15.5465 86.8232 15.4558C86.5897 14.3561 84.7744 12.9852 85.844 12.9024C87.599 12.7592 89.3615 13.6932 91.0412 14.8231C91.237 14.9511 91.0412 14.9059 90.1599 15.4106C89.6285 15.9339 89.1881 16.5424 88.8569 17.2108C88.2166 18.4008 89.226 18.6795 89.3013 18.205C89.5582 17.3569 90.0616 16.6044 90.7475 16.0433C91.8471 15.5687 91.8773 15.3578 92.0806 15.5763C94.7395 18.4912 95.0031 18.3933 96.148 18.9431C96.6602 19.1842 94.5813 19.0938 93.6775 19.621C93.1126 19.9449 92.6832 20.1182 92.9242 20.4948C93.1653 20.8714 93.3536 20.5927 94.1219 20.2387C94.5437 20.0428 94.6115 20.0805 95.6283 19.9901C97.436 19.8244 97.6469 19.7265 98.1742 19.9901C100.268 21.0672 100.848 21.0823 103.055 24.0198C103.469 24.5697 101.646 23.2666 99.2889 24.645C98.5357 25.0969 98.2118 24.7881 96.7732 24.4266C96.3288 24.3136 96.02 24.6601 96.2836 24.9689C96.5472 25.2777 97.0368 25.2702 97.9331 25.6242C99.2136 26.1439 99.6881 25.1045 100.946 24.9764C102.799 24.7806 102.588 25.2174 103.447 25.2777C103.966 25.3154 103.921 25.8275 104.75 27.1005C105.676 28.622 105.578 29.7593 105.797 31.7102ZM103.025 30.4674C104.576 30.5728 103.951 29.4204 102.912 29.571C101.662 29.7518 101.797 29.4882 100.411 29.2095C99.7055 29.1512 98.996 29.2596 98.3399 29.5258C97.8955 29.7593 98.2495 30.2188 98.5583 30.1887C99.4981 29.9212 100.502 29.9878 101.398 30.377C102.038 30.6783 102.302 30.5126 103.025 30.4674Z" fill="#E3B27D"/>
<path id="Vector_23" d="M100.765 121.735C101.955 121.675 102.799 118.684 102.189 118.15C100.991 117.095 100.622 117.871 100.682 117.02C100.682 116.402 100.622 116.387 101.255 116.365C105.217 116.221 103.447 123.739 99.8161 122.699C99.3491 122.564 99.2964 122.262 99.6579 121.946C100.019 121.63 99.8764 121.78 100.765 121.735Z" fill="white"/>
<path id="Vector_24" d="M99.1082 117.148C99.9895 116.492 100.087 116.153 99.4698 118.88C98.8521 121.607 98.6789 123.264 95.9673 123.972C92.608 124.845 86.8308 124.725 85.2114 121.712C84.5538 120.149 84.2256 118.467 84.2473 116.771C86.5446 118.903 95.9297 119.52 99.1082 117.148Z" fill="white"/>
<path id="Vector_25" d="M99.5147 115.498C99.5147 115.739 99.3113 115.875 98.5054 116.485C98.3848 116.575 98.2643 116.274 98.2191 116.138C97.5337 114.059 89.994 114.172 87.2598 114.632C85.2488 114.986 85.2036 116.372 85.0002 115.958C84.5859 115.257 84.5257 115.204 84.7215 114.896C85.1734 114.248 87.0263 113.442 87.0489 113.623C90.1899 113.171 99.4243 112.289 99.5147 115.498Z" fill="white"/>
<path id="Vector_26" d="M99.4241 125.651C99.2282 126.352 99.183 127.158 98.4675 127.572C95.3341 129.515 86.9885 128.92 85.5649 126.97C85.4026 126.788 85.2783 126.576 85.1993 126.345C85.1203 126.115 85.0883 125.871 85.1052 125.628C85.1221 125.385 85.1874 125.148 85.2974 124.931C85.4074 124.714 85.5598 124.521 85.7457 124.363C86.4462 123.798 86.6571 124.228 86.9734 124.363C87.7944 124.687 84.9774 126.789 93.1347 126.985C95.2588 127.037 95.7032 126.789 96.6221 126.141C97.1946 125.742 97.7896 125.29 97.4808 124.635C97.3603 124.386 97.541 124.386 98.0231 124.055C98.2943 123.866 99.2734 124.62 99.4241 125.651Z" fill="white"/>
<path id="Vector_27" d="M96.7885 35.0019C96.9703 35.0339 97.1427 35.1059 97.2932 35.2128C94.687 39.1145 96.088 39.0919 93.1957 37.6457C92.5856 37.3369 92.7136 37.6457 94.1071 34.7534C94.2502 34.4672 94.1523 34.4747 96.7885 35.0019Z" fill="#E3B27D"/>
<path id="Vector_28" d="M96.6528 124.906C96.7884 125.169 95.4025 126.088 94.1145 126.088C92.9847 126.088 87.9457 126.088 87.8779 124.974C87.8779 124.454 88.4127 124.913 89.0981 125.034C93.527 125.787 96.4947 124.597 96.6528 124.906Z" fill="white"/>
<path id="Vector_29" d="M91.4028 57.6736C92.2389 57.2216 94.2349 55.3537 93.9863 57.0785C93.4515 60.7768 95.4928 60.0085 91.5308 60.5283C88.9548 60.1366 89.0829 60.1291 87.9229 59.0972C90.1148 57.7564 89.1808 58.8712 91.4028 57.6736Z" fill="#FF9C9F"/>
<path id="Vector_30" d="M92.7661 28.4484C94.0692 31.4085 94.2726 30.6628 93.7302 32.0939C93.1879 33.5251 94.9203 33.7887 91.7643 33.1936C90.7517 32.957 89.7254 32.7834 88.6912 32.6739C88.2016 32.6739 88.7816 31.7475 87.6668 30.3088C86.5521 28.8702 83.9008 27.9889 82.0102 30.6252C81.3323 31.5592 81.5809 32.3802 81.1214 32.1316C80.9312 31.996 80.7034 31.9231 80.4699 31.9231C80.2363 31.9231 80.0085 31.996 79.8183 32.1316C79.5396 32.3048 79.6903 32.0036 79.0651 31.1675C78.2366 30.0904 77.4156 30.4821 77.4156 29.9699C77.4156 27.1905 77.2574 28.1998 78.8693 27.7102C79.276 27.5972 79.2986 26.4674 78.5153 26.3394C77.973 26.2565 78.0181 26.6633 77.875 26.716C77.6039 26.8214 77.5813 26.716 77.6039 26.5427C77.8074 24.9504 78.1993 23.3878 78.7714 21.8879C78.8843 21.5715 79.2835 21.8879 79.9087 21.2401C80.2326 20.8786 80.4284 21.5866 81.6487 21.5564C82.8689 21.5263 82.4019 20.7204 83.2756 21.0217C86.1002 22.0536 87.3354 20.4266 88.164 21.338C90.0244 23.3642 91.2522 22.2268 91.7191 22.7842C92.4724 23.6429 92.8866 23.2662 92.6983 23.7408C91.9451 25.5711 93.5193 25.4204 93.0975 26.0004C92.8466 26.3504 92.6851 26.7564 92.6274 27.1832C92.5696 27.6099 92.6172 28.0443 92.7661 28.4484ZM88.0359 28.4032C88.0359 28.2149 88.2694 28.1546 88.2242 27.9889C88.164 27.2809 87.471 27.1453 87.2752 26.9947C86.8007 26.603 86.183 26.9947 85.6934 26.6633C85.3771 26.4599 84.3376 26.8817 84.1267 26.4448C84.0959 26.3807 84.0494 26.3254 83.9915 26.2841C83.9336 26.2428 83.8662 26.2167 83.7955 26.2085C83.7249 26.2002 83.6533 26.2099 83.5874 26.2368C83.5215 26.2636 83.4635 26.3067 83.4187 26.362C83.2907 26.5051 83.253 26.4599 83.1325 26.362C82.5977 25.9402 82.5224 26.5955 82.2136 26.6557C82.139 26.6784 82.0706 26.7175 82.0132 26.7701C81.9558 26.8228 81.911 26.8877 81.8821 26.96C81.8531 27.0323 81.8408 27.1102 81.8461 27.1879C81.8513 27.2656 81.8739 27.3411 81.9123 27.4089C82.0744 27.6524 82.3014 27.8457 82.5676 27.9668C82.8338 28.0879 83.1287 28.1321 83.4187 28.0944C84.1192 27.8985 83.6296 28.7798 86.4316 27.8759C87.4032 27.5596 87.5313 28.2977 87.6668 28.3505C87.7882 28.378 87.9117 28.3956 88.0359 28.4032Z" fill="#FFCEB6"/>
<path id="Vector_31" d="M86.7026 30.5051C87.1322 30.8971 87.4465 31.3989 87.6118 31.9564C87.7771 32.5139 87.7871 33.106 87.6406 33.6688C87.4941 34.2315 87.1967 34.7436 86.7805 35.1497C86.3644 35.5559 85.8452 35.8407 85.2791 35.9735C83.7124 36.2446 82.0553 35.0319 82.108 32.5237C81.995 30.4072 85.0004 28.7577 86.7026 30.5051ZM86.5972 33.518C87.2224 33.2845 86.5068 32.2224 84.6162 32.23C83.9157 32.2902 82.5825 32.5162 82.7934 33.179C82.8914 33.5029 83.3885 33.3221 83.6446 33.2845C83.9007 33.2468 83.7877 33.4728 84.0362 34.1959C84.217 34.7005 85.1661 34.9491 85.2188 34.0452C85.2487 33.7827 85.1904 33.5177 85.0531 33.292C84.7669 32.8326 86.1453 33.6611 86.6198 33.4954L86.5972 33.518Z" fill="white"/>
<path id="Vector_32" d="M85.1133 91.0789C87.3729 93.8959 87.3729 92.8339 85.7837 95.1839C85.7837 95.1839 69.0321 93.1427 69.0171 93.1352C67.6537 92.7058 67.5106 88.2468 67.3675 87.0115C66.8101 81.965 69.356 79.0199 74.1465 64.5581C74.1465 64.5581 75.6529 59.5719 75.6529 59.5493C77.5887 53.5838 76.8882 56.5364 76.9635 54.2316C76.9635 53.8474 76.7978 53.7796 75.4194 52.7251C74.3046 51.8514 74.5833 51.1735 73.1598 50.5333C71.4951 49.78 70.8248 47.43 72.3162 46.6015C72.9058 46.3611 73.4667 46.0554 73.9883 45.6901C76.4664 43.8296 75.4345 44.1836 77.1819 45.1628C77.6088 45.4141 77.96 45.7758 78.1988 46.2098C78.1385 47.7162 78.1988 47.4149 77.7845 48.0853C77.7242 48.1832 77.31 47.9799 76.2781 47.6786C75.9015 47.5656 77.0313 46.3755 76.2027 46.1043C75.5399 45.8859 75.7056 47.7313 75.2311 47.1137C75.1614 47.0294 75.069 46.967 74.9649 46.9336C74.8608 46.9002 74.7493 46.8974 74.6436 46.9254C74.5642 47.0031 74.5071 47.1007 74.4779 47.2079C74.4488 47.3152 74.4488 47.4282 74.4779 47.5355C74.847 48.7632 74.1615 49.5465 74.7114 49.6671C75.4646 49.8403 75.2085 48.1606 75.7056 48.3715C77.7468 49.1925 77.3928 48.9063 78.6658 49.878C80.2475 51.0982 81.4075 51.6782 81.3548 53.0867C81.3548 54.0658 81.1363 54.3897 81.6033 54.5328C82.0703 54.6759 82.2511 53.9604 82.2963 53.4105C82.4017 52.1376 81.8971 51.8363 82.4017 52.002C84.5032 52.6799 84.9175 52.0472 84.9627 52.6046C85.1133 54.4952 83.75 55.6702 83.2378 59.3835C83.0107 61.7307 82.6308 64.0606 82.1004 66.3583C80.3304 75.894 81.4753 71.1488 80.9104 76.1501C80.4961 79.8484 80.5413 78.3646 80.7597 84.1644C81.0836 92.7134 81.174 89.9491 81.2192 91.1166C81.2192 91.2164 81.2589 91.3122 81.3295 91.3829C81.4001 91.4535 81.4959 91.4932 81.5958 91.4932C81.6957 91.4932 81.7915 91.4535 81.8621 91.3829C81.9327 91.3122 81.9724 91.2164 81.9724 91.1166C82.0176 90.4085 81.9046 88.2468 81.9724 87.8551C82.7934 88.0058 85.0681 91.0638 85.1133 91.0789Z" fill="#FFCEB6"/>
<path id="Vector_33" d="M82.1007 98.5357C85.1136 96.0124 84.9328 95.9446 84.8424 97.549C84.8424 98.3022 84.8876 98.3022 84.6993 98.4152C83.4849 98.9158 82.2425 99.3459 80.9784 99.7032C80.8504 99.7032 80.7299 99.7032 80.8579 99.5902C81.2797 99.2211 82.1007 98.5507 82.1007 98.5357Z" fill="white"/>
<path id="Vector_34" d="M54.8413 119.286C54.6379 119.445 21.6169 112.417 21.6019 112.41C22.0689 111.792 55.7376 94.1516 58.291 92.6979C58.5773 92.5322 83.9682 95.8388 84.1565 95.9368C83.8401 96.2832 62.7727 112.824 54.8413 119.286Z" fill="white"/>
<path id="Vector_35" d="M76.3909 35.7703C76.052 36.2223 75.826 36.4558 75.5172 35.8984C75.2084 35.341 74.3874 33.6764 75.0201 32.3959C75.6528 31.1155 77.0839 30.302 78.2514 31.3264C78.6122 31.6176 78.9064 31.9827 79.1143 32.3971C79.3222 32.8116 79.4389 33.2658 79.4565 33.7291C79.5168 34.1208 79.5996 34.2338 79.0121 34.3543C78.0283 34.5857 77.1237 35.0744 76.3909 35.7703Z" fill="white"/>
<path id="Vector_36" d="M78.5981 99.7402C78.9521 100.539 78.1913 101.495 75.7886 101.646C73.2502 101.796 72.8812 100.072 74.2822 99.2732C75.894 98.3618 78.0482 98.4899 78.5981 99.7402Z" fill="#FFF59E"/>
<path id="Vector_37" d="M78.1533 43.0687C78.5375 43.5884 77.724 43.9726 77.0386 43.8897C76.3531 43.8068 76.1196 43.2118 75.2308 43.5357C74.6207 43.7617 74.4174 44.1006 73.0088 45.1024C72.5343 45.4413 71.7585 45.5618 71.2765 46.1042C71.0957 46.3 71.0957 45.9836 71.0279 45.5844C71.0279 43.9274 72.8657 43.7466 75.0275 42.4285C75.2586 42.3025 75.5175 42.2366 75.7807 42.2366C76.0438 42.2366 76.3028 42.3025 76.5339 42.4285C77.6939 42.79 78.0177 42.8804 78.1533 43.0687Z" fill="#FFCEB6"/>
<path id="Vector_38" d="M76.7603 38.414C77.2273 38.64 77.0691 39.0241 77.0088 39.3781C76.8732 40.1314 75.4572 38.4668 73.303 39.8828C73.0846 40.0259 71.9924 40.4929 71.3597 40.8093C70.727 41.1256 70.373 39.4459 73.7173 38.3387C75.1107 37.8793 75.8865 38.3839 76.4138 38.2333C76.5569 38.2031 76.7151 38.414 76.7603 38.414Z" fill="#FFCEB6"/>
<path id="Vector_39" d="M76.5191 40.508C76.8882 40.5682 76.6321 41.2612 76.5191 41.344C76.4061 41.4269 75.3667 40.9599 74.5306 41.5926C73.8837 41.9856 73.2062 42.3257 72.5045 42.6094C71.0432 43.4079 71.1637 43.6263 70.998 43.2497C70.5988 42.1349 71.5328 41.5775 72.6551 41.2085C73.333 40.99 74.2067 40.2368 74.7114 40.2745C75.3224 40.2585 75.9322 40.3373 76.5191 40.508Z" fill="#FFCEB6"/>
<path id="Vector_40" d="M73.9132 104.365C73.9132 105.171 73.9659 106.316 73.9735 106.467C73.981 106.618 73.9735 106.67 73.2654 106.738C72.6188 106.828 71.9674 106.881 71.3146 106.896C68.8215 107.243 67.5485 105.947 65.9743 105.872C64.4001 105.797 64.1063 105.156 63.4435 105.744C63.3066 105.936 63.1198 106.086 62.9033 106.179C62.6869 106.272 62.449 106.304 62.2158 106.271C61.7488 106.271 61.5153 106.58 61.5379 106.806C61.5379 107.258 62.3815 107.19 62.7882 107.19C63.1949 107.19 62.5547 107.634 63.0443 107.898C63.4058 108.094 63.4962 107.506 64.0611 106.67C64.1666 106.512 64.4679 106.603 64.6261 106.813C64.7842 107.024 64.7616 107.333 64.6261 107.823C64.5658 108.109 64.4905 108.538 63.6695 108.907C63.2399 109.118 62.757 109.194 62.2835 109.126C61.8166 109.035 61.4098 109.073 61.1161 109.02C60.4231 108.892 60.1745 108.644 59.9561 107.928C59.1577 105.232 59.3385 105.669 60.0164 105.164C60.3739 104.869 60.6751 104.512 60.9052 104.109C60.9579 104.027 62.3589 102.603 62.3739 102.603C62.6752 102.309 62.3739 101.895 61.9672 102.068C61.2217 102.501 60.5566 103.059 60.0013 103.718C59.2481 104.772 58.3141 104.78 58.4949 106.098C58.5777 106.851 58.6756 106.64 58.7736 107.363C58.8263 107.747 58.3894 107.552 58.2538 107.567C56.9206 107.702 57.2897 105.021 57.5006 103.703C57.5985 103.123 59.7151 101.737 60.1971 100.818C60.2447 100.757 60.2712 100.682 60.273 100.604C60.2747 100.527 60.2515 100.451 60.2068 100.388C60.1621 100.324 60.0982 100.277 60.0246 100.253C59.951 100.229 59.8715 100.229 59.7979 100.253C59.4966 100.449 59.4966 100.494 57.0864 102.641C56.1072 103.507 56.8604 104.509 55.9339 105.036C54.8641 106.163 53.6774 107.173 52.3938 108.049C51.7461 108.486 50.8045 108.358 50.7217 107.875C50.6087 107.22 51.5201 106.7 52.6424 105.895C54.5706 104.509 54.5631 103.447 55.6552 102.927C56.7474 102.407 56.544 101.692 58.8639 99.8085C59.1339 99.6526 59.3864 99.4683 59.6172 99.2587C60.0088 98.867 59.3912 97.2777 55.7607 101.579C55.3615 102.053 55.2259 101.88 53.953 103.085C53.1998 103.801 53.0642 103.575 53.5161 102.693C55.5875 98.6184 55.0225 100.584 57.0487 98.3172C57.5759 97.7296 58.2915 96.999 59.1276 97.1271C60.2875 97.3154 61.1537 96.8258 62.8937 97.6694C65.9065 99.1231 64.2796 97.9631 68.5729 99.7859C69.7458 100.237 70.9458 100.614 72.1657 100.916C72.6177 101.036 72.3239 101.812 73.8002 102.498C74.3425 102.746 73.8906 102.904 73.9132 104.365Z" fill="#FFCEB6"/>
<path id="Vector_41" d="M73.273 107.83C72.9792 108.132 75.1334 106.324 55.949 121.818C55.4745 122.194 55.3841 122.179 55.369 121.893C55.2259 119.987 55.2862 120.191 55.1656 120.153C55.5272 119.648 66.4639 111.114 69.9814 108.245C70.3053 107.966 70.3204 108.109 73.273 107.83Z" fill="white"/>
<path id="Vector_42" d="M49.712 67.5103C58.856 93.8729 58.389 91.6585 57.9371 91.907C57.9371 91.907 22.6037 110.737 22.2648 110.828C21.4137 111.024 22.9502 113.939 10.492 80.8272C9.11364 77.1741 7.93109 74.8994 9.66349 74.2215C14.936 72.1728 30.2941 65.4541 45.6371 59.3003C47.2414 59.5489 47.1511 60.1439 49.712 67.5103Z" fill="#D8E9FF"/>
<path id="Vector_43" d="M54.5255 121.96C54.5858 122.713 53.5087 122.254 43.2273 119.979C20.1638 114.865 21.2183 115.158 21.1806 114.262C21.1354 113.193 21.045 113.117 21.3991 113.193C58.3292 121.312 54.3297 119.309 54.5255 121.96Z" fill="white"/>
<path id="Vector_44" d="M47.6635 76.3308C49.3281 80.5638 49.5616 79.2306 39.0919 84.3977C38.4969 84.699 21.0147 93.4363 20.2615 93.4363C19.32 93.3685 19.2974 93.5267 17.6328 89.0074C17.3315 88.2014 17.211 87.8022 18.7927 86.8607C21.1126 85.4748 27.0781 82.9139 41.6152 76.1274C45.9838 74.0786 46.5186 73.4384 47.6635 76.3308ZM37.6005 83.2453C38.3989 82.6879 37.7738 81.5581 37.1637 80.8124C36.5536 80.0667 35.8229 80.7446 27.869 84.36C18.981 88.4274 19.4555 88.0433 19.335 89.0149C20.2991 92.0956 18.9584 91.8771 31.1379 86.2807C36.3728 83.8855 36.8624 83.765 37.6005 83.2453Z" fill="white"/>
<path id="Vector_45" d="M7.91622 76.0747C7.91622 76.0747 21.2632 111.476 21.09 111.792C20.7146 112.13 20.4761 112.594 20.4196 113.095C20.4104 113.129 20.3978 113.162 20.382 113.193C20.1033 112.915 17.1356 104.486 10.5073 86.9135C7.07262 77.8146 6.50771 77.5284 7.91622 76.0747Z" fill="white"/>
<path id="Vector_46" d="M146.809 107.032C147.03 109.48 146.275 111.917 144.708 113.811C143.841 114.956 146.621 116.462 143.066 127.602L141.295 132.664C140.881 133.643 140.911 134.328 139.917 137.492C139.465 138.672 139.08 139.876 138.765 141.1C138.32 142.689 138.29 143.043 137.861 143.277C137.431 143.51 136.949 143.216 137.273 142.41C137.831 141.062 137.883 139.977 138.426 138.516C139.037 136.822 139.54 135.092 139.932 133.334C141.476 127.73 144.595 123.06 143.698 115.114C143.653 114.692 143.292 115.536 141.883 116.093C140.053 116.846 140.859 116.726 138.607 117.336C137.511 117.579 136.467 118.009 135.518 118.609C135.193 118.838 134.835 119.016 134.456 119.136C133.95 119.339 133.412 119.454 132.867 119.475C132.528 119.475 132.709 140.045 132.377 142.825C132.332 143.156 131.782 143.322 131.624 142.915C131.406 142.275 132.076 105.797 132.084 105.616C132.091 105.435 132.023 105.45 131.925 105.563C130.009 107.897 128.236 110.344 126.615 112.892C126.789 113.381 126.698 112.139 127.775 142.546C127.775 143.103 127.775 143.367 127.421 143.39C126.924 143.39 126.977 143.081 126.947 142.215L126.028 113.592C125.794 113.781 124.521 115.566 124.521 115.581C124.416 115.724 124.356 114.466 125.395 132.671C125.952 142.463 126.148 143.277 125.357 142.953C124.966 142.795 124.009 121.109 124.009 121.064C124.009 120.597 123.09 121.283 121.177 121.358C119.754 121.411 121.034 120.364 113.344 130.57C111.611 132.829 111.98 130.954 111.837 139.337C111.874 140.569 111.836 141.801 111.724 143.028C111.581 143.585 110.971 143.39 110.971 142.938C110.971 142.486 111.272 133.748 111.235 133.47C111.184 133.491 111.138 133.522 111.099 133.56C105.073 141.461 107.197 138.238 106.73 143.299C106.73 143.631 106.135 143.593 106.068 143.352C105.97 142.99 105.992 143.051 105.977 139.789C105.977 139.209 106.075 139.39 103.469 139.398C100.599 139.398 100.705 139.247 100.772 139.729C101.322 143.698 101.3 143.45 101.194 143.608C101.163 143.678 101.109 143.737 101.042 143.775C100.975 143.813 100.898 143.828 100.821 143.819C100.745 143.81 100.673 143.776 100.617 143.723C100.561 143.67 100.523 143.601 100.509 143.525C100.509 143.525 100.23 140.964 100.057 139.88C100.012 139.563 100.057 139.443 99.2284 139.428C90.2802 139.315 8.84242 139.661 4.22521 139.119C4.04444 139.119 3.98418 138.953 3.96158 138.802C3.93899 138.652 3.96158 138.471 4.15742 138.464C4.35325 138.456 105.149 138.772 105.721 138.659C106.045 138.599 105.962 138.72 105.955 136.58C105.955 134.705 106.045 134.6 105.699 134.6C101.3 134.6 4.52649 134.411 4.09716 134.389C3.8486 134.389 3.80341 134.306 3.78081 134.155C3.75821 134.004 3.60004 133.771 4.01431 133.711C6.67316 133.334 96.9913 133.937 105.397 133.801C105.626 133.811 105.854 133.76 106.056 133.653C106.259 133.545 106.429 133.386 106.55 133.191C112.033 125.84 131.233 100.803 131.346 100.547C131.534 100.178 131.82 100.381 124.393 100.411C113.231 100.456 113.954 100.351 113.811 100.599C112.899 102.271 112.703 102.384 112.304 103.025C111.649 104.155 111.679 104.531 110.941 105.352C108.907 107.657 106.745 107.371 102.196 108.132C90.7923 110.037 80.3 107.198 77.8295 108.011C76.8729 108.327 75.4192 108.47 74.9522 108.086C74.6208 107.815 74.6208 108.086 67.5782 113.781C57.9521 121.614 60.3699 119.279 58.0651 121.313C56.5587 122.631 55.2481 123.535 53.3048 123.09C19.9599 115.513 21.3985 116.417 19.975 114.368C19.4402 113.615 14.9435 101.255 14.9359 101.24C14.8079 100.871 14.9359 101.014 11.5841 101.029H4.59428C4.28546 101.029 4.33066 100.855 4.30053 100.72C4.29344 100.65 4.3126 100.579 4.35432 100.522C4.39603 100.465 4.45736 100.426 4.52649 100.411C4.88051 100.306 7.81805 100.343 14.3183 100.268C14.6648 100.268 14.6045 100.404 13.0303 96.2006C5.60359 76.0746 5.52827 77.5811 7.9235 74.5682C8.88762 73.3631 8.33777 74.1012 34.7983 62.7502C48.1001 57.0484 46.6539 56.4458 49.4408 64.3772C49.4408 64.3772 58.7957 90.9733 58.8861 91.6737C58.8861 91.9901 58.9313 91.9374 66.7271 92.8337C68.1431 92.9994 66.6367 93.022 66.6442 89.7681C66.6442 86.6347 65.4768 86.4916 67.3975 80.3378C67.7515 79.2155 76.7825 55.3537 75.9239 54.5251C75.722 54.2928 75.5002 54.0785 75.261 53.8849C73.3328 52.5969 73.958 51.9792 72.5419 51.3691C70.4706 50.4803 70.3501 47.9345 70.6287 47.1135C70.7041 46.895 69.7324 46.1945 70.3727 44.5224C70.463 44.2964 70.5082 44.1081 70.2446 43.5734C69.627 42.3305 70.6965 41.8485 70.3727 41.3137C69.3031 39.6114 71.4724 38.1427 73.3855 37.4648C75.2987 36.7869 76.0142 37.4648 76.0444 37.2313C76.0971 36.7869 75.2912 36.9978 74.6283 35.7248C73.4307 33.3899 74.6283 30.7762 76.3381 30.2942C76.6244 30.2113 76.5641 30.1661 76.5942 28.5316C76.5942 28.0948 76.3231 28.863 75.9239 28.8103C75.6828 28.8103 75.615 28.7275 75.6 28.4864C75.5397 27.3415 76.5716 27.9065 76.7524 26.4979C76.9136 24.8343 77.3755 23.2137 78.1157 21.715C78.3266 21.3083 77.3022 21.6623 76.082 19.7115C73.8902 16.2015 74.6886 11.7801 76.082 14.7327C76.3142 15.2392 76.6474 15.6928 77.0612 16.0659C77.2194 15.3503 76.6997 13.8063 78.0404 11.3432C78.0842 11.2701 78.1499 11.2127 78.2282 11.1789C78.3065 11.1452 78.3934 11.1369 78.4766 11.1552C78.5598 11.1735 78.6352 11.2175 78.6921 11.281C78.749 11.3445 78.7845 11.4242 78.7936 11.5089C79.3811 15.2148 78.9744 13.0154 80.4432 12.8873C83.087 12.6614 81.2792 14.2808 82.5597 10.4168C83.2376 8.3605 84.3448 11.8178 84.4955 12.0287C85.3089 13.1811 84.2394 11.2754 85.3617 10.123C85.904 9.57318 86.4388 9.54305 87.4029 8.61659C88.0864 7.88732 88.9925 7.40524 89.9792 7.24578C90.9659 7.08633 91.9777 7.25849 92.8562 7.73533C93.3608 8.01402 93.4135 8.17219 93.6094 7.99142C94.6563 6.94445 96.1101 6.78628 97.5864 6.89926C98.43 6.96705 99.0928 7.44157 100.78 7.94623C101.42 8.14207 102.286 7.56962 103.228 7.38132C104.697 7.0725 105.653 7.38132 107.86 8.13453C112.568 9.72382 112.613 12.3902 115.023 14.5519C119.422 18.4913 118.789 19.9148 119.324 25.1723C119.533 27.3925 119.074 29.6244 118.006 31.5822C117.62 32.0805 117.2 32.5511 116.748 32.9907C116.093 33.6535 116.748 34.5574 115.551 35.5064C114.353 36.4555 113.494 36.3349 113.532 37.0128C113.519 37.5876 113.377 38.1521 113.116 38.6645C112.855 39.1769 112.482 39.6241 112.026 39.973C111.724 40.1989 111.355 40.2969 109.766 40.3496C108.975 40.3496 108.907 41.1555 107.318 41.1405C106.248 41.1405 106.022 40.3873 106.022 40.907C106.065 41.2896 106.085 41.6744 106.083 42.0594C106.022 43.031 105.051 42.9858 105.254 44.2663C105.254 44.2663 106.542 46.0439 106.655 46.1945C107.755 47.701 107.732 47.701 107.943 47.5503C109.118 46.5109 113.675 46.0062 115.129 45.4564C116.929 44.7785 117.245 45.125 118.85 44.7032C121.734 43.95 128.483 45.8405 132.136 53.6062C133.455 56.4157 135.029 68.1131 135.368 69.6196C136.032 72.881 137.228 76.011 138.908 78.8841C142.388 85.1057 142.207 91.493 145.047 98.7163C146.711 102.874 146.432 104.305 146.809 107.032ZM145.559 109.751C145.98 108.245 145.89 108.29 145.468 104.478C145.385 103.763 143.344 106.196 139.217 107.785C136.957 108.659 137.138 108.342 133.56 109.291C132.415 109.6 132.942 108.199 132.807 116.665C132.807 118.511 132.746 118.511 132.972 118.451C133.424 118.323 134.087 118.405 136.46 116.944C137.575 116.251 138.659 116.409 140.105 115.701C140.723 115.4 143.118 114.466 143.759 113.381C143.879 113.178 144.105 113.012 144.158 112.801C144.346 112.056 145.37 110.557 145.559 109.751ZM142.425 105.232C145.514 103.296 145.378 103.356 145.25 103.04C145.078 101.86 144.751 100.707 144.278 99.6126C143.45 97.4584 144.278 100.125 142.674 95.0933C142.493 94.5284 138.976 96.3512 136.49 96.532C135.669 96.5847 134.622 96.7956 134.23 96.7881C127.316 96.5395 129.267 97.1421 125.983 96.7203C122.013 96.2081 122.812 96.7203 118.782 97.1722C117.547 97.3078 116.477 97.9254 115.385 97.7748C115.129 97.7748 114.428 99.2812 114.338 99.4997C114.971 99.6202 131.587 99.4319 131.933 99.5449C133.213 99.9742 132.89 100.501 132.837 108.516C132.837 108.832 132.935 108.727 134.147 108.433C137.838 107.604 139.563 107.054 142.425 105.262V105.232ZM141.672 94.3552C142.508 94.0614 142.335 94.1669 142.229 93.3609C141.904 90.8903 141.333 88.458 140.527 86.0999C138.915 81.6936 140.339 82.1305 136.919 83.2754C134.828 84.0696 132.603 84.4557 130.366 84.4127C124.152 84.6236 126.789 82.1531 124.273 89.0902C124.139 89.8005 123.786 90.451 123.263 90.9507C123.083 91.0787 122.932 91.2745 122.736 91.3273C120.755 91.862 119.776 90.574 119.467 91.0787C115.317 97.6618 115.89 96.7128 115.701 97.1948C116.688 97.2626 117.697 96.4416 123.113 95.8541C124.439 95.711 126.661 96.1629 128.34 96.1554C130.132 95.9809 131.936 95.9457 133.733 96.0499C133.733 96.0499 136.746 96.0801 141.657 94.3853L141.672 94.3552ZM136.076 82.8536C141.574 81.204 138.079 82.4694 135.496 73.7698C135.336 73.2758 135.205 72.7728 135.104 72.2634C134.931 71.7512 132.566 73.4459 130.073 72.5872C129.892 72.527 129.801 72.7981 129.131 74.2519C127.489 77.8372 127.73 77.2647 127.03 80.4885C126.201 84.2546 125.523 83.652 127.414 83.6746C130.871 83.6896 132.257 83.9834 136.076 82.8536ZM134.712 71.48C134.893 71.367 134.584 70.418 134.494 70.2447C133.65 68.5199 133.869 66.4787 132.988 61.7334C132.392 58.359 132.822 59.1197 130.133 57.7037C128.541 56.9717 126.888 56.3818 125.192 55.9412C122.088 55.1879 121.222 55.2783 117.757 55.8734C115.769 56.2048 116.296 56.4082 114.986 56.9957C114.074 57.4099 113.238 60.0613 112.975 61.0254C111.86 65.0551 112.138 64.0382 112.914 63.9855C116.462 63.6014 115.023 63.8801 121.614 65.4919C123.023 65.7699 124.368 66.3117 125.576 67.0888C127.918 68.3768 128.385 68.3617 129.756 69.4614C130.442 70.0188 130.276 63.9177 131.172 64.091C131.737 64.2039 131.504 64.8442 131.474 65.0024C131.376 65.6803 131.587 65.2057 131.398 66.3732C130.788 70.1393 131.707 66.9306 130.276 71.5855C130.148 71.9997 130.08 72.0374 130.863 72.0751C131.431 72.1486 132.006 72.1486 132.573 72.0751C133.298 71.9144 134.012 71.7107 134.712 71.465V71.48ZM132.249 57.9221C131.969 56.3621 131.494 54.8437 130.833 53.4028C130.427 52.6496 128.385 49.2074 127.519 49.0116C125.749 48.6199 121.252 45.6447 110.421 53.3576C107.89 55.1578 107.89 54.7134 107.83 55.1051C107.77 55.4968 107.356 61.1308 107.265 61.9669C107.265 62.2305 107.265 62.4188 107.506 62.2832C109.316 61.4326 110.993 60.3239 112.485 58.9917C113.005 58.5322 115.581 52.966 116.183 53.0714C116.786 53.1769 116.417 53.8924 116.115 54.4799C114.654 57.3346 115.069 55.5646 117.878 55.2331C120.138 54.977 120.138 54.6004 122.834 54.8264C127.76 55.1955 131.647 57.8016 132.249 57.8694V57.9221ZM132.189 103.484C132.227 100.185 132.603 100.328 130.63 102.912C105.924 135.232 106.776 133.56 106.7 135.104C106.7 135.481 106.753 137.997 106.776 138.072C106.798 138.147 132.174 104.343 132.189 103.431V103.484ZM127.994 74.3422C129.937 70.3427 129.907 70.3803 128.687 69.6798C121.802 65.6803 121.983 66.5389 120.401 66.0795C114.805 64.3923 116.741 64.7011 114.579 64.573C114.579 64.6709 112.169 64.4525 111.769 65.2434C111.22 66.3431 111.498 65.733 109.653 68.3014C108.749 69.5593 108.9 69.3484 108.146 71.7587C107.996 72.2634 109.096 71.706 111.31 72.1805C114.948 72.9337 112.282 72.4743 118.021 74.6209C120.567 75.57 120.71 76.9484 122.495 77.9501C123.549 78.3767 124.528 78.9692 125.395 79.7051C126.608 80.5939 125.44 79.547 127.994 74.2895V74.3422ZM126.186 47.814C126.879 47.9872 124.536 46.6691 123.783 46.4054C119.573 44.899 118.443 45.5844 110.858 47.5277C109.133 47.9721 109.073 47.8742 109.156 48.1378C109.404 48.9513 108.975 48.8911 108.049 54.0355C108.049 54.0355 107.996 54.1485 108.199 54.0807C108.259 54.0807 108.086 54.1786 111.212 51.9265C112.718 50.8268 113.035 51.0076 113.547 50.5557C113.976 50.1407 114.49 49.8245 115.053 49.6292C119.497 47.7386 121.847 46.6992 126.186 47.7612V47.814ZM125.787 81.1438C125.885 80.6693 125.425 80.7144 124.86 80.1947C124.093 79.5352 123.223 79.006 122.284 78.628C121.463 78.274 121.667 78.3644 119.799 76.5266C118.578 75.3214 119.55 75.9918 114.79 74.1087C113.17 73.461 114.376 73.1597 108.862 72.4818C108.003 72.5948 108.041 72.4818 107.838 72.9337C106.896 75.0955 104.719 78.5753 104.606 79.1854C104.975 79.1854 104.652 79.0348 105.668 79.2381C107.71 79.6373 110.188 82.1832 112.718 82.4694C117.554 83.0117 116.839 84.8119 121.561 87.9754C123.572 89.3237 122.797 90.3782 124.077 86.0698C124.785 83.7273 125.418 82.9666 125.787 81.1438ZM123.768 119.867C123.994 119.821 123.994 120.002 123.843 117.291C123.798 116.417 123.843 116.537 123.369 117.14C123.128 117.449 121.177 119.995 121.034 120.341C121.959 120.257 122.876 120.098 123.776 119.867H123.768ZM115.483 95.5453C117.539 92.2311 120.19 88.4198 119.678 88.1035C117.667 86.8607 116.665 84.473 114.473 83.9985C111.122 83.2452 111.325 83.4411 108.945 82.123C107.069 81.076 107.197 80.9103 107.069 81.1739C105.729 83.9382 102.106 90.333 101.759 91.2369C100.328 94.9201 95.6732 95.1084 89.3537 97.7296C88.6005 98.061 84.8344 99.2888 83.6067 99.688C81.2943 100.441 80.4808 100.645 80.0214 100.848C79.5619 101.051 79.8481 101.601 77.8295 102.513C77.6035 102.618 77.6035 102.618 77.596 102.897C77.5885 103.175 77.483 107.318 78.1459 107.303C86.6647 107.115 91.651 108.877 105.073 106.761C110.933 105.834 108.787 106.331 115.483 95.5453ZM118.255 28.0948C118.835 26.1891 118.127 24.6074 118.044 21.1501C117.887 19.863 117.411 18.6356 116.658 17.5799C115.212 15.6064 114.225 15.5838 112.636 13.166C110.881 10.4996 109.751 9.8368 107.19 8.89528C102.407 7.12522 102.55 9.6485 99.9665 8.69945C98.1437 8.02908 96.9989 7.25327 94.9124 8.08934C94.7726 8.13979 94.6481 8.22539 94.5509 8.3379C94.3325 8.5714 94.3551 8.60906 94.6262 8.76724C95.4623 9.23423 94.7693 8.94801 95.7033 9.43007C96.6373 9.91212 96.9311 9.71629 98.7614 11.7274C99.5146 12.5559 99.6502 12.3375 100.539 12.6614C101.111 12.8572 101.985 13.2639 101.661 13.7611C101.337 14.2582 101.006 13.7611 100.358 13.5351C99.662 13.4156 99.0098 13.1141 98.4676 12.6614C97.5864 11.8027 97.1118 11.0344 95.8163 10.4017C93.3006 9.16644 92.0954 7.96129 90.7773 8.14207C88.4574 8.14207 88.48 9.42253 86.5291 10.4017C85.4972 10.929 85.452 11.9759 85.7759 12.0211C87.1995 12.2471 86.2956 12.0211 87.0338 12.0588C87.7286 12.1471 88.402 12.3589 89.0223 12.684C94.1366 14.6875 92.1255 15.8851 97.5261 18.5967C99.7104 19.7039 101.48 20.2688 103.228 22.6641C106.497 27.1306 106.55 28.5015 107.228 36.1768C107.371 37.8188 106.158 39.9429 106.941 40.1387C108.056 40.44 108.448 39.6416 109.502 39.3855C110.029 39.265 110.609 39.3403 111.28 39.2273C111.679 39.1595 112.703 37.9544 112.658 36.6739C112.621 35.6571 113.208 34.7457 113.298 33.661C113.592 30.3469 111.302 24.8333 112.01 24.532C112.718 24.2308 112.553 24.9087 113.057 26.159C114.008 29.0507 114.374 32.1027 114.135 35.1373C114.135 35.2202 114.135 35.2579 114.24 35.2051C116.5 33.9623 114.722 33.4426 116.409 31.8458C117.245 31.085 117.501 30.7536 118.255 28.0948ZM110.948 64.4299C111.212 63.6767 112.123 60.3324 112.101 60.1742C110.951 61.021 109.738 61.7766 108.47 62.4339C107.235 62.931 107.054 62.8406 106.964 63.1871C106.015 67.7064 105.631 71.1109 101.322 72.7153C99.5372 73.3781 97.044 71.2089 96.0498 68.8513C95.3644 67.2545 95.6882 66.5916 95.2966 66.6594C94.801 66.9237 94.2532 67.0755 93.6922 67.1038C92.6679 67.1867 91.7263 67.6461 87.3577 66.7498C83.2979 65.9137 83.3656 64.5655 83.1773 65.6576C81.799 73.574 81.4675 71.8566 83.4334 72.7002C83.6519 72.7906 88.9846 76.2102 88.7813 75.1934C88.3836 73.3785 88.1317 71.5348 88.028 69.6798C88.0514 69.598 88.1008 69.526 88.1688 69.4747C88.2367 69.4235 88.3195 69.3957 88.4047 69.3957C88.4898 69.3957 88.5726 69.4235 88.6405 69.4747C88.7085 69.526 88.7579 69.598 88.7813 69.6798C90.3781 78.0857 89.5345 75.7056 91.0409 76.1801C91.7941 76.3985 97.4583 76.1801 99.3263 75.3741C99.5673 75.2762 104.094 74.0786 105.947 72.8132C106.459 72.4667 106.655 72.9413 106.783 72.4592C107.536 70.0489 107.71 69.2957 108.192 68.5425C109.517 66.4937 110.459 65.7706 110.948 64.4299ZM108.064 49.4861C108.116 49.2903 103.65 43.9198 102.897 42.5942C102.407 41.728 102.648 43.3474 100.637 43.3926C99.8234 43.3926 98.0684 43.0084 97.4658 42.0217C96.8633 41.035 97.5562 40.8316 97.8952 41.148C98.0981 41.4258 98.3333 41.6787 98.5957 41.9012C99.4016 42.4586 100.855 42.7448 101.609 42.0895C105.231 38.7 105.894 33.7062 100.855 34.0979C100.353 34.1446 99.8705 34.3166 99.4521 34.5983C99.0336 34.8799 98.6925 35.2621 98.4601 35.7098C98.0534 36.3274 97.9931 35.5893 97.609 36.2521C95.741 39.5437 96.0573 40.2065 93.5039 38.8281C92.3666 38.2105 91.4702 37.9318 91.9975 36.8848C92.1331 36.6212 92.3214 36.3877 92.457 36.1316C92.6754 35.6947 92.8562 35.2428 93.0595 34.8059C93.2629 34.3691 93.4437 34.4368 90.9129 33.9774C89.8584 33.7891 88.3143 34.1054 87.9 35.0093C87.649 35.5203 87.2727 35.9595 86.8062 36.286C86.3398 36.6125 85.7983 36.8157 85.2322 36.8766C84.6661 36.9374 84.0938 36.8541 83.5686 36.6343C83.0433 36.4145 82.5823 36.0653 82.2283 35.6194C81.1512 34.3691 81.573 33.3597 81.0759 33.0585C80.5787 32.7572 80.5637 32.7572 80.5486 33.0585C80.4507 35.4236 78.2438 35.2127 77.4228 35.7474C75.9691 36.6965 77.9124 38.813 79.8406 38.1125C80.6691 37.8037 81.347 38.3536 80.5938 38.9034C80.0998 39.1962 79.5166 39.3005 78.9518 39.1972C77.9877 39.4081 77.7918 38.8281 77.7165 39.1972C77.7165 39.1972 77.37 40.9898 77.3776 41.3212C77.3851 41.6527 77.0537 41.5547 77.3173 41.6527C78.1835 41.9615 78.8689 42.0443 79.1401 42.8352C79.351 43.4679 78.8087 43.8897 79.1928 43.8897C80.0364 43.8897 80.1042 44.0629 80.3226 44.0027C80.5411 43.9424 80.9403 43.2495 81.46 43.3097C81.8135 43.2976 82.1657 43.3583 82.4947 43.4878C82.8238 43.6174 83.1228 43.8131 83.3732 44.0629C84.5708 45.0572 85.5876 44.9367 85.4069 45.6221C85.324 45.9385 85.1056 45.9008 84.7591 45.8104C82.6275 45.2455 81.9345 43.3549 80.993 44.7107C80.4432 45.5167 80.285 44.7107 79.3811 44.8086C78.9066 44.8086 78.2061 44.9894 78.5225 45.2455C78.6839 45.4156 78.8018 45.6223 78.8661 45.8479C78.9304 46.0735 78.9391 46.3113 78.8915 46.541C79.0271 47.9495 78.3417 48.4617 78.4999 48.6048C83.2903 52.8454 83.7724 50.8645 89.5797 51.6177C91.8393 51.8964 94.1743 55.1654 97.6315 60.2872C97.7521 60.4605 98.5806 61.3116 98.0684 61.6656C97.7144 61.9066 97.4809 61.5978 95.7033 59.0821C94.8447 57.8694 94.5735 57.1312 94.7392 58.5172C95.2062 62.2832 95.9293 62.7954 96.0573 63.639C96.1971 65.1321 96.4489 66.6126 96.8105 68.0679C97.6993 70.6515 100.125 72.0901 100.885 71.834C102.558 71.2691 102.452 71.1486 103.966 69.6422C105.224 68.3918 106.422 61.7786 106.602 59.0971C106.71 55.8471 107.2 52.6211 108.064 49.4861ZM106.331 73.7698C106.738 73.0166 105.804 74.2594 100.245 75.9391C89.9186 79.0724 89.0298 73.9807 91.3271 79.7051C92.0803 81.5279 90.943 79.3587 92.7131 82.959C94.4078 86.4088 93.3457 86.7929 94.4078 86.936C98.9949 87.5762 100.818 86.5142 103.055 86.3786C103.484 86.3786 103.454 86.1753 104.004 85.1208C105.254 82.7481 105.232 82.9515 105.073 82.8008C104.659 82.4016 104.275 81.9798 103.838 81.6108C103.517 81.2535 103.313 80.8064 103.254 80.3296C103.194 79.8529 103.283 79.3694 103.507 78.9444C104.35 77.7016 103.281 79.0875 106.331 73.7698ZM105.578 39.7169C106.911 36.35 106.128 34.6553 105.789 31.7102C105.57 29.7594 105.668 28.5919 104.689 27.0629C103.861 25.7899 103.936 25.2777 103.386 25.2401C102.527 25.1798 102.738 24.743 100.885 24.9388C99.6276 25.0668 99.1531 26.1063 97.8726 25.5866C96.9913 25.2325 96.4716 25.1949 96.223 24.9313C95.9745 24.6676 96.2682 24.276 96.7126 24.3889C98.1513 24.7505 98.4526 25.0593 99.2284 24.6074C101.601 23.244 103.424 24.5321 102.994 23.9822C100.788 21.0447 100.208 21.0296 98.1136 19.9525C97.5864 19.6813 97.3604 19.7793 95.5677 19.9525C94.5584 20.0429 94.4906 20.0052 94.0613 20.2011C93.3081 20.5551 93.0746 20.766 92.8637 20.4572C92.6528 20.1483 93.0369 19.9073 93.6169 19.5834C94.5208 19.0562 96.6298 19.1466 96.0875 18.9055C94.9426 18.3557 94.6789 18.4536 92.0201 15.5386C91.8167 15.3202 91.7866 15.5386 90.6869 16.0056C90.0011 16.5668 89.4977 17.3193 89.2407 18.1674C89.1654 18.6419 88.1561 18.3632 88.7963 17.1731C89.1256 16.5036 89.5663 15.8949 90.0994 15.3729C90.9807 14.8683 91.1765 14.9135 90.9807 14.7854C89.301 13.6556 87.5385 12.7216 85.7835 12.8647C84.7139 12.9476 86.5367 14.3184 86.7626 15.4181C86.7903 15.5089 86.7847 15.6065 86.7468 15.6935C86.709 15.7805 86.6414 15.8512 86.5562 15.8929C86.471 15.9346 86.3737 15.9446 86.2818 15.9211C86.1899 15.8976 86.1093 15.8421 86.0546 15.7646C85.618 14.9839 85.114 14.243 84.5482 13.5502C83.8871 12.8825 83.4164 12.0504 83.1849 11.1399C82.989 11.5541 82.2885 14.6499 83.1849 16.4124C83.5163 17.0827 82.9062 17.8586 82.3111 16.4124C81.4223 14.2883 82.5748 13.6857 80.8047 13.6556C79.818 13.6556 79.8707 14.5821 79.7879 14.7478C79.6621 15.2138 79.6778 15.7067 79.8331 16.1638C79.8858 16.5932 79.3133 16.8116 79.1702 16.3521C78.8313 15.2826 79.012 14.9963 78.8313 14.68C78.5039 14.0802 78.275 13.4317 78.1534 12.7593C77.9531 13.2554 77.8263 13.7781 77.7768 14.3109C77.6929 15.7834 77.9507 17.2554 78.53 18.6118C78.6204 19.0411 78.0479 19.0938 77.8596 18.7022C77.686 18.2569 77.4873 17.8219 77.2646 17.3991C76.5798 16.8496 75.9852 16.1964 75.5021 15.4633C75.4041 15.7345 75.9013 19.2972 78.1383 20.6455C79.5393 21.4891 79.012 19.7793 80.3302 20.2914C81.0834 20.5852 81.6709 20.8639 81.9797 20.3743C82.0777 20.2119 82.228 20.0876 82.406 20.022C82.5839 19.9563 82.7789 19.953 82.9589 20.0128C84.5557 20.3592 84.39 20.879 87.4104 20.1257C87.9226 19.9977 88.0958 20.1257 89.3989 21.2782C90.4233 22.167 91.41 20.9844 92.4645 22.2649C92.7733 22.649 93.0068 22.4682 93.6244 22.7695C94.4153 23.1537 92.6001 24.2308 93.406 24.8333C94.9652 26.0084 92.9014 26.6862 93.5039 27.9893C94.5961 30.3695 95.1987 30.7988 94.7015 31.8157C94.4765 32.1911 94.4012 32.6375 94.4906 33.066C94.7015 33.8192 93.7374 33.4125 96.4641 34.0828C97.9705 34.467 97.6993 34.5875 97.8575 34.5046C99.4769 33.661 99.3188 33.6309 99.718 33.4727C101.744 32.6593 104.531 33.5932 104.87 34.8059C105.284 35.6483 105.416 36.6017 105.247 37.525C103.996 42.1347 102.173 40.4249 104.29 43.1591C104.546 43.4905 104.343 42.7222 105.043 42.1498C105.593 41.7882 104.772 41.7732 105.586 39.7169H105.578ZM102.806 87.3277C103.235 86.6197 99.4317 88.4424 94.1969 87.5612C94.0236 87.516 93.9634 87.5612 93.9935 87.742C94.0792 88.5491 94.2613 89.3432 94.5358 90.107C96.3134 94.4682 95.6958 94.4079 96.095 94.2874C100.968 92.8111 100.08 91.8319 102.814 87.3277H102.806ZM97.2851 35.2127C97.1329 35.1088 96.9612 35.037 96.7804 35.0018C94.1216 34.5272 94.2421 34.467 94.099 34.7532C92.7055 37.6305 92.5925 37.3367 93.1876 37.6455C96.0875 39.0917 94.6865 39.1143 97.2926 35.2127H97.2851ZM94.9802 66.0945C95.2815 65.9514 95.4472 66.1698 95.387 65.8083C94.807 62.0422 95.387 65.0551 94.1442 61.0706C94.0764 60.8446 94.1442 60.822 92.5549 61.0706C91.769 61.2248 90.9574 61.1861 90.1898 60.9576C89.714 60.9207 89.251 60.7859 88.8298 60.5616C88.4085 60.3374 88.0381 60.0286 87.7418 59.6545C87.433 58.9992 85.2713 60.4077 83.5539 64.1738C83.343 64.6483 83.328 64.7161 83.8854 64.927C86.145 65.861 87.2748 66.3883 92.0879 66.6896C93.5642 66.4259 94.1894 66.4787 94.9878 66.087L94.9802 66.0945ZM94.4756 94.905C95.0555 94.7243 95.1309 94.7845 94.9878 94.4606C92.457 88.4952 93.0294 85.9192 92.2084 84.119C91.6284 82.8536 91.4552 84.0738 90.702 86.2656C90.4308 87.1092 89.9487 88.1788 89.7077 88.8642C88.9018 91.3197 89.5194 90.1899 88.4724 92.4872C88.2163 93.0446 87.8925 93.2404 87.7192 93.5492C87.1543 94.9276 87.2673 94.6715 86.145 96.0047C85.5876 96.6751 85.5575 95.7486 85.5575 96.9463C85.6855 98.174 85.6253 98.1288 85.791 98.0685C92.1331 95.7411 94.1517 94.9653 94.4756 94.905ZM93.986 57.1086C94.2345 55.3838 92.2385 57.2518 91.4025 57.7037C89.1805 58.9013 90.1145 57.7865 87.9226 59.1273C89.0826 60.1592 88.9545 60.1667 91.5305 60.5584C95.4999 60.0085 93.4512 60.7768 93.986 57.0785V57.1086ZM93.7299 32.1245C94.2873 30.6934 94.0688 31.439 92.7658 28.4789C92.624 28.085 92.578 27.663 92.6317 27.2477C92.6854 26.8325 92.8372 26.4361 93.0746 26.0912C93.4964 25.4811 91.9598 25.6317 92.6754 23.8316C92.8637 23.3646 92.4118 23.7336 91.6962 22.875C91.2292 22.3176 90.0015 23.455 88.141 21.4288C87.3125 20.5174 86.0772 22.1444 83.2527 21.1124C82.409 20.8112 82.7706 21.6246 81.6257 21.6472C80.4808 21.6698 80.2097 20.9693 79.8858 21.3309C79.2606 22.0163 78.8614 21.6623 78.7484 21.9786C78.1809 23.4593 77.7891 25.0013 77.5809 26.5733C77.5809 26.7314 77.5809 26.852 77.8521 26.7465C77.9952 26.6938 77.95 26.287 78.4923 26.3699C79.2455 26.4979 79.2455 27.6278 78.8463 27.7408C77.2345 28.1927 77.4077 27.1834 77.3926 30.0004C77.3926 30.5126 78.2136 30.1209 79.0422 31.198C79.6899 32.0341 79.5393 32.3354 79.7954 32.1621C79.9856 32.0265 80.2133 31.9536 80.4469 31.9536C80.6805 31.9536 80.9083 32.0265 81.0985 32.1621C81.5579 32.3956 81.3094 31.5746 81.9873 30.6557C83.908 28.0194 86.5065 28.8555 87.6439 30.3393C88.7813 31.8232 88.1787 32.6969 88.6683 32.7044C89.7024 32.8139 90.7288 32.9875 91.7414 33.2242C94.9049 33.7891 93.2026 33.4501 93.7299 32.0943V32.1245ZM91.8469 56.0993C92.7206 55.3461 93.1725 55.6851 92.7959 55.2482C90.2651 52.3031 90.8601 52.3935 85.8512 52.3408C85.5575 52.3408 85.6931 52.5216 85.678 53.2898C85.6178 55.4591 84.2168 55.9713 83.8628 61.3869C83.8628 62.0648 84.4804 59.7976 87.8623 57.9146C89.2709 57.0936 90.3856 57.3723 91.8469 56.0692V56.0993ZM91.0936 82.5372C91.3271 82.01 89.6927 79.1478 89.0449 76.4286C88.8717 75.6754 88.6231 76.8504 84.6988 74.3422C83.0116 73.2576 83.9456 73.6719 82.0626 72.9111C81.9481 73.2347 81.8995 73.5778 81.9195 73.9204C81.9873 75.1783 81.7688 76.7149 81.6483 78.8389C81.6031 79.5319 81.5353 79.3888 82.2584 79.5921C84.3448 80.2023 87.6816 83.652 88.7135 84.5709C90.5664 86.2054 88.947 87.2976 91.0861 82.5071L91.0936 82.5372ZM88.834 88.6157C89.4516 86.9737 89.6324 86.8757 89.3537 86.582C88.6758 85.874 88.8415 85.6781 88.5402 85.3919C83.0342 80.2324 82.8384 80.4659 81.7613 80.1194C81.4148 80.1194 81.7613 80.5563 81.9195 86.002C81.9195 87.0189 82.974 86.8607 84.2921 88.4274C87.9753 92.7885 87.3502 92.7508 87.8774 91.6737C88.5026 90.3857 88.367 89.7756 88.8114 88.5856L88.834 88.6157ZM85.3014 36.0035C85.8676 35.8708 86.3867 35.586 86.8029 35.1798C87.219 34.7736 87.5164 34.2616 87.6629 33.6988C87.8094 33.1361 87.7995 32.544 87.6342 31.9865C87.4689 31.429 87.1545 30.9272 86.725 30.5352C85.0227 28.7953 82.0174 30.4373 82.1304 32.5538C82.055 35.0319 83.7121 36.2446 85.2788 35.9734L85.3014 36.0035ZM85.7684 95.2139C87.3803 92.8638 87.3577 93.9259 85.098 91.1088C85.098 91.1088 82.8384 88.0357 81.9948 87.8549C81.9421 88.2466 82.055 90.4083 81.9948 91.1164C81.9948 91.2162 81.9551 91.312 81.8845 91.3827C81.8139 91.4533 81.7181 91.493 81.6182 91.493C81.5183 91.493 81.4225 91.4533 81.3519 91.3827C81.2812 91.312 81.2416 91.2162 81.2416 91.1164C81.1964 89.9489 81.106 92.7132 80.7821 84.1642C80.5637 78.3644 80.5185 79.8482 80.9327 76.15C81.4977 71.1637 80.3528 75.9014 82.1228 66.3581C82.6044 64.0622 82.9365 61.7374 83.1171 59.3984C83.6293 55.6323 84.9926 54.495 84.8419 52.6195C84.7967 52.0621 84.3825 52.6948 82.281 52.0169C81.7764 51.8512 82.281 52.1525 82.1756 53.4254C82.1304 53.9753 82.0098 54.7059 81.4826 54.5477C80.9553 54.3895 81.1964 54.0807 81.234 53.1015C81.2868 51.693 80.1268 51.113 78.5451 49.8928C77.2721 48.8986 77.6261 49.1848 75.5849 48.3864C75.0878 48.183 75.374 49.8928 74.5907 49.6819C74.0408 49.5614 74.7262 48.7781 74.3572 47.5503C74.3281 47.4431 74.3281 47.33 74.3572 47.2228C74.3863 47.1156 74.4435 47.018 74.5229 46.9402C74.6585 46.8498 74.9823 46.9402 75.1104 47.1285C75.5849 47.7462 75.4192 45.9008 76.082 46.1192C76.9181 46.3904 75.7807 47.5805 76.1574 47.6934C77.1667 47.9947 77.5809 48.1981 77.6638 48.1002C78.0555 47.4298 78.0178 47.701 78.0781 46.2247C77.8393 45.7907 77.4881 45.429 77.0612 45.1777C75.3138 44.191 76.308 43.8445 73.8676 45.705C73.346 46.0703 72.7851 46.376 72.1954 46.6163C70.689 47.4449 71.3744 49.8251 73.039 50.5481C74.4928 51.1884 74.2141 51.8663 75.2987 52.74C76.6771 53.8171 76.8503 53.8849 76.8428 54.2464C76.7675 56.5061 77.468 53.5987 75.5322 59.5641C75.5322 59.5641 74.0258 64.558 74.0258 64.573C69.273 79.0348 66.7271 81.9799 67.2468 87.0264C67.3824 88.2617 67.533 92.7207 68.8964 93.15C68.9943 93.1425 85.7383 95.1988 85.7458 95.1837L85.7684 95.2139ZM84.8721 97.579C84.9625 95.9746 85.1809 96.0725 82.1304 98.5657C82.1304 98.5657 81.3018 99.2511 80.8876 99.6202C80.7595 99.7331 80.8876 99.7708 81.0081 99.7332C82.2721 99.3759 83.5145 98.9458 84.729 98.4452C84.8947 98.3171 84.8495 98.2945 84.8495 97.5488L84.8721 97.579ZM79.9686 99.3114C81.4148 98.1288 83.8552 96.2985 84.1791 95.9671C83.9908 95.8692 58.5698 92.5625 58.3137 92.7282C55.7377 94.1518 22.0689 111.792 21.6019 112.41C21.6019 112.41 54.638 119.445 54.8413 119.287C56.0465 118.3 68.7457 108.222 69.0018 107.988C68.6553 107.747 69.2202 108.086 66.6744 107.152C66.2827 107.009 65.5069 106.761 65.5144 107.152C65.4921 107.475 65.4314 107.793 65.3336 108.101C65.2464 108.659 64.9434 109.159 64.49 109.495C64.0708 109.785 63.5822 109.959 63.074 109.999C61.2889 109.932 60.7089 110.045 59.9783 109.45C59.7146 109.239 59.4058 108.87 59.2251 108.84C58.05 108.591 57.9823 108.599 57.7789 108.757C57.5755 108.915 53.9676 111.77 48.6348 116.04C48.3561 116.259 48.9361 116.274 43.1815 115.091C33.1412 112.982 29.7366 112.327 28.6219 112.056C27.9666 111.89 27.7256 111.544 28.426 111.084C29.1265 110.625 30.987 109.578 35.4686 107.092C61.1684 92.7358 58.2157 94.0087 59.5037 94.0087C59.9481 93.9033 72.557 95.5151 72.572 95.5151C72.8658 95.5151 73.2048 95.5151 73.378 95.9068C73.4834 96.1478 73.5286 96.1328 73.3403 96.3362C72.6398 97.0894 69.5742 99.0929 70.0638 99.2285C73.3629 100.2 72.0448 100.193 73.0767 99.1456C73.712 98.5583 74.4879 98.1444 75.3295 97.9439C76.1712 97.7434 77.0503 97.763 77.8822 98.0008C79.7954 98.6711 79.3736 99.7482 79.946 99.2812L79.9686 99.3114ZM79.2154 34.0301C79.3585 33.9171 79.2757 33.8117 79.2907 33.646C79.2455 33.2543 79.2907 33.3748 79.125 33.2392C78.6354 33.9171 78.5074 33.2392 78.5451 34.2033C78.53 34.3389 78.9066 34.2184 79.2004 34L79.2154 34.0301ZM77.9651 32.6668C78.9367 32.6216 79.1326 33.1262 78.8689 32.5086C78.7476 32.1711 78.5477 31.8674 78.2858 31.6225C78.0238 31.3775 77.7074 31.1985 77.3625 31.1001C77.3625 31.4541 77.4529 31.4767 77.468 31.6725C77.4919 31.7594 77.4804 31.8523 77.4359 31.9307C77.3914 32.0091 77.3176 32.0666 77.2307 32.0906C77.1438 32.1145 77.0509 32.103 76.9725 32.0585C76.8941 32.014 76.8366 31.9402 76.8127 31.8533C76.5566 31.2884 76.6921 31.1001 76.3381 31.2809C74.9146 32.1395 74.4476 34.1431 75.8259 35.8755C76.195 36.3349 76.0896 35.3181 76.9784 34.8662C77.4755 34.6176 77.2495 34.5272 77.1893 34.3163C77.0537 33.8644 77.0462 34.0452 76.7298 34.1506C76.2628 34.3013 75.9766 33.8418 76.4586 33.3974C76.5792 33.2844 76.7901 33.2392 76.8804 33.1112C77.0143 32.9601 77.1791 32.8395 77.3636 32.7576C77.5482 32.6757 77.7481 32.6345 77.95 32.6367L77.9651 32.6668ZM75.7883 101.684C78.191 101.541 78.9518 100.577 78.5978 99.7784C78.0479 98.5205 75.8937 98.4 74.2894 99.3114C72.8809 100.072 73.2499 101.797 75.7883 101.684ZM77.0386 43.9274C77.724 44.0102 78.5451 43.6261 78.1534 43.1064C78.0178 42.9181 77.6939 42.8277 76.5566 42.4511C76.3255 42.3251 76.0665 42.2592 75.8033 42.2592C75.5402 42.2592 75.2812 42.3251 75.0501 42.4511C72.8884 43.7692 71.0506 43.9575 71.0506 45.607C71.1183 46.0062 71.1183 46.3226 71.2991 46.1268C71.7812 45.5844 72.557 45.4639 73.0315 45.125C74.44 44.1232 74.6434 43.7843 75.2535 43.5583C76.1197 43.2118 76.3005 43.8069 77.0386 43.8897V43.9274ZM77.0386 39.4081C77.0989 39.0541 77.257 38.6549 76.7901 38.444C76.7449 38.444 76.5867 38.2255 76.4436 38.2632C75.9163 38.4214 75.1405 37.9092 73.7471 38.3686C70.4028 39.4759 70.7342 41.1706 71.3895 40.8392C72.0448 40.5078 73.1144 40.086 73.3328 39.9127C75.4569 38.4741 76.8729 40.1462 77.0085 39.3855L77.0386 39.4081ZM76.5792 41.3664C76.662 41.2986 76.9181 40.6132 76.5792 40.5304C76.0116 40.3658 75.4226 40.287 74.8317 40.2969C74.327 40.2969 73.4533 41.0501 72.7754 41.2309C71.6531 41.5999 70.7191 42.1573 71.1183 43.2721C71.2539 43.6487 71.1183 43.4302 72.6248 42.6318C73.2988 42.3368 73.9485 41.9893 74.5681 41.5924C75.3966 40.9597 76.4662 41.4267 76.549 41.3438L76.5792 41.3664ZM73.9429 104.388C73.9429 102.927 74.3722 102.761 73.8676 102.528C72.3611 101.842 72.685 101.066 72.2331 100.946C71.0131 100.644 69.8132 100.267 68.6403 99.816C64.3469 97.9932 65.9513 99.1532 62.961 97.6995C61.2286 96.8559 60.3624 97.3455 59.1949 97.1572C58.3589 97.0291 57.6433 97.7597 57.1161 98.3472C55.0824 100.607 55.6548 98.6485 53.5835 102.723C53.1315 103.605 53.2596 103.831 54.0203 103.115C55.2933 101.917 55.4288 102.091 55.8281 101.609C59.4586 97.3078 60.0762 98.8971 59.6845 99.2888C59.452 99.4961 59.1997 99.6803 58.9313 99.8386C56.6114 101.722 56.7846 102.437 55.7226 102.957C54.6606 103.477 54.653 104.539 52.7097 105.925C51.5874 106.731 50.6761 107.258 50.789 107.906C50.8719 108.388 51.8134 108.516 52.4612 108.079C53.7447 107.203 54.9314 106.193 56.0013 105.066C56.9277 104.539 56.1745 103.559 57.1537 102.671C59.564 100.524 59.564 100.479 59.8653 100.283C59.9389 100.259 60.0183 100.259 60.0919 100.283C60.1655 100.307 60.2294 100.354 60.2741 100.418C60.3189 100.481 60.3421 100.557 60.3403 100.634C60.3386 100.712 60.312 100.787 60.2645 100.848C59.7824 101.767 57.6659 103.153 57.568 103.733C57.342 105.051 56.9729 107.732 58.3212 107.597C58.4568 107.597 58.8936 107.778 58.8409 107.393C58.743 106.64 58.6451 106.889 58.5622 106.128C58.4041 104.81 59.3154 104.802 60.0687 103.748C60.6239 103.089 61.289 102.531 62.0346 102.098C62.4262 101.925 62.7426 102.339 62.4413 102.633C62.4413 102.633 61.0252 104.042 60.9725 104.139C60.7424 104.542 60.4413 104.899 60.0837 105.194C59.4058 105.714 59.2251 105.262 60.0235 107.958C60.2419 108.711 60.4905 108.922 61.1834 109.05C61.4772 109.103 61.8839 109.05 62.3509 109.156C62.8243 109.224 63.3073 109.148 63.7368 108.937C64.5578 108.568 64.6331 108.139 64.6934 107.853C64.7989 107.363 64.8666 107.1 64.6934 106.844C64.5202 106.587 64.2339 106.542 64.1285 106.7C63.5636 107.536 63.4732 108.124 63.1117 107.928C62.6221 107.665 63.2322 107.22 62.8556 107.22C62.479 107.22 61.6353 107.288 61.6052 106.836C61.6052 106.61 61.8161 106.309 62.2831 106.301C62.5164 106.334 62.7542 106.302 62.9707 106.209C63.1872 106.116 63.374 105.966 63.5109 105.774C64.1737 105.186 64.4599 105.819 66.0417 105.902C67.6234 105.985 68.8888 107.273 71.382 106.926C72.0347 106.911 72.6861 106.858 73.3328 106.768C74.086 106.7 74.086 106.708 74.0408 106.497C73.9956 106.286 73.9203 105.171 73.9128 104.365L73.9429 104.388ZM69.3633 98.8444C72.67 96.193 72.7754 96.291 72.444 96.178C72.444 96.178 59.3606 94.4155 58.984 94.6715C58.1103 95.1009 29.006 111.476 28.9985 111.476C29.4278 111.657 28.2453 111.37 35.8528 112.914C49.3127 115.641 48.1678 115.671 48.6574 115.287C57.696 107.943 57.4701 108.433 57.229 108.214C56.3252 107.378 56.5587 106.271 56.2047 106.542C53.8471 108.357 54.2614 108.049 54.0806 108.229C54.638 108.44 55.587 108.425 55.459 108.832C55.2782 109.51 53.7567 108.433 53.1165 108.937C49.3127 111.95 49.4106 111.657 49.9454 111.8C50.4802 111.943 51.143 111.875 50.9698 112.357C50.9459 112.422 50.8987 112.476 50.8375 112.508C50.7762 112.54 50.7053 112.548 50.6384 112.53C48.4541 112.184 49.2751 111.943 47.0681 113.577C46.797 113.781 46.4354 113.525 46.7895 113.231C48.198 112.078 48.2959 112.108 47.7988 112.026C41.5998 110.933 44.1155 110.956 40.8164 112.779C40.5528 112.93 40.3043 112.606 40.5604 112.425C40.5604 112.425 42.2702 111.175 42.353 111.062L42.2325 111.009C36.4177 109.939 37.8337 109.924 36.0185 111.009C34.4744 111.92 34.512 111.89 34.4141 111.762C34.158 111.476 34.625 111.265 35.0317 111.009C36.8922 109.819 36.8771 110.135 34.8359 109.743C34.1505 109.615 33.9321 109.533 34.0074 109.299C34.2032 108.666 36.7792 109.939 37.6379 109.389C39.4607 108.229 41.7655 106.889 41.9915 106.648C41.5395 106.399 40.3269 106.52 40.4398 106.015C40.5076 105.714 40.5905 105.797 42.466 106.135C42.9255 106.218 42.6016 106.316 46.7066 103.793C47.7084 103.183 47.5276 103.288 47.6029 103.16C46.7367 102.942 46.0965 103.04 45.9684 102.648C45.8404 102.256 46.925 102.497 48.3185 102.716C48.8985 102.475 52.4235 100.26 52.5365 100.17C52.2955 100.072 51.9264 100.034 51.2334 99.8687C50.8869 99.7783 50.7589 99.5147 50.9246 99.4017C50.984 99.3696 51.0493 99.3496 51.1166 99.3432C51.1839 99.3367 51.2518 99.3438 51.3163 99.3641C52.8754 99.6352 53.2069 99.7557 53.478 99.5976C57.7337 97.0743 56.3704 97.5187 55.8205 97.2927C55.2707 97.0668 55.5795 96.7881 55.9109 96.8408L56.7394 96.9613C57.2441 97.0442 57.214 96.7655 57.6433 96.5922C59.2552 95.9445 58.8334 96.306 59.4209 95.9595C60.0084 95.6131 60.4227 95.2063 60.6336 95.485C60.8445 95.7637 60.4377 95.8842 60.1816 96.2006C60.724 96.3964 61.4169 96.0424 63.0815 96.6977C63.3376 96.8031 63.3226 96.7504 64.2339 96.1328C64.2613 96.1076 64.2935 96.0884 64.3285 96.0762C64.3636 96.064 64.4008 96.0592 64.4379 96.062C64.4749 96.0648 64.5109 96.0751 64.5438 96.0924C64.5767 96.1097 64.6056 96.1336 64.6289 96.1625C64.6521 96.1915 64.6692 96.2249 64.679 96.2607C64.6888 96.2965 64.6912 96.3339 64.6859 96.3707C64.6807 96.4074 64.6679 96.4427 64.6485 96.4744C64.6291 96.506 64.6033 96.5333 64.5729 96.5546C64.1436 96.9387 63.8197 96.9688 64.136 97.127C65.9437 98.0761 65.1604 97.4434 66.1245 97.8275C66.4559 97.9556 66.3881 97.9028 67.7289 96.8559C68.1356 96.5395 68.4218 96.9764 68.1507 97.2249C67.0058 98.2719 66.8476 97.9782 67.533 98.287C69.0696 98.9347 69.0771 99.0327 69.3332 98.8218L69.3633 98.8444ZM55.9561 121.84C75.1631 106.377 73.0089 108.154 73.2801 107.853C70.3275 108.132 70.3124 107.988 69.9659 108.267C66.4409 111.152 55.5117 119.671 55.1502 120.175C55.2707 120.175 55.2104 120.01 55.3535 121.915C55.3611 122.179 55.4514 122.194 55.926 121.817L55.9561 121.84ZM57.9371 91.8922C58.389 91.6361 58.856 93.8204 49.7119 67.4955C47.151 60.129 47.2414 59.534 45.637 59.2854C30.294 65.4543 14.9133 72.173 9.66343 74.2217C7.93103 74.8996 9.11358 77.1743 10.492 80.8274C22.9502 113.969 21.4136 111.024 22.2647 110.828C22.5961 110.723 57.922 91.8922 57.9371 91.8922ZM43.2644 119.98C53.5081 122.239 54.5627 122.714 54.5627 121.961C54.3668 119.309 58.3287 121.313 21.4739 113.193C21.1198 113.118 21.2102 113.193 21.2554 114.263C21.2554 115.159 20.2009 114.865 43.2644 119.98ZM52.4085 103.19C53.6814 100.313 54.0655 100.321 53.463 100.313C52.0613 101.075 50.6988 101.907 49.3805 102.806C49.5086 102.882 49.2751 102.851 50.7137 103.092C52.3783 103.394 52.3105 103.424 52.4085 103.19ZM51.8737 105.45C52.175 105.186 52.1674 105.119 51.8737 105.284C51.1204 105.714 49.019 107.25 49.0114 107.258C49.147 107.341 49.0114 107.295 49.6517 107.431C50.0659 107.431 49.953 107.039 50.4049 106.678C51.0677 106.098 51.6477 105.676 51.8737 105.45ZM49.034 111.4C51.1506 109.661 52.1599 109.05 51.708 109.141C51.2817 109.204 50.8466 109.122 50.4727 108.907C49.968 108.576 50.0358 108.192 49.8927 108.154C49.4558 108.056 48.8081 107.89 48.2884 107.8C47.7837 108.079 44.236 110.489 44.0327 110.73C44.1833 110.79 44.0327 110.775 45.1926 110.979C48.9587 111.604 48.7553 111.642 49.034 111.416V111.4ZM48.3712 106.979C53.3952 103.469 53.7341 104.147 48.6499 103.311C46.9554 104.214 45.3179 105.22 43.7465 106.324C43.7465 106.324 47.972 107.273 48.3712 106.994V106.979ZM43.5732 110.286C45.7274 108.711 46.9702 108.026 47.3393 107.627C46.925 107.469 43.159 106.798 43.0008 106.768C42.6844 106.911 38.3986 109.51 38.2405 109.691C38.4212 109.781 39.7469 110.007 39.9728 110.045C42.8426 110.564 43.0535 110.677 43.5732 110.301V110.286ZM21.0822 111.792C21.2554 111.476 7.9235 76.0746 7.91597 76.0746C6.50745 77.5359 7.07236 77.8221 10.4995 86.9209C19.975 112.041 20.2913 113.668 20.4118 113.103C20.4686 112.597 20.71 112.131 21.0897 111.792H21.0822Z" fill="#000001"/>
<path id="Vector_47" d="M102.438 115.709C103.045 115.93 103.563 116.345 103.913 116.889C104.262 117.433 104.424 118.077 104.373 118.721C103.936 124.936 99.1008 123.474 98.9878 123.482C99.0782 123.632 101.247 124.627 99.7786 127.429C98.7618 129.342 94.9355 129.538 92.7662 129.53C90.5066 129.53 88.7742 129.681 85.9496 128.325C85.5888 128.155 85.2654 127.915 84.9981 127.619C84.7308 127.323 84.525 126.976 84.3925 126.6C84.2601 126.224 84.2037 125.825 84.2266 125.427C84.2495 125.029 84.3513 124.639 84.526 124.28C84.8574 123.527 85.7312 123.655 85.2792 123.196C83.6071 121.523 83.3058 117.682 83.5016 115.317C83.8632 111.152 100.072 110.865 100.494 115.219C100.562 115.904 100.931 115.151 102.438 115.709ZM102.174 118.149C102.784 118.684 101.94 121.674 100.75 121.734C99.8615 121.78 99.9368 121.591 99.6129 121.915C99.2891 122.239 99.3041 122.563 99.7711 122.668C103.402 123.708 105.172 116.191 101.21 116.334C100.577 116.334 100.66 116.334 100.637 116.989C100.622 117.87 100.991 117.095 102.189 118.149H102.174ZM101.594 118.902C101.594 118.465 101.187 118.322 100.75 118.292C100.065 118.239 100.607 118.541 99.9218 120.243C99.8826 120.399 99.8549 120.558 99.8389 120.717C99.8389 120.838 99.8389 120.913 99.9895 120.906C100.6 120.906 100.826 120.951 100.999 120.68C101.358 120.153 101.569 119.539 101.609 118.902H101.594ZM99.4548 118.902C100.072 116.176 99.9745 116.515 99.0932 117.17C95.9146 119.542 86.5296 118.925 84.2323 116.763C84.2106 118.459 84.5388 120.141 85.1964 121.704C86.8158 124.777 92.593 124.868 95.9523 123.964C98.6714 123.263 98.8371 121.667 99.4698 118.88L99.4548 118.902ZM98.4906 116.507C99.2966 115.897 99.5075 115.754 99.5 115.52C99.402 112.312 90.1751 113.193 86.9966 113.66C86.9966 113.472 85.1211 114.285 84.6691 114.933C84.4733 115.227 84.5335 115.294 84.9478 115.995C85.1888 116.409 85.234 115.023 87.2075 114.669C89.9416 114.195 97.4813 114.082 98.1668 116.176C98.2647 116.281 98.3852 116.575 98.5057 116.484L98.4906 116.507ZM98.453 127.594C99.2062 127.15 99.2062 126.374 99.4096 125.674C99.2589 124.642 98.2797 123.889 98.0086 124.077C97.5265 124.408 97.3458 124.408 97.4663 124.657C97.7751 125.305 97.18 125.757 96.6076 126.163C95.6887 126.811 95.2443 127.06 93.1202 127.007C84.9629 126.811 87.7799 124.71 86.9589 124.386C86.6426 124.258 86.4317 123.828 85.7312 124.386C85.5453 124.543 85.3929 124.736 85.2829 124.953C85.1729 125.171 85.1075 125.408 85.0907 125.651C85.0738 125.893 85.1058 126.137 85.1848 126.368C85.2638 126.598 85.3881 126.81 85.5504 126.992C86.989 128.92 95.3347 129.553 98.468 127.572L98.453 127.594ZM94.0994 126.088C95.3874 126.088 96.7733 125.169 96.6377 124.905C96.5022 124.642 93.5119 125.787 89.1056 125.033C88.4201 124.913 87.8552 124.453 87.8854 124.973C87.9456 126.088 92.9846 126.088 94.1521 126.088H94.0994Z" fill="#000001"/>
<path id="Vector_48" d="M103.522 36.1541C103.831 36.6587 103.665 37.5626 103.273 37.4421C102.565 37.2161 103.515 36.5457 101.933 36.026C100.878 35.6795 99.7936 36.7792 100.509 37.5776C100.667 37.7584 102.151 38.8355 100.946 40.2214C100.502 40.7261 99.643 40.3269 100.328 39.5435C100.826 38.9786 100.276 38.6849 99.8539 38.2103C98.5207 36.7039 100.419 34.851 101.413 35.0845C101.821 35.0983 102.222 35.2011 102.586 35.3859C102.95 35.5707 103.27 35.8328 103.522 36.1541Z" fill="#000001"/>
<path id="Vector_49" d="M102.912 29.5707C103.952 29.4201 104.577 30.5725 103.025 30.4671C102.272 30.5122 102.038 30.678 101.398 30.3767C100.502 29.9875 99.4984 29.9209 98.5585 30.1884C98.2497 30.1884 97.8957 29.759 98.3401 29.5255C98.9962 29.2593 99.7058 29.1509 100.411 29.2092C101.797 29.4879 101.684 29.7515 102.912 29.5707Z" fill="#000001"/>
<path id="Vector_50" d="M88.224 27.9895C88.2692 28.1552 88.0131 28.2154 88.0357 28.4038C87.9058 28.3896 87.7773 28.3644 87.6516 28.3284C87.516 28.2757 87.388 27.5752 86.4163 27.8539C83.6294 28.7578 84.1567 27.8539 83.4035 28.0723C83.1134 28.1101 82.8186 28.0659 82.5524 27.9448C82.2861 27.8236 82.0591 27.6304 81.897 27.3869C81.8587 27.3191 81.8361 27.2436 81.8308 27.1659C81.8256 27.0882 81.8379 27.0103 81.8668 26.938C81.8957 26.8656 81.9406 26.8008 81.9979 26.7481C82.0553 26.6954 82.1238 26.6563 82.1983 26.6337C82.5071 26.5734 82.5825 25.9181 83.1172 26.3399C83.2378 26.4303 83.2754 26.4755 83.4035 26.3399C83.4482 26.2847 83.5063 26.2416 83.5721 26.2148C83.638 26.1879 83.7096 26.1782 83.7803 26.1865C83.8509 26.1947 83.9184 26.2207 83.9763 26.262C84.0342 26.3034 84.0807 26.3587 84.1115 26.4228C84.3224 26.8597 85.3618 26.4228 85.6782 26.6412C86.1678 26.95 86.7854 26.581 87.2599 26.9726C87.4558 27.1158 88.1638 27.2815 88.224 27.9895Z" fill="#000001"/>
<path id="Vector_51" d="M87.7798 46.2774C88.2694 46.4808 87.5086 47.1813 87.0266 47.5052C86.5445 47.8291 86.085 47.3621 86.552 46.9252C87.5764 45.9837 87.5011 46.1569 87.7798 46.2774Z" fill="#000001"/>
<path id="Vector_52" d="M87.0265 45.1928C87.9982 45.5544 85.9118 47.5203 85.5201 46.7821C85.2941 46.3603 85.9193 46.1343 86.1528 45.9084C86.68 45.4112 86.665 45.0949 87.0265 45.1928Z" fill="#000001"/>
<path id="Vector_53" d="M84.6162 32.207C86.5067 32.207 87.2223 33.2615 86.5971 33.495C86.1452 33.6607 84.7668 32.8322 85.0907 33.3067C85.228 33.5324 85.2863 33.7974 85.2564 34.0599C85.2037 34.9789 84.2546 34.7152 84.0738 34.2106C83.8253 33.4574 84.0211 33.2465 83.6822 33.2992C83.3432 33.3519 82.929 33.5176 82.831 33.1937C82.5825 32.4933 83.9157 32.2673 84.6162 32.207Z" fill="#000001"/>
<path id="Vector_54" d="M71.4651 57.4701C71.9472 57.4701 72.2862 58.1329 71.7514 58.2987C70.5867 58.5752 69.4477 58.9507 68.3468 59.4209C61.4398 62.4338 57.4779 69.2128 59.8807 77.3098C60.1443 78.1911 58.8488 79.3209 58.3743 72.8508C58.3743 67.051 62.1403 60.8897 69.5821 58.2158C69.9738 58.0727 69.4089 57.9748 68.9795 57.8769C63.4886 56.6491 58.3592 46.4656 63.1722 35.19C64.0008 33.2542 64.6787 32.8249 62.3814 34.9414C56.5891 40.2893 47.7765 44.5299 43.1216 38.233C39.7171 33.6308 40.99 26.4677 40.4025 28.0269C37.593 35.5591 33.1641 41.4492 25.3382 39.521C21.7378 38.6397 18.9283 36.1541 18.0772 35.544C17.6554 35.2352 18.3634 36.1164 19.2145 38.2556C22.122 45.5467 19.4254 53.5911 10.4848 53.9677C9.98764 53.9677 11.9912 54.7209 13.8064 57.9748C15.8326 61.5751 16.2921 66.7422 13.3997 69.273C12.541 70.0262 12.3075 69.3634 12.7519 69.0169C16.8193 65.8685 14.5898 57.5078 9.73908 54.3593C9.40766 54.1484 8.78249 53.8547 8.69211 53.7869C8.45861 53.6212 8.4812 53.1693 8.90301 53.2144C19.0639 54.397 24.6076 43.2193 13.9646 31.6348C13.2943 30.8816 13.9194 30.5954 14.4919 31.1979C20.141 37.1182 27.1836 42.1723 33.7215 37.3141C39.9581 32.6818 40.4402 23.1385 41.344 23.2289C41.6604 23.2289 41.6905 23.5603 41.6077 23.8691C41.015 27.1554 41.097 30.5279 41.8487 33.7815C44.5 44.221 54.8417 42.6167 65.7332 30.5878C65.9139 30.3845 66.4261 30.4523 66.396 30.859C66.396 30.972 58.6981 40.8768 63.5262 51.7683C64.5054 53.9752 66.2152 56.0917 68.4297 56.9881C69.3942 57.3684 70.4303 57.5329 71.4651 57.4701Z" fill="#000001"/>
<path id="Vector_55" d="M48.424 76.2176C50.5933 80.9704 49.4936 80.3227 33.2618 88.2691C21.2329 94.1517 21.3535 94.1517 20.3366 94.1894C19.9783 94.2569 19.6078 94.2086 19.2787 94.0515C18.9496 93.8945 18.6791 93.6367 18.5063 93.3156C15.6139 86.1375 14.5519 87.8548 28.0947 81.5278C47.008 72.685 46.4054 71.7887 48.424 76.2176ZM39.0917 84.3976C49.5689 79.238 49.3279 80.5637 47.6633 76.3306C46.5184 73.4383 45.9836 74.071 41.6376 76.1272C25.8878 83.4937 20.1709 85.919 18.2879 87.192C17.2635 87.9075 17.384 88.2992 17.6476 89.0072C19.3122 93.5265 19.3348 93.3684 20.2764 93.4361C20.9768 93.3985 38.4967 84.6988 39.0917 84.3976Z" fill="#000001"/>
<path id="Vector_56" d="M46.752 85.2261C47.3622 85.2261 47.4375 86.0546 46.85 86.0471C46.7449 86.0528 46.6415 86.0183 46.5609 85.9506C46.4803 85.8829 46.4286 85.787 46.4161 85.6825C46.4036 85.578 46.4314 85.4726 46.4938 85.3878C46.5562 85.3031 46.6485 85.2452 46.752 85.2261Z" fill="#000001"/>
<path id="Vector_57" d="M44.8768 86.3333C44.8726 86.279 44.8797 86.2245 44.8974 86.173C44.9151 86.1215 44.9432 86.0743 44.9799 86.034C45.0166 85.9938 45.0611 85.9615 45.1107 85.9392C45.1603 85.9168 45.214 85.9048 45.2684 85.9039C45.3281 85.9014 45.3876 85.9118 45.4429 85.9344C45.4982 85.957 45.5479 85.9913 45.5887 86.035C45.6295 86.0786 45.6603 86.1306 45.6792 86.1873C45.698 86.2439 45.7043 86.304 45.6978 86.3634C45.6978 86.6873 45.5697 86.8003 45.2684 86.7927C44.9671 86.7852 44.8617 86.6572 44.8768 86.3333Z" fill="#000001"/>
<path id="Vector_58" d="M43.4828 87.0488C43.4828 86.4462 44.2737 86.4311 44.2737 86.996C44.2737 87.561 43.4678 87.6287 43.4828 87.0488Z" fill="#000001"/>
<path id="Vector_59" d="M42.4961 87.1398C42.6015 87.2754 42.7672 87.3657 42.7522 87.5766C42.6919 88.1566 42.3153 87.5766 42.1345 88.3298C41.8031 89.6932 39.6791 88.9927 39.6188 87.7574C39.7619 86.0024 41.0047 85.7764 41.3964 86.3263C41.5244 86.5146 41.5395 86.8159 41.2307 86.8686C41.0575 86.8686 40.8767 86.5523 40.598 86.8686C39.6113 87.9156 41.1026 88.9023 41.4943 88.1039C41.1554 88.0512 40.9143 88.2169 40.824 87.9306C40.6733 87.4862 41.1403 87.4034 41.5772 87.1774C41.8107 87.0494 42.1797 86.6954 42.4961 87.1398Z" fill="#000001"/>
<path id="Vector_60" d="M39.0014 88.729C39.1947 89.0016 39.3093 89.3221 39.3328 89.6555C39.2876 90.2656 38.6699 89.8814 38.2481 89.7082C37.0279 89.1885 36.8246 88.955 37.5853 90.1224C37.9318 90.6422 37.2012 91.2523 37.0505 90.7175C36.7755 90.0223 36.4612 89.3433 36.109 88.6838C36.109 88.3373 36.2898 88.1867 36.4781 88.3223C36.797 88.5138 37.15 88.6417 37.5175 88.6989C38.4816 88.9399 38.5042 89.2939 37.9092 88.0511C37.7284 87.6594 37.864 87.4561 37.977 87.4184C38.3385 87.2828 38.4139 87.6368 39.0014 88.729Z" fill="#000001"/>
<path id="Vector_61" d="M37.1636 80.8124C37.7737 81.5656 38.3988 82.6879 37.6004 83.2453C36.802 83.8027 36.3727 83.8855 31.1604 86.2582C18.9809 91.8922 20.3367 92.1031 19.3575 89.0225C19.4781 88.0508 19.0035 88.435 27.8915 84.3676C35.8228 80.7446 36.6137 80.1496 37.1636 80.8124Z" fill="#000001"/>
<path id="Vector_62" d="M36.3427 90.8981C36.7871 91.3726 36.1996 92.0505 35.8832 91.5007C35.838 91.4178 35.9586 91.6589 35.0246 89.7758C34.9794 89.7005 34.7459 89.3992 35.0246 89.1582C35.4012 88.7891 35.9962 90.5215 36.3427 90.8981Z" fill="#000001"/>
<path id="Vector_63" d="M35.3109 91.8924C35.3109 92.382 35.0247 92.5703 34.4447 92.9168C33.6915 93.3687 33.4128 92.254 33.119 91.7267C32.6746 90.9283 31.9892 90.3483 32.75 89.9943C33.7969 89.4671 35.0774 90.3031 35.3109 91.8924ZM34.5577 92.0883C34.9795 91.7569 34.0304 90.4463 33.5032 90.5216C32.9759 90.5969 33.0964 90.4463 33.8723 91.9527C34.0832 92.3293 34.1811 92.3519 34.5501 92.0506L34.5577 92.0883Z" fill="#000001"/>
<path id="Vector_64" d="M30.8815 91.4928C30.8062 91.086 31.0623 90.845 31.4163 91.1011C31.7703 91.3572 32.8549 92.3891 33.0658 92.6075C33.1205 92.6457 33.166 92.6957 33.1987 92.7538C33.2315 92.8119 33.2508 92.8766 33.2551 92.9431C33.2594 93.0097 33.2487 93.0764 33.2238 93.1382C33.1989 93.2001 33.1603 93.2556 33.111 93.3005C32.6591 93.4587 32.5612 92.7205 32.1695 92.841C31.2882 93.1348 31.9511 93.8955 31.4163 93.9709C30.8815 94.0462 31.0472 92.9841 31.0999 92.9766C31.055 92.4783 30.9821 91.9829 30.8815 91.4928Z" fill="#000001"/>
<path id="Vector_65" d="M29.4281 91.5605C31.0475 92.2535 30.9948 94.6939 29.7143 94.5207C28.8782 94.4077 28.6523 93.9633 28.351 93.1649C28.2964 92.9879 28.282 92.8009 28.3089 92.6177C28.3359 92.4344 28.4034 92.2595 28.5067 92.1057C28.6099 91.9519 28.7463 91.8232 28.9057 91.7288C29.0651 91.6345 29.2436 91.577 29.4281 91.5605ZM30.0457 93.3231C30.0909 92.9314 29.7971 92.6828 29.5636 92.3966C29.4281 92.246 29.2699 92.2836 29.1117 92.3062C28.1853 92.4719 30.0457 95.0404 30.0457 93.3231Z" fill="#000001"/>
<path id="Vector_66" d="M28.8405 95.0929C28.8782 95.3791 28.6145 95.4544 27.7107 95.8461C27.1307 96.1173 26.6938 96.3056 26.4603 95.6503C25.7975 93.82 25.4209 93.4885 25.7599 93.3304C26.0988 93.1722 26.3248 93.6844 26.7164 94.5054C27.0479 95.2059 26.9198 95.4544 27.206 95.3038C27.8689 95.0176 28.8179 94.4301 28.8405 95.0929Z" fill="#000001"/>
<path id="Vector_67" d="M27.5976 67.6839C27.5976 66.7725 28.75 66.8704 28.6823 67.5483C28.7002 67.6235 28.7021 67.7016 28.6878 67.7776C28.6735 67.8535 28.6433 67.9256 28.5993 67.9891C28.5553 68.0526 28.4983 68.1062 28.4322 68.1462C28.3661 68.1862 28.2923 68.2119 28.2156 68.2215C28.1389 68.2311 28.0611 68.2244 27.9871 68.2018C27.9132 68.1793 27.8448 68.1415 27.7865 68.0907C27.7282 68.04 27.6813 67.9775 27.6487 67.9074C27.6162 67.8373 27.5987 67.7612 27.5976 67.6839Z" fill="#000001"/>
</g>
</g>
</svg>
